<?xml version="1.0" encoding="UTF-8" standalone="no"?>
<svg
   viewBox="0 0 1088.51 544.53"
   version="1.1"
   id="svg11729"
   sodipodi:docname="1.svg"
   inkscape:version="1.2.2 (1:1.2.2+202212051552+b0a8486541)"
   xmlns:inkscape="http://www.inkscape.org/namespaces/inkscape"
   xmlns:sodipodi="http://sodipodi.sourceforge.net/DTD/sodipodi-0.dtd"
   xmlns="http://www.w3.org/2000/svg"
   xmlns:svg="http://www.w3.org/2000/svg"
   xmlns:rdf="http://www.w3.org/1999/02/22-rdf-syntax-ns#"
   xmlns:cc="http://creativecommons.org/ns#"
   xmlns:dc="http://purl.org/dc/elements/1.1/">
  <sodipodi:namedview
     id="namedview11731"
     pagecolor="#ffffff"
     bordercolor="#000000"
     borderopacity="0.25"
     inkscape:showpageshadow="2"
     inkscape:pageopacity="0.0"
     inkscape:pagecheckerboard="0"
     inkscape:deskcolor="#d1d1d1"
     showgrid="false"
     inkscape:zoom="0.43340126"
     inkscape:cx="545.68369"
     inkscape:cy="272.26501"
     inkscape:window-width="1223"
     inkscape:window-height="779"
     inkscape:window-x="57"
     inkscape:window-y="21"
     inkscape:window-maximized="1"
     inkscape:current-layer="Layer_1" />
  <defs
     id="defs10265">
    <style
       id="style10254">.cls-1,.cls-10,.cls-11,.cls-12,.cls-13,.cls-15,.cls-17,.cls-24,.cls-25,.cls-26{fill:none;}.cls-14,.cls-2,.cls-22{fill:#1f77b4;}.cls-2,.cls-3,.cls-4{opacity:0.3;}.cls-16,.cls-20,.cls-3{fill:#ff7f0e;}.cls-18,.cls-23,.cls-4{fill:#2ca02c;}.cls-5{fill:#c1272d;}.cls-6{fill:#fcee21;}.cls-7{fill:blue;}.cls-8{fill:#8cc63f;}.cls-9{clip-path:url(#clip-path);}.cls-10,.cls-15{stroke:#ff7f0e;}.cls-10,.cls-11,.cls-12,.cls-25{stroke-linejoin:round;}.cls-10,.cls-11,.cls-12{stroke-dasharray:3.7 1.6;}.cls-11,.cls-13{stroke:#1f77b4;}.cls-12,.cls-17{stroke:#2ca02c;}.cls-13,.cls-15,.cls-17,.cls-24,.cls-26{stroke-miterlimit:10;}.cls-14,.cls-16,.cls-18{opacity:0.5;}.cls-19{clip-path:url(#clip-path-13);}.cls-21{clip-path:url(#clip-path-14);}.cls-24{stroke:#820303;stroke-width:2px;}.cls-25,.cls-26{stroke:#000;stroke-width:3px;}.cls-26{stroke-linecap:square;}</style>
    <clipPath
       id="clip-path"
       transform="translate(-16.19 -7.21)">
      <rect
         class="cls-1"
         x="831.64"
         y="138"
         width="285.54"
         height="354.03"
         id="rect10256" />
    </clipPath>
    <clipPath
       id="clip-path-13"
       transform="translate(-16.19 -7.21)">
      <rect
         class="cls-1"
         x="831.64"
         y="140"
         width="285.54"
         height="354.03"
         id="rect10259" />
    </clipPath>
    <clipPath
       id="clip-path-14"
       transform="translate(-16.19 -7.21)">
      <rect
         class="cls-1"
         x="831.64"
         y="136"
         width="285.54"
         height="354.03"
         id="rect10262" />
    </clipPath>
  </defs>
  <title
     id="title10267">temporal_data</title>
  <g
     id="Layer_1"
     data-name="Layer 1">
    <path
       d="M97,125.7c.38,50.47,1.14,101,1.83,151.42S98.34,378,98.66,428.41q.27,42.85,1.23,85.71c0,1.93,3,1.94,3,0-2.25-100.94-.42-201.9-1.63-302.85-.35-28.53-1.06-57.05-1.28-85.57a1.5,1.5,0,0,0-3,0Z"
       transform="translate(-16.19 -7.21)"
       id="path11394" />
    <path
       d="M17.78,105.92a98.52,98.52,0,0,0,0,35.38c.34,1.89,3.23,1.09,2.89-.8a94.45,94.45,0,0,1,0-33.78c.34-1.89-2.55-2.7-2.89-.8Z"
       transform="translate(-16.19 -7.21)"
       id="path11396" />
    <path
       d="M20.85,110.56c4.24-4.13,7.73,4.32,7.48,7.51-.33,4.29-4.5,8-8.7,5.69a1.5,1.5,0,0,0-1.51,2.59c6.62,3.7,13.35-2.3,13.24-9.21-.1-5.86-6.69-14.49-12.63-8.7-1.38,1.35.74,3.47,2.12,2.12Z"
       transform="translate(-16.19 -7.21)"
       id="path11398" />
    <path
       d="M48.8,122.71a6.68,6.68,0,0,0-9.63-5.8c-5,2.32-9.63,10.11-9.41,15.63a6.84,6.84,0,0,0,9.6,6.31c6.58-2.57,7-10.78,7.24-16.78.07-1.94-2.86-1.9-3,0a38.58,38.58,0,0,0,3.32,18.86c.78,1.76,3.37.24,2.59-1.51a35.63,35.63,0,0,1-2.91-17.35h-3c-.1,3.16-.15,6.45-1.35,9.42-1.4,3.49-8.5,8.81-9.49,1-.33-2.58,1.38-5.6,2.71-7.68a17.81,17.81,0,0,1,3.2-4c2.27-1.91,6.89-2.66,7.13,1.88.1,1.92,3.1,1.93,3,0Z"
       transform="translate(-16.19 -7.21)"
       id="path11400" />
    <path
       d="M64.42,120c-2.8-6-11.75-5.72-13.18,1.14a8.61,8.61,0,0,0,2.8,8.39,9.54,9.54,0,0,0,4.19,1.54,8.66,8.66,0,0,1,2.82.54q3.2,5.31-2.4,5.27a19.56,19.56,0,0,1-3.55-.78,1.51,1.51,0,0,0-.8,2.9c3.22.9,7,1.65,9.66-1a5.69,5.69,0,0,0,.86-7.43c-2.11-2.74-5.86-1.68-8.5-3.3a5.35,5.35,0,0,1-1.56-7.12c2.06-3.05,5.85-1.3,7.07,1.33.82,1.75,3.4.23,2.59-1.52Z"
       transform="translate(-16.19 -7.21)"
       id="path11402" />
    <path
       d="M72.69,101.23a105.36,105.36,0,0,0-.58,31.71c.7,4.84,4.44,12,10,7.27,1.47-1.25-.66-3.37-2.13-2.12s-4.15-2-4.48-3.26a33.33,33.33,0,0,1-.75-5.18c-.3-2.89-.47-5.8-.52-8.71A107.11,107.11,0,0,1,75.58,102c.3-1.88-2.59-2.7-2.89-.79Z"
       transform="translate(-16.19 -7.21)"
       id="path11404" />
    <path
       d="M66.32,123.53a36.71,36.71,0,0,1,13.74-.34c1.89.32,2.7-2.57.8-2.89a40.6,40.6,0,0,0-15.34.34c-1.88.41-1.08,3.3.8,2.89Z"
       transform="translate(-16.19 -7.21)"
       id="path11406" />
    <path
       d="M20.86,487.77l.1,33.07a1.5,1.5,0,0,0,3,0l-.1-33.07a1.5,1.5,0,0,0-3,0Z"
       transform="translate(-16.19 -7.21)"
       id="path11408" />
    <path
       d="M23.31,490.17,36.23,518c.71,1.52,2.63.52,2.8-.76a284.53,284.53,0,0,0,2.45-31.82c.05-1.93-2.95-1.93-3,0A284.53,284.53,0,0,1,36,517.27l2.79-.76L25.9,488.66c-.81-1.75-3.4-.23-2.59,1.51Z"
       transform="translate(-16.19 -7.21)"
       id="path11410" />
    <path
       d="M45.07,504.37c-.92,5.17-1.61,12.84,4.35,15.33s11.68-2.88,13.42-8.15c1.85-5.6-.2-13.26-6.32-15.24-5.63-1.82-11,2.68-12.13,8-.41,1.88,2.48,2.68,2.9.8.77-3.55,4-7,8-6.07,5.06,1.22,6.06,8,4.53,12.05-1.36,3.61-5.53,7.83-9.62,5.49-3.78-2.15-2.86-7.83-2.21-11.42.34-1.89-2.56-2.7-2.9-.8Z"
       transform="translate(-16.19 -7.21)"
       id="path11412" />
    <path
       d="M64.26,497.44a206.11,206.11,0,0,0,2.88,23.23c.25,1.37,2.08,1.32,2.74.36a42.22,42.22,0,0,0,5.93-12.94l-2.94-.4c.27,2.06.89,15.86,6.63,11.22,2.49-2,2.81-7.12,3.42-10a109.36,109.36,0,0,0,2-14.65c.14-1.92-2.86-1.91-3,0a101.23,101.23,0,0,1-2.32,15.6c-.17.77-.95,6.63-2.65,5.6-.78-.48-1-6.7-1.11-7.81-.21-1.57-2.47-2.17-3-.4a39.51,39.51,0,0,1-5.63,12.22l2.74.36a198.81,198.81,0,0,1-2.77-22.43c-.13-1.92-3.13-1.93-3,0Z"
       transform="translate(-16.19 -7.21)"
       id="path11414" />
    <path
       d="M56,177.59c-2.7,9.52-4.82,20-4.58,30,.17,7,7,6.12,12.34,4.43,1.84-.59,1.05-3.48-.79-2.9-3.68,1.18-7.51,2.1-8.52-2.48-.57-2.61.38-6.82.68-9.46a119.85,119.85,0,0,1,3.76-18.76,1.5,1.5,0,0,0-2.89-.8Z"
       transform="translate(-16.19 -7.21)"
       id="path11416" />
    <path
       d="M45.69,196.14A37.25,37.25,0,0,1,63,195.62c1.88.38,2.69-2.51.79-2.89a40.63,40.63,0,0,0-18.86.52,1.5,1.5,0,0,0,.79,2.89Z"
       transform="translate(-16.19 -7.21)"
       id="path11418" />
    <path
       d="M68.49,202.54c-3,3.15-3.19,9.25-.3,12.57,3.38,3.9,8.65,1.4,10.46-2.68s.83-10.65-3.2-13.24c-4.66-3-9.17,1.7-10.27,6-.48,1.87,2.41,2.67,2.89.8.66-2.58,3.32-6.38,6.21-3.9,2.19,1.88,2.7,5.77,1.91,8.39-.84,2.8-4.31,5.28-6.23,1.92-1.27-2.22-1.13-5.87.65-7.74,1.34-1.4-.78-3.52-2.12-2.13Z"
       transform="translate(-16.19 -7.21)"
       id="path11420" />
    <path
       d="M69.92,459.68a3.26,3.26,0,0,1,3.71-4.4,3.21,3.21,0,0,1,2.1,4.83c-1,1.65-3.16,2.61-4.77,3.54-2.74,1.58-5.71,3.35-6.25,6.74-.14.88.38,2,1.44,1.9l13.73-1.09c1.91-.15,1.92-3.15,0-3l-13.73,1.09,1.45,1.9c1-6.28,14.75-6.49,11.23-15-3.26-7.84-14.76-2.74-11.5,5,.75,1.77,3.34.25,2.59-1.51Z"
       transform="translate(-16.19 -7.21)"
       id="path11422" />
    <path
       d="M55.1,431.47c-2.69,9.52-4.81,20-4.57,30,.17,7,7,6.12,12.34,4.43,1.83-.59,1.05-3.48-.8-2.9-3.68,1.18-7.5,2.1-8.51-2.48-.58-2.61.38-6.82.68-9.46A119.82,119.82,0,0,1,58,432.27a1.5,1.5,0,0,0-2.89-.8Z"
       transform="translate(-16.19 -7.21)"
       id="path11424" />
    <path
       d="M44.8,450a37.22,37.22,0,0,1,17.27-.52c1.89.38,2.69-2.51.8-2.89a40.67,40.67,0,0,0-18.87.52,1.5,1.5,0,0,0,.8,2.89Z"
       transform="translate(-16.19 -7.21)"
       id="path11426" />
    <path
       d="M56.38,296.66c-2.7,9.53-4.82,20-4.58,30,.17,7,7,6.12,12.35,4.43,1.83-.59,1-3.48-.8-2.89-3.68,1.17-7.51,2.09-8.52-2.49-.57-2.61.38-6.82.68-9.45a119.74,119.74,0,0,1,3.76-18.77,1.5,1.5,0,0,0-2.89-.8Z"
       transform="translate(-16.19 -7.21)"
       id="path11428" />
    <path
       d="M46.08,315.21a37.21,37.21,0,0,1,17.27-.52c1.88.39,2.69-2.5.8-2.89a40.67,40.67,0,0,0-18.87.52,1.5,1.5,0,0,0,.8,2.89Z"
       transform="translate(-16.19 -7.21)"
       id="path11430" />
    <path
       d="M67.78,328.79c3.47-2.31,6.15-5.36,7-9.54l-3-.39c-.07,4.08,0,8.22-.23,12.3-.07,1.12.14,1.34-.83,1.62a6.65,6.65,0,0,1-1.71-.13,4.26,4.26,0,0,0-2.65.68,1.52,1.52,0,0,0,.76,2.8l9.11.06a1.5,1.5,0,0,0,0-3l-9.11-.06.76,2.79c2.17-1.52,5.25,1.3,6.48-2.18.66-1.87.23-4.7.27-6.68l.15-8.2c0-1.66-2.61-2.09-2.94-.4a12.13,12.13,0,0,1-5.62,7.74c-1.6,1.06-.1,3.66,1.52,2.59Z"
       transform="translate(-16.19 -7.21)"
       id="path11432" />
    <path
       d="M98.75,195.83H92a1.5,1.5,0,0,0,0,3h6.78a1.5,1.5,0,0,0,0-3Z"
       transform="translate(-16.19 -7.21)"
       id="path11434" />
    <path
       d="M101.65,319H92.94a1.5,1.5,0,0,0,0,3h8.71a1.5,1.5,0,0,0,0-3Z"
       transform="translate(-16.19 -7.21)"
       id="path11436" />
    <path
       d="M98.75,451.83H92a1.5,1.5,0,0,0,0,3h6.78a1.5,1.5,0,0,0,0-3Z"
       transform="translate(-16.19 -7.21)"
       id="path11438" />
    <path
       d="M151.92,21.76a401.94,401.94,0,0,0,1.17,47.08,1.81,1.81,0,0,0,3.35.91l.54-.88c1.21-2-1.9-3.8-3.11-1.82l-.54.88,3.36.91a401.94,401.94,0,0,1-1.17-47.08c.07-2.31-3.53-2.31-3.6,0Z"
       transform="translate(-16.19 -7.21)"
       id="path11520" />
    <path
       d="M138.82,22.08A82.75,82.75,0,0,1,152,21.31c3.29.08,11-.45,13.32,2.35,1.46,1.79,4-.77,2.54-2.55-2.6-3.19-8.16-2.92-12-3.21a85.56,85.56,0,0,0-18,.71c-2.28.31-1.31,3.78,1,3.47Z"
       transform="translate(-16.19 -7.21)"
       id="path11522" />
    <path
       d="M175.23,39.37l-.6,30.07c0,2.31,3.55,2.31,3.6,0l.6-30.07c0-2.32-3.55-2.32-3.6,0Z"
       transform="translate(-16.19 -7.21)"
       id="path11524" />
    <path
       d="M181.64,47.42A9.15,9.15,0,0,1,185.7,43L183,41.43a122.83,122.83,0,0,1-.26,28c-.25,2,3.08,2.44,3.54.48l.33-1.42c.52-2.26-2.95-3.22-3.47-1l-.33,1.43,3.53.47a122.83,122.83,0,0,0,.26-28,1.82,1.82,0,0,0-2.7-1.55,12.22,12.22,0,0,0-5.36,5.73c-1,2.06,2.06,3.88,3.11,1.81Z"
       transform="translate(-16.19 -7.21)"
       id="path11526" />
    <path
       d="M186.49,50.28c.72-1.41,2.76-6.12,4.38-6.35,2.79-.4,1.61,5.39,1.58,7l-.31,15.7c0,2.32,3.56,2.32,3.6,0l.31-15.7c0-3,1.17-8.2-1.13-10.77-4.27-4.78-10,5.36-11.54,8.32-1,2.06,2.06,3.89,3.11,1.82Z"
       transform="translate(-16.19 -7.21)"
       id="path11528" />
    <path
       d="M166.07,41.65q-.49,7.49-1,15c-.23,3.59-.83,7.62.38,11.09s5.09,5.26,7,1.27c1-2.08-2.1-3.9-3.1-1.82.11-.23-1-5.56-.92-6.87.07-2.15.27-4.32.41-6.47l.79-12.15c.15-2.31-3.46-2.3-3.6,0Z"
       transform="translate(-16.19 -7.21)"
       id="path11530" />
    <path
       d="M165.24,29l0,4.14a1.82,1.82,0,0,0,3.36.91L169.66,32c1.09-2.05-2-3.87-3.1-1.82l-1.1,2.07,3.35.9,0-4.14c0-2.32-3.58-2.32-3.6,0Z"
       transform="translate(-16.19 -7.21)"
       id="path11532" />
    <path
       d="M204.56,58.71c6-.88,11.77-5.74,9.36-12.38-1.87-5.17-10-10-13.93-4.18-6.42,9.49,3.43,36.61,16.49,25.05,1.73-1.54-.82-4.08-2.55-2.55-3.75,3.32-8.18.21-10.1-3.38-1.73-3.25-2-7.19-1.91-10.79,0-1.35-.18-4.2.58-5.23,2.18-2.94,6.35-1.75,7.63,1.39,2.13,5.2-2,7.94-6.52,8.6-2.29.33-1.32,3.8.95,3.47Z"
       transform="translate(-16.19 -7.21)"
       id="path11534" />
    <path
       d="M349,23.93l2.31,43.8h3l-.16-3.06c-.11-1.92-3.11-1.93-3,0l.16,3.06c.1,1.92,3.1,1.93,3,0L352,23.93c-.1-1.92-3.11-1.93-3,0Z"
       transform="translate(-16.19 -7.21)"
       id="path11536" />
    <path
       d="M352,25.8c7.45-8.6,15,16.1,15.94,21.13s.73,10.8-3,14.59a13.6,13.6,0,0,1-5.69,3.21,24.67,24.67,0,0,1-4,1l.24,1.82.19-.44-2.36.31.23.19c1.48,1.22,3.62-.89,2.13-2.12l-.24-.19a1.51,1.51,0,0,0-2.35.3l-.19.43a1.55,1.55,0,0,0,.23,1.82c2.64,2.79,10.32-1.27,12.69-3.15,5.1-4,6.17-10.79,5.31-16.92-.92-6.56-10.16-36.9-21.23-24.13-1.26,1.46.86,3.59,2.12,2.13Z"
       transform="translate(-16.19 -7.21)"
       id="path11538" />
    <path
       d="M388.38,43.85c-.9-4.46-5.36-7.93-9.57-4.69C373.49,43.24,372.7,54,374,60c1.11,5.36,5.79,9.25,10.79,5.29,6.5-5.16,5.46-15.91,5-23.16-.12-1.91-3-1.94-3,0l.47,24.6c0,1.93,3,1.94,3,0l-.47-24.6h-3a71.72,71.72,0,0,1,.14,10.67c-.33,3.66-4.44,17.06-9.54,8.14-1.66-2.9-.79-8.45-.21-11.49a17.11,17.11,0,0,1,1.6-5.13c2-3.66,5.69-4.87,6.74.3.38,1.89,3.28,1.09,2.89-.79Z"
       transform="translate(-16.19 -7.21)"
       id="path11540" />
    <path
       d="M397.87,19.09c-2.43,12.91-3.95,27-2,40.11.44,2.93,1.43,7.38,4.85,8.28s5.58-2,6.54-4.79c.64-1.82-2.26-2.61-2.89-.79q-4.45,3.65-5-.65L399,60a35.39,35.39,0,0,1-.57-5.54c-.21-3.7-.27-7.42-.19-11.13a143.7,143.7,0,0,1,2.48-23.4c.36-1.88-2.53-2.69-2.89-.79Z"
       transform="translate(-16.19 -7.21)"
       id="path11542" />
    <path
       d="M392.22,42.45h8.59a1.5,1.5,0,0,0,0-3h-8.59a1.5,1.5,0,0,0,0,3Z"
       transform="translate(-16.19 -7.21)"
       id="path11544" />
    <path
       d="M421.14,46.67c-.11-4.5-3.51-10.4-8.58-7-5.66,3.81-6.49,15-5.43,21,.86,4.88,4.83,8.87,9.67,5.62,6.41-4.29,5.72-15.08,5.66-21.7a1.5,1.5,0,0,0-3,0,44,44,0,0,0,4.61,22.18c.88,1.71,3.47.2,2.59-1.52a40.94,40.94,0,0,1-4.2-20.66h-3a59.87,59.87,0,0,1-.58,11.59c-.64,3.45-4.21,12.21-8.34,5.6-1.67-2.68-.59-8.45-.06-11.37A21.16,21.16,0,0,1,411.63,46l2-3.32q5.21-1.27,4.55,4c0,1.93,3,1.93,3,0Z"
       transform="translate(-16.19 -7.21)"
       id="path11546" />
    <path
       d="M249.32,23.87c-1.66-3.63-5.48-6-9.39-4-4.35,2.24-5.32,8.36-4.91,12.71a17.34,17.34,0,0,0,7.14,12.63c3.56,2.5,9.34,2.86,8.47,8.86-.25,1.78-1.46,3.84-2.26,5.42a28.13,28.13,0,0,1-1.63,2.94c-1.62,3.37-4.19,3.34-7.72-.12-.08-2.31-3.68-2.33-3.6,0,.16,4.82,4,8.74,9,6.85,5.19-2,9-9.76,9.77-14.87,1-6.25-3.47-8.51-8.15-10.95a13.66,13.66,0,0,1-7.17-9.12,14.49,14.49,0,0,1,.2-7.51c1.3-4,5.12-5.41,7.12-1,1,2.11,4.06.28,3.11-1.82Z"
       transform="translate(-16.19 -7.21)"
       id="path11548" />
    <path
       d="M260.31,53.52c4.85-.52,14.51-3.37,10.74-10.25-3.14-5.72-10.63-3.12-13.3,1.52-3.26,5.65-3,15.59,2,20.2a15.06,15.06,0,0,0,9.28,3.64,3.79,3.79,0,0,0,2.46-.67c.47-.34,1.81-2.82,1.55-2.79,2.27-.28,2.3-3.89,0-3.6-1.67.2-1.68.74-2.81,1.79a9.52,9.52,0,0,0-.58,1.15,4.39,4.39,0,0,1-3.23-.06,8.35,8.35,0,0,1-5.66-4c-1.83-3.23-1.89-8.34-.79-11.8.51-1.58,2.84-5.79,5.24-5.12q3.75,5-1,5.62a18.45,18.45,0,0,1-4,.76c-2.28.24-2.3,3.85,0,3.6Z"
       transform="translate(-16.19 -7.21)"
       id="path11550" />
    <path
       d="M277.52,50.52c.68-3.73,1.84-7.09,4.72-9.69l-3-.8c1.71,6.2,7.58,6,9.1-.19a1.8,1.8,0,0,0-3.47-1,120.67,120.67,0,0,0-3.35,16c-.45,3.3-2.21,9.57-.47,12.74,3.58,6.52,11.59-1.09,13.45-4.81,1-2.07-2.08-3.89-3.11-1.82a12.92,12.92,0,0,1-2.17,3.41c-1.17,1.19-4,1.75-5-.16-.83-1.59.67-7.26.89-8.88a117.17,117.17,0,0,1,3.27-15.49l-3.47-1-2.16.19a1.82,1.82,0,0,0-3-.8c-3.3,3-4.86,7-5.64,11.29-.41,2.26,3.06,3.23,3.47,1Z"
       transform="translate(-16.19 -7.21)"
       id="path11552" />
    <path
       d="M296.07,32.12h.54a1.8,1.8,0,1,0,0-3.6h-.54a1.82,1.82,0,0,0-1.8,1.8,1.84,1.84,0,0,0,1.8,1.8Z"
       transform="translate(-16.19 -7.21)"
       id="path11554" />
    <path
       d="M330.7,46.71C336.57,40,324.88,34,320,40.45c-2.31,3.08-.95,7.72,1.34,10.4,1.61,1.88,4,2.78,5.73,4.53a7,7,0,0,1,1.8,6.53c-1.44,5.56-5.92,3.76-6.89-.67-.49-2.26-4-1.3-3.47,1,1.54,7.06,10.14,10.43,13.27,2.46A11.16,11.16,0,0,0,330.62,54a18.67,18.67,0,0,0-4.3-3.62c-1.28-.92-3.69-2.74-3.67-4.61l2-4.07c1.72-.9,2.89-.06,3.49,2.52-1.52,1.73,1,4.29,2.54,2.54Z"
       transform="translate(-16.19 -7.21)"
       id="path11556" />
    <path
       d="M293.59,40.05l-1.08,15.27c-.25,3.51-1.55,8.44-.12,11.81,1.71,4.06,6.91,3.66,8.8.07,1.08-2-2-3.86-3.11-1.81-2.21-.9-3-2.35-2.37-4.34l.13-1.91.47-6.68.88-12.41c.17-2.31-3.43-2.3-3.6,0Z"
       transform="translate(-16.19 -7.21)"
       id="path11558" />
    <path
       d="M304.25,57.23c6.28,0,11.3-5,12.21-11.14.8-5.38-3.4-11.14-9-7.35-9.93,6.69-8.41,34.65,7.34,30.31a1.8,1.8,0,0,0-.95-3.47c-9.9,2.72-9.59-12.37-7.77-17.88.48-1.46.93-3.56,2.14-4.56,2.62-2.15,5.24.66,4.45,3.58a9,9,0,0,1-8.42,6.91,1.8,1.8,0,0,0,0,3.6Z"
       transform="translate(-16.19 -7.21)"
       id="path11560" />
    <path
       class="cls-10"
       d="M853.88,646.67"
       transform="translate(-16.19 -7.21)"
       id="path11628" />
    <path
       d="M92.48,516l8.45-.67c1.91-.15,1.93-3.15,0-3l-8.45.67c-1.91.15-1.93,3.15,0,3Z"
       transform="translate(-16.19 -7.21)"
       id="path11632" />
  </g>
  <metadata
     id="metadata35137">
    <rdf:RDF>
      <cc:Work
         rdf:about="">
        <dc:title>temporal_data</dc:title>
      </cc:Work>
    </rdf:RDF>
  </metadata>
</svg>
