<?xml version="1.0" encoding="UTF-8" standalone="no"?>
<svg
   viewBox="0 0 1320 599.99997"
   version="1.1"
   id="svg11729"
   sodipodi:docname="1.svg"
   inkscape:version="1.3.2 (1:1.3.2+202311252150+091e20ef0f)"
   width="1320"
   height="600"
   xmlns:inkscape="http://www.inkscape.org/namespaces/inkscape"
   xmlns:sodipodi="http://sodipodi.sourceforge.net/DTD/sodipodi-0.dtd"
   xmlns="http://www.w3.org/2000/svg"
   xmlns:svg="http://www.w3.org/2000/svg"
   xmlns:rdf="http://www.w3.org/1999/02/22-rdf-syntax-ns#"
   xmlns:cc="http://creativecommons.org/ns#"
   xmlns:dc="http://purl.org/dc/elements/1.1/">
  <sodipodi:namedview
     id="namedview11731"
     pagecolor="#ffffff"
     bordercolor="#000000"
     borderopacity="0.25"
     inkscape:showpageshadow="2"
     inkscape:pageopacity="0.0"
     inkscape:pagecheckerboard="0"
     inkscape:deskcolor="#d1d1d1"
     showgrid="false"
     inkscape:zoom="0.43340126"
     inkscape:cx="544.53003"
     inkscape:cy="272.26501"
     inkscape:window-width="1223"
     inkscape:window-height="779"
     inkscape:window-x="57"
     inkscape:window-y="21"
     inkscape:window-maximized="1"
     inkscape:current-layer="Layer_1" />
  <defs
     id="defs10265">
    <style
       id="style10254">.cls-1,.cls-10,.cls-11,.cls-12,.cls-13,.cls-15,.cls-17,.cls-24,.cls-25,.cls-26{fill:none;}.cls-14,.cls-2,.cls-22{fill:#1f77b4;}.cls-2,.cls-3,.cls-4{opacity:0.3;}.cls-16,.cls-20,.cls-3{fill:#ff7f0e;}.cls-18,.cls-23,.cls-4{fill:#2ca02c;}.cls-5{fill:#c1272d;}.cls-6{fill:#fcee21;}.cls-7{fill:blue;}.cls-8{fill:#8cc63f;}.cls-9{clip-path:url(#clip-path);}.cls-10,.cls-15{stroke:#ff7f0e;}.cls-10,.cls-11,.cls-12,.cls-25{stroke-linejoin:round;}.cls-10,.cls-11,.cls-12{stroke-dasharray:3.7 1.6;}.cls-11,.cls-13{stroke:#1f77b4;}.cls-12,.cls-17{stroke:#2ca02c;}.cls-13,.cls-15,.cls-17,.cls-24,.cls-26{stroke-miterlimit:10;}.cls-14,.cls-16,.cls-18{opacity:0.5;}.cls-19{clip-path:url(#clip-path-13);}.cls-21{clip-path:url(#clip-path-14);}.cls-24{stroke:#820303;stroke-width:2px;}.cls-25,.cls-26{stroke:#000;stroke-width:3px;}.cls-26{stroke-linecap:square;}</style>
    <clipPath
       id="clip-path"
       transform="translate(-16.19 -7.21)">
      <rect
         class="cls-1"
         x="831.64001"
         y="138"
         width="285.54001"
         height="354.03"
         id="rect10256" />
    </clipPath>
    <clipPath
       id="clip-path-13"
       transform="translate(-16.19 -7.21)">
      <rect
         class="cls-1"
         x="831.64001"
         y="140"
         width="285.54001"
         height="354.03"
         id="rect10259" />
    </clipPath>
    <clipPath
       id="clip-path-14"
       transform="translate(-16.19 -7.21)">
      <rect
         class="cls-1"
         x="831.64001"
         y="136"
         width="285.54001"
         height="354.03"
         id="rect10262" />
    </clipPath>
  </defs>
  <title
     id="title10267">temporal_data</title>
  <g
     id="Layer_1"
     data-name="Layer 1">
    <path
       d="m 97,125.7 c 0.38,50.47 1.14,101 1.83,151.42 0.69,50.42 -0.49,100.88 -0.17,151.29 q 0.27,42.85 1.23,85.71 c 0,1.93 3,1.94 3,0 -2.25,-100.94 -0.42,-201.9 -1.63,-302.85 -0.35,-28.53 -1.06,-57.05 -1.28,-85.57 a 1.5,1.5 0 0 0 -3,0 z"
       transform="translate(-16.19,-7.21)"
       id="path11394" />
    <path
       d="m 17.78,105.92 a 98.52,98.52 0 0 0 0,35.38 c 0.34,1.89 3.23,1.09 2.89,-0.8 a 94.45,94.45 0 0 1 0,-33.78 c 0.34,-1.89 -2.55,-2.7 -2.89,-0.8 z"
       transform="translate(-16.19,-7.21)"
       id="path11396" />
    <path
       d="m 20.85,110.56 c 4.24,-4.13 7.73,4.32 7.48,7.51 -0.33,4.29 -4.5,8 -8.7,5.69 a 1.5,1.5 0 0 0 -1.51,2.59 c 6.62,3.7 13.35,-2.3 13.24,-9.21 -0.1,-5.86 -6.69,-14.49 -12.63,-8.7 -1.38,1.35 0.74,3.47 2.12,2.12 z"
       transform="translate(-16.19,-7.21)"
       id="path11398" />
    <path
       d="m 48.8,122.71 a 6.68,6.68 0 0 0 -9.63,-5.8 c -5,2.32 -9.63,10.11 -9.41,15.63 a 6.84,6.84 0 0 0 9.6,6.31 c 6.58,-2.57 7,-10.78 7.24,-16.78 0.07,-1.94 -2.86,-1.9 -3,0 a 38.58,38.58 0 0 0 3.32,18.86 c 0.78,1.76 3.37,0.24 2.59,-1.51 A 35.63,35.63 0 0 1 46.6,122.07 h -3 c -0.1,3.16 -0.15,6.45 -1.35,9.42 -1.4,3.49 -8.5,8.81 -9.49,1 -0.33,-2.58 1.38,-5.6 2.71,-7.68 a 17.81,17.81 0 0 1 3.2,-4 c 2.27,-1.91 6.89,-2.66 7.13,1.88 0.1,1.92 3.1,1.93 3,0 z"
       transform="translate(-16.19,-7.21)"
       id="path11400" />
    <path
       d="m 64.42,120 c -2.8,-6 -11.75,-5.72 -13.18,1.14 a 8.61,8.61 0 0 0 2.8,8.39 9.54,9.54 0 0 0 4.19,1.54 8.66,8.66 0 0 1 2.82,0.54 q 3.2,5.31 -2.4,5.27 A 19.56,19.56 0 0 1 55.1,136.1 1.51,1.51 0 0 0 54.3,139 c 3.22,0.9 7,1.65 9.66,-1 a 5.69,5.69 0 0 0 0.86,-7.43 c -2.11,-2.74 -5.86,-1.68 -8.5,-3.3 a 5.35,5.35 0 0 1 -1.56,-7.12 c 2.06,-3.05 5.85,-1.3 7.07,1.33 0.82,1.75 3.4,0.23 2.59,-1.52 z"
       transform="translate(-16.19,-7.21)"
       id="path11402" />
    <path
       d="m 72.69,101.23 a 105.36,105.36 0 0 0 -0.58,31.71 c 0.7,4.84 4.44,12 10,7.27 1.47,-1.25 -0.66,-3.37 -2.13,-2.12 -1.47,1.25 -4.15,-2 -4.48,-3.26 a 33.33,33.33 0 0 1 -0.75,-5.18 c -0.3,-2.89 -0.47,-5.8 -0.52,-8.71 A 107.11,107.11 0 0 1 75.58,102 c 0.3,-1.88 -2.59,-2.7 -2.89,-0.79 z"
       transform="translate(-16.19,-7.21)"
       id="path11404" />
    <path
       d="m 66.32,123.53 a 36.71,36.71 0 0 1 13.74,-0.34 c 1.89,0.32 2.7,-2.57 0.8,-2.89 a 40.6,40.6 0 0 0 -15.34,0.34 c -1.88,0.41 -1.08,3.3 0.8,2.89 z"
       transform="translate(-16.19,-7.21)"
       id="path11406" />
    <path
       d="m 20.86,487.77 0.1,33.07 a 1.5,1.5 0 0 0 3,0 l -0.1,-33.07 a 1.5,1.5 0 0 0 -3,0 z"
       transform="translate(-16.19,-7.21)"
       id="path11408" />
    <path
       d="M 23.31,490.17 36.23,518 c 0.71,1.52 2.63,0.52 2.8,-0.76 a 284.53,284.53 0 0 0 2.45,-31.82 c 0.05,-1.93 -2.95,-1.93 -3,0 A 284.53,284.53 0 0 1 36,517.27 l 2.79,-0.76 -12.89,-27.85 c -0.81,-1.75 -3.4,-0.23 -2.59,1.51 z"
       transform="translate(-16.19,-7.21)"
       id="path11410" />
    <path
       d="m 45.07,504.37 c -0.92,5.17 -1.61,12.84 4.35,15.33 5.96,2.49 11.68,-2.88 13.42,-8.15 1.85,-5.6 -0.2,-13.26 -6.32,-15.24 -5.63,-1.82 -11,2.68 -12.13,8 -0.41,1.88 2.48,2.68 2.9,0.8 0.77,-3.55 4,-7 8,-6.07 5.06,1.22 6.06,8 4.53,12.05 -1.36,3.61 -5.53,7.83 -9.62,5.49 -3.78,-2.15 -2.86,-7.83 -2.21,-11.42 0.34,-1.89 -2.56,-2.7 -2.9,-0.8 z"
       transform="translate(-16.19,-7.21)"
       id="path11412" />
    <path
       d="m 64.26,497.44 a 206.11,206.11 0 0 0 2.88,23.23 c 0.25,1.37 2.08,1.32 2.74,0.36 a 42.22,42.22 0 0 0 5.93,-12.94 l -2.94,-0.4 c 0.27,2.06 0.89,15.86 6.63,11.22 2.49,-2 2.81,-7.12 3.42,-10 a 109.36,109.36 0 0 0 2,-14.65 c 0.14,-1.92 -2.86,-1.91 -3,0 a 101.23,101.23 0 0 1 -2.32,15.6 c -0.17,0.77 -0.95,6.63 -2.65,5.6 -0.78,-0.48 -1,-6.7 -1.11,-7.81 -0.21,-1.57 -2.47,-2.17 -3,-0.4 a 39.51,39.51 0 0 1 -5.63,12.22 l 2.74,0.36 A 198.81,198.81 0 0 1 67.18,497.4 c -0.13,-1.92 -3.13,-1.93 -3,0 z"
       transform="translate(-16.19,-7.21)"
       id="path11414" />
    <path
       d="m 56,177.59 c -2.7,9.52 -4.82,20 -4.58,30 0.17,7 7,6.12 12.34,4.43 1.84,-0.59 1.05,-3.48 -0.79,-2.9 -3.68,1.18 -7.51,2.1 -8.52,-2.48 -0.57,-2.61 0.38,-6.82 0.68,-9.46 a 119.85,119.85 0 0 1 3.76,-18.76 1.5,1.5 0 0 0 -2.89,-0.8 z"
       transform="translate(-16.19,-7.21)"
       id="path11416" />
    <path
       d="M 45.69,196.14 A 37.25,37.25 0 0 1 63,195.62 c 1.88,0.38 2.69,-2.51 0.79,-2.89 a 40.63,40.63 0 0 0 -18.86,0.52 1.5,1.5 0 0 0 0.79,2.89 z"
       transform="translate(-16.19,-7.21)"
       id="path11418" />
    <path
       d="m 68.49,202.54 c -3,3.15 -3.19,9.25 -0.3,12.57 3.38,3.9 8.65,1.4 10.46,-2.68 1.81,-4.08 0.83,-10.65 -3.2,-13.24 -4.66,-3 -9.17,1.7 -10.27,6 -0.48,1.87 2.41,2.67 2.89,0.8 0.66,-2.58 3.32,-6.38 6.21,-3.9 2.19,1.88 2.7,5.77 1.91,8.39 -0.84,2.8 -4.31,5.28 -6.23,1.92 -1.27,-2.22 -1.13,-5.87 0.65,-7.74 1.34,-1.4 -0.78,-3.52 -2.12,-2.13 z"
       transform="translate(-16.19,-7.21)"
       id="path11420" />
    <path
       d="m 69.92,459.68 a 3.26,3.26 0 0 1 3.71,-4.4 3.21,3.21 0 0 1 2.1,4.83 c -1,1.65 -3.16,2.61 -4.77,3.54 -2.74,1.58 -5.71,3.35 -6.25,6.74 -0.14,0.88 0.38,2 1.44,1.9 l 13.73,-1.09 c 1.91,-0.15 1.92,-3.15 0,-3 l -13.73,1.09 1.45,1.9 c 1,-6.28 14.75,-6.49 11.23,-15 -3.26,-7.84 -14.76,-2.74 -11.5,5 0.75,1.77 3.34,0.25 2.59,-1.51 z"
       transform="translate(-16.19,-7.21)"
       id="path11422" />
    <path
       d="m 55.1,431.47 c -2.69,9.52 -4.81,20 -4.57,30 0.17,7 7,6.12 12.34,4.43 1.83,-0.59 1.05,-3.48 -0.8,-2.9 -3.68,1.18 -7.5,2.1 -8.51,-2.48 -0.58,-2.61 0.38,-6.82 0.68,-9.46 a 119.82,119.82 0 0 1 3.76,-18.79 1.5,1.5 0 0 0 -2.89,-0.8 z"
       transform="translate(-16.19,-7.21)"
       id="path11424" />
    <path
       d="m 44.8,450 a 37.22,37.22 0 0 1 17.27,-0.52 c 1.89,0.38 2.69,-2.51 0.8,-2.89 A 40.67,40.67 0 0 0 44,447.11 1.5,1.5 0 0 0 44.8,450 Z"
       transform="translate(-16.19,-7.21)"
       id="path11426" />
    <path
       d="m 56.38,296.66 c -2.7,9.53 -4.82,20 -4.58,30 0.17,7 7,6.12 12.35,4.43 1.83,-0.59 1,-3.48 -0.8,-2.89 -3.68,1.17 -7.51,2.09 -8.52,-2.49 -0.57,-2.61 0.38,-6.82 0.68,-9.45 a 119.74,119.74 0 0 1 3.76,-18.77 1.5,1.5 0 0 0 -2.89,-0.8 z"
       transform="translate(-16.19,-7.21)"
       id="path11428" />
    <path
       d="m 46.08,315.21 a 37.21,37.21 0 0 1 17.27,-0.52 c 1.88,0.39 2.69,-2.5 0.8,-2.89 a 40.67,40.67 0 0 0 -18.87,0.52 1.5,1.5 0 0 0 0.8,2.89 z"
       transform="translate(-16.19,-7.21)"
       id="path11430" />
    <path
       d="m 67.78,328.79 c 3.47,-2.31 6.15,-5.36 7,-9.54 l -3,-0.39 c -0.07,4.08 0,8.22 -0.23,12.3 -0.07,1.12 0.14,1.34 -0.83,1.62 a 6.65,6.65 0 0 1 -1.71,-0.13 4.26,4.26 0 0 0 -2.65,0.68 1.52,1.52 0 0 0 0.76,2.8 l 9.11,0.06 a 1.5,1.5 0 0 0 0,-3 l -9.11,-0.06 0.76,2.79 c 2.17,-1.52 5.25,1.3 6.48,-2.18 0.66,-1.87 0.23,-4.7 0.27,-6.68 l 0.15,-8.2 c 0,-1.66 -2.61,-2.09 -2.94,-0.4 a 12.13,12.13 0 0 1 -5.62,7.74 c -1.6,1.06 -0.1,3.66 1.52,2.59 z"
       transform="translate(-16.19,-7.21)"
       id="path11432" />
    <path
       d="M 98.75,195.83 H 92 a 1.5,1.5 0 0 0 0,3 h 6.78 a 1.5,1.5 0 0 0 0,-3 z"
       transform="translate(-16.19,-7.21)"
       id="path11434" />
    <path
       d="m 101.65,319 h -8.71 a 1.5,1.5 0 0 0 0,3 h 8.71 a 1.5,1.5 0 0 0 0,-3 z"
       transform="translate(-16.19,-7.21)"
       id="path11436" />
    <path
       d="M 98.75,451.83 H 92 a 1.5,1.5 0 0 0 0,3 h 6.78 a 1.5,1.5 0 0 0 0,-3 z"
       transform="translate(-16.19,-7.21)"
       id="path11438" />
    <path
       d="m 151.92,21.76 a 401.94,401.94 0 0 0 1.17,47.08 1.81,1.81 0 0 0 3.35,0.91 l 0.54,-0.88 c 1.21,-2 -1.9,-3.8 -3.11,-1.82 l -0.54,0.88 3.36,0.91 a 401.94,401.94 0 0 1 -1.17,-47.08 c 0.07,-2.31 -3.53,-2.31 -3.6,0 z"
       transform="translate(-16.19,-7.21)"
       id="path11520" />
    <path
       d="M 138.82,22.08 A 82.75,82.75 0 0 1 152,21.31 c 3.29,0.08 11,-0.45 13.32,2.35 1.46,1.79 4,-0.77 2.54,-2.55 -2.6,-3.19 -8.16,-2.92 -12,-3.21 a 85.56,85.56 0 0 0 -18,0.71 c -2.28,0.31 -1.31,3.78 1,3.47 z"
       transform="translate(-16.19,-7.21)"
       id="path11522" />
    <path
       d="m 175.23,39.37 -0.6,30.07 c 0,2.31 3.55,2.31 3.6,0 l 0.6,-30.07 c 0,-2.32 -3.55,-2.32 -3.6,0 z"
       transform="translate(-16.19,-7.21)"
       id="path11524" />
    <path
       d="M 181.64,47.42 A 9.15,9.15 0 0 1 185.7,43 L 183,41.43 a 122.83,122.83 0 0 1 -0.26,28 c -0.25,2 3.08,2.44 3.54,0.48 l 0.33,-1.42 c 0.52,-2.26 -2.95,-3.22 -3.47,-1 l -0.33,1.43 3.53,0.47 a 122.83,122.83 0 0 0 0.26,-28 1.82,1.82 0 0 0 -2.7,-1.55 12.22,12.22 0 0 0 -5.36,5.73 c -1,2.06 2.06,3.88 3.11,1.81 z"
       transform="translate(-16.19,-7.21)"
       id="path11526" />
    <path
       d="m 186.49,50.28 c 0.72,-1.41 2.76,-6.12 4.38,-6.35 2.79,-0.4 1.61,5.39 1.58,7 l -0.31,15.7 c 0,2.32 3.56,2.32 3.6,0 l 0.31,-15.7 c 0,-3 1.17,-8.2 -1.13,-10.77 -4.27,-4.78 -10,5.36 -11.54,8.32 -1,2.06 2.06,3.89 3.11,1.82 z"
       transform="translate(-16.19,-7.21)"
       id="path11528" />
    <path
       d="m 166.07,41.65 q -0.49,7.49 -1,15 c -0.23,3.59 -0.83,7.62 0.38,11.09 1.21,3.47 5.09,5.26 7,1.27 1,-2.08 -2.1,-3.9 -3.1,-1.82 0.11,-0.23 -1,-5.56 -0.92,-6.87 0.07,-2.15 0.27,-4.32 0.41,-6.47 l 0.79,-12.15 c 0.15,-2.31 -3.46,-2.3 -3.6,0 z"
       transform="translate(-16.19,-7.21)"
       id="path11530" />
    <path
       d="m 165.24,29 v 4.14 a 1.82,1.82 0 0 0 3.36,0.91 L 169.66,32 c 1.09,-2.05 -2,-3.87 -3.1,-1.82 l -1.1,2.07 3.35,0.9 v -4.14 c 0,-2.32 -3.58,-2.32 -3.6,0 z"
       transform="translate(-16.19,-7.21)"
       id="path11532" />
    <path
       d="m 204.56,58.71 c 6,-0.88 11.77,-5.74 9.36,-12.38 -1.87,-5.17 -10,-10 -13.93,-4.18 -6.42,9.49 3.43,36.61 16.49,25.05 1.73,-1.54 -0.82,-4.08 -2.55,-2.55 -3.75,3.32 -8.18,0.21 -10.1,-3.38 -1.73,-3.25 -2,-7.19 -1.91,-10.79 0,-1.35 -0.18,-4.2 0.58,-5.23 2.18,-2.94 6.35,-1.75 7.63,1.39 2.13,5.2 -2,7.94 -6.52,8.6 -2.29,0.33 -1.32,3.8 0.95,3.47 z"
       transform="translate(-16.19,-7.21)"
       id="path11534" />
    <path
       d="m 349,23.93 2.31,43.8 h 3 l -0.16,-3.06 c -0.11,-1.92 -3.11,-1.93 -3,0 l 0.16,3.06 c 0.1,1.92 3.1,1.93 3,0 L 352,23.93 c -0.1,-1.92 -3.11,-1.93 -3,0 z"
       transform="translate(-16.19,-7.21)"
       id="path11536" />
    <path
       d="m 352,25.8 c 7.45,-8.6 15,16.1 15.94,21.13 0.94,5.03 0.73,10.8 -3,14.59 a 13.6,13.6 0 0 1 -5.69,3.21 24.67,24.67 0 0 1 -4,1 l 0.24,1.82 0.19,-0.44 -2.36,0.31 0.23,0.19 c 1.48,1.22 3.62,-0.89 2.13,-2.12 l -0.24,-0.19 a 1.51,1.51 0 0 0 -2.35,0.3 l -0.19,0.43 a 1.55,1.55 0 0 0 0.23,1.82 c 2.64,2.79 10.32,-1.27 12.69,-3.15 5.1,-4 6.17,-10.79 5.31,-16.92 -0.92,-6.56 -10.16,-36.9 -21.23,-24.13 -1.26,1.46 0.86,3.59 2.12,2.13 z"
       transform="translate(-16.19,-7.21)"
       id="path11538" />
    <path
       d="m 388.38,43.85 c -0.9,-4.46 -5.36,-7.93 -9.57,-4.69 C 373.49,43.24 372.7,54 374,60 c 1.11,5.36 5.79,9.25 10.79,5.29 6.5,-5.16 5.46,-15.91 5,-23.16 -0.12,-1.91 -3,-1.94 -3,0 l 0.47,24.6 c 0,1.93 3,1.94 3,0 l -0.47,-24.6 h -3 a 71.72,71.72 0 0 1 0.14,10.67 c -0.33,3.66 -4.44,17.06 -9.54,8.14 -1.66,-2.9 -0.79,-8.45 -0.21,-11.49 a 17.11,17.11 0 0 1 1.6,-5.13 c 2,-3.66 5.69,-4.87 6.74,0.3 0.38,1.89 3.28,1.09 2.89,-0.79 z"
       transform="translate(-16.19,-7.21)"
       id="path11540" />
    <path
       d="m 397.87,19.09 c -2.43,12.91 -3.95,27 -2,40.11 0.44,2.93 1.43,7.38 4.85,8.28 3.42,0.9 5.58,-2 6.54,-4.79 0.64,-1.82 -2.26,-2.61 -2.89,-0.79 q -4.45,3.65 -5,-0.65 L 399,60 a 35.39,35.39 0 0 1 -0.57,-5.54 c -0.21,-3.7 -0.27,-7.42 -0.19,-11.13 a 143.7,143.7 0 0 1 2.48,-23.4 c 0.36,-1.88 -2.53,-2.69 -2.89,-0.79 z"
       transform="translate(-16.19,-7.21)"
       id="path11542" />
    <path
       d="m 392.22,42.45 h 8.59 a 1.5,1.5 0 0 0 0,-3 h -8.59 a 1.5,1.5 0 0 0 0,3 z"
       transform="translate(-16.19,-7.21)"
       id="path11544" />
    <path
       d="m 421.14,46.67 c -0.11,-4.5 -3.51,-10.4 -8.58,-7 -5.66,3.81 -6.49,15 -5.43,21 0.86,4.88 4.83,8.87 9.67,5.62 6.41,-4.29 5.72,-15.08 5.66,-21.7 a 1.5,1.5 0 0 0 -3,0 44,44 0 0 0 4.61,22.18 c 0.88,1.71 3.47,0.2 2.59,-1.52 a 40.94,40.94 0 0 1 -4.2,-20.66 h -3 a 59.87,59.87 0 0 1 -0.58,11.59 c -0.64,3.45 -4.21,12.21 -8.34,5.6 -1.67,-2.68 -0.59,-8.45 -0.06,-11.37 A 21.16,21.16 0 0 1 411.63,46 l 2,-3.32 q 5.21,-1.27 4.55,4 c 0,1.93 3,1.93 3,0 z"
       transform="translate(-16.19,-7.21)"
       id="path11546" />
    <path
       d="m 249.32,23.87 c -1.66,-3.63 -5.48,-6 -9.39,-4 -4.35,2.24 -5.32,8.36 -4.91,12.71 a 17.34,17.34 0 0 0 7.14,12.63 c 3.56,2.5 9.34,2.86 8.47,8.86 -0.25,1.78 -1.46,3.84 -2.26,5.42 a 28.13,28.13 0 0 1 -1.63,2.94 c -1.62,3.37 -4.19,3.34 -7.72,-0.12 -0.08,-2.31 -3.68,-2.33 -3.6,0 0.16,4.82 4,8.74 9,6.85 5.19,-2 9,-9.76 9.77,-14.87 1,-6.25 -3.47,-8.51 -8.15,-10.95 a 13.66,13.66 0 0 1 -7.17,-9.12 14.49,14.49 0 0 1 0.2,-7.51 c 1.3,-4 5.12,-5.41 7.12,-1 1,2.11 4.06,0.28 3.11,-1.82 z"
       transform="translate(-16.19,-7.21)"
       id="path11548" />
    <path
       d="m 260.31,53.52 c 4.85,-0.52 14.51,-3.37 10.74,-10.25 -3.14,-5.72 -10.63,-3.12 -13.3,1.52 -3.26,5.65 -3,15.59 2,20.2 a 15.06,15.06 0 0 0 9.28,3.64 3.79,3.79 0 0 0 2.46,-0.67 c 0.47,-0.34 1.81,-2.82 1.55,-2.79 2.27,-0.28 2.3,-3.89 0,-3.6 -1.67,0.2 -1.68,0.74 -2.81,1.79 a 9.52,9.52 0 0 0 -0.58,1.15 4.39,4.39 0 0 1 -3.23,-0.06 8.35,8.35 0 0 1 -5.66,-4 c -1.83,-3.23 -1.89,-8.34 -0.79,-11.8 0.51,-1.58 2.84,-5.79 5.24,-5.12 q 3.75,5 -1,5.62 a 18.45,18.45 0 0 1 -4,0.76 c -2.28,0.24 -2.3,3.85 0,3.6 z"
       transform="translate(-16.19,-7.21)"
       id="path11550" />
    <path
       d="m 277.52,50.52 c 0.68,-3.73 1.84,-7.09 4.72,-9.69 l -3,-0.8 c 1.71,6.2 7.58,6 9.1,-0.19 a 1.8056093,1.8056093 0 0 0 -3.47,-1 120.67,120.67 0 0 0 -3.35,16 c -0.45,3.3 -2.21,9.57 -0.47,12.74 3.58,6.52 11.59,-1.09 13.45,-4.81 1,-2.07 -2.08,-3.89 -3.11,-1.82 a 12.92,12.92 0 0 1 -2.17,3.41 c -1.17,1.19 -4,1.75 -5,-0.16 -0.83,-1.59 0.67,-7.26 0.89,-8.88 a 117.17,117.17 0 0 1 3.27,-15.49 l -3.47,-1 -2.16,0.19 a 1.82,1.82 0 0 0 -3,-0.8 c -3.3,3 -4.86,7 -5.64,11.29 -0.41,2.26 3.06,3.23 3.47,1 z"
       transform="translate(-16.19,-7.21)"
       id="path11552" />
    <path
       d="m 296.07,32.12 h 0.54 a 1.8,1.8 0 1 0 0,-3.6 h -0.54 a 1.82,1.82 0 0 0 -1.8,1.8 1.84,1.84 0 0 0 1.8,1.8 z"
       transform="translate(-16.19,-7.21)"
       id="path11554" />
    <path
       d="M 330.7,46.71 C 336.57,40 324.88,34 320,40.45 c -2.31,3.08 -0.95,7.72 1.34,10.4 1.61,1.88 4,2.78 5.73,4.53 a 7,7 0 0 1 1.8,6.53 c -1.44,5.56 -5.92,3.76 -6.89,-0.67 -0.49,-2.26 -4,-1.3 -3.47,1 1.54,7.06 10.14,10.43 13.27,2.46 a 11.16,11.16 0 0 0 -1.16,-10.7 18.67,18.67 0 0 0 -4.3,-3.62 c -1.28,-0.92 -3.69,-2.74 -3.67,-4.61 l 2,-4.07 c 1.72,-0.9 2.89,-0.06 3.49,2.52 -1.52,1.73 1,4.29 2.54,2.54 z"
       transform="translate(-16.19,-7.21)"
       id="path11556" />
    <path
       d="m 293.59,40.05 -1.08,15.27 c -0.25,3.51 -1.55,8.44 -0.12,11.81 1.71,4.06 6.91,3.66 8.8,0.07 1.08,-2 -2,-3.86 -3.11,-1.81 -2.21,-0.9 -3,-2.35 -2.37,-4.34 l 0.13,-1.91 0.47,-6.68 0.88,-12.41 c 0.17,-2.31 -3.43,-2.3 -3.6,0 z"
       transform="translate(-16.19,-7.21)"
       id="path11558" />
    <path
       d="m 304.25,57.23 c 6.28,0 11.3,-5 12.21,-11.14 0.8,-5.38 -3.4,-11.14 -9,-7.35 -9.93,6.69 -8.41,34.65 7.34,30.31 a 1.8,1.8 0 0 0 -0.95,-3.47 c -9.9,2.72 -9.59,-12.37 -7.77,-17.88 0.48,-1.46 0.93,-3.56 2.14,-4.56 2.62,-2.15 5.24,0.66 4.45,3.58 a 9,9 0 0 1 -8.42,6.91 1.8,1.8 0 0 0 0,3.6 z"
       transform="translate(-16.19,-7.21)"
       id="path11560" />
    <path
       class="cls-10"
       d="M 853.88,646.67"
       transform="translate(-16.19,-7.21)"
       id="path11628" />
    <path
       d="m 92.48,516 8.45,-0.67 c 1.91,-0.15 1.93,-3.15 0,-3 L 92.48,513 c -1.91,0.15 -1.93,3.15 0,3 z"
       transform="translate(-16.19,-7.21)"
       id="path11632" />
  </g>
  <metadata
     id="metadata35137">
    <rdf:RDF>
      <cc:Work
         rdf:about="">
        <dc:title>temporal_data</dc:title>
      </cc:Work>
    </rdf:RDF>
  </metadata>
</svg>
