<?xml version="1.0" encoding="UTF-8" standalone="no"?>
<svg
   viewBox="0 0 1320 599.99997"
   version="1.1"
   id="svg11729"
   sodipodi:docname="3.svg"
   inkscape:version="1.3.2 (1:1.3.2+202311252150+091e20ef0f)"
   width="1320"
   height="600"
   xmlns:inkscape="http://www.inkscape.org/namespaces/inkscape"
   xmlns:sodipodi="http://sodipodi.sourceforge.net/DTD/sodipodi-0.dtd"
   xmlns="http://www.w3.org/2000/svg"
   xmlns:svg="http://www.w3.org/2000/svg"
   xmlns:rdf="http://www.w3.org/1999/02/22-rdf-syntax-ns#"
   xmlns:cc="http://creativecommons.org/ns#"
   xmlns:dc="http://purl.org/dc/elements/1.1/">
  <sodipodi:namedview
     id="namedview11731"
     pagecolor="#ffffff"
     bordercolor="#000000"
     borderopacity="0.25"
     inkscape:showpageshadow="2"
     inkscape:pageopacity="0.0"
     inkscape:pagecheckerboard="0"
     inkscape:deskcolor="#d1d1d1"
     showgrid="false"
     inkscape:zoom="0.43340126"
     inkscape:cx="544.53003"
     inkscape:cy="272.26501"
     inkscape:window-width="1223"
     inkscape:window-height="779"
     inkscape:window-x="57"
     inkscape:window-y="21"
     inkscape:window-maximized="1"
     inkscape:current-layer="svg11729" />
  <defs
     id="defs10265">
    <style
       id="style10254">.cls-1,.cls-10,.cls-11,.cls-12,.cls-13,.cls-15,.cls-17,.cls-24,.cls-25,.cls-26{fill:none;}.cls-14,.cls-2,.cls-22{fill:#1f77b4;}.cls-2,.cls-3,.cls-4{opacity:0.3;}.cls-16,.cls-20,.cls-3{fill:#ff7f0e;}.cls-18,.cls-23,.cls-4{fill:#2ca02c;}.cls-5{fill:#c1272d;}.cls-6{fill:#fcee21;}.cls-7{fill:blue;}.cls-8{fill:#8cc63f;}.cls-9{clip-path:url(#clip-path);}.cls-10,.cls-15{stroke:#ff7f0e;}.cls-10,.cls-11,.cls-12,.cls-25{stroke-linejoin:round;}.cls-10,.cls-11,.cls-12{stroke-dasharray:3.7 1.6;}.cls-11,.cls-13{stroke:#1f77b4;}.cls-12,.cls-17{stroke:#2ca02c;}.cls-13,.cls-15,.cls-17,.cls-24,.cls-26{stroke-miterlimit:10;}.cls-14,.cls-16,.cls-18{opacity:0.5;}.cls-19{clip-path:url(#clip-path-13);}.cls-21{clip-path:url(#clip-path-14);}.cls-24{stroke:#820303;stroke-width:2px;}.cls-25,.cls-26{stroke:#000;stroke-width:3px;}.cls-26{stroke-linecap:square;}</style>
    <clipPath
       id="clip-path"
       transform="translate(-16.19 -7.21)">
      <rect
         class="cls-1"
         x="831.64001"
         y="138"
         width="285.54001"
         height="354.03"
         id="rect10256" />
    </clipPath>
    <clipPath
       id="clip-path-13"
       transform="translate(-16.19 -7.21)">
      <rect
         class="cls-1"
         x="831.64001"
         y="140"
         width="285.54001"
         height="354.03"
         id="rect10259" />
    </clipPath>
    <clipPath
       id="clip-path-14"
       transform="translate(-16.19 -7.21)">
      <rect
         class="cls-1"
         x="831.64001"
         y="136"
         width="285.54001"
         height="354.03"
         id="rect10262" />
    </clipPath>
  </defs>
  <title
     id="title10267">temporal_data</title>
  <rect
     class="cls-2"
     x="220.33"
     y="260.23999"
     width="199.28999"
     height="26.540001"
     id="rect10738" />
  <rect
     class="cls-3"
     x="220.33"
     y="296.23999"
     width="199.28999"
     height="39.369999"
     id="rect10740" />
  <rect
     class="cls-4"
     x="220.33"
     y="344.23999"
     width="199.28999"
     height="16.459999"
     id="rect10742" />
  <path
     class="cls-5"
     d="m 241.17,302.26 a 12.83,12.83 0 0 1 1.1,4.6 c 0,0.63 3,0.63 3,0 a 14.5,14.5 0 0 0 -1.2,-4.87 c -0.3,-0.63 -3.2,-0.36 -2.9,0.27 z"
     id="path10744" />
  <path
     class="cls-5"
     d="m 247.81,301.43 c 1.2,2.28 2.5,4.6 3.7,6.88 0.3,0.63 3.2,0.37 2.9,-0.26 -1.2,-2.29 -2.5,-4.6 -3.7,-6.89 -0.4,-0.63 -3.3,-0.36 -2.9,0.27 z"
     id="path10746" />
  <path
     class="cls-5"
     d="m 302.37,302.85 a 36.32,36.32 0 0 0 0.7,5.66 c 0.1,0.63 3.1,0.63 3,0 a 27.3,27.3 0 0 1 -0.7,-5.66 c 0,-0.66 -3,-0.66 -3,0 z"
     id="path10748" />
  <path
     class="cls-5"
     d="m 324.07,302.95 a 30.78,30.78 0 0 0 2.4,6.09 c 0.4,0.63 3.3,0.37 2.9,-0.26 a 34.24,34.24 0 0 1 -2.3,-5.83 c -0.2,-0.63 -3.2,-0.63 -3,0 z"
     id="path10750" />
  <path
     class="cls-5"
     d="m 383.57,300.27 a 7.77,7.77 0 0 0 1.8,4.77 c 0.5,0.63 3.4,0.36 2.9,-0.27 a 7.59,7.59 0 0 1 -1.7,-4.5 c -0.1,-0.66 -3.1,-0.66 -3,0 z"
     id="path10752" />
  <path
     class="cls-6"
     d="m 262.07,301 a 61.54,61.54 0 0 1 3.1,7.81 c 0.2,0.63 3.2,0.63 3,0 a 65.81,65.81 0 0 0 -3.2,-8.08 c -0.4,-0.63 -3.2,-0.36 -2.9,0.27 z"
     id="path10754" />
  <path
     class="cls-6"
     d="m 313.07,302.62 c 0.5,1.42 1.1,2.85 1.6,4.27 0.3,0.93 0,2.28 1.5,3.08 a 3.73,3.73 0 0 0 2.4,0.1 c 0,0 0.1,0 0.1,-0.07 0.5,-0.2 0.7,-0.53 0,-0.69 h -0.1 c -1.5,-0.43 -3.6,0.3 -2.1,0.7 h 0.1 v -0.69 c 0,0 -0.1,0 -0.1,0.06 l 2.4,0.1 c -1.4,-0.76 -1.1,-2.55 -1.4,-3.37 -0.4,-1.16 -0.9,-2.32 -1.3,-3.48 -0.4,-0.63 -3.4,-0.63 -3.1,0 z"
     id="path10756" />
  <path
     class="cls-6"
     d="m 353.17,302.02 a 12.22,12.22 0 0 0 0.4,4.24 c 0.2,0.63 3.2,0.63 3,0 a 12.22,12.22 0 0 1 -0.4,-4.24 c 0.1,-0.66 -2.9,-0.66 -3,0 z"
     id="path10758" />
  <path
     class="cls-7"
     d="m 254.37,301.23 a 50.62,50.62 0 0 1 6.1,7.91 c 0.4,0.63 3.3,0.37 2.9,-0.26 a 48.45,48.45 0 0 0 -6.1,-7.92 c -0.6,-0.59 -3.5,-0.33 -2.9,0.27 z"
     id="path10760" />
  <path
     class="cls-7"
     d="m 294.47,303.68 a 43,43 0 0 1 2.6,4.14 c 0.3,0.63 3.2,0.36 2.9,-0.27 a 29.54,29.54 0 0 0 -2.6,-4.14 c -0.5,-0.62 -3.4,-0.36 -2.9,0.27 z"
     id="path10762" />
  <path
     class="cls-7"
     d="m 366.57,299.87 c 0.8,2.39 1.7,4.74 2.5,7.12 0.2,0.63 3.2,0.63 3,0 -0.8,-2.38 -1.7,-4.73 -2.5,-7.12 -0.2,-0.63 -3.2,-0.66 -3,0 z"
     id="path10764" />
  <path
     class="cls-7"
     d="m 390.67,300.79 a 17.11,17.11 0 0 0 1.4,2.81 c 0.4,0.63 3.3,0.36 2.9,-0.26 a 15.75,15.75 0 0 1 -1.3,-2.55 c -0.2,-0.63 -3.2,-0.63 -3,0 z"
     id="path10766" />
  <path
     class="cls-8"
     d="m 269.87,303.48 c 1,1.36 1.9,2.68 2.9,4 0.4,0.63 3.3,0.36 2.9,-0.27 -1,-1.35 -1.9,-2.68 -2.9,-4 -0.5,-0.63 -3.4,-0.37 -2.9,0.26 z"
     id="path10768" />
  <path
     class="cls-8"
     d="m 276.07,304.79 c 0.6,0.43 1.1,0.86 1.7,1.29 a 3.64,3.64 0 0 0 1.9,1 3.78,3.78 0 0 0 1.5,0 c 0.5,-0.1 0.8,-0.2 0.9,-0.39 0.1,-0.19 -0.1,-0.43 -0.7,-0.57 h -0.1 c -1.6,-0.33 -3.1,0.53 -1.5,0.86 h 0.1 c -0.2,-0.2 -0.5,-0.36 -0.7,-0.56 v 0.07 c 0.2,-0.1 0.5,-0.2 0.7,-0.3 -0.1,0 -0.1,0 -0.2,0 h 1.5 c 0.2,0.07 0.2,0 -0.1,-0.13 -0.1,-0.1 -0.3,-0.2 -0.4,-0.3 l -0.6,-0.46 c -0.5,-0.37 -0.9,-0.7 -1.4,-1.06 -0.8,-0.56 -3.4,0 -2.6,0.53 z"
     id="path10770" />
  <path
     class="cls-8"
     d="m 307.27,302.95 c 1.6,2.12 0.4,4.3 2.1,6.42 0.5,0.63 3.4,0.37 2.9,-0.26 -1.8,-2.09 -0.5,-4.31 -2.1,-6.42 -0.4,-0.6 -3.3,-0.33 -2.9,0.26 z"
     id="path10772" />
  <path
     class="cls-8"
     d="m 331.47,303.68 c 0.7,1.22 1.4,2.48 2.1,3.71 0.3,0.63 3.2,0.36 2.9,-0.27 -0.7,-1.22 -1.4,-2.48 -2.1,-3.71 -0.4,-0.62 -3.3,-0.36 -2.9,0.27 z"
     id="path10774" />
  <path
     class="cls-8"
     d="m 359.97,300.7 c 0.3,1.95 -0.4,4.3 1.6,6.19 0.6,0.6 3.5,0.33 2.9,-0.26 -1.9,-1.79 -1.2,-4 -1.5,-5.93 -0.1,-0.66 -3.1,-0.66 -3,0 z"
     id="path10776" />
  <path
     class="cls-8"
     d="m 374.81,299.94 a 19.78,19.78 0 0 0 3.1,6.22 c 0.5,0.63 3.3,0.37 2.9,-0.26 a 20.13,20.13 0 0 1 -3,-6 c -0.2,-0.63 -3.2,-0.63 -3,0 z"
     id="path10778" />
  <path
     d="m 229.37,307.45 a 56.45,56.45 0 0 1 12.6,-5 c 7.5,-1.88 16.1,-1.65 24.4,-0.33 12.7,2.06 22.6,5.66 35.6,7.52 10.1,1.42 22.8,1.88 32.1,-0.4 a 47.67,47.67 0 0 0 10.2,-4 c 4.6,-2.26 9.6,-3.84 17.6,-4.67 16.3,-1.66 34.7,-0.3 47.8,3.24 1.5,0.4 3.6,-0.3 2.1,-0.69 -10.6,-2.85 -24,-4.41 -37.7,-4.21 a 129.81,129.81 0 0 0 -19.7,1.62 46.75,46.75 0 0 0 -13.1,4.41 42,42 0 0 1 -17.6,4.73 105.48,105.48 0 0 1 -23.6,-1.42 c -13.7,-2.35 -24.7,-6.72 -40,-8 a 58.23,58.23 0 0 0 -33.3,6.65 c -1,0.57 1.6,1.06 2.6,0.53 z"
     id="path10780" />
  <path
     d="m 226.87,300.3 c 5.9,4 13,8.54 27.1,9.8 14.5,1.29 22.9,-2.58 33.7,-4.93 12.5,-2.72 28.6,-3.41 42.8,-2 7.6,0.76 13.7,2.32 20.5,3.54 a 93.54,93.54 0 0 0 20.3,1.29 c 16.6,-0.76 28.5,-5 39.2,-8.84 1.3,-0.46 -0.8,-1.19 -2.1,-0.69 -12.3,4.5 -29.4,10.39 -49.9,8.27 -8.5,-0.89 -15.3,-3 -23.6,-4.1 a 156.71,156.71 0 0 0 -21.8,-1.13 154.36,154.36 0 0 0 -20.4,1.63 c -7.6,1.16 -13.1,3 -19.7,4.63 a 59.27,59.27 0 0 1 -28,-0.33 c -7.3,-1.95 -11.5,-4.9 -15.5,-7.65 -0.8,-0.53 -3.4,0 -2.6,0.53 z"
     id="path10782" />
  <path
     class="cls-7"
     d="m 244.28,266.63 c -0.3,1 0.5,2 1,3 a 13.42,13.42 0 0 1 1.1,3.81 c 0.1,0.63 3.1,0.63 3,0 a 11.42,11.42 0 0 0 -0.7,-3.08 c -0.5,-1.22 -1.7,-2.45 -1.3,-3.67 0.1,-0.67 -2.9,-0.67 -3.1,0 z"
     id="path10784" />
  <path
     class="cls-7"
     d="m 290.68,266.73 c -0.8,2 1,4.31 1.7,6.29 0.2,0.63 3.2,0.63 3,0 -0.3,-1 -0.7,-2 -1,-3 -0.3,-1 -1.2,-2.05 -0.8,-3 0.3,-0.63 -2.6,-0.9 -2.9,-0.27 z"
     id="path10786" />
  <path
     class="cls-7"
     d="m 295.81,266.34 a 42,42 0 0 1 3.4,6.81 c 0.2,0.63 3.2,0.63 3,0 a 32.54,32.54 0 0 0 -3.5,-7.08 c -0.4,-0.63 -3.3,-0.36 -2.9,0.27 z"
     id="path10788" />
  <path
     class="cls-7"
     d="m 347.18,265.79 c -0.1,2.09 -0.2,4.17 -0.1,6.29 0,0.63 3,0.63 3,0 a 44.1,44.1 0 0 1 0.1,-6.29 c 0,-0.66 -3,-0.66 -3,0 z"
     id="path10790" />
  <path
     class="cls-7"
     d="m 370.81,268.52 v 3.15 c 0,0.62 3,0.62 3,0 v -3.15 c 0,-0.66 -3,-0.66 -3,0 z"
     id="path10792" />
  <path
     class="cls-6"
     d="m 238.28,267.46 a 11.51,11.51 0 0 1 3.8,6 c 0.1,0.62 3.1,0.62 3,0 a 11.61,11.61 0 0 0 -3.9,-6.29 c -0.7,-0.6 -3.6,-0.33 -2.9,0.26 z"
     id="path10794" />
  <path
     class="cls-6"
     d="m 311.38,266.7 a 11.07,11.07 0 0 1 2.8,5 c 0.2,0.62 3.2,0.62 3,0 a 12.2,12.2 0 0 0 -2.9,-5.24 c -0.5,-0.59 -3.4,-0.36 -2.9,0.27 z"
     id="path10796" />
  <path
     class="cls-6"
     d="m 315.58,267.26 a 16.46,16.46 0 0 0 2.9,2.78 c 0.8,0.6 3.3,0.07 2.6,-0.49 a 14.68,14.68 0 0 1 -2.6,-2.55 c -0.5,-0.63 -3.4,-0.37 -2.9,0.26 z"
     id="path10798" />
  <path
     class="cls-6"
     d="m 357.48,266.53 c 0.5,2.12 0.9,4.24 1.4,6.39 0.1,0.63 3.1,0.63 3,0 -0.5,-2.12 -0.9,-4.23 -1.4,-6.39 -0.2,-0.62 -3.2,-0.62 -3,0 z"
     id="path10800" />
  <path
     class="cls-5"
     d="m 251.28,266.43 a 22.5,22.5 0 0 1 0.2,7.32 c -0.1,0.63 2.9,0.63 3,0 a 22.5,22.5 0 0 0 -0.2,-7.32 c -0.2,-0.62 -3.2,-0.66 -3,0 z"
     id="path10802" />
  <path
     class="cls-5"
     d="m 300.81,266.2 c 3.7,2.15 3.7,4.67 5.5,7 0.5,0.63 3.4,0.37 2.9,-0.26 -1.8,-2.45 -1.9,-5 -5.8,-7.25 -1,-0.57 -3.5,-0.07 -2.6,0.49 z"
     id="path10804" />
  <path
     class="cls-5"
     d="m 352.98,265.61 a 14.34,14.34 0 0 1 0.2,7.41 c -0.1,0.63 2.9,0.63 3,0 a 16.85,16.85 0 0 0 -0.2,-7.41 c -0.1,-0.63 -3.1,-0.63 -3,0 z"
     id="path10806" />
  <path
     class="cls-5"
     d="m 375.88,268.85 a 2.2,2.2 0 0 0 -0.2,1.76 c 0.2,0.62 3.2,0.62 3,0 a 2.53,2.53 0 0 1 0.1,-1.49 c 0.1,-0.27 -0.2,-0.53 -1,-0.6 -0.8,-0.07 -1.8,0.07 -1.9,0.33 z"
     id="path10808" />
  <path
     class="cls-8"
     d="m 232.81,268.32 a 11.39,11.39 0 0 1 4.6,4.27 c 0.3,0.63 3.2,0.37 2.9,-0.26 a 12.77,12.77 0 0 0 -4.9,-4.5 c -1,-0.53 -3.5,0 -2.6,0.49 z"
     id="path10810" />
  <path
     class="cls-8"
     d="m 261.88,268.88 a 13.83,13.83 0 0 1 1.6,2.88 c 0.3,0.63 3.3,0.63 3,0 a 16.44,16.44 0 0 0 -1.7,-3.14 c -0.4,-0.63 -3.3,-0.36 -2.9,0.26 z"
     id="path10812" />
  <path
     class="cls-8"
     d="m 266.88,269.91 1.2,0.7 a 3.91,3.91 0 0 0 2.1,0.16 c 0.7,-0.13 1,-0.46 0.5,-0.69 l -1.2,-0.7 a 3.81,3.81 0 0 0 -2.1,-0.16 c -0.6,0.16 -0.9,0.46 -0.5,0.69 z"
     id="path10814" />
  <path
     class="cls-8"
     d="m 306.38,265.79 c 1.3,2.15 2.7,4.34 4,6.49 0.4,0.63 3.3,0.36 2.9,-0.27 -1.3,-2.15 -2.7,-4.33 -4,-6.49 -0.4,-0.59 -3.3,-0.33 -2.9,0.27 z"
     id="path10816" />
  <path
     class="cls-8"
     d="m 363.08,266.79 a 24.18,24.18 0 0 1 2.8,5.56 c 0.2,0.63 3.2,0.63 3,0 a 26.27,26.27 0 0 0 -3,-5.83 c -0.3,-0.62 -3.2,-0.36 -2.8,0.27 z"
     id="path10818" />
  <path
     class="cls-8"
     d="m 341.18,265.94 a 9,9 0 0 0 0.3,5.13 c 0.2,0.63 3.2,0.63 3,0 a 10,10 0 0 1 -0.3,-5.13 c 0.2,-0.63 -2.8,-0.63 -3,0 z"
     id="path10820" />
  <path
     class="cls-8"
     d="m 336.58,266.79 a 7,7 0 0 0 0.6,2.78 c 0.2,0.63 3.2,0.63 3,0 a 7,7 0 0 1 -0.6,-2.78 c 0,-0.63 -3,-0.63 -3,0 z"
     id="path10822" />
  <path
     class="cls-8"
     d="m 286.88,267.92 a 11,11 0 0 0 0.8,4.67 c 0.2,0.63 3.2,0.63 3,0 a 10.87,10.87 0 0 1 -0.8,-4.67 c 0,-0.62 -3,-0.62 -3,0 z"
     id="path10824" />
  <path
     class="cls-6"
     d="m 256.68,267.59 c 0.1,1.76 0.3,3.48 0.4,5.23 0,0.63 3,0.63 3,0 -0.1,-1.75 -0.3,-3.47 -0.4,-5.23 -0.1,-0.63 -3.1,-0.66 -3,0 z"
     id="path10826" />
  <path
     class="cls-5"
     d="m 228.48,269.35 c 0.9,1 1.8,1.95 2.7,2.91 0.6,0.6 3.5,0.37 2.9,-0.26 -0.9,-1 -1.8,-2 -2.7,-2.92 -0.5,-0.59 -3.4,-0.36 -2.9,0.27 z"
     id="path10828" />
  <path
     class="cls-5"
     d="m 281.38,269.68 a 3.5,3.5 0 0 0 0.3,2 c 0.1,0.26 0.6,0.49 1.5,0.49 0.7,0 1.6,-0.23 1.5,-0.49 a 3.5,3.5 0 0 1 -0.3,-2 c 0.1,-0.63 -2.9,-0.63 -3,0 z"
     id="path10830" />
  <path
     class="cls-5"
     d="m 330.98,267.79 1.8,1.15 c 0.9,0.57 3.5,0.07 2.6,-0.49 -0.6,-0.4 -1.2,-0.76 -1.8,-1.16 -0.9,-0.56 -3.5,-0.07 -2.6,0.5 z"
     id="path10832" />
  <path
     class="cls-5"
     d="m 392.68,268.29 1.2,2.08 c 0.4,0.63 3.2,0.37 2.9,-0.26 l -1.2,-2.09 c -0.4,-0.63 -3.3,-0.36 -2.9,0.27 z"
     id="path10834" />
  <path
     class="cls-5"
     d="m 406.68,265.28 a 28,28 0 0 0 2.5,5 c 0.4,0.63 3.3,0.37 2.9,-0.26 a 25.38,25.38 0 0 1 -2.4,-4.73 c -0.3,-0.63 -3.3,-0.63 -3,0 z"
     id="path10836" />
  <path
     class="cls-6"
     d="m 389.48,269.94 h 0.6 c 0.8,0 1.5,-0.23 1.5,-0.49 0,-0.26 -0.7,-0.5 -1.5,-0.5 h -0.6 c -0.8,0 -1.5,0.23 -1.5,0.5 0,0.27 0.7,0.49 1.5,0.49 z"
     id="path10838" />
  <path
     class="cls-6"
     d="m 410.81,264.91 a 19.13,19.13 0 0 0 2,4.8 c 0.4,0.63 3.3,0.37 2.9,-0.26 a 14.38,14.38 0 0 1 -1.9,-4.54 c -0.2,-0.63 -3.2,-0.63 -3,0 z"
     id="path10840" />
  <path
     class="cls-7"
     d="m 396.81,267.49 a 4.13,4.13 0 0 1 1.3,2.88 c 0,0.63 3,0.63 3,0 a 4.4,4.4 0 0 0 -1.4,-3.14 c -0.6,-0.63 -3.5,-0.36 -2.9,0.26 z"
     id="path10842" />
  <path
     class="cls-8"
     d="m 401.38,266.47 c 1.8,1.49 0.3,3.18 2.4,4.67 0.8,0.56 3.4,0.06 2.6,-0.5 -2,-1.36 -0.4,-3 -2.1,-4.4 -0.7,-0.63 -3.6,-0.37 -2.9,0.23 z"
     id="path10844" />
  <path
     d="m 226.28,272.06 c 1.5,-2.28 6.2,-4 12.9,-4.83 a 79.84,79.84 0 0 1 21.7,0.83 c 12.9,2.05 24,5.62 38.8,6.05 14,0.4 21.9,-3.17 31.1,-5.95 a 65.3,65.3 0 0 1 23.2,-2.45 212.71,212.71 0 0 1 23.4,3.17 c 12.5,2.12 28.1,4.08 40.8,1.06 1.5,-0.36 0.1,-1.22 -1.5,-0.86 -15,3.61 -32.5,-0.33 -46.5,-2.51 -12.6,-2 -26.3,-3 -38.2,0 -5.3,1.35 -9.5,3.11 -14.6,4.53 a 66.55,66.55 0 0 1 -24.7,1.56 c -15,-1.59 -26.4,-6 -42.3,-6.72 -12.2,-0.6 -24.3,1.85 -27,5.92 -0.4,0.57 2.4,0.83 2.9,0.2 z"
     id="path10846" />
  <path
     d="m 224.38,273.62 c 5.6,-1.82 15.3,0.76 21.8,1 a 75.62,75.62 0 0 0 14.4,-0.89 c 11.2,-1.66 20.1,-4.6 30.8,-6.52 a 82.49,82.49 0 0 1 18.9,-1.39 93.91,93.91 0 0 1 17.6,2.91 c 9.2,2.22 19,5.33 31.1,5.36 8.8,0 16.4,-1.79 23.6,-3.28 l 29.8,-6.19 c 1.6,-0.33 0.1,-1.19 -1.5,-0.86 -8.5,1.79 -17.1,3.55 -25.6,5.33 -7.8,1.63 -16.6,4 -26.2,4 -13.5,0 -24.2,-4.21 -34.9,-6.39 a 87.65,87.65 0 0 0 -31.2,-0.86 c -11.4,1.72 -20.3,4.77 -31.4,6.65 a 69.47,69.47 0 0 1 -20.4,0.7 c -6.3,-0.76 -13.3,-2.09 -18.9,-0.27 -1.4,0.47 0.7,1.16 2.1,0.7 z"
     id="path10848" />
  <path
     class="cls-7"
     d="m 245.18,277.13 c -0.3,1 0.5,2 1,3 a 13.27,13.27 0 0 1 1.1,3.8 c 0.1,0.63 3.1,0.63 3,0 a 11.51,11.51 0 0 0 -0.7,-3.08 c -0.5,-1.22 -1.7,-2.44 -1.3,-3.67 0.1,-0.66 -2.9,-0.66 -3.1,0 z"
     id="path10850" />
  <path
     class="cls-7"
     d="m 291.58,277.23 c -0.8,2 1,4.3 1.7,6.29 0.2,0.63 3.2,0.63 3,0 -0.3,-1 -0.7,-2 -1,-3 -0.3,-1 -1.2,-2 -0.8,-3 0.2,-0.63 -2.6,-0.89 -2.9,-0.26 z"
     id="path10852" />
  <path
     class="cls-7"
     d="m 296.58,276.79 a 41.67,41.67 0 0 1 3.4,6.82 c 0.2,0.63 3.2,0.63 3,0 a 32.61,32.61 0 0 0 -3.5,-7.09 c -0.4,-0.59 -3.3,-0.33 -2.9,0.27 z"
     id="path10854" />
  <path
     class="cls-7"
     d="m 347.98,276.23 c -0.1,2.09 -0.2,4.17 -0.1,6.29 0,0.63 3,0.63 3,0 a 44.13,44.13 0 0 1 0.1,-6.29 c 0,-0.66 -3,-0.66 -3,0 z"
     id="path10856" />
  <path
     class="cls-7"
     d="m 371.68,279.01 v 3.15 c 0,0.63 3,0.63 3,0 v -3.15 c 0,-0.62 -3,-0.62 -3,0 z"
     id="path10858" />
  <path
     class="cls-6"
     d="m 239.08,277.99 a 11.53,11.53 0 0 1 3.8,6 c 0.1,0.63 3.1,0.63 3,0 a 11.64,11.64 0 0 0 -3.9,-6.29 c -0.7,-0.59 -3.6,-0.36 -2.9,0.27 z"
     id="path10860" />
  <path
     class="cls-6"
     d="m 312.28,277.19 a 11.12,11.12 0 0 1 2.8,5 c 0.2,0.63 3.2,0.63 3,0 a 12.12,12.12 0 0 0 -2.9,-5.23 c -0.6,-0.6 -3.5,-0.33 -2.9,0.26 z"
     id="path10862" />
  <path
     class="cls-6"
     d="m 316.38,277.79 a 16.83,16.83 0 0 0 2.9,2.78 c 0.8,0.59 3.3,0.06 2.6,-0.5 a 14.68,14.68 0 0 1 -2.6,-2.55 c -0.5,-0.63 -3.4,-0.36 -2.9,0.27 z"
     id="path10864" />
  <path
     class="cls-6"
     d="m 358.28,277.03 c 0.5,2.12 0.9,4.24 1.4,6.39 0.1,0.63 3.1,0.63 3,0 -0.5,-2.12 -0.9,-4.24 -1.4,-6.39 -0.1,-0.63 -3.1,-0.63 -3,0 z"
     id="path10866" />
  <path
     class="cls-5"
     d="m 252.08,276.93 a 22.44,22.44 0 0 1 0.2,7.31 c -0.1,0.63 2.9,0.63 3,0 a 22.44,22.44 0 0 0 -0.2,-7.31 c -0.1,-0.63 -3.1,-0.63 -3,0 z"
     id="path10868" />
  <path
     class="cls-5"
     d="m 301.68,276.7 c 3.7,2.15 3.7,4.66 5.5,7 0.5,0.63 3.4,0.37 2.9,-0.26 -1.8,-2.45 -1.9,-5 -5.8,-7.25 -1,-0.56 -3.6,0 -2.6,0.5 z"
     id="path10870" />
  <path
     class="cls-5"
     d="m 353.88,276.1 a 14.37,14.37 0 0 1 0.2,7.42 c -0.1,0.63 2.9,0.63 3,0 a 16.89,16.89 0 0 0 -0.2,-7.42 c -0.2,-0.63 -3.2,-0.63 -3,0 z"
     id="path10872" />
  <path
     class="cls-5"
     d="m 376.68,279.35 a 2.17,2.17 0 0 0 -0.2,1.75 c 0.2,0.63 3.2,0.63 3,0 a 2.54,2.54 0 0 1 0.1,-1.49 c 0.1,-0.26 -0.2,-0.53 -1,-0.6 a 2.76,2.76 0 0 0 -1.9,0.34 z"
     id="path10874" />
  <path
     class="cls-8"
     d="m 233.68,278.85 a 11.33,11.33 0 0 1 4.6,4.27 c 0.3,0.63 3.2,0.36 2.9,-0.27 a 12.85,12.85 0 0 0 -4.9,-4.5 c -1,-0.56 -3.6,-0.06 -2.6,0.5 z"
     id="path10876" />
  <path
     class="cls-8"
     d="m 262.81,279.38 a 13.83,13.83 0 0 1 1.6,2.88 c 0.3,0.63 3.3,0.63 3,0 a 16.21,16.21 0 0 0 -1.7,-3.15 c -0.5,-0.63 -3.4,-0.36 -2.9,0.27 z"
     id="path10878" />
  <path
     class="cls-8"
     d="m 267.81,280.44 1.2,0.69 a 3.9,3.9 0 0 0 2.1,0.17 c 0.7,-0.13 1,-0.47 0.5,-0.7 l -1.2,-0.69 a 3.9,3.9 0 0 0 -2.1,-0.17 c -0.7,0.13 -0.9,0.47 -0.5,0.7 z"
     id="path10880" />
  <path
     class="cls-8"
     d="m 307.18,276.27 c 1.3,2.15 2.7,4.33 4,6.48 0.4,0.63 3.3,0.37 2.9,-0.26 -1.3,-2.15 -2.7,-4.34 -4,-6.49 -0.4,-0.63 -3.3,-0.36 -2.9,0.27 z"
     id="path10882" />
  <path
     class="cls-8"
     d="m 363.88,277.29 a 24.38,24.38 0 0 1 2.8,5.56 c 0.2,0.63 3.2,0.63 3,0 a 26.2,26.2 0 0 0 -3,-5.82 c -0.3,-0.63 -3.2,-0.37 -2.8,0.26 z"
     id="path10884" />
  <path
     class="cls-8"
     d="m 342.08,276.47 a 9,9 0 0 0 0.3,5.13 c 0.2,0.63 3.2,0.63 3,0 a 10,10 0 0 1 -0.3,-5.13 c 0.1,-0.67 -2.9,-0.63 -3,0 z"
     id="path10886" />
  <path
     class="cls-8"
     d="m 337.48,277.26 a 7,7 0 0 0 0.6,2.78 c 0.2,0.63 3.2,0.63 3,0 a 7,7 0 0 1 -0.6,-2.78 c 0,-0.63 -3,-0.63 -3,0 z"
     id="path10888" />
  <path
     class="cls-8"
     d="m 287.68,278.42 a 11,11 0 0 0 0.8,4.67 c 0.2,0.62 3.2,0.62 3,0 a 10.89,10.89 0 0 1 -0.8,-4.67 c 0.1,-0.63 -2.9,-0.63 -3,0 z"
     id="path10890" />
  <path
     class="cls-6"
     d="m 257.48,278.09 c 0.1,1.75 0.3,3.47 0.4,5.23 0,0.63 3,0.63 3,0 -0.1,-1.76 -0.3,-3.48 -0.4,-5.23 0,-0.63 -3,-0.63 -3,0 z"
     id="path10892" />
  <path
     class="cls-5"
     d="m 229.38,279.84 2.7,2.91 c 0.6,0.6 3.5,0.37 2.9,-0.26 -0.9,-1 -1.8,-1.95 -2.7,-2.91 -0.6,-0.6 -3.5,-0.33 -2.9,0.26 z"
     id="path10894" />
  <path
     class="cls-5"
     d="m 282.28,280.17 a 3.49,3.49 0 0 0 0.3,2 c 0.1,0.26 0.6,0.5 1.5,0.5 0.7,0 1.6,-0.24 1.5,-0.5 a 3.49,3.49 0 0 1 -0.3,-2 c 0,-0.63 -3,-0.63 -3,0 z"
     id="path10896" />
  <path
     class="cls-5"
     d="m 331.88,278.35 c 0.6,0.4 1.2,0.76 1.8,1.16 0.9,0.56 3.5,0.07 2.6,-0.5 l -1.8,-1.15 c -0.9,-0.6 -3.5,-0.1 -2.6,0.49 z"
     id="path10898" />
  <path
     class="cls-5"
     d="m 393.48,278.79 1.2,2.09 c 0.4,0.63 3.2,0.36 2.9,-0.27 l -1.2,-2.08 c -0.4,-0.63 -3.2,-0.37 -2.9,0.26 z"
     id="path10900" />
  <path
     class="cls-5"
     d="m 407.48,275.79 a 28.12,28.12 0 0 0 2.5,5 c 0.4,0.63 3.3,0.36 2.9,-0.27 a 25.08,25.08 0 0 1 -2.4,-4.73 c -0.2,-0.63 -3.2,-0.63 -3,0 z"
     id="path10902" />
  <path
     class="cls-6"
     d="m 390.28,280.44 h 0.6 c 0.8,0 1.5,-0.23 1.5,-0.5 0,-0.27 -0.7,-0.5 -1.5,-0.5 h -0.6 c -0.8,0 -1.5,0.24 -1.5,0.5 0,0.26 0.7,0.5 1.5,0.5 z"
     id="path10904" />
  <path
     class="cls-6"
     d="m 411.58,275.41 a 19.13,19.13 0 0 0 2,4.8 c 0.4,0.62 3.3,0.36 2.9,-0.27 a 14.33,14.33 0 0 1 -1.9,-4.53 c -0.1,-0.63 -3.1,-0.63 -3,0 z"
     id="path10906" />
  <path
     class="cls-7"
     d="m 397.58,277.99 a 4.11,4.11 0 0 1 1.3,2.88 c 0,0.63 3,0.63 3,0 a 4.42,4.42 0 0 0 -1.4,-3.15 c -0.6,-0.59 -3.5,-0.36 -2.9,0.27 z"
     id="path10908" />
  <path
     class="cls-8"
     d="m 402.28,276.96 c 1.8,1.49 0.3,3.18 2.4,4.67 0.8,0.56 3.4,0.07 2.6,-0.5 -2,-1.35 -0.4,-3 -2.1,-4.4 -0.7,-0.63 -3.6,-0.36 -2.9,0.23 z"
     id="path10910" />
  <path
     d="m 227.08,282.59 c 1.5,-2.28 6.2,-4 12.9,-4.83 a 80.24,80.24 0 0 1 21.7,0.82 c 12.9,2.06 24,5.63 38.8,6.06 14,0.4 21.9,-3.18 31.1,-6 a 65.3,65.3 0 0 1 23.2,-2.45 212.65,212.65 0 0 1 23.4,3.18 c 12.5,2.12 28.1,4.07 40.8,1.06 1.5,-0.36 0.1,-1.22 -1.5,-0.86 -15,3.61 -32.5,-0.33 -46.5,-2.52 -12.6,-2 -26.3,-3 -38.2,0 -5.3,1.36 -9.5,3.12 -14.6,4.54 a 66.55,66.55 0 0 1 -24.7,1.56 c -15,-1.59 -26.4,-6 -42.3,-6.72 -12.2,-0.6 -24.3,1.85 -27,5.92 -0.4,0.53 2.5,0.8 2.9,0.2 z"
     id="path10912" />
  <path
     d="m 225.28,284.15 c 5.6,-1.83 15.3,0.76 21.8,1 a 74.79,74.79 0 0 0 14.4,-0.9 c 11.2,-1.65 20.1,-4.6 30.8,-6.52 a 83.63,83.63 0 0 1 18.9,-1.39 93.87,93.87 0 0 1 17.6,2.92 c 9.2,2.21 19,5.33 31.1,5.36 8.8,0 16.4,-1.79 23.6,-3.28 l 29.8,-6.19 c 1.6,-0.33 0.1,-1.19 -1.5,-0.86 -8.5,1.79 -17.1,3.54 -25.6,5.33 -7.8,1.62 -16.6,4 -26.2,4 -13.5,0 -24.2,-4.21 -34.9,-6.39 a 87.42,87.42 0 0 0 -31.2,-0.86 c -11.4,1.72 -20.3,4.76 -31.4,6.65 a 69.13,69.13 0 0 1 -20.4,0.69 c -6.3,-0.76 -13.3,-2.08 -18.9,-0.26 -1.4,0.43 0.7,1.13 2.1,0.7 z"
     id="path10914" />
  <path
     class="cls-5"
     d="m 240.57,314.95 a 12.93,12.93 0 0 1 1.1,4.6 c 0,0.63 3,0.63 3,0 a 14.44,14.44 0 0 0 -1.2,-4.86 c -0.2,-0.63 -3.1,-0.37 -2.9,0.26 z"
     id="path10916" />
  <path
     class="cls-5"
     d="m 247.17,314.16 c 1.2,2.28 2.5,4.6 3.7,6.88 0.3,0.63 3.2,0.37 2.9,-0.26 -1.2,-2.29 -2.5,-4.6 -3.7,-6.89 -0.3,-0.63 -3.2,-0.36 -2.9,0.27 z"
     id="path10918" />
  <path
     class="cls-5"
     d="m 301.87,315.55 a 36.47,36.47 0 0 0 0.7,5.66 c 0.1,0.63 3.1,0.63 3,0 a 27.38,27.38 0 0 1 -0.7,-5.66 c -0.1,-0.63 -3.1,-0.63 -3,0 z"
     id="path10920" />
  <path
     class="cls-5"
     d="m 323.47,315.65 a 30.78,30.78 0 0 0 2.4,6.09 c 0.4,0.63 3.3,0.36 2.9,-0.27 a 34.15,34.15 0 0 1 -2.3,-5.82 c -0.2,-0.63 -3.2,-0.63 -3,0 z"
     id="path10922" />
  <path
     class="cls-5"
     d="m 382.97,312.97 a 7.72,7.72 0 0 0 1.8,4.76 c 0.5,0.63 3.4,0.37 2.9,-0.26 a 7.59,7.59 0 0 1 -1.7,-4.5 c 0,-0.63 -3,-0.63 -3,0 z"
     id="path10924" />
  <path
     class="cls-6"
     d="m 261.47,313.73 a 61.54,61.54 0 0 1 3.1,7.81 c 0.2,0.63 3.2,0.63 3,0 a 65.81,65.81 0 0 0 -3.2,-8.08 c -0.3,-0.63 -3.2,-0.36 -2.9,0.27 z"
     id="path10926" />
  <path
     class="cls-6"
     d="m 312.47,315.35 c 0.5,1.42 1.1,2.85 1.6,4.27 0.3,0.93 0,2.28 1.5,3.08 a 3.73,3.73 0 0 0 2.4,0.1 c 0,0 0.1,0 0.1,-0.07 0.5,-0.2 0.7,-0.53 0,-0.69 h -0.1 c -1.5,-0.43 -3.6,0.3 -2.1,0.7 h 0.1 v -0.69 c 0,0 -0.1,0 -0.1,0.06 l 2.4,0.1 c -1.4,-0.76 -1.1,-2.55 -1.4,-3.37 -0.4,-1.16 -0.9,-2.32 -1.3,-3.48 -0.3,-0.63 -3.3,-0.63 -3.1,0 z"
     id="path10928" />
  <path
     class="cls-5"
     d="m 353.57,314.72 a 12.26,12.26 0 0 0 0.4,4.24 c 0.2,0.63 3.2,0.63 3,0 a 12.26,12.26 0 0 1 -0.4,-4.24 c 0.1,-0.63 -2.9,-0.63 -3,0 z"
     id="path10930" />
  <path
     class="cls-7"
     d="m 253.81,313.96 a 50.62,50.62 0 0 1 6.1,7.91 c 0.4,0.63 3.3,0.37 2.9,-0.26 a 48.45,48.45 0 0 0 -6.1,-7.92 c -0.5,-0.62 -3.4,-0.36 -2.9,0.27 z"
     id="path10932" />
  <path
     class="cls-7"
     d="m 293.87,316.38 a 41.69,41.69 0 0 1 2.6,4.13 c 0.3,0.63 3.2,0.37 2.9,-0.26 a 29.54,29.54 0 0 0 -2.6,-4.14 c -0.5,-0.59 -3.4,-0.33 -2.9,0.27 z"
     id="path10934" />
  <path
     class="cls-7"
     d="m 365.97,312.57 c 0.8,2.38 1.7,4.73 2.5,7.12 0.2,0.63 3.2,0.63 3,0 -0.8,-2.39 -1.7,-4.74 -2.5,-7.12 -0.2,-0.63 -3.2,-0.63 -3,0 z"
     id="path10936" />
  <path
     class="cls-7"
     d="m 390.07,313.5 a 17.11,17.11 0 0 0 1.4,2.81 c 0.4,0.63 3.3,0.36 2.9,-0.26 a 15.75,15.75 0 0 1 -1.3,-2.55 c -0.2,-0.63 -3.2,-0.63 -3,0 z"
     id="path10938" />
  <path
     class="cls-8"
     d="m 269.27,316.18 c 1,1.35 1.9,2.68 2.9,4 0.4,0.63 3.3,0.36 2.9,-0.27 -1,-1.36 -1.9,-2.68 -2.9,-4 -0.5,-0.59 -3.4,-0.33 -2.9,0.27 z"
     id="path10940" />
  <path
     class="cls-8"
     d="m 275.47,317.47 c 0.6,0.43 1.1,0.86 1.7,1.29 a 3.64,3.64 0 0 0 1.9,1 3.78,3.78 0 0 0 1.5,0 c 0.5,-0.1 0.8,-0.2 0.9,-0.39 0.1,-0.19 -0.1,-0.43 -0.7,-0.57 h -0.1 c -1.6,-0.33 -3.1,0.53 -1.5,0.86 h 0.1 c -0.2,-0.2 -0.5,-0.36 -0.7,-0.56 v 0.07 c 0.2,-0.1 0.5,-0.2 0.7,-0.3 -0.1,0 -0.1,0 -0.2,0 h 1.5 c 0.2,0.07 0.2,0 -0.1,-0.13 -0.1,-0.1 -0.3,-0.2 -0.4,-0.3 l -0.6,-0.46 c -0.5,-0.37 -0.9,-0.7 -1.4,-1.06 -0.7,-0.56 -3.3,-0.07 -2.6,0.53 z"
     id="path10942" />
  <path
     class="cls-8"
     d="m 306.81,315.68 c 1.6,2.12 0.4,4.3 2.1,6.42 0.5,0.63 3.4,0.37 2.9,-0.26 -1.8,-2.09 -0.5,-4.31 -2.1,-6.42 -0.5,-0.63 -3.4,-0.37 -2.9,0.26 z"
     id="path10944" />
  <path
     class="cls-8"
     d="m 330.87,316.41 c 0.7,1.22 1.4,2.48 2.1,3.71 0.3,0.63 3.2,0.36 2.9,-0.27 -0.7,-1.22 -1.4,-2.48 -2.1,-3.71 -0.4,-0.62 -3.3,-0.36 -2.9,0.27 z"
     id="path10946" />
  <path
     class="cls-8"
     d="m 359.37,313.4 c 0.3,1.95 -0.4,4.3 1.6,6.19 0.6,0.59 3.5,0.33 2.9,-0.27 -1.9,-1.79 -1.2,-4 -1.5,-5.92 -0.1,-0.63 -3.1,-0.63 -3,0 z"
     id="path10948" />
  <path
     class="cls-8"
     d="m 374.17,312.67 a 19.78,19.78 0 0 0 3.1,6.22 c 0.5,0.63 3.3,0.37 2.9,-0.26 a 20.13,20.13 0 0 1 -3,-6 c -0.1,-0.63 -3.1,-0.63 -3,0 z"
     id="path10950" />
  <path
     d="m 228.87,320.15 a 56.45,56.45 0 0 1 12.6,-5 c 7.5,-1.89 16.1,-1.65 24.4,-0.33 12.7,2.05 22.6,5.66 35.6,7.51 10.1,1.43 22.8,1.89 32.1,-0.39 a 47.13,47.13 0 0 0 10.2,-4 c 4.6,-2.25 9.6,-3.84 17.6,-4.67 16.3,-1.65 34.7,-0.29 47.8,3.25 1.5,0.4 3.6,-0.3 2.1,-0.7 -10.6,-2.84 -24,-4.4 -37.7,-4.2 a 128.54,128.54 0 0 0 -19.7,1.62 46.77,46.77 0 0 0 -13.1,4.4 42,42 0 0 1 -17.6,4.74 104.88,104.88 0 0 1 -23.6,-1.43 c -13.7,-2.35 -24.7,-6.72 -40,-8 a 58.23,58.23 0 0 0 -33.3,6.65 c -1.1,0.56 1.5,1.06 2.6,0.53 z"
     id="path10952" />
  <path
     d="m 226.37,313.03 c 5.9,4 13,8.54 27.1,9.8 14.5,1.29 22.9,-2.58 33.7,-4.93 12.5,-2.72 28.6,-3.41 42.8,-2 7.6,0.76 13.7,2.32 20.5,3.54 a 93.54,93.54 0 0 0 20.3,1.29 c 16.6,-0.76 28.5,-5 39.2,-8.84 1.3,-0.46 -0.8,-1.19 -2.1,-0.69 -12.3,4.5 -29.4,10.39 -49.9,8.27 -8.5,-0.89 -15.3,-3 -23.6,-4.1 a 156.71,156.71 0 0 0 -21.8,-1.13 154.36,154.36 0 0 0 -20.4,1.63 c -7.6,1.16 -13.1,3 -19.7,4.63 a 59.27,59.27 0 0 1 -28,-0.33 c -7.3,-1.95 -11.5,-4.9 -15.5,-7.65 -0.9,-0.56 -3.5,-0.06 -2.6,0.53 z"
     id="path10954" />
  <path
     class="cls-5"
     d="m 242.87,326.79 a 12.88,12.88 0 0 1 1.1,4.6 c 0,0.63 3,0.63 3,0 a 14.55,14.55 0 0 0 -1.2,-4.87 c -0.3,-0.62 -3.2,-0.36 -2.9,0.27 z"
     id="path10956" />
  <path
     class="cls-5"
     d="m 249.47,326.04 c 1.2,2.28 2.5,4.6 3.7,6.88 0.3,0.63 3.2,0.36 2.9,-0.26 -1.2,-2.29 -2.5,-4.61 -3.7,-6.89 -0.4,-0.63 -3.3,-0.36 -2.9,0.27 z"
     id="path10958" />
  <path
     class="cls-5"
     d="m 304.07,327.43 a 36.62,36.62 0 0 0 0.7,5.66 c 0.1,0.63 3.1,0.63 3,0 a 27.47,27.47 0 0 1 -0.7,-5.66 c 0,-0.63 -3,-0.63 -3,0 z"
     id="path10960" />
  <path
     class="cls-5"
     d="m 325.81,327.52 a 30.86,30.86 0 0 0 2.4,6.1 c 0.4,0.62 3.3,0.36 2.9,-0.27 a 33.92,33.92 0 0 1 -2.3,-5.83 c -0.2,-0.62 -3.2,-0.62 -3,0 z"
     id="path10962" />
  <path
     class="cls-5"
     d="m 385.17,324.84 a 7.75,7.75 0 0 0 1.8,4.77 c 0.5,0.63 3.4,0.36 2.9,-0.26 a 7.6,7.6 0 0 1 -1.7,-4.51 c 0,-0.63 -3,-0.63 -3,0 z"
     id="path10964" />
  <path
     class="cls-6"
     d="m 263.67,325.6 a 61.67,61.67 0 0 1 3.1,7.82 c 0.2,0.63 3.2,0.63 3,0 a 65.18,65.18 0 0 0 -3.2,-8.08 c -0.3,-0.63 -3.2,-0.36 -2.9,0.26 z"
     id="path10966" />
  <path
     class="cls-6"
     d="m 314.67,327.23 c 0.5,1.42 1.1,2.84 1.6,4.27 0.3,0.92 0,2.28 1.5,3.08 a 3.73,3.73 0 0 0 2.4,0.1 c 0,0 0.1,0 0.1,-0.07 0.5,-0.2 0.7,-0.53 0,-0.7 h -0.1 c -1.5,-0.43 -3.6,0.3 -2.1,0.7 h 0.1 v -0.7 c 0,0 -0.1,0 -0.1,0.07 l 2.4,0.1 c -1.4,-0.76 -1.1,-2.55 -1.4,-3.38 -0.4,-1.16 -0.9,-2.31 -1.3,-3.47 -0.3,-0.63 -3.3,-0.63 -3.1,0 z"
     id="path10968" />
  <path
     class="cls-6"
     d="m 354.87,326.6 a 12.26,12.26 0 0 0 0.4,4.24 c 0.2,0.62 3.2,0.62 3,0 a 12.26,12.26 0 0 1 -0.4,-4.24 c 0,-0.63 -3,-0.63 -3,0 z"
     id="path10970" />
  <path
     class="cls-7"
     d="m 256.07,325.84 a 50.62,50.62 0 0 1 6.1,7.91 c 0.4,0.63 3.3,0.36 2.9,-0.27 a 48,48 0 0 0 -6.1,-7.91 c -0.6,-0.63 -3.5,-0.36 -2.9,0.27 z"
     id="path10972" />
  <path
     class="cls-7"
     d="m 296.07,328.29 a 41.69,41.69 0 0 1 2.6,4.13 c 0.3,0.63 3.2,0.37 2.9,-0.26 a 29.54,29.54 0 0 0 -2.6,-4.14 c -0.4,-0.63 -3.3,-0.36 -2.9,0.27 z"
     id="path10974" />
  <path
     class="cls-7"
     d="m 368.27,324.45 c 0.8,2.38 1.7,4.73 2.5,7.11 0.2,0.63 3.2,0.63 3,0 -0.8,-2.38 -1.7,-4.73 -2.5,-7.11 -0.3,-0.63 -3.3,-0.63 -3,0 z"
     id="path10976" />
  <path
     class="cls-7"
     d="m 392.37,325.37 a 17.2,17.2 0 0 0 1.4,2.82 c 0.4,0.63 3.3,0.36 2.9,-0.27 a 15.35,15.35 0 0 1 -1.3,-2.55 c -0.3,-0.63 -3.3,-0.63 -3,0 z"
     id="path10978" />
  <path
     class="cls-8"
     d="m 271.47,328.05 c 1,1.36 1.9,2.69 2.9,4 0.4,0.63 3.3,0.37 2.9,-0.26 -1,-1.36 -1.9,-2.68 -2.9,-4 -0.4,-0.6 -3.3,-0.33 -2.9,0.26 z"
     id="path10980" />
  <path
     class="cls-8"
     d="m 277.81,329.35 c 0.6,0.43 1.1,0.86 1.7,1.29 a 3.64,3.64 0 0 0 1.9,1 3.78,3.78 0 0 0 1.5,0 c 0.5,-0.1 0.8,-0.2 0.9,-0.4 0.1,-0.2 -0.1,-0.43 -0.7,-0.56 h -0.1 c -1.6,-0.33 -3.1,0.53 -1.5,0.86 h 0.1 c -0.2,-0.2 -0.5,-0.36 -0.7,-0.56 v 0.06 c 0.2,-0.1 0.5,-0.19 0.7,-0.29 -0.1,0 -0.1,0 -0.2,0 h 1.5 c 0.2,0.07 0.2,0 -0.1,-0.13 -0.1,-0.1 -0.3,-0.2 -0.4,-0.3 -0.1,-0.1 -0.4,-0.3 -0.6,-0.46 -0.5,-0.37 -0.9,-0.7 -1.4,-1.06 -0.8,-0.57 -3.4,-0.07 -2.6,0.53 z"
     id="path10982" />
  <path
     class="cls-8"
     d="m 308.97,327.56 c 1.6,2.12 0.4,4.3 2.1,6.42 0.5,0.63 3.4,0.36 2.9,-0.26 -1.8,-2.09 -0.5,-4.31 -2.1,-6.43 -0.5,-0.63 -3.4,-0.36 -2.9,0.27 z"
     id="path10984" />
  <path
     class="cls-8"
     d="m 333.07,328.29 c 0.7,1.22 1.4,2.48 2.1,3.7 0.3,0.63 3.2,0.37 2.9,-0.26 l -2.1,-3.71 c -0.3,-0.63 -3.2,-0.36 -2.9,0.27 z"
     id="path10986" />
  <path
     class="cls-8"
     d="m 361.67,325.27 c 0.3,2 -0.4,4.31 1.6,6.19 0.6,0.6 3.5,0.34 2.9,-0.26 -1.9,-1.79 -1.2,-4 -1.5,-5.93 -0.1,-0.63 -3.1,-0.63 -3,0 z"
     id="path10988" />
  <path
     class="cls-8"
     d="m 376.47,324.55 a 19.78,19.78 0 0 0 3.1,6.22 c 0.5,0.63 3.3,0.36 2.9,-0.27 a 20.08,20.08 0 0 1 -3,-5.95 c -0.2,-0.63 -3.2,-0.63 -3,0 z"
     id="path10990" />
  <path
     d="m 231.07,332.03 a 56,56 0 0 1 12.6,-5 c 7.5,-1.89 16.1,-1.66 24.4,-0.33 12.7,2 22.6,5.66 35.6,7.51 10.1,1.43 22.8,1.89 32.1,-0.4 a 46.64,46.64 0 0 0 10.2,-4 c 4.6,-2.25 9.6,-3.84 17.6,-4.67 16.3,-1.65 34.7,-0.3 47.8,3.25 1.5,0.39 3.6,-0.3 2.1,-0.7 -10.6,-2.85 -24,-4.4 -37.7,-4.2 a 128.54,128.54 0 0 0 -19.7,1.62 46.45,46.45 0 0 0 -13.1,4.4 41.89,41.89 0 0 1 -17.6,4.73 105.48,105.48 0 0 1 -23.56,-1.45 c -13.7,-2.35 -24.7,-6.72 -40,-8 a 58.22,58.22 0 0 0 -33.3,6.66 c -1,0.56 1.6,1.06 2.6,0.53 z"
     id="path10992" />
  <path
     d="m 228.57,324.91 c 5.9,4 13,8.54 27.1,9.8 14.5,1.29 22.9,-2.58 33.7,-4.93 12.5,-2.72 28.6,-3.41 42.8,-2 7.6,0.76 13.7,2.31 20.5,3.54 a 94.17,94.17 0 0 0 20.3,1.29 c 16.6,-0.76 28.5,-5 39.2,-8.84 1.3,-0.46 -0.8,-1.19 -2.1,-0.69 -12.3,4.5 -29.4,10.39 -49.9,8.27 -8.5,-0.89 -15.3,-3 -23.6,-4.1 a 156.71,156.71 0 0 0 -21.8,-1.13 154.39,154.39 0 0 0 -20.4,1.62 c -7.6,1.16 -13.1,3.05 -19.7,4.64 a 59.4,59.4 0 0 1 -28,-0.33 c -7.3,-2 -11.5,-4.9 -15.5,-7.65 -0.8,-0.56 -3.4,-0.07 -2.6,0.53 z"
     id="path10994" />
  <path
     d="m 223.46,254.96 c -2.85,0.19 -5.77,0.29 -8.63,0.47 -1.82,0.14 -4,-0.08 -5.71,0.46 -3.26,1.09 -2.88,4.35 -2.69,7.21 0.81,11.65 1.52,23.37 1.93,35.06 0.78,22.91 0.54,45.87 -0.57,68.83 a 1.19,1.19 0 0 0 1.37,1.24 c 8,-0.54 16,-1 24.08,-1.54 1.51,-0.08 1.11,-2.4 -0.4,-2.32 -8,0.54 -16,1 -24.08,1.53 0.43,0.44 0.94,0.88 1.37,1.24 q 1.53,-30.66 0.77,-61.32 c -0.22,-9.55 -0.61,-19.11 -1.23,-28.62 -0.14,-2.54 -0.28,-5.07 -0.49,-7.69 -0.16,-2.38 -0.82,-5.27 -0.58,-7.61 0.47,-4.76 3.86,-4 7.27,-4.24 2.61,-0.13 5.3,-0.25 7.92,-0.47 1.57,0 1.18,-2.32 -0.33,-2.23 z"
     id="path10996" />
  <path
     d="m 413.38,255.17 c 4.7,0.38 9.31,0.82 14,1.19 l -1.05,-1.14 a 409.82,409.82 0 0 0 -2,60.37 q 0.54,14.61 2.23,29.1 l 0.83,6.8 c 0.32,2.58 1.5,5.94 -0.12,8.07 -1.62,2.13 -5.34,2.06 -8.12,2.47 l -8.57,1.44 a 1.07,1.07 0 1 0 0.44,2.09 c 5.32,-0.85 11.44,-1.14 16.53,-2.78 3.29,-1.09 3.09,-3.37 2.71,-6.24 -1.29,-11.51 -2.73,-23 -3.32,-34.57 a 405.23,405.23 0 0 1 1.76,-66.56 1.12,1.12 0 0 0 -1.05,-1.15 c -4.69,-0.38 -9.31,-0.82 -14,-1.2 a 1.07,1.07 0 1 0 -0.25,2.11 z"
     id="path10998" />
  <path
     class="cls-7"
     d="m 245.62,348.88 c -0.3,1 0.5,2 1,3 a 13.42,13.42 0 0 1 1.1,3.81 c 0.1,0.63 3.1,0.63 3,0 a 11.34,11.34 0 0 0 -0.7,-3.08 c -0.5,-1.23 -1.7,-2.45 -1.3,-3.68 0.1,-0.66 -2.9,-0.66 -3.1,0 z"
     id="path11000" />
  <path
     class="cls-7"
     d="m 292.02,348.98 c -0.8,2 1,4.3 1.7,6.29 0.2,0.63 3.2,0.63 3,0 -0.3,-1 -0.7,-2 -1,-3 -0.3,-1 -1.2,-2.06 -0.8,-3 0.3,-0.62 -2.6,-0.89 -2.9,-0.26 z"
     id="path11002" />
  <path
     class="cls-7"
     d="m 297.12,348.58 a 42.07,42.07 0 0 1 3.4,6.82 c 0.2,0.63 3.2,0.63 3,0 a 32.54,32.54 0 0 0 -3.5,-7.08 c -0.4,-0.63 -3.3,-0.37 -2.9,0.26 z"
     id="path11004" />
  <path
     class="cls-7"
     d="m 348.52,347.99 c -0.1,2.08 -0.2,4.17 -0.1,6.29 0,0.63 3,0.63 3,0 a 44.1,44.1 0 0 1 0.1,-6.29 c 0,-0.67 -3,-0.67 -3,0 z"
     id="path11006" />
  <path
     class="cls-7"
     d="m 372.12,350.79 v 3.14 c 0,0.63 3,0.63 3,0 v -3.14 c 0,-0.66 -3,-0.66 -3,0 z"
     id="path11008" />
  <path
     class="cls-6"
     d="m 239.62,349.71 a 11.53,11.53 0 0 1 3.8,6 c 0.1,0.63 3.1,0.63 3,0 a 11.64,11.64 0 0 0 -3.9,-6.29 c -0.7,-0.59 -3.6,-0.33 -2.9,0.27 z"
     id="path11010" />
  <path
     class="cls-6"
     d="m 312.72,348.95 a 11,11 0 0 1 2.8,5 c 0.2,0.63 3.2,0.63 3,0 a 12.12,12.12 0 0 0 -2.9,-5.23 c -0.5,-0.59 -3.4,-0.36 -2.9,0.27 z"
     id="path11012" />
  <path
     class="cls-6"
     d="m 316.92,349.51 a 16.46,16.46 0 0 0 2.9,2.78 c 0.8,0.6 3.3,0.07 2.6,-0.5 a 14,14 0 0 1 -2.6,-2.55 c -0.5,-0.62 -3.4,-0.36 -2.9,0.27 z"
     id="path11014" />
  <path
     class="cls-6"
     d="m 358.81,348.79 c 0.5,2.12 0.9,4.24 1.4,6.39 0.1,0.63 3.1,0.63 3,0 -0.5,-2.12 -0.9,-4.24 -1.4,-6.39 -0.2,-0.63 -3.2,-0.63 -3,0 z"
     id="path11016" />
  <path
     class="cls-5"
     d="m 252.62,348.68 a 22.5,22.5 0 0 1 0.2,7.32 c -0.1,0.63 2.9,0.63 3,0 a 22.5,22.5 0 0 0 -0.2,-7.32 c -0.2,-0.63 -3.2,-0.66 -3,0 z"
     id="path11018" />
  <path
     class="cls-5"
     d="m 302.12,348.45 c 3.7,2.15 3.7,4.67 5.5,7 0.5,0.63 3.4,0.36 2.9,-0.27 -1.8,-2.45 -1.9,-5 -5.8,-7.25 -1,-0.56 -3.5,-0.06 -2.6,0.5 z"
     id="path11020" />
  <path
     class="cls-5"
     d="m 354.32,347.85 a 14.38,14.38 0 0 1 0.2,7.42 c -0.1,0.63 2.9,0.63 3,0 a 16.9,16.9 0 0 0 -0.2,-7.42 c -0.1,-0.62 -3.1,-0.62 -3,0 z"
     id="path11022" />
  <path
     class="cls-5"
     d="m 377.22,351.1 a 2.17,2.17 0 0 0 -0.2,1.75 c 0.2,0.63 3.2,0.63 3,0 a 2.54,2.54 0 0 1 0.1,-1.49 c 0.1,-0.26 -0.2,-0.53 -1,-0.59 -0.8,-0.06 -1.8,0.06 -1.9,0.33 z"
     id="path11024" />
  <path
     class="cls-8"
     d="m 234.12,350.57 a 11.33,11.33 0 0 1 4.6,4.27 c 0.3,0.63 3.2,0.36 2.9,-0.27 a 12.85,12.85 0 0 0 -4.9,-4.5 c -1,-0.53 -3.5,0 -2.6,0.5 z"
     id="path11026" />
  <path
     class="cls-8"
     d="m 263.22,351.13 a 13.83,13.83 0 0 1 1.6,2.88 c 0.3,0.63 3.3,0.63 3,0 a 16.14,16.14 0 0 0 -1.7,-3.14 c -0.4,-0.63 -3.3,-0.37 -2.9,0.26 z"
     id="path11028" />
  <path
     class="cls-8"
     d="m 268.22,352.16 1.2,0.69 a 3.9,3.9 0 0 0 2.1,0.17 c 0.7,-0.13 1,-0.46 0.5,-0.7 l -1.2,-0.69 a 3.9,3.9 0 0 0 -2.1,-0.17 c -0.6,0.17 -0.9,0.47 -0.5,0.7 z"
     id="path11030" />
  <path
     class="cls-8"
     d="m 307.72,347.99 c 1.3,2.15 2.7,4.33 4,6.49 0.4,0.62 3.3,0.36 2.9,-0.27 -1.3,-2.15 -2.7,-4.34 -4,-6.49 -0.4,-0.59 -3.3,-0.33 -2.9,0.27 z"
     id="path11032" />
  <path
     class="cls-8"
     d="m 364.42,349.05 a 24,24 0 0 1 2.8,5.56 c 0.2,0.63 3.2,0.63 3,0 a 26.05,26.05 0 0 0 -3,-5.83 c -0.3,-0.63 -3.2,-0.36 -2.8,0.27 z"
     id="path11034" />
  <path
     class="cls-8"
     d="m 342.52,348.19 a 9,9 0 0 0 0.3,5.13 c 0.2,0.63 3.2,0.63 3,0 a 10,10 0 0 1 -0.3,-5.13 c 0.2,-0.63 -2.8,-0.63 -3,0 z"
     id="path11036" />
  <path
     class="cls-8"
     d="m 337.92,349.01 a 6.93,6.93 0 0 0 0.6,2.78 c 0.2,0.63 3.2,0.63 3,0 a 6.93,6.93 0 0 1 -0.6,-2.78 c 0,-0.63 -3,-0.63 -3,0 z"
     id="path11038" />
  <path
     class="cls-8"
     d="m 288.22,350.17 a 11,11 0 0 0 0.8,4.67 c 0.2,0.63 3.2,0.63 3,0 a 10.89,10.89 0 0 1 -0.8,-4.67 c 0,-0.63 -3,-0.63 -3,0 z"
     id="path11040" />
  <path
     class="cls-6"
     d="m 258.02,349.84 c 0.1,1.76 0.3,3.48 0.4,5.23 0,0.63 3,0.63 3,0 -0.1,-1.75 -0.3,-3.47 -0.4,-5.23 -0.1,-0.63 -3.1,-0.66 -3,0 z"
     id="path11042" />
  <path
     class="cls-5"
     d="m 229.81,351.6 c 0.9,1 1.8,1.95 2.7,2.91 0.6,0.59 3.5,0.36 2.9,-0.27 l -2.7,-2.91 c -0.5,-0.6 -3.4,-0.36 -2.9,0.27 z"
     id="path11044" />
  <path
     class="cls-5"
     d="m 282.72,351.93 a 3.45,3.45 0 0 0 0.3,2 c 0.1,0.27 0.6,0.5 1.5,0.5 0.7,0 1.6,-0.23 1.5,-0.5 a 3.45,3.45 0 0 1 -0.3,-2 c 0.1,-0.63 -2.9,-0.63 -3,0 z"
     id="path11046" />
  <path
     class="cls-5"
     d="m 332.32,350.07 c 0.6,0.4 1.2,0.76 1.8,1.16 0.9,0.56 3.5,0.07 2.6,-0.5 l -1.8,-1.15 c -0.9,-0.57 -3.5,-0.07 -2.6,0.49 z"
     id="path11048" />
  <path
     class="cls-5"
     d="m 394.02,350.54 1.2,2.08 c 0.4,0.63 3.2,0.37 2.9,-0.26 l -1.2,-2.09 c -0.4,-0.63 -3.3,-0.36 -2.9,0.27 z"
     id="path11050" />
  <path
     class="cls-5"
     d="m 408.02,347.52 a 27.79,27.79 0 0 0 2.5,5 c 0.4,0.63 3.3,0.37 2.9,-0.26 a 25.46,25.46 0 0 1 -2.4,-4.74 c -0.3,-0.63 -3.3,-0.63 -3,0 z"
     id="path11052" />
  <path
     class="cls-6"
     d="m 390.81,352.19 h 0.6 c 0.8,0 1.5,-0.23 1.5,-0.5 0,-0.27 -0.7,-0.49 -1.5,-0.49 h -0.6 c -0.8,0 -1.5,0.23 -1.5,0.49 0,0.26 0.7,0.5 1.5,0.5 z"
     id="path11054" />
  <path
     class="cls-6"
     d="m 412.12,347.16 a 19.13,19.13 0 0 0 2,4.8 c 0.4,0.63 3.3,0.36 2.9,-0.27 a 14.33,14.33 0 0 1 -1.9,-4.53 c -0.2,-0.63 -3.2,-0.63 -3,0 z"
     id="path11056" />
  <path
     class="cls-7"
     d="m 398.12,349.79 a 4.13,4.13 0 0 1 1.3,2.88 c 0,0.63 3,0.63 3,0 a 4.39,4.39 0 0 0 -1.4,-3.14 c -0.6,-0.63 -3.5,-0.37 -2.9,0.26 z"
     id="path11058" />
  <path
     class="cls-8"
     d="m 402.72,348.72 c 1.8,1.48 0.3,3.17 2.4,4.66 0.8,0.57 3.4,0.07 2.6,-0.49 -2,-1.36 -0.4,-3 -2.1,-4.41 -0.7,-0.63 -3.6,-0.36 -2.9,0.24 z"
     id="path11060" />
  <path
     d="m 227.62,354.31 c 1.5,-2.28 6.2,-4 12.9,-4.83 a 80.24,80.24 0 0 1 21.7,0.82 c 12.9,2.06 24,5.63 38.8,6.06 14,0.4 21.9,-3.18 31.1,-6 a 65.3,65.3 0 0 1 23.2,-2.45 212.65,212.65 0 0 1 23.4,3.18 c 12.5,2.12 28.1,4.07 40.8,1.06 1.5,-0.36 0.1,-1.22 -1.5,-0.86 -15,3.61 -32.5,-0.33 -46.5,-2.52 -12.6,-2 -26.3,-3 -38.2,0 -5.3,1.36 -9.5,3.12 -14.6,4.54 a 66.55,66.55 0 0 1 -24.7,1.56 c -15,-1.59 -26.4,-6 -42.3,-6.72 -12.2,-0.6 -24.3,1.85 -27,5.92 -0.4,0.56 2.4,0.83 2.9,0.2 z"
     id="path11062" />
  <path
     d="m 225.72,355.87 c 5.6,-1.83 15.3,0.76 21.8,1 a 74.79,74.79 0 0 0 14.4,-0.9 c 11.2,-1.65 20.1,-4.6 30.8,-6.52 a 83.63,83.63 0 0 1 18.9,-1.39 94.69,94.69 0 0 1 17.6,2.92 c 9.2,2.21 19,5.33 31.1,5.36 8.8,0 16.4,-1.79 23.6,-3.28 l 29.8,-6.19 c 1.6,-0.33 0.1,-1.19 -1.5,-0.86 -8.5,1.79 -17.1,3.54 -25.6,5.33 -7.8,1.62 -16.6,4 -26.2,4 -13.5,0 -24.2,-4.21 -34.9,-6.39 a 87.42,87.42 0 0 0 -31.2,-0.86 c -11.4,1.72 -20.3,4.76 -31.4,6.65 a 69.47,69.47 0 0 1 -20.4,0.7 c -6.3,-0.77 -13.3,-2.09 -18.9,-0.27 -1.4,0.46 0.7,1.16 2.1,0.7 z"
     id="path11064" />
  <path
     d="m 120.42,312.96 54.9,-0.19 c 1.1,0 1.41,-1.75 0.27,-2 a 26.73,26.73 0 0 1 -11.78,-5.21 l -1,1.67 a 82.36,82.36 0 0 1 17.62,6 v -1.73 a 56.52,56.52 0 0 1 -13.17,4.64 c -1.25,0.28 -0.72,2.2 0.54,1.93 a 59.4,59.4 0 0 0 13.64,-4.84 1,1 0 0 0 0,-1.73 84.91,84.91 0 0 0 -18.1,-6.21 c -0.87,-0.19 -1.82,1 -1,1.68 a 28.84,28.84 0 0 0 12.63,5.75 l 0.26,-2 -54.9,0.19 a 1,1 0 0 0 0,2 z"
     id="path11442" />
  <metadata
     id="metadata25028">
    <rdf:RDF>
      <cc:Work
         rdf:about="">
        <dc:title>temporal_data</dc:title>
      </cc:Work>
    </rdf:RDF>
  </metadata>
</svg>
