<?xml version="1.0" encoding="UTF-8" standalone="no"?>
<svg
   viewBox="0 0 1088.51 544.53"
   version="1.1"
   id="svg11729"
   sodipodi:docname="4.svg"
   inkscape:version="1.2.2 (1:1.2.2+202212051552+b0a8486541)"
   xmlns:inkscape="http://www.inkscape.org/namespaces/inkscape"
   xmlns:sodipodi="http://sodipodi.sourceforge.net/DTD/sodipodi-0.dtd"
   xmlns="http://www.w3.org/2000/svg"
   xmlns:svg="http://www.w3.org/2000/svg"
   xmlns:rdf="http://www.w3.org/1999/02/22-rdf-syntax-ns#"
   xmlns:cc="http://creativecommons.org/ns#"
   xmlns:dc="http://purl.org/dc/elements/1.1/">
  <sodipodi:namedview
     id="namedview11731"
     pagecolor="#ffffff"
     bordercolor="#000000"
     borderopacity="0.25"
     inkscape:showpageshadow="2"
     inkscape:pageopacity="0.0"
     inkscape:pagecheckerboard="0"
     inkscape:deskcolor="#d1d1d1"
     showgrid="false"
     inkscape:zoom="0.43340126"
     inkscape:cx="545.68369"
     inkscape:cy="272.26501"
     inkscape:window-width="1223"
     inkscape:window-height="779"
     inkscape:window-x="57"
     inkscape:window-y="21"
     inkscape:window-maximized="1"
     inkscape:current-layer="svg11729" />
  <defs
     id="defs10265">
    <style
       id="style10254">.cls-1,.cls-10,.cls-11,.cls-12,.cls-13,.cls-15,.cls-17,.cls-24,.cls-25,.cls-26{fill:none;}.cls-14,.cls-2,.cls-22{fill:#1f77b4;}.cls-2,.cls-3,.cls-4{opacity:0.3;}.cls-16,.cls-20,.cls-3{fill:#ff7f0e;}.cls-18,.cls-23,.cls-4{fill:#2ca02c;}.cls-5{fill:#c1272d;}.cls-6{fill:#fcee21;}.cls-7{fill:blue;}.cls-8{fill:#8cc63f;}.cls-9{clip-path:url(#clip-path);}.cls-10,.cls-15{stroke:#ff7f0e;}.cls-10,.cls-11,.cls-12,.cls-25{stroke-linejoin:round;}.cls-10,.cls-11,.cls-12{stroke-dasharray:3.7 1.6;}.cls-11,.cls-13{stroke:#1f77b4;}.cls-12,.cls-17{stroke:#2ca02c;}.cls-13,.cls-15,.cls-17,.cls-24,.cls-26{stroke-miterlimit:10;}.cls-14,.cls-16,.cls-18{opacity:0.5;}.cls-19{clip-path:url(#clip-path-13);}.cls-21{clip-path:url(#clip-path-14);}.cls-24{stroke:#820303;stroke-width:2px;}.cls-25,.cls-26{stroke:#000;stroke-width:3px;}.cls-26{stroke-linecap:square;}</style>
    <clipPath
       id="clip-path"
       transform="translate(-16.19 -7.21)">
      <rect
         class="cls-1"
         x="831.64"
         y="138"
         width="285.54"
         height="354.03"
         id="rect10256" />
    </clipPath>
    <clipPath
       id="clip-path-13"
       transform="translate(-16.19 -7.21)">
      <rect
         class="cls-1"
         x="831.64"
         y="140"
         width="285.54"
         height="354.03"
         id="rect10259" />
    </clipPath>
    <clipPath
       id="clip-path-14"
       transform="translate(-16.19 -7.21)">
      <rect
         class="cls-1"
         x="831.64"
         y="136"
         width="285.54"
         height="354.03"
         id="rect10262" />
    </clipPath>
  </defs>
  <title
     id="title10267">temporal_data</title>
  <rect
     class="cls-2"
     x="220.33"
     y="390.23999"
     width="199.28999"
     height="26.540001"
     id="rect11066" />
  <rect
     class="cls-3"
     x="220.33"
     y="426.23999"
     width="199.28999"
     height="39.369999"
     id="rect11068" />
  <rect
     class="cls-4"
     x="220.33"
     y="474.23999"
     width="199.28999"
     height="16.459999"
     id="rect11070" />
  <path
     class="cls-5"
     d="m 241.17,432.26 a 12.83,12.83 0 0 1 1.1,4.6 c 0,0.63 3,0.63 3,0 a 14.5,14.5 0 0 0 -1.2,-4.87 c -0.3,-0.63 -3.2,-0.36 -2.9,0.27 z"
     id="path11072" />
  <path
     class="cls-5"
     d="m 247.81,431.43 c 1.2,2.28 2.5,4.6 3.7,6.88 0.3,0.63 3.2,0.37 2.9,-0.26 -1.2,-2.29 -2.5,-4.6 -3.7,-6.89 -0.4,-0.63 -3.3,-0.36 -2.9,0.27 z"
     id="path11074" />
  <path
     class="cls-5"
     d="m 302.37,432.85 a 36.32,36.32 0 0 0 0.7,5.66 c 0.1,0.63 3.1,0.63 3,0 a 27.3,27.3 0 0 1 -0.7,-5.66 c 0,-0.66 -3,-0.66 -3,0 z"
     id="path11076" />
  <path
     class="cls-5"
     d="m 324.07,432.95 a 30.78,30.78 0 0 0 2.4,6.09 c 0.4,0.63 3.3,0.37 2.9,-0.26 a 34.24,34.24 0 0 1 -2.3,-5.83 c -0.2,-0.63 -3.2,-0.63 -3,0 z"
     id="path11078" />
  <path
     class="cls-5"
     d="m 383.57,430.27 a 7.77,7.77 0 0 0 1.8,4.77 c 0.5,0.63 3.4,0.36 2.9,-0.27 a 7.59,7.59 0 0 1 -1.7,-4.5 c -0.1,-0.66 -3.1,-0.66 -3,0 z"
     id="path11080" />
  <path
     class="cls-6"
     d="m 262.07,431 a 61.54,61.54 0 0 1 3.1,7.81 c 0.2,0.63 3.2,0.63 3,0 a 65.81,65.81 0 0 0 -3.2,-8.08 c -0.4,-0.63 -3.2,-0.36 -2.9,0.27 z"
     id="path11082" />
  <path
     class="cls-6"
     d="m 313.07,432.62 c 0.5,1.42 1.1,2.85 1.6,4.27 0.3,0.93 0,2.28 1.5,3.08 a 3.73,3.73 0 0 0 2.4,0.1 c 0,0 0.1,0 0.1,-0.07 0.5,-0.2 0.7,-0.53 0,-0.69 h -0.1 c -1.5,-0.43 -3.6,0.3 -2.1,0.7 h 0.1 v -0.69 c 0,0 -0.1,0 -0.1,0.06 l 2.4,0.1 c -1.4,-0.76 -1.1,-2.55 -1.4,-3.37 -0.4,-1.16 -0.9,-2.32 -1.3,-3.48 -0.4,-0.63 -3.4,-0.63 -3.1,0 z"
     id="path11084" />
  <path
     class="cls-6"
     d="m 353.17,432.02 a 12.22,12.22 0 0 0 0.4,4.24 c 0.2,0.63 3.2,0.63 3,0 a 12.22,12.22 0 0 1 -0.4,-4.24 c 0.1,-0.66 -2.9,-0.66 -3,0 z"
     id="path11086" />
  <path
     class="cls-7"
     d="m 254.37,431.23 a 50.62,50.62 0 0 1 6.1,7.91 c 0.4,0.63 3.3,0.37 2.9,-0.26 a 48.45,48.45 0 0 0 -6.1,-7.92 c -0.6,-0.59 -3.5,-0.33 -2.9,0.27 z"
     id="path11088" />
  <path
     class="cls-7"
     d="m 294.47,433.68 a 43,43 0 0 1 2.6,4.14 c 0.3,0.63 3.2,0.36 2.9,-0.27 a 29.54,29.54 0 0 0 -2.6,-4.14 c -0.5,-0.62 -3.4,-0.36 -2.9,0.27 z"
     id="path11090" />
  <path
     class="cls-7"
     d="m 366.57,429.87 c 0.8,2.39 1.7,4.74 2.5,7.12 0.2,0.63 3.2,0.63 3,0 -0.8,-2.38 -1.7,-4.73 -2.5,-7.12 -0.2,-0.63 -3.2,-0.66 -3,0 z"
     id="path11092" />
  <path
     class="cls-7"
     d="m 390.67,430.79 a 17.11,17.11 0 0 0 1.4,2.81 c 0.4,0.63 3.3,0.36 2.9,-0.26 a 15.75,15.75 0 0 1 -1.3,-2.55 c -0.2,-0.63 -3.2,-0.63 -3,0 z"
     id="path11094" />
  <path
     class="cls-8"
     d="m 269.87,433.48 c 1,1.36 1.9,2.68 2.9,4 0.4,0.63 3.3,0.36 2.9,-0.27 -1,-1.35 -1.9,-2.68 -2.9,-4 -0.5,-0.63 -3.4,-0.37 -2.9,0.26 z"
     id="path11096" />
  <path
     class="cls-8"
     d="m 276.07,434.79 c 0.6,0.43 1.1,0.86 1.7,1.29 a 3.64,3.64 0 0 0 1.9,1 3.78,3.78 0 0 0 1.5,0 c 0.5,-0.1 0.8,-0.2 0.9,-0.39 0.1,-0.19 -0.1,-0.43 -0.7,-0.57 h -0.1 c -1.6,-0.33 -3.1,0.53 -1.5,0.86 h 0.1 c -0.2,-0.2 -0.5,-0.36 -0.7,-0.56 v 0.07 c 0.2,-0.1 0.5,-0.2 0.7,-0.3 -0.1,0 -0.1,0 -0.2,0 h 1.5 c 0.2,0.07 0.2,0 -0.1,-0.13 -0.1,-0.1 -0.3,-0.2 -0.4,-0.3 l -0.6,-0.46 c -0.5,-0.37 -0.9,-0.7 -1.4,-1.06 -0.8,-0.56 -3.4,0 -2.6,0.53 z"
     id="path11098" />
  <path
     class="cls-8"
     d="m 307.27,432.95 c 1.6,2.12 0.4,4.3 2.1,6.42 0.5,0.63 3.4,0.37 2.9,-0.26 -1.8,-2.09 -0.5,-4.31 -2.1,-6.42 -0.4,-0.6 -3.3,-0.33 -2.9,0.26 z"
     id="path11100" />
  <path
     class="cls-8"
     d="m 331.47,433.68 c 0.7,1.22 1.4,2.48 2.1,3.71 0.3,0.63 3.2,0.36 2.9,-0.27 -0.7,-1.22 -1.4,-2.48 -2.1,-3.71 -0.4,-0.62 -3.3,-0.36 -2.9,0.27 z"
     id="path11102" />
  <path
     class="cls-8"
     d="m 359.97,430.7 c 0.3,1.95 -0.4,4.3 1.6,6.19 0.6,0.6 3.5,0.33 2.9,-0.26 -1.9,-1.79 -1.2,-4 -1.5,-5.93 -0.1,-0.66 -3.1,-0.66 -3,0 z"
     id="path11104" />
  <path
     class="cls-8"
     d="m 374.81,429.94 a 19.78,19.78 0 0 0 3.1,6.22 c 0.5,0.63 3.3,0.37 2.9,-0.26 a 20.13,20.13 0 0 1 -3,-6 c -0.2,-0.63 -3.2,-0.63 -3,0 z"
     id="path11106" />
  <path
     d="m 229.37,437.45 a 56.45,56.45 0 0 1 12.6,-5 c 7.5,-1.88 16.1,-1.65 24.4,-0.33 12.7,2.06 22.6,5.66 35.6,7.52 10.1,1.42 22.8,1.88 32.1,-0.4 a 47.67,47.67 0 0 0 10.2,-4 c 4.6,-2.26 9.6,-3.84 17.6,-4.67 16.3,-1.66 34.7,-0.3 47.8,3.24 1.5,0.4 3.6,-0.3 2.1,-0.69 -10.6,-2.85 -24,-4.41 -37.7,-4.21 a 129.81,129.81 0 0 0 -19.7,1.62 46.75,46.75 0 0 0 -13.1,4.41 42,42 0 0 1 -17.6,4.73 105.48,105.48 0 0 1 -23.6,-1.42 c -13.7,-2.35 -24.7,-6.72 -40,-8 a 58.23,58.23 0 0 0 -33.3,6.65 c -1,0.57 1.6,1.06 2.6,0.53 z"
     id="path11108" />
  <path
     d="m 226.87,430.3 c 5.9,4 13,8.54 27.1,9.8 14.5,1.29 22.9,-2.58 33.7,-4.93 12.5,-2.72 28.6,-3.41 42.8,-2 7.6,0.76 13.7,2.32 20.5,3.54 a 93.54,93.54 0 0 0 20.3,1.29 c 16.6,-0.76 28.5,-5 39.2,-8.84 1.3,-0.46 -0.8,-1.19 -2.1,-0.69 -12.3,4.5 -29.4,10.39 -49.9,8.27 -8.5,-0.89 -15.3,-3 -23.6,-4.1 a 156.71,156.71 0 0 0 -21.8,-1.13 154.36,154.36 0 0 0 -20.4,1.63 c -7.6,1.16 -13.1,3 -19.7,4.63 a 59.27,59.27 0 0 1 -28,-0.33 c -7.3,-1.95 -11.5,-4.9 -15.5,-7.65 -0.8,-0.53 -3.4,0 -2.6,0.53 z"
     id="path11110" />
  <path
     class="cls-7"
     d="m 244.28,396.63 c -0.3,1 0.5,2 1,3 a 13.42,13.42 0 0 1 1.1,3.81 c 0.1,0.63 3.1,0.63 3,0 a 11.42,11.42 0 0 0 -0.7,-3.08 c -0.5,-1.22 -1.7,-2.45 -1.3,-3.67 0.1,-0.67 -2.9,-0.67 -3.1,0 z"
     id="path11112" />
  <path
     class="cls-7"
     d="m 290.68,396.73 c -0.8,2 1,4.31 1.7,6.29 0.2,0.63 3.2,0.63 3,0 -0.3,-1 -0.7,-2 -1,-3 -0.3,-1 -1.2,-2.05 -0.8,-3 0.3,-0.63 -2.6,-0.9 -2.9,-0.27 z"
     id="path11114" />
  <path
     class="cls-7"
     d="m 295.81,396.34 a 42,42 0 0 1 3.4,6.81 c 0.2,0.63 3.2,0.63 3,0 a 32.54,32.54 0 0 0 -3.5,-7.08 c -0.4,-0.63 -3.3,-0.36 -2.9,0.27 z"
     id="path11116" />
  <path
     class="cls-7"
     d="m 347.18,395.79 c -0.1,2.09 -0.2,4.17 -0.1,6.29 0,0.63 3,0.63 3,0 a 44.1,44.1 0 0 1 0.1,-6.29 c 0,-0.66 -3,-0.66 -3,0 z"
     id="path11118" />
  <path
     class="cls-7"
     d="m 370.81,398.52 v 3.15 c 0,0.62 3,0.62 3,0 v -3.15 c 0,-0.66 -3,-0.66 -3,0 z"
     id="path11120" />
  <path
     class="cls-6"
     d="m 238.28,397.46 a 11.51,11.51 0 0 1 3.8,6 c 0.1,0.62 3.1,0.62 3,0 a 11.61,11.61 0 0 0 -3.9,-6.29 c -0.7,-0.6 -3.6,-0.33 -2.9,0.26 z"
     id="path11122" />
  <path
     class="cls-6"
     d="m 311.38,396.7 a 11.07,11.07 0 0 1 2.8,5 c 0.2,0.62 3.2,0.62 3,0 a 12.2,12.2 0 0 0 -2.9,-5.24 c -0.5,-0.59 -3.4,-0.36 -2.9,0.27 z"
     id="path11124" />
  <path
     class="cls-6"
     d="m 315.58,397.26 a 16.46,16.46 0 0 0 2.9,2.78 c 0.8,0.6 3.3,0.07 2.6,-0.49 a 14.68,14.68 0 0 1 -2.6,-2.55 c -0.5,-0.63 -3.4,-0.37 -2.9,0.26 z"
     id="path11126" />
  <path
     class="cls-6"
     d="m 357.48,396.53 c 0.5,2.12 0.9,4.24 1.4,6.39 0.1,0.63 3.1,0.63 3,0 -0.5,-2.12 -0.9,-4.23 -1.4,-6.39 -0.2,-0.62 -3.2,-0.62 -3,0 z"
     id="path11128" />
  <path
     class="cls-5"
     d="m 251.28,396.43 a 22.5,22.5 0 0 1 0.2,7.32 c -0.1,0.63 2.9,0.63 3,0 a 22.5,22.5 0 0 0 -0.2,-7.32 c -0.2,-0.62 -3.2,-0.66 -3,0 z"
     id="path11130" />
  <path
     class="cls-5"
     d="m 300.81,396.2 c 3.7,2.15 3.7,4.67 5.5,7 0.5,0.63 3.4,0.37 2.9,-0.26 -1.8,-2.45 -1.9,-5 -5.8,-7.25 -1,-0.57 -3.5,-0.07 -2.6,0.49 z"
     id="path11132" />
  <path
     class="cls-5"
     d="m 352.98,395.61 a 14.34,14.34 0 0 1 0.2,7.41 c -0.1,0.63 2.9,0.63 3,0 a 16.85,16.85 0 0 0 -0.2,-7.41 c -0.1,-0.63 -3.1,-0.63 -3,0 z"
     id="path11134" />
  <path
     class="cls-5"
     d="m 375.88,398.85 a 2.2,2.2 0 0 0 -0.2,1.76 c 0.2,0.62 3.2,0.62 3,0 a 2.53,2.53 0 0 1 0.1,-1.49 c 0.1,-0.27 -0.2,-0.53 -1,-0.6 -0.8,-0.07 -1.8,0.07 -1.9,0.33 z"
     id="path11136" />
  <path
     class="cls-8"
     d="m 232.81,398.32 a 11.39,11.39 0 0 1 4.6,4.27 c 0.3,0.63 3.2,0.37 2.9,-0.26 a 12.77,12.77 0 0 0 -4.9,-4.5 c -1,-0.53 -3.5,0 -2.6,0.49 z"
     id="path11138" />
  <path
     class="cls-8"
     d="m 261.88,398.88 a 13.83,13.83 0 0 1 1.6,2.88 c 0.3,0.63 3.3,0.63 3,0 a 16.44,16.44 0 0 0 -1.7,-3.14 c -0.4,-0.63 -3.3,-0.36 -2.9,0.26 z"
     id="path11140" />
  <path
     class="cls-8"
     d="m 266.88,399.91 1.2,0.7 a 3.91,3.91 0 0 0 2.1,0.16 c 0.7,-0.13 1,-0.46 0.5,-0.69 l -1.2,-0.7 a 3.81,3.81 0 0 0 -2.1,-0.16 c -0.6,0.16 -0.9,0.46 -0.5,0.69 z"
     id="path11142" />
  <path
     class="cls-8"
     d="m 306.38,395.79 c 1.3,2.15 2.7,4.34 4,6.49 0.4,0.63 3.3,0.36 2.9,-0.27 -1.3,-2.15 -2.7,-4.33 -4,-6.49 -0.4,-0.59 -3.3,-0.33 -2.9,0.27 z"
     id="path11144" />
  <path
     class="cls-8"
     d="m 363.08,396.79 a 24.18,24.18 0 0 1 2.8,5.56 c 0.2,0.63 3.2,0.63 3,0 a 26.27,26.27 0 0 0 -3,-5.83 c -0.3,-0.62 -3.2,-0.36 -2.8,0.27 z"
     id="path11146" />
  <path
     class="cls-8"
     d="m 341.18,395.94 a 9,9 0 0 0 0.3,5.13 c 0.2,0.63 3.2,0.63 3,0 a 10,10 0 0 1 -0.3,-5.13 c 0.2,-0.63 -2.8,-0.63 -3,0 z"
     id="path11148" />
  <path
     class="cls-8"
     d="m 336.58,396.79 a 7,7 0 0 0 0.6,2.78 c 0.2,0.63 3.2,0.63 3,0 a 7,7 0 0 1 -0.6,-2.78 c 0,-0.63 -3,-0.63 -3,0 z"
     id="path11150" />
  <path
     class="cls-8"
     d="m 286.88,397.92 a 11,11 0 0 0 0.8,4.67 c 0.2,0.63 3.2,0.63 3,0 a 10.87,10.87 0 0 1 -0.8,-4.67 c 0,-0.62 -3,-0.62 -3,0 z"
     id="path11152" />
  <path
     class="cls-6"
     d="m 256.68,397.59 c 0.1,1.76 0.3,3.48 0.4,5.23 0,0.63 3,0.63 3,0 -0.1,-1.75 -0.3,-3.47 -0.4,-5.23 -0.1,-0.63 -3.1,-0.66 -3,0 z"
     id="path11154" />
  <path
     class="cls-5"
     d="m 228.48,399.35 c 0.9,1 1.8,1.95 2.7,2.91 0.6,0.6 3.5,0.37 2.9,-0.26 -0.9,-1 -1.8,-2 -2.7,-2.92 -0.5,-0.59 -3.4,-0.36 -2.9,0.27 z"
     id="path11156" />
  <path
     class="cls-5"
     d="m 281.38,399.68 a 3.5,3.5 0 0 0 0.3,2 c 0.1,0.26 0.6,0.49 1.5,0.49 0.7,0 1.6,-0.23 1.5,-0.49 a 3.5,3.5 0 0 1 -0.3,-2 c 0.1,-0.63 -2.9,-0.63 -3,0 z"
     id="path11158" />
  <path
     class="cls-5"
     d="m 330.98,397.79 1.8,1.15 c 0.9,0.57 3.5,0.07 2.6,-0.49 -0.6,-0.4 -1.2,-0.76 -1.8,-1.16 -0.9,-0.56 -3.5,-0.07 -2.6,0.5 z"
     id="path11160" />
  <path
     class="cls-5"
     d="m 392.68,398.29 1.2,2.08 c 0.4,0.63 3.2,0.37 2.9,-0.26 l -1.2,-2.09 c -0.4,-0.63 -3.3,-0.36 -2.9,0.27 z"
     id="path11162" />
  <path
     class="cls-5"
     d="m 406.68,395.28 a 28,28 0 0 0 2.5,5 c 0.4,0.63 3.3,0.37 2.9,-0.26 a 25.38,25.38 0 0 1 -2.4,-4.73 c -0.3,-0.63 -3.3,-0.63 -3,0 z"
     id="path11164" />
  <path
     class="cls-6"
     d="m 389.48,399.94 h 0.6 c 0.8,0 1.5,-0.23 1.5,-0.49 0,-0.26 -0.7,-0.5 -1.5,-0.5 h -0.6 c -0.8,0 -1.5,0.23 -1.5,0.5 0,0.27 0.7,0.49 1.5,0.49 z"
     id="path11166" />
  <path
     class="cls-6"
     d="m 410.81,394.91 a 19.13,19.13 0 0 0 2,4.8 c 0.4,0.63 3.3,0.37 2.9,-0.26 a 14.38,14.38 0 0 1 -1.9,-4.54 c -0.2,-0.63 -3.2,-0.63 -3,0 z"
     id="path11168" />
  <path
     class="cls-7"
     d="m 396.81,397.49 a 4.13,4.13 0 0 1 1.3,2.88 c 0,0.63 3,0.63 3,0 a 4.4,4.4 0 0 0 -1.4,-3.14 c -0.6,-0.63 -3.5,-0.36 -2.9,0.26 z"
     id="path11170" />
  <path
     class="cls-8"
     d="m 401.38,396.47 c 1.8,1.49 0.3,3.18 2.4,4.67 0.8,0.56 3.4,0.06 2.6,-0.5 -2,-1.36 -0.4,-3 -2.1,-4.4 -0.7,-0.63 -3.6,-0.37 -2.9,0.23 z"
     id="path11172" />
  <path
     d="m 226.28,402.06 c 1.5,-2.28 6.2,-4 12.9,-4.83 a 79.84,79.84 0 0 1 21.7,0.83 c 12.9,2.05 24,5.62 38.8,6.05 14,0.4 21.9,-3.17 31.1,-5.95 a 65.3,65.3 0 0 1 23.2,-2.45 212.71,212.71 0 0 1 23.4,3.17 c 12.5,2.12 28.1,4.08 40.8,1.06 1.5,-0.36 0.1,-1.22 -1.5,-0.86 -15,3.61 -32.5,-0.33 -46.5,-2.51 -12.6,-2 -26.3,-3 -38.2,0 -5.3,1.35 -9.5,3.11 -14.6,4.53 a 66.55,66.55 0 0 1 -24.7,1.56 c -15,-1.59 -26.4,-6 -42.3,-6.72 -12.2,-0.6 -24.3,1.85 -27,5.92 -0.4,0.57 2.4,0.83 2.9,0.2 z"
     id="path11174" />
  <path
     d="m 224.38,403.62 c 5.6,-1.82 15.3,0.76 21.8,1 a 75.62,75.62 0 0 0 14.4,-0.89 c 11.2,-1.66 20.1,-4.6 30.8,-6.52 a 82.49,82.49 0 0 1 18.9,-1.39 93.91,93.91 0 0 1 17.6,2.91 c 9.2,2.22 19,5.33 31.1,5.36 8.8,0 16.4,-1.79 23.6,-3.28 l 29.8,-6.19 c 1.6,-0.33 0.1,-1.19 -1.5,-0.86 -8.5,1.79 -17.1,3.55 -25.6,5.33 -7.8,1.63 -16.6,4 -26.2,4 -13.5,0 -24.2,-4.21 -34.9,-6.39 a 87.65,87.65 0 0 0 -31.2,-0.86 c -11.4,1.72 -20.3,4.77 -31.4,6.65 a 69.47,69.47 0 0 1 -20.4,0.7 c -6.3,-0.76 -13.3,-2.09 -18.9,-0.27 -1.4,0.47 0.7,1.16 2.1,0.7 z"
     id="path11176" />
  <path
     class="cls-7"
     d="m 245.18,407.13 c -0.3,1 0.5,2 1,3 a 13.27,13.27 0 0 1 1.1,3.8 c 0.1,0.63 3.1,0.63 3,0 a 11.51,11.51 0 0 0 -0.7,-3.08 c -0.5,-1.22 -1.7,-2.44 -1.3,-3.67 0.1,-0.66 -2.9,-0.66 -3.1,0 z"
     id="path11178" />
  <path
     class="cls-7"
     d="m 291.58,407.23 c -0.8,2 1,4.3 1.7,6.29 0.2,0.63 3.2,0.63 3,0 -0.3,-1 -0.7,-2 -1,-3 -0.3,-1 -1.2,-2 -0.8,-3 0.2,-0.63 -2.6,-0.89 -2.9,-0.26 z"
     id="path11180" />
  <path
     class="cls-7"
     d="m 296.58,406.79 a 41.67,41.67 0 0 1 3.4,6.82 c 0.2,0.63 3.2,0.63 3,0 a 32.61,32.61 0 0 0 -3.5,-7.09 c -0.4,-0.59 -3.3,-0.33 -2.9,0.27 z"
     id="path11182" />
  <path
     class="cls-7"
     d="m 347.98,406.23 c -0.1,2.09 -0.2,4.17 -0.1,6.29 0,0.63 3,0.63 3,0 a 44.13,44.13 0 0 1 0.1,-6.29 c 0,-0.66 -3,-0.66 -3,0 z"
     id="path11184" />
  <path
     class="cls-7"
     d="m 371.68,409.01 v 3.15 c 0,0.63 3,0.63 3,0 v -3.15 c 0,-0.62 -3,-0.62 -3,0 z"
     id="path11186" />
  <path
     class="cls-6"
     d="m 239.08,407.99 a 11.53,11.53 0 0 1 3.8,6 c 0.1,0.63 3.1,0.63 3,0 a 11.64,11.64 0 0 0 -3.9,-6.29 c -0.7,-0.59 -3.6,-0.36 -2.9,0.27 z"
     id="path11188" />
  <path
     class="cls-6"
     d="m 312.28,407.19 a 11.12,11.12 0 0 1 2.8,5 c 0.2,0.63 3.2,0.63 3,0 a 12.12,12.12 0 0 0 -2.9,-5.23 c -0.6,-0.6 -3.5,-0.33 -2.9,0.26 z"
     id="path11190" />
  <path
     class="cls-6"
     d="m 316.38,407.79 a 16.83,16.83 0 0 0 2.9,2.78 c 0.8,0.59 3.3,0.06 2.6,-0.5 a 14.68,14.68 0 0 1 -2.6,-2.55 c -0.5,-0.63 -3.4,-0.36 -2.9,0.27 z"
     id="path11192" />
  <path
     class="cls-6"
     d="m 358.28,407.03 c 0.5,2.12 0.9,4.24 1.4,6.39 0.1,0.63 3.1,0.63 3,0 -0.5,-2.12 -0.9,-4.24 -1.4,-6.39 -0.1,-0.63 -3.1,-0.63 -3,0 z"
     id="path11194" />
  <path
     class="cls-5"
     d="m 252.08,406.93 a 22.44,22.44 0 0 1 0.2,7.31 c -0.1,0.63 2.9,0.63 3,0 a 22.44,22.44 0 0 0 -0.2,-7.31 c -0.1,-0.63 -3.1,-0.63 -3,0 z"
     id="path11196" />
  <path
     class="cls-5"
     d="m 301.68,406.7 c 3.7,2.15 3.7,4.66 5.5,7 0.5,0.63 3.4,0.37 2.9,-0.26 -1.8,-2.45 -1.9,-5 -5.8,-7.25 -1,-0.56 -3.6,0 -2.6,0.5 z"
     id="path11198" />
  <path
     class="cls-5"
     d="m 353.88,406.1 a 14.37,14.37 0 0 1 0.2,7.42 c -0.1,0.63 2.9,0.63 3,0 a 16.89,16.89 0 0 0 -0.2,-7.42 c -0.2,-0.63 -3.2,-0.63 -3,0 z"
     id="path11200" />
  <path
     class="cls-5"
     d="m 376.68,409.35 a 2.17,2.17 0 0 0 -0.2,1.75 c 0.2,0.63 3.2,0.63 3,0 a 2.54,2.54 0 0 1 0.1,-1.49 c 0.1,-0.26 -0.2,-0.53 -1,-0.6 a 2.76,2.76 0 0 0 -1.9,0.34 z"
     id="path11202" />
  <path
     class="cls-8"
     d="m 233.68,408.85 a 11.33,11.33 0 0 1 4.6,4.27 c 0.3,0.63 3.2,0.36 2.9,-0.27 a 12.85,12.85 0 0 0 -4.9,-4.5 c -1,-0.56 -3.6,-0.06 -2.6,0.5 z"
     id="path11204" />
  <path
     class="cls-8"
     d="m 262.81,409.38 a 13.83,13.83 0 0 1 1.6,2.88 c 0.3,0.63 3.3,0.63 3,0 a 16.21,16.21 0 0 0 -1.7,-3.15 c -0.5,-0.63 -3.4,-0.36 -2.9,0.27 z"
     id="path11206" />
  <path
     class="cls-8"
     d="m 267.81,410.44 1.2,0.69 a 3.9,3.9 0 0 0 2.1,0.17 c 0.7,-0.13 1,-0.47 0.5,-0.7 l -1.2,-0.69 a 3.9,3.9 0 0 0 -2.1,-0.17 c -0.7,0.13 -0.9,0.47 -0.5,0.7 z"
     id="path11208" />
  <path
     class="cls-8"
     d="m 307.18,406.27 c 1.3,2.15 2.7,4.33 4,6.48 0.4,0.63 3.3,0.37 2.9,-0.26 -1.3,-2.15 -2.7,-4.34 -4,-6.49 -0.4,-0.63 -3.3,-0.36 -2.9,0.27 z"
     id="path11210" />
  <path
     class="cls-8"
     d="m 363.88,407.29 a 24.38,24.38 0 0 1 2.8,5.56 c 0.2,0.63 3.2,0.63 3,0 a 26.2,26.2 0 0 0 -3,-5.82 c -0.3,-0.63 -3.2,-0.37 -2.8,0.26 z"
     id="path11212" />
  <path
     class="cls-8"
     d="m 342.08,406.47 a 9,9 0 0 0 0.3,5.13 c 0.2,0.63 3.2,0.63 3,0 a 10,10 0 0 1 -0.3,-5.13 c 0.1,-0.67 -2.9,-0.63 -3,0 z"
     id="path11214" />
  <path
     class="cls-8"
     d="m 337.48,407.26 a 7,7 0 0 0 0.6,2.78 c 0.2,0.63 3.2,0.63 3,0 a 7,7 0 0 1 -0.6,-2.78 c 0,-0.63 -3,-0.63 -3,0 z"
     id="path11216" />
  <path
     class="cls-8"
     d="m 287.68,408.42 a 11,11 0 0 0 0.8,4.67 c 0.2,0.62 3.2,0.62 3,0 a 10.89,10.89 0 0 1 -0.8,-4.67 c 0.1,-0.63 -2.9,-0.63 -3,0 z"
     id="path11218" />
  <path
     class="cls-6"
     d="m 257.48,408.09 c 0.1,1.75 0.3,3.47 0.4,5.23 0,0.63 3,0.63 3,0 -0.1,-1.76 -0.3,-3.48 -0.4,-5.23 0,-0.63 -3,-0.63 -3,0 z"
     id="path11220" />
  <path
     class="cls-5"
     d="m 229.38,409.84 2.7,2.91 c 0.6,0.6 3.5,0.37 2.9,-0.26 -0.9,-1 -1.8,-1.95 -2.7,-2.91 -0.6,-0.6 -3.5,-0.33 -2.9,0.26 z"
     id="path11222" />
  <path
     class="cls-5"
     d="m 282.28,410.17 a 3.49,3.49 0 0 0 0.3,2 c 0.1,0.26 0.6,0.5 1.5,0.5 0.7,0 1.6,-0.24 1.5,-0.5 a 3.49,3.49 0 0 1 -0.3,-2 c 0,-0.63 -3,-0.63 -3,0 z"
     id="path11224" />
  <path
     class="cls-5"
     d="m 331.88,408.35 c 0.6,0.4 1.2,0.76 1.8,1.16 0.9,0.56 3.5,0.07 2.6,-0.5 l -1.8,-1.15 c -0.9,-0.6 -3.5,-0.1 -2.6,0.49 z"
     id="path11226" />
  <path
     class="cls-5"
     d="m 393.48,408.79 1.2,2.09 c 0.4,0.63 3.2,0.36 2.9,-0.27 l -1.2,-2.08 c -0.4,-0.63 -3.2,-0.37 -2.9,0.26 z"
     id="path11228" />
  <path
     class="cls-5"
     d="m 407.48,405.79 a 28.12,28.12 0 0 0 2.5,5 c 0.4,0.63 3.3,0.36 2.9,-0.27 a 25.08,25.08 0 0 1 -2.4,-4.73 c -0.2,-0.63 -3.2,-0.63 -3,0 z"
     id="path11230" />
  <path
     class="cls-6"
     d="m 390.28,410.44 h 0.6 c 0.8,0 1.5,-0.23 1.5,-0.5 0,-0.27 -0.7,-0.5 -1.5,-0.5 h -0.6 c -0.8,0 -1.5,0.24 -1.5,0.5 0,0.26 0.7,0.5 1.5,0.5 z"
     id="path11232" />
  <path
     class="cls-6"
     d="m 411.58,405.41 a 19.13,19.13 0 0 0 2,4.8 c 0.4,0.62 3.3,0.36 2.9,-0.27 a 14.33,14.33 0 0 1 -1.9,-4.53 c -0.1,-0.63 -3.1,-0.63 -3,0 z"
     id="path11234" />
  <path
     class="cls-7"
     d="m 397.58,407.99 a 4.11,4.11 0 0 1 1.3,2.88 c 0,0.63 3,0.63 3,0 a 4.42,4.42 0 0 0 -1.4,-3.15 c -0.6,-0.59 -3.5,-0.36 -2.9,0.27 z"
     id="path11236" />
  <path
     class="cls-8"
     d="m 402.28,406.96 c 1.8,1.49 0.3,3.18 2.4,4.67 0.8,0.56 3.4,0.07 2.6,-0.5 -2,-1.35 -0.4,-3 -2.1,-4.4 -0.7,-0.63 -3.6,-0.36 -2.9,0.23 z"
     id="path11238" />
  <path
     d="m 227.08,412.59 c 1.5,-2.28 6.2,-4 12.9,-4.83 a 80.24,80.24 0 0 1 21.7,0.82 c 12.9,2.06 24,5.63 38.8,6.06 14,0.4 21.9,-3.18 31.1,-6 a 65.3,65.3 0 0 1 23.2,-2.45 212.65,212.65 0 0 1 23.4,3.18 c 12.5,2.12 28.1,4.07 40.8,1.06 1.5,-0.36 0.1,-1.22 -1.5,-0.86 -15,3.61 -32.5,-0.33 -46.5,-2.52 -12.6,-2 -26.3,-3 -38.2,0 -5.3,1.36 -9.5,3.12 -14.6,4.54 a 66.55,66.55 0 0 1 -24.7,1.56 c -15,-1.59 -26.4,-6 -42.3,-6.72 -12.2,-0.6 -24.3,1.85 -27,5.92 -0.4,0.53 2.5,0.8 2.9,0.2 z"
     id="path11240" />
  <path
     d="m 225.28,414.15 c 5.6,-1.83 15.3,0.76 21.8,1 a 74.79,74.79 0 0 0 14.4,-0.9 c 11.2,-1.65 20.1,-4.6 30.8,-6.52 a 83.63,83.63 0 0 1 18.9,-1.39 93.87,93.87 0 0 1 17.6,2.92 c 9.2,2.21 19,5.33 31.1,5.36 8.8,0 16.4,-1.79 23.6,-3.28 l 29.8,-6.19 c 1.6,-0.33 0.1,-1.19 -1.5,-0.86 -8.5,1.79 -17.1,3.54 -25.6,5.33 -7.8,1.62 -16.6,4 -26.2,4 -13.5,0 -24.2,-4.21 -34.9,-6.39 a 87.42,87.42 0 0 0 -31.2,-0.86 c -11.4,1.72 -20.3,4.76 -31.4,6.65 a 69.13,69.13 0 0 1 -20.4,0.69 c -6.3,-0.76 -13.3,-2.08 -18.9,-0.26 -1.4,0.43 0.7,1.13 2.1,0.7 z"
     id="path11242" />
  <path
     class="cls-5"
     d="m 240.57,444.95 a 12.93,12.93 0 0 1 1.1,4.6 c 0,0.63 3,0.63 3,0 a 14.44,14.44 0 0 0 -1.2,-4.86 c -0.2,-0.63 -3.1,-0.37 -2.9,0.26 z"
     id="path11244" />
  <path
     class="cls-5"
     d="m 247.17,444.16 c 1.2,2.28 2.5,4.6 3.7,6.88 0.3,0.63 3.2,0.37 2.9,-0.26 -1.2,-2.29 -2.5,-4.6 -3.7,-6.89 -0.3,-0.63 -3.2,-0.36 -2.9,0.27 z"
     id="path11246" />
  <path
     class="cls-5"
     d="m 301.87,445.55 a 36.47,36.47 0 0 0 0.7,5.66 c 0.1,0.63 3.1,0.63 3,0 a 27.38,27.38 0 0 1 -0.7,-5.66 c -0.1,-0.63 -3.1,-0.63 -3,0 z"
     id="path11248" />
  <path
     class="cls-5"
     d="m 323.47,445.65 a 30.78,30.78 0 0 0 2.4,6.09 c 0.4,0.63 3.3,0.36 2.9,-0.27 a 34.15,34.15 0 0 1 -2.3,-5.82 c -0.2,-0.63 -3.2,-0.63 -3,0 z"
     id="path11250" />
  <path
     class="cls-5"
     d="m 382.97,442.97 a 7.72,7.72 0 0 0 1.8,4.76 c 0.5,0.63 3.4,0.37 2.9,-0.26 a 7.59,7.59 0 0 1 -1.7,-4.5 c 0,-0.63 -3,-0.63 -3,0 z"
     id="path11252" />
  <path
     class="cls-6"
     d="m 261.47,443.73 a 61.54,61.54 0 0 1 3.1,7.81 c 0.2,0.63 3.2,0.63 3,0 a 65.81,65.81 0 0 0 -3.2,-8.08 c -0.3,-0.63 -3.2,-0.36 -2.9,0.27 z"
     id="path11254" />
  <path
     class="cls-6"
     d="m 312.47,445.35 c 0.5,1.42 1.1,2.85 1.6,4.27 0.3,0.93 0,2.28 1.5,3.08 a 3.73,3.73 0 0 0 2.4,0.1 c 0,0 0.1,0 0.1,-0.07 0.5,-0.2 0.7,-0.53 0,-0.69 h -0.1 c -1.5,-0.43 -3.6,0.3 -2.1,0.7 h 0.1 v -0.69 c 0,0 -0.1,0 -0.1,0.06 l 2.4,0.1 c -1.4,-0.76 -1.1,-2.55 -1.4,-3.37 -0.4,-1.16 -0.9,-2.32 -1.3,-3.48 -0.3,-0.63 -3.3,-0.63 -3.1,0 z"
     id="path11256" />
  <path
     class="cls-5"
     d="m 353.57,444.72 a 12.26,12.26 0 0 0 0.4,4.24 c 0.2,0.63 3.2,0.63 3,0 a 12.26,12.26 0 0 1 -0.4,-4.24 c 0.1,-0.63 -2.9,-0.63 -3,0 z"
     id="path11258" />
  <path
     class="cls-7"
     d="m 253.81,443.96 a 50.62,50.62 0 0 1 6.1,7.91 c 0.4,0.63 3.3,0.37 2.9,-0.26 a 48.45,48.45 0 0 0 -6.1,-7.92 c -0.5,-0.62 -3.4,-0.36 -2.9,0.27 z"
     id="path11260" />
  <path
     class="cls-7"
     d="m 293.87,446.38 a 41.69,41.69 0 0 1 2.6,4.13 c 0.3,0.63 3.2,0.37 2.9,-0.26 a 29.54,29.54 0 0 0 -2.6,-4.14 c -0.5,-0.59 -3.4,-0.33 -2.9,0.27 z"
     id="path11262" />
  <path
     class="cls-7"
     d="m 365.97,442.57 c 0.8,2.38 1.7,4.73 2.5,7.12 0.2,0.63 3.2,0.63 3,0 -0.8,-2.39 -1.7,-4.74 -2.5,-7.12 -0.2,-0.63 -3.2,-0.63 -3,0 z"
     id="path11264" />
  <path
     class="cls-7"
     d="m 390.07,443.5 a 17.11,17.11 0 0 0 1.4,2.81 c 0.4,0.63 3.3,0.36 2.9,-0.26 a 15.75,15.75 0 0 1 -1.3,-2.55 c -0.2,-0.63 -3.2,-0.63 -3,0 z"
     id="path11266" />
  <path
     class="cls-8"
     d="m 269.27,446.18 c 1,1.35 1.9,2.68 2.9,4 0.4,0.63 3.3,0.36 2.9,-0.27 -1,-1.36 -1.9,-2.68 -2.9,-4 -0.5,-0.59 -3.4,-0.33 -2.9,0.27 z"
     id="path11268" />
  <path
     class="cls-8"
     d="m 275.47,447.47 c 0.6,0.43 1.1,0.86 1.7,1.29 a 3.64,3.64 0 0 0 1.9,1 3.78,3.78 0 0 0 1.5,0 c 0.5,-0.1 0.8,-0.2 0.9,-0.39 0.1,-0.19 -0.1,-0.43 -0.7,-0.57 h -0.1 c -1.6,-0.33 -3.1,0.53 -1.5,0.86 h 0.1 c -0.2,-0.2 -0.5,-0.36 -0.7,-0.56 v 0.07 c 0.2,-0.1 0.5,-0.2 0.7,-0.3 -0.1,0 -0.1,0 -0.2,0 h 1.5 c 0.2,0.07 0.2,0 -0.1,-0.13 -0.1,-0.1 -0.3,-0.2 -0.4,-0.3 l -0.6,-0.46 c -0.5,-0.37 -0.9,-0.7 -1.4,-1.06 -0.7,-0.56 -3.3,-0.07 -2.6,0.53 z"
     id="path11270" />
  <path
     class="cls-8"
     d="m 306.81,445.68 c 1.6,2.12 0.4,4.3 2.1,6.42 0.5,0.63 3.4,0.37 2.9,-0.26 -1.8,-2.09 -0.5,-4.31 -2.1,-6.42 -0.5,-0.63 -3.4,-0.37 -2.9,0.26 z"
     id="path11272" />
  <path
     class="cls-8"
     d="m 330.87,446.41 c 0.7,1.22 1.4,2.48 2.1,3.71 0.3,0.63 3.2,0.36 2.9,-0.27 -0.7,-1.22 -1.4,-2.48 -2.1,-3.71 -0.4,-0.62 -3.3,-0.36 -2.9,0.27 z"
     id="path11274" />
  <path
     class="cls-8"
     d="m 359.37,443.4 c 0.3,1.95 -0.4,4.3 1.6,6.19 0.6,0.59 3.5,0.33 2.9,-0.27 -1.9,-1.79 -1.2,-4 -1.5,-5.92 -0.1,-0.63 -3.1,-0.63 -3,0 z"
     id="path11276" />
  <path
     class="cls-8"
     d="m 374.17,442.67 a 19.78,19.78 0 0 0 3.1,6.22 c 0.5,0.63 3.3,0.37 2.9,-0.26 a 20.13,20.13 0 0 1 -3,-6 c -0.1,-0.63 -3.1,-0.63 -3,0 z"
     id="path11278" />
  <path
     d="m 228.87,450.15 a 56.45,56.45 0 0 1 12.6,-5 c 7.5,-1.89 16.1,-1.65 24.4,-0.33 12.7,2.05 22.6,5.66 35.6,7.51 10.1,1.43 22.8,1.89 32.1,-0.39 a 47.13,47.13 0 0 0 10.2,-4 c 4.6,-2.25 9.6,-3.84 17.6,-4.67 16.3,-1.65 34.7,-0.29 47.8,3.25 1.5,0.4 3.6,-0.3 2.1,-0.7 -10.6,-2.84 -24,-4.4 -37.7,-4.2 a 128.54,128.54 0 0 0 -19.7,1.62 46.77,46.77 0 0 0 -13.1,4.4 42,42 0 0 1 -17.6,4.74 104.88,104.88 0 0 1 -23.6,-1.43 c -13.7,-2.35 -24.7,-6.72 -40,-8 a 58.23,58.23 0 0 0 -33.3,6.65 c -1.1,0.56 1.5,1.06 2.6,0.53 z"
     id="path11280" />
  <path
     d="m 226.37,443.03 c 5.9,4 13,8.54 27.1,9.8 14.5,1.29 22.9,-2.58 33.7,-4.93 12.5,-2.72 28.6,-3.41 42.8,-2 7.6,0.76 13.7,2.32 20.5,3.54 a 93.54,93.54 0 0 0 20.3,1.29 c 16.6,-0.76 28.5,-5 39.2,-8.84 1.3,-0.46 -0.8,-1.19 -2.1,-0.69 -12.3,4.5 -29.4,10.39 -49.9,8.27 -8.5,-0.89 -15.3,-3 -23.6,-4.1 a 156.71,156.71 0 0 0 -21.8,-1.13 154.36,154.36 0 0 0 -20.4,1.63 c -7.6,1.16 -13.1,3 -19.7,4.63 a 59.27,59.27 0 0 1 -28,-0.33 c -7.3,-1.95 -11.5,-4.9 -15.5,-7.65 -0.9,-0.56 -3.5,-0.06 -2.6,0.53 z"
     id="path11282" />
  <path
     class="cls-5"
     d="m 242.87,456.79 a 12.88,12.88 0 0 1 1.1,4.6 c 0,0.63 3,0.63 3,0 a 14.55,14.55 0 0 0 -1.2,-4.87 c -0.3,-0.62 -3.2,-0.36 -2.9,0.27 z"
     id="path11284" />
  <path
     class="cls-5"
     d="m 249.47,456.04 c 1.2,2.28 2.5,4.6 3.7,6.88 0.3,0.63 3.2,0.36 2.9,-0.26 -1.2,-2.29 -2.5,-4.61 -3.7,-6.89 -0.4,-0.63 -3.3,-0.36 -2.9,0.27 z"
     id="path11286" />
  <path
     class="cls-5"
     d="m 304.07,457.43 a 36.62,36.62 0 0 0 0.7,5.66 c 0.1,0.63 3.1,0.63 3,0 a 27.47,27.47 0 0 1 -0.7,-5.66 c 0,-0.63 -3,-0.63 -3,0 z"
     id="path11288" />
  <path
     class="cls-5"
     d="m 325.81,457.52 a 30.86,30.86 0 0 0 2.4,6.1 c 0.4,0.62 3.3,0.36 2.9,-0.27 a 33.92,33.92 0 0 1 -2.3,-5.83 c -0.2,-0.62 -3.2,-0.62 -3,0 z"
     id="path11290" />
  <path
     class="cls-5"
     d="m 385.17,454.84 a 7.75,7.75 0 0 0 1.8,4.77 c 0.5,0.63 3.4,0.36 2.9,-0.26 a 7.6,7.6 0 0 1 -1.7,-4.51 c 0,-0.63 -3,-0.63 -3,0 z"
     id="path11292" />
  <path
     class="cls-6"
     d="m 263.67,455.6 a 61.67,61.67 0 0 1 3.1,7.82 c 0.2,0.63 3.2,0.63 3,0 a 65.18,65.18 0 0 0 -3.2,-8.08 c -0.3,-0.63 -3.2,-0.36 -2.9,0.26 z"
     id="path11294" />
  <path
     class="cls-6"
     d="m 314.67,457.23 c 0.5,1.42 1.1,2.84 1.6,4.27 0.3,0.92 0,2.28 1.5,3.08 a 3.73,3.73 0 0 0 2.4,0.1 c 0,0 0.1,0 0.1,-0.07 0.5,-0.2 0.7,-0.53 0,-0.7 h -0.1 c -1.5,-0.43 -3.6,0.3 -2.1,0.7 h 0.1 v -0.7 c 0,0 -0.1,0 -0.1,0.07 l 2.4,0.1 c -1.4,-0.76 -1.1,-2.55 -1.4,-3.38 -0.4,-1.16 -0.9,-2.31 -1.3,-3.47 -0.3,-0.63 -3.3,-0.63 -3.1,0 z"
     id="path11296" />
  <path
     class="cls-5"
     d="m 354.87,456.6 a 12.26,12.26 0 0 0 0.4,4.24 c 0.2,0.62 3.2,0.62 3,0 a 12.26,12.26 0 0 1 -0.4,-4.24 c 0,-0.63 -3,-0.63 -3,0 z"
     id="path11298" />
  <path
     class="cls-7"
     d="m 256.07,455.84 a 50.62,50.62 0 0 1 6.1,7.91 c 0.4,0.63 3.3,0.36 2.9,-0.27 a 48,48 0 0 0 -6.1,-7.91 c -0.6,-0.63 -3.5,-0.36 -2.9,0.27 z"
     id="path11300" />
  <path
     class="cls-7"
     d="m 296.07,458.29 a 41.69,41.69 0 0 1 2.6,4.13 c 0.3,0.63 3.2,0.37 2.9,-0.26 a 29.54,29.54 0 0 0 -2.6,-4.14 c -0.4,-0.63 -3.3,-0.36 -2.9,0.27 z"
     id="path11302" />
  <path
     class="cls-7"
     d="m 368.27,454.45 c 0.8,2.38 1.7,4.73 2.5,7.11 0.2,0.63 3.2,0.63 3,0 -0.8,-2.38 -1.7,-4.73 -2.5,-7.11 -0.3,-0.63 -3.3,-0.63 -3,0 z"
     id="path11304" />
  <path
     class="cls-7"
     d="m 392.37,455.37 a 17.2,17.2 0 0 0 1.4,2.82 c 0.4,0.63 3.3,0.36 2.9,-0.27 a 15.35,15.35 0 0 1 -1.3,-2.55 c -0.3,-0.63 -3.3,-0.63 -3,0 z"
     id="path11306" />
  <path
     class="cls-8"
     d="m 271.47,458.05 c 1,1.36 1.9,2.69 2.9,4 0.4,0.63 3.3,0.37 2.9,-0.26 -1,-1.36 -1.9,-2.68 -2.9,-4 -0.4,-0.6 -3.3,-0.33 -2.9,0.26 z"
     id="path11308" />
  <path
     class="cls-8"
     d="m 277.81,459.35 c 0.6,0.43 1.1,0.86 1.7,1.29 a 3.64,3.64 0 0 0 1.9,1 3.78,3.78 0 0 0 1.5,0 c 0.5,-0.1 0.8,-0.2 0.9,-0.4 0.1,-0.2 -0.1,-0.43 -0.7,-0.56 h -0.1 c -1.6,-0.33 -3.1,0.53 -1.5,0.86 h 0.1 c -0.2,-0.2 -0.5,-0.36 -0.7,-0.56 v 0.06 c 0.2,-0.1 0.5,-0.19 0.7,-0.29 -0.1,0 -0.1,0 -0.2,0 h 1.5 c 0.2,0.07 0.2,0 -0.1,-0.13 -0.1,-0.1 -0.3,-0.2 -0.4,-0.3 -0.1,-0.1 -0.4,-0.3 -0.6,-0.46 -0.5,-0.37 -0.9,-0.7 -1.4,-1.06 -0.8,-0.57 -3.4,-0.07 -2.6,0.53 z"
     id="path11310" />
  <path
     class="cls-8"
     d="m 308.97,457.56 c 1.6,2.12 0.4,4.3 2.1,6.42 0.5,0.63 3.4,0.36 2.9,-0.26 -1.8,-2.09 -0.5,-4.31 -2.1,-6.43 -0.5,-0.63 -3.4,-0.36 -2.9,0.27 z"
     id="path11312" />
  <path
     class="cls-8"
     d="m 333.07,458.29 c 0.7,1.22 1.4,2.48 2.1,3.7 0.3,0.63 3.2,0.37 2.9,-0.26 l -2.1,-3.71 c -0.3,-0.63 -3.2,-0.36 -2.9,0.27 z"
     id="path11314" />
  <path
     class="cls-8"
     d="m 361.67,455.27 c 0.3,2 -0.4,4.31 1.6,6.19 0.6,0.6 3.5,0.34 2.9,-0.26 -1.9,-1.79 -1.2,-4 -1.5,-5.93 -0.1,-0.63 -3.1,-0.63 -3,0 z"
     id="path11316" />
  <path
     class="cls-8"
     d="m 376.47,454.55 a 19.78,19.78 0 0 0 3.1,6.22 c 0.5,0.63 3.3,0.36 2.9,-0.27 a 20.08,20.08 0 0 1 -3,-5.95 c -0.2,-0.63 -3.2,-0.63 -3,0 z"
     id="path11318" />
  <path
     d="m 231.07,462.03 a 56,56 0 0 1 12.6,-5 c 7.5,-1.89 16.1,-1.66 24.4,-0.33 12.7,2 22.6,5.66 35.6,7.51 10.1,1.43 22.8,1.89 32.1,-0.4 a 46.64,46.64 0 0 0 10.2,-4 c 4.6,-2.25 9.6,-3.84 17.6,-4.67 16.3,-1.65 34.7,-0.3 47.8,3.25 1.5,0.39 3.6,-0.3 2.1,-0.7 -10.6,-2.85 -24,-4.4 -37.7,-4.2 a 128.54,128.54 0 0 0 -19.7,1.62 46.45,46.45 0 0 0 -13.1,4.4 41.89,41.89 0 0 1 -17.6,4.73 105.48,105.48 0 0 1 -23.56,-1.45 c -13.7,-2.35 -24.7,-6.72 -40,-8 a 58.22,58.22 0 0 0 -33.3,6.66 c -1,0.56 1.6,1.06 2.6,0.53 z"
     id="path11320" />
  <path
     d="m 228.57,454.91 c 5.9,4 13,8.54 27.1,9.8 14.5,1.29 22.9,-2.58 33.7,-4.93 12.5,-2.72 28.6,-3.41 42.8,-2 7.6,0.76 13.7,2.31 20.5,3.54 a 94.17,94.17 0 0 0 20.3,1.29 c 16.6,-0.76 28.5,-5 39.2,-8.84 1.3,-0.46 -0.8,-1.19 -2.1,-0.69 -12.3,4.5 -29.4,10.39 -49.9,8.27 -8.5,-0.89 -15.3,-3 -23.6,-4.1 a 156.71,156.71 0 0 0 -21.8,-1.13 154.39,154.39 0 0 0 -20.4,1.62 c -7.6,1.16 -13.1,3.05 -19.7,4.64 a 59.4,59.4 0 0 1 -28,-0.33 c -7.3,-2 -11.5,-4.9 -15.5,-7.65 -0.8,-0.56 -3.4,-0.07 -2.6,0.53 z"
     id="path11322" />
  <path
     d="m 223.46,384.96 c -2.85,0.19 -5.77,0.29 -8.63,0.47 -1.82,0.14 -4,-0.08 -5.71,0.46 -3.26,1.09 -2.88,4.35 -2.69,7.21 0.81,11.65 1.52,23.37 1.93,35.06 0.78,22.91 0.54,45.87 -0.57,68.83 a 1.19,1.19 0 0 0 1.37,1.24 c 8,-0.54 16,-1 24.08,-1.54 1.51,-0.08 1.11,-2.4 -0.4,-2.32 -8,0.54 -16,1 -24.08,1.53 0.43,0.44 0.94,0.88 1.37,1.24 q 1.53,-30.66 0.77,-61.32 c -0.22,-9.55 -0.61,-19.11 -1.23,-28.62 -0.14,-2.54 -0.28,-5.07 -0.49,-7.69 -0.16,-2.38 -0.82,-5.27 -0.58,-7.61 0.47,-4.76 3.86,-4 7.27,-4.24 2.61,-0.13 5.3,-0.25 7.92,-0.47 1.57,0 1.18,-2.32 -0.33,-2.23 z"
     id="path11324" />
  <path
     d="m 413.38,395.17 c 4.7,0.38 9.31,0.82 14,1.19 l -1.05,-1.14 a 409.82,409.82 0 0 0 -2,60.37 q 0.54,14.61 2.23,29.1 l 0.83,6.8 c 0.32,2.58 1.5,5.94 -0.12,8.07 -1.62,2.13 -5.34,2.06 -8.12,2.47 l -8.57,1.44 a 1.07,1.07 0 1 0 0.44,2.09 c 5.32,-0.85 11.44,-1.14 16.53,-2.78 3.29,-1.09 3.09,-3.37 2.71,-6.24 -1.29,-11.51 -2.73,-23 -3.32,-34.57 a 405.23,405.23 0 0 1 1.76,-66.56 1.12,1.12 0 0 0 -1.05,-1.15 c -4.69,-0.38 -9.31,-0.82 -14,-1.2 a 1.07,1.07 0 1 0 -0.25,2.11 z"
     id="path11326" />
  <path
     class="cls-7"
     d="m 245.62,478.88 c -0.3,1 0.5,2 1,3 a 13.42,13.42 0 0 1 1.1,3.81 c 0.1,0.63 3.1,0.63 3,0 a 11.34,11.34 0 0 0 -0.7,-3.08 c -0.5,-1.23 -1.7,-2.45 -1.3,-3.68 0.1,-0.66 -2.9,-0.66 -3.1,0 z"
     id="path11328" />
  <path
     class="cls-7"
     d="m 292.02,478.98 c -0.8,2 1,4.3 1.7,6.29 0.2,0.63 3.2,0.63 3,0 -0.3,-1 -0.7,-2 -1,-3 -0.3,-1 -1.2,-2.06 -0.8,-3 0.3,-0.62 -2.6,-0.89 -2.9,-0.26 z"
     id="path11330" />
  <path
     class="cls-7"
     d="m 297.12,478.58 a 42.07,42.07 0 0 1 3.4,6.82 c 0.2,0.63 3.2,0.63 3,0 a 32.54,32.54 0 0 0 -3.5,-7.08 c -0.4,-0.63 -3.3,-0.37 -2.9,0.26 z"
     id="path11332" />
  <path
     class="cls-7"
     d="m 348.52,477.99 c -0.1,2.08 -0.2,4.17 -0.1,6.29 0,0.63 3,0.63 3,0 a 44.1,44.1 0 0 1 0.1,-6.29 c 0,-0.67 -3,-0.67 -3,0 z"
     id="path11334" />
  <path
     class="cls-7"
     d="m 372.12,480.79 v 3.14 c 0,0.63 3,0.63 3,0 v -3.14 c 0,-0.66 -3,-0.66 -3,0 z"
     id="path11336" />
  <path
     class="cls-6"
     d="m 239.62,479.71 a 11.53,11.53 0 0 1 3.8,6 c 0.1,0.63 3.1,0.63 3,0 a 11.64,11.64 0 0 0 -3.9,-6.29 c -0.7,-0.59 -3.6,-0.33 -2.9,0.27 z"
     id="path11338" />
  <path
     class="cls-6"
     d="m 312.72,478.95 a 11,11 0 0 1 2.8,5 c 0.2,0.63 3.2,0.63 3,0 a 12.12,12.12 0 0 0 -2.9,-5.23 c -0.5,-0.59 -3.4,-0.36 -2.9,0.27 z"
     id="path11340" />
  <path
     class="cls-6"
     d="m 316.92,479.51 a 16.46,16.46 0 0 0 2.9,2.78 c 0.8,0.6 3.3,0.07 2.6,-0.5 a 14,14 0 0 1 -2.6,-2.55 c -0.5,-0.62 -3.4,-0.36 -2.9,0.27 z"
     id="path11342" />
  <path
     class="cls-6"
     d="m 358.81,478.79 c 0.5,2.12 0.9,4.24 1.4,6.39 0.1,0.63 3.1,0.63 3,0 -0.5,-2.12 -0.9,-4.24 -1.4,-6.39 -0.2,-0.63 -3.2,-0.63 -3,0 z"
     id="path11344" />
  <path
     class="cls-5"
     d="m 252.62,478.68 a 22.5,22.5 0 0 1 0.2,7.32 c -0.1,0.63 2.9,0.63 3,0 a 22.5,22.5 0 0 0 -0.2,-7.32 c -0.2,-0.63 -3.2,-0.66 -3,0 z"
     id="path11346" />
  <path
     class="cls-5"
     d="m 302.12,478.45 c 3.7,2.15 3.7,4.67 5.5,7 0.5,0.63 3.4,0.36 2.9,-0.27 -1.8,-2.45 -1.9,-5 -5.8,-7.25 -1,-0.56 -3.5,-0.06 -2.6,0.5 z"
     id="path11348" />
  <path
     class="cls-6"
     d="m 354.32,477.85 a 14.38,14.38 0 0 1 0.2,7.42 c -0.1,0.63 2.9,0.63 3,0 a 16.9,16.9 0 0 0 -0.2,-7.42 c -0.1,-0.62 -3.1,-0.62 -3,0 z"
     id="path11350" />
  <path
     class="cls-5"
     d="m 377.22,481.1 a 2.17,2.17 0 0 0 -0.2,1.75 c 0.2,0.63 3.2,0.63 3,0 a 2.54,2.54 0 0 1 0.1,-1.49 c 0.1,-0.26 -0.2,-0.53 -1,-0.59 -0.8,-0.06 -1.8,0.06 -1.9,0.33 z"
     id="path11352" />
  <path
     class="cls-8"
     d="m 234.12,480.57 a 11.33,11.33 0 0 1 4.6,4.27 c 0.3,0.63 3.2,0.36 2.9,-0.27 a 12.85,12.85 0 0 0 -4.9,-4.5 c -1,-0.53 -3.5,0 -2.6,0.5 z"
     id="path11354" />
  <path
     class="cls-8"
     d="m 263.22,481.13 a 13.83,13.83 0 0 1 1.6,2.88 c 0.3,0.63 3.3,0.63 3,0 a 16.14,16.14 0 0 0 -1.7,-3.14 c -0.4,-0.63 -3.3,-0.37 -2.9,0.26 z"
     id="path11356" />
  <path
     class="cls-8"
     d="m 268.22,482.16 1.2,0.69 a 3.9,3.9 0 0 0 2.1,0.17 c 0.7,-0.13 1,-0.46 0.5,-0.7 l -1.2,-0.69 a 3.9,3.9 0 0 0 -2.1,-0.17 c -0.6,0.17 -0.9,0.47 -0.5,0.7 z"
     id="path11358" />
  <path
     class="cls-8"
     d="m 307.72,477.99 c 1.3,2.15 2.7,4.33 4,6.49 0.4,0.62 3.3,0.36 2.9,-0.27 -1.3,-2.15 -2.7,-4.34 -4,-6.49 -0.4,-0.59 -3.3,-0.33 -2.9,0.27 z"
     id="path11360" />
  <path
     class="cls-8"
     d="m 364.42,479.05 a 24,24 0 0 1 2.8,5.56 c 0.2,0.63 3.2,0.63 3,0 a 26.05,26.05 0 0 0 -3,-5.83 c -0.3,-0.63 -3.2,-0.36 -2.8,0.27 z"
     id="path11362" />
  <path
     class="cls-8"
     d="m 342.52,478.19 a 9,9 0 0 0 0.3,5.13 c 0.2,0.63 3.2,0.63 3,0 a 10,10 0 0 1 -0.3,-5.13 c 0.2,-0.63 -2.8,-0.63 -3,0 z"
     id="path11364" />
  <path
     class="cls-8"
     d="m 337.92,479.01 a 6.93,6.93 0 0 0 0.6,2.78 c 0.2,0.63 3.2,0.63 3,0 a 6.93,6.93 0 0 1 -0.6,-2.78 c 0,-0.63 -3,-0.63 -3,0 z"
     id="path11366" />
  <path
     class="cls-8"
     d="m 288.22,480.17 a 11,11 0 0 0 0.8,4.67 c 0.2,0.63 3.2,0.63 3,0 a 10.89,10.89 0 0 1 -0.8,-4.67 c 0,-0.63 -3,-0.63 -3,0 z"
     id="path11368" />
  <path
     class="cls-6"
     d="m 258.02,479.84 c 0.1,1.76 0.3,3.48 0.4,5.23 0,0.63 3,0.63 3,0 -0.1,-1.75 -0.3,-3.47 -0.4,-5.23 -0.1,-0.63 -3.1,-0.66 -3,0 z"
     id="path11370" />
  <path
     class="cls-5"
     d="m 229.81,481.6 c 0.9,1 1.8,1.95 2.7,2.91 0.6,0.59 3.5,0.36 2.9,-0.27 l -2.7,-2.91 c -0.5,-0.6 -3.4,-0.36 -2.9,0.27 z"
     id="path11372" />
  <path
     class="cls-5"
     d="m 282.72,481.93 a 3.45,3.45 0 0 0 0.3,2 c 0.1,0.27 0.6,0.5 1.5,0.5 0.7,0 1.6,-0.23 1.5,-0.5 a 3.45,3.45 0 0 1 -0.3,-2 c 0.1,-0.63 -2.9,-0.63 -3,0 z"
     id="path11374" />
  <path
     class="cls-5"
     d="m 332.32,480.07 c 0.6,0.4 1.2,0.76 1.8,1.16 0.9,0.56 3.5,0.07 2.6,-0.5 l -1.8,-1.15 c -0.9,-0.57 -3.5,-0.07 -2.6,0.49 z"
     id="path11376" />
  <path
     class="cls-5"
     d="m 394.02,480.54 1.2,2.08 c 0.4,0.63 3.2,0.37 2.9,-0.26 l -1.2,-2.09 c -0.4,-0.63 -3.3,-0.36 -2.9,0.27 z"
     id="path11378" />
  <path
     class="cls-5"
     d="m 408.02,477.52 a 27.79,27.79 0 0 0 2.5,5 c 0.4,0.63 3.3,0.37 2.9,-0.26 a 25.46,25.46 0 0 1 -2.4,-4.74 c -0.3,-0.63 -3.3,-0.63 -3,0 z"
     id="path11380" />
  <path
     class="cls-6"
     d="m 390.81,482.19 h 0.6 c 0.8,0 1.5,-0.23 1.5,-0.5 0,-0.27 -0.7,-0.49 -1.5,-0.49 h -0.6 c -0.8,0 -1.5,0.23 -1.5,0.49 0,0.26 0.7,0.5 1.5,0.5 z"
     id="path11382" />
  <path
     class="cls-6"
     d="m 412.12,477.16 a 19.13,19.13 0 0 0 2,4.8 c 0.4,0.63 3.3,0.36 2.9,-0.27 a 14.33,14.33 0 0 1 -1.9,-4.53 c -0.2,-0.63 -3.2,-0.63 -3,0 z"
     id="path11384" />
  <path
     class="cls-7"
     d="m 398.12,479.79 a 4.13,4.13 0 0 1 1.3,2.88 c 0,0.63 3,0.63 3,0 a 4.39,4.39 0 0 0 -1.4,-3.14 c -0.6,-0.63 -3.5,-0.37 -2.9,0.26 z"
     id="path11386" />
  <path
     class="cls-8"
     d="m 402.72,478.72 c 1.8,1.48 0.3,3.17 2.4,4.66 0.8,0.57 3.4,0.07 2.6,-0.49 -2,-1.36 -0.4,-3 -2.1,-4.41 -0.7,-0.63 -3.6,-0.36 -2.9,0.24 z"
     id="path11388" />
  <path
     d="m 227.62,484.31 c 1.5,-2.28 6.2,-4 12.9,-4.83 a 80.24,80.24 0 0 1 21.7,0.82 c 12.9,2.06 24,5.63 38.8,6.06 14,0.4 21.9,-3.18 31.1,-6 a 65.3,65.3 0 0 1 23.2,-2.45 212.65,212.65 0 0 1 23.4,3.18 c 12.5,2.12 28.1,4.07 40.8,1.06 1.5,-0.36 0.1,-1.22 -1.5,-0.86 -15,3.61 -32.5,-0.33 -46.5,-2.52 -12.6,-2 -26.3,-3 -38.2,0 -5.3,1.36 -9.5,3.12 -14.6,4.54 a 66.55,66.55 0 0 1 -24.7,1.56 c -15,-1.59 -26.4,-6 -42.3,-6.72 -12.2,-0.6 -24.3,1.85 -27,5.92 -0.4,0.56 2.4,0.83 2.9,0.2 z"
     id="path11390" />
  <path
     d="m 225.72,485.87 c 5.6,-1.83 15.3,0.76 21.8,1 a 74.79,74.79 0 0 0 14.4,-0.9 c 11.2,-1.65 20.1,-4.6 30.8,-6.52 a 83.63,83.63 0 0 1 18.9,-1.39 94.69,94.69 0 0 1 17.6,2.92 c 9.2,2.21 19,5.33 31.1,5.36 8.8,0 16.4,-1.79 23.6,-3.28 l 29.8,-6.19 c 1.6,-0.33 0.1,-1.19 -1.5,-0.86 -8.5,1.79 -17.1,3.54 -25.6,5.33 -7.8,1.62 -16.6,4 -26.2,4 -13.5,0 -24.2,-4.21 -34.9,-6.39 a 87.42,87.42 0 0 0 -31.2,-0.86 c -11.4,1.72 -20.3,4.76 -31.4,6.65 a 69.47,69.47 0 0 1 -20.4,0.7 c -6.3,-0.77 -13.3,-2.09 -18.9,-0.27 -1.4,0.46 0.7,1.16 2.1,0.7 z"
     id="path11392" />
  <path
     d="m 115.91,445.39 59.37,-3.7 a 1.0084146,1.0084146 0 0 0 0.26,-2 27.2,27.2 0 0 1 -12.8,-9.76 l -1.57,1.21 a 59.44,59.44 0 0 0 17.4,11.47 v -1.73 a 83.82,83.82 0 0 0 -18.18,12.22 c -1,0.85 0.45,2.26 1.42,1.41 a 81.67,81.67 0 0 1 17.77,-11.9 1,1 0 0 0 0,-1.73 57.68,57.68 0 0 1 -17,-11.15 c -0.78,-0.74 -2.26,0.25 -1.57,1.21 a 29.48,29.48 0 0 0 14,10.68 l 0.27,-2 -59.37,3.7 c -1.28,0.08 -1.29,2.08 0,2 z"
     id="path11444" />
  <metadata
     id="metadata26675">
    <rdf:RDF>
      <cc:Work
         rdf:about="">
        <dc:title>temporal_data</dc:title>
      </cc:Work>
    </rdf:RDF>
  </metadata>
</svg>
