<?xml version="1.0" encoding="UTF-8" standalone="no"?>
<svg
   viewBox="0 0 1320 599.99997"
   version="1.1"
   id="svg11729"
   sodipodi:docname="5.svg"
   inkscape:version="1.3.2 (1:1.3.2+202311252150+091e20ef0f)"
   width="1320"
   height="600"
   xmlns:inkscape="http://www.inkscape.org/namespaces/inkscape"
   xmlns:sodipodi="http://sodipodi.sourceforge.net/DTD/sodipodi-0.dtd"
   xmlns="http://www.w3.org/2000/svg"
   xmlns:svg="http://www.w3.org/2000/svg"
   xmlns:rdf="http://www.w3.org/1999/02/22-rdf-syntax-ns#"
   xmlns:cc="http://creativecommons.org/ns#"
   xmlns:dc="http://purl.org/dc/elements/1.1/">
  <sodipodi:namedview
     id="namedview11731"
     pagecolor="#ffffff"
     bordercolor="#000000"
     borderopacity="0.25"
     inkscape:showpageshadow="2"
     inkscape:pageopacity="0.0"
     inkscape:pagecheckerboard="0"
     inkscape:deskcolor="#d1d1d1"
     showgrid="false"
     inkscape:zoom="0.45357127"
     inkscape:cx="826.77193"
     inkscape:cy="324.0946"
     inkscape:window-width="1223"
     inkscape:window-height="779"
     inkscape:window-x="57"
     inkscape:window-y="21"
     inkscape:window-maximized="1"
     inkscape:current-layer="svg11729" />
  <defs
     id="defs10265">
    <style
       id="style10254">.cls-1,.cls-10,.cls-11,.cls-12,.cls-13,.cls-15,.cls-17,.cls-24,.cls-25,.cls-26{fill:none;}.cls-14,.cls-2,.cls-22{fill:#1f77b4;}.cls-2,.cls-3,.cls-4{opacity:0.3;}.cls-16,.cls-20,.cls-3{fill:#ff7f0e;}.cls-18,.cls-23,.cls-4{fill:#2ca02c;}.cls-5{fill:#c1272d;}.cls-6{fill:#fcee21;}.cls-7{fill:blue;}.cls-8{fill:#8cc63f;}.cls-9{clip-path:url(#clip-path);}.cls-10,.cls-15{stroke:#ff7f0e;}.cls-10,.cls-11,.cls-12,.cls-25{stroke-linejoin:round;}.cls-10,.cls-11,.cls-12{stroke-dasharray:3.7 1.6;}.cls-11,.cls-13{stroke:#1f77b4;}.cls-12,.cls-17{stroke:#2ca02c;}.cls-13,.cls-15,.cls-17,.cls-24,.cls-26{stroke-miterlimit:10;}.cls-14,.cls-16,.cls-18{opacity:0.5;}.cls-19{clip-path:url(#clip-path-13);}.cls-21{clip-path:url(#clip-path-14);}.cls-24{stroke:#820303;stroke-width:2px;}.cls-25,.cls-26{stroke:#000;stroke-width:3px;}.cls-26{stroke-linecap:square;}</style>
    <clipPath
       id="clip-path"
       transform="translate(-16.19 -7.21)">
      <rect
         class="cls-1"
         x="831.64001"
         y="138"
         width="285.54001"
         height="354.03"
         id="rect10256" />
    </clipPath>
    <clipPath
       id="clip-path-13"
       transform="translate(-16.19 -7.21)">
      <rect
         class="cls-1"
         x="831.64001"
         y="140"
         width="285.54001"
         height="354.03"
         id="rect10259" />
    </clipPath>
    <clipPath
       id="clip-path-14"
       transform="translate(-16.19 -7.21)">
      <rect
         class="cls-1"
         x="831.64001"
         y="136"
         width="285.54001"
         height="354.03"
         id="rect10262" />
    </clipPath>
  </defs>
  <title
     id="title10267">temporal_data</title>
  <rect
     class="cls-24"
     x="350.79001"
     y="96.57"
     width="10.02"
     height="427.13"
     id="rect11446" />
  <metadata
     id="metadata27596">
    <rdf:RDF>
      <cc:Work
         rdf:about="">
        <dc:title>temporal_data</dc:title>
      </cc:Work>
    </rdf:RDF>
  </metadata>
  <path
     d="m 314.77,533.6 1.18,17.85 c 0.25,3.77 -0.51,9.78 1.23,13.12 a 1.52,1.52 0 0 0 2.36,0.3 l 0.16,-0.15 a 1.54,1.54 0 0 0 0,-2.12 l -0.1,-0.12 c -1.24,-1.49 -3.36,0.65 -2.13,2.12 l 0.11,0.12 v -2.12 l -0.16,0.15 2.35,0.31 c -0.92,-1.77 -0.43,-5.66 -0.56,-7.64 l -0.46,-6.94 -1,-14.88 c -0.13,-1.91 -3.13,-1.93 -3,0 z"
     id="path98" />
  <path
     d="m 321.31,555.3 c -0.55,3.9 -0.11,9.57 4.88,10.08 5.57,0.58 7.34,-6.34 7.46,-10.57 0.11,-3.87 0.18,-11.87 -5.18,-12.54 -5.7,-0.71 -7.17,8.92 -8.07,12.69 -0.45,1.88 2.44,2.68 2.89,0.8 0.5,-2.09 1,-4.19 1.72,-6.23 0.72,-2.04 3.32,-5 5,-2 0.69,1.27 0.58,3.17 0.64,4.57 a 17,17 0 0 1 -0.73,7.16 5,5 0 0 1 -2,2.81 l -3.17,-0.91 c -1,-0.88 -0.62,-4.05 -0.48,-5.09 0.27,-1.89 -2.62,-2.7 -2.89,-0.8 z"
     id="path99" />
  <path
     d="M 345.77,547.3 A 4.35,4.35 0 0 0 340,544.73 c -3.54,1.37 -4.33,6 -4.72,9.29 -0.39,3.29 -0.87,8.09 2.61,10 3.09,1.71 6.79,0.66 9.19,-1.68 1.39,-1.34 -0.73,-3.46 -2.12,-2.12 -2.1,2 -5.53,2.73 -6.83,-1.19 a 11,11 0 0 1 0,-3.62 22.42,22.42 0 0 1 0.73,-4.37 9.28,9.28 0 0 1 0.77,-2.1 c 0.67,-1.55 1.75,-1.84 3.24,-0.85 0.69,1.78 3.59,1 2.89,-0.8 z"
     id="path100" />
  <path
     d="m 349.7,544.63 a 56.27,56.27 0 0 0 -1.31,14 c 0.15,2.58 0.87,5.64 3.79,6.25 8,1.64 7.77,-14 8.36,-18.31 l -2.95,-0.4 a 45.43,45.43 0 0 0 -0.53,9.67 c 0.2,2.1 0.29,5.31 1.51,7 0.58,0.81 2.1,1.13 2.59,0 l 0.07,-0.15 a 1.55,1.55 0 0 0 -0.54,-2.05 h -0.09 a 1.5,1.5 0 0 0 -1.51,2.59 l 0.08,0.05 -0.53,-2.05 -0.07,0.14 h 2.59 c -1.31,-1.85 -1.23,-5.76 -1.23,-7.95 a 63,63 0 0 1 0.66,-7.24 c 0.19,-1.66 -2.72,-2.07 -2.94,-0.4 q -0.56,4.06 -1.09,8.11 c -0.17,1.26 -0.48,7.11 -2.14,7.41 l -2.85,-1.1 a 12.73,12.73 0 0 1 -0.19,-2.54 c 0,-1.27 0.05,-2.56 0.12,-3.82 a 59.4,59.4 0 0 1 1.09,-8.4 c 0.38,-1.88 -2.51,-2.69 -2.89,-0.79 z"
     id="path101" />
  <path
     d="m 371.59,547.56 c -1.27,-4.69 -8.24,-3.51 -9.25,0.83 -0.49,2.11 1.16,3.71 2.71,4.81 2,1.38 4.34,2.38 5.29,4.73 0.71,1.75 0.54,4.34 -1.73,4 -1.57,-0.23 -2.65,-2 -3.19,-3.33 -0.75,-1.77 -3.34,-0.24 -2.59,1.52 1.82,4.28 8.29,7.52 10.42,1.79 a 7.25,7.25 0 0 0 -1.35,-7.23 14,14 0 0 0 -3.41,-2.82 c -0.69,-0.45 -2.33,-1.11 -2.73,-1.87 -1,-1.95 2.51,-3.18 2.94,-1.62 a 1.5,1.5 0 0 0 2.89,-0.8 z"
     id="path102" />
  <path
     d="m 390.2,555.48 c 1.24,-2.19 13.41,-23.21 3.76,-22.61 -3.74,0.24 -4,7.23 -4.3,9.77 -0.92,7.25 -1,14.66 -1.45,22 a 1.49,1.49 0 0 0 1.5,1.5 9.9,9.9 0 0 0 7.76,-4.74 c 1.05,-1.62 -1.54,-3.13 -2.59,-1.51 a 6.14,6.14 0 0 1 -5.17,3.25 l 1.5,1.5 c 0.42,-7.22 0.48,-14.59 1.45,-21.76 0,-0.26 0.77,-5.19 1,-5.16 1.77,0.32 0.07,4.45 -0.23,5.32 -1.35,3.84 -3.81,7.43 -5.81,11 a 1.5015409,1.5015409 0 0 0 2.59,1.52 z"
     id="path103" />
</svg>
