<?xml version="1.0" encoding="UTF-8" standalone="no"?>
<svg
   viewBox="0 0 1088.51 544.53"
   version="1.1"
   id="svg11729"
   sodipodi:docname="6.svg"
   inkscape:version="1.2.2 (1:1.2.2+202212051552+b0a8486541)"
   xmlns:inkscape="http://www.inkscape.org/namespaces/inkscape"
   xmlns:sodipodi="http://sodipodi.sourceforge.net/DTD/sodipodi-0.dtd"
   xmlns="http://www.w3.org/2000/svg"
   xmlns:svg="http://www.w3.org/2000/svg"
   xmlns:rdf="http://www.w3.org/1999/02/22-rdf-syntax-ns#"
   xmlns:cc="http://creativecommons.org/ns#"
   xmlns:dc="http://purl.org/dc/elements/1.1/">
  <sodipodi:namedview
     id="namedview11731"
     pagecolor="#ffffff"
     bordercolor="#000000"
     borderopacity="0.25"
     inkscape:showpageshadow="2"
     inkscape:pageopacity="0.0"
     inkscape:pagecheckerboard="0"
     inkscape:deskcolor="#d1d1d1"
     showgrid="false"
     inkscape:zoom="0.43340126"
     inkscape:cx="545.68369"
     inkscape:cy="272.26501"
     inkscape:window-width="1223"
     inkscape:window-height="779"
     inkscape:window-x="57"
     inkscape:window-y="21"
     inkscape:window-maximized="1"
     inkscape:current-layer="Layer_2" />
  <defs
     id="defs10265">
    <style
       id="style10254">.cls-1,.cls-10,.cls-11,.cls-12,.cls-13,.cls-15,.cls-17,.cls-24,.cls-25,.cls-26{fill:none;}.cls-14,.cls-2,.cls-22{fill:#1f77b4;}.cls-2,.cls-3,.cls-4{opacity:0.3;}.cls-16,.cls-20,.cls-3{fill:#ff7f0e;}.cls-18,.cls-23,.cls-4{fill:#2ca02c;}.cls-5{fill:#c1272d;}.cls-6{fill:#fcee21;}.cls-7{fill:blue;}.cls-8{fill:#8cc63f;}.cls-9{clip-path:url(#clip-path);}.cls-10,.cls-15{stroke:#ff7f0e;}.cls-10,.cls-11,.cls-12,.cls-25{stroke-linejoin:round;}.cls-10,.cls-11,.cls-12{stroke-dasharray:3.7 1.6;}.cls-11,.cls-13{stroke:#1f77b4;}.cls-12,.cls-17{stroke:#2ca02c;}.cls-13,.cls-15,.cls-17,.cls-24,.cls-26{stroke-miterlimit:10;}.cls-14,.cls-16,.cls-18{opacity:0.5;}.cls-19{clip-path:url(#clip-path-13);}.cls-21{clip-path:url(#clip-path-14);}.cls-24{stroke:#820303;stroke-width:2px;}.cls-25,.cls-26{stroke:#000;stroke-width:3px;}.cls-26{stroke-linecap:square;}</style>
    <clipPath
       id="clip-path"
       transform="translate(-16.19 -7.21)">
      <rect
         class="cls-1"
         x="831.64"
         y="138"
         width="285.54"
         height="354.03"
         id="rect10256" />
    </clipPath>
    <clipPath
       id="clip-path-13"
       transform="translate(-16.19 -7.21)">
      <rect
         class="cls-1"
         x="831.64"
         y="140"
         width="285.54"
         height="354.03"
         id="rect10259" />
    </clipPath>
    <clipPath
       id="clip-path-14"
       transform="translate(-16.19 -7.21)">
      <rect
         class="cls-1"
         x="831.64"
         y="136"
         width="285.54"
         height="354.03"
         id="rect10262" />
    </clipPath>
  </defs>
  <title
     id="title10267">temporal_data</title>
  <g
     id="Layer_2"
     data-name="Layer 2">
    <rect
       class="cls-2"
       x="580.33"
       y="130.25"
       width="58.87"
       height="26.54"
       id="rect10275" />
    <rect
       class="cls-3"
       x="580.33"
       y="167.25"
       width="58.87"
       height="26.54"
       id="rect10277" />
    <rect
       class="cls-4"
       x="580.33"
       y="204.25"
       width="58.87"
       height="26.54"
       id="rect10279" />
    <rect
       class="cls-2"
       x="580.33"
       y="260.25"
       width="58.87"
       height="26.54"
       id="rect10281" />
    <rect
       class="cls-3"
       x="580.33"
       y="297.25"
       width="58.87"
       height="26.54"
       id="rect10283" />
    <rect
       class="cls-4"
       x="580.33"
       y="334.25"
       width="58.87"
       height="26.54"
       id="rect10285" />
    <rect
       class="cls-2"
       x="580.33"
       y="390.25"
       width="58.87"
       height="26.54"
       id="rect10287" />
    <rect
       class="cls-3"
       x="580.33"
       y="427.25"
       width="58.87"
       height="26.54"
       id="rect10289" />
    <rect
       class="cls-4"
       x="580.33"
       y="464.25"
       width="58.87"
       height="26.54"
       id="rect10291" />
  </g>
  <path
     d="m 583.46,124.96 c -2.85,0.19 -5.77,0.29 -8.63,0.47 -1.82,0.14 -4,-0.08 -5.71,0.46 -3.26,1.09 -2.88,4.35 -2.69,7.21 0.81,11.65 1.52,23.37 1.93,35.06 0.78,22.91 0.54,45.87 -0.57,68.83 a 1.19,1.19 0 0 0 1.37,1.24 c 8,-0.54 16,-1 24.08,-1.54 1.51,-0.08 1.11,-2.4 -0.4,-2.32 -8,0.54 -16,1 -24.08,1.53 0.43,0.44 0.94,0.88 1.37,1.24 q 1.53,-30.66 0.77,-61.32 c -0.22,-9.55 -0.61,-19.11 -1.23,-28.62 -0.14,-2.54 -0.28,-5.07 -0.49,-7.69 -0.16,-2.38 -0.82,-5.27 -0.58,-7.61 0.47,-4.76 3.86,-4 7.27,-4.24 2.61,-0.13 5.3,-0.25 7.92,-0.47 1.57,0 1.18,-2.32 -0.33,-2.23 z"
     id="path11448" />
  <path
     d="m 634.38,126.17 c 4.7,0.38 9.31,0.82 14,1.19 l -1.05,-1.14 a 409.82,409.82 0 0 0 -2,60.37 q 0.54,14.61 2.23,29.1 l 0.83,6.8 c 0.32,2.58 1.5,5.94 -0.12,8.07 -1.62,2.13 -5.34,2.06 -8.12,2.47 l -8.57,1.44 a 1.07,1.07 0 1 0 0.44,2.09 c 5.32,-0.85 11.44,-1.14 16.53,-2.78 3.29,-1.09 3.09,-3.37 2.71,-6.24 -1.29,-11.51 -2.73,-23 -3.32,-34.57 a 405.23,405.23 0 0 1 1.76,-66.56 1.12,1.12 0 0 0 -1,-1.15 c -4.69,-0.38 -9.31,-0.82 -14,-1.2 a 1.07,1.07 0 1 0 -0.25,2.11 z"
     id="path11450" />
  <path
     d="m 586.03,142.57 c -2.9,3.69 -1.1,9.1 3.22,10.85 5.81,2.36 12.67,-2.74 15,-7.9 2.38,-5.35 -1.45,-10 -6.83,-10.87 a 12.43,12.43 0 0 0 -13.19,7.14 c -0.77,1.75 1.81,3.28 2.59,1.52 a 9.3,9.3 0 0 1 6.2,-5.41 c 3,-0.83 8.66,-0.15 9,4 0.31,3.78 -4.22,7.68 -7.43,8.72 -2,0.65 -4.15,0.58 -5.69,-1 -1.26,-1.25 -2,-3.36 -0.74,-4.93 1.26,-1.57 -0.93,-3.63 -2.12,-2.12 z"
     id="path11452" />
  <path
     d="m 615.13,132.61 a 43,43 0 0 0 -10.32,20.67 c -0.37,1.89 2.52,2.69 2.89,0.8 a 40.06,40.06 0 0 1 9.53,-19.35 c 1.28,-1.44 -0.83,-3.56 -2.12,-2.12 z"
     id="path11454" />
  <path
     d="m 621.31,140.79 c 0.26,-1.71 0.77,-4.37 2.64,-5 1.27,-0.44 1.26,0.77 1.29,2.07 a 11.58,11.58 0 0 1 -0.64,3.5 c -1,3.42 -3.38,6.26 -5.72,8.88 a 1.52,1.52 0 0 0 0.67,2.51 65.53,65.53 0 0 0 14.12,1 c 1.93,-0.07 1.94,-3.07 0,-3 a 62,62 0 0 1 -13.33,-0.9 l 0.66,2.5 c 3.85,-4.31 9.48,-11.82 6.9,-18.07 -0.91,-2.21 -3.15,-2.37 -5.14,-1.38 -2.68,1.33 -3.92,4.31 -4.34,7.1 -0.28,1.89 2.61,2.7 2.89,0.8 z"
     id="path11456" />
  <path
     d="m 595.92,175.18 a 5.87,5.87 0 0 1 1.7,-1.63 c 3.42,0.55 4.43,1.66 3.05,3.33 a 5,5 0 0 1 -3,2.87 l 0.8,2.89 c 2.37,-1 4.47,1.92 2.44,4.18 -1.27,1.41 -3.58,1.25 -5.18,0.9 -1.6,-0.35 -6.1,-1.56 -6.06,-3.79 0,-1.93 -3,-1.93 -3,0 -0.06,3.2 2.76,4.64 5.4,5.71 3.24,1.31 7.21,2.27 10.24,-0.08 4.81,-3.72 1.6,-12.33 -4.64,-9.81 a 1.5,1.5 0 0 0 0.8,2.89 c 3.67,-0.77 7.28,-6.34 5.28,-10 -2.28,-4.12 -7.54,-2.6 -10,0.38 -1.21,1.49 0.9,3.62 2.12,2.12 z"
     id="path11458" />
  <path
     d="m 615.18,170.29 a 103.84,103.84 0 0 0 -8.73,19.24 1.52,1.52 0 0 0 1.45,1.9 v 0 a 1.51,1.51 0 0 0 1.45,-1.9 v -0.05 c -0.55,-1.85 -3.44,-1.06 -2.89,0.8 v 0 l 1.45,-1.9 v 0 l 1.44,1.9 a 99.76,99.76 0 0 1 8.46,-18.49 1.5015409,1.5015409 0 0 0 -2.59,-1.52 z"
     id="path11460" />
  <path
     d="m 623.09,175 c 2.55,-0.85 3.12,-0.16 1.73,2.07 a 4,4 0 0 1 -3.06,0.9 v 3 c 2.65,-0.16 8.63,1.54 6.17,5.57 -0.93,1.51 -9.65,2.63 -9.92,0.07 -0.21,-1.9 -3.21,-1.92 -3,0 0.29,2.75 2.29,4.32 5,4.46 2.93,0.15 7.74,0.21 9.87,-2.22 a 6.32,6.32 0 0 0 0.29,-7.48 c -1.85,-2.79 -5.3,-3.59 -8.45,-3.4 a 1.5,1.5 0 0 0 0,3 c 4,0 8.42,-3.38 6.24,-7.74 a 4.17,4.17 0 0 0 -7.8,1 c -0.42,1.88 2.47,2.69 2.89,0.8 z"
     id="path11462" />
  <path
     d="m 595.2,306.13 c -0.2,-1.71 0.45,-4 2.76,-4 2.84,-0.08 3,3.41 1.83,5.25 -1.17,1.84 -3.88,2.93 -5.72,4.21 -2.64,1.84 -4.51,4.3 -4.36,7.62 a 1.52,1.52 0 0 0 1.5,1.5 l 13.4,-0.41 c 1.93,-0.06 1.93,-3.06 0,-3 l -13.4,0.41 1.5,1.5 c -0.29,-6.39 16.14,-9.41 10,-17.6 -3.79,-5.09 -11.22,-1.4 -10.55,4.55 0.21,1.89 3.21,1.91 3,0 z"
     id="path11464" />
  <path
     d="m 612.81,298.95 q -2.68,10.54 -6.35,20.77 c -0.65,1.82 2.25,2.6 2.9,0.79 q 3.66,-10.23 6.34,-20.76 c 0.47,-1.87 -2.42,-2.67 -2.89,-0.8 z"
     id="path11466" />
  <path
     d="m 621.07,304.57 c 1,-1.22 0.94,-1.77 2.6,-0.92 1.39,0.16 1.65,0.73 0.78,1.72 a 2.39,2.39 0 0 1 -2.14,2 1.5,1.5 0 0 0 0.4,2.94 c 3.78,0.5 5.79,4.8 1.88,7.06 -2.74,1.57 -6.17,0.77 -6.69,-2.66 -0.3,-1.9 -3.19,-1.09 -2.9,0.8 1,6.57 9.08,7 13.13,2.88 4.73,-4.85 0,-10.36 -5.42,-11.08 l 0.4,2.95 c 3.46,-1 5.9,-4.77 4.37,-8.35 -1.92,-4.47 -6.33,-2.28 -8.53,0.52 -1.18,1.5 0.93,3.64 2.12,2.12 z"
     id="path11468" />
  <path
     d="m 590.07,214.59 c -2,5.54 -1,11.58 5.12,14 4.9,2 10.39,-4.8 11.7,-9 1.56,-5 -2.14,-11.19 -7.05,-12.78 -6.28,-2 -8.13,5.73 -9.61,10 -0.63,1.83 2.27,2.62 2.89,0.8 0.45,-1.31 0.88,-2.64 1.36,-4 0.87,-2.38 1,-3.41 3.7,-3.41 4.55,0 7.43,5.75 5.27,9.73 -1.32,2.43 -4.71,6.5 -7.83,5.43 -4.44,-1.53 -3.84,-6.8 -2.65,-10.1 0.65,-1.82 -2.25,-2.6 -2.9,-0.8 z"
     id="path11470" />
  <path
     d="m 615.04,206.31 -4.49,19.56 c -0.43,1.88 2.46,2.68 2.89,0.79 l 4.5,-19.56 c 0.43,-1.88 -2.46,-2.68 -2.9,-0.79 z"
     id="path11472" />
  <path
     d="m 622.81,219.44 a 13,13 0 0 0 5.65,-4.58 c 1.67,-2.55 1.09,-5.29 2.33,-7.9 l -2.8,-0.76 a 54.24,54.24 0 0 1 -0.71,10.8 c -0.48,3 -0.31,7.83 -4.19,7.52 -1.7,-0.13 -2,2.54 -0.4,3 a 19.52,19.52 0 0 0 7.46,0.49 c 1.9,-0.23 1.92,-3.24 0,-3 a 17.66,17.66 0 0 1 -6.67,-0.38 l -0.39,2.94 c 5.06,0.4 5.25,-0.33 6.26,-5.27 a 67.73,67.73 0 0 0 1.64,-16.05 c 0,-1.38 -2.12,-2.18 -2.79,-0.75 -0.87,1.83 -0.7,3.53 -1.2,5.46 -0.75,2.89 -3.11,4.76 -5.7,5.94 -1.76,0.8 -0.23,3.38 1.51,2.59 z"
     id="path11474" />
  <path
     d="m 593.68,480.57 a 13.77,13.77 0 0 0 6.6,-12.6 1.5,1.5 0 0 0 -3,0 v 15.1 c 0,2.39 0.1,3.33 -2.62,3.27 -1.94,0 -1.9,2.87 0,3 1.9,0.13 3.87,0.35 5.83,0.68 1.96,0.33 2.7,-2.59 0.79,-2.9 -2.2,-0.36 -4.39,-0.62 -6.62,-0.78 v 3 a 14.19,14.19 0 0 0 4.37,-0.21 1.5,1.5 0 0 0 1,-1 c 0.64,-2.79 0.2,-6.12 0.2,-9 v -11.16 h -3 a 10.75,10.75 0 0 1 -5.11,10 c -1.64,1 -0.14,3.61 1.51,2.59 z"
     id="path11476" />
  <path
     d="m 611.86,466.25 c -1.5,7.34 -2.62,14.9 -5.49,21.86 -0.67,1.62 1.87,2.52 2.74,1.15 l 0.63,-1 c 1,-1.64 -1.56,-3.14 -2.59,-1.52 l -0.63,1 2.75,1.15 c 2.86,-6.95 4,-14.52 5.48,-21.85 0.39,-1.88 -2.5,-2.69 -2.89,-0.8 z"
     id="path11478" />
  <path
     d="m 620.22,482.55 a 18.56,18.56 0 0 0 6.9,-14.58 c 0,-1.94 -2.89,-1.91 -3,0 l -0.67,11.38 c -0.09,1.57 0,3.33 -0.29,4.88 -0.41,2.57 -0.51,2.66 -3.06,2.64 v 3 h 7.6 a 1.5,1.5 0 0 0 0,-3 h -7.6 a 1.5,1.5 0 0 0 0,3 c 3.39,0 5.47,0.52 5.92,-3.2 0.74,-6.16 0.73,-12.51 1.1,-18.7 h -3 a 15.76,15.76 0 0 1 -6,12.46 c -1.5,1.22 0.63,3.33 2.12,2.12 z"
     id="path11480" />
  <path
     d="m 583.46,254.96 c -2.85,0.19 -5.77,0.29 -8.63,0.47 -1.82,0.14 -4,-0.08 -5.71,0.46 -3.26,1.09 -2.88,4.35 -2.69,7.21 0.81,11.65 1.52,23.37 1.93,35.06 0.78,22.91 0.54,45.87 -0.57,68.83 a 1.19,1.19 0 0 0 1.37,1.24 c 8,-0.54 16,-1 24.08,-1.54 1.51,-0.08 1.11,-2.4 -0.4,-2.32 -8,0.54 -16,1 -24.08,1.53 0.43,0.44 0.94,0.88 1.37,1.24 q 1.53,-30.66 0.77,-61.32 c -0.22,-9.55 -0.61,-19.11 -1.23,-28.62 -0.14,-2.54 -0.28,-5.07 -0.49,-7.69 -0.16,-2.38 -0.82,-5.27 -0.58,-7.61 0.47,-4.76 3.86,-4 7.27,-4.24 2.61,-0.13 5.3,-0.25 7.92,-0.47 1.57,0 1.18,-2.32 -0.33,-2.23 z"
     id="path11482" />
  <path
     d="m 634.38,256.17 c 4.7,0.38 9.31,0.82 14,1.19 l -1.05,-1.14 a 409.82,409.82 0 0 0 -2,60.37 q 0.54,14.61 2.23,29.1 l 0.83,6.8 c 0.32,2.58 1.5,5.94 -0.12,8.07 -1.62,2.13 -5.34,2.06 -8.12,2.47 l -8.57,1.44 a 1.07,1.07 0 1 0 0.44,2.09 c 5.32,-0.85 11.44,-1.14 16.53,-2.78 3.29,-1.09 3.09,-3.37 2.71,-6.24 -1.29,-11.51 -2.73,-23 -3.32,-34.57 a 405.23,405.23 0 0 1 1.76,-66.56 1.12,1.12 0 0 0 -1,-1.15 c -4.69,-0.38 -9.31,-0.82 -14,-1.2 a 1.07,1.07 0 1 0 -0.25,2.11 z"
     id="path11484" />
  <path
     d="m 586.03,272.57 c -2.9,3.69 -1.1,9.1 3.22,10.85 5.81,2.36 12.67,-2.74 15,-7.9 2.38,-5.35 -1.45,-10 -6.83,-10.87 a 12.43,12.43 0 0 0 -13.19,7.14 c -0.77,1.75 1.81,3.28 2.59,1.52 a 9.3,9.3 0 0 1 6.2,-5.41 c 3,-0.83 8.66,-0.15 9,4 0.31,3.78 -4.22,7.68 -7.43,8.72 -2,0.65 -4.15,0.58 -5.69,-1 -1.26,-1.25 -2,-3.36 -0.74,-4.93 1.26,-1.57 -0.93,-3.63 -2.12,-2.12 z"
     id="path11486" />
  <path
     d="m 615.13,262.61 a 43,43 0 0 0 -10.32,20.67 c -0.37,1.89 2.52,2.69 2.89,0.8 a 40.06,40.06 0 0 1 9.53,-19.35 c 1.28,-1.44 -0.83,-3.56 -2.12,-2.12 z"
     id="path11488" />
  <path
     d="m 621.31,270.79 c 0.26,-1.71 0.77,-4.37 2.64,-5 1.27,-0.44 1.26,0.77 1.29,2.07 a 11.58,11.58 0 0 1 -0.64,3.5 c -1,3.42 -3.38,6.26 -5.72,8.88 a 1.52,1.52 0 0 0 0.67,2.51 65.53,65.53 0 0 0 14.12,1 c 1.93,-0.07 1.94,-3.07 0,-3 a 62,62 0 0 1 -13.33,-0.9 l 0.66,2.5 c 3.85,-4.31 9.48,-11.82 6.9,-18.07 -0.91,-2.21 -3.15,-2.37 -5.14,-1.38 -2.68,1.33 -3.92,4.31 -4.34,7.1 -0.28,1.89 2.61,2.7 2.89,0.8 z"
     id="path11490" />
  <path
     d="m 583.46,384.96 c -2.85,0.19 -5.77,0.29 -8.63,0.47 -1.82,0.14 -4,-0.08 -5.71,0.46 -3.26,1.09 -2.88,4.35 -2.69,7.21 0.81,11.65 1.52,23.37 1.93,35.06 0.78,22.91 0.54,45.87 -0.57,68.83 a 1.19,1.19 0 0 0 1.37,1.24 c 8,-0.54 16,-1 24.08,-1.54 1.51,-0.08 1.11,-2.4 -0.4,-2.32 -8,0.54 -16,1 -24.08,1.53 0.43,0.44 0.94,0.88 1.37,1.24 q 1.53,-30.66 0.77,-61.32 c -0.22,-9.55 -0.61,-19.11 -1.23,-28.62 -0.14,-2.54 -0.28,-5.07 -0.49,-7.69 -0.16,-2.38 -0.82,-5.27 -0.58,-7.61 0.47,-4.76 3.86,-4 7.27,-4.24 2.61,-0.13 5.3,-0.25 7.92,-0.47 1.57,0 1.18,-2.32 -0.33,-2.23 z"
     id="path11492" />
  <path
     d="m 634.38,386.17 c 4.7,0.38 9.31,0.82 14,1.19 l -1.05,-1.14 a 409.82,409.82 0 0 0 -2,60.37 q 0.54,14.61 2.23,29.1 l 0.83,6.8 c 0.32,2.58 1.5,5.94 -0.12,8.07 -1.62,2.13 -5.34,2.06 -8.12,2.47 l -8.57,1.44 a 1.07,1.07 0 1 0 0.44,2.09 c 5.32,-0.85 11.44,-1.14 16.53,-2.78 3.29,-1.09 3.09,-3.37 2.71,-6.24 -1.29,-11.51 -2.73,-23 -3.32,-34.57 a 405.23,405.23 0 0 1 1.76,-66.56 1.12,1.12 0 0 0 -1,-1.15 c -4.69,-0.38 -9.31,-0.82 -14,-1.2 a 1.07,1.07 0 1 0 -0.25,2.11 z"
     id="path11494" />
  <path
     d="m 586.03,402.57 c -2.9,3.69 -1.1,9.1 3.22,10.85 5.81,2.36 12.67,-2.74 15,-7.9 2.38,-5.35 -1.45,-10 -6.83,-10.87 a 12.43,12.43 0 0 0 -13.19,7.14 c -0.77,1.75 1.81,3.28 2.59,1.52 a 9.3,9.3 0 0 1 6.2,-5.41 c 3,-0.83 8.66,-0.15 9,4 0.31,3.78 -4.22,7.68 -7.43,8.72 -2,0.65 -4.15,0.58 -5.69,-1 -1.26,-1.25 -2,-3.36 -0.74,-4.93 1.26,-1.57 -0.93,-3.63 -2.12,-2.12 z"
     id="path11496" />
  <path
     d="m 615.13,392.61 a 43,43 0 0 0 -10.32,20.67 c -0.37,1.89 2.52,2.69 2.89,0.8 a 40.06,40.06 0 0 1 9.53,-19.35 c 1.28,-1.44 -0.83,-3.56 -2.12,-2.12 z"
     id="path11498" />
  <path
     d="m 621.31,400.79 c 0.26,-1.71 0.77,-4.37 2.64,-5 1.27,-0.44 1.26,0.77 1.29,2.07 a 11.58,11.58 0 0 1 -0.64,3.5 c -1,3.42 -3.38,6.26 -5.72,8.88 a 1.52,1.52 0 0 0 0.67,2.51 65.53,65.53 0 0 0 14.12,1 c 1.93,-0.07 1.94,-3.07 0,-3 a 62,62 0 0 1 -13.33,-0.9 l 0.66,2.5 c 3.85,-4.31 9.48,-11.82 6.9,-18.07 -0.91,-2.21 -3.15,-2.37 -5.14,-1.38 -2.68,1.33 -3.92,4.31 -4.34,7.1 -0.28,1.89 2.61,2.7 2.89,0.8 z"
     id="path11500" />
  <path
     d="m 592.91,442.91 a 15.57,15.57 0 0 0 7.27,-11.88 c 0.21,-1.93 -2.77,-1.89 -3,0 q -1.17,9.4 -1.68,18.87 l 1.5,-1.5 a 8.31,8.31 0 0 0 -3.92,1.15 1.52,1.52 0 0 0 0.76,2.8 l 6.16,0.07 c 1.93,0 1.93,-3 0,-3 l -6.16,-0.07 0.76,2.79 2.4,-0.74 a 1.55,1.55 0 0 0 1.5,-1.5 q 0.51,-9.47 1.68,-18.87 h -3 a 12.31,12.31 0 0 1 -5.79,9.29 c -1.61,1.05 -0.11,3.65 1.52,2.59 z"
     id="path11502" />
  <path
     d="m 611.81,429.48 a 142.94,142.94 0 0 1 -6.67,21.9 c -0.71,1.79 2.19,2.57 2.89,0.8 a 144.1,144.1 0 0 0 6.68,-21.9 c 0.41,-1.88 -2.48,-2.68 -2.9,-0.8 z"
     id="path11504" />
  <path
     d="m 622.08,434.56 q 4.47,-1.87 2.71,2.09 a 6,6 0 0 1 -3.14,2.29 c -1.2,0.47 -1.63,2.64 0,2.89 2.46,0.38 5.37,2.21 4.36,5.22 -1.62,4.81 -6.81,1.56 -7.93,-1.25 -0.71,-1.77 -3.61,-1 -2.89,0.8 1.9,4.76 8.17,8.33 12.37,3.67 4.2,-4.66 0,-10.54 -5.11,-11.33 v 2.85 c 4,-1.56 8,-6.15 4.53,-10.36 -2.73,-3.27 -8.25,-1.23 -7.9,3.09 0.15,1.91 3.16,1.93 3,0 z"
     id="path11506" />
  <path
     d="m 590.07,344.59 c -2,5.54 -1,11.58 5.12,14 4.9,2 10.39,-4.8 11.7,-9 1.56,-5 -2.14,-11.19 -7.05,-12.78 -6.28,-2 -8.13,5.73 -9.61,10 -0.63,1.83 2.27,2.62 2.89,0.8 0.45,-1.31 0.88,-2.64 1.36,-3.95 0.87,-2.38 1,-3.41 3.7,-3.41 4.55,0 7.43,5.75 5.27,9.73 -1.32,2.43 -4.71,6.5 -7.83,5.43 -4.44,-1.53 -3.84,-6.8 -2.65,-10.1 0.65,-1.82 -2.25,-2.6 -2.9,-0.8 z"
     id="path11508" />
  <path
     d="m 615.04,336.31 -4.49,19.56 c -0.43,1.88 2.46,2.68 2.89,0.79 l 4.5,-19.56 c 0.43,-1.88 -2.46,-2.68 -2.9,-0.79 z"
     id="path11510" />
  <path
     d="m 622.81,349.44 a 13,13 0 0 0 5.65,-4.58 c 1.67,-2.55 1.09,-5.29 2.33,-7.9 l -2.8,-0.76 a 54.24,54.24 0 0 1 -0.71,10.8 c -0.48,3 -0.31,7.83 -4.19,7.52 -1.7,-0.13 -2,2.54 -0.4,2.95 a 19.52,19.52 0 0 0 7.46,0.49 c 1.9,-0.23 1.92,-3.24 0,-3 a 17.66,17.66 0 0 1 -6.67,-0.38 l -0.39,2.94 c 5.06,0.4 5.25,-0.33 6.26,-5.27 a 67.73,67.73 0 0 0 1.64,-16 c 0,-1.38 -2.12,-2.18 -2.79,-0.75 -0.87,1.83 -0.7,3.53 -1.2,5.46 -0.75,2.89 -3.11,4.76 -5.7,5.94 -1.76,0.8 -0.23,3.38 1.51,2.59 z"
     id="path11512" />
  <path
     d="m 477.17,189.17 54.44,-0.07 a 1,1 0 0 0 0.71,-1.71 34.8,34.8 0 0 0 -11.51,-9.46 l -0.5,1.86 a 32.57,32.57 0 0 1 16.9,6.23 l -0.2,-1.57 a 55.57,55.57 0 0 1 -18,12.15 c -1.18,0.5 -0.17,2.22 1,1.72 a 56.65,56.65 0 0 0 18.35,-12.46 1,1 0 0 0 -0.2,-1.57 34.43,34.43 0 0 0 -17.91,-6.5 1,1 0 0 0 -0.51,1.87 33.8,33.8 0 0 1 11.17,9.13 l 0.7,-1.71 -54.44,0.07 a 1,1 0 0 0 0,2 z"
     id="path11514" />
  <path
     d="m 479.42,312.96 54.9,-0.19 c 1.1,0 1.41,-1.75 0.27,-2 a 26.73,26.73 0 0 1 -11.78,-5.21 l -1,1.67 a 82.36,82.36 0 0 1 17.62,6 v -1.73 a 56.52,56.52 0 0 1 -13.17,4.64 c -1.25,0.28 -0.72,2.2 0.54,1.93 a 59.4,59.4 0 0 0 13.64,-4.84 1,1 0 0 0 0,-1.73 84.91,84.91 0 0 0 -18.1,-6.21 c -0.87,-0.19 -1.82,1 -1,1.68 a 28.84,28.84 0 0 0 12.63,5.75 l 0.26,-2 -54.9,0.19 a 1,1 0 0 0 0,2 z"
     id="path11516" />
  <path
     d="m 474.91,445.39 59.37,-3.7 a 1.0084146,1.0084146 0 0 0 0.26,-2 27.2,27.2 0 0 1 -12.8,-9.76 l -1.57,1.21 a 59.44,59.44 0 0 0 17.4,11.47 v -1.73 a 83.82,83.82 0 0 0 -18.18,12.22 c -1,0.85 0.45,2.26 1.42,1.41 a 81.67,81.67 0 0 1 17.77,-11.9 1,1 0 0 0 0,-1.73 57.68,57.68 0 0 1 -17,-11.15 c -0.78,-0.74 -2.26,0.25 -1.57,1.21 a 29.48,29.48 0 0 0 14,10.68 l 0.27,-2 -59.37,3.7 c -1.28,0.08 -1.29,2.08 0,2 z"
     id="path11518" />
  <path
     d="m 505.97,13.79 c -0.7,8.22 -5,16.32 -7,24.32 -2,8 -3.43,16.12 -4.86,24.24 l 2.95,0.4 -0.13,-1.39 c -0.18,-1.9 -3.18,-1.92 -3,0 l 0.13,1.39 c 0.15,1.54 2.63,2.19 3,0.4 1.53,-8.72 3.06,-17.45 5.3,-26 2,-7.73 6,-15.36 6.66,-23.35 0.16,-1.93 -2.84,-1.92 -3,0 z"
     id="path11562" />
  <path
     d="m 506.07,17.7 6.6,43.43 c 0.27,1.72 2.9,1.22 2.95,-0.4 l 0.2,-0.57 c 1,-1.64 -1.56,-3.14 -2.59,-1.51 a 3.29,3.29 0 0 0 -0.61,2.08 l 3,-0.4 -6.61,-43.43 c -0.29,-1.9 -3.18,-1.09 -2.89,0.8 z"
     id="path11564" />
  <path
     d="m 499.44,46.36 a 65.6,65.6 0 0 1 14,-1.52 1.5,1.5 0 0 0 0,-3 69,69 0 0 0 -14.82,1.63 c -1.89,0.41 -1.09,3.3 0.79,2.89 z"
     id="path11566" />
  <path
     d="m 519.41,14.09 -0.26,48.11 a 1.5,1.5 0 0 0 3,0 l 0.26,-48.11 a 1.5,1.5 0 0 0 -3,0 z"
     id="path11568" />
  <path
     d="m 526.22,15 a 153.19,153.19 0 0 1 0.23,23.66 c -0.52,7.78 1.34,15.38 -0.26,23.09 -0.39,1.89 2.5,2.69 2.89,0.8 1.54,-7.44 -0.18,-14.46 0.23,-21.92 A 176.82,176.82 0 0 0 529.22,15 c -0.16,-1.9 -3.17,-1.92 -3,0 z"
     id="path11570" />
  <path
     d="m 532.43,48.89 c 5.65,-0.22 14.84,-2.7 13.58,-10.33 a 6.11,6.11 0 0 0 -10.85,-2.88 c -4,4.85 -4.65,15.06 -2.25,20.69 2.49,5.83 9.48,7.48 14.83,4.67 1.71,-0.9 0.19,-3.49 -1.52,-2.59 a 7.51,7.51 0 0 1 -9,-1.19 c -2.41,-2.47 -2.52,-6.18 -2.41,-9.47 0,-1.42 0.25,-8.42 2,-9.09 l 5.59,3.25 a 6.27,6.27 0 0 1 -3.86,2.93 17.26,17.26 0 0 1 -6.09,1 c -1.92,0.08 -1.93,3.08 0,3 z"
     id="path11572" />
  <path
     d="m 552.15,12.23 c -3,6.26 -1.36,14.73 -1.27,21.47 l 0.39,27.27 c 0,1.93 3,1.94 3,0 L 553.94,37.6 553.81,25.91 c -0.05,-3.88 -0.77,-8.55 1,-12.16 0.84,-1.73 -1.75,-3.26 -2.59,-1.52 z"
     id="path11574" />
  <path
     d="m 559.23,51.6 c 5.69,-1.81 12.58,-6.81 9.85,-13.81 -2.11,-5.46 -8.41,-4.84 -10.48,0.21 -1.32,3.22 -1.48,7.38 -1.84,10.81 -0.36,3.43 -0.27,7 1.63,9.9 3,4.59 9.17,5.34 12.51,0.87 1.16,-1.55 -1.45,-3 -2.59,-1.51 -4.11,5.5 -8.43,-2 -8.72,-5.35 a 33.7,33.7 0 0 1 0.66,-7.42 l 0.46,-3.14 q 0,-4.53 5.64,0.17 c 0.32,3.34 -5.63,5.61 -7.92,6.35 -1.83,0.59 -1,3.49 0.8,2.89 z"
     id="path11576" />
  <path
     d="m 650.88,36.37 a 29.64,29.64 0 0 0 0,15.83 c 0.94,3.26 3,9.25 6.8,10.15 9.22,2.16 6.51,-20.41 5.63,-24.51 -0.35,-1.63 -3.07,-1.3 -2.95,0.4 q 0.88,12.09 2.86,24 c 0.31,1.9 3.2,1.09 2.89,-0.8 Q 664.2,49.88 663.36,38.19 l -2.94,0.4 a 42.28,42.28 0 0 1 1,10.64 c -0.08,1.65 0,4 -0.64,5.54 0.16,1.56 -0.58,2.33 -2.21,2.3 q -2,1.71 -2.62,-0.6 c -1.72,-1.45 -2.46,-5.88 -2.82,-8.07 a 26.84,26.84 0 0 1 0.68,-11.23 1.5,1.5 0 0 0 -2.89,-0.8 z"
     id="path11578" />
  <path
     d="m 670.81,50.79 c 5.46,-0.8 11,-5 9.25,-11.23 a 5.92,5.92 0 0 0 -9.83,-2.87 c -7.59,7 -3.35,31.34 9.71,25.27 1.75,-0.81 0.23,-3.39 -1.51,-2.59 -2.44,1.14 -5.23,-0.46 -6.57,-2.35 a 12.66,12.66 0 0 1 -1.82,-4 19.41,19.41 0 0 1 -0.11,-9.4 10.32,10.32 0 0 1 1.22,-3.24 4.46,4.46 0 0 1 3.2,-2.39 l 2.82,2.4 c 0.57,2 -0.91,5.08 -2.62,6.23 a 11.14,11.14 0 0 1 -4.54,1.31 c -1.9,0.27 -1.09,3.16 0.8,2.89 z"
     id="path11580" />
  <path
     d="m 681.27,36.54 a 209.51,209.51 0 0 0 1.59,24 c 0.24,1.89 3.24,1.91 3,0 a 209.51,209.51 0 0 1 -1.59,-24 1.5,1.5 0 0 0 -3,0 z"
     id="path11582" />
  <path
     d="m 684.81,44.45 c 0.5,-2.1 1.95,-6.41 4.44,-7 2,-0.49 3.84,1.85 4.32,3.42 a 28.17,28.17 0 0 1 0.83,5 91.13,91.13 0 0 1 0.23,16.6 c -0.12,1.73 2.47,2 3,0.4 L 698.2,61 c 0.57,-1.85 -2.33,-2.64 -2.89,-0.8 l -0.57,1.87 2.94,0.4 a 91.19,91.19 0 0 0 -0.47,-18.54 c -0.39,-2.94 -0.94,-6.63 -3.38,-8.66 -5.5,-4.59 -10.79,3.9 -11.86,8.41 -0.45,1.87 2.44,2.67 2.89,0.79 z"
     id="path11584" />
  <path
     d="m 711.81,39.64 a 5,5 0 0 0 -7,-4.28 c -4.37,1.57 -5.82,6.75 -5.71,10.9 0.12,4.5 0.95,11.14 4.53,14.36 3.31,3 6.79,1.72 9.3,-1.41 1.19,-1.49 -0.91,-3.63 -2.12,-2.12 q -1.08,2.22 -3.59,0.27 c -2.3,0.26 -3.52,-0.69 -3.67,-2.87 a 29.44,29.44 0 0 1 -0.83,-3.55 26.44,26.44 0 0 1 -0.65,-5.53 l 0.37,-2.93 q 1,-5.22 6.34,-2.84 c 0.24,1.89 3.25,1.91 3,0 z"
     id="path11586" />
  <path
     d="m 714.04,35.48 c -0.2,4.61 -3.55,30.55 6.78,29 3.83,-0.58 6.44,-6.55 7.51,-9.71 a 25,25 0 0 0 -0.29,-16.61 c -0.65,-1.79 -3.39,-1.1 -2.89,0.79 1.65,6.34 1.36,12.71 0.74,19.17 -0.26,2.72 -0.58,5.44 -0.79,8.17 -0.29,3.74 -1.65,14.54 -7.89,8.63 -1.4,-1.33 -3.52,0.78 -2.12,2.12 4.69,4.44 11.39,1.61 12.52,-4.49 1,-5.52 1.07,-11.54 1.53,-17.15 a 51,51 0 0 0 -1.1,-17.24 l -2.89,0.79 a 22.27,22.27 0 0 1 1,12.2 21.74,21.74 0 0 1 -1.72,5.14 c -1.1,2.24 -1.89,4.45 -4.52,3.85 -6,-1.37 -3.12,-20.1 -2.92,-24.66 0.08,-1.93 -2.92,-1.93 -3,0 z"
     id="path11588" />
  <path
     d="m 583.47,19.16 1.27,40.74 c 0.06,1.92 3.06,1.93 3,0 l -1.27,-40.74 c -0.06,-1.93 -3.06,-1.93 -3,0 z"
     id="path11590" />
  <path
     d="m 583.65,21.24 22.15,0.7 c 1.93,0.06 1.93,-2.94 0,-3 l -22.15,-0.7 c -1.93,-0.06 -1.93,2.94 0,3 z"
     id="path11592" />
  <path
     d="m 584.91,35.23 a 56.37,56.37 0 0 0 14.32,1 c 1.91,-0.12 1.93,-3.12 0,-3 a 52.4,52.4 0 0 1 -13.52,-0.88 c -1.89,-0.37 -2.7,2.52 -0.8,2.9 z"
     id="path11594" />
  <path
     d="m 604.04,43.79 c 0.45,-1.06 0.88,-2.69 2,-3.24 1.7,-0.87 0.14,-0.29 1.53,0.14 1.17,0.36 1.76,1 3.09,1 a 5.85,5.85 0 0 0 5.37,-3.56 l -2.59,-1.51 c -2.76,6.39 -5.6,13.15 -5.07,20.27 0.47,6.36 3.14,5.29 8.43,3.78 a 1.51,1.51 0 0 0 -0.8,-2.9 c -3,0.87 -4.5,2.52 -4.69,-1.68 a 24.7,24.7 0 0 1 0.54,-6 63.07,63.07 0 0 1 4.18,-12 c 0.74,-1.73 -1.74,-3.28 -2.59,-1.51 -2.16,4.46 -4.55,-0.53 -7.28,-0.18 -2.25,0.28 -4,4.17 -4.69,5.83 -0.69,1.66 1.82,3.29 2.59,1.52 z"
     id="path11596" />
  <path
     d="m 622.68,49.62 c 5.22,0.5 8.82,-4.89 8.63,-9.7 -0.19,-4.81 -4.89,-7.2 -8,-3 -3.59,4.76 -4.88,14.12 -2.75,19.68 1.79,4.68 6.81,7.49 10.8,3.46 a 1.5,1.5 0 0 0 -2.12,-2.12 l -4.41,0.11 -1.11,-1.64 a 12.25,12.25 0 0 1 -1.1,-4.89 25,25 0 0 1 1.12,-7.73 c 0.25,-0.92 0.5,-1.86 0.83,-2.75 l 0.91,-2.07 2.83,1 c 1.57,3 -3.07,6.95 -5.63,6.7 -1.92,-0.19 -1.91,2.81 0,3 z"
     id="path11598" />
  <path
     d="m 648.04,43.9 c 0.27,-5.16 -4.12,-10.2 -9.59,-7.87 -5.68,2.42 -5.58,9.87 -4.77,14.93 0.73,4.55 3.9,11.57 9.86,9.44 5.96,-2.13 4.38,-13.17 4.17,-17.8 -0.08,-1.92 -3,-1.94 -3,0 l 0.88,38.19 c 0,1.93 3,1.94 3,0 l -0.88,-38.22 h -3 c 0.12,2.64 0.21,5.3 0.08,7.95 a 32.29,32.29 0 0 1 -0.36,4.16 q -6,3.47 -6.93,-0.89 c -1.16,-2.1 -1.3,-5.22 -1.27,-7.53 a 10,10 0 0 1 1.11,-5.28 q 8.57,-3 7.7,2.89 c -0.1,1.93 2.9,1.92 3,0 z"
     id="path11600" />
  <metadata
     id="metadata29805">
    <rdf:RDF>
      <cc:Work
         rdf:about="">
        <dc:title>temporal_data</dc:title>
      </cc:Work>
    </rdf:RDF>
  </metadata>
</svg>
