<?xml version="1.0" encoding="UTF-8" standalone="no"?>
<svg
   viewBox="0 0 1088.51 544.53"
   version="1.1"
   id="svg11729"
   sodipodi:docname="7.svg"
   inkscape:version="1.2.2 (1:1.2.2+202212051552+b0a8486541)"
   xmlns:inkscape="http://www.inkscape.org/namespaces/inkscape"
   xmlns:sodipodi="http://sodipodi.sourceforge.net/DTD/sodipodi-0.dtd"
   xmlns="http://www.w3.org/2000/svg"
   xmlns:svg="http://www.w3.org/2000/svg"
   xmlns:rdf="http://www.w3.org/1999/02/22-rdf-syntax-ns#"
   xmlns:cc="http://creativecommons.org/ns#"
   xmlns:dc="http://purl.org/dc/elements/1.1/">
  <sodipodi:namedview
     id="namedview11731"
     pagecolor="#ffffff"
     bordercolor="#000000"
     borderopacity="0.25"
     inkscape:showpageshadow="2"
     inkscape:pageopacity="0.0"
     inkscape:pagecheckerboard="0"
     inkscape:deskcolor="#d1d1d1"
     showgrid="false"
     inkscape:zoom="0.43340126"
     inkscape:cx="545.68369"
     inkscape:cy="272.26501"
     inkscape:window-width="1223"
     inkscape:window-height="779"
     inkscape:window-x="57"
     inkscape:window-y="21"
     inkscape:window-maximized="1"
     inkscape:current-layer="Layer_2" />
  <defs
     id="defs10265">
    <style
       id="style10254">.cls-1,.cls-10,.cls-11,.cls-12,.cls-13,.cls-15,.cls-17,.cls-24,.cls-25,.cls-26{fill:none;}.cls-14,.cls-2,.cls-22{fill:#1f77b4;}.cls-2,.cls-3,.cls-4{opacity:0.3;}.cls-16,.cls-20,.cls-3{fill:#ff7f0e;}.cls-18,.cls-23,.cls-4{fill:#2ca02c;}.cls-5{fill:#c1272d;}.cls-6{fill:#fcee21;}.cls-7{fill:blue;}.cls-8{fill:#8cc63f;}.cls-9{clip-path:url(#clip-path);}.cls-10,.cls-15{stroke:#ff7f0e;}.cls-10,.cls-11,.cls-12,.cls-25{stroke-linejoin:round;}.cls-10,.cls-11,.cls-12{stroke-dasharray:3.7 1.6;}.cls-11,.cls-13{stroke:#1f77b4;}.cls-12,.cls-17{stroke:#2ca02c;}.cls-13,.cls-15,.cls-17,.cls-24,.cls-26{stroke-miterlimit:10;}.cls-14,.cls-16,.cls-18{opacity:0.5;}.cls-19{clip-path:url(#clip-path-13);}.cls-21{clip-path:url(#clip-path-14);}.cls-24{stroke:#820303;stroke-width:2px;}.cls-25,.cls-26{stroke:#000;stroke-width:3px;}.cls-26{stroke-linecap:square;}</style>
    <clipPath
       id="clip-path"
       transform="translate(-16.19 -7.21)">
      <rect
         class="cls-1"
         x="831.64"
         y="138"
         width="285.54"
         height="354.03"
         id="rect10256" />
    </clipPath>
    <clipPath
       id="clip-path-13"
       transform="translate(-16.19 -7.21)">
      <rect
         class="cls-1"
         x="831.64"
         y="140"
         width="285.54"
         height="354.03"
         id="rect10259" />
    </clipPath>
    <clipPath
       id="clip-path-14"
       transform="translate(-16.19 -7.21)">
      <rect
         class="cls-1"
         x="831.64"
         y="136"
         width="285.54"
         height="354.03"
         id="rect10262" />
    </clipPath>
  </defs>
  <title
     id="title10267">temporal_data</title>
  <g
     id="Layer_2"
     data-name="Layer 2" />
  <g
     class="cls-9"
     clip-path="url(#clip-path)"
     id="g10552">
    <polyline
       class="cls-10"
       points="928.82 201.6 926.63 201.68 924.44 201.78 922.24 202.04 920.05 202.12 917.86 202.32 915.66 202.42 913.47 202.51 911.28 202.66 909.08 202.85 906.89 202.99 904.7 203.14 902.5 203.38 900.31 203.5 898.11 203.61 895.92 203.69 893.73 203.76 891.53 203.81 889.34 203.96 887.15 204.03 884.37 204.11"
       id="polyline10550" />
  </g>
  <g
     class="cls-9"
     clip-path="url(#clip-path)"
     id="g10556">
    <polyline
       class="cls-11"
       points="884.37 214.92 886.57 214.84 888.76 214.74 890.95 214.48 893.15 214.4 895.34 214.2 897.53 214.1 899.73 214.01 901.92 213.86 904.12 213.67 906.31 213.53 908.5 213.38 910.7 213.15 912.89 213.02 915.08 212.91 917.28 212.83 919.47 212.76 921.66 212.71 923.86 212.56 926.05 212.49 928.82 212.41"
       id="polyline10554" />
  </g>
  <g
     class="cls-9"
     clip-path="url(#clip-path)"
     id="g10560">
    <polyline
       class="cls-12"
       points="1032.07 294.57 1029.88 294.65 1027.68 294.75 1025.49 295 1023.3 295.09 1021.11 295.29 1018.91 295.39 1016.72 295.48 1014.52 295.63 1012.33 295.82 1010.14 295.95 1007.94 296.11 1005.75 296.34 1003.56 296.46 1001.36 296.58 999.17 296.66 996.98 296.73 994.78 296.78 992.59 296.93 990.39 297 988.2 297.08 986.01 297.14 983.81 297.17 981.62 297.2 979.43 297.2 977.23 297.18 975.04 297.14 972.85 297.06 970.65 297.03 968.46 296.95 966.26 296.8 964.07 296.7 961.88 296.59 959.68 296.48 957.49 296.4 955.3 296.22 953.1 296.12 950.91 296 948.72 295.82 946.52 295.72 944.33 295.57 942.13 295.27 939.94 295.09 937.75 294.79 935.55 294.67 933.36 294.51 931.17 294.38 928.97 294.17 926.78 293.85 924.59 293.67 922.39 293.45 920.2 293.36 918.01 293.23 915.81 293.05 913.62 292.87 911.42 292.67 909.23 292.6 907.04 292.53 904.84 292.47 902.65 292.42 900.46 292.35 898.26 292.21 896.07 292.12 893.88 292.03 891.68 291.99 889.49 291.94 887.29 291.94 884.37 291.93"
       id="polyline10558" />
  </g>
  <g
     class="cls-9"
     clip-path="url(#clip-path)"
     id="g10564">
    <polyline
       class="cls-11"
       points="884.37 306.89 886.57 306.81 888.76 306.71 890.95 306.45 893.15 306.37 895.34 306.17 897.53 306.07 899.73 305.98 901.92 305.82 904.12 305.64 906.31 305.5 908.5 305.35 910.7 305.11 912.89 304.99 915.08 304.88 917.28 304.8 919.47 304.73 921.66 304.67 923.86 304.53 926.05 304.46 928.24 304.38 930.44 304.31 932.63 304.28 934.83 304.25 937.02 304.26 939.21 304.28 941.41 304.31 943.6 304.39 945.79 304.42 947.99 304.5 950.18 304.66 952.37 304.76 954.57 304.86 956.76 304.97 958.95 305.06 961.15 305.24 963.34 305.34 965.53 305.45 967.73 305.64 969.92 305.74 972.12 305.89 974.31 306.18 976.5 306.37 978.7 306.67 980.89 306.79 983.08 306.95 985.28 307.08 987.47 307.29 989.66 307.6 991.86 307.79 994.05 308.01 996.25 308.09 998.44 308.23 1000.63 308.41 1002.83 308.58 1005.02 308.79 1007.21 308.86 1009.41 308.93 1011.6 308.99 1013.79 309.04 1015.99 309.11 1018.18 309.24 1020.38 309.33 1022.57 309.43 1024.76 309.47 1026.96 309.51 1029.15 309.52 1032.07 309.53"
       id="polyline10562" />
  </g>
  <g
     class="cls-9"
     clip-path="url(#clip-path)"
     id="g10568">
    <polyline
       class="cls-12"
       points="1032.07 383.53 1029.88 383.62 1027.68 383.71 1025.49 383.97 1023.3 384.06 1021.11 384.25 1018.91 384.35 1016.72 384.45 1014.52 384.6 1012.33 384.79 1010.14 384.92 1007.94 385.08 1005.75 385.31 1003.56 385.43 1001.36 385.54 999.17 385.63 996.98 385.69 994.78 385.75 992.59 385.89 990.39 385.97 987.62 386.05"
       id="polyline10566" />
  </g>
  <g
     class="cls-9"
     clip-path="url(#clip-path)"
     id="g10572">
    <polyline
       class="cls-10"
       points="987.62 399.86 989.81 399.77 992.01 399.68 994.2 399.42 996.39 399.33 998.59 399.14 1000.78 399.04 1002.98 398.94 1005.17 398.79 1007.36 398.61 1009.56 398.47 1011.75 398.31 1013.94 398.08 1016.14 397.96 1018.33 397.85 1020.52 397.77 1022.72 397.7 1024.91 397.64 1027.11 397.5 1029.3 397.42 1032.07 397.35"
       id="polyline10570" />
  </g>
  <g
     class="cls-9"
     clip-path="url(#clip-path)"
     id="g10576">
    <path
       class="cls-13"
       d="M 897.71,138 V 492 M 844.62,138 v 354"
       transform="translate(-16.19,-7.21)"
       id="path10574" />
  </g>
  <g
     class="cls-9"
     clip-path="url(#clip-path)"
     id="g10580">
    <rect
       class="cls-14"
       x="828.42999"
       y="130.78999"
       width="53.09"
       height="354.03"
       id="rect10578" />
  </g>
  <g
     class="cls-9"
     clip-path="url(#clip-path)"
     id="g10584">
    <path
       class="cls-15"
       d="M 1001,138 V 492 M 947.87,138 v 354"
       transform="translate(-16.19,-7.21)"
       id="path10582" />
  </g>
  <g
     class="cls-9"
     clip-path="url(#clip-path)"
     id="g10588">
    <rect
       class="cls-16"
       x="931.67999"
       y="130.78999"
       width="53.09"
       height="354.03"
       id="rect10586" />
  </g>
  <g
     class="cls-9"
     clip-path="url(#clip-path)"
     id="g10592">
    <path
       class="cls-17"
       d="M 1104.2,138 V 492 M 1051.12,138 V 492"
       transform="translate(-16.19,-7.21)"
       id="path10590" />
  </g>
  <g
     class="cls-9"
     clip-path="url(#clip-path)"
     id="g10596">
    <rect
       class="cls-18"
       x="1034.9301"
       y="130.78999"
       width="53.09"
       height="354.03"
       id="rect10594" />
  </g>
  <path
     d="m 830.27,493.16 h 4.89 a 6,6 0 0 1 4.06,1.23 4.51,4.51 0 0 1 1.38,3.56 4.46,4.46 0 0 1 -1.38,3.57 6,6 0 0 1 -4.06,1.21 h -2.72 v 6.43 h -2.17 z m 2.17,1.78 v 6 h 2.72 a 3.2,3.2 0 0 0 2.33,-0.77 3.4,3.4 0 0 0 0,-4.45 3.25,3.25 0 0 0 -2.33,-0.79 z"
     id="path10598" />
  <path
     d="m 847.31,496.87 a 5.14,5.14 0 0 1 4,1.67 6.82,6.82 0 0 1 1.47,4.63 6.7,6.7 0 0 1 -1.47,4.6 5.73,5.73 0 0 1 -8.09,0 6.7,6.7 0 0 1 -1.45,-4.6 6.81,6.81 0 0 1 1.45,-4.63 5.12,5.12 0 0 1 4.09,-1.67 z m 0,1.67 a 3,3 0 0 0 -2.5,1.25 6.77,6.77 0 0 0 0,6.78 3.19,3.19 0 0 0 5,0 6.71,6.71 0 0 0 0,-6.78 3,3 0 0 0 -2.5,-1.25 z"
     id="path10600" />
  <path
     d="m 864.7,503.17 a 5.74,5.74 0 0 0 -0.9,-3.4 2.87,2.87 0 0 0 -2.46,-1.25 2.81,2.81 0 0 0 -2.45,1.25 5.54,5.54 0 0 0 -0.9,3.4 5.6,5.6 0 0 0 0.9,3.42 2.82,2.82 0 0 0 2.45,1.23 2.87,2.87 0 0 0 2.47,-1.23 5.81,5.81 0 0 0 0.89,-3.42 z m -6.71,4.19 v 6.34 h -2 v -16.54 h 2 v 1.82 a 4,4 0 0 1 1.56,-1.58 4.66,4.66 0 0 1 2.28,-0.53 4.37,4.37 0 0 1 3.55,1.74 8.32,8.32 0 0 1 0,9.12 4.37,4.37 0 0 1 -3.55,1.71 4.89,4.89 0 0 1 -2.28,-0.5 3.72,3.72 0 0 1 -1.56,-1.58 z"
     id="path10602" />
  <polygon
     points="874.2,495.14 870.36,495.91 870.36,493.94 874.18,493.17 876.35,493.17 876.35,507.34 879.88,507.34 879.88,509.16 870.67,509.16 870.67,507.34 874.2,507.34 "
     id="polygon10604" />
  <path
     d="m 933.52,493.16 h 4.89 a 6,6 0 0 1 4.06,1.23 4.51,4.51 0 0 1 1.38,3.56 4.46,4.46 0 0 1 -1.38,3.57 6,6 0 0 1 -4.06,1.21 h -2.72 v 6.43 h -2.17 z m 2.17,1.78 v 6 h 2.72 a 3.16,3.16 0 0 0 2.32,-0.77 3.37,3.37 0 0 0 0,-4.45 3.21,3.21 0 0 0 -2.32,-0.79 z"
     id="path10606" />
  <path
     d="m 950.55,496.87 a 5.17,5.17 0 0 1 4,1.67 6.87,6.87 0 0 1 1.47,4.63 6.75,6.75 0 0 1 -1.47,4.6 5.73,5.73 0 0 1 -8.09,0 6.7,6.7 0 0 1 -1.45,-4.6 6.81,6.81 0 0 1 1.45,-4.63 5.12,5.12 0 0 1 4.09,-1.67 z m 0,1.67 a 3,3 0 0 0 -2.5,1.25 6.77,6.77 0 0 0 0,6.78 3.18,3.18 0 0 0 5,0 6.64,6.64 0 0 0 0,-6.78 2.94,2.94 0 0 0 -2.5,-1.25 z"
     id="path10608" />
  <path
     d="m 967.95,503.17 a 5.74,5.74 0 0 0 -0.9,-3.4 2.89,2.89 0 0 0 -2.46,-1.25 2.81,2.81 0 0 0 -2.45,1.25 5.54,5.54 0 0 0 -0.9,3.4 5.6,5.6 0 0 0 0.9,3.42 2.82,2.82 0 0 0 2.45,1.23 2.9,2.9 0 0 0 2.46,-1.23 5.81,5.81 0 0 0 0.9,-3.42 z m -6.71,4.19 v 6.34 h -2 v -16.54 h 2 v 1.82 a 4,4 0 0 1 1.55,-1.58 4.71,4.71 0 0 1 2.28,-0.53 4.37,4.37 0 0 1 3.56,1.74 8.32,8.32 0 0 1 0,9.12 4.37,4.37 0 0 1 -3.56,1.71 5,5 0 0 1 -2.28,-0.5 3.75,3.75 0 0 1 -1.55,-1.58 z"
     id="path10610" />
  <path
     d="m 975.41,507.34 h 7.54 v 1.82 h -10.14 v -1.82 q 1.21,-1.26 3.35,-3.43 c 1.41,-1.42 2.31,-2.34 2.68,-2.76 a 9.37,9.37 0 0 0 1.45,-2 3.7,3.7 0 0 0 0.41,-1.61 2.64,2.64 0 0 0 -0.9,-2.06 3.39,3.39 0 0 0 -2.32,-0.81 7.65,7.65 0 0 0 -2.15,0.35 12.41,12.41 0 0 0 -2.41,1.08 v -2.2 a 17.45,17.45 0 0 1 2.43,-0.79 9.53,9.53 0 0 1 2.08,-0.26 5.92,5.92 0 0 1 3.95,1.25 4.1,4.1 0 0 1 1.49,3.31 4.84,4.84 0 0 1 -0.37,1.87 8.26,8.26 0 0 1 -1.34,2.08 c -0.17,0.22 -0.74,0.81 -1.71,1.8 z"
     id="path10612" />
  <path
     d="m 1036.81,493.16 h 4.89 a 6,6 0 0 1 4.06,1.23 4.51,4.51 0 0 1 1.38,3.56 4.46,4.46 0 0 1 -1.38,3.57 6,6 0 0 1 -4.06,1.21 h -2.72 v 6.43 h -2.17 z m 2.17,1.78 v 6 h 2.72 a 3.18,3.18 0 0 0 2.32,-0.77 3.37,3.37 0 0 0 0,-4.45 3.23,3.23 0 0 0 -2.32,-0.79 z"
     id="path10614" />
  <path
     d="m 1053.81,496.87 a 5.17,5.17 0 0 1 4,1.67 6.87,6.87 0 0 1 1.47,4.63 6.75,6.75 0 0 1 -1.47,4.62 5.75,5.75 0 0 1 -8.1,0 6.74,6.74 0 0 1 -1.44,-4.6 6.86,6.86 0 0 1 1.44,-4.63 5.15,5.15 0 0 1 4.1,-1.69 z m 0,1.67 a 3,3 0 0 0 -2.5,1.25 6.77,6.77 0 0 0 0,6.78 3.18,3.18 0 0 0 5,0 6.71,6.71 0 0 0 0,-6.78 3,3 0 0 0 -2.5,-1.25 z"
     id="path10616" />
  <path
     d="m 1071.2,503.17 a 5.74,5.74 0 0 0 -0.9,-3.4 2.89,2.89 0 0 0 -2.46,-1.25 2.84,2.84 0 0 0 -2.46,1.25 5.6,5.6 0 0 0 -0.9,3.4 5.67,5.67 0 0 0 0.9,3.42 2.85,2.85 0 0 0 2.43,1.2 2.9,2.9 0 0 0 2.46,-1.23 5.81,5.81 0 0 0 0.93,-3.39 z m -6.72,4.19 v 6.34 h -2 v -16.54 h 2 v 1.82 a 4.09,4.09 0 0 1 1.56,-1.58 4.71,4.71 0 0 1 2.28,-0.53 4.37,4.37 0 0 1 3.56,1.74 8.32,8.32 0 0 1 0,9.12 4.37,4.37 0 0 1 -3.56,1.71 5,5 0 0 1 -2.28,-0.5 3.83,3.83 0 0 1 -1.56,-1.58 z"
     id="path10618" />
  <path
     d="m 1083.35,500.54 a 3.9,3.9 0 0 1 3.29,4 4.44,4.44 0 0 1 -1.62,3.66 7.41,7.41 0 0 1 -4.63,1.27 10.79,10.79 0 0 1 -2.09,-0.2 12,12 0 0 1 -2.19,-0.57 v -2.11 a 7.32,7.32 0 0 0 2,0.79 9.55,9.55 0 0 0 2.24,0.26 5.07,5.07 0 0 0 3.09,-0.79 2.73,2.73 0 0 0 1.08,-2.34 2.67,2.67 0 0 0 -1,-2.2 4.36,4.36 0 0 0 -2.76,-0.81 h -1.87 v -1.78 h 2 a 3.91,3.91 0 0 0 2.43,-0.63 2.14,2.14 0 0 0 0.86,-1.84 2.26,2.26 0 0 0 -0.88,-1.89 4.13,4.13 0 0 0 -2.5,-0.66 10.26,10.26 0 0 0 -1.91,0.2 19.28,19.28 0 0 0 -2.24,0.59 v -1.93 a 18.55,18.55 0 0 1 2.31,-0.5 13.2,13.2 0 0 1 2,-0.18 6.17,6.17 0 0 1 3.88,1.12 3.63,3.63 0 0 1 1.45,3 3.43,3.43 0 0 1 -0.77,2.23 3.87,3.87 0 0 1 -2.17,1.31 z"
     id="path10620" />
  <line
     x1="815.45001"
     y1="484.82001"
     x2="807.77002"
     y2="484.82001"
     id="line10622" />
  <g
     class="cls-19"
     clip-path="url(#clip-path-13)"
     id="g10630">
    <path
       class="cls-10"
       d="M 900.56,210.81"
       transform="translate(-16.19,-7.21)"
       id="path10624" />
    <polygon
       class="cls-20"
       points="886.57,200.96 882.18,203.6 886.57,206.24 "
       id="polygon10626" />
    <polygon
       class="cls-15"
       points="886.57,200.96 882.18,203.6 886.57,206.24 "
       id="polygon10628" />
  </g>
  <g
     class="cls-21"
     clip-path="url(#clip-path-14)"
     id="g10638">
    <path
       class="cls-11"
       d="M 945,220.13"
       transform="translate(-16.19,-7.21)"
       id="path10632" />
    <polygon
       class="cls-22"
       points="926.63,215.56 931.02,212.92 926.63,210.28 "
       id="polygon10634" />
    <polygon
       class="cls-13"
       points="926.63,215.56 931.02,212.92 926.63,210.28 "
       id="polygon10636" />
  </g>
  <g
     class="cls-21"
     clip-path="url(#clip-path-14)"
     id="g10646">
    <path
       class="cls-12"
       d="M 900.56,298.77"
       transform="translate(-16.19,-7.21)"
       id="path10640" />
    <polygon
       class="cls-23"
       points="886.57,288.93 882.18,291.57 886.57,294.2 "
       id="polygon10642" />
    <polygon
       class="cls-17"
       points="886.57,288.93 882.18,291.57 886.57,294.2 "
       id="polygon10644" />
  </g>
  <g
     class="cls-19"
     clip-path="url(#clip-path-13)"
     id="g10654">
    <path
       class="cls-11"
       d="M 1048.26,316.1"
       transform="translate(-16.19,-7.21)"
       id="path10648" />
    <polygon
       class="cls-22"
       points="1029.88,311.53 1034.27,308.89 1029.88,306.25 "
       id="polygon10650" />
    <polygon
       class="cls-13"
       points="1029.88,311.53 1034.27,308.89 1029.88,306.25 "
       id="polygon10652" />
  </g>
  <g
     class="cls-19"
     clip-path="url(#clip-path-13)"
     id="g10662">
    <path
       class="cls-12"
       d="M 1003.81,393.74"
       transform="translate(-16.19,-7.21)"
       id="path10656" />
    <polygon
       class="cls-23"
       points="989.81,383.9 985.43,386.53 989.81,389.17 "
       id="polygon10658" />
    <polygon
       class="cls-17"
       points="989.81,383.9 985.43,386.53 989.81,389.17 "
       id="polygon10660" />
  </g>
  <g
     class="cls-21"
     clip-path="url(#clip-path-14)"
     id="g10670">
    <path
       class="cls-10"
       d="M 1048.26,405.06"
       transform="translate(-16.19,-7.21)"
       id="path10664" />
    <polygon
       class="cls-20"
       points="1029.88,400.49 1034.27,397.86 1029.88,395.22 "
       id="polygon10666" />
    <polygon
       class="cls-15"
       points="1029.88,400.49 1034.27,397.86 1029.88,395.22 "
       id="polygon10668" />
  </g>
  <path
     d="m 909.39,61.79 0.49,-25.64 c 0.15,-8.16 -0.71,-17.24 3.13,-24.72 l -2.74,-0.36 q 4.27,16.11 8.54,32.22 a 1.51,1.51 0 0 0 2.51,0.66 c 8.91,-10 1,-24.51 8.15,-35.13 l -2.74,-0.36 a 293.26,293.26 0 0 0 13.78,53.33 c 0.65,1.8 3.55,1 2.9,-0.8 A 291.74,291.74 0 0 1 929.63,7.63 c -0.23,-1.39 -2.1,-1.32 -2.75,-0.36 -7,10.38 0.66,25.12 -7.68,34.52 l 2.5,0.66 q -4.26,-16.11 -8.54,-32.22 a 1.51,1.51 0 0 0 -2.74,-0.35 c -3.6,7 -3.32,14.76 -3.47,22.44 l -0.56,29.47 c 0,1.93 3,1.93 3,0 z"
     id="path11602" />
  <path
     d="m 944.55,42.6 c -1.48,7.2 -2,18.58 7.79,19.91 10.14,1.37 11.18,-13.51 10.39,-20.19 -0.53,-4.44 -1.94,-20.85 -10.13,-16.21 -7.59,4.31 -8.64,17.32 -7.33,24.78 0.34,1.89 3.23,1.09 2.9,-0.8 a 26.56,26.56 0 0 1 2.14,-16.3 c 1.26,-2.61 5.48,-7.49 7,-2.66 a 72.57,72.57 0 0 1 1.91,8 c 0.93,5 2.15,13.77 -1.67,18 -3.14,3.46 -7.72,2.64 -9.93,-1.26 -2.08,-3.68 -1,-8.58 -0.17,-12.44 0.39,-1.88 -2.51,-2.69 -2.89,-0.79 z"
     id="path11604" />
  <path
     d="m 982.81,35.98 a 6.43,6.43 0 0 0 -3.85,-7.75 c -3.75,-1.58 -7.76,0.52 -9.93,3.68 -3.28,4.76 -2.09,11.09 -1.59,16.45 0.35,3.71 -0.23,10.19 3,13 7.73,6.65 12.6,-12.34 13.07,-16.69 0.65,-6 0.13,-12.08 0,-18.1 a 114.81,114.81 0 0 1 2,-24.68 l -3,-0.4 q -0.33,30.18 2.19,60.27 c 0.16,1.91 3.16,1.93 3,0 Q 985.18,31.68 985.51,1.49 c 0,-1.65 -2.62,-2.1 -2.94,-0.4 a 118.83,118.83 0 0 0 -2.18,20.94 c -0.07,6.77 0.68,13.54 0.27,20.31 a 32.74,32.74 0 0 1 -2.2,10.55 c -1.16,2.81 -1.3,3.79 -4.54,4 q -3.24,1.5 -2.89,-1.63 l -0.22,-2.58 c -0.32,-3.4 -0.73,-6.81 -0.92,-10.22 a 17.51,17.51 0 0 1 0.37,-6.08 7.59,7.59 0 0 1 2,-3.76 q 4.35,-4.68 7.63,2.56 a 1.5,1.5 0 0 0 2.89,0.8 z"
     id="path11606" />
  <path
     d="m 993.81,52.94 c 6.17,-4.2 12.72,-11.09 9.74,-19.26 -2,-5.55 -9.7,-7.92 -13.14,-2.3 -3.91,6.39 -0.6,18.78 3.2,24.49 3.92,5.88 11.52,9 17.84,5 1.63,-1 0.13,-3.62 -1.51,-2.59 -11,6.94 -17.06,-9.07 -17.75,-17.2 -0.16,-1.89 -0.77,-6.91 0.81,-8.2 l 5.25,-1.22 a 6.12,6.12 0 0 1 2.95,5.39 c 0.42,6 -4.43,10.24 -8.9,13.29 -1.59,1.08 -0.09,3.68 1.51,2.59 z"
     id="path11608" />
  <path
     d="m 1009.28,5.79 5.44,58.46 c 0.18,1.9 3.18,1.92 3,0 l -5.44,-58.46 c -0.18,-1.9 -3.18,-1.92 -3,0 z"
     id="path11610" />
  <line
     x1="782.65002"
     y1="484.67999"
     x2="773.42999"
     y2="484.67999"
     id="line11612" />
  <line
     class="cls-25"
     x1="782.65002"
     y1="484.67999"
     x2="773.42999"
     y2="484.67999"
     id="line11614" />
  <line
     x1="782.65002"
     y1="413.97"
     x2="773.42999"
     y2="413.97"
     id="line11616" />
  <line
     class="cls-25"
     x1="782.65002"
     y1="440.97"
     x2="773.42999"
     y2="440.97"
     id="line11618" />
  <line
     x1="782.65002"
     y1="312.26001"
     x2="773.42999"
     y2="312.26001"
     id="line11620" />
  <line
     class="cls-25"
     x1="782.65002"
     y1="312.26001"
     x2="773.42999"
     y2="312.26001"
     id="line11622" />
  <line
     x1="782.65002"
     y1="188.84"
     x2="773.42999"
     y2="188.84"
     id="line11624" />
  <line
     class="cls-25"
     x1="782.65002"
     y1="188.84"
     x2="773.42999"
     y2="188.84"
     id="line11626" />
  <path
     class="cls-10"
     d="M 837.69,639.46"
     id="path11628" />
  <line
     class="cls-26"
     x1="782.65002"
     y1="484.67999"
     x2="782.65002"
     y2="131.13"
     id="line11630" />
  <path
     d="m 945.81,169.7 a 209.65,209.65 0 0 0 2.52,-27.16 l -2.79,0.76 13.71,24.49 a 1.52,1.52 0 0 0 2.74,-0.36 126.12,126.12 0 0 0 3.33,-26.25 c 0,-1.93 -3,-1.93 -3,0 a 122.06,122.06 0 0 1 -3.22,25.46 l 2.74,-0.36 -13.74,-24.49 a 1.52,1.52 0 0 0 -2.8,0.76 202.56,202.56 0 0 1 -2.42,26.36 c -0.3,1.89 2.59,2.7 2.9,0.8 z"
     id="path11634" />
  <path
     d="m 866.94,165.31 a 20.72,20.72 0 0 0 3.52,-8.7 l -2.94,-0.4 c -0.09,2.55 -0.19,5.09 -0.07,7.64 0.06,1.27 0.2,2.53 0.35,3.79 0,0.23 1.14,6.76 -1.77,5.06 l -0.76,2.8 7.65,0.09 a 1.5,1.5 0 0 0 0,-3 l -7.65,-0.09 a 1.51,1.51 0 0 0 -0.76,2.79 c 2.67,1.55 5.56,-0.07 6.37,-2.91 0.66,-2.32 -0.18,-4.94 -0.36,-7.27 a 77.72,77.72 0 0 1 0,-8.9 c 0.06,-1.65 -2.67,-2.09 -3,-0.39 a 18.76,18.76 0 0 1 -3.22,8 c -1.1,1.59 1.5,3.09 2.59,1.51 z"
     id="path11636" />
  <path
     d="m 841.52,169.12 5.22,-28.6 -2.74,0.35 a 299.88,299.88 0 0 0 14.91,27.84 c 0.61,1 2.52,1 2.74,-0.35 a 196.72,196.72 0 0 0 2.79,-30 c 0,-1.93 -3,-1.93 -3,0 a 190,190 0 0 1 -2.63,29.2 l 2.74,-0.36 a 299.88,299.88 0 0 1 -14.91,-27.84 1.52,1.52 0 0 0 -2.75,0.36 l -5.21,28.6 c -0.34,1.89 2.55,2.7 2.89,0.8 z"
     id="path11638" />
  <path
     d="m 969.56,160.64 c 2,-1.14 2.91,-1 2.83,0.38 a 2.58,2.58 0 0 1 0,1.35 6.23,6.23 0 0 1 -1.66,3.24 27.23,27.23 0 0 1 -3.44,2.79 c -2,1.56 -3.23,3.23 -3.42,5.79 a 1.5,1.5 0 0 0 1.5,1.5 l 9.07,-0.66 c 1.91,-0.13 1.93,-3.14 0,-3 l -9.07,0.66 1.5,1.5 c 0.25,-3.34 5,-5 6.82,-7.48 a 8.29,8.29 0 0 0 1.27,-8 4.31,4.31 0 0 0 -8.37,1.89 c 0.14,1.91 3.14,1.93 3,0 z"
     id="path11640" />
  <path
     d="m 1046.72,167.17 q 1,-14.22 0.6,-28.45 l -2.51,1.07 a 99.53,99.53 0 0 1 20.22,29.25 1.51,1.51 0 0 0 2.74,-0.36 185.73,185.73 0 0 0 2.91,-31.83 1.5,1.5 0 0 0 -3,0 181.38,181.38 0 0 1 -2.8,31 l 2.74,-0.36 a 102,102 0 0 0 -20.69,-29.85 1.52,1.52 0 0 0 -2.56,1.06 q 0.4,14.25 -0.6,28.45 c -0.14,1.93 2.86,1.92 3,0 z"
     id="path11642" />
  <path
     d="m 1074.04,160.27 a 15.47,15.47 0 0 1 3.56,-2.68 l -1.82,-0.24 c 1.94,2.27 -1,4.91 -2.48,6.32 -1.32,1.21 0.36,3.06 1.82,2.35 2.68,-1.3 2.27,3.85 1.4,4.91 -1.71,2.07 -4.33,1.57 -5.47,-0.73 -0.86,-1.73 -3.45,-0.21 -2.59,1.52 a 6.21,6.21 0 0 0 11.43,-0.66 c 1.58,-4 -1.52,-9.94 -6.29,-7.63 l 1.82,2.36 c 3.06,-2.82 5.68,-6.83 2.48,-10.56 a 1.51,1.51 0 0 0 -1.82,-0.23 18.2,18.2 0 0 0 -4.16,3.14 1.5026061,1.5026061 0 0 0 2.12,2.13 z"
     id="path11644" />
  <path
     d="m 884.81,219.4 c 0.49,6 -1.23,11.92 -0.65,17.94 a 1.5,1.5 0 0 0 2.94,0.4 c 1.35,-4.51 -0.22,-9.74 3.64,-13.32 1.35,-1.25 1.3,-1.24 2.08,0.09 0.63,1.07 0.56,3.22 0.6,4.42 a 48.94,48.94 0 0 1 -0.53,7.45 c -0.2,1.7 2.51,2 2.95,0.4 1.11,-4.09 -0.69,-9.4 1.93,-12.9 0.48,-0.64 1.38,-1.86 2.37,-1.26 0.35,0.22 0.52,4.36 0.56,5.07 a 63.23,63.23 0 0 1 0,8.26 c -0.13,1.93 2.87,1.92 3,0 0.18,-2.79 1.67,-19.39 -4.63,-17.07 -7.39,2.72 -4.55,11.53 -6.08,17.1 l 3,0.4 c 0.47,-4 0.92,-8.11 0,-12.08 -0.43,-1.81 -1.15,-4.84 -3.54,-4.66 -2.39,0.18 -4.77,3.75 -5.86,5.61 -2.17,3.72 -1,7.73 -2.24,11.69 l 3,0.4 c -0.58,-6 1.14,-11.92 0.65,-17.94 -0.15,-1.91 -3.15,-1.93 -3,0 z"
     id="path11646" />
  <path
     d="m 907.25,234.15 c 3.94,-1.28 3.89,-5.53 4.95,-8.89 l -2.94,-0.4 q -0.47,3.83 -0.92,7.65 c -0.13,1.12 0,2.36 -0.25,3.45 0.38,0.7 0.27,1.07 -0.34,1.13 l -1.79,0.46 c -1.59,0.41 -1.32,3.13 0.4,3 1.15,-0.12 3.3,-0.77 4.41,-0.41 l -1.05,-1.84 -0.06,0.19 1.84,-1.05 h -0.13 c -1.88,-0.39 -2.69,2.51 -0.8,2.9 h 0.14 a 1.53,1.53 0 0 0 1.84,-1 l 0.06,-0.19 a 1.53,1.53 0 0 0 -1,-1.85 c -1.51,-0.5 -3.66,0.13 -5.2,0.3 l 0.4,2.95 c 2.83,-0.73 4.47,-0.85 4.37,-4 -0.11,-3.84 0.67,-7.77 1.13,-11.59 0.2,-1.74 -2.46,-1.94 -3,-0.4 -0.58,1.84 -0.65,6.08 -2.86,6.8 -1.83,0.6 -1,3.49 0.8,2.89 z"
     id="path11648" />
  <path
     d="m 916.37,228.51 q -0.31,-2.86 2.05,-0.88 a 4.87,4.87 0 0 1 -0.05,2.65 10,10 0 0 1 -2.32,3.84 c -0.9,1 -2.53,2.15 -2.59,3.69 -0.14,3.77 6.54,1.49 8.41,1.13 1.87,-0.36 1.1,-3.26 -0.79,-2.9 -1.89,0.36 -4,1 -5.94,0.84 l 1.29,0.74 c 0.25,0.44 2.58,-2.37 2.84,-2.71 a 11.61,11.61 0 0 0 1.84,-3.41 c 0.71,-2.14 0.7,-4.83 -0.82,-6.65 -3.19,-3.82 -7.85,0.47 -6.81,4.46 0.48,1.86 3.38,1.07 2.89,-0.8 z"
     id="path11650" />
  <path
     d="m 895.73,175.92 q -0.7,9 -0.75,18 h 3 a 22,22 0 0 1 1.41,-7.73 c 0.09,-0.24 3.45,-7.2 3.43,-7.21 0.18,0.15 -0.45,4.67 -0.49,5.31 l -0.5,7.91 c -0.1,1.67 2.61,2.06 3,0.4 a 54.57,54.57 0 0 0 0.78,-6.11 c 0.17,-1.94 0.13,-6.35 1.86,-7.6 0.38,-1.14 1.06,-1.09 2,0.15 l 0.36,2 a 24.08,24.08 0 0 1 -0.1,3.7 c -0.16,2.67 -0.38,5.33 -0.57,8 -0.13,1.93 2.87,1.92 3,0 0.26,-3.65 3.26,-18 -3.61,-18 -6.63,0 -5.83,13.13 -6.64,17.06 l 2.95,0.4 c 0.27,-4.35 0.94,-8.84 0.83,-13.18 0,-1.88 -0.72,-4.26 -3.15,-3.66 -2.43,0.6 -4,5.23 -4.88,7.28 a 27.16,27.16 0 0 0 -2.65,11.28 1.5,1.5 0 0 0 3,0 q 0,-9 0.75,-18 c 0.16,-1.92 -2.85,-1.91 -3,0 z"
     id="path11652" />
  <path
     d="m 917.52,185.85 c -0.21,-0.82 0.09,-0.73 0.88,0.26 v 1.52 a 8.75,8.75 0 0 1 -1.62,3.24 c -1.19,1.78 -2.43,3.53 -3.65,5.29 a 1.51,1.51 0 0 0 0.54,2.06 c 2.51,1.09 5.09,0 7.63,-0.58 1.88,-0.44 1.08,-3.33 -0.8,-2.89 -1.38,0.32 -4,1.46 -5.32,0.87 l 0.54,2.06 c 2.31,-3.39 9.09,-10.89 4.09,-14.89 -3.49,-2.75 -6.77,2.11 -4.37,5.15 1.2,1.51 3.31,-0.63 2.12,-2.13 z"
     id="path11654" />
  <path
     d="m 925.01,190.79 a 13.9,13.9 0 0 0 2.89,-7 h -3 l 0.15,7 0.06,3 v 2 c 0.08,-0.67 -0.23,-0.83 -0.93,-0.5 v 3 a 33.57,33.57 0 0 1 5.21,-0.17 c 1.93,0.08 1.92,-2.92 0,-3 a 33.57,33.57 0 0 0 -5.21,0.17 c -1.88,0.22 -1.95,3.16 0,3 2.39,-0.18 3.87,-0.36 3.92,-3 0.07,-3.8 -0.16,-7.63 -0.24,-11.43 a 1.5,1.5 0 0 0 -3,0 c -0.15,2.11 -1.32,3.8 -2.48,5.49 -1.16,1.69 1.51,3.1 2.59,1.51 z"
     id="path11656" />
  <path
     d="m 883.81,310.37 q 0.48,8.76 0.23,17.55 h 3 a 49.68,49.68 0 0 1 0.57,-7.31 c 0.26,-1.65 0.62,-5.92 2.26,-6.71 1.37,-0.66 1,0.17 1.31,1.55 a 42.25,42.25 0 0 1 0.71,4.6 47,47 0 0 1 0,7.22 h 3 c 0.08,-2.62 0.15,-5.24 0.24,-7.86 a 21.1,21.1 0 0 1 0.28,-3.64 c 0,-1.65 0.72,-2.21 2.24,-1.67 1.56,-0.52 2.35,0.08 2.37,1.79 1.27,4.42 -1.19,9.69 0.42,13.83 a 1.55,1.55 0 0 0 1.84,1.05 l 0.29,-0.07 a 1.52,1.52 0 0 0 1.1,-1.45 V 329 c 0.07,-1.93 -2.93,-1.92 -3,0 v 0.25 l 1.14,-1.46 -0.29,0.07 1.85,1.05 c -0.81,-2.09 0.08,-5.37 0.14,-7.56 a 20.92,20.92 0 0 0 -0.56,-6.26 c -0.66,-2.45 -2.26,-5.27 -5.12,-5.36 -7.39,-0.23 -5.77,13.33 -5.9,17.53 -0.06,1.95 2.88,1.92 3,0 a 44.52,44.52 0 0 0 -1,-13.32 c -0.52,-2.14 -1.19,-4.41 -3.8,-4.3 -2.61,0.11 -3.52,2.61 -4.15,4.69 a 48.71,48.71 0 0 0 -1.93,13.58 c 0,1.93 3,1.92 3,0 q 0.25,-8.79 -0.23,-17.55 c -0.11,-1.92 -3.11,-1.94 -3,0 z"
     id="path11658" />
  <path
     d="m 907.38,327.42 a 12.57,12.57 0 0 0 3.94,-8.73 l -3,0.4 c 0.42,2.93 0.73,5.87 0.91,8.82 0,0.34 0.37,3.24 0.14,3.47 -0.23,0.23 -1.8,0.2 -2.16,0.35 a 1.5,1.5 0 0 0 0.39,2.94 l 5.85,0.41 c 1.93,0.13 1.92,-2.87 0,-3 l -5.85,-0.41 0.4,2.95 c 2.27,-0.92 4.1,-0.07 4.37,-3.24 0.37,-4.22 -0.56,-8.91 -1.15,-13.09 -0.25,-1.74 -2.87,-1.2 -3,0.4 a 9.4,9.4 0 0 1 -3.07,6.61 c -1.39,1.34 0.73,3.46 2.13,2.12 z"
     id="path11660" />
  <path
     d="m 916.81,320.91 1.29,0.21 a 2.3,2.3 0 0 1 -0.51,2.17 4.06,4.06 0 0 1 -1.72,1.28 c -1.52,0.72 -0.43,3.39 1.16,2.75 4,-1.61 3.34,5.9 0,4 a 1.5,1.5 0 0 0 -1.51,2.59 5,5 0 0 0 7.34,-3.95 c 0.4,-3.54 -3.14,-7 -6.65,-5.54 l 1.15,2.74 c 3.08,-1.45 5.12,-5.42 2.84,-8.48 -1.92,-2.58 -5.51,-1.44 -6.3,1.44 a 1.5,1.5 0 0 0 2.89,0.79 z"
     id="path11662" />
  <path
     d="m 996.64,265.9 -0.41,18.81 3,-0.4 a 24.47,24.47 0 0 1 0,-7.2 c 0.18,-1.13 1.5,-7 3.08,-6.93 1.58,0.07 0.57,13.05 0.46,14.42 h 3 a 69.37,69.37 0 0 1 0.24,-7.76 26.93,26.93 0 0 1 0.73,-4 c 0.46,-1.69 0.53,-4.05 2.68,-3.61 1.88,0.38 1.51,1.55 1.7,3.4 0.14,1.39 0.23,2.79 0.26,4.19 a 57.31,57.31 0 0 1 -0.5,8.38 c -0.25,1.91 2.75,1.89 3,0 a 54.19,54.19 0 0 0 -0.07,-15.05 c -0.36,-2.32 -1.35,-5.48 -4.25,-5.5 -2.9,-0.02 -4.33,3.34 -5.15,5.57 -1.66,4.58 -1.66,9.56 -1.64,14.37 0,2 2.85,1.9 3,0 0.22,-2.65 2.26,-20.61 -3.88,-17.95 -6.14,2.66 -6.26,13.08 -5.52,18.46 0.24,1.72 2.92,1.23 2.95,-0.4 l 0.41,-18.81 c 0,-1.93 -3,-1.93 -3,0 z"
     id="path11664" />
  <path
     d="m 1018.38,277.29 c 1.23,-0.06 1.48,0.54 0.76,1.81 a 6.51,6.51 0 0 1 -1.71,1.76 1.5,1.5 0 0 0 1.51,2.59 c 1.8,-0.83 1.76,2.58 1.52,3.35 -0.39,1.29 -2.67,3.28 -3.56,0.94 -0.69,-1.78 -3.59,-1 -2.9,0.8 1.68,4.36 7.49,4 9.16,-0.22 1.51,-3.81 -1,-9.63 -5.73,-7.46 l 1.51,2.59 c 2.5,-1.92 5.06,-5.39 2.42,-8.37 a 3.44,3.44 0 0 0 -6,2.21 c -0.15,1.92 2.85,1.91 3,0 z"
     id="path11666" />
  <path
     d="m 1026.48,283.45 c 2.49,-2 4.7,-4.26 4.68,-7.64 0,-2 -2.83,-1.89 -3,0 -0.14,1.52 -0.49,13.58 -2.78,13 l -0.4,2.95 a 32.63,32.63 0 0 1 5.93,0.12 c 1.92,0.21 1.9,-2.79 0,-3 a 32.63,32.63 0 0 0 -5.93,-0.12 c -1.61,0.11 -2.13,2.52 -0.4,2.94 2.53,0.62 4.57,-0.93 5.28,-3.36 1.14,-3.89 0.94,-8.52 1.3,-12.55 h -3 c 0,2.5 -2,4.09 -3.8,5.52 -1.51,1.21 0.63,3.32 2.12,2.12 z"
     id="path11668" />
  <path
     d="m 997.97,357.39 a 109.79,109.79 0 0 1 -0.32,17.86 h 3 c 0.27,-6.61 0.7,-13.53 6,-18.22 l -2.35,-0.31 c 3.24,4.95 1.12,13.68 0.6,19.28 h 3 a 20.19,20.19 0 0 1 4.1,-15.47 12.54,12.54 0 0 1 1.54,-1.72 l -0.26,2.42 c -0.07,1.44 0,2.9 0,4.34 -0.05,1.24 0.46,7.21 -0.44,8.06 l 1.82,-0.24 -0.28,-0.12 c -1.75,-0.77 -3.28,1.81 -1.52,2.59 l 0.28,0.12 a 1.56,1.56 0 0 0 1.82,-0.23 c 1,-0.91 0.92,-1.95 1,-3.22 0.16,-2.8 0.33,-5.61 0.39,-8.41 0,-2.07 0.53,-8.25 -2.88,-8.36 -2.88,-0.09 -5.56,5.24 -6.53,7.31 a 23,23 0 0 0 -2,12.93 1.5,1.5 0 0 0 3,0 c 0.59,-6.37 2.74,-15.07 -1,-20.79 a 1.53,1.53 0 0 0 -2.36,-0.31 c -5.86,5.23 -6.54,13 -6.84,20.35 -0.08,2 2.81,1.89 3,0 a 109.79,109.79 0 0 0 0.32,-17.86 c -0.12,-1.91 -3.12,-1.93 -3,0 z"
     id="path11670" />
  <path
     d="m 1020.44,366.02 1.45,-1.07 -1.45,-1.1 a 4.83,4.83 0 0 1 -1.29,5.22 1.51,1.51 0 0 0 1.81,2.36 2.41,2.41 0 0 1 0.44,2.7 c -0.08,1.45 -1,2.26 -2.88,2.42 0.31,-1.89 -2.58,-2.7 -2.89,-0.79 -0.85,5.22 5.61,5.69 7.81,1.72 1.68,-3 1.45,-11.63 -4,-8.64 l 1.82,2.36 a 7.81,7.81 0 0 0 2.07,-8.14 1.6,1.6 0 0 0 -1.45,-1.11 3.92,3.92 0 0 0 -4.45,4.07 c 0,1.93 3,1.93 3,0 z"
     id="path11672" />
  <path
     d="m 1027.72,366.02 c 1.58,3.07 -2.69,9.27 -4.15,12.3 a 1.52,1.52 0 0 0 1.69,2.2 c 2.19,-0.43 4.38,-0.76 6.6,-1 1.9,-0.19 1.92,-3.19 0,-3 a 73.52,73.52 0 0 0 -7.39,1.09 l 1.69,2.2 c 2,-4.22 7.92,-12.77 3.66,-17.26 -3.35,-3.54 -6.34,1.77 -4.69,5 0.88,1.71 3.47,0.2 2.59,-1.52 z"
     id="path11674" />
  <path
     d="m 989.05,403.02 a 110.63,110.63 0 0 0 -0.74,20.82 l 3,-0.4 a 18.17,18.17 0 0 1 5.52,-18.29 l -2.35,-0.3 c 1.81,2.4 1.28,6.38 1.46,9.27 l 0.57,9 c 0.11,1.91 3,1.95 3,0 -0.08,-6.27 0,-12.92 5.32,-17.19 l -2.51,-0.66 a 77.45,77.45 0 0 1 1.74,18 c 0,1.93 3,1.93 3,0 a 81.53,81.53 0 0 0 -1.85,-18.76 1.51,1.51 0 0 0 -2.5,-0.66 c -5.91,4.76 -6.29,12.28 -6.2,19.31 h 3 l -0.75,-12.05 c -0.17,-2.7 0,-5.53 -1.69,-7.78 a 1.53,1.53 0 0 0 -2.36,-0.3 21.25,21.25 0 0 0 -6.3,21.21 c 0.42,1.61 3.05,1.32 3,-0.4 a 110.63,110.63 0 0 1 0.74,-20.82 c 0.25,-1.9 -2.75,-1.89 -3,0 z"
     id="path11676" />
  <path
     d="m 1011.48,416.03 a 4.36,4.36 0 0 1 -0.38,-1.59 q 1.15,-1.56 2.07,0.87 c 0.62,1.35 0,3.13 -0.55,4.35 a 46.28,46.28 0 0 1 -4.07,6.23 1.5,1.5 0 0 0 1.29,2.25 28.47,28.47 0 0 1 6.9,0.32 c 1.89,0.33 2.7,-2.56 0.8,-2.89 a 31.52,31.52 0 0 0 -7.7,-0.43 l 1.3,2.26 c 2.67,-3.88 7.94,-10.16 3.83,-14.9 -1.29,-1.5 -3.66,-2.29 -5.4,-1.06 -1.74,1.23 -1.64,3.58 -1,5.38 0.64,1.8 3.56,1 2.89,-0.79 z"
     id="path11678" />
  <path
     d="m 1019.42,415.4 c 0.12,-2 2.76,-0.14 1.61,2 a 8.12,8.12 0 0 1 -2,2 c -1.06,0.86 -0.15,2.53 1.06,2.56 1.63,0 4.8,2.09 2.08,3.31 a 5.7,5.7 0 0 1 -3,0.14 c -1.89,-0.28 -2.7,2.61 -0.8,2.9 2.85,0.43 6.73,0.18 7.76,-3.11 1.19,-3.81 -2.77,-6.18 -6,-6.24 l 1.06,2.56 c 2.55,-2.12 5.23,-6 2,-8.84 a 4.39,4.39 0 0 0 -4.4,-0.87 c -1.87,0.66 -2.17,1.79 -2.28,3.6 -0.11,1.81 2.88,1.92 3,0 z"
     id="path11680" />
  <path
     class="cls-11"
     d="M 770.69,534.25"
     id="path11682" />
  <path
     class="cls-12"
     d="M 750.42,552.73"
     id="path11684" />
  <path
     d="m 696.24,520.63 -1.54,18 c -0.17,1.92 2.83,1.91 3,0 l 1.54,-18 c 0.16,-1.92 -2.84,-1.91 -3,0 z"
     id="path11686" />
  <path
     d="m 691.17,531.15 h 11.64 a 1.5,1.5 0 0 0 0,-3 h -11.64 a 1.5,1.5 0 0 0 0,3 z"
     id="path11688" />
  <path
     d="m 713.01,522.89 a 2.62,2.62 0 0 0 1.13,1.24 1.52,1.52 0 0 0 2.21,-1.69 4.65,4.65 0 0 0 -8.93,-0.55 4.8,4.8 0 0 0 0.65,4.91 c 1.47,1.62 3.63,2.16 4.91,4.13 a 5.5,5.5 0 0 1 1,3.09 3,3 0 0 1 -5.88,0.64 l -2.5,1.46 0.17,0.21 c 1.22,1.5 3.33,-0.63 2.12,-2.12 L 707.72,534 c -1,-1.21 -2.89,0.1 -2.51,1.46 1.36,4.87 7.77,6.71 10.78,2.06 a 7.47,7.47 0 0 0 0.25,-6.94 10.66,10.66 0 0 0 -2.76,-3.56 c -0.53,-0.46 -1.14,-0.82 -1.66,-1.29 l -1,-0.61 q -2,-4.33 2.64,-1.88 l 2.2,-1.7 -0.06,-0.16 c -0.81,-1.75 -3.39,-0.23 -2.59,1.51 z"
     id="path11690" />
  <path
     d="m 719.94,533.15 c 4.17,-1.11 10.24,-5.12 9,-10.26 a 5.29,5.29 0 0 0 -9,-2.1 c -3,3.48 -2.52,10.89 -0.9,14.85 1.62,3.96 6.52,6.37 10,3 1.4,-1.34 -0.72,-3.46 -2.12,-2.12 -2.77,2.67 -5.2,-1.67 -5.64,-4 a 21.55,21.55 0 0 1 -0.08,-6.94 c 0.13,-0.91 0.37,-2.4 1.12,-3 2.68,-2.26 4.09,1.4 3.13,3.42 -1.08,2.29 -4,3.65 -6.27,4.25 a 1.51,1.51 0 0 0 0.8,2.9 z"
     id="path11692" />
  <path
     d="m 733.69,507.29 q -1.21,15.91 -1.55,31.85 c 0,1.94 3,1.94 3,0 q 0.33,-15.95 1.55,-31.85 c 0.15,-1.92 -2.85,-1.91 -3,0 z"
     id="path11694" />
  <path
     d="m 740.25,532.65 c 5.31,0.92 8,-3.72 8.55,-8.44 0.53,-5 -3.43,-7.14 -7.38,-4 a 13.53,13.53 0 0 0 -4.61,12.81 c 0.8,4.25 4.49,9.15 9.32,7.34 1.79,-0.67 1,-3.57 -0.8,-2.9 -5.73,2.15 -6.18,-7.55 -5,-10.62 0.53,-1.41 2,-4.46 3.56,-4.72 1.56,-0.26 2,1.7 1.77,2.78 -0.43,2.1 -1.38,5.42 -4.62,4.85 -1.88,-0.32 -2.69,2.57 -0.79,2.9 z"
     id="path11696" />
  <path
     d="m 760.62,523.68 a 4.11,4.11 0 0 0 -5.09,-5.07 c -4,0.95 -5.4,5.9 -5.93,9.36 -0.58,3.84 -0.68,9.78 3.22,12 3.14,1.8 6.69,0.29 8.25,-2.76 a 1.56,1.56 0 0 0 -0.24,-1.82 1.91,1.91 0 0 0 -1.76,-0.71 c -1.91,0.16 -1.93,3.17 0,3 l -0.36,-0.17 -0.23,-1.82 c -1.3,2.54 -4.65,2.18 -5.66,-0.5 a 13.14,13.14 0 0 1 -0.48,-4.59 17.3,17.3 0 0 1 0.83,-4.84 l 0.67,-1.78 q 0.79,-2.33 3.88,-1.12 c -0.41,1.88 2.49,2.68 2.9,0.8 z"
     id="path11698" />
  <path
     d="m 768.17,507.85 c -1.13,5.1 -2.1,10.21 -2.82,15.38 -0.54,3.79 -1.52,8 -1,11.81 0.57,4.43 5,7.8 8.83,4.48 1.47,-1.25 -0.66,-3.37 -2.12,-2.12 q -4.54,-2.11 -3.67,-6 l 0.2,-1.94 c 0.29,-2.79 0.67,-5.56 1.1,-8.32 0.66,-4.19 1.47,-8.34 2.39,-12.48 0.42,-1.88 -2.47,-2.68 -2.89,-0.8 z"
     id="path11700" />
  <path
     d="m 762.4,523.79 a 44.28,44.28 0 0 1 9.42,-0.13 c 1.92,0.18 1.91,-2.82 0,-3 a 44.28,44.28 0 0 0 -9.42,0.13 c -1.89,0.23 -1.91,3.23 0,3 z"
     id="path11702" />
  <path
     d="m 775.55,521.92 -0.36,9.61 c -0.1,2.53 -0.7,5.57 -0.06,8 a 1.54,1.54 0 0 0 1.45,1.1 10.56,10.56 0 0 0 3.37,-0.54 c 1.88,-0.43 1.08,-3.33 -0.8,-2.89 a 11.23,11.23 0 0 1 -2.57,0.43 l 1.45,1.11 c -0.64,-2.42 0.11,-6.05 0.21,-8.51 l 0.31,-8.33 c 0.07,-1.93 -2.93,-1.92 -3,0 z"
     id="path11704" />
  <path
     d="m 778.03,516.53 0.75,-0.37 a 1.5,1.5 0 1 0 -1.51,-2.59 l -0.75,0.37 a 1.5,1.5 0 0 0 1.51,2.59 z"
     id="path11706" />
  <path
     d="m 783.91,524.64 c -1,4 -3.43,12.33 0.77,15.37 3.71,2.68 7.89,-0.73 9.25,-4.21 1.65,-4.22 2.78,-11.66 -0.68,-15.26 -3.81,-4 -8,-0.37 -10,3.31 -0.94,1.69 1.65,3.2 2.59,1.51 0.52,-0.93 1.46,-2.87 2.54,-3.27 3.73,-1.37 3.94,3.36 4,5.14 a 20.37,20.37 0 0 1 -1.1,7.3 c -0.58,1.59 -2.16,4.17 -4.31,3.29 -1.45,-0.58 -1.39,-2.55 -1.38,-3.77 a 38.13,38.13 0 0 1 1.28,-8.62 c 0.44,-1.87 -2.45,-2.67 -2.9,-0.79 z"
     id="path11708" />
  <path
     d="m 799.63,518.84 -0.08,-0.16 -0.54,2.05 0.2,-0.12 -2,-0.54 c 1,2.16 0,7.16 -0.1,9.43 -0.15,3.24 -0.43,6.46 -0.79,9.68 -0.18,1.67 2.61,2 2.95,0.39 0.87,-4.23 -0.26,-15.35 4.49,-17.44 2.16,-1 1.88,0.49 1.66,2.4 -0.17,1.52 -0.35,3 -0.52,4.56 q -0.59,4.94 -1.19,9.87 c -0.21,1.74 2.47,2 2.95,0.4 l 0.25,-0.81 c 0.58,-1.85 -2.31,-2.64 -2.89,-0.8 l -0.25,0.81 2.94,0.4 c 0.67,-5.43 2,-11.24 2,-16.71 0,-2.35 -0.93,-4.41 -3.68,-4.07 -8.61,1.07 -7.47,14.94 -8.62,20.6 l 2.94,0.4 c 0.45,-4 0.76,-7.93 0.88,-11.92 0.07,-2.67 0.7,-6.21 -0.4,-8.7 a 1.51,1.51 0 0 0 -2.06,-0.54 l -0.19,0.12 a 1.54,1.54 0 0 0 -0.54,2 l 0.08,0.16 c 0.83,1.74 3.42,0.22 2.59,-1.51 z"
     id="path11710" />
  <path
     d="m 812.92,521.61 a 3.65,3.65 0 0 0 -1.42,2 1.51,1.51 0 0 0 1,1.84 3.2,3.2 0 0 0 1.89,0 1.54,1.54 0 0 0 1.1,-1.44 2.22,2.22 0 0 0 -2.26,-2.24 1.87,1.87 0 0 0 -1.77,1.3 2.58,2.58 0 0 0 0.3,2.2 2.3,2.3 0 0 0 3.29,0 2.51,2.51 0 0 0 0.53,-3 1.52,1.52 0 0 0 -1.69,-0.69 2.33,2.33 0 0 0 -1.73,2.18 1.5,1.5 0 0 0 3,0 c 0,0.24 -0.19,0.64 -0.47,0.71 l -1.7,-0.69 a 1,1 0 0 1 -0.07,-0.53 c 0.1,-0.19 0.1,-0.21 0,-0.06 0.12,-0.14 0.14,-0.17 0.07,-0.08 -0.07,0.09 0,0 0.09,-0.06 -0.12,0.07 -0.12,0.08 0,0 a 0.81,0.81 0 0 1 0.61,0.07 l 0.69,0.9 c -0.11,-0.32 -0.11,0.14 0,-0.18 l -0.69,0.89 a 0.83,0.83 0 0 1 -1.2,-0.67 l 1.1,-1.45 c -0.23,0.07 0,0 -0.15,0 -0.15,0 0.27,0.08 -0.15,0 l 1.05,1.84 v -0.09 c 0,0.09 0,0.06 0,-0.08 -0.2,0.17 0.19,-0.16 0,0 a 1.54,1.54 0 0 0 0.54,-2 1.51,1.51 0 0 0 -2,-0.54 z"
     id="path11712" />
  <path
     d="m 811.74,536.63 a 2.32,2.32 0 0 0 3.41,-2 1.94,1.94 0 0 0 -1.49,-2 2.79,2.79 0 0 0 -2.19,0.45 2.71,2.71 0 0 0 -1.21,2.13 2,2 0 0 0 2,1.77 2.39,2.39 0 0 0 2.44,-2.91 1.53,1.53 0 0 0 -1.89,-0.98 2.3,2.3 0 0 0 -1.75,2.18 1.5,1.5 0 0 0 1.5,1.5 1.54,1.54 0 0 0 1.5,-1.5 c 0,0.2 -0.19,0.66 -0.45,0.72 l -1.8,-1.05 a 0.86,0.86 0 0 1 0.08,-0.61 0.62,0.62 0 0 1 0.27,-0.26 c -0.12,0.06 -0.12,0.07 0,0 0.12,-0.07 0.12,0 0,0 a 0.47,0.47 0 0 1 0.31,0 0.49,0.49 0 0 1 0.29,0.11 c 0.17,0.15 0.2,0.16 0.1,0 l 0.38,1.46 c 0,-0.19 0.13,-0.26 0,-0.1 -0.13,0.16 -0.13,0.14 0,0 -0.13,0.09 -0.15,0.1 -0.06,0.05 0.09,-0.05 0.07,-0.05 -0.08,0 0.14,0 0.15,0 0,0 -0.15,0 -0.11,0 0,0 -0.2,0 -0.21,0 0,0 l -0.67,-0.38 a 1,1 0 0 1 -0.21,-1 c 0.05,-0.1 0.06,-0.11 0,0 -0.06,0.11 0,0.06 0.08,-0.1 0.08,-0.16 0.23,-0.12 0.06,-0.05 a 1.06,1.06 0 0 1 0.87,0 1.5,1.5 0 0 0 -1.51,2.59 z"
     id="path11714" />
  <path
     d="m 861.23,524.27 -0.11,-2.12 a 1.5,1.5 0 0 0 -0.75,-1.29 c -2.65,-1.31 -5.77,-2.73 -8.75,-1.59 a 5.69,5.69 0 0 0 -3.82,5.2 c 0.1,2.3 1.9,3.68 3.81,4.56 1.91,0.88 4.81,1.28 5.64,3.3 0.83,2.02 -1.23,4.14 -3.5,4.3 a 15.23,15.23 0 0 1 -4.85,-0.89 l 0.67,2.51 1,-1.21 c 1.23,-1.47 -0.88,-3.6 -2.12,-2.12 l -1,1.21 a 1.51,1.51 0 0 0 0.66,2.5 c 4.42,1.23 13.26,1.57 12.65,-5.47 -0.21,-2.44 -2.06,-4.16 -4.11,-5.27 -1.25,-0.67 -2.89,-0.9 -4,-1.71 -2.29,-1.61 -0.84,-4.3 1.57,-4.32 1.62,0 3.28,0.9 4.68,1.59 l -0.74,-1.3 0.11,2.12 c 0.1,1.92 3.1,1.93 3,0 z"
     id="path11716" />
  <path
     d="m 866.63,535.59 a 9.75,9.75 0 0 0 2.81,-9 c -0.28,-1.68 -3,-1.27 -2.94,0.4 q 0.16,7.53 -0.11,15 l 1.5,-1.5 -3.21,-0.18 0.4,2.95 a 13.93,13.93 0 0 1 4.64,-0.26 c 1.92,0.2 1.91,-2.8 0,-3 a 16.59,16.59 0 0 0 -5.44,0.36 c -1.72,0.39 -1.23,2.86 0.4,3 l 3.21,0.18 a 1.52,1.52 0 0 0 1.5,-1.5 q 0.28,-7.51 0.11,-15 l -3,0.4 a 6.67,6.67 0 0 1 -2,6 1.5,1.5 0 0 0 2.12,2.12 z"
     id="path11718" />
  <path
     d="m 962.2,522.24 c -3.54,-4.26 -12.85,-5.19 -14.48,1.49 -0.69,2.85 1.18,4.59 3.76,5.19 1.78,0.41 4.78,0.55 5.39,2.74 1.27,4.57 -5.84,4.31 -8.16,4 -1.89,-0.28 -2.7,2.61 -0.8,2.89 3.23,0.47 6.77,0.78 9.49,-1.38 a 5.94,5.94 0 0 0 2.07,-7 c -1.13,-2.53 -3.87,-3.5 -6.4,-4 -1.19,-0.24 -2.9,0 -2.16,-2.39 0.34,-1.08 2.07,-1.66 3,-1.84 a 6.4,6.4 0 0 1 6.16,2.44 c 1.23,1.49 3.34,-0.64 2.12,-2.12 z"
     id="path11720" />
  <path
     d="m 963.74,530.39 q 0.59,-1.1 1.74,0.42 a 3.07,3.07 0 0 1 -0.29,2.33 11.58,11.58 0 0 1 -2.29,2.84 13.17,13.17 0 0 0 -3,4.66 1.51,1.51 0 0 0 1.45,1.9 26,26 0 0 1 6.81,0.61 c 1.88,0.43 2.69,-2.46 0.8,-2.89 a 29.08,29.08 0 0 0 -7.61,-0.72 l 1.45,1.9 c 1.43,-4.17 8.38,-7.47 5,-12.69 a 3.82,3.82 0 0 0 -7,1.64 c -0.21,1.92 2.79,1.9 3,0 z"
     id="path11722" />
  <path
     d="m 1066.4,523.23 c -2.06,-3.1 -5.84,-5.29 -9.59,-3.85 a 7,7 0 0 0 -4.28,7.94 1.53,1.53 0 0 0 1.44,1.1 c 3.09,0.06 7.64,1.13 7.49,5.07 -0.17,4.36 -5.44,3.32 -8.26,2.64 -1.88,-0.45 -2.68,2.45 -0.8,2.9 4.52,1.07 11.56,1.32 12.12,-4.9 0.53,-6 -5.54,-8.61 -10.55,-8.71 l 1.45,1.1 a 3.88,3.88 0 0 1 3.51,-4.57 5.52,5.52 0 0 1 4.88,2.84 c 1.06,1.6 3.66,0.1 2.59,-1.52 z"
     id="path11724" />
  <path
     d="m 1069.66,529.66 q 3.4,-1.77 1.37,0.78 c -0.11,1.07 -0.63,1.57 -1.55,1.48 -1.64,0.23 -1.18,2.43 0,2.9 2.13,0.84 3.33,3.5 1.76,5.46 -1.22,1.53 -3.69,1.82 -4.56,-0.24 -0.75,-1.77 -3.34,-0.24 -2.59,1.52 1.68,4 7.18,3.76 9.55,0.58 2.85,-3.82 0.75,-8.59 -3.36,-10.22 v 2.87 c 3.81,-0.54 6.35,-4.86 3.49,-8 -2.65,-3 -6.94,-0.7 -7.11,2.89 -0.09,1.93 2.91,1.93 3,0 z"
     id="path11726" />
  <metadata
     id="metadata32079">
    <rdf:RDF>
      <cc:Work
         rdf:about="">
        <dc:title>temporal_data</dc:title>
      </cc:Work>
    </rdf:RDF>
  </metadata>
</svg>
