<svg xmlns="http://www.w3.org/2000/svg" viewBox="2069.322 813.761 451.614 149.133" width="430.717" height="134.306"  xmlns:v="https://vecta.io/nano"><style><![CDATA[.E{clip-path:url(#A)}]]></style><defs><clipPath id="A"><path d="M0 155.91h500V0H0z" fill="none" clip-rule="nonzero"/></clipPath></defs><g transform="matrix(1.722867 0 0 -1.722867 2028.566406 1018.612183)"><g class="E" fill="#9e3123"><path d="M108.702 37.469c-.489 0-.885.397-.885.885v71.12c0 .489.396.886.885.886s.885-.397.885-.886v-71.12c0-.488-.396-.885-.885-.885"/><path d="M131.301 86.848c0-1.674-.608-2.977-1.82-3.914s-2.86-1.401-4.94-1.401c-2.254 0-3.987.289-5.197.869v2.131a13.52 13.52 0 0 1 2.547-.778c.916-.192 1.827-.288 2.729-.288 1.471 0 2.585.278 3.327.837s1.115 1.339 1.115 2.335c0 .657-.13 1.199-.394 1.618s-.706.809-1.326 1.165-1.561.757-2.827 1.209c-1.768.632-3.031 1.382-3.786 2.247s-1.137 1.997-1.137 3.395c0 1.461.546 2.628 1.649 3.496s2.556 1.299 4.366 1.299c1.888 0 3.627-.347 5.211-1.04l-.685-1.922c-1.571.655-3.094.987-4.578.987-1.172 0-2.082-.251-2.741-.754s-.987-1.2-.987-2.093c0-.659.118-1.2.362-1.618s.652-.807 1.231-1.157 1.452-.739 2.641-1.164c1.993-.711 3.366-1.472 4.115-2.288s1.125-1.872 1.125-3.171"/><path d="M153.706 91.163h1.986c1.958 0 3.379.318 4.251.95.878.632 1.316 1.645 1.316 3.042 0 1.256-.411 2.191-1.238 2.806-.821.614-2.102.923-3.847.923h-2.468zm9.839 4.096c0-1.924-.655-3.403-1.968-4.439s-3.192-1.553-5.633-1.553h-2.238v-7.476h-2.21v19.004h4.925c4.753 0 7.124-1.846 7.124-5.536"/><path d="M172.634 94.491c-1.147 0-2.059-.372-2.738-1.119s-1.08-1.775-1.2-3.094h7.446c0 1.364-.306 2.404-.91 3.128-.609.724-1.472 1.085-2.598 1.085m.585-12.957c-2.109 0-3.771.639-4.985 1.922s-1.827 3.064-1.827 5.342c0 2.296.566 4.12 1.695 5.474s2.65 2.026 4.556 2.026c1.784 0 3.196-.588 4.234-1.76s1.561-2.723 1.561-4.648v-1.365h-9.813c.043-1.673.468-2.941 1.271-3.807s1.927-1.301 3.384-1.301c1.533 0 3.049.321 4.546.961v-1.923c-.762-.331-1.482-.565-2.164-.71s-1.497-.211-2.458-.211"/><path d="M186.737 83.311a7.43 7.43 0 0 1 1.101.084l.845.178v-1.651c-.233-.113-.581-.207-1.034-.279a7.6 7.6 0 0 0-1.23-.11c-2.755 0-4.135 1.449-4.135 4.353v8.474h-2.038v1.041l2.038.896.916 3.041h1.245v-3.299h4.134V94.36h-4.134v-8.382c0-.858.202-1.516.612-1.976s.964-.691 1.68-.691"/><path d="M196.965 94.491c-1.145 0-2.057-.372-2.743-1.119-.675-.744-1.077-1.775-1.199-3.094h7.448c0 1.364-.302 2.404-.907 3.128s-1.476 1.085-2.599 1.085m.581-12.957c-2.105 0-3.768.639-4.982 1.922-1.221 1.282-1.827 3.064-1.827 5.342 0 2.296.564 4.12 1.696 5.474s2.649 2.026 4.556 2.026c1.787 0 3.196-.588 4.236-1.76s1.56-2.723 1.56-4.648v-1.365h-9.81c.041-1.673.462-2.941 1.263-3.807s1.934-1.301 3.388-1.301c1.533 0 3.048.321 4.55.961v-1.923a11.53 11.53 0 0 0-2.166-.71c-.68-.143-1.502-.211-2.464-.211"/><path d="M212.96 96.297c.633 0 1.202-.051 1.704-.154l-.3-2.003c-.588.131-1.111.194-1.557.194-1.158 0-2.139-.467-2.959-1.401s-1.228-2.103-1.228-3.498V81.79h-2.157v14.249h1.781l.245-2.64h.105c.528.926 1.165 1.642 1.909 2.145a4.31 4.31 0 0 0 2.457.753"/><path d="M226.521 85.678c0-1.326-.497-2.349-1.485-3.066s-2.372-1.079-4.159-1.079c-1.888 0-3.363.298-4.417.895v2.002c.683-.348 1.417-.62 2.201-.819s1.543-.3 2.268-.3c1.127 0 1.995.181 2.601.538s.905.911.905 1.647c0 .554-.235 1.029-.714 1.421-.485.395-1.421.862-2.819 1.401-1.323.493-2.265.924-2.825 1.293s-.973.784-1.249 1.253c-.269.469-.409 1.028-.409 1.677 0 1.163.47 2.077 1.417 2.749s2.239 1.007 3.889 1.007c1.53 0 3.032-.312 4.493-.934l-.763-1.756c-1.431.589-2.726.883-3.89.883-1.021 0-1.792-.159-2.311-.48s-.783-.761-.783-1.327c0-.379.099-.705.294-.973s.509-.523.943-.768 1.267-.594 2.494-1.053c1.689-.615 2.834-1.234 3.428-1.857s.891-1.408.891-2.354"/><path d="M236.344 94.466c-1.472 0-2.532-.424-3.183-1.267s-.976-2.27-.976-4.27.336-3.435 1-4.298c.671-.862 1.739-1.292 3.213-1.292 1.326 0 2.311.484 2.96 1.45s.976 2.352.976 4.165c0 1.855-.324 3.237-.976 4.146s-1.652 1.366-3.014 1.366m.312 1.807c1.873 0 3.327-.641 4.363-1.917s1.552-3.089 1.552-5.427-.522-4.161-1.567-5.455-2.491-1.94-4.348-1.94c-.928 0-1.773.168-2.541.512a4.8 4.8 0 0 0-1.93 1.579h-.153l-.455-1.834h-1.55v20.226h2.158v-4.913l-.105-2.964h.105c1.006 1.422 2.5 2.133 4.471 2.133"/><path d="M248.368 96.039v-9.242c0-1.162.263-2.029.792-2.602s1.359-.856 2.485-.856c1.49 0 2.578.407 3.268 1.222s1.032 2.144 1.032 3.991v7.487h2.157V81.79h-1.779l-.311 1.913h-.117c-.442-.701-1.058-1.24-1.838-1.614-.788-.371-1.681-.556-2.688-.556-1.732 0-3.03.408-3.89 1.235s-1.297 2.138-1.297 3.951v9.32z"/><path d="M269.178 96.297a8.54 8.54 0 0 0 1.705-.154l-.301-2.003c-.59.131-1.108.194-1.563.194-1.148 0-2.134-.467-2.954-1.401s-1.227-2.103-1.227-3.498V81.79h-2.16v14.249h1.783l.246-2.64h.104c.53.926 1.165 1.642 1.912 2.145s1.562.753 2.455.753"/><path d="M275.014 91.476c0-.997.28-1.75.847-2.263.561-.511 1.346-.766 2.351-.766 2.104 0 3.157 1.022 3.157 3.068 0 2.139-1.064 3.211-3.197 3.211-1.014 0-1.794-.272-2.338-.82s-.82-1.356-.82-2.43m-1.169-12.077a1.93 1.93 0 0 1 .976-1.752c.648-.401 1.579-.598 2.791-.598 1.814 0 3.155.269 4.024.812s1.307 1.275 1.307 2.2c0 .775-.235 1.307-.714 1.609s-1.37.45-2.689.45h-2.589c-.977 0-1.742-.236-2.286-.706s-.82-1.137-.82-2.015m11.36 16.64v-1.366l-2.639-.312c.244-.303.46-.7.652-1.19a4.56 4.56 0 0 0 .287-1.656c0-1.396-.479-2.509-1.432-3.34s-2.26-1.247-3.923-1.247c-.428 0-.829.034-1.199.101-.919-.485-1.378-1.095-1.378-1.831 0-.392.163-.678.481-.866s.873-.279 1.649-.279h2.522c1.545 0 2.73-.324 3.556-.974s1.243-1.594 1.243-2.834c0-1.576-.631-2.778-1.898-3.606s-3.113-1.241-5.535-1.241c-1.865 0-3.3.344-4.31 1.04s-1.515 1.671-1.515 2.937c0 .867.276 1.614.83 2.249s1.334 1.06 2.344 1.285a2.24 2.24 0 0 0-.918.768 2.02 2.02 0 0 0-.373 1.208c0 .523.141.974.415 1.366s.717.767 1.311 1.131c-.735.301-1.332.819-1.796 1.547s-.698 1.559-.698 2.494c0 1.56.472 2.763 1.407 3.606s2.262 1.269 3.975 1.269c.745 0 1.417-.086 2.018-.259z"/><path d="M139.463 83.308a6.88 6.88 0 0 1 1.107.084l.843.174v-1.652c-.232-.112-.577-.205-1.031-.279a7.57 7.57 0 0 0-1.229-.108c-2.759 0-4.138 1.45-4.138 4.353v8.474h-2.038v1.039l2.038.898.913 3.04h1.25v-3.3h4.134v-1.677h-4.134V85.97c0-.858.203-1.516.609-1.975s.967-.687 1.676-.687"/><path d="M133.89 67.669V55.373c0-2.164-.655-3.868-1.965-5.108s-3.103-1.856-5.393-1.856-4.057.62-5.309 1.871c-1.252 1.246-1.878 2.962-1.878 5.145v12.244h2.207v-12.4c0-1.585.435-2.802 1.301-3.651s2.141-1.275 3.824-1.275c1.604 0 2.838.426 3.703 1.281s1.301 2.078 1.301 3.674v12.371z"/><path d="M148.345 48.667v9.214c0 1.164-.268 2.028-.794 2.602-.532.571-1.361.858-2.487.858-1.489 0-2.581-.404-3.273-1.21s-1.037-2.136-1.037-3.99v-7.474h-2.158v14.247h1.753l.353-1.949h.104c.439.701 1.058 1.242 1.855 1.631.799.384 1.686.578 2.666.578 1.716 0 3.004-.413 3.871-1.242s1.304-2.152 1.304-3.972v-9.293z"/></g><g class="E"><g fill="#9e3123"><path d="M157.088 48.667h-2.158v14.247h2.158zm-2.338 18.105c0 .495.119.859.364 1.087s.544.344.908.344a1.26 1.26 0 0 0 .897-.35c.251-.235.377-.594.377-1.081s-.126-.845-.377-1.084a1.25 1.25 0 0 0-.897-.358c-.364 0-.663.119-.908.358s-.364.601-.364 1.084m10.034-18.105l-5.405 14.247h2.311l3.07-8.447 1.221-3.851h.103c.093.458.398 1.411.903 2.854l3.409 9.444h2.32l-5.411-14.247zm15.647 12.7c-1.141 0-2.053-.373-2.732-1.118s-1.081-1.775-1.204-3.094h7.446c0 1.358-.304 2.402-.909 3.126s-1.472 1.086-2.601 1.086m.59-12.957c-2.112 0-3.77.64-4.987 1.923s-1.828 3.062-1.828 5.342c0 2.294.566 4.119 1.699 5.469s2.647 2.03 4.556 2.03c1.785 0 3.195-.588 4.236-1.764s1.558-2.721 1.558-4.646v-1.365h-9.812c.043-1.671.465-2.94 1.267-3.805s1.931-1.302 3.384-1.302c1.538 0 3.052.318 4.552.963v-1.924c-.762-.33-1.485-.565-2.164-.71s-1.503-.211-2.461-.211m15.414 14.764c.634 0 1.198-.055 1.702-.156l-.3-2.003c-.59.129-1.11.194-1.56.194-1.151 0-2.136-.468-2.956-1.404s-1.23-2.1-1.23-3.495v-7.643h-2.156v14.247h1.779l.248-2.64h.103c.53.927 1.166 1.643 1.913 2.144a4.31 4.31 0 0 0 2.457.756m13.555-10.62c0-1.328-.492-2.35-1.482-3.068s-2.373-1.077-4.158-1.077c-1.889 0-3.36.294-4.419.896v2a10.79 10.79 0 0 1 2.203-.819c.784-.199 1.54-.296 2.268-.296 1.125 0 1.994.177 2.598.536s.911.907.911 1.645c0 .557-.241 1.029-.722 1.423s-1.419.861-2.815 1.397c-1.321.496-2.268.927-2.824 1.295s-.977.784-1.249 1.255-.411 1.024-.411 1.676a3.19 3.19 0 0 0 1.417 2.748c.947.67 2.241 1.009 3.887 1.009 1.537 0 3.033-.313 4.498-.938l-.767-1.754c-1.429.589-2.727.885-3.887.885-1.025 0-1.794-.163-2.314-.481s-.779-.765-.779-1.327c0-.381.098-.706.289-.976.197-.268.512-.521.947-.765s1.266-.593 2.495-1.054c1.689-.614 2.83-1.235 3.426-1.857s.888-1.409.888-2.353m5.668-3.887h-2.157v14.247h2.157zm-2.339 18.105c0 .495.121.859.365 1.087s.541.344.909.344a1.27 1.27 0 0 0 .897-.35c.25-.235.376-.594.376-1.081s-.126-.845-.376-1.084a1.26 1.26 0 0 0-.897-.358c-.368 0-.67.119-.909.358s-.365.601-.365 1.084m11.517-16.581a6.79 6.79 0 0 1 1.102.084l.846.174v-1.652c-.235-.112-.577-.205-1.033-.279a7.69 7.69 0 0 0-1.227-.108c-2.758 0-4.135 1.45-4.135 4.353v8.474h-2.038v1.039l2.038.898.91 3.041h1.247v-3.301h4.136v-1.677h-4.136v-8.384c0-.858.202-1.516.612-1.975s.968-.687 1.678-.687m2.533 12.723h2.311l3.125-8.124 1.273-4.018h.104l.706 2.269c.363 1.07 1.536 4.36 3.53 9.873h2.314l-6.123-16.223c-.605-1.605-1.315-2.737-2.123-3.412-.81-.669-1.808-1.008-2.983-1.008-.658 0-1.31.076-1.951.223v1.729c.475-.107 1.008-.159 1.596-.159 1.484 0 2.542.834 3.174 2.498l.792 2.027z"/></g><g fill="#5b6770"><path d="M53.094 108.294l.077-.177c.461-.98 1.304-1.927 1.304-1.927l.018.009s.121.091.367.23l.292.156a9.08 9.08 0 0 0 1.043.438c1.016.36 2.368.472 2.368.472s-1.26 1.752-1.497 4.283c-.134 1.435-.079 2.187-.063 2.231l-.256.012a4.01 4.01 0 0 1-2.525-.89l-.051-.041a4.02 4.02 0 0 1-1.455-3.099c0-.348.048-.683.131-1.005l.247-.692m7.057-.349c.257-.277.514-.399.747-.399h.06c.233 0 .49.122.747.399.565.546 1.161 1.471 1.563 2.59.579 1.622.41 2.992-.267 3.642-.335.302-.746.504-1.201.57-.101.015-.275.024-.449.029a1.8 1.8 0 0 1 1.364 1.742c0 .996-.807 1.803-1.803 1.803a1.8 1.8 0 0 1-.44-3.545l-.416-.029a2.28 2.28 0 0 1-1.201-.571c-.677-.65-.846-2.019-.267-3.641.403-1.119.998-2.044 1.563-2.59m17.203-11.929c.413-.654.393-1.473.393-1.473s.832-.144 1.241-.553l.073.074c.559.688 1.588 1.815 1.885 3.45.241 1.332.085 3.198-.196 3.795-.01.021-.019.054-.03.072.267.31.708 1.027 1.928 1.027.448 0 .847-.123 1.171-.277.536-.258.864-.597.864-.597l-1.602-2.765c-.282-.456-.487-.811-1.053-2.06-.472-1.041-.599-1.731-.518-2.476.069-.626.401-1.823.545-3.025.275-2.306-.18-3.431-.18-3.431l.028.018c-.004-.009-.01-.027-.01-.027s2.733 1.805 4.46 5.835c-.338.067-.594.156-.822.269a3.92 3.92 0 0 0-.644.42c-1.529 1.168-1.184 2.411-.687 2.997l.44.49 1.237 1.333c.551.643.752 1.285.822 1.853l.051.594c0 1.695-.822 2.849-1.87 3.427a3.46 3.46 0 0 1-1.097.39c-1.172.203-2.606-.238-3.654-.952-.399-.271-1.058-.876-1.242-1.331-.23-1.142.112-1.432.458-2.614.007-.023.022-.041.029-.066.718-2.626.35-3.897-2.02-4.397m-11.732 2.347c.308-.656.873-1.29.873-1.29.009.001.089-.08.089-.08s.309.271 1.122.587c.672.261 1.53.353 1.53.353s-.843 1.172-1.001 2.867c-.092.981-.051 1.489-.042 1.497l-.017.008c-.43.073-.874-.011-1.282-.204-.282-.157-.53-.33-.739-.516-.364-.324-.608-.687-.702-1.075-.149-.415-.202-.872-.113-1.345a6.15 6.15 0 0 1 .282-.802m3.741 1.735c.365-1.016.968-1.868 1.435-2.047.071-.029.14-.048.204-.048h.001c.482.057 1.12 1.029 1.429 2.219.289 1.113.093 2.045-.395 2.439-.111.083-.233.155-.362.212a2.1 2.1 0 0 1-.412.138c-.023.005-.044.013-.067.02.4.196.669.635.647 1.138-.022.496-.324.909-.733 1.072-.14.059-.293.089-.453.082-.615-.028-1.091-.585-1.061-1.246a1.2 1.2 0 0 1 .749-1.077h.001a1.94 1.94 0 0 1-.805-.436c-.453-.435-.566-1.381-.178-2.466m3.293-2.075s1.437-.011 2.872-.571c.026-.01.043-.024.067-.036.192.245.471.632.658 1.028.128.273.275.762.282.803a2.55 2.55 0 0 1-.113 1.344c-.095.388-.338.751-.702 1.075-.209.187-.458.359-.74.516-.425.202-.869.286-1.298.213.009-.007.05-.516-.042-1.497-.159-1.694-1.001-2.866-1.001-2.866s.013-.002.021-.002zm-9.363 9.472s1.352-.113 2.368-.472c.43-.152.776-.305 1.042-.438l.292-.156.368-.231.002.003c.015-.011.859.936 1.319 1.915l.078.178.246.692a4.01 4.01 0 0 1 .132 1.004 4.02 4.02 0 0 1-1.455 3.1l-.052.04c-.691.556-1.568.891-2.524.891-.087 0-.171-.008-.256-.013.015-.043.071-.796-.063-2.23-.238-2.531-1.497-4.283-1.497-4.283m.893-3.892l.253-1.144c.005.002.097-.004.097-.008.601.241 1.78.594 1.78.988v1.26c0 .229-.23.444-.638.631-.831.388-2.39.657-4.162.69l-1.028.003c-1.829-.019-3.47-.293-4.326-.693-.408-.187-.646-.402-.646-.631v-1.26c0-.394 1.192-.747 1.792-.988a.55.55 0 0 0 .102.008l.257 1.144s-.129.052-.154.105c-.073.158.06.249.283.374s.588.194.899.206c.188-.692.216-1.777.175-2.709-.082-1.869-.435-4.215-1.542-5.811.421-.408.885-.938 1.361-1.618 1.148 2.202 1.329 4.611 1.425 7.092v3.246l.817.044c.353 0 .704-.042.811-.044v-3.246c.098-2.526.278-4.977 1.482-7.211.437.638.865 1.152 1.262 1.557l.082.116c-1.141 1.597-1.499 3.982-1.582 5.875-.041.932-.014 2.017.175 2.709.311-.012.677-.085.898-.206s.355-.216.282-.374c-.024-.053-.155-.105-.155-.105m15.48-17.64c-.035.012-.052.016-.07.014l-.03-.002-.188-.019c-.657-.041-1.295.008-1.823.214-.298.099-.556.268-.806.445l-.847.75c-.484.453-1.398 1.117-2.344 1.211-1.065.105-1.745-.285-2.51-.586-.071-.029-.126-.098-.131-.18-.005-.089.047-.167.125-.201.026-.015.055-.026.087-.028.756-.054 1.477-.183 2.16-.384.507-.153 1.01-.316 1.408-.599.523-.372.975-.845 1.276-1.036.39-.247.736-.486 1.183-.575.471-.08.96-.047 1.419.072.021.005.041.012.061.018.122.03.239.076.356.121.159.063.314.135.458.219l.018.011c.094.055.193.1.28.166.063.046.096.115.089.188-.008.095-.081.166-.171.181m-2.928 7.039c.048-.151.208-.311.389-.416.57-.331.772-.816-.08-.917-.621-.073-1.269.341-3.564-.29-1.347-.37-2.934-1.729-3.485-2.355-.171-.194-.346-.418-.51-.655-.533-.769-.527-1.804.048-2.541.343-.439.726-.725.838-.8 2.016-1.365 3.907-.235 4.114-.028.164.164.175.23.143.273-.021.014-.658-.33-1.552-.33-.507 0-1.025.089-1.456.282-.316.144-1.045.534-1.475 1.223-.278.446-.22 1.022.117 1.426a6.67 6.67 0 0 0 1.132 1.071c.866.637 1.859 1.021 3.011 1.038l.083.004c.58 0 1.134-.101 1.656-.272a5.45 5.45 0 0 0 .763-.318 5.34 5.34 0 0 0 1.868-1.586c.206.312.418.793.598 1.466l.093.371c.255 1.129.181 3.75-2.312 3.75-.046 0-.093-.02-.138-.031-.266-.071-.329-.214-.281-.365m-40.976 6.11l1.236-1.333.44-.49c.498-.585.842-1.828-.687-2.997-.213-.163-.415-.304-.643-.419s-.484-.203-.805-.261c-.005-.005-.011-.008-.018-.009 1.728-4.03 4.461-5.835 4.461-5.835l-.01.028.027-.019s-.454 1.126-.179 3.431c.144 1.203.476 2.399.544 3.025.082.746-.045 1.436-.517 2.476l-1.053 2.06-1.603 2.765s.329.34.865.598c.324.154.723.276 1.171.276 1.22 0 1.661-.717 1.928-1.027-.011-.018-.02-.05-.03-.072-.281-.596-.437-2.462-.196-3.794.297-1.636 1.326-2.762 1.885-3.45.009-.012.073-.075.073-.075.408.409 1.235.552 1.241.553 0 0-.02.819.393 1.473-2.37.5-2.739 1.771-2.02 4.398.007.024.021.042.028.066.347 1.181.688 1.471.459 2.614-.184.455-.843 1.059-1.242 1.331-1.048.713-2.482 1.154-3.654.952a3.45 3.45 0 0 1-1.098-.391c-1.048-.577-1.87-1.732-1.87-3.427 0-.202.028-.398.052-.593.07-.568.27-1.211.822-1.854m16.639-1.18s.858-.092 1.531-.353c.813-.315 1.122-.586 1.122-.586l.082.084c.007-.004.571.63.879 1.285.129.273.275.762.283.802.088.473.036.931-.114 1.345-.094.388-.338.751-.701 1.075-.209.186-.458.359-.74.516-.408.193-.852.277-1.281.205l.001-.008c-.009-.009.032-.517-.06-1.498-.159-1.694-1.002-2.867-1.002-2.867m-1.766.071h.001c.064 0 .133.019.204.048.467.179 1.07 1.031 1.435 2.047.388 1.085.275 2.031-.178 2.466a1.93 1.93 0 0 1-.805.436h.001a1.2 1.2 0 0 1 .749 1.077c.03.661-.447 1.219-1.061 1.246-.16.007-.313-.023-.453-.082-.41-.163-.711-.576-.733-1.072-.023-.503.247-.942.647-1.138l-.067-.02a2.1 2.1 0 0 1-.412-.138c-.129-.057-.251-.128-.363-.212-.487-.394-.683-1.326-.394-2.439.309-1.19.947-2.162 1.429-2.219m-5.25.442c.187-.397.465-.783.658-1.028.023.011.041.025.067.035 1.435.561 2.872.572 2.872.572l-.005.006.022.002s-.843 1.173-1.001 2.867c-.092.981-.051 1.489-.042 1.497-.429.072-.873-.012-1.281-.205-.3-.165-.548-.338-.757-.524-.364-.324-.608-.687-.702-1.075-.149-.415-.202-.872-.113-1.345a6.15 6.15 0 0 1 .282-.802m5.124-10.863a.22.22 0 0 1 .088.027c.077.034.129.113.124.202-.005.082-.06.151-.131.18-.765.301-1.445.691-2.51.585-.946-.093-1.86-.757-2.344-1.21l-.846-.75c-.251-.178-.508-.346-.807-.445-.528-.206-1.166-.255-1.823-.215l-.188.02-.03.002c-.018.002-.035-.003-.052-.006-.108-.024-.181-.094-.189-.189-.007-.074.026-.142.081-.184.095-.07.194-.115.288-.171l.018-.01c.144-.085.299-.156.459-.22l.355-.12.061-.018c.459-.12.948-.152 1.419-.073.448.09.793.329 1.184.576.3.191.752.663 1.275 1.036.398.282.901.446 1.408.599.683.201 1.404.33 2.16.384m-8.339 2.066l.093-.37c.18-.673.392-1.154.58-1.475.005.006.01.01.014.016.493.657 1.133 1.2 1.872 1.579.244.124.499.231.762.317.523.171 1.077.272 1.657.272l.083-.003c1.152-.018 2.145-.402 3.01-1.038.385-.283.794-.666 1.133-1.071a1.22 1.22 0 0 0 .116-1.427c-.429-.689-1.159-1.078-1.474-1.222-.431-.193-.95-.282-1.456-.282-.895 0-1.531.343-1.535.338s-.014-.004-.018-.009c-.032-.042-.021-.108.144-.273.206-.206 2.098-1.337 4.114.028.111.076.494.361.837.8.576.737.582 1.772.049 2.542-.164.236-.339.461-.51.655-.552.626-2.138 1.985-3.485 2.355-2.296.63-2.943.216-3.564.29-.853.1-.651.585-.081.916.181.105.341.265.39.416s-.015.295-.281.366c-.046.01-.092.031-.138.031-2.493 0-2.567-2.622-2.312-3.751M72.502 51.19l.004-.027c.007.009.003.018-.004.027M62.235 76.606c.085-.165.41-.428.481-.935.008-.054 1.257 1.326 1.257 1.326v1.326l-1.333-.562zm-8.144-34.792c.605.161 1.154.347 1.739.572l.866.385a6.92 6.92 0 0 1 .857.512 3.59 3.59 0 0 1 .748.711c.111.136.199.286.278.447l.107.251.054.218.003.008c.039.157-.057.318-.215.357-.061.015-.121.007-.175-.014a.3.3 0 0 1-.137-.089 2.03 2.03 0 0 0-.589-.476 3.86 3.86 0 0 0-.67-.264c-.487-.142-1.023-.215-1.571-.286l-1.666-.182-1.644-.096-1.724-.056c-.6-.032-1.223-.063-1.939-.228-.271-.066-.565-.147-.866-.289-.101-.047-.203-.101-.305-.163-.391-.244-.783-.641-.975-1.103a2.18 2.18 0 0 1-.146-1.306c.09-.391.249-.728.529-1.02.112-.117.28-.143.421-.084.048.018.171.124.171.124.496.803 1.56 1.233 1.767 1.283.859.2 2.087.254 3.27.428.6.088 1.206.201 1.812.36m-5.408 3.321c-.011-.159.109-.296.268-.307.067-.004.13.014.181.049l.009.007.1.064a2.97 2.97 0 0 0 .414.233c.424.193.853.262 1.274.272.58.017 1.168-.053 1.846-.174.73-.132 1.555-.192 2.355-.127.404.031.815.108 1.231.221.208.07.42.14.634.252.215.121.491.263.63.568.054.119.001.258-.117.312-.018.009-.037.015-.055.018l-1.142.248-1.032.265-2.139.452c-.805.138-1.762.132-2.653-.215a3.41 3.41 0 0 1-.333-.151c-.758-.39-1.411-1.093-1.471-1.987"/><path d="M49.846 47.989c.037.009.511.179.735.254.002.004-2.795 1.015-1.208 2.817l.007.07c-.279.041-.55.017-.798-.085a1.59 1.59 0 0 1-.65-.488c-.76-.943.282-1.965.31-1.985l-.685.085c-.676.462-1.798 1.601-.19 4.012a1.23 1.23 0 0 1-.122.009 1.49 1.49 0 0 1-.674-.127 2.72 2.72 0 0 1-.36-.148c-.791-.385-1.331-1.134-1.331-2.002a2.09 2.09 0 0 1 .256-.985c.116-.217.272-.412.454-.584l-.754.078c-.736.847-1.55 2.432.02 4.287l-.122.009c-.232.011-.46-.034-.674-.128a2.41 2.41 0 0 1-.397-.186c-.87-.496-1.294-1.447-1.294-2.231 0-.354.128-.931.256-1.245 1.032-2.524 5.904-1.759 7.221-1.427m24.776-4.857c-.102.063-.204.116-.305.163-.301.142-.595.224-.866.289-.716.165-1.34.196-1.939.228l-1.724.056-1.644.096-1.666.182c-.548.071-1.084.145-1.571.286-.239.075-.462.154-.67.264a2.02 2.02 0 0 0-.589.476c-.036.043-.084.072-.137.089s-.114.03-.176.014c-.157-.039-.253-.199-.214-.357l.003-.008.054-.218c.027-.079.069-.167.106-.251.08-.161.168-.311.279-.447a3.59 3.59 0 0 1 .748-.711 6.92 6.92 0 0 1 .857-.512c.287-.146.577-.272.866-.385l1.739-.572c.606-.159 1.212-.272 1.812-.359l3.27-.429c.207-.05 1.27-.48 1.767-1.283 0 0 .123-.106.171-.123.141-.06.309-.034.421.083.28.292.439.629.529 1.02a2.18 2.18 0 0 1-.146 1.306c-.192.462-.584.859-.975 1.103m-9.77 2.502c.232-.121.443-.191.651-.261.417-.113.827-.191 1.232-.221.799-.065 1.624-.005 2.354.127.678.12 1.267.191 1.846.174.421-.01.85-.079 1.275-.272.138-.064.276-.141.413-.234l.092-.061.017-.009a.29.29 0 0 1 .181-.049c.159.011.279.148.268.307-.06.894-.712 1.597-1.471 1.987a3.41 3.41 0 0 1-.333.151c-.891.347-1.848.353-2.653.214l-2.138-.451-1.032-.265c-.331-.096-1.143-.248-1.143-.248-.018-.003-.037-.01-.054-.018-.119-.054-.172-.193-.118-.312.139-.305.416-.447.613-.559M78.2 52.893c-.123.072-.256.134-.397.186a1.49 1.49 0 0 1-.674.127l-.122-.009c1.57-1.855.756-3.44.019-4.287-.121-.036-.634-.068-.753-.078.182.172.338.367.453.585.16.299.257.63.257.984 0 .869-.54 1.617-1.332 2.003a2.76 2.76 0 0 1-.359.148 1.49 1.49 0 0 1-.674.127l-.123-.01c1.608-2.41.487-3.55-.189-4.012l-.685-.084c.028.019 1.07 1.042.31 1.984-.181.225-.401.389-.65.489s-.519.126-.786.091l-.005-.076c1.587-1.803-1.21-2.813-1.202-2.816l-.006-.002.735-.253c1.317-.332 6.189-1.098 7.221 1.427.128.314.256.891.256 1.245 0 .784-.424 1.735-1.294 2.231"/><path d="M65.473 60.294c-.026.035-.111.055-.111.055-.04.006-.082.005-.117-.016a1.94 1.94 0 0 1-.517-.459c-.121-.159-.22-.321-.279-.488s-.112-.335-.075-.514.129-.366.377-.572c.056-.045.269-.124.419-.075.306.099.458.237.563.389s.118.327.124.504a1.91 1.91 0 0 1-.076.557 1.96 1.96 0 0 1-.308.619m2.45 8.278c.101-.092.194-.2.284-.319l.084-.14.103-.204c.186-.388.306-.794.397-1.269-.085.03-.158.039-.253.041-1.131.029-1.758-.616-1.952-1.625 0 0 .362.276.668.353.27.067.65.017.65.017l-1.36-1.509c-.093.223-.229.372-.401.406-.184.036-.38-.069-.561-.266l-.716 1.753s.328.03.602-.095c.306-.141.606-.53.606-.53.047.248 0 .727-.086.995-.177.548-.585.897-1.251.981-.131.016-.261.008-.389-.01.51.791 1.094 1.37 1.687 1.657-.164-1.245 1.539-1.499 1.888-.236m.766-6.331c-.086-.491-.171-.841-.313-1.285-.109-.345-.301-.841-.446-1.148-.282.377-.823 1.282-1.387 2.313l.067.272a3.76 3.76 0 0 1 .063.541c.579.567 1.128 1.234 1.707 1.888 0 0 .268-.261.172-.728-.089-.433-.488-.708-.488-.708.373-.009.527-.029.861.115-.04-.338-.174-.91-.236-1.26m-4.031-5.38c-.581.076-.901.41-1.091.631-.531.62-.592 1.211-.593 1.216l2.061 2.513c.111-.313.338-.421.398-.43.202-.043.404.07.589.279.052-.13 1.249-2.337 1.296-2.372-.747-1.225-1.888-1.939-2.66-1.837m-1.665 6.692l.178.848c.008-.009.114-.27.377-.45.306-.211.497-.22.65-.239 0 0-.223.319-.277.727a1.63 1.63 0 0 0 .172.938c.128-.208.755-1.73.999-2.235a3.6 3.6 0 0 1-.113-.427c-.017-.083-.026-.163-.037-.244l-.022-.138c-.039-.035-1.747-2.114-2.155-2.525-.235 1.413.045 2.706.228 3.745m2.887 6.677l-.091-.038c-.348-.153-.691-.37-1.024-.651-1.355-1.146-2.524-3.291-3.034-5.866-.488-2.46-.259-4.746.484-6.268.496-1.013 1.217-1.691 2.116-1.843.884-.15 1.802.231 2.642.99 1.298 1.172 2.408 3.255 2.901 5.743.504 2.542.246 4.902-.557 6.421-.493.93-1.189 1.546-2.043 1.69-.461.078-.931.009-1.394-.178m-6.133-3.997l-3.192-1.235 2.106 3.652c.005-.018.1-.513.956-.872-.026-.13.13-1.545.13-1.545m1.142-16.099l-.043.002c-3.745.019-7.054 2.535-9.056 6.362.932 1.573 2.861 5.007 2.861 5.007.182-.703 1.257-5.36 1.257-5.36s-1.36-.586-.673-1.006 2.148-.109 2.148-.109.371-.335.772-.616c.476-.359 1.016-.624 1.596-.779l.373-.14s-.137-.643.07-.977a.41.41 0 0 1 .418-.244c.075 0 .152.017.229.045.226.083.443.265.567.392.314.323.426.554.661.866-.009.015.003.036.024.061.557.151 1.145.353 1.704 1.052-1.359.531-2.513 1.772-2.956 3.823a12.11 12.11 0 0 0-.263 2.426c-.009.899.065 1.844.242 2.812.006.034.014.066.021.1.638 3.362 2.727 5.927 3.332 6.147-.188.431-.108 1.526-1.572 2.131-.315.13-1.295.188-1.386.638.46.314.811.902.898 1.61.116.949-.284 1.801-.924 2.106.154.35.529.829.529.829l-.73.782-.147-.078-.797-.427s.24-.684.238-1.054c-.63-.209-1.098-.705-1.205-1.587-.053-.43.183-1.1.675-1.592.265-.265.318-.49.154-.655-.361-.36-1.105-.271-1.489-.83-.241-.352-.532-1.165-.532-1.165-.181-.366-1.241-2.907-1.761-3.803-.13-.225-.659-1.057-.659-1.057s-.23-.159-.488-.366c-.209-.168-.437-.369-.576-.547-.402-.513-.24-1.433.005-1.822l-3.083-5.636c-.121.256-.178.399-.178.399-.867 2.117-1.362 4.544-1.362 7.124 0 7.896 4.625 14.372 10.44 14.834h1.347c.64-.053 1.266-.18 1.874-.373.318-.1.631-.219.938-.355 4.417-1.965 7.613-7.544 7.613-14.106 0-8.196-4.982-14.864-11.106-14.864m36.582 25.667a.84.84 0 0 1-.417.503c-.19.104-.42.136-.643.069l-.036-.011c-.966-.288-1.978-.59-2.971-.82l-1.487-.349a19.45 19.45 0 0 0-1.514-.26 67.49 67.49 0 0 0-3.128-.346c-.669-.055-1.355-.102-2.021-.131l.289.076.858.252a37.31 37.31 0 0 1 1.663.566c1.094.4 2.156.835 3.217 1.3 1.059.454 2.171.969 3.153 1.603.989.653 1.918 1.334 2.787 2.182a.84.84 0 0 1 .14 1.018c-.088.153-.218.267-.367.337-.243.122-.541.124-.794-.022l-.034-.02c-.917-.529-1.886-1.073-2.854-1.537-.978-.48-1.907-.936-2.951-1.293-1.036-.362-2.092-.701-3.143-.995a34.69 34.69 0 0 0-1.576-.402l-.35-.074c.265.113.524.229.775.351.571.278 1.119.574 1.654.881 1.071.617 2.093 1.277 3.094 1.962 1.025.691 2.047 1.443 2.937 2.301.888.876 1.707 1.771 2.425 2.831a.84.84 0 0 1-.074 1.033.83.83 0 0 1-.277.198.83.83 0 0 1-.922-.134l-.032-.029c-.82-.746-1.704-1.515-2.604-2.198-.904-.695-1.785-1.373-2.774-1.939-.185-.108-.373-.208-.559-.314a42.83 42.83 0 0 0-2.49-1.319l-.487-.225c-.306-.139-.611-.272-.916-.396l.166.113c.36.253.697.517 1.028.784l.544.446c.982.835 1.898 1.718 2.775 2.612.011.012.023.023.034.034.93.946 1.801 1.923 2.539 2.999.729 1.09 1.381 2.186 1.891 3.432.145.353.033.772-.292 1-.395.275-.917.185-1.182-.193l-.026-.035a36.4 36.4 0 0 0-2.189-2.838l-.702-.812c-.55-.627-1.116-1.235-1.73-1.779-.308-.274-.62-.535-.932-.798-.564-.476-1.133-.939-1.714-1.373l.268.35c.481.66.923 1.33 1.347 2.006a51.74 51.74 0 0 1 .857 1.416 24.31 24.31 0 0 1 1.325 2.526c.173.388.338.779.484 1.177.464 1.296.839 2.583 1.037 3.985.054.385-.168.769-.549.904-.452.163-.929-.065-1.084-.5l-.014-.041a34.06 34.06 0 0 0-1.237-3.003c-.074-.157-.138-.32-.214-.474-.519-1.069-1.061-2.12-1.694-3.109l-.11-.177c-.475-.697-.97-1.373-1.477-2.033-1.563-1.741-4.197-3.484-5.622-4.177-.694-.337-1.403-.799-2.113-1.147-.011-.005-.022-.012-.033-.017-.479-.232-.89-.603-1.133-1.078-.061-.12-.111-.247-.153-.377-.076-.23-.122-.472-.122-.728 0-.912.496-1.787 1.242-2.177.249-.134.525-.214.82-.222.049-.002.088.006.13.011.255.027.397.137.397.137s-.199.535.106.776a1.12 1.12 0 0 0 .16.087c.141.063.296.101.461.101.154 0 .301-.031.435-.087.397-.174.674-.569.674-1.03a1.12 1.12 0 0 0-.977-1.11c-.249-.099-.728-.114-1.032-.114a10.2 10.2 0 0 0-1.848.176c-.824.151-1.609.411-2.342.747-.89.411-2.525 1.609-2.5 1.678-1.683 1.562-2.747 3.708-2.839 6.083-.004.109-.017.217-.017.327a9.02 9.02 0 0 0 .064 1.045c.069.585.201 1.161.385 1.717a8.83 8.83 0 0 0 1.464 2.725c.062.078.35.395.722.763l.066.066c.422.415.92.866 1.345 1.144-.026.022-.073.064-.12.109a2.79 2.79 0 0 0-.14.145c-.775.075-1.05.444-1.18.756-.005.009-.008.019-.012.029-.01.024-.022.052-.029.073a1.77 1.77 0 0 0-.025.519c.059.286.23.57.377.709a1.68 1.68 0 0 0 .218.206c.233.18.499.279.78.333a1.93 1.93 0 0 0 .213.035c.009.001.018.004.027.005.719.075 1.43-.237 1.715-.972l.003-.006c-.04-.027-.455-.105-.455-.105H73.3c-.147.316-.392.449-.68.428a1.05 1.05 0 0 1-.3-.073c-.068-.026-.125-.061-.173-.103-.462-.392-.056-1.387.584-1.457a.71.71 0 0 1 .316.042c.292.116 2.077.544 3.151.714.206.032.388.056.526.065.202.312.21 2.295-1.352 2.941-1.235.51-2.306.593-3.276.594a11.37 11.37 0 0 1-2.496-.269c-3.178-.699-5.112-2.54-6.884-6.522v-.001c-1.2-2.354-1.63-4.612-1.804-5.234 0 0-.065 0-.176-.002-.178.666-.608 2.912-1.791 5.233v.001c-1.771 3.983-3.715 5.824-6.893 6.522-.819.18-1.627.271-2.506.269-.97-.001-2.041-.083-3.276-.594-1.562-.646-1.554-2.629-1.368-2.93.15-.017.333-.041.539-.073 1.074-.17 2.859-.598 3.14-.71.121-.044.226-.056.327-.046.705.077 1.126 1.277.414 1.557-.103.041-.204.066-.3.073-.288.022-.533-.111-.68-.428l-.002.001v-.001s-.439.082-.459.108l.003.006c.285.735.996 1.047 1.715.972.009-.001.018-.004.027-.005a1.93 1.93 0 0 0 .213-.035c.375-.073.722-.224 1.001-.542a1.48 1.48 0 0 0 .377-.708c.014-.05.016-.403-.025-.519-.007-.022-.019-.049-.029-.074-.004-.01-.007-.019-.011-.029-.13-.312-.406-.681-1.181-.756a2.79 2.79 0 0 0-.14-.145c-.047-.045-.093-.087-.123-.106.454-.296.989-.79 1.414-1.213.372-.368.66-.686.722-.764.638-.799 1.136-1.731 1.465-2.726.183-.556.315-1.133.385-1.718a9.32 9.32 0 0 0 .064-1.049c0-.11-.014-.223-.018-.333a8.85 8.85 0 0 0-.044-.59c-.211-.995-.655-2.611-1.477-3.977l-.128-.186h.014c-.314-.491-.68-.944-1.104-1.314.025-.069-1.61-1.267-2.501-1.678a9.91 9.91 0 0 0-2.341-.747 10.2 10.2 0 0 0-1.848-.176c-.304 0-.784.015-1.033.114a1.12 1.12 0 0 0-.977 1.11c0 .461.278.856.675 1.03.133.056.28.087.434.087a1.13 1.13 0 0 0 .462-.101c.056-.025.109-.054.16-.087.305-.241.106-.776.106-.776s.141-.11.396-.137c.043-.005.081-.013.131-.011.295.008.571.088.819.222.746.39 1.243 1.265 1.243 2.177 0 .256-.047.498-.122.728a2.59 2.59 0 0 1-.154.377c-.242.475-.654.846-1.133 1.078-.011.005-.021.012-.032.017-.711.348-1.42.81-2.113 1.147-1.425.693-4.059 2.436-5.622 4.177-.507.66-1.003 1.336-1.477 2.033-.038.058-.073.119-.11.177-.633.989-1.175 2.04-1.695 3.109-.075.154-.14.317-.213.474-.46.986-.885 2.008-1.238 3.003l-.014.041c-.154.435-.631.663-1.066.508-.399-.143-.62-.527-.566-.912.198-1.402.573-2.689 1.037-3.985.145-.398.311-.789.484-1.177.387-.864.834-1.706 1.324-2.526l.858-1.416a34.11 34.11 0 0 1 1.347-2.006c.086-.118.177-.234.267-.35-.581.434-1.15.897-1.714 1.373l-.931.798c-.614.544-1.18 1.152-1.731 1.779l-.701.812c-.778.899-1.518 1.885-2.19 2.838l-.025.035c-.266.378-.787.468-1.165.202-.007-.005-.013-.005-.018-.009a.84.84 0 0 1-.292-1c.511-1.246 1.162-2.342 1.891-3.432.739-1.076 1.61-2.053 2.54-2.999.011-.011.023-.022.034-.034.877-.894 1.792-1.777 2.774-2.612.178-.151.361-.298.544-.446.331-.267.669-.531 1.028-.784l.167-.113a24.11 24.11 0 0 0-.916.396l-.487.225a42.83 42.83 0 0 0-2.49 1.319l-.559.314c-.989.566-1.87 1.244-2.774 1.939-.901.683-1.784 1.452-2.605 2.198l-.031.029c-.259.236-.625.277-.923.134a.83.83 0 0 1-.276-.198c-.266-.292-.286-.72-.074-1.033.718-1.06 1.536-1.955 2.425-2.831.89-.858 1.911-1.61 2.937-2.301 1-.685 2.023-1.345 3.093-1.962.536-.307 1.083-.603 1.655-.881a17.75 17.75 0 0 1 .774-.351l-.349.074a34.03 34.03 0 0 0-1.576.402c-1.051.294-2.107.633-3.144.995-1.043.357-1.972.813-2.95 1.293-.968.464-1.938 1.008-2.854 1.537l-.034.02a.84.84 0 0 1-.795.022.83.83 0 0 1-.366-.337c-.196-.338-.128-.757.14-1.018.869-.848 1.798-1.529 2.787-2.182.982-.634 2.093-1.149 3.153-1.603 1.06-.465 2.122-.9 3.217-1.3a37.71 37.71 0 0 1 1.662-.566 30.68 30.68 0 0 1 .858-.252l.289-.076c-.666.029-1.351.076-2.02.131a67.34 67.34 0 0 0-3.128.346c-.535.071-1.021.155-1.515.26a55.81 55.81 0 0 0-1.486.349c-.993.23-2.005.532-2.971.82l-.036.011c-.224.067-.453.035-.643-.069s-.35-.277-.417-.503a.84.84 0 0 1 .363-.953c.978-.603 1.976-1.046 3.024-1.453 1.032-.394 2.181-.648 3.237-.867a67.96 67.96 0 0 1 3.213-.622c.971-.16 1.914-.302 2.93-.406l-1.856-.206c-.995-.097-1.993-.18-2.991-.244a20.05 20.05 0 0 0-.75-.036l-.715-.012-1.449.027c-.969.011-1.968.079-2.931.132l-.033.001c-.174.009-.338-.035-.477-.119-.239-.136-.408-.386-.423-.682a.84.84 0 0 1 .565-.839c1.024-.351 2.036-.561 3.085-.732a15.44 15.44 0 0 1 1.587-.147c.267-.013.536-.02.804-.023l.77-.011a90.72 90.72 0 0 1 3.086-.014l1.583.035.094-.312-3.166-.942c-.924-.26-1.799-.432-2.71-.621-.902-.202-1.838-.365-2.744-.551l-.025-.007c-.062-.012-.12-.033-.176-.058a.84.84 0 0 1-.495-.942c.077-.372.389-.635.749-.668 1.011-.089 1.986-.062 2.986 0 .993.067 1.997.29 2.943.467.954.177 2.356.509 3.302.707l.075-.238c-.393-.225-1.244-.678-1.637-.896s-.787-.415-1.18-.608l-1.174-.572-2.415-1.236a.84.84 0 0 1 .559-1.566c.928.177 1.809.44 2.699.725.885.295 1.744.707 2.585 1.074l1.326.575.153-.7-.633-.442-.971-.842c-.64-.571-1.238-1.194-1.804-1.859-.305-.357-.264-.892.093-1.196.27-.231.644-.259.942-.104a17.97 17.97 0 0 1 2.232 1.367l.739.433c.003-.017.407-2.446.513-3.454.331-3.139.237-6.75.576-7.172.283-.353.846-.272 1.352-.288-.034.12-.051.232-.077.348-.001.012.003.024.001.036-.363 1.682.137 2.923.447 3.43.005.009.003.019.007.027s.036.113.035.134c-.11 1.996-.378 5.216-.829 7.717l-2.269 12.178c-.02.108.018.205.085.272a.32.32 0 0 0 .293.072c1.223-.309 3.232-.489 4.529-.575a16.87 16.87 0 0 1 5.663.674c-1.009-2.382-1.585-5.115-1.585-8.019 0-5.694 2.21-10.729 5.576-13.75-.398-.063-.694-.119-.777-.148-.867-.304-1.547-.741-1.928-.963-.009-.005-.016-.014-.024-.02-.025-.012-.054-.023-.076-.036-.131-.073-.139-.221-.108-.369a3.63 3.63 0 0 1 .542-1.229c.049-.067.098-.132.182-.137 3.147-.157 5.462-.396 7.317-1.572.008-.006.016-.011.024-.017.051-.031.098-.07.148-.104.876-.69 1.23-2.119.515-3.135-.246-.253-.502-.498-.755-.732-.863-.743-1.799-1.377-2.782-1.851s-2.011-.777-3.053-.928c-1.049-.192-2.095-.331-3.463-.654l-.008-.003a.33.33 0 0 1-.264-.406c.014-.058.043-.109.08-.15 1.004-1.084 2.489-1.514 3.92-1.434 1.083.084 2.133.395 3.094.855a9.94 9.94 0 0 1 .932.506c1.193.737 2.217 1.696 2.992 2.827.016.023.031.047.046.071l-.009-.037c-.176-.611-.758-2.215-1.225-2.751-.471-.543-.903-1.062-1.402-1.471a6.4 6.4 0 0 0-1.197-.781c-.143-.071-.29-.138-.443-.2-.628-.261-1.35-.429-2.199-.611l-.008-.002c-.043-.01-.081-.028-.115-.052a.31.31 0 0 1-.02-.518c.755-.536 1.707-.786 2.694-.727.499.03.998.15 1.47.344.466.19.905.451 1.289.771.129.106.232.224.348.342.217-.434.447-.867.614-1.298.22-.516.395-1.031.678-1.546.063-.116.205-.169.26-.16 0-.009.221.044.285.16.283.515.483 1.03.703 1.546.167.431.397.864.614 1.298.115-.118.219-.236.347-.342.385-.32.824-.581 1.29-.771a4.6 4.6 0 0 1 1.47-.344c.987-.059 1.939.191 2.693.727a.31.31 0 0 1-.02.518c-.033.024-.072.042-.115.052l-.008.002c-.848.182-1.57.35-2.198.611-.153.062-.3.129-.443.2-.435.217-.825.477-1.198.781-.498.409-.93.928-1.402 1.471-.466.536-1.049 2.14-1.224 2.751-.003.013-.007.025-.01.037l.047-.071c.774-1.131 1.799-2.09 2.992-2.827.299-.184.61-.353.931-.506.962-.46 2.012-.771 3.095-.855 1.431-.08 2.916.35 3.92 1.434.037.041.066.092.079.15.033.139-.03.276-.143.35a.33.33 0 0 1-.12.056l-.008.003c-1.369.323-2.415.462-3.463.654a10.33 10.33 0 0 0-3.054.928c-.983.474-1.919 1.108-2.781 1.851a19.19 19.19 0 0 0-.755.732c-.715 1.016-.362 2.445.514 3.135.051.034.097.073.148.104.008.006.017.011.025.017 1.855 1.176 4.169 1.415 7.317 1.572.083.005.132.07.182.137.224.304.452.817.541 1.229.031.148.022.296-.109.369-.022.013-.052.024-.077.036-.009.006-.019.015-.028.02-.381.222-1.067.659-1.934.963-.079.028-.367.081-.74.14 3.372 3.02 5.588 8.058 5.588 13.758 0 2.903-.582 5.63-1.592 8.011a16.91 16.91 0 0 1 5.634-.666c1.297.086 3.306.266 4.529.575a.32.32 0 0 0 .293-.072c.067-.067.105-.164.085-.272l-2.269-12.178c-.452-2.501-.719-5.721-.829-7.717-.001-.021.028-.123.035-.134s.001-.018.007-.027c.31-.507.809-1.748.447-3.43-.003-.012.001-.024 0-.036-.025-.116-.042-.228-.076-.348.505.016 1.068-.065 1.352.288.339.422.245 4.033.575 7.172.106 1.008.51 3.437.513 3.454l.739-.433c.7-.503 1.439-.955 2.215-1.358.01-.004.014-.007.018-.009.297-.155.672-.127.942.104a.85.85 0 0 1 .093 1.196c-.566.665-1.164 1.288-1.804 1.859l-.972.842c-.002.001-.495.346-.632.442l.152.7 1.327-.575c.841-.367 1.7-.779 2.584-1.074.891-.285 1.771-.548 2.699-.725a.84.84 0 0 1 .56 1.566l-.014.008c-.785.425-1.599.813-2.386 1.22l-.018.009-1.171.571a25.9 25.9 0 0 0-1.18.608l-1.637.896.075.238 3.302-.707c.946-.177 1.95-.4 2.943-.467.999-.062 1.974-.089 2.985 0 .361.033.673.296.75.668a.84.84 0 0 1-.495.942c-.056.025-.114.046-.176.058l-.025.007-2.744.551c-.911.189-1.786.361-2.71.621-1.186.332-1.99.573-3.167.942l.095.312 1.582-.035a90.71 90.71 0 0 1 3.086.014l.77.011c.269.003.538.01.805.023a15.49 15.49 0 0 1 1.587.147c1.049.171 2.06.381 3.084.732a.84.84 0 0 1 .566.839c-.016.296-.184.546-.423.682a.84.84 0 0 1-.478.119l-.032-.001c-.963-.053-1.962-.121-2.932-.132l-1.448-.027-.715.012-.751.036c-.997.064-1.995.147-2.99.244l-1.856.206c1.015.104 1.959.246 2.929.406a67.96 67.96 0 0 1 3.213.622c1.057.219 2.206.473 3.238.867 1.048.407 2.046.85 3.024 1.453a.84.84 0 0 1 .363.953M43.087 63.23h-.717v.576h1.403v-2.777h-.686z"/><path d="M44.743 60.29l1.501 2.904h-1.648v.612h2.333v-.479l-1.591-3.236zm29.94 1.235c.353.27 1.404.902 1.404 1.28 0 .299-.211.387-.513.387-.255 0-.529-.093-.657-.147l-.166.476a1.92 1.92 0 0 0 .851.211c.901 0 1.126-.461 1.126-.907 0-.594-.803-1.079-1.219-1.31h1.356v-.53h-2.182zm3.998-.003v1.449l-.818-1.449zm0-.534l-1.501-.002v.536l1.206 2.136h.947v-2.136h.513v-.534h-.513v-.937h-.652z"/></g></g></g></svg>