<?xml version="1.0" encoding="UTF-8" standalone="no"?>
<!-- Generator: Adobe Illustrator 23.0.3, SVG Export Plug-In . SVG Version: 6.00 Build 0)  -->

<svg
   version="1.1"
   id="Layer_1"
   x="0px"
   y="0px"
   viewBox="0 0 518 268.3"
   style="enable-background:new 0 0 518 268.3;"
   xml:space="preserve"
   sodipodi:docname="same_sfs.svg"
   inkscape:version="1.3.2 (1:1.3.2+202311252150+091e20ef0f)"
   xmlns:inkscape="http://www.inkscape.org/namespaces/inkscape"
   xmlns:sodipodi="http://sodipodi.sourceforge.net/DTD/sodipodi-0.dtd"
   xmlns:xlink="http://www.w3.org/1999/xlink"
   xmlns="http://www.w3.org/2000/svg"
   xmlns:svg="http://www.w3.org/2000/svg"><defs
   id="defs292" /><sodipodi:namedview
   id="namedview292"
   pagecolor="#ffffff"
   bordercolor="#000000"
   borderopacity="0.25"
   inkscape:showpageshadow="2"
   inkscape:pageopacity="0.0"
   inkscape:pagecheckerboard="0"
   inkscape:deskcolor="#d1d1d1"
   inkscape:zoom="2.9852159"
   inkscape:cx="305.33805"
   inkscape:cy="121.76674"
   inkscape:window-width="1223"
   inkscape:window-height="774"
   inkscape:window-x="57"
   inkscape:window-y="26"
   inkscape:window-maximized="1"
   inkscape:current-layer="g292" />
<style
   type="text/css"
   id="style1">
	.st0{enable-background:new    ;}
	.st1{clip-path:url(#SVGID_2_);}
	.st2{fill:none;stroke:#000000;stroke-width:0.8;stroke-linejoin:round;stroke-miterlimit:10;}
	.st3{font-family:'DejaVuSans';}
	.st4{font-size:10px;}
	.st5{fill:none;stroke:#000000;stroke-width:0.8;stroke-linecap:square;stroke-miterlimit:10;}
	.st6{clip-path:url(#SVGID_8_);}
	.st7{clip-path:url(#SVGID_10_);fill:none;stroke:#1F77B4;stroke-miterlimit:10;}
	.st8{clip-path:url(#SVGID_8_);enable-background:new    ;}
	.st9{opacity:0.5;clip-path:url(#SVGID_12_);fill:#1F77B4;}
	.st10{clip-path:url(#SVGID_14_);}
	.st11{clip-path:url(#SVGID_20_);}
	.st12{clip-path:url(#SVGID_22_);fill:none;stroke:#1F77B4;stroke-miterlimit:10;}
	.st13{clip-path:url(#SVGID_20_);enable-background:new    ;}
	.st14{opacity:0.5;clip-path:url(#SVGID_24_);fill:#1F77B4;}
	.st15{fill:#FFFFFF;}
	.st16{clip-path:url(#SVGID_26_);fill:#FF0000;}
	.st17{clip-path:url(#SVGID_28_);fill:#FF0018;}
	.st18{clip-path:url(#SVGID_30_);fill:#FF0018;}
	.st19{clip-path:url(#SVGID_32_);fill:#FF0082;}
	.st20{clip-path:url(#SVGID_34_);fill:#FF00E1;}
	.st21{clip-path:url(#SVGID_36_);fill:#F400FF;}
	.st22{clip-path:url(#SVGID_38_);fill:#DC00FF;}
	.st23{clip-path:url(#SVGID_40_);fill:#D000FF;}
	.st24{clip-path:url(#SVGID_42_);fill:#C500FF;}
	.st25{clip-path:url(#SVGID_44_);fill:#BF00FF;}
	.st26{clip-path:url(#SVGID_46_);fill:#00FF5C;}
	.st27{clip-path:url(#SVGID_48_);fill:#FF0000;}
	.st28{clip-path:url(#SVGID_50_);fill:#FF0000;}
	.st29{clip-path:url(#SVGID_52_);fill:#FF0000;}
	.st30{clip-path:url(#SVGID_54_);fill:#FF0000;}
	.st31{clip-path:url(#SVGID_56_);fill:#FF0000;}
	.st32{clip-path:url(#SVGID_58_);fill:#FF0000;}
	.st33{clip-path:url(#SVGID_60_);fill:#FF0000;}
	.st34{clip-path:url(#SVGID_62_);fill:#FF0000;}
	.st35{clip-path:url(#SVGID_64_);fill:#FF0000;}
	.st36{clip-path:url(#SVGID_66_);fill:#FF0000;}
	.st37{fill:none;stroke:#000000;stroke-width:0.2588;stroke-linejoin:round;stroke-miterlimit:10;}
	.st38{fill:none;stroke:#000000;stroke-width:0.2588;stroke-linecap:square;stroke-miterlimit:10;}
	.st39{fill:none;stroke:#000000;stroke-width:0.6874;stroke-miterlimit:10;}
</style>
<g
   class="st0"
   id="g292">
	<g
   id="g4">
		<defs
   id="defs1">
			<rect
   id="SVGID_1_"
   x="49.8"
   y="10.8"
   width="89.4"
   height="138" />
		</defs>
		<clipPath
   id="SVGID_2_">
			<use
   xlink:href="#SVGID_1_"
   style="overflow:visible;"
   id="use1" />
		</clipPath>
		<g
   class="st1"
   clip-path="url(#SVGID_2_)"
   id="g2">
			<defs
   id="defs2">
				<rect
   id="SVGID_3_"
   x="-7.1"
   width="158"
   height="173" />
			</defs>
			<clipPath
   id="SVGID_4_">
				<use
   xlink:href="#SVGID_3_"
   style="overflow:visible;"
   id="use2" />
			</clipPath>
		</g>
		<g
   class="st1"
   clip-path="url(#SVGID_2_)"
   id="g3">
			<defs
   id="defs3">
				<rect
   id="SVGID_5_"
   x="-7.1"
   width="158"
   height="173" />
			</defs>
			<clipPath
   id="SVGID_6_">
				<use
   xlink:href="#SVGID_5_"
   style="overflow:visible;"
   id="use3" />
			</clipPath>
		</g>
	</g>
	<line
   class="st2"
   x1="49.8"
   y1="148.8"
   x2="46.3"
   y2="148.8"
   id="line4" />
	<text
   transform="matrix(1 0 0 1 36.4724 152.625)"
   class="st3 st4"
   id="text4">0</text>
	<line
   class="st2"
   x1="49.8"
   y1="117.7"
   x2="46.3"
   y2="117.7"
   id="line5" />
	<text
   transform="matrix(1 0 0 1 23.7537 121.5376)"
   class="st3 st4"
   id="text5">500</text>
	<line
   class="st2"
   x1="49.8"
   y1="86.7"
   x2="46.3"
   y2="86.7"
   id="line6" />
	<text
   transform="matrix(1 0 0 1 17.3943 90.4501)"
   class="st3 st4"
   id="text6">1000</text>
	<line
   class="st2"
   x1="49.8"
   y1="55.6"
   x2="46.3"
   y2="55.6"
   id="line7" />
	<text
   transform="matrix(1 0 0 1 17.3943 59.3632)"
   class="st3 st4"
   id="text7">1500</text>
	<line
   class="st2"
   x1="49.8"
   y1="24.5"
   x2="46.3"
   y2="24.5"
   id="line8" />
	<text
   transform="matrix(1 0 0 1 17.3943 28.2753)"
   class="st3 st4"
   id="text8">2000</text>
	<text
   transform="matrix(6.123234e-17 -1 1 6.123234e-17 11.3165 137.3225)"
   class="st3 st4"
   id="text9">time ago (generations)</text>
	<line
   class="st5"
   x1="49.8"
   y1="148.8"
   x2="49.8"
   y2="10.8"
   id="line9" />
	<g
   id="g13">
		<defs
   id="defs9">
			<rect
   id="SVGID_7_"
   x="49.8"
   y="10.8"
   width="89.4"
   height="138" />
		</defs>
		<clipPath
   id="SVGID_8_">
			<use
   xlink:href="#SVGID_7_"
   style="overflow:visible;"
   id="use9" />
		</clipPath>
		<g
   class="st6"
   clip-path="url(#SVGID_8_)"
   id="g10">
			<defs
   id="defs10">
				<rect
   id="SVGID_9_"
   x="-7.1"
   width="158"
   height="173" />
			</defs>
			<clipPath
   id="SVGID_10_">
				<use
   xlink:href="#SVGID_9_"
   style="overflow:visible;"
   id="use10" />
			</clipPath>
			<path
   class="st7"
   d="M124.2,10.8v65.4H95.1v11.3h29.2v61.3 M64.8,10.8v65.4H94v11.3H64.8v61.3"
   clip-path="url(#SVGID_10_)"
   id="path10" />
		</g>
		<g
   class="st8"
   clip-path="url(#SVGID_8_)"
   id="g12">
			<g
   id="g11">
				<defs
   id="defs11">
					<rect
   id="SVGID_11_"
   x="-7.1"
   width="158"
   height="173" />
				</defs>
				<clipPath
   id="SVGID_12_">
					<use
   xlink:href="#SVGID_11_"
   style="overflow:visible;"
   id="use11" />
				</clipPath>
				<polygon
   class="st9"
   points="124.2,10.8 64.8,10.8 64.8,76.2 94,76.2 94,87.5 64.8,87.5 64.8,148.8 124.2,148.8 124.2,87.5       95.1,87.5 95.1,76.2 124.2,76.2     "
   clip-path="url(#SVGID_12_)"
   id="polygon11" />
			</g>
		</g>
	</g>
	<g
   class="st0"
   id="g26">
		<g
   id="g16">
			<defs
   id="defs13">
				<rect
   id="SVGID_13_"
   x="434.7"
   y="10.8"
   width="89.4"
   height="138" />
			</defs>
			<clipPath
   id="SVGID_14_">
				<use
   xlink:href="#SVGID_13_"
   style="overflow:visible;"
   id="use13" />
			</clipPath>
			<g
   class="st10"
   clip-path="url(#SVGID_14_)"
   id="g14">
				<defs
   id="defs14">
					<rect
   id="SVGID_15_"
   x="377.8"
   width="158"
   height="173" />
				</defs>
				<clipPath
   id="SVGID_16_">
					<use
   xlink:href="#SVGID_15_"
   style="overflow:visible;"
   id="use14" />
				</clipPath>
			</g>
			<g
   class="st10"
   clip-path="url(#SVGID_14_)"
   id="g15">
				<defs
   id="defs15">
					<rect
   id="SVGID_17_"
   x="377.8"
   width="158"
   height="173" />
				</defs>
				<clipPath
   id="SVGID_18_">
					<use
   xlink:href="#SVGID_17_"
   style="overflow:visible;"
   id="use15" />
				</clipPath>
			</g>
		</g>
		<line
   class="st2"
   x1="434.7"
   y1="148.8"
   x2="431.2"
   y2="148.8"
   id="line16" />
		<text
   transform="matrix(1 0 0 1 421.3471 152.625)"
   class="st3 st4"
   id="text16">0</text>
		<line
   class="st2"
   x1="434.7"
   y1="117.7"
   x2="431.2"
   y2="117.7"
   id="line17" />
		<text
   transform="matrix(1 0 0 1 408.6284 121.5376)"
   class="st3 st4"
   id="text17">500</text>
		<line
   class="st2"
   x1="434.7"
   y1="86.7"
   x2="431.2"
   y2="86.7"
   id="line18" />
		<text
   transform="matrix(1 0 0 1 402.269 90.4501)"
   class="st3 st4"
   id="text18">1000</text>
		<line
   class="st2"
   x1="434.7"
   y1="55.6"
   x2="431.2"
   y2="55.6"
   id="line19" />
		<text
   transform="matrix(1 0 0 1 402.269 59.3632)"
   class="st3 st4"
   id="text19">1500</text>
		<line
   class="st2"
   x1="434.7"
   y1="24.5"
   x2="431.2"
   y2="24.5"
   id="line20" />
		<text
   transform="matrix(1 0 0 1 402.269 28.2753)"
   class="st3 st4"
   id="text20">2000</text>
		<text
   transform="matrix(6.123234e-17 -1 1 6.123234e-17 396.1912 137.3225)"
   class="st3 st4"
   id="text21">time ago (generations)</text>
		<line
   class="st5"
   x1="434.7"
   y1="148.8"
   x2="434.7"
   y2="10.8"
   id="line21" />
		<g
   id="g25">
			<defs
   id="defs21">
				<rect
   id="SVGID_19_"
   x="434.7"
   y="10.8"
   width="89.4"
   height="138" />
			</defs>
			<clipPath
   id="SVGID_20_">
				<use
   xlink:href="#SVGID_19_"
   style="overflow:visible;"
   id="use21" />
			</clipPath>
			<g
   class="st11"
   clip-path="url(#SVGID_20_)"
   id="g22">
				<defs
   id="defs22">
					<rect
   id="SVGID_21_"
   x="377.8"
   width="158"
   height="173" />
				</defs>
				<clipPath
   id="SVGID_22_">
					<use
   xlink:href="#SVGID_21_"
   style="overflow:visible;"
   id="use22" />
				</clipPath>
				<path
   class="st12"
   d="M509.2,10.8v27.6l-4.5,2l-3.8,2l-3.2,2l-2.7,2l-2.3,2l-2,2l-1.7,2l-1.4,2l-1.5,2.5l-1.2,2.5l-1,2.5l-0.9,3      l-0.9,3.5l-0.7,4l-0.6,4.5l-0.5,5.5l-0.3,5.5h29.3v61.2 M449.6,10.8v27.6l4.5,2l3.8,2l3.2,2l2.7,2l2.3,2l2,2l1.7,2l1.4,2      l1.5,2.5l1.2,2.5l1,2.5l1,3l0.9,3.5l0.7,4l0.6,4.5l0.5,5.5l0.3,5.5h-29.3v61.2"
   clip-path="url(#SVGID_22_)"
   id="path22" />
			</g>
			<g
   class="st13"
   clip-path="url(#SVGID_20_)"
   id="g24">
				<g
   id="g23">
					<defs
   id="defs23">
						<rect
   id="SVGID_23_"
   x="377.8"
   width="158"
   height="173" />
					</defs>
					<clipPath
   id="SVGID_24_">
						<use
   xlink:href="#SVGID_23_"
   style="overflow:visible;"
   id="use23" />
					</clipPath>
					<polygon
   class="st14"
   points="509.2,10.8 449.6,10.8 449.6,38.4 450.8,38.9 452,39.4 453.1,39.9 454.1,40.4 455.1,40.9        456.1,41.4 457,41.9 457.9,42.4 458.8,42.9 459.6,43.4 460.4,43.9 461.1,44.4 461.9,44.9 462.6,45.4 463.2,45.9 463.9,46.4        464.5,46.9 465.1,47.3 465.7,47.8 466.2,48.3 466.7,48.8 467.2,49.3 467.7,49.8 468.2,50.3 468.6,50.8 469.1,51.3 469.5,51.8        469.9,52.3 470.3,52.8 470.6,53.3 471,53.8 471.3,54.3 471.6,54.8 471.9,55.3 472.2,55.8 472.5,56.3 472.8,56.8 473.1,57.3        473.3,57.8 473.6,58.3 473.8,58.8 474,59.3 474.2,59.8 474.4,60.3 474.6,60.8 474.8,61.3 475,61.8 475.2,62.2 475.4,62.7        475.5,63.2 475.7,63.7 475.8,64.2 476,64.7 476.1,65.2 476.2,65.7 476.4,66.2 476.5,66.7 476.6,67.2 476.8,68.2 476.9,68.7        477,69.2 477.1,69.7 477.3,70.7 477.5,71.7 477.5,72.2 477.6,72.7 477.7,73.7 477.8,74.2 477.9,74.7 477.9,75.2 478.1,76.2        478.1,76.7 478.2,77.2 478.2,77.7 478.3,78.1 478.3,78.6 478.3,79.1 478.4,79.6 478.4,80.1 478.5,80.6 478.6,82.6 478.6,83.1        478.7,83.6 478.7,84.1 478.8,85.6 478.8,86.1 478.8,86.6 478.8,87.1 478.9,87.6 449.6,87.6 449.6,148.8 509.2,148.8        509.2,87.6 479.9,87.6 479.9,87.1 480,86.6 480,86.1 480,85.6 480,85.1 480.1,84.1 480.1,83.6 480.2,83.1 480.2,82.1        480.3,81.1 480.3,80.6 480.4,80.1 480.4,79.6 480.5,78.6 480.6,77.7 480.6,77.2 480.7,76.7 480.8,75.7 480.9,75.2 480.9,74.7        481.1,73.2 481.2,72.7 481.3,72.2 481.3,71.7 481.4,71.2 481.6,70.2 481.7,69.7 481.8,69.2 481.9,68.7 482.1,67.7 482.2,67.2        482.3,66.7 482.4,66.2 482.6,65.7 482.7,65.2 482.8,64.7 483,64.2 483.3,63.2 483.4,62.7 483.6,62.2 483.8,61.8 484,61.3        484.2,60.8 484.4,60.3 484.6,59.8 484.8,59.3 485,58.8 485.2,58.3 485.5,57.8 485.7,57.3 486,56.8 486.3,56.3 486.6,55.8        486.9,55.3 487.2,54.8 487.5,54.3 487.8,53.8 488.2,53.3 488.5,52.8 488.9,52.3 489.3,51.8 489.7,51.3 490.2,50.8 490.6,50.3        491.1,49.8 491.5,49.3 492.1,48.8 492.6,48.3 493.1,47.8 493.7,47.3 494.3,46.9 494.9,46.4 495.6,45.9 496.2,45.4 496.9,44.9        497.7,44.4 498.4,43.9 499.2,43.4 500,42.9 500.9,42.4 501.8,41.9 502.7,41.4 503.7,40.9 504.7,40.4 505.7,39.9 506.8,39.4        508,38.9 509.2,38.4      "
   clip-path="url(#SVGID_24_)"
   id="polygon23" />
				</g>
			</g>
		</g>
	</g>
	<rect
   x="210.2"
   y="156.7"
   class="st15"
   width="149.1"
   height="111.8"
   id="rect26" />
	<rect
   x="249.3"
   y="163.7"
   class="st15"
   width="101.6"
   height="79.8"
   id="rect27" />
	<g
   id="g27">
		<defs
   id="defs27">
			<rect
   id="SVGID_25_"
   x="249.3"
   y="163.7"
   width="101.6"
   height="79.8" />
		</defs>
		<clipPath
   id="SVGID_26_">
			<use
   xlink:href="#SVGID_25_"
   style="overflow:visible;"
   id="use27" />
		</clipPath>
		<path
   class="st16"
   d="M249.3,243.5h4.8H249.3z"
   clip-path="url(#SVGID_26_)"
   id="path27" />
	</g>
	<g
   id="g28">
		<defs
   id="defs28">
			<rect
   id="SVGID_27_"
   x="249.3"
   y="163.7"
   width="101.6"
   height="79.8" />
		</defs>
		<clipPath
   id="SVGID_28_">
			<use
   xlink:href="#SVGID_27_"
   style="overflow:visible;"
   id="use28" />
		</clipPath>
		<rect
   x="254.1"
   y="167.5"
   class="st17"
   width="4.8"
   height="76"
   clip-path="url(#SVGID_28_)"
   id="rect28" />
	</g>
	<g
   id="g29">
		<defs
   id="defs29">
			<rect
   id="SVGID_29_"
   x="249.3"
   y="163.7"
   width="101.6"
   height="79.8" />
		</defs>
		<clipPath
   id="SVGID_30_">
			<use
   xlink:href="#SVGID_29_"
   style="overflow:visible;"
   id="use29" />
		</clipPath>
		<rect
   x="258.9"
   y="209.5"
   class="st18"
   width="4.8"
   height="34"
   clip-path="url(#SVGID_30_)"
   id="rect29" />
	</g>
	<g
   id="g30">
		<defs
   id="defs30">
			<rect
   id="SVGID_31_"
   x="249.3"
   y="163.7"
   width="101.6"
   height="79.8" />
		</defs>
		<clipPath
   id="SVGID_32_">
			<use
   xlink:href="#SVGID_31_"
   style="overflow:visible;"
   id="use30" />
		</clipPath>
		<rect
   x="263.8"
   y="216.5"
   class="st19"
   width="4.8"
   height="27"
   clip-path="url(#SVGID_32_)"
   id="rect30" />
	</g>
	<g
   id="g31">
		<defs
   id="defs31">
			<rect
   id="SVGID_33_"
   x="249.3"
   y="163.7"
   width="101.6"
   height="79.8" />
		</defs>
		<clipPath
   id="SVGID_34_">
			<use
   xlink:href="#SVGID_33_"
   style="overflow:visible;"
   id="use31" />
		</clipPath>
		<rect
   x="268.6"
   y="218.4"
   class="st20"
   width="4.8"
   height="25.1"
   clip-path="url(#SVGID_34_)"
   id="rect31" />
	</g>
	<g
   id="g32">
		<defs
   id="defs32">
			<rect
   id="SVGID_35_"
   x="249.3"
   y="163.7"
   width="101.6"
   height="79.8" />
		</defs>
		<clipPath
   id="SVGID_36_">
			<use
   xlink:href="#SVGID_35_"
   style="overflow:visible;"
   id="use32" />
		</clipPath>
		<rect
   x="273.5"
   y="219.1"
   class="st21"
   width="4.8"
   height="24.4"
   clip-path="url(#SVGID_36_)"
   id="rect32" />
	</g>
	<g
   id="g33">
		<defs
   id="defs33">
			<rect
   id="SVGID_37_"
   x="249.3"
   y="163.7"
   width="101.6"
   height="79.8" />
		</defs>
		<clipPath
   id="SVGID_38_">
			<use
   xlink:href="#SVGID_37_"
   style="overflow:visible;"
   id="use33" />
		</clipPath>
		<rect
   x="278.3"
   y="219.6"
   class="st22"
   width="4.8"
   height="23.9"
   clip-path="url(#SVGID_38_)"
   id="rect33" />
	</g>
	<g
   id="g34">
		<defs
   id="defs34">
			<rect
   id="SVGID_39_"
   x="249.3"
   y="163.7"
   width="101.6"
   height="79.8" />
		</defs>
		<clipPath
   id="SVGID_40_">
			<use
   xlink:href="#SVGID_39_"
   style="overflow:visible;"
   id="use34" />
		</clipPath>
		<rect
   x="283.1"
   y="219.9"
   class="st23"
   width="4.8"
   height="23.6"
   clip-path="url(#SVGID_40_)"
   id="rect34" />
	</g>
	<g
   id="g35">
		<defs
   id="defs35">
			<rect
   id="SVGID_41_"
   x="249.3"
   y="163.7"
   width="101.6"
   height="79.8" />
		</defs>
		<clipPath
   id="SVGID_42_">
			<use
   xlink:href="#SVGID_41_"
   style="overflow:visible;"
   id="use35" />
		</clipPath>
		<rect
   x="288"
   y="220"
   class="st24"
   width="4.8"
   height="23.5"
   clip-path="url(#SVGID_42_)"
   id="rect35" />
	</g>
	<g
   id="g36">
		<defs
   id="defs36">
			<rect
   id="SVGID_43_"
   x="249.3"
   y="163.7"
   width="101.6"
   height="79.8" />
		</defs>
		<clipPath
   id="SVGID_44_">
			<use
   xlink:href="#SVGID_43_"
   style="overflow:visible;"
   id="use36" />
		</clipPath>
		<rect
   x="292.8"
   y="220.2"
   class="st25"
   width="4.8"
   height="23.3"
   clip-path="url(#SVGID_44_)"
   id="rect36" />
	</g>
	<g
   id="g37">
		<defs
   id="defs37">
			<rect
   id="SVGID_45_"
   x="249.3"
   y="163.7"
   width="101.6"
   height="79.8" />
		</defs>
		<clipPath
   id="SVGID_46_">
			<use
   xlink:href="#SVGID_45_"
   style="overflow:visible;"
   id="use37" />
		</clipPath>
		<rect
   x="297.6"
   y="231.9"
   class="st26"
   width="4.8"
   height="11.7"
   clip-path="url(#SVGID_46_)"
   id="rect37" />
	</g>
	<g
   id="g38">
		<defs
   id="defs38">
			<rect
   id="SVGID_47_"
   x="249.3"
   y="163.7"
   width="101.6"
   height="79.8" />
		</defs>
		<clipPath
   id="SVGID_48_">
			<use
   xlink:href="#SVGID_47_"
   style="overflow:visible;"
   id="use38" />
		</clipPath>
		<path
   class="st27"
   d="M302.5,243.5h4.8H302.5z"
   clip-path="url(#SVGID_48_)"
   id="path38" />
	</g>
	<g
   id="g39">
		<defs
   id="defs39">
			<rect
   id="SVGID_49_"
   x="249.3"
   y="163.7"
   width="101.6"
   height="79.8" />
		</defs>
		<clipPath
   id="SVGID_50_">
			<use
   xlink:href="#SVGID_49_"
   style="overflow:visible;"
   id="use39" />
		</clipPath>
		<path
   class="st28"
   d="M307.3,243.5h4.8H307.3z"
   clip-path="url(#SVGID_50_)"
   id="path39" />
	</g>
	<g
   id="g40">
		<defs
   id="defs40">
			<rect
   id="SVGID_51_"
   x="249.3"
   y="163.7"
   width="101.6"
   height="79.8" />
		</defs>
		<clipPath
   id="SVGID_52_">
			<use
   xlink:href="#SVGID_51_"
   style="overflow:visible;"
   id="use40" />
		</clipPath>
		<path
   class="st29"
   d="M312.2,243.5h4.8H312.2z"
   clip-path="url(#SVGID_52_)"
   id="path40" />
	</g>
	<g
   id="g41">
		<defs
   id="defs41">
			<rect
   id="SVGID_53_"
   x="249.3"
   y="163.7"
   width="101.6"
   height="79.8" />
		</defs>
		<clipPath
   id="SVGID_54_">
			<use
   xlink:href="#SVGID_53_"
   style="overflow:visible;"
   id="use41" />
		</clipPath>
		<path
   class="st30"
   d="M317,243.5h4.8H317z"
   clip-path="url(#SVGID_54_)"
   id="path41" />
	</g>
	<g
   id="g42">
		<defs
   id="defs42">
			<rect
   id="SVGID_55_"
   x="249.3"
   y="163.7"
   width="101.6"
   height="79.8" />
		</defs>
		<clipPath
   id="SVGID_56_">
			<use
   xlink:href="#SVGID_55_"
   style="overflow:visible;"
   id="use42" />
		</clipPath>
		<path
   class="st31"
   d="M321.8,243.5h4.8H321.8z"
   clip-path="url(#SVGID_56_)"
   id="path42" />
	</g>
	<g
   id="g43">
		<defs
   id="defs43">
			<rect
   id="SVGID_57_"
   x="249.3"
   y="163.7"
   width="101.6"
   height="79.8" />
		</defs>
		<clipPath
   id="SVGID_58_">
			<use
   xlink:href="#SVGID_57_"
   style="overflow:visible;"
   id="use43" />
		</clipPath>
		<path
   class="st32"
   d="M326.7,243.5h4.8H326.7z"
   clip-path="url(#SVGID_58_)"
   id="path43" />
	</g>
	<g
   id="g44">
		<defs
   id="defs44">
			<rect
   id="SVGID_59_"
   x="249.3"
   y="163.7"
   width="101.6"
   height="79.8" />
		</defs>
		<clipPath
   id="SVGID_60_">
			<use
   xlink:href="#SVGID_59_"
   style="overflow:visible;"
   id="use44" />
		</clipPath>
		<path
   class="st33"
   d="M331.5,243.5h4.8H331.5z"
   clip-path="url(#SVGID_60_)"
   id="path44" />
	</g>
	<g
   id="g45">
		<defs
   id="defs45">
			<rect
   id="SVGID_61_"
   x="249.3"
   y="163.7"
   width="101.6"
   height="79.8" />
		</defs>
		<clipPath
   id="SVGID_62_">
			<use
   xlink:href="#SVGID_61_"
   style="overflow:visible;"
   id="use45" />
		</clipPath>
		<path
   class="st34"
   d="M336.4,243.5h4.8H336.4z"
   clip-path="url(#SVGID_62_)"
   id="path45" />
	</g>
	<g
   id="g46">
		<defs
   id="defs46">
			<rect
   id="SVGID_63_"
   x="249.3"
   y="163.7"
   width="101.6"
   height="79.8" />
		</defs>
		<clipPath
   id="SVGID_64_">
			<use
   xlink:href="#SVGID_63_"
   style="overflow:visible;"
   id="use46" />
		</clipPath>
		<path
   class="st35"
   d="M341.2,243.5h4.8H341.2z"
   clip-path="url(#SVGID_64_)"
   id="path46" />
	</g>
	<g
   id="g47">
		<defs
   id="defs47">
			<rect
   id="SVGID_65_"
   x="249.3"
   y="163.7"
   width="101.6"
   height="79.8" />
		</defs>
		<clipPath
   id="SVGID_66_">
			<use
   xlink:href="#SVGID_65_"
   style="overflow:visible;"
   id="use47" />
		</clipPath>
		<path
   class="st36"
   d="M346,243.5h4.8H346z"
   clip-path="url(#SVGID_66_)"
   id="path47" />
	</g>
	<line
   x1="251.7"
   y1="243.5"
   x2="251.7"
   y2="244.6"
   id="line47" />
	<line
   class="st37"
   x1="251.7"
   y1="243.5"
   x2="251.7"
   y2="244.6"
   id="line48" />
	<path
   d="M251.7,245.9c0.5,0,0.9,0.2,1.2,0.6c0.3,0.4,0.4,1,0.4,1.8c0,0.8-0.1,1.4-0.4,1.8c-0.3,0.4-0.7,0.6-1.2,0.6   s-0.9-0.2-1.2-0.6c-0.3-0.4-0.4-1-0.4-1.8c0-0.8,0.1-1.4,0.4-1.8C250.7,246.1,251.2,245.9,251.7,245.9z M251.7,246.4   c-0.3,0-0.6,0.2-0.7,0.5c-0.2,0.3-0.2,0.8-0.2,1.5s0.1,1.1,0.2,1.5c0.2,0.3,0.4,0.5,0.7,0.5s0.6-0.2,0.7-0.5   c0.2-0.3,0.2-0.8,0.2-1.5s-0.1-1.1-0.2-1.5C252.3,246.6,252,246.4,251.7,246.4z"
   id="path48" />
	<line
   x1="275.9"
   y1="243.5"
   x2="275.9"
   y2="244.6"
   id="line49" />
	<line
   class="st37"
   x1="275.9"
   y1="243.5"
   x2="275.9"
   y2="244.6"
   id="line50" />
	<path
   d="M274.5,246h2.5v0.5h-1.9v1.2c0.1,0,0.2-0.1,0.3-0.1s0.2,0,0.3,0c0.5,0,0.9,0.1,1.2,0.4c0.3,0.3,0.5,0.7,0.5,1.2   c0,0.5-0.2,0.9-0.5,1.2c-0.3,0.3-0.8,0.4-1.3,0.4c-0.2,0-0.4,0-0.6,0c-0.2,0-0.4-0.1-0.6-0.1v-0.6c0.2,0.1,0.4,0.2,0.6,0.2   c0.2,0.1,0.4,0.1,0.6,0.1c0.4,0,0.7-0.1,0.9-0.3c0.2-0.2,0.3-0.5,0.3-0.8c0-0.3-0.1-0.6-0.3-0.8c-0.2-0.2-0.5-0.3-0.9-0.3   c-0.2,0-0.3,0-0.5,0.1c-0.2,0-0.3,0.1-0.5,0.2V246z"
   id="path50" />
	<line
   x1="300.1"
   y1="243.5"
   x2="300.1"
   y2="244.6"
   id="line51" />
	<line
   class="st37"
   x1="300.1"
   y1="243.5"
   x2="300.1"
   y2="244.6"
   id="line52" />
	<polygon
   points="296.8,250.1 297.8,250.1 297.8,246.6 296.7,246.8 296.7,246.2 297.8,246 298.4,246 298.4,250.1 299.5,250.1    299.5,250.7 296.8,250.7  "
   id="polygon52" />
	<path
   d="M302.1,245.9c0.5,0,0.9,0.2,1.2,0.6c0.3,0.4,0.4,1,0.4,1.8c0,0.8-0.1,1.4-0.4,1.8c-0.3,0.4-0.7,0.6-1.2,0.6   s-0.9-0.2-1.2-0.6c-0.3-0.4-0.4-1-0.4-1.8c0-0.8,0.1-1.4,0.4-1.8C301.2,246.1,301.6,245.9,302.1,245.9z M302.1,246.4   c-0.3,0-0.6,0.2-0.7,0.5c-0.2,0.3-0.2,0.8-0.2,1.5s0.1,1.1,0.2,1.5c0.2,0.3,0.4,0.5,0.7,0.5c0.3,0,0.6-0.2,0.7-0.5   c0.2-0.3,0.2-0.8,0.2-1.5s-0.1-1.1-0.2-1.5C302.7,246.6,302.5,246.4,302.1,246.4z"
   id="path52" />
	<line
   x1="324.3"
   y1="243.5"
   x2="324.3"
   y2="244.6"
   id="line53" />
	<line
   class="st37"
   x1="324.3"
   y1="243.5"
   x2="324.3"
   y2="244.6"
   id="line54" />
	<polygon
   points="320.9,250.1 322,250.1 322,246.6 320.9,246.8 320.9,246.2 322,246 322.6,246 322.6,250.1 323.7,250.1 323.7,250.7    320.9,250.7  "
   id="polygon54" />
	<path
   d="M325,246h2.5v0.5h-1.9v1.2c0.1,0,0.2-0.1,0.3-0.1s0.2,0,0.3,0c0.5,0,0.9,0.1,1.2,0.4c0.3,0.3,0.5,0.7,0.5,1.2   c0,0.5-0.2,0.9-0.5,1.2c-0.3,0.3-0.8,0.4-1.3,0.4c-0.2,0-0.4,0-0.6,0c-0.2,0-0.4-0.1-0.6-0.1v-0.6c0.2,0.1,0.4,0.2,0.6,0.2   c0.2,0.1,0.4,0.1,0.6,0.1c0.4,0,0.7-0.1,0.9-0.3c0.2-0.2,0.3-0.5,0.3-0.8c0-0.3-0.1-0.6-0.3-0.8c-0.2-0.2-0.5-0.3-0.9-0.3   c-0.2,0-0.3,0-0.5,0.1c-0.2,0-0.3,0.1-0.5,0.2V246z"
   id="path54" />
	<line
   x1="348.4"
   y1="243.5"
   x2="348.4"
   y2="244.6"
   id="line55" />
	<line
   class="st37"
   x1="348.4"
   y1="243.5"
   x2="348.4"
   y2="244.6"
   id="line56" />
	<path
   d="M345.6,250.1h2.2v0.5h-3v-0.5c0.2-0.2,0.6-0.6,1-1c0.4-0.4,0.7-0.7,0.8-0.8c0.2-0.2,0.3-0.4,0.4-0.6   c0.1-0.2,0.1-0.3,0.1-0.5c0-0.2-0.1-0.5-0.3-0.6c-0.2-0.2-0.4-0.2-0.7-0.2c-0.2,0-0.4,0-0.6,0.1c-0.2,0.1-0.5,0.2-0.7,0.3v-0.6   c0.3-0.1,0.5-0.2,0.7-0.2s0.4-0.1,0.6-0.1c0.5,0,0.9,0.1,1.2,0.4c0.3,0.2,0.4,0.6,0.4,1c0,0.2,0,0.4-0.1,0.5   c-0.1,0.2-0.2,0.4-0.4,0.6c-0.1,0.1-0.2,0.2-0.5,0.5C346.5,249.2,346.1,249.6,345.6,250.1z"
   id="path56" />
	<path
   d="M350.5,245.9c0.5,0,0.9,0.2,1.2,0.6c0.3,0.4,0.4,1,0.4,1.8c0,0.8-0.1,1.4-0.4,1.8c-0.3,0.4-0.7,0.6-1.2,0.6   c-0.5,0-0.9-0.2-1.2-0.6s-0.4-1-0.4-1.8c0-0.8,0.1-1.4,0.4-1.8C349.6,246.1,350,245.9,350.5,245.9z M350.5,246.4   c-0.3,0-0.6,0.2-0.7,0.5c-0.2,0.3-0.2,0.8-0.2,1.5s0.1,1.1,0.2,1.5c0.2,0.3,0.4,0.5,0.7,0.5c0.3,0,0.6-0.2,0.7-0.5   c0.2-0.3,0.2-0.8,0.2-1.5s-0.1-1.1-0.2-1.5C351.1,246.6,350.8,246.4,350.5,246.4z"
   id="path57" />
	<path
   d="M269.7,253.6h0.9l2.2,5.9H272l-0.5-1.5h-2.7l-0.5,1.5h-0.8L269.7,253.6z M270.1,254.4l-1.1,2.9h2.2L270.1,254.4z"
   id="path58" />
	<rect
   x="273.7"
   y="253.3"
   width="0.7"
   height="6.1"
   id="rect58" />
	<rect
   x="275.9"
   y="253.3"
   width="0.7"
   height="6.1"
   id="rect59" />
	<path
   d="M281.2,256.9c0-0.4-0.1-0.7-0.3-1c-0.2-0.2-0.5-0.4-0.9-0.4c-0.4,0-0.7,0.1-1,0.3c-0.2,0.2-0.4,0.5-0.4,1H281.2z    M281.9,257.1v0.4h-3.3c0,0.5,0.2,0.9,0.5,1.1c0.3,0.3,0.6,0.4,1.1,0.4c0.3,0,0.5,0,0.8-0.1s0.5-0.2,0.8-0.3v0.7   c-0.3,0.1-0.5,0.2-0.8,0.3c-0.3,0-0.6,0.1-0.8,0.1c-0.7,0-1.3-0.2-1.7-0.6s-0.6-1-0.6-1.7c0-0.7,0.2-1.3,0.6-1.7   c0.4-0.4,0.9-0.6,1.6-0.6c0.6,0,1.1,0.2,1.4,0.6C281.8,255.9,281.9,256.4,281.9,257.1z"
   id="path59" />
	<rect
   x="283.1"
   y="253.3"
   width="0.7"
   height="6.1"
   id="rect60" />
	<path
   d="M288.4,256.9c0-0.4-0.1-0.7-0.3-1c-0.2-0.2-0.5-0.4-0.9-0.4c-0.4,0-0.7,0.1-1,0.3c-0.2,0.2-0.4,0.5-0.4,1H288.4z    M289.2,257.1v0.4h-3.3c0,0.5,0.2,0.9,0.5,1.1c0.3,0.3,0.6,0.4,1.1,0.4c0.3,0,0.5,0,0.8-0.1s0.5-0.2,0.8-0.3v0.7   c-0.3,0.1-0.5,0.2-0.8,0.3s-0.6,0.1-0.8,0.1c-0.7,0-1.3-0.2-1.7-0.6c-0.4-0.4-0.6-1-0.6-1.7c0-0.7,0.2-1.3,0.6-1.7   c0.4-0.4,0.9-0.6,1.6-0.6c0.6,0,1.1,0.2,1.4,0.6C289,255.9,289.2,256.4,289.2,257.1z"
   id="path60" />
	<path
   d="M295.2,253.3v0.6h-0.7c-0.3,0-0.4,0.1-0.5,0.2c-0.1,0.1-0.2,0.3-0.2,0.6v0.4h1.2v0.6h-1.2v3.9h-0.7v-3.9h-0.7V255h0.7v-0.3   c0-0.5,0.1-0.8,0.3-1.1c0.2-0.2,0.6-0.3,1.1-0.3H295.2z"
   id="path61" />
	<path
   d="M298.3,255.7c-0.1,0-0.2-0.1-0.3-0.1c-0.1,0-0.2,0-0.3,0c-0.4,0-0.7,0.1-0.9,0.4c-0.2,0.3-0.3,0.6-0.3,1.1v2.3h-0.7V255   h0.7v0.7c0.1-0.3,0.3-0.5,0.6-0.6c0.2-0.1,0.5-0.2,0.9-0.2c0,0,0.1,0,0.2,0c0.1,0,0.1,0,0.2,0V255.7z"
   id="path62" />
	<path
   d="M302,256.9c0-0.4-0.1-0.7-0.3-1c-0.2-0.2-0.5-0.4-0.9-0.4c-0.4,0-0.7,0.1-1,0.3c-0.2,0.2-0.4,0.5-0.4,1H302z M302.7,257.1   v0.4h-3.3c0,0.5,0.2,0.9,0.5,1.1c0.3,0.3,0.6,0.4,1.1,0.4c0.3,0,0.5,0,0.8-0.1s0.5-0.2,0.8-0.3v0.7c-0.3,0.1-0.5,0.2-0.8,0.3   s-0.6,0.1-0.8,0.1c-0.7,0-1.3-0.2-1.7-0.6c-0.4-0.4-0.6-1-0.6-1.7c0-0.7,0.2-1.3,0.6-1.7c0.4-0.4,0.9-0.6,1.6-0.6   c0.6,0,1.1,0.2,1.4,0.6C302.5,255.9,302.7,256.4,302.7,257.1z"
   id="path63" />
	<path
   d="M306.8,258.8c-0.2,0.3-0.3,0.5-0.6,0.6c-0.2,0.1-0.5,0.2-0.8,0.2c-0.5,0-1-0.2-1.3-0.6c-0.3-0.4-0.5-1-0.5-1.7   s0.2-1.3,0.5-1.7c0.3-0.4,0.8-0.6,1.3-0.6c0.3,0,0.6,0.1,0.8,0.2c0.2,0.1,0.4,0.3,0.6,0.6V255h0.7v6.1h-0.7V258.8z M304.3,257.3   c0,0.5,0.1,1,0.3,1.3c0.2,0.3,0.5,0.5,0.9,0.5c0.4,0,0.7-0.1,0.9-0.5c0.2-0.3,0.3-0.7,0.3-1.3c0-0.5-0.1-0.9-0.3-1.3   c-0.2-0.3-0.5-0.5-0.9-0.5c-0.4,0-0.7,0.2-0.9,0.5C304.4,256.3,304.3,256.7,304.3,257.3z"
   id="path64" />
	<path
   d="M310.8,254.9L310.8,254.9z M309,257.7V255h0.7v2.7c0,0.4,0.1,0.7,0.2,0.9c0.2,0.2,0.4,0.3,0.7,0.3c0.4,0,0.7-0.1,0.9-0.4   c0.2-0.3,0.3-0.6,0.3-1V255h0.7v4.4h-0.7v-0.7c-0.2,0.3-0.4,0.5-0.6,0.6c-0.2,0.1-0.5,0.2-0.8,0.2c-0.5,0-0.9-0.2-1.2-0.5   C309.1,258.8,309,258.3,309,257.7z"
   id="path65" />
	<path
   d="M317.2,256.9c0-0.4-0.1-0.7-0.3-1c-0.2-0.2-0.5-0.4-0.9-0.4c-0.4,0-0.7,0.1-1,0.3c-0.2,0.2-0.4,0.5-0.4,1H317.2z    M317.9,257.1v0.4h-3.3c0,0.5,0.2,0.9,0.5,1.1c0.3,0.3,0.6,0.4,1.1,0.4c0.3,0,0.5,0,0.8-0.1c0.3-0.1,0.5-0.2,0.8-0.3v0.7   c-0.3,0.1-0.5,0.2-0.8,0.3c-0.3,0-0.6,0.1-0.8,0.1c-0.7,0-1.3-0.2-1.7-0.6c-0.4-0.4-0.6-1-0.6-1.7c0-0.7,0.2-1.3,0.6-1.7   c0.4-0.4,0.9-0.6,1.6-0.6c0.6,0,1.1,0.2,1.4,0.6C317.8,255.9,317.9,256.4,317.9,257.1z"
   id="path66" />
	<path
   d="M322.8,256.8v2.7h-0.7v-2.6c0-0.4-0.1-0.7-0.3-0.9c-0.2-0.2-0.4-0.3-0.7-0.3c-0.4,0-0.7,0.1-0.9,0.4   c-0.2,0.3-0.3,0.6-0.3,1v2.5h-0.7V255h0.7v0.7c0.2-0.3,0.4-0.5,0.6-0.6c0.2-0.1,0.5-0.2,0.8-0.2c0.5,0,0.9,0.2,1.1,0.5   C322.7,255.7,322.8,256.2,322.8,256.8z"
   id="path67" />
	<path
   d="M327.4,255.2v0.7c-0.2-0.1-0.4-0.2-0.6-0.3s-0.4-0.1-0.6-0.1c-0.5,0-0.8,0.2-1.1,0.5c-0.3,0.3-0.4,0.7-0.4,1.3   c0,0.5,0.1,1,0.4,1.3c0.3,0.3,0.6,0.4,1.1,0.4c0.2,0,0.4,0,0.6-0.1s0.4-0.1,0.6-0.3v0.7c-0.2,0.1-0.4,0.2-0.6,0.2   c-0.2,0-0.5,0.1-0.7,0.1c-0.7,0-1.2-0.2-1.6-0.6c-0.4-0.4-0.6-1-0.6-1.7c0-0.7,0.2-1.3,0.6-1.7c0.4-0.4,0.9-0.6,1.6-0.6   c0.2,0,0.4,0,0.7,0.1S327.2,255.1,327.4,255.2z"
   id="path68" />
	<path
   d="M330.6,259.9c-0.2,0.5-0.4,0.9-0.6,1s-0.5,0.2-0.8,0.2h-0.6v-0.6h0.4c0.2,0,0.3,0,0.5-0.1c0.1-0.1,0.2-0.3,0.4-0.7l0.1-0.3   l-1.8-4.4h0.8l1.4,3.5l1.4-3.5h0.8L330.6,259.9z"
   id="path69" />
	<line
   x1="249.3"
   y1="243.5"
   x2="248.1"
   y2="243.5"
   id="line69" />
	<line
   class="st37"
   x1="249.3"
   y1="243.5"
   x2="248.1"
   y2="243.5"
   id="line70" />
	<path
   d="M244.9,241.2c0.5,0,0.9,0.2,1.2,0.6c0.3,0.4,0.4,1,0.4,1.8c0,0.8-0.1,1.4-0.4,1.8c-0.3,0.4-0.7,0.6-1.2,0.6   s-0.9-0.2-1.2-0.6c-0.3-0.4-0.4-1-0.4-1.8c0-0.8,0.1-1.4,0.4-1.8C244,241.4,244.4,241.2,244.9,241.2z M244.9,241.7   c-0.3,0-0.6,0.2-0.7,0.5c-0.2,0.3-0.2,0.8-0.2,1.5c0,0.6,0.1,1.1,0.2,1.5c0.2,0.3,0.4,0.5,0.7,0.5s0.6-0.2,0.7-0.5   c0.2-0.3,0.2-0.8,0.2-1.5c0-0.6-0.1-1.1-0.2-1.5C245.5,241.8,245.3,241.7,244.9,241.7z"
   id="path70" />
	<line
   x1="249.3"
   y1="229"
   x2="248.1"
   y2="229"
   id="line71" />
	<line
   class="st37"
   x1="249.3"
   y1="229"
   x2="248.1"
   y2="229"
   id="line72" />
	<path
   d="M231.2,226.7h2.5v0.5h-1.9v1.2c0.1,0,0.2-0.1,0.3-0.1s0.2,0,0.3,0c0.5,0,0.9,0.1,1.2,0.4c0.3,0.3,0.5,0.7,0.5,1.2   c0,0.5-0.2,0.9-0.5,1.2c-0.3,0.3-0.8,0.4-1.3,0.4c-0.2,0-0.4,0-0.6,0c-0.2,0-0.4-0.1-0.6-0.1v-0.6c0.2,0.1,0.4,0.2,0.6,0.2   c0.2,0.1,0.4,0.1,0.6,0.1c0.4,0,0.7-0.1,0.9-0.3c0.2-0.2,0.3-0.5,0.3-0.8c0-0.3-0.1-0.6-0.3-0.8c-0.2-0.2-0.5-0.3-0.9-0.3   c-0.2,0-0.3,0-0.5,0.1c-0.2,0-0.3,0.1-0.5,0.2V226.7z"
   id="path72" />
	<path
   d="M236.7,226.6c0.5,0,0.9,0.2,1.2,0.6c0.3,0.4,0.4,1,0.4,1.8c0,0.8-0.1,1.4-0.4,1.8c-0.3,0.4-0.7,0.6-1.2,0.6   s-0.9-0.2-1.2-0.6c-0.3-0.4-0.4-1-0.4-1.8c0-0.8,0.1-1.4,0.4-1.8C235.8,226.9,236.2,226.6,236.7,226.6z M236.7,227.1   c-0.3,0-0.6,0.2-0.7,0.5c-0.2,0.3-0.2,0.8-0.2,1.5c0,0.6,0.1,1.1,0.2,1.5c0.2,0.3,0.4,0.5,0.7,0.5s0.6-0.2,0.7-0.5   c0.2-0.3,0.2-0.8,0.2-1.5c0-0.6-0.1-1.1-0.2-1.5C237.3,227.3,237,227.1,236.7,227.1z"
   id="path73" />
	<path
   d="M240.8,226.6c0.5,0,0.9,0.2,1.2,0.6c0.3,0.4,0.4,1,0.4,1.8c0,0.8-0.1,1.4-0.4,1.8c-0.3,0.4-0.7,0.6-1.2,0.6   c-0.5,0-0.9-0.2-1.2-0.6c-0.3-0.4-0.4-1-0.4-1.8c0-0.8,0.1-1.4,0.4-1.8C239.9,226.9,240.3,226.6,240.8,226.6z M240.8,227.1   c-0.3,0-0.6,0.2-0.7,0.5c-0.2,0.3-0.2,0.8-0.2,1.5c0,0.6,0.1,1.1,0.2,1.5c0.2,0.3,0.4,0.5,0.7,0.5c0.3,0,0.6-0.2,0.7-0.5   c0.2-0.3,0.2-0.8,0.2-1.5c0-0.6-0.1-1.1-0.2-1.5C241.4,227.3,241.2,227.1,240.8,227.1z"
   id="path74" />
	<path
   d="M244.9,226.6c0.5,0,0.9,0.2,1.2,0.6c0.3,0.4,0.4,1,0.4,1.8c0,0.8-0.1,1.4-0.4,1.8c-0.3,0.4-0.7,0.6-1.2,0.6   c-0.5,0-0.9-0.2-1.2-0.6c-0.3-0.4-0.4-1-0.4-1.8c0-0.8,0.1-1.4,0.4-1.8C244,226.9,244.4,226.6,244.9,226.6z M244.9,227.1   c-0.3,0-0.6,0.2-0.7,0.5c-0.2,0.3-0.2,0.8-0.2,1.5c0,0.6,0.1,1.1,0.2,1.5c0.2,0.3,0.4,0.5,0.7,0.5c0.3,0,0.6-0.2,0.7-0.5   c0.2-0.3,0.2-0.8,0.2-1.5c0-0.6-0.1-1.1-0.2-1.5C245.5,227.3,245.3,227.1,244.9,227.1z"
   id="path75" />
	<line
   x1="249.3"
   y1="214.5"
   x2="248.1"
   y2="214.5"
   id="line75" />
	<line
   class="st37"
   x1="249.3"
   y1="214.5"
   x2="248.1"
   y2="214.5"
   id="line76" />
	<polygon
   points="227.2,216.4 228.3,216.4 228.3,212.8 227.1,213 227.1,212.4 228.3,212.2 228.9,212.2 228.9,216.4 229.9,216.4    229.9,216.9 227.2,216.9  "
   id="polygon76" />
	<path
   d="M232.6,212.1c0.5,0,0.9,0.2,1.2,0.6c0.3,0.4,0.4,1,0.4,1.8c0,0.8-0.1,1.4-0.4,1.8c-0.3,0.4-0.7,0.6-1.2,0.6   c-0.5,0-0.9-0.2-1.2-0.6c-0.3-0.4-0.4-1-0.4-1.8c0-0.8,0.1-1.4,0.4-1.8C231.7,212.3,232.1,212.1,232.6,212.1z M232.6,212.6   c-0.3,0-0.6,0.2-0.7,0.5c-0.2,0.3-0.2,0.8-0.2,1.5c0,0.6,0.1,1.1,0.2,1.5c0.2,0.3,0.4,0.5,0.7,0.5c0.3,0,0.6-0.2,0.7-0.5   c0.2-0.3,0.2-0.8,0.2-1.5c0-0.6-0.1-1.1-0.2-1.5C233.2,212.8,232.9,212.6,232.6,212.6z"
   id="path76" />
	<path
   d="M236.7,212.1c0.5,0,0.9,0.2,1.2,0.6c0.3,0.4,0.4,1,0.4,1.8c0,0.8-0.1,1.4-0.4,1.8c-0.3,0.4-0.7,0.6-1.2,0.6   s-0.9-0.2-1.2-0.6c-0.3-0.4-0.4-1-0.4-1.8c0-0.8,0.1-1.4,0.4-1.8C235.8,212.3,236.2,212.1,236.7,212.1z M236.7,212.6   c-0.3,0-0.6,0.2-0.7,0.5c-0.2,0.3-0.2,0.8-0.2,1.5c0,0.6,0.1,1.1,0.2,1.5c0.2,0.3,0.4,0.5,0.7,0.5s0.6-0.2,0.7-0.5   c0.2-0.3,0.2-0.8,0.2-1.5c0-0.6-0.1-1.1-0.2-1.5C237.3,212.8,237,212.6,236.7,212.6z"
   id="path77" />
	<path
   d="M240.8,212.1c0.5,0,0.9,0.2,1.2,0.6c0.3,0.4,0.4,1,0.4,1.8c0,0.8-0.1,1.4-0.4,1.8c-0.3,0.4-0.7,0.6-1.2,0.6   s-0.9-0.2-1.2-0.6c-0.3-0.4-0.4-1-0.4-1.8c0-0.8,0.1-1.4,0.4-1.8C239.9,212.3,240.3,212.1,240.8,212.1z M240.8,212.6   c-0.3,0-0.6,0.2-0.7,0.5c-0.2,0.3-0.2,0.8-0.2,1.5c0,0.6,0.1,1.1,0.2,1.5c0.2,0.3,0.4,0.5,0.7,0.5s0.6-0.2,0.7-0.5   c0.2-0.3,0.2-0.8,0.2-1.5c0-0.6-0.1-1.1-0.2-1.5C241.4,212.8,241.2,212.6,240.8,212.6z"
   id="path78" />
	<path
   d="M244.9,212.1c0.5,0,0.9,0.2,1.2,0.6c0.3,0.4,0.4,1,0.4,1.8c0,0.8-0.1,1.4-0.4,1.8c-0.3,0.4-0.7,0.6-1.2,0.6   c-0.5,0-0.9-0.2-1.2-0.6s-0.4-1-0.4-1.8c0-0.8,0.1-1.4,0.4-1.8C244,212.3,244.4,212.1,244.9,212.1z M244.9,212.6   c-0.3,0-0.6,0.2-0.7,0.5s-0.2,0.8-0.2,1.5c0,0.6,0.1,1.1,0.2,1.5c0.2,0.3,0.4,0.5,0.7,0.5c0.3,0,0.6-0.2,0.7-0.5   c0.2-0.3,0.2-0.8,0.2-1.5c0-0.6-0.1-1.1-0.2-1.5C245.5,212.8,245.3,212.6,244.9,212.6z"
   id="path79" />
	<line
   x1="249.3"
   y1="199.9"
   x2="248.1"
   y2="199.9"
   id="line79" />
	<line
   class="st37"
   x1="249.3"
   y1="199.9"
   x2="248.1"
   y2="199.9"
   id="line80" />
	<polygon
   points="227.2,201.9 228.3,201.9 228.3,198.3 227.1,198.5 227.1,197.9 228.3,197.7 228.9,197.7 228.9,201.9 229.9,201.9    229.9,202.4 227.2,202.4  "
   id="polygon80" />
	<path
   d="M231.2,197.7h2.5v0.5h-1.9v1.2c0.1,0,0.2-0.1,0.3-0.1c0.1,0,0.2,0,0.3,0c0.5,0,0.9,0.1,1.2,0.4c0.3,0.3,0.5,0.7,0.5,1.2   c0,0.5-0.2,0.9-0.5,1.2c-0.3,0.3-0.8,0.4-1.3,0.4c-0.2,0-0.4,0-0.6,0c-0.2,0-0.4-0.1-0.6-0.1v-0.6c0.2,0.1,0.4,0.2,0.6,0.2   c0.2,0.1,0.4,0.1,0.6,0.1c0.4,0,0.7-0.1,0.9-0.3c0.2-0.2,0.3-0.5,0.3-0.8c0-0.3-0.1-0.6-0.3-0.8c-0.2-0.2-0.5-0.3-0.9-0.3   c-0.2,0-0.3,0-0.5,0.1c-0.2,0-0.3,0.1-0.5,0.2V197.7z"
   id="path80" />
	<path
   d="M236.7,197.6c0.5,0,0.9,0.2,1.2,0.6c0.3,0.4,0.4,1,0.4,1.8c0,0.8-0.1,1.4-0.4,1.8c-0.3,0.4-0.7,0.6-1.2,0.6   s-0.9-0.2-1.2-0.6c-0.3-0.4-0.4-1-0.4-1.8c0-0.8,0.1-1.4,0.4-1.8C235.8,197.8,236.2,197.6,236.7,197.6z M236.7,198.1   c-0.3,0-0.6,0.2-0.7,0.5c-0.2,0.3-0.2,0.8-0.2,1.5s0.1,1.1,0.2,1.5c0.2,0.3,0.4,0.5,0.7,0.5s0.6-0.2,0.7-0.5   c0.2-0.3,0.2-0.8,0.2-1.5s-0.1-1.1-0.2-1.5C237.3,198.3,237,198.1,236.7,198.1z"
   id="path81" />
	<path
   d="M240.8,197.6c0.5,0,0.9,0.2,1.2,0.6c0.3,0.4,0.4,1,0.4,1.8c0,0.8-0.1,1.4-0.4,1.8c-0.3,0.4-0.7,0.6-1.2,0.6   s-0.9-0.2-1.2-0.6c-0.3-0.4-0.4-1-0.4-1.8c0-0.8,0.1-1.4,0.4-1.8C239.9,197.8,240.3,197.6,240.8,197.6z M240.8,198.1   c-0.3,0-0.6,0.2-0.7,0.5c-0.2,0.3-0.2,0.8-0.2,1.5s0.1,1.1,0.2,1.5c0.2,0.3,0.4,0.5,0.7,0.5s0.6-0.2,0.7-0.5   c0.2-0.3,0.2-0.8,0.2-1.5s-0.1-1.1-0.2-1.5C241.4,198.3,241.2,198.1,240.8,198.1z"
   id="path82" />
	<path
   d="M244.9,197.6c0.5,0,0.9,0.2,1.2,0.6c0.3,0.4,0.4,1,0.4,1.8c0,0.8-0.1,1.4-0.4,1.8c-0.3,0.4-0.7,0.6-1.2,0.6   c-0.5,0-0.9-0.2-1.2-0.6s-0.4-1-0.4-1.8c0-0.8,0.1-1.4,0.4-1.8C244,197.8,244.4,197.6,244.9,197.6z M244.9,198.1   c-0.3,0-0.6,0.2-0.7,0.5s-0.2,0.8-0.2,1.5s0.1,1.1,0.2,1.5c0.2,0.3,0.4,0.5,0.7,0.5c0.3,0,0.6-0.2,0.7-0.5c0.2-0.3,0.2-0.8,0.2-1.5   s-0.1-1.1-0.2-1.5C245.5,198.3,245.3,198.1,244.9,198.1z"
   id="path83" />
	<line
   x1="249.3"
   y1="185.4"
   x2="248.1"
   y2="185.4"
   id="line83" />
	<line
   class="st37"
   x1="249.3"
   y1="185.4"
   x2="248.1"
   y2="185.4"
   id="line84" />
	<path
   d="M227.7,187.3h2.2v0.5h-3v-0.5c0.2-0.2,0.6-0.6,1-1c0.4-0.4,0.7-0.7,0.8-0.8c0.2-0.2,0.3-0.4,0.4-0.6   c0.1-0.2,0.1-0.3,0.1-0.5c0-0.2-0.1-0.5-0.3-0.6c-0.2-0.2-0.4-0.2-0.7-0.2c-0.2,0-0.4,0-0.6,0.1c-0.2,0.1-0.5,0.2-0.7,0.3v-0.6   c0.3-0.1,0.5-0.2,0.7-0.2c0.2-0.1,0.4-0.1,0.6-0.1c0.5,0,0.9,0.1,1.2,0.4c0.3,0.2,0.4,0.6,0.4,1c0,0.2,0,0.4-0.1,0.5   c-0.1,0.2-0.2,0.4-0.4,0.6c-0.1,0.1-0.2,0.2-0.5,0.5C228.6,186.4,228.2,186.8,227.7,187.3z"
   id="path84" />
	<path
   d="M232.6,183.1c0.5,0,0.9,0.2,1.2,0.6c0.3,0.4,0.4,1,0.4,1.8c0,0.8-0.1,1.4-0.4,1.8c-0.3,0.4-0.7,0.6-1.2,0.6   c-0.5,0-0.9-0.2-1.2-0.6c-0.3-0.4-0.4-1-0.4-1.8c0-0.8,0.1-1.4,0.4-1.8C231.7,183.3,232.1,183.1,232.6,183.1z M232.6,183.6   c-0.3,0-0.6,0.2-0.7,0.5c-0.2,0.3-0.2,0.8-0.2,1.5c0,0.6,0.1,1.1,0.2,1.5c0.2,0.3,0.4,0.5,0.7,0.5c0.3,0,0.6-0.2,0.7-0.5   c0.2-0.3,0.2-0.8,0.2-1.5c0-0.6-0.1-1.1-0.2-1.5C233.2,183.7,232.9,183.6,232.6,183.6z"
   id="path85" />
	<path
   d="M236.7,183.1c0.5,0,0.9,0.2,1.2,0.6c0.3,0.4,0.4,1,0.4,1.8c0,0.8-0.1,1.4-0.4,1.8c-0.3,0.4-0.7,0.6-1.2,0.6   s-0.9-0.2-1.2-0.6c-0.3-0.4-0.4-1-0.4-1.8c0-0.8,0.1-1.4,0.4-1.8C235.8,183.3,236.2,183.1,236.7,183.1z M236.7,183.6   c-0.3,0-0.6,0.2-0.7,0.5c-0.2,0.3-0.2,0.8-0.2,1.5c0,0.6,0.1,1.1,0.2,1.5c0.2,0.3,0.4,0.5,0.7,0.5s0.6-0.2,0.7-0.5   c0.2-0.3,0.2-0.8,0.2-1.5c0-0.6-0.1-1.1-0.2-1.5C237.3,183.7,237,183.6,236.7,183.6z"
   id="path86" />
	<path
   d="M240.8,183.1c0.5,0,0.9,0.2,1.2,0.6c0.3,0.4,0.4,1,0.4,1.8c0,0.8-0.1,1.4-0.4,1.8c-0.3,0.4-0.7,0.6-1.2,0.6   s-0.9-0.2-1.2-0.6c-0.3-0.4-0.4-1-0.4-1.8c0-0.8,0.1-1.4,0.4-1.8C239.9,183.3,240.3,183.1,240.8,183.1z M240.8,183.6   c-0.3,0-0.6,0.2-0.7,0.5c-0.2,0.3-0.2,0.8-0.2,1.5c0,0.6,0.1,1.1,0.2,1.5c0.2,0.3,0.4,0.5,0.7,0.5s0.6-0.2,0.7-0.5   c0.2-0.3,0.2-0.8,0.2-1.5c0-0.6-0.1-1.1-0.2-1.5C241.4,183.7,241.2,183.6,240.8,183.6z"
   id="path87" />
	<path
   d="M244.9,183.1c0.5,0,0.9,0.2,1.2,0.6c0.3,0.4,0.4,1,0.4,1.8c0,0.8-0.1,1.4-0.4,1.8c-0.3,0.4-0.7,0.6-1.2,0.6   c-0.5,0-0.9-0.2-1.2-0.6s-0.4-1-0.4-1.8c0-0.8,0.1-1.4,0.4-1.8C244,183.3,244.4,183.1,244.9,183.1z M244.9,183.6   c-0.3,0-0.6,0.2-0.7,0.5c-0.2,0.3-0.2,0.8-0.2,1.5c0,0.6,0.1,1.1,0.2,1.5s0.4,0.5,0.7,0.5c0.3,0,0.6-0.2,0.7-0.5   c0.2-0.3,0.2-0.8,0.2-1.5c0-0.6-0.1-1.1-0.2-1.5C245.5,183.7,245.3,183.6,244.9,183.6z"
   id="path88" />
	<line
   x1="249.3"
   y1="170.9"
   x2="248.1"
   y2="170.9"
   id="line88" />
	<line
   class="st37"
   x1="249.3"
   y1="170.9"
   x2="248.1"
   y2="170.9"
   id="line89" />
	<path
   d="M227.7,172.8h2.2v0.5h-3v-0.5c0.2-0.2,0.6-0.6,1-1c0.4-0.4,0.7-0.7,0.8-0.8c0.2-0.2,0.3-0.4,0.4-0.6   c0.1-0.2,0.1-0.3,0.1-0.5c0-0.2-0.1-0.5-0.3-0.6c-0.2-0.2-0.4-0.2-0.7-0.2c-0.2,0-0.4,0-0.6,0.1c-0.2,0.1-0.5,0.2-0.7,0.3v-0.6   c0.3-0.1,0.5-0.2,0.7-0.2c0.2-0.1,0.4-0.1,0.6-0.1c0.5,0,0.9,0.1,1.2,0.4c0.3,0.2,0.4,0.6,0.4,1c0,0.2,0,0.4-0.1,0.5   c-0.1,0.2-0.2,0.4-0.4,0.6c-0.1,0.1-0.2,0.2-0.5,0.5C228.6,171.9,228.2,172.3,227.7,172.8z"
   id="path89" />
	<path
   d="M231.2,168.6h2.5v0.5h-1.9v1.2c0.1,0,0.2-0.1,0.3-0.1c0.1,0,0.2,0,0.3,0c0.5,0,0.9,0.1,1.2,0.4c0.3,0.3,0.5,0.7,0.5,1.2   c0,0.5-0.2,0.9-0.5,1.2c-0.3,0.3-0.8,0.4-1.3,0.4c-0.2,0-0.4,0-0.6,0c-0.2,0-0.4-0.1-0.6-0.1v-0.6c0.2,0.1,0.4,0.2,0.6,0.2   c0.2,0.1,0.4,0.1,0.6,0.1c0.4,0,0.7-0.1,0.9-0.3c0.2-0.2,0.3-0.5,0.3-0.8c0-0.3-0.1-0.6-0.3-0.8c-0.2-0.2-0.5-0.3-0.9-0.3   c-0.2,0-0.3,0-0.5,0.1c-0.2,0-0.3,0.1-0.5,0.2V168.6z"
   id="path90" />
	<path
   d="M236.7,168.5c0.5,0,0.9,0.2,1.2,0.6c0.3,0.4,0.4,1,0.4,1.8c0,0.8-0.1,1.4-0.4,1.8c-0.3,0.4-0.7,0.6-1.2,0.6   s-0.9-0.2-1.2-0.6c-0.3-0.4-0.4-1-0.4-1.8c0-0.8,0.1-1.4,0.4-1.8C235.8,168.8,236.2,168.5,236.7,168.5z M236.7,169   c-0.3,0-0.6,0.2-0.7,0.5c-0.2,0.3-0.2,0.8-0.2,1.5c0,0.6,0.1,1.1,0.2,1.5c0.2,0.3,0.4,0.5,0.7,0.5s0.6-0.2,0.7-0.5   c0.2-0.3,0.2-0.8,0.2-1.5c0-0.6-0.1-1.1-0.2-1.5C237.3,169.2,237,169,236.7,169z"
   id="path91" />
	<path
   d="M240.8,168.5c0.5,0,0.9,0.2,1.2,0.6c0.3,0.4,0.4,1,0.4,1.8c0,0.8-0.1,1.4-0.4,1.8c-0.3,0.4-0.7,0.6-1.2,0.6   s-0.9-0.2-1.2-0.6c-0.3-0.4-0.4-1-0.4-1.8c0-0.8,0.1-1.4,0.4-1.8C239.9,168.8,240.3,168.5,240.8,168.5z M240.8,169   c-0.3,0-0.6,0.2-0.7,0.5c-0.2,0.3-0.2,0.8-0.2,1.5c0,0.6,0.1,1.1,0.2,1.5c0.2,0.3,0.4,0.5,0.7,0.5s0.6-0.2,0.7-0.5   c0.2-0.3,0.2-0.8,0.2-1.5c0-0.6-0.1-1.1-0.2-1.5C241.4,169.2,241.2,169,240.8,169z"
   id="path92" />
	<path
   d="M244.9,168.5c0.5,0,0.9,0.2,1.2,0.6c0.3,0.4,0.4,1,0.4,1.8c0,0.8-0.1,1.4-0.4,1.8c-0.3,0.4-0.7,0.6-1.2,0.6   c-0.5,0-0.9-0.2-1.2-0.6s-0.4-1-0.4-1.8c0-0.8,0.1-1.4,0.4-1.8C244,168.8,244.4,168.5,244.9,168.5z M244.9,169   c-0.3,0-0.6,0.2-0.7,0.5c-0.2,0.3-0.2,0.8-0.2,1.5c0,0.6,0.1,1.1,0.2,1.5s0.4,0.5,0.7,0.5c0.3,0,0.6-0.2,0.7-0.5   c0.2-0.3,0.2-0.8,0.2-1.5c0-0.6-0.1-1.1-0.2-1.5C245.5,169.2,245.3,169,244.9,169z"
   id="path93" />
	<path
   d="M218,210.4h0.8c-0.2,0.3-0.4,0.6-0.6,0.9c-0.1,0.3-0.2,0.6-0.2,1c0,0.7,0.2,1.2,0.6,1.6s1,0.5,1.8,0.5s1.4-0.2,1.8-0.5   s0.6-0.9,0.6-1.6c0-0.3-0.1-0.7-0.2-1c-0.1-0.3-0.3-0.6-0.6-0.9h0.8c0.2,0.3,0.3,0.6,0.4,0.9s0.1,0.6,0.1,1c0,0.9-0.3,1.6-0.8,2.1   c-0.5,0.5-1.3,0.8-2.2,0.8c-0.9,0-1.7-0.3-2.2-0.8c-0.5-0.5-0.8-1.2-0.8-2.1c0-0.4,0-0.7,0.1-1C217.7,211,217.8,210.7,218,210.4z"
   id="path94" />
	<path
   d="M218.9,207.5c0-0.6,0.2-1.1,0.6-1.5c0.4-0.4,1-0.5,1.7-0.5c0.7,0,1.3,0.2,1.7,0.5c0.4,0.4,0.6,0.9,0.6,1.5   c0,0.6-0.2,1.1-0.6,1.5c-0.4,0.4-1,0.5-1.7,0.5c-0.7,0-1.3-0.2-1.7-0.5C219.1,208.6,218.9,208.1,218.9,207.5z M219.5,207.5   c0,0.4,0.2,0.7,0.5,0.9c0.3,0.2,0.7,0.3,1.2,0.3c0.5,0,0.9-0.1,1.3-0.3c0.3-0.2,0.5-0.5,0.5-0.9c0-0.4-0.1-0.7-0.5-0.9   c-0.3-0.2-0.7-0.3-1.3-0.3c-0.5,0-0.9,0.1-1.2,0.3C219.7,206.8,219.5,207.1,219.5,207.5z"
   id="path95" />
	<path
   d="M218.9,202.5L218.9,202.5z M221.7,204.3H219v-0.7h2.7c0.4,0,0.7-0.1,0.9-0.2c0.2-0.2,0.3-0.4,0.3-0.7   c0-0.4-0.1-0.7-0.4-0.9c-0.3-0.2-0.6-0.3-1-0.3H219v-0.7h4.4v0.7h-0.7c0.3,0.2,0.5,0.4,0.6,0.6c0.1,0.2,0.2,0.5,0.2,0.8   c0,0.5-0.2,0.9-0.5,1.2C222.8,204.2,222.3,204.3,221.7,204.3z"
   id="path96" />
	<path
   d="M220.8,195.4h2.7v0.7h-2.6c-0.4,0-0.7,0.1-0.9,0.3c-0.2,0.2-0.3,0.4-0.3,0.7c0,0.4,0.1,0.7,0.4,0.9c0.3,0.2,0.6,0.3,1,0.3   h2.5v0.7H219v-0.7h0.7c-0.3-0.2-0.5-0.4-0.6-0.6c-0.1-0.2-0.2-0.5-0.2-0.8c0-0.5,0.2-0.9,0.5-1.1   C219.7,195.6,220.2,195.4,220.8,195.4z"
   id="path97" />
	<path
   d="M217.8,193.3h1.3v-1.5h0.6v1.5h2.4c0.4,0,0.6,0,0.7-0.1c0.1-0.1,0.2-0.3,0.2-0.6v-0.7h0.6v0.7c0,0.6-0.1,1-0.3,1.2   c-0.2,0.2-0.6,0.3-1.1,0.3h-2.4v0.5H219V194h-1.3V193.3z"
   id="path98" />
	<line
   class="st38"
   x1="249.3"
   y1="243.5"
   x2="249.3"
   y2="163.7"
   id="line98" />
	<line
   class="st38"
   x1="350.9"
   y1="243.5"
   x2="350.9"
   y2="163.7"
   id="line99" />
	<line
   class="st38"
   x1="249.3"
   y1="243.5"
   x2="350.9"
   y2="243.5"
   id="line100" />
	<line
   class="st38"
   x1="249.29999"
   y1="163.7"
   x2="350.89999"
   y2="163.7"
   id="line101" />
	<g
   id="g194">
		<g
   id="g193">
			<g
   id="XMLID_7_">
				<g
   id="g151">
					<path
   d="M114.8,155.9c1.2,1.4,2.7,3.4,1,5.1c-1.1,1.1-2.9,1.5-4.5,1.4c-0.2-0.6-0.5-1.1-0.9-1.6c1.3,0.3,2.7,0.2,3.8-0.5       c1.6-1.1,0.1-2.8-0.9-3.7c-1-0.9-2.8-2-4-0.7c-0.8,0.8-0.7,2.2-0.5,3.2c-0.5-0.4-1-0.8-1.5-1.1c0-1.6,0.4-3.2,1.9-3.8       C111.4,153.2,113.4,154.4,114.8,155.9z"
   id="path101" />
					<path
   class="st15"
   d="M113.4,156.6c1,0.9,2.5,2.6,0.9,3.7c-1.1,0.7-2.6,0.8-3.8,0.5c-0.5-0.6-1-1.2-1.6-1.7       c-0.1-1.1-0.2-2.4,0.5-3.2C110.6,154.6,112.5,155.6,113.4,156.6z"
   id="path102" />
					<path
   d="M111.6,163.1c0.1,0.4-0.1,0.7-0.3,0.8c-0.1-0.5-0.2-1-0.3-1.5c0.1,0,0.3,0,0.4,0.1       C111.4,162.6,111.5,162.8,111.6,163.1z"
   id="path103" />
					<path
   d="M111.3,163.8c1,6.2-0.6,12-7.1,14.3c-6.3,2.3-14.4,2.2-19.9-1.9c-4.2-3-8-9.4-4.8-14.4c0.7-1,1.6-1.9,2.6-2.6       c0.2,0.2,0.5,0.3,0.7,0.4c0.2,0.1,0.4,0.1,0.5,0l0.3,0.5c-0.5,0.3-1,0.7-1.5,1c-3.2,2.6-2.7,7-0.7,10.2       c4,6.5,12.4,7.8,19.4,6.3c3.6-0.8,7.4-2.3,8.8-6.1c1.2-3,0.6-6.5-0.2-9.5c0-0.1,0-0.1,0-0.1c0.1,0,0.2,0.1,0.2,0.1       c0.3,0.4,0.5,0.9,0.6,1.4C110.4,164,110.9,164.1,111.3,163.8z"
   id="path104" />
					<path
   d="M111.3,162.4c-0.1,0-0.3,0-0.4-0.1c-0.1-0.2-0.1-0.4-0.2-0.6c-0.2-0.8-1.2-0.6-1.4,0c-0.2-0.3-0.3-0.5-0.5-0.7l0,0       c0.1-0.3,0.4-0.6,0.8-0.4c0.3,0.1,0.5,0.2,0.7,0.2C110.8,161.3,111.1,161.8,111.3,162.4z"
   id="path105" />
					<path
   d="M111.3,163.8c-0.4,0.2-0.9,0.1-1.1-0.4c-0.2-0.5-0.4-1-0.6-1.4c0.4,0.1,0.9,0.2,1.3,0.3       C111.1,162.8,111.2,163.3,111.3,163.8z"
   id="path106" />
					<path
   d="M110.8,161.7c0.1,0.2,0.1,0.4,0.2,0.6c-0.5-0.1-0.9-0.2-1.3-0.3c-0.1-0.1-0.2-0.3-0.2-0.4       C109.6,161.1,110.6,160.9,110.8,161.7z"
   id="path107" />
					<path
   d="M110.5,160.8c-0.3-0.1-0.5-0.1-0.7-0.2c-0.4-0.2-0.7,0.1-0.8,0.4c-0.3-0.3-0.5-0.6-0.8-0.9c0.4,0.1,0.9-0.1,0.9-0.7       c0-0.2-0.1-0.3-0.1-0.4C109.5,159.6,110,160.2,110.5,160.8z"
   id="path108" />
					<path
   class="st15"
   d="M109.4,162.1c0.8,3,1.3,6.5,0.2,9.5c-1.4,3.7-5.2,5.3-8.8,6.1c-7,1.4-15.3,0.2-19.4-6.3       c-1.9-3.2-2.5-7.6,0.7-10.2c0.5-0.4,1-0.7,1.5-1c2.3-1.4,5-2.4,7.6-2.9c4.4-0.9,12.2-0.8,16.4,2.6c0.1,0.3,0.3,0.4,0.5,0.4       c0.3,0.3,0.6,0.6,0.8,0.9l0,0C108.8,161.4,108.9,161.9,109.4,162.1L109.4,162.1C109.4,162.1,109.4,162.1,109.4,162.1z        M86.4,165.2c0.7-0.2,1.1-0.9,0.9-1.6v-0.1c-0.1-0.3-0.3-0.5-0.5-0.6c-0.3-0.1-0.7-0.1-0.9,0.1c-0.7,0.4-0.6,1.3-0.3,1.9       C85.8,165.2,86.1,165.3,86.4,165.2z M87.1,172.2c0-1.2,0-2.3,0-3.5c0-0.4-0.4-0.8-0.7-0.7c-0.9,0.1-1.7,0.3-2.6,0.5       c-0.7,0.3-0.6,1.1-0.1,1.4c0,1.4,1.1,2.8,2.5,3C86.7,172.9,87.1,172.6,87.1,172.2z M83,164.9c0.3-0.6-0.1-1.4-0.8-1.4       c-0.3,0-0.7,0.2-0.8,0.5c-0.2,0.3-0.2,0.7,0,1c0.1,0.3,0.5,0.4,0.8,0.4C82.4,165.3,82.8,165.2,83,164.9z"
   id="path109" />
					<path
   d="M109.6,162.1c-0.1,0-0.2-0.1-0.2-0.1c0-0.1,0-0.2,0-0.3C109.5,161.8,109.5,162,109.6,162.1z"
   id="path110" />
					<path
   d="M109.4,161.7c0,0.1-0.1,0.2,0,0.3l0,0c-0.5-0.2-0.6-0.6-0.5-1C109.1,161.2,109.3,161.5,109.4,161.7z"
   id="path111" />
					<path
   d="M109,159.5c0.1,0.6-0.5,0.8-0.9,0.7c-0.2-0.2-0.4-0.3-0.5-0.4c-0.1-0.1-0.1-0.2-0.1-0.2c-0.1-0.5-0.1-1-0.1-1.5       c0.5,0.3,1,0.7,1.5,1.1C108.9,159.2,109,159.4,109,159.5z"
   id="path112" />
					<path
   d="M107.6,159.7c0.2,0.2,0.4,0.3,0.5,0.4C107.9,160.1,107.7,160,107.6,159.7z"
   id="path113" />
					<path
   d="M107.5,159.5c0,0.1,0.1,0.2,0.1,0.2c-4.2-3.3-12-3.4-16.4-2.6c-2.6,0.5-5.3,1.4-7.6,2.9l-0.3-0.5       c0.3-0.2,0.4-0.5,0.4-0.8c0.3-0.1,0.5-0.3,0.5-0.6v-0.1c0.1-0.1,0.3-0.1,0.4-0.2c0.3,0.2,0.7,0.2,1-0.3       c0.1-0.1,0.1-0.2,0.2-0.3c0.3-0.1,0.5-0.2,0.8-0.3c3.3-1.3,6.9-1.9,10.5-1.8c3.3,0.1,7.5,0.8,10.7,2.8       C107.4,158.5,107.5,159,107.5,159.5z"
   id="path114" />
					<path
   d="M90.4,138.7c2.6,1,4.1,5.3,3.1,7.7c-0.7,1.8-2.3,3.1-3.5,4.6c-1.7,2-3.1,4.2-4.4,6.4c-0.4,0.2-0.8,0.3-1.1,0.5       c-0.2-0.1-0.3-0.2-0.3-0.3c0.1-0.3,0.1-0.5,0.1-0.8c1.4-2.4,3-4.7,4.8-6.9c1.1-1.3,2.7-2.6,3.2-4.4c0.4-1.5-0.1-3.5-1.2-4.7       c-3.8-3.9-5.8,6.2-6.1,8.2c-0.3,2.6-0.4,5.1-0.6,7.6c0,0.1-0.1,0.1-0.1,0.1c-0.2,0.3-0.1,0.5,0,0.7c0,0.2-0.1,0.4-0.1,0.5       c-0.1,0.1-0.3,0.1-0.4,0.2c0.2-0.1,0.3-0.3,0.3-0.6c0.1-2.7,0.3-5.4,0.4-8.2c0.1-2.1,0.4-4.2,0.3-6.3       C85.6,140.8,87.5,137.7,90.4,138.7z"
   id="path115" />
					<path
   class="st15"
   d="M90.9,141c1.1,1.2,1.6,3.2,1.2,4.7c-0.5,1.7-2.1,3-3.2,4.4c-1.8,2.2-3.4,4.4-4.8,6.9       c0.3-2.6,0.3-5.1,0.6-7.6C85.1,147.2,87.1,137,90.9,141z"
   id="path116" />
					<path
   d="M85.9,163.8L85.9,163.8c0,0.1,0,0.2,0.1,0.2c0,0.1,0,0.1,0,0.1c0.1,0.3,0.4,0.5,0.7,0.5c0.4,0,0.8-0.3,0.7-0.7       c0-0.1,0-0.2-0.1-0.3v0.1c0.3,0.7-0.2,1.4-0.9,1.6c-0.3,0.1-0.7-0.1-0.8-0.4c-0.4-0.6-0.5-1.5,0.3-1.9c0.3-0.2,0.7-0.2,0.9-0.1       c0.3,0.1,0.5,0.4,0.5,0.6c-0.2-0.4-0.5-0.6-0.9-0.5C86.2,163.2,85.9,163.5,85.9,163.8z"
   id="path117" />
					<path
   d="M86.8,164c0,0.1,0,0.1-0.1,0.2l0,0c-0.2-0.1-0.4-0.2-0.6-0.3c0,0,0,0,0.1,0c0,0,0,0-0.1,0l0,0c-0.1,0-0.1,0.1-0.1,0.1       l0,0l0,0l0,0l0,0l0,0l0,0l0,0l0,0c0,0,0,0,0-0.1l0,0v-0.1c0,0,0,0,0-0.1c0-0.3,0.3-0.6,0.5-0.7c0.4-0.1,0.7,0.1,0.9,0.5       c0,0.1,0.1,0.2,0.1,0.3c0.1,0.4-0.4,0.7-0.7,0.7c-0.3,0-0.6-0.2-0.7-0.5l0,0l0,0c0.2,0.4,0.6,0.5,0.7,0.1       c0.1,0,0.1,0.1,0.2,0.1C86.9,164.1,86.9,164.1,86.8,164C86.8,164,86.8,164,86.8,164z M86.8,164L86.8,164L86.8,164L86.8,164       L86.8,164z"
   id="path118" />
					<path
   d="M87.1,168.7c0,1.2,0,2.3,0,3.5c0,0.5-0.5,0.8-0.9,0.7c-1.4-0.3-2.5-1.5-2.5-3c0.2,0.1,0.3,0.1,0.5,0       c0.3-0.1,0.6-0.2,0.9-0.3c0,0.1,0,0.1,0,0.2c0,0.5,0.2,1,0.6,1.3c0,0.4,0,0.8,0,1.1c0.3-0.3,0.6-0.5,0.9-0.7       c-0.4-0.1-0.7-0.2-0.9-0.4c0-0.5,0-1,0-1.5c0.3-0.1,0.5-0.1,0.7-0.1c-0.3-0.3-0.5-0.5-0.7-0.7c0,0.3,0,0.6,0,0.8       c-0.2,0.1-0.4,0.1-0.6,0.1c-0.1-0.8-1.4-0.8-1.4,0.2c0,0.1,0,0.1,0,0.1c-0.5-0.3-0.6-1.1,0.1-1.4c0.9-0.3,1.7-0.5,2.6-0.5       C86.8,167.9,87.1,168.3,87.1,168.7z"
   id="path119" />
					<path
   d="M86.8,164c0,0.1,0.1,0.1,0.1,0.2c-0.1,0-0.1-0.1-0.2-0.1l0,0C86.8,164.1,86.8,164,86.8,164C86.8,164,86.8,164,86.8,164       z"
   id="path120" />
					<path
   d="M86.8,163.9c0,0,0,0.1,0,0.1l0,0l0,0C86.8,164,86.8,163.9,86.8,163.9z"
   id="path121" />
					<path
   d="M86.1,163.8c0.2,0.1,0.4,0.2,0.6,0.3c-0.2,0.4-0.6,0.3-0.7-0.1l0,0V164l0,0c0,0,0,0,0-0.1l0,0l0,0       C86,163.8,86,163.8,86.1,163.8z"
   id="path122" />
					<path
   d="M86.6,171.4c-0.3,0.3-0.6,0.5-0.9,0.7c0-0.4,0-0.8,0-1.1C85.9,171.2,86.2,171.4,86.6,171.4z"
   id="path123" />
					<path
   d="M85.7,168.7c0.3,0.3,0.5,0.5,0.7,0.7c-0.3,0-0.5,0.1-0.7,0.1C85.7,169.2,85.7,168.9,85.7,168.7z"
   id="path124" />
					<path
   d="M86.1,163.8L86.1,163.8L86.1,163.8L86.1,163.8z"
   id="path125" />
					<path
   d="M86,163.9L86,163.9C86,164,86,164,86,163.9L86,163.9L86,163.9L86,163.9z"
   id="path126" />
					<path
   d="M86,163.9L86,163.9L86,163.9L86,163.9z"
   id="path127" />
					<path
   d="M86,164L86,164C86,164.1,86,164.1,86,164c-0.1-0.1-0.1-0.2-0.1-0.2v0.1l0,0v0.1C86,164,86,164,86,164z"
   id="path128" />
					<path
   d="M86,164L86,164L86,164C86,164,86,164,86,164L86,164z"
   id="path129" />
					<path
   d="M86,164C86,164,86,164,86,164L86,164C86,164,86,164,86,164C86,164,86,164,86,164z"
   id="path130" />
					<path
   d="M86,163.9L86,163.9L86,163.9z"
   id="path131" />
					<path
   d="M86,163.9L86,163.9L86,163.9C86,164,86,164,86,163.9z"
   id="path132" />
					<path
   d="M86,164L86,164C85.9,164,85.9,164,86,164C85.9,164,86,164,86,164z"
   id="path133" />
					<path
   d="M85.6,157.4c-0.1,0.1-0.1,0.2-0.2,0.3c-0.3,0.4-0.7,0.4-1,0.3C84.8,157.7,85.2,157.6,85.6,157.4z"
   id="path134" />
					<path
   d="M84.7,143.3c0.1,2.1-0.2,4.2-0.3,6.3c-0.1,2.7-0.3,5.4-0.4,8.2c0,0.3-0.2,0.5-0.3,0.6c-0.1,0-0.1,0.1-0.1,0.1       c-0.1,0.1-0.2,0.1-0.2,0.1c-0.1-0.1-0.2-0.2-0.3-0.2c-0.2-0.1-0.3-0.2-0.5-0.3c0.6-4.6,0.3-9.3,1.7-13.7       C84.4,144,84.6,143.6,84.7,143.3z"
   id="path135" />
					<path
   d="M84.6,141.8c0.1,0.5,0.2,0.9,0.2,1.4c-0.2,0.4-0.3,0.7-0.4,1c-1.4,4.4-1.1,9.1-1.7,13.7l0,0c-0.1-0.1-0.1-0.2-0.1-0.3       c0.2-3.2,0.3-6.4,0.5-9.5c0.1-1.3,0.2-2.7,0.2-4.1c0-1,0.1-2.8-0.6-3.6c-1-0.4-2-0.8-3-1.1c-0.4,0.4-0.7,0.7-1,1       c-1.7,2.6-0.7,7.1,0.2,9.9c0.7,2.4,1.6,6.3,3.9,7.6c0,0,0,0,0,0.1s0,0.1,0,0.2c-0.1,0.3,0.1,0.5,0.3,0.6       c-0.3,0.2-0.6,0.4-0.8,0.5c-3.1-1.8-4.2-6.2-5-9.4c-0.9-3.2-1.8-8.8,1.1-11.3C81,136.4,84,138.9,84.6,141.8z"
   id="path136" />
					<path
   d="M83.7,169.7c0-0.9,1.3-0.9,1.4-0.2c-0.3,0.1-0.6,0.2-0.9,0.3c-0.2,0.1-0.4,0.1-0.5,0C83.7,169.8,83.7,169.7,83.7,169.7       z"
   id="path137" />
					<path
   d="M84.2,157c0-0.1,0.1-0.1,0.1-0.1c-0.1,0.3-0.1,0.5-0.1,0.8C84,157.4,84,157.2,84.2,157z"
   id="path138" />
					<path
   d="M84.1,158.1L84.1,158.1c-0.1,0.4-0.3,0.6-0.5,0.7c0-0.1-0.1-0.3-0.2-0.4c0.1-0.1,0.1-0.1,0.2-0.1       c0.1,0,0.1-0.1,0.1-0.1C83.8,158.2,84,158.2,84.1,158.1z"
   id="path139" />
					<path
   d="M83.6,158.4c0.1,0,0.1-0.1,0.1-0.1C83.7,158.3,83.7,158.4,83.6,158.4z"
   id="path140" />
					<path
   d="M83.6,158.8c0.1,0.4-0.1,0.7-0.4,0.8c-0.2,0.1-0.3,0.1-0.5,0c-0.3-0.1-0.5-0.2-0.7-0.4c0.3-0.2,0.6-0.4,0.8-0.5       C83.1,158.9,83.4,158.9,83.6,158.8z"
   id="path141" />
					<path
   d="M83.4,158.5c0.1,0.1,0.2,0.2,0.2,0.4c-0.3,0.1-0.5,0.1-0.7-0.1C83.1,158.7,83.3,158.6,83.4,158.5z"
   id="path142" />
					<path
   d="M83.6,158.4c-0.1,0.1-0.1,0.1-0.2,0.1c0,0,0-0.1-0.1-0.1C83.5,158.4,83.5,158.4,83.6,158.4z"
   id="path143" />
					<path
   d="M83.4,158.4C83.4,158.4,83.4,158.4,83.4,158.4c-0.2,0.2-0.3,0.3-0.5,0.4c-0.2-0.1-0.3-0.3-0.3-0.6c0-0.1,0-0.1,0-0.2       C82.8,158.3,83.1,158.5,83.4,158.4z"
   id="path144" />
					<path
   d="M83.4,158.4c-0.3,0.1-0.6-0.1-0.8-0.4l0,0c0.2,0.1,0.3,0.2,0.5,0.3C83.2,158.3,83.3,158.4,83.4,158.4z"
   id="path145" />
					<path
   class="st15"
   d="M82.6,140.6c0.7,0.8,0.6,2.6,0.6,3.6c0,1.3-0.1,2.7-0.2,4.1c-0.2,3.2-0.3,6.4-0.5,9.5       c0,0.1,0,0.2,0.1,0.3c-2.4-1.4-3.2-5.3-3.9-7.6c-0.8-2.8-1.9-7.3-0.2-9.9c0.4-0.4,0.7-0.7,1-1       C80.6,139.8,81.6,140.2,82.6,140.6z"
   id="path146" />
					<path
   d="M82.1,163.5c0.8,0,1.1,0.8,0.8,1.4c-0.2,0.3-0.6,0.4-0.9,0.3c0.1,0,0.2-0.1,0.2-0.1c0.3-0.2,0.4-0.4,0.4-0.7       c0-0.1-0.1-0.2-0.1-0.3v-0.1c0,0.1,0.1,0.2,0.1,0.3c-0.1-0.1-0.2,0-0.5,0.2c-0.5,0.3-0.6,0.2-0.5-0.4c-0.2,0.4-0.1,0.8,0.3,1       c0.1,0,0.1,0.1,0.2,0.1c-0.3,0.1-0.7-0.1-0.8-0.4c-0.2-0.4-0.2-0.7,0-1C81.5,163.6,81.8,163.5,82.1,163.5z"
   id="path147" />
					<path
   d="M82.7,164.5c0,0.3-0.1,0.5-0.4,0.7c-0.1,0.1-0.2,0.1-0.2,0.1c-0.1,0-0.1-0.1-0.2-0.1c-0.4-0.2-0.5-0.7-0.3-1       c-0.2,0.5,0,0.6,0.5,0.4C82.4,164.4,82.6,164.4,82.7,164.5L82.7,164.5C82.7,164.4,82.7,164.5,82.7,164.5       C82.7,164.5,82.7,164.5,82.7,164.5z"
   id="path148" />
					<path
   d="M82.7,164.5C82.7,164.5,82.7,164.5,82.7,164.5c0-0.1,0-0.1,0-0.1l0,0c0-0.1-0.1-0.2-0.1-0.3v0.1       C82.6,164.3,82.7,164.4,82.7,164.5z"
   id="path149" />
					<path
   d="M82.7,158L82.7,158L82.7,158L82.7,158z"
   id="path150" />
					<path
   d="M82.7,164.5L82.7,164.5L82.7,164.5z"
   id="path151" />
				</g>
				<g
   id="g192">
					<path
   class="st39"
   d="M108.9,161c0.2,0.2,0.4,0.5,0.5,0.7c0.1,0.1,0.2,0.2,0.2,0.4c0.3,0.4,0.5,0.9,0.6,1.4       c0.2,0.5,0.7,0.6,1.1,0.4c0.3-0.2,0.4-0.4,0.3-0.8c-0.1-0.3-0.2-0.5-0.3-0.7c-0.2-0.6-0.5-1.1-0.9-1.6c-0.5-0.6-1-1.2-1.6-1.7       c-0.5-0.4-1-0.8-1.5-1.1c-3.1-1.9-7.3-2.7-10.7-2.8c-3.5-0.1-7.1,0.5-10.5,1.8c-0.3,0.1-0.5,0.2-0.8,0.3       c-0.4,0.2-0.8,0.3-1.1,0.5c-0.1,0.1-0.3,0.1-0.4,0.2c-0.1,0.1-0.3,0.1-0.4,0.2c-0.1,0-0.1,0.1-0.1,0.1       c-0.1,0.1-0.1,0.1-0.2,0.1c-0.2,0.1-0.4,0.2-0.6,0.3c-0.3,0.2-0.6,0.4-0.8,0.5c-1.1,0.7-2,1.6-2.6,2.6       c-3.1,5,0.6,11.4,4.8,14.4c5.6,4,13.6,4.2,19.9,1.9c6.6-2.4,8.2-8.2,7.1-14.3c-0.1-0.5-0.2-1-0.3-1.5c-0.1-0.2-0.1-0.4-0.2-0.6       c-0.2-0.8-1.2-0.6-1.4,0c0,0.1-0.1,0.2,0,0.3c0,0.1,0,0.1,0,0.1c0.8,3,1.3,6.5,0.2,9.5c-1.4,3.7-5.2,5.3-8.8,6.1       c-7,1.4-15.3,0.2-19.4-6.3c-1.9-3.2-2.5-7.6,0.7-10.2c0.5-0.4,1-0.7,1.5-1c2.3-1.4,5-2.4,7.6-2.9c4.4-0.9,12.2-0.8,16.4,2.6       c0.2,0.2,0.4,0.3,0.5,0.4C108.4,160.4,108.7,160.7,108.9,161"
   id="path152" />
					<path
   class="st39"
   d="M108.1,160.2c0.4,0.1,0.9-0.1,0.9-0.7c0-0.2-0.1-0.3-0.1-0.4c-0.1-1.1-0.2-2.4,0.5-3.2       c1.2-1.3,3-0.2,4,0.7s2.5,2.6,0.9,3.7c-1.1,0.7-2.6,0.8-3.8,0.5c-0.3-0.1-0.5-0.1-0.7-0.2c-0.4-0.2-0.7,0.1-0.8,0.4l0,0       c-0.1,0.4,0,0.8,0.5,1l0,0c0.1,0,0.2,0.1,0.2,0.1c0.4,0.1,0.9,0.2,1.3,0.3c0.1,0,0.3,0,0.4,0.1c1.6,0.1,3.3-0.3,4.5-1.4       c1.7-1.6,0.2-3.7-1-5.1c-1.3-1.4-3.4-2.7-5.4-1.7c-1.6,0.7-1.9,2.3-1.9,3.8c0,0.5,0.1,1,0.1,1.5c0,0.1,0.1,0.2,0.1,0.2       C107.7,160,107.9,160.1,108.1,160.2z"
   id="path153" />
					<path
   class="st39"
   d="M82.7,158L82.7,158c0.2,0.3,0.5,0.5,0.8,0.4c0.1,0,0.2,0,0.2-0.1c0.1,0,0.1-0.1,0.1-0.1       c0.2-0.1,0.3-0.3,0.3-0.6c0.1-2.7,0.3-5.4,0.4-8.2c0.1-2.1,0.4-4.2,0.3-6.3c0-0.5-0.1-1-0.2-1.4c-0.5-2.9-3.6-5.5-6.3-3.2       c-3,2.5-2,8-1.1,11.3c0.8,3.2,1.9,7.6,5,9.4c0.2,0.2,0.5,0.3,0.7,0.4c0.2,0.1,0.4,0.1,0.5,0c0.3-0.2,0.4-0.5,0.4-0.8       c0-0.1-0.1-0.3-0.2-0.4c0,0,0-0.1-0.1-0.1c-0.1-0.1-0.2-0.2-0.3-0.2C83,158.2,82.8,158.1,82.7,158L82.7,158"
   id="path154" />
					<path
   class="st39"
   d="M82.7,158c-2.4-1.4-3.2-5.3-3.9-7.6c-0.8-2.8-1.9-7.3-0.2-9.9c0.4-0.4,0.7-0.7,1-1c1,0.4,2,0.8,3,1.1       c0.7,0.8,0.6,2.6,0.6,3.6c0,1.3-0.1,2.7-0.2,4.1c-0.2,3.2-0.3,6.4-0.5,9.5C82.6,157.8,82.6,157.9,82.7,158z"
   id="path155" />
					<path
   class="st39"
   d="M84.2,156.9c0,0.1-0.1,0.1-0.1,0.1c-0.2,0.3-0.1,0.5,0,0.7c0.1,0.2,0.2,0.3,0.3,0.3       c0.3,0.2,0.7,0.2,1-0.3c0.1-0.1,0.1-0.2,0.2-0.3c1.3-2.3,2.8-4.4,4.4-6.4c1.2-1.4,2.8-2.8,3.5-4.6c1-2.5-0.5-6.8-3.1-7.7       c-2.9-1.1-4.8,2.1-5.7,4.6c-0.2,0.4-0.3,0.7-0.4,1c-1.4,4.4-1.1,9.1-1.7,13.7l0,0c0,0.1,0,0.1,0,0.2c-0.1,0.3,0.1,0.5,0.3,0.6       c0.2,0.1,0.5,0.2,0.7,0.1c0.3-0.1,0.5-0.3,0.5-0.6v-0.1c0-0.2,0.1-0.4,0.1-0.5C84.2,157.3,84.2,157.1,84.2,156.9"
   id="path156" />
					<path
   class="st39"
   d="M84.2,156.9c0.3-2.6,0.3-5.1,0.6-7.6c0.2-2,2.3-12.2,6.1-8.2c1.1,1.2,1.6,3.2,1.2,4.7       c-0.5,1.7-2.1,3-3.2,4.4C87.2,152.2,85.6,154.5,84.2,156.9z"
   id="path157" />
					<path
   class="st39"
   d="M82.1,165.2c0.1,0,0.2-0.1,0.2-0.1c0.3-0.2,0.4-0.4,0.4-0.7c0-0.1-0.1-0.2-0.1-0.3v-0.1       c0,0.1,0.1,0.2,0.1,0.3"
   id="path158" />
					<path
   class="st39"
   d="M82.1,165.2c0.3,0.1,0.7,0,0.9-0.3c0.3-0.6-0.1-1.4-0.8-1.4c-0.3,0-0.7,0.2-0.8,0.5c-0.2,0.3-0.2,0.7,0,1       C81.5,165.2,81.8,165.3,82.1,165.2z"
   id="path159" />
					<path
   class="st39"
   d="M82.7,164.4c-0.1-0.1-0.2,0-0.5,0.2c-0.5,0.3-0.6,0.2-0.5-0.4c-0.2,0.4-0.1,0.8,0.3,1       c0.1,0,0.1,0.1,0.2,0.1"
   id="path160" />
					<path
   class="st39"
   d="M82.7,164.5C82.7,164.5,82.7,164.5,82.7,164.5c0-0.1,0-0.1,0-0.1"
   id="path161" />
					<path
   class="st39"
   d="M82.7,164.4L82.7,164.4"
   id="path162" />
					<path
   class="st39"
   d="M82.7,164.4L82.7,164.4"
   id="path163" />
					<path
   class="st39"
   d="M85.9,163.9C85.9,164,85.9,164,85.9,163.9c0,0.1,0,0.1,0.1,0.1"
   id="path164" />
					<path
   class="st39"
   d="M85.9,163.8L85.9,163.8"
   id="path165" />
					<path
   class="st39"
   d="M85.9,163.8L85.9,163.8L85.9,163.8"
   id="path166" />
					<path
   class="st39"
   d="M86,164C86,164,85.9,164,86,164"
   id="path167" />
					<path
   class="st39"
   d="M86,164C86,164,86,164,86,164"
   id="path168" />
					<path
   class="st39"
   d="M86.8,164c0,0.1,0,0.1-0.1,0.2l0,0c-0.2,0.4-0.6,0.3-0.7-0.1"
   id="path169" />
					<path
   class="st39"
   d="M86.8,164L86.8,164L86.8,164L86.8,164L86.8,164z"
   id="path170" />
					<path
   class="st39"
   d="M86.8,164L86.8,164"
   id="path171" />
					<path
   class="st39"
   d="M86.1,163.8L86.1,163.8L86.1,163.8c0.2,0.1,0.4,0.2,0.6,0.3c0.1,0,0.1,0.1,0.2,0.1       c-0.1-0.1-0.1-0.1-0.1-0.2c0-0.1-0.1-0.1-0.1-0.1"
   id="path172" />
					<path
   class="st39"
   d="M86.1,163.8L86.1,163.8L86.1,163.8"
   id="path173" />
					<path
   class="st39"
   d="M86,163.9L86,163.9"
   id="path174" />
					<path
   class="st39"
   d="M86,163.9C86,164,86,164,86,163.9"
   id="path175" />
					<path
   class="st39"
   d="M86,163.9L86,163.9"
   id="path176" />
					<path
   class="st39"
   d="M86,164C86,163.9,86,163.9,86,164C86,163.9,86,163.9,86,164L86,164c0.1-0.1,0.1-0.1,0.1-0.1"
   id="path177" />
					<line
   class="st39"
   x1="86"
   y1="164"
   x2="86"
   y2="164"
   id="line177" />
					<path
   class="st39"
   d="M86,164L86,164"
   id="path178" />
					<path
   class="st39"
   d="M86,163.9L86,163.9"
   id="path179" />
					<path
   class="st39"
   d="M86,163.9L86,163.9"
   id="path180" />
					<path
   class="st39"
   d="M86,163.9L86,163.9"
   id="path181" />
					<polyline
   class="st39"
   points="86,163.9 86,163.9 86,163.9      "
   id="polyline181" />
					<path
   class="st39"
   d="M86,163.9C86,164,86,164,86,163.9"
   id="path182" />
					<line
   class="st39"
   x1="86"
   y1="164"
   x2="86"
   y2="164"
   id="line182" />
					<path
   class="st39"
   d="M86,164L86,164L86,164c0-0.1,0-0.1,0-0.1"
   id="path183" />
					<line
   class="st39"
   x1="86"
   y1="164"
   x2="86"
   y2="164"
   id="line183" />
					<path
   class="st39"
   d="M87.3,163.5c-0.2-0.4-0.5-0.6-0.9-0.5c-0.3,0.1-0.5,0.4-0.5,0.7c0,0,0,0,0,0.1s0,0.1,0,0.2       c0,0.1,0,0.1,0,0.1"
   id="path184" />
					<path
   class="st39"
   d="M87.3,163.5c-0.1-0.3-0.3-0.5-0.5-0.6c-0.3-0.1-0.7-0.1-0.9,0.1c-0.7,0.4-0.6,1.3-0.3,1.9       c0.2,0.3,0.5,0.4,0.8,0.4C87.1,165.1,87.6,164.3,87.3,163.5C87.4,163.6,87.3,163.5,87.3,163.5z"
   id="path185" />
					<path
   class="st39"
   d="M86,164c0.1,0.3,0.4,0.5,0.7,0.5c0.4,0,0.8-0.3,0.7-0.7c0-0.1,0-0.2-0.1-0.3"
   id="path186" />
					<path
   class="st39"
   d="M83.7,169.9c0,1.4,1.1,2.8,2.5,3c0.5,0.1,0.9-0.2,0.9-0.7c0-1.2,0-2.3,0-3.5c0-0.4-0.4-0.8-0.7-0.7       c-0.9,0.1-1.7,0.3-2.6,0.5C83.1,168.7,83.2,169.6,83.7,169.9z"
   id="path187" />
					<path
   class="st39"
   d="M85.7,171c-0.4-0.3-0.6-0.8-0.6-1.3c0-0.1,0-0.1,0-0.2c-0.1-0.8-1.4-0.8-1.4,0.2c0,0.1,0,0.1,0,0.1"
   id="path188" />
					<path
   class="st39"
   d="M85.7,171c0,0.4,0,0.8,0,1.1c0.3-0.3,0.6-0.5,0.9-0.7C86.2,171.4,85.9,171.2,85.7,171z"
   id="path189" />
					<path
   class="st39"
   d="M85.7,169.5c0,0.5,0,1,0,1.5"
   id="path190" />
					<path
   class="st39"
   d="M85.7,169.5c0.3-0.1,0.5-0.1,0.7-0.1c-0.3-0.3-0.5-0.5-0.7-0.7C85.7,168.9,85.7,169.2,85.7,169.5z"
   id="path191" />
					<path
   class="st39"
   d="M83.7,169.9c0.2,0.1,0.3,0.1,0.5,0c0.3-0.1,0.6-0.2,0.9-0.3c0.2-0.1,0.4-0.1,0.6-0.1"
   id="path192" />
				</g>
			</g>
		</g>
	</g>
	<g
   id="g287">
		<g
   id="g286">
			<g
   id="XMLID_1_">
				<g
   id="g244">
					<path
   d="M500.2,155.9c1.2,1.4,2.7,3.4,1,5.1c-1.1,1.1-2.9,1.5-4.5,1.4c-0.2-0.6-0.5-1.1-0.9-1.6c1.3,0.3,2.7,0.2,3.8-0.5       c1.6-1.1,0.1-2.8-0.9-3.7c-1-0.9-2.8-2-4-0.7c-0.8,0.8-0.7,2.2-0.5,3.2c-0.5-0.4-1-0.8-1.5-1.1c0-1.6,0.4-3.2,1.9-3.8       C496.8,153.2,498.9,154.4,500.2,155.9z"
   id="path194" />
					<path
   class="st15"
   d="M498.9,156.5c1,0.9,2.5,2.6,0.9,3.7c-1.1,0.7-2.6,0.8-3.8,0.5c-0.5-0.6-1-1.2-1.6-1.7       c-0.1-1.1-0.2-2.4,0.5-3.2C496.1,154.5,497.9,155.6,498.9,156.5z"
   id="path195" />
					<path
   d="M497,163.1c0.1,0.4-0.1,0.7-0.3,0.8c-0.1-0.5-0.2-1-0.3-1.5c0.1,0,0.3,0,0.4,0.1C496.9,162.5,497,162.8,497,163.1z"
   id="path196" />
					<path
   d="M496.7,163.8c1,6.2-0.6,12-7.1,14.3c-6.3,2.3-14.4,2.2-19.9-1.9c-4.2-3-8-9.4-4.8-14.4c0.7-1,1.6-1.9,2.6-2.6       c0.2,0.2,0.5,0.3,0.7,0.4c0.2,0.1,0.4,0.1,0.5,0l0.3,0.5c-0.5,0.3-1,0.7-1.5,1c-3.2,2.6-2.7,7-0.7,10.2       c4,6.5,12.4,7.8,19.4,6.3c3.6-0.8,7.4-2.3,8.8-6.1c1.2-3,0.6-6.5-0.2-9.5c0-0.1,0-0.1,0-0.1c0.1,0,0.2,0.1,0.2,0.1       c0.3,0.4,0.5,0.9,0.6,1.4C495.8,164,496.4,164,496.7,163.8z"
   id="path197" />
					<path
   d="M496.8,162.3c-0.1,0-0.3,0-0.4-0.1c-0.1-0.2-0.1-0.4-0.2-0.6c-0.2-0.8-1.2-0.6-1.4,0c-0.2-0.3-0.3-0.5-0.5-0.7l0,0       c0.1-0.3,0.4-0.6,0.8-0.4c0.3,0.1,0.5,0.2,0.7,0.2C496.3,161.3,496.6,161.8,496.8,162.3z"
   id="path198" />
					<path
   d="M496.7,163.8c-0.4,0.2-0.9,0.1-1.1-0.4s-0.4-1-0.6-1.4c0.4,0.1,0.9,0.2,1.3,0.3C496.5,162.8,496.6,163.3,496.7,163.8z"
   id="path199" />
					<path
   d="M496.3,161.7c0.1,0.2,0.1,0.4,0.2,0.6c-0.5-0.1-0.9-0.2-1.3-0.3c-0.1-0.1-0.2-0.3-0.2-0.4       C495,161.1,496.1,160.9,496.3,161.7z"
   id="path200" />
					<path
   d="M495.9,160.8c-0.3-0.1-0.5-0.1-0.7-0.2c-0.4-0.2-0.7,0.1-0.8,0.4c-0.3-0.3-0.5-0.6-0.8-0.9c0.4,0.1,0.9-0.1,0.9-0.7       c0-0.2-0.1-0.3-0.1-0.4C494.9,159.6,495.5,160.1,495.9,160.8z"
   id="path201" />
					<path
   class="st15"
   d="M494.9,162.1c0.8,3,1.3,6.5,0.2,9.5c-1.4,3.7-5.2,5.3-8.8,6.1c-7,1.4-15.3,0.2-19.4-6.3       c-1.9-3.2-2.5-7.6,0.7-10.2c0.5-0.4,1-0.7,1.5-1c2.3-1.4,5-2.4,7.6-2.9c4.4-0.9,12.2-0.8,16.4,2.6c0.1,0.3,0.3,0.4,0.5,0.4       c0.3,0.3,0.6,0.6,0.8,0.9l0,0C494.3,161.4,494.4,161.9,494.9,162.1L494.9,162.1C494.8,162,494.8,162,494.9,162.1z M471.9,165.2       c0.7-0.2,1.1-0.9,0.9-1.6v-0.1c-0.1-0.3-0.3-0.5-0.5-0.6c-0.3-0.1-0.7-0.1-0.9,0.1c-0.7,0.4-0.6,1.3-0.3,1.9       C471.2,165.2,471.6,165.3,471.9,165.2z M472.6,172.1c0-1.2,0-2.3,0-3.5c0-0.4-0.4-0.8-0.7-0.7c-0.9,0.1-1.7,0.3-2.6,0.5       c-0.7,0.3-0.6,1.1-0.1,1.4c0,1.4,1.1,2.8,2.5,3C472.1,172.9,472.6,172.6,472.6,172.1z M468.4,164.9c0.3-0.6-0.1-1.4-0.8-1.4       c-0.3,0-0.7,0.2-0.8,0.5c-0.2,0.3-0.2,0.7,0,1c0.1,0.3,0.5,0.4,0.8,0.4C467.9,165.3,468.3,165.2,468.4,164.9z"
   id="path202" />
					<path
   d="M495,162c-0.1,0-0.2-0.1-0.2-0.1c0-0.1,0-0.2,0-0.3C494.9,161.8,495,161.9,495,162z"
   id="path203" />
					<path
   d="M494.8,161.7c0,0.1-0.1,0.2,0,0.3l0,0c-0.5-0.2-0.6-0.6-0.5-1C494.5,161.2,494.7,161.5,494.8,161.7z"
   id="path204" />
					<path
   d="M494.4,159.5c0.1,0.6-0.5,0.8-0.9,0.7c-0.2-0.2-0.4-0.3-0.5-0.4c-0.1-0.1-0.1-0.2-0.1-0.2c-0.1-0.5-0.1-1-0.1-1.5       c0.5,0.3,1,0.7,1.5,1.1C494.4,159.2,494.4,159.4,494.4,159.5z"
   id="path205" />
					<path
   d="M493,159.7c0.2,0.2,0.4,0.3,0.5,0.4C493.3,160.1,493.1,159.9,493,159.7z"
   id="path206" />
					<path
   d="M493,159.5c0,0.1,0.1,0.2,0.1,0.2c-4.2-3.3-12-3.4-16.4-2.6c-2.6,0.5-5.3,1.4-7.6,2.9l-0.3-0.5       c0.3-0.2,0.4-0.5,0.4-0.8c0.3-0.1,0.5-0.3,0.5-0.6v-0.1c0.1-0.1,0.3-0.1,0.4-0.2c0.3,0.2,0.7,0.2,1-0.3       c0.1-0.1,0.1-0.2,0.2-0.3c0.3-0.1,0.5-0.2,0.8-0.3c3.3-1.3,6.9-1.9,10.5-1.8c3.3,0.1,7.5,0.8,10.7,2.8       C492.9,158.5,492.9,159,493,159.5z"
   id="path207" />
					<path
   d="M475.9,138.7c2.6,1,4.1,5.3,3.1,7.7c-0.7,1.8-2.3,3.1-3.5,4.6c-1.7,2-3.1,4.2-4.4,6.4c-0.4,0.2-0.8,0.3-1.1,0.5       c-0.2-0.1-0.3-0.2-0.3-0.3c0.1-0.3,0.1-0.5,0.1-0.8c1.4-2.4,3-4.7,4.8-6.9c1.1-1.3,2.7-2.6,3.2-4.4c0.4-1.5-0.1-3.5-1.2-4.7       c-3.8-3.9-5.8,6.2-6.1,8.2c-0.3,2.6-0.4,5.1-0.6,7.6c0,0.1-0.1,0.1-0.1,0.1c-0.2,0.3-0.1,0.5,0,0.7c0,0.2-0.1,0.4-0.1,0.5       c-0.1,0.1-0.3,0.1-0.4,0.2c0.2-0.1,0.3-0.3,0.3-0.6c0.1-2.7,0.3-5.4,0.4-8.2c0.1-2.1,0.4-4.2,0.3-6.3       C471.1,140.8,473,137.7,475.9,138.7z"
   id="path208" />
					<path
   class="st15"
   d="M476.4,141c1.1,1.2,1.6,3.2,1.2,4.7c-0.5,1.7-2.1,3-3.2,4.4c-1.8,2.2-3.4,4.4-4.8,6.9       c0.3-2.6,0.3-5.1,0.6-7.6C470.5,147.2,472.6,137,476.4,141z"
   id="path209" />
					<path
   d="M471.4,163.8L471.4,163.8c0,0.1,0,0.2,0.1,0.2c0,0.1,0,0.1,0,0.1c0.1,0.3,0.4,0.5,0.7,0.5c0.4,0,0.8-0.3,0.7-0.7       c0-0.1,0-0.2-0.1-0.3v0.1c0.3,0.7-0.2,1.4-0.9,1.6c-0.3,0.1-0.7-0.1-0.8-0.4c-0.4-0.6-0.5-1.5,0.3-1.9c0.3-0.2,0.7-0.2,0.9-0.1       c0.3,0.1,0.5,0.4,0.5,0.6c-0.2-0.4-0.5-0.6-0.9-0.5C471.6,163.2,471.4,163.5,471.4,163.8z"
   id="path210" />
					<path
   d="M472.2,163.9c0,0.1,0,0.1-0.1,0.2l0,0c-0.2-0.1-0.4-0.2-0.6-0.3c0,0,0,0,0.1,0c0,0,0,0-0.1,0l0,0       c-0.1,0-0.1,0.1-0.1,0.1l0,0l0,0l0,0l0,0l0,0l0,0l0,0l0,0c0,0,0,0,0-0.1l0,0v-0.1c0,0,0,0,0-0.1c0-0.3,0.3-0.6,0.5-0.7       c0.4-0.1,0.7,0.1,0.9,0.5c0,0.1,0.1,0.2,0.1,0.3c0.1,0.4-0.4,0.7-0.7,0.7c-0.3,0-0.6-0.2-0.7-0.5l0,0l0,0       c0.2,0.4,0.6,0.5,0.7,0.1c0.1,0,0.1,0.1,0.2,0.1C472.3,164.1,472.3,164,472.2,163.9C472.2,164,472.2,163.9,472.2,163.9z        M472.2,163.9L472.2,163.9L472.2,163.9L472.2,163.9L472.2,163.9z"
   id="path211" />
					<path
   d="M472.6,168.7c0,1.2,0,2.3,0,3.5c0,0.5-0.5,0.8-0.9,0.7c-1.4-0.3-2.5-1.5-2.5-3c0.2,0.1,0.3,0.1,0.5,0       c0.3-0.1,0.6-0.2,0.9-0.3c0,0.1,0,0.1,0,0.2c0,0.5,0.2,1,0.6,1.3c0,0.4,0,0.8,0,1.1c0.3-0.3,0.6-0.5,0.9-0.7       c-0.4-0.1-0.7-0.2-0.9-0.4c0-0.5,0-1,0-1.5c0.3-0.1,0.5-0.1,0.7-0.1c-0.3-0.3-0.5-0.5-0.7-0.7c0,0.3,0,0.6,0,0.8       c-0.2,0.1-0.4,0.1-0.6,0.1c-0.1-0.8-1.4-0.8-1.4,0.2c0,0.1,0,0.1,0,0.1c-0.5-0.3-0.6-1.1,0.1-1.4c0.9-0.3,1.7-0.5,2.6-0.5       C472.3,167.9,472.6,168.3,472.6,168.7z"
   id="path212" />
					<path
   d="M472.3,164c0,0.1,0.1,0.1,0.1,0.2c-0.1,0-0.1-0.1-0.2-0.1l0,0C472.3,164,472.3,164,472.3,164       C472.2,163.9,472.2,164,472.3,164z"
   id="path213" />
					<path
   d="M472.2,163.9c0,0,0,0.1,0,0.1l0,0l0,0C472.2,163.9,472.2,163.9,472.2,163.9z"
   id="path214" />
					<path
   d="M471.5,163.8c0.2,0.1,0.4,0.2,0.6,0.3c-0.2,0.4-0.6,0.3-0.7-0.1l0,0v-0.1l0,0c0,0,0,0,0-0.1l0,0l0,0       C471.5,163.8,471.5,163.8,471.5,163.8z"
   id="path215" />
					<path
   d="M472.1,171.4c-0.3,0.3-0.6,0.5-0.9,0.7c0-0.4,0-0.8,0-1.1C471.4,171.2,471.7,171.4,472.1,171.4z"
   id="path216" />
					<path
   d="M471.1,168.7c0.3,0.3,0.5,0.5,0.7,0.7c-0.3,0-0.5,0.1-0.7,0.1C471.1,169.2,471.1,168.9,471.1,168.7z"
   id="path217" />
					<path
   d="M471.5,163.8L471.5,163.8L471.5,163.8L471.5,163.8z"
   id="path218" />
					<path
   d="M471.4,163.9L471.4,163.9C471.4,163.9,471.4,163.9,471.4,163.9L471.4,163.9L471.4,163.9L471.4,163.9z"
   id="path219" />
					<path
   d="M471.4,163.9L471.4,163.9L471.4,163.9L471.4,163.9z"
   id="path220" />
					<path
   d="M471.4,164L471.4,164C471.4,164,471.4,164,471.4,164c-0.1-0.1-0.1-0.2-0.1-0.2v0.1l0,0v0.1       C471.4,164,471.4,164,471.4,164z"
   id="path221" />
					<path
   d="M471.4,164L471.4,164L471.4,164C471.4,163.9,471.4,164,471.4,164L471.4,164z"
   id="path222" />
					<path
   d="M471.4,164C471.4,164,471.4,163.9,471.4,164L471.4,164C471.4,163.9,471.4,163.9,471.4,164       C471.4,163.9,471.4,163.9,471.4,164z"
   id="path223" />
					<path
   d="M471.4,163.9L471.4,163.9L471.4,163.9z"
   id="path224" />
					<path
   d="M471.4,163.9L471.4,163.9L471.4,163.9C471.4,163.9,471.4,163.9,471.4,163.9z"
   id="path225" />
					<path
   d="M471.4,163.9L471.4,163.9C471.4,163.9,471.4,163.9,471.4,163.9C471.4,163.9,471.4,163.9,471.4,163.9z"
   id="path226" />
					<path
   d="M471,157.4c-0.1,0.1-0.1,0.2-0.2,0.3c-0.3,0.4-0.7,0.4-1,0.3C470.3,157.7,470.7,157.6,471,157.4z"
   id="path227" />
					<path
   d="M470.2,143.3c0.1,2.1-0.2,4.2-0.3,6.3c-0.1,2.7-0.3,5.4-0.4,8.2c0,0.3-0.2,0.5-0.3,0.6c-0.1,0-0.1,0.1-0.1,0.1       c-0.1,0.1-0.2,0.1-0.2,0.1c-0.1-0.1-0.2-0.2-0.3-0.2c-0.2-0.1-0.3-0.2-0.5-0.3c0.6-4.6,0.3-9.3,1.7-13.7       C469.9,144,470,143.6,470.2,143.3z"
   id="path228" />
					<path
   d="M470,141.8c0.1,0.5,0.2,0.9,0.2,1.4c-0.2,0.4-0.3,0.7-0.4,1c-1.4,4.4-1.1,9.1-1.7,13.7l0,0c-0.1-0.1-0.1-0.2-0.1-0.3       c0.2-3.2,0.3-6.4,0.5-9.5c0.1-1.3,0.2-2.7,0.2-4.1c0-1,0.1-2.8-0.6-3.6c-1-0.4-2-0.8-3-1.1c-0.4,0.4-0.7,0.7-1,1       c-1.7,2.6-0.7,7.1,0.2,9.9c0.7,2.4,1.6,6.3,3.9,7.6c0,0,0,0,0,0.1s0,0.1,0,0.2c-0.1,0.3,0.1,0.5,0.3,0.6       c-0.3,0.2-0.6,0.4-0.8,0.5c-3.1-1.8-4.2-6.2-5-9.4c-0.9-3.2-1.8-8.8,1.1-11.3C466.4,136.3,469.5,138.9,470,141.8z"
   id="path229" />
					<path
   d="M469.1,169.7c0-0.9,1.3-0.9,1.4-0.2c-0.3,0.1-0.6,0.2-0.9,0.3c-0.2,0.1-0.4,0.1-0.5,0       C469.1,169.8,469.1,169.7,469.1,169.7z"
   id="path230" />
					<path
   d="M469.6,157c0-0.1,0.1-0.1,0.1-0.1c-0.1,0.3-0.1,0.5-0.1,0.8C469.5,157.4,469.5,157.2,469.6,157z"
   id="path231" />
					<path
   d="M469.5,158.1L469.5,158.1c-0.1,0.4-0.3,0.6-0.5,0.7c0-0.1-0.1-0.3-0.2-0.4c0.1-0.1,0.1-0.1,0.2-0.1       c0.1,0,0.1-0.1,0.1-0.1C469.3,158.2,469.4,158.1,469.5,158.1z"
   id="path232" />
					<path
   d="M469.1,158.3c0.1,0,0.1-0.1,0.1-0.1C469.1,158.3,469.1,158.3,469.1,158.3z"
   id="path233" />
					<path
   d="M469,158.8c0.1,0.4-0.1,0.7-0.4,0.8c-0.2,0.1-0.3,0.1-0.5,0c-0.3-0.1-0.5-0.2-0.7-0.4c0.3-0.2,0.6-0.4,0.8-0.5       C468.5,158.9,468.8,158.9,469,158.8z"
   id="path234" />
					<path
   d="M468.9,158.4c0.1,0.1,0.2,0.2,0.2,0.4c-0.3,0.1-0.5,0.1-0.7-0.1C468.5,158.6,468.7,158.5,468.9,158.4z"
   id="path235" />
					<path
   d="M469.1,158.3c-0.1,0.1-0.1,0.1-0.2,0.1c0,0,0-0.1-0.1-0.1C468.9,158.4,469,158.4,469.1,158.3z"
   id="path236" />
					<path
   d="M468.8,158.4C468.9,158.4,468.9,158.4,468.8,158.4c-0.2,0.2-0.3,0.3-0.5,0.4c-0.2-0.1-0.3-0.3-0.3-0.6       c0-0.1,0-0.1,0-0.2C468.2,158.3,468.5,158.4,468.8,158.4z"
   id="path237" />
					<path
   d="M468.8,158.4c-0.3,0.1-0.6-0.1-0.8-0.4l0,0c0.2,0.1,0.3,0.2,0.5,0.3C468.7,158.2,468.8,158.3,468.8,158.4z"
   id="path238" />
					<path
   class="st15"
   d="M468.1,140.5c0.7,0.8,0.6,2.6,0.6,3.6c0,1.3-0.1,2.7-0.2,4.1c-0.2,3.2-0.3,6.4-0.5,9.5       c0,0.1,0,0.2,0.1,0.3c-2.4-1.4-3.2-5.3-3.9-7.6c-0.8-2.8-1.9-7.3-0.2-9.9c0.4-0.4,0.7-0.7,1-1       C466.1,139.8,467,140.2,468.1,140.5z"
   id="path239" />
					<path
   d="M467.6,163.5c0.8,0,1.1,0.8,0.8,1.4c-0.2,0.3-0.6,0.4-0.9,0.3c0.1,0,0.2-0.1,0.2-0.1c0.3-0.2,0.4-0.4,0.4-0.7       c0-0.1-0.1-0.2-0.1-0.3v-0.1c0,0.1,0.1,0.2,0.1,0.3c-0.1-0.1-0.2,0-0.5,0.2c-0.5,0.3-0.6,0.2-0.5-0.4c-0.2,0.4-0.1,0.8,0.3,1       c0.1,0,0.1,0.1,0.2,0.1c-0.3,0.1-0.7-0.1-0.8-0.4c-0.2-0.4-0.2-0.7,0-1C467,163.6,467.3,163.5,467.6,163.5z"
   id="path240" />
					<path
   d="M468.1,164.5c0,0.3-0.1,0.5-0.4,0.7c-0.1,0.1-0.2,0.1-0.2,0.1c-0.1,0-0.1-0.1-0.2-0.1c-0.4-0.2-0.5-0.7-0.3-1       c-0.2,0.5,0,0.6,0.5,0.4C467.9,164.4,468,164.3,468.1,164.5L468.1,164.5C468.1,164.4,468.1,164.4,468.1,164.5       C468.1,164.4,468.1,164.5,468.1,164.5z"
   id="path241" />
					<path
   d="M468.1,164.5C468.1,164.5,468.1,164.4,468.1,164.5c0-0.1,0-0.1,0-0.1l0,0c0-0.1-0.1-0.2-0.1-0.3v0.1       C468.1,164.3,468.1,164.4,468.1,164.5z"
   id="path242" />
					<path
   d="M468.1,158L468.1,158L468.1,158L468.1,158z"
   id="path243" />
					<path
   d="M468.1,164.4L468.1,164.4L468.1,164.4z"
   id="path244" />
				</g>
				<g
   id="g285">
					<path
   class="st39"
   d="M494.4,161c0.2,0.2,0.4,0.5,0.5,0.7c0.1,0.1,0.2,0.2,0.2,0.4c0.3,0.4,0.5,0.9,0.6,1.4       c0.2,0.5,0.7,0.6,1.1,0.4c0.3-0.2,0.4-0.4,0.3-0.8c-0.1-0.3-0.2-0.5-0.3-0.7c-0.2-0.6-0.5-1.1-0.9-1.6c-0.5-0.6-1-1.2-1.6-1.7       c-0.5-0.4-1-0.8-1.5-1.1c-3.1-1.9-7.3-2.7-10.7-2.8c-3.5-0.1-7.1,0.5-10.5,1.8c-0.3,0.1-0.5,0.2-0.8,0.3       c-0.4,0.2-0.8,0.3-1.1,0.5c-0.1,0.1-0.3,0.1-0.4,0.2c-0.1,0.1-0.3,0.1-0.4,0.2c-0.1,0-0.1,0.1-0.1,0.1       c-0.1,0.1-0.1,0.1-0.2,0.1c-0.2,0.1-0.4,0.2-0.6,0.3c-0.3,0.2-0.6,0.4-0.8,0.5c-1.1,0.7-2,1.6-2.6,2.6       c-3.1,5,0.6,11.4,4.8,14.4c5.6,4,13.6,4.2,19.9,1.9c6.6-2.4,8.2-8.2,7.1-14.3c-0.1-0.5-0.2-1-0.3-1.5c-0.1-0.2-0.1-0.4-0.2-0.6       c-0.2-0.8-1.2-0.6-1.4,0c0,0.1-0.1,0.2,0,0.3c0,0.1,0,0.1,0,0.1c0.8,3,1.3,6.5,0.2,9.5c-1.4,3.7-5.2,5.3-8.8,6.1       c-7,1.4-15.3,0.2-19.4-6.3c-1.9-3.2-2.5-7.6,0.7-10.2c0.5-0.4,1-0.7,1.5-1c2.3-1.4,5-2.4,7.6-2.9c4.4-0.9,12.2-0.8,16.4,2.6       c0.2,0.2,0.4,0.3,0.5,0.4C493.9,160.4,494.1,160.7,494.4,161"
   id="path245" />
					<path
   class="st39"
   d="M493.6,160.1c0.4,0.1,0.9-0.1,0.9-0.7c0-0.2-0.1-0.3-0.1-0.4c-0.1-1.1-0.2-2.4,0.5-3.2       c1.2-1.3,3-0.2,4,0.7s2.5,2.6,0.9,3.7c-1.1,0.7-2.6,0.8-3.8,0.5c-0.3-0.1-0.5-0.1-0.7-0.2c-0.4-0.2-0.7,0.1-0.8,0.4l0,0       c-0.1,0.4,0,0.8,0.5,1l0,0c0.1,0,0.2,0.1,0.2,0.1c0.4,0.1,0.9,0.2,1.3,0.3c0.1,0,0.3,0,0.4,0.1c1.6,0.1,3.3-0.3,4.5-1.4       c1.7-1.6,0.2-3.7-1-5.1c-1.3-1.4-3.4-2.7-5.4-1.7c-1.6,0.7-1.9,2.3-1.9,3.8c0,0.5,0.1,1,0.1,1.5c0,0.1,0.1,0.2,0.1,0.2       C493.1,159.9,493.3,160.1,493.6,160.1z"
   id="path246" />
					<path
   class="st39"
   d="M468.1,158L468.1,158c0.2,0.3,0.5,0.5,0.8,0.4c0.1,0,0.2,0,0.2-0.1c0.1,0,0.1-0.1,0.1-0.1       c0.2-0.1,0.3-0.3,0.3-0.6c0.1-2.7,0.3-5.4,0.4-8.2c0.1-2.1,0.4-4.2,0.3-6.3c0-0.5-0.1-1-0.2-1.4c-0.5-2.9-3.6-5.5-6.3-3.2       c-3,2.5-2,8-1.1,11.3c0.8,3.2,1.9,7.6,5,9.4c0.2,0.2,0.5,0.3,0.7,0.4c0.2,0.1,0.4,0.1,0.5,0c0.3-0.2,0.4-0.5,0.4-0.8       c0-0.1-0.1-0.3-0.2-0.4c0,0,0-0.1-0.1-0.1c-0.1-0.1-0.2-0.2-0.3-0.2C468.4,158.1,468.3,158.1,468.1,158L468.1,158"
   id="path247" />
					<path
   class="st39"
   d="M468.1,158c-2.4-1.4-3.2-5.3-3.9-7.6c-0.8-2.8-1.9-7.3-0.2-9.9c0.4-0.4,0.7-0.7,1-1c1,0.4,2,0.8,3,1.1       c0.7,0.8,0.6,2.6,0.6,3.6c0,1.3-0.1,2.7-0.2,4.1c-0.2,3.2-0.3,6.4-0.5,9.5C468.1,157.8,468.1,157.9,468.1,158z"
   id="path248" />
					<path
   class="st39"
   d="M469.7,156.9c0,0.1-0.1,0.1-0.1,0.1c-0.2,0.3-0.1,0.5,0,0.7c0.1,0.2,0.2,0.3,0.3,0.3       c0.3,0.2,0.7,0.2,1-0.3c0.1-0.1,0.1-0.2,0.2-0.3c1.3-2.3,2.8-4.4,4.4-6.4c1.2-1.4,2.8-2.8,3.5-4.6c1-2.5-0.5-6.8-3.1-7.7       c-2.9-1.1-4.8,2.1-5.7,4.6c-0.2,0.4-0.3,0.7-0.4,1c-1.4,4.4-1.1,9.1-1.7,13.7l0,0c0,0.1,0,0.1,0,0.2c-0.1,0.3,0.1,0.5,0.3,0.6       c0.2,0.1,0.5,0.2,0.7,0.1c0.3-0.1,0.5-0.3,0.5-0.6v-0.1c0-0.2,0.1-0.4,0.1-0.5C469.6,157.3,469.6,157.1,469.7,156.9"
   id="path249" />
					<path
   class="st39"
   d="M469.7,156.9c0.3-2.6,0.3-5.1,0.6-7.6c0.2-2,2.3-12.2,6.1-8.2c1.1,1.2,1.6,3.2,1.2,4.7       c-0.5,1.7-2.1,3-3.2,4.4C472.6,152.1,471.1,154.4,469.7,156.9z"
   id="path250" />
					<path
   class="st39"
   d="M467.5,165.2c0.1,0,0.2-0.1,0.2-0.1c0.3-0.2,0.4-0.4,0.4-0.7c0-0.1-0.1-0.2-0.1-0.3v-0.1       c0,0.1,0.1,0.2,0.1,0.3"
   id="path251" />
					<path
   class="st39"
   d="M467.5,165.2c0.3,0.1,0.7,0,0.9-0.3c0.3-0.6-0.1-1.4-0.8-1.4c-0.3,0-0.7,0.2-0.8,0.5       c-0.2,0.3-0.2,0.7,0,1C466.9,165.2,467.3,165.3,467.5,165.2z"
   id="path252" />
					<path
   class="st39"
   d="M468.1,164.4c-0.1-0.1-0.2,0-0.5,0.2c-0.5,0.3-0.6,0.2-0.5-0.4c-0.2,0.4-0.1,0.8,0.3,1       c0.1,0,0.1,0.1,0.2,0.1"
   id="path253" />
					<path
   class="st39"
   d="M468.1,164.5C468.1,164.5,468.1,164.4,468.1,164.5c0-0.1,0-0.1,0-0.1"
   id="path254" />
					<path
   class="st39"
   d="M468.1,164.4L468.1,164.4"
   id="path255" />
					<path
   class="st39"
   d="M468.1,164.4L468.1,164.4"
   id="path256" />
					<path
   class="st39"
   d="M471.4,163.9C471.4,163.9,471.4,163.9,471.4,163.9c0,0.1,0,0.1,0.1,0.1"
   id="path257" />
					<path
   class="st39"
   d="M471.4,163.8L471.4,163.8"
   id="path258" />
					<path
   class="st39"
   d="M471.4,163.8L471.4,163.8L471.4,163.8"
   id="path259" />
					<path
   class="st39"
   d="M471.4,163.9C471.4,163.9,471.4,163.9,471.4,163.9"
   id="path260" />
					<path
   class="st39"
   d="M471.4,164C471.4,164,471.4,163.9,471.4,164"
   id="path261" />
					<path
   class="st39"
   d="M472.2,163.9c0,0.1,0,0.1-0.1,0.2l0,0c-0.2,0.4-0.6,0.3-0.7-0.1"
   id="path262" />
					<path
   class="st39"
   d="M472.2,163.9L472.2,163.9L472.2,163.9L472.2,163.9L472.2,163.9z"
   id="path263" />
					<path
   class="st39"
   d="M472.2,163.9L472.2,163.9"
   id="path264" />
					<path
   class="st39"
   d="M471.5,163.8L471.5,163.8L471.5,163.8c0.2,0.1,0.4,0.2,0.6,0.3c0.1,0,0.1,0.1,0.2,0.1       c-0.1-0.1-0.1-0.1-0.1-0.2c0-0.1-0.1-0.1-0.1-0.1"
   id="path265" />
					<path
   class="st39"
   d="M471.5,163.8L471.5,163.8L471.5,163.8"
   id="path266" />
					<path
   class="st39"
   d="M471.4,163.9L471.4,163.9"
   id="path267" />
					<path
   class="st39"
   d="M471.4,163.9C471.4,163.9,471.4,163.9,471.4,163.9"
   id="path268" />
					<path
   class="st39"
   d="M471.4,163.9L471.4,163.9"
   id="path269" />
					<path
   class="st39"
   d="M471.4,163.9C471.4,163.9,471.4,163.9,471.4,163.9C471.4,163.9,471.4,163.9,471.4,163.9L471.4,163.9       c0.1-0.1,0.1-0.1,0.1-0.1"
   id="path270" />
					<line
   class="st39"
   x1="471.4"
   y1="163.9"
   x2="471.4"
   y2="163.9"
   id="line270" />
					<path
   class="st39"
   d="M471.4,163.9L471.4,163.9"
   id="path271" />
					<path
   class="st39"
   d="M471.4,163.9L471.4,163.9"
   id="path272" />
					<path
   class="st39"
   d="M471.4,163.9L471.4,163.9"
   id="path273" />
					<path
   class="st39"
   d="M471.4,163.9L471.4,163.9"
   id="path274" />
					<polyline
   class="st39"
   points="471.4,163.9 471.4,163.9 471.4,163.9      "
   id="polyline274" />
					<path
   class="st39"
   d="M471.4,163.9C471.4,163.9,471.4,163.9,471.4,163.9"
   id="path275" />
					<line
   class="st39"
   x1="471.4"
   y1="163.9"
   x2="471.4"
   y2="163.9"
   id="line275" />
					<path
   class="st39"
   d="M471.4,164L471.4,164L471.4,164c0-0.1,0-0.1,0-0.1"
   id="path276" />
					<line
   class="st39"
   x1="471.4"
   y1="164"
   x2="471.4"
   y2="164"
   id="line276" />
					<path
   class="st39"
   d="M472.8,163.5c-0.2-0.4-0.5-0.6-0.9-0.5c-0.3,0.1-0.5,0.4-0.5,0.7c0,0,0,0,0,0.1s0,0.1,0,0.2       c0,0.1,0,0.1,0,0.1"
   id="path277" />
					<path
   class="st39"
   d="M472.8,163.5c-0.1-0.3-0.3-0.5-0.5-0.6c-0.3-0.1-0.7-0.1-0.9,0.1c-0.7,0.4-0.6,1.3-0.3,1.9       c0.2,0.3,0.5,0.4,0.8,0.4C472.6,165.1,473,164.3,472.8,163.5C472.8,163.6,472.8,163.5,472.8,163.5z"
   id="path278" />
					<path
   class="st39"
   d="M471.4,164c0.1,0.3,0.4,0.5,0.7,0.5c0.4,0,0.8-0.3,0.7-0.7c0-0.1,0-0.2-0.1-0.3"
   id="path279" />
					<path
   class="st39"
   d="M469.1,169.8c0,1.4,1.1,2.8,2.5,3c0.5,0.1,0.9-0.2,0.9-0.7c0-1.2,0-2.3,0-3.5c0-0.4-0.4-0.8-0.7-0.7       c-0.9,0.1-1.7,0.3-2.6,0.5C468.6,168.7,468.7,169.6,469.1,169.8z"
   id="path280" />
					<path
   class="st39"
   d="M471.1,171c-0.4-0.3-0.6-0.8-0.6-1.3c0-0.1,0-0.1,0-0.2c-0.1-0.8-1.4-0.8-1.4,0.2c0,0.1,0,0.1,0,0.1"
   id="path281" />
					<path
   class="st39"
   d="M471.1,171c0,0.4,0,0.8,0,1.1c0.3-0.3,0.6-0.5,0.9-0.7C471.7,171.4,471.4,171.2,471.1,171z"
   id="path282" />
					<path
   class="st39"
   d="M471.1,169.5c0,0.5,0,1,0,1.5"
   id="path283" />
					<path
   class="st39"
   d="M471.1,169.5c0.3-0.1,0.5-0.1,0.7-0.1c-0.3-0.3-0.5-0.5-0.7-0.7C471.1,168.9,471.1,169.2,471.1,169.5z"
   id="path284" />
					<path
   class="st39"
   d="M469.1,169.8c0.2,0.1,0.3,0.1,0.5,0c0.3-0.1,0.6-0.2,0.9-0.3c0.2-0.1,0.4-0.1,0.6-0.1"
   id="path285" />
				</g>
			</g>
		</g>
	</g>
	<g
   id="g289">
		<g
   id="g288">
			<path
   d="M117.8,191.7c23.5,14.8,47.4,28.9,71.8,42.1c0.7,0.4,1.6-0.4,1.1-1.1c-3.4-5.2-7.3-9.8-11.9-14c-0.6-0.6-1.8,0.2-1.3,1     c5.4,7.5,12,13.8,19.7,18.9c0.2-0.5,0.4-1,0.6-1.5c-7.9-3-16-5-24.4-6.1c-1-0.1-1,1.5,0,1.6c8.2,1.1,16.2,3.1,24,6     c0.9,0.3,1.3-1,0.6-1.5c-7.5-5-13.9-11.1-19.2-18.4c-0.4,0.3-0.8,0.7-1.3,1c4.4,4.1,8.3,8.6,11.6,13.7c0.4-0.4,0.7-0.7,1.1-1.1     c-24.4-13.2-48.4-27.2-71.8-42.1C117.8,189.8,117,191.2,117.8,191.7L117.8,191.7z"
   id="path287" />
		</g>
	</g>
	<g
   id="g291">
		<g
   id="g290">
			<path
   d="M452.4,190.3c-23.5,14.8-47.4,28.9-71.8,42.1c0.4,0.4,0.7,0.7,1.1,1.1c3.3-5.1,7.2-9.6,11.6-13.7c-0.4-0.3-0.8-0.7-1.3-1     c-5.3,7.3-11.6,13.4-19.2,18.4c-0.7,0.5-0.3,1.8,0.6,1.5c7.8-2.9,15.7-4.9,24-6c1-0.1,1-1.8,0-1.6c-8.4,1.1-16.5,3.1-24.4,6.1     c0.2,0.5,0.4,1,0.6,1.5c7.7-5.1,14.3-11.4,19.7-18.9c0.6-0.8-0.6-1.6-1.3-1c-4.6,4.2-8.5,8.9-11.9,14c-0.5,0.7,0.4,1.5,1.1,1.1     c24.4-13.2,48.4-27.2,71.8-42.1C454.1,191.2,453.3,189.8,452.4,190.3L452.4,190.3z"
   id="path289" />
		</g>
	</g>
</g>
</svg>
