<?xml version="1.0" encoding="UTF-8" standalone="no"?>
<!-- Generator: Adobe Illustrator 23.0.3, SVG Export Plug-In . SVG Version: 6.00 Build 0)  -->

<svg
   version="1.1"
   id="Layer_1"
   x="0px"
   y="0px"
   viewBox="0 0 518 268.3"
   style="enable-background:new 0 0 518 268.3;"
   xml:space="preserve"
   sodipodi:docname="same_sfs_2.svg"
   inkscape:version="1.3.2 (1:1.3.2+202311252150+091e20ef0f)"
   xmlns:inkscape="http://www.inkscape.org/namespaces/inkscape"
   xmlns:sodipodi="http://sodipodi.sourceforge.net/DTD/sodipodi-0.dtd"
   xmlns:xlink="http://www.w3.org/1999/xlink"
   xmlns="http://www.w3.org/2000/svg"
   xmlns:svg="http://www.w3.org/2000/svg"><defs
   id="defs292" /><sodipodi:namedview
   id="namedview292"
   pagecolor="#ffffff"
   bordercolor="#000000"
   borderopacity="0.25"
   inkscape:showpageshadow="2"
   inkscape:pageopacity="0.0"
   inkscape:pagecheckerboard="0"
   inkscape:deskcolor="#d1d1d1"
   inkscape:zoom="0.9141127"
   inkscape:cx="256.53292"
   inkscape:cy="116.50642"
   inkscape:window-width="1223"
   inkscape:window-height="774"
   inkscape:window-x="57"
   inkscape:window-y="26"
   inkscape:window-maximized="1"
   inkscape:current-layer="g292" />
<style
   type="text/css"
   id="style1">
	.st0{enable-background:new    ;}
	.st1{clip-path:url(#SVGID_2_);}
	.st2{fill:none;stroke:#000000;stroke-width:0.8;stroke-linejoin:round;stroke-miterlimit:10;}
	.st3{font-family:'DejaVuSans';}
	.st4{font-size:10px;}
	.st5{fill:none;stroke:#000000;stroke-width:0.8;stroke-linecap:square;stroke-miterlimit:10;}
	.st6{clip-path:url(#SVGID_8_);}
	.st7{clip-path:url(#SVGID_10_);fill:none;stroke:#1F77B4;stroke-miterlimit:10;}
	.st8{clip-path:url(#SVGID_8_);enable-background:new    ;}
	.st9{opacity:0.5;clip-path:url(#SVGID_12_);fill:#1F77B4;}
	.st10{clip-path:url(#SVGID_14_);}
	.st11{clip-path:url(#SVGID_20_);}
	.st12{clip-path:url(#SVGID_22_);fill:none;stroke:#1F77B4;stroke-miterlimit:10;}
	.st13{clip-path:url(#SVGID_20_);enable-background:new    ;}
	.st14{opacity:0.5;clip-path:url(#SVGID_24_);fill:#1F77B4;}
	.st15{fill:#FFFFFF;}
	.st16{clip-path:url(#SVGID_26_);fill:#FF0000;}
	.st17{clip-path:url(#SVGID_28_);fill:#FF0018;}
	.st18{clip-path:url(#SVGID_30_);fill:#FF0018;}
	.st19{clip-path:url(#SVGID_32_);fill:#FF0082;}
	.st20{clip-path:url(#SVGID_34_);fill:#FF00E1;}
	.st21{clip-path:url(#SVGID_36_);fill:#F400FF;}
	.st22{clip-path:url(#SVGID_38_);fill:#DC00FF;}
	.st23{clip-path:url(#SVGID_40_);fill:#D000FF;}
	.st24{clip-path:url(#SVGID_42_);fill:#C500FF;}
	.st25{clip-path:url(#SVGID_44_);fill:#BF00FF;}
	.st26{clip-path:url(#SVGID_46_);fill:#00FF5C;}
	.st27{clip-path:url(#SVGID_48_);fill:#FF0000;}
	.st28{clip-path:url(#SVGID_50_);fill:#FF0000;}
	.st29{clip-path:url(#SVGID_52_);fill:#FF0000;}
	.st30{clip-path:url(#SVGID_54_);fill:#FF0000;}
	.st31{clip-path:url(#SVGID_56_);fill:#FF0000;}
	.st32{clip-path:url(#SVGID_58_);fill:#FF0000;}
	.st33{clip-path:url(#SVGID_60_);fill:#FF0000;}
	.st34{clip-path:url(#SVGID_62_);fill:#FF0000;}
	.st35{clip-path:url(#SVGID_64_);fill:#FF0000;}
	.st36{clip-path:url(#SVGID_66_);fill:#FF0000;}
	.st37{fill:none;stroke:#000000;stroke-width:0.2588;stroke-linejoin:round;stroke-miterlimit:10;}
	.st38{fill:none;stroke:#000000;stroke-width:0.2588;stroke-linecap:square;stroke-miterlimit:10;}
	.st39{fill:none;stroke:#000000;stroke-width:0.6874;stroke-miterlimit:10;}
</style>
<g
   class="st0"
   id="g292">
	<g
   id="g4">
		<defs
   id="defs1">
			<rect
   id="SVGID_1_"
   x="49.8"
   y="10.8"
   width="89.4"
   height="138" />
		</defs>
		<clipPath
   id="SVGID_2_">
			<use
   xlink:href="#SVGID_1_"
   style="overflow:visible;"
   id="use1" />
		</clipPath>
		<g
   class="st1"
   clip-path="url(#SVGID_2_)"
   id="g2">
			<defs
   id="defs2">
				<rect
   id="SVGID_3_"
   x="-7.1"
   width="158"
   height="173" />
			</defs>
			<clipPath
   id="SVGID_4_">
				<use
   xlink:href="#SVGID_3_"
   style="overflow:visible;"
   id="use2" />
			</clipPath>
		</g>
		<g
   class="st1"
   clip-path="url(#SVGID_2_)"
   id="g3">
			<defs
   id="defs3">
				<rect
   id="SVGID_5_"
   x="-7.1"
   width="158"
   height="173" />
			</defs>
			<clipPath
   id="SVGID_6_">
				<use
   xlink:href="#SVGID_5_"
   style="overflow:visible;"
   id="use3" />
			</clipPath>
		</g>
	</g>
	
	
	
	
	
	
	
	
	
	
	
	
	
	
	<rect
   x="210.2"
   y="156.7"
   class="st15"
   width="149.1"
   height="111.8"
   id="rect26" />
	<rect
   x="249.3"
   y="163.7"
   class="st15"
   width="101.6"
   height="79.8"
   id="rect27" />
	<g
   id="g27">
		<defs
   id="defs27">
			<rect
   id="SVGID_25_"
   x="249.3"
   y="163.7"
   width="101.6"
   height="79.8" />
		</defs>
		<clipPath
   id="SVGID_26_">
			<use
   xlink:href="#SVGID_25_"
   style="overflow:visible;"
   id="use27" />
		</clipPath>
		<path
   class="st16"
   d="M249.3,243.5h4.8H249.3z"
   clip-path="url(#SVGID_26_)"
   id="path27" />
	</g>
	<g
   id="g28">
		<defs
   id="defs28">
			<rect
   id="SVGID_27_"
   x="249.3"
   y="163.7"
   width="101.6"
   height="79.8" />
		</defs>
		<clipPath
   id="SVGID_28_">
			<use
   xlink:href="#SVGID_27_"
   style="overflow:visible;"
   id="use28" />
		</clipPath>
		<rect
   x="254.1"
   y="167.5"
   class="st17"
   width="4.8"
   height="76"
   clip-path="url(#SVGID_28_)"
   id="rect28" />
	</g>
	<g
   id="g29">
		<defs
   id="defs29">
			<rect
   id="SVGID_29_"
   x="249.3"
   y="163.7"
   width="101.6"
   height="79.8" />
		</defs>
		<clipPath
   id="SVGID_30_">
			<use
   xlink:href="#SVGID_29_"
   style="overflow:visible;"
   id="use29" />
		</clipPath>
		<rect
   x="258.9"
   y="209.5"
   class="st18"
   width="4.8"
   height="34"
   clip-path="url(#SVGID_30_)"
   id="rect29" />
	</g>
	<g
   id="g30">
		<defs
   id="defs30">
			<rect
   id="SVGID_31_"
   x="249.3"
   y="163.7"
   width="101.6"
   height="79.8" />
		</defs>
		<clipPath
   id="SVGID_32_">
			<use
   xlink:href="#SVGID_31_"
   style="overflow:visible;"
   id="use30" />
		</clipPath>
		<rect
   x="263.8"
   y="216.5"
   class="st19"
   width="4.8"
   height="27"
   clip-path="url(#SVGID_32_)"
   id="rect30" />
	</g>
	<g
   id="g31">
		<defs
   id="defs31">
			<rect
   id="SVGID_33_"
   x="249.3"
   y="163.7"
   width="101.6"
   height="79.8" />
		</defs>
		<clipPath
   id="SVGID_34_">
			<use
   xlink:href="#SVGID_33_"
   style="overflow:visible;"
   id="use31" />
		</clipPath>
		<rect
   x="268.6"
   y="218.4"
   class="st20"
   width="4.8"
   height="25.1"
   clip-path="url(#SVGID_34_)"
   id="rect31" />
	</g>
	<g
   id="g32">
		<defs
   id="defs32">
			<rect
   id="SVGID_35_"
   x="249.3"
   y="163.7"
   width="101.6"
   height="79.8" />
		</defs>
		<clipPath
   id="SVGID_36_">
			<use
   xlink:href="#SVGID_35_"
   style="overflow:visible;"
   id="use32" />
		</clipPath>
		<rect
   x="273.5"
   y="219.1"
   class="st21"
   width="4.8"
   height="24.4"
   clip-path="url(#SVGID_36_)"
   id="rect32" />
	</g>
	<g
   id="g33">
		<defs
   id="defs33">
			<rect
   id="SVGID_37_"
   x="249.3"
   y="163.7"
   width="101.6"
   height="79.8" />
		</defs>
		<clipPath
   id="SVGID_38_">
			<use
   xlink:href="#SVGID_37_"
   style="overflow:visible;"
   id="use33" />
		</clipPath>
		<rect
   x="278.3"
   y="219.6"
   class="st22"
   width="4.8"
   height="23.9"
   clip-path="url(#SVGID_38_)"
   id="rect33" />
	</g>
	<g
   id="g34">
		<defs
   id="defs34">
			<rect
   id="SVGID_39_"
   x="249.3"
   y="163.7"
   width="101.6"
   height="79.8" />
		</defs>
		<clipPath
   id="SVGID_40_">
			<use
   xlink:href="#SVGID_39_"
   style="overflow:visible;"
   id="use34" />
		</clipPath>
		<rect
   x="283.1"
   y="219.9"
   class="st23"
   width="4.8"
   height="23.6"
   clip-path="url(#SVGID_40_)"
   id="rect34" />
	</g>
	<g
   id="g35">
		<defs
   id="defs35">
			<rect
   id="SVGID_41_"
   x="249.3"
   y="163.7"
   width="101.6"
   height="79.8" />
		</defs>
		<clipPath
   id="SVGID_42_">
			<use
   xlink:href="#SVGID_41_"
   style="overflow:visible;"
   id="use35" />
		</clipPath>
		<rect
   x="288"
   y="220"
   class="st24"
   width="4.8"
   height="23.5"
   clip-path="url(#SVGID_42_)"
   id="rect35" />
	</g>
	<g
   id="g36">
		<defs
   id="defs36">
			<rect
   id="SVGID_43_"
   x="249.3"
   y="163.7"
   width="101.6"
   height="79.8" />
		</defs>
		<clipPath
   id="SVGID_44_">
			<use
   xlink:href="#SVGID_43_"
   style="overflow:visible;"
   id="use36" />
		</clipPath>
		<rect
   x="292.8"
   y="220.2"
   class="st25"
   width="4.8"
   height="23.3"
   clip-path="url(#SVGID_44_)"
   id="rect36" />
	</g>
	<g
   id="g37">
		<defs
   id="defs37">
			<rect
   id="SVGID_45_"
   x="249.3"
   y="163.7"
   width="101.6"
   height="79.8" />
		</defs>
		<clipPath
   id="SVGID_46_">
			<use
   xlink:href="#SVGID_45_"
   style="overflow:visible;"
   id="use37" />
		</clipPath>
		<rect
   x="297.6"
   y="231.9"
   class="st26"
   width="4.8"
   height="11.7"
   clip-path="url(#SVGID_46_)"
   id="rect37" />
	</g>
	<g
   id="g38">
		<defs
   id="defs38">
			<rect
   id="SVGID_47_"
   x="249.3"
   y="163.7"
   width="101.6"
   height="79.8" />
		</defs>
		<clipPath
   id="SVGID_48_">
			<use
   xlink:href="#SVGID_47_"
   style="overflow:visible;"
   id="use38" />
		</clipPath>
		<path
   class="st27"
   d="M302.5,243.5h4.8H302.5z"
   clip-path="url(#SVGID_48_)"
   id="path38" />
	</g>
	<g
   id="g39">
		<defs
   id="defs39">
			<rect
   id="SVGID_49_"
   x="249.3"
   y="163.7"
   width="101.6"
   height="79.8" />
		</defs>
		<clipPath
   id="SVGID_50_">
			<use
   xlink:href="#SVGID_49_"
   style="overflow:visible;"
   id="use39" />
		</clipPath>
		<path
   class="st28"
   d="M307.3,243.5h4.8H307.3z"
   clip-path="url(#SVGID_50_)"
   id="path39" />
	</g>
	<g
   id="g40">
		<defs
   id="defs40">
			<rect
   id="SVGID_51_"
   x="249.3"
   y="163.7"
   width="101.6"
   height="79.8" />
		</defs>
		<clipPath
   id="SVGID_52_">
			<use
   xlink:href="#SVGID_51_"
   style="overflow:visible;"
   id="use40" />
		</clipPath>
		<path
   class="st29"
   d="M312.2,243.5h4.8H312.2z"
   clip-path="url(#SVGID_52_)"
   id="path40" />
	</g>
	<g
   id="g41">
		<defs
   id="defs41">
			<rect
   id="SVGID_53_"
   x="249.3"
   y="163.7"
   width="101.6"
   height="79.8" />
		</defs>
		<clipPath
   id="SVGID_54_">
			<use
   xlink:href="#SVGID_53_"
   style="overflow:visible;"
   id="use41" />
		</clipPath>
		<path
   class="st30"
   d="M317,243.5h4.8H317z"
   clip-path="url(#SVGID_54_)"
   id="path41" />
	</g>
	<g
   id="g42">
		<defs
   id="defs42">
			<rect
   id="SVGID_55_"
   x="249.3"
   y="163.7"
   width="101.6"
   height="79.8" />
		</defs>
		<clipPath
   id="SVGID_56_">
			<use
   xlink:href="#SVGID_55_"
   style="overflow:visible;"
   id="use42" />
		</clipPath>
		<path
   class="st31"
   d="M321.8,243.5h4.8H321.8z"
   clip-path="url(#SVGID_56_)"
   id="path42" />
	</g>
	<g
   id="g43">
		<defs
   id="defs43">
			<rect
   id="SVGID_57_"
   x="249.3"
   y="163.7"
   width="101.6"
   height="79.8" />
		</defs>
		<clipPath
   id="SVGID_58_">
			<use
   xlink:href="#SVGID_57_"
   style="overflow:visible;"
   id="use43" />
		</clipPath>
		<path
   class="st32"
   d="M326.7,243.5h4.8H326.7z"
   clip-path="url(#SVGID_58_)"
   id="path43" />
	</g>
	<g
   id="g44">
		<defs
   id="defs44">
			<rect
   id="SVGID_59_"
   x="249.3"
   y="163.7"
   width="101.6"
   height="79.8" />
		</defs>
		<clipPath
   id="SVGID_60_">
			<use
   xlink:href="#SVGID_59_"
   style="overflow:visible;"
   id="use44" />
		</clipPath>
		<path
   class="st33"
   d="M331.5,243.5h4.8H331.5z"
   clip-path="url(#SVGID_60_)"
   id="path44" />
	</g>
	<g
   id="g45">
		<defs
   id="defs45">
			<rect
   id="SVGID_61_"
   x="249.3"
   y="163.7"
   width="101.6"
   height="79.8" />
		</defs>
		<clipPath
   id="SVGID_62_">
			<use
   xlink:href="#SVGID_61_"
   style="overflow:visible;"
   id="use45" />
		</clipPath>
		<path
   class="st34"
   d="M336.4,243.5h4.8H336.4z"
   clip-path="url(#SVGID_62_)"
   id="path45" />
	</g>
	<g
   id="g46">
		<defs
   id="defs46">
			<rect
   id="SVGID_63_"
   x="249.3"
   y="163.7"
   width="101.6"
   height="79.8" />
		</defs>
		<clipPath
   id="SVGID_64_">
			<use
   xlink:href="#SVGID_63_"
   style="overflow:visible;"
   id="use46" />
		</clipPath>
		<path
   class="st35"
   d="M341.2,243.5h4.8H341.2z"
   clip-path="url(#SVGID_64_)"
   id="path46" />
	</g>
	<g
   id="g47">
		<defs
   id="defs47">
			<rect
   id="SVGID_65_"
   x="249.3"
   y="163.7"
   width="101.6"
   height="79.8" />
		</defs>
		<clipPath
   id="SVGID_66_">
			<use
   xlink:href="#SVGID_65_"
   style="overflow:visible;"
   id="use47" />
		</clipPath>
		<path
   class="st36"
   d="M346,243.5h4.8H346z"
   clip-path="url(#SVGID_66_)"
   id="path47" />
	</g>
	<line
   x1="251.7"
   y1="243.5"
   x2="251.7"
   y2="244.6"
   id="line47" />
	<line
   class="st37"
   x1="251.7"
   y1="243.5"
   x2="251.7"
   y2="244.6"
   id="line48" />
	<path
   d="M251.7,245.9c0.5,0,0.9,0.2,1.2,0.6c0.3,0.4,0.4,1,0.4,1.8c0,0.8-0.1,1.4-0.4,1.8c-0.3,0.4-0.7,0.6-1.2,0.6   s-0.9-0.2-1.2-0.6c-0.3-0.4-0.4-1-0.4-1.8c0-0.8,0.1-1.4,0.4-1.8C250.7,246.1,251.2,245.9,251.7,245.9z M251.7,246.4   c-0.3,0-0.6,0.2-0.7,0.5c-0.2,0.3-0.2,0.8-0.2,1.5s0.1,1.1,0.2,1.5c0.2,0.3,0.4,0.5,0.7,0.5s0.6-0.2,0.7-0.5   c0.2-0.3,0.2-0.8,0.2-1.5s-0.1-1.1-0.2-1.5C252.3,246.6,252,246.4,251.7,246.4z"
   id="path48" />
	<line
   x1="275.9"
   y1="243.5"
   x2="275.9"
   y2="244.6"
   id="line49" />
	<line
   class="st37"
   x1="275.9"
   y1="243.5"
   x2="275.9"
   y2="244.6"
   id="line50" />
	<path
   d="M274.5,246h2.5v0.5h-1.9v1.2c0.1,0,0.2-0.1,0.3-0.1s0.2,0,0.3,0c0.5,0,0.9,0.1,1.2,0.4c0.3,0.3,0.5,0.7,0.5,1.2   c0,0.5-0.2,0.9-0.5,1.2c-0.3,0.3-0.8,0.4-1.3,0.4c-0.2,0-0.4,0-0.6,0c-0.2,0-0.4-0.1-0.6-0.1v-0.6c0.2,0.1,0.4,0.2,0.6,0.2   c0.2,0.1,0.4,0.1,0.6,0.1c0.4,0,0.7-0.1,0.9-0.3c0.2-0.2,0.3-0.5,0.3-0.8c0-0.3-0.1-0.6-0.3-0.8c-0.2-0.2-0.5-0.3-0.9-0.3   c-0.2,0-0.3,0-0.5,0.1c-0.2,0-0.3,0.1-0.5,0.2V246z"
   id="path50" />
	<line
   x1="300.1"
   y1="243.5"
   x2="300.1"
   y2="244.6"
   id="line51" />
	<line
   class="st37"
   x1="300.1"
   y1="243.5"
   x2="300.1"
   y2="244.6"
   id="line52" />
	<polygon
   points="296.8,250.1 297.8,250.1 297.8,246.6 296.7,246.8 296.7,246.2 297.8,246 298.4,246 298.4,250.1 299.5,250.1    299.5,250.7 296.8,250.7  "
   id="polygon52" />
	<path
   d="M302.1,245.9c0.5,0,0.9,0.2,1.2,0.6c0.3,0.4,0.4,1,0.4,1.8c0,0.8-0.1,1.4-0.4,1.8c-0.3,0.4-0.7,0.6-1.2,0.6   s-0.9-0.2-1.2-0.6c-0.3-0.4-0.4-1-0.4-1.8c0-0.8,0.1-1.4,0.4-1.8C301.2,246.1,301.6,245.9,302.1,245.9z M302.1,246.4   c-0.3,0-0.6,0.2-0.7,0.5c-0.2,0.3-0.2,0.8-0.2,1.5s0.1,1.1,0.2,1.5c0.2,0.3,0.4,0.5,0.7,0.5c0.3,0,0.6-0.2,0.7-0.5   c0.2-0.3,0.2-0.8,0.2-1.5s-0.1-1.1-0.2-1.5C302.7,246.6,302.5,246.4,302.1,246.4z"
   id="path52" />
	<line
   x1="324.3"
   y1="243.5"
   x2="324.3"
   y2="244.6"
   id="line53" />
	<line
   class="st37"
   x1="324.3"
   y1="243.5"
   x2="324.3"
   y2="244.6"
   id="line54" />
	<polygon
   points="320.9,250.1 322,250.1 322,246.6 320.9,246.8 320.9,246.2 322,246 322.6,246 322.6,250.1 323.7,250.1 323.7,250.7    320.9,250.7  "
   id="polygon54" />
	<path
   d="M325,246h2.5v0.5h-1.9v1.2c0.1,0,0.2-0.1,0.3-0.1s0.2,0,0.3,0c0.5,0,0.9,0.1,1.2,0.4c0.3,0.3,0.5,0.7,0.5,1.2   c0,0.5-0.2,0.9-0.5,1.2c-0.3,0.3-0.8,0.4-1.3,0.4c-0.2,0-0.4,0-0.6,0c-0.2,0-0.4-0.1-0.6-0.1v-0.6c0.2,0.1,0.4,0.2,0.6,0.2   c0.2,0.1,0.4,0.1,0.6,0.1c0.4,0,0.7-0.1,0.9-0.3c0.2-0.2,0.3-0.5,0.3-0.8c0-0.3-0.1-0.6-0.3-0.8c-0.2-0.2-0.5-0.3-0.9-0.3   c-0.2,0-0.3,0-0.5,0.1c-0.2,0-0.3,0.1-0.5,0.2V246z"
   id="path54" />
	<line
   x1="348.4"
   y1="243.5"
   x2="348.4"
   y2="244.6"
   id="line55" />
	<line
   class="st37"
   x1="348.4"
   y1="243.5"
   x2="348.4"
   y2="244.6"
   id="line56" />
	<path
   d="M345.6,250.1h2.2v0.5h-3v-0.5c0.2-0.2,0.6-0.6,1-1c0.4-0.4,0.7-0.7,0.8-0.8c0.2-0.2,0.3-0.4,0.4-0.6   c0.1-0.2,0.1-0.3,0.1-0.5c0-0.2-0.1-0.5-0.3-0.6c-0.2-0.2-0.4-0.2-0.7-0.2c-0.2,0-0.4,0-0.6,0.1c-0.2,0.1-0.5,0.2-0.7,0.3v-0.6   c0.3-0.1,0.5-0.2,0.7-0.2s0.4-0.1,0.6-0.1c0.5,0,0.9,0.1,1.2,0.4c0.3,0.2,0.4,0.6,0.4,1c0,0.2,0,0.4-0.1,0.5   c-0.1,0.2-0.2,0.4-0.4,0.6c-0.1,0.1-0.2,0.2-0.5,0.5C346.5,249.2,346.1,249.6,345.6,250.1z"
   id="path56" />
	<path
   d="M350.5,245.9c0.5,0,0.9,0.2,1.2,0.6c0.3,0.4,0.4,1,0.4,1.8c0,0.8-0.1,1.4-0.4,1.8c-0.3,0.4-0.7,0.6-1.2,0.6   c-0.5,0-0.9-0.2-1.2-0.6s-0.4-1-0.4-1.8c0-0.8,0.1-1.4,0.4-1.8C349.6,246.1,350,245.9,350.5,245.9z M350.5,246.4   c-0.3,0-0.6,0.2-0.7,0.5c-0.2,0.3-0.2,0.8-0.2,1.5s0.1,1.1,0.2,1.5c0.2,0.3,0.4,0.5,0.7,0.5c0.3,0,0.6-0.2,0.7-0.5   c0.2-0.3,0.2-0.8,0.2-1.5s-0.1-1.1-0.2-1.5C351.1,246.6,350.8,246.4,350.5,246.4z"
   id="path57" />
	<path
   d="M269.7,253.6h0.9l2.2,5.9H272l-0.5-1.5h-2.7l-0.5,1.5h-0.8L269.7,253.6z M270.1,254.4l-1.1,2.9h2.2L270.1,254.4z"
   id="path58" />
	<rect
   x="273.7"
   y="253.3"
   width="0.7"
   height="6.1"
   id="rect58" />
	<rect
   x="275.9"
   y="253.3"
   width="0.7"
   height="6.1"
   id="rect59" />
	<path
   d="M281.2,256.9c0-0.4-0.1-0.7-0.3-1c-0.2-0.2-0.5-0.4-0.9-0.4c-0.4,0-0.7,0.1-1,0.3c-0.2,0.2-0.4,0.5-0.4,1H281.2z    M281.9,257.1v0.4h-3.3c0,0.5,0.2,0.9,0.5,1.1c0.3,0.3,0.6,0.4,1.1,0.4c0.3,0,0.5,0,0.8-0.1s0.5-0.2,0.8-0.3v0.7   c-0.3,0.1-0.5,0.2-0.8,0.3c-0.3,0-0.6,0.1-0.8,0.1c-0.7,0-1.3-0.2-1.7-0.6s-0.6-1-0.6-1.7c0-0.7,0.2-1.3,0.6-1.7   c0.4-0.4,0.9-0.6,1.6-0.6c0.6,0,1.1,0.2,1.4,0.6C281.8,255.9,281.9,256.4,281.9,257.1z"
   id="path59" />
	<rect
   x="283.1"
   y="253.3"
   width="0.7"
   height="6.1"
   id="rect60" />
	<path
   d="M288.4,256.9c0-0.4-0.1-0.7-0.3-1c-0.2-0.2-0.5-0.4-0.9-0.4c-0.4,0-0.7,0.1-1,0.3c-0.2,0.2-0.4,0.5-0.4,1H288.4z    M289.2,257.1v0.4h-3.3c0,0.5,0.2,0.9,0.5,1.1c0.3,0.3,0.6,0.4,1.1,0.4c0.3,0,0.5,0,0.8-0.1s0.5-0.2,0.8-0.3v0.7   c-0.3,0.1-0.5,0.2-0.8,0.3s-0.6,0.1-0.8,0.1c-0.7,0-1.3-0.2-1.7-0.6c-0.4-0.4-0.6-1-0.6-1.7c0-0.7,0.2-1.3,0.6-1.7   c0.4-0.4,0.9-0.6,1.6-0.6c0.6,0,1.1,0.2,1.4,0.6C289,255.9,289.2,256.4,289.2,257.1z"
   id="path60" />
	<path
   d="M295.2,253.3v0.6h-0.7c-0.3,0-0.4,0.1-0.5,0.2c-0.1,0.1-0.2,0.3-0.2,0.6v0.4h1.2v0.6h-1.2v3.9h-0.7v-3.9h-0.7V255h0.7v-0.3   c0-0.5,0.1-0.8,0.3-1.1c0.2-0.2,0.6-0.3,1.1-0.3H295.2z"
   id="path61" />
	<path
   d="M298.3,255.7c-0.1,0-0.2-0.1-0.3-0.1c-0.1,0-0.2,0-0.3,0c-0.4,0-0.7,0.1-0.9,0.4c-0.2,0.3-0.3,0.6-0.3,1.1v2.3h-0.7V255   h0.7v0.7c0.1-0.3,0.3-0.5,0.6-0.6c0.2-0.1,0.5-0.2,0.9-0.2c0,0,0.1,0,0.2,0c0.1,0,0.1,0,0.2,0V255.7z"
   id="path62" />
	<path
   d="M302,256.9c0-0.4-0.1-0.7-0.3-1c-0.2-0.2-0.5-0.4-0.9-0.4c-0.4,0-0.7,0.1-1,0.3c-0.2,0.2-0.4,0.5-0.4,1H302z M302.7,257.1   v0.4h-3.3c0,0.5,0.2,0.9,0.5,1.1c0.3,0.3,0.6,0.4,1.1,0.4c0.3,0,0.5,0,0.8-0.1s0.5-0.2,0.8-0.3v0.7c-0.3,0.1-0.5,0.2-0.8,0.3   s-0.6,0.1-0.8,0.1c-0.7,0-1.3-0.2-1.7-0.6c-0.4-0.4-0.6-1-0.6-1.7c0-0.7,0.2-1.3,0.6-1.7c0.4-0.4,0.9-0.6,1.6-0.6   c0.6,0,1.1,0.2,1.4,0.6C302.5,255.9,302.7,256.4,302.7,257.1z"
   id="path63" />
	<path
   d="M306.8,258.8c-0.2,0.3-0.3,0.5-0.6,0.6c-0.2,0.1-0.5,0.2-0.8,0.2c-0.5,0-1-0.2-1.3-0.6c-0.3-0.4-0.5-1-0.5-1.7   s0.2-1.3,0.5-1.7c0.3-0.4,0.8-0.6,1.3-0.6c0.3,0,0.6,0.1,0.8,0.2c0.2,0.1,0.4,0.3,0.6,0.6V255h0.7v6.1h-0.7V258.8z M304.3,257.3   c0,0.5,0.1,1,0.3,1.3c0.2,0.3,0.5,0.5,0.9,0.5c0.4,0,0.7-0.1,0.9-0.5c0.2-0.3,0.3-0.7,0.3-1.3c0-0.5-0.1-0.9-0.3-1.3   c-0.2-0.3-0.5-0.5-0.9-0.5c-0.4,0-0.7,0.2-0.9,0.5C304.4,256.3,304.3,256.7,304.3,257.3z"
   id="path64" />
	<path
   d="M310.8,254.9L310.8,254.9z M309,257.7V255h0.7v2.7c0,0.4,0.1,0.7,0.2,0.9c0.2,0.2,0.4,0.3,0.7,0.3c0.4,0,0.7-0.1,0.9-0.4   c0.2-0.3,0.3-0.6,0.3-1V255h0.7v4.4h-0.7v-0.7c-0.2,0.3-0.4,0.5-0.6,0.6c-0.2,0.1-0.5,0.2-0.8,0.2c-0.5,0-0.9-0.2-1.2-0.5   C309.1,258.8,309,258.3,309,257.7z"
   id="path65" />
	<path
   d="M317.2,256.9c0-0.4-0.1-0.7-0.3-1c-0.2-0.2-0.5-0.4-0.9-0.4c-0.4,0-0.7,0.1-1,0.3c-0.2,0.2-0.4,0.5-0.4,1H317.2z    M317.9,257.1v0.4h-3.3c0,0.5,0.2,0.9,0.5,1.1c0.3,0.3,0.6,0.4,1.1,0.4c0.3,0,0.5,0,0.8-0.1c0.3-0.1,0.5-0.2,0.8-0.3v0.7   c-0.3,0.1-0.5,0.2-0.8,0.3c-0.3,0-0.6,0.1-0.8,0.1c-0.7,0-1.3-0.2-1.7-0.6c-0.4-0.4-0.6-1-0.6-1.7c0-0.7,0.2-1.3,0.6-1.7   c0.4-0.4,0.9-0.6,1.6-0.6c0.6,0,1.1,0.2,1.4,0.6C317.8,255.9,317.9,256.4,317.9,257.1z"
   id="path66" />
	<path
   d="M322.8,256.8v2.7h-0.7v-2.6c0-0.4-0.1-0.7-0.3-0.9c-0.2-0.2-0.4-0.3-0.7-0.3c-0.4,0-0.7,0.1-0.9,0.4   c-0.2,0.3-0.3,0.6-0.3,1v2.5h-0.7V255h0.7v0.7c0.2-0.3,0.4-0.5,0.6-0.6c0.2-0.1,0.5-0.2,0.8-0.2c0.5,0,0.9,0.2,1.1,0.5   C322.7,255.7,322.8,256.2,322.8,256.8z"
   id="path67" />
	<path
   d="M327.4,255.2v0.7c-0.2-0.1-0.4-0.2-0.6-0.3s-0.4-0.1-0.6-0.1c-0.5,0-0.8,0.2-1.1,0.5c-0.3,0.3-0.4,0.7-0.4,1.3   c0,0.5,0.1,1,0.4,1.3c0.3,0.3,0.6,0.4,1.1,0.4c0.2,0,0.4,0,0.6-0.1s0.4-0.1,0.6-0.3v0.7c-0.2,0.1-0.4,0.2-0.6,0.2   c-0.2,0-0.5,0.1-0.7,0.1c-0.7,0-1.2-0.2-1.6-0.6c-0.4-0.4-0.6-1-0.6-1.7c0-0.7,0.2-1.3,0.6-1.7c0.4-0.4,0.9-0.6,1.6-0.6   c0.2,0,0.4,0,0.7,0.1S327.2,255.1,327.4,255.2z"
   id="path68" />
	<path
   d="M330.6,259.9c-0.2,0.5-0.4,0.9-0.6,1s-0.5,0.2-0.8,0.2h-0.6v-0.6h0.4c0.2,0,0.3,0,0.5-0.1c0.1-0.1,0.2-0.3,0.4-0.7l0.1-0.3   l-1.8-4.4h0.8l1.4,3.5l1.4-3.5h0.8L330.6,259.9z"
   id="path69" />
	<line
   x1="249.3"
   y1="243.5"
   x2="248.1"
   y2="243.5"
   id="line69" />
	<line
   class="st37"
   x1="249.3"
   y1="243.5"
   x2="248.1"
   y2="243.5"
   id="line70" />
	<path
   d="M244.9,241.2c0.5,0,0.9,0.2,1.2,0.6c0.3,0.4,0.4,1,0.4,1.8c0,0.8-0.1,1.4-0.4,1.8c-0.3,0.4-0.7,0.6-1.2,0.6   s-0.9-0.2-1.2-0.6c-0.3-0.4-0.4-1-0.4-1.8c0-0.8,0.1-1.4,0.4-1.8C244,241.4,244.4,241.2,244.9,241.2z M244.9,241.7   c-0.3,0-0.6,0.2-0.7,0.5c-0.2,0.3-0.2,0.8-0.2,1.5c0,0.6,0.1,1.1,0.2,1.5c0.2,0.3,0.4,0.5,0.7,0.5s0.6-0.2,0.7-0.5   c0.2-0.3,0.2-0.8,0.2-1.5c0-0.6-0.1-1.1-0.2-1.5C245.5,241.8,245.3,241.7,244.9,241.7z"
   id="path70" />
	<line
   x1="249.3"
   y1="229"
   x2="248.1"
   y2="229"
   id="line71" />
	<line
   class="st37"
   x1="249.3"
   y1="229"
   x2="248.1"
   y2="229"
   id="line72" />
	<path
   d="M231.2,226.7h2.5v0.5h-1.9v1.2c0.1,0,0.2-0.1,0.3-0.1s0.2,0,0.3,0c0.5,0,0.9,0.1,1.2,0.4c0.3,0.3,0.5,0.7,0.5,1.2   c0,0.5-0.2,0.9-0.5,1.2c-0.3,0.3-0.8,0.4-1.3,0.4c-0.2,0-0.4,0-0.6,0c-0.2,0-0.4-0.1-0.6-0.1v-0.6c0.2,0.1,0.4,0.2,0.6,0.2   c0.2,0.1,0.4,0.1,0.6,0.1c0.4,0,0.7-0.1,0.9-0.3c0.2-0.2,0.3-0.5,0.3-0.8c0-0.3-0.1-0.6-0.3-0.8c-0.2-0.2-0.5-0.3-0.9-0.3   c-0.2,0-0.3,0-0.5,0.1c-0.2,0-0.3,0.1-0.5,0.2V226.7z"
   id="path72" />
	<path
   d="M236.7,226.6c0.5,0,0.9,0.2,1.2,0.6c0.3,0.4,0.4,1,0.4,1.8c0,0.8-0.1,1.4-0.4,1.8c-0.3,0.4-0.7,0.6-1.2,0.6   s-0.9-0.2-1.2-0.6c-0.3-0.4-0.4-1-0.4-1.8c0-0.8,0.1-1.4,0.4-1.8C235.8,226.9,236.2,226.6,236.7,226.6z M236.7,227.1   c-0.3,0-0.6,0.2-0.7,0.5c-0.2,0.3-0.2,0.8-0.2,1.5c0,0.6,0.1,1.1,0.2,1.5c0.2,0.3,0.4,0.5,0.7,0.5s0.6-0.2,0.7-0.5   c0.2-0.3,0.2-0.8,0.2-1.5c0-0.6-0.1-1.1-0.2-1.5C237.3,227.3,237,227.1,236.7,227.1z"
   id="path73" />
	<path
   d="M240.8,226.6c0.5,0,0.9,0.2,1.2,0.6c0.3,0.4,0.4,1,0.4,1.8c0,0.8-0.1,1.4-0.4,1.8c-0.3,0.4-0.7,0.6-1.2,0.6   c-0.5,0-0.9-0.2-1.2-0.6c-0.3-0.4-0.4-1-0.4-1.8c0-0.8,0.1-1.4,0.4-1.8C239.9,226.9,240.3,226.6,240.8,226.6z M240.8,227.1   c-0.3,0-0.6,0.2-0.7,0.5c-0.2,0.3-0.2,0.8-0.2,1.5c0,0.6,0.1,1.1,0.2,1.5c0.2,0.3,0.4,0.5,0.7,0.5c0.3,0,0.6-0.2,0.7-0.5   c0.2-0.3,0.2-0.8,0.2-1.5c0-0.6-0.1-1.1-0.2-1.5C241.4,227.3,241.2,227.1,240.8,227.1z"
   id="path74" />
	<path
   d="M244.9,226.6c0.5,0,0.9,0.2,1.2,0.6c0.3,0.4,0.4,1,0.4,1.8c0,0.8-0.1,1.4-0.4,1.8c-0.3,0.4-0.7,0.6-1.2,0.6   c-0.5,0-0.9-0.2-1.2-0.6c-0.3-0.4-0.4-1-0.4-1.8c0-0.8,0.1-1.4,0.4-1.8C244,226.9,244.4,226.6,244.9,226.6z M244.9,227.1   c-0.3,0-0.6,0.2-0.7,0.5c-0.2,0.3-0.2,0.8-0.2,1.5c0,0.6,0.1,1.1,0.2,1.5c0.2,0.3,0.4,0.5,0.7,0.5c0.3,0,0.6-0.2,0.7-0.5   c0.2-0.3,0.2-0.8,0.2-1.5c0-0.6-0.1-1.1-0.2-1.5C245.5,227.3,245.3,227.1,244.9,227.1z"
   id="path75" />
	<line
   x1="249.3"
   y1="214.5"
   x2="248.1"
   y2="214.5"
   id="line75" />
	<line
   class="st37"
   x1="249.3"
   y1="214.5"
   x2="248.1"
   y2="214.5"
   id="line76" />
	<polygon
   points="227.2,216.4 228.3,216.4 228.3,212.8 227.1,213 227.1,212.4 228.3,212.2 228.9,212.2 228.9,216.4 229.9,216.4    229.9,216.9 227.2,216.9  "
   id="polygon76" />
	<path
   d="M232.6,212.1c0.5,0,0.9,0.2,1.2,0.6c0.3,0.4,0.4,1,0.4,1.8c0,0.8-0.1,1.4-0.4,1.8c-0.3,0.4-0.7,0.6-1.2,0.6   c-0.5,0-0.9-0.2-1.2-0.6c-0.3-0.4-0.4-1-0.4-1.8c0-0.8,0.1-1.4,0.4-1.8C231.7,212.3,232.1,212.1,232.6,212.1z M232.6,212.6   c-0.3,0-0.6,0.2-0.7,0.5c-0.2,0.3-0.2,0.8-0.2,1.5c0,0.6,0.1,1.1,0.2,1.5c0.2,0.3,0.4,0.5,0.7,0.5c0.3,0,0.6-0.2,0.7-0.5   c0.2-0.3,0.2-0.8,0.2-1.5c0-0.6-0.1-1.1-0.2-1.5C233.2,212.8,232.9,212.6,232.6,212.6z"
   id="path76" />
	<path
   d="M236.7,212.1c0.5,0,0.9,0.2,1.2,0.6c0.3,0.4,0.4,1,0.4,1.8c0,0.8-0.1,1.4-0.4,1.8c-0.3,0.4-0.7,0.6-1.2,0.6   s-0.9-0.2-1.2-0.6c-0.3-0.4-0.4-1-0.4-1.8c0-0.8,0.1-1.4,0.4-1.8C235.8,212.3,236.2,212.1,236.7,212.1z M236.7,212.6   c-0.3,0-0.6,0.2-0.7,0.5c-0.2,0.3-0.2,0.8-0.2,1.5c0,0.6,0.1,1.1,0.2,1.5c0.2,0.3,0.4,0.5,0.7,0.5s0.6-0.2,0.7-0.5   c0.2-0.3,0.2-0.8,0.2-1.5c0-0.6-0.1-1.1-0.2-1.5C237.3,212.8,237,212.6,236.7,212.6z"
   id="path77" />
	<path
   d="M240.8,212.1c0.5,0,0.9,0.2,1.2,0.6c0.3,0.4,0.4,1,0.4,1.8c0,0.8-0.1,1.4-0.4,1.8c-0.3,0.4-0.7,0.6-1.2,0.6   s-0.9-0.2-1.2-0.6c-0.3-0.4-0.4-1-0.4-1.8c0-0.8,0.1-1.4,0.4-1.8C239.9,212.3,240.3,212.1,240.8,212.1z M240.8,212.6   c-0.3,0-0.6,0.2-0.7,0.5c-0.2,0.3-0.2,0.8-0.2,1.5c0,0.6,0.1,1.1,0.2,1.5c0.2,0.3,0.4,0.5,0.7,0.5s0.6-0.2,0.7-0.5   c0.2-0.3,0.2-0.8,0.2-1.5c0-0.6-0.1-1.1-0.2-1.5C241.4,212.8,241.2,212.6,240.8,212.6z"
   id="path78" />
	<path
   d="M244.9,212.1c0.5,0,0.9,0.2,1.2,0.6c0.3,0.4,0.4,1,0.4,1.8c0,0.8-0.1,1.4-0.4,1.8c-0.3,0.4-0.7,0.6-1.2,0.6   c-0.5,0-0.9-0.2-1.2-0.6s-0.4-1-0.4-1.8c0-0.8,0.1-1.4,0.4-1.8C244,212.3,244.4,212.1,244.9,212.1z M244.9,212.6   c-0.3,0-0.6,0.2-0.7,0.5s-0.2,0.8-0.2,1.5c0,0.6,0.1,1.1,0.2,1.5c0.2,0.3,0.4,0.5,0.7,0.5c0.3,0,0.6-0.2,0.7-0.5   c0.2-0.3,0.2-0.8,0.2-1.5c0-0.6-0.1-1.1-0.2-1.5C245.5,212.8,245.3,212.6,244.9,212.6z"
   id="path79" />
	<line
   x1="249.3"
   y1="199.9"
   x2="248.1"
   y2="199.9"
   id="line79" />
	<line
   class="st37"
   x1="249.3"
   y1="199.9"
   x2="248.1"
   y2="199.9"
   id="line80" />
	<polygon
   points="227.2,201.9 228.3,201.9 228.3,198.3 227.1,198.5 227.1,197.9 228.3,197.7 228.9,197.7 228.9,201.9 229.9,201.9    229.9,202.4 227.2,202.4  "
   id="polygon80" />
	<path
   d="M231.2,197.7h2.5v0.5h-1.9v1.2c0.1,0,0.2-0.1,0.3-0.1c0.1,0,0.2,0,0.3,0c0.5,0,0.9,0.1,1.2,0.4c0.3,0.3,0.5,0.7,0.5,1.2   c0,0.5-0.2,0.9-0.5,1.2c-0.3,0.3-0.8,0.4-1.3,0.4c-0.2,0-0.4,0-0.6,0c-0.2,0-0.4-0.1-0.6-0.1v-0.6c0.2,0.1,0.4,0.2,0.6,0.2   c0.2,0.1,0.4,0.1,0.6,0.1c0.4,0,0.7-0.1,0.9-0.3c0.2-0.2,0.3-0.5,0.3-0.8c0-0.3-0.1-0.6-0.3-0.8c-0.2-0.2-0.5-0.3-0.9-0.3   c-0.2,0-0.3,0-0.5,0.1c-0.2,0-0.3,0.1-0.5,0.2V197.7z"
   id="path80" />
	<path
   d="M236.7,197.6c0.5,0,0.9,0.2,1.2,0.6c0.3,0.4,0.4,1,0.4,1.8c0,0.8-0.1,1.4-0.4,1.8c-0.3,0.4-0.7,0.6-1.2,0.6   s-0.9-0.2-1.2-0.6c-0.3-0.4-0.4-1-0.4-1.8c0-0.8,0.1-1.4,0.4-1.8C235.8,197.8,236.2,197.6,236.7,197.6z M236.7,198.1   c-0.3,0-0.6,0.2-0.7,0.5c-0.2,0.3-0.2,0.8-0.2,1.5s0.1,1.1,0.2,1.5c0.2,0.3,0.4,0.5,0.7,0.5s0.6-0.2,0.7-0.5   c0.2-0.3,0.2-0.8,0.2-1.5s-0.1-1.1-0.2-1.5C237.3,198.3,237,198.1,236.7,198.1z"
   id="path81" />
	<path
   d="M240.8,197.6c0.5,0,0.9,0.2,1.2,0.6c0.3,0.4,0.4,1,0.4,1.8c0,0.8-0.1,1.4-0.4,1.8c-0.3,0.4-0.7,0.6-1.2,0.6   s-0.9-0.2-1.2-0.6c-0.3-0.4-0.4-1-0.4-1.8c0-0.8,0.1-1.4,0.4-1.8C239.9,197.8,240.3,197.6,240.8,197.6z M240.8,198.1   c-0.3,0-0.6,0.2-0.7,0.5c-0.2,0.3-0.2,0.8-0.2,1.5s0.1,1.1,0.2,1.5c0.2,0.3,0.4,0.5,0.7,0.5s0.6-0.2,0.7-0.5   c0.2-0.3,0.2-0.8,0.2-1.5s-0.1-1.1-0.2-1.5C241.4,198.3,241.2,198.1,240.8,198.1z"
   id="path82" />
	<path
   d="M244.9,197.6c0.5,0,0.9,0.2,1.2,0.6c0.3,0.4,0.4,1,0.4,1.8c0,0.8-0.1,1.4-0.4,1.8c-0.3,0.4-0.7,0.6-1.2,0.6   c-0.5,0-0.9-0.2-1.2-0.6s-0.4-1-0.4-1.8c0-0.8,0.1-1.4,0.4-1.8C244,197.8,244.4,197.6,244.9,197.6z M244.9,198.1   c-0.3,0-0.6,0.2-0.7,0.5s-0.2,0.8-0.2,1.5s0.1,1.1,0.2,1.5c0.2,0.3,0.4,0.5,0.7,0.5c0.3,0,0.6-0.2,0.7-0.5c0.2-0.3,0.2-0.8,0.2-1.5   s-0.1-1.1-0.2-1.5C245.5,198.3,245.3,198.1,244.9,198.1z"
   id="path83" />
	<line
   x1="249.3"
   y1="185.4"
   x2="248.1"
   y2="185.4"
   id="line83" />
	<line
   class="st37"
   x1="249.3"
   y1="185.4"
   x2="248.1"
   y2="185.4"
   id="line84" />
	<path
   d="M227.7,187.3h2.2v0.5h-3v-0.5c0.2-0.2,0.6-0.6,1-1c0.4-0.4,0.7-0.7,0.8-0.8c0.2-0.2,0.3-0.4,0.4-0.6   c0.1-0.2,0.1-0.3,0.1-0.5c0-0.2-0.1-0.5-0.3-0.6c-0.2-0.2-0.4-0.2-0.7-0.2c-0.2,0-0.4,0-0.6,0.1c-0.2,0.1-0.5,0.2-0.7,0.3v-0.6   c0.3-0.1,0.5-0.2,0.7-0.2c0.2-0.1,0.4-0.1,0.6-0.1c0.5,0,0.9,0.1,1.2,0.4c0.3,0.2,0.4,0.6,0.4,1c0,0.2,0,0.4-0.1,0.5   c-0.1,0.2-0.2,0.4-0.4,0.6c-0.1,0.1-0.2,0.2-0.5,0.5C228.6,186.4,228.2,186.8,227.7,187.3z"
   id="path84" />
	<path
   d="M232.6,183.1c0.5,0,0.9,0.2,1.2,0.6c0.3,0.4,0.4,1,0.4,1.8c0,0.8-0.1,1.4-0.4,1.8c-0.3,0.4-0.7,0.6-1.2,0.6   c-0.5,0-0.9-0.2-1.2-0.6c-0.3-0.4-0.4-1-0.4-1.8c0-0.8,0.1-1.4,0.4-1.8C231.7,183.3,232.1,183.1,232.6,183.1z M232.6,183.6   c-0.3,0-0.6,0.2-0.7,0.5c-0.2,0.3-0.2,0.8-0.2,1.5c0,0.6,0.1,1.1,0.2,1.5c0.2,0.3,0.4,0.5,0.7,0.5c0.3,0,0.6-0.2,0.7-0.5   c0.2-0.3,0.2-0.8,0.2-1.5c0-0.6-0.1-1.1-0.2-1.5C233.2,183.7,232.9,183.6,232.6,183.6z"
   id="path85" />
	<path
   d="M236.7,183.1c0.5,0,0.9,0.2,1.2,0.6c0.3,0.4,0.4,1,0.4,1.8c0,0.8-0.1,1.4-0.4,1.8c-0.3,0.4-0.7,0.6-1.2,0.6   s-0.9-0.2-1.2-0.6c-0.3-0.4-0.4-1-0.4-1.8c0-0.8,0.1-1.4,0.4-1.8C235.8,183.3,236.2,183.1,236.7,183.1z M236.7,183.6   c-0.3,0-0.6,0.2-0.7,0.5c-0.2,0.3-0.2,0.8-0.2,1.5c0,0.6,0.1,1.1,0.2,1.5c0.2,0.3,0.4,0.5,0.7,0.5s0.6-0.2,0.7-0.5   c0.2-0.3,0.2-0.8,0.2-1.5c0-0.6-0.1-1.1-0.2-1.5C237.3,183.7,237,183.6,236.7,183.6z"
   id="path86" />
	<path
   d="M240.8,183.1c0.5,0,0.9,0.2,1.2,0.6c0.3,0.4,0.4,1,0.4,1.8c0,0.8-0.1,1.4-0.4,1.8c-0.3,0.4-0.7,0.6-1.2,0.6   s-0.9-0.2-1.2-0.6c-0.3-0.4-0.4-1-0.4-1.8c0-0.8,0.1-1.4,0.4-1.8C239.9,183.3,240.3,183.1,240.8,183.1z M240.8,183.6   c-0.3,0-0.6,0.2-0.7,0.5c-0.2,0.3-0.2,0.8-0.2,1.5c0,0.6,0.1,1.1,0.2,1.5c0.2,0.3,0.4,0.5,0.7,0.5s0.6-0.2,0.7-0.5   c0.2-0.3,0.2-0.8,0.2-1.5c0-0.6-0.1-1.1-0.2-1.5C241.4,183.7,241.2,183.6,240.8,183.6z"
   id="path87" />
	<path
   d="M244.9,183.1c0.5,0,0.9,0.2,1.2,0.6c0.3,0.4,0.4,1,0.4,1.8c0,0.8-0.1,1.4-0.4,1.8c-0.3,0.4-0.7,0.6-1.2,0.6   c-0.5,0-0.9-0.2-1.2-0.6s-0.4-1-0.4-1.8c0-0.8,0.1-1.4,0.4-1.8C244,183.3,244.4,183.1,244.9,183.1z M244.9,183.6   c-0.3,0-0.6,0.2-0.7,0.5c-0.2,0.3-0.2,0.8-0.2,1.5c0,0.6,0.1,1.1,0.2,1.5s0.4,0.5,0.7,0.5c0.3,0,0.6-0.2,0.7-0.5   c0.2-0.3,0.2-0.8,0.2-1.5c0-0.6-0.1-1.1-0.2-1.5C245.5,183.7,245.3,183.6,244.9,183.6z"
   id="path88" />
	<line
   x1="249.3"
   y1="170.9"
   x2="248.1"
   y2="170.9"
   id="line88" />
	<line
   class="st37"
   x1="249.3"
   y1="170.9"
   x2="248.1"
   y2="170.9"
   id="line89" />
	<path
   d="M227.7,172.8h2.2v0.5h-3v-0.5c0.2-0.2,0.6-0.6,1-1c0.4-0.4,0.7-0.7,0.8-0.8c0.2-0.2,0.3-0.4,0.4-0.6   c0.1-0.2,0.1-0.3,0.1-0.5c0-0.2-0.1-0.5-0.3-0.6c-0.2-0.2-0.4-0.2-0.7-0.2c-0.2,0-0.4,0-0.6,0.1c-0.2,0.1-0.5,0.2-0.7,0.3v-0.6   c0.3-0.1,0.5-0.2,0.7-0.2c0.2-0.1,0.4-0.1,0.6-0.1c0.5,0,0.9,0.1,1.2,0.4c0.3,0.2,0.4,0.6,0.4,1c0,0.2,0,0.4-0.1,0.5   c-0.1,0.2-0.2,0.4-0.4,0.6c-0.1,0.1-0.2,0.2-0.5,0.5C228.6,171.9,228.2,172.3,227.7,172.8z"
   id="path89" />
	<path
   d="M231.2,168.6h2.5v0.5h-1.9v1.2c0.1,0,0.2-0.1,0.3-0.1c0.1,0,0.2,0,0.3,0c0.5,0,0.9,0.1,1.2,0.4c0.3,0.3,0.5,0.7,0.5,1.2   c0,0.5-0.2,0.9-0.5,1.2c-0.3,0.3-0.8,0.4-1.3,0.4c-0.2,0-0.4,0-0.6,0c-0.2,0-0.4-0.1-0.6-0.1v-0.6c0.2,0.1,0.4,0.2,0.6,0.2   c0.2,0.1,0.4,0.1,0.6,0.1c0.4,0,0.7-0.1,0.9-0.3c0.2-0.2,0.3-0.5,0.3-0.8c0-0.3-0.1-0.6-0.3-0.8c-0.2-0.2-0.5-0.3-0.9-0.3   c-0.2,0-0.3,0-0.5,0.1c-0.2,0-0.3,0.1-0.5,0.2V168.6z"
   id="path90" />
	<path
   d="M236.7,168.5c0.5,0,0.9,0.2,1.2,0.6c0.3,0.4,0.4,1,0.4,1.8c0,0.8-0.1,1.4-0.4,1.8c-0.3,0.4-0.7,0.6-1.2,0.6   s-0.9-0.2-1.2-0.6c-0.3-0.4-0.4-1-0.4-1.8c0-0.8,0.1-1.4,0.4-1.8C235.8,168.8,236.2,168.5,236.7,168.5z M236.7,169   c-0.3,0-0.6,0.2-0.7,0.5c-0.2,0.3-0.2,0.8-0.2,1.5c0,0.6,0.1,1.1,0.2,1.5c0.2,0.3,0.4,0.5,0.7,0.5s0.6-0.2,0.7-0.5   c0.2-0.3,0.2-0.8,0.2-1.5c0-0.6-0.1-1.1-0.2-1.5C237.3,169.2,237,169,236.7,169z"
   id="path91" />
	<path
   d="M240.8,168.5c0.5,0,0.9,0.2,1.2,0.6c0.3,0.4,0.4,1,0.4,1.8c0,0.8-0.1,1.4-0.4,1.8c-0.3,0.4-0.7,0.6-1.2,0.6   s-0.9-0.2-1.2-0.6c-0.3-0.4-0.4-1-0.4-1.8c0-0.8,0.1-1.4,0.4-1.8C239.9,168.8,240.3,168.5,240.8,168.5z M240.8,169   c-0.3,0-0.6,0.2-0.7,0.5c-0.2,0.3-0.2,0.8-0.2,1.5c0,0.6,0.1,1.1,0.2,1.5c0.2,0.3,0.4,0.5,0.7,0.5s0.6-0.2,0.7-0.5   c0.2-0.3,0.2-0.8,0.2-1.5c0-0.6-0.1-1.1-0.2-1.5C241.4,169.2,241.2,169,240.8,169z"
   id="path92" />
	<path
   d="M244.9,168.5c0.5,0,0.9,0.2,1.2,0.6c0.3,0.4,0.4,1,0.4,1.8c0,0.8-0.1,1.4-0.4,1.8c-0.3,0.4-0.7,0.6-1.2,0.6   c-0.5,0-0.9-0.2-1.2-0.6s-0.4-1-0.4-1.8c0-0.8,0.1-1.4,0.4-1.8C244,168.8,244.4,168.5,244.9,168.5z M244.9,169   c-0.3,0-0.6,0.2-0.7,0.5c-0.2,0.3-0.2,0.8-0.2,1.5c0,0.6,0.1,1.1,0.2,1.5s0.4,0.5,0.7,0.5c0.3,0,0.6-0.2,0.7-0.5   c0.2-0.3,0.2-0.8,0.2-1.5c0-0.6-0.1-1.1-0.2-1.5C245.5,169.2,245.3,169,244.9,169z"
   id="path93" />
	<path
   d="M218,210.4h0.8c-0.2,0.3-0.4,0.6-0.6,0.9c-0.1,0.3-0.2,0.6-0.2,1c0,0.7,0.2,1.2,0.6,1.6s1,0.5,1.8,0.5s1.4-0.2,1.8-0.5   s0.6-0.9,0.6-1.6c0-0.3-0.1-0.7-0.2-1c-0.1-0.3-0.3-0.6-0.6-0.9h0.8c0.2,0.3,0.3,0.6,0.4,0.9s0.1,0.6,0.1,1c0,0.9-0.3,1.6-0.8,2.1   c-0.5,0.5-1.3,0.8-2.2,0.8c-0.9,0-1.7-0.3-2.2-0.8c-0.5-0.5-0.8-1.2-0.8-2.1c0-0.4,0-0.7,0.1-1C217.7,211,217.8,210.7,218,210.4z"
   id="path94" />
	<path
   d="M218.9,207.5c0-0.6,0.2-1.1,0.6-1.5c0.4-0.4,1-0.5,1.7-0.5c0.7,0,1.3,0.2,1.7,0.5c0.4,0.4,0.6,0.9,0.6,1.5   c0,0.6-0.2,1.1-0.6,1.5c-0.4,0.4-1,0.5-1.7,0.5c-0.7,0-1.3-0.2-1.7-0.5C219.1,208.6,218.9,208.1,218.9,207.5z M219.5,207.5   c0,0.4,0.2,0.7,0.5,0.9c0.3,0.2,0.7,0.3,1.2,0.3c0.5,0,0.9-0.1,1.3-0.3c0.3-0.2,0.5-0.5,0.5-0.9c0-0.4-0.1-0.7-0.5-0.9   c-0.3-0.2-0.7-0.3-1.3-0.3c-0.5,0-0.9,0.1-1.2,0.3C219.7,206.8,219.5,207.1,219.5,207.5z"
   id="path95" />
	<path
   d="M218.9,202.5L218.9,202.5z M221.7,204.3H219v-0.7h2.7c0.4,0,0.7-0.1,0.9-0.2c0.2-0.2,0.3-0.4,0.3-0.7   c0-0.4-0.1-0.7-0.4-0.9c-0.3-0.2-0.6-0.3-1-0.3H219v-0.7h4.4v0.7h-0.7c0.3,0.2,0.5,0.4,0.6,0.6c0.1,0.2,0.2,0.5,0.2,0.8   c0,0.5-0.2,0.9-0.5,1.2C222.8,204.2,222.3,204.3,221.7,204.3z"
   id="path96" />
	<path
   d="M220.8,195.4h2.7v0.7h-2.6c-0.4,0-0.7,0.1-0.9,0.3c-0.2,0.2-0.3,0.4-0.3,0.7c0,0.4,0.1,0.7,0.4,0.9c0.3,0.2,0.6,0.3,1,0.3   h2.5v0.7H219v-0.7h0.7c-0.3-0.2-0.5-0.4-0.6-0.6c-0.1-0.2-0.2-0.5-0.2-0.8c0-0.5,0.2-0.9,0.5-1.1   C219.7,195.6,220.2,195.4,220.8,195.4z"
   id="path97" />
	<path
   d="M217.8,193.3h1.3v-1.5h0.6v1.5h2.4c0.4,0,0.6,0,0.7-0.1c0.1-0.1,0.2-0.3,0.2-0.6v-0.7h0.6v0.7c0,0.6-0.1,1-0.3,1.2   c-0.2,0.2-0.6,0.3-1.1,0.3h-2.4v0.5H219V194h-1.3V193.3z"
   id="path98" />
	<line
   class="st38"
   x1="249.3"
   y1="243.5"
   x2="249.3"
   y2="163.7"
   id="line98" />
	<line
   class="st38"
   x1="350.9"
   y1="243.5"
   x2="350.9"
   y2="163.7"
   id="line99" />
	<line
   class="st38"
   x1="249.3"
   y1="243.5"
   x2="350.9"
   y2="243.5"
   id="line100" />
	<line
   class="st38"
   x1="249.29999"
   y1="163.7"
   x2="350.89999"
   y2="163.7"
   id="line101" />
	
	
	<g
   id="g289">
		<g
   id="g288">
			<path
   d="M117.8,191.7c23.5,14.8,47.4,28.9,71.8,42.1c0.7,0.4,1.6-0.4,1.1-1.1c-3.4-5.2-7.3-9.8-11.9-14c-0.6-0.6-1.8,0.2-1.3,1     c5.4,7.5,12,13.8,19.7,18.9c0.2-0.5,0.4-1,0.6-1.5c-7.9-3-16-5-24.4-6.1c-1-0.1-1,1.5,0,1.6c8.2,1.1,16.2,3.1,24,6     c0.9,0.3,1.3-1,0.6-1.5c-7.5-5-13.9-11.1-19.2-18.4c-0.4,0.3-0.8,0.7-1.3,1c4.4,4.1,8.3,8.6,11.6,13.7c0.4-0.4,0.7-0.7,1.1-1.1     c-24.4-13.2-48.4-27.2-71.8-42.1C117.8,189.8,117,191.2,117.8,191.7L117.8,191.7z"
   id="path287" />
		</g>
	</g>
	<g
   id="g291">
		<g
   id="g290">
			<path
   d="M452.4,190.3c-23.5,14.8-47.4,28.9-71.8,42.1c0.4,0.4,0.7,0.7,1.1,1.1c3.3-5.1,7.2-9.6,11.6-13.7c-0.4-0.3-0.8-0.7-1.3-1     c-5.3,7.3-11.6,13.4-19.2,18.4c-0.7,0.5-0.3,1.8,0.6,1.5c7.8-2.9,15.7-4.9,24-6c1-0.1,1-1.8,0-1.6c-8.4,1.1-16.5,3.1-24.4,6.1     c0.2,0.5,0.4,1,0.6,1.5c7.7-5.1,14.3-11.4,19.7-18.9c0.6-0.8-0.6-1.6-1.3-1c-4.6,4.2-8.5,8.9-11.9,14c-0.5,0.7,0.4,1.5,1.1,1.1     c24.4-13.2,48.4-27.2,71.8-42.1C454.1,191.2,453.3,189.8,452.4,190.3L452.4,190.3z"
   id="path289" />
		</g>
	</g>
</g>
</svg>
