<svg version="1.1" viewBox="0.0 0.0 1026.3517060367453 462.005249343832" fill="none" stroke="none" stroke-linecap="square" stroke-miterlimit="10" xmlns:xlink="http://www.w3.org/1999/xlink" xmlns="http://www.w3.org/2000/svg"><clipPath id="p.0"><path d="m0 0l1026.3517 0l0 462.00525l-1026.3517 0l0 -462.00525z" clip-rule="nonzero"/></clipPath><g clip-path="url(#p.0)"><path fill="#000000" fill-opacity="0.0" d="m0 0l1026.3517 0l0 462.00525l-1026.3517 0z" fill-rule="evenodd"/><path fill="#cccccc" d="m861.88214 4.840703l160.37799 0l0 35.559055l-160.37799 0z" fill-rule="evenodd"/><path fill="#000000" d="m867.70123 33.0007l0 -21.0l7.921875 0q2.078125 0 3.1875 0.203125q1.546875 0.265625 2.59375 0.984375q1.046875 0.71875 1.671875 2.03125q0.640625 1.296874 0.640625 2.859374q0 2.671875 -1.703125 4.53125q-1.703125 1.859375 -6.15625 1.859375l-5.375 0l0 8.53125l-2.78125 0zm2.78125 -11.015625l5.421875 0q2.6875 0 3.8125 -1.0q1.140625 -1.0 1.140625 -2.8125q0 -1.328125 -0.671875 -2.265624q-0.65625 -0.9375 -1.75 -1.234375q-0.703125 -0.1875 -2.59375 -0.1875l-5.359375 0l0 7.499999zm15.4835205 3.40625q0 -4.21875 2.359375 -6.25q1.953125 -1.6875 4.78125 -1.6875q3.125 0 5.109375 2.0625q2.0 2.046875 2.0 5.671875q0 2.921875 -0.875 4.609375q-0.875 1.6875 -2.5625 2.625q-1.6875 0.921875 -3.671875 0.921875q-3.203125 0 -5.171875 -2.046875q-1.96875 -2.046875 -1.96875 -5.90625zm2.65625 0q0 2.921875 1.265625 4.375q1.28125 1.453125 3.21875 1.453125q1.921875 0 3.1875 -1.453125q1.28125 -1.46875 1.28125 -4.453125q0 -2.828125 -1.28125 -4.28125q-1.28125 -1.453125 -3.1875 -1.453125q-1.9375 0 -3.21875 1.453125q-1.265625 1.4375 -1.265625 4.359375zm14.623413 13.4375l0 -21.03125l2.34375 0l0 1.96875q0.828125 -1.15625 1.875 -1.734375q1.046875 -0.578125 2.53125 -0.578125q1.953125 0 3.4375 1.0q1.5 1.0 2.25 2.828125q0.765625 1.828125 0.765625 4.0q0 2.328125 -0.84375 4.203125q-0.828125 1.875 -2.4375 2.875q-1.59375 0.984375 -3.359375 0.984375q-1.28125 0 -2.3125 -0.546875q-1.015625 -0.546875 -1.671875 -1.375l0 7.40625l-2.578125 0zm2.328125 -13.34375q0 2.9375 1.1875 4.34375q1.1875 1.390625 2.875 1.390625q1.71875 0 2.9375 -1.453125q1.234375 -1.453125 1.234375 -4.5q0 -2.90625 -1.203125 -4.34375q-1.1875 -1.453125 -2.84375 -1.453125q-1.65625 0 -2.921875 1.546875q-1.265625 1.53125 -1.265625 4.46875zm23.951538 7.515625l0 -2.234375q-1.78125 2.578125 -4.828125 2.578125q-1.34375 0 -2.515625 -0.515625q-1.171875 -0.515625 -1.734375 -1.296875q-0.5625 -0.78125 -0.796875 -1.90625q-0.15625 -0.765625 -0.15625 -2.40625l0 -9.421875l2.578125 0l0 8.421875q0 2.03125 0.15625 2.734375q0.25 1.015625 1.03125 1.59375q0.796875 0.578125 1.953125 0.578125q1.15625 0 2.171875 -0.59375q1.015625 -0.59375 1.4375 -1.609375q0.421875 -1.03125 0.421875 -2.984375l0 -8.140625l2.578125 0l0 15.203125l-2.296875 0zm6.279663 0l0 -21.0l2.578125 0l0 21.0l-2.578125 0zm16.500183 -1.875q-1.4375 1.21875 -2.765625 1.71875q-1.3125 0.5 -2.828125 0.5q-2.515625 0 -3.859375 -1.21875q-1.34375 -1.234375 -1.34375 -3.140625q0 -1.109375 0.5 -2.03125q0.515625 -0.921875 1.328125 -1.484375q0.828125 -0.5625 1.859375 -0.84375q0.765625 -0.203125 2.296875 -0.390625q3.125 -0.375 4.59375 -0.890625q0.015625 -0.53125 0.015625 -0.671875q0 -1.578125 -0.734375 -2.21875q-0.984375 -0.875 -2.9375 -0.875q-1.8125 0 -2.6875 0.640625q-0.859375 0.640625 -1.265625 2.25l-2.53125 -0.34375q0.34375 -1.609375 1.125 -2.609375q0.796875 -1.0 2.28125 -1.53125q1.5 -0.53125 3.453125 -0.53125q1.953125 0 3.171875 0.453125q1.21875 0.453125 1.78125 1.15625q0.578125 0.6875 0.8125 1.75q0.125 0.65625 0.125 2.375l0 3.4375q0 3.59375 0.15625 4.546875q0.171875 0.953125 0.65625 1.828125l-2.6875 0q-0.40625 -0.796875 -0.515625 -1.875zm-0.21875 -5.75q-1.40625 0.5625 -4.203125 0.96875q-1.59375 0.21875 -2.25 0.515625q-0.65625 0.28125 -1.015625 0.84375q-0.359375 0.546875 -0.359375 1.21875q0 1.03125 0.78125 1.71875q0.78125 0.6875 2.28125 0.6875q1.484375 0 2.640625 -0.65625q1.171875 -0.65625 1.71875 -1.78125q0.40625 -0.875 0.40625 -2.578125l0 -0.9375zm12.232788 5.3125l0.375 2.28125q-1.09375 0.234375 -1.953125 0.234375q-1.40625 0 -2.1875 -0.4375q-0.765625 -0.453125 -1.078125 -1.171875q-0.3125 -0.734375 -0.3125 -3.046875l0 -8.75l-1.890625 0l0 -2.0l1.890625 0l0 -3.765624l2.5625 -1.546875l0 5.312499l2.59375 0l0 2.0l-2.59375 0l0 8.890625q0 1.109375 0.125 1.421875q0.140625 0.3125 0.453125 0.5q0.3125 0.1875 0.890625 0.1875q0.421875 0 1.125 -0.109375zm2.5388794 -15.718749l0 -2.96875l2.578125 0l0 2.96875l-2.578125 0zm0 18.03125l0 -15.203125l2.578125 0l0 15.203125l-2.578125 0zm5.531433 -7.609375q0 -4.21875 2.359375 -6.25q1.953125 -1.6875 4.78125 -1.6875q3.125 0 5.109375 2.0625q2.0 2.046875 2.0 5.671875q0 2.921875 -0.875 4.609375q-0.875 1.6875 -2.5625 2.625q-1.6875 0.921875 -3.671875 0.921875q-3.203125 0 -5.171875 -2.046875q-1.96875 -2.046875 -1.96875 -5.90625zm2.65625 0q0 2.921875 1.265625 4.375q1.28125 1.453125 3.21875 1.453125q1.921875 0 3.1875 -1.453125q1.28125 -1.46875 1.28125 -4.453125q0 -2.828125 -1.28125 -4.28125q-1.28125 -1.453125 -3.1875 -1.453125q-1.9375 0 -3.21875 1.453125q-1.265625 1.4375 -1.265625 4.359375zm14.623413 7.609375l0 -15.203125l2.3125 0l0 2.15625q1.671875 -2.5 4.84375 -2.5q1.375 0 2.53125 0.5q1.15625 0.484375 1.71875 1.296875q0.578125 0.796875 0.8125 1.890625q0.140625 0.71875 0.140625 2.515625l0 9.34375l-2.578125 0l0 -9.25q0 -1.578125 -0.3125 -2.359375q-0.296875 -0.78125 -1.0625 -1.234375q-0.765625 -0.46875 -1.796875 -0.46875q-1.640625 0 -2.84375 1.046875q-1.1875 1.03125 -1.1875 3.953125l0 8.3125l-2.578125 0zm15.279663 -4.546875l2.546875 -0.390625q0.21875 1.53125 1.1875 2.34375q0.984375 0.8125 2.75 0.8125q1.78125 0 2.640625 -0.71875q0.859375 -0.71875 0.859375 -1.703125q0 -0.859375 -0.765625 -1.375q-0.53125 -0.34375 -2.640625 -0.859375q-2.828125 -0.71875 -3.921875 -1.234375q-1.09375 -0.53125 -1.671875 -1.453125q-0.5625 -0.921875 -0.5625 -2.046875q0 -1.015625 0.46875 -1.875q0.46875 -0.875 1.265625 -1.453125q0.609375 -0.4375 1.640625 -0.734375q1.046875 -0.3125 2.234375 -0.3125q1.78125 0 3.125 0.515625q1.359375 0.515625 2.0 1.390625q0.65625 0.875 0.890625 2.359375l-2.515625 0.34375q-0.171875 -1.171875 -1.0 -1.828125q-0.8125 -0.671875 -2.3125 -0.671875q-1.78125 0 -2.546875 0.59375q-0.75 0.578125 -0.75 1.375q0 0.5 0.3125 0.90625q0.3125 0.40625 0.984375 0.6875q0.390625 0.140625 2.28125 0.65625q2.734375 0.734375 3.8125 1.203125q1.078125 0.453125 1.6875 1.34375q0.625 0.890625 0.625 2.203125q0 1.296875 -0.75 2.4375q-0.75 1.125 -2.171875 1.75q-1.421875 0.625 -3.203125 0.625q-2.96875 0 -4.53125 -1.234375q-1.546875 -1.234375 -1.96875 -3.65625z" fill-rule="nonzero"/><path fill="#000000" fill-opacity="0.0" d="m979.83203 41.220474l-79.93701 54.29921" fill-rule="evenodd"/><path stroke="#000000" stroke-width="3.0" stroke-linejoin="round" stroke-linecap="butt" d="m979.83203 41.220474l-71.43237 48.52217" fill-rule="evenodd"/><path fill="#000000" stroke="#000000" stroke-width="3.0" stroke-linecap="butt" d="m908.3997 89.742645l0.89508057 -4.686493l-5.7719116 7.9992065l9.5633545 -2.4176407z" fill-rule="evenodd"/><path fill="#000000" fill-opacity="0.0" d="m979.5276 41.43307l-46.33075 199.05511" fill-rule="evenodd"/><path stroke="#000000" stroke-width="3.0" stroke-linejoin="round" stroke-linecap="butt" d="m979.5276 41.43307l-44.0 189.04152" fill-rule="evenodd"/><path fill="#000000" stroke="#000000" stroke-width="3.0" stroke-linecap="butt" d="m935.5275 230.4746l-2.5211182 -4.0507355l1.1846313 9.792801l5.387207 -8.263184z" fill-rule="evenodd"/><path fill="#000000" fill-opacity="0.0" d="m979.83185 40.311356l-54.015747 326.2677" fill-rule="evenodd"/><path stroke="#000000" stroke-width="3.0" stroke-linejoin="round" stroke-linecap="butt" d="m979.83185 40.311356l-52.336426 316.1245" fill-rule="evenodd"/><path fill="#000000" stroke="#000000" stroke-width="3.0" stroke-linecap="butt" d="m927.49536 356.43588l-2.7774048 -3.879486l1.8145142 9.695862l4.842407 -8.5937805z" fill-rule="evenodd"/></g></svg>