<svg version="1.1" viewBox="0.0 0.0 1026.3517060367453 462.005249343832" fill="none" stroke="none" stroke-linecap="square" stroke-miterlimit="10" xmlns:xlink="http://www.w3.org/1999/xlink" xmlns="http://www.w3.org/2000/svg"><clipPath id="p.0"><path d="m0 0l1026.3517 0l0 462.00525l-1026.3517 0l0 -462.00525z" clip-rule="nonzero"/></clipPath><g clip-path="url(#p.0)"><path fill="#000000" fill-opacity="0.0" d="m0 0l1026.3517 0l0 462.00525l-1026.3517 0z" fill-rule="evenodd"/><path fill="#000000" fill-opacity="0.0" d="m0.55219 78.10221l145.03937 0l0 71.11811l-145.03937 0z" fill-rule="evenodd"/><path fill="#cccccc" d="m50.93166 78.10221l89.6599 0l0 35.199997l-89.6599 0l0 -35.199997z" fill-rule="nonzero"/><path fill="#000000" fill-opacity="0.0" d="m50.93166 79.712234l89.6599 0l0 33.72448l-89.6599 0l0 -33.72448z" fill-rule="nonzero"/><path fill="#000000" d="m52.24416 99.51221l2.625 -0.21875q0.1875 1.5625 0.859375 2.578125q0.6875 1.015625 2.109375 1.640625q1.4375 0.609375 3.234375 0.609375q1.59375 0 2.796875 -0.46875q1.2187538 -0.46875 1.8125038 -1.28125q0.59375 -0.828125 0.59375 -1.8125q0 -0.984375 -0.578125 -1.71875q-0.5625 -0.734375 -1.8750038 -1.234375q-0.84375 -0.34375 -3.734375 -1.03125q-2.890625 -0.6875 -4.0625 -1.3125q-1.5 -0.78125 -2.234375 -1.953125q-0.734375 -1.171875 -0.734375 -2.609375q0 -1.59375 0.890625 -2.96875q0.90625 -1.390625 2.640625 -2.109375q1.734375 -0.71875 3.859375 -0.71875q2.328125 0 4.109379 0.765625q1.78125 0.75 2.734375 2.21875q0.96875 1.453125 1.046875 3.296875l-2.671875 0.203125q-0.21875 -2.0 -1.453125 -3.015625q-1.2343788 -1.015625 -3.6562538 -1.015625q-2.515625 0 -3.671875 0.921875q-1.15625 0.921875 -1.15625 2.234375q0 1.125 0.8125 1.859375q0.8125 0.734375 4.1875 1.5q3.3906288 0.765625 4.656254 1.328125q1.828125 0.859375 2.703125 2.15625q0.875 1.28125 0.875 2.984375q0 1.671875 -0.96875 3.15625q-0.953125 1.484375 -2.75 2.3125q-1.7968788 0.8125 -4.046879 0.8125q-2.84375 0 -4.78125 -0.828125q-1.921875 -0.828125 -3.015625 -2.5q-1.09375 -1.671875 -1.15625 -3.78125zm20.20226 -11.28125l0 -2.96875l2.578125 0l0 2.96875l-2.578125 0zm0 18.03125l0 -15.203125l2.578125 0l0 15.203125l-2.578125 0zm5.1407776 0l0 -2.09375l9.671875 -11.109375q-1.640625 0.078125 -2.90625 0.078125l-6.203125 0l0 -2.078125l12.4375 0l0 1.703125l-8.234375 9.640625l-1.59375 1.765625q1.734375 -0.125 3.25 -0.125l7.03125 0l0 2.21875l-13.453125 0zm26.429688 -4.890625l2.65625 0.328125q-0.625 2.328125 -2.328125 3.625q-1.703125 1.28125 -4.359375 1.28125q-3.328125 0 -5.28125 -2.046875q-1.953125 -2.0625 -1.953125 -5.765625q0 -3.84375 1.96875 -5.953125q1.984375 -2.125 5.125 -2.125q3.0625 0 4.984375 2.078125q1.9375 2.0625 1.9375 5.84375q0 0.21875 -0.015625 0.671875l-11.34375 0q0.140625 2.515625 1.421875 3.84375q1.28125 1.328125 3.171875 1.328125q1.421875 0 2.421875 -0.734375q1.0 -0.75 1.59375 -2.375zm-8.46875 -4.171875l8.5 0q-0.171875 -1.921875 -0.96875 -2.875q-1.234375 -1.5 -3.203125 -1.5q-1.765625 0 -2.984375 1.1875q-1.203125 1.1875 -1.34375 3.1875zm21.552963 1.453125q0 -4.21875 2.359375 -6.25q1.953125 -1.6875 4.78125 -1.6875q3.125 0 5.1093674 2.0625q2.0 2.046875 2.0 5.671875q0 2.921875 -0.875 4.609375q-0.875 1.6875 -2.5624924 2.625q-1.6875 0.921875 -3.671875 0.921875q-3.203125 0 -5.171875 -2.046875q-1.96875 -2.046875 -1.96875 -5.90625zm2.65625 0q0 2.921875 1.265625 4.375q1.28125 1.453125 3.21875 1.453125q1.921875 0 3.1875 -1.453125q1.2812424 -1.46875 1.2812424 -4.453125q0 -2.828125 -1.2812424 -4.28125q-1.28125 -1.453125 -3.1875 -1.453125q-1.9375 0 -3.21875 1.453125q-1.265625 1.4375 -1.265625 4.359375zm15.23278 7.609375l0 -13.203125l-2.28125 0l0 -2.0l2.28125 0l0 -1.625q0 -1.53125 0.28125 -2.28125q0.359375 -1.0 1.296875 -1.625q0.9375 -0.625 2.640625 -0.625q1.078125 0 2.40625 0.265625l-0.390625 2.25q-0.8125 -0.140625 -1.515625 -0.140625q-1.171875 0 -1.671875 0.5q-0.484375 0.5 -0.484375 1.875l0 1.40625l2.96875 0l0 2.0l-2.96875 0l0 13.203125l-2.5625 0z" fill-rule="nonzero"/><path fill="#000000" fill-opacity="0.0" d="m140.59155 79.712234l8.1483 0l0 33.72448l-8.1483 0l0 -33.72448z" fill-rule="nonzero"/><path fill="#cccccc" d="m5.2353106 113.30221l135.35625 0l0 35.19999l-135.35625 0l0 -35.19999z" fill-rule="nonzero"/><path fill="#000000" fill-opacity="0.0" d="m5.2353106 114.91223l135.35625 0l0 33.724472l-135.35625 0l0 -33.724472z" fill-rule="nonzero"/><path fill="#000000" d="m7.1728106 147.29033l0 -21.03125l2.34375 0l0 1.96875q0.828125 -1.15625 1.875 -1.734375q1.046875 -0.578125 2.53125 -0.578125q1.953125 0 3.437501 1.0q1.5 1.0 2.25 2.828125q0.765625 1.828125 0.765625 4.0q0 2.328125 -0.84375 4.203125q-0.828125 1.875 -2.4375 2.875q-1.593751 0.984375 -3.359376 0.984375q-1.28125 0 -2.3125 -0.546875q-1.015625 -0.546875 -1.671875 -1.375l0 7.40625l-2.578125 0zm2.328125 -13.34375q0 2.9375 1.1875 4.34375q1.1875 1.390625 2.875 1.390625q1.71875 0 2.937501 -1.453125q1.234375 -1.453125 1.234375 -4.5q0 -2.90625 -1.203125 -4.34375q-1.187501 -1.453125 -2.843751 -1.453125q-1.65625 0 -2.921875 1.546875q-1.265625 1.53125 -1.265625 4.46875zm13.014039 -0.09375q0 -4.21875 2.359375 -6.25q1.953125 -1.6875 4.78125 -1.6875q3.124998 0 5.109373 2.0625q2.0 2.046875 2.0 5.671875q0 2.921875 -0.875 4.609375q-0.875 1.6875 -2.5625 2.625q-1.6874981 0.921875 -3.671873 0.921875q-3.203125 0 -5.171875 -2.046875q-1.96875 -2.046875 -1.96875 -5.90625zm2.65625 0q0 2.921875 1.265625 4.375q1.28125 1.453125 3.21875 1.453125q1.921875 0 3.187498 -1.453125q1.28125 -1.46875 1.28125 -4.453125q0 -2.828125 -1.28125 -4.28125q-1.2812481 -1.453125 -3.187498 -1.453125q-1.9375 0 -3.21875 1.453125q-1.265625 1.4375 -1.265625 4.359375zm14.623411 13.4375l0 -21.03125l2.34375 0l0 1.96875q0.828125 -1.15625 1.875 -1.734375q1.046875 -0.578125 2.53125 -0.578125q1.953125 0 3.4375 1.0q1.5 1.0 2.25 2.828125q0.765625 1.828125 0.765625 4.0q0 2.328125 -0.84375 4.203125q-0.828125 1.875 -2.4375 2.875q-1.59375 0.984375 -3.359375 0.984375q-1.28125 0 -2.3125 -0.546875q-1.015625 -0.546875 -1.671875 -1.375l0 7.40625l-2.578125 0zm2.328125 -13.34375q0 2.9375 1.1875 4.34375q1.1875 1.390625 2.875 1.390625q1.71875 0 2.9375 -1.453125q1.234375 -1.453125 1.234375 -4.5q0 -2.90625 -1.203125 -4.34375q-1.1875 -1.453125 -2.84375 -1.453125q-1.65625 0 -2.921875 1.546875q-1.265625 1.53125 -1.265625 4.46875zm23.951542 7.515625l0 -2.234375q-1.78125 2.578125 -4.828129 2.578125q-1.34375 0 -2.515625 -0.515625q-1.171875 -0.515625 -1.734375 -1.296875q-0.5625 -0.78125 -0.796875 -1.90625q-0.15625 -0.765625 -0.15625 -2.40625l0 -9.421875l2.578125 0l0 8.421875q0 2.03125 0.15625 2.734375q0.25 1.015625 1.03125 1.59375q0.796875 0.578125 1.953125 0.578125q1.15625 0 2.171875 -0.59375q1.0156288 -0.59375 1.4375038 -1.609375q0.421875 -1.03125 0.421875 -2.984375l0 -8.140625l2.578125 0l0 15.203125l-2.296875 0zm6.279663 0l0 -21.0l2.578125 0l0 21.0l-2.578125 0zm16.500153 -1.875q-1.4375 1.21875 -2.765625 1.71875q-1.3125 0.5 -2.828125 0.5q-2.515625 0 -3.859375 -1.21875q-1.34375 -1.234375 -1.34375 -3.140625q0 -1.109375 0.5 -2.03125q0.515625 -0.921875 1.328125 -1.484375q0.828125 -0.5625 1.859375 -0.84375q0.765625 -0.203125 2.296875 -0.390625q3.125 -0.375 4.59375 -0.890625q0.015625 -0.53125 0.015625 -0.671875q0 -1.578125 -0.734375 -2.21875q-0.984375 -0.875 -2.9375 -0.875q-1.8125 0 -2.6875 0.640625q-0.859375 0.640625 -1.265625 2.25l-2.53125 -0.34375q0.34375 -1.609375 1.125 -2.609375q0.796875 -1.0 2.28125 -1.53125q1.5 -0.53125 3.453125 -0.53125q1.953125 0 3.171875 0.453125q1.21875 0.453125 1.78125 1.15625q0.578125 0.6875 0.8125 1.75q0.125 0.65625 0.125 2.375l0 3.4375q0 3.59375 0.15625 4.546875q0.171875 0.953125 0.65625 1.828125l-2.6875 0q-0.40625 -0.796875 -0.515625 -1.875zm-0.21875 -5.75q-1.40625 0.5625 -4.203125 0.96875q-1.59375 0.21875 -2.25 0.515625q-0.65625 0.28125 -1.015625 0.84375q-0.359375 0.546875 -0.359375 1.21875q0 1.03125 0.78125 1.71875q0.78125 0.6875 2.28125 0.6875q1.484375 0 2.640625 -0.65625q1.171875 -0.65625 1.71875 -1.78125q0.40625 -0.875 0.40625 -2.578125l0 -0.9375zm12.232788 5.3125l0.375 2.28125q-1.09375 0.234375 -1.953125 0.234375q-1.40625 0 -2.1875 -0.4375q-0.765625 -0.453125 -1.078125 -1.171875q-0.3125 -0.734375 -0.3125 -3.046875l0 -8.75l-1.890625 0l0 -2.0l1.890625 0l0 -3.765625l2.5625 -1.546875l0 5.3125l2.59375 0l0 2.0l-2.59375 0l0 8.890625q0 1.109375 0.125 1.421875q0.140625 0.3125 0.453125 0.5q0.3125 0.1875 0.890625 0.1875q0.421875 0 1.125 -0.109375zm2.5389252 -15.71875l0 -2.96875l2.578125 0l0 2.96875l-2.578125 0zm0 18.03125l0 -15.203125l2.578125 0l0 15.203125l-2.578125 0zm5.5314026 -7.609375q0 -4.21875 2.359375 -6.25q1.953125 -1.6875 4.78125 -1.6875q3.125 0 5.109375 2.0625q2.0 2.046875 2.0 5.671875q0 2.921875 -0.875 4.609375q-0.875 1.6875 -2.5625 2.625q-1.6875 0.921875 -3.671875 0.921875q-3.203125 0 -5.171875 -2.046875q-1.96875 -2.046875 -1.96875 -5.90625zm2.65625 0q0 2.921875 1.265625 4.375q1.28125 1.453125 3.21875 1.453125q1.921875 0 3.1875 -1.453125q1.28125 -1.46875 1.28125 -4.453125q0 -2.828125 -1.28125 -4.28125q-1.28125 -1.453125 -3.1875 -1.453125q-1.9375 0 -3.21875 1.453125q-1.265625 1.4375 -1.265625 4.359375zm14.623413 7.609375l0 -15.203125l2.3124924 0l0 2.15625q1.671875 -2.5 4.84375 -2.5q1.375 0 2.53125 0.5q1.15625 0.484375 1.71875 1.296875q0.578125 0.796875 0.8125 1.890625q0.140625 0.71875 0.140625 2.515625l0 9.34375l-2.578125 0l0 -9.25q0 -1.578125 -0.3125 -2.359375q-0.296875 -0.78125 -1.0625 -1.234375q-0.765625 -0.46875 -1.796875 -0.46875q-1.640625 0 -2.84375 1.046875q-1.1875 1.03125 -1.1875 3.953125l0 8.3125l-2.5781174 0z" fill-rule="nonzero"/><path fill="#000000" fill-opacity="0.0" d="m140.59155 114.91223l0 0l0 33.724472l0 0l0 -33.724472z" fill-rule="nonzero"/><path fill="#000000" fill-opacity="0.0" d="m145.59155 113.66126l84.62993 -70.80315" fill-rule="evenodd"/><path stroke="#000000" stroke-width="3.0" stroke-linejoin="round" stroke-linecap="butt" d="m145.59155 113.66126l76.7444 -64.20596" fill-rule="evenodd"/><path fill="#000000" stroke="#000000" stroke-width="3.0" stroke-linecap="butt" d="m222.33595 49.455303l-0.42276 4.7524376l4.9445343 -8.535446l-9.2742 3.3602486z" fill-rule="evenodd"/><path fill="#000000" fill-opacity="0.0" d="m145.59155 113.66126l94.4252 182.70868" fill-rule="evenodd"/><path stroke="#000000" stroke-width="3.0" stroke-linejoin="round" stroke-linecap="butt" d="m145.59155 113.66126l89.704865 173.57504" fill-rule="evenodd"/><path fill="#000000" stroke="#000000" stroke-width="3.0" stroke-linecap="butt" d="m235.29643 287.2363l-4.546112 -1.4482117l7.2528687 6.685669l-1.2585602 -9.783569z" fill-rule="evenodd"/></g></svg>