<svg version="1.1" viewBox="0.0 0.0 495.8608923884514 473.2782152230971" fill="none" stroke="none" stroke-linecap="square" stroke-miterlimit="10" xmlns:xlink="http://www.w3.org/1999/xlink" xmlns="http://www.w3.org/2000/svg"><clipPath id="p.0"><path d="m0 0l495.8609 0l0 473.27823l-495.8609 0l0 -473.27823z" clip-rule="nonzero"/></clipPath><g clip-path="url(#p.0)"><path fill="#000000" fill-opacity="0.0" d="m0 0l495.8609 0l0 473.27823l-495.8609 0z" fill-rule="evenodd"/><path fill="#741b47" d="m113.64017 117.9642l13.0866165 -32.220474l20.01574 28.062996z" fill-rule="evenodd"/><path fill="#741b47" d="m384.01245 184.57182l19.070892 28.724411l-33.212616 3.0866241z" fill-rule="evenodd"/><path fill="#000000" fill-opacity="0.0" d="m171.30176 285.06598c22.12828 -23.31253 30.816605 -60.45755 30.816605 -93.42644" fill-rule="evenodd"/><path stroke="#741b47" stroke-width="8.0" stroke-linejoin="round" stroke-linecap="butt" d="m171.30176 285.06598c22.12828 -23.31253 30.816605 -60.45755 30.816605 -93.42644" fill-rule="evenodd"/><path fill="#000000" fill-opacity="0.0" d="m202.11813 194.2924c0 -26.91101 -30.309921 -44.510757 -52.198303 -53.01149" fill-rule="evenodd"/><path stroke="#741b47" stroke-width="8.0" stroke-linejoin="round" stroke-linecap="butt" d="m202.11813 194.2924c0 -26.91101 -30.309921 -44.510757 -52.198303 -53.01149" fill-rule="evenodd"/><path fill="#000000" fill-opacity="0.0" d="m153.06952 142.60631c-12.042587 -6.417816 -24.945053 -21.066948 -27.049591 -39.09375" fill-rule="evenodd"/><path stroke="#741b47" stroke-width="8.0" stroke-linejoin="round" stroke-linecap="butt" d="m153.06952 142.60631c-12.042587 -6.417816 -24.945053 -21.066948 -27.049591 -39.09375" fill-rule="evenodd"/><path fill="#000000" fill-opacity="0.0" d="m202.11836 193.62547c9.783707 -62.14479 122.51576 -12.611313 179.248 7.287369" fill-rule="evenodd"/><path stroke="#741b47" stroke-width="8.0" stroke-linejoin="round" stroke-linecap="butt" d="m202.11836 193.62547c9.783707 -62.14479 122.51576 -12.611313 179.248 7.287369" fill-rule="evenodd"/></g></svg>