<svg version="1.1" viewBox="0.0 0.0 1026.3517060367453 462.005249343832" fill="none" stroke="none" stroke-linecap="square" stroke-miterlimit="10" xmlns:xlink="http://www.w3.org/1999/xlink" xmlns="http://www.w3.org/2000/svg"><clipPath id="p.0"><path d="m0 0l1026.3517 0l0 462.00525l-1026.3517 0l0 -462.00525z" clip-rule="nonzero"/></clipPath><g clip-path="url(#p.0)"><path fill="#000000" fill-opacity="0.0" d="m0 0l1026.3517 0l0 462.00525l-1026.3517 0z" fill-rule="evenodd"/><path fill="#cccccc" d="m587.7003 72.1936l74.6142 0l0 35.55906l-74.6142 0z" fill-rule="evenodd"/><path fill="#000000" d="m597.7937 93.60361l2.625 -0.21875q0.1875 1.5625 0.859375 2.578125q0.6875 1.015625 2.109375 1.640625q1.4375 0.609375 3.234375 0.609375q1.59375 0 2.796875 -0.46875q1.21875 -0.46875 1.8125 -1.28125q0.59375 -0.828125 0.59375 -1.8125q0 -0.984375 -0.578125 -1.71875q-0.5625 -0.734375 -1.875 -1.234375q-0.84375 -0.34375 -3.734375 -1.03125q-2.890625 -0.6875 -4.0625 -1.3125q-1.5 -0.78125 -2.234375 -1.953125q-0.734375 -1.171875 -0.734375 -2.609375q0 -1.59375 0.890625 -2.96875q0.90625 -1.390625 2.640625 -2.109375q1.734375 -0.71875 3.859375 -0.71875q2.328125 0 4.109375 0.765625q1.78125 0.75 2.734375 2.21875q0.96875 1.453125 1.046875 3.296875l-2.671875 0.203125q-0.21875 -2.0 -1.453125 -3.015625q-1.234375 -1.015625 -3.65625 -1.015625q-2.515625 0 -3.671875 0.921875q-1.15625 0.921875 -1.15625 2.234375q0 1.125 0.8125 1.859375q0.8125 0.734375 4.1875 1.5q3.390625 0.765625 4.65625 1.328125q1.828125 0.859375 2.703125 2.15625q0.875 1.28125 0.875 2.984375q0 1.671875 -0.96875 3.15625q-0.953125 1.484375 -2.75 2.3125q-1.796875 0.8125 -4.046875 0.8125q-2.84375 0 -4.78125 -0.828125q-1.921875 -0.828125 -3.015625 -2.5q-1.09375 -1.671875 -1.15625 -3.78125zm20.186646 12.578125l0 -21.03125l2.34375 0l0 1.96875q0.828125 -1.15625 1.875 -1.734375q1.046875 -0.578125 2.53125 -0.578125q1.953125 0 3.4375 1.0q1.5 1.0 2.25 2.828125q0.765625 1.828125 0.765625 4.0q0 2.328125 -0.84375 4.203125q-0.828125 1.875 -2.4375 2.875q-1.59375 0.984375 -3.359375 0.984375q-1.28125 0 -2.3125 -0.546875q-1.015625 -0.546875 -1.671875 -1.375l0 7.40625l-2.578125 0zm2.328125 -13.34375q0 2.9375 1.1875 4.34375q1.1875 1.390625 2.875 1.390625q1.71875 0 2.9375 -1.453125q1.234375 -1.453125 1.234375 -4.5q0 -2.90625 -1.203125 -4.34375q-1.1875 -1.453125 -2.84375 -1.453125q-1.65625 0 -2.921875 1.546875q-1.265625 1.53125 -1.265625 4.46875zm13.920288 7.515625l0 -21.0l2.578125 0l0 21.0l-2.578125 0zm6.593872 -18.03125l0 -2.96875l2.578125 0l0 2.96875l-2.578125 0zm0 18.03125l0 -15.203125l2.578125 0l0 15.203125l-2.578125 0zm12.125183 -2.3125l0.375 2.28125q-1.09375 0.234375 -1.953125 0.234375q-1.40625 0 -2.1875 -0.4375q-0.765625 -0.453125 -1.078125 -1.171875q-0.3125 -0.734375 -0.3125 -3.046875l0 -8.75l-1.890625 0l0 -2.0l1.890625 0l0 -3.765625l2.5625 -1.546875l0 5.3125l2.59375 0l0 2.0l-2.59375 0l0 8.890625q0 1.109375 0.125 1.421875q0.140625 0.3125 0.453125 0.5q0.3125 0.1875 0.890625 0.1875q0.421875 0 1.125 -0.109375z" fill-rule="nonzero"/><path fill="#000000" fill-opacity="0.0" d="m625.0074 107.75266l-182.33069 165.6063" fill-rule="evenodd"/><path stroke="#000000" stroke-width="3.0" stroke-linejoin="round" stroke-linecap="butt" d="m625.00745 107.75266l-174.72012 158.69379" fill-rule="evenodd"/><path fill="#000000" stroke="#000000" stroke-width="3.0" stroke-linecap="butt" d="m450.28732 266.44644l0.22906494 -4.765686l-4.5932007 8.729523l9.129852 -3.7347717z" fill-rule="evenodd"/><path fill="#000000" fill-opacity="0.0" d="m625.0074 107.75266l153.51184 92.850395" fill-rule="evenodd"/><path stroke="#000000" stroke-width="3.0" stroke-linejoin="round" stroke-linecap="butt" d="m625.00745 107.75266l144.71448 87.52944" fill-rule="evenodd"/><path fill="#000000" stroke="#000000" stroke-width="3.0" stroke-linecap="butt" d="m769.7219 195.2821l-4.6328125 1.1407318l9.677429 1.9104462l-6.185364 -7.6840057z" fill-rule="evenodd"/></g></svg>