<svg version="1.1" viewBox="0.0 0.0 1026.3517060367453 462.005249343832" fill="none" stroke="none" stroke-linecap="square" stroke-miterlimit="10" xmlns:xlink="http://www.w3.org/1999/xlink" xmlns="http://www.w3.org/2000/svg"><clipPath id="p.0"><path d="m0 0l1026.3517 0l0 462.00525l-1026.3517 0l0 -462.00525z" clip-rule="nonzero"/></clipPath><g clip-path="url(#p.0)"><path fill="#000000" fill-opacity="0.0" d="m0 0l1026.3517 0l0 462.00525l-1026.3517 0z" fill-rule="evenodd"/><path fill="#d9d9d9" d="m587.7022 258.0412l129.00787 0l0 35.55905l-129.00787 0z" fill-rule="evenodd"/><path fill="#000000" d="m594.06775 286.2012l0 -21.0l4.1875 0l4.96875 14.875q0.6875 2.078125 1.0 3.109375q0.359375 -1.15625 1.125 -3.375l5.015625 -14.609375l3.734375 0l0 21.0l-2.671875 0l0 -17.578125l-6.09375 17.578125l-2.515625 0l-6.0625 -17.875l0 17.875l-2.6875 0zm24.211853 -18.03125l0 -2.96875l2.578125 0l0 2.96875l-2.578125 0zm0 18.03125l0 -15.203125l2.578125 0l0 15.203125l-2.578125 0zm6.015747 1.265625l2.515625 0.359375q0.15625 1.171875 0.875 1.703125q0.953125 0.703125 2.609375 0.703125q1.796875 0 2.765625 -0.71875q0.984375 -0.703125 1.328125 -2.0q0.203125 -0.78125 0.1875 -3.296875q-1.703125 1.984375 -4.21875 1.984375q-3.140625 0 -4.859375 -2.265625q-1.71875 -2.265625 -1.71875 -5.421875q0 -2.171875 0.78125 -4.015625q0.796875 -1.84375 2.296875 -2.84375q1.5 -1.0 3.515625 -1.0q2.6875 0 4.4375 2.171875l0 -1.828125l2.375 0l0 13.140625q0 3.546875 -0.71875 5.03125q-0.71875 1.484375 -2.296875 2.34375q-1.5625 0.859375 -3.859375 0.859375q-2.71875 0 -4.390625 -1.234375q-1.671875 -1.21875 -1.625 -3.671875zm2.140625 -9.140625q0 2.984375 1.1875 4.359375q1.1875 1.375 2.984375 1.375q1.765625 0 2.96875 -1.359375q1.203125 -1.375 1.203125 -4.296875q0 -2.78125 -1.234375 -4.203125q-1.234375 -1.421875 -2.984375 -1.421875q-1.71875 0 -2.921875 1.40625q-1.203125 1.390625 -1.203125 4.140625zm14.623413 7.875l0 -15.203125l2.3125 0l0 2.296875q0.890625 -1.609375 1.640625 -2.125q0.75 -0.515625 1.65625 -0.515625q1.3125 0 2.65625 0.828125l-0.890625 2.390625q-0.953125 -0.5625 -1.890625 -0.5625q-0.84375 0 -1.515625 0.515625q-0.671875 0.5 -0.96875 1.40625q-0.421875 1.375 -0.421875 3.0l0 7.96875l-2.578125 0zm19.719604 -1.875q-1.4375 1.21875 -2.765625 1.71875q-1.3125 0.5 -2.828125 0.5q-2.515625 0 -3.859375 -1.21875q-1.34375 -1.234375 -1.34375 -3.140625q0 -1.109375 0.5 -2.03125q0.515625 -0.921875 1.328125 -1.484375q0.828125 -0.5625 1.859375 -0.84375q0.765625 -0.203125 2.296875 -0.390625q3.125 -0.375 4.59375 -0.890625q0.015625 -0.53125 0.015625 -0.671875q0 -1.578125 -0.734375 -2.21875q-0.984375 -0.875 -2.9375 -0.875q-1.8125 0 -2.6875 0.640625q-0.859375 0.640625 -1.265625 2.25l-2.53125 -0.34375q0.34375 -1.609375 1.125 -2.609375q0.796875 -1.0 2.28125 -1.53125q1.5 -0.53125 3.453125 -0.53125q1.953125 0 3.171875 0.453125q1.21875 0.453125 1.78125 1.15625q0.578125 0.6875 0.8125 1.75q0.125 0.65625 0.125 2.375l0 3.4375q0 3.59375 0.15625 4.546875q0.171875 0.953125 0.65625 1.828125l-2.6875 0q-0.40625 -0.796875 -0.515625 -1.875zm-0.21875 -5.75q-1.40625 0.5625 -4.203125 0.96875q-1.59375 0.21875 -2.25 0.515625q-0.65625 0.28125 -1.015625 0.84375q-0.359375 0.546875 -0.359375 1.21875q0 1.03125 0.78125 1.71875q0.78125 0.6875 2.28125 0.6875q1.484375 0 2.640625 -0.65625q1.171875 -0.65625 1.71875 -1.78125q0.40625 -0.875 0.40625 -2.578125l0 -0.9375zm12.232788 5.3125l0.375 2.28125q-1.09375 0.234375 -1.953125 0.234375q-1.40625 0 -2.1875 -0.4375q-0.765625 -0.453125 -1.078125 -1.171875q-0.3125 -0.734375 -0.3125 -3.046875l0 -8.75l-1.890625 0l0 -2.0l1.890625 0l0 -3.765625l2.5625 -1.546875l0 5.3125l2.59375 0l0 2.0l-2.59375 0l0 8.890625q0 1.109375 0.125 1.421875q0.140625 0.3125 0.453125 0.5q0.3125 0.1875 0.890625 0.1875q0.421875 0 1.125 -0.109375zm2.5389404 -15.71875l0 -2.96875l2.578125 0l0 2.96875l-2.578125 0zm0 18.03125l0 -15.203125l2.578125 0l0 15.203125l-2.578125 0zm5.531433 -7.609375q0 -4.21875 2.359375 -6.25q1.953125 -1.6875 4.78125 -1.6875q3.125 0 5.109375 2.0625q2.0 2.046875 2.0 5.671875q0 2.921875 -0.875 4.609375q-0.875 1.6875 -2.5625 2.625q-1.6875 0.921875 -3.671875 0.921875q-3.203125 0 -5.171875 -2.046875q-1.96875 -2.046875 -1.96875 -5.90625zm2.65625 0q0 2.921875 1.265625 4.375q1.28125 1.453125 3.21875 1.453125q1.921875 0 3.1875 -1.453125q1.28125 -1.46875 1.28125 -4.453125q0 -2.828125 -1.28125 -4.28125q-1.28125 -1.453125 -3.1875 -1.453125q-1.9375 0 -3.21875 1.453125q-1.265625 1.4375 -1.265625 4.359375zm14.623413 7.609375l0 -15.203125l2.3125 0l0 2.15625q1.671875 -2.5 4.84375 -2.5q1.375 0 2.53125 0.5q1.15625 0.484375 1.71875 1.296875q0.578125 0.796875 0.8125 1.890625q0.140625 0.71875 0.140625 2.515625l0 9.34375l-2.578125 0l0 -9.25q0 -1.578125 -0.3125 -2.359375q-0.296875 -0.78125 -1.0625 -1.234375q-0.765625 -0.46875 -1.796875 -0.46875q-1.640625 0 -2.84375 1.046875q-1.1875 1.03125 -1.1875 3.953125l0 8.3125l-2.578125 0z" fill-rule="nonzero"/></g></svg>