<?xml version="1.0" encoding="UTF-8" standalone="no"?>
<!-- Created with Inkscape (http://www.inkscape.org/) -->

<svg
   version="1.1"
   id="svg1"
   width="1024"
   height="2100"
   viewBox="0 0 1024 2100"
   sodipodi:docname="generation_1.svg"
   inkscape:version="1.3.2 (1:1.3.2+202311252150+091e20ef0f)"
   xmlns:inkscape="http://www.inkscape.org/namespaces/inkscape"
   xmlns:sodipodi="http://sodipodi.sourceforge.net/DTD/sodipodi-0.dtd"
   xmlns="http://www.w3.org/2000/svg"
   xmlns:svg="http://www.w3.org/2000/svg">
  <defs
     id="defs1" />
  <sodipodi:namedview
     id="namedview1"
     pagecolor="#ffffff"
     bordercolor="#000000"
     borderopacity="0.25"
     inkscape:showpageshadow="2"
     inkscape:pageopacity="0.0"
     inkscape:pagecheckerboard="0"
     inkscape:deskcolor="#d1d1d1"
     inkscape:zoom="0.17707771"
     inkscape:cx="160.94629"
     inkscape:cy="618.37259"
     inkscape:window-width="1223"
     inkscape:window-height="774"
     inkscape:window-x="57"
     inkscape:window-y="26"
     inkscape:window-maximized="1"
     inkscape:current-layer="g1" />
  <g
     inkscape:groupmode="layer"
     inkscape:label="Image"
     id="g1">
    <path
       fill="#000000"
       d="m 339.78028,772.2825 v -20.6648 h 53.38385 v 48.8874 q -7.74929,7.5579 -22.57812,13.2982 -14.73317,5.7401 -29.84903,5.7401 -19.2297,0 -33.5802,-8.0363 -14.3505,-8.1319 -21.52571,-23.1521 -7.17529,-15.0202 -7.17529,-32.7191 0,-19.134 8.03629,-34.0586 8.03627,-14.9245 23.53481,-22.8651 11.76744,-6.1228 29.37071,-6.1228 22.86511,0 35.68488,9.6626 12.81979,9.567 16.55094,26.4049 l -24.58721,4.6879 q -2.67877,-9.0887 -9.85398,-14.2548 -7.07959,-5.2619 -17.79463,-5.2619 -16.26389,0 -25.83088,10.3324 -9.56701,10.2366 -9.56701,30.5187 0,21.8127 9.66264,32.7191 9.75833,10.9064 25.44822,10.9064 7.84493,0 15.59424,-2.9658 7.84494,-3.0614 13.48943,-7.4622 v -15.5942 z m 127.61171,16.8379 23.43918,3.9225 q -4.49653,12.9154 -14.25486,19.708 -9.75834,6.6969 -24.39583,6.6969 -23.24771,0 -34.34543,-15.1159 -8.80164,-12.1501 -8.80164,-30.7101 0,-22.0997 11.48041,-34.5368 11.57603,-12.5328 29.27489,-12.5328 19.80372,0 31.28412,13.1068 11.4804,13.1068 11.00202,40.0857 h -58.9326 q 0.28716,10.5237 5.6445,16.3596 5.45322,5.7402 13.58508,5.7402 5.54886,0 9.27996,-2.9658 3.8268,-3.0615 5.7402,-9.7583 z m 1.33938,-23.7262 q -0.28716,-10.2366 -5.35752,-15.4985 -4.97485,-5.3575 -12.15006,-5.3575 -7.74918,0 -12.72402,5.5488 -5.07054,5.6446 -4.97483,15.3072 z m 123.37841,52.0445 h -23.53481 v -45.3476 q 0,-14.4461 -1.53072,-18.6556 -1.43502,-4.2095 -4.87914,-6.5056 -3.34848,-2.3917 -8.13199,-2.3917 -6.12287,0 -11.00201,3.3485 -4.8792,3.3483 -6.6969,8.8972 -1.72206,5.4532 -1.72206,20.3778 v 40.277 h -23.53483 v -88.8774 h 21.81277 v 13.0111 q 11.67173,-15.0202 29.37065,-15.0202 7.74931,0 14.15916,2.7745 6.50556,2.7743 9.75834,7.1752 3.34848,4.3052 4.59217,9.854 1.33937,5.5489 1.33937,15.7856 z m 134.66747,0 h -26.97893 l -10.71504,-27.8399 h -48.98304 l -10.14102,27.8399 H 603.65 l 47.835,-122.7446 h 26.21358 z M 681.1427,768.8383 664.30478,723.2994 647.6582,768.8383 Z m 58.08366,48.6004 V 694.6941 h 24.77849 v 122.7446 z"
       fill-rule="nonzero"
       id="path395"
       style="stroke-width:6.12287" />
  </g>
</svg>
