<?xml version="1.0" encoding="UTF-8" standalone="no"?>
<svg
   width="432pt"
   height="345.6pt"
   viewBox="0 0 432 345.6"
   version="1.1"
   id="svg332"
   sodipodi:docname="selection_inference_2.svg"
   inkscape:version="1.3.2 (091e20e, 2023-11-25)"
   xmlns:inkscape="http://www.inkscape.org/namespaces/inkscape"
   xmlns:sodipodi="http://sodipodi.sourceforge.net/DTD/sodipodi-0.dtd"
   xmlns:xlink="http://www.w3.org/1999/xlink"
   xmlns="http://www.w3.org/2000/svg"
   xmlns:svg="http://www.w3.org/2000/svg"
   xmlns:rdf="http://www.w3.org/1999/02/22-rdf-syntax-ns#"
   xmlns:cc="http://creativecommons.org/ns#"
   xmlns:dc="http://purl.org/dc/elements/1.1/">
  <sodipodi:namedview
     id="namedview332"
     pagecolor="#ffffff"
     bordercolor="#000000"
     borderopacity="0.25"
     inkscape:showpageshadow="2"
     inkscape:pageopacity="0.0"
     inkscape:pagecheckerboard="0"
     inkscape:deskcolor="#d1d1d1"
     inkscape:document-units="pt"
     inkscape:zoom="0.51215277"
     inkscape:cx="287.02373"
     inkscape:cy="230.4"
     inkscape:window-width="1312"
     inkscape:window-height="449"
     inkscape:window-x="60"
     inkscape:window-y="25"
     inkscape:window-maximized="0"
     inkscape:current-layer="figure_1" />
  <metadata
     id="metadata1">
    <rdf:RDF>
      <cc:Work>
        <dc:type
           rdf:resource="http://purl.org/dc/dcmitype/StillImage" />
        <dc:date>2024-06-30T20:02:23.301532</dc:date>
        <dc:format>image/svg+xml</dc:format>
        <dc:creator>
          <cc:Agent>
            <dc:title>Matplotlib v3.8.0, https://matplotlib.org/</dc:title>
          </cc:Agent>
        </dc:creator>
      </cc:Work>
    </rdf:RDF>
  </metadata>
  <defs
     id="defs1">
    <style
       type="text/css"
       id="style1">*{stroke-linejoin: round; stroke-linecap: butt}</style>
  </defs>
  <g
     id="figure_1">
    <g
       id="axes_2">
      <g
         id="patch_7">
        <path
           d="M 54.11 192.04  L 416.539853 192.04  L 416.539853 137.76  L 54.11 137.76  z "
           style="fill: #ffffff"
           id="path107" />
      </g>
      <g
         id="matplotlib.axis_3">
        <g
           id="xtick_7">
          <g
             id="line2d_26">
            <g
               id="g108">
              <path
                 id="use108"
                 d="m 57.663235,192.03999 v 3.5"
                 style="stroke:#000000;stroke-width:0.8" />
            </g>
          </g>
          <g
             id="text_16">
            <!-- 0.0 -->
            <g
               transform="translate(49.711671 206.638437) scale(0.1 -0.1)"
               id="g111">
              <path
                 id="use109"
                 d="m 31.78125,66.40625 q -7.609375,0 -11.453125,-7.5 Q 16.5,51.421875 16.5,36.375 q 0,-14.984375 3.828125,-22.484375 3.84375,-7.5 11.453125,-7.5 7.671875,0 11.5,7.5 3.84375,7.5 3.84375,22.484375 0,15.046875 -3.84375,22.53125 -3.828125,7.5 -11.5,7.5 z m 0,7.8125 q 12.265625,0 18.734375,-9.703125 6.46875,-9.6875 6.46875,-28.140625 0,-18.40625 -6.46875,-28.109375 -6.46875,-9.6875 -18.734375,-9.6875 -12.25,0 -18.71875,9.6875 Q 6.59375,17.96875 6.59375,36.375 q 0,18.453125 6.46875,28.140625 6.46875,9.703125 18.71875,9.703125 z"
                 style="stroke-width:0.015625" />
              <path
                 id="use110"
                 d="m 74.310547,12.40625 h 10.3125 V 0 h -10.3125 z"
                 style="stroke-width:0.015625" />
              <path
                 id="use111"
                 d="m 127.19141,66.40625 q -7.60938,0 -11.45313,-7.5 -3.82812,-7.484375 -3.82812,-22.53125 0,-14.984375 3.82812,-22.484375 3.84375,-7.5 11.45313,-7.5 7.67187,0 11.5,7.5 3.84375,7.5 3.84375,22.484375 0,15.046875 -3.84375,22.53125 -3.82813,7.5 -11.5,7.5 z m 0,7.8125 q 12.26562,0 18.73437,-9.703125 6.46875,-9.6875 6.46875,-28.140625 0,-18.40625 -6.46875,-28.109375 -6.46875,-9.6875 -18.73437,-9.6875 -12.25,0 -18.71875,9.6875 -6.46875,9.703125 -6.46875,28.109375 0,18.453125 6.46875,28.140625 6.46875,9.703125 18.71875,9.703125 z"
                 style="stroke-width:0.015625" />
            </g>
          </g>
        </g>
        <g
           id="xtick_8">
          <g
             id="line2d_27">
            <g
               id="g112">
              <path
                 id="use112"
                 d="m 128.72791,192.03999 v 3.5"
                 style="stroke:#000000;stroke-width:0.8" />
            </g>
          </g>
          <g
             id="text_17">
            <!-- 0.2 -->
            <g
               transform="translate(120.776348 206.638437) scale(0.1 -0.1)"
               id="g115">
              <path
                 id="use113"
                 d="m 31.78125,66.40625 q -7.609375,0 -11.453125,-7.5 Q 16.5,51.421875 16.5,36.375 q 0,-14.984375 3.828125,-22.484375 3.84375,-7.5 11.453125,-7.5 7.671875,0 11.5,7.5 3.84375,7.5 3.84375,22.484375 0,15.046875 -3.84375,22.53125 -3.828125,7.5 -11.5,7.5 z m 0,7.8125 q 12.265625,0 18.734375,-9.703125 6.46875,-9.6875 6.46875,-28.140625 0,-18.40625 -6.46875,-28.109375 -6.46875,-9.6875 -18.734375,-9.6875 -12.25,0 -18.71875,9.6875 Q 6.59375,17.96875 6.59375,36.375 q 0,18.453125 6.46875,28.140625 6.46875,9.703125 18.71875,9.703125 z"
                 style="stroke-width:0.015625" />
              <path
                 id="use114"
                 d="m 74.310547,12.40625 h 10.3125 V 0 h -10.3125 z"
                 style="stroke-width:0.015625" />
              <path
                 id="use115"
                 d="m 114.59766,8.296875 h 34.42187 V 0 h -46.28125 v 8.296875 q 5.60938,5.8125 15.29688,15.59375 9.70312,9.796875 12.1875,12.640625 4.73437,5.3125 6.60937,9 1.89063,3.6875 1.89063,7.25 0,5.8125 -4.07813,9.46875 -4.07812,3.671875 -10.625,3.671875 -4.64062,0 -9.79687,-1.609375 -5.14063,-1.609375 -11,-4.890625 v 9.96875 q 5.95312,2.390625 11.125,3.609375 5.1875,1.21875 9.48437,1.21875 11.32813,0 18.0625,-5.671875 6.73438,-5.65625 6.73438,-15.125 0,-4.5 -1.6875,-8.53125 -1.67188,-4.015625 -6.125,-9.484375 -1.21875,-1.421875 -7.76563,-8.1875 -6.53125,-6.765625 -18.45312,-18.921875 z"
                 style="stroke-width:0.015625" />
            </g>
          </g>
        </g>
        <g
           id="xtick_9">
          <g
             id="line2d_28">
            <g
               id="g116">
              <path
                 id="use116"
                 d="m 199.79259,192.03999 v 3.5"
                 style="stroke:#000000;stroke-width:0.8" />
            </g>
          </g>
          <g
             id="text_18">
            <!-- 0.4 -->
            <g
               transform="translate(191.841025 206.638437) scale(0.1 -0.1)"
               id="g119">
              <path
                 id="use117"
                 d="m 31.78125,66.40625 q -7.609375,0 -11.453125,-7.5 Q 16.5,51.421875 16.5,36.375 q 0,-14.984375 3.828125,-22.484375 3.84375,-7.5 11.453125,-7.5 7.671875,0 11.5,7.5 3.84375,7.5 3.84375,22.484375 0,15.046875 -3.84375,22.53125 -3.828125,7.5 -11.5,7.5 z m 0,7.8125 q 12.265625,0 18.734375,-9.703125 6.46875,-9.6875 6.46875,-28.140625 0,-18.40625 -6.46875,-28.109375 -6.46875,-9.6875 -18.734375,-9.6875 -12.25,0 -18.71875,9.6875 Q 6.59375,17.96875 6.59375,36.375 q 0,18.453125 6.46875,28.140625 6.46875,9.703125 18.71875,9.703125 z"
                 style="stroke-width:0.015625" />
              <path
                 id="use118"
                 d="m 74.310547,12.40625 h 10.3125 V 0 h -10.3125 z"
                 style="stroke-width:0.015625" />
              <path
                 id="use119"
                 d="M 133.20703,64.3125 108.30078,25.390625 h 24.90625 z m -2.59375,8.59375 h 12.40625 V 25.390625 h 10.40625 V 17.1875 H 143.01953 V 0 h -9.8125 v 17.1875 h -32.90625 v 9.515625 z"
                 style="stroke-width:0.015625" />
            </g>
          </g>
        </g>
        <g
           id="xtick_10">
          <g
             id="line2d_29">
            <g
               id="g120">
              <path
                 id="use120"
                 d="m 270.85727,192.03999 v 3.5"
                 style="stroke:#000000;stroke-width:0.8" />
            </g>
          </g>
          <g
             id="text_19">
            <!-- 0.6 -->
            <g
               transform="translate(262.905702 206.638437) scale(0.1 -0.1)"
               id="g123">
              <path
                 id="use121"
                 d="m 31.78125,66.40625 q -7.609375,0 -11.453125,-7.5 Q 16.5,51.421875 16.5,36.375 q 0,-14.984375 3.828125,-22.484375 3.84375,-7.5 11.453125,-7.5 7.671875,0 11.5,7.5 3.84375,7.5 3.84375,22.484375 0,15.046875 -3.84375,22.53125 -3.828125,7.5 -11.5,7.5 z m 0,7.8125 q 12.265625,0 18.734375,-9.703125 6.46875,-9.6875 6.46875,-28.140625 0,-18.40625 -6.46875,-28.109375 -6.46875,-9.6875 -18.734375,-9.6875 -12.25,0 -18.71875,9.6875 Q 6.59375,17.96875 6.59375,36.375 q 0,18.453125 6.46875,28.140625 6.46875,9.703125 18.71875,9.703125 z"
                 style="stroke-width:0.015625" />
              <path
                 id="use122"
                 d="m 74.310547,12.40625 h 10.3125 V 0 h -10.3125 z"
                 style="stroke-width:0.015625" />
              <path
                 id="use123"
                 d="m 128.42578,40.375 q -6.64062,0 -10.53125,-4.546875 -3.875,-4.53125 -3.875,-12.4375 0,-7.859375 3.875,-12.4375 3.89063,-4.5625 10.53125,-4.5625 6.64063,0 10.51563,4.5625 3.875,4.578125 3.875,12.4375 0,7.90625 -3.875,12.4375 -3.875,4.546875 -10.51563,4.546875 z m 19.57813,30.921875 V 62.3125 q -3.71875,1.75 -7.5,2.671875 -3.78125,0.9375 -7.5,0.9375 -9.76563,0 -14.92188,-6.59375 -5.14062,-6.59375 -5.875,-19.921875 2.875,4.25 7.21875,6.515625 4.35938,2.265625 9.57813,2.265625 10.98437,0 17.35937,-6.671875 6.375,-6.65625 6.375,-18.125 0,-11.234375 -6.64062,-18.03125 -6.64063,-6.78125 -17.67188,-6.78125 -12.65625,0 -19.34375,9.6875 -6.6875,9.703125 -6.6875,28.109375 0,17.28125 8.20313,27.5625 8.20312,10.28125 22.01562,10.28125 3.71875,0 7.5,-0.734375 3.78125,-0.734375 7.89063,-2.1875 z"
                 style="stroke-width:0.015625" />
            </g>
          </g>
        </g>
        <g
           id="xtick_11">
          <g
             id="line2d_30">
            <g
               id="g124">
              <path
                 id="use124"
                 d="m 341.92194,192.03999 v 3.5"
                 style="stroke:#000000;stroke-width:0.8" />
            </g>
          </g>
          <g
             id="text_20">
            <!-- 0.8 -->
            <g
               transform="translate(333.97038 206.638437) scale(0.1 -0.1)"
               id="g127">
              <path
                 id="use125"
                 d="m 31.78125,66.40625 q -7.609375,0 -11.453125,-7.5 Q 16.5,51.421875 16.5,36.375 q 0,-14.984375 3.828125,-22.484375 3.84375,-7.5 11.453125,-7.5 7.671875,0 11.5,7.5 3.84375,7.5 3.84375,22.484375 0,15.046875 -3.84375,22.53125 -3.828125,7.5 -11.5,7.5 z m 0,7.8125 q 12.265625,0 18.734375,-9.703125 6.46875,-9.6875 6.46875,-28.140625 0,-18.40625 -6.46875,-28.109375 -6.46875,-9.6875 -18.734375,-9.6875 -12.25,0 -18.71875,9.6875 Q 6.59375,17.96875 6.59375,36.375 q 0,18.453125 6.46875,28.140625 6.46875,9.703125 18.71875,9.703125 z"
                 style="stroke-width:0.015625" />
              <path
                 id="use126"
                 d="m 74.310547,12.40625 h 10.3125 V 0 h -10.3125 z"
                 style="stroke-width:0.015625" />
              <path
                 id="use127"
                 d="m 127.19141,34.625 q -7.03125,0 -11.0625,-3.765625 -4.01563,-3.765625 -4.01563,-10.34375 0,-6.59375 4.01563,-10.359375 4.03125,-3.765625 11.0625,-3.765625 7.03125,0 11.07812,3.78125 4.0625,3.796875 4.0625,10.34375 0,6.578125 -4.03125,10.34375 Q 134.28516,34.625 127.19141,34.625 Z m -9.85938,4.1875 q -6.34375,1.5625 -9.89062,5.90625 -3.53125,4.359375 -3.53125,10.609375 0,8.734375 6.21875,13.8125 6.23437,5.078125 17.0625,5.078125 10.89062,0 17.09375,-5.078125 6.20312,-5.078125 6.20312,-13.8125 0,-6.25 -3.54687,-10.609375 -3.53125,-4.34375 -9.82813,-5.90625 7.125,-1.65625 11.09375,-6.5 3.98438,-4.828125 3.98438,-11.796875 0,-10.609375 -6.46875,-16.28125 -6.46875,-5.65625 -18.53125,-5.65625 -12.04688,0 -18.53125,5.65625 -6.46875,5.671875 -6.46875,16.28125 0,6.96875 4,11.796875 4.01562,4.84375 11.14062,6.5 z m -3.60937,15.578125 q 0,-5.65625 3.53125,-8.828125 3.54687,-3.171875 9.9375,-3.171875 6.35937,0 9.9375,3.171875 3.59375,3.171875 3.59375,8.828125 0,5.671875 -3.59375,8.84375 -3.57813,3.171875 -9.9375,3.171875 -6.39063,0 -9.9375,-3.171875 -3.53125,-3.171875 -3.53125,-8.84375 z"
                 style="stroke-width:0.015625" />
            </g>
          </g>
        </g>
        <g
           id="xtick_12">
          <g
             id="line2d_31">
            <g
               id="g128">
              <path
                 id="use128"
                 d="m 412.98663,192.03999 v 3.5"
                 style="stroke:#000000;stroke-width:0.8" />
            </g>
          </g>
          <g
             id="text_21">
            <!-- 1.0 -->
            <g
               transform="translate(405.035057 206.638437) scale(0.1 -0.1)"
               id="g131">
              <path
                 id="use129"
                 d="m 12.40625,8.296875 h 16.109375 v 55.625 L 10.984375,60.40625 v 8.984375 l 17.4375,3.515625 H 38.28125 V 8.296875 H 54.390625 V 0 H 12.40625 Z"
                 style="stroke-width:0.015625" />
              <path
                 id="use130"
                 d="m 74.310547,12.40625 h 10.3125 V 0 h -10.3125 z"
                 style="stroke-width:0.015625" />
              <path
                 id="use131"
                 d="m 127.19141,66.40625 q -7.60938,0 -11.45313,-7.5 -3.82812,-7.484375 -3.82812,-22.53125 0,-14.984375 3.82812,-22.484375 3.84375,-7.5 11.45313,-7.5 7.67187,0 11.5,7.5 3.84375,7.5 3.84375,22.484375 0,15.046875 -3.84375,22.53125 -3.82813,7.5 -11.5,7.5 z m 0,7.8125 q 12.26562,0 18.73437,-9.703125 6.46875,-9.6875 6.46875,-28.140625 0,-18.40625 -6.46875,-28.109375 -6.46875,-9.6875 -18.73437,-9.6875 -12.25,0 -18.71875,9.6875 -6.46875,9.703125 -6.46875,28.109375 0,18.453125 6.46875,28.140625 6.46875,9.703125 18.71875,9.703125 z"
                 style="stroke-width:0.015625" />
            </g>
          </g>
        </g>
        <g
           id="text_22">
          <!-- Chromosome -->
          <g
             transform="translate(202.121801 220.316562) scale(0.1 -0.1)"
             id="g141">
            <path
               id="use132"
               d="M 64.40625,67.28125 V 56.890625 q -4.984375,4.640625 -10.625,6.921875 -5.640625,2.296875 -11.984375,2.296875 -12.5,0 -19.140625,-7.640625 -6.640625,-7.640625 -6.640625,-22.09375 0,-14.40625 6.640625,-22.046875 Q 29.296875,6.6875 41.796875,6.6875 q 6.34375,0 11.984375,2.296875 5.640625,2.296875 10.625,6.9375 V 5.609375 Q 59.234375,2.09375 53.4375,0.328125 q -5.78125,-1.75 -12.21875,-1.75 -16.5625,0 -26.09375,10.125 Q 5.609375,18.84375 5.609375,36.375 q 0,17.578125 9.515625,27.703125 9.53125,10.140625 26.09375,10.140625 6.53125,0 12.3125,-1.734375 5.796875,-1.734375 10.875,-5.203125 z"
               style="stroke-width:0.015625" />
            <path
               id="use133"
               d="M 124.71484,33.015625 V 0 h -8.98437 v 32.71875 q 0,7.765625 -3.03125,11.609375 -3.03125,3.859375 -9.07813,3.859375 -7.281246,0 -11.484371,-4.640625 -4.203125,-4.625 -4.203125,-12.640625 V 0 h -9.03125 v 75.984375 h 9.03125 V 46.1875 q 3.234375,4.9375 7.59375,7.375 4.375,2.4375 10.093746,2.4375 9.42188,0 14.25,-5.828125 4.84375,-5.828125 4.84375,-17.15625 z"
               style="stroke-width:0.015625" />
            <path
               id="use134"
               d="m 174.3125,46.296875 q -1.51563,0.875 -3.29688,1.28125 Q 169.23437,48 167.09375,48 159.46875,48 155.39062,43.046875 151.3125,38.09375 151.3125,28.8125 V 0 h -9.03125 v 54.6875 h 9.03125 v -8.5 q 2.84375,4.984375 7.375,7.390625 Q 163.23437,56 169.73437,56 q 0.92188,0 2.04688,-0.125 1.125,-0.109375 2.48437,-0.359375 z"
               style="stroke-width:0.015625" />
            <path
               id="use135"
               d="m 202.67578,48.390625 q -7.21875,0 -11.42187,-5.640625 -4.20313,-5.640625 -4.20313,-15.453125 0,-9.8125 4.17188,-15.453125 4.1875,-5.640625 11.45312,-5.640625 7.1875,0 11.375,5.65625 4.20313,5.671875 4.20313,15.4375 0,9.71875 -4.20313,15.40625 -4.1875,5.6875 -11.375,5.6875 z m 0,7.609375 q 11.71875,0 18.40625,-7.625 6.70313,-7.609375 6.70313,-21.078125 0,-13.421875 -6.70313,-21.078125 -6.6875,-7.640625 -18.40625,-7.640625 -11.76562,0 -18.4375,7.640625 -6.65625,7.65625 -6.65625,21.078125 0,13.46875 6.65625,21.078125 6.67188,7.625 18.4375,7.625 z"
               style="stroke-width:0.015625" />
            <path
               id="use136"
               d="m 285.24805,44.1875 q 3.375,6.0625 8.0625,8.9375 4.6875,2.875 11.03125,2.875 8.54687,0 13.1875,-5.984375 4.64062,-5.96875 4.64062,-17 V 0 h -9.03125 v 32.71875 q 0,7.859375 -2.79687,11.65625 -2.78125,3.8125 -8.48438,3.8125 -6.98437,0 -11.04687,-4.640625 -4.04688,-4.625 -4.04688,-12.640625 V 0 h -9.03125 v 32.71875 q 0,7.90625 -2.78125,11.6875 -2.78125,3.78125 -8.59375,3.78125 -6.89062,0 -10.95312,-4.65625 -4.04688,-4.65625 -4.04688,-12.625 V 0 h -9.03125 v 54.6875 h 9.03125 v -8.5 q 3.07813,5.03125 7.375,7.421875 Q 263.0293,56 268.93555,56 q 5.96875,0 10.14062,-3.03125 4.17188,-3.015625 6.17188,-8.78125 z"
               style="stroke-width:0.015625" />
            <path
               id="use137"
               d="m 361.26953,48.390625 q -7.21875,0 -11.42187,-5.640625 -4.20313,-5.640625 -4.20313,-15.453125 0,-9.8125 4.17188,-15.453125 4.1875,-5.640625 11.45312,-5.640625 7.1875,0 11.375,5.65625 4.20313,5.671875 4.20313,15.4375 0,9.71875 -4.20313,15.40625 -4.1875,5.6875 -11.375,5.6875 z m 0,7.609375 q 11.71875,0 18.40625,-7.625 6.70313,-7.609375 6.70313,-21.078125 0,-13.421875 -6.70313,-21.078125 -6.6875,-7.640625 -18.40625,-7.640625 -11.76562,0 -18.4375,7.640625 -6.65625,7.65625 -6.65625,21.078125 0,13.46875 6.65625,21.078125 6.67188,7.625 18.4375,7.625 z"
               style="stroke-width:0.015625" />
            <path
               id="use138"
               d="m 436.12305,53.078125 v -8.5 Q 432.32617,46.53125 428.2168,47.5 q -4.09375,0.984375 -8.5,0.984375 -6.6875,0 -10.03125,-2.046875 -3.34375,-2.046875 -3.34375,-6.15625 0,-3.125 2.39062,-4.90625 2.39063,-1.78125 9.625,-3.390625 l 3.07813,-0.6875 q 9.5625,-2.046875 13.59375,-5.78125 4.03125,-3.734375 4.03125,-10.421875 0,-7.625 -6.03125,-12.078125 -6.03125,-4.4375 -16.57813,-4.4375 -4.39062,0 -9.15625,0.859375 Q 402.5293,0.296875 397.26367,2 v 9.28125 q 4.98438,-2.59375 9.8125,-3.890625 4.82813,-1.28125 9.57813,-1.28125 6.34375,0 9.75,2.171875 3.42187,2.171875 3.42187,6.125 0,3.65625 -2.46875,5.609375 -2.45312,1.953125 -10.8125,3.765625 l -3.125,0.734375 q -8.34375,1.75 -12.0625,5.390625 -3.70312,3.640625 -3.70312,9.984375 0,7.71875 5.46875,11.90625 Q 408.5918,56 418.6543,56 q 4.96875,0 9.35937,-0.734375 4.40625,-0.71875 8.10938,-2.1875 z"
               style="stroke-width:0.015625" />
            <path
               id="use139"
               d="m 474.55078,48.390625 q -7.21875,0 -11.42187,-5.640625 -4.20313,-5.640625 -4.20313,-15.453125 0,-9.8125 4.17188,-15.453125 4.1875,-5.640625 11.45312,-5.640625 7.1875,0 11.375,5.65625 4.20313,5.671875 4.20313,15.4375 0,9.71875 -4.20313,15.40625 -4.1875,5.6875 -11.375,5.6875 z m 0,7.609375 q 11.71875,0 18.40625,-7.625 6.70313,-7.609375 6.70313,-21.078125 0,-13.421875 -6.70313,-21.078125 -6.6875,-7.640625 -18.40625,-7.640625 -11.76562,0 -18.4375,7.640625 -6.65625,7.65625 -6.65625,21.078125 0,13.46875 6.65625,21.078125 6.67188,7.625 18.4375,7.625 z"
               style="stroke-width:0.015625" />
            <path
               id="use140"
               d="m 557.12305,44.1875 q 3.375,6.0625 8.0625,8.9375 4.6875,2.875 11.03125,2.875 8.54687,0 13.1875,-5.984375 4.64062,-5.96875 4.64062,-17 V 0 h -9.03125 v 32.71875 q 0,7.859375 -2.79687,11.65625 -2.78125,3.8125 -8.48438,3.8125 -6.98437,0 -11.04687,-4.640625 -4.04688,-4.625 -4.04688,-12.640625 V 0 h -9.03125 v 32.71875 q 0,7.90625 -2.78125,11.6875 -2.78125,3.78125 -8.59375,3.78125 -6.89062,0 -10.95312,-4.65625 -4.04688,-4.65625 -4.04688,-12.625 V 0 h -9.03125 v 54.6875 h 9.03125 v -8.5 q 3.07813,5.03125 7.375,7.421875 Q 534.9043,56 540.81055,56 q 5.96875,0 10.14062,-3.03125 4.17188,-3.015625 6.17188,-8.78125 z"
               style="stroke-width:0.015625" />
            <path
               id="use141"
               d="m 658.73828,29.59375 v -4.390625 h -41.3125 q 0.59375,-9.28125 5.59375,-14.140625 5,-4.859375 13.9375,-4.859375 5.17188,0 10.03125,1.265625 4.85938,1.265625 9.65625,3.8125 v -8.5 q -4.84375,-2.046875 -9.92187,-3.125 -5.07813,-1.078125 -10.29688,-1.078125 -13.09375,0 -20.73437,7.609375 -7.64063,7.625 -7.64063,20.625 0,13.421875 7.25,21.296875 Q 622.55078,56 634.86328,56 q 11.03125,0 17.45313,-7.109375 6.42187,-7.09375 6.42187,-19.296875 z m -8.98437,2.640625 q -0.0937,7.359375 -4.125,11.75 -4.03125,4.40625 -10.67188,4.40625 -7.51562,0 -12.03125,-4.25 -4.51562,-4.25 -5.20312,-11.96875 z"
               style="stroke-width:0.015625" />
          </g>
        </g>
        <g
           id="text_23">
          <!-- 1e6 -->
          <g
             transform="translate(397.661728 219.316562) scale(0.1 -0.1)"
             id="g144">
            <path
               id="use142"
               d="m 12.40625,8.296875 h 16.109375 v 55.625 L 10.984375,60.40625 v 8.984375 l 17.4375,3.515625 H 38.28125 V 8.296875 H 54.390625 V 0 H 12.40625 Z"
               style="stroke-width:0.015625" />
            <path
               id="use143"
               d="M 119.82617,29.59375 V 25.203125 H 78.513672 q 0.59375,-9.28125 5.59375,-14.140625 5,-4.859375 13.9375,-4.859375 5.171878,0 10.031248,1.265625 4.85938,1.265625 9.65625,3.8125 v -8.5 q -4.84375,-2.046875 -9.92187,-3.125 -5.07813,-1.078125 -10.296878,-1.078125 -13.09375,0 -20.734375,7.609375 -7.640625,7.625 -7.640625,20.625 0,13.421875 7.25,21.296875 Q 83.638672,56 95.951172,56 q 11.031248,0 17.453128,-7.109375 6.42187,-7.09375 6.42187,-19.296875 z m -8.98437,2.640625 q -0.0937,7.359375 -4.125,11.75 -4.03125,4.40625 -10.671878,4.40625 -7.515625,0 -12.03125,-4.25 -4.515625,-4.25 -5.203125,-11.96875 z"
               style="stroke-width:0.015625" />
            <path
               id="use144"
               d="m 158.16211,40.375 q -6.64063,0 -10.53125,-4.546875 -3.875,-4.53125 -3.875,-12.4375 0,-7.859375 3.875,-12.4375 3.89062,-4.5625 10.53125,-4.5625 6.64062,0 10.51562,4.5625 3.875,4.578125 3.875,12.4375 0,7.90625 -3.875,12.4375 -3.875,4.546875 -10.51562,4.546875 z m 19.57812,30.921875 V 62.3125 q -3.71875,1.75 -7.5,2.671875 -3.78125,0.9375 -7.5,0.9375 -9.76562,0 -14.92187,-6.59375 -5.14063,-6.59375 -5.875,-19.921875 2.875,4.25 7.21875,6.515625 4.35937,2.265625 9.57812,2.265625 10.98438,0 17.35938,-6.671875 6.375,-6.65625 6.375,-18.125 0,-11.234375 -6.64063,-18.03125 -6.64062,-6.78125 -17.67187,-6.78125 -12.65625,0 -19.34375,9.6875 -6.6875,9.703125 -6.6875,28.109375 0,17.28125 8.20312,27.5625 8.20313,10.28125 22.01563,10.28125 3.71875,0 7.5,-0.734375 3.78125,-0.734375 7.89062,-2.1875 z"
               style="stroke-width:0.015625" />
          </g>
        </g>
      </g>
      <g
         id="matplotlib.axis_4">
        <g
           id="ytick_6">
          <g
             id="line2d_32">
            <g
               id="g145">
              <path
                 id="use145"
                 d="m 54.110001,189.57272 h -3.5"
                 style="stroke:#000000;stroke-width:0.8" />
            </g>
          </g>
          <g
             id="text_24">
            <!-- 0.00 -->
            <g
               transform="translate(24.844375 193.371946) scale(0.1 -0.1)"
               id="g149">
              <path
                 id="use146"
                 d="m 31.78125,66.40625 q -7.609375,0 -11.453125,-7.5 Q 16.5,51.421875 16.5,36.375 q 0,-14.984375 3.828125,-22.484375 3.84375,-7.5 11.453125,-7.5 7.671875,0 11.5,7.5 3.84375,7.5 3.84375,22.484375 0,15.046875 -3.84375,22.53125 -3.828125,7.5 -11.5,7.5 z m 0,7.8125 q 12.265625,0 18.734375,-9.703125 6.46875,-9.6875 6.46875,-28.140625 0,-18.40625 -6.46875,-28.109375 -6.46875,-9.6875 -18.734375,-9.6875 -12.25,0 -18.71875,9.6875 Q 6.59375,17.96875 6.59375,36.375 q 0,18.453125 6.46875,28.140625 6.46875,9.703125 18.71875,9.703125 z"
                 style="stroke-width:0.015625" />
              <path
                 id="use147"
                 d="m 74.310547,12.40625 h 10.3125 V 0 h -10.3125 z"
                 style="stroke-width:0.015625" />
              <path
                 id="use148"
                 d="m 127.19141,66.40625 q -7.60938,0 -11.45313,-7.5 -3.82812,-7.484375 -3.82812,-22.53125 0,-14.984375 3.82812,-22.484375 3.84375,-7.5 11.45313,-7.5 7.67187,0 11.5,7.5 3.84375,7.5 3.84375,22.484375 0,15.046875 -3.84375,22.53125 -3.82813,7.5 -11.5,7.5 z m 0,7.8125 q 12.26562,0 18.73437,-9.703125 6.46875,-9.6875 6.46875,-28.140625 0,-18.40625 -6.46875,-28.109375 -6.46875,-9.6875 -18.73437,-9.6875 -12.25,0 -18.71875,9.6875 -6.46875,9.703125 -6.46875,28.109375 0,18.453125 6.46875,28.140625 6.46875,9.703125 18.71875,9.703125 z"
                 style="stroke-width:0.015625" />
              <path
                 id="use149"
                 d="m 190.81445,66.40625 q -7.60937,0 -11.45312,-7.5 -3.82813,-7.484375 -3.82813,-22.53125 0,-14.984375 3.82813,-22.484375 3.84375,-7.5 11.45312,-7.5 7.67188,0 11.5,7.5 3.84375,7.5 3.84375,22.484375 0,15.046875 -3.84375,22.53125 -3.82812,7.5 -11.5,7.5 z m 0,7.8125 q 12.26563,0 18.73438,-9.703125 6.46875,-9.6875 6.46875,-28.140625 0,-18.40625 -6.46875,-28.109375 -6.46875,-9.6875 -18.73438,-9.6875 -12.25,0 -18.71875,9.6875 -6.46875,9.703125 -6.46875,28.109375 0,18.453125 6.46875,28.140625 6.46875,9.703125 18.71875,9.703125 z"
                 style="stroke-width:0.015625" />
            </g>
          </g>
        </g>
        <g
           id="ytick_7">
          <g
             id="line2d_33">
            <g
               id="g150">
              <path
                 id="use150"
                 d="m 54.110001,177.23636 h -3.5"
                 style="stroke:#000000;stroke-width:0.8" />
            </g>
          </g>
          <g
             id="text_25">
            <!-- 0.05 -->
            <g
               transform="translate(24.844375 181.035582) scale(0.1 -0.1)"
               id="g154">
              <path
                 id="use151"
                 d="m 31.78125,66.40625 q -7.609375,0 -11.453125,-7.5 Q 16.5,51.421875 16.5,36.375 q 0,-14.984375 3.828125,-22.484375 3.84375,-7.5 11.453125,-7.5 7.671875,0 11.5,7.5 3.84375,7.5 3.84375,22.484375 0,15.046875 -3.84375,22.53125 -3.828125,7.5 -11.5,7.5 z m 0,7.8125 q 12.265625,0 18.734375,-9.703125 6.46875,-9.6875 6.46875,-28.140625 0,-18.40625 -6.46875,-28.109375 -6.46875,-9.6875 -18.734375,-9.6875 -12.25,0 -18.71875,9.6875 Q 6.59375,17.96875 6.59375,36.375 q 0,18.453125 6.46875,28.140625 6.46875,9.703125 18.71875,9.703125 z"
                 style="stroke-width:0.015625" />
              <path
                 id="use152"
                 d="m 74.310547,12.40625 h 10.3125 V 0 h -10.3125 z"
                 style="stroke-width:0.015625" />
              <path
                 id="use153"
                 d="m 127.19141,66.40625 q -7.60938,0 -11.45313,-7.5 -3.82812,-7.484375 -3.82812,-22.53125 0,-14.984375 3.82812,-22.484375 3.84375,-7.5 11.45313,-7.5 7.67187,0 11.5,7.5 3.84375,7.5 3.84375,22.484375 0,15.046875 -3.84375,22.53125 -3.82813,7.5 -11.5,7.5 z m 0,7.8125 q 12.26562,0 18.73437,-9.703125 6.46875,-9.6875 6.46875,-28.140625 0,-18.40625 -6.46875,-28.109375 -6.46875,-9.6875 -18.73437,-9.6875 -12.25,0 -18.71875,9.6875 -6.46875,9.703125 -6.46875,28.109375 0,18.453125 6.46875,28.140625 6.46875,9.703125 18.71875,9.703125 z"
                 style="stroke-width:0.015625" />
              <path
                 id="use154"
                 d="m 169.83008,72.90625 h 38.71875 v -8.3125 h -29.6875 V 46.734375 q 2.14062,0.734375 4.28125,1.09375 2.15625,0.359375 4.3125,0.359375 12.20312,0 19.32812,-6.6875 7.14063,-6.6875 7.14063,-18.109375 0,-11.765625 -7.32813,-18.296875 -7.32812,-6.515625 -20.65625,-6.515625 -4.59375,0 -9.35937,0.78125 -4.75,0.78125 -9.82813,2.34375 V 11.625 q 4.39063,-2.390625 9.07813,-3.5625 4.6875,-1.171875 9.90625,-1.171875 8.45312,0 13.375,4.4375 4.9375,4.4375 4.9375,12.0625 0,7.609375 -4.9375,12.046875 -4.92188,4.453125 -13.375,4.453125 -3.95313,0 -7.89063,-0.875 -3.92187,-0.875 -8.01562,-2.734375 z"
                 style="stroke-width:0.015625" />
            </g>
          </g>
        </g>
        <g
           id="ytick_8">
          <g
             id="line2d_34">
            <g
               id="g155">
              <path
                 id="use155"
                 d="m 54.110001,164.89999 h -3.5"
                 style="stroke:#000000;stroke-width:0.8" />
            </g>
          </g>
          <g
             id="text_26">
            <!-- 0.10 -->
            <g
               transform="translate(24.844375 168.699219) scale(0.1 -0.1)"
               id="g159">
              <path
                 id="use156"
                 d="m 31.78125,66.40625 q -7.609375,0 -11.453125,-7.5 Q 16.5,51.421875 16.5,36.375 q 0,-14.984375 3.828125,-22.484375 3.84375,-7.5 11.453125,-7.5 7.671875,0 11.5,7.5 3.84375,7.5 3.84375,22.484375 0,15.046875 -3.84375,22.53125 -3.828125,7.5 -11.5,7.5 z m 0,7.8125 q 12.265625,0 18.734375,-9.703125 6.46875,-9.6875 6.46875,-28.140625 0,-18.40625 -6.46875,-28.109375 -6.46875,-9.6875 -18.734375,-9.6875 -12.25,0 -18.71875,9.6875 Q 6.59375,17.96875 6.59375,36.375 q 0,18.453125 6.46875,28.140625 6.46875,9.703125 18.71875,9.703125 z"
                 style="stroke-width:0.015625" />
              <path
                 id="use157"
                 d="m 74.310547,12.40625 h 10.3125 V 0 h -10.3125 z"
                 style="stroke-width:0.015625" />
              <path
                 id="use158"
                 d="m 107.81641,8.296875 h 16.10937 v 55.625 L 106.39453,60.40625 v 8.984375 l 17.4375,3.515625 h 9.85938 V 8.296875 h 16.10937 V 0 h -41.98437 z"
                 style="stroke-width:0.015625" />
              <path
                 id="use159"
                 d="m 190.81445,66.40625 q -7.60937,0 -11.45312,-7.5 -3.82813,-7.484375 -3.82813,-22.53125 0,-14.984375 3.82813,-22.484375 3.84375,-7.5 11.45312,-7.5 7.67188,0 11.5,7.5 3.84375,7.5 3.84375,22.484375 0,15.046875 -3.84375,22.53125 -3.82812,7.5 -11.5,7.5 z m 0,7.8125 q 12.26563,0 18.73438,-9.703125 6.46875,-9.6875 6.46875,-28.140625 0,-18.40625 -6.46875,-28.109375 -6.46875,-9.6875 -18.73438,-9.6875 -12.25,0 -18.71875,9.6875 -6.46875,9.703125 -6.46875,28.109375 0,18.453125 6.46875,28.140625 6.46875,9.703125 18.71875,9.703125 z"
                 style="stroke-width:0.015625" />
            </g>
          </g>
        </g>
        <g
           id="ytick_9">
          <g
             id="line2d_35">
            <g
               id="g160">
              <path
                 id="use160"
                 d="m 54.110001,152.56363 h -3.5"
                 style="stroke:#000000;stroke-width:0.8" />
            </g>
          </g>
          <g
             id="text_27">
            <!-- 0.15 -->
            <g
               transform="translate(24.844375 156.362855) scale(0.1 -0.1)"
               id="g164">
              <path
                 id="use161"
                 d="m 31.78125,66.40625 q -7.609375,0 -11.453125,-7.5 Q 16.5,51.421875 16.5,36.375 q 0,-14.984375 3.828125,-22.484375 3.84375,-7.5 11.453125,-7.5 7.671875,0 11.5,7.5 3.84375,7.5 3.84375,22.484375 0,15.046875 -3.84375,22.53125 -3.828125,7.5 -11.5,7.5 z m 0,7.8125 q 12.265625,0 18.734375,-9.703125 6.46875,-9.6875 6.46875,-28.140625 0,-18.40625 -6.46875,-28.109375 -6.46875,-9.6875 -18.734375,-9.6875 -12.25,0 -18.71875,9.6875 Q 6.59375,17.96875 6.59375,36.375 q 0,18.453125 6.46875,28.140625 6.46875,9.703125 18.71875,9.703125 z"
                 style="stroke-width:0.015625" />
              <path
                 id="use162"
                 d="m 74.310547,12.40625 h 10.3125 V 0 h -10.3125 z"
                 style="stroke-width:0.015625" />
              <path
                 id="use163"
                 d="m 107.81641,8.296875 h 16.10937 v 55.625 L 106.39453,60.40625 v 8.984375 l 17.4375,3.515625 h 9.85938 V 8.296875 h 16.10937 V 0 h -41.98437 z"
                 style="stroke-width:0.015625" />
              <path
                 id="use164"
                 d="m 169.83008,72.90625 h 38.71875 v -8.3125 h -29.6875 V 46.734375 q 2.14062,0.734375 4.28125,1.09375 2.15625,0.359375 4.3125,0.359375 12.20312,0 19.32812,-6.6875 7.14063,-6.6875 7.14063,-18.109375 0,-11.765625 -7.32813,-18.296875 -7.32812,-6.515625 -20.65625,-6.515625 -4.59375,0 -9.35937,0.78125 -4.75,0.78125 -9.82813,2.34375 V 11.625 q 4.39063,-2.390625 9.07813,-3.5625 4.6875,-1.171875 9.90625,-1.171875 8.45312,0 13.375,4.4375 4.9375,4.4375 4.9375,12.0625 0,7.609375 -4.9375,12.046875 -4.92188,4.453125 -13.375,4.453125 -3.95313,0 -7.89063,-0.875 -3.92187,-0.875 -8.01562,-2.734375 z"
                 style="stroke-width:0.015625" />
            </g>
          </g>
        </g>
        <g
           id="ytick_10">
          <g
             id="line2d_36">
            <g
               id="g165">
              <path
                 id="use165"
                 d="m 54.110001,140.22728 h -3.5"
                 style="stroke:#000000;stroke-width:0.8" />
            </g>
          </g>
          <g
             id="text_28">
            <!-- 0.20 -->
            <g
               transform="translate(24.844375 144.026491) scale(0.1 -0.1)"
               id="g169">
              <path
                 id="use166"
                 d="m 31.78125,66.40625 q -7.609375,0 -11.453125,-7.5 Q 16.5,51.421875 16.5,36.375 q 0,-14.984375 3.828125,-22.484375 3.84375,-7.5 11.453125,-7.5 7.671875,0 11.5,7.5 3.84375,7.5 3.84375,22.484375 0,15.046875 -3.84375,22.53125 -3.828125,7.5 -11.5,7.5 z m 0,7.8125 q 12.265625,0 18.734375,-9.703125 6.46875,-9.6875 6.46875,-28.140625 0,-18.40625 -6.46875,-28.109375 -6.46875,-9.6875 -18.734375,-9.6875 -12.25,0 -18.71875,9.6875 Q 6.59375,17.96875 6.59375,36.375 q 0,18.453125 6.46875,28.140625 6.46875,9.703125 18.71875,9.703125 z"
                 style="stroke-width:0.015625" />
              <path
                 id="use167"
                 d="m 74.310547,12.40625 h 10.3125 V 0 h -10.3125 z"
                 style="stroke-width:0.015625" />
              <path
                 id="use168"
                 d="m 114.59766,8.296875 h 34.42187 V 0 h -46.28125 v 8.296875 q 5.60938,5.8125 15.29688,15.59375 9.70312,9.796875 12.1875,12.640625 4.73437,5.3125 6.60937,9 1.89063,3.6875 1.89063,7.25 0,5.8125 -4.07813,9.46875 -4.07812,3.671875 -10.625,3.671875 -4.64062,0 -9.79687,-1.609375 -5.14063,-1.609375 -11,-4.890625 v 9.96875 q 5.95312,2.390625 11.125,3.609375 5.1875,1.21875 9.48437,1.21875 11.32813,0 18.0625,-5.671875 6.73438,-5.65625 6.73438,-15.125 0,-4.5 -1.6875,-8.53125 -1.67188,-4.015625 -6.125,-9.484375 -1.21875,-1.421875 -7.76563,-8.1875 -6.53125,-6.765625 -18.45312,-18.921875 z"
                 style="stroke-width:0.015625" />
              <path
                 id="use169"
                 d="m 190.81445,66.40625 q -7.60937,0 -11.45312,-7.5 -3.82813,-7.484375 -3.82813,-22.53125 0,-14.984375 3.82813,-22.484375 3.84375,-7.5 11.45312,-7.5 7.67188,0 11.5,7.5 3.84375,7.5 3.84375,22.484375 0,15.046875 -3.84375,22.53125 -3.82812,7.5 -11.5,7.5 z m 0,7.8125 q 12.26563,0 18.73438,-9.703125 6.46875,-9.6875 6.46875,-28.140625 0,-18.40625 -6.46875,-28.109375 -6.46875,-9.6875 -18.73438,-9.6875 -12.25,0 -18.71875,9.6875 -6.46875,9.703125 -6.46875,28.109375 0,18.453125 6.46875,28.140625 6.46875,9.703125 18.71875,9.703125 z"
                 style="stroke-width:0.015625" />
            </g>
          </g>
        </g>
        <g
           id="text_29">
          <!-- Selection -->
          <g
             transform="translate(18.764687 187.942969) rotate(-90) scale(0.1 -0.1)"
             id="g178">
            <path
               id="use170"
               d="m 53.515625,70.515625 v -9.625 q -5.609375,2.6875 -10.59375,4 -4.984375,1.328125 -9.625,1.328125 -8.046875,0 -12.421875,-3.125 -4.375,-3.125 -4.375,-8.890625 0,-4.84375 2.90625,-7.3125 2.90625,-2.453125 11.015625,-3.96875 L 36.375,41.703125 Q 47.40625,39.59375 52.65625,34.296875 57.90625,29 57.90625,20.125 q 0,-10.609375 -7.109375,-16.078125 -7.09375,-5.46875 -20.8125,-5.46875 -5.171875,0 -11.015625,1.171875 Q 13.140625,0.921875 6.890625,3.21875 V 13.375 q 6,-3.359375 11.765625,-5.078125 5.765625,-1.703125 11.328125,-1.703125 8.4375,0 13.03125,3.3125 4.59375,3.328125 4.59375,9.484375 0,5.359375 -3.296875,8.390625 Q 41.015625,30.8125 33.5,32.328125 L 27.484375,33.5 q -11.03125,2.1875 -15.96875,6.875 -4.921875,4.6875 -4.921875,13.046875 0,9.671875 6.8125,15.234375 6.8125,5.5625 18.765625,5.5625 5.140625,0 10.453125,-0.9375 5.328125,-0.921875 10.890625,-2.765625 z"
               style="stroke-width:0.015625" />
            <path
               id="use171"
               d="M 119.67969,29.59375 V 25.203125 H 78.367187 q 0.59375,-9.28125 5.59375,-14.140625 5,-4.859375 13.9375,-4.859375 5.171873,0 10.031253,1.265625 4.85937,1.265625 9.65625,3.8125 v -8.5 q -4.84375,-2.046875 -9.92188,-3.125 -5.07812,-1.078125 -10.296873,-1.078125 -13.09375,0 -20.734375,7.609375 -7.640625,7.625 -7.640625,20.625 0,13.421875 7.25,21.296875 Q 83.492187,56 95.804687,56 q 11.031253,0 17.453123,-7.109375 6.42188,-7.09375 6.42188,-19.296875 z m -8.98438,2.640625 q -0.0937,7.359375 -4.125,11.75 -4.03125,4.40625 -10.671873,4.40625 -7.515625,0 -12.03125,-4.25 -4.515625,-4.25 -5.203125,-11.96875 z"
               style="stroke-width:0.015625" />
            <path
               id="use172"
               d="m 134.42187,75.984375 h 8.98438 V 0 h -8.98438 z"
               style="stroke-width:0.015625" />
            <path
               id="use173"
               d="m 208.98633,29.59375 v -4.390625 h -41.3125 q 0.59375,-9.28125 5.59375,-14.140625 5,-4.859375 13.9375,-4.859375 5.17187,0 10.03125,1.265625 4.85937,1.265625 9.65625,3.8125 v -8.5 q -4.84375,-2.046875 -9.92188,-3.125 -5.07812,-1.078125 -10.29687,-1.078125 -13.09375,0 -20.73438,7.609375 -7.64062,7.625 -7.64062,20.625 0,13.421875 7.25,21.296875 Q 172.79883,56 185.11133,56 q 11.03125,0 17.45312,-7.109375 6.42188,-7.09375 6.42188,-19.296875 z m -8.98438,2.640625 q -0.0937,7.359375 -4.125,11.75 -4.03125,4.40625 -10.67187,4.40625 -7.51563,0 -12.03125,-4.25 -4.51563,-4.25 -5.20313,-11.96875 z"
               style="stroke-width:0.015625" />
            <path
               id="use174"
               d="M 263.08789,52.59375 V 44.1875 q -3.8125,2.109375 -7.64062,3.15625 -3.82813,1.046875 -7.73438,1.046875 -8.75,0 -13.59375,-5.546875 -4.82812,-5.53125 -4.82812,-15.546875 0,-10.015625 4.82812,-15.5625 4.84375,-5.53125 13.59375,-5.53125 3.90625,0 7.73438,1.046875 3.82812,1.046875 7.64062,3.15625 v -8.3125 q -3.76562,-1.75 -7.79687,-2.625 -4.01563,-0.890625 -8.5625,-0.890625 -12.35938,0 -19.64063,7.765625 -7.26562,7.765625 -7.26562,20.953125 0,13.375 7.34375,21.03125 Q 234.52539,56 247.32227,56 q 4.14062,0 8.09375,-0.859375 3.95312,-0.84375 7.67187,-2.546875 z"
               style="stroke-width:0.015625" />
            <path
               id="use175"
               d="M 287.59961,70.21875 V 54.6875 h 18.5 v -6.984375 h -18.5 v -29.6875 q 0,-6.6875 1.82812,-8.59375 1.82813,-1.90625 7.45313,-1.90625 h 9.21875 V 0 h -9.21875 q -10.40625,0 -14.35938,3.875 -3.95312,3.890625 -3.95312,14.140625 v 29.6875 h -6.59375 V 54.6875 h 6.59375 v 15.53125 z"
               style="stroke-width:0.015625" />
            <path
               id="use176"
               d="m 317.91797,54.6875 h 8.98437 V 0 h -8.98437 z m 0,21.296875 h 8.98437 V 64.59375 h -8.98437 z"
               style="stroke-width:0.015625" />
            <path
               id="use177"
               d="m 366.88867,48.390625 q -7.21875,0 -11.42187,-5.640625 -4.20313,-5.640625 -4.20313,-15.453125 0,-9.8125 4.17188,-15.453125 4.1875,-5.640625 11.45312,-5.640625 7.1875,0 11.375,5.65625 4.20313,5.671875 4.20313,15.4375 0,9.71875 -4.20313,15.40625 -4.1875,5.6875 -11.375,5.6875 z m 0,7.609375 q 11.71875,0 18.40625,-7.625 6.70313,-7.609375 6.70313,-21.078125 0,-13.421875 -6.70313,-21.078125 -6.6875,-7.640625 -18.40625,-7.640625 -11.76562,0 -18.4375,7.640625 -6.65625,7.65625 -6.65625,21.078125 0,13.46875 6.65625,21.078125 6.67188,7.625 18.4375,7.625 z"
               style="stroke-width:0.015625" />
            <path
               id="use178"
               d="M 452.35156,33.015625 V 0 h -8.98437 v 32.71875 q 0,7.765625 -3.03125,11.609375 -3.03125,3.859375 -9.07813,3.859375 -7.28125,0 -11.48437,-4.640625 -4.20313,-4.625 -4.20313,-12.640625 V 0 h -9.03125 v 54.6875 h 9.03125 v -8.5 q 3.23438,4.9375 7.59375,7.375 4.375,2.4375 10.09375,2.4375 9.42188,0 14.25,-5.828125 4.84375,-5.828125 4.84375,-17.15625 z"
               style="stroke-width:0.015625" />
          </g>
        </g>
      </g>
      <g
         id="line2d_37">
        <path
           d="M 57.663234 192.04  L 57.663234 137.76  "
           clip-path="url(#p54e749800e)"
           style="fill: none; stroke-dasharray: 1.85,0.8; stroke-dashoffset: 0; stroke: #7f7f7f; stroke-width: 0.5"
           id="path178" />
      </g>
      <g
         id="line2d_38">
        <path
           d="M 128.727911 192.04  L 128.727911 137.76  "
           clip-path="url(#p54e749800e)"
           style="fill: none; stroke-dasharray: 1.85,0.8; stroke-dashoffset: 0; stroke: #7f7f7f; stroke-width: 0.5"
           id="path179" />
      </g>
      <g
         id="line2d_39">
        <path
           d="M 199.792588 192.04  L 199.792588 137.76  "
           clip-path="url(#p54e749800e)"
           style="fill: none; stroke-dasharray: 1.85,0.8; stroke-dashoffset: 0; stroke: #7f7f7f; stroke-width: 0.5"
           id="path180" />
      </g>
      <g
         id="line2d_40">
        <path
           d="M 270.857265 192.04  L 270.857265 137.76  "
           clip-path="url(#p54e749800e)"
           style="fill: none; stroke-dasharray: 1.85,0.8; stroke-dashoffset: 0; stroke: #7f7f7f; stroke-width: 0.5"
           id="path181" />
      </g>
      <g
         id="line2d_41">
        <path
           d="M 341.921942 192.04  L 341.921942 137.76  "
           clip-path="url(#p54e749800e)"
           style="fill: none; stroke-dasharray: 1.85,0.8; stroke-dashoffset: 0; stroke: #7f7f7f; stroke-width: 0.5"
           id="path182" />
      </g>
      <g
         id="line2d_42">
        <path
           d="M 412.986619 192.04  L 412.986619 137.76  "
           clip-path="url(#p54e749800e)"
           style="fill: none; stroke-dasharray: 1.85,0.8; stroke-dashoffset: 0; stroke: #7f7f7f; stroke-width: 0.5"
           id="path183" />
      </g>
      <g
         id="line2d_43">
        <path
           d="M 54.11 189.572727  L 416.539853 189.572727  "
           clip-path="url(#p54e749800e)"
           style="fill: none; stroke-dasharray: 1.85,0.8; stroke-dashoffset: 0; stroke: #7f7f7f; stroke-width: 0.5"
           id="path184" />
      </g>
      <g
         id="line2d_44">
        <path
           d="M 54.11 177.236364  L 416.539853 177.236364  "
           clip-path="url(#p54e749800e)"
           style="fill: none; stroke-dasharray: 1.85,0.8; stroke-dashoffset: 0; stroke: #7f7f7f; stroke-width: 0.5"
           id="path185" />
      </g>
      <g
         id="line2d_45">
        <path
           d="M 54.11 164.9  L 416.539853 164.9  "
           clip-path="url(#p54e749800e)"
           style="fill: none; stroke-dasharray: 1.85,0.8; stroke-dashoffset: 0; stroke: #7f7f7f; stroke-width: 0.5"
           id="path186" />
      </g>
      <g
         id="line2d_46">
        <path
           d="M 54.11 152.563636  L 416.539853 152.563636  "
           clip-path="url(#p54e749800e)"
           style="fill: none; stroke-dasharray: 1.85,0.8; stroke-dashoffset: 0; stroke: #7f7f7f; stroke-width: 0.5"
           id="path187" />
      </g>
      <g
         id="line2d_47">
        <path
           d="M 54.11 140.227273  L 416.539853 140.227273  "
           clip-path="url(#p54e749800e)"
           style="fill: none; stroke-dasharray: 1.85,0.8; stroke-dashoffset: 0; stroke: #7f7f7f; stroke-width: 0.5"
           id="path188" />
      </g>
      <g
         id="line2d_48">
        <path
           d="M 235.324926 192.04  L 235.324926 137.76  "
           clip-path="url(#p54e749800e)"
           style="fill: none; stroke-dasharray: 1.85,0.8; stroke-dashoffset: 0; stroke: #d62728; stroke-width: 0.5"
           id="path189" />
      </g>
      <g
         id="line2d_49">
        <path
           d="M 235.324926 154.934781  "
           clip-path="url(#p54e749800e)"
           style="fill: none; stroke: #d62728; stroke-width: 1.5; stroke-linecap: square"
           id="path190" />
        <g
           clip-path="url(#p54e749800e)"
           id="g190">
          <path
             id="use190"
             d="m 235.32492,156.43478 c 0.39781,0 0.77937,-0.15805 1.06066,-0.43934 0.28129,-0.28129 0.43934,-0.66285 0.43934,-1.06066 0,-0.3978 -0.15805,-0.77937 -0.43934,-1.06066 -0.28129,-0.28129 -0.66285,-0.43934 -1.06066,-0.43934 -0.3978,0 -0.77937,0.15805 -1.06066,0.43934 -0.28129,0.28129 -0.43934,0.66286 -0.43934,1.06066 0,0.39781 0.15805,0.77937 0.43934,1.06066 0.28129,0.28129 0.66286,0.43934 1.06066,0.43934 z"
             style="fill:#d62728;stroke:#d62728" />
        </g>
      </g>
      <g
         id="line2d_50">
        <path
           d="M 79.39268 183.471476  L 80.910266 189.572727  L 137.090447 189.572727  L 137.142324 169.869853  L 137.713684 189.572727  L 138.033475 189.572727  L 138.236009 182.181907  L 138.545496 189.572727  L 164.778311 189.572727  L 165.481851 176.835136  L 166.595079 189.572727  L 172.038634 189.572727  L 172.412079 182.888579  L 172.884303 189.572727  L 184.03826 189.572727  L 184.336731 185.204472  L 184.394649 189.572727  L 207.699955 189.572727  L 208.129541 181.56983  L 208.258523 189.572727  L 229.996497 189.572727  L 230.028831 158.706208  L 230.575319 189.572727  L 235.076555 189.572727  L 235.325282 153.542872  L 237.499506 154.133182  L 238.346952 189.572727  L 239.741241 156.525709  L 239.991744 162.264602  L 240.242957 189.572727  L 243.144173 172.018464  L 243.607515 189.572727  L 254.837155 189.572727  L 255.079485 184.40136  L 255.597902 189.572727  L 291.039989 189.572727  L 291.483077 177.161382  L 291.611704 189.572727  L 293.578419 189.572727  L 293.904606 183.318145  L 294.152621 189.572727  L 392.723237 189.572727  L 392.723237 189.572727  "
           clip-path="url(#p54e749800e)"
           style="fill: none; stroke: #1f77b4; stroke-width: 1.5; stroke-linecap: square"
           id="path191" />
      </g>
      <g
         id="patch_8">
        <path
           d="M 54.11 192.04  L 54.11 137.76  "
           style="fill: none; stroke: #000000; stroke-width: 0.8; stroke-linejoin: miter; stroke-linecap: square"
           id="path192" />
      </g>
      <g
         id="patch_9">
        <path
           d="M 416.539853 192.04  L 416.539853 137.76  "
           style="fill: none; stroke: #000000; stroke-width: 0.8; stroke-linejoin: miter; stroke-linecap: square"
           id="path193" />
      </g>
      <g
         id="patch_10">
        <path
           d="M 54.11 192.04  L 416.539853 192.04  "
           style="fill: none; stroke: #000000; stroke-width: 0.8; stroke-linejoin: miter; stroke-linecap: square"
           id="path194" />
      </g>
      <g
         id="patch_11">
        <path
           d="M 54.11 137.76  L 416.539853 137.76  "
           style="fill: none; stroke: #000000; stroke-width: 0.8; stroke-linejoin: miter; stroke-linecap: square"
           id="path195" />
      </g>
      <g
         id="text_30">
        <!-- Timesweeper Prediction -->
        <g
           transform="translate(163.549926 131.76) scale(0.12 -0.12)"
           id="g216">
          <defs
             id="defs195">
            <path
               id="DejaVuSans-54"
               d="M -19 4666  L 3928 4666  L 3928 4134  L 2272 4134  L 2272 0  L 1638 0  L 1638 4134  L -19 4134  L -19 4666  z "
               transform="scale(0.015625)" />
            <path
               id="DejaVuSans-77"
               d="M 269 3500  L 844 3500  L 1563 769  L 2278 3500  L 2956 3500  L 3675 769  L 4391 3500  L 4966 3500  L 4050 0  L 3372 0  L 2619 2869  L 1863 0  L 1184 0  L 269 3500  z "
               transform="scale(0.015625)" />
          </defs>
          <use
             xlink:href="#DejaVuSans-54"
             id="use195" />
          <path
             id="use196"
             d="m 67.380859,54.6875 h 8.984375 V 0 h -8.984375 z m 0,21.296875 h 8.984375 V 64.59375 h -8.984375 z"
             style="stroke-width:0.015625" />
          <path
             id="use197"
             d="m 137.74219,44.1875 q 3.375,6.0625 8.0625,8.9375 4.6875,2.875 11.03125,2.875 8.54687,0 13.1875,-5.984375 4.64062,-5.96875 4.64062,-17 V 0 h -9.03125 v 32.71875 q 0,7.859375 -2.79687,11.65625 -2.78125,3.8125 -8.48438,3.8125 -6.98437,0 -11.04687,-4.640625 -4.04688,-4.625 -4.04688,-12.640625 V 0 h -9.03125 v 32.71875 q 0,7.90625 -2.78125,11.6875 -2.78125,3.78125 -8.59375,3.78125 -6.89062,0 -10.95312,-4.65625 -4.04688,-4.65625 -4.04688,-12.625 V 0 h -9.031248 v 54.6875 h 9.031248 v -8.5 q 3.07813,5.03125 7.375,7.421875 Q 115.52344,56 121.42969,56 q 5.96875,0 10.14062,-3.03125 4.17188,-3.015625 6.17188,-8.78125 z"
             style="stroke-width:0.015625" />
          <path
             id="use198"
             d="m 239.35742,29.59375 v -4.390625 h -41.3125 q 0.59375,-9.28125 5.59375,-14.140625 5,-4.859375 13.9375,-4.859375 5.17188,0 10.03125,1.265625 4.85938,1.265625 9.65625,3.8125 v -8.5 q -4.84375,-2.046875 -9.92187,-3.125 -5.07813,-1.078125 -10.29688,-1.078125 -13.09375,0 -20.73437,7.609375 -7.64063,7.625 -7.64063,20.625 0,13.421875 7.25,21.296875 Q 203.16992,56 215.48242,56 q 11.03125,0 17.45313,-7.109375 6.42187,-7.09375 6.42187,-19.296875 z m -8.98437,2.640625 q -0.0937,7.359375 -4.125,11.75 -4.03125,4.40625 -10.67188,4.40625 -7.51562,0 -12.03125,-4.25 -4.51562,-4.25 -5.20312,-11.96875 z"
             style="stroke-width:0.015625" />
          <path
             id="use199"
             d="m 288.95898,53.078125 v -8.5 q -3.79687,1.953125 -7.90625,2.921875 -4.09375,0.984375 -8.5,0.984375 -6.6875,0 -10.03125,-2.046875 -3.34375,-2.046875 -3.34375,-6.15625 0,-3.125 2.39063,-4.90625 2.39062,-1.78125 9.625,-3.390625 l 3.07812,-0.6875 q 9.5625,-2.046875 13.59375,-5.78125 4.03125,-3.734375 4.03125,-10.421875 0,-7.625 -6.03125,-12.078125 -6.03125,-4.4375 -16.57812,-4.4375 -4.39063,0 -9.15625,0.859375 Q 255.36523,0.296875 250.09961,2 v 9.28125 q 4.98437,-2.59375 9.8125,-3.890625 4.82812,-1.28125 9.57812,-1.28125 6.34375,0 9.75,2.171875 3.42188,2.171875 3.42188,6.125 0,3.65625 -2.46875,5.609375 -2.45313,1.953125 -10.8125,3.765625 l -3.125,0.734375 q -8.34375,1.75 -12.0625,5.390625 -3.70313,3.640625 -3.70313,9.984375 0,7.71875 5.46875,11.90625 Q 261.42773,56 271.49023,56 q 4.96875,0 9.35938,-0.734375 4.40625,-0.71875 8.10937,-2.1875 z"
             style="stroke-width:0.015625" />
          <use
             xlink:href="#DejaVuSans-77"
             x="296.777344"
             id="use200" />
          <path
             id="use201"
             d="m 434.76758,29.59375 v -4.390625 h -41.3125 q 0.59375,-9.28125 5.59375,-14.140625 5,-4.859375 13.9375,-4.859375 5.17187,0 10.03125,1.265625 4.85937,1.265625 9.65625,3.8125 v -8.5 q -4.84375,-2.046875 -9.92188,-3.125 -5.07812,-1.078125 -10.29687,-1.078125 -13.09375,0 -20.73438,7.609375 -7.64062,7.625 -7.64062,20.625 0,13.421875 7.25,21.296875 Q 398.58008,56 410.89258,56 q 11.03125,0 17.45312,-7.109375 6.42188,-7.09375 6.42188,-19.296875 z m -8.98438,2.640625 q -0.0937,7.359375 -4.125,11.75 -4.03125,4.40625 -10.67187,4.40625 -7.51563,0 -12.03125,-4.25 -4.51563,-4.25 -5.20313,-11.96875 z"
             style="stroke-width:0.015625" />
          <path
             id="use202"
             d="m 496.29102,29.59375 v -4.390625 h -41.3125 q 0.59375,-9.28125 5.59375,-14.140625 5,-4.859375 13.9375,-4.859375 5.17187,0 10.03125,1.265625 4.85937,1.265625 9.65625,3.8125 v -8.5 q -4.84375,-2.046875 -9.92188,-3.125 -5.07812,-1.078125 -10.29687,-1.078125 -13.09375,0 -20.73438,7.609375 -7.64062,7.625 -7.64062,20.625 0,13.421875 7.25,21.296875 Q 460.10352,56 472.41602,56 q 11.03125,0 17.45312,-7.109375 6.42188,-7.09375 6.42188,-19.296875 z m -8.98438,2.640625 q -0.0937,7.359375 -4.125,11.75 -4.03125,4.40625 -10.67187,4.40625 -7.51563,0 -12.03125,-4.25 -4.51563,-4.25 -5.20313,-11.96875 z"
             style="stroke-width:0.015625" />
          <path
             id="use203"
             d="m 519.7207,8.203125 v -29 h -9.03125 V 54.6875 h 9.03125 v -8.296875 q 2.84375,4.875 7.15625,7.234375 4.32813,2.375 10.32813,2.375 9.96875,0 16.1875,-7.90625 6.23437,-7.90625 6.23437,-20.796875 0,-12.890625 -6.23437,-20.8125 -6.21875,-7.90625 -16.1875,-7.90625 -6,0 -10.32813,2.375 -4.3125,2.375 -7.15625,7.25 z m 30.57813,19.09375 q 0,9.90625 -4.07813,15.546875 -4.07812,5.640625 -11.20312,5.640625 -7.14063,0 -11.21875,-5.640625 -4.07813,-5.640625 -4.07813,-15.546875 0,-9.90625 4.07813,-15.546875 4.07812,-5.640625 11.21875,-5.640625 7.125,0 11.20312,5.640625 4.07813,5.640625 4.07813,15.546875 z"
             style="stroke-width:0.015625" />
          <path
             id="use204"
             d="m 621.29102,29.59375 v -4.390625 h -41.3125 q 0.59375,-9.28125 5.59375,-14.140625 5,-4.859375 13.9375,-4.859375 5.17187,0 10.03125,1.265625 4.85937,1.265625 9.65625,3.8125 v -8.5 q -4.84375,-2.046875 -9.92188,-3.125 -5.07812,-1.078125 -10.29687,-1.078125 -13.09375,0 -20.73438,7.609375 -7.64062,7.625 -7.64062,20.625 0,13.421875 7.25,21.296875 Q 585.10352,56 597.41602,56 q 11.03125,0 17.45312,-7.109375 6.42188,-7.09375 6.42188,-19.296875 z m -8.98438,2.640625 q -0.0937,7.359375 -4.125,11.75 -4.03125,4.40625 -10.67187,4.40625 -7.51563,0 -12.03125,-4.25 -4.51563,-4.25 -5.20313,-11.96875 z"
             style="stroke-width:0.015625" />
          <path
             id="use205"
             d="m 667.7207,46.296875 q -1.51562,0.875 -3.29687,1.28125 Q 662.64258,48 660.50195,48 652.87695,48 648.79883,43.046875 644.7207,38.09375 644.7207,28.8125 V 0 h -9.03125 v 54.6875 h 9.03125 v -8.5 q 2.84375,4.984375 7.375,7.390625 Q 656.64258,56 663.14258,56 q 0.92187,0 2.04687,-0.125 1.125,-0.109375 2.48438,-0.359375 z"
             style="stroke-width:0.015625" />
          <path
             id="use206"
             d=""
             style="stroke-width:0.015625" />
          <path
             id="use207"
             d="M 719.18359,64.796875 V 37.40625 h 12.40625 q 6.89063,0 10.64063,3.5625 3.76562,3.5625 3.76562,10.15625 0,6.546875 -3.76562,10.109375 -3.75,3.5625 -10.64063,3.5625 z m -9.85937,8.109375 h 22.26562 q 12.26563,0 18.53125,-5.546875 6.28125,-5.546875 6.28125,-16.234375 0,-10.796875 -6.28125,-16.3125 -6.26562,-5.515625 -18.53125,-5.515625 H 719.18359 V 0 h -9.85937 z"
             style="stroke-width:0.015625" />
          <path
             id="use208"
             d="m 799.17383,46.296875 q -1.51563,0.875 -3.29688,1.28125 Q 794.0957,48 791.95508,48 784.33008,48 780.25195,43.046875 776.17383,38.09375 776.17383,28.8125 V 0 h -9.03125 v 54.6875 h 9.03125 v -8.5 q 2.84375,4.984375 7.375,7.390625 Q 788.0957,56 794.5957,56 q 0.92188,0 2.04688,-0.125 1.125,-0.109375 2.48437,-0.359375 z"
             style="stroke-width:0.015625" />
          <path
             id="use209"
             d="m 853.13086,29.59375 v -4.390625 h -41.3125 q 0.59375,-9.28125 5.59375,-14.140625 5,-4.859375 13.9375,-4.859375 5.17187,0 10.03125,1.265625 4.85937,1.265625 9.65625,3.8125 v -8.5 q -4.84375,-2.046875 -9.92188,-3.125 -5.07812,-1.078125 -10.29687,-1.078125 -13.09375,0 -20.73438,7.609375 -7.64062,7.625 -7.64062,20.625 0,13.421875 7.25,21.296875 Q 816.94336,56 829.25586,56 q 11.03125,0 17.45312,-7.109375 6.42188,-7.09375 6.42188,-19.296875 z m -8.98438,2.640625 q -0.0937,7.359375 -4.125,11.75 -4.03125,4.40625 -10.67187,4.40625 -7.51563,0 -12.03125,-4.25 -4.51563,-4.25 -5.20313,-11.96875 z"
             style="stroke-width:0.015625" />
          <path
             id="use210"
             d="m 903.85742,46.390625 v 29.59375 h 8.98438 V 0 h -8.98438 v 8.203125 q -2.82812,-4.875 -7.15625,-7.25 -4.3125,-2.375 -10.375,-2.375 -9.90625,0 -16.14062,7.90625 -6.21875,7.921875 -6.21875,20.8125 0,12.890625 6.21875,20.796875 Q 876.41992,56 886.32617,56 q 6.0625,0 10.375,-2.375 4.32813,-2.359375 7.15625,-7.234375 z m -30.60937,-19.09375 q 0,-9.90625 4.07812,-15.546875 4.07813,-5.640625 11.20313,-5.640625 7.125,0 11.21875,5.640625 4.10937,5.640625 4.10937,15.546875 0,9.90625 -4.10937,15.546875 -4.09375,5.640625 -11.21875,5.640625 -7.125,0 -11.20313,-5.640625 -4.07812,-5.640625 -4.07812,-15.546875 z"
             style="stroke-width:0.015625" />
          <path
             id="use211"
             d="m 931.34961,54.6875 h 8.98437 V 0 h -8.98437 z m 0,21.296875 h 8.98437 V 64.59375 h -8.98437 z"
             style="stroke-width:0.015625" />
          <path
             id="use212"
             d="M 998.49219,52.59375 V 44.1875 q -3.8125,2.109375 -7.64063,3.15625 -3.82812,1.046875 -7.73437,1.046875 -8.75,0 -13.59375,-5.546875 -4.82813,-5.53125 -4.82813,-15.546875 0,-10.015625 4.82813,-15.5625 4.84375,-5.53125 13.59375,-5.53125 3.90625,0 7.73437,1.046875 3.82813,1.046875 7.64063,3.15625 v -8.3125 q -3.76563,-1.75 -7.79688,-2.625 -4.01562,-0.890625 -8.5625,-0.890625 -12.35937,0 -19.64062,7.765625 -7.26563,7.765625 -7.26563,20.953125 0,13.375 7.34375,21.03125 Q 969.92969,56 982.72656,56 q 4.14063,0 8.09375,-0.859375 3.95313,-0.84375 7.67188,-2.546875 z"
             style="stroke-width:0.015625" />
          <path
             id="use213"
             d="M 1023.0039,70.21875 V 54.6875 h 18.5 v -6.984375 h -18.5 v -29.6875 q 0,-6.6875 1.8281,-8.59375 1.8282,-1.90625 7.4532,-1.90625 h 9.2187 V 0 h -9.2187 q -10.4063,0 -14.3594,3.875 -3.9531,3.890625 -3.9531,14.140625 v 29.6875 h -6.5938 V 54.6875 h 6.5938 v 15.53125 z"
             style="stroke-width:0.015625" />
          <path
             id="use214"
             d="m 1053.3223,54.6875 h 8.9843 V 0 h -8.9843 z m 0,21.296875 h 8.9843 V 64.59375 h -8.9843 z"
             style="stroke-width:0.015625" />
          <path
             id="use215"
             d="m 1102.293,48.390625 q -7.2188,0 -11.4219,-5.640625 -4.2031,-5.640625 -4.2031,-15.453125 0,-9.8125 4.1718,-15.453125 4.1875,-5.640625 11.4532,-5.640625 7.1875,0 11.375,5.65625 4.2031,5.671875 4.2031,15.4375 0,9.71875 -4.2031,15.40625 -4.1875,5.6875 -11.375,5.6875 z m 0,7.609375 q 11.7187,0 18.4062,-7.625 6.7031,-7.609375 6.7031,-21.078125 0,-13.421875 -6.7031,-21.078125 -6.6875,-7.640625 -18.4062,-7.640625 -11.7657,0 -18.4375,7.640625 -6.6563,7.65625 -6.6563,21.078125 0,13.46875 6.6563,21.078125 6.6718,7.625 18.4375,7.625 z"
             style="stroke-width:0.015625" />
          <path
             id="use216"
             d="M 1187.7559,33.015625 V 0 h -8.9844 v 32.71875 q 0,7.765625 -3.0313,11.609375 -3.0312,3.859375 -9.0781,3.859375 -7.2812,0 -11.4844,-4.640625 -4.2031,-4.625 -4.2031,-12.640625 V 0 h -9.0312 v 54.6875 h 9.0312 v -8.5 q 3.2344,4.9375 7.5938,7.375 4.375,2.4375 10.0937,2.4375 9.4219,0 14.25,-5.828125 4.8438,-5.828125 4.8438,-17.15625 z"
             style="stroke-width:0.015625" />
        </g>
      </g>
    </g>
  </g>
  <defs
     id="defs332">
    <clipPath
       id="pd0c5baad20">
      <rect
         x="54.11"
         y="26.16"
         width="362.429853"
         height="54.28"
         id="rect330" />
    </clipPath>
    <clipPath
       id="p54e749800e">
      <rect
         x="54.11"
         y="137.76"
         width="362.429853"
         height="54.28"
         id="rect331" />
    </clipPath>
    <clipPath
       id="p696c5854a5">
      <rect
         x="54.11"
         y="249.36"
         width="362.429853"
         height="54.28"
         id="rect332" />
    </clipPath>
  </defs>
</svg>
