<?xml version="1.0" encoding="UTF-8" standalone="no"?>
<svg
   xmlns:osb="http://www.openswatchbook.org/uri/2009/osb"
   xmlns:dc="http://purl.org/dc/elements/1.1/"
   xmlns:cc="http://creativecommons.org/ns#"
   xmlns:rdf="http://www.w3.org/1999/02/22-rdf-syntax-ns#"
   xmlns:svg="http://www.w3.org/2000/svg"
   xmlns="http://www.w3.org/2000/svg"
   xmlns:xlink="http://www.w3.org/1999/xlink"
   xmlns:sodipodi="http://sodipodi.sourceforge.net/DTD/sodipodi-0.dtd"
   xmlns:inkscape="http://www.inkscape.org/namespaces/inkscape"
   height="466.93314pt"
   version="1.1"
   viewBox="0 0 880.00008 466.93313"
   width="880pt"
   id="svg1145"
   sodipodi:docname="3_YRI_CEU_CHB_13_Gut_comp_2_ei.svg"
   inkscape:version="1.0.2 (1.0.2+r75+1)">
  <sodipodi:namedview
     pagecolor="#ffffff"
     bordercolor="#666666"
     borderopacity="1"
     objecttolerance="10"
     gridtolerance="10"
     guidetolerance="10"
     inkscape:pageopacity="0"
     inkscape:pageshadow="2"
     inkscape:window-width="1856"
     inkscape:window-height="1050"
     id="namedview1147"
     showgrid="false"
     inkscape:zoom="0.81996581"
     inkscape:cx="666.535"
     inkscape:cy="213.35382"
     inkscape:window-x="64"
     inkscape:window-y="30"
     inkscape:window-maximized="1"
     inkscape:current-layer="figure_1" />
  <metadata
     id="metadata2">
    <rdf:RDF>
      <cc:Work>
        <dc:type
           rdf:resource="http://purl.org/dc/dcmitype/StillImage" />
        <dc:date>2021-11-29T01:11:38.826578</dc:date>
        <dc:format>image/svg+xml</dc:format>
        <dc:creator>
          <cc:Agent>
            <dc:title>Matplotlib v3.3.4, https://matplotlib.org/</dc:title>
          </cc:Agent>
        </dc:creator>
        <dc:title></dc:title>
      </cc:Work>
    </rdf:RDF>
  </metadata>
  <defs
     id="defs6">
    <marker
       style="overflow:visible"
       id="Arrow1Lstart"
       refX="0"
       refY="0"
       orient="auto"
       inkscape:stockid="Arrow1Lstart"
       inkscape:isstock="true">
      <path
         transform="matrix(0.8,0,0,0.8,10,0)"
         style="fill:#000000;fill-opacity:1;fill-rule:evenodd;stroke:#000000;stroke-width:1pt;stroke-opacity:1"
         d="M 0,0 5,-5 -12.5,0 5,5 Z"
         id="path5165" />
    </marker>
    <marker
       style="overflow:visible"
       id="TriangleInL"
       refX="0"
       refY="0"
       orient="auto"
       inkscape:stockid="TriangleInL"
       inkscape:isstock="true">
      <path
         transform="scale(-0.8)"
         style="fill:#000000;fill-opacity:1;fill-rule:evenodd;stroke:#000000;stroke-width:1pt;stroke-opacity:1"
         d="M 5.77,0 -2.88,5 V -5 Z"
         id="path5298" />
    </marker>
    <linearGradient
       id="linearGradient5157"
       osb:paint="solid">
      <stop
         style="stop-color:#000000;stop-opacity:1;"
         offset="0"
         id="stop5155" />
    </linearGradient>
    <linearGradient
       id="linearGradient3193"
       osb:paint="solid">
      <stop
         style="stop-color:#000000;stop-opacity:1;"
         offset="0"
         id="stop3191" />
    </linearGradient>
    <linearGradient
       id="linearGradient3187"
       osb:paint="solid">
      <stop
         style="stop-color:#000000;stop-opacity:1;"
         offset="0"
         id="stop3185" />
    </linearGradient>
    <linearGradient
       id="linearGradient3181"
       osb:paint="solid">
      <stop
         style="stop-color:#000000;stop-opacity:0;"
         offset="0"
         id="stop3179" />
    </linearGradient>
    <style
       type="text/css"
       id="style4">*{stroke-linecap:butt;stroke-linejoin:round;}</style>
    <defs
       id="defs711">
      <path
         d="M 54.890625,54.6875 35.109375,28.078125 55.90625,0 H 45.3125 L 29.390625,21.484375 13.484375,0 H 2.875 L 24.125,28.609375 4.6875,54.6875 h 10.59375 l 14.5,-19.484375 14.5,19.484375 z"
         id="DejaVuSans-120" />
    </defs>
    <clipPath
       id="p.0">
      <path
         d="M 0,0 H 960 V 720 H 0 Z"
         clip-rule="nonzero"
         id="path2" />
    </clipPath>
    <linearGradient
       inkscape:collect="always"
       xlink:href="#linearGradient3181"
       id="linearGradient3183"
       x1="283.91507"
       y1="-193.35698"
       x2="678.07257"
       y2="-193.35698"
       gradientUnits="userSpaceOnUse"
       gradientTransform="matrix(-0.00252255,-0.09312031,0.36164742,-6.4953044e-4,769.51508,141.76198)" />
    <marker
       style="overflow:visible"
       id="Arrow1Lstart-5"
       refX="0"
       refY="0"
       orient="auto"
       inkscape:stockid="Arrow1Lstart"
       inkscape:isstock="true">
      <path
         transform="matrix(0.8,0,0,0.8,10,0)"
         style="fill:#000000;fill-opacity:1;fill-rule:evenodd;stroke:#000000;stroke-width:1pt;stroke-opacity:1"
         d="M 0,0 5,-5 -12.5,0 5,5 Z"
         id="path5165-3" />
    </marker>
  </defs>
  <g
     id="figure_1">
    <g
       id="patch_1">
      <path
         d="M 0,466.93313 H 1129.9736 V 0 H 0 Z"
         style="fill:none"
         id="path8" />
    </g>
    <g
       id="line2d_30"
       transform="translate(450.80763,0.56772753)" />
    <g
       id="line2d_32"
       transform="translate(450.80763,0.56772753)" />
    <g
       id="line2d_34"
       transform="translate(450.80763,0.56772753)" />
    <path
       id="use735"
       d=""
       style="stroke-width:0.2" />
    <path
       id="use749"
       d=""
       style="stroke-width:0.2" />
    <path
       id="use753"
       d=""
       style="stroke-width:0.2" />
    <g
       id="line2d_36"
       transform="translate(450.80763,0.56772753)" />
    <g
       id="line2d_38"
       transform="translate(450.80763,0.56772753)" />
    <path
       id="use820"
       d=""
       style="stroke-width:0.2" />
    <path
       id="use824"
       d=""
       style="stroke-width:0.2" />
    <path
       id="use842"
       d=""
       style="stroke-width:0.2" />
    <g
       id="g2277"
       transform="matrix(1.1395301,0,0,1.1395301,-107.26892,-26.331712)">
      <path
         d="m 721.20521,87.68462 h 9.21875 v 1.6625 h -7.24688 v 4.315625 h 6.94375 v 1.659375 h -6.94375 v 5.28438 h 7.42188 v 1.65937 h -9.39375 z"
         id="use826"
         style="stroke-width:0.2" />
      <use
         x="688.82617"
         xlink:href="#DejaVuSans-120"
         id="use828"
         y="0"
         width="100%"
         height="100%"
         transform="matrix(0.2,0,0,-0.2,594.11419,102.26587)" />
      <path
         d="m 747.33724,100.62525 v 5.8 h -1.80625 V 91.32837 h 1.80625 v 1.659375 q 0.56875,-0.975 1.43125,-1.446875 0.86562,-0.475 2.06562,-0.475 1.99375,0 3.2375,1.58125 1.24688,1.58125 1.24688,4.159375 0,2.578125 -1.24688,4.162505 -1.24375,1.58125 -3.2375,1.58125 -1.2,0 -2.06562,-0.475 -0.8625,-0.475 -1.43125,-1.45 z m 6.11562,-3.818755 q 0,-1.98125 -0.81562,-3.109375 -0.81563,-1.128125 -2.24063,-1.128125 -1.42812,0 -2.24375,1.128125 -0.81562,1.128125 -0.81562,3.109375 0,1.98125 0.81562,3.109375 0.81563,1.12813 2.24375,1.12813 1.425,0 2.24063,-1.12813 0.81562,-1.128125 0.81562,-3.109375 z"
         id="use830"
         style="stroke-width:0.2" />
      <path
         d="m 767.6513,96.34712 v 0.878125 h -8.2625 q 0.11875,1.85625 1.11875,2.828125 1,0.97188 2.7875,0.97188 1.03437,0 2.00625,-0.25313 0.97187,-0.25312 1.93125,-0.7625 v 1.7 q -0.96875,0.40938 -1.98438,0.625 -1.01562,0.21563 -2.05937,0.21563 -2.61875,0 -4.14688,-1.52188 -1.52812,-1.525 -1.52812,-4.125 0,-2.684375 1.45,-4.259375 1.45,-1.578125 3.9125,-1.578125 2.20625,0 3.49062,1.421875 1.28438,1.41875 1.28438,3.859375 z m -1.79688,-0.528125 q -0.0187,-1.471875 -0.825,-2.35 -0.80625,-0.88125 -2.13437,-0.88125 -1.50313,0 -2.40625,0.85 -0.90313,0.85 -1.04063,2.39375 z"
         id="use832"
         style="stroke-width:0.2" />
      <path
         d="m 778.47161,91.74712 v 1.68125 q -0.7625,-0.421875 -1.52812,-0.63125 -0.76563,-0.209375 -1.54688,-0.209375 -1.75,0 -2.71875,1.109375 -0.96562,1.10625 -0.96562,3.109375 0,2.003125 0.96562,3.1125 0.96875,1.106255 2.71875,1.106255 0.78125,0 1.54688,-0.20938 0.76562,-0.20937 1.52812,-0.63125 v 1.6625 q -0.75312,0.35 -1.55937,0.525 -0.80313,0.17813 -1.7125,0.17813 -2.47188,0 -3.92813,-1.55313 -1.45312,-1.553125 -1.45312,-4.190625 0,-2.675 1.46875,-4.20625 1.47187,-1.534375 4.03125,-1.534375 0.82812,0 1.61875,0.171875 0.79062,0.16875 1.53437,0.509375 z"
         id="use834"
         style="stroke-width:0.2" />
      <path
         d="m 783.37396,88.22212 v 3.10625 h 3.7 v 1.396875 h -3.7 v 5.9375 q 0,1.337505 0.36562,1.718755 0.36563,0.38125 1.49063,0.38125 h 1.84375 v 1.50312 h -1.84375 q -2.08125,0 -2.87188,-0.775 -0.79062,-0.77812 -0.79062,-2.828125 v -5.9375 h -1.31875 V 91.32837 h 1.31875 v -3.10625 z"
         id="use836"
         style="stroke-width:0.2" />
      <path
         d="m 798.79388,96.34712 v 0.878125 h -8.2625 q 0.11875,1.85625 1.11875,2.828125 1,0.97188 2.7875,0.97188 1.03437,0 2.00625,-0.25313 0.97187,-0.25312 1.93125,-0.7625 v 1.7 q -0.96875,0.40938 -1.98438,0.625 -1.01562,0.21563 -2.05937,0.21563 -2.61875,0 -4.14688,-1.52188 -1.52812,-1.525 -1.52812,-4.125 0,-2.684375 1.45,-4.259375 1.45,-1.578125 3.9125,-1.578125 2.20625,0 3.49062,1.421875 1.28438,1.41875 1.28438,3.859375 z M 796.997,95.818995 q -0.0187,-1.471875 -0.825,-2.35 -0.80625,-0.88125 -2.13437,-0.88125 -1.50313,0 -2.40625,0.85 -0.90313,0.85 -1.04063,2.39375 z"
         id="use838"
         style="stroke-width:0.2" />
      <path
         d="m 808.93919,92.987745 v -5.91875 h 1.79687 v 15.196875 h -1.79687 v -1.64062 q -0.56563,0.975 -1.43125,1.45 -0.8625,0.475 -2.075,0.475 -1.98125,0 -3.22813,-1.58125 -1.24375,-1.58438 -1.24375,-4.162505 0,-2.578125 1.24375,-4.159375 1.24688,-1.58125 3.22813,-1.58125 1.2125,0 2.075,0.475 0.86562,0.471875 1.43125,1.446875 z m -6.12188,3.81875 q 0,1.98125 0.81563,3.109375 0.81563,1.12813 2.24062,1.12813 1.425,0 2.24375,-1.12813 0.82188,-1.128125 0.82188,-3.109375 0,-1.98125 -0.82188,-3.109375 -0.81875,-1.128125 -2.24375,-1.128125 -1.42499,0 -2.24062,1.128125 -0.81563,1.128125 -0.81563,3.109375 z"
         id="use840"
         style="stroke-width:0.2" />
      <path
         d="m 722.09254,111.09959 h 1.97188 v 14.58125 h -1.97188 z"
         id="use844"
         style="stroke-width:0.2" />
      <path
         d="m 736.42848,116.84334 q 0.675,-1.2125 1.6125,-1.7875 0.9375,-0.575 2.20625,-0.575 1.70938,0 2.6375,1.19688 0.92813,1.19375 0.92813,3.39999 v 6.60313 h -1.80625 v -6.54375 q 0,-1.57187 -0.55938,-2.33125 -0.55625,-0.7625 -1.69687,-0.7625 -1.39688,0 -2.20938,0.92813 -0.80937,0.925 -0.80937,2.52812 v 6.18125 h -1.80625 v -6.54375 q 0,-1.58125 -0.55625,-2.3375 -0.55625,-0.75625 -1.71875,-0.75625 -1.37813,0 -2.19063,0.93125 -0.80937,0.93125 -0.80937,2.525 v 6.18125 h -1.80625 v -10.9375 h 1.80625 v 1.7 q 0.61562,-1.00625 1.475,-1.48437 0.85937,-0.47813 2.04062,-0.47813 1.19375,0 2.02813,0.60625 0.83437,0.60312 1.23437,1.75625 z"
         id="use846"
         style="stroke-width:0.2" />
      <path
         d="m 749.13278,124.04022 v 5.79999 h -1.80625 v -15.09687 h 1.80625 v 1.65938 q 0.56875,-0.975 1.43125,-1.44688 0.86562,-0.475 2.06562,-0.475 1.99375,0 3.2375,1.58125 1.24688,1.58125 1.24688,4.15938 0,2.57812 -1.24688,4.1625 -1.24375,1.58125 -3.2375,1.58125 -1.2,0 -2.06562,-0.475 -0.8625,-0.47501 -1.43125,-1.45 z m 6.11562,-3.81875 q 0,-1.98125 -0.81562,-3.10938 -0.81563,-1.12813 -2.24063,-1.12813 -1.42812,0 -2.24375,1.12813 -0.81562,1.12813 -0.81562,3.10938 0,1.98124 0.81562,3.10937 0.81563,1.12813 2.24375,1.12813 1.425,0 2.24063,-1.12813 0.81562,-1.12813 0.81562,-3.10937 z"
         id="use848"
         style="stroke-width:0.2" />
      <path
         d="m 766.42809,116.42146 q -0.30312,-0.17499 -0.65937,-0.25624 -0.35625,-0.0844 -0.78438,-0.0844 -1.525,0 -2.34062,0.99063 -0.81563,0.99062 -0.81563,2.84687 v 5.7625 h -1.80625 v -10.9375 h 1.80625 v 1.7 q 0.56875,-0.99687 1.475,-1.47812 0.90938,-0.48438 2.20938,-0.48438 0.18437,0 0.40937,0.025 0.225,0.0219 0.49688,0.0719 z"
         id="use850"
         style="stroke-width:0.2" />
      <path
         d="m 772.10075,116.00271 q -1.44375,0 -2.28438,1.12813 -0.84062,1.12813 -0.84062,3.09063 0,1.9625 0.83437,3.09062 0.8375,1.12813 2.29063,1.12813 1.4375,0 2.275,-1.13125 0.84062,-1.13438 0.84062,-3.0875 0,-1.94375 -0.84062,-3.08126 -0.8375,-1.1375 -2.275,-1.1375 z m 0,-1.52187 q 2.34375,0 3.68125,1.525 1.34062,1.52188 1.34062,4.21563 0,2.68437 -1.34062,4.21562 -1.3375,1.52813 -3.68125,1.52813 -2.35313,0 -3.6875,-1.52813 -1.33125,-1.53125 -1.33125,-4.21562 0,-2.69375 1.33125,-4.21563 1.33437,-1.525 3.6875,-1.525 z"
         id="use852"
         style="stroke-width:0.2" />
      <path
         d="m 778.81208,114.74334 h 1.90312 l 3.41875,9.17812 3.41875,-9.17812 h 1.90313 l -4.10313,10.9375 h -2.44062 z"
         id="use854"
         style="stroke-width:0.2" />
      <path
         d="m 801.29176,119.76209 v 0.87812 h -8.2625 q 0.11875,1.85626 1.11875,2.82813 1,0.97188 2.7875,0.97188 1.03438,0 2.00625,-0.25313 0.97188,-0.25312 1.93125,-0.7625 v 1.7 q -0.96875,0.40938 -1.98437,0.625 -1.01563,0.21563 -2.05938,0.21563 -2.61875,0 -4.14687,-1.52188 -1.52813,-1.525 -1.52813,-4.125 0,-2.68437 1.45,-4.25937 1.45,-1.57813 3.9125,-1.57813 2.20625,0 3.49063,1.42188 1.28437,1.41875 1.28437,3.85937 z m -1.79687,-0.52813 q -0.0188,-1.47187 -0.825,-2.34999 -0.80625,-0.88126 -2.13438,-0.88126 -1.50312,0 -2.40625,0.85001 -0.90312,0.84999 -1.04062,2.39375 z"
         id="use856"
         style="stroke-width:0.2" />
      <path
         d="m 812.75583,116.84334 q 0.675,-1.2125 1.6125,-1.7875 0.9375,-0.575 2.20625,-0.575 1.70937,0 2.6375,1.19688 0.92812,1.19375 0.92812,3.39999 v 6.60313 h -1.80625 v -6.54375 q 0,-1.57187 -0.55937,-2.33125 -0.55625,-0.7625 -1.69688,-0.7625 -1.39687,0 -2.20937,0.92813 -0.80938,0.925 -0.80938,2.52812 v 6.18125 h -1.80625 v -6.54375 q 0,-1.58125 -0.55625,-2.3375 -0.55625,-0.75625 -1.71875,-0.75625 -1.37812,0 -2.19062,0.93125 -0.80938,0.93125 -0.80938,2.525 v 6.18125 h -1.80625 v -10.9375 h 1.80625 v 1.7 q 0.61563,-1.00625 1.475,-1.48437 0.85938,-0.47813 2.04063,-0.47813 1.19375,0 2.02812,0.60625 0.83438,0.60312 1.23438,1.75625 z"
         id="use858"
         style="stroke-width:0.2" />
      <path
         d="m 833.07887,119.76209 v 0.87812 h -8.2625 q 0.11875,1.85626 1.11875,2.82813 1,0.97188 2.7875,0.97188 1.03438,0 2.00625,-0.25313 0.97188,-0.25312 1.93125,-0.7625 v 1.7 q -0.96875,0.40938 -1.98437,0.625 -1.01563,0.21563 -2.05938,0.21563 -2.61875,0 -4.14687,-1.52188 -1.52813,-1.525 -1.52813,-4.125 0,-2.68437 1.45,-4.25937 1.45,-1.57813 3.9125,-1.57813 2.20625,0 3.49063,1.42188 1.28437,1.41875 1.28437,3.85937 z m -1.79687,-0.52813 q -0.0188,-1.47187 -0.825,-2.34999 -0.80625,-0.88126 -2.13438,-0.88126 -1.50312,0 -2.40625,0.85001 -0.90312,0.84999 -1.04062,2.39375 z"
         id="use860"
         style="stroke-width:0.2" />
      <path
         d="m 845.12106,119.07771 v 6.60313 h -1.79687 v -6.54375 q 0,-1.55312 -0.60625,-2.32187 -0.60625,-0.77188 -1.81563,-0.77188 -1.45625,0 -2.29687,0.92813 -0.84063,0.925 -0.84063,2.52812 v 6.18125 h -1.80625 v -10.9375 h 1.80625 v 1.7 q 0.64688,-0.9875 1.51875,-1.475 0.875,-0.4875 2.01875,-0.4875 1.88438,0 2.85,1.16563 0.96875,1.16562 0.96875,3.43124 z"
         id="use862"
         style="stroke-width:0.2" />
      <path
         d="m 850.48122,111.63709 v 3.10625 h 3.7 v 1.39687 h -3.7 v 5.9375 q 0,1.33751 0.36562,1.71875 0.36563,0.38126 1.49063,0.38126 h 1.84375 v 1.50312 h -1.84375 q -2.08125,0 -2.87188,-0.775 -0.79062,-0.77812 -0.79062,-2.82813 v -5.9375 h -1.31875 v -1.39687 h 1.31875 v -3.10625 z"
         id="use864"
         style="stroke-width:0.2" />
    </g>
    <g
       id="line2d_40"
       transform="translate(450.80763,0.56772753)" />
    <g
       id="line2d_42"
       transform="translate(450.80763,0.56772753)" />
    <g
       id="line2d_44"
       transform="translate(450.80763,0.56772753)" />
    <g
       id="line2d_46"
       transform="translate(450.80763,0.56772753)" />
    <g
       id="line2d_48"
       transform="translate(450.80763,0.56772753)" />
    <g
       id="line2d_50"
       transform="translate(450.80763,0.56772753)" />
    <g
       id="line2d_52"
       transform="translate(450.80763,0.56772753)" />
    <path
       fill="#000000"
       fill-opacity="0"
       d="M 250.00562,-254.2434 H 970.00563 V 285.75661 H 250.00562 Z"
       fill-rule="evenodd"
       id="path5"
       style="stroke-width:0.75" />
    <path
       fill="#000000"
       fill-opacity="0"
       d="m 675.07255,-220.50127 c 0,14.17458 -11.49079,25.66535 -25.66534,25.66535 H 506.65914 c -14.17458,0 -25.66534,11.49077 -25.66534,25.66535 v 0 c 0,-14.17458 -11.49076,-25.66535 -25.66535,-25.66535 H 312.58041 v 0 c -14.17459,0 -25.66535,-11.49077 -25.66535,-25.66535 z"
       fill-rule="evenodd"
       id="path7"
       style="stroke-width:0.75" />
    <path
       fill="#000000"
       fill-opacity="0"
       d="m 675.07255,-220.50127 c 0,14.17458 -11.49079,25.66535 -25.66534,25.66535 H 506.65914 c -14.17458,0 -25.66534,11.49077 -25.66534,25.66535 v 0 c 0,-14.17458 -11.49076,-25.66535 -25.66535,-25.66535 H 312.58041 v 0 c -14.17459,0 -25.66535,-11.49077 -25.66535,-25.66535"
       fill-rule="evenodd"
       id="path9"
       style="stroke-width:0.75" />
    <path
       stroke="#000000"
       stroke-width="1.43428"
       stroke-linejoin="round"
       stroke-linecap="butt"
       d="m 688.06848,79.042236 c 5.12619,-0.0092 9.31078,1.053357 9.34655,2.373294 l 0.36009,13.292753 c 0.0358,1.319937 4.22034,2.382497 9.34654,2.373277 v 0 c -5.1262,0.009 -9.25282,1.08671 -9.21706,2.40664 l 0.36009,13.29275 v 0 c 0.0358,1.31995 -4.09087,2.39743 -9.21707,2.40664"
       fill-rule="evenodd"
       id="path11-6"
       style="fill:url(#linearGradient3183);fill-opacity:1;stroke-width:2.32211;stroke-miterlimit:4;stroke-dasharray:none" />
    <path
       fill="#000000"
       fill-opacity="0"
       d="M 534.13162,268.29991 V -94.605613"
       fill-rule="evenodd"
       id="path13"
       style="stroke-width:0.75" />
  </g>
  <defs
     id="defs1143">
    <clipPath
       id="p8cb231a05e">
      <rect
         height="380.51999"
         width="558"
         x="123.43607"
         y="31.436251"
         id="rect1140" />
    </clipPath>
  </defs>
</svg>
