<?xml version="1.0" encoding="UTF-8" standalone="no"?>
<svg
   xmlns:osb="http://www.openswatchbook.org/uri/2009/osb"
   xmlns:dc="http://purl.org/dc/elements/1.1/"
   xmlns:cc="http://creativecommons.org/ns#"
   xmlns:rdf="http://www.w3.org/1999/02/22-rdf-syntax-ns#"
   xmlns:svg="http://www.w3.org/2000/svg"
   xmlns="http://www.w3.org/2000/svg"
   xmlns:xlink="http://www.w3.org/1999/xlink"
   xmlns:sodipodi="http://sodipodi.sourceforge.net/DTD/sodipodi-0.dtd"
   xmlns:inkscape="http://www.inkscape.org/namespaces/inkscape"
   height="466.93314pt"
   version="1.1"
   viewBox="0 0 880.00008 466.93313"
   width="880pt"
   id="svg1145"
   sodipodi:docname="3_YRI_CEU_CHB_13_Gut_comp_3_exp.svg"
   inkscape:version="1.0.2 (1.0.2+r75+1)">
  <sodipodi:namedview
     pagecolor="#ffffff"
     bordercolor="#666666"
     borderopacity="1"
     objecttolerance="10"
     gridtolerance="10"
     guidetolerance="10"
     inkscape:pageopacity="0"
     inkscape:pageshadow="2"
     inkscape:window-width="1856"
     inkscape:window-height="1050"
     id="namedview1147"
     showgrid="false"
     inkscape:zoom="0.72070572"
     inkscape:cx="450.35094"
     inkscape:cy="74.057802"
     inkscape:window-x="64"
     inkscape:window-y="30"
     inkscape:window-maximized="1"
     inkscape:current-layer="figure_1"
     inkscape:document-rotation="0" />
  <metadata
     id="metadata2">
    <rdf:RDF>
      <cc:Work>
        <dc:type
           rdf:resource="http://purl.org/dc/dcmitype/StillImage" />
        <dc:date>2021-11-29T01:11:38.826578</dc:date>
        <dc:format>image/svg+xml</dc:format>
        <dc:creator>
          <cc:Agent>
            <dc:title>Matplotlib v3.3.4, https://matplotlib.org/</dc:title>
          </cc:Agent>
        </dc:creator>
        <dc:title></dc:title>
      </cc:Work>
    </rdf:RDF>
  </metadata>
  <defs
     id="defs6">
    <marker
       style="overflow:visible"
       id="Arrow1Lstart"
       refX="0"
       refY="0"
       orient="auto"
       inkscape:stockid="Arrow1Lstart"
       inkscape:isstock="true">
      <path
         transform="matrix(0.8,0,0,0.8,10,0)"
         style="fill:#000000;fill-opacity:1;fill-rule:evenodd;stroke:#000000;stroke-width:1pt;stroke-opacity:1"
         d="M 0,0 5,-5 -12.5,0 5,5 Z"
         id="path5165" />
    </marker>
    <marker
       style="overflow:visible"
       id="TriangleInL"
       refX="0"
       refY="0"
       orient="auto"
       inkscape:stockid="TriangleInL"
       inkscape:isstock="true">
      <path
         transform="scale(-0.8)"
         style="fill:#000000;fill-opacity:1;fill-rule:evenodd;stroke:#000000;stroke-width:1pt;stroke-opacity:1"
         d="M 5.77,0 -2.88,5 V -5 Z"
         id="path5298" />
    </marker>
    <linearGradient
       id="linearGradient5157"
       osb:paint="solid">
      <stop
         style="stop-color:#000000;stop-opacity:1;"
         offset="0"
         id="stop5155" />
    </linearGradient>
    <linearGradient
       id="linearGradient3193"
       osb:paint="solid">
      <stop
         style="stop-color:#000000;stop-opacity:1;"
         offset="0"
         id="stop3191" />
    </linearGradient>
    <linearGradient
       id="linearGradient3187"
       osb:paint="solid">
      <stop
         style="stop-color:#000000;stop-opacity:1;"
         offset="0"
         id="stop3185" />
    </linearGradient>
    <linearGradient
       id="linearGradient3181"
       osb:paint="solid">
      <stop
         style="stop-color:#000000;stop-opacity:0;"
         offset="0"
         id="stop3179" />
    </linearGradient>
    <style
       type="text/css"
       id="style4">*{stroke-linecap:butt;stroke-linejoin:round;}</style>
    <defs
       id="defs711">
      <path
         d="M 54.890625,54.6875 35.109375,28.078125 55.90625,0 H 45.3125 L 29.390625,21.484375 13.484375,0 H 2.875 L 24.125,28.609375 4.6875,54.6875 h 10.59375 l 14.5,-19.484375 14.5,19.484375 z"
         id="DejaVuSans-120" />
    </defs>
    <clipPath
       id="p.0">
      <path
         d="M 0,0 H 960 V 720 H 0 Z"
         clip-rule="nonzero"
         id="path2" />
    </clipPath>
    <marker
       style="overflow:visible"
       id="Arrow1Lstart-5"
       refX="0"
       refY="0"
       orient="auto"
       inkscape:stockid="Arrow1Lstart"
       inkscape:isstock="true">
      <path
         transform="matrix(0.8,0,0,0.8,10,0)"
         style="fill:#000000;fill-opacity:1;fill-rule:evenodd;stroke:#000000;stroke-width:1pt;stroke-opacity:1"
         d="M 0,0 5,-5 -12.5,0 5,5 Z"
         id="path5165-3" />
    </marker>
  </defs>
  <g
     id="figure_1">
    <g
       id="patch_1">
      <path
         d="M 0,466.93313 H 1129.9736 V 0 H 0 Z"
         style="fill:none"
         id="path8" />
    </g>
    <g
       id="line2d_30"
       transform="translate(450.80763,0.56772753)" />
    <g
       id="line2d_32"
       transform="translate(450.80763,0.56772753)" />
    <g
       id="line2d_34"
       transform="translate(450.80763,0.56772753)" />
    <path
       id="use735"
       d=""
       style="stroke-width:0.2" />
    <g
       id="g2313"
       transform="matrix(1.1395301,0,0,1.1395301,-530.91821,37.447285)">
      <path
         d="m 769.77092,253.79788 h 9.21875 v 1.6625 h -7.24688 v 4.31562 h 6.94375 v 1.65938 h -6.94375 v 5.28437 h 7.42188 v 1.65938 h -9.39375 z"
         id="use713"
         style="stroke-width:0.2" />
      <use
         x="63.183594"
         xlink:href="#DejaVuSans-120"
         id="use715"
         y="0"
         width="100%"
         height="100%"
         transform="matrix(0.2,0,0,-0.2,767.80842,268.37913)" />
      <path
         d="m 795.90295,266.7385 v 5.8 h -1.80625 v -15.09687 h 1.80625 v 1.65937 q 0.56875,-0.975 1.43125,-1.44687 0.86563,-0.475 2.06563,-0.475 1.99375,0 3.2375,1.58125 1.24687,1.58125 1.24687,4.15937 0,2.57813 -1.24687,4.1625 -1.24375,1.58125 -3.2375,1.58125 -1.2,0 -2.06563,-0.475 -0.8625,-0.475 -1.43125,-1.45 z m 6.11563,-3.81875 q 0,-1.98125 -0.81563,-3.10937 -0.81562,-1.12813 -2.24062,-1.12813 -1.42813,0 -2.24375,1.12813 -0.81563,1.12812 -0.81563,3.10937 0,1.98125 0.81563,3.10938 0.81562,1.12812 2.24375,1.12812 1.425,0 2.24062,-1.12812 0.81563,-1.12813 0.81563,-3.10938 z"
         id="use717"
         style="stroke-width:0.2" />
      <path
         d="m 811.09826,258.701 q -1.44375,0 -2.28437,1.12813 -0.84063,1.12812 -0.84063,3.09062 0,1.9625 0.83438,3.09063 0.8375,1.12812 2.29062,1.12812 1.4375,0 2.275,-1.13125 0.84063,-1.13437 0.84063,-3.0875 0,-1.94375 -0.84063,-3.08125 -0.8375,-1.1375 -2.275,-1.1375 z m 0,-1.52187 q 2.34375,0 3.68125,1.525 1.34063,1.52187 1.34063,4.21562 0,2.68438 -1.34063,4.21563 -1.3375,1.52812 -3.68125,1.52812 -2.35312,0 -3.6875,-1.52812 -1.33125,-1.53125 -1.33125,-4.21563 0,-2.69375 1.33125,-4.21562 1.33438,-1.525 3.6875,-1.525 z"
         id="use719"
         style="stroke-width:0.2" />
      <path
         d="m 828.19084,261.776 v 6.60313 h -1.79687 v -6.54375 q 0,-1.55313 -0.60625,-2.32188 -0.60625,-0.77187 -1.81563,-0.77187 -1.45625,0 -2.29687,0.92812 -0.84063,0.925 -0.84063,2.52813 v 6.18125 h -1.80625 v -10.9375 h 1.80625 v 1.7 q 0.64688,-0.9875 1.51875,-1.475 0.875,-0.4875 2.01875,-0.4875 1.88438,0 2.85,1.16562 0.96875,1.16563 0.96875,3.43125 z"
         id="use721"
         style="stroke-width:0.2" />
      <path
         d="m 841.12912,262.46038 v 0.87812 h -8.2625 q 0.11875,1.85625 1.11875,2.82813 1,0.97187 2.7875,0.97187 1.03438,0 2.00625,-0.25312 0.97188,-0.25313 1.93125,-0.7625 v 1.7 q -0.96875,0.40937 -1.98437,0.625 -1.01563,0.21562 -2.05938,0.21562 -2.61875,0 -4.14687,-1.52187 -1.52813,-1.525 -1.52813,-4.125 0,-2.68438 1.45,-4.25938 1.45,-1.57812 3.9125,-1.57812 2.20625,0 3.49063,1.42187 1.28437,1.41875 1.28437,3.85938 z m -1.79687,-0.52813 q -0.0188,-1.47187 -0.825,-2.35 -0.80625,-0.88125 -2.13438,-0.88125 -1.50312,0 -2.40625,0.85 -0.90312,0.85 -1.04062,2.39375 z"
         id="use723"
         style="stroke-width:0.2" />
      <path
         d="m 853.17131,261.776 v 6.60313 h -1.79687 v -6.54375 q 0,-1.55313 -0.60625,-2.32188 -0.60625,-0.77187 -1.81563,-0.77187 -1.45625,0 -2.29687,0.92812 -0.84063,0.925 -0.84063,2.52813 v 6.18125 h -1.80625 v -10.9375 h 1.80625 v 1.7 q 0.64688,-0.9875 1.51875,-1.475 0.875,-0.4875 2.01875,-0.4875 1.88438,0 2.85,1.16562 0.96875,1.16563 0.96875,3.43125 z"
         id="use725"
         style="stroke-width:0.2" />
      <path
         d="m 858.53147,254.33538 v 3.10625 h 3.7 v 1.39687 h -3.7 v 5.9375 q 0,1.3375 0.36562,1.71875 0.36563,0.38125 1.49063,0.38125 h 1.84375 v 1.50313 h -1.84375 q -2.08125,0 -2.87188,-0.775 -0.79062,-0.77813 -0.79062,-2.82813 v -5.9375 h -1.31875 v -1.39687 h 1.31875 v -3.10625 z"
         id="use727"
         style="stroke-width:0.2" />
      <path
         d="m 864.59514,257.44163 h 1.79687 v 10.9375 h -1.79687 z m 0,-4.25938 h 1.79687 v 2.27813 h -1.79687 z"
         id="use729"
         style="stroke-width:0.2" />
      <path
         d="m 875.12365,262.88225 q -2.17812,0 -3.01875,0.49688 -0.84062,0.49687 -0.84062,1.7 0,0.95625 0.63125,1.51875 0.63125,0.55937 1.7125,0.55937 1.49687,0 2.4,-1.05937 0.90312,-1.05938 0.90312,-2.81563 v -0.4 z m 3.58438,-0.74375 v 6.24063 h -1.79688 v -1.65938 q -0.61562,0.99375 -1.53437,1.46875 -0.91875,0.475 -2.24688,0.475 -1.67812,0 -2.67187,-0.94375 -0.99063,-0.94375 -0.99063,-2.525 0,-1.84375 1.23438,-2.78125 1.2375,-0.9375 3.6875,-0.9375 h 2.52187 v -0.17812 q 0,-1.24063 -0.81562,-1.91875 -0.81563,-0.67813 -2.29063,-0.67813 -0.9375,0 -1.82812,0.225 -0.8875,0.225 -1.70625,0.675 v -1.6625 q 0.98437,-0.38125 1.9125,-0.56875 0.92812,-0.19062 1.80625,-0.19062 2.375,0 3.54687,1.23125 1.17188,1.22812 1.17188,3.72812 z"
         id="use731"
         style="stroke-width:0.2" />
      <path
         d="m 882.40764,253.18225 h 1.79687 v 15.19688 h -1.79687 z"
         id="use733"
         style="stroke-width:0.2" />
      <path
         d="m 799.82681,276.86072 h 1.80625 v 8.97499 l 5.3625,-4.71562 h 2.29375 l -5.8,5.11563 6.04688,5.82187 h -2.34375 l -5.55938,-5.34062 v 5.34062 h -1.80625 z"
         id="use737"
         style="stroke-width:0.2" />
      <path
         d="m 820.10884,286.13884 v 0.87813 h -8.2625 q 0.11875,1.85625 1.11875,2.82812 1,0.97187 2.7875,0.97187 1.03438,0 2.00625,-0.25312 0.97188,-0.25312 1.93125,-0.7625 v 1.7 q -0.96875,0.40937 -1.98437,0.625 -1.01563,0.21563 -2.05938,0.21563 -2.61875,0 -4.14687,-1.52188 -1.52813,-1.525 -1.52813,-4.125 0,-2.68438 1.45,-4.25937 1.45,-1.57813 3.9125,-1.57813 2.20625,0 3.49063,1.42188 1.28437,1.41874 1.28437,3.85937 z m -1.79687,-0.52812 q -0.0187,-1.47188 -0.825,-2.35001 -0.80625,-0.88125 -2.13438,-0.88125 -1.50312,0 -2.40625,0.85 -0.90312,0.85001 -1.04062,2.39376 z"
         id="use739"
         style="stroke-width:0.2" />
      <path
         d="m 829.39478,282.79822 q -0.30312,-0.175 -0.65937,-0.25626 -0.35626,-0.0844 -0.78438,-0.0844 -1.525,0 -2.34062,0.99062 -0.81563,0.99063 -0.81563,2.84688 v 5.7625 h -1.80625 v -10.9375 h 1.80625 v 1.7 q 0.56875,-0.99688 1.475,-1.47812 0.90938,-0.48438 2.20937,-0.48438 0.18438,0 0.40938,0.025 0.225,0.0219 0.49687,0.0719 z"
         id="use741"
         style="stroke-width:0.2" />
      <path
         d="m 840.02369,285.45447 v 6.60312 h -1.79688 v -6.54375 q 0,-1.55313 -0.60625,-2.32188 -0.60625,-0.77187 -1.81562,-0.77187 -1.45625,0 -2.29688,0.92812 -0.84062,0.925 -0.84062,2.52813 v 6.18125 h -1.80625 v -10.9375 h 1.80625 v 1.7 q 0.64687,-0.9875 1.51875,-1.475 0.875,-0.4875 2.01875,-0.4875 1.88437,0 2.85,1.16562 0.96875,1.16563 0.96875,3.43126 z"
         id="use743"
         style="stroke-width:0.2" />
      <path
         d="m 852.96197,286.13884 v 0.87813 h -8.2625 q 0.11875,1.85625 1.11875,2.82812 1,0.97187 2.7875,0.97187 1.03437,0 2.00625,-0.25312 0.97187,-0.25312 1.93125,-0.7625 v 1.7 q -0.96875,0.40937 -1.98438,0.625 -1.01562,0.21563 -2.05937,0.21563 -2.61875,0 -4.14688,-1.52188 -1.52812,-1.525 -1.52812,-4.125 0,-2.68438 1.45,-4.25937 1.45,-1.57813 3.9125,-1.57813 2.20625,0 3.49062,1.42188 1.28438,1.41874 1.28438,3.85937 z m -1.79688,-0.52812 q -0.0187,-1.47188 -0.825,-2.35001 -0.80625,-0.88125 -2.13437,-0.88125 -1.50313,0 -2.40625,0.85 -0.90313,0.85001 -1.04063,2.39376 z"
         id="use745"
         style="stroke-width:0.2" />
      <path
         d="m 855.9104,276.86072 h 1.79688 v 15.19687 h -1.79688 z"
         id="use747"
         style="stroke-width:0.2" />
    </g>
    <path
       id="use749"
       d=""
       style="stroke-width:0.2" />
    <path
       id="use753"
       d=""
       style="stroke-width:0.2" />
    <g
       id="line2d_36"
       transform="translate(450.80763,0.56772753)" />
    <g
       id="line2d_38"
       transform="translate(450.80763,0.56772753)" />
    <path
       id="use820"
       d=""
       style="stroke-width:0.2" />
    <path
       id="use824"
       d=""
       style="stroke-width:0.2" />
    <path
       id="use842"
       d=""
       style="stroke-width:0.2" />
    <g
       id="line2d_40"
       transform="translate(450.80763,0.56772753)" />
    <g
       id="line2d_42"
       transform="translate(450.80763,0.56772753)" />
    <g
       id="line2d_44"
       transform="translate(450.80763,0.56772753)" />
    <g
       id="line2d_46"
       transform="translate(450.80763,0.56772753)" />
    <g
       id="line2d_48"
       transform="translate(450.80763,0.56772753)" />
    <g
       id="line2d_50"
       transform="translate(450.80763,0.56772753)" />
    <g
       id="line2d_52"
       transform="translate(450.80763,0.56772753)" />
    <path
       fill="#000000"
       fill-opacity="0"
       d="M 250.00562,-254.2434 H 970.00563 V 285.75661 H 250.00562 Z"
       fill-rule="evenodd"
       id="path5"
       style="stroke-width:0.75" />
    <path
       fill="#000000"
       fill-opacity="0"
       d="m 675.07255,-220.50127 c 0,14.17458 -11.49079,25.66535 -25.66534,25.66535 H 506.65914 c -14.17458,0 -25.66534,11.49077 -25.66534,25.66535 v 0 c 0,-14.17458 -11.49076,-25.66535 -25.66535,-25.66535 H 312.58041 v 0 c -14.17459,0 -25.66535,-11.49077 -25.66535,-25.66535 z"
       fill-rule="evenodd"
       id="path7"
       style="stroke-width:0.75" />
    <path
       fill="#000000"
       fill-opacity="0"
       d="m 675.07255,-220.50127 c 0,14.17458 -11.49079,25.66535 -25.66534,25.66535 H 506.65914 c -14.17458,0 -25.66534,11.49077 -25.66534,25.66535 v 0 c 0,-14.17458 -11.49076,-25.66535 -25.66535,-25.66535 H 312.58041 v 0 c -14.17459,0 -25.66535,-11.49077 -25.66535,-25.66535"
       fill-rule="evenodd"
       id="path9"
       style="stroke-width:0.75" />
    <path
       fill="#000000"
       fill-opacity="0"
       d="M 534.13162,268.29991 V -94.605613"
       fill-rule="evenodd"
       id="path13"
       style="stroke-width:0.75" />
    <g
       id="g2800">
      <path
         style="fill:none;stroke:#000000;stroke-width:3.375;stroke-linecap:butt;stroke-linejoin:miter;stroke-miterlimit:4;stroke-dasharray:none;stroke-opacity:1"
         d="M 514.34861,84.748263 410.38478,321.18718"
         id="path5163"
         sodipodi:nodetypes="cc" />
      <path
         style="fill:none;stroke:#000000;stroke-width:1.05;stroke-linecap:butt;stroke-linejoin:miter;stroke-miterlimit:4;stroke-dasharray:none;stroke-opacity:1;marker-start:url(#Arrow1Lstart)"
         d="m 518.32606,76.569063 -9.29714,20.56135"
         id="path6145"
         sodipodi:nodetypes="cc" />
    </g>
    <g
       id="g2796">
      <path
         style="fill:none;stroke:#000000;stroke-width:3.375;stroke-linecap:butt;stroke-linejoin:miter;stroke-miterlimit:4;stroke-dasharray:none;stroke-opacity:1"
         d="M 556.68162,200.0494 410.38478,321.18718"
         id="path5163-7"
         sodipodi:nodetypes="cc" />
      <path
         style="fill:none;stroke:#000000;stroke-width:1.05;stroke-linecap:butt;stroke-linejoin:miter;stroke-miterlimit:4;stroke-dasharray:none;stroke-opacity:1;marker-start:url(#Arrow1Lstart-5)"
         d="M 564.54629,193.1374 550.8592,204.93649"
         id="path6145-5"
         sodipodi:nodetypes="cc" />
    </g>
  </g>
  <defs
     id="defs1143">
    <clipPath
       id="p8cb231a05e">
      <rect
         height="380.51999"
         width="558"
         x="123.43607"
         y="31.436251"
         id="rect1140" />
    </clipPath>
  </defs>
</svg>
