<?xml version="1.0" encoding="utf-8" standalone="no"?>
<!DOCTYPE svg PUBLIC "-//W3C//DTD SVG 1.1//EN"
  "http://www.w3.org/Graphics/SVG/1.1/DTD/svg11.dtd">
<!-- Created with matplotlib (https://matplotlib.org/) -->
<svg height="180.72pt" version="1.1" viewBox="0 0 293.4 180.72" width="293.4pt" xmlns="http://www.w3.org/2000/svg" xmlns:xlink="http://www.w3.org/1999/xlink">
 <metadata>
  <rdf:RDF xmlns:cc="http://creativecommons.org/ns#" xmlns:dc="http://purl.org/dc/elements/1.1/" xmlns:rdf="http://www.w3.org/1999/02/22-rdf-syntax-ns#">
   <cc:Work>
    <dc:type rdf:resource="http://purl.org/dc/dcmitype/StillImage"/>
    <dc:date>2021-11-25T19:29:53.839104</dc:date>
    <dc:format>image/svg+xml</dc:format>
    <dc:creator>
     <cc:Agent>
      <dc:title>Matplotlib v3.3.4, https://matplotlib.org/</dc:title>
     </cc:Agent>
    </dc:creator>
   </cc:Work>
  </rdf:RDF>
 </metadata>
 <defs>
  <style type="text/css">*{stroke-linecap:butt;stroke-linejoin:round;}</style>
 </defs>
 <g id="figure_1">
  <g id="patch_1">
   <path d="M 0 180.72 
L 293.4 180.72 
L 293.4 0 
L 0 0 
z
" style="fill:none;"/>
  </g>
  <g id="axes_1">
   <g id="line2d_1">
    <path clip-path="url(#p9f177917a0)" d="M 19.881818 123.956719 
L 22.443802 125.893427 
L 25.005785 129.755986 
L 27.567769 128.363252 
L 30.129752 127.287833 
L 32.691736 128.41055 
L 35.253719 137.657849 
L 37.815702 130.950229 
L 40.377686 140.84495 
L 42.939669 129.226931 
L 45.501653 131.077124 
L 48.063636 133.743379 
L 50.62562 135.823063 
L 53.187603 125.08266 
L 55.749587 128.460325 
L 58.31157 133.832781 
L 60.873554 134.286249 
L 63.435537 144.625738 
L 65.997521 141.668938 
L 68.559504 140.26971 
L 71.121488 140.427911 
L 73.683471 136.399953 
L 76.245455 136.077886 
L 78.807438 117.070455 
L 81.369421 117.661239 
L 83.931405 110.857033 
L 86.493388 107.654257 
L 89.055372 113.598836 
L 91.617355 119.142864 
L 94.179339 123.947985 
L 96.741322 117.577654 
L 99.303306 107.66017 
L 101.865289 95.505013 
L 104.427273 95.682844 
L 106.989256 96.554413 
L 109.55124 95.348026 
L 112.113223 103.327792 
L 114.675207 106.657199 
L 117.23719 112.437195 
L 119.799174 101.272357 
L 122.361157 99.229786 
L 124.92314 98.095831 
L 127.485124 93.667161 
L 130.047107 94.119948 
L 132.609091 87.865448 
L 135.171074 97.545733 
L 137.733058 93.12286 
L 140.295041 100.114919 
L 142.857025 101.27869 
L 145.419008 95.941939 
L 147.980992 98.372391 
L 150.542975 95.957577 
L 153.104959 101.937994 
L 155.666942 106.063106 
L 158.228926 106.057198 
L 160.790909 113.546054 
L 163.352893 117.394861 
L 165.914876 120.312005 
L 168.47686 110.025903 
L 171.038843 109.337105 
L 173.600826 115.22713 
L 176.16281 118.07679 
L 178.724793 117.588626 
L 181.286777 114.72596 
L 183.84876 115.132369 
L 186.410744 124.157755 
L 188.972727 136.135242 
L 191.534711 137.744764 
L 194.096694 123.317962 
L 196.658678 136.84372 
L 199.220661 152.416229 
L 201.782645 153.933413 
L 204.344628 158.682967 
L 206.906612 138.520714 
L 209.468595 131.573786 
L 212.030579 126.860992 
L 214.592562 131.420694 
L 217.154545 141.39126 
L 219.716529 150.675379 
L 222.278512 149.558076 
L 224.840496 134.27422 
L 227.402479 125.139163 
L 229.964463 120.128425 
L 232.526446 105.75015 
L 235.08843 103.341528 
L 237.650413 107.693272 
L 240.212397 109.609269 
L 242.77438 102.418084 
L 245.336364 101.886391 
L 247.898347 99.599926 
L 250.460331 102.229771 
L 253.022314 98.899183 
L 255.584298 83.080558 
L 258.146281 69.396245 
L 260.708264 81.243075 
L 263.270248 66.680337 
L 265.832231 59.883037 
L 268.394215 52.569768 
L 270.956198 52.027372 
L 273.518182 58.870653 
" style="fill:none;stroke:#000000;stroke-linecap:square;stroke-opacity:0.7;stroke-width:1.5;"/>
   </g>
   <g id="line2d_2">
    <path clip-path="url(#p9f177917a0)" d="M 19.881818 108.044198 
L 22.443802 98.478832 
L 25.005785 105.325229 
L 27.567769 97.349033 
L 30.129752 97.90869 
L 32.691736 83.332586 
L 35.253719 77.02584 
L 37.815702 74.054079 
L 40.377686 77.919027 
L 42.939669 82.006856 
L 45.501653 68.091307 
L 48.063636 70.864612 
L 50.62562 77.542066 
L 53.187603 70.747181 
L 55.749587 85.193154 
L 58.31157 87.67034 
L 60.873554 98.808295 
L 63.435537 89.66282 
L 65.997521 94.323788 
L 68.559504 88.07371 
L 71.121488 84.488563 
L 73.683471 83.854467 
L 76.245455 99.164489 
L 78.807438 88.716994 
L 81.369421 93.14687 
L 83.931405 100.116497 
L 86.493388 110.669128 
L 89.055372 104.814059 
L 91.617355 101.923809 
L 94.179339 101.079419 
L 96.741322 104.711176 
L 99.303306 105.129266 
L 101.865289 106.227104 
L 104.427273 97.403346 
L 106.989256 89.482186 
L 109.55124 85.88769 
L 112.113223 87.199693 
L 114.675207 72.278495 
L 117.23719 74.84063 
L 119.799174 85.262561 
L 122.361157 93.236436 
L 124.92314 103.191343 
L 127.485124 115.883825 
L 130.047107 117.437847 
L 132.609091 126.529303 
L 135.171074 130.387054 
L 137.733058 131.64489 
L 140.295041 141.369641 
L 142.857025 152.480272 
L 145.419008 154.362897 
L 147.980992 160.920254 
L 150.542975 162.061996 
L 153.104959 159.577691 
L 155.666942 164.878534 
L 158.228926 163.035351 
L 160.790909 155.425707 
L 163.352893 153.200183 
L 165.914876 146.311061 
L 168.47686 151.974209 
L 171.038843 146.475375 
L 173.600826 146.238838 
L 176.16281 154.278772 
L 178.724793 161.186356 
L 181.286777 159.434132 
L 183.84876 143.282744 
L 186.410744 150.693479 
L 188.972727 148.679034 
L 191.534711 148.411345 
L 194.096694 145.08051 
L 196.658678 146.098494 
L 199.220661 140.516631 
L 201.782645 145.757215 
L 204.344628 140.007614 
L 206.906612 115.438485 
L 209.468595 121.863164 
L 212.030579 109.031253 
L 214.592562 107.625078 
L 217.154545 114.106898 
L 219.716529 109.636309 
L 222.278512 98.958929 
L 224.840496 90.318138 
L 227.402479 97.295937 
L 229.964463 102.024067 
L 232.526446 103.200434 
L 235.08843 99.85317 
L 237.650413 102.356741 
L 240.212397 110.065866 
L 242.77438 114.898253 
L 245.336364 105.220808 
L 247.898347 113.220822 
L 250.460331 124.554319 
L 253.022314 138.223352 
L 255.584298 129.347909 
L 258.146281 130.391067 
L 260.708264 128.453663 
L 263.270248 118.670661 
L 265.832231 113.747746 
L 268.394215 105.882756 
L 270.956198 108.108913 
L 273.518182 103.294409 
" style="fill:none;stroke:#000000;stroke-linecap:square;stroke-opacity:0.7;stroke-width:1.5;"/>
   </g>
   <g id="line2d_3">
    <path clip-path="url(#p9f177917a0)" d="M 19.881818 98.939676 
L 22.443802 111.126814 
L 25.005785 110.923382 
L 27.567769 107.139644 
L 30.129752 107.608572 
L 32.691736 112.047136 
L 35.253719 111.739145 
L 37.815702 104.250158 
L 40.377686 108.290395 
L 42.939669 102.862248 
L 45.501653 104.383115 
L 48.063636 96.151278 
L 50.62562 88.179925 
L 53.187603 80.486755 
L 55.749587 84.91495 
L 58.31157 96.438817 
L 60.873554 89.382411 
L 63.435537 81.10428 
L 65.997521 80.944109 
L 68.559504 75.128566 
L 71.121488 73.334712 
L 73.683471 76.49414 
L 76.245455 77.612221 
L 78.807438 78.613697 
L 81.369421 80.798676 
L 83.931405 85.827564 
L 86.493388 89.959554 
L 89.055372 93.11243 
L 91.617355 90.667603 
L 94.179339 79.597849 
L 96.741322 79.179351 
L 99.303306 84.593637 
L 101.865289 87.272354 
L 104.427273 83.702732 
L 106.989256 71.588769 
L 109.55124 67.672697 
L 112.113223 72.039127 
L 114.675207 82.161586 
L 117.23719 81.911354 
L 119.799174 74.433205 
L 122.361157 72.389077 
L 124.92314 78.554971 
L 127.485124 71.594239 
L 130.047107 75.212661 
L 132.609091 66.089105 
L 135.171074 53.957261 
L 137.733058 66.583949 
L 140.295041 65.395077 
L 142.857025 67.093073 
L 145.419008 82.586044 
L 147.980992 77.521662 
L 150.542975 70.155685 
L 153.104959 65.977389 
L 155.666942 64.953773 
L 158.228926 67.926778 
L 160.790909 63.188899 
L 163.352893 71.096826 
L 165.914876 69.517083 
L 168.47686 79.695655 
L 171.038843 75.856364 
L 173.600826 83.744189 
L 176.16281 74.025628 
L 178.724793 67.496542 
L 181.286777 72.512086 
L 183.84876 68.536821 
L 186.410744 72.919511 
L 188.972727 74.079483 
L 191.534711 86.601547 
L 194.096694 91.945831 
L 196.658678 103.322868 
L 199.220661 101.188798 
L 201.782645 119.734689 
L 204.344628 109.516972 
L 206.906612 100.424241 
L 209.468595 115.771693 
L 212.030579 106.697073 
L 214.592562 103.983229 
L 217.154545 102.243954 
L 219.716529 103.048968 
L 222.278512 97.52067 
L 224.840496 104.9811 
L 227.402479 103.331014 
L 229.964463 116.692415 
L 232.526446 114.092182 
L 235.08843 112.36 
L 237.650413 105.123395 
L 240.212397 97.411533 
L 242.77438 100.384523 
L 245.336364 99.448878 
L 247.898347 94.798518 
L 250.460331 95.74044 
L 253.022314 96.151319 
L 255.584298 90.412124 
L 258.146281 76.557483 
L 260.708264 83.823846 
L 263.270248 84.091128 
L 265.832231 77.867346 
L 268.394215 82.771436 
L 270.956198 64.866444 
L 273.518182 77.889909 
" style="fill:none;stroke:#000000;stroke-linecap:square;stroke-opacity:0.7;stroke-width:1.5;"/>
   </g>
   <g id="line2d_4">
    <path clip-path="url(#p9f177917a0)" d="M 19.881818 107.87541 
L 22.443802 103.500243 
L 25.005785 115.578689 
L 27.567769 109.73462 
L 30.129752 101.617012 
L 32.691736 90.947153 
L 35.253719 89.853173 
L 37.815702 91.275854 
L 40.377686 82.191972 
L 42.939669 84.583396 
L 45.501653 76.312116 
L 48.063636 77.30196 
L 50.62562 78.383999 
L 53.187603 80.086387 
L 55.749587 88.809126 
L 58.31157 71.288047 
L 60.873554 79.432388 
L 63.435537 84.445292 
L 65.997521 101.014524 
L 68.559504 96.514645 
L 71.121488 90.978646 
L 73.683471 84.369225 
L 76.245455 91.540092 
L 78.807438 94.502712 
L 81.369421 107.711144 
L 83.931405 107.419069 
L 86.493388 111.509184 
L 89.055372 95.678949 
L 91.617355 98.553211 
L 94.179339 105.600048 
L 96.741322 110.235363 
L 99.303306 113.855253 
L 101.865289 123.034985 
L 104.427273 112.950108 
L 106.989256 104.049343 
L 109.55124 95.623612 
L 112.113223 93.489865 
L 114.675207 100.478709 
L 117.23719 93.989571 
L 119.799174 92.831625 
L 122.361157 81.345158 
L 124.92314 77.191548 
L 127.485124 72.212799 
L 130.047107 65.18817 
L 132.609091 60.346832 
L 135.171074 55.510041 
L 137.733058 60.470683 
L 140.295041 57.384562 
L 142.857025 64.01678 
L 145.419008 66.403375 
L 147.980992 66.202953 
L 150.542975 60.710422 
L 153.104959 60.794642 
L 155.666942 67.23523 
L 158.228926 61.612069 
L 160.790909 65.673402 
L 163.352893 59.93492 
L 165.914876 59.405592 
L 168.47686 50.37988 
L 171.038843 44.290972 
L 173.600826 57.568784 
L 176.16281 51.622047 
L 178.724793 43.462068 
L 181.286777 48.53526 
L 183.84876 54.515293 
L 186.410744 53.746098 
L 188.972727 50.274439 
L 191.534711 50.592829 
L 194.096694 56.505787 
L 196.658678 59.074567 
L 199.220661 55.008201 
L 201.782645 54.291054 
L 204.344628 54.168022 
L 206.906612 53.73018 
L 209.468595 55.147766 
L 212.030579 47.421838 
L 214.592562 40.264005 
L 217.154545 47.593468 
L 219.716529 51.069986 
L 222.278512 53.862643 
L 224.840496 59.487689 
L 227.402479 47.612411 
L 229.964463 50.181097 
L 232.526446 51.699727 
L 235.08843 63.720175 
L 237.650413 62.622506 
L 240.212397 50.478448 
L 242.77438 50.237395 
L 245.336364 43.345053 
L 247.898347 61.395479 
L 250.460331 58.324737 
L 253.022314 62.167927 
L 255.584298 60.890285 
L 258.146281 50.127101 
L 260.708264 50.119706 
L 263.270248 51.124777 
L 265.832231 59.137703 
L 268.394215 67.785905 
L 270.956198 66.464068 
L 273.518182 79.125431 
" style="fill:none;stroke:#000000;stroke-linecap:square;stroke-opacity:0.7;stroke-width:1.5;"/>
   </g>
   <g id="line2d_5">
    <path clip-path="url(#p9f177917a0)" d="M 19.881818 88.596435 
L 22.443802 93.388396 
L 25.005785 90.989645 
L 27.567769 87.77257 
L 30.129752 95.678497 
L 32.691736 96.380085 
L 35.253719 92.795016 
L 37.815702 87.615025 
L 40.377686 92.022008 
L 42.939669 80.195665 
L 45.501653 77.390068 
L 48.063636 81.961827 
L 50.62562 86.177156 
L 53.187603 83.585236 
L 55.749587 81.254522 
L 58.31157 83.303575 
L 60.873554 81.494068 
L 63.435537 78.015629 
L 65.997521 75.992739 
L 68.559504 77.759049 
L 71.121488 73.307476 
L 73.683471 83.189466 
L 76.245455 60.536292 
L 78.807438 69.280649 
L 81.369421 51.637717 
L 83.931405 45.260196 
L 86.493388 51.051007 
L 89.055372 42.731215 
L 91.617355 33.272624 
L 94.179339 45.834094 
L 96.741322 45.682549 
L 99.303306 52.695329 
L 101.865289 57.262824 
L 104.427273 49.093661 
L 106.989256 53.872131 
L 109.55124 56.377121 
L 112.113223 63.271022 
L 114.675207 72.946317 
L 117.23719 79.577926 
L 119.799174 63.687413 
L 122.361157 68.156605 
L 124.92314 69.940818 
L 127.485124 71.874048 
L 130.047107 67.127809 
L 132.609091 72.477235 
L 135.171074 68.028296 
L 137.733058 66.025548 
L 140.295041 72.722974 
L 142.857025 70.162277 
L 145.419008 89.768522 
L 147.980992 106.011823 
L 150.542975 102.652513 
L 153.104959 93.400358 
L 155.666942 96.876923 
L 158.228926 88.782839 
L 160.790909 86.398285 
L 163.352893 92.202677 
L 165.914876 91.5935 
L 168.47686 98.866141 
L 171.038843 92.437058 
L 173.600826 89.54185 
L 176.16281 89.944886 
L 178.724793 83.009401 
L 181.286777 87.425636 
L 183.84876 80.242762 
L 186.410744 84.817092 
L 188.972727 82.545071 
L 191.534711 81.874976 
L 194.096694 75.863559 
L 196.658678 64.099969 
L 199.220661 72.783842 
L 201.782645 69.905405 
L 204.344628 83.654341 
L 206.906612 84.437929 
L 209.468595 90.529599 
L 212.030579 99.589059 
L 214.592562 92.122904 
L 217.154545 93.385376 
L 219.716529 102.386648 
L 222.278512 95.295616 
L 224.840496 100.782523 
L 227.402479 109.80096 
L 229.964463 112.943508 
L 232.526446 101.545871 
L 235.08843 108.728784 
L 237.650413 104.675823 
L 240.212397 99.554296 
L 242.77438 99.091904 
L 245.336364 97.800292 
L 247.898347 109.401 
L 250.460331 101.59908 
L 253.022314 105.01553 
L 255.584298 108.838314 
L 258.146281 124.862597 
L 260.708264 133.364408 
L 263.270248 130.581645 
L 265.832231 134.239067 
L 268.394215 115.185777 
L 270.956198 97.32452 
L 273.518182 99.190689 
" style="fill:none;stroke:#000000;stroke-linecap:square;stroke-opacity:0.7;stroke-width:1.5;"/>
   </g>
   <g id="line2d_6">
    <path clip-path="url(#p9f177917a0)" d="M 19.881818 114.337819 
L 22.443802 121.914591 
L 25.005785 131.660261 
L 27.567769 136.711194 
L 30.129752 124.363492 
L 32.691736 112.66746 
L 35.253719 105.826938 
L 37.815702 103.19547 
L 40.377686 93.697917 
L 42.939669 104.529273 
L 45.501653 106.366942 
L 48.063636 105.425134 
L 50.62562 101.222626 
L 53.187603 86.339861 
L 55.749587 84.248402 
L 58.31157 86.174335 
L 60.873554 90.641823 
L 63.435537 87.743583 
L 65.997521 87.31898 
L 68.559504 93.22988 
L 71.121488 84.425398 
L 73.683471 96.009267 
L 76.245455 98.815656 
L 78.807438 96.586752 
L 81.369421 99.744706 
L 83.931405 99.570955 
L 86.493388 88.727042 
L 89.055372 83.762065 
L 91.617355 83.943129 
L 94.179339 99.959677 
L 96.741322 109.182176 
L 99.303306 114.136494 
L 101.865289 119.416341 
L 104.427273 108.369641 
L 106.989256 107.360555 
L 109.55124 104.52213 
L 112.113223 94.140816 
L 114.675207 105.081903 
L 117.23719 103.552121 
L 119.799174 104.162922 
L 122.361157 94.138246 
L 124.92314 90.786451 
L 127.485124 88.499814 
L 130.047107 83.125799 
L 132.609091 70.502647 
L 135.171074 64.76226 
L 137.733058 75.38493 
L 140.295041 67.335721 
L 142.857025 72.368552 
L 145.419008 83.295241 
L 147.980992 88.747935 
L 150.542975 81.173644 
L 153.104959 82.503525 
L 155.666942 81.775524 
L 158.228926 87.066863 
L 160.790909 87.695189 
L 163.352893 93.553807 
L 165.914876 87.655171 
L 168.47686 72.409678 
L 171.038843 86.064457 
L 173.600826 85.330683 
L 176.16281 85.753899 
L 178.724793 89.518813 
L 181.286777 101.927689 
L 183.84876 92.881514 
L 186.410744 87.989209 
L 188.972727 101.10922 
L 191.534711 107.29654 
L 194.096694 111.074862 
L 196.658678 105.115987 
L 199.220661 106.476261 
L 201.782645 100.850789 
L 204.344628 96.21743 
L 206.906612 86.041965 
L 209.468595 81.356103 
L 212.030579 78.137085 
L 214.592562 75.243323 
L 217.154545 73.48158 
L 219.716529 67.024635 
L 222.278512 84.21849 
L 224.840496 100.804084 
L 227.402479 107.063468 
L 229.964463 114.080006 
L 232.526446 109.980183 
L 235.08843 124.73934 
L 237.650413 130.912163 
L 240.212397 124.304457 
L 242.77438 113.985418 
L 245.336364 121.807937 
L 247.898347 122.410517 
L 250.460331 115.596536 
L 253.022314 107.286785 
L 255.584298 110.682106 
L 258.146281 109.607575 
L 260.708264 106.646531 
L 263.270248 110.435668 
L 265.832231 105.726586 
L 268.394215 106.953075 
L 270.956198 85.636579 
L 273.518182 91.945933 
" style="fill:none;stroke:#000000;stroke-linecap:square;stroke-opacity:0.7;stroke-width:1.5;"/>
   </g>
   <g id="line2d_7">
    <path clip-path="url(#p9f177917a0)" d="M 19.881818 87.663251 
L 22.443802 101.517176 
L 25.005785 99.609799 
L 27.567769 97.510792 
L 30.129752 101.845774 
L 32.691736 93.759108 
L 35.253719 90.798251 
L 37.815702 81.993285 
L 40.377686 77.340108 
L 42.939669 75.778251 
L 45.501653 59.432762 
L 48.063636 66.647534 
L 50.62562 64.388484 
L 53.187603 62.559643 
L 55.749587 60.684791 
L 58.31157 68.477619 
L 60.873554 61.007494 
L 63.435537 55.984592 
L 65.997521 61.441266 
L 68.559504 46.222286 
L 71.121488 52.705824 
L 73.683471 47.168296 
L 76.245455 48.922373 
L 78.807438 60.169763 
L 81.369421 74.470344 
L 83.931405 73.621653 
L 86.493388 71.803295 
L 89.055372 64.004375 
L 91.617355 69.627388 
L 94.179339 69.845976 
L 96.741322 59.483326 
L 99.303306 66.717064 
L 101.865289 69.403424 
L 104.427273 69.143192 
L 106.989256 63.149736 
L 109.55124 68.173526 
L 112.113223 65.78112 
L 114.675207 81.154918 
L 117.23719 75.481745 
L 119.799174 71.188915 
L 122.361157 86.157228 
L 124.92314 79.062294 
L 127.485124 83.93506 
L 130.047107 76.123265 
L 132.609091 81.924118 
L 135.171074 77.280724 
L 137.733058 82.837509 
L 140.295041 84.071799 
L 142.857025 88.58623 
L 145.419008 86.252017 
L 147.980992 75.514112 
L 150.542975 66.305572 
L 153.104959 76.324001 
L 155.666942 73.357889 
L 158.228926 85.167311 
L 160.790909 81.552761 
L 163.352893 91.120532 
L 165.914876 93.369305 
L 168.47686 90.123998 
L 171.038843 86.123502 
L 173.600826 80.591593 
L 176.16281 84.680947 
L 178.724793 75.282774 
L 181.286777 72.775396 
L 183.84876 71.264921 
L 186.410744 56.267588 
L 188.972727 40.01278 
L 191.534711 44.520005 
L 194.096694 47.069457 
L 196.658678 43.149294 
L 199.220661 43.419507 
L 201.782645 35.431466 
L 204.344628 41.567974 
L 206.906612 48.878697 
L 209.468595 44.179292 
L 212.030579 51.166272 
L 214.592562 52.124086 
L 217.154545 62.258454 
L 219.716529 68.473994 
L 222.278512 71.310453 
L 224.840496 74.232232 
L 227.402479 59.805069 
L 229.964463 69.437799 
L 232.526446 66.558627 
L 235.08843 65.323661 
L 237.650413 62.872505 
L 240.212397 46.273917 
L 242.77438 56.696047 
L 245.336364 57.3038 
L 247.898347 57.289533 
L 250.460331 53.276475 
L 253.022314 58.283464 
L 255.584298 65.145325 
L 258.146281 66.684772 
L 260.708264 65.988105 
L 263.270248 56.810008 
L 265.832231 76.392997 
L 268.394215 65.96752 
L 270.956198 68.339262 
L 273.518182 68.75906 
" style="fill:none;stroke:#000000;stroke-linecap:square;stroke-opacity:0.7;stroke-width:1.5;"/>
   </g>
   <g id="line2d_8">
    <path clip-path="url(#p9f177917a0)" d="M 19.881818 60.702193 
L 22.443802 63.763782 
L 25.005785 48.616395 
L 27.567769 46.190212 
L 30.129752 52.115963 
L 32.691736 59.871899 
L 35.253719 58.09974 
L 37.815702 51.408944 
L 40.377686 42.870044 
L 42.939669 44.416043 
L 45.501653 41.025146 
L 48.063636 51.697575 
L 50.62562 54.033229 
L 53.187603 46.69408 
L 55.749587 43.051761 
L 58.31157 65.828604 
L 60.873554 79.47968 
L 63.435537 81.572514 
L 65.997521 71.247754 
L 68.559504 64.732851 
L 71.121488 66.134454 
L 73.683471 73.851551 
L 76.245455 75.511894 
L 78.807438 73.620913 
L 81.369421 67.90432 
L 83.931405 65.851095 
L 86.493388 52.873243 
L 89.055372 49.894404 
L 91.617355 48.501364 
L 94.179339 41.267869 
L 96.741322 39.268788 
L 99.303306 39.842452 
L 101.865289 36.672088 
L 104.427273 41.099637 
L 106.989256 34.479301 
L 109.55124 39.445163 
L 112.113223 44.228661 
L 114.675207 33.383145 
L 117.23719 41.25733 
L 119.799174 40.655688 
L 122.361157 48.658136 
L 124.92314 48.292616 
L 127.485124 38.522195 
L 130.047107 38.970445 
L 132.609091 38.313484 
L 135.171074 59.892011 
L 137.733058 63.52852 
L 140.295041 70.225939 
L 142.857025 84.424912 
L 145.419008 89.541284 
L 147.980992 88.53494 
L 150.542975 98.283524 
L 153.104959 94.667734 
L 155.666942 90.649193 
L 158.228926 91.717533 
L 160.790909 89.731328 
L 163.352893 92.26856 
L 165.914876 96.938599 
L 168.47686 98.111231 
L 171.038843 92.370397 
L 173.600826 93.953613 
L 176.16281 96.697161 
L 178.724793 99.345655 
L 181.286777 98.771677 
L 183.84876 99.285221 
L 186.410744 99.003598 
L 188.972727 92.348212 
L 191.534711 81.480624 
L 194.096694 84.764395 
L 196.658678 88.255246 
L 199.220661 93.725858 
L 201.782645 89.202632 
L 204.344628 86.022786 
L 206.906612 83.082242 
L 209.468595 82.30839 
L 212.030579 84.082663 
L 214.592562 86.520042 
L 217.154545 85.817002 
L 219.716529 78.53037 
L 222.278512 84.232928 
L 224.840496 71.337801 
L 227.402479 76.758049 
L 229.964463 69.580056 
L 232.526446 78.59345 
L 235.08843 75.744962 
L 237.650413 65.719868 
L 240.212397 69.817409 
L 242.77438 68.723273 
L 245.336364 68.520861 
L 247.898347 72.287438 
L 250.460331 70.708291 
L 253.022314 83.624847 
L 255.584298 92.770528 
L 258.146281 76.302955 
L 260.708264 68.290147 
L 263.270248 76.767972 
L 265.832231 86.183515 
L 268.394215 84.198689 
L 270.956198 89.79423 
L 273.518182 92.294645 
" style="fill:none;stroke:#000000;stroke-linecap:square;stroke-opacity:0.7;stroke-width:1.5;"/>
   </g>
   <g id="line2d_9">
    <path clip-path="url(#p9f177917a0)" d="M 19.881818 88.171669 
L 22.443802 90.688389 
L 25.005785 95.808516 
L 27.567769 93.535324 
L 30.129752 85.984113 
L 32.691736 85.788082 
L 35.253719 95.456089 
L 37.815702 97.932831 
L 40.377686 98.348856 
L 42.939669 110.907177 
L 45.501653 119.586985 
L 48.063636 126.0941 
L 50.62562 129.105823 
L 53.187603 125.480127 
L 55.749587 129.885574 
L 58.31157 120.081053 
L 60.873554 116.646374 
L 63.435537 119.827794 
L 65.997521 118.68048 
L 68.559504 120.822112 
L 71.121488 128.628087 
L 73.683471 137.503647 
L 76.245455 134.309478 
L 78.807438 128.002182 
L 81.369421 131.12356 
L 83.931405 139.116996 
L 86.493388 133.751645 
L 89.055372 115.898117 
L 91.617355 115.068489 
L 94.179339 116.986195 
L 96.741322 118.423143 
L 99.303306 109.274262 
L 101.865289 121.201623 
L 104.427273 128.446642 
L 106.989256 130.746485 
L 109.55124 131.303456 
L 112.113223 133.697429 
L 114.675207 132.098477 
L 117.23719 126.926755 
L 119.799174 126.249988 
L 122.361157 133.543282 
L 124.92314 128.979366 
L 127.485124 122.502809 
L 130.047107 110.884509 
L 132.609091 98.553807 
L 135.171074 100.246048 
L 137.733058 100.89367 
L 140.295041 97.103549 
L 142.857025 108.335622 
L 145.419008 107.862996 
L 147.980992 105.03358 
L 150.542975 89.816948 
L 153.104959 100.210159 
L 155.666942 108.371332 
L 158.228926 115.374095 
L 160.790909 108.917108 
L 163.352893 116.800777 
L 165.914876 115.433792 
L 168.47686 116.534836 
L 171.038843 112.237254 
L 173.600826 104.485647 
L 176.16281 108.886062 
L 178.724793 104.548186 
L 181.286777 113.090405 
L 183.84876 106.126249 
L 186.410744 106.402807 
L 188.972727 101.762832 
L 191.534711 109.355928 
L 194.096694 104.19251 
L 196.658678 102.329963 
L 199.220661 99.658233 
L 201.782645 103.604337 
L 204.344628 86.298107 
L 206.906612 100.860537 
L 209.468595 88.692136 
L 212.030579 99.467804 
L 214.592562 99.878672 
L 217.154545 104.288688 
L 219.716529 102.72948 
L 222.278512 104.821172 
L 224.840496 99.893408 
L 227.402479 103.852279 
L 229.964463 100.256913 
L 232.526446 101.114503 
L 235.08843 97.763774 
L 237.650413 106.943482 
L 240.212397 104.942677 
L 242.77438 90.073666 
L 245.336364 94.540299 
L 247.898347 97.638909 
L 250.460331 97.529839 
L 253.022314 105.279444 
L 255.584298 99.861052 
L 258.146281 101.08761 
L 260.708264 97.747173 
L 263.270248 79.059816 
L 265.832231 80.143991 
L 268.394215 74.385338 
L 270.956198 76.554797 
L 273.518182 82.732439 
" style="fill:none;stroke:#000000;stroke-linecap:square;stroke-opacity:0.7;stroke-width:1.5;"/>
   </g>
   <g id="line2d_10">
    <path clip-path="url(#p9f177917a0)" d="M 19.881818 86.11107 
L 22.443802 89.923153 
L 25.005785 86.75526 
L 27.567769 79.818864 
L 30.129752 73.428841 
L 32.691736 77.684904 
L 35.253719 77.950734 
L 37.815702 79.844888 
L 40.377686 73.220067 
L 42.939669 68.566885 
L 45.501653 74.343624 
L 48.063636 68.234017 
L 50.62562 61.393737 
L 53.187603 57.459334 
L 55.749587 48.526157 
L 58.31157 47.037042 
L 60.873554 52.276432 
L 63.435537 53.564612 
L 65.997521 67.539386 
L 68.559504 82.420049 
L 71.121488 68.670637 
L 73.683471 70.968523 
L 76.245455 70.415322 
L 78.807438 75.001434 
L 81.369421 83.731732 
L 83.931405 85.229639 
L 86.493388 81.968702 
L 89.055372 83.675809 
L 91.617355 72.713109 
L 94.179339 70.021024 
L 96.741322 64.460968 
L 99.303306 41.076389 
L 101.865289 23.788292 
L 104.427273 26.596883 
L 106.989256 33.9455 
L 109.55124 44.091867 
L 112.113223 36.623832 
L 114.675207 46.005223 
L 117.23719 50.84674 
L 119.799174 55.778244 
L 122.361157 56.098041 
L 124.92314 51.468865 
L 127.485124 52.486626 
L 130.047107 54.837424 
L 132.609091 61.875991 
L 135.171074 62.134957 
L 137.733058 54.868942 
L 140.295041 45.771882 
L 142.857025 57.693531 
L 145.419008 60.681898 
L 147.980992 59.484114 
L 150.542975 71.618725 
L 153.104959 76.839355 
L 155.666942 81.718429 
L 158.228926 78.006798 
L 160.790909 77.61277 
L 163.352893 77.594175 
L 165.914876 86.612196 
L 168.47686 94.118494 
L 171.038843 87.661843 
L 173.600826 79.126353 
L 176.16281 87.116345 
L 178.724793 84.597112 
L 181.286777 70.262969 
L 183.84876 74.627307 
L 186.410744 81.382936 
L 188.972727 84.487261 
L 191.534711 82.14896 
L 194.096694 82.420699 
L 196.658678 70.988634 
L 199.220661 62.943066 
L 201.782645 64.49718 
L 204.344628 68.536232 
L 206.906612 65.430252 
L 209.468595 53.016322 
L 212.030579 54.682413 
L 214.592562 58.205672 
L 217.154545 54.428352 
L 219.716529 68.937725 
L 222.278512 68.592333 
L 224.840496 69.515272 
L 227.402479 76.214362 
L 229.964463 78.384544 
L 232.526446 82.505868 
L 235.08843 85.951852 
L 237.650413 92.138822 
L 240.212397 92.906155 
L 242.77438 84.548122 
L 245.336364 79.729857 
L 247.898347 82.790356 
L 250.460331 95.011651 
L 253.022314 93.86241 
L 255.584298 100.988309 
L 258.146281 97.187593 
L 260.708264 94.226421 
L 263.270248 95.76684 
L 265.832231 103.378286 
L 268.394215 109.666024 
L 270.956198 111.181471 
L 273.518182 121.171288 
" style="fill:none;stroke:#000000;stroke-linecap:square;stroke-opacity:0.7;stroke-width:1.5;"/>
   </g>
  </g>
 </g>
 <defs>
  <clipPath id="p9f177917a0">
   <rect height="166.32" width="279" x="7.2" y="7.2"/>
  </clipPath>
 </defs>
</svg>
