<?xml version="1.0" encoding="utf-8" standalone="no"?>
<!DOCTYPE svg PUBLIC "-//W3C//DTD SVG 1.1//EN"
  "http://www.w3.org/Graphics/SVG/1.1/DTD/svg11.dtd">
<!-- Created with matplotlib (https://matplotlib.org/) -->
<svg height="432pt" version="1.1" viewBox="0 0 504 432" width="504pt" xmlns="http://www.w3.org/2000/svg" xmlns:xlink="http://www.w3.org/1999/xlink">
 <metadata>
  <rdf:RDF xmlns:cc="http://creativecommons.org/ns#" xmlns:dc="http://purl.org/dc/elements/1.1/" xmlns:rdf="http://www.w3.org/1999/02/22-rdf-syntax-ns#">
   <cc:Work>
    <dc:type rdf:resource="http://purl.org/dc/dcmitype/StillImage"/>
    <dc:date>2021-11-29T00:25:43.416022</dc:date>
    <dc:format>image/svg+xml</dc:format>
    <dc:creator>
     <cc:Agent>
      <dc:title>Matplotlib v3.3.4, https://matplotlib.org/</dc:title>
     </cc:Agent>
    </dc:creator>
   </cc:Work>
  </rdf:RDF>
 </metadata>
 <defs>
  <style type="text/css">*{stroke-linecap:butt;stroke-linejoin:round;}</style>
 </defs>
 <g id="figure_1">
  <g id="patch_1">
   <path d="M 0 432 
L 504 432 
L 504 0 
L 0 0 
z
" style="fill:#ffffff;"/>
  </g>
  <g id="axes_1">
   <g id="patch_2">
    <path d="M 75.6 388.8 
L 453.6 388.8 
L 453.6 51.84 
L 75.6 51.84 
z
" style="fill:#ffffff;"/>
   </g>
   <g id="patch_3">
    <path clip-path="url(#p1c4d4b7109)" d="M 75.6 323.425371 
L 75.978378 322.878902 
L 76.356757 322.330507 
L 76.735135 321.780224 
L 77.113514 321.22809 
L 77.491892 320.674144 
L 77.87027 320.118425 
L 78.248649 319.560971 
L 78.627027 319.001823 
L 79.005405 318.441021 
L 79.383784 317.878605 
L 79.762162 317.314618 
L 80.140541 316.7491 
L 80.518919 316.182095 
L 80.897297 315.613645 
L 81.275676 315.043793 
L 81.654054 314.472584 
L 82.032432 313.900062 
L 82.410811 313.326272 
L 82.789189 312.751258 
L 83.167568 312.175067 
L 83.545946 311.597745 
L 83.924324 311.019339 
L 84.302703 310.439896 
L 84.681081 309.859463 
L 85.059459 309.278089 
L 85.437838 308.695822 
L 85.816216 308.112711 
L 86.194595 307.528806 
L 86.572973 306.944156 
L 86.951351 306.358811 
L 87.32973 305.772822 
L 87.708108 305.186241 
L 88.086486 304.599118 
L 88.464865 304.011505 
L 88.843243 303.423455 
L 89.221622 302.83502 
L 89.6 302.246253 
L 89.978378 301.657207 
L 90.356757 301.067936 
L 90.735135 300.478495 
L 91.113514 299.888936 
L 91.491892 299.299316 
L 91.87027 298.709688 
L 92.248649 298.120109 
L 92.627027 297.530633 
L 93.005405 296.941317 
L 93.383784 296.352217 
L 93.762162 295.763389 
L 94.140541 295.17489 
L 94.518919 294.586777 
L 94.897297 293.999108 
L 95.275676 293.411939 
L 95.654054 292.825328 
L 96.032432 292.239335 
L 96.410811 291.654015 
L 96.789189 291.069429 
L 97.167568 290.485634 
L 97.545946 289.90269 
L 97.924324 289.320654 
L 98.302703 288.739588 
L 98.681081 288.159548 
L 99.059459 287.580596 
L 99.437838 287.002791 
L 99.816216 286.426192 
L 100.194595 285.850858 
L 100.572973 285.276851 
L 100.951351 284.70423 
L 101.32973 284.133056 
L 101.708108 283.563387 
L 102.086486 282.995286 
L 102.464865 282.428811 
L 102.843243 281.864023 
L 103.221622 281.300984 
L 103.6 280.739752 
L 103.978378 280.180389 
L 104.356757 279.622955 
L 104.735135 279.067511 
L 105.113514 278.514116 
L 105.491892 277.962832 
L 105.87027 277.413719 
L 106.248649 276.866836 
L 106.627027 276.322245 
L 107.005405 275.780005 
L 107.383784 275.240177 
L 107.762162 274.70282 
L 108.140541 274.167995 
L 108.518919 273.635761 
L 108.897297 273.106177 
L 109.275676 272.579304 
L 109.654054 272.055201 
L 110.032432 271.533927 
L 110.410811 271.01554 
L 110.789189 270.500101 
L 111.167568 269.987667 
L 111.545946 269.478296 
L 111.924324 268.972048 
L 112.302703 268.46898 
L 112.681081 267.96915 
L 113.059459 267.472615 
L 113.437838 267.05639 
L 113.816216 267.332405 
L 114.194595 267.604947 
L 114.572973 267.873991 
L 114.951351 268.139512 
L 115.32973 268.401488 
L 115.708108 268.659894 
L 116.086486 268.91471 
L 116.464865 269.165915 
L 116.843243 269.413487 
L 117.221622 269.657406 
L 117.6 269.897654 
L 117.978378 270.134212 
L 118.356757 270.367062 
L 118.735135 270.596188 
L 119.113514 270.821573 
L 119.491892 271.043202 
L 119.87027 271.26106 
L 120.248649 271.475133 
L 120.627027 271.685409 
L 121.005405 271.891874 
L 121.383784 272.094518 
L 121.762162 272.29333 
L 122.140541 272.4883 
L 122.518919 272.679418 
L 122.897297 272.866677 
L 123.275676 273.05007 
L 123.654054 273.229589 
L 124.032432 273.405229 
L 124.410811 273.576986 
L 124.789189 273.744855 
L 125.167568 273.908833 
L 125.545946 274.068918 
L 125.924324 274.225108 
L 126.302703 274.377404 
L 126.681081 274.525805 
L 127.059459 274.670312 
L 127.437838 274.810929 
L 127.816216 274.947657 
L 128.194595 275.080502 
L 128.572973 275.209467 
L 128.951351 275.334559 
L 129.32973 275.455784 
L 129.708108 275.573149 
L 130.086486 275.686664 
L 130.464865 275.796338 
L 130.843243 275.902181 
L 131.221622 276.004204 
L 131.6 276.10242 
L 131.978378 276.196841 
L 132.356757 276.287481 
L 132.735135 276.374356 
L 133.113514 276.457482 
L 133.491892 276.536875 
L 133.87027 276.612552 
L 134.248649 276.684533 
L 134.627027 276.752837 
L 135.005405 276.817485 
L 135.383784 276.878498 
L 135.762162 276.935898 
L 136.140541 276.989709 
L 136.518919 277.039954 
L 136.897297 277.08666 
L 137.275676 277.129851 
L 137.654054 277.169555 
L 138.032432 277.2058 
L 138.410811 277.238614 
L 138.789189 277.268027 
L 139.167568 277.29407 
L 139.545946 277.316774 
L 139.924324 277.336171 
L 140.302703 277.352295 
L 140.681081 277.36518 
L 141.059459 277.37486 
L 141.437838 277.381372 
L 141.816216 277.384752 
L 142.194595 277.385039 
L 142.572973 277.382269 
L 142.951351 277.376484 
L 143.32973 277.367722 
L 143.708108 277.356025 
L 144.086486 277.341435 
L 144.464865 277.323994 
L 144.843243 277.303746 
L 145.221622 277.280735 
L 145.6 277.255006 
L 145.978378 277.226606 
L 146.356757 277.19558 
L 146.735135 277.161976 
L 147.113514 277.125843 
L 147.491892 277.087228 
L 147.87027 277.046184 
L 148.248649 277.002758 
L 148.627027 276.957003 
L 149.005405 276.908971 
L 149.383784 276.858714 
L 149.762162 276.806286 
L 150.140541 276.75174 
L 150.518919 276.695131 
L 150.897297 276.636514 
L 151.275676 276.575946 
L 151.654054 276.513484 
L 152.032432 276.449183 
L 152.410811 276.383103 
L 152.789189 276.315301 
L 153.167568 276.245837 
L 153.545946 276.17477 
L 153.924324 276.102161 
L 154.302703 276.02807 
L 154.681081 275.952559 
L 155.059459 275.875688 
L 155.437838 275.797522 
L 155.816216 275.718122 
L 156.194595 275.637551 
L 156.572973 275.555874 
L 156.951351 275.473154 
L 157.32973 275.389456 
L 157.708108 275.304846 
L 158.086486 275.219388 
L 158.464865 275.133148 
L 158.843243 275.046193 
L 159.221622 274.958589 
L 159.6 274.870403 
L 159.978378 274.781702 
L 160.356757 274.692554 
L 160.735135 274.603026 
L 161.113514 274.513186 
L 161.491892 274.423103 
L 161.87027 274.332844 
L 162.248649 274.24248 
L 162.627027 274.152078 
L 163.005405 274.061708 
L 163.383784 273.971439 
L 163.762162 273.881341 
L 164.140541 273.791482 
L 164.518919 273.701933 
L 164.897297 273.612763 
L 165.275676 273.524042 
L 165.654054 273.43584 
L 166.032432 273.348226 
L 166.410811 273.261271 
L 166.789189 273.175045 
L 167.167568 273.089616 
L 167.545946 273.005056 
L 167.924324 272.921432 
L 168.302703 272.838817 
L 168.681081 272.757277 
L 169.059459 272.676884 
L 169.437838 272.597707 
L 169.816216 272.519813 
L 170.194595 272.443273 
L 170.572973 272.368155 
L 170.951351 272.294527 
L 171.32973 272.222457 
L 171.708108 272.152014 
L 172.086486 272.083265 
L 172.464865 272.016278 
L 172.843243 271.951118 
L 173.221622 271.887854 
L 173.6 271.826552 
L 173.978378 271.767276 
L 174.356757 271.710093 
L 174.735135 271.655068 
L 175.113514 271.602266 
L 175.491892 271.55175 
L 175.87027 271.503584 
L 176.248649 271.457832 
L 176.627027 271.414556 
L 177.005405 271.373818 
L 177.383784 271.33568 
L 177.762162 271.300202 
L 178.140541 271.267445 
L 178.518919 271.237469 
L 178.897297 271.210333 
L 179.275676 271.186094 
L 179.654054 271.164811 
L 180.032432 271.146541 
L 180.410811 271.131341 
L 180.789189 271.119264 
L 181.167568 271.110367 
L 181.545946 271.104704 
L 181.924324 271.102327 
L 182.302703 271.103289 
L 182.681081 271.107642 
L 183.059459 271.115435 
L 183.437838 271.12672 
L 183.816216 271.141545 
L 184.194595 271.159958 
L 184.572973 271.182007 
L 184.951351 271.207736 
L 185.32973 271.237192 
L 185.708108 271.27042 
L 186.086486 271.307461 
L 186.464865 271.348358 
L 186.843243 271.393154 
L 187.221622 271.441887 
L 187.6 271.494597 
L 187.978378 271.551322 
L 188.356757 271.612099 
L 188.735135 271.676964 
L 189.113514 271.864891 
L 189.491892 272.332759 
L 189.87027 272.802065 
L 190.248649 273.272746 
L 190.627027 273.74474 
L 191.005405 274.217984 
L 191.383784 274.692415 
L 191.762162 275.167972 
L 192.140541 275.644593 
L 192.518919 276.122214 
L 192.897297 276.600774 
L 193.275676 277.080211 
L 193.654054 277.560463 
L 194.032432 278.041469 
L 194.410811 278.523168 
L 194.789189 279.005497 
L 195.167568 279.488396 
L 195.545946 279.971804 
L 195.924324 280.455659 
L 196.302703 280.939903 
L 196.681081 281.424473 
L 197.059459 281.909311 
L 197.437838 282.394355 
L 197.816216 282.879547 
L 198.194595 283.364827 
L 198.572973 283.850135 
L 198.951351 284.335413 
L 199.32973 284.820603 
L 199.708108 285.305645 
L 200.086486 285.790482 
L 200.464865 286.275055 
L 200.843243 286.759308 
L 201.221622 287.243183 
L 201.6 287.726623 
L 201.978378 288.209571 
L 202.356757 288.691972 
L 202.735135 289.173769 
L 203.113514 289.654906 
L 203.491892 290.135329 
L 203.87027 290.614982 
L 204.248649 291.09381 
L 204.627027 291.57176 
L 205.005405 292.048778 
L 205.383784 292.52481 
L 205.762162 292.999803 
L 206.140541 293.473704 
L 206.518919 293.946461 
L 206.897297 294.418022 
L 207.275676 294.888335 
L 207.654054 295.357349 
L 208.032432 295.825013 
L 208.410811 296.291277 
L 208.789189 296.75609 
L 209.167568 297.219404 
L 209.545946 297.681169 
L 209.924324 298.141336 
L 210.302703 298.599857 
L 210.681081 299.056684 
L 211.059459 299.511769 
L 211.437838 299.965066 
L 211.816216 300.416527 
L 212.194595 300.866106 
L 212.572973 301.313759 
L 212.951351 301.759438 
L 213.32973 302.2031 
L 213.708108 302.6447 
L 214.086486 303.084193 
L 214.464865 303.521537 
L 214.843243 303.956687 
L 215.221622 304.389602 
L 215.6 304.820239 
L 215.978378 305.248556 
L 216.356757 305.674511 
L 216.735135 306.098064 
L 217.113514 306.519175 
L 217.491892 306.937802 
L 217.87027 307.353907 
L 218.248649 307.767449 
L 218.627027 308.178391 
L 219.005405 308.586695 
L 219.383784 308.992321 
L 219.762162 309.395233 
L 220.140541 309.795393 
L 220.518919 310.192765 
L 220.897297 310.587313 
L 221.275676 310.979001 
L 221.654054 311.367794 
L 222.032432 311.753656 
L 222.410811 312.136554 
L 222.789189 312.516453 
L 223.167568 312.893319 
L 223.545946 313.26712 
L 223.924324 313.637822 
L 224.302703 314.005393 
L 224.681081 314.369801 
L 225.059459 314.731015 
L 225.437838 315.089003 
L 225.816216 315.443734 
L 226.194595 315.795179 
L 226.572973 316.143306 
L 226.951351 316.488087 
L 227.32973 316.829492 
L 227.708108 317.167491 
L 228.086486 317.502058 
L 228.464865 317.833163 
L 228.843243 318.160779 
L 229.221622 318.484878 
L 229.6 318.805434 
L 229.978378 319.122419 
L 230.356757 319.435808 
L 230.735135 319.745573 
L 231.113514 320.051691 
L 231.491892 320.354134 
L 231.87027 320.652879 
L 232.248649 320.947901 
L 232.627027 321.239175 
L 233.005405 321.526677 
L 233.383784 321.810384 
L 233.762162 322.090272 
L 234.140541 322.366318 
L 234.518919 322.638499 
L 234.897297 322.906794 
L 235.275676 323.171179 
L 235.654054 323.431632 
L 236.032432 323.688133 
L 236.410811 323.940659 
L 236.789189 324.18919 
L 237.167568 324.433704 
L 237.545946 324.674182 
L 237.924324 324.910603 
L 238.302703 325.142946 
L 238.681081 325.371193 
L 239.059459 325.595323 
L 239.437838 325.815317 
L 239.816216 326.031156 
L 240.194595 326.242822 
L 240.572973 326.450294 
L 240.951351 326.653556 
L 241.32973 326.852589 
L 241.708108 327.047375 
L 242.086486 327.237895 
L 242.464865 327.424134 
L 242.843243 327.606072 
L 243.221622 327.783693 
L 243.6 327.95698 
L 243.978378 328.125916 
L 244.356757 328.290484 
L 244.735135 328.450668 
L 245.113514 328.606452 
L 245.491892 328.757819 
L 245.87027 328.904753 
L 246.248649 329.047239 
L 246.627027 329.185262 
L 247.005405 329.318804 
L 247.383784 329.447852 
L 247.762162 329.572389 
L 248.140541 329.692402 
L 248.518919 329.807874 
L 248.897297 329.918792 
L 249.275676 330.02514 
L 249.654054 330.126904 
L 250.032432 330.224069 
L 250.410811 330.316622 
L 250.789189 330.404549 
L 251.167568 330.487834 
L 251.545946 330.566465 
L 251.924324 330.640427 
L 252.302703 330.709707 
L 252.681081 330.774291 
L 253.059459 330.834167 
L 253.437838 330.88932 
L 253.816216 330.939738 
L 254.194595 330.985406 
L 254.572973 331.026314 
L 254.951351 331.062446 
L 255.32973 331.093792 
L 255.708108 331.120337 
L 256.086486 331.142071 
L 256.464865 331.158979 
L 256.843243 331.17105 
L 257.221622 331.178271 
L 257.6 331.180631 
L 257.978378 331.178118 
L 258.356757 331.170719 
L 258.735135 331.158423 
L 259.113514 331.141217 
L 259.491892 331.119091 
L 259.87027 331.092034 
L 260.248649 331.060032 
L 260.627027 331.023077 
L 261.005405 330.981155 
L 261.383784 330.934257 
L 261.762162 330.882372 
L 262.140541 330.825488 
L 262.518919 330.763595 
L 262.897297 330.696683 
L 263.275676 330.624741 
L 263.654054 330.547759 
L 264.032432 330.465726 
L 264.410811 330.378635 
L 264.789189 330.350535 
L 265.167568 330.379352 
L 265.545946 330.400303 
L 265.924324 330.413352 
L 266.302703 330.418464 
L 266.681081 330.415606 
L 267.059459 330.404745 
L 267.437838 330.385852 
L 267.816216 330.358898 
L 268.194595 330.323858 
L 268.572973 330.280706 
L 268.951351 330.229418 
L 269.32973 330.169974 
L 269.708108 330.102353 
L 270.086486 330.026537 
L 270.464865 329.94251 
L 270.843243 329.850256 
L 271.221622 329.749763 
L 271.6 329.64102 
L 271.978378 329.524016 
L 272.356757 329.398744 
L 272.735135 329.265197 
L 273.113514 329.123372 
L 273.491892 328.973264 
L 273.87027 328.814874 
L 274.248649 328.648202 
L 274.627027 328.473251 
L 275.005405 328.290023 
L 275.383784 328.098526 
L 275.762162 327.898767 
L 276.140541 327.690755 
L 276.518919 327.474501 
L 276.897297 327.250018 
L 277.275676 327.017321 
L 277.654054 326.776424 
L 278.032432 326.527347 
L 278.410811 326.270109 
L 278.789189 326.00473 
L 279.167568 325.731234 
L 279.545946 325.449645 
L 279.924324 325.15999 
L 280.302703 324.862296 
L 280.681081 324.556593 
L 281.059459 324.242911 
L 281.437838 323.921284 
L 281.816216 323.591747 
L 282.194595 323.254334 
L 282.572973 322.909084 
L 282.951351 322.556036 
L 283.32973 322.19523 
L 283.708108 321.82671 
L 284.086486 321.450518 
L 284.464865 321.0667 
L 284.843243 320.675303 
L 285.221622 320.276376 
L 285.6 319.869968 
L 285.978378 319.456132 
L 286.356757 319.034919 
L 286.735135 318.606384 
L 287.113514 318.170583 
L 287.491892 317.727573 
L 287.87027 317.277414 
L 288.248649 316.820164 
L 288.627027 316.355885 
L 289.005405 315.884639 
L 289.383784 315.406492 
L 289.762162 314.921508 
L 290.140541 314.429754 
L 290.518919 313.931298 
L 290.897297 313.42621 
L 291.275676 312.914558 
L 291.654054 312.396416 
L 292.032432 311.871856 
L 292.410811 311.340952 
L 292.789189 310.803779 
L 293.167568 310.260414 
L 293.545946 309.710934 
L 293.924324 309.155418 
L 294.302703 308.593944 
L 294.681081 308.026595 
L 295.059459 307.453451 
L 295.437838 306.874596 
L 295.816216 306.290112 
L 296.194595 305.700085 
L 296.572973 305.1046 
L 296.951351 304.503743 
L 297.32973 303.897602 
L 297.708108 303.286265 
L 298.086486 302.669822 
L 298.464865 302.048361 
L 298.843243 301.421973 
L 299.221622 300.790751 
L 299.6 300.154785 
L 299.978378 299.514169 
L 300.356757 298.868997 
L 300.735135 298.219362 
L 301.113514 297.565359 
L 301.491892 296.907085 
L 301.87027 296.244634 
L 302.248649 295.578104 
L 302.627027 294.951646 
L 303.005405 294.350437 
L 303.383784 293.745095 
L 303.762162 293.135662 
L 304.140541 292.522181 
L 304.518919 291.904695 
L 304.897297 291.283248 
L 305.275676 290.657885 
L 305.654054 290.028653 
L 306.032432 289.395599 
L 306.410811 288.75877 
L 306.789189 288.118215 
L 307.167568 287.473983 
L 307.545946 286.826126 
L 307.924324 286.174693 
L 308.302703 285.519738 
L 308.681081 284.861314 
L 309.059459 284.199474 
L 309.437838 283.534272 
L 309.816216 282.865766 
L 310.194595 282.19401 
L 310.572973 281.519063 
L 310.951351 280.840982 
L 311.32973 280.159827 
L 311.708108 279.475657 
L 312.086486 278.788534 
L 312.464865 278.098519 
L 312.843243 277.405674 
L 313.221622 276.710062 
L 313.6 276.011748 
L 313.978378 275.310797 
L 314.356757 274.607275 
L 314.735135 273.901247 
L 315.113514 273.192782 
L 315.491892 272.481948 
L 315.87027 271.768813 
L 316.248649 271.053449 
L 316.627027 270.335924 
L 317.005405 269.616311 
L 317.383784 268.894683 
L 317.762162 268.171111 
L 318.140541 267.44567 
L 318.518919 266.718435 
L 318.897297 265.98948 
L 319.275676 265.258881 
L 319.654054 264.526716 
L 320.032432 263.793062 
L 320.410811 263.057997 
L 320.789189 262.3216 
L 321.167568 261.583951 
L 321.545946 260.84513 
L 321.924324 260.105217 
L 322.302703 259.364296 
L 322.681081 258.622447 
L 323.059459 257.879753 
L 323.437838 257.1363 
L 323.816216 256.39217 
L 324.194595 255.647448 
L 324.572973 254.902221 
L 324.951351 254.156573 
L 325.32973 253.410592 
L 325.708108 252.664365 
L 326.086486 251.917978 
L 326.464865 251.171522 
L 326.843243 250.425084 
L 327.221622 249.678753 
L 327.6 248.93262 
L 327.978378 248.186774 
L 328.356757 247.441307 
L 328.735135 246.696309 
L 329.113514 245.951872 
L 329.491892 245.208088 
L 329.87027 244.465049 
L 330.248649 243.722848 
L 330.627027 242.981579 
L 331.005405 242.241334 
L 331.383784 241.502208 
L 331.762162 240.764295 
L 332.140541 240.027689 
L 332.518919 239.292485 
L 332.897297 238.558777 
L 333.275676 237.826663 
L 333.654054 237.096235 
L 334.032432 236.367592 
L 334.410811 235.640828 
L 334.789189 234.916039 
L 335.167568 234.193322 
L 335.545946 233.472773 
L 335.924324 232.754489 
L 336.302703 232.038567 
L 336.681081 231.325102 
L 337.059459 230.614193 
L 337.437838 229.905935 
L 337.816216 229.200426 
L 338.194595 228.497762 
L 338.572973 227.798041 
L 338.951351 227.101359 
L 339.32973 226.407813 
L 339.708108 225.717501 
L 340.086486 225.030519 
L 340.464865 224.406789 
L 340.843243 223.812876 
L 341.221622 223.223293 
L 341.6 222.638074 
L 341.978378 222.057252 
L 342.356757 221.480858 
L 342.735135 220.908922 
L 343.113514 220.341472 
L 343.491892 219.778536 
L 343.87027 219.22014 
L 344.248649 218.66631 
L 344.627027 218.117068 
L 345.005405 217.572438 
L 345.383784 217.03244 
L 345.762162 216.497095 
L 346.140541 215.966422 
L 346.518919 215.440437 
L 346.897297 214.919158 
L 347.275676 214.4026 
L 347.654054 213.890777 
L 348.032432 213.3837 
L 348.410811 212.881383 
L 348.789189 212.383835 
L 349.167568 211.891066 
L 349.545946 211.403083 
L 349.924324 210.919894 
L 350.302703 210.441504 
L 350.681081 209.967918 
L 351.059459 209.499139 
L 351.437838 209.03517 
L 351.816216 208.576012 
L 352.194595 208.121665 
L 352.572973 207.672128 
L 352.951351 207.227399 
L 353.32973 206.787474 
L 353.708108 206.35235 
L 354.086486 205.922021 
L 354.464865 205.496482 
L 354.843243 205.075723 
L 355.221622 204.659738 
L 355.6 204.248517 
L 355.978378 203.84205 
L 356.356757 203.440324 
L 356.735135 203.043328 
L 357.113514 202.651049 
L 357.491892 202.263471 
L 357.87027 201.880581 
L 358.248649 201.502362 
L 358.627027 201.128796 
L 359.005405 200.759867 
L 359.383784 200.395555 
L 359.762162 200.03584 
L 360.140541 199.680702 
L 360.518919 199.330121 
L 360.897297 198.984072 
L 361.275676 198.642535 
L 361.654054 198.305484 
L 362.032432 197.972896 
L 362.410811 197.644745 
L 362.789189 197.321005 
L 363.167568 197.001649 
L 363.545946 196.68665 
L 363.924324 196.37598 
L 364.302703 196.06961 
L 364.681081 195.76751 
L 365.059459 195.46965 
L 365.437838 195.176 
L 365.816216 194.886527 
L 366.194595 194.6012 
L 366.572973 194.319986 
L 366.951351 194.042853 
L 367.32973 193.769766 
L 367.708108 193.50069 
L 368.086486 193.235592 
L 368.464865 192.974436 
L 368.843243 192.717186 
L 369.221622 192.463805 
L 369.6 192.214258 
L 369.978378 191.968507 
L 370.356757 191.726513 
L 370.735135 191.488241 
L 371.113514 191.253649 
L 371.491892 191.022702 
L 371.87027 190.795358 
L 372.248649 190.571578 
L 372.627027 190.351323 
L 373.005405 190.134553 
L 373.383784 189.921227 
L 373.762162 189.711304 
L 374.140541 189.504744 
L 374.518919 189.301506 
L 374.897297 189.101547 
L 375.275676 188.904827 
L 375.654054 188.711303 
L 376.032432 188.520933 
L 376.410811 188.333676 
L 376.789189 188.149489 
L 377.167568 187.96833 
L 377.545946 187.790155 
L 377.924324 187.614924 
L 378.302703 187.616279 
L 378.681081 187.66979 
L 379.059459 187.732683 
L 379.437838 187.804953 
L 379.816216 187.886595 
L 380.194595 187.9776 
L 380.572973 188.077961 
L 380.951351 188.187668 
L 381.32973 188.306708 
L 381.708108 188.435069 
L 382.086486 188.572737 
L 382.464865 188.719695 
L 382.843243 188.875927 
L 383.221622 189.041414 
L 383.6 189.216136 
L 383.978378 189.400071 
L 384.356757 189.593197 
L 384.735135 189.795489 
L 385.113514 190.006922 
L 385.491892 190.227468 
L 385.87027 190.4571 
L 386.248649 190.695788 
L 386.627027 190.9435 
L 387.005405 191.200204 
L 387.383784 191.465866 
L 387.762162 191.740451 
L 388.140541 192.023924 
L 388.518919 192.316245 
L 388.897297 192.617376 
L 389.275676 192.927277 
L 389.654054 193.245907 
L 390.032432 193.573221 
L 390.410811 193.909176 
L 390.789189 194.253727 
L 391.167568 194.606827 
L 391.545946 194.968428 
L 391.924324 195.338482 
L 392.302703 195.716937 
L 392.681081 196.103742 
L 393.059459 196.498845 
L 393.437838 196.902193 
L 393.816216 197.313729 
L 394.194595 197.733398 
L 394.572973 198.161143 
L 394.951351 198.596906 
L 395.32973 199.040626 
L 395.708108 199.492245 
L 396.086486 199.951699 
L 396.464865 200.418927 
L 396.843243 200.893864 
L 397.221622 201.376447 
L 397.6 201.86661 
L 397.978378 202.364285 
L 398.356757 202.869406 
L 398.735135 203.381903 
L 399.113514 203.901708 
L 399.491892 204.42875 
L 399.87027 204.962957 
L 400.248649 205.504258 
L 400.627027 206.052579 
L 401.005405 206.607846 
L 401.383784 207.169985 
L 401.762162 207.73892 
L 402.140541 208.314575 
L 402.518919 208.896872 
L 402.897297 209.485734 
L 403.275676 210.081081 
L 403.654054 210.682835 
L 404.032432 211.290915 
L 404.410811 211.905241 
L 404.789189 212.525731 
L 405.167568 213.152302 
L 405.545946 213.784873 
L 405.924324 214.423359 
L 406.302703 215.067677 
L 406.681081 215.717742 
L 407.059459 216.373469 
L 407.437838 217.034773 
L 407.816216 217.701566 
L 408.194595 218.373763 
L 408.572973 219.051275 
L 408.951351 219.734016 
L 409.32973 220.421898 
L 409.708108 221.114831 
L 410.086486 221.812727 
L 410.464865 222.515497 
L 410.843243 223.22305 
L 411.221622 223.935297 
L 411.6 224.652148 
L 411.978378 225.373511 
L 412.356757 226.099295 
L 412.735135 226.82941 
L 413.113514 227.563764 
L 413.491892 228.302265 
L 413.87027 229.04482 
L 414.248649 229.791339 
L 414.627027 230.541728 
L 415.005405 231.295896 
L 415.383784 232.053748 
L 415.762162 232.815194 
L 416.140541 233.580139 
L 416.518919 234.348491 
L 416.897297 235.120156 
L 417.275676 235.895042 
L 417.654054 236.673056 
L 418.032432 237.454104 
L 418.410811 238.238094 
L 418.789189 239.024932 
L 419.167568 239.814526 
L 419.545946 240.606781 
L 419.924324 241.401607 
L 420.302703 242.198909 
L 420.681081 242.998595 
L 421.059459 243.800572 
L 421.437838 244.604749 
L 421.816216 245.411033 
L 422.194595 246.219332 
L 422.572973 247.029554 
L 422.951351 247.841608 
L 423.32973 248.655403 
L 423.708108 249.470846 
L 424.086486 250.287848 
L 424.464865 251.106318 
L 424.843243 251.926165 
L 425.221622 252.747301 
L 425.6 253.569634 
L 425.978378 254.393077 
L 426.356757 255.21754 
L 426.735135 256.042935 
L 427.113514 256.869173 
L 427.491892 257.696168 
L 427.87027 258.523831 
L 428.248649 259.352077 
L 428.627027 260.180818 
L 429.005405 261.009969 
L 429.383784 261.839445 
L 429.762162 262.669161 
L 430.140541 263.499032 
L 430.518919 264.328974 
L 430.897297 265.158905 
L 431.275676 265.988741 
L 431.654054 266.818401 
L 432.032432 267.647803 
L 432.410811 268.476865 
L 432.789189 269.305508 
L 433.167568 270.133651 
L 433.545946 270.961216 
L 433.924324 271.788123 
L 434.302703 272.614296 
L 434.681081 273.439656 
L 435.059459 274.264128 
L 435.437838 275.087635 
L 435.816216 275.910102 
L 436.194595 276.731455 
L 436.572973 277.55162 
L 436.951351 278.370524 
L 437.32973 279.188094 
L 437.708108 280.004259 
L 438.086486 280.818949 
L 438.464865 281.632092 
L 438.843243 282.44362 
L 439.221622 283.253464 
L 439.6 284.061556 
L 439.978378 284.867829 
L 440.356757 285.672218 
L 440.735135 286.474656 
L 441.113514 287.275079 
L 441.491892 288.073424 
L 441.87027 288.869627 
L 442.248649 289.663626 
L 442.627027 290.455359 
L 443.005405 291.244767 
L 443.383784 292.03179 
L 443.762162 292.816369 
L 444.140541 293.598446 
L 444.518919 294.377964 
L 444.897297 295.154866 
L 445.275676 295.929098 
L 445.654054 296.700604 
L 446.032432 297.469332 
L 446.410811 298.235228 
L 446.789189 298.998241 
L 447.167568 299.75832 
L 447.545946 300.515414 
L 447.924324 301.269475 
L 448.302703 302.020453 
L 448.681081 302.768303 
L 449.059459 303.512976 
L 449.437838 304.254428 
L 449.816216 304.992614 
L 450.194595 305.727489 
L 450.572973 306.459012 
L 450.951351 307.187139 
L 451.32973 307.91183 
L 451.708108 308.633045 
L 452.086486 309.350744 
L 452.464865 310.064889 
L 452.843243 310.775442 
L 453.221622 311.482366 
L 453.6 312.185626 
L 453.6 172.044066 
L 453.221622 172.096207 
L 452.843243 172.148818 
L 452.464865 172.201893 
L 452.086486 172.255424 
L 451.708108 172.309403 
L 451.32973 172.363823 
L 450.951351 172.418677 
L 450.572973 172.473956 
L 450.194595 172.529652 
L 449.816216 172.585758 
L 449.437838 172.642265 
L 449.059459 172.699165 
L 448.681081 172.756451 
L 448.302703 172.814112 
L 447.924324 172.872142 
L 447.545946 172.930532 
L 447.167568 172.989272 
L 446.789189 173.048355 
L 446.410811 173.107771 
L 446.032432 173.167512 
L 445.654054 173.227569 
L 445.275676 173.287933 
L 444.897297 173.348595 
L 444.518919 173.409546 
L 444.140541 173.470777 
L 443.762162 173.53228 
L 443.383784 173.594044 
L 443.005405 173.656062 
L 442.627027 173.718323 
L 442.248649 173.78082 
L 441.87027 173.843542 
L 441.491892 173.906481 
L 441.113514 173.969628 
L 440.735135 174.032974 
L 440.356757 174.096509 
L 439.978378 174.160225 
L 439.6 174.224112 
L 439.221622 174.288163 
L 438.843243 174.352367 
L 438.464865 174.416716 
L 438.086486 174.481202 
L 437.708108 174.545816 
L 437.32973 174.610548 
L 436.951351 174.675392 
L 436.572973 174.740337 
L 436.194595 174.805376 
L 435.816216 174.870501 
L 435.437838 174.935703 
L 435.059459 175.000974 
L 434.681081 175.066307 
L 434.302703 175.131693 
L 433.924324 175.197126 
L 433.545946 175.262597 
L 433.167568 175.328099 
L 432.789189 175.393624 
L 432.410811 175.459167 
L 432.032432 175.524719 
L 431.654054 175.590275 
L 431.275676 175.655827 
L 430.897297 175.721369 
L 430.518919 175.786896 
L 430.140541 175.8524 
L 429.762162 175.917877 
L 429.383784 175.983321 
L 429.005405 176.048726 
L 428.627027 176.114087 
L 428.248649 176.1794 
L 427.87027 176.24466 
L 427.491892 176.309862 
L 427.113514 176.375002 
L 426.735135 176.440077 
L 426.356757 176.505083 
L 425.978378 176.570017 
L 425.6 176.634875 
L 425.221622 176.699655 
L 424.843243 176.764354 
L 424.464865 176.828971 
L 424.086486 176.893502 
L 423.708108 176.957948 
L 423.32973 177.022306 
L 422.951351 177.086577 
L 422.572973 177.150758 
L 422.194595 177.21485 
L 421.816216 177.278854 
L 421.437838 177.342769 
L 421.059459 177.406596 
L 420.681081 177.470338 
L 420.302703 177.533995 
L 419.924324 177.597569 
L 419.545946 177.661062 
L 419.167568 177.724478 
L 418.789189 177.78782 
L 418.410811 177.851091 
L 418.032432 177.914294 
L 417.654054 177.977435 
L 417.275676 178.040518 
L 416.897297 178.103549 
L 416.518919 178.166532 
L 416.140541 178.229474 
L 415.762162 178.292381 
L 415.383784 178.355261 
L 415.005405 178.41812 
L 414.627027 178.480967 
L 414.248649 178.54381 
L 413.87027 178.606657 
L 413.491892 178.669517 
L 413.113514 178.732401 
L 412.735135 178.795318 
L 412.356757 178.858278 
L 411.978378 178.921294 
L 411.6 178.984376 
L 411.221622 179.047536 
L 410.843243 179.110788 
L 410.464865 179.174143 
L 410.086486 179.237615 
L 409.708108 179.301219 
L 409.32973 179.364969 
L 408.951351 179.428879 
L 408.572973 179.492965 
L 408.194595 179.557243 
L 407.816216 179.62173 
L 407.437838 179.686442 
L 407.059459 179.751397 
L 406.681081 179.816613 
L 406.302703 179.882108 
L 405.924324 179.947901 
L 405.545946 180.014012 
L 405.167568 180.080461 
L 404.789189 180.147267 
L 404.410811 180.214453 
L 404.032432 180.282039 
L 403.654054 180.350048 
L 403.275676 180.418502 
L 402.897297 180.487424 
L 402.518919 180.556837 
L 402.140541 180.626766 
L 401.762162 180.697235 
L 401.383784 180.768269 
L 401.005405 180.839894 
L 400.627027 180.912135 
L 400.248649 180.98502 
L 399.87027 181.058574 
L 399.491892 181.132825 
L 399.113514 181.207802 
L 398.735135 181.283533 
L 398.356757 181.360046 
L 397.978378 181.437371 
L 397.6 181.515538 
L 397.221622 181.594578 
L 396.843243 181.674519 
L 396.464865 181.755395 
L 396.086486 181.837237 
L 395.708108 181.920076 
L 395.32973 182.003945 
L 394.951351 182.088878 
L 394.572973 182.174907 
L 394.194595 182.262066 
L 393.816216 182.35039 
L 393.437838 182.439913 
L 393.059459 182.53067 
L 392.681081 182.622697 
L 392.302703 182.716029 
L 391.924324 182.810703 
L 391.545946 182.906754 
L 391.167568 183.004221 
L 390.789189 183.103139 
L 390.410811 183.203548 
L 390.032432 183.305484 
L 389.654054 183.408986 
L 389.275676 183.514093 
L 388.897297 183.620843 
L 388.518919 183.729275 
L 388.140541 183.83943 
L 387.762162 183.951347 
L 387.383784 184.065065 
L 387.005405 184.180626 
L 386.627027 184.298069 
L 386.248649 184.417436 
L 385.87027 184.538767 
L 385.491892 184.662104 
L 385.113514 184.787488 
L 384.735135 184.914961 
L 384.356757 185.044564 
L 383.978378 185.17634 
L 383.6 185.31033 
L 383.221622 185.446578 
L 382.843243 185.585124 
L 382.464865 185.726013 
L 382.086486 185.869286 
L 381.708108 186.014986 
L 381.32973 186.163156 
L 380.951351 186.313839 
L 380.572973 186.467078 
L 380.194595 186.622915 
L 379.816216 186.781395 
L 379.437838 186.942559 
L 379.059459 187.106451 
L 378.681081 187.273113 
L 378.302703 187.442589 
L 377.924324 187.57215 
L 377.545946 187.537409 
L 377.167568 187.512052 
L 376.789189 187.49608 
L 376.410811 187.489489 
L 376.032432 187.492275 
L 375.654054 187.504431 
L 375.275676 187.525951 
L 374.897297 187.556826 
L 374.518919 187.597046 
L 374.140541 187.646598 
L 373.762162 187.705471 
L 373.383784 187.773649 
L 373.005405 187.851116 
L 372.627027 187.937855 
L 372.248649 188.033848 
L 371.87027 188.139073 
L 371.491892 188.25351 
L 371.113514 188.377134 
L 370.735135 188.509923 
L 370.356757 188.651849 
L 369.978378 188.802885 
L 369.6 188.963003 
L 369.221622 189.132173 
L 368.843243 189.310362 
L 368.464865 189.497539 
L 368.086486 189.693668 
L 367.708108 189.898715 
L 367.32973 190.112642 
L 366.951351 190.335411 
L 366.572973 190.566982 
L 366.194595 190.807315 
L 365.816216 191.056366 
L 365.437838 191.314093 
L 365.059459 191.580451 
L 364.681081 191.855393 
L 364.302703 192.138872 
L 363.924324 192.430839 
L 363.545946 192.731244 
L 363.167568 193.040037 
L 362.789189 193.357163 
L 362.410811 193.682571 
L 362.032432 194.016205 
L 361.654054 194.358008 
L 361.275676 194.707924 
L 360.897297 195.065894 
L 360.518919 195.431858 
L 360.140541 195.805757 
L 359.762162 196.187527 
L 359.383784 196.577107 
L 359.005405 196.974431 
L 358.627027 197.379435 
L 358.248649 197.792053 
L 357.87027 198.212217 
L 357.491892 198.639859 
L 357.113514 199.07491 
L 356.735135 199.517299 
L 356.356757 199.966955 
L 355.978378 200.423805 
L 355.6 200.887778 
L 355.221622 201.358797 
L 354.843243 201.836789 
L 354.464865 202.321677 
L 354.086486 202.813384 
L 353.708108 203.311833 
L 353.32973 203.816945 
L 352.951351 204.32864 
L 352.572973 204.846838 
L 352.194595 205.371458 
L 351.816216 205.902419 
L 351.437838 206.439637 
L 351.059459 206.983029 
L 350.681081 207.532512 
L 350.302703 208.088 
L 349.924324 208.649408 
L 349.545946 209.21665 
L 349.167568 209.789639 
L 348.789189 210.368288 
L 348.410811 210.952509 
L 348.032432 211.542212 
L 347.654054 212.13731 
L 347.275676 212.737712 
L 346.897297 213.343327 
L 346.518919 213.954067 
L 346.140541 214.569838 
L 345.762162 215.190549 
L 345.383784 215.816109 
L 345.005405 216.446425 
L 344.627027 217.081403 
L 344.248649 217.72095 
L 343.87027 218.364973 
L 343.491892 219.013378 
L 343.113514 219.666069 
L 342.735135 220.322953 
L 342.356757 220.983934 
L 341.978378 221.648918 
L 341.6 222.317808 
L 341.221622 222.990509 
L 340.843243 223.666925 
L 340.464865 224.346959 
L 340.086486 225.004995 
L 339.708108 225.607465 
L 339.32973 226.214155 
L 338.951351 226.825027 
L 338.572973 227.440043 
L 338.194595 228.059161 
L 337.816216 228.682338 
L 337.437838 229.309531 
L 337.059459 229.940694 
L 336.681081 230.575782 
L 336.302703 231.214747 
L 335.924324 231.857541 
L 335.545946 232.504113 
L 335.167568 233.154413 
L 334.789189 233.808387 
L 334.410811 234.465984 
L 334.032432 235.127147 
L 333.654054 235.791821 
L 333.275676 236.459948 
L 332.897297 237.131472 
L 332.518919 237.806331 
L 332.140541 238.484465 
L 331.762162 239.165813 
L 331.383784 239.850312 
L 331.005405 240.537897 
L 330.627027 241.228503 
L 330.248649 241.922064 
L 329.87027 242.618513 
L 329.491892 243.31778 
L 329.113514 244.019796 
L 328.735135 244.724491 
L 328.356757 245.431793 
L 327.978378 246.141628 
L 327.6 246.853923 
L 327.221622 247.568603 
L 326.843243 248.285592 
L 326.464865 249.004813 
L 326.086486 249.726188 
L 325.708108 250.449638 
L 325.32973 251.175084 
L 324.951351 251.902445 
L 324.572973 252.631638 
L 324.194595 253.362582 
L 323.816216 254.095193 
L 323.437838 254.829386 
L 323.059459 255.565077 
L 322.681081 256.302178 
L 322.302703 257.040604 
L 321.924324 257.780267 
L 321.545946 258.521077 
L 321.167568 259.262947 
L 320.789189 260.005785 
L 320.410811 260.749502 
L 320.032432 261.494005 
L 319.654054 262.239203 
L 319.275676 262.985003 
L 318.897297 263.731311 
L 318.518919 264.478034 
L 318.140541 265.225077 
L 317.762162 265.972344 
L 317.383784 266.71974 
L 317.005405 267.467169 
L 316.627027 268.214533 
L 316.248649 268.961735 
L 315.87027 269.708678 
L 315.491892 270.455263 
L 315.113514 271.201392 
L 314.735135 271.946966 
L 314.356757 272.691884 
L 313.978378 273.436048 
L 313.6 274.179357 
L 313.221622 274.92171 
L 312.843243 275.663008 
L 312.464865 276.403149 
L 312.086486 277.142032 
L 311.708108 277.879555 
L 311.32973 278.615617 
L 310.951351 279.350117 
L 310.572973 280.082952 
L 310.194595 280.81402 
L 309.816216 281.54322 
L 309.437838 282.270448 
L 309.059459 282.995605 
L 308.681081 283.718586 
L 308.302703 284.43929 
L 307.924324 285.157615 
L 307.545946 285.87346 
L 307.167568 286.586721 
L 306.789189 287.297298 
L 306.410811 288.005089 
L 306.032432 288.709992 
L 305.654054 289.411907 
L 305.275676 290.110732 
L 304.897297 290.806367 
L 304.518919 291.498712 
L 304.140541 292.187666 
L 303.762162 292.87313 
L 303.383784 293.555004 
L 303.005405 294.23319 
L 302.627027 294.907588 
L 302.248649 295.548678 
L 301.87027 296.1415 
L 301.491892 296.730067 
L 301.113514 297.314343 
L 300.735135 297.894289 
L 300.356757 298.46987 
L 299.978378 299.041048 
L 299.6 299.60779 
L 299.221622 300.17006 
L 298.843243 300.727826 
L 298.464865 301.281054 
L 298.086486 301.829713 
L 297.708108 302.373772 
L 297.32973 302.9132 
L 296.951351 303.447969 
L 296.572973 303.978049 
L 296.194595 304.503413 
L 295.816216 305.024033 
L 295.437838 305.539883 
L 295.059459 306.050938 
L 294.681081 306.557172 
L 294.302703 307.058562 
L 293.924324 307.555085 
L 293.545946 308.046717 
L 293.167568 308.533437 
L 292.789189 309.015223 
L 292.410811 309.492056 
L 292.032432 309.963914 
L 291.654054 310.430781 
L 291.275676 310.892636 
L 290.897297 311.349462 
L 290.518919 311.801242 
L 290.140541 312.247961 
L 289.762162 312.689601 
L 289.383784 313.126148 
L 289.005405 313.557588 
L 288.627027 313.983907 
L 288.248649 314.405092 
L 287.87027 314.821129 
L 287.491892 315.232008 
L 287.113514 315.637716 
L 286.735135 316.038244 
L 286.356757 316.43358 
L 285.978378 316.823716 
L 285.6 317.208642 
L 285.221622 317.588349 
L 284.843243 317.96283 
L 284.464865 318.332077 
L 284.086486 318.696084 
L 283.708108 319.054844 
L 283.32973 319.40835 
L 282.951351 319.756599 
L 282.572973 320.099584 
L 282.194595 320.437302 
L 281.816216 320.769749 
L 281.437838 321.09692 
L 281.059459 321.418814 
L 280.681081 321.735427 
L 280.302703 322.046758 
L 279.924324 322.352804 
L 279.545946 322.653565 
L 279.167568 322.949039 
L 278.789189 323.239227 
L 278.410811 323.524128 
L 278.032432 323.803742 
L 277.654054 324.078071 
L 277.275676 324.347114 
L 276.897297 324.610875 
L 276.518919 324.869354 
L 276.140541 325.122554 
L 275.762162 325.370477 
L 275.383784 325.613126 
L 275.005405 325.850504 
L 274.627027 326.082615 
L 274.248649 326.309462 
L 273.87027 326.53105 
L 273.491892 326.747382 
L 273.113514 326.958464 
L 272.735135 327.164301 
L 272.356757 327.364897 
L 271.978378 327.560258 
L 271.6 327.75039 
L 271.221622 327.935298 
L 270.843243 328.11499 
L 270.464865 328.289471 
L 270.086486 328.458748 
L 269.708108 328.622828 
L 269.32973 328.781719 
L 268.951351 328.935427 
L 268.572973 329.08396 
L 268.194595 329.227326 
L 267.816216 329.365533 
L 267.437838 329.498589 
L 267.059459 329.626502 
L 266.681081 329.74928 
L 266.302703 329.866934 
L 265.924324 329.97947 
L 265.545946 330.086899 
L 265.167568 330.18923 
L 264.789189 330.286471 
L 264.410811 330.313888 
L 264.032432 330.269455 
L 263.654054 330.217274 
L 263.275676 330.15739 
L 262.897297 330.089846 
L 262.518919 330.014689 
L 262.140541 329.931965 
L 261.762162 329.841725 
L 261.383784 329.744018 
L 261.005405 329.638896 
L 260.627027 329.526414 
L 260.248649 329.406627 
L 259.87027 329.27959 
L 259.491892 329.145361 
L 259.113514 329.004001 
L 258.735135 328.855569 
L 258.356757 328.700128 
L 257.978378 328.537741 
L 257.6 328.368474 
L 257.221622 328.192392 
L 256.843243 328.009563 
L 256.464865 327.820056 
L 256.086486 327.62394 
L 255.708108 327.421288 
L 255.32973 327.212171 
L 254.951351 326.996664 
L 254.572973 326.774841 
L 254.194595 326.546779 
L 253.816216 326.312555 
L 253.437838 326.072248 
L 253.059459 325.825936 
L 252.681081 325.573701 
L 252.302703 325.315625 
L 251.924324 325.05179 
L 251.545946 324.78228 
L 251.167568 324.507179 
L 250.789189 324.226574 
L 250.410811 323.940552 
L 250.032432 323.649199 
L 249.654054 323.352604 
L 249.275676 323.050858 
L 248.897297 322.74405 
L 248.518919 322.432271 
L 248.140541 322.115613 
L 247.762162 321.794168 
L 247.383784 321.468031 
L 247.005405 321.137296 
L 246.627027 320.802056 
L 246.248649 320.462409 
L 245.87027 320.118449 
L 245.491892 319.770274 
L 245.113514 319.417981 
L 244.735135 319.061668 
L 244.356757 318.701434 
L 243.978378 318.337377 
L 243.6 317.969597 
L 243.221622 317.598194 
L 242.843243 317.223269 
L 242.464865 316.844921 
L 242.086486 316.463253 
L 241.708108 316.078366 
L 241.32973 315.690362 
L 240.951351 315.299342 
L 240.572973 314.905409 
L 240.194595 314.508667 
L 239.816216 314.109217 
L 239.437838 313.707162 
L 239.059459 313.302607 
L 238.681081 312.895654 
L 238.302703 312.486406 
L 237.924324 312.074967 
L 237.545946 311.661442 
L 237.167568 311.245932 
L 236.789189 310.828542 
L 236.410811 310.409376 
L 236.032432 309.988536 
L 235.654054 309.566126 
L 235.275676 309.14225 
L 234.897297 308.71701 
L 234.518919 308.290509 
L 234.140541 307.862851 
L 233.762162 307.434137 
L 233.383784 307.00447 
L 233.005405 306.573951 
L 232.627027 306.142684 
L 232.248649 305.710768 
L 231.87027 305.278304 
L 231.491892 304.845394 
L 231.113514 304.412138 
L 230.735135 303.978635 
L 230.356757 303.544984 
L 229.978378 303.111285 
L 229.6 302.677635 
L 229.221622 302.244133 
L 228.843243 301.810875 
L 228.464865 301.377959 
L 228.086486 300.945479 
L 227.708108 300.513533 
L 227.32973 300.082213 
L 226.951351 299.651615 
L 226.572973 299.221832 
L 226.194595 298.792955 
L 225.816216 298.365078 
L 225.437838 297.938291 
L 225.059459 297.512685 
L 224.681081 297.088348 
L 224.302703 296.66537 
L 223.924324 296.243839 
L 223.545946 295.82384 
L 223.167568 295.405462 
L 222.789189 294.988787 
L 222.410811 294.573901 
L 222.032432 294.160887 
L 221.654054 293.749826 
L 221.275676 293.340801 
L 220.897297 292.933891 
L 220.518919 292.529176 
L 220.140541 292.126734 
L 219.762162 291.726641 
L 219.383784 291.328974 
L 219.005405 290.933807 
L 218.627027 290.541215 
L 218.248649 290.15127 
L 217.87027 289.764043 
L 217.491892 289.379604 
L 217.113514 288.998023 
L 216.735135 288.619368 
L 216.356757 288.243706 
L 215.978378 287.871101 
L 215.6 287.501618 
L 215.221622 287.13532 
L 214.843243 286.77227 
L 214.464865 286.412526 
L 214.086486 286.056148 
L 213.708108 285.703195 
L 213.32973 285.353723 
L 212.951351 285.007786 
L 212.572973 284.66544 
L 212.194595 284.326736 
L 211.816216 283.991726 
L 211.437838 283.660459 
L 211.059459 283.332984 
L 210.681081 283.009348 
L 210.302703 282.689597 
L 209.924324 282.373775 
L 209.545946 282.061925 
L 209.167568 281.754089 
L 208.789189 281.450306 
L 208.410811 281.150616 
L 208.032432 280.855056 
L 207.654054 280.563661 
L 207.275676 280.276466 
L 206.897297 279.993504 
L 206.518919 279.714806 
L 206.140541 279.440403 
L 205.762162 279.170324 
L 205.383784 278.904594 
L 205.005405 278.643242 
L 204.627027 278.386289 
L 204.248649 278.133761 
L 203.87027 277.885677 
L 203.491892 277.642058 
L 203.113514 277.402922 
L 202.735135 277.168287 
L 202.356757 276.938168 
L 201.978378 276.71258 
L 201.6 276.491534 
L 201.221622 276.275043 
L 200.843243 276.063116 
L 200.464865 275.855762 
L 200.086486 275.652987 
L 199.708108 275.454798 
L 199.32973 275.261198 
L 198.951351 275.07219 
L 198.572973 274.887775 
L 198.194595 274.707954 
L 197.816216 274.532725 
L 197.437838 274.362084 
L 197.059459 274.196028 
L 196.681081 274.034551 
L 196.302703 273.877646 
L 195.924324 273.725304 
L 195.545946 273.577516 
L 195.167568 273.43427 
L 194.789189 273.295554 
L 194.410811 273.161355 
L 194.032432 273.031657 
L 193.654054 272.906443 
L 193.275676 272.785697 
L 192.897297 272.669398 
L 192.518919 272.557527 
L 192.140541 272.450061 
L 191.762162 272.346979 
L 191.383784 272.248256 
L 191.005405 272.153867 
L 190.627027 272.063784 
L 190.248649 271.977981 
L 189.87027 271.896428 
L 189.491892 271.819095 
L 189.113514 271.745951 
L 188.735135 271.398523 
L 188.356757 270.933719 
L 187.978378 270.47054 
L 187.6 270.00905 
L 187.221622 269.549312 
L 186.843243 269.091387 
L 186.464865 268.63534 
L 186.086486 268.181231 
L 185.708108 267.729125 
L 185.32973 267.279084 
L 184.951351 266.831169 
L 184.572973 266.385444 
L 184.194595 265.941971 
L 183.816216 265.500812 
L 183.437838 265.06203 
L 183.059459 264.625685 
L 182.681081 264.191841 
L 182.302703 263.760558 
L 181.924324 263.331899 
L 181.545946 262.905925 
L 181.167568 262.482697 
L 180.789189 262.062275 
L 180.410811 261.644722 
L 180.032432 261.230097 
L 179.654054 260.818461 
L 179.275676 260.409873 
L 178.897297 260.004395 
L 178.518919 259.602085 
L 178.140541 259.203002 
L 177.762162 258.807207 
L 177.383784 258.414757 
L 177.005405 258.025712 
L 176.627027 257.640128 
L 176.248649 257.258065 
L 175.87027 256.879579 
L 175.491892 256.504728 
L 175.113514 256.133568 
L 174.735135 255.766156 
L 174.356757 255.402547 
L 173.978378 255.042798 
L 173.6 254.686963 
L 173.221622 254.335098 
L 172.843243 253.987256 
L 172.464865 253.643491 
L 172.086486 253.303857 
L 171.708108 252.968407 
L 171.32973 252.637193 
L 170.951351 252.310267 
L 170.572973 251.987681 
L 170.194595 251.669486 
L 169.816216 251.355731 
L 169.437838 251.046468 
L 169.059459 250.741744 
L 168.681081 250.44161 
L 168.302703 250.146114 
L 167.924324 249.855303 
L 167.545946 249.569224 
L 167.167568 249.287923 
L 166.789189 249.011448 
L 166.410811 248.739842 
L 166.032432 248.473151 
L 165.654054 248.211419 
L 165.275676 247.954689 
L 164.897297 247.703004 
L 164.518919 247.456407 
L 164.140541 247.214937 
L 163.762162 246.978637 
L 163.383784 246.747547 
L 163.005405 246.521705 
L 162.627027 246.301151 
L 162.248649 246.085922 
L 161.87027 245.876056 
L 161.491892 245.67159 
L 161.113514 245.472559 
L 160.735135 245.278998 
L 160.356757 245.090941 
L 159.978378 244.908423 
L 159.6 244.731476 
L 159.221622 244.560132 
L 158.843243 244.394423 
L 158.464865 244.234378 
L 158.086486 244.080028 
L 157.708108 243.931402 
L 157.32973 243.788527 
L 156.951351 243.651431 
L 156.572973 243.520141 
L 156.194595 243.394682 
L 155.816216 243.275079 
L 155.437838 243.161356 
L 155.059459 243.053537 
L 154.681081 242.951643 
L 154.302703 242.855697 
L 153.924324 242.765719 
L 153.545946 242.681728 
L 153.167568 242.603744 
L 152.789189 242.531785 
L 152.410811 242.465869 
L 152.032432 242.406011 
L 151.654054 242.352227 
L 151.275676 242.304532 
L 150.897297 242.262939 
L 150.518919 242.227462 
L 150.140541 242.198113 
L 149.762162 242.174902 
L 149.383784 242.15784 
L 149.005405 242.146937 
L 148.627027 242.1422 
L 148.248649 242.143638 
L 147.87027 242.151257 
L 147.491892 242.165063 
L 147.113514 242.185061 
L 146.735135 242.211255 
L 146.356757 242.243648 
L 145.978378 242.282242 
L 145.6 242.327039 
L 145.221622 242.378039 
L 144.843243 242.435243 
L 144.464865 242.498647 
L 144.086486 242.568251 
L 143.708108 242.644051 
L 143.32973 242.726043 
L 142.951351 242.814222 
L 142.572973 242.908583 
L 142.194595 243.009119 
L 141.816216 243.115822 
L 141.437838 243.228683 
L 141.059459 243.347695 
L 140.681081 243.472846 
L 140.302703 243.604125 
L 139.924324 243.741521 
L 139.545946 243.88502 
L 139.167568 244.034609 
L 138.789189 244.190274 
L 138.410811 244.351999 
L 138.032432 244.519767 
L 137.654054 244.693563 
L 137.275676 244.873367 
L 136.897297 245.059161 
L 136.518919 245.250926 
L 136.140541 245.448641 
L 135.762162 245.652284 
L 135.383784 245.861835 
L 135.005405 246.077268 
L 134.627027 246.298562 
L 134.248649 246.525692 
L 133.87027 246.758631 
L 133.491892 246.997355 
L 133.113514 247.241835 
L 132.735135 247.492045 
L 132.356757 247.747956 
L 131.978378 248.009539 
L 131.6 248.276763 
L 131.221622 248.549598 
L 130.843243 248.828013 
L 130.464865 249.111974 
L 130.086486 249.40145 
L 129.708108 249.696406 
L 129.32973 249.996808 
L 128.951351 250.302621 
L 128.572973 250.613808 
L 128.194595 250.930334 
L 127.816216 251.252161 
L 127.437838 251.579251 
L 127.059459 251.911565 
L 126.681081 252.249065 
L 126.302703 252.59171 
L 125.924324 252.93946 
L 125.545946 253.292274 
L 125.167568 253.650109 
L 124.789189 254.012923 
L 124.410811 254.380674 
L 124.032432 254.753317 
L 123.654054 255.130808 
L 123.275676 255.513103 
L 122.897297 255.900155 
L 122.518919 256.29192 
L 122.140541 256.68835 
L 121.762162 257.089399 
L 121.383784 257.495018 
L 121.005405 257.90516 
L 120.627027 258.319776 
L 120.248649 258.738816 
L 119.87027 259.162232 
L 119.491892 259.589973 
L 119.113514 260.021989 
L 118.735135 260.458228 
L 118.356757 260.898638 
L 117.978378 261.343169 
L 117.6 261.791767 
L 117.221622 262.244381 
L 116.843243 262.700955 
L 116.464865 263.161438 
L 116.086486 263.625775 
L 115.708108 264.093911 
L 115.32973 264.565792 
L 114.951351 265.041363 
L 114.572973 265.520569 
L 114.194595 266.003353 
L 113.816216 266.489659 
L 113.437838 266.979432 
L 113.059459 266.776925 
L 112.681081 266.494039 
L 112.302703 266.207757 
L 111.924324 265.918106 
L 111.545946 265.625114 
L 111.167568 265.328811 
L 110.789189 265.029224 
L 110.410811 264.726384 
L 110.032432 264.420321 
L 109.654054 264.111065 
L 109.275676 263.798648 
L 108.897297 263.483102 
L 108.518919 263.164459 
L 108.140541 262.842752 
L 107.762162 262.518015 
L 107.383784 262.190281 
L 107.005405 261.859585 
L 106.627027 261.525962 
L 106.248649 261.189447 
L 105.87027 260.850076 
L 105.491892 260.507885 
L 105.113514 260.162911 
L 104.735135 259.815191 
L 104.356757 259.464763 
L 103.978378 259.111664 
L 103.6 258.755933 
L 103.221622 258.397609 
L 102.843243 258.03673 
L 102.464865 257.673337 
L 102.086486 257.307468 
L 101.708108 256.939163 
L 101.32973 256.568465 
L 100.951351 256.195412 
L 100.572973 255.820046 
L 100.194595 255.442409 
L 99.816216 255.062542 
L 99.437838 254.680487 
L 99.059459 254.296285 
L 98.681081 253.909981 
L 98.302703 253.521615 
L 97.924324 253.13123 
L 97.545946 252.738871 
L 97.167568 252.34458 
L 96.789189 251.9484 
L 96.410811 251.550375 
L 96.032432 251.150549 
L 95.654054 250.748965 
L 95.275676 250.345669 
L 94.897297 249.940703 
L 94.518919 249.534113 
L 94.140541 249.125942 
L 93.762162 248.716236 
L 93.383784 248.305038 
L 93.005405 247.892394 
L 92.627027 247.478349 
L 92.248649 247.062946 
L 91.87027 246.646232 
L 91.491892 246.22825 
L 91.113514 245.809047 
L 90.735135 245.388666 
L 90.356757 244.967153 
L 89.978378 244.544552 
L 89.6 244.12091 
L 89.221622 243.69627 
L 88.843243 243.270677 
L 88.464865 242.844177 
L 88.086486 242.416814 
L 87.708108 241.988632 
L 87.32973 241.559678 
L 86.951351 241.129994 
L 86.572973 240.699626 
L 86.194595 240.268618 
L 85.816216 239.837015 
L 85.437838 239.404859 
L 85.059459 238.972197 
L 84.681081 238.53907 
L 84.302703 238.105524 
L 83.924324 237.671601 
L 83.545946 237.237346 
L 83.167568 236.802801 
L 82.789189 236.36801 
L 82.410811 235.933015 
L 82.032432 235.497859 
L 81.654054 235.062585 
L 81.275676 234.627235 
L 80.897297 234.19185 
L 80.518919 233.756474 
L 80.140541 233.321147 
L 79.762162 232.885911 
L 79.383784 232.450808 
L 79.005405 232.015877 
L 78.627027 231.581159 
L 78.248649 231.146695 
L 77.87027 230.712526 
L 77.491892 230.27869 
L 77.113514 229.845227 
L 76.735135 229.412176 
L 76.356757 228.979577 
L 75.978378 228.547468 
L 75.6 228.115887 
z
" style="fill:#1f77b4;opacity:0.2;"/>
   </g>
   <g id="matplotlib.axis_1">
    <g id="xtick_1">
     <g id="line2d_1">
      <defs>
       <path d="M 0 0 
L 0 3.5 
" id="m1278c31779" style="stroke:#000000;stroke-width:0.8;"/>
      </defs>
      <g>
       <use style="stroke:#000000;stroke-width:0.8;" x="75.6" xlink:href="#m1278c31779" y="388.8"/>
      </g>
     </g>
     <g id="text_1">
      <!-- 0 -->
      <g transform="translate(69.87375 409.477188)scale(0.18 -0.18)">
       <defs>
        <path d="M 31.78125 66.40625 
Q 24.171875 66.40625 20.328125 58.90625 
Q 16.5 51.421875 16.5 36.375 
Q 16.5 21.390625 20.328125 13.890625 
Q 24.171875 6.390625 31.78125 6.390625 
Q 39.453125 6.390625 43.28125 13.890625 
Q 47.125 21.390625 47.125 36.375 
Q 47.125 51.421875 43.28125 58.90625 
Q 39.453125 66.40625 31.78125 66.40625 
z
M 31.78125 74.21875 
Q 44.046875 74.21875 50.515625 64.515625 
Q 56.984375 54.828125 56.984375 36.375 
Q 56.984375 17.96875 50.515625 8.265625 
Q 44.046875 -1.421875 31.78125 -1.421875 
Q 19.53125 -1.421875 13.0625 8.265625 
Q 6.59375 17.96875 6.59375 36.375 
Q 6.59375 54.828125 13.0625 64.515625 
Q 19.53125 74.21875 31.78125 74.21875 
z
" id="DejaVuSans-48"/>
       </defs>
       <use xlink:href="#DejaVuSans-48"/>
      </g>
     </g>
    </g>
    <g id="xtick_2">
     <g id="line2d_2">
      <g>
       <use style="stroke:#000000;stroke-width:0.8;" x="151.2" xlink:href="#m1278c31779" y="388.8"/>
      </g>
     </g>
     <g id="text_2">
      <!-- 2 -->
      <g transform="translate(145.47375 409.477188)scale(0.18 -0.18)">
       <defs>
        <path d="M 19.1875 8.296875 
L 53.609375 8.296875 
L 53.609375 0 
L 7.328125 0 
L 7.328125 8.296875 
Q 12.9375 14.109375 22.625 23.890625 
Q 32.328125 33.6875 34.8125 36.53125 
Q 39.546875 41.84375 41.421875 45.53125 
Q 43.3125 49.21875 43.3125 52.78125 
Q 43.3125 58.59375 39.234375 62.25 
Q 35.15625 65.921875 28.609375 65.921875 
Q 23.96875 65.921875 18.8125 64.3125 
Q 13.671875 62.703125 7.8125 59.421875 
L 7.8125 69.390625 
Q 13.765625 71.78125 18.9375 73 
Q 24.125 74.21875 28.421875 74.21875 
Q 39.75 74.21875 46.484375 68.546875 
Q 53.21875 62.890625 53.21875 53.421875 
Q 53.21875 48.921875 51.53125 44.890625 
Q 49.859375 40.875 45.40625 35.40625 
Q 44.1875 33.984375 37.640625 27.21875 
Q 31.109375 20.453125 19.1875 8.296875 
z
" id="DejaVuSans-50"/>
       </defs>
       <use xlink:href="#DejaVuSans-50"/>
      </g>
     </g>
    </g>
    <g id="xtick_3">
     <g id="line2d_3">
      <g>
       <use style="stroke:#000000;stroke-width:0.8;" x="226.8" xlink:href="#m1278c31779" y="388.8"/>
      </g>
     </g>
     <g id="text_3">
      <!-- 4 -->
      <g transform="translate(221.07375 409.477188)scale(0.18 -0.18)">
       <defs>
        <path d="M 37.796875 64.3125 
L 12.890625 25.390625 
L 37.796875 25.390625 
z
M 35.203125 72.90625 
L 47.609375 72.90625 
L 47.609375 25.390625 
L 58.015625 25.390625 
L 58.015625 17.1875 
L 47.609375 17.1875 
L 47.609375 0 
L 37.796875 0 
L 37.796875 17.1875 
L 4.890625 17.1875 
L 4.890625 26.703125 
z
" id="DejaVuSans-52"/>
       </defs>
       <use xlink:href="#DejaVuSans-52"/>
      </g>
     </g>
    </g>
    <g id="xtick_4">
     <g id="line2d_4">
      <g>
       <use style="stroke:#000000;stroke-width:0.8;" x="302.4" xlink:href="#m1278c31779" y="388.8"/>
      </g>
     </g>
     <g id="text_4">
      <!-- 6 -->
      <g transform="translate(296.67375 409.477188)scale(0.18 -0.18)">
       <defs>
        <path d="M 33.015625 40.375 
Q 26.375 40.375 22.484375 35.828125 
Q 18.609375 31.296875 18.609375 23.390625 
Q 18.609375 15.53125 22.484375 10.953125 
Q 26.375 6.390625 33.015625 6.390625 
Q 39.65625 6.390625 43.53125 10.953125 
Q 47.40625 15.53125 47.40625 23.390625 
Q 47.40625 31.296875 43.53125 35.828125 
Q 39.65625 40.375 33.015625 40.375 
z
M 52.59375 71.296875 
L 52.59375 62.3125 
Q 48.875 64.0625 45.09375 64.984375 
Q 41.3125 65.921875 37.59375 65.921875 
Q 27.828125 65.921875 22.671875 59.328125 
Q 17.53125 52.734375 16.796875 39.40625 
Q 19.671875 43.65625 24.015625 45.921875 
Q 28.375 48.1875 33.59375 48.1875 
Q 44.578125 48.1875 50.953125 41.515625 
Q 57.328125 34.859375 57.328125 23.390625 
Q 57.328125 12.15625 50.6875 5.359375 
Q 44.046875 -1.421875 33.015625 -1.421875 
Q 20.359375 -1.421875 13.671875 8.265625 
Q 6.984375 17.96875 6.984375 36.375 
Q 6.984375 53.65625 15.1875 63.9375 
Q 23.390625 74.21875 37.203125 74.21875 
Q 40.921875 74.21875 44.703125 73.484375 
Q 48.484375 72.75 52.59375 71.296875 
z
" id="DejaVuSans-54"/>
       </defs>
       <use xlink:href="#DejaVuSans-54"/>
      </g>
     </g>
    </g>
    <g id="xtick_5">
     <g id="line2d_5">
      <g>
       <use style="stroke:#000000;stroke-width:0.8;" x="378" xlink:href="#m1278c31779" y="388.8"/>
      </g>
     </g>
     <g id="text_5">
      <!-- 8 -->
      <g transform="translate(372.27375 409.477188)scale(0.18 -0.18)">
       <defs>
        <path d="M 31.78125 34.625 
Q 24.75 34.625 20.71875 30.859375 
Q 16.703125 27.09375 16.703125 20.515625 
Q 16.703125 13.921875 20.71875 10.15625 
Q 24.75 6.390625 31.78125 6.390625 
Q 38.8125 6.390625 42.859375 10.171875 
Q 46.921875 13.96875 46.921875 20.515625 
Q 46.921875 27.09375 42.890625 30.859375 
Q 38.875 34.625 31.78125 34.625 
z
M 21.921875 38.8125 
Q 15.578125 40.375 12.03125 44.71875 
Q 8.5 49.078125 8.5 55.328125 
Q 8.5 64.0625 14.71875 69.140625 
Q 20.953125 74.21875 31.78125 74.21875 
Q 42.671875 74.21875 48.875 69.140625 
Q 55.078125 64.0625 55.078125 55.328125 
Q 55.078125 49.078125 51.53125 44.71875 
Q 48 40.375 41.703125 38.8125 
Q 48.828125 37.15625 52.796875 32.3125 
Q 56.78125 27.484375 56.78125 20.515625 
Q 56.78125 9.90625 50.3125 4.234375 
Q 43.84375 -1.421875 31.78125 -1.421875 
Q 19.734375 -1.421875 13.25 4.234375 
Q 6.78125 9.90625 6.78125 20.515625 
Q 6.78125 27.484375 10.78125 32.3125 
Q 14.796875 37.15625 21.921875 38.8125 
z
M 18.3125 54.390625 
Q 18.3125 48.734375 21.84375 45.5625 
Q 25.390625 42.390625 31.78125 42.390625 
Q 38.140625 42.390625 41.71875 45.5625 
Q 45.3125 48.734375 45.3125 54.390625 
Q 45.3125 60.0625 41.71875 63.234375 
Q 38.140625 66.40625 31.78125 66.40625 
Q 25.390625 66.40625 21.84375 63.234375 
Q 18.3125 60.0625 18.3125 54.390625 
z
" id="DejaVuSans-56"/>
       </defs>
       <use xlink:href="#DejaVuSans-56"/>
      </g>
     </g>
    </g>
    <g id="xtick_6">
     <g id="line2d_6">
      <g>
       <use style="stroke:#000000;stroke-width:0.8;" x="453.6" xlink:href="#m1278c31779" y="388.8"/>
      </g>
     </g>
     <g id="text_6">
      <!-- 10 -->
      <g transform="translate(442.1475 409.477188)scale(0.18 -0.18)">
       <defs>
        <path d="M 12.40625 8.296875 
L 28.515625 8.296875 
L 28.515625 63.921875 
L 10.984375 60.40625 
L 10.984375 69.390625 
L 28.421875 72.90625 
L 38.28125 72.90625 
L 38.28125 8.296875 
L 54.390625 8.296875 
L 54.390625 0 
L 12.40625 0 
z
" id="DejaVuSans-49"/>
       </defs>
       <use xlink:href="#DejaVuSans-49"/>
       <use x="63.623047" xlink:href="#DejaVuSans-48"/>
      </g>
     </g>
    </g>
    <g id="text_7">
     <!-- $x$ -->
     <g transform="translate(258.6 427.4175)scale(0.2 -0.2)">
      <defs>
       <path d="M 60.015625 54.6875 
L 34.90625 27.875 
L 50.296875 0 
L 39.984375 0 
L 28.421875 21.6875 
L 8.296875 0 
L -2.59375 0 
L 24.3125 28.8125 
L 10.015625 54.6875 
L 20.3125 54.6875 
L 30.8125 34.90625 
L 49.125 54.6875 
z
" id="DejaVuSans-Oblique-120"/>
      </defs>
      <use transform="translate(0 0.3125)" xlink:href="#DejaVuSans-Oblique-120"/>
     </g>
    </g>
   </g>
   <g id="matplotlib.axis_2">
    <g id="ytick_1">
     <g id="line2d_7">
      <defs>
       <path d="M 0 0 
L -3.5 0 
" id="m92fc2dea3c" style="stroke:#000000;stroke-width:0.8;"/>
      </defs>
      <g>
       <use style="stroke:#000000;stroke-width:0.8;" x="75.6" xlink:href="#m92fc2dea3c" y="388.8"/>
      </g>
     </g>
     <g id="text_8">
      <!-- 10 -->
      <g transform="translate(30.611562 395.638594)scale(0.18 -0.18)">
       <defs>
        <path d="M 10.59375 35.5 
L 73.1875 35.5 
L 73.1875 27.203125 
L 10.59375 27.203125 
z
" id="DejaVuSans-8722"/>
       </defs>
       <use xlink:href="#DejaVuSans-8722"/>
       <use x="83.789062" xlink:href="#DejaVuSans-49"/>
       <use x="147.412109" xlink:href="#DejaVuSans-48"/>
      </g>
     </g>
    </g>
    <g id="ytick_2">
     <g id="line2d_8">
      <g>
       <use style="stroke:#000000;stroke-width:0.8;" x="75.6" xlink:href="#m92fc2dea3c" y="332.64"/>
      </g>
     </g>
     <g id="text_9">
      <!-- 5 -->
      <g transform="translate(42.064062 339.478594)scale(0.18 -0.18)">
       <defs>
        <path d="M 10.796875 72.90625 
L 49.515625 72.90625 
L 49.515625 64.59375 
L 19.828125 64.59375 
L 19.828125 46.734375 
Q 21.96875 47.46875 24.109375 47.828125 
Q 26.265625 48.1875 28.421875 48.1875 
Q 40.625 48.1875 47.75 41.5 
Q 54.890625 34.8125 54.890625 23.390625 
Q 54.890625 11.625 47.5625 5.09375 
Q 40.234375 -1.421875 26.90625 -1.421875 
Q 22.3125 -1.421875 17.546875 -0.640625 
Q 12.796875 0.140625 7.71875 1.703125 
L 7.71875 11.625 
Q 12.109375 9.234375 16.796875 8.0625 
Q 21.484375 6.890625 26.703125 6.890625 
Q 35.15625 6.890625 40.078125 11.328125 
Q 45.015625 15.765625 45.015625 23.390625 
Q 45.015625 31 40.078125 35.4375 
Q 35.15625 39.890625 26.703125 39.890625 
Q 22.75 39.890625 18.8125 39.015625 
Q 14.890625 38.140625 10.796875 36.28125 
z
" id="DejaVuSans-53"/>
       </defs>
       <use xlink:href="#DejaVuSans-8722"/>
       <use x="83.789062" xlink:href="#DejaVuSans-53"/>
      </g>
     </g>
    </g>
    <g id="ytick_3">
     <g id="line2d_9">
      <g>
       <use style="stroke:#000000;stroke-width:0.8;" x="75.6" xlink:href="#m92fc2dea3c" y="276.48"/>
      </g>
     </g>
     <g id="text_10">
      <!-- 0 -->
      <g transform="translate(57.1475 283.318594)scale(0.18 -0.18)">
       <use xlink:href="#DejaVuSans-48"/>
      </g>
     </g>
    </g>
    <g id="ytick_4">
     <g id="line2d_10">
      <g>
       <use style="stroke:#000000;stroke-width:0.8;" x="75.6" xlink:href="#m92fc2dea3c" y="220.32"/>
      </g>
     </g>
     <g id="text_11">
      <!-- 5 -->
      <g transform="translate(57.1475 227.158594)scale(0.18 -0.18)">
       <use xlink:href="#DejaVuSans-53"/>
      </g>
     </g>
    </g>
    <g id="ytick_5">
     <g id="line2d_11">
      <g>
       <use style="stroke:#000000;stroke-width:0.8;" x="75.6" xlink:href="#m92fc2dea3c" y="164.16"/>
      </g>
     </g>
     <g id="text_12">
      <!-- 10 -->
      <g transform="translate(45.695 170.998594)scale(0.18 -0.18)">
       <use xlink:href="#DejaVuSans-49"/>
       <use x="63.623047" xlink:href="#DejaVuSans-48"/>
      </g>
     </g>
    </g>
    <g id="ytick_6">
     <g id="line2d_12">
      <g>
       <use style="stroke:#000000;stroke-width:0.8;" x="75.6" xlink:href="#m92fc2dea3c" y="108"/>
      </g>
     </g>
     <g id="text_13">
      <!-- 15 -->
      <g transform="translate(45.695 114.838594)scale(0.18 -0.18)">
       <use xlink:href="#DejaVuSans-49"/>
       <use x="63.623047" xlink:href="#DejaVuSans-53"/>
      </g>
     </g>
    </g>
    <g id="ytick_7">
     <g id="line2d_13">
      <g>
       <use style="stroke:#000000;stroke-width:0.8;" x="75.6" xlink:href="#m92fc2dea3c" y="51.84"/>
      </g>
     </g>
     <g id="text_14">
      <!-- 20 -->
      <g transform="translate(45.695 58.678594)scale(0.18 -0.18)">
       <use xlink:href="#DejaVuSans-50"/>
       <use x="63.623047" xlink:href="#DejaVuSans-48"/>
      </g>
     </g>
    </g>
    <g id="text_15">
     <!-- $f(x)$ -->
     <g transform="translate(28.452187 237.62)rotate(-90)scale(0.2 -0.2)">
      <defs>
       <path d="M 47.796875 75.984375 
L 46.390625 68.5 
L 37.796875 68.5 
Q 32.90625 68.5 30.6875 66.578125 
Q 28.46875 64.65625 27.390625 59.515625 
L 26.421875 54.6875 
L 41.21875 54.6875 
L 39.890625 47.703125 
L 25.09375 47.703125 
L 15.828125 0 
L 6.78125 0 
L 16.109375 47.703125 
L 7.515625 47.703125 
L 8.796875 54.6875 
L 17.390625 54.6875 
L 18.109375 58.5 
Q 19.96875 68.171875 24.625 72.078125 
Q 29.296875 75.984375 39.3125 75.984375 
z
" id="DejaVuSans-Oblique-102"/>
       <path d="M 31 75.875 
Q 24.46875 64.65625 21.28125 53.65625 
Q 18.109375 42.671875 18.109375 31.390625 
Q 18.109375 20.125 21.3125 9.0625 
Q 24.515625 -2 31 -13.1875 
L 23.1875 -13.1875 
Q 15.875 -1.703125 12.234375 9.375 
Q 8.59375 20.453125 8.59375 31.390625 
Q 8.59375 42.28125 12.203125 53.3125 
Q 15.828125 64.359375 23.1875 75.875 
z
" id="DejaVuSans-40"/>
       <path d="M 8.015625 75.875 
L 15.828125 75.875 
Q 23.140625 64.359375 26.78125 53.3125 
Q 30.421875 42.28125 30.421875 31.390625 
Q 30.421875 20.453125 26.78125 9.375 
Q 23.140625 -1.703125 15.828125 -13.1875 
L 8.015625 -13.1875 
Q 14.5 -2 17.703125 9.0625 
Q 20.90625 20.125 20.90625 31.390625 
Q 20.90625 42.671875 17.703125 53.65625 
Q 14.5 64.65625 8.015625 75.875 
z
" id="DejaVuSans-41"/>
      </defs>
      <use transform="translate(0 0.015625)" xlink:href="#DejaVuSans-Oblique-102"/>
      <use transform="translate(35.205078 0.015625)" xlink:href="#DejaVuSans-40"/>
      <use transform="translate(74.21875 0.015625)" xlink:href="#DejaVuSans-Oblique-120"/>
      <use transform="translate(133.398438 0.015625)" xlink:href="#DejaVuSans-41"/>
     </g>
    </g>
   </g>
   <g id="line2d_14">
    <path clip-path="url(#p1c4d4b7109)" d="M 75.6 276.48 
L 79.383784 276.367643 
L 83.167568 276.032821 
L 86.951351 275.482251 
L 91.113514 274.640784 
L 95.275676 273.572356 
L 99.816216 272.179079 
L 105.113514 270.307564 
L 111.545946 267.785939 
L 128.951351 260.827962 
L 133.87027 259.172814 
L 138.032432 257.989256 
L 141.816216 257.125585 
L 145.6 256.496125 
L 149.005405 256.153226 
L 152.410811 256.041228 
L 155.437838 256.148435 
L 158.464865 256.460102 
L 161.491892 256.983862 
L 164.518919 257.725448 
L 167.545946 258.688603 
L 170.572973 259.874999 
L 173.6 261.284179 
L 177.005405 263.132442 
L 180.410811 265.252201 
L 183.816216 267.632858 
L 187.6 270.566768 
L 191.383784 273.781019 
L 195.545946 277.605377 
L 200.464865 282.453786 
L 206.140541 288.381695 
L 215.6 298.651702 
L 223.545946 307.156034 
L 228.843243 312.498839 
L 233.005405 316.39752 
L 236.789189 319.647001 
L 240.194595 322.286716 
L 243.221622 324.375888 
L 246.248649 326.197563 
L 248.897297 327.554075 
L 251.545946 328.673972 
L 254.194595 329.54407 
L 256.843243 330.152381 
L 259.113514 330.457283 
L 261.383784 330.556038 
L 263.654054 330.443498 
L 265.924324 330.115337 
L 268.194595 329.568083 
L 270.464865 328.799144 
L 272.735135 327.806839 
L 275.005405 326.590417 
L 277.275676 325.150074 
L 279.924324 323.188269 
L 282.572973 320.926822 
L 285.221622 318.371072 
L 287.87027 315.528171 
L 290.897297 311.939109 
L 293.924324 308.003 
L 297.32973 303.184106 
L 300.735135 297.982172 
L 304.518919 291.797206 
L 308.681081 284.566072 
L 313.6 275.552817 
L 320.032432 263.242446 
L 335.924324 232.566902 
L 340.843243 223.695926 
L 345.005405 216.659755 
L 348.410811 211.302786 
L 351.816216 206.36619 
L 354.843243 202.374448 
L 357.491892 199.21703 
L 360.140541 196.396241 
L 362.410811 194.262362 
L 364.681081 192.40365 
L 366.951351 190.831537 
L 369.221622 189.55648 
L 371.113514 188.727684 
L 373.005405 188.116628 
L 374.897297 187.727658 
L 376.789189 187.564562 
L 378.681081 187.63055 
L 380.572973 187.928245 
L 382.464865 188.459668 
L 384.356757 189.226222 
L 386.248649 190.228684 
L 388.140541 191.4672 
L 390.032432 192.941271 
L 392.302703 195.019433 
L 394.572973 197.4319 
L 396.843243 200.174107 
L 399.113514 203.240138 
L 401.762162 207.216696 
L 404.410811 211.610268 
L 407.059459 216.404617 
L 410.086486 222.350642 
L 413.113514 228.764293 
L 416.518919 236.49461 
L 420.302703 245.657826 
L 424.464865 256.337835 
L 429.383784 269.607818 
L 435.816216 287.671661 
L 450.951351 330.455315 
L 453.6 337.584451 
L 453.6 337.584451 
" style="fill:none;stroke:#000000;stroke-dasharray:12,8;stroke-dashoffset:0;stroke-width:4;"/>
   </g>
   <g id="line2d_15">
    <path clip-path="url(#p1c4d4b7109)" d="M 75.6 275.770629 
L 82.410811 274.629643 
L 89.221622 273.265645 
L 96.410811 271.602195 
L 104.735135 269.441351 
L 119.491892 265.316588 
L 128.572973 262.911638 
L 134.627027 261.5257 
L 139.924324 260.538846 
L 144.464865 259.91132 
L 148.627027 259.549602 
L 152.410811 259.424486 
L 156.194595 259.516116 
L 159.978378 259.845063 
L 163.383784 260.359493 
L 166.789189 261.093246 
L 170.194595 262.056379 
L 173.6 263.256757 
L 177.005405 264.699765 
L 180.410811 266.388031 
L 183.816216 268.321179 
L 187.221622 270.495599 
L 191.005405 273.185925 
L 194.789189 276.150526 
L 198.951351 279.703802 
L 203.491892 283.888693 
L 208.789189 289.103198 
L 215.6 296.160929 
L 229.221622 310.364506 
L 234.140541 315.114584 
L 238.302703 318.814676 
L 241.708108 321.56287 
L 244.735135 323.756168 
L 247.762162 325.683279 
L 250.410811 327.128587 
L 253.059459 328.330052 
L 255.708108 329.270813 
L 257.978378 329.85793 
L 260.248649 330.23333 
L 262.518919 330.389142 
L 264.789189 330.318503 
L 267.059459 330.015623 
L 269.32973 329.475847 
L 271.6 328.695705 
L 273.87027 327.672962 
L 276.140541 326.406655 
L 278.410811 324.897118 
L 280.681081 323.14601 
L 283.32973 320.80179 
L 285.978378 318.139924 
L 288.627027 315.169896 
L 291.654054 311.413598 
L 294.681081 307.291884 
L 298.086486 302.249767 
L 301.491892 296.818576 
L 305.275676 290.384309 
L 309.816216 282.204493 
L 315.491892 271.468606 
L 335.545946 232.988443 
L 340.086486 225.017757 
L 343.87027 218.792557 
L 347.275676 213.570156 
L 350.681081 208.750215 
L 353.708108 204.832092 
L 356.735135 201.280313 
L 359.383784 198.486331 
L 362.032432 195.99455 
L 364.681081 193.811452 
L 367.32973 191.941204 
L 369.6 190.588631 
L 371.87027 189.467215 
L 374.140541 188.575671 
L 376.410811 187.911583 
L 378.681081 187.471452 
L 380.951351 187.250753 
L 383.221622 187.243996 
L 385.491892 187.444786 
L 387.762162 187.845899 
L 390.410811 188.556362 
L 393.059459 189.514758 
L 395.708108 190.70616 
L 398.735135 192.332718 
L 401.762162 194.218078 
L 405.167568 196.616381 
L 408.951351 199.581448 
L 413.113514 203.148082 
L 418.032432 207.684199 
L 424.086486 213.590675 
L 446.032432 235.318422 
L 451.708108 240.471224 
L 453.6 242.114846 
L 453.6 242.114846 
" style="fill:none;stroke:#1f77b4;stroke-linecap:square;stroke-width:6;"/>
   </g>
   <g id="patch_4">
    <path d="M 75.6 388.8 
L 75.6 51.84 
" style="fill:none;stroke:#000000;stroke-linecap:square;stroke-linejoin:miter;stroke-width:0.8;"/>
   </g>
   <g id="patch_5">
    <path d="M 453.6 388.8 
L 453.6 51.84 
" style="fill:none;stroke:#000000;stroke-linecap:square;stroke-linejoin:miter;stroke-width:0.8;"/>
   </g>
   <g id="patch_6">
    <path d="M 75.6 388.8 
L 453.6 388.8 
" style="fill:none;stroke:#000000;stroke-linecap:square;stroke-linejoin:miter;stroke-width:0.8;"/>
   </g>
   <g id="patch_7">
    <path d="M 75.6 51.84 
L 453.6 51.84 
" style="fill:none;stroke:#000000;stroke-linecap:square;stroke-linejoin:miter;stroke-width:0.8;"/>
   </g>
   <g id="PathCollection_1">
    <defs>
     <path d="M 0 6.123724 
C 1.624031 6.123724 3.181764 5.47849 4.330127 4.330127 
C 5.47849 3.181764 6.123724 1.624031 6.123724 0 
C 6.123724 -1.624031 5.47849 -3.181764 4.330127 -4.330127 
C 3.181764 -5.47849 1.624031 -6.123724 0 -6.123724 
C -1.624031 -6.123724 -3.181764 -5.47849 -4.330127 -4.330127 
C -5.47849 -3.181764 -6.123724 -1.624031 -6.123724 0 
C -6.123724 1.624031 -5.47849 3.181764 -4.330127 4.330127 
C -3.181764 5.47849 -1.624031 6.123724 0 6.123724 
z
" id="m1b530f415c" style="stroke:#d62728;"/>
    </defs>
    <g clip-path="url(#p1c4d4b7109)">
     <use style="fill:#d62728;stroke:#d62728;" x="113.4" xlink:href="#m1b530f415c" y="267.028598"/>
     <use style="fill:#d62728;stroke:#d62728;" x="189" xlink:href="#m1b530f415c" y="271.72482"/>
     <use style="fill:#d62728;stroke:#d62728;" x="264.6" xlink:href="#m1b530f415c" y="330.333187"/>
     <use style="fill:#d62728;stroke:#d62728;" x="302.4" xlink:href="#m1b530f415c" y="295.310369"/>
     <use style="fill:#d62728;stroke:#d62728;" x="340.2" xlink:href="#m1b530f415c" y="224.825086"/>
     <use style="fill:#d62728;stroke:#d62728;" x="378" xlink:href="#m1b530f415c" y="187.580225"/>
    </g>
   </g>
   <g id="legend_1">
    <g id="patch_8">
     <path d="M 88.2 171.9225 
L 264.788437 171.9225 
Q 268.388438 171.9225 268.388438 168.3225 
L 268.388438 64.44 
Q 268.388438 60.84 264.788437 60.84 
L 88.2 60.84 
Q 84.6 60.84 84.6 64.44 
L 84.6 168.3225 
Q 84.6 171.9225 88.2 171.9225 
z
" style="fill:#ffffff;opacity:0.8;stroke:#cccccc;stroke-linejoin:miter;"/>
    </g>
    <g id="line2d_16">
     <path d="M 91.8 75.417187 
L 127.8 75.417187 
" style="fill:none;stroke:#000000;stroke-dasharray:12,8;stroke-dashoffset:0;stroke-width:4;"/>
    </g>
    <g id="line2d_17"/>
    <g id="text_16">
     <!-- $f(x) = x\,\sin(x)$ -->
     <g transform="translate(142.2 81.717187)scale(0.18 -0.18)">
      <defs>
       <path d="M 10.59375 45.40625 
L 73.1875 45.40625 
L 73.1875 37.203125 
L 10.59375 37.203125 
z
M 10.59375 25.484375 
L 73.1875 25.484375 
L 73.1875 17.1875 
L 10.59375 17.1875 
z
" id="DejaVuSans-61"/>
       <path d="M 44.28125 53.078125 
L 44.28125 44.578125 
Q 40.484375 46.53125 36.375 47.5 
Q 32.28125 48.484375 27.875 48.484375 
Q 21.1875 48.484375 17.84375 46.4375 
Q 14.5 44.390625 14.5 40.28125 
Q 14.5 37.15625 16.890625 35.375 
Q 19.28125 33.59375 26.515625 31.984375 
L 29.59375 31.296875 
Q 39.15625 29.25 43.1875 25.515625 
Q 47.21875 21.78125 47.21875 15.09375 
Q 47.21875 7.46875 41.1875 3.015625 
Q 35.15625 -1.421875 24.609375 -1.421875 
Q 20.21875 -1.421875 15.453125 -0.5625 
Q 10.6875 0.296875 5.421875 2 
L 5.421875 11.28125 
Q 10.40625 8.6875 15.234375 7.390625 
Q 20.0625 6.109375 24.8125 6.109375 
Q 31.15625 6.109375 34.5625 8.28125 
Q 37.984375 10.453125 37.984375 14.40625 
Q 37.984375 18.0625 35.515625 20.015625 
Q 33.0625 21.96875 24.703125 23.78125 
L 21.578125 24.515625 
Q 13.234375 26.265625 9.515625 29.90625 
Q 5.8125 33.546875 5.8125 39.890625 
Q 5.8125 47.609375 11.28125 51.796875 
Q 16.75 56 26.8125 56 
Q 31.78125 56 36.171875 55.265625 
Q 40.578125 54.546875 44.28125 53.078125 
z
" id="DejaVuSans-115"/>
       <path d="M 9.421875 54.6875 
L 18.40625 54.6875 
L 18.40625 0 
L 9.421875 0 
z
M 9.421875 75.984375 
L 18.40625 75.984375 
L 18.40625 64.59375 
L 9.421875 64.59375 
z
" id="DejaVuSans-105"/>
       <path d="M 54.890625 33.015625 
L 54.890625 0 
L 45.90625 0 
L 45.90625 32.71875 
Q 45.90625 40.484375 42.875 44.328125 
Q 39.84375 48.1875 33.796875 48.1875 
Q 26.515625 48.1875 22.3125 43.546875 
Q 18.109375 38.921875 18.109375 30.90625 
L 18.109375 0 
L 9.078125 0 
L 9.078125 54.6875 
L 18.109375 54.6875 
L 18.109375 46.1875 
Q 21.34375 51.125 25.703125 53.5625 
Q 30.078125 56 35.796875 56 
Q 45.21875 56 50.046875 50.171875 
Q 54.890625 44.34375 54.890625 33.015625 
z
" id="DejaVuSans-110"/>
      </defs>
      <use transform="translate(0 0.015625)" xlink:href="#DejaVuSans-Oblique-102"/>
      <use transform="translate(35.205078 0.015625)" xlink:href="#DejaVuSans-40"/>
      <use transform="translate(74.21875 0.015625)" xlink:href="#DejaVuSans-Oblique-120"/>
      <use transform="translate(133.398438 0.015625)" xlink:href="#DejaVuSans-41"/>
      <use transform="translate(191.894531 0.015625)" xlink:href="#DejaVuSans-61"/>
      <use transform="translate(295.166016 0.015625)" xlink:href="#DejaVuSans-Oblique-120"/>
      <use transform="translate(370.581379 0.015625)" xlink:href="#DejaVuSans-115"/>
      <use transform="translate(422.680989 0.015625)" xlink:href="#DejaVuSans-105"/>
      <use transform="translate(450.464192 0.015625)" xlink:href="#DejaVuSans-110"/>
      <use transform="translate(513.843098 0.015625)" xlink:href="#DejaVuSans-40"/>
      <use transform="translate(552.85677 0.015625)" xlink:href="#DejaVuSans-Oblique-120"/>
      <use transform="translate(612.036458 0.015625)" xlink:href="#DejaVuSans-41"/>
     </g>
    </g>
    <g id="line2d_18">
     <path d="M 91.8 101.837812 
L 127.8 101.837812 
" style="fill:none;stroke:#1f77b4;stroke-linecap:square;stroke-width:6;"/>
    </g>
    <g id="line2d_19"/>
    <g id="text_17">
     <!-- Prediction -->
     <g transform="translate(142.2 108.137812)scale(0.18 -0.18)">
      <defs>
       <path d="M 19.671875 64.796875 
L 19.671875 37.40625 
L 32.078125 37.40625 
Q 38.96875 37.40625 42.71875 40.96875 
Q 46.484375 44.53125 46.484375 51.125 
Q 46.484375 57.671875 42.71875 61.234375 
Q 38.96875 64.796875 32.078125 64.796875 
z
M 9.8125 72.90625 
L 32.078125 72.90625 
Q 44.34375 72.90625 50.609375 67.359375 
Q 56.890625 61.8125 56.890625 51.125 
Q 56.890625 40.328125 50.609375 34.8125 
Q 44.34375 29.296875 32.078125 29.296875 
L 19.671875 29.296875 
L 19.671875 0 
L 9.8125 0 
z
" id="DejaVuSans-80"/>
       <path d="M 41.109375 46.296875 
Q 39.59375 47.171875 37.8125 47.578125 
Q 36.03125 48 33.890625 48 
Q 26.265625 48 22.1875 43.046875 
Q 18.109375 38.09375 18.109375 28.8125 
L 18.109375 0 
L 9.078125 0 
L 9.078125 54.6875 
L 18.109375 54.6875 
L 18.109375 46.1875 
Q 20.953125 51.171875 25.484375 53.578125 
Q 30.03125 56 36.53125 56 
Q 37.453125 56 38.578125 55.875 
Q 39.703125 55.765625 41.0625 55.515625 
z
" id="DejaVuSans-114"/>
       <path d="M 56.203125 29.59375 
L 56.203125 25.203125 
L 14.890625 25.203125 
Q 15.484375 15.921875 20.484375 11.0625 
Q 25.484375 6.203125 34.421875 6.203125 
Q 39.59375 6.203125 44.453125 7.46875 
Q 49.3125 8.734375 54.109375 11.28125 
L 54.109375 2.78125 
Q 49.265625 0.734375 44.1875 -0.34375 
Q 39.109375 -1.421875 33.890625 -1.421875 
Q 20.796875 -1.421875 13.15625 6.1875 
Q 5.515625 13.8125 5.515625 26.8125 
Q 5.515625 40.234375 12.765625 48.109375 
Q 20.015625 56 32.328125 56 
Q 43.359375 56 49.78125 48.890625 
Q 56.203125 41.796875 56.203125 29.59375 
z
M 47.21875 32.234375 
Q 47.125 39.59375 43.09375 43.984375 
Q 39.0625 48.390625 32.421875 48.390625 
Q 24.90625 48.390625 20.390625 44.140625 
Q 15.875 39.890625 15.1875 32.171875 
z
" id="DejaVuSans-101"/>
       <path d="M 45.40625 46.390625 
L 45.40625 75.984375 
L 54.390625 75.984375 
L 54.390625 0 
L 45.40625 0 
L 45.40625 8.203125 
Q 42.578125 3.328125 38.25 0.953125 
Q 33.9375 -1.421875 27.875 -1.421875 
Q 17.96875 -1.421875 11.734375 6.484375 
Q 5.515625 14.40625 5.515625 27.296875 
Q 5.515625 40.1875 11.734375 48.09375 
Q 17.96875 56 27.875 56 
Q 33.9375 56 38.25 53.625 
Q 42.578125 51.265625 45.40625 46.390625 
z
M 14.796875 27.296875 
Q 14.796875 17.390625 18.875 11.75 
Q 22.953125 6.109375 30.078125 6.109375 
Q 37.203125 6.109375 41.296875 11.75 
Q 45.40625 17.390625 45.40625 27.296875 
Q 45.40625 37.203125 41.296875 42.84375 
Q 37.203125 48.484375 30.078125 48.484375 
Q 22.953125 48.484375 18.875 42.84375 
Q 14.796875 37.203125 14.796875 27.296875 
z
" id="DejaVuSans-100"/>
       <path d="M 48.78125 52.59375 
L 48.78125 44.1875 
Q 44.96875 46.296875 41.140625 47.34375 
Q 37.3125 48.390625 33.40625 48.390625 
Q 24.65625 48.390625 19.8125 42.84375 
Q 14.984375 37.3125 14.984375 27.296875 
Q 14.984375 17.28125 19.8125 11.734375 
Q 24.65625 6.203125 33.40625 6.203125 
Q 37.3125 6.203125 41.140625 7.25 
Q 44.96875 8.296875 48.78125 10.40625 
L 48.78125 2.09375 
Q 45.015625 0.34375 40.984375 -0.53125 
Q 36.96875 -1.421875 32.421875 -1.421875 
Q 20.0625 -1.421875 12.78125 6.34375 
Q 5.515625 14.109375 5.515625 27.296875 
Q 5.515625 40.671875 12.859375 48.328125 
Q 20.21875 56 33.015625 56 
Q 37.15625 56 41.109375 55.140625 
Q 45.0625 54.296875 48.78125 52.59375 
z
" id="DejaVuSans-99"/>
       <path d="M 18.3125 70.21875 
L 18.3125 54.6875 
L 36.8125 54.6875 
L 36.8125 47.703125 
L 18.3125 47.703125 
L 18.3125 18.015625 
Q 18.3125 11.328125 20.140625 9.421875 
Q 21.96875 7.515625 27.59375 7.515625 
L 36.8125 7.515625 
L 36.8125 0 
L 27.59375 0 
Q 17.1875 0 13.234375 3.875 
Q 9.28125 7.765625 9.28125 18.015625 
L 9.28125 47.703125 
L 2.6875 47.703125 
L 2.6875 54.6875 
L 9.28125 54.6875 
L 9.28125 70.21875 
z
" id="DejaVuSans-116"/>
       <path d="M 30.609375 48.390625 
Q 23.390625 48.390625 19.1875 42.75 
Q 14.984375 37.109375 14.984375 27.296875 
Q 14.984375 17.484375 19.15625 11.84375 
Q 23.34375 6.203125 30.609375 6.203125 
Q 37.796875 6.203125 41.984375 11.859375 
Q 46.1875 17.53125 46.1875 27.296875 
Q 46.1875 37.015625 41.984375 42.703125 
Q 37.796875 48.390625 30.609375 48.390625 
z
M 30.609375 56 
Q 42.328125 56 49.015625 48.375 
Q 55.71875 40.765625 55.71875 27.296875 
Q 55.71875 13.875 49.015625 6.21875 
Q 42.328125 -1.421875 30.609375 -1.421875 
Q 18.84375 -1.421875 12.171875 6.21875 
Q 5.515625 13.875 5.515625 27.296875 
Q 5.515625 40.765625 12.171875 48.375 
Q 18.84375 56 30.609375 56 
z
" id="DejaVuSans-111"/>
      </defs>
      <use xlink:href="#DejaVuSans-80"/>
      <use x="58.552734" xlink:href="#DejaVuSans-114"/>
      <use x="97.416016" xlink:href="#DejaVuSans-101"/>
      <use x="158.939453" xlink:href="#DejaVuSans-100"/>
      <use x="222.416016" xlink:href="#DejaVuSans-105"/>
      <use x="250.199219" xlink:href="#DejaVuSans-99"/>
      <use x="305.179688" xlink:href="#DejaVuSans-116"/>
      <use x="344.388672" xlink:href="#DejaVuSans-105"/>
      <use x="372.171875" xlink:href="#DejaVuSans-111"/>
      <use x="433.353516" xlink:href="#DejaVuSans-110"/>
     </g>
    </g>
    <g id="patch_9">
     <path d="M 91.8 134.558437 
L 127.8 134.558437 
L 127.8 121.958437 
L 91.8 121.958437 
z
" style="fill:#1f77b4;opacity:0.2;"/>
    </g>
    <g id="text_18">
     <!-- 95% CI -->
     <g transform="translate(142.2 134.558437)scale(0.18 -0.18)">
      <defs>
       <path d="M 10.984375 1.515625 
L 10.984375 10.5 
Q 14.703125 8.734375 18.5 7.8125 
Q 22.3125 6.890625 25.984375 6.890625 
Q 35.75 6.890625 40.890625 13.453125 
Q 46.046875 20.015625 46.78125 33.40625 
Q 43.953125 29.203125 39.59375 26.953125 
Q 35.25 24.703125 29.984375 24.703125 
Q 19.046875 24.703125 12.671875 31.3125 
Q 6.296875 37.9375 6.296875 49.421875 
Q 6.296875 60.640625 12.9375 67.421875 
Q 19.578125 74.21875 30.609375 74.21875 
Q 43.265625 74.21875 49.921875 64.515625 
Q 56.59375 54.828125 56.59375 36.375 
Q 56.59375 19.140625 48.40625 8.859375 
Q 40.234375 -1.421875 26.421875 -1.421875 
Q 22.703125 -1.421875 18.890625 -0.6875 
Q 15.09375 0.046875 10.984375 1.515625 
z
M 30.609375 32.421875 
Q 37.25 32.421875 41.125 36.953125 
Q 45.015625 41.5 45.015625 49.421875 
Q 45.015625 57.28125 41.125 61.84375 
Q 37.25 66.40625 30.609375 66.40625 
Q 23.96875 66.40625 20.09375 61.84375 
Q 16.21875 57.28125 16.21875 49.421875 
Q 16.21875 41.5 20.09375 36.953125 
Q 23.96875 32.421875 30.609375 32.421875 
z
" id="DejaVuSans-57"/>
       <path d="M 72.703125 32.078125 
Q 68.453125 32.078125 66.03125 28.46875 
Q 63.625 24.859375 63.625 18.40625 
Q 63.625 12.0625 66.03125 8.421875 
Q 68.453125 4.78125 72.703125 4.78125 
Q 76.859375 4.78125 79.265625 8.421875 
Q 81.6875 12.0625 81.6875 18.40625 
Q 81.6875 24.8125 79.265625 28.4375 
Q 76.859375 32.078125 72.703125 32.078125 
z
M 72.703125 38.28125 
Q 80.421875 38.28125 84.953125 32.90625 
Q 89.5 27.546875 89.5 18.40625 
Q 89.5 9.28125 84.9375 3.921875 
Q 80.375 -1.421875 72.703125 -1.421875 
Q 64.890625 -1.421875 60.34375 3.921875 
Q 55.8125 9.28125 55.8125 18.40625 
Q 55.8125 27.59375 60.375 32.9375 
Q 64.9375 38.28125 72.703125 38.28125 
z
M 22.3125 68.015625 
Q 18.109375 68.015625 15.6875 64.375 
Q 13.28125 60.75 13.28125 54.390625 
Q 13.28125 47.953125 15.671875 44.328125 
Q 18.0625 40.71875 22.3125 40.71875 
Q 26.5625 40.71875 28.96875 44.328125 
Q 31.390625 47.953125 31.390625 54.390625 
Q 31.390625 60.6875 28.953125 64.34375 
Q 26.515625 68.015625 22.3125 68.015625 
z
M 66.40625 74.21875 
L 74.21875 74.21875 
L 28.609375 -1.421875 
L 20.796875 -1.421875 
z
M 22.3125 74.21875 
Q 30.03125 74.21875 34.609375 68.875 
Q 39.203125 63.53125 39.203125 54.390625 
Q 39.203125 45.171875 34.640625 39.84375 
Q 30.078125 34.515625 22.3125 34.515625 
Q 14.546875 34.515625 10.03125 39.859375 
Q 5.515625 45.21875 5.515625 54.390625 
Q 5.515625 63.484375 10.046875 68.84375 
Q 14.59375 74.21875 22.3125 74.21875 
z
" id="DejaVuSans-37"/>
       <path id="DejaVuSans-32"/>
       <path d="M 64.40625 67.28125 
L 64.40625 56.890625 
Q 59.421875 61.53125 53.78125 63.8125 
Q 48.140625 66.109375 41.796875 66.109375 
Q 29.296875 66.109375 22.65625 58.46875 
Q 16.015625 50.828125 16.015625 36.375 
Q 16.015625 21.96875 22.65625 14.328125 
Q 29.296875 6.6875 41.796875 6.6875 
Q 48.140625 6.6875 53.78125 8.984375 
Q 59.421875 11.28125 64.40625 15.921875 
L 64.40625 5.609375 
Q 59.234375 2.09375 53.4375 0.328125 
Q 47.65625 -1.421875 41.21875 -1.421875 
Q 24.65625 -1.421875 15.125 8.703125 
Q 5.609375 18.84375 5.609375 36.375 
Q 5.609375 53.953125 15.125 64.078125 
Q 24.65625 74.21875 41.21875 74.21875 
Q 47.75 74.21875 53.53125 72.484375 
Q 59.328125 70.75 64.40625 67.28125 
z
" id="DejaVuSans-67"/>
       <path d="M 9.8125 72.90625 
L 19.671875 72.90625 
L 19.671875 0 
L 9.8125 0 
z
" id="DejaVuSans-73"/>
      </defs>
      <use xlink:href="#DejaVuSans-57"/>
      <use x="63.623047" xlink:href="#DejaVuSans-53"/>
      <use x="127.246094" xlink:href="#DejaVuSans-37"/>
      <use x="222.265625" xlink:href="#DejaVuSans-32"/>
      <use x="254.052734" xlink:href="#DejaVuSans-67"/>
      <use x="323.876953" xlink:href="#DejaVuSans-73"/>
     </g>
    </g>
    <g id="PathCollection_2">
     <g>
      <use style="fill:#d62728;stroke:#d62728;" x="109.8" xlink:href="#m1b530f415c" y="156.254062"/>
     </g>
    </g>
    <g id="text_19">
     <!-- Observations -->
     <g transform="translate(142.2 160.979062)scale(0.18 -0.18)">
      <defs>
       <path d="M 39.40625 66.21875 
Q 28.65625 66.21875 22.328125 58.203125 
Q 16.015625 50.203125 16.015625 36.375 
Q 16.015625 22.609375 22.328125 14.59375 
Q 28.65625 6.59375 39.40625 6.59375 
Q 50.140625 6.59375 56.421875 14.59375 
Q 62.703125 22.609375 62.703125 36.375 
Q 62.703125 50.203125 56.421875 58.203125 
Q 50.140625 66.21875 39.40625 66.21875 
z
M 39.40625 74.21875 
Q 54.734375 74.21875 63.90625 63.9375 
Q 73.09375 53.65625 73.09375 36.375 
Q 73.09375 19.140625 63.90625 8.859375 
Q 54.734375 -1.421875 39.40625 -1.421875 
Q 24.03125 -1.421875 14.8125 8.828125 
Q 5.609375 19.09375 5.609375 36.375 
Q 5.609375 53.65625 14.8125 63.9375 
Q 24.03125 74.21875 39.40625 74.21875 
z
" id="DejaVuSans-79"/>
       <path d="M 48.6875 27.296875 
Q 48.6875 37.203125 44.609375 42.84375 
Q 40.53125 48.484375 33.40625 48.484375 
Q 26.265625 48.484375 22.1875 42.84375 
Q 18.109375 37.203125 18.109375 27.296875 
Q 18.109375 17.390625 22.1875 11.75 
Q 26.265625 6.109375 33.40625 6.109375 
Q 40.53125 6.109375 44.609375 11.75 
Q 48.6875 17.390625 48.6875 27.296875 
z
M 18.109375 46.390625 
Q 20.953125 51.265625 25.265625 53.625 
Q 29.59375 56 35.59375 56 
Q 45.5625 56 51.78125 48.09375 
Q 58.015625 40.1875 58.015625 27.296875 
Q 58.015625 14.40625 51.78125 6.484375 
Q 45.5625 -1.421875 35.59375 -1.421875 
Q 29.59375 -1.421875 25.265625 0.953125 
Q 20.953125 3.328125 18.109375 8.203125 
L 18.109375 0 
L 9.078125 0 
L 9.078125 75.984375 
L 18.109375 75.984375 
z
" id="DejaVuSans-98"/>
       <path d="M 2.984375 54.6875 
L 12.5 54.6875 
L 29.59375 8.796875 
L 46.6875 54.6875 
L 56.203125 54.6875 
L 35.6875 0 
L 23.484375 0 
z
" id="DejaVuSans-118"/>
       <path d="M 34.28125 27.484375 
Q 23.390625 27.484375 19.1875 25 
Q 14.984375 22.515625 14.984375 16.5 
Q 14.984375 11.71875 18.140625 8.90625 
Q 21.296875 6.109375 26.703125 6.109375 
Q 34.1875 6.109375 38.703125 11.40625 
Q 43.21875 16.703125 43.21875 25.484375 
L 43.21875 27.484375 
z
M 52.203125 31.203125 
L 52.203125 0 
L 43.21875 0 
L 43.21875 8.296875 
Q 40.140625 3.328125 35.546875 0.953125 
Q 30.953125 -1.421875 24.3125 -1.421875 
Q 15.921875 -1.421875 10.953125 3.296875 
Q 6 8.015625 6 15.921875 
Q 6 25.140625 12.171875 29.828125 
Q 18.359375 34.515625 30.609375 34.515625 
L 43.21875 34.515625 
L 43.21875 35.40625 
Q 43.21875 41.609375 39.140625 45 
Q 35.0625 48.390625 27.6875 48.390625 
Q 23 48.390625 18.546875 47.265625 
Q 14.109375 46.140625 10.015625 43.890625 
L 10.015625 52.203125 
Q 14.9375 54.109375 19.578125 55.046875 
Q 24.21875 56 28.609375 56 
Q 40.484375 56 46.34375 49.84375 
Q 52.203125 43.703125 52.203125 31.203125 
z
" id="DejaVuSans-97"/>
      </defs>
      <use xlink:href="#DejaVuSans-79"/>
      <use x="78.710938" xlink:href="#DejaVuSans-98"/>
      <use x="142.1875" xlink:href="#DejaVuSans-115"/>
      <use x="194.287109" xlink:href="#DejaVuSans-101"/>
      <use x="255.810547" xlink:href="#DejaVuSans-114"/>
      <use x="296.923828" xlink:href="#DejaVuSans-118"/>
      <use x="356.103516" xlink:href="#DejaVuSans-97"/>
      <use x="417.382812" xlink:href="#DejaVuSans-116"/>
      <use x="456.591797" xlink:href="#DejaVuSans-105"/>
      <use x="484.375" xlink:href="#DejaVuSans-111"/>
      <use x="545.556641" xlink:href="#DejaVuSans-110"/>
      <use x="608.935547" xlink:href="#DejaVuSans-115"/>
     </g>
    </g>
   </g>
  </g>
 </g>
 <defs>
  <clipPath id="p1c4d4b7109">
   <rect height="336.96" width="378" x="75.6" y="51.84"/>
  </clipPath>
 </defs>
</svg>
