<?xml version="1.0" encoding="utf-8" standalone="no"?>
<!DOCTYPE svg PUBLIC "-//W3C//DTD SVG 1.1//EN"
  "http://www.w3.org/Graphics/SVG/1.1/DTD/svg11.dtd">
<!-- Created with matplotlib (https://matplotlib.org/) -->
<svg height="180.72pt" version="1.1" viewBox="0 0 293.4 180.72" width="293.4pt" xmlns="http://www.w3.org/2000/svg" xmlns:xlink="http://www.w3.org/1999/xlink">
 <metadata>
  <rdf:RDF xmlns:cc="http://creativecommons.org/ns#" xmlns:dc="http://purl.org/dc/elements/1.1/" xmlns:rdf="http://www.w3.org/1999/02/22-rdf-syntax-ns#">
   <cc:Work>
    <dc:type rdf:resource="http://purl.org/dc/dcmitype/StillImage"/>
    <dc:date>2021-11-25T19:29:53.661856</dc:date>
    <dc:format>image/svg+xml</dc:format>
    <dc:creator>
     <cc:Agent>
      <dc:title>Matplotlib v3.3.4, https://matplotlib.org/</dc:title>
     </cc:Agent>
    </dc:creator>
   </cc:Work>
  </rdf:RDF>
 </metadata>
 <defs>
  <style type="text/css">*{stroke-linecap:butt;stroke-linejoin:round;}</style>
 </defs>
 <g id="figure_1">
  <g id="patch_1">
   <path d="M 0 180.72 
L 293.4 180.72 
L 293.4 0 
L 0 0 
z
" style="fill:none;"/>
  </g>
  <g id="axes_1">
   <g id="line2d_1">
    <path clip-path="url(#p29b73844c4)" d="M 19.881818 162.026943 
L 22.443802 160.729009 
L 25.005785 158.921841 
L 27.567769 158.711182 
L 30.129752 158.553432 
L 32.691736 157.450061 
L 35.253719 155.046242 
L 37.815702 153.595889 
L 40.377686 151.198327 
L 42.939669 149.841813 
L 45.501653 149.320568 
L 48.063636 148.219644 
L 50.62562 146.87794 
L 53.187603 144.849254 
L 55.749587 140.938364 
L 58.31157 136.355762 
L 60.873554 131.156176 
L 63.435537 127.128304 
L 65.997521 122.994273 
L 68.559504 118.717052 
L 71.121488 114.581251 
L 73.683471 110.658906 
L 76.245455 107.444552 
L 78.807438 104.260217 
L 81.369421 100.653743 
L 83.931405 96.920791 
L 86.493388 94.417564 
L 89.055372 92.762943 
L 91.617355 91.322985 
L 94.179339 90.821652 
L 96.741322 90.749894 
L 99.303306 92.394113 
L 101.865289 94.397282 
L 104.427273 96.822102 
L 106.989256 98.983771 
L 109.55124 101.038176 
L 112.113223 103.015914 
L 114.675207 103.08971 
L 117.23719 102.227095 
L 119.799174 102.174642 
L 122.361157 105.044508 
L 124.92314 108.547509 
L 127.485124 110.852104 
L 130.047107 112.814576 
L 132.609091 115.000996 
L 135.171074 118.228466 
L 137.733058 120.905674 
L 140.295041 122.999417 
L 142.857025 124.982534 
L 145.419008 126.600734 
L 147.980992 128.286571 
L 150.542975 129.63715 
L 153.104959 132.219948 
L 155.666942 133.930292 
L 158.228926 134.703296 
L 160.790909 133.756576 
L 163.352893 130.658075 
L 165.914876 127.458665 
L 168.47686 124.716014 
L 171.038843 123.333207 
L 173.600826 122.884588 
L 176.16281 122.912837 
L 178.724793 123.300755 
L 181.286777 121.986478 
L 183.84876 120.492196 
L 186.410744 118.760281 
L 188.972727 116.183272 
L 191.534711 114.640205 
L 194.096694 114.72703 
L 196.658678 116.107844 
L 199.220661 118.247101 
L 201.782645 119.767142 
L 204.344628 119.869321 
L 206.906612 119.997964 
L 209.468595 120.775489 
L 212.030579 120.225346 
L 214.592562 118.174918 
L 217.154545 117.004189 
L 219.716529 116.177394 
L 222.278512 116.181328 
L 224.840496 114.984683 
L 227.402479 113.602819 
L 229.964463 112.576475 
L 232.526446 112.133705 
L 235.08843 112.984567 
L 237.650413 113.542168 
L 240.212397 113.542322 
L 242.77438 111.855401 
L 245.336364 108.669501 
L 247.898347 106.453463 
L 250.460331 103.930378 
L 253.022314 101.078906 
L 255.584298 98.681523 
L 258.146281 97.680512 
L 260.708264 96.839992 
L 263.270248 97.171685 
L 265.832231 96.300191 
L 268.394215 94.920439 
L 270.956198 93.338273 
L 273.518182 91.370144 
" style="fill:none;stroke:#000000;stroke-linecap:square;stroke-opacity:0.7;stroke-width:1.5;"/>
   </g>
   <g id="line2d_2">
    <path clip-path="url(#p29b73844c4)" d="M 19.881818 61.005619 
L 22.443802 61.137881 
L 25.005785 62.753463 
L 27.567769 64.39781 
L 30.129752 67.088792 
L 32.691736 69.765015 
L 35.253719 73.050598 
L 37.815702 75.773169 
L 40.377686 76.818519 
L 42.939669 79.148915 
L 45.501653 80.809004 
L 48.063636 82.548457 
L 50.62562 84.26748 
L 53.187603 86.214926 
L 55.749587 88.069688 
L 58.31157 90.405775 
L 60.873554 92.19786 
L 63.435537 94.108931 
L 65.997521 96.516713 
L 68.559504 99.32233 
L 71.121488 100.403767 
L 73.683471 101.55096 
L 76.245455 101.869489 
L 78.807438 102.217572 
L 81.369421 100.828707 
L 83.931405 99.666944 
L 86.493388 99.088541 
L 89.055372 99.945317 
L 91.617355 101.406561 
L 94.179339 102.550435 
L 96.741322 102.712531 
L 99.303306 103.997653 
L 101.865289 106.243394 
L 104.427273 109.19922 
L 106.989256 112.575803 
L 109.55124 115.219196 
L 112.113223 116.220235 
L 114.675207 116.454761 
L 117.23719 115.527151 
L 119.799174 113.583627 
L 122.361157 111.084628 
L 124.92314 109.138341 
L 127.485124 107.084855 
L 130.047107 106.33873 
L 132.609091 106.294213 
L 135.171074 107.007623 
L 137.733058 108.84265 
L 140.295041 111.88253 
L 142.857025 116.75327 
L 145.419008 121.486077 
L 147.980992 125.737944 
L 150.542975 131.574574 
L 153.104959 137.524385 
L 155.666942 143.563513 
L 158.228926 150.522182 
L 160.790909 157.551559 
L 163.352893 162.843254 
L 165.914876 167.373847 
L 168.47686 170.401663 
L 171.038843 170.605591 
L 173.600826 169.530044 
L 176.16281 168.838774 
L 178.724793 167.799856 
L 181.286777 165.607567 
L 183.84876 164.137504 
L 186.410744 162.337303 
L 188.972727 159.486715 
L 191.534711 156.040702 
L 194.096694 152.364669 
L 196.658678 149.367743 
L 199.220661 147.028482 
L 201.782645 143.324357 
L 204.344628 140.665468 
L 206.906612 139.712457 
L 209.468595 138.733337 
L 212.030579 136.785247 
L 214.592562 132.999851 
L 217.154545 129.272972 
L 219.716529 127.032223 
L 222.278512 126.348475 
L 224.840496 123.85264 
L 227.402479 121.749342 
L 229.964463 120.236267 
L 232.526446 118.333922 
L 235.08843 116.58683 
L 237.650413 113.820883 
L 240.212397 112.378865 
L 242.77438 110.552215 
L 245.336364 109.416301 
L 247.898347 107.438163 
L 250.460331 104.807498 
L 253.022314 102.149974 
L 255.584298 99.439263 
L 258.146281 97.861244 
L 260.708264 97.155866 
L 263.270248 96.49068 
L 265.832231 96.600219 
L 268.394215 98.122393 
L 270.956198 99.754218 
L 273.518182 100.008429 
" style="fill:none;stroke:#000000;stroke-linecap:square;stroke-opacity:0.7;stroke-width:1.5;"/>
   </g>
   <g id="line2d_3">
    <path clip-path="url(#p29b73844c4)" d="M 19.881818 125.286346 
L 22.443802 123.753918 
L 25.005785 121.417323 
L 27.567769 118.990252 
L 30.129752 115.562664 
L 32.691736 112.832106 
L 35.253719 110.341836 
L 37.815702 108.34334 
L 40.377686 105.549516 
L 42.939669 102.676652 
L 45.501653 100.519656 
L 48.063636 97.968874 
L 50.62562 95.347911 
L 53.187603 93.175391 
L 55.749587 90.695876 
L 58.31157 88.402698 
L 60.873554 86.674822 
L 63.435537 84.888955 
L 65.997521 82.472443 
L 68.559504 80.51111 
L 71.121488 78.94941 
L 73.683471 76.836609 
L 76.245455 75.47171 
L 78.807438 75.27895 
L 81.369421 73.474847 
L 83.931405 70.319867 
L 86.493388 67.999706 
L 89.055372 67.940373 
L 91.617355 69.333597 
L 94.179339 70.871772 
L 96.741322 72.917645 
L 99.303306 74.23763 
L 101.865289 75.101757 
L 104.427273 76.307405 
L 106.989256 77.267582 
L 109.55124 77.147485 
L 112.113223 76.369406 
L 114.675207 75.385419 
L 117.23719 74.869878 
L 119.799174 75.094491 
L 122.361157 75.437537 
L 124.92314 75.755981 
L 127.485124 75.152987 
L 130.047107 74.267348 
L 132.609091 74.986824 
L 135.171074 75.134833 
L 137.733058 74.098931 
L 140.295041 72.830476 
L 142.857025 72.927628 
L 145.419008 72.537389 
L 147.980992 73.046282 
L 150.542975 74.218803 
L 153.104959 73.600446 
L 155.666942 73.842496 
L 158.228926 73.655637 
L 160.790909 74.669922 
L 163.352893 76.112305 
L 165.914876 76.215835 
L 168.47686 75.211769 
L 171.038843 74.781366 
L 173.600826 74.797787 
L 176.16281 76.235438 
L 178.724793 77.685222 
L 181.286777 79.705991 
L 183.84876 82.615422 
L 186.410744 83.577196 
L 188.972727 84.178768 
L 191.534711 84.5287 
L 194.096694 84.481234 
L 196.658678 84.033542 
L 199.220661 83.742127 
L 201.782645 83.446205 
L 204.344628 85.526643 
L 206.906612 88.986828 
L 209.468595 92.910885 
L 212.030579 96.962755 
L 214.592562 100.236764 
L 217.154545 102.538326 
L 219.716529 103.69662 
L 222.278512 104.648487 
L 224.840496 104.516129 
L 227.402479 105.982613 
L 229.964463 106.627012 
L 232.526446 106.176829 
L 235.08843 105.361616 
L 237.650413 104.735911 
L 240.212397 103.893239 
L 242.77438 103.497055 
L 245.336364 102.187856 
L 247.898347 101.417999 
L 250.460331 100.981023 
L 253.022314 99.168253 
L 255.584298 97.672538 
L 258.146281 94.892319 
L 260.708264 93.364794 
L 263.270248 93.137398 
L 265.832231 91.307588 
L 268.394215 90.121218 
L 270.956198 89.475329 
L 273.518182 89.503214 
" style="fill:none;stroke:#000000;stroke-linecap:square;stroke-opacity:0.7;stroke-width:1.5;"/>
   </g>
   <g id="line2d_4">
    <path clip-path="url(#p29b73844c4)" d="M 19.881818 112.355335 
L 22.443802 108.049388 
L 25.005785 105.794997 
L 27.567769 104.286468 
L 30.129752 104.240896 
L 32.691736 103.955646 
L 35.253719 102.632856 
L 37.815702 99.256641 
L 40.377686 95.510904 
L 42.939669 94.147008 
L 45.501653 92.432596 
L 48.063636 90.188505 
L 50.62562 87.905493 
L 53.187603 86.83369 
L 55.749587 86.635398 
L 58.31157 86.326766 
L 60.873554 86.485338 
L 63.435537 86.451647 
L 65.997521 85.596279 
L 68.559504 85.719319 
L 71.121488 86.267565 
L 73.683471 88.432797 
L 76.245455 89.589131 
L 78.807438 90.9312 
L 81.369421 91.789825 
L 83.931405 93.964177 
L 86.493388 94.955086 
L 89.055372 96.106798 
L 91.617355 97.095518 
L 94.179339 97.873317 
L 96.741322 98.451202 
L 99.303306 99.109409 
L 101.865289 99.72831 
L 104.427273 100.205082 
L 106.989256 100.224021 
L 109.55124 98.939973 
L 112.113223 97.167789 
L 114.675207 94.767245 
L 117.23719 92.095167 
L 119.799174 89.61912 
L 122.361157 87.079398 
L 124.92314 84.730651 
L 127.485124 81.479068 
L 130.047107 78.431933 
L 132.609091 75.890697 
L 135.171074 73.751711 
L 137.733058 71.673082 
L 140.295041 68.411841 
L 142.857025 65.987549 
L 145.419008 64.132379 
L 147.980992 62.918464 
L 150.542975 62.767389 
L 153.104959 62.515918 
L 155.666942 61.965533 
L 158.228926 60.600505 
L 160.790909 59.519783 
L 163.352893 59.618499 
L 165.914876 60.034943 
L 168.47686 59.238691 
L 171.038843 57.827023 
L 173.600826 56.147501 
L 176.16281 53.340879 
L 178.724793 50.39794 
L 181.286777 47.731601 
L 183.84876 46.478771 
L 186.410744 45.216036 
L 188.972727 43.637319 
L 191.534711 42.027622 
L 194.096694 39.084322 
L 196.658678 36.905486 
L 199.220661 36.339878 
L 201.782645 36.673624 
L 204.344628 37.575948 
L 206.906612 37.57355 
L 209.468595 37.278502 
L 212.030579 38.23693 
L 214.592562 38.801909 
L 217.154545 38.969016 
L 219.716529 37.864684 
L 222.278512 37.30058 
L 224.840496 38.758131 
L 227.402479 40.893145 
L 229.964463 43.444551 
L 232.526446 45.13509 
L 235.08843 47.201965 
L 237.650413 49.497812 
L 240.212397 52.110318 
L 242.77438 55.987882 
L 245.336364 59.236605 
L 247.898347 62.539332 
L 250.460331 64.774573 
L 253.022314 65.584218 
L 255.584298 67.044156 
L 258.146281 67.505227 
L 260.708264 68.232384 
L 263.270248 68.840696 
L 265.832231 68.62649 
L 268.394215 66.44415 
L 270.956198 64.262716 
L 273.518182 62.319849 
" style="fill:none;stroke:#000000;stroke-linecap:square;stroke-opacity:0.7;stroke-width:1.5;"/>
   </g>
   <g id="line2d_5">
    <path clip-path="url(#p29b73844c4)" d="M 19.881818 66.594284 
L 22.443802 67.471238 
L 25.005785 67.653578 
L 27.567769 68.030166 
L 30.129752 67.563055 
L 32.691736 67.231324 
L 35.253719 67.54618 
L 37.815702 68.6338 
L 40.377686 70.292181 
L 42.939669 72.649172 
L 45.501653 75.19619 
L 48.063636 78.205433 
L 50.62562 79.722735 
L 53.187603 80.590582 
L 55.749587 80.879376 
L 58.31157 81.038049 
L 60.873554 82.062955 
L 63.435537 81.877221 
L 65.997521 81.721821 
L 68.559504 81.663304 
L 71.121488 81.865878 
L 73.683471 81.841789 
L 76.245455 82.060133 
L 78.807438 81.640797 
L 81.369421 81.837997 
L 83.931405 79.88471 
L 86.493388 77.653322 
L 89.055372 75.820589 
L 91.617355 74.34093 
L 94.179339 71.948764 
L 96.741322 71.396057 
L 99.303306 69.430442 
L 101.865289 66.061347 
L 104.427273 64.121977 
L 106.989256 60.677394 
L 109.55124 56.987752 
L 112.113223 54.464615 
L 114.675207 54.11367 
L 117.23719 54.467127 
L 119.799174 55.272627 
L 122.361157 55.426016 
L 124.92314 56.029537 
L 127.485124 56.058782 
L 130.047107 55.634352 
L 132.609091 56.524493 
L 135.171074 59.006814 
L 137.733058 60.842776 
L 140.295041 61.086917 
L 142.857025 61.737569 
L 145.419008 62.322248 
L 147.980992 62.502651 
L 150.542975 63.707072 
L 153.104959 64.934354 
L 155.666942 66.303495 
L 158.228926 68.673072 
L 160.790909 71.040566 
L 163.352893 73.758193 
L 165.914876 75.862543 
L 168.47686 77.589334 
L 171.038843 79.090182 
L 173.600826 80.539347 
L 176.16281 81.493397 
L 178.724793 83.228233 
L 181.286777 85.951925 
L 183.84876 88.660436 
L 186.410744 92.629834 
L 188.972727 96.785216 
L 191.534711 101.18462 
L 194.096694 105.864122 
L 196.658678 110.080987 
L 199.220661 113.589815 
L 201.782645 113.528723 
L 204.344628 112.01586 
L 206.906612 111.863694 
L 209.468595 112.363245 
L 212.030579 113.368075 
L 214.592562 113.825042 
L 217.154545 114.620595 
L 219.716529 112.425659 
L 222.278512 110.426051 
L 224.840496 108.538077 
L 227.402479 106.638731 
L 229.964463 106.559984 
L 232.526446 107.059584 
L 235.08843 108.474998 
L 237.650413 110.172339 
L 240.212397 110.818921 
L 242.77438 110.522549 
L 245.336364 110.236826 
L 247.898347 109.421403 
L 250.460331 107.283004 
L 253.022314 104.295734 
L 255.584298 100.427462 
L 258.146281 95.921356 
L 260.708264 91.898017 
L 263.270248 89.033054 
L 265.832231 87.336099 
L 268.394215 86.251469 
L 270.956198 86.808849 
L 273.518182 86.305841 
" style="fill:none;stroke:#000000;stroke-linecap:square;stroke-opacity:0.7;stroke-width:1.5;"/>
   </g>
   <g id="line2d_6">
    <path clip-path="url(#p29b73844c4)" d="M 19.881818 120.965623 
L 22.443802 119.337041 
L 25.005785 118.683985 
L 27.567769 116.652055 
L 30.129752 113.627702 
L 32.691736 109.460214 
L 35.253719 106.465034 
L 37.815702 103.821383 
L 40.377686 100.619622 
L 42.939669 97.597794 
L 45.501653 95.145775 
L 48.063636 93.400198 
L 50.62562 92.984406 
L 53.187603 93.57383 
L 55.749587 94.38559 
L 58.31157 95.135044 
L 60.873554 95.808591 
L 63.435537 95.573826 
L 65.997521 94.294801 
L 68.559504 94.293674 
L 71.121488 96.311509 
L 73.683471 98.631411 
L 76.245455 101.35885 
L 78.807438 103.096824 
L 81.369421 104.185104 
L 83.931405 105.03679 
L 86.493388 106.708496 
L 89.055372 108.028635 
L 91.617355 109.173768 
L 94.179339 110.230303 
L 96.741322 110.237226 
L 99.303306 109.116118 
L 101.865289 107.38814 
L 104.427273 105.818918 
L 106.989256 103.839664 
L 109.55124 101.724585 
L 112.113223 99.926456 
L 114.675207 96.741523 
L 117.23719 93.72683 
L 119.799174 90.261927 
L 122.361157 86.207187 
L 124.92314 83.374952 
L 127.485124 81.03263 
L 130.047107 77.49366 
L 132.609091 76.08899 
L 135.171074 76.143988 
L 137.733058 76.419774 
L 140.295041 76.402165 
L 142.857025 75.262959 
L 145.419008 75.775394 
L 147.980992 76.285312 
L 150.542975 78.033459 
L 153.104959 79.597864 
L 155.666942 81.170947 
L 158.228926 83.062954 
L 160.790909 85.430577 
L 163.352893 87.691466 
L 165.914876 88.415549 
L 168.47686 90.034126 
L 171.038843 91.600126 
L 173.600826 91.938766 
L 176.16281 90.41002 
L 178.724793 88.624639 
L 181.286777 87.529221 
L 183.84876 87.591735 
L 186.410744 87.389768 
L 188.972727 87.516042 
L 191.534711 89.214837 
L 194.096694 90.685509 
L 196.658678 92.395581 
L 199.220661 93.831484 
L 201.782645 95.645294 
L 204.344628 98.578272 
L 206.906612 102.433965 
L 209.468595 106.843822 
L 212.030579 111.262899 
L 214.592562 114.554214 
L 217.154545 115.5212 
L 219.716529 113.941582 
L 222.278512 111.00772 
L 224.840496 108.169788 
L 227.402479 105.764049 
L 229.964463 103.525437 
L 232.526446 101.4926 
L 235.08843 100.147967 
L 237.650413 100.52301 
L 240.212397 101.193598 
L 242.77438 103.38254 
L 245.336364 106.128311 
L 247.898347 109.211576 
L 250.460331 109.558736 
L 253.022314 107.696102 
L 255.584298 107.951974 
L 258.146281 108.568733 
L 260.708264 109.114094 
L 263.270248 110.134522 
L 265.832231 111.031792 
L 268.394215 109.820712 
L 270.956198 107.013037 
L 273.518182 104.848713 
" style="fill:none;stroke:#000000;stroke-linecap:square;stroke-opacity:0.7;stroke-width:1.5;"/>
   </g>
   <g id="line2d_7">
    <path clip-path="url(#p29b73844c4)" d="M 19.881818 72.016342 
L 22.443802 70.021776 
L 25.005785 68.169206 
L 27.567769 67.504418 
L 30.129752 68.295134 
L 32.691736 69.338486 
L 35.253719 69.60657 
L 37.815702 69.753344 
L 40.377686 69.876909 
L 42.939669 68.367506 
L 45.501653 66.4657 
L 48.063636 63.79996 
L 50.62562 61.331229 
L 53.187603 60.465247 
L 55.749587 59.675885 
L 58.31157 59.249483 
L 60.873554 60.663431 
L 63.435537 61.636182 
L 65.997521 63.333813 
L 68.559504 66.083236 
L 71.121488 69.476879 
L 73.683471 73.587938 
L 76.245455 75.475246 
L 78.807438 77.166791 
L 81.369421 78.778483 
L 83.931405 80.281052 
L 86.493388 80.836894 
L 89.055372 82.968335 
L 91.617355 84.863984 
L 94.179339 85.818625 
L 96.741322 86.287135 
L 99.303306 84.258309 
L 101.865289 82.010362 
L 104.427273 79.465051 
L 106.989256 77.037535 
L 109.55124 73.783976 
L 112.113223 70.632745 
L 114.675207 68.359858 
L 117.23719 67.247007 
L 119.799174 66.258316 
L 122.361157 64.933694 
L 124.92314 64.72575 
L 127.485124 64.264292 
L 130.047107 63.865538 
L 132.609091 64.603546 
L 135.171074 64.941798 
L 137.733058 63.662028 
L 140.295041 64.696029 
L 142.857025 65.184501 
L 145.419008 66.38839 
L 147.980992 66.675336 
L 150.542975 66.459815 
L 153.104959 66.060292 
L 155.666942 65.435385 
L 158.228926 64.901084 
L 160.790909 64.001065 
L 163.352893 63.200402 
L 165.914876 63.107511 
L 168.47686 63.030547 
L 171.038843 64.017688 
L 173.600826 64.678141 
L 176.16281 65.405728 
L 178.724793 66.822992 
L 181.286777 68.820611 
L 183.84876 70.0402 
L 186.410744 70.916102 
L 188.972727 71.511739 
L 191.534711 70.843085 
L 194.096694 70.412749 
L 196.658678 68.493086 
L 199.220661 67.450276 
L 201.782645 66.826928 
L 204.344628 66.233821 
L 206.906612 65.266015 
L 209.468595 63.391889 
L 212.030579 62.985356 
L 214.592562 62.60415 
L 217.154545 62.952427 
L 219.716529 62.247225 
L 222.278512 61.946391 
L 224.840496 62.862092 
L 227.402479 63.275155 
L 229.964463 64.199126 
L 232.526446 64.288774 
L 235.08843 63.892832 
L 237.650413 62.484119 
L 240.212397 62.274256 
L 242.77438 61.845499 
L 245.336364 59.220424 
L 247.898347 56.182751 
L 250.460331 52.325807 
L 253.022314 49.535004 
L 255.584298 46.496603 
L 258.146281 43.110443 
L 260.708264 41.080966 
L 263.270248 41.199327 
L 265.832231 41.575669 
L 268.394215 40.905968 
L 270.956198 40.223686 
L 273.518182 40.231854 
" style="fill:none;stroke:#000000;stroke-linecap:square;stroke-opacity:0.7;stroke-width:1.5;"/>
   </g>
   <g id="line2d_8">
    <path clip-path="url(#p29b73844c4)" d="M 19.881818 49.922006 
L 22.443802 49.181498 
L 25.005785 48.491067 
L 27.567769 47.332666 
L 30.129752 48.240682 
L 32.691736 50.891449 
L 35.253719 54.064275 
L 37.815702 57.269748 
L 40.377686 59.629484 
L 42.939669 59.609329 
L 45.501653 60.286571 
L 48.063636 61.733678 
L 50.62562 63.578414 
L 53.187603 64.160754 
L 55.749587 63.208076 
L 58.31157 61.993625 
L 60.873554 60.578765 
L 63.435537 58.837529 
L 65.997521 57.341966 
L 68.559504 55.527565 
L 71.121488 53.775527 
L 73.683471 51.01558 
L 76.245455 48.679394 
L 78.807438 47.273053 
L 81.369421 46.542878 
L 83.931405 45.434583 
L 86.493388 43.504656 
L 89.055372 41.069942 
L 91.617355 40.30275 
L 94.179339 39.829029 
L 96.741322 39.823349 
L 99.303306 40.143849 
L 101.865289 38.885816 
L 104.427273 37.544265 
L 106.989256 37.218595 
L 109.55124 37.950777 
L 112.113223 38.094519 
L 114.675207 38.36553 
L 117.23719 39.679394 
L 119.799174 41.40158 
L 122.361157 45.089107 
L 124.92314 48.961846 
L 127.485124 52.075901 
L 130.047107 55.039945 
L 132.609091 57.486801 
L 135.171074 59.302795 
L 137.733058 60.692987 
L 140.295041 63.456741 
L 142.857025 68.208379 
L 145.419008 72.640925 
L 147.980992 76.366627 
L 150.542975 79.0863 
L 153.104959 83.03457 
L 155.666942 87.91684 
L 158.228926 92.753868 
L 160.790909 97.145697 
L 163.352893 99.852235 
L 165.914876 100.89568 
L 168.47686 101.845617 
L 171.038843 101.336223 
L 173.600826 99.573845 
L 176.16281 98.337541 
L 178.724793 96.790961 
L 181.286777 95.943567 
L 183.84876 95.237311 
L 186.410744 94.961606 
L 188.972727 94.022084 
L 191.534711 92.073567 
L 194.096694 89.880808 
L 196.658678 88.143583 
L 199.220661 85.940801 
L 201.782645 84.223263 
L 204.344628 83.058092 
L 206.906612 81.388518 
L 209.468595 79.503232 
L 212.030579 76.617125 
L 214.592562 74.347636 
L 217.154545 72.690635 
L 219.716529 71.788544 
L 222.278512 71.692887 
L 224.840496 71.500358 
L 227.402479 71.238101 
L 229.964463 72.358844 
L 232.526446 74.214616 
L 235.08843 76.486836 
L 237.650413 76.891984 
L 240.212397 77.564669 
L 242.77438 79.027167 
L 245.336364 81.173817 
L 247.898347 82.194594 
L 250.460331 82.769713 
L 253.022314 83.185524 
L 255.584298 82.145573 
L 258.146281 81.595602 
L 260.708264 81.237579 
L 263.270248 81.60061 
L 265.832231 81.412014 
L 268.394215 79.45829 
L 270.956198 77.243918 
L 273.518182 76.916742 
" style="fill:none;stroke:#000000;stroke-linecap:square;stroke-opacity:0.7;stroke-width:1.5;"/>
   </g>
   <g id="line2d_9">
    <path clip-path="url(#p29b73844c4)" d="M 19.881818 112.776389 
L 22.443802 112.568907 
L 25.005785 113.250154 
L 27.567769 113.811892 
L 30.129752 114.371211 
L 32.691736 114.317961 
L 35.253719 113.972679 
L 37.815702 112.71521 
L 40.377686 110.45983 
L 42.939669 109.716166 
L 45.501653 109.638662 
L 48.063636 110.105985 
L 50.62562 112.8484 
L 53.187603 116.592324 
L 55.749587 119.141329 
L 58.31157 121.307462 
L 60.873554 123.130302 
L 63.435537 123.92804 
L 65.997521 123.513827 
L 68.559504 122.622676 
L 71.121488 122.764089 
L 73.683471 123.263507 
L 76.245455 122.14101 
L 78.807438 120.396042 
L 81.369421 119.840608 
L 83.931405 120.52065 
L 86.493388 121.5514 
L 89.055372 123.124361 
L 91.617355 124.767592 
L 94.179339 125.507303 
L 96.741322 124.430109 
L 99.303306 122.754159 
L 101.865289 121.597391 
L 104.427273 120.938331 
L 106.989256 118.92082 
L 109.55124 117.777927 
L 112.113223 117.095857 
L 114.675207 116.698951 
L 117.23719 116.611307 
L 119.799174 117.099624 
L 122.361157 119.069646 
L 124.92314 121.854213 
L 127.485124 124.002784 
L 130.047107 125.505637 
L 132.609091 127.466459 
L 135.171074 129.172488 
L 137.733058 129.685304 
L 140.295041 130.206286 
L 142.857025 130.733979 
L 145.419008 132.259021 
L 147.980992 132.417248 
L 150.542975 130.869934 
L 153.104959 127.805334 
L 155.666942 124.840291 
L 158.228926 121.167686 
L 160.790909 118.562502 
L 163.352893 116.184193 
L 165.914876 113.516095 
L 168.47686 110.873484 
L 171.038843 108.872782 
L 173.600826 106.65723 
L 176.16281 103.450575 
L 178.724793 100.26907 
L 181.286777 97.966988 
L 183.84876 96.934863 
L 186.410744 96.378084 
L 188.972727 96.523367 
L 191.534711 95.250431 
L 194.096694 95.471227 
L 196.658678 94.943422 
L 199.220661 95.145236 
L 201.782645 95.136031 
L 204.344628 95.94411 
L 206.906612 96.66571 
L 209.468595 97.011518 
L 212.030579 95.638919 
L 214.592562 94.228497 
L 217.154545 92.907524 
L 219.716529 92.943711 
L 222.278512 91.618807 
L 224.840496 90.787704 
L 227.402479 90.324361 
L 229.964463 91.006458 
L 232.526446 91.884609 
L 235.08843 93.026004 
L 237.650413 94.574908 
L 240.212397 96.396495 
L 242.77438 97.648798 
L 245.336364 98.15112 
L 247.898347 98.303548 
L 250.460331 98.23222 
L 253.022314 98.528758 
L 255.584298 99.564155 
L 258.146281 101.446478 
L 260.708264 101.828067 
L 263.270248 102.633299 
L 265.832231 104.401258 
L 268.394215 105.514179 
L 270.956198 107.238934 
L 273.518182 107.673349 
" style="fill:none;stroke:#000000;stroke-linecap:square;stroke-opacity:0.7;stroke-width:1.5;"/>
   </g>
   <g id="line2d_10">
    <path clip-path="url(#p29b73844c4)" d="M 19.881818 58.84156 
L 22.443802 59.028919 
L 25.005785 59.876248 
L 27.567769 62.214322 
L 30.129752 64.676188 
L 32.691736 66.023019 
L 35.253719 65.997561 
L 37.815702 66.079011 
L 40.377686 67.21738 
L 42.939669 68.827944 
L 45.501653 70.149 
L 48.063636 71.523663 
L 50.62562 72.336529 
L 53.187603 71.536456 
L 55.749587 71.158863 
L 58.31157 69.879861 
L 60.873554 68.334622 
L 63.435537 68.576437 
L 65.997521 69.067736 
L 68.559504 68.411609 
L 71.121488 67.476982 
L 73.683471 66.807665 
L 76.245455 66.919027 
L 78.807438 66.827596 
L 81.369421 66.976436 
L 83.931405 69.08811 
L 86.493388 71.263855 
L 89.055372 71.433795 
L 91.617355 71.133214 
L 94.179339 69.600382 
L 96.741322 68.879868 
L 99.303306 68.506494 
L 101.865289 67.470397 
L 104.427273 64.561963 
L 106.989256 60.604764 
L 109.55124 55.777184 
L 112.113223 50.008959 
L 114.675207 43.956504 
L 117.23719 39.065283 
L 119.799174 35.343687 
L 122.361157 33.540866 
L 124.92314 34.950502 
L 127.485124 36.980589 
L 130.047107 38.244038 
L 132.609091 40.33312 
L 135.171074 42.432079 
L 137.733058 44.44433 
L 140.295041 46.49394 
L 142.857025 48.342097 
L 145.419008 50.180115 
L 147.980992 51.681483 
L 150.542975 53.928723 
L 153.104959 57.576325 
L 155.666942 61.246571 
L 158.228926 63.502619 
L 160.790909 65.367812 
L 163.352893 67.875343 
L 165.914876 70.807047 
L 168.47686 74.993021 
L 171.038843 79.554403 
L 173.600826 83.401494 
L 176.16281 85.389032 
L 178.724793 86.281049 
L 181.286777 86.498565 
L 183.84876 86.107836 
L 186.410744 85.183619 
L 188.972727 82.794848 
L 191.534711 79.520814 
L 194.096694 77.06545 
L 196.658678 75.507117 
L 199.220661 73.622534 
L 201.782645 72.765221 
L 204.344628 72.764758 
L 206.906612 74.35573 
L 209.468595 75.336015 
L 212.030579 75.36834 
L 214.592562 76.318882 
L 217.154545 77.718443 
L 219.716529 78.85146 
L 222.278512 79.472058 
L 224.840496 80.276651 
L 227.402479 80.994591 
L 229.964463 82.60479 
L 232.526446 84.121477 
L 235.08843 83.721621 
L 237.650413 83.26913 
L 240.212397 82.495812 
L 242.77438 83.287106 
L 245.336364 84.728177 
L 247.898347 85.642855 
L 250.460331 87.217909 
L 253.022314 89.320866 
L 255.584298 90.543438 
L 258.146281 90.869102 
L 260.708264 90.597552 
L 263.270248 90.145817 
L 265.832231 89.907394 
L 268.394215 91.110229 
L 270.956198 92.235979 
L 273.518182 92.390892 
" style="fill:none;stroke:#000000;stroke-linecap:square;stroke-opacity:0.7;stroke-width:1.5;"/>
   </g>
  </g>
 </g>
 <defs>
  <clipPath id="p29b73844c4">
   <rect height="166.32" width="279" x="7.2" y="7.2"/>
  </clipPath>
 </defs>
</svg>
