<?xml version="1.0" encoding="utf-8" standalone="no"?>
<!DOCTYPE svg PUBLIC "-//W3C//DTD SVG 1.1//EN"
  "http://www.w3.org/Graphics/SVG/1.1/DTD/svg11.dtd">
<!-- Created with matplotlib (https://matplotlib.org/) -->
<svg height="180.72pt" version="1.1" viewBox="0 0 293.4 180.72" width="293.4pt" xmlns="http://www.w3.org/2000/svg" xmlns:xlink="http://www.w3.org/1999/xlink">
 <metadata>
  <rdf:RDF xmlns:cc="http://creativecommons.org/ns#" xmlns:dc="http://purl.org/dc/elements/1.1/" xmlns:rdf="http://www.w3.org/1999/02/22-rdf-syntax-ns#">
   <cc:Work>
    <dc:type rdf:resource="http://purl.org/dc/dcmitype/StillImage"/>
    <dc:date>2021-11-25T19:29:53.735012</dc:date>
    <dc:format>image/svg+xml</dc:format>
    <dc:creator>
     <cc:Agent>
      <dc:title>Matplotlib v3.3.4, https://matplotlib.org/</dc:title>
     </cc:Agent>
    </dc:creator>
   </cc:Work>
  </rdf:RDF>
 </metadata>
 <defs>
  <style type="text/css">*{stroke-linecap:butt;stroke-linejoin:round;}</style>
 </defs>
 <g id="figure_1">
  <g id="patch_1">
   <path d="M 0 180.72 
L 293.4 180.72 
L 293.4 0 
L 0 0 
z
" style="fill:none;"/>
  </g>
  <g id="axes_1">
   <g id="line2d_1">
    <path clip-path="url(#p12c60397e0)" d="M 19.881818 160.812931 
L 22.443802 160.547536 
L 25.005785 160.138633 
L 27.567769 159.433102 
L 30.129752 158.418451 
L 32.691736 157.289295 
L 35.253719 155.995391 
L 37.815702 154.656203 
L 40.377686 153.128119 
L 42.939669 151.299916 
L 45.501653 149.122275 
L 48.063636 146.755408 
L 50.62562 144.177275 
L 53.187603 141.230451 
L 55.749587 138.01854 
L 58.31157 134.672589 
L 60.873554 131.074009 
L 63.435537 127.276361 
L 65.997521 123.192506 
L 68.559504 119.027595 
L 71.121488 115.174409 
L 73.683471 111.8168 
L 76.245455 108.842825 
L 78.807438 105.963631 
L 81.369421 103.024499 
L 83.931405 100.13093 
L 86.493388 97.624464 
L 89.055372 95.779945 
L 91.617355 94.764797 
L 94.179339 94.582406 
L 96.741322 95.020696 
L 99.303306 95.963284 
L 101.865289 97.123791 
L 104.427273 98.429332 
L 106.989256 99.806389 
L 109.55124 101.079771 
L 112.113223 102.106193 
L 114.675207 102.975031 
L 117.23719 104.016333 
L 119.799174 105.363121 
L 122.361157 107.140447 
L 124.92314 109.254493 
L 127.485124 111.511411 
L 130.047107 113.752402 
L 132.609091 115.914122 
L 135.171074 118.139056 
L 137.733058 120.373319 
L 140.295041 122.507723 
L 142.857025 124.501256 
L 145.419008 126.445227 
L 147.980992 128.352699 
L 150.542975 129.84932 
L 153.104959 130.735527 
L 155.666942 130.960135 
L 158.228926 130.760124 
L 160.790909 130.213504 
L 163.352893 129.36071 
L 165.914876 128.37685 
L 168.47686 127.347398 
L 171.038843 126.464622 
L 173.600826 125.62175 
L 176.16281 124.56586 
L 178.724793 123.471894 
L 181.286777 122.528401 
L 183.84876 121.778179 
L 186.410744 121.068074 
L 188.972727 120.320207 
L 191.534711 119.563642 
L 194.096694 118.849179 
L 196.658678 118.321082 
L 199.220661 118.018122 
L 201.782645 118.024407 
L 204.344628 118.461136 
L 206.906612 119.057079 
L 209.468595 119.396833 
L 212.030579 119.346099 
L 214.592562 118.867521 
L 217.154545 117.993825 
L 219.716529 116.906053 
L 222.278512 115.955173 
L 224.840496 115.098895 
L 227.402479 114.384066 
L 229.964463 113.760201 
L 232.526446 113.16952 
L 235.08843 112.658282 
L 237.650413 111.868886 
L 240.212397 110.634656 
L 242.77438 109.169341 
L 245.336364 107.631336 
L 247.898347 106.146446 
L 250.460331 104.704522 
L 253.022314 103.25229 
L 255.584298 101.706767 
L 258.146281 100.179498 
L 260.708264 98.651369 
L 263.270248 97.199969 
L 265.832231 95.741416 
L 268.394215 94.379559 
L 270.956198 93.263165 
L 273.518182 92.463861 
" style="fill:none;stroke:#000000;stroke-linecap:square;stroke-opacity:0.7;stroke-width:1.5;"/>
   </g>
   <g id="line2d_2">
    <path clip-path="url(#p12c60397e0)" d="M 19.881818 61.322694 
L 22.443802 63.026111 
L 25.005785 64.732744 
L 27.567769 66.434814 
L 30.129752 68.267041 
L 32.691736 70.110797 
L 35.253719 72.129466 
L 37.815702 74.357415 
L 40.377686 76.596129 
L 42.939669 78.777156 
L 45.501653 80.740456 
L 48.063636 82.591773 
L 50.62562 84.278252 
L 53.187603 85.923464 
L 55.749587 87.686381 
L 58.31157 89.61295 
L 60.873554 91.614765 
L 63.435537 93.578958 
L 65.997521 95.223395 
L 68.559504 96.506808 
L 71.121488 97.48962 
L 73.683471 98.262442 
L 76.245455 98.83332 
L 78.807438 99.477351 
L 81.369421 100.008919 
L 83.931405 100.409784 
L 86.493388 100.807236 
L 89.055372 101.3748 
L 91.617355 102.172079 
L 94.179339 103.237175 
L 96.741322 104.412663 
L 99.303306 105.732395 
L 101.865289 107.253887 
L 104.427273 108.840657 
L 106.989256 110.236192 
L 109.55124 111.35405 
L 112.113223 112.17004 
L 114.675207 112.652819 
L 117.23719 112.722655 
L 119.799174 112.36477 
L 122.361157 111.695022 
L 124.92314 111.087127 
L 127.485124 110.81789 
L 130.047107 111.098535 
L 132.609091 111.92711 
L 135.171074 113.455635 
L 137.733058 115.780884 
L 140.295041 118.659246 
L 142.857025 121.928624 
L 145.419008 125.621784 
L 147.980992 129.824968 
L 150.542975 134.566161 
L 153.104959 139.755505 
L 155.666942 145.184655 
L 158.228926 150.373528 
L 160.790909 155.118022 
L 163.352893 159.30135 
L 165.914876 162.598169 
L 168.47686 164.937702 
L 171.038843 166.591618 
L 173.600826 167.465767 
L 176.16281 167.429622 
L 178.724793 166.789035 
L 181.286777 165.736933 
L 183.84876 164.318774 
L 186.410744 162.456441 
L 188.972727 160.173358 
L 191.534711 157.710737 
L 194.096694 155.258876 
L 196.658678 152.751512 
L 199.220661 150.140175 
L 201.782645 147.428667 
L 204.344628 144.759299 
L 206.906612 142.176817 
L 209.468595 139.67736 
L 212.030579 137.167576 
L 214.592562 134.554783 
L 217.154545 131.992128 
L 219.716529 129.491827 
L 222.278512 127.140785 
L 224.840496 124.872439 
L 227.402479 122.641311 
L 229.964463 120.387673 
L 232.526446 118.340741 
L 235.08843 116.581567 
L 237.650413 114.731564 
L 240.212397 112.873648 
L 242.77438 110.958006 
L 245.336364 109.052179 
L 247.898347 107.041063 
L 250.460331 104.860764 
L 253.022314 102.750765 
L 255.584298 100.981278 
L 258.146281 99.521644 
L 260.708264 98.198615 
L 263.270248 97.14337 
L 265.832231 96.562772 
L 268.394215 96.462746 
L 270.956198 96.838927 
L 273.518182 97.649558 
" style="fill:none;stroke:#000000;stroke-linecap:square;stroke-opacity:0.7;stroke-width:1.5;"/>
   </g>
   <g id="line2d_3">
    <path clip-path="url(#p12c60397e0)" d="M 19.881818 124.621705 
L 22.443802 122.174073 
L 25.005785 119.613201 
L 27.567769 117.025176 
L 30.129752 114.414737 
L 32.691736 111.861872 
L 35.253719 109.300203 
L 37.815702 106.933623 
L 40.377686 104.819002 
L 42.939669 102.881034 
L 45.501653 101.001676 
L 48.063636 98.990082 
L 50.62562 96.704681 
L 53.187603 94.184366 
L 55.749587 91.603792 
L 58.31157 89.044685 
L 60.873554 86.558452 
L 63.435537 84.399496 
L 65.997521 82.578438 
L 68.559504 80.792363 
L 71.121488 78.933105 
L 73.683471 77.169213 
L 76.245455 75.627725 
L 78.807438 74.366397 
L 81.369421 73.451307 
L 83.931405 72.86333 
L 86.493388 72.459254 
L 89.055372 72.348693 
L 91.617355 72.552311 
L 94.179339 72.834344 
L 96.741322 73.165097 
L 99.303306 73.52657 
L 101.865289 73.831716 
L 104.427273 74.000598 
L 106.989256 74.098603 
L 109.55124 74.251002 
L 112.113223 74.427675 
L 114.675207 74.474563 
L 117.23719 74.478486 
L 119.799174 74.599748 
L 122.361157 74.731083 
L 124.92314 74.794378 
L 127.485124 74.789064 
L 130.047107 74.653781 
L 132.609091 74.382476 
L 135.171074 74.010369 
L 137.733058 73.567389 
L 140.295041 72.933266 
L 142.857025 72.33183 
L 145.419008 71.972894 
L 147.980992 72.008829 
L 150.542975 72.40342 
L 153.104959 73.048757 
L 155.666942 73.919167 
L 158.228926 74.601806 
L 160.790909 75.108612 
L 163.352893 75.445046 
L 165.914876 75.657103 
L 168.47686 75.957416 
L 171.038843 76.323528 
L 173.600826 76.624846 
L 176.16281 77.180557 
L 178.724793 78.051071 
L 181.286777 79.162441 
L 183.84876 80.44826 
L 186.410744 81.574011 
L 188.972727 82.535243 
L 191.534711 83.476852 
L 194.096694 84.536056 
L 196.658678 85.705644 
L 199.220661 86.945743 
L 201.782645 88.191478 
L 204.344628 89.620605 
L 206.906612 91.268593 
L 209.468595 93.143462 
L 212.030579 95.220657 
L 214.592562 97.328364 
L 217.154545 99.229083 
L 219.716529 100.765299 
L 222.278512 102.096632 
L 224.840496 103.230012 
L 227.402479 104.157914 
L 229.964463 104.607372 
L 232.526446 104.764377 
L 235.08843 104.942547 
L 237.650413 105.135107 
L 240.212397 105.117392 
L 242.77438 104.723852 
L 245.336364 103.758073 
L 247.898347 102.479864 
L 250.460331 101.056191 
L 253.022314 99.402083 
L 255.584298 97.870791 
L 258.146281 96.46368 
L 260.708264 95.120388 
L 263.270248 93.896306 
L 265.832231 92.821697 
L 268.394215 92.048476 
L 270.956198 91.427794 
L 273.518182 90.919456 
" style="fill:none;stroke:#000000;stroke-linecap:square;stroke-opacity:0.7;stroke-width:1.5;"/>
   </g>
   <g id="line2d_4">
    <path clip-path="url(#p12c60397e0)" d="M 19.881818 108.924024 
L 22.443802 107.521977 
L 25.005785 105.996806 
L 27.567769 104.37307 
L 30.129752 102.698661 
L 32.691736 100.762258 
L 35.253719 98.828551 
L 37.815702 97.166682 
L 40.377686 95.709345 
L 42.939669 94.344168 
L 45.501653 92.973493 
L 48.063636 91.610647 
L 50.62562 90.182439 
L 53.187603 89.026757 
L 55.749587 88.421052 
L 58.31157 88.201762 
L 60.873554 88.154376 
L 63.435537 88.134448 
L 65.997521 88.195575 
L 68.559504 88.514971 
L 71.121488 89.033268 
L 73.683471 89.856345 
L 76.245455 90.930191 
L 78.807438 92.227866 
L 81.369421 93.467947 
L 83.931405 94.700497 
L 86.493388 95.778377 
L 89.055372 96.70357 
L 91.617355 97.401935 
L 94.179339 97.904073 
L 96.741322 98.19958 
L 99.303306 98.270225 
L 101.865289 98.122877 
L 104.427273 97.772465 
L 106.989256 97.164636 
L 109.55124 96.151041 
L 112.113223 94.708199 
L 114.675207 92.89056 
L 117.23719 90.877948 
L 119.799174 88.766536 
L 122.361157 86.527855 
L 124.92314 84.187451 
L 127.485124 81.72126 
L 130.047107 79.227314 
L 132.609091 76.718341 
L 135.171074 74.268974 
L 137.733058 71.948362 
L 140.295041 69.625058 
L 142.857025 67.402956 
L 145.419008 65.426443 
L 147.980992 63.872404 
L 150.542975 62.7175 
L 153.104959 61.730142 
L 155.666942 60.874421 
L 158.228926 60.115445 
L 160.790909 59.341239 
L 163.352893 58.407457 
L 165.914876 57.289064 
L 168.47686 55.987959 
L 171.038843 54.478613 
L 173.600826 52.789191 
L 176.16281 51.05973 
L 178.724793 49.344203 
L 181.286777 47.454434 
L 183.84876 45.518746 
L 186.410744 43.667504 
L 188.972727 41.932156 
L 191.534711 40.369512 
L 194.096694 39.047172 
L 196.658678 38.213148 
L 199.220661 37.819775 
L 201.782645 37.553152 
L 204.344628 37.196299 
L 206.906612 36.685707 
L 209.468595 36.334953 
L 212.030579 36.49331 
L 214.592562 37.029461 
L 217.154545 37.758323 
L 219.716529 38.373688 
L 222.278512 38.840374 
L 224.840496 39.464754 
L 227.402479 40.53832 
L 229.964463 42.213447 
L 232.526446 44.273928 
L 235.08843 46.611149 
L 237.650413 49.10441 
L 240.212397 51.649127 
L 242.77438 54.198157 
L 245.336364 56.514082 
L 247.898347 58.695569 
L 250.460331 60.780308 
L 253.022314 62.629395 
L 255.584298 64.290229 
L 258.146281 65.678761 
L 260.708264 66.816269 
L 263.270248 67.518736 
L 265.832231 67.7059 
L 268.394215 67.506397 
L 270.956198 67.20963 
L 273.518182 66.845489 
" style="fill:none;stroke:#000000;stroke-linecap:square;stroke-opacity:0.7;stroke-width:1.5;"/>
   </g>
   <g id="line2d_5">
    <path clip-path="url(#p12c60397e0)" d="M 19.881818 65.684184 
L 22.443802 66.547217 
L 25.005785 67.513707 
L 27.567769 68.569169 
L 30.129752 69.69167 
L 32.691736 70.825161 
L 35.253719 71.688063 
L 37.815702 72.342713 
L 40.377686 73.029383 
L 42.939669 73.874386 
L 45.501653 74.958822 
L 48.063636 76.21777 
L 50.62562 77.359465 
L 53.187603 78.414733 
L 55.749587 79.243927 
L 58.31157 79.828513 
L 60.873554 80.455415 
L 63.435537 81.121657 
L 65.997521 81.820292 
L 68.559504 82.362125 
L 71.121488 82.499769 
L 73.683471 82.130119 
L 76.245455 81.280045 
L 78.807438 79.806779 
L 81.369421 78.02786 
L 83.931405 76.209982 
L 86.493388 74.477288 
L 89.055372 72.851592 
L 91.617355 71.47904 
L 94.179339 70.026547 
L 96.741322 68.453559 
L 99.303306 66.812397 
L 101.865289 65.12066 
L 104.427273 63.358249 
L 106.989256 61.607537 
L 109.55124 60.087089 
L 112.113223 58.569017 
L 114.675207 57.103978 
L 117.23719 55.876487 
L 119.799174 54.994407 
L 122.361157 54.415284 
L 124.92314 54.214494 
L 127.485124 54.468562 
L 130.047107 55.282038 
L 132.609091 56.410332 
L 135.171074 57.616888 
L 137.733058 58.957841 
L 140.295041 60.307779 
L 142.857025 61.562902 
L 145.419008 62.833989 
L 147.980992 64.146548 
L 150.542975 65.340056 
L 153.104959 66.300165 
L 155.666942 67.195168 
L 158.228926 68.251949 
L 160.790909 69.65091 
L 163.352893 71.548495 
L 165.914876 73.777594 
L 168.47686 76.18328 
L 171.038843 78.607803 
L 173.600826 80.973746 
L 176.16281 83.316608 
L 178.724793 85.828176 
L 181.286777 88.676114 
L 183.84876 91.870337 
L 186.410744 95.205938 
L 188.972727 98.238997 
L 191.534711 100.988138 
L 194.096694 103.536606 
L 196.658678 105.697309 
L 199.220661 107.510702 
L 201.782645 108.978874 
L 204.344628 110.14897 
L 206.906612 111.103621 
L 209.468595 112.025759 
L 212.030579 113.005656 
L 214.592562 113.668922 
L 217.154545 113.981148 
L 219.716529 113.877522 
L 222.278512 113.474286 
L 224.840496 112.666534 
L 227.402479 111.551969 
L 229.964463 110.407218 
L 232.526446 109.303088 
L 235.08843 108.466995 
L 237.650413 107.91777 
L 240.212397 107.577263 
L 242.77438 107.434098 
L 245.336364 107.222492 
L 247.898347 106.662352 
L 250.460331 105.696922 
L 253.022314 104.173021 
L 255.584298 102.057725 
L 258.146281 99.652356 
L 260.708264 97.060328 
L 263.270248 94.363155 
L 265.832231 91.825042 
L 268.394215 89.324872 
L 270.956198 86.89428 
L 273.518182 84.639226 
" style="fill:none;stroke:#000000;stroke-linecap:square;stroke-opacity:0.7;stroke-width:1.5;"/>
   </g>
   <g id="line2d_6">
    <path clip-path="url(#p12c60397e0)" d="M 19.881818 119.518687 
L 22.443802 117.373659 
L 25.005785 115.007941 
L 27.567769 112.524807 
L 30.129752 110.073984 
L 32.691736 107.469679 
L 35.253719 104.870024 
L 37.815702 102.515134 
L 40.377686 100.582609 
L 42.939669 99.119119 
L 45.501653 98.098106 
L 48.063636 97.466144 
L 50.62562 97.076523 
L 53.187603 96.812492 
L 55.749587 96.694786 
L 58.31157 96.658612 
L 60.873554 96.675407 
L 63.435537 96.90596 
L 65.997521 97.403012 
L 68.559504 98.108255 
L 71.121488 99.06694 
L 73.683471 100.310661 
L 76.245455 101.722266 
L 78.807438 103.124529 
L 81.369421 104.585904 
L 83.931405 105.975393 
L 86.493388 107.164867 
L 89.055372 107.94893 
L 91.617355 108.098479 
L 94.179339 107.652023 
L 96.741322 106.977851 
L 99.303306 106.16768 
L 101.865289 104.981051 
L 104.427273 103.414957 
L 106.989256 101.528699 
L 109.55124 99.409193 
L 112.113223 97.159188 
L 114.675207 94.695443 
L 117.23719 92.236381 
L 119.799174 89.966502 
L 122.361157 87.781949 
L 124.92314 85.492637 
L 127.485124 83.188368 
L 130.047107 81.194054 
L 132.609091 79.738714 
L 135.171074 78.593615 
L 137.733058 77.777831 
L 140.295041 77.301542 
L 142.857025 77.029142 
L 145.419008 77.20856 
L 147.980992 77.7682 
L 150.542975 78.681334 
L 153.104959 79.829331 
L 155.666942 81.218402 
L 158.228926 82.730076 
L 160.790909 84.281328 
L 163.352893 85.878949 
L 165.914876 87.314755 
L 168.47686 88.431639 
L 171.038843 89.025556 
L 173.600826 89.189538 
L 176.16281 89.07223 
L 178.724793 88.821271 
L 181.286777 88.644625 
L 183.84876 88.841075 
L 186.410744 89.377839 
L 188.972727 90.117231 
L 191.534711 91.08928 
L 194.096694 92.354567 
L 196.658678 94.055659 
L 199.220661 95.99817 
L 201.782645 98.026767 
L 204.344628 100.166069 
L 206.906612 102.397426 
L 209.468595 104.639122 
L 212.030579 106.742585 
L 214.592562 108.488068 
L 217.154545 109.702964 
L 219.716529 110.230409 
L 222.278512 109.913541 
L 224.840496 108.843486 
L 227.402479 107.424594 
L 229.964463 106.144831 
L 232.526446 105.357013 
L 235.08843 105.127893 
L 237.650413 105.320165 
L 240.212397 105.687315 
L 242.77438 106.174182 
L 245.336364 106.458069 
L 247.898347 106.648247 
L 250.460331 107.068241 
L 253.022314 107.68567 
L 255.584298 108.290012 
L 258.146281 108.686738 
L 260.708264 108.945622 
L 263.270248 108.886802 
L 265.832231 108.505577 
L 268.394215 108.242148 
L 270.956198 108.308407 
L 273.518182 108.540153 
" style="fill:none;stroke:#000000;stroke-linecap:square;stroke-opacity:0.7;stroke-width:1.5;"/>
   </g>
   <g id="line2d_7">
    <path clip-path="url(#p12c60397e0)" d="M 19.881818 70.363894 
L 22.443802 69.778394 
L 25.005785 69.298528 
L 27.567769 68.799283 
L 30.129752 68.34468 
L 32.691736 67.961542 
L 35.253719 67.496298 
L 37.815702 66.99368 
L 40.377686 66.476754 
L 42.939669 65.748437 
L 45.501653 64.821673 
L 48.063636 63.70099 
L 50.62562 62.645687 
L 53.187603 62.02824 
L 55.749587 61.922433 
L 58.31157 62.395683 
L 60.873554 63.503238 
L 63.435537 65.057139 
L 65.997521 66.968488 
L 68.559504 68.886433 
L 71.121488 70.652143 
L 73.683471 72.482822 
L 76.245455 74.289116 
L 78.807438 76.005975 
L 81.369421 77.588945 
L 83.931405 79.102759 
L 86.493388 80.291873 
L 89.055372 81.102186 
L 91.617355 81.497456 
L 94.179339 81.514173 
L 96.741322 81.075966 
L 99.303306 80.073491 
L 101.865289 78.75702 
L 104.427273 77.127155 
L 106.989256 75.258446 
L 109.55124 73.245322 
L 112.113223 71.299406 
L 114.675207 69.60212 
L 117.23719 68.322346 
L 119.799174 67.389161 
L 122.361157 66.537175 
L 124.92314 65.797129 
L 127.485124 65.278552 
L 130.047107 64.948009 
L 132.609091 64.698863 
L 135.171074 64.559437 
L 137.733058 64.498219 
L 140.295041 64.522826 
L 142.857025 64.511365 
L 145.419008 64.712259 
L 147.980992 64.820094 
L 150.542975 64.774843 
L 153.104959 64.729319 
L 155.666942 64.640651 
L 158.228926 64.476613 
L 160.790909 64.15577 
L 163.352893 63.752491 
L 165.914876 63.637589 
L 168.47686 63.88814 
L 171.038843 64.328672 
L 173.600826 64.841499 
L 176.16281 65.520172 
L 178.724793 66.244367 
L 181.286777 66.919241 
L 183.84876 67.469687 
L 186.410744 67.897788 
L 188.972727 68.251358 
L 191.534711 68.380305 
L 194.096694 68.197538 
L 196.658678 67.684565 
L 199.220661 67.147346 
L 201.782645 66.482243 
L 204.344628 65.654756 
L 206.906612 64.76674 
L 209.468595 63.884875 
L 212.030579 63.30276 
L 214.592562 62.902062 
L 217.154545 62.615707 
L 219.716529 62.283727 
L 222.278512 61.84825 
L 224.840496 61.428819 
L 227.402479 61.237683 
L 229.964463 61.296255 
L 232.526446 61.204612 
L 235.08843 60.989776 
L 237.650413 60.556106 
L 240.212397 59.77585 
L 242.77438 58.567789 
L 245.336364 56.874264 
L 247.898347 54.878 
L 250.460331 52.725117 
L 253.022314 50.621724 
L 255.584298 48.533605 
L 258.146281 46.56013 
L 260.708264 44.747662 
L 263.270248 43.097385 
L 265.832231 41.830526 
L 268.394215 41.093924 
L 270.956198 40.814194 
L 273.518182 40.918005 
" style="fill:none;stroke:#000000;stroke-linecap:square;stroke-opacity:0.7;stroke-width:1.5;"/>
   </g>
   <g id="line2d_8">
    <path clip-path="url(#p12c60397e0)" d="M 19.881818 48.342577 
L 22.443802 49.595238 
L 25.005785 50.951272 
L 27.567769 52.23902 
L 30.129752 53.499143 
L 32.691736 54.755307 
L 35.253719 56.023177 
L 37.815702 57.230391 
L 40.377686 58.345488 
L 42.939669 59.283009 
L 45.501653 59.860517 
L 48.063636 59.818262 
L 50.62562 59.408713 
L 53.187603 58.850905 
L 55.749587 58.28467 
L 58.31157 57.822139 
L 60.873554 57.331875 
L 63.435537 56.624937 
L 65.997521 55.551649 
L 68.559504 54.024941 
L 71.121488 52.235757 
L 73.683471 50.243634 
L 76.245455 48.152751 
L 78.807438 46.128347 
L 81.369421 44.351523 
L 83.931405 42.816791 
L 86.493388 41.402717 
L 89.055372 40.021771 
L 91.617355 38.944705 
L 94.179339 38.359983 
L 96.741322 38.177312 
L 99.303306 38.104304 
L 101.865289 38.116763 
L 104.427273 38.331155 
L 106.989256 38.604662 
L 109.55124 39.049374 
L 112.113223 39.70575 
L 114.675207 40.545671 
L 117.23719 41.699921 
L 119.799174 43.1743 
L 122.361157 44.962112 
L 124.92314 47.135823 
L 127.485124 49.860611 
L 130.047107 52.948722 
L 132.609091 56.119204 
L 135.171074 59.328448 
L 137.733058 62.52539 
L 140.295041 65.810623 
L 142.857025 69.290053 
L 145.419008 72.885084 
L 147.980992 76.560091 
L 150.542975 80.084652 
L 153.104959 83.463047 
L 155.666942 86.735826 
L 158.228926 89.70444 
L 160.790909 92.139653 
L 163.352893 94.032912 
L 165.914876 95.477316 
L 168.47686 96.58936 
L 171.038843 97.394846 
L 173.600826 97.885389 
L 176.16281 98.007292 
L 178.724793 97.765909 
L 181.286777 97.307455 
L 183.84876 96.432008 
L 186.410744 95.161782 
L 188.972727 93.702886 
L 191.534711 92.144465 
L 194.096694 90.429296 
L 196.658678 88.516169 
L 199.220661 86.432062 
L 201.782645 84.415296 
L 204.344628 82.581609 
L 206.906612 80.955833 
L 209.468595 79.576163 
L 212.030579 78.226151 
L 214.592562 76.997549 
L 217.154545 76.080368 
L 219.716529 75.487211 
L 222.278512 75.070974 
L 224.840496 74.623933 
L 227.402479 74.102019 
L 229.964463 73.748513 
L 232.526446 73.744637 
L 235.08843 74.2607 
L 237.650413 75.148618 
L 240.212397 76.145392 
L 242.77438 76.947135 
L 245.336364 77.812153 
L 247.898347 78.921322 
L 250.460331 80.091283 
L 253.022314 81.099616 
L 255.584298 81.757064 
L 258.146281 82.107325 
L 260.708264 82.124204 
L 263.270248 81.81886 
L 265.832231 81.174507 
L 268.394215 80.260362 
L 270.956198 78.957053 
L 273.518182 77.059085 
" style="fill:none;stroke:#000000;stroke-linecap:square;stroke-opacity:0.7;stroke-width:1.5;"/>
   </g>
   <g id="line2d_9">
    <path clip-path="url(#p12c60397e0)" d="M 19.881818 111.214972 
L 22.443802 112.364752 
L 25.005785 113.056235 
L 27.567769 113.280571 
L 30.129752 113.206567 
L 32.691736 112.870041 
L 35.253719 112.529247 
L 37.815702 112.425555 
L 40.377686 112.504985 
L 42.939669 112.803839 
L 45.501653 113.423648 
L 48.063636 114.39316 
L 50.62562 115.62098 
L 53.187603 117.103985 
L 55.749587 118.811781 
L 58.31157 120.433797 
L 60.873554 121.635278 
L 63.435537 122.435133 
L 65.997521 122.876449 
L 68.559504 122.918548 
L 71.121488 122.701026 
L 73.683471 122.470474 
L 76.245455 122.376164 
L 78.807438 122.377106 
L 81.369421 122.374829 
L 83.931405 122.499061 
L 86.493388 122.815104 
L 89.055372 123.102164 
L 91.617355 123.194391 
L 94.179339 123.245666 
L 96.741322 123.302002 
L 99.303306 123.148134 
L 101.865289 122.60889 
L 104.427273 121.866482 
L 106.989256 121.142459 
L 109.55124 120.655206 
L 112.113223 120.362669 
L 114.675207 120.40251 
L 117.23719 120.851186 
L 119.799174 121.588395 
L 122.361157 122.502917 
L 124.92314 123.506331 
L 127.485124 124.589939 
L 130.047107 125.764067 
L 132.609091 126.993462 
L 135.171074 128.209835 
L 137.733058 129.307555 
L 140.295041 130.068126 
L 142.857025 130.230045 
L 145.419008 129.882521 
L 147.980992 129.030744 
L 150.542975 127.745246 
L 153.104959 126.054495 
L 155.666942 124.121449 
L 158.228926 121.959752 
L 160.790909 119.524054 
L 163.352893 116.714005 
L 165.914876 113.908072 
L 168.47686 111.450132 
L 171.038843 109.312472 
L 173.600826 107.386814 
L 176.16281 105.512751 
L 178.724793 103.561767 
L 181.286777 101.675511 
L 183.84876 100.013389 
L 186.410744 98.520941 
L 188.972727 97.352508 
L 191.534711 96.479675 
L 194.096694 95.96678 
L 196.658678 95.578881 
L 199.220661 95.32609 
L 201.782645 95.013561 
L 204.344628 94.727918 
L 206.906612 94.523325 
L 209.468595 94.381684 
L 212.030579 94.264968 
L 214.592562 94.183774 
L 217.154545 93.90244 
L 219.716529 93.536159 
L 222.278512 93.071902 
L 224.840496 92.635961 
L 227.402479 92.319341 
L 229.964463 92.340405 
L 232.526446 92.694568 
L 235.08843 93.29241 
L 237.650413 94.006992 
L 240.212397 94.833395 
L 242.77438 95.839403 
L 245.336364 96.844394 
L 247.898347 97.605802 
L 250.460331 98.257946 
L 253.022314 99.029787 
L 255.584298 99.893865 
L 258.146281 100.873035 
L 260.708264 101.814524 
L 263.270248 102.728302 
L 265.832231 103.650601 
L 268.394215 104.482101 
L 270.956198 105.278484 
L 273.518182 105.827832 
" style="fill:none;stroke:#000000;stroke-linecap:square;stroke-opacity:0.7;stroke-width:1.5;"/>
   </g>
   <g id="line2d_10">
    <path clip-path="url(#p12c60397e0)" d="M 19.881818 61.871199 
L 22.443802 61.977525 
L 25.005785 62.410877 
L 27.567769 63.104644 
L 30.129752 63.819698 
L 32.691736 64.633329 
L 35.253719 65.678036 
L 37.815702 66.814687 
L 40.377686 67.911059 
L 42.939669 68.91085 
L 45.501653 69.656893 
L 48.063636 70.214286 
L 50.62562 70.658481 
L 53.187603 70.770065 
L 55.749587 70.561031 
L 58.31157 70.08821 
L 60.873554 69.374571 
L 63.435537 68.402382 
L 65.997521 67.368721 
L 68.559504 66.723743 
L 71.121488 66.668525 
L 73.683471 67.052728 
L 76.245455 67.707961 
L 78.807438 68.327599 
L 81.369421 68.643934 
L 83.931405 68.719942 
L 86.493388 68.739162 
L 89.055372 68.699275 
L 91.617355 68.360794 
L 94.179339 67.432496 
L 96.741322 65.978785 
L 99.303306 63.859258 
L 101.865289 61.149423 
L 104.427273 57.997337 
L 106.989256 54.50852 
L 109.55124 50.985367 
L 112.113223 47.74882 
L 114.675207 44.789241 
L 117.23719 42.312437 
L 119.799174 40.641609 
L 122.361157 39.738702 
L 124.92314 39.501754 
L 127.485124 39.861702 
L 130.047107 40.67423 
L 132.609091 41.760273 
L 135.171074 42.958768 
L 137.733058 44.272608 
L 140.295041 45.661381 
L 142.857025 47.158007 
L 145.419008 48.963547 
L 147.980992 51.152385 
L 150.542975 53.637167 
L 153.104959 56.318184 
L 155.666942 59.280793 
L 158.228926 62.523336 
L 160.790909 65.76932 
L 163.352893 68.784835 
L 165.914876 71.544901 
L 168.47686 74.066067 
L 171.038843 76.282869 
L 173.600826 78.249245 
L 176.16281 79.892491 
L 178.724793 81.141178 
L 181.286777 81.898808 
L 183.84876 82.004667 
L 186.410744 81.488319 
L 188.972727 80.595668 
L 191.534711 79.600538 
L 194.096694 78.661928 
L 196.658678 77.884294 
L 199.220661 77.388876 
L 201.782645 77.275392 
L 204.344628 77.242754 
L 206.906612 77.136662 
L 209.468595 76.907212 
L 212.030579 76.647035 
L 214.592562 76.609502 
L 217.154545 76.994442 
L 219.716529 77.797407 
L 222.278512 78.715937 
L 224.840496 79.587278 
L 227.402479 80.461462 
L 229.964463 81.494177 
L 232.526446 82.579512 
L 235.08843 83.460931 
L 237.650413 84.185035 
L 240.212397 84.765129 
L 242.77438 85.44569 
L 245.336364 86.250099 
L 247.898347 86.948745 
L 250.460331 87.422405 
L 253.022314 87.72433 
L 255.584298 88.07575 
L 258.146281 88.595798 
L 260.708264 89.155637 
L 263.270248 89.830298 
L 265.832231 90.735988 
L 268.394215 91.721303 
L 270.956198 92.542726 
L 273.518182 93.25311 
" style="fill:none;stroke:#000000;stroke-linecap:square;stroke-opacity:0.7;stroke-width:1.5;"/>
   </g>
  </g>
 </g>
 <defs>
  <clipPath id="p12c60397e0">
   <rect height="166.32" width="279" x="7.2" y="7.2"/>
  </clipPath>
 </defs>
</svg>
