<svg version="1.1" viewBox="0.0 0.0 729.1391076115485 293.26509186351706" fill="none" stroke="none" stroke-linecap="square" stroke-miterlimit="10" xmlns:xlink="http://www.w3.org/1999/xlink" xmlns="http://www.w3.org/2000/svg"><clipPath id="p.0"><path d="m0 0l729.1391 0l0 293.2651l-729.1391 0l0 -293.2651z" clip-rule="nonzero"/></clipPath><g clip-path="url(#p.0)"><path fill="#000000" fill-opacity="0.0" d="m0 0l729.1391 0l0 293.2651l-729.1391 0z" fill-rule="evenodd"/><path fill="#000000" fill-opacity="0.0" d="m386.15222 96.845146l310.04724 0l0 58.173225l-310.04724 0z" fill-rule="evenodd"/><path fill="#000000" d="m410.7071 135.25264l10.078125 0l0 -0.515625q0 -0.46875 0.1875 -0.671875q0.1875 -0.203125 0.484375 -0.203125q0.28125 0 0.46875 0.203125q0.1875 0.203125 0.1875 0.671875l0 1.828125l-12.6875 0l0 -1.9375q4.0 -3.59375 7.78125 -7.3124924q1.765625 -1.734375 2.421875 -2.546875q0.65625 -0.8125 0.890625 -1.421875q0.25 -0.625 0.25 -1.25q0 -1.6875 -1.359375 -2.984375q-1.359375 -1.296875 -3.28125 -1.296875q-1.71875 0 -3.046875 0.984375q-1.328125 0.984375 -1.71875 2.4375q-0.09375 0.375 -0.234375 0.484375q-0.1875 0.15625 -0.4375 0.15625q-0.265625 0 -0.453125 -0.171875q-0.171875 -0.1875 -0.171875 -0.4375q0 -0.75 0.8125 -2.03125q0.828125 -1.28125 2.265625 -2.015625q1.453125 -0.734375 2.96875 -0.734375q2.453125 0 4.21875 1.703125q1.765625 1.703125 1.765625 3.859375q0 0.90625 -0.296875 1.671875q-0.296875 0.75 -1.015625 1.65625q-0.703125 0.890625 -2.546875 2.7031174q-4.625 4.5625 -7.53125 7.078125l0 0.09375zm33.578125 10.078125l-17.453125 0q-0.46875 0 -0.671875 -0.1875q-0.203125 -0.171875 -0.203125 -0.46875q0 -0.296875 0.203125 -0.484375q0.203125 -0.171875 0.671875 -0.171875l17.453125 0q0.484375 0 0.671875 0.171875q0.203125 0.1875 0.203125 0.484375q0 0.296875 -0.203125 0.46875q-0.1875 0.1875 -0.671875 0.1875zm5.328125 -10.078125l0 -15.656242l-1.109375 0q-0.46875 0 -0.671875 -0.171875q-0.203125 -0.1875 -0.203125 -0.484375q0 -0.296875 0.203125 -0.46875q0.203125 -0.1875 0.671875 -0.1875l7.0625 0q1.65625 0 3.015625 0.6875q1.375 0.6875 2.09375 1.5625q1.234375 1.484375 1.875 3.140625q0.453125 1.203125 0.453125 2.84375l0 1.8124924q0 2.015625 -0.890625 3.90625q-0.890625 1.890625 -2.96875 3.296875q-1.546875 1.03125 -3.578125 1.03125l-7.0625 0q-0.46875 0 -0.671875 -0.1875q-0.203125 -0.1875 -0.203125 -0.46875q0 -0.296875 0.203125 -0.46875q0.203125 -0.1875 0.671875 -0.1875l1.109375 0zm1.3125 0l4.765625 0q1.65625 0 3.09375 -1.078125q1.453125 -1.078125 2.171875 -2.578125q0.734375 -1.515625 0.734375 -2.984375l0 -2.3749924q0 -1.21875 -0.390625 -2.171875q-0.5625 -1.390625 -1.59375 -2.640625q-0.5625 -0.6875 -1.65625 -1.25q-1.09375 -0.578125 -2.359375 -0.578125l-4.765625 0l0 15.656242zm23.6875 -18.953117l0 3.390625l-1.9375 0l0 -3.390625l1.9375 0zm0.046875 6.734375l0 12.218742l5.15625 0q0.484375 0 0.6875 0.1875q0.203125 0.171875 0.203125 0.46875q0 0.28125 -0.203125 0.46875q-0.203125 0.1875 -0.6875 0.1875l-11.625 0q-0.46875 0 -0.671875 -0.1875q-0.203125 -0.1875 -0.203125 -0.46875q0 -0.296875 0.203125 -0.46875q0.203125 -0.1875 0.671875 -0.1875l5.15625 0l0 -10.890617l-3.828125 0q-0.46875 0 -0.6875 -0.1875q-0.203125 -0.1875 -0.203125 -0.46875q0 -0.296875 0.203125 -0.484375q0.203125 -0.1875 0.6875 -0.1875l5.140625 0zm19.65625 13.531242l-2.21875 0l-5.390625 -12.203117l-1.34375 0q-0.46875 0 -0.671875 -0.1875q-0.203125 -0.1875 -0.203125 -0.484375q0 -0.28125 0.203125 -0.46875q0.203125 -0.1875 0.671875 -0.1875l4.921875 0q0.46875 0 0.671875 0.1875q0.203125 0.1875 0.203125 0.484375q0 0.28125 -0.203125 0.46875q-0.203125 0.1875 -0.671875 0.1875l-2.171875 0l4.8125 10.890617l0.578125 0l4.71875 -10.890617l-2.1875 0q-0.46875 0 -0.671875 -0.1875q-0.203125 -0.1875 -0.203125 -0.484375q0 -0.28125 0.203125 -0.46875q0.203125 -0.1875 0.671875 -0.1875l4.9375 0q0.484375 0 0.671875 0.1875q0.203125 0.1875 0.203125 0.484375q0 0.28125 -0.203125 0.46875q-0.1875 0.1875 -0.671875 0.1875l-1.328125 0l-5.328125 12.203117zm18.921875 -5.484375l-1.5 0l-5.046875 -11.484367l-0.25 0l0 15.656242l2.421875 0q0.46875 0 0.671875 0.1875q0.203125 0.171875 0.203125 0.46875q0 0.28125 -0.203125 0.46875q-0.203125 0.1875 -0.671875 0.1875l-4.84375 0q-0.46875 0 -0.671875 -0.1875q-0.203125 -0.1875 -0.203125 -0.46875q0 -0.296875 0.203125 -0.46875q0.203125 -0.1875 0.671875 -0.1875l1.109375 0l0 -15.656242l-0.828125 0q-0.46875 0 -0.671875 -0.171875q-0.203125 -0.1875 -0.203125 -0.484375q0 -0.296875 0.203125 -0.46875q0.203125 -0.1875 0.671875 -0.1875l3.21875 0l4.96875 11.312492l4.890625 -11.312492l3.21875 0q0.484375 0 0.6875 0.1875q0.203125 0.171875 0.203125 0.46875q0 0.296875 -0.203125 0.484375q-0.203125 0.171875 -0.6875 0.171875l-0.8125 0l0 15.656242l1.09375 0q0.484375 0 0.6875 0.1875q0.203125 0.171875 0.203125 0.46875q0 0.28125 -0.203125 0.46875q-0.203125 0.1875 -0.6875 0.1875l-4.828125 0q-0.46875 0 -0.6875 -0.1875q-0.203125 -0.1875 -0.203125 -0.46875q0 -0.296875 0.203125 -0.46875q0.203125 -0.1875 0.6875 -0.1875l2.421875 0l0 -15.656242l-0.28125 0l-4.953125 11.484367zm18.984375 -14.781242l0 3.390625l-1.9375 0l0 -3.390625l1.9375 0zm0.046875 6.734375l0 12.218742l5.15625 0q0.484375 0 0.6875 0.1875q0.203125 0.171875 0.203125 0.46875q0 0.28125 -0.203125 0.46875q-0.203125 0.1875 -0.6875 0.1875l-11.625 0q-0.46875 0 -0.671875 -0.1875q-0.203125 -0.1875 -0.203125 -0.46875q0 -0.296875 0.203125 -0.46875q0.203125 -0.1875 0.671875 -0.1875l5.15625 0l0 -10.890617l-3.828125 0q-0.46875 0 -0.6875 -0.1875q-0.203125 -0.1875 -0.203125 -0.46875q0 -0.296875 0.203125 -0.484375q0.203125 -0.1875 0.6875 -0.1875l5.140625 0zm22.921875 2.40625l0 -2.40625l3.078125 0q0.46875 0 0.671875 0.1875q0.203125 0.1875 0.203125 0.484375q0 0.28125 -0.203125 0.46875q-0.203125 0.1875 -0.671875 0.1875l-1.765625 0l0 13.109367q0 1.3125 -0.5625 2.34375q-0.375 0.6875 -1.25 1.421875q-0.875 0.734375 -1.59375 1.046875q-0.71875 0.3125 -1.921875 0.3125l-3.71875 0q-0.46875 0 -0.671875 -0.1875q-0.203125 -0.171875 -0.203125 -0.46875q0 -0.296875 0.203125 -0.484375q0.203125 -0.1875 0.671875 -0.1875l3.765625 0.015625q1.15625 0 2.078125 -0.59375q0.9375 -0.59375 1.546875 -1.734375q0.34375 -0.65625 0.34375 -1.671875l0 -3.9375q-2.109375 2.890625 -5.4375 2.890625q-2.703125 0 -4.671875 -2.0q-1.953125 -2.015625 -1.953125 -4.84375q0 -2.8281174 1.953125 -4.8281174q1.96875 -2.0 4.671875 -2.0q3.328125 0 5.4375 2.875zm0 3.9531174q0 -2.3124924 -1.59375 -3.9062424q-1.578125 -1.59375 -3.78125 -1.59375q-2.203125 0 -3.78125 1.609375q-1.578125 1.59375 -1.578125 3.8906174q0 2.3125 1.578125 3.921875q1.578125 1.59375 3.78125 1.59375q2.203125 0 3.78125 -1.59375q1.59375 -1.609375 1.59375 -3.921875zm23.515625 15.9375l-17.453125 0q-0.46875 0 -0.671875 -0.1875q-0.203125 -0.171875 -0.203125 -0.46875q0 -0.296875 0.203125 -0.484375q0.203125 -0.171875 0.671875 -0.171875l17.453125 0q0.484375 0 0.671875 0.171875q0.203125 0.1875 0.203125 0.484375q0 0.296875 -0.203125 0.46875q-0.1875 0.1875 -0.671875 0.1875zm6.859375 -27.046867l0 6.421875q1.15625 -0.484375 2.21875 -0.71875q1.0625 -0.25 2.015625 -0.25q2.46875 0 4.125 1.734375q1.671875 1.734375 1.671875 4.5624924q0 3.125 -1.875 5.0625q-1.875 1.9375 -4.6875 1.9375q-1.859375 0 -3.578125 -0.828125q-1.21875 -0.578125 -2.21875 -1.4375q-0.59375 -0.515625 -0.59375 -0.859375q0 -0.28125 0.1875 -0.46875q0.1875 -0.203125 0.4375 -0.203125q0.265625 0 0.5625 0.28125q2.359375 2.203125 5.140625 2.203125q2.296875 0 3.796875 -1.5625q1.5 -1.578125 1.5 -4.1875q0 -2.2187424 -1.296875 -3.5624924q-1.296875 -1.359375 -3.296875 -1.359375q-2.046875 0 -4.09375 1.078125q-0.5 0.25 -0.703125 0.25q-0.28125 0 -0.453125 -0.1875q-0.171875 -0.1875 -0.171875 -0.53125l0 -8.703125l9.15625 0q0.46875 0 0.671875 0.1875q0.203125 0.1875 0.203125 0.484375q0 0.28125 -0.203125 0.46875q-0.203125 0.1875 -0.671875 0.1875l-7.84375 0zm31.546875 27.046867l-17.453125 0q-0.46875 0 -0.671875 -0.1875q-0.203125 -0.171875 -0.203125 -0.46875q0 -0.296875 0.203125 -0.484375q0.203125 -0.171875 0.671875 -0.171875l17.453125 0q0.484375 0 0.671875 0.171875q0.203125 0.1875 0.203125 0.484375q0 0.296875 -0.203125 0.46875q-0.1875 0.1875 -0.671875 0.1875zm15.171875 -25.734367l0 -0.4375q0 -0.46875 0.171875 -0.671875q0.1875 -0.203125 0.484375 -0.203125q0.296875 0 0.46875 0.203125q0.1875 0.203125 0.1875 0.671875l0 3.34375q0 0.46875 -0.1875 0.671875q-0.171875 0.203125 -0.46875 0.203125q-0.28125 0 -0.46875 -0.1875q-0.171875 -0.1875 -0.1875 -0.609375q-0.078125 -1.3125 -1.359375 -2.359375q-1.265625 -1.046875 -3.328125 -1.046875q-2.171875 0 -3.453125 1.125q-1.28125 1.109375 -1.28125 2.625q0 0.78125 0.359375 1.421875q0.359375 0.640625 0.953125 1.046875q0.59375 0.390625 1.34375 0.640625q0.75 0.234375 2.34375 0.5q2.671875 0.4375 3.6875 0.890625q1.359375 0.6093674 2.046875 1.6874924q0.703125 1.078125 0.703125 2.546875q0 2.25 -1.796875 3.84375q-1.796875 1.578125 -4.84375 1.578125q-3.421875 0 -5.46875 -2.140625l0 0.75q0 0.46875 -0.1875 0.671875q-0.171875 0.203125 -0.46875 0.203125q-0.28125 0 -0.46875 -0.203125q-0.1875 -0.203125 -0.1875 -0.671875l0 -3.625q0 -0.484375 0.171875 -0.6875q0.1875 -0.203125 0.484375 -0.203125q0.28125 0 0.453125 0.1875q0.1875 0.1875 0.203125 0.609375q0.078125 1.4375 1.53125 2.625q1.46875 1.171875 3.9375 1.171875q2.46875 0 3.890625 -1.234375q1.4375 -1.234375 1.4375 -2.921875q0 -1.03125 -0.546875 -1.828125q-0.546875 -0.8125 -1.625 -1.28125q-0.75 -0.328125 -3.125 -0.7343674q-3.265625 -0.546875 -4.703125 -1.671875q-1.4375 -1.125 -1.4375 -3.203125q0 -2.0625 1.640625 -3.546875q1.65625 -1.484375 4.359375 -1.484375q2.75 0 4.734375 1.734375zm15.15625 -3.296875l0 3.390625l-1.9375 0l0 -3.390625l1.9375 0zm0.046875 6.734375l0 12.218742l5.15625 0q0.484375 0 0.6875 0.1875q0.203125 0.171875 0.203125 0.46875q0 0.28125 -0.203125 0.46875q-0.203125 0.1875 -0.6875 0.1875l-11.625 0q-0.46875 0 -0.671875 -0.1875q-0.203125 -0.1875 -0.203125 -0.46875q0 -0.296875 0.203125 -0.46875q0.203125 -0.1875 0.671875 -0.1875l5.15625 0l0 -10.890617l-3.828125 0q-0.46875 0 -0.6875 -0.1875q-0.203125 -0.1875 -0.203125 -0.46875q0 -0.296875 0.203125 -0.484375q0.203125 -0.1875 0.6875 -0.1875l5.140625 0zm12.53125 0l0 1.328125q1.671875 -1.796875 3.359375 -1.796875q1.015625 0 1.78125 0.546875q0.765625 0.53125 1.28125 1.625q0.875 -1.09375 1.765625 -1.625q0.90625 -0.546875 1.8125 -0.546875q1.421875 0 2.265625 0.921875q1.109375 1.1875 1.109375 2.59375l0 9.171867l1.109375 0q0.46875 0 0.671875 0.1875q0.203125 0.171875 0.203125 0.46875q0 0.28125 -0.203125 0.46875q-0.203125 0.1875 -0.671875 0.1875l-2.421875 0l0 -10.359367q0 -1.0 -0.609375 -1.65625q-0.609375 -0.65625 -1.40625 -0.65625q-0.71875 0 -1.515625 0.546875q-0.796875 0.53125 -1.8125 2.109375l0 8.703117l1.09375 0q0.46875 0 0.671875 0.1875q0.203125 0.171875 0.203125 0.46875q0 0.28125 -0.203125 0.46875q-0.203125 0.1875 -0.671875 0.1875l-2.421875 0l0 -10.265617q0 -1.046875 -0.625 -1.71875q-0.609375 -0.6875 -1.375 -0.6875q-0.703125 0 -1.390625 0.453125q-0.953125 0.640625 -2.0 2.203125l0 8.703117l1.109375 0q0.46875 0 0.671875 0.1875q0.203125 0.171875 0.203125 0.46875q0 0.28125 -0.203125 0.46875q-0.203125 0.1875 -0.671875 0.1875l-3.53125 0q-0.46875 0 -0.671875 -0.1875q-0.203125 -0.1875 -0.203125 -0.46875q0 -0.296875 0.203125 -0.46875q0.203125 -0.1875 0.671875 -0.1875l1.109375 0l0 -10.890617l-1.109375 0q-0.46875 0 -0.671875 -0.1875q-0.203125 -0.1875 -0.203125 -0.484375q0 -0.28125 0.203125 -0.46875q0.203125 -0.1875 0.671875 -0.1875l2.421875 0z" fill-rule="nonzero"/><defs><linearGradient id="p.1" gradientUnits="userSpaceOnUse" gradientTransform="matrix(0.0 -10.33000450272537 10.33000450272537 0.0 0.0 0.0)" spreadMethod="pad" x1="-14.069048401188013" y1="0.45045592163388926" x2="-14.069085124029012" y2="10.78046042429398"><stop offset="0.0" stop-color="#17becf" stop-opacity="0.0"/><stop offset="1.0" stop-color="#17becf"/></linearGradient></defs><path fill="url(#p.1)" d="m4.6535435 145.33333l0 -91.590546l106.708664 0l0 91.590546z" fill-rule="evenodd"/><path fill="#17becf" d="m111.35171 235.77165l0 -91.590546l150.48819 0l0 91.590546z" fill-rule="evenodd"/><path fill="#17becf" d="m111.35171 57.412075l0 -43.244095l150.48819 0l0 43.244095z" fill-rule="evenodd"/><path fill="#000000" fill-opacity="0.0" d="m165.18373 56.217857l0 85.92126" fill-rule="evenodd"/><path stroke="#000000" stroke-width="3.0" stroke-linejoin="round" stroke-linecap="butt" d="m165.18373 56.217857l0 67.92126" fill-rule="evenodd"/><path fill="#000000" stroke="#000000" stroke-width="3.0" stroke-linecap="butt" d="m160.22853 124.13912l4.9552 13.614296l4.9552 -13.614296z" fill-rule="evenodd"/><path fill="#000000" fill-opacity="0.0" d="m213.18373 58.26398l0 85.921265" fill-rule="evenodd"/><path stroke="#000000" stroke-width="3.0" stroke-linejoin="round" stroke-linecap="butt" d="m213.18373 76.26398l0 67.921265" fill-rule="evenodd"/><path fill="#000000" stroke="#000000" stroke-width="3.0" stroke-linecap="butt" d="m218.13893 76.26398l-4.9552 -13.614292l-4.9552 13.614292z" fill-rule="evenodd"/><path fill="#000000" fill-opacity="0.0" d="m41.15223 73.75853l86.92913 0l0 46.866142l-86.92913 0z" fill-rule="evenodd"/><path fill="#000000" d="m51.87098 104.51853l0 -16.21875l2.203125 0l8.53125 12.734375l0 -12.734375l2.046875 0l0 16.21875l-2.203125 0l-8.515625 -12.75l0 12.75l-2.0625 0z" fill-rule="nonzero"/><path fill="#000000" d="m66.49822 113.01853l4.140625 -10.8125l1.546875 0l4.421875 10.8125l-1.625 0l-1.265625 -3.28125l-4.515625 0l-1.1875 3.28125l-1.515625 0zm3.109375 -4.4375l3.671875 0l-1.125 -3.0q-0.515625 -1.359375 -0.765625 -2.234375q-0.21875 1.03125 -0.59375 2.0625l-1.1875 3.171875zm8.140335 4.4375l0 -10.8125l1.46875 0l5.671875 8.484375l0 -8.484375l1.375 0l0 10.8125l-1.46875 0l-5.6875 -8.5l0 8.5l-1.359375 0zm18.630264 -3.796875l1.4375 0.359375q-0.453125 1.765625 -1.625 2.703125q-1.15625 0.921875 -2.859375 0.921875q-1.734375 0 -2.84375 -0.703125q-1.09375 -0.71875 -1.671875 -2.0625q-0.5625 -1.359375 -0.5625 -2.90625q0 -1.6875 0.640625 -2.9375q0.65625 -1.265625 1.84375 -1.921875q1.1875 -0.65625 2.625 -0.65625q1.625 0 2.71875 0.828125q1.109375 0.828125 1.546875 2.328125l-1.40625 0.328125q-0.375 -1.1875 -1.09375 -1.71875q-0.71875 -0.546875 -1.796875 -0.546875q-1.25 0 -2.09375 0.609375q-0.828125 0.59375 -1.171875 1.609375q-0.328125 1.0 -0.328125 2.0625q0 1.390625 0.390625 2.421875q0.40625 1.015625 1.25 1.53125q0.859375 0.5 1.84375 0.5q1.203125 0 2.03125 -0.6875q0.84375 -0.6875 1.125 -2.0625z" fill-rule="nonzero"/><path fill="#000000" fill-opacity="0.0" d="m111.35171 166.92148l150.48819 0l0 46.866135l-150.48819 0z" fill-rule="evenodd"/><path fill="#000000" d="m164.1833 194.51454l0 -16.21875l2.203125 0l8.53125 12.734375l0 -12.734375l2.046875 0l0 16.21875l-2.203125 0l-8.515625 -12.75l0 12.75l-2.0625 0z" fill-rule="nonzero"/><path fill="#000000" d="m178.81055 203.01454l4.140625 -10.8125l1.546875 0l4.421875 10.8125l-1.625 0l-1.265625 -3.28125l-4.515625 0l-1.1875 3.28125l-1.515625 0zm3.109375 -4.4375l3.671875 0l-1.125 -3.0q-0.515625 -1.359375 -0.765625 -2.234375q-0.21875 1.03125 -0.59375 2.0625l-1.1875 3.171875zm8.140335 4.4375l0 -10.8125l1.46875 0l5.671875 8.484375l0 -8.484375l1.375 0l0 10.8125l-1.46875 0l-5.6875 -8.5l0 8.5l-1.359375 0zm18.630264 -3.796875l1.4375 0.359375q-0.453125 1.765625 -1.625 2.703125q-1.15625 0.921875 -2.859375 0.921875q-1.734375 0 -2.84375 -0.703125q-1.09375 -0.71875 -1.671875 -2.0625q-0.5625 -1.359375 -0.5625 -2.90625q0 -1.6875 0.640625 -2.9375q0.65625 -1.265625 1.84375 -1.921875q1.1875 -0.65625 2.625 -0.65625q1.625 0 2.71875 0.828125q1.109375 0.828125 1.546875 2.328125l-1.40625 0.328125q-0.375 -1.1875 -1.09375 -1.71875q-0.71875 -0.546875 -1.796875 -0.546875q-1.25 0 -2.09375 0.609375q-0.828125 0.59375 -1.171875 1.609375q-0.328125 1.0 -0.328125 2.0625q0 1.390625 0.390625 2.421875q0.40625 1.015625 1.25 1.53125q0.859375 0.5 1.84375 0.5q1.203125 0 2.03125 -0.6875q0.84375 -0.6875 1.125 -2.0625z" fill-rule="nonzero"/><path fill="#000000" fill-opacity="0.0" d="m166.11237 9.3517065l46.393692 0l0 46.86614l-46.393692 0z" fill-rule="evenodd"/><path fill="#000000" d="m178.6456 40.111706l0 -16.218752l2.203125 0l8.531235 12.734377l0 -12.734377l2.046875 0l0 16.218752l-2.203125 0l-8.51561 -12.750002l0 12.750002l-2.0625 0z" fill-rule="nonzero"/><path fill="#000000" d="m200.89783 47.330456l0 1.28125l-7.15625 0q-0.015625 -0.484375 0.15625 -0.921875q0.28125 -0.734375 0.875 -1.4375q0.609375 -0.703125 1.734375 -1.640625q1.765625 -1.4375 2.390625 -2.28125q0.625 -0.859375 0.625 -1.609375q0 -0.78125 -0.578125 -1.328125q-0.5625 -0.546875 -1.46875 -0.546875q-0.953125 0 -1.53125 0.578125q-0.578125 0.578125 -0.578125 1.59375l-1.375 -0.140625q0.140625 -1.53125 1.046875 -2.328125q0.921875 -0.796875 2.46875 -0.796875q1.5625 0 2.46875 0.859375q0.90625 0.859375 0.90625 2.140625q0 0.65625 -0.265625 1.28125q-0.265625 0.625 -0.890625 1.328125q-0.609375 0.6875 -2.046875 1.890625q-1.1875 1.0 -1.53125 1.359375q-0.34375 0.359375 -0.5625 0.71875l5.3125 0z" fill-rule="nonzero"/><path fill="#000000" fill-opacity="0.0" d="m159.54591 75.055824l86.92914 0l0 46.866142l-86.92914 0z" fill-rule="evenodd"/><path fill="#000000" d="m170.04591 105.81583l0 -11.75l1.78125 0l0 1.65625q0.546875 -0.875 1.46875 -1.390625q0.921875 -0.53125 2.09375 -0.53125q1.296875 0 2.125 0.546875q0.84375 0.53125 1.1875 1.515625q1.390625 -2.0625 3.625 -2.0625q1.75 0 2.6875 0.96875q0.9375 0.96875 0.9375 2.984375l0 8.0625l-1.96875 0l0 -7.40625q0 -1.1875 -0.203125 -1.703125q-0.1875 -0.53125 -0.703125 -0.84375q-0.5 -0.328125 -1.1875 -0.328125q-1.234375 0 -2.0625 0.828125q-0.8125 0.8125 -0.8125 2.625l0 6.828125l-2.0 0l0 -7.640625q0 -1.3125 -0.484375 -1.96875q-0.484375 -0.671875 -1.59375 -0.671875q-0.84375 0 -1.5625 0.4375q-0.703125 0.4375 -1.03125 1.296875q-0.3125 0.84375 -0.3125 2.453125l0 6.09375l-1.984375 0z" fill-rule="nonzero"/><path fill="#000000" d="m193.04375 114.31583l-1.328125 0l0 -8.46875q-0.46875 0.46875 -1.25 0.921875q-0.78125 0.453125 -1.40625 0.6875l0 -1.28125q1.125 -0.53125 1.953125 -1.265625q0.828125 -0.75 1.171875 -1.453125l0.859375 0l0 10.859375zm10.387497 -1.28125l0 1.28125l-7.15625 0q-0.015625 -0.484375 0.15625 -0.921875q0.28125 -0.734375 0.875 -1.4375q0.609375 -0.703125 1.734375 -1.640625q1.765625 -1.4375 2.390625 -2.28125q0.625 -0.859375 0.625 -1.609375q0 -0.78125 -0.578125 -1.328125q-0.5625 -0.546875 -1.46875 -0.546875q-0.953125 0 -1.53125 0.578125q-0.578125 0.578125 -0.578125 1.59375l-1.375 -0.140625q0.140625 -1.53125 1.046875 -2.328125q0.921875 -0.796875 2.46875 -0.796875q1.5625 0 2.46875 0.859375q0.90625 0.859375 0.90625 2.140625q0 0.65625 -0.265625 1.28125q-0.265625 0.625 -0.890625 1.328125q-0.609375 0.6875 -2.046875 1.890625q-1.1875 1.0 -1.53125 1.359375q-0.34375 0.359375 -0.5625 0.71875l5.3125 0z" fill-rule="nonzero"/><path fill="#000000" fill-opacity="0.0" d="m207.54591 75.055824l86.92912 0l0 46.866142l-86.92912 0z" fill-rule="evenodd"/><path fill="#000000" d="m218.04591 105.81583l0 -11.75l1.78125 0l0 1.65625q0.546875 -0.875 1.46875 -1.390625q0.921875 -0.53125 2.09375 -0.53125q1.296875 0 2.125 0.546875q0.84375 0.53125 1.1875 1.515625q1.390625 -2.0625 3.625 -2.0625q1.75 0 2.6875 0.96875q0.9375 0.96875 0.9375 2.984375l0 8.0625l-1.96875 0l0 -7.40625q0 -1.1875 -0.203125 -1.703125q-0.1875 -0.53125 -0.703125 -0.84375q-0.5 -0.328125 -1.1875 -0.328125q-1.234375 0 -2.0625 0.828125q-0.8125 0.8125 -0.8125 2.625l0 6.828125l-2.0 0l0 -7.640625q0 -1.3125 -0.484375 -1.96875q-0.484375 -0.671875 -1.59375 -0.671875q-0.84375 0 -1.5625 0.4375q-0.703125 0.4375 -1.03125 1.296875q-0.3125 0.84375 -0.3125 2.453125l0 6.09375l-1.984375 0z" fill-rule="nonzero"/><path fill="#000000" d="m243.02812 113.03458l0 1.28125l-7.15625 0q-0.015625 -0.484375 0.15625 -0.921875q0.28125 -0.734375 0.875 -1.4375q0.609375 -0.703125 1.734375 -1.640625q1.765625 -1.4375 2.390625 -2.28125q0.625 -0.859375 0.625 -1.609375q0 -0.78125 -0.578125 -1.328125q-0.5625 -0.546875 -1.46875 -0.546875q-0.953125 0 -1.53125 0.578125q-0.578125 0.578125 -0.578125 1.59375l-1.375 -0.140625q0.140625 -1.53125 1.046875 -2.328125q0.921875 -0.796875 2.46875 -0.796875q1.5625 0 2.46875 0.859375q0.90625 0.859375 0.90625 2.140625q0 0.65625 -0.265625 1.28125q-0.265625 0.625 -0.890625 1.328125q-0.609375 0.6875 -2.046875 1.890625q-1.1875 1.0 -1.53125 1.359375q-0.34375 0.359375 -0.5625 0.71875l5.3125 0zm6.418747 1.28125l-1.328125 0l0 -8.46875q-0.46875 0.46875 -1.25 0.921875q-0.78125 0.453125 -1.40625 0.6875l0 -1.28125q1.125 -0.53125 1.953125 -1.265625q0.828125 -0.75 1.171875 -1.453125l0.859375 0l0 10.859375z" fill-rule="nonzero"/><path fill="#000000" fill-opacity="0.0" d="m110.04724 251.35957l150.48819 0" fill-rule="evenodd"/><path stroke="#000000" stroke-width="3.0" stroke-linejoin="round" stroke-linecap="butt" d="m128.04724 251.35957l114.48819 0" fill-rule="evenodd"/><path fill="#000000" stroke="#000000" stroke-width="3.0" stroke-linecap="butt" d="m128.04724 246.40439l-13.614288 4.955185l13.614288 4.9552155z" fill-rule="evenodd"/><path fill="#000000" stroke="#000000" stroke-width="3.0" stroke-linecap="butt" d="m242.53543 256.3148l13.614288 -4.9552155l-13.614288 -4.955185z" fill-rule="evenodd"/><path fill="#000000" fill-opacity="0.0" d="m169.15224 241.75853l86.92912 0l0 46.866135l-86.92912 0z" fill-rule="evenodd"/><path fill="#000000" d="m184.02724 272.51852l0 -14.296875l-5.34375 0l0 -1.921875l12.859375 0l0 1.921875l-5.375 0l0 14.296875l-2.140625 0z" fill-rule="nonzero"/><path fill="#000000" fill-opacity="0.0" d="m261.75067 161.15044l68.12598 0l0 42.015747l-68.12598 0z" fill-rule="evenodd"/><path fill="#000000" d="m272.87415 188.07043l0 -13.359375l5.046875 0q1.328125 0 2.03125 0.125q0.96875 0.171875 1.640625 0.640625q0.671875 0.453125 1.078125 1.28125q0.40625 0.828125 0.40625 1.828125q0 1.703125 -1.09375 2.890625q-1.078125 1.171875 -3.921875 1.171875l-3.421875 0l0 5.421875l-1.765625 0zm1.765625 -7.0l3.453125 0q1.71875 0 2.4375 -0.640625q0.71875 -0.640625 0.71875 -1.796875q0 -0.84375 -0.421875 -1.4375q-0.421875 -0.59375 -1.125 -0.78125q-0.4375 -0.125 -1.640625 -0.125l-3.421875 0l0 4.78125zm9.865448 2.15625q0 -2.6875 1.484375 -3.96875q1.25 -1.078125 3.046875 -1.078125q2.0 0 3.265625 1.3125q1.265625 1.296875 1.265625 3.609375q0 1.859375 -0.5625 2.9375q-0.5625 1.0625 -1.640625 1.65625q-1.0625 0.59375 -2.328125 0.59375q-2.03125 0 -3.28125 -1.296875q-1.25 -1.3125 -1.25 -3.765625zm1.6875 0q0 1.859375 0.796875 2.796875q0.8125 0.921875 2.046875 0.921875q1.21875 0 2.03125 -0.921875q0.8125 -0.9375 0.8125 -2.84375q0 -1.796875 -0.8125 -2.71875q-0.8125 -0.921875 -2.03125 -0.921875q-1.234375 0 -2.046875 0.921875q-0.796875 0.90625 -0.796875 2.765625zm9.297577 8.546875l0 -13.375l1.484375 0l0 1.25q0.53125 -0.734375 1.1875 -1.09375q0.671875 -0.375 1.625 -0.375q1.234375 0 2.171875 0.640625q0.953125 0.625 1.4375 1.796875q0.484375 1.15625 0.484375 2.546875q0 1.484375 -0.53125 2.671875q-0.53125 1.1875 -1.546875 1.828125q-1.015625 0.625 -2.140625 0.625q-0.8125 0 -1.46875 -0.34375q-0.65625 -0.34375 -1.0625 -0.875l0 4.703125l-1.640625 0zm1.484375 -8.484375q0 1.859375 0.75 2.765625q0.765625 0.890625 1.828125 0.890625q1.09375 0 1.875 -0.921875q0.78125 -0.9375 0.78125 -2.875q0 -1.84375 -0.765625 -2.765625q-0.75 -0.921875 -1.8125 -0.921875q-1.046875 0 -1.859375 0.984375q-0.796875 0.96875 -0.796875 2.84375zm19.793396 4.78125l-1.640625 0l0 -10.453125q-0.59375 0.5625 -1.5625 1.140625q-0.953125 0.5625 -1.71875 0.84375l0 -1.59375q1.375 -0.640625 2.40625 -1.5625q1.03125 -0.921875 1.453125 -1.78125l1.0625 0l0 13.40625z" fill-rule="nonzero"/><path fill="#000000" fill-opacity="0.0" d="m261.75067 23.315456l68.12598 0l0 42.01575l-68.12598 0z" fill-rule="evenodd"/><path fill="#000000" d="m272.87415 50.235455l0 -13.359375l5.046875 0q1.328125 0 2.03125 0.125q0.96875 0.171875 1.640625 0.640625q0.671875 0.453125 1.078125 1.28125q0.40625 0.828125 0.40625 1.828125q0 1.703125 -1.09375 2.890625q-1.078125 1.171875 -3.921875 1.171875l-3.421875 0l0 5.421875l-1.765625 0zm1.765625 -7.0l3.453125 0q1.71875 0 2.4375 -0.640625q0.71875 -0.640625 0.71875 -1.796875q0 -0.84375 -0.421875 -1.4375q-0.421875 -0.59375 -1.125 -0.78125q-0.4375 -0.125 -1.640625 -0.125l-3.421875 0l0 4.78125zm9.865448 2.15625q0 -2.6875 1.484375 -3.96875q1.25 -1.078125 3.046875 -1.078125q2.0 0 3.265625 1.3125q1.265625 1.296875 1.265625 3.609375q0 1.859375 -0.5625 2.9375q-0.5625 1.0625 -1.640625 1.65625q-1.0625 0.59375 -2.328125 0.59375q-2.03125 0 -3.28125 -1.296875q-1.25 -1.3125 -1.25 -3.765625zm1.6875 0q0 1.859375 0.796875 2.796875q0.8125 0.921875 2.046875 0.921875q1.21875 0 2.03125 -0.921875q0.8125 -0.9375 0.8125 -2.84375q0 -1.796875 -0.8125 -2.71875q-0.8125 -0.921875 -2.03125 -0.921875q-1.234375 0 -2.046875 0.921875q-0.796875 0.90625 -0.796875 2.765625zm9.297577 8.546875l0 -13.375l1.484375 0l0 1.25q0.53125 -0.734375 1.1875 -1.09375q0.671875 -0.375 1.625 -0.375q1.234375 0 2.171875 0.640625q0.953125 0.625 1.4375 1.796875q0.484375 1.15625 0.484375 2.546875q0 1.484375 -0.53125 2.671875q-0.53125 1.1875 -1.546875 1.828125q-1.015625 0.625 -2.140625 0.625q-0.8125 0 -1.46875 -0.34375q-0.65625 -0.34375 -1.0625 -0.875l0 4.703125l-1.640625 0zm1.484375 -8.484375q0 1.859375 0.75 2.765625q0.765625 0.890625 1.828125 0.890625q1.09375 0 1.875 -0.921875q0.78125 -0.9375 0.78125 -2.875q0 -1.84375 -0.765625 -2.765625q-0.75 -0.921875 -1.8125 -0.921875q-1.046875 0 -1.859375 0.984375q-0.796875 0.96875 -0.796875 2.84375zm22.230896 3.203125l0 1.578125l-8.828125 0q-0.015625 -0.59375 0.1875 -1.140625q0.34375 -0.90625 1.078125 -1.78125q0.75 -0.875 2.15625 -2.015625q2.171875 -1.78125 2.9375 -2.828125q0.765625 -1.046875 0.765625 -1.96875q0 -0.984375 -0.703125 -1.640625q-0.6875 -0.671875 -1.8125 -0.671875q-1.1875 0 -1.90625 0.71875q-0.703125 0.703125 -0.703125 1.953125l-1.6875 -0.171875q0.171875 -1.890625 1.296875 -2.875q1.140625 -0.984375 3.03125 -0.984375q1.921875 0 3.046875 1.0625q1.125 1.0625 1.125 2.640625q0 0.796875 -0.328125 1.578125q-0.328125 0.78125 -1.09375 1.640625q-0.75 0.84375 -2.53125 2.34375q-1.46875 1.234375 -1.890625 1.6875q-0.421875 0.4375 -0.6875 0.875l6.546875 0z" fill-rule="nonzero"/><path fill="#000000" fill-opacity="0.0" d="m345.659 33.78478l142.67715 0l0 67.87401l-142.67715 0z" fill-rule="evenodd"/><path fill="#000000" d="m366.28372 61.984776l0 -14.3125l5.390625 0q1.4375 0 2.1875 0.125q1.046875 0.1875 1.765625 0.6875q0.71875 0.484375 1.140625 1.375q0.4375 0.890625 0.4375 1.953125q0 1.828125 -1.171875 3.09375q-1.15625 1.25 -4.1875 1.25l-3.671875 0l0 5.828125l-1.890625 0zm1.890625 -7.515625l3.703125 0q1.828125 0 2.59375 -0.671875q0.78125 -0.6875 0.78125 -1.9375q0 -0.890625 -0.453125 -1.53125q-0.453125 -0.640625 -1.1875 -0.84375q-0.484375 -0.125 -1.78125 -0.125l-3.65625 0l0 5.109375zm10.574219 2.328125q0 -2.875 1.59375 -4.265625q1.34375 -1.15625 3.265625 -1.15625q2.140625 0 3.484375 1.40625q1.359375 1.40625 1.359375 3.875q0 2.0 -0.59375 3.15625q-0.59375 1.140625 -1.75 1.78125q-1.140625 0.625 -2.5 0.625q-2.1875 0 -3.53125 -1.390625q-1.328125 -1.40625 -1.328125 -4.03125zm1.796875 0q0 2.0 0.859375 2.984375q0.875 0.984375 2.203125 0.984375q1.3125 0 2.171875 -0.984375q0.875 -1.0 0.875 -3.046875q0 -1.921875 -0.875 -2.90625q-0.875 -1.0 -2.171875 -1.0q-1.328125 0 -2.203125 1.0q-0.859375 0.984375 -0.859375 2.96875zm9.966797 9.156246l0 -14.343746l1.609375 0l0 1.34375q0.5625 -0.78125 1.265625 -1.171875q0.71875 -0.40625 1.734375 -0.40625q1.328125 0 2.34375 0.6875q1.015625 0.6875 1.53125 1.9375q0.53125 1.234375 0.53125 2.71875q0 1.59375 -0.578125 2.875q-0.5625 1.265625 -1.65625 1.953125q-1.09375 0.671875 -2.296875 0.671875q-0.875 0 -1.578125 -0.375q-0.6875 -0.375 -1.140625 -0.9375l0 5.046871l-1.765625 0zm1.59375 -9.093746q0 2.0 0.8125 2.953125q0.8125 0.953125 1.96875 0.953125q1.171875 0 2.0 -0.984375q0.84375 -0.984375 0.84375 -3.078125q0 -1.96875 -0.828125 -2.953125q-0.8125 -1.0 -1.9375 -1.0q-1.125 0 -2.0 1.0625q-0.859375 1.046875 -0.859375 3.046875zm16.326172 5.125l0 -1.53125q-1.203125 1.765625 -3.28125 1.765625q-0.921875 0 -1.71875 -0.34375q-0.796875 -0.359375 -1.1875 -0.890625q-0.375 -0.53125 -0.53125 -1.3125q-0.109375 -0.515625 -0.109375 -1.640625l0 -6.421875l1.75 0l0 5.75q0 1.375 0.109375 1.859375q0.171875 0.6875 0.703125 1.09375q0.546875 0.390625 1.328125 0.390625q0.796875 0 1.484375 -0.40625q0.703125 -0.40625 0.984375 -1.09375q0.296875 -0.703125 0.296875 -2.03125l0 -5.5625l1.75 0l0 10.375l-1.578125 0zm4.294922 0l0 -14.3125l1.75 0l0 14.3125l-1.75 0zm11.255859 -1.28125q-0.984375 0.828125 -1.890625 1.171875q-0.90625 0.34375 -1.9375 0.34375q-1.703125 0 -2.625 -0.828125q-0.921875 -0.84375 -0.921875 -2.140625q0 -0.765625 0.34375 -1.390625q0.359375 -0.625 0.921875 -1.0q0.5625 -0.390625 1.265625 -0.59375q0.515625 -0.125 1.5625 -0.265625q2.125 -0.25 3.125 -0.59375q0.015625 -0.359375 0.015625 -0.46875q0 -1.0625 -0.5 -1.515625q-0.671875 -0.59375 -2.0 -0.59375q-1.25 0 -1.84375 0.4375q-0.578125 0.4375 -0.859375 1.546875l-1.71875 -0.234375q0.234375 -1.109375 0.765625 -1.78125q0.53125 -0.6875 1.546875 -1.046875q1.015625 -0.375 2.359375 -0.375q1.328125 0 2.15625 0.3125q0.828125 0.3125 1.21875 0.796875q0.390625 0.46875 0.546875 1.1875q0.09375 0.453125 0.09375 1.625l0 2.34375q0 2.453125 0.109375 3.109375q0.109375 0.640625 0.453125 1.234375l-1.84375 0q-0.265625 -0.546875 -0.34375 -1.28125zm-0.15625 -3.921875q-0.953125 0.390625 -2.875 0.65625q-1.078125 0.15625 -1.53125 0.359375q-0.4375 0.1875 -0.6875 0.5625q-0.25 0.375 -0.25 0.84375q0 0.703125 0.53125 1.171875q0.53125 0.46875 1.5625 0.46875q1.015625 0 1.796875 -0.4375q0.796875 -0.453125 1.171875 -1.21875q0.28125 -0.609375 0.28125 -1.765625l0 -0.640625zm8.341797 3.625l0.25 1.5625q-0.734375 0.15625 -1.328125 0.15625q-0.953125 0 -1.484375 -0.296875q-0.515625 -0.3125 -0.734375 -0.796875q-0.21875 -0.5 -0.21875 -2.078125l0 -5.96875l-1.28125 0l0 -1.375l1.28125 0l0 -2.5625l1.75 -1.0625l0 3.625l1.765625 0l0 1.375l-1.765625 0l0 6.0625q0 0.75 0.09375 0.96875q0.09375 0.203125 0.296875 0.34375q0.21875 0.125 0.609375 0.125q0.28125 0 0.765625 -0.078125zm1.7285156 -10.71875l0 -2.015625l1.765625 0l0 2.015625l-1.765625 0zm0 12.296875l0 -10.375l1.765625 0l0 10.375l-1.765625 0zm3.7871094 -5.1875q0 -2.875 1.59375 -4.265625q1.34375 -1.15625 3.265625 -1.15625q2.140625 0 3.484375 1.40625q1.359375 1.40625 1.359375 3.875q0 2.0 -0.59375 3.15625q-0.59375 1.140625 -1.75 1.78125q-1.140625 0.625 -2.5 0.625q-2.1875 0 -3.53125 -1.390625q-1.328125 -1.40625 -1.328125 -4.03125zm1.796875 0q0 2.0 0.859375 2.984375q0.875 0.984375 2.203125 0.984375q1.3125 0 2.171875 -0.984375q0.875 -1.0 0.875 -3.046875q0 -1.921875 -0.875 -2.90625q-0.875 -1.0 -2.171875 -1.0q-1.328125 0 -2.203125 1.0q-0.859375 0.984375 -0.859375 2.96875zm9.966797 5.1875l0 -10.375l1.59375 0l0 1.484375q1.140625 -1.71875 3.296875 -1.71875q0.9375 0 1.71875 0.34375q0.796875 0.328125 1.1875 0.875q0.390625 0.546875 0.546875 1.296875q0.09375 0.5 0.09375 1.71875l0 6.375l-1.765625 0l0 -6.3125q0 -1.078125 -0.203125 -1.609375q-0.203125 -0.53125 -0.734375 -0.84375q-0.515625 -0.3125 -1.21875 -0.3125q-1.125 0 -1.9375 0.71875q-0.8125 0.703125 -0.8125 2.6875l0 5.671875l-1.765625 0zm10.419922 -3.09375l1.75 -0.28125q0.140625 1.046875 0.8125 1.609375q0.671875 0.546875 1.875 0.546875q1.203125 0 1.78125 -0.484375q0.59375 -0.5 0.59375 -1.15625q0 -0.59375 -0.515625 -0.9375q-0.359375 -0.234375 -1.796875 -0.59375q-1.9375 -0.5 -2.6875 -0.84375q-0.734375 -0.359375 -1.125 -0.984375q-0.390625 -0.640625 -0.390625 -1.40625q0 -0.6875 0.3125 -1.28125q0.328125 -0.59375 0.875 -0.984375q0.40625 -0.296875 1.109375 -0.5q0.71875 -0.21875 1.53125 -0.21875q1.21875 0 2.140625 0.359375q0.921875 0.34375 1.359375 0.953125q0.4375 0.59375 0.609375 1.59375l-1.71875 0.234375q-0.125 -0.796875 -0.6875 -1.234375q-0.5625 -0.453125 -1.578125 -0.453125q-1.21875 0 -1.734375 0.40625q-0.515625 0.390625 -0.515625 0.921875q0 0.34375 0.21875 0.625q0.203125 0.28125 0.671875 0.46875q0.265625 0.09375 1.546875 0.4375q1.875 0.5 2.609375 0.828125q0.734375 0.3125 1.15625 0.921875q0.421875 0.59375 0.421875 1.5q0 0.875 -0.515625 1.65625q-0.515625 0.78125 -1.484375 1.203125q-0.96875 0.421875 -2.1875 0.421875q-2.015625 0 -3.078125 -0.84375q-1.0625 -0.84375 -1.359375 -2.484375z" fill-rule="nonzero"/><path fill="#000000" d="m384.40384 85.98477l0 -10.375l1.59375 0l0 1.484375q1.140625 -1.71875 3.296875 -1.71875q0.9375 0 1.71875 0.34375q0.796875 0.328125 1.1875 0.875q0.390625 0.546875 0.546875 1.296875q0.09375 0.5 0.09375 1.71875l0 6.375l-1.765625 0l0 -6.3125q0 -1.078125 -0.203125 -1.609375q-0.203125 -0.53125 -0.734375 -0.84375q-0.515625 -0.3125 -1.21875 -0.3125q-1.125 0 -1.9375 0.71875q-0.8125 0.703125 -0.8125 2.6875l0 5.671875l-1.765625 0zm17.919922 0l0 -1.53125q-1.203125 1.765625 -3.28125 1.765625q-0.921875 0 -1.71875 -0.34375q-0.796875 -0.359375 -1.1875 -0.890625q-0.375 -0.53125 -0.53125 -1.3125q-0.109375 -0.515625 -0.109375 -1.640625l0 -6.421875l1.75 0l0 5.75q0 1.375 0.109375 1.859375q0.171875 0.6875 0.703125 1.09375q0.546875 0.390625 1.328125 0.390625q0.796875 0 1.484375 -0.40625q0.703125 -0.40625 0.984375 -1.09375q0.296875 -0.703125 0.296875 -2.03125l0 -5.5625l1.75 0l0 10.375l-1.578125 0zm4.326172 0l0 -10.375l1.578125 0l0 1.453125q0.484375 -0.75 1.296875 -1.21875q0.8125 -0.46875 1.84375 -0.46875q1.15625 0 1.890625 0.484375q0.734375 0.46875 1.046875 1.328125q1.234375 -1.8125 3.203125 -1.8125q1.546875 0 2.375 0.859375q0.828125 0.859375 0.828125 2.625l0 7.125l-1.75 0l0 -6.53125q0 -1.0625 -0.171875 -1.515625q-0.171875 -0.46875 -0.625 -0.75q-0.4375 -0.28125 -1.046875 -0.28125q-1.09375 0 -1.828125 0.734375q-0.71875 0.71875 -0.71875 2.3125l0 6.03125l-1.75 0l0 -6.734375q0 -1.171875 -0.4375 -1.75q-0.421875 -0.59375 -1.40625 -0.59375q-0.734375 0 -1.375 0.390625q-0.625 0.390625 -0.90625 1.140625q-0.28125 0.75 -0.28125 2.171875l0 5.375l-1.765625 0zm18.285156 0l-1.625 0l0 -14.3125l1.75 0l0 5.109375q1.125 -1.40625 2.84375 -1.40625q0.953125 0 1.8125 0.390625q0.859375 0.390625 1.40625 1.09375q0.546875 0.6875 0.859375 1.671875q0.3125 0.984375 0.3125 2.109375q0 2.671875 -1.3125 4.125q-1.3125 1.453125 -3.15625 1.453125q-1.84375 0 -2.890625 -1.53125l0 1.296875zm-0.015625 -5.265625q0 1.859375 0.5 2.703125q0.84375 1.34375 2.25 1.34375q1.15625 0 1.984375 -1.0q0.84375 -1.0 0.84375 -2.984375q0 -2.03125 -0.8125 -2.984375q-0.796875 -0.96875 -1.9375 -0.96875q-1.15625 0 -2.0 1.0q-0.828125 1.0 -0.828125 2.890625zm16.623047 1.921875l1.8125 0.234375q-0.421875 1.578125 -1.59375 2.46875q-1.15625 0.875 -2.96875 0.875q-2.265625 0 -3.609375 -1.390625q-1.328125 -1.40625 -1.328125 -3.9375q0 -2.625 1.34375 -4.0625q1.34375 -1.453125 3.5 -1.453125q2.078125 0 3.390625 1.421875q1.328125 1.40625 1.328125 3.984375q0 0.15625 -0.015625 0.46875l-7.734375 0q0.09375 1.703125 0.96875 2.609375q0.875 0.90625 2.171875 0.90625q0.96875 0 1.640625 -0.5q0.6875 -0.515625 1.09375 -1.625zm-5.78125 -2.84375l5.796875 0q-0.109375 -1.296875 -0.65625 -1.953125q-0.84375 -1.015625 -2.1875 -1.015625q-1.203125 0 -2.03125 0.8125q-0.828125 0.796875 -0.921875 2.15625zm9.779297 6.1875l0 -10.375l1.578125 0l0 1.578125q0.609375 -1.109375 1.125 -1.453125q0.515625 -0.359375 1.125 -0.359375q0.890625 0 1.8125 0.5625l-0.609375 1.640625q-0.640625 -0.390625 -1.28125 -0.390625q-0.578125 0 -1.046875 0.359375q-0.453125 0.34375 -0.65625 0.953125q-0.28125 0.9375 -0.28125 2.046875l0 5.4375l-1.765625 0z" fill-rule="nonzero"/><path fill="#000000" fill-opacity="0.0" d="m517.30206 33.783466l142.67712 0l0 67.87401l-142.67712 0z" fill-rule="evenodd"/><path fill="#000000" d="m538.5029 61.983463l0 -14.3125l5.390625 0q1.4375 0 2.1875 0.125q1.046875 0.1875 1.765625 0.6875q0.71875 0.484375 1.140625 1.375q0.4375 0.890625 0.4375 1.953125q0 1.828125 -1.171875 3.09375q-1.15625 1.25 -4.1875 1.25l-3.671875 0l0 5.828125l-1.890625 0zm1.890625 -7.515625l3.703125 0q1.828125 0 2.59375 -0.671875q0.78125 -0.6875 0.78125 -1.9375q0 -0.890625 -0.453125 -1.53125q-0.453125 -0.640625 -1.1875 -0.84375q-0.484375 -0.125 -1.78125 -0.125l-3.65625 0l0 5.109375zm17.996094 6.234375q-0.984375 0.828125 -1.890625 1.171875q-0.90625 0.34375 -1.9375 0.34375q-1.703125 0 -2.625 -0.828125q-0.921875 -0.84375 -0.921875 -2.140625q0 -0.765625 0.34375 -1.390625q0.359375 -0.625 0.921875 -1.0q0.5625 -0.390625 1.265625 -0.59375q0.515625 -0.125 1.5625 -0.265625q2.125 -0.25 3.125 -0.59375q0.015625 -0.359375 0.015625 -0.46875q0 -1.0625 -0.5 -1.515625q-0.671875 -0.59375 -2.0 -0.59375q-1.25 0 -1.84375 0.4375q-0.578125 0.4375 -0.859375 1.546875l-1.71875 -0.234375q0.234375 -1.109375 0.765625 -1.78125q0.53125 -0.6875 1.546875 -1.046875q1.015625 -0.375 2.359375 -0.375q1.328125 0 2.15625 0.3125q0.828125 0.3125 1.21875 0.796875q0.390625 0.46875 0.546875 1.1875q0.09375 0.453125 0.09375 1.625l0 2.34375q0 2.453125 0.109375 3.109375q0.109375 0.640625 0.453125 1.234375l-1.84375 0q-0.265625 -0.546875 -0.34375 -1.28125zm-0.15625 -3.921875q-0.953125 0.390625 -2.875 0.65625q-1.078125 0.15625 -1.53125 0.359375q-0.4375 0.1875 -0.6875 0.5625q-0.25 0.375 -0.25 0.84375q0 0.703125 0.53125 1.171875q0.53125 0.46875 1.5625 0.46875q1.015625 0 1.796875 -0.4375q0.796875 -0.453125 1.171875 -1.21875q0.28125 -0.609375 0.28125 -1.765625l0 -0.640625zm4.482422 5.203125l0 -10.375l1.578125 0l0 1.578125q0.609375 -1.109375 1.125 -1.453125q0.515625 -0.359375 1.125 -0.359375q0.890625 0 1.8125 0.5625l-0.609375 1.640625q-0.640625 -0.390625 -1.28125 -0.390625q-0.578125 0 -1.046875 0.359375q-0.453125 0.34375 -0.65625 0.953125q-0.28125 0.9375 -0.28125 2.046875l0 5.4375l-1.765625 0zm13.457031 -1.28125q-0.984375 0.828125 -1.890625 1.171875q-0.90625 0.34375 -1.9375 0.34375q-1.703125 0 -2.625 -0.828125q-0.921875 -0.84375 -0.921875 -2.140625q0 -0.765625 0.34375 -1.390625q0.359375 -0.625 0.921875 -1.0q0.5625 -0.390625 1.265625 -0.59375q0.515625 -0.125 1.5625 -0.265625q2.125 -0.25 3.125 -0.59375q0.015625 -0.359375 0.015625 -0.46875q0 -1.0625 -0.5 -1.515625q-0.671875 -0.59375 -2.0 -0.59375q-1.25 0 -1.84375 0.4375q-0.578125 0.4375 -0.859375 1.546875l-1.71875 -0.234375q0.234375 -1.109375 0.765625 -1.78125q0.53125 -0.6875 1.546875 -1.046875q1.015625 -0.375 2.359375 -0.375q1.328125 0 2.15625 0.3125q0.828125 0.3125 1.21875 0.796875q0.390625 0.46875 0.546875 1.1875q0.09375 0.453125 0.09375 1.625l0 2.34375q0 2.453125 0.109375 3.109375q0.109375 0.640625 0.453125 1.234375l-1.84375 0q-0.265625 -0.546875 -0.34375 -1.28125zm-0.15625 -3.921875q-0.953125 0.390625 -2.875 0.65625q-1.078125 0.15625 -1.53125 0.359375q-0.4375 0.1875 -0.6875 0.5625q-0.25 0.375 -0.25 0.84375q0 0.703125 0.53125 1.171875q0.53125 0.46875 1.5625 0.46875q1.015625 0 1.796875 -0.4375q0.796875 -0.453125 1.171875 -1.21875q0.28125 -0.609375 0.28125 -1.765625l0 -0.640625zm4.498047 5.203125l0 -10.375l1.578125 0l0 1.453125q0.484375 -0.75 1.296875 -1.21875q0.8125 -0.46875 1.84375 -0.46875q1.15625 0 1.890625 0.484375q0.734375 0.46875 1.046875 1.328125q1.234375 -1.8125 3.203125 -1.8125q1.546875 0 2.375 0.859375q0.828125 0.859375 0.828125 2.625l0 7.125l-1.75 0l0 -6.53125q0 -1.0625 -0.171875 -1.515625q-0.171875 -0.46875 -0.625 -0.75q-0.4375 -0.28125 -1.046875 -0.28125q-1.09375 0 -1.828125 0.734375q-0.71875 0.71875 -0.71875 2.3125l0 6.03125l-1.75 0l0 -6.734375q0 -1.171875 -0.4375 -1.75q-0.421875 -0.59375 -1.40625 -0.59375q-0.734375 0 -1.375 0.390625q-0.625 0.390625 -0.90625 1.140625q-0.28125 0.75 -0.28125 2.171875l0 5.375l-1.765625 0zm23.769531 -3.34375l1.8125 0.234375q-0.421875 1.578125 -1.59375 2.46875q-1.15625 0.875 -2.96875 0.875q-2.265625 0 -3.609375 -1.390625q-1.328125 -1.40625 -1.328125 -3.9375q0 -2.625 1.34375 -4.0625q1.34375 -1.453125 3.5 -1.453125q2.078125 0 3.390625 1.421875q1.328125 1.40625 1.328125 3.984375q0 0.15625 -0.015625 0.46875l-7.734375 0q0.09375 1.703125 0.96875 2.609375q0.875 0.90625 2.171875 0.90625q0.96875 0 1.640625 -0.5q0.6875 -0.515625 1.09375 -1.625zm-5.78125 -2.84375l5.796875 0q-0.109375 -1.296875 -0.65625 -1.953125q-0.84375 -1.015625 -2.1875 -1.015625q-1.203125 0 -2.03125 0.8125q-0.828125 0.796875 -0.921875 2.15625zm13.638672 4.609375l0.25 1.5625q-0.734375 0.15625 -1.328125 0.15625q-0.953125 0 -1.484375 -0.296875q-0.515625 -0.3125 -0.734375 -0.796875q-0.21875 -0.5 -0.21875 -2.078125l0 -5.96875l-1.28125 0l0 -1.375l1.28125 0l0 -2.5625l1.75 -1.0625l0 3.625l1.765625 0l0 1.375l-1.765625 0l0 6.0625q0 0.75 0.09375 0.96875q0.09375 0.203125 0.296875 0.34375q0.21875 0.125 0.609375 0.125q0.28125 0 0.765625 -0.078125zm8.822266 -1.765625l1.8125 0.234375q-0.421875 1.578125 -1.59375 2.46875q-1.15625 0.875 -2.96875 0.875q-2.265625 0 -3.609375 -1.390625q-1.328125 -1.40625 -1.328125 -3.9375q0 -2.625 1.34375 -4.0625q1.34375 -1.453125 3.5 -1.453125q2.078125 0 3.390625 1.421875q1.328125 1.40625 1.328125 3.984375q0 0.15625 -0.015625 0.46875l-7.734375 0q0.09375 1.703125 0.96875 2.609375q0.875 0.90625 2.171875 0.90625q0.96875 0 1.640625 -0.5q0.6875 -0.515625 1.09375 -1.625zm-5.78125 -2.84375l5.796875 0q-0.109375 -1.296875 -0.65625 -1.953125q-0.84375 -1.015625 -2.1875 -1.015625q-1.203125 0 -2.03125 0.8125q-0.828125 0.796875 -0.921875 2.15625zm9.779297 6.1875l0 -10.375l1.578125 0l0 1.578125q0.609375 -1.109375 1.125 -1.453125q0.515625 -0.359375 1.125 -0.359375q0.890625 0 1.8125 0.5625l-0.609375 1.640625q-0.640625 -0.390625 -1.28125 -0.390625q-0.578125 0 -1.046875 0.359375q-0.453125 0.34375 -0.65625 0.953125q-0.28125 0.9375 -0.28125 2.046875l0 5.4375l-1.765625 0zm5.9726562 -3.09375l1.75 -0.28125q0.140625 1.046875 0.8125 1.609375q0.671875 0.546875 1.875 0.546875q1.203125 0 1.78125 -0.484375q0.59375 -0.5 0.59375 -1.15625q0 -0.59375 -0.515625 -0.9375q-0.359375 -0.234375 -1.796875 -0.59375q-1.9375 -0.5 -2.6875 -0.84375q-0.734375 -0.359375 -1.125 -0.984375q-0.390625 -0.640625 -0.390625 -1.40625q0 -0.6875 0.3125 -1.28125q0.328125 -0.59375 0.875 -0.984375q0.40625 -0.296875 1.109375 -0.5q0.71875 -0.21875 1.53125 -0.21875q1.21875 0 2.140625 0.359375q0.921875 0.34375 1.359375 0.953125q0.4375 0.59375 0.609375 1.59375l-1.71875 0.234375q-0.125 -0.796875 -0.6875 -1.234375q-0.5625 -0.453125 -1.578125 -0.453125q-1.21875 0 -1.734375 0.40625q-0.515625 0.390625 -0.515625 0.921875q0 0.34375 0.21875 0.625q0.203125 0.28125 0.671875 0.46875q0.265625 0.09375 1.546875 0.4375q1.875 0.5 2.609375 0.828125q0.734375 0.3125 1.15625 0.921875q0.421875 0.59375 0.421875 1.5q0 0.875 -0.515625 1.65625q-0.515625 0.78125 -1.484375 1.203125q-0.96875 0.421875 -2.1875 0.421875q-2.015625 0 -3.078125 -0.84375q-1.0625 -0.84375 -1.359375 -2.484375z" fill-rule="nonzero"/><path fill="#000000" d="m556.0469 85.98346l0 -10.375l1.59375 0l0 1.484375q1.140625 -1.71875 3.296875 -1.71875q0.9375 0 1.71875 0.34375q0.796875 0.328125 1.1875 0.875q0.390625 0.546875 0.546875 1.296875q0.09375 0.5 0.09375 1.71875l0 6.375l-1.765625 0l0 -6.3125q0 -1.078125 -0.203125 -1.609375q-0.203125 -0.53125 -0.734375 -0.84375q-0.515625 -0.3125 -1.21875 -0.3125q-1.125 0 -1.9375 0.71875q-0.8125 0.703125 -0.8125 2.6875l0 5.671875l-1.765625 0zm17.919922 0l0 -1.53125q-1.203125 1.765625 -3.28125 1.765625q-0.921875 0 -1.71875 -0.34375q-0.796875 -0.359375 -1.1875 -0.890625q-0.375 -0.53125 -0.53125 -1.3125q-0.109375 -0.515625 -0.109375 -1.640625l0 -6.421875l1.75 0l0 5.75q0 1.375 0.109375 1.859375q0.171875 0.6875 0.703125 1.09375q0.546875 0.390625 1.328125 0.390625q0.796875 0 1.484375 -0.40625q0.703125 -0.40625 0.984375 -1.09375q0.296875 -0.703125 0.296875 -2.03125l0 -5.5625l1.75 0l0 10.375l-1.578125 0zm4.326172 0l0 -10.375l1.578125 0l0 1.453125q0.484375 -0.75 1.296875 -1.21875q0.8125 -0.46875 1.84375 -0.46875q1.15625 0 1.890625 0.484375q0.734375 0.46875 1.046875 1.328125q1.234375 -1.8125 3.203125 -1.8125q1.546875 0 2.375 0.859375q0.828125 0.859375 0.828125 2.625l0 7.125l-1.75 0l0 -6.53125q0 -1.0625 -0.171875 -1.515625q-0.171875 -0.46875 -0.625 -0.75q-0.4375 -0.28125 -1.046875 -0.28125q-1.09375 0 -1.828125 0.734375q-0.71875 0.71875 -0.71875 2.3125l0 6.03125l-1.75 0l0 -6.734375q0 -1.171875 -0.4375 -1.75q-0.421875 -0.59375 -1.40625 -0.59375q-0.734375 0 -1.375 0.390625q-0.625 0.390625 -0.90625 1.140625q-0.28125 0.75 -0.28125 2.171875l0 5.375l-1.765625 0zm18.285156 0l-1.625 0l0 -14.3125l1.75 0l0 5.109375q1.125 -1.40625 2.84375 -1.40625q0.953125 0 1.8125 0.390625q0.859375 0.390625 1.40625 1.09375q0.546875 0.6875 0.859375 1.671875q0.3125 0.984375 0.3125 2.109375q0 2.671875 -1.3125 4.125q-1.3125 1.453125 -3.15625 1.453125q-1.84375 0 -2.890625 -1.53125l0 1.296875zm-0.015625 -5.265625q0 1.859375 0.5 2.703125q0.84375 1.34375 2.25 1.34375q1.15625 0 1.984375 -1.0q0.84375 -1.0 0.84375 -2.984375q0 -2.03125 -0.8125 -2.984375q-0.796875 -0.96875 -1.9375 -0.96875q-1.15625 0 -2.0 1.0q-0.828125 1.0 -0.828125 2.890625zm16.623047 1.921875l1.8125 0.234375q-0.421875 1.578125 -1.59375 2.46875q-1.15625 0.875 -2.96875 0.875q-2.265625 0 -3.609375 -1.390625q-1.328125 -1.40625 -1.328125 -3.9375q0 -2.625 1.34375 -4.0625q1.34375 -1.453125 3.5 -1.453125q2.078125 0 3.390625 1.421875q1.328125 1.40625 1.328125 3.984375q0 0.15625 -0.015625 0.46875l-7.734375 0q0.09375 1.703125 0.96875 2.609375q0.875 0.90625 2.171875 0.90625q0.96875 0 1.640625 -0.5q0.6875 -0.515625 1.09375 -1.625zm-5.78125 -2.84375l5.796875 0q-0.109375 -1.296875 -0.65625 -1.953125q-0.84375 -1.015625 -2.1875 -1.015625q-1.203125 0 -2.03125 0.8125q-0.828125 0.796875 -0.921875 2.15625zm9.779297 6.1875l0 -10.375l1.578125 0l0 1.578125q0.609375 -1.109375 1.125 -1.453125q0.515625 -0.359375 1.125 -0.359375q0.890625 0 1.8125 0.5625l-0.609375 1.640625q-0.640625 -0.390625 -1.28125 -0.390625q-0.578125 0 -1.046875 0.359375q-0.453125 0.34375 -0.65625 0.953125q-0.28125 0.9375 -0.28125 2.046875l0 5.4375l-1.765625 0z" fill-rule="nonzero"/><path fill="#000000" fill-opacity="0.0" d="m432.27234 153.78346l142.67719 0l0 43.622055l-142.67719 0z" fill-rule="evenodd"/><path fill="#000000" d="m455.13828 181.98346l0 -14.3125l4.921875 0q1.671875 0 2.5625 0.203125q1.21875 0.28125 2.09375 1.015625q1.125 0.96875 1.6875 2.453125q0.5625 1.484375 0.5625 3.40625q0 1.625 -0.375 2.890625q-0.375 1.25 -0.984375 2.078125q-0.59375 0.828125 -1.296875 1.3125q-0.703125 0.46875 -1.703125 0.71875q-1.0 0.234375 -2.3125 0.234375l-5.15625 0zm1.890625 -1.6875l3.0625 0q1.40625 0 2.203125 -0.265625q0.8125 -0.265625 1.296875 -0.75q0.671875 -0.671875 1.046875 -1.796875q0.375 -1.140625 0.375 -2.765625q0 -2.25 -0.734375 -3.453125q-0.734375 -1.203125 -1.796875 -1.609375q-0.75 -0.296875 -2.4375 -0.296875l-3.015625 0l0 10.9375zm19.427734 -1.65625l1.8125 0.234375q-0.421875 1.578125 -1.59375 2.46875q-1.15625 0.875 -2.96875 0.875q-2.265625 0 -3.609375 -1.390625q-1.328125 -1.40625 -1.328125 -3.9375q0 -2.625 1.34375 -4.0625q1.34375 -1.453125 3.5 -1.453125q2.078125 0 3.390625 1.421875q1.328125 1.40625 1.328125 3.984375q0 0.15625 -0.015625 0.46875l-7.734375 0q0.09375 1.703125 0.96875 2.609375q0.875 0.90625 2.171875 0.90625q0.96875 0 1.640625 -0.5q0.6875 -0.515625 1.09375 -1.625zm-5.78125 -2.84375l5.796875 0q-0.109375 -1.296875 -0.65625 -1.953125q-0.84375 -1.015625 -2.1875 -1.015625q-1.203125 0 -2.03125 0.8125q-0.828125 0.796875 -0.921875 2.15625zm9.091797 3.09375l1.75 -0.28125q0.140625 1.046875 0.8125 1.609375q0.671875 0.546875 1.875 0.546875q1.203125 0 1.78125 -0.484375q0.59375 -0.5 0.59375 -1.15625q0 -0.59375 -0.515625 -0.9375q-0.359375 -0.234375 -1.796875 -0.59375q-1.9375 -0.5 -2.6875 -0.84375q-0.734375 -0.359375 -1.125 -0.984375q-0.390625 -0.640625 -0.390625 -1.40625q0 -0.6875 0.3125 -1.28125q0.328125 -0.59375 0.875 -0.984375q0.40625 -0.296875 1.109375 -0.5q0.71875 -0.21875 1.53125 -0.21875q1.21875 0 2.140625 0.359375q0.921875 0.34375 1.359375 0.953125q0.4375 0.59375 0.609375 1.59375l-1.71875 0.234375q-0.125 -0.796875 -0.6875 -1.234375q-0.5625 -0.453125 -1.578125 -0.453125q-1.21875 0 -1.734375 0.40625q-0.515625 0.390625 -0.515625 0.921875q0 0.34375 0.21875 0.625q0.203125 0.28125 0.671875 0.46875q0.265625 0.09375 1.546875 0.4375q1.875 0.5 2.609375 0.828125q0.734375 0.3125 1.15625 0.921875q0.421875 0.59375 0.421875 1.5q0 0.875 -0.515625 1.65625q-0.515625 0.78125 -1.484375 1.203125q-0.96875 0.421875 -2.1875 0.421875q-2.015625 0 -3.078125 -0.84375q-1.0625 -0.84375 -1.359375 -2.484375zm17.484375 -0.703125l1.71875 0.21875q-0.28125 1.796875 -1.453125 2.8125q-1.15625 1.0 -2.859375 1.0q-2.125 0 -3.421875 -1.390625q-1.296875 -1.390625 -1.296875 -3.984375q0 -1.6875 0.546875 -2.9375q0.5625 -1.265625 1.703125 -1.890625q1.140625 -0.640625 2.484375 -0.640625q1.6875 0 2.75 0.859375q1.078125 0.859375 1.390625 2.421875l-1.71875 0.265625q-0.234375 -1.046875 -0.859375 -1.5625q-0.625 -0.53125 -1.5 -0.53125q-1.328125 0 -2.15625 0.953125q-0.828125 0.953125 -0.828125 3.0q0 2.09375 0.796875 3.046875q0.796875 0.9375 2.09375 0.9375q1.03125 0 1.71875 -0.625q0.703125 -0.640625 0.890625 -1.953125zm3.203125 3.796875l0 -10.375l1.578125 0l0 1.578125q0.609375 -1.109375 1.125 -1.453125q0.515625 -0.359375 1.125 -0.359375q0.890625 0 1.8125 0.5625l-0.609375 1.640625q-0.640625 -0.390625 -1.28125 -0.390625q-0.578125 0 -1.046875 0.359375q-0.453125 0.34375 -0.65625 0.953125q-0.28125 0.9375 -0.28125 2.046875l0 5.4375l-1.765625 0zm6.6914062 -12.296875l0 -2.015625l1.765625 0l0 2.015625l-1.765625 0zm0 12.296875l0 -10.375l1.765625 0l0 10.375l-1.765625 0zm4.4277344 3.96875l0 -14.34375l1.6094055 0l0 1.34375q0.5625 -0.78125 1.265625 -1.171875q0.71875 -0.40625 1.734375 -0.40625q1.328125 0 2.34375 0.6875q1.015625 0.6875 1.53125 1.9375q0.53125 1.234375 0.53125 2.71875q0 1.59375 -0.578125 2.875q-0.5625 1.265625 -1.65625 1.953125q-1.09375 0.671875 -2.296875 0.671875q-0.875 0 -1.578125 -0.375q-0.6875 -0.375 -1.140625 -0.9375l0 5.046875l-1.7656555 0zm1.5937805 -9.09375q0 2.0 0.8125 2.953125q0.8125 0.953125 1.96875 0.953125q1.171875 0 2.0 -0.984375q0.84375 -0.984375 0.84375 -3.078125q0 -1.96875 -0.828125 -2.953125q-0.8125 -1.0 -1.9375 -1.0q-1.125 0 -2.0 1.0625q-0.859375 1.046875 -0.859375 3.046875zm13.373047 3.546875l0.25 1.5625q-0.734375 0.15625 -1.328125 0.15625q-0.953125 0 -1.484375 -0.296875q-0.515625 -0.3125 -0.734375 -0.796875q-0.21875 -0.5 -0.21875 -2.078125l0 -5.96875l-1.28125 0l0 -1.375l1.28125 0l0 -2.5625l1.75 -1.0625l0 3.625l1.765625 0l0 1.375l-1.765625 0l0 6.0625q0 0.75 0.09375 0.96875q0.09375 0.203125 0.296875 0.34375q0.21875 0.125 0.609375 0.125q0.28125 0 0.765625 -0.078125zm1.7285156 -10.71875l0 -2.015625l1.765625 0l0 2.015625l-1.765625 0zm0 12.296875l0 -10.375l1.765625 0l0 10.375l-1.765625 0zm3.7871094 -5.1875q0 -2.875 1.59375 -4.265625q1.34375 -1.15625 3.265625 -1.15625q2.140625 0 3.484375 1.40625q1.359375 1.40625 1.359375 3.875q0 2.0 -0.59375 3.15625q-0.59375 1.140625 -1.75 1.78125q-1.140625 0.625 -2.5 0.625q-2.1875 0 -3.53125 -1.390625q-1.328125 -1.40625 -1.328125 -4.03125zm1.796875 0q0 2.0 0.859375 2.984375q0.875 0.984375 2.203125 0.984375q1.3125 0 2.171875 -0.984375q0.875 -1.0 0.875 -3.046875q0 -1.921875 -0.875 -2.90625q-0.875 -1.0 -2.171875 -1.0q-1.328125 0 -2.203125 1.0q-0.859375 0.984375 -0.859375 2.96875zm9.966797 5.1875l0 -10.375l1.59375 0l0 1.484375q1.140625 -1.71875 3.296875 -1.71875q0.9375 0 1.71875 0.34375q0.796875 0.328125 1.1875 0.875q0.390625 0.546875 0.546875 1.296875q0.09375 0.5 0.09375 1.71875l0 6.375l-1.765625 0l0 -6.3125q0 -1.078125 -0.203125 -1.609375q-0.203125 -0.53125 -0.734375 -0.84375q-0.515625 -0.3125 -1.21875 -0.3125q-1.125 0 -1.9375 0.71875q-0.8125 0.703125 -0.8125 2.6875l0 5.671875l-1.765625 0z" fill-rule="nonzero"/><path fill="#000000" fill-opacity="0.0" d="m575.5298 153.78346l142.67712 0l0 92.0945l-142.67712 0z" fill-rule="evenodd"/><path fill="#000000" d="m582.73065 177.38971l1.78125 -0.15625q0.125 1.0625 0.578125 1.75q0.46875 0.6875 1.4375 1.125q0.984375 0.421875 2.21875 0.421875q1.078125 0 1.90625 -0.3125q0.828125 -0.328125 1.234375 -0.890625q0.40625 -0.5625 0.40625 -1.234375q0 -0.671875 -0.390625 -1.171875q-0.390625 -0.5 -1.28125 -0.84375q-0.578125 -0.234375 -2.5625 -0.703125q-1.96875 -0.46875 -2.75 -0.890625q-1.03125 -0.53125 -1.53125 -1.328125q-0.5 -0.796875 -0.5 -1.78125q0 -1.09375 0.609375 -2.03125q0.609375 -0.9375 1.796875 -1.421875q1.1875 -0.5 2.625 -0.5q1.59375 0 2.8125 0.515625q1.21875 0.515625 1.859375 1.515625q0.65625 0.984375 0.703125 2.25l-1.8125 0.140625q-0.140625 -1.359375 -0.984375 -2.046875q-0.84375 -0.703125 -2.5 -0.703125q-1.71875 0 -2.515625 0.640625q-0.78125 0.625 -0.78125 1.5q0 0.78125 0.5625 1.28125q0.546875 0.5 2.859375 1.015625q2.3125 0.515625 3.171875 0.90625q1.25 0.578125 1.84375 1.46875q0.59375 0.875 0.59375 2.03125q0 1.140625 -0.65625 2.15625q-0.65625 1.015625 -1.890625 1.578125q-1.21875 0.5625 -2.75 0.5625q-1.9375 0 -3.25 -0.5625q-1.3125 -0.578125 -2.0625 -1.71875q-0.75 -1.140625 -0.78125 -2.5625zm13.105469 -0.59375q0 -2.875 1.59375 -4.265625q1.34375 -1.15625 3.265625 -1.15625q2.140625 0 3.484375 1.40625q1.359375 1.40625 1.359375 3.875q0 2.0 -0.59375 3.15625q-0.59375 1.140625 -1.75 1.78125q-1.140625 0.625 -2.5 0.625q-2.1875 0 -3.53125 -1.390625q-1.328125 -1.40625 -1.328125 -4.03125zm1.796875 0q0 2.0 0.859375 2.984375q0.875 0.984375 2.203125 0.984375q1.3125 0 2.171875 -0.984375q0.875 -1.0 0.875 -3.046875q0 -1.921875 -0.875 -2.90625q-0.875 -1.0 -2.171875 -1.0q-1.328125 0 -2.203125 1.0q-0.859375 0.984375 -0.859375 2.96875zm16.763672 5.1875l0 -1.53125q-1.203125 1.765625 -3.28125 1.765625q-0.921875 0 -1.71875 -0.34375q-0.796875 -0.359375 -1.1875 -0.890625q-0.375 -0.53125 -0.53125 -1.3125q-0.109375 -0.515625 -0.109375 -1.640625l0 -6.421875l1.75 0l0 5.75q0 1.375 0.109375 1.859375q0.171875 0.6875 0.703125 1.09375q0.546875 0.390625 1.328125 0.390625q0.796875 0 1.484375 -0.40625q0.703125 -0.40625 0.984375 -1.09375q0.296875 -0.703125 0.296875 -2.03125l0 -5.5625l1.75 0l0 10.375l-1.578125 0zm4.310547 0l0 -10.375l1.578125 0l0 1.578125q0.609375 -1.109375 1.125 -1.453125q0.515625 -0.359375 1.125 -0.359375q0.890625 0 1.8125 0.5625l-0.609375 1.640625q-0.640625 -0.390625 -1.28125 -0.390625q-0.578125 0 -1.046875 0.359375q-0.453125 0.34375 -0.65625 0.953125q-0.28125 0.9375 -0.28125 2.046875l0 5.4375l-1.765625 0zm13.457031 -3.796875l1.71875 0.21875q-0.28125 1.796875 -1.453125 2.8125q-1.15625 1.0 -2.859375 1.0q-2.125 0 -3.421875 -1.390625q-1.296875 -1.390625 -1.296875 -3.984375q0 -1.6875 0.546875 -2.9375q0.5625 -1.265625 1.703125 -1.890625q1.140625 -0.640625 2.484375 -0.640625q1.6875 0 2.75 0.859375q1.078125 0.859375 1.390625 2.421875l-1.71875 0.265625q-0.234375 -1.046875 -0.859375 -1.5625q-0.625 -0.53125 -1.5 -0.53125q-1.328125 0 -2.15625 0.953125q-0.828125 0.953125 -0.828125 3.0q0 2.09375 0.796875 3.046875q0.796875 0.9375 2.09375 0.9375q1.03125 0 1.71875 -0.625q0.703125 -0.640625 0.890625 -1.953125zm10.328125 0.453125l1.8125 0.234375q-0.421875 1.578125 -1.59375 2.46875q-1.15625 0.875 -2.96875 0.875q-2.265625 0 -3.609375 -1.390625q-1.328125 -1.40625 -1.328125 -3.9375q0 -2.625 1.34375 -4.0625q1.34375 -1.453125 3.5 -1.453125q2.078125 0 3.390625 1.421875q1.328125 1.40625 1.328125 3.984375q0 0.15625 -0.015625 0.46875l-7.734375 0q0.09375 1.703125 0.96875 2.609375q0.875 0.90625 2.171875 0.90625q0.96875 0 1.640625 -0.5q0.6875 -0.515625 1.09375 -1.625zm-5.78125 -2.84375l5.796875 0q-0.109375 -1.296875 -0.65625 -1.953125q-0.84375 -1.015625 -2.1875 -1.015625q-1.203125 0 -2.03125 0.8125q-0.828125 0.796875 -0.921875 2.15625zm14.7109375 1.0q0 -2.875 1.59375 -4.265625q1.34375 -1.15625 3.265625 -1.15625q2.140625 0 3.484375 1.40625q1.359375 1.40625 1.359375 3.875q0 2.0 -0.59375 3.15625q-0.59375 1.140625 -1.75 1.78125q-1.140625 0.625 -2.5 0.625q-2.1875 0 -3.53125 -1.390625q-1.328125 -1.40625 -1.328125 -4.03125zm1.796875 0q0 2.0 0.859375 2.984375q0.875 0.984375 2.203125 0.984375q1.3125 0 2.171875 -0.984375q0.875 -1.0 0.875 -3.046875q0 -1.921875 -0.875 -2.90625q-0.875 -1.0 -2.171875 -1.0q-1.328125 0 -2.203125 1.0q-0.859375 0.984375 -0.859375 2.96875zm10.388672 5.1875l0 -9.0l-1.546875 0l0 -1.375l1.546875 0l0 -1.09375q0 -1.046875 0.1875 -1.5625q0.25 -0.6875 0.890625 -1.109375q0.640625 -0.421875 1.796875 -0.421875q0.75 0 1.640625 0.171875l-0.265625 1.53125q-0.546875 -0.09375 -1.03125 -0.09375q-0.796875 0 -1.140625 0.34375q-0.328125 0.34375 -0.328125 1.28125l0 0.953125l2.03125 0l0 1.375l-2.03125 0l0 9.0l-1.75 0zm17.425781 0l0 -1.3125q-0.984375 1.546875 -2.90625 1.546875q-1.234375 0 -2.28125 -0.6875q-1.03125 -0.6875 -1.609375 -1.90625q-0.5625 -1.21875 -0.5625 -2.8125q0 -1.5625 0.515625 -2.828125q0.515625 -1.265625 1.546875 -1.9375q1.046875 -0.671875 2.3125 -0.671875q0.9375 0 1.671875 0.40625q0.734375 0.390625 1.203125 1.015625l0 -5.125l1.734375 0l0 14.3125l-1.625 0zm-5.5625 -5.171875q0 1.984375 0.84375 2.96875q0.84375 0.984375 1.984375 0.984375q1.15625 0 1.953125 -0.9375q0.8125 -0.9375 0.8125 -2.875q0 -2.125 -0.828125 -3.125q-0.8125 -1.0 -2.015625 -1.0q-1.171875 0 -1.96875 0.96875q-0.78125 0.953125 -0.78125 3.015625zm16.732422 3.890625q-0.984375 0.828125 -1.890625 1.171875q-0.90625 0.34375 -1.9375 0.34375q-1.703125 0 -2.625 -0.828125q-0.921875 -0.84375 -0.921875 -2.140625q0 -0.765625 0.34375 -1.390625q0.359375 -0.625 0.921875 -1.0q0.5625 -0.390625 1.265625 -0.59375q0.515625 -0.125 1.5625 -0.265625q2.125 -0.25 3.125 -0.59375q0.015625 -0.359375 0.015625 -0.46875q0 -1.0625 -0.5 -1.515625q-0.671875 -0.59375 -2.0 -0.59375q-1.25 0 -1.84375 0.4375q-0.578125 0.4375 -0.859375 1.546875l-1.71875 -0.234375q0.234375 -1.109375 0.765625 -1.78125q0.53125 -0.6875 1.546875 -1.046875q1.015625 -0.375 2.359375 -0.375q1.328125 0 2.15625 0.3125q0.828125 0.3125 1.21875 0.796875q0.390625 0.46875 0.546875 1.1875q0.09375 0.453125 0.09375 1.625l0 2.34375q0 2.453125 0.109375 3.109375q0.109375 0.640625 0.453125 1.234375l-1.84375 0q-0.265625 -0.546875 -0.34375 -1.28125zm-0.15625 -3.921875q-0.953125 0.390625 -2.875 0.65625q-1.078125 0.15625 -1.53125 0.359375q-0.4375 0.1875 -0.6875 0.5625q-0.25 0.375 -0.25 0.84375q0 0.703125 0.53125 1.171875q0.53125 0.46875 1.5625 0.46875q1.015625 0 1.796875 -0.4375q0.796875 -0.453125 1.171875 -1.21875q0.28125 -0.609375 0.28125 -1.765625l0 -0.640625zm8.341797 3.625l0.25 1.5625q-0.734375 0.15625 -1.328125 0.15625q-0.953125 0 -1.484375 -0.296875q-0.515625 -0.3125 -0.734375 -0.796875q-0.21875 -0.5 -0.21875 -2.078125l0 -5.96875l-1.28125 0l0 -1.375l1.28125 0l0 -2.5625l1.75 -1.0625l0 3.625l1.765625 0l0 1.375l-1.765625 0l0 6.0625q0 0.75 0.09375 0.96875q0.09375 0.203125 0.296875 0.34375q0.21875 0.125 0.609375 0.125q0.28125 0 0.765625 -0.078125zm8.494141 0.296875q-0.984375 0.828125 -1.890625 1.171875q-0.90625 0.34375 -1.9375 0.34375q-1.703125 0 -2.625 -0.828125q-0.921875 -0.84375 -0.921875 -2.140625q0 -0.765625 0.34375 -1.390625q0.359375 -0.625 0.921875 -1.0q0.5625 -0.390625 1.265625 -0.59375q0.515625 -0.125 1.5625 -0.265625q2.125 -0.25 3.125 -0.59375q0.015625 -0.359375 0.015625 -0.46875q0 -1.0625 -0.5 -1.515625q-0.671875 -0.59375 -2.0 -0.59375q-1.25 0 -1.84375 0.4375q-0.578125 0.4375 -0.859375 1.546875l-1.71875 -0.234375q0.234375 -1.109375 0.765625 -1.78125q0.53125 -0.6875 1.546875 -1.046875q1.015625 -0.375 2.359375 -0.375q1.328125 0 2.15625 0.3125q0.828125 0.3125 1.21875 0.796875q0.390625 0.46875 0.546875 1.1875q0.09375 0.453125 0.09375 1.625l0 2.34375q0 2.453125 0.109375 3.109375q0.109375 0.640625 0.453125 1.234375l-1.84375 0q-0.265625 -0.546875 -0.34375 -1.28125zm-0.15625 -3.921875q-0.953125 0.390625 -2.875 0.65625q-1.078125 0.15625 -1.53125 0.359375q-0.4375 0.1875 -0.6875 0.5625q-0.25 0.375 -0.25 0.84375q0 0.703125 0.53125 1.171875q0.53125 0.46875 1.5625 0.46875q1.015625 0 1.796875 -0.4375q0.796875 -0.453125 1.171875 -1.21875q0.28125 -0.609375 0.28125 -1.765625l0 -0.640625z" fill-rule="nonzero"/><path fill="#000000" d="m589.85077 210.18658q-1.453125 -1.828125 -2.453125 -4.28125q-1.0 -2.46875 -1.0 -5.109375q0 -2.328125 0.75 -4.453125q0.875 -2.46875 2.703125 -4.921875l1.265625 0q-1.1875 2.03125 -1.5625 2.90625q-0.59375 1.34375 -0.9375 2.8125q-0.421875 1.828125 -0.421875 3.671875q0 4.6875 2.921875 9.375l-1.265625 0zm2.8945312 -8.796875l1.78125 -0.15625q0.125 1.0625 0.578125 1.75q0.46875 0.6875 1.4375 1.125q0.984375 0.421875 2.21875 0.421875q1.078125 0 1.90625 -0.3125q0.828125 -0.328125 1.234375 -0.890625q0.40625 -0.5625 0.40625 -1.234375q0 -0.671875 -0.390625 -1.171875q-0.390625 -0.5 -1.28125 -0.84375q-0.578125 -0.234375 -2.5625 -0.703125q-1.96875 -0.46875 -2.75 -0.890625q-1.03125 -0.53125 -1.53125 -1.328125q-0.5 -0.796875 -0.5 -1.78125q0 -1.09375 0.609375 -2.03125q0.609375 -0.9375 1.796875 -1.421875q1.1875 -0.5 2.625 -0.5q1.59375 0 2.8125 0.515625q1.21875 0.515625 1.859375 1.515625q0.65625 0.984375 0.703125 2.25l-1.8125 0.140625q-0.140625 -1.359375 -0.984375 -2.046875q-0.84375 -0.703125 -2.5 -0.703125q-1.71875 0 -2.515625 0.640625q-0.78125 0.625 -0.78125 1.5q0 0.78125 0.5625 1.28125q0.546875 0.5 2.859375 1.015625q2.3125 0.515625 3.171875 0.90625q1.25 0.578125 1.84375 1.46875q0.59375 0.875 0.59375 2.03125q0 1.140625 -0.65625 2.15625q-0.65625 1.015625 -1.890625 1.578125q-1.21875 0.5625 -2.75 0.5625q-1.9375 0 -3.25 -0.5625q-1.3125 -0.578125 -2.0625 -1.71875q-0.75 -1.140625 -0.78125 -2.5625zm13.761719 -7.703125l0 -2.015625l1.765625 0l0 2.015625l-1.765625 0zm0 12.296875l0 -10.375l1.765625 0l0 10.375l-1.765625 0zm4.4277344 0l0 -10.375l1.578125 0l0 1.453125q0.484375 -0.75 1.296875 -1.21875q0.8125 -0.46875 1.84375 -0.46875q1.15625 0 1.890625 0.484375q0.734375 0.46875 1.046875 1.328125q1.234375 -1.8125 3.203125 -1.8125q1.546875 0 2.375 0.859375q0.828125 0.859375 0.828125 2.625l0 7.125l-1.75 0l0 -6.53125q0 -1.0625 -0.171875 -1.515625q-0.171875 -0.46875 -0.625 -0.75q-0.4375 -0.28125 -1.046875 -0.28125q-1.09375 0 -1.828125 0.734375q-0.71875 0.71875 -0.71875 2.3125l0 6.03125l-1.75 0l0 -6.734375q0 -1.171875 -0.4375 -1.75q-0.421875 -0.59375 -1.40625 -0.59375q-0.734375 0 -1.375 0.390625q-0.625 0.390625 -0.90625 1.140625q-0.28125 0.75 -0.28125 2.171875l0 5.375l-1.765625 0zm23.457031 0l0 -1.53125q-1.203125 1.765625 -3.28125 1.765625q-0.921875 0 -1.71875 -0.34375q-0.796875 -0.359375 -1.1875 -0.890625q-0.375 -0.53125 -0.53125 -1.3125q-0.109375 -0.515625 -0.109375 -1.640625l0 -6.421875l1.75 0l0 5.75q0 1.375 0.109375 1.859375q0.171875 0.6875 0.703125 1.09375q0.546875 0.390625 1.328125 0.390625q0.796875 0 1.484375 -0.40625q0.703125 -0.40625 0.984375 -1.09375q0.296875 -0.703125 0.296875 -2.03125l0 -5.5625l1.75 0l0 10.375l-1.578125 0zm4.294922 0l0 -14.3125l1.75 0l0 14.3125l-1.75 0zm11.255859 -1.28125q-0.984375 0.828125 -1.890625 1.171875q-0.90625 0.34375 -1.9375 0.34375q-1.703125 0 -2.625 -0.828125q-0.921875 -0.84375 -0.921875 -2.140625q0 -0.765625 0.34375 -1.390625q0.359375 -0.625 0.921875 -1.0q0.5625 -0.390625 1.265625 -0.59375q0.515625 -0.125 1.5625 -0.265625q2.125 -0.25 3.125 -0.59375q0.015625 -0.359375 0.015625 -0.46875q0 -1.0625 -0.5 -1.515625q-0.671875 -0.59375 -2.0 -0.59375q-1.25 0 -1.84375 0.4375q-0.578125 0.4375 -0.859375 1.546875l-1.71875 -0.234375q0.234375 -1.109375 0.765625 -1.78125q0.53125 -0.6875 1.546875 -1.046875q1.015625 -0.375 2.359375 -0.375q1.328125 0 2.15625 0.3125q0.828125 0.3125 1.21875 0.796875q0.390625 0.46875 0.546875 1.1875q0.09375 0.453125 0.09375 1.625l0 2.34375q0 2.453125 0.109375 3.109375q0.109375 0.640625 0.453125 1.234375l-1.84375 0q-0.265625 -0.546875 -0.34375 -1.28125zm-0.15625 -3.921875q-0.953125 0.390625 -2.875 0.65625q-1.078125 0.15625 -1.53125 0.359375q-0.4375 0.1875 -0.6875 0.5625q-0.25 0.375 -0.25 0.84375q0 0.703125 0.53125 1.171875q0.53125 0.46875 1.5625 0.46875q1.015625 0 1.796875 -0.4375q0.796875 -0.453125 1.171875 -1.21875q0.28125 -0.609375 0.28125 -1.765625l0 -0.640625zm8.341797 3.625l0.25 1.5625q-0.734375 0.15625 -1.328125 0.15625q-0.953125 0 -1.484375 -0.296875q-0.515625 -0.3125 -0.734375 -0.796875q-0.21875 -0.5 -0.21875 -2.078125l0 -5.96875l-1.28125 0l0 -1.375l1.28125 0l0 -2.5625l1.75 -1.0625l0 3.625l1.765625 0l0 1.375l-1.765625 0l0 6.0625q0 0.75 0.09375 0.96875q0.09375 0.203125 0.296875 0.34375q0.21875 0.125 0.609375 0.125q0.28125 0 0.765625 -0.078125zm1.7285156 -10.71875l0 -2.015625l1.765625 0l0 2.015625l-1.765625 0zm0 12.296875l0 -10.375l1.765625 0l0 10.375l-1.765625 0zm3.7871094 -5.1875q0 -2.875 1.59375 -4.265625q1.34375 -1.15625 3.265625 -1.15625q2.140625 0 3.484375 1.40625q1.359375 1.40625 1.359375 3.875q0 2.0 -0.59375 3.15625q-0.59375 1.140625 -1.75 1.78125q-1.140625 0.625 -2.5 0.625q-2.1875 0 -3.53125 -1.390625q-1.328125 -1.40625 -1.328125 -4.03125zm1.796875 0q0 2.0 0.859375 2.984375q0.875 0.984375 2.203125 0.984375q1.3125 0 2.171875 -0.984375q0.875 -1.0 0.875 -3.046875q0 -1.921875 -0.875 -2.90625q-0.875 -1.0 -2.171875 -1.0q-1.328125 0 -2.203125 1.0q-0.859375 0.984375 -0.859375 2.96875zm9.966797 5.1875l0 -10.375l1.59375 0l0 1.484375q1.140625 -1.71875 3.296875 -1.71875q0.9375 0 1.71875 0.34375q0.796875 0.328125 1.1875 0.875q0.390625 0.546875 0.546875 1.296875q0.09375 0.5 0.09375 1.71875l0 6.375l-1.765625 0l0 -6.3125q0 -1.078125 -0.203125 -1.609375q-0.203125 -0.53125 -0.734375 -0.84375q-0.515625 -0.3125 -1.21875 -0.3125q-1.125 0 -1.9375 0.71875q-0.8125 0.703125 -0.8125 2.6875l0 5.671875l-1.765625 0zm16.039062 -5.1875q0 -2.875 1.59375 -4.265625q1.34375 -1.15625 3.265625 -1.15625q2.140625 0 3.484375 1.40625q1.359375 1.40625 1.359375 3.875q0 2.0 -0.59375 3.15625q-0.59375 1.140625 -1.75 1.78125q-1.140625 0.625 -2.5 0.625q-2.1875 0 -3.53125 -1.390625q-1.328125 -1.40625 -1.328125 -4.03125zm1.796875 0q0 2.0 0.859375 2.984375q0.875 0.984375 2.203125 0.984375q1.3125 0 2.171875 -0.984375q0.875 -1.0 0.875 -3.046875q0 -1.921875 -0.875 -2.90625q-0.875 -1.0 -2.171875 -1.0q-1.328125 0 -2.203125 1.0q-0.859375 0.984375 -0.859375 2.96875zm9.951172 5.1875l0 -10.375l1.578125 0l0 1.578125q0.609375 -1.109375 1.125 -1.453125q0.515625 -0.359375 1.125 -0.359375q0.890625 0 1.8125 0.5625l-0.609375 1.640625q-0.640625 -0.390625 -1.28125 -0.390625q-0.578125 0 -1.046875 0.359375q-0.453125 0.34375 -0.65625 0.953125q-0.28125 0.9375 -0.28125 2.046875l0 5.4375l-1.765625 0z" fill-rule="nonzero"/><path fill="#000000" d="m606.4963 233.95221l0 -14.34375l1.609375 0l0 1.34375q0.5625 -0.78125 1.265625 -1.171875q0.71875 -0.40625 1.734375 -0.40625q1.328125 0 2.34375 0.6875q1.015625 0.6875 1.53125 1.9375q0.53125 1.234375 0.53125 2.71875q0 1.59375 -0.578125 2.875q-0.5625 1.265625 -1.65625 1.953125q-1.09375 0.671875 -2.296875 0.671875q-0.875 0 -1.578125 -0.375q-0.6875 -0.375 -1.140625 -0.9375l0 5.046875l-1.765625 0zm1.59375 -9.09375q0 2.0 0.8125 2.953125q0.8125 0.953125 1.96875 0.953125q1.171875 0 2.0 -0.984375q0.84375 -0.984375 0.84375 -3.078125q0 -1.96875 -0.828125 -2.953125q-0.8125 -1.0 -1.9375 -1.0q-1.125 0 -2.0 1.0625q-0.859375 1.046875 -0.859375 3.046875zm16.310547 3.84375q-0.984375 0.828125 -1.890625 1.171875q-0.90625 0.34375 -1.9375 0.34375q-1.703125 0 -2.625 -0.828125q-0.921875 -0.84375 -0.921875 -2.140625q0 -0.765625 0.34375 -1.390625q0.359375 -0.625 0.921875 -1.0q0.5625 -0.390625 1.265625 -0.59375q0.515625 -0.125 1.5625 -0.265625q2.125 -0.25 3.125 -0.59375q0.015625 -0.359375 0.015625 -0.46875q0 -1.0625 -0.5 -1.515625q-0.671875 -0.59375 -2.0 -0.59375q-1.25 0 -1.84375 0.4375q-0.578125 0.4375 -0.859375 1.546875l-1.71875 -0.234375q0.234375 -1.109375 0.765625 -1.78125q0.53125 -0.6875 1.546875 -1.046875q1.015625 -0.375 2.359375 -0.375q1.328125 0 2.15625 0.3125q0.828125 0.3125 1.21875 0.796875q0.390625 0.46875 0.546875 1.1875q0.09375 0.453125 0.09375 1.625l0 2.34375q0 2.453125 0.109375 3.109375q0.109375 0.640625 0.453125 1.234375l-1.84375 0q-0.265625 -0.546875 -0.34375 -1.28125zm-0.15625 -3.921875q-0.953125 0.390625 -2.875 0.65625q-1.078125 0.15625 -1.53125 0.359375q-0.4375 0.1875 -0.6875 0.5625q-0.25 0.375 -0.25 0.84375q0 0.703125 0.53125 1.171875q0.53125 0.46875 1.5625 0.46875q1.015625 0 1.796875 -0.4375q0.796875 -0.453125 1.171875 -1.21875q0.28125 -0.609375 0.28125 -1.765625l0 -0.640625zm4.498047 9.171875l0 -14.34375l1.609375 0l0 1.34375q0.5625 -0.78125 1.265625 -1.171875q0.71875 -0.40625 1.734375 -0.40625q1.328125 0 2.34375 0.6875q1.015625 0.6875 1.53125 1.9375q0.53125 1.234375 0.53125 2.71875q0 1.59375 -0.578125 2.875q-0.5625 1.265625 -1.65625 1.953125q-1.09375 0.671875 -2.296875 0.671875q-0.875 0 -1.578125 -0.375q-0.6875 -0.375 -1.140625 -0.9375l0 5.046875l-1.765625 0zm1.59375 -9.09375q0 2.0 0.8125 2.953125q0.8125 0.953125 1.96875 0.953125q1.171875 0 2.0 -0.984375q0.84375 -0.984375 0.84375 -3.078125q0 -1.96875 -0.828125 -2.953125q-0.8125 -1.0 -1.9375 -1.0q-1.125 0 -2.0 1.0625q-0.859375 1.046875 -0.859375 3.046875zm16.638672 1.78125l1.8125 0.234375q-0.421875 1.578125 -1.59375 2.46875q-1.15625 0.875 -2.96875 0.875q-2.265625 0 -3.609375 -1.390625q-1.328125 -1.40625 -1.328125 -3.9375q0 -2.625 1.34375 -4.0625q1.34375 -1.453125 3.5 -1.453125q2.078125 0 3.390625 1.421875q1.328125 1.40625 1.328125 3.984375q0 0.15625 -0.015625 0.46875l-7.734375 0q0.09375 1.703125 0.96875 2.609375q0.875 0.90625 2.171875 0.90625q0.96875 0 1.640625 -0.5q0.6875 -0.515625 1.09375 -1.625zm-5.78125 -2.84375l5.796875 0q-0.109375 -1.296875 -0.65625 -1.953125q-0.84375 -1.015625 -2.1875 -1.015625q-1.203125 0 -2.03125 0.8125q-0.828125 0.796875 -0.921875 2.15625zm9.779297 6.1875l0 -10.375l1.578125 0l0 1.578125q0.609375 -1.109375 1.125 -1.453125q0.515625 -0.359375 1.125 -0.359375q0.890625 0 1.8125 0.5625l-0.609375 1.640625q-0.640625 -0.390625 -1.28125 -0.390625q-0.578125 0 -1.046875 0.359375q-0.453125 0.34375 -0.65625 0.953125q-0.28125 0.9375 -0.28125 2.046875l0 5.4375l-1.765625 0zm12.779297 0l0 -14.3125l1.90625 0l0 14.3125l-1.90625 0zm5.2441406 0l0 -14.3125l4.921875 0q1.671875 0 2.5625 0.203125q1.21875 0.28125 2.09375 1.015625q1.125 0.96875 1.6875 2.453125q0.5625 1.484375 0.5625 3.40625q0 1.625 -0.375 2.890625q-0.375 1.25 -0.984375 2.078125q-0.59375 0.828125 -1.296875 1.3125q-0.703125 0.46875 -1.703125 0.71875q-1.0 0.234375 -2.3125 0.234375l-5.15625 0zm1.890625 -1.6875l3.0625 0q1.40625 0 2.203125 -0.265625q0.8125 -0.265625 1.296875 -0.75q0.671875 -0.671875 1.046875 -1.796875q0.375 -1.140625 0.375 -2.765625q0 -2.25 -0.734375 -3.453125q-0.734375 -1.203125 -1.796875 -1.609375q-0.75 -0.296875 -2.4375 -0.296875l-3.015625 0l0 10.9375zm13.474609 5.890625l-1.25 0q2.90625 -4.6875 2.90625 -9.375q0 -1.84375 -0.40625 -3.640625q-0.34375 -1.46875 -0.9375 -2.8125q-0.375 -0.890625 -1.5625 -2.9375l1.25 0q1.84375 2.453125 2.71875 4.921875q0.75 2.125 0.75 4.453125q0 2.640625 -1.015625 5.109375q-1.0 2.453125 -2.453125 4.28125z" fill-rule="nonzero"/><path fill="#000000" fill-opacity="0.0" d="m397.8714 107.4652c0 -3.357193 1.4007568 -6.0787354 3.1287231 -6.0787354l12.876404 0c1.7279358 0 3.1287231 -2.7215424 3.1287231 -6.078743l0 0c0 3.3572006 1.4007874 6.078743 3.1287231 6.078743l12.876404 0l0 0c1.7279663 0 3.1287231 2.7215424 3.1287231 6.0787354z" fill-rule="evenodd"/><path fill="#000000" fill-opacity="0.0" d="m397.8714 107.4652c0 -3.357193 1.4007568 -6.0787354 3.1287231 -6.0787354l12.876404 0c1.7279358 0 3.1287231 -2.7215424 3.1287231 -6.078743l0 0c0 3.3572006 1.4007874 6.078743 3.1287231 6.078743l12.876404 0l0 0c1.7279663 0 3.1287231 2.7215424 3.1287231 6.0787354" fill-rule="evenodd"/><path stroke="#000000" stroke-width="2.0" stroke-linejoin="round" stroke-linecap="butt" d="m397.8714 107.4652c0 -3.357193 1.4007568 -6.0787354 3.1287231 -6.0787354l12.876404 0c1.7279358 0 3.1287231 -2.7215424 3.1287231 -6.078743l0 0c0 3.3572006 1.4007874 6.078743 3.1287231 6.078743l12.876404 0l0 0c1.7279663 0 3.1287231 2.7215424 3.1287231 6.0787354" fill-rule="evenodd"/><path fill="#000000" fill-opacity="0.0" d="m569.4848 107.4652c0 -3.357193 1.4008179 -6.0787354 3.1287231 -6.0787354l12.876404 0c1.7279663 0 3.1287231 -2.7215424 3.1287231 -6.078743l0 0c0 3.3572006 1.4008179 6.078743 3.1287231 6.078743l12.876404 0l0 0c1.7279663 0 3.1287231 2.7215424 3.1287231 6.0787354z" fill-rule="evenodd"/><path fill="#000000" fill-opacity="0.0" d="m569.4848 107.4652c0 -3.357193 1.4008179 -6.0787354 3.1287231 -6.0787354l12.876404 0c1.7279663 0 3.1287231 -2.7215424 3.1287231 -6.078743l0 0c0 3.3572006 1.4008179 6.078743 3.1287231 6.078743l12.876404 0l0 0c1.7279663 0 3.1287231 2.7215424 3.1287231 6.0787354" fill-rule="evenodd"/><path stroke="#000000" stroke-width="2.0" stroke-linejoin="round" stroke-linecap="butt" d="m569.4848 107.4652c0 -3.357193 1.4008179 -6.0787354 3.1287231 -6.0787354l12.876404 0c1.7279663 0 3.1287231 -2.7215424 3.1287231 -6.078743l0 0c0 3.3572006 1.4008179 6.078743 3.1287231 6.078743l12.876404 0l0 0c1.7279663 0 3.1287231 2.7215424 3.1287231 6.0787354" fill-rule="evenodd"/><path fill="#000000" fill-opacity="0.0" d="m565.8115 150.31946c0 3.357193 -1.4008179 6.0787354 -3.1287231 6.0787354l-56.388245 0c-1.7279358 0 -3.1287231 2.7215576 -3.1287231 6.0787506l0 0c0 -3.357193 -1.4007568 -6.0787506 -3.1287231 -6.0787506l-56.388214 0l0 0c-1.7279358 0 -3.1287231 -2.7215424 -3.1287231 -6.0787354z" fill-rule="evenodd"/><path fill="#000000" fill-opacity="0.0" d="m565.8115 150.31946c0 3.357193 -1.4008179 6.0787354 -3.1287231 6.0787354l-56.388245 0c-1.7279358 0 -3.1287231 2.7215576 -3.1287231 6.0787506l0 0c0 -3.357193 -1.4007568 -6.0787506 -3.1287231 -6.0787506l-56.388214 0l0 0c-1.7279358 0 -3.1287231 -2.7215424 -3.1287231 -6.0787354" fill-rule="evenodd"/><path stroke="#000000" stroke-width="2.0" stroke-linejoin="round" stroke-linecap="butt" d="m565.8115 150.31946c0 3.357193 -1.4008179 6.0787354 -3.1287231 6.0787354l-56.388245 0c-1.7279358 0 -3.1287231 2.7215576 -3.1287231 6.0787506l0 0c0 -3.357193 -1.4007568 -6.0787506 -3.1287231 -6.0787506l-56.388214 0l0 0c-1.7279358 0 -3.1287231 -2.7215424 -3.1287231 -6.0787354" fill-rule="evenodd"/><path fill="#000000" fill-opacity="0.0" d="m679.9924 150.31895c0 3.3572083 -1.4007568 6.0787506 -3.1287231 6.0787506l-26.923645 0c-1.7279053 0 -3.1287231 2.7215424 -3.1287231 6.0787354l0 0c0 -3.357193 -1.4007568 -6.0787354 -3.1287231 -6.0787354l-26.923645 0l0 0c-1.7279663 0 -3.1287231 -2.7215424 -3.1287231 -6.0787506z" fill-rule="evenodd"/><path fill="#000000" fill-opacity="0.0" d="m679.9924 150.31895c0 3.3572083 -1.4007568 6.0787506 -3.1287231 6.0787506l-26.923645 0c-1.7279053 0 -3.1287231 2.7215424 -3.1287231 6.0787354l0 0c0 -3.357193 -1.4007568 -6.0787354 -3.1287231 -6.0787354l-26.923645 0l0 0c-1.7279663 0 -3.1287231 -2.7215424 -3.1287231 -6.0787506" fill-rule="evenodd"/><path stroke="#000000" stroke-width="2.0" stroke-linejoin="round" stroke-linecap="butt" d="m679.9924 150.31895c0 3.3572083 -1.4007568 6.0787506 -3.1287231 6.0787506l-26.923645 0c-1.7279053 0 -3.1287231 2.7215424 -3.1287231 6.0787354l0 0c0 -3.357193 -1.4007568 -6.0787354 -3.1287231 -6.0787354l-26.923645 0l0 0c-1.7279663 0 -3.1287231 -2.7215424 -3.1287231 -6.0787506" fill-rule="evenodd"/></g></svg>