<?xml version="1.0" encoding="utf-8" standalone="no"?>
<!DOCTYPE svg PUBLIC "-//W3C//DTD SVG 1.1//EN"
  "http://www.w3.org/Graphics/SVG/1.1/DTD/svg11.dtd">
<!-- Created with matplotlib (https://matplotlib.org/) -->
<svg height="180.72pt" version="1.1" viewBox="0 0 293.4 180.72" width="293.4pt" xmlns="http://www.w3.org/2000/svg" xmlns:xlink="http://www.w3.org/1999/xlink">
 <metadata>
  <rdf:RDF xmlns:cc="http://creativecommons.org/ns#" xmlns:dc="http://purl.org/dc/elements/1.1/" xmlns:rdf="http://www.w3.org/1999/02/22-rdf-syntax-ns#">
   <cc:Work>
    <dc:type rdf:resource="http://purl.org/dc/dcmitype/StillImage"/>
    <dc:date>2021-11-25T19:29:53.589490</dc:date>
    <dc:format>image/svg+xml</dc:format>
    <dc:creator>
     <cc:Agent>
      <dc:title>Matplotlib v3.3.4, https://matplotlib.org/</dc:title>
     </cc:Agent>
    </dc:creator>
   </cc:Work>
  </rdf:RDF>
 </metadata>
 <defs>
  <style type="text/css">*{stroke-linecap:butt;stroke-linejoin:round;}</style>
 </defs>
 <g id="figure_1">
  <g id="patch_1">
   <path d="M 0 180.72 
L 293.4 180.72 
L 293.4 0 
L 0 0 
z
" style="fill:none;"/>
  </g>
  <g id="axes_1">
   <g id="line2d_1">
    <path clip-path="url(#pabfea2f678)" d="M 19.881818 161.357184 
L 22.443802 160.773995 
L 25.005785 159.946726 
L 27.567769 158.874565 
L 30.129752 157.559955 
L 32.691736 156.008714 
L 35.253719 154.230063 
L 37.815702 152.23659 
L 40.377686 150.044139 
L 42.939669 147.671625 
L 45.501653 145.140793 
L 48.063636 142.475883 
L 50.62562 139.703292 
L 53.187603 136.851145 
L 55.749587 133.94885 
L 58.31157 131.026615 
L 60.873554 128.114984 
L 63.435537 125.244324 
L 65.997521 122.444358 
L 68.559504 119.743706 
L 71.121488 117.169445 
L 73.683471 114.746728 
L 76.245455 112.49842 
L 78.807438 110.444803 
L 81.369421 108.60331 
L 83.931405 106.988351 
L 86.493388 105.611151 
L 89.055372 104.479653 
L 91.617355 103.598499 
L 94.179339 102.969019 
L 96.741322 102.589286 
L 99.303306 102.454233 
L 101.865289 102.555765 
L 104.427273 102.882941 
L 106.989256 103.422185 
L 109.55124 104.15752 
L 112.113223 105.070826 
L 114.675207 106.142132 
L 117.23719 107.349944 
L 119.799174 108.671544 
L 122.361157 110.08337 
L 124.92314 111.561344 
L 127.485124 113.08128 
L 130.047107 114.619209 
L 132.609091 116.151769 
L 135.171074 117.656577 
L 137.733058 119.112543 
L 140.295041 120.500191 
L 142.857025 121.801968 
L 145.419008 123.002483 
L 147.980992 124.088697 
L 150.542975 125.050096 
L 153.104959 125.878783 
L 155.666942 126.569525 
L 158.228926 127.119717 
L 160.790909 127.529326 
L 163.352893 127.800735 
L 165.914876 127.938559 
L 168.47686 127.949403 
L 171.038843 127.841566 
L 173.600826 127.62474 
L 176.16281 127.309668 
L 178.724793 126.907767 
L 181.286777 126.430806 
L 183.84876 125.890527 
L 186.410744 125.298324 
L 188.972727 124.664953 
L 191.534711 124.000242 
L 194.096694 123.312888 
L 196.658678 122.610277 
L 199.220661 121.898361 
L 201.782645 121.181596 
L 204.344628 120.462928 
L 206.906612 119.743829 
L 209.468595 119.024386 
L 212.030579 118.303434 
L 214.592562 117.578731 
L 217.154545 116.847127 
L 219.716529 116.104817 
L 222.278512 115.347542 
L 224.840496 114.570836 
L 227.402479 113.770249 
L 229.964463 112.941563 
L 232.526446 112.080987 
L 235.08843 111.185325 
L 237.650413 110.252133 
L 240.212397 109.279815 
L 242.77438 108.267693 
L 245.336364 107.216071 
L 247.898347 106.126222 
L 250.460331 105.000378 
L 253.022314 103.84169 
L 255.584298 102.654137 
L 258.146281 101.442458 
L 260.708264 100.212043 
L 263.270248 98.968829 
L 265.832231 97.719182 
L 268.394215 96.469791 
L 270.956198 95.227556 
L 273.518182 93.999502 
" style="fill:none;stroke:#000000;stroke-linecap:square;stroke-opacity:0.7;stroke-width:1.5;"/>
   </g>
   <g id="line2d_2">
    <path clip-path="url(#pabfea2f678)" d="M 19.881818 64.942313 
L 22.443802 66.340356 
L 25.005785 67.788723 
L 27.567769 69.278869 
L 30.129752 70.802088 
L 32.691736 72.349658 
L 35.253719 73.913007 
L 37.815702 75.483823 
L 40.377686 77.0542 
L 42.939669 78.616716 
L 45.501653 80.164499 
L 48.063636 81.69129 
L 50.62562 83.191455 
L 53.187603 84.660016 
L 55.749587 86.092629 
L 58.31157 87.485589 
L 60.873554 88.835818 
L 63.435537 90.140861 
L 65.997521 91.3989 
L 68.559504 92.608766 
L 71.121488 93.769997 
L 73.683471 94.882862 
L 76.245455 95.948495 
L 78.807438 96.968939 
L 81.369421 97.947266 
L 83.931405 98.887688 
L 86.493388 99.795652 
L 89.055372 100.677914 
L 91.617355 101.542602 
L 94.179339 102.399235 
L 96.741322 103.258661 
L 99.303306 104.132997 
L 101.865289 105.035461 
L 104.427273 105.980127 
L 106.989256 106.981658 
L 109.55124 108.054927 
L 112.113223 109.214597 
L 114.675207 110.474657 
L 117.23719 111.847914 
L 119.799174 113.345476 
L 122.361157 114.976213 
L 124.92314 116.746278 
L 127.485124 118.658643 
L 130.047107 120.712701 
L 132.609091 122.903975 
L 135.171074 125.223894 
L 137.733058 127.65971 
L 140.295041 130.194535 
L 142.857025 132.8075 
L 145.419008 135.474055 
L 147.980992 138.166393 
L 150.542975 140.853967 
L 153.104959 143.504147 
L 155.666942 146.082933 
L 158.228926 148.555721 
L 160.790909 150.888133 
L 163.352893 153.046814 
L 165.914876 155.000263 
L 168.47686 156.719548 
L 171.038843 158.179023 
L 173.600826 159.356906 
L 176.16281 160.235772 
L 178.724793 160.802902 
L 181.286777 161.050533 
L 183.84876 160.975917 
L 186.410744 160.581308 
L 188.972727 159.873787 
L 191.534711 158.864937 
L 194.096694 157.570486 
L 196.658678 156.009795 
L 199.220661 154.205296 
L 201.782645 152.181904 
L 204.344628 149.966378 
L 206.906612 147.586661 
L 209.468595 145.071289 
L 212.030579 142.44876 
L 214.592562 139.74702 
L 217.154545 136.99295 
L 219.716529 134.211965 
L 222.278512 131.427668 
L 224.840496 128.661598 
L 227.402479 125.93304 
L 229.964463 123.258924 
L 232.526446 120.653814 
L 235.08843 118.129938 
L 237.650413 115.697271 
L 240.212397 113.363694 
L 242.77438 111.135194 
L 245.336364 109.016032 
L 247.898347 107.009019 
L 250.460331 105.115736 
L 253.022314 103.336778 
L 255.584298 101.671988 
L 258.146281 100.120684 
L 260.708264 98.681854 
L 263.270248 97.354341 
L 265.832231 96.137003 
L 268.394215 95.028819 
L 270.956198 94.029013 
L 273.518182 93.137097 
" style="fill:none;stroke:#000000;stroke-linecap:square;stroke-opacity:0.7;stroke-width:1.5;"/>
   </g>
   <g id="line2d_3">
    <path clip-path="url(#pabfea2f678)" d="M 19.881818 119.378106 
L 22.443802 117.630566 
L 25.005785 115.805745 
L 27.567769 113.910897 
L 30.129752 111.954588 
L 32.691736 109.946612 
L 35.253719 107.897832 
L 37.815702 105.820043 
L 40.377686 103.725759 
L 42.939669 101.627989 
L 45.501653 99.53999 
L 48.063636 97.475041 
L 50.62562 95.446167 
L 53.187603 93.465898 
L 55.749587 91.546048 
L 58.31157 89.697472 
L 60.873554 87.9299 
L 63.435537 86.251754 
L 65.997521 84.670035 
L 68.559504 83.190212 
L 71.121488 81.816176 
L 73.683471 80.550228 
L 76.245455 79.39309 
L 78.807438 78.343966 
L 81.369421 77.400659 
L 83.931405 76.559655 
L 86.493388 75.816316 
L 89.055372 75.165042 
L 91.617355 74.599454 
L 94.179339 74.11261 
L 96.741322 73.69722 
L 99.303306 73.345849 
L 101.865289 73.051114 
L 104.427273 72.805873 
L 106.989256 72.603431 
L 109.55124 72.437648 
L 112.113223 72.303105 
L 114.675207 72.19518 
L 117.23719 72.110152 
L 119.799174 72.045215 
L 122.361157 71.998511 
L 124.92314 71.969126 
L 127.485124 71.957044 
L 130.047107 71.963092 
L 132.609091 71.98887 
L 135.171074 72.036649 
L 137.733058 72.109269 
L 140.295041 72.210036 
L 142.857025 72.342588 
L 145.419008 72.510789 
L 147.980992 72.718614 
L 150.542975 72.970016 
L 153.104959 73.268851 
L 155.666942 73.618754 
L 158.228926 74.023061 
L 160.790909 74.484717 
L 163.352893 75.006213 
L 165.914876 75.589519 
L 168.47686 76.236024 
L 171.038843 76.946484 
L 173.600826 77.720976 
L 176.16281 78.558867 
L 178.724793 79.458762 
L 181.286777 80.418497 
L 183.84876 81.435078 
L 186.410744 82.50469 
L 188.972727 83.622668 
L 191.534711 84.78349 
L 194.096694 85.980767 
L 196.658678 87.207283 
L 199.220661 88.454982 
L 201.782645 89.715033 
L 204.344628 90.977878 
L 206.906612 92.233301 
L 209.468595 93.47052 
L 212.030579 94.678312 
L 214.592562 95.845119 
L 217.154545 96.959219 
L 219.716529 98.008888 
L 222.278512 98.982568 
L 224.840496 99.869071 
L 227.402479 100.657777 
L 229.964463 101.33883 
L 232.526446 101.903354 
L 235.08843 102.34363 
L 237.650413 102.65329 
L 240.212397 102.827499 
L 242.77438 102.863074 
L 245.336364 102.758616 
L 247.898347 102.514625 
L 250.460331 102.133514 
L 253.022314 101.619668 
L 255.584298 100.979405 
L 258.146281 100.220928 
L 260.708264 99.354208 
L 263.270248 98.390877 
L 265.832231 97.344018 
L 268.394215 96.227964 
L 270.956198 95.058056 
L 273.518182 93.850347 
" style="fill:none;stroke:#000000;stroke-linecap:square;stroke-opacity:0.7;stroke-width:1.5;"/>
   </g>
   <g id="line2d_4">
    <path clip-path="url(#pabfea2f678)" d="M 19.881818 103.74185 
L 22.443802 102.454355 
L 25.005785 101.206168 
L 27.567769 100.011705 
L 30.129752 98.884574 
L 32.691736 97.837312 
L 35.253719 96.881081 
L 37.815702 96.025415 
L 40.377686 95.277999 
L 42.939669 94.644435 
L 45.501653 94.128105 
L 48.063636 93.730038 
L 50.62562 93.448827 
L 53.187603 93.280631 
L 55.749587 93.219186 
L 58.31157 93.255904 
L 60.873554 93.380019 
L 63.435537 93.578771 
L 65.997521 93.837653 
L 68.559504 94.14069 
L 71.121488 94.470769 
L 73.683471 94.809981 
L 76.245455 95.139993 
L 78.807438 95.442431 
L 81.369421 95.699261 
L 83.931405 95.893161 
L 86.493388 96.007876 
L 89.055372 96.028564 
L 91.617355 95.942059 
L 94.179339 95.737154 
L 96.741322 95.404769 
L 99.303306 94.938126 
L 101.865289 94.332818 
L 104.427273 93.586831 
L 106.989256 92.700523 
L 109.55124 91.676524 
L 112.113223 90.519595 
L 114.675207 89.236424 
L 117.23719 87.835395 
L 119.799174 86.326322 
L 122.361157 84.72014 
L 124.92314 83.028624 
L 127.485124 81.264047 
L 130.047107 79.438906 
L 132.609091 77.565624 
L 135.171074 75.656287 
L 137.733058 73.722441 
L 140.295041 71.774889 
L 142.857025 69.823584 
L 145.419008 67.877514 
L 147.980992 65.944697 
L 150.542975 64.032176 
L 153.104959 62.146084 
L 155.666942 60.291753 
L 158.228926 58.473838 
L 160.790909 56.696474 
L 163.352893 54.963466 
L 165.914876 53.278452 
L 168.47686 51.645092 
L 171.038843 50.067239 
L 173.600826 48.549064 
L 176.16281 47.095192 
L 178.724793 45.710778 
L 181.286777 44.401557 
L 183.84876 43.173823 
L 186.410744 42.034435 
L 188.972727 40.99069 
L 191.534711 40.050253 
L 194.096694 39.22097 
L 196.658678 38.510725 
L 199.220661 37.927228 
L 201.782645 37.477805 
L 204.344628 37.169208 
L 206.906612 37.00738 
L 209.468595 36.997268 
L 212.030579 37.142642 
L 214.592562 37.44592 
L 217.154545 37.908027 
L 219.716529 38.528311 
L 222.278512 39.304441 
L 224.840496 40.232378 
L 227.402479 41.30634 
L 229.964463 42.518848 
L 232.526446 43.860753 
L 235.08843 45.321325 
L 237.650413 46.888345 
L 240.212397 48.54824 
L 242.77438 50.286212 
L 245.336364 52.086419 
L 247.898347 53.932133 
L 250.460331 55.805953 
L 253.022314 57.689988 
L 255.584298 59.566089 
L 258.146281 61.416042 
L 260.708264 63.221834 
L 263.270248 64.965849 
L 265.832231 66.631128 
L 268.394215 68.201594 
L 270.956198 69.662276 
L 273.518182 70.999547 
" style="fill:none;stroke:#000000;stroke-linecap:square;stroke-opacity:0.7;stroke-width:1.5;"/>
   </g>
   <g id="line2d_5">
    <path clip-path="url(#pabfea2f678)" d="M 19.881818 69.204425 
L 22.443802 70.023221 
L 25.005785 70.872437 
L 27.567769 71.740335 
L 30.129752 72.614095 
L 32.691736 73.480026 
L 35.253719 74.323862 
L 37.815702 75.131053 
L 40.377686 75.887037 
L 42.939669 76.57756 
L 45.501653 77.188971 
L 48.063636 77.708504 
L 50.62562 78.124558 
L 53.187603 78.426943 
L 55.749587 78.607122 
L 58.31157 78.658391 
L 60.873554 78.576048 
L 63.435537 78.357526 
L 65.997521 78.002465 
L 68.559504 77.512759 
L 71.121488 76.89257 
L 73.683471 76.148256 
L 76.245455 75.288321 
L 78.807438 74.323244 
L 81.369421 73.265374 
L 83.931405 72.128674 
L 86.493388 70.928544 
L 89.055372 69.681526 
L 91.617355 68.405054 
L 94.179339 67.117166 
L 96.741322 65.836209 
L 99.303306 64.580561 
L 101.865289 63.368311 
L 104.427273 62.21703 
L 106.989256 61.143508 
L 109.55124 60.163509 
L 112.113223 59.291603 
L 114.675207 58.540987 
L 117.23719 57.923367 
L 119.799174 57.448866 
L 122.361157 57.125959 
L 124.92314 56.961468 
L 127.485124 56.960553 
L 130.047107 57.126763 
L 132.609091 57.462067 
L 135.171074 57.96695 
L 137.733058 58.640475 
L 140.295041 59.480374 
L 142.857025 60.483118 
L 145.419008 61.644013 
L 147.980992 62.957252 
L 150.542975 64.415967 
L 153.104959 66.012291 
L 155.666942 67.737373 
L 158.228926 69.581416 
L 160.790909 71.533681 
L 163.352893 73.582507 
L 165.914876 75.71533 
L 168.47686 77.918711 
L 171.038843 80.178357 
L 173.600826 82.479188 
L 176.16281 84.805416 
L 178.724793 87.14062 
L 181.286777 89.467893 
L 183.84876 91.76998 
L 186.410744 94.029453 
L 188.972727 96.228927 
L 191.534711 98.351253 
L 194.096694 100.37976 
L 196.658678 102.298493 
L 199.220661 104.092463 
L 201.782645 105.747866 
L 204.344628 107.252307 
L 206.906612 108.595008 
L 209.468595 109.76696 
L 212.030579 110.76108 
L 214.592562 111.572294 
L 217.154545 112.197589 
L 219.716529 112.636021 
L 222.278512 112.888693 
L 224.840496 112.958635 
L 227.402479 112.850713 
L 229.964463 112.57143 
L 232.526446 112.128746 
L 235.08843 111.531833 
L 237.650413 110.790832 
L 240.212397 109.916584 
L 242.77438 108.920358 
L 245.336364 107.813595 
L 247.898347 106.607643 
L 250.460331 105.313524 
L 253.022314 103.941736 
L 255.584298 102.502078 
L 258.146281 101.003491 
L 260.708264 99.453993 
L 263.270248 97.860597 
L 265.832231 96.229315 
L 268.394215 94.5652 
L 270.956198 92.872395 
L 273.518182 91.154262 
" style="fill:none;stroke:#000000;stroke-linecap:square;stroke-opacity:0.7;stroke-width:1.5;"/>
   </g>
   <g id="line2d_6">
    <path clip-path="url(#pabfea2f678)" d="M 19.881818 110.974741 
L 22.443802 109.553663 
L 25.005785 108.234208 
L 27.567769 107.027651 
L 30.129752 105.943531 
L 32.691736 104.989347 
L 35.253719 104.170333 
L 37.815702 103.48924 
L 40.377686 102.946205 
L 42.939669 102.538638 
L 45.501653 102.261205 
L 48.063636 102.10586 
L 50.62562 102.061966 
L 53.187603 102.116444 
L 55.749587 102.25407 
L 58.31157 102.457737 
L 60.873554 102.708853 
L 63.435537 102.987735 
L 65.997521 103.274085 
L 68.559504 103.547451 
L 71.121488 103.787715 
L 73.683471 103.975611 
L 76.245455 104.093174 
L 78.807438 104.124205 
L 81.369421 104.054684 
L 83.931405 103.87311 
L 86.493388 103.570822 
L 89.055372 103.142204 
L 91.617355 102.584819 
L 94.179339 101.899504 
L 96.741322 101.090314 
L 99.303306 100.164439 
L 101.865289 99.131998 
L 104.427273 98.00579 
L 106.989256 96.800947 
L 109.55124 95.534563 
L 112.113223 94.225259 
L 114.675207 92.892694 
L 117.23719 91.557118 
L 119.799174 90.238846 
L 122.361157 88.95781 
L 124.92314 87.7331 
L 127.485124 86.582534 
L 130.047107 85.522306 
L 132.609091 84.56669 
L 135.171074 83.727772 
L 137.733058 83.015305 
L 140.295041 82.436611 
L 142.857025 81.996546 
L 145.419008 81.697574 
L 147.980992 81.539851 
L 150.542975 81.521422 
L 153.104959 81.638434 
L 155.666942 81.885367 
L 158.228926 82.255353 
L 160.790909 82.74042 
L 163.352893 83.331826 
L 165.914876 84.020279 
L 168.47686 84.796229 
L 171.038843 85.650072 
L 173.600826 86.5723 
L 176.16281 87.553667 
L 178.724793 88.585251 
L 181.286777 89.658508 
L 183.84876 90.76526 
L 186.410744 91.897676 
L 188.972727 93.048187 
L 191.534711 94.209445 
L 194.096694 95.374186 
L 196.658678 96.535211 
L 199.220661 97.685266 
L 201.782645 98.817029 
L 204.344628 99.923092 
L 206.906612 100.995986 
L 209.468595 102.028228 
L 212.030579 103.012443 
L 214.592562 103.941491 
L 217.154545 104.80863 
L 219.716529 105.607713 
L 222.278512 106.333378 
L 224.840496 106.981249 
L 227.402479 107.54813 
L 229.964463 108.03217 
L 232.526446 108.432973 
L 235.08843 108.751698 
L 237.650413 108.991074 
L 240.212397 109.155363 
L 242.77438 109.250274 
L 245.336364 109.28279 
L 247.898347 109.260944 
L 250.460331 109.193562 
L 253.022314 109.089928 
L 255.584298 108.959464 
L 258.146281 108.811334 
L 260.708264 108.654109 
L 263.270248 108.495414 
L 265.832231 108.341595 
L 268.394215 108.197465 
L 270.956198 108.066079 
L 273.518182 107.948579 
" style="fill:none;stroke:#000000;stroke-linecap:square;stroke-opacity:0.7;stroke-width:1.5;"/>
   </g>
   <g id="line2d_7">
    <path clip-path="url(#pabfea2f678)" d="M 19.881818 68.729178 
L 22.443802 67.944139 
L 25.005785 67.240827 
L 27.567769 66.633585 
L 30.129752 66.134555 
L 32.691736 65.753339 
L 35.253719 65.496717 
L 37.815702 65.368458 
L 40.377686 65.369206 
L 42.939669 65.496455 
L 45.501653 65.744623 
L 48.063636 66.105206 
L 50.62562 66.567009 
L 53.187603 67.116462 
L 55.749587 67.738009 
L 58.31157 68.414527 
L 60.873554 69.127811 
L 63.435537 69.859059 
L 65.997521 70.589391 
L 68.559504 71.300326 
L 71.121488 71.974293 
L 73.683471 72.59503 
L 76.245455 73.147998 
L 78.807438 73.620706 
L 81.369421 74.002961 
L 83.931405 74.287063 
L 86.493388 74.467899 
L 89.055372 74.54299 
L 91.617355 74.512415 
L 94.179339 74.378709 
L 96.741322 74.146692 
L 99.303306 73.823194 
L 101.865289 73.416813 
L 104.427273 72.937574 
L 106.989256 72.396611 
L 109.55124 71.805809 
L 112.113223 71.177476 
L 114.675207 70.524004 
L 117.23719 69.857576 
L 119.799174 69.189877 
L 122.361157 68.531869 
L 124.92314 67.893582 
L 127.485124 67.283946 
L 130.047107 66.710697 
L 132.609091 66.180288 
L 135.171074 65.697833 
L 137.733058 65.267144 
L 140.295041 64.890707 
L 142.857025 64.569774 
L 145.419008 64.3044 
L 147.980992 64.093546 
L 150.542975 63.935166 
L 153.104959 63.826297 
L 155.666942 63.763185 
L 158.228926 63.741371 
L 160.790909 63.755799 
L 163.352893 63.800919 
L 165.914876 63.870794 
L 168.47686 63.959198 
L 171.038843 64.059692 
L 173.600826 64.165762 
L 176.16281 64.270876 
L 178.724793 64.36861 
L 181.286777 64.452722 
L 183.84876 64.517245 
L 186.410744 64.5566 
L 188.972727 64.565642 
L 191.534711 64.539752 
L 194.096694 64.47491 
L 196.658678 64.367728 
L 199.220661 64.2155 
L 201.782645 64.016191 
L 204.344628 63.768486 
L 206.906612 63.47173 
L 209.468595 63.125893 
L 212.030579 62.731543 
L 214.592562 62.289735 
L 217.154545 61.801957 
L 219.716529 61.270028 
L 222.278512 60.696001 
L 224.840496 60.082066 
L 227.402479 59.430476 
L 229.964463 58.743453 
L 232.526446 58.023156 
L 235.08843 57.271611 
L 237.650413 56.490727 
L 240.212397 55.682311 
L 242.77438 54.848096 
L 245.336364 53.98982 
L 247.898347 53.109328 
L 250.460331 52.208675 
L 253.022314 51.290279 
L 255.584298 50.357051 
L 258.146281 49.412529 
L 260.708264 48.461055 
L 263.270248 47.507858 
L 265.832231 46.559162 
L 268.394215 45.622276 
L 270.956198 44.705602 
L 273.518182 43.818613 
" style="fill:none;stroke:#000000;stroke-linecap:square;stroke-opacity:0.7;stroke-width:1.5;"/>
   </g>
   <g id="line2d_8">
    <path clip-path="url(#pabfea2f678)" d="M 19.881818 55.70893 
L 22.443802 56.263672 
L 25.005785 56.730152 
L 27.567769 57.097394 
L 30.129752 57.355706 
L 32.691736 57.496911 
L 35.253719 57.514567 
L 37.815702 57.404133 
L 40.377686 57.16311 
L 42.939669 56.791163 
L 45.501653 56.290157 
L 48.063636 55.66421 
L 50.62562 54.919668 
L 53.187603 54.065044 
L 55.749587 53.110945 
L 58.31157 52.06994 
L 60.873554 50.956414 
L 63.435537 49.786386 
L 65.997521 48.577297 
L 68.559504 47.347806 
L 71.121488 46.117529 
L 73.683471 44.906783 
L 76.245455 43.736339 
L 78.807438 42.627121 
L 81.369421 41.599935 
L 83.931405 40.675184 
L 86.493388 39.872581 
L 89.055372 39.210855 
L 91.617355 38.707485 
L 94.179339 38.378423 
L 96.741322 38.237819 
L 99.303306 38.297786 
L 101.865289 38.568157 
L 104.427273 39.056291 
L 106.989256 39.766875 
L 109.55124 40.701777 
L 112.113223 41.859925 
L 114.675207 43.237235 
L 117.23719 44.826573 
L 119.799174 46.617762 
L 122.361157 48.597641 
L 124.92314 50.750192 
L 127.485124 53.056688 
L 130.047107 55.495926 
L 132.609091 58.044492 
L 135.171074 60.677065 
L 137.733058 63.3668 
L 140.295041 66.085719 
L 142.857025 68.805129 
L 145.419008 71.496098 
L 147.980992 74.129907 
L 150.542975 76.678545 
L 153.104959 79.11515 
L 155.666942 81.414498 
L 158.228926 83.553413 
L 160.790909 85.511159 
L 163.352893 87.269807 
L 165.914876 88.814532 
L 168.47686 90.133855 
L 171.038843 91.2198 
L 173.600826 92.068052 
L 176.16281 92.677951 
L 178.724793 93.052477 
L 181.286777 93.198166 
L 183.84876 93.124913 
L 186.410744 92.845759 
L 188.972727 92.376592 
L 191.534711 91.735808 
L 194.096694 90.943934 
L 196.658678 90.023201 
L 199.220661 88.997105 
L 201.782645 87.889945 
L 204.344628 86.726365 
L 206.906612 85.530894 
L 209.468595 84.327505 
L 212.030579 83.139181 
L 214.592562 81.987537 
L 217.154545 80.892462 
L 219.716529 79.871815 
L 222.278512 78.941156 
L 224.840496 78.113535 
L 227.402479 77.399369 
L 229.964463 76.806306 
L 232.526446 76.339199 
L 235.08843 76.000113 
L 237.650413 75.788395 
L 240.212397 75.700756 
L 242.77438 75.731455 
L 245.336364 75.872464 
L 247.898347 76.113688 
L 250.460331 76.443224 
L 253.022314 76.847625 
L 255.584298 77.312172 
L 258.146281 77.821185 
L 260.708264 78.358303 
L 263.270248 78.906788 
L 265.832231 79.449817 
L 268.394215 79.970758 
L 270.956198 80.453434 
L 273.518182 80.882382 
" style="fill:none;stroke:#000000;stroke-linecap:square;stroke-opacity:0.7;stroke-width:1.5;"/>
   </g>
   <g id="line2d_9">
    <path clip-path="url(#pabfea2f678)" d="M 19.881818 110.110345 
L 22.443802 110.630047 
L 25.005785 111.198589 
L 27.567769 111.809541 
L 30.129752 112.455775 
L 32.691736 113.129659 
L 35.253719 113.823232 
L 37.815702 114.528418 
L 40.377686 115.237209 
L 42.939669 115.941848 
L 45.501653 116.635027 
L 48.063636 117.310023 
L 50.62562 117.960857 
L 53.187603 118.582416 
L 55.749587 119.17057 
L 58.31157 119.722224 
L 60.873554 120.235404 
L 63.435537 120.709253 
L 65.997521 121.144041 
L 68.559504 121.541129 
L 71.121488 121.902881 
L 73.683471 122.232591 
L 76.245455 122.534323 
L 78.807438 122.812775 
L 81.369421 123.073051 
L 83.931405 123.320483 
L 86.493388 123.560367 
L 89.055372 123.797747 
L 91.617355 124.037136 
L 94.179339 124.282289 
L 96.741322 124.535965 
L 99.303306 124.799706 
L 101.865289 125.07368 
L 104.427273 125.356536 
L 106.989256 125.645303 
L 109.55124 125.935387 
L 112.113223 126.220567 
L 114.675207 126.493116 
L 117.23719 126.743931 
L 119.799174 126.962768 
L 122.361157 127.138487 
L 124.92314 127.259388 
L 127.485124 127.313543 
L 130.047107 127.289184 
L 132.609091 127.175085 
L 135.171074 126.960939 
L 137.733058 126.637748 
L 140.295041 126.198143 
L 142.857025 125.636676 
L 145.419008 124.950081 
L 147.980992 124.137436 
L 150.542975 123.200268 
L 153.104959 122.142605 
L 155.666942 120.970922 
L 158.228926 119.694037 
L 160.790909 118.32291 
L 163.352893 116.870421 
L 165.914876 115.351058 
L 168.47686 113.780576 
L 171.038843 112.175641 
L 173.600826 110.553419 
L 176.16281 108.931207 
L 178.724793 107.326035 
L 181.286777 105.754315 
L 183.84876 104.231499 
L 186.410744 102.771795 
L 188.972727 101.387941 
L 191.534711 100.090987 
L 194.096694 98.890195 
L 196.658678 97.792957 
L 199.220661 96.804774 
L 201.782645 95.929304 
L 204.344628 95.168446 
L 206.906612 94.522472 
L 209.468595 93.990173 
L 212.030579 93.569063 
L 214.592562 93.255584 
L 217.154545 93.045291 
L 219.716529 92.933087 
L 222.278512 92.913406 
L 224.840496 92.98039 
L 227.402479 93.128058 
L 229.964463 93.350423 
L 232.526446 93.641608 
L 235.08843 93.995901 
L 237.650413 94.4078 
L 240.212397 94.872034 
L 242.77438 95.383545 
L 245.336364 95.937447 
L 247.898347 96.528985 
L 250.460331 97.153468 
L 253.022314 97.806226 
L 255.584298 98.482509 
L 258.146281 99.177463 
L 260.708264 99.88606 
L 263.270248 100.603078 
L 265.832231 101.323076 
L 268.394215 102.040381 
L 270.956198 102.749137 
L 273.518182 103.443293 
" style="fill:none;stroke:#000000;stroke-linecap:square;stroke-opacity:0.7;stroke-width:1.5;"/>
   </g>
   <g id="line2d_10">
    <path clip-path="url(#pabfea2f678)" d="M 19.881818 65.103634 
L 22.443802 65.557386 
L 25.005785 66.001394 
L 27.567769 66.433137 
L 30.129752 66.850329 
L 32.691736 67.250688 
L 35.253719 67.631682 
L 37.815702 67.990294 
L 40.377686 68.322801 
L 42.939669 68.624639 
L 45.501653 68.890279 
L 48.063636 69.113213 
L 50.62562 69.285969 
L 53.187603 69.400259 
L 55.749587 69.44714 
L 58.31157 69.417309 
L 60.873554 69.30141 
L 63.435537 69.090409 
L 65.997521 68.776017 
L 68.559504 68.351092 
L 71.121488 67.810077 
L 73.683471 67.149391 
L 76.245455 66.367799 
L 78.807438 65.466707 
L 81.369421 64.450387 
L 83.931405 63.326129 
L 86.493388 62.104297 
L 89.055372 60.798258 
L 91.617355 59.424254 
L 94.179339 58.001146 
L 96.741322 56.55007 
L 99.303306 55.094029 
L 101.865289 53.657381 
L 104.427273 52.265312 
L 106.989256 50.943249 
L 109.55124 49.716255 
L 112.113223 48.60842 
L 114.675207 47.642306 
L 117.23719 46.838349 
L 119.799174 46.214397 
L 122.361157 45.785255 
L 124.92314 45.562331 
L 127.485124 45.553346 
L 130.047107 45.762158 
L 132.609091 46.188674 
L 135.171074 46.828846 
L 137.733058 47.674774 
L 140.295041 48.714903 
L 142.857025 49.934287 
L 145.419008 51.314971 
L 147.980992 52.836366 
L 150.542975 54.475778 
L 153.104959 56.208906 
L 155.666942 58.010401 
L 158.228926 59.85443 
L 160.790909 61.715284 
L 163.352893 63.567908 
L 165.914876 65.388452 
L 168.47686 67.15479 
L 171.038843 68.846951 
L 173.600826 70.447524 
L 176.16281 71.941964 
L 178.724793 73.318848 
L 181.286777 74.570012 
L 183.84876 75.690633 
L 186.410744 76.679201 
L 188.972727 77.53741 
L 191.534711 78.269971 
L 194.096694 78.88435 
L 196.658678 79.390415 
L 199.220661 79.800075 
L 201.782645 80.126839 
L 204.344628 80.385346 
L 206.906612 80.590908 
L 209.468595 80.75903 
L 212.030579 80.904958 
L 214.592562 81.043253 
L 217.154545 81.18739 
L 219.716529 81.349459 
L 222.278512 81.539856 
L 224.840496 81.767103 
L 227.402479 82.037704 
L 229.964463 82.356083 
L 232.526446 82.724599 
L 235.08843 83.143596 
L 237.650413 83.611574 
L 240.212397 84.125336 
L 242.77438 84.680242 
L 245.336364 85.270471 
L 247.898347 85.889293 
L 250.460331 86.529377 
L 253.022314 87.183088 
L 255.584298 87.842764 
L 258.146281 88.501004 
L 260.708264 89.150908 
L 263.270248 89.786275 
L 265.832231 90.401793 
L 268.394215 90.993172 
L 270.956198 91.557224 
L 273.518182 92.091916 
" style="fill:none;stroke:#000000;stroke-linecap:square;stroke-opacity:0.7;stroke-width:1.5;"/>
   </g>
  </g>
 </g>
 <defs>
  <clipPath id="pabfea2f678">
   <rect height="166.32" width="279" x="7.2" y="7.2"/>
  </clipPath>
 </defs>
</svg>
