<?xml version="1.0" encoding="utf-8" standalone="no"?>
<!DOCTYPE svg PUBLIC "-//W3C//DTD SVG 1.1//EN"
  "http://www.w3.org/Graphics/SVG/1.1/DTD/svg11.dtd">
<!-- Created with matplotlib (https://matplotlib.org/) -->
<svg height="432pt" version="1.1" viewBox="0 0 504 432" width="504pt" xmlns="http://www.w3.org/2000/svg" xmlns:xlink="http://www.w3.org/1999/xlink">
 <metadata>
  <rdf:RDF xmlns:cc="http://creativecommons.org/ns#" xmlns:dc="http://purl.org/dc/elements/1.1/" xmlns:rdf="http://www.w3.org/1999/02/22-rdf-syntax-ns#">
   <cc:Work>
    <dc:type rdf:resource="http://purl.org/dc/dcmitype/StillImage"/>
    <dc:date>2021-11-29T00:25:55.291200</dc:date>
    <dc:format>image/svg+xml</dc:format>
    <dc:creator>
     <cc:Agent>
      <dc:title>Matplotlib v3.3.4, https://matplotlib.org/</dc:title>
     </cc:Agent>
    </dc:creator>
   </cc:Work>
  </rdf:RDF>
 </metadata>
 <defs>
  <style type="text/css">*{stroke-linecap:butt;stroke-linejoin:round;}</style>
 </defs>
 <g id="figure_1">
  <g id="patch_1">
   <path d="M 0 432 
L 504 432 
L 504 0 
L 0 0 
z
" style="fill:#ffffff;"/>
  </g>
  <g id="axes_1">
   <g id="patch_2">
    <path d="M 75.6 388.8 
L 453.6 388.8 
L 453.6 51.84 
L 75.6 51.84 
z
" style="fill:#ffffff;"/>
   </g>
   <g id="patch_3">
    <path clip-path="url(#pb597ca8b94)" d="M 75.6 270.259599 
L 75.978378 270.259599 
L 76.356757 270.259599 
L 76.735135 270.259599 
L 77.113514 270.259599 
L 77.491892 270.259599 
L 77.87027 270.259599 
L 78.248649 270.259599 
L 78.627027 270.259599 
L 79.005405 270.259599 
L 79.383784 270.259599 
L 79.762162 270.259599 
L 80.140541 270.259599 
L 80.518919 270.259599 
L 80.897297 270.259599 
L 81.275676 270.259599 
L 81.654054 270.259599 
L 82.032432 270.259599 
L 82.410811 270.259599 
L 82.789189 270.259599 
L 83.167568 270.259599 
L 83.545946 270.259599 
L 83.924324 270.259599 
L 84.302703 270.259599 
L 84.681081 270.259599 
L 85.059459 270.259599 
L 85.437838 270.259599 
L 85.816216 270.259599 
L 86.194595 270.259599 
L 86.572973 270.259599 
L 86.951351 270.259599 
L 87.32973 270.259599 
L 87.708108 270.259599 
L 88.086486 270.259599 
L 88.464865 270.259599 
L 88.843243 270.259599 
L 89.221622 270.259599 
L 89.6 270.259599 
L 89.978378 270.259599 
L 90.356757 270.259599 
L 90.735135 270.259599 
L 91.113514 270.259599 
L 91.491892 270.259599 
L 91.87027 270.259599 
L 92.248649 270.259599 
L 92.627027 270.259599 
L 93.005405 270.259599 
L 93.383784 270.259599 
L 93.762162 270.259599 
L 94.140541 270.259599 
L 94.518919 270.259599 
L 94.897297 270.259599 
L 95.275676 270.259599 
L 95.654054 270.259599 
L 96.032432 270.259599 
L 96.410811 270.259599 
L 96.789189 270.259599 
L 97.167568 270.259599 
L 97.545946 270.259599 
L 97.924324 270.259599 
L 98.302703 270.259599 
L 98.681081 270.259599 
L 99.059459 270.259599 
L 99.437838 270.259599 
L 99.816216 270.259599 
L 100.194595 270.259599 
L 100.572973 270.259599 
L 100.951351 270.259599 
L 101.32973 270.259599 
L 101.708108 270.259599 
L 102.086486 270.259599 
L 102.464865 270.259599 
L 102.843243 270.259599 
L 103.221622 270.259599 
L 103.6 270.259599 
L 103.978378 270.259599 
L 104.356757 270.259599 
L 104.735135 270.259599 
L 105.113514 270.259599 
L 105.491892 270.259599 
L 105.87027 270.259599 
L 106.248649 270.259599 
L 106.627027 270.259599 
L 107.005405 270.259599 
L 107.383784 270.259599 
L 107.762162 270.259599 
L 108.140541 270.259599 
L 108.518919 270.259599 
L 108.897297 270.259599 
L 109.275676 270.259599 
L 109.654054 270.259599 
L 110.032432 270.259599 
L 110.410811 270.259599 
L 110.789189 270.259599 
L 111.167568 270.259599 
L 111.545946 270.259599 
L 111.924324 270.259599 
L 112.302703 270.259599 
L 112.681081 270.259599 
L 113.059459 270.259599 
L 113.437838 270.259599 
L 113.816216 270.259599 
L 114.194595 270.259599 
L 114.572973 270.259599 
L 114.951351 270.259599 
L 115.32973 270.259599 
L 115.708108 270.259599 
L 116.086486 270.259599 
L 116.464865 270.259599 
L 116.843243 270.259599 
L 117.221622 270.259599 
L 117.6 270.259599 
L 117.978378 270.259599 
L 118.356757 270.259599 
L 118.735135 270.259599 
L 119.113514 270.259599 
L 119.491892 270.259599 
L 119.87027 270.259599 
L 120.248649 270.259599 
L 120.627027 270.259599 
L 121.005405 270.259599 
L 121.383784 270.259599 
L 121.762162 270.259599 
L 122.140541 270.259599 
L 122.518919 270.259599 
L 122.897297 270.259599 
L 123.275676 270.259599 
L 123.654054 270.259599 
L 124.032432 270.259599 
L 124.410811 270.259599 
L 124.789189 270.259599 
L 125.167568 270.259599 
L 125.545946 270.259599 
L 125.924324 270.259599 
L 126.302703 270.259599 
L 126.681081 270.259599 
L 127.059459 270.259599 
L 127.437838 270.259599 
L 127.816216 270.259599 
L 128.194595 270.259599 
L 128.572973 270.259599 
L 128.951351 270.259599 
L 129.32973 270.259599 
L 129.708108 270.259599 
L 130.086486 270.259599 
L 130.464865 270.259599 
L 130.843243 270.259599 
L 131.221622 270.259599 
L 131.6 270.259599 
L 131.978378 270.259599 
L 132.356757 270.259599 
L 132.735135 270.259599 
L 133.113514 270.259599 
L 133.491892 270.259599 
L 133.87027 270.259599 
L 134.248649 270.259599 
L 134.627027 270.259599 
L 135.005405 270.259599 
L 135.383784 270.259599 
L 135.762162 270.259599 
L 136.140541 270.259599 
L 136.518919 270.259599 
L 136.897297 270.259599 
L 137.275676 270.259599 
L 137.654054 270.259599 
L 138.032432 270.259599 
L 138.410811 270.259599 
L 138.789189 270.259599 
L 139.167568 270.259599 
L 139.545946 270.259599 
L 139.924324 270.259599 
L 140.302703 270.259599 
L 140.681081 270.259599 
L 141.059459 270.259599 
L 141.437838 270.259599 
L 141.816216 270.259599 
L 142.194595 270.259599 
L 142.572973 270.259599 
L 142.951351 270.259599 
L 143.32973 270.259599 
L 143.708108 270.259599 
L 144.086486 270.259599 
L 144.464865 270.259599 
L 144.843243 270.259599 
L 145.221622 270.259599 
L 145.6 270.259599 
L 145.978378 270.259599 
L 146.356757 270.259599 
L 146.735135 270.259599 
L 147.113514 270.259599 
L 147.491892 270.259599 
L 147.87027 270.259599 
L 148.248649 270.259599 
L 148.627027 270.259599 
L 149.005405 270.259599 
L 149.383784 270.259599 
L 149.762162 270.259599 
L 150.140541 270.259599 
L 150.518919 270.259599 
L 150.897297 270.259599 
L 151.275676 273.416399 
L 151.654054 273.416399 
L 152.032432 273.416399 
L 152.410811 273.416399 
L 152.789189 273.416399 
L 153.167568 273.416399 
L 153.545946 273.416399 
L 153.924324 273.416399 
L 154.302703 273.416399 
L 154.681081 273.416399 
L 155.059459 273.416399 
L 155.437838 273.416399 
L 155.816216 273.416399 
L 156.194595 273.416399 
L 156.572973 273.416399 
L 156.951351 273.416399 
L 157.32973 273.416399 
L 157.708108 273.416399 
L 158.086486 273.416399 
L 158.464865 273.416399 
L 158.843243 273.416399 
L 159.221622 273.416399 
L 159.6 273.416399 
L 159.978378 273.416399 
L 160.356757 273.416399 
L 160.735135 273.416399 
L 161.113514 273.416399 
L 161.491892 273.416399 
L 161.87027 273.416399 
L 162.248649 273.416399 
L 162.627027 273.416399 
L 163.005405 273.416399 
L 163.383784 273.416399 
L 163.762162 273.416399 
L 164.140541 273.416399 
L 164.518919 273.416399 
L 164.897297 273.416399 
L 165.275676 273.416399 
L 165.654054 273.416399 
L 166.032432 273.416399 
L 166.410811 273.416399 
L 166.789189 273.416399 
L 167.167568 273.416399 
L 167.545946 273.416399 
L 167.924324 273.416399 
L 168.302703 273.416399 
L 168.681081 273.416399 
L 169.059459 273.416399 
L 169.437838 273.416399 
L 169.816216 273.416399 
L 170.194595 273.416399 
L 170.572973 273.416399 
L 170.951351 273.416399 
L 171.32973 273.416399 
L 171.708108 273.416399 
L 172.086486 273.416399 
L 172.464865 273.416399 
L 172.843243 273.416399 
L 173.221622 273.416399 
L 173.6 273.416399 
L 173.978378 273.416399 
L 174.356757 273.416399 
L 174.735135 273.416399 
L 175.113514 273.416399 
L 175.491892 273.416399 
L 175.87027 273.416399 
L 176.248649 273.416399 
L 176.627027 273.416399 
L 177.005405 273.416399 
L 177.383784 273.416399 
L 177.762162 273.416399 
L 178.140541 273.416399 
L 178.518919 273.416399 
L 178.897297 273.416399 
L 179.275676 273.416399 
L 179.654054 273.416399 
L 180.032432 273.416399 
L 180.410811 273.416399 
L 180.789189 273.416399 
L 181.167568 273.416399 
L 181.545946 273.416399 
L 181.924324 273.416399 
L 182.302703 273.416399 
L 182.681081 273.416399 
L 183.059459 273.416399 
L 183.437838 273.416399 
L 183.816216 273.416399 
L 184.194595 273.416399 
L 184.572973 273.416399 
L 184.951351 273.416399 
L 185.32973 273.416399 
L 185.708108 273.416399 
L 186.086486 273.416399 
L 186.464865 273.416399 
L 186.843243 273.416399 
L 187.221622 273.416399 
L 187.6 273.416399 
L 187.978378 273.416399 
L 188.356757 273.416399 
L 188.735135 273.416399 
L 189.113514 342.480569 
L 189.491892 342.480569 
L 189.87027 342.480569 
L 190.248649 342.480569 
L 190.627027 342.480569 
L 191.005405 342.480569 
L 191.383784 342.480569 
L 191.762162 342.480569 
L 192.140541 342.480569 
L 192.518919 342.480569 
L 192.897297 342.480569 
L 193.275676 342.480569 
L 193.654054 342.480569 
L 194.032432 342.480569 
L 194.410811 342.480569 
L 194.789189 342.480569 
L 195.167568 342.480569 
L 195.545946 342.480569 
L 195.924324 342.480569 
L 196.302703 342.480569 
L 196.681081 342.480569 
L 197.059459 342.480569 
L 197.437838 342.480569 
L 197.816216 342.480569 
L 198.194595 342.480569 
L 198.572973 342.480569 
L 198.951351 342.480569 
L 199.32973 342.480569 
L 199.708108 342.480569 
L 200.086486 342.480569 
L 200.464865 342.480569 
L 200.843243 342.480569 
L 201.221622 342.480569 
L 201.6 342.480569 
L 201.978378 342.480569 
L 202.356757 342.480569 
L 202.735135 342.480569 
L 203.113514 342.480569 
L 203.491892 342.480569 
L 203.87027 342.480569 
L 204.248649 342.480569 
L 204.627027 342.480569 
L 205.005405 342.480569 
L 205.383784 342.480569 
L 205.762162 342.480569 
L 206.140541 342.480569 
L 206.518919 342.480569 
L 206.897297 342.480569 
L 207.275676 342.480569 
L 207.654054 342.480569 
L 208.032432 343.964596 
L 208.410811 343.964596 
L 208.789189 343.964596 
L 209.167568 343.964596 
L 209.545946 343.964596 
L 209.924324 343.964596 
L 210.302703 343.964596 
L 210.681081 343.964596 
L 211.059459 343.964596 
L 211.437838 343.964596 
L 211.816216 343.964596 
L 212.194595 343.964596 
L 212.572973 343.964596 
L 212.951351 343.964596 
L 213.32973 343.964596 
L 213.708108 343.964596 
L 214.086486 343.964596 
L 214.464865 343.964596 
L 214.843243 343.964596 
L 215.221622 343.964596 
L 215.6 343.964596 
L 215.978378 343.964596 
L 216.356757 343.964596 
L 216.735135 343.964596 
L 217.113514 343.964596 
L 217.491892 343.964596 
L 217.87027 343.964596 
L 218.248649 343.964596 
L 218.627027 343.964596 
L 219.005405 343.964596 
L 219.383784 343.964596 
L 219.762162 343.964596 
L 220.140541 343.964596 
L 220.518919 343.964596 
L 220.897297 343.964596 
L 221.275676 343.964596 
L 221.654054 343.964596 
L 222.032432 343.964596 
L 222.410811 343.964596 
L 222.789189 343.964596 
L 223.167568 343.964596 
L 223.545946 343.964596 
L 223.924324 343.964596 
L 224.302703 343.964596 
L 224.681081 343.964596 
L 225.059459 343.964596 
L 225.437838 343.964596 
L 225.816216 343.964596 
L 226.194595 343.964596 
L 226.572973 343.964596 
L 226.951351 355.245375 
L 227.32973 355.245375 
L 227.708108 355.245375 
L 228.086486 355.245375 
L 228.464865 355.245375 
L 228.843243 355.245375 
L 229.221622 355.245375 
L 229.6 355.245375 
L 229.978378 355.245375 
L 230.356757 355.245375 
L 230.735135 355.245375 
L 231.113514 355.245375 
L 231.491892 355.245375 
L 231.87027 355.245375 
L 232.248649 355.245375 
L 232.627027 355.245375 
L 233.005405 355.245375 
L 233.383784 355.245375 
L 233.762162 355.245375 
L 234.140541 355.245375 
L 234.518919 355.245375 
L 234.897297 355.245375 
L 235.275676 355.245375 
L 235.654054 355.245375 
L 236.032432 355.245375 
L 236.410811 355.245375 
L 236.789189 355.245375 
L 237.167568 355.245375 
L 237.545946 355.245375 
L 237.924324 355.245375 
L 238.302703 355.245375 
L 238.681081 355.245375 
L 239.059459 355.245375 
L 239.437838 355.245375 
L 239.816216 355.245375 
L 240.194595 355.245375 
L 240.572973 355.245375 
L 240.951351 355.245375 
L 241.32973 355.245375 
L 241.708108 355.245375 
L 242.086486 355.245375 
L 242.464865 355.245375 
L 242.843243 355.245375 
L 243.221622 355.245375 
L 243.6 355.245375 
L 243.978378 355.245375 
L 244.356757 355.245375 
L 244.735135 355.245375 
L 245.113514 355.245375 
L 245.491892 355.245375 
L 245.87027 349.952969 
L 246.248649 349.952969 
L 246.627027 349.952969 
L 247.005405 349.952969 
L 247.383784 349.952969 
L 247.762162 349.952969 
L 248.140541 349.952969 
L 248.518919 349.952969 
L 248.897297 349.952969 
L 249.275676 349.952969 
L 249.654054 349.952969 
L 250.032432 349.952969 
L 250.410811 349.952969 
L 250.789189 349.952969 
L 251.167568 349.952969 
L 251.545946 349.952969 
L 251.924324 349.952969 
L 252.302703 349.952969 
L 252.681081 349.952969 
L 253.059459 349.952969 
L 253.437838 349.952969 
L 253.816216 349.952969 
L 254.194595 349.952969 
L 254.572973 349.952969 
L 254.951351 349.952969 
L 255.32973 349.952969 
L 255.708108 349.952969 
L 256.086486 349.952969 
L 256.464865 349.952969 
L 256.843243 349.952969 
L 257.221622 349.952969 
L 257.6 349.952969 
L 257.978378 349.952969 
L 258.356757 349.952969 
L 258.735135 349.952969 
L 259.113514 349.952969 
L 259.491892 349.952969 
L 259.87027 349.952969 
L 260.248649 349.952969 
L 260.627027 349.952969 
L 261.005405 349.952969 
L 261.383784 349.952969 
L 261.762162 349.952969 
L 262.140541 349.952969 
L 262.518919 349.952969 
L 262.897297 349.952969 
L 263.275676 349.952969 
L 263.654054 349.952969 
L 264.032432 349.952969 
L 264.410811 349.952969 
L 264.789189 349.952969 
L 265.167568 349.952969 
L 265.545946 349.952969 
L 265.924324 349.952969 
L 266.302703 349.952969 
L 266.681081 349.952969 
L 267.059459 349.952969 
L 267.437838 349.952969 
L 267.816216 349.952969 
L 268.194595 349.952969 
L 268.572973 349.952969 
L 268.951351 349.952969 
L 269.32973 349.952969 
L 269.708108 349.952969 
L 270.086486 349.952969 
L 270.464865 349.952969 
L 270.843243 349.952969 
L 271.221622 349.952969 
L 271.6 349.952969 
L 271.978378 349.952969 
L 272.356757 349.952969 
L 272.735135 349.952969 
L 273.113514 349.952969 
L 273.491892 349.952969 
L 273.87027 349.952969 
L 274.248649 349.952969 
L 274.627027 349.952969 
L 275.005405 349.952969 
L 275.383784 349.952969 
L 275.762162 349.952969 
L 276.140541 349.952969 
L 276.518919 349.952969 
L 276.897297 349.952969 
L 277.275676 349.952969 
L 277.654054 349.952969 
L 278.032432 349.952969 
L 278.410811 349.952969 
L 278.789189 349.952969 
L 279.167568 349.952969 
L 279.545946 349.952969 
L 279.924324 349.952969 
L 280.302703 349.952969 
L 280.681081 349.952969 
L 281.059459 349.952969 
L 281.437838 349.952969 
L 281.816216 349.952969 
L 282.194595 349.952969 
L 282.572973 349.952969 
L 282.951351 349.952969 
L 283.32973 349.952969 
L 283.708108 319.406068 
L 284.086486 319.406068 
L 284.464865 319.406068 
L 284.843243 319.406068 
L 285.221622 319.406068 
L 285.6 319.406068 
L 285.978378 319.406068 
L 286.356757 319.406068 
L 286.735135 319.406068 
L 287.113514 319.406068 
L 287.491892 319.406068 
L 287.87027 319.406068 
L 288.248649 319.406068 
L 288.627027 319.406068 
L 289.005405 319.406068 
L 289.383784 319.406068 
L 289.762162 319.406068 
L 290.140541 319.406068 
L 290.518919 319.406068 
L 290.897297 319.406068 
L 291.275676 319.406068 
L 291.654054 319.406068 
L 292.032432 319.406068 
L 292.410811 319.406068 
L 292.789189 319.406068 
L 293.167568 319.406068 
L 293.545946 319.406068 
L 293.924324 319.406068 
L 294.302703 319.406068 
L 294.681081 319.406068 
L 295.059459 319.406068 
L 295.437838 319.406068 
L 295.816216 319.406068 
L 296.194595 319.406068 
L 296.572973 319.406068 
L 296.951351 319.406068 
L 297.32973 319.406068 
L 297.708108 319.406068 
L 298.086486 319.406068 
L 298.464865 319.406068 
L 298.843243 319.406068 
L 299.221622 319.406068 
L 299.6 319.406068 
L 299.978378 319.406068 
L 300.356757 319.406068 
L 300.735135 319.406068 
L 301.113514 319.406068 
L 301.491892 319.406068 
L 301.87027 319.406068 
L 302.248649 319.406068 
L 302.627027 319.406068 
L 303.005405 319.406068 
L 303.383784 319.406068 
L 303.762162 319.406068 
L 304.140541 319.406068 
L 304.518919 319.406068 
L 304.897297 319.406068 
L 305.275676 319.406068 
L 305.654054 319.406068 
L 306.032432 319.406068 
L 306.410811 319.406068 
L 306.789189 319.406068 
L 307.167568 319.406068 
L 307.545946 319.406068 
L 307.924324 319.406068 
L 308.302703 319.406068 
L 308.681081 319.406068 
L 309.059459 319.406068 
L 309.437838 319.406068 
L 309.816216 319.406068 
L 310.194595 319.406068 
L 310.572973 319.406068 
L 310.951351 319.406068 
L 311.32973 319.406068 
L 311.708108 319.406068 
L 312.086486 319.406068 
L 312.464865 319.406068 
L 312.843243 319.406068 
L 313.221622 319.406068 
L 313.6 319.406068 
L 313.978378 319.406068 
L 314.356757 319.406068 
L 314.735135 319.406068 
L 315.113514 319.406068 
L 315.491892 319.406068 
L 315.87027 319.406068 
L 316.248649 319.406068 
L 316.627027 319.406068 
L 317.005405 319.406068 
L 317.383784 319.406068 
L 317.762162 319.406068 
L 318.140541 319.406068 
L 318.518919 319.406068 
L 318.897297 319.406068 
L 319.275676 319.406068 
L 319.654054 319.406068 
L 320.032432 319.406068 
L 320.410811 319.406068 
L 320.789189 319.406068 
L 321.167568 319.406068 
L 321.545946 297.941012 
L 321.924324 297.941012 
L 322.302703 297.941012 
L 322.681081 297.941012 
L 323.059459 297.941012 
L 323.437838 297.941012 
L 323.816216 297.941012 
L 324.194595 297.941012 
L 324.572973 297.941012 
L 324.951351 297.941012 
L 325.32973 297.941012 
L 325.708108 297.941012 
L 326.086486 297.941012 
L 326.464865 297.941012 
L 326.843243 297.941012 
L 327.221622 297.941012 
L 327.6 297.941012 
L 327.978378 297.941012 
L 328.356757 297.941012 
L 328.735135 297.941012 
L 329.113514 297.941012 
L 329.491892 297.941012 
L 329.87027 297.941012 
L 330.248649 297.941012 
L 330.627027 297.941012 
L 331.005405 297.941012 
L 331.383784 297.941012 
L 331.762162 297.941012 
L 332.140541 297.941012 
L 332.518919 297.941012 
L 332.897297 297.941012 
L 333.275676 297.941012 
L 333.654054 297.941012 
L 334.032432 297.941012 
L 334.410811 297.941012 
L 334.789189 297.941012 
L 335.167568 297.941012 
L 335.545946 297.941012 
L 335.924324 297.941012 
L 336.302703 297.941012 
L 336.681081 297.941012 
L 337.059459 297.941012 
L 337.437838 297.941012 
L 337.816216 297.941012 
L 338.194595 297.941012 
L 338.572973 297.941012 
L 338.951351 297.941012 
L 339.32973 297.941012 
L 339.708108 297.941012 
L 340.086486 297.941012 
L 340.464865 247.104396 
L 340.843243 247.104396 
L 341.221622 247.104396 
L 341.6 247.104396 
L 341.978378 247.104396 
L 342.356757 247.104396 
L 342.735135 247.104396 
L 343.113514 247.104396 
L 343.491892 247.104396 
L 343.87027 247.104396 
L 344.248649 247.104396 
L 344.627027 247.104396 
L 345.005405 247.104396 
L 345.383784 247.104396 
L 345.762162 247.104396 
L 346.140541 247.104396 
L 346.518919 247.104396 
L 346.897297 247.104396 
L 347.275676 247.104396 
L 347.654054 247.104396 
L 348.032432 247.104396 
L 348.410811 247.104396 
L 348.789189 247.104396 
L 349.167568 247.104396 
L 349.545946 247.104396 
L 349.924324 247.104396 
L 350.302703 247.104396 
L 350.681081 247.104396 
L 351.059459 247.104396 
L 351.437838 247.104396 
L 351.816216 247.104396 
L 352.194595 247.104396 
L 352.572973 247.104396 
L 352.951351 247.104396 
L 353.32973 247.104396 
L 353.708108 247.104396 
L 354.086486 247.104396 
L 354.464865 247.104396 
L 354.843243 247.104396 
L 355.221622 247.104396 
L 355.6 247.104396 
L 355.978378 247.104396 
L 356.356757 247.104396 
L 356.735135 247.104396 
L 357.113514 247.104396 
L 357.491892 247.104396 
L 357.87027 247.104396 
L 358.248649 247.104396 
L 358.627027 247.104396 
L 359.005405 247.104396 
L 359.383784 224.229168 
L 359.762162 224.229168 
L 360.140541 224.229168 
L 360.518919 224.229168 
L 360.897297 224.229168 
L 361.275676 224.229168 
L 361.654054 224.229168 
L 362.032432 224.229168 
L 362.410811 224.229168 
L 362.789189 224.229168 
L 363.167568 224.229168 
L 363.545946 224.229168 
L 363.924324 224.229168 
L 364.302703 224.229168 
L 364.681081 224.229168 
L 365.059459 224.229168 
L 365.437838 224.229168 
L 365.816216 224.229168 
L 366.194595 224.229168 
L 366.572973 224.229168 
L 366.951351 224.229168 
L 367.32973 224.229168 
L 367.708108 224.229168 
L 368.086486 224.229168 
L 368.464865 224.229168 
L 368.843243 224.229168 
L 369.221622 224.229168 
L 369.6 224.229168 
L 369.978378 224.229168 
L 370.356757 224.229168 
L 370.735135 224.229168 
L 371.113514 224.229168 
L 371.491892 224.229168 
L 371.87027 224.229168 
L 372.248649 224.229168 
L 372.627027 224.229168 
L 373.005405 224.229168 
L 373.383784 224.229168 
L 373.762162 224.229168 
L 374.140541 224.229168 
L 374.518919 224.229168 
L 374.897297 224.229168 
L 375.275676 224.229168 
L 375.654054 224.229168 
L 376.032432 224.229168 
L 376.410811 224.229168 
L 376.789189 224.229168 
L 377.167568 224.229168 
L 377.545946 224.229168 
L 377.924324 224.229168 
L 378.302703 224.229168 
L 378.681081 224.229168 
L 379.059459 224.229168 
L 379.437838 224.229168 
L 379.816216 224.229168 
L 380.194595 224.229168 
L 380.572973 224.229168 
L 380.951351 224.229168 
L 381.32973 224.229168 
L 381.708108 224.229168 
L 382.086486 224.229168 
L 382.464865 224.229168 
L 382.843243 224.229168 
L 383.221622 224.229168 
L 383.6 224.229168 
L 383.978378 224.229168 
L 384.356757 224.229168 
L 384.735135 224.229168 
L 385.113514 224.229168 
L 385.491892 224.229168 
L 385.87027 224.229168 
L 386.248649 224.229168 
L 386.627027 224.229168 
L 387.005405 224.229168 
L 387.383784 224.229168 
L 387.762162 224.229168 
L 388.140541 224.229168 
L 388.518919 224.229168 
L 388.897297 224.229168 
L 389.275676 224.229168 
L 389.654054 224.229168 
L 390.032432 224.229168 
L 390.410811 224.229168 
L 390.789189 224.229168 
L 391.167568 224.229168 
L 391.545946 224.229168 
L 391.924324 224.229168 
L 392.302703 224.229168 
L 392.681081 224.229168 
L 393.059459 224.229168 
L 393.437838 224.229168 
L 393.816216 224.229168 
L 394.194595 224.229168 
L 394.572973 224.229168 
L 394.951351 224.229168 
L 395.32973 224.229168 
L 395.708108 224.229168 
L 396.086486 224.229168 
L 396.464865 224.229168 
L 396.843243 224.229168 
L 397.221622 224.229168 
L 397.6 224.229168 
L 397.978378 224.229168 
L 398.356757 224.229168 
L 398.735135 224.229168 
L 399.113514 224.229168 
L 399.491892 224.229168 
L 399.87027 224.229168 
L 400.248649 224.229168 
L 400.627027 224.229168 
L 401.005405 224.229168 
L 401.383784 224.229168 
L 401.762162 224.229168 
L 402.140541 224.229168 
L 402.518919 224.229168 
L 402.897297 224.229168 
L 403.275676 224.229168 
L 403.654054 224.229168 
L 404.032432 224.229168 
L 404.410811 224.229168 
L 404.789189 224.229168 
L 405.167568 224.229168 
L 405.545946 224.229168 
L 405.924324 224.229168 
L 406.302703 224.229168 
L 406.681081 224.229168 
L 407.059459 224.229168 
L 407.437838 224.229168 
L 407.816216 224.229168 
L 408.194595 224.229168 
L 408.572973 224.229168 
L 408.951351 224.229168 
L 409.32973 224.229168 
L 409.708108 224.229168 
L 410.086486 224.229168 
L 410.464865 224.229168 
L 410.843243 224.229168 
L 411.221622 224.229168 
L 411.6 224.229168 
L 411.978378 224.229168 
L 412.356757 224.229168 
L 412.735135 224.229168 
L 413.113514 224.229168 
L 413.491892 224.229168 
L 413.87027 224.229168 
L 414.248649 224.229168 
L 414.627027 224.229168 
L 415.005405 224.229168 
L 415.383784 224.229168 
L 415.762162 224.229168 
L 416.140541 224.229168 
L 416.518919 224.229168 
L 416.897297 224.229168 
L 417.275676 224.229168 
L 417.654054 224.229168 
L 418.032432 224.229168 
L 418.410811 224.229168 
L 418.789189 224.229168 
L 419.167568 224.229168 
L 419.545946 224.229168 
L 419.924324 224.229168 
L 420.302703 224.229168 
L 420.681081 224.229168 
L 421.059459 224.229168 
L 421.437838 224.229168 
L 421.816216 224.229168 
L 422.194595 224.229168 
L 422.572973 224.229168 
L 422.951351 224.229168 
L 423.32973 224.229168 
L 423.708108 224.229168 
L 424.086486 224.229168 
L 424.464865 224.229168 
L 424.843243 224.229168 
L 425.221622 224.229168 
L 425.6 224.229168 
L 425.978378 224.229168 
L 426.356757 224.229168 
L 426.735135 224.229168 
L 427.113514 224.229168 
L 427.491892 224.229168 
L 427.87027 224.229168 
L 428.248649 224.229168 
L 428.627027 224.229168 
L 429.005405 224.229168 
L 429.383784 224.229168 
L 429.762162 224.229168 
L 430.140541 224.229168 
L 430.518919 224.229168 
L 430.897297 224.229168 
L 431.275676 224.229168 
L 431.654054 224.229168 
L 432.032432 224.229168 
L 432.410811 224.229168 
L 432.789189 224.229168 
L 433.167568 224.229168 
L 433.545946 224.229168 
L 433.924324 224.229168 
L 434.302703 224.229168 
L 434.681081 224.229168 
L 435.059459 224.229168 
L 435.437838 224.229168 
L 435.816216 224.229168 
L 436.194595 224.229168 
L 436.572973 224.229168 
L 436.951351 224.229168 
L 437.32973 224.229168 
L 437.708108 224.229168 
L 438.086486 224.229168 
L 438.464865 224.229168 
L 438.843243 224.229168 
L 439.221622 224.229168 
L 439.6 224.229168 
L 439.978378 224.229168 
L 440.356757 224.229168 
L 440.735135 224.229168 
L 441.113514 224.229168 
L 441.491892 224.229168 
L 441.87027 224.229168 
L 442.248649 224.229168 
L 442.627027 224.229168 
L 443.005405 224.229168 
L 443.383784 224.229168 
L 443.762162 224.229168 
L 444.140541 224.229168 
L 444.518919 224.229168 
L 444.897297 224.229168 
L 445.275676 224.229168 
L 445.654054 224.229168 
L 446.032432 224.229168 
L 446.410811 224.229168 
L 446.789189 224.229168 
L 447.167568 224.229168 
L 447.545946 224.229168 
L 447.924324 224.229168 
L 448.302703 224.229168 
L 448.681081 224.229168 
L 449.059459 224.229168 
L 449.437838 224.229168 
L 449.816216 224.229168 
L 450.194595 224.229168 
L 450.572973 224.229168 
L 450.951351 224.229168 
L 451.32973 224.229168 
L 451.708108 224.229168 
L 452.086486 224.229168 
L 452.464865 224.229168 
L 452.843243 224.229168 
L 453.221622 224.229168 
L 453.6 224.229168 
L 453.6 165.829227 
L 453.221622 165.829227 
L 452.843243 165.829227 
L 452.464865 165.829227 
L 452.086486 165.829227 
L 451.708108 165.829227 
L 451.32973 165.829227 
L 450.951351 165.829227 
L 450.572973 165.829227 
L 450.194595 165.829227 
L 449.816216 165.829227 
L 449.437838 165.829227 
L 449.059459 165.829227 
L 448.681081 165.829227 
L 448.302703 165.829227 
L 447.924324 165.829227 
L 447.545946 165.829227 
L 447.167568 165.829227 
L 446.789189 165.829227 
L 446.410811 165.829227 
L 446.032432 165.829227 
L 445.654054 165.829227 
L 445.275676 165.829227 
L 444.897297 165.829227 
L 444.518919 165.829227 
L 444.140541 165.829227 
L 443.762162 165.829227 
L 443.383784 165.829227 
L 443.005405 165.829227 
L 442.627027 165.829227 
L 442.248649 165.829227 
L 441.87027 165.829227 
L 441.491892 165.829227 
L 441.113514 165.829227 
L 440.735135 165.829227 
L 440.356757 165.829227 
L 439.978378 165.829227 
L 439.6 165.829227 
L 439.221622 165.829227 
L 438.843243 165.829227 
L 438.464865 165.829227 
L 438.086486 165.829227 
L 437.708108 165.829227 
L 437.32973 165.829227 
L 436.951351 165.829227 
L 436.572973 165.829227 
L 436.194595 165.829227 
L 435.816216 165.829227 
L 435.437838 165.829227 
L 435.059459 165.829227 
L 434.681081 165.829227 
L 434.302703 165.829227 
L 433.924324 165.829227 
L 433.545946 165.829227 
L 433.167568 165.829227 
L 432.789189 165.829227 
L 432.410811 165.829227 
L 432.032432 165.829227 
L 431.654054 165.829227 
L 431.275676 165.829227 
L 430.897297 165.829227 
L 430.518919 165.829227 
L 430.140541 165.829227 
L 429.762162 165.829227 
L 429.383784 165.829227 
L 429.005405 165.829227 
L 428.627027 165.829227 
L 428.248649 165.829227 
L 427.87027 165.829227 
L 427.491892 165.829227 
L 427.113514 165.829227 
L 426.735135 165.829227 
L 426.356757 165.829227 
L 425.978378 165.829227 
L 425.6 165.829227 
L 425.221622 165.829227 
L 424.843243 165.829227 
L 424.464865 165.829227 
L 424.086486 165.829227 
L 423.708108 165.829227 
L 423.32973 165.829227 
L 422.951351 165.829227 
L 422.572973 165.829227 
L 422.194595 165.829227 
L 421.816216 165.829227 
L 421.437838 165.829227 
L 421.059459 165.829227 
L 420.681081 165.829227 
L 420.302703 165.829227 
L 419.924324 165.829227 
L 419.545946 165.829227 
L 419.167568 165.829227 
L 418.789189 165.829227 
L 418.410811 165.829227 
L 418.032432 165.829227 
L 417.654054 165.829227 
L 417.275676 165.829227 
L 416.897297 165.829227 
L 416.518919 165.829227 
L 416.140541 165.829227 
L 415.762162 165.829227 
L 415.383784 165.829227 
L 415.005405 165.829227 
L 414.627027 165.829227 
L 414.248649 165.829227 
L 413.87027 165.829227 
L 413.491892 165.829227 
L 413.113514 165.829227 
L 412.735135 165.829227 
L 412.356757 165.829227 
L 411.978378 165.829227 
L 411.6 165.829227 
L 411.221622 165.829227 
L 410.843243 165.829227 
L 410.464865 165.829227 
L 410.086486 165.829227 
L 409.708108 165.829227 
L 409.32973 165.829227 
L 408.951351 165.829227 
L 408.572973 165.829227 
L 408.194595 165.829227 
L 407.816216 165.829227 
L 407.437838 165.829227 
L 407.059459 165.829227 
L 406.681081 165.829227 
L 406.302703 165.829227 
L 405.924324 165.829227 
L 405.545946 165.829227 
L 405.167568 165.829227 
L 404.789189 165.829227 
L 404.410811 165.829227 
L 404.032432 165.829227 
L 403.654054 165.829227 
L 403.275676 165.829227 
L 402.897297 165.829227 
L 402.518919 165.829227 
L 402.140541 165.829227 
L 401.762162 165.829227 
L 401.383784 165.829227 
L 401.005405 165.829227 
L 400.627027 165.829227 
L 400.248649 165.829227 
L 399.87027 165.829227 
L 399.491892 165.829227 
L 399.113514 165.829227 
L 398.735135 165.829227 
L 398.356757 165.829227 
L 397.978378 165.829227 
L 397.6 165.829227 
L 397.221622 165.829227 
L 396.843243 165.829227 
L 396.464865 165.829227 
L 396.086486 165.829227 
L 395.708108 165.829227 
L 395.32973 165.829227 
L 394.951351 165.829227 
L 394.572973 165.829227 
L 394.194595 165.829227 
L 393.816216 165.829227 
L 393.437838 165.829227 
L 393.059459 165.829227 
L 392.681081 165.829227 
L 392.302703 165.829227 
L 391.924324 165.829227 
L 391.545946 165.829227 
L 391.167568 165.829227 
L 390.789189 165.829227 
L 390.410811 165.829227 
L 390.032432 165.829227 
L 389.654054 165.829227 
L 389.275676 165.829227 
L 388.897297 165.829227 
L 388.518919 165.829227 
L 388.140541 165.829227 
L 387.762162 165.829227 
L 387.383784 165.829227 
L 387.005405 165.829227 
L 386.627027 165.829227 
L 386.248649 165.829227 
L 385.87027 165.829227 
L 385.491892 165.829227 
L 385.113514 165.829227 
L 384.735135 165.829227 
L 384.356757 165.829227 
L 383.978378 165.829227 
L 383.6 165.829227 
L 383.221622 165.829227 
L 382.843243 165.829227 
L 382.464865 165.829227 
L 382.086486 165.829227 
L 381.708108 165.829227 
L 381.32973 165.829227 
L 380.951351 165.829227 
L 380.572973 165.829227 
L 380.194595 165.829227 
L 379.816216 165.829227 
L 379.437838 165.829227 
L 379.059459 165.829227 
L 378.681081 165.829227 
L 378.302703 165.829227 
L 377.924324 165.829227 
L 377.545946 165.829227 
L 377.167568 165.829227 
L 376.789189 165.829227 
L 376.410811 165.829227 
L 376.032432 165.829227 
L 375.654054 165.829227 
L 375.275676 165.829227 
L 374.897297 165.829227 
L 374.518919 165.829227 
L 374.140541 165.829227 
L 373.762162 165.829227 
L 373.383784 165.829227 
L 373.005405 165.829227 
L 372.627027 165.829227 
L 372.248649 165.829227 
L 371.87027 165.829227 
L 371.491892 165.829227 
L 371.113514 165.829227 
L 370.735135 165.829227 
L 370.356757 165.829227 
L 369.978378 165.829227 
L 369.6 165.829227 
L 369.221622 165.829227 
L 368.843243 165.829227 
L 368.464865 165.829227 
L 368.086486 165.829227 
L 367.708108 165.829227 
L 367.32973 165.829227 
L 366.951351 165.829227 
L 366.572973 165.829227 
L 366.194595 165.829227 
L 365.816216 165.829227 
L 365.437838 165.829227 
L 365.059459 165.829227 
L 364.681081 165.829227 
L 364.302703 165.829227 
L 363.924324 165.829227 
L 363.545946 165.829227 
L 363.167568 165.829227 
L 362.789189 165.829227 
L 362.410811 165.829227 
L 362.032432 165.829227 
L 361.654054 165.829227 
L 361.275676 165.829227 
L 360.897297 165.829227 
L 360.518919 165.829227 
L 360.140541 165.829227 
L 359.762162 165.829227 
L 359.383784 165.829227 
L 359.005405 180.198859 
L 358.627027 180.198859 
L 358.248649 180.198859 
L 357.87027 180.198859 
L 357.491892 180.198859 
L 357.113514 180.198859 
L 356.735135 180.198859 
L 356.356757 180.198859 
L 355.978378 180.198859 
L 355.6 180.198859 
L 355.221622 180.198859 
L 354.843243 180.198859 
L 354.464865 180.198859 
L 354.086486 180.198859 
L 353.708108 180.198859 
L 353.32973 180.198859 
L 352.951351 180.198859 
L 352.572973 180.198859 
L 352.194595 180.198859 
L 351.816216 180.198859 
L 351.437838 180.198859 
L 351.059459 180.198859 
L 350.681081 180.198859 
L 350.302703 180.198859 
L 349.924324 180.198859 
L 349.545946 180.198859 
L 349.167568 180.198859 
L 348.789189 180.198859 
L 348.410811 180.198859 
L 348.032432 180.198859 
L 347.654054 180.198859 
L 347.275676 180.198859 
L 346.897297 180.198859 
L 346.518919 180.198859 
L 346.140541 180.198859 
L 345.762162 180.198859 
L 345.383784 180.198859 
L 345.005405 180.198859 
L 344.627027 180.198859 
L 344.248649 180.198859 
L 343.87027 180.198859 
L 343.491892 180.198859 
L 343.113514 180.198859 
L 342.735135 180.198859 
L 342.356757 180.198859 
L 341.978378 180.198859 
L 341.6 180.198859 
L 341.221622 180.198859 
L 340.843243 180.198859 
L 340.464865 180.198859 
L 340.086486 172.454301 
L 339.708108 172.454301 
L 339.32973 172.454301 
L 338.951351 172.454301 
L 338.572973 172.454301 
L 338.194595 172.454301 
L 337.816216 172.454301 
L 337.437838 172.454301 
L 337.059459 172.454301 
L 336.681081 172.454301 
L 336.302703 172.454301 
L 335.924324 172.454301 
L 335.545946 172.454301 
L 335.167568 172.454301 
L 334.789189 172.454301 
L 334.410811 172.454301 
L 334.032432 172.454301 
L 333.654054 172.454301 
L 333.275676 172.454301 
L 332.897297 172.454301 
L 332.518919 172.454301 
L 332.140541 172.454301 
L 331.762162 172.454301 
L 331.383784 172.454301 
L 331.005405 172.454301 
L 330.627027 172.454301 
L 330.248649 172.454301 
L 329.87027 172.454301 
L 329.491892 172.454301 
L 329.113514 172.454301 
L 328.735135 172.454301 
L 328.356757 172.454301 
L 327.978378 172.454301 
L 327.6 172.454301 
L 327.221622 172.454301 
L 326.843243 172.454301 
L 326.464865 172.454301 
L 326.086486 172.454301 
L 325.708108 172.454301 
L 325.32973 172.454301 
L 324.951351 172.454301 
L 324.572973 172.454301 
L 324.194595 172.454301 
L 323.816216 172.454301 
L 323.437838 172.454301 
L 323.059459 172.454301 
L 322.681081 172.454301 
L 322.302703 172.454301 
L 321.924324 172.454301 
L 321.545946 172.454301 
L 321.167568 278.219234 
L 320.789189 278.219234 
L 320.410811 278.219234 
L 320.032432 278.219234 
L 319.654054 278.219234 
L 319.275676 278.219234 
L 318.897297 278.219234 
L 318.518919 278.219234 
L 318.140541 278.219234 
L 317.762162 278.219234 
L 317.383784 278.219234 
L 317.005405 278.219234 
L 316.627027 278.219234 
L 316.248649 278.219234 
L 315.87027 278.219234 
L 315.491892 278.219234 
L 315.113514 278.219234 
L 314.735135 278.219234 
L 314.356757 278.219234 
L 313.978378 278.219234 
L 313.6 278.219234 
L 313.221622 278.219234 
L 312.843243 278.219234 
L 312.464865 278.219234 
L 312.086486 278.219234 
L 311.708108 278.219234 
L 311.32973 278.219234 
L 310.951351 278.219234 
L 310.572973 278.219234 
L 310.194595 278.219234 
L 309.816216 278.219234 
L 309.437838 278.219234 
L 309.059459 278.219234 
L 308.681081 278.219234 
L 308.302703 278.219234 
L 307.924324 278.219234 
L 307.545946 278.219234 
L 307.167568 278.219234 
L 306.789189 278.219234 
L 306.410811 278.219234 
L 306.032432 278.219234 
L 305.654054 278.219234 
L 305.275676 278.219234 
L 304.897297 278.219234 
L 304.518919 278.219234 
L 304.140541 278.219234 
L 303.762162 278.219234 
L 303.383784 278.219234 
L 303.005405 278.219234 
L 302.627027 278.219234 
L 302.248649 278.219234 
L 301.87027 278.219234 
L 301.491892 278.219234 
L 301.113514 278.219234 
L 300.735135 278.219234 
L 300.356757 278.219234 
L 299.978378 278.219234 
L 299.6 278.219234 
L 299.221622 278.219234 
L 298.843243 278.219234 
L 298.464865 278.219234 
L 298.086486 278.219234 
L 297.708108 278.219234 
L 297.32973 278.219234 
L 296.951351 278.219234 
L 296.572973 278.219234 
L 296.194595 278.219234 
L 295.816216 278.219234 
L 295.437838 278.219234 
L 295.059459 278.219234 
L 294.681081 278.219234 
L 294.302703 278.219234 
L 293.924324 278.219234 
L 293.545946 278.219234 
L 293.167568 278.219234 
L 292.789189 278.219234 
L 292.410811 278.219234 
L 292.032432 278.219234 
L 291.654054 278.219234 
L 291.275676 278.219234 
L 290.897297 278.219234 
L 290.518919 278.219234 
L 290.140541 278.219234 
L 289.762162 278.219234 
L 289.383784 278.219234 
L 289.005405 278.219234 
L 288.627027 278.219234 
L 288.248649 278.219234 
L 287.87027 278.219234 
L 287.491892 278.219234 
L 287.113514 278.219234 
L 286.735135 278.219234 
L 286.356757 278.219234 
L 285.978378 278.219234 
L 285.6 278.219234 
L 285.221622 278.219234 
L 284.843243 278.219234 
L 284.464865 278.219234 
L 284.086486 278.219234 
L 283.708108 278.219234 
L 283.32973 282.695151 
L 282.951351 282.695151 
L 282.572973 282.695151 
L 282.194595 282.695151 
L 281.816216 282.695151 
L 281.437838 282.695151 
L 281.059459 282.695151 
L 280.681081 282.695151 
L 280.302703 282.695151 
L 279.924324 282.695151 
L 279.545946 282.695151 
L 279.167568 282.695151 
L 278.789189 282.695151 
L 278.410811 282.695151 
L 278.032432 282.695151 
L 277.654054 282.695151 
L 277.275676 282.695151 
L 276.897297 282.695151 
L 276.518919 282.695151 
L 276.140541 282.695151 
L 275.762162 282.695151 
L 275.383784 282.695151 
L 275.005405 282.695151 
L 274.627027 282.695151 
L 274.248649 282.695151 
L 273.87027 282.695151 
L 273.491892 282.695151 
L 273.113514 282.695151 
L 272.735135 282.695151 
L 272.356757 282.695151 
L 271.978378 282.695151 
L 271.6 282.695151 
L 271.221622 282.695151 
L 270.843243 282.695151 
L 270.464865 282.695151 
L 270.086486 282.695151 
L 269.708108 282.695151 
L 269.32973 282.695151 
L 268.951351 282.695151 
L 268.572973 282.695151 
L 268.194595 282.695151 
L 267.816216 282.695151 
L 267.437838 282.695151 
L 267.059459 282.695151 
L 266.681081 282.695151 
L 266.302703 282.695151 
L 265.924324 282.695151 
L 265.545946 282.695151 
L 265.167568 282.695151 
L 264.789189 282.695151 
L 264.410811 282.695151 
L 264.032432 282.695151 
L 263.654054 282.695151 
L 263.275676 282.695151 
L 262.897297 282.695151 
L 262.518919 282.695151 
L 262.140541 282.695151 
L 261.762162 282.695151 
L 261.383784 282.695151 
L 261.005405 282.695151 
L 260.627027 282.695151 
L 260.248649 282.695151 
L 259.87027 282.695151 
L 259.491892 282.695151 
L 259.113514 282.695151 
L 258.735135 282.695151 
L 258.356757 282.695151 
L 257.978378 282.695151 
L 257.6 282.695151 
L 257.221622 282.695151 
L 256.843243 282.695151 
L 256.464865 282.695151 
L 256.086486 282.695151 
L 255.708108 282.695151 
L 255.32973 282.695151 
L 254.951351 282.695151 
L 254.572973 282.695151 
L 254.194595 282.695151 
L 253.816216 282.695151 
L 253.437838 282.695151 
L 253.059459 282.695151 
L 252.681081 282.695151 
L 252.302703 282.695151 
L 251.924324 282.695151 
L 251.545946 282.695151 
L 251.167568 282.695151 
L 250.789189 282.695151 
L 250.410811 282.695151 
L 250.032432 282.695151 
L 249.654054 282.695151 
L 249.275676 282.695151 
L 248.897297 282.695151 
L 248.518919 282.695151 
L 248.140541 282.695151 
L 247.762162 282.695151 
L 247.383784 282.695151 
L 247.005405 282.695151 
L 246.627027 282.695151 
L 246.248649 282.695151 
L 245.87027 282.695151 
L 245.491892 272.685635 
L 245.113514 272.685635 
L 244.735135 272.685635 
L 244.356757 272.685635 
L 243.978378 272.685635 
L 243.6 272.685635 
L 243.221622 272.685635 
L 242.843243 272.685635 
L 242.464865 272.685635 
L 242.086486 272.685635 
L 241.708108 272.685635 
L 241.32973 272.685635 
L 240.951351 272.685635 
L 240.572973 272.685635 
L 240.194595 272.685635 
L 239.816216 272.685635 
L 239.437838 272.685635 
L 239.059459 272.685635 
L 238.681081 272.685635 
L 238.302703 272.685635 
L 237.924324 272.685635 
L 237.545946 272.685635 
L 237.167568 272.685635 
L 236.789189 272.685635 
L 236.410811 272.685635 
L 236.032432 272.685635 
L 235.654054 272.685635 
L 235.275676 272.685635 
L 234.897297 272.685635 
L 234.518919 272.685635 
L 234.140541 272.685635 
L 233.762162 272.685635 
L 233.383784 272.685635 
L 233.005405 272.685635 
L 232.627027 272.685635 
L 232.248649 272.685635 
L 231.87027 272.685635 
L 231.491892 272.685635 
L 231.113514 272.685635 
L 230.735135 272.685635 
L 230.356757 272.685635 
L 229.978378 272.685635 
L 229.6 272.685635 
L 229.221622 272.685635 
L 228.843243 272.685635 
L 228.464865 272.685635 
L 228.086486 272.685635 
L 227.708108 272.685635 
L 227.32973 272.685635 
L 226.951351 272.685635 
L 226.572973 248.801394 
L 226.194595 248.801394 
L 225.816216 248.801394 
L 225.437838 248.801394 
L 225.059459 248.801394 
L 224.681081 248.801394 
L 224.302703 248.801394 
L 223.924324 248.801394 
L 223.545946 248.801394 
L 223.167568 248.801394 
L 222.789189 248.801394 
L 222.410811 248.801394 
L 222.032432 248.801394 
L 221.654054 248.801394 
L 221.275676 248.801394 
L 220.897297 248.801394 
L 220.518919 248.801394 
L 220.140541 248.801394 
L 219.762162 248.801394 
L 219.383784 248.801394 
L 219.005405 248.801394 
L 218.627027 248.801394 
L 218.248649 248.801394 
L 217.87027 248.801394 
L 217.491892 248.801394 
L 217.113514 248.801394 
L 216.735135 248.801394 
L 216.356757 248.801394 
L 215.978378 248.801394 
L 215.6 248.801394 
L 215.221622 248.801394 
L 214.843243 248.801394 
L 214.464865 248.801394 
L 214.086486 248.801394 
L 213.708108 248.801394 
L 213.32973 248.801394 
L 212.951351 248.801394 
L 212.572973 248.801394 
L 212.194595 248.801394 
L 211.816216 248.801394 
L 211.437838 248.801394 
L 211.059459 248.801394 
L 210.681081 248.801394 
L 210.302703 248.801394 
L 209.924324 248.801394 
L 209.545946 248.801394 
L 209.167568 248.801394 
L 208.789189 248.801394 
L 208.410811 248.801394 
L 208.032432 248.801394 
L 207.654054 233.316359 
L 207.275676 233.316359 
L 206.897297 233.316359 
L 206.518919 233.316359 
L 206.140541 233.316359 
L 205.762162 233.316359 
L 205.383784 233.316359 
L 205.005405 233.316359 
L 204.627027 233.316359 
L 204.248649 233.316359 
L 203.87027 233.316359 
L 203.491892 233.316359 
L 203.113514 233.316359 
L 202.735135 233.316359 
L 202.356757 233.316359 
L 201.978378 233.316359 
L 201.6 233.316359 
L 201.221622 233.316359 
L 200.843243 233.316359 
L 200.464865 233.316359 
L 200.086486 233.316359 
L 199.708108 233.316359 
L 199.32973 233.316359 
L 198.951351 233.316359 
L 198.572973 233.316359 
L 198.194595 233.316359 
L 197.816216 233.316359 
L 197.437838 233.316359 
L 197.059459 233.316359 
L 196.681081 233.316359 
L 196.302703 233.316359 
L 195.924324 233.316359 
L 195.545946 233.316359 
L 195.167568 233.316359 
L 194.789189 233.316359 
L 194.410811 233.316359 
L 194.032432 233.316359 
L 193.654054 233.316359 
L 193.275676 233.316359 
L 192.897297 233.316359 
L 192.518919 233.316359 
L 192.140541 233.316359 
L 191.762162 233.316359 
L 191.383784 233.316359 
L 191.005405 233.316359 
L 190.627027 233.316359 
L 190.248649 233.316359 
L 189.87027 233.316359 
L 189.491892 233.316359 
L 189.113514 233.316359 
L 188.735135 264.397774 
L 188.356757 264.397774 
L 187.978378 264.397774 
L 187.6 264.397774 
L 187.221622 264.397774 
L 186.843243 264.397774 
L 186.464865 264.397774 
L 186.086486 264.397774 
L 185.708108 264.397774 
L 185.32973 264.397774 
L 184.951351 264.397774 
L 184.572973 264.397774 
L 184.194595 264.397774 
L 183.816216 264.397774 
L 183.437838 264.397774 
L 183.059459 264.397774 
L 182.681081 264.397774 
L 182.302703 264.397774 
L 181.924324 264.397774 
L 181.545946 264.397774 
L 181.167568 264.397774 
L 180.789189 264.397774 
L 180.410811 264.397774 
L 180.032432 264.397774 
L 179.654054 264.397774 
L 179.275676 264.397774 
L 178.897297 264.397774 
L 178.518919 264.397774 
L 178.140541 264.397774 
L 177.762162 264.397774 
L 177.383784 264.397774 
L 177.005405 264.397774 
L 176.627027 264.397774 
L 176.248649 264.397774 
L 175.87027 264.397774 
L 175.491892 264.397774 
L 175.113514 264.397774 
L 174.735135 264.397774 
L 174.356757 264.397774 
L 173.978378 264.397774 
L 173.6 264.397774 
L 173.221622 264.397774 
L 172.843243 264.397774 
L 172.464865 264.397774 
L 172.086486 264.397774 
L 171.708108 264.397774 
L 171.32973 264.397774 
L 170.951351 264.397774 
L 170.572973 264.397774 
L 170.194595 264.397774 
L 169.816216 264.397774 
L 169.437838 264.397774 
L 169.059459 264.397774 
L 168.681081 264.397774 
L 168.302703 264.397774 
L 167.924324 264.397774 
L 167.545946 264.397774 
L 167.167568 264.397774 
L 166.789189 264.397774 
L 166.410811 264.397774 
L 166.032432 264.397774 
L 165.654054 264.397774 
L 165.275676 264.397774 
L 164.897297 264.397774 
L 164.518919 264.397774 
L 164.140541 264.397774 
L 163.762162 264.397774 
L 163.383784 264.397774 
L 163.005405 264.397774 
L 162.627027 264.397774 
L 162.248649 264.397774 
L 161.87027 264.397774 
L 161.491892 264.397774 
L 161.113514 264.397774 
L 160.735135 264.397774 
L 160.356757 264.397774 
L 159.978378 264.397774 
L 159.6 264.397774 
L 159.221622 264.397774 
L 158.843243 264.397774 
L 158.464865 264.397774 
L 158.086486 264.397774 
L 157.708108 264.397774 
L 157.32973 264.397774 
L 156.951351 264.397774 
L 156.572973 264.397774 
L 156.194595 264.397774 
L 155.816216 264.397774 
L 155.437838 264.397774 
L 155.059459 264.397774 
L 154.681081 264.397774 
L 154.302703 264.397774 
L 153.924324 264.397774 
L 153.545946 264.397774 
L 153.167568 264.397774 
L 152.789189 264.397774 
L 152.410811 264.397774 
L 152.032432 264.397774 
L 151.654054 264.397774 
L 151.275676 264.397774 
L 150.897297 264.736841 
L 150.518919 264.736841 
L 150.140541 264.736841 
L 149.762162 264.736841 
L 149.383784 264.736841 
L 149.005405 264.736841 
L 148.627027 264.736841 
L 148.248649 264.736841 
L 147.87027 264.736841 
L 147.491892 264.736841 
L 147.113514 264.736841 
L 146.735135 264.736841 
L 146.356757 264.736841 
L 145.978378 264.736841 
L 145.6 264.736841 
L 145.221622 264.736841 
L 144.843243 264.736841 
L 144.464865 264.736841 
L 144.086486 264.736841 
L 143.708108 264.736841 
L 143.32973 264.736841 
L 142.951351 264.736841 
L 142.572973 264.736841 
L 142.194595 264.736841 
L 141.816216 264.736841 
L 141.437838 264.736841 
L 141.059459 264.736841 
L 140.681081 264.736841 
L 140.302703 264.736841 
L 139.924324 264.736841 
L 139.545946 264.736841 
L 139.167568 264.736841 
L 138.789189 264.736841 
L 138.410811 264.736841 
L 138.032432 264.736841 
L 137.654054 264.736841 
L 137.275676 264.736841 
L 136.897297 264.736841 
L 136.518919 264.736841 
L 136.140541 264.736841 
L 135.762162 264.736841 
L 135.383784 264.736841 
L 135.005405 264.736841 
L 134.627027 264.736841 
L 134.248649 264.736841 
L 133.87027 264.736841 
L 133.491892 264.736841 
L 133.113514 264.736841 
L 132.735135 264.736841 
L 132.356757 264.736841 
L 131.978378 264.736841 
L 131.6 264.736841 
L 131.221622 264.736841 
L 130.843243 264.736841 
L 130.464865 264.736841 
L 130.086486 264.736841 
L 129.708108 264.736841 
L 129.32973 264.736841 
L 128.951351 264.736841 
L 128.572973 264.736841 
L 128.194595 264.736841 
L 127.816216 264.736841 
L 127.437838 264.736841 
L 127.059459 264.736841 
L 126.681081 264.736841 
L 126.302703 264.736841 
L 125.924324 264.736841 
L 125.545946 264.736841 
L 125.167568 264.736841 
L 124.789189 264.736841 
L 124.410811 264.736841 
L 124.032432 264.736841 
L 123.654054 264.736841 
L 123.275676 264.736841 
L 122.897297 264.736841 
L 122.518919 264.736841 
L 122.140541 264.736841 
L 121.762162 264.736841 
L 121.383784 264.736841 
L 121.005405 264.736841 
L 120.627027 264.736841 
L 120.248649 264.736841 
L 119.87027 264.736841 
L 119.491892 264.736841 
L 119.113514 264.736841 
L 118.735135 264.736841 
L 118.356757 264.736841 
L 117.978378 264.736841 
L 117.6 264.736841 
L 117.221622 264.736841 
L 116.843243 264.736841 
L 116.464865 264.736841 
L 116.086486 264.736841 
L 115.708108 264.736841 
L 115.32973 264.736841 
L 114.951351 264.736841 
L 114.572973 264.736841 
L 114.194595 264.736841 
L 113.816216 264.736841 
L 113.437838 264.736841 
L 113.059459 264.736841 
L 112.681081 264.736841 
L 112.302703 264.736841 
L 111.924324 264.736841 
L 111.545946 264.736841 
L 111.167568 264.736841 
L 110.789189 264.736841 
L 110.410811 264.736841 
L 110.032432 264.736841 
L 109.654054 264.736841 
L 109.275676 264.736841 
L 108.897297 264.736841 
L 108.518919 264.736841 
L 108.140541 264.736841 
L 107.762162 264.736841 
L 107.383784 264.736841 
L 107.005405 264.736841 
L 106.627027 264.736841 
L 106.248649 264.736841 
L 105.87027 264.736841 
L 105.491892 264.736841 
L 105.113514 264.736841 
L 104.735135 264.736841 
L 104.356757 264.736841 
L 103.978378 264.736841 
L 103.6 264.736841 
L 103.221622 264.736841 
L 102.843243 264.736841 
L 102.464865 264.736841 
L 102.086486 264.736841 
L 101.708108 264.736841 
L 101.32973 264.736841 
L 100.951351 264.736841 
L 100.572973 264.736841 
L 100.194595 264.736841 
L 99.816216 264.736841 
L 99.437838 264.736841 
L 99.059459 264.736841 
L 98.681081 264.736841 
L 98.302703 264.736841 
L 97.924324 264.736841 
L 97.545946 264.736841 
L 97.167568 264.736841 
L 96.789189 264.736841 
L 96.410811 264.736841 
L 96.032432 264.736841 
L 95.654054 264.736841 
L 95.275676 264.736841 
L 94.897297 264.736841 
L 94.518919 264.736841 
L 94.140541 264.736841 
L 93.762162 264.736841 
L 93.383784 264.736841 
L 93.005405 264.736841 
L 92.627027 264.736841 
L 92.248649 264.736841 
L 91.87027 264.736841 
L 91.491892 264.736841 
L 91.113514 264.736841 
L 90.735135 264.736841 
L 90.356757 264.736841 
L 89.978378 264.736841 
L 89.6 264.736841 
L 89.221622 264.736841 
L 88.843243 264.736841 
L 88.464865 264.736841 
L 88.086486 264.736841 
L 87.708108 264.736841 
L 87.32973 264.736841 
L 86.951351 264.736841 
L 86.572973 264.736841 
L 86.194595 264.736841 
L 85.816216 264.736841 
L 85.437838 264.736841 
L 85.059459 264.736841 
L 84.681081 264.736841 
L 84.302703 264.736841 
L 83.924324 264.736841 
L 83.545946 264.736841 
L 83.167568 264.736841 
L 82.789189 264.736841 
L 82.410811 264.736841 
L 82.032432 264.736841 
L 81.654054 264.736841 
L 81.275676 264.736841 
L 80.897297 264.736841 
L 80.518919 264.736841 
L 80.140541 264.736841 
L 79.762162 264.736841 
L 79.383784 264.736841 
L 79.005405 264.736841 
L 78.627027 264.736841 
L 78.248649 264.736841 
L 77.87027 264.736841 
L 77.491892 264.736841 
L 77.113514 264.736841 
L 76.735135 264.736841 
L 76.356757 264.736841 
L 75.978378 264.736841 
L 75.6 264.736841 
z
" style="fill:#1f77b4;opacity:0.2;"/>
   </g>
   <g id="matplotlib.axis_1">
    <g id="xtick_1">
     <g id="line2d_1">
      <defs>
       <path d="M 0 0 
L 0 3.5 
" id="mf6f632d51e" style="stroke:#000000;stroke-width:0.8;"/>
      </defs>
      <g>
       <use style="stroke:#000000;stroke-width:0.8;" x="75.6" xlink:href="#mf6f632d51e" y="388.8"/>
      </g>
     </g>
     <g id="text_1">
      <!-- 0 -->
      <g transform="translate(69.87375 409.477188)scale(0.18 -0.18)">
       <defs>
        <path d="M 31.78125 66.40625 
Q 24.171875 66.40625 20.328125 58.90625 
Q 16.5 51.421875 16.5 36.375 
Q 16.5 21.390625 20.328125 13.890625 
Q 24.171875 6.390625 31.78125 6.390625 
Q 39.453125 6.390625 43.28125 13.890625 
Q 47.125 21.390625 47.125 36.375 
Q 47.125 51.421875 43.28125 58.90625 
Q 39.453125 66.40625 31.78125 66.40625 
z
M 31.78125 74.21875 
Q 44.046875 74.21875 50.515625 64.515625 
Q 56.984375 54.828125 56.984375 36.375 
Q 56.984375 17.96875 50.515625 8.265625 
Q 44.046875 -1.421875 31.78125 -1.421875 
Q 19.53125 -1.421875 13.0625 8.265625 
Q 6.59375 17.96875 6.59375 36.375 
Q 6.59375 54.828125 13.0625 64.515625 
Q 19.53125 74.21875 31.78125 74.21875 
z
" id="DejaVuSans-48"/>
       </defs>
       <use xlink:href="#DejaVuSans-48"/>
      </g>
     </g>
    </g>
    <g id="xtick_2">
     <g id="line2d_2">
      <g>
       <use style="stroke:#000000;stroke-width:0.8;" x="151.2" xlink:href="#mf6f632d51e" y="388.8"/>
      </g>
     </g>
     <g id="text_2">
      <!-- 2 -->
      <g transform="translate(145.47375 409.477188)scale(0.18 -0.18)">
       <defs>
        <path d="M 19.1875 8.296875 
L 53.609375 8.296875 
L 53.609375 0 
L 7.328125 0 
L 7.328125 8.296875 
Q 12.9375 14.109375 22.625 23.890625 
Q 32.328125 33.6875 34.8125 36.53125 
Q 39.546875 41.84375 41.421875 45.53125 
Q 43.3125 49.21875 43.3125 52.78125 
Q 43.3125 58.59375 39.234375 62.25 
Q 35.15625 65.921875 28.609375 65.921875 
Q 23.96875 65.921875 18.8125 64.3125 
Q 13.671875 62.703125 7.8125 59.421875 
L 7.8125 69.390625 
Q 13.765625 71.78125 18.9375 73 
Q 24.125 74.21875 28.421875 74.21875 
Q 39.75 74.21875 46.484375 68.546875 
Q 53.21875 62.890625 53.21875 53.421875 
Q 53.21875 48.921875 51.53125 44.890625 
Q 49.859375 40.875 45.40625 35.40625 
Q 44.1875 33.984375 37.640625 27.21875 
Q 31.109375 20.453125 19.1875 8.296875 
z
" id="DejaVuSans-50"/>
       </defs>
       <use xlink:href="#DejaVuSans-50"/>
      </g>
     </g>
    </g>
    <g id="xtick_3">
     <g id="line2d_3">
      <g>
       <use style="stroke:#000000;stroke-width:0.8;" x="226.8" xlink:href="#mf6f632d51e" y="388.8"/>
      </g>
     </g>
     <g id="text_3">
      <!-- 4 -->
      <g transform="translate(221.07375 409.477188)scale(0.18 -0.18)">
       <defs>
        <path d="M 37.796875 64.3125 
L 12.890625 25.390625 
L 37.796875 25.390625 
z
M 35.203125 72.90625 
L 47.609375 72.90625 
L 47.609375 25.390625 
L 58.015625 25.390625 
L 58.015625 17.1875 
L 47.609375 17.1875 
L 47.609375 0 
L 37.796875 0 
L 37.796875 17.1875 
L 4.890625 17.1875 
L 4.890625 26.703125 
z
" id="DejaVuSans-52"/>
       </defs>
       <use xlink:href="#DejaVuSans-52"/>
      </g>
     </g>
    </g>
    <g id="xtick_4">
     <g id="line2d_4">
      <g>
       <use style="stroke:#000000;stroke-width:0.8;" x="302.4" xlink:href="#mf6f632d51e" y="388.8"/>
      </g>
     </g>
     <g id="text_4">
      <!-- 6 -->
      <g transform="translate(296.67375 409.477188)scale(0.18 -0.18)">
       <defs>
        <path d="M 33.015625 40.375 
Q 26.375 40.375 22.484375 35.828125 
Q 18.609375 31.296875 18.609375 23.390625 
Q 18.609375 15.53125 22.484375 10.953125 
Q 26.375 6.390625 33.015625 6.390625 
Q 39.65625 6.390625 43.53125 10.953125 
Q 47.40625 15.53125 47.40625 23.390625 
Q 47.40625 31.296875 43.53125 35.828125 
Q 39.65625 40.375 33.015625 40.375 
z
M 52.59375 71.296875 
L 52.59375 62.3125 
Q 48.875 64.0625 45.09375 64.984375 
Q 41.3125 65.921875 37.59375 65.921875 
Q 27.828125 65.921875 22.671875 59.328125 
Q 17.53125 52.734375 16.796875 39.40625 
Q 19.671875 43.65625 24.015625 45.921875 
Q 28.375 48.1875 33.59375 48.1875 
Q 44.578125 48.1875 50.953125 41.515625 
Q 57.328125 34.859375 57.328125 23.390625 
Q 57.328125 12.15625 50.6875 5.359375 
Q 44.046875 -1.421875 33.015625 -1.421875 
Q 20.359375 -1.421875 13.671875 8.265625 
Q 6.984375 17.96875 6.984375 36.375 
Q 6.984375 53.65625 15.1875 63.9375 
Q 23.390625 74.21875 37.203125 74.21875 
Q 40.921875 74.21875 44.703125 73.484375 
Q 48.484375 72.75 52.59375 71.296875 
z
" id="DejaVuSans-54"/>
       </defs>
       <use xlink:href="#DejaVuSans-54"/>
      </g>
     </g>
    </g>
    <g id="xtick_5">
     <g id="line2d_5">
      <g>
       <use style="stroke:#000000;stroke-width:0.8;" x="378" xlink:href="#mf6f632d51e" y="388.8"/>
      </g>
     </g>
     <g id="text_5">
      <!-- 8 -->
      <g transform="translate(372.27375 409.477188)scale(0.18 -0.18)">
       <defs>
        <path d="M 31.78125 34.625 
Q 24.75 34.625 20.71875 30.859375 
Q 16.703125 27.09375 16.703125 20.515625 
Q 16.703125 13.921875 20.71875 10.15625 
Q 24.75 6.390625 31.78125 6.390625 
Q 38.8125 6.390625 42.859375 10.171875 
Q 46.921875 13.96875 46.921875 20.515625 
Q 46.921875 27.09375 42.890625 30.859375 
Q 38.875 34.625 31.78125 34.625 
z
M 21.921875 38.8125 
Q 15.578125 40.375 12.03125 44.71875 
Q 8.5 49.078125 8.5 55.328125 
Q 8.5 64.0625 14.71875 69.140625 
Q 20.953125 74.21875 31.78125 74.21875 
Q 42.671875 74.21875 48.875 69.140625 
Q 55.078125 64.0625 55.078125 55.328125 
Q 55.078125 49.078125 51.53125 44.71875 
Q 48 40.375 41.703125 38.8125 
Q 48.828125 37.15625 52.796875 32.3125 
Q 56.78125 27.484375 56.78125 20.515625 
Q 56.78125 9.90625 50.3125 4.234375 
Q 43.84375 -1.421875 31.78125 -1.421875 
Q 19.734375 -1.421875 13.25 4.234375 
Q 6.78125 9.90625 6.78125 20.515625 
Q 6.78125 27.484375 10.78125 32.3125 
Q 14.796875 37.15625 21.921875 38.8125 
z
M 18.3125 54.390625 
Q 18.3125 48.734375 21.84375 45.5625 
Q 25.390625 42.390625 31.78125 42.390625 
Q 38.140625 42.390625 41.71875 45.5625 
Q 45.3125 48.734375 45.3125 54.390625 
Q 45.3125 60.0625 41.71875 63.234375 
Q 38.140625 66.40625 31.78125 66.40625 
Q 25.390625 66.40625 21.84375 63.234375 
Q 18.3125 60.0625 18.3125 54.390625 
z
" id="DejaVuSans-56"/>
       </defs>
       <use xlink:href="#DejaVuSans-56"/>
      </g>
     </g>
    </g>
    <g id="xtick_6">
     <g id="line2d_6">
      <g>
       <use style="stroke:#000000;stroke-width:0.8;" x="453.6" xlink:href="#mf6f632d51e" y="388.8"/>
      </g>
     </g>
     <g id="text_6">
      <!-- 10 -->
      <g transform="translate(442.1475 409.477188)scale(0.18 -0.18)">
       <defs>
        <path d="M 12.40625 8.296875 
L 28.515625 8.296875 
L 28.515625 63.921875 
L 10.984375 60.40625 
L 10.984375 69.390625 
L 28.421875 72.90625 
L 38.28125 72.90625 
L 38.28125 8.296875 
L 54.390625 8.296875 
L 54.390625 0 
L 12.40625 0 
z
" id="DejaVuSans-49"/>
       </defs>
       <use xlink:href="#DejaVuSans-49"/>
       <use x="63.623047" xlink:href="#DejaVuSans-48"/>
      </g>
     </g>
    </g>
    <g id="text_7">
     <!-- $x$ -->
     <g transform="translate(258.6 427.4175)scale(0.2 -0.2)">
      <defs>
       <path d="M 60.015625 54.6875 
L 34.90625 27.875 
L 50.296875 0 
L 39.984375 0 
L 28.421875 21.6875 
L 8.296875 0 
L -2.59375 0 
L 24.3125 28.8125 
L 10.015625 54.6875 
L 20.3125 54.6875 
L 30.8125 34.90625 
L 49.125 54.6875 
z
" id="DejaVuSans-Oblique-120"/>
      </defs>
      <use transform="translate(0 0.3125)" xlink:href="#DejaVuSans-Oblique-120"/>
     </g>
    </g>
   </g>
   <g id="matplotlib.axis_2">
    <g id="ytick_1">
     <g id="line2d_7">
      <defs>
       <path d="M 0 0 
L -3.5 0 
" id="meab9ed4dc5" style="stroke:#000000;stroke-width:0.8;"/>
      </defs>
      <g>
       <use style="stroke:#000000;stroke-width:0.8;" x="75.6" xlink:href="#meab9ed4dc5" y="388.8"/>
      </g>
     </g>
     <g id="text_8">
      <!-- 10 -->
      <g transform="translate(30.611562 395.638594)scale(0.18 -0.18)">
       <defs>
        <path d="M 10.59375 35.5 
L 73.1875 35.5 
L 73.1875 27.203125 
L 10.59375 27.203125 
z
" id="DejaVuSans-8722"/>
       </defs>
       <use xlink:href="#DejaVuSans-8722"/>
       <use x="83.789062" xlink:href="#DejaVuSans-49"/>
       <use x="147.412109" xlink:href="#DejaVuSans-48"/>
      </g>
     </g>
    </g>
    <g id="ytick_2">
     <g id="line2d_8">
      <g>
       <use style="stroke:#000000;stroke-width:0.8;" x="75.6" xlink:href="#meab9ed4dc5" y="332.64"/>
      </g>
     </g>
     <g id="text_9">
      <!-- 5 -->
      <g transform="translate(42.064062 339.478594)scale(0.18 -0.18)">
       <defs>
        <path d="M 10.796875 72.90625 
L 49.515625 72.90625 
L 49.515625 64.59375 
L 19.828125 64.59375 
L 19.828125 46.734375 
Q 21.96875 47.46875 24.109375 47.828125 
Q 26.265625 48.1875 28.421875 48.1875 
Q 40.625 48.1875 47.75 41.5 
Q 54.890625 34.8125 54.890625 23.390625 
Q 54.890625 11.625 47.5625 5.09375 
Q 40.234375 -1.421875 26.90625 -1.421875 
Q 22.3125 -1.421875 17.546875 -0.640625 
Q 12.796875 0.140625 7.71875 1.703125 
L 7.71875 11.625 
Q 12.109375 9.234375 16.796875 8.0625 
Q 21.484375 6.890625 26.703125 6.890625 
Q 35.15625 6.890625 40.078125 11.328125 
Q 45.015625 15.765625 45.015625 23.390625 
Q 45.015625 31 40.078125 35.4375 
Q 35.15625 39.890625 26.703125 39.890625 
Q 22.75 39.890625 18.8125 39.015625 
Q 14.890625 38.140625 10.796875 36.28125 
z
" id="DejaVuSans-53"/>
       </defs>
       <use xlink:href="#DejaVuSans-8722"/>
       <use x="83.789062" xlink:href="#DejaVuSans-53"/>
      </g>
     </g>
    </g>
    <g id="ytick_3">
     <g id="line2d_9">
      <g>
       <use style="stroke:#000000;stroke-width:0.8;" x="75.6" xlink:href="#meab9ed4dc5" y="276.48"/>
      </g>
     </g>
     <g id="text_10">
      <!-- 0 -->
      <g transform="translate(57.1475 283.318594)scale(0.18 -0.18)">
       <use xlink:href="#DejaVuSans-48"/>
      </g>
     </g>
    </g>
    <g id="ytick_4">
     <g id="line2d_10">
      <g>
       <use style="stroke:#000000;stroke-width:0.8;" x="75.6" xlink:href="#meab9ed4dc5" y="220.32"/>
      </g>
     </g>
     <g id="text_11">
      <!-- 5 -->
      <g transform="translate(57.1475 227.158594)scale(0.18 -0.18)">
       <use xlink:href="#DejaVuSans-53"/>
      </g>
     </g>
    </g>
    <g id="ytick_5">
     <g id="line2d_11">
      <g>
       <use style="stroke:#000000;stroke-width:0.8;" x="75.6" xlink:href="#meab9ed4dc5" y="164.16"/>
      </g>
     </g>
     <g id="text_12">
      <!-- 10 -->
      <g transform="translate(45.695 170.998594)scale(0.18 -0.18)">
       <use xlink:href="#DejaVuSans-49"/>
       <use x="63.623047" xlink:href="#DejaVuSans-48"/>
      </g>
     </g>
    </g>
    <g id="ytick_6">
     <g id="line2d_12">
      <g>
       <use style="stroke:#000000;stroke-width:0.8;" x="75.6" xlink:href="#meab9ed4dc5" y="108"/>
      </g>
     </g>
     <g id="text_13">
      <!-- 15 -->
      <g transform="translate(45.695 114.838594)scale(0.18 -0.18)">
       <use xlink:href="#DejaVuSans-49"/>
       <use x="63.623047" xlink:href="#DejaVuSans-53"/>
      </g>
     </g>
    </g>
    <g id="ytick_7">
     <g id="line2d_13">
      <g>
       <use style="stroke:#000000;stroke-width:0.8;" x="75.6" xlink:href="#meab9ed4dc5" y="51.84"/>
      </g>
     </g>
     <g id="text_14">
      <!-- 20 -->
      <g transform="translate(45.695 58.678594)scale(0.18 -0.18)">
       <use xlink:href="#DejaVuSans-50"/>
       <use x="63.623047" xlink:href="#DejaVuSans-48"/>
      </g>
     </g>
    </g>
    <g id="text_15">
     <!-- $f(x)$ -->
     <g transform="translate(28.452187 237.62)rotate(-90)scale(0.2 -0.2)">
      <defs>
       <path d="M 47.796875 75.984375 
L 46.390625 68.5 
L 37.796875 68.5 
Q 32.90625 68.5 30.6875 66.578125 
Q 28.46875 64.65625 27.390625 59.515625 
L 26.421875 54.6875 
L 41.21875 54.6875 
L 39.890625 47.703125 
L 25.09375 47.703125 
L 15.828125 0 
L 6.78125 0 
L 16.109375 47.703125 
L 7.515625 47.703125 
L 8.796875 54.6875 
L 17.390625 54.6875 
L 18.109375 58.5 
Q 19.96875 68.171875 24.625 72.078125 
Q 29.296875 75.984375 39.3125 75.984375 
z
" id="DejaVuSans-Oblique-102"/>
       <path d="M 31 75.875 
Q 24.46875 64.65625 21.28125 53.65625 
Q 18.109375 42.671875 18.109375 31.390625 
Q 18.109375 20.125 21.3125 9.0625 
Q 24.515625 -2 31 -13.1875 
L 23.1875 -13.1875 
Q 15.875 -1.703125 12.234375 9.375 
Q 8.59375 20.453125 8.59375 31.390625 
Q 8.59375 42.28125 12.203125 53.3125 
Q 15.828125 64.359375 23.1875 75.875 
z
" id="DejaVuSans-40"/>
       <path d="M 8.015625 75.875 
L 15.828125 75.875 
Q 23.140625 64.359375 26.78125 53.3125 
Q 30.421875 42.28125 30.421875 31.390625 
Q 30.421875 20.453125 26.78125 9.375 
Q 23.140625 -1.703125 15.828125 -13.1875 
L 8.015625 -13.1875 
Q 14.5 -2 17.703125 9.0625 
Q 20.90625 20.125 20.90625 31.390625 
Q 20.90625 42.671875 17.703125 53.65625 
Q 14.5 64.65625 8.015625 75.875 
z
" id="DejaVuSans-41"/>
      </defs>
      <use transform="translate(0 0.015625)" xlink:href="#DejaVuSans-Oblique-102"/>
      <use transform="translate(35.205078 0.015625)" xlink:href="#DejaVuSans-40"/>
      <use transform="translate(74.21875 0.015625)" xlink:href="#DejaVuSans-Oblique-120"/>
      <use transform="translate(133.398438 0.015625)" xlink:href="#DejaVuSans-41"/>
     </g>
    </g>
   </g>
   <g id="line2d_14">
    <path clip-path="url(#pb597ca8b94)" d="M 75.6 276.48 
L 79.383784 276.367643 
L 83.167568 276.032821 
L 86.951351 275.482251 
L 91.113514 274.640784 
L 95.275676 273.572356 
L 99.816216 272.179079 
L 105.113514 270.307564 
L 111.545946 267.785939 
L 128.951351 260.827962 
L 133.87027 259.172814 
L 138.032432 257.989256 
L 141.816216 257.125585 
L 145.6 256.496125 
L 149.005405 256.153226 
L 152.410811 256.041228 
L 155.437838 256.148435 
L 158.464865 256.460102 
L 161.491892 256.983862 
L 164.518919 257.725448 
L 167.545946 258.688603 
L 170.572973 259.874999 
L 173.6 261.284179 
L 177.005405 263.132442 
L 180.410811 265.252201 
L 183.816216 267.632858 
L 187.6 270.566768 
L 191.383784 273.781019 
L 195.545946 277.605377 
L 200.464865 282.453786 
L 206.140541 288.381695 
L 215.6 298.651702 
L 223.545946 307.156034 
L 228.843243 312.498839 
L 233.005405 316.39752 
L 236.789189 319.647001 
L 240.194595 322.286716 
L 243.221622 324.375888 
L 246.248649 326.197563 
L 248.897297 327.554075 
L 251.545946 328.673972 
L 254.194595 329.54407 
L 256.843243 330.152381 
L 259.113514 330.457283 
L 261.383784 330.556038 
L 263.654054 330.443498 
L 265.924324 330.115337 
L 268.194595 329.568083 
L 270.464865 328.799144 
L 272.735135 327.806839 
L 275.005405 326.590417 
L 277.275676 325.150074 
L 279.924324 323.188269 
L 282.572973 320.926822 
L 285.221622 318.371072 
L 287.87027 315.528171 
L 290.897297 311.939109 
L 293.924324 308.003 
L 297.32973 303.184106 
L 300.735135 297.982172 
L 304.518919 291.797206 
L 308.681081 284.566072 
L 313.6 275.552817 
L 320.032432 263.242446 
L 335.924324 232.566902 
L 340.843243 223.695926 
L 345.005405 216.659755 
L 348.410811 211.302786 
L 351.816216 206.36619 
L 354.843243 202.374448 
L 357.491892 199.21703 
L 360.140541 196.396241 
L 362.410811 194.262362 
L 364.681081 192.40365 
L 366.951351 190.831537 
L 369.221622 189.55648 
L 371.113514 188.727684 
L 373.005405 188.116628 
L 374.897297 187.727658 
L 376.789189 187.564562 
L 378.681081 187.63055 
L 380.572973 187.928245 
L 382.464865 188.459668 
L 384.356757 189.226222 
L 386.248649 190.228684 
L 388.140541 191.4672 
L 390.032432 192.941271 
L 392.302703 195.019433 
L 394.572973 197.4319 
L 396.843243 200.174107 
L 399.113514 203.240138 
L 401.762162 207.216696 
L 404.410811 211.610268 
L 407.059459 216.404617 
L 410.086486 222.350642 
L 413.113514 228.764293 
L 416.518919 236.49461 
L 420.302703 245.657826 
L 424.464865 256.337835 
L 429.383784 269.607818 
L 435.816216 287.671661 
L 450.951351 330.455315 
L 453.6 337.584451 
L 453.6 337.584451 
" style="fill:none;stroke:#000000;stroke-dasharray:12,8;stroke-dashoffset:0;stroke-width:4;"/>
   </g>
   <g id="line2d_15">
    <path clip-path="url(#pb597ca8b94)" d="M 75.6 267.49822 
L 150.897297 267.49822 
L 151.275676 268.907087 
L 188.735135 268.907087 
L 189.113514 287.898464 
L 207.654054 287.898464 
L 208.032432 296.382995 
L 226.572973 296.382995 
L 226.951351 313.965505 
L 245.491892 313.965505 
L 245.87027 316.32406 
L 283.32973 316.32406 
L 283.708108 298.812651 
L 321.167568 298.812651 
L 321.545946 235.197656 
L 340.086486 235.197656 
L 340.464865 213.651628 
L 359.005405 213.651628 
L 359.383784 195.029197 
L 453.6 195.029197 
L 453.6 195.029197 
" style="fill:none;stroke:#1f77b4;stroke-linecap:square;stroke-width:6;"/>
   </g>
   <g id="patch_4">
    <path d="M 75.6 388.8 
L 75.6 51.84 
" style="fill:none;stroke:#000000;stroke-linecap:square;stroke-linejoin:miter;stroke-width:0.8;"/>
   </g>
   <g id="patch_5">
    <path d="M 453.6 388.8 
L 453.6 51.84 
" style="fill:none;stroke:#000000;stroke-linecap:square;stroke-linejoin:miter;stroke-width:0.8;"/>
   </g>
   <g id="patch_6">
    <path d="M 75.6 388.8 
L 453.6 388.8 
" style="fill:none;stroke:#000000;stroke-linecap:square;stroke-linejoin:miter;stroke-width:0.8;"/>
   </g>
   <g id="patch_7">
    <path d="M 75.6 51.84 
L 453.6 51.84 
" style="fill:none;stroke:#000000;stroke-linecap:square;stroke-linejoin:miter;stroke-width:0.8;"/>
   </g>
   <g id="PathCollection_1">
    <defs>
     <path d="M 0 6.123724 
C 1.624031 6.123724 3.181764 5.47849 4.330127 4.330127 
C 5.47849 3.181764 6.123724 1.624031 6.123724 0 
C 6.123724 -1.624031 5.47849 -3.181764 4.330127 -4.330127 
C 3.181764 -5.47849 1.624031 -6.123724 0 -6.123724 
C -1.624031 -6.123724 -3.181764 -5.47849 -4.330127 -4.330127 
C -5.47849 -3.181764 -6.123724 -1.624031 -6.123724 0 
C -6.123724 1.624031 -5.47849 3.181764 -4.330127 4.330127 
C -3.181764 5.47849 -1.624031 6.123724 0 6.123724 
z
" id="mbc66f69eb5" style="stroke:#d62728;"/>
    </defs>
    <g clip-path="url(#pb597ca8b94)">
     <use style="fill:#d62728;stroke:#d62728;" x="113.4" xlink:href="#mbc66f69eb5" y="267.028598"/>
     <use style="fill:#d62728;stroke:#d62728;" x="189" xlink:href="#mbc66f69eb5" y="271.72482"/>
     <use style="fill:#d62728;stroke:#d62728;" x="264.6" xlink:href="#mbc66f69eb5" y="330.333187"/>
     <use style="fill:#d62728;stroke:#d62728;" x="302.4" xlink:href="#mbc66f69eb5" y="295.310369"/>
     <use style="fill:#d62728;stroke:#d62728;" x="340.2" xlink:href="#mbc66f69eb5" y="224.825086"/>
     <use style="fill:#d62728;stroke:#d62728;" x="378" xlink:href="#mbc66f69eb5" y="187.580225"/>
    </g>
   </g>
   <g id="legend_1">
    <g id="patch_8">
     <path d="M 88.2 171.9225 
L 264.788437 171.9225 
Q 268.388438 171.9225 268.388438 168.3225 
L 268.388438 64.44 
Q 268.388438 60.84 264.788437 60.84 
L 88.2 60.84 
Q 84.6 60.84 84.6 64.44 
L 84.6 168.3225 
Q 84.6 171.9225 88.2 171.9225 
z
" style="fill:#ffffff;opacity:0.8;stroke:#cccccc;stroke-linejoin:miter;"/>
    </g>
    <g id="line2d_16">
     <path d="M 91.8 75.417187 
L 127.8 75.417187 
" style="fill:none;stroke:#000000;stroke-dasharray:12,8;stroke-dashoffset:0;stroke-width:4;"/>
    </g>
    <g id="line2d_17"/>
    <g id="text_16">
     <!-- $f(x) = x\,\sin(x)$ -->
     <g transform="translate(142.2 81.717187)scale(0.18 -0.18)">
      <defs>
       <path d="M 10.59375 45.40625 
L 73.1875 45.40625 
L 73.1875 37.203125 
L 10.59375 37.203125 
z
M 10.59375 25.484375 
L 73.1875 25.484375 
L 73.1875 17.1875 
L 10.59375 17.1875 
z
" id="DejaVuSans-61"/>
       <path d="M 44.28125 53.078125 
L 44.28125 44.578125 
Q 40.484375 46.53125 36.375 47.5 
Q 32.28125 48.484375 27.875 48.484375 
Q 21.1875 48.484375 17.84375 46.4375 
Q 14.5 44.390625 14.5 40.28125 
Q 14.5 37.15625 16.890625 35.375 
Q 19.28125 33.59375 26.515625 31.984375 
L 29.59375 31.296875 
Q 39.15625 29.25 43.1875 25.515625 
Q 47.21875 21.78125 47.21875 15.09375 
Q 47.21875 7.46875 41.1875 3.015625 
Q 35.15625 -1.421875 24.609375 -1.421875 
Q 20.21875 -1.421875 15.453125 -0.5625 
Q 10.6875 0.296875 5.421875 2 
L 5.421875 11.28125 
Q 10.40625 8.6875 15.234375 7.390625 
Q 20.0625 6.109375 24.8125 6.109375 
Q 31.15625 6.109375 34.5625 8.28125 
Q 37.984375 10.453125 37.984375 14.40625 
Q 37.984375 18.0625 35.515625 20.015625 
Q 33.0625 21.96875 24.703125 23.78125 
L 21.578125 24.515625 
Q 13.234375 26.265625 9.515625 29.90625 
Q 5.8125 33.546875 5.8125 39.890625 
Q 5.8125 47.609375 11.28125 51.796875 
Q 16.75 56 26.8125 56 
Q 31.78125 56 36.171875 55.265625 
Q 40.578125 54.546875 44.28125 53.078125 
z
" id="DejaVuSans-115"/>
       <path d="M 9.421875 54.6875 
L 18.40625 54.6875 
L 18.40625 0 
L 9.421875 0 
z
M 9.421875 75.984375 
L 18.40625 75.984375 
L 18.40625 64.59375 
L 9.421875 64.59375 
z
" id="DejaVuSans-105"/>
       <path d="M 54.890625 33.015625 
L 54.890625 0 
L 45.90625 0 
L 45.90625 32.71875 
Q 45.90625 40.484375 42.875 44.328125 
Q 39.84375 48.1875 33.796875 48.1875 
Q 26.515625 48.1875 22.3125 43.546875 
Q 18.109375 38.921875 18.109375 30.90625 
L 18.109375 0 
L 9.078125 0 
L 9.078125 54.6875 
L 18.109375 54.6875 
L 18.109375 46.1875 
Q 21.34375 51.125 25.703125 53.5625 
Q 30.078125 56 35.796875 56 
Q 45.21875 56 50.046875 50.171875 
Q 54.890625 44.34375 54.890625 33.015625 
z
" id="DejaVuSans-110"/>
      </defs>
      <use transform="translate(0 0.015625)" xlink:href="#DejaVuSans-Oblique-102"/>
      <use transform="translate(35.205078 0.015625)" xlink:href="#DejaVuSans-40"/>
      <use transform="translate(74.21875 0.015625)" xlink:href="#DejaVuSans-Oblique-120"/>
      <use transform="translate(133.398438 0.015625)" xlink:href="#DejaVuSans-41"/>
      <use transform="translate(191.894531 0.015625)" xlink:href="#DejaVuSans-61"/>
      <use transform="translate(295.166016 0.015625)" xlink:href="#DejaVuSans-Oblique-120"/>
      <use transform="translate(370.581379 0.015625)" xlink:href="#DejaVuSans-115"/>
      <use transform="translate(422.680989 0.015625)" xlink:href="#DejaVuSans-105"/>
      <use transform="translate(450.464192 0.015625)" xlink:href="#DejaVuSans-110"/>
      <use transform="translate(513.843098 0.015625)" xlink:href="#DejaVuSans-40"/>
      <use transform="translate(552.85677 0.015625)" xlink:href="#DejaVuSans-Oblique-120"/>
      <use transform="translate(612.036458 0.015625)" xlink:href="#DejaVuSans-41"/>
     </g>
    </g>
    <g id="line2d_18">
     <path d="M 91.8 101.837812 
L 127.8 101.837812 
" style="fill:none;stroke:#1f77b4;stroke-linecap:square;stroke-width:6;"/>
    </g>
    <g id="line2d_19"/>
    <g id="text_17">
     <!-- Prediction -->
     <g transform="translate(142.2 108.137812)scale(0.18 -0.18)">
      <defs>
       <path d="M 19.671875 64.796875 
L 19.671875 37.40625 
L 32.078125 37.40625 
Q 38.96875 37.40625 42.71875 40.96875 
Q 46.484375 44.53125 46.484375 51.125 
Q 46.484375 57.671875 42.71875 61.234375 
Q 38.96875 64.796875 32.078125 64.796875 
z
M 9.8125 72.90625 
L 32.078125 72.90625 
Q 44.34375 72.90625 50.609375 67.359375 
Q 56.890625 61.8125 56.890625 51.125 
Q 56.890625 40.328125 50.609375 34.8125 
Q 44.34375 29.296875 32.078125 29.296875 
L 19.671875 29.296875 
L 19.671875 0 
L 9.8125 0 
z
" id="DejaVuSans-80"/>
       <path d="M 41.109375 46.296875 
Q 39.59375 47.171875 37.8125 47.578125 
Q 36.03125 48 33.890625 48 
Q 26.265625 48 22.1875 43.046875 
Q 18.109375 38.09375 18.109375 28.8125 
L 18.109375 0 
L 9.078125 0 
L 9.078125 54.6875 
L 18.109375 54.6875 
L 18.109375 46.1875 
Q 20.953125 51.171875 25.484375 53.578125 
Q 30.03125 56 36.53125 56 
Q 37.453125 56 38.578125 55.875 
Q 39.703125 55.765625 41.0625 55.515625 
z
" id="DejaVuSans-114"/>
       <path d="M 56.203125 29.59375 
L 56.203125 25.203125 
L 14.890625 25.203125 
Q 15.484375 15.921875 20.484375 11.0625 
Q 25.484375 6.203125 34.421875 6.203125 
Q 39.59375 6.203125 44.453125 7.46875 
Q 49.3125 8.734375 54.109375 11.28125 
L 54.109375 2.78125 
Q 49.265625 0.734375 44.1875 -0.34375 
Q 39.109375 -1.421875 33.890625 -1.421875 
Q 20.796875 -1.421875 13.15625 6.1875 
Q 5.515625 13.8125 5.515625 26.8125 
Q 5.515625 40.234375 12.765625 48.109375 
Q 20.015625 56 32.328125 56 
Q 43.359375 56 49.78125 48.890625 
Q 56.203125 41.796875 56.203125 29.59375 
z
M 47.21875 32.234375 
Q 47.125 39.59375 43.09375 43.984375 
Q 39.0625 48.390625 32.421875 48.390625 
Q 24.90625 48.390625 20.390625 44.140625 
Q 15.875 39.890625 15.1875 32.171875 
z
" id="DejaVuSans-101"/>
       <path d="M 45.40625 46.390625 
L 45.40625 75.984375 
L 54.390625 75.984375 
L 54.390625 0 
L 45.40625 0 
L 45.40625 8.203125 
Q 42.578125 3.328125 38.25 0.953125 
Q 33.9375 -1.421875 27.875 -1.421875 
Q 17.96875 -1.421875 11.734375 6.484375 
Q 5.515625 14.40625 5.515625 27.296875 
Q 5.515625 40.1875 11.734375 48.09375 
Q 17.96875 56 27.875 56 
Q 33.9375 56 38.25 53.625 
Q 42.578125 51.265625 45.40625 46.390625 
z
M 14.796875 27.296875 
Q 14.796875 17.390625 18.875 11.75 
Q 22.953125 6.109375 30.078125 6.109375 
Q 37.203125 6.109375 41.296875 11.75 
Q 45.40625 17.390625 45.40625 27.296875 
Q 45.40625 37.203125 41.296875 42.84375 
Q 37.203125 48.484375 30.078125 48.484375 
Q 22.953125 48.484375 18.875 42.84375 
Q 14.796875 37.203125 14.796875 27.296875 
z
" id="DejaVuSans-100"/>
       <path d="M 48.78125 52.59375 
L 48.78125 44.1875 
Q 44.96875 46.296875 41.140625 47.34375 
Q 37.3125 48.390625 33.40625 48.390625 
Q 24.65625 48.390625 19.8125 42.84375 
Q 14.984375 37.3125 14.984375 27.296875 
Q 14.984375 17.28125 19.8125 11.734375 
Q 24.65625 6.203125 33.40625 6.203125 
Q 37.3125 6.203125 41.140625 7.25 
Q 44.96875 8.296875 48.78125 10.40625 
L 48.78125 2.09375 
Q 45.015625 0.34375 40.984375 -0.53125 
Q 36.96875 -1.421875 32.421875 -1.421875 
Q 20.0625 -1.421875 12.78125 6.34375 
Q 5.515625 14.109375 5.515625 27.296875 
Q 5.515625 40.671875 12.859375 48.328125 
Q 20.21875 56 33.015625 56 
Q 37.15625 56 41.109375 55.140625 
Q 45.0625 54.296875 48.78125 52.59375 
z
" id="DejaVuSans-99"/>
       <path d="M 18.3125 70.21875 
L 18.3125 54.6875 
L 36.8125 54.6875 
L 36.8125 47.703125 
L 18.3125 47.703125 
L 18.3125 18.015625 
Q 18.3125 11.328125 20.140625 9.421875 
Q 21.96875 7.515625 27.59375 7.515625 
L 36.8125 7.515625 
L 36.8125 0 
L 27.59375 0 
Q 17.1875 0 13.234375 3.875 
Q 9.28125 7.765625 9.28125 18.015625 
L 9.28125 47.703125 
L 2.6875 47.703125 
L 2.6875 54.6875 
L 9.28125 54.6875 
L 9.28125 70.21875 
z
" id="DejaVuSans-116"/>
       <path d="M 30.609375 48.390625 
Q 23.390625 48.390625 19.1875 42.75 
Q 14.984375 37.109375 14.984375 27.296875 
Q 14.984375 17.484375 19.15625 11.84375 
Q 23.34375 6.203125 30.609375 6.203125 
Q 37.796875 6.203125 41.984375 11.859375 
Q 46.1875 17.53125 46.1875 27.296875 
Q 46.1875 37.015625 41.984375 42.703125 
Q 37.796875 48.390625 30.609375 48.390625 
z
M 30.609375 56 
Q 42.328125 56 49.015625 48.375 
Q 55.71875 40.765625 55.71875 27.296875 
Q 55.71875 13.875 49.015625 6.21875 
Q 42.328125 -1.421875 30.609375 -1.421875 
Q 18.84375 -1.421875 12.171875 6.21875 
Q 5.515625 13.875 5.515625 27.296875 
Q 5.515625 40.765625 12.171875 48.375 
Q 18.84375 56 30.609375 56 
z
" id="DejaVuSans-111"/>
      </defs>
      <use xlink:href="#DejaVuSans-80"/>
      <use x="58.552734" xlink:href="#DejaVuSans-114"/>
      <use x="97.416016" xlink:href="#DejaVuSans-101"/>
      <use x="158.939453" xlink:href="#DejaVuSans-100"/>
      <use x="222.416016" xlink:href="#DejaVuSans-105"/>
      <use x="250.199219" xlink:href="#DejaVuSans-99"/>
      <use x="305.179688" xlink:href="#DejaVuSans-116"/>
      <use x="344.388672" xlink:href="#DejaVuSans-105"/>
      <use x="372.171875" xlink:href="#DejaVuSans-111"/>
      <use x="433.353516" xlink:href="#DejaVuSans-110"/>
     </g>
    </g>
    <g id="patch_9">
     <path d="M 91.8 134.558437 
L 127.8 134.558437 
L 127.8 121.958437 
L 91.8 121.958437 
z
" style="fill:#1f77b4;opacity:0.2;"/>
    </g>
    <g id="text_18">
     <!-- 95% CI -->
     <g transform="translate(142.2 134.558437)scale(0.18 -0.18)">
      <defs>
       <path d="M 10.984375 1.515625 
L 10.984375 10.5 
Q 14.703125 8.734375 18.5 7.8125 
Q 22.3125 6.890625 25.984375 6.890625 
Q 35.75 6.890625 40.890625 13.453125 
Q 46.046875 20.015625 46.78125 33.40625 
Q 43.953125 29.203125 39.59375 26.953125 
Q 35.25 24.703125 29.984375 24.703125 
Q 19.046875 24.703125 12.671875 31.3125 
Q 6.296875 37.9375 6.296875 49.421875 
Q 6.296875 60.640625 12.9375 67.421875 
Q 19.578125 74.21875 30.609375 74.21875 
Q 43.265625 74.21875 49.921875 64.515625 
Q 56.59375 54.828125 56.59375 36.375 
Q 56.59375 19.140625 48.40625 8.859375 
Q 40.234375 -1.421875 26.421875 -1.421875 
Q 22.703125 -1.421875 18.890625 -0.6875 
Q 15.09375 0.046875 10.984375 1.515625 
z
M 30.609375 32.421875 
Q 37.25 32.421875 41.125 36.953125 
Q 45.015625 41.5 45.015625 49.421875 
Q 45.015625 57.28125 41.125 61.84375 
Q 37.25 66.40625 30.609375 66.40625 
Q 23.96875 66.40625 20.09375 61.84375 
Q 16.21875 57.28125 16.21875 49.421875 
Q 16.21875 41.5 20.09375 36.953125 
Q 23.96875 32.421875 30.609375 32.421875 
z
" id="DejaVuSans-57"/>
       <path d="M 72.703125 32.078125 
Q 68.453125 32.078125 66.03125 28.46875 
Q 63.625 24.859375 63.625 18.40625 
Q 63.625 12.0625 66.03125 8.421875 
Q 68.453125 4.78125 72.703125 4.78125 
Q 76.859375 4.78125 79.265625 8.421875 
Q 81.6875 12.0625 81.6875 18.40625 
Q 81.6875 24.8125 79.265625 28.4375 
Q 76.859375 32.078125 72.703125 32.078125 
z
M 72.703125 38.28125 
Q 80.421875 38.28125 84.953125 32.90625 
Q 89.5 27.546875 89.5 18.40625 
Q 89.5 9.28125 84.9375 3.921875 
Q 80.375 -1.421875 72.703125 -1.421875 
Q 64.890625 -1.421875 60.34375 3.921875 
Q 55.8125 9.28125 55.8125 18.40625 
Q 55.8125 27.59375 60.375 32.9375 
Q 64.9375 38.28125 72.703125 38.28125 
z
M 22.3125 68.015625 
Q 18.109375 68.015625 15.6875 64.375 
Q 13.28125 60.75 13.28125 54.390625 
Q 13.28125 47.953125 15.671875 44.328125 
Q 18.0625 40.71875 22.3125 40.71875 
Q 26.5625 40.71875 28.96875 44.328125 
Q 31.390625 47.953125 31.390625 54.390625 
Q 31.390625 60.6875 28.953125 64.34375 
Q 26.515625 68.015625 22.3125 68.015625 
z
M 66.40625 74.21875 
L 74.21875 74.21875 
L 28.609375 -1.421875 
L 20.796875 -1.421875 
z
M 22.3125 74.21875 
Q 30.03125 74.21875 34.609375 68.875 
Q 39.203125 63.53125 39.203125 54.390625 
Q 39.203125 45.171875 34.640625 39.84375 
Q 30.078125 34.515625 22.3125 34.515625 
Q 14.546875 34.515625 10.03125 39.859375 
Q 5.515625 45.21875 5.515625 54.390625 
Q 5.515625 63.484375 10.046875 68.84375 
Q 14.59375 74.21875 22.3125 74.21875 
z
" id="DejaVuSans-37"/>
       <path id="DejaVuSans-32"/>
       <path d="M 64.40625 67.28125 
L 64.40625 56.890625 
Q 59.421875 61.53125 53.78125 63.8125 
Q 48.140625 66.109375 41.796875 66.109375 
Q 29.296875 66.109375 22.65625 58.46875 
Q 16.015625 50.828125 16.015625 36.375 
Q 16.015625 21.96875 22.65625 14.328125 
Q 29.296875 6.6875 41.796875 6.6875 
Q 48.140625 6.6875 53.78125 8.984375 
Q 59.421875 11.28125 64.40625 15.921875 
L 64.40625 5.609375 
Q 59.234375 2.09375 53.4375 0.328125 
Q 47.65625 -1.421875 41.21875 -1.421875 
Q 24.65625 -1.421875 15.125 8.703125 
Q 5.609375 18.84375 5.609375 36.375 
Q 5.609375 53.953125 15.125 64.078125 
Q 24.65625 74.21875 41.21875 74.21875 
Q 47.75 74.21875 53.53125 72.484375 
Q 59.328125 70.75 64.40625 67.28125 
z
" id="DejaVuSans-67"/>
       <path d="M 9.8125 72.90625 
L 19.671875 72.90625 
L 19.671875 0 
L 9.8125 0 
z
" id="DejaVuSans-73"/>
      </defs>
      <use xlink:href="#DejaVuSans-57"/>
      <use x="63.623047" xlink:href="#DejaVuSans-53"/>
      <use x="127.246094" xlink:href="#DejaVuSans-37"/>
      <use x="222.265625" xlink:href="#DejaVuSans-32"/>
      <use x="254.052734" xlink:href="#DejaVuSans-67"/>
      <use x="323.876953" xlink:href="#DejaVuSans-73"/>
     </g>
    </g>
    <g id="PathCollection_2">
     <g>
      <use style="fill:#d62728;stroke:#d62728;" x="109.8" xlink:href="#mbc66f69eb5" y="156.254062"/>
     </g>
    </g>
    <g id="text_19">
     <!-- Observations -->
     <g transform="translate(142.2 160.979062)scale(0.18 -0.18)">
      <defs>
       <path d="M 39.40625 66.21875 
Q 28.65625 66.21875 22.328125 58.203125 
Q 16.015625 50.203125 16.015625 36.375 
Q 16.015625 22.609375 22.328125 14.59375 
Q 28.65625 6.59375 39.40625 6.59375 
Q 50.140625 6.59375 56.421875 14.59375 
Q 62.703125 22.609375 62.703125 36.375 
Q 62.703125 50.203125 56.421875 58.203125 
Q 50.140625 66.21875 39.40625 66.21875 
z
M 39.40625 74.21875 
Q 54.734375 74.21875 63.90625 63.9375 
Q 73.09375 53.65625 73.09375 36.375 
Q 73.09375 19.140625 63.90625 8.859375 
Q 54.734375 -1.421875 39.40625 -1.421875 
Q 24.03125 -1.421875 14.8125 8.828125 
Q 5.609375 19.09375 5.609375 36.375 
Q 5.609375 53.65625 14.8125 63.9375 
Q 24.03125 74.21875 39.40625 74.21875 
z
" id="DejaVuSans-79"/>
       <path d="M 48.6875 27.296875 
Q 48.6875 37.203125 44.609375 42.84375 
Q 40.53125 48.484375 33.40625 48.484375 
Q 26.265625 48.484375 22.1875 42.84375 
Q 18.109375 37.203125 18.109375 27.296875 
Q 18.109375 17.390625 22.1875 11.75 
Q 26.265625 6.109375 33.40625 6.109375 
Q 40.53125 6.109375 44.609375 11.75 
Q 48.6875 17.390625 48.6875 27.296875 
z
M 18.109375 46.390625 
Q 20.953125 51.265625 25.265625 53.625 
Q 29.59375 56 35.59375 56 
Q 45.5625 56 51.78125 48.09375 
Q 58.015625 40.1875 58.015625 27.296875 
Q 58.015625 14.40625 51.78125 6.484375 
Q 45.5625 -1.421875 35.59375 -1.421875 
Q 29.59375 -1.421875 25.265625 0.953125 
Q 20.953125 3.328125 18.109375 8.203125 
L 18.109375 0 
L 9.078125 0 
L 9.078125 75.984375 
L 18.109375 75.984375 
z
" id="DejaVuSans-98"/>
       <path d="M 2.984375 54.6875 
L 12.5 54.6875 
L 29.59375 8.796875 
L 46.6875 54.6875 
L 56.203125 54.6875 
L 35.6875 0 
L 23.484375 0 
z
" id="DejaVuSans-118"/>
       <path d="M 34.28125 27.484375 
Q 23.390625 27.484375 19.1875 25 
Q 14.984375 22.515625 14.984375 16.5 
Q 14.984375 11.71875 18.140625 8.90625 
Q 21.296875 6.109375 26.703125 6.109375 
Q 34.1875 6.109375 38.703125 11.40625 
Q 43.21875 16.703125 43.21875 25.484375 
L 43.21875 27.484375 
z
M 52.203125 31.203125 
L 52.203125 0 
L 43.21875 0 
L 43.21875 8.296875 
Q 40.140625 3.328125 35.546875 0.953125 
Q 30.953125 -1.421875 24.3125 -1.421875 
Q 15.921875 -1.421875 10.953125 3.296875 
Q 6 8.015625 6 15.921875 
Q 6 25.140625 12.171875 29.828125 
Q 18.359375 34.515625 30.609375 34.515625 
L 43.21875 34.515625 
L 43.21875 35.40625 
Q 43.21875 41.609375 39.140625 45 
Q 35.0625 48.390625 27.6875 48.390625 
Q 23 48.390625 18.546875 47.265625 
Q 14.109375 46.140625 10.015625 43.890625 
L 10.015625 52.203125 
Q 14.9375 54.109375 19.578125 55.046875 
Q 24.21875 56 28.609375 56 
Q 40.484375 56 46.34375 49.84375 
Q 52.203125 43.703125 52.203125 31.203125 
z
" id="DejaVuSans-97"/>
      </defs>
      <use xlink:href="#DejaVuSans-79"/>
      <use x="78.710938" xlink:href="#DejaVuSans-98"/>
      <use x="142.1875" xlink:href="#DejaVuSans-115"/>
      <use x="194.287109" xlink:href="#DejaVuSans-101"/>
      <use x="255.810547" xlink:href="#DejaVuSans-114"/>
      <use x="296.923828" xlink:href="#DejaVuSans-118"/>
      <use x="356.103516" xlink:href="#DejaVuSans-97"/>
      <use x="417.382812" xlink:href="#DejaVuSans-116"/>
      <use x="456.591797" xlink:href="#DejaVuSans-105"/>
      <use x="484.375" xlink:href="#DejaVuSans-111"/>
      <use x="545.556641" xlink:href="#DejaVuSans-110"/>
      <use x="608.935547" xlink:href="#DejaVuSans-115"/>
     </g>
    </g>
   </g>
  </g>
 </g>
 <defs>
  <clipPath id="pb597ca8b94">
   <rect height="336.96" width="378" x="75.6" y="51.84"/>
  </clipPath>
 </defs>
</svg>
