<?xml version="1.0" encoding="UTF-8" standalone="no"?>
<svg
   viewBox="0 0 699.99999 200"
   version="1.1"
   id="svg134"
   sodipodi:docname="selection_proposal.svg"
   inkscape:version="1.3.2 (091e20e, 2023-11-25)"
   width="700"
   height="200"
   xmlns:inkscape="http://www.inkscape.org/namespaces/inkscape"
   xmlns:sodipodi="http://sodipodi.sourceforge.net/DTD/sodipodi-0.dtd"
   xmlns="http://www.w3.org/2000/svg"
   xmlns:svg="http://www.w3.org/2000/svg"
   xmlns:rdf="http://www.w3.org/1999/02/22-rdf-syntax-ns#"
   xmlns:cc="http://creativecommons.org/ns#"
   xmlns:dc="http://purl.org/dc/elements/1.1/">
  <sodipodi:namedview
     id="namedview134"
     pagecolor="#ffffff"
     bordercolor="#000000"
     borderopacity="0.25"
     inkscape:showpageshadow="2"
     inkscape:pageopacity="0.0"
     inkscape:pagecheckerboard="0"
     inkscape:deskcolor="#d1d1d1"
     inkscape:zoom="0.79360047"
     inkscape:cx="243.19542"
     inkscape:cy="175.78115"
     inkscape:window-width="1384"
     inkscape:window-height="718"
     inkscape:window-x="60"
     inkscape:window-y="126"
     inkscape:window-maximized="0"
     inkscape:current-layer="Layer_1" />
  <defs
     id="defs1">
    <style
       id="style1">.cls-1{fill:#8c0000;}</style>
  </defs>
  <title
     id="title1">sel_hmm</title>
  <g
     id="Layer_1"
     data-name="Layer 1">
    <g
       id="g3"
       transform="matrix(1,0,0,0.86986208,0,1.57855)">
      <g
         id="g2">
        <path
           d="m 113.1,13.1 c 0.2,21.8 1,43.6 0.7,65.4 -0.4,28.9 -0.3,57.7 0.5,86.6 0,0.9 1.5,1 1.5,0 -0.8,-28.9 -0.9,-57.7 -0.5,-86.6 0.3,-21.8 -0.5,-43.6 -0.7,-65.4 0,-0.9 -1.5,-0.9 -1.5,0 z"
           id="path1-3" />
      </g>
    </g>
    <g
       id="g5"
       transform="translate(0,-20)">
      <g
         id="g4">
        <path
           d="m 113.2,152.1 c -1.1,0 -2.3,0 -3.4,0 -1.3,0 -1.3,1.9 0,1.9 1.1,0 2.3,0 3.4,0 1.2,0.1 1.2,-1.9 0,-1.9 z"
           id="path2-4" />
      </g>
    </g>
    <g
       id="g7"
       transform="translate(0,-20)">
      <g
         id="g6">
        <path
           d="m 113.2,132.1 c -1.1,0 -2.3,0 -3.4,0 -1.3,0 -1.3,1.9 0,1.9 1.1,0 2.3,0 3.4,0 1.2,0.1 1.2,-1.9 0,-1.9 z"
           id="path4-8" />
      </g>
    </g>
    <g
       id="g9"
       transform="translate(0,-20)">
      <g
         id="g8">
        <path
           d="m 113.2,112.1 c -1.1,0 -2.3,0 -3.4,0 -1.3,0 -1.3,1.9 0,1.9 1.1,0 2.3,0 3.4,0 1.2,0.1 1.2,-1.9 0,-1.9 z"
           id="path6-6" />
      </g>
    </g>
    <g
       id="g11"
       transform="translate(0,-20)">
      <g
         id="g10">
        <path
           d="m 113.2,92.1 c -1.1,0 -2.3,0 -3.4,0 -1.3,0 -1.3,1.9 0,1.9 1.1,0 2.3,0 3.4,0 1.2,0.1 1.2,-1.9 0,-1.9 z"
           id="path8-1" />
      </g>
    </g>
    <g
       id="g13"
       transform="translate(0,-20)">
      <g
         id="g12">
        <path
           d="m 113.2,72.1 c -1.1,0 -2.3,0 -3.4,0 -1.3,0 -1.3,1.9 0,1.9 1.1,0 2.3,0 3.4,0 1.2,0.1 1.2,-1.9 0,-1.9 z"
           id="path10-1" />
      </g>
    </g>
    <g
       id="g15"
       transform="translate(0,-20)">
      <g
         id="g14">
        <path
           d="m 113.2,52.1 c -1.1,0 -2.3,0 -3.4,0 -1.3,0 -1.3,1.9 0,1.9 1.1,0 2.3,0 3.4,0 1.2,0.1 1.2,-1.9 0,-1.9 z"
           id="path12-5" />
      </g>
    </g>
    <g
       id="g17"
       transform="translate(0,-20)">
      <g
         id="g16">
        <path
           d="m 113.2,32.1 c -1.1,0 -2.3,0 -3.4,0 -1.3,0 -1.3,1.9 0,1.9 1.1,0 2.3,0 3.4,0 1.2,0.1 1.2,-1.9 0,-1.9 z"
           id="path14-6" />
      </g>
    </g>
    <g
       id="g21"
       transform="translate(0,-20)">
      <g
         id="g20">
        <path
           d="m 115.4,166.4 c 78.2,-0.1 156.4,-0.1 234.6,0 56.5,0.1 113.1,0.2 169.6,0.3 50.1,0.1 100.1,0.1 150.2,0.2 1.1,0 1.1,-1.7 0,-1.7 -76.9,0 -153.9,-0.1 -230.8,-0.3 -56.9,-0.1 -113.8,-0.2 -170.7,-0.3 -51,0 -101.9,0 -152.9,0 -1.1,0.1 -1.1,1.8 0,1.8 z"
           id="path18-8" />
      </g>
    </g>
    <g
       id="g23"
       transform="translate(0,-20)">
      <g
         id="g22">
        <path
           class="st0"
           d="m 264.4,158 c -1.7,1.4 -3.3,2.7 -5,4.1 -0.7,0.6 -0.1,2 0.8,1.9 2.2,-0.1 4.3,-0.2 6.5,-0.4 -0.3,-0.6 -0.6,-1.1 -1,-1.7 -1.4,1.9 -3,3.5 -4.8,5 -1.1,0.9 0.5,2.5 1.6,1.6 2,-1.6 3.6,-3.4 5.1,-5.4 0.5,-0.7 -0.2,-1.7 -1,-1.7 -2.2,0.1 -4.3,0.2 -6.5,0.4 0.3,0.6 0.5,1.3 0.8,1.9 1.7,-1.4 3.3,-2.7 5,-4.1 1.2,-0.9 -0.4,-2.5 -1.5,-1.6 z"
           id="path20-0"
           style="fill:#8c0000" />
      </g>
    </g>
    <g
       id="g25"
       transform="translate(0,-20)">
      <g
         id="g24">
        <path
           class="st0"
           d="m 407.5,157.1 c -1.9,1.5 -3.8,3 -5.8,4.4 -0.9,0.7 -0.6,2 0.6,2.1 2.1,0.2 4.2,0.3 6.2,0.5 -0.3,-0.6 -0.5,-1.3 -0.8,-1.9 -1.7,1.5 -3.4,3 -5.1,4.5 -1.1,0.9 0.5,2.5 1.6,1.6 1.7,-1.5 3.4,-3 5.1,-4.5 0.8,-0.7 0.1,-1.8 -0.8,-1.9 -2.1,-0.2 -4.2,-0.3 -6.2,-0.5 0.2,0.7 0.4,1.4 0.6,2.1 1.9,-1.5 3.8,-3 5.8,-4.4 1.1,-0.9 0,-2.9 -1.2,-2 z"
           id="path22-2"
           style="fill:#8c0000" />
      </g>
    </g>
    <g
       id="g27"
       transform="translate(0,-20)">
      <g
         id="g26">
        <path
           class="st0"
           d="m 529.4,170.2 c 2.5,-1.4 5,-2.9 7.4,-4.5 0.8,-0.5 0.7,-1.8 -0.3,-2.1 -1.9,-0.5 -3.8,-1 -5.7,-1.5 0.1,0.7 0.2,1.4 0.3,2.1 1.6,-1 3.3,-2.1 4.9,-3.1 1.2,-0.8 0.1,-2.7 -1.1,-1.9 -1.6,1 -3.3,2.1 -4.9,3.1 -0.8,0.5 -0.7,1.8 0.3,2.1 1.9,0.5 3.8,1 5.7,1.5 -0.1,-0.7 -0.2,-1.4 -0.3,-2.1 -2.4,1.6 -4.8,3.1 -7.4,4.5 -1.3,0.7 -0.2,2.6 1.1,1.9 z"
           id="path24-2"
           style="fill:#8c0000" />
      </g>
    </g>
    <g
       id="g29"
       transform="translate(-20,2)">
      <g
         id="g28">
        <path
           d="m 65,59.7 c -2.6,-4 -9.1,0.2 -7.7,4.4 0.9,2.7 3.7,2.6 5.9,3.2 1.6,0.4 3,1.1 3.5,2.9 0.7,2.7 -1.7,5.4 -4.8,4.5 -1.3,-0.4 -1.8,-1.2 -3.4,-1.2 -1.2,0 -1.3,2 0,1.9 2.6,-0.1 3.8,2.6 6.6,1.3 1.9,-0.9 3.4,-3 3.6,-5.1 0.2,-2 -0.8,-4.1 -2.4,-5.2 -0.9,-0.7 -2,-0.9 -3,-1.1 -0.7,-0.1 -1.4,-0.1 -2,-0.4 -0.4,-0.1 -0.8,-0.3 -1.2,-0.4 -0.9,-3.7 0.2,-5.1 3.3,-4 0.6,1.2 2.3,0.3 1.6,-0.8 z"
           id="path26-6" />
      </g>
    </g>
    <g
       id="g31"
       transform="translate(-20,2)">
      <g
         id="g30">
        <path
           d="m 53.7,53 c -0.2,8.4 0,16.8 0.6,25.2 0.1,1.2 2,1.3 1.9,0 -0.6,-8.4 -0.8,-16.8 -0.6,-25.2 0.1,-1.3 -1.9,-1.3 -1.9,0 z"
           id="path28-7" />
      </g>
    </g>
    <g
       id="g33"
       transform="translate(-20,2)">
      <g
         id="g32">
        <path
           d="m 70.5,53.1 c -0.2,8.2 -1.1,16.8 -0.2,25 0.1,1.2 2.1,1.2 1.9,0 -1,-8.1 0,-16.8 0.2,-25 0.1,-1.3 -1.8,-1.3 -1.9,0 z"
           id="path30-6" />
      </g>
    </g>
    <g
       id="g35"
       transform="translate(-20,2)">
      <g
         id="g34">
        <path
           d="m 51.5,90.3 c -4.3,-7.2 -13.3,1.4 -9.6,7.7 1.7,2.9 5.4,1.3 7.5,-0.3 3,-2.3 4.2,-6.1 2.2,-9.5 -0.6,-1 -2,-0.3 -1.8,0.7 0.6,2.8 1.4,5.7 2,8.5 0.5,2.4 -0.2,4.5 -2.4,5.7 -0.2,0.1 -5.4,2.1 -5.4,1.8 -0.1,0.4 -0.3,0.7 -0.4,1.1 0.1,-0.1 0.1,-0.1 0.2,-0.2 1,-0.8 0,-2.4 -1,-1.7 -0.1,0.1 -0.1,0.1 -0.2,0.2 -0.4,0.3 -0.5,0.6 -0.4,1.1 0,0.1 0,0.2 0,0.3 0.1,0.3 0.4,0.6 0.7,0.7 3.2,0.9 8.2,-1.2 10.2,-3.8 1,-1.5 1.1,-2.9 0.9,-4.6 -0.4,-3.2 -1.5,-6.5 -2.2,-9.6 -0.6,0.2 -1.2,0.5 -1.8,0.7 1.2,2.1 0.7,4.6 -1,6.3 -1.1,1.1 -3.9,2.9 -5.5,1.3 -2.9,-2.9 3.2,-10.9 6.4,-5.5 0.5,1.1 2.2,0.1 1.6,-0.9 z"
           id="path32-1" />
      </g>
    </g>
    <g
       id="g37"
       transform="translate(-20,2)">
      <g
         id="g36">
        <path
           d="m 57,91.5 c 0,-0.7 0.2,-1.4 0.5,-2 1,-0.5 1.8,-0.5 2.6,0.1 0.4,0.1 0.7,0.2 1.1,0.2 1,-0.1 1.5,-0.6 1.9,-1.5 -0.6,-0.2 -1.3,-0.3 -1.9,-0.5 -0.6,2.1 -1.2,4.3 -1.9,6.4 -0.4,1.3 -1.4,3.2 -0.7,4.6 1.3,2.5 4,0.4 5,-1 0.7,-1 -1,-2 -1.7,-1 -0.3,0.8 -0.8,0.9 -1.5,0.3 0.1,-0.3 0.2,-0.5 0.2,-0.8 0,-0.8 0.6,-2 0.8,-2.8 0.5,-1.7 1,-3.5 1.5,-5.2 0.4,-1.2 -1.5,-1.7 -1.9,-0.5 0,0.1 -2,-0.9 -2.3,-0.9 -0.7,-0.1 -1.4,0.1 -1.9,0.4 -1.5,0.9 -1.7,2.6 -1.9,4.2 0,1.3 1.9,1.3 2.1,0 z"
           id="path34-2" />
      </g>
    </g>
    <g
       id="g39"
       transform="translate(-20,2)">
      <g
         id="g38">
        <path
           d="m 65.9,87.7 c -0.1,2.1 -0.3,4.1 -0.4,6.2 -0.1,1.3 -0.7,3.8 -0.2,5 0.9,2.3 3.6,-0.4 4.7,-1.1 1,-0.7 0.1,-2.4 -1,-1.7 -0.6,0.4 -2.4,1.2 -2.6,1.8 0.3,0.1 0.5,0.3 0.8,0.4 0,-0.3 0,-0.6 0.1,-0.9 0.2,-0.6 0.1,-1.5 0.1,-2.2 0.2,-2.5 0.3,-5 0.5,-7.5 0,-1.3 -1.9,-1.3 -2,0 z"
           id="path36-1" />
      </g>
    </g>
    <g
       id="g41"
       transform="translate(-20,2)">
      <g
         id="g40">
        <path
           d="m 65.9,82.5 c 0,0.4 0.1,0.7 0.1,1.1 0.1,1.2 1.9,1.3 1.9,0 0,0 0,-0.1 0,-0.1 0,0.2 -0.1,0.3 -0.1,0.5 0,0 0,0 0,-0.1 -0.1,0.1 -0.2,0.2 -0.3,0.3 -0.1,0 -0.3,0.1 -0.4,0.1 -0.1,-0.1 -0.3,-0.2 -0.4,-0.3 0,0 0,-0.1 -0.1,-0.1 0,-0.2 -0.1,-0.3 -0.1,-0.5 0,0 0,0.1 0,0.1 0,1.3 2,1.3 1.9,0 0,-1.5 -2.4,-1.6 -2.4,0 0.6,0 1.3,0 1.9,0 0,-0.4 -0.1,-0.7 -0.1,-1.1 0,-0.5 -0.4,-1 -1,-1 -0.5,0.1 -1,0.5 -0.9,1.1 z"
           id="path38-3" />
      </g>
    </g>
    <g
       id="g43"
       transform="translate(-20,2)">
      <g
         id="g42">
        <path
           d="m 81.4,89.3 c 0.2,-3.4 -4.7,-4 -7,-2.5 -3.2,2.1 -2.8,7.3 -1.4,10.3 1.4,2.9 4.3,4.3 6.8,1.6 1.6,-1.8 1.7,-4.2 1.8,-6.5 0.1,-3.8 -0.2,-7.6 -0.3,-11.4 -0.6,0 -1.3,0 -1.9,0 0.8,6.3 1.2,12.7 1.5,19 0,1.2 2,1.3 1.9,0 -0.2,-6.4 -0.7,-12.7 -1.5,-19 -0.1,-1.2 -2,-1.3 -1.9,0 0.1,3.8 0.5,7.6 0.3,11.4 0.1,1.6 -0.2,3.2 -0.9,4.7 -2.6,1.3 -4,0.7 -4.4,-1.5 -0.3,-1 -0.5,-2.1 -0.5,-3.1 0,-3.3 1.8,-4.3 5.6,-2.8 -0.1,1.1 1.8,1.1 1.9,-0.2 z"
           id="path40-6" />
      </g>
    </g>
    <g
       id="g45"
       transform="translate(0,-20)">
      <g
         id="g44">
        <path
           d="m 93.8,152.7 c -0.5,3.8 0.2,8.4 4.7,9.1 3.6,0.6 6.4,-2.3 6.9,-5.7 0.4,-3.1 -0.8,-9.6 -4.4,-10.7 -4.7,-1.4 -6.2,5.4 -7.1,8.4 -0.3,0.9 1.1,1.3 1.4,0.4 0.6,-2 1.5,-6.9 4.1,-7.3 3.1,-0.5 4.1,4.5 4.4,6.6 0.4,2.7 -0.3,6.2 -3.5,6.9 -4.5,1 -5.6,-4 -5.2,-7.2 0.2,-1 -1.2,-1.4 -1.3,-0.5 z"
           id="path42" />
      </g>
    </g>
    <g
       id="g47"
       transform="matrix(1.3281272,0,0,1.3281272,-37.05344,-1.132039)">
      <g
         id="g46">
        <path
           d="M 88.4,5.8 C 88.2,1.9 83.5,4.4 83.1,7 c -0.2,1.5 0.2,3.1 1.5,3.8 1.3,0.7 2.7,0.1 3.7,1.6 0.4,0.6 0.5,1.3 0.4,2 0.2,0.8 -0.3,1.2 -1.4,1.2 -1,0.3 -1.9,0.4 -2.9,0.3 -0.8,0 -0.8,1.2 0,1.2 2.7,0.1 6.4,-0.4 5.5,-3.8 C 89.6,12 89,10.8 87.7,10.3 87.1,10 86.2,10.2 85.7,9.8 84.8,9.3 84.1,7.9 84.4,6.9 c 0.1,-0.6 2.7,-3.3 2.7,-1.2 0.1,0.9 1.3,0.9 1.3,0.1 z"
           id="path44" />
      </g>
    </g>
    <g
       id="g49"
       transform="matrix(1.3281272,0,0,1.3281272,-37.05344,-1.132039)">
      <g
         id="g48">
        <path
           d="m 92.5,14.2 c 0.1,1.9 0,3.7 -0.1,5.6 0.4,0 0.7,0 1.1,0 0,-0.9 0,-1.8 0.2,-2.7 0.1,-0.4 0.4,-2 0.8,-2.1 -0.2,0 -0.3,-0.1 -0.5,-0.1 0.5,0.5 0.6,1.7 0.7,2.3 0.1,0.8 0,1.6 -0.1,2.4 0.3,0 0.7,0.1 1,0.1 0,-0.9 -0.2,-4.3 1.1,-4.4 1.3,0 0.7,3.4 0.5,4.2 -0.1,0.7 0.9,1 1,0.3 0.3,-1.4 1,-5.4 -1.3,-5.7 -2.5,-0.4 -2.5,4.2 -2.4,5.6 0,0.6 0.9,0.8 1,0.1 0.2,-1.1 0.2,-2.1 0.1,-3.2 -0.1,-0.8 -0.3,-2 -1,-2.6 -0.1,-0.1 -0.3,-0.2 -0.5,-0.1 -0.9,0.3 -1.1,1.4 -1.4,2.2 -0.3,1.2 -0.5,2.4 -0.4,3.7 0,0.7 1,0.7 1.1,0 0.2,-1.9 0.2,-3.7 0.1,-5.6 0.1,-0.7 -1,-0.7 -1,0 z"
           id="path46" />
      </g>
    </g>
    <g
       id="g51"
       transform="matrix(1.3281272,0,0,1.3281272,-37.05344,-1.132039)">
      <g
         id="g50">
        <path
           d="m 102.7,16 c 0,-1.2 -0.9,-2.9 -2.3,-2 -1.3,0.8 -1.7,3 -1.5,4.4 0.1,1.1 1,2.3 2.2,1.5 1.6,-1.2 1.2,-4.1 1.1,-5.8 -0.3,0 -0.6,0 -0.9,0 0.1,1.2 0.3,2.3 0.4,3.5 0.1,0.8 0.1,1.7 0.4,2.4 0.1,0.1 0.2,0.2 0.4,0.2 0,0 0.1,0 0.1,0 0.2,0 0.4,-0.1 0.4,-0.3 0,-0.1 0,-0.1 0.1,-0.2 0.2,-0.6 -0.7,-0.8 -0.9,-0.2 0,0.1 0,0.1 -0.1,0.2 0.1,-0.1 0.3,-0.2 0.4,-0.3 0.2,0 -0.4,-4.8 -0.4,-5.2 -0.1,-0.6 -0.9,-0.6 -0.9,0 0,0.9 0.1,1.9 0,2.8 0,0.5 -0.6,3.3 -1.4,1.8 -0.3,-0.6 0,-1.8 0.1,-2.4 0.1,-0.4 0.3,-0.7 0.5,-1 0.7,-1.1 1.3,-0.2 1.3,0.7 0.1,0.5 1,0.5 1,-0.1 z"
           id="path48" />
      </g>
    </g>
    <g
       id="g53"
       transform="matrix(1.3281272,0,0,1.3281272,-37.05344,-1.132039)">
      <g
         id="g52">
        <path
           d="m 102.9,14.4 c 0.4,1.6 1.1,3.1 2.1,4.4 0.4,0.5 1.5,2 1.8,0.6 0.2,-0.6 -0.7,-0.8 -0.9,-0.2 0.1,-0.4 0.2,-0.1 0,-0.5 -0.1,-0.2 -0.3,-0.4 -0.4,-0.6 -0.3,-0.4 -0.5,-0.7 -0.7,-1.1 -0.5,-0.9 -0.9,-1.8 -1.1,-2.9 0,-0.5 -0.9,-0.3 -0.8,0.3 z"
           id="path50" />
      </g>
    </g>
    <g
       id="g55"
       transform="matrix(1.3281272,0,0,1.3281272,-37.05344,-1.132039)">
      <g
         id="g54">
        <path
           d="m 105.1,13.3 c -0.9,2 -1.5,4.2 -2,6.3 -0.1,0.6 0.7,0.8 0.9,0.2 0.4,-2.1 1,-4.1 1.9,-6.1 0.2,-0.5 -0.5,-0.9 -0.8,-0.4 z"
           id="path52" />
      </g>
    </g>
    <g
       id="g57"
       transform="matrix(1.3281272,0,0,1.3281272,-37.05344,-1.132039)">
      <g
         id="g56">
        <path
           d="m 80.4,3.9 c 0.3,4.8 0.7,9.6 0.5,14.4 0,0.6 0.9,0.6 0.9,0 0.2,-4.8 -0.2,-9.6 -0.5,-14.4 0,-0.6 -0.9,-0.6 -0.9,0 z"
           id="path54" />
      </g>
    </g>
    <g
       id="g59"
       transform="matrix(1.3281272,0,0,1.3281272,-37.05344,-1.132039)">
      <g
         id="g58">
        <path
           d="m 90.4,3.9 c 0.3,4.8 0.7,9.6 0.5,14.4 0,0.6 0.9,0.6 0.9,0 0.2,-4.8 -0.2,-9.6 -0.5,-14.4 0,-0.6 -0.9,-0.6 -0.9,0 z"
           id="path56" />
      </g>
    </g>
    <g
       id="g61"
       transform="translate(0,-20)">
      <g
         id="g60">
        <path
           class="st1"
           d="m 303.1,134.6 c 4,0.2 7.9,0.2 11.9,-0.2 1.6,-0.1 1.6,-2.6 0,-2.5 -4,0.4 -7.9,0.4 -11.9,0.2 -1.6,-0.1 -1.6,2.4 0,2.5 z"
           id="path58"
           style="fill:#21b24b" />
      </g>
    </g>
    <g
       id="g63"
       transform="translate(0,-20)">
      <g
         id="g62">
        <path
           class="st1"
           d="m 317.3,133.2 c 2.6,-6.3 3.3,-12.7 2.1,-19.4 -0.3,-1.6 -2.7,-0.9 -2.4,0.7 1.2,6.3 0.4,12.2 -2.1,18.1 -0.6,1.4 1.8,2 2.4,0.6 z"
           id="path60"
           style="fill:#21b24b" />
      </g>
    </g>
    <g
       id="g65"
       transform="translate(0,-20)">
      <g
         id="g64">
        <path
           class="st1"
           d="m 319.8,114.6 c 3.7,0.2 7.4,0 11.1,-0.6 1.6,-0.3 0.9,-2.6 -0.7,-2.4 -3.5,0.6 -6.9,0.7 -10.4,0.6 -1.6,-0.2 -1.6,2.3 0,2.4 z"
           id="path62"
           style="fill:#21b24b" />
      </g>
    </g>
    <g
       id="g67"
       transform="translate(0,-20)">
      <g
         id="g66">
        <path
           class="st1"
           d="m 330.1,93.8 c -0.7,6 -1.2,12 -1.3,18 0,1.6 2.4,1.6 2.5,0 0.2,-6 0.6,-12 1.3,-18 0.2,-1.5 -2.3,-1.5 -2.5,0 z"
           id="path64"
           style="fill:#21b24b" />
      </g>
    </g>
    <g
       id="g69"
       transform="translate(0,-20)">
      <g
         id="g68">
        <path
           class="st1"
           d="m 333.4,94.2 c 12.9,0 25.7,0 38.6,0 1.6,0 1.6,-2.5 0,-2.5 -12.9,0 -25.7,0 -38.6,0 -1.6,0 -1.6,2.5 0,2.5 z"
           id="path66"
           style="fill:#21b24b" />
      </g>
    </g>
    <g
       id="g71"
       transform="translate(0,-20)">
      <g
         id="g70">
        <path
           class="st1"
           d="m 373.3,75.5 c 0,-0.3 0.1,-0.7 0.1,-1 0.1,-1.4 -2.2,-1.7 -2.4,-0.3 -1,6.2 -1.5,12.4 -1.3,18.6 0,1.6 2.5,1.6 2.5,0 -0.1,-6 0.3,-12 1.2,-17.9 -0.8,-0.1 -1.6,-0.2 -2.4,-0.3 0,0.3 -0.1,0.7 -0.1,1 -0.3,1.5 2.2,1.5 2.4,-0.1 z"
           id="path68"
           style="fill:#21b24b" />
      </g>
    </g>
    <g
       id="g73"
       transform="translate(0,-20)">
      <g
         id="g72">
        <path
           class="st1"
           d="m 372.6,75.9 c 6.3,-0.3 12.6,-0.5 19,-0.8 1.6,-0.1 1.6,-2.5 0,-2.5 -6.3,0.3 -12.6,0.5 -19,0.8 -1.5,0.1 -1.6,2.5 0,2.5 z"
           id="path70"
           style="fill:#21b24b" />
      </g>
    </g>
    <g
       id="g75"
       transform="translate(0,-20)">
      <g
         id="g74">
        <path
           class="st1"
           d="m 393.1,53.8 c -0.8,6.6 -1.5,13.2 -1.9,19.8 -0.1,1.6 2.4,1.6 2.5,0 0.5,-6.6 1.1,-13.2 1.9,-19.8 0.1,-1.6 -2.3,-1.6 -2.5,0 z"
           id="path72"
           style="fill:#21b24b" />
      </g>
    </g>
    <g
       id="g77"
       transform="translate(0,-20)">
      <g
         id="g76">
        <path
           class="st1"
           d="m 394.9,55.3 c 5.8,0.9 11.6,1.1 17.5,0.8 1.6,-0.1 1.6,-2.6 0,-2.5 -5.6,0.4 -11.3,0.2 -16.9,-0.7 -1.5,-0.3 -2.2,2.1 -0.6,2.4 z"
           id="path74"
           style="fill:#21b24b" />
      </g>
    </g>
    <g
       id="g79"
       transform="translate(0,-20)">
      <g
         id="g78">
        <path
           class="st1"
           d="m 409.2,54.9 c -1,6 -1.1,11.9 -0.2,17.9 0.2,1.6 2.6,0.9 2.4,-0.7 -0.8,-5.6 -0.8,-11.1 0.2,-16.6 0.2,-1.5 -2.2,-2.1 -2.4,-0.6 z"
           id="path76"
           style="fill:#21b24b" />
      </g>
    </g>
    <g
       id="g81"
       transform="translate(0,-20)">
      <g
         id="g80">
        <path
           class="st1"
           d="m 411.1,74.8 c 10.5,-0.6 20.9,-0.3 31.3,1 1.6,0.2 1.6,-2.3 0,-2.5 -10.4,-1.3 -20.9,-1.6 -31.3,-1 -1.6,0.1 -1.6,2.6 0,2.5 z"
           id="path78"
           style="fill:#21b24b" />
      </g>
    </g>
    <g
       id="g83"
       transform="translate(0,-20)">
      <g
         id="g82">
        <path
           class="st1"
           d="m 441.5,75.1 c 0.6,6.8 1.8,13.5 3.4,20.2 0.4,1.5 2.8,0.9 2.4,-0.7 -1.6,-6.4 -2.7,-12.9 -3.3,-19.5 -0.2,-1.5 -2.6,-1.6 -2.5,0 z"
           id="path80"
           style="fill:#21b24b" />
      </g>
    </g>
    <g
       id="g85"
       transform="translate(0,-20)">
      <g
         id="g84">
        <path
           class="st1"
           d="m 447.2,94.9 c 11.5,-0.2 24,-1.9 35.3,0.2 1.6,0.3 2.2,-2.1 0.7,-2.4 -11.6,-2.1 -24.2,-0.5 -35.9,-0.3 -1.7,0 -1.7,2.5 -0.1,2.5 z"
           id="path82"
           style="fill:#21b24b" />
      </g>
    </g>
    <g
       id="g87"
       transform="translate(0,-20)">
      <g
         id="g86">
        <path
           class="st1"
           d="m 481.6,93.9 c -0.2,6.6 -0.4,13.2 -0.6,19.7 0,0.8 0.8,1.5 1.6,1.2 0.7,-0.3 1,-0.4 1.6,-1 1.1,-1.1 -0.6,-2.9 -1.7,-1.7 -0.2,0.1 -0.3,0.2 -0.5,0.3 0.5,0.4 1,0.8 1.6,1.2 0.2,-6.6 0.4,-13.2 0.6,-19.7 -0.1,-1.6 -2.6,-1.6 -2.6,0 z"
           id="path84"
           style="fill:#21b24b" />
      </g>
    </g>
    <g
       id="g89"
       transform="translate(0,-20)">
      <g
         id="g88">
        <path
           class="st1"
           d="m 549.3,115 c 3.8,-0.1 7.5,0 11.3,0.4 -0.4,-0.4 -0.8,-0.8 -1.2,-1.2 -0.8,6.6 -0.8,13.2 -0.1,19.8 0.1,0.8 0.7,1.4 1.6,1.2 1.1,-0.2 1.3,-0.4 2,-1.3 1,-1.3 -1.2,-2.5 -2.1,-1.2 -0.2,0 -0.3,0.1 -0.5,0.1 0.5,0.4 1,0.8 1.6,1.2 -0.7,-6.6 -0.7,-13.2 0.1,-19.8 0.1,-0.7 -0.6,-1.2 -1.2,-1.2 -3.8,-0.4 -7.5,-0.5 -11.3,-0.4 -1.8,0 -1.8,2.5 -0.2,2.4 z"
           id="path86"
           style="fill:#21b24b" />
      </g>
    </g>
    <g
       id="g91"
       transform="translate(0,-20)">
      <g
         id="g90">
        <path
           class="st1"
           d="m 560.8,134.1 c 4,1 8.1,1.4 12.2,1.1 1.6,-0.1 1.6,-2.6 0,-2.5 -3.9,0.3 -7.8,0 -11.6,-1 -1.5,-0.4 -2.2,2 -0.6,2.4 z"
           id="path88"
           style="fill:#21b24b" />
      </g>
    </g>
    <g
       id="g93"
       transform="translate(0,-20)">
      <g
         id="g92">
        <path
           class="st1"
           d="m 571,134 c -1,6.9 -0.3,13.5 2.1,20 0.3,0.8 1.1,1.2 1.8,0.7 0.6,-0.3 1.1,-0.6 1.7,-0.9 1.4,-0.8 0.1,-2.9 -1.2,-2.1 -0.6,0.3 -1.1,0.6 -1.7,0.9 0.6,0.2 1.2,0.5 1.8,0.7 -2.2,-6.1 -3.1,-12.3 -2.1,-18.7 0.2,-1.5 -2.2,-2.2 -2.4,-0.6 z"
           id="path90"
           style="fill:#21b24b" />
      </g>
    </g>
    <g
       id="g95"
       transform="translate(0,-20)">
      <g
         id="g94">
        <path
           class="st1"
           d="m 304.3,134.5 c 1.6,0 1.6,-2.5 0,-2.5 -1.6,0 -1.6,2.5 0,2.5 z"
           id="path92"
           style="fill:#21b24b" />
      </g>
    </g>
    <g
       id="g97"
       transform="translate(0,-20)">
      <g
         id="g96">
        <path
           class="st1"
           d="m 302.6,133.2 c -0.7,6.8 -0.7,13.5 0.2,20.3 0.2,1.6 2.7,1.6 2.5,0 -0.9,-6.8 -0.9,-13.5 -0.2,-20.3 0.2,-1.6 -2.3,-1.6 -2.5,0 z"
           id="path94"
           style="fill:#21b24b" />
      </g>
    </g>
    <g
       id="g99"
       transform="translate(0,-20)">
      <g
         id="g98">
        <path
           class="st1"
           d="m 669.8,152.7 c -31.9,0 -63.8,-0.7 -95.6,-0.2 -1.6,0 -1.6,2.5 0,2.5 31.9,-0.5 63.8,0.2 95.6,0.2 1.6,-0.1 1.6,-2.5 0,-2.5 z"
           id="path96"
           style="fill:#21b24b" />
      </g>
    </g>
    <g
       id="g101"
       transform="translate(0,-20)">
      <g
         id="g100">
        <path
           class="st1"
           d="m 117,155.2 c 62.4,-1.4 124.9,-0.7 187.3,1.5 1.6,0.1 1.6,-2.5 0,-2.5 -62.4,-2.1 -124.9,-2.8 -187.3,-1.5 -1.6,0 -1.6,2.5 0,2.5 z"
           id="path98"
           style="fill:#21b24b" />
      </g>
    </g>
    <g
       id="g103"
       transform="translate(0,-20)">
      <g
         id="g102">
        <path
           class="st0"
           d="m 639.4,170.2 c 2.5,-1.4 5,-2.9 7.4,-4.5 0.8,-0.5 0.7,-1.8 -0.3,-2.1 -1.9,-0.5 -3.8,-1 -5.7,-1.5 0.1,0.7 0.2,1.4 0.3,2.1 1.6,-1 3.3,-2.1 4.9,-3.1 1.2,-0.8 0.1,-2.7 -1.1,-1.9 -1.6,1 -3.3,2.1 -4.9,3.1 -0.8,0.5 -0.7,1.8 0.3,2.1 1.9,0.5 3.8,1 5.7,1.5 -0.1,-0.7 -0.2,-1.4 -0.3,-2.1 -2.4,1.6 -4.8,3.1 -7.4,4.5 -1.3,0.7 -0.2,2.6 1.1,1.9 z"
           id="path100"
           style="fill:#8c0000" />
      </g>
    </g>
    <g
       id="g105"
       transform="translate(0,-20)">
      <g
         id="g104">
        <path
           class="st1"
           d="m 482.2,114.9 c 13.5,0.4 27,-0.1 40.5,0 1.6,0 1.6,-2.5 0,-2.5 -13.5,-0.1 -27,0.4 -40.5,0 -1.6,-0.1 -1.6,2.4 0,2.5 z"
           id="path102"
           style="fill:#21b24b" />
      </g>
    </g>
    <g
       id="g107"
       transform="translate(0,-20)">
      <g
         id="g106">
        <path
           class="st1"
           d="m 522.7,94.8 c 8.3,-0.2 17.7,-1.7 25.8,0.2 1.6,0.4 2.2,-2 0.7,-2.4 -8.4,-1.9 -17.9,-0.5 -26.4,-0.3 -1.7,0.1 -1.7,2.6 -0.1,2.5 z"
           id="path104"
           style="fill:#21b24b" />
      </g>
    </g>
    <g
       id="g109"
       transform="translate(0,-20)">
      <g
         id="g108">
        <path
           class="st1"
           d="m 547.6,93.9 c -0.2,6.6 -0.4,13.2 -0.6,19.7 0,0.8 0.8,1.5 1.6,1.2 0.7,-0.3 1,-0.4 1.6,-1 1.1,-1.1 -0.6,-2.9 -1.8,-1.8 -0.2,0.1 -0.3,0.2 -0.5,0.3 0.5,0.4 1,0.8 1.6,1.2 0.2,-6.6 0.4,-13.2 0.6,-19.7 0,-1.5 -2.5,-1.5 -2.5,0.1 z"
           id="path106"
           style="fill:#21b24b" />
      </g>
    </g>
    <g
       id="g111"
       transform="translate(0,-20)">
      <g
         id="g110">
        <path
           class="st1"
           d="m 521.6,93.9 c -0.2,6.6 -0.4,13.2 -0.6,19.7 -0.1,1.6 2.4,1.6 2.5,0 0.2,-6.6 0.4,-13.2 0.6,-19.7 0,-1.6 -2.5,-1.6 -2.5,0 z"
           id="path108"
           style="fill:#21b24b" />
      </g>
    </g>
    <path
       d="m 385.07,171.38 c 0.46,-2.09 0.3,-3.9 -1.53,-5.27 -1.48,-1.11 -4.74,-2.55 -6.64,-2 -5.06,1.5 -5.3,13.17 -4.63,17.16 0.73,4.37 4.6,8.13 9,5.18 3.55,-2.39 4.95,-8.1 -0.62,-8.31 v 1.5 c 3.88,-0.49 3.55,2.19 3.74,5.12 0.06,1 1.56,1 1.5,0 a 37.25,37.25 0 0 0 -0.54,-6.34 0.75,0.75 0 0 0 -0.52,-0.53 c -1.37,-0.37 -2.8,0.08 -4.18,0.25 a 0.75,0.75 0 0 0 0,1.5 q 3.57,2.81 0.49,5 -4.95,3.6 -7.1,-2.43 a 14.51,14.51 0 0 1 -0.26,-6 c 0.18,-1.94 0.13,-4.3 0.87,-6.09 0.3,-2.29 1.82,-3.73 4.55,-4.34 q 4.17,0.6 4.46,5.16 c -0.2,0.94 1.24,1.35 1.45,0.4 z"
       id="path126" />
    <path
       d="m 389.16,181.2 c 3,0.22 7.75,-1.53 6.28,-5.33 -1,-2.67 -3.89,-5.63 -6.75,-3.38 a 5.65,5.65 0 0 0 -1.76,3.9 c -0.29,2 -0.81,4.7 0.07,6.66 1.55,3.46 5.57,5.15 8.84,3.06 0.81,-0.52 0.06,-1.82 -0.76,-1.29 a 4.49,4.49 0 0 1 -6.33,-1.7 c -1,-1.62 -0.66,-3.6 -0.47,-5.38 a 9.55,9.55 0 0 1 0.37,-2.45 c 1.07,-2.69 2.85,-2.24 4.3,-0.66 a 9.44,9.44 0 0 1 0.75,1.15 l -0.91,3.25 c -0.76,0.81 -2.67,0.75 -3.63,0.68 -0.96,-0.07 -1,1.43 0,1.5 z"
       id="path127" />
    <path
       d="m 396.87,173.24 a 84.33,84.33 0 0 0 0.28,12.88 c 0.1,0.95 1.6,1 1.5,0 a 84.33,84.33 0 0 1 -0.24,-12.88 c 0,-1 -1.45,-1 -1.5,0 z"
       id="path128" />
    <path
       d="m 398.49,178.81 a 40.87,40.87 0 0 0 6.37,-4.9 l -1.18,-0.15 c 1.16,2.19 0.5,4.39 0.33,6.7 a 18.14,18.14 0 0 0 0.64,6 0.75208045,0.75208045 0 0 0 1.45,-0.4 22.14,22.14 0 0 1 -0.31,-8 8.46,8.46 0 0 0 -0.82,-5 0.75,0.75 0 0 0 -1.17,-0.15 38.59,38.59 0 0 1 -6.06,4.66 c -0.82,0.51 -0.07,1.81 0.75,1.3 z"
       id="path129" />
    <path
       d="m 408.64,178.37 c -0.61,3.14 -1.53,8.29 2.7,9.4 4.23,1.11 6.19,-3.94 6.53,-7.15 0.34,-3.21 -0.33,-9.4 -4.71,-8.91 -3.85,0.43 -6,4.82 -5.71,8.27 0.08,0.95 1.58,1 1.5,0 -0.18,-2.1 0.45,-4.56 2.34,-5.77 4.35,-2.79 5.22,2.56 5.16,5.34 0,1.84 -0.55,4.77 -2.11,6 -3.21,2.51 -4.83,-0.87 -4.85,-3 a 19.33,19.33 0 0 1 0.6,-3.78 c 0.18,-0.94 -1.27,-1.35 -1.45,-0.4 z"
       id="path130" />
    <path
       d="m 418.23,173.25 0.41,13.41 c 0,1 1.53,1 1.5,0 l -0.41,-13.41 a 0.75,0.75 0 0 0 -1.5,0 z"
       id="path131" />
    <path
       d="m 420.2,177.35 c 0.73,-1.2 2.08,-4.33 3.83,-1.25 0.4,0.7 0.1,2.45 0.11,3.26 0,2.33 0.06,4.65 0.08,7 a 0.75,0.75 0 0 0 1.5,0 c 0,-2.48 0,-5 -0.08,-7.45 0,-1.6 0.22,-4.05 -0.81,-5.45 -2.09,-2.87 -4.93,1.53 -5.92,3.15 -0.51,0.82 0.79,1.58 1.29,0.76 z"
       id="path132" />
    <path
       d="m 426.07,178.25 c 0.59,-0.85 1.74,-3.34 2.65,-3.79 2.15,-1 1.39,2.2 1.37,3.34 0,3.07 -0.29,6.14 -0.54,9.2 -0.07,0.86 1.26,1 1.47,0.2 l 0.09,-0.34 a 0.75,0.75 0 0 0 -1.44,-0.4 l -0.1,0.34 1.48,0.2 c 0.25,-3.06 0.51,-6.13 0.54,-9.2 0,-1.36 0.58,-4.63 -0.51,-5.74 -2.2,-2.22 -5.62,4.44 -6.31,5.44 -0.56,0.79 0.74,1.54 1.3,0.75 z"
       id="path133" />
    <path
       d="m 433.73,182.6 c 3.12,-0.53 7.49,-2.66 8.16,-6.15 0.45,-2.32 -2.92,-6.07 -5.22,-4.25 -2.62,2.06 -4.16,8.22 -3.37,11.32 a 5.3,5.3 0 0 0 2.8,3.51 c 2,0.94 3.8,-0.23 5.87,-0.28 1,0 1,-1.53 0,-1.5 -2.15,0.05 -4.35,1.58 -6.26,-0.32 -1.91,-1.9 -1,-5.55 -0.09,-7.82 0.31,-0.84 2,-5.31 3.89,-2.9 1.18,1.5 0.39,3.29 -0.75,4.39 a 9.88,9.88 0 0 1 -5.43,2.52 c -1,0.16 -0.55,1.6 0.4,1.45 z"
       id="path134" />
    <path
       d="m 179.51,159.03 c 0.2,-2.62 -2.68,-3.49 -4.59,-2.1 -1.91,1.39 -3.17,4.93 -1,6.72 1.73,1.43 4.38,0.58 5.68,-1 2.47,-3 1.94,-8.57 2.26,-12.17 h -1.5 l -0.61,13.37 c 0,1 1.45,1 1.5,0 l 0.61,-13.37 c 0,-1 -1.42,-0.95 -1.5,0 -0.21,2.41 -0.35,4.83 -0.64,7.23 -0.2,1.67 -0.5,3.78 -2.12,4.73 -1.62,0.95 -2.79,0.25 -3.19,-2.32 0.46,-2 1.66,-2.35 3.59,-1.13 -0.08,1 1.42,1 1.5,0 z"
       id="path14" />
    <path
       d="m 184.47,162.86 a 7.83,7.83 0 0 0 2.5,-4.7 l -1.47,-0.2 a 15.22,15.22 0 0 0 1.3,7.41 l 0.27,-1 a 2.67,2.67 0 0 1 -2.53,0.51 v 1.45 a 3,3 0 0 1 2.41,0.1 c 0.87,0.39 1.63,-0.9 0.75,-1.3 a 4.68,4.68 0 0 0 -3.56,-0.25 0.76,0.76 0 0 0 0,1.45 4,4 0 0 0 3.68,-0.66 0.78,0.78 0 0 0 0.27,-1 13.65,13.65 0 0 1 -1.09,-6.65 c 0.06,-0.83 -1.35,-1 -1.48,-0.2 a 6.62,6.62 0 0 1 -2.11,4 c -0.71,0.66 0.36,1.72 1.06,1.06 z"
       id="path15" />
    <path
       d="m 332.2,159.83 c 0.2,-2.62 -2.68,-3.49 -4.59,-2.1 -1.91,1.39 -3.17,4.93 -1,6.71 1.73,1.44 4.38,0.58 5.68,-1 2.47,-3 1.95,-8.57 2.26,-12.17 h -1.5 l -0.64,13.38 c -0.05,1 1.45,1 1.5,0 l 0.61,-13.37 c 0.05,-1 -1.41,-0.95 -1.5,0 -0.21,2.41 -0.35,4.83 -0.64,7.23 -0.2,1.67 -0.5,3.78 -2.12,4.73 -1.62,0.95 -2.78,0.25 -3.17,-2.28 q 0.69,-3 3.59,-1.13 c -0.08,1 1.42,0.95 1.5,0 z"
       id="path16" />
    <path
       d="m 338.41,160.25 c 0.29,-1.52 2.27,-1.05 1.86,0.32 a 3.72,3.72 0 0 1 -1.2,1.42 5,5 0 0 0 -1.92,2.73 0.76,0.76 0 0 0 0.72,0.95 13.45,13.45 0 0 0 5,-0.45 0.75208045,0.75208045 0 0 0 -0.4,-1.45 12.15,12.15 0 0 1 -4.61,0.4 l 0.73,0.95 c 0.38,-2.18 3.88,-2.89 3.17,-5.53 a 2.46,2.46 0 0 0 -4.8,0.26 c -0.18,0.94 1.26,1.35 1.44,0.4 z"
       id="path17" />
    <path
       d="m 587.82,157.73 0.06,6.33 a 0.76,0.76 0 0 0 0.75,0.75 h 3.66 a 0.76,0.76 0 0 0 0.72,-0.55 1.28,1.28 0 0 0 -1.58,-1.6 c -0.95,0.2 -0.55,1.64 0.4,1.45 l -0.27,-0.25 0.73,-0.55 h -3.66 l 0.75,0.75 -0.06,-6.33 a 0.75,0.75 0 0 0 -1.5,0 z"
       id="path18" />
    <path
       d="m 584.41,159.59 c 0.21,-2.61 -2.67,-3.48 -4.58,-2.1 -1.91,1.38 -3.17,4.93 -1,6.72 1.73,1.44 4.38,0.58 5.68,-1 2.47,-3 1.94,-8.57 2.26,-12.18 h -1.5 l -0.61,13.37 c -0.05,1 1.45,1 1.5,0 l 0.61,-13.37 c 0,-1 -1.42,-0.94 -1.5,0 -0.21,2.41 -0.35,4.84 -0.64,7.24 -0.21,1.67 -0.5,3.78 -2.13,4.73 -1.63,0.95 -2.77,0.25 -3.17,-2.28 q 0.71,-3 3.59,-1.14 c -0.07,1 1.43,1 1.5,0 z"
       id="path19" />
  </g>
  <metadata
     id="metadata134">
    <rdf:RDF>
      <cc:Work
         rdf:about="">
        <dc:title>sel_hmm</dc:title>
      </cc:Work>
    </rdf:RDF>
  </metadata>
</svg>
