<?xml version="1.0" encoding="UTF-8" standalone="no"?>
<svg
   viewBox="0 0 699.99999 200"
   version="1.1"
   id="svg134"
   sodipodi:docname="selection_proposal_grid.svg"
   inkscape:version="1.3.2 (091e20e, 2023-11-25)"
   width="700"
   height="200"
   xmlns:inkscape="http://www.inkscape.org/namespaces/inkscape"
   xmlns:sodipodi="http://sodipodi.sourceforge.net/DTD/sodipodi-0.dtd"
   xmlns="http://www.w3.org/2000/svg"
   xmlns:svg="http://www.w3.org/2000/svg"
   xmlns:rdf="http://www.w3.org/1999/02/22-rdf-syntax-ns#"
   xmlns:cc="http://creativecommons.org/ns#"
   xmlns:dc="http://purl.org/dc/elements/1.1/">
  <sodipodi:namedview
     id="namedview134"
     pagecolor="#ffffff"
     bordercolor="#000000"
     borderopacity="0.25"
     inkscape:showpageshadow="2"
     inkscape:pageopacity="0.0"
     inkscape:pagecheckerboard="0"
     inkscape:deskcolor="#d1d1d1"
     inkscape:zoom="0.79360047"
     inkscape:cx="243.19542"
     inkscape:cy="175.78115"
     inkscape:window-width="1384"
     inkscape:window-height="718"
     inkscape:window-x="60"
     inkscape:window-y="126"
     inkscape:window-maximized="0"
     inkscape:current-layer="Layer_1" />
  <defs
     id="defs1">
    <style
       id="style1">.cls-1{fill:#8c0000;}</style>
  </defs>
  <title
     id="title1">sel_hmm</title>
  <g
     id="Layer_1"
     data-name="Layer 1">
    <g
       id="g3"
       transform="matrix(1,0,0,0.86986208,0,1.57855)">
      <g
         id="g2">
        <path
           d="m 113.1,13.1 c 0.2,21.8 1,43.6 0.7,65.4 -0.4,28.9 -0.3,57.7 0.5,86.6 0,0.9 1.5,1 1.5,0 -0.8,-28.9 -0.9,-57.7 -0.5,-86.6 0.3,-21.8 -0.5,-43.6 -0.7,-65.4 0,-0.9 -1.5,-0.9 -1.5,0 z"
           id="path1-3" />
      </g>
    </g>
    <g
       id="g5"
       transform="translate(0,-20)">
      <g
         id="g4">
        <path
           d="m 113.2,152.1 c -1.1,0 -2.3,0 -3.4,0 -1.3,0 -1.3,1.9 0,1.9 1.1,0 2.3,0 3.4,0 1.2,0.1 1.2,-1.9 0,-1.9 z"
           id="path2-4" />
      </g>
    </g>
    <g
       id="g7"
       transform="translate(0,-20)">
      <g
         id="g6">
        <path
           d="m 113.2,132.1 c -1.1,0 -2.3,0 -3.4,0 -1.3,0 -1.3,1.9 0,1.9 1.1,0 2.3,0 3.4,0 1.2,0.1 1.2,-1.9 0,-1.9 z"
           id="path4-8" />
      </g>
    </g>
    <g
       id="g9"
       transform="translate(0,-20)">
      <g
         id="g8">
        <path
           d="m 113.2,112.1 c -1.1,0 -2.3,0 -3.4,0 -1.3,0 -1.3,1.9 0,1.9 1.1,0 2.3,0 3.4,0 1.2,0.1 1.2,-1.9 0,-1.9 z"
           id="path6-6" />
      </g>
    </g>
    <g
       id="g11"
       transform="translate(0,-20)">
      <g
         id="g10">
        <path
           d="m 113.2,92.1 c -1.1,0 -2.3,0 -3.4,0 -1.3,0 -1.3,1.9 0,1.9 1.1,0 2.3,0 3.4,0 1.2,0.1 1.2,-1.9 0,-1.9 z"
           id="path8-1" />
      </g>
    </g>
    <g
       id="g13"
       transform="translate(0,-20)">
      <g
         id="g12">
        <path
           d="m 113.2,72.1 c -1.1,0 -2.3,0 -3.4,0 -1.3,0 -1.3,1.9 0,1.9 1.1,0 2.3,0 3.4,0 1.2,0.1 1.2,-1.9 0,-1.9 z"
           id="path10-1" />
      </g>
    </g>
    <g
       id="g15"
       transform="translate(0,-20)">
      <g
         id="g14">
        <path
           d="m 113.2,52.1 c -1.1,0 -2.3,0 -3.4,0 -1.3,0 -1.3,1.9 0,1.9 1.1,0 2.3,0 3.4,0 1.2,0.1 1.2,-1.9 0,-1.9 z"
           id="path12-5" />
      </g>
    </g>
    <g
       id="g17"
       transform="translate(0,-20)">
      <g
         id="g16">
        <path
           d="m 113.2,32.1 c -1.1,0 -2.3,0 -3.4,0 -1.3,0 -1.3,1.9 0,1.9 1.1,0 2.3,0 3.4,0 1.2,0.1 1.2,-1.9 0,-1.9 z"
           id="path14-6" />
      </g>
    </g>
    <g
       id="g29"
       transform="translate(-20,2)">
      <g
         id="g28">
        <path
           d="m 65,59.7 c -2.6,-4 -9.1,0.2 -7.7,4.4 0.9,2.7 3.7,2.6 5.9,3.2 1.6,0.4 3,1.1 3.5,2.9 0.7,2.7 -1.7,5.4 -4.8,4.5 -1.3,-0.4 -1.8,-1.2 -3.4,-1.2 -1.2,0 -1.3,2 0,1.9 2.6,-0.1 3.8,2.6 6.6,1.3 1.9,-0.9 3.4,-3 3.6,-5.1 0.2,-2 -0.8,-4.1 -2.4,-5.2 -0.9,-0.7 -2,-0.9 -3,-1.1 -0.7,-0.1 -1.4,-0.1 -2,-0.4 -0.4,-0.1 -0.8,-0.3 -1.2,-0.4 -0.9,-3.7 0.2,-5.1 3.3,-4 0.6,1.2 2.3,0.3 1.6,-0.8 z"
           id="path26-6" />
      </g>
    </g>
    <g
       id="g31"
       transform="translate(-20,2)">
      <g
         id="g30">
        <path
           d="m 53.7,53 c -0.2,8.4 0,16.8 0.6,25.2 0.1,1.2 2,1.3 1.9,0 -0.6,-8.4 -0.8,-16.8 -0.6,-25.2 0.1,-1.3 -1.9,-1.3 -1.9,0 z"
           id="path28-7" />
      </g>
    </g>
    <g
       id="g33"
       transform="translate(-20,2)">
      <g
         id="g32">
        <path
           d="m 70.5,53.1 c -0.2,8.2 -1.1,16.8 -0.2,25 0.1,1.2 2.1,1.2 1.9,0 -1,-8.1 0,-16.8 0.2,-25 0.1,-1.3 -1.8,-1.3 -1.9,0 z"
           id="path30-6" />
      </g>
    </g>
    <g
       id="g35"
       transform="translate(-20,2)">
      <g
         id="g34">
        <path
           d="m 51.5,90.3 c -4.3,-7.2 -13.3,1.4 -9.6,7.7 1.7,2.9 5.4,1.3 7.5,-0.3 3,-2.3 4.2,-6.1 2.2,-9.5 -0.6,-1 -2,-0.3 -1.8,0.7 0.6,2.8 1.4,5.7 2,8.5 0.5,2.4 -0.2,4.5 -2.4,5.7 -0.2,0.1 -5.4,2.1 -5.4,1.8 -0.1,0.4 -0.3,0.7 -0.4,1.1 0.1,-0.1 0.1,-0.1 0.2,-0.2 1,-0.8 0,-2.4 -1,-1.7 -0.1,0.1 -0.1,0.1 -0.2,0.2 -0.4,0.3 -0.5,0.6 -0.4,1.1 0,0.1 0,0.2 0,0.3 0.1,0.3 0.4,0.6 0.7,0.7 3.2,0.9 8.2,-1.2 10.2,-3.8 1,-1.5 1.1,-2.9 0.9,-4.6 -0.4,-3.2 -1.5,-6.5 -2.2,-9.6 -0.6,0.2 -1.2,0.5 -1.8,0.7 1.2,2.1 0.7,4.6 -1,6.3 -1.1,1.1 -3.9,2.9 -5.5,1.3 -2.9,-2.9 3.2,-10.9 6.4,-5.5 0.5,1.1 2.2,0.1 1.6,-0.9 z"
           id="path32-1" />
      </g>
    </g>
    <g
       id="g37"
       transform="translate(-20,2)">
      <g
         id="g36">
        <path
           d="m 57,91.5 c 0,-0.7 0.2,-1.4 0.5,-2 1,-0.5 1.8,-0.5 2.6,0.1 0.4,0.1 0.7,0.2 1.1,0.2 1,-0.1 1.5,-0.6 1.9,-1.5 -0.6,-0.2 -1.3,-0.3 -1.9,-0.5 -0.6,2.1 -1.2,4.3 -1.9,6.4 -0.4,1.3 -1.4,3.2 -0.7,4.6 1.3,2.5 4,0.4 5,-1 0.7,-1 -1,-2 -1.7,-1 -0.3,0.8 -0.8,0.9 -1.5,0.3 0.1,-0.3 0.2,-0.5 0.2,-0.8 0,-0.8 0.6,-2 0.8,-2.8 0.5,-1.7 1,-3.5 1.5,-5.2 0.4,-1.2 -1.5,-1.7 -1.9,-0.5 0,0.1 -2,-0.9 -2.3,-0.9 -0.7,-0.1 -1.4,0.1 -1.9,0.4 -1.5,0.9 -1.7,2.6 -1.9,4.2 0,1.3 1.9,1.3 2.1,0 z"
           id="path34-2" />
      </g>
    </g>
    <g
       id="g39"
       transform="translate(-20,2)">
      <g
         id="g38">
        <path
           d="m 65.9,87.7 c -0.1,2.1 -0.3,4.1 -0.4,6.2 -0.1,1.3 -0.7,3.8 -0.2,5 0.9,2.3 3.6,-0.4 4.7,-1.1 1,-0.7 0.1,-2.4 -1,-1.7 -0.6,0.4 -2.4,1.2 -2.6,1.8 0.3,0.1 0.5,0.3 0.8,0.4 0,-0.3 0,-0.6 0.1,-0.9 0.2,-0.6 0.1,-1.5 0.1,-2.2 0.2,-2.5 0.3,-5 0.5,-7.5 0,-1.3 -1.9,-1.3 -2,0 z"
           id="path36-1" />
      </g>
    </g>
    <g
       id="g41"
       transform="translate(-20,2)">
      <g
         id="g40">
        <path
           d="m 65.9,82.5 c 0,0.4 0.1,0.7 0.1,1.1 0.1,1.2 1.9,1.3 1.9,0 0,0 0,-0.1 0,-0.1 0,0.2 -0.1,0.3 -0.1,0.5 0,0 0,0 0,-0.1 -0.1,0.1 -0.2,0.2 -0.3,0.3 -0.1,0 -0.3,0.1 -0.4,0.1 -0.1,-0.1 -0.3,-0.2 -0.4,-0.3 0,0 0,-0.1 -0.1,-0.1 0,-0.2 -0.1,-0.3 -0.1,-0.5 0,0 0,0.1 0,0.1 0,1.3 2,1.3 1.9,0 0,-1.5 -2.4,-1.6 -2.4,0 0.6,0 1.3,0 1.9,0 0,-0.4 -0.1,-0.7 -0.1,-1.1 0,-0.5 -0.4,-1 -1,-1 -0.5,0.1 -1,0.5 -0.9,1.1 z"
           id="path38-3" />
      </g>
    </g>
    <g
       id="g43"
       transform="translate(-20,2)">
      <g
         id="g42">
        <path
           d="m 81.4,89.3 c 0.2,-3.4 -4.7,-4 -7,-2.5 -3.2,2.1 -2.8,7.3 -1.4,10.3 1.4,2.9 4.3,4.3 6.8,1.6 1.6,-1.8 1.7,-4.2 1.8,-6.5 0.1,-3.8 -0.2,-7.6 -0.3,-11.4 -0.6,0 -1.3,0 -1.9,0 0.8,6.3 1.2,12.7 1.5,19 0,1.2 2,1.3 1.9,0 -0.2,-6.4 -0.7,-12.7 -1.5,-19 -0.1,-1.2 -2,-1.3 -1.9,0 0.1,3.8 0.5,7.6 0.3,11.4 0.1,1.6 -0.2,3.2 -0.9,4.7 -2.6,1.3 -4,0.7 -4.4,-1.5 -0.3,-1 -0.5,-2.1 -0.5,-3.1 0,-3.3 1.8,-4.3 5.6,-2.8 -0.1,1.1 1.8,1.1 1.9,-0.2 z"
           id="path40-6" />
      </g>
    </g>
    <g
       id="g45"
       transform="translate(0,-20)">
      <g
         id="g44">
        <path
           d="m 93.8,152.7 c -0.5,3.8 0.2,8.4 4.7,9.1 3.6,0.6 6.4,-2.3 6.9,-5.7 0.4,-3.1 -0.8,-9.6 -4.4,-10.7 -4.7,-1.4 -6.2,5.4 -7.1,8.4 -0.3,0.9 1.1,1.3 1.4,0.4 0.6,-2 1.5,-6.9 4.1,-7.3 3.1,-0.5 4.1,4.5 4.4,6.6 0.4,2.7 -0.3,6.2 -3.5,6.9 -4.5,1 -5.6,-4 -5.2,-7.2 0.2,-1 -1.2,-1.4 -1.3,-0.5 z"
           id="path42" />
      </g>
    </g>
    <g
       id="g47"
       transform="matrix(1.3281272,0,0,1.3281272,-37.05344,-1.132039)">
      <g
         id="g46">
        <path
           d="M 88.4,5.8 C 88.2,1.9 83.5,4.4 83.1,7 c -0.2,1.5 0.2,3.1 1.5,3.8 1.3,0.7 2.7,0.1 3.7,1.6 0.4,0.6 0.5,1.3 0.4,2 0.2,0.8 -0.3,1.2 -1.4,1.2 -1,0.3 -1.9,0.4 -2.9,0.3 -0.8,0 -0.8,1.2 0,1.2 2.7,0.1 6.4,-0.4 5.5,-3.8 C 89.6,12 89,10.8 87.7,10.3 87.1,10 86.2,10.2 85.7,9.8 84.8,9.3 84.1,7.9 84.4,6.9 c 0.1,-0.6 2.7,-3.3 2.7,-1.2 0.1,0.9 1.3,0.9 1.3,0.1 z"
           id="path44" />
      </g>
    </g>
    <g
       id="g49"
       transform="matrix(1.3281272,0,0,1.3281272,-37.05344,-1.132039)">
      <g
         id="g48">
        <path
           d="m 92.5,14.2 c 0.1,1.9 0,3.7 -0.1,5.6 0.4,0 0.7,0 1.1,0 0,-0.9 0,-1.8 0.2,-2.7 0.1,-0.4 0.4,-2 0.8,-2.1 -0.2,0 -0.3,-0.1 -0.5,-0.1 0.5,0.5 0.6,1.7 0.7,2.3 0.1,0.8 0,1.6 -0.1,2.4 0.3,0 0.7,0.1 1,0.1 0,-0.9 -0.2,-4.3 1.1,-4.4 1.3,0 0.7,3.4 0.5,4.2 -0.1,0.7 0.9,1 1,0.3 0.3,-1.4 1,-5.4 -1.3,-5.7 -2.5,-0.4 -2.5,4.2 -2.4,5.6 0,0.6 0.9,0.8 1,0.1 0.2,-1.1 0.2,-2.1 0.1,-3.2 -0.1,-0.8 -0.3,-2 -1,-2.6 -0.1,-0.1 -0.3,-0.2 -0.5,-0.1 -0.9,0.3 -1.1,1.4 -1.4,2.2 -0.3,1.2 -0.5,2.4 -0.4,3.7 0,0.7 1,0.7 1.1,0 0.2,-1.9 0.2,-3.7 0.1,-5.6 0.1,-0.7 -1,-0.7 -1,0 z"
           id="path46" />
      </g>
    </g>
    <g
       id="g51"
       transform="matrix(1.3281272,0,0,1.3281272,-37.05344,-1.132039)">
      <g
         id="g50">
        <path
           d="m 102.7,16 c 0,-1.2 -0.9,-2.9 -2.3,-2 -1.3,0.8 -1.7,3 -1.5,4.4 0.1,1.1 1,2.3 2.2,1.5 1.6,-1.2 1.2,-4.1 1.1,-5.8 -0.3,0 -0.6,0 -0.9,0 0.1,1.2 0.3,2.3 0.4,3.5 0.1,0.8 0.1,1.7 0.4,2.4 0.1,0.1 0.2,0.2 0.4,0.2 0,0 0.1,0 0.1,0 0.2,0 0.4,-0.1 0.4,-0.3 0,-0.1 0,-0.1 0.1,-0.2 0.2,-0.6 -0.7,-0.8 -0.9,-0.2 0,0.1 0,0.1 -0.1,0.2 0.1,-0.1 0.3,-0.2 0.4,-0.3 0.2,0 -0.4,-4.8 -0.4,-5.2 -0.1,-0.6 -0.9,-0.6 -0.9,0 0,0.9 0.1,1.9 0,2.8 0,0.5 -0.6,3.3 -1.4,1.8 -0.3,-0.6 0,-1.8 0.1,-2.4 0.1,-0.4 0.3,-0.7 0.5,-1 0.7,-1.1 1.3,-0.2 1.3,0.7 0.1,0.5 1,0.5 1,-0.1 z"
           id="path48" />
      </g>
    </g>
    <g
       id="g53"
       transform="matrix(1.3281272,0,0,1.3281272,-37.05344,-1.132039)">
      <g
         id="g52">
        <path
           d="m 102.9,14.4 c 0.4,1.6 1.1,3.1 2.1,4.4 0.4,0.5 1.5,2 1.8,0.6 0.2,-0.6 -0.7,-0.8 -0.9,-0.2 0.1,-0.4 0.2,-0.1 0,-0.5 -0.1,-0.2 -0.3,-0.4 -0.4,-0.6 -0.3,-0.4 -0.5,-0.7 -0.7,-1.1 -0.5,-0.9 -0.9,-1.8 -1.1,-2.9 0,-0.5 -0.9,-0.3 -0.8,0.3 z"
           id="path50" />
      </g>
    </g>
    <g
       id="g55"
       transform="matrix(1.3281272,0,0,1.3281272,-37.05344,-1.132039)">
      <g
         id="g54">
        <path
           d="m 105.1,13.3 c -0.9,2 -1.5,4.2 -2,6.3 -0.1,0.6 0.7,0.8 0.9,0.2 0.4,-2.1 1,-4.1 1.9,-6.1 0.2,-0.5 -0.5,-0.9 -0.8,-0.4 z"
           id="path52" />
      </g>
    </g>
    <g
       id="g57"
       transform="matrix(1.3281272,0,0,1.3281272,-37.05344,-1.132039)">
      <g
         id="g56">
        <path
           d="m 80.4,3.9 c 0.3,4.8 0.7,9.6 0.5,14.4 0,0.6 0.9,0.6 0.9,0 0.2,-4.8 -0.2,-9.6 -0.5,-14.4 0,-0.6 -0.9,-0.6 -0.9,0 z"
           id="path54" />
      </g>
    </g>
    <g
       id="g59"
       transform="matrix(1.3281272,0,0,1.3281272,-37.05344,-1.132039)">
      <g
         id="g58">
        <path
           d="m 90.4,3.9 c 0.3,4.8 0.7,9.6 0.5,14.4 0,0.6 0.9,0.6 0.9,0 0.2,-4.8 -0.2,-9.6 -0.5,-14.4 0,-0.6 -0.9,-0.6 -0.9,0 z"
           id="path56" />
      </g>
    </g>
  </g>
  <metadata
     id="metadata134">
    <rdf:RDF>
      <cc:Work
         rdf:about="">
        <dc:title>sel_hmm</dc:title>
      </cc:Work>
    </rdf:RDF>
  </metadata>
</svg>
