<?xml version="1.0" encoding="UTF-8" standalone="no"?>
<svg
   viewBox="0 0 699.99999 200"
   version="1.1"
   id="svg134"
   sodipodi:docname="selection_proposal_genome.svg"
   inkscape:version="1.3.2 (091e20e, 2023-11-25)"
   width="700"
   height="200"
   xmlns:inkscape="http://www.inkscape.org/namespaces/inkscape"
   xmlns:sodipodi="http://sodipodi.sourceforge.net/DTD/sodipodi-0.dtd"
   xmlns="http://www.w3.org/2000/svg"
   xmlns:svg="http://www.w3.org/2000/svg"
   xmlns:rdf="http://www.w3.org/1999/02/22-rdf-syntax-ns#"
   xmlns:cc="http://creativecommons.org/ns#"
   xmlns:dc="http://purl.org/dc/elements/1.1/">
  <sodipodi:namedview
     id="namedview134"
     pagecolor="#ffffff"
     bordercolor="#000000"
     borderopacity="0.25"
     inkscape:showpageshadow="2"
     inkscape:pageopacity="0.0"
     inkscape:pagecheckerboard="0"
     inkscape:deskcolor="#d1d1d1"
     inkscape:zoom="0.79360047"
     inkscape:cx="243.19542"
     inkscape:cy="175.78115"
     inkscape:window-width="1384"
     inkscape:window-height="718"
     inkscape:window-x="60"
     inkscape:window-y="126"
     inkscape:window-maximized="0"
     inkscape:current-layer="Layer_1" />
  <defs
     id="defs1">
    <style
       id="style1">.cls-1{fill:#8c0000;}</style>
  </defs>
  <title
     id="title1">sel_hmm</title>
  <g
     id="Layer_1"
     data-name="Layer 1">
    <g
       id="g21"
       transform="translate(0,-20)">
      <g
         id="g20">
        <path
           d="m 115.4,166.4 c 78.2,-0.1 156.4,-0.1 234.6,0 56.5,0.1 113.1,0.2 169.6,0.3 50.1,0.1 100.1,0.1 150.2,0.2 1.1,0 1.1,-1.7 0,-1.7 -76.9,0 -153.9,-0.1 -230.8,-0.3 -56.9,-0.1 -113.8,-0.2 -170.7,-0.3 -51,0 -101.9,0 -152.9,0 -1.1,0.1 -1.1,1.8 0,1.8 z"
           id="path18-8" />
      </g>
    </g>
    <g
       id="g23"
       transform="translate(0,-20)">
      <g
         id="g22">
        <path
           class="st0"
           d="m 264.4,158 c -1.7,1.4 -3.3,2.7 -5,4.1 -0.7,0.6 -0.1,2 0.8,1.9 2.2,-0.1 4.3,-0.2 6.5,-0.4 -0.3,-0.6 -0.6,-1.1 -1,-1.7 -1.4,1.9 -3,3.5 -4.8,5 -1.1,0.9 0.5,2.5 1.6,1.6 2,-1.6 3.6,-3.4 5.1,-5.4 0.5,-0.7 -0.2,-1.7 -1,-1.7 -2.2,0.1 -4.3,0.2 -6.5,0.4 0.3,0.6 0.5,1.3 0.8,1.9 1.7,-1.4 3.3,-2.7 5,-4.1 1.2,-0.9 -0.4,-2.5 -1.5,-1.6 z"
           id="path20-0"
           style="fill:#8c0000" />
      </g>
    </g>
    <g
       id="g25"
       transform="translate(0,-20)">
      <g
         id="g24">
        <path
           class="st0"
           d="m 407.5,157.1 c -1.9,1.5 -3.8,3 -5.8,4.4 -0.9,0.7 -0.6,2 0.6,2.1 2.1,0.2 4.2,0.3 6.2,0.5 -0.3,-0.6 -0.5,-1.3 -0.8,-1.9 -1.7,1.5 -3.4,3 -5.1,4.5 -1.1,0.9 0.5,2.5 1.6,1.6 1.7,-1.5 3.4,-3 5.1,-4.5 0.8,-0.7 0.1,-1.8 -0.8,-1.9 -2.1,-0.2 -4.2,-0.3 -6.2,-0.5 0.2,0.7 0.4,1.4 0.6,2.1 1.9,-1.5 3.8,-3 5.8,-4.4 1.1,-0.9 0,-2.9 -1.2,-2 z"
           id="path22-2"
           style="fill:#8c0000" />
      </g>
    </g>
    <g
       id="g27"
       transform="translate(0,-20)">
      <g
         id="g26">
        <path
           class="st0"
           d="m 529.4,170.2 c 2.5,-1.4 5,-2.9 7.4,-4.5 0.8,-0.5 0.7,-1.8 -0.3,-2.1 -1.9,-0.5 -3.8,-1 -5.7,-1.5 0.1,0.7 0.2,1.4 0.3,2.1 1.6,-1 3.3,-2.1 4.9,-3.1 1.2,-0.8 0.1,-2.7 -1.1,-1.9 -1.6,1 -3.3,2.1 -4.9,3.1 -0.8,0.5 -0.7,1.8 0.3,2.1 1.9,0.5 3.8,1 5.7,1.5 -0.1,-0.7 -0.2,-1.4 -0.3,-2.1 -2.4,1.6 -4.8,3.1 -7.4,4.5 -1.3,0.7 -0.2,2.6 1.1,1.9 z"
           id="path24-2"
           style="fill:#8c0000" />
      </g>
    </g>
    <g
       id="g103"
       transform="translate(0,-20)">
      <g
         id="g102">
        <path
           class="st0"
           d="m 639.4,170.2 c 2.5,-1.4 5,-2.9 7.4,-4.5 0.8,-0.5 0.7,-1.8 -0.3,-2.1 -1.9,-0.5 -3.8,-1 -5.7,-1.5 0.1,0.7 0.2,1.4 0.3,2.1 1.6,-1 3.3,-2.1 4.9,-3.1 1.2,-0.8 0.1,-2.7 -1.1,-1.9 -1.6,1 -3.3,2.1 -4.9,3.1 -0.8,0.5 -0.7,1.8 0.3,2.1 1.9,0.5 3.8,1 5.7,1.5 -0.1,-0.7 -0.2,-1.4 -0.3,-2.1 -2.4,1.6 -4.8,3.1 -7.4,4.5 -1.3,0.7 -0.2,2.6 1.1,1.9 z"
           id="path100"
           style="fill:#8c0000" />
      </g>
    </g>
    <path
       d="m 385.07,171.38 c 0.46,-2.09 0.3,-3.9 -1.53,-5.27 -1.48,-1.11 -4.74,-2.55 -6.64,-2 -5.06,1.5 -5.3,13.17 -4.63,17.16 0.73,4.37 4.6,8.13 9,5.18 3.55,-2.39 4.95,-8.1 -0.62,-8.31 v 1.5 c 3.88,-0.49 3.55,2.19 3.74,5.12 0.06,1 1.56,1 1.5,0 a 37.25,37.25 0 0 0 -0.54,-6.34 0.75,0.75 0 0 0 -0.52,-0.53 c -1.37,-0.37 -2.8,0.08 -4.18,0.25 a 0.75,0.75 0 0 0 0,1.5 q 3.57,2.81 0.49,5 -4.95,3.6 -7.1,-2.43 a 14.51,14.51 0 0 1 -0.26,-6 c 0.18,-1.94 0.13,-4.3 0.87,-6.09 0.3,-2.29 1.82,-3.73 4.55,-4.34 q 4.17,0.6 4.46,5.16 c -0.2,0.94 1.24,1.35 1.45,0.4 z"
       id="path126" />
    <path
       d="m 389.16,181.2 c 3,0.22 7.75,-1.53 6.28,-5.33 -1,-2.67 -3.89,-5.63 -6.75,-3.38 a 5.65,5.65 0 0 0 -1.76,3.9 c -0.29,2 -0.81,4.7 0.07,6.66 1.55,3.46 5.57,5.15 8.84,3.06 0.81,-0.52 0.06,-1.82 -0.76,-1.29 a 4.49,4.49 0 0 1 -6.33,-1.7 c -1,-1.62 -0.66,-3.6 -0.47,-5.38 a 9.55,9.55 0 0 1 0.37,-2.45 c 1.07,-2.69 2.85,-2.24 4.3,-0.66 a 9.44,9.44 0 0 1 0.75,1.15 l -0.91,3.25 c -0.76,0.81 -2.67,0.75 -3.63,0.68 -0.96,-0.07 -1,1.43 0,1.5 z"
       id="path127" />
    <path
       d="m 396.87,173.24 a 84.33,84.33 0 0 0 0.28,12.88 c 0.1,0.95 1.6,1 1.5,0 a 84.33,84.33 0 0 1 -0.24,-12.88 c 0,-1 -1.45,-1 -1.5,0 z"
       id="path128" />
    <path
       d="m 398.49,178.81 a 40.87,40.87 0 0 0 6.37,-4.9 l -1.18,-0.15 c 1.16,2.19 0.5,4.39 0.33,6.7 a 18.14,18.14 0 0 0 0.64,6 0.75208045,0.75208045 0 0 0 1.45,-0.4 22.14,22.14 0 0 1 -0.31,-8 8.46,8.46 0 0 0 -0.82,-5 0.75,0.75 0 0 0 -1.17,-0.15 38.59,38.59 0 0 1 -6.06,4.66 c -0.82,0.51 -0.07,1.81 0.75,1.3 z"
       id="path129" />
    <path
       d="m 408.64,178.37 c -0.61,3.14 -1.53,8.29 2.7,9.4 4.23,1.11 6.19,-3.94 6.53,-7.15 0.34,-3.21 -0.33,-9.4 -4.71,-8.91 -3.85,0.43 -6,4.82 -5.71,8.27 0.08,0.95 1.58,1 1.5,0 -0.18,-2.1 0.45,-4.56 2.34,-5.77 4.35,-2.79 5.22,2.56 5.16,5.34 0,1.84 -0.55,4.77 -2.11,6 -3.21,2.51 -4.83,-0.87 -4.85,-3 a 19.33,19.33 0 0 1 0.6,-3.78 c 0.18,-0.94 -1.27,-1.35 -1.45,-0.4 z"
       id="path130" />
    <path
       d="m 418.23,173.25 0.41,13.41 c 0,1 1.53,1 1.5,0 l -0.41,-13.41 a 0.75,0.75 0 0 0 -1.5,0 z"
       id="path131" />
    <path
       d="m 420.2,177.35 c 0.73,-1.2 2.08,-4.33 3.83,-1.25 0.4,0.7 0.1,2.45 0.11,3.26 0,2.33 0.06,4.65 0.08,7 a 0.75,0.75 0 0 0 1.5,0 c 0,-2.48 0,-5 -0.08,-7.45 0,-1.6 0.22,-4.05 -0.81,-5.45 -2.09,-2.87 -4.93,1.53 -5.92,3.15 -0.51,0.82 0.79,1.58 1.29,0.76 z"
       id="path132" />
    <path
       d="m 426.07,178.25 c 0.59,-0.85 1.74,-3.34 2.65,-3.79 2.15,-1 1.39,2.2 1.37,3.34 0,3.07 -0.29,6.14 -0.54,9.2 -0.07,0.86 1.26,1 1.47,0.2 l 0.09,-0.34 a 0.75,0.75 0 0 0 -1.44,-0.4 l -0.1,0.34 1.48,0.2 c 0.25,-3.06 0.51,-6.13 0.54,-9.2 0,-1.36 0.58,-4.63 -0.51,-5.74 -2.2,-2.22 -5.62,4.44 -6.31,5.44 -0.56,0.79 0.74,1.54 1.3,0.75 z"
       id="path133" />
    <path
       d="m 433.73,182.6 c 3.12,-0.53 7.49,-2.66 8.16,-6.15 0.45,-2.32 -2.92,-6.07 -5.22,-4.25 -2.62,2.06 -4.16,8.22 -3.37,11.32 a 5.3,5.3 0 0 0 2.8,3.51 c 2,0.94 3.8,-0.23 5.87,-0.28 1,0 1,-1.53 0,-1.5 -2.15,0.05 -4.35,1.58 -6.26,-0.32 -1.91,-1.9 -1,-5.55 -0.09,-7.82 0.31,-0.84 2,-5.31 3.89,-2.9 1.18,1.5 0.39,3.29 -0.75,4.39 a 9.88,9.88 0 0 1 -5.43,2.52 c -1,0.16 -0.55,1.6 0.4,1.45 z"
       id="path134" />
    <path
       d="m 179.51,159.03 c 0.2,-2.62 -2.68,-3.49 -4.59,-2.1 -1.91,1.39 -3.17,4.93 -1,6.72 1.73,1.43 4.38,0.58 5.68,-1 2.47,-3 1.94,-8.57 2.26,-12.17 h -1.5 l -0.61,13.37 c 0,1 1.45,1 1.5,0 l 0.61,-13.37 c 0,-1 -1.42,-0.95 -1.5,0 -0.21,2.41 -0.35,4.83 -0.64,7.23 -0.2,1.67 -0.5,3.78 -2.12,4.73 -1.62,0.95 -2.79,0.25 -3.19,-2.32 0.46,-2 1.66,-2.35 3.59,-1.13 -0.08,1 1.42,1 1.5,0 z"
       id="path14" />
    <path
       d="m 184.47,162.86 a 7.83,7.83 0 0 0 2.5,-4.7 l -1.47,-0.2 a 15.22,15.22 0 0 0 1.3,7.41 l 0.27,-1 a 2.67,2.67 0 0 1 -2.53,0.51 v 1.45 a 3,3 0 0 1 2.41,0.1 c 0.87,0.39 1.63,-0.9 0.75,-1.3 a 4.68,4.68 0 0 0 -3.56,-0.25 0.76,0.76 0 0 0 0,1.45 4,4 0 0 0 3.68,-0.66 0.78,0.78 0 0 0 0.27,-1 13.65,13.65 0 0 1 -1.09,-6.65 c 0.06,-0.83 -1.35,-1 -1.48,-0.2 a 6.62,6.62 0 0 1 -2.11,4 c -0.71,0.66 0.36,1.72 1.06,1.06 z"
       id="path15" />
    <path
       d="m 332.2,159.83 c 0.2,-2.62 -2.68,-3.49 -4.59,-2.1 -1.91,1.39 -3.17,4.93 -1,6.71 1.73,1.44 4.38,0.58 5.68,-1 2.47,-3 1.95,-8.57 2.26,-12.17 h -1.5 l -0.64,13.38 c -0.05,1 1.45,1 1.5,0 l 0.61,-13.37 c 0.05,-1 -1.41,-0.95 -1.5,0 -0.21,2.41 -0.35,4.83 -0.64,7.23 -0.2,1.67 -0.5,3.78 -2.12,4.73 -1.62,0.95 -2.78,0.25 -3.17,-2.28 q 0.69,-3 3.59,-1.13 c -0.08,1 1.42,0.95 1.5,0 z"
       id="path16" />
    <path
       d="m 338.41,160.25 c 0.29,-1.52 2.27,-1.05 1.86,0.32 a 3.72,3.72 0 0 1 -1.2,1.42 5,5 0 0 0 -1.92,2.73 0.76,0.76 0 0 0 0.72,0.95 13.45,13.45 0 0 0 5,-0.45 0.75208045,0.75208045 0 0 0 -0.4,-1.45 12.15,12.15 0 0 1 -4.61,0.4 l 0.73,0.95 c 0.38,-2.18 3.88,-2.89 3.17,-5.53 a 2.46,2.46 0 0 0 -4.8,0.26 c -0.18,0.94 1.26,1.35 1.44,0.4 z"
       id="path17" />
    <path
       d="m 587.82,157.73 0.06,6.33 a 0.76,0.76 0 0 0 0.75,0.75 h 3.66 a 0.76,0.76 0 0 0 0.72,-0.55 1.28,1.28 0 0 0 -1.58,-1.6 c -0.95,0.2 -0.55,1.64 0.4,1.45 l -0.27,-0.25 0.73,-0.55 h -3.66 l 0.75,0.75 -0.06,-6.33 a 0.75,0.75 0 0 0 -1.5,0 z"
       id="path18" />
    <path
       d="m 584.41,159.59 c 0.21,-2.61 -2.67,-3.48 -4.58,-2.1 -1.91,1.38 -3.17,4.93 -1,6.72 1.73,1.44 4.38,0.58 5.68,-1 2.47,-3 1.94,-8.57 2.26,-12.18 h -1.5 l -0.61,13.37 c -0.05,1 1.45,1 1.5,0 l 0.61,-13.37 c 0,-1 -1.42,-0.94 -1.5,0 -0.21,2.41 -0.35,4.84 -0.64,7.24 -0.21,1.67 -0.5,3.78 -2.13,4.73 -1.63,0.95 -2.77,0.25 -3.17,-2.28 q 0.71,-3 3.59,-1.14 c -0.07,1 1.43,1 1.5,0 z"
       id="path19" />
  </g>
  <metadata
     id="metadata134">
    <rdf:RDF>
      <cc:Work
         rdf:about="">
        <dc:title>sel_hmm</dc:title>
      </cc:Work>
    </rdf:RDF>
  </metadata>
</svg>
