<?xml version="1.0" encoding="UTF-8" standalone="no"?>
<svg
   viewBox="0 0 699.99999 200"
   version="1.1"
   id="svg134"
   sodipodi:docname="selection_proposal_proposal.svg"
   inkscape:version="1.3.2 (091e20e, 2023-11-25)"
   width="700"
   height="200"
   xmlns:inkscape="http://www.inkscape.org/namespaces/inkscape"
   xmlns:sodipodi="http://sodipodi.sourceforge.net/DTD/sodipodi-0.dtd"
   xmlns="http://www.w3.org/2000/svg"
   xmlns:svg="http://www.w3.org/2000/svg"
   xmlns:rdf="http://www.w3.org/1999/02/22-rdf-syntax-ns#"
   xmlns:cc="http://creativecommons.org/ns#"
   xmlns:dc="http://purl.org/dc/elements/1.1/">
  <sodipodi:namedview
     id="namedview134"
     pagecolor="#ffffff"
     bordercolor="#000000"
     borderopacity="0.25"
     inkscape:showpageshadow="2"
     inkscape:pageopacity="0.0"
     inkscape:pagecheckerboard="0"
     inkscape:deskcolor="#d1d1d1"
     inkscape:zoom="0.79360047"
     inkscape:cx="243.19542"
     inkscape:cy="175.78115"
     inkscape:window-width="1384"
     inkscape:window-height="718"
     inkscape:window-x="60"
     inkscape:window-y="126"
     inkscape:window-maximized="0"
     inkscape:current-layer="Layer_1" />
  <defs
     id="defs1">
    <style
       id="style1">.cls-1{fill:#8c0000;}</style>
  </defs>
  <title
     id="title1">sel_hmm</title>
  <g
     id="Layer_1"
     data-name="Layer 1">
    <g
       id="g61"
       transform="translate(0,-20)">
      <g
         id="g60">
        <path
           class="st1"
           d="m 303.1,134.6 c 4,0.2 7.9,0.2 11.9,-0.2 1.6,-0.1 1.6,-2.6 0,-2.5 -4,0.4 -7.9,0.4 -11.9,0.2 -1.6,-0.1 -1.6,2.4 0,2.5 z"
           id="path58"
           style="fill:#21b24b" />
      </g>
    </g>
    <g
       id="g63"
       transform="translate(0,-20)">
      <g
         id="g62">
        <path
           class="st1"
           d="m 317.3,133.2 c 2.6,-6.3 3.3,-12.7 2.1,-19.4 -0.3,-1.6 -2.7,-0.9 -2.4,0.7 1.2,6.3 0.4,12.2 -2.1,18.1 -0.6,1.4 1.8,2 2.4,0.6 z"
           id="path60"
           style="fill:#21b24b" />
      </g>
    </g>
    <g
       id="g65"
       transform="translate(0,-20)">
      <g
         id="g64">
        <path
           class="st1"
           d="m 319.8,114.6 c 3.7,0.2 7.4,0 11.1,-0.6 1.6,-0.3 0.9,-2.6 -0.7,-2.4 -3.5,0.6 -6.9,0.7 -10.4,0.6 -1.6,-0.2 -1.6,2.3 0,2.4 z"
           id="path62"
           style="fill:#21b24b" />
      </g>
    </g>
    <g
       id="g67"
       transform="translate(0,-20)">
      <g
         id="g66">
        <path
           class="st1"
           d="m 330.1,93.8 c -0.7,6 -1.2,12 -1.3,18 0,1.6 2.4,1.6 2.5,0 0.2,-6 0.6,-12 1.3,-18 0.2,-1.5 -2.3,-1.5 -2.5,0 z"
           id="path64"
           style="fill:#21b24b" />
      </g>
    </g>
    <g
       id="g69"
       transform="translate(0,-20)">
      <g
         id="g68">
        <path
           class="st1"
           d="m 333.4,94.2 c 12.9,0 25.7,0 38.6,0 1.6,0 1.6,-2.5 0,-2.5 -12.9,0 -25.7,0 -38.6,0 -1.6,0 -1.6,2.5 0,2.5 z"
           id="path66"
           style="fill:#21b24b" />
      </g>
    </g>
    <g
       id="g71"
       transform="translate(0,-20)">
      <g
         id="g70">
        <path
           class="st1"
           d="m 373.3,75.5 c 0,-0.3 0.1,-0.7 0.1,-1 0.1,-1.4 -2.2,-1.7 -2.4,-0.3 -1,6.2 -1.5,12.4 -1.3,18.6 0,1.6 2.5,1.6 2.5,0 -0.1,-6 0.3,-12 1.2,-17.9 -0.8,-0.1 -1.6,-0.2 -2.4,-0.3 0,0.3 -0.1,0.7 -0.1,1 -0.3,1.5 2.2,1.5 2.4,-0.1 z"
           id="path68"
           style="fill:#21b24b" />
      </g>
    </g>
    <g
       id="g73"
       transform="translate(0,-20)">
      <g
         id="g72">
        <path
           class="st1"
           d="m 372.6,75.9 c 6.3,-0.3 12.6,-0.5 19,-0.8 1.6,-0.1 1.6,-2.5 0,-2.5 -6.3,0.3 -12.6,0.5 -19,0.8 -1.5,0.1 -1.6,2.5 0,2.5 z"
           id="path70"
           style="fill:#21b24b" />
      </g>
    </g>
    <g
       id="g75"
       transform="translate(0,-20)">
      <g
         id="g74">
        <path
           class="st1"
           d="m 393.1,53.8 c -0.8,6.6 -1.5,13.2 -1.9,19.8 -0.1,1.6 2.4,1.6 2.5,0 0.5,-6.6 1.1,-13.2 1.9,-19.8 0.1,-1.6 -2.3,-1.6 -2.5,0 z"
           id="path72"
           style="fill:#21b24b" />
      </g>
    </g>
    <g
       id="g77"
       transform="translate(0,-20)">
      <g
         id="g76">
        <path
           class="st1"
           d="m 394.9,55.3 c 5.8,0.9 11.6,1.1 17.5,0.8 1.6,-0.1 1.6,-2.6 0,-2.5 -5.6,0.4 -11.3,0.2 -16.9,-0.7 -1.5,-0.3 -2.2,2.1 -0.6,2.4 z"
           id="path74"
           style="fill:#21b24b" />
      </g>
    </g>
    <g
       id="g79"
       transform="translate(0,-20)">
      <g
         id="g78">
        <path
           class="st1"
           d="m 409.2,54.9 c -1,6 -1.1,11.9 -0.2,17.9 0.2,1.6 2.6,0.9 2.4,-0.7 -0.8,-5.6 -0.8,-11.1 0.2,-16.6 0.2,-1.5 -2.2,-2.1 -2.4,-0.6 z"
           id="path76"
           style="fill:#21b24b" />
      </g>
    </g>
    <g
       id="g81"
       transform="translate(0,-20)">
      <g
         id="g80">
        <path
           class="st1"
           d="m 411.1,74.8 c 10.5,-0.6 20.9,-0.3 31.3,1 1.6,0.2 1.6,-2.3 0,-2.5 -10.4,-1.3 -20.9,-1.6 -31.3,-1 -1.6,0.1 -1.6,2.6 0,2.5 z"
           id="path78"
           style="fill:#21b24b" />
      </g>
    </g>
    <g
       id="g83"
       transform="translate(0,-20)">
      <g
         id="g82">
        <path
           class="st1"
           d="m 441.5,75.1 c 0.6,6.8 1.8,13.5 3.4,20.2 0.4,1.5 2.8,0.9 2.4,-0.7 -1.6,-6.4 -2.7,-12.9 -3.3,-19.5 -0.2,-1.5 -2.6,-1.6 -2.5,0 z"
           id="path80"
           style="fill:#21b24b" />
      </g>
    </g>
    <g
       id="g85"
       transform="translate(0,-20)">
      <g
         id="g84">
        <path
           class="st1"
           d="m 447.2,94.9 c 11.5,-0.2 24,-1.9 35.3,0.2 1.6,0.3 2.2,-2.1 0.7,-2.4 -11.6,-2.1 -24.2,-0.5 -35.9,-0.3 -1.7,0 -1.7,2.5 -0.1,2.5 z"
           id="path82"
           style="fill:#21b24b" />
      </g>
    </g>
    <g
       id="g87"
       transform="translate(0,-20)">
      <g
         id="g86">
        <path
           class="st1"
           d="m 481.6,93.9 c -0.2,6.6 -0.4,13.2 -0.6,19.7 0,0.8 0.8,1.5 1.6,1.2 0.7,-0.3 1,-0.4 1.6,-1 1.1,-1.1 -0.6,-2.9 -1.7,-1.7 -0.2,0.1 -0.3,0.2 -0.5,0.3 0.5,0.4 1,0.8 1.6,1.2 0.2,-6.6 0.4,-13.2 0.6,-19.7 -0.1,-1.6 -2.6,-1.6 -2.6,0 z"
           id="path84"
           style="fill:#21b24b" />
      </g>
    </g>
    <g
       id="g89"
       transform="translate(0,-20)">
      <g
         id="g88">
        <path
           class="st1"
           d="m 549.3,115 c 3.8,-0.1 7.5,0 11.3,0.4 -0.4,-0.4 -0.8,-0.8 -1.2,-1.2 -0.8,6.6 -0.8,13.2 -0.1,19.8 0.1,0.8 0.7,1.4 1.6,1.2 1.1,-0.2 1.3,-0.4 2,-1.3 1,-1.3 -1.2,-2.5 -2.1,-1.2 -0.2,0 -0.3,0.1 -0.5,0.1 0.5,0.4 1,0.8 1.6,1.2 -0.7,-6.6 -0.7,-13.2 0.1,-19.8 0.1,-0.7 -0.6,-1.2 -1.2,-1.2 -3.8,-0.4 -7.5,-0.5 -11.3,-0.4 -1.8,0 -1.8,2.5 -0.2,2.4 z"
           id="path86"
           style="fill:#21b24b" />
      </g>
    </g>
    <g
       id="g91"
       transform="translate(0,-20)">
      <g
         id="g90">
        <path
           class="st1"
           d="m 560.8,134.1 c 4,1 8.1,1.4 12.2,1.1 1.6,-0.1 1.6,-2.6 0,-2.5 -3.9,0.3 -7.8,0 -11.6,-1 -1.5,-0.4 -2.2,2 -0.6,2.4 z"
           id="path88"
           style="fill:#21b24b" />
      </g>
    </g>
    <g
       id="g93"
       transform="translate(0,-20)">
      <g
         id="g92">
        <path
           class="st1"
           d="m 571,134 c -1,6.9 -0.3,13.5 2.1,20 0.3,0.8 1.1,1.2 1.8,0.7 0.6,-0.3 1.1,-0.6 1.7,-0.9 1.4,-0.8 0.1,-2.9 -1.2,-2.1 -0.6,0.3 -1.1,0.6 -1.7,0.9 0.6,0.2 1.2,0.5 1.8,0.7 -2.2,-6.1 -3.1,-12.3 -2.1,-18.7 0.2,-1.5 -2.2,-2.2 -2.4,-0.6 z"
           id="path90"
           style="fill:#21b24b" />
      </g>
    </g>
    <g
       id="g95"
       transform="translate(0,-20)">
      <g
         id="g94">
        <path
           class="st1"
           d="m 304.3,134.5 c 1.6,0 1.6,-2.5 0,-2.5 -1.6,0 -1.6,2.5 0,2.5 z"
           id="path92"
           style="fill:#21b24b" />
      </g>
    </g>
    <g
       id="g97"
       transform="translate(0,-20)">
      <g
         id="g96">
        <path
           class="st1"
           d="m 302.6,133.2 c -0.7,6.8 -0.7,13.5 0.2,20.3 0.2,1.6 2.7,1.6 2.5,0 -0.9,-6.8 -0.9,-13.5 -0.2,-20.3 0.2,-1.6 -2.3,-1.6 -2.5,0 z"
           id="path94"
           style="fill:#21b24b" />
      </g>
    </g>
    <g
       id="g99"
       transform="translate(0,-20)">
      <g
         id="g98">
        <path
           class="st1"
           d="m 669.8,152.7 c -31.9,0 -63.8,-0.7 -95.6,-0.2 -1.6,0 -1.6,2.5 0,2.5 31.9,-0.5 63.8,0.2 95.6,0.2 1.6,-0.1 1.6,-2.5 0,-2.5 z"
           id="path96"
           style="fill:#21b24b" />
      </g>
    </g>
    <g
       id="g101"
       transform="translate(0,-20)">
      <g
         id="g100">
        <path
           class="st1"
           d="m 117,155.2 c 62.4,-1.4 124.9,-0.7 187.3,1.5 1.6,0.1 1.6,-2.5 0,-2.5 -62.4,-2.1 -124.9,-2.8 -187.3,-1.5 -1.6,0 -1.6,2.5 0,2.5 z"
           id="path98"
           style="fill:#21b24b" />
      </g>
    </g>
    <g
       id="g105"
       transform="translate(0,-20)">
      <g
         id="g104">
        <path
           class="st1"
           d="m 482.2,114.9 c 13.5,0.4 27,-0.1 40.5,0 1.6,0 1.6,-2.5 0,-2.5 -13.5,-0.1 -27,0.4 -40.5,0 -1.6,-0.1 -1.6,2.4 0,2.5 z"
           id="path102"
           style="fill:#21b24b" />
      </g>
    </g>
    <g
       id="g107"
       transform="translate(0,-20)">
      <g
         id="g106">
        <path
           class="st1"
           d="m 522.7,94.8 c 8.3,-0.2 17.7,-1.7 25.8,0.2 1.6,0.4 2.2,-2 0.7,-2.4 -8.4,-1.9 -17.9,-0.5 -26.4,-0.3 -1.7,0.1 -1.7,2.6 -0.1,2.5 z"
           id="path104"
           style="fill:#21b24b" />
      </g>
    </g>
    <g
       id="g109"
       transform="translate(0,-20)">
      <g
         id="g108">
        <path
           class="st1"
           d="m 547.6,93.9 c -0.2,6.6 -0.4,13.2 -0.6,19.7 0,0.8 0.8,1.5 1.6,1.2 0.7,-0.3 1,-0.4 1.6,-1 1.1,-1.1 -0.6,-2.9 -1.8,-1.8 -0.2,0.1 -0.3,0.2 -0.5,0.3 0.5,0.4 1,0.8 1.6,1.2 0.2,-6.6 0.4,-13.2 0.6,-19.7 0,-1.5 -2.5,-1.5 -2.5,0.1 z"
           id="path106"
           style="fill:#21b24b" />
      </g>
    </g>
    <g
       id="g111"
       transform="translate(0,-20)">
      <g
         id="g110">
        <path
           class="st1"
           d="m 521.6,93.9 c -0.2,6.6 -0.4,13.2 -0.6,19.7 -0.1,1.6 2.4,1.6 2.5,0 0.2,-6.6 0.4,-13.2 0.6,-19.7 0,-1.6 -2.5,-1.6 -2.5,0 z"
           id="path108"
           style="fill:#21b24b" />
      </g>
    </g>
  </g>
  <metadata
     id="metadata134">
    <rdf:RDF>
      <cc:Work
         rdf:about="">
        <dc:title>sel_hmm</dc:title>
      </cc:Work>
    </rdf:RDF>
  </metadata>
</svg>
