<?xml version="1.0" encoding="UTF-8" standalone="no"?>
<svg
   viewBox="0 0 105 215.00001"
   version="1.1"
   id="svg178"
   sodipodi:docname="wright_fisher_gen1_mut.svg"
   width="105"
   height="215"
   inkscape:version="1.3.2 (091e20e, 2023-11-25)"
   xmlns:inkscape="http://www.inkscape.org/namespaces/inkscape"
   xmlns:sodipodi="http://sodipodi.sourceforge.net/DTD/sodipodi-0.dtd"
   xmlns="http://www.w3.org/2000/svg"
   xmlns:svg="http://www.w3.org/2000/svg"
   xmlns:rdf="http://www.w3.org/1999/02/22-rdf-syntax-ns#"
   xmlns:cc="http://creativecommons.org/ns#"
   xmlns:dc="http://purl.org/dc/elements/1.1/">
  <sodipodi:namedview
     id="namedview178"
     pagecolor="#ffffff"
     bordercolor="#000000"
     borderopacity="0.25"
     inkscape:showpageshadow="2"
     inkscape:pageopacity="0.0"
     inkscape:pagecheckerboard="0"
     inkscape:deskcolor="#d1d1d1"
     inkscape:zoom="15.882974"
     inkscape:cx="40.23176"
     inkscape:cy="57.105174"
     inkscape:window-width="1312"
     inkscape:window-height="449"
     inkscape:window-x="58"
     inkscape:window-y="25"
     inkscape:window-maximized="0"
     inkscape:current-layer="Layer_1" />
  <defs
     id="defs1">
    <style
       id="style1">.cls-1{fill:#fff;}.cls-2,.cls-3,.cls-7{fill:none;}.cls-2,.cls-3,.cls-5,.cls-6,.cls-7{stroke:#231f20;stroke-linecap:round;}.cls-2,.cls-5,.cls-6,.cls-7{stroke-miterlimit:10;}.cls-3{stroke-linejoin:round;}.cls-4{fill:#231f20;}.cls-5{fill:#d4ebf9;}.cls-5,.cls-6{stroke-width:0.75px;}.cls-6{fill:red;}.cls-7{stroke-width:0.25px;}</style>
  </defs>
  <title
     id="title1">wright_fisher</title>
  <g
     id="Layer_1"
     data-name="Layer 1">
    <path
       class="cls-2"
       d="m 89.12,-8.66 c -54.31,0.2 -28.46,-0.09 -56,0"
       id="path38" />
    <path
       class="cls-2"
       d="m 33.11,-8.75 c 0.06,-1.25 0,-1.75 0,-2.5"
       id="path39" />
    <path
       class="cls-2"
       d="m 40.11,-8.79 c 0.06,-1.25 0,-1.74 0,-2.5"
       id="path40" />
    <path
       class="cls-2"
       d="m 47.11,-8.83 c 0.06,-1.25 0,-1.74 0,-2.5"
       id="path41" />
    <path
       class="cls-2"
       d="m 54.11,-8.89 c 0.06,-1.24 0,-1.74 0,-2.5"
       id="path42" />
    <path
       class="cls-2"
       d="m 61.11,-8.89 c 0.06,-1.24 0,-1.74 0,-2.49"
       id="path43" />
    <path
       class="cls-2"
       d="m 68.11,-8.89 c 0.06,-1.25 0,-1.75 0,-2.5"
       id="path44" />
    <path
       class="cls-2"
       d="m 75.11,-8.98 c 0.06,-1.25 0,-1.74 0,-2.5"
       id="path45" />
    <path
       class="cls-2"
       d="m 82.11,-9.02 c 0.06,-1.25 0,-1.74 0,-2.5"
       id="path46" />
    <path
       class="cls-2"
       d="m 89.11,-9.06 c 0.06,-1.25 0,-1.74 0,-2.5"
       id="path47" />
    <path
       class="cls-4"
       d="m 31.18,-16.89 c -0.2,1.5 0.11,3.39 1.78,3.91 1.67,0.52 2.76,-1.2 2.86,-2.71 0.1,-1.51 0,-4 -1.8,-4.42 -2,-0.45 -2.49,2.33 -2.83,3.68 -0.16,0.62 0.81,0.89 1,0.26 a 8,8 0 0 1 0.62,-2.13 c 1.28,-2.1 2,0.48 2,1.44 0,0.96 0.14,2.63 -1,2.95 -1.52,0.43 -1.82,-1.78 -1.69,-2.71 0.09,-0.63 -0.88,-0.9 -1,-0.27 z"
       id="path48" />
    <path
       class="cls-4"
       d="m 39.06,-16.02 a 6,6 0 0 0 2.46,-3.2 l -1,-0.13 a 33.45,33.45 0 0 1 -0.56,5.82 l 0.63,-0.36 a 3.51,3.51 0 0 0 -2,-0.1 0.5,0.5 0 0 0 0,1 11,11 0 0 0 3.24,0.1 c 0.63,-0.07 0.64,-1.07 0,-1 a 10.27,10.27 0 0 1 -3,-0.06 v 1 a 2.58,2.58 0 0 1 1.46,0.06 0.5,0.5 0 0 0 0.61,-0.34 34.72,34.72 0 0 0 0.6,-6.09 0.50487622,0.50487622 0 0 0 -1,-0.14 5,5 0 0 1 -2,2.61 c -0.53,0.36 0,1.22 0.5,0.86 z"
       id="path49" />
    <path
       class="cls-4"
       d="m 46.86,-17.67 -0.13,-0.3 1.42,-0.72 c 0.22,0.11 0.19,0.87 0.16,1 a 4.62,4.62 0 0 1 -1.21,1.93 c -0.46,0.55 -1.41,1.28 -1.52,2 a 0.55,0.55 0 0 0 0.23,0.57 c 0.48,0.33 1,0.13 1.52,0.08 a 17.22,17.22 0 0 1 2.27,-0.07 0.5,0.5 0 0 0 0,-1 15.45,15.45 0 0 0 -1.8,0 c -0.36,0 -1.19,0.29 -1.48,0.09 l 0.23,0.57 c 0,-0.28 0.66,-0.86 0.83,-1.07 0.17,-0.21 0.56,-0.65 0.82,-1 a 5.73,5.73 0 0 0 0.91,-1.3 2.47,2.47 0 0 0 -0.31,-2.57 c -1.43,-1.61 -3.67,0.25 -2.91,2.07 0.25,0.58 1.22,0.33 1,-0.27 z"
       id="path50" />
    <path
       class="cls-4"
       d="m 53.39,-18.64 c 0.26,-0.53 0.42,-0.5 0.46,0.09 0.24,0.3 0.22,0.52 -0.06,0.69 a 5,5 0 0 1 -0.46,0.57 c -0.31,0.47 0.41,1 0.79,0.61 1,-1.09 1.62,1.45 1.24,2 -0.62,1 -2.29,1.27 -2.73,0 -0.2,-0.61 -1.17,-0.35 -1,0.26 a 2.15,2.15 0 0 0 2.16,1.67 3.54,3.54 0 0 0 2.7,-1.83 c 0.54,-1.62 -1.53,-4.6 -3.12,-2.8 l 0.79,0.61 c 0.58,-0.87 1.62,-1.86 0.71,-3 -0.91,-1.14 -1.83,-0.13 -2.39,0.61 -0.39,0.51 0.48,1 0.87,0.5 z"
       id="path51" />
    <path
       class="cls-4"
       d="m 58.76,-20.46 c -0.14,1 -0.47,2.75 0.06,3.68 0.28,0.49 0.89,0.56 1.39,0.7 0.5,0.14 1.56,0.34 2,-0.22 0.6,-0.76 0.19,-2.61 0.11,-3.48 -0.07,-0.63 -1.05,-0.65 -1,0 0.16,2.22 -0.24,4.43 0,6.65 0.07,0.64 1.07,0.64 1,0 -0.23,-2.22 0.17,-4.43 0,-6.65 h -1.03 c 0.09,0.93 0.69,3.35 -1.17,2.54 a 2,2 0 0 0 -0.42,0 c -0.37,-0.47 -0.07,-2.42 0,-2.94 0.07,-0.52 -0.88,-0.91 -1,-0.27 z"
       id="path52" />
    <path
       class="cls-4"
       d="m 86.35,-17.69 q 0.6,-0.94 1,0.15 a 1.57,1.57 0 0 1 0,1 4.22,4.22 0 0 1 -0.82,1.42 13.64,13.64 0 0 0 -1.44,1.93 0.51,0.51 0 0 0 0.57,0.73 26.65,26.65 0 0 1 3.86,-0.43 0.5,0.5 0 0 0 0,-1 27.63,27.63 0 0 0 -4.16,0.39 l 0.57,0.73 c 0.91,-1.65 3.74,-3.86 1.87,-5.91 -1.28,-1.4 -3.44,0.11 -2.16,1.66 0.41,0.49 1.12,-0.22 0.71,-0.71 z"
       id="path53" />
    <path
       class="cls-4"
       d="m 90.03,-19.05 c 0.08,1.94 0.13,3.88 0.11,5.82 a 0.5,0.5 0 0 0 1,0 c 0,-1.94 0,-3.88 -0.11,-5.82 0,-0.64 -1,-0.64 -1,0 z"
       id="path54" />
    <path
       class="cls-4"
       d="m 90.29,-19.13 a 60.88,60.88 0 0 0 3.22,6.15 0.5,0.5 0 0 0 0.93,-0.25 c 0.13,-2.07 0.13,-4.29 0,-6.36 0,-0.64 -1,-0.64 -1,0 0.08,2.07 0.08,4.29 0,6.36 l 0.94,-0.26 a 60.81,60.81 0 0 1 -3.23,-6.14 c -0.26,-0.59 -1.12,-0.08 -0.86,0.5 z"
       id="path55" />
    <path
       class="cls-4"
       d="m 72.68,-16.09 a 0.68,0.68 0 0 0 -1.36,0 0.51,0.51 0 0 0 0.5,0.5 0.75,0.75 0 0 0 0.64,-1.14 0.52,0.52 0 0 0 -0.69,-0.18 0.75,0.75 0 0 0 -0.36,0.7 c 0.08,0.63 1.08,0.63 1,0 v -0.07 l -0.23,0.3 0.09,-0.06 -0.69,-0.18 0.23,-0.37 0.5,0.5 -0.49,0.27 -0.15,-0.35 v 0.07 c 0,0.64 1,0.65 1,0 z"
       id="path56" />
    <path
       class="cls-4"
       d="m 75.66,-16.15 v 0 l -0.37,0.26 v 0 l -0.35,-0.14 v 0 l -0.13,-0.49 c 0.06,-0.09 0.05,-0.1 0,0 l -0.2,0.16 a 0.5,0.5 0 0 0 0.36,0.85 0.62,0.62 0 0 0 0.6,-0.8 c -0.14,-0.63 -1.1,-0.37 -1,0.26 v 0.09 -0.39 l -0.06,0.08 0.44,-0.25 h 0.04 l 0.35,0.86 c 0.26,-0.21 0.54,-0.41 0.49,-0.78 a 0.57,0.57 0 0 0 -0.54,-0.45 0.5,0.5 0 0 0 -0.43,0.25 v 0 a 0.5,0.5 0 0 0 0.86,0.5 z"
       id="path57" />
    <path
       class="cls-4"
       d="m 77.63,-16.65 -0.14,0.53 a 0.51,0.51 0 0 0 0.48,0.63 0.79,0.79 0 0 0 0.79,-0.78 c 0.06,-0.64 -0.94,-0.63 -1,0 l 0.21,-0.22 0.49,0.63 0.13,-0.53 c 0.16,-0.62 -0.81,-0.89 -1,-0.26 z"
       id="path58" />
    <path
       class="cls-4"
       d="m 81.71,-39.36 a 66.54,66.54 0 0 0 3.27,10.71 c 0.26,0.59 1.12,0.08 0.87,-0.51 a 65.72,65.72 0 0 1 -3.18,-10.46 c -0.15,-0.63 -1.12,-0.36 -1,0.26 z"
       id="path59" />
    <path
       class="cls-4"
       d="m 85.44,-39.61 c -0.83,3.72 -2.71,7.24 -4.15,10.72 -0.25,0.59 0.71,0.85 1,0.26 1.46,-3.47 3.35,-7 4.17,-10.7 0.14,-0.63 -0.82,-0.9 -1,-0.27 z"
       id="path60" />
    <path
       class="cls-4"
       d="m 86.86,-39.74 c -0.87,1.89 -0.66,4.3 -0.67,6.34 a 7.9,7.9 0 0 0 1.59,5.34 c 0.41,0.5 1.11,-0.22 0.71,-0.71 -1.27,-1.54 -1.33,-3.36 -1.29,-5.27 0,-1.6 -0.16,-3.72 0.52,-5.2 0.27,-0.58 -0.6,-1.09 -0.86,-0.5 z"
       id="path61" />
    <path
       class="cls-4"
       d="m 89.84,-39.28 c -0.31,3.19 -0.78,6.77 -0.32,10 0.2,1.41 1,1.72 2.36,1.41 0.63,-0.13 0.36,-1.1 -0.27,-1 -1.73,0.38 -1.14,-4.14 -1.12,-5 0,-1.8 0.18,-3.59 0.35,-5.39 0.06,-0.64 -0.94,-0.63 -1,0 z"
       id="path62" />
    <path
       class="cls-4"
       d="m 88.23,-33.59 a 16.2,16.2 0 0 1 2.06,-0.3 h 0.9 0.45 c 0.38,0.07 0.4,0 0.05,-0.19 l 0.13,-0.49 -0.06,0.08 c -0.41,0.48 0.29,1.19 0.71,0.7 0.42,-0.49 -0.03,-1.1 -0.65,-1.1 a 15.19,15.19 0 0 0 -3.86,0.37 c -0.63,0.13 -0.36,1.1 0.27,1 z"
       id="path63" />
    <path
       class="cls-4"
       d="m 92.53,-31.71 a 38.88,38.88 0 0 1 0.09,4.32 c 0,0.64 1,0.64 1,0 a 38.88,38.88 0 0 0 -0.09,-4.32 c 0,-0.64 -1.06,-0.65 -1,0 z"
       id="path64" />
    <path
       class="cls-4"
       d="m 95.01,-29.51 0.16,-0.34 -0.88,-0.39 a 3.14,3.14 0 0 1 -0.9,1.2 0.51,0.51 0 0 0 0.1,0.79 6.46,6.46 0 0 1 1.19,0.82 c 0.47,0.43 1.18,-0.28 0.7,-0.71 a 7.49,7.49 0 0 0 -1.38,-1 l 0.1,0.79 a 4.11,4.11 0 0 0 1.15,-1.64 c 0.21,-0.52 -0.67,-0.89 -0.91,-0.39 l -0.16,0.34 c -0.28,0.58 0.58,1.09 0.86,0.51 z"
       id="path65" />
    <path
       class="cls-4"
       d="m 94.82,-39.24 a 12.87,12.87 0 0 1 0.17,10.35 c -0.24,0.6 0.73,0.86 1,0.27 a 13.89,13.89 0 0 0 -0.3,-11.12 c -0.27,-0.59 -1.13,-0.08 -0.87,0.5 z"
       id="path66" />
    <path
       class="cls-4"
       d="m 67.81,-35.89 c 1.31,-0.68 1.84,-0.42 1.62,0.79 l -0.2,1 a 8.22,8.22 0 0 1 -1.42,2.51 24.62,24.62 0 0 0 -2.13,3 c -0.16,0.3 0,0.8 0.43,0.75 a 30.87,30.87 0 0 1 5.52,-0.2 c 0.65,0 0.65,-1 0,-1 a 30.87,30.87 0 0 0 -5.52,0.2 l 0.43,0.75 c 1.41,-2.6 5.65,-6.15 3.29,-9.48 -1.57,-2.21 -4.06,0 -2.88,2.11 0.31,0.56 1.18,0.06 0.86,-0.51 z"
       id="path67" />
    <path
       class="cls-4"
       d="m 72.29,-38.35 c 0.11,3.31 0.18,6.62 0.16,9.93 a 0.5,0.5 0 0 0 1,0 c 0,-3.31 0,-6.62 -0.16,-9.93 0,-0.64 -1,-0.65 -1,0 z"
       id="path68" />
    <path
       class="cls-4"
       d="m 72.66,-38.79 a 110.9,110.9 0 0 0 4.73,10.63 c 0.24,0.46 0.91,0.21 0.93,-0.26 0.18,-3.55 0.19,-7.3 0.07,-10.86 0,-0.64 -1,-0.64 -1,0 0.12,3.56 0.11,7.31 -0.07,10.86 l 0.94,-0.25 a 110.87,110.87 0 0 1 -4.64,-10.38 c -0.23,-0.6 -1.2,-0.34 -1,0.26 z"
       id="path69" />
    <path
       class="cls-4"
       d="m 80.74,-33.16 a 0.5,0.5 0 0 0 0,-1 0.5,0.5 0 0 0 0,1 z"
       id="path70" />
    <path
       class="cls-4"
       d="m 81.18,-33.4 0.22,-0.41 c 0.22,-0.4 -0.26,-1 -0.68,-0.68 a 1.34,1.34 0 0 0 -0.5,0.58 0.5,0.5 0 0 0 0.56,0.73 c 0.57,-0.17 0.92,-1.09 0.21,-1.35 a 0.81,0.81 0 0 0 -1,1 0.51662365,0.51662365 0 0 0 1,-0.26 l -0.21,0.23 -0.4,-0.33 0.13,-0.23 0.57,0.73 a 0.4,0.4 0 0 1 0.14,-0.22 l -0.68,-0.68 -0.25,0.4 c -0.31,0.56 0.55,1.07 0.87,0.51 z"
       id="path71" />
    <path
       class="cls-4"
       d="m 27.17,-36.81 c -0.29,-1.21 -1.71,-3.37 -2.94,-1.59 -0.65,1 -0.34,2.58 -0.3,3.62 0.08,2 0.18,3.93 0.27,5.9 0,0.64 1,0.64 1,0 l -0.22,-4.79 c 0,-0.72 -0.08,-1.44 -0.09,-2.16 0,-0.35 0,-0.7 0,-1 q 1.32,-0.81 1.32,0.33 c 0.15,0.63 1.12,0.36 1,-0.26 z"
       id="path159" />
    <path
       class="cls-4"
       d="m 23.46,-33.66 a 2.49,2.49 0 0 1 2,0 c 0.58,0.25 1.09,-0.61 0.5,-0.86 a 3.61,3.61 0 0 0 -3,0 c -0.58,0.27 -0.07,1.13 0.51,0.86 z"
       id="path160" />
    <path
       class="cls-4"
       d="m 27.87,-33.97 c -0.15,-1 0.19,-0.31 0.6,-0.15 a 1.23,1.23 0 0 0 0.6,0.1 c 0.57,-0.06 0.84,-0.47 1,-1 l -1,-0.13 -0.28,2.96 a 9.55,9.55 0 0 0 -0.22,2.49 c 0.19,1.12 1.21,1.12 2,0.6 0.54,-0.35 0,-1.22 -0.5,-0.87 -0.76,0.49 -0.43,-1 -0.42,-1.09 l 0.15,-1.35 0.29,-2.7 c 0.07,-0.6 -0.8,-0.62 -1,-0.14 -0.2,0.48 -0.93,-0.34 -1.1,-0.38 a 0.81,0.81 0 0 0 -0.77,0.21 1.73,1.73 0 0 0 -0.35,1.71 c 0.09,0.64 1.06,0.37 1,-0.26 z"
       id="path161" />
    <path
       class="cls-4"
       d="m 31.68,-31.02 c 1.5,0.15 3.09,-0.69 3,-2.39 0,-1.2 -1.24,-2.64 -2.56,-2.18 a 1.55,1.55 0 0 0 -0.92,1.39 13.9,13.9 0 0 0 -0.16,3.22 2.77,2.77 0 0 0 0.82,1.88 c 0.72,0.61 1.55,0.27 2.38,0.23 0.64,0 0.65,-1 0,-1 -0.81,0 -1.93,0.16 -2.16,-0.83 a 9.25,9.25 0 0 1 0,-2.52 3.48,3.48 0 0 1 0.21,-1.1 c 0.38,-0.61 1,-0.13 1.22,0.29 0.82,1.36 -0.66,2.12 -1.8,2 -0.64,-0.06 -0.64,0.94 0,1 z"
       id="path162" />
    <path
       class="cls-4"
       d="m 38.9,-34.02 c -0.21,-1.32 -1.46,-2.43 -2.71,-1.39 -1.25,1.04 -1,3.81 -0.73,5.21 0.26,1.24 1.14,2.68 2.47,1.55 1.33,-1.13 1,-4 1.06,-5.68 h -1 c 0.12,3.06 0.32,6.12 0.58,9.17 0.06,0.64 1.06,0.65 1,0 -0.26,-3.05 -0.46,-6.11 -0.58,-9.17 a 0.5,0.5 0 0 0 -1,0 c 0,0.87 0.39,3.47 -0.25,4.11 l -1.25,0.11 a 9,9 0 0 1 -0.22,-2 v -0.72 c -0.18,-1.27 0.36,-1.58 1.64,-0.92 0.1,0.63 1.06,0.36 1,-0.27 z"
       id="path163" />
    <path
       class="cls-4"
       d="m 39.74,-35.32 a 38,38 0 0 0 0.18,5.11 c 0.1,0.7 0.38,1.49 1.23,1.44 2.62,-0.13 2.21,-4.29 2,-5.89 -0.08,-0.62 -1,-0.65 -1,0 l 0.45,5.82 c 0,0.64 1,0.64 1,0 l -0.45,-5.82 h -1 a 14.75,14.75 0 0 1 0.14,2.57 c 0,0.43 -0.41,2.89 -1.31,2.12 -0.31,-0.27 -0.15,-2.09 -0.16,-2.52 0,-0.94 0,-1.89 -0.06,-2.83 a 0.5,0.5 0 0 0 -1,0 z"
       id="path164" />
    <path
       class="cls-4"
       d="m 44.52,-31.16 a 2.32,2.32 0 0 0 2.91,-2.28 c 0,-1.11 -1,-3.07 -2.39,-2.35 -1.39,0.72 -1.17,4.37 -1,5.68 0.37,2.12 2.49,1.79 4.09,1.19 0.6,-0.22 0.34,-1.19 -0.26,-1 -0.89,0.33 -2.41,0.9 -2.82,-0.31 a 7.29,7.29 0 0 1 -0.09,-2.38 c 0,-0.43 0,-2.56 1,-2.13 0.43,0.19 0.5,1.26 0.39,1.63 a 1.29,1.29 0 0 1 -1.6,0.95 0.51662365,0.51662365 0 0 0 -0.26,1 z"
       id="path165" />
    <path
       class="cls-4"
       d="m 48.21,-35.59 0.31,7.09 c 0,0.64 1,0.64 1,0 a 19.71,19.71 0 0 1 0.1,-2.88 c 0.1,-0.71 0.37,-2.48 1.12,-2.81 1.34,-0.59 1.1,4.88 1.16,5.56 0.06,0.68 1,0.64 1,0 -0.14,-1.69 0.22,-3.48 -0.38,-5.1 -0.23,-0.63 -0.82,-1.77 -1.65,-1.7 -0.83,0.07 -1.58,1.46 -1.8,2.13 a 12.56,12.56 0 0 0 -0.55,4.8 h 1 l -0.31,-7.09 c 0,-0.65 -1,-0.65 -1,0 z"
       id="path166" />
    <path
       class="cls-4"
       d="m 57.29,-33.71 a 1.54,1.54 0 0 0 -2.05,-1.55 c -1.34,0.39 -1.87,2 -2,3.22 -0.13,1.22 0.06,3 1.32,3.71 a 2.13,2.13 0 0 0 2.93,-1.11 c 0.27,-0.58 -0.59,-1.08 -0.86,-0.5 a 1.17,1.17 0 0 1 -2.08,0.23 3.88,3.88 0 0 1 -0.35,-1.67 4.73,4.73 0 0 1 0.25,-1.62 l 0.25,-0.57 c 0.38,-0.81 0.9,-0.86 1.58,-0.14 0,0.64 1,0.64 1,0 z"
       id="path167" />
    <path
       class="cls-4"
       d="m 57.87,-34.96 c -0.09,1.19 -0.64,6.07 1.42,6.12 2.46,0 2,-4.25 2,-5.64 a 0.5,0.5 0 0 0 -1,0 c 0,1.89 0.91,8.8 -1.61,9.1 -0.63,0.07 -0.64,1.07 0,1 1.35,-0.16 2.25,-0.32 2.51,-1.83 0.44,-2.61 0.07,-5.61 0.1,-8.27 h -1 c 0,0.61 0.25,4.87 -1.25,4 -0.6,-0.35 -0.23,-3.8 -0.18,-4.48 0.05,-0.68 -0.95,-0.64 -1,0 z"
       id="path168" />
    <circle
       class="cls-5"
       cx="33.060001"
       cy="61.670444"
       r="2.7296324"
       id="circle71-9-8"
       style="fill:none;fill-opacity:1;stroke:#231f20;stroke-width:0.699617;stroke-linecap:round;stroke-miterlimit:10;stroke-dasharray:none" />
  </g>
  <metadata
     id="metadata178">
    <rdf:RDF>
      <cc:Work
         rdf:about="">
        <dc:title>wright_fisher</dc:title>
      </cc:Work>
    </rdf:RDF>
  </metadata>
</svg>
