<?xml version="1.0" encoding="UTF-8" standalone="no"?>
<svg
   viewBox="0 0 699.99999 350"
   version="1.1"
   id="svg134"
   sodipodi:docname="sel_hmm_7.svg"
   inkscape:version="1.3.2 (1:1.3.2+202311252150+091e20ef0f)"
   width="700"
   height="350"
   xmlns:inkscape="http://www.inkscape.org/namespaces/inkscape"
   xmlns:sodipodi="http://sodipodi.sourceforge.net/DTD/sodipodi-0.dtd"
   xmlns="http://www.w3.org/2000/svg"
   xmlns:svg="http://www.w3.org/2000/svg"
   xmlns:rdf="http://www.w3.org/1999/02/22-rdf-syntax-ns#"
   xmlns:cc="http://creativecommons.org/ns#"
   xmlns:dc="http://purl.org/dc/elements/1.1/">
  <sodipodi:namedview
     id="namedview134"
     pagecolor="#ffffff"
     bordercolor="#000000"
     borderopacity="0.25"
     inkscape:showpageshadow="2"
     inkscape:pageopacity="0.0"
     inkscape:pagecheckerboard="0"
     inkscape:deskcolor="#d1d1d1"
     inkscape:zoom="0.97968631"
     inkscape:cx="447.08188"
     inkscape:cy="70.430707"
     inkscape:window-width="1223"
     inkscape:window-height="779"
     inkscape:window-x="57"
     inkscape:window-y="21"
     inkscape:window-maximized="1"
     inkscape:current-layer="Layer_1" />
  <defs
     id="defs1">
    <style
       id="style1">.cls-1{fill:#8c0000;}</style>
  </defs>
  <title
     id="title1">sel_hmm</title>
  <g
     id="Layer_1"
     data-name="Layer 1">
    <path
       d="m 258.82,80.6 3.31,73.77 1.47,-0.2 -4.26,-12.8 -1.37,0.58 5.85,12.42 a 0.76,0.76 0 0 0 1.37,-0.18 92.47,92.47 0 0 1 2.91,-11.92 c 0.29,-0.92 -1.16,-1.31 -1.45,-0.39 a 93.55,93.55 0 0 0 -2.9,11.91 l 1.37,-0.18 -5.86,-12.42 c -0.36,-0.77 -1.64,-0.23 -1.37,0.58 l 4.26,12.8 c 0.26,0.77 1.52,0.68 1.48,-0.2 L 260.32,80.6 c 0,-1 -1.55,-1 -1.5,0 z"
       id="path41" />
    <path
       d="m 187.71,102.55 q 0.2,10.44 -0.08,20.87 a 0.75,0.75 0 0 0 1.5,0 q 0.27,-10.44 0.08,-20.87 a 0.75,0.75 0 0 0 -1.5,0 z"
       id="path44" />
    <path
       d="m 189.22,102.58 c 2.17,-3.24 5.41,0.32 6.37,2 a 8.15,8.15 0 0 1 1.12,3.84 c 0.12,4.31 -4.33,5.45 -7.81,5.39 a 0.75,0.75 0 0 0 0,1.5 c 2.74,0 6.48,-0.57 8.28,-2.9 1.37,-1.77 1.23,-4.55 0.59,-6.56 -1.22,-3.84 -6.64,-8.8 -9.84,-4 -0.54,0.81 0.76,1.56 1.29,0.76 z"
       id="path45" />
    <path
       d="m 203.56,98.04 c -2.28,4.31 -3,8.93 -3.26,13.74 a 25.89,25.89 0 0 0 0.11,6.22 c 0.16,0.85 2.5,5.1 2.44,5.44 -0.15,1 1.29,1.35 1.45,0.4 a 5,5 0 0 0 0,-1.27 c 0,-0.31 -0.54,-0.61 -0.65,-0.91 -1,-2.58 -2,-3.86 -2,-6.83 -0.08,-5.43 0.61,-11.19 3.17,-16 0.45,-0.85 -0.84,-1.61 -1.29,-0.76 z"
       id="path46" />
    <path
       d="m 214.87,105.06 c -0.91,-2.66 -3.31,-5.41 -6.45,-4.07 -3.64,1.54 -3.48,7.45 -3.67,10.72 -0.19,3.27 -0.79,8.41 2.79,10.41 2.52,1.39 6.16,1 7.72,-1.47 0.52,-0.82 -0.78,-1.57 -1.3,-0.76 -2.15,3.4 -6.84,0.59 -7.61,-2 a 16.86,16.86 0 0 1 -0.17,-4.66 44.73,44.73 0 0 1 0.53,-6 l 0.28,-1.53 q 0.47,-4.27 6.43,-0.27 c 0.31,0.91 1.76,0.52 1.45,-0.4 z"
       id="path47" />
    <path
       d="m 219.67,119.47 a 9,9 0 0 0 2.86,-5 l -1.48,-0.2 -1,9.51 0.75,-0.75 -2,0.05 a 0.75,0.75 0 0 0 0,1.5 h 3 a 0.75,0.75 0 0 0 0,-1.5 h -3 v 1.5 l 2,-0.05 a 0.78,0.78 0 0 0 0.75,-0.75 l 1,-9.51 c 0.09,-0.83 -1.3,-1 -1.47,-0.19 a 7.66,7.66 0 0 1 -2.47,4.36 c -0.72,0.65 0.35,1.71 1.06,1.06 z"
       id="path48" />
    <path
       d="m 224.13,118.57 a 0.75,0.75 0 0 0 0,-1.5 0.75,0.75 0 0 0 0,1.5 z"
       id="path49" />
    <path
       d="m 226.05,114.12 a 84.77,84.77 0 0 0 0,10.81 c 0.05,1 1.55,1 1.5,0 a 84.77,84.77 0 0 1 0,-10.81 c 0.06,-1 -1.44,-1 -1.5,0 z"
       id="path51" />
    <path
       d="m 230.89,114.28 a 26.15,26.15 0 0 1 -4.21,4.58 0.76,0.76 0 0 0 -0.12,0.91 17.6,17.6 0 0 0 5.19,5 c 0.83,0.51 1.58,-0.79 0.76,-1.29 a 15.66,15.66 0 0 1 -4.65,-4.45 l -0.12,0.91 a 28.24,28.24 0 0 0 4.45,-4.88 c 0.56,-0.78 -0.74,-1.53 -1.3,-0.76 z"
       id="path52" />
    <path
       d="m 234.77,98.06 c 0,8.39 0,16.77 0,25.15 a 0.75,0.75 0 0 0 1.5,0 c 0,-8.38 0,-16.76 0,-25.15 a 0.75,0.75 0 0 0 -1.5,0 z"
       id="path53" />
    <path
       d="m 242.65,114 a 34.15,34.15 0 0 0 7.37,-1.91 c 0.89,-0.34 0.51,-1.79 -0.4,-1.45 a 34,34 0 0 1 -7.37,1.91 c -1,0.14 -0.54,1.58 0.4,1.45 z"
       id="path54" />
    <path
       d="m 251.64,124.04 a 0.75,0.75 0 0 0 0,-1.5 0.75,0.75 0 0 0 0,1.5 z"
       id="path55" />
    <path
       d="m 248.96,98.44 c 5,6.53 10.26,17.46 2.08,24 -0.76,0.6 0.31,1.66 1.06,1.06 8.63,-6.89 3.57,-18.77 -1.84,-25.81 -0.58,-0.75 -1.89,0 -1.3,0.76 z"
       id="path56" />
    <path
       d="m 218.41,99.89 a 4.7,4.7 0 0 0 1.52,-4.54 c -0.13,-0.83 -1.52,-0.64 -1.47,0.2 l 0.22,3.89 c 0,0.65 0.08,1.3 0.11,2 0,0.26 -0.11,1.76 -0.08,1.8 l -0.45,1.1 a 3.15,3.15 0 0 1 2.11,0.34 c 0.86,0.41 1.63,-0.88 0.75,-1.3 a 5.39,5.39 0 0 0 -3.26,-0.48 0.75,0.75 0 0 0 -0.45,1.1 1.53,1.53 0 0 0 2.77,-0.4 7.9,7.9 0 0 0 0.06,-3.14 l -0.28,-4.86 -1.47,0.2 a 3.25,3.25 0 0 1 -1.14,3.08 c -0.73,0.63 0.34,1.69 1.06,1.06 z"
       id="path57" />
    <path
       d="m 240.99,108.37 c -0.35,3.52 -3.46,14.2 2.41,15.21 4.46,0.76 6.92,-5.32 7.17,-8.75 0.25,-3.43 -0.71,-7.44 -1.63,-10.76 -0.44,-1.57 -0.9,-4 -2.93,-4.26 -3.89,-0.48 -4.64,7.87 -4.9,10.27 -0.1,1 1.4,1 1.5,0 a 24.55,24.55 0 0 1 0.86,-4.57 10.76,10.76 0 0 1 0.65,-1.83 q 0.26,-2.36 1.91,-0.2 c 2.34,1.25 2.78,6.57 2.94,9.11 a 10.09,10.09 0 0 1 -0.69,5.35 q -1,4.26 -6.72,0 l 0.1,-1.32 c -0.26,-2.6 0.57,-5.69 0.83,-8.28 0.09,-1 -1.41,-1 -1.5,0 z"
       id="path58" />
    <path
       d="m 243.68,157.17 v -0.82 a 0.75,0.75 0 0 0 -1.5,0 l -1,22.57 c 0,1 1.46,1 1.5,0 l 1,-22.57 h -1.5 v 0.82 a 0.75,0.75 0 0 0 1.5,0 z"
       id="path76" />
    <path
       d="m 243.19,157.74 c 5.45,-0.57 8.78,2.53 8.68,8 -0.12,6.07 -2.34,12 -9.35,12 a 0.75,0.75 0 0 0 0,1.5 c 13.52,0 15.71,-24.57 0.67,-23 -1,0.09 -1,1.59 0,1.5 z"
       id="path77" />
    <path
       d="m 261.68,169.3 c 1.73,-2.59 0.22,-6.36 -3.19,-6.15 -4.27,0.26 -4.64,5.58 -4.58,8.75 0,1.86 0.76,7.84 3.88,6.2 1.52,-0.8 2.55,-3.28 3.14,-4.75 a 15.57,15.57 0 0 0 0.95,-7.49 c -0.1,-0.94 -1.54,-1 -1.5,0 a 59.47,59.47 0 0 0 1.37,10.26 c 0.21,0.94 1.66,0.54 1.45,-0.4 a 56.8,56.8 0 0 1 -1.32,-9.88 h -1.47 a 14.64,14.64 0 0 1 -0.46,5.85 13.3,13.3 0 0 1 -1.11,2.64 9.83,9.83 0 0 1 -0.68,1.12 c -1.22,1.11 -1.94,1.12 -2.14,0 -0.91,-1 -0.62,-3.94 -0.57,-5.28 a 7.94,7.94 0 0 1 0.78,-3.84 l 1.28,-1.35 q 5,0.47 2.91,3.53 c -0.54,0.8 0.76,1.56 1.29,0.76 z"
       id="path78" />
    <path
       d="m 267.22,157.47 c -1.1,3.69 -4.71,24.6 4.53,20.06 0.87,-0.43 0.11,-1.72 -0.76,-1.3 -4.37,2.15 -4,-8.23 -3.91,-9.7 a 35.07,35.07 0 0 1 1.59,-8.67 0.75076628,0.75076628 0 0 0 -1.45,-0.39 z"
       id="path79" />
    <path
       d="m 264,165.95 7.89,-0.37 c 1,0 1,-1.54 0,-1.5 l -7.89,0.37 c -1,0 -1,1.54 0,1.5 z"
       id="path80" />
    <path
       d="m 282.28,168 c 1.2,-3 -2.81,-4.4 -5.08,-3.6 a 7.3,7.3 0 0 0 -4.44,7.9 c 0.39,2.41 2.75,6 5.64,5.23 a 3.56,3.56 0 0 0 2.44,-3.14 c 0.43,-2.57 0.4,-5.31 0.59,-7.91 l -1.47,0.2 2.68,10.33 a 0.75208045,0.75208045 0 0 0 1.45,-0.4 l -2.68,-10.33 a 0.76,0.76 0 0 0 -1.48,0.2 l -0.38,5.3 c -0.09,1.25 0,5.29 -3.09,3.85 a 4.81,4.81 0 0 1 -1.75,-2 5.81,5.81 0 0 1 0,-5 6,6 0 0 1 1.2,-1.67 4.24,4.24 0 0 1 1.27,-0.94 q 2.46,-1.43 3.62,1.58 c -0.36,0.9 1.09,1.29 1.45,0.4 z"
       id="path81" />
    <path
       d="m 233.41,181.47 c -0.09,6.48 0.08,12.91 0.51,19.37 0.07,1 1.57,1 1.5,0 -0.43,-6.46 -0.6,-12.89 -0.51,-19.37 a 0.75,0.75 0 0 0 -1.5,0 z"
       id="path82" />
    <path
       d="m 237.26,194.87 c -0.11,2.63 0.47,7.79 4.39,7.09 2.92,-0.53 4,-4.88 4.21,-7.34 0.23,-2.84 -1.12,-5.92 -4.3,-6.14 -3.18,-0.22 -5.07,2.83 -4.68,5.77 0.13,1 1.58,0.55 1.45,-0.4 -0.38,-2.79 2.51,-5.15 4.86,-3 1.41,1.25 1.35,3.24 1,5 a 10.58,10.58 0 0 1 -1.24,3.41 c -0.39,1 -1.09,1.14 -2.1,0.44 -1.25,0.17 -1.91,-0.36 -2,-1.57 a 11.6,11.6 0 0 1 -0.11,-3.17 c 0,-1 -1.46,-1 -1.5,0 z"
       id="path83" />
    <path
       d="m 252.76,190.65 c -1,-1.2 -3.11,-2.53 -4.56,-1.2 a 3.93,3.93 0 0 0 -0.78,2.56 c -0.21,1.87 -0.31,3.77 -0.36,5.65 -0.05,1.88 -0.38,4.44 1.94,4.87 2.32,0.43 4.27,-1.54 5.23,-3.41 0.44,-0.85 -0.85,-1.61 -1.29,-0.75 -0.64,1.24 -2.37,3.47 -3.87,2.39 -1,-0.7 -0.53,-2.85 -0.48,-4 0.05,-1.15 0.11,-2.32 0.21,-3.48 0.06,-0.77 -0.16,-2 0.52,-2.51 0.68,-0.51 1.76,0.16 2.38,0.91 0.62,0.75 1.67,-0.32 1.06,-1.06 z"
       id="path84" />
    <path
       d="m 255.7,188.9 c -0.25,3.2 -0.89,7 -0.39,10.15 a 3,3 0 0 0 2.9,2.82 c 5.6,0.26 5.63,-8.17 5.45,-11.74 -0.05,-1 -1.53,-1 -1.5,0 l 0.45,12.64 c 0,1 1.53,1 1.5,0 l -0.45,-12.65 h -1.5 a 26,26 0 0 1 -0.05,4.91 8.5,8.5 0 0 1 -0.65,2.53 3.11,3.11 0 0 1 -0.73,1.27 c -0.82,1.46 -2.13,1.24 -3.95,-0.67 -0.38,-1 0.06,-3 0.1,-4.13 0.08,-1.72 0.19,-3.43 0.32,-5.14 0.07,-1 -1.43,-1 -1.5,0 z"
       id="path85" />
    <path
       d="m 270.67,189.28 c -2,-2.86 -4.94,0.27 -5.67,2.49 a 3.24,3.24 0 0 0 1,3.68 10.15,10.15 0 0 0 2.35,1.4 5.51,5.51 0 0 1 1.29,0.69 q 1.49,3.68 -0.93,3.48 a 5.09,5.09 0 0 1 -2.16,-0.16 c -0.94,-0.17 -1.35,1.27 -0.4,1.44 2.36,0.43 7,0.17 6.33,-3.48 -0.26,-1.39 -1.57,-2.31 -2.72,-2.95 a 18.68,18.68 0 0 1 -2.35,-1.22 2,2 0 0 1 -0.89,-2.7 c 0.22,-0.69 1.8,-3.35 2.8,-1.92 0.55,0.79 1.85,0 1.3,-0.75 z"
       id="path86" />
    <path
       d="m 282,194.57 c 3.27,-3.16 6.33,-6.4 7.13,-11 0.16,-0.94 -1.2,-1.35 -1.45,-0.4 a 16.39,16.39 0 0 0 -0.34,6.76 c 0.19,1.32 0.48,2.61 0.74,3.91 0.19,0.87 0.36,1.74 0.51,2.62 0.86,2.37 -0.12,4 -3,5 l -0.38,1.4 a 57.54,57.54 0 0 1 8.3,-0.39 0.75,0.75 0 0 0 0,-1.5 57.54,57.54 0 0 0 -8.3,0.39 0.76,0.76 0 0 0 -0.38,1.4 c 2.19,1.66 4.67,0.12 5.28,-2.33 1.39,-5.52 -2.56,-11.05 -1,-16.81 l -1.45,-0.4 c -0.74,4.33 -3.69,7.41 -6.74,10.36 -0.69,0.67 0.37,1.73 1.06,1.06 z"
       id="path87" />
  </g>
  <metadata
     id="metadata134">
    <rdf:RDF>
      <cc:Work
         rdf:about="">
        <dc:title>sel_hmm</dc:title>
      </cc:Work>
    </rdf:RDF>
  </metadata>
</svg>
