<?xml version="1.0" encoding="UTF-8" standalone="no"?>
<svg
   viewBox="0 0 699.99999 350"
   version="1.1"
   id="svg134"
   sodipodi:docname="sel_hmm_5.svg"
   inkscape:version="1.3.2 (1:1.3.2+202311252150+091e20ef0f)"
   width="700"
   height="350"
   xmlns:inkscape="http://www.inkscape.org/namespaces/inkscape"
   xmlns:sodipodi="http://sodipodi.sourceforge.net/DTD/sodipodi-0.dtd"
   xmlns="http://www.w3.org/2000/svg"
   xmlns:svg="http://www.w3.org/2000/svg"
   xmlns:rdf="http://www.w3.org/1999/02/22-rdf-syntax-ns#"
   xmlns:cc="http://creativecommons.org/ns#"
   xmlns:dc="http://purl.org/dc/elements/1.1/">
  <sodipodi:namedview
     id="namedview134"
     pagecolor="#ffffff"
     bordercolor="#000000"
     borderopacity="0.25"
     inkscape:showpageshadow="2"
     inkscape:pageopacity="0.0"
     inkscape:pagecheckerboard="0"
     inkscape:deskcolor="#d1d1d1"
     inkscape:zoom="0.97968631"
     inkscape:cx="447.08188"
     inkscape:cy="70.430707"
     inkscape:window-width="1223"
     inkscape:window-height="779"
     inkscape:window-x="57"
     inkscape:window-y="21"
     inkscape:window-maximized="1"
     inkscape:current-layer="Layer_1" />
  <defs
     id="defs1">
    <style
       id="style1">.cls-1{fill:#8c0000;}</style>
  </defs>
  <title
     id="title1">sel_hmm</title>
  <g
     id="Layer_1"
     data-name="Layer 1">
    <path
       d="m 442.34,59.68 q 10.62,-0.25 21.24,0.29 a 0.75,0.75 0 0 0 0.2,-1.47 l -2.37,-1.61 -0.85,1.1 a 38.12,38.12 0 0 0 10.85,1.63 v -1.5 a 39.86,39.86 0 0 0 -10.43,2.37 c -0.89,0.34 -0.5,1.79 0.4,1.45 a 37.82,37.82 0 0 1 10,-2.32 0.75,0.75 0 0 0 0,-1.5 37.45,37.45 0 0 1 -10.47,-1.57 0.76,0.76 0 0 0 -0.85,1.1 4.25,4.25 0 0 0 3.26,2.3 l 0.2,-1.48 Q 452.9,57.93 442.28,58.18 a 0.75,0.75 0 0 0 0,1.5 z"
       id="path24" />
    <path
       d="m 491.02,58.84 c -1.44,0.26 -0.67,2.76 0.8,2 l -1,-0.27 a 1.06,1.06 0 0 0 1.77,0.12 1,1 0 0 0 -0.95,-1.6 0.78,0.78 0 0 0 -0.75,0.75 0.76,0.76 0 0 0 0.75,0.75 l -0.34,-0.26 v -0.4 l 0.82,-0.12 a 0.78,0.78 0 0 0 -1,-0.27 v 0 h 0.4 c 0.37,0.07 0.29,0.66 -0.08,0.73 0.95,-0.18 0.54,-1.62 -0.4,-1.45 z"
       id="path26" />
    <path
       d="m 498.41,58.98 a 1.13,1.13 0 0 0 -1.79,0.42 c -0.39,0.8 0.32,2 1.25,1.44 a 1.3,1.3 0 0 0 0.74,-1 0.91,0.91 0 0 0 -0.75,-1 c -0.91,-0.13 -1.58,1.1 -0.68,1.61 a 0.75,0.75 0 0 0 0.76,-1.29 h -0.06 l 0.35,0.45 v 0 l -0.08,0.58 -0.38,0.22 -0.38,-0.1 -0.17,-0.18 -0.1,-0.38 c 0.11,-0.17 0.09,-0.2 0,-0.09 h 0.75 a 1.34,1.34 0 0 1 0.14,0.51 c 0,0 -0.3,0.08 -0.21,0.09 l -0.38,-0.1 v 0 c 0.74,0.61 1.8,-0.44 1.06,-1.06 z"
       id="path27" />
    <path
       d="m 502.91,59.91 0.05,0.09 -0.1,-0.37 a 0.24,0.24 0 0 0 0.07,-0.13 l 0.38,-0.11 0.27,0.48 c 0.51,-0.82 -0.78,-1.58 -1.3,-0.76 a 1.15,1.15 0 1 0 1.93,0 c -0.41,-0.88 -1.7,-0.12 -1.3,0.76 z"
       id="path28" />
    <path
       d="m 551.20351,69.442322 a 12.765606,14.554695 86.341152 0 0 4.16315,-7.372704 l -2.40666,-0.130364 -0.75309,13.564697 1.14254,-1.139034 -3.22327,0.27718 a 1.0638005,1.2128913 86.341152 0 0 0.13578,2.123264 l 4.84168,-0.309606 a 1.0638005,1.2128913 86.341152 0 0 -0.13578,-2.123264 l -4.84168,0.309606 0.13578,2.123264 3.22326,-0.277179 a 1.1063525,1.2614069 86.341152 0 0 1.14253,-1.139033 l 0.75309,-13.564698 c 0.0701,-1.184161 -2.18858,-1.281347 -2.38963,-0.11724 a 10.864949,12.387663 86.341152 0 1 -3.59165,6.426529 c -1.10318,0.994388 0.71963,2.384401 1.80667,1.391047 z"
       id="path115-5"
       style="stroke-width:1.51454" />
    <path
       d="m 534.41,51.39 c -2.88,-5.61 -12.11,-1.51 -11.36,4.28 0.47,3.6 5,3.74 7.12,6 1.35,1.4 2.59,3.91 0.6,5.41 -1.15,0.87 -3.07,1.19 -3.93,0.19 -1,-1.17 -0.22,-1.75 -1.82,-2.53 -1.6,-0.78 -3.25,1.75 -1.51,2.59 0.63,0.31 0.63,2.18 1.18,2.76 a 3.9,3.9 0 0 0 3.21,0.84 c 2.29,-0.15 5.37,-1.09 6.49,-3.27 1.21,-2.37 0.15,-5.35 -1.39,-7.29 a 12.24,12.24 0 0 0 -4.21,-3.25 20.43,20.43 0 0 1 -2.24,-1 l 0.63,-3.28 q 2.53,-2.4 4.6,0.1 c 0.88,1.71 3.47,0.2 2.59,-1.52 z"
       id="path5-6" />
    <path
       d="M 538.88,62.77 V 62.6 h -3 c 0.25333,4.1 0.43333,8.203333 0.54,12.31 0.016,0.821725 0.67827,1.48404 1.5,1.5 l 6.34463,0.06528 c 1.14327,-0.02818 1.84711,-1.261257 1.29,-2.26 -0.17953,-0.520438 -0.45044,-1.004687 -0.8,-1.43 -1.09,-1.58 -3.69,-0.08 -2.59,1.51 0.35459,0.425232 0.6321,0.909185 0.82,1.43 l 1.3,-2.25 L 537.94,73.41 l 1.5,1.5 c -0.10667,-4.1 -0.28667,-8.203333 -0.54,-12.31 0,-1.999999 -3,-1.999999 -3,0 v 0.17 c -0.24,1.91 2.76,1.9 3,0 z"
       id="path6-3"
       sodipodi:nodetypes="ccccccccccccccsccc" />
    <path
       style="fill:#870303;stroke:#000000;stroke-width:2;stroke-linecap:round;stroke-linejoin:round;stroke-dasharray:none;paint-order:fill markers stroke"
       d="m 543.52318,67.95011 c 1.56687,-0.03763 1.37372,0.05761 2.94343,0.05761"
       id="path135"
       sodipodi:nodetypes="cc" />
  </g>
  <metadata
     id="metadata134">
    <rdf:RDF>
      <cc:Work
         rdf:about="">
        <dc:title>sel_hmm</dc:title>
      </cc:Work>
    </rdf:RDF>
  </metadata>
</svg>
