<?xml version="1.0" encoding="UTF-8" standalone="no"?>
<svg
   viewBox="0 0 699.99999 350"
   version="1.1"
   id="svg134"
   sodipodi:docname="sel_hmm_3.svg"
   inkscape:version="1.3.2 (1:1.3.2+202311252150+091e20ef0f)"
   width="700"
   height="350"
   xmlns:inkscape="http://www.inkscape.org/namespaces/inkscape"
   xmlns:sodipodi="http://sodipodi.sourceforge.net/DTD/sodipodi-0.dtd"
   xmlns="http://www.w3.org/2000/svg"
   xmlns:svg="http://www.w3.org/2000/svg"
   xmlns:rdf="http://www.w3.org/1999/02/22-rdf-syntax-ns#"
   xmlns:cc="http://creativecommons.org/ns#"
   xmlns:dc="http://purl.org/dc/elements/1.1/">
  <sodipodi:namedview
     id="namedview134"
     pagecolor="#ffffff"
     bordercolor="#000000"
     borderopacity="0.25"
     inkscape:showpageshadow="2"
     inkscape:pageopacity="0.0"
     inkscape:pagecheckerboard="0"
     inkscape:deskcolor="#d1d1d1"
     inkscape:zoom="0.97968631"
     inkscape:cx="447.08188"
     inkscape:cy="70.430707"
     inkscape:window-width="1223"
     inkscape:window-height="779"
     inkscape:window-x="57"
     inkscape:window-y="21"
     inkscape:window-maximized="1"
     inkscape:current-layer="Layer_1" />
  <defs
     id="defs1">
    <style
       id="style1">.cls-1{fill:#8c0000;}</style>
  </defs>
  <title
     id="title1">sel_hmm</title>
  <g
     id="Layer_1"
     data-name="Layer 1">
    <path
       d="m 267.66,53.12 c 0.4,-7.16 -9.16,-5.7 -11.43,-0.67 -1.11,2.46 0.29,5 2.2,6.58 1.91,1.58 4.76,1.93 5,4.82 0.2,2.25 -1.32,5.86 -4.75,3.45 -1,-0.68 -1.66,-2.33 -2.26,-3.3 -1,-1.64 -3.61,-0.13 -2.59,1.52 1.44,2.34 2.94,5.08 5.93,5.54 a 5.94,5.94 0 0 0 5.72,-2.68 7.53,7.53 0 0 0 0.26,-7.29 7.13,7.13 0 0 0 -2.33,-2.53 c -0.71,-0.51 -1.52,-0.83 -2.25,-1.3 l -1.41,-1 q -0.48,-6.79 4.93,-3.08 c -0.11,1.93 2.89,1.93 3,0 z"
       id="path1" />
    <path
       d="m 268.3,71.78 a 11.24,11.24 0 0 0 3.91,-8.6 c 0,-2 -2.87,-1.91 -3,0 l -0.41,6 c -0.12,1.88 0,4.15 -0.46,6 l 1,-1 a 8.8,8.8 0 0 1 -2.35,0.22 c -1.59,0.08 -2.16,2.68 -0.4,3 a 16.87,16.87 0 0 0 7.14,-0.36 1.5,1.5 0 0 0 -0.8,-2.89 13.14,13.14 0 0 1 -5.54,0.36 l -0.4,2.94 c 2.43,-0.11 4.08,0 4.39,-2.67 0.43,-3.79 0.52,-7.66 0.78,-11.46 h -3 a 8.32,8.32 0 0 1 -3,6.48 c -1.46,1.26 0.67,3.38 2.12,2.12 z"
       id="path2" />
  </g>
  <metadata
     id="metadata134">
    <rdf:RDF>
      <cc:Work
         rdf:about="">
        <dc:title>sel_hmm</dc:title>
      </cc:Work>
    </rdf:RDF>
  </metadata>
</svg>
