<?xml version="1.0" encoding="UTF-8" standalone="no"?>
<svg
   viewBox="0 0 699.99999 350"
   version="1.1"
   id="svg134"
   sodipodi:docname="sel_hmm_8.svg"
   inkscape:version="1.3.2 (1:1.3.2+202311252150+091e20ef0f)"
   width="700"
   height="350"
   xmlns:inkscape="http://www.inkscape.org/namespaces/inkscape"
   xmlns:sodipodi="http://sodipodi.sourceforge.net/DTD/sodipodi-0.dtd"
   xmlns="http://www.w3.org/2000/svg"
   xmlns:svg="http://www.w3.org/2000/svg"
   xmlns:rdf="http://www.w3.org/1999/02/22-rdf-syntax-ns#"
   xmlns:cc="http://creativecommons.org/ns#"
   xmlns:dc="http://purl.org/dc/elements/1.1/">
  <sodipodi:namedview
     id="namedview134"
     pagecolor="#ffffff"
     bordercolor="#000000"
     borderopacity="0.25"
     inkscape:showpageshadow="2"
     inkscape:pageopacity="0.0"
     inkscape:pagecheckerboard="0"
     inkscape:deskcolor="#d1d1d1"
     inkscape:zoom="0.97968631"
     inkscape:cx="447.08188"
     inkscape:cy="70.430707"
     inkscape:window-width="1223"
     inkscape:window-height="779"
     inkscape:window-x="57"
     inkscape:window-y="21"
     inkscape:window-maximized="1"
     inkscape:current-layer="Layer_1" />
  <defs
     id="defs1">
    <style
       id="style1">.cls-1{fill:#8c0000;}</style>
  </defs>
  <title
     id="title1">sel_hmm</title>
  <g
     id="Layer_1"
     data-name="Layer 1">
    <path
       d="m 407.88,79.85 1,72.23 1.4,-0.38 c -2.47,-3.78 -4.73,-7.65 -6.82,-11.65 l -1.29,0.76 6.68,12.14 a 0.76,0.76 0 0 0 1.3,0 l 5.79,-9.54 c 0.51,-0.83 -0.79,-1.58 -1.29,-0.76 q -2.89,4.77 -5.8,9.54 h 1.3 l -6.74,-12.14 c -0.46,-0.85 -1.74,-0.1 -1.29,0.76 2.08,4 4.35,7.87 6.81,11.65 a 0.76,0.76 0 0 0 1.4,-0.38 l -1,-72.23 a 0.75,0.75 0 0 0 -1.5,0 z"
       id="path42" />
    <path
       d="m 336.71,102.55 q 0.19,10.44 -0.08,20.87 a 0.75,0.75 0 0 0 1.5,0 q 0.27,-10.44 0.08,-20.87 a 0.75,0.75 0 0 0 -1.5,0 z"
       id="path59" />
    <path
       d="m 338.22,102.58 c 2.17,-3.24 5.41,0.32 6.37,2 a 8.15,8.15 0 0 1 1.12,3.84 c 0.12,4.31 -4.33,5.45 -7.81,5.39 a 0.75,0.75 0 0 0 0,1.5 c 2.74,0 6.48,-0.57 8.28,-2.9 1.37,-1.77 1.23,-4.55 0.59,-6.56 -1.22,-3.84 -6.64,-8.8 -9.84,-4 -0.54,0.81 0.76,1.56 1.29,0.76 z"
       id="path60" />
    <path
       d="m 352.56,98.04 c -2.28,4.31 -3,8.93 -3.26,13.74 a 25.89,25.89 0 0 0 0.11,6.22 c 0.16,0.85 2.5,5.1 2.44,5.44 -0.15,1 1.29,1.35 1.45,0.4 a 5,5 0 0 0 0,-1.27 c 0,-0.31 -0.54,-0.61 -0.65,-0.91 -1,-2.58 -2,-3.86 -2,-6.83 -0.08,-5.43 0.61,-11.19 3.17,-16 0.45,-0.85 -0.84,-1.61 -1.29,-0.76 z"
       id="path61" />
    <path
       d="m 368.67,119.47 a 9,9 0 0 0 2.86,-5 l -1.48,-0.2 -1,9.51 0.75,-0.75 -2,0.05 a 0.75,0.75 0 0 0 0,1.5 h 3 a 0.75,0.75 0 0 0 0,-1.5 h -3 v 1.5 l 2,-0.05 a 0.78,0.78 0 0 0 0.75,-0.75 l 1,-9.51 c 0.09,-0.83 -1.3,-1 -1.47,-0.19 a 7.66,7.66 0 0 1 -2.47,4.36 c -0.72,0.65 0.35,1.71 1.06,1.06 z"
       id="path62" />
    <path
       d="m 373.13,118.57 a 0.75,0.75 0 0 0 0,-1.5 0.75,0.75 0 0 0 0,1.5 z"
       id="path63" />
    <path
       d="m 372.85,124.74 a 0.75,0.75 0 0 0 0,-1.5 0.75,0.75 0 0 0 0,1.5 z"
       id="path64" />
    <path
       d="m 375.05,114.12 a 84.77,84.77 0 0 0 0,10.81 c 0.05,1 1.55,1 1.5,0 a 84.77,84.77 0 0 1 0,-10.81 c 0.06,-1 -1.44,-1 -1.5,0 z"
       id="path65" />
    <path
       d="m 379.89,114.28 a 26.15,26.15 0 0 1 -4.21,4.58 0.76,0.76 0 0 0 -0.12,0.91 17.6,17.6 0 0 0 5.19,5 c 0.83,0.51 1.58,-0.79 0.76,-1.29 a 15.66,15.66 0 0 1 -4.65,-4.45 l -0.12,0.91 a 28.24,28.24 0 0 0 4.45,-4.88 c 0.56,-0.78 -0.74,-1.53 -1.3,-0.76 z"
       id="path66" />
    <path
       d="m 383.77,98.06 c 0,8.39 0,16.77 0,25.15 a 0.75,0.75 0 0 0 1.5,0 c 0,-8.38 0,-16.76 0,-25.15 a 0.75,0.75 0 0 0 -1.5,0 z"
       id="path67" />
    <path
       d="m 391.65,114 a 34.15,34.15 0 0 0 7.37,-1.91 c 0.89,-0.34 0.51,-1.79 -0.4,-1.45 a 34,34 0 0 1 -7.37,1.91 c -1,0.14 -0.54,1.58 0.4,1.45 z"
       id="path68" />
    <path
       d="m 397.96,98.44 c 3.31,4.31 6,8.4 6.14,14 a 13.67,13.67 0 0 1 -1.36,7 c -0.89,1.58 -2.1,2.08 -3,3.4 -0.56,0.79 0.74,1.54 1.29,0.76 1.29,-1.81 2.82,-2.59 3.69,-4.82 a 16.71,16.71 0 0 0 0.92,-6.35 c -0.12,-5.91 -2.82,-10.2 -6.34,-14.8 -0.58,-0.75 -1.89,0 -1.3,0.76 z"
       id="path69" />
    <path
       d="m 363.7,104.12 c 0.21,-3.37 -3,-5.32 -6.06,-3.83 -3.57,1.76 -4,6.37 -4.36,9.86 -0.45,4 -0.45,9 3.22,11.63 a 5.62,5.62 0 0 0 8.26,-1.61 c 0.51,-0.83 -0.79,-1.58 -1.29,-0.76 -2.58,4.22 -7.52,0.62 -8.49,-2.47 a 13.26,13.26 0 0 1 -0.4,-4.61 34.93,34.93 0 0 1 0.56,-4.8 l 0.25,-1.36 q 0.54,-5.3 6.81,-2 c 0,1 1.45,1 1.5,0 z"
       id="path70" />
    <path
       d="m 390.7,105.22 c -0.91,4.44 -2.8,13.58 1,17.31 3.41,3.36 6.42,-1.19 7.23,-4.25 a 30.5,30.5 0 0 0 0.72,-10.64 c -0.18,-1.77 -0.16,-5.2 -1.74,-6.42 -3.21,-2.48 -7.87,1.37 -8.37,4.48 -0.16,0.94 1.29,1.35 1.44,0.4 0.32,-2 2.48,-4.24 4.66,-3.86 2.39,0.41 2.33,3.66 2.51,5.4 a 28,28 0 0 1 -0.67,10.24 c -0.44,1.59 -1.91,6.54 -5.15,3 -1,-1.13 -0.94,-3.72 -1,-5.1 a 39.3,39.3 0 0 1 0.85,-10.14 c 0.19,-0.94 -1.26,-1.34 -1.45,-0.39 z"
       id="path71" />
    <path
       d="m 367.33,97.84 a 2.4,2.4 0 0 1 0.09,-1 c 0.33,-1.09 1,-1.08 2.05,0 0.35,0.81 -0.24,1.77 -0.66,2.42 -0.9,1.38 -2,2.65 -3,4 a 0.76,0.76 0 0 0 0.53,1.28 9.24,9.24 0 0 0 4.78,-0.79 c 0.88,-0.38 0.12,-1.67 -0.76,-1.29 a 7.8,7.8 0 0 1 -4,0.58 l 0.53,1.28 c 1.68,-2.15 5.84,-5.9 3.55,-8.9 -1.95,-2.55 -4.64,0 -4.55,2.45 0,1 1.53,1 1.5,0 z"
       id="path72" />
    <path
       d="m 389.68,157.17 v -0.82 a 0.75,0.75 0 0 0 -1.5,0 l -1,22.57 c 0,1 1.46,1 1.5,0 l 1,-22.57 h -1.5 v 0.82 a 0.75,0.75 0 0 0 1.5,0 z"
       id="path88" />
    <path
       d="m 389.19,157.74 c 5.45,-0.57 8.78,2.53 8.68,8 -0.12,6.07 -2.34,12 -9.35,12 a 0.75,0.75 0 0 0 0,1.5 c 13.52,0 15.71,-24.57 0.67,-23 -0.95,0.09 -1,1.59 0,1.5 z"
       id="path89" />
    <path
       d="m 407.68,169.3 c 1.73,-2.59 0.22,-6.36 -3.19,-6.15 -4.27,0.26 -4.64,5.58 -4.58,8.75 0,1.86 0.76,7.84 3.88,6.2 1.52,-0.8 2.55,-3.28 3.14,-4.75 a 15.57,15.57 0 0 0 0.95,-7.49 c -0.1,-0.94 -1.54,-1 -1.5,0 a 59.47,59.47 0 0 0 1.37,10.26 c 0.21,0.94 1.66,0.54 1.45,-0.4 a 56.8,56.8 0 0 1 -1.32,-9.88 h -1.47 a 14.64,14.64 0 0 1 -0.46,5.85 13.3,13.3 0 0 1 -1.11,2.64 9.83,9.83 0 0 1 -0.68,1.12 c -1.22,1.11 -1.94,1.12 -2.14,0 -0.91,-1 -0.62,-3.94 -0.57,-5.28 a 7.94,7.94 0 0 1 0.78,-3.84 l 1.28,-1.35 q 5,0.47 2.91,3.53 c -0.54,0.8 0.76,1.56 1.29,0.76 z"
       id="path90" />
    <path
       d="m 413.22,157.47 c -1.1,3.69 -4.71,24.6 4.53,20.06 0.87,-0.43 0.11,-1.72 -0.76,-1.3 -4.37,2.15 -4,-8.23 -3.91,-9.7 a 35.07,35.07 0 0 1 1.59,-8.67 0.75076628,0.75076628 0 0 0 -1.45,-0.39 z"
       id="path91" />
    <path
       d="m 410,165.95 7.89,-0.37 c 1,0 1,-1.54 0,-1.5 l -7.89,0.37 c -1,0 -1,1.54 0,1.5 z"
       id="path92" />
    <path
       d="m 428.28,168 c 1.2,-3 -2.81,-4.4 -5.08,-3.6 a 7.3,7.3 0 0 0 -4.44,7.9 c 0.39,2.41 2.75,6 5.64,5.23 a 3.56,3.56 0 0 0 2.44,-3.14 c 0.43,-2.57 0.4,-5.31 0.59,-7.91 l -1.47,0.2 2.68,10.33 a 0.75208045,0.75208045 0 0 0 1.45,-0.4 l -2.68,-10.33 a 0.76,0.76 0 0 0 -1.48,0.2 l -0.38,5.3 c -0.09,1.25 0,5.29 -3.09,3.85 a 4.81,4.81 0 0 1 -1.75,-2 5.81,5.81 0 0 1 0,-5 6,6 0 0 1 1.2,-1.67 4.24,4.24 0 0 1 1.27,-0.94 q 2.46,-1.43 3.62,1.58 c -0.36,0.9 1.09,1.29 1.45,0.4 z"
       id="path93" />
    <path
       d="m 379.41,181.47 c -0.09,6.48 0.08,12.91 0.51,19.37 0.07,1 1.57,1 1.5,0 -0.43,-6.46 -0.6,-12.89 -0.51,-19.37 a 0.75,0.75 0 0 0 -1.5,0 z"
       id="path94" />
    <path
       d="m 383.26,194.87 c -0.11,2.63 0.47,7.79 4.39,7.09 2.92,-0.53 4,-4.88 4.21,-7.34 0.23,-2.84 -1.12,-5.92 -4.3,-6.14 -3.18,-0.22 -5.07,2.83 -4.68,5.77 0.13,1 1.58,0.55 1.45,-0.4 -0.38,-2.79 2.51,-5.15 4.86,-3 1.41,1.25 1.35,3.24 1,5 a 10.58,10.58 0 0 1 -1.24,3.41 c -0.39,1 -1.09,1.14 -2.1,0.44 -1.25,0.17 -1.91,-0.36 -2,-1.57 a 11.6,11.6 0 0 1 -0.11,-3.17 c 0,-1 -1.46,-1 -1.5,0 z"
       id="path95" />
    <path
       d="m 398.76,190.65 c -1,-1.2 -3.11,-2.53 -4.56,-1.2 a 3.93,3.93 0 0 0 -0.78,2.56 c -0.21,1.87 -0.31,3.77 -0.36,5.65 -0.05,1.88 -0.38,4.44 1.94,4.87 2.32,0.43 4.27,-1.54 5.23,-3.41 0.44,-0.85 -0.85,-1.61 -1.29,-0.75 -0.64,1.24 -2.37,3.47 -3.87,2.39 -0.95,-0.7 -0.53,-2.85 -0.48,-4 0.05,-1.15 0.11,-2.32 0.21,-3.48 0.06,-0.77 -0.16,-2 0.52,-2.51 0.68,-0.51 1.76,0.16 2.38,0.91 0.62,0.75 1.67,-0.32 1.06,-1.06 z"
       id="path96" />
    <path
       d="m 401.7,188.9 c -0.25,3.2 -0.89,7 -0.39,10.15 a 3,3 0 0 0 2.9,2.82 c 5.6,0.26 5.63,-8.17 5.45,-11.74 -0.05,-1 -1.53,-1 -1.5,0 l 0.45,12.64 c 0,1 1.53,1 1.5,0 l -0.45,-12.65 h -1.5 a 26,26 0 0 1 -0.05,4.91 8.5,8.5 0 0 1 -0.65,2.53 3.11,3.11 0 0 1 -0.73,1.27 c -0.82,1.46 -2.13,1.24 -3.95,-0.67 -0.38,-1 0.06,-3 0.1,-4.13 0.08,-1.72 0.19,-3.43 0.32,-5.14 0.07,-1 -1.43,-1 -1.5,0 z"
       id="path97" />
    <path
       d="m 416.67,189.28 c -2,-2.86 -4.94,0.27 -5.67,2.49 a 3.24,3.24 0 0 0 1,3.68 10.15,10.15 0 0 0 2.35,1.4 5.51,5.51 0 0 1 1.29,0.69 q 1.49,3.68 -0.93,3.48 a 5.09,5.09 0 0 1 -2.16,-0.16 c -0.94,-0.17 -1.35,1.27 -0.4,1.44 2.36,0.43 7,0.17 6.33,-3.48 -0.26,-1.39 -1.57,-2.31 -2.72,-2.95 a 18.68,18.68 0 0 1 -2.35,-1.22 2,2 0 0 1 -0.89,-2.7 c 0.22,-0.69 1.8,-3.35 2.8,-1.92 0.55,0.79 1.85,0 1.3,-0.75 z"
       id="path98" />
    <path
       d="m 429.54,191.86 a 10.91,10.91 0 0 1 -0.16,-2.21 q 0.48,-6 6.68,-3.06 c 1.47,2.39 -0.76,5.24 -2,7.09 a 45.08,45.08 0 0 1 -6.93,8 0.76,0.76 0 0 0 0.33,1.26 27.6,27.6 0 0 0 11.72,-0.59 0.75,0.75 0 0 0 -0.4,-1.44 25.49,25.49 0 0 1 -10.92,0.58 l 0.33,1.26 c 3.5,-3.21 13.22,-12.26 8.7,-17.57 a 4.68,4.68 0 0 0 -5.4,-1.14 c -3.27,1.34 -3.82,4.71 -3.43,7.84 0.12,0.95 1.62,1 1.5,0 z"
       id="path110" />
  </g>
  <metadata
     id="metadata134">
    <rdf:RDF>
      <cc:Work
         rdf:about="">
        <dc:title>sel_hmm</dc:title>
      </cc:Work>
    </rdf:RDF>
  </metadata>
</svg>
