<?xml version="1.0" encoding="UTF-8" standalone="no"?>
<svg
   viewBox="0 0 699.99999 350"
   version="1.1"
   id="svg134"
   sodipodi:docname="sel_hmm_1.svg"
   inkscape:version="1.3.2 (1:1.3.2+202311252150+091e20ef0f)"
   width="700"
   height="350"
   xmlns:inkscape="http://www.inkscape.org/namespaces/inkscape"
   xmlns:sodipodi="http://sodipodi.sourceforge.net/DTD/sodipodi-0.dtd"
   xmlns="http://www.w3.org/2000/svg"
   xmlns:svg="http://www.w3.org/2000/svg"
   xmlns:rdf="http://www.w3.org/1999/02/22-rdf-syntax-ns#"
   xmlns:cc="http://creativecommons.org/ns#"
   xmlns:dc="http://purl.org/dc/elements/1.1/">
  <sodipodi:namedview
     id="namedview134"
     pagecolor="#ffffff"
     bordercolor="#000000"
     borderopacity="0.25"
     inkscape:showpageshadow="2"
     inkscape:pageopacity="0.0"
     inkscape:pagecheckerboard="0"
     inkscape:deskcolor="#d1d1d1"
     inkscape:zoom="1.1902704"
     inkscape:cx="334.37781"
     inkscape:cy="128.54222"
     inkscape:window-width="1223"
     inkscape:window-height="779"
     inkscape:window-x="57"
     inkscape:window-y="21"
     inkscape:window-maximized="1"
     inkscape:current-layer="Layer_1" />
  <defs
     id="defs1">
    <style
       id="style1">.cls-1{fill:#8c0000;}</style>
  </defs>
  <title
     id="title1">sel_hmm</title>
  <g
     id="Layer_1"
     data-name="Layer 1">
    <path
       d="m 491.02,22.84 c -1.44,0.26 -0.67,2.76 0.8,2.05 l -1,-0.27 a 1.06,1.06 0 0 0 1.77,0.12 1,1 0 0 0 -0.95,-1.6 0.78,0.78 0 0 0 -0.75,0.75 0.76,0.76 0 0 0 0.75,0.75 l -0.34,-0.26 v -0.4 l 0.82,-0.12 a 0.78,0.78 0 0 0 -1,-0.27 v 0 h 0.4 c 0.37,0.07 0.29,0.66 -0.08,0.73 0.95,-0.18 0.54,-1.62 -0.4,-1.45 z"
       id="path7" />
    <path
       d="m 498.41,22.98 a 1.13,1.13 0 0 0 -1.79,0.42 c -0.39,0.8 0.32,2 1.25,1.44 a 1.3,1.3 0 0 0 0.74,-1 0.91,0.91 0 0 0 -0.75,-1 c -0.91,-0.13 -1.58,1.1 -0.68,1.61 a 0.75,0.75 0 0 0 0.76,-1.29 h -0.06 l 0.35,0.45 v -0.05 l -0.08,0.58 -0.38,0.22 -0.38,-0.1 -0.17,-0.18 -0.1,-0.38 c 0.11,-0.17 0.09,-0.2 0,-0.09 h 0.75 a 1.34,1.34 0 0 1 0.14,0.51 c 0,0 -0.3,0.08 -0.21,0.09 l -0.38,-0.1 v 0 c 0.74,0.61 1.8,-0.44 1.06,-1.06 z"
       id="path8" />
    <path
       d="m 502.91,23.91 0.05,0.09 -0.1,-0.37 a 0.24,0.24 0 0 0 0.07,-0.13 l 0.38,-0.11 0.27,0.48 c 0.51,-0.82 -0.78,-1.58 -1.3,-0.76 a 1.15,1.15 0 1 0 1.93,0 c -0.41,-0.88 -1.7,-0.12 -1.3,0.76 z"
       id="path9" />
    <path
       d="m 116.46958,23.87 c 49.5,-0.19 140.28042,0.31 189.74042,0.73 18.5,0.16 149.75228,0.263333 168.25228,0.31 1,0 1,-1.5 0,-1.5 -49.15,-0.16 -211.04228,-1 -260.19228,-1.12 -18.84,-0.04 -78.96042,-0.01333 -97.80042,0.08 -1,0 -1,1.5 0,1.5 z"
       id="path10"
       sodipodi:nodetypes="ccccccc" />
    <path
       d="m 519.00519,24.17 c 34.78,-0.07 114.65481,-0.33 149.43481,0.17 1,0 1,-1.5 0,-1.5 -34.78,-0.5 -114.65481,-0.24 -149.43481,-0.17 -1,0 -1,1.5 0,1.5 z"
       id="path11"
       sodipodi:nodetypes="ccccc" />
    <path
       d="m 115.29,18.54 a 31.43,31.43 0 0 0 -0.13,10.15 c 0.14,1 1.58,0.55 1.44,-0.4 a 29,29 0 0 1 0.14,-9.35 c 0.17,-0.95 -1.28,-1.35 -1.45,-0.4 z"
       id="path12" />
    <path
       d="m 668.41,18.58 a 30.45,30.45 0 0 0 -0.14,10.08 c 0.14,1 1.58,0.55 1.44,-0.4 a 28.34,28.34 0 0 1 0.15,-9.28 c 0.17,-0.95 -1.28,-1.35 -1.45,-0.4 z"
       id="path13" />
    <path
       d="M 47.07,7.38 C 47.53,5.29 47.37,3.48 45.54,2.11 44.06,1 40.8,-0.44 38.9,0.11 c -5.06,1.5 -5.3,13.17 -4.63,17.16 0.73,4.37 4.6,8.13 9,5.18 3.55,-2.39 4.95,-8.1 -0.62,-8.31 v 1.5 c 3.88,-0.49 3.55,2.19 3.74,5.12 0.06,1 1.56,1 1.5,0 a 37.25,37.25 0 0 0 -0.54,-6.34 0.75,0.75 0 0 0 -0.52,-0.53 c -1.37,-0.37 -2.8,0.08 -4.18,0.25 a 0.75,0.75 0 0 0 0,1.5 q 3.57,2.81 0.49,5 -4.95,3.6 -7.1,-2.43 a 14.51,14.51 0 0 1 -0.26,-6 c 0.18,-1.94 0.13,-4.3 0.87,-6.09 0.3,-2.29 1.82,-3.73 4.55,-4.34 q 4.17,0.6 4.46,5.16 c -0.2,0.94 1.24,1.35 1.45,0.4 z"
       id="path126" />
    <path
       d="m 51.16,17.2 c 3,0.22 7.75,-1.53 6.28,-5.33 -1,-2.67 -3.89,-5.63 -6.75,-3.38 a 5.65,5.65 0 0 0 -1.76,3.9 c -0.29,2 -0.81,4.7 0.07,6.66 1.55,3.46 5.57,5.15 8.84,3.06 0.81,-0.52 0.06,-1.82 -0.76,-1.29 a 4.49,4.49 0 0 1 -6.33,-1.7 c -1,-1.62 -0.66,-3.6 -0.47,-5.38 a 9.55,9.55 0 0 1 0.37,-2.45 c 1.07,-2.69 2.85,-2.24 4.3,-0.66 a 9.44,9.44 0 0 1 0.75,1.15 l -0.91,3.25 c -0.76,0.81 -2.67,0.75 -3.63,0.68 -0.96,-0.07 -1,1.43 0,1.5 z"
       id="path127" />
    <path
       d="m 58.87,9.24 a 84.33,84.33 0 0 0 0.28,12.88 c 0.1,0.95 1.6,1 1.5,0 A 84.33,84.33 0 0 1 60.41,9.24 c 0,-1 -1.45,-1 -1.5,0 z"
       id="path128" />
    <path
       d="m 60.49,14.81 a 40.87,40.87 0 0 0 6.37,-4.9 L 65.68,9.76 c 1.16,2.19 0.5,4.39 0.33,6.7 a 18.14,18.14 0 0 0 0.64,6 0.75208045,0.75208045 0 0 0 1.45,-0.4 22.14,22.14 0 0 1 -0.31,-8 8.46,8.46 0 0 0 -0.82,-5 0.75,0.75 0 0 0 -1.17,-0.15 38.59,38.59 0 0 1 -6.06,4.66 c -0.82,0.51 -0.07,1.81 0.75,1.3 z"
       id="path129" />
    <path
       d="m 70.64,14.37 c -0.61,3.14 -1.53,8.29 2.7,9.4 4.23,1.11 6.19,-3.94 6.53,-7.15 0.34,-3.21 -0.33,-9.4 -4.71,-8.91 -3.85,0.43 -6,4.82 -5.71,8.27 0.08,0.95 1.58,1 1.5,0 -0.18,-2.1 0.45,-4.56 2.34,-5.77 4.35,-2.79 5.22,2.56 5.16,5.34 0,1.84 -0.55,4.77 -2.11,6 -3.21,2.51 -4.83,-0.87 -4.85,-3 a 19.33,19.33 0 0 1 0.6,-3.78 c 0.18,-0.94 -1.27,-1.35 -1.45,-0.4 z"
       id="path130" />
    <path
       d="m 80.23,9.25 0.41,13.41 c 0,1 1.53,1 1.5,0 L 81.73,9.25 a 0.75,0.75 0 0 0 -1.5,0 z"
       id="path131" />
    <path
       d="m 82.2,13.35 c 0.73,-1.2 2.08,-4.33 3.83,-1.25 0.4,0.7 0.1,2.45 0.11,3.26 0,2.33 0.06,4.65 0.08,7 a 0.75,0.75 0 0 0 1.5,0 c 0,-2.48 0,-5 -0.08,-7.45 0,-1.6 0.22,-4.05 -0.81,-5.45 -2.09,-2.87 -4.93,1.53 -5.92,3.15 -0.51,0.82 0.79,1.58 1.29,0.76 z"
       id="path132" />
    <path
       d="m 88.07,14.25 c 0.59,-0.85 1.74,-3.34 2.65,-3.79 2.15,-1 1.39,2.2 1.37,3.34 0,3.07 -0.29,6.14 -0.54,9.2 -0.07,0.86 1.26,1 1.47,0.2 l 0.09,-0.34 a 0.75,0.75 0 0 0 -1.44,-0.4 l -0.1,0.34 1.48,0.2 c 0.25,-3.06 0.51,-6.13 0.54,-9.2 0,-1.36 0.58,-4.63 -0.51,-5.74 -2.2,-2.22 -5.62,4.44 -6.31,5.44 -0.56,0.79 0.74,1.54 1.3,0.75 z"
       id="path133" />
    <path
       d="m 95.73,18.6 c 3.12,-0.53 7.49,-2.66 8.16,-6.15 0.45,-2.32 -2.92,-6.07 -5.22,-4.25 -2.62,2.06 -4.16,8.22 -3.37,11.32 a 5.3,5.3 0 0 0 2.8,3.51 c 2,0.94 3.8,-0.23 5.87,-0.28 1,0 1,-1.53 0,-1.5 -2.15,0.05 -4.35,1.58 -6.26,-0.32 -1.91,-1.9 -1,-5.55 -0.09,-7.82 0.31,-0.84 2,-5.31 3.89,-2.9 1.18,1.5 0.39,3.29 -0.75,4.39 a 9.88,9.88 0 0 1 -5.43,2.52 c -1,0.16 -0.55,1.6 0.4,1.45 z"
       id="path134" />
  </g>
  <metadata
     id="metadata134">
    <rdf:RDF>
      <cc:Work
         rdf:about="">
        <dc:title>sel_hmm</dc:title>
      </cc:Work>
    </rdf:RDF>
  </metadata>
</svg>
