<?xml version="1.0" encoding="UTF-8" standalone="no"?>
<svg
   viewBox="0 0 699.99999 350"
   version="1.1"
   id="svg134"
   sodipodi:docname="sel_hmm_6.svg"
   inkscape:version="1.3.2 (1:1.3.2+202311252150+091e20ef0f)"
   width="700"
   height="350"
   xmlns:inkscape="http://www.inkscape.org/namespaces/inkscape"
   xmlns:sodipodi="http://sodipodi.sourceforge.net/DTD/sodipodi-0.dtd"
   xmlns="http://www.w3.org/2000/svg"
   xmlns:svg="http://www.w3.org/2000/svg"
   xmlns:rdf="http://www.w3.org/1999/02/22-rdf-syntax-ns#"
   xmlns:cc="http://creativecommons.org/ns#"
   xmlns:dc="http://purl.org/dc/elements/1.1/">
  <sodipodi:namedview
     id="namedview134"
     pagecolor="#ffffff"
     bordercolor="#000000"
     borderopacity="0.25"
     inkscape:showpageshadow="2"
     inkscape:pageopacity="0.0"
     inkscape:pagecheckerboard="0"
     inkscape:deskcolor="#d1d1d1"
     inkscape:zoom="0.97968631"
     inkscape:cx="447.08188"
     inkscape:cy="70.430707"
     inkscape:window-width="1223"
     inkscape:window-height="779"
     inkscape:window-x="57"
     inkscape:window-y="21"
     inkscape:window-maximized="1"
     inkscape:current-layer="Layer_1" />
  <defs
     id="defs1">
    <style
       id="style1">.cls-1{fill:#8c0000;}</style>
  </defs>
  <title
     id="title1">sel_hmm</title>
  <g
     id="Layer_1"
     data-name="Layer 1">
    <path
       d="m 644.41,51.39 c -2.88,-5.61 -12.11,-1.51 -11.36,4.28 0.47,3.6 5,3.74 7.12,6 1.35,1.4 2.59,3.91 0.6,5.41 -1.15,0.87 -3.07,1.19 -3.93,0.19 -1,-1.17 -0.22,-1.75 -1.82,-2.53 -1.6,-0.78 -3.25,1.75 -1.51,2.59 0.63,0.31 0.63,2.18 1.18,2.76 a 3.9,3.9 0 0 0 3.21,0.84 c 2.29,-0.15 5.37,-1.09 6.49,-3.27 1.21,-2.37 0.15,-5.35 -1.39,-7.29 a 12.24,12.24 0 0 0 -4.21,-3.25 20.43,20.43 0 0 1 -2.24,-1 l 0.63,-3.28 q 2.53,-2.4 4.6,0.1 c 0.88,1.71 3.47,0.2 2.59,-1.52 z"
       id="path5" />
    <path
       d="M 648.88,62.77 V 62.6 h -3 q 0.38,6.15 0.54,12.31 a 1.53,1.53 0 0 0 1.5,1.5 l 8,0.3 a 1.52,1.52 0 0 0 1.29,-2.26 4.63,4.63 0 0 0 -0.8,-1.43 c -1.09,-1.58 -3.69,-0.08 -2.59,1.51 a 4.75,4.75 0 0 1 0.82,1.43 l 1.3,-2.25 -8,-0.3 1.5,1.5 Q 649.28,68.76 648.9,62.6 a 1.5,1.5 0 0 0 -3,0 v 0.17 c -0.24,1.91 2.76,1.9 3,0 z"
       id="path6" />
    <path
       d="m 565.09,61.76 c 18.4,-0.07 36.81,0.54 55.21,0.48 0.71,0 1.07,-1.07 0.38,-1.4 a 31,31 0 0 0 -6.35,-2.26 0.75,0.75 0 0 0 -0.4,1.44 44.58,44.58 0 0 0 8,2 v -1.46 a 19.75,19.75 0 0 0 -8.52,4.45 c -0.73,0.63 0.33,1.69 1.06,1.06 a 17.79,17.79 0 0 1 7.86,-4.06 c 0.67,-0.17 0.75,-1.33 0,-1.45 a 44.34,44.34 0 0 1 -8,-2 l -0.4,1.44 a 28.14,28.14 0 0 1 6,2.12 l 0.38,-1.4 c -18.4,0.06 -36.81,-0.55 -55.21,-0.48 a 0.75,0.75 0 0 0 0,1.5 z"
       id="path25" />
    <path
       d="m 583.56,40.76 c 0,-6.41 -5.19,-9.69 -11.29,-8.79 -6.77,1 -9,7.85 -8.13,14 0.85,5.83 6.31,11.17 12.62,10 6.31,-1.17 7.36,-11.69 6.67,-16.69 -0.19,-1.43 -2.36,-0.82 -2.17,0.6 0.53,3.86 0.11,10.07 -3.2,12.88 -4.35,3.68 -10.56,-2.16 -11.5,-6.06 -0.94,-3.9 -0.38,-9.53 3.34,-11.66 4.79,-2.74 11.37,-0.12 11.41,5.73 a 1.13,1.13 0 0 0 2.25,0 z"
       id="path35" />
    <path
       d="m 576.61,48.51 a 23.19,23.19 0 0 0 6.3,7.18 c 1.15,0.88 2.27,-1.07 1.13,-1.94 a 20.66,20.66 0 0 1 -5.49,-6.38 c -0.7,-1.26 -2.65,-0.13 -1.94,1.14 z"
       id="path36" />
    <path
       d="m 590.17,32.85 c -4.95,6.27 -6.54,17.55 -1.09,24 0.94,1.1 2.52,-0.5 1.59,-1.6 -4.52,-5.32 -3,-15.63 1.09,-20.78 0.88,-1.13 -0.7,-2.73 -1.59,-1.6 z"
       id="path37" />
    <path
       d="m 602.9,46.96 c -0.1,-7 -14.59,-1.46 -8.73,6.2 2.08,2.73 5.58,2.94 7.22,-0.24 1.14,-2.2 1.82,-5.65 2.48,-8 a 28.08,28.08 0 0 0 0.9,-9.26 c -0.07,-1.18 -2,-1.62 -2.21,-0.29 -0.9,6.44 -1.7,12.84 -0.86,19.34 0.18,1.41 2.43,1.43 2.25,0 -0.82,-6.3 -0.09,-12.49 0.78,-18.75 l -2.21,-0.3 a 28.38,28.38 0 0 1 -1.57,11 c -0.42,1.22 -0.67,3.49 -1.33,4.51 q -3.36,4.1 -4.49,-1.63 1.17,-5.1 5.52,-2.51 a 1.13,1.13 0 0 0 2.25,0 z"
       id="path38" />
    <path
       d="m 611.27,34.7 c 1.48,3.06 3,6.2 3.61,9.58 0.7,4.09 -0.63,7.7 -2.18,11.38 -0.56,1.33 1.61,1.92 2.17,0.6 1.54,-3.6 2.82,-7.14 2.39,-11.14 -0.46,-4.12 -2.27,-7.89 -4.05,-11.58 -0.63,-1.3 -2.57,-0.16 -1.94,1.14 z"
       id="path39" />
    <path
       d="m 605.34,47.98 v 5.14 a 26.31,26.31 0 0 0 0,4.78 c 0.48,2.39 3.41,1.7 5.23,1.69 a 1.13,1.13 0 0 0 0,-2.25 c -0.5,0 -2.77,0.33 -3.1,0 0,0 0.09,-2.25 0.09,-2.66 v -6.7 a 1.13,1.13 0 0 0 -2.25,0 z"
       id="path40" />
  </g>
  <metadata
     id="metadata134">
    <rdf:RDF>
      <cc:Work
         rdf:about="">
        <dc:title>sel_hmm</dc:title>
      </cc:Work>
    </rdf:RDF>
  </metadata>
</svg>
