<?xml version="1.0" encoding="UTF-8" standalone="no"?>
<svg
   viewBox="0 0 699.99999 350"
   version="1.1"
   id="svg134"
   sodipodi:docname="sel_hmm_4.svg"
   inkscape:version="1.3.2 (1:1.3.2+202311252150+091e20ef0f)"
   width="700"
   height="350"
   xmlns:inkscape="http://www.inkscape.org/namespaces/inkscape"
   xmlns:sodipodi="http://sodipodi.sourceforge.net/DTD/sodipodi-0.dtd"
   xmlns="http://www.w3.org/2000/svg"
   xmlns:svg="http://www.w3.org/2000/svg"
   xmlns:rdf="http://www.w3.org/1999/02/22-rdf-syntax-ns#"
   xmlns:cc="http://creativecommons.org/ns#"
   xmlns:dc="http://purl.org/dc/elements/1.1/">
  <sodipodi:namedview
     id="namedview134"
     pagecolor="#ffffff"
     bordercolor="#000000"
     borderopacity="0.25"
     inkscape:showpageshadow="2"
     inkscape:pageopacity="0.0"
     inkscape:pagecheckerboard="0"
     inkscape:deskcolor="#d1d1d1"
     inkscape:zoom="0.97968631"
     inkscape:cx="447.08188"
     inkscape:cy="70.430707"
     inkscape:window-width="1223"
     inkscape:window-height="779"
     inkscape:window-x="57"
     inkscape:window-y="21"
     inkscape:window-maximized="1"
     inkscape:current-layer="Layer_1" />
  <defs
     id="defs1">
    <style
       id="style1">.cls-1{fill:#8c0000;}</style>
  </defs>
  <title
     id="title1">sel_hmm</title>
  <g
     id="Layer_1"
     data-name="Layer 1">
    <path
       d="m 409.99,52.59 c -1.45,-5.21 -8.69,-6.36 -10.83,-0.88 a 6.19,6.19 0 0 0 1.75,6.8 c 1.19,1.07 2.7,1.48 4,2.27 1.1,0.65 3.71,3.18 2.68,4.92 l -4.18,2.17 a 13.74,13.74 0 0 1 -3.21,-1.75 c -1.62,-1.07 -3.13,1.53 -1.52,2.59 4,2.6 10.14,3.7 11.84,-2.2 a 7.07,7.07 0 0 0 -1.36,-6.2 8.52,8.52 0 0 0 -2.69,-2.11 c -0.63,-0.34 -1.33,-0.57 -1.94,-0.92 a 3.57,3.57 0 0 1 -1.4,-1 q -3.51,-2.25 4,-2.89 a 1.5,1.5 0 0 0 2.89,-0.79 z"
       id="path3" />
    <path
       d="m 414.75,66.91 c 0.13,-2.27 2.34,-2.24 2.32,0 a 4.68,4.68 0 0 1 -1.27,2.75 c -1.34,1.66 -2.85,3.21 -4.27,4.8 a 1.52,1.52 0 0 0 0.66,2.51 15.12,15.12 0 0 0 7.87,-0.18 1.51,1.51 0 0 0 -0.8,-2.9 11.92,11.92 0 0 1 -6.27,0.19 l 0.66,2.5 c 2.95,-3.3 8.66,-7.93 5.51,-12.89 a 3.7,3.7 0 0 0 -4.51,-1.71 c -2,0.82 -2.78,3 -2.9,5 -0.12,2 2.88,1.92 3,0 z"
       id="path4" />
    <path
       d="m 298.06,61.96 c 11.4,0.3 22.84,-0.14 34.25,-0.24 7.23,-0.06 14.46,-0.13 21.69,0.05 5.29,0.14 10.87,0.92 16,-0.7 0.65,-0.2 0.78,-1.31 0,-1.45 a 20.41,20.41 0 0 1 -6.94,-2.5 l -0.58,1.37 a 63,63 0 0 1 9.4,2.79 l -0.18,-1.37 a 52.73,52.73 0 0 0 -6.9,3.73 c -0.81,0.52 -0.06,1.82 0.76,1.3 a 51.45,51.45 0 0 1 6.85,-3.75 c 0.66,-0.29 0.35,-1.17 -0.18,-1.37 a 61.41,61.41 0 0 0 -9.39,-2.8 0.75,0.75 0 0 0 -0.58,1.37 21.13,21.13 0 0 0 7.3,2.68 v -1.45 c -5.7,1.81 -12.16,0.7 -18.05,0.61 -7,-0.1 -14,-0.06 -21,0 -10.82,0.1 -21.66,0.51 -32.47,0.22 a 0.75,0.75 0 0 0 0,1.5 z"
       id="path23" />
    <path
       d="m 324.06,40.53 c 0,-6.41 -5.19,-9.69 -11.29,-8.79 -6.77,1 -9,7.85 -8.13,14 0.85,5.83 6.31,11.17 12.62,10 6.31,-1.17 7.36,-11.69 6.67,-16.69 -0.19,-1.43 -2.36,-0.82 -2.17,0.6 0.53,3.86 0.11,10.07 -3.2,12.88 -4.35,3.68 -10.56,-2.16 -11.5,-6.06 -0.94,-3.9 -0.38,-9.53 3.34,-11.66 4.79,-2.74 11.37,-0.12 11.41,5.73 a 1.13,1.13 0 0 0 2.25,0 z"
       id="path29" />
    <path
       d="m 317.11,48.28 a 23.19,23.19 0 0 0 6.3,7.18 c 1.15,0.88 2.27,-1.07 1.13,-1.94 a 20.77,20.77 0 0 1 -5.49,-6.4 c -0.7,-1.26 -2.65,-0.13 -1.94,1.14 z"
       id="path30" />
    <path
       d="m 330.67,32.62 c -4.94,6.27 -6.54,17.55 -1.09,24 0.94,1.1 2.52,-0.5 1.59,-1.6 -4.52,-5.32 -3,-15.63 1.09,-20.78 0.88,-1.13 -0.7,-2.73 -1.59,-1.6 z"
       id="path31" />
    <path
       d="m 344.41,46.73 c -0.1,-7 -14.59,-1.46 -8.73,6.2 2.08,2.73 5.58,2.94 7.22,-0.24 1.14,-2.2 1.82,-5.65 2.48,-8 a 28.08,28.08 0 0 0 0.9,-9.26 c -0.07,-1.18 -2,-1.62 -2.21,-0.29 -0.9,6.44 -1.7,12.83 -0.86,19.33 0.18,1.42 2.43,1.44 2.25,0 -0.82,-6.29 -0.09,-12.48 0.78,-18.74 l -2.21,-0.3 a 28.38,28.38 0 0 1 -1.57,11 c -0.42,1.22 -0.67,3.49 -1.33,4.51 q -3.36,4.09 -4.49,-1.63 1.17,-5.1 5.52,-2.51 a 1.13,1.13 0 0 0 2.25,0 z"
       id="path32" />
    <path
       d="m 349.33,49.82 c 0.19,-1.43 1.51,-0.74 1.11,0.51 a 4.88,4.88 0 0 1 -1.54,1.87 c -0.86,0.77 -2.17,1.75 -2.39,3 -0.53,2.89 4.51,1.9 5.93,1.68 1.42,-0.22 0.82,-2.39 -0.6,-2.17 a 17.07,17.07 0 0 1 -2.13,0.21 c -0.41,0 -0.82,0 -1.22,0 l 0.21,0.74 c 0.06,0 2.18,-2.19 2.37,-2.39 1.19,-1.2 2.3,-3 1.57,-4.72 a 3.16,3.16 0 0 0 -3.22,-1.9 c -1.66,0.23 -2.15,1.75 -2.34,3.19 -0.19,1.44 2.06,1.41 2.25,0 z"
       id="path33" />
    <path
       d="m 351.77,34.47 c 1.48,3.06 3,6.2 3.61,9.58 0.7,4.09 -0.63,7.7 -2.18,11.38 -0.56,1.33 1.61,1.92 2.17,0.6 1.51,-3.6 2.82,-7.17 2.39,-11.12 -0.46,-4.12 -2.27,-7.89 -4,-11.58 -0.63,-1.3 -2.57,-0.16 -1.94,1.14 z"
       id="path34" />
  </g>
  <metadata
     id="metadata134">
    <rdf:RDF>
      <cc:Work
         rdf:about="">
        <dc:title>sel_hmm</dc:title>
      </cc:Work>
    </rdf:RDF>
  </metadata>
</svg>
