<?xml version="1.0" encoding="UTF-8" standalone="no"?>
<svg
   viewBox="0 0 699.99999 350"
   version="1.1"
   id="svg134"
   sodipodi:docname="sel_hmm_2.svg"
   inkscape:version="1.3.2 (1:1.3.2+202311252150+091e20ef0f)"
   width="700"
   height="350"
   xmlns:inkscape="http://www.inkscape.org/namespaces/inkscape"
   xmlns:sodipodi="http://sodipodi.sourceforge.net/DTD/sodipodi-0.dtd"
   xmlns="http://www.w3.org/2000/svg"
   xmlns:svg="http://www.w3.org/2000/svg"
   xmlns:rdf="http://www.w3.org/1999/02/22-rdf-syntax-ns#"
   xmlns:cc="http://creativecommons.org/ns#"
   xmlns:dc="http://purl.org/dc/elements/1.1/">
  <sodipodi:namedview
     id="namedview134"
     pagecolor="#ffffff"
     bordercolor="#000000"
     borderopacity="0.25"
     inkscape:showpageshadow="2"
     inkscape:pageopacity="0.0"
     inkscape:pagecheckerboard="0"
     inkscape:deskcolor="#d1d1d1"
     inkscape:zoom="1.1902704"
     inkscape:cx="402.42957"
     inkscape:cy="118.46048"
     inkscape:window-width="1223"
     inkscape:window-height="779"
     inkscape:window-x="57"
     inkscape:window-y="21"
     inkscape:window-maximized="1"
     inkscape:current-layer="Layer_1" />
  <defs
     id="defs1">
    <style
       id="style1">.cls-1{fill:#8c0000;}</style>
  </defs>
  <title
     id="title1">sel_hmm</title>
  <g
     id="Layer_1"
     data-name="Layer 1">
    <path
       d="m 179.51,15.03 c 0.2,-2.62 -2.68,-3.49 -4.59,-2.1 -1.91,1.39 -3.17,4.93 -1,6.72 1.73,1.43 4.38,0.58 5.68,-1 2.47,-3 1.94,-8.57 2.26,-12.17 h -1.5 l -0.61,13.37 c 0,1 1.45,1 1.5,0 l 0.61,-13.37 c 0,-1 -1.42,-0.95 -1.5,0 -0.21,2.41 -0.35,4.83 -0.64,7.23 -0.2,1.67 -0.5,3.78 -2.12,4.73 -1.62,0.95 -2.79,0.25 -3.19,-2.32 0.46,-2 1.66,-2.35 3.59,-1.13 -0.08,1 1.42,1 1.5,0 z"
       id="path14" />
    <path
       d="m 184.47,18.86 a 7.83,7.83 0 0 0 2.5,-4.7 l -1.47,-0.2 a 15.22,15.22 0 0 0 1.3,7.41 l 0.27,-1 a 2.67,2.67 0 0 1 -2.53,0.51 v 1.45 a 3,3 0 0 1 2.41,0.1 c 0.87,0.39 1.63,-0.9 0.75,-1.3 a 4.68,4.68 0 0 0 -3.56,-0.25 0.76,0.76 0 0 0 0,1.45 4,4 0 0 0 3.68,-0.66 0.78,0.78 0 0 0 0.27,-1 13.65,13.65 0 0 1 -1.09,-6.65 c 0.06,-0.83 -1.35,-1 -1.48,-0.2 a 6.62,6.62 0 0 1 -2.11,4 c -0.71,0.66 0.36,1.72 1.06,1.06 z"
       id="path15" />
    <path
       d="m 332.2,15.83 c 0.2,-2.62 -2.68,-3.49 -4.59,-2.1 -1.91,1.39 -3.17,4.93 -1,6.71 1.73,1.44 4.38,0.58 5.68,-1 2.47,-3 1.95,-8.57 2.26,-12.17 h -1.5 l -0.64,13.38 c -0.05,1 1.45,1 1.5,0 l 0.61,-13.37 c 0.05,-1 -1.41,-0.95 -1.5,0 -0.21,2.41 -0.35,4.83 -0.64,7.23 -0.2,1.67 -0.5,3.78 -2.12,4.73 -1.62,0.95 -2.78,0.25 -3.17,-2.28 q 0.69,-3 3.59,-1.13 c -0.08,1 1.42,0.95 1.5,0 z"
       id="path16" />
    <path
       d="m 338.41,16.25 c 0.29,-1.52 2.27,-1.05 1.86,0.32 a 3.72,3.72 0 0 1 -1.2,1.42 5,5 0 0 0 -1.92,2.73 0.76,0.76 0 0 0 0.72,0.95 13.45,13.45 0 0 0 5,-0.45 0.75208045,0.75208045 0 0 0 -0.4,-1.45 12.15,12.15 0 0 1 -4.61,0.4 l 0.73,0.95 c 0.38,-2.18 3.88,-2.89 3.17,-5.53 a 2.46,2.46 0 0 0 -4.8,0.26 c -0.18,0.94 1.26,1.35 1.44,0.4 z"
       id="path17" />
    <path
       d="m 587.82,13.73 0.06,6.33 a 0.76,0.76 0 0 0 0.75,0.75 h 3.66 a 0.76,0.76 0 0 0 0.72,-0.55 1.28,1.28 0 0 0 -1.58,-1.6 c -0.95,0.2 -0.55,1.64 0.4,1.45 l -0.27,-0.25 0.73,-0.55 h -3.66 l 0.75,0.75 -0.06,-6.33 a 0.75,0.75 0 0 0 -1.5,0 z"
       id="path18" />
    <path
       d="m 584.41,15.59 c 0.21,-2.61 -2.67,-3.48 -4.58,-2.1 -1.91,1.38 -3.17,4.93 -1,6.72 1.73,1.44 4.38,0.58 5.68,-1 2.47,-3 1.94,-8.57 2.26,-12.18 h -1.5 l -0.61,13.37 c -0.05,1 1.45,1 1.5,0 l 0.61,-13.37 c 0,-1 -1.42,-0.94 -1.5,0 -0.21,2.41 -0.35,4.84 -0.64,7.24 -0.21,1.67 -0.5,3.78 -2.13,4.73 -1.63,0.95 -2.77,0.25 -3.17,-2.28 q 0.71,-3 3.59,-1.14 c -0.07,1 1.43,1 1.5,0 z"
       id="path19" />
    <path
       class="cls-1"
       d="m 265.24,16.12 -5,4.12 a 1.13,1.13 0 0 0 0.79,1.92 l 6.5,-0.36 -1,-1.69 a 26.31,26.31 0 0 1 -4.76,5 c -1.12,0.91 0.48,2.5 1.59,1.59 a 28.24,28.24 0 0 0 5.11,-5.42 1.13,1.13 0 0 0 -1,-1.69 l -6.5,0.36 0.8,1.92 5,-4.11 c 1.11,-0.93 -0.49,-2.51 -1.59,-1.6 z"
       id="path20"
       style="fill:#8c0000" />
    <path
       class="cls-1"
       d="m 407.35,15.22 -5.77,4.43 a 1.13,1.13 0 0 0 0.57,2.09 l 6.23,0.49 -0.8,-1.92 q -2.5,2.32 -5.11,4.51 c -1.11,0.94 0.49,2.52 1.59,1.6 q 2.61,-2.2 5.11,-4.51 a 1.14,1.14 0 0 0 -0.79,-1.93 l -6.23,-0.49 0.57,2.1 5.77,-4.47 c 1.13,-0.87 0,-2.83 -1.14,-1.94 z"
       id="path21"
       style="fill:#8c0000" />
    <path
       class="cls-1"
       d="m 639.23,27.34 c 2.51,-1.41 5,-2.91 7.36,-4.52 a 1.14,1.14 0 0 0 -0.27,-2.06 l -5.73,-1.46 0.27,2.05 4.93,-3.13 c 1.21,-0.78 0.09,-2.73 -1.14,-2 l -4.93,3.14 a 1.14,1.14 0 0 0 0.27,2.06 l 5.73,1.46 -0.26,-2 c -2.4,1.6 -4.85,3.11 -7.37,4.52 a 1.13,1.13 0 0 0 1.14,1.94 z"
       id="path22"
       style="fill:#8c0000" />
    <path
       class="cls-1"
       d="m 529.23,27.34 c 2.51,-1.41 5,-2.91 7.36,-4.52 a 1.14,1.14 0 0 0 -0.27,-2.06 l -5.73,-1.46 0.27,2.05 4.93,-3.13 c 1.21,-0.78 0.09,-2.73 -1.14,-2 l -4.93,3.14 a 1.14,1.14 0 0 0 0.27,2.06 l 5.73,1.46 -0.26,-2 c -2.4,1.6 -4.85,3.11 -7.37,4.52 a 1.13,1.13 0 0 0 1.14,1.94 z"
       id="path22-8"
       style="fill:#8c0000" />
  </g>
  <metadata
     id="metadata134">
    <rdf:RDF>
      <cc:Work
         rdf:about="">
        <dc:title>sel_hmm</dc:title>
      </cc:Work>
    </rdf:RDF>
  </metadata>
</svg>
