<?xml version="1.0" encoding="UTF-8" standalone="no"?>
<!-- Generator: Adobe Illustrator 23.0.3, SVG Export Plug-In . SVG Version: 6.00 Build 0)  -->

<svg
   version="1.1"
   id="Layer_1"
   x="0px"
   y="0px"
   viewBox="0 0 250 200.00002"
   xml:space="preserve"
   sodipodi:docname="selection.svg"
   inkscape:version="1.4.3 (0d15f75, 2025-12-25)"
   width="250"
   height="200"
   xmlns:inkscape="http://www.inkscape.org/namespaces/inkscape"
   xmlns:sodipodi="http://sodipodi.sourceforge.net/DTD/sodipodi-0.dtd"
   xmlns:xlink="http://www.w3.org/1999/xlink"
   xmlns="http://www.w3.org/2000/svg"
   xmlns:svg="http://www.w3.org/2000/svg"><defs
   id="defs292" /><sodipodi:namedview
   id="namedview292"
   pagecolor="#ffffff"
   bordercolor="#000000"
   borderopacity="0.25"
   inkscape:showpageshadow="2"
   inkscape:pageopacity="0.0"
   inkscape:pagecheckerboard="0"
   inkscape:deskcolor="#d1d1d1"
   inkscape:zoom="1.0587522"
   inkscape:cx="160.09411"
   inkscape:cy="0.94450804"
   inkscape:window-width="1024"
   inkscape:window-height="1021"
   inkscape:window-x="68"
   inkscape:window-y="32"
   inkscape:window-maximized="0"
   inkscape:current-layer="g292" />
<style
   type="text/css"
   id="style1">
	.st0{enable-background:new    ;}
	.st1{clip-path:url(#SVGID_2_);}
	.st2{fill:none;stroke:#000000;stroke-width:0.8;stroke-linejoin:round;stroke-miterlimit:10;}
	.st3{font-family:'DejaVuSans';}
	.st4{font-size:10px;}
	.st5{fill:none;stroke:#000000;stroke-width:0.8;stroke-linecap:square;stroke-miterlimit:10;}
	.st6{clip-path:url(#SVGID_8_);}
	.st7{clip-path:url(#SVGID_10_);fill:none;stroke:#1F77B4;stroke-miterlimit:10;}
	.st8{clip-path:url(#SVGID_8_);enable-background:new    ;}
	.st9{opacity:0.5;clip-path:url(#SVGID_12_);fill:#1F77B4;}
	.st10{clip-path:url(#SVGID_14_);}
	.st11{clip-path:url(#SVGID_20_);}
	.st12{clip-path:url(#SVGID_22_);fill:none;stroke:#1F77B4;stroke-miterlimit:10;}
	.st13{clip-path:url(#SVGID_20_);enable-background:new    ;}
	.st14{opacity:0.5;clip-path:url(#SVGID_24_);fill:#1F77B4;}
	.st15{fill:#FFFFFF;}
	.st16{clip-path:url(#SVGID_26_);fill:#FF0000;}
	.st17{clip-path:url(#SVGID_28_);fill:#FF0018;}
	.st18{clip-path:url(#SVGID_30_);fill:#FF0018;}
	.st19{clip-path:url(#SVGID_32_);fill:#FF0082;}
	.st20{clip-path:url(#SVGID_34_);fill:#FF00E1;}
	.st21{clip-path:url(#SVGID_36_);fill:#F400FF;}
	.st22{clip-path:url(#SVGID_38_);fill:#DC00FF;}
	.st23{clip-path:url(#SVGID_40_);fill:#D000FF;}
	.st24{clip-path:url(#SVGID_42_);fill:#C500FF;}
	.st25{clip-path:url(#SVGID_44_);fill:#BF00FF;}
	.st26{clip-path:url(#SVGID_46_);fill:#00FF5C;}
	.st27{clip-path:url(#SVGID_48_);fill:#FF0000;}
	.st28{clip-path:url(#SVGID_50_);fill:#FF0000;}
	.st29{clip-path:url(#SVGID_52_);fill:#FF0000;}
	.st30{clip-path:url(#SVGID_54_);fill:#FF0000;}
	.st31{clip-path:url(#SVGID_56_);fill:#FF0000;}
	.st32{clip-path:url(#SVGID_58_);fill:#FF0000;}
	.st33{clip-path:url(#SVGID_60_);fill:#FF0000;}
	.st34{clip-path:url(#SVGID_62_);fill:#FF0000;}
	.st35{clip-path:url(#SVGID_64_);fill:#FF0000;}
	.st36{clip-path:url(#SVGID_66_);fill:#FF0000;}
	.st37{fill:none;stroke:#000000;stroke-width:0.2588;stroke-linejoin:round;stroke-miterlimit:10;}
	.st38{fill:none;stroke:#000000;stroke-width:0.2588;stroke-linecap:square;stroke-miterlimit:10;}
	.st39{fill:none;stroke:#000000;stroke-width:0.6874;stroke-miterlimit:10;}
</style>
<g
   class="st0"
   id="g292">
	<g
   id="g4">
		<defs
   id="defs1">
			<rect
   id="SVGID_1_"
   x="49.799999"
   y="10.8"
   width="89.400002"
   height="138" />
		</defs>
		<clipPath
   id="SVGID_2_">
			<use
   xlink:href="#SVGID_1_"
   style="overflow:visible"
   id="use1" />
		</clipPath>
		<g
   class="st1"
   clip-path="url(#SVGID_2_)"
   id="g2">
			<defs
   id="defs2">
				<rect
   id="SVGID_3_"
   x="-7.0999999"
   width="158"
   height="173"
   y="0" />
			</defs>
			<clipPath
   id="SVGID_4_">
				<use
   xlink:href="#SVGID_3_"
   style="overflow:visible"
   id="use2" />
			</clipPath>
		</g>
		<g
   class="st1"
   clip-path="url(#SVGID_2_)"
   id="g3">
			<defs
   id="defs3">
				<rect
   id="SVGID_5_"
   x="-7.0999999"
   width="158"
   height="173"
   y="0" />
			</defs>
			<clipPath
   id="SVGID_6_">
				<use
   xlink:href="#SVGID_5_"
   style="overflow:visible"
   id="use3" />
			</clipPath>
		</g>
	</g>
	
	
	
	
	
	
	
	
	
	
	
	
	
	
	
	
	
	
	
	
	
	
	
	
	
	
	
	
	
	
	
	
	
	
	
	
	
	
	
	
	
	
	
	
	
	
	
	
	
	
	
	
	
	
	
	
	
	
	
	
	
	
	
	
	
	
	
	
	
	
	
	
	
	
	
	
	
	
	
	
	
	
	
	
	
	
	
	
	
	
	
	
	
	
	
	
	
	
	
	
	
	
	
	
	
	
	
	
	
	
	
	
	
	
	
	
	
	
	
	
<g
   id="g1671"
   transform="matrix(0.80053049,0,0,0.80053049,-6.524461,-167.50568)"
   style="stroke:#000000;stroke-opacity:1">
		<g
   id="g1656"
   style="stroke:#000000;stroke-opacity:1">
			<g
   id="g1655"
   style="stroke:#000000;stroke-opacity:1">
				<path
   d="m 30.2,263.6 c -0.6,6.9 -3.8,13.6 -5.3,20.4 -1.5,6.8 -2.6,13.7 -3.7,20.6 0.8,0.1 1.6,0.2 2.4,0.3 0,-0.4 -0.1,-0.8 -0.1,-1.2 -0.1,-1.5 -2.5,-1.5 -2.4,0 0,0.4 0.1,0.8 0.1,1.2 0.1,1.2 2.1,1.8 2.4,0.3 1.2,-7.5 2.4,-15 4.1,-22.4 1.5,-6.4 4.4,-12.6 4.9,-19.2 0.1,-1.6 -2.3,-1.6 -2.4,0 z"
   id="path1654"
   style="stroke:#000000;stroke-opacity:1" />
			</g>
		</g>
		<g
   id="g1658"
   style="stroke:#000000;stroke-opacity:1">
			<g
   id="g1657"
   style="stroke:#000000;stroke-opacity:1">
				<path
   d="m 30.2,266.8 c 1.7,12.2 3.3,24.4 5,36.6 0.2,1.2 2,1.1 2.3,0 0.1,-0.4 0.2,-0.7 0.3,-1.1 0.4,-1.5 -1.9,-2.1 -2.3,-0.6 -0.1,0.4 -0.2,0.7 -0.3,1.1 0.8,0 1.5,0 2.3,0 -1.7,-12.2 -3.3,-24.4 -5,-36.6 -0.2,-1.6 -2.5,-0.9 -2.3,0.6 z"
   id="path1656"
   style="stroke:#000000;stroke-opacity:1" />
			</g>
		</g>
		<g
   id="g1660"
   style="stroke:#000000;stroke-opacity:1">
			<g
   id="g1659"
   style="stroke:#000000;stroke-opacity:1">
				<path
   d="m 25.3,290.9 c 3.5,-0.9 7,-1.3 10.6,-1.3 1.5,0 1.5,-2.4 0,-2.4 -3.8,0 -7.6,0.5 -11.3,1.4 -1.5,0.4 -0.8,2.7 0.7,2.3 z"
   id="path1658"
   style="stroke:#000000;stroke-opacity:1" />
			</g>
		</g>
		<g
   id="g1662"
   style="stroke:#000000;stroke-opacity:1">
			<g
   id="g1661"
   style="stroke:#000000;stroke-opacity:1">
				<path
   d="m 40.4,263.8 c -0.1,13.5 -0.1,27.1 -0.2,40.6 0,1.5 2.4,1.5 2.4,0 0.1,-13.5 0.1,-27.1 0.2,-40.6 0,-1.6 -2.4,-1.6 -2.4,0 z"
   id="path1660"
   style="stroke:#000000;stroke-opacity:1" />
			</g>
		</g>
		<g
   id="g1664"
   style="stroke:#000000;stroke-opacity:1">
			<g
   id="g1663"
   style="stroke:#000000;stroke-opacity:1">
				<path
   d="m 45.6,264.6 c 0.5,6.7 0.6,13.3 0.2,20 -0.4,6.6 1,13 -0.2,19.5 -0.3,1.5 2,2.2 2.3,0.6 1.1,-6.3 -0.1,-12.2 0.2,-18.5 0.4,-7.2 0.5,-14.4 -0.1,-21.6 -0.2,-1.6 -2.6,-1.6 -2.4,0 z"
   id="path1662"
   style="stroke:#000000;stroke-opacity:1" />
			</g>
		</g>
		<g
   id="g1666"
   style="stroke:#000000;stroke-opacity:1">
			<g
   id="g1665"
   style="stroke:#000000;stroke-opacity:1">
				<path
   d="m 50.3,293.1 c 4.7,-0.2 11.1,-2.5 10.4,-8.5 -0.5,-4 -5.2,-6.2 -8,-3 -5.9,6.7 -3.2,28.9 9.3,21.7 1.3,-0.8 0.1,-2.8 -1.2,-2.1 -2.6,1.5 -6,0.8 -7.5,-1.9 -1.3,-2.2 -1.1,-5.5 -1,-7.9 0.1,-1.3 0.2,-2.6 0.5,-3.9 0.5,-2.2 0.1,-2.2 2.8,-1.1 2.5,0.2 2.9,0.8 1.4,1.9 -0.5,0.8 -1.1,1.3 -2,1.5 -1.4,0.7 -3,0.8 -4.6,0.9 -1.6,0 -1.6,2.4 -0.1,2.4 z"
   id="path1664"
   style="stroke:#000000;stroke-opacity:1" />
			</g>
		</g>
		<g
   id="g1668"
   style="stroke:#000000;stroke-opacity:1">
			<g
   id="g1667"
   style="stroke:#000000;stroke-opacity:1">
				<path
   d="m 65.1,262.5 c -2.3,5.5 -0.9,12.9 -0.8,18.7 0.1,7.3 0.2,14.7 0.3,22 0,1.5 2.4,1.5 2.4,0 -0.1,-6.7 -0.2,-13.4 -0.3,-20.1 -0.1,-6.1 -1.6,-14.3 0.7,-20 0.6,-1.4 -1.7,-2 -2.3,-0.6 z"
   id="path1666"
   style="stroke:#000000;stroke-opacity:1" />
			</g>
		</g>
		<g
   id="g1670"
   style="stroke:#000000;stroke-opacity:1">
			<g
   id="g1669"
   style="stroke:#000000;stroke-opacity:1">
				<path
   d="m 70.7,295.4 c 4.4,-1.6 8.6,-5 7.8,-10.2 -0.6,-4.3 -5.5,-6.6 -8,-2.2 -1.4,2.5 -1.4,6.2 -1.7,9 -0.4,3.2 -0.6,6.6 1.1,9.5 2.2,3.8 7,4.5 9.6,0.8 0.9,-1.3 -1.2,-2.5 -2.1,-1.2 -2.4,2.4 -4.5,1.7 -6.1,-2.3 -0.4,-1.4 -0.5,-2.8 -0.4,-4.3 0,-1.8 0.4,-3.5 0.6,-5.3 0.1,-1 0.3,-2 0.4,-2.9 0.2,-2.6 1.5,-2.1 4,1.5 0.1,2.8 -3.9,4.7 -6,5.4 -1.3,0.4 -0.6,2.7 0.8,2.2 z"
   id="path1668"
   style="stroke:#000000;stroke-opacity:1" />
			</g>
		</g>
	</g><g
   id="g1684"
   transform="matrix(0.80053049,0,0,0.80053049,-6.524461,-167.50568)"
   style="stroke:#000000;stroke-opacity:1">
		<g
   id="g1673"
   style="stroke:#000000;stroke-opacity:1">
			<g
   id="g1672"
   style="stroke:#000000;stroke-opacity:1">
				<path
   d="m 26.3,311.9 c 0.3,11.5 0.6,22.9 1,34.4 0,1.5 2.4,1.5 2.4,0 -0.3,-11.5 -0.6,-22.9 -1,-34.4 0,-1.6 -2.4,-1.6 -2.4,0 z"
   id="path1671"
   style="stroke:#000000;stroke-opacity:1" />
			</g>
		</g>
		<g
   id="g1675"
   style="stroke:#000000;stroke-opacity:1">
			<g
   id="g1674"
   style="stroke:#000000;stroke-opacity:1">
				<path
   d="m 26.5,313.6 c 5.6,0.2 11.2,0.4 16.8,0.6 1.5,0.1 1.5,-2.3 0,-2.4 -5.6,-0.2 -11.2,-0.4 -16.8,-0.6 -1.5,-0.1 -1.5,2.3 0,2.4 z"
   id="path1673"
   style="stroke:#000000;stroke-opacity:1" />
			</g>
		</g>
		<g
   id="g1677"
   style="stroke:#000000;stroke-opacity:1">
			<g
   id="g1676"
   style="stroke:#000000;stroke-opacity:1">
				<path
   d="m 27.4,325.4 c 3.6,0.8 7.2,1.1 10.9,0.8 1.5,-0.1 1.5,-2.5 0,-2.4 -3.5,0.2 -6.9,0 -10.3,-0.7 -1.4,-0.4 -2.1,1.9 -0.6,2.3 z"
   id="path1675"
   style="stroke:#000000;stroke-opacity:1" />
			</g>
		</g>
		<g
   id="g1679"
   style="stroke:#000000;stroke-opacity:1">
			<g
   id="g1678"
   style="stroke:#000000;stroke-opacity:1">
				<path
   d="m 42.2,332.3 c 0.1,-0.3 1.2,-3.2 1.6,-3.3 0.2,0 0.7,0.9 0.9,1 0.8,0.3 1.3,0.8 2.2,0.8 2,0.1 3.5,-1.3 4.2,-3 -0.7,-0.3 -1.5,-0.6 -2.2,-0.9 -2.1,5.5 -4.3,11.4 -3.7,17.5 0.5,4.6 2.7,3.6 6.4,2.4 1.5,-0.5 0.8,-2.8 -0.6,-2.3 -2.5,0.8 -3.4,2 -3.5,-1.5 -0.1,-1.9 0.2,-3.9 0.6,-5.7 0.7,-3.3 1.9,-6.5 3.1,-9.7 0.5,-1.3 -1.6,-2.2 -2.2,-0.9 -1.3,2.9 -4.1,-0.5 -5.8,0 -1.8,0.5 -2.9,3.5 -3.4,5.1 -0.5,1.3 1.8,1.9 2.4,0.5 z"
   id="path1677"
   style="stroke:#000000;stroke-opacity:1" />
			</g>
		</g>
		<g
   id="g1681"
   style="stroke:#000000;stroke-opacity:1">
			<g
   id="g1680"
   style="stroke:#000000;stroke-opacity:1">
				<path
   d="m 56.2,337.5 c 4.5,0.4 6.9,-4.7 6.6,-8.6 -0.3,-3.7 -3.9,-5.4 -6.2,-2 -2.8,4.1 -3.7,11.8 -2.2,16.4 1.3,3.8 5.1,6.5 8.4,3 1.1,-1.1 -0.6,-2.8 -1.7,-1.7 -1.2,-0.1 -2.4,-0.3 -3.6,-0.4 -0.2,-0.5 -0.5,-1 -0.7,-1.6 -0.3,-0.9 -0.5,-2 -0.6,-2.9 -0.2,-2.2 0.2,-4.4 0.7,-6.5 0.2,-0.8 0.4,-1.6 0.6,-2.4 0.4,-1.4 0.3,-2.5 1.9,-1.9 2.8,1.1 -0.6,6.4 -3.2,6.2 -1.6,-0.2 -1.6,2.2 0,2.4 z"
   id="path1679"
   style="stroke:#000000;stroke-opacity:1" />
			</g>
		</g>
		<g
   id="g1683"
   style="stroke:#000000;stroke-opacity:1">
			<g
   id="g1682"
   style="stroke:#000000;stroke-opacity:1">
				<path
   d="m 75.5,332.7 c 0.1,-4 -2.8,-8.6 -7.4,-6.6 -4.3,1.9 -4.3,8 -3.8,11.8 0.4,3.5 2.4,10.4 7.5,8.7 5.1,-1.7 3.5,-11.3 3.4,-15 -0.1,-1.5 -2.4,-1.6 -2.4,0 0.2,10.7 0.4,21.5 0.7,32.2 0,1.5 2.4,1.5 2.4,0 -0.2,-10.7 -0.4,-21.5 -0.7,-32.2 -0.8,0 -1.6,0 -2.4,0 0.1,1.8 1.1,9.7 -0.3,10.8 -1.7,-0.6 -3.5,-1.1 -5.2,-1.7 -0.4,-1.5 -0.6,-2.9 -0.7,-4.5 0,-0.5 0,-1 -0.1,-1.5 -0.6,-3.9 1.6,-4.6 6.6,-2 0,1.6 2.4,1.6 2.4,0 z"
   id="path1681"
   style="stroke:#000000;stroke-opacity:1" />
			</g>
		</g>
	</g><g
   id="g1701"
   transform="matrix(0.80053049,0,0,0.76557359,-6.524461,-152.65337)"
   style="stroke:#000000;stroke-opacity:1">
		<g
   id="g1700"
   style="stroke:#000000;stroke-opacity:1">
			<path
   d="m 89.2,208.5 c 0.4,18.2 1.7,36.4 2,54.6 0.3,17 1.3,34 0.9,51 -0.9,36.5 -0.8,73 1.3,109.5 0.1,1.7 2.8,1.7 2.7,0 -2.1,-36.5 -2.2,-73 -1.3,-109.5 0.4,-17 -0.6,-34 -0.9,-51 -0.3,-18.2 -1.6,-36.4 -2,-54.6 -0.1,-1.7 -2.7,-1.7 -2.7,0 z"
   id="path1699"
   style="stroke:#000000;stroke-opacity:1" />
		</g>
	</g><g
   id="g1703"
   transform="matrix(0.80053049,0,0,0.60081978,-6.524461,-81.690596)"
   style="stroke:#000000;stroke-width:1.44191;stroke-dasharray:none;stroke-opacity:1">
		<g
   id="g1702"
   style="stroke:#000000;stroke-width:1.44191;stroke-dasharray:none;stroke-opacity:1">
			<path
   d="m 169.9,431.4 c -1.4,11.2 -1.6,22.4 -0.5,33.6 0.1,1.4 2.4,1.4 2.2,0 -1.1,-11.2 -0.9,-22.4 0.5,-33.6 0.2,-1.4 -2.1,-1.4 -2.2,0 z"
   id="path1701"
   style="stroke:#000000;stroke-width:1.44191;stroke-dasharray:none;stroke-opacity:1" />
		</g>
	</g><g
   id="g1705"
   transform="matrix(0.80053049,0,0,0.60081978,-6.524461,-81.690596)"
   style="stroke:#000000;stroke-width:1.44191;stroke-dasharray:none;stroke-opacity:1">
		<g
   id="g1704"
   style="stroke:#000000;stroke-width:1.44191;stroke-dasharray:none;stroke-opacity:1">
			<path
   d="m 156.2,432.3 c 9.6,0.3 19.2,0.2 28.8,-0.2 1.5,-0.1 1.5,-2.5 0,-2.4 -9.6,0.4 -19.2,0.4 -28.8,0.2 -1.5,0 -1.5,2.4 0,2.4 z"
   id="path1703"
   style="stroke:#000000;stroke-width:1.44191;stroke-dasharray:none;stroke-opacity:1" />
		</g>
	</g><g
   id="g1707"
   transform="matrix(0.80053049,0,0,0.60081978,-6.524461,-81.690596)"
   style="stroke:#000000;stroke-width:1.44191;stroke-dasharray:none;stroke-opacity:1">
		<g
   id="g1706"
   style="stroke:#000000;stroke-width:1.44191;stroke-dasharray:none;stroke-opacity:1">
			<path
   d="m 178.4,444.3 c 0.9,6.6 1,13.2 0.1,19.8 -0.2,1.5 2.1,2.2 2.3,0.6 1,-7.1 0.9,-14 -0.1,-21.1 -0.2,-1.5 -2.5,-0.8 -2.3,0.7 z"
   id="path1705"
   style="stroke:#000000;stroke-width:1.44191;stroke-dasharray:none;stroke-opacity:1" />
		</g>
	</g><g
   id="g1709"
   transform="matrix(0.80053049,0,0,0.60081978,-6.524461,-81.690596)"
   style="stroke:#000000;stroke-width:1.44191;stroke-dasharray:none;stroke-opacity:1">
		<g
   id="g1708"
   style="stroke:#000000;stroke-width:1.44191;stroke-dasharray:none;stroke-opacity:1">
			<path
   d="m 179.7,439.5 c 0.4,0 0.8,0 1.1,0 1.5,0 1.5,-2.4 0,-2.4 -0.4,0 -0.8,0 -1.1,0 -1.5,0 -1.5,2.4 0,2.4 z"
   id="path1707"
   style="stroke:#000000;stroke-width:1.44191;stroke-dasharray:none;stroke-opacity:1" />
		</g>
	</g><g
   id="g1711"
   transform="matrix(0.80053049,0,0,0.60081978,-6.524461,-81.690596)"
   style="stroke:#000000;stroke-width:1.44191;stroke-dasharray:none;stroke-opacity:1">
		<g
   id="g1710"
   style="stroke:#000000;stroke-width:1.44191;stroke-dasharray:none;stroke-opacity:1">
			<path
   d="m 185.2,443.5 c 0.5,7.1 1,14.3 1.4,21.4 0.8,-0.1 1.6,-0.2 2.4,-0.3 -0.4,-2.8 -0.6,-5.6 -0.3,-8.5 0.2,-1.8 0.5,-3.7 1.1,-5.4 0.7,-2.5 0.6,-3.5 3.6,-3.4 1.9,-0.7 2.7,-0.2 2.4,1.4 0.2,1 0.3,2 0.3,2.9 0.1,1.3 0.2,2.7 0.2,4 0.1,3 0,5.9 -0.1,8.9 0.8,0 1.6,0 2.4,0 -0.2,-3.4 -0.4,-6.8 -0.4,-10.2 0,-1.3 -0.3,-3.3 0,-4.6 1.8,-7.4 6,-2.3 7,0.6 1.1,3 1.4,6.3 1.5,9.5 0,1.5 -0.5,3.3 0.4,4.6 0.4,0.5 1.1,0.8 1.6,0.4 0.6,-0.4 0.8,-0.8 0.8,-1.5 0,-0.5 -0.4,-1 -0.9,-1.2 -0.1,0 -0.1,0 -0.2,-0.1 -1.5,-0.4 -2.1,1.9 -0.6,2.3 0.1,0 0.1,0 0.2,0.1 -0.3,-0.4 -0.6,-0.8 -0.9,-1.2 0.1,-0.2 0.2,-0.4 0.3,-0.6 0.5,0.1 1.1,0.3 1.6,0.4 -1,-1.5 -0.2,-5.9 -0.4,-7.8 -0.2,-1.9 -0.6,-3.9 -1.2,-5.7 -1,-2.8 -2.9,-5.9 -6.2,-6.2 -2.7,-0.2 -4.6,1.6 -5.2,4.1 -1.4,5.2 -0.3,11.7 0.1,16.9 0.1,1.5 2.3,1.5 2.4,0 0.2,-4.1 2.5,-23.5 -5.8,-21.8 -3.5,0.7 -4.8,5 -5.5,7.9 -1.3,4.8 -1.3,9.6 -0.5,14.5 0.2,1.3 2.5,1 2.4,-0.3 -0.5,-7.1 -1,-14.3 -1.4,-21.4 -0.2,-1.3 -2.6,-1.3 -2.5,0.3 z"
   id="path1709"
   style="stroke:#000000;stroke-width:1.44191;stroke-dasharray:none;stroke-opacity:1" />
		</g>
	</g><g
   id="g1713"
   transform="matrix(0.80053049,0,0,0.60081978,-6.524461,-81.690596)"
   style="stroke:#000000;stroke-width:1.44191;stroke-dasharray:none;stroke-opacity:1">
		<g
   id="g1712"
   style="stroke:#000000;stroke-width:1.44191;stroke-dasharray:none;stroke-opacity:1">
			<path
   d="m 212.9,458.9 c 5.6,-0.1 11.6,-2.1 12.1,-8.6 0.4,-4.5 -3.8,-9.2 -8.5,-7 -5.6,2.7 -5.7,10.8 -3.9,15.7 0.9,2.5 2.3,4.9 4.8,6.1 3.2,1.6 7,0.2 10.4,0.7 1.5,0.2 1.5,-2.2 0,-2.4 -3,-0.4 -7.1,1 -9.8,-0.6 -3.2,-1.9 -4.2,-7 -4.1,-10.3 0.1,-1.9 0.6,-4.9 2.3,-6 3.6,-2.5 7.2,0.6 6.1,4.7 -1.1,4.4 -5.7,5.3 -9.6,5.3 -1.4,0.1 -1.4,2.5 0.2,2.4 z"
   id="path1711"
   style="stroke:#000000;stroke-width:1.44191;stroke-dasharray:none;stroke-opacity:1" />
		</g>
	</g><g
   id="g1715"
   transform="matrix(0.80053049,0,0,0.80053049,-6.524461,-167.50568)"
   style="stroke:#000000;stroke-opacity:1">
		<g
   id="g1714"
   style="stroke:#000000;stroke-opacity:1">
			<path
   d="m 310.3,420.1 c -18.2,0.4 -36.4,1.7 -54.6,2 -17,0.3 -34,1.3 -51,0.9 -36.5,-0.9 -73,-0.8 -109.5,1.3 -1.7,0.1 -1.7,2.8 0,2.7 36.5,-2.1 73,-2.2 109.5,-1.3 17,0.4 34,-0.6 51,-0.9 18.2,-0.3 36.4,-1.6 54.6,-2 1.7,-0.1 1.7,-2.8 0,-2.7 z"
   id="path1713"
   style="stroke:#000000;stroke-opacity:1" />
		</g>
	</g><g
   id="g1725"
   transform="matrix(0.80053049,0,0,0.80053049,-6.524461,-167.50568)"
   style="stroke:#000000;stroke-opacity:1">
		<g
   id="g1724"
   style="stroke:#000000;stroke-opacity:1">
			<path
   d="m 297.4,415.4 c 4.6,2.5 9.3,4.9 14,7.1 0.1,-0.9 0.2,-1.8 0.4,-2.7 -5.2,1.9 -10,5.2 -14.4,8.6 -1.5,1.2 0,3.8 1.5,2.6 4.2,-3.2 8.7,-6.4 13.7,-8.3 1.1,-0.4 1.6,-2.1 0.4,-2.7 -4.7,-2.2 -9.4,-4.6 -14,-7.1 -1.8,-1 -3.3,1.6 -1.6,2.5 z"
   id="path1723"
   style="stroke:#000000;stroke-opacity:1" />
		</g>
	</g><g
   id="g1729"
   transform="matrix(0.80053049,0,0,0.80053049,9.475539,-167.50568)">
		<g
   id="g1728">
			<path
   d="m 249.2,381.7 c 3.6,0 7.2,0 10.8,0 1.9,0 1.9,-3 0,-3 -3.6,0 -7.2,0 -10.8,0 -1.9,0 -1.9,3 0,3 z"
   id="path1727" />
		</g>
	</g><g
   id="g1731"
   transform="matrix(0.80053049,0,0,0.80053049,9.475539,-167.50568)">
		<g
   id="g1730">
			<path
   d="m 249.9,387 c 3,0 6,0 9.1,0 1.9,0 1.9,-3 0,-3 -3,0 -6,0 -9.1,0 -1.9,0 -1.9,3 0,3 z"
   id="path1729" />
		</g>
	</g><g
   id="g1733"
   transform="matrix(0.80053049,0,0,0.80053049,9.475539,-167.50568)">
		<g
   id="g1732">
			<path
   d="m 265.1,383.7 c 0,4.8 2.4,12.9 8.6,12.3 6.5,-0.6 7.7,-9.6 7.3,-14.6 -0.3,-4.7 -2.3,-12.8 -8.5,-12.2 -6.8,0.7 -6.7,9.3 -7,14.3 -0.1,1.9 2.9,1.9 3,0 0.2,-2.5 -0.1,-5.6 1,-7.9 1.8,-4 6.7,-1.9 7.7,1.5 0.5,1.6 0.7,3.4 0.8,5.1 0.1,2.2 0.1,7.4 -1.8,8.8 -2.1,0 -4.1,-0.1 -6.2,-0.1 -0.2,-0.4 -0.5,-0.8 -0.7,-1.2 -1.1,-1.6 -1.2,-4.1 -1.2,-6 0,-1.9 -3,-1.9 -3,0 z"
   id="path1731" />
		</g>
	</g><g
   id="g1735"
   transform="matrix(0.80053049,0,0,0.80053049,13.475539,-123.50568)">
		<g
   id="g1734">
			<path
   d="m 240.8,193.9 c 3.3,2 6.7,4.1 10,6.1 0.1,-0.8 0.2,-1.6 0.3,-2.4 -3.7,1.4 -7.3,2.9 -11,4.5 -1.6,0.7 -0.2,3 1.3,2.3 3.4,-1.5 6.9,-2.9 10.3,-4.2 1,-0.4 1.4,-1.8 0.3,-2.4 -3.3,-2 -6.7,-4.1 -10,-6.1 -1.3,-1 -2.6,1.3 -1.2,2.2 z"
   id="path1733" />
		</g>
	</g><g
   id="g1737"
   transform="matrix(0.80053049,0,0,0.80053049,9.475539,-167.50568)">
		<g
   id="g1736">
			<path
   d="m 254.8,323.6 c -3.3,2.1 -6.6,4.1 -9.9,6.2 -1,0.6 -0.8,2.1 0.3,2.4 3.5,1.2 6.9,2.6 10.2,4.3 1.5,0.8 2.9,-1.5 1.3,-2.3 -3.5,-1.8 -7.1,-3.3 -10.9,-4.6 0.1,0.8 0.2,1.6 0.3,2.4 3.3,-2.1 6.6,-4.1 9.9,-6.2 1.6,-0.8 0.3,-3.2 -1.2,-2.2 z"
   id="path1735" />
		</g>
	</g><g
   id="g1739"
   transform="matrix(0.80053049,0,0,0.80053049,9.475539,-167.50568)">
		<g
   id="g1738">
			<path
   d="m 241.8,374.8 c -1.6,-7.8 -11.4,-6.5 -13,0.7 -0.8,3.5 1.3,6.7 4.4,8.2 1.9,0.9 4,0.7 5.8,1.5 4.1,1.8 1.8,7.8 -1.5,7.8 -1.7,0 -5.5,0 -6,-2.2 -0.4,-1.9 -3.3,-1.1 -2.9,0.8 1.1,5.8 13.5,6.3 15.8,1 1.1,-2.6 0.1,-6.9 -2,-8.9 -1.1,-1 -2.3,-1.3 -3.7,-1.6 -1.4,-0.3 -3.5,-0.2 -4.6,-1.3 -0.6,-2 -1.2,-4 -1.8,-6.1 1.3,-2.9 3.6,-2.6 6.6,0.8 0.4,2 3.3,1.2 2.9,-0.7 z"
   id="path1737" />
		</g>
	</g><g
   id="g1741"
   transform="matrix(0.80053049,0,0,0.80053049,9.475539,-167.50568)">
		<g
   id="g1740">
			<path
   d="m 260.5,329.4 c 0,4.8 2.4,12.9 8.6,12.3 6.5,-0.6 7.7,-9.6 7.3,-14.6 -0.3,-4.7 -2.3,-12.8 -8.5,-12.2 -6.8,0.7 -6.7,9.3 -7,14.3 -0.1,1.9 2.9,1.9 3,0 0.2,-2.5 -0.1,-5.6 1,-7.9 1.8,-4 6.7,-1.9 7.7,1.5 0.5,1.6 0.7,3.4 0.8,5.1 0.1,2.2 0.1,7.4 -1.8,8.8 -2.1,0 -4.1,-0.1 -6.2,-0.1 -0.2,-0.4 -0.5,-0.8 -0.7,-1.2 -1.1,-1.6 -1.2,-4.1 -1.2,-6 0,-2 -3,-2 -3,0 z"
   id="path1739" />
		</g>
	</g><g
   id="g1743"
   transform="matrix(0.80053049,0,0,0.80053049,9.475539,-167.50568)">
		<g
   id="g1742">
			<path
   d="m 237.2,320.5 c -1.6,-7.8 -11.4,-6.5 -13,0.7 -0.8,3.5 1.3,6.7 4.4,8.2 1.9,0.9 4,0.7 5.8,1.5 4.1,1.8 1.8,7.8 -1.5,7.8 -1.7,0 -5.5,0 -6,-2.2 -0.4,-1.9 -3.3,-1.1 -2.9,0.8 1.1,5.8 13.5,6.3 15.8,1 1.1,-2.6 0.1,-6.9 -2,-8.9 -1.1,-1 -2.3,-1.3 -3.7,-1.6 -1.4,-0.3 -3.5,-0.2 -4.6,-1.3 -0.6,-2 -1.2,-4 -1.8,-6.1 1.3,-2.9 3.6,-2.6 6.6,0.8 0.4,2 3.3,1.2 2.9,-0.7 z"
   id="path1741" />
		</g>
	</g><g
   id="g13"
   transform="matrix(0.80053049,0,0,0.80053049,-6.524461,-167.50568)">
		<g
   id="g12">
			<path
   class="st3"
   d="m 97.8,408.8 c 0.5,-6 7.3,-4 10.8,-2.2 3.3,1.7 6.7,3.6 10.5,3.3 4.2,-0.2 6.6,-3.4 10.1,-4.9 3.4,-1.5 6.1,0.5 8.7,2.7 4.1,3.5 7.9,8.4 13.3,10 5.9,1.7 10.5,-1.9 13.9,-6.3 3.4,-4.3 7.5,-12.6 14,-8.6 5,3.2 8.1,8.8 12.8,12.3 4.9,3.6 10.1,3.9 15.3,0.8 3,-1.8 5.5,-4.5 8.7,-6 4.5,-2.1 8.9,0.2 13.5,0.6 4.3,0.3 7.4,-1.3 10.1,-4.6 2,-2.4 3.4,-4.1 6.6,-2.7 2.4,1.1 4.3,3 6.3,4.6 7.5,6.3 15.9,9.4 25.6,6.4 3.4,-1.1 2,-6.5 -1.5,-5.4 -5.4,1.7 -10.8,1.2 -15.7,-1.6 -4,-2.3 -6.9,-6.1 -10.9,-8.4 -2.8,-1.6 -6.1,-2.6 -9.3,-1.3 -4.5,1.9 -5.4,7.5 -10.8,7.3 -4,-0.1 -7.7,-2 -11.8,-1.4 -3.8,0.5 -6.8,2.7 -9.8,5 -2.8,2.1 -6.2,5.1 -10,3.9 -3.2,-1 -5.7,-4 -7.8,-6.4 -3.8,-4 -8,-9.5 -13.9,-10 -6.3,-0.5 -10.3,4.7 -13.7,9.2 -1.8,2.4 -4,6.1 -7.1,7.1 -3.4,1 -6.4,-1.7 -8.8,-3.8 -4.1,-3.7 -8.4,-8.9 -14.2,-9.7 -3.9,-0.5 -6.7,1.5 -9.9,3.5 -6.1,3.9 -9.9,-0.6 -15.7,-2.6 -7.1,-2.5 -14.4,1.4 -15.1,9 -0.1,3.8 5.5,3.8 5.8,0.2 z"
   id="path12"
   style="fill:#1f77b4" />
		</g>
	</g><g
   id="g15"
   transform="matrix(0.80053049,0,0,0.80053049,-6.524461,-153.50568)">
		<g
   id="g14">
			<path
   class="st4"
   d="m 94.5,311.1 c 9.5,-0.4 18.2,0.3 27.5,-2.3 9.5,-2.7 18.6,-6.7 27.8,-10.3 9,-3.5 18.3,-6.6 27.1,-10.6 3.7,-1.7 4.6,-4 7.3,-6.6 2.8,-2.6 7.8,-2.5 11.3,-3.7 6.1,-2 9,-6.2 10.6,-12.2 0.8,-3.1 1.4,-6.2 3.7,-8.6 2.3,-2.3 5.1,-3.8 5.6,-7.3 0.3,-2.2 -0.9,-6.4 0.1,-8.3 1.4,-2.5 7.3,-3.6 9.8,-4.5 5.9,-2 12.1,-4.2 14.7,-10.4 0.9,-2.1 1.1,-4.7 2.9,-6.4 1.9,-1.8 5,-2.2 7.5,-2.4 4.5,-0.4 8.9,0.2 13.4,0 6.1,-0.3 13.9,-1.4 16.4,-7.9 1.3,-3.4 -4.1,-4.8 -5.4,-1.5 -2.2,5.8 -15.9,3.7 -20.5,3.7 -5.8,0 -13.1,0.6 -16.6,5.8 -1.9,2.8 -1.9,6.8 -4.4,9.2 -2.6,2.5 -6.6,3.6 -10,4.7 -4.3,1.5 -12,3.2 -13.1,8.5 -0.5,2.2 0.1,4.6 -0.2,6.8 -0.5,4 -3.9,5.2 -6,8.4 -3.2,4.8 -2.2,12.8 -7.6,16 -5.2,3.1 -12.4,1.7 -16.7,6.6 -1.2,1.4 -1.9,3.1 -3.5,4.2 -2,1.4 -4.8,2.1 -7.1,3 -4.8,1.9 -9.6,3.7 -14.4,5.6 -9.4,3.7 -18.8,7.6 -28.3,10.9 -4.9,1.7 -10,3.2 -15.2,3.8 -5.5,0.6 -11,-0.1 -16.5,0.2 -3.7,0.2 -3.8,5.8 -0.2,5.6 z"
   id="path13"
   style="fill:#2ca02c" />
		</g>
	</g><g
   id="g17"
   transform="matrix(0.80053049,0,0,0.80053049,-6.524461,-167.50568)"
   style="stroke:none">
		<g
   id="g16"
   style="stroke:none">
			<path
   class="st5"
   d="m 91.4,242.8 c 5.6,6.4 9.6,13.6 16.2,19.1 5.9,4.9 12.4,8.8 18.7,13.1 2.8,1.9 5.8,5.3 8.9,6.5 1.8,0.7 4,0.4 5.9,0.8 2.7,0.6 5.2,2.1 7.7,3.2 1.3,0.6 2.7,1 3.5,2.1 1,1.3 0.9,3.1 1.9,4.3 1.2,1.4 3.3,2.3 4.7,3.5 1.5,1.3 2.9,2.8 4.2,4.3 3,3.6 5.4,7.8 6.9,12.3 1.5,4.4 1.5,9.1 2.5,13.6 1.3,5.9 4.9,10.4 10.4,12.9 2.7,1.2 5.6,2 8.5,2.5 1.6,0.3 4.1,0.2 5.5,0.9 1.5,0.7 2.2,2.5 3.7,3.5 3.1,2 6.7,0.8 10.1,0.5 5.1,-0.5 10.1,0.4 14.9,1.8 16.7,4.8 36.2,16.8 53,5.5 2.8,-1.9 0.2,-6.4 -2.6,-4.5 -15.3,10.2 -33.9,-1.7 -49,-6 -3.6,-1 -7.3,-1.8 -11.1,-2 -4.4,-0.3 -10.4,2 -13.6,-1.1 -2.4,-2.4 -3.4,-2.5 -6.8,-3.1 -3.3,-0.5 -6.6,-1.1 -9.7,-2.4 -8.8,-3.6 -7.9,-11.6 -9.7,-19.7 -1.6,-7 -5,-13.6 -9.8,-19 -2.1,-2.4 -4.9,-4.1 -7.1,-6.4 -1.6,-1.8 -1.9,-4.6 -3.8,-6.2 -1.5,-1.3 -4.6,-2.1 -6.5,-3 -1.7,-0.8 -3.4,-1.8 -5.2,-2.4 -3.4,-1.1 -6.1,-0.5 -9.1,-2.8 -7.2,-5.5 -15.2,-9.9 -22.3,-15.5 -7.1,-5.7 -11.5,-13.3 -17.4,-20.1 -2,-2.4 -5.7,1.3 -3.5,3.8 z"
   id="path15"
   style="fill:#ff7f0e;stroke:none" />
		</g>
	</g><g
   id="g1745"
   transform="matrix(0.80053049,0,0,0.80053049,13.475539,-123.50568)">
		<g
   id="g1744">
			<path
   d="m 256.6,197 c 0,4.8 2.4,12.9 8.6,12.3 6.5,-0.6 7.7,-9.6 7.3,-14.6 -0.3,-4.7 -2.3,-12.8 -8.5,-12.2 -6.8,0.7 -6.7,9.3 -7,14.3 -0.1,1.9 2.9,1.9 3,0 0.2,-2.5 -0.1,-5.6 1,-7.9 1.8,-4 6.7,-1.9 7.7,1.5 0.5,1.6 0.7,3.4 0.8,5.1 0.1,2.2 0.1,7.4 -1.8,8.8 -2.1,0 -4.1,-0.1 -6.2,-0.1 -0.2,-0.4 -0.5,-0.8 -0.7,-1.2 -1.1,-1.6 -1.2,-4.1 -1.2,-6 0,-1.9 -3,-1.9 -3,0 z"
   id="path1743" />
		</g>
	</g><g
   id="g1747"
   transform="matrix(0.80053049,0,0,0.80053049,13.475539,-123.50568)">
		<g
   id="g1746">
			<path
   d="m 233.3,188.1 c -1.6,-7.8 -11.4,-6.5 -13,0.7 -0.8,3.5 1.3,6.7 4.4,8.2 1.9,0.9 4,0.7 5.8,1.5 4.1,1.8 1.8,7.8 -1.5,7.8 -1.7,0 -5.5,0 -6,-2.2 -0.4,-1.9 -3.3,-1.1 -2.9,0.8 1.1,5.8 13.5,6.3 15.8,1 1.1,-2.6 0.1,-6.9 -2,-8.9 -1.1,-1 -2.3,-1.3 -3.7,-1.6 -1.4,-0.3 -3.5,-0.2 -4.6,-1.3 -0.6,-2 -1.2,-4 -1.8,-6.1 1.3,-2.9 3.6,-2.6 6.6,0.8 0.3,2 3.2,1.2 2.9,-0.7 z"
   id="path1745" />
		</g>
	</g><g
   id="g1749"
   transform="matrix(0.80053049,0,0,0.80053049,-6.524461,-167.50568)"
   style="stroke:#000000;stroke-opacity:1">
		<g
   id="g1748"
   style="stroke:#000000;stroke-opacity:1">
			<path
   d="m 81,347 c 0,0 0,0 0,0 0.6,-0.7 0.6,-1.5 0,-2.2 0,0 0,0 0,0 -0.4,-0.5 -1.3,-0.6 -1.8,-0.2 -1.1,0.7 -1,2.4 0.1,3 1,0.6 2.5,0 2.8,-1.2 0.1,-0.6 -0.1,-1.4 -0.7,-1.7 -0.7,-0.4 -1.5,-0.3 -2.1,0.2 -0.5,0.5 -0.7,1.1 -0.5,1.8 0.2,0.8 1,1.3 1.8,1 0.8,-0.2 1.3,-1.1 1,-1.8 0,0 0,-0.1 0,-0.1 0,0.3 0,0.5 0,0.8 -0.1,0.1 -0.2,0.3 -0.2,0.4 -0.2,0.1 -0.4,0.3 -0.7,0.4 -0.1,0 -0.1,0 -0.2,0 -0.3,-0.1 -0.5,-0.1 -0.8,-0.2 0,0 0.1,0 0.1,0 -0.2,-0.6 -0.5,-1.1 -0.7,-1.7 0.1,-0.2 0.3,-0.4 0.4,-0.5 0.3,-0.1 0.5,-0.1 0.8,-0.2 0.2,0.1 0.4,0.2 0.7,0.3 0.1,0.2 0.3,0.4 0.4,0.7 0,0.2 0,0.3 0,0.5 -0.2,0.3 -0.5,0.6 -0.7,0.9 0,0 0,0 0.1,0 -0.6,-0.1 -1.2,-0.2 -1.8,-0.2 0,0 0,0 0,0 0,-0.7 0,-1.4 0,-2.1 0,0 0,0 0,0 -0.5,0.6 -0.6,1.5 0,2.1 0.4,0.5 1.4,0.6 2,0 z"
   id="path1747"
   style="stroke:#000000;stroke-opacity:1" />
		</g>
	</g></g>
</svg>
