<?xml version="1.0" encoding="UTF-8" standalone="no"?>
<svg
   width="750pt"
   height="180pt"
   viewBox="0 0 750 180"
   version="1.1"
   id="svg242"
   sodipodi:docname="result_mhc_region_scale.svg"
   inkscape:version="1.3.2 (091e20e, 2023-11-25)"
   xmlns:inkscape="http://www.inkscape.org/namespaces/inkscape"
   xmlns:sodipodi="http://sodipodi.sourceforge.net/DTD/sodipodi-0.dtd"
   xmlns:xlink="http://www.w3.org/1999/xlink"
   xmlns="http://www.w3.org/2000/svg"
   xmlns:svg="http://www.w3.org/2000/svg"
   xmlns:rdf="http://www.w3.org/1999/02/22-rdf-syntax-ns#"
   xmlns:cc="http://creativecommons.org/ns#"
   xmlns:dc="http://purl.org/dc/elements/1.1/">
  <sodipodi:namedview
     id="namedview242"
     pagecolor="#ffffff"
     bordercolor="#000000"
     borderopacity="0.25"
     inkscape:showpageshadow="2"
     inkscape:pageopacity="0.0"
     inkscape:pagecheckerboard="0"
     inkscape:deskcolor="#d1d1d1"
     inkscape:document-units="pt"
     inkscape:zoom="0.62106398"
     inkscape:cx="355.84096"
     inkscape:cy="167.45457"
     inkscape:window-width="1312"
     inkscape:window-height="449"
     inkscape:window-x="62"
     inkscape:window-y="25"
     inkscape:window-maximized="0"
     inkscape:current-layer="axes_1" />
  <metadata
     id="metadata1">
    <rdf:RDF>
      <cc:Work>
        <dc:type
           rdf:resource="http://purl.org/dc/dcmitype/StillImage" />
        <dc:date>2024-07-05T20:13:48.926080</dc:date>
        <dc:format>image/svg+xml</dc:format>
        <dc:creator>
          <cc:Agent>
            <dc:title>Matplotlib v3.8.0, https://matplotlib.org/</dc:title>
          </cc:Agent>
        </dc:creator>
      </cc:Work>
    </rdf:RDF>
  </metadata>
  <defs
     id="defs1">
    <style
       type="text/css"
       id="style1">*{stroke-linejoin: round; stroke-linecap: butt}</style>
    <path
       id="path4371"
       d="M 1831,0 50,4666 H 709 L 2188,738 3669,4666 h 656 L 2547,0 Z"
       transform="scale(0.015625)" />
    <path
       id="path4372"
       d="M 3809,666 V 1919 H 2778 v 519 H 4434 V 434 Q 4069,175 3628,42 3188,-91 2688,-91 1594,-91 976,548 359,1188 359,2328 q 0,1144 617,1783 618,639 1712,639 456,0 867,-113 411,-112 758,-331 v -672 q -350,297 -744,447 -394,150 -828,150 -857,0 -1287,-478 -429,-478 -429,-1425 0,-944 429,-1422 430,-478 1287,-478 334,0 596,58 263,58 472,180 z"
       transform="scale(0.015625)" />
    <path
       id="path4373"
       d="m 213,4666 h 637 l 981,-3944 978,3944 h 710 l 981,-3944 978,3944 h 641 L 4947,0 H 4153 L 3169,4050 2175,0 h -794 z"
       transform="scale(0.015625)" />
    <path
       id="path4374"
       d="m 3425,4513 v -616 q -359,172 -678,256 -319,85 -616,85 -515,0 -795,-200 -280,-200 -280,-569 0,-310 186,-468 186,-157 705,-254 l 381,-78 q 706,-135 1042,-474 336,-339 336,-907 0,-679 -455,-1029 -454,-350 -1332,-350 -331,0 -705,75 -373,75 -773,222 v 650 q 384,-215 753,-325 369,-109 725,-109 540,0 834,212 294,213 294,607 0,343 -211,537 -211,194 -692,291 l -385,75 q -706,140 -1022,440 -315,300 -315,835 0,619 436,975 436,356 1201,356 329,0 669,-60 341,-59 697,-177 z"
       transform="scale(0.015625)" />
    <path
       id="path4375"
       d="M 628,4666 H 3309 V 4134 H 1259 V 2759 H 3109 V 2228 H 1259 V 0 H 628 Z"
       transform="scale(0.015625)" />
    <path
       id="path4376"
       d="m 2906,2969 v 1894 h 575 V 0 H 2906 V 525 Q 2725,213 2448,61 2172,-91 1784,-91 1150,-91 751,415 353,922 353,1747 q 0,825 398,1331 399,506 1033,506 388,0 664,-152 277,-151 458,-463 z M 947,1747 q 0,-634 261,-995 261,-361 717,-361 456,0 718,361 263,361 263,995 0,634 -263,995 -262,361 -718,361 -456,0 -717,-361 -261,-361 -261,-995 z"
       transform="scale(0.015625)" />
    <path
       id="path4377"
       d="m 1556,2509 q -284,-253 -417,-505 -133,-251 -133,-526 0,-456 331,-759 332,-303 832,-303 297,0 556,98 259,99 488,299 z m 441,350 1587,-1625 q 185,279 288,596 103,317 122,673 h 581 Q 4538,2091 4375,1687 4213,1284 3922,891 L 4794,0 H 4006 L 3559,459 Q 3234,181 2878,45 2522,-91 2113,-91 1359,-91 881,339 403,769 403,1441 q 0,400 209,751 210,352 629,661 -150,197 -229,392 -78,196 -78,383 0,506 347,814 347,308 922,308 260,0 517,-56 258,-56 524,-169 v -569 q -272,147 -519,223 -247,77 -459,77 -328,0 -533,-174 -205,-173 -205,-448 0,-159 92,-320 93,-161 377,-455 z"
       transform="scale(0.015625)" />
    <path
       id="path4378"
       d="M -19,4666 H 3928 V 4134 H 2272 V 0 H 1638 V 4134 H -19 Z"
       transform="scale(0.015625)" />
    <path
       id="path4379"
       d="m 628,4666 h 631 V 0 H 628 Z"
       transform="scale(0.015625)" />
    <path
       id="path4380"
       d="m 2906,1791 q 0,625 -258,968 -257,344 -723,344 -462,0 -720,-344 -258,-343 -258,-968 0,-622 258,-966 258,-344 720,-344 466,0 723,344 258,344 258,966 z M 3481,434 q 0,-893 -397,-1329 -396,-436 -1215,-436 -303,0 -572,45 -269,45 -522,139 v 559 q 253,-137 500,-202 247,-66 503,-66 566,0 847,295 281,295 281,892 V 616 Q 2728,306 2450,153 2172,0 1784,0 1141,0 747,490 353,981 353,1791 q 0,812 394,1302 394,491 1037,491 388,0 666,-153 278,-153 456,-462 v 531 h 575 z"
       transform="scale(0.015625)" />
    <path
       id="path4381"
       d="M 313,2009 H 1997 V 1497 H 313 Z"
       transform="scale(0.015625)" />
    <path
       id="path4382"
       d="M 1259,4147 V 2394 h 794 q 441,0 681,228 241,228 241,650 0,419 -241,647 -240,228 -681,228 z m -631,519 h 1425 q 785,0 1186,-355 402,-355 402,-1039 0,-691 -402,-1044 -401,-353 -1186,-353 H 1259 V 0 H 628 Z"
       transform="scale(0.015625)" />
    <path
       id="path4383"
       d="m 703,97 v 575 q 238,-113 481,-172 244,-59 479,-59 625,0 954,420 330,420 377,1277 -181,-269 -460,-413 -278,-144 -615,-144 -700,0 -1108,423 -408,424 -408,1159 0,718 425,1152 425,435 1131,435 810,0 1236,-621 427,-620 427,-1801 Q 3622,1225 3098,567 2575,-91 1691,-91 1453,-91 1209,-44 966,3 703,97 Z m 1256,1978 q 425,0 673,290 249,291 249,798 0,503 -249,795 -248,292 -673,292 -425,0 -673,-292 -248,-292 -248,-795 0,-507 248,-798 248,-290 673,-290 z"
       transform="scale(0.015625)" />
    <clipPath
       id="pfb8b03f2d0">
      <rect
         x="62.48"
         y="26.16"
         width="563.60498"
         height="111.88"
         id="rect249" />
    </clipPath>
  </defs>
  <g
     id="figure_1">
    <g
       id="axes_1">
      <g
         id="matplotlib.axis_1">
        <g
           id="xtick_1">
          <g
             id="line2d_1">
            <defs
               id="defs2">
              <path
                 id="m6f9d58c57b"
                 d="M 0,0 V 3.5"
                 style="stroke:#000000;stroke-width:0.8" />
            </defs>
            <g
               id="g2">
              <use
                 xlink:href="#m6f9d58c57b"
                 x="54.110001"
                 y="138.03999"
                 style="stroke:#000000;stroke-width:0.8"
                 id="use2" />
            </g>
          </g>
          <g
             id="text_1">
            <!-- 27.5 -->
            <g
               transform="matrix(0.1,0,0,-0.1,42.977188,152.63844)"
               id="g6">
              <defs
                 id="defs3">
                <path
                   id="DejaVuSans-32"
                   d="M 1228,531 H 3431 V 0 H 469 v 531 q 359,372 979,998 621,627 780,809 303,340 423,576 121,236 121,464 0,372 -261,606 -261,235 -680,235 -297,0 -627,-103 -329,-103 -704,-313 v 638 q 381,153 712,231 332,78 607,78 725,0 1156,-363 431,-362 431,-968 0,-288 -108,-546 -107,-257 -392,-607 -78,-91 -497,-524 Q 1991,1309 1228,531 Z"
                   transform="scale(0.015625)" />
                <path
                   id="DejaVuSans-37"
                   d="M 525,4666 H 3525 V 4397 L 1831,0 H 1172 L 2766,4134 H 525 Z"
                   transform="scale(0.015625)" />
                <path
                   id="DejaVuSans-2e"
                   d="m 684,794 h 660 V 0 H 684 Z"
                   transform="scale(0.015625)" />
                <path
                   id="DejaVuSans-35"
                   d="M 691,4666 H 3169 V 4134 H 1269 V 2991 q 137,47 274,70 138,23 276,23 781,0 1237,-428 457,-428 457,-1159 Q 3513,744 3044,326 2575,-91 1722,-91 1428,-91 1123,-41 819,9 494,109 v 635 q 281,-153 581,-228 300,-75 634,-75 541,0 856,284 316,284 316,772 0,487 -316,771 -315,285 -856,285 -253,0 -505,-56 -251,-56 -513,-175 z"
                   transform="scale(0.015625)" />
              </defs>
              <use
                 xlink:href="#DejaVuSans-32"
                 id="use3" />
              <use
                 xlink:href="#DejaVuSans-37"
                 x="63.623047"
                 id="use4" />
              <use
                 xlink:href="#DejaVuSans-2e"
                 x="127.24609"
                 id="use5" />
              <use
                 xlink:href="#DejaVuSans-35"
                 x="159.0332"
                 id="use6" />
            </g>
          </g>
        </g>
        <g
           id="xtick_2">
          <g
             id="line2d_2">
            <g
               id="g7">
              <use
                 xlink:href="#m6f9d58c57b"
                 x="94.965355"
                 y="138.03999"
                 style="stroke:#000000;stroke-width:0.8"
                 id="use7" />
            </g>
          </g>
          <g
             id="text_2">
            <!-- 28.0 -->
            <g
               transform="matrix(0.1,0,0,-0.1,83.832545,152.63844)"
               id="g11">
              <defs
                 id="defs7">
                <path
                   id="DejaVuSans-38"
                   d="m 2034,2216 q -450,0 -708,-241 -257,-241 -257,-662 0,-422 257,-663 258,-241 708,-241 450,0 709,242 260,243 260,662 0,421 -258,662 -257,241 -711,241 z m -631,268 q -406,100 -633,378 -226,279 -226,679 0,559 398,884 399,325 1092,325 697,0 1094,-325 397,-325 397,-884 0,-400 -227,-679 -226,-278 -629,-378 456,-106 710,-416 255,-309 255,-755 Q 3634,634 3220,271 2806,-91 2034,-91 1263,-91 848,271 434,634 434,1313 q 0,446 256,755 257,310 713,416 z m -231,997 q 0,-362 226,-565 227,-203 636,-203 407,0 636,203 230,203 230,565 0,363 -230,566 -229,203 -636,203 -409,0 -636,-203 -226,-203 -226,-566 z"
                   transform="scale(0.015625)" />
                <path
                   id="DejaVuSans-30"
                   d="m 2034,4250 q -487,0 -733,-480 -245,-479 -245,-1442 0,-959 245,-1439 246,-480 733,-480 491,0 736,480 246,480 246,1439 0,963 -246,1442 -245,480 -736,480 z m 0,500 q 785,0 1199,-621 414,-620 414,-1801 0,-1178 -414,-1799 -414,-620 -1199,-620 -784,0 -1198,620 -414,621 -414,1799 0,1181 414,1801 414,621 1198,621 z"
                   transform="scale(0.015625)" />
              </defs>
              <use
                 xlink:href="#DejaVuSans-32"
                 id="use8" />
              <use
                 xlink:href="#DejaVuSans-38"
                 x="63.623047"
                 id="use9" />
              <use
                 xlink:href="#DejaVuSans-2e"
                 x="127.24609"
                 id="use10" />
              <use
                 xlink:href="#DejaVuSans-30"
                 x="159.0332"
                 id="use11" />
            </g>
          </g>
        </g>
        <g
           id="xtick_3">
          <g
             id="line2d_3">
            <g
               id="g12">
              <use
                 xlink:href="#m6f9d58c57b"
                 x="135.82071"
                 y="138.03999"
                 style="stroke:#000000;stroke-width:0.8"
                 id="use12" />
            </g>
          </g>
          <g
             id="text_3">
            <!-- 28.5 -->
            <g
               transform="matrix(0.1,0,0,-0.1,124.6879,152.63844)"
               id="g16">
              <use
                 xlink:href="#DejaVuSans-32"
                 id="use13" />
              <use
                 xlink:href="#DejaVuSans-38"
                 x="63.623047"
                 id="use14" />
              <use
                 xlink:href="#DejaVuSans-2e"
                 x="127.24609"
                 id="use15" />
              <use
                 xlink:href="#DejaVuSans-35"
                 x="159.0332"
                 id="use16" />
            </g>
          </g>
        </g>
        <g
           id="xtick_4">
          <g
             id="line2d_4">
            <g
               id="g17">
              <use
                 xlink:href="#m6f9d58c57b"
                 x="176.67607"
                 y="138.03999"
                 style="stroke:#000000;stroke-width:0.8"
                 id="use17" />
            </g>
          </g>
          <g
             id="text_4">
            <!-- 29.0 -->
            <g
               transform="matrix(0.1,0,0,-0.1,165.54326,152.63844)"
               id="g21">
              <defs
                 id="defs17">
                <path
                   id="DejaVuSans-39"
                   d="m 703,97 v 575 q 238,-113 481,-172 244,-59 479,-59 625,0 954,420 330,420 377,1277 -181,-269 -460,-413 -278,-144 -615,-144 -700,0 -1108,423 -408,424 -408,1159 0,718 425,1152 425,435 1131,435 810,0 1236,-621 427,-620 427,-1801 Q 3622,1225 3098,567 2575,-91 1691,-91 1453,-91 1209,-44 966,3 703,97 Z m 1256,1978 q 425,0 673,290 249,291 249,798 0,503 -249,795 -248,292 -673,292 -425,0 -673,-292 -248,-292 -248,-795 0,-507 248,-798 248,-290 673,-290 z"
                   transform="scale(0.015625)" />
              </defs>
              <use
                 xlink:href="#DejaVuSans-32"
                 id="use18" />
              <use
                 xlink:href="#DejaVuSans-39"
                 x="63.623047"
                 id="use19" />
              <use
                 xlink:href="#DejaVuSans-2e"
                 x="127.24609"
                 id="use20" />
              <use
                 xlink:href="#DejaVuSans-30"
                 x="159.0332"
                 id="use21" />
            </g>
          </g>
        </g>
        <g
           id="xtick_5">
          <g
             id="line2d_5">
            <g
               id="g22">
              <use
                 xlink:href="#m6f9d58c57b"
                 x="217.53143"
                 y="138.03999"
                 style="stroke:#000000;stroke-width:0.8"
                 id="use22" />
            </g>
          </g>
          <g
             id="text_5">
            <!-- 29.5 -->
            <g
               transform="matrix(0.1,0,0,-0.1,206.39862,152.63844)"
               id="g26">
              <use
                 xlink:href="#DejaVuSans-32"
                 id="use23" />
              <use
                 xlink:href="#DejaVuSans-39"
                 x="63.623047"
                 id="use24" />
              <use
                 xlink:href="#DejaVuSans-2e"
                 x="127.24609"
                 id="use25" />
              <use
                 xlink:href="#DejaVuSans-35"
                 x="159.0332"
                 id="use26" />
            </g>
          </g>
        </g>
        <g
           id="xtick_6">
          <g
             id="line2d_6">
            <g
               id="g27">
              <use
                 xlink:href="#m6f9d58c57b"
                 x="258.38678"
                 y="138.03999"
                 style="stroke:#000000;stroke-width:0.8"
                 id="use27" />
            </g>
          </g>
          <g
             id="text_6">
            <!-- 30.0 -->
            <g
               transform="matrix(0.1,0,0,-0.1,247.25397,152.63844)"
               id="g31">
              <defs
                 id="defs27">
                <path
                   id="DejaVuSans-33"
                   d="m 2597,2516 q 453,-97 707,-404 255,-306 255,-756 0,-690 -475,-1069 -475,-378 -1350,-378 -293,0 -604,58 -311,58 -642,174 v 609 q 262,-153 574,-231 313,-78 654,-78 593,0 904,234 311,234 311,681 0,413 -289,645 -289,233 -804,233 h -544 v 519 h 569 q 465,0 712,186 247,186 247,536 0,359 -255,551 -254,193 -729,193 -260,0 -557,-57 -297,-56 -653,-174 v 562 q 360,100 674,150 314,50 592,50 719,0 1137,-327 419,-326 419,-882 0,-388 -222,-655 -222,-267 -631,-370 z"
                   transform="scale(0.015625)" />
              </defs>
              <use
                 xlink:href="#DejaVuSans-33"
                 id="use28" />
              <use
                 xlink:href="#DejaVuSans-30"
                 x="63.623047"
                 id="use29" />
              <use
                 xlink:href="#DejaVuSans-2e"
                 x="127.24609"
                 id="use30" />
              <use
                 xlink:href="#DejaVuSans-30"
                 x="159.0332"
                 id="use31" />
            </g>
          </g>
        </g>
        <g
           id="xtick_7">
          <g
             id="line2d_7">
            <g
               id="g32">
              <use
                 xlink:href="#m6f9d58c57b"
                 x="299.24216"
                 y="138.03999"
                 style="stroke:#000000;stroke-width:0.8"
                 id="use32" />
            </g>
          </g>
          <g
             id="text_7">
            <!-- 30.5 -->
            <g
               transform="matrix(0.1,0,0,-0.1,288.10933,152.63844)"
               id="g36">
              <use
                 xlink:href="#DejaVuSans-33"
                 id="use33" />
              <use
                 xlink:href="#DejaVuSans-30"
                 x="63.623047"
                 id="use34" />
              <use
                 xlink:href="#DejaVuSans-2e"
                 x="127.24609"
                 id="use35" />
              <use
                 xlink:href="#DejaVuSans-35"
                 x="159.0332"
                 id="use36" />
            </g>
          </g>
        </g>
        <g
           id="xtick_8">
          <g
             id="line2d_8">
            <g
               id="g37">
              <use
                 xlink:href="#m6f9d58c57b"
                 x="340.0975"
                 y="138.03999"
                 style="stroke:#000000;stroke-width:0.8"
                 id="use37" />
            </g>
          </g>
          <g
             id="text_8">
            <!-- 31.0 -->
            <g
               transform="matrix(0.1,0,0,-0.1,328.96469,152.63844)"
               id="g41">
              <defs
                 id="defs37">
                <path
                   id="DejaVuSans-31"
                   d="M 794,531 H 1825 V 4091 L 703,3866 v 575 l 1116,225 h 631 V 531 H 3481 V 0 H 794 Z"
                   transform="scale(0.015625)" />
              </defs>
              <use
                 xlink:href="#DejaVuSans-33"
                 id="use38" />
              <use
                 xlink:href="#DejaVuSans-31"
                 x="63.623047"
                 id="use39" />
              <use
                 xlink:href="#DejaVuSans-2e"
                 x="127.24609"
                 id="use40" />
              <use
                 xlink:href="#DejaVuSans-30"
                 x="159.0332"
                 id="use41" />
            </g>
          </g>
        </g>
        <g
           id="xtick_9">
          <g
             id="line2d_9">
            <g
               id="g42">
              <use
                 xlink:href="#m6f9d58c57b"
                 x="380.95285"
                 y="138.03999"
                 style="stroke:#000000;stroke-width:0.8"
                 id="use42" />
            </g>
          </g>
          <g
             id="text_9">
            <!-- 31.5 -->
            <g
               transform="matrix(0.1,0,0,-0.1,369.82004,152.63844)"
               id="g46">
              <use
                 xlink:href="#DejaVuSans-33"
                 id="use43" />
              <use
                 xlink:href="#DejaVuSans-31"
                 x="63.623047"
                 id="use44" />
              <use
                 xlink:href="#DejaVuSans-2e"
                 x="127.24609"
                 id="use45" />
              <use
                 xlink:href="#DejaVuSans-35"
                 x="159.0332"
                 id="use46" />
            </g>
          </g>
        </g>
        <g
           id="xtick_10">
          <g
             id="line2d_10">
            <g
               id="g47">
              <use
                 xlink:href="#m6f9d58c57b"
                 x="421.80823"
                 y="138.03999"
                 style="stroke:#000000;stroke-width:0.8"
                 id="use47" />
            </g>
          </g>
          <g
             id="text_10">
            <!-- 32.0 -->
            <g
               transform="matrix(0.1,0,0,-0.1,410.6754,152.63844)"
               id="g51">
              <use
                 xlink:href="#DejaVuSans-33"
                 id="use48" />
              <use
                 xlink:href="#DejaVuSans-32"
                 x="63.623047"
                 id="use49" />
              <use
                 xlink:href="#DejaVuSans-2e"
                 x="127.24609"
                 id="use50" />
              <use
                 xlink:href="#DejaVuSans-30"
                 x="159.0332"
                 id="use51" />
            </g>
          </g>
        </g>
        <g
           id="xtick_11">
          <g
             id="line2d_11">
            <g
               id="g52">
              <use
                 xlink:href="#m6f9d58c57b"
                 x="462.66357"
                 y="138.03999"
                 style="stroke:#000000;stroke-width:0.8"
                 id="use52" />
            </g>
          </g>
          <g
             id="text_11">
            <!-- 32.5 -->
            <g
               transform="matrix(0.1,0,0,-0.1,451.53076,152.63844)"
               id="g56">
              <use
                 xlink:href="#DejaVuSans-33"
                 id="use53" />
              <use
                 xlink:href="#DejaVuSans-32"
                 x="63.623047"
                 id="use54" />
              <use
                 xlink:href="#DejaVuSans-2e"
                 x="127.24609"
                 id="use55" />
              <use
                 xlink:href="#DejaVuSans-35"
                 x="159.0332"
                 id="use56" />
            </g>
          </g>
        </g>
        <g
           id="xtick_12">
          <g
             id="line2d_12">
            <g
               id="g57">
              <use
                 xlink:href="#m6f9d58c57b"
                 x="503.51892"
                 y="138.03999"
                 style="stroke:#000000;stroke-width:0.8"
                 id="use57" />
            </g>
          </g>
          <g
             id="text_12">
            <!-- 33.0 -->
            <g
               transform="matrix(0.1,0,0,-0.1,492.38612,152.63844)"
               id="g61">
              <use
                 xlink:href="#DejaVuSans-33"
                 id="use58" />
              <use
                 xlink:href="#DejaVuSans-33"
                 x="63.623047"
                 id="use59" />
              <use
                 xlink:href="#DejaVuSans-2e"
                 x="127.24609"
                 id="use60" />
              <use
                 xlink:href="#DejaVuSans-30"
                 x="159.0332"
                 id="use61" />
            </g>
          </g>
        </g>
        <g
           id="xtick_13">
          <g
             id="line2d_13">
            <g
               id="g62">
              <use
                 xlink:href="#m6f9d58c57b"
                 x="544.37427"
                 y="138.03999"
                 style="stroke:#000000;stroke-width:0.8"
                 id="use62" />
            </g>
          </g>
          <g
             id="text_13">
            <!-- 33.5 -->
            <g
               transform="matrix(0.1,0,0,-0.1,533.24147,152.63844)"
               id="g66">
              <use
                 xlink:href="#DejaVuSans-33"
                 id="use63" />
              <use
                 xlink:href="#DejaVuSans-33"
                 x="63.623047"
                 id="use64" />
              <use
                 xlink:href="#DejaVuSans-2e"
                 x="127.24609"
                 id="use65" />
              <use
                 xlink:href="#DejaVuSans-35"
                 x="159.0332"
                 id="use66" />
            </g>
          </g>
        </g>
        <g
           id="xtick_14">
          <g
             id="line2d_14">
            <g
               id="g67">
              <use
                 xlink:href="#m6f9d58c57b"
                 x="585.22961"
                 y="138.03999"
                 style="stroke:#000000;stroke-width:0.8"
                 id="use67" />
            </g>
          </g>
          <g
             id="text_14">
            <!-- 34.0 -->
            <g
               transform="matrix(0.1,0,0,-0.1,574.09683,152.63844)"
               id="g71">
              <defs
                 id="defs67">
                <path
                   id="DejaVuSans-34"
                   d="M 2419,4116 825,1625 h 1594 z m -166,550 h 794 V 1625 h 666 V 1100 H 3047 V 0 H 2419 V 1100 H 313 v 609 z"
                   transform="scale(0.015625)" />
              </defs>
              <use
                 xlink:href="#DejaVuSans-33"
                 id="use68" />
              <use
                 xlink:href="#DejaVuSans-34"
                 x="63.623047"
                 id="use69" />
              <use
                 xlink:href="#DejaVuSans-2e"
                 x="127.24609"
                 id="use70" />
              <use
                 xlink:href="#DejaVuSans-30"
                 x="159.0332"
                 id="use71" />
            </g>
          </g>
        </g>
        <g
           id="xtick_15">
          <g
             id="line2d_15">
            <g
               id="g72">
              <use
                 xlink:href="#m6f9d58c57b"
                 x="626.08502"
                 y="138.03999"
                 style="stroke:#000000;stroke-width:0.8"
                 id="use72" />
            </g>
          </g>
          <g
             id="text_15">
            <!-- 34.5 -->
            <g
               transform="matrix(0.1,0,0,-0.1,614.95219,152.63844)"
               id="g76">
              <use
                 xlink:href="#DejaVuSans-33"
                 id="use73" />
              <use
                 xlink:href="#DejaVuSans-34"
                 x="63.623047"
                 id="use74" />
              <use
                 xlink:href="#DejaVuSans-2e"
                 x="127.24609"
                 id="use75" />
              <use
                 xlink:href="#DejaVuSans-35"
                 x="159.0332"
                 id="use76" />
            </g>
          </g>
        </g>
        <g
           id="text_16">
          <!-- Chromosome 6 position (Mbp) -->
          <g
             transform="matrix(0.1,0,0,-0.1,264.57719,166.31656)"
             id="g103">
            <defs
               id="defs76">
              <path
                 id="DejaVuSans-43"
                 d="m 4122,4306 v -665 q -319,297 -680,443 -361,147 -767,147 -800,0 -1225,-489 -425,-489 -425,-1414 0,-922 425,-1411 425,-489 1225,-489 406,0 767,147 361,147 680,444 V 359 Q 3791,134 3420,21 3050,-91 2638,-91 1578,-91 968,557 359,1206 359,2328 q 0,1125 609,1773 610,649 1670,649 418,0 788,-111 371,-111 696,-333 z"
                 transform="scale(0.015625)" />
              <path
                 id="DejaVuSans-68"
                 d="M 3513,2113 V 0 h -575 v 2094 q 0,497 -194,743 -194,247 -581,247 -466,0 -735,-297 -269,-296 -269,-809 V 0 H 581 v 4863 h 578 V 2956 q 207,316 486,472 280,156 646,156 603,0 912,-373 310,-373 310,-1098 z"
                 transform="scale(0.015625)" />
              <path
                 id="DejaVuSans-72"
                 d="m 2631,2963 q -97,56 -211,82 -114,27 -251,27 -488,0 -749,-317 -261,-317 -261,-911 V 0 H 581 v 3500 h 578 v -544 q 182,319 472,473 291,155 707,155 59,0 131,-8 72,-7 159,-23 z"
                 transform="scale(0.015625)" />
              <path
                 id="DejaVuSans-6f"
                 d="m 1959,3097 q -462,0 -731,-361 -269,-361 -269,-989 0,-628 267,-989 268,-361 733,-361 460,0 728,362 269,363 269,988 0,622 -269,986 -268,364 -728,364 z m 0,487 q 750,0 1178,-488 429,-487 429,-1349 Q 3566,888 3137,398 2709,-91 1959,-91 1206,-91 779,398 353,888 353,1747 q 0,862 426,1349 427,488 1180,488 z"
                 transform="scale(0.015625)" />
              <path
                 id="DejaVuSans-6d"
                 d="m 3328,2828 q 216,388 516,572 300,184 706,184 547,0 844,-383 297,-382 297,-1088 V 0 h -578 v 2094 q 0,503 -179,746 -178,244 -543,244 -447,0 -707,-297 -259,-296 -259,-809 V 0 h -578 v 2094 q 0,506 -178,748 -178,242 -550,242 -441,0 -701,-298 -259,-298 -259,-808 V 0 H 581 v 3500 h 578 v -544 q 197,322 472,475 275,153 653,153 382,0 649,-194 267,-193 395,-562 z"
                 transform="scale(0.015625)" />
              <path
                 id="DejaVuSans-73"
                 d="m 2834,3397 v -544 q -243,125 -506,187 -262,63 -544,63 -428,0 -642,-131 -214,-131 -214,-394 0,-200 153,-314 153,-114 616,-217 l 197,-44 q 612,-131 870,-370 258,-239 258,-667 0,-488 -386,-773 Q 2250,-91 1575,-91 1294,-91 989,-36 684,19 347,128 v 594 q 319,-166 628,-249 309,-82 613,-82 406,0 624,139 219,139 219,392 0,234 -158,359 -157,125 -692,241 l -200,47 q -534,112 -772,345 -237,233 -237,639 0,494 350,762 350,269 994,269 318,0 599,-47 282,-46 519,-140 z"
                 transform="scale(0.015625)" />
              <path
                 id="DejaVuSans-65"
                 d="M 3597,1894 V 1613 H 953 q 38,-594 358,-905 320,-311 892,-311 331,0 642,81 311,81 618,244 V 178 Q 3153,47 2828,-22 2503,-91 2169,-91 1331,-91 842,396 353,884 353,1716 q 0,859 464,1363 464,505 1252,505 706,0 1117,-455 411,-454 411,-1235 z m -575,169 q -6,471 -264,752 -258,282 -683,282 -481,0 -770,-272 -289,-272 -333,-766 z"
                 transform="scale(0.015625)" />
              <path
                 id="DejaVuSans-20"
                 transform="scale(0.015625)"
                 d="" />
              <path
                 id="DejaVuSans-36"
                 d="m 2113,2584 q -425,0 -674,-291 -248,-290 -248,-796 0,-503 248,-796 249,-292 674,-292 425,0 673,292 248,293 248,796 0,506 -248,796 -248,291 -673,291 z m 1253,1979 v -575 q -238,112 -480,171 -242,60 -480,60 -625,0 -955,-422 -329,-422 -376,-1275 184,272 462,417 279,145 613,145 703,0 1111,-427 408,-426 408,-1160 0,-719 -425,-1154 -425,-434 -1131,-434 -810,0 -1238,620 -428,621 -428,1799 0,1106 525,1764 525,658 1409,658 238,0 480,-47 242,-47 505,-140 z"
                 transform="scale(0.015625)" />
              <path
                 id="DejaVuSans-70"
                 d="M 1159,525 V -1331 H 581 v 4831 h 578 v -531 q 182,312 458,463 277,152 661,152 638,0 1036,-506 399,-506 399,-1331 0,-825 -399,-1332 -398,-506 -1036,-506 -384,0 -661,152 -276,152 -458,464 z m 1957,1222 q 0,634 -261,995 -261,361 -717,361 -457,0 -718,-361 -261,-361 -261,-995 0,-634 261,-995 261,-361 718,-361 456,0 717,361 261,361 261,995 z"
                 transform="scale(0.015625)" />
              <path
                 id="DejaVuSans-69"
                 d="m 603,3500 h 575 V 0 H 603 Z m 0,1363 h 575 V 4134 H 603 Z"
                 transform="scale(0.015625)" />
              <path
                 id="DejaVuSans-74"
                 d="M 1172,4494 V 3500 H 2356 V 3053 H 1172 V 1153 q 0,-428 117,-550 117,-122 477,-122 h 590 V 0 H 1766 Q 1100,0 847,248 594,497 594,1153 V 3053 H 172 v 447 h 422 v 994 z"
                 transform="scale(0.015625)" />
              <path
                 id="DejaVuSans-6e"
                 d="M 3513,2113 V 0 h -575 v 2094 q 0,497 -194,743 -194,247 -581,247 -466,0 -735,-297 -269,-296 -269,-809 V 0 H 581 v 3500 h 578 v -544 q 207,316 486,472 280,156 646,156 603,0 912,-373 310,-373 310,-1098 z"
                 transform="scale(0.015625)" />
              <path
                 id="DejaVuSans-28"
                 d="m 1984,4856 q -418,-718 -622,-1422 -203,-703 -203,-1425 0,-721 205,-1429 205,-708 620,-1424 h -500 q -468,735 -701,1444 -233,709 -233,1409 0,697 231,1403 232,707 703,1444 z"
                 transform="scale(0.015625)" />
              <path
                 id="DejaVuSans-4d"
                 d="m 628,4666 h 941 L 2759,1491 3956,4666 h 941 V 0 H 4281 V 4097 L 3078,897 H 2444 L 1241,4097 V 0 H 628 Z"
                 transform="scale(0.015625)" />
              <path
                 id="DejaVuSans-62"
                 d="m 3116,1747 q 0,634 -261,995 -261,361 -717,361 -457,0 -718,-361 -261,-361 -261,-995 0,-634 261,-995 261,-361 718,-361 456,0 717,361 261,361 261,995 z M 1159,2969 q 182,312 458,463 277,152 661,152 638,0 1036,-506 399,-506 399,-1331 Q 3713,922 3314,415 2916,-91 2278,-91 1894,-91 1617,61 1341,213 1159,525 V 0 H 581 v 4863 h 578 z"
                 transform="scale(0.015625)" />
              <path
                 id="DejaVuSans-29"
                 d="m 513,4856 h 500 q 468,-737 701,-1444 233,-706 233,-1403 0,-700 -233,-1409 -233,-709 -701,-1444 H 513 q 415,716 620,1424 205,708 205,1429 0,722 -205,1425 -205,704 -620,1422 z"
                 transform="scale(0.015625)" />
            </defs>
            <use
               xlink:href="#DejaVuSans-43"
               id="use77" />
            <use
               xlink:href="#DejaVuSans-68"
               x="69.824219"
               id="use78" />
            <use
               xlink:href="#DejaVuSans-72"
               x="133.20312"
               id="use79" />
            <use
               xlink:href="#DejaVuSans-6f"
               x="172.06641"
               id="use80" />
            <use
               xlink:href="#DejaVuSans-6d"
               x="233.24805"
               id="use81" />
            <use
               xlink:href="#DejaVuSans-6f"
               x="330.66016"
               id="use82" />
            <use
               xlink:href="#DejaVuSans-73"
               x="391.8418"
               id="use83" />
            <use
               xlink:href="#DejaVuSans-6f"
               x="443.94141"
               id="use84" />
            <use
               xlink:href="#DejaVuSans-6d"
               x="505.12305"
               id="use85" />
            <use
               xlink:href="#DejaVuSans-65"
               x="602.53516"
               id="use86" />
            <use
               xlink:href="#DejaVuSans-20"
               x="664.05859"
               id="use87" />
            <use
               xlink:href="#DejaVuSans-36"
               x="695.8457"
               id="use88" />
            <use
               xlink:href="#DejaVuSans-20"
               x="759.46875"
               id="use89" />
            <use
               xlink:href="#DejaVuSans-70"
               x="791.25586"
               id="use90" />
            <use
               xlink:href="#DejaVuSans-6f"
               x="854.73242"
               id="use91" />
            <use
               xlink:href="#DejaVuSans-73"
               x="915.91406"
               id="use92" />
            <use
               xlink:href="#DejaVuSans-69"
               x="968.01367"
               id="use93" />
            <use
               xlink:href="#DejaVuSans-74"
               x="995.79688"
               id="use94" />
            <use
               xlink:href="#DejaVuSans-69"
               x="1035.0059"
               id="use95" />
            <use
               xlink:href="#DejaVuSans-6f"
               x="1062.7891"
               id="use96" />
            <use
               xlink:href="#DejaVuSans-6e"
               x="1123.9707"
               id="use97" />
            <use
               xlink:href="#DejaVuSans-20"
               x="1187.3496"
               id="use98" />
            <use
               xlink:href="#DejaVuSans-28"
               x="1219.1367"
               id="use99" />
            <use
               xlink:href="#DejaVuSans-4d"
               x="1258.1504"
               id="use100" />
            <use
               xlink:href="#DejaVuSans-62"
               x="1344.4297"
               id="use101" />
            <use
               xlink:href="#DejaVuSans-70"
               x="1407.9062"
               id="use102" />
            <use
               xlink:href="#DejaVuSans-29"
               x="1471.3828"
               id="use103" />
          </g>
        </g>
      </g>
      <g
         id="matplotlib.axis_2">
        <g
           id="ytick_1">
          <g
             id="line2d_16">
            <defs
               id="defs103">
              <path
                 id="m5272e01b84"
                 d="M 0,0 H -3.5"
                 style="stroke:#000000;stroke-width:0.8" />
            </defs>
            <g
               id="g104">
              <use
                 xlink:href="#m5272e01b84"
                 x="54.110001"
                 y="105.2157"
                 style="stroke:#000000;stroke-width:0.8"
                 id="use104" />
            </g>
          </g>
          <g
             id="text_17">
            <!-- 0.00 -->
            <g
               transform="matrix(0.1,0,0,-0.1,24.844375,109.01492)"
               id="g108">
              <use
                 xlink:href="#DejaVuSans-30"
                 id="use105" />
              <use
                 xlink:href="#DejaVuSans-2e"
                 x="63.623047"
                 id="use106" />
              <use
                 xlink:href="#DejaVuSans-30"
                 x="95.410156"
                 id="use107" />
              <use
                 xlink:href="#DejaVuSans-30"
                 x="159.0332"
                 id="use108" />
            </g>
          </g>
        </g>
        <g
           id="ytick_2">
          <g
             id="line2d_17">
            <g
               id="g109">
              <use
                 xlink:href="#m5272e01b84"
                 x="54.110001"
                 y="68.230576"
                 style="stroke:#000000;stroke-width:0.8"
                 id="use109" />
            </g>
          </g>
          <g
             id="text_18">
            <!-- 0.05 -->
            <g
               transform="matrix(0.1,0,0,-0.1,24.844375,72.029797)"
               id="g113">
              <use
                 xlink:href="#DejaVuSans-30"
                 id="use110" />
              <use
                 xlink:href="#DejaVuSans-2e"
                 x="63.623047"
                 id="use111" />
              <use
                 xlink:href="#DejaVuSans-30"
                 x="95.410156"
                 id="use112" />
              <use
                 xlink:href="#DejaVuSans-35"
                 x="159.0332"
                 id="use113" />
            </g>
          </g>
        </g>
        <g
           id="ytick_3">
          <g
             id="line2d_18">
            <g
               id="g114">
              <use
                 xlink:href="#m5272e01b84"
                 x="54.110001"
                 y="31.245455"
                 style="stroke:#000000;stroke-width:0.8"
                 id="use114" />
            </g>
          </g>
          <g
             id="text_19">
            <!-- 0.10 -->
            <g
               transform="matrix(0.1,0,0,-0.1,24.844375,35.044673)"
               id="g118">
              <use
                 xlink:href="#DejaVuSans-30"
                 id="use115" />
              <use
                 xlink:href="#DejaVuSans-2e"
                 x="63.623047"
                 id="use116" />
              <use
                 xlink:href="#DejaVuSans-31"
                 x="95.410156"
                 id="use117" />
              <use
                 xlink:href="#DejaVuSans-30"
                 x="159.0332"
                 id="use118" />
            </g>
          </g>
        </g>
        <g
           id="text_20">
          <!-- Absolute selection value -->
          <g
             transform="matrix(0,-0.1,-0.1,0,18.764688,143.2625)"
             id="g142">
            <defs
               id="defs118">
              <path
                 id="DejaVuSans-41"
                 d="M 2188,4044 1331,1722 h 1716 z m -357,622 h 716 L 4325,0 H 3669 L 3244,1197 H 1141 L 716,0 H 50 Z"
                 transform="scale(0.015625)" />
              <path
                 id="DejaVuSans-6c"
                 d="m 603,4863 h 575 V 0 H 603 Z"
                 transform="scale(0.015625)" />
              <path
                 id="DejaVuSans-75"
                 d="m 544,1381 v 2119 h 575 V 1403 q 0,-497 193,-746 194,-248 582,-248 465,0 735,297 271,297 271,810 v 1984 h 575 V 0 H 2900 V 538 Q 2691,219 2414,64 2138,-91 1772,-91 1169,-91 856,284 544,659 544,1381 Z m 1447,2203 z"
                 transform="scale(0.015625)" />
              <path
                 id="DejaVuSans-63"
                 d="m 3122,3366 v -538 q -244,135 -489,202 -245,67 -495,67 -560,0 -870,-355 -309,-354 -309,-995 0,-641 309,-996 310,-354 870,-354 250,0 495,67 245,67 489,202 V 134 Q 2881,22 2623,-34 2366,-91 2075,-91 1284,-91 818,406 353,903 353,1747 q 0,856 470,1346 471,491 1290,491 265,0 518,-55 253,-54 491,-163 z"
                 transform="scale(0.015625)" />
              <path
                 id="DejaVuSans-76"
                 d="M 191,3500 H 800 L 1894,563 2988,3500 h 609 L 2284,0 h -781 z"
                 transform="scale(0.015625)" />
              <path
                 id="DejaVuSans-61"
                 d="m 2194,1759 q -697,0 -966,-159 -269,-159 -269,-544 0,-306 202,-486 202,-179 548,-179 479,0 768,339 289,339 289,901 v 128 z m 1147,238 V 0 H 2766 V 531 Q 2569,213 2275,61 1981,-91 1556,-91 q -537,0 -855,302 -317,302 -317,808 0,590 395,890 396,300 1180,300 h 807 v 57 q 0,397 -261,614 -261,217 -733,217 -300,0 -585,-72 -284,-72 -546,-216 v 532 q 315,122 612,182 297,61 578,61 760,0 1135,-394 375,-393 375,-1193 z"
                 transform="scale(0.015625)" />
            </defs>
            <use
               xlink:href="#DejaVuSans-41"
               id="use119" />
            <use
               xlink:href="#DejaVuSans-62"
               x="68.408203"
               id="use120" />
            <use
               xlink:href="#DejaVuSans-73"
               x="131.88477"
               id="use121" />
            <use
               xlink:href="#DejaVuSans-6f"
               x="183.98438"
               id="use122" />
            <use
               xlink:href="#DejaVuSans-6c"
               x="245.16602"
               id="use123" />
            <use
               xlink:href="#DejaVuSans-75"
               x="272.94922"
               id="use124" />
            <use
               xlink:href="#DejaVuSans-74"
               x="336.32812"
               id="use125" />
            <use
               xlink:href="#DejaVuSans-65"
               x="375.53711"
               id="use126" />
            <use
               xlink:href="#DejaVuSans-20"
               x="437.06055"
               id="use127" />
            <use
               xlink:href="#DejaVuSans-73"
               x="468.84766"
               id="use128" />
            <use
               xlink:href="#DejaVuSans-65"
               x="520.94727"
               id="use129" />
            <use
               xlink:href="#DejaVuSans-6c"
               x="582.4707"
               id="use130" />
            <use
               xlink:href="#DejaVuSans-65"
               x="610.25391"
               id="use131" />
            <use
               xlink:href="#DejaVuSans-63"
               x="671.77734"
               id="use132" />
            <use
               xlink:href="#DejaVuSans-74"
               x="726.75781"
               id="use133" />
            <use
               xlink:href="#DejaVuSans-69"
               x="765.9668"
               id="use134" />
            <use
               xlink:href="#DejaVuSans-6f"
               x="793.75"
               id="use135" />
            <use
               xlink:href="#DejaVuSans-6e"
               x="854.93164"
               id="use136" />
            <use
               xlink:href="#DejaVuSans-20"
               x="918.31055"
               id="use137" />
            <use
               xlink:href="#DejaVuSans-76"
               x="950.09766"
               id="use138" />
            <use
               xlink:href="#DejaVuSans-61"
               x="1009.2773"
               id="use139" />
            <use
               xlink:href="#DejaVuSans-6c"
               x="1070.5566"
               id="use140" />
            <use
               xlink:href="#DejaVuSans-75"
               x="1098.3398"
               id="use141" />
            <use
               xlink:href="#DejaVuSans-65"
               x="1161.7188"
               id="use142" />
          </g>
        </g>
      </g>
      <g
         id="line2d_19" />
      <g
         id="patch_3">
        <path
           d="M 54.11,138.04 V 26.16"
           style="fill:none;stroke:#000000;stroke-width:0.8;stroke-linecap:square;stroke-linejoin:miter"
           id="path230" />
      </g>
      <g
         id="patch_4">
        <path
           d="M 626.085,138.04 V 26.16"
           style="fill:none;stroke:#000000;stroke-width:0.8;stroke-linecap:square;stroke-linejoin:miter"
           id="path231" />
      </g>
      <g
         id="patch_5">
        <path
           d="M 54.11,138.04 H 626.085"
           style="fill:none;stroke:#000000;stroke-width:0.8;stroke-linecap:square;stroke-linejoin:miter"
           id="path232" />
      </g>
      <g
         id="patch_6">
        <path
           d="M 54.11,26.16 H 626.085"
           style="fill:none;stroke:#000000;stroke-width:0.8;stroke-linecap:square;stroke-linejoin:miter"
           id="path233" />
      </g>
      <g
         id="text_21">
        <!-- MHC Region -->
        <g
           transform="matrix(0.12,0,0,-0.12,303.77125,20.16)"
           id="g242">
          <defs
             id="defs233">
            <path
               id="DejaVuSans-48"
               d="m 628,4666 h 631 V 2753 h 2294 v 1913 h 631 V 0 H 3553 V 2222 H 1259 V 0 H 628 Z"
               transform="scale(0.015625)" />
            <path
               id="DejaVuSans-52"
               d="m 2841,2188 q 203,-69 395,-294 192,-225 386,-619 L 4263,0 h -679 l -596,1197 q -232,469 -449,622 -217,153 -592,153 H 1259 V 0 H 628 v 4666 h 1425 q 800,0 1194,-335 394,-334 394,-1009 0,-441 -205,-732 -205,-290 -595,-402 z M 1259,4147 V 2491 h 794 q 456,0 689,211 233,211 233,620 0,409 -233,617 -233,208 -689,208 z"
               transform="scale(0.015625)" />
            <path
               id="DejaVuSans-67"
               d="m 2906,1791 q 0,625 -258,968 -257,344 -723,344 -462,0 -720,-344 -258,-343 -258,-968 0,-622 258,-966 258,-344 720,-344 466,0 723,344 258,344 258,966 z M 3481,434 q 0,-893 -397,-1329 -396,-436 -1215,-436 -303,0 -572,45 -269,45 -522,139 v 559 q 253,-137 500,-202 247,-66 503,-66 566,0 847,295 281,295 281,892 V 616 Q 2728,306 2450,153 2172,0 1784,0 1141,0 747,490 353,981 353,1791 q 0,812 394,1302 394,491 1037,491 388,0 666,-153 278,-153 456,-462 v 531 h 575 z"
               transform="scale(0.015625)" />
          </defs>
          <use
             xlink:href="#DejaVuSans-4d"
             id="use233" />
          <use
             xlink:href="#DejaVuSans-48"
             x="86.279297"
             id="use234" />
          <use
             xlink:href="#DejaVuSans-43"
             x="161.47461"
             id="use235" />
          <use
             xlink:href="#DejaVuSans-20"
             x="231.29883"
             id="use236" />
          <use
             xlink:href="#DejaVuSans-52"
             x="263.08594"
             id="use237" />
          <use
             xlink:href="#DejaVuSans-65"
             x="328.06836"
             id="use238" />
          <use
             xlink:href="#DejaVuSans-67"
             x="389.5918"
             id="use239" />
          <use
             xlink:href="#DejaVuSans-69"
             x="453.06836"
             id="use240" />
          <use
             xlink:href="#DejaVuSans-6f"
             x="480.85156"
             id="use241" />
          <use
             xlink:href="#DejaVuSans-6e"
             x="542.0332"
             id="use242" />
        </g>
      </g>
    </g>
  </g>
  <defs
     id="defs242">
    <clipPath
       id="p915040bf89">
      <rect
         x="54.110001"
         y="26.16"
         width="571.97498"
         height="111.88"
         id="rect242" />
    </clipPath>
  </defs>
</svg>
