<?xml version="1.0" encoding="UTF-8" standalone="no"?>
<svg
   width="750pt"
   height="180pt"
   viewBox="0 0 750 180"
   version="1.1"
   id="svg242"
   sodipodi:docname="result_mhc_region_gwas.svg"
   inkscape:version="1.3.2 (091e20e, 2023-11-25)"
   xmlns:inkscape="http://www.inkscape.org/namespaces/inkscape"
   xmlns:sodipodi="http://sodipodi.sourceforge.net/DTD/sodipodi-0.dtd"
   xmlns:xlink="http://www.w3.org/1999/xlink"
   xmlns="http://www.w3.org/2000/svg"
   xmlns:svg="http://www.w3.org/2000/svg"
   xmlns:rdf="http://www.w3.org/1999/02/22-rdf-syntax-ns#"
   xmlns:cc="http://creativecommons.org/ns#"
   xmlns:dc="http://purl.org/dc/elements/1.1/">
  <sodipodi:namedview
     id="namedview242"
     pagecolor="#ffffff"
     bordercolor="#000000"
     borderopacity="0.25"
     inkscape:showpageshadow="2"
     inkscape:pageopacity="0.0"
     inkscape:pagecheckerboard="0"
     inkscape:deskcolor="#d1d1d1"
     inkscape:document-units="pt"
     inkscape:zoom="0.62106398"
     inkscape:cx="549.05777"
     inkscape:cy="90.167845"
     inkscape:window-width="1312"
     inkscape:window-height="449"
     inkscape:window-x="62"
     inkscape:window-y="25"
     inkscape:window-maximized="0"
     inkscape:current-layer="axes_1" />
  <metadata
     id="metadata1">
    <rdf:RDF>
      <cc:Work>
        <dc:type
           rdf:resource="http://purl.org/dc/dcmitype/StillImage" />
        <dc:date>2024-07-05T20:13:48.926080</dc:date>
        <dc:format>image/svg+xml</dc:format>
        <dc:creator>
          <cc:Agent>
            <dc:title>Matplotlib v3.8.0, https://matplotlib.org/</dc:title>
          </cc:Agent>
        </dc:creator>
      </cc:Work>
    </rdf:RDF>
  </metadata>
  <defs
     id="defs1">
    <style
       type="text/css"
       id="style1">*{stroke-linejoin: round; stroke-linecap: butt}</style>
    <path
       id="path4371"
       d="M 1831,0 50,4666 H 709 L 2188,738 3669,4666 h 656 L 2547,0 Z"
       transform="scale(0.015625)" />
    <path
       id="path4372"
       d="M 3809,666 V 1919 H 2778 v 519 H 4434 V 434 Q 4069,175 3628,42 3188,-91 2688,-91 1594,-91 976,548 359,1188 359,2328 q 0,1144 617,1783 618,639 1712,639 456,0 867,-113 411,-112 758,-331 v -672 q -350,297 -744,447 -394,150 -828,150 -857,0 -1287,-478 -429,-478 -429,-1425 0,-944 429,-1422 430,-478 1287,-478 334,0 596,58 263,58 472,180 z"
       transform="scale(0.015625)" />
    <path
       id="path4373"
       d="m 213,4666 h 637 l 981,-3944 978,3944 h 710 l 981,-3944 978,3944 h 641 L 4947,0 H 4153 L 3169,4050 2175,0 h -794 z"
       transform="scale(0.015625)" />
    <path
       id="path4374"
       d="m 3425,4513 v -616 q -359,172 -678,256 -319,85 -616,85 -515,0 -795,-200 -280,-200 -280,-569 0,-310 186,-468 186,-157 705,-254 l 381,-78 q 706,-135 1042,-474 336,-339 336,-907 0,-679 -455,-1029 -454,-350 -1332,-350 -331,0 -705,75 -373,75 -773,222 v 650 q 384,-215 753,-325 369,-109 725,-109 540,0 834,212 294,213 294,607 0,343 -211,537 -211,194 -692,291 l -385,75 q -706,140 -1022,440 -315,300 -315,835 0,619 436,975 436,356 1201,356 329,0 669,-60 341,-59 697,-177 z"
       transform="scale(0.015625)" />
    <path
       id="path4375"
       d="M 628,4666 H 3309 V 4134 H 1259 V 2759 H 3109 V 2228 H 1259 V 0 H 628 Z"
       transform="scale(0.015625)" />
    <path
       id="path4376"
       d="m 2906,2969 v 1894 h 575 V 0 H 2906 V 525 Q 2725,213 2448,61 2172,-91 1784,-91 1150,-91 751,415 353,922 353,1747 q 0,825 398,1331 399,506 1033,506 388,0 664,-152 277,-151 458,-463 z M 947,1747 q 0,-634 261,-995 261,-361 717,-361 456,0 718,361 263,361 263,995 0,634 -263,995 -262,361 -718,361 -456,0 -717,-361 -261,-361 -261,-995 z"
       transform="scale(0.015625)" />
    <path
       id="path4377"
       d="m 1556,2509 q -284,-253 -417,-505 -133,-251 -133,-526 0,-456 331,-759 332,-303 832,-303 297,0 556,98 259,99 488,299 z m 441,350 1587,-1625 q 185,279 288,596 103,317 122,673 h 581 Q 4538,2091 4375,1687 4213,1284 3922,891 L 4794,0 H 4006 L 3559,459 Q 3234,181 2878,45 2522,-91 2113,-91 1359,-91 881,339 403,769 403,1441 q 0,400 209,751 210,352 629,661 -150,197 -229,392 -78,196 -78,383 0,506 347,814 347,308 922,308 260,0 517,-56 258,-56 524,-169 v -569 q -272,147 -519,223 -247,77 -459,77 -328,0 -533,-174 -205,-173 -205,-448 0,-159 92,-320 93,-161 377,-455 z"
       transform="scale(0.015625)" />
    <path
       id="path4378"
       d="M -19,4666 H 3928 V 4134 H 2272 V 0 H 1638 V 4134 H -19 Z"
       transform="scale(0.015625)" />
    <path
       id="path4379"
       d="m 628,4666 h 631 V 0 H 628 Z"
       transform="scale(0.015625)" />
    <path
       id="path4380"
       d="m 2906,1791 q 0,625 -258,968 -257,344 -723,344 -462,0 -720,-344 -258,-343 -258,-968 0,-622 258,-966 258,-344 720,-344 466,0 723,344 258,344 258,966 z M 3481,434 q 0,-893 -397,-1329 -396,-436 -1215,-436 -303,0 -572,45 -269,45 -522,139 v 559 q 253,-137 500,-202 247,-66 503,-66 566,0 847,295 281,295 281,892 V 616 Q 2728,306 2450,153 2172,0 1784,0 1141,0 747,490 353,981 353,1791 q 0,812 394,1302 394,491 1037,491 388,0 666,-153 278,-153 456,-462 v 531 h 575 z"
       transform="scale(0.015625)" />
    <path
       id="path4381"
       d="M 313,2009 H 1997 V 1497 H 313 Z"
       transform="scale(0.015625)" />
    <path
       id="path4382"
       d="M 1259,4147 V 2394 h 794 q 441,0 681,228 241,228 241,650 0,419 -241,647 -240,228 -681,228 z m -631,519 h 1425 q 785,0 1186,-355 402,-355 402,-1039 0,-691 -402,-1044 -401,-353 -1186,-353 H 1259 V 0 H 628 Z"
       transform="scale(0.015625)" />
    <path
       id="path4383"
       d="m 703,97 v 575 q 238,-113 481,-172 244,-59 479,-59 625,0 954,420 330,420 377,1277 -181,-269 -460,-413 -278,-144 -615,-144 -700,0 -1108,423 -408,424 -408,1159 0,718 425,1152 425,435 1131,435 810,0 1236,-621 427,-620 427,-1801 Q 3622,1225 3098,567 2575,-91 1691,-91 1453,-91 1209,-44 966,3 703,97 Z m 1256,1978 q 425,0 673,290 249,291 249,798 0,503 -249,795 -248,292 -673,292 -425,0 -673,-292 -248,-292 -248,-795 0,-507 248,-798 248,-290 673,-290 z"
       transform="scale(0.015625)" />
    <clipPath
       id="pfb8b03f2d0">
      <rect
         x="62.48"
         y="26.16"
         width="563.60498"
         height="111.88"
         id="rect249" />
    </clipPath>
  </defs>
  <g
     id="figure_1">
    <g
       id="patch_1" />
    <g
       id="axes_1">
      <g
         id="line2d_20">
        <defs
           id="defs142">
          <path
             id="mb876ca64da"
             d="M 0,1.5 C 0.397805,1.5 0.77937,1.341951 1.06066,1.06066 1.341951,0.77937 1.5,0.397805 1.5,0 1.5,-0.397805 1.341951,-0.77937 1.06066,-1.06066 0.77937,-1.341951 0.397805,-1.5 0,-1.5 c -0.397805,0 -0.77937,0.158049 -1.06066,0.43934 C -1.341951,-0.77937 -1.5,-0.397805 -1.5,0 c 0,0.397805 0.158049,0.77937 0.43934,1.06066 C -0.77937,1.341951 -0.397805,1.5 0,1.5 Z"
             style="stroke:#ff0000" />
        </defs>
        <g
           clip-path="url(#p915040bf89)"
           id="g144">
          <use
             xlink:href="#mb876ca64da"
             x="251.30231"
             y="99.29808"
             style="fill:#ff0000;stroke:#ff0000"
             id="use143" />
          <use
             xlink:href="#mb876ca64da"
             x="507.49335"
             y="97.81868"
             style="fill:#ff0000;stroke:#ff0000"
             id="use144" />
        </g>
      </g>
      <g
         id="line2d_21">
        <defs
           id="defs144">
          <path
             id="m802cf6f6c8"
             d="M 0,1.5 C 0.397805,1.5 0.77937,1.341951 1.06066,1.06066 1.341951,0.77937 1.5,0.397805 1.5,0 1.5,-0.397805 1.341951,-0.77937 1.06066,-1.06066 0.77937,-1.341951 0.397805,-1.5 0,-1.5 c -0.397805,0 -0.77937,0.158049 -1.06066,0.43934 C -1.341951,-0.77937 -1.5,-0.397805 -1.5,0 c 0,0.397805 0.158049,0.77937 0.43934,1.06066 C -0.77937,1.341951 -0.397805,1.5 0,1.5 Z"
             style="stroke:#bfbf00" />
        </defs>
        <g
           clip-path="url(#p915040bf89)"
           id="g146">
          <use
             xlink:href="#m802cf6f6c8"
             x="251.30231"
             y="99.29808"
             style="fill:#bfbf00;stroke:#bfbf00"
             id="use145" />
          <use
             xlink:href="#m802cf6f6c8"
             x="507.49335"
             y="97.81868"
             style="fill:#bfbf00;stroke:#bfbf00"
             id="use146" />
        </g>
      </g>
      <g
         id="line2d_22">
        <defs
           id="defs146">
          <path
             id="mecb39e21fc"
             d="M 0,1.5 C 0.397805,1.5 0.77937,1.341951 1.06066,1.06066 1.341951,0.77937 1.5,0.397805 1.5,0 1.5,-0.397805 1.341951,-0.77937 1.06066,-1.06066 0.77937,-1.341951 0.397805,-1.5 0,-1.5 c -0.397805,0 -0.77937,0.158049 -1.06066,0.43934 C -1.341951,-0.77937 -1.5,-0.397805 -1.5,0 c 0,0.397805 0.158049,0.77937 0.43934,1.06066 C -0.77937,1.341951 -0.397805,1.5 0,1.5 Z"
             style="stroke:#008000" />
        </defs>
        <g
           clip-path="url(#p915040bf89)"
           id="g212">
          <use
             xlink:href="#mecb39e21fc"
             x="251.06207"
             y="100.77749"
             style="fill:#008000;stroke:#008000"
             id="use147" />
          <use
             xlink:href="#mecb39e21fc"
             x="251.06371"
             y="100.77749"
             style="fill:#008000;stroke:#008000"
             id="use148" />
          <use
             xlink:href="#mecb39e21fc"
             x="251.09254"
             y="95.969421"
             style="fill:#008000;stroke:#008000"
             id="use149" />
          <use
             xlink:href="#mecb39e21fc"
             x="251.09827"
             y="90.421654"
             style="fill:#008000;stroke:#008000"
             id="use150" />
          <use
             xlink:href="#mecb39e21fc"
             x="251.12384"
             y="94.120163"
             style="fill:#008000;stroke:#008000"
             id="use151" />
          <use
             xlink:href="#mecb39e21fc"
             x="348.79636"
             y="97.81868"
             style="fill:#008000;stroke:#008000"
             id="use152" />
          <use
             xlink:href="#mecb39e21fc"
             x="349.59311"
             y="99.29808"
             style="fill:#008000;stroke:#008000"
             id="use153" />
          <use
             xlink:href="#mecb39e21fc"
             x="349.78113"
             y="99.29808"
             style="fill:#008000;stroke:#008000"
             id="use154" />
          <use
             xlink:href="#mecb39e21fc"
             x="350.10706"
             y="97.81868"
             style="fill:#008000;stroke:#008000"
             id="use155" />
          <use
             xlink:href="#mecb39e21fc"
             x="359.52609"
             y="83.024628"
             style="fill:#008000;stroke:#008000"
             id="use156" />
          <use
             xlink:href="#mecb39e21fc"
             x="359.52618"
             y="83.024628"
             style="fill:#008000;stroke:#008000"
             id="use157" />
          <use
             xlink:href="#mecb39e21fc"
             x="359.52634"
             y="90.421654"
             style="fill:#008000;stroke:#008000"
             id="use158" />
          <use
             xlink:href="#mecb39e21fc"
             x="359.53305"
             y="99.29808"
             style="fill:#008000;stroke:#008000"
             id="use159" />
          <use
             xlink:href="#mecb39e21fc"
             x="359.63101"
             y="101.51719"
             style="fill:#008000;stroke:#008000"
             id="use160" />
          <use
             xlink:href="#mecb39e21fc"
             x="359.6615"
             y="100.77749"
             style="fill:#008000;stroke:#008000"
             id="use161" />
          <use
             xlink:href="#mecb39e21fc"
             x="359.66306"
             y="100.77749"
             style="fill:#008000;stroke:#008000"
             id="use162" />
          <use
             xlink:href="#mecb39e21fc"
             x="359.66769"
             y="100.77749"
             style="fill:#008000;stroke:#008000"
             id="use163" />
          <use
             xlink:href="#mecb39e21fc"
             x="359.6687"
             y="100.77749"
             style="fill:#008000;stroke:#008000"
             id="use164" />
          <use
             xlink:href="#mecb39e21fc"
             x="359.67352"
             y="99.29808"
             style="fill:#008000;stroke:#008000"
             id="use165" />
          <use
             xlink:href="#mecb39e21fc"
             x="359.67416"
             y="99.29808"
             style="fill:#008000;stroke:#008000"
             id="use166" />
          <use
             xlink:href="#mecb39e21fc"
             x="359.68976"
             y="95.969421"
             style="fill:#008000;stroke:#008000"
             id="use167" />
          <use
             xlink:href="#mecb39e21fc"
             x="359.69345"
             y="95.969421"
             style="fill:#008000;stroke:#008000"
             id="use168" />
          <use
             xlink:href="#mecb39e21fc"
             x="366.48279"
             y="99.29808"
             style="fill:#008000;stroke:#008000"
             id="use169" />
          <use
             xlink:href="#mecb39e21fc"
             x="366.48843"
             y="101.51719"
             style="fill:#008000;stroke:#008000"
             id="use170" />
          <use
             xlink:href="#mecb39e21fc"
             x="366.48975"
             y="101.51719"
             style="fill:#008000;stroke:#008000"
             id="use171" />
          <use
             xlink:href="#mecb39e21fc"
             x="366.50909"
             y="99.29808"
             style="fill:#008000;stroke:#008000"
             id="use172" />
          <use
             xlink:href="#mecb39e21fc"
             x="366.51425"
             y="97.81868"
             style="fill:#008000;stroke:#008000"
             id="use173" />
          <use
             xlink:href="#mecb39e21fc"
             x="366.51889"
             y="99.29808"
             style="fill:#008000;stroke:#008000"
             id="use174" />
          <use
             xlink:href="#mecb39e21fc"
             x="366.56729"
             y="75.627602"
             style="fill:#008000;stroke:#008000"
             id="use175" />
          <use
             xlink:href="#mecb39e21fc"
             x="366.56793"
             y="68.230576"
             style="fill:#008000;stroke:#008000"
             id="use176" />
          <use
             xlink:href="#mecb39e21fc"
             x="366.58435"
             y="83.024628"
             style="fill:#008000;stroke:#008000"
             id="use177" />
          <use
             xlink:href="#mecb39e21fc"
             x="366.58762"
             y="83.024628"
             style="fill:#008000;stroke:#008000"
             id="use178" />
          <use
             xlink:href="#mecb39e21fc"
             x="366.61771"
             y="90.421654"
             style="fill:#008000;stroke:#008000"
             id="use179" />
          <use
             xlink:href="#mecb39e21fc"
             x="366.61966"
             y="83.024628"
             style="fill:#008000;stroke:#008000"
             id="use180" />
          <use
             xlink:href="#mecb39e21fc"
             x="366.62415"
             y="83.024628"
             style="fill:#008000;stroke:#008000"
             id="use181" />
          <use
             xlink:href="#mecb39e21fc"
             x="366.62912"
             y="75.627602"
             style="fill:#008000;stroke:#008000"
             id="use182" />
          <use
             xlink:href="#mecb39e21fc"
             x="366.64432"
             y="75.627602"
             style="fill:#008000;stroke:#008000"
             id="use183" />
          <use
             xlink:href="#mecb39e21fc"
             x="366.64465"
             y="75.627602"
             style="fill:#008000;stroke:#008000"
             id="use184" />
          <use
             xlink:href="#mecb39e21fc"
             x="366.6449"
             y="75.627602"
             style="fill:#008000;stroke:#008000"
             id="use185" />
          <use
             xlink:href="#mecb39e21fc"
             x="378.82486"
             y="90.421654"
             style="fill:#008000;stroke:#008000"
             id="use186" />
          <use
             xlink:href="#mecb39e21fc"
             x="380.70078"
             y="97.81868"
             style="fill:#008000;stroke:#008000"
             id="use187" />
          <use
             xlink:href="#mecb39e21fc"
             x="380.7016"
             y="97.81868"
             style="fill:#008000;stroke:#008000"
             id="use188" />
          <use
             xlink:href="#mecb39e21fc"
             x="437.36511"
             y="94.120163"
             style="fill:#008000;stroke:#008000"
             id="use189" />
          <use
             xlink:href="#mecb39e21fc"
             x="455.39417"
             y="99.29808"
             style="fill:#008000;stroke:#008000"
             id="use190" />
          <use
             xlink:href="#mecb39e21fc"
             x="455.44409"
             y="95.969421"
             style="fill:#008000;stroke:#008000"
             id="use191" />
          <use
             xlink:href="#mecb39e21fc"
             x="466.918"
             y="97.81868"
             style="fill:#008000;stroke:#008000"
             id="use192" />
          <use
             xlink:href="#mecb39e21fc"
             x="471.26419"
             y="75.627602"
             style="fill:#008000;stroke:#008000"
             id="use193" />
          <use
             xlink:href="#mecb39e21fc"
             x="471.57861"
             y="97.81868"
             style="fill:#008000;stroke:#008000"
             id="use194" />
          <use
             xlink:href="#mecb39e21fc"
             x="471.58032"
             y="95.969421"
             style="fill:#008000;stroke:#008000"
             id="use195" />
          <use
             xlink:href="#mecb39e21fc"
             x="471.58572"
             y="97.81868"
             style="fill:#008000;stroke:#008000"
             id="use196" />
          <use
             xlink:href="#mecb39e21fc"
             x="471.63647"
             y="99.29808"
             style="fill:#008000;stroke:#008000"
             id="use197" />
          <use
             xlink:href="#mecb39e21fc"
             x="471.68738"
             y="83.024628"
             style="fill:#008000;stroke:#008000"
             id="use198" />
          <use
             xlink:href="#mecb39e21fc"
             x="471.68942"
             y="75.627602"
             style="fill:#008000;stroke:#008000"
             id="use199" />
          <use
             xlink:href="#mecb39e21fc"
             x="473.21545"
             y="90.421654"
             style="fill:#008000;stroke:#008000"
             id="use200" />
          <use
             xlink:href="#mecb39e21fc"
             x="473.27444"
             y="95.969421"
             style="fill:#008000;stroke:#008000"
             id="use201" />
          <use
             xlink:href="#mecb39e21fc"
             x="473.27689"
             y="90.421654"
             style="fill:#008000;stroke:#008000"
             id="use202" />
          <use
             xlink:href="#mecb39e21fc"
             x="473.49734"
             y="99.29808"
             style="fill:#008000;stroke:#008000"
             id="use203" />
          <use
             xlink:href="#mecb39e21fc"
             x="473.49826"
             y="99.29808"
             style="fill:#008000;stroke:#008000"
             id="use204" />
          <use
             xlink:href="#mecb39e21fc"
             x="473.50128"
             y="99.29808"
             style="fill:#008000;stroke:#008000"
             id="use205" />
          <use
             xlink:href="#mecb39e21fc"
             x="473.51288"
             y="99.29808"
             style="fill:#008000;stroke:#008000"
             id="use206" />
          <use
             xlink:href="#mecb39e21fc"
             x="473.51337"
             y="99.29808"
             style="fill:#008000;stroke:#008000"
             id="use207" />
          <use
             xlink:href="#mecb39e21fc"
             x="473.51736"
             y="101.51719"
             style="fill:#008000;stroke:#008000"
             id="use208" />
          <use
             xlink:href="#mecb39e21fc"
             x="473.64328"
             y="99.29808"
             style="fill:#008000;stroke:#008000"
             id="use209" />
          <use
             xlink:href="#mecb39e21fc"
             x="507.49057"
             y="97.81868"
             style="fill:#008000;stroke:#008000"
             id="use210" />
          <use
             xlink:href="#mecb39e21fc"
             x="507.49506"
             y="97.81868"
             style="fill:#008000;stroke:#008000"
             id="use211" />
          <use
             xlink:href="#mecb39e21fc"
             x="507.49774"
             y="95.969421"
             style="fill:#008000;stroke:#008000"
             id="use212" />
        </g>
      </g>
    </g>
  </g>
  <defs
     id="defs242">
    <clipPath
       id="p915040bf89">
      <rect
         x="54.110001"
         y="26.16"
         width="571.97498"
         height="111.88"
         id="rect242" />
    </clipPath>
  </defs>
  <g
     id="patch_7"
     style="stroke-linecap:butt;stroke-linejoin:round"
     transform="matrix(0.68417323,0,0,0.22582344,262.28697,27.548264)">
    <path
       d="m 540.65,167.31062 h 166.5875 q 2,0 2,-2 V 19.529375 q 0,-2 -2,-2 H 540.65 q -2,0 -2,2 V 165.31062 q 0,2 2,2 z"
       style="opacity:0.8;fill:#ffffff;stroke:#cccccc;stroke-linecap:butt;stroke-linejoin:miter"
       id="path324-6" />
  </g>
  <g
     id="line2d_144"
     style="stroke-linecap:butt;stroke-linejoin:round"
     transform="translate(87.998012,14.280995)">
    <g
       id="g324"
       style="stroke-linecap:butt;stroke-linejoin:round">
      <path
         id="use324"
         d="m 552.65002,27.127813 c 0.39781,0 0.77937,-0.158049 1.06066,-0.43934 0.2813,-0.28129 0.43934,-0.662855 0.43934,-1.06066 0,-0.397805 -0.15804,-0.77937 -0.43934,-1.06066 -0.28129,-0.281291 -0.66285,-0.43934 -1.06066,-0.43934 -0.3978,0 -0.77937,0.158049 -1.06066,0.43934 -0.28129,0.28129 -0.43934,0.662855 -0.43934,1.06066 0,0.397805 0.15805,0.77937 0.43934,1.06066 0.28129,0.281291 0.66286,0.43934 1.06066,0.43934 z"
         style="fill:#bfbf00;stroke:#bfbf00;stroke-linecap:butt;stroke-linejoin:round" />
    </g>
  </g>
  <g
     id="text_19-1"
     style="stroke-linecap:butt;stroke-linejoin:round"
     transform="translate(77.498012,14.280995)">
    <!-- ClinVar -->
    <g
       transform="matrix(0.1,0,0,-0.1,570.65,29.127813)"
       id="g331"
       style="stroke-linecap:butt;stroke-linejoin:round">
      <defs
         id="defs324">
        <path
           id="path242"
           d="M 1831,0 50,4666 H 709 L 2188,738 3669,4666 h 656 L 2547,0 Z"
           transform="scale(0.015625)" />
      </defs>
      <path
         id="use325"
         d="M 64.40625,67.28125 V 56.890625 q -4.984375,4.640625 -10.625,6.921875 -5.640625,2.296875 -11.984375,2.296875 -12.5,0 -19.140625,-7.640625 -6.640625,-7.640625 -6.640625,-22.09375 0,-14.40625 6.640625,-22.046875 Q 29.296875,6.6875 41.796875,6.6875 q 6.34375,0 11.984375,2.296875 5.640625,2.296875 10.625,6.9375 V 5.609375 Q 59.234375,2.09375 53.4375,0.328125 q -5.78125,-1.75 -12.21875,-1.75 -16.5625,0 -26.09375,10.125 Q 5.609375,18.84375 5.609375,36.375 q 0,17.578125 9.515625,27.703125 9.53125,10.140625 26.09375,10.140625 6.53125,0 12.3125,-1.734375 5.796875,-1.734375 10.875,-5.203125 z"
         style="stroke-width:0.015625" />
      <path
         id="use326"
         d="m 79.246094,75.984375 h 8.984375 V 0 h -8.984375 z"
         style="stroke-width:0.015625" />
      <path
         id="use327"
         d="m 107.0293,54.6875 h 8.98437 V 0 h -8.98437 z m 0,21.296875 h 8.98437 V 64.59375 h -8.98437 z"
         style="stroke-width:0.015625" />
      <path
         id="use328"
         d="M 180.28124,33.015625 V 0 h -8.98437 v 32.71875 q 0,7.765625 -3.03125,11.609375 -3.03125,3.859375 -9.07813,3.859375 -7.28125,0 -11.48437,-4.640625 -4.20313,-4.625 -4.20313,-12.640625 V 0 h -9.03125 v 54.6875 h 9.03125 v -8.5 q 3.23438,4.9375 7.59375,7.375 4.375,2.4375 10.09375,2.4375 9.42188,0 14.25,-5.828125 4.84375,-5.828125 4.84375,-17.15625 z"
         style="stroke-width:0.015625" />
      <path
         id="use329"
         d="m 217.37891,0 -27.82813,72.90625 h 10.29688 l 23.10937,-61.375 23.14063,61.375 h 10.25 L 228.56641,0 Z"
         style="stroke-width:0.015625;stroke-linecap:butt;stroke-linejoin:round" />
      <path
         id="use330"
         d="m 283.70898,27.484375 q -10.89062,0 -15.09375,-2.484375 -4.20312,-2.484375 -4.20312,-8.5 0,-4.78125 3.15625,-7.59375 3.15625,-2.796875 8.5625,-2.796875 7.48437,0 12,5.296875 4.51562,5.296875 4.51562,14.078125 v 2 z m 17.92188,3.71875 V 0 h -8.98438 v 8.296875 q -3.07812,-4.96875 -7.67187,-7.34375 -4.59375,-2.375 -11.23438,-2.375 -8.39062,0 -13.35937,4.71875 -4.95313,4.71875 -4.95313,12.625 0,9.21875 6.17188,13.90625 6.1875,4.6875 18.4375,4.6875 h 12.60937 v 0.890625 q 0,6.203125 -4.07812,9.59375 -4.07813,3.390625 -11.45313,3.390625 -4.6875,0 -9.14062,-1.125 -4.4375,-1.125 -8.53125,-3.375 v 8.3125 q 4.92187,1.90625 9.5625,2.84375 Q 273.64648,56 278.03711,56 q 11.875,0 17.73437,-6.15625 5.85938,-6.140625 5.85938,-18.640625 z"
         style="stroke-width:0.015625" />
      <path
         id="use331"
         d="m 351.81641,46.296875 q -1.51563,0.875 -3.29688,1.28125 Q 346.73828,48 344.59766,48 336.97266,48 332.89453,43.046875 328.81641,38.09375 328.81641,28.8125 V 0 h -9.03125 v 54.6875 h 9.03125 v -8.5 q 2.84375,4.984375 7.375,7.390625 Q 340.73828,56 347.23828,56 q 0.92188,0 2.04688,-0.125 1.125,-0.109375 2.48437,-0.359375 z"
         style="stroke-width:0.015625" />
    </g>
  </g>
  <g
     id="line2d_145"
     style="stroke-linecap:butt;stroke-linejoin:round"
     transform="translate(87.998012,14.280995)">
    <g
       id="g332"
       style="stroke-linecap:butt;stroke-linejoin:round">
      <path
         id="use332"
         d="m 552.65002,41.805939 c 0.39781,0 0.77937,-0.158049 1.06066,-0.43934 0.2813,-0.28129 0.43934,-0.662855 0.43934,-1.06066 0,-0.397805 -0.15804,-0.77937 -0.43934,-1.06066 -0.28129,-0.281291 -0.66285,-0.43934 -1.06066,-0.43934 -0.3978,0 -0.77937,0.158049 -1.06066,0.43934 -0.28129,0.28129 -0.43934,0.662855 -0.43934,1.06066 0,0.397805 0.15805,0.77937 0.43934,1.06066 0.28129,0.281291 0.66286,0.43934 1.06066,0.43934 z"
         style="fill:#008000;stroke:#008000;stroke-linecap:butt;stroke-linejoin:round" />
    </g>
  </g>
  <g
     id="text_20-2"
     style="stroke-linecap:butt;stroke-linejoin:round"
     transform="translate(77.498012,14.280995)">
    <!-- GWAS Assotiations -->
    <g
       transform="matrix(0.1,0,0,-0.1,570.65,43.805938)"
       id="g349"
       style="stroke-linecap:butt;stroke-linejoin:round">
      <defs
         id="defs332">
        <path
           id="path243"
           d="M 3809,666 V 1919 H 2778 v 519 H 4434 V 434 Q 4069,175 3628,42 3188,-91 2688,-91 1594,-91 976,548 359,1188 359,2328 q 0,1144 617,1783 618,639 1712,639 456,0 867,-113 411,-112 758,-331 v -672 q -350,297 -744,447 -394,150 -828,150 -857,0 -1287,-478 -429,-478 -429,-1425 0,-944 429,-1422 430,-478 1287,-478 334,0 596,58 263,58 472,180 z"
           transform="scale(0.015625)" />
        <path
           id="path244"
           d="m 213,4666 h 637 l 981,-3944 978,3944 h 710 l 981,-3944 978,3944 h 641 L 4947,0 H 4153 L 3169,4050 2175,0 h -794 z"
           transform="scale(0.015625)" />
        <path
           id="path245"
           d="m 3425,4513 v -616 q -359,172 -678,256 -319,85 -616,85 -515,0 -795,-200 -280,-200 -280,-569 0,-310 186,-468 186,-157 705,-254 l 381,-78 q 706,-135 1042,-474 336,-339 336,-907 0,-679 -455,-1029 -454,-350 -1332,-350 -331,0 -705,75 -373,75 -773,222 v 650 q 384,-215 753,-325 369,-109 725,-109 540,0 834,212 294,213 294,607 0,343 -211,537 -211,194 -692,291 l -385,75 q -706,140 -1022,440 -315,300 -315,835 0,619 436,975 436,356 1201,356 329,0 669,-60 341,-59 697,-177 z"
           transform="scale(0.015625)" />
      </defs>
      <path
         id="use333"
         d="M 59.515625,10.40625 V 29.984375 H 43.40625 v 8.109375 h 25.875 V 6.78125 Q 63.578125,2.734375 56.6875,0.65625 49.8125,-1.421875 42,-1.421875 q -17.09375,0 -26.75,9.984375 -9.640625,10 -9.640625,27.8125 0,17.875 9.640625,27.859375 9.65625,9.984375 26.75,9.984375 7.125,0 13.546875,-1.765625 6.421875,-1.75 11.84375,-5.171875 v -10.5 q -5.46875,4.640625 -11.625,6.984375 -6.15625,2.34375 -12.9375,2.34375 -13.390625,0 -20.109375,-7.46875 -6.703125,-7.46875 -6.703125,-22.265625 0,-14.75 6.703125,-22.21875 6.71875,-7.46875 20.109375,-7.46875 5.21875,0 9.3125,0.90625 4.109375,0.90625 7.375,2.8125 z"
         style="stroke-width:0.015625;stroke-linecap:butt;stroke-linejoin:round" />
      <path
         id="use334"
         d="m 80.818359,72.90625 h 9.953125 l 15.328126,-61.625 15.28125,61.625 h 11.09375 l 15.32812,-61.625 15.28125,61.625 h 10.01563 L 154.78711,0 H 142.38086 L 127.00586,63.28125 111.47461,0 H 99.068359 Z"
         style="stroke-width:0.015625;stroke-linecap:butt;stroke-linejoin:round" />
      <path
         id="use335"
         d="M 205.05469,63.1875 191.66406,26.90625 h 26.8125 z m -5.57813,9.71875 h 11.1875 L 238.44531,0 h -10.25 l -6.64062,18.703125 H 188.69531 L 182.05469,0 h -10.40625 z"
         style="stroke-width:0.015625" />
      <path
         id="use336"
         d="m 292.79102,70.515625 v -9.625 q -5.60938,2.6875 -10.59375,4 -4.98438,1.328125 -9.625,1.328125 -8.04688,0 -12.42188,-3.125 -4.375,-3.125 -4.375,-8.890625 0,-4.84375 2.90625,-7.3125 2.90625,-2.453125 11.01563,-3.96875 l 5.95312,-1.21875 q 11.03125,-2.109375 16.28125,-7.40625 5.25,-5.296875 5.25,-14.171875 0,-10.609375 -7.10937,-16.078125 -7.09375,-5.46875 -20.8125,-5.46875 -5.17188,0 -11.01563,1.171875 -5.82812,1.171875 -12.07812,3.46875 V 13.375 q 6,-3.359375 11.76562,-5.078125 5.76563,-1.703125 11.32813,-1.703125 8.4375,0 13.03125,3.3125 4.59375,3.328125 4.59375,9.484375 0,5.359375 -3.29688,8.390625 -3.29687,3.03125 -10.8125,4.546875 L 266.75977,33.5 q -11.03125,2.1875 -15.96875,6.875 -4.92188,4.6875 -4.92188,13.046875 0,9.671875 6.8125,15.234375 6.8125,5.5625 18.76563,5.5625 5.14062,0 10.45312,-0.9375 5.32813,-0.921875 10.89063,-2.765625 z"
         style="stroke-width:0.015625;stroke-linecap:butt;stroke-linejoin:round" />
      <path
         id="use337"
         d=""
         style="stroke-width:0.015625" />
      <path
         id="use338"
         d="M 368.72656,63.1875 355.33594,26.90625 h 26.8125 z m -5.57812,9.71875 h 11.1875 L 402.11719,0 h -10.25 l -6.64063,18.703125 H 352.36719 L 345.72656,0 h -10.40625 z"
         style="stroke-width:0.015625" />
      <path
         id="use339"
         d="m 447.22852,53.078125 v -8.5 q -3.79688,1.953125 -7.90625,2.921875 -4.09375,0.984375 -8.5,0.984375 -6.6875,0 -10.03125,-2.046875 -3.34375,-2.046875 -3.34375,-6.15625 0,-3.125 2.39062,-4.90625 2.39063,-1.78125 9.625,-3.390625 l 3.07813,-0.6875 q 9.5625,-2.046875 13.59375,-5.78125 4.03125,-3.734375 4.03125,-10.421875 0,-7.625 -6.03125,-12.078125 -6.03125,-4.4375 -16.57813,-4.4375 -4.39062,0 -9.15625,0.859375 Q 413.63477,0.296875 408.36914,2 v 9.28125 q 4.98438,-2.59375 9.8125,-3.890625 4.82813,-1.28125 9.57813,-1.28125 6.34375,0 9.75,2.171875 3.42187,2.171875 3.42187,6.125 0,3.65625 -2.46875,5.609375 -2.45312,1.953125 -10.8125,3.765625 l -3.125,0.734375 q -8.34375,1.75 -12.0625,5.390625 -3.70312,3.640625 -3.70312,9.984375 0,7.71875 5.46875,11.90625 Q 419.69727,56 429.75977,56 q 4.96875,0 9.35937,-0.734375 4.40625,-0.71875 8.10938,-2.1875 z"
         style="stroke-width:0.015625" />
      <path
         id="use340"
         d="m 499.32812,53.078125 v -8.5 q -3.79687,1.953125 -7.90625,2.921875 -4.09375,0.984375 -8.5,0.984375 -6.6875,0 -10.03125,-2.046875 -3.34375,-2.046875 -3.34375,-6.15625 0,-3.125 2.39063,-4.90625 2.39062,-1.78125 9.625,-3.390625 l 3.07812,-0.6875 q 9.5625,-2.046875 13.59375,-5.78125 4.03125,-3.734375 4.03125,-10.421875 0,-7.625 -6.03125,-12.078125 -6.03125,-4.4375 -16.57812,-4.4375 -4.39063,0 -9.15625,0.859375 Q 465.73437,0.296875 460.46875,2 v 9.28125 q 4.98437,-2.59375 9.8125,-3.890625 4.82812,-1.28125 9.57812,-1.28125 6.34375,0 9.75,2.171875 3.42188,2.171875 3.42188,6.125 0,3.65625 -2.46875,5.609375 -2.45313,1.953125 -10.8125,3.765625 l -3.125,0.734375 q -8.34375,1.75 -12.0625,5.390625 -3.70313,3.640625 -3.70313,9.984375 0,7.71875 5.46875,11.90625 Q 471.79687,56 481.85937,56 q 4.96875,0 9.35938,-0.734375 4.40625,-0.71875 8.10937,-2.1875 z"
         style="stroke-width:0.015625" />
      <path
         id="use341"
         d="m 537.75586,48.390625 q -7.21875,0 -11.42188,-5.640625 -4.20312,-5.640625 -4.20312,-15.453125 0,-9.8125 4.17187,-15.453125 4.1875,-5.640625 11.45313,-5.640625 7.1875,0 11.375,5.65625 4.20312,5.671875 4.20312,15.4375 0,9.71875 -4.20312,15.40625 -4.1875,5.6875 -11.375,5.6875 z m 0,7.609375 q 11.71875,0 18.40625,-7.625 6.70312,-7.609375 6.70312,-21.078125 0,-13.421875 -6.70312,-21.078125 -6.6875,-7.640625 -18.40625,-7.640625 -11.76563,0 -18.4375,7.640625 -6.65625,7.65625 -6.65625,21.078125 0,13.46875 6.65625,21.078125 6.67187,7.625 18.4375,7.625 z"
         style="stroke-width:0.015625" />
      <path
         id="use342"
         d="M 586.64062,70.21875 V 54.6875 h 18.5 v -6.984375 h -18.5 v -29.6875 q 0,-6.6875 1.82813,-8.59375 1.82812,-1.90625 7.45312,-1.90625 h 9.21875 V 0 h -9.21875 q -10.40625,0 -14.35937,3.875 -3.95313,3.890625 -3.95313,14.140625 v 29.6875 h -6.59375 V 54.6875 h 6.59375 v 15.53125 z"
         style="stroke-width:0.015625" />
      <path
         id="use343"
         d="m 616.95898,54.6875 h 8.98438 V 0 h -8.98438 z m 0,21.296875 h 8.98438 V 64.59375 h -8.98438 z"
         style="stroke-width:0.015625" />
      <path
         id="use344"
         d="m 669.60156,27.484375 q -10.89062,0 -15.09375,-2.484375 -4.20312,-2.484375 -4.20312,-8.5 0,-4.78125 3.15625,-7.59375 3.15625,-2.796875 8.5625,-2.796875 7.48437,0 12,5.296875 4.51562,5.296875 4.51562,14.078125 v 2 z m 17.92188,3.71875 V 0 h -8.98438 v 8.296875 q -3.07812,-4.96875 -7.67187,-7.34375 -4.59375,-2.375 -11.23438,-2.375 -8.39062,0 -13.35937,4.71875 -4.95313,4.71875 -4.95313,12.625 0,9.21875 6.17188,13.90625 6.1875,4.6875 18.4375,4.6875 h 12.60937 v 0.890625 q 0,6.203125 -4.07812,9.59375 -4.07813,3.390625 -11.45313,3.390625 -4.6875,0 -9.14062,-1.125 -4.4375,-1.125 -8.53125,-3.375 v 8.3125 q 4.92187,1.90625 9.5625,2.84375 Q 659.53906,56 663.92969,56 q 11.875,0 17.73437,-6.15625 5.85938,-6.140625 5.85938,-18.640625 z"
         style="stroke-width:0.015625" />
      <path
         id="use345"
         d="M 714.91211,70.21875 V 54.6875 h 18.5 v -6.984375 h -18.5 v -29.6875 q 0,-6.6875 1.82812,-8.59375 1.82813,-1.90625 7.45313,-1.90625 h 9.21875 V 0 h -9.21875 q -10.40625,0 -14.35938,3.875 -3.95312,3.890625 -3.95312,14.140625 v 29.6875 h -6.59375 V 54.6875 h 6.59375 v 15.53125 z"
         style="stroke-width:0.015625" />
      <path
         id="use346"
         d="m 745.23047,54.6875 h 8.98437 V 0 h -8.98437 z m 0,21.296875 h 8.98437 V 64.59375 h -8.98437 z"
         style="stroke-width:0.015625" />
      <path
         id="use347"
         d="m 794.20117,48.390625 q -7.21875,0 -11.42187,-5.640625 -4.20313,-5.640625 -4.20313,-15.453125 0,-9.8125 4.17188,-15.453125 4.1875,-5.640625 11.45312,-5.640625 7.1875,0 11.375,5.65625 4.20313,5.671875 4.20313,15.4375 0,9.71875 -4.20313,15.40625 -4.1875,5.6875 -11.375,5.6875 z m 0,7.609375 q 11.71875,0 18.40625,-7.625 6.70313,-7.609375 6.70313,-21.078125 0,-13.421875 -6.70313,-21.078125 -6.6875,-7.640625 -18.40625,-7.640625 -11.76562,0 -18.4375,7.640625 -6.65625,7.65625 -6.65625,21.078125 0,13.46875 6.65625,21.078125 6.67188,7.625 18.4375,7.625 z"
         style="stroke-width:0.015625" />
      <path
         id="use348"
         d="M 879.66406,33.015625 V 0 h -8.98437 v 32.71875 q 0,7.765625 -3.03125,11.609375 -3.03125,3.859375 -9.07813,3.859375 -7.28125,0 -11.48437,-4.640625 -4.20313,-4.625 -4.20313,-12.640625 V 0 h -9.03125 v 54.6875 h 9.03125 v -8.5 q 3.23438,4.9375 7.59375,7.375 4.375,2.4375 10.09375,2.4375 9.42188,0 14.25,-5.828125 4.84375,-5.828125 4.84375,-17.15625 z"
         style="stroke-width:0.015625" />
      <path
         id="use349"
         d="m 932.43359,53.078125 v -8.5 q -3.79687,1.953125 -7.90625,2.921875 -4.09375,0.984375 -8.5,0.984375 -6.6875,0 -10.03125,-2.046875 -3.34375,-2.046875 -3.34375,-6.15625 0,-3.125 2.39063,-4.90625 2.39062,-1.78125 9.625,-3.390625 l 3.07812,-0.6875 q 9.5625,-2.046875 13.59375,-5.78125 4.03125,-3.734375 4.03125,-10.421875 0,-7.625 -6.03125,-12.078125 -6.03125,-4.4375 -16.57812,-4.4375 -4.39063,0 -9.15625,0.859375 Q 898.83984,0.296875 893.57422,2 v 9.28125 q 4.98437,-2.59375 9.8125,-3.890625 4.82812,-1.28125 9.57812,-1.28125 6.34375,0 9.75,2.171875 3.42188,2.171875 3.42188,6.125 0,3.65625 -2.46875,5.609375 -2.45313,1.953125 -10.8125,3.765625 l -3.125,0.734375 q -8.34375,1.75 -12.0625,5.390625 -3.70313,3.640625 -3.70313,9.984375 0,7.71875 5.46875,11.90625 Q 904.90234,56 914.96484,56 q 4.96875,0 9.35938,-0.734375 4.40625,-0.71875 8.10937,-2.1875 z"
         style="stroke-width:0.015625" />
    </g>
  </g>
</svg>
