<?xml version="1.0" encoding="UTF-8" standalone="no"?>
<svg
   width="750pt"
   height="180pt"
   viewBox="0 0 750 180"
   version="1.1"
   id="svg232"
   sodipodi:docname="result_lct_4.svg"
   inkscape:version="1.3.2 (091e20e, 2023-11-25)"
   xmlns:inkscape="http://www.inkscape.org/namespaces/inkscape"
   xmlns:sodipodi="http://sodipodi.sourceforge.net/DTD/sodipodi-0.dtd"
   xmlns="http://www.w3.org/2000/svg"
   xmlns:svg="http://www.w3.org/2000/svg"
   xmlns:rdf="http://www.w3.org/1999/02/22-rdf-syntax-ns#"
   xmlns:cc="http://creativecommons.org/ns#"
   xmlns:dc="http://purl.org/dc/elements/1.1/">
  <sodipodi:namedview
     id="namedview232"
     pagecolor="#ffffff"
     bordercolor="#000000"
     borderopacity="0.25"
     inkscape:showpageshadow="2"
     inkscape:pageopacity="0.0"
     inkscape:pagecheckerboard="0"
     inkscape:deskcolor="#d1d1d1"
     inkscape:document-units="pt"
     inkscape:zoom="0.68031161"
     inkscape:cx="495.36123"
     inkscape:cy="72.025817"
     inkscape:window-width="1312"
     inkscape:window-height="449"
     inkscape:window-x="62"
     inkscape:window-y="25"
     inkscape:window-maximized="0"
     inkscape:current-layer="svg232" />
  <metadata
     id="metadata1">
    <rdf:RDF>
      <cc:Work>
        <dc:type
           rdf:resource="http://purl.org/dc/dcmitype/StillImage" />
        <dc:date>2024-07-05T20:51:09.096844</dc:date>
        <dc:format>image/svg+xml</dc:format>
        <dc:creator>
          <cc:Agent>
            <dc:title>Matplotlib v3.8.0, https://matplotlib.org/</dc:title>
          </cc:Agent>
        </dc:creator>
      </cc:Work>
    </rdf:RDF>
  </metadata>
  <defs
     id="defs1">
    <style
       type="text/css"
       id="style1">*{stroke-linejoin: round; stroke-linecap: butt}</style>
    <path
       id="path242"
       d="M 1831,0 50,4666 H 709 L 2188,738 3669,4666 h 656 L 2547,0 Z"
       transform="scale(0.015625)" />
    <path
       id="path243"
       d="M 3809,666 V 1919 H 2778 v 519 H 4434 V 434 Q 4069,175 3628,42 3188,-91 2688,-91 1594,-91 976,548 359,1188 359,2328 q 0,1144 617,1783 618,639 1712,639 456,0 867,-113 411,-112 758,-331 v -672 q -350,297 -744,447 -394,150 -828,150 -857,0 -1287,-478 -429,-478 -429,-1425 0,-944 429,-1422 430,-478 1287,-478 334,0 596,58 263,58 472,180 z"
       transform="scale(0.015625)" />
    <path
       id="path244"
       d="m 213,4666 h 637 l 981,-3944 978,3944 h 710 l 981,-3944 978,3944 h 641 L 4947,0 H 4153 L 3169,4050 2175,0 h -794 z"
       transform="scale(0.015625)" />
    <path
       id="path245"
       d="m 3425,4513 v -616 q -359,172 -678,256 -319,85 -616,85 -515,0 -795,-200 -280,-200 -280,-569 0,-310 186,-468 186,-157 705,-254 l 381,-78 q 706,-135 1042,-474 336,-339 336,-907 0,-679 -455,-1029 -454,-350 -1332,-350 -331,0 -705,75 -373,75 -773,222 v 650 q 384,-215 753,-325 369,-109 725,-109 540,0 834,212 294,213 294,607 0,343 -211,537 -211,194 -692,291 l -385,75 q -706,140 -1022,440 -315,300 -315,835 0,619 436,975 436,356 1201,356 329,0 669,-60 341,-59 697,-177 z"
       transform="scale(0.015625)" />
    <path
       id="path246"
       d="M 628,4666 H 3309 V 4134 H 1259 V 2759 H 3109 V 2228 H 1259 V 0 H 628 Z"
       transform="scale(0.015625)" />
    <path
       id="path247"
       d="m 2906,2969 v 1894 h 575 V 0 H 2906 V 525 Q 2725,213 2448,61 2172,-91 1784,-91 1150,-91 751,415 353,922 353,1747 q 0,825 398,1331 399,506 1033,506 388,0 664,-152 277,-151 458,-463 z M 947,1747 q 0,-634 261,-995 261,-361 717,-361 456,0 718,361 263,361 263,995 0,634 -263,995 -262,361 -718,361 -456,0 -717,-361 -261,-361 -261,-995 z"
       transform="scale(0.015625)" />
    <path
       id="path248"
       d="m 1556,2509 q -284,-253 -417,-505 -133,-251 -133,-526 0,-456 331,-759 332,-303 832,-303 297,0 556,98 259,99 488,299 z m 441,350 1587,-1625 q 185,279 288,596 103,317 122,673 h 581 Q 4538,2091 4375,1687 4213,1284 3922,891 L 4794,0 H 4006 L 3559,459 Q 3234,181 2878,45 2522,-91 2113,-91 1359,-91 881,339 403,769 403,1441 q 0,400 209,751 210,352 629,661 -150,197 -229,392 -78,196 -78,383 0,506 347,814 347,308 922,308 260,0 517,-56 258,-56 524,-169 v -569 q -272,147 -519,223 -247,77 -459,77 -328,0 -533,-174 -205,-173 -205,-448 0,-159 92,-320 93,-161 377,-455 z"
       transform="scale(0.015625)" />
    <path
       id="path249"
       d="M -19,4666 H 3928 V 4134 H 2272 V 0 H 1638 V 4134 H -19 Z"
       transform="scale(0.015625)" />
    <path
       id="path250"
       d="m 628,4666 h 631 V 0 H 628 Z"
       transform="scale(0.015625)" />
    <path
       id="path251"
       d="m 2906,1791 q 0,625 -258,968 -257,344 -723,344 -462,0 -720,-344 -258,-343 -258,-968 0,-622 258,-966 258,-344 720,-344 466,0 723,344 258,344 258,966 z M 3481,434 q 0,-893 -397,-1329 -396,-436 -1215,-436 -303,0 -572,45 -269,45 -522,139 v 559 q 253,-137 500,-202 247,-66 503,-66 566,0 847,295 281,295 281,892 V 616 Q 2728,306 2450,153 2172,0 1784,0 1141,0 747,490 353,981 353,1791 q 0,812 394,1302 394,491 1037,491 388,0 666,-153 278,-153 456,-462 v 531 h 575 z"
       transform="scale(0.015625)" />
    <path
       id="path252"
       d="M 313,2009 H 1997 V 1497 H 313 Z"
       transform="scale(0.015625)" />
    <path
       id="path253"
       d="M 1259,4147 V 2394 h 794 q 441,0 681,228 241,228 241,650 0,419 -241,647 -240,228 -681,228 z m -631,519 h 1425 q 785,0 1186,-355 402,-355 402,-1039 0,-691 -402,-1044 -401,-353 -1186,-353 H 1259 V 0 H 628 Z"
       transform="scale(0.015625)" />
    <path
       id="path254"
       d="m 703,97 v 575 q 238,-113 481,-172 244,-59 479,-59 625,0 954,420 330,420 377,1277 -181,-269 -460,-413 -278,-144 -615,-144 -700,0 -1108,423 -408,424 -408,1159 0,718 425,1152 425,435 1131,435 810,0 1236,-621 427,-620 427,-1801 Q 3622,1225 3098,567 2575,-91 1691,-91 1453,-91 1209,-44 966,3 703,97 Z m 1256,1978 q 425,0 673,290 249,291 249,798 0,503 -249,795 -248,292 -673,292 -425,0 -673,-292 -248,-292 -248,-795 0,-507 248,-798 248,-290 673,-290 z"
       transform="scale(0.015625)" />
  </defs>
  <g
     id="figure_1">
    <g
       id="patch_1" />
    <g
       id="axes_1">
      <g
         id="patch_2" />
      <g
         id="line2d_24">
        <path
           clip-path="url(#p0268068d8f)"
           style="fill:none;stroke:#0000ff;stroke-width:2;stroke-linecap:square"
           id="path212" />
      </g>
      <g
         id="line2d_25">
        <path
           clip-path="url(#p0268068d8f)"
           style="fill:none;stroke:#0000ff;stroke-width:2;stroke-linecap:square"
           id="path213" />
      </g>
      <g
         id="line2d_28">
        <path
           d="m 304.60201,128.08063 h 10.68406"
           clip-path="url(#p0268068d8f)"
           style="fill:none;stroke:#0000ff;stroke-width:2;stroke-linecap:square"
           id="path216" />
      </g>
      <g
         id="text_21">
        <!-- LCT Region -->
      </g>
    </g>
  </g>
  <g
     id="text_23-0"
     style="stroke-linecap:butt;stroke-linejoin:round"
     transform="matrix(0.67940227,0,0,0.67940227,248.38352,70.743403)">
    <!-- Mathieson &amp; Terhorst 2022 -->
    <g
       transform="matrix(0.1,0,0,-0.1,570.65,87.840313)"
       id="g414"
       style="stroke-linecap:butt;stroke-linejoin:round">
      <defs
         id="defs389">
        <path
           id="path238"
           d="m 1556,2509 q -284,-253 -417,-505 -133,-251 -133,-526 0,-456 331,-759 332,-303 832,-303 297,0 556,98 259,99 488,299 z m 441,350 1587,-1625 q 185,279 288,596 103,317 122,673 h 581 Q 4538,2091 4375,1687 4213,1284 3922,891 L 4794,0 H 4006 L 3559,459 Q 3234,181 2878,45 2522,-91 2113,-91 1359,-91 881,339 403,769 403,1441 q 0,400 209,751 210,352 629,661 -150,197 -229,392 -78,196 -78,383 0,506 347,814 347,308 922,308 260,0 517,-56 258,-56 524,-169 v -569 q -272,147 -519,223 -247,77 -459,77 -328,0 -533,-174 -205,-173 -205,-448 0,-159 92,-320 93,-161 377,-455 z"
           transform="scale(0.015625)" />
        <path
           id="path239"
           d="M -19,4666 H 3928 V 4134 H 2272 V 0 H 1638 V 4134 H -19 Z"
           transform="scale(0.015625)" />
      </defs>
      <path
         id="use390"
         d="M 9.8125,72.90625 H 24.515625 L 43.109375,23.296875 61.8125,72.90625 H 76.515625 V 0 h -9.625 v 64.015625 l -18.796875,-50 H 38.1875 l -18.796875,50 V 0 H 9.8125 Z"
         style="stroke-width:0.015625" />
      <path
         id="use391"
         d="m 120.56055,27.484375 q -10.89063,0 -15.09375,-2.484375 -4.20313,-2.484375 -4.20313,-8.5 0,-4.78125 3.15625,-7.59375 3.15625,-2.796875 8.5625,-2.796875 7.48438,0 12,5.296875 4.51563,5.296875 4.51563,14.078125 v 2 z m 17.92187,3.71875 V 0 h -8.98437 v 8.296875 q -3.07813,-4.96875 -7.67188,-7.34375 -4.59375,-2.375 -11.23437,-2.375 -8.39063,0 -13.359378,4.71875 -4.953125,4.71875 -4.953125,12.625 0,9.21875 6.171875,13.90625 6.187498,4.6875 18.437498,4.6875 h 12.60938 v 0.890625 q 0,6.203125 -4.07813,9.59375 -4.07812,3.390625 -11.45312,3.390625 -4.6875,0 -9.14063,-1.125 -4.4375,-1.125 -8.531248,-3.375 v 8.3125 q 4.921878,1.90625 9.562498,2.84375 Q 110.49805,56 114.88867,56 q 11.875,0 17.73438,-6.15625 5.85937,-6.140625 5.85937,-18.640625 z"
         style="stroke-width:0.015625" />
      <path
         id="use392"
         d="M 165.87109,70.21875 V 54.6875 h 18.5 v -6.984375 h -18.5 v -29.6875 q 0,-6.6875 1.82813,-8.59375 1.82812,-1.90625 7.45312,-1.90625 h 9.21875 V 0 h -9.21875 q -10.40625,0 -14.35937,3.875 -3.95313,3.890625 -3.95313,14.140625 v 29.6875 h -6.59375 V 54.6875 h 6.59375 v 15.53125 z"
         style="stroke-width:0.015625" />
      <path
         id="use393"
         d="M 241.6582,33.015625 V 0 h -8.98437 v 32.71875 q 0,7.765625 -3.03125,11.609375 -3.03125,3.859375 -9.07813,3.859375 -7.28125,0 -11.48437,-4.640625 -4.20313,-4.625 -4.20313,-12.640625 V 0 h -9.03125 v 75.984375 h 9.03125 V 46.1875 q 3.23438,4.9375 7.59375,7.375 4.375,2.4375 10.09375,2.4375 9.42188,0 14.25,-5.828125 4.84375,-5.828125 4.84375,-17.15625 z"
         style="stroke-width:0.015625" />
      <path
         id="use394"
         d="m 259.56836,54.6875 h 8.98437 V 0 h -8.98437 z m 0,21.296875 h 8.98437 V 64.59375 h -8.98437 z"
         style="stroke-width:0.015625" />
      <path
         id="use395"
         d="m 334.13281,29.59375 v -4.390625 h -41.3125 q 0.59375,-9.28125 5.59375,-14.140625 5,-4.859375 13.9375,-4.859375 5.17188,0 10.03125,1.265625 4.85938,1.265625 9.65625,3.8125 v -8.5 q -4.84375,-2.046875 -9.92187,-3.125 -5.07813,-1.078125 -10.29688,-1.078125 -13.09375,0 -20.73437,7.609375 -7.64063,7.625 -7.64063,20.625 0,13.421875 7.25,21.296875 Q 297.94531,56 310.25781,56 q 11.03125,0 17.45313,-7.109375 6.42187,-7.09375 6.42187,-19.296875 z m -8.98437,2.640625 q -0.0937,7.359375 -4.125,11.75 -4.03125,4.40625 -10.67188,4.40625 -7.51562,0 -12.03125,-4.25 -4.51562,-4.25 -5.20312,-11.96875 z"
         style="stroke-width:0.015625" />
      <path
         id="use396"
         d="m 383.73437,53.078125 v -8.5 Q 379.9375,46.53125 375.82812,47.5 q -4.09375,0.984375 -8.5,0.984375 -6.6875,0 -10.03125,-2.046875 -3.34375,-2.046875 -3.34375,-6.15625 0,-3.125 2.39063,-4.90625 2.39062,-1.78125 9.625,-3.390625 l 3.07812,-0.6875 q 9.5625,-2.046875 13.59375,-5.78125 4.03125,-3.734375 4.03125,-10.421875 0,-7.625 -6.03125,-12.078125 -6.03125,-4.4375 -16.57812,-4.4375 -4.39063,0 -9.15625,0.859375 Q 350.14062,0.296875 344.875,2 v 9.28125 q 4.98437,-2.59375 9.8125,-3.890625 4.82812,-1.28125 9.57812,-1.28125 6.34375,0 9.75,2.171875 3.42188,2.171875 3.42188,6.125 0,3.65625 -2.46875,5.609375 -2.45313,1.953125 -10.8125,3.765625 l -3.125,0.734375 q -8.34375,1.75 -12.0625,5.390625 -3.70313,3.640625 -3.70313,9.984375 0,7.71875 5.46875,11.90625 Q 356.20312,56 366.26562,56 q 4.96875,0 9.35938,-0.734375 4.40625,-0.71875 8.10937,-2.1875 z"
         style="stroke-width:0.015625" />
      <path
         id="use397"
         d="m 422.16211,48.390625 q -7.21875,0 -11.42188,-5.640625 -4.20312,-5.640625 -4.20312,-15.453125 0,-9.8125 4.17187,-15.453125 4.1875,-5.640625 11.45313,-5.640625 7.1875,0 11.375,5.65625 4.20312,5.671875 4.20312,15.4375 0,9.71875 -4.20312,15.40625 -4.1875,5.6875 -11.375,5.6875 z m 0,7.609375 q 11.71875,0 18.40625,-7.625 6.70312,-7.609375 6.70312,-21.078125 0,-13.421875 -6.70312,-21.078125 -6.6875,-7.640625 -18.40625,-7.640625 -11.76563,0 -18.4375,7.640625 -6.65625,7.65625 -6.65625,21.078125 0,13.46875 6.65625,21.078125 6.67187,7.625 18.4375,7.625 z"
         style="stroke-width:0.015625" />
      <path
         id="use398"
         d="M 507.625,33.015625 V 0 h -8.98438 v 32.71875 q 0,7.765625 -3.03125,11.609375 -3.03125,3.859375 -9.07812,3.859375 -7.28125,0 -11.48438,-4.640625 -4.20312,-4.625 -4.20312,-12.640625 V 0 h -9.03125 v 54.6875 h 9.03125 v -8.5 q 3.23437,4.9375 7.59375,7.375 4.375,2.4375 10.09375,2.4375 9.42187,0 14.25,-5.828125 4.84375,-5.828125 4.84375,-17.15625 z"
         style="stroke-width:0.015625" />
      <path
         id="use399"
         d=""
         style="stroke-width:0.015625" />
      <path
         id="use400"
         d="M 572.21289,39.203125 Q 567.77539,35.25 565.69727,31.3125 q -2.07813,-3.921875 -2.07813,-8.21875 0,-7.125 5.17188,-11.859375 5.1875,-4.734375 13,-4.734375 4.64062,0 8.6875,1.53125 4.04687,1.546875 7.625,4.671875 z m 6.89063,5.46875 24.79687,-25.390625 q 2.89063,4.359375 4.5,9.3125 1.60938,4.953125 1.90625,10.515625 h 9.07813 q -0.57813,-6.4375 -3.125,-12.75 -2.53125,-6.296875 -7.07813,-12.4375 L 622.80664,0 h -12.3125 l -6.98437,7.171875 q -5.07813,-4.34375 -10.64063,-6.46875 -5.5625,-2.125 -11.95312,-2.125 -11.78125,0 -19.25,6.71875 -7.46875,6.71875 -7.46875,17.21875 0,6.25 3.26562,11.734375 3.28125,5.5 9.82813,10.328125 -2.34375,3.078125 -3.57813,6.125 -1.21875,3.0625 -1.21875,5.984375 0,7.90625 5.42188,12.71875 5.42187,4.8125 14.40625,4.8125 4.0625,0 8.07812,-0.875 4.03125,-0.875 8.1875,-2.640625 V 61.8125 q -4.25,2.296875 -8.10937,3.484375 Q 586.61914,66.5 583.30664,66.5 q -5.125,0 -8.32812,-2.71875 -3.20313,-2.703125 -3.20313,-7 0,-2.484375 1.4375,-5 1.45313,-2.515625 5.89063,-7.109375 z"
         style="stroke-width:0.015625;stroke-linecap:butt;stroke-linejoin:round" />
      <path
         id="use401"
         d=""
         style="stroke-width:0.015625" />
      <path
         id="use402"
         d="m 657.36914,72.90625 h 61.67188 v -8.3125 h -25.875 V 0 h -9.90625 v 64.59375 h -25.89063 z"
         style="stroke-width:0.015625;stroke-linecap:butt;stroke-linejoin:round" />
      <path
         id="use403"
         d="m 757.95312,29.59375 v -4.390625 h -41.3125 q 0.59375,-9.28125 5.59375,-14.140625 5,-4.859375 13.9375,-4.859375 5.17188,0 10.03125,1.265625 4.85938,1.265625 9.65625,3.8125 v -8.5 q -4.84375,-2.046875 -9.92187,-3.125 -5.07813,-1.078125 -10.29688,-1.078125 -13.09375,0 -20.73437,7.609375 -7.64063,7.625 -7.64063,20.625 0,13.421875 7.25,21.296875 Q 721.76562,56 734.07812,56 q 11.03125,0 17.45313,-7.109375 6.42187,-7.09375 6.42187,-19.296875 z m -8.98437,2.640625 q -0.0937,7.359375 -4.125,11.75 -4.03125,4.40625 -10.67188,4.40625 -7.51562,0 -12.03125,-4.25 -4.51562,-4.25 -5.20312,-11.96875 z"
         style="stroke-width:0.015625" />
      <path
         id="use404"
         d="m 804.38281,46.296875 q -1.51562,0.875 -3.29687,1.28125 Q 799.30469,48 797.16406,48 789.53906,48 785.46094,43.046875 781.38281,38.09375 781.38281,28.8125 V 0 h -9.03125 v 54.6875 h 9.03125 v -8.5 q 2.84375,4.984375 7.375,7.390625 Q 793.30469,56 799.80469,56 q 0.92187,0 2.04687,-0.125 1.125,-0.109375 2.48438,-0.359375 z"
         style="stroke-width:0.015625" />
      <path
         id="use405"
         d="M 857.52734,33.015625 V 0 h -8.98437 v 32.71875 q 0,7.765625 -3.03125,11.609375 -3.03125,3.859375 -9.07813,3.859375 -7.28125,0 -11.48437,-4.640625 -4.20313,-4.625 -4.20313,-12.640625 V 0 h -9.03125 v 75.984375 h 9.03125 V 46.1875 q 3.23438,4.9375 7.59375,7.375 4.375,2.4375 10.09375,2.4375 9.42188,0 14.25,-5.828125 4.84375,-5.828125 4.84375,-17.15625 z"
         style="stroke-width:0.015625" />
      <path
         id="use406"
         d="m 896.625,48.390625 q -7.21875,0 -11.42188,-5.640625 Q 881,37.109375 881,27.296875 q 0,-9.8125 4.17187,-15.453125 4.1875,-5.640625 11.45313,-5.640625 7.1875,0 11.375,5.65625 4.20312,5.671875 4.20312,15.4375 0,9.71875 -4.20312,15.40625 -4.1875,5.6875 -11.375,5.6875 z m 0,7.609375 q 11.71875,0 18.40625,-7.625 6.70312,-7.609375 6.70312,-21.078125 0,-13.421875 -6.70312,-21.078125 -6.6875,-7.640625 -18.40625,-7.640625 -11.76563,0 -18.4375,7.640625 -6.65625,7.65625 -6.65625,21.078125 0,13.46875 6.65625,21.078125 Q 884.85937,56 896.625,56 Z"
         style="stroke-width:0.015625" />
      <path
         id="use407"
         d="m 968.30664,46.296875 q -1.51562,0.875 -3.29687,1.28125 Q 963.22852,48 961.08789,48 953.46289,48 949.38477,43.046875 945.30664,38.09375 945.30664,28.8125 V 0 h -9.03125 v 54.6875 h 9.03125 v -8.5 q 2.84375,4.984375 7.375,7.390625 Q 957.22852,56 963.72852,56 q 0.92187,0 2.04687,-0.125 1.125,-0.109375 2.48438,-0.359375 z"
         style="stroke-width:0.015625" />
      <path
         id="use408"
         d="m 1012.5918,53.078125 v -8.5 q -3.7969,1.953125 -7.9063,2.921875 -4.0937,0.984375 -8.49995,0.984375 -6.6875,0 -10.03125,-2.046875 -3.34375,-2.046875 -3.34375,-6.15625 0,-3.125 2.39062,-4.90625 2.39063,-1.78125 9.625,-3.390625 l 3.07813,-0.6875 q 9.5625,-2.046875 13.5937,-5.78125 4.0313,-3.734375 4.0313,-10.421875 0,-7.625 -6.0313,-12.078125 -6.0312,-4.4375 -16.57808,-4.4375 -4.39062,0 -9.15625,0.859375 Q 978.99805,0.296875 973.73242,2 v 9.28125 q 4.98438,-2.59375 9.8125,-3.890625 4.82813,-1.28125 9.57813,-1.28125 6.34375,0 9.74995,2.171875 3.4219,2.171875 3.4219,6.125 0,3.65625 -2.4687,5.609375 -2.4532,1.953125 -10.81253,3.765625 l -3.125,0.734375 q -8.34375,1.75 -12.0625,5.390625 -3.70312,3.640625 -3.70312,9.984375 0,7.71875 5.46875,11.90625 Q 985.06055,56 995.12305,56 q 4.96875,0 9.35935,-0.734375 4.4063,-0.71875 8.1094,-2.1875 z"
         style="stroke-width:0.015625" />
      <path
         id="use409"
         d="M 1038.7227,70.21875 V 54.6875 h 18.5 v -6.984375 h -18.5 v -29.6875 q 0,-6.6875 1.8281,-8.59375 1.8282,-1.90625 7.4532,-1.90625 h 9.2187 V 0 h -9.2187 q -10.4063,0 -14.3594,3.875 -3.9531,3.890625 -3.9531,14.140625 v 29.6875 h -6.5938 V 54.6875 h 6.5938 v 15.53125 z"
         style="stroke-width:0.015625" />
      <path
         id="use410"
         d=""
         style="stroke-width:0.015625" />
      <path
         id="use411"
         d="m 1110.5938,8.296875 h 34.4218 V 0 h -46.2812 v 8.296875 q 5.6094,5.8125 15.2969,15.59375 9.7031,9.796875 12.1875,12.640625 4.7343,5.3125 6.6093,9 1.8907,3.6875 1.8907,7.25 0,5.8125 -4.0782,9.46875 -4.0781,3.671875 -10.625,3.671875 -4.6406,0 -9.7968,-1.609375 -5.1407,-1.609375 -11,-4.890625 v 9.96875 q 5.9531,2.390625 11.125,3.609375 5.1875,1.21875 9.4843,1.21875 11.3282,0 18.0625,-5.671875 6.7344,-5.65625 6.7344,-15.125 0,-4.5 -1.6875,-8.53125 -1.6719,-4.015625 -6.125,-9.484375 -1.2187,-1.421875 -7.7656,-8.1875 -6.5313,-6.765625 -18.4531,-18.921875 z"
         style="stroke-width:0.015625" />
      <path
         id="use412"
         d="m 1186.8105,66.40625 q -7.6093,0 -11.4531,-7.5 -3.8281,-7.484375 -3.8281,-22.53125 0,-14.984375 3.8281,-22.484375 3.8438,-7.5 11.4531,-7.5 7.6719,0 11.5,7.5 3.8438,7.5 3.8438,22.484375 0,15.046875 -3.8438,22.53125 -3.8281,7.5 -11.5,7.5 z m 0,7.8125 q 12.2657,0 18.7344,-9.703125 6.4688,-9.6875 6.4688,-28.140625 0,-18.40625 -6.4688,-28.109375 -6.4687,-9.6875 -18.7344,-9.6875 -12.25,0 -18.7187,9.6875 -6.4688,9.703125 -6.4688,28.109375 0,18.453125 6.4688,28.140625 6.4687,9.703125 18.7187,9.703125 z"
         style="stroke-width:0.015625" />
      <path
         id="use413"
         d="m 1237.8398,8.296875 h 34.4219 V 0 h -46.2812 v 8.296875 q 5.6093,5.8125 15.2968,15.59375 9.7032,9.796875 12.1875,12.640625 4.7344,5.3125 6.6094,9 1.8906,3.6875 1.8906,7.25 0,5.8125 -4.0781,9.46875 -4.0781,3.671875 -10.625,3.671875 -4.6406,0 -9.7969,-1.609375 -5.1406,-1.609375 -11,-4.890625 v 9.96875 q 5.9532,2.390625 11.125,3.609375 5.1875,1.21875 9.4844,1.21875 11.3281,0 18.0625,-5.671875 6.7344,-5.65625 6.7344,-15.125 0,-4.5 -1.6875,-8.53125 -1.6719,-4.015625 -6.125,-9.484375 -1.2188,-1.421875 -7.7656,-8.1875 -6.5313,-6.765625 -18.4532,-18.921875 z"
         style="stroke-width:0.015625" />
      <path
         id="use414"
         d="m 1301.4629,8.296875 h 34.4219 V 0 h -46.2813 v 8.296875 q 5.6094,5.8125 15.2969,15.59375 9.7031,9.796875 12.1875,12.640625 4.7344,5.3125 6.6094,9 1.8906,3.6875 1.8906,7.25 0,5.8125 -4.0781,9.46875 -4.0782,3.671875 -10.625,3.671875 -4.6407,0 -9.7969,-1.609375 -5.1406,-1.609375 -11,-4.890625 v 9.96875 q 5.9531,2.390625 11.125,3.609375 5.1875,1.21875 9.4844,1.21875 11.3281,0 18.0625,-5.671875 6.7343,-5.65625 6.7343,-15.125 0,-4.5 -1.6875,-8.53125 -1.6718,-4.015625 -6.125,-9.484375 -1.2187,-1.421875 -7.7656,-8.1875 -6.5312,-6.765625 -18.4531,-18.921875 z"
         style="stroke-width:0.015625" />
    </g>
  </g>
  <defs
     id="defs232">
    <clipPath
       id="p0268068d8f">
      <rect
         x="54.110001"
         y="26.16"
         width="568.80249"
         height="111.88"
         id="rect232" />
    </clipPath>
  </defs>
</svg>
