<?xml version="1.0" encoding="UTF-8" standalone="no"?>
<svg
   width="750pt"
   height="180pt"
   viewBox="0 0 750 180"
   version="1.1"
   id="svg232"
   sodipodi:docname="result_lct_prediction.svg"
   inkscape:version="1.3.2 (091e20e, 2023-11-25)"
   xmlns:inkscape="http://www.inkscape.org/namespaces/inkscape"
   xmlns:sodipodi="http://sodipodi.sourceforge.net/DTD/sodipodi-0.dtd"
   xmlns="http://www.w3.org/2000/svg"
   xmlns:svg="http://www.w3.org/2000/svg"
   xmlns:rdf="http://www.w3.org/1999/02/22-rdf-syntax-ns#"
   xmlns:cc="http://creativecommons.org/ns#"
   xmlns:dc="http://purl.org/dc/elements/1.1/">
  <sodipodi:namedview
     id="namedview232"
     pagecolor="#ffffff"
     bordercolor="#000000"
     borderopacity="0.25"
     inkscape:showpageshadow="2"
     inkscape:pageopacity="0.0"
     inkscape:pagecheckerboard="0"
     inkscape:deskcolor="#d1d1d1"
     inkscape:document-units="pt"
     inkscape:zoom="0.68031161"
     inkscape:cx="542.3985"
     inkscape:cy="54.386842"
     inkscape:window-width="1312"
     inkscape:window-height="449"
     inkscape:window-x="62"
     inkscape:window-y="25"
     inkscape:window-maximized="0"
     inkscape:current-layer="axes_1" />
  <metadata
     id="metadata1">
    <rdf:RDF>
      <cc:Work>
        <dc:type
           rdf:resource="http://purl.org/dc/dcmitype/StillImage" />
        <dc:date>2024-07-05T20:51:09.096844</dc:date>
        <dc:format>image/svg+xml</dc:format>
        <dc:creator>
          <cc:Agent>
            <dc:title>Matplotlib v3.8.0, https://matplotlib.org/</dc:title>
          </cc:Agent>
        </dc:creator>
      </cc:Work>
    </rdf:RDF>
  </metadata>
  <defs
     id="defs1">
    <style
       type="text/css"
       id="style1">*{stroke-linejoin: round; stroke-linecap: butt}</style>
    <path
       id="path242"
       d="M 1831,0 50,4666 H 709 L 2188,738 3669,4666 h 656 L 2547,0 Z"
       transform="scale(0.015625)" />
    <path
       id="path243"
       d="M 3809,666 V 1919 H 2778 v 519 H 4434 V 434 Q 4069,175 3628,42 3188,-91 2688,-91 1594,-91 976,548 359,1188 359,2328 q 0,1144 617,1783 618,639 1712,639 456,0 867,-113 411,-112 758,-331 v -672 q -350,297 -744,447 -394,150 -828,150 -857,0 -1287,-478 -429,-478 -429,-1425 0,-944 429,-1422 430,-478 1287,-478 334,0 596,58 263,58 472,180 z"
       transform="scale(0.015625)" />
    <path
       id="path244"
       d="m 213,4666 h 637 l 981,-3944 978,3944 h 710 l 981,-3944 978,3944 h 641 L 4947,0 H 4153 L 3169,4050 2175,0 h -794 z"
       transform="scale(0.015625)" />
    <path
       id="path245"
       d="m 3425,4513 v -616 q -359,172 -678,256 -319,85 -616,85 -515,0 -795,-200 -280,-200 -280,-569 0,-310 186,-468 186,-157 705,-254 l 381,-78 q 706,-135 1042,-474 336,-339 336,-907 0,-679 -455,-1029 -454,-350 -1332,-350 -331,0 -705,75 -373,75 -773,222 v 650 q 384,-215 753,-325 369,-109 725,-109 540,0 834,212 294,213 294,607 0,343 -211,537 -211,194 -692,291 l -385,75 q -706,140 -1022,440 -315,300 -315,835 0,619 436,975 436,356 1201,356 329,0 669,-60 341,-59 697,-177 z"
       transform="scale(0.015625)" />
    <path
       id="path246"
       d="M 628,4666 H 3309 V 4134 H 1259 V 2759 H 3109 V 2228 H 1259 V 0 H 628 Z"
       transform="scale(0.015625)" />
    <path
       id="path247"
       d="m 2906,2969 v 1894 h 575 V 0 H 2906 V 525 Q 2725,213 2448,61 2172,-91 1784,-91 1150,-91 751,415 353,922 353,1747 q 0,825 398,1331 399,506 1033,506 388,0 664,-152 277,-151 458,-463 z M 947,1747 q 0,-634 261,-995 261,-361 717,-361 456,0 718,361 263,361 263,995 0,634 -263,995 -262,361 -718,361 -456,0 -717,-361 -261,-361 -261,-995 z"
       transform="scale(0.015625)" />
    <path
       id="path248"
       d="m 1556,2509 q -284,-253 -417,-505 -133,-251 -133,-526 0,-456 331,-759 332,-303 832,-303 297,0 556,98 259,99 488,299 z m 441,350 1587,-1625 q 185,279 288,596 103,317 122,673 h 581 Q 4538,2091 4375,1687 4213,1284 3922,891 L 4794,0 H 4006 L 3559,459 Q 3234,181 2878,45 2522,-91 2113,-91 1359,-91 881,339 403,769 403,1441 q 0,400 209,751 210,352 629,661 -150,197 -229,392 -78,196 -78,383 0,506 347,814 347,308 922,308 260,0 517,-56 258,-56 524,-169 v -569 q -272,147 -519,223 -247,77 -459,77 -328,0 -533,-174 -205,-173 -205,-448 0,-159 92,-320 93,-161 377,-455 z"
       transform="scale(0.015625)" />
    <path
       id="path249"
       d="M -19,4666 H 3928 V 4134 H 2272 V 0 H 1638 V 4134 H -19 Z"
       transform="scale(0.015625)" />
    <path
       id="path250"
       d="m 628,4666 h 631 V 0 H 628 Z"
       transform="scale(0.015625)" />
    <path
       id="path251"
       d="m 2906,1791 q 0,625 -258,968 -257,344 -723,344 -462,0 -720,-344 -258,-343 -258,-968 0,-622 258,-966 258,-344 720,-344 466,0 723,344 258,344 258,966 z M 3481,434 q 0,-893 -397,-1329 -396,-436 -1215,-436 -303,0 -572,45 -269,45 -522,139 v 559 q 253,-137 500,-202 247,-66 503,-66 566,0 847,295 281,295 281,892 V 616 Q 2728,306 2450,153 2172,0 1784,0 1141,0 747,490 353,981 353,1791 q 0,812 394,1302 394,491 1037,491 388,0 666,-153 278,-153 456,-462 v 531 h 575 z"
       transform="scale(0.015625)" />
    <path
       id="path252"
       d="M 313,2009 H 1997 V 1497 H 313 Z"
       transform="scale(0.015625)" />
    <path
       id="path253"
       d="M 1259,4147 V 2394 h 794 q 441,0 681,228 241,228 241,650 0,419 -241,647 -240,228 -681,228 z m -631,519 h 1425 q 785,0 1186,-355 402,-355 402,-1039 0,-691 -402,-1044 -401,-353 -1186,-353 H 1259 V 0 H 628 Z"
       transform="scale(0.015625)" />
    <path
       id="path254"
       d="m 703,97 v 575 q 238,-113 481,-172 244,-59 479,-59 625,0 954,420 330,420 377,1277 -181,-269 -460,-413 -278,-144 -615,-144 -700,0 -1108,423 -408,424 -408,1159 0,718 425,1152 425,435 1131,435 810,0 1236,-621 427,-620 427,-1801 Q 3622,1225 3098,567 2575,-91 1691,-91 1453,-91 1209,-44 966,3 703,97 Z m 1256,1978 q 425,0 673,290 249,291 249,798 0,503 -249,795 -248,292 -673,292 -425,0 -673,-292 -248,-292 -248,-795 0,-507 248,-798 248,-290 673,-290 z"
       transform="scale(0.015625)" />
  </defs>
  <g
     id="figure_1">
    <g
       id="patch_1" />
    <g
       id="axes_1">
      <g
         id="patch_2" />
      <g
         id="line2d_19">
        <path
           d="m 54.096755,105.74186 h 20.958178 l 0.341607,-5.957001 0.18161,-23.82802 0.02162,18.61564 0.368096,11.169381 H 90.2045 l 0.08288,-2.23387 h 0.06606 l 0.192662,-7.073947 0.183479,6.329317 h 0.07175 l 0.09271,0.74463 0.05834,2.23387 0.151302,-2.9785 0.03567,0.74463 0.161296,-1.48925 0.03738,-0.74463 0.03567,-2.978503 0.07533,-22.338768 0.119367,20.477204 0.231015,9.307817 h 22.289019 l 0.0874,-7.446253 0.0788,1.489252 0.18673,5.957001 h 2.02315 l 0.23052,-5.957001 h 0.35908 l 0.10791,-3.350816 0.0656,1.861564 h 0.34705 l 0.0844,2.978503 0.0636,-1.489251 h 0.12375 l 0.16739,1.489251 0.10783,0.74463 0.1032,-2.233881 0.0114,1.489251 h 0.0475 l 0.0177,0.74463 0.0447,-0.74463 h 0.10735 l 0.13147,-2.978503 h 0.17917 l 0.067,-14.892512 0.0235,11.169384 0.48413,11.169381 h 3.15897 l 0.0344,-1.86156 0.10003,-0.37231 0.2168,-2.23388 h 0.0348 l 0.12677,-17.871015 0.0195,11.169384 0.11571,6.701631 0.349,4.46775 h 0.74334 l 0.0557,-3.72312 0.10028,1.48925 0.0443,-0.74463 0.19063,-2.978501 0.12392,1.489251 h 0.10994 l 0.009,0.74463 0.0543,-2.233881 0.14927,-3.350816 0.0994,7.818567 0.22314,1.48925 h 8.57981 l 0.20469,-11.169381 0.0534,1.861564 0.15008,9.307817 h 14.54225 l 0.4192,-22.338765 0.31057,22.338765 h 0.84297 l 0.20176,-9.307817 0.007,1.861564 0.12433,3.723133 0.19087,0.74462 0.0986,-0.74462 0.13554,0.74462 0.12464,-0.74462 h 0.0794 l 0.0985,-3.723133 0.0328,-14.892512 0.0152,11.169384 0.28139,11.169381 h 0.91781 l 0.17421,-3.72312 h 0.0334 l 0.065,-2.233881 0.0367,1.489251 0.14837,4.46775 h 15.22099 l 0.0995,-5.957001 h 0.0455 l 0.0379,1.489251 h 0.18877 l 0.006,0.74463 0.0918,-0.74463 h 0.0311 l 0.0536,-1.489251 0.35087,-3.350816 0.1162,3.350816 0.19217,2.978501 0.0408,-0.74462 0.0913,-0.74463 0.0706,0.74463 0.30951,-2.233881 0.11408,1.489251 0.11303,0.74463 0.0878,3.72312 0.002,-2.9785 0.2454,2.9785 h 4.27609 l 0.10068,-4.46775 0.0507,0.74463 0.0125,3.72312 0.0518,-3.72312 0.13099,0.74462 0.1205,-2.978501 0.0201,1.489251 h 0.0373 l 0.1266,-4.840067 0.11116,4.840067 0.22338,1.48925 0.089,-1.48925 0.29919,-4.840067 0.0451,1.861564 0.27693,2.978503 H 177.04 l 0.16617,-2.978503 0.22159,4.467753 h 0.0154 l 0.14236,2.9785 h 0.81932 l 0.33771,-7.446253 0.10921,1.489252 0.12635,-1.489252 h 0.12636 l 0.14626,3.723133 h 0.0579 l 0.13099,0.74462 0.2484,-1.48925 0.12611,-1.489251 h 0.076 l 0.0497,-1.489252 0.20989,2.978503 0.12343,-2.978503 h 0.14081 l 0.1405,-1.861564 h 0.16902 l 0.10701,3.350816 0.25239,-3.350816 0.17933,1.861564 0.0991,4.467753 0.0875,-0.74462 h 0.0735 l 0.0639,-2.233881 0.13537,-3.350816 h 0.13123 l 0.11385,1.861564 0.17429,2.978503 0.18267,-4.840067 0.16544,1.861564 0.054,2.978503 0.0494,-4.840067 0.12863,1.861564 0.0944,-3.723128 h 0.0925 l 0.17544,1.861564 h 0.0622 l 0.11612,-5.584692 0.006,-7.446256 0.3967,13.030948 0.16292,-5.584692 h 0.005 l 0.13326,3.723128 0.22338,1.861564 0.0815,3.350816 0.35851,-5.21238 h 0.0226 l 0.10181,3.723128 0.0633,-3.723128 0.20729,-3.723128 0.0303,-7.446256 0.0952,11.169384 0.0783,-11.169384 0.0212,11.169384 0.0834,-3.723128 0.11588,3.723128 0.0968,-18.61564 0.0215,7.446256 0.0444,11.169384 0.0634,-3.723128 0.35681,5.584692 0.12635,-1.861564 0.0569,1.861564 0.22289,-5.584692 h 0.14911 l 0.13147,3.723128 h 0.25702 l 0.24654,1.861564 0.19875,4.840067 h 0.0779 l 0.14195,-2.978503 0.0948,1.489252 h 0.10994 l 0.0434,2.978501 0.0144,-0.74462 0.12172,0.74462 0.0624,-0.74462 0.12984,-0.74463 0.0577,0.74463 0.041,-0.74463 0.2207,-2.978503 h 0.19697 l 0.11311,3.723133 0.11059,1.48925 0.19867,-1.48925 0.0878,-0.74463 0.0754,-2.978503 0.0922,3.723133 0.0597,-0.74463 0.14951,0.74463 0.0917,-2.233881 0.23996,5.957001 h 1.58224 l 0.0128,-3.72312 h 0.16503 l 0.11864,-0.74463 0.0878,-1.489251 0.15886,1.489251 0.15357,-2.978503 0.026,1.489252 h 0.0379 l 0.0492,-1.489252 0.05,1.489252 h 0.11165 l 0.0333,1.489251 0.39841,-10.424759 0.27513,11.914009 0.038,-0.74462 0.007,0.74462 0.13172,2.9785 h 2.35216 l 0.12839,-4.46775 0.0469,-1.489251 0.064,2.233881 h 0.11181 l 0.10417,-2.233881 0.1431,3.723131 0.0175,-0.74463 0.11872,-1.48925 0.0678,-1.489251 0.0176,1.489251 h 0.0878 l 0.19705,-2.978503 0.0571,2.978503 0.037,-1.489251 0.0863,2.233881 0.0529,-0.74463 h 0.0782 l 0.0393,-1.489251 0.0704,1.489251 h 0.0229 l 0.1071,-1.489251 0.11221,2.233881 0.039,-0.74463 0.13651,-1.489251 h 0.007 l 0.12505,2.978501 0.14976,-1.48925 0.006,1.48925 0.28123,-1.48925 0.069,0.74463 0.2796,-0.74463 0.0552,0.74463 0.0318,-0.74463 0.12034,-2.978503 0.0386,1.489252 h 0.0841 l 0.16569,-3.350816 0.1114,3.350816 h 0.0626 l 0.0595,2.978501 0.0778,-1.48925 h 0.0299 l 0.1582,-6.701631 h 0.0554 l 0.14553,1.861564 0.21883,-5.584692 h 0.26352 l 0.16243,10.424759 0.24451,-4.840067 0.43253,9.307817 h 1.10047 l 1.15889,-4.46775 0.0157,4.46775 0.0861,-3.72312 0.34136,-5.584697 0.0681,3.350816 0.0523,-1.489252 0.0861,1.489252 0.009,-1.489252 0.0373,-1.861564 0.29545,-1.861564 h 0.1873 l 0.0207,-3.723128 h 0.11531 l 0.0268,-7.446256 0.32414,11.169384 0.0647,-3.723128 0.17251,7.446256 0.0499,-1.861564 h 0.0374 l 0.19299,-1.861564 0.12538,3.723128 0.18226,-3.723128 0.11693,1.861564 h 0.12684 l 0.18649,-5.584692 0.13358,3.723128 0.12717,-3.723128 h 0.12506 l 0.202,3.723128 h 0.2697 l 0.38654,3.723128 0.12424,-7.446256 0.21866,5.584692 0.23297,-5.584692 0.11295,3.723128 0.0675,-3.723128 0.30634,5.584692 h 0.0961 l 0.13164,-1.861564 0.18315,-3.723128 0.0189,3.723128 0.0824,-3.723128 h 0.59553 l 0.11693,3.723128 0.12376,-3.723128 h 0.0929 l 0.0649,3.723128 0.0445,-3.723128 h 0.0414 l 0.15479,3.723128 0.1253,-3.723128 h 0.11888 l 0.12611,3.723128 0.15407,-3.723128 0.11547,3.723128 0.16275,-11.169384 0.0253,7.446256 0.44269,8.935508 h 0.10409 l 0.0337,1.489251 0.33762,-4.840067 0.13197,-5.584692 0.0361,-7.446256 0.054,7.446256 0.12969,3.723128 0.43724,3.723128 0.0974,-1.861564 h 0.23029 l 0.11108,3.350816 0.0975,-3.350816 0.15456,1.861564 0.23824,-1.861564 h 0.0857 l 0.15154,1.861564 0.19096,-1.861564 h 0.17161 l 0.12335,4.840067 0.20266,-6.701631 h 0.0815 l 0.0579,-3.723128 0.0818,3.723128 0.0323,-3.723128 0.0311,3.723128 0.12026,1.861564 h 0.18348 l 0.0987,1.861564 0.24069,2.978503 h 0.12725 l 0.16966,-4.840067 0.56816,-5.584692 0.0254,3.723128 0.59627,6.701631 0.72465,-4.840067 0.13115,3.350816 0.20891,1.489251 0.0761,-1.489251 0.069,1.489251 0.0705,-1.489251 0.1062,1.489251 0.35705,-1.489251 0.14504,-3.350816 h 0.30911 l 0.0953,-1.861564 h 0.15187 l 0.12067,1.861564 h 0.0546 l 0.14025,-1.861564 0.1448,1.861564 0.10734,-1.861564 0.0231,1.861564 0.2029,-1.861564 h 0.66468 l 0.0932,-11.169384 0.16089,11.169384 0.2766,5.21238 h 0.20567 l 0.12822,-1.489252 h 0.0391 l 0.12367,2.978503 0.25824,-2.978503 0.2302,-3.723128 h 0.26734 l 0.34883,3.723128 0.1041,-1.861564 0.2757,3.350816 0.29318,-1.489252 0.16341,-3.723128 h 0.25035 l 0.0145,-3.723128 0.0949,3.723128 h 0.27968 l 0.1145,-3.723128 0.14122,3.723128 h 0.0206 l 0.0424,-3.723128 0.0617,3.723128 h 0.0401 l 0.0675,5.21238 0.15155,-3.350816 0.10823,1.861564 0.12474,-3.723128 h 0.0212 l 0.012,-3.723128 0.0726,5.584692 0.11376,3.350816 h 0.1973 l 0.33364,-8.935508 0.0977,3.723128 h 0.56799 l 0.17316,5.21238 0.17015,-8.935508 h 0.12847 l 0.13002,7.446256 0.22402,-3.723128 0.0414,-3.723128 0.016,3.723128 0.11262,5.21238 0.22346,-8.935508 0.0438,5.584692 0.047,-1.861564 0.13651,-3.723128 h 0.19981 l 0.018,-7.446256 0.17438,11.169384 0.0781,1.861564 h 0.13269 l 0.0273,1.861564 0.0504,-1.861564 0.0799,-1.861564 h 0.17592 l 0.0787,-3.723128 0.36931,3.723128 h 0.0185 l 0.0488,3.723128 0.13903,-3.723128 0.0819,1.861564 0.13301,-5.584692 0.23915,7.446256 0.166,-3.723128 0.14009,3.723128 0.0373,-1.861564 h 0.12497 l 0.11051,-1.861564 0.20234,3.723128 0.19908,2.978503 0.0657,-2.978503 h 0.29513 l 0.0617,1.489252 0.0483,-1.489252 0.0964,-3.723128 0.0709,1.861564 0.12985,-1.861564 0.11457,3.723128 h 0.038 l 0.10653,-7.446256 0.20704,5.584692 h 0.0277 l 0.0275,3.350816 0.005,-1.489252 0.23101,-3.723128 h 0.0413 l 0.0526,1.861564 0.2042,-1.861564 0.0739,-3.723128 0.15886,5.584692 h 0.13878 l 0.19795,-5.584692 0.43253,7.446256 h 0.0211 l 0.0615,-3.723128 0.0471,1.861564 h 0.0389 l 0.0188,-1.861564 h 0.23207 l 0.2662,7.446261 0.0736,0.74462 0.19461,-2.978501 0.17585,-1.489252 0.0285,-1.861564 0.3481,1.861564 0.0503,-1.861564 0.15179,1.861564 0.186,-3.723128 0.0622,1.861564 h 0.37874 l 0.21647,4.840067 0.10271,-2.978503 0.0303,1.489252 0.0671,2.233881 h 0.11474 l 0.32535,-7.446261 0.18324,1.861564 h 0.0467 l 0.004,1.861564 0.0893,-1.861564 h 0.0834 l 0.0941,-5.584692 0.0722,3.723128 0.18373,-3.723128 0.13578,5.584692 h 0.12716 l 0.0254,1.861564 h 0.14821 l 0.22273,-3.723128 h 0.11685 l 0.12984,1.861564 h 0.097 l 0.13537,-1.861564 h 0.30707 l 0.0699,-3.723128 0.0101,3.723128 0.0648,3.723128 h 0.16244 l 0.0978,-1.861564 h 0.0642 l 0.0522,3.350816 0.42384,-8.935508 0.1058,7.446256 h 0.009 l 0.19079,-3.723128 h 0.2007 l 0.0748,1.861564 h 0.76155 l 0.20452,1.861564 0.19518,-7.446256 0.20055,5.584692 0.18209,-5.584692 0.17308,3.723128 h 0.16991 l 0.098,-3.723128 0.22216,7.446256 0.023,-1.861564 0.20631,-5.584692 0.11295,3.723128 0.16146,-3.723128 0.19486,-14.892512 0.1543,18.61564 0.17942,-11.169384 0.41498,7.446256 0.0657,-7.446256 0.13692,11.169384 0.18917,6.701631 0.0184,-1.489251 0.0977,1.489251 0.12441,-2.978503 0.14342,1.489252 0.0298,1.489251 0.26587,-6.701631 h 0.17194 l 0.1522,1.861564 h 0.15341 l 0.14042,-5.584692 0.25628,3.723128 0.12855,-3.723128 h 0.11311 l 0.0475,3.723128 h 0.89066 l 0.11758,1.861564 0.13034,-1.861564 h 0.10132 l 0.0591,1.861564 0.22459,1.861564 0.0391,-1.861564 h 0.54329 l 0.13659,-5.584692 h 0.39556 l 0.23012,7.446256 0.12205,-3.723128 0.0677,1.861564 0.0587,-1.861564 0.15739,3.723128 0.0361,-1.861564 h 0.005 l 0.0371,-13.030948 0.22841,11.169384 0.29326,-3.723128 0.0696,3.723128 0.078,-3.723128 0.0293,3.723128 h 0.0435 l 0.12351,-3.723128 0.14545,3.723128 h 0.4067 l 0.14073,1.861564 0.38801,-1.861564 h 0.13643 l 0.14699,-3.723128 0.0478,3.723128 h 0.1279 l 0.2918,5.21238 0.0955,-3.350816 0.17624,3.350816 0.29952,-16.381764 0.0528,7.446256 0.26538,3.723128 h 0.0492 l 0.17024,3.723128 0.0124,1.489252 0.0358,-1.489252 0.16837,1.489252 0.19518,-3.350816 0.32731,1.861564 0.0233,-1.861564 h 0.16796 l 0.36379,4.840067 0.0126,-1.489251 0.12595,2.233881 0.0374,-0.74463 0.0611,-2.978503 0.21274,-1.861564 h 0.20021 l 0.14464,-1.861564 0.13123,5.21238 h 0.15155 l 0.0115,-1.489252 0.35062,-1.861564 0.27669,4.840067 h 0.0603 l 0.16251,-4.840067 0.0891,1.861564 0.19291,-1.861564 h 0.1266 l 0.14602,-1.861564 0.11953,-11.169384 0.12318,11.169384 h 0.41238 l 0.29408,3.723128 0.14553,-7.446256 0.38491,3.723128 0.0173,1.861564 0.005,-1.861564 0.28513,1.861564 0.0219,-1.861564 0.11132,1.861564 0.15269,4.840067 0.0547,-2.978503 h 0.56637 l 0.11896,-1.861564 0.17405,-1.861564 0.20827,3.723128 0.29813,-1.861564 0.14618,1.861564 h 0.0831 l 0.0931,-1.861564 h 0.11035 l 0.0956,-1.861564 0.10417,1.861564 h 0.24507 l 0.0461,-1.861564 h 0.25328 l 0.12733,-3.723128 0.12197,5.584692 h 0.3902 l 0.13026,-1.861564 h 0.36127 l 0.0877,1.861564 h 0.23248 l 0.0574,1.861564 h 0.2662 l 0.27774,-7.446256 0.0969,3.723128 h 0.19103 l 0.32877,5.21238 h 0.0482 l 0.0187,-1.489252 0.0535,1.489252 0.0562,1.489251 0.0196,-1.489251 0.13887,-3.350816 h 0.11539 l 0.007,1.861564 0.1045,-1.861564 0.0589,1.861564 0.0449,-1.861564 h 0.18608 l 0.0574,-1.861564 h 0.27571 l 0.10344,-3.723128 0.37972,5.584692 h 0.19892 l 0.0996,-1.861564 0.10702,1.861564 h 0.64551 l 0.23946,4.840067 0.0181,-1.489251 0.0131,-1.489252 0.17771,-1.861564 0.15772,1.861564 0.15618,-1.861564 h 0.16723 l 0.0383,-1.861564 0.0701,1.861564 h 0.16788 l 0.0369,-1.861564 0.0185,1.861564 h 0.076 l 0.0294,1.861564 0.0475,-1.861564 h 0.34307 l 0.16406,-1.861564 0.17819,1.861564 h 0.111 l 0.0634,1.861564 h 0.15512 l 0.0461,-1.861564 0.19477,-1.861564 0.0464,1.861564 0.21037,-1.861564 0.0548,-3.723128 0.1808,3.723128 h 0.33153 l 0.0354,-3.723128 0.0215,3.723128 0.15894,1.861564 h 0.30252 l 0.0673,-1.861564 0.21461,6.701631 0.11311,-1.489251 0.12221,-8.935508 0.0509,3.723128 0.14944,3.723128 0.0337,-1.861564 0.17145,-1.861564 h 0.3139 l 0.004,1.861564 0.0722,-1.861564 h 0.21736 l 0.1396,1.861564 0.14537,-1.861564 0.11701,-11.169384 0.20152,11.169384 0.24743,3.723128 0.12148,-1.861564 h 0.15325 l 0.22809,1.861564 0.16406,-1.861564 h 0.12197 l 0.0921,-1.861564 h 0.20046 l 0.12392,-3.723128 0.14497,3.723128 0.0965,-3.723128 0.008,3.723128 h 0.23362 l 0.82744,3.723128 0.11506,-1.861564 0.36908,-13.030948 0.0865,13.030948 0.0413,-1.861564 0.12571,-3.723128 0.22979,8.935508 0.29204,-3.350816 h 0.33787 l 0.0844,-1.861564 0.14122,1.861564 h 0.0932 l 0.19932,1.861564 0.0211,-1.861564 0.24588,-1.861564 0.12221,-3.723128 0.0535,3.723128 h 0.16268 l 0.0944,-3.723128 0.0215,3.723128 0.34258,3.723128 h 0.16544 l 0.0701,1.489252 0.22557,-1.489252 0.0583,-1.861564 0.18966,1.861564 0.0571,-1.861564 0.0906,-1.861564 0.29464,1.861564 h 0.16122 l 0.20469,1.861564 0.39312,7.446253 0.12172,-7.446253 0.23476,3.723133 0.16966,-3.723133 h 0.33031 l 0.42782,2.978503 0.1726,-10.424759 0.101,3.723128 0.22248,5.21238 0.18819,-5.21238 0.0764,1.861564 0.0713,4.840067 0.15155,-10.424759 0.50802,7.446256 0.0953,-1.861564 0.35047,-1.861564 0.41043,-3.723128 0.083,-7.446256 0.41571,13.030948 0.34356,-1.861564 0.0607,1.861564 0.0148,-5.584692 0.41027,8.935508 0.17308,-3.350816 0.51525,-1.861564 0.13091,-3.723128 0.34193,7.446256 0.0824,-14.892512 0.0767,7.446256 h 0.0207 l 0.30797,10.424759 0.15544,-4.840067 0.16991,-1.861564 0.0926,-11.169384 0.14538,11.169384 0.30674,-3.723128 h 0.0602 l 0.29814,5.584692 0.0223,-5.584692 0.15252,7.446256 0.28042,-3.723128 0.11181,-3.723128 h 0.0205 l 0.0996,3.723128 0.2393,3.723128 h 0.16032 l 0.14156,-3.723128 h 0.1448 l 0.10303,1.861564 0.17568,-5.584692 0.14082,5.584692 0.42124,-1.861564 h 0.0625 l 0.082,-3.723128 0.23354,5.584692 h 0.16219 l 0.0472,-5.584692 0.0967,5.584692 0.0781,-1.861564 h 0.10864 l 0.13042,6.701631 0.36233,-10.424759 0.14935,5.584692 h 0.12985 l 0.19266,4.840067 0.0855,-4.840067 0.23338,-1.861564 0.11579,-11.169384 0.17893,13.030948 0.26587,-13.030948 0.0776,14.892512 0.12278,-14.892512 0.26596,11.169384 h 0.16097 l 0.0402,-3.723128 0.0215,3.723128 0.0917,-3.723128 0.0203,3.723128 0.15699,-3.723128 0.12595,-7.446256 0.10246,11.169384 0.17893,-3.723128 0.47081,8.935508 h 0.0149 l 0.0863,3.723131 0.0148,-0.74463 0.30407,-6.329317 h 0.0378 l 0.28075,-13.030948 0.22281,13.030948 0.022,-1.861564 0.18356,-3.723128 0.19355,3.723128 0.18373,-3.723128 h 0.11741 l 0.0674,-7.446256 0.054,7.446256 0.20591,3.723128 0.0357,-3.723128 0.15756,3.723128 h 0.38979 l 0.1101,-3.723128 0.14294,5.584692 0.0263,-1.861564 0.10791,-11.169384 0.007,7.446256 h 0.11782 l 0.13984,5.584692 0.0441,-1.861564 0.13586,-11.169384 0.0856,7.446256 0.41937,7.446256 0.17999,-1.861564 0.0571,-1.861564 0.0767,3.723128 0.0694,-1.861564 0.14293,-1.861564 0.0336,1.861564 0.21582,-1.861564 0.11848,-11.169384 0.0184,7.446256 h 0.13708 l 0.0778,3.723128 0.24718,-11.169384 h 0.1288 l 0.076,14.892512 0.0319,-7.446256 0.0245,-7.446256 0.0489,7.446256 h 0.0784 l 0.0625,3.723128 0.0425,-3.723128 h 0.0506 l 0.0418,-7.446256 0.0681,7.446256 0.2116,5.584692 0.0791,-5.584692 0.15788,3.723128 h 0.13408 l 0.36728,-11.169384 0.16284,11.169384 h 0.0352 l 0.23678,-3.723128 0.0559,-7.446256 0.0227,7.446256 h 0.0334 l 0.0563,-7.446256 0.006,7.446256 0.0564,3.723128 0.0403,-3.723128 h 0.26912 l 0.17146,5.584692 h 0.23418 l 0.1331,-5.584692 h 0.0732 l 0.11108,3.723128 0.0904,-11.169384 0.0366,7.446256 0.11254,3.723128 0.0377,-3.723128 h 0.22013 l 0.26888,5.584692 h 0.0395 l 0.28042,-13.030948 0.29172,7.446256 0.0766,-7.446256 h 0.15862 l 0.11684,7.446256 h 0.25889 l 0.12449,-7.446256 0.14244,7.446256 0.19908,-7.446256 h 0.10231 l 0.0266,7.446256 0.14943,-7.446256 0.13781,11.169384 0.16601,1.861564 0.0211,1.861564 0.21541,-14.892512 0.16089,11.169384 0.0618,-3.723128 0.0155,3.723128 h 0.11221 l 0.0797,-3.723128 0.10547,3.723128 0.0483,-3.723128 h 0.16389 l 0.11051,3.723128 0.0235,-3.723128 0.0448,7.446256 0.0912,-3.723128 0.028,1.861564 0.24378,-1.861564 0.16414,1.861564 0.25783,3.350816 0.22264,-5.21238 h 0.19656 l 0.31675,6.701631 0.326,-6.701631 0.0446,1.861564 h 0.14431 l 0.0332,1.861564 0.0184,-1.861564 0.18657,-5.584692 0.19144,3.723128 h 0.10182 l 0.2571,1.861564 h 0.27156 l 0.22419,-1.861564 h 0.13383 l 0.11807,3.723128 0.19144,-3.723128 h 0.24995 l 0.0868,1.861564 h 0.26368 l 0.15927,3.350816 h 0.1565 l 0.2094,-5.21238 h 0.14732 l 0.24914,-3.723128 0.0408,-7.446256 0.0654,11.169384 h 0.53118 l 0.047,-11.169384 0.26579,11.169384 0.0951,-3.723128 0.13416,-7.446256 0.12262,11.169384 h 0.15886 l 0.09,-3.723128 0.59562,5.584692 0.0546,-1.861564 h 0.23492 l 0.27952,-3.723128 0.21046,5.584692 0.0965,-1.861564 h 0.12563 l 0.07,1.861564 0.13765,-5.584692 0.22013,5.584692 0.0293,-1.861564 h 0.18965 l 0.12197,-3.723128 0.30025,3.723128 h 0.3139 l 0.22012,-3.723128 0.37037,3.723128 h 0.25426 l 0.18364,-3.723128 0.43587,10.424759 0.25043,-10.424759 0.0627,7.446256 0.12473,-7.446256 0.18909,5.584692 0.0407,-5.584692 0.044,5.584692 0.0453,1.861564 0.0318,-3.723128 0.11766,-11.169384 0.0567,7.446256 0.21046,3.723128 0.12749,-3.723128 0.0826,-7.446256 0.10718,11.169384 0.0553,-3.723128 h 0.11611 l 0.0599,3.723128 0.30569,-3.723128 0.0632,3.723128 0.0931,-3.723128 0.12692,-7.446256 0.12782,7.446256 h 0.1344 l 0.19965,5.584692 h 0.0363 l 0.10182,-13.030948 0.0862,13.030948 0.0463,-1.861564 h 0.0766 l 0.10548,-3.723128 h 0.10262 l 0.004,3.723128 0.24418,-3.723128 0.24385,10.424759 0.33389,4.46775 h 1.40348 l 0.43343,-9.307817 h 0.17633 l 0.16137,4.840067 0.17251,-1.489251 h 0.20713 l 0.0721,5.957001 0.0379,-3.72312 0.15155,3.72312 h 1.41599 l 0.0177,-4.46775 0.0857,4.46775 0.12823,-3.72312 0.15268,-2.233881 0.0434,5.957001 0.0271,-2.9785 h 0.0519 l 0.11401,-0.74462 0.005,0.74462 0.0861,-1.48925 h 0.0519 l 0.13359,-4.840067 0.0433,1.861564 h 0.10929 l 0.14058,-1.861564 0.10994,3.350816 0.0925,-5.21238 0.0861,1.861564 0.17731,1.861564 0.14984,-3.723128 0.11132,1.861564 h 0.22524 l 0.1869,1.861564 0.0196,-1.861564 0.10702,1.861564 0.0817,-1.861564 0.1192,-5.584692 0.0154,3.723128 h 0.0808 l 0.0942,3.723128 h 0.29627 l 0.16194,-7.446256 0.0236,3.723128 0.0575,3.723128 0.0779,-1.861564 0.0466,1.861564 0.0522,-1.861564 h 0.0782 l 0.10604,-1.861564 h 0.1409 l 0.14659,3.723128 0.0328,-1.861564 h 0.0101 l 0.0615,1.861564 0.32722,-1.861564 0.12327,-1.861564 0.0605,1.861564 0.0897,-1.861564 h 0.18088 l 0.0976,-3.723128 0.0165,3.723128 0.32097,3.723128 h 0.30219 l 0.10239,1.489252 0.1114,-1.489252 0.30472,-1.861564 0.0761,1.861564 0.19299,-1.861564 h 0.1075 l 0.18519,1.861564 0.0877,-3.723128 0.10011,1.861564 0.0561,3.350816 0.31358,-1.489252 0.0349,-1.861564 0.18275,4.840067 0.21078,-10.424759 0.14642,5.584692 h 0.0519 l 0.0474,1.861564 h 0.15455 l 0.0478,2.978503 0.059,-1.489251 0.0972,-1.489252 0.17633,2.978503 h 0.10051 l 0.093,-4.840067 0.0236,1.861564 h 0.17543 l 0.0815,-1.861564 0.15984,1.861564 0.11619,-3.723128 0.0231,-11.169384 0.0716,11.169384 0.11238,1.861564 0.15431,1.861564 0.0843,-1.861564 0.15333,-1.861564 0.13749,-3.723128 0.12815,3.723128 h 0.1053 l 0.11693,3.723128 0.0349,-1.861564 h 0.0852 l 0.13725,-5.584692 h 0.0881 l 0.18063,7.446256 h 0.0874 l 0.16032,-3.723128 0.0725,3.723128 0.1899,-3.723128 h 0.17023 l 0.0888,-11.169384 0.14878,11.169384 h 0.0128 l 0.16657,3.723128 0.21168,2.978503 0.24889,-4.840067 h 0.1288 l 0.11303,1.861564 0.12026,-1.861564 h 0.0884 l 0.0119,1.861564 0.0658,-1.861564 0.0588,3.350816 0.19306,-3.350816 0.43319,-1.861564 0.25084,7.446261 0.20818,-5.584697 0.14334,3.350816 h 0.0143 l 0.15902,-5.21238 0.0128,-11.169384 0.0736,13.030948 0.14886,3.350816 h 0.2025 l 0.0262,-1.489252 0.17893,2.978503 0.26596,-1.489251 0.10661,1.489251 0.15837,1.48925 0.0137,-0.74462 0.0176,1.48925 0.0553,-0.74463 0.0548,0.74463 0.0844,2.23387 h 0.26214 l 0.37972,-5.957001 0.11806,1.489251 0.11937,0.74463 0.20802,-2.233881 0.0276,1.489251 0.0625,-1.489251 0.20087,-3.350816 0.0946,1.861564 0.0896,-1.861564 0.007,1.861564 0.0954,1.489252 0.0775,-1.489252 0.0606,-14.892512 0.0726,11.169384 h 0.0723 l 0.0609,-48.400665 0.0223,29.785025 0.12619,26.061901 0.064,-0.74463 h 0.0262 l 0.004,-1.489251 0.0933,2.978501 0.0858,2.9785 h 4.09351 l 0.0392,-3.72312 h 0.28367 l 0.20079,-5.584697 h 0.0375 l 0.0526,-1.861564 0.13538,3.723128 0.0725,-1.861564 0.0286,1.861564 h 0.0185 l 0.084,1.489252 0.007,-1.489252 0.22338,3.723133 0.19266,-3.723133 0.10458,2.978503 0.0381,-1.489251 h 0.0592 l 0.0889,-1.489252 0.0698,1.489252 0.0158,-1.489252 0.0577,-1.861564 0.0186,1.861564 0.0127,1.489252 0.093,-1.489252 0.0622,-1.861564 0.0292,1.861564 h 0.0423 l 0.1613,2.978503 0.11262,-6.701631 0.0566,-18.61564 0.0515,18.61564 0.14196,7.446261 0.2562,-2.233881 0.0652,1.489251 0.10255,-2.978503 0.0529,1.489252 h 0.0155 l 0.11246,1.489251 0.12091,-1.489251 0.0301,1.489251 0.12586,-4.840067 0.0532,1.861564 h 0.0999 l 0.12002,-1.861564 h 0.17267 l 0.027,1.861564 0.10311,-1.861564 0.3733,5.584697 0.0757,-0.74463 h 0.0477 l 0.27181,-1.489251 0.13862,2.233881 h 0.0291 l 0.35851,-5.584697 0.19957,3.350816 0.11108,-8.935508 0.0399,-7.446256 0.041,11.169384 h 0.002 0.0206 l 0.15439,1.861564 0.19331,3.350816 0.29171,-3.350816 h 0.45212 l 0.39215,1.861564 0.13651,-1.861564 h 0.27888 l 0.13302,3.350816 h 0.0483 l 0.26588,-3.350816 0.14399,4.840067 0.1929,-2.978503 0.12067,-1.861564 0.0834,1.861564 h 0.41084 l 0.009,1.489252 0.0909,-1.489252 0.13709,-1.861564 0.17974,1.861564 0.10458,1.489252 h 0.0496 l 0.26125,-1.489252 0.13391,1.489252 0.0502,-1.489252 0.048,2.978503 0.26774,-2.978503 0.04,1.489252 0.0599,-1.489252 h 0.14667 l 0.12887,2.978503 0.14846,-2.978503 0.23971,2.978503 h 0.13489 l 0.14658,-2.978503 0.0236,1.489252 0.14675,2.233881 h 0.0639 l 0.16186,-2.233881 0.0251,1.489251 0.0571,-1.489251 h 0.16609 l 0.0176,1.489251 0.0809,-1.489251 0.001,-1.489252 0.031,2.978503 0.0626,-1.489251 h 0.111 l 0.0783,1.489251 0.12262,-4.840067 0.11083,1.861564 h 0.0436 l 0.0901,1.489252 0.16682,-1.489252 h 0.0696 l 0.19892,-1.861564 h 0.11197 l 0.24971,3.350816 h 0.11749 l 0.11612,-1.489252 0.0992,1.489252 0.15609,1.489251 0.15512,-2.978503 0.36298,-1.861564 0.052,1.861564 0.0551,-1.861564 h 0.0731 l 0.0223,-1.861564 0.0651,3.723128 h 0.0139 l 0.24588,-7.446256 0.0677,-14.892512 0.17974,14.892512 h 0.0769 l 0.3724,7.446256 0.13294,-3.723128 0.22354,-18.61564 0.18307,20.477204 0.30659,1.861564 0.42497,1.489252 0.12733,-1.489252 h 0.11157 l 0.1418,-1.861564 h 0.19176 l 0.0661,1.861564 0.12952,-1.861564 0.29033,1.861564 0.13229,-3.723128 h 0.38061 l 0.2003,1.861564 0.067,-1.861564 0.003,-3.723128 0.21874,7.446256 0.16471,-1.861564 h 0.30358 l 0.10328,-1.861564 0.13781,1.861564 0.173,-5.584692 0.10254,7.446256 0.28709,-3.723128 0.0435,-3.723128 0.23215,5.584692 0.11969,-5.584692 h 0.0505 l 0.22175,10.424759 0.16544,-4.840067 h 0.15106 l 0.0262,-5.584692 0.13627,5.584692 h 0.17275 l 0.0345,-1.861564 0.21769,3.723128 0.13163,-3.723128 0.14391,1.861564 h 0.20623 l 0.1314,-1.861564 h 0.0627 l 0.1912,5.21238 h 0.0594 l 0.25865,-8.935508 0.1912,7.446256 h 0.0416 l 0.2003,1.489252 0.10344,-3.350816 0.0401,1.861564 h 0.007 l 0.0514,1.489252 0.22833,-5.21238 0.15943,6.701631 0.2445,-4.840067 0.1873,-5.584692 0.14179,7.446256 h 0.0772 l 0.0969,1.489252 0.15073,3.723131 0.23305,-1.48925 0.10279,3.72312 0.0389,-2.9785 h 0.0185 l 0.12172,-1.48925 h 0.18275 l 0.15252,-2.978503 0.0692,2.978503 0.0271,-1.489251 h 0.0659 l 0.22646,-1.489252 0.0596,1.489252 0.0453,-1.489252 0.18096,4.467753 0.0665,-0.74462 0.1188,-0.74463 0.0205,0.74463 0.0887,-0.74463 0.30845,-4.840067 0.12351,1.861564 0.0585,-1.861564 0.12538,3.350816 h 0.0683 l 0.15025,-3.350816 0.12595,4.840067 h 0.30276 l 0.15268,-6.701631 0.0407,1.861564 0.0638,1.861564 h 0.10011 l 0.11019,-1.861564 h 0.0257 l 0.0305,-1.861564 0.0125,1.861564 h 0.1721 l 0.0502,-5.584692 0.005,3.723128 0.18949,6.701631 0.13912,-2.978503 0.15731,-3.723128 0.0425,1.861564 0.14074,3.350816 h 0.0475 l 0.0424,2.233881 h 0.11213 l 0.11523,3.72312 h 1.0171 l 0.25994,-9.307817 h 0.0371 l 0.25726,9.307817 h 2.87351 l 0.15545,-5.957001 h 0.0591 l 0.0405,2.233881 0.0529,-0.74463 0.19388,-10.424759 0.0128,3.723128 0.24913,6.701631 0.12197,-4.840067 0.012,1.861564 0.12944,4.467753 0.12083,-0.74462 0.18421,0.74462 h 0.0284 l 0.0192,0.74463 0.24841,-3.723131 0.0375,1.489251 0.11043,-2.978503 0.0927,2.978503 0.26994,-2.978503 0.0712,2.978503 0.0338,-2.978503 h 0.27075 l 0.0761,-1.861564 h 0.0471 l 0.13846,5.584697 0.11994,-2.233881 0.052,1.489251 0.057,-1.489251 h 0.0912 l 0.14269,2.978501 0.0196,-0.74462 h 0.0693 l 0.0826,-2.233881 0.0302,1.489251 0.15268,2.23388 h 0.012 l 0.0986,-0.74463 0.0494,0.74463 0.0144,-0.74463 0.10945,1.11694 0.0895,-0.37231 h 0.0122 l 0.15333,-2.23388 h 0.0117 l 0.0535,-1.489251 0.14196,-8.935508 0.0153,3.723128 0.24394,7.446261 h 0.0821 l 0.1062,-2.233881 0.13237,2.233881 0.033,-0.74463 0.0942,-1.489251 h 0.0723 l 0.0435,-5.21238 0.077,3.723128 h 0.0222 l 0.1921,5.584693 0.001,-0.37231 0.23637,-2.23388 0.21891,-2.978503 0.0423,-29.785025 0.0632,29.785025 0.11213,2.978503 h 0.0362 l 0.0711,-1.489251 0.0622,1.489251 0.0427,-1.489251 h 0.0505 l 0.11839,1.489251 0.11295,-1.489251 0.0574,1.489251 0.0116,-1.489251 h 0.14781 l 0.10555,-1.489252 h 0.19445 l 0.11807,-1.861564 0.1717,3.350816 0.0377,-1.489252 0.16894,1.489252 0.14244,-1.489252 h 0.0172 l 0.0546,-1.861564 0.13302,1.861564 0.006,-1.861564 0.0186,1.861564 0.15585,1.489252 h 0.0766 l 0.11392,2.233881 h 0.14545 l 0.12814,0.74462 0.19315,-4.467753 h 0.15179 l 0.0584,-3.723128 0.0593,1.861564 h 0.0237 l 0.0822,3.350816 0.13725,-3.350816 0.0978,-13.030948 0.0836,7.446256 0.0505,-7.446256 0.21176,14.892512 h 0.14301 l 0.0961,1.489252 0.14724,-3.350816 0.0148,1.861564 0.0662,2.978503 0.0351,-1.489251 h 0.24466 l 0.12928,-1.489252 h 0.001 l 0.18933,2.978503 0.18113,-4.840067 0.16544,4.840067 h 0.0749 l 0.0655,0.74463 0.002,-0.74463 h 0.1431 l 0.11539,0.74463 h 0.0854 l 0.0781,3.72312 0.0254,-4.46775 h 0.0944 l 0.0578,-1.489251 0.0331,5.957001 h 0.79763 l 0.082,-5.957001 0.0347,2.233881 h 0.11035 l 0.0108,0.74462 0.0768,-0.74462 0.12538,-2.233881 0.0176,-1.489252 0.0822,1.489252 h 0.0597 l 0.32844,5.957001 h 4.18281 l 0.15439,-7.446253 h 0.004 l 0.0483,2.978503 h 0.14967 l 0.10304,0.74463 0.13399,-3.723133 0.12944,-1.861564 h 0.0857 l 0.1084,3.350816 0.0754,1.489251 0.13944,1.48925 0.10539,-0.74462 0.092,3.72312 h 1.48701 l 0.0575,-5.957001 0.0156,5.957001 h 1.16093 l 0.11221,-2.9785 0.1496,-0.74462 h 0.0278 l 0.29992,-7.446261 0.0273,1.861564 h 0.0276 l 0.0548,4.840067 0.0906,-1.489251 0.0496,-1.489252 0.2055,4.467753 0.0951,-0.74462 0.0752,-2.233881 0.0117,1.489251 0.26742,-10.424759 0.0951,5.584692 h 0.0962 l 0.0616,1.861564 0.0339,-1.861564 h 0.0255 l 0.21639,6.329317 0.0756,-1.48925 0.10531,-2.978503 h 0.0396 l 0.1639,-1.861564 0.0889,1.861564 0.1075,-1.861564 h 0.11831 l 0.10734,3.350816 0.19998,-3.350816 0.10766,1.861564 h 0.0817 l 0.10133,-1.861564 0.12294,3.350816 h 0.0462 l 0.051,-3.350816 0.0134,1.861564 0.33242,7.446253 h 5.12711 l 0.0259,-3.72312 0.0908,1.48925 0.0425,-2.23388 0.0123,4.46775 h 0.004 8.39138 l 0.36201,-5.957001 h 0.0679 l 0.17104,5.957001 h 5.68762 l 0.2051,-3.72312 h 0.0432 l 0.0811,0.74462 0.0316,-0.74462 0.004,3.72312 h 6.85399 l 0.14293,-4.46775 h 0.12409 l 0.12034,-2.978503 0.12367,-3.723128 0.13408,-18.61564 0.19615,7.446256 0.0297,13.030948 0.30163,6.329317 0.0164,-0.74462 0.14846,3.72312 0.05,-3.72312 h 0.16992 l 0.11213,-2.233881 0.0687,1.489251 h 0.16601 l 0.0519,4.46775 0.0114,-7.446253 0.1019,7.446253 h 0.9603 l 0.12115,-4.46775 0.007,4.46775 0.21647,-9.307817 0.32665,9.307817 h 2.45162 l 0.0969,-3.72312 h 0.0802 l 0.147,-5.584697 0.10157,1.861564 0.0719,-1.861564 0.17739,4.840067 h 0.1929 l 0.12953,1.48925 0.18218,2.9785 h 11.7643 l 0.10205,-4.46775 0.0141,1.48925 0.16748,-2.978501 0.0801,-1.489252 0.18169,2.978503 0.0756,-4.840067 0.0672,3.350816 h 0.006 l 0.1695,5.957001 h 1.17263 l 0.0641,-2.23387 0.0304,2.23387 0.13172,-5.957001 0.0254,1.489251 h 0.005 l 0.10133,4.46775 h 2.20647 l 0.0539,-2.23387 0.27896,-12.658639 0.0599,-14.892512 0.14504,18.61564 0.23687,1.861564 0.0974,-1.861564 0.93877,6.701631 0.12262,-2.978503 0.10888,-14.892512 0.19242,14.892512 0.0895,-1.861564 0.0803,-5.584692 0.3087,8.935508 h 0.0567 l 0.0883,2.233881 0.1574,-2.233881 0.031,-1.489252 0.21444,1.489252 h 0.0988 l 0.0588,-1.489252 0.0503,1.489252 h 0.11368 l 0.32349,-8.935508 0.14626,5.584692 0.007,-1.861564 h 0.28115 l 0.10767,3.723128 0.09,7.446253 h 8.93711 l 0.0943,-4.46775 0.0718,0.74463 h 0.0314 l 0.0865,-3.723133 0.0696,1.489252 0.15943,2.233881 0.1058,-3.723133 0.20038,7.446253 h 14.50787 l 0.23061,-9.307817 h 0.0562 l 0.0808,3.350816 0.0294,-1.489252 h 0.0367 l 0.14366,3.723133 0.11604,-2.233881 0.0861,1.489251 0.0523,0.74463 0.0548,-2.233881 h 0.0971 l 0.101,2.233881 0.0856,-0.74463 0.10181,-1.489251 0.0913,-1.489252 -0.0244,2.978503 0.032,-1.489251 h 0.0178 l 0.1214,1.489251 0.0959,4.46775 h 7.65803 l 0.26376,-14.892509 0.006,3.723128 0.14935,6.701631 0.14716,0.74463 0.15813,3.72312 h 0.69857 l 0.0972,-2.23387 0.14172,-5.212383 0.0999,-7.446256 0.0823,10.424759 0.0421,-2.978503 h 0.0275 l 0.0508,-7.446256 0.0587,7.446256 h 0.0267 l 0.14025,3.723133 h 0.0271 l 0.0553,1.48925 0.0275,-0.74463 0.0575,-0.74462 0.0184,0.74462 0.13399,0.74463 h 0.15764 l 0.0853,-1.48925 0.0286,0.74462 h 0.0649 l 0.16528,-2.978501 0.007,1.489251 0.0299,-1.489251 0.17925,2.233881 h 0.19169 l 0.0841,0.74462 h 0.0886 l 0.12539,0.74463 h 0.0331 l 0.30569,-7.073947 0.0887,4.840067 0.13944,1.48925 0.18307,2.9785 h 2.31259 l 0.18161,-5.957001 h 0.20891 l 0.14903,-1.489252 0.0192,1.489252 0.30536,-1.489252 0.21233,1.489252 0.17698,-1.489252 0.0112,-1.861564 0.21233,1.861564 h 0.1708 l 0.23694,2.978503 0.13205,-1.489251 h 0.0399 l 0.0285,1.489251 h 0.13204 l 9.8e-4,1.48925 0.0686,-0.74462 0.12684,-2.233881 0.0984,5.957001 0.0427,-5.957001 0.0729,5.957001 h 1.62791 l 0.18511,-4.46775 h 0.0437 l 0.11416,-2.978503 h 0.032 l 0.51029,7.446253 h 4.74804 l 0.13326,-4.46775 h 0.11734 l 0.0585,-1.489251 h 0.13074 l 0.067,1.489251 0.0906,-4.840067 0.24556,3.350816 0.0401,-1.489252 0.17032,4.467753 0.0707,-1.48925 0.22598,0.74463 0.17218,-3.723133 0.10352,-1.861564 h 0.0753 l 0.34851,9.307817 h 14.08209 l 0.0488,-2.9785 0.12505,-1.48925 0.10499,-17.871015 0.0221,11.169384 0.29634,6.701631 0.0976,0.74463 0.0311,-0.74463 0.0771,0.74463 h 0.0289 l 0.0301,1.48925 0.0577,-0.74463 0.14448,2.9785 h 12.38543 l 0.13895,-3.72312 0.20591,-3.723133 0.0431,-7.446256 0.006,-22.338769 0.097,29.785025 0.3256,7.446253 h 23.07363 l 0.20152,-9.307817 0.0614,-13.030948 0.0317,13.030948 0.35477,9.307817 h 16.10061 l 0.12684,-5.957001 0.199,-5.21238 0.0592,-18.61564 0.0264,20.477204 0.16569,6.329317 0.0628,0.74463 0.10677,2.23387 h 7.42239 l 0.13212,-3.72312 0.0743,-7.446261 0.0276,-18.61564 0.0512,25.317271 h 0.006 l 0.11701,1.48925 h 0.0393 l 0.34031,2.9785 h 3.08445 l 0.25929,-11.169381 0.0245,-26.061897 0.0388,26.061897 0.34429,11.169381 h 2.54336 l 0.0488,-2.9785 0.14293,-2.978501 0.10132,-8.935508 0.0912,10.424759 0.12773,1.48925 0.10279,2.9785 h 19.56015 v 0"
           clip-path="url(#p0268068d8f)"
           style="fill:none;stroke:#000000;stroke-width:1.5;stroke-linecap:square"
           id="path157" />
      </g>
      <g
         id="line2d_24">
        <path
           clip-path="url(#p0268068d8f)"
           style="fill:none;stroke:#0000ff;stroke-width:2;stroke-linecap:square"
           id="path212" />
      </g>
      <g
         id="line2d_25">
        <path
           clip-path="url(#p0268068d8f)"
           style="fill:none;stroke:#0000ff;stroke-width:2;stroke-linecap:square"
           id="path213" />
      </g>
      <g
         id="text_21">
        <!-- LCT Region -->
      </g>
    </g>
  </g>
  <defs
     id="defs232">
    <clipPath
       id="p0268068d8f">
      <rect
         x="54.110001"
         y="26.16"
         width="568.80249"
         height="111.88"
         id="rect232" />
    </clipPath>
  </defs>
</svg>
