<?xml version="1.0" encoding="UTF-8" standalone="no"?>
<svg
   width="750pt"
   height="180pt"
   viewBox="0 0 750 180"
   version="1.1"
   id="svg242"
   sodipodi:docname="result_mhc_region_5.svg"
   inkscape:version="1.3.2 (091e20e, 2023-11-25)"
   xmlns:inkscape="http://www.inkscape.org/namespaces/inkscape"
   xmlns:sodipodi="http://sodipodi.sourceforge.net/DTD/sodipodi-0.dtd"
   xmlns="http://www.w3.org/2000/svg"
   xmlns:svg="http://www.w3.org/2000/svg"
   xmlns:rdf="http://www.w3.org/1999/02/22-rdf-syntax-ns#"
   xmlns:cc="http://creativecommons.org/ns#"
   xmlns:dc="http://purl.org/dc/elements/1.1/">
  <sodipodi:namedview
     id="namedview242"
     pagecolor="#ffffff"
     bordercolor="#000000"
     borderopacity="0.25"
     inkscape:showpageshadow="2"
     inkscape:pageopacity="0.0"
     inkscape:pagecheckerboard="0"
     inkscape:deskcolor="#d1d1d1"
     inkscape:document-units="pt"
     inkscape:zoom="0.650547"
     inkscape:cx="527.24861"
     inkscape:cy="130.65928"
     inkscape:window-width="1312"
     inkscape:window-height="449"
     inkscape:window-x="62"
     inkscape:window-y="25"
     inkscape:window-maximized="0"
     inkscape:current-layer="axes_1" />
  <metadata
     id="metadata1">
    <rdf:RDF>
      <cc:Work>
        <dc:type
           rdf:resource="http://purl.org/dc/dcmitype/StillImage" />
        <dc:date>2024-07-05T20:13:48.926080</dc:date>
        <dc:format>image/svg+xml</dc:format>
        <dc:creator>
          <cc:Agent>
            <dc:title>Matplotlib v3.8.0, https://matplotlib.org/</dc:title>
          </cc:Agent>
        </dc:creator>
      </cc:Work>
    </rdf:RDF>
  </metadata>
  <defs
     id="defs1">
    <style
       type="text/css"
       id="style1">*{stroke-linejoin: round; stroke-linecap: butt}</style>
    <path
       id="path4371"
       d="M 1831,0 50,4666 H 709 L 2188,738 3669,4666 h 656 L 2547,0 Z"
       transform="scale(0.015625)" />
    <path
       id="path4372"
       d="M 3809,666 V 1919 H 2778 v 519 H 4434 V 434 Q 4069,175 3628,42 3188,-91 2688,-91 1594,-91 976,548 359,1188 359,2328 q 0,1144 617,1783 618,639 1712,639 456,0 867,-113 411,-112 758,-331 v -672 q -350,297 -744,447 -394,150 -828,150 -857,0 -1287,-478 -429,-478 -429,-1425 0,-944 429,-1422 430,-478 1287,-478 334,0 596,58 263,58 472,180 z"
       transform="scale(0.015625)" />
    <path
       id="path4373"
       d="m 213,4666 h 637 l 981,-3944 978,3944 h 710 l 981,-3944 978,3944 h 641 L 4947,0 H 4153 L 3169,4050 2175,0 h -794 z"
       transform="scale(0.015625)" />
    <path
       id="path4374"
       d="m 3425,4513 v -616 q -359,172 -678,256 -319,85 -616,85 -515,0 -795,-200 -280,-200 -280,-569 0,-310 186,-468 186,-157 705,-254 l 381,-78 q 706,-135 1042,-474 336,-339 336,-907 0,-679 -455,-1029 -454,-350 -1332,-350 -331,0 -705,75 -373,75 -773,222 v 650 q 384,-215 753,-325 369,-109 725,-109 540,0 834,212 294,213 294,607 0,343 -211,537 -211,194 -692,291 l -385,75 q -706,140 -1022,440 -315,300 -315,835 0,619 436,975 436,356 1201,356 329,0 669,-60 341,-59 697,-177 z"
       transform="scale(0.015625)" />
    <path
       id="path4375"
       d="M 628,4666 H 3309 V 4134 H 1259 V 2759 H 3109 V 2228 H 1259 V 0 H 628 Z"
       transform="scale(0.015625)" />
    <path
       id="path4376"
       d="m 2906,2969 v 1894 h 575 V 0 H 2906 V 525 Q 2725,213 2448,61 2172,-91 1784,-91 1150,-91 751,415 353,922 353,1747 q 0,825 398,1331 399,506 1033,506 388,0 664,-152 277,-151 458,-463 z M 947,1747 q 0,-634 261,-995 261,-361 717,-361 456,0 718,361 263,361 263,995 0,634 -263,995 -262,361 -718,361 -456,0 -717,-361 -261,-361 -261,-995 z"
       transform="scale(0.015625)" />
    <path
       id="path4377"
       d="m 1556,2509 q -284,-253 -417,-505 -133,-251 -133,-526 0,-456 331,-759 332,-303 832,-303 297,0 556,98 259,99 488,299 z m 441,350 1587,-1625 q 185,279 288,596 103,317 122,673 h 581 Q 4538,2091 4375,1687 4213,1284 3922,891 L 4794,0 H 4006 L 3559,459 Q 3234,181 2878,45 2522,-91 2113,-91 1359,-91 881,339 403,769 403,1441 q 0,400 209,751 210,352 629,661 -150,197 -229,392 -78,196 -78,383 0,506 347,814 347,308 922,308 260,0 517,-56 258,-56 524,-169 v -569 q -272,147 -519,223 -247,77 -459,77 -328,0 -533,-174 -205,-173 -205,-448 0,-159 92,-320 93,-161 377,-455 z"
       transform="scale(0.015625)" />
    <path
       id="path4378"
       d="M -19,4666 H 3928 V 4134 H 2272 V 0 H 1638 V 4134 H -19 Z"
       transform="scale(0.015625)" />
    <path
       id="path4379"
       d="m 628,4666 h 631 V 0 H 628 Z"
       transform="scale(0.015625)" />
    <path
       id="path4380"
       d="m 2906,1791 q 0,625 -258,968 -257,344 -723,344 -462,0 -720,-344 -258,-343 -258,-968 0,-622 258,-966 258,-344 720,-344 466,0 723,344 258,344 258,966 z M 3481,434 q 0,-893 -397,-1329 -396,-436 -1215,-436 -303,0 -572,45 -269,45 -522,139 v 559 q 253,-137 500,-202 247,-66 503,-66 566,0 847,295 281,295 281,892 V 616 Q 2728,306 2450,153 2172,0 1784,0 1141,0 747,490 353,981 353,1791 q 0,812 394,1302 394,491 1037,491 388,0 666,-153 278,-153 456,-462 v 531 h 575 z"
       transform="scale(0.015625)" />
    <path
       id="path4381"
       d="M 313,2009 H 1997 V 1497 H 313 Z"
       transform="scale(0.015625)" />
    <path
       id="path4382"
       d="M 1259,4147 V 2394 h 794 q 441,0 681,228 241,228 241,650 0,419 -241,647 -240,228 -681,228 z m -631,519 h 1425 q 785,0 1186,-355 402,-355 402,-1039 0,-691 -402,-1044 -401,-353 -1186,-353 H 1259 V 0 H 628 Z"
       transform="scale(0.015625)" />
    <path
       id="path4383"
       d="m 703,97 v 575 q 238,-113 481,-172 244,-59 479,-59 625,0 954,420 330,420 377,1277 -181,-269 -460,-413 -278,-144 -615,-144 -700,0 -1108,423 -408,424 -408,1159 0,718 425,1152 425,435 1131,435 810,0 1236,-621 427,-620 427,-1801 Q 3622,1225 3098,567 2575,-91 1691,-91 1453,-91 1209,-44 966,3 703,97 Z m 1256,1978 q 425,0 673,290 249,291 249,798 0,503 -249,795 -248,292 -673,292 -425,0 -673,-292 -248,-292 -248,-795 0,-507 248,-798 248,-290 673,-290 z"
       transform="scale(0.015625)" />
    <clipPath
       id="pfb8b03f2d0">
      <rect
         x="62.48"
         y="26.16"
         width="563.60498"
         height="111.88"
         id="rect249" />
    </clipPath>
  </defs>
  <g
     id="figure_1">
    <g
       id="patch_1" />
    <g
       id="axes_1">
      <g
         id="line2d_33">
        <g
           clip-path="url(#p915040bf89)"
           id="g230">
          <path
             id="use226"
             d="m -1,134.45454 c 0.397805,0 0.77937,-0.15804 1.06066,-0.43934 C 0.341951,133.73391 0.5,133.35235 0.5,132.95454 c 0,-0.3978 -0.158049,-0.77937 -0.43934,-1.06066 -0.28129,-0.28129 -0.662855,-0.43934 -1.06066,-0.43934 -0.397805,0 -0.77937,0.15805 -1.06066,0.43934 -0.281291,0.28129 -0.43934,0.66286 -0.43934,1.06066 0,0.39781 0.158049,0.77937 0.43934,1.06066 0.28129,0.2813 0.662855,0.43934 1.06066,0.43934 z"
             style="fill:#0000ff;stroke:#0000ff" />
          <path
             id="use227"
             d="m 251.83186,134.45454 c 0.39781,0 0.77937,-0.15804 1.06066,-0.43934 0.28129,-0.28129 0.43934,-0.66285 0.43934,-1.06066 0,-0.3978 -0.15805,-0.77937 -0.43934,-1.06066 -0.28129,-0.28129 -0.66285,-0.43934 -1.06066,-0.43934 -0.3978,0 -0.77937,0.15805 -1.06066,0.43934 -0.28129,0.28129 -0.43934,0.66286 -0.43934,1.06066 0,0.39781 0.15805,0.77937 0.43934,1.06066 0.28129,0.2813 0.66286,0.43934 1.06066,0.43934 z"
             style="fill:#0000ff;stroke:#0000ff" />
          <path
             id="use228"
             d="m 345.01804,134.45454 c 0.3978,0 0.77937,-0.15804 1.06066,-0.43934 0.28129,-0.28129 0.43934,-0.66285 0.43934,-1.06066 0,-0.3978 -0.15805,-0.77937 -0.43934,-1.06066 -0.28129,-0.28129 -0.66286,-0.43934 -1.06066,-0.43934 -0.39781,0 -0.77937,0.15805 -1.06066,0.43934 -0.2813,0.28129 -0.43934,0.66286 -0.43934,1.06066 0,0.39781 0.15804,0.77937 0.43934,1.06066 0.28129,0.2813 0.66285,0.43934 1.06066,0.43934 z"
             style="fill:#0000ff;stroke:#0000ff" />
          <path
             id="use229"
             d="m 415.17819,134.45454 c 0.39781,0 0.77937,-0.15804 1.06066,-0.43934 0.28129,-0.28129 0.43934,-0.66285 0.43934,-1.06066 0,-0.3978 -0.15805,-0.77937 -0.43934,-1.06066 -0.28129,-0.28129 -0.66285,-0.43934 -1.06066,-0.43934 -0.3978,0 -0.77937,0.15805 -1.06066,0.43934 -0.28129,0.28129 -0.43934,0.66286 -0.43934,1.06066 0,0.39781 0.15805,0.77937 0.43934,1.06066 0.28129,0.2813 0.66286,0.43934 1.06066,0.43934 z"
             style="fill:#0000ff;stroke:#0000ff" />
          <path
             id="use230"
             d="m 351.72043,134.45454 c 0.3978,0 0.77937,-0.15804 1.06066,-0.43934 0.28129,-0.28129 0.43934,-0.66285 0.43934,-1.06066 0,-0.3978 -0.15805,-0.77937 -0.43934,-1.06066 -0.28129,-0.28129 -0.66286,-0.43934 -1.06066,-0.43934 -0.39781,0 -0.77937,0.15805 -1.06066,0.43934 -0.28129,0.28129 -0.43934,0.66286 -0.43934,1.06066 0,0.39781 0.15805,0.77937 0.43934,1.06066 0.28129,0.2813 0.66285,0.43934 1.06066,0.43934 z"
             style="fill:#0000ff;stroke:#0000ff" />
        </g>
      </g>
    </g>
  </g>
  <defs
     id="defs242">
    <clipPath
       id="p915040bf89">
      <rect
         x="54.110001"
         y="26.16"
         width="571.97498"
         height="111.88"
         id="rect242" />
    </clipPath>
  </defs>
  <g
     id="text_24"
     style="stroke-linecap:butt;stroke-linejoin:round"
     transform="matrix(0.67940227,0,0,0.67940227,248.38352,66.73471)">
    <!-- Irving-Pease et al. 2024 -->
    <g
       transform="matrix(0.1,0,0,-0.1,570.65,102.51844)"
       id="g439"
       style="stroke-linecap:butt;stroke-linejoin:round">
      <defs
         id="defs415">
        <path
           id="path250"
           d="m 628,4666 h 631 V 0 H 628 Z"
           transform="scale(0.015625)" />
        <path
           id="path251"
           d="m 2906,1791 q 0,625 -258,968 -257,344 -723,344 -462,0 -720,-344 -258,-343 -258,-968 0,-622 258,-966 258,-344 720,-344 466,0 723,344 258,344 258,966 z M 3481,434 q 0,-893 -397,-1329 -396,-436 -1215,-436 -303,0 -572,45 -269,45 -522,139 v 559 q 253,-137 500,-202 247,-66 503,-66 566,0 847,295 281,295 281,892 V 616 Q 2728,306 2450,153 2172,0 1784,0 1141,0 747,490 353,981 353,1791 q 0,812 394,1302 394,491 1037,491 388,0 666,-153 278,-153 456,-462 v 531 h 575 z"
           transform="scale(0.015625)" />
        <path
           id="path252"
           d="M 313,2009 H 1997 V 1497 H 313 Z"
           transform="scale(0.015625)" />
        <path
           id="path253"
           d="M 1259,4147 V 2394 h 794 q 441,0 681,228 241,228 241,650 0,419 -241,647 -240,228 -681,228 z m -631,519 h 1425 q 785,0 1186,-355 402,-355 402,-1039 0,-691 -402,-1044 -401,-353 -1186,-353 H 1259 V 0 H 628 Z"
           transform="scale(0.015625)" />
      </defs>
      <path
         id="use416"
         d="m 9.8125,72.90625 h 9.859375 V 0 H 9.8125 Z"
         style="stroke-width:0.015625;stroke-linecap:butt;stroke-linejoin:round" />
      <path
         id="use417"
         d="m 70.601562,46.296875 q -1.515625,0.875 -3.296875,1.28125 Q 65.523437,48 63.382812,48 55.757812,48 51.679687,43.046875 47.601562,38.09375 47.601562,28.8125 V 0 h -9.03125 v 54.6875 h 9.03125 v -8.5 q 2.84375,4.984375 7.375,7.390625 Q 59.523437,56 66.023437,56 q 0.921875,0 2.046875,-0.125 1.125,-0.109375 2.484375,-0.359375 z"
         style="stroke-width:0.015625" />
      <path
         id="use418"
         d="m 73.589844,54.6875 h 9.515625 L 100.19922,8.796875 117.29297,54.6875 h 9.51562 L 106.29297,0 H 94.089844 Z"
         style="stroke-width:0.015625" />
      <path
         id="use419"
         d="m 139.20703,54.6875 h 8.98438 V 0 h -8.98438 z m 0,21.296875 h 8.98438 V 64.59375 h -8.98438 z"
         style="stroke-width:0.015625" />
      <path
         id="use420"
         d="M 212.45898,33.015625 V 0 h -8.98437 v 32.71875 q 0,7.765625 -3.03125,11.609375 -3.03125,3.859375 -9.07813,3.859375 -7.28125,0 -11.48437,-4.640625 -4.20313,-4.625 -4.20313,-12.640625 V 0 h -9.03125 v 54.6875 h 9.03125 v -8.5 q 3.23438,4.9375 7.59375,7.375 4.375,2.4375 10.09375,2.4375 9.42188,0 14.25,-5.828125 4.84375,-5.828125 4.84375,-17.15625 z"
         style="stroke-width:0.015625" />
      <path
         id="use421"
         d="m 266.35352,27.984375 q 0,9.765625 -4.03125,15.125 -4.01563,5.375 -11.29688,5.375 -7.21875,0 -11.25,-5.375 -4.03125,-5.359375 -4.03125,-15.125 0,-9.71875 4.03125,-15.09375 4.03125,-5.375 11.25,-5.375 7.28125,0 11.29688,5.375 4.03125,5.375 4.03125,15.09375 z M 275.33789,6.78125 q 0,-13.953125 -6.20312,-20.765625 -6.1875,-6.8125 -18.98438,-6.8125 -4.73437,0 -8.9375,0.703125 -4.20312,0.703125 -8.15625,2.171875 V -9.1875 q 3.95313,-2.140625 7.8125,-3.15625 3.85938,-1.03125 7.85938,-1.03125 8.84375,0 13.23437,4.609375 4.39063,4.609375 4.39063,13.9375 V 9.625 Q 263.57227,4.78125 259.22852,2.390625 254.88477,0 248.82227,0 q -10.04688,0 -16.20313,7.65625 -6.15625,7.671875 -6.15625,20.328125 0,12.6875 6.15625,20.34375 Q 238.77539,56 248.82227,56 q 6.0625,0 10.40625,-2.390625 4.34375,-2.390625 7.125,-7.21875 V 54.6875 h 8.98437 z"
         style="stroke-width:0.015625;stroke-linecap:butt;stroke-linejoin:round" />
      <path
         id="use422"
         d="m 289.31445,31.390625 h 26.3125 v -8 h -26.3125 z"
         style="stroke-width:0.015625;stroke-linecap:butt;stroke-linejoin:round" />
      <path
         id="use423"
         d="M 340.17969,64.796875 V 37.40625 h 12.40625 q 6.89062,0 10.64062,3.5625 3.76563,3.5625 3.76563,10.15625 0,6.546875 -3.76563,10.109375 -3.75,3.5625 -10.64062,3.5625 z m -9.85938,8.109375 h 22.26563 q 12.26562,0 18.53125,-5.546875 6.28125,-5.546875 6.28125,-16.234375 0,-10.796875 -6.28125,-16.3125 -6.26563,-5.515625 -18.53125,-5.515625 H 340.17969 V 0 h -9.85938 z"
         style="stroke-width:0.015625;stroke-linecap:butt;stroke-linejoin:round" />
      <path
         id="use424"
         d="m 433.38867,29.59375 v -4.390625 h -41.3125 q 0.59375,-9.28125 5.59375,-14.140625 5,-4.859375 13.9375,-4.859375 5.17188,0 10.03125,1.265625 4.85938,1.265625 9.65625,3.8125 v -8.5 q -4.84375,-2.046875 -9.92187,-3.125 -5.07813,-1.078125 -10.29688,-1.078125 -13.09375,0 -20.73437,7.609375 -7.64063,7.625 -7.64063,20.625 0,13.421875 7.25,21.296875 Q 397.20117,56 409.51367,56 q 11.03125,0 17.45313,-7.109375 6.42187,-7.09375 6.42187,-19.296875 z m -8.98437,2.640625 q -0.0937,7.359375 -4.125,11.75 -4.03125,4.40625 -10.67188,4.40625 -7.51562,0 -12.03125,-4.25 -4.51562,-4.25 -5.20312,-11.96875 z"
         style="stroke-width:0.015625" />
      <path
         id="use425"
         d="m 472.99023,27.484375 q -10.89062,0 -15.09375,-2.484375 -4.20312,-2.484375 -4.20312,-8.5 0,-4.78125 3.15625,-7.59375 3.15625,-2.796875 8.5625,-2.796875 7.48437,0 12,5.296875 4.51562,5.296875 4.51562,14.078125 v 2 z m 17.92188,3.71875 V 0 h -8.98438 v 8.296875 q -3.07812,-4.96875 -7.67187,-7.34375 -4.59375,-2.375 -11.23438,-2.375 -8.39062,0 -13.35937,4.71875 -4.95313,4.71875 -4.95313,12.625 0,9.21875 6.17188,13.90625 6.1875,4.6875 18.4375,4.6875 h 12.60937 v 0.890625 q 0,6.203125 -4.07812,9.59375 -4.07813,3.390625 -11.45313,3.390625 -4.6875,0 -9.14062,-1.125 -4.4375,-1.125 -8.53125,-3.375 v 8.3125 q 4.92187,1.90625 9.5625,2.84375 Q 462.92773,56 467.31836,56 q 11.875,0 17.73437,-6.15625 5.85938,-6.140625 5.85938,-18.640625 z"
         style="stroke-width:0.015625" />
      <path
         id="use426"
         d="m 544.26953,53.078125 v -8.5 q -3.79687,1.953125 -7.90625,2.921875 -4.09375,0.984375 -8.5,0.984375 -6.6875,0 -10.03125,-2.046875 -3.34375,-2.046875 -3.34375,-6.15625 0,-3.125 2.39063,-4.90625 2.39062,-1.78125 9.625,-3.390625 l 3.07812,-0.6875 q 9.5625,-2.046875 13.59375,-5.78125 4.03125,-3.734375 4.03125,-10.421875 0,-7.625 -6.03125,-12.078125 -6.03125,-4.4375 -16.57812,-4.4375 -4.39063,0 -9.15625,0.859375 Q 510.67578,0.296875 505.41016,2 v 9.28125 q 4.98437,-2.59375 9.8125,-3.890625 4.82812,-1.28125 9.57812,-1.28125 6.34375,0 9.75,2.171875 3.42188,2.171875 3.42188,6.125 0,3.65625 -2.46875,5.609375 -2.45313,1.953125 -10.8125,3.765625 l -3.125,0.734375 q -8.34375,1.75 -12.0625,5.390625 -3.70313,3.640625 -3.70313,9.984375 0,7.71875 5.46875,11.90625 Q 516.73828,56 526.80078,56 q 4.96875,0 9.35938,-0.734375 4.40625,-0.71875 8.10937,-2.1875 z"
         style="stroke-width:0.015625" />
      <path
         id="use427"
         d="m 608.29102,29.59375 v -4.390625 h -41.3125 q 0.59375,-9.28125 5.59375,-14.140625 5,-4.859375 13.9375,-4.859375 5.17187,0 10.03125,1.265625 4.85937,1.265625 9.65625,3.8125 v -8.5 q -4.84375,-2.046875 -9.92188,-3.125 -5.07812,-1.078125 -10.29687,-1.078125 -13.09375,0 -20.73438,7.609375 -7.64062,7.625 -7.64062,20.625 0,13.421875 7.25,21.296875 Q 572.10352,56 584.41602,56 q 11.03125,0 17.45312,-7.109375 6.42188,-7.09375 6.42188,-19.296875 z m -8.98438,2.640625 q -0.0937,7.359375 -4.125,11.75 -4.03125,4.40625 -10.67187,4.40625 -7.51563,0 -12.03125,-4.25 -4.51563,-4.25 -5.20313,-11.96875 z"
         style="stroke-width:0.015625" />
      <path
         id="use428"
         d=""
         style="stroke-width:0.015625" />
      <path
         id="use429"
         d="m 701.60156,29.59375 v -4.390625 h -41.3125 q 0.59375,-9.28125 5.59375,-14.140625 5,-4.859375 13.9375,-4.859375 5.17188,0 10.03125,1.265625 4.85938,1.265625 9.65625,3.8125 v -8.5 q -4.84375,-2.046875 -9.92187,-3.125 -5.07813,-1.078125 -10.29688,-1.078125 -13.09375,0 -20.73437,7.609375 -7.64063,7.625 -7.64063,20.625 0,13.421875 7.25,21.296875 Q 665.41406,56 677.72656,56 q 11.03125,0 17.45313,-7.109375 6.42187,-7.09375 6.42187,-19.296875 z m -8.98437,2.640625 q -0.0937,7.359375 -4.125,11.75 -4.03125,4.40625 -10.67188,4.40625 -7.51562,0 -12.03125,-4.25 -4.51562,-4.25 -5.20312,-11.96875 z"
         style="stroke-width:0.015625" />
      <path
         id="use430"
         d="M 725.23437,70.21875 V 54.6875 h 18.5 v -6.984375 h -18.5 v -29.6875 q 0,-6.6875 1.82813,-8.59375 1.82812,-1.90625 7.45312,-1.90625 h 9.21875 V 0 h -9.21875 q -10.40625,0 -14.35937,3.875 -3.95313,3.890625 -3.95313,14.140625 v 29.6875 h -6.59375 V 54.6875 h 6.59375 v 15.53125 z"
         style="stroke-width:0.015625" />
      <path
         id="use431"
         d=""
         style="stroke-width:0.015625" />
      <path
         id="use432"
         d="m 812.19922,27.484375 q -10.89063,0 -15.09375,-2.484375 -4.20313,-2.484375 -4.20313,-8.5 0,-4.78125 3.15625,-7.59375 3.15625,-2.796875 8.5625,-2.796875 7.48438,0 12,5.296875 4.51563,5.296875 4.51563,14.078125 v 2 z m 17.92187,3.71875 V 0 h -8.98437 v 8.296875 q -3.07813,-4.96875 -7.67188,-7.34375 -4.59375,-2.375 -11.23437,-2.375 -8.39063,0 -13.35938,4.71875 -4.95312,4.71875 -4.95312,12.625 0,9.21875 6.17187,13.90625 6.1875,4.6875 18.4375,4.6875 h 12.60938 v 0.890625 q 0,6.203125 -4.07813,9.59375 -4.07812,3.390625 -11.45312,3.390625 -4.6875,0 -9.14063,-1.125 -4.4375,-1.125 -8.53125,-3.375 v 8.3125 q 4.92188,1.90625 9.5625,2.84375 Q 802.13672,56 806.52734,56 q 11.875,0 17.73438,-6.15625 5.85937,-6.140625 5.85937,-18.640625 z"
         style="stroke-width:0.015625" />
      <path
         id="use433"
         d="m 848.61914,75.984375 h 8.98438 V 0 h -8.98438 z"
         style="stroke-width:0.015625" />
      <path
         id="use434"
         d="m 877.66797,12.40625 h 10.3125 V 0 h -10.3125 z"
         style="stroke-width:0.015625" />
      <path
         id="use435"
         d=""
         style="stroke-width:0.015625" />
      <path
         id="use436"
         d="m 949.74219,8.296875 h 34.42187 V 0 h -46.28125 v 8.296875 q 5.60938,5.8125 15.29688,15.59375 9.70312,9.796875 12.1875,12.640625 4.73437,5.3125 6.60937,9 1.89063,3.6875 1.89063,7.25 0,5.8125 -4.07813,9.46875 -4.07812,3.671875 -10.625,3.671875 -4.64062,0 -9.79687,-1.609375 -5.14063,-1.609375 -11,-4.890625 v 9.96875 q 5.95312,2.390625 11.125,3.609375 5.1875,1.21875 9.48437,1.21875 11.32813,0 18.0625,-5.671875 6.73438,-5.65625 6.73438,-15.125 0,-4.5 -1.6875,-8.53125 -1.67188,-4.015625 -6.125,-9.484375 -1.21875,-1.421875 -7.76563,-8.1875 -6.53125,-6.765625 -18.45312,-18.921875 z"
         style="stroke-width:0.015625" />
      <path
         id="use437"
         d="m 1025.959,66.40625 q -7.6094,0 -11.4531,-7.5 -3.8282,-7.484375 -3.8282,-22.53125 0,-14.984375 3.8282,-22.484375 3.8437,-7.5 11.4531,-7.5 7.6719,0 11.5,7.5 3.8437,7.5 3.8437,22.484375 0,15.046875 -3.8437,22.53125 -3.8281,7.5 -11.5,7.5 z m 0,7.8125 q 12.2656,0 18.7344,-9.703125 6.4687,-9.6875 6.4687,-28.140625 0,-18.40625 -6.4687,-28.109375 -6.4688,-9.6875 -18.7344,-9.6875 -12.25,0 -18.7188,9.6875 -6.4687,9.703125 -6.4687,28.109375 0,18.453125 6.4687,28.140625 6.4688,9.703125 18.7188,9.703125 z"
         style="stroke-width:0.015625" />
      <path
         id="use438"
         d="m 1076.9883,8.296875 h 34.4219 V 0 h -46.2813 v 8.296875 q 5.6094,5.8125 15.2969,15.59375 9.7031,9.796875 12.1875,12.640625 4.7344,5.3125 6.6094,9 1.8906,3.6875 1.8906,7.25 0,5.8125 -4.0781,9.46875 -4.0782,3.671875 -10.625,3.671875 -4.6407,0 -9.7969,-1.609375 -5.1406,-1.609375 -11,-4.890625 v 9.96875 q 5.9531,2.390625 11.125,3.609375 5.1875,1.21875 9.4844,1.21875 11.3281,0 18.0625,-5.671875 6.7343,-5.65625 6.7343,-15.125 0,-4.5 -1.6875,-8.53125 -1.6718,-4.015625 -6.125,-9.484375 -1.2187,-1.421875 -7.7656,-8.1875 -6.5312,-6.765625 -18.4531,-18.921875 z"
         style="stroke-width:0.015625" />
      <path
         id="use439"
         d="m 1159.2207,64.3125 -24.9062,-38.921875 h 24.9062 z m -2.5937,8.59375 h 12.4062 V 25.390625 h 10.4063 V 17.1875 h -10.4063 V 0 h -9.8125 v 17.1875 h -32.9062 v 9.515625 z"
         style="stroke-width:0.015625" />
    </g>
  </g>
</svg>
