<?xml version="1.0" encoding="UTF-8" standalone="no"?>
<svg
   width="750pt"
   height="180pt"
   viewBox="0 0 750 180"
   version="1.1"
   id="svg242"
   sodipodi:docname="result_mhc_region_prediction.svg"
   inkscape:version="1.3.2 (091e20e, 2023-11-25)"
   xmlns:inkscape="http://www.inkscape.org/namespaces/inkscape"
   xmlns:sodipodi="http://sodipodi.sourceforge.net/DTD/sodipodi-0.dtd"
   xmlns="http://www.w3.org/2000/svg"
   xmlns:svg="http://www.w3.org/2000/svg"
   xmlns:rdf="http://www.w3.org/1999/02/22-rdf-syntax-ns#"
   xmlns:cc="http://creativecommons.org/ns#"
   xmlns:dc="http://purl.org/dc/elements/1.1/">
  <sodipodi:namedview
     id="namedview242"
     pagecolor="#ffffff"
     bordercolor="#000000"
     borderopacity="0.25"
     inkscape:showpageshadow="2"
     inkscape:pageopacity="0.0"
     inkscape:pagecheckerboard="0"
     inkscape:deskcolor="#d1d1d1"
     inkscape:document-units="pt"
     inkscape:zoom="0.62106398"
     inkscape:cx="549.05777"
     inkscape:cy="90.167845"
     inkscape:window-width="1312"
     inkscape:window-height="449"
     inkscape:window-x="62"
     inkscape:window-y="25"
     inkscape:window-maximized="0"
     inkscape:current-layer="axes_1" />
  <metadata
     id="metadata1">
    <rdf:RDF>
      <cc:Work>
        <dc:type
           rdf:resource="http://purl.org/dc/dcmitype/StillImage" />
        <dc:date>2024-07-05T20:13:48.926080</dc:date>
        <dc:format>image/svg+xml</dc:format>
        <dc:creator>
          <cc:Agent>
            <dc:title>Matplotlib v3.8.0, https://matplotlib.org/</dc:title>
          </cc:Agent>
        </dc:creator>
      </cc:Work>
    </rdf:RDF>
  </metadata>
  <defs
     id="defs1">
    <style
       type="text/css"
       id="style1">*{stroke-linejoin: round; stroke-linecap: butt}</style>
    <path
       id="path4371"
       d="M 1831,0 50,4666 H 709 L 2188,738 3669,4666 h 656 L 2547,0 Z"
       transform="scale(0.015625)" />
    <path
       id="path4372"
       d="M 3809,666 V 1919 H 2778 v 519 H 4434 V 434 Q 4069,175 3628,42 3188,-91 2688,-91 1594,-91 976,548 359,1188 359,2328 q 0,1144 617,1783 618,639 1712,639 456,0 867,-113 411,-112 758,-331 v -672 q -350,297 -744,447 -394,150 -828,150 -857,0 -1287,-478 -429,-478 -429,-1425 0,-944 429,-1422 430,-478 1287,-478 334,0 596,58 263,58 472,180 z"
       transform="scale(0.015625)" />
    <path
       id="path4373"
       d="m 213,4666 h 637 l 981,-3944 978,3944 h 710 l 981,-3944 978,3944 h 641 L 4947,0 H 4153 L 3169,4050 2175,0 h -794 z"
       transform="scale(0.015625)" />
    <path
       id="path4374"
       d="m 3425,4513 v -616 q -359,172 -678,256 -319,85 -616,85 -515,0 -795,-200 -280,-200 -280,-569 0,-310 186,-468 186,-157 705,-254 l 381,-78 q 706,-135 1042,-474 336,-339 336,-907 0,-679 -455,-1029 -454,-350 -1332,-350 -331,0 -705,75 -373,75 -773,222 v 650 q 384,-215 753,-325 369,-109 725,-109 540,0 834,212 294,213 294,607 0,343 -211,537 -211,194 -692,291 l -385,75 q -706,140 -1022,440 -315,300 -315,835 0,619 436,975 436,356 1201,356 329,0 669,-60 341,-59 697,-177 z"
       transform="scale(0.015625)" />
    <path
       id="path4375"
       d="M 628,4666 H 3309 V 4134 H 1259 V 2759 H 3109 V 2228 H 1259 V 0 H 628 Z"
       transform="scale(0.015625)" />
    <path
       id="path4376"
       d="m 2906,2969 v 1894 h 575 V 0 H 2906 V 525 Q 2725,213 2448,61 2172,-91 1784,-91 1150,-91 751,415 353,922 353,1747 q 0,825 398,1331 399,506 1033,506 388,0 664,-152 277,-151 458,-463 z M 947,1747 q 0,-634 261,-995 261,-361 717,-361 456,0 718,361 263,361 263,995 0,634 -263,995 -262,361 -718,361 -456,0 -717,-361 -261,-361 -261,-995 z"
       transform="scale(0.015625)" />
    <path
       id="path4377"
       d="m 1556,2509 q -284,-253 -417,-505 -133,-251 -133,-526 0,-456 331,-759 332,-303 832,-303 297,0 556,98 259,99 488,299 z m 441,350 1587,-1625 q 185,279 288,596 103,317 122,673 h 581 Q 4538,2091 4375,1687 4213,1284 3922,891 L 4794,0 H 4006 L 3559,459 Q 3234,181 2878,45 2522,-91 2113,-91 1359,-91 881,339 403,769 403,1441 q 0,400 209,751 210,352 629,661 -150,197 -229,392 -78,196 -78,383 0,506 347,814 347,308 922,308 260,0 517,-56 258,-56 524,-169 v -569 q -272,147 -519,223 -247,77 -459,77 -328,0 -533,-174 -205,-173 -205,-448 0,-159 92,-320 93,-161 377,-455 z"
       transform="scale(0.015625)" />
    <path
       id="path4378"
       d="M -19,4666 H 3928 V 4134 H 2272 V 0 H 1638 V 4134 H -19 Z"
       transform="scale(0.015625)" />
    <path
       id="path4379"
       d="m 628,4666 h 631 V 0 H 628 Z"
       transform="scale(0.015625)" />
    <path
       id="path4380"
       d="m 2906,1791 q 0,625 -258,968 -257,344 -723,344 -462,0 -720,-344 -258,-343 -258,-968 0,-622 258,-966 258,-344 720,-344 466,0 723,344 258,344 258,966 z M 3481,434 q 0,-893 -397,-1329 -396,-436 -1215,-436 -303,0 -572,45 -269,45 -522,139 v 559 q 253,-137 500,-202 247,-66 503,-66 566,0 847,295 281,295 281,892 V 616 Q 2728,306 2450,153 2172,0 1784,0 1141,0 747,490 353,981 353,1791 q 0,812 394,1302 394,491 1037,491 388,0 666,-153 278,-153 456,-462 v 531 h 575 z"
       transform="scale(0.015625)" />
    <path
       id="path4381"
       d="M 313,2009 H 1997 V 1497 H 313 Z"
       transform="scale(0.015625)" />
    <path
       id="path4382"
       d="M 1259,4147 V 2394 h 794 q 441,0 681,228 241,228 241,650 0,419 -241,647 -240,228 -681,228 z m -631,519 h 1425 q 785,0 1186,-355 402,-355 402,-1039 0,-691 -402,-1044 -401,-353 -1186,-353 H 1259 V 0 H 628 Z"
       transform="scale(0.015625)" />
    <path
       id="path4383"
       d="m 703,97 v 575 q 238,-113 481,-172 244,-59 479,-59 625,0 954,420 330,420 377,1277 -181,-269 -460,-413 -278,-144 -615,-144 -700,0 -1108,423 -408,424 -408,1159 0,718 425,1152 425,435 1131,435 810,0 1236,-621 427,-620 427,-1801 Q 3622,1225 3098,567 2575,-91 1691,-91 1453,-91 1209,-44 966,3 703,97 Z m 1256,1978 q 425,0 673,290 249,291 249,798 0,503 -249,795 -248,292 -673,292 -425,0 -673,-292 -248,-292 -248,-795 0,-507 248,-798 248,-290 673,-290 z"
       transform="scale(0.015625)" />
    <clipPath
       id="pfb8b03f2d0">
      <rect
         x="62.48"
         y="26.16"
         width="563.60498"
         height="111.88"
         id="rect249" />
    </clipPath>
  </defs>
  <g
     id="figure_1">
    <g
       id="patch_1" />
    <g
       id="axes_1">
      <g
         id="line2d_19">
        <path
           d="m 54.034581,105.2157 h 4.611916 l 0.04968,-36.985121 0.0014,22.191074 0.13564,-14.79405 0.07068,29.588097 h 16.27563 L 75.42187,68.230579 76.036907,105.2157 h 49.893463 l 0.15304,-22.191072 0.11685,22.191072 h 22.57601 l 0.0393,-4.43821 0.0676,-39.943936 0.0349,35.135867 0.0417,9.246279 h 21.65808 l 0.0592,-29.588097 0.0551,14.79405 0.0743,14.794047 h 17.67018 l 0.17748,-22.191072 0.001,11.095537 0.0103,3.698513 0.0715,-7.397025 0.0324,-22.191074 0.0618,33.286611 8e-5,-0.7397 h 0.0203 l 0.0485,-6.657325 0.003,-18.492562 0.16555,29.588097 h 7.64289 l 0.0452,-5.917617 0.0266,-23.67048 0.0893,7.397025 0.10484,22.191072 h 21.36024 l 0.0807,-29.588097 0.0391,20.341818 0.1479,9.246279 h 0.88255 l 0.0525,-14.794047 0.1917,14.794047 h 15.89069 l 0.0354,-29.588097 0.0738,29.588097 h 2.03778 l 0.0777,-29.588097 0.0564,14.79405 0.0141,8.87643 0.1041,-1.479405 0.14103,-14.79405 0.11153,16.273455 0.0121,-3.328662 0.11725,9.246279 h 2.35303 l 0.005,-14.794047 0.105,14.794047 h 0.54542 l 0.006,-14.794047 0.10344,14.794047 h 0.42432 l 0.0353,-29.588097 0.0797,23.67048 0.058,-5.177918 0.0599,11.095535 h 0.0319 l 0.0225,-9.246279 0.0872,9.246279 h 0.20182 l 0.0538,-22.191072 0.0503,22.191072 h 0.43904 l 0.0449,-11.095535 0.0654,11.095535 h 0.0416 l 0.0252,-9.246279 0.0883,7.027179 0.0504,-7.027179 0.0713,3.328662 h 0.003 l 0.069,-3.328662 0.044,9.246279 h 1.13284 l 0.0321,-22.191072 0.0933,11.095537 h 0.0114 l 0.0613,5.177918 -0.0145,-16.273455 0.0506,7.397025 0.01,-14.79405 0.0918,25.149887 h 10e-4 l 0.0548,-17.752862 0.0508,18.492562 0.0333,-7.397025 h 0.005 l 0.0936,-18.492562 -0.0819,22.191075 0.0921,-3.698513 h 0.0118 l 0.0928,-11.095537 0.008,16.273455 h 0.006 l 0.0859,-53.258579 0.027,44.382149 h 0.003 l 0.013,-7.397025 0.0932,16.273455 0.14381,5.917617 h 0.0942 l 0.0319,-14.794047 0.0853,5.547768 0.0398,1.849257 0.0356,-7.397025 0.0293,-44.382149 0.0659,55.477686 0.008,-0.7397 0.0288,-32.546911 0.0954,25.889586 h 0.008 l 0.0207,-25.889586 0.0921,14.794049 0.083,-22.191074 0.0373,40.683636 0.0394,-11.095537 0.0329,8.87643 0.0577,3.698517 0.0499,-19.971972 0.0306,16.273455 0.0762,-8.87643 0.009,-22.191074 0.0942,27.738842 0.0514,4.808069 -0.0402,-10.355837 0.0907,3.698512 0.007,-3.698512 0.0266,10.355837 0.0755,-1.479407 h 0.002 l 0.12282,-23.67048 0.10581,25.889587 -0.0791,-33.286611 0.0818,32.546911 0.0316,-39.943936 0.0677,40.683636 0.0307,-11.095537 h 0.006 l 0.0728,10.355837 0.0366,-10.355837 h 0.01 l 0.002,-7.397025 0.0508,17.752862 0.0507,-6.657325 0.0424,1.849256 0.007,-1.849256 0.0307,-18.492562 0.0152,23.67048 0.0651,-5.177918 h 0.003 l 0.0425,-3.698512 0.074,10.355837 0.0363,-32.546911 0.0778,27.738842 0.11358,4.808069 -0.0705,-6.657325 0.0771,5.177918 0.0858,-16.273455 0.0175,16.273455 0.0279,-1.479405 0.0204,3.698512 h 0.0224 0.0156 l 0.024,0.7397 0.0193,-6.287469 0.009,1.849257 0.0168,-14.79405 0.0226,18.492562 0.0717,-5.547769 0.0697,4.808069 -0.0414,-6.657325 0.0825,1.849256 h 0.0232 l 0.0257,4.808069 0.0495,-6.657325 0.10753,-25.889586 -0.077,32.546911 0.0791,-10.355837 0.048,-14.79405 0.0689,23.67048 h 0.0132 l 0.10614,2.958807 -0.0767,-4.438212 0.0799,3.698512 0.0266,-11.095537 0.0551,14.794047 h 0.15239 l 0.11439,-29.588097 0.11383,27.368997 0.006,-0.73971 h 0.0163 l 0.0558,-8.136725 0.0654,11.095535 h 0.0663 l 0.0454,-44.382146 0.0653,44.382146 h 0.0794 l 0.0777,-22.191072 0.0341,20.341822 0.0776,1.84925 h 0.14806 l 0.11799,-29.588097 0.0183,26.629287 0.096,-11.835237 0.0792,10.355837 -0.0467,-17.752862 0.0751,11.095537 0.003,-11.095537 0.0269,19.971972 0.0766,-1.47941 h 0.0109 l 0.12216,-18.492562 0.001,14.79405 0.0878,4.438212 -0.0489,-19.232262 0.0691,11.095537 0.0427,-25.889586 -0.0162,32.546911 0.0843,-6.657325 0.0439,6.657325 0.0456,-17.752862 0.0214,14.79405 0.0189,-14.79405 0.0413,19.971972 0.0459,-2.21911 h 0.002 l 0.0417,4.43821 0.0756,-9.246279 h 0.002 l 0.0113,1.849257 0.01,-14.79405 0.0172,7.397025 0.005,-14.79405 0.0279,25.889587 0.0729,-3.698512 0.008,-14.79405 0.0256,22.191072 h 0.0637 0.29718 l 0.0246,-36.985121 0.0924,31.067504 h 0.005 l 0.0588,-16.273455 0.0427,22.191072 h 0.005 0.294 l 0.0857,-22.191072 0.0643,17.752862 0.0313,-6.657325 0.0294,-11.095537 0.0599,12.944793 0.0115,-5.547768 0.105,14.794047 0.008,-2.95881 0.0663,-11.835237 0.075,-14.79405 0.0264,26.629287 h 0.003 l 0.11358,2.95881 h 0.61438 l 0.0291,-14.794047 0.003,-22.191074 0.0412,36.985121 h 0.0562 2.79247 l 0.0493,-36.985121 0.0614,36.985121 h 10.21924 l 0.0394,-9.246279 0.0123,-49.929917 0.0806,36.985124 0.14054,22.191072 h 1.62155 l 0.11824,-14.794047 0.0185,-44.382149 0.0614,59.176196 h 2.28422 l 0.094,-29.588097 0.0248,18.492562 0.10622,11.095535 h 1.83319 l 0.11365,-22.191072 0.0186,14.79405 0.13556,7.397022 0.0856,-29.588097 0.0707,14.79405 0.0942,14.794047 h 1.31873 l 0.0506,-44.382146 0.0591,40.683636 0.0695,3.69851 0.12911,-22.191072 0.0251,14.79405 0.0826,7.397022 h 0.0592 l 0.0495,-29.588097 0.10058,20.341818 0.0176,1.849257 0.0212,-14.79405 0.0274,22.191072 h 0.0816 l 0.17755,-22.191072 0.0802,7.397025 0.0539,-22.191074 0.0362,27.738842 0.16228,9.246279 h 9.61441 l 0.0513,-22.191072 0.0384,22.191072 h 0.4678 l 0.042,-29.588097 0.0847,23.67048 0.0702,-23.67048 0.0274,25.149887 0.004,-1.479407 0.14831,5.917617 h 0.14928 l 0.0467,-14.794047 0.0632,14.794047 h 5.48646 l 0.006,-11.095535 0.105,11.095535 h 2.13641 l 0.0223,-22.191072 0.0732,22.191072 h 1.01648 l 0.12722,-14.794047 0.0381,-22.191074 0.0601,25.889586 0.0288,-3.698512 0.0262,5.547768 h 0.0456 l 0.069,4.808069 0.19251,-17.752862 0.0305,17.752862 0.004,-1.479407 0.13392,-8.87643 0.10508,-14.79405 0.004,14.79405 0.13392,14.794047 0.12453,-14.794047 0.1202,14.794047 h 0.1733 l 0.0824,-22.191072 0.0136,22.191072 h 0.0422 l 0.0561,-22.191072 0.0742,7.397025 0.1099,3.698512 0.0106,-11.095537 0.0303,12.944793 0.02,-1.849256 0.21874,1.849256 0.14316,-20.341818 0.12976,20.341818 0.0792,-27.738842 0.20386,36.985121 h 5.57129 l 0.13318,-22.191072 0.0529,7.397025 0.0261,3.698512 0.20836,11.095535 h 17.42816 l 0.0261,-22.191072 0.0825,22.191072 h 3.51724 l 0.08,-7.397022 0.0246,-14.79405 0.043,12.944793 0.10884,9.246279 h 10.62035 l 0.11586,-59.176196 0.11971,59.176196 h 3.58963 l 0.0783,-14.794047 0.0636,7.397025 h 0.0194 l 0.0718,-22.191075 -0.0348,25.149887 0.0565,-2.958812 0.0982,7.397022 0.0212,-3.69851 0.0995,-18.492562 0.0168,14.79405 0.12649,7.397022 h 0.1305 l 0.11472,-14.794047 0.0273,10.355837 0.0472,-6.657325 0.0197,-11.095537 0.0292,17.752862 0.0389,-1.479407 0.0142,2.958807 0.0462,-6.287469 0.0221,-12.944793 0.0243,17.752862 0.0574,-4.808069 0.15305,9.246279 h 2.57511 l 0.0615,-22.191072 0.0704,14.79405 0.0391,-1.849257 0.0412,3.328662 0.0292,-1.479405 0.12608,7.397022 h 0.0315 l 0.0572,-14.794047 0.0686,5.547768 0.0334,-1.849256 0.0859,11.095535 0.042,-22.191072 0.0729,7.397025 0.10802,7.397025 0.0454,-1.849257 0.0435,4.808069 0.0382,-6.657325 h 0.002 l 0.004,-11.095537 0.008,16.273455 0.0972,-5.177918 0.0799,3.698513 -0.0246,-7.397025 0.0273,3.698512 0.009,-18.492562 0.0346,25.149887 0.0644,-2.958812 0.0302,2.958812 0.0178,-17.752862 0.0414,14.79405 0.0577,-3.698513 0.0745,-11.095537 0.025,16.273455 h 0.0104 l 0.0588,-3.328662 -0.0241,5.547769 0.0752,-3.698512 h 0.009 l 0.0197,-14.79405 0.0296,17.752862 h 0.0335 0.0221 l 0.0211,-17.752862 0.058,22.191072 h 0.71023 l 0.016,-14.794047 0.0799,14.794047 h 1.49473 l 0.0819,-14.794047 0.0382,7.397025 0.10182,2.958812 0.002,-1.479407 0.0749,-8.87643 0.0328,3.698512 h 0.0363 l 0.0788,6.657325 0.022,-6.657325 0.0395,-3.698512 0.0307,7.397025 0.036,-1.849257 h 0.0129 l 0.0199,5.547769 0.0566,-18.492562 0.0258,11.095537 0.0713,6.657325 -0.0251,-10.355837 0.0663,7.397025 0.084,-7.397025 -0.0488,11.095537 0.0653,-3.698512 0.036,1.479405 -0.0158,-3.328662 0.0679,1.849257 0.0971,2.958812 0.0557,-17.752862 -0.0245,18.492562 0.0838,-5.547769 0.0505,6.287469 0.0593,-6.287469 h 0.0137 l 0.0167,4.808069 0.0141,-1.479407 0.0663,-16.273455 0.0209,17.752862 0.12984,4.43821 h 0.77355 l 0.0883,-14.794047 0.0436,3.698512 0.20893,11.095535 h 0.41166 l 0.0512,-5.917617 0.0143,-16.273455 0.0297,22.191072 h 0.0617 0.35005 l 0.0473,-29.588097 0.0515,29.588097 h 1.44064 l 0.0503,-14.794047 0.004,-14.79405 0.0322,29.588097 h 0.0637 0.30004 l 0.0671,-29.588097 0.0377,20.341818 0.14634,9.246279 h 0.98747 l 0.0478,-29.588097 0.0629,29.588097 h 0.365 l 0.0378,-14.794047 0.0689,14.794047 h 0.39572 l 0.0958,-22.191072 h 0.0317 l 0.0763,18.492562 0.0395,-3.698512 0.0451,2.958812 0.0155,-4.808069 0.12143,9.246279 h 0.19006 l 0.12714,-9.246279 h 0.0159 l 0.0331,4.808069 0.0222,-4.808069 0.15852,1.849257 0.0513,-22.191075 0.0255,25.149887 0.0244,-2.958812 0.0181,4.438212 0.0558,-6.287469 0.0502,5.547769 0.10696,-5.547769 0.005,1.849257 0.014,3.698512 0.0214,-5.547769 0.0748,4.808069 0.0922,-6.657325 0.0151,5.177918 0.0179,3.698517 0.0914,-3.698517 0.0698,-38.464529 -0.0593,39.943936 0.10361,-10.355837 0.12739,-29.588099 0.0247,7.397025 0.13009,22.191074 0.0623,-29.588099 0.0491,7.397025 0.0747,32.546911 0.0476,-2.958812 0.0764,-14.79405 -0.0356,18.492562 0.0627,-0.7397 0.0412,-25.149887 0.006,-29.588099 0.084,53.258579 0.0158,-3.328662 h 0.002 l 0.0758,6.287469 0.0331,-2.958807 h 0.007 l 0.0291,2.958807 0.0321,-11.835237 0.004,-44.382149 0.0861,55.477686 0.0168,-2.219107 h 0.004 l 0.0149,2.958807 0.0217,-6.287469 h 0.0123 l 0.10679,-12.944793 -0.0561,17.752862 0.0584,-2.958812 0.008,1.479405 0.005,-31.067504 0.008,-7.397025 0.0383,41.423336 0.0239,-1.4794 0.0337,2.21911 0.0258,-3.698517 h 0.003 l 0.0516,-16.273455 0.0389,22.191072 0.007,-1.84925 0.0867,1.84925 -0.0395,-7.397022 0.0601,4.438212 0.0291,-8.136725 0.009,-33.286611 0.0853,42.163046 h 0.0133 10e-4 l 0.004,0.36985 0.0264,-7.397029 0.0462,4.808069 0.0623,-32.546911 9e-4,-22.191075 0.0601,54.737986 0.0414,-4.808069 0.0274,-5.547768 0.10271,14.794047 0.0712,-36.985121 0.0339,33.286611 0.0477,3.69851 0.0365,-4.43821 h 5.7e-4 l 0.0743,-17.752862 0.0299,17.752862 0.11366,4.43821 h 1.09615 l 0.0361,-29.588097 0.0771,25.889587 h 0.002 l 0.0326,-7.397025 0.036,11.095535 h 0.0244 1.14559 l 0.10499,-7.397022 0.006,1.479405 0.0669,2.219107 0.0107,-7.397025 0.0899,-25.889586 -0.0738,32.546911 0.0924,-17.752862 0.10573,19.232262 -0.0536,-41.423336 0.0616,40.683636 h 0.006 l 0.0181,1.47941 0.0331,-12.574947 0.0328,-14.79405 -0.0146,22.191075 h 0.0872 0.004 l 0.0802,1.479405 0.036,-23.67048 0.12347,29.588097 h 0.0283 l 0.11252,-44.382146 0.0191,22.191074 0.0625,18.492562 0.0181,-33.286611 0.032,25.889586 0.0565,5.177918 0.014,-23.67048 0.009,-7.397024 0.0882,33.286611 h 0.006 l 0.0853,-11.095537 0.027,7.397025 0.0912,2.958812 0.0107,-10.355837 0.003,-14.79405 0.0661,26.629287 0.0352,-2.958807 0.0605,-23.67048 -0.0373,27.738847 0.0827,-4.068367 0.10467,1.479407 -0.056,-17.752862 0.0613,16.273455 h 0.004 l 0.0829,3.698517 -0.0683,-7.027179 h 0.0854 l 0.0971,-20.341818 -0.0349,27.368997 0.0468,-2.21911 0.10615,4.43821 0.007,-2.95881 0.0824,-19.232262 0.0544,11.095537 0.018,-3.698512 0.0202,10.355837 h 0.039 l 0.0378,4.43821 0.0419,-9.246279 0.026,3.328662 0.0148,-23.67048 0.0187,27.368997 0.0744,-2.21911 0.0621,-25.149887 0.0228,25.889587 0.0176,-2.219107 0.0324,3.698517 0.027,-12.574947 0.0195,5.547768 0.004,-12.944793 0.099,22.191072 0.001,-4.43821 0.024,4.43821 10e-4,-5.917617 h 0.0516 l 0.027,2.219107 0.094,-11.095537 0.14128,14.794047 h 0.0309 l 0.11734,-44.382146 0.0107,7.397025 0.11064,31.067504 0.005,-5.177918 0.002,-18.492562 0.0174,25.889587 0.0857,-0.7397 0.011,1.4794 0.019,-6.287469 0.0572,-27.738842 0.044,36.985121 h 0.006 0.75304 l 0.11399,-36.985121 0.13736,36.985121 h 0.0403 l 0.0422,-44.382146 0.0578,38.464529 0.11358,5.917617 h 0.0503 l 0.03,-22.191072 0.0771,22.191072 h 0.28239 l 0.0448,-29.588097 0.0632,29.588097 0.0519,-9.246279 0.055,9.246279 h 0.38494 l 0.0648,-29.588097 0.003,7.397025 0.0713,11.095537 0.0365,-3.698512 0.0349,-59.176198 0.0386,73.970245 h 0.003 0.19888 l 0.0793,-29.588097 0.0422,20.341818 0.0787,-12.944793 0.0425,22.191072 h 0.53096 l 0.0817,-59.176196 0.0107,22.191075 0.15207,36.985121 h 0.61838 l 0.0214,-22.191072 0.0731,22.191072 h 4.30967 l 0.0217,-11.095535 0.0964,3.698513 0.11374,7.397022 h 0.93608 l 0.14904,-14.794047 0.0833,7.397025 -0.0273,-14.79405 0.0431,12.944793 0.0851,-12.944793 h 0.0605 l 0.0634,16.273455 0.0516,-5.177918 h 0.002 l 0.0618,8.876435 0.0114,-7.027179 0.0212,-12.944793 0.0825,17.752862 0.11995,-17.752862 0.0761,18.492562 0.0378,-2.219107 0.0697,-16.273455 0.0309,18.492562 h 0.0232 l 0.0949,3.69851 0.006,-5.917617 h 0.0359 l 0.009,-3.328662 0.006,-27.738842 0.06,34.766021 0.0401,-3.698517 0.009,-23.67048 0.036,25.149887 0.0487,-4.808069 h 0.0593 l 0.0629,9.246279 0.0496,-4.43821 0.0985,-17.752862 0.0145,16.273455 h 0.002 l 0.0222,-16.273455 0.0251,19.232262 0.0604,-4.438212 h 0.009 l 0.0123,2.958812 0.0329,-25.149887 0.0346,18.492562 0.0548,-3.698512 0.0264,8.87643 0.0138,-5.177918 0.0985,5.177918 0.009,-3.328662 0.0471,-27.738842 0.0895,14.794049 0.0201,12.944793 0.20035,9.246279 0.044,-22.191072 0.0706,12.944793 0.15362,9.246279 h 0.0191 l 0.008,-14.794047 0.0931,3.698512 0.023,1.849256 0.0147,-1.849256 h 0.0779 l 0.0535,3.698513 0.009,-1.849257 0.0419,-27.738842 0.0306,31.067504 0.0247,-1.479405 h 0.0255 l 0.0879,7.397022 h 0.0819 l 0.0964,-14.794047 0.0163,5.547768 0.0937,9.246279 0.0203,-14.794047 0.0638,14.794047 0.11586,-36.985121 0.006,-7.397025 0.0714,40.683636 0.0552,-7.397025 0.0483,1.849256 0.0737,9.246279 h 0.57581 l 0.0177,-14.794047 0.0868,14.794047 h 0.0716 l 0.0672,-11.095535 0.0832,1.849256 0.0164,4.808069 0.0102,-4.808069 0.0615,-5.547768 0.0816,14.794047 h 0.88346 l 0.0829,-22.191072 0.26524,22.191072 h 0.0981 l 0.0985,-22.191072 0.17511,16.273455 0.0634,-23.67048 0.0458,18.492562 0.0647,3.698513 0.0216,-3.698513 0.0467,-11.095537 0.0516,7.397025 0.0317,-29.588099 0.0623,29.588099 0.11292,14.794047 h 14.36867 l 0.009,-22.191072 0.39474,22.191072 h 14.0348 l 0.10892,-44.382146 0.20043,44.382146 h 24.14854 l 0.0294,-22.191072 0.0636,22.191072 h 0.82806 l 0.0322,-22.191072 0.0766,22.191072 h 0.078 l 0.0953,-22.191072 0.0185,14.79405 0.0202,4.438212 0.0483,-6.287469 0.0487,4.808069 h 0.006 l 0.0132,-17.752862 0.0722,22.191072 h 0.0159 0.80984 l 0.0802,-14.794047 0.0279,14.794047 h 0.2046 l 0.0518,-22.191072 0.0414,22.191072 h 3.8534 l 0.0428,-29.588097 0.0619,29.588097 h 1.30329 l 0.13392,-29.588097 0.12298,29.588097 h 0.26343 l 0.11227,-29.588097 0.12273,25.889587 0.015,-2.219107 0.0146,-3.328662 0.0407,9.246279 h 0.0235 0.31017 l 0.0172,-14.794047 0.0996,5.547768 0.0391,-5.547768 0.0188,7.397025 0.11815,7.397022 h 0.27046 l 0.0982,-22.191072 0.022,14.79405 0.11538,7.397022 h 0.17935 l 0.002,-9.246279 0.0835,9.246279 h 0.95928 l 0.12436,-29.588097 0.0126,7.397025 0.14029,22.191072 0.008,-22.191072 0.0978,22.191072 h 0.20199 l 0.0436,-9.246279 0.0451,9.246279 h 0.0249 l 0.0234,-7.397022 0.0787,7.397022 h 0.59919 l 0.0126,-11.095535 0.0973,11.095535 h 1.31105 l 0.0312,-22.191072 0.0773,22.191072 h 0.54517 l 0.094,-22.191072 0.0227,14.79405 0.1269,7.397022 h 0.0729 l 0.0508,-11.095535 0.0442,3.698513 0.0516,-14.79405 0.0168,16.273455 0.002,-1.479405 0.1309,7.397022 h 0.86858 l 0.0456,-29.588097 0.0539,29.588097 h 1.51875 l 0.0686,-14.794047 0.0367,14.794047 h 0.11799 l 0.0261,-22.191072 0.0997,16.273455 0.0359,-3.328662 0.0654,4.808069 0.0384,-4.808069 0.0449,5.547769 0.0161,-3.698512 0.0177,1.479405 0.0198,-3.328662 h 0.0404 l 0.0354,5.547769 0.0564,-11.095537 0.14716,14.794047 h 0.2618 l 0.0975,-44.382146 0.0391,29.588099 0.11252,14.794047 h 0.0467 l 0.0793,-14.794047 0.0287,7.397025 0.13597,7.397022 h 0.26441 l 0.024,-29.588097 0.0864,29.588097 h 0.17372 l 0.0579,-36.985121 0.0539,27.738842 0.0949,-5.547768 0.0325,14.794047 0.0938,-14.794047 0.12494,14.794047 0.0117,-3.69851 0.0827,0.7397 0.0331,-26.629287 0.0518,26.629287 0.0641,-4.438212 0.008,-7.397025 0.0333,14.794047 0.0613,-3.69851 0.10296,-18.492562 -0.0788,19.232262 0.0872,-4.438212 0.021,2.958812 0.0207,-10.355837 h 8e-5 l 0.0191,-14.79405 0.0641,25.889587 0.0217,-5.547769 0.10026,9.246279 -0.0745,-22.191072 0.0864,19.232262 h 0.0148 l 0.001,0.73971 0.0207,-5.177922 h 0.007 l 0.0342,-22.191075 0.0687,26.629287 0.002,-0.7397 h 8.1e-4 l 0.0781,-18.492562 0.0166,16.273455 0.12191,5.917617 h 0.0213 l 0.12624,-29.588097 6.5e-4,7.397025 h 0.0156 l 0.0295,12.944793 0.05,-49.929917 0.0115,36.985124 0.0441,-7.397025 0.13,25.889587 h 0.01 l 0.019,3.69851 0.0792,-9.246279 0.13384,7.027179 0.0213,-2.21911 0.0449,-10.355837 0.19104,14.794047 h 0.49402 l 0.042,-14.794047 0.005,3.698512 h 0.097 l 10e-4,-3.698512 0.14717,14.794047 0.0278,-7.397022 0.007,-7.397025 0.0505,14.794047 h 0.0188 0.0967 l 0.28051,-7.397022 0.0637,-7.397025 0.0145,8.87643 0.0281,-1.479405 h 0.01 l 0.0197,3.698512 0.003,-0.7397 0.0887,-25.149887 0.0159,22.191075 0.10876,7.397022 0.20877,-22.191072 0.007,12.944793 0.0116,-20.341818 0.0971,18.492562 0.0899,8.136725 0.0137,-2.958807 h 0.0199 l 0.12159,-16.273455 0.0128,7.397025 0.0874,7.397025 -0.0662,-22.191075 h 0.0756 l 0.0521,-7.397024 -0.0255,29.588099 h 0.0661 l 0.0851,1.479405 0.0897,-16.273455 0.0269,17.752862 0.004,-1.479407 0.0931,-23.67048 0.0584,7.397025 0.0271,16.273455 -0.0105,-23.67048 0.0856,7.397025 0.0115,-36.985124 0.0264,48.080661 0.0583,-3.698512 h 0.13515 l 0.007,-22.191074 0.0676,34.766021 0.0333,-3.698517 0.0645,-16.273455 0.0438,19.232262 0.0372,-19.232262 0.0333,22.191072 h 0.0365 0.0156 l 0.0675,-22.191072 6.5e-4,7.397025 h 0.0642 l 0.0879,12.944797 -0.0634,-27.738847 0.0815,25.149887 0.0977,-17.752862 0.0187,14.79405 0.0797,7.397022 0.0252,-11.095535 h 10e-4 l 0.0664,-11.095537 -0.0478,16.273455 0.0901,-1.479405 h 0.007 l 0.0556,3.698512 0.059,-25.889587 0.0628,25.149887 0.0422,-4.808069 h 0.007 l 0.11669,-5.547768 0.004,-14.79405 0.0898,27.368997 0.0139,-0.73971 h 0.009 l 0.10458,-26.629287 0.007,23.67048 0.0811,1.479407 -0.0306,-10.355837 0.0433,3.698512 0.0418,-18.492562 0.0366,25.889587 0.0295,-5.547769 0.057,-27.738842 0.0293,33.286611 0.0181,-3.698512 0.0333,3.698512 0.0225,-5.547769 h 0.0333 l 0.0741,-12.944793 -0.0352,17.752862 0.0679,-2.958812 0.09,1.479405 -0.0679,-8.87643 0.0731,3.698512 0.004,-18.492562 0.0437,25.149887 h 0.0613 0.001 l 0.0412,-17.752862 0.0719,16.273455 h 0.002 l 0.10287,-16.273455 -0.0815,17.752862 0.0937,-4.808069 0.0124,4.808069 0.0643,-25.149887 h 0.0207 0.003 l 0.0958,25.149887 0.008,-25.149887 0.015,22.191075 0.0974,-3.698513 0.009,-18.492562 0.004,22.191075 0.094,-7.397025 h 0.007 l 0.0297,-14.79405 0.0495,25.889587 0.0297,-11.095537 0.005,-14.79405 0.0923,29.588097 h 0.008 0.0539 l 0.0199,-2.95881 4.1e-4,0.73971 0.11276,-34.766021 0.0117,14.794049 h 0.008 l 0.0989,16.273455 -0.0605,-31.067504 0.0854,29.588099 0.0987,-14.79405 0.0134,12.944793 0.0861,-49.929917 0.0258,29.588099 0.10803,25.889587 0.0119,-3.698512 0.04,-29.588099 0.0874,7.397024 0.0556,25.149887 0.058,-17.752862 10e-4,-7.397025 0.0939,27.368997 0.009,-1.47941 0.0177,-0.7397 0.0333,-25.149887 0.0827,7.397025 0.11955,22.191072 h 0.21457 l 0.0447,-44.382146 0.0854,22.191074 0.075,19.971972 0.0384,-3.698517 h 0.003 l 0.1077,5.917617 0.003,-4.43821 0.0415,-25.149887 0.0272,29.588097 0.003,-7.397022 0.23802,7.397022 0.11758,-14.794047 0.10443,10.355837 -0.0521,-25.149887 0.0574,23.67048 0.0726,5.917617 0.0133,-9.246279 h 0.003 l 0.0957,-12.944793 -0.0405,18.492562 0.0498,-0.7397 h 0.002 l 0.0616,-17.752862 0.0417,14.79405 h 0.0133 l 0.0778,-14.79405 0.0263,17.752862 h 0.004 l 0.0395,-17.752862 0.062,19.971972 0.005,-0.73971 h 0.005 l 0.002,0.73971 0.0654,-27.368997 0.0145,14.79405 0.003,-7.397025 0.0523,19.232262 0.0526,-11.835237 0.0482,-7.397025 0.0673,22.191072 h 0.0707 l 0.0529,-59.176196 0.0671,53.258579 0.0804,5.917617 -0.0342,-7.397022 0.0634,1.479405 h 0.003 l 0.0464,5.917617 0.0574,-9.246279 0.0808,9.246279 0.0292,-11.095535 0.01,-18.492562 0.0927,26.629287 0.003,-0.7397 h 0.009 l 0.0636,-25.889587 0.0273,26.629287 0.0297,-11.835237 0.1095,12.574947 -0.0831,-27.368997 0.0867,25.889587 h 0.004 l 0.0809,-5.547769 -0.069,6.287469 0.0954,-1.4794 0.0479,-4.808069 0.0764,9.246279 h 0.009 l 0.0797,-29.588097 0.0455,23.67048 h 10e-4 l 0.10279,-16.273455 -0.0992,17.752862 0.10868,-2.958812 0.0449,-14.79405 0.0722,22.191072 h 0.22544 l 0.0346,-22.191072 0.0716,22.191072 h 0.32586 l 0.1104,-29.588097 0.008,22.191075 h 0.002 l 0.0624,2.958812 -0.048,-17.752862 0.0694,7.397025 0.0985,-14.79405 -0.0181,25.889587 0.0295,-7.397025 h 0.001 l 0.0992,8.876435 -0.0554,-34.766021 0.069,29.588099 h 0.002 l 0.0964,3.698512 -0.0874,-25.889587 h 0.0966 l 0.003,-7.397024 0.0457,33.286611 0.0535,-2.219107 h 3.3e-4 l 0.0163,3.698517 0.0748,-34.766021 0.0164,27.738842 0.0759,-27.738842 -0.0441,31.067504 0.0797,-5.177918 h 0.002 l 0.0839,8.136725 -0.0145,-19.232262 0.0231,11.095537 0.0255,-25.889586 -0.0132,31.067504 0.081,-5.177918 h 0.0338 l 0.0263,-18.492562 0.031,25.149887 0.0309,-1.479407 0.0245,1.479407 0.0197,-4.808069 0.0148,1.849257 0.0179,-22.191075 0.0922,22.191075 h 0.002 l 0.11545,-36.985124 -0.064,38.464529 0.0745,-16.273455 0.09,-22.191074 -0.0637,35.135867 0.0736,-20.341818 0.0157,25.149887 0.0632,-6.657325 0.0961,-11.095537 -0.0306,12.944793 0.045,-1.849256 0.0688,7.397025 0.008,1.47941 0.0237,-19.971972 0.0422,14.79405 0.005,-29.588099 0.0851,33.286611 0.0207,-3.698512 h 0.003 l 0.0543,-22.191075 0.0392,26.629287 0.0256,-11.835237 0.0871,11.835237 -0.0697,-19.232262 0.0819,7.397025 0.0865,-14.79405 -0.0438,25.149887 0.061,-6.657325 0.0799,7.397025 -0.0314,-18.492562 0.0636,12.944793 h 0.003 l 0.10133,5.547769 -0.077,-18.492562 0.0862,16.273455 h 0.002 l 0.01,-1.479405 0.0198,7.397022 h 0.0779 0.39213 l 0.0578,-44.382146 0.0539,22.191074 0.0813,17.752862 -0.0603,-32.546911 0.0806,7.397024 0.15297,27.368997 0.004,-2.21911 0.10517,-17.752862 -0.0796,22.191072 0.0842,-9.246279 0.11979,9.246279 h 0.0861 l 0.0362,-29.588097 0.0747,29.588097 h 0.36704 l 0.0547,-29.588097 0.0596,25.149887 h 0.003 l 0.034,4.43821 0.0234,-5.917617 0.008,-5.177918 0.0716,11.095535 0.0197,-3.69851 0.0182,-2.219107 0.0128,-53.258579 0.0579,56.957096 0.0342,-2.21911 h 0.005 l 0.0645,2.21911 0.0507,-34.766021 0.11382,36.985121 h 0.67763 l 0.0358,-36.985121 0.073,36.985121 h 0.0672 l 0.0731,-22.191072 0.0418,16.273455 h 8.2e-4 l 0.0619,-16.273455 -0.045,17.752862 h 0.0872 l 0.007,0.7397 0.0842,-25.889587 0.0164,27.368997 0.0112,-2.21911 0.0246,-4.808069 0.0909,9.246279 0.0765,-14.794047 0.0392,7.397025 h 0.011 l 0.12993,7.397022 h 0.32095 l 0.0306,-7.397022 0.0793,7.397022 h 0.003 l 0.0414,-29.588097 0.0694,29.588097 h 0.0165 l 0.10949,-22.191072 0.0126,17.752862 h 0.003 l 0.10394,-10.355837 -0.0581,11.835237 0.0735,-6.287469 0.0803,3.328662 -0.0654,-8.87643 0.0917,3.698512 0.0267,-11.095537 0.0391,17.752862 0.0277,-4.808069 0.022,4.808069 0.039,-6.657325 0.0887,-25.889586 -0.0522,31.067504 0.0733,-1.479405 h 0.005 l 0.0285,-14.79405 0.0772,19.232262 h 4.1e-4 0.006 l 0.0414,2.95881 0.0266,-9.246279 0.0423,4.808069 0.11137,-32.546911 -0.0844,34.026311 0.09,-8.136725 0.0991,6.657325 -0.0248,-39.943936 0.0366,36.985124 0.0955,7.397022 h 0.13923 l 0.0366,-29.588097 0.0667,29.588097 h 0.28035 l 0.0707,-22.191072 0.0382,22.191072 h 0.80142 l 0.0214,-22.191072 0.0695,22.191072 h 0.24104 l 0.0349,-29.588097 0.0534,29.588097 h 1.36669 l 0.0504,-44.382146 0.091,29.588099 0.0576,11.835237 0.0369,-2.958807 0.0691,-31.067504 0.0269,29.588099 0.15231,7.397022 h 0.0557 l 0.0561,-11.095535 0.0539,11.095535 h 0.38257 l 0.11178,-22.191072 0.006,12.944793 0.10737,9.246279 h 1.06363 l 0.0942,-11.095535 0.009,5.177918 0.0252,3.698517 0.0232,-7.027179 h 10e-4 l 0.006,-12.944793 0.0413,22.191072 h 0.0496 0.31181 l 0.10639,-36.985121 0.12567,36.985121 h 5.2714 l 0.0694,-14.794047 0.008,5.547768 0.22046,9.246279 h 7.81988 l 0.0444,-22.191072 0.0747,12.944793 0.0425,1.849257 0.0342,-14.79405 0.11611,22.191072 h 0.91695 l 0.0118,-11.095535 0.0994,7.397025 0.0191,-2.219107 0.0118,-23.67048 0.0912,25.149887 0.17037,4.43821 h 4.56558 l 0.0563,-44.382146 0.0434,38.464529 0.0225,2.958807 0.0148,-8.136725 0.0603,3.698513 h 7.4e-4 l 0.0136,-1.849257 0.13229,9.246279 h 1.8836 l 0.0298,-22.191072 0.0608,22.191072 h 0.0289 l 0.14308,-9.246279 0.0763,7.027179 0.0203,-8.876435 0.006,1.849256 0.009,-5.547768 0.0588,12.944797 0.0417,-7.397029 0.12362,9.246279 h 4.08963 l 0.0234,-22.191072 0.085,22.191072 h 27.2082 l 0.0529,-44.382146 0.0301,22.191074 0.18082,22.191072 h 0.70051 l 0.18066,-29.588097 0.0512,-29.588099 0.16743,59.176196 h 8.6932 l 0.0571,-29.588097 0.0449,29.588097 h 0.74806 l 0.0419,-22.191072 0.0587,18.492562 0.0741,3.69851 h 0.8998 l 0.0113,-29.588097 0.0734,29.588097 h 12.00951 l 0.0306,-22.191072 0.0554,22.191072 h 12.07325 l 0.0936,-36.985121 0.0161,25.889586 0.20461,11.095535 h 14.40372 l 0.15345,-44.382146 0.16089,44.382146 h 5.79255 l 0.0569,-14.794047 0.0481,14.794047 h 6.88813 l 0.0521,-59.176196 0.0626,49.929917 0.0159,-5.547768 0.0541,14.794047 h 22.51931 v 0"
           clip-path="url(#p915040bf89)"
           style="fill:none;stroke:#000000;stroke-width:1.5;stroke-linecap:square"
           id="path142" />
      </g>
    </g>
  </g>
  <defs
     id="defs242">
    <clipPath
       id="p915040bf89">
      <rect
         x="54.110001"
         y="26.16"
         width="571.97498"
         height="111.88"
         id="rect242" />
    </clipPath>
  </defs>
</svg>
