<?xml version="1.0" encoding="UTF-8" standalone="no"?>
<svg
   width="750pt"
   height="180pt"
   viewBox="0 0 750 180"
   version="1.1"
   id="svg232"
   sodipodi:docname="result_lct_3.svg"
   inkscape:version="1.3.2 (091e20e, 2023-11-25)"
   xmlns:inkscape="http://www.inkscape.org/namespaces/inkscape"
   xmlns:sodipodi="http://sodipodi.sourceforge.net/DTD/sodipodi-0.dtd"
   xmlns="http://www.w3.org/2000/svg"
   xmlns:svg="http://www.w3.org/2000/svg"
   xmlns:rdf="http://www.w3.org/1999/02/22-rdf-syntax-ns#"
   xmlns:cc="http://creativecommons.org/ns#"
   xmlns:dc="http://purl.org/dc/elements/1.1/">
  <sodipodi:namedview
     id="namedview232"
     pagecolor="#ffffff"
     bordercolor="#000000"
     borderopacity="0.25"
     inkscape:showpageshadow="2"
     inkscape:pageopacity="0.0"
     inkscape:pagecheckerboard="0"
     inkscape:deskcolor="#d1d1d1"
     inkscape:document-units="pt"
     inkscape:zoom="0.68031161"
     inkscape:cx="495.36123"
     inkscape:cy="72.025817"
     inkscape:window-width="1312"
     inkscape:window-height="449"
     inkscape:window-x="62"
     inkscape:window-y="25"
     inkscape:window-maximized="0"
     inkscape:current-layer="axes_1" />
  <metadata
     id="metadata1">
    <rdf:RDF>
      <cc:Work>
        <dc:type
           rdf:resource="http://purl.org/dc/dcmitype/StillImage" />
        <dc:date>2024-07-05T20:51:09.096844</dc:date>
        <dc:format>image/svg+xml</dc:format>
        <dc:creator>
          <cc:Agent>
            <dc:title>Matplotlib v3.8.0, https://matplotlib.org/</dc:title>
          </cc:Agent>
        </dc:creator>
      </cc:Work>
    </rdf:RDF>
  </metadata>
  <defs
     id="defs1">
    <style
       type="text/css"
       id="style1">*{stroke-linejoin: round; stroke-linecap: butt}</style>
    <path
       id="path242"
       d="M 1831,0 50,4666 H 709 L 2188,738 3669,4666 h 656 L 2547,0 Z"
       transform="scale(0.015625)" />
    <path
       id="path243"
       d="M 3809,666 V 1919 H 2778 v 519 H 4434 V 434 Q 4069,175 3628,42 3188,-91 2688,-91 1594,-91 976,548 359,1188 359,2328 q 0,1144 617,1783 618,639 1712,639 456,0 867,-113 411,-112 758,-331 v -672 q -350,297 -744,447 -394,150 -828,150 -857,0 -1287,-478 -429,-478 -429,-1425 0,-944 429,-1422 430,-478 1287,-478 334,0 596,58 263,58 472,180 z"
       transform="scale(0.015625)" />
    <path
       id="path244"
       d="m 213,4666 h 637 l 981,-3944 978,3944 h 710 l 981,-3944 978,3944 h 641 L 4947,0 H 4153 L 3169,4050 2175,0 h -794 z"
       transform="scale(0.015625)" />
    <path
       id="path245"
       d="m 3425,4513 v -616 q -359,172 -678,256 -319,85 -616,85 -515,0 -795,-200 -280,-200 -280,-569 0,-310 186,-468 186,-157 705,-254 l 381,-78 q 706,-135 1042,-474 336,-339 336,-907 0,-679 -455,-1029 -454,-350 -1332,-350 -331,0 -705,75 -373,75 -773,222 v 650 q 384,-215 753,-325 369,-109 725,-109 540,0 834,212 294,213 294,607 0,343 -211,537 -211,194 -692,291 l -385,75 q -706,140 -1022,440 -315,300 -315,835 0,619 436,975 436,356 1201,356 329,0 669,-60 341,-59 697,-177 z"
       transform="scale(0.015625)" />
    <path
       id="path246"
       d="M 628,4666 H 3309 V 4134 H 1259 V 2759 H 3109 V 2228 H 1259 V 0 H 628 Z"
       transform="scale(0.015625)" />
    <path
       id="path247"
       d="m 2906,2969 v 1894 h 575 V 0 H 2906 V 525 Q 2725,213 2448,61 2172,-91 1784,-91 1150,-91 751,415 353,922 353,1747 q 0,825 398,1331 399,506 1033,506 388,0 664,-152 277,-151 458,-463 z M 947,1747 q 0,-634 261,-995 261,-361 717,-361 456,0 718,361 263,361 263,995 0,634 -263,995 -262,361 -718,361 -456,0 -717,-361 -261,-361 -261,-995 z"
       transform="scale(0.015625)" />
    <path
       id="path248"
       d="m 1556,2509 q -284,-253 -417,-505 -133,-251 -133,-526 0,-456 331,-759 332,-303 832,-303 297,0 556,98 259,99 488,299 z m 441,350 1587,-1625 q 185,279 288,596 103,317 122,673 h 581 Q 4538,2091 4375,1687 4213,1284 3922,891 L 4794,0 H 4006 L 3559,459 Q 3234,181 2878,45 2522,-91 2113,-91 1359,-91 881,339 403,769 403,1441 q 0,400 209,751 210,352 629,661 -150,197 -229,392 -78,196 -78,383 0,506 347,814 347,308 922,308 260,0 517,-56 258,-56 524,-169 v -569 q -272,147 -519,223 -247,77 -459,77 -328,0 -533,-174 -205,-173 -205,-448 0,-159 92,-320 93,-161 377,-455 z"
       transform="scale(0.015625)" />
    <path
       id="path249"
       d="M -19,4666 H 3928 V 4134 H 2272 V 0 H 1638 V 4134 H -19 Z"
       transform="scale(0.015625)" />
    <path
       id="path250"
       d="m 628,4666 h 631 V 0 H 628 Z"
       transform="scale(0.015625)" />
    <path
       id="path251"
       d="m 2906,1791 q 0,625 -258,968 -257,344 -723,344 -462,0 -720,-344 -258,-343 -258,-968 0,-622 258,-966 258,-344 720,-344 466,0 723,344 258,344 258,966 z M 3481,434 q 0,-893 -397,-1329 -396,-436 -1215,-436 -303,0 -572,45 -269,45 -522,139 v 559 q 253,-137 500,-202 247,-66 503,-66 566,0 847,295 281,295 281,892 V 616 Q 2728,306 2450,153 2172,0 1784,0 1141,0 747,490 353,981 353,1791 q 0,812 394,1302 394,491 1037,491 388,0 666,-153 278,-153 456,-462 v 531 h 575 z"
       transform="scale(0.015625)" />
    <path
       id="path252"
       d="M 313,2009 H 1997 V 1497 H 313 Z"
       transform="scale(0.015625)" />
    <path
       id="path253"
       d="M 1259,4147 V 2394 h 794 q 441,0 681,228 241,228 241,650 0,419 -241,647 -240,228 -681,228 z m -631,519 h 1425 q 785,0 1186,-355 402,-355 402,-1039 0,-691 -402,-1044 -401,-353 -1186,-353 H 1259 V 0 H 628 Z"
       transform="scale(0.015625)" />
    <path
       id="path254"
       d="m 703,97 v 575 q 238,-113 481,-172 244,-59 479,-59 625,0 954,420 330,420 377,1277 -181,-269 -460,-413 -278,-144 -615,-144 -700,0 -1108,423 -408,424 -408,1159 0,718 425,1152 425,435 1131,435 810,0 1236,-621 427,-620 427,-1801 Q 3622,1225 3098,567 2575,-91 1691,-91 1453,-91 1209,-44 966,3 703,97 Z m 1256,1978 q 425,0 673,290 249,291 249,798 0,503 -249,795 -248,292 -673,292 -425,0 -673,-292 -248,-292 -248,-795 0,-507 248,-798 248,-290 673,-290 z"
       transform="scale(0.015625)" />
  </defs>
  <g
     id="figure_1">
    <g
       id="patch_1" />
    <g
       id="axes_1">
      <g
         id="patch_2" />
      <g
         id="line2d_24">
        <path
           clip-path="url(#p0268068d8f)"
           style="fill:none;stroke:#0000ff;stroke-width:2;stroke-linecap:square"
           id="path212" />
      </g>
      <g
         id="line2d_25">
        <path
           clip-path="url(#p0268068d8f)"
           style="fill:none;stroke:#0000ff;stroke-width:2;stroke-linecap:square"
           id="path213" />
      </g>
      <g
         id="line2d_26">
        <path
           d="m 222.04902,122.49594 h 12.16059"
           clip-path="url(#p0268068d8f)"
           style="fill:none;stroke:#0000ff;stroke-width:2;stroke-linecap:square"
           id="path214" />
      </g>
      <g
         id="line2d_27">
        <path
           d="m 240.39209,122.49594 h 83.71822"
           clip-path="url(#p0268068d8f)"
           style="fill:none;stroke:#0000ff;stroke-width:2;stroke-linecap:square"
           id="path215" />
      </g>
      <g
         id="text_21">
        <!-- LCT Region -->
      </g>
    </g>
  </g>
  <g
     id="text_25"
     style="stroke-linecap:butt;stroke-linejoin:round"
     transform="matrix(0.67940227,0,0,0.67940227,248.38352,44.729181)">
    <!-- Murga-Moreno et al. 2019 -->
    <g
       transform="matrix(0.1,0,0,-0.1,570.65,117.19656)"
       id="g463"
       style="stroke-linecap:butt;stroke-linejoin:round">
      <defs
         id="defs439">
        <path
           id="path257"
           d="m 703,97 v 575 q 238,-113 481,-172 244,-59 479,-59 625,0 954,420 330,420 377,1277 -181,-269 -460,-413 -278,-144 -615,-144 -700,0 -1108,423 -408,424 -408,1159 0,718 425,1152 425,435 1131,435 810,0 1236,-621 427,-620 427,-1801 Q 3622,1225 3098,567 2575,-91 1691,-91 1453,-91 1209,-44 966,3 703,97 Z m 1256,1978 q 425,0 673,290 249,291 249,798 0,503 -249,795 -248,292 -673,292 -425,0 -673,-292 -248,-292 -248,-795 0,-507 248,-798 248,-290 673,-290 z"
           transform="scale(0.015625)" />
      </defs>
      <path
         id="use440"
         d="M 9.8125,72.90625 H 24.515625 L 43.109375,23.296875 61.8125,72.90625 H 76.515625 V 0 h -9.625 v 64.015625 l -18.796875,-50 H 38.1875 l -18.796875,50 V 0 H 9.8125 Z"
         style="stroke-width:0.015625" />
      <path
         id="use441"
         d="M 94.779297,21.578125 V 54.6875 h 8.984373 V 21.921875 q 0,-7.765625 3.01563,-11.65625 3.03125,-3.875 9.09375,-3.875 7.26562,0 11.48437,4.640625 4.23438,4.640625 4.23438,12.65625 v 31 h 8.98437 V 0 H 131.5918 V 8.40625 Q 128.32617,3.421875 123.99805,1 q -4.3125,-2.421875 -10.03125,-2.421875 -9.42188,0 -14.312503,5.859375 -4.875,5.859375 -4.875,17.140625 z M 117.38867,56 Z"
         style="stroke-width:0.015625" />
      <path
         id="use442"
         d="m 190.76758,46.296875 q -1.51563,0.875 -3.29688,1.28125 Q 185.68945,48 183.54883,48 175.92383,48 171.8457,43.046875 167.76758,38.09375 167.76758,28.8125 V 0 h -9.03125 v 54.6875 h 9.03125 v -8.5 q 2.84375,4.984375 7.375,7.390625 Q 179.68945,56 186.18945,56 q 0.92188,0 2.04688,-0.125 1.125,-0.109375 2.48437,-0.359375 z"
         style="stroke-width:0.015625" />
      <path
         id="use443"
         d="m 234.42773,27.984375 q 0,9.765625 -4.03125,15.125 -4.01562,5.375 -11.29687,5.375 -7.21875,0 -11.25,-5.375 -4.03125,-5.359375 -4.03125,-15.125 0,-9.71875 4.03125,-15.09375 4.03125,-5.375 11.25,-5.375 7.28125,0 11.29687,5.375 4.03125,5.375 4.03125,15.09375 z M 243.41211,6.78125 q 0,-13.953125 -6.20313,-20.765625 -6.1875,-6.8125 -18.98437,-6.8125 -4.73438,0 -8.9375,0.703125 -4.20313,0.703125 -8.15625,2.171875 V -9.1875 q 3.95312,-2.140625 7.8125,-3.15625 3.85937,-1.03125 7.85937,-1.03125 8.84375,0 13.23438,4.609375 4.39062,4.609375 4.39062,13.9375 V 9.625 Q 231.64648,4.78125 227.30273,2.390625 222.95898,0 216.89648,0 q -10.04687,0 -16.20312,7.65625 -6.15625,7.671875 -6.15625,20.328125 0,12.6875 6.15625,20.34375 Q 206.84961,56 216.89648,56 q 6.0625,0 10.40625,-2.390625 4.34375,-2.390625 7.125,-7.21875 V 54.6875 h 8.98438 z"
         style="stroke-width:0.015625;stroke-linecap:butt;stroke-linejoin:round" />
      <path
         id="use444"
         d="m 286.7793,27.484375 q -10.89063,0 -15.09375,-2.484375 -4.20313,-2.484375 -4.20313,-8.5 0,-4.78125 3.15625,-7.59375 3.15625,-2.796875 8.5625,-2.796875 7.48438,0 12,5.296875 4.51563,5.296875 4.51563,14.078125 v 2 z m 17.92187,3.71875 V 0 h -8.98437 v 8.296875 q -3.07813,-4.96875 -7.67188,-7.34375 -4.59375,-2.375 -11.23437,-2.375 -8.39063,0 -13.35938,4.71875 -4.95312,4.71875 -4.95312,12.625 0,9.21875 6.17187,13.90625 6.1875,4.6875 18.4375,4.6875 h 12.60938 v 0.890625 q 0,6.203125 -4.07813,9.59375 -4.07812,3.390625 -11.45312,3.390625 -4.6875,0 -9.14063,-1.125 -4.4375,-1.125 -8.53125,-3.375 v 8.3125 q 4.92188,1.90625 9.5625,2.84375 Q 276.7168,56 281.10742,56 q 11.875,0 17.73438,-6.15625 5.85937,-6.140625 5.85937,-18.640625 z"
         style="stroke-width:0.015625" />
      <path
         id="use445"
         d="m 318.66797,31.390625 h 26.3125 v -8 h -26.3125 z"
         style="stroke-width:0.015625;stroke-linecap:butt;stroke-linejoin:round" />
      <path
         id="use446"
         d="m 359.67383,72.90625 h 14.70312 L 392.9707,23.296875 411.67383,72.90625 h 14.70312 V 0 h -9.625 v 64.015625 l -18.79687,-50 h -9.90625 l -18.79688,50 V 0 h -9.57812 z"
         style="stroke-width:0.015625" />
      <path
         id="use447"
         d="m 466.75,48.390625 q -7.21875,0 -11.42188,-5.640625 -4.20312,-5.640625 -4.20312,-15.453125 0,-9.8125 4.17187,-15.453125 4.1875,-5.640625 11.45313,-5.640625 7.1875,0 11.375,5.65625 4.20312,5.671875 4.20312,15.4375 0,9.71875 -4.20312,15.40625 -4.1875,5.6875 -11.375,5.6875 z M 466.75,56 q 11.71875,0 18.40625,-7.625 6.70312,-7.609375 6.70312,-21.078125 0,-13.421875 -6.70312,-21.078125 -6.6875,-7.640625 -18.40625,-7.640625 -11.76563,0 -18.4375,7.640625 -6.65625,7.65625 -6.65625,21.078125 0,13.46875 6.65625,21.078125 Q 454.98437,56 466.75,56 Z"
         style="stroke-width:0.015625" />
      <path
         id="use448"
         d="m 538.43164,46.296875 q -1.51562,0.875 -3.29687,1.28125 Q 533.35352,48 531.21289,48 523.58789,48 519.50977,43.046875 515.43164,38.09375 515.43164,28.8125 V 0 h -9.03125 v 54.6875 h 9.03125 v -8.5 q 2.84375,4.984375 7.375,7.390625 Q 527.35352,56 533.85352,56 q 0.92187,0 2.04687,-0.125 1.125,-0.109375 2.48438,-0.359375 z"
         style="stroke-width:0.015625" />
      <path
         id="use449"
         d="m 592.38867,29.59375 v -4.390625 h -41.3125 q 0.59375,-9.28125 5.59375,-14.140625 5,-4.859375 13.9375,-4.859375 5.17188,0 10.03125,1.265625 4.85938,1.265625 9.65625,3.8125 v -8.5 q -4.84375,-2.046875 -9.92187,-3.125 -5.07813,-1.078125 -10.29688,-1.078125 -13.09375,0 -20.73437,7.609375 -7.64063,7.625 -7.64063,20.625 0,13.421875 7.25,21.296875 Q 556.20117,56 568.51367,56 q 11.03125,0 17.45313,-7.109375 6.42187,-7.09375 6.42187,-19.296875 z m -8.98437,2.640625 q -0.0937,7.359375 -4.125,11.75 -4.03125,4.40625 -10.67188,4.40625 -7.51562,0 -12.03125,-4.25 -4.51562,-4.25 -5.20312,-11.96875 z"
         style="stroke-width:0.015625" />
      <path
         id="use450"
         d="M 652.59961,33.015625 V 0 h -8.98438 v 32.71875 q 0,7.765625 -3.03125,11.609375 -3.03125,3.859375 -9.07812,3.859375 -7.28125,0 -11.48438,-4.640625 -4.20312,-4.625 -4.20312,-12.640625 V 0 h -9.03125 v 54.6875 h 9.03125 v -8.5 q 3.23437,4.9375 7.59375,7.375 4.375,2.4375 10.09375,2.4375 9.42187,0 14.25,-5.828125 4.84375,-5.828125 4.84375,-17.15625 z"
         style="stroke-width:0.015625" />
      <path
         id="use451"
         d="m 691.69727,48.390625 q -7.21875,0 -11.42188,-5.640625 -4.20312,-5.640625 -4.20312,-15.453125 0,-9.8125 4.17187,-15.453125 4.1875,-5.640625 11.45313,-5.640625 7.1875,0 11.375,5.65625 4.20312,5.671875 4.20312,15.4375 0,9.71875 -4.20312,15.40625 -4.1875,5.6875 -11.375,5.6875 z m 0,7.609375 q 11.71875,0 18.40625,-7.625 6.70312,-7.609375 6.70312,-21.078125 0,-13.421875 -6.70312,-21.078125 -6.6875,-7.640625 -18.40625,-7.640625 -11.76563,0 -18.4375,7.640625 -6.65625,7.65625 -6.65625,21.078125 0,13.46875 6.65625,21.078125 6.67187,7.625 18.4375,7.625 z"
         style="stroke-width:0.015625" />
      <path
         id="use452"
         d=""
         style="stroke-width:0.015625" />
      <path
         id="use453"
         d="m 810.25977,29.59375 v -4.390625 h -41.3125 q 0.59375,-9.28125 5.59375,-14.140625 5,-4.859375 13.9375,-4.859375 5.17187,0 10.03125,1.265625 4.85937,1.265625 9.65625,3.8125 v -8.5 q -4.84375,-2.046875 -9.92188,-3.125 -5.07812,-1.078125 -10.29687,-1.078125 -13.09375,0 -20.73438,7.609375 -7.64062,7.625 -7.64062,20.625 0,13.421875 7.25,21.296875 Q 774.07227,56 786.38477,56 q 11.03125,0 17.45312,-7.109375 6.42188,-7.09375 6.42188,-19.296875 z m -8.98438,2.640625 q -0.0937,7.359375 -4.125,11.75 -4.03125,4.40625 -10.67187,4.40625 -7.51563,0 -12.03125,-4.25 -4.51563,-4.25 -5.20313,-11.96875 z"
         style="stroke-width:0.015625" />
      <path
         id="use454"
         d="M 833.89258,70.21875 V 54.6875 h 18.5 v -6.984375 h -18.5 v -29.6875 q 0,-6.6875 1.82812,-8.59375 1.82813,-1.90625 7.45313,-1.90625 h 9.21875 V 0 h -9.21875 q -10.40625,0 -14.35938,3.875 -3.95312,3.890625 -3.95312,14.140625 v 29.6875 h -6.59375 V 54.6875 h 6.59375 v 15.53125 z"
         style="stroke-width:0.015625" />
      <path
         id="use455"
         d=""
         style="stroke-width:0.015625" />
      <path
         id="use456"
         d="m 920.85742,27.484375 q -10.89062,0 -15.09375,-2.484375 -4.20312,-2.484375 -4.20312,-8.5 0,-4.78125 3.15625,-7.59375 3.15625,-2.796875 8.5625,-2.796875 7.48437,0 12,5.296875 4.51562,5.296875 4.51562,14.078125 v 2 z m 17.92188,3.71875 V 0 h -8.98438 v 8.296875 q -3.07812,-4.96875 -7.67187,-7.34375 -4.59375,-2.375 -11.23438,-2.375 -8.39062,0 -13.35937,4.71875 -4.95313,4.71875 -4.95313,12.625 0,9.21875 6.17188,13.90625 6.1875,4.6875 18.4375,4.6875 h 12.60937 v 0.890625 q 0,6.203125 -4.07812,9.59375 -4.07813,3.390625 -11.45313,3.390625 -4.6875,0 -9.14062,-1.125 -4.4375,-1.125 -8.53125,-3.375 v 8.3125 q 4.92187,1.90625 9.5625,2.84375 Q 910.79492,56 915.18555,56 q 11.875,0 17.73437,-6.15625 5.85938,-6.140625 5.85938,-18.640625 z"
         style="stroke-width:0.015625" />
      <path
         id="use457"
         d="m 957.27734,75.984375 h 8.98438 V 0 h -8.98438 z"
         style="stroke-width:0.015625" />
      <path
         id="use458"
         d="m 986.32617,12.40625 h 10.3125 V 0 h -10.3125 z"
         style="stroke-width:0.015625" />
      <path
         id="use459"
         d=""
         style="stroke-width:0.015625" />
      <path
         id="use460"
         d="m 1058.4004,8.296875 h 34.4219 V 0 h -46.2813 v 8.296875 q 5.6094,5.8125 15.2969,15.59375 9.7031,9.796875 12.1875,12.640625 4.7344,5.3125 6.6094,9 1.8906,3.6875 1.8906,7.25 0,5.8125 -4.0781,9.46875 -4.0782,3.671875 -10.625,3.671875 -4.6407,0 -9.7969,-1.609375 -5.1406,-1.609375 -11,-4.890625 v 9.96875 q 5.9531,2.390625 11.125,3.609375 5.1875,1.21875 9.4844,1.21875 11.3281,0 18.0625,-5.671875 6.7343,-5.65625 6.7343,-15.125 0,-4.5 -1.6875,-8.53125 -1.6718,-4.015625 -6.125,-9.484375 -1.2187,-1.421875 -7.7656,-8.1875 -6.5312,-6.765625 -18.4531,-18.921875 z"
         style="stroke-width:0.015625" />
      <path
         id="use461"
         d="m 1134.6172,66.40625 q -7.6094,0 -11.4531,-7.5 -3.8282,-7.484375 -3.8282,-22.53125 0,-14.984375 3.8282,-22.484375 3.8437,-7.5 11.4531,-7.5 7.6719,0 11.5,7.5 3.8437,7.5 3.8437,22.484375 0,15.046875 -3.8437,22.53125 -3.8281,7.5 -11.5,7.5 z m 0,7.8125 q 12.2656,0 18.7344,-9.703125 6.4687,-9.6875 6.4687,-28.140625 0,-18.40625 -6.4687,-28.109375 -6.4688,-9.6875 -18.7344,-9.6875 -12.25,0 -18.7188,9.6875 -6.4687,9.703125 -6.4687,28.109375 0,18.453125 6.4687,28.140625 6.4688,9.703125 18.7188,9.703125 z"
         style="stroke-width:0.015625" />
      <path
         id="use462"
         d="m 1178.8652,8.296875 h 16.1094 v 55.625 l -17.5312,-3.515625 v 8.984375 l 17.4375,3.515625 h 9.8593 V 8.296875 h 16.1094 V 0 h -41.9844 z"
         style="stroke-width:0.015625" />
      <path
         id="use463"
         d="M 1241.0664,1.515625 V 10.5 q 3.7188,-1.765625 7.5156,-2.6875 3.8125,-0.921875 7.4844,-0.921875 9.7656,0 14.9063,6.5625 5.1562,6.5625 5.8906,19.953125 -2.8281,-4.203125 -7.1875,-6.453125 -4.3438,-2.25 -9.6094,-2.25 -10.9375,0 -17.3125,6.609375 -6.375,6.625 -6.375,18.109375 0,11.21875 6.6406,18 6.6407,6.796875 17.6719,6.796875 12.6563,0 19.3125,-9.703125 6.6719,-9.6875 6.6719,-28.140625 0,-17.234375 -8.1875,-27.515625 -8.1719,-10.28125 -21.9844,-10.28125 -3.7187,0 -7.5312,0.734375 -3.7969,0.734375 -7.9063,2.203125 z m 19.625,30.90625 q 6.6406,0 10.5156,4.53125 3.8907,4.546875 3.8907,12.46875 0,7.859375 -3.8907,12.421875 -3.875,4.5625 -10.5156,4.5625 -6.6406,0 -10.5156,-4.5625 -3.875,-4.5625 -3.875,-12.421875 0,-7.921875 3.875,-12.46875 3.875,-4.53125 10.5156,-4.53125 z"
         style="stroke-width:0.015625" />
    </g>
  </g>
  <defs
     id="defs232">
    <clipPath
       id="p0268068d8f">
      <rect
         x="54.110001"
         y="26.16"
         width="568.80249"
         height="111.88"
         id="rect232" />
    </clipPath>
  </defs>
</svg>
