<?xml version="1.0" encoding="UTF-8" standalone="no"?>
<!-- Created for MapSVG plugin: http://mapsvg.com -->

<svg
   mapsvg:geoViewBox="-169.110266 83.600842 190.486279 -58.508473"
   width="100"
   height="50"
   version="1.1"
   id="svg1"
   sodipodi:docname="world_label.svg"
   inkscape:version="1.3.2 (091e20e, 2023-11-25)"
   xmlns:inkscape="http://www.inkscape.org/namespaces/inkscape"
   xmlns:sodipodi="http://sodipodi.sourceforge.net/DTD/sodipodi-0.dtd"
   xmlns="http://www.w3.org/2000/svg"
   xmlns:svg="http://www.w3.org/2000/svg"
   xmlns:mapsvg="http://mapsvg.com">
  <defs
     id="defs1">
    <clipPath
       clipPathUnits="userSpaceOnUse"
       id="clipPath20">
      <path
         d="M 174.56,19.02 H 567.14 V 550.84 H 174.56 Z"
         id="path20" />
    </clipPath>
    <clipPath
       clipPathUnits="userSpaceOnUse"
       id="clipPath22">
      <path
         d="M 174.56,19.02 H 567.14 V 550.84 H 174.56 Z"
         id="path22" />
    </clipPath>
    <clipPath
       clipPathUnits="userSpaceOnUse"
       id="clipPath24">
      <path
         d="M 174.56,19.02 H 567.14 V 550.84 H 174.56 Z"
         id="path24" />
    </clipPath>
    <clipPath
       clipPathUnits="userSpaceOnUse"
       id="clipPath26">
      <path
         d="M 174.56,19.02 H 567.14 V 550.84 H 174.56 Z"
         id="path26" />
    </clipPath>
    <clipPath
       clipPathUnits="userSpaceOnUse"
       id="clipPath28">
      <path
         d="M 174.56,19.02 H 567.14 V 550.84 H 174.56 Z"
         id="path28" />
    </clipPath>
    <clipPath
       clipPathUnits="userSpaceOnUse"
       id="clipPath30">
      <path
         d="M 174.56,19.02 H 567.14 V 550.84 H 174.56 Z"
         id="path30" />
    </clipPath>
    <clipPath
       clipPathUnits="userSpaceOnUse"
       id="clipPath374-6-5-3-1">
      <path
         d="M 174.56,19.02 H 567.14 V 550.84 H 174.56 Z"
         id="path374-5-9-2-5" />
    </clipPath>
    <clipPath
       clipPathUnits="userSpaceOnUse"
       id="clipPath372-9-2-7-7">
      <path
         d="M 174.56,19.02 H 567.14 V 550.84 H 174.56 Z"
         id="path372-7-1-5-2" />
    </clipPath>
    <clipPath
       clipPathUnits="userSpaceOnUse"
       id="clipPath1502-8-7-6-1">
      <path
         d="M 174.56,19.02 H 567.14 V 550.84 H 174.56 Z"
         id="path1502-5-8-1-4" />
    </clipPath>
    <clipPath
       clipPathUnits="userSpaceOnUse"
       id="clipPath294-1-1-9-9-6">
      <path
         d="M 174.56,19.02 H 567.14 V 550.84 H 174.56 Z"
         id="path294-1-3-5-5-9" />
    </clipPath>
    <clipPath
       clipPathUnits="userSpaceOnUse"
       id="clipPath1520-0-0-0-2-5">
      <path
         d="M 174.56,19.02 H 567.14 V 550.84 H 174.56 Z"
         id="path1520-4-1-4-7-2" />
    </clipPath>
    <clipPath
       clipPathUnits="userSpaceOnUse"
       id="clipPath362-8-3-1-7">
      <path
         d="M 174.56,19.02 H 567.14 V 550.84 H 174.56 Z"
         id="path362-3-6-1-9" />
    </clipPath>
    <clipPath
       clipPathUnits="userSpaceOnUse"
       id="clipPath250-7-3-8-8">
      <path
         d="M 174.56,19.02 H 567.14 V 550.84 H 174.56 Z"
         id="path250-8-6-5-1" />
    </clipPath>
    <clipPath
       clipPathUnits="userSpaceOnUse"
       id="clipPath1510-1-3-7-5">
      <path
         d="M 174.56,19.02 H 567.14 V 550.84 H 174.56 Z"
         id="path1510-7-6-6-1" />
    </clipPath>
    <clipPath
       clipPathUnits="userSpaceOnUse"
       id="clipPath376-4-3-2-4">
      <path
         d="M 174.56,19.02 H 567.14 V 550.84 H 174.56 Z"
         id="path376-2-6-5-9" />
    </clipPath>
    <clipPath
       clipPathUnits="userSpaceOnUse"
       id="clipPath308-1-5-6-8">
      <path
         d="M 174.56,19.02 H 567.14 V 550.84 H 174.56 Z"
         id="path308-5-2-9-5" />
    </clipPath>
    <clipPath
       clipPathUnits="userSpaceOnUse"
       id="clipPath312-5-1-5-6">
      <path
         d="M 174.56,19.02 H 567.14 V 550.84 H 174.56 Z"
         id="path312-0-6-3-2" />
    </clipPath>
    <clipPath
       clipPathUnits="userSpaceOnUse"
       id="clipPath98-6-8-0-8">
      <path
         d="M 174.56,19.02 H 567.14 V 550.84 H 174.56 Z"
         id="path98-2-0-3-8" />
    </clipPath>
    <clipPath
       clipPathUnits="userSpaceOnUse"
       id="clipPath116-2-1-2-0">
      <path
         d="M 174.56,19.02 H 567.14 V 550.84 H 174.56 Z"
         id="path116-7-1-3-3" />
    </clipPath>
    <clipPath
       clipPathUnits="userSpaceOnUse"
       id="clipPath136-9-2-4-3">
      <path
         d="M 174.56,19.02 H 567.14 V 550.84 H 174.56 Z"
         id="path136-6-0-4-8" />
    </clipPath>
    <clipPath
       clipPathUnits="userSpaceOnUse"
       id="clipPath402-3-4-6-2">
      <path
         d="M 174.56,19.02 H 567.14 V 550.84 H 174.56 Z"
         id="path402-5-5-2-7" />
    </clipPath>
    <clipPath
       clipPathUnits="userSpaceOnUse"
       id="clipPath406-8-4-6-5">
      <path
         d="M 174.56,19.02 H 567.14 V 550.84 H 174.56 Z"
         id="path406-3-3-4-8" />
    </clipPath>
    <clipPath
       clipPathUnits="userSpaceOnUse"
       id="clipPath406-8-4-6-5-9">
      <path
         d="M 174.56,19.02 H 567.14 V 550.84 H 174.56 Z"
         id="path406-3-3-4-8-1" />
    </clipPath>
    <clipPath
       clipPathUnits="userSpaceOnUse"
       id="clipPath402-3-4-6-2-0">
      <path
         d="M 174.56,19.02 H 567.14 V 550.84 H 174.56 Z"
         id="path402-5-5-2-7-4" />
    </clipPath>
    <clipPath
       clipPathUnits="userSpaceOnUse"
       id="clipPath136-9-2-4-3-5">
      <path
         d="M 174.56,19.02 H 567.14 V 550.84 H 174.56 Z"
         id="path136-6-0-4-8-8" />
    </clipPath>
    <clipPath
       clipPathUnits="userSpaceOnUse"
       id="clipPath116-2-1-2-0-0">
      <path
         d="M 174.56,19.02 H 567.14 V 550.84 H 174.56 Z"
         id="path116-7-1-3-3-6" />
    </clipPath>
    <clipPath
       clipPathUnits="userSpaceOnUse"
       id="clipPath98-6-8-0-8-1">
      <path
         d="M 174.56,19.02 H 567.14 V 550.84 H 174.56 Z"
         id="path98-2-0-3-8-1" />
    </clipPath>
    <clipPath
       clipPathUnits="userSpaceOnUse"
       id="clipPath312-5-1-5-6-1">
      <path
         d="M 174.56,19.02 H 567.14 V 550.84 H 174.56 Z"
         id="path312-0-6-3-2-5" />
    </clipPath>
    <clipPath
       clipPathUnits="userSpaceOnUse"
       id="clipPath308-1-5-6-8-0">
      <path
         d="M 174.56,19.02 H 567.14 V 550.84 H 174.56 Z"
         id="path308-5-2-9-5-0" />
    </clipPath>
    <clipPath
       clipPathUnits="userSpaceOnUse"
       id="clipPath376-4-3-2-4-2">
      <path
         d="M 174.56,19.02 H 567.14 V 550.84 H 174.56 Z"
         id="path376-2-6-5-9-2" />
    </clipPath>
    <clipPath
       clipPathUnits="userSpaceOnUse"
       id="clipPath1510-1-3-7-5-5">
      <path
         d="M 174.56,19.02 H 567.14 V 550.84 H 174.56 Z"
         id="path1510-7-6-6-1-9" />
    </clipPath>
    <clipPath
       clipPathUnits="userSpaceOnUse"
       id="clipPath250-7-3-8-8-7">
      <path
         d="M 174.56,19.02 H 567.14 V 550.84 H 174.56 Z"
         id="path250-8-6-5-1-8" />
    </clipPath>
    <clipPath
       clipPathUnits="userSpaceOnUse"
       id="clipPath362-8-3-1-7-8">
      <path
         d="M 174.56,19.02 H 567.14 V 550.84 H 174.56 Z"
         id="path362-3-6-1-9-6" />
    </clipPath>
    <clipPath
       clipPathUnits="userSpaceOnUse"
       id="clipPath1520-0-0-0-2-5-8">
      <path
         d="M 174.56,19.02 H 567.14 V 550.84 H 174.56 Z"
         id="path1520-4-1-4-7-2-6" />
    </clipPath>
    <clipPath
       clipPathUnits="userSpaceOnUse"
       id="clipPath294-1-1-9-9-6-1">
      <path
         d="M 174.56,19.02 H 567.14 V 550.84 H 174.56 Z"
         id="path294-1-3-5-5-9-5" />
    </clipPath>
    <clipPath
       clipPathUnits="userSpaceOnUse"
       id="clipPath1502-8-7-6-1-7">
      <path
         d="M 174.56,19.02 H 567.14 V 550.84 H 174.56 Z"
         id="path1502-5-8-1-4-0" />
    </clipPath>
    <clipPath
       clipPathUnits="userSpaceOnUse"
       id="clipPath372-9-2-7-7-2">
      <path
         d="M 174.56,19.02 H 567.14 V 550.84 H 174.56 Z"
         id="path372-7-1-5-2-2" />
    </clipPath>
    <clipPath
       clipPathUnits="userSpaceOnUse"
       id="clipPath374-6-5-3-1-6">
      <path
         d="M 174.56,19.02 H 567.14 V 550.84 H 174.56 Z"
         id="path374-5-9-2-5-0" />
    </clipPath>
    <clipPath
       clipPathUnits="userSpaceOnUse"
       id="clipPath30-3">
      <path
         d="M 174.56,19.02 H 567.14 V 550.84 H 174.56 Z"
         id="path30-8" />
    </clipPath>
    <clipPath
       clipPathUnits="userSpaceOnUse"
       id="clipPath28-4">
      <path
         d="M 174.56,19.02 H 567.14 V 550.84 H 174.56 Z"
         id="path28-8" />
    </clipPath>
    <clipPath
       clipPathUnits="userSpaceOnUse"
       id="clipPath26-5">
      <path
         d="M 174.56,19.02 H 567.14 V 550.84 H 174.56 Z"
         id="path26-6" />
    </clipPath>
    <clipPath
       clipPathUnits="userSpaceOnUse"
       id="clipPath24-7">
      <path
         d="M 174.56,19.02 H 567.14 V 550.84 H 174.56 Z"
         id="path24-8" />
    </clipPath>
    <clipPath
       clipPathUnits="userSpaceOnUse"
       id="clipPath22-9">
      <path
         d="M 174.56,19.02 H 567.14 V 550.84 H 174.56 Z"
         id="path22-1" />
    </clipPath>
    <clipPath
       clipPathUnits="userSpaceOnUse"
       id="clipPath20-3">
      <path
         d="M 174.56,19.02 H 567.14 V 550.84 H 174.56 Z"
         id="path20-7" />
    </clipPath>
    <clipPath
       clipPathUnits="userSpaceOnUse"
       id="clipPath22-0">
      <path
         d="M 174.56,19.02 H 567.14 V 550.84 H 174.56 Z"
         id="path22-7" />
    </clipPath>
    <clipPath
       clipPathUnits="userSpaceOnUse"
       id="clipPath24-1">
      <path
         d="M 174.56,19.02 H 567.14 V 550.84 H 174.56 Z"
         id="path24-6" />
    </clipPath>
    <clipPath
       clipPathUnits="userSpaceOnUse"
       id="clipPath26-1">
      <path
         d="M 174.56,19.02 H 567.14 V 550.84 H 174.56 Z"
         id="path26-63" />
    </clipPath>
    <clipPath
       clipPathUnits="userSpaceOnUse"
       id="clipPath28-1">
      <path
         d="M 174.56,19.02 H 567.14 V 550.84 H 174.56 Z"
         id="path28-7" />
    </clipPath>
    <clipPath
       clipPathUnits="userSpaceOnUse"
       id="clipPath30-30">
      <path
         d="M 174.56,19.02 H 567.14 V 550.84 H 174.56 Z"
         id="path30-9" />
    </clipPath>
    <clipPath
       clipPathUnits="userSpaceOnUse"
       id="clipPath374-6-5-3-1-0">
      <path
         d="M 174.56,19.02 H 567.14 V 550.84 H 174.56 Z"
         id="path374-5-9-2-5-6" />
    </clipPath>
    <clipPath
       clipPathUnits="userSpaceOnUse"
       id="clipPath372-9-2-7-7-5">
      <path
         d="M 174.56,19.02 H 567.14 V 550.84 H 174.56 Z"
         id="path372-7-1-5-2-4" />
    </clipPath>
    <clipPath
       clipPathUnits="userSpaceOnUse"
       id="clipPath1502-8-7-6-1-3">
      <path
         d="M 174.56,19.02 H 567.14 V 550.84 H 174.56 Z"
         id="path1502-5-8-1-4-8" />
    </clipPath>
    <clipPath
       clipPathUnits="userSpaceOnUse"
       id="clipPath294-1-1-9-9-6-2">
      <path
         d="M 174.56,19.02 H 567.14 V 550.84 H 174.56 Z"
         id="path294-1-3-5-5-9-8" />
    </clipPath>
    <clipPath
       clipPathUnits="userSpaceOnUse"
       id="clipPath1520-0-0-0-2-5-4">
      <path
         d="M 174.56,19.02 H 567.14 V 550.84 H 174.56 Z"
         id="path1520-4-1-4-7-2-9" />
    </clipPath>
    <clipPath
       clipPathUnits="userSpaceOnUse"
       id="clipPath362-8-3-1-7-1">
      <path
         d="M 174.56,19.02 H 567.14 V 550.84 H 174.56 Z"
         id="path362-3-6-1-9-65" />
    </clipPath>
    <clipPath
       clipPathUnits="userSpaceOnUse"
       id="clipPath250-7-3-8-8-9">
      <path
         d="M 174.56,19.02 H 567.14 V 550.84 H 174.56 Z"
         id="path250-8-6-5-1-9" />
    </clipPath>
    <clipPath
       clipPathUnits="userSpaceOnUse"
       id="clipPath1510-1-3-7-5-4">
      <path
         d="M 174.56,19.02 H 567.14 V 550.84 H 174.56 Z"
         id="path1510-7-6-6-1-6" />
    </clipPath>
    <clipPath
       clipPathUnits="userSpaceOnUse"
       id="clipPath376-4-3-2-4-9">
      <path
         d="M 174.56,19.02 H 567.14 V 550.84 H 174.56 Z"
         id="path376-2-6-5-9-7" />
    </clipPath>
    <clipPath
       clipPathUnits="userSpaceOnUse"
       id="clipPath308-1-5-6-8-9">
      <path
         d="M 174.56,19.02 H 567.14 V 550.84 H 174.56 Z"
         id="path308-5-2-9-5-3" />
    </clipPath>
    <clipPath
       clipPathUnits="userSpaceOnUse"
       id="clipPath312-5-1-5-6-0">
      <path
         d="M 174.56,19.02 H 567.14 V 550.84 H 174.56 Z"
         id="path312-0-6-3-2-3" />
    </clipPath>
    <clipPath
       clipPathUnits="userSpaceOnUse"
       id="clipPath98-6-8-0-8-8">
      <path
         d="M 174.56,19.02 H 567.14 V 550.84 H 174.56 Z"
         id="path98-2-0-3-8-6" />
    </clipPath>
    <clipPath
       clipPathUnits="userSpaceOnUse"
       id="clipPath116-2-1-2-0-8">
      <path
         d="M 174.56,19.02 H 567.14 V 550.84 H 174.56 Z"
         id="path116-7-1-3-3-7" />
    </clipPath>
    <clipPath
       clipPathUnits="userSpaceOnUse"
       id="clipPath136-9-2-4-3-53">
      <path
         d="M 174.56,19.02 H 567.14 V 550.84 H 174.56 Z"
         id="path136-6-0-4-8-2" />
    </clipPath>
    <clipPath
       clipPathUnits="userSpaceOnUse"
       id="clipPath402-3-4-6-2-7">
      <path
         d="M 174.56,19.02 H 567.14 V 550.84 H 174.56 Z"
         id="path402-5-5-2-7-3" />
    </clipPath>
    <clipPath
       clipPathUnits="userSpaceOnUse"
       id="clipPath406-8-4-6-5-3">
      <path
         d="M 174.56,19.02 H 567.14 V 550.84 H 174.56 Z"
         id="path406-3-3-4-8-2" />
    </clipPath>
    <clipPath
       clipPathUnits="userSpaceOnUse"
       id="clipPath22-8">
      <path
         d="M 174.56,19.02 H 567.14 V 550.84 H 174.56 Z"
         id="path22-74" />
    </clipPath>
    <clipPath
       clipPathUnits="userSpaceOnUse"
       id="clipPath24-6">
      <path
         d="M 174.56,19.02 H 567.14 V 550.84 H 174.56 Z"
         id="path24-5" />
    </clipPath>
    <clipPath
       clipPathUnits="userSpaceOnUse"
       id="clipPath26-18">
      <path
         d="M 174.56,19.02 H 567.14 V 550.84 H 174.56 Z"
         id="path26-0" />
    </clipPath>
    <clipPath
       clipPathUnits="userSpaceOnUse"
       id="clipPath28-0">
      <path
         d="M 174.56,19.02 H 567.14 V 550.84 H 174.56 Z"
         id="path28-88" />
    </clipPath>
    <clipPath
       clipPathUnits="userSpaceOnUse"
       id="clipPath30-33">
      <path
         d="M 174.56,19.02 H 567.14 V 550.84 H 174.56 Z"
         id="path30-4" />
    </clipPath>
    <clipPath
       clipPathUnits="userSpaceOnUse"
       id="clipPath374-6-5-3-1-7">
      <path
         d="M 174.56,19.02 H 567.14 V 550.84 H 174.56 Z"
         id="path374-5-9-2-5-3" />
    </clipPath>
    <clipPath
       clipPathUnits="userSpaceOnUse"
       id="clipPath372-9-2-7-7-22">
      <path
         d="M 174.56,19.02 H 567.14 V 550.84 H 174.56 Z"
         id="path372-7-1-5-2-27" />
    </clipPath>
    <clipPath
       clipPathUnits="userSpaceOnUse"
       id="clipPath1502-8-7-6-1-0">
      <path
         d="M 174.56,19.02 H 567.14 V 550.84 H 174.56 Z"
         id="path1502-5-8-1-4-83" />
    </clipPath>
    <clipPath
       clipPathUnits="userSpaceOnUse"
       id="clipPath294-1-1-9-9-6-9">
      <path
         d="M 174.56,19.02 H 567.14 V 550.84 H 174.56 Z"
         id="path294-1-3-5-5-9-58" />
    </clipPath>
    <clipPath
       clipPathUnits="userSpaceOnUse"
       id="clipPath1520-0-0-0-2-5-0">
      <path
         d="M 174.56,19.02 H 567.14 V 550.84 H 174.56 Z"
         id="path1520-4-1-4-7-2-2" />
    </clipPath>
    <clipPath
       clipPathUnits="userSpaceOnUse"
       id="clipPath362-8-3-1-7-6">
      <path
         d="M 174.56,19.02 H 567.14 V 550.84 H 174.56 Z"
         id="path362-3-6-1-9-3" />
    </clipPath>
    <clipPath
       clipPathUnits="userSpaceOnUse"
       id="clipPath250-7-3-8-8-97">
      <path
         d="M 174.56,19.02 H 567.14 V 550.84 H 174.56 Z"
         id="path250-8-6-5-1-94" />
    </clipPath>
    <clipPath
       clipPathUnits="userSpaceOnUse"
       id="clipPath1510-1-3-7-5-2">
      <path
         d="M 174.56,19.02 H 567.14 V 550.84 H 174.56 Z"
         id="path1510-7-6-6-1-4" />
    </clipPath>
    <clipPath
       clipPathUnits="userSpaceOnUse"
       id="clipPath376-4-3-2-4-7">
      <path
         d="M 174.56,19.02 H 567.14 V 550.84 H 174.56 Z"
         id="path376-2-6-5-9-6" />
    </clipPath>
    <clipPath
       clipPathUnits="userSpaceOnUse"
       id="clipPath308-1-5-6-8-1">
      <path
         d="M 174.56,19.02 H 567.14 V 550.84 H 174.56 Z"
         id="path308-5-2-9-5-8" />
    </clipPath>
    <clipPath
       clipPathUnits="userSpaceOnUse"
       id="clipPath312-5-1-5-6-9">
      <path
         d="M 174.56,19.02 H 567.14 V 550.84 H 174.56 Z"
         id="path312-0-6-3-2-8" />
    </clipPath>
    <clipPath
       clipPathUnits="userSpaceOnUse"
       id="clipPath98-6-8-0-8-0">
      <path
         d="M 174.56,19.02 H 567.14 V 550.84 H 174.56 Z"
         id="path98-2-0-3-8-3" />
    </clipPath>
    <clipPath
       clipPathUnits="userSpaceOnUse"
       id="clipPath116-2-1-2-0-9">
      <path
         d="M 174.56,19.02 H 567.14 V 550.84 H 174.56 Z"
         id="path116-7-1-3-3-70" />
    </clipPath>
    <clipPath
       clipPathUnits="userSpaceOnUse"
       id="clipPath136-9-2-4-3-54">
      <path
         d="M 174.56,19.02 H 567.14 V 550.84 H 174.56 Z"
         id="path136-6-0-4-8-7" />
    </clipPath>
    <clipPath
       clipPathUnits="userSpaceOnUse"
       id="clipPath402-3-4-6-2-6">
      <path
         d="M 174.56,19.02 H 567.14 V 550.84 H 174.56 Z"
         id="path402-5-5-2-7-42" />
    </clipPath>
    <clipPath
       clipPathUnits="userSpaceOnUse"
       id="clipPath406-8-4-6-5-2">
      <path
         d="M 174.56,19.02 H 567.14 V 550.84 H 174.56 Z"
         id="path406-3-3-4-8-8" />
    </clipPath>
    <clipPath
       clipPathUnits="userSpaceOnUse"
       id="clipPath20-0">
      <path
         d="M 174.56,19.02 H 567.14 V 550.84 H 174.56 Z"
         id="path20-4" />
    </clipPath>
    <clipPath
       clipPathUnits="userSpaceOnUse"
       id="clipPath406-8-4-6-5-2-3">
      <path
         d="M 174.56,19.02 H 567.14 V 550.84 H 174.56 Z"
         id="path406-3-3-4-8-8-2" />
    </clipPath>
    <clipPath
       clipPathUnits="userSpaceOnUse"
       id="clipPath402-3-4-6-2-6-6">
      <path
         d="M 174.56,19.02 H 567.14 V 550.84 H 174.56 Z"
         id="path402-5-5-2-7-42-3" />
    </clipPath>
    <clipPath
       clipPathUnits="userSpaceOnUse"
       id="clipPath136-9-2-4-3-54-1">
      <path
         d="M 174.56,19.02 H 567.14 V 550.84 H 174.56 Z"
         id="path136-6-0-4-8-7-1" />
    </clipPath>
    <clipPath
       clipPathUnits="userSpaceOnUse"
       id="clipPath116-2-1-2-0-9-1">
      <path
         d="M 174.56,19.02 H 567.14 V 550.84 H 174.56 Z"
         id="path116-7-1-3-3-70-6" />
    </clipPath>
    <clipPath
       clipPathUnits="userSpaceOnUse"
       id="clipPath98-6-8-0-8-0-1">
      <path
         d="M 174.56,19.02 H 567.14 V 550.84 H 174.56 Z"
         id="path98-2-0-3-8-3-8" />
    </clipPath>
    <clipPath
       clipPathUnits="userSpaceOnUse"
       id="clipPath312-5-1-5-6-9-7">
      <path
         d="M 174.56,19.02 H 567.14 V 550.84 H 174.56 Z"
         id="path312-0-6-3-2-8-5" />
    </clipPath>
    <clipPath
       clipPathUnits="userSpaceOnUse"
       id="clipPath308-1-5-6-8-1-8">
      <path
         d="M 174.56,19.02 H 567.14 V 550.84 H 174.56 Z"
         id="path308-5-2-9-5-8-3" />
    </clipPath>
    <clipPath
       clipPathUnits="userSpaceOnUse"
       id="clipPath376-4-3-2-4-7-1">
      <path
         d="M 174.56,19.02 H 567.14 V 550.84 H 174.56 Z"
         id="path376-2-6-5-9-6-3" />
    </clipPath>
    <clipPath
       clipPathUnits="userSpaceOnUse"
       id="clipPath1510-1-3-7-5-2-3">
      <path
         d="M 174.56,19.02 H 567.14 V 550.84 H 174.56 Z"
         id="path1510-7-6-6-1-4-2" />
    </clipPath>
    <clipPath
       clipPathUnits="userSpaceOnUse"
       id="clipPath250-7-3-8-8-97-8">
      <path
         d="M 174.56,19.02 H 567.14 V 550.84 H 174.56 Z"
         id="path250-8-6-5-1-94-8" />
    </clipPath>
    <clipPath
       clipPathUnits="userSpaceOnUse"
       id="clipPath362-8-3-1-7-6-4">
      <path
         d="M 174.56,19.02 H 567.14 V 550.84 H 174.56 Z"
         id="path362-3-6-1-9-3-0" />
    </clipPath>
    <clipPath
       clipPathUnits="userSpaceOnUse"
       id="clipPath1520-0-0-0-2-5-0-3">
      <path
         d="M 174.56,19.02 H 567.14 V 550.84 H 174.56 Z"
         id="path1520-4-1-4-7-2-2-6" />
    </clipPath>
    <clipPath
       clipPathUnits="userSpaceOnUse"
       id="clipPath294-1-1-9-9-6-9-1">
      <path
         d="M 174.56,19.02 H 567.14 V 550.84 H 174.56 Z"
         id="path294-1-3-5-5-9-58-3" />
    </clipPath>
    <clipPath
       clipPathUnits="userSpaceOnUse"
       id="clipPath1502-8-7-6-1-0-0">
      <path
         d="M 174.56,19.02 H 567.14 V 550.84 H 174.56 Z"
         id="path1502-5-8-1-4-83-5" />
    </clipPath>
    <clipPath
       clipPathUnits="userSpaceOnUse"
       id="clipPath372-9-2-7-7-22-6">
      <path
         d="M 174.56,19.02 H 567.14 V 550.84 H 174.56 Z"
         id="path372-7-1-5-2-27-3" />
    </clipPath>
    <clipPath
       clipPathUnits="userSpaceOnUse"
       id="clipPath374-6-5-3-1-7-2">
      <path
         d="M 174.56,19.02 H 567.14 V 550.84 H 174.56 Z"
         id="path374-5-9-2-5-3-5" />
    </clipPath>
    <clipPath
       clipPathUnits="userSpaceOnUse"
       id="clipPath30-33-9">
      <path
         d="M 174.56,19.02 H 567.14 V 550.84 H 174.56 Z"
         id="path30-4-4" />
    </clipPath>
    <clipPath
       clipPathUnits="userSpaceOnUse"
       id="clipPath28-0-9">
      <path
         d="M 174.56,19.02 H 567.14 V 550.84 H 174.56 Z"
         id="path28-88-2" />
    </clipPath>
    <clipPath
       clipPathUnits="userSpaceOnUse"
       id="clipPath26-18-9">
      <path
         d="M 174.56,19.02 H 567.14 V 550.84 H 174.56 Z"
         id="path26-0-3" />
    </clipPath>
    <clipPath
       clipPathUnits="userSpaceOnUse"
       id="clipPath24-6-3">
      <path
         d="M 174.56,19.02 H 567.14 V 550.84 H 174.56 Z"
         id="path24-5-0" />
    </clipPath>
    <clipPath
       clipPathUnits="userSpaceOnUse"
       id="clipPath22-8-7">
      <path
         d="M 174.56,19.02 H 567.14 V 550.84 H 174.56 Z"
         id="path22-74-7" />
    </clipPath>
    <clipPath
       clipPathUnits="userSpaceOnUse"
       id="clipPath20-0-9">
      <path
         d="M 174.56,19.02 H 567.14 V 550.84 H 174.56 Z"
         id="path20-4-6" />
    </clipPath>
  </defs>
  <sodipodi:namedview
     id="namedview1"
     pagecolor="#ffffff"
     bordercolor="#000000"
     borderopacity="0.25"
     inkscape:showpageshadow="2"
     inkscape:pageopacity="0.0"
     inkscape:pagecheckerboard="0"
     inkscape:deskcolor="#d1d1d1"
     inkscape:zoom="28.034594"
     inkscape:cx="22.971618"
     inkscape:cy="23.042959"
     inkscape:window-width="1384"
     inkscape:window-height="813"
     inkscape:window-x="62"
     inkscape:window-y="25"
     inkscape:window-maximized="0"
     inkscape:current-layer="svg1" />
  <path
     d="m 41.095649,380.68917 -0.051,0.023 -0.127,-0.001 -0.043,0.006 -0.063,0.047 -0.02,-0.02 -0.023,-0.036 -0.01,-0.094 0.028,-0.105 0.041,-0.049 0.072,-0.043 0.058,-0.025 0.056,-0.01 0.03,0.003 0.105,0.077 0.008,0.055 -0.016,0.068 -0.017,0.049 z"
     title="Bouvet Island"
     id="BV"
     style="fill:#ececec;fill-opacity:1;stroke:#000000;stroke-width:0.3;stroke-dasharray:none;stroke-opacity:1" />
  <path
     d="m 559.8466,206.36617 0.092,0.053 0.07,0.072 0.034,0.1 v 0.025 l -0.054,-0.001 -0.065,-0.031 -0.047,-0.042 -0.024,-0.011 -0.01,-0.009 0.056,0.006 0.064,0.042 0.048,0.019 v -0.049 l -0.058,-0.085 -0.034,-0.029 -0.044,-0.025 -0.05,-0.017 -0.034,0.015 -0.019,0.007 -0.01,-0.02 0.01,-0.018 0.018,-0.018 0.06,0.016 z m 1.719,1.031 -0.013,0.021 -0.02,-0.018 0.014,-0.033 0.012,-0.028 0.019,0.015 z m -0.416,3.71 -0.027,0.013 -0.032,-0.004 -0.021,-0.019 v -0.03 l 0.026,-0.021 0.037,0.007 0.021,0.027 v 0.027 z m -2.754,0.133 0.018,0.019 0.041,-0.005 0.036,-0.003 -0.022,0.019 -0.074,0.008 -0.036,-0.048 0.045,-0.037 0.04,-0.006 v 0.01 0.011 h -0.019 l -0.03,0.009 v 0.023 z m -6.44995,0.459 0.033,0.037 v 0.018 l -0.016,-0.003 -0.048,-0.011 -0.016,-0.022 0.035,0.015 0.015,-0.003 -0.032,-0.033 -0.028,-0.024 -0.021,-0.01 v -0.012 l 0.026,0.006 z m -967.75,-23.994 0.224,0.236 -0.043,0.119 -0.162,-0.011 -0.074,-0.042 0.126,-0.021 0.021,-0.044 -0.058,-0.069 -0.077,-0.048 h -0.053 l -0.013,0.095 -0.087,-0.074 0.051,-0.074 0.062,-0.049 z m 932.62,2.219 -0.178,0.093 -0.054,-0.015 0.211,-0.132 -0.001,0.016 z m -0.352,0.217 -0.208,0.108 -0.056,-0.058 0.075,-0.002 0.14,-0.104 0.169,-0.008 -0.02,0.058 z m -926.664,3.337 0.467,0.323 -0.198,0.023 -0.488,-0.156 -0.446,-0.319 0.133,-0.069 0.065,0.115 0.203,0.107 0.12,-0.225 0.079,-0.051 -0.356,-0.232 0.141,0.012 0.337,0.158 z m 927.153,0.027 0.014,0.064 -0.16,-0.175 -0.095,-0.113 0.006,-0.049 0.043,0.031 0.053,0.055 0.035,0.044 z m 0.031,0.358 -0.102,0.012 0.076,-0.04 0.021,-0.055 -0.012,-0.173 0.04,0.014 0.014,0.071 0.007,0.104 z m 0.024,1.047 -0.075,0.01 0.049,-0.057 0.321,-0.063 0.028,-0.018 0.052,0.035 -10e-4,0.033 -0.023,0.017 -0.159,0.001 -0.125,0.03 z m -0.016,0.917 0.151,0.11 -0.02,0.076 -0.051,0.087 -0.197,0.222 -0.06,-0.021 0.192,-0.201 0.074,-0.133 -0.11,-0.102 -0.044,0.022 h -0.018 l -0.038,-0.095 h 0.038 z m 4.143,5.06 -0.091,0.076 -0.035,-0.069 0.045,-0.085 -0.076,-0.353 -0.126,-0.048 -0.075,-0.106 h 0.036 l 0.126,0.097 0.101,0.044 0.059,0.232 z m -13.913,0.2 -0.026,0.006 -0.053,-0.029 0.007,-0.036 0.037,-0.016 0.047,0.027 z m 14.655,0.943 0.017,0.144 -0.064,-0.019 -0.021,-0.056 -0.021,-0.145 -0.067,-0.142 0.076,0.038 0.063,0.111 z m -925.381,8.027 -0.008,0.017 -0.034,-0.022 -0.066,-0.041 -0.056,-0.045 -0.001,-0.019 0.079,-0.027 0.101,-0.021 0.022,0.029 -0.019,0.041 z m -2.547,4.305 -0.065,0.015 h -0.076 l -0.038,-0.037 -0.002,-0.03 h 0.026 l 0.024,0.005 0.108,0.005 0.028,0.022 z m 11.454,16.4 -0.023,0.045 -0.044,-0.016 -0.026,-0.057 -0.009,-0.062 0.017,-0.05 0.029,0.002 0.033,0.062 z"
     title="Kiribati"
     id="KI"
     style="fill:#ececec;fill-opacity:1;stroke:#000000;stroke-width:0.3;stroke-dasharray:none;stroke-opacity:1" />
  <g
     inkscape:groupmode="layer"
     id="layer3"
     inkscape:label="Layer 1" />
  <rect
     style="fill:#ffffff;fill-opacity:1;stroke:#000000;stroke-width:0.188503;stroke-linecap:round;stroke-dasharray:none;stroke-opacity:1"
     id="rect1560"
     width="20.438602"
     height="29.912056"
     x="8.3238144"
     y="11.572256" />
  <path
     id="path1547"
     d="m 11.904365,17.062575 c 0,-0.153833 0.125343,-0.279171 0.277746,-0.279171 0.153832,0 0.279171,0.125338 0.279171,0.279171 0,0.152403 -0.125339,0.277746 -0.279171,0.277746 -0.152403,0 -0.277746,-0.125343 -0.277746,-0.277746"
     style="fill:#f8776d;fill-opacity:1;fill-rule:nonzero;stroke:#f8766d icc-color(sRGB-IEC61966-2, 0.1, 0.97299194, 0.46299744, 0.42698669);stroke-width:0.101129;stroke-linecap:round;stroke-linejoin:round;stroke-miterlimit:10;stroke-dasharray:none;stroke-opacity:1" />
  <path
     id="path1548"
     d="m 11.904365,21.264396 c 0,-0.153828 0.125343,-0.279171 0.277746,-0.279171 0.153832,0 0.279171,0.125343 0.279171,0.279171 0,0.152402 -0.125339,0.277746 -0.279171,0.277746 -0.152403,0 -0.277746,-0.125344 -0.277746,-0.277746"
     style="fill:#7eaf03;fill-opacity:1;fill-rule:nonzero;stroke:#7cae00 icc-color(sRGB-IEC61966-2, 0.1, 0.48599243, 0.68199158, 0);stroke-width:0.101129;stroke-linecap:round;stroke-linejoin:round;stroke-miterlimit:10;stroke-dasharray:none;stroke-opacity:1" />
  <path
     id="path1550"
     d="m 11.904365,23.585942 c 0,-0.153828 0.125343,-0.279171 0.277746,-0.279171 0.153832,0 0.279171,0.125343 0.279171,0.279171 0,0.152402 -0.125339,0.277746 -0.279171,0.277746 -0.152403,0 -0.277746,-0.125344 -0.277746,-0.277746"
     style="fill:#c77cff;fill-opacity:1;fill-rule:nonzero;stroke:#c77cff icc-color(sRGB-IEC61966-2, 0.1, 0.77999878, 0.48599243, 1);stroke-width:0.101129;stroke-linecap:round;stroke-linejoin:round;stroke-miterlimit:10;stroke-dasharray:none;stroke-opacity:1" />
  <path
     id="path1554"
     d="m 11.598135,32.278804 c 0,-0.321902 0.263499,-0.583981 0.583976,-0.583981 0.321902,0 0.585406,0.262079 0.585406,0.583981 0,0.321902 -0.263504,0.583976 -0.585406,0.583976 -0.320477,0 -0.583976,-0.262074 -0.583976,-0.583976"
     style="fill:#000000 icc-color(sRGB-IEC61966-2, 0.1, 0, 0, 0);fill-opacity:1;fill-rule:nonzero;stroke:#000000 icc-color(sRGB-IEC61966-2, 0.1, 0, 0, 0);stroke-width:0.101129;stroke-linecap:round;stroke-linejoin:round;stroke-miterlimit:10;stroke-dasharray:none;stroke-opacity:1" />
  <path
     id="path1555"
     d="m 11.437184,34.740062 c 0,-0.410208 0.336144,-0.744927 0.744927,-0.744927 0.410213,0 0.746357,0.334719 0.746357,0.744927 0,0.410213 -0.336144,0.744932 -0.746357,0.744932 -0.408783,0 -0.744927,-0.334719 -0.744927,-0.744932"
     style="fill:#000000 icc-color(sRGB-IEC61966-2, 0.1, 0, 0, 0);fill-opacity:1;fill-rule:nonzero;stroke:#000000 icc-color(sRGB-IEC61966-2, 0.1, 0, 0, 0);stroke-width:0.101129;stroke-linecap:round;stroke-linejoin:round;stroke-miterlimit:10;stroke-dasharray:none;stroke-opacity:1" />
  <path
     id="path1556"
     d="m 11.31469,37.201326 c 0,-0.477154 0.390267,-0.868851 0.867421,-0.868851 0.478578,0 0.868851,0.391697 0.868851,0.868851 0,0.477153 -0.390273,0.868845 -0.868851,0.868845 -0.477154,0 -0.867421,-0.391692 -0.867421,-0.868845"
     style="fill:#000000 icc-color(sRGB-IEC61966-2, 0.1, 0, 0, 0);fill-opacity:1;fill-rule:nonzero;stroke:#000000 icc-color(sRGB-IEC61966-2, 0.1, 0, 0, 0);stroke-width:0.101129;stroke-linecap:round;stroke-linejoin:round;stroke-miterlimit:10;stroke-dasharray:none;stroke-opacity:1" />
  <text
     id="text1547-1"
     xml:space="preserve"
     x="10.747147"
     y="14.851377"
     style="font-size:2.55447px;stroke-width:0.212873"><tspan
       style="font-variant:normal;font-weight:normal;font-size:2.34161px;font-family:Helvetica;writing-mode:lr-tb;fill:#000000 icc-color(sRGB-IEC61966-2, 0.1, 0, 0, 0);fill-opacity:1;fill-rule:nonzero;stroke:none;stroke-width:0.212873"
       x="10.747147 12.177864 12.697701 14.648254 15.950195 16.601128 18.045914 19.34787 20.162727 20.682579 21.984474"
       y="14.851377"
       sodipodi:role="line"
       id="tspan1547-5">Time Period</tspan></text>
  <text
     id="text1550-4"
     xml:space="preserve"
     x="14.149117"
     y="17.594381"
     style="font-size:2.55447px;stroke-width:0.212873"><tspan
       style="font-variant:normal;font-weight:normal;font-size:1.91585px;font-family:Helvetica;writing-mode:lr-tb;fill:#000000 icc-color(sRGB-IEC61966-2, 0.1, 0, 0, 0);fill-opacity:1;fill-rule:nonzero;stroke:none;stroke-width:0.212873"
       x="14.149117 15.427002 16.064964 17.13015 18.195396 19.124573 20.189804 20.72242 22.000275 23.065506"
       y="17.594381"
       sodipodi:role="line"
       id="tspan1550-2">Bronze Age</tspan></text>
  <text
     id="text1551-3"
     xml:space="preserve"
     x="14.145218"
     y="21.786987"
     style="font-size:2.55447px;stroke-width:0.212873"><tspan
       style="font-variant:normal;font-weight:normal;font-size:1.91585px;font-family:Helvetica;writing-mode:lr-tb;fill:#000000 icc-color(sRGB-IEC61966-2, 0.1, 0, 0, 0);fill-opacity:1;fill-rule:nonzero;stroke:none;stroke-width:0.212873"
       x="14.145218 15.423103 16.488304 17.155037 17.580338 18.538284 19.070892 20.666794 21.732018 22.797203 23.222519 24.230286 25.140312 26.205513"
       y="21.786987"
       sodipodi:role="line"
       id="tspan1551-1">Early Medieval</tspan></text>
  <path
     id="path1549"
     d="m 11.904365,19.193857 c 0,-0.153833 0.125343,-0.279171 0.277746,-0.279171 0.153832,0 0.279171,0.125338 0.279171,0.279171 0,0.152402 -0.125339,0.277746 -0.279171,0.277746 -0.152403,0 -0.277746,-0.125344 -0.277746,-0.277746"
     style="fill:#00bfc4;fill-opacity:1;fill-rule:nonzero;stroke:#00bfc4 icc-color(sRGB-IEC61966-2, 0.1, 0, 0.74899292, 0.76899719);stroke-width:0.101129;stroke-linecap:round;stroke-linejoin:round;stroke-miterlimit:10;stroke-dasharray:none;stroke-opacity:1" />
  <text
     id="text1552-7"
     xml:space="preserve"
     x="14.145218"
     y="19.718857"
     style="font-size:2.55447px;stroke-width:0.212873"><tspan
       style="font-variant:normal;font-weight:normal;font-size:1.91585px;font-family:Helvetica;writing-mode:lr-tb;fill:#000000 icc-color(sRGB-IEC61966-2, 0.1, 0, 0, 0);fill-opacity:1;fill-rule:nonzero;stroke:none;stroke-width:0.212873"
       x="14.145218 14.677795 15.315804 16.381004 17.446205 17.978828 19.256737 20.321922"
       y="19.718857"
       sodipodi:role="line"
       id="tspan1552-4">Iron Age</tspan></text>
  <text
     id="text1553-3"
     xml:space="preserve"
     x="14.145218"
     y="24.115376"
     style="font-size:2.55447px;stroke-width:0.212873"><tspan
       style="font-variant:normal;font-weight:normal;font-size:1.91585px;font-family:Helvetica;writing-mode:lr-tb;fill:#000000 icc-color(sRGB-IEC61966-2, 0.1, 0, 0, 0);fill-opacity:1;fill-rule:nonzero;stroke:none;stroke-width:0.212873"
       x="14.145218 15.741112 16.806328 17.871544 18.936752 19.622658 20.687866 21.220451 21.753052 22.178375 23.774292"
       y="24.115376"
       sodipodi:role="line"
       id="tspan1553-0">Modern time</tspan></text>
  <text
     id="text1554-9"
     xml:space="preserve"
     x="10.921692"
     y="30.091509"
     style="font-size:2.55447px;stroke-width:0.212873"><tspan
       style="font-variant:normal;font-weight:normal;font-size:2.34161px;font-family:Helvetica;writing-mode:lr-tb;fill:#000000 icc-color(sRGB-IEC61966-2, 0.1, 0, 0, 0);fill-opacity:1;fill-rule:nonzero;stroke:none;stroke-width:0.212873"
       x="10.921692 12.483559 13.785439 15.736031 17.037971 17.557816 18.859695 19.510704 21.201355 22.503235 23.805183 25.107109"
       y="30.091509"
       sodipodi:role="line"
       id="tspan1554-5">Sample Count</tspan></text>
  <text
     id="text1556-1"
     xml:space="preserve"
     x="14.192047"
     y="32.951283"
     style="font-size:2.55447px;stroke-width:0.212873"><tspan
       style="font-variant:normal;font-weight:normal;font-size:1.91585px;font-family:Helvetica;writing-mode:lr-tb;fill:#000000 icc-color(sRGB-IEC61966-2, 0.1, 0, 0, 0);fill-opacity:1;fill-rule:nonzero;stroke:none;stroke-width:0.212873"
       x="14.192047 15.25724"
       y="32.951283"
       sodipodi:role="line"
       id="tspan1556-5">50</tspan></text>
  <text
     id="text1557-4"
     xml:space="preserve"
     x="14.192047"
     y="35.45261"
     style="font-size:2.55447px;stroke-width:0.212873"><tspan
       style="font-variant:normal;font-weight:normal;font-size:1.91585px;font-family:Helvetica;writing-mode:lr-tb;fill:#000000 icc-color(sRGB-IEC61966-2, 0.1, 0, 0, 0);fill-opacity:1;fill-rule:nonzero;stroke:none;stroke-width:0.212873"
       x="14.192047 15.25724 16.322487"
       y="35.45261"
       sodipodi:role="line"
       id="tspan1557-3">100</tspan></text>
  <text
     id="text1558-1"
     xml:space="preserve"
     x="14.192047"
     y="37.909283"
     style="font-size:2.55447px;stroke-width:0.212873"><tspan
       style="font-variant:normal;font-weight:normal;font-size:1.91585px;font-family:Helvetica;writing-mode:lr-tb;fill:#000000 icc-color(sRGB-IEC61966-2, 0.1, 0, 0, 0);fill-opacity:1;fill-rule:nonzero;stroke:none;stroke-width:0.212873"
       x="14.192047 15.25724 16.322487"
       y="37.909283"
       sodipodi:role="line"
       id="tspan1558-4">150</tspan></text>
</svg>
