<?xml version="1.0" encoding="UTF-8" standalone="no"?>
<svg
   width="241.92pt"
   height="241.92pt"
   viewBox="0 0 241.92 241.92"
   version="1.1"
   id="svg114022"
   sodipodi:docname="oran_black.svg"
   inkscape:version="1.2.2 (1:1.2.2+202212051552+b0a8486541)"
   xmlns:inkscape="http://www.inkscape.org/namespaces/inkscape"
   xmlns:sodipodi="http://sodipodi.sourceforge.net/DTD/sodipodi-0.dtd"
   xmlns="http://www.w3.org/2000/svg"
   xmlns:svg="http://www.w3.org/2000/svg"
   xmlns:rdf="http://www.w3.org/1999/02/22-rdf-syntax-ns#"
   xmlns:cc="http://creativecommons.org/ns#"
   xmlns:dc="http://purl.org/dc/elements/1.1/">
  <sodipodi:namedview
     id="namedview114024"
     pagecolor="#ffffff"
     bordercolor="#000000"
     borderopacity="0.25"
     inkscape:showpageshadow="2"
     inkscape:pageopacity="0.0"
     inkscape:pagecheckerboard="0"
     inkscape:deskcolor="#d1d1d1"
     inkscape:document-units="pt"
     showgrid="false"
     inkscape:zoom="1.3078744"
     inkscape:cx="253.46471"
     inkscape:cy="179.68086"
     inkscape:window-width="1223"
     inkscape:window-height="779"
     inkscape:window-x="57"
     inkscape:window-y="21"
     inkscape:window-maximized="1"
     inkscape:current-layer="axes_1" />
  <metadata
     id="metadata113844">
    <rdf:RDF>
      <cc:Work>
        <dc:type
           rdf:resource="http://purl.org/dc/dcmitype/StillImage" />
        <dc:date>2023-02-27T15:22:14.361470</dc:date>
        <dc:format>image/svg+xml</dc:format>
        <dc:creator>
          <cc:Agent>
            <dc:title>Matplotlib v3.5.0, https://matplotlib.org/</dc:title>
          </cc:Agent>
        </dc:creator>
      </cc:Work>
    </rdf:RDF>
  </metadata>
  <defs
     id="defs113848">
    <style
       type="text/css"
       id="style113846">*{stroke-linejoin: round; stroke-linecap: butt}</style>
    <path
       id="path576309"
       d="M 1259,2228 V 519 h 1013 q 509,0 754,211 246,211 246,645 0,438 -246,645 -245,208 -754,208 z m 0,1919 V 2741 h 935 q 462,0 688,173 227,174 227,530 0,353 -227,528 -226,175 -688,175 z m -631,519 h 1613 q 722,0 1112,-300 391,-300 391,-853 0,-429 -200,-682 -200,-253 -588,-315 466,-100 724,-418 258,-317 258,-792 0,-625 -425,-966 Q 3088,0 2303,0 H 628 Z"
       transform="scale(0.015625)" />
    <path
       id="path576311"
       d="m 1959,3097 q -462,0 -731,-361 -269,-361 -269,-989 0,-628 267,-989 268,-361 733,-361 460,0 728,362 269,363 269,988 0,622 -269,986 -268,364 -728,364 z m 0,487 q 750,0 1178,-488 429,-487 429,-1349 Q 3566,888 3137,398 2709,-91 1959,-91 1206,-91 779,398 353,888 353,1747 q 0,862 426,1349 427,488 1180,488 z"
       transform="scale(0.015625)" />
    <path
       id="path576313"
       d="m 2631,2963 q -97,56 -211,82 -114,27 -251,27 -488,0 -749,-317 -261,-317 -261,-911 V 0 H 581 v 3500 h 578 v -544 q 182,319 472,473 291,155 707,155 59,0 131,-8 72,-7 159,-23 z"
       transform="scale(0.015625)" />
    <path
       id="path576315"
       d="M 3513,2113 V 0 h -575 v 2094 q 0,497 -194,743 -194,247 -581,247 -466,0 -735,-297 -269,-296 -269,-809 V 0 H 581 v 3500 h 578 v -544 q 207,316 486,472 280,156 646,156 603,0 912,-373 310,-373 310,-1098 z"
       transform="scale(0.015625)" />
    <path
       id="path576317"
       d="M 3597,1894 V 1613 H 953 q 38,-594 358,-905 320,-311 892,-311 331,0 642,81 311,81 618,244 V 178 Q 3153,47 2828,-22 2503,-91 2169,-91 1331,-91 842,396 353,884 353,1716 q 0,859 464,1363 464,505 1252,505 706,0 1117,-455 411,-454 411,-1235 z m -575,169 q -6,471 -264,752 -258,282 -683,282 -481,0 -770,-272 -289,-272 -333,-766 z"
       transform="scale(0.015625)" />
    <path
       id="path576319"
       d="m 2194,1759 q -697,0 -966,-159 -269,-159 -269,-544 0,-306 202,-486 202,-179 548,-179 479,0 768,339 289,339 289,901 v 128 z m 1147,238 V 0 H 2766 V 531 Q 2569,213 2275,61 1981,-91 1556,-91 q -537,0 -855,302 -317,302 -317,808 0,590 395,890 396,300 1180,300 h 807 v 57 q 0,397 -261,614 -261,217 -733,217 -300,0 -585,-72 -284,-72 -546,-216 v 532 q 315,122 612,182 297,61 578,61 760,0 1135,-394 375,-393 375,-1193 z"
       transform="scale(0.015625)" />
    <path
       id="path576333"
       d="m 3425,4513 v -616 q -359,172 -678,256 -319,85 -616,85 -515,0 -795,-200 -280,-200 -280,-569 0,-310 186,-468 186,-157 705,-254 l 381,-78 q 706,-135 1042,-474 336,-339 336,-907 0,-679 -455,-1029 -454,-350 -1332,-350 -331,0 -705,75 -373,75 -773,222 v 650 q 384,-215 753,-325 369,-109 725,-109 540,0 834,212 294,213 294,607 0,343 -211,537 -211,194 -692,291 l -385,75 q -706,140 -1022,440 -315,300 -315,835 0,619 436,975 436,356 1201,356 329,0 669,-60 341,-59 697,-177 z"
       transform="scale(0.015625)" />
    <path
       id="path576335"
       d="m 544,1381 v 2119 h 575 V 1403 q 0,-497 193,-746 194,-248 582,-248 465,0 735,297 271,297 271,810 v 1984 h 575 V 0 H 2900 V 538 Q 2691,219 2414,64 2138,-91 1772,-91 1169,-91 856,284 544,659 544,1381 Z m 1447,2203 z"
       transform="scale(0.015625)" />
    <path
       id="path576337"
       d="m 3328,2828 q 216,388 516,572 300,184 706,184 547,0 844,-383 297,-382 297,-1088 V 0 h -578 v 2094 q 0,503 -179,746 -178,244 -543,244 -447,0 -707,-297 -259,-296 -259,-809 V 0 h -578 v 2094 q 0,506 -178,748 -178,242 -550,242 -441,0 -701,-298 -259,-298 -259,-808 V 0 H 581 v 3500 h 578 v -544 q 197,322 472,475 275,153 653,153 382,0 649,-194 267,-193 395,-562 z"
       transform="scale(0.015625)" />
    <path
       id="path576339"
       d="M 1172,4494 V 3500 H 2356 V 3053 H 1172 V 1153 q 0,-428 117,-550 117,-122 477,-122 h 590 V 0 H 1766 Q 1100,0 847,248 594,497 594,1153 V 3053 H 172 v 447 h 422 v 994 z"
       transform="scale(0.015625)" />
  </defs>
  <g
     id="figure_1">
    <g
       id="axes_1">
      <path
         d="M 101.807729 166.911001  L 102.807729 166.942438  L 103.807729 166.979378  L 104.807729 167.077124  L 105.807729 167.109646  L 106.807729 167.183271  L 107.807729 167.221836  L 108.807729 167.257249  L 109.807729 167.314889  L 110.807729 167.385276  L 111.807729 167.43724  L 112.807729 167.49633  L 113.807729 167.584651  L 114.807729 167.630795  L 115.807729 167.673206  L 116.807729 167.703698  L 117.807729 167.729743  L 118.807729 167.750944  L 119.807729 167.805245  L 120.807729 167.833182  L 121.807729 167.862906  L 122.807729 167.888301  L 123.807729 167.899501  L 124.807729 167.909625  L 125.807729 167.909421  L 126.807729 167.899911  L 127.807729 167.888258  L 128.807729 167.857228  L 129.807729 167.84606  L 130.807729 167.815943  L 131.807729 167.756166  L 132.807729 167.718974  L 133.807729 167.679878  L 134.807729 167.637439  L 135.807729 167.604673  L 136.807729 167.537247  L 137.807729 167.498121  L 138.807729 167.455447  L 139.807729 167.384866  L 140.807729 167.348475  L 141.807729 167.290072  L 142.807729 167.179119  L 143.807729 167.108461  L 144.807729 166.995521  L 145.807729 166.949748  L 146.807729 166.888465  L 147.807729 166.839966  L 148.807729 166.759143  L 149.807729 166.640624  L 150.807729 166.570414  L 151.807729 166.487151  L 152.807729 166.454009  L 153.807729 166.402772  L 154.807729 166.334374  L 155.807729 166.268158  L 156.807729 166.191241  L 158.162585 166.163926  "
         clip-path="url(#pf7c8d50d41)"
         style="fill:none;stroke:#000000;stroke-opacity:0.5;stroke-width:0.2;stroke-linecap:square"
         id="path113856" />
      <path
         d="M 102.216965 122.599752  L 103.216965 122.631189  L 104.216965 122.668129  L 105.216965 122.765876  L 106.216965 122.798397  L 107.216965 122.872022  L 108.216965 122.910587  L 109.216965 122.946001  L 110.216965 123.003641  L 111.216965 123.074027  L 112.216965 123.125991  L 113.216965 123.185081  L 114.216965 123.273402  L 115.216965 123.319546  L 116.216965 123.361957  L 117.216965 123.39245  L 118.216965 123.418495  L 119.216965 123.439695  L 120.216965 123.493996  L 121.216965 123.521933  L 122.216965 123.551657  L 123.216965 123.577052  L 124.216965 123.588252  L 125.216965 123.598376  L 126.216965 123.598172  L 127.216965 123.588662  L 128.216965 123.577009  L 129.216965 123.545979  L 130.216965 123.534811  L 131.216965 123.504694  L 132.216965 123.444917  L 133.216965 123.407725  L 134.216965 123.368629  L 135.216965 123.32619  L 136.216965 123.293425  L 137.216965 123.225998  L 138.216965 123.186872  L 139.216965 123.144198  L 140.216965 123.073617  L 141.216965 123.037226  L 142.216965 122.978823  L 143.216965 122.86787  L 144.216965 122.797212  L 145.216965 122.684272  L 146.216965 122.638499  L 147.216965 122.577216  L 148.216965 122.528717  L 149.216965 122.447894  L 150.216965 122.329375  L 151.216965 122.259165  L 152.216965 122.175902  L 153.216965 122.14276  L 154.216965 122.091523  L 155.216965 122.023125  L 156.216965 121.956909  L 157.216965 121.879992  L 158.216965 121.852677  L 159.216965 121.826199  L 160.216965 121.803549  L 161.216965 121.784017  L 162.216965 121.757623  L 163.216965 121.707853  L 165.060099 121.672779  "
         clip-path="url(#pf7c8d50d41)"
         style="fill:none;stroke:#010203;stroke-opacity:0.5;stroke-width:0.2;stroke-linecap:square"
         id="path113858" />
      <path
         d="M 102.135593 131.235716  L 103.135593 131.267152  L 104.135593 131.304092  L 105.135593 131.401839  L 106.135593 131.434361  L 107.135593 131.507985  L 108.135593 131.546551  L 109.135593 131.581964  L 110.135593 131.639604  L 111.135593 131.70999  L 112.135593 131.761954  L 113.135593 131.821044  L 114.135593 131.909365  L 115.135593 131.955509  L 116.135593 131.99792  L 117.135593 132.028413  L 118.135593 132.054458  L 119.135593 132.075658  L 120.135593 132.129959  L 121.135593 132.157897  L 122.135593 132.187621  L 123.135593 132.213015  L 124.135593 132.224216  L 125.135593 132.23434  L 126.135593 132.234136  L 127.135593 132.224626  L 128.135593 132.212972  L 129.135593 132.181943  L 130.135593 132.170775  L 131.135593 132.140657  L 132.135593 132.08088  L 133.135593 132.043689  L 134.135593 132.004593  L 135.135593 131.962153  L 136.135593 131.929388  L 137.135593 131.861962  L 138.135593 131.822836  L 139.135593 131.780161  L 140.135593 131.709581  L 141.135593 131.67319  L 142.135593 131.614786  L 143.135593 131.503834  L 144.135593 131.433176  L 145.135593 131.320236  L 146.135593 131.274463  L 147.135593 131.21318  L 148.135593 131.16468  L 149.135593 131.083858  L 150.135593 130.965339  L 151.135593 130.895128  L 152.135593 130.811866  L 153.135593 130.778724  L 154.135593 130.727487  L 155.135593 130.659088  L 156.135593 130.592873  L 157.135593 130.515956  L 158.135593 130.48864  L 159.135593 130.462163  L 160.135593 130.439512  L 161.135593 130.419981  L 162.135593 130.393587  L 163.941793 130.343816  "
         clip-path="url(#pf7c8d50d41)"
         style="fill:none;stroke:#000000;stroke-opacity:0.5;stroke-width:0.2;stroke-linecap:square"
         id="path113860" />
      <path
         d="M 102.283127 115.639644  L 103.283127 115.67108  L 104.283127 115.708021  L 105.283127 115.805767  L 106.283127 115.838289  L 107.283127 115.911913  L 108.283127 115.950479  L 109.283127 115.985892  L 110.283127 116.043532  L 111.283127 116.113918  L 112.283127 116.165882  L 113.283127 116.224972  L 114.283127 116.313293  L 115.283127 116.359437  L 116.283127 116.401848  L 117.283127 116.432341  L 118.283127 116.458386  L 119.283127 116.479586  L 120.283127 116.533887  L 121.283127 116.561825  L 122.283127 116.591549  L 123.283127 116.616944  L 124.283127 116.628144  L 125.283127 116.638268  L 126.283127 116.638064  L 127.283127 116.628554  L 128.283127 116.6169  L 129.283127 116.585871  L 130.283127 116.574703  L 131.283127 116.544585  L 132.283127 116.484808  L 133.283127 116.447617  L 134.283127 116.408521  L 135.283127 116.366081  L 136.283127 116.333316  L 137.283127 116.26589  L 138.283127 116.226764  L 139.283127 116.184089  L 140.283127 116.113509  L 141.283127 116.077118  L 142.283127 116.018715  L 143.283127 115.907762  L 144.283127 115.837104  L 145.283127 115.724164  L 146.283127 115.678391  L 147.283127 115.617108  L 148.283127 115.568608  L 149.283127 115.487786  L 150.283127 115.369267  L 151.283127 115.299056  L 152.283127 115.215794  L 153.283127 115.182652  L 154.283127 115.131415  L 155.283127 115.063016  L 156.283127 114.996801  L 157.283127 114.919884  L 158.283127 114.892568  L 159.283127 114.866091  L 160.283127 114.84344  L 161.283127 114.823909  L 162.283127 114.797515  L 163.283127 114.747744  L 164.283127 114.712671  L 165.894426 114.676805  "
         clip-path="url(#pf7c8d50d41)"
         style="fill:none;stroke:#051520;stroke-opacity:0.5;stroke-width:0.2;stroke-linecap:square"
         id="path113862" />
      <path
         d="M 102.466871 96.591963  L 103.466871 96.623399  L 104.466871 96.660339  L 105.466871 96.758086  L 106.466871 96.790607  L 107.466871 96.864232  L 108.466871 96.902798  L 109.466871 96.938211  L 110.466871 96.995851  L 111.466871 97.066237  L 112.466871 97.118201  L 113.466871 97.177291  L 114.466871 97.265612  L 115.466871 97.311756  L 116.466871 97.354167  L 117.466871 97.38466  L 118.466871 97.410705  L 119.466871 97.431905  L 120.466871 97.486206  L 121.466871 97.514144  L 122.466871 97.543868  L 123.466871 97.569262  L 124.466871 97.580463  L 125.466871 97.590587  L 126.466871 97.590382  L 127.466871 97.580872  L 128.466871 97.569219  L 129.466871 97.53819  L 130.466871 97.527022  L 131.466871 97.496904  L 132.466871 97.437127  L 133.466871 97.399936  L 134.466871 97.36084  L 135.466871 97.3184  L 136.466871 97.285635  L 137.466871 97.218208  L 138.466871 97.179083  L 139.466871 97.136408  L 140.466871 97.065827  L 141.466871 97.029437  L 142.466871 96.971033  L 143.466871 96.860081  L 144.466871 96.789422  L 145.466871 96.676483  L 146.466871 96.63071  L 147.466871 96.569426  L 148.466871 96.520927  L 149.466871 96.440104  L 150.466871 96.321586  L 151.466871 96.251375  L 152.466871 96.168112  L 153.466871 96.134971  L 154.466871 96.083733  L 155.466871 96.015335  L 156.466871 95.94912  L 157.466871 95.872203  L 158.466871 95.844887  L 159.466871 95.81841  L 160.466871 95.795759  L 161.466871 95.776228  L 162.466871 95.749834  L 163.466871 95.700063  L 164.466871 95.66499  L 165.466871 95.629124  L 166.466871 95.613757  L 167.904818 95.597987  "
         clip-path="url(#pf7c8d50d41)"
         style="fill:none;stroke:#000000;stroke-opacity:0.5;stroke-width:0.2;stroke-linecap:square"
         id="path113864" />
      <path
         d="M 101.697632 179.220536  L 102.697632 179.251973  L 103.697632 179.288913  L 104.697632 179.386659  L 105.697632 179.419181  L 106.697632 179.492806  L 107.697632 179.531371  L 108.697632 179.566785  L 109.697632 179.624424  L 110.697632 179.694811  L 111.697632 179.746775  L 112.697632 179.805865  L 113.697632 179.894186  L 114.697632 179.94033  L 115.697632 179.982741  L 116.697632 180.013233  L 117.697632 180.039278  L 118.697632 180.060479  L 119.697632 180.11478  L 120.697632 180.142717  L 121.697632 180.172441  L 122.697632 180.197836  L 123.697632 180.209036  L 124.697632 180.21916  L 125.697632 180.218956  L 126.697632 180.209446  L 127.697632 180.197793  L 128.697632 180.166763  L 129.697632 180.155595  L 130.697632 180.125478  L 131.697632 180.065701  L 132.697632 180.028509  L 133.697632 179.989413  L 134.697632 179.946974  L 135.697632 179.914209  L 136.697632 179.846782  L 137.697632 179.807656  L 138.697632 179.764982  L 139.697632 179.694401  L 140.697632 179.65801  L 141.697632 179.599607  L 142.697632 179.488654  L 143.697632 179.417996  L 144.697632 179.305056  L 145.697632 179.259283  L 146.697632 179.198  L 147.697632 179.149501  L 148.697632 179.068678  L 149.697632 178.950159  L 150.697632 178.879949  L 151.697632 178.796686  L 152.697632 178.763544  L 153.697632 178.712307  L 155.646171 178.643909  "
         clip-path="url(#pf7c8d50d41)"
         style="fill:none;stroke:#05121b;stroke-opacity:0.5;stroke-width:0.2;stroke-linecap:square"
         id="path113866" />
      <path
         d="M 101.84721 162.538154  L 102.84721 162.56959  L 103.84721 162.60653  L 104.84721 162.704277  L 105.84721 162.736798  L 106.84721 162.810423  L 107.84721 162.848989  L 108.84721 162.884402  L 109.84721 162.942042  L 110.84721 163.012428  L 111.84721 163.064392  L 112.84721 163.123482  L 113.84721 163.211803  L 114.84721 163.257947  L 115.84721 163.300358  L 116.84721 163.330851  L 117.84721 163.356896  L 118.84721 163.378096  L 119.84721 163.432397  L 120.84721 163.460335  L 121.84721 163.490059  L 122.84721 163.515453  L 123.84721 163.526654  L 124.84721 163.536778  L 125.84721 163.536573  L 126.84721 163.527063  L 127.84721 163.51541  L 128.84721 163.484381  L 129.84721 163.473213  L 130.84721 163.443095  L 131.84721 163.383318  L 132.84721 163.346127  L 133.84721 163.307031  L 134.84721 163.264591  L 135.84721 163.231826  L 136.84721 163.164399  L 137.84721 163.125274  L 138.84721 163.082599  L 139.84721 163.012018  L 140.84721 162.975628  L 141.84721 162.917224  L 142.84721 162.806272  L 143.84721 162.735613  L 144.84721 162.622674  L 145.84721 162.576901  L 146.84721 162.515617  L 147.84721 162.467118  L 148.84721 162.386295  L 149.84721 162.267777  L 150.84721 162.197566  L 151.84721 162.114303  L 152.84721 162.081162  L 153.84721 162.029924  L 154.84721 161.961526  L 155.84721 161.895311  L 156.84721 161.818394  L 157.84721 161.791078  L 158.98531 161.764601  "
         clip-path="url(#pf7c8d50d41)"
         style="fill:none;stroke:#000000;stroke-opacity:0.5;stroke-width:0.2;stroke-linecap:square"
         id="path113868" />
      <path
         d="M 102.768826 66.153618  L 103.768826 66.185055  L 104.768826 66.221995  L 105.768826 66.319742  L 106.768826 66.352263  L 107.768826 66.425888  L 108.768826 66.464453  L 109.768826 66.499867  L 110.768826 66.557507  L 111.768826 66.627893  L 112.768826 66.679857  L 113.768826 66.738947  L 114.768826 66.827268  L 115.768826 66.873412  L 116.768826 66.915823  L 117.768826 66.946316  L 118.768826 66.972361  L 119.768826 66.993561  L 120.768826 67.047862  L 121.768826 67.075799  L 122.768826 67.105523  L 123.768826 67.130918  L 124.768826 67.142118  L 125.768826 67.152242  L 126.768826 67.152038  L 127.768826 67.142528  L 128.768826 67.130875  L 129.768826 67.099845  L 130.768826 67.088677  L 131.768826 67.05856  L 132.768826 66.998783  L 133.768826 66.961591  L 134.768826 66.922495  L 135.768826 66.880056  L 136.768826 66.847291  L 137.768826 66.779864  L 138.768826 66.740738  L 139.768826 66.698064  L 140.768826 66.627483  L 141.768826 66.591092  L 142.768826 66.532689  L 143.768826 66.421736  L 144.768826 66.351078  L 145.768826 66.238138  L 146.768826 66.192365  L 147.768826 66.131082  L 148.768826 66.082583  L 149.768826 66.00176  L 150.768826 65.883241  L 151.768826 65.813031  L 152.768826 65.729768  L 153.768826 65.696626  L 154.768826 65.645389  L 155.768826 65.576991  L 156.768826 65.510775  L 157.768826 65.433858  L 158.768826 65.406543  L 159.768826 65.380065  L 160.768826 65.357415  L 161.768826 65.337883  L 162.768826 65.311489  L 163.768826 65.261719  L 164.768826 65.226645  L 165.768826 65.19078  L 166.768826 65.175412  L 167.768826 65.159643  L 168.768826 65.156231  L 170.426046 65.153813  "
         clip-path="url(#pf7c8d50d41)"
         style="fill:none;stroke:#000000;stroke-opacity:0.5;stroke-width:0.2;stroke-linecap:square"
         id="path113870" />
      <path
         d="M 102.327587 110.993031  L 103.327587 111.024467  L 104.327587 111.061408  L 105.327587 111.159154  L 106.327587 111.191676  L 107.327587 111.2653  L 108.327587 111.303866  L 109.327587 111.339279  L 110.327587 111.396919  L 111.327587 111.467305  L 112.327587 111.51927  L 113.327587 111.578359  L 114.327587 111.66668  L 115.327587 111.712825  L 116.327587 111.755236  L 117.327587 111.785728  L 118.327587 111.811773  L 119.327587 111.832973  L 120.327587 111.887274  L 121.327587 111.915212  L 122.327587 111.944936  L 123.327587 111.970331  L 124.327587 111.981531  L 125.327587 111.991655  L 126.327587 111.991451  L 127.327587 111.981941  L 128.327587 111.970287  L 129.327587 111.939258  L 130.327587 111.92809  L 131.327587 111.897973  L 132.327587 111.838196  L 133.327587 111.801004  L 134.327587 111.761908  L 135.327587 111.719468  L 136.327587 111.686703  L 137.327587 111.619277  L 138.327587 111.580151  L 139.327587 111.537476  L 140.327587 111.466896  L 141.327587 111.430505  L 142.327587 111.372102  L 143.327587 111.261149  L 144.327587 111.190491  L 145.327587 111.077551  L 146.327587 111.031778  L 147.327587 110.970495  L 148.327587 110.921996  L 149.327587 110.841173  L 150.327587 110.722654  L 151.327587 110.652443  L 152.327587 110.569181  L 153.327587 110.536039  L 154.327587 110.484802  L 155.327587 110.416403  L 156.327587 110.350188  L 157.327587 110.273271  L 158.327587 110.245955  L 159.327587 110.219478  L 160.327587 110.196827  L 161.327587 110.177296  L 162.327587 110.150902  L 163.327587 110.101131  L 164.327587 110.066058  L 165.327587 110.030192  L 166.42031 110.014825  "
         clip-path="url(#pf7c8d50d41)"
         style="fill:none;stroke:#000000;stroke-opacity:0.5;stroke-width:0.2;stroke-linecap:square"
         id="path113872" />
      <path
         d="M 101.799019 167.878695  L 102.799019 167.910132  L 103.799019 167.947072  L 104.799019 168.044819  L 105.799019 168.07734  L 106.799019 168.150965  L 107.799019 168.189531  L 108.799019 168.224944  L 109.799019 168.282584  L 110.799019 168.35297  L 111.799019 168.404934  L 112.799019 168.464024  L 113.799019 168.552345  L 114.799019 168.598489  L 115.799019 168.6409  L 116.799019 168.671393  L 117.799019 168.697438  L 118.799019 168.718638  L 119.799019 168.772939  L 120.799019 168.800876  L 121.799019 168.8306  L 122.799019 168.855995  L 123.799019 168.867196  L 124.799019 168.87732  L 125.799019 168.877115  L 126.799019 168.867605  L 127.799019 168.855952  L 128.799019 168.824922  L 129.799019 168.813755  L 130.799019 168.783637  L 131.799019 168.72386  L 132.799019 168.686669  L 133.799019 168.647572  L 134.799019 168.605133  L 135.799019 168.572368  L 136.799019 168.504941  L 137.799019 168.465815  L 138.799019 168.423141  L 139.799019 168.35256  L 140.799019 168.316169  L 141.799019 168.257766  L 142.799019 168.146814  L 143.799019 168.076155  L 144.799019 167.963215  L 145.799019 167.917443  L 146.799019 167.856159  L 147.799019 167.80766  L 148.799019 167.726837  L 149.799019 167.608318  L 150.799019 167.538108  L 151.799019 167.454845  L 152.799019 167.421703  L 153.799019 167.370466  L 154.799019 167.302068  L 155.799019 167.235852  L 156.799019 167.158935  L 157.975663 167.13162  "
         clip-path="url(#pf7c8d50d41)"
         style="fill:none;stroke:#000000;stroke-opacity:0.5;stroke-width:0.2;stroke-linecap:square"
         id="path113874" />
      <path
         d="M 147.233568 212.022804  L 146.233568 211.991368  L 145.233568 211.954428  L 144.233568 211.856681  L 143.233568 211.82416  L 142.233568 211.750535  L 141.233568 211.711969  L 140.233568 211.676556  L 139.233568 211.618916  L 138.233568 211.54853  L 137.233568 211.496566  L 136.233568 211.437476  L 135.233568 211.349155  L 134.233568 211.303011  L 133.233568 211.2606  L 132.233568 211.230107  L 131.233568 211.204062  L 130.233568 211.182862  L 129.233568 211.128561  L 128.233568 211.100623  L 127.233568 211.070899  L 126.233568 211.045505  L 125.233568 211.034304  L 124.233568 211.02418  L 123.233568 211.024385  L 122.233568 211.033895  L 121.233568 211.045548  L 120.233568 211.076577  L 119.233568 211.087745  L 118.233568 211.117863  L 117.233568 211.17764  L 116.233568 211.214831  L 115.233568 211.253927  L 114.233568 211.296367  L 113.233568 211.329132  L 112.233568 211.396559  L 111.233568 211.435684  L 110.233568 211.478359  L 109.233568 211.54894  L 108.233568 211.58533  L 107.233568 211.643734  L 106.233568 211.754686  L 105.233568 211.825345  L 104.233568 211.938284  L 103.233568 211.984057  L 101.411612 212.045341  "
         clip-path="url(#pf7c8d50d41)"
         style="fill:none;stroke:#030200;stroke-opacity:0.5;stroke-width:0.2;stroke-linecap:square"
         id="path113876" />
      <path
         d="M 169.840747 74.079475  L 168.840747 74.048038  L 167.840747 74.011098  L 166.840747 73.913351  L 165.840747 73.88083  L 164.840747 73.807205  L 163.840747 73.76864  L 162.840747 73.733226  L 161.840747 73.675586  L 160.840747 73.6052  L 159.840747 73.553236  L 158.840747 73.494146  L 157.840747 73.405825  L 156.840747 73.359681  L 155.840747 73.31727  L 154.840747 73.286777  L 153.840747 73.260732  L 152.840747 73.239532  L 151.840747 73.185231  L 150.840747 73.157294  L 149.840747 73.12757  L 148.840747 73.102175  L 147.840747 73.090975  L 146.840747 73.080851  L 145.840747 73.081055  L 144.840747 73.090565  L 143.840747 73.102218  L 142.840747 73.133248  L 141.840747 73.144416  L 140.840747 73.174533  L 139.840747 73.23431  L 138.840747 73.271502  L 137.840747 73.310598  L 136.840747 73.353037  L 135.840747 73.385802  L 134.840747 73.453229  L 133.840747 73.492355  L 132.840747 73.535029  L 131.840747 73.60561  L 130.840747 73.642001  L 129.840747 73.700404  L 128.840747 73.811357  L 127.840747 73.882015  L 126.840747 73.994955  L 125.840747 74.040728  L 124.840747 74.102011  L 123.840747 74.15051  L 122.840747 74.231333  L 121.840747 74.349852  L 120.840747 74.420062  L 119.840747 74.503325  L 118.840747 74.536467  L 117.840747 74.587704  L 116.840747 74.656102  L 115.840747 74.722318  L 114.840747 74.799235  L 113.840747 74.82655  L 112.840747 74.853028  L 111.840747 74.875678  L 110.840747 74.89521  L 109.840747 74.921604  L 108.840747 74.971375  L 107.840747 75.006448  L 106.840747 75.042313  L 105.840747 75.057681  L 104.840747 75.07345  L 103.840747 75.076862  L 102.689197 75.07928  "
         clip-path="url(#pf7c8d50d41)"
         style="fill:none;stroke:#000000;stroke-opacity:0.5;stroke-width:0.2;stroke-linecap:square"
         id="path113878" />
      <path
         d="M 171.048732 56.978426  L 170.048732 56.94699  L 169.048732 56.910049  L 168.048732 56.812303  L 167.048732 56.779781  L 166.048732 56.706157  L 165.048732 56.667591  L 164.048732 56.632178  L 163.048732 56.574538  L 162.048732 56.504152  L 161.048732 56.452188  L 160.048732 56.393098  L 159.048732 56.304777  L 158.048732 56.258632  L 157.048732 56.216222  L 156.048732 56.185729  L 155.048732 56.159684  L 154.048732 56.138484  L 153.048732 56.084183  L 152.048732 56.056245  L 151.048732 56.026521  L 150.048732 56.001126  L 149.048732 55.989926  L 148.048732 55.979802  L 147.048732 55.980006  L 146.048732 55.989516  L 145.048732 56.00117  L 144.048732 56.032199  L 143.048732 56.043367  L 142.048732 56.073485  L 141.048732 56.133261  L 140.048732 56.170453  L 139.048732 56.209549  L 138.048732 56.251989  L 137.048732 56.284754  L 136.048732 56.35218  L 135.048732 56.391306  L 134.048732 56.433981  L 133.048732 56.504561  L 132.048732 56.540952  L 131.048732 56.599355  L 130.048732 56.710308  L 129.048732 56.780966  L 128.048732 56.893906  L 127.048732 56.939679  L 126.048732 57.000962  L 125.048732 57.049462  L 124.048732 57.130284  L 123.048732 57.248803  L 122.048732 57.319014  L 121.048732 57.402276  L 120.048732 57.435418  L 119.048732 57.486655  L 118.048732 57.555054  L 117.048732 57.621269  L 116.048732 57.698186  L 115.048732 57.725502  L 114.048732 57.751979  L 113.048732 57.77463  L 112.048732 57.794161  L 111.048732 57.820555  L 110.048732 57.870326  L 109.048732 57.905399  L 108.048732 57.941265  L 107.048732 57.956632  L 106.048732 57.972401  L 105.048732 57.975814  L 104.048732 57.978232  L 102.8619 57.977745  "
         clip-path="url(#pf7c8d50d41)"
         style="fill:none;stroke:#000000;stroke-opacity:0.5;stroke-width:0.2;stroke-linecap:square"
         id="path113880" />
      <path
         d="M 153.625972 188.121636  L 152.625972 188.090199  L 151.625972 188.053259  L 150.625972 187.955512  L 149.625972 187.922991  L 148.625972 187.849366  L 147.625972 187.8108  L 146.625972 187.775387  L 145.625972 187.717747  L 144.625972 187.647361  L 143.625972 187.595397  L 142.625972 187.536307  L 141.625972 187.447986  L 140.625972 187.401842  L 139.625972 187.359431  L 138.625972 187.328938  L 137.625972 187.302893  L 136.625972 187.281693  L 135.625972 187.227392  L 134.625972 187.199455  L 133.625972 187.169731  L 132.625972 187.144336  L 131.625972 187.133135  L 130.625972 187.123011  L 129.625972 187.123216  L 128.625972 187.132726  L 127.625972 187.144379  L 126.625972 187.175409  L 125.625972 187.186576  L 124.625972 187.216694  L 123.625972 187.276471  L 122.625972 187.313662  L 121.625972 187.352759  L 120.625972 187.395198  L 119.625972 187.427963  L 118.625972 187.49539  L 117.625972 187.534516  L 116.625972 187.57719  L 115.625972 187.647771  L 114.625972 187.684162  L 113.625972 187.742565  L 112.625972 187.853517  L 111.625972 187.924176  L 110.625972 188.037116  L 109.625972 188.082888  L 108.625972 188.144172  L 107.625972 188.192671  L 106.625972 188.273494  L 105.625972 188.392013  L 104.625972 188.462223  L 103.625972 188.545486  L 102.625972 188.578627  L 101.618969 188.629865  "
         clip-path="url(#pf7c8d50d41)"
         style="fill:none;stroke:#000000;stroke-opacity:0.5;stroke-width:0.2;stroke-linecap:square"
         id="path113882" />
      <path
         d="M 158.886749 163.072089  L 157.886749 163.040652  L 156.886749 163.003712  L 155.886749 162.905966  L 154.886749 162.873444  L 153.886749 162.799819  L 152.886749 162.761254  L 151.886749 162.725841  L 150.886749 162.668201  L 149.886749 162.597814  L 148.886749 162.54585  L 147.886749 162.48676  L 146.886749 162.398439  L 145.886749 162.352295  L 144.886749 162.309884  L 143.886749 162.279392  L 142.886749 162.253347  L 141.886749 162.232146  L 140.886749 162.177845  L 139.886749 162.149908  L 138.886749 162.120184  L 137.886749 162.094789  L 136.886749 162.083589  L 135.886749 162.073465  L 134.886749 162.073669  L 133.886749 162.083179  L 132.886749 162.094832  L 131.886749 162.125862  L 130.886749 162.13703  L 129.886749 162.167147  L 128.886749 162.226924  L 127.886749 162.264116  L 126.886749 162.303212  L 125.886749 162.345651  L 124.886749 162.378417  L 123.886749 162.445843  L 122.886749 162.484969  L 121.886749 162.527643  L 120.886749 162.598224  L 119.886749 162.634615  L 118.886749 162.693018  L 117.886749 162.803971  L 116.886749 162.874629  L 115.886749 162.987569  L 114.886749 163.033342  L 113.886749 163.094625  L 112.886749 163.143124  L 111.886749 163.223947  L 110.886749 163.342466  L 109.886749 163.412676  L 108.886749 163.495939  L 107.886749 163.529081  L 106.886749 163.580318  L 105.886749 163.648716  L 104.886749 163.714932  L 103.886749 163.791849  L 102.886749 163.819164  L 101.842379 163.845642  "
         clip-path="url(#pf7c8d50d41)"
         style="fill:none;stroke:#000000;stroke-opacity:0.5;stroke-width:0.2;stroke-linecap:square"
         id="path113884" />
      <path
         d="M 147.689077 210.494448  L 146.689077 210.463011  L 145.689077 210.426071  L 144.689077 210.328324  L 143.689077 210.295803  L 142.689077 210.222178  L 141.689077 210.183613  L 140.689077 210.148199  L 139.689077 210.090559  L 138.689077 210.020173  L 137.689077 209.968209  L 136.689077 209.909119  L 135.689077 209.820798  L 134.689077 209.774654  L 133.689077 209.732243  L 132.689077 209.70175  L 131.689077 209.675705  L 130.689077 209.654505  L 129.689077 209.600204  L 128.689077 209.572267  L 127.689077 209.542543  L 126.689077 209.517148  L 125.689077 209.505948  L 124.689077 209.495824  L 123.689077 209.496028  L 122.689077 209.505538  L 121.689077 209.517191  L 120.689077 209.548221  L 119.689077 209.559389  L 118.689077 209.589506  L 117.689077 209.649283  L 116.689077 209.686475  L 115.689077 209.725571  L 114.689077 209.76801  L 113.689077 209.800775  L 112.689077 209.868202  L 111.689077 209.907328  L 110.689077 209.950002  L 109.689077 210.020583  L 108.689077 210.056974  L 107.689077 210.115377  L 106.689077 210.22633  L 105.689077 210.296988  L 104.689077 210.409928  L 103.689077 210.455701  L 102.689077 210.516984  L 101.424704 210.565483  "
         clip-path="url(#pf7c8d50d41)"
         style="fill:none;stroke:#040200;stroke-opacity:0.5;stroke-width:0.2;stroke-linecap:square"
         id="path113886" />
      <path
         d="M 171.193838 54.715201  L 170.193838 54.683764  L 169.193838 54.646824  L 168.193838 54.549077  L 167.193838 54.516556  L 166.193838 54.442931  L 165.193838 54.404366  L 164.193838 54.368952  L 163.193838 54.311312  L 162.193838 54.240926  L 161.193838 54.188962  L 160.193838 54.129872  L 159.193838 54.041551  L 158.193838 53.995407  L 157.193838 53.952996  L 156.193838 53.922503  L 155.193838 53.896458  L 154.193838 53.875258  L 153.193838 53.820957  L 152.193838 53.79302  L 151.193838 53.763296  L 150.193838 53.737901  L 149.193838 53.726701  L 148.193838 53.716577  L 147.193838 53.716781  L 146.193838 53.726291  L 145.193838 53.737944  L 144.193838 53.768974  L 143.193838 53.780142  L 142.193838 53.810259  L 141.193838 53.870036  L 140.193838 53.907228  L 139.193838 53.946324  L 138.193838 53.988763  L 137.193838 54.021528  L 136.193838 54.088955  L 135.193838 54.128081  L 134.193838 54.170755  L 133.193838 54.241336  L 132.193838 54.277727  L 131.193838 54.33613  L 130.193838 54.447083  L 129.193838 54.517741  L 128.193838 54.630681  L 127.193838 54.676454  L 126.193838 54.737737  L 125.193838 54.786236  L 124.193838 54.867059  L 123.193838 54.985578  L 122.193838 55.055788  L 121.193838 55.139051  L 120.193838 55.172193  L 119.193838 55.22343  L 118.193838 55.291828  L 117.193838 55.358044  L 116.193838 55.434961  L 115.193838 55.462276  L 114.193838 55.488754  L 113.193838 55.511404  L 112.193838 55.530936  L 111.193838 55.55733  L 110.193838 55.607101  L 109.193838 55.642174  L 108.193838 55.678039  L 107.193838 55.693407  L 106.193838 55.709176  L 105.193838 55.712588  L 104.193838 55.715006  L 102.885007 55.71452  "
         clip-path="url(#pf7c8d50d41)"
         style="fill:none;stroke:#000000;stroke-opacity:0.5;stroke-width:0.2;stroke-linecap:square"
         id="path113888" />
      <path
         d="M 169.692221 75.995694  L 168.692221 75.964257  L 167.692221 75.927317  L 166.692221 75.829571  L 165.692221 75.797049  L 164.692221 75.723424  L 163.692221 75.684859  L 162.692221 75.649446  L 161.692221 75.591806  L 160.692221 75.521419  L 159.692221 75.469455  L 158.692221 75.410365  L 157.692221 75.322044  L 156.692221 75.2759  L 155.692221 75.233489  L 154.692221 75.202997  L 153.692221 75.176952  L 152.692221 75.155751  L 151.692221 75.10145  L 150.692221 75.073513  L 149.692221 75.043789  L 148.692221 75.018394  L 147.692221 75.007194  L 146.692221 74.99707  L 145.692221 74.997274  L 144.692221 75.006784  L 143.692221 75.018437  L 142.692221 75.049467  L 141.692221 75.060635  L 140.692221 75.090752  L 139.692221 75.150529  L 138.692221 75.187721  L 137.692221 75.226817  L 136.692221 75.269256  L 135.692221 75.302022  L 134.692221 75.369448  L 133.692221 75.408574  L 132.692221 75.451248  L 131.692221 75.521829  L 130.692221 75.55822  L 129.692221 75.616623  L 128.692221 75.727576  L 127.692221 75.798234  L 126.692221 75.911174  L 125.692221 75.956947  L 124.692221 76.01823  L 123.692221 76.066729  L 122.692221 76.147552  L 121.692221 76.266071  L 120.692221 76.336281  L 119.692221 76.419544  L 118.692221 76.452686  L 117.692221 76.503923  L 116.692221 76.572321  L 115.692221 76.638537  L 114.692221 76.715454  L 113.692221 76.742769  L 112.692221 76.769247  L 111.692221 76.791898  L 110.692221 76.811429  L 109.692221 76.837823  L 108.692221 76.887594  L 107.692221 76.922667  L 106.692221 76.958532  L 105.692221 76.9739  L 104.692221 76.989669  L 103.692221 76.993081  L 102.670053 76.995499  "
         clip-path="url(#pf7c8d50d41)"
         style="fill:none;stroke:#000000;stroke-opacity:0.5;stroke-width:0.2;stroke-linecap:square"
         id="path113890" />
      <path
         d="M 166.162145 113.300805  L 165.162145 113.269369  L 164.162145 113.232428  L 163.162145 113.134682  L 162.162145 113.10216  L 161.162145 113.028536  L 160.162145 112.98997  L 159.162145 112.954557  L 158.162145 112.896917  L 157.162145 112.826531  L 156.162145 112.774567  L 155.162145 112.715477  L 154.162145 112.627156  L 153.162145 112.581012  L 152.162145 112.538601  L 151.162145 112.508108  L 150.162145 112.482063  L 149.162145 112.460863  L 148.162145 112.406562  L 147.162145 112.378624  L 146.162145 112.3489  L 145.162145 112.323505  L 144.162145 112.312305  L 143.162145 112.302181  L 142.162145 112.302385  L 141.162145 112.311895  L 140.162145 112.323549  L 139.162145 112.354578  L 138.162145 112.365746  L 137.162145 112.395864  L 136.162145 112.45564  L 135.162145 112.492832  L 134.162145 112.531928  L 133.162145 112.574368  L 132.162145 112.607133  L 131.162145 112.674559  L 130.162145 112.713685  L 129.162145 112.75636  L 128.162145 112.82694  L 127.162145 112.863331  L 126.162145 112.921734  L 125.162145 113.032687  L 124.162145 113.103345  L 123.162145 113.216285  L 122.162145 113.262058  L 121.162145 113.323341  L 120.162145 113.371841  L 119.162145 113.452663  L 118.162145 113.571182  L 117.162145 113.641393  L 116.162145 113.724655  L 115.162145 113.757797  L 114.162145 113.809034  L 113.162145 113.877433  L 112.162145 113.943648  L 111.162145 114.020565  L 110.162145 114.047881  L 109.162145 114.074358  L 108.162145 114.097009  L 107.162145 114.11654  L 106.162145 114.142934  L 105.162145 114.192705  L 104.162145 114.227778  L 102.305476 114.263644  "
         clip-path="url(#pf7c8d50d41)"
         style="fill:none;stroke:#000000;stroke-opacity:0.5;stroke-width:0.2;stroke-linecap:square"
         id="path113892" />
      <path
         d="M 169.226008 81.785055  L 168.226008 81.753618  L 167.226008 81.716678  L 166.226008 81.618931  L 165.226008 81.58641  L 164.226008 81.512785  L 163.226008 81.47422  L 162.226008 81.438806  L 161.226008 81.381166  L 160.226008 81.31078  L 159.226008 81.258816  L 158.226008 81.199726  L 157.226008 81.111405  L 156.226008 81.065261  L 155.226008 81.02285  L 154.226008 80.992357  L 153.226008 80.966312  L 152.226008 80.945112  L 151.226008 80.890811  L 150.226008 80.862874  L 149.226008 80.83315  L 148.226008 80.807755  L 147.226008 80.796555  L 146.226008 80.786431  L 145.226008 80.786635  L 144.226008 80.796145  L 143.226008 80.807798  L 142.226008 80.838828  L 141.226008 80.849996  L 140.226008 80.880113  L 139.226008 80.93989  L 138.226008 80.977082  L 137.226008 81.016178  L 136.226008 81.058617  L 135.226008 81.091382  L 134.226008 81.158809  L 133.226008 81.197935  L 132.226008 81.240609  L 131.226008 81.31119  L 130.226008 81.347581  L 129.226008 81.405984  L 128.226008 81.516937  L 127.226008 81.587595  L 126.226008 81.700535  L 125.226008 81.746308  L 124.226008 81.807591  L 123.226008 81.85609  L 122.226008 81.936913  L 121.226008 82.055432  L 120.226008 82.125642  L 119.226008 82.208905  L 118.226008 82.242047  L 117.226008 82.293284  L 116.226008 82.361682  L 115.226008 82.427898  L 114.226008 82.504815  L 113.226008 82.53213  L 112.226008 82.558608  L 111.226008 82.581258  L 110.226008 82.60079  L 109.226008 82.627184  L 108.226008 82.676954  L 107.226008 82.712028  L 106.226008 82.747893  L 105.226008 82.763261  L 104.226008 82.77903  L 102.612463 82.782442  "
         clip-path="url(#pf7c8d50d41)"
         style="fill:none;stroke:#000000;stroke-opacity:0.5;stroke-width:0.2;stroke-linecap:square"
         id="path113894" />
      <g
         id="patch_3">
        <path
           d="M 77.020172 10.8  L 77.020172 52.228375  L 83.276864 52.228375  L 84.624311 194.507643  L 84.826209 217.941875  M 107.690228 10.8  L 107.690228 52.228375  L 101.433536 52.228375  L 100.086089 194.507643  L 99.884191 217.941875  L 99.884191 217.941875  "
           clip-path="url(#pf7c8d50d41)"
           style="fill:none;stroke:#000000;stroke-linejoin:miter;stroke-opacity:1"
           id="path113896" />
      </g>
      <g
         id="PolyCollection_1"
         style="fill:#b3b3b3">
        <path
           d="M 107.690228 10.8  L 77.020172 10.8  L 77.020172 52.228375  L 83.276864 52.228375  L 83.294007 53.902249  L 83.311119 55.576122  L 83.328198 57.249996  L 83.345244 58.92387  L 83.362259 60.597744  L 83.379241 62.271617  L 83.396192 63.945491  L 83.41311 65.619365  L 83.429996 67.293239  L 83.446851 68.967112  L 83.463674 70.640986  L 83.480465 72.31486  L 83.497224 73.988734  L 83.513951 75.662607  L 83.530647 77.336481  L 83.547312 79.010355  L 83.563945 80.684229  L 83.580546 82.358102  L 83.597116 84.031976  L 83.613655 85.70585  L 83.630163 87.379723  L 83.646639 89.053597  L 83.663085 90.727471  L 83.679499 92.401345  L 83.695882 94.075218  L 83.712235 95.749092  L 83.728556 97.422966  L 83.744847 99.09684  L 83.761107 100.770713  L 83.777336 102.444587  L 83.793535 104.118461  L 83.809703 105.792335  L 83.82584 107.466208  L 83.841947 109.140082  L 83.858024 110.813956  L 83.87407 112.48783  L 83.890086 114.161703  L 83.906072 115.835577  L 83.922027 117.509451  L 83.937952 119.183324  L 83.953848 120.857198  L 83.969713 122.531072  L 83.985548 124.204946  L 84.001354 125.878819  L 84.017129 127.552693  L 84.032875 129.226567  L 84.048591 130.900441  L 84.064277 132.574314  L 84.079934 134.248188  L 84.095561 135.922062  L 84.111159 137.595936  L 84.126727 139.269809  L 84.142266 140.943683  L 84.157775 142.617557  L 84.173255 144.291431  L 84.188706 145.965304  L 84.204128 147.639178  L 84.219521 149.313052  L 84.234884 150.986926  L 84.250219 152.660799  L 84.265524 154.334673  L 84.280801 156.008547  L 84.296049 157.68242  L 84.311268 159.356294  L 84.326458 161.030168  L 84.34162 162.704042  L 84.356753 164.377915  L 84.371857 166.051789  L 84.386933 167.725663  L 84.40198 169.399537  L 84.416999 171.07341  L 84.43199 172.747284  L 84.446952 174.421158  L 84.461886 176.095032  L 84.476792 177.768905  L 84.49167 179.442779  L 84.50652 181.116653  L 84.521341 182.790527  L 84.536135 184.4644  L 84.5509 186.138274  L 84.565638 187.812148  L 84.580348 189.486021  L 84.59503 191.159895  L 84.609685 192.833769  L 84.624311 194.507643  L 84.638911 196.181516  L 84.653482 197.85539  L 84.668026 199.529264  L 84.682543 201.203138  L 84.697032 202.877011  L 84.711494 204.550885  L 84.725928 206.224759  L 84.740335 207.898633  L 84.754716 209.572506  L 84.769068 211.24638  L 84.783394 212.920254  L 84.797693 214.594128  L 84.811965 216.268001  L 84.826209 217.941875  L 99.884191 217.941875  L 99.884191 217.941875  L 99.898435 216.268001  L 99.912707 214.594128  L 99.927006 212.920254  L 99.941332 211.24638  L 99.955684 209.572506  L 99.970065 207.898633  L 99.984472 206.224759  L 99.998906 204.550885  L 100.013368 202.877011  L 100.027857 201.203138  L 100.042374 199.529264  L 100.056918 197.85539  L 100.071489 196.181516  L 100.086089 194.507643  L 100.100715 192.833769  L 100.11537 191.159895  L 100.130052 189.486021  L 100.144762 187.812148  L 100.1595 186.138274  L 100.174265 184.4644  L 100.189059 182.790527  L 100.20388 181.116653  L 100.21873 179.442779  L 100.233608 177.768905  L 100.248514 176.095032  L 100.263448 174.421158  L 100.27841 172.747284  L 100.293401 171.07341  L 100.30842 169.399537  L 100.323467 167.725663  L 100.338543 166.051789  L 100.353647 164.377915  L 100.36878 162.704042  L 100.383942 161.030168  L 100.399132 159.356294  L 100.414351 157.68242  L 100.429599 156.008547  L 100.444876 154.334673  L 100.460181 152.660799  L 100.475516 150.986926  L 100.490879 149.313052  L 100.506272 147.639178  L 100.521694 145.965304  L 100.537145 144.291431  L 100.552625 142.617557  L 100.568134 140.943683  L 100.583673 139.269809  L 100.599241 137.595936  L 100.614839 135.922062  L 100.630466 134.248188  L 100.646123 132.574314  L 100.661809 130.900441  L 100.677525 129.226567  L 100.693271 127.552693  L 100.709046 125.878819  L 100.724852 124.204946  L 100.740687 122.531072  L 100.756552 120.857198  L 100.772448 119.183324  L 100.788373 117.509451  L 100.804328 115.835577  L 100.820314 114.161703  L 100.83633 112.48783  L 100.852376 110.813956  L 100.868453 109.140082  L 100.88456 107.466208  L 100.900697 105.792335  L 100.916865 104.118461  L 100.933064 102.444587  L 100.949293 100.770713  L 100.965553 99.09684  L 100.981844 97.422966  L 100.998165 95.749092  L 101.014518 94.075218  L 101.030901 92.401345  L 101.047315 90.727471  L 101.063761 89.053597  L 101.080237 87.379723  L 101.096745 85.70585  L 101.113284 84.031976  L 101.129854 82.358102  L 101.146455 80.684229  L 101.163088 79.010355  L 101.179753 77.336481  L 101.196449 75.662607  L 101.213176 73.988734  L 101.229935 72.31486  L 101.246726 70.640986  L 101.263549 68.967112  L 101.280404 67.293239  L 101.29729 65.619365  L 101.314208 63.945491  L 101.331159 62.271617  L 101.348141 60.597744  L 101.365156 58.92387  L 101.382202 57.249996  L 101.399281 55.576122  L 101.416393 53.902249  L 101.433536 52.228375  L 107.690228 52.228375  L 107.690228 10.8  z "
           clip-path="url(#pf7c8d50d41)"
           style="fill:#b3b3b3;fill-opacity:0.5"
           id="path113899" />
      </g>
      <g
         id="patch_4">
        <path
           d="M 172.826509 52.228375  L 171.577238 70.640986  L 170.226325 87.379723  L 168.803811 102.444587  L 167.152825 117.509451  L 165.463942 130.900441  L 163.535978 144.291431  L 161.626396 156.008547  L 159.482271 167.725663  L 157.436027 177.768905  L 155.176166 187.812148  L 152.680386 197.85539  L 149.924059 207.898633  L 147.40855 216.268001  L 146.879984 217.941875  M 185.339891 52.228375  L 186.589162 70.640986  L 187.940075 87.379723  L 189.362589 102.444587  L 191.013575 117.509451  L 192.702458 130.900441  L 194.630422 144.291431  L 196.540004 156.008547  L 198.684129 167.725663  L 200.730373 177.768905  L 202.990234 187.812148  L 205.486014 197.85539  L 208.242341 207.898633  L 210.75785 216.268001  L 211.286416 217.941875  L 211.286416 217.941875  "
           clip-path="url(#pf7c8d50d41)"
           style="fill:none;stroke:#000000;stroke-linejoin:miter;stroke-opacity:1"
           id="path113902" />
      </g>
      <g
         id="PolyCollection_2"
         style="fill:#b3b3b3">
        <path
           d="M 185.339891 52.228375  L 172.826509 52.228375  L 172.722101 53.902249  L 172.615951 55.576122  L 172.50803 57.249996  L 172.398308 58.92387  L 172.286755 60.597744  L 172.17334 62.271617  L 172.058033 63.945491  L 171.940801 65.619365  L 171.821614 67.293239  L 171.700437 68.967112  L 171.577238 70.640986  L 171.451984 72.31486  L 171.324639 73.988734  L 171.195169 75.662607  L 171.063539 77.336481  L 170.929712 79.010355  L 170.793652 80.684229  L 170.655321 82.358102  L 170.514682 84.031976  L 170.371697 85.70585  L 170.226325 87.379723  L 170.078527 89.053597  L 169.928263 90.727471  L 169.775491 92.401345  L 169.62017 94.075218  L 169.462257 95.749092  L 169.301709 97.422966  L 169.138482 99.09684  L 168.972531 100.770713  L 168.803811 102.444587  L 168.632275 104.118461  L 168.457877 105.792335  L 168.280568 107.466208  L 168.100301 109.140082  L 167.917026 110.813956  L 167.730692 112.48783  L 167.541249 114.161703  L 167.348644 115.835577  L 167.152825 117.509451  L 166.953739 119.183324  L 166.751331 120.857198  L 166.545544 122.531072  L 166.336324 124.204946  L 166.123613 125.878819  L 165.907351 127.552693  L 165.687481 129.226567  L 165.463942 130.900441  L 165.236673 132.574314  L 165.005611 134.248188  L 164.770694 135.922062  L 164.531856 137.595936  L 164.289032 139.269809  L 164.042157 140.943683  L 163.791162 142.617557  L 163.535978 144.291431  L 163.276536 145.965304  L 163.012765 147.639178  L 162.744592 149.313052  L 162.471944 150.986926  L 162.194746 152.660799  L 161.912923 154.334673  L 161.626396 156.008547  L 161.335089 157.68242  L 161.03892 159.356294  L 160.737809 161.030168  L 160.431673 162.704042  L 160.120428 164.377915  L 159.80399 166.051789  L 159.482271 167.725663  L 159.155183 169.399537  L 158.822637 171.07341  L 158.484542 172.747284  L 158.140805 174.421158  L 157.791332 176.095032  L 157.436027 177.768905  L 157.074794 179.442779  L 156.707532 181.116653  L 156.334141 182.790527  L 155.95452 184.4644  L 155.568563 186.138274  L 155.176166 187.812148  L 154.777221 189.486021  L 154.371619 191.159895  L 153.959248 192.833769  L 153.539996 194.507643  L 153.113748 196.181516  L 152.680386 197.85539  L 152.239793 199.529264  L 151.791848 201.203138  L 151.336428 202.877011  L 150.873408 204.550885  L 150.402661 206.224759  L 149.924059 207.898633  L 149.43747 209.572506  L 148.942762 211.24638  L 148.439798 212.920254  L 147.92844 214.594128  L 147.40855 216.268001  L 146.879984 217.941875  L 211.286416 217.941875  L 211.286416 217.941875  L 210.75785 216.268001  L 210.23796 214.594128  L 209.726602 212.920254  L 209.223638 211.24638  L 208.72893 209.572506  L 208.242341 207.898633  L 207.763739 206.224759  L 207.292992 204.550885  L 206.829972 202.877011  L 206.374552 201.203138  L 205.926607 199.529264  L 205.486014 197.85539  L 205.052652 196.181516  L 204.626404 194.507643  L 204.207152 192.833769  L 203.794781 191.159895  L 203.389179 189.486021  L 202.990234 187.812148  L 202.597837 186.138274  L 202.21188 184.4644  L 201.832259 182.790527  L 201.458868 181.116653  L 201.091606 179.442779  L 200.730373 177.768905  L 200.375068 176.095032  L 200.025595 174.421158  L 199.681858 172.747284  L 199.343763 171.07341  L 199.011217 169.399537  L 198.684129 167.725663  L 198.36241 166.051789  L 198.045972 164.377915  L 197.734727 162.704042  L 197.428591 161.030168  L 197.12748 159.356294  L 196.831311 157.68242  L 196.540004 156.008547  L 196.253477 154.334673  L 195.971654 152.660799  L 195.694456 150.986926  L 195.421808 149.313052  L 195.153635 147.639178  L 194.889864 145.965304  L 194.630422 144.291431  L 194.375238 142.617557  L 194.124243 140.943683  L 193.877368 139.269809  L 193.634544 137.595936  L 193.395706 135.922062  L 193.160789 134.248188  L 192.929727 132.574314  L 192.702458 130.900441  L 192.478919 129.226567  L 192.259049 127.552693  L 192.042787 125.878819  L 191.830076 124.204946  L 191.620856 122.531072  L 191.415069 120.857198  L 191.212661 119.183324  L 191.013575 117.509451  L 190.817756 115.835577  L 190.625151 114.161703  L 190.435708 112.48783  L 190.249374 110.813956  L 190.066099 109.140082  L 189.885832 107.466208  L 189.708523 105.792335  L 189.534125 104.118461  L 189.362589 102.444587  L 189.193869 100.770713  L 189.027918 99.09684  L 188.864691 97.422966  L 188.704143 95.749092  L 188.54623 94.075218  L 188.390909 92.401345  L 188.238137 90.727471  L 188.087873 89.053597  L 187.940075 87.379723  L 187.794703 85.70585  L 187.651718 84.031976  L 187.511079 82.358102  L 187.372748 80.684229  L 187.236688 79.010355  L 187.102861 77.336481  L 186.971231 75.662607  L 186.841761 73.988734  L 186.714416 72.31486  L 186.589162 70.640986  L 186.465963 68.967112  L 186.344786 67.293239  L 186.225599 65.619365  L 186.108367 63.945491  L 185.99306 62.271617  L 185.879645 60.597744  L 185.768092 58.92387  L 185.65837 57.249996  L 185.550449 55.576122  L 185.444299 53.902249  L 185.339891 52.228375  z "
           clip-path="url(#pf7c8d50d41)"
           style="fill:#b3b3b3;fill-opacity:0.5"
           id="path113905" />
      </g>
      <g
         id="patch_5">
        <path
           d="M 109.689956 52.228375  L 110.689956 52.259811  L 111.689956 52.296752  L 112.689956 52.394498  L 113.689956 52.42702  L 114.689956 52.500645  L 115.689956 52.53921  L 116.689956 52.574623  L 117.689956 52.632263  L 118.689956 52.702649  L 119.689956 52.754614  L 120.689956 52.813703  L 121.689956 52.902024  L 122.689956 52.948169  L 123.689956 52.99058  L 124.689956 53.021072  L 125.689956 53.047117  L 126.689956 53.068317  L 127.689956 53.122618  L 128.689956 53.150556  L 129.689956 53.18028  L 130.689956 53.205675  L 131.689956 53.216875  L 132.689956 53.226999  L 133.689956 53.226795  L 134.689956 53.217285  L 135.689956 53.205631  L 136.689956 53.174602  L 137.689956 53.163434  L 138.689956 53.133317  L 139.689956 53.07354  L 140.689956 53.036348  L 141.689956 52.997252  L 142.689956 52.954812  L 143.689956 52.922047  L 144.689956 52.854621  L 145.689956 52.815495  L 146.689956 52.77282  L 147.689956 52.70224  L 148.689956 52.665849  L 149.689956 52.607446  L 150.689956 52.496493  L 151.689956 52.425835  L 152.689956 52.312895  L 153.689956 52.267122  L 154.689956 52.205839  L 155.689956 52.15734  L 156.689956 52.076517  L 157.689956 51.957998  L 158.689956 51.887787  L 159.689956 51.804525  L 160.689956 51.771383  L 161.689956 51.720146  L 162.689956 51.651747  L 163.689956 51.585532  L 164.689956 51.508615  L 165.689956 51.481299  L 166.689956 51.454822  L 167.689956 51.432171  L 168.689956 51.41264  L 169.708483 51.386246  "
           clip-path="url(#pf7c8d50d41)"
           style="fill: none; stroke: #ffffff; stroke-width: 3; stroke-linecap: round"
           id="path113963" />
        <path
           d="M 109.689956 52.228375  L 110.689956 52.259811  L 111.689956 52.296752  L 112.689956 52.394498  L 113.689956 52.42702  L 114.689956 52.500645  L 115.689956 52.53921  L 116.689956 52.574623  L 117.689956 52.632263  L 118.689956 52.702649  L 119.689956 52.754614  L 120.689956 52.813703  L 121.689956 52.902024  L 122.689956 52.948169  L 123.689956 52.99058  L 124.689956 53.021072  L 125.689956 53.047117  L 126.689956 53.068317  L 127.689956 53.122618  L 128.689956 53.150556  L 129.689956 53.18028  L 130.689956 53.205675  L 131.689956 53.216875  L 132.689956 53.226999  L 133.689956 53.226795  L 134.689956 53.217285  L 135.689956 53.205631  L 136.689956 53.174602  L 137.689956 53.163434  L 138.689956 53.133317  L 139.689956 53.07354  L 140.689956 53.036348  L 141.689956 52.997252  L 142.689956 52.954812  L 143.689956 52.922047  L 144.689956 52.854621  L 145.689956 52.815495  L 146.689956 52.77282  L 147.689956 52.70224  L 148.689956 52.665849  L 149.689956 52.607446  L 150.689956 52.496493  L 151.689956 52.425835  L 152.689956 52.312895  L 153.689956 52.267122  L 154.689956 52.205839  L 155.689956 52.15734  L 156.689956 52.076517  L 157.689956 51.957998  L 158.689956 51.887787  L 159.689956 51.804525  L 160.689956 51.771383  L 161.689956 51.720146  L 162.689956 51.651747  L 163.689956 51.585532  L 164.689956 51.508615  L 165.689956 51.481299  L 166.689956 51.454822  L 167.689956 51.432171  L 168.689956 51.41264  L 169.708483 51.386246  "
           clip-path="url(#pf7c8d50d41)"
           style="fill:none;stroke:#000000;stroke-linecap:round;stroke-opacity:1"
           id="path113965" />
        <path
           d="M 165.708483 50.228375  L 166.588851 50.703706  L 167.466758 51.18396  L 168.317472 51.718601  L 169.619646 52.406048  L 168.692293 52.432063  L 167.780619 52.844783  L 166.870354 53.260322  L 165.527858 53.867126  L 166.182757 53.228375  L 166.234721 52.228375  L 166.293811 50.228375  L 165.708483 50.228375  z "
           clip-path="url(#pf7c8d50d41)"
           style="fill: #ffffff; stroke: #ffffff; stroke-width: 3; stroke-linecap: round"
           id="path113967" />
        <path
           d="M 165.708483 50.228375  L 166.588851 50.703706  L 167.466758 51.18396  L 168.317472 51.718601  L 169.619646 52.406048  L 168.692293 52.432063  L 167.780619 52.844783  L 166.870354 53.260322  L 165.527858 53.867126  L 166.182757 53.228375  L 166.234721 52.228375  L 166.293811 50.228375  L 165.708483 50.228375  z "
           clip-path="url(#pf7c8d50d41)"
           style="fill:#ffffff;stroke:#000000;stroke-linecap:round;stroke-opacity:1"
           id="path113969" />
        <path
           d="M 159.162585 166.911001  L 157.162585 165.911001  L 157.162585 167.911001  z "
           clip-path="url(#pf7c8d50d41)"
           style="fill:#000000;fill-opacity:0.5;stroke:#000000;stroke-opacity:0.5;stroke-linejoin:miter"
           id="path113971" />
        <path
           d="M 166.060099 122.599752  L 164.060099 121.599752  L 164.060099 123.599752  z "
           clip-path="url(#pf7c8d50d41)"
           style="fill:#000000;fill-opacity:0.5;stroke:#000000;stroke-opacity:0.5;stroke-linejoin:miter"
           id="path113973" />
        <path
           d="M 164.941793 131.235716  L 162.941793 130.235716  L 162.941793 132.235716  z "
           clip-path="url(#pf7c8d50d41)"
           style="fill:#000000;fill-opacity:0.5;stroke:#000000;stroke-opacity:0.5;stroke-linejoin:miter"
           id="path113975" />
        <path
           d="M 166.894426 115.639644  L 164.894426 114.639644  L 164.894426 116.639644  z "
           clip-path="url(#pf7c8d50d41)"
           style="fill:#000000;fill-opacity:0.5;stroke:#000000;stroke-opacity:0.5;stroke-linejoin:miter"
           id="path113977" />
        <path
           d="M 168.904818 96.591963  L 166.904818 95.591963  L 166.904818 97.591963  z "
           clip-path="url(#pf7c8d50d41)"
           style="fill:#000000;fill-opacity:0.5;stroke:#000000;stroke-opacity:0.5;stroke-linejoin:miter"
           id="path113979" />
        <path
           d="M 156.646171 179.220536  L 154.646171 178.220536  L 154.646171 180.220536  z "
           clip-path="url(#pf7c8d50d41)"
           style="fill:#000000;fill-opacity:0.5;stroke:#000000;stroke-opacity:0.5;stroke-linejoin:miter"
           id="path113981" />
        <path
           d="M 159.98531 162.538154  L 157.98531 161.538154  L 157.98531 163.538154  z "
           clip-path="url(#pf7c8d50d41)"
           style="fill:#000000;fill-opacity:0.5;stroke:#000000;stroke-opacity:0.5;stroke-linejoin:miter"
           id="path113983" />
        <path
           d="M 171.426046 66.153618  L 169.426046 65.153618  L 169.426046 67.153618  z "
           clip-path="url(#pf7c8d50d41)"
           style="fill:#000000;fill-opacity:0.5;stroke:#000000;stroke-opacity:0.5;stroke-linejoin:miter"
           id="path113985" />
        <path
           d="M 167.42031 110.993031  L 165.42031 109.993031  L 165.42031 111.993031  z "
           clip-path="url(#pf7c8d50d41)"
           style="fill:#000000;fill-opacity:0.5;stroke:#000000;stroke-opacity:0.5;stroke-linejoin:miter"
           id="path113987" />
        <path
           d="M 158.975663 167.878695  L 156.975663 166.878695  L 156.975663 168.878695  z "
           clip-path="url(#pf7c8d50d41)"
           style="fill:#000000;fill-opacity:0.5;stroke:#000000;stroke-opacity:0.5;stroke-linejoin:miter"
           id="path113989" />
        <path
           d="M 100.411612 212.022804  L 102.411612 213.022804  L 102.411612 211.022804  z "
           clip-path="url(#pf7c8d50d41)"
           style="fill:#000000;fill-opacity:0.5;stroke:#000000;stroke-opacity:0.5;stroke-linejoin:miter"
           id="path113991" />
        <path
           d="M 101.689197 74.079475  L 103.689197 75.079475  L 103.689197 73.079475  z "
           clip-path="url(#pf7c8d50d41)"
           style="fill:#000000;fill-opacity:0.5;stroke:#000000;stroke-opacity:0.5;stroke-linejoin:miter"
           id="path113993" />
        <path
           d="M 101.8619 56.978426  L 103.8619 57.978426  L 103.8619 55.978426  z "
           clip-path="url(#pf7c8d50d41)"
           style="fill:#000000;fill-opacity:0.5;stroke:#000000;stroke-opacity:0.5;stroke-linejoin:miter"
           id="path113995" />
        <path
           d="M 100.618969 188.121636  L 102.618969 189.121636  L 102.618969 187.121636  z "
           clip-path="url(#pf7c8d50d41)"
           style="fill:#000000;fill-opacity:0.5;stroke:#000000;stroke-opacity:0.5;stroke-linejoin:miter"
           id="path113997" />
        <path
           d="M 100.842379 163.072089  L 102.842379 164.072089  L 102.842379 162.072089  z "
           clip-path="url(#pf7c8d50d41)"
           style="fill:#000000;fill-opacity:0.5;stroke:#000000;stroke-opacity:0.5;stroke-linejoin:miter"
           id="path113999" />
        <path
           d="M 100.424704 210.494448  L 102.424704 211.494448  L 102.424704 209.494448  z "
           clip-path="url(#pf7c8d50d41)"
           style="fill:#000000;fill-opacity:0.5;stroke:#000000;stroke-opacity:0.5;stroke-linejoin:miter"
           id="path114001" />
        <path
           d="M 101.885007 54.715201  L 103.885007 55.715201  L 103.885007 53.715201  z "
           clip-path="url(#pf7c8d50d41)"
           style="fill:#000000;fill-opacity:0.5;stroke:#000000;stroke-opacity:0.5;stroke-linejoin:miter"
           id="path114003" />
        <path
           d="M 101.670053 75.995694  L 103.670053 76.995694  L 103.670053 74.995694  z "
           clip-path="url(#pf7c8d50d41)"
           style="fill:#000000;fill-opacity:0.5;stroke:#000000;stroke-opacity:0.5;stroke-linejoin:miter"
           id="path114005" />
        <path
           d="M 101.305476 113.300805  L 103.305476 114.300805  L 103.305476 112.300805  z "
           clip-path="url(#pf7c8d50d41)"
           style="fill:#000000;fill-opacity:0.5;stroke:#000000;stroke-opacity:0.5;stroke-linejoin:miter"
           id="path114007" />
        <path
           d="M 101.612463 81.785055  L 103.612463 82.785055  L 103.612463 80.785055  z "
           clip-path="url(#pf7c8d50d41)"
           style="fill:#000000;fill-opacity:0.5;stroke:#000000;stroke-opacity:0.5;stroke-linejoin:miter"
           id="path114009" />
      </g>
      <g
         id="xtick_1"
         style="stroke-linecap:butt;stroke-linejoin:round"
         transform="matrix(1.4141142,0,0,1.4141142,-38.099348,-91.775322)">
        <g
           id="line2d_1"
           style="stroke-linecap:butt;stroke-linejoin:round" />
        <g
           id="text_1"
           style="stroke-linecap:butt;stroke-linejoin:round">
          <!-- Bornean -->
          <g
             transform="matrix(0.1,0,0,-0.1,71.419262,229.04031)"
             id="g113931"
             style="stroke-linecap:butt;stroke-linejoin:round">
            <defs
               id="defs113915">
              <path
                 id="path619745"
                 d="M 1259,2228 V 519 h 1013 q 509,0 754,211 246,211 246,645 0,438 -246,645 -245,208 -754,208 z m 0,1919 V 2741 h 935 q 462,0 688,173 227,174 227,530 0,353 -227,528 -226,175 -688,175 z m -631,519 h 1613 q 722,0 1112,-300 391,-300 391,-853 0,-429 -200,-682 -200,-253 -588,-315 466,-100 724,-418 258,-317 258,-792 0,-625 -425,-966 Q 3088,0 2303,0 H 628 Z"
                 transform="scale(0.015625)" />
              <path
                 id="path619747"
                 d="m 1959,3097 q -462,0 -731,-361 -269,-361 -269,-989 0,-628 267,-989 268,-361 733,-361 460,0 728,362 269,363 269,988 0,622 -269,986 -268,364 -728,364 z m 0,487 q 750,0 1178,-488 429,-487 429,-1349 Q 3566,888 3137,398 2709,-91 1959,-91 1206,-91 779,398 353,888 353,1747 q 0,862 426,1349 427,488 1180,488 z"
                 transform="scale(0.015625)" />
              <path
                 id="path619749"
                 d="m 2631,2963 q -97,56 -211,82 -114,27 -251,27 -488,0 -749,-317 -261,-317 -261,-911 V 0 H 581 v 3500 h 578 v -544 q 182,319 472,473 291,155 707,155 59,0 131,-8 72,-7 159,-23 z"
                 transform="scale(0.015625)" />
              <path
                 id="path619751"
                 d="M 3513,2113 V 0 h -575 v 2094 q 0,497 -194,743 -194,247 -581,247 -466,0 -735,-297 -269,-296 -269,-809 V 0 H 581 v 3500 h 578 v -544 q 207,316 486,472 280,156 646,156 603,0 912,-373 310,-373 310,-1098 z"
                 transform="scale(0.015625)" />
              <path
                 id="path619753"
                 d="M 3597,1894 V 1613 H 953 q 38,-594 358,-905 320,-311 892,-311 331,0 642,81 311,81 618,244 V 178 Q 3153,47 2828,-22 2503,-91 2169,-91 1331,-91 842,396 353,884 353,1716 q 0,859 464,1363 464,505 1252,505 706,0 1117,-455 411,-454 411,-1235 z m -575,169 q -6,471 -264,752 -258,282 -683,282 -481,0 -770,-272 -289,-272 -333,-766 z"
                 transform="scale(0.015625)" />
              <path
                 id="path619755"
                 d="m 2194,1759 q -697,0 -966,-159 -269,-159 -269,-544 0,-306 202,-486 202,-179 548,-179 479,0 768,339 289,339 289,901 v 128 z m 1147,238 V 0 H 2766 V 531 Q 2569,213 2275,61 1981,-91 1556,-91 q -537,0 -855,302 -317,302 -317,808 0,590 395,890 396,300 1180,300 h 807 v 57 q 0,397 -261,614 -261,217 -733,217 -300,0 -585,-72 -284,-72 -546,-216 v 532 q 315,122 612,182 297,61 578,61 760,0 1135,-394 375,-393 375,-1193 z"
                 transform="scale(0.015625)" />
            </defs>
            <path
               id="use113917"
               d="M 19.671875,34.8125 V 8.109375 H 35.5 q 7.953125,0 11.78125,3.296875 3.84375,3.296875 3.84375,10.078125 0,6.84375 -3.84375,10.078125 -3.828125,3.25 -11.78125,3.25 z m 0,29.984375 V 42.828125 H 34.28125 q 7.21875,0 10.75,2.703125 3.546875,2.71875 3.546875,8.28125 0,5.515625 -3.546875,8.25 -3.53125,2.734375 -10.75,2.734375 z M 9.8125,72.90625 h 25.203125 q 11.28125,0 17.375,-4.6875 Q 58.5,63.53125 58.5,54.890625 58.5,48.1875 55.375,44.234375 52.25,40.28125 46.1875,39.3125 53.46875,37.75 57.5,32.78125 q 4.03125,-4.953125 4.03125,-12.375 0,-9.765625 -6.640625,-15.09375 Q 48.25,0 35.984375,0 H 9.8125 Z"
               style="stroke-width:0.015625;stroke-linecap:butt;stroke-linejoin:round" />
            <path
               id="use113919"
               d="m 99.212891,48.390625 q -7.21875,0 -11.421875,-5.640625 -4.203125,-5.640625 -4.203125,-15.453125 0,-9.8125 4.171875,-15.453125 4.1875,-5.640625 11.453125,-5.640625 7.187499,0 11.374999,5.65625 4.20313,5.671875 4.20313,15.4375 0,9.71875 -4.20313,15.40625 -4.1875,5.6875 -11.374999,5.6875 z m 0,7.609375 q 11.718749,0 18.406249,-7.625 6.70313,-7.609375 6.70313,-21.078125 0,-13.421875 -6.70313,-21.078125 -6.6875,-7.640625 -18.406249,-7.640625 -11.765625,0 -18.4375,7.640625 -6.65625,7.65625 -6.65625,21.078125 0,13.46875 6.65625,21.078125 Q 87.447266,56 99.212891,56 Z"
               style="stroke-width:0.015625;stroke-linecap:butt;stroke-linejoin:round" />
            <path
               id="use113921"
               d="m 170.89453,46.296875 q -1.51562,0.875 -3.29687,1.28125 Q 165.81641,48 163.67578,48 156.05078,48 151.97266,43.046875 147.89453,38.09375 147.89453,28.8125 V 0 h -9.03125 v 54.6875 h 9.03125 v -8.5 q 2.84375,4.984375 7.375,7.390625 Q 159.81641,56 166.31641,56 q 0.92187,0 2.04687,-0.125 1.125,-0.109375 2.48438,-0.359375 z"
               style="stroke-width:0.015625;stroke-linecap:butt;stroke-linejoin:round" />
            <path
               id="use113923"
               d="M 224.03906,33.015625 V 0 h -8.98437 v 32.71875 q 0,7.765625 -3.03125,11.609375 -3.03125,3.859375 -9.07813,3.859375 -7.28125,0 -11.48437,-4.640625 -4.20313,-4.625 -4.20313,-12.640625 V 0 h -9.03125 v 54.6875 h 9.03125 v -8.5 q 3.23438,4.9375 7.59375,7.375 4.375,2.4375 10.09375,2.4375 9.42188,0 14.25,-5.828125 4.84375,-5.828125 4.84375,-17.15625 z"
               style="stroke-width:0.015625;stroke-linecap:butt;stroke-linejoin:round" />
            <path
               id="use113925"
               d="m 288.73047,29.59375 v -4.390625 h -41.3125 q 0.59375,-9.28125 5.59375,-14.140625 5,-4.859375 13.9375,-4.859375 5.17187,0 10.03125,1.265625 4.85937,1.265625 9.65625,3.8125 v -8.5 q -4.84375,-2.046875 -9.92188,-3.125 -5.07812,-1.078125 -10.29687,-1.078125 -13.09375,0 -20.73438,7.609375 -7.64062,7.625 -7.64062,20.625 0,13.421875 7.25,21.296875 Q 252.54297,56 264.85547,56 q 11.03125,0 17.45312,-7.109375 6.42188,-7.09375 6.42188,-19.296875 z m -8.98438,2.640625 q -0.0937,7.359375 -4.125,11.75 -4.03125,4.40625 -10.67187,4.40625 -7.51563,0 -12.03125,-4.25 -4.51563,-4.25 -5.20313,-11.96875 z"
               style="stroke-width:0.015625;stroke-linecap:butt;stroke-linejoin:round" />
            <path
               id="use113927"
               d="m 328.33203,27.484375 q -10.89062,0 -15.09375,-2.484375 -4.20312,-2.484375 -4.20312,-8.5 0,-4.78125 3.15625,-7.59375 3.15625,-2.796875 8.5625,-2.796875 7.48437,0 12,5.296875 4.51562,5.296875 4.51562,14.078125 v 2 z m 17.92188,3.71875 V 0 h -8.98438 v 8.296875 q -3.07812,-4.96875 -7.67187,-7.34375 -4.59375,-2.375 -11.23438,-2.375 -8.39062,0 -13.35937,4.71875 -4.95313,4.71875 -4.95313,12.625 0,9.21875 6.17188,13.90625 6.1875,4.6875 18.4375,4.6875 h 12.60937 v 0.890625 q 0,6.203125 -4.07812,9.59375 -4.07813,3.390625 -11.45313,3.390625 -4.6875,0 -9.14062,-1.125 -4.4375,-1.125 -8.53125,-3.375 v 8.3125 q 4.92187,1.90625 9.5625,2.84375 Q 318.26953,56 322.66016,56 q 11.875,0 17.73437,-6.15625 5.85938,-6.140625 5.85938,-18.640625 z"
               style="stroke-width:0.015625;stroke-linecap:butt;stroke-linejoin:round" />
            <path
               id="use113929"
               d="M 410.2207,33.015625 V 0 h -8.98437 v 32.71875 q 0,7.765625 -3.03125,11.609375 -3.03125,3.859375 -9.07813,3.859375 -7.28125,0 -11.48437,-4.640625 -4.20313,-4.625 -4.20313,-12.640625 V 0 h -9.03125 v 54.6875 h 9.03125 v -8.5 q 3.23438,4.9375 7.59375,7.375 4.375,2.4375 10.09375,2.4375 9.42188,0 14.25,-5.828125 4.84375,-5.828125 4.84375,-17.15625 z"
               style="stroke-width:0.015625;stroke-linecap:butt;stroke-linejoin:round" />
          </g>
        </g>
      </g>
      <g
         id="xtick_2"
         style="stroke-linecap:butt;stroke-linejoin:round"
         transform="matrix(1.4141142,0,0,1.4141142,-73.841251,-91.775322)">
        <g
           id="line2d_2"
           style="stroke-linecap:butt;stroke-linejoin:round" />
        <g
           id="text_2"
           style="stroke-linecap:butt;stroke-linejoin:round">
          <!-- Sumatran -->
          <g
             transform="matrix(0.1,0,0,-0.1,154.55742,229.04031)"
             id="g113958"
             style="stroke-linecap:butt;stroke-linejoin:round">
            <defs
               id="defs113940">
              <path
                 id="path619769"
                 d="m 3425,4513 v -616 q -359,172 -678,256 -319,85 -616,85 -515,0 -795,-200 -280,-200 -280,-569 0,-310 186,-468 186,-157 705,-254 l 381,-78 q 706,-135 1042,-474 336,-339 336,-907 0,-679 -455,-1029 -454,-350 -1332,-350 -331,0 -705,75 -373,75 -773,222 v 650 q 384,-215 753,-325 369,-109 725,-109 540,0 834,212 294,213 294,607 0,343 -211,537 -211,194 -692,291 l -385,75 q -706,140 -1022,440 -315,300 -315,835 0,619 436,975 436,356 1201,356 329,0 669,-60 341,-59 697,-177 z"
                 transform="scale(0.015625)" />
              <path
                 id="path619771"
                 d="m 544,1381 v 2119 h 575 V 1403 q 0,-497 193,-746 194,-248 582,-248 465,0 735,297 271,297 271,810 v 1984 h 575 V 0 H 2900 V 538 Q 2691,219 2414,64 2138,-91 1772,-91 1169,-91 856,284 544,659 544,1381 Z m 1447,2203 z"
                 transform="scale(0.015625)" />
              <path
                 id="path619773"
                 d="m 3328,2828 q 216,388 516,572 300,184 706,184 547,0 844,-383 297,-382 297,-1088 V 0 h -578 v 2094 q 0,503 -179,746 -178,244 -543,244 -447,0 -707,-297 -259,-296 -259,-809 V 0 h -578 v 2094 q 0,506 -178,748 -178,242 -550,242 -441,0 -701,-298 -259,-298 -259,-808 V 0 H 581 v 3500 h 578 v -544 q 197,322 472,475 275,153 653,153 382,0 649,-194 267,-193 395,-562 z"
                 transform="scale(0.015625)" />
              <path
                 id="path619775"
                 d="M 1172,4494 V 3500 H 2356 V 3053 H 1172 V 1153 q 0,-428 117,-550 117,-122 477,-122 h 590 V 0 H 1766 Q 1100,0 847,248 594,497 594,1153 V 3053 H 172 v 447 h 422 v 994 z"
                 transform="scale(0.015625)" />
            </defs>
            <path
               id="use113942"
               d="m 53.515625,70.515625 v -9.625 q -5.609375,2.6875 -10.59375,4 -4.984375,1.328125 -9.625,1.328125 -8.046875,0 -12.421875,-3.125 -4.375,-3.125 -4.375,-8.890625 0,-4.84375 2.90625,-7.3125 2.90625,-2.453125 11.015625,-3.96875 L 36.375,41.703125 Q 47.40625,39.59375 52.65625,34.296875 57.90625,29 57.90625,20.125 q 0,-10.609375 -7.109375,-16.078125 -7.09375,-5.46875 -20.8125,-5.46875 -5.171875,0 -11.015625,1.171875 Q 13.140625,0.921875 6.890625,3.21875 V 13.375 q 6,-3.359375 11.765625,-5.078125 5.765625,-1.703125 11.328125,-1.703125 8.4375,0 13.03125,3.3125 4.59375,3.328125 4.59375,9.484375 0,5.359375 -3.296875,8.390625 Q 41.015625,30.8125 33.5,32.328125 L 27.484375,33.5 q -11.03125,2.1875 -15.96875,6.875 -4.921875,4.6875 -4.921875,13.046875 0,9.671875 6.8125,15.234375 6.8125,5.5625 18.765625,5.5625 5.140625,0 10.453125,-0.9375 5.328125,-0.921875 10.890625,-2.765625 z"
               style="stroke-width:0.015625;stroke-linecap:butt;stroke-linejoin:round" />
            <path
               id="use113944"
               d="M 71.976562,21.578125 V 54.6875 h 8.984375 V 21.921875 q 0,-7.765625 3.015625,-11.65625 3.03125,-3.875 9.09375,-3.875 7.265628,0 11.484378,4.640625 4.23437,4.640625 4.23437,12.65625 v 31 h 8.98438 V 0 h -8.98438 V 8.40625 Q 105.52344,3.421875 101.19531,1 96.882812,-1.421875 91.164062,-1.421875 q -9.421875,0 -14.3125,5.859375 -4.875,5.859375 -4.875,17.140625 z M 94.585937,56 Z"
               style="stroke-width:0.015625;stroke-linecap:butt;stroke-linejoin:round" />
            <path
               id="use113946"
               d="m 178.85547,44.1875 q 3.375,6.0625 8.0625,8.9375 4.6875,2.875 11.03125,2.875 8.54687,0 13.1875,-5.984375 4.64062,-5.96875 4.64062,-17 V 0 h -9.03125 v 32.71875 q 0,7.859375 -2.79687,11.65625 -2.78125,3.8125 -8.48438,3.8125 -6.98437,0 -11.04687,-4.640625 -4.04688,-4.625 -4.04688,-12.640625 V 0 h -9.03125 v 32.71875 q 0,7.90625 -2.78125,11.6875 -2.78125,3.78125 -8.59375,3.78125 -6.89062,0 -10.95312,-4.65625 -4.04688,-4.65625 -4.04688,-12.625 V 0 h -9.03125 v 54.6875 h 9.03125 v -8.5 q 3.07813,5.03125 7.375,7.421875 Q 156.63672,56 162.54297,56 q 5.96875,0 10.14062,-3.03125 4.17188,-3.015625 6.17188,-8.78125 z"
               style="stroke-width:0.015625;stroke-linecap:butt;stroke-linejoin:round" />
            <path
               id="use113948"
               d="m 258.54883,27.484375 q -10.89063,0 -15.09375,-2.484375 -4.20313,-2.484375 -4.20313,-8.5 0,-4.78125 3.15625,-7.59375 3.15625,-2.796875 8.5625,-2.796875 7.48438,0 12,5.296875 4.51563,5.296875 4.51563,14.078125 v 2 z m 17.92187,3.71875 V 0 h -8.98437 v 8.296875 q -3.07813,-4.96875 -7.67188,-7.34375 -4.59375,-2.375 -11.23437,-2.375 -8.39063,0 -13.35938,4.71875 -4.95312,4.71875 -4.95312,12.625 0,9.21875 6.17187,13.90625 6.1875,4.6875 18.4375,4.6875 h 12.60938 v 0.890625 q 0,6.203125 -4.07813,9.59375 -4.07812,3.390625 -11.45312,3.390625 -4.6875,0 -9.14063,-1.125 -4.4375,-1.125 -8.53125,-3.375 v 8.3125 q 4.92188,1.90625 9.5625,2.84375 Q 248.48633,56 252.87695,56 q 11.875,0 17.73438,-6.15625 5.85937,-6.140625 5.85937,-18.640625 z"
               style="stroke-width:0.015625;stroke-linecap:butt;stroke-linejoin:round" />
            <path
               id="use113950"
               d="M 303.85937,70.21875 V 54.6875 h 18.5 v -6.984375 h -18.5 v -29.6875 q 0,-6.6875 1.82813,-8.59375 1.82812,-1.90625 7.45312,-1.90625 h 9.21875 V 0 h -9.21875 q -10.40625,0 -14.35937,3.875 -3.95313,3.890625 -3.95313,14.140625 v 29.6875 h -6.59375 V 54.6875 h 6.59375 v 15.53125 z"
               style="stroke-width:0.015625;stroke-linecap:butt;stroke-linejoin:round" />
            <path
               id="use113952"
               d="m 365.86523,46.296875 q -1.51562,0.875 -3.29687,1.28125 Q 360.78711,48 358.64648,48 351.02148,48 346.94336,43.046875 342.86523,38.09375 342.86523,28.8125 V 0 h -9.03125 v 54.6875 h 9.03125 v -8.5 q 2.84375,4.984375 7.375,7.390625 Q 354.78711,56 361.28711,56 q 0.92187,0 2.04687,-0.125 1.125,-0.109375 2.48438,-0.359375 z"
               style="stroke-width:0.015625;stroke-linecap:butt;stroke-linejoin:round" />
            <path
               id="use113954"
               d="m 400.15039,27.484375 q -10.89062,0 -15.09375,-2.484375 -4.20312,-2.484375 -4.20312,-8.5 0,-4.78125 3.15625,-7.59375 3.15625,-2.796875 8.5625,-2.796875 7.48437,0 12,5.296875 4.51562,5.296875 4.51562,14.078125 v 2 z m 17.92188,3.71875 V 0 h -8.98438 v 8.296875 q -3.07812,-4.96875 -7.67187,-7.34375 -4.59375,-2.375 -11.23438,-2.375 -8.39062,0 -13.35937,4.71875 -4.95313,4.71875 -4.95313,12.625 0,9.21875 6.17188,13.90625 6.1875,4.6875 18.4375,4.6875 h 12.60937 v 0.890625 q 0,6.203125 -4.07812,9.59375 -4.07813,3.390625 -11.45313,3.390625 -4.6875,0 -9.14062,-1.125 -4.4375,-1.125 -8.53125,-3.375 v 8.3125 q 4.92187,1.90625 9.5625,2.84375 Q 390.08789,56 394.47852,56 q 11.875,0 17.73437,-6.15625 5.85938,-6.140625 5.85938,-18.640625 z"
               style="stroke-width:0.015625;stroke-linecap:butt;stroke-linejoin:round" />
            <path
               id="use113956"
               d="M 482.03906,33.015625 V 0 h -8.98437 v 32.71875 q 0,7.765625 -3.03125,11.609375 -3.03125,3.859375 -9.07813,3.859375 -7.28125,0 -11.48437,-4.640625 -4.20313,-4.625 -4.20313,-12.640625 V 0 h -9.03125 v 54.6875 h 9.03125 v -8.5 q 3.23438,4.9375 7.59375,7.375 4.375,2.4375 10.09375,2.4375 9.42188,0 14.25,-5.828125 4.84375,-5.828125 4.84375,-17.15625 z"
               style="stroke-width:0.015625;stroke-linecap:butt;stroke-linejoin:round" />
          </g>
        </g>
      </g>
    </g>
    <defs
       id="defs114019">
      <clipPath
         id="pf7c8d50d41">
        <rect
           x="14.3"
           y="10.8"
           width="216.82"
           height="207.141875"
           id="rect114016" />
      </clipPath>
    </defs>
  </g>
</svg>
