<?xml version="1.0" encoding="UTF-8" standalone="no"?>
<svg
   width="241.92pt"
   height="241.92pt"
   viewBox="0 0 241.92 241.92"
   version="1.1"
   id="svg563142"
   sodipodi:docname="oran_time.svg"
   inkscape:version="1.2.2 (1:1.2.2+202212051552+b0a8486541)"
   xmlns:inkscape="http://www.inkscape.org/namespaces/inkscape"
   xmlns:sodipodi="http://sodipodi.sourceforge.net/DTD/sodipodi-0.dtd"
   xmlns:xlink="http://www.w3.org/1999/xlink"
   xmlns="http://www.w3.org/2000/svg"
   xmlns:svg="http://www.w3.org/2000/svg"
   xmlns:rdf="http://www.w3.org/1999/02/22-rdf-syntax-ns#"
   xmlns:cc="http://creativecommons.org/ns#"
   xmlns:dc="http://purl.org/dc/elements/1.1/">
  <sodipodi:namedview
     id="namedview563144"
     pagecolor="#ffffff"
     bordercolor="#000000"
     borderopacity="0.25"
     inkscape:showpageshadow="2"
     inkscape:pageopacity="0.0"
     inkscape:pagecheckerboard="0"
     inkscape:deskcolor="#d1d1d1"
     inkscape:document-units="pt"
     showgrid="false"
     inkscape:zoom="1.5368686"
     inkscape:cx="51.72856"
     inkscape:cy="-5.2053897"
     inkscape:window-width="1223"
     inkscape:window-height="779"
     inkscape:window-x="57"
     inkscape:window-y="21"
     inkscape:window-maximized="1"
     inkscape:current-layer="figure_1" />
  <metadata
     id="metadata562789">
    <rdf:RDF>
      <cc:Work>
        <dc:type
           rdf:resource="http://purl.org/dc/dcmitype/StillImage" />
        <dc:date>2023-02-27T13:34:51.589190</dc:date>
        <dc:format>image/svg+xml</dc:format>
        <dc:creator>
          <cc:Agent>
            <dc:title>Matplotlib v3.5.0, https://matplotlib.org/</dc:title>
          </cc:Agent>
        </dc:creator>
      </cc:Work>
    </rdf:RDF>
  </metadata>
  <defs
     id="defs562793">
    <style
       type="text/css"
       id="style562791">*{stroke-linejoin: round; stroke-linecap: butt}</style>
    <clipPath
       id="pf7c8d50d41">
      <rect
         x="14.3"
         y="10.8"
         width="216.82001"
         height="207.14188"
         id="rect114016" />
    </clipPath>
    <clipPath
       id="clipPath563999">
      <rect
         x="14.3"
         y="10.8"
         width="216.82001"
         height="207.14188"
         id="rect563997" />
    </clipPath>
    <clipPath
       id="clipPath564003">
      <rect
         x="14.3"
         y="10.8"
         width="216.82001"
         height="207.14188"
         id="rect564001" />
    </clipPath>
    <clipPath
       id="clipPath564007">
      <rect
         x="14.3"
         y="10.8"
         width="216.82001"
         height="207.14188"
         id="rect564005" />
    </clipPath>
    <clipPath
       id="clipPath564011">
      <rect
         x="14.3"
         y="10.8"
         width="216.82001"
         height="207.14188"
         id="rect564009" />
    </clipPath>
    <clipPath
       id="clipPath564015">
      <rect
         x="14.3"
         y="10.8"
         width="216.82001"
         height="207.14188"
         id="rect564013" />
    </clipPath>
    <clipPath
       id="clipPath564019">
      <rect
         x="14.3"
         y="10.8"
         width="216.82001"
         height="207.14188"
         id="rect564017" />
    </clipPath>
    <clipPath
       id="clipPath564023">
      <rect
         x="14.3"
         y="10.8"
         width="216.82001"
         height="207.14188"
         id="rect564021" />
    </clipPath>
    <clipPath
       id="clipPath564027">
      <rect
         x="14.3"
         y="10.8"
         width="216.82001"
         height="207.14188"
         id="rect564025" />
    </clipPath>
    <clipPath
       id="clipPath564031">
      <rect
         x="14.3"
         y="10.8"
         width="216.82001"
         height="207.14188"
         id="rect564029" />
    </clipPath>
    <clipPath
       id="clipPath564035">
      <rect
         x="14.3"
         y="10.8"
         width="216.82001"
         height="207.14188"
         id="rect564033" />
    </clipPath>
    <clipPath
       id="clipPath564039">
      <rect
         x="14.3"
         y="10.8"
         width="216.82001"
         height="207.14188"
         id="rect564037" />
    </clipPath>
    <clipPath
       id="clipPath564043">
      <rect
         x="14.3"
         y="10.8"
         width="216.82001"
         height="207.14188"
         id="rect564041" />
    </clipPath>
    <clipPath
       id="clipPath564047">
      <rect
         x="14.3"
         y="10.8"
         width="216.82001"
         height="207.14188"
         id="rect564045" />
    </clipPath>
    <clipPath
       id="clipPath564051">
      <rect
         x="14.3"
         y="10.8"
         width="216.82001"
         height="207.14188"
         id="rect564049" />
    </clipPath>
    <clipPath
       id="clipPath564055">
      <rect
         x="14.3"
         y="10.8"
         width="216.82001"
         height="207.14188"
         id="rect564053" />
    </clipPath>
    <clipPath
       id="clipPath564059">
      <rect
         x="14.3"
         y="10.8"
         width="216.82001"
         height="207.14188"
         id="rect564057" />
    </clipPath>
    <clipPath
       id="clipPath564063">
      <rect
         x="14.3"
         y="10.8"
         width="216.82001"
         height="207.14188"
         id="rect564061" />
    </clipPath>
    <clipPath
       id="clipPath564067">
      <rect
         x="14.3"
         y="10.8"
         width="216.82001"
         height="207.14188"
         id="rect564065" />
    </clipPath>
    <clipPath
       id="clipPath564071">
      <rect
         x="14.3"
         y="10.8"
         width="216.82001"
         height="207.14188"
         id="rect564069" />
    </clipPath>
    <clipPath
       id="clipPath564075">
      <rect
         x="14.3"
         y="10.8"
         width="216.82001"
         height="207.14188"
         id="rect564073" />
    </clipPath>
    <clipPath
       id="clipPath564079">
      <rect
         x="14.3"
         y="10.8"
         width="216.82001"
         height="207.14188"
         id="rect564077" />
    </clipPath>
    <clipPath
       id="clipPath564083">
      <rect
         x="14.3"
         y="10.8"
         width="216.82001"
         height="207.14188"
         id="rect564081" />
    </clipPath>
    <clipPath
       id="clipPath564087">
      <rect
         x="14.3"
         y="10.8"
         width="216.82001"
         height="207.14188"
         id="rect564085" />
    </clipPath>
    <clipPath
       id="clipPath564091">
      <rect
         x="14.3"
         y="10.8"
         width="216.82001"
         height="207.14188"
         id="rect564089" />
    </clipPath>
    <clipPath
       id="clipPath564095">
      <rect
         x="14.3"
         y="10.8"
         width="216.82001"
         height="207.14188"
         id="rect564093" />
    </clipPath>
    <clipPath
       id="clipPath564099">
      <rect
         x="14.3"
         y="10.8"
         width="216.82001"
         height="207.14188"
         id="rect564097" />
    </clipPath>
    <clipPath
       id="clipPath564103">
      <rect
         x="14.3"
         y="10.8"
         width="216.82001"
         height="207.14188"
         id="rect564101" />
    </clipPath>
    <clipPath
       id="clipPath564107">
      <rect
         x="14.3"
         y="10.8"
         width="216.82001"
         height="207.14188"
         id="rect564105" />
    </clipPath>
    <clipPath
       id="clipPath564111">
      <rect
         x="14.3"
         y="10.8"
         width="216.82001"
         height="207.14188"
         id="rect564109" />
    </clipPath>
    <clipPath
       id="clipPath564115">
      <rect
         x="14.3"
         y="10.8"
         width="216.82001"
         height="207.14188"
         id="rect564113" />
    </clipPath>
    <clipPath
       id="clipPath564119">
      <rect
         x="14.3"
         y="10.8"
         width="216.82001"
         height="207.14188"
         id="rect564117" />
    </clipPath>
    <clipPath
       id="clipPath564123">
      <rect
         x="14.3"
         y="10.8"
         width="216.82001"
         height="207.14188"
         id="rect564121" />
    </clipPath>
    <clipPath
       id="clipPath564127">
      <rect
         x="14.3"
         y="10.8"
         width="216.82001"
         height="207.14188"
         id="rect564125" />
    </clipPath>
    <clipPath
       id="clipPath564131">
      <rect
         x="14.3"
         y="10.8"
         width="216.82001"
         height="207.14188"
         id="rect564129" />
    </clipPath>
    <clipPath
       id="clipPath564135">
      <rect
         x="14.3"
         y="10.8"
         width="216.82001"
         height="207.14188"
         id="rect564133" />
    </clipPath>
    <clipPath
       id="clipPath564139">
      <rect
         x="14.3"
         y="10.8"
         width="216.82001"
         height="207.14188"
         id="rect564137" />
    </clipPath>
    <clipPath
       id="clipPath564143">
      <rect
         x="14.3"
         y="10.8"
         width="216.82001"
         height="207.14188"
         id="rect564141" />
    </clipPath>
    <clipPath
       id="clipPath564147">
      <rect
         x="14.3"
         y="10.8"
         width="216.82001"
         height="207.14188"
         id="rect564145" />
    </clipPath>
    <clipPath
       id="clipPath564151">
      <rect
         x="14.3"
         y="10.8"
         width="216.82001"
         height="207.14188"
         id="rect564149" />
    </clipPath>
    <clipPath
       id="clipPath564155">
      <rect
         x="14.3"
         y="10.8"
         width="216.82001"
         height="207.14188"
         id="rect564153" />
    </clipPath>
    <clipPath
       id="clipPath564159">
      <rect
         x="14.3"
         y="10.8"
         width="216.82001"
         height="207.14188"
         id="rect564157" />
    </clipPath>
    <clipPath
       id="clipPath564163">
      <rect
         x="14.3"
         y="10.8"
         width="216.82001"
         height="207.14188"
         id="rect564161" />
    </clipPath>
    <clipPath
       id="clipPath564167">
      <rect
         x="14.3"
         y="10.8"
         width="216.82001"
         height="207.14188"
         id="rect564165" />
    </clipPath>
    <clipPath
       id="clipPath564171">
      <rect
         x="14.3"
         y="10.8"
         width="216.82001"
         height="207.14188"
         id="rect564169" />
    </clipPath>
    <clipPath
       id="clipPath564175">
      <rect
         x="14.3"
         y="10.8"
         width="216.82001"
         height="207.14188"
         id="rect564173" />
    </clipPath>
    <clipPath
       id="clipPath564179">
      <rect
         x="14.3"
         y="10.8"
         width="216.82001"
         height="207.14188"
         id="rect564177" />
    </clipPath>
    <clipPath
       id="clipPath564183">
      <rect
         x="14.3"
         y="10.8"
         width="216.82001"
         height="207.14188"
         id="rect564181" />
    </clipPath>
    <path
       id="DejaVuSans-42"
       d="M 1259,2228 V 519 h 1013 q 509,0 754,211 246,211 246,645 0,438 -246,645 -245,208 -754,208 z m 0,1919 V 2741 h 935 q 462,0 688,173 227,174 227,530 0,353 -227,528 -226,175 -688,175 z m -631,519 h 1613 q 722,0 1112,-300 391,-300 391,-853 0,-429 -200,-682 -200,-253 -588,-315 466,-100 724,-418 258,-317 258,-792 0,-625 -425,-966 Q 3088,0 2303,0 H 628 Z"
       transform="scale(0.015625)" />
    <path
       id="DejaVuSans-6f"
       d="m 1959,3097 q -462,0 -731,-361 -269,-361 -269,-989 0,-628 267,-989 268,-361 733,-361 460,0 728,362 269,363 269,988 0,622 -269,986 -268,364 -728,364 z m 0,487 q 750,0 1178,-488 429,-487 429,-1349 Q 3566,888 3137,398 2709,-91 1959,-91 1206,-91 779,398 353,888 353,1747 q 0,862 426,1349 427,488 1180,488 z"
       transform="scale(0.015625)" />
    <path
       id="DejaVuSans-72"
       d="m 2631,2963 q -97,56 -211,82 -114,27 -251,27 -488,0 -749,-317 -261,-317 -261,-911 V 0 H 581 v 3500 h 578 v -544 q 182,319 472,473 291,155 707,155 59,0 131,-8 72,-7 159,-23 z"
       transform="scale(0.015625)" />
    <path
       id="DejaVuSans-6e"
       d="M 3513,2113 V 0 h -575 v 2094 q 0,497 -194,743 -194,247 -581,247 -466,0 -735,-297 -269,-296 -269,-809 V 0 H 581 v 3500 h 578 v -544 q 207,316 486,472 280,156 646,156 603,0 912,-373 310,-373 310,-1098 z"
       transform="scale(0.015625)" />
    <path
       id="DejaVuSans-65"
       d="M 3597,1894 V 1613 H 953 q 38,-594 358,-905 320,-311 892,-311 331,0 642,81 311,81 618,244 V 178 Q 3153,47 2828,-22 2503,-91 2169,-91 1331,-91 842,396 353,884 353,1716 q 0,859 464,1363 464,505 1252,505 706,0 1117,-455 411,-454 411,-1235 z m -575,169 q -6,471 -264,752 -258,282 -683,282 -481,0 -770,-272 -289,-272 -333,-766 z"
       transform="scale(0.015625)" />
    <path
       id="DejaVuSans-61"
       d="m 2194,1759 q -697,0 -966,-159 -269,-159 -269,-544 0,-306 202,-486 202,-179 548,-179 479,0 768,339 289,339 289,901 v 128 z m 1147,238 V 0 H 2766 V 531 Q 2569,213 2275,61 1981,-91 1556,-91 q -537,0 -855,302 -317,302 -317,808 0,590 395,890 396,300 1180,300 h 807 v 57 q 0,397 -261,614 -261,217 -733,217 -300,0 -585,-72 -284,-72 -546,-216 v 532 q 315,122 612,182 297,61 578,61 760,0 1135,-394 375,-393 375,-1193 z"
       transform="scale(0.015625)" />
    <path
       id="DejaVuSans-53"
       d="m 3425,4513 v -616 q -359,172 -678,256 -319,85 -616,85 -515,0 -795,-200 -280,-200 -280,-569 0,-310 186,-468 186,-157 705,-254 l 381,-78 q 706,-135 1042,-474 336,-339 336,-907 0,-679 -455,-1029 -454,-350 -1332,-350 -331,0 -705,75 -373,75 -773,222 v 650 q 384,-215 753,-325 369,-109 725,-109 540,0 834,212 294,213 294,607 0,343 -211,537 -211,194 -692,291 l -385,75 q -706,140 -1022,440 -315,300 -315,835 0,619 436,975 436,356 1201,356 329,0 669,-60 341,-59 697,-177 z"
       transform="scale(0.015625)" />
    <path
       id="DejaVuSans-75"
       d="m 544,1381 v 2119 h 575 V 1403 q 0,-497 193,-746 194,-248 582,-248 465,0 735,297 271,297 271,810 v 1984 h 575 V 0 H 2900 V 538 Q 2691,219 2414,64 2138,-91 1772,-91 1169,-91 856,284 544,659 544,1381 Z m 1447,2203 z"
       transform="scale(0.015625)" />
    <path
       id="DejaVuSans-6d"
       d="m 3328,2828 q 216,388 516,572 300,184 706,184 547,0 844,-383 297,-382 297,-1088 V 0 h -578 v 2094 q 0,503 -179,746 -178,244 -543,244 -447,0 -707,-297 -259,-296 -259,-809 V 0 h -578 v 2094 q 0,506 -178,748 -178,242 -550,242 -441,0 -701,-298 -259,-298 -259,-808 V 0 H 581 v 3500 h 578 v -544 q 197,322 472,475 275,153 653,153 382,0 649,-194 267,-193 395,-562 z"
       transform="scale(0.015625)" />
    <path
       id="DejaVuSans-74"
       d="M 1172,4494 V 3500 H 2356 V 3053 H 1172 V 1153 q 0,-428 117,-550 117,-122 477,-122 h 590 V 0 H 1766 Q 1100,0 847,248 594,497 594,1153 V 3053 H 172 v 447 h 422 v 994 z"
       transform="scale(0.015625)" />
  </defs>
  <g
     id="figure_1">
    <g
       id="matplotlib.axis_2">
      <g
         id="ytick_1">
        <g
           id="line2d_3">
          <defs
             id="defs562909">
            <path
               id="m90363cb4ae"
               d="M 0,0 H -3.5"
               style="stroke:#000000;stroke-width:0.8" />
          </defs>
          <g
             id="g562913">
            <use
               xlink:href="#m90363cb4ae"
               x="63.290627"
               y="217.94188"
               style="stroke:#000000;stroke-width:0.8"
               id="use562911" />
          </g>
        </g>
        <g
           id="text_3">
          <!-- 0 -->
          <g
             transform="matrix(0.1,0,0,-0.1,49.928125,221.74109)"
             id="g562921">
            <defs
               id="defs562917">
              <path
                 id="DejaVuSans-30"
                 d="m 2034,4250 q -487,0 -733,-480 -245,-479 -245,-1442 0,-959 245,-1439 246,-480 733,-480 491,0 736,480 246,480 246,1439 0,963 -246,1442 -245,480 -736,480 z m 0,500 q 785,0 1199,-621 414,-620 414,-1801 0,-1178 -414,-1799 -414,-620 -1199,-620 -784,0 -1198,620 -414,621 -414,1799 0,1181 414,1801 414,621 1198,621 z"
                 transform="scale(0.015625)" />
            </defs>
            <use
               xlink:href="#DejaVuSans-30"
               id="use562919" />
          </g>
        </g>
      </g>
      <g
         id="ytick_2">
        <g
           id="line2d_4">
          <g
             id="g562927">
            <use
               xlink:href="#m90363cb4ae"
               x="63.290627"
               y="177.30228"
               style="stroke:#000000;stroke-width:0.8"
               id="use562925" />
          </g>
        </g>
        <g
           id="text_4">
          <!-- 5000 -->
          <g
             transform="matrix(0.1,0,0,-0.1,30.840625,181.10149)"
             id="g562941">
            <defs
               id="defs562931">
              <path
                 id="DejaVuSans-35"
                 d="M 691,4666 H 3169 V 4134 H 1269 V 2991 q 137,47 274,70 138,23 276,23 781,0 1237,-428 457,-428 457,-1159 Q 3513,744 3044,326 2575,-91 1722,-91 1428,-91 1123,-41 819,9 494,109 v 635 q 281,-153 581,-228 300,-75 634,-75 541,0 856,284 316,284 316,772 0,487 -316,771 -315,285 -856,285 -253,0 -505,-56 -251,-56 -513,-175 z"
                 transform="scale(0.015625)" />
            </defs>
            <use
               xlink:href="#DejaVuSans-35"
               id="use562933" />
            <use
               xlink:href="#DejaVuSans-30"
               x="63.623047"
               id="use562935" />
            <use
               xlink:href="#DejaVuSans-30"
               x="127.24609"
               id="use562937" />
            <use
               xlink:href="#DejaVuSans-30"
               x="190.86914"
               id="use562939" />
          </g>
        </g>
      </g>
      <g
         id="ytick_3">
        <g
           id="line2d_5">
          <g
             id="g562947">
            <use
               xlink:href="#m90363cb4ae"
               x="63.290627"
               y="136.66267"
               style="stroke:#000000;stroke-width:0.8"
               id="use562945" />
          </g>
        </g>
        <g
           id="text_5">
          <!-- 10000 -->
          <g
             transform="matrix(0.1,0,0,-0.1,24.478125,140.46189)"
             id="g562963">
            <defs
               id="defs562951">
              <path
                 id="DejaVuSans-31"
                 d="M 794,531 H 1825 V 4091 L 703,3866 v 575 l 1116,225 h 631 V 531 H 3481 V 0 H 794 Z"
                 transform="scale(0.015625)" />
            </defs>
            <use
               xlink:href="#DejaVuSans-31"
               id="use562953" />
            <use
               xlink:href="#DejaVuSans-30"
               x="63.623047"
               id="use562955" />
            <use
               xlink:href="#DejaVuSans-30"
               x="127.24609"
               id="use562957" />
            <use
               xlink:href="#DejaVuSans-30"
               x="190.86914"
               id="use562959" />
            <use
               xlink:href="#DejaVuSans-30"
               x="254.49219"
               id="use562961" />
          </g>
        </g>
      </g>
      <g
         id="ytick_4">
        <g
           id="line2d_6">
          <g
             id="g562969">
            <use
               xlink:href="#m90363cb4ae"
               x="63.290627"
               y="96.023071"
               style="stroke:#000000;stroke-width:0.8"
               id="use562967" />
          </g>
        </g>
        <g
           id="text_6">
          <!-- 15000 -->
          <g
             transform="matrix(0.1,0,0,-0.1,24.478125,99.822293)"
             id="g562982">
            <use
               xlink:href="#DejaVuSans-31"
               id="use562972" />
            <use
               xlink:href="#DejaVuSans-35"
               x="63.623047"
               id="use562974" />
            <use
               xlink:href="#DejaVuSans-30"
               x="127.24609"
               id="use562976" />
            <use
               xlink:href="#DejaVuSans-30"
               x="190.86914"
               id="use562978" />
            <use
               xlink:href="#DejaVuSans-30"
               x="254.49219"
               id="use562980" />
          </g>
        </g>
      </g>
      <g
         id="ytick_5">
        <g
           id="line2d_7">
          <g
             id="g562988">
            <use
               xlink:href="#m90363cb4ae"
               x="63.290627"
               y="55.383472"
               style="stroke:#000000;stroke-width:0.8"
               id="use562986" />
          </g>
        </g>
        <g
           id="text_7">
          <!-- 20000 -->
          <g
             transform="matrix(0.1,0,0,-0.1,24.478125,59.182692)"
             id="g563004">
            <defs
               id="defs562992">
              <path
                 id="DejaVuSans-32"
                 d="M 1228,531 H 3431 V 0 H 469 v 531 q 359,372 979,998 621,627 780,809 303,340 423,576 121,236 121,464 0,372 -261,606 -261,235 -680,235 -297,0 -627,-103 -329,-103 -704,-313 v 638 q 381,153 712,231 332,78 607,78 725,0 1156,-363 431,-362 431,-968 0,-288 -108,-546 -107,-257 -392,-607 -78,-91 -497,-524 Q 1991,1309 1228,531 Z"
                 transform="scale(0.015625)" />
            </defs>
            <use
               xlink:href="#DejaVuSans-32"
               id="use562994" />
            <use
               xlink:href="#DejaVuSans-30"
               x="63.623047"
               id="use562996" />
            <use
               xlink:href="#DejaVuSans-30"
               x="127.24609"
               id="use562998" />
            <use
               xlink:href="#DejaVuSans-30"
               x="190.86914"
               id="use563000" />
            <use
               xlink:href="#DejaVuSans-30"
               x="254.49219"
               id="use563002" />
          </g>
        </g>
      </g>
      <g
         id="ytick_6">
        <g
           id="line2d_8">
          <g
             id="g563010">
            <use
               xlink:href="#m90363cb4ae"
               x="63.290627"
               y="14.743873"
               style="stroke:#000000;stroke-width:0.8"
               id="use563008" />
          </g>
        </g>
        <g
           id="text_8">
          <!-- 25000 -->
          <g
             transform="matrix(0.1,0,0,-0.1,24.478125,18.543092)"
             id="g563023">
            <use
               xlink:href="#DejaVuSans-32"
               id="use563013" />
            <use
               xlink:href="#DejaVuSans-35"
               x="63.623047"
               id="use563015" />
            <use
               xlink:href="#DejaVuSans-30"
               x="127.24609"
               id="use563017" />
            <use
               xlink:href="#DejaVuSans-30"
               x="190.86914"
               id="use563019" />
            <use
               xlink:href="#DejaVuSans-30"
               x="254.49219"
               id="use563021" />
          </g>
        </g>
      </g>
      <g
         id="text_9">
        <!-- time ago (generations) -->
        <g
           transform="matrix(0,-0.1,-0.1,0,18.398438,173.01413)"
           id="g563079">
          <defs
             id="defs563033">
            <path
               id="DejaVuSans-69"
               d="m 603,3500 h 575 V 0 H 603 Z m 0,1363 h 575 V 4134 H 603 Z"
               transform="scale(0.015625)" />
            <path
               id="DejaVuSans-20"
               transform="scale(0.015625)"
               d="" />
            <path
               id="DejaVuSans-67"
               d="m 2906,1791 q 0,625 -258,968 -257,344 -723,344 -462,0 -720,-344 -258,-343 -258,-968 0,-622 258,-966 258,-344 720,-344 466,0 723,344 258,344 258,966 z M 3481,434 q 0,-893 -397,-1329 -396,-436 -1215,-436 -303,0 -572,45 -269,45 -522,139 v 559 q 253,-137 500,-202 247,-66 503,-66 566,0 847,295 281,295 281,892 V 616 Q 2728,306 2450,153 2172,0 1784,0 1141,0 747,490 353,981 353,1791 q 0,812 394,1302 394,491 1037,491 388,0 666,-153 278,-153 456,-462 v 531 h 575 z"
               transform="scale(0.015625)" />
            <path
               id="DejaVuSans-28"
               d="m 1984,4856 q -418,-718 -622,-1422 -203,-703 -203,-1425 0,-721 205,-1429 205,-708 620,-1424 h -500 q -468,735 -701,1444 -233,709 -233,1409 0,697 231,1403 232,707 703,1444 z"
               transform="scale(0.015625)" />
            <path
               id="DejaVuSans-73"
               d="m 2834,3397 v -544 q -243,125 -506,187 -262,63 -544,63 -428,0 -642,-131 -214,-131 -214,-394 0,-200 153,-314 153,-114 616,-217 l 197,-44 q 612,-131 870,-370 258,-239 258,-667 0,-488 -386,-773 Q 2250,-91 1575,-91 1294,-91 989,-36 684,19 347,128 v 594 q 319,-166 628,-249 309,-82 613,-82 406,0 624,139 219,139 219,392 0,234 -158,359 -157,125 -692,241 l -200,47 q -534,112 -772,345 -237,233 -237,639 0,494 350,762 350,269 994,269 318,0 599,-47 282,-46 519,-140 z"
               transform="scale(0.015625)" />
            <path
               id="DejaVuSans-29"
               d="m 513,4856 h 500 q 468,-737 701,-1444 233,-706 233,-1403 0,-700 -233,-1409 -233,-709 -701,-1444 H 513 q 415,716 620,1424 205,708 205,1429 0,722 -205,1425 -205,704 -620,1422 z"
               transform="scale(0.015625)" />
          </defs>
          <path
             id="use563035"
             d="M 18.3125,70.21875 V 54.6875 h 18.5 v -6.984375 h -18.5 v -29.6875 q 0,-6.6875 1.828125,-8.59375 1.828125,-1.90625 7.453125,-1.90625 H 36.8125 V 0 H 27.59375 Q 17.1875,0 13.234375,3.875 9.28125,7.765625 9.28125,18.015625 v 29.6875 H 2.6875 V 54.6875 h 6.59375 v 15.53125 z"
             style="stroke-width:0.015625" />
          <use
             xlink:href="#DejaVuSans-69"
             x="39.208984"
             id="use563037" />
          <path
             id="use563039"
             d="m 118.99219,44.1875 q 3.375,6.0625 8.0625,8.9375 4.6875,2.875 11.03125,2.875 8.54687,0 13.1875,-5.984375 4.64062,-5.96875 4.64062,-17 V 0 h -9.03125 v 32.71875 q 0,7.859375 -2.79687,11.65625 -2.78125,3.8125 -8.48438,3.8125 -6.98437,0 -11.04687,-4.640625 -4.04688,-4.625 -4.04688,-12.640625 V 0 h -9.03125 v 32.71875 q 0,7.90625 -2.78125,11.6875 -2.78125,3.78125 -8.59375,3.78125 -6.890623,0 -10.953123,-4.65625 -4.046875,-4.65625 -4.046875,-12.625 V 0 h -9.03125 v 54.6875 h 9.03125 v -8.5 q 3.078125,5.03125 7.375,7.421875 Q 96.773437,56 102.67969,56 q 5.96875,0 10.14062,-3.03125 4.17188,-3.015625 6.17188,-8.78125 z"
             style="stroke-width:0.015625" />
          <path
             id="use563041"
             d="m 220.60742,29.59375 v -4.390625 h -41.3125 q 0.59375,-9.28125 5.59375,-14.140625 5,-4.859375 13.9375,-4.859375 5.17188,0 10.03125,1.265625 4.85938,1.265625 9.65625,3.8125 v -8.5 q -4.84375,-2.046875 -9.92187,-3.125 -5.07813,-1.078125 -10.29688,-1.078125 -13.09375,0 -20.73437,7.609375 -7.64063,7.625 -7.64063,20.625 0,13.421875 7.25,21.296875 Q 184.41992,56 196.73242,56 q 11.03125,0 17.45313,-7.109375 6.42187,-7.09375 6.42187,-19.296875 z m -8.98437,2.640625 q -0.0937,7.359375 -4.125,11.75 -4.03125,4.40625 -10.67188,4.40625 -7.51562,0 -12.03125,-4.25 -4.51562,-4.25 -5.20312,-11.96875 z"
             style="stroke-width:0.015625" />
          <use
             xlink:href="#DejaVuSans-20"
             x="225.92773"
             id="use563043" />
          <path
             id="use563045"
             d="m 291.99609,27.484375 q -10.89062,0 -15.09375,-2.484375 -4.20312,-2.484375 -4.20312,-8.5 0,-4.78125 3.15625,-7.59375 3.15625,-2.796875 8.5625,-2.796875 7.48437,0 12,5.296875 4.51562,5.296875 4.51562,14.078125 v 2 z m 17.92188,3.71875 V 0 h -8.98438 v 8.296875 q -3.07812,-4.96875 -7.67187,-7.34375 -4.59375,-2.375 -11.23438,-2.375 -8.39062,0 -13.35937,4.71875 -4.95313,4.71875 -4.95313,12.625 0,9.21875 6.17188,13.90625 6.1875,4.6875 18.4375,4.6875 h 12.60937 v 0.890625 q 0,6.203125 -4.07812,9.59375 -4.07813,3.390625 -11.45313,3.390625 -4.6875,0 -9.14062,-1.125 -4.4375,-1.125 -8.53125,-3.375 v 8.3125 q 4.92187,1.90625 9.5625,2.84375 Q 281.93359,56 286.32422,56 q 11.875,0 17.73437,-6.15625 5.85938,-6.140625 5.85938,-18.640625 z"
             style="stroke-width:0.015625" />
          <use
             xlink:href="#DejaVuSans-67"
             x="318.99414"
             id="use563047" />
          <path
             id="use563049"
             d="m 413.08008,48.390625 q -7.21875,0 -11.42188,-5.640625 -4.20312,-5.640625 -4.20312,-15.453125 0,-9.8125 4.17187,-15.453125 4.1875,-5.640625 11.45313,-5.640625 7.1875,0 11.375,5.65625 4.20312,5.671875 4.20312,15.4375 0,9.71875 -4.20312,15.40625 -4.1875,5.6875 -11.375,5.6875 z m 0,7.609375 q 11.71875,0 18.40625,-7.625 6.70312,-7.609375 6.70312,-21.078125 0,-13.421875 -6.70312,-21.078125 -6.6875,-7.640625 -18.40625,-7.640625 -11.76563,0 -18.4375,7.640625 -6.65625,7.65625 -6.65625,21.078125 0,13.46875 6.65625,21.078125 6.67187,7.625 18.4375,7.625 z"
             style="stroke-width:0.015625" />
          <use
             xlink:href="#DejaVuSans-20"
             x="443.65234"
             id="use563051" />
          <use
             xlink:href="#DejaVuSans-28"
             x="475.43945"
             id="use563053" />
          <use
             xlink:href="#DejaVuSans-67"
             x="514.45312"
             id="use563055" />
          <path
             id="use563057"
             d="m 634.13281,29.59375 v -4.390625 h -41.3125 q 0.59375,-9.28125 5.59375,-14.140625 5,-4.859375 13.9375,-4.859375 5.17188,0 10.03125,1.265625 4.85938,1.265625 9.65625,3.8125 v -8.5 q -4.84375,-2.046875 -9.92187,-3.125 -5.07813,-1.078125 -10.29688,-1.078125 -13.09375,0 -20.73437,7.609375 -7.64063,7.625 -7.64063,20.625 0,13.421875 7.25,21.296875 Q 597.94531,56 610.25781,56 q 11.03125,0 17.45313,-7.109375 6.42187,-7.09375 6.42187,-19.296875 z m -8.98437,2.640625 q -0.0937,7.359375 -4.125,11.75 -4.03125,4.40625 -10.67188,4.40625 -7.51562,0 -12.03125,-4.25 -4.51562,-4.25 -5.20312,-11.96875 z"
             style="stroke-width:0.015625" />
          <path
             id="use563059"
             d="M 694.34375,33.015625 V 0 h -8.98438 v 32.71875 q 0,7.765625 -3.03125,11.609375 -3.03125,3.859375 -9.07812,3.859375 -7.28125,0 -11.48438,-4.640625 -4.20312,-4.625 -4.20312,-12.640625 V 0 h -9.03125 v 54.6875 h 9.03125 v -8.5 q 3.23437,4.9375 7.59375,7.375 Q 669.53125,56 675.25,56 q 9.42187,0 14.25,-5.828125 4.84375,-5.828125 4.84375,-17.15625 z"
             style="stroke-width:0.015625" />
          <path
             id="use563061"
             d="m 759.03516,29.59375 v -4.390625 h -41.3125 q 0.59375,-9.28125 5.59375,-14.140625 5,-4.859375 13.9375,-4.859375 5.17187,0 10.03125,1.265625 4.85937,1.265625 9.65625,3.8125 v -8.5 q -4.84375,-2.046875 -9.92188,-3.125 -5.07812,-1.078125 -10.29687,-1.078125 -13.09375,0 -20.73438,7.609375 -7.64062,7.625 -7.64062,20.625 0,13.421875 7.25,21.296875 Q 722.84766,56 735.16016,56 q 11.03125,0 17.45312,-7.109375 6.42188,-7.09375 6.42188,-19.296875 z m -8.98438,2.640625 q -0.0937,7.359375 -4.125,11.75 -4.03125,4.40625 -10.67187,4.40625 -7.51563,0 -12.03125,-4.25 -4.51563,-4.25 -5.20313,-11.96875 z"
             style="stroke-width:0.015625" />
          <path
             id="use563063"
             d="m 805.46484,46.296875 q -1.51562,0.875 -3.29687,1.28125 Q 800.38672,48 798.24609,48 790.62109,48 786.54297,43.046875 782.46484,38.09375 782.46484,28.8125 V 0 h -9.03125 v 54.6875 h 9.03125 v -8.5 q 2.84375,4.984375 7.375,7.390625 Q 794.38672,56 800.88672,56 q 0.92187,0 2.04687,-0.125 1.125,-0.109375 2.48438,-0.359375 z"
             style="stroke-width:0.015625" />
          <path
             id="use563065"
             d="m 839.75,27.484375 q -10.89063,0 -15.09375,-2.484375 -4.20313,-2.484375 -4.20313,-8.5 0,-4.78125 3.15625,-7.59375 3.15625,-2.796875 8.5625,-2.796875 7.48438,0 12,5.296875 4.51563,5.296875 4.51563,14.078125 v 2 z m 17.92187,3.71875 V 0 h -8.98437 v 8.296875 q -3.07813,-4.96875 -7.67188,-7.34375 -4.59375,-2.375 -11.23437,-2.375 -8.39063,0 -13.35938,4.71875 -4.95312,4.71875 -4.95312,12.625 0,9.21875 6.17187,13.90625 6.1875,4.6875 18.4375,4.6875 h 12.60938 v 0.890625 q 0,6.203125 -4.07813,9.59375 -4.07812,3.390625 -11.45312,3.390625 -4.6875,0 -9.14063,-1.125 -4.4375,-1.125 -8.53125,-3.375 v 8.3125 q 4.92188,1.90625 9.5625,2.84375 Q 829.6875,56 834.07812,56 q 11.875,0 17.73438,-6.15625 5.85937,-6.140625 5.85937,-18.640625 z"
             style="stroke-width:0.015625" />
          <path
             id="use563067"
             d="M 885.06055,70.21875 V 54.6875 h 18.5 v -6.984375 h -18.5 v -29.6875 q 0,-6.6875 1.82812,-8.59375 1.82813,-1.90625 7.45313,-1.90625 h 9.21875 V 0 h -9.21875 q -10.40625,0 -14.35938,3.875 -3.95312,3.890625 -3.95312,14.140625 v 29.6875 h -6.59375 V 54.6875 h 6.59375 v 15.53125 z"
             style="stroke-width:0.015625" />
          <use
             xlink:href="#DejaVuSans-69"
             x="905.95703"
             id="use563069" />
          <path
             id="use563071"
             d="m 964.34961,48.390625 q -7.21875,0 -11.42188,-5.640625 -4.20312,-5.640625 -4.20312,-15.453125 0,-9.8125 4.17187,-15.453125 4.1875,-5.640625 11.45313,-5.640625 7.1875,0 11.375,5.65625 4.20312,5.671875 4.20312,15.4375 0,9.71875 -4.20312,15.40625 -4.1875,5.6875 -11.375,5.6875 z m 0,7.609375 q 11.71875,0 18.40625,-7.625 6.70312,-7.609375 6.70312,-21.078125 0,-13.421875 -6.70312,-21.078125 -6.6875,-7.640625 -18.40625,-7.640625 -11.76563,0 -18.4375,7.640625 -6.65625,7.65625 -6.65625,21.078125 0,13.46875 6.65625,21.078125 6.67187,7.625 18.4375,7.625 z"
             style="stroke-width:0.015625" />
          <path
             id="use563073"
             d="M 1049.8125,33.015625 V 0 h -8.9844 v 32.71875 q 0,7.765625 -3.0312,11.609375 -3.0313,3.859375 -9.0781,3.859375 -7.2813,0 -11.4844,-4.640625 -4.2032,-4.625 -4.2032,-12.640625 V 0 H 1004 v 54.6875 h 9.0312 v -8.5 q 3.2344,4.9375 7.5938,7.375 Q 1025,56 1030.7188,56 q 9.4218,0 14.25,-5.828125 4.8437,-5.828125 4.8437,-17.15625 z"
             style="stroke-width:0.015625" />
          <use
             xlink:href="#DejaVuSans-73"
             x="1058.3008"
             id="use563075" />
          <use
             xlink:href="#DejaVuSans-29"
             x="1110.4004"
             id="use563077" />
        </g>
      </g>
    </g>
    <g
       id="patch_6">
      <path
         d="M 63.290625,217.94187 V 13.144197"
         style="fill:none;stroke:#000000;stroke-width:0.8;stroke-linecap:square;stroke-linejoin:miter"
         id="path563131" />
    </g>
    <defs
       id="defs563139">
      <clipPath
         id="p0662913bc1">
        <rect
           x="63.290625"
           y="13.144197"
           width="167.829375"
           height="204.797678"
           id="rect563136" />
      </clipPath>
    </defs>
  </g>
</svg>
