<?xml version="1.0" encoding="UTF-8" standalone="no"?>
<svg
   width="241.92pt"
   height="241.92pt"
   viewBox="0 0 241.92 241.92"
   version="1.1"
   id="svg563142"
   sodipodi:docname="oran.svg"
   inkscape:version="1.2.2 (1:1.2.2+202212051552+b0a8486541)"
   xmlns:inkscape="http://www.inkscape.org/namespaces/inkscape"
   xmlns:sodipodi="http://sodipodi.sourceforge.net/DTD/sodipodi-0.dtd"
   xmlns:xlink="http://www.w3.org/1999/xlink"
   xmlns="http://www.w3.org/2000/svg"
   xmlns:svg="http://www.w3.org/2000/svg"
   xmlns:rdf="http://www.w3.org/1999/02/22-rdf-syntax-ns#"
   xmlns:cc="http://creativecommons.org/ns#"
   xmlns:dc="http://purl.org/dc/elements/1.1/">
  <sodipodi:namedview
     id="namedview563144"
     pagecolor="#ffffff"
     bordercolor="#000000"
     borderopacity="0.25"
     inkscape:showpageshadow="2"
     inkscape:pageopacity="0.0"
     inkscape:pagecheckerboard="0"
     inkscape:deskcolor="#d1d1d1"
     inkscape:document-units="pt"
     showgrid="false"
     inkscape:zoom="1.1272595"
     inkscape:cx="49.234448"
     inkscape:cy="196.05069"
     inkscape:window-width="1223"
     inkscape:window-height="779"
     inkscape:window-x="57"
     inkscape:window-y="21"
     inkscape:window-maximized="1"
     inkscape:current-layer="matplotlib.axis_1" />
  <metadata
     id="metadata562789">
    <rdf:RDF>
      <cc:Work>
        <dc:type
           rdf:resource="http://purl.org/dc/dcmitype/StillImage" />
        <dc:date>2023-02-27T13:34:51.589190</dc:date>
        <dc:format>image/svg+xml</dc:format>
        <dc:creator>
          <cc:Agent>
            <dc:title>Matplotlib v3.5.0, https://matplotlib.org/</dc:title>
          </cc:Agent>
        </dc:creator>
      </cc:Work>
    </rdf:RDF>
  </metadata>
  <defs
     id="defs562793">
    <style
       type="text/css"
       id="style562791">*{stroke-linejoin: round; stroke-linecap: butt}</style>
    <clipPath
       id="pf7c8d50d41">
      <rect
         x="14.3"
         y="10.8"
         width="216.82001"
         height="207.14188"
         id="rect114016" />
    </clipPath>
    <clipPath
       id="clipPath563999">
      <rect
         x="14.3"
         y="10.8"
         width="216.82001"
         height="207.14188"
         id="rect563997" />
    </clipPath>
    <clipPath
       id="clipPath564003">
      <rect
         x="14.3"
         y="10.8"
         width="216.82001"
         height="207.14188"
         id="rect564001" />
    </clipPath>
    <clipPath
       id="clipPath564007">
      <rect
         x="14.3"
         y="10.8"
         width="216.82001"
         height="207.14188"
         id="rect564005" />
    </clipPath>
    <clipPath
       id="clipPath564011">
      <rect
         x="14.3"
         y="10.8"
         width="216.82001"
         height="207.14188"
         id="rect564009" />
    </clipPath>
    <clipPath
       id="clipPath564015">
      <rect
         x="14.3"
         y="10.8"
         width="216.82001"
         height="207.14188"
         id="rect564013" />
    </clipPath>
    <clipPath
       id="clipPath564019">
      <rect
         x="14.3"
         y="10.8"
         width="216.82001"
         height="207.14188"
         id="rect564017" />
    </clipPath>
    <clipPath
       id="clipPath564023">
      <rect
         x="14.3"
         y="10.8"
         width="216.82001"
         height="207.14188"
         id="rect564021" />
    </clipPath>
    <clipPath
       id="clipPath564027">
      <rect
         x="14.3"
         y="10.8"
         width="216.82001"
         height="207.14188"
         id="rect564025" />
    </clipPath>
    <clipPath
       id="clipPath564031">
      <rect
         x="14.3"
         y="10.8"
         width="216.82001"
         height="207.14188"
         id="rect564029" />
    </clipPath>
    <clipPath
       id="clipPath564035">
      <rect
         x="14.3"
         y="10.8"
         width="216.82001"
         height="207.14188"
         id="rect564033" />
    </clipPath>
    <clipPath
       id="clipPath564039">
      <rect
         x="14.3"
         y="10.8"
         width="216.82001"
         height="207.14188"
         id="rect564037" />
    </clipPath>
    <clipPath
       id="clipPath564043">
      <rect
         x="14.3"
         y="10.8"
         width="216.82001"
         height="207.14188"
         id="rect564041" />
    </clipPath>
    <clipPath
       id="clipPath564047">
      <rect
         x="14.3"
         y="10.8"
         width="216.82001"
         height="207.14188"
         id="rect564045" />
    </clipPath>
    <clipPath
       id="clipPath564051">
      <rect
         x="14.3"
         y="10.8"
         width="216.82001"
         height="207.14188"
         id="rect564049" />
    </clipPath>
    <clipPath
       id="clipPath564055">
      <rect
         x="14.3"
         y="10.8"
         width="216.82001"
         height="207.14188"
         id="rect564053" />
    </clipPath>
    <clipPath
       id="clipPath564059">
      <rect
         x="14.3"
         y="10.8"
         width="216.82001"
         height="207.14188"
         id="rect564057" />
    </clipPath>
    <clipPath
       id="clipPath564063">
      <rect
         x="14.3"
         y="10.8"
         width="216.82001"
         height="207.14188"
         id="rect564061" />
    </clipPath>
    <clipPath
       id="clipPath564067">
      <rect
         x="14.3"
         y="10.8"
         width="216.82001"
         height="207.14188"
         id="rect564065" />
    </clipPath>
    <clipPath
       id="clipPath564071">
      <rect
         x="14.3"
         y="10.8"
         width="216.82001"
         height="207.14188"
         id="rect564069" />
    </clipPath>
    <clipPath
       id="clipPath564075">
      <rect
         x="14.3"
         y="10.8"
         width="216.82001"
         height="207.14188"
         id="rect564073" />
    </clipPath>
    <clipPath
       id="clipPath564079">
      <rect
         x="14.3"
         y="10.8"
         width="216.82001"
         height="207.14188"
         id="rect564077" />
    </clipPath>
    <clipPath
       id="clipPath564083">
      <rect
         x="14.3"
         y="10.8"
         width="216.82001"
         height="207.14188"
         id="rect564081" />
    </clipPath>
    <clipPath
       id="clipPath564087">
      <rect
         x="14.3"
         y="10.8"
         width="216.82001"
         height="207.14188"
         id="rect564085" />
    </clipPath>
    <clipPath
       id="clipPath564091">
      <rect
         x="14.3"
         y="10.8"
         width="216.82001"
         height="207.14188"
         id="rect564089" />
    </clipPath>
    <clipPath
       id="clipPath564095">
      <rect
         x="14.3"
         y="10.8"
         width="216.82001"
         height="207.14188"
         id="rect564093" />
    </clipPath>
    <clipPath
       id="clipPath564099">
      <rect
         x="14.3"
         y="10.8"
         width="216.82001"
         height="207.14188"
         id="rect564097" />
    </clipPath>
    <clipPath
       id="clipPath564103">
      <rect
         x="14.3"
         y="10.8"
         width="216.82001"
         height="207.14188"
         id="rect564101" />
    </clipPath>
    <clipPath
       id="clipPath564107">
      <rect
         x="14.3"
         y="10.8"
         width="216.82001"
         height="207.14188"
         id="rect564105" />
    </clipPath>
    <clipPath
       id="clipPath564111">
      <rect
         x="14.3"
         y="10.8"
         width="216.82001"
         height="207.14188"
         id="rect564109" />
    </clipPath>
    <clipPath
       id="clipPath564115">
      <rect
         x="14.3"
         y="10.8"
         width="216.82001"
         height="207.14188"
         id="rect564113" />
    </clipPath>
    <clipPath
       id="clipPath564119">
      <rect
         x="14.3"
         y="10.8"
         width="216.82001"
         height="207.14188"
         id="rect564117" />
    </clipPath>
    <clipPath
       id="clipPath564123">
      <rect
         x="14.3"
         y="10.8"
         width="216.82001"
         height="207.14188"
         id="rect564121" />
    </clipPath>
    <clipPath
       id="clipPath564127">
      <rect
         x="14.3"
         y="10.8"
         width="216.82001"
         height="207.14188"
         id="rect564125" />
    </clipPath>
    <clipPath
       id="clipPath564131">
      <rect
         x="14.3"
         y="10.8"
         width="216.82001"
         height="207.14188"
         id="rect564129" />
    </clipPath>
    <clipPath
       id="clipPath564135">
      <rect
         x="14.3"
         y="10.8"
         width="216.82001"
         height="207.14188"
         id="rect564133" />
    </clipPath>
    <clipPath
       id="clipPath564139">
      <rect
         x="14.3"
         y="10.8"
         width="216.82001"
         height="207.14188"
         id="rect564137" />
    </clipPath>
    <clipPath
       id="clipPath564143">
      <rect
         x="14.3"
         y="10.8"
         width="216.82001"
         height="207.14188"
         id="rect564141" />
    </clipPath>
    <clipPath
       id="clipPath564147">
      <rect
         x="14.3"
         y="10.8"
         width="216.82001"
         height="207.14188"
         id="rect564145" />
    </clipPath>
    <clipPath
       id="clipPath564151">
      <rect
         x="14.3"
         y="10.8"
         width="216.82001"
         height="207.14188"
         id="rect564149" />
    </clipPath>
    <clipPath
       id="clipPath564155">
      <rect
         x="14.3"
         y="10.8"
         width="216.82001"
         height="207.14188"
         id="rect564153" />
    </clipPath>
    <clipPath
       id="clipPath564159">
      <rect
         x="14.3"
         y="10.8"
         width="216.82001"
         height="207.14188"
         id="rect564157" />
    </clipPath>
    <clipPath
       id="clipPath564163">
      <rect
         x="14.3"
         y="10.8"
         width="216.82001"
         height="207.14188"
         id="rect564161" />
    </clipPath>
    <clipPath
       id="clipPath564167">
      <rect
         x="14.3"
         y="10.8"
         width="216.82001"
         height="207.14188"
         id="rect564165" />
    </clipPath>
    <clipPath
       id="clipPath564171">
      <rect
         x="14.3"
         y="10.8"
         width="216.82001"
         height="207.14188"
         id="rect564169" />
    </clipPath>
    <clipPath
       id="clipPath564175">
      <rect
         x="14.3"
         y="10.8"
         width="216.82001"
         height="207.14188"
         id="rect564173" />
    </clipPath>
    <clipPath
       id="clipPath564179">
      <rect
         x="14.3"
         y="10.8"
         width="216.82001"
         height="207.14188"
         id="rect564177" />
    </clipPath>
    <clipPath
       id="clipPath564183">
      <rect
         x="14.3"
         y="10.8"
         width="216.82001"
         height="207.14188"
         id="rect564181" />
    </clipPath>
    <path
       id="DejaVuSans-42"
       d="M 1259,2228 V 519 h 1013 q 509,0 754,211 246,211 246,645 0,438 -246,645 -245,208 -754,208 z m 0,1919 V 2741 h 935 q 462,0 688,173 227,174 227,530 0,353 -227,528 -226,175 -688,175 z m -631,519 h 1613 q 722,0 1112,-300 391,-300 391,-853 0,-429 -200,-682 -200,-253 -588,-315 466,-100 724,-418 258,-317 258,-792 0,-625 -425,-966 Q 3088,0 2303,0 H 628 Z"
       transform="scale(0.015625)" />
    <path
       id="DejaVuSans-6f"
       d="m 1959,3097 q -462,0 -731,-361 -269,-361 -269,-989 0,-628 267,-989 268,-361 733,-361 460,0 728,362 269,363 269,988 0,622 -269,986 -268,364 -728,364 z m 0,487 q 750,0 1178,-488 429,-487 429,-1349 Q 3566,888 3137,398 2709,-91 1959,-91 1206,-91 779,398 353,888 353,1747 q 0,862 426,1349 427,488 1180,488 z"
       transform="scale(0.015625)" />
    <path
       id="DejaVuSans-72"
       d="m 2631,2963 q -97,56 -211,82 -114,27 -251,27 -488,0 -749,-317 -261,-317 -261,-911 V 0 H 581 v 3500 h 578 v -544 q 182,319 472,473 291,155 707,155 59,0 131,-8 72,-7 159,-23 z"
       transform="scale(0.015625)" />
    <path
       id="DejaVuSans-6e"
       d="M 3513,2113 V 0 h -575 v 2094 q 0,497 -194,743 -194,247 -581,247 -466,0 -735,-297 -269,-296 -269,-809 V 0 H 581 v 3500 h 578 v -544 q 207,316 486,472 280,156 646,156 603,0 912,-373 310,-373 310,-1098 z"
       transform="scale(0.015625)" />
    <path
       id="DejaVuSans-65"
       d="M 3597,1894 V 1613 H 953 q 38,-594 358,-905 320,-311 892,-311 331,0 642,81 311,81 618,244 V 178 Q 3153,47 2828,-22 2503,-91 2169,-91 1331,-91 842,396 353,884 353,1716 q 0,859 464,1363 464,505 1252,505 706,0 1117,-455 411,-454 411,-1235 z m -575,169 q -6,471 -264,752 -258,282 -683,282 -481,0 -770,-272 -289,-272 -333,-766 z"
       transform="scale(0.015625)" />
    <path
       id="DejaVuSans-61"
       d="m 2194,1759 q -697,0 -966,-159 -269,-159 -269,-544 0,-306 202,-486 202,-179 548,-179 479,0 768,339 289,339 289,901 v 128 z m 1147,238 V 0 H 2766 V 531 Q 2569,213 2275,61 1981,-91 1556,-91 q -537,0 -855,302 -317,302 -317,808 0,590 395,890 396,300 1180,300 h 807 v 57 q 0,397 -261,614 -261,217 -733,217 -300,0 -585,-72 -284,-72 -546,-216 v 532 q 315,122 612,182 297,61 578,61 760,0 1135,-394 375,-393 375,-1193 z"
       transform="scale(0.015625)" />
    <path
       id="DejaVuSans-53"
       d="m 3425,4513 v -616 q -359,172 -678,256 -319,85 -616,85 -515,0 -795,-200 -280,-200 -280,-569 0,-310 186,-468 186,-157 705,-254 l 381,-78 q 706,-135 1042,-474 336,-339 336,-907 0,-679 -455,-1029 -454,-350 -1332,-350 -331,0 -705,75 -373,75 -773,222 v 650 q 384,-215 753,-325 369,-109 725,-109 540,0 834,212 294,213 294,607 0,343 -211,537 -211,194 -692,291 l -385,75 q -706,140 -1022,440 -315,300 -315,835 0,619 436,975 436,356 1201,356 329,0 669,-60 341,-59 697,-177 z"
       transform="scale(0.015625)" />
    <path
       id="DejaVuSans-75"
       d="m 544,1381 v 2119 h 575 V 1403 q 0,-497 193,-746 194,-248 582,-248 465,0 735,297 271,297 271,810 v 1984 h 575 V 0 H 2900 V 538 Q 2691,219 2414,64 2138,-91 1772,-91 1169,-91 856,284 544,659 544,1381 Z m 1447,2203 z"
       transform="scale(0.015625)" />
    <path
       id="DejaVuSans-6d"
       d="m 3328,2828 q 216,388 516,572 300,184 706,184 547,0 844,-383 297,-382 297,-1088 V 0 h -578 v 2094 q 0,503 -179,746 -178,244 -543,244 -447,0 -707,-297 -259,-296 -259,-809 V 0 h -578 v 2094 q 0,506 -178,748 -178,242 -550,242 -441,0 -701,-298 -259,-298 -259,-808 V 0 H 581 v 3500 h 578 v -544 q 197,322 472,475 275,153 653,153 382,0 649,-194 267,-193 395,-562 z"
       transform="scale(0.015625)" />
    <path
       id="DejaVuSans-74"
       d="M 1172,4494 V 3500 H 2356 V 3053 H 1172 V 1153 q 0,-428 117,-550 117,-122 477,-122 h 590 V 0 H 1766 Q 1100,0 847,248 594,497 594,1153 V 3053 H 172 v 447 h 422 v 994 z"
       transform="scale(0.015625)" />
  </defs>
  <g
     id="figure_1">
    <defs
       id="defs563139">
      <clipPath
         id="p0662913bc1">
        <rect
           x="63.290625"
           y="13.144197"
           width="167.829375"
           height="204.797678"
           id="rect563136" />
      </clipPath>
    </defs>
    <path
       d="m 101.80773,166.911 1,0.0314 1,0.0369 1,0.0977 1,0.0325 1,0.0736 1,0.0386 1,0.0354 1,0.0576 1,0.0704 1,0.052 1,0.0591 1,0.0883 1,0.0461 1,0.0424 1,0.0305 1,0.026 1,0.0212 1,0.0543 1,0.0279 1,0.0297 1,0.0254 1,0.0112 1,0.0101 1,-2e-4 1,-0.01 1,-0.0117 1,-0.031 1,-0.0112 1,-0.0301 1,-0.0598 1,-0.0372 1,-0.0391 1,-0.0424 1,-0.0328 1,-0.0674 1,-0.0391 1,-0.0427 1,-0.0706 1,-0.0364 1,-0.0584 1,-0.11095 1,-0.0707 1,-0.11294 1,-0.0458 1,-0.0613 1,-0.0485 1,-0.0808 1,-0.11852 1,-0.0702 1,-0.0833 1,-0.0331 1,-0.0512 1,-0.0684 1,-0.0662 1,-0.0769 1.35485,-0.0273"
       clip-path="url(#pf7c8d50d41)"
       style="fill:none;stroke:#1e77b3;stroke-width:0.2;stroke-linecap:square;stroke-linejoin:round;stroke-opacity:0.5"
       id="path113856" />
    <path
       d="m 102.21697,122.59975 1,0.0314 1,0.0369 1,0.0977 1,0.0325 1,0.0736 1,0.0386 1,0.0354 1,0.0576 1,0.0704 1,0.052 1,0.0591 1,0.0883 1,0.0462 1,0.0424 1,0.0305 1,0.026 1,0.0212 1,0.0543 1,0.0279 1,0.0297 1,0.0254 1,0.0112 1,0.0101 1,-2.1e-4 1,-0.01 0.99999,-0.0117 1,-0.031 1,-0.0112 1,-0.0301 1,-0.0598 1,-0.0372 1,-0.0391 1,-0.0424 1,-0.0328 1,-0.0674 1,-0.0391 1,-0.0427 1,-0.0706 1,-0.0364 1,-0.0584 1,-0.11095 1,-0.0707 1,-0.11294 1,-0.0458 1,-0.0613 1,-0.0485 1,-0.0808 1,-0.11851 1,-0.0702 1,-0.0833 1,-0.0331 1,-0.0512 1,-0.0684 1,-0.0662 1,-0.0769 1,-0.0273 1,-0.0265 1,-0.0226 1,-0.0195 1,-0.0264 1,-0.0498 1.84314,-0.0351"
       clip-path="url(#pf7c8d50d41)"
       style="fill:none;stroke:#1e77b3;stroke-width:0.2;stroke-linecap:square;stroke-linejoin:round;stroke-opacity:0.5"
       id="path113858" />
    <path
       d="m 102.13559,131.23572 1,0.0314 1,0.0369 1,0.0977 1,0.0325 1,0.0736 1,0.0386 1,0.0354 1,0.0576 1,0.0704 1,0.052 1,0.0591 1,0.0883 1,0.0462 1,0.0424 1,0.0305 1,0.026 1,0.0212 1,0.0543 1,0.0279 1,0.0297 1,0.0254 1,0.0112 1,0.0101 1,-2e-4 1,-0.01 1,-0.0117 1,-0.031 1,-0.0112 1,-0.0301 1,-0.0598 1,-0.0372 1,-0.0391 1,-0.0424 1,-0.0328 1,-0.0674 1,-0.0391 1,-0.0427 1,-0.0706 1,-0.0364 1,-0.0584 1,-0.11096 1,-0.0707 1,-0.11294 1,-0.0458 1,-0.0613 1,-0.0485 1,-0.0808 1,-0.11852 1,-0.0702 1,-0.0833 1,-0.0332 1,-0.0512 1,-0.0684 1,-0.0662 1,-0.0769 1,-0.0273 1,-0.0265 1,-0.0226 1,-0.0195 1,-0.0264 1.8062,-0.0498"
       clip-path="url(#pf7c8d50d41)"
       style="fill:none;stroke:#1e77b3;stroke-width:0.2;stroke-linecap:square;stroke-linejoin:round;stroke-opacity:0.5"
       id="path113860" />
    <path
       d="m 102.28313,115.63964 1,0.0314 1,0.0369 1,0.0977 1,0.0325 1,0.0736 1,0.0386 1,0.0354 1,0.0576 1,0.0704 1,0.052 1,0.0591 1,0.0883 1,0.0462 1,0.0424 1,0.0305 1,0.026 1,0.0212 1,0.0543 1,0.0279 1,0.0297 1,0.0254 1,0.0112 1,0.0101 1,-2.1e-4 1,-0.01 1,-0.0117 1,-0.031 1,-0.0112 1,-0.0301 1,-0.0598 1,-0.0372 1,-0.0391 1,-0.0424 1,-0.0328 1,-0.0674 1,-0.0391 1,-0.0427 1,-0.0706 1,-0.0364 1,-0.0584 1,-0.11096 1,-0.0707 1,-0.11294 1,-0.0458 1,-0.0613 1,-0.0485 1,-0.0808 1,-0.11852 1,-0.0702 1,-0.0833 1,-0.0331 1,-0.0512 1,-0.0684 1,-0.0662 1,-0.0769 1,-0.0273 1,-0.0265 1,-0.0226 1,-0.0195 1,-0.0264 1,-0.0498 1,-0.0351 1.6113,-0.0359"
       clip-path="url(#pf7c8d50d41)"
       style="fill:none;stroke:#1e77b3;stroke-width:0.2;stroke-linecap:square;stroke-linejoin:round;stroke-opacity:0.5"
       id="path113862" />
    <path
       d="m 102.46687,96.591963 1,0.03144 1,0.03694 1,0.09775 1,0.03252 1,0.07363 1,0.03857 1,0.03541 1,0.05764 1,0.07039 1,0.05196 1,0.05909 1,0.08832 1,0.04614 1,0.04241 1,0.03049 1,0.02604 1,0.0212 1,0.0543 1,0.02794 1,0.02972 1,0.02539 1,0.0112 1,0.01012 1,-2.05e-4 1,-0.0095 1,-0.01165 1,-0.03103 1,-0.01117 1,-0.03012 1,-0.05978 1,-0.03719 1,-0.0391 1,-0.04244 1,-0.03276 1,-0.06743 1,-0.03912 1,-0.04268 1,-0.07058 1,-0.03639 1,-0.0584 1,-0.110952 1,-0.07066 1,-0.112939 1,-0.04577 1,-0.06128 1,-0.0485 1,-0.08082 1,-0.118518 1,-0.07021 1,-0.08326 1,-0.03314 1,-0.05124 1,-0.0684 1,-0.06621 1,-0.07692 1,-0.02732 1,-0.02648 1,-0.02265 1,-0.01953 1,-0.02639 1,-0.04977 1,-0.03507 1,-0.03587 1,-0.01537 1.43795,-0.01577"
       clip-path="url(#pf7c8d50d41)"
       style="fill:none;stroke:#1e77b3;stroke-width:0.2;stroke-linecap:square;stroke-linejoin:round;stroke-opacity:0.5"
       id="path113864" />
    <path
       d="m 101.69763,179.22054 1,0.0314 1,0.0369 1,0.0978 1,0.0325 1,0.0736 1,0.0386 1,0.0354 1,0.0576 1,0.0704 1,0.052 1,0.0591 1,0.0883 1,0.0461 1,0.0424 1,0.0305 1,0.026 1,0.0212 1,0.0543 1,0.0279 1,0.0297 1,0.0254 1,0.0112 1,0.0101 1,-2e-4 1,-0.01 1,-0.0117 1,-0.031 1,-0.0112 1,-0.0301 1,-0.0598 1,-0.0372 1,-0.0391 1,-0.0424 1,-0.0328 1,-0.0674 1,-0.0391 1,-0.0427 1,-0.0706 1,-0.0364 1,-0.0584 1,-0.11096 1,-0.0707 1,-0.11294 1,-0.0458 1,-0.0613 1,-0.0485 1,-0.0808 1,-0.11852 1,-0.0702 1,-0.0833 1,-0.0332 1,-0.0512 1.94854,-0.0684"
       clip-path="url(#pf7c8d50d41)"
       style="fill:none;stroke:#1e77b3;stroke-width:0.2;stroke-linecap:square;stroke-linejoin:round;stroke-opacity:0.5"
       id="path113866" />
    <path
       d="m 101.84721,162.53815 1,0.0314 1,0.0369 1,0.0978 1,0.0325 1,0.0736 1,0.0386 1,0.0354 1,0.0576 1,0.0704 1,0.052 1,0.0591 1,0.0883 1,0.0461 1,0.0424 1,0.0305 1,0.026 1,0.0212 1,0.0543 1,0.0279 1,0.0297 1,0.0254 1,0.0112 1,0.0101 1,-2.1e-4 1,-0.01 1,-0.0117 1,-0.031 1,-0.0112 1,-0.0301 1,-0.0598 1,-0.0372 1,-0.0391 1,-0.0424 1,-0.0328 1,-0.0674 1,-0.0391 1,-0.0427 1,-0.0706 1,-0.0364 1,-0.0584 1,-0.11095 1,-0.0707 1,-0.11294 1,-0.0458 1,-0.0613 1,-0.0485 1,-0.0808 1,-0.11851 1,-0.0702 1,-0.0833 1,-0.0331 1,-0.0512 1,-0.0684 1,-0.0662 1,-0.0769 1,-0.0273 1.1381,-0.0265"
       clip-path="url(#pf7c8d50d41)"
       style="fill:none;stroke:#1e77b3;stroke-width:0.2;stroke-linecap:square;stroke-linejoin:round;stroke-opacity:0.5"
       id="path113868" />
    <path
       d="m 102.76883,66.153618 1,0.03144 1,0.03694 1,0.09775 1,0.03252 1,0.07363 1,0.03857 1,0.03541 1,0.05764 1,0.07039 1,0.05196 1,0.05909 1,0.08832 1,0.04614 1,0.04241 1,0.03049 1,0.02605 1,0.0212 1,0.0543 1,0.02794 1,0.02972 1,0.02539 1,0.0112 1,0.01012 1,-2.04e-4 1,-0.0095 1,-0.01165 1,-0.03103 1,-0.01117 1,-0.03012 1,-0.05978 1,-0.03719 1,-0.0391 1,-0.04244 1,-0.03276 1,-0.06743 1,-0.03913 1,-0.04267 1,-0.07058 1,-0.03639 1,-0.0584 1,-0.110953 1,-0.07066 1,-0.11294 1,-0.04577 1,-0.06128 1,-0.0485 1,-0.08082 1,-0.118519 1,-0.07021 1,-0.08326 1,-0.03314 1,-0.05124 1,-0.0684 1,-0.06622 1,-0.07692 1,-0.02732 1,-0.02648 1,-0.02265 1,-0.01953 1,-0.02639 1,-0.04977 1,-0.03507 1,-0.03587 1,-0.01537 1,-0.01577 1,-0.0034 1.65722,-0.0024"
       clip-path="url(#pf7c8d50d41)"
       style="fill:none;stroke:#1e77b3;stroke-width:0.2;stroke-linecap:square;stroke-linejoin:round;stroke-opacity:0.5"
       id="path113870" />
    <path
       d="m 102.32759,110.99303 1,0.0314 1,0.0369 1,0.0977 1,0.0325 1,0.0736 1,0.0386 1,0.0354 1,0.0576 1,0.0704 1,0.052 1,0.0591 1,0.0883 1,0.0461 1,0.0424 1,0.0305 1,0.026 1,0.0212 1,0.0543 1,0.0279 1,0.0297 1,0.0254 1,0.0112 1,0.0101 1,-2e-4 1,-0.01 1,-0.0116 1,-0.031 1,-0.0112 1,-0.0301 1,-0.0598 1,-0.0372 1,-0.0391 1,-0.0424 1,-0.0328 1,-0.0674 1,-0.0391 1,-0.0427 1,-0.0706 1,-0.0364 1,-0.0584 1,-0.11095 1,-0.0707 1,-0.11294 1,-0.0458 1,-0.0613 1,-0.0485 1,-0.0808 1,-0.11852 1,-0.0702 1,-0.0833 1,-0.0331 1,-0.0512 1,-0.0684 1,-0.0662 1,-0.0769 1,-0.0273 1,-0.0265 1,-0.0226 1,-0.0195 1,-0.0264 1,-0.0498 1,-0.0351 1,-0.0359 1.09272,-0.0154"
       clip-path="url(#pf7c8d50d41)"
       style="fill:none;stroke:#1e77b3;stroke-width:0.2;stroke-linecap:square;stroke-linejoin:round;stroke-opacity:0.5"
       id="path113872" />
    <path
       d="m 101.79902,167.87869 1,0.0314 1,0.0369 1,0.0977 1,0.0325 1,0.0736 1,0.0386 1,0.0354 1,0.0576 1,0.0704 1,0.052 1,0.0591 1,0.0883 1,0.0462 1,0.0424 1,0.0305 1,0.026 1,0.0212 1,0.0543 1,0.0279 1,0.0297 1,0.0254 1,0.0112 1,0.0101 1,-2.1e-4 1,-0.01 1,-0.0117 1,-0.031 1,-0.0112 1,-0.0301 1,-0.0598 1,-0.0372 1,-0.0391 1,-0.0424 1,-0.0328 1,-0.0674 1,-0.0391 1,-0.0427 1,-0.0706 1,-0.0364 1,-0.0584 1,-0.11096 1,-0.0707 1,-0.11294 1,-0.0458 1,-0.0613 1,-0.0485 1,-0.0808 1,-0.11852 1,-0.0702 1,-0.0833 1,-0.0331 1,-0.0512 1,-0.0684 1,-0.0662 1,-0.0769 1.17664,-0.0273"
       clip-path="url(#pf7c8d50d41)"
       style="fill:none;stroke:#1e77b3;stroke-width:0.2;stroke-linecap:square;stroke-linejoin:round;stroke-opacity:0.5"
       id="path113874" />
    <path
       d="m 147.23357,212.0228 -1,-0.0314 -1,-0.0369 -1,-0.0977 -1,-0.0325 -1,-0.0736 -1,-0.0386 -1,-0.0354 -1,-0.0576 -1,-0.0704 -1,-0.052 -1,-0.0591 -1,-0.0883 -1,-0.0461 -1,-0.0424 -1,-0.0305 -1,-0.026 -1,-0.0212 -1,-0.0543 -1,-0.0279 -1,-0.0297 -1,-0.0254 -1,-0.0112 -1,-0.0101 -1,2e-4 -1,0.01 -1,0.0117 -1,0.031 -1,0.0112 -1,0.0301 -1,0.0598 -1,0.0372 -1,0.0391 -1,0.0424 -1,0.0328 -1,0.0674 -1,0.0391 -1,0.0427 -1,0.0706 -1,0.0364 -1,0.0584 -1,0.11096 -1,0.0707 -1,0.11294 -1,0.0458 -1.82196,0.0613"
       clip-path="url(#pf7c8d50d41)"
       style="fill:none;stroke:#b3641e;stroke-width:0.2;stroke-linecap:square;stroke-linejoin:round;stroke-opacity:0.5"
       id="path113876" />
    <path
       d="m 169.84075,74.079475 -1,-0.03144 -1,-0.03694 -1,-0.09775 -1,-0.03252 -1,-0.07363 -1,-0.03856 -1,-0.03541 -1,-0.05764 -1,-0.07039 -1,-0.05196 -1,-0.05909 -1,-0.08832 -1,-0.04614 -1,-0.04241 -1,-0.03049 -1,-0.02604 -1,-0.0212 -1,-0.0543 -1,-0.02794 -1,-0.02972 -1,-0.0254 -1,-0.0112 -1,-0.01012 -1,2.04e-4 -1,0.0095 -1,0.01165 -1,0.03103 -1,0.01117 -1,0.03012 -1,0.05978 -1,0.03719 -1,0.0391 -1,0.04244 -1,0.03276 -1,0.06743 -1,0.03913 -1,0.04267 -1,0.07058 -1,0.03639 -1,0.0584 -1,0.110953 -1,0.07066 -1,0.11294 -1,0.04577 -1,0.06128 -1,0.0485 -1,0.08082 -1,0.118519 -1,0.07021 -1,0.08326 -1,0.03314 -1,0.05124 -1,0.0684 -1,0.06622 -1,0.07692 -1,0.02732 -1,0.02648 -1,0.02265 -1,0.01953 -1,0.02639 -1,0.04977 -1,0.03507 -1,0.03586 -1,0.01537 -1,0.01577 -1,0.0034 -1.15155,0.0024"
       clip-path="url(#pf7c8d50d41)"
       style="fill:none;stroke:#b3641e;stroke-width:0.2;stroke-linecap:square;stroke-linejoin:round;stroke-opacity:0.5"
       id="path113878" />
    <path
       d="m 171.04873,56.978426 -1,-0.03144 -1,-0.03694 -1,-0.09775 -1,-0.03252 -1,-0.07362 -1,-0.03857 -1,-0.03541 -1,-0.05764 -1,-0.07039 -1,-0.05196 -1,-0.05909 -1,-0.08832 -1,-0.04615 -1,-0.04241 -1,-0.03049 -1,-0.02605 -1,-0.0212 -1,-0.0543 -1,-0.02794 -1,-0.02972 -1,-0.0254 -1,-0.0112 -1,-0.01012 -1,2.04e-4 -1,0.0095 -1,0.01165 -1,0.03103 -1,0.01117 -1,0.03012 -1,0.05978 -1,0.03719 -1,0.0391 -1,0.04244 -1,0.03276 -1,0.06743 -1,0.03913 -1,0.04268 -1,0.07058 -1,0.03639 -1,0.0584 -1,0.110953 -1,0.07066 -1,0.11294 -1,0.04577 -1,0.06128 -1,0.0485 -1,0.08082 -1,0.118519 -1,0.07021 -1,0.08326 -1,0.03314 -1,0.05124 -1,0.0684 -1,0.06621 -1,0.07692 -1,0.02732 -1,0.02648 -1,0.02265 -1,0.01953 -1,0.02639 -1,0.04977 -1,0.03507 -1,0.03587 -1,0.01537 -1,0.01577 -1,0.0034 -1,0.0024 -1.18683,-4.87e-4"
       clip-path="url(#pf7c8d50d41)"
       style="fill:none;stroke:#b3641e;stroke-width:0.2;stroke-linecap:square;stroke-linejoin:round;stroke-opacity:0.5"
       id="path113880" />
    <path
       d="m 153.62597,188.12164 -1,-0.0314 -1,-0.0369 -1,-0.0977 -1,-0.0325 -1,-0.0736 -1,-0.0386 -1,-0.0354 -1,-0.0576 -1,-0.0704 -1,-0.052 -1,-0.0591 -1,-0.0883 -1,-0.0462 -1,-0.0424 -1,-0.0305 -1,-0.026 -1,-0.0212 -1,-0.0543 -1,-0.0279 -1,-0.0297 -1,-0.0254 -1,-0.0112 -1,-0.0101 -1,2.1e-4 -1,0.01 -1,0.0117 -1,0.031 -1,0.0112 -1,0.0301 -1,0.0598 -1,0.0372 -1,0.0391 -1,0.0424 -1,0.0328 -1,0.0674 -1,0.0391 -1,0.0427 -1,0.0706 -1,0.0364 -1,0.0584 -1,0.11095 -1,0.0707 -1,0.11294 -1,0.0458 -1,0.0613 -1,0.0485 -1,0.0808 -1,0.11852 -1,0.0702 -1,0.0833 -1,0.0331 -1.007,0.0512"
       clip-path="url(#pf7c8d50d41)"
       style="fill:none;stroke:#b3641e;stroke-width:0.2;stroke-linecap:square;stroke-linejoin:round;stroke-opacity:0.5"
       id="path113882" />
    <path
       d="m 158.88675,163.07209 -1,-0.0314 -1,-0.0369 -1,-0.0977 -1,-0.0325 -1,-0.0736 -1,-0.0386 -1,-0.0354 -1,-0.0576 -1,-0.0704 -1,-0.052 -1,-0.0591 -1,-0.0883 -1,-0.0461 -1,-0.0424 -1,-0.0305 -1,-0.026 -1,-0.0212 -1,-0.0543 -1,-0.0279 -1,-0.0297 -1,-0.0254 -1,-0.0112 -1,-0.0101 -1,2.1e-4 -1,0.01 -1,0.0117 -1,0.031 -1,0.0112 -1,0.0301 -1,0.0598 -1,0.0372 -1,0.0391 -1,0.0424 -1,0.0328 -1,0.0674 -1,0.0391 -1,0.0427 -1,0.0706 -1,0.0364 -1,0.0584 -1,0.11095 -1,0.0707 -1,0.11294 -1,0.0458 -1,0.0613 -1,0.0485 -1,0.0808 -1,0.11852 -1,0.0702 -1,0.0833 -1,0.0331 -1,0.0512 -1,0.0684 -1,0.0662 -1,0.0769 -1,0.0273 -1.04437,0.0265"
       clip-path="url(#pf7c8d50d41)"
       style="fill:none;stroke:#b3641e;stroke-width:0.2;stroke-linecap:square;stroke-linejoin:round;stroke-opacity:0.5"
       id="path113884" />
    <path
       d="m 147.68908,210.49445 -1,-0.0314 -1,-0.0369 -1,-0.0978 -1,-0.0325 -1,-0.0736 -1,-0.0386 -1,-0.0354 -1,-0.0576 -1,-0.0704 -1,-0.052 -1,-0.0591 -1,-0.0883 -1,-0.0461 -1,-0.0424 -1,-0.0305 -1,-0.026 -1,-0.0212 -1,-0.0543 -1,-0.0279 -1,-0.0297 -1,-0.0254 -1,-0.0112 -1,-0.0101 -1,2.1e-4 -1,0.01 -1,0.0117 -1,0.031 -1,0.0112 -1,0.0301 -1,0.0598 -1,0.0372 -1,0.0391 -1,0.0424 -1,0.0328 -1,0.0674 -1,0.0391 -1,0.0427 -1,0.0706 -1,0.0364 -1,0.0584 -1,0.11095 -1,0.0707 -1,0.11294 -1,0.0458 -1,0.0613 -1.26438,0.0485"
       clip-path="url(#pf7c8d50d41)"
       style="fill:none;stroke:#b3641e;stroke-width:0.2;stroke-linecap:square;stroke-linejoin:round;stroke-opacity:0.5"
       id="path113886" />
    <path
       d="m 171.19384,54.715201 -1,-0.03144 -1,-0.03694 -1,-0.09775 -1,-0.03252 -1,-0.07362 -1,-0.03856 -1,-0.03541 -1,-0.05764 -1,-0.07039 -1,-0.05196 -1,-0.05909 -1,-0.08832 -1,-0.04614 -1,-0.04241 -1,-0.03049 -1,-0.02604 -1,-0.0212 -1,-0.0543 -1,-0.02794 -1,-0.02972 -1,-0.02539 -1,-0.0112 -1,-0.01012 -1,2.04e-4 -1,0.0095 -1,0.01165 -1,0.03103 -1,0.01117 -1,0.03012 -1,0.05978 -1,0.03719 -1,0.0391 -1,0.04244 -1,0.03277 -1,0.06743 -1,0.03913 -1,0.04267 -1,0.07058 -1,0.03639 -1,0.0584 -1,0.110953 -1,0.07066 -1,0.11294 -1,0.04577 -1,0.06128 -1,0.0485 -1,0.08082 -1,0.118519 -1,0.07021 -1,0.08326 -1,0.03314 -1,0.05124 -1,0.0684 -1,0.06622 -1,0.07692 -1,0.02732 -1,0.02648 -1,0.02265 -1,0.01953 -1,0.02639 -1,0.04977 -1,0.03507 -1,0.03587 -1,0.01537 -1,0.01577 -1,0.0034 -1,0.0024 -1.30883,-4.86e-4"
       clip-path="url(#pf7c8d50d41)"
       style="fill:none;stroke:#b3641e;stroke-width:0.2;stroke-linecap:square;stroke-linejoin:round;stroke-opacity:0.5"
       id="path113888" />
    <path
       d="m 169.69222,75.995694 -1,-0.03144 -1,-0.03694 -1,-0.09775 -1,-0.03252 -1,-0.07363 -1,-0.03856 -1,-0.03541 -1,-0.05764 -1,-0.07039 -1,-0.05196 -1,-0.05909 -1,-0.08832 -1,-0.04614 -1,-0.04241 -1,-0.03049 -1,-0.02604 -1,-0.0212 -1,-0.0543 -1,-0.02794 -1,-0.02972 -1,-0.0254 -1,-0.0112 -1,-0.01012 -1,2.04e-4 -1,0.0095 -1,0.01165 -1,0.03103 -1,0.01117 -1,0.03012 -1,0.05978 -1,0.03719 -1,0.0391 -1,0.04244 -1,0.03277 -1,0.06743 -1,0.03913 -1,0.04267 -1,0.07058 -1,0.03639 -1,0.0584 -1,0.110953 -1,0.07066 -1,0.11294 -1,0.04577 -1,0.06128 -1,0.0485 -1,0.08082 -1,0.118519 -1,0.07021 -1,0.08326 -1,0.03314 -1,0.05124 -1,0.0684 -1,0.06622 -1,0.07692 -1,0.02732 -1,0.02648 -1,0.02265 -1,0.01953 -1,0.02639 -1,0.04977 -1,0.03507 -1,0.03587 -1,0.01537 -1,0.01577 -1,0.0034 -1.02217,0.0024"
       clip-path="url(#pf7c8d50d41)"
       style="fill:none;stroke:#b3641e;stroke-width:0.2;stroke-linecap:square;stroke-linejoin:round;stroke-opacity:0.5"
       id="path113890" />
    <path
       d="m 166.16214,113.3008 -1,-0.0314 -1,-0.0369 -1,-0.0977 -1,-0.0325 -1,-0.0736 -1,-0.0386 -1,-0.0354 -1,-0.0576 -1,-0.0704 -1,-0.052 -1,-0.0591 -1,-0.0883 -1,-0.0461 -1,-0.0424 -1,-0.0305 -1,-0.026 -1,-0.0212 -1,-0.0543 -1,-0.0279 -1,-0.0297 -1,-0.0254 -1,-0.0112 -1,-0.0101 -1,2.1e-4 -1,0.01 -1,0.0117 -1,0.031 -1,0.0112 -1,0.0301 -1,0.0598 -1,0.0372 -1,0.0391 -1,0.0424 -1,0.0328 -1,0.0674 -1,0.0391 -1,0.0427 -1,0.0706 -1,0.0364 -1,0.0584 -1,0.11096 -1,0.0707 -1,0.11294 -1,0.0458 -1,0.0613 -1,0.0485 -1,0.0808 -1,0.11852 -1,0.0702 -1,0.0833 -1,0.0331 -1,0.0512 -1,0.0684 -1,0.0662 -1,0.0769 -1,0.0273 -1,0.0265 -1,0.0226 -1,0.0195 -1,0.0264 -1,0.0498 -1,0.0351 -1.85666,0.0359"
       clip-path="url(#pf7c8d50d41)"
       style="fill:none;stroke:#b3641e;stroke-width:0.2;stroke-linecap:square;stroke-linejoin:round;stroke-opacity:0.5"
       id="path113892" />
    <path
       d="m 169.22601,81.785055 -1,-0.03144 -1,-0.03694 -1,-0.09775 -1,-0.03252 -1,-0.07363 -1,-0.03856 -1,-0.03541 -1,-0.05764 -1,-0.07039 -1,-0.05196 -1,-0.05909 -1,-0.08832 -1,-0.04614 -1,-0.04241 -1,-0.03049 -1,-0.02604 -1,-0.0212 -1,-0.0543 -1,-0.02794 -1,-0.02972 -1,-0.0254 -1,-0.0112 -1,-0.01012 -1,2.04e-4 -1,0.0095 -1,0.01165 -1,0.03103 -1,0.01117 -1,0.03012 -1,0.05978 -1,0.03719 -1,0.0391 -1,0.04244 -1,0.03276 -1,0.06743 -1,0.03913 -1,0.04267 -1,0.07058 -1,0.03639 -1,0.0584 -1,0.110953 -1,0.07066 -1,0.11294 -1,0.04577 -1,0.06128 -1,0.0485 -1,0.08082 -1,0.118519 -1,0.07021 -1,0.08326 -1,0.03314 -1,0.05124 -1,0.0684 -1,0.06622 -1,0.07692 -1,0.02732 -1,0.02648 -1,0.02265 -1,0.01953 -1,0.02639 -1,0.04977 -1,0.03507 -1,0.03587 -1,0.01537 -1,0.01577 -1.61355,0.0034"
       clip-path="url(#pf7c8d50d41)"
       style="fill:none;stroke:#b3641e;stroke-width:0.2;stroke-linecap:square;stroke-linejoin:round;stroke-opacity:0.5"
       id="path113894" />
    <g
       id="patch_3"
       style="stroke-linecap:butt;stroke-linejoin:round">
      <path
         d="m 77.020172,10.8 v 41.428375 h 6.256692 l 1.347447,142.279265 0.201898,23.43423 M 107.69023,10.8 v 41.428375 h -6.25669 l -1.34745,142.279265 -0.201899,23.43423 v 0"
         clip-path="url(#pf7c8d50d41)"
         style="fill:none;stroke:#1e75b3;stroke-linecap:butt;stroke-linejoin:miter;stroke-opacity:1"
         id="path113896" />
    </g>
    <g
       id="PolyCollection_1"
       style="fill:#1e75b3;stroke-linecap:butt;stroke-linejoin:round;fill-opacity:0.5">
      <path
         d="M 107.69023,10.8 H 77.020172 v 41.428375 h 6.256692 l 0.01714,1.673874 0.01711,1.673873 0.01708,1.673874 0.01705,1.673874 0.01702,1.673874 0.01698,1.673873 0.01695,1.673874 0.01692,1.673874 0.01689,1.673874 0.01685,1.673873 0.01682,1.673874 0.01679,1.673874 0.01676,1.673874 0.01673,1.673873 0.0167,1.673874 0.01667,1.673874 0.01663,1.673874 0.0166,1.673873 0.01657,1.673874 0.01654,1.673874 0.01651,1.673873 0.01648,1.673874 0.01645,1.673874 0.01641,1.673874 0.01638,1.673873 0.01635,1.673874 0.01632,1.673874 0.01629,1.673874 0.01626,1.67387 0.01623,1.67388 0.0162,1.67387 0.01617,1.67387 0.01614,1.67388 0.01611,1.67387 0.01608,1.67388 0.01605,1.67387 0.01602,1.67387 0.01599,1.67388 0.01596,1.67387 0.01592,1.67387 0.0159,1.67388 0.01587,1.67387 0.01583,1.67388 0.01581,1.67387 0.01577,1.67387 0.01575,1.67388 0.01572,1.67387 0.01569,1.67387 0.01566,1.67388 0.01563,1.67387 0.0156,1.67388 0.01557,1.67387 0.01554,1.67387 0.01551,1.67388 0.01548,1.67387 0.01545,1.67387 0.01542,1.67388 0.01539,1.67387 0.01536,1.67388 0.01534,1.67387 0.0153,1.67387 0.01528,1.67388 0.01525,1.67387 0.01522,1.67387 0.01519,1.67388 0.01516,1.67387 0.01513,1.67387 0.0151,1.67388 0.01508,1.67387 0.01505,1.67388 0.01502,1.67387 0.01499,1.67387 0.01496,1.67388 0.01493,1.67387 0.01491,1.67387 0.01488,1.67388 0.01485,1.67387 0.01482,1.67388 0.01479,1.67387 0.01476,1.67387 0.01474,1.67388 0.01471,1.67387 0.01468,1.67387 0.01466,1.67388 0.01463,1.67387 0.0146,1.67388 0.01457,1.67387 0.01454,1.67387 0.01452,1.67388 0.01449,1.67387 0.01446,1.67387 0.01443,1.67388 0.01441,1.67387 0.01438,1.67388 0.01435,1.67387 0.01433,1.67387 0.0143,1.67388 0.01427,1.67387 0.01424,1.67387 h 15.057982 v 0 l 0.01424,-1.67387 0.01427,-1.67387 0.0143,-1.67388 0.01433,-1.67387 0.01435,-1.67387 0.01438,-1.67388 0.01441,-1.67387 0.01443,-1.67388 0.01446,-1.67387 0.0145,-1.67387 0.0145,-1.67388 0.0145,-1.67387 0.0146,-1.67387 0.0146,-1.67388 0.0146,-1.67387 0.0147,-1.67388 0.0147,-1.67387 0.0147,-1.67387 0.0147,-1.67388 0.0148,-1.67387 0.0148,-1.67387 0.0148,-1.67388 0.0148,-1.67387 0.0149,-1.67388 0.0149,-1.67387 0.0149,-1.67387 0.015,-1.67388 0.015,-1.67387 0.015,-1.67387 0.0151,-1.67388 0.0151,-1.67387 0.0151,-1.67388 0.0151,-1.67387 0.0152,-1.67387 0.0152,-1.67388 0.0152,-1.67387 0.0152,-1.67387 0.0153,-1.67388 0.0153,-1.67387 0.0153,-1.67387 0.0154,-1.67388 0.0154,-1.67387 0.0154,-1.67388 0.0154,-1.67387 0.0155,-1.67387 0.0155,-1.67388 0.0155,-1.67387 0.0156,-1.67387 0.0156,-1.67388 0.0156,-1.67387 0.0156,-1.67388 0.0157,-1.67387 0.0157,-1.67387 0.0157,-1.67388 0.0158,-1.67387 0.0158,-1.67387 0.0158,-1.67388 0.0159,-1.67387 0.0159,-1.67388 0.0159,-1.67387 0.016,-1.67387 0.016,-1.67388 0.016,-1.67387 0.016,-1.67387 0.0161,-1.67388 0.0161,-1.67387 0.0161,-1.67388 0.0162,-1.67387 0.0162,-1.67387 0.0162,-1.67388 0.0163,-1.67387 0.0163,-1.673874 0.0163,-1.673874 0.0164,-1.673874 0.0164,-1.673873 0.0164,-1.673874 0.0165,-1.673874 0.0165,-1.673874 0.0165,-1.673873 0.0165,-1.673874 0.0166,-1.673874 0.0166,-1.673873 0.0166,-1.673874 0.0167,-1.673874 0.0167,-1.673874 0.0167,-1.673873 0.0168,-1.673874 0.0168,-1.673874 0.0168,-1.673874 0.0169,-1.673873 0.0169,-1.673874 0.0169,-1.673874 0.0169,-1.673874 0.017,-1.673873 0.017,-1.673874 0.017,-1.673874 0.0171,-1.673874 0.0171,-1.673873 0.0171,-1.673874 h 6.25669 z"
         clip-path="url(#pf7c8d50d41)"
         style="fill:#1e75b3;fill-opacity:0.5;stroke-linecap:butt;stroke-linejoin:round"
         id="path113899" />
    </g>
    <g
       id="patch_4"
       style="stroke-linecap:butt;stroke-linejoin:round">
      <path
         d="m 172.82651,52.228375 -1.24927,18.412611 -1.35092,16.738737 -1.42251,15.064867 -1.65099,15.06486 -1.68888,13.39099 -1.92796,13.39099 -1.90958,11.71712 -2.14413,11.71711 -2.04624,10.04324 -2.25986,10.04325 -2.49578,10.04324 -2.75633,10.04324 -2.51551,8.36937 -0.52857,1.67387 m 38.45991,-165.713495 1.24927,18.412611 1.35091,16.738737 1.42252,15.064867 1.65098,15.06486 1.68889,13.39099 1.92796,13.39099 1.90958,11.71712 2.14413,11.71711 2.04624,10.04324 2.25986,10.04325 2.49578,10.04324 2.75633,10.04324 2.51551,8.36937 0.52857,1.67387 v 0"
         clip-path="url(#pf7c8d50d41)"
         style="fill:none;stroke:#ff7f0f;stroke-linecap:butt;stroke-linejoin:miter;stroke-opacity:1"
         id="path113902" />
    </g>
    <g
       id="PolyCollection_2"
       style="fill:#ff7f0f;stroke-linecap:butt;stroke-linejoin:round;fill-opacity:0.5">
      <path
         d="m 185.33989,52.228375 h -12.51338 l -0.10441,1.673874 -0.10615,1.673873 -0.10792,1.673874 -0.10972,1.673874 -0.11156,1.673874 -0.11341,1.673873 -0.11531,1.673874 -0.11723,1.673874 -0.11919,1.673874 -0.12117,1.673873 -0.1232,1.673874 -0.12526,1.673874 -0.12734,1.673874 -0.12947,1.673873 -0.13163,1.673874 -0.13383,1.673874 -0.13606,1.673874 -0.13833,1.673873 -0.14064,1.673874 -0.14298,1.673874 -0.14538,1.673873 -0.14779,1.673874 -0.15027,1.673874 -0.15277,1.673874 -0.15532,1.673873 -0.15791,1.673874 -0.16055,1.673874 -0.16323,1.673874 -0.16595,1.67387 -0.16872,1.67388 -0.17154,1.67387 -0.17439,1.67387 -0.17731,1.67388 -0.18027,1.67387 -0.18327,1.67388 -0.18634,1.67387 -0.18944,1.67387 -0.19261,1.67388 -0.19582,1.67387 -0.19908,1.67387 -0.20241,1.67388 -0.20579,1.67387 -0.20922,1.67388 -0.21271,1.67387 -0.21626,1.67387 -0.21987,1.67388 -0.22354,1.67387 -0.22727,1.67387 -0.23106,1.67388 -0.23492,1.67387 -0.23883,1.67388 -0.24283,1.67387 -0.24687,1.67387 -0.251,1.67388 -0.25518,1.67387 -0.25944,1.67387 -0.26378,1.67388 -0.26817,1.67387 -0.27265,1.67388 -0.27719,1.67387 -0.28183,1.67387 -0.28652,1.67388 -0.29131,1.67387 -0.29617,1.67387 -0.30111,1.67388 -0.30614,1.67387 -0.31124,1.67387 -0.31644,1.67388 -0.32172,1.67387 -0.32709,1.67388 -0.33254,1.67387 -0.3381,1.67387 -0.34374,1.67388 -0.34947,1.67387 -0.3553,1.67387 -0.36124,1.67388 -0.36726,1.67387 -0.37339,1.67388 -0.37962,1.67387 -0.38596,1.67387 -0.39239,1.67388 -0.39895,1.67387 -0.4056,1.67387 -0.41237,1.67388 -0.41925,1.67387 -0.42625,1.67388 -0.43336,1.67387 -0.4406,1.67387 -0.44794,1.67388 -0.45542,1.67387 -0.46302,1.67387 -0.47075,1.67388 -0.4786,1.67387 -0.48659,1.67388 -0.49471,1.67387 -0.50296,1.67387 -0.51136,1.67388 -0.51989,1.67387 -0.52857,1.67387 h 64.40644 v 0 l -0.52857,-1.67387 -0.51989,-1.67387 -0.51136,-1.67388 -0.50296,-1.67387 -0.49471,-1.67387 -0.48659,-1.67388 -0.4786,-1.67387 -0.47075,-1.67388 -0.46302,-1.67387 -0.45542,-1.67387 -0.44794,-1.67388 -0.4406,-1.67387 -0.43336,-1.67387 -0.42625,-1.67388 -0.41925,-1.67387 -0.41237,-1.67388 -0.4056,-1.67387 -0.39895,-1.67387 -0.39239,-1.67388 -0.38596,-1.67387 -0.37962,-1.67387 -0.37339,-1.67388 -0.36726,-1.67387 -0.36124,-1.67388 -0.3553,-1.67387 -0.34948,-1.67387 -0.34373,-1.67388 -0.3381,-1.67387 -0.33254,-1.67387 -0.32709,-1.67388 -0.32172,-1.67387 -0.31644,-1.67388 -0.31124,-1.67387 -0.30614,-1.67387 -0.30111,-1.67388 -0.29617,-1.67387 -0.29131,-1.67387 -0.28652,-1.67388 -0.28183,-1.67387 -0.27719,-1.67387 -0.27265,-1.67388 -0.26818,-1.67387 -0.26377,-1.67388 -0.25944,-1.67387 -0.25518,-1.67387 -0.251,-1.67388 -0.24687,-1.67387 -0.24283,-1.67387 -0.23883,-1.67388 -0.23492,-1.67387 -0.23106,-1.67388 -0.22727,-1.67387 -0.22354,-1.67387 -0.21987,-1.67388 -0.21626,-1.67387 -0.21271,-1.67387 -0.20922,-1.67388 -0.20579,-1.67387 -0.20241,-1.67388 -0.19909,-1.67387 -0.19581,-1.67387 -0.19261,-1.67388 -0.18944,-1.67387 -0.18634,-1.67387 -0.18327,-1.67388 -0.18027,-1.67387 -0.17731,-1.67388 -0.1744,-1.67387 -0.17153,-1.67387 -0.16872,-1.67388 -0.16595,-1.67387 -0.16323,-1.673874 -0.16055,-1.673874 -0.15791,-1.673874 -0.15532,-1.673873 -0.15277,-1.673874 -0.15027,-1.673874 -0.1478,-1.673874 -0.14537,-1.673873 -0.14298,-1.673874 -0.14064,-1.673874 -0.13833,-1.673873 -0.13606,-1.673874 -0.13383,-1.673874 -0.13163,-1.673874 -0.12947,-1.673873 -0.12734,-1.673874 -0.12526,-1.673874 -0.1232,-1.673874 -0.12117,-1.673873 -0.11919,-1.673874 -0.11723,-1.673874 -0.11531,-1.673874 -0.11342,-1.673873 -0.11155,-1.673874 -0.10972,-1.673874 -0.10792,-1.673874 -0.10615,-1.673873 z"
         clip-path="url(#pf7c8d50d41)"
         style="fill:#ff7f0f;fill-opacity:0.5;stroke-linecap:butt;stroke-linejoin:round"
         id="path113905" />
    </g>
    <g
       id="matplotlib.axis_1"
       style="stroke-linecap:butt;stroke-linejoin:round"
       transform="matrix(1.3275142,0,0,1.3275142,-23.712192,-72.583174)">
      <g
         id="xtick_1"
         style="stroke-linecap:butt;stroke-linejoin:round"
         transform="matrix(1.0652347,0,0,1.0652347,-10.837666,-14.457206)">
        <g
           id="line2d_1"
           style="stroke-linecap:butt;stroke-linejoin:round" />
        <g
           id="text_1"
           style="stroke-linecap:butt;stroke-linejoin:round">
          <!-- Bornean -->
          <g
             transform="matrix(0.1,0,0,-0.1,71.419262,229.04031)"
             id="g113931"
             style="stroke-linecap:butt;stroke-linejoin:round">
            <defs
               id="defs113915">
              <path
                 id="path576309"
                 d="M 1259,2228 V 519 h 1013 q 509,0 754,211 246,211 246,645 0,438 -246,645 -245,208 -754,208 z m 0,1919 V 2741 h 935 q 462,0 688,173 227,174 227,530 0,353 -227,528 -226,175 -688,175 z m -631,519 h 1613 q 722,0 1112,-300 391,-300 391,-853 0,-429 -200,-682 -200,-253 -588,-315 466,-100 724,-418 258,-317 258,-792 0,-625 -425,-966 Q 3088,0 2303,0 H 628 Z"
                 transform="scale(0.015625)" />
              <path
                 id="path576311"
                 d="m 1959,3097 q -462,0 -731,-361 -269,-361 -269,-989 0,-628 267,-989 268,-361 733,-361 460,0 728,362 269,363 269,988 0,622 -269,986 -268,364 -728,364 z m 0,487 q 750,0 1178,-488 429,-487 429,-1349 Q 3566,888 3137,398 2709,-91 1959,-91 1206,-91 779,398 353,888 353,1747 q 0,862 426,1349 427,488 1180,488 z"
                 transform="scale(0.015625)" />
              <path
                 id="path576313"
                 d="m 2631,2963 q -97,56 -211,82 -114,27 -251,27 -488,0 -749,-317 -261,-317 -261,-911 V 0 H 581 v 3500 h 578 v -544 q 182,319 472,473 291,155 707,155 59,0 131,-8 72,-7 159,-23 z"
                 transform="scale(0.015625)" />
              <path
                 id="path576315"
                 d="M 3513,2113 V 0 h -575 v 2094 q 0,497 -194,743 -194,247 -581,247 -466,0 -735,-297 -269,-296 -269,-809 V 0 H 581 v 3500 h 578 v -544 q 207,316 486,472 280,156 646,156 603,0 912,-373 310,-373 310,-1098 z"
                 transform="scale(0.015625)" />
              <path
                 id="path576317"
                 d="M 3597,1894 V 1613 H 953 q 38,-594 358,-905 320,-311 892,-311 331,0 642,81 311,81 618,244 V 178 Q 3153,47 2828,-22 2503,-91 2169,-91 1331,-91 842,396 353,884 353,1716 q 0,859 464,1363 464,505 1252,505 706,0 1117,-455 411,-454 411,-1235 z m -575,169 q -6,471 -264,752 -258,282 -683,282 -481,0 -770,-272 -289,-272 -333,-766 z"
                 transform="scale(0.015625)" />
              <path
                 id="path576319"
                 d="m 2194,1759 q -697,0 -966,-159 -269,-159 -269,-544 0,-306 202,-486 202,-179 548,-179 479,0 768,339 289,339 289,901 v 128 z m 1147,238 V 0 H 2766 V 531 Q 2569,213 2275,61 1981,-91 1556,-91 q -537,0 -855,302 -317,302 -317,808 0,590 395,890 396,300 1180,300 h 807 v 57 q 0,397 -261,614 -261,217 -733,217 -300,0 -585,-72 -284,-72 -546,-216 v 532 q 315,122 612,182 297,61 578,61 760,0 1135,-394 375,-393 375,-1193 z"
                 transform="scale(0.015625)" />
            </defs>
            <use
               xlink:href="#DejaVuSans-42"
               id="use113917"
               style="stroke-linecap:butt;stroke-linejoin:round" />
            <use
               xlink:href="#DejaVuSans-6f"
               x="68.603516"
               id="use113919"
               style="stroke-linecap:butt;stroke-linejoin:round" />
            <use
               xlink:href="#DejaVuSans-72"
               x="129.78516"
               id="use113921"
               style="stroke-linecap:butt;stroke-linejoin:round" />
            <use
               xlink:href="#DejaVuSans-6e"
               x="169.14844"
               id="use113923"
               style="stroke-linecap:butt;stroke-linejoin:round" />
            <use
               xlink:href="#DejaVuSans-65"
               x="232.52734"
               id="use113925"
               style="stroke-linecap:butt;stroke-linejoin:round" />
            <use
               xlink:href="#DejaVuSans-61"
               x="294.05078"
               id="use113927"
               style="stroke-linecap:butt;stroke-linejoin:round" />
            <use
               xlink:href="#DejaVuSans-6e"
               x="355.33008"
               id="use113929"
               style="stroke-linecap:butt;stroke-linejoin:round" />
          </g>
        </g>
      </g>
      <g
         id="xtick_2"
         style="stroke-linecap:butt;stroke-linejoin:round"
         transform="matrix(1.0652347,0,0,1.0652347,-37.761599,-14.457206)">
        <g
           id="line2d_2"
           style="stroke-linecap:butt;stroke-linejoin:round" />
        <g
           id="text_2"
           style="stroke-linecap:butt;stroke-linejoin:round">
          <!-- Sumatran -->
          <g
             transform="matrix(0.1,0,0,-0.1,154.55742,229.04031)"
             id="g113958"
             style="stroke-linecap:butt;stroke-linejoin:round">
            <defs
               id="defs113940">
              <path
                 id="path576333"
                 d="m 3425,4513 v -616 q -359,172 -678,256 -319,85 -616,85 -515,0 -795,-200 -280,-200 -280,-569 0,-310 186,-468 186,-157 705,-254 l 381,-78 q 706,-135 1042,-474 336,-339 336,-907 0,-679 -455,-1029 -454,-350 -1332,-350 -331,0 -705,75 -373,75 -773,222 v 650 q 384,-215 753,-325 369,-109 725,-109 540,0 834,212 294,213 294,607 0,343 -211,537 -211,194 -692,291 l -385,75 q -706,140 -1022,440 -315,300 -315,835 0,619 436,975 436,356 1201,356 329,0 669,-60 341,-59 697,-177 z"
                 transform="scale(0.015625)" />
              <path
                 id="path576335"
                 d="m 544,1381 v 2119 h 575 V 1403 q 0,-497 193,-746 194,-248 582,-248 465,0 735,297 271,297 271,810 v 1984 h 575 V 0 H 2900 V 538 Q 2691,219 2414,64 2138,-91 1772,-91 1169,-91 856,284 544,659 544,1381 Z m 1447,2203 z"
                 transform="scale(0.015625)" />
              <path
                 id="path576337"
                 d="m 3328,2828 q 216,388 516,572 300,184 706,184 547,0 844,-383 297,-382 297,-1088 V 0 h -578 v 2094 q 0,503 -179,746 -178,244 -543,244 -447,0 -707,-297 -259,-296 -259,-809 V 0 h -578 v 2094 q 0,506 -178,748 -178,242 -550,242 -441,0 -701,-298 -259,-298 -259,-808 V 0 H 581 v 3500 h 578 v -544 q 197,322 472,475 275,153 653,153 382,0 649,-194 267,-193 395,-562 z"
                 transform="scale(0.015625)" />
              <path
                 id="path576339"
                 d="M 1172,4494 V 3500 H 2356 V 3053 H 1172 V 1153 q 0,-428 117,-550 117,-122 477,-122 h 590 V 0 H 1766 Q 1100,0 847,248 594,497 594,1153 V 3053 H 172 v 447 h 422 v 994 z"
                 transform="scale(0.015625)" />
            </defs>
            <use
               xlink:href="#DejaVuSans-53"
               id="use113942"
               style="stroke-linecap:butt;stroke-linejoin:round" />
            <use
               xlink:href="#DejaVuSans-75"
               x="63.476562"
               id="use113944"
               style="stroke-linecap:butt;stroke-linejoin:round" />
            <use
               xlink:href="#DejaVuSans-6d"
               x="126.85547"
               id="use113946"
               style="stroke-linecap:butt;stroke-linejoin:round" />
            <use
               xlink:href="#DejaVuSans-61"
               x="224.26758"
               id="use113948"
               style="stroke-linecap:butt;stroke-linejoin:round" />
            <use
               xlink:href="#DejaVuSans-74"
               x="285.54688"
               id="use113950"
               style="stroke-linecap:butt;stroke-linejoin:round" />
            <use
               xlink:href="#DejaVuSans-72"
               x="324.75586"
               id="use113952"
               style="stroke-linecap:butt;stroke-linejoin:round" />
            <use
               xlink:href="#DejaVuSans-61"
               x="365.86914"
               id="use113954"
               style="stroke-linecap:butt;stroke-linejoin:round" />
            <use
               xlink:href="#DejaVuSans-6e"
               x="427.14844"
               id="use113956"
               style="stroke-linecap:butt;stroke-linejoin:round" />
          </g>
        </g>
      </g>
    </g>
    <path
       d="m 109.68996,52.228375 1,0.03144 1,0.03694 1,0.09775 1,0.03252 1,0.07362 1,0.03856 1,0.03541 1,0.05764 1,0.07039 1,0.05196 1,0.05909 1,0.08832 1,0.04615 1,0.04241 1,0.03049 1,0.02605 1,0.0212 1,0.0543 1,0.02794 1,0.02972 1,0.02539 1,0.0112 1,0.01012 1,-2.04e-4 1,-0.0095 1,-0.01165 1,-0.03103 1,-0.01117 1,-0.03012 1,-0.05978 1,-0.03719 1,-0.0391 1,-0.04244 1,-0.03276 1,-0.06743 1,-0.03913 1,-0.04267 1,-0.07058 1,-0.03639 1,-0.0584 1,-0.110953 1,-0.07066 1,-0.11294 1,-0.04577 1,-0.06128 1,-0.0485 1,-0.08082 1,-0.118519 1,-0.07021 1,-0.08326 1,-0.03314 1,-0.05124 1,-0.0684 1,-0.06621 1,-0.07692 1,-0.02732 1,-0.02648 1,-0.02265 1,-0.01953 1.01852,-0.02639"
       clip-path="url(#pf7c8d50d41)"
       style="fill:none;stroke:#ffffff;stroke-width:3;stroke-linecap:round;stroke-linejoin:round"
       id="path113963" />
    <path
       d="m 109.68996,52.228375 1,0.03144 1,0.03694 1,0.09775 1,0.03252 1,0.07362 1,0.03856 1,0.03541 1,0.05764 1,0.07039 1,0.05196 1,0.05909 1,0.08832 1,0.04615 1,0.04241 1,0.03049 1,0.02605 1,0.0212 1,0.0543 1,0.02794 1,0.02972 1,0.02539 1,0.0112 1,0.01012 1,-2.04e-4 1,-0.0095 1,-0.01165 1,-0.03103 1,-0.01117 1,-0.03012 1,-0.05978 1,-0.03719 1,-0.0391 1,-0.04244 1,-0.03276 1,-0.06743 1,-0.03913 1,-0.04267 1,-0.07058 1,-0.03639 1,-0.0584 1,-0.110953 1,-0.07066 1,-0.11294 1,-0.04577 1,-0.06128 1,-0.0485 1,-0.08082 1,-0.118519 1,-0.07021 1,-0.08326 1,-0.03314 1,-0.05124 1,-0.0684 1,-0.06621 1,-0.07692 1,-0.02732 1,-0.02648 1,-0.02265 1,-0.01953 1.01852,-0.02639"
       clip-path="url(#pf7c8d50d41)"
       style="fill:none;stroke:#1e75b3;stroke-linecap:round;stroke-linejoin:round;stroke-opacity:1"
       id="path113965" />
    <path
       d="m 165.70848,50.228375 0.88037,0.475331 0.87791,0.480254 0.85071,0.534641 1.30218,0.687447 -0.92736,0.02602 -0.91167,0.41272 -0.91027,0.415539 -1.34249,0.606804 0.6549,-0.638751 0.052,-1 0.0591,-2 z"
       clip-path="url(#pf7c8d50d41)"
       style="fill:#ffffff;stroke:#ffffff;stroke-width:3;stroke-linecap:round;stroke-linejoin:round"
       id="path113967" />
    <path
       d="m 165.70848,50.228375 0.88037,0.475331 0.87791,0.480254 0.85071,0.534641 1.30218,0.687447 -0.92736,0.02602 -0.91167,0.41272 -0.91027,0.415539 -1.34249,0.606804 0.6549,-0.638751 0.052,-1 0.0591,-2 z"
       clip-path="url(#pf7c8d50d41)"
       style="fill:#ffffff;stroke:#1e75b3;stroke-linecap:round;stroke-linejoin:round;stroke-opacity:1"
       id="path113969" />
    <path
       d="m 159.16258,166.911 -2,-1 v 2 z"
       clip-path="url(#pf7c8d50d41)"
       style="fill:#1e75b3;fill-opacity:0.5;stroke:#1e75b3;stroke-linecap:butt;stroke-linejoin:miter;stroke-opacity:0.5"
       id="path113971" />
    <path
       d="m 166.0601,122.59975 -2,-1 v 2 z"
       clip-path="url(#pf7c8d50d41)"
       style="fill:#1e75b3;fill-opacity:0.5;stroke:#1e75b3;stroke-linecap:butt;stroke-linejoin:miter;stroke-opacity:0.5"
       id="path113973" />
    <path
       d="m 164.94179,131.23572 -2,-1 v 2 z"
       clip-path="url(#pf7c8d50d41)"
       style="fill:#1e75b3;fill-opacity:0.5;stroke:#1e75b3;stroke-linecap:butt;stroke-linejoin:miter;stroke-opacity:0.5"
       id="path113975" />
    <path
       d="m 166.89443,115.63964 -2,-1 v 2 z"
       clip-path="url(#pf7c8d50d41)"
       style="fill:#1e75b3;fill-opacity:0.5;stroke:#1e75b3;stroke-linecap:butt;stroke-linejoin:miter;stroke-opacity:0.5"
       id="path113977" />
    <path
       d="m 168.90482,96.591963 -2,-1 v 2 z"
       clip-path="url(#pf7c8d50d41)"
       style="fill:#1e75b3;fill-opacity:0.5;stroke:#1e75b3;stroke-linecap:butt;stroke-linejoin:miter;stroke-opacity:0.5"
       id="path113979" />
    <path
       d="m 156.64617,179.22054 -2,-1 v 2 z"
       clip-path="url(#pf7c8d50d41)"
       style="fill:#1e75b3;fill-opacity:0.5;stroke:#1e75b3;stroke-linecap:butt;stroke-linejoin:miter;stroke-opacity:0.5"
       id="path113981" />
    <path
       d="m 159.98531,162.53815 -2,-1 v 2 z"
       clip-path="url(#pf7c8d50d41)"
       style="fill:#1e75b3;fill-opacity:0.5;stroke:#1e75b3;stroke-linecap:butt;stroke-linejoin:miter;stroke-opacity:0.5"
       id="path113983" />
    <path
       d="m 171.42605,66.153618 -2,-1 v 2 z"
       clip-path="url(#pf7c8d50d41)"
       style="fill:#1e75b3;fill-opacity:0.5;stroke:#1e75b3;stroke-linecap:butt;stroke-linejoin:miter;stroke-opacity:0.5"
       id="path113985" />
    <path
       d="m 167.42031,110.99303 -2,-1 v 2 z"
       clip-path="url(#pf7c8d50d41)"
       style="fill:#1e75b3;fill-opacity:0.5;stroke:#1e75b3;stroke-linecap:butt;stroke-linejoin:miter;stroke-opacity:0.5"
       id="path113987" />
    <path
       d="m 158.97566,167.87869 -2,-1 v 2 z"
       clip-path="url(#pf7c8d50d41)"
       style="fill:#1e75b3;fill-opacity:0.5;stroke:#1e75b3;stroke-linecap:butt;stroke-linejoin:miter;stroke-opacity:0.5"
       id="path113989" />
    <path
       d="m 100.41161,212.0228 2,1 v -2 z"
       clip-path="url(#pf7c8d50d41)"
       style="fill:#ff7f0f;fill-opacity:0.5;stroke:#ff7f0f;stroke-linecap:butt;stroke-linejoin:miter;stroke-opacity:0.5"
       id="path113991" />
    <path
       d="m 101.6892,74.079475 2,1 v -2 z"
       clip-path="url(#pf7c8d50d41)"
       style="fill:#ff7f0f;fill-opacity:0.5;stroke:#ff7f0f;stroke-linecap:butt;stroke-linejoin:miter;stroke-opacity:0.5"
       id="path113993" />
    <path
       d="m 101.8619,56.978426 2,1 v -2 z"
       clip-path="url(#pf7c8d50d41)"
       style="fill:#ff7f0f;fill-opacity:0.5;stroke:#ff7f0f;stroke-linecap:butt;stroke-linejoin:miter;stroke-opacity:0.5"
       id="path113995" />
    <path
       d="m 100.61897,188.12164 2,1 v -2 z"
       clip-path="url(#pf7c8d50d41)"
       style="fill:#ff7f0f;fill-opacity:0.5;stroke:#ff7f0f;stroke-linecap:butt;stroke-linejoin:miter;stroke-opacity:0.5"
       id="path113997" />
    <path
       d="m 100.84238,163.07209 2,1 v -2 z"
       clip-path="url(#pf7c8d50d41)"
       style="fill:#ff7f0f;fill-opacity:0.5;stroke:#ff7f0f;stroke-linecap:butt;stroke-linejoin:miter;stroke-opacity:0.5"
       id="path113999" />
    <path
       d="m 100.4247,210.49445 2,1 v -2 z"
       clip-path="url(#pf7c8d50d41)"
       style="fill:#ff7f0f;fill-opacity:0.5;stroke:#ff7f0f;stroke-linecap:butt;stroke-linejoin:miter;stroke-opacity:0.5"
       id="path114001" />
    <path
       d="m 101.88501,54.715201 2,1 v -2 z"
       clip-path="url(#pf7c8d50d41)"
       style="fill:#ff7f0f;fill-opacity:0.5;stroke:#ff7f0f;stroke-linecap:butt;stroke-linejoin:miter;stroke-opacity:0.5"
       id="path114003" />
    <path
       d="m 101.67005,75.995694 2,1 v -2 z"
       clip-path="url(#pf7c8d50d41)"
       style="fill:#ff7f0f;fill-opacity:0.5;stroke:#ff7f0f;stroke-linecap:butt;stroke-linejoin:miter;stroke-opacity:0.5"
       id="path114005" />
    <path
       d="m 101.30548,113.3008 2,1 v -2 z"
       clip-path="url(#pf7c8d50d41)"
       style="fill:#ff7f0f;fill-opacity:0.5;stroke:#ff7f0f;stroke-linecap:butt;stroke-linejoin:miter;stroke-opacity:0.5"
       id="path114007" />
    <path
       d="m 101.61246,81.785055 2,1 v -2 z"
       clip-path="url(#pf7c8d50d41)"
       style="fill:#ff7f0f;fill-opacity:0.5;stroke:#ff7f0f;stroke-linecap:butt;stroke-linejoin:miter;stroke-opacity:0.5"
       id="path114009" />
  </g>
</svg>
