<?xml version="1.0" encoding="UTF-8" standalone="no"?>
<svg
   version="1.1"
   viewBox="0.0 0.0 816.496062992126 428.86614173228344"
   fill="none"
   stroke="none"
   stroke-linecap="square"
   stroke-miterlimit="10"
   id="svg403"
   sodipodi:docname="proposed_approach_1.svg"
   inkscape:version="1.3.2 (1:1.3.2+202311252150+091e20ef0f)"
   xmlns:inkscape="http://www.inkscape.org/namespaces/inkscape"
   xmlns:sodipodi="http://sodipodi.sourceforge.net/DTD/sodipodi-0.dtd"
   xmlns="http://www.w3.org/2000/svg"
   xmlns:svg="http://www.w3.org/2000/svg">
  <defs
     id="defs403" />
  <sodipodi:namedview
     id="namedview403"
     pagecolor="#ffffff"
     bordercolor="#000000"
     borderopacity="0.25"
     inkscape:showpageshadow="2"
     inkscape:pageopacity="0.0"
     inkscape:pagecheckerboard="0"
     inkscape:deskcolor="#d1d1d1"
     inkscape:zoom="0.46984849"
     inkscape:cx="422.47661"
     inkscape:cy="233.05385"
     inkscape:window-width="1223"
     inkscape:window-height="774"
     inkscape:window-x="57"
     inkscape:window-y="26"
     inkscape:window-maximized="1"
     inkscape:current-layer="g403" />
  <clipPath
     id="p.0">
    <path
       d="m0 0l816.49603 0l0 428.86615l-816.49603 0l0 -428.86615z"
       clip-rule="nonzero"
       id="path1" />
  </clipPath>
  <g
     clip-path="url(#p.0)"
     id="g403">
    <path
       fill="#000000"
       fill-opacity="0.0"
       d="m0 0l816.49603 0l0 428.86615l-816.49603 0z"
       fill-rule="evenodd"
       id="path2" />
    <path
       fill="#000000"
       fill-opacity="0.0"
       d="m-3.519685 -9.528344l156.85039 0l0 53.322834l-156.85039 0z"
       fill-rule="evenodd"
       id="path392" />
    <path
       fill="#000000"
       d="m42.620354 26.351654l0 -20.046875l4.046875 0l0 20.046875l-4.046875 0zm21.076172 0l-3.84375 0l0 -7.40625q0 -2.359375 -0.25 -3.046876q-0.234375 -0.6875 -0.796875 -1.0625q-0.546875 -0.390625 -1.328125 -0.390625q-1.0 0 -1.796875 0.546875q-0.796875 0.546875 -1.09375 1.453126q-0.28125 0.890625 -0.28125 3.328125l0 6.578125l-3.84375 0l0 -14.515626l3.5625 0l0 2.125q1.90625 -2.453125 4.796875 -2.453125q1.265625 0 2.3125 0.453125q1.0625 0.453125 1.59375 1.171875q0.546875 0.703125 0.75 1.609375q0.21875 0.90625 0.21875 2.578126l0 9.03125zm3.7910156 -14.515626l3.578125 0l0 2.125q0.703125 -1.09375 1.890625 -1.765625q1.1875 -0.6875 2.640625 -0.6875q2.515625 0 4.28125 1.984375q1.765625 1.96875 1.765625 5.515626q0 3.640625 -1.78125 5.65625q-1.765625 2.015625 -4.296875 2.015625q-1.203125 0 -2.1875 -0.46875q-0.96875 -0.484375 -2.046875 -1.65625l0 7.328125l-3.84375 0l0 -20.046875zm3.796875 7.015626q0 2.4375 0.96875 3.609375q0.96875 1.171875 2.359375 1.171875q1.34375 0 2.234375 -1.078125q0.890625 -1.078125 0.890625 -3.515625q0 -2.28125 -0.921875 -3.390626q-0.90625 -1.109375 -2.265625 -1.109375q-1.40625 0 -2.34375 1.09375q-0.921875 1.078126 -0.921875 3.218751zm22.96289 7.5l0 -2.171875q-0.78125 1.15625 -2.078125 1.828125q-1.296875 0.671875 -2.734375 0.671875q-1.453125 0 -2.625 -0.640625q-1.15625 -0.640625 -1.6875 -1.796875q-0.515625 -1.171875 -0.515625 -3.21875l0 -9.187501l3.84375 0l0 6.671876q0 3.0625 0.203125 3.75q0.21875 0.6875 0.78125 1.09375q0.5625 0.40625 1.421875 0.40625q0.984375 0 1.765625 -0.53125q0.78125 -0.546875 1.0625 -1.34375q0.296875 -0.8125 0.296875 -3.921875l0 -6.125001l3.84375 0l0 14.515626l-3.578125 0zm14.212891 -14.515626l0 3.0625l-2.625 0l0 5.843751q0 1.78125 0.0625 2.078125q0.078125 0.296875 0.34375 0.484375q0.28125 0.1875 0.65625 0.1875q0.53125 0 1.546875 -0.375l0.328125 2.984375q-1.34375 0.578125 -3.03125 0.578125q-1.046875 0 -1.890625 -0.34375q-0.828125 -0.359375 -1.21875 -0.90625q-0.375 -0.5625 -0.53125 -1.5q-0.125 -0.671875 -0.125 -2.703125l0 -6.328126l-1.765625 0l0 -3.0625l1.765625 0l0 -2.890625l3.859375 -2.2343745l0 5.1249995l2.625 0z"
       fill-rule="nonzero"
       id="path393" />
    <path
       fill="#000000"
       fill-opacity="0.0"
       d="m190.28346 -9.528344l156.85039 0l0 53.322834l-156.85039 0z"
       fill-rule="evenodd"
       id="path394" />
    <path
       fill="#000000"
       d="m238.8405 18.976654l0 -3.375001l8.71875 0l0 7.984376q-1.265625 1.234375 -3.6875 2.171875q-2.40625 0.9375 -4.875 0.9375q-3.140625 0 -5.484375 -1.3125q-2.34375 -1.328125 -3.515625 -3.78125q-1.171875 -2.453125 -1.171875 -5.34375q0 -3.125001 1.3125 -5.562501q1.3125 -2.4375 3.84375 -3.7343745q1.921875 -1.0 4.796875 -1.0q3.734375 0 5.828125 1.578125q2.09375 1.5624995 2.703125 4.3124995l-4.015625 0.765625q-0.4375 -1.484375 -1.609375 -2.328125q-1.15625 -0.859375 -2.90625 -0.859375q-2.65625 0 -4.21875 1.6875q-1.5625 1.671875 -1.5625 4.984376q0 3.5625 1.578125 5.34375q1.59375 1.78125 4.15625 1.78125q1.28125 0 2.546875 -0.484375q1.28125 -0.5 2.203125 -1.21875l0 -2.546875l-4.640625 0zm20.841782 2.75l3.828125 0.640625q-0.734375 2.109375 -2.328125 3.21875q-1.59375 1.09375 -3.984375 1.09375q-3.7968597 0 -5.6093597 -2.46875q-1.4375 -1.984375 -1.4375 -5.015625q0 -3.609376 1.875 -5.640626q1.890625 -2.046875 4.7812347 -2.046875q3.234375 0 5.109375 2.140625q1.875 2.140625 1.796875 6.546876l-9.624985 0q0.046875 1.71875 0.921875 2.671875q0.890625 0.9375 2.2187347 0.9375q0.90625 0 1.515625 -0.484375q0.625 -0.5 0.9375 -1.59375zm0.21875 -3.875q-0.046875 -1.671875 -0.875 -2.531251q-0.8125 -0.875 -1.984375 -0.875q-1.2656097 0 -2.0781097 0.90625q-0.828125 0.92187595 -0.8125 2.500001l5.7499847 0zm20.15039 8.5l-3.84375 0l0 -7.40625q0 -2.359375 -0.25 -3.046876q-0.234375 -0.6875 -0.796875 -1.0625q-0.546875 -0.390625 -1.328125 -0.390625q-1.0 0 -1.796875 0.546875q-0.796875 0.546875 -1.09375 1.453126q-0.28125 0.890625 -0.28125 3.328125l0 6.578125l-3.84375 0l0 -14.515626l3.5625 0l0 2.125q1.90625 -2.453125 4.796875 -2.453125q1.265625 0 2.3125 0.453125q1.0625 0.453125 1.59375 1.171875q0.546875 0.703125 0.75 1.609375q0.21875 0.90625 0.21875 2.578126l0 9.03125zm21.99414 0l-4.40625 0l-1.75 -4.546875l-8.0 0l-1.65625 4.546875l-4.296875 0l7.8125 -20.046875l4.28125 0l8.015625 20.046875zm-7.453125 -7.9375l-2.75 -7.437501l-2.71875 7.437501l5.46875 0zm9.486328 7.9375l0 -20.046875l4.046875 0l0 20.046875l-4.046875 0z"
       fill-rule="nonzero"
       id="path395" />
    <path
       fill="#000000"
       fill-opacity="0.0"
       d="m428.1811 -9.528344l156.8504 0l0 53.322834l-156.8504 0z"
       fill-rule="evenodd"
       id="path396" />
    <path
       fill="#000000"
       d="m461.9559 16.445404q0 -3.062501 0.921875 -5.140626q0.671875 -1.53125 1.859375 -2.734375q1.1875 -1.2187495 2.59375 -1.8124995q1.875 -0.796875 4.3125 -0.796875q4.4375 0 7.09375 2.7499995q2.65625 2.75 2.65625 7.640626q0 4.859375 -2.640625 7.609375q-2.640625 2.734375 -7.046875 2.734375q-4.46875 0 -7.109375 -2.71875q-2.640625 -2.734375 -2.640625 -7.53125zm4.171875 -0.125q0 3.40625 1.5625 5.15625q1.578125 1.75 4.0 1.75q2.421875 0 3.96875 -1.734375q1.546875 -1.75 1.546875 -5.234375q0 -3.437501 -1.515625 -5.125001q-1.5 -1.703125 -4.0 -1.703125q-2.5 0 -4.03125 1.71875q-1.53125 1.703125 -1.53125 5.171876zm27.951172 10.03125l0 -2.171875q-0.78125 1.15625 -2.078125 1.828125q-1.296875 0.671875 -2.734375 0.671875q-1.453125 0 -2.625 -0.640625q-1.15625 -0.640625 -1.6875 -1.796875q-0.515625 -1.171875 -0.515625 -3.21875l0 -9.187501l3.84375 0l0 6.671876q0 3.0625 0.203125 3.75q0.21875 0.6875 0.78125 1.09375q0.5625 0.40625 1.421875 0.40625q0.984375 0 1.765625 -0.53125q0.78125 -0.546875 1.0625 -1.34375q0.296875 -0.8125 0.296875 -3.921875l0 -6.125001l3.84375 0l0 14.515626l-3.578125 0zm14.212891 -14.515626l0 3.0625l-2.625 0l0 5.843751q0 1.78125 0.0625 2.078125q0.078125 0.296875 0.34375 0.484375q0.28125 0.1875 0.65625 0.1875q0.53125 0 1.546875 -0.375l0.328125 2.984375q-1.34375 0.578125 -3.03125 0.578125q-1.046875 0 -1.890625 -0.34375q-0.828125 -0.359375 -1.21875 -0.90625q-0.375 -0.5625 -0.53125 -1.5q-0.125 -0.671875 -0.125 -2.703125l0 -6.328126l-1.765625 0l0 -3.0625l1.765625 0l0 -2.890625l3.859375 -2.2343745l0 5.1249995l2.625 0zm2.5585938 0l3.5781555 0l0 2.125q0.703125 -1.09375 1.890625 -1.765625q1.1875 -0.6875 2.640625 -0.6875q2.515625 0 4.28125 1.984375q1.765625 1.96875 1.765625 5.515626q0 3.640625 -1.78125 5.65625q-1.765625 2.015625 -4.296875 2.015625q-1.203125 0 -2.1875 -0.46875q-0.96875 -0.484375 -2.046875 -1.65625l0 7.328125l-3.8437805 0l0 -20.046875zm3.7969055 7.015626q0 2.4375 0.96875 3.609375q0.96875 1.171875 2.359375 1.171875q1.34375 0 2.234375 -1.078125q0.890625 -1.078125 0.890625 -3.515625q0 -2.28125 -0.921875 -3.390626q-0.90625 -1.109375 -2.265625 -1.109375q-1.40625 0 -2.34375 1.09375q-0.921875 1.078126 -0.921875 3.218751zm22.96289 7.5l0 -2.171875q-0.78125 1.15625 -2.078125 1.828125q-1.296875 0.671875 -2.734375 0.671875q-1.453125 0 -2.625 -0.640625q-1.15625 -0.640625 -1.6875 -1.796875q-0.515625 -1.171875 -0.515625 -3.21875l0 -9.187501l3.84375 0l0 6.671876q0 3.0625 0.203125 3.75q0.21875 0.6875 0.78125 1.09375q0.5625 0.40625 1.421875 0.40625q0.984375 0 1.765625 -0.53125q0.78125 -0.546875 1.0625 -1.34375q0.296875 -0.8125 0.296875 -3.921875l0 -6.125001l3.84375 0l0 14.515626l-3.578125 0zm14.212891 -14.515626l0 3.0625l-2.625 0l0 5.843751q0 1.78125 0.0625 2.078125q0.078125 0.296875 0.34375 0.484375q0.28125 0.1875 0.65625 0.1875q0.53125 0 1.546875 -0.375l0.328125 2.984375q-1.34375 0.578125 -3.03125 0.578125q-1.046875 0 -1.890625 -0.34375q-0.828125 -0.359375 -1.21875 -0.90625q-0.375 -0.5625 -0.53125 -1.5q-0.125 -0.671875 -0.125 -2.703125l0 -6.328126l-1.765625 0l0 -3.0625l1.765625 0l0 -2.890625l3.859375 -2.2343745l0 5.1249995l2.625 0z"
       fill-rule="nonzero"
       id="path397" />
  </g>
</svg>
