<?xml version="1.0" encoding="UTF-8" standalone="no"?>
<svg
   version="1.1"
   viewBox="0.0 0.0 816.496062992126 428.86614173228344"
   fill="none"
   stroke="none"
   stroke-linecap="square"
   stroke-miterlimit="10"
   id="svg403"
   sodipodi:docname="proposed_approach_2.svg"
   inkscape:version="1.3.2 (1:1.3.2+202311252150+091e20ef0f)"
   xmlns:inkscape="http://www.inkscape.org/namespaces/inkscape"
   xmlns:sodipodi="http://sodipodi.sourceforge.net/DTD/sodipodi-0.dtd"
   xmlns="http://www.w3.org/2000/svg"
   xmlns:svg="http://www.w3.org/2000/svg">
  <defs
     id="defs403" />
  <sodipodi:namedview
     id="namedview403"
     pagecolor="#ffffff"
     bordercolor="#000000"
     borderopacity="0.25"
     inkscape:showpageshadow="2"
     inkscape:pageopacity="0.0"
     inkscape:pagecheckerboard="0"
     inkscape:deskcolor="#d1d1d1"
     inkscape:zoom="0.46984849"
     inkscape:cx="422.47661"
     inkscape:cy="233.05385"
     inkscape:window-width="1223"
     inkscape:window-height="774"
     inkscape:window-x="57"
     inkscape:window-y="26"
     inkscape:window-maximized="1"
     inkscape:current-layer="g403" />
  <clipPath
     id="p.0">
    <path
       d="m0 0l816.49603 0l0 428.86615l-816.49603 0l0 -428.86615z"
       clip-rule="nonzero"
       id="path1" />
  </clipPath>
  <g
     clip-path="url(#p.0)"
     id="g403">
    <path
       fill="#000000"
       fill-opacity="0.0"
       d="m0 0l816.49603 0l0 428.86615l-816.49603 0z"
       fill-rule="evenodd"
       id="path2" />
    <path
       fill="#fce5cd"
       d="m202.4252 128.5867l0 0c0 -9.909439 8.033173 -17.94262 17.942612 -17.94262l96.68169 0c4.7586975 0 9.322449 1.8903732 12.687347 5.2552643c3.3648987 3.3648987 5.2552795 7.928673 5.2552795 12.687355l0 71.76831c0 9.909424 -8.033173 17.942612 -17.942627 17.942612l-96.68169 0l0 0c-9.909439 0 -17.942612 -8.033188 -17.942612 -17.942612z"
       fill-rule="evenodd"
       id="path5" />
    <path
       stroke="#e69138"
       stroke-width="4.0"
       stroke-linejoin="round"
       stroke-linecap="butt"
       d="m202.4252 128.5867l0 0c0 -9.909439 8.033173 -17.94262 17.942612 -17.94262l96.68169 0c4.7586975 0 9.322449 1.8903732 12.687347 5.2552643c3.3648987 3.3648987 5.2552795 7.928673 5.2552795 12.687355l0 71.76831c0 9.909424 -8.033173 17.942612 -17.942627 17.942612l-96.68169 0l0 0c-9.909439 0 -17.942612 -8.033188 -17.942612 -17.942612z"
       fill-rule="evenodd"
       id="path6" />
    <path
       fill="#000000"
       d="m248.11784 140.35085l-7.171875 -20.046875l4.390625 0l5.078125 14.84375l4.90625 -14.84375l4.2968597 0l-7.1874847 20.046875l-4.3125 0zm29.550766 0l-4.40625 0l-1.75 -4.546875l-8.0 0l-1.65625 4.546875l-4.296875 0l7.8125 -20.046875l4.28125 0l8.015625 20.046875zm-7.453125 -7.9375l-2.75 -7.4375l-2.71875 7.4375l5.46875 0zm9.595703 7.9375l0 -20.046875l14.875 0l0 3.390625l-10.828125 0l0 4.453125l10.0625 0l0 3.375l-10.0625 0l0 5.453125l11.203125 0l0 3.375l-15.25 0z"
       fill-rule="nonzero"
       id="path7" />
    <path
       fill="#000000"
       d="m255.83366 166.8821q0 -1.90625 0.93748474 -3.703125q0.953125 -1.796875 2.671875 -2.734375q1.734375 -0.9375 3.859375 -0.9375q3.296875 0 5.40625 2.140625q2.109375 2.140625 2.109375 5.40625q0 3.296875 -2.125 5.46875q-2.125 2.15625 -5.359375 2.15625q-2.0 0 -3.8125 -0.90625q-1.796875 -0.90625 -2.75 -2.640625q-0.93748474 -1.75 -0.93748474 -4.25zm3.9374847 0.203125q0 2.171875 1.015625 3.328125q1.03125 1.140625 2.53125 1.140625q1.515625 0 2.53125 -1.140625q1.015625 -1.15625 1.015625 -3.34375q0 -2.140625 -1.015625 -3.28125q-1.015625 -1.15625 -2.53125 -1.15625q-1.5 0 -2.53125 1.15625q-1.015625 1.140625 -1.015625 3.296875zm17.728516 7.265625l-3.84375 0l0 -14.515625l3.578125 0l0 2.0625q0.90625 -1.46875 1.640625 -1.921875q0.734375 -0.46875 1.65625 -0.46875q1.3125 0 2.53125 0.71875l-1.1875 3.34375q-0.96875 -0.625 -1.796875 -0.625q-0.8125 0 -1.375 0.453125q-0.5625 0.4375 -0.890625 1.609375q-0.3125 1.15625 -0.3125 4.859375l0 4.484375z"
       fill-rule="nonzero"
       id="path8" />
    <path
       fill="#000000"
       d="m238.88835 208.35085l0 -20.046875l13.75 0l0 3.390625l-9.703125 0l0 4.75l8.375 0l0 3.390625l-8.375 0l0 8.515625l-4.046875 0zm17.05664 0l0 -20.046875l3.8437347 0l0 20.046875l-3.8437347 0zm6.8886566 -7.46875q0 -1.90625 0.9375 -3.703125q0.953125 -1.796875 2.671875 -2.734375q1.734375 -0.9375 3.859375 -0.9375q3.296875 0 5.40625 2.140625q2.109375 2.140625 2.109375 5.40625q0 3.296875 -2.125 5.46875q-2.125 2.15625 -5.359375 2.15625q-2.0 0 -3.8125 -0.90625q-1.796875 -0.90625 -2.75 -2.640625q-0.9375 -1.75 -0.9375 -4.25zm3.9375 0.203125q0 2.171875 1.015625 3.328125q1.03125 1.140625 2.53125 1.140625q1.515625 0 2.53125 -1.140625q1.015625 -1.15625 1.015625 -3.34375q0 -2.140625 -1.015625 -3.28125q-1.015625 -1.15625 -2.53125 -1.15625q-1.5 0 -2.53125 1.15625q-1.015625 1.140625 -1.015625 3.296875zm16.759766 7.265625l-4.59375 -14.515625l3.734375 0l2.71875 9.515625l2.5 -9.515625l3.703125 0l2.421875 9.515625l2.78125 -9.515625l3.78125 0l-4.65625 14.515625l-3.703125 0l-2.5 -9.34375l-2.453125 9.34375l-3.734375 0z"
       fill-rule="nonzero"
       id="path9" />
    <path
       fill="#000000"
       fill-opacity="0.0"
       d="m190.28346 -9.528344l156.85039 0l0 53.322834l-156.85039 0z"
       fill-rule="evenodd"
       id="path394" />
    <path
       fill="#000000"
       fill-opacity="0.0"
       d="m428.1811 -9.528344l156.8504 0l0 53.322834l-156.8504 0z"
       fill-rule="evenodd"
       id="path396" />
  </g>
</svg>
