<?xml version="1.0" encoding="UTF-8" standalone="no"?>
<svg
   version="1.1"
   viewBox="0.0 0.0 816.496062992126 428.86614173228344"
   fill="none"
   stroke="none"
   stroke-linecap="square"
   stroke-miterlimit="10"
   id="svg403"
   sodipodi:docname="proposed_approach_3.svg"
   inkscape:version="1.3.2 (1:1.3.2+202311252150+091e20ef0f)"
   xmlns:inkscape="http://www.inkscape.org/namespaces/inkscape"
   xmlns:sodipodi="http://sodipodi.sourceforge.net/DTD/sodipodi-0.dtd"
   xmlns="http://www.w3.org/2000/svg"
   xmlns:svg="http://www.w3.org/2000/svg">
  <defs
     id="defs403" />
  <sodipodi:namedview
     id="namedview403"
     pagecolor="#ffffff"
     bordercolor="#000000"
     borderopacity="0.25"
     inkscape:showpageshadow="2"
     inkscape:pageopacity="0.0"
     inkscape:pagecheckerboard="0"
     inkscape:deskcolor="#d1d1d1"
     inkscape:zoom="0.46984849"
     inkscape:cx="422.47661"
     inkscape:cy="233.05385"
     inkscape:window-width="1223"
     inkscape:window-height="774"
     inkscape:window-x="57"
     inkscape:window-y="26"
     inkscape:window-maximized="1"
     inkscape:current-layer="g403" />
  <clipPath
     id="p.0">
    <path
       d="m0 0l816.49603 0l0 428.86615l-816.49603 0l0 -428.86615z"
       clip-rule="nonzero"
       id="path1" />
  </clipPath>
  <g
     clip-path="url(#p.0)"
     id="g403">
    <path
       fill="#000000"
       fill-opacity="0.0"
       d="m0 0l816.49603 0l0 428.86615l-816.49603 0z"
       fill-rule="evenodd"
       id="path2" />
    <path
       fill="#f3f3f3"
       d="m6.0341206 39.614456l132.56693 0l0 249.6378l-132.56693 0z"
       fill-rule="evenodd"
       id="path3" />
    <path
       stroke="#000000"
       stroke-width="4.0"
       stroke-linejoin="round"
       stroke-linecap="butt"
       d="m6.0341206 39.614456l132.56693 0l0 249.6378l-132.56693 0z"
       fill-rule="evenodd"
       id="path4" />
    <path
       fill="#000000"
       fill-opacity="0.0"
       d="m80.24147 110.76367l-29.346066 42.46689"
       fill-rule="evenodd"
       id="path48" />
    <path
       stroke="#000000"
       stroke-width="2.0"
       stroke-linejoin="round"
       stroke-linecap="butt"
       d="m75.93223 116.99961l-21.140217 30.59214"
       fill-rule="evenodd"
       id="path49" />
    <path
       fill="#000000"
       stroke="#000000"
       stroke-width="2.0"
       stroke-linecap="butt"
       d="m79.672966 111.58636c1.4948273 1.0329819 1.8692322 3.0821686 0.83625793 4.576996c-1.0329742 1.4948273 -3.0821686 1.8692322 -4.576996 0.83625793c-1.4948273 -1.0329819 -1.8692322 -3.0821686 -0.8362503 -4.576996c1.0329742 -1.4948273 3.082161 -1.8692322 4.576988 -0.83625793z"
       fill-rule="nonzero"
       id="path50" />
    <path
       fill="#000000"
       stroke="#000000"
       stroke-width="2.0"
       stroke-linecap="butt"
       d="m54.79201 147.59175l-0.57169724 -3.1289978l-1.6627235 6.362442l5.363426 -3.80513z"
       fill-rule="evenodd"
       id="path51" />
    <path
       fill="#000000"
       fill-opacity="0.0"
       d="m75.38981 110.720825l30.129784 42.595825"
       fill-rule="evenodd"
       id="path52" />
    <path
       stroke="#000000"
       stroke-width="2.0"
       stroke-linejoin="round"
       stroke-linecap="butt"
       d="m79.76708 116.90918l21.79438 30.811676"
       fill-rule="evenodd"
       id="path53" />
    <path
       fill="#000000"
       stroke="#000000"
       stroke-width="2.0"
       stroke-linecap="butt"
       d="m75.967285 111.537224c1.4834213 -1.0492859 3.5365906 -0.69734955 4.5858765 0.7860794c1.0492859 1.4834213 0.69734955 3.5365906 -0.7860718 4.5858765c-1.483429 1.0492859 -3.5365982 0.69734955 -4.585884 -0.7860718c-1.0492859 -1.483429 -0.69734955 -3.5365906 0.7860794 -4.585884z"
       fill-rule="nonzero"
       id="path54" />
    <path
       fill="#000000"
       stroke="#000000"
       stroke-width="2.0"
       stroke-linecap="butt"
       d="m101.56146 147.72086l-3.1350784 -0.53738403l5.4047775 3.74617l-1.7323151 -6.343857z"
       fill-rule="evenodd"
       id="path55" />
    <path
       fill="#cfe2f3"
       d="m16.64829 196.64032l14.252146 0l0 13.883408l-14.252146 0z"
       fill-rule="evenodd"
       id="path56" />
    <path
       stroke="#000000"
       stroke-width="1.0"
       stroke-linejoin="round"
       stroke-linecap="butt"
       d="m16.64829 196.64032l14.252146 0l0 13.883408l-14.252146 0z"
       fill-rule="evenodd"
       id="path57" />
    <path
       fill="#000000"
       d="m24.906199 208.10202l-1.0468731 0l0 -6.71875q-0.390625 0.359375 -1.015625 0.734375q-0.609375 0.359375 -1.09375 0.53125l0 -1.015625q0.875 -0.421875 1.53125 -1.0q0.671875 -0.59375 0.953125 -1.15625l0.6718731 0l0 8.625z"
       fill-rule="nonzero"
       id="path58" />
    <path
       fill="#000000"
       fill-opacity="0.0"
       d="m51.07874 153.24136l-29.142878 42.337936"
       fill-rule="evenodd"
       id="path59" />
    <path
       stroke="#000000"
       stroke-width="2.0"
       stroke-linejoin="round"
       stroke-linecap="butt"
       d="m46.78089 159.48515l-20.958723 30.448227"
       fill-rule="evenodd"
       id="path60" />
    <path
       fill="#000000"
       stroke="#000000"
       stroke-width="2.0"
       stroke-linecap="butt"
       d="m50.51174 154.06508c1.4967117 1.0302582 1.874855 3.0787506 0.8446121 4.57547c-1.0302467 1.4967041 -3.0787506 1.8748474 -4.5754623 0.8446045c-1.4967117 -1.0302429 -1.874855 -3.0787506 -0.8446083 -4.5754547c1.0302429 -1.4967194 3.0787468 -1.8748627 4.5754585 -0.84461975z"
       fill-rule="nonzero"
       id="path61" />
    <path
       fill="#000000"
       stroke="#000000"
       stroke-width="2.0"
       stroke-linecap="butt"
       d="m25.822168 189.93338l-0.57740784 -3.1279602l-1.6511059 6.3654785l5.356468 -3.8149261z"
       fill-rule="evenodd"
       id="path62" />
    <path
       fill="#000000"
       fill-opacity="0.0"
       d="m49.000023 152.22267l0 62.88365"
       fill-rule="evenodd"
       id="path63" />
    <path
       stroke="#000000"
       stroke-width="2.0"
       stroke-linejoin="round"
       stroke-linecap="butt"
       d="m49.00002 159.80267l0 48.44948"
       fill-rule="evenodd"
       id="path64" />
    <path
       fill="#000000"
       stroke="#000000"
       stroke-width="2.0"
       stroke-linecap="butt"
       d="m49.00002 153.22267c1.8170166 0 3.290001 1.4729767 3.290001 3.2899933c0 1.8170166 -1.4729843 3.2900085 -3.290001 3.2900085c-1.8170166 0 -3.289997 -1.472992 -3.289997 -3.2900085c0 -1.8170166 1.4729805 -3.2899933 3.289997 -3.2899933z"
       fill-rule="nonzero"
       id="path65" />
    <path
       fill="#000000"
       stroke="#000000"
       stroke-width="2.0"
       stroke-linecap="butt"
       d="m49.00002 208.25215l-2.2491646 -2.249176l2.2491646 6.179535l2.2491684 -6.179535z"
       fill-rule="evenodd"
       id="path66" />
    <path
       fill="#000000"
       fill-opacity="0.0"
       d="m104.73403 152.2123l16.951637 71.30826"
       fill-rule="evenodd"
       id="path67" />
    <path
       stroke="#000000"
       stroke-width="2.0"
       stroke-linejoin="round"
       stroke-linecap="butt"
       d="m106.48712 159.58678l13.613327 57.265427"
       fill-rule="evenodd"
       id="path68" />
    <path
       fill="#000000"
       stroke="#000000"
       stroke-width="2.0"
       stroke-linecap="butt"
       d="m104.96532 153.18518c1.7677536 -0.4202423 3.5414658 0.6721344 3.9617004 2.4398956c0.42023468 1.767746 -0.672142 3.5414734 -2.4398956 3.9617004c-1.7677536 0.4202423 -3.5414658 -0.6721344 -3.9617004 -2.4398956c-0.42023468 -1.767746 0.672142 -3.5414734 2.4398956 -3.9617004z"
       fill-rule="nonzero"
       id="path69" />
    <path
       fill="#000000"
       stroke="#000000"
       stroke-width="2.0"
       stroke-linecap="butt"
       d="m120.10045 216.8522l-2.708374 -1.6679993l3.6173782 5.491806l0.75899506 -6.532181z"
       fill-rule="evenodd"
       id="path70" />
    <path
       fill="#000000"
       fill-opacity="0.0"
       d="m106.73753 152.44347l-7.256691 31.291382"
       fill-rule="evenodd"
       id="path71" />
    <path
       stroke="#000000"
       stroke-width="2.0"
       stroke-linejoin="round"
       stroke-linecap="butt"
       d="m105.025116 159.82751l-3.9958344 17.230347"
       fill-rule="evenodd"
       id="path72" />
    <path
       fill="#000000"
       stroke="#000000"
       stroke-width="2.0"
       stroke-linecap="butt"
       d="m106.51162 153.41762c1.7700424 0.41047668 2.8721848 2.1781464 2.4617004 3.9481964c-0.41049194 1.7700348 -2.178154 2.8721771 -3.9481964 2.4616852c-1.7700424 -0.41047668 -2.8721848 -2.1781464 -2.4617004 -3.9481812c0.4104843 -1.77005 2.178154 -2.8721924 3.9481964 -2.4617004z"
       fill-rule="nonzero"
       id="path73" />
    <path
       fill="#000000"
       stroke="#000000"
       stroke-width="2.0"
       stroke-linecap="butt"
       d="m101.029274 177.05788l-1.6829071 -2.6991425l0.79499054 6.527893l3.5870514 -5.511673z"
       fill-rule="evenodd"
       id="path74" />
    <path
       fill="#000000"
       fill-opacity="0.0"
       d="m77.53051 212.53502l0 53.64238"
       fill-rule="evenodd"
       id="path75" />
    <path
       stroke="#000000"
       stroke-width="2.0"
       stroke-linejoin="round"
       stroke-linecap="butt"
       d="m77.53051 220.11502l0 39.20819"
       fill-rule="evenodd"
       id="path76" />
    <path
       fill="#000000"
       stroke="#000000"
       stroke-width="2.0"
       stroke-linecap="butt"
       d="m77.53051 213.53502c1.8170166 0 3.290001 1.472992 3.290001 3.2900085c0 1.8170166 -1.4729843 3.2899933 -3.290001 3.2899933c-1.8170166 0 -3.290001 -1.4729767 -3.290001 -3.2899933c0 -1.8170166 1.4729843 -3.2900085 3.290001 -3.2900085z"
       fill-rule="nonzero"
       id="path77" />
    <path
       fill="#000000"
       stroke="#000000"
       stroke-width="2.0"
       stroke-linecap="butt"
       d="m77.53051 259.3232l-2.2491684 -2.249176l2.2491684 6.1795654l2.2491684 -6.1795654z"
       fill-rule="evenodd"
       id="path78" />
    <path
       fill="#000000"
       fill-opacity="0.0"
       d="m47.028015 218.23361l28.620392 0"
       fill-rule="evenodd"
       id="path79" />
    <path
       stroke="#000000"
       stroke-width="2.0"
       stroke-linejoin="round"
       stroke-linecap="butt"
       stroke-dasharray="8.0,6.0"
       d="m54.608017 218.23361l14.186226 0"
       fill-rule="evenodd"
       id="path80" />
    <path
       fill="#000000"
       stroke="#000000"
       stroke-width="2.0"
       stroke-linecap="butt"
       d="m48.028015 218.23361c0 -1.8170166 1.4729843 -3.2899933 3.290001 -3.2899933c1.8170166 0 3.289997 1.4729767 3.289997 3.2899933c0 1.8170166 -1.4729805 3.2900085 -3.289997 3.2900085c-1.8170166 0 -3.290001 -1.472992 -3.290001 -3.2900085z"
       fill-rule="nonzero"
       id="path81" />
    <path
       fill="#000000"
       stroke="#000000"
       stroke-width="2.0"
       stroke-linecap="butt"
       d="m68.794235 218.23361l-2.2491608 2.249176l6.179535 -2.249176l-6.179535 -2.2491608z"
       fill-rule="evenodd"
       id="path82" />
    <path
       fill="#000000"
       fill-opacity="0.0"
       d="m100.243095 184.89024l-21.247597 30.947525"
       fill-rule="evenodd"
       id="path83" />
    <path
       stroke="#000000"
       stroke-width="2.0"
       stroke-linejoin="round"
       stroke-linecap="butt"
       stroke-dasharray="8.0,6.0"
       d="m95.95277 191.13919l-13.077751 19.047974"
       fill-rule="evenodd"
       id="path84" />
    <path
       fill="#000000"
       stroke="#000000"
       stroke-width="2.0"
       stroke-linecap="butt"
       d="m99.67709 185.71463c1.4979477 1.0284576 1.8785553 3.0764923 0.8501129 4.5744476c-1.0284424 1.4979401 -3.0764923 1.8785553 -4.57444 0.8501129c-1.4979477 -1.0284424 -1.8785553 -3.0764923 -0.8501129 -4.5744476c1.0284424 -1.4979401 3.0764923 -1.8785553 4.57444 -0.8501129z"
       fill-rule="nonzero"
       id="path85" />
    <path
       fill="#000000"
       stroke="#000000"
       stroke-width="2.0"
       stroke-linecap="butt"
       d="m82.875015 210.18718l-0.5811691 -3.1272583l-1.6434479 6.367462l5.3518753 -3.8213654z"
       fill-rule="evenodd"
       id="path86" />
    <path
       fill="#000000"
       fill-opacity="0.0"
       d="m55.512638 201.8688l16.951633 0l0 19.90097l-16.951633 0z"
       fill-rule="evenodd"
       id="path87" />
    <path
       fill="#000000"
       d="m55.965763 210.09317l0.9375 -0.125q0.15625 0.796875 0.546875 1.15625q0.390625 0.34375 0.9375 0.34375q0.65625 0 1.109375 -0.453125q0.46875 -0.46875 0.46875 -1.140625q0 -0.640625 -0.421875 -1.0625q-0.421875 -0.421875 -1.078125 -0.421875q-0.265625 0 -0.65625 0.109375l0.109375 -0.828125q0.09375 0.015625 0.140625 0.015625q0.59375 0 1.078125 -0.3125q0.484375 -0.3125 0.484375 -0.96875q0 -0.515625 -0.359375 -0.84375q-0.34375 -0.34375 -0.890625 -0.34375q-0.546875 0 -0.921875 0.34375q-0.359375 0.34375 -0.453125 1.03125l-0.9375 -0.171875q0.171875 -0.9375 0.78125 -1.453125q0.609375 -0.515625 1.5 -0.515625q0.625 0 1.15625 0.265625q0.53125 0.265625 0.796875 0.734375q0.28125 0.453125 0.28125 0.984375q0 0.484375 -0.265625 0.890625q-0.265625 0.40625 -0.78125 0.65625q0.671875 0.15625 1.046875 0.65625q0.375 0.484375 0.375 1.21875q0 1.0 -0.734375 1.703125q-0.71875 0.6875 -1.828125 0.6875q-1.0 0 -1.671875 -0.59375q-0.65625 -0.609375 -0.75 -1.5625zm6.0983734 -3.78125q0 -0.8125 0.40625 -1.390625q0.40625 -0.578125 1.1875 -0.578125q0.7187462 0 1.1874962 0.515625q0.46875 0.515625 0.46875 1.515625q0 0.96875 -0.484375 1.5q-0.46875 0.515625 -1.1562462 0.515625q-0.6875 0 -1.15625 -0.515625q-0.453125 -0.515625 -0.453125 -1.5625zm1.625 -1.3125q-0.34375 0 -0.578125 0.296875q-0.234375 0.296875 -0.234375 1.109375q0 0.734375 0.234375 1.03125q0.234375 0.296875 0.578125 0.296875q0.3593712 0 0.5781212 -0.296875q0.234375 -0.296875 0.234375 -1.109375q0 -0.734375 -0.234375 -1.03125q-0.234375 -0.296875 -0.5781212 -0.296875zm0 7.390625l4.171871 -8.046875l0.765625 0l-4.15625 8.046875l-0.7812462 0zm3.2968712 -2.078125q0 -0.8125 0.40625 -1.375q0.421875 -0.578125 1.203125 -0.578125q0.71875 0 1.1875 0.515625q0.46875 0.515625 0.46875 1.5q0 0.96875 -0.46875 1.5q-0.46875 0.515625 -1.171875 0.515625q-0.703125 0 -1.171875 -0.515625q-0.453125 -0.515625 -0.453125 -1.5625zm1.640625 -1.3125q-0.359375 0 -0.59375 0.3125q-0.21875 0.296875 -0.21875 1.09375q0 0.734375 0.234375 1.046875q0.234375 0.296875 0.578125 0.296875q0.359375 0 0.578125 -0.296875q0.234375 -0.3125 0.234375 -1.109375q0 -0.75 -0.234375 -1.046875q-0.234375 -0.296875 -0.578125 -0.296875z"
       fill-rule="nonzero"
       id="path88" />
    <path
       fill="#000000"
       fill-opacity="0.0"
       d="m70.25756 186.16425l22.84407 0l0 19.900986l-22.84407 0z"
       fill-rule="evenodd"
       id="path89" />
    <path
       fill="#000000"
       d="m70.835686 194.63863l0.90625 -0.078125q0.109375 0.625 0.4375 0.921875q0.328125 0.28125 0.828125 0.28125q0.421875 0 0.75 -0.1875q0.328125 -0.203125 0.53125 -0.53125q0.21875 -0.34375 0.359375 -0.890625q0.140625 -0.5625 0.140625 -1.15625q0 -0.0625 -0.015625 -0.1875q-0.28125 0.453125 -0.765625 0.734375q-0.484375 0.265625 -1.046875 0.265625q-0.953125 0 -1.609375 -0.671875q-0.65625 -0.6875 -0.65625 -1.8125q0 -1.171875 0.6875 -1.875q0.6875 -0.703125 1.71875 -0.703125q0.734375 0 1.34375 0.40625q0.625 0.390625 0.9375 1.140625q0.328125 0.734375 0.328125 2.140625q0 1.453125 -0.3125 2.328125q-0.3125 0.859375 -0.953125 1.3125q-0.625 0.453125 -1.46875 0.453125q-0.890625 0 -1.453125 -0.484375q-0.5625 -0.5 -0.6875 -1.40625zm3.84375 -3.359375q0 -0.8125 -0.4375 -1.28125q-0.421875 -0.484375 -1.03125 -0.484375q-0.625 0 -1.09375 0.515625q-0.453125 0.515625 -0.453125 1.328125q0 0.71875 0.4375 1.1875q0.4375 0.453125 1.078125 0.453125q0.65625 0 1.078125 -0.453125q0.421875 -0.46875 0.421875 -1.265625zm2.0046234 -1.5l0 -0.90625l4.9375 0l0 0.734375q-0.71875 0.765625 -1.4375 2.0625q-0.71875 1.28125 -1.109375 2.640625q-0.28125 0.953125 -0.359375 2.09375l-0.953125 0q0.015625 -0.90625 0.34375 -2.171875q0.34375 -1.28125 0.96875 -2.453125q0.640625 -1.1875 1.34375 -2.0l-3.734375 0zm6.0514984 0.828125q0 -0.8125 0.40625 -1.390625q0.40625 -0.578125 1.1875 -0.578125q0.71875 0 1.1875 0.515625q0.46875 0.515625 0.46875 1.515625q0 0.96875 -0.484375 1.5q-0.46875 0.515625 -1.15625 0.515625q-0.6875 0 -1.15625 -0.515625q-0.453125 -0.515625 -0.453125 -1.5625zm1.625 -1.3125q-0.34375 0 -0.578125 0.296875q-0.234375 0.296875 -0.234375 1.109375q0 0.734375 0.234375 1.03125q0.234375 0.296875 0.578125 0.296875q0.359375 0 0.578125 -0.296875q0.234375 -0.296875 0.234375 -1.109375q0 -0.734375 -0.234375 -1.03125q-0.234375 -0.296875 -0.578125 -0.296875zm0 7.390625l4.171875 -8.046875l0.765625 0l-4.15625 8.046875l-0.78125 0zm3.296875 -2.078125q0 -0.8125 0.40625 -1.375q0.421875 -0.578125 1.203125 -0.578125q0.71875 0 1.1875 0.515625q0.46875 0.515625 0.46875 1.5q0 0.96875 -0.46875 1.5q-0.46875 0.515625 -1.171875 0.515625q-0.703125 0 -1.171875 -0.515625q-0.453125 -0.515625 -0.453125 -1.5625zm1.640625 -1.3125q-0.359375 0 -0.59375 0.3125q-0.21875 0.296875 -0.21875 1.09375q0 0.734375 0.234375 1.046875q0.234375 0.296875 0.578125 0.296875q0.359375 0 0.578125 -0.296875q0.234375 -0.3125 0.234375 -1.109375q0 -0.75 -0.234375 -1.046875q-0.234375 -0.296875 -0.578125 -0.296875z"
       fill-rule="nonzero"
       id="path90" />
    <path
       fill="#000000"
       fill-opacity="0.0"
       d="m52.862633 122.04713l16.951637 0l0 19.900978l-16.951637 0z"
       fill-rule="evenodd"
       id="path91" />
    <path
       fill="#000000"
       d="m53.300133 130.28712l0.984375 -0.078125q0.109375 0.71875 0.5 1.078125q0.40625 0.359375 0.96875 0.359375q0.671875 0 1.140625 -0.5q0.46875 -0.515625 0.46875 -1.359375q0 -0.796875 -0.453125 -1.265625q-0.4375 -0.46875 -1.171875 -0.46875q-0.453125 0 -0.8125 0.21875q-0.359375 0.203125 -0.578125 0.53125l-0.875 -0.125l0.734375 -3.921875l3.796875 0l0 0.90625l-3.046875 0l-0.40625 2.046875q0.6875 -0.484375 1.4375 -0.484375q1.0 0 1.6875 0.703125q0.6875 0.6875 0.6875 1.765625q0 1.046875 -0.609375 1.796875q-0.734375 0.921875 -2.0 0.921875q-1.03125 0 -1.703125 -0.578125q-0.65625 -0.578125 -0.75 -1.546875zm5.9889984 -4.625l0 -0.90625l4.9375 0l0 0.734375q-0.71875 0.765625 -1.4375 2.0625q-0.71875 1.28125 -1.109375 2.640625q-0.28125 0.953125 -0.359375 2.09375l-0.953125 0q0.015625 -0.90625 0.34375 -2.171875q0.34375 -1.28125 0.96875 -2.453125q0.640625 -1.1875 1.34375 -2.0l-3.734375 0z"
       fill-rule="nonzero"
       id="path92" />
    <path
       fill="#000000"
       fill-opacity="0.0"
       d="m26.473001 162.22316l16.951635 0l0 19.900986l-16.951635 0z"
       fill-rule="evenodd"
       id="path93" />
    <path
       fill="#000000"
       d="m30.441751 172.46317l-0.9375 0l0 -5.96875q-0.34375 0.328125 -0.890625 0.65625q-0.546875 0.3125 -0.984375 0.46875l0 -0.90625q0.796875 -0.359375 1.375 -0.890625q0.59375 -0.53125 0.828125 -1.015625l0.609375 0l0 7.65625zm5.1348286 0l-0.9375 0l0 -5.96875q-0.34375 0.328125 -0.890625 0.65625q-0.546875 0.3125 -0.984375 0.46875l0 -0.90625q0.796875 -0.359375 1.375 -0.890625q0.59375 -0.53125 0.828125 -1.015625l0.609375 0l0 7.65625z"
       fill-rule="nonzero"
       id="path94" />
    <path
       fill="#000000"
       fill-opacity="0.0"
       d="m93.1023 122.53079l16.951637 0l0 19.900986l-16.951637 0z"
       fill-rule="evenodd"
       id="path95" />
    <path
       fill="#000000"
       d="m93.5398 130.7708l0.984375 -0.078125q0.109375 0.71875 0.5 1.078125q0.40625 0.359375 0.96875 0.359375q0.671875 0 1.140625 -0.5q0.46875 -0.515625 0.46875 -1.359375q0 -0.796875 -0.453125 -1.265625q-0.4375 -0.46875 -1.171875 -0.46875q-0.453125 0 -0.8125 0.21875q-0.359375 0.203125 -0.578125 0.53125l-0.875 -0.125l0.734375 -3.9218826l3.796875 0l0 0.90625l-3.046875 0l-0.40625 2.0468826q0.6875 -0.48438263 1.4375 -0.48438263q1.0 0 1.6875 0.7031326q0.6875 0.6875 0.6875 1.765625q0 1.046875 -0.609375 1.796875q-0.734375 0.921875 -2.0 0.921875q-1.03125 0 -1.703125 -0.578125q-0.65625 -0.578125 -0.75 -1.546875zm5.9889984 -4.6250076l0 -0.90625l4.9375 0l0 0.734375q-0.71875 0.765625 -1.4375 2.0625076q-0.71875 1.28125 -1.109375 2.640625q-0.28125 0.953125 -0.359375 2.09375l-0.953125 0q0.015625 -0.90625 0.34375 -2.171875q0.34375 -1.28125 0.96875 -2.453125q0.640625 -1.1875076 1.34375 -2.0000076l-3.734375 0z"
       fill-rule="nonzero"
       id="path96" />
    <path
       fill="#000000"
       fill-opacity="0.0"
       d="m94.84392 159.15317l8.8821945 0l0 19.900986l-8.8821945 0z"
       fill-rule="evenodd"
       id="path97" />
    <path
       fill="#000000"
       d="m95.28142 165.62755q0 -1.34375 0.28125 -2.171875q0.28125 -0.828125 0.828125 -1.265625q0.546875 -0.453125 1.375 -0.453125q0.625 0 1.078125 0.25q0.46875 0.234375 0.765625 0.703125q0.3125 0.46875 0.484375 1.140625q0.171875 0.671875 0.171875 1.796875q0 1.34375 -0.28125 2.171875q-0.28125 0.828125 -0.828125 1.28125q-0.546875 0.4375 -1.390625 0.4375q-1.09375 0 -1.71875 -0.78125q-0.765625 -0.953125 -0.765625 -3.109375zm0.96875 0q0 1.875 0.4375 2.5q0.4375 0.625 1.078125 0.625q0.65625 0 1.09375 -0.625q0.4375 -0.625 0.4375 -2.5q0 -1.875 -0.4375 -2.5q-0.4375 -0.625 -1.09375 -0.625q-0.640625 0 -1.03125 0.546875q-0.484375 0.703125 -0.484375 2.578125z"
       fill-rule="nonzero"
       id="path98" />
    <path
       fill="#000000"
       fill-opacity="0.0"
       d="m116.20984 179.9808l16.95163 0l0 19.900986l-16.95163 0z"
       fill-rule="evenodd"
       id="path99" />
    <path
       fill="#000000"
       d="m119.64734 190.22081l0 -1.828125l-3.296875 0l0 -0.859375l3.46875 -4.9375l0.765625 0l0 4.9375l1.03125 0l0 0.859375l-1.03125 0l0 1.828125l-0.9375 0zm0 -2.6875l0 -3.4375l-2.375 3.4375l2.375 0zm4.3796234 -1.453125q-0.59375 -0.203125 -0.875 -0.59375q-0.28125 -0.40625 -0.28125 -0.953125q0 -0.84375 0.59375 -1.40625q0.609375 -0.5625 1.59375 -0.5625q1.0 0 1.609375 0.578125q0.609375 0.578125 0.609375 1.40625q0 0.53125 -0.28125 0.9375q-0.265625 0.390625 -0.84375 0.59375q0.703125 0.234375 1.0625 0.75q0.375 0.5 0.375 1.203125q0 0.984375 -0.6875 1.65625q-0.6875 0.65625 -1.828125 0.65625q-1.125 0 -1.8125 -0.65625q-0.6875 -0.671875 -0.6875 -1.671875q0 -0.75 0.375 -1.25q0.375 -0.5 1.078125 -0.6875zm-0.1875 -1.578125q0 0.53125 0.34375 0.875q0.34375 0.34375 0.90625 0.34375q0.53125 0 0.875 -0.328125q0.359375 -0.34375 0.359375 -0.84375q0 -0.515625 -0.359375 -0.859375q-0.359375 -0.359375 -0.890625 -0.359375q-0.53125 0 -0.890625 0.34375q-0.34375 0.34375 -0.34375 0.828125zm-0.3125 3.515625q0 0.40625 0.1875 0.78125q0.203125 0.375 0.578125 0.578125q0.375 0.203125 0.796875 0.203125q0.671875 0 1.109375 -0.421875q0.4375 -0.4375 0.4375 -1.109375q0 -0.671875 -0.453125 -1.109375q-0.453125 -0.453125 -1.125 -0.453125q-0.65625 0 -1.09375 0.4375q-0.4375 0.4375 -0.4375 1.09375z"
       fill-rule="nonzero"
       id="path100" />
    <path
       fill="#000000"
       fill-opacity="0.0"
       d="m62.858932 237.42247l19.564041 0l0 19.900986l-19.564041 0z"
       fill-rule="evenodd"
       id="path101" />
    <path
       fill="#000000"
       d="m63.312057 245.64684l0.9375 -0.125q0.15625 0.796875 0.546875 1.15625q0.390625 0.34375 0.9375 0.34375q0.65625 0 1.109375 -0.453125q0.46875 -0.46875 0.46875 -1.140625q0 -0.640625 -0.421875 -1.0625q-0.421875 -0.421875 -1.078125 -0.421875q-0.265625 0 -0.65625 0.109375l0.109375 -0.828125q0.09375 0.015625 0.140625 0.015625q0.59375 0 1.078125 -0.3125q0.484375 -0.3125 0.484375 -0.96875q0 -0.515625 -0.359375 -0.84375q-0.34375 -0.34375 -0.890625 -0.34375q-0.546875 0 -0.921875 0.34375q-0.359375 0.34375 -0.453125 1.03125l-0.9375 -0.171875q0.171875 -0.9375 0.78125 -1.453125q0.609375 -0.515625 1.5 -0.515625q0.625 0 1.15625 0.265625q0.53125 0.265625 0.796875 0.734375q0.28125 0.453125 0.28125 0.984375q0 0.484375 -0.265625 0.890625q-0.265625 0.40625 -0.78125 0.65625q0.671875 0.15625 1.046875 0.65625q0.375 0.484375 0.375 1.21875q0 1.0 -0.734375 1.703125q-0.71875 0.6875 -1.828125 0.6875q-1.0 0 -1.671875 -0.59375q-0.65625 -0.609375 -0.75 -1.5625zm5.9108734 0.015625l0.984375 -0.078125q0.109375 0.71875 0.5 1.078125q0.40625 0.359375 0.96875 0.359375q0.671875 0 1.140625 -0.5q0.46875 -0.515625 0.46875 -1.359375q0 -0.796875 -0.453125 -1.265625q-0.4375 -0.46875 -1.171875 -0.46875q-0.453125 0 -0.8125 0.21875q-0.359375 0.203125 -0.578125 0.53125l-0.875 -0.125l0.734375 -3.921875l3.796875 0l0 0.90625l-3.046875 0l-0.40625 2.046875q0.6875 -0.484375 1.4375 -0.484375q1.0 0 1.6875 0.703125q0.6875 0.6875 0.6875 1.765625q0 1.046875 -0.609375 1.796875q-0.734375 0.921875 -2.0 0.921875q-1.03125 0 -1.703125 -0.578125q-0.65625 -0.578125 -0.75 -1.546875z"
       fill-rule="nonzero"
       id="path102" />
    <path
       fill="#cfe2f3"
       d="m69.7664 266.17838l14.267715 0l0 13.8897705l-14.267715 0z"
       fill-rule="evenodd"
       id="path103" />
    <path
       stroke="#000000"
       stroke-width="1.0"
       stroke-linejoin="round"
       stroke-linecap="butt"
       d="m69.7664 266.17838l14.267715 0l0 13.8897705l-14.267715 0z"
       fill-rule="evenodd"
       id="path104" />
    <path
       fill="#000000"
       d="m79.61022 276.62762l0 1.015625l-5.6875 0q0 -0.375 0.125 -0.734375q0.21875 -0.578125 0.6875 -1.140625q0.484375 -0.5625 1.390625 -1.296875q1.40625 -1.15625 1.890625 -1.828125q0.5 -0.671875 0.5 -1.265625q0 -0.625 -0.453125 -1.046875q-0.453125 -0.4375 -1.171875 -0.4375q-0.765625 0 -1.21875 0.453125q-0.453125 0.453125 -0.46875 1.265625l-1.078125 -0.109375q0.109375 -1.21875 0.828125 -1.84375q0.734375 -0.640625 1.96875 -0.640625q1.234375 0 1.953125 0.6875q0.71875 0.6875 0.71875 1.703125q0 0.515625 -0.21875 1.015625q-0.203125 0.484375 -0.703125 1.046875q-0.484375 0.546875 -1.609375 1.5q-0.953125 0.796875 -1.234375 1.09375q-0.265625 0.28125 -0.4375 0.5625l4.21875 0z"
       fill-rule="nonzero"
       id="path105" />
    <path
       fill="#cfe2f3"
       d="m114.76378 223.3831l14.267715 0l0 13.889755l-14.267715 0z"
       fill-rule="evenodd"
       id="path106" />
    <path
       stroke="#000000"
       stroke-width="1.0"
       stroke-linejoin="round"
       stroke-linecap="butt"
       d="m114.76378 223.3831l14.267715 0l0 13.889755l-14.267715 0z"
       fill-rule="evenodd"
       id="path107" />
    <path
       fill="#000000"
       d="m119.06072 232.58235l1.0625 -0.140625q0.171875 0.890625 0.609375 1.296875q0.4375 0.390625 1.0625 0.390625q0.75 0 1.265625 -0.515625q0.515625 -0.515625 0.515625 -1.28125q0 -0.71875 -0.484375 -1.1875q-0.46875 -0.484375 -1.203125 -0.484375q-0.296875 0 -0.75 0.125l0.125 -0.9375q0.109375 0.015625 0.171875 0.015625q0.671875 0 1.203125 -0.34375q0.546875 -0.359375 0.546875 -1.09375q0 -0.578125 -0.390625 -0.953125q-0.390625 -0.390625 -1.015625 -0.390625q-0.609375 0 -1.03125 0.390625q-0.40625 0.390625 -0.515625 1.15625l-1.0625 -0.1875q0.1875 -1.046875 0.875 -1.625q0.6875 -0.59375 1.703125 -0.59375q0.703125 0 1.296875 0.3125q0.59375 0.296875 0.90625 0.8125q0.3125 0.515625 0.3125 1.109375q0 0.546875 -0.296875 1.015625q-0.296875 0.453125 -0.875 0.71875q0.75 0.171875 1.171875 0.734375q0.421875 0.546875 0.421875 1.390625q0 1.125 -0.828125 1.90625q-0.8125 0.78125 -2.0625 0.78125q-1.125 0 -1.875 -0.671875q-0.75 -0.6875 -0.859375 -1.75z"
       fill-rule="nonzero"
       id="path108" />
    <path
       fill="#000000"
       fill-opacity="0.0"
       d="m51.22891 165.13918l16.944881 0l0 19.905518l-16.944881 0z"
       fill-rule="evenodd"
       id="path109" />
    <path
       fill="#000000"
       d="m51.72891 168.75418l0 -0.90625l4.9375 0l0 0.734375q-0.71875 0.765625 -1.4375 2.0625q-0.71875 1.28125 -1.109375 2.640625q-0.28125 0.953125 -0.359375 2.09375l-0.953125 0q0.015625 -0.90625 0.34375 -2.171875q0.34375 -1.28125 0.96875 -2.453125q0.640625 -1.1875 1.34375 -2.0l-3.734375 0zm5.8639984 4.625l0.984375 -0.078125q0.109375 0.71875 0.5 1.078125q0.40625 0.359375 0.96875 0.359375q0.671875 0 1.140625 -0.5q0.46875 -0.515625 0.46875 -1.359375q0 -0.796875 -0.453125 -1.265625q-0.4375 -0.46875 -1.171875 -0.46875q-0.453125 0 -0.8125 0.21875q-0.359375 0.203125 -0.578125 0.53125l-0.875 -0.125l0.734375 -3.921875l3.796875 0l0 0.90625l-3.046875 0l-0.40625 2.046875q0.6875 -0.484375 1.4375 -0.484375q1.0 0 1.6875 0.703125q0.6875 0.6875 0.6875 1.765625q0 1.046875 -0.609375 1.796875q-0.734375 0.921875 -2.0 0.921875q-1.03125 0 -1.703125 -0.578125q-0.65625 -0.578125 -0.75 -1.546875z"
       fill-rule="nonzero"
       id="path110" />
    <path
       fill="#000000"
       fill-opacity="0.0"
       d="m13.929133 39.614067l121.95277 0l0 51.716537l-121.95277 0z"
       fill-rule="evenodd"
       id="path377" />
    <path
       fill="#000000"
       d="m37.48086 60.094067l-3.34375 0l-1.328125 -3.46875l-6.109375 0l-1.265625 3.46875l-3.265625 0l5.953125 -15.265625l3.25 0l6.109375 15.265625zm-5.671875 -6.046875l-2.09375 -5.65625l-2.0625 5.65625l4.15625 0zm17.433746 6.046875l-2.71875 0l0 -1.625q-0.671875 0.953125 -1.59375 1.421875q-0.921875 0.453125 -1.859375 0.453125q-1.90625 0 -3.265625 -1.53125q-1.359375 -1.546875 -1.359375 -4.296875q0 -2.8125 1.3125 -4.265625q1.328125 -1.46875 3.359375 -1.46875q1.84375 0 3.203125 1.546875l0 -5.5l2.921875 0l0 15.265625zm-7.8125 -5.765625q0 1.765625 0.5 2.5625q0.703125 1.140625 1.96875 1.140625q1.015625 0 1.71875 -0.859375q0.71875 -0.859375 0.71875 -2.5625q0 -1.90625 -0.6875 -2.75q-0.6875 -0.84375 -1.765625 -0.84375q-1.046875 0 -1.75 0.828125q-0.703125 0.828125 -0.703125 2.484375zm10.481201 -5.296875l2.703125 0l0 1.515625q1.4375 -1.765625 3.4375 -1.765625q1.0625 0 1.84375 0.4375q0.78125 0.4375 1.28125 1.328125q0.734375 -0.890625 1.578125 -1.328125q0.84375 -0.4375 1.7968712 -0.4375q1.21875 0 2.0625 0.5q0.84375 0.484375 1.265625 1.453125q0.296875 0.703125 0.296875 2.28125l0 7.078125l-2.921875 0l0 -6.328125q0 -1.640625 -0.3125 -2.125q-0.40625 -0.625 -1.2499962 -0.625q-0.609375 0 -1.15625 0.375q-0.53125 0.375 -0.78125 1.109375q-0.234375 0.71875 -0.234375 2.28125l0 5.3125l-2.921875 0l0 -6.0625q0 -1.609375 -0.15625 -2.078125q-0.15625 -0.46875 -0.484375 -0.703125q-0.328125 -0.234375 -0.890625 -0.234375q-0.671875 0 -1.21875 0.375q-0.546875 0.359375 -0.78125 1.046875q-0.234375 0.6875 -0.234375 2.28125l0 5.375l-2.921875 0l0 -11.0625zm19.182873 -1.5l0 -2.703125l2.921875 0l0 2.703125l-2.921875 0zm0 12.5625l0 -11.0625l2.921875 0l0 11.0625l-2.921875 0zm4.519394 0l3.984375 -5.703125l-3.8125 -5.359375l3.5625 0l1.96875 3.046875l2.0625 -3.046875l3.421875 0l-3.734375 5.234375l4.078125 5.828125l-3.578125 0l-2.25 -3.421875l-2.28125 3.421875l-3.421875 0zm18.34607 -11.0625l0 2.328125l-2.0 0l0 4.46875q0 1.34375 0.046875 1.578125q0.0625 0.21875 0.265625 0.375q0.203125 0.140625 0.5 0.140625q0.40625 0 1.171875 -0.28125l0.25 2.265625q-1.015625 0.4375 -2.3125 0.4375q-0.796875 0 -1.4375 -0.265625q-0.625 -0.265625 -0.921875 -0.6875q-0.296875 -0.421875 -0.40625 -1.140625q-0.09375 -0.515625 -0.09375 -2.0625l0 -4.828125l-1.34375 0l0 -2.328125l1.34375 0l0 -2.1875l2.9375 -1.71875l0 3.90625l2.0 0zm9.305557 11.0625l0 -1.65625q-0.609375 0.890625 -1.59375 1.40625q-0.984375 0.5 -2.078125 0.5q-1.109375 0 -2.0 -0.484375q-0.875 -0.5 -1.28125 -1.375q-0.390625 -0.890625 -0.390625 -2.453125l0 -7.0l2.921875 0l0 5.078125q0 2.34375 0.15625 2.875q0.171875 0.515625 0.59375 0.828125q0.4375 0.296875 1.09375 0.296875q0.75 0 1.34375 -0.40625q0.59375 -0.40625 0.8125 -1.015625q0.21875 -0.609375 0.21875 -2.984375l0 -4.671875l2.921875 0l0 11.0625l-2.71875 0zm8.543701 0l-2.921875 0l0 -11.0625l2.71875 0l0 1.578125q0.703125 -1.125 1.25 -1.46875q0.5625 -0.359375 1.265625 -0.359375q1.0 0 1.9375 0.5625l-0.90625 2.546875q-0.75 -0.484375 -1.375 -0.484375q-0.625 0 -1.046875 0.34375q-0.421875 0.328125 -0.671875 1.21875q-0.25 0.890625 -0.25 3.703125l0 3.421875zm11.909439 -3.515625l2.90625 0.484375q-0.546875 1.609375 -1.765625 2.453125q-1.21875 0.828125 -3.03125 0.828125q-2.890625 0 -4.28125 -1.890625q-1.09375 -1.5 -1.09375 -3.8125q0 -2.75 1.4375 -4.296875q1.4375 -1.5625 3.640625 -1.5625q2.46875 0 3.890625 1.640625q1.421875 1.625 1.359375 4.984375l-7.328125 0q0.03125 1.296875 0.703125 2.03125q0.6875 0.71875 1.703125 0.71875q0.6875 0 1.15625 -0.375q0.46875 -0.375 0.703125 -1.203125zm0.171875 -2.96875q-0.03125 -1.265625 -0.65625 -1.921875q-0.625 -0.671875 -1.53125 -0.671875q-0.953125 0 -1.578125 0.703125q-0.625 0.703125 -0.609375 1.890625l4.375 0z"
       fill-rule="nonzero"
       id="path378" />
    <path
       fill="#000000"
       d="m46.548145 86.428444l3.34375 0.40625q0.078125 0.578125 0.375 0.796875q0.421875 0.3125 1.3125 0.3125q1.15625 0 1.71875 -0.34375q0.390625 -0.234375 0.59375 -0.734375q0.125 -0.375 0.125 -1.34375l0 -1.625q-1.3125 1.796875 -3.3125 1.796875q-2.21875 0 -3.53125 -1.890625q-1.015625 -1.484375 -1.015625 -3.703125q0 -2.78125 1.328125 -4.25q1.34375 -1.46875 3.34375 -1.46875q2.046875 0 3.375 1.796875l0 -1.546875l2.734375 0l0 9.921875q0 1.96875 -0.328125 2.9375q-0.3125 0.96875 -0.890625 1.515625q-0.578125 0.546875 -1.5625 0.859375q-0.96875 0.3125 -2.453125 0.3125q-2.8125 0 -4.0 -0.96875q-1.171875 -0.953125 -1.171875 -2.4375q0 -0.140625 0.015625 -0.34375zm2.609375 -6.5q0 1.765625 0.671875 2.59375q0.6875 0.8125 1.6875 0.8125q1.078125 0 1.8125 -0.84375q0.75 -0.84375 0.75 -2.484375q0 -1.71875 -0.71875 -2.546875q-0.703125 -0.84375 -1.78125 -0.84375q-1.0625 0 -1.75 0.828125q-0.671875 0.8125 -0.671875 2.484375zm13.481201 5.765625l-2.921875 0l0 -11.0625l2.71875 0l0 1.578125q0.703125 -1.125 1.25 -1.46875q0.5624962 -0.359375 1.2656212 -0.359375q1.0 0 1.9375 0.5625l-0.90625 2.546875q-0.75 -0.484375 -1.375 -0.484375q-0.6249962 0 -1.0468712 0.34375q-0.421875 0.328125 -0.671875 1.21875q-0.25 0.890625 -0.25 3.703125l0 3.421875zm7.6906853 -7.6875l-2.65625 -0.484375q0.453125 -1.59375 1.546875 -2.359375q1.09375 -0.78125 3.25 -0.78125q1.953125 0 2.90625 0.46875q0.96875 0.453125 1.359375 1.171875q0.390625 0.71875 0.390625 2.625l-0.03125 3.40625q0 1.46875 0.125 2.15625q0.140625 0.6875 0.53125 1.484375l-2.890625 0q-0.109375 -0.296875 -0.28125 -0.859375q-0.078125 -0.265625 -0.109375 -0.34375q-0.75 0.71875 -1.609375 1.09375q-0.84375 0.359375 -1.8125 0.359375q-1.703125 0 -2.6875 -0.921875q-0.984375 -0.9375 -0.984375 -2.34375q0 -0.9375 0.4375 -1.671875q0.453125 -0.734375 1.25 -1.125q0.8125 -0.390625 2.34375 -0.6875q2.046875 -0.390625 2.84375 -0.71875l0 -0.296875q0 -0.84375 -0.421875 -1.203125q-0.421875 -0.359375 -1.578125 -0.359375q-0.78125 0 -1.21875 0.3125q-0.4375 0.3125 -0.703125 1.078125zm3.921875 2.375q-0.5625 0.1875 -1.78125 0.453125q-1.21875 0.25 -1.59375 0.5q-0.578125 0.40625 -0.578125 1.03125q0 0.625 0.453125 1.078125q0.46875 0.4375 1.171875 0.4375q0.796875 0 1.515625 -0.515625q0.53125 -0.40625 0.6875 -0.96875q0.125 -0.375 0.125 -1.4375l0 -0.578125zm5.6741943 -5.75l2.71875 0l0 1.625q0.53125 -0.828125 1.4375 -1.34375q0.90625 -0.53125 2.015625 -0.53125q1.921875 0 3.265625 1.515625q1.34375 1.5 1.34375 4.203125q0 2.765625 -1.359375 4.3125q-1.34375 1.53125 -3.265625 1.53125q-0.921875 0 -1.671875 -0.359375q-0.734375 -0.375 -1.5625 -1.25l0 5.5625l-2.921875 0l0 -15.265625zm2.890625 5.34375q0 1.859375 0.734375 2.75q0.75 0.890625 1.8125 0.890625q1.015625 0 1.6875 -0.8125q0.6875 -0.8125 0.6875 -2.6875q0 -1.734375 -0.703125 -2.578125q-0.703125 -0.84375 -1.734375 -0.84375q-1.0625 0 -1.78125 0.828125q-0.703125 0.828125 -0.703125 2.453125zm13.137451 -9.546875l0 5.609375q1.40625 -1.65625 3.375 -1.65625q1.015625 0 1.828125 0.375q0.8125 0.375 1.21875 0.96875q0.40625 0.578125 0.5625 1.28125q0.15625 0.703125 0.15625 2.203125l0 6.484375l-2.921875 0l0 -5.84375q0 -1.734375 -0.171875 -2.203125q-0.171875 -0.46875 -0.59375 -0.75q-0.421875 -0.28125 -1.046875 -0.28125q-0.734375 0 -1.3125 0.359375q-0.5625 0.359375 -0.828125 1.078125q-0.265625 0.703125 -0.265625 2.09375l0 5.546875l-2.9375 0l0 -15.265625l2.9375 0z"
       fill-rule="nonzero"
       id="path379" />
    <path
       fill="#000000"
       fill-opacity="0.0"
       d="m139.2126 164.43935l63.2126 0.0315094"
       fill-rule="evenodd"
       id="path386" />
    <path
       stroke="#000000"
       stroke-width="3.0"
       stroke-linejoin="round"
       stroke-linecap="butt"
       d="m139.2126 164.43936l52.93135 0.026367188"
       fill-rule="evenodd"
       id="path387" />
    <path
       fill="#000000"
       stroke="#000000"
       stroke-width="3.0"
       stroke-linecap="butt"
       d="m192.14394 164.46573l-3.3754272 3.3720703l9.270981 -3.3691254l-9.267624 -3.3783722z"
       fill-rule="evenodd"
       id="path388" />
    <path
       fill="#000000"
       fill-opacity="0.0"
       d="m-3.519685 -9.528344l156.85039 0l0 53.322834l-156.85039 0z"
       fill-rule="evenodd"
       id="path392" />
    <path
       fill="#000000"
       fill-opacity="0.0"
       d="m190.28346 -9.528344l156.85039 0l0 53.322834l-156.85039 0z"
       fill-rule="evenodd"
       id="path394" />
    <path
       fill="#000000"
       fill-opacity="0.0"
       d="m428.1811 -9.528344l156.8504 0l0 53.322834l-156.8504 0z"
       fill-rule="evenodd"
       id="path396" />
  </g>
</svg>
