<?xml version="1.0" encoding="UTF-8" standalone="no"?>
<svg
   version="1.1"
   viewBox="0.0 0.0 816.496062992126 428.86614173228344"
   fill="none"
   stroke="none"
   stroke-linecap="square"
   stroke-miterlimit="10"
   id="svg403"
   sodipodi:docname="proposed_approach_6.svg"
   inkscape:version="1.3.2 (1:1.3.2+202311252150+091e20ef0f)"
   xmlns:inkscape="http://www.inkscape.org/namespaces/inkscape"
   xmlns:sodipodi="http://sodipodi.sourceforge.net/DTD/sodipodi-0.dtd"
   xmlns="http://www.w3.org/2000/svg"
   xmlns:svg="http://www.w3.org/2000/svg">
  <defs
     id="defs403" />
  <sodipodi:namedview
     id="namedview403"
     pagecolor="#ffffff"
     bordercolor="#000000"
     borderopacity="0.25"
     inkscape:showpageshadow="2"
     inkscape:pageopacity="0.0"
     inkscape:pagecheckerboard="0"
     inkscape:deskcolor="#d1d1d1"
     inkscape:zoom="0.46984849"
     inkscape:cx="422.47661"
     inkscape:cy="233.05385"
     inkscape:window-width="1223"
     inkscape:window-height="774"
     inkscape:window-x="57"
     inkscape:window-y="26"
     inkscape:window-maximized="1"
     inkscape:current-layer="g403" />
  <clipPath
     id="p.0">
    <path
       d="m0 0l816.49603 0l0 428.86615l-816.49603 0l0 -428.86615z"
       clip-rule="nonzero"
       id="path1" />
  </clipPath>
  <g
     clip-path="url(#p.0)"
     id="g403">
    <path
       fill="#000000"
       fill-opacity="0.0"
       d="m0 0l816.49603 0l0 428.86615l-816.49603 0z"
       fill-rule="evenodd"
       id="path2" />
    <path
       fill="#000000"
       fill-opacity="0.0"
       d="m789.2316 143.09666l0 261.19684"
       fill-rule="evenodd"
       id="path269" />
    <path
       stroke="#000000"
       stroke-width="3.0"
       stroke-linejoin="round"
       stroke-linecap="butt"
       d="m789.2316 143.09666l0 243.19685"
       fill-rule="evenodd"
       id="path270" />
    <path
       fill="#000000"
       stroke="#000000"
       stroke-width="3.0"
       stroke-linecap="butt"
       d="m784.2764 386.29352l4.9552 13.614288l4.9552 -13.614288z"
       fill-rule="evenodd"
       id="path271" />
    <path
       fill="#000000"
       fill-opacity="0.0"
       d="m789.7411 331.94705l0 -116.50394l27.62201 0l0 116.50394z"
       fill-rule="evenodd"
       id="path272" />
    <path
       fill="#000000"
       d="m802.9736 308.8614l0.453125 -1.765625q2.171875 0.5625 3.328125 2.0q1.140625 1.4375 1.140625 3.53125q0 2.15625 -0.875 3.515625q-0.890625 1.34375 -2.546875 2.0625q-1.671875 0.703125 -3.59375 0.703125q-2.078125 0 -3.625 -0.796875q-1.5625 -0.796875 -2.359375 -2.265625q-0.8125 -1.484375 -0.8125 -3.25q0 -2.0 1.015625 -3.359375q1.015625 -1.375 2.875 -1.90625l0.40625 1.734375q-1.453125 0.46875 -2.109375 1.359375q-0.671875 0.875 -0.671875 2.203125q0 1.546875 0.734375 2.578125q0.734375 1.03125 1.984375 1.453125q1.234375 0.421875 2.5625 0.421875q1.703125 0 2.96875 -0.5q1.265625 -0.5 1.90625 -1.546875q0.625 -1.046875 0.625 -2.265625q0 -1.484375 -0.859375 -2.515625q-0.859375 -1.03125 -2.546875 -1.390625zm-0.15625 -3.1292114q-2.6875 0 -3.96875 -1.484375q-1.078125 -1.25 -1.078125 -3.046875q0 -2.0 1.3125 -3.265625q1.296875 -1.265625 3.609375 -1.265625q1.859375 0 2.9375 0.5625q1.0625 0.5625 1.65625 1.640625q0.59375 1.0625 0.59375 2.328125q0 2.03125 -1.296875 3.28125q-1.3125 1.25 -3.765625 1.25zm0 -1.6875q1.859375 0 2.796875 -0.796875q0.921875 -0.8125 0.921875 -2.046875q0 -1.21875 -0.921875 -2.03125q-0.9375 -0.8125 -2.84375 -0.8125q-1.796875 0 -2.71875 0.8125q-0.921875 0.8125 -0.921875 2.03125q0 1.234375 0.921875 2.046875q0.90625 0.796875 2.765625 0.796875zm4.84375 -9.297577l-9.671875 0l0 -1.46875l1.359375 0q-0.71875 -0.453125 -1.140625 -1.203125q-0.4375 -0.765625 -0.4375 -1.71875q0 -1.078125 0.453125 -1.765625q0.4375 -0.6875 1.234375 -0.96875q-1.6875 -1.15625 -1.6875 -2.984375q0 -1.453125 0.796875 -2.21875q0.796875 -0.78125 2.453125 -0.78125l6.640625 0l0 1.640625l-6.09375 0q-0.984375 0 -1.40625 0.15625q-0.4375 0.15625 -0.703125 0.578125q-0.265625 0.421875 -0.265625 0.984375q0 1.015625 0.6875 1.6875q0.671875 0.671875 2.15625 0.671875l5.625 0l0 1.640625l-6.28125 0q-1.09375 0 -1.640625 0.40625q-0.546875 0.40625 -0.546875 1.3125q0 0.6875 0.359375 1.28125q0.359375 0.59375 1.0625 0.859375q0.703125 0.25 2.03125 0.25l5.015625 0l0 1.640625zm3.703125 -15.540802l-13.375 0l0 -1.484375l1.25 0q-0.734375 -0.53125 -1.09375 -1.1875q-0.375 -0.671875 -0.375 -1.625q0 -1.234375 0.640625 -2.171875q0.625 -0.953125 1.796875 -1.4375q1.15625 -0.484375 2.546875 -0.484375q1.484375 0 2.671875 0.53125q1.1875 0.53125 1.828125 1.546875q0.625 1.015625 0.625 2.140625q0 0.8125 -0.34375 1.46875q-0.34375 0.65625 -0.875 1.0625l4.703125 0l0 1.640625zm-8.484375 -1.484375q1.859375 0 2.765625 -0.75q0.890625 -0.765625 0.890625 -1.828125q0 -1.09375 -0.921875 -1.875q-0.9375 -0.78125 -2.875 -0.78125q-1.84375 0 -2.765625 0.765625q-0.921875 0.75 -0.921875 1.8125q0 1.046875 0.984375 1.859375q0.96875 0.796875 2.84375 0.796875zm4.78125 -8.844482l-13.359375 0l0 -1.640625l13.359375 0l0 1.640625zm-3.109375 -10.816681l0.203125 -1.6875q1.484375 0.40625 2.3125 1.484375q0.8125 1.078125 0.8125 2.765625q0 2.125 -1.296875 3.375q-1.3125 1.234375 -3.671875 1.234375q-2.453125 0 -3.796875 -1.25q-1.34375 -1.265625 -1.34375 -3.265625q0 -1.9375 1.328125 -3.15625q1.3125 -1.234375 3.703125 -1.234375q0.15625 0 0.4375 0l0 7.21875q1.59375 -0.09375 2.453125 -0.90625q0.84375 -0.8125 0.84375 -2.015625q0 -0.90625 -0.46875 -1.546875q-0.484375 -0.640625 -1.515625 -1.015625zm-2.65625 5.390625l0 -5.40625q-1.21875 0.109375 -1.828125 0.625q-0.953125 0.78125 -0.953125 2.03125q0 1.125 0.765625 1.90625q0.75 0.765625 2.015625 0.84375zm5.765625 -8.047607l-5.03125 -3.53125l-4.640625 3.265625l0 -2.046875l2.265625 -1.484375q0.640625 -0.421875 1.078125 -0.671875q-0.59375 -0.40625 -1.0625 -0.734375l-2.28125 -1.640625l0 -1.953125l4.546875 3.34375l5.125 -3.59375l0 2.015625l-3.0 1.984375l-0.8125 0.515625l3.8125 2.546875l0 1.984375zm-11.46875 -10.421875l-1.890625 0l0 -1.640625l1.890625 0l0 1.640625zm11.46875 0l-9.671875 0l0 -1.640625l9.671875 0l0 1.640625zm-1.46875 -7.722946l1.453125 -0.234375q0.140625 0.6875 0.140625 1.234375q0 0.890625 -0.28125 1.390625q-0.28125 0.484375 -0.734375 0.6875q-0.46875 0.203125 -1.9375 0.203125l-5.578125 0l0 1.203125l-1.265625 0l0 -1.203125l-2.390625 0l-0.984375 -1.625l3.375 0l0 -1.65625l1.265625 0l0 1.65625l5.671875 0q0.6875 0 0.890625 -0.078125q0.203125 -0.09375 0.328125 -0.28125q0.109375 -0.203125 0.109375 -0.578125q0 -0.265625 -0.0625 -0.71875zm5.1875 -1.5270538l-1.53125 0.1875q0.140625 -0.546875 0.140625 -0.9375q0 -0.546875 -0.1875 -0.875q-0.171875 -0.328125 -0.5 -0.546875q-0.25 -0.15625 -1.21875 -0.5q-0.140625 -0.046875 -0.40625 -0.140625l-9.6875 3.671875l0 -1.765625l5.59375 -2.015625q1.078125 -0.390625 2.25 -0.703125q-1.125 -0.28125 -2.203125 -0.671875l-5.640625 -2.078125l0 -1.640625l9.828125 3.6875q1.609375 0.59375 2.203125 0.921875q0.8125 0.4375 1.1875 1.0q0.375 0.5625 0.375 1.34375q0 0.484375 -0.203125 1.0625z"
       fill-rule="nonzero"
       id="path273" />
    <path
       fill="#000000"
       fill-opacity="0.0"
       d="m695.7256 232.8473l71.27557 0l0 27.622055l-71.27557 0z"
       fill-rule="evenodd"
       id="path274" />
    <path
       fill="#000000"
       d="m715.01965 273.8073l0 -4.265625l4.265625 0l0 4.265625l-4.265625 0zm14.21875 0l0 -4.265625l4.265625 0l0 4.265625l-4.265625 0zm14.203125 0l0 -4.265625l4.296875 0l0 4.265625l-4.296875 0z"
       fill-rule="nonzero"
       id="path275" />
    <path
       fill="#cfe2f3"
       d="m691.9136 152.85341l78.897644 0l0 100.69292l-78.897644 0z"
       fill-rule="evenodd"
       id="path276" />
    <path
       stroke="#0b5394"
       stroke-width="4.0"
       stroke-linejoin="round"
       stroke-linecap="butt"
       d="m691.9136 152.85341l78.897644 0l0 100.69292l-78.897644 0z"
       fill-rule="evenodd"
       id="path277" />
    <path
       fill="#000000"
       fill-opacity="0.0"
       d="m726.2985 160.19543l17.401306 35.52066"
       fill-rule="evenodd"
       id="path278" />
    <path
       stroke="#000000"
       stroke-width="1.0"
       stroke-linejoin="round"
       stroke-linecap="butt"
       d="m727.9659 163.59897l14.226196 29.03952"
       fill-rule="evenodd"
       id="path279" />
    <path
       fill="#000000"
       stroke="#000000"
       stroke-width="1.0"
       stroke-linecap="butt"
       d="m726.51843 160.64445c0.81585693 -0.39968872 1.8012695 -0.062301636 2.2009888 0.75357056c0.3996582 0.81585693 0.06225586 1.8012543 -0.7536011 2.200943c-0.81585693 0.39968872 -1.8012695 0.062316895 -2.2009277 -0.7535553c-0.39971924 -0.8158722 -0.062316895 -1.8012695 0.75354004 -2.2009583z"
       fill-rule="nonzero"
       id="path280" />
    <path
       fill="#000000"
       stroke="#000000"
       stroke-width="1.0"
       stroke-linecap="butt"
       d="m742.1921 192.63849l-1.5046387 -0.51516724l2.3692017 2.279953l-0.34936523 -3.2694397z"
       fill-rule="evenodd"
       id="path281" />
    <path
       fill="#000000"
       fill-opacity="0.0"
       d="m729.23395 159.89978l-24.328064 47.43129"
       fill-rule="evenodd"
       id="path282" />
    <path
       stroke="#000000"
       stroke-width="1.0"
       stroke-linejoin="round"
       stroke-linecap="butt"
       d="m727.5043 163.27208l-21.034302 41.009598"
       fill-rule="evenodd"
       id="path283" />
    <path
       fill="#000000"
       stroke="#000000"
       stroke-width="1.0"
       stroke-linecap="butt"
       d="m729.00574 160.34468c0.8083496 0.41462708 1.1275635 1.4060669 0.71295166 2.214447c-0.41461182 0.8083801 -1.4060669 1.1275787 -2.2144165 0.71295166c-0.80841064 -0.41462708 -1.1276245 -1.4060669 -0.71295166 -2.214447c0.41461182 -0.8083801 1.4060059 -1.1275787 2.2144165 -0.71295166z"
       fill-rule="nonzero"
       id="path284" />
    <path
       fill="#000000"
       stroke="#000000"
       stroke-width="1.0"
       stroke-linecap="butt"
       d="m706.47 204.2817l-0.48736572 -1.5138855l-0.40948486 3.2624664l2.4107056 -2.2359924z"
       fill-rule="evenodd"
       id="path285" />
    <path
       fill="#000000"
       fill-opacity="0.0"
       d="m748.04266 195.35643l-24.328064 36.11197"
       fill-rule="evenodd"
       id="path286" />
    <path
       stroke="#000000"
       stroke-width="1.0"
       stroke-linejoin="round"
       stroke-linecap="butt"
       d="m745.9251 198.49966l-20.295654 30.126465"
       fill-rule="evenodd"
       id="path287" />
    <path
       fill="#000000"
       stroke="#000000"
       stroke-width="1.0"
       stroke-linecap="butt"
       d="m747.7633 195.7711c0.753479 0.5075989 0.9527588 1.5299072 0.44519043 2.2833862c-0.5076294 0.753479 -1.5299072 0.9527893 -2.2833862 0.44519043c-0.753479 -0.5075989 -0.9528198 -1.5299072 -0.44519043 -2.2833862c0.50756836 -0.753479 1.5299072 -0.95280457 2.2833862 -0.44519043z"
       fill-rule="nonzero"
       id="path288" />
    <path
       fill="#000000"
       stroke="#000000"
       stroke-width="1.0"
       stroke-linecap="butt"
       d="m725.62946 228.62613l-0.30438232 -1.5610046l-0.79364014 3.1908417l2.6589966 -1.9341888z"
       fill-rule="evenodd"
       id="path289" />
    <path
       fill="#000000"
       fill-opacity="0.0"
       d="m745.21954 195.45708l13.68457 34.380295"
       fill-rule="evenodd"
       id="path290" />
    <path
       stroke="#000000"
       stroke-width="1.0"
       stroke-linejoin="round"
       stroke-linecap="butt"
       d="m746.62115 198.9784l11.015564 27.674866"
       fill-rule="evenodd"
       id="path291" />
    <path
       fill="#000000"
       stroke="#000000"
       stroke-width="1.0"
       stroke-linecap="butt"
       d="m745.4045 195.92163c0.8441162 -0.33598328 1.8007202 0.075927734 2.1367188 0.9200287c0.33599854 0.84410095 -0.075927734 1.8007507 -0.92004395 2.136734c-0.8440552 0.33598328 -1.8007202 -0.075927734 -2.1367188 -0.9200287c-0.33599854 -0.84410095 0.075927734 -1.8007507 0.92004395 -2.136734z"
       fill-rule="nonzero"
       id="path292" />
    <path
       fill="#000000"
       stroke="#000000"
       stroke-width="1.0"
       stroke-linecap="butt"
       d="m757.6367 226.65324l-1.4607544 -0.6289673l2.1875 2.454834l-0.09777832 -3.2866058z"
       fill-rule="evenodd"
       id="path293" />
    <path
       fill="#cfe2f3"
       d="m698.6086 207.33107l13.177673 0l0 12.839798l-13.177673 0z"
       fill-rule="evenodd"
       id="path294" />
    <path
       stroke="#000000"
       stroke-width="1.0"
       stroke-linejoin="round"
       stroke-linecap="butt"
       d="m698.6086 207.33107l13.177673 0l0 12.839798l-13.177673 0z"
       fill-rule="evenodd"
       id="path295" />
    <path
       fill="#000000"
       d="m706.0722 217.21097l-0.8125 0l0 -5.21875q-0.296875 0.28125 -0.78125 0.5625q-0.484375 0.28125 -0.859375 0.421875l0 -0.796875q0.6875 -0.328125 1.203125 -0.78125q0.515625 -0.453125 0.734375 -0.890625l0.515625 0l0 6.703125z"
       fill-rule="nonzero"
       id="path296" />
    <path
       fill="#cfe2f3"
       d="m718.25195 231.46906l13.177673 0l0 12.839813l-13.177673 0z"
       fill-rule="evenodd"
       id="path297" />
    <path
       stroke="#000000"
       stroke-width="1.0"
       stroke-linejoin="round"
       stroke-linecap="butt"
       d="m718.25195 231.46906l13.177673 0l0 12.839813l-13.177673 0z"
       fill-rule="evenodd"
       id="path298" />
    <path
       fill="#000000"
       d="m726.94995 240.56772l0 0.78125l-4.421875 0q-0.015625 -0.296875 0.09375 -0.5625q0.171875 -0.453125 0.53125 -0.890625q0.375 -0.4375 1.078125 -1.015625q1.09375 -0.890625 1.46875 -1.40625q0.390625 -0.53125 0.390625 -1.0q0 -0.484375 -0.359375 -0.8125q-0.34375 -0.34375 -0.890625 -0.34375q-0.59375 0 -0.953125 0.359375q-0.359375 0.359375 -0.359375 0.984375l-0.84375 -0.078125q0.09375 -0.953125 0.65625 -1.4375q0.5625 -0.5 1.515625 -0.5q0.953125 0 1.515625 0.53125q0.5625 0.53125 0.5625 1.328125q0 0.390625 -0.171875 0.78125q-0.15625 0.390625 -0.546875 0.828125q-0.375 0.421875 -1.25 1.15625q-0.734375 0.625 -0.953125 0.84375q-0.203125 0.21875 -0.34375 0.453125l3.28125 0z"
       fill-rule="nonzero"
       id="path299" />
    <path
       fill="#cfe2f3"
       d="m752.2481 230.7442l13.177673 0l0 12.839813l-13.177673 0z"
       fill-rule="evenodd"
       id="path300" />
    <path
       stroke="#000000"
       stroke-width="1.0"
       stroke-linejoin="round"
       stroke-linecap="butt"
       d="m752.2481 230.7442l13.177673 0l0 12.839813l-13.177673 0z"
       fill-rule="evenodd"
       id="path301" />
    <path
       fill="#000000"
       d="m756.6336 238.85847l0.828125 -0.109375q0.140625 0.703125 0.46875 1.015625q0.34375 0.296875 0.828125 0.296875q0.578125 0 0.96875 -0.390625q0.40625 -0.40625 0.40625 -1.0q0 -0.5625 -0.375 -0.921875q-0.359375 -0.375 -0.921875 -0.375q-0.234375 0 -0.578125 0.09375l0.078125 -0.71875q0.09375 0 0.140625 0q0.515625 0 0.9375 -0.265625q0.421875 -0.28125 0.421875 -0.84375q0 -0.453125 -0.3125 -0.75q-0.296875 -0.296875 -0.78125 -0.296875q-0.484375 0 -0.796875 0.3125q-0.3125 0.296875 -0.40625 0.890625l-0.828125 -0.140625q0.15625 -0.828125 0.6875 -1.28125q0.53125 -0.453125 1.328125 -0.453125q0.546875 0 1.0 0.234375q0.46875 0.234375 0.703125 0.640625q0.25 0.40625 0.25 0.859375q0 0.4375 -0.234375 0.796875q-0.234375 0.34375 -0.6875 0.5625q0.59375 0.125 0.921875 0.5625q0.328125 0.421875 0.328125 1.078125q0 0.875 -0.640625 1.484375q-0.640625 0.609375 -1.609375 0.609375q-0.875 0 -1.46875 -0.515625q-0.578125 -0.53125 -0.65625 -1.375z"
       fill-rule="nonzero"
       id="path302" />
    <path
       fill="#000000"
       fill-opacity="0.0"
       d="m736.53357 169.203l17.401306 0l0 15.331757l-17.401306 0z"
       fill-rule="evenodd"
       id="path303" />
    <path
       fill="#000000"
       d="m741.1742 173.11613l-0.8125 0.0625q-0.109375 -0.484375 -0.3125 -0.703125q-0.328125 -0.34375 -0.8125 -0.34375q-0.390625 0 -0.6875 0.21875q-0.390625 0.28125 -0.625 0.828125q-0.21875 0.53125 -0.21875 1.546875q0.296875 -0.453125 0.71875 -0.671875q0.421875 -0.21875 0.890625 -0.21875q0.828125 0 1.40625 0.609375q0.578125 0.59375 0.578125 1.546875q0 0.625 -0.28125 1.171875q-0.265625 0.546875 -0.75 0.828125q-0.46875 0.28125 -1.0625 0.28125q-1.03125 0 -1.6875 -0.75q-0.640625 -0.75 -0.640625 -2.484375q0 -1.9375 0.71875 -2.8125q0.625 -0.765625 1.6875 -0.765625q0.78125 0 1.28125 0.4375q0.515625 0.4375 0.609375 1.21875zm-3.34375 2.890625q0 0.421875 0.171875 0.8125q0.1875 0.375 0.5 0.578125q0.328125 0.203125 0.6875 0.203125q0.515625 0 0.890625 -0.40625q0.375 -0.421875 0.375 -1.15625q0 -0.6875 -0.375 -1.078125q-0.359375 -0.40625 -0.921875 -0.40625q-0.5625 0 -0.953125 0.40625q-0.375 0.390625 -0.375 1.046875zm4.281616 -1.140625q0 -1.1875 0.234375 -1.90625q0.25 -0.71875 0.71875 -1.109375q0.484375 -0.390625 1.21875 -0.390625q0.546875 0 0.9375 0.21875q0.40625 0.21875 0.671875 0.625q0.265625 0.40625 0.40625 1.0q0.15625 0.578125 0.15625 1.5625q0 1.171875 -0.234375 1.90625q-0.234375 0.71875 -0.71875 1.109375q-0.484375 0.390625 -1.21875 0.390625q-0.96875 0 -1.515625 -0.6875q-0.65625 -0.828125 -0.65625 -2.71875zm0.84375 0q0 1.640625 0.375 2.1875q0.390625 0.546875 0.953125 0.546875q0.5625 0 0.953125 -0.546875q0.390625 -0.546875 0.390625 -2.1875q0 -1.640625 -0.390625 -2.1875q-0.390625 -0.546875 -0.953125 -0.546875q-0.578125 0 -0.90625 0.484375q-0.421875 0.609375 -0.421875 2.25z"
       fill-rule="nonzero"
       id="path304" />
    <path
       fill="#000000"
       fill-opacity="0.0"
       d="m705.3744 174.13966l17.401306 0l0 15.331757l-17.401306 0z"
       fill-rule="evenodd"
       id="path305" />
    <path
       fill="#000000"
       d="m705.8119 177.3028l0 -0.796875l4.328125 0l0 0.640625q-0.640625 0.671875 -1.265625 1.796875q-0.625 1.125 -0.96875 2.328125q-0.25 0.828125 -0.3125 1.828125l-0.84375 0q0.015625 -0.78125 0.3125 -1.890625q0.296875 -1.125 0.84375 -2.15625q0.5625 -1.046875 1.1875 -1.75l-3.28125 0zm5.140991 4.046875l0.859375 -0.078125q0.09375 0.640625 0.4375 0.953125q0.359375 0.3125 0.84375 0.3125q0.59375 0 1.0 -0.4375q0.40625 -0.453125 0.40625 -1.1875q0 -0.703125 -0.390625 -1.109375q-0.390625 -0.40625 -1.03125 -0.40625q-0.390625 0 -0.71875 0.1875q-0.3125 0.171875 -0.5 0.453125l-0.765625 -0.09375l0.640625 -3.4375l3.328125 0l0 0.796875l-2.671875 0l-0.359375 1.78125q0.609375 -0.40625 1.265625 -0.40625q0.875 0 1.46875 0.609375q0.609375 0.59375 0.609375 1.546875q0 0.90625 -0.53125 1.5625q-0.640625 0.8125 -1.75 0.8125q-0.90625 0 -1.484375 -0.5q-0.578125 -0.515625 -0.65625 -1.359375z"
       fill-rule="nonzero"
       id="path306" />
    <path
       fill="#000000"
       fill-opacity="0.0"
       d="m723.67566 204.5496l20.35785 0l0 15.331757l-20.35785 0z"
       fill-rule="evenodd"
       id="path307" />
    <path
       fill="#000000"
       d="m726.6913 213.50961l0 -1.59375l-2.890625 0l0 -0.75l3.046875 -4.328125l0.65625 0l0 4.328125l0.90625 0l0 0.75l-0.90625 0l0 1.59375l-0.8125 0zm0 -2.34375l0 -3.015625l-2.09375 3.015625l2.09375 0zm2.5628662 -0.953125q0 -1.1875 0.234375 -1.90625q0.25 -0.71875 0.71875 -1.109375q0.484375 -0.390625 1.21875 -0.390625q0.546875 0 0.9375 0.21875q0.40625 0.21875 0.671875 0.625q0.265625 0.40625 0.40625 1.0q0.15625 0.578125 0.15625 1.5625q0 1.171875 -0.234375 1.90625q-0.234375 0.71875 -0.71875 1.109375q-0.484375 0.390625 -1.21875 0.390625q-0.96875 0 -1.515625 -0.6875q-0.65625 -0.828125 -0.65625 -2.71875zm0.84375 0q0 1.640625 0.375 2.1875q0.390625 0.546875 0.953125 0.546875q0.5625 0 0.953125 -0.546875q0.390625 -0.546875 0.390625 -2.1875q0 -1.640625 -0.390625 -2.1875q-0.390625 -0.546875 -0.953125 -0.546875q-0.578125 0 -0.90625 0.484375q-0.421875 0.609375 -0.421875 2.25z"
       fill-rule="nonzero"
       id="path308" />
    <path
       fill="#000000"
       fill-opacity="0.0"
       d="m752.48474 203.35078l17.401367 0l0 15.331741l-17.401367 0z"
       fill-rule="evenodd"
       id="path309" />
    <path
       fill="#000000"
       d="m752.87537 210.54515l0.828125 -0.109375q0.140625 0.703125 0.46875 1.015625q0.34375 0.296875 0.828125 0.296875q0.578125 0 0.96875 -0.390625q0.40625 -0.40625 0.40625 -1.0q0 -0.5625 -0.375 -0.921875q-0.359375 -0.375 -0.921875 -0.375q-0.234375 0 -0.578125 0.09375l0.078125 -0.71875q0.09375 0 0.140625 0q0.515625 0 0.9375 -0.265625q0.421875 -0.28125 0.421875 -0.84375q0 -0.453125 -0.3125 -0.75q-0.296875 -0.296875 -0.78125 -0.296875q-0.484375 0 -0.796875 0.3125q-0.3125 0.296875 -0.40625 0.890625l-0.828125 -0.140625q0.15625 -0.828125 0.6875 -1.28125q0.53125 -0.453125 1.328125 -0.453125q0.546875 0 1.0 0.234375q0.46875 0.234375 0.703125 0.640625q0.25 0.40625 0.25 0.859375q0 0.4375 -0.234375 0.796875q-0.234375 0.34375 -0.6875 0.5625q0.59375 0.125 0.921875 0.5625q0.328125 0.421875 0.328125 1.078125q0 0.875 -0.640625 1.484375q-0.640625 0.609375 -1.609375 0.609375q-0.875 0 -1.46875 -0.515625q-0.578125 -0.53125 -0.65625 -1.375zm5.187866 -1.53125q0 -1.1875 0.234375 -1.90625q0.25 -0.71875 0.71875 -1.109375q0.484375 -0.390625 1.21875 -0.390625q0.546875 0 0.9375 0.21875q0.40625 0.21875 0.671875 0.625q0.265625 0.40625 0.40625 1.0q0.15625 0.578125 0.15625 1.5625q0 1.171875 -0.234375 1.90625q-0.234375 0.71875 -0.71875 1.109375q-0.484375 0.390625 -1.21875 0.390625q-0.96875 0 -1.515625 -0.6875q-0.65625 -0.828125 -0.65625 -2.71875zm0.84375 0q0 1.640625 0.375 2.1875q0.390625 0.546875 0.953125 0.546875q0.5625 0 0.953125 -0.546875q0.390625 -0.546875 0.390625 -2.1875q0 -1.640625 -0.390625 -2.1875q-0.390625 -0.546875 -0.953125 -0.546875q-0.578125 0 -0.90625 0.484375q-0.421875 0.609375 -0.421875 2.25z"
       fill-rule="nonzero"
       id="path310" />
    <path
       fill="#cfe2f3"
       d="m686.90576 290.82526l88.91339 0l0 100.6929l-88.91339 0z"
       fill-rule="evenodd"
       id="path311" />
    <path
       stroke="#0b5394"
       stroke-width="4.0"
       stroke-linejoin="round"
       stroke-linecap="butt"
       d="m686.90576 290.82526l88.91339 0l0 100.6929l-88.91339 0z"
       fill-rule="evenodd"
       id="path312" />
    <path
       fill="#000000"
       fill-opacity="0.0"
       d="m727.0169 295.19794l-12.692871 29.35434"
       fill-rule="evenodd"
       id="path313" />
    <path
       stroke="#000000"
       stroke-width="1.0"
       stroke-linejoin="round"
       stroke-linecap="butt"
       d="m725.5127 298.67667l-9.828552 22.72998"
       fill-rule="evenodd"
       id="path314" />
    <path
       fill="#000000"
       stroke="#000000"
       stroke-width="1.0"
       stroke-linecap="butt"
       d="m726.8185 295.65686c0.8338623 0.3605957 1.2175293 1.3288879 0.8569946 2.1627808c-0.3605957 0.8338928 -1.3289185 1.2175903 -2.1627808 0.85702515c-0.83392334 -0.3605957 -1.2175903 -1.3288879 -0.8569946 -2.1627808c0.36053467 -0.8338928 1.3288574 -1.2175903 2.1627808 -0.85702515z"
       fill-rule="nonzero"
       id="path315" />
    <path
       fill="#000000"
       stroke="#000000"
       stroke-width="1.0"
       stroke-linecap="butt"
       d="m715.68414 321.40665l-0.58587646 -1.4785461l-0.1940918 3.2823486l2.258545 -2.389679z"
       fill-rule="evenodd"
       id="path316" />
    <path
       fill="#000000"
       fill-opacity="0.0"
       d="m714.3459 324.5528l-17.070862 38.771667"
       fill-rule="evenodd"
       id="path317" />
    <path
       stroke="#000000"
       stroke-width="1.0"
       stroke-linejoin="round"
       stroke-linecap="butt"
       d="m712.81866 328.02145l-14.162659 32.166443"
       fill-rule="evenodd"
       id="path318" />
    <path
       fill="#000000"
       stroke="#000000"
       stroke-width="1.0"
       stroke-linecap="butt"
       d="m714.1444 325.0104c0.83148193 0.36608887 1.2087402 1.3369141 0.84265137 2.168396c-0.36608887 0.83148193 -1.3369141 1.2087708 -2.168396 0.8426819c-0.83148193 -0.36611938 -1.2087402 -1.3369446 -0.84265137 -2.1684265c0.36608887 -0.83148193 1.3369141 -1.2087402 2.168396 -0.84265137z"
       fill-rule="nonzero"
       id="path319" />
    <path
       fill="#000000"
       stroke="#000000"
       stroke-width="1.0"
       stroke-linecap="butt"
       d="m698.656 360.1879l-0.5760498 -1.4823914l-0.21582031 3.2809753l2.274292 -2.3746338z"
       fill-rule="evenodd"
       id="path320" />
    <path
       fill="#cfe2f3"
       d="m692.1463 363.32654l13.196838 0l0 12.818909l-13.196838 0z"
       fill-rule="evenodd"
       id="path321" />
    <path
       stroke="#000000"
       stroke-width="1.0"
       stroke-linejoin="round"
       stroke-linecap="butt"
       d="m692.1463 363.32654l13.196838 0l0 12.818909l-13.196838 0z"
       fill-rule="evenodd"
       id="path322" />
    <path
       fill="#000000"
       d="m699.6195 373.19598l-0.8125 0l0 -5.21875q-0.296875 0.28125 -0.78125 0.5625q-0.484375 0.28125 -0.859375 0.421875l0 -0.796875q0.6875 -0.328125 1.203125 -0.78125q0.515625 -0.453125 0.734375 -0.890625l0.515625 0l0 6.703125z"
       fill-rule="nonzero"
       id="path323" />
    <path
       fill="#000000"
       fill-opacity="0.0"
       d="m711.13586 324.5528l11.055115 16.188965"
       fill-rule="evenodd"
       id="path324" />
    <path
       stroke="#000000"
       stroke-width="1.0"
       stroke-linejoin="round"
       stroke-linecap="butt"
       d="m713.27313 327.68265l6.9851685 10.228973"
       fill-rule="evenodd"
       id="path325" />
    <path
       fill="#000000"
       stroke="#000000"
       stroke-width="1.0"
       stroke-linecap="butt"
       d="m711.4178 324.9657c0.75024414 -0.5123291 1.7738037 -0.319458 2.2861328 0.43081665c0.51239014 0.75024414 0.319458 1.7738037 -0.43078613 2.2861328c-0.75024414 0.5123596 -1.7738037 0.319458 -2.2861328 -0.43078613c-0.5123291 -0.75027466 -0.319458 -1.7738037 0.43078613 -2.2861633z"
       fill-rule="nonzero"
       id="path326" />
    <path
       fill="#000000"
       stroke="#000000"
       stroke-width="1.0"
       stroke-linecap="butt"
       d="m720.2583 337.91162l-1.5629272 -0.29449463l2.6711426 1.9173889l-0.8137207 -3.185791z"
       fill-rule="evenodd"
       id="path327" />
    <path
       fill="#000000"
       fill-opacity="0.0"
       d="m723.2157 295.70157l13.984253 21.29132"
       fill-rule="evenodd"
       id="path328" />
    <path
       stroke="#000000"
       stroke-width="1.0"
       stroke-linejoin="round"
       stroke-linecap="butt"
       d="m725.2963 298.8694l10.022217 15.259033"
       fill-rule="evenodd"
       id="path329" />
    <path
       fill="#000000"
       stroke="#000000"
       stroke-width="1.0"
       stroke-linecap="butt"
       d="m723.49023 296.11948c0.7593384 -0.49874878 1.7792358 -0.2874756 2.2780151 0.4718933c0.49871826 0.7593689 0.2874756 1.7792664 -0.47192383 2.2780151c-0.7593384 0.49874878 -1.7792358 0.2874756 -2.2780151 -0.4718933c-0.49871826 -0.7593384 -0.2874756 -1.7792664 0.47192383 -2.2780151z"
       fill-rule="nonzero"
       id="path330" />
    <path
       fill="#000000"
       stroke="#000000"
       stroke-width="1.0"
       stroke-linecap="butt"
       d="m735.31854 314.12842l-1.557312 -0.3225708l2.6361694 1.9651489l-0.7562256 -3.1999207z"
       fill-rule="evenodd"
       id="path331" />
    <path
       fill="#000000"
       fill-opacity="0.0"
       d="m736.1603 321.4814l-9.763794 19.275574"
       fill-rule="evenodd"
       id="path332" />
    <path
       stroke="#000000"
       stroke-width="1.0"
       stroke-linejoin="round"
       stroke-linecap="butt"
       stroke-dasharray="4.0,3.0"
       d="m736.1603 321.4814l-8.215149 16.218323"
       fill-rule="evenodd"
       id="path333" />
    <path
       fill="#000000"
       stroke="#000000"
       stroke-width="1.0"
       stroke-linecap="butt"
       d="m727.94507 337.69974l-0.49505615 -1.511383l-0.39294434 3.2644958l2.399414 -2.248169z"
       fill-rule="evenodd"
       id="path334" />
    <path
       fill="#000000"
       fill-opacity="0.0"
       d="m747.24164 335.72812l-9.763794 20.062988"
       fill-rule="evenodd"
       id="path335" />
    <path
       stroke="#000000"
       stroke-width="1.0"
       stroke-linejoin="round"
       stroke-linecap="butt"
       stroke-dasharray="4.0,3.0"
       d="m747.24164 335.72812l-8.264099 16.981445"
       fill-rule="evenodd"
       id="path336" />
    <path
       fill="#000000"
       stroke="#000000"
       stroke-width="1.0"
       stroke-linecap="butt"
       d="m738.97754 352.7096l-0.519104 -1.5033264l-0.34088135 3.2703552l2.3632812 -2.2861328z"
       fill-rule="evenodd"
       id="path337" />
    <path
       fill="#000000"
       fill-opacity="0.0"
       d="m737.19995 316.77768l11.086609 14.204712"
       fill-rule="evenodd"
       id="path338" />
    <path
       stroke="#000000"
       stroke-width="1.0"
       stroke-linejoin="round"
       stroke-linecap="butt"
       d="m739.5318 319.7654l6.646179 8.515381"
       fill-rule="evenodd"
       id="path339" />
    <path
       fill="#000000"
       stroke="#000000"
       stroke-width="1.0"
       stroke-linecap="butt"
       d="m737.5076 317.17184c0.7161865 -0.5589905 1.7498779 -0.43154907 2.308899 0.28466797c0.55895996 0.7161865 0.43151855 1.7499084 -0.28466797 2.308899c-0.7161865 0.55895996 -1.749939 0.43151855 -2.308899 -0.28466797c-0.559021 -0.7161865 -0.4315796 -1.749939 0.28466797 -2.308899z"
       fill-rule="nonzero"
       id="path340" />
    <path
       fill="#000000"
       stroke="#000000"
       stroke-width="1.0"
       stroke-linecap="butt"
       d="m746.178 328.2808l-1.5784302 -0.1946106l2.7875977 1.7437744l-1.0145264 -3.1276245z"
       fill-rule="evenodd"
       id="path341" />
    <path
       fill="#000000"
       fill-opacity="0.0"
       d="m748.28656 330.9824l13.984253 21.291351"
       fill-rule="evenodd"
       id="path342" />
    <path
       stroke="#000000"
       stroke-width="1.0"
       stroke-linejoin="round"
       stroke-linecap="butt"
       d="m750.3672 334.1502l10.022278 15.259064"
       fill-rule="evenodd"
       id="path343" />
    <path
       fill="#000000"
       stroke="#000000"
       stroke-width="1.0"
       stroke-linecap="butt"
       d="m748.5611 331.40033c0.7593384 -0.49874878 1.7792358 -0.2875061 2.2780151 0.4718628c0.49871826 0.7593689 0.2874756 1.7792664 -0.47192383 2.2780151c-0.7593384 0.4987793 -1.7792358 0.2875061 -2.2780151 -0.4718628c-0.49871826 -0.7593689 -0.2874756 -1.7792664 0.47192383 -2.2780151z"
       fill-rule="nonzero"
       id="path344" />
    <path
       fill="#000000"
       stroke="#000000"
       stroke-width="1.0"
       stroke-linecap="butt"
       d="m760.3894 349.40927l-1.557312 -0.32260132l2.6361694 1.9651794l-0.7562256 -3.1999207z"
       fill-rule="evenodd"
       id="path345" />
    <path
       fill="#000000"
       fill-opacity="0.0"
       d="m722.31696 340.74176l11.055115 16.188995"
       fill-rule="evenodd"
       id="path346" />
    <path
       stroke="#000000"
       stroke-width="1.0"
       stroke-linejoin="round"
       stroke-linecap="butt"
       d="m724.4542 343.87164l6.9851685 10.228943"
       fill-rule="evenodd"
       id="path347" />
    <path
       fill="#000000"
       stroke="#000000"
       stroke-width="1.0"
       stroke-linecap="butt"
       d="m722.5989 341.1547c0.7503052 -0.5123596 1.7738037 -0.319458 2.2861938 0.43078613c0.5123291 0.75027466 0.319458 1.7738037 -0.43084717 2.2861633c-0.75024414 0.5123291 -1.7738037 0.319458 -2.2861328 -0.43081665c-0.5123291 -0.75024414 -0.319458 -1.7738037 0.43078613 -2.2861328z"
       fill-rule="nonzero"
       id="path348" />
    <path
       fill="#000000"
       stroke="#000000"
       stroke-width="1.0"
       stroke-linecap="butt"
       d="m731.4394 354.1006l-1.5628662 -0.29452515l2.6710815 1.9174194l-0.8137207 -3.185791z"
       fill-rule="evenodd"
       id="path349" />
    <path
       fill="#000000"
       fill-opacity="0.0"
       d="m733.3721 356.93076l11.055115 16.188965"
       fill-rule="evenodd"
       id="path350" />
    <path
       stroke="#000000"
       stroke-width="1.0"
       stroke-linejoin="round"
       stroke-linecap="butt"
       d="m735.50934 360.06058l6.9851685 10.229004"
       fill-rule="evenodd"
       id="path351" />
    <path
       fill="#000000"
       stroke="#000000"
       stroke-width="1.0"
       stroke-linecap="butt"
       d="m733.654 357.34363c0.7503052 -0.5123291 1.7738037 -0.319458 2.2861938 0.43081665c0.5123291 0.75027466 0.319458 1.7738037 -0.43084717 2.2861328c-0.75024414 0.5123596 -1.7738037 0.31948853 -2.2861328 -0.43078613c-0.5123291 -0.75027466 -0.319458 -1.7738037 0.43078613 -2.2861633z"
       fill-rule="nonzero"
       id="path352" />
    <path
       fill="#000000"
       stroke="#000000"
       stroke-width="1.0"
       stroke-linecap="butt"
       d="m742.4945 370.28955l-1.5628662 -0.29449463l2.6710815 1.9173889l-0.8137207 -3.185791z"
       fill-rule="evenodd"
       id="path353" />
    <path
       fill="#cfe2f3"
       d="m737.47876 373.11807l13.165344 0l0 12.850372l-13.165344 0z"
       fill-rule="evenodd"
       id="path354" />
    <path
       stroke="#000000"
       stroke-width="1.0"
       stroke-linejoin="round"
       stroke-linecap="butt"
       d="m737.47876 373.11807l13.165344 0l0 12.850372l-13.165344 0z"
       fill-rule="evenodd"
       id="path355" />
    <path
       fill="#000000"
       d="m746.1706 382.22202l0 0.78125l-4.421875 0q-0.015625 -0.296875 0.09375 -0.5625q0.171875 -0.453125 0.53125 -0.890625q0.375 -0.4375 1.078125 -1.015625q1.09375 -0.890625 1.46875 -1.40625q0.390625 -0.53125 0.390625 -1.0q0 -0.484375 -0.359375 -0.8125q-0.34375 -0.34375 -0.890625 -0.34375q-0.59375 0 -0.953125 0.359375q-0.359375 0.359375 -0.359375 0.984375l-0.84375 -0.078125q0.09375 -0.953125 0.65625 -1.4375q0.5625 -0.5 1.515625 -0.5q0.953125 0 1.515625 0.53125q0.5625 0.53125 0.5625 1.328125q0 0.390625 -0.171875 0.78125q-0.15625 0.390625 -0.546875 0.828125q-0.375 0.421875 -1.25 1.15625q-0.734375 0.625 -0.953125 0.84375q-0.203125 0.21875 -0.34375 0.453125l3.28125 0z"
       fill-rule="nonzero"
       id="path356" />
    <path
       fill="#cfe2f3"
       d="m755.70447 352.27292l13.165344 0l0 12.850403l-13.165344 0z"
       fill-rule="evenodd"
       id="path357" />
    <path
       stroke="#000000"
       stroke-width="1.0"
       stroke-linejoin="round"
       stroke-linecap="butt"
       d="m755.70447 352.27292l13.165344 0l0 12.850403l-13.165344 0z"
       fill-rule="evenodd"
       id="path358" />
    <path
       fill="#000000"
       d="m760.08386 360.3925l0.828125 -0.109375q0.140625 0.703125 0.46875 1.015625q0.34375 0.296875 0.828125 0.296875q0.578125 0 0.96875 -0.390625q0.40625 -0.40625 0.40625 -1.0q0 -0.5625 -0.375 -0.921875q-0.359375 -0.375 -0.921875 -0.375q-0.234375 0 -0.578125 0.09375l0.078125 -0.71875q0.09375 0 0.140625 0q0.515625 0 0.9375 -0.265625q0.421875 -0.28125 0.421875 -0.84375q0 -0.453125 -0.3125 -0.75q-0.296875 -0.296875 -0.78125 -0.296875q-0.484375 0 -0.796875 0.3125q-0.3125 0.296875 -0.40625 0.890625l-0.828125 -0.140625q0.15625 -0.828125 0.6875 -1.28125q0.53125 -0.453125 1.328125 -0.453125q0.546875 0 1.0 0.234375q0.46875 0.234375 0.703125 0.640625q0.25 0.40625 0.25 0.859375q0 0.4375 -0.234375 0.796875q-0.234375 0.34375 -0.6875 0.5625q0.59375 0.125 0.921875 0.5625q0.328125 0.421875 0.328125 1.078125q0 0.875 -0.640625 1.484375q-0.640625 0.609375 -1.609375 0.609375q-0.875 0 -1.46875 -0.515625q-0.578125 -0.53125 -0.65625 -1.375z"
       fill-rule="nonzero"
       id="path359" />
    <path
       fill="#000000"
       fill-opacity="0.0"
       d="m720.7964 319.80258l21.228394 0l0 15.338593l-21.228394 0z"
       fill-rule="evenodd"
       id="path360" />
    <path
       fill="#000000"
       d="m721.07764 324.9526l0.578125 -0.078125q0.109375 0.484375 0.34375 0.703125q0.25 0.21875 0.59375 0.21875q0.40625 0 0.6875 -0.28125q0.296875 -0.28125 0.296875 -0.703125q0 -0.40625 -0.265625 -0.671875q-0.265625 -0.265625 -0.671875 -0.265625q-0.15625 0 -0.40625 0.078125l0.0625 -0.515625q0.0625 0 0.09375 0q0.375 0 0.671875 -0.1875q0.296875 -0.203125 0.296875 -0.609375q0 -0.3125 -0.21875 -0.515625q-0.21875 -0.21875 -0.5625 -0.21875q-0.34375 0 -0.578125 0.21875q-0.21875 0.203125 -0.28125 0.640625l-0.578125 -0.109375q0.09375 -0.59375 0.46875 -0.90625q0.390625 -0.328125 0.953125 -0.328125q0.390625 0 0.71875 0.171875q0.328125 0.15625 0.5 0.453125q0.1875 0.28125 0.1875 0.609375q0 0.3125 -0.171875 0.5625q-0.171875 0.25 -0.484375 0.40625q0.421875 0.09375 0.65625 0.40625q0.234375 0.296875 0.234375 0.765625q0 0.625 -0.46875 1.0625q-0.453125 0.421875 -1.140625 0.421875q-0.625 0 -1.046875 -0.359375q-0.40625 -0.375 -0.46875 -0.96875zm3.7019043 -1.09375q0 -0.84375 0.171875 -1.359375q0.171875 -0.515625 0.515625 -0.796875q0.34375 -0.28125 0.859375 -0.28125q0.390625 0 0.671875 0.15625q0.296875 0.15625 0.484375 0.453125q0.1875 0.28125 0.296875 0.703125q0.109375 0.40625 0.109375 1.125q0 0.828125 -0.1875 1.34375q-0.171875 0.515625 -0.515625 0.796875q-0.328125 0.28125 -0.859375 0.28125q-0.6875 0 -1.078125 -0.484375q-0.46875 -0.59375 -0.46875 -1.9375zm0.59375 0q0 1.171875 0.265625 1.5625q0.28125 0.375 0.6875 0.375q0.40625 0 0.671875 -0.390625q0.28125 -0.390625 0.28125 -1.546875q0 -1.1875 -0.28125 -1.5625q-0.265625 -0.390625 -0.671875 -0.390625q-0.40625 0 -0.640625 0.34375q-0.3125 0.4375 -0.3125 1.609375zm3.2175293 -1.28125q0 -0.5 0.25 -0.859375q0.265625 -0.359375 0.75 -0.359375q0.453125 0 0.734375 0.328125q0.296875 0.3125 0.296875 0.9375q0 0.59375 -0.296875 0.921875q-0.296875 0.328125 -0.734375 0.328125q-0.421875 0 -0.71875 -0.3125q-0.28125 -0.328125 -0.28125 -0.984375zm1.015625 -0.8125q-0.21875 0 -0.375 0.1875q-0.140625 0.1875 -0.140625 0.6875q0 0.453125 0.140625 0.640625q0.15625 0.1875 0.375 0.1875q0.21875 0 0.359375 -0.1875q0.15625 -0.1875 0.15625 -0.6875q0 -0.453125 -0.15625 -0.640625q-0.140625 -0.1875 -0.359375 -0.1875zm0 4.609375l2.609375 -5.015625l0.46875 0l-2.59375 5.015625l-0.484375 0zm2.0625 -1.296875q0 -0.5 0.25 -0.859375q0.265625 -0.359375 0.75 -0.359375q0.453125 0 0.75 0.328125q0.296875 0.3125 0.296875 0.9375q0 0.59375 -0.296875 0.921875q-0.296875 0.328125 -0.75 0.328125q-0.421875 0 -0.71875 -0.3125q-0.28125 -0.328125 -0.28125 -0.984375zm1.015625 -0.8125q-0.21875 0 -0.359375 0.1875q-0.140625 0.1875 -0.140625 0.6875q0 0.453125 0.140625 0.640625q0.140625 0.1875 0.359375 0.1875q0.21875 0 0.359375 -0.1875q0.15625 -0.1875 0.15625 -0.6875q0 -0.453125 -0.15625 -0.640625q-0.140625 -0.1875 -0.359375 -0.1875z"
       fill-rule="nonzero"
       id="path361" />
    <path
       fill="#000000"
       fill-opacity="0.0"
       d="m732.14526 334.87238l21.228333 0l0 15.338562l-21.228333 0z"
       fill-rule="evenodd"
       id="path362" />
    <path
       fill="#000000"
       d="m732.4265 340.02237l0.578125 -0.078125q0.109375 0.484375 0.34375 0.703125q0.25 0.21875 0.59375 0.21875q0.40625 0 0.6875 -0.28125q0.296875 -0.28125 0.296875 -0.703125q0 -0.40625 -0.265625 -0.671875q-0.265625 -0.265625 -0.671875 -0.265625q-0.15625 0 -0.40625 0.078125l0.0625 -0.515625q0.0625 0 0.09375 0q0.375 0 0.671875 -0.1875q0.296875 -0.203125 0.296875 -0.609375q0 -0.3125 -0.21875 -0.515625q-0.21875 -0.21875 -0.5625 -0.21875q-0.34375 0 -0.578125 0.21875q-0.21875 0.203125 -0.28125 0.640625l-0.578125 -0.109375q0.09375 -0.59375 0.46875 -0.90625q0.390625 -0.328125 0.953125 -0.328125q0.390625 0 0.71875 0.171875q0.328125 0.15625 0.5 0.453125q0.1875 0.28125 0.1875 0.609375q0 0.3125 -0.171875 0.5625q-0.171875 0.25 -0.484375 0.40625q0.421875 0.09375 0.65625 0.40625q0.234375 0.296875 0.234375 0.765625q0 0.625 -0.46875 1.0625q-0.453125 0.421875 -1.140625 0.421875q-0.625 0 -1.046875 -0.359375q-0.40625 -0.375 -0.46875 -0.96875zm3.7018433 -1.09375q0 -0.84375 0.171875 -1.359375q0.171875 -0.515625 0.515625 -0.796875q0.34375 -0.28125 0.859375 -0.28125q0.390625 0 0.671875 0.15625q0.296875 0.15625 0.484375 0.453125q0.1875 0.28125 0.296875 0.703125q0.109375 0.40625 0.109375 1.125q0 0.828125 -0.1875 1.34375q-0.171875 0.515625 -0.515625 0.796875q-0.328125 0.28125 -0.859375 0.28125q-0.6875 0 -1.078125 -0.484375q-0.46875 -0.59375 -0.46875 -1.9375zm0.59375 0q0 1.171875 0.265625 1.5625q0.28125 0.375 0.6875 0.375q0.40625 0 0.671875 -0.390625q0.28125 -0.390625 0.28125 -1.546875q0 -1.1875 -0.28125 -1.5625q-0.265625 -0.390625 -0.671875 -0.390625q-0.40625 0 -0.640625 0.34375q-0.3125 0.4375 -0.3125 1.609375zm3.2175293 -1.28125q0 -0.5 0.25 -0.859375q0.265625 -0.359375 0.75 -0.359375q0.453125 0 0.734375 0.328125q0.296875 0.3125 0.296875 0.9375q0 0.59375 -0.296875 0.921875q-0.296875 0.328125 -0.734375 0.328125q-0.421875 0 -0.71875 -0.3125q-0.28125 -0.328125 -0.28125 -0.984375zm1.015625 -0.8125q-0.21875 0 -0.375 0.1875q-0.140625 0.1875 -0.140625 0.6875q0 0.453125 0.140625 0.640625q0.15625 0.1875 0.375 0.1875q0.21875 0 0.359375 -0.1875q0.15625 -0.1875 0.15625 -0.6875q0 -0.453125 -0.15625 -0.640625q-0.140625 -0.1875 -0.359375 -0.1875zm0 4.609375l2.609375 -5.015625l0.46875 0l-2.59375 5.015625l-0.484375 0zm2.0625 -1.296875q0 -0.5 0.25 -0.859375q0.265625 -0.359375 0.75 -0.359375q0.453125 0 0.75 0.328125q0.296875 0.3125 0.296875 0.9375q0 0.59375 -0.296875 0.921875q-0.296875 0.328125 -0.75 0.328125q-0.421875 0 -0.71875 -0.3125q-0.28125 -0.328125 -0.28125 -0.984375zm1.015625 -0.8125q-0.21875 0 -0.359375 0.1875q-0.140625 0.1875 -0.140625 0.6875q0 0.453125 0.140625 0.640625q0.140625 0.1875 0.359375 0.1875q0.21875 0 0.359375 -0.1875q0.15625 -0.1875 0.15625 -0.6875q0 -0.453125 -0.15625 -0.640625q-0.140625 -0.1875 -0.359375 -0.1875z"
       fill-rule="nonzero"
       id="path363" />
    <path
       fill="#000000"
       fill-opacity="0.0"
       d="m693.23047 336.8801l20.346436 0l0 15.338562l-20.346436 0z"
       fill-rule="evenodd"
       id="path364" />
    <path
       fill="#000000"
       d="m693.6211 344.07446l0.828125 -0.109375q0.140625 0.703125 0.46875 1.015625q0.34375 0.296875 0.828125 0.296875q0.578125 0 0.96875 -0.390625q0.40625 -0.40625 0.40625 -1.0q0 -0.5625 -0.375 -0.921875q-0.359375 -0.375 -0.921875 -0.375q-0.234375 0 -0.578125 0.09375l0.078125 -0.71875q0.09375 0 0.140625 0q0.515625 0 0.9375 -0.265625q0.421875 -0.28125 0.421875 -0.84375q0 -0.453125 -0.3125 -0.75q-0.296875 -0.296875 -0.78125 -0.296875q-0.484375 0 -0.796875 0.3125q-0.3125 0.296875 -0.40625 0.890625l-0.828125 -0.140625q0.15625 -0.828125 0.6875 -1.28125q0.53125 -0.453125 1.328125 -0.453125q0.546875 0 1.0 0.234375q0.46875 0.234375 0.703125 0.640625q0.25 0.40625 0.25 0.859375q0 0.4375 -0.234375 0.796875q-0.234375 0.34375 -0.6875 0.5625q0.59375 0.125 0.921875 0.5625q0.328125 0.421875 0.328125 1.078125q0 0.875 -0.640625 1.484375q-0.640625 0.609375 -1.609375 0.609375q-0.875 0 -1.46875 -0.515625q-0.578125 -0.53125 -0.65625 -1.375zm5.187866 -1.53125q0 -1.1875 0.234375 -1.90625q0.25 -0.71875 0.71875 -1.109375q0.484375 -0.390625 1.21875 -0.390625q0.546875 0 0.9375 0.21875q0.40625 0.21875 0.671875 0.625q0.265625 0.40625 0.40625 1.0q0.15625 0.578125 0.15625 1.5625q0 1.171875 -0.234375 1.90625q-0.234375 0.71875 -0.71875 1.109375q-0.484375 0.390625 -1.21875 0.390625q-0.96875 0 -1.515625 -0.6875q-0.65625 -0.828125 -0.65625 -2.71875zm0.84375 0q0 1.640625 0.375 2.1875q0.390625 0.546875 0.953125 0.546875q0.5625 0 0.953125 -0.546875q0.390625 -0.546875 0.390625 -2.1875q0 -1.640625 -0.390625 -2.1875q-0.390625 -0.546875 -0.953125 -0.546875q-0.578125 0 -0.90625 0.484375q-0.421875 0.609375 -0.421875 2.25z"
       fill-rule="nonzero"
       id="path365" />
    <path
       fill="#000000"
       fill-opacity="0.0"
       d="m706.4861 304.17947l12.692932 0l0 10.425201l-12.692932 0z"
       fill-rule="evenodd"
       id="path366" />
    <path
       fill="#000000"
       d="m709.5017 313.13947l0 -1.59375l-2.890625 0l0 -0.75l3.046875 -4.328125l0.65625 0l0 4.328125l0.90625 0l0 0.75l-0.90625 0l0 1.59375l-0.8125 0zm0 -2.34375l0 -3.015625l-2.09375 3.015625l2.09375 0zm2.5628662 -0.953125q0 -1.1875 0.234375 -1.90625q0.25 -0.71875 0.71875 -1.109375q0.484375 -0.390625 1.21875 -0.390625q0.546875 0 0.9375 0.21875q0.40625 0.21875 0.671875 0.625q0.265625 0.40625 0.40625 1.0q0.15625 0.578125 0.15625 1.5625q0 1.171875 -0.234375 1.90625q-0.234375 0.71875 -0.71875 1.109375q-0.484375 0.390625 -1.21875 0.390625q-0.96875 0 -1.515625 -0.6875q-0.65625 -0.828125 -0.65625 -2.71875zm0.84375 0q0 1.640625 0.375 2.1875q0.390625 0.546875 0.953125 0.546875q0.5625 0 0.953125 -0.546875q0.390625 -0.546875 0.390625 -2.1875q0 -1.640625 -0.390625 -2.1875q-0.390625 -0.546875 -0.953125 -0.546875q-0.578125 0 -0.90625 0.484375q-0.421875 0.609375 -0.421875 2.25z"
       fill-rule="nonzero"
       id="path367" />
    <path
       fill="#000000"
       fill-opacity="0.0"
       d="m732.9561 296.92966l12.692932 0l0 10.425201l-12.692932 0z"
       fill-rule="evenodd"
       id="path368" />
    <path
       fill="#000000"
       d="m733.28424 303.10965l0.75 -0.0625q0.078125 0.53125 0.375 0.8125q0.296875 0.265625 0.71875 0.265625q0.515625 0 0.859375 -0.375q0.359375 -0.390625 0.359375 -1.015625q0 -0.609375 -0.34375 -0.953125q-0.34375 -0.34375 -0.890625 -0.34375q-0.328125 0 -0.609375 0.15625q-0.265625 0.140625 -0.421875 0.390625l-0.671875 -0.078125l0.5625 -2.953125l2.84375 0l0 0.671875l-2.28125 0l-0.3125 1.546875q0.515625 -0.359375 1.078125 -0.359375q0.75 0 1.265625 0.515625q0.515625 0.515625 0.515625 1.34375q0 0.765625 -0.453125 1.34375q-0.546875 0.6875 -1.5 0.6875q-0.78125 0 -1.28125 -0.4375q-0.484375 -0.4375 -0.5625 -1.15625zm4.4492188 -1.328125q0 -1.015625 0.203125 -1.625q0.21875 -0.625 0.625 -0.953125q0.421875 -0.34375 1.046875 -0.34375q0.453125 0 0.796875 0.1875q0.359375 0.1875 0.578125 0.53125q0.234375 0.34375 0.359375 0.859375q0.125 0.5 0.125 1.34375q0 1.015625 -0.203125 1.640625q-0.203125 0.609375 -0.625 0.953125q-0.40625 0.328125 -1.03125 0.328125q-0.828125 0 -1.296875 -0.59375q-0.578125 -0.71875 -0.578125 -2.328125zm0.734375 0q0 1.40625 0.328125 1.875q0.328125 0.46875 0.8125 0.46875q0.484375 0 0.8125 -0.46875q0.328125 -0.46875 0.328125 -1.875q0 -1.40625 -0.328125 -1.875q-0.328125 -0.46875 -0.828125 -0.46875q-0.484375 0 -0.765625 0.40625q-0.359375 0.53125 -0.359375 1.9375z"
       fill-rule="nonzero"
       id="path369" />
    <path
       fill="#000000"
       fill-opacity="0.0"
       d="m745.64905 315.11603l12.692932 0l0 10.425171l-12.692932 0z"
       fill-rule="evenodd"
       id="path370" />
    <path
       fill="#000000"
       d="m749.6803 322.12415l0 0.671875l-3.78125 0q-0.015625 -0.25 0.078125 -0.484375q0.140625 -0.390625 0.453125 -0.765625q0.328125 -0.375 0.921875 -0.875q0.9375 -0.765625 1.265625 -1.203125q0.328125 -0.453125 0.328125 -0.84375q0 -0.421875 -0.296875 -0.703125q-0.296875 -0.296875 -0.78125 -0.296875q-0.5 0 -0.8125 0.3125q-0.296875 0.296875 -0.3125 0.84375l-0.71875 -0.078125q0.078125 -0.8125 0.5625 -1.234375q0.484375 -0.421875 1.296875 -0.421875q0.828125 0 1.296875 0.453125q0.484375 0.453125 0.484375 1.140625q0 0.34375 -0.140625 0.671875q-0.140625 0.328125 -0.46875 0.703125q-0.3125 0.359375 -1.078125 1.0q-0.625 0.53125 -0.8125 0.71875q-0.171875 0.1875 -0.296875 0.390625l2.8125 0zm0.74609375 -0.828125l0.75 -0.0625q0.078125 0.53125 0.375 0.8125q0.296875 0.265625 0.71875 0.265625q0.515625 0 0.859375 -0.375q0.359375 -0.390625 0.359375 -1.015625q0 -0.609375 -0.34375 -0.953125q-0.34375 -0.34375 -0.890625 -0.34375q-0.328125 0 -0.609375 0.15625q-0.265625 0.140625 -0.421875 0.390625l-0.671875 -0.078125l0.5625 -2.953125l2.84375 0l0 0.671875l-2.28125 0l-0.3125 1.546875q0.515625 -0.359375 1.078125 -0.359375q0.75 0 1.265625 0.515625q0.515625 0.515625 0.515625 1.34375q0 0.765625 -0.453125 1.34375q-0.546875 0.6875 -1.5 0.6875q-0.78125 0 -1.28125 -0.4375q-0.484375 -0.4375 -0.5625 -1.15625z"
       fill-rule="nonzero"
       id="path371" />
    <path
       fill="#000000"
       fill-opacity="0.0"
       d="m758.342 333.30237l12.692932 0l0 10.425201l-12.692932 0z"
       fill-rule="evenodd"
       id="path372" />
    <path
       fill="#000000"
       d="m762.3732 340.3105l0 0.671875l-3.78125 0q-0.015625 -0.25 0.078125 -0.484375q0.140625 -0.390625 0.453125 -0.765625q0.328125 -0.375 0.921875 -0.875q0.9375 -0.765625 1.265625 -1.203125q0.328125 -0.453125 0.328125 -0.84375q0 -0.421875 -0.296875 -0.703125q-0.296875 -0.296875 -0.78125 -0.296875q-0.5 0 -0.8125 0.3125q-0.296875 0.296875 -0.3125 0.84375l-0.71875 -0.078125q0.078125 -0.8125 0.5625 -1.234375q0.484375 -0.421875 1.296875 -0.421875q0.828125 0 1.296875 0.453125q0.484375 0.453125 0.484375 1.140625q0 0.34375 -0.140625 0.671875q-0.140625 0.328125 -0.46875 0.703125q-0.3125 0.359375 -1.078125 1.0q-0.625 0.53125 -0.8125 0.71875q-0.171875 0.1875 -0.296875 0.390625l2.8125 0zm0.74609375 -2.15625q0 -1.015625 0.203125 -1.625q0.21875 -0.625 0.625 -0.953125q0.421875 -0.34375 1.046875 -0.34375q0.453125 0 0.796875 0.1875q0.359375 0.1875 0.578125 0.53125q0.234375 0.34375 0.359375 0.859375q0.125 0.5 0.125 1.34375q0 1.015625 -0.203125 1.640625q-0.203125 0.609375 -0.625 0.953125q-0.40625 0.328125 -1.03125 0.328125q-0.828125 0 -1.296875 -0.59375q-0.578125 -0.71875 -0.578125 -2.328125zm0.734375 0q0 1.40625 0.328125 1.875q0.328125 0.46875 0.8125 0.46875q0.484375 0 0.8125 -0.46875q0.328125 -0.46875 0.328125 -1.875q0 -1.40625 -0.328125 -1.875q-0.328125 -0.46875 -0.828125 -0.46875q-0.484375 0 -0.765625 0.40625q-0.359375 0.53125 -0.359375 1.9375z"
       fill-rule="nonzero"
       id="path373" />
    <path
       fill="#000000"
       fill-opacity="0.0"
       d="m612.5092 272.56927l63.212585 0.03149414"
       fill-rule="evenodd"
       id="path401" />
    <path
       stroke="#000000"
       stroke-width="3.0"
       stroke-linejoin="round"
       stroke-linecap="butt"
       d="m612.5092 272.56927l52.931335 0.026367188"
       fill-rule="evenodd"
       id="path402" />
    <path
       fill="#000000"
       stroke="#000000"
       stroke-width="3.0"
       stroke-linecap="butt"
       d="m665.44055 272.59564l-3.3754272 3.3720703l9.270935 -3.3691406l-9.267578 -3.378357z"
       fill-rule="evenodd"
       id="path403" />
  </g>
</svg>
