<?xml version="1.0" encoding="UTF-8" standalone="no"?>
<svg
   version="1.1"
   viewBox="0.0 0.0 816.496062992126 428.86614173228344"
   fill="none"
   stroke="none"
   stroke-linecap="square"
   stroke-miterlimit="10"
   id="svg403"
   sodipodi:docname="proposed_approach_5.svg"
   inkscape:version="1.3.2 (1:1.3.2+202311252150+091e20ef0f)"
   xmlns:inkscape="http://www.inkscape.org/namespaces/inkscape"
   xmlns:sodipodi="http://sodipodi.sourceforge.net/DTD/sodipodi-0.dtd"
   xmlns="http://www.w3.org/2000/svg"
   xmlns:svg="http://www.w3.org/2000/svg">
  <defs
     id="defs403" />
  <sodipodi:namedview
     id="namedview403"
     pagecolor="#ffffff"
     bordercolor="#000000"
     borderopacity="0.25"
     inkscape:showpageshadow="2"
     inkscape:pageopacity="0.0"
     inkscape:pagecheckerboard="0"
     inkscape:deskcolor="#d1d1d1"
     inkscape:zoom="0.46984849"
     inkscape:cx="422.47661"
     inkscape:cy="233.05385"
     inkscape:window-width="1223"
     inkscape:window-height="774"
     inkscape:window-x="57"
     inkscape:window-y="26"
     inkscape:window-maximized="1"
     inkscape:current-layer="g403" />
  <clipPath
     id="p.0">
    <path
       d="m0 0l816.49603 0l0 428.86615l-816.49603 0l0 -428.86615z"
       clip-rule="nonzero"
       id="path1" />
  </clipPath>
  <g
     clip-path="url(#p.0)"
     id="g403">
    <path
       fill="#000000"
       fill-opacity="0.0"
       d="m0 0l816.49603 0l0 428.86615l-816.49603 0z"
       fill-rule="evenodd"
       id="path2" />
    <path
       fill="#fce5cd"
       d="m201.72835 342.70096l0 0c0 -8.741058 7.086029 -15.827087 15.827087 -15.827087l100.912766 0c4.1976013 0 8.223267 1.6674805 11.191437 4.6356506c2.9681396 2.9681396 4.6356506 6.9938354 4.6356506 11.191437l0 63.306458c0 8.741058 -7.086029 15.827087 -15.827087 15.827087l-100.912766 0l0 0c-8.741058 0 -15.827087 -7.086029 -15.827087 -15.827087z"
       fill-rule="evenodd"
       id="path10" />
    <path
       stroke="#e69138"
       stroke-width="4.0"
       stroke-linejoin="round"
       stroke-linecap="butt"
       d="m201.72835 342.70096l0 0c0 -8.741058 7.086029 -15.827087 15.827087 -15.827087l100.912766 0c4.1976013 0 8.223267 1.6674805 11.191437 4.6356506c2.9681396 2.9681396 4.6356506 6.9938354 4.6356506 11.191437l0 63.306458c0 8.741058 -7.086029 15.827087 -15.827087 15.827087l-100.912766 0l0 0c-8.741058 0 -15.827087 -7.086029 -15.827087 -15.827087z"
       fill-rule="evenodd"
       id="path11" />
    <path
       fill="#000000"
       d="m209.38779 364.1873l7.390625 0q2.5 0 3.8125 0.390625q1.765625 0.515625 3.015625 1.84375q1.265625 1.328125 1.921875 3.25q0.65625 1.921875 0.65625 4.734375q0 2.46875 -0.609375 4.265625q-0.765625 2.1875 -2.15625 3.53125q-1.046875 1.03125 -2.84375 1.609375q-1.34375 0.421875 -3.578125 0.421875l-7.609375 0l0 -20.046875zm4.046875 3.390625l0 13.28125l3.015625 0q1.6875 0 2.453125 -0.1875q0.984375 -0.25 1.625 -0.828125q0.65625 -0.59375 1.0625 -1.9375q0.40625 -1.359375 0.40625 -3.6875q0 -2.3125 -0.40625 -3.5625q-0.40625 -1.25 -1.15625 -1.9375q-0.734375 -0.703125 -1.859375 -0.953125q-0.859375 -0.1875 -3.328125 -0.1875l-1.8125 0zm16.158203 0.171875l0 -3.5625l3.84375 0l0 3.5625l-3.84375 0zm0 16.484375l0 -14.515625l3.84375 0l0 14.515625l-3.84375 0zm6.091797 -14.515625l2.140625 0l0 -1.09375q0 -1.84375 0.375 -2.734375q0.390625 -0.90625 1.4375 -1.46875q1.046875 -0.578125 2.65625 -0.578125q1.640625 0 3.203125 0.5l-0.515625 2.671875q-0.921875 -0.21875 -1.765625 -0.21875q-0.828125 0 -1.203125 0.390625q-0.359375 0.390625 -0.359375 1.5l0 1.03125l2.875 0l0 3.015625l-2.875 0l0 11.5l-3.828125 0l0 -11.5l-2.140625 0l0 -3.015625zm9.324219 0l2.140625 0l0 -1.09375q0 -1.84375 0.375 -2.734375q0.390625 -0.90625 1.4375 -1.46875q1.046875 -0.578125 2.65625 -0.578125q1.640625 0 3.203125 0.5l-0.515625 2.671875q-0.921875 -0.21875 -1.765625 -0.21875q-0.828125 0 -1.203125 0.390625q-0.359375 0.390625 -0.359375 1.5l0 1.03125l2.875 0l0 3.015625l-2.875 0l0 11.5l-3.828125 0l0 -11.5l-2.140625 0l0 -3.015625zm20.558594 14.515625l0 -2.171875q-0.78125 1.15625 -2.078125 1.828125q-1.296875 0.671875 -2.734375 0.671875q-1.453125 0 -2.625 -0.640625q-1.15625 -0.640625 -1.6875 -1.796875q-0.515625 -1.171875 -0.515625 -3.21875l0 -9.1875l3.84375 0l0 6.671875q0 3.0625 0.203125 3.75q0.21875 0.6875 0.78125 1.09375q0.5625 0.40625 1.421875 0.40625q0.984375 0 1.765625 -0.53125q0.78125 -0.546875 1.0625 -1.34375q0.296875 -0.8125 0.296875 -3.921875l0 -6.125l3.84375 0l0 14.515625l-3.578125 0zm6.1972656 -4.140625l3.859375 -0.59375q0.25 1.125 1.0 1.703125q0.75 0.578125 2.09375 0.578125q1.5 0 2.25 -0.546875q0.5 -0.375 0.5 -1.015625q0 -0.4375 -0.265625 -0.734375q-0.296875 -0.265625 -1.28125 -0.5q-4.65625 -1.03125 -5.90625 -1.875q-1.71875 -1.171875 -1.71875 -3.265625q0 -1.890625 1.484375 -3.171875q1.5 -1.28125 4.625 -1.28125q2.984375 0 4.4375 0.96875q1.453125 0.96875 2.0 2.875l-3.625 0.65625q-0.234375 -0.84375 -0.890625 -1.296875q-0.640625 -0.453125 -1.84375 -0.453125q-1.515625 0 -2.171875 0.4375q-0.4375 0.296875 -0.4375 0.765625q0 0.421875 0.375 0.703125q0.515625 0.390625 3.578125 1.09375q3.078125 0.6875 4.296875 1.703125q1.203125 1.015625 1.203125 2.84375q0 2.0 -1.671875 3.4375q-1.65625 1.4375 -4.9375 1.4375q-2.953125 0 -4.6875 -1.203125q-1.734375 -1.203125 -2.265625 -3.265625zm16.93164 -12.34375l0 -3.5625l3.84375 0l0 3.5625l-3.84375 0zm0 16.484375l0 -14.515625l3.84375 0l0 14.515625l-3.84375 0zm6.888672 -7.46875q0 -1.90625 0.9375 -3.703125q0.953125 -1.796875 2.671875 -2.734375q1.734375 -0.9375 3.859375 -0.9375q3.296875 0 5.40625 2.140625q2.109375 2.140625 2.109375 5.40625q0 3.296875 -2.125 5.46875q-2.125 2.15625 -5.359375 2.15625q-2.0 0 -3.8125 -0.90625q-1.796875 -0.90625 -2.75 -2.640625q-0.9375 -1.75 -0.9375 -4.25zm3.9375 0.203125q0 2.171875 1.015625 3.328125q1.03125 1.140625 2.53125 1.140625q1.515625 0 2.53125 -1.140625q1.015625 -1.15625 1.015625 -3.34375q0 -2.140625 -1.015625 -3.28125q-1.015625 -1.15625 -2.53125 -1.15625q-1.5 0 -2.53125 1.15625q-1.015625 1.140625 -1.015625 3.296875zm27.259766 7.265625l-3.84375 0l0 -7.40625q0 -2.359375 -0.25 -3.046875q-0.234375 -0.6875 -0.796875 -1.0625q-0.546875 -0.390625 -1.328125 -0.390625q-1.0 0 -1.796875 0.546875q-0.796875 0.546875 -1.09375 1.453125q-0.28125 0.890625 -0.28125 3.328125l0 6.578125l-3.84375 0l0 -14.515625l3.5625 0l0 2.125q1.90625 -2.453125 4.796875 -2.453125q1.265625 0 2.3125 0.453125q1.0625 0.453125 1.59375 1.171875q0.546875 0.703125 0.75 1.609375q0.21875 0.90625 0.21875 2.578125l0 9.03125z"
       fill-rule="nonzero"
       id="path12" />
    <path
       fill="#f3f3f3"
       d="m7.9251966 335.5668l132.56693 0l0 77.5748l-132.56693 0z"
       fill-rule="evenodd"
       id="path383" />
    <path
       stroke="#000000"
       stroke-width="4.0"
       stroke-linejoin="round"
       stroke-linecap="butt"
       d="m7.9251966 335.5668l132.56693 0l0 77.5748l-132.56693 0z"
       fill-rule="evenodd"
       id="path384" />
    <path
       fill="#000000"
       d="m27.05355 370.7717l1.625 0l0 -0.828125q0 -1.390625 0.296875 -2.078125q0.296875 -0.6875 1.09375 -1.125q0.796875 -0.4375 2.015625 -0.4375q1.25 0 2.453125 0.375l-0.40625 2.046875q-0.6875 -0.171875 -1.34375 -0.171875q-0.625 0 -0.90625 0.296875q-0.28125 0.296875 -0.28125 1.140625l0 0.78125l2.1875 0l0 2.296875l-2.1875 0l0 8.765625l-2.921875 0l0 -8.765625l-1.625 0l0 -2.296875zm8.039932 6.984375l0 -2.921875l5.75 0l0 2.921875l-5.75 0zm6.4149323 0.921875l2.9375 -0.453125q0.1875 0.859375 0.75 1.3125q0.578125 0.4375 1.609375 0.4375q1.140625 0 1.71875 -0.421875q0.375 -0.296875 0.375 -0.78125q0 -0.328125 -0.203125 -0.546875q-0.21875 -0.21875 -0.984375 -0.390625q-3.53125 -0.78125 -4.484375 -1.421875q-1.3125 -0.90625 -1.3125 -2.5q0 -1.4375 1.125 -2.40625q1.140625 -0.984375 3.53125 -0.984375q2.265625 0 3.375 0.75q1.109375 0.734375 1.515625 2.171875l-2.75 0.515625q-0.1875 -0.640625 -0.6875 -0.984375q-0.484375 -0.34375 -1.40625 -0.34375q-1.15625 0 -1.65625 0.3125q-0.328125 0.234375 -0.328125 0.59375q0 0.3125 0.296875 0.53125q0.390625 0.296875 2.71875 0.828125q2.34375 0.53125 3.28125 1.296875q0.90625 0.78125 0.90625 2.1875q0 1.515625 -1.265625 2.609375q-1.265625 1.09375 -3.765625 1.09375q-2.25 0 -3.578125 -0.90625q-1.3125 -0.921875 -1.71875 -2.5zm17.97107 -7.90625l0 2.328125l-2.0 0l0 4.46875q0 1.34375 0.046875 1.578125q0.0625 0.21875 0.265625 0.375q0.203125 0.140625 0.5 0.140625q0.40625 0 1.171875 -0.28125l0.25 2.265625q-1.015625 0.4375 -2.3125 0.4375q-0.796875 0 -1.4375 -0.265625q-0.625 -0.265625 -0.921875 -0.6875q-0.296875 -0.421875 -0.40625 -1.140625q-0.09375 -0.515625 -0.09375 -2.0625l0 -4.828125l-1.34375 0l0 -2.328125l1.34375 0l0 -2.1875l2.9375 -1.71875l0 3.90625l2.0 0zm4.2118073 3.375l-2.65625 -0.484375q0.453125 -1.59375 1.546875 -2.359375q1.09375 -0.78125 3.25 -0.78125q1.953125 0 2.90625 0.46875q0.96875 0.453125 1.359375 1.171875q0.390625 0.71875 0.390625 2.625l-0.03125 3.40625q0 1.46875 0.125 2.15625q0.140625 0.6875 0.53125 1.484375l-2.890625 0q-0.109375 -0.296875 -0.28125 -0.859375q-0.078125 -0.265625 -0.109375 -0.34375q-0.75 0.71875 -1.609375 1.09375q-0.84375 0.359375 -1.8125 0.359375q-1.703125 0 -2.6875 -0.921875q-0.984375 -0.9375 -0.984375 -2.34375q0 -0.9375 0.4375 -1.671875q0.453125 -0.734375 1.25 -1.125q0.8125 -0.390625 2.34375 -0.6875q2.046875 -0.390625 2.84375 -0.71875l0 -0.296875q0 -0.84375 -0.421875 -1.203125q-0.421875 -0.359375 -1.578125 -0.359375q-0.78125 0 -1.21875 0.3125q-0.4375 0.3125 -0.703125 1.078125zm3.921875 2.375q-0.5625 0.1875 -1.78125 0.453125q-1.21875 0.25 -1.59375 0.5q-0.578125 0.40625 -0.578125 1.03125q0 0.625 0.453125 1.078125q0.46875 0.4375 1.171875 0.4375q0.796875 0 1.515625 -0.515625q0.53125 -0.40625 0.6875 -0.96875q0.125 -0.375 0.125 -1.4375l0 -0.578125zm10.830444 -5.75l0 2.328125l-2.0 0l0 4.46875q0 1.34375 0.046875 1.578125q0.0625 0.21875 0.265625 0.375q0.203125 0.140625 0.5 0.140625q0.40625 0 1.171875 -0.28125l0.25 2.265625q-1.015625 0.4375 -2.3125 0.4375q-0.796875 0 -1.4375 -0.265625q-0.625 -0.265625 -0.921875 -0.6875q-0.296875 -0.421875 -0.40625 -1.140625q-0.09375 -0.515625 -0.09375 -2.0625l0 -4.828125l-1.34375 0l0 -2.328125l1.34375 0l0 -2.1875l2.9375 -1.71875l0 3.90625l2.0 0zm2.0243073 -1.5l0 -2.703125l2.921875 0l0 2.703125l-2.921875 0zm0 12.5625l0 -11.0625l2.921875 0l0 11.0625l-2.921875 0zm4.894394 -3.15625l2.9375 -0.453125q0.1875 0.859375 0.75 1.3125q0.578125 0.4375 1.609375 0.4375q1.140625 0 1.71875 -0.421875q0.375 -0.296875 0.375 -0.78125q0 -0.328125 -0.203125 -0.546875q-0.21875 -0.21875 -0.984375 -0.390625q-3.53125 -0.78125 -4.484375 -1.421875q-1.3125 -0.90625 -1.3125 -2.5q0 -1.4375 1.125 -2.40625q1.140625 -0.984375 3.53125 -0.984375q2.265625 0 3.375 0.75q1.109375 0.734375 1.515625 2.171875l-2.75 0.515625q-0.1875 -0.640625 -0.6875 -0.984375q-0.484375 -0.34375 -1.40625 -0.34375q-1.15625 0 -1.65625 0.3125q-0.328125 0.234375 -0.328125 0.59375q0 0.3125 0.296875 0.53125q0.390625 0.296875 2.71875 0.828125q2.34375 0.53125 3.28125 1.296875q0.90625 0.78125 0.90625 2.1875q0 1.515625 -1.265625 2.609375q-1.265625 1.09375 -3.765625 1.09375q-2.25 0 -3.578125 -0.90625q-1.3125 -0.921875 -1.71875 -2.5zm17.97107 -7.90625l0 2.328125l-2.0 0l0 4.46875q0 1.34375 0.046875 1.578125q0.0625 0.21875 0.265625 0.375q0.203125 0.140625 0.5 0.140625q0.40625 0 1.171875 -0.28125l0.25 2.265625q-1.015625 0.4375 -2.3125 0.4375q-0.796875 0 -1.4375 -0.265625q-0.625 -0.265625 -0.921875 -0.6875q-0.296875 -0.421875 -0.40625 -1.140625q-0.09375 -0.515625 -0.09375 -2.0625l0 -4.828125l-1.34375 0l0 -2.328125l1.34375 0l0 -2.1875l2.9375 -1.71875l0 3.90625l2.0 0zm2.0243073 -1.5l0 -2.703125l2.921875 0l0 2.703125l-2.921875 0zm0 12.5625l0 -11.0625l2.921875 0l0 11.0625l-2.921875 0zm15.566269 -7.796875l-2.875 0.53125q-0.15625 -0.875 -0.671875 -1.3125q-0.515625 -0.4375 -1.328125 -0.4375q-1.09375 0 -1.75 0.765625q-0.65625 0.75 -0.65625 2.515625q0 1.96875 0.65625 2.78125q0.671875 0.8125 1.78125 0.8125q0.84375 0 1.375 -0.46875q0.53125 -0.46875 0.75 -1.625l2.859375 0.484375q-0.4375 1.984375 -1.71875 3.0q-1.265625 1.0 -3.390625 1.0q-2.4375 0 -3.875 -1.53125q-1.4375 -1.53125 -1.4375 -4.234375q0 -2.75 1.4375 -4.265625q1.453125 -1.53125 3.921875 -1.53125q2.015625 0 3.203125 0.875q1.203125 0.859375 1.71875 2.640625z"
       fill-rule="nonzero"
       id="path385" />
    <path
       fill="#000000"
       fill-opacity="0.0"
       d="m139.20866 374.3542l62.519684 0"
       fill-rule="evenodd"
       id="path389" />
    <path
       stroke="#000000"
       stroke-width="3.0"
       stroke-linejoin="round"
       stroke-linecap="butt"
       d="m139.20866 374.35416l52.238434 0"
       fill-rule="evenodd"
       id="path390" />
    <path
       fill="#000000"
       stroke="#000000"
       stroke-width="3.0"
       stroke-linecap="butt"
       d="m191.44708 374.35416l-3.3737488 3.3737488l9.269302 -3.3737488l-9.269302 -3.3737488z"
       fill-rule="evenodd"
       id="path391" />
    <path
       fill="#000000"
       fill-opacity="0.0"
       d="m334.99213 378.30106l71.275604 -94.80316"
       fill-rule="evenodd"
       id="path398" />
    <path
       stroke="#000000"
       stroke-width="3.0"
       stroke-linejoin="round"
       stroke-linecap="butt"
       d="m334.99213 378.30106l65.09723 -86.58536"
       fill-rule="evenodd"
       id="path399" />
    <path
       fill="#000000"
       stroke="#000000"
       stroke-width="3.0"
       stroke-linecap="butt"
       d="m400.08936 291.7157l0.66922 4.7240295l2.8736267 -9.43634l-8.266876 5.3815613z"
       fill-rule="evenodd"
       id="path400" />
  </g>
</svg>
