<?xml version="1.0" encoding="UTF-8" standalone="no"?>
<!-- Generator: Adobe Illustrator 23.0.3, SVG Export Plug-In . SVG Version: 6.00 Build 0)  -->

<svg
   version="1.1"
   id="svg134"
   x="0px"
   y="0px"
   viewBox="0 0 700 414.9"
   style="enable-background:new 0 0 700 414.9;"
   xml:space="preserve"
   sodipodi:docname="sel_hmm_full.svg"
   inkscape:version="1.3.2 (091e20e, 2023-11-25)"
   xmlns:inkscape="http://www.inkscape.org/namespaces/inkscape"
   xmlns:sodipodi="http://sodipodi.sourceforge.net/DTD/sodipodi-0.dtd"
   xmlns="http://www.w3.org/2000/svg"
   xmlns:svg="http://www.w3.org/2000/svg"><defs
   id="defs117" />
<style
   type="text/css"
   id="style1">
	.st0{opacity:0.3;fill:#1F77B4;enable-background:new    ;}
	.st1{opacity:0.3;fill:#FF7F0E;enable-background:new    ;}
	.st2{opacity:0.3;fill:#2CA02C;enable-background:new    ;}
	.st3{fill:none;stroke:#FF7F0E;stroke-width:0.6722;stroke-linejoin:round;stroke-dasharray:2.4872,1.0755;}
	.st4{stroke:#000000;stroke-width:1.5041;}
	.st5{stroke:#000000;stroke-width:1.1416;}
	.st6{fill:none;stroke:#000000;stroke-width:1.7808;stroke-linecap:round;stroke-linejoin:round;}
	.st7{fill:#8C0000;}
	.st8{fill:#870303;stroke:#000000;stroke-width:2;stroke-linecap:round;stroke-linejoin:round;}
	.st9{fill:none;stroke:#000000;stroke-width:0.5106;stroke-linecap:round;stroke-linejoin:round;}
	.st10{fill:#010B7F;}
	.st11{fill:none;stroke:#000000;stroke-width:0.4;stroke-linecap:round;stroke-linejoin:round;}
</style>
<sodipodi:namedview
   bordercolor="#000000"
   borderopacity="0.25"
   id="namedview134"
   inkscape:current-layer="Layer_1"
   inkscape:cx="335.29191"
   inkscape:cy="229.80682"
   inkscape:deskcolor="#d1d1d1"
   inkscape:pagecheckerboard="0"
   inkscape:pageopacity="0.0"
   inkscape:showpageshadow="2"
   inkscape:window-height="847"
   inkscape:window-maximized="1"
   inkscape:window-width="1384"
   inkscape:window-x="62"
   inkscape:window-y="25"
   inkscape:zoom="0.79632102"
   pagecolor="#ffffff">
	</sodipodi:namedview>
<title
   id="title1">sel_hmm</title>
<g
   id="Layer_1">
	<path
   id="rect136-3"
   class="st9"
   d="M148.9,149.1h515.4c3.1,0,5.6,2.4,5.6,5.3v246.3c0,3-2.5,5.3-5.6,5.3H148.9   c-3.1,0-5.6-2.4-5.6-5.3V154.5C143.2,151.5,145.8,149.1,148.9,149.1z"
   style="fill:#ffffff;fill-opacity:0.5" /><path
   id="rect136-2"
   class="st9"
   d="M148.8,49.3h515.4c3.1,0,5.6,0.5,5.6,1.2v53.3c0,0.6-2.5,1.2-5.6,1.2H148.8   c-3.1,0-5.6-0.5-5.6-1.2V50.5C143.2,49.8,145.7,49.3,148.8,49.3z"
   style="fill:#ececec;fill-opacity:1" /><path
   id="rect136-3_1_"
   class="st11"
   d="M183.2,192.9h37.3c0.2,0,0.4,1.9,0.4,4.2V390c0,2.3-0.2,4.2-0.4,4.2h-37.3   c-0.2,0-0.4-1.9-0.4-4.2V197.1C182.8,194.8,183,192.9,183.2,192.9z"
   style="fill:#ececec" /><g
   transform="matrix(0.67220823,0,0,0.67220823,-870.81431,117.47878)"
   id="g1">
		<rect
   id="rect35213"
   x="1668.7"
   y="122.8"
   class="st0"
   width="39.8"
   height="18" />
		<rect
   id="rect35215"
   x="1668.7"
   y="147.9"
   class="st1"
   width="39.8"
   height="18" />
		<rect
   id="rect35217"
   x="1668.7"
   y="172.9"
   class="st2"
   width="39.8"
   height="18" />
		<rect
   id="rect35219"
   x="1668.7"
   y="232.5"
   class="st0"
   width="39.8"
   height="18" />
		<rect
   id="rect35221"
   x="1668.7"
   y="257.5"
   class="st1"
   width="39.8"
   height="18" />
		<rect
   id="rect35223"
   x="1668.7"
   y="282.5"
   class="st2"
   width="39.8"
   height="18" />
		<rect
   id="rect35225"
   x="1668.7"
   y="334"
   class="st0"
   width="39.8"
   height="18" />
		<rect
   id="rect35227"
   x="1668.7"
   y="359"
   class="st1"
   width="39.8"
   height="18" />
		<rect
   id="rect35229"
   x="1668.7"
   y="384"
   class="st2"
   width="39.8"
   height="18" />
	</g>
	<path
   id="path35354"
   d="M115,195.3c0.2,25.5,0.5,51.1,0.8,76.6c0.3,25.1-0.2,50.3-0.1,75.5c0.1,14.4,0.3,28.9,0.5,43.3   c0,0.9,1.4,0.9,1.4,0c-1-50.6-0.2-101.3-0.7-151.9c-0.2-14.5-0.5-29-0.6-43.4c0-0.4-0.3-0.7-0.7-0.7   C115.3,194.6,115,194.9,115,195.3L115,195.3z" />
	<path
   id="path35356"
   d="M78.8,177.5c-1,5.3-1,10.8,0,16.1c0.2,0.9,1.5,0.5,1.3-0.4c-0.9-5.1-0.9-10.3,0-15.4   C80.3,177,78.9,176.6,78.8,177.5L78.8,177.5z" />
	<path
   id="path35358"
   d="M80.2,179.6c1.9-1.9,3.5,2,3.4,3.4c-0.2,2-2,3.6-4,2.6c-0.3-0.2-0.7-0.1-0.9,0.2c-0.2,0.3-0.1,0.7,0.2,0.9   c3,1.7,6.1-1,6-4.2c0-2.7-3-6.6-5.7-4C78.6,179.3,79.6,180.2,80.2,179.6L80.2,179.6z" />
	<path
   id="path35360"
   d="M92.9,185.2c0-1.7-1.4-3-3.1-3c-0.4,0-0.9,0.1-1.3,0.3c-2.3,1.1-4.4,4.6-4.3,7.1c0,1.7,1.4,3.1,3.1,3.1   c0.4,0,0.9-0.1,1.3-0.3c3-1.2,3.2-4.9,3.3-7.6c0-0.9-1.3-0.9-1.4,0c-0.2,2.9,0.3,5.9,1.5,8.6c0.4,0.8,1.5,0.1,1.2-0.7   c-1.1-2.5-1.5-5.2-1.3-7.9h-1.4c0,1.4-0.1,2.9-0.6,4.3c-0.6,1.6-3.9,4-4.3,0.5c-0.2-1.2,0.6-2.5,1.2-3.5c0.4-0.7,0.9-1.3,1.5-1.8   c1-0.9,3.1-1.2,3.2,0.9C91.6,186,92.9,186,92.9,185.2L92.9,185.2z" />
	<path
   id="path35362"
   d="M100,183.9c-1.3-2.7-5.3-2.6-6,0.5c-0.3,1.4,0.2,2.9,1.3,3.8c0.6,0.4,1.2,0.6,1.9,0.7   c0.4,0,0.9,0.1,1.3,0.2c1,1.6,0.6,2.4-1.1,2.4c-0.5-0.1-1.1-0.2-1.6-0.4c-0.4-0.1-0.7,0.2-0.8,0.6c-0.1,0.3,0.1,0.7,0.4,0.8   c1.5,0.4,3.2,0.8,4.4-0.5c1-0.9,1.1-2.3,0.4-3.4c-1-1.2-2.7-0.8-3.9-1.5c-1-0.7-1.4-2.1-0.7-3.2c0.9-1.4,2.7-0.6,3.2,0.6   C99.2,185.4,100.4,184.7,100,183.9L100,183.9z" />
	<path
   id="path35364"
   d="M103.8,175.4c-0.8,4.8-0.9,9.6-0.3,14.4c0.3,2.2,2,5.5,4.5,3.3c0.7-0.6-0.3-1.5-1-1c-0.7,0.6-1.9-0.9-2-1.5   c-0.2-0.8-0.3-1.6-0.3-2.4c-0.1-1.3-0.2-2.6-0.2-4c0-2.9,0.2-5.8,0.6-8.6C105.2,174.9,103.9,174.5,103.8,175.4L103.8,175.4z" />
	<path
   id="path35366"
   d="M100.9,185.5c2.1-0.4,4.2-0.5,6.3-0.2c0.9,0.1,1.2-1.2,0.4-1.3c-2.3-0.4-4.7-0.3-7,0.2   C99.6,184.4,100,185.7,100.9,185.5L100.9,185.5z" />
	<path
   id="path35368"
   d="M80.2,378.5l0,15c0,0.4,0.3,0.7,0.7,0.7c0.4,0,0.7-0.3,0.7-0.7l0-15c0-0.4-0.3-0.7-0.7-0.7   C80.5,377.8,80.2,378.1,80.2,378.5L80.2,378.5z" />
	<path
   id="path35370"
   d="M81.3,379.6l5.9,12.7c0.3,0.7,1.2,0.2,1.3-0.3c0.6-4.8,1-9.6,1.1-14.5c0-0.9-1.4-0.9-1.4,0   c-0.1,4.8-0.5,9.7-1.1,14.5l1.3-0.3l-5.9-12.7C82.1,378.1,80.9,378.8,81.3,379.6z" />
	<path
   id="path35372"
   d="M91.2,386.1c-0.4,2.4-0.7,5.8,2,7c2.7,1.1,5.3-1.3,6.1-3.7c0.8-2.5-0.1-6-2.9-6.9c-2.6-0.8-5,1.2-5.5,3.6   c-0.2,0.9,1.1,1.2,1.3,0.4c0.4-1.6,1.8-3.2,3.6-2.8c2.3,0.6,2.8,3.6,2.1,5.5c-0.6,1.6-2.5,3.6-4.4,2.5c-1.7-1-1.3-3.6-1-5.2   C92.7,385.6,91.4,385.2,91.2,386.1L91.2,386.1z" />
	<path
   id="path35374"
   d="M99.9,382.9c0.2,3.5,0.7,7.1,1.3,10.6c0.1,0.6,0.9,0.6,1.2,0.2c1.2-1.8,2.1-3.8,2.7-5.9l-1.4-0.2   c0.1,0.9,0.4,7.2,3,5.1c1.1-0.9,1.3-3.2,1.6-4.5c0.5-2.2,0.8-4.4,0.9-6.7c0.1-0.9-1.3-0.9-1.4,0c-0.2,2.4-0.5,4.8-1.1,7.1   c-0.1,0.4-0.4,3-1.2,2.5c-0.4-0.2-0.5-3-0.5-3.6c-0.1-0.7-1.1-1-1.3-0.2c-0.5,2-1.4,3.9-2.6,5.6l1.2,0.2c-0.6-3.4-1-6.8-1.3-10.2   C101.2,382,99.8,382,99.9,382.9L99.9,382.9z" />
	<path
   id="path35376"
   d="M96.2,219.2c-1.2,4.3-2.2,9.1-2.1,13.6c0.1,3.2,3.2,2.8,5.6,2c0.8-0.3,0.5-1.6-0.4-1.3   c-1.7,0.5-3.4,1-3.9-1.1c-0.3-1.2,0.2-3.1,0.3-4.3c0.3-2.9,0.9-5.7,1.7-8.5c0.1-0.4-0.2-0.7-0.6-0.8   C96.6,218.7,96.3,218.9,96.2,219.2L96.2,219.2z" />
	<path
   id="path35378"
   d="M91.5,227.7c2.6-0.7,5.3-0.8,7.9-0.2c0.9,0.2,1.2-1.1,0.4-1.3c-2.8-0.6-5.8-0.5-8.6,0.2   c-0.4,0.1-0.6,0.5-0.5,0.9C90.8,227.5,91.1,227.7,91.5,227.7L91.5,227.7z" />
	<path
   id="path35380"
   d="M101.8,230.6c-1.4,1.4-1.5,4.2-0.1,5.7c1.5,1.8,3.9,0.6,4.8-1.2c0.8-1.9,0.4-4.8-1.5-6   c-2.1-1.4-4.2,0.8-4.7,2.7c-0.2,0.9,1.1,1.2,1.3,0.4c0.3-1.2,1.5-2.9,2.8-1.8c1,0.9,1.2,2.6,0.9,3.8c-0.4,1.3-2,2.4-2.8,0.9   c-0.6-1-0.5-2.7,0.3-3.5C103.4,230.9,102.5,229.9,101.8,230.6L101.8,230.6z" />
	<path
   id="path35382"
   d="M95.8,355.2c-1.2,4.3-2.2,9.1-2.1,13.6c0.1,3.2,3.2,2.8,5.6,2c0.8-0.3,0.5-1.6-0.4-1.3   c-1.7,0.5-3.4,1-3.9-1.1c-0.3-1.2,0.2-3.1,0.3-4.3c0.3-2.9,0.9-5.7,1.7-8.5c0.1-0.4-0.1-0.7-0.5-0.8   C96.2,354.6,95.9,354.8,95.8,355.2L95.8,355.2z" />
	<path
   id="path35384"
   d="M91.1,363.6c2.6-0.7,5.3-0.8,7.9-0.2c0.9,0.2,1.2-1.1,0.4-1.3c-2.8-0.6-5.8-0.5-8.6,0.2   c-0.4,0.1-0.6,0.5-0.5,0.9C90.4,363.5,90.7,363.7,91.1,363.6L91.1,363.6z" />
	<path
   id="path35386"
   d="M100.8,364.6c0.2,2.8,0.1,5.5-0.4,8.3c-0.1,0.9,1.2,1.2,1.3,0.4c0.5-2.8,0.6-5.7,0.4-8.6   C102.1,363.7,100.8,363.7,100.8,364.6z" />
	<path
   id="path35388"
   d="M105.4,365.3c-0.9,1.8-2.2,3.4-3.8,4.6c-0.5,0.4-0.4,1.4,0.3,1.3c1.9-0.3,3.7,0.4,4.9,1.9   c0.5,0.7,1.7,0,1.2-0.7c-1.4-1.9-3.7-2.9-6.1-2.6l0.3,1.3c1.8-1.3,3.3-3.1,4.3-5.1C107,365.2,105.8,364.6,105.4,365.3L105.4,365.3z   " />
	<path
   id="path35390"
   d="M96.3,282.5c-1.2,4.3-2.2,9.1-2.1,13.6c0.1,3.2,3.2,2.8,5.6,2c0.8-0.3,0.5-1.6-0.4-1.3   c-1.7,0.5-3.4,1-3.9-1.1c-0.3-1.2,0.2-3.1,0.3-4.3c0.3-2.9,0.9-5.7,1.7-8.5c0.1-0.4-0.2-0.7-0.6-0.8   C96.8,282,96.5,282.2,96.3,282.5L96.3,282.5z" />
	<path
   id="path35392"
   d="M91.7,290.9c2.6-0.7,5.3-0.8,7.9-0.2c0.9,0.2,1.2-1.1,0.4-1.3c-2.8-0.6-5.8-0.5-8.6,0.2   c-0.4,0.1-0.6,0.5-0.4,0.9C91,290.8,91.3,291,91.7,290.9L91.7,290.9z" />
	<path
   id="path35394"
   d="M101.5,297.1c1.6-1.1,2.8-2.4,3.2-4.3l-1.3-0.2c0,1.9,0,3.7-0.1,5.6c0,0.5,0.1,0.6-0.4,0.7   c-0.3,0-0.5,0-0.8-0.1c-0.4,0-0.8,0.1-1.2,0.3c-0.3,0.2-0.4,0.6-0.2,1c0.1,0.2,0.3,0.3,0.6,0.3l4.1,0c0.4,0,0.7-0.3,0.7-0.7   c0-0.4-0.3-0.7-0.7-0.7l-4.1,0l0.3,1.3c1-0.7,2.4,0.6,2.9-1c0.3-0.9,0.1-2.1,0.1-3l0.1-3.7c0-0.8-1.2-1-1.3-0.2   c-0.3,1.5-1.3,2.7-2.6,3.5C100.1,296.4,100.8,297.6,101.5,297.1L101.5,297.1z" />
	<path
   id="path35396"
   d="M115.6,227.5h-3.1c-0.4,0-0.7,0.3-0.7,0.7c0,0.4,0.3,0.7,0.7,0.7l0,0h3.1c0.4,0,0.7-0.3,0.7-0.7   C116.3,227.8,116,227.5,115.6,227.5L115.6,227.5z" />
	<path
   id="path35398"
   d="M116.9,292.6h-4c-0.4,0-0.7,0.3-0.7,0.7c0,0.4,0.3,0.7,0.7,0.7l0,0h4c0.4,0,0.7-0.3,0.7-0.7   C117.6,292.9,117.3,292.6,116.9,292.6z" />
	<path
   id="path35400"
   d="M115.6,364.4h-3.1c-0.4,0-0.7,0.3-0.7,0.7c0,0.4,0.3,0.7,0.7,0.7l0,0h3.1c0.4,0,0.7-0.3,0.7-0.7   C116.3,364.7,116,364.4,115.6,364.4L115.6,364.4z" />
	<path
   id="path35402"
   d="M252.3,197.6c-1.3,0.1-2.6,0.1-3.9,0.2c-0.8,0.1-1.8,0-2.6,0.2c-1.5,0.5-1.3,2-1.2,3.3   c0.4,5.3,0.7,10.6,0.9,15.9c0.4,10.4,0.2,20.9-0.3,31.3c0,0.3,0.2,0.6,0.5,0.6c0,0,0.1,0,0.1,0c3.6-0.2,7.3-0.5,11-0.7   c0.7,0,0.5-1.1-0.2-1.1c-3.6,0.2-7.3,0.5-11,0.7c0.2,0.2,0.4,0.4,0.6,0.6c0.5-9.3,0.6-18.6,0.4-27.9c-0.1-4.3-0.3-8.7-0.6-13   c-0.1-1.2-0.1-2.3-0.2-3.5c-0.1-1.1-0.4-2.4-0.3-3.5c0.2-2.2,1.8-1.8,3.3-1.9c1.2-0.1,2.4-0.1,3.6-0.2   C253.2,198.7,253,197.6,252.3,197.6L252.3,197.6z" />
	<path
   id="path35404"
   d="M275.5,198.2c2.1,0.2,4.2,0.4,6.4,0.5l-0.5-0.5c-1,9.1-1.3,18.3-0.9,27.5c0.2,4.4,0.5,8.8,1,13.2l0.4,3.1   c0.1,1.2,0.7,2.7-0.1,3.7c-0.7,1-2.4,0.9-3.7,1.1l-3.9,0.7c-0.3,0-0.5,0.3-0.4,0.6c0,0.3,0.3,0.5,0.6,0.4c0,0,0,0,0.1,0   c2.4-0.4,5.2-0.5,7.5-1.3c1.5-0.5,1.4-1.5,1.2-2.8c-0.6-5.2-1.2-10.5-1.5-15.7c-0.6-10.1-0.3-20.2,0.8-30.3c0-0.3-0.2-0.5-0.5-0.5   c-2.1-0.2-4.2-0.4-6.4-0.5c-0.3-0.1-0.5,0.1-0.6,0.4C275,197.9,275.2,198.1,275.5,198.2C275.5,198.2,275.5,198.2,275.5,198.2   L275.5,198.2z" />
	<path
   id="path35406"
   d="M253.5,205.7c-1.3,1.7-0.5,4.1,1.5,4.9c2.6,1.1,5.8-1.2,6.8-3.6c1.1-2.4-0.7-4.5-3.1-4.9   c-2.5-0.4-4.9,0.9-6,3.2c-0.4,0.8,0.8,1.5,1.2,0.7c0.5-1.2,1.5-2.1,2.8-2.5c1.4-0.4,3.9-0.1,4.1,1.8c0.1,1.7-1.9,3.5-3.4,4   c-0.9,0.3-1.9,0.3-2.6-0.5c-0.6-0.6-0.9-1.5-0.3-2.2C255.1,205.9,254.1,204.9,253.5,205.7L253.5,205.7z" />
	<path
   id="path35408"
   d="M266.7,201.1c-2.4,2.6-4,5.9-4.7,9.4c-0.2,0.9,1.1,1.2,1.3,0.4c0.6-3.3,2.1-6.3,4.3-8.8   C268.3,201.4,267.3,200.5,266.7,201.1z" />
	<path
   id="path35410"
   d="M269.5,204.8c0.1-0.8,0.4-2,1.2-2.3c0.6-0.2,0.6,0.4,0.6,0.9c0,0.5-0.1,1.1-0.3,1.6c-0.5,1.6-1.5,2.8-2.6,4   c-0.3,0.3-0.3,0.7,0,1c0.1,0.1,0.2,0.1,0.3,0.2c2.1,0.4,4.3,0.5,6.4,0.5c0.9,0,0.9-1.4,0-1.4c-2,0.1-4.1-0.1-6.1-0.4l0.3,1.1   c1.8-2,4.3-5.4,3.1-8.2c-0.4-1-1.4-1.1-2.3-0.6c-1.2,0.6-1.8,2-2,3.2C268.1,205.3,269.4,205.7,269.5,204.8L269.5,204.8z" />
	<path
   id="path35412"
   d="M258,220.5c0.2-0.3,0.5-0.5,0.8-0.7c1.6,0.3,2,0.8,1.4,1.5c-0.2,0.6-0.7,1.1-1.4,1.3l0.4,1.3   c1.1-0.5,2,0.9,1.1,1.9c-0.6,0.6-1.6,0.6-2.4,0.4c-0.7-0.2-2.8-0.7-2.8-1.7c0-0.9-1.4-0.9-1.4,0c0,1.5,1.3,2.1,2.5,2.6   c1.5,0.6,3.3,1,4.7,0c2.2-1.7,0.7-5.6-2.1-4.5c-0.4,0.1-0.6,0.5-0.5,0.9c0.1,0.3,0.5,0.5,0.8,0.5c1.7-0.4,3.3-2.9,2.4-4.5   c-1-1.9-3.4-1.2-4.5,0.2C256.4,220.2,257.4,221.2,258,220.5L258,220.5z" />
	<path
   id="path35414"
   d="M266.8,218.3c-1.6,2.8-2.9,5.7-4,8.8c-0.1,0.4,0.1,0.7,0.5,0.8c0.1,0,0.1,0,0.2,0l0,0   c0.4,0,0.7-0.3,0.7-0.7c0-0.1,0-0.1,0-0.2v0c-0.3-0.8-1.6-0.5-1.3,0.4l0,0l0.7-0.9l0,0l0.7,0.9c1-2.9,2.3-5.8,3.8-8.4   c0.2-0.3,0.1-0.7-0.2-0.9C267.4,217.8,267,217.9,266.8,218.3L266.8,218.3z" />
	<path
   id="path35416"
   d="M270.4,220.4c1.2-0.4,1.4-0.1,0.8,0.9c-0.4,0.3-0.9,0.5-1.4,0.4v1.4c1.2-0.1,3.9,0.7,2.8,2.5   c-0.4,0.7-4.4,1.2-4.5,0c-0.1-0.9-1.5-0.9-1.4,0c0.1,1.3,1,2,2.3,2c1.3,0.1,3.5,0.1,4.5-1c0.8-1,0.8-2.4,0.1-3.4   c-0.8-1.3-2.4-1.6-3.8-1.5c-0.4,0-0.7,0.3-0.7,0.7c0,0.4,0.3,0.7,0.7,0.7c1.8,0,3.8-1.5,2.8-3.5c-0.5-0.9-1.6-1.3-2.5-0.8   c-0.5,0.3-0.9,0.7-1,1.3C268.8,220.9,270.2,221.3,270.4,220.4L270.4,220.4z" />
	<path
   id="path35418"
   d="M257.7,294.6c-0.1-0.8,0.2-1.8,1.3-1.8c1.3,0,1.4,1.6,0.8,2.4c-0.5,0.8-1.8,1.3-2.6,1.9   c-1.2,0.8-2.1,2-2,3.5c0,0.4,0.3,0.7,0.7,0.7l6.1-0.2c0.9,0,0.9-1.4,0-1.4l-6.1,0.2l0.7,0.7c-0.1-2.9,7.3-4.3,4.5-8   c-1.7-2.3-5.1-0.6-4.8,2.1C256.4,295.5,257.7,295.5,257.7,294.6L257.7,294.6z" />
	<path
   id="path35420"
   d="M265.7,291.3c-0.8,3.2-1.8,6.3-2.9,9.4c-0.3,0.8,1,1.2,1.3,0.4c1.1-3.1,2.1-6.3,2.9-9.4   C267.2,290.9,265.9,290.5,265.7,291.3L265.7,291.3z" />
	<path
   id="path35422"
   d="M269.4,293.9c0.5-0.6,0.4-0.8,1.2-0.4c0.6,0.1,0.8,0.3,0.4,0.8c-0.1,0.5-0.5,0.9-1,0.9   c-0.4,0.1-0.6,0.5-0.5,0.8c0.1,0.3,0.3,0.5,0.6,0.5c1.7,0.2,2.6,2.2,0.9,3.2c-1.2,0.7-2.8,0.4-3-1.2c-0.1-0.9-1.5-0.5-1.3,0.4   c0.5,3,4.1,3.2,6,1.3c2.2-2.2,0-4.7-2.5-5l0.2,1.3c1.6-0.5,2.7-2.2,2-3.8c-0.9-2-2.9-1-3.9,0.2   C267.9,293.6,268.9,294.6,269.4,293.9L269.4,293.9z" />
	<path
   id="path35424"
   d="M255.3,238.4c-0.9,2.5-0.5,5.3,2.3,6.4c2.2,0.9,4.7-2.2,5.3-4.1c0.7-2.3-1-5.1-3.2-5.8   c-2.9-0.9-3.7,2.6-4.4,4.5c-0.3,0.8,1,1.2,1.3,0.4c0.2-0.6,0.4-1.2,0.6-1.8c0.4-1.1,0.5-1.6,1.7-1.6c2.1,0,3.4,2.6,2.4,4.4   c-0.6,1.1-2.1,3-3.6,2.5c-2-0.7-1.7-3.1-1.2-4.6C257,237.9,255.7,237.6,255.3,238.4L255.3,238.4z" />
	<path
   id="path35426"
   d="M266.7,234.6l-2,8.9c-0.2,0.9,1.1,1.2,1.3,0.4l2-8.9C268.2,234.2,266.9,233.8,266.7,234.6z" />
	<path
   id="path35428"
   d="M270.2,240.6c1-0.4,1.9-1.2,2.6-2.1c0.8-1.2,0.5-2.4,1.1-3.6l-1.3-0.3c0.1,1.6-0.1,3.3-0.3,4.9   c-0.2,1.4-0.1,3.6-1.9,3.4c-0.8-0.1-0.9,1.2-0.2,1.3c1.1,0.3,2.3,0.4,3.4,0.2c0.9-0.1,0.9-1.5,0-1.4c-1,0.1-2,0.1-3-0.2l-0.2,1.3   c2.3,0.2,2.4-0.2,2.8-2.4c0.5-2.4,0.8-4.8,0.7-7.3c0-0.6-1-1-1.3-0.3c-0.4,0.8-0.3,1.6-0.5,2.5c-0.3,1.3-1.4,2.2-2.6,2.7   C268.7,239.8,269.4,241,270.2,240.6L270.2,240.6z" />
	<path
   id="path35430"
   d="M257,383.1c2-1.2,3.1-3.4,3-5.7c0-0.4-0.3-0.7-0.7-0.7s-0.7,0.3-0.7,0.7v6.9c0,1.1,0,1.5-1.2,1.5   c-0.9,0-0.9,1.3,0,1.4c0.9,0.1,1.8,0.2,2.7,0.3c0.9,0.2,1.2-1.2,0.4-1.3c-1-0.2-2-0.3-3-0.4v1.4c0.7,0.1,1.3,0,2-0.1   c0.2-0.1,0.4-0.3,0.5-0.5c0.3-1.3,0.1-2.8,0.1-4.1v-5.1h-1.4c0.1,1.8-0.8,3.6-2.3,4.5C255.5,382.3,256.2,383.5,257,383.1L257,383.1   z" />
	<path
   id="path35432"
   d="M265.3,376.6c-0.7,3.3-1.2,6.8-2.5,9.9c-0.3,0.7,0.9,1.1,1.2,0.5l0.3-0.5c0.5-0.7-0.7-1.4-1.2-0.7l-0.3,0.5   l1.3,0.5c1.3-3.2,1.8-6.6,2.5-9.9C266.8,376.1,265.4,375.7,265.3,376.6L265.3,376.6z" />
	<path
   id="path35434"
   d="M269.1,384c2-1.6,3.2-4.1,3.1-6.6c0-0.9-1.3-0.9-1.4,0l-0.3,5.2c0,0.7,0,1.5-0.1,2.2   c-0.2,1.2-0.2,1.2-1.4,1.2v1.4h3.5c0.4,0,0.7-0.3,0.7-0.7c0-0.4-0.3-0.7-0.7-0.7H269c-0.4,0-0.7,0.3-0.7,0.7c0,0.4,0.3,0.7,0.7,0.7   c1.5,0,2.5,0.2,2.7-1.5c0.3-2.8,0.3-5.7,0.5-8.5h-1.4c0,2.2-1,4.3-2.7,5.7C267.4,383.6,268.4,384.5,269.1,384L269.1,384z" />
	<path
   id="path35436"
   d="M252.3,271.3c-1.3,0.1-2.6,0.1-3.9,0.2c-0.8,0.1-1.8,0-2.6,0.2c-1.5,0.5-1.3,2-1.2,3.3   c0.4,5.3,0.7,10.6,0.9,15.9c0.4,10.4,0.2,20.9-0.3,31.3c0,0.3,0.2,0.6,0.5,0.6c0,0,0.1,0,0.1,0c3.6-0.2,7.3-0.5,11-0.7   c0.7,0,0.5-1.1-0.2-1.1c-3.6,0.2-7.3,0.5-11,0.7c0.2,0.2,0.4,0.4,0.6,0.6c0.5-9.3,0.6-18.6,0.4-27.9c-0.1-4.3-0.3-8.7-0.6-13   c-0.1-1.2-0.1-2.3-0.2-3.5c-0.1-1.1-0.4-2.4-0.3-3.5c0.2-2.2,1.8-1.8,3.3-1.9c1.2-0.1,2.4-0.1,3.6-0.2   C253.2,272.4,253,271.3,252.3,271.3L252.3,271.3z" />
	<path
   id="path35438"
   d="M275.5,271.9c2.1,0.2,4.2,0.4,6.4,0.5l-0.5-0.5c-1,9.1-1.3,18.3-0.9,27.5c0.2,4.4,0.5,8.8,1,13.2l0.4,3.1   c0.1,1.2,0.7,2.7-0.1,3.7c-0.7,1-2.4,0.9-3.7,1.1l-3.9,0.7c-0.3,0-0.5,0.3-0.4,0.6s0.3,0.5,0.6,0.4c0,0,0,0,0.1,0   c2.4-0.4,5.2-0.5,7.5-1.3c1.5-0.5,1.4-1.5,1.2-2.8c-0.6-5.2-1.2-10.5-1.5-15.7c-0.6-10.1-0.3-20.2,0.8-30.3c0-0.3-0.2-0.5-0.5-0.5   c-2.1-0.2-4.2-0.4-6.4-0.5c-0.3-0.1-0.5,0.1-0.6,0.4C275,271.5,275.2,271.8,275.5,271.9C275.5,271.9,275.5,271.9,275.5,271.9   L275.5,271.9z" />
	<path
   id="path35440"
   d="M253.5,279.3c-1.3,1.7-0.5,4.1,1.5,4.9c2.6,1.1,5.8-1.2,6.8-3.6c1.1-2.4-0.7-4.5-3.1-4.9   c-2.5-0.4-4.9,0.9-6,3.2c-0.4,0.8,0.8,1.5,1.2,0.7c0.5-1.2,1.5-2.1,2.8-2.5c1.4-0.4,3.9-0.1,4.1,1.8c0.1,1.7-1.9,3.5-3.4,4   c-0.9,0.3-1.9,0.3-2.6-0.5c-0.6-0.6-0.9-1.5-0.3-2.2C255.1,279.6,254.1,278.6,253.5,279.3L253.5,279.3z" />
	<path
   id="path35442"
   d="M266.7,274.8c-2.4,2.6-4,5.9-4.7,9.4c-0.2,0.9,1.1,1.2,1.3,0.4c0.6-3.3,2.1-6.3,4.3-8.8   C268.3,275.1,267.3,274.2,266.7,274.8z" />
	<path
   id="path35444"
   d="M269.5,278.5c0.1-0.8,0.4-2,1.2-2.3c0.6-0.2,0.6,0.4,0.6,0.9c0,0.5-0.1,1.1-0.3,1.6c-0.5,1.6-1.5,2.8-2.6,4   c-0.3,0.3-0.3,0.7,0,1c0.1,0.1,0.2,0.1,0.3,0.2c2.1,0.4,4.3,0.5,6.4,0.5c0.9,0,0.9-1.4,0-1.4c-2,0.1-4.1-0.1-6.1-0.4l0.3,1.1   c1.8-2,4.3-5.4,3.1-8.2c-0.4-1-1.4-1.1-2.3-0.6c-1.2,0.6-1.8,2-2,3.2C268.1,279,269.4,279.4,269.5,278.5L269.5,278.5z" />
	<path
   id="path35446"
   d="M252.3,339.6c-1.3,0.1-2.6,0.1-3.9,0.2c-0.8,0.1-1.8,0-2.6,0.2c-1.5,0.5-1.3,2-1.2,3.3   c0.4,5.3,0.7,10.6,0.9,15.9c0.4,10.4,0.2,20.9-0.3,31.3c0,0.3,0.2,0.6,0.5,0.6c0,0,0.1,0,0.1,0c3.6-0.2,7.3-0.5,11-0.7   c0.7,0,0.5-1.1-0.2-1.1c-3.6,0.2-7.3,0.5-11,0.7c0.2,0.2,0.4,0.4,0.6,0.6c0.5-9.3,0.6-18.6,0.4-27.9c-0.1-4.3-0.3-8.7-0.6-13   c-0.1-1.2-0.1-2.3-0.2-3.5c-0.1-1.1-0.4-2.4-0.3-3.5c0.2-2.2,1.8-1.8,3.3-1.9c1.2-0.1,2.4-0.1,3.6-0.2   C253.2,340.6,253,339.5,252.3,339.6L252.3,339.6z" />
	<path
   id="path35448"
   d="M275.5,340.1c2.1,0.2,4.2,0.4,6.4,0.5l-0.5-0.5c-1,9.1-1.3,18.3-0.9,27.5c0.2,4.4,0.5,8.8,1,13.2l0.4,3.1   c0.1,1.2,0.7,2.7-0.1,3.7c-0.7,1-2.4,0.9-3.7,1.1l-3.9,0.7c-0.3,0-0.5,0.3-0.4,0.6c0,0.3,0.3,0.5,0.6,0.4c0,0,0,0,0.1,0   c2.4-0.4,5.2-0.5,7.5-1.3c1.5-0.5,1.4-1.5,1.2-2.8c-0.6-5.2-1.2-10.5-1.5-15.7c-0.6-10.1-0.3-20.2,0.8-30.3c0-0.3-0.2-0.5-0.5-0.5   c-2.1-0.2-4.2-0.4-6.4-0.5c-0.3-0.1-0.5,0.1-0.6,0.4C275,339.8,275.2,340,275.5,340.1C275.5,340.1,275.5,340.1,275.5,340.1   L275.5,340.1z" />
	<path
   id="path35450"
   d="M253.5,347.6c-1.3,1.7-0.5,4.1,1.5,4.9c2.6,1.1,5.8-1.2,6.8-3.6c1.1-2.4-0.7-4.5-3.1-4.9   c-2.5-0.4-4.9,0.9-6,3.2c-0.4,0.8,0.8,1.5,1.2,0.7c0.5-1.2,1.5-2.1,2.8-2.5c1.4-0.4,3.9-0.1,4.1,1.8c0.1,1.7-1.9,3.5-3.4,4   c-0.9,0.3-1.9,0.3-2.6-0.5c-0.6-0.6-0.9-1.5-0.3-2.2C255.1,347.8,254.1,346.9,253.5,347.6L253.5,347.6z" />
	<path
   id="path35452"
   d="M266.7,343.1c-2.4,2.6-4,5.9-4.7,9.4c-0.2,0.9,1.1,1.2,1.3,0.4c0.6-3.3,2.1-6.3,4.3-8.8   C268.3,343.4,267.3,342.4,266.7,343.1L266.7,343.1z" />
	<path
   id="path35454"
   d="M269.5,346.8c0.1-0.8,0.4-2,1.2-2.3c0.6-0.2,0.6,0.4,0.6,0.9c0,0.5-0.1,1.1-0.3,1.6c-0.5,1.6-1.5,2.8-2.6,4   c-0.3,0.3-0.3,0.7,0,1c0.1,0.1,0.2,0.1,0.3,0.2c2.1,0.4,4.3,0.5,6.4,0.5c0.9,0,0.9-1.4,0-1.4c-2,0.1-4.1-0.1-6.1-0.4l0.3,1.1   c1.8-2,4.3-5.4,3.1-8.2c-0.4-1-1.4-1.1-2.3-0.6c-1.2,0.6-1.8,2-2,3.2C268.1,347.3,269.4,347.6,269.5,346.8L269.5,346.8z" />
	<path
   id="path35456"
   d="M256.6,365.9c1.9-1.2,3.1-3.2,3.3-5.4c0.1-0.9-1.3-0.9-1.4,0c-0.4,2.9-0.6,5.7-0.8,8.6l0.7-0.7   c-0.6,0-1.2,0.2-1.8,0.5c-0.3,0.2-0.4,0.6-0.2,1c0.1,0.2,0.3,0.3,0.6,0.3l2.8,0c0.9,0,0.9-1.4,0-1.4l-2.8,0l0.3,1.3l1.1-0.3   c0.4,0,0.7-0.3,0.7-0.7c0.2-2.9,0.4-5.7,0.8-8.6h-1.4c-0.2,1.7-1.1,3.3-2.6,4.2C255.2,365.2,255.9,366.4,256.6,365.9L256.6,365.9z" />
	<path
   id="path35458"
   d="M265.2,359.8c-0.7,3.4-1.8,6.7-3,10c-0.3,0.8,1,1.2,1.3,0.4c1.3-3.2,2.3-6.6,3-10   C266.7,359.3,265.4,359,265.2,359.8z" />
	<path
   id="path35460"
   d="M269.9,362.1c1.4-0.6,1.8-0.3,1.2,1c-0.3,0.5-0.8,0.9-1.4,1c-0.5,0.2-0.7,1.2,0,1.3c1.1,0.2,2.4,1,2,2.4   c-0.7,2.2-3.1,0.7-3.6-0.6c-0.3-0.8-1.6-0.5-1.3,0.4c0.9,2.2,3.7,3.8,5.6,1.7c1.9-2.1,0-4.8-2.3-5.2v1.3c1.8-0.7,3.6-2.8,2.1-4.7   c-1.2-1.5-3.8-0.6-3.6,1.4C268.6,363,270,363,269.9,362.1L269.9,362.1z" />
	<path
   id="path35462"
   d="M255.3,312.1c-0.9,2.5-0.5,5.3,2.3,6.4c2.2,0.9,4.7-2.2,5.3-4.1c0.7-2.3-1-5.1-3.2-5.8   c-2.9-0.9-3.7,2.6-4.4,4.5c-0.3,0.8,1,1.2,1.3,0.4c0.2-0.6,0.4-1.2,0.6-1.8c0.4-1.1,0.5-1.6,1.7-1.6c2.1,0,3.4,2.6,2.4,4.4   c-0.6,1.1-2.1,3-3.6,2.5c-2-0.7-1.7-3.1-1.2-4.6C257,311.6,255.7,311.3,255.3,312.1L255.3,312.1z" />
	<path
   id="path35464"
   d="M266.7,308.3l-2,8.9c-0.2,0.9,1.1,1.2,1.3,0.4l2-8.9C268.2,307.8,266.9,307.5,266.7,308.3L266.7,308.3z" />
	<path
   id="path35466"
   d="M270.2,314.3c1-0.4,1.9-1.2,2.6-2.1c0.8-1.2,0.5-2.4,1.1-3.6l-1.3-0.3c0.1,1.6-0.1,3.3-0.3,4.9   c-0.2,1.4-0.1,3.6-1.9,3.4c-0.8-0.1-0.9,1.2-0.2,1.3c1.1,0.3,2.3,0.4,3.4,0.2c0.9-0.1,0.9-1.5,0-1.4c-1,0.1-2,0.1-3-0.2l-0.2,1.3   c2.3,0.2,2.4-0.2,2.8-2.4c0.5-2.4,0.8-4.8,0.7-7.3c0-0.6-1-1-1.3-0.3c-0.4,0.8-0.3,1.6-0.5,2.5c-0.3,1.3-1.4,2.2-2.6,2.7   C268.7,313.5,269.4,314.7,270.2,314.3L270.2,314.3z" />
	<path
   id="path35468"
   d="M193.3,154.8c-0.3,2.6-1.9,5.2-2.6,7.7c-0.7,2.5-1.3,5.1-1.8,7.7l1.1,0.1l0-0.4c-0.1-0.6-1.2-0.6-1.1,0   l0,0.4c0.1,0.5,1,0.7,1.1,0.1c0.6-2.8,1.1-5.5,2-8.3c0.7-2.5,2.2-4.9,2.5-7.4C194.5,154.2,193.4,154.2,193.3,154.8L193.3,154.8z" />
	<path
   id="path35470"
   d="M193.3,156l2.4,13.8c0.1,0.5,1.1,0.4,1.1-0.1l0.1-0.2c0.4-0.5-0.6-1-1-0.5c-0.2,0.2-0.2,0.4-0.2,0.7   l1.1-0.1l-2.4-13.8C194.3,155.2,193.2,155.4,193.3,156L193.3,156z" />
	<path
   id="path35472"
   d="M190.9,165.1c1.7-0.3,3.4-0.5,5.2-0.5c0.3,0,0.6-0.2,0.6-0.5c0-0.3-0.2-0.5-0.6-0.5c-1.8,0-3.7,0.2-5.5,0.5   C189.9,164.3,190.2,165.3,190.9,165.1L190.9,165.1z" />
	<path
   id="path35474"
   d="M198.3,154.9l-0.1,15.3c0,0.3,0.2,0.5,0.6,0.5s0.6-0.2,0.6-0.5l0.1-15.3c0-0.3-0.2-0.5-0.6-0.5   S198.3,154.6,198.3,154.9z" />
	<path
   id="path35476"
   d="M200.8,155.2c0.3,2.5,0.3,5,0.1,7.5c-0.2,2.5,0.5,4.9-0.1,7.3c-0.1,0.6,0.9,0.9,1.1,0.3   c0.6-2.4-0.1-4.6,0.1-7c0.2-2.7,0.2-5.4,0-8.1C201.8,154.6,200.7,154.6,200.8,155.2L200.8,155.2z" />
	<path
   id="path35478"
   d="M203.1,165.1c2.1-0.1,5.5-1,5-3.8c-0.2-1.2-1.3-2.1-2.6-1.9c-0.6,0.1-1.1,0.4-1.4,0.8   c-1.5,1.8-1.7,5.6-0.8,7.7c0.9,2.2,3.5,2.8,5.5,1.7c0.6-0.3,0.1-1.3-0.6-1c-1.1,0.6-2.4,0.4-3.3-0.4c-0.9-0.9-0.9-2.3-0.9-3.5   c0-0.5,0.1-3.1,0.7-3.4l2.1,1.2c-0.3,0.5-0.8,0.9-1.4,1.1c-0.7,0.3-1.5,0.4-2.3,0.4C202.4,164,202.4,165.1,203.1,165.1L203.1,165.1   z" />
	<path
   id="path35480"
   d="M210.4,154.3c-1.1,2-0.5,4.7-0.5,6.8l0.1,8.7c0,0.6,1.1,0.6,1.1,0l-0.1-7.4l-0.1-3.7c0-1.2-0.3-2.7,0.4-3.9   C211.7,154.2,210.7,153.7,210.4,154.3L210.4,154.3z" />
	<path
   id="path35482"
   d="M213,166.1c2.1-0.7,4.6-2.5,3.6-5.1c-0.8-2-3.1-1.8-3.9,0.1c-0.5,1.2-0.5,2.7-0.7,4   c-0.1,1.3-0.1,2.6,0.6,3.7c1.1,1.7,3.4,2,4.6,0.3c0.4-0.6-0.5-1.1-1-0.6c-1.5,2-3.1-0.7-3.2-2c0-0.9,0.1-1.8,0.2-2.7l0.2-1.2   c0-1.1,0.7-1.1,2.1,0.1c0.1,1.2-2.1,2.1-2.9,2.4C212.1,165.3,212.4,166.4,213,166.1L213,166.1z" />
	<path
   id="path35484"
   d="M199.6,177.8c-0.5,1.9-0.5,3.9,0,5.9c0.3,1.2,1.1,3.4,2.5,3.8c3.4,0.8,2.4-7.6,2.1-9.1   c-0.1-0.6-1.1-0.5-1.1,0.1c0.2,3,0.6,6,1.1,8.9c0.1,0.7,1.2,0.4,1.1-0.3c-0.5-2.9-0.8-5.7-1-8.6l-1.1,0.1c0.3,1.3,0.4,2.6,0.4,3.9   c0,0.6,0,1.5-0.2,2.1c0.1,0.6-0.2,0.9-0.8,0.9c-0.5,0.4-0.8,0.3-1-0.2c-0.6-0.5-0.9-2.2-1-3c-0.2-1.4-0.1-2.8,0.2-4.2   c0.1-0.3-0.1-0.6-0.4-0.7C199.9,177.4,199.6,177.5,199.6,177.8L199.6,177.8z" />
	<path
   id="path35486"
   d="M207,183.2c2-0.3,4.1-1.9,3.4-4.2c-0.3-1.2-1.5-1.9-2.7-1.6c-0.4,0.1-0.7,0.3-1,0.5   c-2.8,2.6-1.2,11.6,3.6,9.4c0.6-0.3,0.1-1.3-0.6-1c-0.9,0.4-1.9-0.2-2.4-0.9c-0.3-0.5-0.5-1-0.7-1.5c-0.3-1.1-0.3-2.3,0-3.5   c0.1-0.4,0.2-0.8,0.5-1.2c0.2-0.5,0.7-0.8,1.2-0.9l1,0.9c0.2,0.8-0.3,1.9-1,2.3c-0.5,0.3-1.1,0.4-1.7,0.5   C206,182.2,206.3,183.3,207,183.2L207,183.2z" />
	<path
   id="path35488"
   d="M210.8,177.9c0,3,0.2,5.9,0.6,8.9c0.1,0.7,1.2,0.7,1.1,0c-0.4-3-0.6-5.9-0.6-8.9c0-0.3-0.2-0.6-0.6-0.6   C211.1,177.3,210.8,177.6,210.8,177.9z" />
	<path
   id="path35490"
   d="M212.1,180.8c0.2-0.8,0.7-2.4,1.6-2.6c0.7-0.2,1.4,0.7,1.6,1.3c0.2,0.6,0.3,1.2,0.3,1.9   c0.2,2,0.2,4.1,0.1,6.2c0,0.6,0.9,0.7,1.1,0.1l0.2-0.7c0.2-0.7-0.9-1-1.1-0.3l-0.2,0.7l1.1,0.1c0.2-2.3,0.1-4.6-0.2-6.9   c-0.1-1.1-0.3-2.5-1.3-3.2c-2-1.7-4,1.4-4.4,3.1C210.9,181.2,212,181.5,212.1,180.8L212.1,180.8z" />
	<path
   id="path35492"
   d="M222.2,179c-0.1-1-0.9-1.8-2-1.7c-0.2,0-0.4,0.1-0.6,0.2c-1.6,0.6-2.2,2.5-2.1,4c0,1.7,0.4,4.1,1.7,5.3   c1.2,1.1,2.5,0.6,3.4-0.5c0.4-0.6-0.3-1.3-0.8-0.8c-0.3,0.5-0.7,0.6-1.3,0.1c-0.9,0.1-1.3-0.3-1.4-1.1c-0.1-0.4-0.2-0.9-0.3-1.3   c-0.2-0.7-0.2-1.4-0.2-2l0.1-1.1c0.3-1.3,1-1.6,2.3-1.1C221.1,179.7,222.3,179.7,222.2,179L222.2,179z" />
	<path
   id="path35494"
   d="M223,177.5c-0.1,1.7-1.3,11.3,2.5,10.7c1.4-0.2,2.4-2.4,2.8-3.6c0.7-2,0.6-4.2-0.1-6.2   c-0.2-0.7-1.3-0.4-1.1,0.3c0.6,2.3,0.5,4.7,0.3,7.1c-0.1,1-0.2,2-0.3,3c-0.1,1.4-0.6,5.4-2.9,3.2c-0.5-0.5-1.3,0.3-0.8,0.8   c1.7,1.6,4.2,0.6,4.6-1.7c0.4-2,0.4-4.3,0.6-6.4c0.2-2.1,0.1-4.3-0.4-6.4l-1.1,0.3c0.5,1.4,0.7,3,0.4,4.5c-0.1,0.7-0.3,1.3-0.6,1.9   c-0.4,0.8-0.7,1.6-1.7,1.4c-2.2-0.5-1.2-7.4-1.1-9.1C224.1,176.8,223,176.8,223,177.5L223,177.5z" />
	<path
   id="path35496"
   d="M174.6,173.9l0.5,12.8c0,0.6,1.1,0.6,1.1,0l-0.5-12.8C175.7,173.3,174.6,173.3,174.6,173.9z" />
	<path
   id="path35498"
   d="M174.7,174.5l8.2,0.2c0.7,0,0.7-0.9,0-0.9l-8.2-0.2C173.9,173.6,173.9,174.5,174.7,174.5L174.7,174.5z" />
	<path
   id="path35500"
   d="M175.1,178.9c1.7,0.3,3.5,0.4,5.3,0.3c0.7,0,0.7-1,0-0.9c-1.7,0.1-3.4,0-5-0.3   C174.7,177.9,174.4,178.8,175.1,178.9L175.1,178.9z" />
	<path
   id="path35502"
   d="M182.2,180.6c0.2-0.4,0.3-1,0.7-1.2c0.6-0.3,0.1-0.1,0.6,0.1c0.4,0.1,0.7,0.4,1.1,0.4c0.9,0,1.7-0.5,2-1.3   l-1-0.6c-1,2.4-2.1,4.9-1.9,7.5c0.2,2.4,1.2,2,3.1,1.4c0.3-0.1,0.4-0.4,0.3-0.7c-0.1-0.3-0.4-0.4-0.6-0.4c-1.1,0.3-1.7,0.9-1.7-0.6   c0-0.7,0-1.5,0.2-2.2c0.4-1.5,0.9-3,1.5-4.4c0.3-0.6-0.6-1.2-1-0.6c-0.8,1.7-1.7-0.2-2.7-0.1c-0.8,0.1-1.5,1.5-1.7,2.2   C181,180.6,181.9,181.2,182.2,180.6L182.2,180.6z" />
	<path
   id="path35504"
   d="M189.1,182.7c1.9,0.2,3.3-1.8,3.2-3.6c-0.1-1.8-1.8-2.7-3-1.1c-1.3,1.8-1.8,5.2-1,7.3   c0.7,1.7,2.5,2.8,4,1.3c0.2-0.2,0.2-0.6,0-0.8c-0.2-0.2-0.5-0.2-0.8,0l-1.6,0l-0.4-0.6c-0.3-0.6-0.4-1.2-0.4-1.8   c0-1,0.1-1.9,0.4-2.9c0.1-0.3,0.2-0.7,0.3-1l0.3-0.8l1,0.4c0.6,1.1-1.1,2.6-2.1,2.5C188.4,181.5,188.4,182.7,189.1,182.7   L189.1,182.7z" />
	<path
   id="path35506"
   d="M198.5,180.6c0.1-1.9-1.5-3.8-3.6-2.9c-2.1,0.9-2.1,3.7-1.8,5.5c0.3,1.7,1.4,4.3,3.7,3.5   c2.2-0.8,1.6-4.9,1.5-6.6c0-0.7-1.1-0.7-1.1,0l0.3,14.2c0,0.7,1.1,0.7,1.1,0l-0.3-14.2h-1.1c0,1,0.1,2,0,2.9c0,0.5-0.1,1-0.1,1.5   c-1.5,0.9-2.3,0.7-2.6-0.3c-0.4-0.8-0.5-1.9-0.5-2.8c0-0.7,0.1-1.4,0.4-2c2.1-0.7,3.1-0.4,2.9,1.1   C197.4,181.3,198.5,181.3,198.5,180.6L198.5,180.6z" />
	
	<path
   id="path35538"
   d="M112.8,391.4l3.8-0.3c0.9-0.1,0.9-1.4,0-1.4l-3.8,0.3C111.9,390.1,111.9,391.4,112.8,391.4z" />
	<path
   id="path35762"
   d="M199.7,245.7c-1,9.8,1.2,19.8-1.2,29.5l1.2-0.2c-1-1.6-1.9-3.4-2.5-5.2c-0.3-0.8-1.6-0.5-1.3,0.4   c0.6,2.2,1.9,4.2,3.7,5.6c0.3,0.3,0.7,0.2,1,0c0.1-0.1,0.2-0.3,0.2-0.5c0.2-2.9,3.1-3.5,3.8-6c0.1-0.4-0.2-0.7-0.6-0.8   c-0.3-0.1-0.7,0.1-0.8,0.4c-0.4,1.5-2,2.1-2.9,3.3c-0.6,0.9-0.9,2-1,3.1l1.2-0.5c-1.6-1.2-2.8-3-3.3-5l-1.3,0.4   c0.7,1.9,1.6,3.8,2.7,5.5c0.2,0.3,0.6,0.4,1,0.2c0.1-0.1,0.3-0.2,0.3-0.4c2.4-9.8,0.2-19.9,1.2-29.9   C201.2,244.8,199.8,244.8,199.7,245.7L199.7,245.7z" />
	<path
   id="path35764"
   d="M199.7,313.9c-1,9.8,1.2,19.8-1.2,29.5l1.2-0.2c-1-1.6-1.9-3.4-2.5-5.2c-0.3-0.8-1.6-0.5-1.3,0.4   c0.6,2.2,1.9,4.2,3.7,5.6c0.3,0.3,0.7,0.2,1,0c0.1-0.1,0.2-0.3,0.2-0.5c0.2-2.9,3.1-3.5,3.8-6c0.1-0.4-0.2-0.7-0.6-0.8   c-0.3-0.1-0.7,0.1-0.8,0.4c-0.4,1.5-2,2.1-2.9,3.3c-0.6,0.9-0.9,2-1,3.1l1.2-0.5c-1.6-1.2-2.8-3-3.3-5l-1.3,0.4   c0.7,1.9,1.6,3.8,2.7,5.5c0.2,0.3,0.6,0.4,1,0.2c0.1-0.1,0.3-0.2,0.3-0.4c2.4-9.8,0.2-19.9,1.2-29.9   C201.2,313.1,199.8,313.1,199.7,313.9L199.7,313.9z" />
	
	
	
	
	
	
	
	
	
	
	
	
	
	
	
	
	
	
	
	
	
	
	
	
	
	
	
	
	
	
	
	
	
	
	
	
	
	
	
	
	
	
	
	
	
	
	
	
	
	
	<path
   id="path36000"
   d="M194.3,212.3c0.7,3.7,2.2,7.3,3.5,10.8l3.8,11c0.2,0.7,1.4,0.6,1.3-0.2l-0.1-1.1c-0.1-0.9-1.4-0.9-1.4,0   l0.1,1.1l1.3-0.2l-3.8-11c-1.2-3.5-2.8-7.1-3.5-10.8C195.4,211,194.1,211.4,194.3,212.3L194.3,212.3z" />
	<path
   id="path36002"
   d="M203.9,211.5c-1.3,1.4-1.9,3.2-2.6,4.9c-0.9,2.2-1.9,4.4-2.8,6.6l-2.8,6.6c-0.6,1.4-1.9,3.2-1.9,4.8   c0,0.4,0.3,0.7,0.7,0.7c0.1,0,0.2,0,0.3-0.1l0.1-0.1c0.3-0.2,0.4-0.5,0.3-0.8l0-0.1c-0.3-0.8-1.6-0.5-1.3,0.4l0,0.1l0.3-0.8   l-0.1,0.1l1,0.6c0-1,0.9-2.4,1.3-3.3l1.1-2.5l2.3-5.3c0.8-1.8,1.5-3.6,2.3-5.3c0.8-1.8,1.4-4,2.8-5.5   C205.5,211.9,204.5,210.9,203.9,211.5L203.9,211.5z" />
	<path
   id="path36012"
   d="M206,227.9c-1.4,1.9-1.4,5.4,0,7.3c1.5,2.1,3.8,0.6,4.6-1.3c0.9-2.3,0.8-6.6-1.5-8.1   c-2.4-1.7-4.2,1.7-4.5,3.6c-0.2,0.9,1.2,1.2,1.3,0.4c0.3-1.4,1.7-4.5,3.1-2c0.8,1.7,1,3.6,0.5,5.4c-0.2,0.6-0.8,1.9-1.6,1.9   c-0.8-0.1-1.1-1.3-1.3-1.9c-0.3-1.4-0.2-3.1,0.6-4.3C207.7,227.9,206.5,227.2,206,227.9L206,227.9z" />
	<path
   id="path36014"
   d="M194.3,283.7c0.7,3.7,2.2,7.3,3.5,10.8l3.8,11c0.2,0.7,1.4,0.6,1.3-0.2l-0.1-1.1c-0.1-0.9-1.4-0.9-1.4,0   l0.1,1.1l1.3-0.2l-3.8-11c-1.2-3.5-2.8-7.1-3.5-10.8C195.4,282.5,194.1,282.8,194.3,283.7L194.3,283.7z" />
	<path
   id="path36016"
   d="M203.9,283c-1.3,1.4-1.9,3.2-2.6,4.9c-0.9,2.2-1.9,4.4-2.8,6.6l-2.8,6.6c-0.6,1.4-1.9,3.2-1.9,4.8   c0,0.4,0.3,0.7,0.7,0.7c0.1,0,0.2,0,0.3-0.1l0.1-0.1c0.3-0.2,0.4-0.5,0.3-0.8l0-0.1c-0.3-0.8-1.6-0.5-1.3,0.4l0,0.1l0.3-0.8   l-0.1,0.1l1,0.6c0-1,0.9-2.4,1.3-3.3l1.1-2.5l2.3-5.3c0.8-1.8,1.5-3.6,2.3-5.3c0.8-1.8,1.4-4,2.8-5.5   C205.5,283.3,204.5,282.3,203.9,283L203.9,283z" />
	<path
   id="path36026"
   d="M205.7,303.6c1.6-1.5,2.7-3.4,3-5.6l-1.3-0.2c0,2.4,0.1,4.8-0.1,7.2c0,0.4,0.1,1.4-0.3,1.6   c-0.1,0.1-0.8-0.1-1-0.1c-0.5,0-0.9,0.2-1.2,0.5c-0.3,0.3-0.3,0.7,0,1c0.1,0.1,0.3,0.2,0.5,0.2l4.1,0c0.4,0,0.7-0.3,0.7-0.7   c0-0.4-0.3-0.7-0.7-0.7l-4.1,0l0.5,1.2c0.4-0.4,1.5,0.1,2.1-0.1c0.6-0.3,0.7-0.7,0.8-1.3c0.4-2.8,0.1-5.9,0.1-8.8   c0-0.7-1.2-1-1.3-0.2c-0.3,1.9-1.2,3.7-2.7,5C204.1,303.2,205,304.1,205.7,303.6L205.7,303.6z" />
	<path
   id="path36028"
   d="M194.3,351.9c0.7,3.7,2.2,7.3,3.5,10.8l3.8,11c0.2,0.7,1.4,0.6,1.3-0.2l-0.1-1.1c-0.1-0.9-1.4-0.9-1.4,0   l0.1,1.1l1.3-0.2l-3.8-11c-1.2-3.5-2.8-7.1-3.5-10.8C195.4,350.7,194.1,351.1,194.3,351.9L194.3,351.9z" />
	<path
   id="path36030"
   d="M203.9,351.2c-1.3,1.4-1.9,3.2-2.6,4.9c-0.9,2.2-1.9,4.4-2.8,6.6l-2.8,6.6c-0.6,1.4-1.9,3.2-1.9,4.8   c0,0.4,0.3,0.7,0.7,0.7c0.1,0,0.2,0,0.3-0.1l0.1-0.1c0.3-0.2,0.4-0.5,0.3-0.8l0-0.1c-0.3-0.8-1.6-0.5-1.3,0.4l0,0.1l0.3-0.8   l-0.1,0.1l1,0.6c0-1,0.9-2.4,1.3-3.3l1.1-2.5l2.3-5.3c0.8-1.8,1.5-3.6,2.3-5.3c0.8-1.8,1.4-4,2.8-5.5   C205.5,351.5,204.5,350.6,203.9,351.2L203.9,351.2z" />
	<path
   id="path36040"
   d="M204.5,365.8c0.2,3.8,0.1,7.6-0.4,11.4c-0.1,0.9,1.3,0.9,1.4,0c0.4-3.8,0.6-7.6,0.4-11.4   C205.8,364.9,204.4,364.9,204.5,365.8z" />
	<path
   id="path36042"
   d="M209,367c-0.8,2.3-2.1,4.5-3.9,6.3c-0.3,0.3-0.2,0.7,0,1c0.2,0.2,0.4,0.2,0.6,0.2c2.1-0.4,3.7,1.1,4.7,2.8   c0.2,0.3,0.6,0.4,0.9,0.2c0.3-0.2,0.4-0.6,0.2-0.9c-1.3-2.3-3.5-3.9-6.2-3.4l0.7,1.1c1.9-2,3.3-4.3,4.2-6.9   C210.6,366.6,209.3,366.2,209,367L209,367z" />
	
	
	
	
	
	
	
	
	
	
	
	
	
	
	
	
	
	
	
	
	
	
	
	
	
	
	
	
	
	
	
	<path
   id="path7"
   d="M491,22.8c-1.4,0.3-0.7,2.8,0.8,2l-1-0.3c0.3,0.5,0.9,0.7,1.4,0.4c0.1-0.1,0.2-0.2,0.3-0.3   c0.3-0.4,0.3-1.1-0.2-1.4c-0.2-0.2-0.5-0.2-0.8-0.2c-0.4,0-0.7,0.3-0.8,0.8c0,0.4,0.3,0.7,0.8,0.8l-0.3-0.3V24l0.8-0.1   c-0.2-0.3-0.6-0.4-1-0.3l0,0h0.4c0.4,0.1,0.3,0.7-0.1,0.7C492.4,24.1,492,22.7,491,22.8L491,22.8z" />
	<path
   id="path8"
   d="M498.4,23c-0.5-0.4-1.2-0.4-1.6,0.1c-0.1,0.1-0.1,0.2-0.2,0.3c-0.4,0.8,0.3,2,1.2,1.4c0.4-0.2,0.7-0.6,0.7-1   c0.1-0.5-0.3-0.9-0.8-1c-0.9-0.1-1.6,1.1-0.7,1.6c0.4,0.2,0.8,0,1-0.3c0.2-0.3,0.1-0.8-0.2-1h-0.1l0.4,0.5v0l-0.1,0.6l-0.4,0.2   l-0.4-0.1l-0.2-0.2l-0.1-0.4c0.1-0.2,0.1-0.2,0-0.1h0.8c0.1,0.2,0.1,0.3,0.1,0.5c0,0-0.3,0.1-0.2,0.1l-0.4-0.1l0,0   C498.2,24.7,499.2,23.7,498.4,23L498.4,23z" />
	<path
   id="path9"
   d="M502.9,23.9L502.9,23.9l-0.1-0.3c0,0,0.1-0.1,0.1-0.1l0.4-0.1l0.3,0.5c0.5-0.8-0.8-1.6-1.3-0.8   c-0.3,0.5-0.2,1.2,0.3,1.6c0.5,0.3,1.2,0.2,1.6-0.3c0.2-0.4,0.2-0.9,0-1.3C503.8,22.2,502.5,23,502.9,23.9L502.9,23.9z" />
	<path
   id="path10"
   sodipodi:nodetypes="ccccccc"
   d="M116.5,23.9c49.5-0.2,140.3,0.3,189.7,0.7c18.5,0.2,149.8,0.3,168.3,0.3   c1,0,1-1.5,0-1.5c-49.1-0.2-211-1-260.2-1.1c-18.8,0-79,0-97.8,0.1C115.5,22.4,115.5,23.9,116.5,23.9L116.5,23.9z" />
	<path
   id="path11"
   sodipodi:nodetypes="ccccc"
   d="M519,24.2c34.8-0.1,133.8-0.5,168.5,0c1,0,1-1.5,0-1.5   c-34.8-0.5-133.8-0.1-168.5,0C518,22.7,518,24.2,519,24.2z" />
	<path
   id="path12"
   d="M115.3,18.5c-0.6,3.4-0.6,6.8-0.1,10.1c0.1,1,1.6,0.5,1.4-0.4c-0.5-3.1-0.4-6.3,0.1-9.4   C116.9,18,115.5,17.6,115.3,18.5z" />
	<path
   id="path13"
   d="M688.4,18.6c-0.6,3.3-0.7,6.7-0.1,10.1c0.1,1,1.6,0.5,1.4-0.4c-0.5-3.1-0.4-6.2,0.2-9.3   C690,18,688.6,17.6,688.4,18.6z" />
	<path
   id="path126"
   d="M47.1,7.4c0.5-2.1,0.3-3.9-1.5-5.3c-1.5-1.1-4.7-2.5-6.6-2c-5.1,1.5-5.3,13.2-4.6,17.2c0.7,4.4,4.6,8.1,9,5.2   c3.5-2.4,5-8.1-0.6-8.3v1.5c3.9-0.5,3.5,2.2,3.7,5.1c0.1,1,1.6,1,1.5,0c0-2.1-0.2-4.2-0.5-6.3c-0.1-0.3-0.3-0.5-0.5-0.5   c-1.4-0.4-2.8,0.1-4.2,0.2c-0.4,0-0.8,0.3-0.8,0.8s0.3,0.8,0.8,0.8c2.4,1.9,2.5,3.5,0.5,5c-3.3,2.4-5.7,1.6-7.1-2.4   c-0.5-2-0.6-4-0.3-6c0.2-1.9,0.1-4.3,0.9-6.1c0.3-2.3,1.8-3.7,4.5-4.3c2.8,0.4,4.3,2.1,4.5,5.2C45.5,7.9,46.9,8.3,47.1,7.4   L47.1,7.4z" />
	<path
   id="path127"
   d="M51.2,17.2c3,0.2,7.8-1.5,6.3-5.3c-1-2.7-3.9-5.6-6.8-3.4c-1.1,1-1.7,2.4-1.8,3.9c-0.3,2-0.8,4.7,0.1,6.7   c1.5,3.5,5.6,5.1,8.8,3.1c0.8-0.5,0.1-1.8-0.8-1.3c-2.1,1.3-4.9,0.7-6.2-1.4c-0.1-0.1-0.1-0.2-0.1-0.3c-1-1.6-0.7-3.6-0.5-5.4   c0-0.8,0.1-1.7,0.4-2.4c1.1-2.7,2.8-2.2,4.3-0.7c0.3,0.4,0.5,0.7,0.8,1.1L54.8,15c-0.8,0.8-2.7,0.8-3.6,0.7S50.2,17.1,51.2,17.2   L51.2,17.2z" />
	<path
   id="path128"
   d="M58.9,9.2c-0.2,4.3-0.1,8.6,0.3,12.9c0.1,1,1.6,1,1.5,0c-0.4-4.3-0.5-8.6-0.2-12.9C60.4,8.2,59,8.2,58.9,9.2   L58.9,9.2z" />
	<path
   id="path129"
   d="M60.5,14.8c2.3-1.4,4.4-3.1,6.4-4.9l-1.2-0.1c1.2,2.2,0.5,4.4,0.3,6.7c-0.1,2,0.1,4,0.6,6   c0.1,0.4,0.5,0.6,0.9,0.5c0.4-0.1,0.6-0.5,0.5-0.9c-0.6-2.6-0.7-5.3-0.3-8c0.2-1.7,0-3.5-0.8-5c-0.2-0.4-0.7-0.5-1-0.3   c-0.1,0-0.1,0.1-0.1,0.1c-1.9,1.8-3.9,3.3-6.1,4.7C58.9,14.1,59.7,15.4,60.5,14.8L60.5,14.8z" />
	<path
   id="path130"
   d="M70.6,14.4c-0.6,3.1-1.5,8.3,2.7,9.4c4.2,1.1,6.2-3.9,6.5-7.1s-0.3-9.4-4.7-8.9c-3.8,0.4-6,4.8-5.7,8.3   c0.1,1,1.6,1,1.5,0c-0.2-2.1,0.4-4.6,2.3-5.8c4.3-2.8,5.2,2.6,5.2,5.3c0,1.8-0.6,4.8-2.1,6c-3.2,2.5-4.8-0.9-4.8-3   c0.1-1.3,0.3-2.5,0.6-3.8C72.3,13.8,70.8,13.4,70.6,14.4z" />
	<path
   id="path131"
   d="M80.2,9.2l0.4,13.4c0,1,1.5,1,1.5,0L81.7,9.2c0-0.4-0.3-0.8-0.8-0.8S80.2,8.8,80.2,9.2z" />
	<path
   id="path132"
   d="M82.2,13.4c0.7-1.2,2.1-4.3,3.8-1.2c0.4,0.7,0.1,2.4,0.1,3.3c0,2.3,0.1,4.6,0.1,7c0,0.4,0.3,0.8,0.8,0.8   s0.8-0.3,0.8-0.8c0-2.5,0-5-0.1-7.4c0-1.6,0.2-4.1-0.8-5.4c-2.1-2.9-4.9,1.5-5.9,3.1C80.4,13.4,81.7,14.2,82.2,13.4L82.2,13.4z" />
	<path
   id="path133"
   d="M88.1,14.2c0.6-0.9,1.7-3.3,2.7-3.8c2.2-1,1.4,2.2,1.4,3.3c0,3.1-0.3,6.1-0.5,9.2c-0.1,0.9,1.3,1,1.5,0.2   l0.1-0.3c0.1-0.4-0.2-0.8-0.6-0.9c-0.4-0.1-0.7,0.1-0.8,0.5l-0.1,0.3l1.5,0.2c0.2-3.1,0.5-6.1,0.5-9.2c0-1.4,0.6-4.6-0.5-5.7   c-2.2-2.2-5.6,4.4-6.3,5.4C86.2,14.3,87.5,15,88.1,14.2z" />
	<path
   id="path134"
   d="M95.7,18.6c3.1-0.5,7.5-2.7,8.2-6.1c0.4-2.3-2.9-6.1-5.2-4.2c-2.6,2.1-4.2,8.2-3.4,11.3   c0.4,1.5,1.4,2.8,2.8,3.5c2,0.9,3.8-0.2,5.9-0.3c1,0,1-1.5,0-1.5c-2.2,0-4.3,1.6-6.3-0.3s-1-5.6-0.1-7.8c0.3-0.8,2-5.3,3.9-2.9   c1.2,1.5,0.4,3.3-0.8,4.4c-1.5,1.4-3.4,2.3-5.4,2.5C94.3,17.3,94.8,18.7,95.7,18.6L95.7,18.6z" />
	<path
   id="path14"
   d="M179.5,15c0.2-2.6-2.7-3.5-4.6-2.1s-3.2,4.9-1,6.7c1.7,1.4,4.4,0.6,5.7-1c2.5-3,1.9-8.6,2.3-12.2h-1.5   l-0.6,13.4c0,1,1.4,1,1.5,0l0.6-13.4c0-1-1.4-0.9-1.5,0c-0.2,2.4-0.4,4.8-0.6,7.2c-0.2,1.7-0.5,3.8-2.1,4.7c-1.6,1-2.8,0.2-3.2-2.3   c0.5-2,1.7-2.4,3.6-1.1C177.9,16,179.4,16,179.5,15L179.5,15z" />
	<path
   id="path15"
   d="M184.5,18.9c1.4-1.2,2.2-2.9,2.5-4.7l-1.5-0.2c-0.2,2.5,0.3,5.1,1.3,7.4l0.3-1c-0.7,0.6-1.7,0.8-2.5,0.5v1.5   c0.8-0.3,1.7-0.3,2.4,0.1c0.9,0.4,1.6-0.9,0.8-1.3c-1.1-0.6-2.4-0.6-3.6-0.2c-0.4,0.1-0.6,0.6-0.5,1c0.1,0.2,0.3,0.4,0.5,0.5   c1.3,0.4,2.6,0.2,3.7-0.7c0.3-0.2,0.4-0.6,0.3-1c-0.9-2.1-1.3-4.4-1.1-6.6c0.1-0.8-1.4-1-1.5-0.2c-0.2,1.5-1,3-2.1,4   C182.7,18.5,183.8,19.5,184.5,18.9L184.5,18.9z" />
	<path
   id="path16"
   d="M332.2,15.8c0.2-2.6-2.7-3.5-4.6-2.1s-3.2,4.9-1,6.7c1.7,1.4,4.4,0.6,5.7-1c2.5-3,2-8.6,2.3-12.2h-1.5   l-0.6,13.4c0,1,1.5,1,1.5,0l0.6-13.4c0-1-1.4-0.9-1.5,0c-0.2,2.4-0.4,4.8-0.6,7.2c-0.2,1.7-0.5,3.8-2.1,4.7c-1.6,1-2.8,0.2-3.2-2.3   c0.5-2,1.7-2.4,3.6-1.1C330.6,16.8,332.1,16.8,332.2,15.8L332.2,15.8z" />
	<path
   id="path17"
   d="M338.4,16.2c0.3-1.5,2.3-1.1,1.9,0.3c-0.3,0.6-0.7,1.1-1.2,1.4c-0.9,0.7-1.6,1.6-1.9,2.7   c-0.1,0.4,0.1,0.8,0.5,0.9c0.1,0,0.1,0,0.2,0c1.7,0.2,3.4,0,5-0.5c0.4-0.1,0.6-0.5,0.5-0.9c-0.1-0.4-0.5-0.6-0.9-0.5   c-1.5,0.4-3.1,0.6-4.6,0.4l0.7,1c0.4-2.2,3.9-2.9,3.2-5.5c-0.4-1.3-1.7-2.1-3-1.7c-0.9,0.3-1.6,1-1.8,2   C336.8,16.8,338.2,17.2,338.4,16.2L338.4,16.2z" />
	<path
   id="path18"
   d="M587.8,13.7l0.1,6.3c0,0.4,0.3,0.7,0.8,0.8h3.7c0.3,0,0.6-0.2,0.7-0.5c0.2-0.7-0.2-1.4-0.9-1.6   c-0.2-0.1-0.5-0.1-0.7,0c-1,0.2-0.5,1.6,0.4,1.5l-0.3-0.2l0.7-0.5h-3.7l0.8,0.8l-0.1-6.3c0-0.4-0.3-0.8-0.8-0.8   S587.8,13.3,587.8,13.7L587.8,13.7z" />
	<path
   id="path19"
   d="M584.4,15.6c0.2-2.6-2.7-3.5-4.6-2.1c-1.9,1.4-3.2,4.9-1,6.7c1.7,1.4,4.4,0.6,5.7-1c2.5-3,1.9-8.6,2.3-12.2   h-1.5l-0.6,13.4c0,1,1.5,1,1.5,0L586.8,7c0-1-1.4-0.9-1.5,0c-0.2,2.4-0.3,4.8-0.6,7.2c-0.2,1.7-0.5,3.8-2.1,4.7s-2.8,0.2-3.2-2.3   c0.5-2,1.7-2.4,3.6-1.1C582.8,16.6,584.3,16.6,584.4,15.6L584.4,15.6z" />
	<path
   id="path20"
   class="st7"
   d="M265.2,16.1l-5,4.1c-0.4,0.4-0.4,1.2,0,1.6c0.2,0.2,0.5,0.3,0.8,0.3l6.5-0.4l-1-1.7   c-1.4,1.9-3,3.5-4.8,5c-1.1,0.9,0.5,2.5,1.6,1.6c1.9-1.6,3.7-3.4,5.1-5.4c0.3-0.5,0.1-1.2-0.4-1.5c-0.2-0.1-0.4-0.2-0.6-0.1L261,20   l0.8,1.9l5-4.1C267.9,16.8,266.3,15.2,265.2,16.1L265.2,16.1z" />
	<path
   id="path21"
   class="st7"
   d="M407.4,15.2l-5.8,4.4c-0.5,0.3-0.7,1-0.4,1.6c0.2,0.3,0.6,0.5,0.9,0.5l6.2,0.5l-0.8-1.9   c-1.7,1.5-3.4,3.1-5.1,4.5c-1.1,0.9,0.5,2.5,1.6,1.6c1.7-1.5,3.4-3,5.1-4.5c0.4-0.5,0.4-1.2,0-1.6c-0.2-0.2-0.5-0.3-0.8-0.3   l-6.2-0.5l0.6,2.1l5.8-4.5C409.6,16.2,408.5,14.3,407.4,15.2L407.4,15.2z" />
	<path
   id="path22"
   class="st7"
   d="M639.2,27.3c2.5-1.4,5-2.9,7.4-4.5c0.5-0.3,0.7-1,0.4-1.6c-0.1-0.2-0.4-0.4-0.6-0.5l-5.7-1.5   l0.3,2l4.9-3.1c1.2-0.8,0.1-2.7-1.1-2l-4.9,3.1c-0.5,0.3-0.7,1-0.4,1.6c0.1,0.2,0.4,0.4,0.6,0.5l5.7,1.5l-0.3-2   c-2.4,1.6-4.8,3.1-7.4,4.5c-0.5,0.4-0.6,1.1-0.3,1.6C638.2,27.4,638.7,27.6,639.2,27.3z" />
	<path
   id="path22-8"
   class="st7"
   d="M529.2,27.3c2.5-1.4,5-2.9,7.4-4.5c0.5-0.3,0.7-1,0.4-1.6c-0.1-0.2-0.4-0.4-0.6-0.5l-5.7-1.5   l0.3,2l4.9-3.1c1.2-0.8,0.1-2.7-1.1-2l-4.9,3.1c-0.5,0.3-0.7,1-0.4,1.6c0.1,0.2,0.4,0.4,0.6,0.5l5.7,1.5l-0.3-2   c-2.4,1.6-4.8,3.1-7.4,4.5c-0.5,0.4-0.6,1.1-0.3,1.6C528.2,27.4,528.7,27.6,529.2,27.3z" />
	<path
   id="path1"
   d="M267.7,73.1c0.4-7.2-9.2-5.7-11.4-0.7c-1.1,2.5,0.3,5,2.2,6.6s4.8,1.9,5,4.8c0.2,2.2-1.3,5.9-4.8,3.4   c-1-0.7-1.7-2.3-2.3-3.3c-1-1.6-3.6-0.1-2.6,1.5c1.4,2.3,2.9,5.1,5.9,5.5c2.3,0.3,4.5-0.8,5.7-2.7c1.3-2.2,1.4-5,0.3-7.3   c-0.6-1-1.4-1.9-2.3-2.5c-0.7-0.5-1.5-0.8-2.2-1.3l-1.4-1c-0.3-4.5,1.3-5.6,4.9-3.1C264.6,75.1,267.6,75.1,267.7,73.1L267.7,73.1z" />
	<path
   id="path2"
   d="M268.3,91.8c2.5-2.2,3.9-5.3,3.9-8.6c0-2-2.9-1.9-3,0l-0.4,6c-0.1,1.9,0,4.2-0.5,6l1-1   c-0.8,0.2-1.6,0.3-2.4,0.2c-1.6,0.1-2.2,2.7-0.4,3c2.4,0.4,4.8,0.3,7.1-0.4c0.8-0.2,1.2-1.1,1-1.9c-0.2-0.8-1-1.2-1.8-1   c-1.8,0.5-3.7,0.6-5.5,0.4l-0.4,2.9c2.4-0.1,4.1,0,4.4-2.7c0.4-3.8,0.5-7.7,0.8-11.5h-3c0,2.5-1.1,4.9-3,6.5   c-1.5,1.3,0.7,3.4,2.1,2.1L268.3,91.8z" />
	<path
   id="path3"
   d="M410,72.6c-1.5-5.2-8.7-6.4-10.8-0.9c-0.9,2.4-0.2,5.1,1.8,6.8c1.2,1.1,2.7,1.5,4,2.3c1.1,0.7,3.7,3.2,2.7,4.9   l-4.2,2.2c-1.1-0.4-2.2-1-3.2-1.8c-1.6-1.1-3.1,1.5-1.5,2.6c4,2.6,10.1,3.7,11.8-2.2c0.6-2.2,0-4.5-1.4-6.2   c-0.7-0.9-1.7-1.6-2.7-2.1c-0.6-0.3-1.3-0.6-1.9-0.9c-0.5-0.2-1-0.6-1.4-1c-2.3-1.5-1-2.5,4-2.9c0.3,0.8,1.1,1.2,1.9,1   C409.8,74.1,410.2,73.4,410,72.6L410,72.6z" />
	<path
   id="path4"
   d="M414.8,86.9c0.1-2.3,2.3-2.2,2.3,0c-0.1,1-0.6,2-1.3,2.8c-1.3,1.7-2.9,3.2-4.3,4.8c-0.6,0.6-0.6,1.6,0,2.1   c0.2,0.2,0.4,0.3,0.6,0.4c2.6,0.6,5.3,0.6,7.9-0.2c0.8-0.3,1.2-1.2,0.9-1.9c-0.3-0.7-1-1.1-1.7-1c-2,0.6-4.2,0.7-6.3,0.2l0.7,2.5   c3-3.3,8.7-7.9,5.5-12.9c-0.9-1.6-2.8-2.3-4.5-1.7c-2,0.8-2.8,3-2.9,5S414.6,88.9,414.8,86.9L414.8,86.9z" />
	<path
   id="path23"
   d="M298.1,82c11.4,0.3,22.8-0.1,34.2-0.2c7.2-0.1,14.5-0.1,21.7,0.1c5.3,0.1,10.9,0.9,16-0.7   c0.6-0.2,0.8-1.3,0-1.4c-2.4-0.4-4.8-1.3-6.9-2.5l-0.6,1.4c3.2,0.7,6.3,1.6,9.4,2.8l-0.2-1.4c-2.4,1.1-4.7,2.3-6.9,3.7   c-0.8,0.5-0.1,1.8,0.8,1.3c2.2-1.4,4.5-2.7,6.9-3.8c0.7-0.3,0.4-1.2-0.2-1.4c-3.1-1.2-6.2-2.1-9.4-2.8c-0.4-0.1-0.8,0.1-0.9,0.5   c-0.1,0.3,0,0.7,0.3,0.8c2.2,1.3,4.7,2.2,7.3,2.7v-1.4c-5.7,1.8-12.2,0.7-18,0.6c-7-0.1-14-0.1-21,0c-10.8,0.1-21.7,0.5-32.5,0.2   c-0.4,0-0.8,0.3-0.8,0.8S297.6,82,298.1,82L298.1,82z" />
	<path
   id="path29"
   d="M324.1,60.5c0-6.4-5.2-9.7-11.3-8.8c-6.8,1-9,7.8-8.1,14c0.9,5.8,6.3,11.2,12.6,10s7.4-11.7,6.7-16.7   c-0.2-1.4-2.4-0.8-2.2,0.6c0.5,3.9,0.1,10.1-3.2,12.9c-4.4,3.7-10.6-2.2-11.5-6.1c-0.9-3.9-0.4-9.5,3.3-11.7   c4.8-2.7,11.4-0.1,11.4,5.7c0.1,0.6,0.6,1.1,1.2,1C323.6,61.5,324,61.1,324.1,60.5L324.1,60.5z" />
	<path
   id="path30"
   d="M317.1,68.3c1.6,2.8,3.7,5.2,6.3,7.2c1.1,0.9,2.3-1.1,1.1-1.9c-2.2-1.7-4.1-3.9-5.5-6.4   C318.3,65.9,316.4,67,317.1,68.3L317.1,68.3z" />
	<path
   id="path31"
   d="M330.7,52.6c-4.9,6.3-6.5,17.5-1.1,24c0.9,1.1,2.5-0.5,1.6-1.6c-4.5-5.3-3-15.6,1.1-20.8   C333.1,53.1,331.6,51.5,330.7,52.6L330.7,52.6z" />
	<path
   id="path32"
   d="M344.4,66.7c-0.1-7-14.6-1.5-8.7,6.2c2.1,2.7,5.6,2.9,7.2-0.2c1.1-2.2,1.8-5.7,2.5-8c0.8-3,1.1-6.1,0.9-9.3   c-0.1-1.2-2-1.6-2.2-0.3c-0.9,6.4-1.7,12.8-0.9,19.3c0.2,1.4,2.4,1.4,2.2,0c-0.8-6.3-0.1-12.5,0.8-18.7l-2.2-0.3   c0.2,3.7-0.3,7.5-1.6,11c-0.4,1.2-0.7,3.5-1.3,4.5c-2.2,2.7-3.7,2.2-4.5-1.6c0.8-3.4,2.6-4.2,5.5-2.5c0.1,0.6,0.6,1.1,1.2,1   C343.9,67.8,344.4,67.3,344.4,66.7L344.4,66.7z" />
	<path
   id="path33"
   d="M349.3,69.8c0.2-1.4,1.5-0.7,1.1,0.5c-0.3,0.7-0.9,1.4-1.5,1.9c-0.9,0.8-2.2,1.8-2.4,3   c-0.5,2.9,4.5,1.9,5.9,1.7c1.4-0.2,0.8-2.4-0.6-2.2c-0.7,0.1-1.4,0.2-2.1,0.2c-0.4,0-0.8,0-1.2,0l0.2,0.7c0.1,0,2.2-2.2,2.4-2.4   c1.2-1.2,2.3-3,1.6-4.7c-0.5-1.3-1.8-2-3.2-1.9c-1.7,0.2-2.1,1.8-2.3,3.2S349.1,71.3,349.3,69.8L349.3,69.8z" />
	<path
   id="path34"
   d="M351.8,54.5c1.5,3.1,3,6.2,3.6,9.6c0.7,4.1-0.6,7.7-2.2,11.4c-0.6,1.3,1.6,1.9,2.2,0.6   c1.5-3.6,2.8-7.2,2.4-11.1c-0.5-4.1-2.3-7.9-4-11.6C353.1,52,351.2,53.2,351.8,54.5L351.8,54.5z" />
	<path
   id="path5"
   d="M644.4,71.4c-2.9-5.6-12.1-1.5-11.4,4.3c0.5,3.6,5,3.7,7.1,6c1.3,1.4,2.6,3.9,0.6,5.4c-1.2,0.9-3.1,1.2-3.9,0.2   c-1-1.2-0.2-1.8-1.8-2.5c-1.6-0.8-3.2,1.8-1.5,2.6c0.6,0.3,0.6,2.2,1.2,2.8c0.9,0.7,2.1,1.1,3.2,0.8c2.3-0.2,5.4-1.1,6.5-3.3   c1.2-2.4,0.2-5.3-1.4-7.3c-1.1-1.4-2.6-2.5-4.2-3.2c-0.8-0.3-1.5-0.6-2.2-1l0.6-3.3c1.7-1.6,3.2-1.6,4.6,0.1   C642.7,74.7,645.2,73.1,644.4,71.4L644.4,71.4z" />
	<path
   id="path6"
   d="M648.9,82.8v-0.2h-3c0.3,4.1,0.4,8.2,0.5,12.3c0,0.8,0.7,1.5,1.5,1.5l8,0.3c0.8,0,1.5-0.7,1.5-1.6   c0-0.2-0.1-0.5-0.2-0.7c-0.2-0.5-0.5-1-0.8-1.4c-1.1-1.6-3.7-0.1-2.6,1.5c0.4,0.4,0.6,0.9,0.8,1.4l1.3-2.2l-8-0.3l1.5,1.5   c-0.1-4.1-0.3-8.2-0.5-12.3c0-0.8-0.7-1.5-1.5-1.5s-1.5,0.7-1.5,1.5v0.2C645.7,84.7,648.7,84.7,648.9,82.8L648.9,82.8z" />
	<path
   id="path25"
   d="M565.1,81.8c18.4-0.1,36.8,0.5,55.2,0.5c0.7,0,1.1-1.1,0.4-1.4c-2-1-4.2-1.7-6.3-2.3c-0.4-0.1-0.8,0.2-0.9,0.6   c-0.1,0.4,0.1,0.7,0.5,0.8c2.6,0.9,5.3,1.6,8,2v-1.5c-3.2,0.8-6.1,2.3-8.5,4.4c-0.7,0.6,0.3,1.7,1.1,1.1c2.2-2,4.9-3.4,7.9-4.1   c0.7-0.2,0.8-1.3,0-1.4c-2.7-0.4-5.4-1.1-8-2l-0.4,1.4c2.1,0.5,4.1,1.2,6,2.1l0.4-1.4c-18.4,0.1-36.8-0.6-55.2-0.5   c-0.4,0-0.8,0.3-0.8,0.8S564.7,81.7,565.1,81.8L565.1,81.8z" />
	<path
   id="path35"
   d="M583.6,60.8c0-6.4-5.2-9.7-11.3-8.8c-6.8,1-9,7.8-8.1,14c0.8,5.8,6.3,11.2,12.6,10s7.4-11.7,6.7-16.7   c-0.2-1.4-2.4-0.8-2.2,0.6c0.5,3.9,0.1,10.1-3.2,12.9c-4.3,3.7-10.6-2.2-11.5-6.1c-0.9-3.9-0.4-9.5,3.3-11.7   c4.8-2.7,11.4-0.1,11.4,5.7c0.1,0.6,0.6,1.1,1.2,1C583.1,61.7,583.5,61.3,583.6,60.8L583.6,60.8z" />
	<path
   id="path36"
   d="M576.6,68.5c1.6,2.8,3.7,5.2,6.3,7.2c1.2,0.9,2.3-1.1,1.1-1.9c-2.2-1.7-4.1-3.9-5.5-6.4   C577.8,66.1,575.9,67.2,576.6,68.5z" />
	<path
   id="path37"
   d="M590.2,52.8c-5,6.3-6.5,17.5-1.1,24c0.9,1.1,2.5-0.5,1.6-1.6c-4.5-5.3-3-15.6,1.1-20.8   C592.6,53.3,591.1,51.7,590.2,52.8L590.2,52.8z" />
	<path
   id="path38"
   d="M602.9,67c-0.1-7-14.6-1.5-8.7,6.2c2.1,2.7,5.6,2.9,7.2-0.2c1.1-2.2,1.8-5.7,2.5-8c0.8-3,1.1-6.1,0.9-9.3   c-0.1-1.2-2-1.6-2.2-0.3c-0.9,6.4-1.7,12.8-0.9,19.3c0.2,1.4,2.4,1.4,2.2,0c-0.8-6.3-0.1-12.5,0.8-18.8l-2.2-0.3   c0.2,3.7-0.3,7.5-1.6,11c-0.4,1.2-0.7,3.5-1.3,4.5c-2.2,2.7-3.7,2.2-4.5-1.6c0.8-3.4,2.6-4.2,5.5-2.5c0.1,0.6,0.6,1.1,1.2,1   C602.4,68,602.8,67.6,602.9,67L602.9,67z" />
	<path
   id="path39"
   d="M611.3,54.7c1.5,3.1,3,6.2,3.6,9.6c0.7,4.1-0.6,7.7-2.2,11.4c-0.6,1.3,1.6,1.9,2.2,0.6   c1.5-3.6,2.8-7.1,2.4-11.1c-0.5-4.1-2.3-7.9-4-11.6C612.6,52.2,610.6,53.4,611.3,54.7L611.3,54.7z" />
	<path
   id="path40"
   d="M605.3,68v5.1c-0.1,1.6-0.1,3.2,0,4.8c0.5,2.4,3.4,1.7,5.2,1.7c0.6-0.1,1.1-0.6,1-1.2c-0.1-0.5-0.5-1-1-1   c-0.5,0-2.8,0.3-3.1,0c0,0,0.1-2.2,0.1-2.7V68c-0.1-0.6-0.6-1.1-1.2-1C605.8,67,605.4,67.4,605.3,68L605.3,68z" />
	<path
   id="path24"
   d="M442.3,79.7c7.1-0.2,14.2-0.1,21.2,0.3c0.4,0,0.7-0.3,0.7-0.8c0-0.3-0.2-0.6-0.5-0.7l-2.4-1.6l-0.9,1.1   c3.5,1.1,7.2,1.6,10.9,1.6v-1.5c-3.6,0.3-7.1,1.1-10.4,2.4c-0.9,0.3-0.5,1.8,0.4,1.4c3.2-1.2,6.6-2,10-2.3c0.4,0,0.8-0.3,0.8-0.8   s-0.3-0.8-0.8-0.8l0,0c-3.5,0-7.1-0.6-10.5-1.6c-0.4-0.1-0.8,0.1-0.9,0.6c0,0.2,0,0.4,0.1,0.5c0.6,1.3,1.9,2.1,3.3,2.3l0.2-1.5   c-7.1-0.4-14.2-0.5-21.2-0.3c-0.4,0-0.8,0.3-0.8,0.8S441.9,79.7,442.3,79.7L442.3,79.7z" />
	<path
   id="path26"
   d="M491,78.8c-1.4,0.3-0.7,2.8,0.8,2l-1-0.3c0.3,0.5,0.9,0.7,1.4,0.4c0.1-0.1,0.2-0.2,0.3-0.3   c0.3-0.4,0.3-1.1-0.2-1.4c-0.2-0.2-0.5-0.2-0.8-0.2c-0.4,0-0.7,0.3-0.8,0.8c0,0.4,0.3,0.7,0.8,0.8l-0.3-0.3v-0.4l0.8-0.1   c-0.2-0.3-0.6-0.4-1-0.3l0,0h0.4c0.4,0.1,0.3,0.7-0.1,0.7C492.4,80.1,492,78.7,491,78.8L491,78.8z" />
	<path
   id="path27"
   d="M498.4,79c-0.5-0.4-1.2-0.4-1.6,0.1c-0.1,0.1-0.1,0.2-0.2,0.3c-0.4,0.8,0.3,2,1.2,1.4c0.4-0.2,0.7-0.6,0.7-1   c0.1-0.5-0.3-0.9-0.8-1c-0.9-0.1-1.6,1.1-0.7,1.6c0.4,0.2,0.8,0,1-0.3c0.2-0.3,0.1-0.8-0.2-1h-0.1l0.4,0.4l0,0l-0.1,0.6l-0.4,0.2   l-0.4-0.1l-0.2-0.2l-0.1-0.4c0.1-0.2,0.1-0.2,0-0.1h0.8c0.1,0.2,0.1,0.3,0.1,0.5c0,0-0.3,0.1-0.2,0.1l-0.4-0.1l0,0   c0.7,0.6,1.8-0.4,1.1-1.1L498.4,79z" />
	<path
   id="path28"
   d="M502.9,79.9L502.9,79.9l-0.1-0.3c0,0,0.1-0.1,0.1-0.1l0.4-0.1l0.3,0.5c0.5-0.8-0.8-1.6-1.3-0.8   c-0.3,0.5-0.2,1.2,0.3,1.6s1.2,0.2,1.6-0.3c0.2-0.4,0.2-0.9,0-1.3C503.8,78.2,502.5,79,502.9,79.9L502.9,79.9z" />
	<path
   id="path115-5"
   d="M551.2,89.4c2.3-2,3.7-4.6,4.2-7.4l-2.4-0.1l-0.8,13.6l1.1-1.1l-3.2,0.3c-0.7,0-1.2,0.6-1.1,1.1   c0,0.6,0.6,1,1.3,1l4.8-0.3c0.7,0,1.2-0.6,1.1-1.1c0-0.6-0.6-1-1.3-1l-4.8,0.3l0.1,2.1l3.2-0.3c0.7-0.1,1.2-0.6,1.1-1.1l0.8-13.6   c0.1-1.2-2.2-1.3-2.4-0.1c-0.3,2.4-1.6,4.7-3.6,6.4C548.3,89.1,550.1,90.5,551.2,89.4L551.2,89.4z" />
	<path
   id="path5-6"
   d="M534.4,71.4c-2.9-5.6-12.1-1.5-11.4,4.3c0.5,3.6,5,3.7,7.1,6c1.3,1.4,2.6,3.9,0.6,5.4   c-1.2,0.9-3.1,1.2-3.9,0.2c-1-1.2-0.2-1.8-1.8-2.5c-1.6-0.8-3.2,1.8-1.5,2.6c0.6,0.3,0.6,2.2,1.2,2.8c0.9,0.7,2.1,1.1,3.2,0.8   c2.3-0.2,5.4-1.1,6.5-3.3c1.2-2.4,0.2-5.3-1.4-7.3c-1.1-1.4-2.6-2.5-4.2-3.2c-0.8-0.3-1.5-0.6-2.2-1l0.6-3.3   c1.7-1.6,3.2-1.6,4.6,0.1C532.7,74.7,535.2,73.1,534.4,71.4L534.4,71.4z" />
	<path
   id="path6-3"
   sodipodi:nodetypes="ccccccccccccccsccc"
   d="M538.9,82.8v-0.2h-3c0.3,4.1,0.4,8.2,0.5,12.3   c0,0.8,0.7,1.5,1.5,1.5l6.3,0.1c1.1,0,1.8-1.3,1.3-2.3c-0.2-0.5-0.5-1-0.8-1.4c-1.1-1.6-3.7-0.1-2.6,1.5c0.4,0.4,0.6,0.9,0.8,1.4   l1.3-2.2l-6.3-0.1l1.5,1.5c-0.1-4.1-0.3-8.2-0.5-12.3c0-2-3-2-3,0v0.2C535.7,84.7,538.7,84.7,538.9,82.8L538.9,82.8z" />
	<path
   id="path135"
   sodipodi:nodetypes="cc"
   class="st8"
   d="M543.5,88c1.6,0,1.4,0.1,2.9,0.1" />
	
	<path
   id="path41"
   class="st10"
   d="M258.8,97.8l3.3,46.4l1.5-0.1l-4.3-8.1l-1.4,0.4l5.9,7.8c0.2,0.2,0.7,0.3,1,0.2   c0.2-0.1,0.3-0.2,0.3-0.3c0.7-2.5,1.7-5,2.9-7.5c0.3-0.6-1.2-0.8-1.5-0.2c-1.2,2.5-2.2,5-2.9,7.5l1.4-0.1l-5.9-7.8   c-0.4-0.5-1.6-0.1-1.4,0.4l4.3,8.1c0.3,0.5,1.5,0.4,1.5-0.1l-3.3-46.4C260.3,97.2,258.8,97.2,258.8,97.8L258.8,97.8z" />
	<path
   id="path76"
   d="M250.9,154.8v-0.6c0-0.3-0.2-0.5-0.5-0.5c-0.3,0-0.5,0.2-0.5,0.5l-0.7,16.4c0,0.7,1.1,0.7,1.1,0l0.7-16.4h-1.1   v0.6c0,0.3,0.2,0.5,0.5,0.5C250.6,155.3,250.9,155.1,250.9,154.8L250.9,154.8z" />
	<path
   id="path77"
   d="M250.5,155.2c4-0.4,6.4,1.8,6.3,5.8c-0.1,4.4-1.7,8.7-6.8,8.7c-0.3,0-0.5,0.2-0.5,0.5s0.2,0.5,0.5,0.5   c9.8,0,11.4-17.9,0.5-16.7C249.8,154.2,249.8,155.3,250.5,155.2L250.5,155.2z" />
	<path
   id="path78"
   d="M264,163.6c1.3-1.9,0.2-4.6-2.3-4.5c-3.1,0.2-3.4,4.1-3.3,6.4c0,1.4,0.6,5.7,2.8,4.5c1.1-0.6,1.9-2.4,2.3-3.5   c0.7-1.7,0.9-3.6,0.7-5.5c-0.1-0.7-1.1-0.7-1.1,0c0.1,2.5,0.4,5,1,7.5c0.2,0.7,1.2,0.4,1.1-0.3c-0.5-2.4-0.9-4.8-1-7.2h-1.1   c0.2,1.4,0.1,2.9-0.3,4.3c-0.2,0.7-0.5,1.3-0.8,1.9c-0.1,0.3-0.3,0.6-0.5,0.8c-0.9,0.8-1.4,0.8-1.6,0c-0.7-0.7-0.5-2.9-0.4-3.8   c0-1,0.1-1.9,0.6-2.8l0.9-1c2.4,0.2,3.1,1.1,2.1,2.6C262.7,163.6,263.6,164.2,264,163.6L264,163.6z" />
	<path
   id="path79"
   d="M268,155c-0.8,2.7-3.4,17.9,3.3,14.6c0.6-0.3,0.1-1.3-0.6-0.9c-3.2,1.6-2.9-6-2.8-7.1c0.1-2.1,0.5-4.3,1.2-6.3   c0.1-0.3-0.1-0.6-0.4-0.7C268.4,154.5,268.1,154.7,268,155L268,155z" />
	<path
   id="path80"
   d="M265.7,161.2l5.7-0.3c0.7,0,0.7-1.1,0-1.1l-5.7,0.3C264.9,160.1,264.9,161.2,265.7,161.2z" />
	<path
   id="path81"
   d="M279,162.7c0.9-2.2-2-3.2-3.7-2.6c-2.3,0.9-3.6,3.3-3.2,5.8c0.3,1.8,2,4.4,4.1,3.8c1-0.3,1.7-1.2,1.8-2.3   c0.3-1.9,0.3-3.9,0.4-5.8l-1.1,0.1l2,7.5c0.1,0.3,0.4,0.5,0.7,0.4c0.3-0.1,0.5-0.4,0.4-0.7l-2-7.5c-0.1-0.3-0.4-0.4-0.7-0.4   c-0.2,0.1-0.4,0.3-0.4,0.5l-0.3,3.9c-0.1,0.9,0,3.9-2.2,2.8c-0.6-0.4-1-0.9-1.3-1.5c-0.5-1.2-0.5-2.5,0-3.6   c0.2-0.5,0.5-0.9,0.9-1.2c0.3-0.3,0.6-0.5,0.9-0.7c1.2-0.7,2.1-0.3,2.6,1.2C277.6,163,278.7,163.3,279,162.7L279,162.7z" />
	<path
   id="path82"
   d="M243.4,172.5c-0.1,4.7,0.1,9.4,0.4,14.1c0.1,0.7,1.1,0.7,1.1,0c-0.3-4.7-0.4-9.4-0.4-14.1   c0-0.3-0.2-0.5-0.5-0.5C243.6,171.9,243.4,172.2,243.4,172.5z" />
	<path
   id="path83"
   d="M246.2,182.2c-0.1,1.9,0.3,5.7,3.2,5.2c2.1-0.4,2.9-3.6,3.1-5.3c0.2-2.1-0.8-4.3-3.1-4.5   c-2.3-0.2-3.7,2.1-3.4,4.2c0.1,0.7,1.2,0.4,1.1-0.3c-0.3-2,1.8-3.7,3.5-2.2c1,0.9,1,2.4,0.7,3.6c-0.2,0.9-0.5,1.7-0.9,2.5   c-0.3,0.7-0.8,0.8-1.5,0.3c-0.9,0.1-1.4-0.3-1.5-1.1c-0.1-0.8-0.2-1.5-0.1-2.3C247.3,181.6,246.2,181.6,246.2,182.2L246.2,182.2z" />
	<path
   id="path84"
   d="M257.5,179.1c-0.7-0.9-2.3-1.8-3.3-0.9c-0.4,0.5-0.6,1.2-0.6,1.9c-0.2,1.4-0.2,2.7-0.3,4.1   c0,1.4-0.3,3.2,1.4,3.5c1.7,0.3,3.1-1.1,3.8-2.5c0.3-0.6-0.6-1.2-0.9-0.5c-0.5,0.9-1.7,2.5-2.8,1.7c-0.7-0.5-0.4-2.1-0.3-2.9   s0.1-1.7,0.2-2.5c0-0.6-0.1-1.5,0.4-1.8s1.3,0.1,1.7,0.7S257.9,179.7,257.5,179.1L257.5,179.1z" />
	<path
   id="path85"
   d="M259.6,177.9c-0.2,2.3-0.6,5.1-0.3,7.4c0.1,1.1,1,2,2.1,2.1c4.1,0.2,4.1-5.9,4-8.5c0-0.7-1.1-0.7-1.1,0   l0.3,9.2c0,0.7,1.1,0.7,1.1,0l-0.3-9.2h-1.1c0.1,1.2,0.1,2.4,0,3.6c-0.1,0.6-0.2,1.3-0.5,1.8c-0.1,0.3-0.3,0.7-0.5,0.9   c-0.6,1.1-1.6,0.9-2.9-0.5c-0.3-0.7,0-2.2,0.1-3c0.1-1.3,0.1-2.5,0.2-3.7C260.8,177.1,259.7,177.1,259.6,177.9L259.6,177.9z" />
	<path
   id="path86"
   d="M270.5,178.2c-1.5-2.1-3.6,0.2-4.1,1.8c-0.4,1-0.1,2,0.7,2.7c0.5,0.4,1.1,0.8,1.7,1c0.3,0.1,0.6,0.3,0.9,0.5   c0.7,1.8,0.5,2.6-0.7,2.5c-0.5,0.1-1.1,0-1.6-0.1c-0.7-0.1-1,0.9-0.3,1c1.7,0.3,5.1,0.1,4.6-2.5c-0.2-1-1.1-1.7-2-2.1   c-0.6-0.3-1.2-0.6-1.7-0.9c-0.7-0.4-1-1.2-0.7-2c0,0,0,0,0,0c0.2-0.5,1.3-2.4,2-1.4C269.9,179.3,270.9,178.7,270.5,178.2   L270.5,178.2z" />
	<path
   id="path87"
   d="M278.7,181.6c2.6-2.1,5-4.2,6-7.5c0.2-0.7-0.8-1.1-1-0.4c-0.6,1.6-0.8,3.2-0.7,4.9c0,1,0.2,1.9,0.3,2.9   c0.1,0.6,0.1,1.3,0.2,1.9c0.5,1.8-0.4,2.9-2.5,3.4l-0.4,1c2,0,4,0.1,6,0.3c0.3,0,0.6-0.2,0.6-0.5s-0.2-0.6-0.5-0.6   c-2-0.2-4-0.4-6-0.3c-0.3,0-0.6,0.2-0.6,0.5c0,0.2,0.1,0.4,0.2,0.5c1.5,1.4,3.4,0.4,4-1.3c1.4-3.9-1.1-8.2,0.5-12.3l-1-0.4   c-0.8,3.1-3.2,5.1-5.6,7C277.4,181.2,278.1,182.1,278.7,181.6L278.7,181.6z" />
	<path
   id="path42"
   class="st10"
   d="M407.9,97.3l1,45.5l1.4-0.2c-2.5-2.4-4.7-4.8-6.8-7.3l-1.3,0.5l6.7,7.6c0.2,0.2,0.7,0.3,1,0.2   c0.1,0,0.2-0.1,0.3-0.2l5.8-6c0.5-0.5-0.8-1-1.3-0.5c-1.9,2-3.9,4-5.8,6h1.3l-6.7-7.6c-0.5-0.5-1.7-0.1-1.3,0.5   c2.1,2.5,4.4,5,6.8,7.3c0.2,0.2,0.7,0.3,1,0.1c0.2-0.1,0.3-0.2,0.4-0.4l-1-45.5c0-0.3-0.3-0.5-0.8-0.5S407.8,97.1,407.9,97.3   L407.9,97.3z" />
	<path
   id="path88"
   d="M393.2,154.8v-0.6c0-0.3-0.2-0.5-0.5-0.5c-0.3,0-0.5,0.2-0.5,0.5l-0.7,16.4c0,0.7,1.1,0.7,1.1,0l0.7-16.4h-1.1   v0.6c0,0.3,0.2,0.5,0.5,0.5C392.9,155.3,393.2,155.1,393.2,154.8L393.2,154.8z" />
	<path
   id="path89"
   d="M392.8,155.2c4-0.4,6.4,1.8,6.3,5.8c-0.1,4.4-1.7,8.7-6.8,8.7c-0.3,0-0.5,0.2-0.5,0.5s0.2,0.5,0.5,0.5   c9.8,0,11.4-17.9,0.5-16.7C392.1,154.2,392.1,155.3,392.8,155.2z" />
	<path
   id="path90"
   d="M406.3,163.6c1.3-1.9,0.2-4.6-2.3-4.5c-3.1,0.2-3.4,4.1-3.3,6.4c0,1.4,0.6,5.7,2.8,4.5   c1.1-0.6,1.9-2.4,2.3-3.5c0.7-1.7,0.9-3.6,0.7-5.5c-0.1-0.7-1.1-0.7-1.1,0c0.1,2.5,0.4,5,1,7.5c0.2,0.7,1.2,0.4,1.1-0.3   c-0.5-2.4-0.9-4.8-1-7.2h-1.1c0.2,1.4,0.1,2.9-0.3,4.3c-0.2,0.7-0.5,1.3-0.8,1.9c-0.1,0.3-0.3,0.6-0.5,0.8c-0.9,0.8-1.4,0.8-1.6,0   c-0.7-0.7-0.5-2.9-0.4-3.8c0-1,0.1-1.9,0.6-2.8l0.9-1c2.4,0.2,3.1,1.1,2.1,2.6C405,163.6,405.9,164.2,406.3,163.6L406.3,163.6z" />
	<path
   id="path91"
   d="M410.3,155c-0.8,2.7-3.4,17.9,3.3,14.6c0.6-0.3,0.1-1.3-0.6-0.9c-3.2,1.6-2.9-6-2.8-7.1   c0.1-2.1,0.5-4.3,1.2-6.3c0.1-0.3-0.1-0.6-0.4-0.7C410.7,154.5,410.4,154.7,410.3,155L410.3,155L410.3,155z" />
	<path
   id="path92"
   d="M408,161.2l5.7-0.3c0.7,0,0.7-1.1,0-1.1l-5.7,0.3C407.2,160.1,407.2,161.2,408,161.2z" />
	<path
   id="path93"
   d="M421.3,162.7c0.9-2.2-2-3.2-3.7-2.6c-2.3,0.9-3.6,3.3-3.2,5.8c0.3,1.8,2,4.4,4.1,3.8c1-0.3,1.7-1.2,1.8-2.3   c0.3-1.9,0.3-3.9,0.4-5.8l-1.1,0.1l2,7.5c0.1,0.3,0.4,0.5,0.7,0.4c0.3-0.1,0.5-0.4,0.4-0.7l-2-7.5c-0.1-0.3-0.4-0.4-0.7-0.4   c-0.2,0.1-0.4,0.3-0.4,0.5l-0.3,3.9c-0.1,0.9,0,3.9-2.2,2.8c-0.6-0.4-1-0.9-1.3-1.5c-0.5-1.2-0.5-2.5,0-3.6   c0.2-0.5,0.5-0.9,0.9-1.2c0.3-0.3,0.6-0.5,0.9-0.7c1.2-0.7,2.1-0.3,2.6,1.2C419.9,163,421,163.3,421.3,162.7L421.3,162.7z" />
	<path
   id="path94"
   d="M385.7,172.5c-0.1,4.7,0.1,9.4,0.4,14.1c0.1,0.7,1.1,0.7,1.1,0c-0.3-4.7-0.4-9.4-0.4-14.1   c0-0.3-0.2-0.5-0.5-0.5S385.7,172.2,385.7,172.5z" />
	<path
   id="path95"
   d="M388.5,182.2c-0.1,1.9,0.3,5.7,3.2,5.2c2.1-0.4,2.9-3.6,3.1-5.3c0.2-2.1-0.8-4.3-3.1-4.5   c-2.3-0.2-3.7,2.1-3.4,4.2c0.1,0.7,1.2,0.4,1.1-0.3c-0.3-2,1.8-3.7,3.5-2.2c1,0.9,1,2.4,0.7,3.6c-0.2,0.9-0.5,1.7-0.9,2.5   c-0.3,0.7-0.8,0.8-1.5,0.3c-0.9,0.1-1.4-0.3-1.5-1.1c-0.1-0.8-0.2-1.5-0.1-2.3C389.6,181.6,388.5,181.6,388.5,182.2L388.5,182.2z" />
	<path
   id="path96"
   d="M399.8,179.1c-0.7-0.9-2.3-1.8-3.3-0.9c-0.4,0.5-0.6,1.2-0.6,1.9c-0.2,1.4-0.2,2.7-0.3,4.1   c0,1.4-0.3,3.2,1.4,3.5c1.7,0.3,3.1-1.1,3.8-2.5c0.3-0.6-0.6-1.2-0.9-0.5c-0.5,0.9-1.7,2.5-2.8,1.7c-0.7-0.5-0.4-2.1-0.3-2.9   c0-0.8,0.1-1.7,0.2-2.5c0-0.6-0.1-1.5,0.4-1.8c0.5-0.4,1.3,0.1,1.7,0.7C399.5,180.4,400.2,179.7,399.8,179.1L399.8,179.1z" />
	<path
   id="path97"
   d="M401.9,177.9c-0.2,2.3-0.6,5.1-0.3,7.4c0.1,1.1,1,2,2.1,2.1c4.1,0.2,4.1-5.9,4-8.5c0-0.7-1.1-0.7-1.1,0   l0.3,9.2c0,0.7,1.1,0.7,1.1,0l-0.3-9.2h-1.1c0.1,1.2,0.1,2.4,0,3.6c-0.1,0.6-0.2,1.3-0.5,1.8c-0.1,0.3-0.3,0.7-0.5,0.9   c-0.6,1.1-1.6,0.9-2.9-0.5c-0.3-0.7,0-2.2,0.1-3c0.1-1.3,0.1-2.5,0.2-3.7C403.1,177.1,402,177.1,401.9,177.9L401.9,177.9z" />
	<path
   id="path98"
   d="M412.8,178.2c-1.5-2.1-3.6,0.2-4.1,1.8c-0.4,1-0.1,2,0.7,2.7c0.5,0.4,1.1,0.8,1.7,1c0.3,0.1,0.6,0.3,0.9,0.5   c0.7,1.8,0.5,2.6-0.7,2.5c-0.5,0.1-1.1,0-1.6-0.1c-0.7-0.1-1,0.9-0.3,1c1.7,0.3,5.1,0.1,4.6-2.5c-0.2-1-1.1-1.7-2-2.1   c-0.6-0.3-1.2-0.6-1.7-0.9c-0.7-0.4-1-1.2-0.7-2c0,0,0,0,0,0c0.2-0.5,1.3-2.4,2-1.4C412.3,179.3,413.2,178.7,412.8,178.2   L412.8,178.2z" />
	<path
   id="path110"
   d="M422.2,180c-0.1-0.5-0.1-1.1-0.1-1.6c0.2-2.9,1.9-3.7,4.9-2.2c1.1,1.7-0.6,3.8-1.5,5.2   c-1.4,2.1-3.1,4.1-5,5.8c-0.2,0.2-0.2,0.6,0,0.8c0.1,0.1,0.1,0.1,0.2,0.1c2.8,0.5,5.8,0.3,8.5-0.4c0.3-0.1,0.4-0.4,0.3-0.7   c-0.1-0.2-0.4-0.4-0.6-0.3c-2.6,0.7-5.3,0.9-8,0.4l0.2,0.9c2.5-2.3,9.6-8.9,6.3-12.8c-1-1.1-2.6-1.4-3.9-0.8   c-2.4,1-2.8,3.4-2.5,5.7C421.2,180.7,422.3,180.8,422.2,180L422.2,180z" />
	<path
   id="path43"
   class="st10"
   d="M639.8,93.6c1.9,16.5,3,32.9,3.2,49.4l1.3-0.3c-2.5-1.3-4.6-2.8-6.3-4.5l-1.2,0.6   c2.9,2.1,6.5,3.7,10.5,4.8c0.4,0.1,0.8,0,1-0.2c1.9-1.9,3.3-3.9,4.2-6c0.1-0.3-0.2-0.5-0.6-0.6c-0.4,0-0.7,0.1-0.8,0.3   c-0.8,1.8-1.8,5.5-5.3,5c-3-0.4-6.1-2.6-8-4c-0.3-0.2-0.8-0.2-1.1,0c-0.2,0.2-0.3,0.4-0.1,0.6c1.8,1.8,4,3.3,6.5,4.7   c0.3,0.2,0.8,0.2,1.1,0c0.1-0.1,0.2-0.2,0.2-0.3c-0.2-16.5-1.2-33-3.2-49.4C641.2,92.9,639.7,92.9,639.8,93.6L639.8,93.6z" />
	<path
   id="path99"
   d="M627.6,154.8v-0.6c0-0.3-0.2-0.5-0.5-0.5s-0.5,0.2-0.5,0.5l-0.7,16.4c0,0.7,1.1,0.7,1.1,0l0.7-16.4h-1.1v0.6   c0,0.3,0.2,0.5,0.5,0.5S627.6,155.1,627.6,154.8L627.6,154.8z" />
	<path
   id="path100"
   d="M627.2,155.2c4-0.4,6.4,1.8,6.3,5.8c-0.1,4.4-1.7,8.7-6.8,8.7c-0.3,0-0.5,0.2-0.5,0.5s0.2,0.5,0.5,0.5   c9.8,0,11.4-17.9,0.5-16.7C626.5,154.2,626.5,155.3,627.2,155.2z" />
	<path
   id="path101"
   d="M640.7,163.6c1.3-1.9,0.2-4.6-2.3-4.5c-3.1,0.2-3.4,4.1-3.3,6.4c0,1.4,0.6,5.7,2.8,4.5   c1.1-0.6,1.9-2.4,2.3-3.5c0.7-1.7,0.9-3.6,0.7-5.5c-0.1-0.7-1.1-0.7-1.1,0c0.1,2.5,0.4,5,1,7.5c0.2,0.7,1.2,0.4,1.1-0.3   c-0.5-2.4-0.9-4.8-1-7.2h-1.1c0.2,1.4,0.1,2.9-0.3,4.3c-0.2,0.7-0.5,1.3-0.8,1.9c-0.1,0.3-0.3,0.6-0.5,0.8c-0.9,0.8-1.4,0.8-1.6,0   c-0.7-0.7-0.5-2.9-0.4-3.8c0-1,0.1-1.9,0.6-2.8l0.9-1c2.4,0.2,3.1,1.1,2.1,2.6C639.3,163.6,640.3,164.2,640.7,163.6L640.7,163.6z" />
	<path
   id="path102"
   d="M644.7,155c-0.8,2.7-3.4,17.9,3.3,14.6c0.6-0.3,0.1-1.3-0.6-0.9c-3.2,1.6-2.9-6-2.8-7.1   c0.1-2.1,0.5-4.3,1.2-6.3c0.1-0.3-0.1-0.6-0.4-0.7C645.1,154.5,644.8,154.7,644.7,155L644.7,155z" />
	<path
   id="path103"
   d="M642.3,161.2l5.7-0.3c0.7,0,0.7-1.1,0-1.1l-5.7,0.3C641.6,160.1,641.6,161.2,642.3,161.2z" />
	<path
   id="path104"
   d="M655.7,162.7c0.9-2.2-2-3.2-3.7-2.6c-2.3,0.9-3.6,3.3-3.2,5.8c0.3,1.8,2,4.4,4.1,3.8c1-0.3,1.7-1.2,1.8-2.3   c0.3-1.9,0.3-3.9,0.4-5.8l-1.1,0.1l2,7.5c0.1,0.3,0.4,0.5,0.7,0.4c0.3-0.1,0.5-0.4,0.4-0.7l-2-7.5c-0.1-0.3-0.4-0.4-0.7-0.4   c-0.2,0.1-0.4,0.3-0.4,0.5l-0.3,3.9c-0.1,0.9,0,3.9-2.2,2.8c-0.6-0.4-1-0.9-1.3-1.5c-0.5-1.2-0.5-2.5,0-3.6   c0.2-0.5,0.5-0.9,0.9-1.2c0.3-0.3,0.6-0.5,0.9-0.7c1.2-0.7,2.1-0.3,2.6,1.2C654.3,163,655.4,163.3,655.7,162.7L655.7,162.7z" />
	<path
   id="path105"
   d="M620.1,172.5c-0.1,4.7,0.1,9.4,0.4,14.1c0.1,0.7,1.1,0.7,1.1,0c-0.3-4.7-0.4-9.4-0.4-14.1   c0-0.3-0.2-0.5-0.5-0.5C620.3,171.9,620.1,172.2,620.1,172.5z" />
	<path
   id="path106"
   d="M622.9,182.2c-0.1,1.9,0.3,5.7,3.2,5.2c2.1-0.4,2.9-3.6,3.1-5.3c0.2-2.1-0.8-4.3-3.1-4.5   c-2.3-0.2-3.7,2.1-3.4,4.2c0.1,0.7,1.2,0.4,1.1-0.3c-0.3-2,1.8-3.7,3.5-2.2c1,0.9,1,2.4,0.7,3.6c-0.2,0.9-0.5,1.7-0.9,2.5   c-0.3,0.7-0.8,0.8-1.5,0.3c-0.9,0.1-1.4-0.3-1.5-1.1c-0.1-0.8-0.2-1.5-0.1-2.3C624,181.6,622.9,181.6,622.9,182.2L622.9,182.2z" />
	<path
   id="path107"
   d="M634.2,179.1c-0.7-0.9-2.3-1.8-3.3-0.9c-0.4,0.5-0.6,1.2-0.6,1.9c-0.2,1.4-0.2,2.7-0.3,4.1   c0,1.4-0.3,3.2,1.4,3.5c1.7,0.3,3.1-1.1,3.8-2.5c0.3-0.6-0.6-1.2-0.9-0.5c-0.5,0.9-1.7,2.5-2.8,1.7c-0.7-0.5-0.4-2.1-0.3-2.9   c0-0.8,0.1-1.7,0.2-2.5c0-0.6-0.1-1.5,0.4-1.8c0.5-0.4,1.3,0.1,1.7,0.7S634.6,179.7,634.2,179.1L634.2,179.1z" />
	<path
   id="path108"
   d="M636.3,177.9c-0.2,2.3-0.6,5.1-0.3,7.4c0.1,1.1,1,2,2.1,2.1c4.1,0.2,4.1-5.9,4-8.5c0-0.7-1.1-0.7-1.1,0   l0.3,9.2c0,0.7,1.1,0.7,1.1,0l-0.3-9.2H641c0.1,1.2,0.1,2.4,0,3.6c-0.1,0.6-0.2,1.3-0.5,1.8c-0.1,0.3-0.3,0.7-0.5,0.9   c-0.6,1.1-1.6,0.9-2.9-0.5c-0.3-0.7,0-2.2,0.1-3c0.1-1.3,0.1-2.5,0.2-3.7C637.4,177.1,636.4,177.1,636.3,177.9L636.3,177.9z" />
	<path
   id="path109"
   d="M647.2,178.2c-1.5-2.1-3.6,0.2-4.1,1.8c-0.4,1,0,2,0.8,2.7c0.5,0.4,1.1,0.8,1.7,1c0.3,0.1,0.6,0.3,0.9,0.5   c0.7,1.8,0.5,2.6-0.7,2.5c-0.5,0.1-1.1,0-1.6-0.1c-0.7-0.1-1,0.9-0.3,1c1.7,0.3,5.1,0.1,4.6-2.5c-0.2-1-1.1-1.7-2-2.1   c-0.6-0.3-1.2-0.6-1.7-0.9c-0.7-0.4-1-1.2-0.7-2c0,0,0,0,0,0c0.2-0.5,1.3-2.4,2-1.4C646.7,179.3,647.6,178.7,647.2,178.2z" />
	<path
   id="path111"
   d="M655.7,173.8c0.1,4.3,0,8.6-0.1,12.9c0,0.3,0.2,0.5,0.5,0.5c2.5-0.2,5.3-0.1,7.7-0.6c1-0.2,1.5-0.6,1.3-1.6   c0-0.2-0.2-0.3-0.4-0.4l-0.4-0.1c-0.2-0.1-0.5,0-0.6,0.3l-0.2,0.3c-0.2,0.3-0.1,0.6,0.2,0.7c0.3,0.2,0.6,0.1,0.7-0.2   c0,0.1-4.2,0.1-4.7,0.2l-3.8,0.3l0.5,0.5c0.2-4.3,0.2-8.6,0.1-12.9c0-0.3-0.2-0.5-0.5-0.5C655.9,173.3,655.7,173.5,655.7,173.8   L655.7,173.8z" />
	
	
	
	<g
   id="g77">
		<g
   id="g76">
			<path
   class="st10"
   d="M213.2,225c7.9,0,15.8,0,23.6,0c0.5,0,0.6-0.5,0.4-0.9c-0.7-0.8-1.6-1.6-2.3-2.4c-0.4-0.3-0.9-0.6-1.3-0.9     c0.9,0.5,1.9,0.9,2.9,1.3c2.3,1.5,2.1,1.7-0.9,3.8c-1.3,0.9-2.8,1.6-4.2,2.3c-0.6,0.3-0.1,1.1,0.5,0.9c3.1-1.4,5.6-3.1,8-5.4     c0.2-0.2,0.2-0.6-0.1-0.8c-2.5-1.7-4.8-2.5-7.8-2.8c-0.5-0.1-0.7,0.7-0.3,0.9c2.6,1.4,5.7,2.7,1.2,3.1c-1.9,0.2-4,0-5.9,0     c-4.6,0-9.2,0-13.8,0C212.6,224,212.6,225,213.2,225L213.2,225z"
   id="path75" />
		</g>
	</g>
	<g
   id="g113">
		<g
   id="g112">
			<path
   class="st10"
   d="M214.2,297.5c7.9,0,15.9-0.1,23.8-0.1c0.6,0,0.7-0.9,0.1-1c-1.4-0.2-2.7-0.7-4-1.5     c-0.1,0.8,0.4,1.1,1.6,0.9c1.5,0,2,0.7,1.7,2.1c-1,0.3-2,0.6-3,0.8c-0.6,0.2-0.4,1.1,0.3,1c2.1-0.5,4-1.2,5.9-2.1     c0.3-0.2,0.3-0.7,0-0.9c-2.6-1.2-5.1-2.1-7.9-2.7c-0.6-0.1-0.8,0.6-0.4,0.9c0,0,3.9,2.4,4,2.1c0.2-1.2-5.6-0.6-6.4-0.6     c-5.3,0-10.6,0-15.9,0.1C213.6,296.5,213.6,297.5,214.2,297.5L214.2,297.5z"
   id="path112" />
		</g>
	</g>
	<g
   id="g115">
		<g
   id="g114">
			<path
   class="st10"
   d="M212.2,368.1c8.6-0.5,17.2-1.1,25.8-1.6c0.6,0,0.6-0.8,0.1-1c-1.2-0.5-7-5.2-4-1.7c0.8,0.9,2.6,1.2,3.3,2.1     c1,1.4-0.5,1.4-2.1,2.4c-1.3,0.9-2.6,1.9-3.8,3c-0.5,0.4,0.2,1.1,0.7,0.7c2.4-2.1,4.9-3.7,7.7-5.2c0.3-0.2,0.3-0.7,0-0.9     c-2.8-1.2-5.1-2.8-7.4-4.8c-0.5-0.4-1.1,0.2-0.7,0.7c1.2,1.5,2.7,2.3,3.9,3.6c1.4,1.5,0.5-0.2,0.3,0.1c-0.2,0.4-4.5,0.3-5,0.3     c-6.3,0.4-12.6,0.8-18.8,1.2C211.6,367.1,211.6,368.1,212.2,368.1L212.2,368.1z"
   id="path113" />
		</g>
	</g>
	<g
   transform="matrix(0.67220823,0,0,0.67220823,-870.81431,117.47878)"
   id="g116">
		<rect
   id="rect35213_1_"
   x="1881.4"
   y="122.8"
   class="st0"
   width="39.8"
   height="18" />
		<rect
   id="rect35215_1_"
   x="1881.4"
   y="147.9"
   class="st1"
   width="39.8"
   height="18" />
		<rect
   id="rect35217_1_"
   x="1881.4"
   y="172.9"
   class="st2"
   width="39.8"
   height="18" />
		<rect
   id="rect35219_1_"
   x="1881.4"
   y="232.5"
   class="st0"
   width="39.8"
   height="18" />
		<rect
   id="rect35221_1_"
   x="1881.4"
   y="257.5"
   class="st1"
   width="39.8"
   height="18" />
		<rect
   id="rect35223_1_"
   x="1881.4"
   y="282.5"
   class="st2"
   width="39.8"
   height="18" />
		<rect
   id="rect35225_1_"
   x="1881.4"
   y="334"
   class="st0"
   width="39.8"
   height="18" />
		<rect
   id="rect35227_1_"
   x="1881.4"
   y="359"
   class="st1"
   width="39.8"
   height="18" />
		<rect
   id="rect35229_1_"
   x="1881.4"
   y="384"
   class="st2"
   width="39.8"
   height="18" />
	</g>
	<path
   id="path35402_1_"
   d="M395.3,197.6c-1.3,0.1-2.6,0.1-3.9,0.2c-0.8,0.1-1.8,0-2.6,0.2c-1.5,0.5-1.3,2-1.2,3.3   c0.4,5.3,0.7,10.6,0.9,15.9c0.4,10.4,0.2,20.9-0.3,31.3c0,0.3,0.2,0.6,0.5,0.6c0,0,0.1,0,0.1,0c3.6-0.2,7.3-0.5,11-0.7   c0.7,0,0.5-1.1-0.2-1.1c-3.6,0.2-7.3,0.5-11,0.7c0.2,0.2,0.4,0.4,0.6,0.6c0.5-9.3,0.6-18.6,0.4-27.9c-0.1-4.3-0.3-8.7-0.6-13   c-0.1-1.2-0.1-2.3-0.2-3.5c-0.1-1.1-0.4-2.4-0.3-3.5c0.2-2.2,1.8-1.8,3.3-1.9c1.2-0.1,2.4-0.1,3.6-0.2   C396.2,198.7,396,197.6,395.3,197.6L395.3,197.6z" />
	<path
   id="path35404_1_"
   d="M418.5,198.2c2.1,0.2,4.2,0.4,6.4,0.5l-0.5-0.5c-1,9.1-1.3,18.3-0.9,27.5c0.2,4.4,0.5,8.8,1,13.2   l0.4,3.1c0.1,1.2,0.7,2.7-0.1,3.7c-0.7,1-2.4,0.9-3.7,1.1l-3.9,0.7c-0.3,0-0.5,0.3-0.4,0.6c0,0.3,0.3,0.5,0.6,0.4c0,0,0,0,0.1,0   c2.4-0.4,5.2-0.5,7.5-1.3c1.5-0.5,1.4-1.5,1.2-2.8c-0.6-5.2-1.2-10.5-1.5-15.7c-0.6-10.1-0.3-20.2,0.8-30.3c0-0.3-0.2-0.5-0.5-0.5   c-2.1-0.2-4.2-0.4-6.4-0.5c-0.3-0.1-0.5,0.1-0.6,0.4C418,197.9,418.2,198.1,418.5,198.2C418.5,198.2,418.5,198.2,418.5,198.2   L418.5,198.2z" />
	<path
   id="path35408_1_"
   d="M409.7,201.1c-2.4,2.6-4,5.9-4.7,9.4c-0.2,0.9,1.1,1.2,1.3,0.4c0.6-3.3,2.1-6.3,4.3-8.8   C411.3,201.4,410.3,200.5,409.7,201.1z" />
	<path
   id="path35410_1_"
   d="M412.5,204.8c0.1-0.8,0.4-2,1.2-2.3c0.6-0.2,0.6,0.4,0.6,0.9c0,0.5-0.1,1.1-0.3,1.6   c-0.5,1.6-1.5,2.8-2.6,4c-0.3,0.3-0.3,0.7,0,1c0.1,0.1,0.2,0.1,0.3,0.2c2.1,0.4,4.3,0.5,6.4,0.5c0.9,0,0.9-1.4,0-1.4   c-2,0.1-4.1-0.1-6.1-0.4l0.3,1.1c1.8-2,4.3-5.4,3.1-8.2c-0.4-1-1.4-1.1-2.3-0.6c-1.2,0.6-1.8,2-2,3.2   C411.1,205.3,412.4,205.7,412.5,204.8L412.5,204.8z" />
	<path
   id="path35412_1_"
   d="M401,220.5c0.2-0.3,0.5-0.5,0.8-0.7c1.6,0.3,2,0.8,1.4,1.5c-0.2,0.6-0.7,1.1-1.4,1.3l0.4,1.3   c1.1-0.5,2,0.9,1.1,1.9c-0.6,0.6-1.6,0.6-2.4,0.4c-0.7-0.2-2.8-0.7-2.8-1.7c0-0.9-1.4-0.9-1.4,0c0,1.5,1.3,2.1,2.5,2.6   c1.5,0.6,3.3,1,4.7,0c2.2-1.7,0.7-5.6-2.1-4.5c-0.4,0.1-0.6,0.5-0.5,0.9c0.1,0.3,0.5,0.5,0.8,0.5c1.7-0.4,3.3-2.9,2.4-4.5   c-1-1.9-3.4-1.2-4.5,0.2C399.4,220.2,400.4,221.2,401,220.5L401,220.5z" />
	<path
   id="path35414_1_"
   d="M409.8,218.3c-1.6,2.8-2.9,5.7-4,8.8c-0.1,0.4,0.1,0.7,0.5,0.8c0.1,0,0.1,0,0.2,0l0,0   c0.4,0,0.7-0.3,0.7-0.7c0-0.1,0-0.1,0-0.2v0c-0.3-0.8-1.6-0.5-1.3,0.4l0,0l0.7-0.9l0,0l0.7,0.9c1-2.9,2.3-5.8,3.8-8.4   c0.2-0.3,0.1-0.7-0.2-0.9C410.4,217.8,410,217.9,409.8,218.3L409.8,218.3z" />
	<path
   id="path35416_1_"
   d="M413.4,220.4c1.2-0.4,1.4-0.1,0.8,0.9c-0.4,0.3-0.9,0.5-1.4,0.4v1.4c1.2-0.1,3.9,0.7,2.8,2.5   c-0.4,0.7-4.4,1.2-4.5,0c-0.1-0.9-1.5-0.9-1.4,0c0.1,1.3,1,2,2.3,2c1.3,0.1,3.5,0.1,4.5-1c0.8-1,0.8-2.4,0.1-3.4   c-0.8-1.3-2.4-1.6-3.8-1.5c-0.4,0-0.7,0.3-0.7,0.7c0,0.4,0.3,0.7,0.7,0.7c1.8,0,3.8-1.5,2.8-3.5c-0.5-0.9-1.6-1.3-2.5-0.8   c-0.5,0.3-0.9,0.7-1,1.3C411.8,220.9,413.2,221.3,413.4,220.4L413.4,220.4z" />
	<path
   id="path35418_1_"
   d="M400.7,294.6c-0.1-0.8,0.2-1.8,1.3-1.8c1.3,0,1.4,1.6,0.8,2.4c-0.5,0.8-1.8,1.3-2.6,1.9   c-1.2,0.8-2.1,2-2,3.5c0,0.4,0.3,0.7,0.7,0.7l6.1-0.2c0.9,0,0.9-1.4,0-1.4l-6.1,0.2l0.7,0.7c-0.1-2.9,7.3-4.3,4.5-8   c-1.7-2.3-5.1-0.6-4.8,2.1C399.4,295.5,400.7,295.5,400.7,294.6L400.7,294.6z" />
	<path
   id="path35420_1_"
   d="M408.7,291.3c-0.8,3.2-1.8,6.3-2.9,9.4c-0.3,0.8,1,1.2,1.3,0.4c1.1-3.1,2.1-6.3,2.9-9.4   C410.2,290.9,408.9,290.5,408.7,291.3L408.7,291.3z" />
	<path
   id="path35422_1_"
   d="M412.4,293.9c0.5-0.6,0.4-0.8,1.2-0.4c0.6,0.1,0.8,0.3,0.4,0.8c-0.1,0.5-0.5,0.9-1,0.9   c-0.4,0.1-0.6,0.5-0.5,0.8c0.1,0.3,0.3,0.5,0.6,0.5c1.7,0.2,2.6,2.2,0.9,3.2c-1.2,0.7-2.8,0.4-3-1.2c-0.1-0.9-1.5-0.5-1.3,0.4   c0.5,3,4.1,3.2,6,1.3c2.2-2.2,0-4.7-2.5-5l0.2,1.3c1.6-0.5,2.7-2.2,2-3.8c-0.9-2-2.9-1-3.9,0.2   C410.9,293.6,411.9,294.6,412.4,293.9L412.4,293.9z" />
	<path
   id="path35424_1_"
   d="M398.3,238.4c-0.9,2.5-0.5,5.3,2.3,6.4c2.2,0.9,4.7-2.2,5.3-4.1c0.7-2.3-1-5.1-3.2-5.8   c-2.9-0.9-3.7,2.6-4.4,4.5c-0.3,0.8,1,1.2,1.3,0.4c0.2-0.6,0.4-1.2,0.6-1.8c0.4-1.1,0.5-1.6,1.7-1.6c2.1,0,3.4,2.6,2.4,4.4   c-0.6,1.1-2.1,3-3.6,2.5c-2-0.7-1.7-3.1-1.2-4.6C400,237.9,398.7,237.6,398.3,238.4L398.3,238.4z" />
	<path
   id="path35426_1_"
   d="M409.7,234.6l-2,8.9c-0.2,0.9,1.1,1.2,1.3,0.4l2-8.9C411.2,234.2,409.9,233.8,409.7,234.6z" />
	<path
   id="path35428_1_"
   d="M413.2,240.6c1-0.4,1.9-1.2,2.6-2.1c0.8-1.2,0.5-2.4,1.1-3.6l-1.3-0.3c0.1,1.6-0.1,3.3-0.3,4.9   c-0.2,1.4-0.1,3.6-1.9,3.4c-0.8-0.1-0.9,1.2-0.2,1.3c1.1,0.3,2.3,0.4,3.4,0.2c0.9-0.1,0.9-1.5,0-1.4c-1,0.1-2,0.1-3-0.2l-0.2,1.3   c2.3,0.2,2.4-0.2,2.8-2.4c0.5-2.4,0.8-4.8,0.7-7.3c0-0.6-1-1-1.3-0.3c-0.4,0.8-0.3,1.6-0.5,2.5c-0.3,1.3-1.4,2.2-2.6,2.7   C411.7,239.8,412.4,241,413.2,240.6L413.2,240.6z" />
	<path
   id="path35430_1_"
   d="M400,383.1c2-1.2,3.1-3.4,3-5.7c0-0.4-0.3-0.7-0.7-0.7s-0.7,0.3-0.7,0.7v6.9c0,1.1,0,1.5-1.2,1.5   c-0.9,0-0.9,1.3,0,1.4c0.9,0.1,1.8,0.2,2.7,0.3c0.9,0.2,1.2-1.2,0.4-1.3c-1-0.2-2-0.3-3-0.4v1.4c0.7,0.1,1.3,0,2-0.1   c0.2-0.1,0.4-0.3,0.5-0.5c0.3-1.3,0.1-2.8,0.1-4.1v-5.1h-1.4c0.1,1.8-0.8,3.6-2.3,4.5C398.5,382.3,399.2,383.5,400,383.1L400,383.1   z" />
	<path
   id="path35432_1_"
   d="M408.3,376.6c-0.7,3.3-1.2,6.8-2.5,9.9c-0.3,0.7,0.9,1.1,1.2,0.5l0.3-0.5c0.5-0.7-0.7-1.4-1.2-0.7   l-0.3,0.5l1.3,0.5c1.3-3.2,1.8-6.6,2.5-9.9C409.8,376.1,408.4,375.7,408.3,376.6L408.3,376.6z" />
	<path
   id="path35434_1_"
   d="M412.1,384c2-1.6,3.2-4.1,3.1-6.6c0-0.9-1.3-0.9-1.4,0l-0.3,5.2c0,0.7,0,1.5-0.1,2.2   c-0.2,1.2-0.2,1.2-1.4,1.2v1.4h3.5c0.4,0,0.7-0.3,0.7-0.7c0-0.4-0.3-0.7-0.7-0.7H412c-0.4,0-0.7,0.3-0.7,0.7c0,0.4,0.3,0.7,0.7,0.7   c1.5,0,2.5,0.2,2.7-1.5c0.3-2.8,0.3-5.7,0.5-8.5h-1.4c0,2.2-1,4.3-2.7,5.7C410.4,383.6,411.4,384.5,412.1,384L412.1,384z" />
	<path
   id="path35436_1_"
   d="M395.3,271.3c-1.3,0.1-2.6,0.1-3.9,0.2c-0.8,0.1-1.8,0-2.6,0.2c-1.5,0.5-1.3,2-1.2,3.3   c0.4,5.3,0.7,10.6,0.9,15.9c0.4,10.4,0.2,20.9-0.3,31.3c0,0.3,0.2,0.6,0.5,0.6c0,0,0.1,0,0.1,0c3.6-0.2,7.3-0.5,11-0.7   c0.7,0,0.5-1.1-0.2-1.1c-3.6,0.2-7.3,0.5-11,0.7c0.2,0.2,0.4,0.4,0.6,0.6c0.5-9.3,0.6-18.6,0.4-27.9c-0.1-4.3-0.3-8.7-0.6-13   c-0.1-1.2-0.1-2.3-0.2-3.5c-0.1-1.1-0.4-2.4-0.3-3.5c0.2-2.2,1.8-1.8,3.3-1.9c1.2-0.1,2.4-0.1,3.6-0.2   C396.2,272.4,396,271.3,395.3,271.3L395.3,271.3z" />
	<path
   id="path35438_1_"
   d="M418.5,271.9c2.1,0.2,4.2,0.4,6.4,0.5l-0.5-0.5c-1,9.1-1.3,18.3-0.9,27.5c0.2,4.4,0.5,8.8,1,13.2   l0.4,3.1c0.1,1.2,0.7,2.7-0.1,3.7c-0.7,1-2.4,0.9-3.7,1.1l-3.9,0.7c-0.3,0-0.5,0.3-0.4,0.6s0.3,0.5,0.6,0.4c0,0,0,0,0.1,0   c2.4-0.4,5.2-0.5,7.5-1.3c1.5-0.5,1.4-1.5,1.2-2.8c-0.6-5.2-1.2-10.5-1.5-15.7c-0.6-10.1-0.3-20.2,0.8-30.3c0-0.3-0.2-0.5-0.5-0.5   c-2.1-0.2-4.2-0.4-6.4-0.5c-0.3-0.1-0.5,0.1-0.6,0.4C418,271.5,418.2,271.8,418.5,271.9C418.5,271.9,418.5,271.9,418.5,271.9   L418.5,271.9z" />
	<path
   id="path35440_1_"
   d="M396.5,279.3c-1.3,1.7-0.5,4.1,1.5,4.9c2.6,1.1,5.8-1.2,6.8-3.6c1.1-2.4-0.7-4.5-3.1-4.9   c-2.5-0.4-4.9,0.9-6,3.2c-0.4,0.8,0.8,1.5,1.2,0.7c0.5-1.2,1.5-2.1,2.8-2.5c1.4-0.4,3.9-0.1,4.1,1.8c0.1,1.7-1.9,3.5-3.4,4   c-0.9,0.3-1.9,0.3-2.6-0.5c-0.6-0.6-0.9-1.5-0.3-2.2C398.1,279.6,397.1,278.6,396.5,279.3L396.5,279.3z" />
	<path
   id="path35442_1_"
   d="M409.7,274.8c-2.4,2.6-4,5.9-4.7,9.4c-0.2,0.9,1.1,1.2,1.3,0.4c0.6-3.3,2.1-6.3,4.3-8.8   C411.3,275.1,410.3,274.2,409.7,274.8z" />
	<path
   id="path35444_1_"
   d="M412.5,278.5c0.1-0.8,0.4-2,1.2-2.3c0.6-0.2,0.6,0.4,0.6,0.9c0,0.5-0.1,1.1-0.3,1.6   c-0.5,1.6-1.5,2.8-2.6,4c-0.3,0.3-0.3,0.7,0,1c0.1,0.1,0.2,0.1,0.3,0.2c2.1,0.4,4.3,0.5,6.4,0.5c0.9,0,0.9-1.4,0-1.4   c-2,0.1-4.1-0.1-6.1-0.4l0.3,1.1c1.8-2,4.3-5.4,3.1-8.2c-0.4-1-1.4-1.1-2.3-0.6c-1.2,0.6-1.8,2-2,3.2   C411.1,279,412.4,279.4,412.5,278.5L412.5,278.5z" />
	<path
   id="path35446_1_"
   d="M395.3,339.6c-1.3,0.1-2.6,0.1-3.9,0.2c-0.8,0.1-1.8,0-2.6,0.2c-1.5,0.5-1.3,2-1.2,3.3   c0.4,5.3,0.7,10.6,0.9,15.9c0.4,10.4,0.2,20.9-0.3,31.3c0,0.3,0.2,0.6,0.5,0.6c0,0,0.1,0,0.1,0c3.6-0.2,7.3-0.5,11-0.7   c0.7,0,0.5-1.1-0.2-1.1c-3.6,0.2-7.3,0.5-11,0.7c0.2,0.2,0.4,0.4,0.6,0.6c0.5-9.3,0.6-18.6,0.4-27.9c-0.1-4.3-0.3-8.7-0.6-13   c-0.1-1.2-0.1-2.3-0.2-3.5c-0.1-1.1-0.4-2.4-0.3-3.5c0.2-2.2,1.8-1.8,3.3-1.9c1.2-0.1,2.4-0.1,3.6-0.2   C396.2,340.6,396,339.5,395.3,339.6L395.3,339.6z" />
	<path
   id="path35448_1_"
   d="M418.5,340.1c2.1,0.2,4.2,0.4,6.4,0.5l-0.5-0.5c-1,9.1-1.3,18.3-0.9,27.5c0.2,4.4,0.5,8.8,1,13.2   l0.4,3.1c0.1,1.2,0.7,2.7-0.1,3.7c-0.7,1-2.4,0.9-3.7,1.1l-3.9,0.7c-0.3,0-0.5,0.3-0.4,0.6c0,0.3,0.3,0.5,0.6,0.4c0,0,0,0,0.1,0   c2.4-0.4,5.2-0.5,7.5-1.3c1.5-0.5,1.4-1.5,1.2-2.8c-0.6-5.2-1.2-10.5-1.5-15.7c-0.6-10.1-0.3-20.2,0.8-30.3c0-0.3-0.2-0.5-0.5-0.5   c-2.1-0.2-4.2-0.4-6.4-0.5c-0.3-0.1-0.5,0.1-0.6,0.4C418,339.8,418.2,340,418.5,340.1C418.5,340.1,418.5,340.1,418.5,340.1   L418.5,340.1z" />
	<path
   id="path35450_1_"
   d="M396.5,364.6c-1.3,1.7-0.5,4.1,1.5,4.9c2.6,1.1,5.8-1.2,6.8-3.6c1.1-2.4-0.7-4.5-3.1-4.9   c-2.5-0.4-4.9,0.9-6,3.2c-0.4,0.8,0.8,1.5,1.2,0.7c0.5-1.2,1.5-2.1,2.8-2.5c1.4-0.4,3.9-0.1,4.1,1.8c0.1,1.7-1.9,3.5-3.4,4   c-0.9,0.3-1.9,0.3-2.6-0.5c-0.6-0.6-0.9-1.5-0.3-2.2C398.1,364.8,397.1,363.9,396.5,364.6L396.5,364.6z" />
	<path
   id="path35452_1_"
   d="M409.7,343.1c-2.4,2.6-4,5.9-4.7,9.4c-0.2,0.9,1.1,1.2,1.3,0.4c0.6-3.3,2.1-6.3,4.3-8.8   C411.3,343.4,410.3,342.4,409.7,343.1L409.7,343.1z" />
	<path
   id="path35454_1_"
   d="M412.5,346.8c0.1-0.8,0.4-2,1.2-2.3c0.6-0.2,0.6,0.4,0.6,0.9c0,0.5-0.1,1.1-0.3,1.6   c-0.5,1.6-1.5,2.8-2.6,4c-0.3,0.3-0.3,0.7,0,1c0.1,0.1,0.2,0.1,0.3,0.2c2.1,0.4,4.3,0.5,6.4,0.5c0.9,0,0.9-1.4,0-1.4   c-2,0.1-4.1-0.1-6.1-0.4l0.3,1.1c1.8-2,4.3-5.4,3.1-8.2c-0.4-1-1.4-1.1-2.3-0.6c-1.2,0.6-1.8,2-2,3.2   C411.1,347.3,412.4,347.6,412.5,346.8L412.5,346.8z" />
	<path
   id="path35456_1_"
   d="M399.6,348.9c1.9-1.2,3.1-3.2,3.3-5.4c0.1-0.9-1.3-0.9-1.4,0c-0.4,2.9-0.6,5.7-0.8,8.6l0.7-0.7   c-0.6,0-1.2,0.2-1.8,0.5c-0.3,0.2-0.4,0.6-0.2,1c0.1,0.2,0.3,0.3,0.6,0.3l2.8,0c0.9,0,0.9-1.4,0-1.4l-2.8,0l0.3,1.3l1.1-0.3   c0.4,0,0.7-0.3,0.7-0.7c0.2-2.9,0.4-5.7,0.8-8.6h-1.4c-0.2,1.7-1.1,3.3-2.6,4.2C398.2,348.2,398.9,349.4,399.6,348.9L399.6,348.9z" />
	<path
   id="path35458_1_"
   d="M408.2,359.8c-0.7,3.4-1.8,6.7-3,10c-0.3,0.8,1,1.2,1.3,0.4c1.3-3.2,2.3-6.6,3-10   C409.7,359.3,408.4,359,408.2,359.8z" />
	<path
   id="path35460_1_"
   d="M412.9,362.1c1.4-0.6,1.8-0.3,1.2,1c-0.3,0.5-0.8,0.9-1.4,1c-0.5,0.2-0.7,1.2,0,1.3c1.1,0.2,2.4,1,2,2.4   c-0.7,2.2-3.1,0.7-3.6-0.6c-0.3-0.8-1.6-0.5-1.3,0.4c0.9,2.2,3.7,3.8,5.6,1.7c1.9-2.1,0-4.8-2.3-5.2v1.3c1.8-0.7,3.6-2.8,2.1-4.7   c-1.2-1.5-3.8-0.6-3.6,1.4C411.6,363,413,363,412.9,362.1L412.9,362.1z" />
	<path
   id="path35464_1_"
   d="M409.7,308.3l-2,8.9c-0.2,0.9,1.1,1.2,1.3,0.4l2-8.9C411.2,307.8,409.9,307.5,409.7,308.3L409.7,308.3z" />
	<path
   id="path35466_1_"
   d="M413.2,314.3c1-0.4,1.9-1.2,2.6-2.1c0.8-1.2,0.5-2.4,1.1-3.6l-1.3-0.3c0.1,1.6-0.1,3.3-0.3,4.9   c-0.2,1.4-0.1,3.6-1.9,3.4c-0.8-0.1-0.9,1.2-0.2,1.3c1.1,0.3,2.3,0.4,3.4,0.2c0.9-0.1,0.9-1.5,0-1.4c-1,0.1-2,0.1-3-0.2l-0.2,1.3   c2.3,0.2,2.4-0.2,2.8-2.4c0.5-2.4,0.8-4.8,0.7-7.3c0-0.6-1-1-1.3-0.3c-0.4,0.8-0.3,1.6-0.5,2.5c-0.3,1.3-1.4,2.2-2.6,2.7   C411.7,313.5,412.4,314.7,413.2,314.3L413.2,314.3z" />
	<g
   transform="matrix(0.67220823,0,0,0.67220823,-870.81431,117.47878)"
   id="g117">
		<rect
   id="rect35213_2_"
   x="2229.6"
   y="122.8"
   class="st0"
   width="39.8"
   height="18" />
		<rect
   id="rect35215_2_"
   x="2229.6"
   y="147.9"
   class="st1"
   width="39.8"
   height="18" />
		<rect
   id="rect35217_2_"
   x="2229.6"
   y="172.9"
   class="st2"
   width="39.8"
   height="18" />
		<rect
   id="rect35219_2_"
   x="2229.6"
   y="232.5"
   class="st0"
   width="39.8"
   height="18" />
		<rect
   id="rect35221_2_"
   x="2229.6"
   y="257.5"
   class="st1"
   width="39.8"
   height="18" />
		<rect
   id="rect35223_2_"
   x="2229.6"
   y="282.5"
   class="st2"
   width="39.8"
   height="18" />
		<rect
   id="rect35225_2_"
   x="2229.6"
   y="334"
   class="st0"
   width="39.8"
   height="18" />
		<rect
   id="rect35227_2_"
   x="2229.6"
   y="359"
   class="st1"
   width="39.8"
   height="18" />
		<rect
   id="rect35229_2_"
   x="2229.6"
   y="384"
   class="st2"
   width="39.8"
   height="18" />
	</g>
	<path
   id="path35402_2_"
   d="M629.3,197.6c-1.3,0.1-2.6,0.1-3.9,0.2c-0.8,0.1-1.8,0-2.6,0.2c-1.5,0.5-1.3,2-1.2,3.3   c0.4,5.3,0.7,10.6,0.9,15.9c0.4,10.4,0.2,20.9-0.3,31.3c0,0.3,0.2,0.6,0.5,0.6c0,0,0.1,0,0.1,0c3.6-0.2,7.3-0.5,11-0.7   c0.7,0,0.5-1.1-0.2-1.1c-3.6,0.2-7.3,0.5-11,0.7c0.2,0.2,0.4,0.4,0.6,0.6c0.5-9.3,0.6-18.6,0.4-27.9c-0.1-4.3-0.3-8.7-0.6-13   c-0.1-1.2-0.1-2.3-0.2-3.5c-0.1-1.1-0.4-2.4-0.3-3.5c0.2-2.2,1.8-1.8,3.3-1.9c1.2-0.1,2.4-0.1,3.6-0.2   C630.2,198.7,630,197.6,629.3,197.6L629.3,197.6z" />
	<path
   id="path35404_2_"
   d="M652.5,198.2c2.1,0.2,4.2,0.4,6.4,0.5l-0.5-0.5c-1,9.1-1.3,18.3-0.9,27.5c0.2,4.4,0.5,8.8,1,13.2   l0.4,3.1c0.1,1.2,0.7,2.7-0.1,3.7c-0.7,1-2.4,0.9-3.7,1.1l-3.9,0.7c-0.3,0-0.5,0.3-0.4,0.6c0,0.3,0.3,0.5,0.6,0.4c0,0,0,0,0.1,0   c2.4-0.4,5.2-0.5,7.5-1.3c1.5-0.5,1.4-1.5,1.2-2.8c-0.6-5.2-1.2-10.5-1.5-15.7c-0.6-10.1-0.3-20.2,0.8-30.3c0-0.3-0.2-0.5-0.5-0.5   c-2.1-0.2-4.2-0.4-6.4-0.5c-0.3-0.1-0.5,0.1-0.6,0.4C652,197.9,652.2,198.1,652.5,198.2C652.5,198.2,652.5,198.2,652.5,198.2   L652.5,198.2z" />
	<path
   id="path35408_2_"
   d="M643.7,201.1c-2.4,2.6-4,5.9-4.7,9.4c-0.2,0.9,1.1,1.2,1.3,0.4c0.6-3.3,2.1-6.3,4.3-8.8   C645.3,201.4,644.3,200.5,643.7,201.1z" />
	<path
   id="path35410_2_"
   d="M646.5,204.8c0.1-0.8,0.4-2,1.2-2.3c0.6-0.2,0.6,0.4,0.6,0.9c0,0.5-0.1,1.1-0.3,1.6   c-0.5,1.6-1.5,2.8-2.6,4c-0.3,0.3-0.3,0.7,0,1c0.1,0.1,0.2,0.1,0.3,0.2c2.1,0.4,4.3,0.5,6.4,0.5c0.9,0,0.9-1.4,0-1.4   c-2,0.1-4.1-0.1-6.1-0.4l0.3,1.1c1.8-2,4.3-5.4,3.1-8.2c-0.4-1-1.4-1.1-2.3-0.6c-1.2,0.6-1.8,2-2,3.2   C645.1,205.3,646.4,205.7,646.5,204.8L646.5,204.8z" />
	<path
   id="path35414_2_"
   d="M643.8,218.3c-1.6,2.8-2.9,5.7-4,8.8c-0.1,0.4,0.1,0.7,0.5,0.8c0.1,0,0.1,0,0.2,0l0,0   c0.4,0,0.7-0.3,0.7-0.7c0-0.1,0-0.1,0-0.2v0c-0.3-0.8-1.6-0.5-1.3,0.4l0,0l0.7-0.9l0,0l0.7,0.9c1-2.9,2.3-5.8,3.8-8.4   c0.2-0.3,0.1-0.7-0.2-0.9C644.4,217.8,644,217.9,643.8,218.3L643.8,218.3z" />
	<path
   id="path35416_2_"
   d="M647.4,220.4c1.2-0.4,1.4-0.1,0.8,0.9c-0.4,0.3-0.9,0.5-1.4,0.4v1.4c1.2-0.1,3.9,0.7,2.8,2.5   c-0.4,0.7-4.4,1.2-4.5,0c-0.1-0.9-1.5-0.9-1.4,0c0.1,1.3,1,2,2.3,2c1.3,0.1,3.5,0.1,4.5-1c0.8-1,0.8-2.4,0.1-3.4   c-0.8-1.3-2.4-1.6-3.8-1.5c-0.4,0-0.7,0.3-0.7,0.7c0,0.4,0.3,0.7,0.7,0.7c1.8,0,3.8-1.5,2.8-3.5c-0.5-0.9-1.6-1.3-2.5-0.8   c-0.5,0.3-0.9,0.7-1,1.3C645.8,220.9,647.2,221.3,647.4,220.4L647.4,220.4z" />
	<path
   id="path35420_2_"
   d="M642.7,291.3c-0.8,3.2-1.8,6.3-2.9,9.4c-0.3,0.8,1,1.2,1.3,0.4c1.1-3.1,2.1-6.3,2.9-9.4   C644.2,290.9,642.9,290.5,642.7,291.3L642.7,291.3z" />
	<path
   id="path35422_2_"
   d="M646.4,293.9c0.5-0.6,0.4-0.8,1.2-0.4c0.6,0.1,0.8,0.3,0.4,0.8c-0.1,0.5-0.5,0.9-1,0.9   c-0.4,0.1-0.6,0.5-0.5,0.8c0.1,0.3,0.3,0.5,0.6,0.5c1.7,0.2,2.6,2.2,0.9,3.2c-1.2,0.7-2.8,0.4-3-1.2c-0.1-0.9-1.5-0.5-1.3,0.4   c0.5,3,4.1,3.2,6,1.3c2.2-2.2,0-4.7-2.5-5l0.2,1.3c1.6-0.5,2.7-2.2,2-3.8c-0.9-2-2.9-1-3.9,0.2   C644.9,293.6,645.9,294.6,646.4,293.9L646.4,293.9z" />
	<path
   id="path35424_2_"
   d="M632.3,238.4c-0.9,2.5-0.5,5.3,2.3,6.4c2.2,0.9,4.7-2.2,5.3-4.1c0.7-2.3-1-5.1-3.2-5.8   c-2.9-0.9-3.7,2.6-4.4,4.5c-0.3,0.8,1,1.2,1.3,0.4c0.2-0.6,0.4-1.2,0.6-1.8c0.4-1.1,0.5-1.6,1.7-1.6c2.1,0,3.4,2.6,2.4,4.4   c-0.6,1.1-2.1,3-3.6,2.5c-2-0.7-1.7-3.1-1.2-4.6C634,237.9,632.7,237.6,632.3,238.4L632.3,238.4z" />
	<path
   id="path35426_2_"
   d="M643.7,234.6l-2,8.9c-0.2,0.9,1.1,1.2,1.3,0.4l2-8.9C645.2,234.2,643.9,233.8,643.7,234.6z" />
	<path
   id="path35428_2_"
   d="M647.2,240.6c1-0.4,1.9-1.2,2.6-2.1c0.8-1.2,0.5-2.4,1.1-3.6l-1.3-0.3c0.1,1.6-0.1,3.3-0.3,4.9   c-0.2,1.4-0.1,3.6-1.9,3.4c-0.8-0.1-0.9,1.2-0.2,1.3c1.1,0.3,2.3,0.4,3.4,0.2c0.9-0.1,0.9-1.5,0-1.4c-1,0.1-2,0.1-3-0.2l-0.2,1.3   c2.3,0.2,2.4-0.2,2.8-2.4c0.5-2.4,0.8-4.8,0.7-7.3c0-0.6-1-1-1.3-0.3c-0.4,0.8-0.3,1.6-0.5,2.5c-0.3,1.3-1.4,2.2-2.6,2.7   C645.7,239.8,646.4,241,647.2,240.6L647.2,240.6z" />
	<path
   id="path35430_2_"
   d="M634,383.1c2-1.2,3.1-3.4,3-5.7c0-0.4-0.3-0.7-0.7-0.7c-0.4,0-0.7,0.3-0.7,0.7v6.9c0,1.1,0,1.5-1.2,1.5   c-0.9,0-0.9,1.3,0,1.4c0.9,0.1,1.8,0.2,2.7,0.3c0.9,0.2,1.2-1.2,0.4-1.3c-1-0.2-2-0.3-3-0.4v1.4c0.7,0.1,1.3,0,2-0.1   c0.2-0.1,0.4-0.3,0.5-0.5c0.3-1.3,0.1-2.8,0.1-4.1v-5.1h-1.4c0.1,1.8-0.8,3.6-2.3,4.5C632.5,382.3,633.2,383.5,634,383.1L634,383.1   z" />
	<path
   id="path35432_2_"
   d="M642.3,376.6c-0.7,3.3-1.2,6.8-2.5,9.9c-0.3,0.7,0.9,1.1,1.2,0.5l0.3-0.5c0.5-0.7-0.7-1.4-1.2-0.7   l-0.3,0.5l1.3,0.5c1.3-3.2,1.8-6.6,2.5-9.9C643.8,376.1,642.4,375.7,642.3,376.6L642.3,376.6z" />
	<path
   id="path35434_2_"
   d="M646.1,384c2-1.6,3.2-4.1,3.1-6.6c0-0.9-1.3-0.9-1.4,0l-0.3,5.2c0,0.7,0,1.5-0.1,2.2   c-0.2,1.2-0.2,1.2-1.4,1.2v1.4h3.5c0.4,0,0.7-0.3,0.7-0.7c0-0.4-0.3-0.7-0.7-0.7H646c-0.4,0-0.7,0.3-0.7,0.7c0,0.4,0.3,0.7,0.7,0.7   c1.5,0,2.5,0.2,2.7-1.5c0.3-2.8,0.3-5.7,0.5-8.5h-1.4c0,2.2-1,4.3-2.7,5.7C644.4,383.6,645.4,384.5,646.1,384L646.1,384z" />
	<path
   id="path35436_2_"
   d="M629.3,271.3c-1.3,0.1-2.6,0.1-3.9,0.2c-0.8,0.1-1.8,0-2.6,0.2c-1.5,0.5-1.3,2-1.2,3.3   c0.4,5.3,0.7,10.6,0.9,15.9c0.4,10.4,0.2,20.9-0.3,31.3c0,0.3,0.2,0.6,0.5,0.6c0,0,0.1,0,0.1,0c3.6-0.2,7.3-0.5,11-0.7   c0.7,0,0.5-1.1-0.2-1.1c-3.6,0.2-7.3,0.5-11,0.7c0.2,0.2,0.4,0.4,0.6,0.6c0.5-9.3,0.6-18.6,0.4-27.9c-0.1-4.3-0.3-8.7-0.6-13   c-0.1-1.2-0.1-2.3-0.2-3.5c-0.1-1.1-0.4-2.4-0.3-3.5c0.2-2.2,1.8-1.8,3.3-1.9c1.2-0.1,2.4-0.1,3.6-0.2   C630.2,272.4,630,271.3,629.3,271.3L629.3,271.3z" />
	<path
   id="path35438_2_"
   d="M652.5,271.9c2.1,0.2,4.2,0.4,6.4,0.5l-0.5-0.5c-1,9.1-1.3,18.3-0.9,27.5c0.2,4.4,0.5,8.8,1,13.2   l0.4,3.1c0.1,1.2,0.7,2.7-0.1,3.7c-0.7,1-2.4,0.9-3.7,1.1l-3.9,0.7c-0.3,0-0.5,0.3-0.4,0.6s0.3,0.5,0.6,0.4c0,0,0,0,0.1,0   c2.4-0.4,5.2-0.5,7.5-1.3c1.5-0.5,1.4-1.5,1.2-2.8c-0.6-5.2-1.2-10.5-1.5-15.7c-0.6-10.1-0.3-20.2,0.8-30.3c0-0.3-0.2-0.5-0.5-0.5   c-2.1-0.2-4.2-0.4-6.4-0.5c-0.3-0.1-0.5,0.1-0.6,0.4C652,271.5,652.2,271.8,652.5,271.9C652.5,271.9,652.5,271.9,652.5,271.9   L652.5,271.9z" />
	<path
   id="path35442_2_"
   d="M643.7,274.8c-2.4,2.6-4,5.9-4.7,9.4c-0.2,0.9,1.1,1.2,1.3,0.4c0.6-3.3,2.1-6.3,4.3-8.8   C645.3,275.1,644.3,274.2,643.7,274.8z" />
	<path
   id="path35444_2_"
   d="M646.5,278.5c0.1-0.8,0.4-2,1.2-2.3c0.6-0.2,0.6,0.4,0.6,0.9c0,0.5-0.1,1.1-0.3,1.6   c-0.5,1.6-1.5,2.8-2.6,4c-0.3,0.3-0.3,0.7,0,1c0.1,0.1,0.2,0.1,0.3,0.2c2.1,0.4,4.3,0.5,6.4,0.5c0.9,0,0.9-1.4,0-1.4   c-2,0.1-4.1-0.1-6.1-0.4l0.3,1.1c1.8-2,4.3-5.4,3.1-8.2c-0.4-1-1.4-1.1-2.3-0.6c-1.2,0.6-1.8,2-2,3.2   C645.1,279,646.4,279.4,646.5,278.5L646.5,278.5z" />
	<path
   id="path35446_2_"
   d="M629.3,339.6c-1.3,0.1-2.6,0.1-3.9,0.2c-0.8,0.1-1.8,0-2.6,0.2c-1.5,0.5-1.3,2-1.2,3.3   c0.4,5.3,0.7,10.6,0.9,15.9c0.4,10.4,0.2,20.9-0.3,31.3c0,0.3,0.2,0.6,0.5,0.6c0,0,0.1,0,0.1,0c3.6-0.2,7.3-0.5,11-0.7   c0.7,0,0.5-1.1-0.2-1.1c-3.6,0.2-7.3,0.5-11,0.7c0.2,0.2,0.4,0.4,0.6,0.6c0.5-9.3,0.6-18.6,0.4-27.9c-0.1-4.3-0.3-8.7-0.6-13   c-0.1-1.2-0.1-2.3-0.2-3.5c-0.1-1.1-0.4-2.4-0.3-3.5c0.2-2.2,1.8-1.8,3.3-1.9c1.2-0.1,2.4-0.1,3.6-0.2   C630.2,340.6,630,339.5,629.3,339.6L629.3,339.6z" />
	<path
   id="path35448_2_"
   d="M652.5,340.1c2.1,0.2,4.2,0.4,6.4,0.5l-0.5-0.5c-1,9.1-1.3,18.3-0.9,27.5c0.2,4.4,0.5,8.8,1,13.2   l0.4,3.1c0.1,1.2,0.7,2.7-0.1,3.7c-0.7,1-2.4,0.9-3.7,1.1l-3.9,0.7c-0.3,0-0.5,0.3-0.4,0.6c0,0.3,0.3,0.5,0.6,0.4c0,0,0,0,0.1,0   c2.4-0.4,5.2-0.5,7.5-1.3c1.5-0.5,1.4-1.5,1.2-2.8c-0.6-5.2-1.2-10.5-1.5-15.7c-0.6-10.1-0.3-20.2,0.8-30.3c0-0.3-0.2-0.5-0.5-0.5   c-2.1-0.2-4.2-0.4-6.4-0.5c-0.3-0.1-0.5,0.1-0.6,0.4C652,339.8,652.2,340,652.5,340.1C652.5,340.1,652.5,340.1,652.5,340.1   L652.5,340.1z" />
	<path
   id="path35452_2_"
   d="M643.7,343.1c-2.4,2.6-4,5.9-4.7,9.4c-0.2,0.9,1.1,1.2,1.3,0.4c0.6-3.3,2.1-6.3,4.3-8.8   C645.3,343.4,644.3,342.4,643.7,343.1L643.7,343.1z" />
	<path
   id="path35454_2_"
   d="M646.5,346.8c0.1-0.8,0.4-2,1.2-2.3c0.6-0.2,0.6,0.4,0.6,0.9c0,0.5-0.1,1.1-0.3,1.6   c-0.5,1.6-1.5,2.8-2.6,4c-0.3,0.3-0.3,0.7,0,1c0.1,0.1,0.2,0.1,0.3,0.2c2.1,0.4,4.3,0.5,6.4,0.5c0.9,0,0.9-1.4,0-1.4   c-2,0.1-4.1-0.1-6.1-0.4l0.3,1.1c1.8-2,4.3-5.4,3.1-8.2c-0.4-1-1.4-1.1-2.3-0.6c-1.2,0.6-1.8,2-2,3.2   C645.1,347.3,646.4,347.6,646.5,346.8L646.5,346.8z" />
	<path
   id="path35456_2_"
   d="M633.6,365.9c1.9-1.2,3.1-3.2,3.3-5.4c0.1-0.9-1.3-0.9-1.4,0c-0.4,2.9-0.6,5.7-0.8,8.6l0.7-0.7   c-0.6,0-1.2,0.2-1.8,0.5c-0.3,0.2-0.4,0.6-0.2,1c0.1,0.2,0.3,0.3,0.6,0.3l2.8,0c0.9,0,0.9-1.4,0-1.4l-2.8,0l0.3,1.3l1.1-0.3   c0.4,0,0.7-0.3,0.7-0.7c0.2-2.9,0.4-5.7,0.8-8.6h-1.4c-0.2,1.7-1.1,3.3-2.6,4.2C632.2,365.2,632.9,366.4,633.6,365.9L633.6,365.9z" />
	<path
   id="path35458_2_"
   d="M642.2,359.8c-0.7,3.4-1.8,6.7-3,10c-0.3,0.8,1,1.2,1.3,0.4c1.3-3.2,2.3-6.6,3-10   C643.7,359.3,642.4,359,642.2,359.8z" />
	<path
   id="path35460_2_"
   d="M646.9,362.1c1.4-0.6,1.8-0.3,1.2,1c-0.3,0.5-0.8,0.9-1.4,1c-0.5,0.2-0.7,1.2,0,1.3c1.1,0.2,2.4,1,2,2.4   c-0.7,2.2-3.1,0.7-3.6-0.6c-0.3-0.8-1.6-0.5-1.3,0.4c0.9,2.2,3.7,3.8,5.6,1.7c1.9-2.1,0-4.8-2.3-5.2v1.3c1.8-0.7,3.6-2.8,2.1-4.7   c-1.2-1.5-3.8-0.6-3.6,1.4C645.6,363,647,363,646.9,362.1L646.9,362.1z" />
	<path
   id="path35462_2_"
   d="M632.3,312.1c-0.9,2.5-0.5,5.3,2.3,6.4c2.2,0.9,4.7-2.2,5.3-4.1c0.7-2.3-1-5.1-3.2-5.8   c-2.9-0.9-3.7,2.6-4.4,4.5c-0.3,0.8,1,1.2,1.3,0.4c0.2-0.6,0.4-1.2,0.6-1.8c0.4-1.1,0.5-1.6,1.7-1.6c2.1,0,3.4,2.6,2.4,4.4   c-0.6,1.1-2.1,3-3.6,2.5c-2-0.7-1.7-3.1-1.2-4.6C634,311.6,632.7,311.3,632.3,312.1L632.3,312.1z" />
	<path
   id="path35464_2_"
   d="M643.7,308.3l-2,8.9c-0.2,0.9,1.1,1.2,1.3,0.4l2-8.9C645.2,307.8,643.9,307.5,643.7,308.3L643.7,308.3z" />
	<path
   id="path35466_2_"
   d="M647.2,314.3c1-0.4,1.9-1.2,2.6-2.1c0.8-1.2,0.5-2.4,1.1-3.6l-1.3-0.3c0.1,1.6-0.1,3.3-0.3,4.9   c-0.2,1.4-0.1,3.6-1.9,3.4c-0.8-0.1-0.9,1.2-0.2,1.3c1.1,0.3,2.3,0.4,3.4,0.2c0.9-0.1,0.9-1.5,0-1.4c-1,0.1-2,0.1-3-0.2l-0.2,1.3   c2.3,0.2,2.4-0.2,2.8-2.4c0.5-2.4,0.8-4.8,0.7-7.3c0-0.6-1-1-1.3-0.3c-0.4,0.8-0.3,1.6-0.5,2.5c-0.3,1.3-1.4,2.2-2.6,2.7   C645.7,313.5,646.4,314.7,647.2,314.3L647.2,314.3z" />
	<path
   id="path35428_3_"
   d="M399.2,207.6c1-0.4,1.9-1.2,2.6-2.1c0.8-1.2,0.5-2.4,1.1-3.6l-1.3-0.3c0.1,1.6-0.1,3.3-0.3,4.9   c-0.2,1.4-0.1,3.6-1.9,3.4c-0.8-0.1-0.9,1.2-0.2,1.3c1.1,0.3,2.3,0.4,3.4,0.2c0.9-0.1,0.9-1.5,0-1.4c-1,0.1-2,0.1-3-0.2l-0.2,1.3   c2.3,0.2,2.4-0.2,2.8-2.4c0.5-2.4,0.8-4.8,0.7-7.3c0-0.6-1-1-1.3-0.3c-0.4,0.8-0.3,1.6-0.5,2.5c-0.3,1.3-1.4,2.2-2.6,2.7   C397.7,206.8,398.4,208,399.2,207.6L399.2,207.6z" />
	<path
   id="path35466_3_"
   d="M401.2,314.3c1-0.4,1.9-1.2,2.6-2.1c0.8-1.2,0.5-2.4,1.1-3.6l-1.3-0.3c0.1,1.6-0.1,3.3-0.3,4.9   c-0.2,1.4-0.1,3.6-1.9,3.4c-0.8-0.1-0.9,1.2-0.2,1.3c1.1,0.3,2.3,0.4,3.4,0.2c0.9-0.1,0.9-1.5,0-1.4c-1,0.1-2,0.1-3-0.2l-0.2,1.3   c2.3,0.2,2.4-0.2,2.8-2.4c0.5-2.4,0.8-4.8,0.7-7.3c0-0.6-1-1-1.3-0.3c-0.4,0.8-0.3,1.6-0.5,2.5c-0.3,1.3-1.4,2.2-2.6,2.7   C399.7,313.5,400.4,314.7,401.2,314.3L401.2,314.3z" />
	<path
   id="path35454_3_"
   d="M632.5,346.8c0.1-0.8,0.4-2,1.2-2.3c0.6-0.2,0.6,0.4,0.6,0.9c0,0.5-0.1,1.1-0.3,1.6   c-0.5,1.6-1.5,2.8-2.6,4c-0.3,0.3-0.3,0.7,0,1c0.1,0.1,0.2,0.1,0.3,0.2c2.1,0.4,4.3,0.5,6.4,0.5c0.9,0,0.9-1.4,0-1.4   c-2,0.1-4.1-0.1-6.1-0.4l0.3,1.1c1.8-2,4.3-5.4,3.1-8.2c-0.4-1-1.4-1.1-2.3-0.6c-1.2,0.6-1.8,2-2,3.2   C631.1,347.3,632.4,347.6,632.5,346.8L632.5,346.8z" />
	<path
   id="path35454_4_"
   d="M632.5,278.8c0.1-0.8,0.4-2,1.2-2.3c0.6-0.2,0.6,0.4,0.6,0.9c0,0.5-0.1,1.1-0.3,1.6   c-0.5,1.6-1.5,2.8-2.6,4c-0.3,0.3-0.3,0.7,0,1c0.1,0.1,0.2,0.1,0.3,0.2c2.1,0.4,4.3,0.5,6.4,0.5c0.9,0,0.9-1.4,0-1.4   c-2,0.1-4.1-0.1-6.1-0.4l0.3,1.1c1.8-2,4.3-5.4,3.1-8.2c-0.4-1-1.4-1.1-2.3-0.6c-1.2,0.6-1.8,2-2,3.2   C631.1,279.3,632.4,279.6,632.5,278.8L632.5,278.8z" />
	<path
   id="path35454_5_"
   d="M632.5,204.8c0.1-0.8,0.4-2,1.2-2.3c0.6-0.2,0.6,0.4,0.6,0.9c0,0.5-0.1,1.1-0.3,1.6   c-0.5,1.6-1.5,2.8-2.6,4c-0.3,0.3-0.3,0.7,0,1c0.1,0.1,0.2,0.1,0.3,0.2c2.1,0.4,4.3,0.5,6.4,0.5c0.9,0,0.9-1.4,0-1.4   c-2,0.1-4.1-0.1-6.1-0.4l0.3,1.1c1.8-2,4.3-5.4,3.1-8.2c-0.4-1-1.4-1.1-2.3-0.6c-1.2,0.6-1.8,2-2,3.2   C631.1,205.3,632.4,205.6,632.5,204.8L632.5,204.8z" />
	<path
   id="path35424_3_"
   d="M631.3,221.4c-0.9,2.5-0.5,5.3,2.3,6.4c2.2,0.9,4.7-2.2,5.3-4.1c0.7-2.3-1-5.1-3.2-5.8   c-2.9-0.9-3.7,2.6-4.4,4.5c-0.3,0.8,1,1.2,1.3,0.4c0.2-0.6,0.4-1.2,0.6-1.8c0.4-1.1,0.5-1.6,1.7-1.6c2.1,0,3.4,2.6,2.4,4.4   c-0.6,1.1-2.1,3-3.6,2.5c-2-0.7-1.7-3.1-1.2-4.6C633,220.9,631.7,220.6,631.3,221.4L631.3,221.4z" />
	<path
   id="path35456_3_"
   d="M633.6,296.9c1.9-1.2,3.1-3.2,3.3-5.4c0.1-0.9-1.3-0.9-1.4,0c-0.4,2.9-0.6,5.7-0.8,8.6l0.7-0.7   c-0.6,0-1.2,0.2-1.8,0.5c-0.3,0.2-0.4,0.6-0.2,1c0.1,0.2,0.3,0.3,0.6,0.3l2.8,0c0.9,0,0.9-1.4,0-1.4l-2.8,0l0.3,1.3l1.1-0.3   c0.4,0,0.7-0.3,0.7-0.7c0.2-2.9,0.4-5.7,0.8-8.6h-1.4c-0.2,1.7-1.1,3.3-2.6,4.2C632.2,296.2,632.9,297.4,633.6,296.9L633.6,296.9z" />
	
	<path
   id="rect136-3_2_"
   class="st11"
   d="M241,192.9h45.6c0.3,0,0.5,1.9,0.5,4.2V390c0,2.3-0.2,4.2-0.5,4.2H241   c-0.3,0-0.5-1.9-0.5-4.2V197.1C240.5,194.8,240.7,192.9,241,192.9z" />
	<path
   id="path41_1_"
   d="M259,96.4l-49.3,46.4l1.1,1l6.1-10.9l-1.3-0.7l-4.8,11.9c-0.1,0.4,0.1,0.8,0.5,1c0.2,0.1,0.3,0.1,0.5,0   c3.3-1.8,6.7-3.5,10.3-4.8c0.8-0.3,0.1-1.7-0.7-1.4c-3.5,1.4-7,3-10.2,4.8l1,1l4.8-11.9c0.3-0.7-0.9-1.4-1.3-0.7l-6.1,10.9   c-0.4,0.7,0.5,1.6,1.1,1L260,97.5C260.7,96.9,259.6,95.7,259,96.4L259,96.4z" />
	<path
   id="path35916-6"
   d="M14.9,64.6c0.4,7.1,0.4,14.2,0.2,21.3c0,1.1,1.5,1.1,1.5,0c0.2-7.1,0.2-14.2-0.2-21.3   C16.3,63.5,14.8,63.5,14.9,64.6z" />
	<path
   id="path35918-6"
   d="M24.8,64.4c0.4,7.3,0.4,14.7,0,22.1h1.5l-0.1-1c-0.1-1.1-1.6-1.1-1.5,0l0.1,1c0,0.5,0.3,0.9,0.8,0.9   c0.4,0,0.8-0.4,0.8-0.9c0.4-7.3,0.4-14.7,0-22.1C26.3,63.2,24.7,63.2,24.8,64.4z" />
	<path
   id="path35920-5"
   d="M16.7,76.3c3,0.1,6,0.1,9-0.3c1-0.1,1-1.9,0-1.8c-3,0.3-6,0.4-9,0.3C15.7,74.5,15.7,76.3,16.7,76.3z" />
	<path
   id="path35922-4"
   d="M28.1,73.3v6.2c0,1.5-0.3,3.4,0.2,4.8c0.8,2.3,3.5,2.3,5.3,1c0.9-0.7,0-2.3-0.9-1.6   c-3.3,2.5-2.7-2.5-2.7-4.2v-6.2C30,72.1,28.1,72.1,28.1,73.3z" />
	<path
   id="path35924-5"
   d="M28.7,65.7c-0.5,0.5-0.7,1.2-0.5,1.9c0.1,0.2,0.2,0.4,0.4,0.6c0.2,0.1,0.5,0.2,0.7,0.1   c0.5-0.1,0.8-0.6,0.6-1.1c0,0,0-0.1,0-0.1c0-0.1,0-0.1,0,0.1V67c0,0.2,0,0.2,0,0.1c0,0,0-0.1,0-0.1c-0.1,0.1-0.1,0.2,0,0.1   c-0.2,0.2,0,0,0,0c0.2-0.2,0.3-0.4,0.3-0.7c0-0.5-0.4-0.9-0.9-0.9C29,65.5,28.8,65.6,28.7,65.7L28.7,65.7z" />
	<path
   id="path35926-9"
   d="M41.3,73.7c-0.5-3.8-4.5-4-6.2-0.8c-1,2-1.3,4.7-1.3,6.9c0,2,0.2,4.5,1.5,6.2c0.9,1.1,2.3,1.6,3.5,0.6   c1.6-1.4,1.9-4.5,2.2-6.4c0.4-2.7,0.4-5.3,0.4-8c0.1-3,1.1-5.9,0.9-8.9c-0.1-1.2-1.8-1.2-1.8,0v21.6c0,1.2,1.8,1.2,1.8,0V63.3h-1.8   c0.1,2.9-0.8,5.7-0.9,8.5c-0.1,3,0,5.9-0.6,8.9c-0.1,0.7-0.3,1.4-0.5,2.1c-0.2,0.9-0.1,1.3-1.2,1.4c-1.2,0.2-1.1-0.4-1.4-1.4   c-0.2-0.8-0.3-1.6-0.3-2.4c0-1.5,0.1-3,0.4-4.5c0.1-0.8,0.3-1.5,0.7-2.2l0.3-0.5c0.7-1.3,1.5-1.2,2.5,0.4   C39.6,74.8,41.5,74.8,41.3,73.7L41.3,73.7z" />
	<path
   id="path35928-5"
   d="M50.1,75.6c0.3-1.8,0.1-3.9-1.4-5.1c-1.2-1-3-1-4.1,0c-1.7,1.5-1.8,4.1-1.8,6.2c0,1.6,0,3.1,0.1,4.7   c0.1,1.2-0.1,3,0.4,4.1c0.6,1.4,2.6,1.3,3.7,0.5c1.7-1.3,2.1-3.8,2.5-5.8c1.3-6.1,1.7-12.3,1.4-18.5c0-0.5-0.4-0.9-0.9-0.9   c-0.5,0-0.9,0.4-0.9,0.9c-0.5,6.2-0.7,12.4-0.6,18.7c0,1.5,0,3,0.1,4.5c0,0.6,0,1.5,0.6,2c0.9,0.8,2,0,2.1-1.1c0-1.2-1.8-1.2-1.8,0   l0-0.2l0.9-0.2c-0.2,0,0-10.3,0-11.5c0.1-4.1,0.3-8.1,0.6-12.2h-1.8c0.4,6.5-0.1,13.1-1.6,19.5c-0.1,0.6-0.3,1.2-0.5,1.8   c-0.1,0.8-0.5,1.1-1.2,0.8c-0.7,0.2-1-0.1-0.8-0.9c-0.4-1.4-0.2-3.3-0.2-4.7c0-1.5-0.1-3.2,0.3-4.6c0.4-1.3,1.5-3,3-1.3   c0.7,0.7,0.7,1.9,0.5,2.9C48.2,76.3,49.9,76.7,50.1,75.6L50.1,75.6z" />
	<path
   id="path35930-7"
   d="M52.9,80.6c3.4,0,6.2-1.6,6.2-5.4c-0.1-2.9-3-5.9-5.7-3.6c-2.8,2.5-2.6,7.9-1.6,11.1   c1,3.1,4.1,4.9,6.9,2.6c0.9-0.7-0.4-2.1-1.3-1.3c-4.3,3.4-4.6-7-4-8.9c0.3-1.1,1.3-3.4,3.1-2.1c0.9,0.7,0.9,2.4,0.7,3.4   c-0.6,2-2.4,2.3-4.2,2.3C51.7,78.7,51.7,80.6,52.9,80.6L52.9,80.6z" />
	<path
   id="path35932-7"
   d="M60.1,70.5c-0.2,5.3-0.2,10.6-0.1,15.9c0,0.5,0.4,0.9,0.9,0.9c0.5,0,0.9-0.4,0.9-0.9c0-2.5,0.2-5,0.6-7.4   c0.2-1,0.4-2,0.7-2.9c0.1-0.4,0.3-1.6,0.8-1.8l1.5,0.2c0.1,0.3,0.2,0.7,0.2,1.1c0.3,2.4,0.1,4.8,0.1,7.2c0,1.4-0.3,3,1,3.9   c1,0.7,1.9-0.9,0.9-1.6c-0.4-0.3-0.1-2.6-0.1-3.1v-2.3c0.1-1.5,0-3-0.1-4.5c-0.2-1.6-1.2-4.1-3.3-3.5c-2.1,0.6-2.8,3.8-3.2,5.5   c-0.7,3-0.8,6.2-1,9.2h1.8c-0.1-5.3-0.1-10.6,0.1-15.9C62,69.3,60.2,69.3,60.1,70.5z" />
	<path
   id="path35934-9"
   d="M82,68l-0.3,19.3c0,1.2,1.8,1.2,1.8,0L83.8,68C83.8,66.8,82,66.8,82,68z" />
	<path
   id="path35936-0"
   d="M84.3,69.5c2.6-2.1,5.7,1.5,5.8,4c0.2,3.5-3.4,4.5-6.2,4.3c-1.2-0.1-1.2,1.8,0,1.8   c4.4,0.3,9.4-2.5,7.8-7.6c-1.1-3.7-5.3-6.7-8.7-3.9C82.1,69,83.4,70.3,84.3,69.5L84.3,69.5z" />
	<path
   id="path35938-1"
   d="M93.1,77.8c0.5-1.1,1.2-2,2.1-2.7l-1.5-0.4c0.8,2.6,3.7,2.6,4.6,0.1l-1.8-0.5c-0.3,2.2-0.8,4.4-1.4,6.5   c-0.5,1.8-1.5,3.7-1.3,5.6c0.3,2.2,3.1,3.7,4.4,1.4c0.6-1-1-2-1.6-0.9c-1-0.6-1.3-1.3-0.8-2.3c0.1-0.4,0.3-0.8,0.4-1.2   c0.3-0.9,0.6-1.9,0.9-2.8c0.5-1.9,0.9-3.8,1.2-5.8c0.1-0.5-0.2-1-0.6-1.1c-0.5-0.1-1,0.2-1.1,0.6l-1-0.1c-0.2-0.5-0.7-0.8-1.2-0.6   c-0.1,0-0.3,0.1-0.4,0.2c-1,0.8-1.9,1.9-2.4,3.1C91,77.9,92.6,78.8,93.1,77.8L93.1,77.8z" />
	<path
   id="path35940-0"
   d="M99.6,77.4c-1.3,3-1.5,7.1,0.5,9.8c0.8,1,2,1.9,3.3,1.4c1.6-0.6,2.1-2.8,2.6-4.3   c0.9-3.1,1.6-8.2-1.6-10.4c-3.2-2.1-5.3,2.4-6.1,4.7c-0.4,1.1,1.4,1.6,1.8,0.5c0.6-1.7,2.5-5.7,4.2-2.5c1.1,2.1,0.6,4.7,0,6.8   c-0.2,0.7-0.4,2.4-1,2.8c-1.5,1.4-2.4-1.4-2.6-2.2c-0.5-1.9-0.3-4,0.5-5.8C101.6,77.3,100,76.3,99.6,77.4L99.6,77.4z" />
	<path
   id="path35942-2"
   d="M112.5,79.6c0.5-1.7,0.9-4.8-1.5-5.4s-3.3,2.6-3.6,4.3c-0.5,2.5-0.8,6,0.8,8.3c1.2,1.6,3.2,2,4.7,0.6   c0.9-0.8-0.4-2.1-1.3-1.3c-0.7,0.6-1.8-0.2-2.2-0.8c-0.2-0.5-0.4-1-0.5-1.5c-0.2-1.3-0.2-2.6,0-3.8c0.1-0.8,0.1-2.4,0.7-3.1   c0.1-0.5,0.3-0.6,0.7-0.3c0.5-0.1,0.7,0.1,0.5,0.5c0.2,0.6-0.2,1.5-0.3,2C110.4,80.2,112.2,80.7,112.5,79.6L112.5,79.6z" />
	<path
   id="path35944-7"
   d="M114.8,82.5c3,0.2,5.8-1.5,6.2-4.7c0.3-2.4-1.8-5.4-4.5-4.2c-2.6,1.3-2.9,6.2-2.8,8.7   c0.1,2.8,1.6,6.5,4.9,6.1c1.2-0.1,1.2-2,0-1.8c-4.2,0.5-3-6.8-2.5-9c0.3-1.1,0.3-1.5,1.4-1.8c0.8-0.5,1.4-0.2,1.5,0.8   c0.1,0.6,0.1,1.1-0.2,1.7c-0.6,1.9-2.4,2.4-4.2,2.3C113.6,80.6,113.6,82.4,114.8,82.5L114.8,82.5z" />
	<path
   id="path35946-3"
   d="M129,77.8c-0.2-3.7-4.6-5.8-6.7-2.1c-0.9,1.7-0.7,3.7,0.4,5.2c0.6,0.8,1.3,1.1,2.1,1.6   c1.1,0.7,1.4,1.4,1.1,2.6c-0.3,1.1-2.2,3-3.1,1.1c-0.5-1.1-2.1-0.1-1.6,0.9c1.6,3.5,6.1,1,6.6-1.9c0.3-1.5-0.3-3.1-1.6-4   c-1.2-0.9-2.5-1.4-2.6-3.1c0-0.8,0.4-2.1,1.2-2.4l1.6,0.3c0.5,0.5,0.8,1.1,0.7,1.8C127.2,79,129.1,79,129,77.8L129,77.8z" />
	<path
   id="path35948-3"
   d="M136.5,78.1c0.3-1.7-0.5-3.5-2.3-3.9c-2-0.5-3.6,1.4-4.2,3.1c-0.8,2.2,0,3.7,1.9,4.8   c1.4,0.8,2.6,1.6,2.9,3.2c0.6,2.7-2.7,1.2-4.1,0.7c-1.1-0.4-1.6,1.3-0.5,1.8c2.7,1.1,7,2,6.4-2.4c-0.2-1.5-1-2.9-2.1-3.9   c-0.6-0.5-1.4-0.7-2-1.2c-0.7-0.5-1.1-1.4-0.9-2.3c0.1-0.5,0.4-0.9,0.7-1.3c0.5-1,1.3-0.7,2.3,0.8   C134.5,78.8,136.3,79.3,136.5,78.1L136.5,78.1z" />
	<path
   id="path35950-2"
   d="M23.3,145.6c-0.1,3.9,0,11.1,5.3,11.6c2.1,0.2,3.5-1.5,4.4-3.1c1.3-2.2,3-5,3-7.7   c0.1-2.7-1.1-5.9-2.2-8.3c-0.8-1.8-2.2-3.9-4.4-3.7c-1.9,0.1-3,1.9-3.6,3.5c-1.1,3-1.8,6.4-2.5,9.5c-0.3,1.3,1.7,1.8,1.9,0.5   c0.7-3.2,1.3-6.5,2.5-9.5c0.2-0.6,0.5-1.1,0.9-1.6l2.7,0.8c0.7,0.5,0.9,1.7,1.2,2.5c0.7,1.7,1.2,3.5,1.5,5.3   c0.2,2.1-0.6,3.8-1.6,5.7c-0.7,1.4-1.7,4-3.4,4.1c-4.1,0.3-3.8-7-3.7-9.5C25.4,144.3,23.4,144.3,23.3,145.6L23.3,145.6z" />
	<path
   id="path35952-2"
   d="M37.2,136.8c0,6.5,0.3,13,0.9,19.4c0.1,1.3,2.1,1.3,2,0c-0.6-6.5-0.9-12.9-0.9-19.4   C39.2,135.6,37.2,135.6,37.2,136.8z" />
	<path
   id="path35954-5"
   d="M39.4,144.2c2.5-1.9,4.3,4.2,4.6,5.7c0.7,3.6-1.7,5.2-4.9,5.7l1.2,0.7v0.4l-1.1,0.4l0.1,0.1   c1.2,0.5,1.7-1.5,0.5-1.9l-0.1-0.1c-0.4-0.1-0.9,0.1-1.1,0.4c-0.2,0.3-0.3,0.7-0.2,1.1c0.1,0.6,0.7,0.8,1.2,0.7   c5.1-0.7,7.4-4.3,6-9.2c-1-3.2-3.7-8.5-7.6-5.4C37,143.6,38.4,145,39.4,144.2L39.4,144.2z" />
	<path
   id="path35956-3"
   d="M53.2,146.7c2-4.4-4.3-7.4-6.3-3.1c-0.9,2-0.8,4.4,1.1,5.7c1.3,0.9,4.2,1.5,4.5,3.3c0.5,2.2-4,4-4.9,1.8   c-0.5-1.2-2.2-0.2-1.7,1c1.5,3.5,7.1,1.8,8.4-1.1c0.8-1.7-0.1-3.5-1.4-4.6c-0.9-0.8-2.3-1-3.2-1.8c-0.8-0.7-1.4-1.6-1.1-2.7   c0.1-0.8,0.5-1.4,1.2-1.8c1.6-0.1,2.2,0.7,1.7,2.1C50.9,146.8,52.7,147.8,53.2,146.7L53.2,146.7z" />
	<path
   id="path35958-8"
   d="M56.3,151.7c2.8-0.3,6-2.5,6.4-5.5c0.3-2.3-2.8-5.7-5.1-3.9c-1.1,0.9-1.6,2.7-1.9,4   c-0.6,1.9-0.7,3.8-0.4,5.8c0.5,2.8,3,6,6.2,4.8c1.2-0.5,0.7-2.4-0.5-1.9c-2,0.8-3.2-1.4-3.7-3c-0.4-1.8-0.1-3.7,0.4-5.4   c0.2-0.6,0.4-2.1,1-2.4c1.6-0.7,2,1.9,1.7,2.8c-0.5,1.5-2.5,2.7-4,2.8C55.1,149.8,55.1,151.8,56.3,151.7L56.3,151.7z" />
	<path
   id="path35960-5"
   d="M65.5,146c0.2-0.5,1.2-1.8,1.3-2.2c0.1-0.5-0.7-0.9-0.1,0.1c0.3,0.5,0.7,1,1.2,1.2c1.6,0.7,2.9-0.7,3.6-2   l-1.8-0.8l-1.9,6.7c-0.6,2-1.5,4.2-1.6,6.2c-0.2,3,2.4,3.1,4.2,1.5c1-0.9-0.4-2.3-1.4-1.4c-1.6,1.4-0.3-2-0.2-2.4l0.9-3.4l1.9-6.7   c0.1-0.5-0.2-1.1-0.7-1.2c-0.4-0.1-0.9,0.1-1.1,0.4c-0.3,0.5-0.9,0.9-1.4,0.5c-0.1-0.1-0.2-0.6-0.3-0.7c-0.3-0.4-0.7-0.6-1.2-0.5   c-1.5,0.1-2.6,2.5-3.1,3.6C63.3,146.1,65,147.1,65.5,146L65.5,146z" />
	<path
   id="path35962-1"
   d="M73.4,142.1c0,2.4-0.2,4.9,0.1,7.2c0.4,2.6,1.5,4.9,1.7,7.5c0.1,0.9,1.4,1.5,1.9,0.5   c1-2.2,1.3-4.6,1.9-6.8c0.7-2.7,1.5-5.3,2.5-7.8c0.4-1.2-1.5-1.7-1.9-0.5c-0.8,2.3-1.6,4.7-2.2,7c-0.7,2.4-1,4.9-2,7.2l1.9,0.5   c-0.2-2.3-1.1-4.4-1.5-6.7c-0.5-2.6-0.3-5.3-0.3-8C75.4,140.9,73.4,140.9,73.4,142.1L73.4,142.1z" />
	<path
   id="path35964-1"
   d="M89.6,145.3c0.7-1.9-0.4-4-2.3-4.7c-0.8-0.3-1.6-0.3-2.4,0c-3.7,1.2-3.1,7.2-2.8,10.1   c0.2,2.1,0.8,6.7,3.9,5.6c1.7-0.6,2.2-2.5,2.6-4c0.6-2.6,1.1-5.3,1.6-7.9l-2-0.3c-0.3,4.2,0.2,8.4,1.5,12.4   c0.4,1.2,2.3,0.7,1.9-0.5c-1.3-3.8-1.8-7.9-1.4-11.9c0.1-1.1-1.7-1.4-2-0.3l-1.1,5.6c-0.2,1-0.4,2.1-0.7,3.1   c-0.4,1.5-1.6,2.3-2.1,0.4c-0.4-1.7-0.6-3.5-0.5-5.3c0-1,0-2.1,0.3-3.1c0.2-1,0.9-1.8,1.8-2.1c1.6,0.2,2.1,1,1.7,2.3   C87.3,145.9,89.2,146.5,89.6,145.3L89.6,145.3z" />
	<path
   id="path35966-0"
   d="M94.7,133.3l-0.9,10.1c-0.3,2.8-0.9,5.9-0.4,8.8c0.3,1.7,1.1,4,3,4.5c1.7,0.4,2.9-0.8,3.5-2.3   c0.4-1.2-1.5-1.7-1.9-0.5c-1.5,0.4-2.3,0-2.4-1.3l-0.2-1.2c-0.1-0.7-0.1-1.5,0-2.2c0.1-1.8,0.3-3.5,0.5-5.3l1-10.6   C96.8,132,94.8,132,94.7,133.3L94.7,133.3z" />
	<path
   id="path35968-5"
   d="M92.4,144.5c1.7-0.5,3.5-0.7,5.3-0.4c1.3,0.2,1.8-1.7,0.5-1.9c-2.1-0.3-4.3-0.2-6.4,0.4   C90.7,143,91.2,144.9,92.4,144.5L92.4,144.5z" />
	<path
   id="path35970-4"
   d="M100.9,144.1c-0.3,2.2-0.6,4.5-0.8,6.7c-0.1,1.6-0.1,3.4,0.8,4.7c1.8,2.7,4,0.4,5.7-1   c1-0.8-0.4-2.2-1.4-1.4c-0.7,0.6-1.8,2.3-2.9,0.6c-0.5-0.8-0.2-2.4-0.1-3.3c0.2-2.1,0.5-4.2,0.8-6.3   C103.1,142.9,101.1,142.9,100.9,144.1L100.9,144.1z" />
	<path
   id="path35972-2"
   d="M102.5,138.6c-0.3-0.5-1-0.7-1.6-0.4c0,0,0,0,0,0c-0.5,0.3-0.7,0.9-0.5,1.5c0.2,0.5,0.8,0.8,1.3,0.7   c0.5-0.1,0.9-0.6,0.9-1.2c0-0.4-0.2-0.7-0.5-0.9c-0.3-0.1-0.6-0.2-0.9-0.1c-0.2,0.1-0.4,0.2-0.6,0.3c-0.3,0.3-0.5,0.7-0.4,1.2   c0,0.6,0.4,1,1,1c0.6,0,1-0.4,1-1c0-0.1,0-0.1,0,0.1c0,0.2-0.1,0.2,0,0.1c0-0.1,0,0-0.1,0.1c-0.2,0.2-0.6,0.3-0.9,0.1l-0.5-0.9   c0,0.2,0.1,0.1,0.2-0.5c1.7,0.6,1.8,1.1,0.4,1.3l-0.4-0.3l-0.1-0.1c0.3,0.5,0.9,0.6,1.4,0.4C102.7,139.7,102.8,139.1,102.5,138.6   C102.5,138.6,102.5,138.6,102.5,138.6L102.5,138.6z" />
	<path
   id="path35974-4"
   d="M106.9,145.5c-0.5,3.3-1.3,8.3,1.9,10.6c3,2.2,5.5-1.7,6-4.3c0.7-3.4-0.2-7.8-3-10.1   c-3.5-3-4.7,3-5.3,5.3c-0.3,1.2,1.6,1.8,1.9,0.5c0.2-0.9,0.4-1.8,0.7-2.7c0.5-1.4,0.9-2.3,2.1-0.7c1.2,1.6,1.8,3.6,1.8,5.7   c0,1.6-2,7.5-4,3.6c-1.1-2.2-0.6-5-0.3-7.3C109,144.7,107.1,144.2,106.9,145.5L106.9,145.5z" />
	<path
   id="path35976-0"
   d="M115.7,141.5c-0.5,4.9-0.2,9.9,1,14.7c0.3,1.2,2.2,0.7,1.9-0.5c-1.1-4.6-1.4-9.4-0.9-14.2   C117.8,140.2,115.8,140.2,115.7,141.5L115.7,141.5z" />
	<path
   id="path35978-0"
   d="M118,148c1-2.1,2.5-3.9,4.7-4.8l-1.3-1c-0.1,4.7,0.2,9.4,1.1,14c0.2,1.3,2.2,0.7,1.9-0.5   c-0.9-4.4-1.2-9-1.1-13.5c0-0.6-0.5-1-1-1c-0.1,0-0.2,0-0.3,0c-2.7,1.1-4.6,3.1-5.9,5.7C115.7,148.1,117.4,149.1,118,148z" />
	<path
   id="path35980-5"
   d="M132.5,146.2c0.8-2-0.5-3.8-2.4-4.5c-1.9-0.7-3.6,0.3-4.4,2.1c-0.8,2-0.4,4.3,1,5.8   c0.8,0.8,1.9,1.1,2.7,1.8c0.9,0.7,1.4,1.7,1.4,2.8c0,2-2.6,1.5-3-0.2c-0.4-1.2-2.3-0.7-1.9,0.5c0.4,1.6,1.7,2.8,3.4,2.9   c1.7,0.1,3.4-0.4,3.6-2.3c0.1-1.7-0.4-3.8-1.8-5c-1-0.8-2.4-1.1-3.1-2.2c-0.6-0.9-0.8-1.9-0.5-2.9l0.6-1.2c1.7-0.7,2.6-0.1,2.6,1.8   C130,146.8,132,147.3,132.5,146.2L132.5,146.2z" />
</g>
</svg>
