<?xml version="1.0" encoding="UTF-8" standalone="no"?>
<!-- Generator: Adobe Illustrator 23.0.3, SVG Export Plug-In . SVG Version: 6.00 Build 0)  -->

<svg
   version="1.1"
   id="svg134"
   x="0px"
   y="0px"
   viewBox="0 0 700 414.9"
   style="enable-background:new 0 0 700 414.9;"
   xml:space="preserve"
   sodipodi:docname="sel_hmm_observations.svg"
   inkscape:version="1.3.2 (091e20e, 2023-11-25)"
   xmlns:inkscape="http://www.inkscape.org/namespaces/inkscape"
   xmlns:sodipodi="http://sodipodi.sourceforge.net/DTD/sodipodi-0.dtd"
   xmlns="http://www.w3.org/2000/svg"
   xmlns:svg="http://www.w3.org/2000/svg"
   xmlns:rdf="http://www.w3.org/1999/02/22-rdf-syntax-ns#"
   xmlns:cc="http://creativecommons.org/ns#"
   xmlns:dc="http://purl.org/dc/elements/1.1/"><defs
   id="defs117" />
<style
   type="text/css"
   id="style1">
	.st0{opacity:0.3;fill:#1F77B4;enable-background:new    ;}
	.st1{opacity:0.3;fill:#FF7F0E;enable-background:new    ;}
	.st2{opacity:0.3;fill:#2CA02C;enable-background:new    ;}
	.st3{fill:none;stroke:#FF7F0E;stroke-width:0.6722;stroke-linejoin:round;stroke-dasharray:2.4872,1.0755;}
	.st4{stroke:#000000;stroke-width:1.5041;}
	.st5{stroke:#000000;stroke-width:1.1416;}
	.st6{fill:none;stroke:#000000;stroke-width:1.7808;stroke-linecap:round;stroke-linejoin:round;}
	.st7{fill:#8C0000;}
	.st8{fill:#870303;stroke:#000000;stroke-width:2;stroke-linecap:round;stroke-linejoin:round;}
	.st9{fill:none;stroke:#000000;stroke-width:0.5106;stroke-linecap:round;stroke-linejoin:round;}
	.st10{fill:#010B7F;}
	.st11{fill:none;stroke:#000000;stroke-width:0.4;stroke-linecap:round;stroke-linejoin:round;}
</style>
<sodipodi:namedview
   bordercolor="#000000"
   borderopacity="0.25"
   id="namedview134"
   inkscape:current-layer="Layer_1"
   inkscape:cx="364.17474"
   inkscape:cy="172.04117"
   inkscape:deskcolor="#d1d1d1"
   inkscape:pagecheckerboard="0"
   inkscape:pageopacity="0.0"
   inkscape:showpageshadow="2"
   inkscape:window-height="847"
   inkscape:window-maximized="1"
   inkscape:window-width="1384"
   inkscape:window-x="62"
   inkscape:window-y="25"
   inkscape:zoom="0.79632102"
   pagecolor="#ffffff">
	</sodipodi:namedview>
<title
   id="title1">sel_hmm</title>
<g
   id="Layer_1">
	<path
   id="rect136-3"
   class="st9"
   d="M148.9,149.1h515.4c3.1,0,5.6,2.4,5.6,5.3v246.3c0,3-2.5,5.3-5.6,5.3H148.9   c-3.1,0-5.6-2.4-5.6-5.3V154.5C143.2,151.5,145.8,149.1,148.9,149.1z"
   style="fill:#ffffff;fill-opacity:0.5" />
	
	
	
	
	
	
	
	
	
	
	
	
	
	
	
	
	
	
	
	
	
	
	
	
	
	
	
	
	
	
	
	
	
	
	
	
	
	
	
	
	
	
	
	
	
	
	
	
	
	
	
	
	
	
	
	
	
	
	
	
	
	
	
	
	
	
	
	
	
	
	
	
	
	
	
	
	
	
	
	
	
	
	
	
	
	
	
	
	
	
	
	
	
	
	
	
	
	
	
	
	
	
	
	
	
	
	
	
	
	
	
	
	
	
	
	
	
	
	
	
	
	
	
	
	
	
	
	
	
	
	
	
	
	
	
	
	
	
	
	
	
	
	
	
	
	
	
	
	
	
	
	
	
	
	
	
	
	
	
	
	
	
	
	
	
	
	
	
	
	
	
	
	
	
	
	
	
	
	
	
	
	
	
	
	
	
	
	
	
	
	
	
	
	
	
	
	
	
	
	
	
	
	
	
	
	
	
	
	
	
	
	
	
	
	
	
	
	
	
	
	
	
	
	
	
	
	
	
	
	
	
	
	
	
	
	
	
	
	
	
	
	
	
	
	
	
	
	
	
	
	
	
	
	
	
	
	
	
	
	
	
	
	
	
	
	
	
	
	
	
	
	
	
	
	
	
	
	
	
	
	
	
	
	
	
	
	
	
	
	
	
	
	
	
	
	
	
	
	
	
	
	
	
	
	
	
	
	
	
	
	
	
	
	
	
	
	
	
	
	
	
	
	
	
	
	
	
	
	
	
	
	
	
	
	
	
	
	
	
	
	
	
	
	
	
	
	
	
	
	
	
	
	
	
	
	
	
	
	
	
	<path
   id="path35950-2"
   d="M23.3,145.6c-0.1,3.9,0,11.1,5.3,11.6c2.1,0.2,3.5-1.5,4.4-3.1c1.3-2.2,3-5,3-7.7   c0.1-2.7-1.1-5.9-2.2-8.3c-0.8-1.8-2.2-3.9-4.4-3.7c-1.9,0.1-3,1.9-3.6,3.5c-1.1,3-1.8,6.4-2.5,9.5c-0.3,1.3,1.7,1.8,1.9,0.5   c0.7-3.2,1.3-6.5,2.5-9.5c0.2-0.6,0.5-1.1,0.9-1.6l2.7,0.8c0.7,0.5,0.9,1.7,1.2,2.5c0.7,1.7,1.2,3.5,1.5,5.3   c0.2,2.1-0.6,3.8-1.6,5.7c-0.7,1.4-1.7,4-3.4,4.1c-4.1,0.3-3.8-7-3.7-9.5C25.4,144.3,23.4,144.3,23.3,145.6L23.3,145.6z" />
	<path
   id="path35952-2"
   d="M37.2,136.8c0,6.5,0.3,13,0.9,19.4c0.1,1.3,2.1,1.3,2,0c-0.6-6.5-0.9-12.9-0.9-19.4   C39.2,135.6,37.2,135.6,37.2,136.8z" />
	<path
   id="path35954-5"
   d="M39.4,144.2c2.5-1.9,4.3,4.2,4.6,5.7c0.7,3.6-1.7,5.2-4.9,5.7l1.2,0.7v0.4l-1.1,0.4l0.1,0.1   c1.2,0.5,1.7-1.5,0.5-1.9l-0.1-0.1c-0.4-0.1-0.9,0.1-1.1,0.4c-0.2,0.3-0.3,0.7-0.2,1.1c0.1,0.6,0.7,0.8,1.2,0.7   c5.1-0.7,7.4-4.3,6-9.2c-1-3.2-3.7-8.5-7.6-5.4C37,143.6,38.4,145,39.4,144.2L39.4,144.2z" />
	<path
   id="path35956-3"
   d="M53.2,146.7c2-4.4-4.3-7.4-6.3-3.1c-0.9,2-0.8,4.4,1.1,5.7c1.3,0.9,4.2,1.5,4.5,3.3c0.5,2.2-4,4-4.9,1.8   c-0.5-1.2-2.2-0.2-1.7,1c1.5,3.5,7.1,1.8,8.4-1.1c0.8-1.7-0.1-3.5-1.4-4.6c-0.9-0.8-2.3-1-3.2-1.8c-0.8-0.7-1.4-1.6-1.1-2.7   c0.1-0.8,0.5-1.4,1.2-1.8c1.6-0.1,2.2,0.7,1.7,2.1C50.9,146.8,52.7,147.8,53.2,146.7L53.2,146.7z" />
	<path
   id="path35958-8"
   d="M56.3,151.7c2.8-0.3,6-2.5,6.4-5.5c0.3-2.3-2.8-5.7-5.1-3.9c-1.1,0.9-1.6,2.7-1.9,4   c-0.6,1.9-0.7,3.8-0.4,5.8c0.5,2.8,3,6,6.2,4.8c1.2-0.5,0.7-2.4-0.5-1.9c-2,0.8-3.2-1.4-3.7-3c-0.4-1.8-0.1-3.7,0.4-5.4   c0.2-0.6,0.4-2.1,1-2.4c1.6-0.7,2,1.9,1.7,2.8c-0.5,1.5-2.5,2.7-4,2.8C55.1,149.8,55.1,151.8,56.3,151.7L56.3,151.7z" />
	<path
   id="path35960-5"
   d="M65.5,146c0.2-0.5,1.2-1.8,1.3-2.2c0.1-0.5-0.7-0.9-0.1,0.1c0.3,0.5,0.7,1,1.2,1.2c1.6,0.7,2.9-0.7,3.6-2   l-1.8-0.8l-1.9,6.7c-0.6,2-1.5,4.2-1.6,6.2c-0.2,3,2.4,3.1,4.2,1.5c1-0.9-0.4-2.3-1.4-1.4c-1.6,1.4-0.3-2-0.2-2.4l0.9-3.4l1.9-6.7   c0.1-0.5-0.2-1.1-0.7-1.2c-0.4-0.1-0.9,0.1-1.1,0.4c-0.3,0.5-0.9,0.9-1.4,0.5c-0.1-0.1-0.2-0.6-0.3-0.7c-0.3-0.4-0.7-0.6-1.2-0.5   c-1.5,0.1-2.6,2.5-3.1,3.6C63.3,146.1,65,147.1,65.5,146L65.5,146z" />
	<path
   id="path35962-1"
   d="M73.4,142.1c0,2.4-0.2,4.9,0.1,7.2c0.4,2.6,1.5,4.9,1.7,7.5c0.1,0.9,1.4,1.5,1.9,0.5   c1-2.2,1.3-4.6,1.9-6.8c0.7-2.7,1.5-5.3,2.5-7.8c0.4-1.2-1.5-1.7-1.9-0.5c-0.8,2.3-1.6,4.7-2.2,7c-0.7,2.4-1,4.9-2,7.2l1.9,0.5   c-0.2-2.3-1.1-4.4-1.5-6.7c-0.5-2.6-0.3-5.3-0.3-8C75.4,140.9,73.4,140.9,73.4,142.1L73.4,142.1z" />
	<path
   id="path35964-1"
   d="M89.6,145.3c0.7-1.9-0.4-4-2.3-4.7c-0.8-0.3-1.6-0.3-2.4,0c-3.7,1.2-3.1,7.2-2.8,10.1   c0.2,2.1,0.8,6.7,3.9,5.6c1.7-0.6,2.2-2.5,2.6-4c0.6-2.6,1.1-5.3,1.6-7.9l-2-0.3c-0.3,4.2,0.2,8.4,1.5,12.4   c0.4,1.2,2.3,0.7,1.9-0.5c-1.3-3.8-1.8-7.9-1.4-11.9c0.1-1.1-1.7-1.4-2-0.3l-1.1,5.6c-0.2,1-0.4,2.1-0.7,3.1   c-0.4,1.5-1.6,2.3-2.1,0.4c-0.4-1.7-0.6-3.5-0.5-5.3c0-1,0-2.1,0.3-3.1c0.2-1,0.9-1.8,1.8-2.1c1.6,0.2,2.1,1,1.7,2.3   C87.3,145.9,89.2,146.5,89.6,145.3L89.6,145.3z" />
	<path
   id="path35966-0"
   d="M94.7,133.3l-0.9,10.1c-0.3,2.8-0.9,5.9-0.4,8.8c0.3,1.7,1.1,4,3,4.5c1.7,0.4,2.9-0.8,3.5-2.3   c0.4-1.2-1.5-1.7-1.9-0.5c-1.5,0.4-2.3,0-2.4-1.3l-0.2-1.2c-0.1-0.7-0.1-1.5,0-2.2c0.1-1.8,0.3-3.5,0.5-5.3l1-10.6   C96.8,132,94.8,132,94.7,133.3L94.7,133.3z" />
	<path
   id="path35968-5"
   d="M92.4,144.5c1.7-0.5,3.5-0.7,5.3-0.4c1.3,0.2,1.8-1.7,0.5-1.9c-2.1-0.3-4.3-0.2-6.4,0.4   C90.7,143,91.2,144.9,92.4,144.5L92.4,144.5z" />
	<path
   id="path35970-4"
   d="M100.9,144.1c-0.3,2.2-0.6,4.5-0.8,6.7c-0.1,1.6-0.1,3.4,0.8,4.7c1.8,2.7,4,0.4,5.7-1   c1-0.8-0.4-2.2-1.4-1.4c-0.7,0.6-1.8,2.3-2.9,0.6c-0.5-0.8-0.2-2.4-0.1-3.3c0.2-2.1,0.5-4.2,0.8-6.3   C103.1,142.9,101.1,142.9,100.9,144.1L100.9,144.1z" />
	<path
   id="path35972-2"
   d="M102.5,138.6c-0.3-0.5-1-0.7-1.6-0.4c0,0,0,0,0,0c-0.5,0.3-0.7,0.9-0.5,1.5c0.2,0.5,0.8,0.8,1.3,0.7   c0.5-0.1,0.9-0.6,0.9-1.2c0-0.4-0.2-0.7-0.5-0.9c-0.3-0.1-0.6-0.2-0.9-0.1c-0.2,0.1-0.4,0.2-0.6,0.3c-0.3,0.3-0.5,0.7-0.4,1.2   c0,0.6,0.4,1,1,1c0.6,0,1-0.4,1-1c0-0.1,0-0.1,0,0.1c0,0.2-0.1,0.2,0,0.1c0-0.1,0,0-0.1,0.1c-0.2,0.2-0.6,0.3-0.9,0.1l-0.5-0.9   c0,0.2,0.1,0.1,0.2-0.5c1.7,0.6,1.8,1.1,0.4,1.3l-0.4-0.3l-0.1-0.1c0.3,0.5,0.9,0.6,1.4,0.4C102.7,139.7,102.8,139.1,102.5,138.6   C102.5,138.6,102.5,138.6,102.5,138.6L102.5,138.6z" />
	<path
   id="path35974-4"
   d="M106.9,145.5c-0.5,3.3-1.3,8.3,1.9,10.6c3,2.2,5.5-1.7,6-4.3c0.7-3.4-0.2-7.8-3-10.1   c-3.5-3-4.7,3-5.3,5.3c-0.3,1.2,1.6,1.8,1.9,0.5c0.2-0.9,0.4-1.8,0.7-2.7c0.5-1.4,0.9-2.3,2.1-0.7c1.2,1.6,1.8,3.6,1.8,5.7   c0,1.6-2,7.5-4,3.6c-1.1-2.2-0.6-5-0.3-7.3C109,144.7,107.1,144.2,106.9,145.5L106.9,145.5z" />
	<path
   id="path35976-0"
   d="M115.7,141.5c-0.5,4.9-0.2,9.9,1,14.7c0.3,1.2,2.2,0.7,1.9-0.5c-1.1-4.6-1.4-9.4-0.9-14.2   C117.8,140.2,115.8,140.2,115.7,141.5L115.7,141.5z" />
	<path
   id="path35978-0"
   d="M118,148c1-2.1,2.5-3.9,4.7-4.8l-1.3-1c-0.1,4.7,0.2,9.4,1.1,14c0.2,1.3,2.2,0.7,1.9-0.5   c-0.9-4.4-1.2-9-1.1-13.5c0-0.6-0.5-1-1-1c-0.1,0-0.2,0-0.3,0c-2.7,1.1-4.6,3.1-5.9,5.7C115.7,148.1,117.4,149.1,118,148z" />
	<path
   id="path35980-5"
   d="M132.5,146.2c0.8-2-0.5-3.8-2.4-4.5c-1.9-0.7-3.6,0.3-4.4,2.1c-0.8,2-0.4,4.3,1,5.8   c0.8,0.8,1.9,1.1,2.7,1.8c0.9,0.7,1.4,1.7,1.4,2.8c0,2-2.6,1.5-3-0.2c-0.4-1.2-2.3-0.7-1.9,0.5c0.4,1.6,1.7,2.8,3.4,2.9   c1.7,0.1,3.4-0.4,3.6-2.3c0.1-1.7-0.4-3.8-1.8-5c-1-0.8-2.4-1.1-3.1-2.2c-0.6-0.9-0.8-1.9-0.5-2.9l0.6-1.2c1.7-0.7,2.6-0.1,2.6,1.8   C130,146.8,132,147.3,132.5,146.2L132.5,146.2z" />
</g>
<metadata
   id="metadata117"><rdf:RDF><cc:Work
       rdf:about=""><dc:title>sel_hmm</dc:title></cc:Work></rdf:RDF></metadata></svg>
