<?xml version="1.0" encoding="UTF-8" standalone="no"?>
<!-- Generator: Adobe Illustrator 23.0.3, SVG Export Plug-In . SVG Version: 6.00 Build 0)  -->

<svg
   version="1.1"
   id="svg134"
   x="0px"
   y="0px"
   viewBox="0 0 700 414.9"
   style="enable-background:new 0 0 700 414.9;"
   xml:space="preserve"
   sodipodi:docname="sel_hmm_1.svg"
   inkscape:version="1.3.2 (091e20e, 2023-11-25)"
   xmlns:inkscape="http://www.inkscape.org/namespaces/inkscape"
   xmlns:sodipodi="http://sodipodi.sourceforge.net/DTD/sodipodi-0.dtd"
   xmlns="http://www.w3.org/2000/svg"
   xmlns:svg="http://www.w3.org/2000/svg"
   xmlns:rdf="http://www.w3.org/1999/02/22-rdf-syntax-ns#"
   xmlns:cc="http://creativecommons.org/ns#"
   xmlns:dc="http://purl.org/dc/elements/1.1/"><defs
   id="defs117" />
<style
   type="text/css"
   id="style1">
	.st0{opacity:0.3;fill:#1F77B4;enable-background:new    ;}
	.st1{opacity:0.3;fill:#FF7F0E;enable-background:new    ;}
	.st2{opacity:0.3;fill:#2CA02C;enable-background:new    ;}
	.st3{fill:none;stroke:#FF7F0E;stroke-width:0.6722;stroke-linejoin:round;stroke-dasharray:2.4872,1.0755;}
	.st4{stroke:#000000;stroke-width:1.5041;}
	.st5{stroke:#000000;stroke-width:1.1416;}
	.st6{fill:none;stroke:#000000;stroke-width:1.7808;stroke-linecap:round;stroke-linejoin:round;}
	.st7{fill:#8C0000;}
	.st8{fill:#870303;stroke:#000000;stroke-width:2;stroke-linecap:round;stroke-linejoin:round;}
	.st9{fill:none;stroke:#000000;stroke-width:0.5106;stroke-linecap:round;stroke-linejoin:round;}
	.st10{fill:#010B7F;}
	.st11{fill:none;stroke:#000000;stroke-width:0.4;stroke-linecap:round;stroke-linejoin:round;}
</style>
<sodipodi:namedview
   bordercolor="#000000"
   borderopacity="0.25"
   id="namedview134"
   inkscape:current-layer="Layer_1"
   inkscape:cx="335.29191"
   inkscape:cy="229.80682"
   inkscape:deskcolor="#d1d1d1"
   inkscape:pagecheckerboard="0"
   inkscape:pageopacity="0.0"
   inkscape:showpageshadow="2"
   inkscape:window-height="847"
   inkscape:window-maximized="1"
   inkscape:window-width="1384"
   inkscape:window-x="62"
   inkscape:window-y="25"
   inkscape:zoom="0.79632102"
   pagecolor="#ffffff">
	</sodipodi:namedview>
<title
   id="title1">sel_hmm</title>
<g
   id="Layer_1">
	
	
	
	
	
	
	
	
	
	
	
	
	
	
	
	
	
	
	
	
	
	
	
	
	
	
	
	
	
	
	
	
	
	
	
	
	
	
	
	
	
	
	
	
	
	
	
	
	
	
	
	
	
	
	
	
	
	
	
	
	
	
	
	
	
	
	
	
	
	
	
	
	
	
	
	
	
	
	
	
	
	
	
	
	
	
	
	
	
	
	
	
	
	
	
	
	
	
	
	
	
	
	
	
	
	
	
	
	
	
	
	
	
	
	
	
	
	
	
	
	
	
	
	
	
	
	
	
	
	
	
	
	
	
	
	
	
	
	
	
	
	
	
	
	
	
	
	
	
	
	
	
	
	
	
	
	
	
	
	
	
	
	
	
	
	
	
	
	
	
	
	
	
	<path
   id="path7"
   d="M491,22.8c-1.4,0.3-0.7,2.8,0.8,2l-1-0.3c0.3,0.5,0.9,0.7,1.4,0.4c0.1-0.1,0.2-0.2,0.3-0.3   c0.3-0.4,0.3-1.1-0.2-1.4c-0.2-0.2-0.5-0.2-0.8-0.2c-0.4,0-0.7,0.3-0.8,0.8c0,0.4,0.3,0.7,0.8,0.8l-0.3-0.3V24l0.8-0.1   c-0.2-0.3-0.6-0.4-1-0.3l0,0h0.4c0.4,0.1,0.3,0.7-0.1,0.7C492.4,24.1,492,22.7,491,22.8L491,22.8z" />
	<path
   id="path8"
   d="M498.4,23c-0.5-0.4-1.2-0.4-1.6,0.1c-0.1,0.1-0.1,0.2-0.2,0.3c-0.4,0.8,0.3,2,1.2,1.4c0.4-0.2,0.7-0.6,0.7-1   c0.1-0.5-0.3-0.9-0.8-1c-0.9-0.1-1.6,1.1-0.7,1.6c0.4,0.2,0.8,0,1-0.3c0.2-0.3,0.1-0.8-0.2-1h-0.1l0.4,0.5v0l-0.1,0.6l-0.4,0.2   l-0.4-0.1l-0.2-0.2l-0.1-0.4c0.1-0.2,0.1-0.2,0-0.1h0.8c0.1,0.2,0.1,0.3,0.1,0.5c0,0-0.3,0.1-0.2,0.1l-0.4-0.1l0,0   C498.2,24.7,499.2,23.7,498.4,23L498.4,23z" />
	<path
   id="path9"
   d="M502.9,23.9L502.9,23.9l-0.1-0.3c0,0,0.1-0.1,0.1-0.1l0.4-0.1l0.3,0.5c0.5-0.8-0.8-1.6-1.3-0.8   c-0.3,0.5-0.2,1.2,0.3,1.6c0.5,0.3,1.2,0.2,1.6-0.3c0.2-0.4,0.2-0.9,0-1.3C503.8,22.2,502.5,23,502.9,23.9L502.9,23.9z" />
	<path
   id="path10"
   sodipodi:nodetypes="ccccccc"
   d="M116.5,23.9c49.5-0.2,140.3,0.3,189.7,0.7c18.5,0.2,149.8,0.3,168.3,0.3   c1,0,1-1.5,0-1.5c-49.1-0.2-211-1-260.2-1.1c-18.8,0-79,0-97.8,0.1C115.5,22.4,115.5,23.9,116.5,23.9L116.5,23.9z" />
	<path
   id="path11"
   sodipodi:nodetypes="ccccc"
   d="M519,24.2c34.8-0.1,133.8-0.5,168.5,0c1,0,1-1.5,0-1.5   c-34.8-0.5-133.8-0.1-168.5,0C518,22.7,518,24.2,519,24.2z" />
	<path
   id="path12"
   d="M115.3,18.5c-0.6,3.4-0.6,6.8-0.1,10.1c0.1,1,1.6,0.5,1.4-0.4c-0.5-3.1-0.4-6.3,0.1-9.4   C116.9,18,115.5,17.6,115.3,18.5z" />
	<path
   id="path13"
   d="M688.4,18.6c-0.6,3.3-0.7,6.7-0.1,10.1c0.1,1,1.6,0.5,1.4-0.4c-0.5-3.1-0.4-6.2,0.2-9.3   C690,18,688.6,17.6,688.4,18.6z" />
	<path
   id="path126"
   d="M47.1,7.4c0.5-2.1,0.3-3.9-1.5-5.3c-1.5-1.1-4.7-2.5-6.6-2c-5.1,1.5-5.3,13.2-4.6,17.2c0.7,4.4,4.6,8.1,9,5.2   c3.5-2.4,5-8.1-0.6-8.3v1.5c3.9-0.5,3.5,2.2,3.7,5.1c0.1,1,1.6,1,1.5,0c0-2.1-0.2-4.2-0.5-6.3c-0.1-0.3-0.3-0.5-0.5-0.5   c-1.4-0.4-2.8,0.1-4.2,0.2c-0.4,0-0.8,0.3-0.8,0.8s0.3,0.8,0.8,0.8c2.4,1.9,2.5,3.5,0.5,5c-3.3,2.4-5.7,1.6-7.1-2.4   c-0.5-2-0.6-4-0.3-6c0.2-1.9,0.1-4.3,0.9-6.1c0.3-2.3,1.8-3.7,4.5-4.3c2.8,0.4,4.3,2.1,4.5,5.2C45.5,7.9,46.9,8.3,47.1,7.4   L47.1,7.4z" />
	<path
   id="path127"
   d="M51.2,17.2c3,0.2,7.8-1.5,6.3-5.3c-1-2.7-3.9-5.6-6.8-3.4c-1.1,1-1.7,2.4-1.8,3.9c-0.3,2-0.8,4.7,0.1,6.7   c1.5,3.5,5.6,5.1,8.8,3.1c0.8-0.5,0.1-1.8-0.8-1.3c-2.1,1.3-4.9,0.7-6.2-1.4c-0.1-0.1-0.1-0.2-0.1-0.3c-1-1.6-0.7-3.6-0.5-5.4   c0-0.8,0.1-1.7,0.4-2.4c1.1-2.7,2.8-2.2,4.3-0.7c0.3,0.4,0.5,0.7,0.8,1.1L54.8,15c-0.8,0.8-2.7,0.8-3.6,0.7S50.2,17.1,51.2,17.2   L51.2,17.2z" />
	<path
   id="path128"
   d="M58.9,9.2c-0.2,4.3-0.1,8.6,0.3,12.9c0.1,1,1.6,1,1.5,0c-0.4-4.3-0.5-8.6-0.2-12.9C60.4,8.2,59,8.2,58.9,9.2   L58.9,9.2z" />
	<path
   id="path129"
   d="M60.5,14.8c2.3-1.4,4.4-3.1,6.4-4.9l-1.2-0.1c1.2,2.2,0.5,4.4,0.3,6.7c-0.1,2,0.1,4,0.6,6   c0.1,0.4,0.5,0.6,0.9,0.5c0.4-0.1,0.6-0.5,0.5-0.9c-0.6-2.6-0.7-5.3-0.3-8c0.2-1.7,0-3.5-0.8-5c-0.2-0.4-0.7-0.5-1-0.3   c-0.1,0-0.1,0.1-0.1,0.1c-1.9,1.8-3.9,3.3-6.1,4.7C58.9,14.1,59.7,15.4,60.5,14.8L60.5,14.8z" />
	<path
   id="path130"
   d="M70.6,14.4c-0.6,3.1-1.5,8.3,2.7,9.4c4.2,1.1,6.2-3.9,6.5-7.1s-0.3-9.4-4.7-8.9c-3.8,0.4-6,4.8-5.7,8.3   c0.1,1,1.6,1,1.5,0c-0.2-2.1,0.4-4.6,2.3-5.8c4.3-2.8,5.2,2.6,5.2,5.3c0,1.8-0.6,4.8-2.1,6c-3.2,2.5-4.8-0.9-4.8-3   c0.1-1.3,0.3-2.5,0.6-3.8C72.3,13.8,70.8,13.4,70.6,14.4z" />
	<path
   id="path131"
   d="M80.2,9.2l0.4,13.4c0,1,1.5,1,1.5,0L81.7,9.2c0-0.4-0.3-0.8-0.8-0.8S80.2,8.8,80.2,9.2z" />
	<path
   id="path132"
   d="M82.2,13.4c0.7-1.2,2.1-4.3,3.8-1.2c0.4,0.7,0.1,2.4,0.1,3.3c0,2.3,0.1,4.6,0.1,7c0,0.4,0.3,0.8,0.8,0.8   s0.8-0.3,0.8-0.8c0-2.5,0-5-0.1-7.4c0-1.6,0.2-4.1-0.8-5.4c-2.1-2.9-4.9,1.5-5.9,3.1C80.4,13.4,81.7,14.2,82.2,13.4L82.2,13.4z" />
	<path
   id="path133"
   d="M88.1,14.2c0.6-0.9,1.7-3.3,2.7-3.8c2.2-1,1.4,2.2,1.4,3.3c0,3.1-0.3,6.1-0.5,9.2c-0.1,0.9,1.3,1,1.5,0.2   l0.1-0.3c0.1-0.4-0.2-0.8-0.6-0.9c-0.4-0.1-0.7,0.1-0.8,0.5l-0.1,0.3l1.5,0.2c0.2-3.1,0.5-6.1,0.5-9.2c0-1.4,0.6-4.6-0.5-5.7   c-2.2-2.2-5.6,4.4-6.3,5.4C86.2,14.3,87.5,15,88.1,14.2z" />
	<path
   id="path134"
   d="M95.7,18.6c3.1-0.5,7.5-2.7,8.2-6.1c0.4-2.3-2.9-6.1-5.2-4.2c-2.6,2.1-4.2,8.2-3.4,11.3   c0.4,1.5,1.4,2.8,2.8,3.5c2,0.9,3.8-0.2,5.9-0.3c1,0,1-1.5,0-1.5c-2.2,0-4.3,1.6-6.3-0.3s-1-5.6-0.1-7.8c0.3-0.8,2-5.3,3.9-2.9   c1.2,1.5,0.4,3.3-0.8,4.4c-1.5,1.4-3.4,2.3-5.4,2.5C94.3,17.3,94.8,18.7,95.7,18.6L95.7,18.6z" />
	
	
	
	
	
	
	
	
	
	
	
	
	
	
	
	
	
	
	
	
	
	
	
	
	
	
	
	
	
	
	
	
	
	
	
	
	
	
	
	
	
	
	
	
	
	
	
	
	
	
	
	
	
	
	
	
	
	
	
	
	
	
	
	
	
	
	
	
	
	
	
	
	
	
	
	
	
	
	
	
	
	
	
	
	
	
	
	
	
	
	
	
	
	
	
	
	
	
	
	
	
	
	
	
	
	
	
	
	
	
	
	
	
	
	
	
	
	
	
	
	
	
	
	
	
	
	
	
	
	
	
	
	
	
	
	
	
	
	
	
	
	
	
	
	
	
	
	
	
	
	
	
	
	
	
	
	
	
	
	
	
	
	
	
	
	
	
	
	
	
	
	
	
	
	
	
	
	
	
	
	
	
	
	
	
	
	
	
</g>
<metadata
   id="metadata117"><rdf:RDF><cc:Work
       rdf:about=""><dc:title>sel_hmm</dc:title></cc:Work></rdf:RDF></metadata></svg>
