<?xml version="1.0" encoding="UTF-8" standalone="no"?>
<!-- Generator: Adobe Illustrator 23.0.3, SVG Export Plug-In . SVG Version: 6.00 Build 0)  -->

<svg
   version="1.1"
   id="svg134"
   x="0px"
   y="0px"
   viewBox="0 0 700 414.9"
   style="enable-background:new 0 0 700 414.9;"
   xml:space="preserve"
   sodipodi:docname="sel_hmm_2_layer.svg"
   inkscape:version="1.3.2 (091e20e, 2023-11-25)"
   xmlns:inkscape="http://www.inkscape.org/namespaces/inkscape"
   xmlns:sodipodi="http://sodipodi.sourceforge.net/DTD/sodipodi-0.dtd"
   xmlns="http://www.w3.org/2000/svg"
   xmlns:svg="http://www.w3.org/2000/svg"
   xmlns:rdf="http://www.w3.org/1999/02/22-rdf-syntax-ns#"
   xmlns:cc="http://creativecommons.org/ns#"
   xmlns:dc="http://purl.org/dc/elements/1.1/"><defs
   id="defs117" />
<style
   type="text/css"
   id="style1">
	.st0{opacity:0.3;fill:#1F77B4;enable-background:new    ;}
	.st1{opacity:0.3;fill:#FF7F0E;enable-background:new    ;}
	.st2{opacity:0.3;fill:#2CA02C;enable-background:new    ;}
	.st3{fill:none;stroke:#FF7F0E;stroke-width:0.6722;stroke-linejoin:round;stroke-dasharray:2.4872,1.0755;}
	.st4{stroke:#000000;stroke-width:1.5041;}
	.st5{stroke:#000000;stroke-width:1.1416;}
	.st6{fill:none;stroke:#000000;stroke-width:1.7808;stroke-linecap:round;stroke-linejoin:round;}
	.st7{fill:#8C0000;}
	.st8{fill:#870303;stroke:#000000;stroke-width:2;stroke-linecap:round;stroke-linejoin:round;}
	.st9{fill:none;stroke:#000000;stroke-width:0.5106;stroke-linecap:round;stroke-linejoin:round;}
	.st10{fill:#010B7F;}
	.st11{fill:none;stroke:#000000;stroke-width:0.4;stroke-linecap:round;stroke-linejoin:round;}
</style>
<sodipodi:namedview
   bordercolor="#000000"
   borderopacity="0.25"
   id="namedview134"
   inkscape:current-layer="Layer_1"
   inkscape:cx="289.13208"
   inkscape:cy="311.30478"
   inkscape:deskcolor="#d1d1d1"
   inkscape:pagecheckerboard="0"
   inkscape:pageopacity="0.0"
   inkscape:showpageshadow="2"
   inkscape:window-height="449"
   inkscape:window-maximized="0"
   inkscape:window-width="1312"
   inkscape:window-x="62"
   inkscape:window-y="25"
   inkscape:zoom="1.1275124"
   pagecolor="#ffffff">
	</sodipodi:namedview>
<title
   id="title1">sel_hmm</title>
<g
   id="Layer_1">
	<path
   id="rect136-3_1_"
   class="st11"
   d="M183.2,192.9h37.3c0.2,0,0.4,1.9,0.4,4.2V390c0,2.3-0.2,4.2-0.4,4.2h-37.3   c-0.2,0-0.4-1.9-0.4-4.2V197.1C182.8,194.8,183,192.9,183.2,192.9z"
   style="fill:#ececec" />
	
	
	
	
	
	
	
	
	
	
	
	
	
	
	
	
	
	
	
	
	
	
	
	
	
	
	
	
	
	
	
	
	
	
	
	
	
	
	
	
	
	
	
	
	
	
	
	
	
	
	
	
	
	
	
	
	
	<path
   id="path35468"
   d="M193.3,154.8c-0.3,2.6-1.9,5.2-2.6,7.7c-0.7,2.5-1.3,5.1-1.8,7.7l1.1,0.1l0-0.4c-0.1-0.6-1.2-0.6-1.1,0   l0,0.4c0.1,0.5,1,0.7,1.1,0.1c0.6-2.8,1.1-5.5,2-8.3c0.7-2.5,2.2-4.9,2.5-7.4C194.5,154.2,193.4,154.2,193.3,154.8L193.3,154.8z" />
	<path
   id="path35470"
   d="M193.3,156l2.4,13.8c0.1,0.5,1.1,0.4,1.1-0.1l0.1-0.2c0.4-0.5-0.6-1-1-0.5c-0.2,0.2-0.2,0.4-0.2,0.7   l1.1-0.1l-2.4-13.8C194.3,155.2,193.2,155.4,193.3,156L193.3,156z" />
	<path
   id="path35472"
   d="M190.9,165.1c1.7-0.3,3.4-0.5,5.2-0.5c0.3,0,0.6-0.2,0.6-0.5c0-0.3-0.2-0.5-0.6-0.5c-1.8,0-3.7,0.2-5.5,0.5   C189.9,164.3,190.2,165.3,190.9,165.1L190.9,165.1z" />
	<path
   id="path35474"
   d="M198.3,154.9l-0.1,15.3c0,0.3,0.2,0.5,0.6,0.5s0.6-0.2,0.6-0.5l0.1-15.3c0-0.3-0.2-0.5-0.6-0.5   S198.3,154.6,198.3,154.9z" />
	<path
   id="path35476"
   d="M200.8,155.2c0.3,2.5,0.3,5,0.1,7.5c-0.2,2.5,0.5,4.9-0.1,7.3c-0.1,0.6,0.9,0.9,1.1,0.3   c0.6-2.4-0.1-4.6,0.1-7c0.2-2.7,0.2-5.4,0-8.1C201.8,154.6,200.7,154.6,200.8,155.2L200.8,155.2z" />
	<path
   id="path35478"
   d="M203.1,165.1c2.1-0.1,5.5-1,5-3.8c-0.2-1.2-1.3-2.1-2.6-1.9c-0.6,0.1-1.1,0.4-1.4,0.8   c-1.5,1.8-1.7,5.6-0.8,7.7c0.9,2.2,3.5,2.8,5.5,1.7c0.6-0.3,0.1-1.3-0.6-1c-1.1,0.6-2.4,0.4-3.3-0.4c-0.9-0.9-0.9-2.3-0.9-3.5   c0-0.5,0.1-3.1,0.7-3.4l2.1,1.2c-0.3,0.5-0.8,0.9-1.4,1.1c-0.7,0.3-1.5,0.4-2.3,0.4C202.4,164,202.4,165.1,203.1,165.1L203.1,165.1   z" />
	<path
   id="path35480"
   d="M210.4,154.3c-1.1,2-0.5,4.7-0.5,6.8l0.1,8.7c0,0.6,1.1,0.6,1.1,0l-0.1-7.4l-0.1-3.7c0-1.2-0.3-2.7,0.4-3.9   C211.7,154.2,210.7,153.7,210.4,154.3L210.4,154.3z" />
	<path
   id="path35482"
   d="M213,166.1c2.1-0.7,4.6-2.5,3.6-5.1c-0.8-2-3.1-1.8-3.9,0.1c-0.5,1.2-0.5,2.7-0.7,4   c-0.1,1.3-0.1,2.6,0.6,3.7c1.1,1.7,3.4,2,4.6,0.3c0.4-0.6-0.5-1.1-1-0.6c-1.5,2-3.1-0.7-3.2-2c0-0.9,0.1-1.8,0.2-2.7l0.2-1.2   c0-1.1,0.7-1.1,2.1,0.1c0.1,1.2-2.1,2.1-2.9,2.4C212.1,165.3,212.4,166.4,213,166.1L213,166.1z" />
	<path
   id="path35484"
   d="M199.6,177.8c-0.5,1.9-0.5,3.9,0,5.9c0.3,1.2,1.1,3.4,2.5,3.8c3.4,0.8,2.4-7.6,2.1-9.1   c-0.1-0.6-1.1-0.5-1.1,0.1c0.2,3,0.6,6,1.1,8.9c0.1,0.7,1.2,0.4,1.1-0.3c-0.5-2.9-0.8-5.7-1-8.6l-1.1,0.1c0.3,1.3,0.4,2.6,0.4,3.9   c0,0.6,0,1.5-0.2,2.1c0.1,0.6-0.2,0.9-0.8,0.9c-0.5,0.4-0.8,0.3-1-0.2c-0.6-0.5-0.9-2.2-1-3c-0.2-1.4-0.1-2.8,0.2-4.2   c0.1-0.3-0.1-0.6-0.4-0.7C199.9,177.4,199.6,177.5,199.6,177.8L199.6,177.8z" />
	<path
   id="path35486"
   d="M207,183.2c2-0.3,4.1-1.9,3.4-4.2c-0.3-1.2-1.5-1.9-2.7-1.6c-0.4,0.1-0.7,0.3-1,0.5   c-2.8,2.6-1.2,11.6,3.6,9.4c0.6-0.3,0.1-1.3-0.6-1c-0.9,0.4-1.9-0.2-2.4-0.9c-0.3-0.5-0.5-1-0.7-1.5c-0.3-1.1-0.3-2.3,0-3.5   c0.1-0.4,0.2-0.8,0.5-1.2c0.2-0.5,0.7-0.8,1.2-0.9l1,0.9c0.2,0.8-0.3,1.9-1,2.3c-0.5,0.3-1.1,0.4-1.7,0.5   C206,182.2,206.3,183.3,207,183.2L207,183.2z" />
	<path
   id="path35488"
   d="M210.8,177.9c0,3,0.2,5.9,0.6,8.9c0.1,0.7,1.2,0.7,1.1,0c-0.4-3-0.6-5.9-0.6-8.9c0-0.3-0.2-0.6-0.6-0.6   C211.1,177.3,210.8,177.6,210.8,177.9z" />
	<path
   id="path35490"
   d="M212.1,180.8c0.2-0.8,0.7-2.4,1.6-2.6c0.7-0.2,1.4,0.7,1.6,1.3c0.2,0.6,0.3,1.2,0.3,1.9   c0.2,2,0.2,4.1,0.1,6.2c0,0.6,0.9,0.7,1.1,0.1l0.2-0.7c0.2-0.7-0.9-1-1.1-0.3l-0.2,0.7l1.1,0.1c0.2-2.3,0.1-4.6-0.2-6.9   c-0.1-1.1-0.3-2.5-1.3-3.2c-2-1.7-4,1.4-4.4,3.1C210.9,181.2,212,181.5,212.1,180.8L212.1,180.8z" />
	<path
   id="path35492"
   d="M222.2,179c-0.1-1-0.9-1.8-2-1.7c-0.2,0-0.4,0.1-0.6,0.2c-1.6,0.6-2.2,2.5-2.1,4c0,1.7,0.4,4.1,1.7,5.3   c1.2,1.1,2.5,0.6,3.4-0.5c0.4-0.6-0.3-1.3-0.8-0.8c-0.3,0.5-0.7,0.6-1.3,0.1c-0.9,0.1-1.3-0.3-1.4-1.1c-0.1-0.4-0.2-0.9-0.3-1.3   c-0.2-0.7-0.2-1.4-0.2-2l0.1-1.1c0.3-1.3,1-1.6,2.3-1.1C221.1,179.7,222.3,179.7,222.2,179L222.2,179z" />
	<path
   id="path35494"
   d="M223,177.5c-0.1,1.7-1.3,11.3,2.5,10.7c1.4-0.2,2.4-2.4,2.8-3.6c0.7-2,0.6-4.2-0.1-6.2   c-0.2-0.7-1.3-0.4-1.1,0.3c0.6,2.3,0.5,4.7,0.3,7.1c-0.1,1-0.2,2-0.3,3c-0.1,1.4-0.6,5.4-2.9,3.2c-0.5-0.5-1.3,0.3-0.8,0.8   c1.7,1.6,4.2,0.6,4.6-1.7c0.4-2,0.4-4.3,0.6-6.4c0.2-2.1,0.1-4.3-0.4-6.4l-1.1,0.3c0.5,1.4,0.7,3,0.4,4.5c-0.1,0.7-0.3,1.3-0.6,1.9   c-0.4,0.8-0.7,1.6-1.7,1.4c-2.2-0.5-1.2-7.4-1.1-9.1C224.1,176.8,223,176.8,223,177.5L223,177.5z" />
	<path
   id="path35496"
   d="M174.6,173.9l0.5,12.8c0,0.6,1.1,0.6,1.1,0l-0.5-12.8C175.7,173.3,174.6,173.3,174.6,173.9z" />
	<path
   id="path35498"
   d="M174.7,174.5l8.2,0.2c0.7,0,0.7-0.9,0-0.9l-8.2-0.2C173.9,173.6,173.9,174.5,174.7,174.5L174.7,174.5z" />
	<path
   id="path35500"
   d="M175.1,178.9c1.7,0.3,3.5,0.4,5.3,0.3c0.7,0,0.7-1,0-0.9c-1.7,0.1-3.4,0-5-0.3   C174.7,177.9,174.4,178.8,175.1,178.9L175.1,178.9z" />
	<path
   id="path35502"
   d="M182.2,180.6c0.2-0.4,0.3-1,0.7-1.2c0.6-0.3,0.1-0.1,0.6,0.1c0.4,0.1,0.7,0.4,1.1,0.4c0.9,0,1.7-0.5,2-1.3   l-1-0.6c-1,2.4-2.1,4.9-1.9,7.5c0.2,2.4,1.2,2,3.1,1.4c0.3-0.1,0.4-0.4,0.3-0.7c-0.1-0.3-0.4-0.4-0.6-0.4c-1.1,0.3-1.7,0.9-1.7-0.6   c0-0.7,0-1.5,0.2-2.2c0.4-1.5,0.9-3,1.5-4.4c0.3-0.6-0.6-1.2-1-0.6c-0.8,1.7-1.7-0.2-2.7-0.1c-0.8,0.1-1.5,1.5-1.7,2.2   C181,180.6,181.9,181.2,182.2,180.6L182.2,180.6z" />
	<path
   id="path35504"
   d="M189.1,182.7c1.9,0.2,3.3-1.8,3.2-3.6c-0.1-1.8-1.8-2.7-3-1.1c-1.3,1.8-1.8,5.2-1,7.3   c0.7,1.7,2.5,2.8,4,1.3c0.2-0.2,0.2-0.6,0-0.8c-0.2-0.2-0.5-0.2-0.8,0l-1.6,0l-0.4-0.6c-0.3-0.6-0.4-1.2-0.4-1.8   c0-1,0.1-1.9,0.4-2.9c0.1-0.3,0.2-0.7,0.3-1l0.3-0.8l1,0.4c0.6,1.1-1.1,2.6-2.1,2.5C188.4,181.5,188.4,182.7,189.1,182.7   L189.1,182.7z" />
	<path
   id="path35506"
   d="M198.5,180.6c0.1-1.9-1.5-3.8-3.6-2.9c-2.1,0.9-2.1,3.7-1.8,5.5c0.3,1.7,1.4,4.3,3.7,3.5   c2.2-0.8,1.6-4.9,1.5-6.6c0-0.7-1.1-0.7-1.1,0l0.3,14.2c0,0.7,1.1,0.7,1.1,0l-0.3-14.2h-1.1c0,1,0.1,2,0,2.9c0,0.5-0.1,1-0.1,1.5   c-1.5,0.9-2.3,0.7-2.6-0.3c-0.4-0.8-0.5-1.9-0.5-2.8c0-0.7,0.1-1.4,0.4-2c2.1-0.7,3.1-0.4,2.9,1.1   C197.4,181.3,198.5,181.3,198.5,180.6L198.5,180.6z" />
	
	
	<path
   id="path35762"
   d="M199.7,245.7c-1,9.8,1.2,19.8-1.2,29.5l1.2-0.2c-1-1.6-1.9-3.4-2.5-5.2c-0.3-0.8-1.6-0.5-1.3,0.4   c0.6,2.2,1.9,4.2,3.7,5.6c0.3,0.3,0.7,0.2,1,0c0.1-0.1,0.2-0.3,0.2-0.5c0.2-2.9,3.1-3.5,3.8-6c0.1-0.4-0.2-0.7-0.6-0.8   c-0.3-0.1-0.7,0.1-0.8,0.4c-0.4,1.5-2,2.1-2.9,3.3c-0.6,0.9-0.9,2-1,3.1l1.2-0.5c-1.6-1.2-2.8-3-3.3-5l-1.3,0.4   c0.7,1.9,1.6,3.8,2.7,5.5c0.2,0.3,0.6,0.4,1,0.2c0.1-0.1,0.3-0.2,0.3-0.4c2.4-9.8,0.2-19.9,1.2-29.9   C201.2,244.8,199.8,244.8,199.7,245.7L199.7,245.7z" />
	<path
   id="path35764"
   d="M199.7,313.9c-1,9.8,1.2,19.8-1.2,29.5l1.2-0.2c-1-1.6-1.9-3.4-2.5-5.2c-0.3-0.8-1.6-0.5-1.3,0.4   c0.6,2.2,1.9,4.2,3.7,5.6c0.3,0.3,0.7,0.2,1,0c0.1-0.1,0.2-0.3,0.2-0.5c0.2-2.9,3.1-3.5,3.8-6c0.1-0.4-0.2-0.7-0.6-0.8   c-0.3-0.1-0.7,0.1-0.8,0.4c-0.4,1.5-2,2.1-2.9,3.3c-0.6,0.9-0.9,2-1,3.1l1.2-0.5c-1.6-1.2-2.8-3-3.3-5l-1.3,0.4   c0.7,1.9,1.6,3.8,2.7,5.5c0.2,0.3,0.6,0.4,1,0.2c0.1-0.1,0.3-0.2,0.3-0.4c2.4-9.8,0.2-19.9,1.2-29.9   C201.2,313.1,199.8,313.1,199.7,313.9L199.7,313.9z" />
	
	
	
	
	
	
	
	
	
	
	
	
	
	
	
	
	
	
	
	
	
	
	
	
	
	
	
	
	
	
	
	
	
	
	
	
	
	
	
	
	
	
	
	
	
	
	
	
	
	
	<path
   id="path36000"
   d="M194.3,212.3c0.7,3.7,2.2,7.3,3.5,10.8l3.8,11c0.2,0.7,1.4,0.6,1.3-0.2l-0.1-1.1c-0.1-0.9-1.4-0.9-1.4,0   l0.1,1.1l1.3-0.2l-3.8-11c-1.2-3.5-2.8-7.1-3.5-10.8C195.4,211,194.1,211.4,194.3,212.3L194.3,212.3z" />
	<path
   id="path36002"
   d="M203.9,211.5c-1.3,1.4-1.9,3.2-2.6,4.9c-0.9,2.2-1.9,4.4-2.8,6.6l-2.8,6.6c-0.6,1.4-1.9,3.2-1.9,4.8   c0,0.4,0.3,0.7,0.7,0.7c0.1,0,0.2,0,0.3-0.1l0.1-0.1c0.3-0.2,0.4-0.5,0.3-0.8l0-0.1c-0.3-0.8-1.6-0.5-1.3,0.4l0,0.1l0.3-0.8   l-0.1,0.1l1,0.6c0-1,0.9-2.4,1.3-3.3l1.1-2.5l2.3-5.3c0.8-1.8,1.5-3.6,2.3-5.3c0.8-1.8,1.4-4,2.8-5.5   C205.5,211.9,204.5,210.9,203.9,211.5L203.9,211.5z" />
	<path
   id="path36012"
   d="M206,227.9c-1.4,1.9-1.4,5.4,0,7.3c1.5,2.1,3.8,0.6,4.6-1.3c0.9-2.3,0.8-6.6-1.5-8.1   c-2.4-1.7-4.2,1.7-4.5,3.6c-0.2,0.9,1.2,1.2,1.3,0.4c0.3-1.4,1.7-4.5,3.1-2c0.8,1.7,1,3.6,0.5,5.4c-0.2,0.6-0.8,1.9-1.6,1.9   c-0.8-0.1-1.1-1.3-1.3-1.9c-0.3-1.4-0.2-3.1,0.6-4.3C207.7,227.9,206.5,227.2,206,227.9L206,227.9z" />
	<path
   id="path36014"
   d="M194.3,283.7c0.7,3.7,2.2,7.3,3.5,10.8l3.8,11c0.2,0.7,1.4,0.6,1.3-0.2l-0.1-1.1c-0.1-0.9-1.4-0.9-1.4,0   l0.1,1.1l1.3-0.2l-3.8-11c-1.2-3.5-2.8-7.1-3.5-10.8C195.4,282.5,194.1,282.8,194.3,283.7L194.3,283.7z" />
	<path
   id="path36016"
   d="M203.9,283c-1.3,1.4-1.9,3.2-2.6,4.9c-0.9,2.2-1.9,4.4-2.8,6.6l-2.8,6.6c-0.6,1.4-1.9,3.2-1.9,4.8   c0,0.4,0.3,0.7,0.7,0.7c0.1,0,0.2,0,0.3-0.1l0.1-0.1c0.3-0.2,0.4-0.5,0.3-0.8l0-0.1c-0.3-0.8-1.6-0.5-1.3,0.4l0,0.1l0.3-0.8   l-0.1,0.1l1,0.6c0-1,0.9-2.4,1.3-3.3l1.1-2.5l2.3-5.3c0.8-1.8,1.5-3.6,2.3-5.3c0.8-1.8,1.4-4,2.8-5.5   C205.5,283.3,204.5,282.3,203.9,283L203.9,283z" />
	<path
   id="path36026"
   d="M205.7,303.6c1.6-1.5,2.7-3.4,3-5.6l-1.3-0.2c0,2.4,0.1,4.8-0.1,7.2c0,0.4,0.1,1.4-0.3,1.6   c-0.1,0.1-0.8-0.1-1-0.1c-0.5,0-0.9,0.2-1.2,0.5c-0.3,0.3-0.3,0.7,0,1c0.1,0.1,0.3,0.2,0.5,0.2l4.1,0c0.4,0,0.7-0.3,0.7-0.7   c0-0.4-0.3-0.7-0.7-0.7l-4.1,0l0.5,1.2c0.4-0.4,1.5,0.1,2.1-0.1c0.6-0.3,0.7-0.7,0.8-1.3c0.4-2.8,0.1-5.9,0.1-8.8   c0-0.7-1.2-1-1.3-0.2c-0.3,1.9-1.2,3.7-2.7,5C204.1,303.2,205,304.1,205.7,303.6L205.7,303.6z" />
	<path
   id="path36028"
   d="M194.3,351.9c0.7,3.7,2.2,7.3,3.5,10.8l3.8,11c0.2,0.7,1.4,0.6,1.3-0.2l-0.1-1.1c-0.1-0.9-1.4-0.9-1.4,0   l0.1,1.1l1.3-0.2l-3.8-11c-1.2-3.5-2.8-7.1-3.5-10.8C195.4,350.7,194.1,351.1,194.3,351.9L194.3,351.9z" />
	<path
   id="path36030"
   d="M203.9,351.2c-1.3,1.4-1.9,3.2-2.6,4.9c-0.9,2.2-1.9,4.4-2.8,6.6l-2.8,6.6c-0.6,1.4-1.9,3.2-1.9,4.8   c0,0.4,0.3,0.7,0.7,0.7c0.1,0,0.2,0,0.3-0.1l0.1-0.1c0.3-0.2,0.4-0.5,0.3-0.8l0-0.1c-0.3-0.8-1.6-0.5-1.3,0.4l0,0.1l0.3-0.8   l-0.1,0.1l1,0.6c0-1,0.9-2.4,1.3-3.3l1.1-2.5l2.3-5.3c0.8-1.8,1.5-3.6,2.3-5.3c0.8-1.8,1.4-4,2.8-5.5   C205.5,351.5,204.5,350.6,203.9,351.2L203.9,351.2z" />
	<path
   id="path36040"
   d="M204.5,365.8c0.2,3.8,0.1,7.6-0.4,11.4c-0.1,0.9,1.3,0.9,1.4,0c0.4-3.8,0.6-7.6,0.4-11.4   C205.8,364.9,204.4,364.9,204.5,365.8z" />
	<path
   id="path36042"
   d="M209,367c-0.8,2.3-2.1,4.5-3.9,6.3c-0.3,0.3-0.2,0.7,0,1c0.2,0.2,0.4,0.2,0.6,0.2c2.1-0.4,3.7,1.1,4.7,2.8   c0.2,0.3,0.6,0.4,0.9,0.2c0.3-0.2,0.4-0.6,0.2-0.9c-1.3-2.3-3.5-3.9-6.2-3.4l0.7,1.1c1.9-2,3.3-4.3,4.2-6.9   C210.6,366.6,209.3,366.2,209,367L209,367z" />
	
	
	
	
	
	
	
	
	
	
	
	
	
	
	
	
	
	
	
	
	
	
	
	
	
	
	
	
	
	
	
	
	
	
	
	
	
	
	
	
	
	
	
	
	
	
	
	
	
	
	
	
	
	
	
	
	
	
	
	
	
	
	
	
	
	
	
	
	
	
	
	
	
	
	
	
	
	
	
	
	
	
	
	
	
	
	
	
	
	
	
	
	
	
	
	
	
	
	
	
	
	
	
	
	
	
	
	
	
	
	
	
	
	
	
	
	
	
	
	
	
	
	
	
	
	
	
	
	<g
   id="g77"
   style="fill:#0000ff;fill-opacity:1">
		<g
   id="g76"
   style="fill:#0000ff;fill-opacity:1">
			<path
   class="st10"
   d="M213.2,225c7.9,0,15.8,0,23.6,0c0.5,0,0.6-0.5,0.4-0.9c-0.7-0.8-1.6-1.6-2.3-2.4c-0.4-0.3-0.9-0.6-1.3-0.9     c0.9,0.5,1.9,0.9,2.9,1.3c2.3,1.5,2.1,1.7-0.9,3.8c-1.3,0.9-2.8,1.6-4.2,2.3c-0.6,0.3-0.1,1.1,0.5,0.9c3.1-1.4,5.6-3.1,8-5.4     c0.2-0.2,0.2-0.6-0.1-0.8c-2.5-1.7-4.8-2.5-7.8-2.8c-0.5-0.1-0.7,0.7-0.3,0.9c2.6,1.4,5.7,2.7,1.2,3.1c-1.9,0.2-4,0-5.9,0     c-4.6,0-9.2,0-13.8,0C212.6,224,212.6,225,213.2,225L213.2,225z"
   id="path75"
   style="fill:#0000ff;fill-opacity:1" />
		</g>
	</g>
	<g
   id="g113"
   style="fill:#0000ff;fill-opacity:1">
		<g
   id="g112"
   style="fill:#0000ff;fill-opacity:1">
			<path
   class="st10"
   d="M214.2,297.5c7.9,0,15.9-0.1,23.8-0.1c0.6,0,0.7-0.9,0.1-1c-1.4-0.2-2.7-0.7-4-1.5     c-0.1,0.8,0.4,1.1,1.6,0.9c1.5,0,2,0.7,1.7,2.1c-1,0.3-2,0.6-3,0.8c-0.6,0.2-0.4,1.1,0.3,1c2.1-0.5,4-1.2,5.9-2.1     c0.3-0.2,0.3-0.7,0-0.9c-2.6-1.2-5.1-2.1-7.9-2.7c-0.6-0.1-0.8,0.6-0.4,0.9c0,0,3.9,2.4,4,2.1c0.2-1.2-5.6-0.6-6.4-0.6     c-5.3,0-10.6,0-15.9,0.1C213.6,296.5,213.6,297.5,214.2,297.5L214.2,297.5z"
   id="path112"
   style="fill:#0000ff;fill-opacity:1" />
		</g>
	</g>
	<g
   id="g115"
   style="fill:#0000ff;fill-opacity:1">
		<g
   id="g114"
   style="fill:#0000ff;fill-opacity:1">
			<path
   class="st10"
   d="M212.2,368.1c8.6-0.5,17.2-1.1,25.8-1.6c0.6,0,0.6-0.8,0.1-1c-1.2-0.5-7-5.2-4-1.7c0.8,0.9,2.6,1.2,3.3,2.1     c1,1.4-0.5,1.4-2.1,2.4c-1.3,0.9-2.6,1.9-3.8,3c-0.5,0.4,0.2,1.1,0.7,0.7c2.4-2.1,4.9-3.7,7.7-5.2c0.3-0.2,0.3-0.7,0-0.9     c-2.8-1.2-5.1-2.8-7.4-4.8c-0.5-0.4-1.1,0.2-0.7,0.7c1.2,1.5,2.7,2.3,3.9,3.6c1.4,1.5,0.5-0.2,0.3,0.1c-0.2,0.4-4.5,0.3-5,0.3     c-6.3,0.4-12.6,0.8-18.8,1.2C211.6,367.1,211.6,368.1,212.2,368.1L212.2,368.1z"
   id="path113"
   style="fill:#0000ff;fill-opacity:1" />
		</g>
	</g>
	
	
	
	
	
	
	
	
	
	
	
	
	
	
	
	
	
	
	
	
	
	
	
	
	
	
	
	
	
	
	
	
	
	
	
	
	
	
	
	
	
	
	
	
	
	
	
	
	
	
	
	
	
	
	
	
	
	
	
	
	
	
	
	
	
	
	
	
	
	
	<path
   id="path41_1_"
   d="M259,96.4l-49.3,46.4l1.1,1l6.1-10.9l-1.3-0.7l-4.8,11.9c-0.1,0.4,0.1,0.8,0.5,1c0.2,0.1,0.3,0.1,0.5,0   c3.3-1.8,6.7-3.5,10.3-4.8c0.8-0.3,0.1-1.7-0.7-1.4c-3.5,1.4-7,3-10.2,4.8l1,1l4.8-11.9c0.3-0.7-0.9-1.4-1.3-0.7l-6.1,10.9   c-0.4,0.7,0.5,1.6,1.1,1L260,97.5C260.7,96.9,259.6,95.7,259,96.4L259,96.4z" />
	
	
	
	
	
	
	
	
	
	
	
	
	
	
	
	
	
	
	
	
	
	
	
	
	
	
	
	
	
	
	
	
	
<path
   id="rect136-3_2_"
   class="st11"
   d="m 241,192.9 h 45.6 c 0.3,0 0.5,1.9 0.5,4.2 V 390 c 0,2.3 -0.2,4.2 -0.5,4.2 H 241 c -0.3,0 -0.5,-1.9 -0.5,-4.2 V 197.1 c 0,-2.3 0.2,-4.2 0.5,-4.2 z"
   style="fill:none;stroke:#000000;stroke-width:0.4;stroke-linecap:round;stroke-linejoin:round" /></g>
<metadata
   id="metadata117"><rdf:RDF><cc:Work
       rdf:about=""><dc:title>sel_hmm</dc:title></cc:Work></rdf:RDF></metadata></svg>
