<?xml version="1.0" encoding="UTF-8" standalone="no"?>
<!-- Generator: Adobe Illustrator 23.0.3, SVG Export Plug-In . SVG Version: 6.00 Build 0)  -->

<svg
   version="1.1"
   id="svg134"
   x="0px"
   y="0px"
   viewBox="0 0 700 414.9"
   style="enable-background:new 0 0 700 414.9;"
   xml:space="preserve"
   sodipodi:docname="sel_hmm_8.svg"
   inkscape:version="1.3.2 (091e20e, 2023-11-25)"
   xmlns:inkscape="http://www.inkscape.org/namespaces/inkscape"
   xmlns:sodipodi="http://sodipodi.sourceforge.net/DTD/sodipodi-0.dtd"
   xmlns="http://www.w3.org/2000/svg"
   xmlns:svg="http://www.w3.org/2000/svg"
   xmlns:rdf="http://www.w3.org/1999/02/22-rdf-syntax-ns#"
   xmlns:cc="http://creativecommons.org/ns#"
   xmlns:dc="http://purl.org/dc/elements/1.1/"><defs
   id="defs117" />
<style
   type="text/css"
   id="style1">
	.st0{opacity:0.3;fill:#1F77B4;enable-background:new    ;}
	.st1{opacity:0.3;fill:#FF7F0E;enable-background:new    ;}
	.st2{opacity:0.3;fill:#2CA02C;enable-background:new    ;}
	.st3{fill:none;stroke:#FF7F0E;stroke-width:0.6722;stroke-linejoin:round;stroke-dasharray:2.4872,1.0755;}
	.st4{stroke:#000000;stroke-width:1.5041;}
	.st5{stroke:#000000;stroke-width:1.1416;}
	.st6{fill:none;stroke:#000000;stroke-width:1.7808;stroke-linecap:round;stroke-linejoin:round;}
	.st7{fill:#8C0000;}
	.st8{fill:#870303;stroke:#000000;stroke-width:2;stroke-linecap:round;stroke-linejoin:round;}
	.st9{fill:none;stroke:#000000;stroke-width:0.5106;stroke-linecap:round;stroke-linejoin:round;}
	.st10{fill:#010B7F;}
	.st11{fill:none;stroke:#000000;stroke-width:0.4;stroke-linecap:round;stroke-linejoin:round;}
</style>
<sodipodi:namedview
   bordercolor="#000000"
   borderopacity="0.25"
   id="namedview134"
   inkscape:current-layer="Layer_1"
   inkscape:cx="364.17474"
   inkscape:cy="172.04117"
   inkscape:deskcolor="#d1d1d1"
   inkscape:pagecheckerboard="0"
   inkscape:pageopacity="0.0"
   inkscape:showpageshadow="2"
   inkscape:window-height="449"
   inkscape:window-maximized="0"
   inkscape:window-width="1312"
   inkscape:window-x="62"
   inkscape:window-y="25"
   inkscape:zoom="0.79632102"
   pagecolor="#ffffff">
	</sodipodi:namedview>
<title
   id="title1">sel_hmm</title>
<g
   id="Layer_1">
	
	
	
	
	
	
	
	
	
	
	
	
	
	
	
	
	
	
	
	
	
	
	
	
	
	
	
	
	
	
	
	
	
	
	
	
	
	
	
	
	
	
	
	
	
	
	
	
	
	
	
	
	
	
	
	
	
	
	
	
	
	
	
	
	
	
	
	
	
	
	
	
	
	
	
	
	
	
	
	
	
	
	
	
	
	
	
	
	
	
	
	
	
	
	
	
	
	
	
	
	
	
	
	
	
	
	
	
	
	
	
	
	
	
	
	
	
	
	
	
	
	
	
	
	
	
	
	
	
	
	
	
	
	
	
	
	
	
	
	
	
	
	
	
	
	
	
	
	
	
	
	
	
	
	
	
	
	
	
	
	
	
	
	
	
	
	
	
	
	
	
	
	
	
	
	
	
	
	
	
	
	
	
	
	
	
	
	
	
	
	
	
	
	
	
	
	
	
	
	
	
	
	
	
	
	
	
	
	
	
	
	
	
	
	
	
	
	
	
	
	
	
	
	
	
	
	
	
	
	
	
	
	
	
	
	
	
	
	
	
	
	<path
   id="path42"
   class="st10"
   d="M407.9,97.3l1,45.5l1.4-0.2c-2.5-2.4-4.7-4.8-6.8-7.3l-1.3,0.5l6.7,7.6c0.2,0.2,0.7,0.3,1,0.2   c0.1,0,0.2-0.1,0.3-0.2l5.8-6c0.5-0.5-0.8-1-1.3-0.5c-1.9,2-3.9,4-5.8,6h1.3l-6.7-7.6c-0.5-0.5-1.7-0.1-1.3,0.5   c2.1,2.5,4.4,5,6.8,7.3c0.2,0.2,0.7,0.3,1,0.1c0.2-0.1,0.3-0.2,0.4-0.4l-1-45.5c0-0.3-0.3-0.5-0.8-0.5S407.8,97.1,407.9,97.3   L407.9,97.3z"
   style="fill:#0000ff" />
	<path
   id="path88"
   d="M393.2,154.8v-0.6c0-0.3-0.2-0.5-0.5-0.5c-0.3,0-0.5,0.2-0.5,0.5l-0.7,16.4c0,0.7,1.1,0.7,1.1,0l0.7-16.4h-1.1   v0.6c0,0.3,0.2,0.5,0.5,0.5C392.9,155.3,393.2,155.1,393.2,154.8L393.2,154.8z" />
	<path
   id="path89"
   d="M392.8,155.2c4-0.4,6.4,1.8,6.3,5.8c-0.1,4.4-1.7,8.7-6.8,8.7c-0.3,0-0.5,0.2-0.5,0.5s0.2,0.5,0.5,0.5   c9.8,0,11.4-17.9,0.5-16.7C392.1,154.2,392.1,155.3,392.8,155.2z" />
	<path
   id="path90"
   d="M406.3,163.6c1.3-1.9,0.2-4.6-2.3-4.5c-3.1,0.2-3.4,4.1-3.3,6.4c0,1.4,0.6,5.7,2.8,4.5   c1.1-0.6,1.9-2.4,2.3-3.5c0.7-1.7,0.9-3.6,0.7-5.5c-0.1-0.7-1.1-0.7-1.1,0c0.1,2.5,0.4,5,1,7.5c0.2,0.7,1.2,0.4,1.1-0.3   c-0.5-2.4-0.9-4.8-1-7.2h-1.1c0.2,1.4,0.1,2.9-0.3,4.3c-0.2,0.7-0.5,1.3-0.8,1.9c-0.1,0.3-0.3,0.6-0.5,0.8c-0.9,0.8-1.4,0.8-1.6,0   c-0.7-0.7-0.5-2.9-0.4-3.8c0-1,0.1-1.9,0.6-2.8l0.9-1c2.4,0.2,3.1,1.1,2.1,2.6C405,163.6,405.9,164.2,406.3,163.6L406.3,163.6z" />
	<path
   id="path91"
   d="M410.3,155c-0.8,2.7-3.4,17.9,3.3,14.6c0.6-0.3,0.1-1.3-0.6-0.9c-3.2,1.6-2.9-6-2.8-7.1   c0.1-2.1,0.5-4.3,1.2-6.3c0.1-0.3-0.1-0.6-0.4-0.7C410.7,154.5,410.4,154.7,410.3,155L410.3,155L410.3,155z" />
	<path
   id="path92"
   d="M408,161.2l5.7-0.3c0.7,0,0.7-1.1,0-1.1l-5.7,0.3C407.2,160.1,407.2,161.2,408,161.2z" />
	<path
   id="path93"
   d="M421.3,162.7c0.9-2.2-2-3.2-3.7-2.6c-2.3,0.9-3.6,3.3-3.2,5.8c0.3,1.8,2,4.4,4.1,3.8c1-0.3,1.7-1.2,1.8-2.3   c0.3-1.9,0.3-3.9,0.4-5.8l-1.1,0.1l2,7.5c0.1,0.3,0.4,0.5,0.7,0.4c0.3-0.1,0.5-0.4,0.4-0.7l-2-7.5c-0.1-0.3-0.4-0.4-0.7-0.4   c-0.2,0.1-0.4,0.3-0.4,0.5l-0.3,3.9c-0.1,0.9,0,3.9-2.2,2.8c-0.6-0.4-1-0.9-1.3-1.5c-0.5-1.2-0.5-2.5,0-3.6   c0.2-0.5,0.5-0.9,0.9-1.2c0.3-0.3,0.6-0.5,0.9-0.7c1.2-0.7,2.1-0.3,2.6,1.2C419.9,163,421,163.3,421.3,162.7L421.3,162.7z" />
	<path
   id="path94"
   d="M385.7,172.5c-0.1,4.7,0.1,9.4,0.4,14.1c0.1,0.7,1.1,0.7,1.1,0c-0.3-4.7-0.4-9.4-0.4-14.1   c0-0.3-0.2-0.5-0.5-0.5S385.7,172.2,385.7,172.5z" />
	<path
   id="path95"
   d="M388.5,182.2c-0.1,1.9,0.3,5.7,3.2,5.2c2.1-0.4,2.9-3.6,3.1-5.3c0.2-2.1-0.8-4.3-3.1-4.5   c-2.3-0.2-3.7,2.1-3.4,4.2c0.1,0.7,1.2,0.4,1.1-0.3c-0.3-2,1.8-3.7,3.5-2.2c1,0.9,1,2.4,0.7,3.6c-0.2,0.9-0.5,1.7-0.9,2.5   c-0.3,0.7-0.8,0.8-1.5,0.3c-0.9,0.1-1.4-0.3-1.5-1.1c-0.1-0.8-0.2-1.5-0.1-2.3C389.6,181.6,388.5,181.6,388.5,182.2L388.5,182.2z" />
	<path
   id="path96"
   d="M399.8,179.1c-0.7-0.9-2.3-1.8-3.3-0.9c-0.4,0.5-0.6,1.2-0.6,1.9c-0.2,1.4-0.2,2.7-0.3,4.1   c0,1.4-0.3,3.2,1.4,3.5c1.7,0.3,3.1-1.1,3.8-2.5c0.3-0.6-0.6-1.2-0.9-0.5c-0.5,0.9-1.7,2.5-2.8,1.7c-0.7-0.5-0.4-2.1-0.3-2.9   c0-0.8,0.1-1.7,0.2-2.5c0-0.6-0.1-1.5,0.4-1.8c0.5-0.4,1.3,0.1,1.7,0.7C399.5,180.4,400.2,179.7,399.8,179.1L399.8,179.1z" />
	<path
   id="path97"
   d="M401.9,177.9c-0.2,2.3-0.6,5.1-0.3,7.4c0.1,1.1,1,2,2.1,2.1c4.1,0.2,4.1-5.9,4-8.5c0-0.7-1.1-0.7-1.1,0   l0.3,9.2c0,0.7,1.1,0.7,1.1,0l-0.3-9.2h-1.1c0.1,1.2,0.1,2.4,0,3.6c-0.1,0.6-0.2,1.3-0.5,1.8c-0.1,0.3-0.3,0.7-0.5,0.9   c-0.6,1.1-1.6,0.9-2.9-0.5c-0.3-0.7,0-2.2,0.1-3c0.1-1.3,0.1-2.5,0.2-3.7C403.1,177.1,402,177.1,401.9,177.9L401.9,177.9z" />
	<path
   id="path98"
   d="M412.8,178.2c-1.5-2.1-3.6,0.2-4.1,1.8c-0.4,1-0.1,2,0.7,2.7c0.5,0.4,1.1,0.8,1.7,1c0.3,0.1,0.6,0.3,0.9,0.5   c0.7,1.8,0.5,2.6-0.7,2.5c-0.5,0.1-1.1,0-1.6-0.1c-0.7-0.1-1,0.9-0.3,1c1.7,0.3,5.1,0.1,4.6-2.5c-0.2-1-1.1-1.7-2-2.1   c-0.6-0.3-1.2-0.6-1.7-0.9c-0.7-0.4-1-1.2-0.7-2c0,0,0,0,0,0c0.2-0.5,1.3-2.4,2-1.4C412.3,179.3,413.2,178.7,412.8,178.2   L412.8,178.2z" />
	<path
   id="path110"
   d="M422.2,180c-0.1-0.5-0.1-1.1-0.1-1.6c0.2-2.9,1.9-3.7,4.9-2.2c1.1,1.7-0.6,3.8-1.5,5.2   c-1.4,2.1-3.1,4.1-5,5.8c-0.2,0.2-0.2,0.6,0,0.8c0.1,0.1,0.1,0.1,0.2,0.1c2.8,0.5,5.8,0.3,8.5-0.4c0.3-0.1,0.4-0.4,0.3-0.7   c-0.1-0.2-0.4-0.4-0.6-0.3c-2.6,0.7-5.3,0.9-8,0.4l0.2,0.9c2.5-2.3,9.6-8.9,6.3-12.8c-1-1.1-2.6-1.4-3.9-0.8   c-2.4,1-2.8,3.4-2.5,5.7C421.2,180.7,422.3,180.8,422.2,180L422.2,180z" />
	
	
	
	
	
	
	
	
	
	
	
	
	
	
	
	
	
	
	
	<g
   transform="matrix(0.67220823,0,0,0.67220823,-870.81431,117.47878)"
   id="g116">
		<rect
   id="rect35213_1_"
   x="1881.4"
   y="122.8"
   class="st0"
   width="39.8"
   height="18" />
		<rect
   id="rect35215_1_"
   x="1881.4"
   y="147.9"
   class="st1"
   width="39.8"
   height="18" />
		<rect
   id="rect35217_1_"
   x="1881.4"
   y="172.9"
   class="st2"
   width="39.8"
   height="18" />
		<rect
   id="rect35219_1_"
   x="1881.4"
   y="232.5"
   class="st0"
   width="39.8"
   height="18" />
		<rect
   id="rect35221_1_"
   x="1881.4"
   y="257.5"
   class="st1"
   width="39.8"
   height="18" />
		<rect
   id="rect35223_1_"
   x="1881.4"
   y="282.5"
   class="st2"
   width="39.8"
   height="18" />
		<rect
   id="rect35225_1_"
   x="1881.4"
   y="334"
   class="st0"
   width="39.8"
   height="18" />
		<rect
   id="rect35227_1_"
   x="1881.4"
   y="359"
   class="st1"
   width="39.8"
   height="18" />
		<rect
   id="rect35229_1_"
   x="1881.4"
   y="384"
   class="st2"
   width="39.8"
   height="18" />
	</g>
	<path
   id="path35402_1_"
   d="M395.3,197.6c-1.3,0.1-2.6,0.1-3.9,0.2c-0.8,0.1-1.8,0-2.6,0.2c-1.5,0.5-1.3,2-1.2,3.3   c0.4,5.3,0.7,10.6,0.9,15.9c0.4,10.4,0.2,20.9-0.3,31.3c0,0.3,0.2,0.6,0.5,0.6c0,0,0.1,0,0.1,0c3.6-0.2,7.3-0.5,11-0.7   c0.7,0,0.5-1.1-0.2-1.1c-3.6,0.2-7.3,0.5-11,0.7c0.2,0.2,0.4,0.4,0.6,0.6c0.5-9.3,0.6-18.6,0.4-27.9c-0.1-4.3-0.3-8.7-0.6-13   c-0.1-1.2-0.1-2.3-0.2-3.5c-0.1-1.1-0.4-2.4-0.3-3.5c0.2-2.2,1.8-1.8,3.3-1.9c1.2-0.1,2.4-0.1,3.6-0.2   C396.2,198.7,396,197.6,395.3,197.6L395.3,197.6z" />
	<path
   id="path35404_1_"
   d="M418.5,198.2c2.1,0.2,4.2,0.4,6.4,0.5l-0.5-0.5c-1,9.1-1.3,18.3-0.9,27.5c0.2,4.4,0.5,8.8,1,13.2   l0.4,3.1c0.1,1.2,0.7,2.7-0.1,3.7c-0.7,1-2.4,0.9-3.7,1.1l-3.9,0.7c-0.3,0-0.5,0.3-0.4,0.6c0,0.3,0.3,0.5,0.6,0.4c0,0,0,0,0.1,0   c2.4-0.4,5.2-0.5,7.5-1.3c1.5-0.5,1.4-1.5,1.2-2.8c-0.6-5.2-1.2-10.5-1.5-15.7c-0.6-10.1-0.3-20.2,0.8-30.3c0-0.3-0.2-0.5-0.5-0.5   c-2.1-0.2-4.2-0.4-6.4-0.5c-0.3-0.1-0.5,0.1-0.6,0.4C418,197.9,418.2,198.1,418.5,198.2C418.5,198.2,418.5,198.2,418.5,198.2   L418.5,198.2z" />
	<path
   id="path35408_1_"
   d="M409.7,201.1c-2.4,2.6-4,5.9-4.7,9.4c-0.2,0.9,1.1,1.2,1.3,0.4c0.6-3.3,2.1-6.3,4.3-8.8   C411.3,201.4,410.3,200.5,409.7,201.1z" />
	<path
   id="path35410_1_"
   d="M412.5,204.8c0.1-0.8,0.4-2,1.2-2.3c0.6-0.2,0.6,0.4,0.6,0.9c0,0.5-0.1,1.1-0.3,1.6   c-0.5,1.6-1.5,2.8-2.6,4c-0.3,0.3-0.3,0.7,0,1c0.1,0.1,0.2,0.1,0.3,0.2c2.1,0.4,4.3,0.5,6.4,0.5c0.9,0,0.9-1.4,0-1.4   c-2,0.1-4.1-0.1-6.1-0.4l0.3,1.1c1.8-2,4.3-5.4,3.1-8.2c-0.4-1-1.4-1.1-2.3-0.6c-1.2,0.6-1.8,2-2,3.2   C411.1,205.3,412.4,205.7,412.5,204.8L412.5,204.8z" />
	<path
   id="path35412_1_"
   d="M401,220.5c0.2-0.3,0.5-0.5,0.8-0.7c1.6,0.3,2,0.8,1.4,1.5c-0.2,0.6-0.7,1.1-1.4,1.3l0.4,1.3   c1.1-0.5,2,0.9,1.1,1.9c-0.6,0.6-1.6,0.6-2.4,0.4c-0.7-0.2-2.8-0.7-2.8-1.7c0-0.9-1.4-0.9-1.4,0c0,1.5,1.3,2.1,2.5,2.6   c1.5,0.6,3.3,1,4.7,0c2.2-1.7,0.7-5.6-2.1-4.5c-0.4,0.1-0.6,0.5-0.5,0.9c0.1,0.3,0.5,0.5,0.8,0.5c1.7-0.4,3.3-2.9,2.4-4.5   c-1-1.9-3.4-1.2-4.5,0.2C399.4,220.2,400.4,221.2,401,220.5L401,220.5z" />
	<path
   id="path35414_1_"
   d="M409.8,218.3c-1.6,2.8-2.9,5.7-4,8.8c-0.1,0.4,0.1,0.7,0.5,0.8c0.1,0,0.1,0,0.2,0l0,0   c0.4,0,0.7-0.3,0.7-0.7c0-0.1,0-0.1,0-0.2v0c-0.3-0.8-1.6-0.5-1.3,0.4l0,0l0.7-0.9l0,0l0.7,0.9c1-2.9,2.3-5.8,3.8-8.4   c0.2-0.3,0.1-0.7-0.2-0.9C410.4,217.8,410,217.9,409.8,218.3L409.8,218.3z" />
	<path
   id="path35416_1_"
   d="M413.4,220.4c1.2-0.4,1.4-0.1,0.8,0.9c-0.4,0.3-0.9,0.5-1.4,0.4v1.4c1.2-0.1,3.9,0.7,2.8,2.5   c-0.4,0.7-4.4,1.2-4.5,0c-0.1-0.9-1.5-0.9-1.4,0c0.1,1.3,1,2,2.3,2c1.3,0.1,3.5,0.1,4.5-1c0.8-1,0.8-2.4,0.1-3.4   c-0.8-1.3-2.4-1.6-3.8-1.5c-0.4,0-0.7,0.3-0.7,0.7c0,0.4,0.3,0.7,0.7,0.7c1.8,0,3.8-1.5,2.8-3.5c-0.5-0.9-1.6-1.3-2.5-0.8   c-0.5,0.3-0.9,0.7-1,1.3C411.8,220.9,413.2,221.3,413.4,220.4L413.4,220.4z" />
	<path
   id="path35418_1_"
   d="M400.7,294.6c-0.1-0.8,0.2-1.8,1.3-1.8c1.3,0,1.4,1.6,0.8,2.4c-0.5,0.8-1.8,1.3-2.6,1.9   c-1.2,0.8-2.1,2-2,3.5c0,0.4,0.3,0.7,0.7,0.7l6.1-0.2c0.9,0,0.9-1.4,0-1.4l-6.1,0.2l0.7,0.7c-0.1-2.9,7.3-4.3,4.5-8   c-1.7-2.3-5.1-0.6-4.8,2.1C399.4,295.5,400.7,295.5,400.7,294.6L400.7,294.6z" />
	<path
   id="path35420_1_"
   d="M408.7,291.3c-0.8,3.2-1.8,6.3-2.9,9.4c-0.3,0.8,1,1.2,1.3,0.4c1.1-3.1,2.1-6.3,2.9-9.4   C410.2,290.9,408.9,290.5,408.7,291.3L408.7,291.3z" />
	<path
   id="path35422_1_"
   d="M412.4,293.9c0.5-0.6,0.4-0.8,1.2-0.4c0.6,0.1,0.8,0.3,0.4,0.8c-0.1,0.5-0.5,0.9-1,0.9   c-0.4,0.1-0.6,0.5-0.5,0.8c0.1,0.3,0.3,0.5,0.6,0.5c1.7,0.2,2.6,2.2,0.9,3.2c-1.2,0.7-2.8,0.4-3-1.2c-0.1-0.9-1.5-0.5-1.3,0.4   c0.5,3,4.1,3.2,6,1.3c2.2-2.2,0-4.7-2.5-5l0.2,1.3c1.6-0.5,2.7-2.2,2-3.8c-0.9-2-2.9-1-3.9,0.2   C410.9,293.6,411.9,294.6,412.4,293.9L412.4,293.9z" />
	<path
   id="path35424_1_"
   d="M398.3,238.4c-0.9,2.5-0.5,5.3,2.3,6.4c2.2,0.9,4.7-2.2,5.3-4.1c0.7-2.3-1-5.1-3.2-5.8   c-2.9-0.9-3.7,2.6-4.4,4.5c-0.3,0.8,1,1.2,1.3,0.4c0.2-0.6,0.4-1.2,0.6-1.8c0.4-1.1,0.5-1.6,1.7-1.6c2.1,0,3.4,2.6,2.4,4.4   c-0.6,1.1-2.1,3-3.6,2.5c-2-0.7-1.7-3.1-1.2-4.6C400,237.9,398.7,237.6,398.3,238.4L398.3,238.4z" />
	<path
   id="path35426_1_"
   d="M409.7,234.6l-2,8.9c-0.2,0.9,1.1,1.2,1.3,0.4l2-8.9C411.2,234.2,409.9,233.8,409.7,234.6z" />
	<path
   id="path35428_1_"
   d="M413.2,240.6c1-0.4,1.9-1.2,2.6-2.1c0.8-1.2,0.5-2.4,1.1-3.6l-1.3-0.3c0.1,1.6-0.1,3.3-0.3,4.9   c-0.2,1.4-0.1,3.6-1.9,3.4c-0.8-0.1-0.9,1.2-0.2,1.3c1.1,0.3,2.3,0.4,3.4,0.2c0.9-0.1,0.9-1.5,0-1.4c-1,0.1-2,0.1-3-0.2l-0.2,1.3   c2.3,0.2,2.4-0.2,2.8-2.4c0.5-2.4,0.8-4.8,0.7-7.3c0-0.6-1-1-1.3-0.3c-0.4,0.8-0.3,1.6-0.5,2.5c-0.3,1.3-1.4,2.2-2.6,2.7   C411.7,239.8,412.4,241,413.2,240.6L413.2,240.6z" />
	<path
   id="path35430_1_"
   d="M400,383.1c2-1.2,3.1-3.4,3-5.7c0-0.4-0.3-0.7-0.7-0.7s-0.7,0.3-0.7,0.7v6.9c0,1.1,0,1.5-1.2,1.5   c-0.9,0-0.9,1.3,0,1.4c0.9,0.1,1.8,0.2,2.7,0.3c0.9,0.2,1.2-1.2,0.4-1.3c-1-0.2-2-0.3-3-0.4v1.4c0.7,0.1,1.3,0,2-0.1   c0.2-0.1,0.4-0.3,0.5-0.5c0.3-1.3,0.1-2.8,0.1-4.1v-5.1h-1.4c0.1,1.8-0.8,3.6-2.3,4.5C398.5,382.3,399.2,383.5,400,383.1L400,383.1   z" />
	<path
   id="path35432_1_"
   d="M408.3,376.6c-0.7,3.3-1.2,6.8-2.5,9.9c-0.3,0.7,0.9,1.1,1.2,0.5l0.3-0.5c0.5-0.7-0.7-1.4-1.2-0.7   l-0.3,0.5l1.3,0.5c1.3-3.2,1.8-6.6,2.5-9.9C409.8,376.1,408.4,375.7,408.3,376.6L408.3,376.6z" />
	<path
   id="path35434_1_"
   d="M412.1,384c2-1.6,3.2-4.1,3.1-6.6c0-0.9-1.3-0.9-1.4,0l-0.3,5.2c0,0.7,0,1.5-0.1,2.2   c-0.2,1.2-0.2,1.2-1.4,1.2v1.4h3.5c0.4,0,0.7-0.3,0.7-0.7c0-0.4-0.3-0.7-0.7-0.7H412c-0.4,0-0.7,0.3-0.7,0.7c0,0.4,0.3,0.7,0.7,0.7   c1.5,0,2.5,0.2,2.7-1.5c0.3-2.8,0.3-5.7,0.5-8.5h-1.4c0,2.2-1,4.3-2.7,5.7C410.4,383.6,411.4,384.5,412.1,384L412.1,384z" />
	<path
   id="path35436_1_"
   d="M395.3,271.3c-1.3,0.1-2.6,0.1-3.9,0.2c-0.8,0.1-1.8,0-2.6,0.2c-1.5,0.5-1.3,2-1.2,3.3   c0.4,5.3,0.7,10.6,0.9,15.9c0.4,10.4,0.2,20.9-0.3,31.3c0,0.3,0.2,0.6,0.5,0.6c0,0,0.1,0,0.1,0c3.6-0.2,7.3-0.5,11-0.7   c0.7,0,0.5-1.1-0.2-1.1c-3.6,0.2-7.3,0.5-11,0.7c0.2,0.2,0.4,0.4,0.6,0.6c0.5-9.3,0.6-18.6,0.4-27.9c-0.1-4.3-0.3-8.7-0.6-13   c-0.1-1.2-0.1-2.3-0.2-3.5c-0.1-1.1-0.4-2.4-0.3-3.5c0.2-2.2,1.8-1.8,3.3-1.9c1.2-0.1,2.4-0.1,3.6-0.2   C396.2,272.4,396,271.3,395.3,271.3L395.3,271.3z" />
	<path
   id="path35438_1_"
   d="M418.5,271.9c2.1,0.2,4.2,0.4,6.4,0.5l-0.5-0.5c-1,9.1-1.3,18.3-0.9,27.5c0.2,4.4,0.5,8.8,1,13.2   l0.4,3.1c0.1,1.2,0.7,2.7-0.1,3.7c-0.7,1-2.4,0.9-3.7,1.1l-3.9,0.7c-0.3,0-0.5,0.3-0.4,0.6s0.3,0.5,0.6,0.4c0,0,0,0,0.1,0   c2.4-0.4,5.2-0.5,7.5-1.3c1.5-0.5,1.4-1.5,1.2-2.8c-0.6-5.2-1.2-10.5-1.5-15.7c-0.6-10.1-0.3-20.2,0.8-30.3c0-0.3-0.2-0.5-0.5-0.5   c-2.1-0.2-4.2-0.4-6.4-0.5c-0.3-0.1-0.5,0.1-0.6,0.4C418,271.5,418.2,271.8,418.5,271.9C418.5,271.9,418.5,271.9,418.5,271.9   L418.5,271.9z" />
	<path
   id="path35440_1_"
   d="M396.5,279.3c-1.3,1.7-0.5,4.1,1.5,4.9c2.6,1.1,5.8-1.2,6.8-3.6c1.1-2.4-0.7-4.5-3.1-4.9   c-2.5-0.4-4.9,0.9-6,3.2c-0.4,0.8,0.8,1.5,1.2,0.7c0.5-1.2,1.5-2.1,2.8-2.5c1.4-0.4,3.9-0.1,4.1,1.8c0.1,1.7-1.9,3.5-3.4,4   c-0.9,0.3-1.9,0.3-2.6-0.5c-0.6-0.6-0.9-1.5-0.3-2.2C398.1,279.6,397.1,278.6,396.5,279.3L396.5,279.3z" />
	<path
   id="path35442_1_"
   d="M409.7,274.8c-2.4,2.6-4,5.9-4.7,9.4c-0.2,0.9,1.1,1.2,1.3,0.4c0.6-3.3,2.1-6.3,4.3-8.8   C411.3,275.1,410.3,274.2,409.7,274.8z" />
	<path
   id="path35444_1_"
   d="M412.5,278.5c0.1-0.8,0.4-2,1.2-2.3c0.6-0.2,0.6,0.4,0.6,0.9c0,0.5-0.1,1.1-0.3,1.6   c-0.5,1.6-1.5,2.8-2.6,4c-0.3,0.3-0.3,0.7,0,1c0.1,0.1,0.2,0.1,0.3,0.2c2.1,0.4,4.3,0.5,6.4,0.5c0.9,0,0.9-1.4,0-1.4   c-2,0.1-4.1-0.1-6.1-0.4l0.3,1.1c1.8-2,4.3-5.4,3.1-8.2c-0.4-1-1.4-1.1-2.3-0.6c-1.2,0.6-1.8,2-2,3.2   C411.1,279,412.4,279.4,412.5,278.5L412.5,278.5z" />
	<path
   id="path35446_1_"
   d="M395.3,339.6c-1.3,0.1-2.6,0.1-3.9,0.2c-0.8,0.1-1.8,0-2.6,0.2c-1.5,0.5-1.3,2-1.2,3.3   c0.4,5.3,0.7,10.6,0.9,15.9c0.4,10.4,0.2,20.9-0.3,31.3c0,0.3,0.2,0.6,0.5,0.6c0,0,0.1,0,0.1,0c3.6-0.2,7.3-0.5,11-0.7   c0.7,0,0.5-1.1-0.2-1.1c-3.6,0.2-7.3,0.5-11,0.7c0.2,0.2,0.4,0.4,0.6,0.6c0.5-9.3,0.6-18.6,0.4-27.9c-0.1-4.3-0.3-8.7-0.6-13   c-0.1-1.2-0.1-2.3-0.2-3.5c-0.1-1.1-0.4-2.4-0.3-3.5c0.2-2.2,1.8-1.8,3.3-1.9c1.2-0.1,2.4-0.1,3.6-0.2   C396.2,340.6,396,339.5,395.3,339.6L395.3,339.6z" />
	<path
   id="path35448_1_"
   d="M418.5,340.1c2.1,0.2,4.2,0.4,6.4,0.5l-0.5-0.5c-1,9.1-1.3,18.3-0.9,27.5c0.2,4.4,0.5,8.8,1,13.2   l0.4,3.1c0.1,1.2,0.7,2.7-0.1,3.7c-0.7,1-2.4,0.9-3.7,1.1l-3.9,0.7c-0.3,0-0.5,0.3-0.4,0.6c0,0.3,0.3,0.5,0.6,0.4c0,0,0,0,0.1,0   c2.4-0.4,5.2-0.5,7.5-1.3c1.5-0.5,1.4-1.5,1.2-2.8c-0.6-5.2-1.2-10.5-1.5-15.7c-0.6-10.1-0.3-20.2,0.8-30.3c0-0.3-0.2-0.5-0.5-0.5   c-2.1-0.2-4.2-0.4-6.4-0.5c-0.3-0.1-0.5,0.1-0.6,0.4C418,339.8,418.2,340,418.5,340.1C418.5,340.1,418.5,340.1,418.5,340.1   L418.5,340.1z" />
	<path
   id="path35450_1_"
   d="M396.5,364.6c-1.3,1.7-0.5,4.1,1.5,4.9c2.6,1.1,5.8-1.2,6.8-3.6c1.1-2.4-0.7-4.5-3.1-4.9   c-2.5-0.4-4.9,0.9-6,3.2c-0.4,0.8,0.8,1.5,1.2,0.7c0.5-1.2,1.5-2.1,2.8-2.5c1.4-0.4,3.9-0.1,4.1,1.8c0.1,1.7-1.9,3.5-3.4,4   c-0.9,0.3-1.9,0.3-2.6-0.5c-0.6-0.6-0.9-1.5-0.3-2.2C398.1,364.8,397.1,363.9,396.5,364.6L396.5,364.6z" />
	<path
   id="path35452_1_"
   d="M409.7,343.1c-2.4,2.6-4,5.9-4.7,9.4c-0.2,0.9,1.1,1.2,1.3,0.4c0.6-3.3,2.1-6.3,4.3-8.8   C411.3,343.4,410.3,342.4,409.7,343.1L409.7,343.1z" />
	<path
   id="path35454_1_"
   d="M412.5,346.8c0.1-0.8,0.4-2,1.2-2.3c0.6-0.2,0.6,0.4,0.6,0.9c0,0.5-0.1,1.1-0.3,1.6   c-0.5,1.6-1.5,2.8-2.6,4c-0.3,0.3-0.3,0.7,0,1c0.1,0.1,0.2,0.1,0.3,0.2c2.1,0.4,4.3,0.5,6.4,0.5c0.9,0,0.9-1.4,0-1.4   c-2,0.1-4.1-0.1-6.1-0.4l0.3,1.1c1.8-2,4.3-5.4,3.1-8.2c-0.4-1-1.4-1.1-2.3-0.6c-1.2,0.6-1.8,2-2,3.2   C411.1,347.3,412.4,347.6,412.5,346.8L412.5,346.8z" />
	<path
   id="path35456_1_"
   d="M399.6,348.9c1.9-1.2,3.1-3.2,3.3-5.4c0.1-0.9-1.3-0.9-1.4,0c-0.4,2.9-0.6,5.7-0.8,8.6l0.7-0.7   c-0.6,0-1.2,0.2-1.8,0.5c-0.3,0.2-0.4,0.6-0.2,1c0.1,0.2,0.3,0.3,0.6,0.3l2.8,0c0.9,0,0.9-1.4,0-1.4l-2.8,0l0.3,1.3l1.1-0.3   c0.4,0,0.7-0.3,0.7-0.7c0.2-2.9,0.4-5.7,0.8-8.6h-1.4c-0.2,1.7-1.1,3.3-2.6,4.2C398.2,348.2,398.9,349.4,399.6,348.9L399.6,348.9z" />
	<path
   id="path35458_1_"
   d="M408.2,359.8c-0.7,3.4-1.8,6.7-3,10c-0.3,0.8,1,1.2,1.3,0.4c1.3-3.2,2.3-6.6,3-10   C409.7,359.3,408.4,359,408.2,359.8z" />
	<path
   id="path35460_1_"
   d="M412.9,362.1c1.4-0.6,1.8-0.3,1.2,1c-0.3,0.5-0.8,0.9-1.4,1c-0.5,0.2-0.7,1.2,0,1.3c1.1,0.2,2.4,1,2,2.4   c-0.7,2.2-3.1,0.7-3.6-0.6c-0.3-0.8-1.6-0.5-1.3,0.4c0.9,2.2,3.7,3.8,5.6,1.7c1.9-2.1,0-4.8-2.3-5.2v1.3c1.8-0.7,3.6-2.8,2.1-4.7   c-1.2-1.5-3.8-0.6-3.6,1.4C411.6,363,413,363,412.9,362.1L412.9,362.1z" />
	<path
   id="path35464_1_"
   d="M409.7,308.3l-2,8.9c-0.2,0.9,1.1,1.2,1.3,0.4l2-8.9C411.2,307.8,409.9,307.5,409.7,308.3L409.7,308.3z" />
	<path
   id="path35466_1_"
   d="M413.2,314.3c1-0.4,1.9-1.2,2.6-2.1c0.8-1.2,0.5-2.4,1.1-3.6l-1.3-0.3c0.1,1.6-0.1,3.3-0.3,4.9   c-0.2,1.4-0.1,3.6-1.9,3.4c-0.8-0.1-0.9,1.2-0.2,1.3c1.1,0.3,2.3,0.4,3.4,0.2c0.9-0.1,0.9-1.5,0-1.4c-1,0.1-2,0.1-3-0.2l-0.2,1.3   c2.3,0.2,2.4-0.2,2.8-2.4c0.5-2.4,0.8-4.8,0.7-7.3c0-0.6-1-1-1.3-0.3c-0.4,0.8-0.3,1.6-0.5,2.5c-0.3,1.3-1.4,2.2-2.6,2.7   C411.7,313.5,412.4,314.7,413.2,314.3L413.2,314.3z" />
	
	
	
	
	
	
	
	
	
	
	
	
	
	
	
	
	
	
	
	
	
	
	
	
	
	
	
	
	
	<path
   id="path35428_3_"
   d="M399.2,207.6c1-0.4,1.9-1.2,2.6-2.1c0.8-1.2,0.5-2.4,1.1-3.6l-1.3-0.3c0.1,1.6-0.1,3.3-0.3,4.9   c-0.2,1.4-0.1,3.6-1.9,3.4c-0.8-0.1-0.9,1.2-0.2,1.3c1.1,0.3,2.3,0.4,3.4,0.2c0.9-0.1,0.9-1.5,0-1.4c-1,0.1-2,0.1-3-0.2l-0.2,1.3   c2.3,0.2,2.4-0.2,2.8-2.4c0.5-2.4,0.8-4.8,0.7-7.3c0-0.6-1-1-1.3-0.3c-0.4,0.8-0.3,1.6-0.5,2.5c-0.3,1.3-1.4,2.2-2.6,2.7   C397.7,206.8,398.4,208,399.2,207.6L399.2,207.6z" />
	<path
   id="path35466_3_"
   d="M401.2,314.3c1-0.4,1.9-1.2,2.6-2.1c0.8-1.2,0.5-2.4,1.1-3.6l-1.3-0.3c0.1,1.6-0.1,3.3-0.3,4.9   c-0.2,1.4-0.1,3.6-1.9,3.4c-0.8-0.1-0.9,1.2-0.2,1.3c1.1,0.3,2.3,0.4,3.4,0.2c0.9-0.1,0.9-1.5,0-1.4c-1,0.1-2,0.1-3-0.2l-0.2,1.3   c2.3,0.2,2.4-0.2,2.8-2.4c0.5-2.4,0.8-4.8,0.7-7.3c0-0.6-1-1-1.3-0.3c-0.4,0.8-0.3,1.6-0.5,2.5c-0.3,1.3-1.4,2.2-2.6,2.7   C399.7,313.5,400.4,314.7,401.2,314.3L401.2,314.3z" />
	
	
	
	
	
	
	
	
	
	
	
	
	
	
	
	
	
	
	
	
	
	
	
	
	
	
	
	
	
	
	
	
	
	
	
	
	
	
	
	
	
</g>
<metadata
   id="metadata117"><rdf:RDF><cc:Work
       rdf:about=""><dc:title>sel_hmm</dc:title></cc:Work></rdf:RDF></metadata></svg>
