<?xml version="1.0" encoding="UTF-8" standalone="no"?>
<!-- Generator: Adobe Illustrator 23.0.3, SVG Export Plug-In . SVG Version: 6.00 Build 0)  -->

<svg
   version="1.1"
   id="svg134"
   x="0px"
   y="0px"
   viewBox="0 0 700 414.9"
   style="enable-background:new 0 0 700 414.9;"
   xml:space="preserve"
   sodipodi:docname="sel_hmm_2.svg"
   inkscape:version="1.3.2 (091e20e, 2023-11-25)"
   xmlns:inkscape="http://www.inkscape.org/namespaces/inkscape"
   xmlns:sodipodi="http://sodipodi.sourceforge.net/DTD/sodipodi-0.dtd"
   xmlns="http://www.w3.org/2000/svg"
   xmlns:svg="http://www.w3.org/2000/svg"
   xmlns:rdf="http://www.w3.org/1999/02/22-rdf-syntax-ns#"
   xmlns:cc="http://creativecommons.org/ns#"
   xmlns:dc="http://purl.org/dc/elements/1.1/"><defs
   id="defs117" />
<style
   type="text/css"
   id="style1">
	.st0{opacity:0.3;fill:#1F77B4;enable-background:new    ;}
	.st1{opacity:0.3;fill:#FF7F0E;enable-background:new    ;}
	.st2{opacity:0.3;fill:#2CA02C;enable-background:new    ;}
	.st3{fill:none;stroke:#FF7F0E;stroke-width:0.6722;stroke-linejoin:round;stroke-dasharray:2.4872,1.0755;}
	.st4{stroke:#000000;stroke-width:1.5041;}
	.st5{stroke:#000000;stroke-width:1.1416;}
	.st6{fill:none;stroke:#000000;stroke-width:1.7808;stroke-linecap:round;stroke-linejoin:round;}
	.st7{fill:#8C0000;}
	.st8{fill:#870303;stroke:#000000;stroke-width:2;stroke-linecap:round;stroke-linejoin:round;}
	.st9{fill:none;stroke:#000000;stroke-width:0.5106;stroke-linecap:round;stroke-linejoin:round;}
	.st10{fill:#010B7F;}
	.st11{fill:none;stroke:#000000;stroke-width:0.4;stroke-linecap:round;stroke-linejoin:round;}
</style>
<sodipodi:namedview
   bordercolor="#000000"
   borderopacity="0.25"
   id="namedview134"
   inkscape:current-layer="Layer_1"
   inkscape:cx="335.29191"
   inkscape:cy="229.80682"
   inkscape:deskcolor="#d1d1d1"
   inkscape:pagecheckerboard="0"
   inkscape:pageopacity="0.0"
   inkscape:showpageshadow="2"
   inkscape:window-height="847"
   inkscape:window-maximized="1"
   inkscape:window-width="1384"
   inkscape:window-x="62"
   inkscape:window-y="25"
   inkscape:zoom="0.79632102"
   pagecolor="#ffffff">
	</sodipodi:namedview>
<title
   id="title1">sel_hmm</title>
<g
   id="Layer_1">
	
	
	
	
	
	
	
	
	
	
	
	
	
	
	
	
	
	
	
	
	
	
	
	
	
	
	
	
	
	
	
	
	
	
	
	
	
	
	
	
	
	
	
	
	
	
	
	
	
	
	
	
	
	
	
	
	
	
	
	
	
	
	
	
	
	
	
	
	
	
	
	
	
	
	
	
	
	
	
	
	
	
	
	
	
	
	
	
	
	
	
	
	
	
	
	
	
	
	
	
	
	
	
	
	
	
	
	
	
	
	
	
	
	
	
	
	
	
	
	
	
	
	
	
	
	
	
	
	
	
	
	
	
	
	
	
	
	
	
	
	
	
	
	
	
	
	
	
	
	
	
	
	
	
	
	
	
	
	
	
	
	
	
	
	
	
	
	
	
	
	
	
	
	
	
	
	
	
	
	
	
	
	
	
	
	
	
	
	
	<path
   id="path14"
   d="M179.5,15c0.2-2.6-2.7-3.5-4.6-2.1s-3.2,4.9-1,6.7c1.7,1.4,4.4,0.6,5.7-1c2.5-3,1.9-8.6,2.3-12.2h-1.5   l-0.6,13.4c0,1,1.4,1,1.5,0l0.6-13.4c0-1-1.4-0.9-1.5,0c-0.2,2.4-0.4,4.8-0.6,7.2c-0.2,1.7-0.5,3.8-2.1,4.7c-1.6,1-2.8,0.2-3.2-2.3   c0.5-2,1.7-2.4,3.6-1.1C177.9,16,179.4,16,179.5,15L179.5,15z" />
	<path
   id="path15"
   d="M184.5,18.9c1.4-1.2,2.2-2.9,2.5-4.7l-1.5-0.2c-0.2,2.5,0.3,5.1,1.3,7.4l0.3-1c-0.7,0.6-1.7,0.8-2.5,0.5v1.5   c0.8-0.3,1.7-0.3,2.4,0.1c0.9,0.4,1.6-0.9,0.8-1.3c-1.1-0.6-2.4-0.6-3.6-0.2c-0.4,0.1-0.6,0.6-0.5,1c0.1,0.2,0.3,0.4,0.5,0.5   c1.3,0.4,2.6,0.2,3.7-0.7c0.3-0.2,0.4-0.6,0.3-1c-0.9-2.1-1.3-4.4-1.1-6.6c0.1-0.8-1.4-1-1.5-0.2c-0.2,1.5-1,3-2.1,4   C182.7,18.5,183.8,19.5,184.5,18.9L184.5,18.9z" />
	<path
   id="path16"
   d="M332.2,15.8c0.2-2.6-2.7-3.5-4.6-2.1s-3.2,4.9-1,6.7c1.7,1.4,4.4,0.6,5.7-1c2.5-3,2-8.6,2.3-12.2h-1.5   l-0.6,13.4c0,1,1.5,1,1.5,0l0.6-13.4c0-1-1.4-0.9-1.5,0c-0.2,2.4-0.4,4.8-0.6,7.2c-0.2,1.7-0.5,3.8-2.1,4.7c-1.6,1-2.8,0.2-3.2-2.3   c0.5-2,1.7-2.4,3.6-1.1C330.6,16.8,332.1,16.8,332.2,15.8L332.2,15.8z" />
	<path
   id="path17"
   d="M338.4,16.2c0.3-1.5,2.3-1.1,1.9,0.3c-0.3,0.6-0.7,1.1-1.2,1.4c-0.9,0.7-1.6,1.6-1.9,2.7   c-0.1,0.4,0.1,0.8,0.5,0.9c0.1,0,0.1,0,0.2,0c1.7,0.2,3.4,0,5-0.5c0.4-0.1,0.6-0.5,0.5-0.9c-0.1-0.4-0.5-0.6-0.9-0.5   c-1.5,0.4-3.1,0.6-4.6,0.4l0.7,1c0.4-2.2,3.9-2.9,3.2-5.5c-0.4-1.3-1.7-2.1-3-1.7c-0.9,0.3-1.6,1-1.8,2   C336.8,16.8,338.2,17.2,338.4,16.2L338.4,16.2z" />
	<path
   id="path18"
   d="M587.8,13.7l0.1,6.3c0,0.4,0.3,0.7,0.8,0.8h3.7c0.3,0,0.6-0.2,0.7-0.5c0.2-0.7-0.2-1.4-0.9-1.6   c-0.2-0.1-0.5-0.1-0.7,0c-1,0.2-0.5,1.6,0.4,1.5l-0.3-0.2l0.7-0.5h-3.7l0.8,0.8l-0.1-6.3c0-0.4-0.3-0.8-0.8-0.8   S587.8,13.3,587.8,13.7L587.8,13.7z" />
	<path
   id="path19"
   d="M584.4,15.6c0.2-2.6-2.7-3.5-4.6-2.1c-1.9,1.4-3.2,4.9-1,6.7c1.7,1.4,4.4,0.6,5.7-1c2.5-3,1.9-8.6,2.3-12.2   h-1.5l-0.6,13.4c0,1,1.5,1,1.5,0L586.8,7c0-1-1.4-0.9-1.5,0c-0.2,2.4-0.3,4.8-0.6,7.2c-0.2,1.7-0.5,3.8-2.1,4.7s-2.8,0.2-3.2-2.3   c0.5-2,1.7-2.4,3.6-1.1C582.8,16.6,584.3,16.6,584.4,15.6L584.4,15.6z" />
	<path
   id="path20"
   class="st7"
   d="M265.2,16.1l-5,4.1c-0.4,0.4-0.4,1.2,0,1.6c0.2,0.2,0.5,0.3,0.8,0.3l6.5-0.4l-1-1.7   c-1.4,1.9-3,3.5-4.8,5c-1.1,0.9,0.5,2.5,1.6,1.6c1.9-1.6,3.7-3.4,5.1-5.4c0.3-0.5,0.1-1.2-0.4-1.5c-0.2-0.1-0.4-0.2-0.6-0.1L261,20   l0.8,1.9l5-4.1C267.9,16.8,266.3,15.2,265.2,16.1L265.2,16.1z" />
	<path
   id="path21"
   class="st7"
   d="M407.4,15.2l-5.8,4.4c-0.5,0.3-0.7,1-0.4,1.6c0.2,0.3,0.6,0.5,0.9,0.5l6.2,0.5l-0.8-1.9   c-1.7,1.5-3.4,3.1-5.1,4.5c-1.1,0.9,0.5,2.5,1.6,1.6c1.7-1.5,3.4-3,5.1-4.5c0.4-0.5,0.4-1.2,0-1.6c-0.2-0.2-0.5-0.3-0.8-0.3   l-6.2-0.5l0.6,2.1l5.8-4.5C409.6,16.2,408.5,14.3,407.4,15.2L407.4,15.2z" />
	<path
   id="path22"
   class="st7"
   d="M639.2,27.3c2.5-1.4,5-2.9,7.4-4.5c0.5-0.3,0.7-1,0.4-1.6c-0.1-0.2-0.4-0.4-0.6-0.5l-5.7-1.5   l0.3,2l4.9-3.1c1.2-0.8,0.1-2.7-1.1-2l-4.9,3.1c-0.5,0.3-0.7,1-0.4,1.6c0.1,0.2,0.4,0.4,0.6,0.5l5.7,1.5l-0.3-2   c-2.4,1.6-4.8,3.1-7.4,4.5c-0.5,0.4-0.6,1.1-0.3,1.6C638.2,27.4,638.7,27.6,639.2,27.3z" />
	<path
   id="path22-8"
   class="st7"
   d="M529.2,27.3c2.5-1.4,5-2.9,7.4-4.5c0.5-0.3,0.7-1,0.4-1.6c-0.1-0.2-0.4-0.4-0.6-0.5l-5.7-1.5   l0.3,2l4.9-3.1c1.2-0.8,0.1-2.7-1.1-2l-4.9,3.1c-0.5,0.3-0.7,1-0.4,1.6c0.1,0.2,0.4,0.4,0.6,0.5l5.7,1.5l-0.3-2   c-2.4,1.6-4.8,3.1-7.4,4.5c-0.5,0.4-0.6,1.1-0.3,1.6C528.2,27.4,528.7,27.6,529.2,27.3z" />
	
	
	
	
	
	
	
	
	
	
	
	
	
	
	
	
	
	
	
	
	
	
	
	
	
	
	
	
	
	
	
	
	
	
	
	
	
	
	
	
	
	
	
	
	
	
	
	
	
	
	
	
	
	
	
	
	
	
	
	
	
	
	
	
	
	
	
	
	
	
	
	
	
	
	
	
	
	
	
	
	
	
	
	
	
	
	
	
	
	
	
	
	
	
	
	
	
	
	
	
	
	
	
	
	
	
	
	
	
	
	
	
	
	
	
	
	
	
	
	
	
	
	
	
	
	
	
	
	
	
	
	
	
	
	
	
	
	
	
	
	
	
	
	
	
	
	
	
	
	
	
	
	
	
	
	
	
	
	
	
	
	
	
	
	
	
	
	
	
	
	
	
	
	
	
	
	
	
</g>
<metadata
   id="metadata117"><rdf:RDF><cc:Work
       rdf:about=""><dc:title>sel_hmm</dc:title></cc:Work></rdf:RDF></metadata></svg>
