<?xml version="1.0" encoding="UTF-8" standalone="no"?>
<svg
   viewBox="0 0 699.99999 350"
   version="1.1"
   id="svg134"
   sodipodi:docname="sel_hmm_HiddenDif_words.svg"
   inkscape:version="1.3.2 (091e20e, 2023-11-25)"
   width="700"
   height="350"
   xmlns:inkscape="http://www.inkscape.org/namespaces/inkscape"
   xmlns:sodipodi="http://sodipodi.sourceforge.net/DTD/sodipodi-0.dtd"
   xmlns="http://www.w3.org/2000/svg"
   xmlns:svg="http://www.w3.org/2000/svg"
   xmlns:rdf="http://www.w3.org/1999/02/22-rdf-syntax-ns#"
   xmlns:cc="http://creativecommons.org/ns#"
   xmlns:dc="http://purl.org/dc/elements/1.1/">
  <sodipodi:namedview
     id="namedview134"
     pagecolor="#ffffff"
     bordercolor="#000000"
     borderopacity="0.25"
     inkscape:showpageshadow="2"
     inkscape:pageopacity="0.0"
     inkscape:pagecheckerboard="0"
     inkscape:deskcolor="#d1d1d1"
     inkscape:zoom="2.0251504"
     inkscape:cx="598.96785"
     inkscape:cy="268.62202"
     inkscape:window-width="1384"
     inkscape:window-height="847"
     inkscape:window-x="60"
     inkscape:window-y="25"
     inkscape:window-maximized="1"
     inkscape:current-layer="Layer_1" />
  <defs
     id="defs1">
    <marker
       style="overflow:visible"
       id="ArrowWide"
       refX="0"
       refY="0"
       orient="auto-start-reverse"
       inkscape:stockid="Wide arrow"
       markerWidth="2"
       markerHeight="2"
       viewBox="0 0 1 1"
       inkscape:isstock="true"
       inkscape:collect="always"
       preserveAspectRatio="xMidYMid">
      <path
         style="fill:none;stroke:context-stroke;stroke-width:1;stroke-linecap:butt"
         d="M 3,-3 0,0 3,3"
         transform="rotate(180,0.125,0)"
         sodipodi:nodetypes="ccc"
         id="path142" />
    </marker>
    <marker
       style="overflow:visible"
       id="marker141"
       refX="0"
       refY="0"
       orient="auto-start-reverse"
       inkscape:stockid="Wide arrow"
       markerWidth="2"
       markerHeight="2"
       viewBox="0 0 1 1"
       inkscape:isstock="true"
       inkscape:collect="always"
       preserveAspectRatio="xMidYMid">
      <path
         style="fill:none;stroke:context-stroke;stroke-width:1;stroke-linecap:butt"
         d="M 3,-3 0,0 3,3"
         transform="rotate(180,0.125,0)"
         sodipodi:nodetypes="ccc"
         id="path141" />
    </marker>
    <marker
       style="overflow:visible"
       id="marker140"
       refX="0"
       refY="0"
       orient="auto-start-reverse"
       inkscape:stockid="Wide arrow"
       markerWidth="2"
       markerHeight="2"
       viewBox="0 0 1 1"
       inkscape:isstock="true"
       inkscape:collect="always"
       preserveAspectRatio="xMidYMid">
      <path
         style="fill:none;stroke:context-stroke;stroke-width:1;stroke-linecap:butt"
         d="M 3,-3 0,0 3,3"
         transform="rotate(180,0.125,0)"
         sodipodi:nodetypes="ccc"
         id="path140" />
    </marker>
    <style
       id="style1">.cls-1{fill:#8c0000;}</style>
  </defs>
  <title
     id="title1">sel_hmm</title>
  <g
     id="Layer_1"
     data-name="Layer 1">
    <path
       d="m 380.15379,276.35908 0.51631,22.38121 a 0.84927204,0.84927204 0 0 0 1.68364,0.2245 l 0.39288,-1.3862 a 0.84182085,0.84182085 0 0 0 -1.62192,-0.44337 l -0.39287,1.38059 1.64999,0.22451 -0.51631,-22.3812 c 0,-1.08315 -1.68364,-1.08315 -1.68364,0 z"
       id="path35804-4"
       style="fill:#1a1a1a;stroke-width:0.561214" />
    <path
       d="m 381.61294,277.21216 c 5.2698,-3.31679 7.03202,8.56973 7.34628,11.44873 0.62295,5.70756 -0.67343,10.03452 -7.11057,10.47226 -1.07191,0.0728 -1.08313,1.75659 0,1.68364 3.16526,-0.21875 6.02743,-0.94284 7.74474,-3.83869 1.82396,-3.06985 1.28523,-6.85805 0.80818,-10.21409 -0.56123,-3.99585 -3.33925,-14.9676 -9.63605,-11.00543 -0.91478,0.56123 -0.073,2.03162 0.84742,1.45358 z"
       id="path35806-4"
       style="fill:#1a1a1a;stroke-width:0.561214" />
    <path
       d="m 392.80356,287.93132 c -0.0898,3.979 0,7.94118 0.27504,11.90896 0.0786,1.07192 1.76223,1.08314 1.68364,0 -0.27505,-3.96778 -0.36478,-7.92996 -0.27505,-11.90896 0.0272,-1.08315 -1.65558,-1.08315 -1.68363,0 z"
       id="path35808-7"
       style="fill:#1a1a1a;stroke-width:0.561214" />
    <path
       d="m 393.76884,282.81303 h 0.14038 a 0.84182085,0.84182085 0 0 0 0,-1.68363 h -0.14038 a 0.84182085,0.84182085 0 0 0 0,1.68363 z"
       id="path35810-6"
       style="fill:#1a1a1a;stroke-width:0.561214" />
    <path
       d="m 400.68298,284.92322 c -0.084,-2.07087 0.99897,-5.54479 -1.17291,-7.00394 -1.27958,-0.85306 -2.50302,0 -3.06425,1.24026 -1.17855,2.59281 -0.43775,6.21266 -0.12342,8.90649 0.44897,3.86114 1.02702,7.66617 0.63417,11.561 -0.10642,1.07751 1.57703,1.0719 1.68364,0 0.4097,-4.06881 -0.2469,-8.03097 -0.6959,-12.06609 a 30.90605,30.90605 0 0 1 -0.29197,-6.06675 c 0.14583,-1.57701 1.15609,-1.31324 1.50965,0.0728 0.24146,0.9316 -0.20212,2.36267 -0.16279,3.36727 0.0394,1.07752 1.72294,1.08313 1.68363,0 z"
       id="path35812-3"
       style="fill:#1a1a1a;stroke-width:0.561214" />
    <path
       d="m 396.45144,290.33331 3.59178,-0.89793 c 1.05508,-0.26385 0.60612,-1.88569 -0.44337,-1.62191 l -3.59737,0.89232 c -1.04947,0.26385 -0.60613,1.88568 0.44896,1.62752 z"
       id="path35814-1"
       style="fill:#1a1a1a;stroke-width:0.561214" />
    <path
       d="m 408.42214,284.42373 c -0.2693,-1.68365 -0.60612,-4.43358 -2.30099,-5.42131 -1.17854,-0.68471 -2.02598,-0.11222 -2.48054,1.05507 -0.9148,2.36271 -0.26385,5.81979 -0.10643,8.27791 0.2357,3.70399 0.53314,7.36312 -0.12919,11.04468 -0.19091,1.05506 1.43109,1.50966 1.6219,0.44337 0.66224,-3.6591 0.47144,-7.29578 0.22452,-10.97175 -0.12343,-1.81833 -0.47705,-3.88921 -0.22452,-5.70191 0.15159,-1.0551 0.52194,-3.19332 1.29642,-0.67909 a 17.487425,17.487425 0 0 1 0.47702,2.40199 c 0.16823,1.06631 1.79027,0.61172 1.62192,-0.44896 z"
       id="path35816-7"
       style="fill:#1a1a1a;stroke-width:0.561214" />
    <path
       d="m 402.68655,288.78437 a 13.665558,13.665558 0 0 1 4.81521,-0.43214 c 1.07751,0.0898 1.0719,-1.59383 0,-1.68364 a 15.001248,15.001248 0 0 0 -5.26419,0.49388 0.84182085,0.84182085 0 0 0 0.44898,1.6219 z"
       id="path35818-5"
       style="fill:#1a1a1a;stroke-width:0.561214" />
    <path
       d="m 409.09559,286.69104 a 21.825609,21.825609 0 0 0 -0.3367,8.65392 c 0.22452,1.3918 0.56119,5.20245 2.59277,5.29226 1.81274,0.084 2.44126,-2.19437 2.84536,-3.51882 a 37.107462,37.107462 0 0 0 1.50969,-10.16919 c 0,-1.12245 -1.5995,-1.06633 -1.68368,0 a 116.03097,116.03097 0 0 0 -0.25266,12.17833 c 0.0336,1.08312 1.71733,1.08312 1.68365,0 a 116.03097,116.03097 0 0 1 0.25265,-12.17833 H 414.023 a 36.478903,36.478903 0 0 1 -0.56123,6.17333 c -0.16278,0.83621 -0.89793,5.38204 -1.79586,5.39888 -0.89794,0.0182 -1.39183,-4.51776 -1.44234,-5.15196 a 20.203702,20.203702 0 0 1 0.51636,-6.25189 c 0.24691,-1.0551 -1.37499,-1.50408 -1.62191,-0.44898 z"
       id="path35820-9"
       style="fill:#1a1a1a;stroke-width:0.561214" />
    <path
       d="m 423.55807,288.98078 c 0.35355,-3.81624 -3.75454,-4.70858 -5.69631,-1.71732 -0.8362,1.2908 -1.41992,3.06985 -0.51631,4.48974 0.4826,0.75203 1.24022,1.01017 1.92497,1.50965 a 3.3672833,3.3672833 0 0 1 1.56013,2.09333 c 0.26385,1.26836 -0.50506,5.14633 -3.10913,2.91269 -0.81934,-0.7015 -2.01471,0.48828 -1.18973,1.1954 2.32344,1.9923 5.39885,0.71275 5.96574,-2.24487 a 5.3595927,5.3595927 0 0 0 -0.9485,-4.25399 c -0.47703,-0.5949 -1.15049,-0.80252 -1.68364,-1.28518 -0.53314,-0.48263 -1.26836,-1.29078 -1.18414,-2.16628 a 3.7040117,3.7040117 0 0 1 0.80252,-1.52651 q 0.86989,-1.63314 2.40756,1.03264 c -0.10101,1.08315 1.58264,1.07193 1.68367,0 z"
       id="path35822-6"
       style="fill:#1a1a1a;stroke-width:0.561214" />
    <path
       d="m 426.49322,287.05583 -0.21331,-0.0448 a 0.87549369,0.87549369 0 0 0 -0.95407,0.38725 c -0.81376,1.3469 -0.29744,3.41777 -0.25264,4.90502 l 0.22449,7.54271 c 0,1.07753 1.68366,1.08312 1.68366,0 l -0.16279,-5.65144 c -0.0394,-1.31321 -0.72399,-4.79276 -0.0336,-5.93763 l -0.94846,0.38725 0.2133,0.0394 c 1.06071,0.21332 1.50966,-1.40867 0.44898,-1.62191 z"
       id="path35824-2"
       style="fill:#1a1a1a;stroke-width:0.561214" />
    <path
       d="m 425.35391,281.52785 h -0.14583 a 0.84183,0.84183 0 0 0 0,1.68366 h 0.14583 a 0.84183,0.84183 0 0 0 0,-1.68366 h -0.14583 a 0.84183,0.84183 0 0 0 0,1.68366 h 0.14583 a 0.84183,0.84183 0 0 0 0,-1.68366 z"
       id="path35826-1"
       style="fill:#1a1a1a;stroke-width:0.561214" />
    <path
       d="m 428.87836,290.63077 c -0.31989,2.58158 -1.76779,8.17127 1.21225,9.84369 3.44024,1.93057 5.43817,-4.10248 5.7805,-6.39223 0.36476,-2.45252 0.56123,-8.62585 -3.1933,-8.77176 -4.0295,-0.15704 -4.35503,5.70192 -4.17541,8.4182 0.073,1.0775 1.75661,1.08315 1.68364,0 a 13.087508,13.087508 0 0 1 0.12342,-3.71525 c 0.292,-1.31321 1.18418,-4.26522 3.62544,-1.47039 1.12244,1.26273 0.33116,5.56165 -0.0786,6.91977 -0.25266,0.83623 -0.76325,2.65457 -1.63314,3.12035 -2.28413,1.21786 -2.18873,-1.65559 -2.18873,-2.80604 a 42.596134,42.596134 0 0 1 0.52755,-5.12952 c 0.13464,-1.0719 -1.55455,-1.06068 -1.68365,0 z"
       id="path35828-7"
       style="fill:#1a1a1a;stroke-width:0.561214" />
    <path
       d="m 436.58947,286.33747 a 59.567242,59.567242 0 0 1 0.22452,13.413 h 1.68363 l 0.0675,-0.81934 c 0.0952,-1.07755 -1.58824,-1.07193 -1.68363,0 l -0.0674,0.81934 c -0.0952,1.08315 1.577,1.07192 1.68363,0 a 59.567242,59.567242 0 0 0 -0.22451,-13.413 c -0.1404,-1.06068 -1.82394,-1.0719 -1.68367,0 z"
       id="path35830-8"
       style="fill:#1a1a1a;stroke-width:0.561214" />
    <path
       d="m 438.85118,291.59044 c 0.51632,-0.83621 1.26272,-2.3066 2.18315,-2.80607 2.24483,-1.17295 1.59937,1.99791 1.51524,3.17085 l -0.56119,8.16005 c -0.0731,1.08314 1.61067,1.07753 1.68366,0 l 0.54436,-8.16565 c 0.10643,-1.50968 0.47142,-3.70401 -0.64541,-4.97237 -2.15505,-2.45812 -5.21367,2.16629 -6.17334,3.74329 -0.56122,0.92602 0.88672,1.76783 1.45353,0.84744 z"
       id="path35832-5"
       style="fill:#1a1a1a;stroke-width:0.561214" />
    <path
       d="m 316.5119,277.46778 q 0.63124,10.82272 0.22231,21.65734 c -0.0437,1.14739 1.74293,1.14739 1.7866,0 q 0.39702,-10.83064 -0.22234,-21.65734 c -0.0674,-1.1434 -1.85406,-1.15134 -1.78657,0 z"
       id="path35916-9"
       style="fill:#1a1a1a;stroke-width:0.397018" />
    <path
       d="m 328.02541,277.19384 a 170.43587,170.43587 0 0 1 0,22.37991 h 1.78659 l -0.0873,-1.00842 c -0.0953,-1.13547 -1.88583,-1.14739 -1.78657,0 l 0.0873,1.00842 a 0.8932955,0.8932955 0 0 0 1.78659,0 170.43587,170.43587 0 0 0 0,-22.37991 c -0.0754,-1.13943 -1.86202,-1.14737 -1.78659,0 z"
       id="path35918-8"
       style="fill:#1a1a1a;stroke-width:0.397018" />
    <path
       d="m 318.6002,289.29496 a 78.839841,78.839841 0 0 0 10.42967,-0.26204 c 1.13547,-0.0993 1.14739,-1.8898 0,-1.78656 a 78.839841,78.839841 0 0 1 -10.42967,0.26202 c -1.14737,-0.0437 -1.14737,1.7429 0,1.78658 z"
       id="path35920-4"
       style="fill:#1a1a1a;stroke-width:0.397018" />
    <path
       d="m 331.59065,286.89698 v 6.02275 c 0,1.465 -0.28587,3.24365 0.17873,4.65702 0.74242,2.27094 3.4342,2.19948 5.08183,0.95682 0.9052,-0.68288 0,-2.23521 -0.90123,-1.54439 -3.17613,2.40989 -2.57664,-2.38212 -2.57268,-4.06945 v -6.02275 c 0,-1.15137 -1.78261,-1.15137 -1.78657,0 z"
       id="path35922-8"
       style="fill:#1a1a1a;stroke-width:0.397018" />
    <path
       d="m 332.09883,279.58786 a 1.6992372,1.6992372 0 0 0 -0.45657,1.82628 0.968724,0.968724 0 0 0 0.397,0.53599 0.91314146,0.91314146 0 0 0 0.69081,0.0874 0.90123092,0.90123092 0 0 0 0.62332,-1.09576 0.53200416,0.53200416 0 0 1 -0.0358,-0.10318 c 0,-0.0952 0,-0.0675 0,0.0794 v -0.10729 c -0.0238,0.14685 -0.0238,0.17061 0,0.0753 a 0.79403607,0.79403607 0 0 1 0.0317,-0.10318 c -0.0595,0.131 -0.0636,0.15476 -0.0193,0.0714 -0.14684,0.21041 -0.0396,0.0478 0.0278,0 a 0.89329057,0.89329057 0 0 0 0.26203,-0.63127 0.89726074,0.89726074 0 0 0 -1.52851,-0.63126 z"
       id="path35924-1"
       style="fill:#1a1a1a;stroke-width:0.397018" />
    <path
       d="m 344.37064,287.2781 c -0.48037,-3.7121 -4.36719,-3.89474 -5.98305,-0.75432 -1.0124,1.95331 -1.21488,4.50218 -1.27047,6.66591 -0.0477,1.96129 0.15477,4.36721 1.44912,5.95529 0.85756,1.05605 2.21536,1.54044 3.35084,0.57568 1.53645,-1.31017 1.8223,-4.36721 2.10817,-6.18953 0.39702,-2.57268 0.34937,-5.11755 0.39702,-7.71009 0.0674,-2.9022 1.04017,-5.70116 0.89725,-8.60734 -0.0556,-1.14342 -1.78657,-1.15929 -1.78657,0 v 20.86329 c 0,1.14738 1.78657,1.15137 1.78657,0 V 277.2137 h -1.78657 c 0.13506,2.77913 -0.79405,5.47488 -0.88933,8.254 -0.0952,2.91412 0,5.7528 -0.53596,8.63912 q -0.19458,1.04416 -0.47644,2.06846 c -0.2382,0.87741 -0.131,1.21488 -1.14737,1.38559 -1.14738,0.19457 -1.07989,-0.39701 -1.32605,-1.36177 a 10.143811,10.143811 0 0 1 -0.27395,-2.35034 20.835506,20.835506 0 0 1 0.39703,-4.3275 7.9006587,7.9006587 0 0 1 0.63126,-2.1042 l 0.28585,-0.50818 q 1.04813,-1.85804 2.3821,0.3613 c 0.14684,1.12354 1.93348,1.13546 1.78659,0 z"
       id="path35926-0"
       style="fill:#1a1a1a;stroke-width:0.397018" />
    <path
       d="m 352.88273,289.13218 c 0.28584,-1.74688 0.0595,-3.75976 -1.39355,-4.96669 a 3.0530687,3.0530687 0 0 0 -4.00591,0 c -1.64763,1.42925 -1.71114,3.97017 -1.77071,5.99497 -0.0475,1.50868 0,3.02528 0.0756,4.52998 0.0754,1.12752 -0.0595,2.92601 0.42083,3.97017 0.61934,1.37368 2.50914,1.2387 3.54933,0.47643 1.67146,-1.21885 2.04466,-3.71611 2.44564,-5.59003 a 66.270251,66.270251 0 0 0 1.31015,-17.92534 0.89329057,0.89329057 0 0 0 -1.78657,0 c -0.46055,6.00687 -0.66302,12.02963 -0.57171,18.05241 0.0193,1.44117 0.0278,2.8863 0.11517,4.32352 0.0357,0.61139 0,1.47689 0.53596,1.93347 0.90521,0.79402 1.9454,0 1.98511,-1.03225 0.0475,-1.15134 -1.73895,-1.14739 -1.7866,0 l 0.0437,-0.18665 0.86949,-0.23028 c -0.17082,-0.0317 0,-9.99294 0.0278,-11.09267 q 0.0993,-5.88778 0.56377,-11.76762 h -1.78659 a 62.77252,62.77252 0 0 1 -1.58806,18.8782 13.363627,13.363627 0 0 1 -0.50422,1.75085 c -0.0754,0.79402 -0.45658,1.06002 -1.14341,0.7583 -0.71463,0.1629 -0.98462,-0.11114 -0.79405,-0.82978 -0.42481,-1.32205 -0.21835,-3.15231 -0.22231,-4.52203 0,-1.43323 -0.0873,-3.09276 0.31761,-4.47834 0.36526,-1.24664 1.43719,-2.87046 2.85456,-1.30224 0.64317,0.71068 0.65507,1.8779 0.51215,2.77914 -0.18666,1.12356 1.53647,1.58808 1.72305,0.47246 z"
       id="path35928-3"
       style="fill:#1a1a1a;stroke-width:0.397018" />
    <path
       d="m 355.56656,293.96388 c 3.25157,-0.0278 6.02674,-1.58806 5.95527,-5.20092 -0.0674,-2.8228 -2.89427,-5.74884 -5.5384,-3.462 -2.75133,2.3821 -2.52107,7.60289 -1.50072,10.74728 0.98856,3.03717 3.97016,4.76421 6.6818,2.56075 0.89328,-0.72258 -0.37716,-1.98507 -1.26649,-1.26249 -4.11706,3.31509 -4.47836,-6.7255 -3.90269,-8.6431 0.31761,-1.064 1.23474,-3.29128 2.97366,-1.9851 0.86154,0.64716 0.89727,2.33448 0.63126,3.24761 -0.55979,1.9454 -2.27886,2.19552 -4.01781,2.21141 -1.14738,0 -1.15136,1.7945 0,1.78656 z"
       id="path35930-0"
       style="fill:#1a1a1a;stroke-width:0.397018" />
    <path
       d="m 362.56202,284.22106 q -0.29379,7.6823 -0.12309,15.36857 a 0.8933,0.8933 0 0 0 1.7866,0 51.747331,51.747331 0 0 1 0.59949,-7.18206 19.934275,19.934275 0 0 1 0.71464,-2.83867 c 0.131,-0.39702 0.32555,-1.54042 0.74242,-1.76674 l 1.46102,0.17081 a 3.5731623,3.5731623 0 0 1 0.1905,1.0402 c 0.28189,2.2749 0.0715,4.68083 0.0715,6.97163 0,1.36972 -0.24218,2.89822 0.97666,3.79152 0.92505,0.68286 1.81834,-0.86947 0.90123,-1.54044 -0.3732,-0.2779 -0.0914,-2.5568 -0.0914,-3.00542 v -2.27093 a 33.25423,33.25423 0 0 0 -0.0952,-4.31162 c -0.21042,-1.56028 -1.19106,-3.91858 -3.19998,-3.35878 -2.00891,0.5598 -2.70766,3.63668 -3.12453,5.35578 -0.7067,2.91807 -0.81785,5.95527 -0.93299,8.94481 h 1.78659 q -0.16675,-7.68627 0.12308,-15.36857 c 0.0396,-1.14738 -1.74688,-1.14738 -1.78659,0 z"
       id="path35932-4"
       style="fill:#1a1a1a;stroke-width:0.397018" />
    <path
       style="fill:none;stroke:#000000;stroke-width:0.415;stroke-linecap:round;stroke-linejoin:round;stroke-dasharray:8.3, 4.15;stroke-dashoffset:0;stroke-opacity:1;marker-end:url(#marker141);paint-order:fill markers stroke"
       d="m 354.75063,266.42165 c 0,0 -37.52598,-5.97896 -103.07497,-14.33229 C 195.77361,244.9654 210.60637,151.336 210.60637,151.336"
       id="path136"
       sodipodi:nodetypes="csc" />
    <path
       style="fill:none;stroke:#000000;stroke-width:0.419386;stroke-linecap:round;stroke-linejoin:round;stroke-dasharray:8.38772, 4.19386;stroke-dashoffset:0;stroke-opacity:1;marker-end:url(#marker140);paint-order:fill markers stroke"
       d="m 371.95551,269.38656 c 0,0 -9.47539,-29.31903 -9.22204,-53.07809 0.35438,-33.23436 8.98075,-62.51761 8.98075,-62.51761"
       id="path137"
       sodipodi:nodetypes="csc" />
    <path
       style="fill:none;stroke:#000000;stroke-width:0.415;stroke-linecap:round;stroke-linejoin:round;stroke-dasharray:8.3, 4.15;stroke-dashoffset:0;stroke-opacity:1;marker-end:url(#ArrowWide);paint-order:fill markers stroke"
       d="m 399.36196,268.45291 c 14.9799,-25.02867 72.90902,-47.58026 120.0775,-49.41754 28.38618,-1.10567 72.02457,-32.00331 76.91652,-65.5416"
       id="path138"
       sodipodi:nodetypes="csc" />
    <path
       d="m 187.71,122.55 q 0.2,10.44 -0.08,20.87 a 0.75,0.75 0 0 0 1.5,0 q 0.27,-10.44 0.08,-20.87 a 0.75,0.75 0 0 0 -1.5,0 z"
       id="path44"
       style="fill:#008000" />
    <path
       d="m 189.22,122.58 c 2.17,-3.24 5.41,0.32 6.37,2 a 8.15,8.15 0 0 1 1.12,3.84 c 0.12,4.31 -4.33,5.45 -7.81,5.39 a 0.75,0.75 0 0 0 0,1.5 c 2.74,0 6.48,-0.57 8.28,-2.9 1.37,-1.77 1.23,-4.55 0.59,-6.56 -1.22,-3.84 -6.64,-8.8 -9.84,-4 -0.54,0.81 0.76,1.56 1.29,0.76 z"
       id="path45"
       style="fill:#008000" />
    <path
       d="m 203.56,118.04 c -2.28,4.31 -3,8.93 -3.26,13.74 a 25.89,25.89 0 0 0 0.11,6.22 c 0.16,0.85 2.5,5.1 2.44,5.44 -0.15,1 1.29,1.35 1.45,0.4 a 5,5 0 0 0 0,-1.27 c 0,-0.31 -0.54,-0.61 -0.65,-0.91 -1,-2.58 -2,-3.86 -2,-6.83 -0.08,-5.43 0.61,-11.19 3.17,-16 0.45,-0.85 -0.84,-1.61 -1.29,-0.76 z"
       id="path46"
       style="fill:#008000" />
    <path
       d="m 214.87,125.06 c -0.91,-2.66 -3.31,-5.41 -6.45,-4.07 -3.64,1.54 -3.48,7.45 -3.67,10.72 -0.19,3.27 -0.79,8.41 2.79,10.41 2.52,1.39 6.16,1 7.72,-1.47 0.52,-0.82 -0.78,-1.57 -1.3,-0.76 -2.15,3.4 -6.84,0.59 -7.61,-2 a 16.86,16.86 0 0 1 -0.17,-4.66 44.73,44.73 0 0 1 0.53,-6 l 0.28,-1.53 q 0.47,-4.27 6.43,-0.27 c 0.31,0.91 1.76,0.52 1.45,-0.4 z"
       id="path47"
       style="fill:#008000" />
    <path
       d="m 219.67,139.47 a 9,9 0 0 0 2.86,-5 l -1.48,-0.2 -1,9.51 0.75,-0.75 -2,0.05 a 0.75,0.75 0 0 0 0,1.5 h 3 a 0.75,0.75 0 0 0 0,-1.5 h -3 v 1.5 l 2,-0.05 a 0.78,0.78 0 0 0 0.75,-0.75 l 1,-9.51 c 0.09,-0.83 -1.3,-1 -1.47,-0.19 a 7.66,7.66 0 0 1 -2.47,4.36 c -0.72,0.65 0.35,1.71 1.06,1.06 z"
       id="path48"
       style="fill:#008000" />
    <path
       d="m 224.13,138.57 a 0.75,0.75 0 0 0 0,-1.5 0.75,0.75 0 0 0 0,1.5 z"
       id="path49"
       style="fill:#008000" />
    <path
       d="m 226.05,134.12 a 84.77,84.77 0 0 0 0,10.81 c 0.05,1 1.55,1 1.5,0 a 84.77,84.77 0 0 1 0,-10.81 c 0.06,-1 -1.44,-1 -1.5,0 z"
       id="path51"
       style="fill:#008000" />
    <path
       d="m 375.1365,133.88044 a 84.77,84.77 0 0 0 0,10.81 c 0.05,1 1.55,1 1.5,0 a 84.77,84.77 0 0 1 0,-10.81 c 0.06,-1 -1.44,-1 -1.5,0 z"
       id="path51-1"
       style="fill:#008000" />
    <path
       d="m 230.89,134.28 a 26.15,26.15 0 0 1 -4.21,4.58 0.76,0.76 0 0 0 -0.12,0.91 17.6,17.6 0 0 0 5.19,5 c 0.83,0.51 1.58,-0.79 0.76,-1.29 a 15.66,15.66 0 0 1 -4.65,-4.45 l -0.12,0.91 a 28.24,28.24 0 0 0 4.45,-4.88 c 0.56,-0.78 -0.74,-1.53 -1.3,-0.76 z"
       id="path52"
       style="fill:#008000" />
    <path
       d="m 234.77,118.06 c 0,8.39 0,16.77 0,25.15 a 0.75,0.75 0 0 0 1.5,0 c 0,-8.38 0,-16.76 0,-25.15 a 0.75,0.75 0 0 0 -1.5,0 z"
       id="path53"
       style="fill:#008000" />
    <path
       d="m 242.65,134 a 34.15,34.15 0 0 0 7.37,-1.91 c 0.89,-0.34 0.51,-1.79 -0.4,-1.45 a 34,34 0 0 1 -7.37,1.91 c -1,0.14 -0.54,1.58 0.4,1.45 z"
       id="path54"
       style="fill:#008000" />
    <path
       d="m 251.64,144.04 a 0.75,0.75 0 0 0 0,-1.5 0.75,0.75 0 0 0 0,1.5 z"
       id="path55"
       style="fill:#008000" />
    <path
       d="m 248.96,118.44 c 5,6.53 10.26,17.46 2.08,24 -0.76,0.6 0.31,1.66 1.06,1.06 8.63,-6.89 3.57,-18.77 -1.84,-25.81 -0.58,-0.75 -1.89,0 -1.3,0.76 z"
       id="path56"
       style="fill:#008000" />
    <path
       d="m 218.41,119.89 a 4.7,4.7 0 0 0 1.52,-4.54 c -0.13,-0.83 -1.52,-0.64 -1.47,0.2 l 0.22,3.89 c 0,0.65 0.08,1.3 0.11,2 0,0.26 -0.11,1.76 -0.08,1.8 l -0.45,1.1 a 3.15,3.15 0 0 1 2.11,0.34 c 0.86,0.41 1.63,-0.88 0.75,-1.3 a 5.39,5.39 0 0 0 -3.26,-0.48 0.75,0.75 0 0 0 -0.45,1.1 1.53,1.53 0 0 0 2.77,-0.4 7.9,7.9 0 0 0 0.06,-3.14 l -0.28,-4.86 -1.47,0.2 a 3.25,3.25 0 0 1 -1.14,3.08 c -0.73,0.63 0.34,1.69 1.06,1.06 z"
       id="path57"
       style="fill:#008000" />
    <path
       d="m 240.99,128.37 c -0.35,3.52 -3.46,14.2 2.41,15.21 4.46,0.76 6.92,-5.32 7.17,-8.75 0.25,-3.43 -0.71,-7.44 -1.63,-10.76 -0.44,-1.57 -0.9,-4 -2.93,-4.26 -3.89,-0.48 -4.64,7.87 -4.9,10.27 -0.1,1 1.4,1 1.5,0 a 24.55,24.55 0 0 1 0.86,-4.57 10.76,10.76 0 0 1 0.65,-1.83 q 0.26,-2.36 1.91,-0.2 c 2.34,1.25 2.78,6.57 2.94,9.11 a 10.09,10.09 0 0 1 -0.69,5.35 q -1,4.26 -6.72,0 l 0.1,-1.32 c -0.26,-2.6 0.57,-5.69 0.83,-8.28 0.09,-1 -1.41,-1 -1.5,0 z"
       id="path58"
       style="fill:#008000" />
    <path
       d="m 336.71,122.55 q 0.19,10.44 -0.08,20.87 a 0.75,0.75 0 0 0 1.5,0 q 0.27,-10.44 0.08,-20.87 a 0.75,0.75 0 0 0 -1.5,0 z"
       id="path59"
       style="fill:#008000" />
    <path
       d="m 338.22,122.58 c 2.17,-3.24 5.41,0.32 6.37,2 a 8.15,8.15 0 0 1 1.12,3.84 c 0.12,4.31 -4.33,5.45 -7.81,5.39 a 0.75,0.75 0 0 0 0,1.5 c 2.74,0 6.48,-0.57 8.28,-2.9 1.37,-1.77 1.23,-4.55 0.59,-6.56 -1.22,-3.84 -6.64,-8.8 -9.84,-4 -0.54,0.81 0.76,1.56 1.29,0.76 z"
       id="path60"
       style="fill:#008000" />
    <path
       d="m 352.56,118.04 c -2.28,4.31 -3,8.93 -3.26,13.74 a 25.89,25.89 0 0 0 0.11,6.22 c 0.16,0.85 2.5,5.1 2.44,5.44 -0.15,1 1.29,1.35 1.45,0.4 a 5,5 0 0 0 0,-1.27 c 0,-0.31 -0.54,-0.61 -0.65,-0.91 -1,-2.58 -2,-3.86 -2,-6.83 -0.08,-5.43 0.61,-11.19 3.17,-16 0.45,-0.85 -0.84,-1.61 -1.29,-0.76 z"
       id="path61"
       style="fill:#008000" />
    <path
       d="m 368.67,139.47 a 9,9 0 0 0 2.86,-5 l -1.48,-0.2 -1,9.51 0.75,-0.75 -2,0.05 a 0.75,0.75 0 0 0 0,1.5 h 3 a 0.75,0.75 0 0 0 0,-1.5 h -3 v 1.5 l 2,-0.05 a 0.78,0.78 0 0 0 0.75,-0.75 l 1,-9.51 c 0.09,-0.83 -1.3,-1 -1.47,-0.19 a 7.66,7.66 0 0 1 -2.47,4.36 c -0.72,0.65 0.35,1.71 1.06,1.06 z"
       id="path62"
       style="fill:#008000" />
    <path
       d="m 373.13,138.57 a 0.75,0.75 0 0 0 0,-1.5 0.75,0.75 0 0 0 0,1.5 z"
       id="path63"
       style="fill:#008000" />
    <path
       d="m 372.85,144.74 a 0.75,0.75 0 0 0 0,-1.5 0.75,0.75 0 0 0 0,1.5 z"
       id="path64"
       style="fill:#008000" />
    <path
       d="m 379.89,134.28 a 26.15,26.15 0 0 1 -4.21,4.58 0.76,0.76 0 0 0 -0.12,0.91 17.6,17.6 0 0 0 5.19,5 c 0.83,0.51 1.58,-0.79 0.76,-1.29 a 15.66,15.66 0 0 1 -4.65,-4.45 l -0.12,0.91 a 28.24,28.24 0 0 0 4.45,-4.88 c 0.56,-0.78 -0.74,-1.53 -1.3,-0.76 z"
       id="path66"
       style="fill:#008000" />
    <path
       d="m 383.77,118.06 c 0,8.39 0,16.77 0,25.15 a 0.75,0.75 0 0 0 1.5,0 c 0,-8.38 0,-16.76 0,-25.15 a 0.75,0.75 0 0 0 -1.5,0 z"
       id="path67"
       style="fill:#008000" />
    <path
       d="m 391.65,134 a 34.15,34.15 0 0 0 7.37,-1.91 c 0.89,-0.34 0.51,-1.79 -0.4,-1.45 a 34,34 0 0 1 -7.37,1.91 c -1,0.14 -0.54,1.58 0.4,1.45 z"
       id="path68"
       style="fill:#008000" />
    <path
       d="m 397.96,118.44 c 3.31,4.31 6,8.4 6.14,14 a 13.67,13.67 0 0 1 -1.36,7 c -0.89,1.58 -2.1,2.08 -3,3.4 -0.56,0.79 0.74,1.54 1.29,0.76 1.29,-1.81 2.82,-2.59 3.69,-4.82 a 16.71,16.71 0 0 0 0.92,-6.35 c -0.12,-5.91 -2.82,-10.2 -6.34,-14.8 -0.58,-0.75 -1.89,0 -1.3,0.76 z"
       id="path69"
       style="fill:#008000" />
    <path
       d="m 363.7,124.12 c 0.21,-3.37 -3,-5.32 -6.06,-3.83 -3.57,1.76 -4,6.37 -4.36,9.86 -0.45,4 -0.45,9 3.22,11.63 a 5.62,5.62 0 0 0 8.26,-1.61 c 0.51,-0.83 -0.79,-1.58 -1.29,-0.76 -2.58,4.22 -7.52,0.62 -8.49,-2.47 a 13.26,13.26 0 0 1 -0.4,-4.61 34.93,34.93 0 0 1 0.56,-4.8 l 0.25,-1.36 q 0.54,-5.3 6.81,-2 c 0,1 1.45,1 1.5,0 z"
       id="path70"
       style="fill:#008000" />
    <path
       d="m 390.7,125.22 c -0.91,4.44 -2.8,13.58 1,17.31 3.41,3.36 6.42,-1.19 7.23,-4.25 a 30.5,30.5 0 0 0 0.72,-10.64 c -0.18,-1.77 -0.16,-5.2 -1.74,-6.42 -3.21,-2.48 -7.87,1.37 -8.37,4.48 -0.16,0.94 1.29,1.35 1.44,0.4 0.32,-2 2.48,-4.24 4.66,-3.86 2.39,0.41 2.33,3.66 2.51,5.4 a 28,28 0 0 1 -0.67,10.24 c -0.44,1.59 -1.91,6.54 -5.15,3 -1,-1.13 -0.94,-3.72 -1,-5.1 a 39.3,39.3 0 0 1 0.85,-10.14 c 0.19,-0.94 -1.26,-1.34 -1.45,-0.39 z"
       id="path71"
       style="fill:#008000" />
    <path
       d="m 367.33,117.84 a 2.4,2.4 0 0 1 0.09,-1 c 0.33,-1.09 1,-1.08 2.05,0 0.35,0.81 -0.24,1.77 -0.66,2.42 -0.9,1.38 -2,2.65 -3,4 a 0.76,0.76 0 0 0 0.53,1.28 9.24,9.24 0 0 0 4.78,-0.79 c 0.88,-0.38 0.12,-1.67 -0.76,-1.29 a 7.8,7.8 0 0 1 -4,0.58 l 0.53,1.28 c 1.68,-2.15 5.84,-5.9 3.55,-8.9 -1.95,-2.55 -4.64,0 -4.55,2.45 0,1 1.53,1 1.5,0 z"
       id="path72"
       style="fill:#008000" />
    <path
       d="m 568.71,122.55 q 0.19,10.44 -0.08,20.87 a 0.75,0.75 0 0 0 1.5,0 q 0.27,-10.44 0.08,-20.87 a 0.75,0.75 0 0 0 -1.5,0 z"
       id="path112"
       style="fill:#008000" />
    <path
       d="m 570.22,122.58 c 2.17,-3.24 5.41,0.32 6.37,2 a 8.15,8.15 0 0 1 1.12,3.84 c 0.12,4.31 -4.33,5.45 -7.81,5.39 a 0.75,0.75 0 0 0 0,1.5 c 2.74,0 6.48,-0.57 8.28,-2.9 1.37,-1.77 1.23,-4.55 0.59,-6.56 -1.22,-3.84 -6.64,-8.8 -9.84,-4 -0.54,0.81 0.76,1.56 1.29,0.76 z"
       id="path113"
       style="fill:#008000" />
    <path
       d="m 584.56,118.04 c -2.28,4.31 -2.95,8.93 -3.26,13.74 a 25.89,25.89 0 0 0 0.11,6.22 c 0.16,0.85 2.5,5.1 2.44,5.44 -0.15,1 1.29,1.35 1.45,0.4 a 5,5 0 0 0 0,-1.27 c 0,-0.31 -0.54,-0.61 -0.65,-0.91 -1,-2.58 -2,-3.86 -2,-6.83 -0.08,-5.43 0.61,-11.19 3.17,-16 0.45,-0.85 -0.84,-1.61 -1.29,-0.76 z"
       id="path114"
       style="fill:#008000" />
    <path
       d="m 600.67,139.47 a 9,9 0 0 0 2.86,-5 l -1.48,-0.2 -1,9.51 0.75,-0.75 -2,0.05 a 0.75,0.75 0 0 0 0,1.5 h 3 a 0.75,0.75 0 0 0 0,-1.5 h -3 v 1.5 l 2,-0.05 a 0.78,0.78 0 0 0 0.75,-0.75 l 1,-9.51 c 0.09,-0.83 -1.3,-1 -1.47,-0.19 a 7.66,7.66 0 0 1 -2.47,4.36 c -0.72,0.65 0.35,1.71 1.06,1.06 z"
       id="path115"
       style="fill:#008000" />
    <path
       d="m 605.13,138.57 a 0.75,0.75 0 0 0 0,-1.5 0.75,0.75 0 0 0 0,1.5 z"
       id="path116"
       style="fill:#008000" />
    <path
       d="m 604.85,144.74 a 0.75,0.75 0 0 0 0,-1.5 0.75,0.75 0 0 0 0,1.5 z"
       id="path117"
       style="fill:#008000" />
    <path
       d="m 607.05,134.12 a 84.77,84.77 0 0 0 0,10.81 c 0,1 1.55,1 1.5,0 a 84.77,84.77 0 0 1 0,-10.81 c 0.06,-1 -1.44,-1 -1.5,0 z"
       id="path118"
       style="fill:#008000" />
    <path
       d="m 611.89,134.28 a 26.15,26.15 0 0 1 -4.21,4.58 0.76,0.76 0 0 0 -0.12,0.91 17.6,17.6 0 0 0 5.19,5 c 0.83,0.51 1.58,-0.79 0.76,-1.29 a 15.66,15.66 0 0 1 -4.65,-4.45 l -0.12,0.91 a 28.24,28.24 0 0 0 4.45,-4.88 c 0.56,-0.78 -0.74,-1.53 -1.3,-0.76 z"
       id="path119"
       style="fill:#008000" />
    <path
       d="m 615.77,118.06 c 0,8.39 0,16.77 0,25.15 a 0.75,0.75 0 0 0 1.5,0 c 0,-8.38 0,-16.76 0,-25.15 a 0.75,0.75 0 0 0 -1.5,0 z"
       id="path120"
       style="fill:#008000" />
    <path
       d="m 623.65,134 a 34.15,34.15 0 0 0 7.37,-1.91 c 0.89,-0.34 0.51,-1.79 -0.4,-1.45 a 34,34 0 0 1 -7.37,1.91 c -0.95,0.14 -0.54,1.58 0.4,1.45 z"
       id="path121"
       style="fill:#008000" />
    <path
       d="m 629.96,118.44 c 3.31,4.31 6,8.4 6.14,14 a 13.67,13.67 0 0 1 -1.36,7 c -0.89,1.58 -2.1,2.08 -3,3.4 -0.56,0.79 0.74,1.54 1.29,0.76 1.29,-1.81 2.82,-2.59 3.69,-4.82 a 16.71,16.71 0 0 0 0.92,-6.35 c -0.12,-5.91 -2.82,-10.2 -6.34,-14.8 -0.58,-0.75 -1.89,0 -1.3,0.76 z"
       id="path122"
       style="fill:#008000" />
    <path
       d="m 595.7,124.12 c 0.21,-3.37 -3,-5.32 -6.06,-3.83 -3.57,1.76 -4,6.37 -4.36,9.86 -0.45,4 -0.45,9 3.22,11.63 a 5.62,5.62 0 0 0 8.26,-1.61 c 0.51,-0.83 -0.79,-1.58 -1.29,-0.76 -2.58,4.22 -7.52,0.62 -8.49,-2.47 a 13.26,13.26 0 0 1 -0.4,-4.61 34.93,34.93 0 0 1 0.56,-4.8 l 0.25,-1.36 q 0.54,-5.3 6.81,-2 c -0.05,1 1.45,1 1.5,0 z"
       id="path123"
       style="fill:#008000" />
    <path
       d="m 622.7,125.22 c -0.91,4.44 -2.8,13.58 1,17.31 3.41,3.36 6.42,-1.19 7.23,-4.25 a 30.5,30.5 0 0 0 0.72,-10.64 c -0.18,-1.77 -0.16,-5.2 -1.74,-6.42 -3.21,-2.48 -7.87,1.37 -8.37,4.48 -0.16,0.94 1.29,1.35 1.44,0.4 0.32,-2 2.48,-4.24 4.66,-3.86 2.39,0.41 2.33,3.66 2.51,5.4 a 28,28 0 0 1 -0.67,10.24 c -0.44,1.59 -1.91,6.54 -5.15,3 -1,-1.13 -0.94,-3.72 -1,-5.1 a 39.3,39.3 0 0 1 0.85,-10.14 c 0.19,-0.94 -1.26,-1.34 -1.45,-0.39 z"
       id="path124"
       style="fill:#008000" />
    <path
       d="m 597.33,117.57 c 0,1.51 0,3 0.11,4.52 a 14.3,14.3 0 0 0 0.31,3.65 0.75,0.75 0 0 0 0.52,0.53 c 1.45,0.27 2.91,-0.67 4.4,-0.48 1,0.12 0.95,-1.38 0,-1.5 a 5.76,5.76 0 0 0 -1.94,0.09 6.91,6.91 0 0 1 -2.06,0.44 l 0.53,0.53 a 15.1,15.1 0 0 1 -0.28,-3.86 c -0.06,-1.31 -0.09,-2.61 -0.09,-3.92 a 0.75,0.75 0 0 0 -1.5,0 z"
       id="path125"
       style="fill:#008000" />
  </g>
  <metadata
     id="metadata134">
    <rdf:RDF>
      <cc:Work
         rdf:about="">
        <dc:title>sel_hmm</dc:title>
      </cc:Work>
    </rdf:RDF>
  </metadata>
</svg>
