<?xml version="1.0" encoding="UTF-8" standalone="no"?>
<!-- Generator: Adobe Illustrator 23.0.3, SVG Export Plug-In . SVG Version: 6.00 Build 0)  -->

<svg
   version="1.1"
   id="svg134"
   x="0px"
   y="0px"
   viewBox="0 0 700 414.9"
   style="enable-background:new 0 0 700 414.9;"
   xml:space="preserve"
   sodipodi:docname="sel_hmm_6.svg"
   inkscape:version="1.3.2 (091e20e, 2023-11-25)"
   xmlns:inkscape="http://www.inkscape.org/namespaces/inkscape"
   xmlns:sodipodi="http://sodipodi.sourceforge.net/DTD/sodipodi-0.dtd"
   xmlns="http://www.w3.org/2000/svg"
   xmlns:svg="http://www.w3.org/2000/svg"
   xmlns:rdf="http://www.w3.org/1999/02/22-rdf-syntax-ns#"
   xmlns:cc="http://creativecommons.org/ns#"
   xmlns:dc="http://purl.org/dc/elements/1.1/"><defs
   id="defs117" />
<style
   type="text/css"
   id="style1">
	.st0{opacity:0.3;fill:#1F77B4;enable-background:new    ;}
	.st1{opacity:0.3;fill:#FF7F0E;enable-background:new    ;}
	.st2{opacity:0.3;fill:#2CA02C;enable-background:new    ;}
	.st3{fill:none;stroke:#FF7F0E;stroke-width:0.6722;stroke-linejoin:round;stroke-dasharray:2.4872,1.0755;}
	.st4{stroke:#000000;stroke-width:1.5041;}
	.st5{stroke:#000000;stroke-width:1.1416;}
	.st6{fill:none;stroke:#000000;stroke-width:1.7808;stroke-linecap:round;stroke-linejoin:round;}
	.st7{fill:#8C0000;}
	.st8{fill:#870303;stroke:#000000;stroke-width:2;stroke-linecap:round;stroke-linejoin:round;}
	.st9{fill:none;stroke:#000000;stroke-width:0.5106;stroke-linecap:round;stroke-linejoin:round;}
	.st10{fill:#010B7F;}
	.st11{fill:none;stroke:#000000;stroke-width:0.4;stroke-linecap:round;stroke-linejoin:round;}
</style>
<sodipodi:namedview
   bordercolor="#000000"
   borderopacity="0.25"
   id="namedview134"
   inkscape:current-layer="Layer_1"
   inkscape:cx="221.01639"
   inkscape:cy="121.81017"
   inkscape:deskcolor="#d1d1d1"
   inkscape:pagecheckerboard="0"
   inkscape:pageopacity="0.0"
   inkscape:showpageshadow="2"
   inkscape:window-height="847"
   inkscape:window-maximized="1"
   inkscape:window-width="1384"
   inkscape:window-x="62"
   inkscape:window-y="25"
   inkscape:zoom="0.79632102"
   pagecolor="#ffffff">
	</sodipodi:namedview>
<title
   id="title1">sel_hmm</title>
<g
   id="Layer_1">
	
	
	
	
	
	
	
	
	
	
	
	
	
	
	
	
	
	
	
	
	
	
	
	
	
	
	
	
	
	
	
	
	
	
	
	
	
	
	
	
	
	
	
	
	
	
	
	
	
	
	
	
	
	
	
	
	
	
	
	
	
	
	
	
	
	
	
	
	
	
	
	
	
	
	
	
	
	
	
	
	
	
	
	
	
	
	
	
	
	
	
	
	
	
	
	
	
	
	
	
	
	
	
	
	
	
	
	
	
	
	
	
	
	
	
	
	
	
	
	
	
	
	
	
	
	
	
	
	
	
	
	
	
	
	
	
	
	
	
	
	
	
	
	
	
	
	
	
	
	
	
	
	
	
	
	
	
	
	
	
	
	
	
	
	
	
	
	
	
	
	
	
	
	
	
	
	
	
	
	
	
	
	
	
	
	
	
	
	
	
	
	
	
	
	
	
	
	
	
	
	
	
	
	
	
	
	
	
	
	
	<path
   id="path5"
   d="M644.4,71.4c-2.9-5.6-12.1-1.5-11.4,4.3c0.5,3.6,5,3.7,7.1,6c1.3,1.4,2.6,3.9,0.6,5.4c-1.2,0.9-3.1,1.2-3.9,0.2   c-1-1.2-0.2-1.8-1.8-2.5c-1.6-0.8-3.2,1.8-1.5,2.6c0.6,0.3,0.6,2.2,1.2,2.8c0.9,0.7,2.1,1.1,3.2,0.8c2.3-0.2,5.4-1.1,6.5-3.3   c1.2-2.4,0.2-5.3-1.4-7.3c-1.1-1.4-2.6-2.5-4.2-3.2c-0.8-0.3-1.5-0.6-2.2-1l0.6-3.3c1.7-1.6,3.2-1.6,4.6,0.1   C642.7,74.7,645.2,73.1,644.4,71.4L644.4,71.4z" />
	<path
   id="path6"
   d="M648.9,82.8v-0.2h-3c0.3,4.1,0.4,8.2,0.5,12.3c0,0.8,0.7,1.5,1.5,1.5l8,0.3c0.8,0,1.5-0.7,1.5-1.6   c0-0.2-0.1-0.5-0.2-0.7c-0.2-0.5-0.5-1-0.8-1.4c-1.1-1.6-3.7-0.1-2.6,1.5c0.4,0.4,0.6,0.9,0.8,1.4l1.3-2.2l-8-0.3l1.5,1.5   c-0.1-4.1-0.3-8.2-0.5-12.3c0-0.8-0.7-1.5-1.5-1.5s-1.5,0.7-1.5,1.5v0.2C645.7,84.7,648.7,84.7,648.9,82.8L648.9,82.8z" />
	<path
   id="path25"
   d="M565.1,81.8c18.4-0.1,36.8,0.5,55.2,0.5c0.7,0,1.1-1.1,0.4-1.4c-2-1-4.2-1.7-6.3-2.3c-0.4-0.1-0.8,0.2-0.9,0.6   c-0.1,0.4,0.1,0.7,0.5,0.8c2.6,0.9,5.3,1.6,8,2v-1.5c-3.2,0.8-6.1,2.3-8.5,4.4c-0.7,0.6,0.3,1.7,1.1,1.1c2.2-2,4.9-3.4,7.9-4.1   c0.7-0.2,0.8-1.3,0-1.4c-2.7-0.4-5.4-1.1-8-2l-0.4,1.4c2.1,0.5,4.1,1.2,6,2.1l0.4-1.4c-18.4,0.1-36.8-0.6-55.2-0.5   c-0.4,0-0.8,0.3-0.8,0.8S564.7,81.7,565.1,81.8L565.1,81.8z" />
	<path
   id="path35"
   d="M583.6,60.8c0-6.4-5.2-9.7-11.3-8.8c-6.8,1-9,7.8-8.1,14c0.8,5.8,6.3,11.2,12.6,10s7.4-11.7,6.7-16.7   c-0.2-1.4-2.4-0.8-2.2,0.6c0.5,3.9,0.1,10.1-3.2,12.9c-4.3,3.7-10.6-2.2-11.5-6.1c-0.9-3.9-0.4-9.5,3.3-11.7   c4.8-2.7,11.4-0.1,11.4,5.7c0.1,0.6,0.6,1.1,1.2,1C583.1,61.7,583.5,61.3,583.6,60.8L583.6,60.8z" />
	<path
   id="path36"
   d="M576.6,68.5c1.6,2.8,3.7,5.2,6.3,7.2c1.2,0.9,2.3-1.1,1.1-1.9c-2.2-1.7-4.1-3.9-5.5-6.4   C577.8,66.1,575.9,67.2,576.6,68.5z" />
	<path
   id="path37"
   d="M590.2,52.8c-5,6.3-6.5,17.5-1.1,24c0.9,1.1,2.5-0.5,1.6-1.6c-4.5-5.3-3-15.6,1.1-20.8   C592.6,53.3,591.1,51.7,590.2,52.8L590.2,52.8z" />
	<path
   id="path38"
   d="M602.9,67c-0.1-7-14.6-1.5-8.7,6.2c2.1,2.7,5.6,2.9,7.2-0.2c1.1-2.2,1.8-5.7,2.5-8c0.8-3,1.1-6.1,0.9-9.3   c-0.1-1.2-2-1.6-2.2-0.3c-0.9,6.4-1.7,12.8-0.9,19.3c0.2,1.4,2.4,1.4,2.2,0c-0.8-6.3-0.1-12.5,0.8-18.8l-2.2-0.3   c0.2,3.7-0.3,7.5-1.6,11c-0.4,1.2-0.7,3.5-1.3,4.5c-2.2,2.7-3.7,2.2-4.5-1.6c0.8-3.4,2.6-4.2,5.5-2.5c0.1,0.6,0.6,1.1,1.2,1   C602.4,68,602.8,67.6,602.9,67L602.9,67z" />
	<path
   id="path39"
   d="M611.3,54.7c1.5,3.1,3,6.2,3.6,9.6c0.7,4.1-0.6,7.7-2.2,11.4c-0.6,1.3,1.6,1.9,2.2,0.6   c1.5-3.6,2.8-7.1,2.4-11.1c-0.5-4.1-2.3-7.9-4-11.6C612.6,52.2,610.6,53.4,611.3,54.7L611.3,54.7z" />
	<path
   id="path40"
   d="M605.3,68v5.1c-0.1,1.6-0.1,3.2,0,4.8c0.5,2.4,3.4,1.7,5.2,1.7c0.6-0.1,1.1-0.6,1-1.2c-0.1-0.5-0.5-1-1-1   c-0.5,0-2.8,0.3-3.1,0c0,0,0.1-2.2,0.1-2.7V68c-0.1-0.6-0.6-1.1-1.2-1C605.8,67,605.4,67.4,605.3,68L605.3,68z" />
	
	
	
	
	
	
	
	
	
	
	
	
	
	
	
	
	
	
	
	
	
	
	
	
	
	
	
	
	
	
	
	
	
	
	
	
	
	
	
	
	
	
	
	
	
	
	
	
	
	
	
	
	
	
	
	
	
	
	
	
	
	
	
	
	
	
	
	
	
	
	
	
	
	
	
	
	
	
	
	
	
	
	
	
	
	
	
	
	
	
	
	
	
	
	
	
	
	
	
	
	
	
	
	
	
	
	
	
	
	
	
	
	
	
	
	
	
	
	
	
	
	
	
	
	
	
	
	
	
	
	
	
	
	
	
	
	
	
	
	
	
	
	
	
	
	
	
	
	
	
	
	
	
	
	
	
	
	
</g>
<metadata
   id="metadata117"><rdf:RDF><cc:Work
       rdf:about=""><dc:title>sel_hmm</dc:title></cc:Work></rdf:RDF></metadata></svg>
