<?xml version="1.0" encoding="UTF-8" standalone="no"?>
<!-- Generator: Adobe Illustrator 23.0.3, SVG Export Plug-In . SVG Version: 6.00 Build 0)  -->

<svg
   version="1.1"
   id="svg134"
   x="0px"
   y="0px"
   viewBox="0 0 700 414.9"
   style="enable-background:new 0 0 700 414.9;"
   xml:space="preserve"
   sodipodi:docname="sel_hmm_7.svg"
   inkscape:version="1.3.2 (091e20e, 2023-11-25)"
   xmlns:inkscape="http://www.inkscape.org/namespaces/inkscape"
   xmlns:sodipodi="http://sodipodi.sourceforge.net/DTD/sodipodi-0.dtd"
   xmlns="http://www.w3.org/2000/svg"
   xmlns:svg="http://www.w3.org/2000/svg"
   xmlns:rdf="http://www.w3.org/1999/02/22-rdf-syntax-ns#"
   xmlns:cc="http://creativecommons.org/ns#"
   xmlns:dc="http://purl.org/dc/elements/1.1/"><defs
   id="defs117" />
<style
   type="text/css"
   id="style1">
	.st0{opacity:0.3;fill:#1F77B4;enable-background:new    ;}
	.st1{opacity:0.3;fill:#FF7F0E;enable-background:new    ;}
	.st2{opacity:0.3;fill:#2CA02C;enable-background:new    ;}
	.st3{fill:none;stroke:#FF7F0E;stroke-width:0.6722;stroke-linejoin:round;stroke-dasharray:2.4872,1.0755;}
	.st4{stroke:#000000;stroke-width:1.5041;}
	.st5{stroke:#000000;stroke-width:1.1416;}
	.st6{fill:none;stroke:#000000;stroke-width:1.7808;stroke-linecap:round;stroke-linejoin:round;}
	.st7{fill:#8C0000;}
	.st8{fill:#870303;stroke:#000000;stroke-width:2;stroke-linecap:round;stroke-linejoin:round;}
	.st9{fill:none;stroke:#000000;stroke-width:0.5106;stroke-linecap:round;stroke-linejoin:round;}
	.st10{fill:#010B7F;}
	.st11{fill:none;stroke:#000000;stroke-width:0.4;stroke-linecap:round;stroke-linejoin:round;}
</style>
<sodipodi:namedview
   bordercolor="#000000"
   borderopacity="0.25"
   id="namedview134"
   inkscape:current-layer="Layer_1"
   inkscape:cx="369.19784"
   inkscape:cy="192.13357"
   inkscape:deskcolor="#d1d1d1"
   inkscape:pagecheckerboard="0"
   inkscape:pageopacity="0.0"
   inkscape:showpageshadow="2"
   inkscape:window-height="449"
   inkscape:window-maximized="0"
   inkscape:window-width="1312"
   inkscape:window-x="62"
   inkscape:window-y="25"
   inkscape:zoom="0.79632102"
   pagecolor="#ffffff">
	</sodipodi:namedview>
<title
   id="title1">sel_hmm</title>
<g
   id="Layer_1">
	<g
   transform="matrix(0.67220823,0,0,0.67220823,-870.81431,117.47878)"
   id="g1">
		<rect
   id="rect35213"
   x="1668.7"
   y="122.8"
   class="st0"
   width="39.8"
   height="18" />
		<rect
   id="rect35215"
   x="1668.7"
   y="147.9"
   class="st1"
   width="39.8"
   height="18" />
		<rect
   id="rect35217"
   x="1668.7"
   y="172.9"
   class="st2"
   width="39.8"
   height="18" />
		<rect
   id="rect35219"
   x="1668.7"
   y="232.5"
   class="st0"
   width="39.8"
   height="18" />
		<rect
   id="rect35221"
   x="1668.7"
   y="257.5"
   class="st1"
   width="39.8"
   height="18" />
		<rect
   id="rect35223"
   x="1668.7"
   y="282.5"
   class="st2"
   width="39.8"
   height="18" />
		<rect
   id="rect35225"
   x="1668.7"
   y="334"
   class="st0"
   width="39.8"
   height="18" />
		<rect
   id="rect35227"
   x="1668.7"
   y="359"
   class="st1"
   width="39.8"
   height="18" />
		<rect
   id="rect35229"
   x="1668.7"
   y="384"
   class="st2"
   width="39.8"
   height="18" />
	</g>
	<path
   id="path35354"
   d="M115,195.3c0.2,25.5,0.5,51.1,0.8,76.6c0.3,25.1-0.2,50.3-0.1,75.5c0.1,14.4,0.3,28.9,0.5,43.3   c0,0.9,1.4,0.9,1.4,0c-1-50.6-0.2-101.3-0.7-151.9c-0.2-14.5-0.5-29-0.6-43.4c0-0.4-0.3-0.7-0.7-0.7   C115.3,194.6,115,194.9,115,195.3L115,195.3z" />
	<path
   id="path35356"
   d="M78.8,177.5c-1,5.3-1,10.8,0,16.1c0.2,0.9,1.5,0.5,1.3-0.4c-0.9-5.1-0.9-10.3,0-15.4   C80.3,177,78.9,176.6,78.8,177.5L78.8,177.5z" />
	<path
   id="path35358"
   d="M80.2,179.6c1.9-1.9,3.5,2,3.4,3.4c-0.2,2-2,3.6-4,2.6c-0.3-0.2-0.7-0.1-0.9,0.2c-0.2,0.3-0.1,0.7,0.2,0.9   c3,1.7,6.1-1,6-4.2c0-2.7-3-6.6-5.7-4C78.6,179.3,79.6,180.2,80.2,179.6L80.2,179.6z" />
	<path
   id="path35360"
   d="M92.9,185.2c0-1.7-1.4-3-3.1-3c-0.4,0-0.9,0.1-1.3,0.3c-2.3,1.1-4.4,4.6-4.3,7.1c0,1.7,1.4,3.1,3.1,3.1   c0.4,0,0.9-0.1,1.3-0.3c3-1.2,3.2-4.9,3.3-7.6c0-0.9-1.3-0.9-1.4,0c-0.2,2.9,0.3,5.9,1.5,8.6c0.4,0.8,1.5,0.1,1.2-0.7   c-1.1-2.5-1.5-5.2-1.3-7.9h-1.4c0,1.4-0.1,2.9-0.6,4.3c-0.6,1.6-3.9,4-4.3,0.5c-0.2-1.2,0.6-2.5,1.2-3.5c0.4-0.7,0.9-1.3,1.5-1.8   c1-0.9,3.1-1.2,3.2,0.9C91.6,186,92.9,186,92.9,185.2L92.9,185.2z" />
	<path
   id="path35362"
   d="M100,183.9c-1.3-2.7-5.3-2.6-6,0.5c-0.3,1.4,0.2,2.9,1.3,3.8c0.6,0.4,1.2,0.6,1.9,0.7   c0.4,0,0.9,0.1,1.3,0.2c1,1.6,0.6,2.4-1.1,2.4c-0.5-0.1-1.1-0.2-1.6-0.4c-0.4-0.1-0.7,0.2-0.8,0.6c-0.1,0.3,0.1,0.7,0.4,0.8   c1.5,0.4,3.2,0.8,4.4-0.5c1-0.9,1.1-2.3,0.4-3.4c-1-1.2-2.7-0.8-3.9-1.5c-1-0.7-1.4-2.1-0.7-3.2c0.9-1.4,2.7-0.6,3.2,0.6   C99.2,185.4,100.4,184.7,100,183.9L100,183.9z" />
	<path
   id="path35364"
   d="M103.8,175.4c-0.8,4.8-0.9,9.6-0.3,14.4c0.3,2.2,2,5.5,4.5,3.3c0.7-0.6-0.3-1.5-1-1c-0.7,0.6-1.9-0.9-2-1.5   c-0.2-0.8-0.3-1.6-0.3-2.4c-0.1-1.3-0.2-2.6-0.2-4c0-2.9,0.2-5.8,0.6-8.6C105.2,174.9,103.9,174.5,103.8,175.4L103.8,175.4z" />
	<path
   id="path35366"
   d="M100.9,185.5c2.1-0.4,4.2-0.5,6.3-0.2c0.9,0.1,1.2-1.2,0.4-1.3c-2.3-0.4-4.7-0.3-7,0.2   C99.6,184.4,100,185.7,100.9,185.5L100.9,185.5z" />
	<path
   id="path35368"
   d="M80.2,378.5l0,15c0,0.4,0.3,0.7,0.7,0.7c0.4,0,0.7-0.3,0.7-0.7l0-15c0-0.4-0.3-0.7-0.7-0.7   C80.5,377.8,80.2,378.1,80.2,378.5L80.2,378.5z" />
	<path
   id="path35370"
   d="M81.3,379.6l5.9,12.7c0.3,0.7,1.2,0.2,1.3-0.3c0.6-4.8,1-9.6,1.1-14.5c0-0.9-1.4-0.9-1.4,0   c-0.1,4.8-0.5,9.7-1.1,14.5l1.3-0.3l-5.9-12.7C82.1,378.1,80.9,378.8,81.3,379.6z" />
	<path
   id="path35372"
   d="M91.2,386.1c-0.4,2.4-0.7,5.8,2,7c2.7,1.1,5.3-1.3,6.1-3.7c0.8-2.5-0.1-6-2.9-6.9c-2.6-0.8-5,1.2-5.5,3.6   c-0.2,0.9,1.1,1.2,1.3,0.4c0.4-1.6,1.8-3.2,3.6-2.8c2.3,0.6,2.8,3.6,2.1,5.5c-0.6,1.6-2.5,3.6-4.4,2.5c-1.7-1-1.3-3.6-1-5.2   C92.7,385.6,91.4,385.2,91.2,386.1L91.2,386.1z" />
	<path
   id="path35374"
   d="M99.9,382.9c0.2,3.5,0.7,7.1,1.3,10.6c0.1,0.6,0.9,0.6,1.2,0.2c1.2-1.8,2.1-3.8,2.7-5.9l-1.4-0.2   c0.1,0.9,0.4,7.2,3,5.1c1.1-0.9,1.3-3.2,1.6-4.5c0.5-2.2,0.8-4.4,0.9-6.7c0.1-0.9-1.3-0.9-1.4,0c-0.2,2.4-0.5,4.8-1.1,7.1   c-0.1,0.4-0.4,3-1.2,2.5c-0.4-0.2-0.5-3-0.5-3.6c-0.1-0.7-1.1-1-1.3-0.2c-0.5,2-1.4,3.9-2.6,5.6l1.2,0.2c-0.6-3.4-1-6.8-1.3-10.2   C101.2,382,99.8,382,99.9,382.9L99.9,382.9z" />
	<path
   id="path35376"
   d="M96.2,219.2c-1.2,4.3-2.2,9.1-2.1,13.6c0.1,3.2,3.2,2.8,5.6,2c0.8-0.3,0.5-1.6-0.4-1.3   c-1.7,0.5-3.4,1-3.9-1.1c-0.3-1.2,0.2-3.1,0.3-4.3c0.3-2.9,0.9-5.7,1.7-8.5c0.1-0.4-0.2-0.7-0.6-0.8   C96.6,218.7,96.3,218.9,96.2,219.2L96.2,219.2z" />
	<path
   id="path35378"
   d="M91.5,227.7c2.6-0.7,5.3-0.8,7.9-0.2c0.9,0.2,1.2-1.1,0.4-1.3c-2.8-0.6-5.8-0.5-8.6,0.2   c-0.4,0.1-0.6,0.5-0.5,0.9C90.8,227.5,91.1,227.7,91.5,227.7L91.5,227.7z" />
	<path
   id="path35380"
   d="M101.8,230.6c-1.4,1.4-1.5,4.2-0.1,5.7c1.5,1.8,3.9,0.6,4.8-1.2c0.8-1.9,0.4-4.8-1.5-6   c-2.1-1.4-4.2,0.8-4.7,2.7c-0.2,0.9,1.1,1.2,1.3,0.4c0.3-1.2,1.5-2.9,2.8-1.8c1,0.9,1.2,2.6,0.9,3.8c-0.4,1.3-2,2.4-2.8,0.9   c-0.6-1-0.5-2.7,0.3-3.5C103.4,230.9,102.5,229.9,101.8,230.6L101.8,230.6z" />
	<path
   id="path35382"
   d="M95.8,355.2c-1.2,4.3-2.2,9.1-2.1,13.6c0.1,3.2,3.2,2.8,5.6,2c0.8-0.3,0.5-1.6-0.4-1.3   c-1.7,0.5-3.4,1-3.9-1.1c-0.3-1.2,0.2-3.1,0.3-4.3c0.3-2.9,0.9-5.7,1.7-8.5c0.1-0.4-0.1-0.7-0.5-0.8   C96.2,354.6,95.9,354.8,95.8,355.2L95.8,355.2z" />
	<path
   id="path35384"
   d="M91.1,363.6c2.6-0.7,5.3-0.8,7.9-0.2c0.9,0.2,1.2-1.1,0.4-1.3c-2.8-0.6-5.8-0.5-8.6,0.2   c-0.4,0.1-0.6,0.5-0.5,0.9C90.4,363.5,90.7,363.7,91.1,363.6L91.1,363.6z" />
	<path
   id="path35386"
   d="M100.8,364.6c0.2,2.8,0.1,5.5-0.4,8.3c-0.1,0.9,1.2,1.2,1.3,0.4c0.5-2.8,0.6-5.7,0.4-8.6   C102.1,363.7,100.8,363.7,100.8,364.6z" />
	<path
   id="path35388"
   d="M105.4,365.3c-0.9,1.8-2.2,3.4-3.8,4.6c-0.5,0.4-0.4,1.4,0.3,1.3c1.9-0.3,3.7,0.4,4.9,1.9   c0.5,0.7,1.7,0,1.2-0.7c-1.4-1.9-3.7-2.9-6.1-2.6l0.3,1.3c1.8-1.3,3.3-3.1,4.3-5.1C107,365.2,105.8,364.6,105.4,365.3L105.4,365.3z   " />
	<path
   id="path35390"
   d="M96.3,282.5c-1.2,4.3-2.2,9.1-2.1,13.6c0.1,3.2,3.2,2.8,5.6,2c0.8-0.3,0.5-1.6-0.4-1.3   c-1.7,0.5-3.4,1-3.9-1.1c-0.3-1.2,0.2-3.1,0.3-4.3c0.3-2.9,0.9-5.7,1.7-8.5c0.1-0.4-0.2-0.7-0.6-0.8   C96.8,282,96.5,282.2,96.3,282.5L96.3,282.5z" />
	<path
   id="path35392"
   d="M91.7,290.9c2.6-0.7,5.3-0.8,7.9-0.2c0.9,0.2,1.2-1.1,0.4-1.3c-2.8-0.6-5.8-0.5-8.6,0.2   c-0.4,0.1-0.6,0.5-0.4,0.9C91,290.8,91.3,291,91.7,290.9L91.7,290.9z" />
	<path
   id="path35394"
   d="M101.5,297.1c1.6-1.1,2.8-2.4,3.2-4.3l-1.3-0.2c0,1.9,0,3.7-0.1,5.6c0,0.5,0.1,0.6-0.4,0.7   c-0.3,0-0.5,0-0.8-0.1c-0.4,0-0.8,0.1-1.2,0.3c-0.3,0.2-0.4,0.6-0.2,1c0.1,0.2,0.3,0.3,0.6,0.3l4.1,0c0.4,0,0.7-0.3,0.7-0.7   c0-0.4-0.3-0.7-0.7-0.7l-4.1,0l0.3,1.3c1-0.7,2.4,0.6,2.9-1c0.3-0.9,0.1-2.1,0.1-3l0.1-3.7c0-0.8-1.2-1-1.3-0.2   c-0.3,1.5-1.3,2.7-2.6,3.5C100.1,296.4,100.8,297.6,101.5,297.1L101.5,297.1z" />
	<path
   id="path35396"
   d="M115.6,227.5h-3.1c-0.4,0-0.7,0.3-0.7,0.7c0,0.4,0.3,0.7,0.7,0.7l0,0h3.1c0.4,0,0.7-0.3,0.7-0.7   C116.3,227.8,116,227.5,115.6,227.5L115.6,227.5z" />
	<path
   id="path35398"
   d="M116.9,292.6h-4c-0.4,0-0.7,0.3-0.7,0.7c0,0.4,0.3,0.7,0.7,0.7l0,0h4c0.4,0,0.7-0.3,0.7-0.7   C117.6,292.9,117.3,292.6,116.9,292.6z" />
	<path
   id="path35400"
   d="M115.6,364.4h-3.1c-0.4,0-0.7,0.3-0.7,0.7c0,0.4,0.3,0.7,0.7,0.7l0,0h3.1c0.4,0,0.7-0.3,0.7-0.7   C116.3,364.7,116,364.4,115.6,364.4L115.6,364.4z" />
	<path
   id="path35402"
   d="M252.3,197.6c-1.3,0.1-2.6,0.1-3.9,0.2c-0.8,0.1-1.8,0-2.6,0.2c-1.5,0.5-1.3,2-1.2,3.3   c0.4,5.3,0.7,10.6,0.9,15.9c0.4,10.4,0.2,20.9-0.3,31.3c0,0.3,0.2,0.6,0.5,0.6c0,0,0.1,0,0.1,0c3.6-0.2,7.3-0.5,11-0.7   c0.7,0,0.5-1.1-0.2-1.1c-3.6,0.2-7.3,0.5-11,0.7c0.2,0.2,0.4,0.4,0.6,0.6c0.5-9.3,0.6-18.6,0.4-27.9c-0.1-4.3-0.3-8.7-0.6-13   c-0.1-1.2-0.1-2.3-0.2-3.5c-0.1-1.1-0.4-2.4-0.3-3.5c0.2-2.2,1.8-1.8,3.3-1.9c1.2-0.1,2.4-0.1,3.6-0.2   C253.2,198.7,253,197.6,252.3,197.6L252.3,197.6z" />
	<path
   id="path35404"
   d="M275.5,198.2c2.1,0.2,4.2,0.4,6.4,0.5l-0.5-0.5c-1,9.1-1.3,18.3-0.9,27.5c0.2,4.4,0.5,8.8,1,13.2l0.4,3.1   c0.1,1.2,0.7,2.7-0.1,3.7c-0.7,1-2.4,0.9-3.7,1.1l-3.9,0.7c-0.3,0-0.5,0.3-0.4,0.6c0,0.3,0.3,0.5,0.6,0.4c0,0,0,0,0.1,0   c2.4-0.4,5.2-0.5,7.5-1.3c1.5-0.5,1.4-1.5,1.2-2.8c-0.6-5.2-1.2-10.5-1.5-15.7c-0.6-10.1-0.3-20.2,0.8-30.3c0-0.3-0.2-0.5-0.5-0.5   c-2.1-0.2-4.2-0.4-6.4-0.5c-0.3-0.1-0.5,0.1-0.6,0.4C275,197.9,275.2,198.1,275.5,198.2C275.5,198.2,275.5,198.2,275.5,198.2   L275.5,198.2z" />
	<path
   id="path35406"
   d="M253.5,205.7c-1.3,1.7-0.5,4.1,1.5,4.9c2.6,1.1,5.8-1.2,6.8-3.6c1.1-2.4-0.7-4.5-3.1-4.9   c-2.5-0.4-4.9,0.9-6,3.2c-0.4,0.8,0.8,1.5,1.2,0.7c0.5-1.2,1.5-2.1,2.8-2.5c1.4-0.4,3.9-0.1,4.1,1.8c0.1,1.7-1.9,3.5-3.4,4   c-0.9,0.3-1.9,0.3-2.6-0.5c-0.6-0.6-0.9-1.5-0.3-2.2C255.1,205.9,254.1,204.9,253.5,205.7L253.5,205.7z" />
	<path
   id="path35408"
   d="M266.7,201.1c-2.4,2.6-4,5.9-4.7,9.4c-0.2,0.9,1.1,1.2,1.3,0.4c0.6-3.3,2.1-6.3,4.3-8.8   C268.3,201.4,267.3,200.5,266.7,201.1z" />
	<path
   id="path35410"
   d="M269.5,204.8c0.1-0.8,0.4-2,1.2-2.3c0.6-0.2,0.6,0.4,0.6,0.9c0,0.5-0.1,1.1-0.3,1.6c-0.5,1.6-1.5,2.8-2.6,4   c-0.3,0.3-0.3,0.7,0,1c0.1,0.1,0.2,0.1,0.3,0.2c2.1,0.4,4.3,0.5,6.4,0.5c0.9,0,0.9-1.4,0-1.4c-2,0.1-4.1-0.1-6.1-0.4l0.3,1.1   c1.8-2,4.3-5.4,3.1-8.2c-0.4-1-1.4-1.1-2.3-0.6c-1.2,0.6-1.8,2-2,3.2C268.1,205.3,269.4,205.7,269.5,204.8L269.5,204.8z" />
	<path
   id="path35412"
   d="M258,220.5c0.2-0.3,0.5-0.5,0.8-0.7c1.6,0.3,2,0.8,1.4,1.5c-0.2,0.6-0.7,1.1-1.4,1.3l0.4,1.3   c1.1-0.5,2,0.9,1.1,1.9c-0.6,0.6-1.6,0.6-2.4,0.4c-0.7-0.2-2.8-0.7-2.8-1.7c0-0.9-1.4-0.9-1.4,0c0,1.5,1.3,2.1,2.5,2.6   c1.5,0.6,3.3,1,4.7,0c2.2-1.7,0.7-5.6-2.1-4.5c-0.4,0.1-0.6,0.5-0.5,0.9c0.1,0.3,0.5,0.5,0.8,0.5c1.7-0.4,3.3-2.9,2.4-4.5   c-1-1.9-3.4-1.2-4.5,0.2C256.4,220.2,257.4,221.2,258,220.5L258,220.5z" />
	<path
   id="path35414"
   d="M266.8,218.3c-1.6,2.8-2.9,5.7-4,8.8c-0.1,0.4,0.1,0.7,0.5,0.8c0.1,0,0.1,0,0.2,0l0,0   c0.4,0,0.7-0.3,0.7-0.7c0-0.1,0-0.1,0-0.2v0c-0.3-0.8-1.6-0.5-1.3,0.4l0,0l0.7-0.9l0,0l0.7,0.9c1-2.9,2.3-5.8,3.8-8.4   c0.2-0.3,0.1-0.7-0.2-0.9C267.4,217.8,267,217.9,266.8,218.3L266.8,218.3z" />
	<path
   id="path35416"
   d="M270.4,220.4c1.2-0.4,1.4-0.1,0.8,0.9c-0.4,0.3-0.9,0.5-1.4,0.4v1.4c1.2-0.1,3.9,0.7,2.8,2.5   c-0.4,0.7-4.4,1.2-4.5,0c-0.1-0.9-1.5-0.9-1.4,0c0.1,1.3,1,2,2.3,2c1.3,0.1,3.5,0.1,4.5-1c0.8-1,0.8-2.4,0.1-3.4   c-0.8-1.3-2.4-1.6-3.8-1.5c-0.4,0-0.7,0.3-0.7,0.7c0,0.4,0.3,0.7,0.7,0.7c1.8,0,3.8-1.5,2.8-3.5c-0.5-0.9-1.6-1.3-2.5-0.8   c-0.5,0.3-0.9,0.7-1,1.3C268.8,220.9,270.2,221.3,270.4,220.4L270.4,220.4z" />
	<path
   id="path35418"
   d="M257.7,294.6c-0.1-0.8,0.2-1.8,1.3-1.8c1.3,0,1.4,1.6,0.8,2.4c-0.5,0.8-1.8,1.3-2.6,1.9   c-1.2,0.8-2.1,2-2,3.5c0,0.4,0.3,0.7,0.7,0.7l6.1-0.2c0.9,0,0.9-1.4,0-1.4l-6.1,0.2l0.7,0.7c-0.1-2.9,7.3-4.3,4.5-8   c-1.7-2.3-5.1-0.6-4.8,2.1C256.4,295.5,257.7,295.5,257.7,294.6L257.7,294.6z" />
	<path
   id="path35420"
   d="M265.7,291.3c-0.8,3.2-1.8,6.3-2.9,9.4c-0.3,0.8,1,1.2,1.3,0.4c1.1-3.1,2.1-6.3,2.9-9.4   C267.2,290.9,265.9,290.5,265.7,291.3L265.7,291.3z" />
	<path
   id="path35422"
   d="M269.4,293.9c0.5-0.6,0.4-0.8,1.2-0.4c0.6,0.1,0.8,0.3,0.4,0.8c-0.1,0.5-0.5,0.9-1,0.9   c-0.4,0.1-0.6,0.5-0.5,0.8c0.1,0.3,0.3,0.5,0.6,0.5c1.7,0.2,2.6,2.2,0.9,3.2c-1.2,0.7-2.8,0.4-3-1.2c-0.1-0.9-1.5-0.5-1.3,0.4   c0.5,3,4.1,3.2,6,1.3c2.2-2.2,0-4.7-2.5-5l0.2,1.3c1.6-0.5,2.7-2.2,2-3.8c-0.9-2-2.9-1-3.9,0.2   C267.9,293.6,268.9,294.6,269.4,293.9L269.4,293.9z" />
	<path
   id="path35424"
   d="M255.3,238.4c-0.9,2.5-0.5,5.3,2.3,6.4c2.2,0.9,4.7-2.2,5.3-4.1c0.7-2.3-1-5.1-3.2-5.8   c-2.9-0.9-3.7,2.6-4.4,4.5c-0.3,0.8,1,1.2,1.3,0.4c0.2-0.6,0.4-1.2,0.6-1.8c0.4-1.1,0.5-1.6,1.7-1.6c2.1,0,3.4,2.6,2.4,4.4   c-0.6,1.1-2.1,3-3.6,2.5c-2-0.7-1.7-3.1-1.2-4.6C257,237.9,255.7,237.6,255.3,238.4L255.3,238.4z" />
	<path
   id="path35426"
   d="M266.7,234.6l-2,8.9c-0.2,0.9,1.1,1.2,1.3,0.4l2-8.9C268.2,234.2,266.9,233.8,266.7,234.6z" />
	<path
   id="path35428"
   d="M270.2,240.6c1-0.4,1.9-1.2,2.6-2.1c0.8-1.2,0.5-2.4,1.1-3.6l-1.3-0.3c0.1,1.6-0.1,3.3-0.3,4.9   c-0.2,1.4-0.1,3.6-1.9,3.4c-0.8-0.1-0.9,1.2-0.2,1.3c1.1,0.3,2.3,0.4,3.4,0.2c0.9-0.1,0.9-1.5,0-1.4c-1,0.1-2,0.1-3-0.2l-0.2,1.3   c2.3,0.2,2.4-0.2,2.8-2.4c0.5-2.4,0.8-4.8,0.7-7.3c0-0.6-1-1-1.3-0.3c-0.4,0.8-0.3,1.6-0.5,2.5c-0.3,1.3-1.4,2.2-2.6,2.7   C268.7,239.8,269.4,241,270.2,240.6L270.2,240.6z" />
	<path
   id="path35430"
   d="M257,383.1c2-1.2,3.1-3.4,3-5.7c0-0.4-0.3-0.7-0.7-0.7s-0.7,0.3-0.7,0.7v6.9c0,1.1,0,1.5-1.2,1.5   c-0.9,0-0.9,1.3,0,1.4c0.9,0.1,1.8,0.2,2.7,0.3c0.9,0.2,1.2-1.2,0.4-1.3c-1-0.2-2-0.3-3-0.4v1.4c0.7,0.1,1.3,0,2-0.1   c0.2-0.1,0.4-0.3,0.5-0.5c0.3-1.3,0.1-2.8,0.1-4.1v-5.1h-1.4c0.1,1.8-0.8,3.6-2.3,4.5C255.5,382.3,256.2,383.5,257,383.1L257,383.1   z" />
	<path
   id="path35432"
   d="M265.3,376.6c-0.7,3.3-1.2,6.8-2.5,9.9c-0.3,0.7,0.9,1.1,1.2,0.5l0.3-0.5c0.5-0.7-0.7-1.4-1.2-0.7l-0.3,0.5   l1.3,0.5c1.3-3.2,1.8-6.6,2.5-9.9C266.8,376.1,265.4,375.7,265.3,376.6L265.3,376.6z" />
	<path
   id="path35434"
   d="M269.1,384c2-1.6,3.2-4.1,3.1-6.6c0-0.9-1.3-0.9-1.4,0l-0.3,5.2c0,0.7,0,1.5-0.1,2.2   c-0.2,1.2-0.2,1.2-1.4,1.2v1.4h3.5c0.4,0,0.7-0.3,0.7-0.7c0-0.4-0.3-0.7-0.7-0.7H269c-0.4,0-0.7,0.3-0.7,0.7c0,0.4,0.3,0.7,0.7,0.7   c1.5,0,2.5,0.2,2.7-1.5c0.3-2.8,0.3-5.7,0.5-8.5h-1.4c0,2.2-1,4.3-2.7,5.7C267.4,383.6,268.4,384.5,269.1,384L269.1,384z" />
	<path
   id="path35436"
   d="M252.3,271.3c-1.3,0.1-2.6,0.1-3.9,0.2c-0.8,0.1-1.8,0-2.6,0.2c-1.5,0.5-1.3,2-1.2,3.3   c0.4,5.3,0.7,10.6,0.9,15.9c0.4,10.4,0.2,20.9-0.3,31.3c0,0.3,0.2,0.6,0.5,0.6c0,0,0.1,0,0.1,0c3.6-0.2,7.3-0.5,11-0.7   c0.7,0,0.5-1.1-0.2-1.1c-3.6,0.2-7.3,0.5-11,0.7c0.2,0.2,0.4,0.4,0.6,0.6c0.5-9.3,0.6-18.6,0.4-27.9c-0.1-4.3-0.3-8.7-0.6-13   c-0.1-1.2-0.1-2.3-0.2-3.5c-0.1-1.1-0.4-2.4-0.3-3.5c0.2-2.2,1.8-1.8,3.3-1.9c1.2-0.1,2.4-0.1,3.6-0.2   C253.2,272.4,253,271.3,252.3,271.3L252.3,271.3z" />
	<path
   id="path35438"
   d="M275.5,271.9c2.1,0.2,4.2,0.4,6.4,0.5l-0.5-0.5c-1,9.1-1.3,18.3-0.9,27.5c0.2,4.4,0.5,8.8,1,13.2l0.4,3.1   c0.1,1.2,0.7,2.7-0.1,3.7c-0.7,1-2.4,0.9-3.7,1.1l-3.9,0.7c-0.3,0-0.5,0.3-0.4,0.6s0.3,0.5,0.6,0.4c0,0,0,0,0.1,0   c2.4-0.4,5.2-0.5,7.5-1.3c1.5-0.5,1.4-1.5,1.2-2.8c-0.6-5.2-1.2-10.5-1.5-15.7c-0.6-10.1-0.3-20.2,0.8-30.3c0-0.3-0.2-0.5-0.5-0.5   c-2.1-0.2-4.2-0.4-6.4-0.5c-0.3-0.1-0.5,0.1-0.6,0.4C275,271.5,275.2,271.8,275.5,271.9C275.5,271.9,275.5,271.9,275.5,271.9   L275.5,271.9z" />
	<path
   id="path35440"
   d="M253.5,279.3c-1.3,1.7-0.5,4.1,1.5,4.9c2.6,1.1,5.8-1.2,6.8-3.6c1.1-2.4-0.7-4.5-3.1-4.9   c-2.5-0.4-4.9,0.9-6,3.2c-0.4,0.8,0.8,1.5,1.2,0.7c0.5-1.2,1.5-2.1,2.8-2.5c1.4-0.4,3.9-0.1,4.1,1.8c0.1,1.7-1.9,3.5-3.4,4   c-0.9,0.3-1.9,0.3-2.6-0.5c-0.6-0.6-0.9-1.5-0.3-2.2C255.1,279.6,254.1,278.6,253.5,279.3L253.5,279.3z" />
	<path
   id="path35442"
   d="M266.7,274.8c-2.4,2.6-4,5.9-4.7,9.4c-0.2,0.9,1.1,1.2,1.3,0.4c0.6-3.3,2.1-6.3,4.3-8.8   C268.3,275.1,267.3,274.2,266.7,274.8z" />
	<path
   id="path35444"
   d="M269.5,278.5c0.1-0.8,0.4-2,1.2-2.3c0.6-0.2,0.6,0.4,0.6,0.9c0,0.5-0.1,1.1-0.3,1.6c-0.5,1.6-1.5,2.8-2.6,4   c-0.3,0.3-0.3,0.7,0,1c0.1,0.1,0.2,0.1,0.3,0.2c2.1,0.4,4.3,0.5,6.4,0.5c0.9,0,0.9-1.4,0-1.4c-2,0.1-4.1-0.1-6.1-0.4l0.3,1.1   c1.8-2,4.3-5.4,3.1-8.2c-0.4-1-1.4-1.1-2.3-0.6c-1.2,0.6-1.8,2-2,3.2C268.1,279,269.4,279.4,269.5,278.5L269.5,278.5z" />
	<path
   id="path35446"
   d="M252.3,339.6c-1.3,0.1-2.6,0.1-3.9,0.2c-0.8,0.1-1.8,0-2.6,0.2c-1.5,0.5-1.3,2-1.2,3.3   c0.4,5.3,0.7,10.6,0.9,15.9c0.4,10.4,0.2,20.9-0.3,31.3c0,0.3,0.2,0.6,0.5,0.6c0,0,0.1,0,0.1,0c3.6-0.2,7.3-0.5,11-0.7   c0.7,0,0.5-1.1-0.2-1.1c-3.6,0.2-7.3,0.5-11,0.7c0.2,0.2,0.4,0.4,0.6,0.6c0.5-9.3,0.6-18.6,0.4-27.9c-0.1-4.3-0.3-8.7-0.6-13   c-0.1-1.2-0.1-2.3-0.2-3.5c-0.1-1.1-0.4-2.4-0.3-3.5c0.2-2.2,1.8-1.8,3.3-1.9c1.2-0.1,2.4-0.1,3.6-0.2   C253.2,340.6,253,339.5,252.3,339.6L252.3,339.6z" />
	<path
   id="path35448"
   d="M275.5,340.1c2.1,0.2,4.2,0.4,6.4,0.5l-0.5-0.5c-1,9.1-1.3,18.3-0.9,27.5c0.2,4.4,0.5,8.8,1,13.2l0.4,3.1   c0.1,1.2,0.7,2.7-0.1,3.7c-0.7,1-2.4,0.9-3.7,1.1l-3.9,0.7c-0.3,0-0.5,0.3-0.4,0.6c0,0.3,0.3,0.5,0.6,0.4c0,0,0,0,0.1,0   c2.4-0.4,5.2-0.5,7.5-1.3c1.5-0.5,1.4-1.5,1.2-2.8c-0.6-5.2-1.2-10.5-1.5-15.7c-0.6-10.1-0.3-20.2,0.8-30.3c0-0.3-0.2-0.5-0.5-0.5   c-2.1-0.2-4.2-0.4-6.4-0.5c-0.3-0.1-0.5,0.1-0.6,0.4C275,339.8,275.2,340,275.5,340.1C275.5,340.1,275.5,340.1,275.5,340.1   L275.5,340.1z" />
	<path
   id="path35450"
   d="M253.5,347.6c-1.3,1.7-0.5,4.1,1.5,4.9c2.6,1.1,5.8-1.2,6.8-3.6c1.1-2.4-0.7-4.5-3.1-4.9   c-2.5-0.4-4.9,0.9-6,3.2c-0.4,0.8,0.8,1.5,1.2,0.7c0.5-1.2,1.5-2.1,2.8-2.5c1.4-0.4,3.9-0.1,4.1,1.8c0.1,1.7-1.9,3.5-3.4,4   c-0.9,0.3-1.9,0.3-2.6-0.5c-0.6-0.6-0.9-1.5-0.3-2.2C255.1,347.8,254.1,346.9,253.5,347.6L253.5,347.6z" />
	<path
   id="path35452"
   d="M266.7,343.1c-2.4,2.6-4,5.9-4.7,9.4c-0.2,0.9,1.1,1.2,1.3,0.4c0.6-3.3,2.1-6.3,4.3-8.8   C268.3,343.4,267.3,342.4,266.7,343.1L266.7,343.1z" />
	<path
   id="path35454"
   d="M269.5,346.8c0.1-0.8,0.4-2,1.2-2.3c0.6-0.2,0.6,0.4,0.6,0.9c0,0.5-0.1,1.1-0.3,1.6c-0.5,1.6-1.5,2.8-2.6,4   c-0.3,0.3-0.3,0.7,0,1c0.1,0.1,0.2,0.1,0.3,0.2c2.1,0.4,4.3,0.5,6.4,0.5c0.9,0,0.9-1.4,0-1.4c-2,0.1-4.1-0.1-6.1-0.4l0.3,1.1   c1.8-2,4.3-5.4,3.1-8.2c-0.4-1-1.4-1.1-2.3-0.6c-1.2,0.6-1.8,2-2,3.2C268.1,347.3,269.4,347.6,269.5,346.8L269.5,346.8z" />
	<path
   id="path35456"
   d="M256.6,365.9c1.9-1.2,3.1-3.2,3.3-5.4c0.1-0.9-1.3-0.9-1.4,0c-0.4,2.9-0.6,5.7-0.8,8.6l0.7-0.7   c-0.6,0-1.2,0.2-1.8,0.5c-0.3,0.2-0.4,0.6-0.2,1c0.1,0.2,0.3,0.3,0.6,0.3l2.8,0c0.9,0,0.9-1.4,0-1.4l-2.8,0l0.3,1.3l1.1-0.3   c0.4,0,0.7-0.3,0.7-0.7c0.2-2.9,0.4-5.7,0.8-8.6h-1.4c-0.2,1.7-1.1,3.3-2.6,4.2C255.2,365.2,255.9,366.4,256.6,365.9L256.6,365.9z" />
	<path
   id="path35458"
   d="M265.2,359.8c-0.7,3.4-1.8,6.7-3,10c-0.3,0.8,1,1.2,1.3,0.4c1.3-3.2,2.3-6.6,3-10   C266.7,359.3,265.4,359,265.2,359.8z" />
	<path
   id="path35460"
   d="M269.9,362.1c1.4-0.6,1.8-0.3,1.2,1c-0.3,0.5-0.8,0.9-1.4,1c-0.5,0.2-0.7,1.2,0,1.3c1.1,0.2,2.4,1,2,2.4   c-0.7,2.2-3.1,0.7-3.6-0.6c-0.3-0.8-1.6-0.5-1.3,0.4c0.9,2.2,3.7,3.8,5.6,1.7c1.9-2.1,0-4.8-2.3-5.2v1.3c1.8-0.7,3.6-2.8,2.1-4.7   c-1.2-1.5-3.8-0.6-3.6,1.4C268.6,363,270,363,269.9,362.1L269.9,362.1z" />
	<path
   id="path35462"
   d="M255.3,312.1c-0.9,2.5-0.5,5.3,2.3,6.4c2.2,0.9,4.7-2.2,5.3-4.1c0.7-2.3-1-5.1-3.2-5.8   c-2.9-0.9-3.7,2.6-4.4,4.5c-0.3,0.8,1,1.2,1.3,0.4c0.2-0.6,0.4-1.2,0.6-1.8c0.4-1.1,0.5-1.6,1.7-1.6c2.1,0,3.4,2.6,2.4,4.4   c-0.6,1.1-2.1,3-3.6,2.5c-2-0.7-1.7-3.1-1.2-4.6C257,311.6,255.7,311.3,255.3,312.1L255.3,312.1z" />
	<path
   id="path35464"
   d="M266.7,308.3l-2,8.9c-0.2,0.9,1.1,1.2,1.3,0.4l2-8.9C268.2,307.8,266.9,307.5,266.7,308.3L266.7,308.3z" />
	<path
   id="path35466"
   d="M270.2,314.3c1-0.4,1.9-1.2,2.6-2.1c0.8-1.2,0.5-2.4,1.1-3.6l-1.3-0.3c0.1,1.6-0.1,3.3-0.3,4.9   c-0.2,1.4-0.1,3.6-1.9,3.4c-0.8-0.1-0.9,1.2-0.2,1.3c1.1,0.3,2.3,0.4,3.4,0.2c0.9-0.1,0.9-1.5,0-1.4c-1,0.1-2,0.1-3-0.2l-0.2,1.3   c2.3,0.2,2.4-0.2,2.8-2.4c0.5-2.4,0.8-4.8,0.7-7.3c0-0.6-1-1-1.3-0.3c-0.4,0.8-0.3,1.6-0.5,2.5c-0.3,1.3-1.4,2.2-2.6,2.7   C268.7,313.5,269.4,314.7,270.2,314.3L270.2,314.3z" />
	
	
	
	
	
	
	
	
	
	
	
	
	
	
	
	
	
	
	
	
	
	<path
   id="path35538"
   d="M112.8,391.4l3.8-0.3c0.9-0.1,0.9-1.4,0-1.4l-3.8,0.3C111.9,390.1,111.9,391.4,112.8,391.4z" />
	
	
	
	
	
	
	
	
	
	
	
	
	
	
	
	
	
	
	
	
	
	
	
	
	
	
	
	
	
	
	
	
	
	
	
	
	
	
	
	
	
	
	
	
	
	
	
	
	
	
	
	
	
	
	
	
	
	
	
	
	
	
	
	
	
	
	
	
	
	
	
	
	
	
	
	
	
	
	
	
	
	
	
	
	
	
	
	
	
	
	
	
	
	
	
	
	
	
	
	
	
	
	
	
	
	
	
	
	
	
	
	
	
	
	
	
	
	
	
	
	
	
	
	
	
	
	
	
	
	
	
	
	
	
	
	
	
	
	
	
	
	
	
	
	
	
	
	
	
	<path
   id="path76"
   d="M250.9,154.8v-0.6c0-0.3-0.2-0.5-0.5-0.5c-0.3,0-0.5,0.2-0.5,0.5l-0.7,16.4c0,0.7,1.1,0.7,1.1,0l0.7-16.4h-1.1   v0.6c0,0.3,0.2,0.5,0.5,0.5C250.6,155.3,250.9,155.1,250.9,154.8L250.9,154.8z" />
	<path
   id="path77"
   d="M250.5,155.2c4-0.4,6.4,1.8,6.3,5.8c-0.1,4.4-1.7,8.7-6.8,8.7c-0.3,0-0.5,0.2-0.5,0.5s0.2,0.5,0.5,0.5   c9.8,0,11.4-17.9,0.5-16.7C249.8,154.2,249.8,155.3,250.5,155.2L250.5,155.2z" />
	<path
   id="path78"
   d="M264,163.6c1.3-1.9,0.2-4.6-2.3-4.5c-3.1,0.2-3.4,4.1-3.3,6.4c0,1.4,0.6,5.7,2.8,4.5c1.1-0.6,1.9-2.4,2.3-3.5   c0.7-1.7,0.9-3.6,0.7-5.5c-0.1-0.7-1.1-0.7-1.1,0c0.1,2.5,0.4,5,1,7.5c0.2,0.7,1.2,0.4,1.1-0.3c-0.5-2.4-0.9-4.8-1-7.2h-1.1   c0.2,1.4,0.1,2.9-0.3,4.3c-0.2,0.7-0.5,1.3-0.8,1.9c-0.1,0.3-0.3,0.6-0.5,0.8c-0.9,0.8-1.4,0.8-1.6,0c-0.7-0.7-0.5-2.9-0.4-3.8   c0-1,0.1-1.9,0.6-2.8l0.9-1c2.4,0.2,3.1,1.1,2.1,2.6C262.7,163.6,263.6,164.2,264,163.6L264,163.6z" />
	<path
   id="path79"
   d="M268,155c-0.8,2.7-3.4,17.9,3.3,14.6c0.6-0.3,0.1-1.3-0.6-0.9c-3.2,1.6-2.9-6-2.8-7.1c0.1-2.1,0.5-4.3,1.2-6.3   c0.1-0.3-0.1-0.6-0.4-0.7C268.4,154.5,268.1,154.7,268,155L268,155z" />
	<path
   id="path80"
   d="M265.7,161.2l5.7-0.3c0.7,0,0.7-1.1,0-1.1l-5.7,0.3C264.9,160.1,264.9,161.2,265.7,161.2z" />
	<path
   id="path81"
   d="M279,162.7c0.9-2.2-2-3.2-3.7-2.6c-2.3,0.9-3.6,3.3-3.2,5.8c0.3,1.8,2,4.4,4.1,3.8c1-0.3,1.7-1.2,1.8-2.3   c0.3-1.9,0.3-3.9,0.4-5.8l-1.1,0.1l2,7.5c0.1,0.3,0.4,0.5,0.7,0.4c0.3-0.1,0.5-0.4,0.4-0.7l-2-7.5c-0.1-0.3-0.4-0.4-0.7-0.4   c-0.2,0.1-0.4,0.3-0.4,0.5l-0.3,3.9c-0.1,0.9,0,3.9-2.2,2.8c-0.6-0.4-1-0.9-1.3-1.5c-0.5-1.2-0.5-2.5,0-3.6   c0.2-0.5,0.5-0.9,0.9-1.2c0.3-0.3,0.6-0.5,0.9-0.7c1.2-0.7,2.1-0.3,2.6,1.2C277.6,163,278.7,163.3,279,162.7L279,162.7z" />
	<path
   id="path82"
   d="M243.4,172.5c-0.1,4.7,0.1,9.4,0.4,14.1c0.1,0.7,1.1,0.7,1.1,0c-0.3-4.7-0.4-9.4-0.4-14.1   c0-0.3-0.2-0.5-0.5-0.5C243.6,171.9,243.4,172.2,243.4,172.5z" />
	<path
   id="path83"
   d="M246.2,182.2c-0.1,1.9,0.3,5.7,3.2,5.2c2.1-0.4,2.9-3.6,3.1-5.3c0.2-2.1-0.8-4.3-3.1-4.5   c-2.3-0.2-3.7,2.1-3.4,4.2c0.1,0.7,1.2,0.4,1.1-0.3c-0.3-2,1.8-3.7,3.5-2.2c1,0.9,1,2.4,0.7,3.6c-0.2,0.9-0.5,1.7-0.9,2.5   c-0.3,0.7-0.8,0.8-1.5,0.3c-0.9,0.1-1.4-0.3-1.5-1.1c-0.1-0.8-0.2-1.5-0.1-2.3C247.3,181.6,246.2,181.6,246.2,182.2L246.2,182.2z" />
	<path
   id="path84"
   d="M257.5,179.1c-0.7-0.9-2.3-1.8-3.3-0.9c-0.4,0.5-0.6,1.2-0.6,1.9c-0.2,1.4-0.2,2.7-0.3,4.1   c0,1.4-0.3,3.2,1.4,3.5c1.7,0.3,3.1-1.1,3.8-2.5c0.3-0.6-0.6-1.2-0.9-0.5c-0.5,0.9-1.7,2.5-2.8,1.7c-0.7-0.5-0.4-2.1-0.3-2.9   s0.1-1.7,0.2-2.5c0-0.6-0.1-1.5,0.4-1.8s1.3,0.1,1.7,0.7S257.9,179.7,257.5,179.1L257.5,179.1z" />
	<path
   id="path85"
   d="M259.6,177.9c-0.2,2.3-0.6,5.1-0.3,7.4c0.1,1.1,1,2,2.1,2.1c4.1,0.2,4.1-5.9,4-8.5c0-0.7-1.1-0.7-1.1,0   l0.3,9.2c0,0.7,1.1,0.7,1.1,0l-0.3-9.2h-1.1c0.1,1.2,0.1,2.4,0,3.6c-0.1,0.6-0.2,1.3-0.5,1.8c-0.1,0.3-0.3,0.7-0.5,0.9   c-0.6,1.1-1.6,0.9-2.9-0.5c-0.3-0.7,0-2.2,0.1-3c0.1-1.3,0.1-2.5,0.2-3.7C260.8,177.1,259.7,177.1,259.6,177.9L259.6,177.9z" />
	<path
   id="path86"
   d="M270.5,178.2c-1.5-2.1-3.6,0.2-4.1,1.8c-0.4,1-0.1,2,0.7,2.7c0.5,0.4,1.1,0.8,1.7,1c0.3,0.1,0.6,0.3,0.9,0.5   c0.7,1.8,0.5,2.6-0.7,2.5c-0.5,0.1-1.1,0-1.6-0.1c-0.7-0.1-1,0.9-0.3,1c1.7,0.3,5.1,0.1,4.6-2.5c-0.2-1-1.1-1.7-2-2.1   c-0.6-0.3-1.2-0.6-1.7-0.9c-0.7-0.4-1-1.2-0.7-2c0,0,0,0,0,0c0.2-0.5,1.3-2.4,2-1.4C269.9,179.3,270.9,178.7,270.5,178.2   L270.5,178.2z" />
	<path
   id="path87"
   d="M278.7,181.6c2.6-2.1,5-4.2,6-7.5c0.2-0.7-0.8-1.1-1-0.4c-0.6,1.6-0.8,3.2-0.7,4.9c0,1,0.2,1.9,0.3,2.9   c0.1,0.6,0.1,1.3,0.2,1.9c0.5,1.8-0.4,2.9-2.5,3.4l-0.4,1c2,0,4,0.1,6,0.3c0.3,0,0.6-0.2,0.6-0.5s-0.2-0.6-0.5-0.6   c-2-0.2-4-0.4-6-0.3c-0.3,0-0.6,0.2-0.6,0.5c0,0.2,0.1,0.4,0.2,0.5c1.5,1.4,3.4,0.4,4-1.3c1.4-3.9-1.1-8.2,0.5-12.3l-1-0.4   c-0.8,3.1-3.2,5.1-5.6,7C277.4,181.2,278.1,182.1,278.7,181.6L278.7,181.6z" />
	
	
	
	
	
	
	
	
	
	
	
	
	
	
	
	
	
	
	
	
	
	
	
	
	
	
	
	
	
	
	
	
	
	
	
	
	
	
	
	
	
	
	
	
	
	
	
	
	
	
	
	
	
	
	
	
	
	
	
	
	
	
	
	
	
	
	
	
	
	
	
	
	
	
	
	
	
	
	
	
	
	
	
	
	
	
	
	
	
	
	
	
	
	
	
	
	
	
	
	
	
	<path
   id="rect136-3_2_"
   class="st11"
   d="M241,192.9h45.6c0.3,0,0.5,1.9,0.5,4.2V390c0,2.3-0.2,4.2-0.5,4.2H241   c-0.3,0-0.5-1.9-0.5-4.2V197.1C240.5,194.8,240.7,192.9,241,192.9z" />
	
	
	
	
	
	
	
	
	
	
	
	
	
	
	
	
	
	
	
	
	
	
	
	
	
	
	
	
	
	
	
	
	
	
</g>
<metadata
   id="metadata117"><rdf:RDF><cc:Work
       rdf:about=""><dc:title>sel_hmm</dc:title></cc:Work></rdf:RDF></metadata></svg>
