<?xml version="1.0" encoding="UTF-8" standalone="no"?>
<!-- Generator: Adobe Illustrator 23.0.3, SVG Export Plug-In . SVG Version: 6.00 Build 0)  -->

<svg
   version="1.1"
   id="svg134"
   x="0px"
   y="0px"
   viewBox="0 0 700 414.9"
   style="enable-background:new 0 0 700 414.9;"
   xml:space="preserve"
   sodipodi:docname="sel_hmm_hidden_process.svg"
   inkscape:version="1.3.2 (091e20e, 2023-11-25)"
   xmlns:inkscape="http://www.inkscape.org/namespaces/inkscape"
   xmlns:sodipodi="http://sodipodi.sourceforge.net/DTD/sodipodi-0.dtd"
   xmlns="http://www.w3.org/2000/svg"
   xmlns:svg="http://www.w3.org/2000/svg"
   xmlns:rdf="http://www.w3.org/1999/02/22-rdf-syntax-ns#"
   xmlns:cc="http://creativecommons.org/ns#"
   xmlns:dc="http://purl.org/dc/elements/1.1/"><defs
   id="defs117" />
<style
   type="text/css"
   id="style1">
	.st0{opacity:0.3;fill:#1F77B4;enable-background:new    ;}
	.st1{opacity:0.3;fill:#FF7F0E;enable-background:new    ;}
	.st2{opacity:0.3;fill:#2CA02C;enable-background:new    ;}
	.st3{fill:none;stroke:#FF7F0E;stroke-width:0.6722;stroke-linejoin:round;stroke-dasharray:2.4872,1.0755;}
	.st4{stroke:#000000;stroke-width:1.5041;}
	.st5{stroke:#000000;stroke-width:1.1416;}
	.st6{fill:none;stroke:#000000;stroke-width:1.7808;stroke-linecap:round;stroke-linejoin:round;}
	.st7{fill:#8C0000;}
	.st8{fill:#870303;stroke:#000000;stroke-width:2;stroke-linecap:round;stroke-linejoin:round;}
	.st9{fill:none;stroke:#000000;stroke-width:0.5106;stroke-linecap:round;stroke-linejoin:round;}
	.st10{fill:#010B7F;}
	.st11{fill:none;stroke:#000000;stroke-width:0.4;stroke-linecap:round;stroke-linejoin:round;}
</style>
<sodipodi:namedview
   bordercolor="#000000"
   borderopacity="0.25"
   id="namedview134"
   inkscape:current-layer="Layer_1"
   inkscape:cx="344.08234"
   inkscape:cy="146.92567"
   inkscape:deskcolor="#d1d1d1"
   inkscape:pagecheckerboard="0"
   inkscape:pageopacity="0.0"
   inkscape:showpageshadow="2"
   inkscape:window-height="847"
   inkscape:window-maximized="1"
   inkscape:window-width="1384"
   inkscape:window-x="62"
   inkscape:window-y="25"
   inkscape:zoom="0.79632102"
   pagecolor="#ffffff">
	</sodipodi:namedview>
<title
   id="title1">sel_hmm</title>
<g
   id="Layer_1">
	<path
   id="rect136-2"
   class="st9"
   d="M148.8,49.3h515.4c3.1,0,5.6,0.5,5.6,1.2v53.3c0,0.6-2.5,1.2-5.6,1.2H148.8   c-3.1,0-5.6-0.5-5.6-1.2V50.5C143.2,49.8,145.7,49.3,148.8,49.3z"
   style="fill:#ececec;fill-opacity:1" />
	
	
	
	
	
	
	
	
	
	
	
	
	
	
	
	
	
	
	
	
	
	
	
	
	
	
	
	
	
	
	
	
	
	
	
	
	
	
	
	
	
	
	
	
	
	
	
	
	
	
	
	
	
	
	
	
	
	
	
	
	
	
	
	
	
	
	
	
	
	
	
	
	
	
	
	
	
	
	
	
	
	
	
	
	
	
	
	
	
	
	
	
	
	
	
	
	
	
	
	
	
	
	
	
	
	
	
	
	
	
	
	
	
	
	
	
	
	
	
	
	
	
	
	
	
	
	
	
	
	
	
	
	
	
	
	
	
	
	
	
	
	
	
	
	
	
	
	
	
	
	
	
	
	
	
	
	
	
	
	
	
	
	
	
	
	
	
	
	
	
	
	
	
	
	
	
	
	
	
	
	
	
	
	
	
	
	
	
	
	
	
	
	
	
	
	
	
	
	
	
	
	
	
	
	
	
	
	
	
	
	
	
	
	
	
	
	
	
	
	
	
	
	
	
	
	
	
	
	
	
	
	
	
	
	
	
	
	
	
	
	
	
	
	
	
	
	
	
	
	
	
	
	
	
	
	
	
	
	
	
	
	
	
	
	
	
	
	
	
	
	
	
	
	
	
	
	
	
	
	
	
	
	
	
	
	
	
	
	
	
	
	
	
	
	
	
	
	
	
	
	
	
	
	
	
	
	
	
	
	
	
	
	
	
	
	
	
	
	
	
	
	
	
	
	
	
	
	
	
	
	
	
	
	
	
	
	
	
	
	
	
	
	
	<path
   id="path35916-6"
   d="M14.9,64.6c0.4,7.1,0.4,14.2,0.2,21.3c0,1.1,1.5,1.1,1.5,0c0.2-7.1,0.2-14.2-0.2-21.3   C16.3,63.5,14.8,63.5,14.9,64.6z" />
	<path
   id="path35918-6"
   d="M24.8,64.4c0.4,7.3,0.4,14.7,0,22.1h1.5l-0.1-1c-0.1-1.1-1.6-1.1-1.5,0l0.1,1c0,0.5,0.3,0.9,0.8,0.9   c0.4,0,0.8-0.4,0.8-0.9c0.4-7.3,0.4-14.7,0-22.1C26.3,63.2,24.7,63.2,24.8,64.4z" />
	<path
   id="path35920-5"
   d="M16.7,76.3c3,0.1,6,0.1,9-0.3c1-0.1,1-1.9,0-1.8c-3,0.3-6,0.4-9,0.3C15.7,74.5,15.7,76.3,16.7,76.3z" />
	<path
   id="path35922-4"
   d="M28.1,73.3v6.2c0,1.5-0.3,3.4,0.2,4.8c0.8,2.3,3.5,2.3,5.3,1c0.9-0.7,0-2.3-0.9-1.6   c-3.3,2.5-2.7-2.5-2.7-4.2v-6.2C30,72.1,28.1,72.1,28.1,73.3z" />
	<path
   id="path35924-5"
   d="M28.7,65.7c-0.5,0.5-0.7,1.2-0.5,1.9c0.1,0.2,0.2,0.4,0.4,0.6c0.2,0.1,0.5,0.2,0.7,0.1   c0.5-0.1,0.8-0.6,0.6-1.1c0,0,0-0.1,0-0.1c0-0.1,0-0.1,0,0.1V67c0,0.2,0,0.2,0,0.1c0,0,0-0.1,0-0.1c-0.1,0.1-0.1,0.2,0,0.1   c-0.2,0.2,0,0,0,0c0.2-0.2,0.3-0.4,0.3-0.7c0-0.5-0.4-0.9-0.9-0.9C29,65.5,28.8,65.6,28.7,65.7L28.7,65.7z" />
	<path
   id="path35926-9"
   d="M41.3,73.7c-0.5-3.8-4.5-4-6.2-0.8c-1,2-1.3,4.7-1.3,6.9c0,2,0.2,4.5,1.5,6.2c0.9,1.1,2.3,1.6,3.5,0.6   c1.6-1.4,1.9-4.5,2.2-6.4c0.4-2.7,0.4-5.3,0.4-8c0.1-3,1.1-5.9,0.9-8.9c-0.1-1.2-1.8-1.2-1.8,0v21.6c0,1.2,1.8,1.2,1.8,0V63.3h-1.8   c0.1,2.9-0.8,5.7-0.9,8.5c-0.1,3,0,5.9-0.6,8.9c-0.1,0.7-0.3,1.4-0.5,2.1c-0.2,0.9-0.1,1.3-1.2,1.4c-1.2,0.2-1.1-0.4-1.4-1.4   c-0.2-0.8-0.3-1.6-0.3-2.4c0-1.5,0.1-3,0.4-4.5c0.1-0.8,0.3-1.5,0.7-2.2l0.3-0.5c0.7-1.3,1.5-1.2,2.5,0.4   C39.6,74.8,41.5,74.8,41.3,73.7L41.3,73.7z" />
	<path
   id="path35928-5"
   d="M50.1,75.6c0.3-1.8,0.1-3.9-1.4-5.1c-1.2-1-3-1-4.1,0c-1.7,1.5-1.8,4.1-1.8,6.2c0,1.6,0,3.1,0.1,4.7   c0.1,1.2-0.1,3,0.4,4.1c0.6,1.4,2.6,1.3,3.7,0.5c1.7-1.3,2.1-3.8,2.5-5.8c1.3-6.1,1.7-12.3,1.4-18.5c0-0.5-0.4-0.9-0.9-0.9   c-0.5,0-0.9,0.4-0.9,0.9c-0.5,6.2-0.7,12.4-0.6,18.7c0,1.5,0,3,0.1,4.5c0,0.6,0,1.5,0.6,2c0.9,0.8,2,0,2.1-1.1c0-1.2-1.8-1.2-1.8,0   l0-0.2l0.9-0.2c-0.2,0,0-10.3,0-11.5c0.1-4.1,0.3-8.1,0.6-12.2h-1.8c0.4,6.5-0.1,13.1-1.6,19.5c-0.1,0.6-0.3,1.2-0.5,1.8   c-0.1,0.8-0.5,1.1-1.2,0.8c-0.7,0.2-1-0.1-0.8-0.9c-0.4-1.4-0.2-3.3-0.2-4.7c0-1.5-0.1-3.2,0.3-4.6c0.4-1.3,1.5-3,3-1.3   c0.7,0.7,0.7,1.9,0.5,2.9C48.2,76.3,49.9,76.7,50.1,75.6L50.1,75.6z" />
	<path
   id="path35930-7"
   d="M52.9,80.6c3.4,0,6.2-1.6,6.2-5.4c-0.1-2.9-3-5.9-5.7-3.6c-2.8,2.5-2.6,7.9-1.6,11.1   c1,3.1,4.1,4.9,6.9,2.6c0.9-0.7-0.4-2.1-1.3-1.3c-4.3,3.4-4.6-7-4-8.9c0.3-1.1,1.3-3.4,3.1-2.1c0.9,0.7,0.9,2.4,0.7,3.4   c-0.6,2-2.4,2.3-4.2,2.3C51.7,78.7,51.7,80.6,52.9,80.6L52.9,80.6z" />
	<path
   id="path35932-7"
   d="M60.1,70.5c-0.2,5.3-0.2,10.6-0.1,15.9c0,0.5,0.4,0.9,0.9,0.9c0.5,0,0.9-0.4,0.9-0.9c0-2.5,0.2-5,0.6-7.4   c0.2-1,0.4-2,0.7-2.9c0.1-0.4,0.3-1.6,0.8-1.8l1.5,0.2c0.1,0.3,0.2,0.7,0.2,1.1c0.3,2.4,0.1,4.8,0.1,7.2c0,1.4-0.3,3,1,3.9   c1,0.7,1.9-0.9,0.9-1.6c-0.4-0.3-0.1-2.6-0.1-3.1v-2.3c0.1-1.5,0-3-0.1-4.5c-0.2-1.6-1.2-4.1-3.3-3.5c-2.1,0.6-2.8,3.8-3.2,5.5   c-0.7,3-0.8,6.2-1,9.2h1.8c-0.1-5.3-0.1-10.6,0.1-15.9C62,69.3,60.2,69.3,60.1,70.5z" />
	<path
   id="path35934-9"
   d="M82,68l-0.3,19.3c0,1.2,1.8,1.2,1.8,0L83.8,68C83.8,66.8,82,66.8,82,68z" />
	<path
   id="path35936-0"
   d="M84.3,69.5c2.6-2.1,5.7,1.5,5.8,4c0.2,3.5-3.4,4.5-6.2,4.3c-1.2-0.1-1.2,1.8,0,1.8   c4.4,0.3,9.4-2.5,7.8-7.6c-1.1-3.7-5.3-6.7-8.7-3.9C82.1,69,83.4,70.3,84.3,69.5L84.3,69.5z" />
	<path
   id="path35938-1"
   d="M93.1,77.8c0.5-1.1,1.2-2,2.1-2.7l-1.5-0.4c0.8,2.6,3.7,2.6,4.6,0.1l-1.8-0.5c-0.3,2.2-0.8,4.4-1.4,6.5   c-0.5,1.8-1.5,3.7-1.3,5.6c0.3,2.2,3.1,3.7,4.4,1.4c0.6-1-1-2-1.6-0.9c-1-0.6-1.3-1.3-0.8-2.3c0.1-0.4,0.3-0.8,0.4-1.2   c0.3-0.9,0.6-1.9,0.9-2.8c0.5-1.9,0.9-3.8,1.2-5.8c0.1-0.5-0.2-1-0.6-1.1c-0.5-0.1-1,0.2-1.1,0.6l-1-0.1c-0.2-0.5-0.7-0.8-1.2-0.6   c-0.1,0-0.3,0.1-0.4,0.2c-1,0.8-1.9,1.9-2.4,3.1C91,77.9,92.6,78.8,93.1,77.8L93.1,77.8z" />
	<path
   id="path35940-0"
   d="M99.6,77.4c-1.3,3-1.5,7.1,0.5,9.8c0.8,1,2,1.9,3.3,1.4c1.6-0.6,2.1-2.8,2.6-4.3   c0.9-3.1,1.6-8.2-1.6-10.4c-3.2-2.1-5.3,2.4-6.1,4.7c-0.4,1.1,1.4,1.6,1.8,0.5c0.6-1.7,2.5-5.7,4.2-2.5c1.1,2.1,0.6,4.7,0,6.8   c-0.2,0.7-0.4,2.4-1,2.8c-1.5,1.4-2.4-1.4-2.6-2.2c-0.5-1.9-0.3-4,0.5-5.8C101.6,77.3,100,76.3,99.6,77.4L99.6,77.4z" />
	<path
   id="path35942-2"
   d="M112.5,79.6c0.5-1.7,0.9-4.8-1.5-5.4s-3.3,2.6-3.6,4.3c-0.5,2.5-0.8,6,0.8,8.3c1.2,1.6,3.2,2,4.7,0.6   c0.9-0.8-0.4-2.1-1.3-1.3c-0.7,0.6-1.8-0.2-2.2-0.8c-0.2-0.5-0.4-1-0.5-1.5c-0.2-1.3-0.2-2.6,0-3.8c0.1-0.8,0.1-2.4,0.7-3.1   c0.1-0.5,0.3-0.6,0.7-0.3c0.5-0.1,0.7,0.1,0.5,0.5c0.2,0.6-0.2,1.5-0.3,2C110.4,80.2,112.2,80.7,112.5,79.6L112.5,79.6z" />
	<path
   id="path35944-7"
   d="M114.8,82.5c3,0.2,5.8-1.5,6.2-4.7c0.3-2.4-1.8-5.4-4.5-4.2c-2.6,1.3-2.9,6.2-2.8,8.7   c0.1,2.8,1.6,6.5,4.9,6.1c1.2-0.1,1.2-2,0-1.8c-4.2,0.5-3-6.8-2.5-9c0.3-1.1,0.3-1.5,1.4-1.8c0.8-0.5,1.4-0.2,1.5,0.8   c0.1,0.6,0.1,1.1-0.2,1.7c-0.6,1.9-2.4,2.4-4.2,2.3C113.6,80.6,113.6,82.4,114.8,82.5L114.8,82.5z" />
	<path
   id="path35946-3"
   d="M129,77.8c-0.2-3.7-4.6-5.8-6.7-2.1c-0.9,1.7-0.7,3.7,0.4,5.2c0.6,0.8,1.3,1.1,2.1,1.6   c1.1,0.7,1.4,1.4,1.1,2.6c-0.3,1.1-2.2,3-3.1,1.1c-0.5-1.1-2.1-0.1-1.6,0.9c1.6,3.5,6.1,1,6.6-1.9c0.3-1.5-0.3-3.1-1.6-4   c-1.2-0.9-2.5-1.4-2.6-3.1c0-0.8,0.4-2.1,1.2-2.4l1.6,0.3c0.5,0.5,0.8,1.1,0.7,1.8C127.2,79,129.1,79,129,77.8L129,77.8z" />
	<path
   id="path35948-3"
   d="M136.5,78.1c0.3-1.7-0.5-3.5-2.3-3.9c-2-0.5-3.6,1.4-4.2,3.1c-0.8,2.2,0,3.7,1.9,4.8   c1.4,0.8,2.6,1.6,2.9,3.2c0.6,2.7-2.7,1.2-4.1,0.7c-1.1-0.4-1.6,1.3-0.5,1.8c2.7,1.1,7,2,6.4-2.4c-0.2-1.5-1-2.9-2.1-3.9   c-0.6-0.5-1.4-0.7-2-1.2c-0.7-0.5-1.1-1.4-0.9-2.3c0.1-0.5,0.4-0.9,0.7-1.3c0.5-1,1.3-0.7,2.3,0.8   C134.5,78.8,136.3,79.3,136.5,78.1L136.5,78.1z" />
	
	
	
	
	
	
	
	
	
	
	
	
	
	
	
	
</g>
<metadata
   id="metadata117"><rdf:RDF><cc:Work
       rdf:about=""><dc:title>sel_hmm</dc:title></cc:Work></rdf:RDF></metadata></svg>
