<?xml version="1.0" encoding="UTF-8" standalone="no"?>
<!-- Generator: Adobe Illustrator 23.0.3, SVG Export Plug-In . SVG Version: 6.00 Build 0)  -->

<svg
   version="1.1"
   id="svg134"
   x="0px"
   y="0px"
   viewBox="0 0 700 414.9"
   style="enable-background:new 0 0 700 414.9;"
   xml:space="preserve"
   sodipodi:docname="sel_hmm_4.svg"
   inkscape:version="1.3.2 (091e20e, 2023-11-25)"
   xmlns:inkscape="http://www.inkscape.org/namespaces/inkscape"
   xmlns:sodipodi="http://sodipodi.sourceforge.net/DTD/sodipodi-0.dtd"
   xmlns="http://www.w3.org/2000/svg"
   xmlns:svg="http://www.w3.org/2000/svg"
   xmlns:rdf="http://www.w3.org/1999/02/22-rdf-syntax-ns#"
   xmlns:cc="http://creativecommons.org/ns#"
   xmlns:dc="http://purl.org/dc/elements/1.1/"><defs
   id="defs117" />
<style
   type="text/css"
   id="style1">
	.st0{opacity:0.3;fill:#1F77B4;enable-background:new    ;}
	.st1{opacity:0.3;fill:#FF7F0E;enable-background:new    ;}
	.st2{opacity:0.3;fill:#2CA02C;enable-background:new    ;}
	.st3{fill:none;stroke:#FF7F0E;stroke-width:0.6722;stroke-linejoin:round;stroke-dasharray:2.4872,1.0755;}
	.st4{stroke:#000000;stroke-width:1.5041;}
	.st5{stroke:#000000;stroke-width:1.1416;}
	.st6{fill:none;stroke:#000000;stroke-width:1.7808;stroke-linecap:round;stroke-linejoin:round;}
	.st7{fill:#8C0000;}
	.st8{fill:#870303;stroke:#000000;stroke-width:2;stroke-linecap:round;stroke-linejoin:round;}
	.st9{fill:none;stroke:#000000;stroke-width:0.5106;stroke-linecap:round;stroke-linejoin:round;}
	.st10{fill:#010B7F;}
	.st11{fill:none;stroke:#000000;stroke-width:0.4;stroke-linecap:round;stroke-linejoin:round;}
</style>
<sodipodi:namedview
   bordercolor="#000000"
   borderopacity="0.25"
   id="namedview134"
   inkscape:current-layer="Layer_1"
   inkscape:cx="221.01639"
   inkscape:cy="121.81017"
   inkscape:deskcolor="#d1d1d1"
   inkscape:pagecheckerboard="0"
   inkscape:pageopacity="0.0"
   inkscape:showpageshadow="2"
   inkscape:window-height="847"
   inkscape:window-maximized="1"
   inkscape:window-width="1384"
   inkscape:window-x="62"
   inkscape:window-y="25"
   inkscape:zoom="0.79632102"
   pagecolor="#ffffff">
	</sodipodi:namedview>
<title
   id="title1">sel_hmm</title>
<g
   id="Layer_1">
	
	
	
	
	
	
	
	
	
	
	
	
	
	
	
	
	
	
	
	
	
	
	
	
	
	
	
	
	
	
	
	
	
	
	
	
	
	
	
	
	
	
	
	
	
	
	
	
	
	
	
	
	
	
	
	
	
	
	
	
	
	
	
	
	
	
	
	
	
	
	
	
	
	
	
	
	
	
	
	
	
	
	
	
	
	
	
	
	
	
	
	
	
	
	
	
	
	
	
	
	
	
	
	
	
	
	
	
	
	
	
	
	
	
	
	
	
	
	
	
	
	
	
	
	
	
	
	
	
	
	
	
	
	
	
	
	
	
	
	
	
	
	
	
	
	
	
	
	
	
	
	
	
	
	
	
	
	
	
	
	
	
	
	
	
	
	
	
	
	
	
	
	
	
	
	
	
	
	
	
	
	
	
	
	
	
	
	
	
	
	
	
	
	
	
	
	
	
	
	
	
	<path
   id="path3"
   d="M410,72.6c-1.5-5.2-8.7-6.4-10.8-0.9c-0.9,2.4-0.2,5.1,1.8,6.8c1.2,1.1,2.7,1.5,4,2.3c1.1,0.7,3.7,3.2,2.7,4.9   l-4.2,2.2c-1.1-0.4-2.2-1-3.2-1.8c-1.6-1.1-3.1,1.5-1.5,2.6c4,2.6,10.1,3.7,11.8-2.2c0.6-2.2,0-4.5-1.4-6.2   c-0.7-0.9-1.7-1.6-2.7-2.1c-0.6-0.3-1.3-0.6-1.9-0.9c-0.5-0.2-1-0.6-1.4-1c-2.3-1.5-1-2.5,4-2.9c0.3,0.8,1.1,1.2,1.9,1   C409.8,74.1,410.2,73.4,410,72.6L410,72.6z" />
	<path
   id="path4"
   d="M414.8,86.9c0.1-2.3,2.3-2.2,2.3,0c-0.1,1-0.6,2-1.3,2.8c-1.3,1.7-2.9,3.2-4.3,4.8c-0.6,0.6-0.6,1.6,0,2.1   c0.2,0.2,0.4,0.3,0.6,0.4c2.6,0.6,5.3,0.6,7.9-0.2c0.8-0.3,1.2-1.2,0.9-1.9c-0.3-0.7-1-1.1-1.7-1c-2,0.6-4.2,0.7-6.3,0.2l0.7,2.5   c3-3.3,8.7-7.9,5.5-12.9c-0.9-1.6-2.8-2.3-4.5-1.7c-2,0.8-2.8,3-2.9,5S414.6,88.9,414.8,86.9L414.8,86.9z" />
	<path
   id="path23"
   d="M298.1,82c11.4,0.3,22.8-0.1,34.2-0.2c7.2-0.1,14.5-0.1,21.7,0.1c5.3,0.1,10.9,0.9,16-0.7   c0.6-0.2,0.8-1.3,0-1.4c-2.4-0.4-4.8-1.3-6.9-2.5l-0.6,1.4c3.2,0.7,6.3,1.6,9.4,2.8l-0.2-1.4c-2.4,1.1-4.7,2.3-6.9,3.7   c-0.8,0.5-0.1,1.8,0.8,1.3c2.2-1.4,4.5-2.7,6.9-3.8c0.7-0.3,0.4-1.2-0.2-1.4c-3.1-1.2-6.2-2.1-9.4-2.8c-0.4-0.1-0.8,0.1-0.9,0.5   c-0.1,0.3,0,0.7,0.3,0.8c2.2,1.3,4.7,2.2,7.3,2.7v-1.4c-5.7,1.8-12.2,0.7-18,0.6c-7-0.1-14-0.1-21,0c-10.8,0.1-21.7,0.5-32.5,0.2   c-0.4,0-0.8,0.3-0.8,0.8S297.6,82,298.1,82L298.1,82z" />
	<path
   id="path29"
   d="M324.1,60.5c0-6.4-5.2-9.7-11.3-8.8c-6.8,1-9,7.8-8.1,14c0.9,5.8,6.3,11.2,12.6,10s7.4-11.7,6.7-16.7   c-0.2-1.4-2.4-0.8-2.2,0.6c0.5,3.9,0.1,10.1-3.2,12.9c-4.4,3.7-10.6-2.2-11.5-6.1c-0.9-3.9-0.4-9.5,3.3-11.7   c4.8-2.7,11.4-0.1,11.4,5.7c0.1,0.6,0.6,1.1,1.2,1C323.6,61.5,324,61.1,324.1,60.5L324.1,60.5z" />
	<path
   id="path30"
   d="M317.1,68.3c1.6,2.8,3.7,5.2,6.3,7.2c1.1,0.9,2.3-1.1,1.1-1.9c-2.2-1.7-4.1-3.9-5.5-6.4   C318.3,65.9,316.4,67,317.1,68.3L317.1,68.3z" />
	<path
   id="path31"
   d="M330.7,52.6c-4.9,6.3-6.5,17.5-1.1,24c0.9,1.1,2.5-0.5,1.6-1.6c-4.5-5.3-3-15.6,1.1-20.8   C333.1,53.1,331.6,51.5,330.7,52.6L330.7,52.6z" />
	<path
   id="path32"
   d="M344.4,66.7c-0.1-7-14.6-1.5-8.7,6.2c2.1,2.7,5.6,2.9,7.2-0.2c1.1-2.2,1.8-5.7,2.5-8c0.8-3,1.1-6.1,0.9-9.3   c-0.1-1.2-2-1.6-2.2-0.3c-0.9,6.4-1.7,12.8-0.9,19.3c0.2,1.4,2.4,1.4,2.2,0c-0.8-6.3-0.1-12.5,0.8-18.7l-2.2-0.3   c0.2,3.7-0.3,7.5-1.6,11c-0.4,1.2-0.7,3.5-1.3,4.5c-2.2,2.7-3.7,2.2-4.5-1.6c0.8-3.4,2.6-4.2,5.5-2.5c0.1,0.6,0.6,1.1,1.2,1   C343.9,67.8,344.4,67.3,344.4,66.7L344.4,66.7z" />
	<path
   id="path33"
   d="M349.3,69.8c0.2-1.4,1.5-0.7,1.1,0.5c-0.3,0.7-0.9,1.4-1.5,1.9c-0.9,0.8-2.2,1.8-2.4,3   c-0.5,2.9,4.5,1.9,5.9,1.7c1.4-0.2,0.8-2.4-0.6-2.2c-0.7,0.1-1.4,0.2-2.1,0.2c-0.4,0-0.8,0-1.2,0l0.2,0.7c0.1,0,2.2-2.2,2.4-2.4   c1.2-1.2,2.3-3,1.6-4.7c-0.5-1.3-1.8-2-3.2-1.9c-1.7,0.2-2.1,1.8-2.3,3.2S349.1,71.3,349.3,69.8L349.3,69.8z" />
	<path
   id="path34"
   d="M351.8,54.5c1.5,3.1,3,6.2,3.6,9.6c0.7,4.1-0.6,7.7-2.2,11.4c-0.6,1.3,1.6,1.9,2.2,0.6   c1.5-3.6,2.8-7.2,2.4-11.1c-0.5-4.1-2.3-7.9-4-11.6C353.1,52,351.2,53.2,351.8,54.5L351.8,54.5z" />
	
	
	
	
	
	
	
	
	
	
	
	
	
	
	
	
	
	
	
	
	
	
	
	
	
	
	
	
	
	
	
	
	
	
	
	
	
	
	
	
	
	
	
	
	
	
	
	
	
	
	
	
	
	
	
	
	
	
	
	
	
	
	
	
	
	
	
	
	
	
	
	
	
	
	
	
	
	
	
	
	
	
	
	
	
	
	
	
	
	
	
	
	
	
	
	
	
	
	
	
	
	
	
	
	
	
	
	
	
	
	
	
	
	
	
	
	
	
	
	
	
	
	
	
	
	
	
	
	
	
	
	
	
	
	
	
	
	
	
	
	
	
	
	
	
	
	
	
	
	
	
	
	
	
	
	
	
	
	
	
	
	
	
	
	
	
	
</g>
<metadata
   id="metadata117"><rdf:RDF><cc:Work
       rdf:about=""><dc:title>sel_hmm</dc:title></cc:Work></rdf:RDF></metadata></svg>
