<?xml version="1.0" encoding="UTF-8" standalone="no"?>
<!-- Generator: Adobe Illustrator 23.0.3, SVG Export Plug-In . SVG Version: 6.00 Build 0)  -->

<svg
   version="1.1"
   id="svg134"
   x="0px"
   y="0px"
   viewBox="0 0 700 414.9"
   style="enable-background:new 0 0 700 414.9;"
   xml:space="preserve"
   sodipodi:docname="sel_hmm_5.svg"
   inkscape:version="1.3.2 (091e20e, 2023-11-25)"
   xmlns:inkscape="http://www.inkscape.org/namespaces/inkscape"
   xmlns:sodipodi="http://sodipodi.sourceforge.net/DTD/sodipodi-0.dtd"
   xmlns="http://www.w3.org/2000/svg"
   xmlns:svg="http://www.w3.org/2000/svg"
   xmlns:rdf="http://www.w3.org/1999/02/22-rdf-syntax-ns#"
   xmlns:cc="http://creativecommons.org/ns#"
   xmlns:dc="http://purl.org/dc/elements/1.1/"><defs
   id="defs117" />
<style
   type="text/css"
   id="style1">
	.st0{opacity:0.3;fill:#1F77B4;enable-background:new    ;}
	.st1{opacity:0.3;fill:#FF7F0E;enable-background:new    ;}
	.st2{opacity:0.3;fill:#2CA02C;enable-background:new    ;}
	.st3{fill:none;stroke:#FF7F0E;stroke-width:0.6722;stroke-linejoin:round;stroke-dasharray:2.4872,1.0755;}
	.st4{stroke:#000000;stroke-width:1.5041;}
	.st5{stroke:#000000;stroke-width:1.1416;}
	.st6{fill:none;stroke:#000000;stroke-width:1.7808;stroke-linecap:round;stroke-linejoin:round;}
	.st7{fill:#8C0000;}
	.st8{fill:#870303;stroke:#000000;stroke-width:2;stroke-linecap:round;stroke-linejoin:round;}
	.st9{fill:none;stroke:#000000;stroke-width:0.5106;stroke-linecap:round;stroke-linejoin:round;}
	.st10{fill:#010B7F;}
	.st11{fill:none;stroke:#000000;stroke-width:0.4;stroke-linecap:round;stroke-linejoin:round;}
</style>
<sodipodi:namedview
   bordercolor="#000000"
   borderopacity="0.25"
   id="namedview134"
   inkscape:current-layer="Layer_1"
   inkscape:cx="221.01639"
   inkscape:cy="121.81017"
   inkscape:deskcolor="#d1d1d1"
   inkscape:pagecheckerboard="0"
   inkscape:pageopacity="0.0"
   inkscape:showpageshadow="2"
   inkscape:window-height="847"
   inkscape:window-maximized="1"
   inkscape:window-width="1384"
   inkscape:window-x="62"
   inkscape:window-y="25"
   inkscape:zoom="0.79632102"
   pagecolor="#ffffff">
	</sodipodi:namedview>
<title
   id="title1">sel_hmm</title>
<g
   id="Layer_1">
	
	
	
	
	
	
	
	
	
	
	
	
	
	
	
	
	
	
	
	
	
	
	
	
	
	
	
	
	
	
	
	
	
	
	
	
	
	
	
	
	
	
	
	
	
	
	
	
	
	
	
	
	
	
	
	
	
	
	
	
	
	
	
	
	
	
	
	
	
	
	
	
	
	
	
	
	
	
	
	
	
	
	
	
	
	
	
	
	
	
	
	
	
	
	
	
	
	
	
	
	
	
	
	
	
	
	
	
	
	
	
	
	
	
	
	
	
	
	
	
	
	
	
	
	
	
	
	
	
	
	
	
	
	
	
	
	
	
	
	
	
	
	
	
	
	
	
	
	
	
	
	
	
	
	
	
	
	
	
	
	
	
	
	
	
	
	
	
	
	
	
	
	
	
	
	
	
	
	
	
	
	
	
	
	
	
	
	
	
	
	
	
	
	
	
	
	
	
	
	
	
	
	
	
	
	
	
	
	
	
	
	
	
	
	
	
	
	
	
	<path
   id="path24"
   d="M442.3,79.7c7.1-0.2,14.2-0.1,21.2,0.3c0.4,0,0.7-0.3,0.7-0.8c0-0.3-0.2-0.6-0.5-0.7l-2.4-1.6l-0.9,1.1   c3.5,1.1,7.2,1.6,10.9,1.6v-1.5c-3.6,0.3-7.1,1.1-10.4,2.4c-0.9,0.3-0.5,1.8,0.4,1.4c3.2-1.2,6.6-2,10-2.3c0.4,0,0.8-0.3,0.8-0.8   s-0.3-0.8-0.8-0.8l0,0c-3.5,0-7.1-0.6-10.5-1.6c-0.4-0.1-0.8,0.1-0.9,0.6c0,0.2,0,0.4,0.1,0.5c0.6,1.3,1.9,2.1,3.3,2.3l0.2-1.5   c-7.1-0.4-14.2-0.5-21.2-0.3c-0.4,0-0.8,0.3-0.8,0.8S441.9,79.7,442.3,79.7L442.3,79.7z" />
	<path
   id="path26"
   d="M491,78.8c-1.4,0.3-0.7,2.8,0.8,2l-1-0.3c0.3,0.5,0.9,0.7,1.4,0.4c0.1-0.1,0.2-0.2,0.3-0.3   c0.3-0.4,0.3-1.1-0.2-1.4c-0.2-0.2-0.5-0.2-0.8-0.2c-0.4,0-0.7,0.3-0.8,0.8c0,0.4,0.3,0.7,0.8,0.8l-0.3-0.3v-0.4l0.8-0.1   c-0.2-0.3-0.6-0.4-1-0.3l0,0h0.4c0.4,0.1,0.3,0.7-0.1,0.7C492.4,80.1,492,78.7,491,78.8L491,78.8z" />
	<path
   id="path27"
   d="M498.4,79c-0.5-0.4-1.2-0.4-1.6,0.1c-0.1,0.1-0.1,0.2-0.2,0.3c-0.4,0.8,0.3,2,1.2,1.4c0.4-0.2,0.7-0.6,0.7-1   c0.1-0.5-0.3-0.9-0.8-1c-0.9-0.1-1.6,1.1-0.7,1.6c0.4,0.2,0.8,0,1-0.3c0.2-0.3,0.1-0.8-0.2-1h-0.1l0.4,0.4l0,0l-0.1,0.6l-0.4,0.2   l-0.4-0.1l-0.2-0.2l-0.1-0.4c0.1-0.2,0.1-0.2,0-0.1h0.8c0.1,0.2,0.1,0.3,0.1,0.5c0,0-0.3,0.1-0.2,0.1l-0.4-0.1l0,0   c0.7,0.6,1.8-0.4,1.1-1.1L498.4,79z" />
	<path
   id="path28"
   d="M502.9,79.9L502.9,79.9l-0.1-0.3c0,0,0.1-0.1,0.1-0.1l0.4-0.1l0.3,0.5c0.5-0.8-0.8-1.6-1.3-0.8   c-0.3,0.5-0.2,1.2,0.3,1.6s1.2,0.2,1.6-0.3c0.2-0.4,0.2-0.9,0-1.3C503.8,78.2,502.5,79,502.9,79.9L502.9,79.9z" />
	<path
   id="path115-5"
   d="M551.2,89.4c2.3-2,3.7-4.6,4.2-7.4l-2.4-0.1l-0.8,13.6l1.1-1.1l-3.2,0.3c-0.7,0-1.2,0.6-1.1,1.1   c0,0.6,0.6,1,1.3,1l4.8-0.3c0.7,0,1.2-0.6,1.1-1.1c0-0.6-0.6-1-1.3-1l-4.8,0.3l0.1,2.1l3.2-0.3c0.7-0.1,1.2-0.6,1.1-1.1l0.8-13.6   c0.1-1.2-2.2-1.3-2.4-0.1c-0.3,2.4-1.6,4.7-3.6,6.4C548.3,89.1,550.1,90.5,551.2,89.4L551.2,89.4z" />
	<path
   id="path5-6"
   d="M534.4,71.4c-2.9-5.6-12.1-1.5-11.4,4.3c0.5,3.6,5,3.7,7.1,6c1.3,1.4,2.6,3.9,0.6,5.4   c-1.2,0.9-3.1,1.2-3.9,0.2c-1-1.2-0.2-1.8-1.8-2.5c-1.6-0.8-3.2,1.8-1.5,2.6c0.6,0.3,0.6,2.2,1.2,2.8c0.9,0.7,2.1,1.1,3.2,0.8   c2.3-0.2,5.4-1.1,6.5-3.3c1.2-2.4,0.2-5.3-1.4-7.3c-1.1-1.4-2.6-2.5-4.2-3.2c-0.8-0.3-1.5-0.6-2.2-1l0.6-3.3   c1.7-1.6,3.2-1.6,4.6,0.1C532.7,74.7,535.2,73.1,534.4,71.4L534.4,71.4z" />
	<path
   id="path6-3"
   sodipodi:nodetypes="ccccccccccccccsccc"
   d="M538.9,82.8v-0.2h-3c0.3,4.1,0.4,8.2,0.5,12.3   c0,0.8,0.7,1.5,1.5,1.5l6.3,0.1c1.1,0,1.8-1.3,1.3-2.3c-0.2-0.5-0.5-1-0.8-1.4c-1.1-1.6-3.7-0.1-2.6,1.5c0.4,0.4,0.6,0.9,0.8,1.4   l1.3-2.2l-6.3-0.1l1.5,1.5c-0.1-4.1-0.3-8.2-0.5-12.3c0-2-3-2-3,0v0.2C535.7,84.7,538.7,84.7,538.9,82.8L538.9,82.8z" />
	<path
   id="path135"
   sodipodi:nodetypes="cc"
   class="st8"
   d="M543.5,88c1.6,0,1.4,0.1,2.9,0.1" />
	
	
	
	
	
	
	
	
	
	
	
	
	
	
	
	
	
	
	
	
	
	
	
	
	
	
	
	
	
	
	
	
	
	
	
	
	
	
	
	
	
	
	
	
	
	
	
	
	
	
	
	
	
	
	
	
	
	
	
	
	
	
	
	
	
	
	
	
	
	
	
	
	
	
	
	
	
	
	
	
	
	
	
	
	
	
	
	
	
	
	
	
	
	
	
	
	
	
	
	
	
	
	
	
	
	
	
	
	
	
	
	
	
	
	
	
	
	
	
	
	
	
	
	
	
	
	
	
	
	
	
	
	
	
	
	
	
	
	
	
	
	
	
	
	
	
	
	
	
	
</g>
<metadata
   id="metadata117"><rdf:RDF><cc:Work
       rdf:about=""><dc:title>sel_hmm</dc:title></cc:Work></rdf:RDF></metadata></svg>
