<?xml version="1.0" encoding="UTF-8" standalone="no"?>
<!-- Generator: Adobe Illustrator 23.0.3, SVG Export Plug-In . SVG Version: 6.00 Build 0)  -->

<svg
   version="1.1"
   id="svg134"
   x="0px"
   y="0px"
   viewBox="0 0 700 414.9"
   style="enable-background:new 0 0 700 414.9;"
   xml:space="preserve"
   sodipodi:docname="sel_hmm_3.svg"
   inkscape:version="1.3.2 (091e20e, 2023-11-25)"
   xmlns:inkscape="http://www.inkscape.org/namespaces/inkscape"
   xmlns:sodipodi="http://sodipodi.sourceforge.net/DTD/sodipodi-0.dtd"
   xmlns="http://www.w3.org/2000/svg"
   xmlns:svg="http://www.w3.org/2000/svg"
   xmlns:rdf="http://www.w3.org/1999/02/22-rdf-syntax-ns#"
   xmlns:cc="http://creativecommons.org/ns#"
   xmlns:dc="http://purl.org/dc/elements/1.1/"><defs
   id="defs117" />
<style
   type="text/css"
   id="style1">
	.st0{opacity:0.3;fill:#1F77B4;enable-background:new    ;}
	.st1{opacity:0.3;fill:#FF7F0E;enable-background:new    ;}
	.st2{opacity:0.3;fill:#2CA02C;enable-background:new    ;}
	.st3{fill:none;stroke:#FF7F0E;stroke-width:0.6722;stroke-linejoin:round;stroke-dasharray:2.4872,1.0755;}
	.st4{stroke:#000000;stroke-width:1.5041;}
	.st5{stroke:#000000;stroke-width:1.1416;}
	.st6{fill:none;stroke:#000000;stroke-width:1.7808;stroke-linecap:round;stroke-linejoin:round;}
	.st7{fill:#8C0000;}
	.st8{fill:#870303;stroke:#000000;stroke-width:2;stroke-linecap:round;stroke-linejoin:round;}
	.st9{fill:none;stroke:#000000;stroke-width:0.5106;stroke-linecap:round;stroke-linejoin:round;}
	.st10{fill:#010B7F;}
	.st11{fill:none;stroke:#000000;stroke-width:0.4;stroke-linecap:round;stroke-linejoin:round;}
</style>
<sodipodi:namedview
   bordercolor="#000000"
   borderopacity="0.25"
   id="namedview134"
   inkscape:current-layer="Layer_1"
   inkscape:cx="221.01639"
   inkscape:cy="121.81017"
   inkscape:deskcolor="#d1d1d1"
   inkscape:pagecheckerboard="0"
   inkscape:pageopacity="0.0"
   inkscape:showpageshadow="2"
   inkscape:window-height="847"
   inkscape:window-maximized="1"
   inkscape:window-width="1384"
   inkscape:window-x="62"
   inkscape:window-y="25"
   inkscape:zoom="0.79632102"
   pagecolor="#ffffff">
	</sodipodi:namedview>
<title
   id="title1">sel_hmm</title>
<g
   id="Layer_1">
	
	
	
	
	
	
	
	
	
	
	
	
	
	
	
	
	
	
	
	
	
	
	
	
	
	
	
	
	
	
	
	
	
	
	
	
	
	
	
	
	
	
	
	
	
	
	
	
	
	
	
	
	
	
	
	
	
	
	
	
	
	
	
	
	
	
	
	
	
	
	
	
	
	
	
	
	
	
	
	
	
	
	
	
	
	
	
	
	
	
	
	
	
	
	
	
	
	
	
	
	
	
	
	
	
	
	
	
	
	
	
	
	
	
	
	
	
	
	
	
	
	
	
	
	
	
	
	
	
	
	
	
	
	
	
	
	
	
	
	
	
	
	
	
	
	
	
	
	
	
	
	
	
	
	
	
	
	
	
	
	
	
	
	
	
	
	
	
	
	
	
	
	
	
	
	
	
	
	
	
	
	
	
	
	
	
	
	
	
	
	
	
	
	
	
	
	
	
	
	<path
   id="path1"
   d="M267.7,73.1c0.4-7.2-9.2-5.7-11.4-0.7c-1.1,2.5,0.3,5,2.2,6.6s4.8,1.9,5,4.8c0.2,2.2-1.3,5.9-4.8,3.4   c-1-0.7-1.7-2.3-2.3-3.3c-1-1.6-3.6-0.1-2.6,1.5c1.4,2.3,2.9,5.1,5.9,5.5c2.3,0.3,4.5-0.8,5.7-2.7c1.3-2.2,1.4-5,0.3-7.3   c-0.6-1-1.4-1.9-2.3-2.5c-0.7-0.5-1.5-0.8-2.2-1.3l-1.4-1c-0.3-4.5,1.3-5.6,4.9-3.1C264.6,75.1,267.6,75.1,267.7,73.1L267.7,73.1z" />
	<path
   id="path2"
   d="M268.3,91.8c2.5-2.2,3.9-5.3,3.9-8.6c0-2-2.9-1.9-3,0l-0.4,6c-0.1,1.9,0,4.2-0.5,6l1-1   c-0.8,0.2-1.6,0.3-2.4,0.2c-1.6,0.1-2.2,2.7-0.4,3c2.4,0.4,4.8,0.3,7.1-0.4c0.8-0.2,1.2-1.1,1-1.9c-0.2-0.8-1-1.2-1.8-1   c-1.8,0.5-3.7,0.6-5.5,0.4l-0.4,2.9c2.4-0.1,4.1,0,4.4-2.7c0.4-3.8,0.5-7.7,0.8-11.5h-3c0,2.5-1.1,4.9-3,6.5   c-1.5,1.3,0.7,3.4,2.1,2.1L268.3,91.8z" />
	
	
	
	
	
	
	
	
	
	
	
	
	
	
	
	
	
	
	
	
	
	
	
	
	
	
	
	
	
	
	
	
	
	
	
	
	
	
	
	
	
	
	
	
	
	
	
	
	
	
	
	
	
	
	
	
	
	
	
	
	
	
	
	
	
	
	
	
	
	
	
	
	
	
	
	
	
	
	
	
	
	
	
	
	
	
	
	
	
	
	
	
	
	
	
	
	
	
	
	
	
	
	
	
	
	
	
	
	
	
	
	
	
	
	
	
	
	
	
	
	
	
	
	
	
	
	
	
	
	
	
	
	
	
	
	
	
	
	
	
	
	
	
	
	
	
	
	
	
	
	
	
	
	
	
	
	
	
	
	
	
	
	
	
	
	
	
	
	
	
	
	
	
	
	
	
</g>
<metadata
   id="metadata117"><rdf:RDF><cc:Work
       rdf:about=""><dc:title>sel_hmm</dc:title></cc:Work></rdf:RDF></metadata></svg>
