<?xml version="1.0" encoding="UTF-8" standalone="no"?>
<svg
   viewBox="0 0 699.99999 350"
   version="1.1"
   id="svg134"
   sodipodi:docname="sel_hmm_hidden.svg"
   inkscape:version="1.3.2 (091e20e, 2023-11-25)"
   width="700"
   height="350"
   xmlns:inkscape="http://www.inkscape.org/namespaces/inkscape"
   xmlns:sodipodi="http://sodipodi.sourceforge.net/DTD/sodipodi-0.dtd"
   xmlns="http://www.w3.org/2000/svg"
   xmlns:svg="http://www.w3.org/2000/svg"
   xmlns:rdf="http://www.w3.org/1999/02/22-rdf-syntax-ns#"
   xmlns:cc="http://creativecommons.org/ns#"
   xmlns:dc="http://purl.org/dc/elements/1.1/">
  <sodipodi:namedview
     id="namedview134"
     pagecolor="#ffffff"
     bordercolor="#000000"
     borderopacity="0.25"
     inkscape:showpageshadow="2"
     inkscape:pageopacity="0.0"
     inkscape:pagecheckerboard="0"
     inkscape:deskcolor="#d1d1d1"
     inkscape:zoom="1.1902704"
     inkscape:cx="400.74928"
     inkscape:cy="74.772926"
     inkscape:window-width="1312"
     inkscape:window-height="449"
     inkscape:window-x="60"
     inkscape:window-y="25"
     inkscape:window-maximized="0"
     inkscape:current-layer="Layer_1" />
  <defs
     id="defs1">
    <style
       id="style1">.cls-1{fill:#8c0000;}</style>
  </defs>
  <title
     id="title1">sel_hmm</title>
  <g
     id="Layer_1"
     data-name="Layer 1">
    <path
       d="m 491.02,22.84 c -1.44,0.26 -0.67,2.76 0.8,2.05 l -1,-0.27 a 1.06,1.06 0 0 0 1.77,0.12 1,1 0 0 0 -0.95,-1.6 0.78,0.78 0 0 0 -0.75,0.75 0.76,0.76 0 0 0 0.75,0.75 l -0.34,-0.26 v -0.4 l 0.82,-0.12 a 0.78,0.78 0 0 0 -1,-0.27 v 0 h 0.4 c 0.37,0.07 0.29,0.66 -0.08,0.73 0.95,-0.18 0.54,-1.62 -0.4,-1.45 z"
       id="path7" />
    <path
       d="m 498.41,22.98 a 1.13,1.13 0 0 0 -1.79,0.42 c -0.39,0.8 0.32,2 1.25,1.44 a 1.3,1.3 0 0 0 0.74,-1 0.91,0.91 0 0 0 -0.75,-1 c -0.91,-0.13 -1.58,1.1 -0.68,1.61 a 0.75,0.75 0 0 0 0.76,-1.29 h -0.06 l 0.35,0.45 v -0.05 l -0.08,0.58 -0.38,0.22 -0.38,-0.1 -0.17,-0.18 -0.1,-0.38 c 0.11,-0.17 0.09,-0.2 0,-0.09 h 0.75 a 1.34,1.34 0 0 1 0.14,0.51 c 0,0 -0.3,0.08 -0.21,0.09 l -0.38,-0.1 v 0 c 0.74,0.61 1.8,-0.44 1.06,-1.06 z"
       id="path8" />
    <path
       d="m 502.91,23.91 0.05,0.09 -0.1,-0.37 a 0.24,0.24 0 0 0 0.07,-0.13 l 0.38,-0.11 0.27,0.48 c 0.51,-0.82 -0.78,-1.58 -1.3,-0.76 a 1.15,1.15 0 1 0 1.93,0 c -0.41,-0.88 -1.7,-0.12 -1.3,0.76 z"
       id="path9" />
    <path
       d="m 116.46958,23.87 c 49.5,-0.19 140.28042,0.31 189.74042,0.73 18.5,0.16 149.75228,0.263333 168.25228,0.31 1,0 1,-1.5 0,-1.5 -49.15,-0.16 -211.04228,-1 -260.19228,-1.12 -18.84,-0.04 -78.96042,-0.01333 -97.80042,0.08 -1,0 -1,1.5 0,1.5 z"
       id="path10"
       sodipodi:nodetypes="ccccccc" />
    <path
       d="m 519.00519,24.17 c 34.78,-0.07 114.65481,-0.33 149.43481,0.17 1,0 1,-1.5 0,-1.5 -34.78,-0.5 -114.65481,-0.24 -149.43481,-0.17 -1,0 -1,1.5 0,1.5 z"
       id="path11"
       sodipodi:nodetypes="ccccc" />
    <path
       d="m 115.29,18.54 a 31.43,31.43 0 0 0 -0.13,10.15 c 0.14,1 1.58,0.55 1.44,-0.4 a 29,29 0 0 1 0.14,-9.35 c 0.17,-0.95 -1.28,-1.35 -1.45,-0.4 z"
       id="path12" />
    <path
       d="m 668.41,18.58 a 30.45,30.45 0 0 0 -0.14,10.08 c 0.14,1 1.58,0.55 1.44,-0.4 a 28.34,28.34 0 0 1 0.15,-9.28 c 0.17,-0.95 -1.28,-1.35 -1.45,-0.4 z"
       id="path13" />
    <path
       d="M 47.07,7.38 C 47.53,5.29 47.37,3.48 45.54,2.11 44.06,1 40.8,-0.44 38.9,0.11 c -5.06,1.5 -5.3,13.17 -4.63,17.16 0.73,4.37 4.6,8.13 9,5.18 3.55,-2.39 4.95,-8.1 -0.62,-8.31 v 1.5 c 3.88,-0.49 3.55,2.19 3.74,5.12 0.06,1 1.56,1 1.5,0 a 37.25,37.25 0 0 0 -0.54,-6.34 0.75,0.75 0 0 0 -0.52,-0.53 c -1.37,-0.37 -2.8,0.08 -4.18,0.25 a 0.75,0.75 0 0 0 0,1.5 q 3.57,2.81 0.49,5 -4.95,3.6 -7.1,-2.43 a 14.51,14.51 0 0 1 -0.26,-6 c 0.18,-1.94 0.13,-4.3 0.87,-6.09 0.3,-2.29 1.82,-3.73 4.55,-4.34 q 4.17,0.6 4.46,5.16 c -0.2,0.94 1.24,1.35 1.45,0.4 z"
       id="path126" />
    <path
       d="m 51.16,17.2 c 3,0.22 7.75,-1.53 6.28,-5.33 -1,-2.67 -3.89,-5.63 -6.75,-3.38 a 5.65,5.65 0 0 0 -1.76,3.9 c -0.29,2 -0.81,4.7 0.07,6.66 1.55,3.46 5.57,5.15 8.84,3.06 0.81,-0.52 0.06,-1.82 -0.76,-1.29 a 4.49,4.49 0 0 1 -6.33,-1.7 c -1,-1.62 -0.66,-3.6 -0.47,-5.38 a 9.55,9.55 0 0 1 0.37,-2.45 c 1.07,-2.69 2.85,-2.24 4.3,-0.66 a 9.44,9.44 0 0 1 0.75,1.15 l -0.91,3.25 c -0.76,0.81 -2.67,0.75 -3.63,0.68 -0.96,-0.07 -1,1.43 0,1.5 z"
       id="path127" />
    <path
       d="m 58.87,9.24 a 84.33,84.33 0 0 0 0.28,12.88 c 0.1,0.95 1.6,1 1.5,0 A 84.33,84.33 0 0 1 60.41,9.24 c 0,-1 -1.45,-1 -1.5,0 z"
       id="path128" />
    <path
       d="m 60.49,14.81 a 40.87,40.87 0 0 0 6.37,-4.9 L 65.68,9.76 c 1.16,2.19 0.5,4.39 0.33,6.7 a 18.14,18.14 0 0 0 0.64,6 0.75208045,0.75208045 0 0 0 1.45,-0.4 22.14,22.14 0 0 1 -0.31,-8 8.46,8.46 0 0 0 -0.82,-5 0.75,0.75 0 0 0 -1.17,-0.15 38.59,38.59 0 0 1 -6.06,4.66 c -0.82,0.51 -0.07,1.81 0.75,1.3 z"
       id="path129" />
    <path
       d="m 70.64,14.37 c -0.61,3.14 -1.53,8.29 2.7,9.4 4.23,1.11 6.19,-3.94 6.53,-7.15 0.34,-3.21 -0.33,-9.4 -4.71,-8.91 -3.85,0.43 -6,4.82 -5.71,8.27 0.08,0.95 1.58,1 1.5,0 -0.18,-2.1 0.45,-4.56 2.34,-5.77 4.35,-2.79 5.22,2.56 5.16,5.34 0,1.84 -0.55,4.77 -2.11,6 -3.21,2.51 -4.83,-0.87 -4.85,-3 a 19.33,19.33 0 0 1 0.6,-3.78 c 0.18,-0.94 -1.27,-1.35 -1.45,-0.4 z"
       id="path130" />
    <path
       d="m 80.23,9.25 0.41,13.41 c 0,1 1.53,1 1.5,0 L 81.73,9.25 a 0.75,0.75 0 0 0 -1.5,0 z"
       id="path131" />
    <path
       d="m 82.2,13.35 c 0.73,-1.2 2.08,-4.33 3.83,-1.25 0.4,0.7 0.1,2.45 0.11,3.26 0,2.33 0.06,4.65 0.08,7 a 0.75,0.75 0 0 0 1.5,0 c 0,-2.48 0,-5 -0.08,-7.45 0,-1.6 0.22,-4.05 -0.81,-5.45 -2.09,-2.87 -4.93,1.53 -5.92,3.15 -0.51,0.82 0.79,1.58 1.29,0.76 z"
       id="path132" />
    <path
       d="m 88.07,14.25 c 0.59,-0.85 1.74,-3.34 2.65,-3.79 2.15,-1 1.39,2.2 1.37,3.34 0,3.07 -0.29,6.14 -0.54,9.2 -0.07,0.86 1.26,1 1.47,0.2 l 0.09,-0.34 a 0.75,0.75 0 0 0 -1.44,-0.4 l -0.1,0.34 1.48,0.2 c 0.25,-3.06 0.51,-6.13 0.54,-9.2 0,-1.36 0.58,-4.63 -0.51,-5.74 -2.2,-2.22 -5.62,4.44 -6.31,5.44 -0.56,0.79 0.74,1.54 1.3,0.75 z"
       id="path133" />
    <path
       d="m 95.73,18.6 c 3.12,-0.53 7.49,-2.66 8.16,-6.15 0.45,-2.32 -2.92,-6.07 -5.22,-4.25 -2.62,2.06 -4.16,8.22 -3.37,11.32 a 5.3,5.3 0 0 0 2.8,3.51 c 2,0.94 3.8,-0.23 5.87,-0.28 1,0 1,-1.53 0,-1.5 -2.15,0.05 -4.35,1.58 -6.26,-0.32 -1.91,-1.9 -1,-5.55 -0.09,-7.82 0.31,-0.84 2,-5.31 3.89,-2.9 1.18,1.5 0.39,3.29 -0.75,4.39 a 9.88,9.88 0 0 1 -5.43,2.52 c -1,0.16 -0.55,1.6 0.4,1.45 z"
       id="path134" />
    <path
       d="m 179.51,15.03 c 0.2,-2.62 -2.68,-3.49 -4.59,-2.1 -1.91,1.39 -3.17,4.93 -1,6.72 1.73,1.43 4.38,0.58 5.68,-1 2.47,-3 1.94,-8.57 2.26,-12.17 h -1.5 l -0.61,13.37 c 0,1 1.45,1 1.5,0 l 0.61,-13.37 c 0,-1 -1.42,-0.95 -1.5,0 -0.21,2.41 -0.35,4.83 -0.64,7.23 -0.2,1.67 -0.5,3.78 -2.12,4.73 -1.62,0.95 -2.79,0.25 -3.19,-2.32 0.46,-2 1.66,-2.35 3.59,-1.13 -0.08,1 1.42,1 1.5,0 z"
       id="path14" />
    <path
       d="m 184.47,18.86 a 7.83,7.83 0 0 0 2.5,-4.7 l -1.47,-0.2 a 15.22,15.22 0 0 0 1.3,7.41 l 0.27,-1 a 2.67,2.67 0 0 1 -2.53,0.51 v 1.45 a 3,3 0 0 1 2.41,0.1 c 0.87,0.39 1.63,-0.9 0.75,-1.3 a 4.68,4.68 0 0 0 -3.56,-0.25 0.76,0.76 0 0 0 0,1.45 4,4 0 0 0 3.68,-0.66 0.78,0.78 0 0 0 0.27,-1 13.65,13.65 0 0 1 -1.09,-6.65 c 0.06,-0.83 -1.35,-1 -1.48,-0.2 a 6.62,6.62 0 0 1 -2.11,4 c -0.71,0.66 0.36,1.72 1.06,1.06 z"
       id="path15" />
    <path
       d="m 332.2,15.83 c 0.2,-2.62 -2.68,-3.49 -4.59,-2.1 -1.91,1.39 -3.17,4.93 -1,6.71 1.73,1.44 4.38,0.58 5.68,-1 2.47,-3 1.95,-8.57 2.26,-12.17 h -1.5 l -0.64,13.38 c -0.05,1 1.45,1 1.5,0 l 0.61,-13.37 c 0.05,-1 -1.41,-0.95 -1.5,0 -0.21,2.41 -0.35,4.83 -0.64,7.23 -0.2,1.67 -0.5,3.78 -2.12,4.73 -1.62,0.95 -2.78,0.25 -3.17,-2.28 q 0.69,-3 3.59,-1.13 c -0.08,1 1.42,0.95 1.5,0 z"
       id="path16" />
    <path
       d="m 338.41,16.25 c 0.29,-1.52 2.27,-1.05 1.86,0.32 a 3.72,3.72 0 0 1 -1.2,1.42 5,5 0 0 0 -1.92,2.73 0.76,0.76 0 0 0 0.72,0.95 13.45,13.45 0 0 0 5,-0.45 0.75208045,0.75208045 0 0 0 -0.4,-1.45 12.15,12.15 0 0 1 -4.61,0.4 l 0.73,0.95 c 0.38,-2.18 3.88,-2.89 3.17,-5.53 a 2.46,2.46 0 0 0 -4.8,0.26 c -0.18,0.94 1.26,1.35 1.44,0.4 z"
       id="path17" />
    <path
       d="m 587.82,13.73 0.06,6.33 a 0.76,0.76 0 0 0 0.75,0.75 h 3.66 a 0.76,0.76 0 0 0 0.72,-0.55 1.28,1.28 0 0 0 -1.58,-1.6 c -0.95,0.2 -0.55,1.64 0.4,1.45 l -0.27,-0.25 0.73,-0.55 h -3.66 l 0.75,0.75 -0.06,-6.33 a 0.75,0.75 0 0 0 -1.5,0 z"
       id="path18" />
    <path
       d="m 584.41,15.59 c 0.21,-2.61 -2.67,-3.48 -4.58,-2.1 -1.91,1.38 -3.17,4.93 -1,6.72 1.73,1.44 4.38,0.58 5.68,-1 2.47,-3 1.94,-8.57 2.26,-12.18 h -1.5 l -0.61,13.37 c -0.05,1 1.45,1 1.5,0 l 0.61,-13.37 c 0,-1 -1.42,-0.94 -1.5,0 -0.21,2.41 -0.35,4.84 -0.64,7.24 -0.21,1.67 -0.5,3.78 -2.13,4.73 -1.63,0.95 -2.77,0.25 -3.17,-2.28 q 0.71,-3 3.59,-1.14 c -0.07,1 1.43,1 1.5,0 z"
       id="path19" />
    <path
       class="cls-1"
       d="m 265.24,16.12 -5,4.12 a 1.13,1.13 0 0 0 0.79,1.92 l 6.5,-0.36 -1,-1.69 a 26.31,26.31 0 0 1 -4.76,5 c -1.12,0.91 0.48,2.5 1.59,1.59 a 28.24,28.24 0 0 0 5.11,-5.42 1.13,1.13 0 0 0 -1,-1.69 l -6.5,0.36 0.8,1.92 5,-4.11 c 1.11,-0.93 -0.49,-2.51 -1.59,-1.6 z"
       id="path20"
       style="fill:#8c0000" />
    <path
       class="cls-1"
       d="m 407.35,15.22 -5.77,4.43 a 1.13,1.13 0 0 0 0.57,2.09 l 6.23,0.49 -0.8,-1.92 q -2.5,2.32 -5.11,4.51 c -1.11,0.94 0.49,2.52 1.59,1.6 q 2.61,-2.2 5.11,-4.51 a 1.14,1.14 0 0 0 -0.79,-1.93 l -6.23,-0.49 0.57,2.1 5.77,-4.47 c 1.13,-0.87 0,-2.83 -1.14,-1.94 z"
       id="path21"
       style="fill:#8c0000" />
    <path
       class="cls-1"
       d="m 639.23,27.34 c 2.51,-1.41 5,-2.91 7.36,-4.52 a 1.14,1.14 0 0 0 -0.27,-2.06 l -5.73,-1.46 0.27,2.05 4.93,-3.13 c 1.21,-0.78 0.09,-2.73 -1.14,-2 l -4.93,3.14 a 1.14,1.14 0 0 0 0.27,2.06 l 5.73,1.46 -0.26,-2 c -2.4,1.6 -4.85,3.11 -7.37,4.52 a 1.13,1.13 0 0 0 1.14,1.94 z"
       id="path22"
       style="fill:#8c0000" />
    <path
       class="cls-1"
       d="m 529.23,27.34 c 2.51,-1.41 5,-2.91 7.36,-4.52 a 1.14,1.14 0 0 0 -0.27,-2.06 l -5.73,-1.46 0.27,2.05 4.93,-3.13 c 1.21,-0.78 0.09,-2.73 -1.14,-2 l -4.93,3.14 a 1.14,1.14 0 0 0 0.27,2.06 l 5.73,1.46 -0.26,-2 c -2.4,1.6 -4.85,3.11 -7.37,4.52 a 1.13,1.13 0 0 0 1.14,1.94 z"
       id="path22-8"
       style="fill:#8c0000" />
    <path
       d="m 267.66,73.12 c 0.4,-7.16 -9.16,-5.7 -11.43,-0.67 -1.11,2.46 0.29,5 2.2,6.58 1.91,1.58 4.76,1.93 5,4.82 0.2,2.25 -1.32,5.86 -4.75,3.45 -1,-0.68 -1.66,-2.33 -2.26,-3.3 -1,-1.64 -3.61,-0.13 -2.59,1.52 1.44,2.34 2.94,5.08 5.93,5.54 a 5.94,5.94 0 0 0 5.72,-2.68 7.53,7.53 0 0 0 0.26,-7.29 7.13,7.13 0 0 0 -2.33,-2.53 c -0.71,-0.51 -1.52,-0.83 -2.25,-1.3 l -1.41,-1 q -0.48,-6.79 4.93,-3.08 c -0.11,1.93 2.89,1.93 3,0 z"
       id="path1" />
    <path
       d="m 268.3,91.78 a 11.24,11.24 0 0 0 3.91,-8.6 c 0,-2 -2.87,-1.91 -3,0 l -0.41,6 c -0.12,1.88 0,4.15 -0.46,6 l 1,-1 a 8.8,8.8 0 0 1 -2.35,0.22 c -1.59,0.08 -2.16,2.68 -0.4,3 a 16.87,16.87 0 0 0 7.14,-0.36 1.5,1.5 0 0 0 -0.8,-2.89 13.14,13.14 0 0 1 -5.54,0.36 l -0.4,2.94 c 2.43,-0.11 4.08,0 4.39,-2.67 0.43,-3.79 0.52,-7.66 0.78,-11.46 h -3 a 8.32,8.32 0 0 1 -3,6.48 c -1.46,1.26 0.67,3.38 2.12,2.12 z"
       id="path2" />
    <path
       d="m 409.99,72.59 c -1.45,-5.21 -8.69,-6.36 -10.83,-0.88 a 6.19,6.19 0 0 0 1.75,6.8 c 1.19,1.07 2.7,1.48 4,2.27 1.1,0.65 3.71,3.18 2.68,4.92 l -4.18,2.17 a 13.74,13.74 0 0 1 -3.21,-1.75 c -1.62,-1.07 -3.13,1.53 -1.52,2.59 4,2.6 10.14,3.7 11.84,-2.2 a 7.07,7.07 0 0 0 -1.36,-6.2 8.52,8.52 0 0 0 -2.69,-2.11 c -0.63,-0.34 -1.33,-0.57 -1.94,-0.92 a 3.57,3.57 0 0 1 -1.4,-1 q -3.51,-2.25 4,-2.89 a 1.5,1.5 0 0 0 2.89,-0.79 z"
       id="path3" />
    <path
       d="m 414.75,86.91 c 0.13,-2.27 2.34,-2.24 2.32,0 a 4.68,4.68 0 0 1 -1.27,2.75 c -1.34,1.66 -2.85,3.21 -4.27,4.8 a 1.52,1.52 0 0 0 0.66,2.51 15.12,15.12 0 0 0 7.87,-0.18 1.51,1.51 0 0 0 -0.8,-2.9 11.92,11.92 0 0 1 -6.27,0.19 l 0.66,2.5 c 2.95,-3.3 8.66,-7.93 5.51,-12.89 a 3.7,3.7 0 0 0 -4.51,-1.71 c -2,0.82 -2.78,3 -2.9,5 -0.12,2 2.88,1.92 3,0 z"
       id="path4" />
    <path
       d="m 298.06,81.96 c 11.4,0.3 22.84,-0.14 34.25,-0.24 7.23,-0.06 14.46,-0.13 21.69,0.05 5.29,0.14 10.87,0.92 16,-0.7 0.65,-0.2 0.78,-1.31 0,-1.45 a 20.41,20.41 0 0 1 -6.94,-2.5 l -0.58,1.37 a 63,63 0 0 1 9.4,2.79 l -0.18,-1.37 a 52.73,52.73 0 0 0 -6.9,3.73 c -0.81,0.52 -0.06,1.82 0.76,1.3 a 51.45,51.45 0 0 1 6.85,-3.75 c 0.66,-0.29 0.35,-1.17 -0.18,-1.37 a 61.41,61.41 0 0 0 -9.39,-2.8 0.75,0.75 0 0 0 -0.58,1.37 21.13,21.13 0 0 0 7.3,2.68 v -1.45 c -5.7,1.81 -12.16,0.7 -18.05,0.61 -7,-0.1 -14,-0.06 -21,0 -10.82,0.1 -21.66,0.51 -32.47,0.22 a 0.75,0.75 0 0 0 0,1.5 z"
       id="path23" />
    <path
       d="m 324.06,60.53 c 0,-6.41 -5.19,-9.69 -11.29,-8.79 -6.77,1 -9,7.85 -8.13,14 0.85,5.83 6.31,11.17 12.62,10 6.31,-1.17 7.36,-11.69 6.67,-16.69 -0.19,-1.43 -2.36,-0.82 -2.17,0.6 0.53,3.86 0.11,10.07 -3.2,12.88 -4.35,3.68 -10.56,-2.16 -11.5,-6.06 -0.94,-3.9 -0.38,-9.53 3.34,-11.66 4.79,-2.74 11.37,-0.12 11.41,5.73 a 1.13,1.13 0 0 0 2.25,0 z"
       id="path29" />
    <path
       d="m 317.11,68.28 a 23.19,23.19 0 0 0 6.3,7.18 c 1.15,0.88 2.27,-1.07 1.13,-1.94 a 20.77,20.77 0 0 1 -5.49,-6.4 c -0.7,-1.26 -2.65,-0.13 -1.94,1.14 z"
       id="path30" />
    <path
       d="m 330.67,52.62 c -4.94,6.27 -6.54,17.55 -1.09,24 0.94,1.1 2.52,-0.5 1.59,-1.6 -4.52,-5.32 -3,-15.63 1.09,-20.78 0.88,-1.13 -0.7,-2.73 -1.59,-1.6 z"
       id="path31" />
    <path
       d="m 344.41,66.73 c -0.1,-7 -14.59,-1.46 -8.73,6.2 2.08,2.73 5.58,2.94 7.22,-0.24 1.14,-2.2 1.82,-5.65 2.48,-8 a 28.08,28.08 0 0 0 0.9,-9.26 c -0.07,-1.18 -2,-1.62 -2.21,-0.29 -0.9,6.44 -1.7,12.83 -0.86,19.33 0.18,1.42 2.43,1.44 2.25,0 -0.82,-6.29 -0.09,-12.48 0.78,-18.74 l -2.21,-0.3 a 28.38,28.38 0 0 1 -1.57,11 c -0.42,1.22 -0.67,3.49 -1.33,4.51 q -3.36,4.09 -4.49,-1.63 1.17,-5.1 5.52,-2.51 a 1.13,1.13 0 0 0 2.25,0 z"
       id="path32" />
    <path
       d="m 349.33,69.82 c 0.19,-1.43 1.51,-0.74 1.11,0.51 a 4.88,4.88 0 0 1 -1.54,1.87 c -0.86,0.77 -2.17,1.75 -2.39,3 -0.53,2.89 4.51,1.9 5.93,1.68 1.42,-0.22 0.82,-2.39 -0.6,-2.17 a 17.07,17.07 0 0 1 -2.13,0.21 c -0.41,0 -0.82,0 -1.22,0 l 0.21,0.74 c 0.06,0 2.18,-2.19 2.37,-2.39 1.19,-1.2 2.3,-3 1.57,-4.72 a 3.16,3.16 0 0 0 -3.22,-1.9 c -1.66,0.23 -2.15,1.75 -2.34,3.19 -0.19,1.44 2.06,1.41 2.25,0 z"
       id="path33" />
    <path
       d="m 351.77,54.47 c 1.48,3.06 3,6.2 3.61,9.58 0.7,4.09 -0.63,7.7 -2.18,11.38 -0.56,1.33 1.61,1.92 2.17,0.6 1.51,-3.6 2.82,-7.17 2.39,-11.12 -0.46,-4.12 -2.27,-7.89 -4,-11.58 -0.63,-1.3 -2.57,-0.16 -1.94,1.14 z"
       id="path34" />
    <path
       d="m 644.41,71.39 c -2.88,-5.61 -12.11,-1.51 -11.36,4.28 0.47,3.6 5,3.74 7.12,6 1.35,1.4 2.59,3.91 0.6,5.41 -1.15,0.87 -3.07,1.19 -3.93,0.19 -1,-1.17 -0.22,-1.75 -1.82,-2.53 -1.6,-0.78 -3.25,1.75 -1.51,2.59 0.63,0.31 0.63,2.18 1.18,2.76 a 3.9,3.9 0 0 0 3.21,0.84 c 2.29,-0.15 5.37,-1.09 6.49,-3.27 1.21,-2.37 0.15,-5.35 -1.39,-7.29 a 12.24,12.24 0 0 0 -4.21,-3.25 20.43,20.43 0 0 1 -2.24,-1 l 0.63,-3.28 q 2.53,-2.4 4.6,0.1 c 0.88,1.71 3.47,0.2 2.59,-1.52 z"
       id="path5" />
    <path
       d="M 648.88,82.77 V 82.6 h -3 q 0.38,6.15 0.54,12.31 a 1.53,1.53 0 0 0 1.5,1.5 l 8,0.3 a 1.52,1.52 0 0 0 1.29,-2.26 4.63,4.63 0 0 0 -0.8,-1.43 c -1.09,-1.58 -3.69,-0.08 -2.59,1.51 a 4.75,4.75 0 0 1 0.82,1.43 l 1.3,-2.25 -8,-0.3 1.5,1.5 Q 649.28,88.76 648.9,82.6 a 1.5,1.5 0 0 0 -3,0 v 0.17 c -0.24,1.91 2.76,1.9 3,0 z"
       id="path6" />
    <path
       d="m 565.09,81.76 c 18.4,-0.07 36.81,0.54 55.21,0.48 0.71,0 1.07,-1.07 0.38,-1.4 a 31,31 0 0 0 -6.35,-2.26 0.75,0.75 0 0 0 -0.4,1.44 44.58,44.58 0 0 0 8,2 v -1.46 a 19.75,19.75 0 0 0 -8.52,4.45 c -0.73,0.63 0.33,1.69 1.06,1.06 a 17.79,17.79 0 0 1 7.86,-4.06 c 0.67,-0.17 0.75,-1.33 0,-1.45 a 44.34,44.34 0 0 1 -8,-2 l -0.4,1.44 a 28.14,28.14 0 0 1 6,2.12 l 0.38,-1.4 c -18.4,0.06 -36.81,-0.55 -55.21,-0.48 a 0.75,0.75 0 0 0 0,1.5 z"
       id="path25" />
    <path
       d="m 583.56,60.76 c 0,-6.41 -5.19,-9.69 -11.29,-8.79 -6.77,1 -9,7.85 -8.13,14 0.85,5.83 6.31,11.17 12.62,10 6.31,-1.17 7.36,-11.69 6.67,-16.69 -0.19,-1.43 -2.36,-0.82 -2.17,0.6 0.53,3.86 0.11,10.07 -3.2,12.88 -4.35,3.68 -10.56,-2.16 -11.5,-6.06 -0.94,-3.9 -0.38,-9.53 3.34,-11.66 4.79,-2.74 11.37,-0.12 11.41,5.73 a 1.13,1.13 0 0 0 2.25,0 z"
       id="path35" />
    <path
       d="m 576.61,68.51 a 23.19,23.19 0 0 0 6.3,7.18 c 1.15,0.88 2.27,-1.07 1.13,-1.94 a 20.66,20.66 0 0 1 -5.49,-6.38 c -0.7,-1.26 -2.65,-0.13 -1.94,1.14 z"
       id="path36" />
    <path
       d="m 590.17,52.85 c -4.95,6.27 -6.54,17.55 -1.09,24 0.94,1.1 2.52,-0.5 1.59,-1.6 -4.52,-5.32 -3,-15.63 1.09,-20.78 0.88,-1.13 -0.7,-2.73 -1.59,-1.6 z"
       id="path37" />
    <path
       d="m 602.9,66.96 c -0.1,-7 -14.59,-1.46 -8.73,6.2 2.08,2.73 5.58,2.94 7.22,-0.24 1.14,-2.2 1.82,-5.65 2.48,-8 a 28.08,28.08 0 0 0 0.9,-9.26 c -0.07,-1.18 -2,-1.62 -2.21,-0.29 -0.9,6.44 -1.7,12.84 -0.86,19.34 0.18,1.41 2.43,1.43 2.25,0 -0.82,-6.3 -0.09,-12.49 0.78,-18.75 l -2.21,-0.3 a 28.38,28.38 0 0 1 -1.57,11 c -0.42,1.22 -0.67,3.49 -1.33,4.51 q -3.36,4.1 -4.49,-1.63 1.17,-5.1 5.52,-2.51 a 1.13,1.13 0 0 0 2.25,0 z"
       id="path38" />
    <path
       d="m 611.27,54.7 c 1.48,3.06 3,6.2 3.61,9.58 0.7,4.09 -0.63,7.7 -2.18,11.38 -0.56,1.33 1.61,1.92 2.17,0.6 1.54,-3.6 2.82,-7.14 2.39,-11.14 -0.46,-4.12 -2.27,-7.89 -4.05,-11.58 -0.63,-1.3 -2.57,-0.16 -1.94,1.14 z"
       id="path39" />
    <path
       d="m 605.34,67.98 v 5.14 a 26.31,26.31 0 0 0 0,4.78 c 0.48,2.39 3.41,1.7 5.23,1.69 a 1.13,1.13 0 0 0 0,-2.25 c -0.5,0 -2.77,0.33 -3.1,0 0,0 0.09,-2.25 0.09,-2.66 v -6.7 a 1.13,1.13 0 0 0 -2.25,0 z"
       id="path40" />
    <path
       d="m 442.34,79.68 q 10.62,-0.25 21.24,0.29 a 0.75,0.75 0 0 0 0.2,-1.47 l -2.37,-1.61 -0.85,1.1 a 38.12,38.12 0 0 0 10.85,1.63 v -1.5 a 39.86,39.86 0 0 0 -10.43,2.37 c -0.89,0.34 -0.5,1.79 0.4,1.45 a 37.82,37.82 0 0 1 10,-2.32 0.75,0.75 0 0 0 0,-1.5 37.45,37.45 0 0 1 -10.47,-1.57 0.76,0.76 0 0 0 -0.85,1.1 4.25,4.25 0 0 0 3.26,2.3 l 0.2,-1.48 Q 452.9,77.93 442.28,78.18 a 0.75,0.75 0 0 0 0,1.5 z"
       id="path24" />
    <path
       d="m 491.02,78.84 c -1.44,0.26 -0.67,2.76 0.8,2 l -1,-0.27 a 1.06,1.06 0 0 0 1.77,0.12 1,1 0 0 0 -0.95,-1.6 0.78,0.78 0 0 0 -0.75,0.75 0.76,0.76 0 0 0 0.75,0.75 l -0.34,-0.26 v -0.4 l 0.82,-0.12 a 0.78,0.78 0 0 0 -1,-0.27 v 0 h 0.4 c 0.37,0.07 0.29,0.66 -0.08,0.73 0.95,-0.18 0.54,-1.62 -0.4,-1.45 z"
       id="path26" />
    <path
       d="m 498.41,78.98 a 1.13,1.13 0 0 0 -1.79,0.42 c -0.39,0.8 0.32,2 1.25,1.44 a 1.3,1.3 0 0 0 0.74,-1 0.91,0.91 0 0 0 -0.75,-1 c -0.91,-0.13 -1.58,1.1 -0.68,1.61 a 0.75,0.75 0 0 0 0.76,-1.29 h -0.06 l 0.35,0.45 v 0 l -0.08,0.58 -0.38,0.22 -0.38,-0.1 -0.17,-0.18 -0.1,-0.38 c 0.11,-0.17 0.09,-0.2 0,-0.09 h 0.75 a 1.34,1.34 0 0 1 0.14,0.51 c 0,0 -0.3,0.08 -0.21,0.09 l -0.38,-0.1 v 0 c 0.74,0.61 1.8,-0.44 1.06,-1.06 z"
       id="path27" />
    <path
       d="m 502.91,79.91 0.05,0.09 -0.1,-0.37 a 0.24,0.24 0 0 0 0.07,-0.13 l 0.38,-0.11 0.27,0.48 c 0.51,-0.82 -0.78,-1.58 -1.3,-0.76 a 1.15,1.15 0 1 0 1.93,0 c -0.41,-0.88 -1.7,-0.12 -1.3,0.76 z"
       id="path28" />
    <path
       d="m 551.20351,89.442322 a 12.765606,14.554695 86.341152 0 0 4.16315,-7.372704 l -2.40666,-0.130364 -0.75309,13.564697 1.14254,-1.139034 -3.22327,0.27718 a 1.0638005,1.2128913 86.341152 0 0 0.13578,2.123264 l 4.84168,-0.309606 a 1.0638005,1.2128913 86.341152 0 0 -0.13578,-2.123264 l -4.84168,0.309606 0.13578,2.123264 3.22326,-0.277179 a 1.1063525,1.2614069 86.341152 0 0 1.14253,-1.139033 l 0.75309,-13.564698 c 0.0701,-1.184161 -2.18858,-1.281347 -2.38963,-0.11724 a 10.864949,12.387663 86.341152 0 1 -3.59165,6.426529 c -1.10318,0.994388 0.71963,2.384401 1.80667,1.391047 z"
       id="path115-5"
       style="stroke-width:1.51454" />
    <path
       d="m 534.41,71.39 c -2.88,-5.61 -12.11,-1.51 -11.36,4.28 0.47,3.6 5,3.74 7.12,6 1.35,1.4 2.59,3.91 0.6,5.41 -1.15,0.87 -3.07,1.19 -3.93,0.19 -1,-1.17 -0.22,-1.75 -1.82,-2.53 -1.6,-0.78 -3.25,1.75 -1.51,2.59 0.63,0.31 0.63,2.18 1.18,2.76 a 3.9,3.9 0 0 0 3.21,0.84 c 2.29,-0.15 5.37,-1.09 6.49,-3.27 1.21,-2.37 0.15,-5.35 -1.39,-7.29 a 12.24,12.24 0 0 0 -4.21,-3.25 20.43,20.43 0 0 1 -2.24,-1 l 0.63,-3.28 q 2.53,-2.4 4.6,0.1 c 0.88,1.71 3.47,0.2 2.59,-1.52 z"
       id="path5-6" />
    <path
       d="M 538.88,82.77 V 82.6 h -3 c 0.25333,4.1 0.43333,8.203333 0.54,12.31 0.016,0.821725 0.67827,1.48404 1.5,1.5 l 6.34463,0.06528 c 1.14327,-0.02818 1.84711,-1.261257 1.29,-2.26 -0.17953,-0.520438 -0.45044,-1.004687 -0.8,-1.43 -1.09,-1.58 -3.69,-0.08 -2.59,1.51 0.35459,0.425232 0.6321,0.909185 0.82,1.43 l 1.3,-2.25 L 537.94,93.41 l 1.5,1.5 c -0.10667,-4.1 -0.28667,-8.203333 -0.54,-12.31 0,-1.999999 -3,-1.999999 -3,0 v 0.17 c -0.24,1.91 2.76,1.9 3,0 z"
       id="path6-3"
       sodipodi:nodetypes="ccccccccccccccsccc" />
    <path
       style="fill:#870303;stroke:#000000;stroke-width:2;stroke-linecap:round;stroke-linejoin:round;stroke-dasharray:none;paint-order:fill markers stroke"
       d="m 543.52318,87.95011 c 1.56687,-0.03763 1.37372,0.05761 2.94343,0.05761"
       id="path135"
       sodipodi:nodetypes="cc" />
    <rect
       style="fill:none;stroke:#000000;stroke-width:0.509594;stroke-linecap:round;stroke-linejoin:round;stroke-dasharray:none;paint-order:fill markers stroke"
       id="rect136"
       width="525.42407"
       height="55.665794"
       x="155.68492"
       y="49.31786"
       rx="5.6022286"
       ry="1.1588447" />
    <path
       d="m 14.856965,64.637316 q 0.545491,10.666512 0.192123,21.344763 c -0.03774,1.130823 1.506103,1.130823 1.543842,0 Q 16.936006,75.307741 16.400807,64.637316 c -0.05833,-1.12691 -1.602165,-1.134736 -1.543842,0 z"
       id="path35916"
       style="stroke-width:0.36639" />
    <path
       d="m 24.806174,64.367327 a 147.27917,167.97606 0 0 1 0,22.056908 h 1.543842 l -0.07548,-0.993872 c -0.08234,-1.119084 -1.629611,-1.130823 -1.543842,0 l 0.07548,0.993872 a 0.77192143,0.88039815 0 0 0 1.543842,0 147.27917,167.97606 0 0 0 0,-22.056908 c -0.06518,-1.122998 -1.609027,-1.130823 -1.543842,0 z"
       id="path35918"
       style="stroke-width:0.36639" />
    <path
       d="m 16.661545,76.293787 a 68.128064,77.701984 0 0 0 9.012612,-0.258251 c 0.981197,-0.09782 0.991489,-1.862531 0,-1.760796 a 68.128064,77.701984 0 0 1 -9.012612,0.258251 c -0.99149,-0.04304 -0.99149,1.717754 0,1.760796 z"
       id="path35920"
       style="stroke-width:0.36639" />
    <path
       d="m 28.126038,73.279211 v 6.224858 c 0,1.514154 -0.295445,3.352478 0.184652,4.813288 0.767336,2.347145 3.549442,2.273284 5.252352,0.98892 0.935576,-0.705785 0,-2.310215 -0.931471,-1.596223 -3.28272,2.490764 -2.663107,-2.46204 -2.659004,-4.205985 v -6.224858 c 0,-1.189987 -1.842426,-1.189987 -1.846529,0 z"
       id="path35922"
       style="stroke-width:0.41034" />
    <path
       d="m 28.651273,65.72485 a 1.7562553,1.7562553 0 0 0 -0.471891,1.887564 1.0012297,1.0012297 0 0 0 0.410339,0.553959 0.94378206,0.94378206 0 0 0 0.713992,0.09028 0.93147186,0.93147186 0 0 0 0.644234,-1.132538 0.54985565,0.54985565 0 0 1 -0.03693,-0.106689 c 0,-0.09848 0,-0.06976 0,0.08207 v -0.110798 c -0.02462,0.151825 -0.02462,0.176446 0,0.07796 a 0.82068008,0.82068008 0 0 1 0.03283,-0.106688 c -0.06155,0.135412 -0.06565,0.160032 -0.02052,0.07386 -0.151826,0.21748 -0.04104,0.04924 0.02873,0 a 0.9232651,0.9232651 0 0 0 0.270824,-0.65244 0.92736848,0.92736848 0 0 0 -1.579809,-0.652441 z"
       id="path35924"
       style="stroke-width:0.41034" />
    <path
       d="m 41.334883,73.673137 c -0.496511,-3.836679 -4.51374,-4.025436 -6.183825,-0.779646 -1.046367,2.018873 -1.25564,4.653255 -1.313087,6.889609 -0.04924,2.02708 0.160032,4.51374 1.497741,6.1551 0.886334,1.091505 2.289697,1.592119 3.463269,0.594993 1.588016,-1.354122 1.883461,-4.51374 2.178906,-6.397201 0.41034,-2.659003 0.361099,-5.289283 0.41034,-7.968803 0.06976,-2.999586 1.075091,-5.892483 0.927369,-8.896172 -0.05745,-1.181779 -1.84653,-1.198193 -1.84653,0 v 21.563369 c 0,1.185883 1.84653,1.189986 1.84653,0 V 63.271017 h -1.84653 c 0.139515,2.87238 -0.82068,5.658589 -0.919162,8.530969 -0.09848,3.011896 0,5.945828 -0.553959,8.929 q -0.201067,1.079194 -0.492409,2.137871 c -0.246204,0.906851 -0.135412,1.25564 -1.185882,1.432086 -1.185883,0.201068 -1.116125,-0.410339 -1.370535,-1.407466 a 10.484188,10.484188 0 0 1 -0.283135,-2.429213 21.534645,21.534645 0 0 1 0.41034,-4.472706 8.1657664,8.1657664 0 0 1 0.65244,-2.174802 l 0.295445,-0.525235 q 1.083298,-1.920392 2.46204,0.373409 c 0.151826,1.161262 1.998357,1.173572 1.84653,0 z"
       id="path35926"
       style="stroke-width:0.41034" />
    <path
       d="m 50.132578,75.589424 c 0.29544,-1.805495 0.0615,-3.885919 -1.4403,-5.133353 a 3.1555149,3.1555149 0 0 0 -4.14033,0 c -1.702911,1.477224 -1.768565,4.1034 -1.830115,6.196134 -0.04924,1.559292 0,3.126791 0.07796,4.68198 0.07796,1.165366 -0.06155,3.024206 0.43496,4.1034 0.640135,1.419777 2.593355,1.280262 3.668445,0.492409 1.72753,-1.259744 2.11325,-3.840783 2.52769,-5.777588 a 68.49396,68.49396 0 0 0 1.35412,-18.526853 0.92326541,0.92326541 0 0 0 -1.84653,0 c -0.47599,6.208445 -0.68527,12.433303 -0.59089,18.658162 0.0205,1.489534 0.0287,2.983172 0.119,4.468603 0.0369,0.631923 0,1.526465 0.55396,1.998356 0.93558,0.82068 2.01067,0 2.0517,-1.066884 0.0492,-1.189987 -1.79729,-1.185883 -1.84653,0 l 0.0451,-0.19286 0.89864,-0.237997 c -0.17644,-0.03283 0,-10.328259 0.0287,-11.464901 q 0.10259,-6.085343 0.58269,-12.162479 h -1.84653 a 64.878862,64.878862 0 0 1 -1.64136,19.511669 13.812046,13.812046 0 0 1 -0.52113,1.8096 c -0.078,0.82068 -0.4719,1.095607 -1.18178,0.783749 -0.73862,0.168239 -1.01765,-0.114895 -0.82068,-0.857611 -0.43907,-1.366432 -0.22569,-3.258099 -0.22979,-4.673772 0,-1.481328 -0.0903,-3.196549 0.32827,-4.628636 0.37751,-1.288468 1.48543,-2.966759 2.95034,-1.345916 0.66475,0.734509 0.67706,1.940909 0.52934,2.872381 -0.19286,1.161262 1.58802,1.64136 1.78088,0.488304 z"
       id="path35928"
       style="stroke-width:0.41034" />
    <path
       d="m 52.906468,80.583263 c 3.36069,-0.02873 6.22896,-1.64136 6.1551,-5.375455 -0.0698,-2.917517 -2.99137,-5.941723 -5.72424,-3.578165 -2.84365,2.46204 -2.60566,7.858012 -1.55108,11.107905 1.02174,3.139101 4.1034,4.924081 6.90602,2.646693 0.92326,-0.746818 -0.38983,-2.0517 -1.30899,-1.304881 -4.25522,3.42634 -4.62863,-6.95116 -4.03364,-8.933102 0.32827,-1.099712 1.27616,-3.401719 3.07345,-2.051701 0.89044,0.668855 0.92737,2.4128 0.65244,3.356582 -0.57858,2.010666 -2.35535,2.26918 -4.15264,2.285594 -1.18588,0 -1.18999,1.854737 0,1.84653 z"
       id="path35930"
       style="stroke-width:0.41034" />
    <path
       d="m 60.136658,70.513519 q -0.30365,7.940079 -0.1272,15.884262 a 0.92326634,0.92326634 0 0 0 1.84653,0 53.48372,53.48372 0 0 1 0.61961,-7.423051 20.603173,20.603173 0 0 1 0.73861,-2.933931 c 0.13541,-0.41034 0.33648,-1.592119 0.76734,-1.826013 l 1.51005,0.176446 a 3.6930603,3.6930603 0 0 1 0.19696,1.07509 c 0.29135,2.351249 0.0739,4.837909 0.0739,7.205572 0,1.415673 -0.2503,2.995482 1.00944,3.918747 0.95609,0.705785 1.87936,-0.898644 0.93147,-1.592119 -0.38572,-0.287238 -0.0944,-2.64259 -0.0944,-3.106275 v -2.347144 a 34.370081,34.370081 0 0 0 -0.0985,-4.456293 c -0.21748,-1.612637 -1.23102,-4.050056 -3.30734,-3.471477 -2.07632,0.57858 -2.79852,3.758715 -3.22937,5.535487 -0.73041,3.015999 -0.8453,6.155101 -0.9643,9.244961 h 1.84653 q -0.17234,-7.944183 0.1272,-15.884262 c 0.0411,-1.185883 -1.80549,-1.185883 -1.84653,0 z"
       id="path35932"
       style="stroke-width:0.41034" />
    <path
       d="m 81.967188,67.990922 -0.26261,19.285985 c 0,1.18998 1.83011,1.18998 1.84653,0 l 0.26261,-19.285985 c 0,-1.189986 -1.83011,-1.189986 -1.84653,0 z"
       id="path35934"
       style="stroke-width:0.41034" />
    <path
       d="m 84.318438,69.533801 c 2.56463,-2.133769 5.68321,1.456707 5.81862,3.955677 0.19286,3.491994 -3.3812,4.513741 -6.22896,4.349605 -1.18588,-0.06976 -1.18178,1.776774 0,1.846534 4.37012,0.25441 9.39679,-2.531802 7.8375,-7.599501 -1.13254,-3.693061 -5.27287,-6.737784 -8.73614,-3.857197 -0.91096,0.759129 0.41034,2.0517 1.30898,1.304882 z"
       id="path35936"
       style="stroke-width:0.41034" />
    <path
       d="m 93.128438,77.752911 a 7.1317096,7.1317096 0 0 1 2.14198,-2.708244 l -1.54288,-0.41034 c 0.78785,2.589246 3.66434,2.60566 4.57119,0.09028 l -1.78088,-0.488304 a 51.042197,51.042197 0 0 1 -1.41157,6.495684 c -0.51292,1.77678 -1.51415,3.69306 -1.27616,5.59294 0.27493,2.18711 3.1309,3.69306 4.43168,1.42387 0.59499,-1.02995 -1.00123,-1.96142 -1.59212,-0.93147 q -1.50185,-0.84941 -0.82068,-2.26098 c 0.119,-0.41034 0.2503,-0.82068 0.41034,-1.23102 0.29955,-0.93147 0.6032,-1.86294 0.86171,-2.80672 a 51.616673,51.616673 0 0 0 1.2105,-5.789897 0.92330394,0.92330394 0 0 0 -1.78087,-0.488304 l -1.03816,-0.09438 a 0.93967868,0.93967868 0 0 0 -1.54288,-0.410341 8.2068008,8.2068008 0 0 0 -2.43332,3.085758 c -0.50472,1.070987 1.0874,2.006564 1.59623,0.931471 z"
       id="path35938"
       style="stroke-width:0.41034" />
    <path
       d="m 99.550258,77.428743 c -1.3295,2.966754 -1.54287,7.078364 0.496522,9.815334 0.77554,1.04226 1.98194,1.91218 3.32375,1.42798 1.64136,-0.59499 2.13787,-2.79852 2.55642,-4.27984 0.87813,-3.135 1.59622,-8.243735 -1.64136,-10.389814 -3.16783,-2.08863 -5.260562,2.388179 -6.085342,4.710704 -0.41034,1.12023 1.38284,1.60443 1.78087,0.48831 0.603202,-1.702916 2.523592,-5.744766 4.238812,-2.462046 1.06689,2.051696 0.6032,4.669666 0.0369,6.803436 -0.18465,0.68938 -0.44727,2.36766 -0.99302,2.84776 -1.53877,1.35823 -2.37587,-1.40747 -2.58925,-2.24866 a 8.9289994,8.9289994 0 0 1 0.4801,-5.794003 c 0.4801,-1.07509 -1.10792,-2.018872 -1.592122,-0.931471 z"
       id="path35940"
       style="stroke-width:0.41034" />
    <path
       d="m 112.54983,79.562507 c 0.46369,-1.727527 0.86992,-4.825595 -1.50184,-5.428795 -2.37176,-0.6032 -3.30734,2.634384 -3.60278,4.292155 -0.45548,2.5277 -0.82068,6.04431 0.82068,8.27245 1.18998,1.60033 3.22117,1.98605 4.74763,0.64424 0.89454,-0.78375 -0.41034,-2.08863 -1.30488,-1.30488 -0.69758,0.61551 -1.81781,-0.16824 -2.16249,-0.77144 a 4.858426,4.858426 0 0 1 -0.47189,-1.51415 13.098054,13.098054 0 0 1 0,-3.82027 c 0.0944,-0.82068 0.13951,-2.43742 0.73451,-3.114481 0.0616,-0.467787 0.29954,-0.574476 0.71809,-0.311858 0.47189,-0.07386 0.65244,0.110791 0.54165,0.545752 0.18465,0.582683 -0.16414,1.464917 -0.31186,2.018877 -0.31186,1.14895 1.46902,1.64136 1.78087,0.4924 z"
       id="path35942"
       style="stroke-width:0.41034" />
    <path
       d="m 114.76977,82.521067 c 3.0201,0.19285 5.84324,-1.45261 6.22486,-4.65326 0.27903,-2.351249 -1.8137,-5.445212 -4.45219,-4.173158 -2.63848,1.272054 -2.87238,6.245378 -2.80672,8.699208 0.0616,2.76569 1.60853,6.45875 4.92408,6.10586 1.16946,-0.1231 1.18177,-1.96963 0,-1.84653 -4.24292,0.45137 -3.0119,-6.76651 -2.49077,-9.027481 0.25441,-1.099711 0.25441,-1.522361 1.4444,-1.780876 q 1.27205,-0.738612 1.50595,0.849404 a 2.6507967,2.6507967 0 0 1 -0.16004,1.674183 c -0.63602,1.89167 -2.39638,2.4046 -4.20598,2.2897 -1.18588,-0.0739 -1.18178,1.77267 0,1.84653 z"
       id="path35944"
       style="stroke-width:0.41034" />
    <path
       d="m 128.98805,77.810359 c -0.22158,-3.69306 -4.63274,-5.798105 -6.71316,-2.0517 a 4.9240804,4.9240804 0 0 0 0.39803,5.162078 c 0.57858,0.80016 1.29257,1.0874 2.09273,1.64136 1.0751,0.73041 1.42799,1.42799 1.0833,2.61797 -0.30775,1.05868 -2.20352,3.00369 -3.09396,1.07509 -0.49651,-1.07509 -2.08863,-0.13952 -1.59212,0.93557 1.60033,3.459171 6.09765,0.99303 6.62288,-1.92859 a 3.8777133,3.8777133 0 0 0 -1.60442,-3.99671 c -1.23102,-0.85762 -2.5359,-1.38285 -2.60977,-3.126796 -0.0328,-0.82068 0.41035,-2.0517 1.23103,-2.392282 l 1.60032,0.250307 a 2.4374198,2.4374198 0 0 1 0.74271,1.826013 c 0.0698,1.181778 1.91629,1.189988 1.84653,0 z"
       id="path35946"
       style="stroke-width:0.41034" />
    <path
       d="m 136.47265,78.114011 c 0.27493,-1.661877 -0.47599,-3.520718 -2.2897,-3.926954 -2.01476,-0.451375 -3.58637,1.444397 -4.18957,3.130894 -0.77964,2.183006 0.0246,3.660236 1.90398,4.796876 1.36644,0.82068 2.56463,1.55929 2.93804,3.24989 0.59088,2.67952 -2.68773,1.23102 -4.07058,0.66065 -1.10381,-0.43906 -1.58391,1.34591 -0.4883,1.78088 2.71234,1.07919 7.04554,1.96552 6.44233,-2.35126 a 6.1756176,6.1756176 0 0 0 -2.14607,-3.85309 c -0.5991,-0.50061 -1.37875,-0.7304 -1.97784,-1.2064 a 2.4004892,2.4004892 0 0 1 -0.93968,-2.293797 3.0775502,3.0775502 0 0 1 0.70989,-1.304881 q 0.82068,-1.432087 2.31842,0.82068 c -0.19697,1.161258 1.58391,1.641358 1.78087,0.492409 z"
       id="path35948"
       style="stroke-width:0.41034" />
  </g>
  <metadata
     id="metadata134">
    <rdf:RDF>
      <cc:Work
         rdf:about="">
        <dc:title>sel_hmm</dc:title>
      </cc:Work>
    </rdf:RDF>
  </metadata>
</svg>
