<?xml version="1.0" encoding="UTF-8" standalone="no"?>
<!-- Generator: Adobe Illustrator 23.0.3, SVG Export Plug-In . SVG Version: 6.00 Build 0)  -->

<svg
   version="1.1"
   id="svg134"
   x="0px"
   y="0px"
   viewBox="0 0 700 414.9"
   style="enable-background:new 0 0 700 414.9;"
   xml:space="preserve"
   sodipodi:docname="sel_hmm_9.svg"
   inkscape:version="1.3.2 (091e20e, 2023-11-25)"
   xmlns:inkscape="http://www.inkscape.org/namespaces/inkscape"
   xmlns:sodipodi="http://sodipodi.sourceforge.net/DTD/sodipodi-0.dtd"
   xmlns="http://www.w3.org/2000/svg"
   xmlns:svg="http://www.w3.org/2000/svg"
   xmlns:rdf="http://www.w3.org/1999/02/22-rdf-syntax-ns#"
   xmlns:cc="http://creativecommons.org/ns#"
   xmlns:dc="http://purl.org/dc/elements/1.1/"><defs
   id="defs117" />
<style
   type="text/css"
   id="style1">
	.st0{opacity:0.3;fill:#1F77B4;enable-background:new    ;}
	.st1{opacity:0.3;fill:#FF7F0E;enable-background:new    ;}
	.st2{opacity:0.3;fill:#2CA02C;enable-background:new    ;}
	.st3{fill:none;stroke:#FF7F0E;stroke-width:0.6722;stroke-linejoin:round;stroke-dasharray:2.4872,1.0755;}
	.st4{stroke:#000000;stroke-width:1.5041;}
	.st5{stroke:#000000;stroke-width:1.1416;}
	.st6{fill:none;stroke:#000000;stroke-width:1.7808;stroke-linecap:round;stroke-linejoin:round;}
	.st7{fill:#8C0000;}
	.st8{fill:#870303;stroke:#000000;stroke-width:2;stroke-linecap:round;stroke-linejoin:round;}
	.st9{fill:none;stroke:#000000;stroke-width:0.5106;stroke-linecap:round;stroke-linejoin:round;}
	.st10{fill:#010B7F;}
	.st11{fill:none;stroke:#000000;stroke-width:0.4;stroke-linecap:round;stroke-linejoin:round;}
</style>
<sodipodi:namedview
   bordercolor="#000000"
   borderopacity="0.25"
   id="namedview134"
   inkscape:current-layer="Layer_1"
   inkscape:cx="364.17474"
   inkscape:cy="172.04117"
   inkscape:deskcolor="#d1d1d1"
   inkscape:pagecheckerboard="0"
   inkscape:pageopacity="0.0"
   inkscape:showpageshadow="2"
   inkscape:window-height="449"
   inkscape:window-maximized="0"
   inkscape:window-width="1312"
   inkscape:window-x="62"
   inkscape:window-y="25"
   inkscape:zoom="0.79632102"
   pagecolor="#ffffff">
	</sodipodi:namedview>
<title
   id="title1">sel_hmm</title>
<g
   id="Layer_1">
	
	
	
	
	
	
	
	
	
	
	
	
	
	
	
	
	
	
	
	
	
	
	
	
	
	
	
	
	
	
	
	
	
	
	
	
	
	
	
	
	
	
	
	
	
	
	
	
	
	
	
	
	
	
	
	
	
	
	
	
	
	
	
	
	
	
	
	
	
	
	
	
	
	
	
	
	
	
	
	
	
	
	
	
	
	
	
	
	
	
	
	
	
	
	
	
	
	
	
	
	
	
	
	
	
	
	
	
	
	
	
	
	
	
	
	
	
	
	
	
	
	
	
	
	
	
	
	
	
	
	
	
	
	
	
	
	
	
	
	
	
	
	
	
	
	
	
	
	
	
	
	
	
	
	
	
	
	
	
	
	
	
	
	
	
	
	
	
	
	
	
	
	
	
	
	
	
	
	
	
	
	
	
	
	
	
	
	
	
	
	
	
	
	
	
	
	
	
	
	
	
	
	
	
	
	
	
	
	
	
	
	
	
	
	
	
	
	
	
	
	
	
	
	
	
	
	
	
	
	
	
	
	
	
	
	
	
	
	
	
	
	
	
	
	
	
	
	
	
	
	
	
	
	
	<path
   id="path43"
   class="st10"
   d="M639.8,93.6c1.9,16.5,3,32.9,3.2,49.4l1.3-0.3c-2.5-1.3-4.6-2.8-6.3-4.5l-1.2,0.6   c2.9,2.1,6.5,3.7,10.5,4.8c0.4,0.1,0.8,0,1-0.2c1.9-1.9,3.3-3.9,4.2-6c0.1-0.3-0.2-0.5-0.6-0.6c-0.4,0-0.7,0.1-0.8,0.3   c-0.8,1.8-1.8,5.5-5.3,5c-3-0.4-6.1-2.6-8-4c-0.3-0.2-0.8-0.2-1.1,0c-0.2,0.2-0.3,0.4-0.1,0.6c1.8,1.8,4,3.3,6.5,4.7   c0.3,0.2,0.8,0.2,1.1,0c0.1-0.1,0.2-0.2,0.2-0.3c-0.2-16.5-1.2-33-3.2-49.4C641.2,92.9,639.7,92.9,639.8,93.6L639.8,93.6z"
   style="fill:#0000ff" />
	<path
   id="path99"
   d="M627.6,154.8v-0.6c0-0.3-0.2-0.5-0.5-0.5s-0.5,0.2-0.5,0.5l-0.7,16.4c0,0.7,1.1,0.7,1.1,0l0.7-16.4h-1.1v0.6   c0,0.3,0.2,0.5,0.5,0.5S627.6,155.1,627.6,154.8L627.6,154.8z" />
	<path
   id="path100"
   d="M627.2,155.2c4-0.4,6.4,1.8,6.3,5.8c-0.1,4.4-1.7,8.7-6.8,8.7c-0.3,0-0.5,0.2-0.5,0.5s0.2,0.5,0.5,0.5   c9.8,0,11.4-17.9,0.5-16.7C626.5,154.2,626.5,155.3,627.2,155.2z" />
	<path
   id="path101"
   d="M640.7,163.6c1.3-1.9,0.2-4.6-2.3-4.5c-3.1,0.2-3.4,4.1-3.3,6.4c0,1.4,0.6,5.7,2.8,4.5   c1.1-0.6,1.9-2.4,2.3-3.5c0.7-1.7,0.9-3.6,0.7-5.5c-0.1-0.7-1.1-0.7-1.1,0c0.1,2.5,0.4,5,1,7.5c0.2,0.7,1.2,0.4,1.1-0.3   c-0.5-2.4-0.9-4.8-1-7.2h-1.1c0.2,1.4,0.1,2.9-0.3,4.3c-0.2,0.7-0.5,1.3-0.8,1.9c-0.1,0.3-0.3,0.6-0.5,0.8c-0.9,0.8-1.4,0.8-1.6,0   c-0.7-0.7-0.5-2.9-0.4-3.8c0-1,0.1-1.9,0.6-2.8l0.9-1c2.4,0.2,3.1,1.1,2.1,2.6C639.3,163.6,640.3,164.2,640.7,163.6L640.7,163.6z" />
	<path
   id="path102"
   d="M644.7,155c-0.8,2.7-3.4,17.9,3.3,14.6c0.6-0.3,0.1-1.3-0.6-0.9c-3.2,1.6-2.9-6-2.8-7.1   c0.1-2.1,0.5-4.3,1.2-6.3c0.1-0.3-0.1-0.6-0.4-0.7C645.1,154.5,644.8,154.7,644.7,155L644.7,155z" />
	<path
   id="path103"
   d="M642.3,161.2l5.7-0.3c0.7,0,0.7-1.1,0-1.1l-5.7,0.3C641.6,160.1,641.6,161.2,642.3,161.2z" />
	<path
   id="path104"
   d="M655.7,162.7c0.9-2.2-2-3.2-3.7-2.6c-2.3,0.9-3.6,3.3-3.2,5.8c0.3,1.8,2,4.4,4.1,3.8c1-0.3,1.7-1.2,1.8-2.3   c0.3-1.9,0.3-3.9,0.4-5.8l-1.1,0.1l2,7.5c0.1,0.3,0.4,0.5,0.7,0.4c0.3-0.1,0.5-0.4,0.4-0.7l-2-7.5c-0.1-0.3-0.4-0.4-0.7-0.4   c-0.2,0.1-0.4,0.3-0.4,0.5l-0.3,3.9c-0.1,0.9,0,3.9-2.2,2.8c-0.6-0.4-1-0.9-1.3-1.5c-0.5-1.2-0.5-2.5,0-3.6   c0.2-0.5,0.5-0.9,0.9-1.2c0.3-0.3,0.6-0.5,0.9-0.7c1.2-0.7,2.1-0.3,2.6,1.2C654.3,163,655.4,163.3,655.7,162.7L655.7,162.7z" />
	<path
   id="path105"
   d="M620.1,172.5c-0.1,4.7,0.1,9.4,0.4,14.1c0.1,0.7,1.1,0.7,1.1,0c-0.3-4.7-0.4-9.4-0.4-14.1   c0-0.3-0.2-0.5-0.5-0.5C620.3,171.9,620.1,172.2,620.1,172.5z" />
	<path
   id="path106"
   d="M622.9,182.2c-0.1,1.9,0.3,5.7,3.2,5.2c2.1-0.4,2.9-3.6,3.1-5.3c0.2-2.1-0.8-4.3-3.1-4.5   c-2.3-0.2-3.7,2.1-3.4,4.2c0.1,0.7,1.2,0.4,1.1-0.3c-0.3-2,1.8-3.7,3.5-2.2c1,0.9,1,2.4,0.7,3.6c-0.2,0.9-0.5,1.7-0.9,2.5   c-0.3,0.7-0.8,0.8-1.5,0.3c-0.9,0.1-1.4-0.3-1.5-1.1c-0.1-0.8-0.2-1.5-0.1-2.3C624,181.6,622.9,181.6,622.9,182.2L622.9,182.2z" />
	<path
   id="path107"
   d="M634.2,179.1c-0.7-0.9-2.3-1.8-3.3-0.9c-0.4,0.5-0.6,1.2-0.6,1.9c-0.2,1.4-0.2,2.7-0.3,4.1   c0,1.4-0.3,3.2,1.4,3.5c1.7,0.3,3.1-1.1,3.8-2.5c0.3-0.6-0.6-1.2-0.9-0.5c-0.5,0.9-1.7,2.5-2.8,1.7c-0.7-0.5-0.4-2.1-0.3-2.9   c0-0.8,0.1-1.7,0.2-2.5c0-0.6-0.1-1.5,0.4-1.8c0.5-0.4,1.3,0.1,1.7,0.7S634.6,179.7,634.2,179.1L634.2,179.1z" />
	<path
   id="path108"
   d="M636.3,177.9c-0.2,2.3-0.6,5.1-0.3,7.4c0.1,1.1,1,2,2.1,2.1c4.1,0.2,4.1-5.9,4-8.5c0-0.7-1.1-0.7-1.1,0   l0.3,9.2c0,0.7,1.1,0.7,1.1,0l-0.3-9.2H641c0.1,1.2,0.1,2.4,0,3.6c-0.1,0.6-0.2,1.3-0.5,1.8c-0.1,0.3-0.3,0.7-0.5,0.9   c-0.6,1.1-1.6,0.9-2.9-0.5c-0.3-0.7,0-2.2,0.1-3c0.1-1.3,0.1-2.5,0.2-3.7C637.4,177.1,636.4,177.1,636.3,177.9L636.3,177.9z" />
	<path
   id="path109"
   d="M647.2,178.2c-1.5-2.1-3.6,0.2-4.1,1.8c-0.4,1,0,2,0.8,2.7c0.5,0.4,1.1,0.8,1.7,1c0.3,0.1,0.6,0.3,0.9,0.5   c0.7,1.8,0.5,2.6-0.7,2.5c-0.5,0.1-1.1,0-1.6-0.1c-0.7-0.1-1,0.9-0.3,1c1.7,0.3,5.1,0.1,4.6-2.5c-0.2-1-1.1-1.7-2-2.1   c-0.6-0.3-1.2-0.6-1.7-0.9c-0.7-0.4-1-1.2-0.7-2c0,0,0,0,0,0c0.2-0.5,1.3-2.4,2-1.4C646.7,179.3,647.6,178.7,647.2,178.2z" />
	<path
   id="path111"
   d="M655.7,173.8c0.1,4.3,0,8.6-0.1,12.9c0,0.3,0.2,0.5,0.5,0.5c2.5-0.2,5.3-0.1,7.7-0.6c1-0.2,1.5-0.6,1.3-1.6   c0-0.2-0.2-0.3-0.4-0.4l-0.4-0.1c-0.2-0.1-0.5,0-0.6,0.3l-0.2,0.3c-0.2,0.3-0.1,0.6,0.2,0.7c0.3,0.2,0.6,0.1,0.7-0.2   c0,0.1-4.2,0.1-4.7,0.2l-3.8,0.3l0.5,0.5c0.2-4.3,0.2-8.6,0.1-12.9c0-0.3-0.2-0.5-0.5-0.5C655.9,173.3,655.7,173.5,655.7,173.8   L655.7,173.8z" />
	
	
	
	
	
	
	
	
	
	
	
	
	
	
	
	
	
	
	
	
	
	
	
	
	
	
	
	
	
	
	
	
	
	
	
	
	
	
	<g
   transform="matrix(0.67220823,0,0,0.67220823,-870.81431,117.47878)"
   id="g117">
		<rect
   id="rect35213_2_"
   x="2229.6"
   y="122.8"
   class="st0"
   width="39.8"
   height="18" />
		<rect
   id="rect35215_2_"
   x="2229.6"
   y="147.9"
   class="st1"
   width="39.8"
   height="18" />
		<rect
   id="rect35217_2_"
   x="2229.6"
   y="172.9"
   class="st2"
   width="39.8"
   height="18" />
		<rect
   id="rect35219_2_"
   x="2229.6"
   y="232.5"
   class="st0"
   width="39.8"
   height="18" />
		<rect
   id="rect35221_2_"
   x="2229.6"
   y="257.5"
   class="st1"
   width="39.8"
   height="18" />
		<rect
   id="rect35223_2_"
   x="2229.6"
   y="282.5"
   class="st2"
   width="39.8"
   height="18" />
		<rect
   id="rect35225_2_"
   x="2229.6"
   y="334"
   class="st0"
   width="39.8"
   height="18" />
		<rect
   id="rect35227_2_"
   x="2229.6"
   y="359"
   class="st1"
   width="39.8"
   height="18" />
		<rect
   id="rect35229_2_"
   x="2229.6"
   y="384"
   class="st2"
   width="39.8"
   height="18" />
	</g>
	<path
   id="path35402_2_"
   d="M629.3,197.6c-1.3,0.1-2.6,0.1-3.9,0.2c-0.8,0.1-1.8,0-2.6,0.2c-1.5,0.5-1.3,2-1.2,3.3   c0.4,5.3,0.7,10.6,0.9,15.9c0.4,10.4,0.2,20.9-0.3,31.3c0,0.3,0.2,0.6,0.5,0.6c0,0,0.1,0,0.1,0c3.6-0.2,7.3-0.5,11-0.7   c0.7,0,0.5-1.1-0.2-1.1c-3.6,0.2-7.3,0.5-11,0.7c0.2,0.2,0.4,0.4,0.6,0.6c0.5-9.3,0.6-18.6,0.4-27.9c-0.1-4.3-0.3-8.7-0.6-13   c-0.1-1.2-0.1-2.3-0.2-3.5c-0.1-1.1-0.4-2.4-0.3-3.5c0.2-2.2,1.8-1.8,3.3-1.9c1.2-0.1,2.4-0.1,3.6-0.2   C630.2,198.7,630,197.6,629.3,197.6L629.3,197.6z" />
	<path
   id="path35404_2_"
   d="M652.5,198.2c2.1,0.2,4.2,0.4,6.4,0.5l-0.5-0.5c-1,9.1-1.3,18.3-0.9,27.5c0.2,4.4,0.5,8.8,1,13.2   l0.4,3.1c0.1,1.2,0.7,2.7-0.1,3.7c-0.7,1-2.4,0.9-3.7,1.1l-3.9,0.7c-0.3,0-0.5,0.3-0.4,0.6c0,0.3,0.3,0.5,0.6,0.4c0,0,0,0,0.1,0   c2.4-0.4,5.2-0.5,7.5-1.3c1.5-0.5,1.4-1.5,1.2-2.8c-0.6-5.2-1.2-10.5-1.5-15.7c-0.6-10.1-0.3-20.2,0.8-30.3c0-0.3-0.2-0.5-0.5-0.5   c-2.1-0.2-4.2-0.4-6.4-0.5c-0.3-0.1-0.5,0.1-0.6,0.4C652,197.9,652.2,198.1,652.5,198.2C652.5,198.2,652.5,198.2,652.5,198.2   L652.5,198.2z" />
	<path
   id="path35408_2_"
   d="M643.7,201.1c-2.4,2.6-4,5.9-4.7,9.4c-0.2,0.9,1.1,1.2,1.3,0.4c0.6-3.3,2.1-6.3,4.3-8.8   C645.3,201.4,644.3,200.5,643.7,201.1z" />
	<path
   id="path35410_2_"
   d="M646.5,204.8c0.1-0.8,0.4-2,1.2-2.3c0.6-0.2,0.6,0.4,0.6,0.9c0,0.5-0.1,1.1-0.3,1.6   c-0.5,1.6-1.5,2.8-2.6,4c-0.3,0.3-0.3,0.7,0,1c0.1,0.1,0.2,0.1,0.3,0.2c2.1,0.4,4.3,0.5,6.4,0.5c0.9,0,0.9-1.4,0-1.4   c-2,0.1-4.1-0.1-6.1-0.4l0.3,1.1c1.8-2,4.3-5.4,3.1-8.2c-0.4-1-1.4-1.1-2.3-0.6c-1.2,0.6-1.8,2-2,3.2   C645.1,205.3,646.4,205.7,646.5,204.8L646.5,204.8z" />
	<path
   id="path35414_2_"
   d="M643.8,218.3c-1.6,2.8-2.9,5.7-4,8.8c-0.1,0.4,0.1,0.7,0.5,0.8c0.1,0,0.1,0,0.2,0l0,0   c0.4,0,0.7-0.3,0.7-0.7c0-0.1,0-0.1,0-0.2v0c-0.3-0.8-1.6-0.5-1.3,0.4l0,0l0.7-0.9l0,0l0.7,0.9c1-2.9,2.3-5.8,3.8-8.4   c0.2-0.3,0.1-0.7-0.2-0.9C644.4,217.8,644,217.9,643.8,218.3L643.8,218.3z" />
	<path
   id="path35416_2_"
   d="M647.4,220.4c1.2-0.4,1.4-0.1,0.8,0.9c-0.4,0.3-0.9,0.5-1.4,0.4v1.4c1.2-0.1,3.9,0.7,2.8,2.5   c-0.4,0.7-4.4,1.2-4.5,0c-0.1-0.9-1.5-0.9-1.4,0c0.1,1.3,1,2,2.3,2c1.3,0.1,3.5,0.1,4.5-1c0.8-1,0.8-2.4,0.1-3.4   c-0.8-1.3-2.4-1.6-3.8-1.5c-0.4,0-0.7,0.3-0.7,0.7c0,0.4,0.3,0.7,0.7,0.7c1.8,0,3.8-1.5,2.8-3.5c-0.5-0.9-1.6-1.3-2.5-0.8   c-0.5,0.3-0.9,0.7-1,1.3C645.8,220.9,647.2,221.3,647.4,220.4L647.4,220.4z" />
	<path
   id="path35420_2_"
   d="M642.7,291.3c-0.8,3.2-1.8,6.3-2.9,9.4c-0.3,0.8,1,1.2,1.3,0.4c1.1-3.1,2.1-6.3,2.9-9.4   C644.2,290.9,642.9,290.5,642.7,291.3L642.7,291.3z" />
	<path
   id="path35422_2_"
   d="M646.4,293.9c0.5-0.6,0.4-0.8,1.2-0.4c0.6,0.1,0.8,0.3,0.4,0.8c-0.1,0.5-0.5,0.9-1,0.9   c-0.4,0.1-0.6,0.5-0.5,0.8c0.1,0.3,0.3,0.5,0.6,0.5c1.7,0.2,2.6,2.2,0.9,3.2c-1.2,0.7-2.8,0.4-3-1.2c-0.1-0.9-1.5-0.5-1.3,0.4   c0.5,3,4.1,3.2,6,1.3c2.2-2.2,0-4.7-2.5-5l0.2,1.3c1.6-0.5,2.7-2.2,2-3.8c-0.9-2-2.9-1-3.9,0.2   C644.9,293.6,645.9,294.6,646.4,293.9L646.4,293.9z" />
	<path
   id="path35424_2_"
   d="M632.3,238.4c-0.9,2.5-0.5,5.3,2.3,6.4c2.2,0.9,4.7-2.2,5.3-4.1c0.7-2.3-1-5.1-3.2-5.8   c-2.9-0.9-3.7,2.6-4.4,4.5c-0.3,0.8,1,1.2,1.3,0.4c0.2-0.6,0.4-1.2,0.6-1.8c0.4-1.1,0.5-1.6,1.7-1.6c2.1,0,3.4,2.6,2.4,4.4   c-0.6,1.1-2.1,3-3.6,2.5c-2-0.7-1.7-3.1-1.2-4.6C634,237.9,632.7,237.6,632.3,238.4L632.3,238.4z" />
	<path
   id="path35426_2_"
   d="M643.7,234.6l-2,8.9c-0.2,0.9,1.1,1.2,1.3,0.4l2-8.9C645.2,234.2,643.9,233.8,643.7,234.6z" />
	<path
   id="path35428_2_"
   d="M647.2,240.6c1-0.4,1.9-1.2,2.6-2.1c0.8-1.2,0.5-2.4,1.1-3.6l-1.3-0.3c0.1,1.6-0.1,3.3-0.3,4.9   c-0.2,1.4-0.1,3.6-1.9,3.4c-0.8-0.1-0.9,1.2-0.2,1.3c1.1,0.3,2.3,0.4,3.4,0.2c0.9-0.1,0.9-1.5,0-1.4c-1,0.1-2,0.1-3-0.2l-0.2,1.3   c2.3,0.2,2.4-0.2,2.8-2.4c0.5-2.4,0.8-4.8,0.7-7.3c0-0.6-1-1-1.3-0.3c-0.4,0.8-0.3,1.6-0.5,2.5c-0.3,1.3-1.4,2.2-2.6,2.7   C645.7,239.8,646.4,241,647.2,240.6L647.2,240.6z" />
	<path
   id="path35430_2_"
   d="M634,383.1c2-1.2,3.1-3.4,3-5.7c0-0.4-0.3-0.7-0.7-0.7c-0.4,0-0.7,0.3-0.7,0.7v6.9c0,1.1,0,1.5-1.2,1.5   c-0.9,0-0.9,1.3,0,1.4c0.9,0.1,1.8,0.2,2.7,0.3c0.9,0.2,1.2-1.2,0.4-1.3c-1-0.2-2-0.3-3-0.4v1.4c0.7,0.1,1.3,0,2-0.1   c0.2-0.1,0.4-0.3,0.5-0.5c0.3-1.3,0.1-2.8,0.1-4.1v-5.1h-1.4c0.1,1.8-0.8,3.6-2.3,4.5C632.5,382.3,633.2,383.5,634,383.1L634,383.1   z" />
	<path
   id="path35432_2_"
   d="M642.3,376.6c-0.7,3.3-1.2,6.8-2.5,9.9c-0.3,0.7,0.9,1.1,1.2,0.5l0.3-0.5c0.5-0.7-0.7-1.4-1.2-0.7   l-0.3,0.5l1.3,0.5c1.3-3.2,1.8-6.6,2.5-9.9C643.8,376.1,642.4,375.7,642.3,376.6L642.3,376.6z" />
	<path
   id="path35434_2_"
   d="M646.1,384c2-1.6,3.2-4.1,3.1-6.6c0-0.9-1.3-0.9-1.4,0l-0.3,5.2c0,0.7,0,1.5-0.1,2.2   c-0.2,1.2-0.2,1.2-1.4,1.2v1.4h3.5c0.4,0,0.7-0.3,0.7-0.7c0-0.4-0.3-0.7-0.7-0.7H646c-0.4,0-0.7,0.3-0.7,0.7c0,0.4,0.3,0.7,0.7,0.7   c1.5,0,2.5,0.2,2.7-1.5c0.3-2.8,0.3-5.7,0.5-8.5h-1.4c0,2.2-1,4.3-2.7,5.7C644.4,383.6,645.4,384.5,646.1,384L646.1,384z" />
	<path
   id="path35436_2_"
   d="M629.3,271.3c-1.3,0.1-2.6,0.1-3.9,0.2c-0.8,0.1-1.8,0-2.6,0.2c-1.5,0.5-1.3,2-1.2,3.3   c0.4,5.3,0.7,10.6,0.9,15.9c0.4,10.4,0.2,20.9-0.3,31.3c0,0.3,0.2,0.6,0.5,0.6c0,0,0.1,0,0.1,0c3.6-0.2,7.3-0.5,11-0.7   c0.7,0,0.5-1.1-0.2-1.1c-3.6,0.2-7.3,0.5-11,0.7c0.2,0.2,0.4,0.4,0.6,0.6c0.5-9.3,0.6-18.6,0.4-27.9c-0.1-4.3-0.3-8.7-0.6-13   c-0.1-1.2-0.1-2.3-0.2-3.5c-0.1-1.1-0.4-2.4-0.3-3.5c0.2-2.2,1.8-1.8,3.3-1.9c1.2-0.1,2.4-0.1,3.6-0.2   C630.2,272.4,630,271.3,629.3,271.3L629.3,271.3z" />
	<path
   id="path35438_2_"
   d="M652.5,271.9c2.1,0.2,4.2,0.4,6.4,0.5l-0.5-0.5c-1,9.1-1.3,18.3-0.9,27.5c0.2,4.4,0.5,8.8,1,13.2   l0.4,3.1c0.1,1.2,0.7,2.7-0.1,3.7c-0.7,1-2.4,0.9-3.7,1.1l-3.9,0.7c-0.3,0-0.5,0.3-0.4,0.6s0.3,0.5,0.6,0.4c0,0,0,0,0.1,0   c2.4-0.4,5.2-0.5,7.5-1.3c1.5-0.5,1.4-1.5,1.2-2.8c-0.6-5.2-1.2-10.5-1.5-15.7c-0.6-10.1-0.3-20.2,0.8-30.3c0-0.3-0.2-0.5-0.5-0.5   c-2.1-0.2-4.2-0.4-6.4-0.5c-0.3-0.1-0.5,0.1-0.6,0.4C652,271.5,652.2,271.8,652.5,271.9C652.5,271.9,652.5,271.9,652.5,271.9   L652.5,271.9z" />
	<path
   id="path35442_2_"
   d="M643.7,274.8c-2.4,2.6-4,5.9-4.7,9.4c-0.2,0.9,1.1,1.2,1.3,0.4c0.6-3.3,2.1-6.3,4.3-8.8   C645.3,275.1,644.3,274.2,643.7,274.8z" />
	<path
   id="path35444_2_"
   d="M646.5,278.5c0.1-0.8,0.4-2,1.2-2.3c0.6-0.2,0.6,0.4,0.6,0.9c0,0.5-0.1,1.1-0.3,1.6   c-0.5,1.6-1.5,2.8-2.6,4c-0.3,0.3-0.3,0.7,0,1c0.1,0.1,0.2,0.1,0.3,0.2c2.1,0.4,4.3,0.5,6.4,0.5c0.9,0,0.9-1.4,0-1.4   c-2,0.1-4.1-0.1-6.1-0.4l0.3,1.1c1.8-2,4.3-5.4,3.1-8.2c-0.4-1-1.4-1.1-2.3-0.6c-1.2,0.6-1.8,2-2,3.2   C645.1,279,646.4,279.4,646.5,278.5L646.5,278.5z" />
	<path
   id="path35446_2_"
   d="M629.3,339.6c-1.3,0.1-2.6,0.1-3.9,0.2c-0.8,0.1-1.8,0-2.6,0.2c-1.5,0.5-1.3,2-1.2,3.3   c0.4,5.3,0.7,10.6,0.9,15.9c0.4,10.4,0.2,20.9-0.3,31.3c0,0.3,0.2,0.6,0.5,0.6c0,0,0.1,0,0.1,0c3.6-0.2,7.3-0.5,11-0.7   c0.7,0,0.5-1.1-0.2-1.1c-3.6,0.2-7.3,0.5-11,0.7c0.2,0.2,0.4,0.4,0.6,0.6c0.5-9.3,0.6-18.6,0.4-27.9c-0.1-4.3-0.3-8.7-0.6-13   c-0.1-1.2-0.1-2.3-0.2-3.5c-0.1-1.1-0.4-2.4-0.3-3.5c0.2-2.2,1.8-1.8,3.3-1.9c1.2-0.1,2.4-0.1,3.6-0.2   C630.2,340.6,630,339.5,629.3,339.6L629.3,339.6z" />
	<path
   id="path35448_2_"
   d="M652.5,340.1c2.1,0.2,4.2,0.4,6.4,0.5l-0.5-0.5c-1,9.1-1.3,18.3-0.9,27.5c0.2,4.4,0.5,8.8,1,13.2   l0.4,3.1c0.1,1.2,0.7,2.7-0.1,3.7c-0.7,1-2.4,0.9-3.7,1.1l-3.9,0.7c-0.3,0-0.5,0.3-0.4,0.6c0,0.3,0.3,0.5,0.6,0.4c0,0,0,0,0.1,0   c2.4-0.4,5.2-0.5,7.5-1.3c1.5-0.5,1.4-1.5,1.2-2.8c-0.6-5.2-1.2-10.5-1.5-15.7c-0.6-10.1-0.3-20.2,0.8-30.3c0-0.3-0.2-0.5-0.5-0.5   c-2.1-0.2-4.2-0.4-6.4-0.5c-0.3-0.1-0.5,0.1-0.6,0.4C652,339.8,652.2,340,652.5,340.1C652.5,340.1,652.5,340.1,652.5,340.1   L652.5,340.1z" />
	<path
   id="path35452_2_"
   d="M643.7,343.1c-2.4,2.6-4,5.9-4.7,9.4c-0.2,0.9,1.1,1.2,1.3,0.4c0.6-3.3,2.1-6.3,4.3-8.8   C645.3,343.4,644.3,342.4,643.7,343.1L643.7,343.1z" />
	<path
   id="path35454_2_"
   d="M646.5,346.8c0.1-0.8,0.4-2,1.2-2.3c0.6-0.2,0.6,0.4,0.6,0.9c0,0.5-0.1,1.1-0.3,1.6   c-0.5,1.6-1.5,2.8-2.6,4c-0.3,0.3-0.3,0.7,0,1c0.1,0.1,0.2,0.1,0.3,0.2c2.1,0.4,4.3,0.5,6.4,0.5c0.9,0,0.9-1.4,0-1.4   c-2,0.1-4.1-0.1-6.1-0.4l0.3,1.1c1.8-2,4.3-5.4,3.1-8.2c-0.4-1-1.4-1.1-2.3-0.6c-1.2,0.6-1.8,2-2,3.2   C645.1,347.3,646.4,347.6,646.5,346.8L646.5,346.8z" />
	<path
   id="path35456_2_"
   d="M633.6,365.9c1.9-1.2,3.1-3.2,3.3-5.4c0.1-0.9-1.3-0.9-1.4,0c-0.4,2.9-0.6,5.7-0.8,8.6l0.7-0.7   c-0.6,0-1.2,0.2-1.8,0.5c-0.3,0.2-0.4,0.6-0.2,1c0.1,0.2,0.3,0.3,0.6,0.3l2.8,0c0.9,0,0.9-1.4,0-1.4l-2.8,0l0.3,1.3l1.1-0.3   c0.4,0,0.7-0.3,0.7-0.7c0.2-2.9,0.4-5.7,0.8-8.6h-1.4c-0.2,1.7-1.1,3.3-2.6,4.2C632.2,365.2,632.9,366.4,633.6,365.9L633.6,365.9z" />
	<path
   id="path35458_2_"
   d="M642.2,359.8c-0.7,3.4-1.8,6.7-3,10c-0.3,0.8,1,1.2,1.3,0.4c1.3-3.2,2.3-6.6,3-10   C643.7,359.3,642.4,359,642.2,359.8z" />
	<path
   id="path35460_2_"
   d="M646.9,362.1c1.4-0.6,1.8-0.3,1.2,1c-0.3,0.5-0.8,0.9-1.4,1c-0.5,0.2-0.7,1.2,0,1.3c1.1,0.2,2.4,1,2,2.4   c-0.7,2.2-3.1,0.7-3.6-0.6c-0.3-0.8-1.6-0.5-1.3,0.4c0.9,2.2,3.7,3.8,5.6,1.7c1.9-2.1,0-4.8-2.3-5.2v1.3c1.8-0.7,3.6-2.8,2.1-4.7   c-1.2-1.5-3.8-0.6-3.6,1.4C645.6,363,647,363,646.9,362.1L646.9,362.1z" />
	<path
   id="path35462_2_"
   d="M632.3,312.1c-0.9,2.5-0.5,5.3,2.3,6.4c2.2,0.9,4.7-2.2,5.3-4.1c0.7-2.3-1-5.1-3.2-5.8   c-2.9-0.9-3.7,2.6-4.4,4.5c-0.3,0.8,1,1.2,1.3,0.4c0.2-0.6,0.4-1.2,0.6-1.8c0.4-1.1,0.5-1.6,1.7-1.6c2.1,0,3.4,2.6,2.4,4.4   c-0.6,1.1-2.1,3-3.6,2.5c-2-0.7-1.7-3.1-1.2-4.6C634,311.6,632.7,311.3,632.3,312.1L632.3,312.1z" />
	<path
   id="path35464_2_"
   d="M643.7,308.3l-2,8.9c-0.2,0.9,1.1,1.2,1.3,0.4l2-8.9C645.2,307.8,643.9,307.5,643.7,308.3L643.7,308.3z" />
	<path
   id="path35466_2_"
   d="M647.2,314.3c1-0.4,1.9-1.2,2.6-2.1c0.8-1.2,0.5-2.4,1.1-3.6l-1.3-0.3c0.1,1.6-0.1,3.3-0.3,4.9   c-0.2,1.4-0.1,3.6-1.9,3.4c-0.8-0.1-0.9,1.2-0.2,1.3c1.1,0.3,2.3,0.4,3.4,0.2c0.9-0.1,0.9-1.5,0-1.4c-1,0.1-2,0.1-3-0.2l-0.2,1.3   c2.3,0.2,2.4-0.2,2.8-2.4c0.5-2.4,0.8-4.8,0.7-7.3c0-0.6-1-1-1.3-0.3c-0.4,0.8-0.3,1.6-0.5,2.5c-0.3,1.3-1.4,2.2-2.6,2.7   C645.7,313.5,646.4,314.7,647.2,314.3L647.2,314.3z" />
	
	
	<path
   id="path35454_3_"
   d="M632.5,346.8c0.1-0.8,0.4-2,1.2-2.3c0.6-0.2,0.6,0.4,0.6,0.9c0,0.5-0.1,1.1-0.3,1.6   c-0.5,1.6-1.5,2.8-2.6,4c-0.3,0.3-0.3,0.7,0,1c0.1,0.1,0.2,0.1,0.3,0.2c2.1,0.4,4.3,0.5,6.4,0.5c0.9,0,0.9-1.4,0-1.4   c-2,0.1-4.1-0.1-6.1-0.4l0.3,1.1c1.8-2,4.3-5.4,3.1-8.2c-0.4-1-1.4-1.1-2.3-0.6c-1.2,0.6-1.8,2-2,3.2   C631.1,347.3,632.4,347.6,632.5,346.8L632.5,346.8z" />
	<path
   id="path35454_4_"
   d="M632.5,278.8c0.1-0.8,0.4-2,1.2-2.3c0.6-0.2,0.6,0.4,0.6,0.9c0,0.5-0.1,1.1-0.3,1.6   c-0.5,1.6-1.5,2.8-2.6,4c-0.3,0.3-0.3,0.7,0,1c0.1,0.1,0.2,0.1,0.3,0.2c2.1,0.4,4.3,0.5,6.4,0.5c0.9,0,0.9-1.4,0-1.4   c-2,0.1-4.1-0.1-6.1-0.4l0.3,1.1c1.8-2,4.3-5.4,3.1-8.2c-0.4-1-1.4-1.1-2.3-0.6c-1.2,0.6-1.8,2-2,3.2   C631.1,279.3,632.4,279.6,632.5,278.8L632.5,278.8z" />
	<path
   id="path35454_5_"
   d="M632.5,204.8c0.1-0.8,0.4-2,1.2-2.3c0.6-0.2,0.6,0.4,0.6,0.9c0,0.5-0.1,1.1-0.3,1.6   c-0.5,1.6-1.5,2.8-2.6,4c-0.3,0.3-0.3,0.7,0,1c0.1,0.1,0.2,0.1,0.3,0.2c2.1,0.4,4.3,0.5,6.4,0.5c0.9,0,0.9-1.4,0-1.4   c-2,0.1-4.1-0.1-6.1-0.4l0.3,1.1c1.8-2,4.3-5.4,3.1-8.2c-0.4-1-1.4-1.1-2.3-0.6c-1.2,0.6-1.8,2-2,3.2   C631.1,205.3,632.4,205.6,632.5,204.8L632.5,204.8z" />
	<path
   id="path35424_3_"
   d="M631.3,221.4c-0.9,2.5-0.5,5.3,2.3,6.4c2.2,0.9,4.7-2.2,5.3-4.1c0.7-2.3-1-5.1-3.2-5.8   c-2.9-0.9-3.7,2.6-4.4,4.5c-0.3,0.8,1,1.2,1.3,0.4c0.2-0.6,0.4-1.2,0.6-1.8c0.4-1.1,0.5-1.6,1.7-1.6c2.1,0,3.4,2.6,2.4,4.4   c-0.6,1.1-2.1,3-3.6,2.5c-2-0.7-1.7-3.1-1.2-4.6C633,220.9,631.7,220.6,631.3,221.4L631.3,221.4z" />
	<path
   id="path35456_3_"
   d="M633.6,296.9c1.9-1.2,3.1-3.2,3.3-5.4c0.1-0.9-1.3-0.9-1.4,0c-0.4,2.9-0.6,5.7-0.8,8.6l0.7-0.7   c-0.6,0-1.2,0.2-1.8,0.5c-0.3,0.2-0.4,0.6-0.2,1c0.1,0.2,0.3,0.3,0.6,0.3l2.8,0c0.9,0,0.9-1.4,0-1.4l-2.8,0l0.3,1.3l1.1-0.3   c0.4,0,0.7-0.3,0.7-0.7c0.2-2.9,0.4-5.7,0.8-8.6h-1.4c-0.2,1.7-1.1,3.3-2.6,4.2C632.2,296.2,632.9,297.4,633.6,296.9L633.6,296.9z" />
	
	
	
	
	
	
	
	
	
	
	
	
	
	
	
	
	
	
	
	
	
	
	
	
	
	
	
	
	
	
	
	
	
	
	
	
</g>
<metadata
   id="metadata117"><rdf:RDF><cc:Work
       rdf:about=""><dc:title>sel_hmm</dc:title></cc:Work></rdf:RDF></metadata></svg>
