<?xml version="1.0" encoding="UTF-8" standalone="no"?>
<!-- Generator: Adobe Illustrator 23.0.3, SVG Export Plug-In . SVG Version: 6.00 Build 0)  -->

<svg
   version="1.1"
   id="svg134"
   x="0px"
   y="0px"
   viewBox="0 0 700 414.9"
   style="enable-background:new 0 0 700 414.9;"
   xml:space="preserve"
   sodipodi:docname="sel_hmm_Q_highlighted.svg"
   inkscape:version="1.3.2 (091e20e, 2023-11-25)"
   xmlns:inkscape="http://www.inkscape.org/namespaces/inkscape"
   xmlns:sodipodi="http://sodipodi.sourceforge.net/DTD/sodipodi-0.dtd"
   xmlns="http://www.w3.org/2000/svg"
   xmlns:svg="http://www.w3.org/2000/svg"
   xmlns:rdf="http://www.w3.org/1999/02/22-rdf-syntax-ns#"
   xmlns:cc="http://creativecommons.org/ns#"
   xmlns:dc="http://purl.org/dc/elements/1.1/"><defs
   id="defs117" />
<style
   type="text/css"
   id="style1">
	.st0{opacity:0.3;fill:#1F77B4;enable-background:new    ;}
	.st1{opacity:0.3;fill:#FF7F0E;enable-background:new    ;}
	.st2{opacity:0.3;fill:#2CA02C;enable-background:new    ;}
	.st3{fill:none;stroke:#FF7F0E;stroke-width:0.6722;stroke-linejoin:round;stroke-dasharray:2.4872,1.0755;}
	.st4{stroke:#000000;stroke-width:1.5041;}
	.st5{stroke:#000000;stroke-width:1.1416;}
	.st6{fill:none;stroke:#000000;stroke-width:1.7808;stroke-linecap:round;stroke-linejoin:round;}
	.st7{fill:#8C0000;}
	.st8{fill:#870303;stroke:#000000;stroke-width:2;stroke-linecap:round;stroke-linejoin:round;}
	.st9{fill:none;stroke:#000000;stroke-width:0.5106;stroke-linecap:round;stroke-linejoin:round;}
	.st10{fill:#010B7F;}
	.st11{fill:none;stroke:#000000;stroke-width:0.4;stroke-linecap:round;stroke-linejoin:round;}
</style>
<sodipodi:namedview
   bordercolor="#000000"
   borderopacity="0.25"
   id="namedview134"
   inkscape:current-layer="Layer_1"
   inkscape:cx="508.98759"
   inkscape:cy="15.320697"
   inkscape:deskcolor="#d1d1d1"
   inkscape:pagecheckerboard="0"
   inkscape:pageopacity="0.0"
   inkscape:showpageshadow="2"
   inkscape:window-height="847"
   inkscape:window-maximized="1"
   inkscape:window-width="1384"
   inkscape:window-x="62"
   inkscape:window-y="25"
   inkscape:zoom="0.58744065"
   pagecolor="#ffffff">
	</sodipodi:namedview>
<title
   id="title1">sel_hmm</title>
<g
   id="Layer_1">
	
	
	
	
	
	
	
	
	
	
	
	
	
	
	
	
	
	
	
	
	
	
	
	
	
	
	
	
	
	
	
	
	
	
	
	
	
	
	
	
	
	
	
	
	
	
	
	
	
	
	
	
	
	
	
	
	
	
	
	
	
	
	
	
	
	
	
	
	
	
	
	
	
	
	
	
	
	
	
	
	
	
	
	
	
	
	
	
	
	
	
	
	
	
	
	
	
	
	
	
	
	
	
	
	
	
	
	
	
	
	
	
	
	
	
	
	
	
	
	
	
	
	
	
	
	
	
	
	
	
	
	
	
	
	
	
	
	
	
	
	
	
	
	
	
	
	
	
	
	
	
	
	
	
	
	
	
	
	
	
	
	
	
	
	
	
	
	
	
	
	
	
	
	
	
	
	
	
	
	
	
	
	
	
	
	
	
	
	
	
	
	
	
	
	
	
	
	
	
	
	
	
	
	
	
	
	
	
	
	
	
	
	
	
	
	
	
	
	
	
	
	
	
	
	
	
	
	
	
	
	
	
	
	
	
	
	
	
	
	
	
	
	
	
	
	
	
	
	
	
	
	
	
	
	
	
	
	
	
	
	
	
	
	
	
	
	
	
	
	
	
	
	
	
	
	
	
	
	
	
	
	
	
	
	
	
	
	
	
	
	
	
	
	
	
	
	
	
	
	
	
	
	
	
	
	
	
	
	
	
	
	
	
	
	
	
	
	
	
	
	
	
	
	
	
	
	
	
	
	
	
	
	
	
	
	
	
	
	
	
	
	
	
	
	
	
	
	
	
	
	
	
	
	
	
	
	
	
	
	
	
	
	
	
	
	
	
	
	
	
	
	
	
	
	
	
	
<path
   id="path29"
   d="m 324.1,60.5 c 0,-6.4 -5.2,-9.7 -11.3,-8.8 -6.8,1 -9,7.8 -8.1,14 0.9,5.8 6.3,11.2 12.6,10 6.3,-1.2 7.4,-11.7 6.7,-16.7 -0.2,-1.4 -2.4,-0.8 -2.2,0.6 0.5,3.9 0.1,10.1 -3.2,12.9 -4.4,3.7 -10.6,-2.2 -11.5,-6.1 -0.9,-3.9 -0.4,-9.5 3.3,-11.7 4.8,-2.7 11.4,-0.1 11.4,5.7 0.1,0.6 0.6,1.1 1.2,1 0.6,0.1 1,-0.3 1.1,-0.9 z"
   style="fill:#d40000" /><path
   id="path30"
   d="m 317.1,68.3 c 1.6,2.8 3.7,5.2 6.3,7.2 1.1,0.9 2.3,-1.1 1.1,-1.9 -2.2,-1.7 -4.1,-3.9 -5.5,-6.4 -0.7,-1.3 -2.6,-0.2 -1.9,1.1 z"
   style="fill:#d40000" /><path
   id="path31"
   d="m 330.7,52.6 c -4.9,6.3 -6.5,17.5 -1.1,24 0.9,1.1 2.5,-0.5 1.6,-1.6 -4.5,-5.3 -3,-15.6 1.1,-20.8 0.8,-1.1 -0.7,-2.7 -1.6,-1.6 z"
   style="fill:#d40000" /><path
   id="path32"
   d="m 344.4,66.7 c -0.1,-7 -14.6,-1.5 -8.7,6.2 2.1,2.7 5.6,2.9 7.2,-0.2 1.1,-2.2 1.8,-5.7 2.5,-8 0.8,-3 1.1,-6.1 0.9,-9.3 -0.1,-1.2 -2,-1.6 -2.2,-0.3 -0.9,6.4 -1.7,12.8 -0.9,19.3 0.2,1.4 2.4,1.4 2.2,0 -0.8,-6.3 -0.1,-12.5 0.8,-18.7 L 344,55.4 c 0.2,3.7 -0.3,7.5 -1.6,11 -0.4,1.2 -0.7,3.5 -1.3,4.5 -2.2,2.7 -3.7,2.2 -4.5,-1.6 0.8,-3.4 2.6,-4.2 5.5,-2.5 0.1,0.6 0.6,1.1 1.2,1 0.6,0 1.1,-0.5 1.1,-1.1 z"
   style="fill:#d40000" /><path
   id="path33"
   d="m 349.3,69.8 c 0.2,-1.4 1.5,-0.7 1.1,0.5 -0.3,0.7 -0.9,1.4 -1.5,1.9 -0.9,0.8 -2.2,1.8 -2.4,3 -0.5,2.9 4.5,1.9 5.9,1.7 1.4,-0.2 0.8,-2.4 -0.6,-2.2 -0.7,0.1 -1.4,0.2 -2.1,0.2 -0.4,0 -0.8,0 -1.2,0 l 0.2,0.7 c 0.1,0 2.2,-2.2 2.4,-2.4 1.2,-1.2 2.3,-3 1.6,-4.7 -0.5,-1.3 -1.8,-2 -3.2,-1.9 -1.7,0.2 -2.1,1.8 -2.3,3.2 -0.2,1.4 1.9,1.5 2.1,0 z"
   style="fill:#d40000" /><path
   id="path34"
   d="m 351.8,54.5 c 1.5,3.1 3,6.2 3.6,9.6 0.7,4.1 -0.6,7.7 -2.2,11.4 -0.6,1.3 1.6,1.9 2.2,0.6 1.5,-3.6 2.8,-7.2 2.4,-11.1 -0.5,-4.1 -2.3,-7.9 -4,-11.6 -0.7,-1.4 -2.6,-0.2 -2,1.1 z"
   style="fill:#d40000" /><path
   id="path35"
   d="m 583.6,60.8 c 0,-6.4 -5.2,-9.7 -11.3,-8.8 -6.8,1 -9,7.8 -8.1,14 0.8,5.8 6.3,11.2 12.6,10 6.3,-1.2 7.4,-11.7 6.7,-16.7 -0.2,-1.4 -2.4,-0.8 -2.2,0.6 0.5,3.9 0.1,10.1 -3.2,12.9 -4.3,3.7 -10.6,-2.2 -11.5,-6.1 -0.9,-3.9 -0.4,-9.5 3.3,-11.7 4.8,-2.7 11.4,-0.1 11.4,5.7 0.1,0.6 0.6,1.1 1.2,1 0.6,0 1,-0.4 1.1,-0.9 z"
   style="fill:#d40000" /><path
   id="path36"
   d="m 576.6,68.5 c 1.6,2.8 3.7,5.2 6.3,7.2 1.2,0.9 2.3,-1.1 1.1,-1.9 -2.2,-1.7 -4.1,-3.9 -5.5,-6.4 -0.7,-1.3 -2.6,-0.2 -1.9,1.1 z"
   style="fill:#d40000" /><path
   id="path37"
   d="m 590.2,52.8 c -5,6.3 -6.5,17.5 -1.1,24 0.9,1.1 2.5,-0.5 1.6,-1.6 -4.5,-5.3 -3,-15.6 1.1,-20.8 0.8,-1.1 -0.7,-2.7 -1.6,-1.6 z"
   style="fill:#d40000" /><path
   id="path38"
   d="m 602.9,67 c -0.1,-7 -14.6,-1.5 -8.7,6.2 2.1,2.7 5.6,2.9 7.2,-0.2 1.1,-2.2 1.8,-5.7 2.5,-8 0.8,-3 1.1,-6.1 0.9,-9.3 -0.1,-1.2 -2,-1.6 -2.2,-0.3 -0.9,6.4 -1.7,12.8 -0.9,19.3 0.2,1.4 2.4,1.4 2.2,0 -0.8,-6.3 -0.1,-12.5 0.8,-18.8 l -2.2,-0.3 c 0.2,3.7 -0.3,7.5 -1.6,11 -0.4,1.2 -0.7,3.5 -1.3,4.5 -2.2,2.7 -3.7,2.2 -4.5,-1.6 0.8,-3.4 2.6,-4.2 5.5,-2.5 0.1,0.6 0.6,1.1 1.2,1 0.6,0 1,-0.4 1.1,-1 z"
   style="fill:#d40000" /><path
   id="path39"
   d="m 611.3,54.7 c 1.5,3.1 3,6.2 3.6,9.6 0.7,4.1 -0.6,7.7 -2.2,11.4 -0.6,1.3 1.6,1.9 2.2,0.6 1.5,-3.6 2.8,-7.1 2.4,-11.1 -0.5,-4.1 -2.3,-7.9 -4,-11.6 -0.7,-1.4 -2.7,-0.2 -2,1.1 z"
   style="fill:#d40000" /><path
   id="path40"
   d="m 605.3,68 v 5.1 c -0.1,1.6 -0.1,3.2 0,4.8 0.5,2.4 3.4,1.7 5.2,1.7 0.6,-0.1 1.1,-0.6 1,-1.2 -0.1,-0.5 -0.5,-1 -1,-1 -0.5,0 -2.8,0.3 -3.1,0 0,0 0.1,-2.2 0.1,-2.7 V 68 c -0.1,-0.6 -0.6,-1.1 -1.2,-1 -0.5,0 -0.9,0.4 -1,1 z"
   style="fill:#d40000" /></g>
<metadata
   id="metadata44"><rdf:RDF><cc:Work
       rdf:about=""><dc:title>sel_hmm</dc:title></cc:Work></rdf:RDF></metadata></svg>
