<?xml version="1.0" encoding="UTF-8" standalone="no"?>
<svg
   viewBox="0 0 1240 607.74"
   version="1.1"
   id="svg36235"
   sodipodi:docname="1.svg"
   width="1240"
   height="607.73999"
   inkscape:version="1.2.2 (1:1.2.2+202212051552+b0a8486541)"
   xmlns:inkscape="http://www.inkscape.org/namespaces/inkscape"
   xmlns:sodipodi="http://sodipodi.sourceforge.net/DTD/sodipodi-0.dtd"
   xmlns="http://www.w3.org/2000/svg"
   xmlns:svg="http://www.w3.org/2000/svg"
   xmlns:rdf="http://www.w3.org/1999/02/22-rdf-syntax-ns#"
   xmlns:cc="http://creativecommons.org/ns#"
   xmlns:dc="http://purl.org/dc/elements/1.1/">
  <sodipodi:namedview
     id="namedview36237"
     pagecolor="#ffffff"
     bordercolor="#000000"
     borderopacity="0.25"
     inkscape:showpageshadow="2"
     inkscape:pageopacity="0.0"
     inkscape:pagecheckerboard="0"
     inkscape:deskcolor="#d1d1d1"
     showgrid="false"
     inkscape:zoom="0.38832396"
     inkscape:cx="704.30884"
     inkscape:cy="193.13771"
     inkscape:window-width="1223"
     inkscape:window-height="779"
     inkscape:window-x="57"
     inkscape:window-y="21"
     inkscape:window-maximized="1"
     inkscape:current-layer="svg36235" />
  <defs
     id="defs35209">
    <style
       id="style35198">.cls-1,.cls-11,.cls-13,.cls-20,.cls-21,.cls-22,.cls-6,.cls-7,.cls-8,.cls-9{fill:none;}.cls-10,.cls-18,.cls-2{fill:#1f77b4;}.cls-2,.cls-3,.cls-4{opacity:0.3;}.cls-12,.cls-16,.cls-3{fill:#ff7f0e;}.cls-14,.cls-19,.cls-4{fill:#2ca02c;}.cls-5{clip-path:url(#clip-path);}.cls-11,.cls-6{stroke:#ff7f0e;}.cls-20,.cls-6,.cls-7,.cls-8{stroke-linejoin:round;}.cls-6,.cls-7,.cls-8{stroke-dasharray:3.7 1.6;}.cls-7,.cls-9{stroke:#1f77b4;}.cls-13,.cls-8{stroke:#2ca02c;}.cls-11,.cls-13,.cls-21,.cls-22,.cls-9{stroke-miterlimit:10;}.cls-10,.cls-12,.cls-14{opacity:0.5;}.cls-15{clip-path:url(#clip-path-13);}.cls-17{clip-path:url(#clip-path-14);}.cls-20,.cls-21,.cls-22{stroke:#000;}.cls-20,.cls-21{stroke-width:3px;}.cls-21{stroke-linecap:square;}.cls-22{stroke-width:4px;}</style>
    <clipPath
       id="clip-path"
       transform="translate(-8.19 -3.86)">
      <rect
         class="cls-1"
         x="1981.51"
         y="138"
         width="285.54001"
         height="354.03"
         id="rect35200" />
    </clipPath>
    <clipPath
       id="clip-path-13"
       transform="translate(-8.19 -3.86)">
      <rect
         class="cls-1"
         x="1981.51"
         y="140"
         width="285.54001"
         height="354.03"
         id="rect35203" />
    </clipPath>
    <clipPath
       id="clip-path-14"
       transform="translate(-8.19 -3.86)">
      <rect
         class="cls-1"
         x="1981.51"
         y="136"
         width="285.54001"
         height="354.03"
         id="rect35206" />
    </clipPath>
  </defs>
  <title
     id="title35211">hmm</title>
  <path
     d="m 477.45,39.82 c 1.55,8.11 4.92,16 7.6,23.78 l 8.33,24.23 c 0.78,2.26 4.61,2.08 4.42,-0.6 l -0.17,-2.32 c -0.2,-2.87 -4.7,-2.89 -4.5,0 l 0.17,2.32 4.42,-0.6 -8.33,-24.23 c -2.67,-7.79 -6.05,-15.67 -7.6,-23.78 -0.54,-2.84 -4.88,-1.64 -4.34,1.2 z"
     id="path35850" />
  <path
     d="m 498.81,37.52 c -2.92,3.09 -4.25,7.17 -5.92,11 q -3.13,7.22 -6.26,14.43 -3.13,7.21 -6.24,14.44 c -1.41,3.27 -4.17,7.31 -4.2,10.94 0,1.87 1.88,2.57 3.38,1.94 l 0.24,-0.13 a 2.26,2.26 0 0 0 1,-2.54 l -0.08,-0.21 c -0.91,-2.73 -5.26,-1.56 -4.33,1.19 l 0.07,0.21 1,-2.54 -0.26,0.11 3.39,1.95 c 0,-2.08 2,-5 2.81,-6.87 0.81,-1.87 1.55,-3.61 2.33,-5.41 l 5.07,-11.73 5.09,-11.73 c 1.69,-3.89 3.05,-8.78 6,-11.91 2,-2.11 -1.19,-5.3 -3.18,-3.18 z"
     id="path35852" />
  <path
     d="m 508.4,37.97 a 56.85,56.85 0 0 0 -5.74,29.44 96.3,96.3 0 0 0 2.49,15.07 c 0.75,3.13 1.55,6.27 4.74,7.59 a 2.28,2.28 0 0 0 2.19,-0.58 l 0.52,-0.41 c 2.27,-1.79 -0.93,-5 -3.18,-3.19 l -0.53,0.41 2.19,-0.57 C 509.26,84.98 508.49,76.8 508.16,75 a 69.26,69.26 0 0 1 -1.19,-12.19 51.38,51.38 0 0 1 5.32,-22.57 c 1.27,-2.59 -2.61,-4.87 -3.89,-2.27 z"
     id="path35854" />
  <path
     d="m 520.21,39.67 c -1.48,11.16 -1.91,22.43 -2.57,33.66 -0.2,3.39 -1,7.42 1.36,10.22 2.36,2.8 5.85,2.38 9,1.48 2.78,-0.8 1.6,-5.14 -1.2,-4.34 -1.19,0.69 -2.24,0.41 -3.13,-0.85 -1.66,-0.35 -2.26,-1.24 -1.79,-2.69 -0.29,-1.54 0.25,-4.16 0.34,-5.73 0.2,-3.49 0.41,-7 0.61,-10.47 0.43,-7.12 0.91,-14.21 1.85,-21.28 0.38,-2.86 -4.12,-2.83 -4.5,0 z"
     id="path35856" />
  <path
     d="m 514.52,61.02 12.91,-0.68 c 2.88,-0.15 2.9,-4.66 0,-4.5 l -12.91,0.68 c -2.88,0.15 -2.9,4.65 0,4.5 z"
     id="path35858" />
  <path
     d="m 534.44,40.26 c 2.71,16.41 3.68,32.5 -2.49,48.28 -1.06,2.7 3.29,3.87 4.33,1.2 6.47,-16.54 5.34,-33.5 2.5,-50.68 -0.47,-2.85 -4.81,-1.64 -4.34,1.2 z"
     id="path35860" />
  <path
     d="m 165.93,32.28 q 1.59,27.26 0.56,54.55 c -0.11,2.89 4.39,2.89 4.5,0 q 1,-27.28 -0.56,-54.55 c -0.17,-2.88 -4.67,-2.9 -4.5,0 z"
     id="path35916" />
  <path
     d="m 194.93,31.59 a 429.29,429.29 0 0 1 0,56.37 h 4.5 l -0.22,-2.54 c -0.24,-2.86 -4.75,-2.89 -4.5,0 l 0.22,2.54 a 2.25,2.25 0 0 0 4.5,0 429.29,429.29 0 0 0 0,-56.37 c -0.19,-2.87 -4.69,-2.89 -4.5,0 z"
     id="path35918" />
  <path
     d="m 171.19,62.07 a 198.58,198.58 0 0 0 26.27,-0.66 c 2.86,-0.25 2.89,-4.76 0,-4.5 a 198.58,198.58 0 0 1 -26.27,0.66 c -2.89,-0.11 -2.89,4.39 0,4.5 z"
     id="path35920" />
  <path
     d="M 203.91,56.03 V 71.2 c 0,3.69 -0.72,8.17 0.45,11.73 1.87,5.72 8.65,5.54 12.8,2.41 2.28,-1.72 0,-5.63 -2.27,-3.89 -8,6.07 -6.49,-6 -6.48,-10.25 V 56.03 c 0,-2.9 -4.49,-2.9 -4.5,0 z"
     id="path35922" />
  <path
     d="m 205.19,37.62 a 4.28,4.28 0 0 0 -1.15,4.6 2.44,2.44 0 0 0 1,1.35 2.3,2.3 0 0 0 1.74,0.22 2.27,2.27 0 0 0 1.57,-2.76 1.34,1.34 0 0 1 -0.09,-0.26 c 0,-0.24 0,-0.17 0,0.2 V 40.7 c -0.06,0.37 -0.06,0.43 0,0.19 a 2,2 0 0 1 0.08,-0.26 c -0.15,0.33 -0.16,0.39 -0.05,0.18 -0.37,0.53 -0.1,0.12 0.07,0 a 2.25,2.25 0 0 0 0.66,-1.59 2.26,2.26 0 0 0 -3.85,-1.59 z"
     id="path35924" />
  <path
     d="m 236.1,56.99 c -1.21,-9.35 -11,-9.81 -15.07,-1.9 -2.55,4.92 -3.06,11.34 -3.2,16.79 -0.12,4.94 0.39,11 3.65,15 2.16,2.66 5.58,3.88 8.44,1.45 3.87,-3.3 4.59,-11 5.31,-15.59 1,-6.48 0.88,-12.89 1,-19.42 0.17,-7.31 2.62,-14.36 2.26,-21.68 -0.14,-2.88 -4.5,-2.92 -4.5,0 v 52.55 c 0,2.89 4.5,2.9 4.5,0 V 31.64 h -4.5 c 0.34,7 -2,13.79 -2.24,20.79 -0.24,7.34 0,14.49 -1.35,21.76 q -0.49,2.63 -1.2,5.21 c -0.6,2.21 -0.33,3.06 -2.89,3.49 -2.89,0.49 -2.72,-1 -3.34,-3.43 a 25.55,25.55 0 0 1 -0.69,-5.92 52.48,52.48 0 0 1 1,-10.9 19.9,19.9 0 0 1 1.59,-5.3 l 0.72,-1.28 q 2.64,-4.68 6,0.91 c 0.37,2.83 4.87,2.86 4.5,0 z"
     id="path35926" />
  <path
     d="m 257.54,61.66 c 0.72,-4.4 0.15,-9.47 -3.51,-12.51 a 7.69,7.69 0 0 0 -10.09,0 c -4.15,3.6 -4.31,10 -4.46,15.1 -0.12,3.8 0,7.62 0.19,11.41 0.19,2.84 -0.15,7.37 1.06,10 1.56,3.46 6.32,3.12 8.94,1.2 4.21,-3.07 5.15,-9.36 6.16,-14.08 a 166.92,166.92 0 0 0 3.3,-45.15 2.25,2.25 0 0 0 -4.5,0 c -1.16,15.13 -1.67,30.3 -1.44,45.47 0.05,3.63 0.07,7.27 0.29,10.89 0.09,1.54 0,3.72 1.35,4.87 2.28,2 4.9,0 5,-2.6 0.12,-2.9 -4.38,-2.89 -4.5,0 l 0.11,-0.47 2.19,-0.58 c -0.43,-0.08 0,-25.17 0.07,-27.94 q 0.25,-14.83 1.42,-29.64 h -4.5 a 158.11,158.11 0 0 1 -4,47.55 33.66,33.66 0 0 1 -1.27,4.41 c -0.19,2 -1.15,2.67 -2.88,1.91 -1.8,0.41 -2.48,-0.28 -2,-2.09 -1.07,-3.33 -0.55,-7.94 -0.56,-11.39 0,-3.61 -0.22,-7.79 0.8,-11.28 0.92,-3.14 3.62,-7.23 7.19,-3.28 1.62,1.79 1.65,4.73 1.29,7 -0.47,2.83 3.87,4 4.34,1.19 z"
     id="path35928" />
  <path
     d="m 264.3,73.83 c 8.19,-0.07 15.18,-4 15,-13.1 -0.17,-7.11 -7.29,-14.48 -13.95,-8.72 -6.93,6 -6.35,19.15 -3.78,27.07 2.49,7.65 10,12 16.83,6.45 2.25,-1.82 -0.95,-5 -3.19,-3.18 -10.37,8.35 -11.28,-16.94 -9.83,-21.77 0.8,-2.68 3.11,-8.29 7.49,-5 2.17,1.63 2.26,5.88 1.59,8.18 -1.41,4.9 -5.74,5.53 -10.12,5.57 -2.89,0 -2.9,4.52 0,4.5 z"
     id="path35930" />
  <path
     d="M 281.92,49.29 Q 281.18,68.64 281.61,88 a 2.25,2.25 0 0 0 4.5,0 130.34,130.34 0 0 1 1.51,-18.09 50.21,50.21 0 0 1 1.8,-7.15 c 0.33,-1 0.82,-3.88 1.87,-4.45 l 3.68,0.43 a 9,9 0 0 1 0.48,2.62 c 0.71,5.73 0.18,11.79 0.18,17.56 0,3.45 -0.61,7.3 2.46,9.55 2.33,1.72 4.58,-2.19 2.27,-3.88 -0.94,-0.7 -0.23,-6.44 -0.23,-7.57 V 71.3 a 83.76,83.76 0 0 0 -0.24,-10.86 c -0.53,-3.93 -3,-9.87 -8.06,-8.46 -5.06,1.41 -6.82,9.16 -7.87,13.49 -1.78,7.35 -2.06,15 -2.35,22.53 h 4.5 q -0.42,-19.36 0.31,-38.71 c 0.1,-2.89 -4.4,-2.89 -4.5,0 z"
     id="path35932" />
  <path
     d="m 325.61,39.14 -0.64,47 c 0,2.9 4.46,2.9 4.5,0 l 0.64,-47 c 0,-2.9 -4.46,-2.9 -4.5,0 z"
     id="path35934" />
  <path
     d="m 331.34,42.9 c 6.25,-5.2 13.85,3.55 14.18,9.64 0.47,8.51 -8.24,11 -15.18,10.6 -2.89,-0.17 -2.88,4.33 0,4.5 10.65,0.62 22.9,-6.17 19.1,-18.52 -2.76,-9 -12.85,-16.42 -21.29,-9.4 -2.22,1.85 1,5 3.19,3.18 z"
     id="path35936" />
  <path
     d="m 352.81,62.93 a 17.38,17.38 0 0 1 5.22,-6.6 l -3.76,-1 c 1.92,6.31 8.93,6.35 11.14,0.22 l -4.34,-1.19 a 124.39,124.39 0 0 1 -3.44,15.83 c -1.25,4.33 -3.69,9 -3.11,13.63 0.67,5.33 7.63,9 10.8,3.47 1.45,-2.51 -2.44,-4.78 -3.88,-2.27 q -3.66,-2.07 -2,-5.51 c 0.29,-1 0.61,-2 1,-3 0.73,-2.27 1.47,-4.54 2.1,-6.84 a 125.79,125.79 0 0 0 2.95,-14.11 2.2500944,2.2500944 0 0 0 -4.34,-1.19 l -2.53,-0.23 a 2.29,2.29 0 0 0 -3.76,-1 20,20 0 0 0 -5.93,7.52 c -1.23,2.61 2.65,4.89 3.89,2.27 z"
     id="path35938" />
  <path
     d="m 368.46,62.14 c -3.24,7.23 -3.76,17.25 1.21,23.92 1.89,2.54 4.83,4.66 8.1,3.48 4,-1.45 5.21,-6.82 6.23,-10.43 2.14,-7.64 3.89,-20.09 -4,-25.32 -7.72,-5.09 -12.82,5.82 -14.83,11.48 -1,2.73 3.37,3.91 4.34,1.19 1.47,-4.15 6.15,-14 10.33,-6 2.6,5 1.47,11.38 0.09,16.58 -0.45,1.68 -1.09,5.77 -2.42,6.94 -3.75,3.31 -5.79,-3.43 -6.31,-5.48 a 21.76,21.76 0 0 1 1.17,-14.12 c 1.17,-2.62 -2.7,-4.92 -3.88,-2.27 z"
     id="path35940" />
  <path
     d="m 400.14,67.34 c 1.13,-4.21 2.12,-11.76 -3.66,-13.23 -5.78,-1.47 -8.06,6.42 -8.78,10.46 -1.11,6.16 -2,14.73 2,20.16 2.9,3.9 7.85,4.84 11.57,1.57 2.18,-1.91 -1,-5.09 -3.18,-3.18 -1.7,1.5 -4.43,-0.41 -5.27,-1.88 a 11.84,11.84 0 0 1 -1.15,-3.69 31.92,31.92 0 0 1 0,-9.31 c 0.23,-2 0.34,-5.94 1.79,-7.59 0.15,-1.14 0.73,-1.4 1.75,-0.76 1.15,-0.18 1.59,0.27 1.32,1.33 0.45,1.42 -0.4,3.57 -0.76,4.92 -0.76,2.8 3.58,4 4.34,1.2 z"
     id="path35942" />
  <path
     d="m 405.55,74.55 c 7.36,0.47 14.24,-3.54 15.17,-11.34 0.68,-5.73 -4.42,-13.27 -10.85,-10.17 -6.43,3.1 -7,15.22 -6.84,21.2 0.15,6.74 3.92,15.74 12,14.88 2.85,-0.3 2.88,-4.8 0,-4.5 -10.34,1.1 -7.34,-16.49 -6.07,-22 0.62,-2.68 0.62,-3.71 3.52,-4.34 q 3.1,-1.8 3.67,2.07 a 6.46,6.46 0 0 1 -0.39,4.08 c -1.55,4.61 -5.84,5.86 -10.25,5.58 -2.89,-0.18 -2.88,4.32 0,4.5 z"
     id="path35944" />
  <path
     d="m 440.2,63.07 c -0.54,-9 -11.29,-14.13 -16.36,-5 a 12,12 0 0 0 0.97,12.58 c 1.41,1.95 3.15,2.65 5.1,4 2.62,1.78 3.48,3.48 2.64,6.38 -0.75,2.58 -5.37,7.32 -7.54,2.62 -1.21,-2.62 -5.09,-0.34 -3.88,2.28 3.9,8.43 14.86,2.42 16.14,-4.7 a 9.45,9.45 0 0 0 -3.91,-9.74 c -3,-2.09 -6.18,-3.37 -6.36,-7.62 -0.08,-2 1,-5 3,-5.83 l 3.9,0.61 a 5.94,5.94 0 0 1 1.81,4.45 c 0.17,2.88 4.67,2.9 4.5,0 z"
     id="path35946" />
  <path
     d="m 458.44,63.81 c 0.67,-4.05 -1.16,-8.58 -5.58,-9.57 -4.91,-1.1 -8.74,3.52 -10.21,7.63 -1.9,5.32 0.06,8.92 4.64,11.69 3.33,2 6.25,3.8 7.16,7.92 1.44,6.53 -6.55,3 -9.92,1.61 -2.69,-1.07 -3.86,3.28 -1.19,4.34 6.61,2.63 17.17,4.79 15.7,-5.73 a 15.05,15.05 0 0 0 -5.23,-9.39 c -1.46,-1.22 -3.36,-1.78 -4.82,-2.94 a 5.85,5.85 0 0 1 -2.29,-5.59 7.5,7.5 0 0 1 1.73,-3.18 q 2,-3.49 5.65,2 c -0.48,2.83 3.86,4 4.34,1.2 z"
     id="path35948" />
  <metadata
     id="metadata38672">
    <rdf:RDF>
      <cc:Work
         rdf:about="">
        <dc:title>hmm</dc:title>
      </cc:Work>
    </rdf:RDF>
  </metadata>
</svg>
