<?xml version="1.0" encoding="UTF-8" standalone="no"?>
<svg
   viewBox="0 0 1240 607.74"
   version="1.1"
   id="svg36235"
   sodipodi:docname="2_1.svg"
   width="1240"
   height="607.73999"
   inkscape:version="1.2.2 (1:1.2.2+202212051552+b0a8486541)"
   xmlns:inkscape="http://www.inkscape.org/namespaces/inkscape"
   xmlns:sodipodi="http://sodipodi.sourceforge.net/DTD/sodipodi-0.dtd"
   xmlns="http://www.w3.org/2000/svg"
   xmlns:svg="http://www.w3.org/2000/svg"
   xmlns:rdf="http://www.w3.org/1999/02/22-rdf-syntax-ns#"
   xmlns:cc="http://creativecommons.org/ns#"
   xmlns:dc="http://purl.org/dc/elements/1.1/">
  <sodipodi:namedview
     id="namedview36237"
     pagecolor="#ffffff"
     bordercolor="#000000"
     borderopacity="0.25"
     inkscape:showpageshadow="2"
     inkscape:pageopacity="0.0"
     inkscape:pagecheckerboard="0"
     inkscape:deskcolor="#d1d1d1"
     showgrid="false"
     inkscape:zoom="0.38832396"
     inkscape:cx="704.30885"
     inkscape:cy="193.13771"
     inkscape:window-width="1223"
     inkscape:window-height="779"
     inkscape:window-x="57"
     inkscape:window-y="21"
     inkscape:window-maximized="1"
     inkscape:current-layer="svg36235" />
  <defs
     id="defs35209">
    <style
       id="style35198">.cls-1,.cls-11,.cls-13,.cls-20,.cls-21,.cls-22,.cls-6,.cls-7,.cls-8,.cls-9{fill:none;}.cls-10,.cls-18,.cls-2{fill:#1f77b4;}.cls-2,.cls-3,.cls-4{opacity:0.3;}.cls-12,.cls-16,.cls-3{fill:#ff7f0e;}.cls-14,.cls-19,.cls-4{fill:#2ca02c;}.cls-5{clip-path:url(#clip-path);}.cls-11,.cls-6{stroke:#ff7f0e;}.cls-20,.cls-6,.cls-7,.cls-8{stroke-linejoin:round;}.cls-6,.cls-7,.cls-8{stroke-dasharray:3.7 1.6;}.cls-7,.cls-9{stroke:#1f77b4;}.cls-13,.cls-8{stroke:#2ca02c;}.cls-11,.cls-13,.cls-21,.cls-22,.cls-9{stroke-miterlimit:10;}.cls-10,.cls-12,.cls-14{opacity:0.5;}.cls-15{clip-path:url(#clip-path-13);}.cls-17{clip-path:url(#clip-path-14);}.cls-20,.cls-21,.cls-22{stroke:#000;}.cls-20,.cls-21{stroke-width:3px;}.cls-21{stroke-linecap:square;}.cls-22{stroke-width:4px;}</style>
    <clipPath
       id="clip-path"
       transform="translate(-8.19 -3.86)">
      <rect
         class="cls-1"
         x="1981.51"
         y="138"
         width="285.54001"
         height="354.03"
         id="rect35200" />
    </clipPath>
    <clipPath
       id="clip-path-13"
       transform="translate(-8.19 -3.86)">
      <rect
         class="cls-1"
         x="1981.51"
         y="140"
         width="285.54001"
         height="354.03"
         id="rect35203" />
    </clipPath>
    <clipPath
       id="clip-path-14"
       transform="translate(-8.19 -3.86)">
      <rect
         class="cls-1"
         x="1981.51"
         y="136"
         width="285.54001"
         height="354.03"
         id="rect35206" />
    </clipPath>
  </defs>
  <title
     id="title35211">hmm</title>
  <path
     d="m 364.81,204.44 c 1.55,8.12 4.92,16 7.6,23.79 l 8.33,24.23 c 0.52,1.5 3.07,1.38 2.94,-0.4 l -0.16,-2.32 c -0.14,-1.92 -3.14,-1.93 -3,0 l 0.16,2.32 2.95,-0.4 -8.33,-24.23 c -2.67,-7.79 -6.05,-15.67 -7.6,-23.78 -0.36,-1.9 -3.25,-1.1 -2.89,0.79 z"
     id="path36000" />
  <path
     d="m 385.95,202.87 c -2.86,3 -4.15,7.1 -5.8,10.87 q -3.13,7.22 -6.26,14.43 l -6.24,14.44 c -1.36,3.15 -4.07,7.09 -4.1,10.56 a 1.53,1.53 0 0 0 2.26,1.3 l 0.26,-0.11 a 1.52,1.52 0 0 0 0.69,-1.7 l -0.07,-0.21 c -0.61,-1.82 -3.51,-1 -2.9,0.8 l 0.07,0.21 0.69,-1.69 -0.26,0.11 2.26,1.29 c 0,-2.21 2.05,-5.23 2.91,-7.24 l 2.34,-5.42 5.07,-11.73 q 2.55,-5.85 5.09,-11.72 c 1.73,-4 3.11,-8.87 6.12,-12.07 1.32,-1.4 -0.8,-3.53 -2.13,-2.12 z"
     id="path36002" />
  <path
     d="m 395.68,203.14 a 56.11,56.11 0 0 0 -5.65,29.05 94.56,94.56 0 0 0 2.47,14.95 c 0.67,2.81 1.33,5.88 4.21,7.07 a 1.52,1.52 0 0 0 1.46,-0.39 l 0.52,-0.41 c 1.52,-1.19 -0.62,-3.3 -2.12,-2.12 0.47,-0.37 -2.29,-10 -2.51,-11.22 a 69.64,69.64 0 0 1 -1.25,-12.43 52.21,52.21 0 0 1 5.42,-22.95 c 0.84,-1.73 -1.74,-3.25 -2.59,-1.51 z"
     id="path36004" />
  <path
     d="m 437.81,204.88 c 2.73,16.55 3.73,32.78 -2.5,48.69 -0.7,1.79 2.2,2.57 2.9,0.79 6.42,-16.4 5.31,-33.22 2.49,-50.27 -0.31,-1.9 -3.2,-1.1 -2.89,0.79 z"
     id="path36006" />
  <path
     d="m 409.06,204.9 a 209.66,209.66 0 0 0 -4.47,36 c -0.1,2.94 -1.08,8 1.81,10 2.89,2 7.91,0.39 10.79,-0.84 1.77,-0.75 0.24,-3.34 -1.51,-2.59 -2.55,1.08 -6.88,2.47 -8.18,-1.2 -0.44,-1.22 0.05,-4.11 0.09,-5.35 q 0.21,-5.76 0.74,-11.51 a 199.26,199.26 0 0 1 3.63,-23.69 c 0.4,-1.88 -2.49,-2.69 -2.9,-0.8 z"
     id="path36008" />
  <path
     d="m 398.81,229.05 a 28.09,28.09 0 0 1 17.27,-0.7 1.51,1.51 0 0 0 0.8,-2.9 31,31 0 0 0 -18.87,0.7 c -1.8,0.64 -1,3.54 0.8,2.9 z"
     id="path36010" />
  <path
     d="m 421.33,238.73 c -3,4.14 -3,11.81 0,16 3.37,4.67 8.41,1.28 10.13,-2.93 2.06,-5 1.75,-14.42 -3.21,-17.89 -5.31,-3.73 -9.2,3.66 -10,7.9 -0.36,1.88 2.53,2.69 2.9,0.79 0.6,-3.13 3.82,-9.93 6.86,-4.39 a 16,16 0 0 1 1,11.77 c -0.44,1.38 -1.77,4.23 -3.59,4.09 -1.82,-0.14 -2.51,-2.88 -2.8,-4.26 -0.67,-3.07 -0.53,-6.89 1.35,-9.51 1.12,-1.57 -1.48,-3.07 -2.59,-1.52 z"
     id="path36012" />
  <metadata
     id="metadata38672">
    <rdf:RDF>
      <cc:Work
         rdf:about="">
        <dc:title>hmm</dc:title>
      </cc:Work>
    </rdf:RDF>
  </metadata>
</svg>
