<?xml version="1.0" encoding="UTF-8" standalone="no"?>
<svg
   viewBox="0 0 1240 607.74"
   version="1.1"
   id="svg36235"
   sodipodi:docname="2_3.svg"
   width="1240"
   height="607.73999"
   inkscape:version="1.2.2 (1:1.2.2+202212051552+b0a8486541)"
   xmlns:inkscape="http://www.inkscape.org/namespaces/inkscape"
   xmlns:sodipodi="http://sodipodi.sourceforge.net/DTD/sodipodi-0.dtd"
   xmlns="http://www.w3.org/2000/svg"
   xmlns:svg="http://www.w3.org/2000/svg"
   xmlns:rdf="http://www.w3.org/1999/02/22-rdf-syntax-ns#"
   xmlns:cc="http://creativecommons.org/ns#"
   xmlns:dc="http://purl.org/dc/elements/1.1/">
  <sodipodi:namedview
     id="namedview36237"
     pagecolor="#ffffff"
     bordercolor="#000000"
     borderopacity="0.25"
     inkscape:showpageshadow="2"
     inkscape:pageopacity="0.0"
     inkscape:pagecheckerboard="0"
     inkscape:deskcolor="#d1d1d1"
     showgrid="false"
     inkscape:zoom="0.38832396"
     inkscape:cx="704.30885"
     inkscape:cy="193.13771"
     inkscape:window-width="1223"
     inkscape:window-height="779"
     inkscape:window-x="57"
     inkscape:window-y="21"
     inkscape:window-maximized="1"
     inkscape:current-layer="svg36235" />
  <defs
     id="defs35209">
    <style
       id="style35198">.cls-1,.cls-11,.cls-13,.cls-20,.cls-21,.cls-22,.cls-6,.cls-7,.cls-8,.cls-9{fill:none;}.cls-10,.cls-18,.cls-2{fill:#1f77b4;}.cls-2,.cls-3,.cls-4{opacity:0.3;}.cls-12,.cls-16,.cls-3{fill:#ff7f0e;}.cls-14,.cls-19,.cls-4{fill:#2ca02c;}.cls-5{clip-path:url(#clip-path);}.cls-11,.cls-6{stroke:#ff7f0e;}.cls-20,.cls-6,.cls-7,.cls-8{stroke-linejoin:round;}.cls-6,.cls-7,.cls-8{stroke-dasharray:3.7 1.6;}.cls-7,.cls-9{stroke:#1f77b4;}.cls-13,.cls-8{stroke:#2ca02c;}.cls-11,.cls-13,.cls-21,.cls-22,.cls-9{stroke-miterlimit:10;}.cls-10,.cls-12,.cls-14{opacity:0.5;}.cls-15{clip-path:url(#clip-path-13);}.cls-17{clip-path:url(#clip-path-14);}.cls-20,.cls-21,.cls-22{stroke:#000;}.cls-20,.cls-21{stroke-width:3px;}.cls-21{stroke-linecap:square;}.cls-22{stroke-width:4px;}</style>
    <clipPath
       id="clip-path"
       transform="translate(-8.19 -3.86)">
      <rect
         class="cls-1"
         x="1981.51"
         y="138"
         width="285.54001"
         height="354.03"
         id="rect35200" />
    </clipPath>
    <clipPath
       id="clip-path-13"
       transform="translate(-8.19 -3.86)">
      <rect
         class="cls-1"
         x="1981.51"
         y="140"
         width="285.54001"
         height="354.03"
         id="rect35203" />
    </clipPath>
    <clipPath
       id="clip-path-14"
       transform="translate(-8.19 -3.86)">
      <rect
         class="cls-1"
         x="1981.51"
         y="136"
         width="285.54001"
         height="354.03"
         id="rect35206" />
    </clipPath>
  </defs>
  <title
     id="title35211">hmm</title>
  <path
     class="cls-6"
     d="M 410.39,638.81"
     id="path35534" />
  <path
     d="m 364.81,511.44 c 1.55,8.12 4.92,16 7.6,23.79 l 8.33,24.23 c 0.52,1.5 3.07,1.38 2.94,-0.4 l -0.16,-2.32 c -0.14,-1.92 -3.14,-1.93 -3,0 l 0.16,2.32 2.95,-0.4 -8.33,-24.23 c -2.67,-7.79 -6.05,-15.67 -7.6,-23.78 -0.36,-1.9 -3.25,-1.1 -2.89,0.79 z"
     id="path36028" />
  <path
     d="m 385.95,509.87 c -2.86,3 -4.15,7.1 -5.8,10.87 q -3.13,7.21 -6.26,14.43 l -6.24,14.44 c -1.36,3.15 -4.07,7.09 -4.1,10.56 a 1.53,1.53 0 0 0 2.26,1.3 l 0.26,-0.11 a 1.52,1.52 0 0 0 0.69,-1.7 l -0.07,-0.21 c -0.61,-1.82 -3.51,-1 -2.9,0.8 l 0.07,0.21 0.69,-1.69 -0.26,0.11 2.26,1.29 c 0,-2.21 2.05,-5.23 2.91,-7.24 l 2.34,-5.42 5.07,-11.73 q 2.55,-5.85 5.09,-11.72 c 1.73,-4 3.11,-8.87 6.12,-12.07 1.32,-1.4 -0.8,-3.53 -2.13,-2.12 z"
     id="path36030" />
  <path
     d="m 395.68,510.14 a 56.11,56.11 0 0 0 -5.65,29.05 94.56,94.56 0 0 0 2.47,14.95 c 0.67,2.81 1.33,5.88 4.21,7.07 a 1.52,1.52 0 0 0 1.46,-0.39 l 0.52,-0.41 c 1.52,-1.19 -0.62,-3.3 -2.12,-2.12 0.47,-0.37 -2.29,-10 -2.51,-11.22 a 69.64,69.64 0 0 1 -1.25,-12.43 52.21,52.21 0 0 1 5.42,-23 c 0.84,-1.73 -1.74,-3.25 -2.59,-1.51 z"
     id="path36032" />
  <path
     d="m 437.81,511.88 c 2.73,16.55 3.73,32.78 -2.5,48.69 -0.7,1.79 2.2,2.57 2.9,0.79 6.42,-16.4 5.31,-33.22 2.49,-50.27 -0.31,-1.9 -3.2,-1.1 -2.89,0.79 z"
     id="path36034" />
  <path
     d="m 409.09,514 a 213.94,213.94 0 0 0 -4.47,36.47 c -0.11,2.95 -1.1,8 1.81,10.09 2.91,2.09 7.91,0.39 10.78,-0.85 1.77,-0.76 0.25,-3.35 -1.51,-2.59 -2.58,1.11 -6.87,2.49 -8.18,-1.23 -0.44,-1.25 0.05,-4.16 0.1,-5.42 q 0.21,-5.85 0.73,-11.67 a 207.32,207.32 0 0 1 3.63,-24 c 0.4,-1.88 -2.49,-2.68 -2.89,-0.79 z"
     id="path36036" />
  <path
     d="m 398.81,538.44 a 27.73,27.73 0 0 1 17.27,-0.71 1.5,1.5 0 0 0 0.8,-2.89 30.59,30.59 0 0 0 -18.87,0.7 c -1.8,0.65 -1,3.55 0.8,2.9 z"
     id="path36038" />
  <path
     d="m 420.25,541.86 a 154.53,154.53 0 0 1 -0.83,25.08 c -0.22,1.92 2.78,1.9 3,0 a 154.53,154.53 0 0 0 0.83,-25.08 c -0.09,-1.92 -3.09,-1.94 -3,0 z"
     id="path36040" />
  <path
     d="m 430.21,544.69 a 38.81,38.81 0 0 1 -8.49,13.77 1.52,1.52 0 0 0 1.46,2.51 c 4.67,-0.77 8.14,2.31 10.3,6.11 a 1.5,1.5 0 0 0 2.59,-1.51 c -2.9,-5.11 -7.66,-8.48 -13.69,-7.5 l 1.46,2.51 a 42.17,42.17 0 0 0 9.26,-15.09 c 0.67,-1.82 -2.23,-2.6 -2.89,-0.8 z"
     id="path36042" />
  <metadata
     id="metadata38672">
    <rdf:RDF>
      <cc:Work
         rdf:about="">
        <dc:title>hmm</dc:title>
      </cc:Work>
    </rdf:RDF>
  </metadata>
  <path
     d="m 387.81,427.95 c -2.18,21.61 2.57,43.57 -2.55,64.92 l 2.74,-0.36 a 56.34,56.34 0 0 1 -5.56,-11.37 c -0.64,-1.8 -3.42,-1.09 -2.9,0.79 a 23,23 0 0 0 8.13,12.29 1.52,1.52 0 0 0 2.56,-1.06 c 0.38,-6.41 6.81,-7.69 8.32,-13.26 a 1.51,1.51 0 0 0 -2.9,-0.8 c -0.89,3.29 -4.48,4.65 -6.32,7.28 a 12.72,12.72 0 0 0 -2.1,6.78 l 2.58,-1.02 a 20.33,20.33 0 0 1 -7.35,-11 l -2.9,0.79 a 60.67,60.67 0 0 0 5.87,12.07 1.52,1.52 0 0 0 2.75,-0.36 c 5.18,-21.62 0.44,-43.82 2.65,-65.71 0.2,-1.92 -2.8,-1.91 -3,0 z"
     id="path35764" />
</svg>
