<?xml version="1.0" encoding="UTF-8" standalone="no"?>
<svg
   viewBox="0 0 1240 607.74"
   version="1.1"
   id="svg36235"
   sodipodi:docname="4.svg"
   width="1240"
   height="607.73999"
   inkscape:version="1.2.2 (1:1.2.2+202212051552+b0a8486541)"
   xmlns:inkscape="http://www.inkscape.org/namespaces/inkscape"
   xmlns:sodipodi="http://sodipodi.sourceforge.net/DTD/sodipodi-0.dtd"
   xmlns="http://www.w3.org/2000/svg"
   xmlns:svg="http://www.w3.org/2000/svg"
   xmlns:rdf="http://www.w3.org/1999/02/22-rdf-syntax-ns#"
   xmlns:cc="http://creativecommons.org/ns#"
   xmlns:dc="http://purl.org/dc/elements/1.1/">
  <sodipodi:namedview
     id="namedview36237"
     pagecolor="#ffffff"
     bordercolor="#000000"
     borderopacity="0.25"
     inkscape:showpageshadow="2"
     inkscape:pageopacity="0.0"
     inkscape:pagecheckerboard="0"
     inkscape:deskcolor="#d1d1d1"
     showgrid="false"
     inkscape:zoom="0.38832396"
     inkscape:cx="704.30885"
     inkscape:cy="193.13771"
     inkscape:window-width="1223"
     inkscape:window-height="779"
     inkscape:window-x="57"
     inkscape:window-y="21"
     inkscape:window-maximized="1"
     inkscape:current-layer="svg36235" />
  <defs
     id="defs35209">
    <style
       id="style35198">.cls-1,.cls-11,.cls-13,.cls-20,.cls-21,.cls-22,.cls-6,.cls-7,.cls-8,.cls-9{fill:none;}.cls-10,.cls-18,.cls-2{fill:#1f77b4;}.cls-2,.cls-3,.cls-4{opacity:0.3;}.cls-12,.cls-16,.cls-3{fill:#ff7f0e;}.cls-14,.cls-19,.cls-4{fill:#2ca02c;}.cls-5{clip-path:url(#clip-path);}.cls-11,.cls-6{stroke:#ff7f0e;}.cls-20,.cls-6,.cls-7,.cls-8{stroke-linejoin:round;}.cls-6,.cls-7,.cls-8{stroke-dasharray:3.7 1.6;}.cls-7,.cls-9{stroke:#1f77b4;}.cls-13,.cls-8{stroke:#2ca02c;}.cls-11,.cls-13,.cls-21,.cls-22,.cls-9{stroke-miterlimit:10;}.cls-10,.cls-12,.cls-14{opacity:0.5;}.cls-15{clip-path:url(#clip-path-13);}.cls-17{clip-path:url(#clip-path-14);}.cls-20,.cls-21,.cls-22{stroke:#000;}.cls-20,.cls-21{stroke-width:3px;}.cls-21{stroke-linecap:square;}.cls-22{stroke-width:4px;}</style>
    <clipPath
       id="clip-path"
       transform="translate(-8.19 -3.86)">
      <rect
         class="cls-1"
         x="1981.51"
         y="138"
         width="285.54001"
         height="354.03"
         id="rect35200" />
    </clipPath>
    <clipPath
       id="clip-path-13"
       transform="translate(-8.19 -3.86)">
      <rect
         class="cls-1"
         x="1981.51"
         y="140"
         width="285.54001"
         height="354.03"
         id="rect35203" />
    </clipPath>
    <clipPath
       id="clip-path-14"
       transform="translate(-8.19 -3.86)">
      <rect
         class="cls-1"
         x="1981.51"
         y="136"
         width="285.54001"
         height="354.03"
         id="rect35206" />
    </clipPath>
  </defs>
  <title
     id="title35211">hmm</title>
  <path
     d="m 903.53,62.45 c -0.24,8.68 0,25.08 11.94,26.23 4.77,0.46 7.84,-3.36 10,-7.08 2.94,-5.07 6.68,-11.37 6.8,-17.4 0.12,-6.19 -2.45,-13.22 -4.9,-18.82 -1.74,-4 -5,-8.69 -10,-8.45 -4.36,0.21 -6.69,4.31 -8.06,7.94 -2.59,6.87 -4.07,14.35 -5.62,21.5 -0.61,2.83 3.73,4 4.34,1.2 1.54,-7.13 3,-14.7 5.62,-21.51 a 11.61,11.61 0 0 1 2,-3.62 l 6,1.71 c 1.47,1.08 2,3.94 2.62,5.65 a 54.11,54.11 0 0 1 3.28,12 c 0.54,4.8 -1.42,8.65 -3.5,12.84 -1.58,3.18 -3.74,9 -7.67,9.26 -9.25,0.69 -8.52,-15.68 -8.36,-21.44 0.08,-2.9 -4.42,-2.9 -4.5,0 z"
     id="path35950" />
  <path
     d="m 934.81,42.72 q 0.08,21.92 2.09,43.75 c 0.26,2.86 4.76,2.89 4.5,0 q -2,-21.83 -2.09,-43.75 c 0,-2.89 -4.5,-2.9 -4.5,0 z"
     id="path35952" />
  <path
     d="m 939.73,59.29 c 5.54,-4.36 9.62,9.36 10.29,12.75 1.59,8.07 -3.74,11.75 -11,12.79 l 2.79,1.57 v 0.93 l -2.54,1 0.31,0.13 c 2.7,1.06 3.87,-3.29 1.2,-4.34 l -0.32,-0.13 a 2.3,2.3 0 0 0 -2.54,1 2.9,2.9 0 0 0 -0.44,2.54 c 0.21,1.3 1.68,1.73 2.77,1.57 11.42,-1.64 16.77,-9.59 13.47,-20.79 -2.15,-7.17 -8.3,-19.17 -17.18,-12.17 -2.27,1.79 0.93,5 3.19,3.18 z"
     id="path35954" />
  <path
     d="m 970.81,64.88 c 4.6,-9.85 -9.72,-16.72 -14.13,-6.89 -2,4.49 -1.78,9.88 2.42,12.83 3,2.08 9.36,3.43 10.22,7.47 1.06,5 -9,9 -11,4.16 -1.13,-2.66 -5,-0.37 -3.89,2.27 3.36,7.86 16,4 18.84,-2.37 1.73,-3.93 -0.14,-7.86 -3.24,-10.45 -2.13,-1.77 -5.24,-2.34 -7.25,-4.12 -1.85,-1.64 -3.08,-3.54 -2.44,-6 a 4.83,4.83 0 0 1 2.69,-4 q 5.52,-0.19 3.93,4.81 c -1.22,2.61 2.66,4.9 3.89,2.27 z"
     id="path35956" />
  <path
     d="m 977.91,76.24 c 6.42,-0.59 13.44,-5.64 14.34,-12.45 0.68,-5.17 -6.39,-12.74 -11.43,-8.78 -2.48,1.94 -3.57,6.14 -4.38,9 a 28.27,28.27 0 0 0 -0.81,13 c 1.21,6.26 6.83,13.58 13.92,10.75 2.66,-1.07 1.5,-5.42 -1.19,-4.34 -4.43,1.77 -7.32,-3.15 -8.24,-6.77 -1,-4 -0.29,-8.35 0.89,-12.21 0.41,-1.35 1,-4.78 2.15,-5.31 3.66,-1.66 4.51,4.25 3.82,6.24 -1.22,3.47 -5.65,6.07 -9.07,6.38 -2.86,0.26 -2.89,4.77 0,4.5 z"
     id="path35958" />
  <path
     d="m 998.55,63.27 c 0.5,-1.14 2.64,-4 2.84,-4.91 0.25,-1.22 -1.57,-2.07 -0.33,0.16 a 5.6,5.6 0 0 0 2.78,2.75 c 3.68,1.5 6.51,-1.62 8.16,-4.52 l -4.11,-1.73 -4.26,15.19 c -1.26,4.5 -3.34,9.37 -3.68,14.05 -0.5,6.69 5.47,7.06 9.53,3.37 2.15,-1.95 -1,-5.13 -3.18,-3.19 -3.56,3.23 -0.7,-4.58 -0.46,-5.44 l 2.13,-7.6 4.26,-15.19 a 2.26,2.26 0 0 0 -4.12,-1.73 c -0.67,1.18 -2.06,2 -3.14,1.2 -0.26,-0.19 -0.35,-1.25 -0.61,-1.59 a 3.12,3.12 0 0 0 -2.75,-1.23 c -3.37,0.3 -5.8,5.56 -6.95,8.13 -1.15,2.57 2.72,4.92 3.89,2.28 z"
     id="path35960" />
  <path
     d="m 1016.41,54.64 c 0,5.4 -0.43,10.94 0.31,16.29 0.79,5.75 3.28,11.08 3.83,16.88 0.19,2 3.19,3.39 4.2,1.14 2.19,-4.9 3,-10.26 4.37,-15.42 1.59,-6 3.47,-11.86 5.56,-17.67 1,-2.73 -3.36,-3.91 -4.34,-1.2 -1.88,5.23 -3.59,10.51 -5.07,15.87 -1.48,5.36 -2.15,11.11 -4.41,16.15 l 4.19,1.13 c -0.49,-5.25 -2.4,-10 -3.46,-15.16 -1.21,-5.87 -0.72,-12 -0.68,-18 0,-2.89 -4.48,-2.89 -4.5,0 z"
     id="path35962" />
  <path
     d="m 1052.81,61.69 a 8.34,8.34 0 0 0 -10.69,-10.55 c -8.29,2.63 -7,16.13 -6.38,22.69 0.41,4.67 1.75,15 8.89,12.61 3.73,-1.24 5.06,-5.65 5.88,-9 1.43,-5.91 2.46,-11.94 3.68,-17.9 l -4.42,-0.6 a 70.33,70.33 0 0 0 3.36,28 c 0.91,2.73 5.26,1.56 4.33,-1.19 a 67,67 0 0 1 -3.19,-26.85 c 0.19,-2.51 -3.91,-3.08 -4.42,-0.59 l -2.58,12.56 c -0.47,2.33 -0.82,4.76 -1.52,7 -1,3.28 -3.62,5.12 -4.75,1 a 46.3,46.3 0 0 1 -1.12,-12 c 0,-2.23 -0.11,-4.81 0.69,-6.92 a 6,6 0 0 1 4.09,-4.77 q 5.36,0.82 3.81,5.27 c -0.85,2.77 3.49,4 4.34,1.19 z"
     id="path35964" />
  <path
     d="m 1064.32,34.64 -2.12,22.86 c -0.59,6.42 -2,13.38 -1,19.82 0.59,3.82 2.41,9 6.69,10.06 3.84,1 6.56,-1.86 7.81,-5.13 1,-2.71 -3.32,-3.88 -4.34,-1.2 -3.45,1 -5.27,0 -5.47,-3 l -0.41,-2.68 a 36.41,36.41 0 0 1 0,-5 c 0.23,-4 0.71,-8 1.08,-11.91 l 2.25,-23.82 c 0.27,-2.88 -4.23,-2.86 -4.5,0 z"
     id="path35966" />
  <path
     d="m 1059.24,60.07 a 27.81,27.81 0 0 1 12,-0.9 c 2.83,0.43 4,-3.91 1.19,-4.34 a 33.16,33.16 0 0 0 -14.35,0.9 c -2.77,0.8 -1.59,5.14 1.2,4.34 z"
     id="path35968" />
  <path
     d="m 1078.42,59.14 c -0.62,5 -1.39,10.07 -1.82,15.11 -0.31,3.55 -0.26,7.57 1.84,10.63 4.15,6.08 9,0.91 12.82,-2.3 2.23,-1.85 -1,-5 -3.18,-3.18 -1.63,1.36 -4.14,5.23 -6.65,1.4 -1.13,-1.73 -0.44,-5.45 -0.25,-7.38 0.45,-4.77 1.15,-9.53 1.74,-14.28 0.35,-2.87 -4.15,-2.84 -4.5,0 z"
     id="path35970" />
  <path
     d="m 1081.88,46.67 a 2.56,2.56 0 0 0 -3.54,-0.9 2.78,2.78 0 0 0 -1.11,3.39 2.53,2.53 0 0 0 3,1.51 2.71,2.71 0 0 0 2,-2.72 2.26,2.26 0 0 0 -1.11,-1.94 3.08,3.08 0 0 0 -2,-0.29 3,3 0 0 0 -1.33,0.74 3.51,3.51 0 0 0 -1,2.61 2.25,2.25 0 1 0 4.5,0 c 0,-0.25 0,-0.19 -0.05,0.18 -0.05,0.37 -0.18,0.38 -0.1,0.23 0.08,-0.15 0,-0.08 -0.16,0.2 a 1.69,1.69 0 0 1 -2,0.21 l -1.11,-1.94 c 0,0.55 0.2,0.18 0.51,-1.13 q 5.68,2.15 1,3 l -1,-0.58 -0.22,-0.31 a 2.2519436,2.2519436 0 1 0 3.89,-2.27 z"
     id="path35972" />
  <path
     d="m 1091.81,62.14 c -1.13,7.41 -2.9,18.69 4.32,23.87 6.82,4.88 12.38,-3.86 13.61,-9.69 1.63,-7.7 -0.52,-17.5 -6.69,-22.8 -7.82,-6.7 -10.62,6.66 -11.93,11.84 -0.71,2.81 3.63,4 4.34,1.2 0.51,-2.05 1,-4.1 1.69,-6.1 1.06,-3.22 2,-5.2 4.71,-1.55 a 20.78,20.78 0 0 1 3.95,12.75 c -0.1,3.59 -4.41,16.94 -9,8.1 -2.56,-4.93 -1.4,-11.23 -0.61,-16.45 0.43,-2.83 -3.9,-4.05 -4.34,-1.19 z"
     id="path35974" />
  <path
     d="m 1111.72,53.2 a 98,98 0 0 0 2.25,33.14 c 0.69,2.81 5,1.62 4.34,-1.2 a 94.29,94.29 0 0 1 -2.09,-31.94 c 0.3,-2.88 -4.21,-2.86 -4.5,0 z"
     id="path35976" />
  <path
     d="m 1116.81,67.77 c 2.35,-4.66 5.6,-8.79 10.59,-10.77 l -2.85,-2.17 a 143.42,143.42 0 0 0 2.56,31.63 c 0.55,2.84 4.89,1.64 4.34,-1.2 a 138,138 0 0 1 -2.4,-30.43 2.26,2.26 0 0 0 -2.85,-2.17 c -6.14,2.44 -10.33,7 -13.28,12.84 -1.3,2.58 2.58,4.86 3.89,2.27 z"
     id="path35978" />
  <path
     d="m 1149.5,63.76 c 1.88,-4.47 -1.14,-8.59 -5.41,-10.1 -4.27,-1.51 -8.11,0.74 -9.91,4.73 a 12.54,12.54 0 0 0 2.25,13.18 c 1.73,1.9 4.18,2.56 6.16,4.07 a 8,8 0 0 1 3.07,6.39 c -0.06,4.4 -5.76,3.29 -6.83,-0.45 -0.8,-2.78 -5.15,-1.6 -4.34,1.19 1,3.67 3.72,6.22 7.66,6.43 3.94,0.21 7.72,-1 8.05,-5.25 0.31,-3.94 -0.94,-8.57 -4,-11.2 -2.21,-1.89 -5.31,-2.51 -7.05,-5 a 8.42,8.42 0 0 1 -1.23,-6.56 l 1.41,-2.62 q 5.73,-2.33 5.83,4 c -1.12,2.66 3.23,3.83 4.34,1.19 z"
     id="path35980" />
  <path
     d="m 1191.53,58.14 c 1.57,-6.9 1.23,-16.19 -7.63,-17.49 -8.86,-1.3 -14.09,6.69 -15.23,14.49 -1.36,9.29 -0.33,21.27 5,29.29 5.69,8.52 14.64,3.64 21.69,-0.33 2.52,-1.42 0.26,-5.31 -2.27,-3.89 -5.17,2.92 -12.33,7.63 -16.24,0.78 -2.85,-5 -4,-11.78 -4.16,-17.45 -0.16,-5 -0.1,-12 3.64,-15.93 2.36,-2.46 7,-3.65 9.76,-1.15 3,2.64 1.84,7.23 1.09,10.49 -0.63,2.82 3.7,4 4.34,1.2 z"
     id="path35982" />
  <path
     d="m 1202.4,37.97 a 56.85,56.85 0 0 0 -5.74,29.44 96.3,96.3 0 0 0 2.49,15.07 c 0.75,3.13 1.55,6.27 4.74,7.59 a 2.28,2.28 0 0 0 2.19,-0.58 l 0.52,-0.41 c 2.27,-1.79 -0.93,-5 -3.18,-3.19 l -0.53,0.41 2.19,-0.57 c -1.82,-0.75 -2.59,-8.93 -2.92,-10.73 a 69.26,69.26 0 0 1 -1.19,-12.19 51.38,51.38 0 0 1 5.32,-22.57 c 1.27,-2.59 -2.61,-4.87 -3.89,-2.27 z"
     id="path35984" />
  <path
     d="m 1214.21,39.67 c -1.48,11.16 -1.91,22.43 -2.57,33.66 -0.2,3.39 -1,7.42 1.36,10.22 2.36,2.8 5.85,2.38 9,1.48 2.78,-0.8 1.6,-5.14 -1.2,-4.34 -1.19,0.69 -2.24,0.41 -3.13,-0.85 -1.66,-0.35 -2.26,-1.24 -1.79,-2.69 -0.29,-1.54 0.25,-4.16 0.34,-5.73 0.2,-3.49 0.41,-7 0.61,-10.47 0.43,-7.12 0.91,-14.21 1.85,-21.28 0.38,-2.86 -4.12,-2.83 -4.5,0 z"
     id="path35986" />
  <path
     d="m 1208.52,61.02 12.91,-0.68 c 2.88,-0.15 2.9,-4.66 0,-4.5 l -12.91,0.68 c -2.88,0.15 -2.9,4.65 0,4.5 z"
     id="path35988" />
  <path
     d="m 1228.44,40.26 c 2.71,16.41 3.68,32.5 -2.49,48.28 -1.06,2.7 3.29,3.87 4.33,1.2 6.47,-16.54 5.34,-33.5 2.5,-50.68 -0.47,-2.85 -4.81,-1.64 -4.34,1.2 z"
     id="path35990" />
  <path
     d="m 969.03,221.54 c 1.46,-6.43 1.38,-15.21 -6.91,-16.54 -8.6,-1.39 -13.42,6.49 -14.49,13.83 -1.34,9.1 -0.34,20.95 4.92,28.81 5.42,8.08 14,3.15 20.66,-0.6 a 1.5,1.5 0 0 0 -1.51,-2.59 49.46,49.46 0 0 1 -7.62,3.76 c -4.23,1.5 -7.37,0.73 -9.64,-3.25 -2.93,-5.12 -4.08,-12 -4.27,-17.83 -0.17,-5.28 0,-12.43 3.86,-16.47 a 8.26,8.26 0 0 1 10.83,-1.14 c 3.34,2.45 2,8 1.28,11.22 -0.43,1.88 2.47,2.68 2.89,0.8 z"
     id="path36050" />
  <path
     d="m 981.27,201.98 a 56.1,56.1 0 0 0 -5.64,29 94.56,94.56 0 0 0 2.47,14.87 c 0.67,2.81 1.32,5.88 4.21,7.07 a 1.52,1.52 0 0 0 1.46,-0.39 l 0.52,-0.41 c 1.52,-1.19 -0.62,-3.3 -2.12,-2.12 0.47,-0.37 -2.29,-10 -2.51,-11.22 a 69.65,69.65 0 0 1 -1.22,-12.39 52.34,52.34 0 0 1 5.42,-23 c 0.85,-1.73 -1.74,-3.25 -2.59,-1.51 z"
     id="path36052" />
  <path
     d="m 1022.39,203.69 c 2.73,16.54 3.72,32.77 -2.5,48.68 -0.7,1.8 2.2,2.58 2.89,0.79 6.42,-16.4 5.32,-33.22 2.5,-50.27 -0.32,-1.9 -3.21,-1.1 -2.89,0.8 z"
     id="path36054" />
  <path
     d="m 994.49,204.9 a 208.67,208.67 0 0 0 -4.47,36 c -0.11,2.94 -1.09,8 1.81,10 2.9,2 7.9,0.39 10.78,-0.84 1.78,-0.75 0.25,-3.34 -1.51,-2.59 -2.54,1.08 -6.87,2.47 -8.18,-1.2 -0.44,-1.22 0,-4.11 0.1,-5.35 q 0.21,-5.76 0.73,-11.51 a 201.32,201.32 0 0 1 3.63,-23.69 c 0.4,-1.88 -2.49,-2.69 -2.89,-0.8 z"
     id="path36056" />
  <path
     d="m 984.19,229.05 a 28.09,28.09 0 0 1 17.27,-0.7 1.51,1.51 0 0 0 0.8,-2.9 31,31 0 0 0 -18.87,0.7 c -1.81,0.64 -1,3.54 0.8,2.9 z"
     id="path36058" />
  <path
     d="m 1006.75,238.73 c -3,4.14 -3,11.81 0,16 3.38,4.67 8.41,1.28 10.13,-2.93 2.06,-5 1.75,-14.42 -3.2,-17.89 -5.32,-3.73 -9.21,3.66 -10,7.9 -0.37,1.88 2.52,2.69 2.89,0.79 0.61,-3.13 3.82,-9.93 6.87,-4.39 a 16,16 0 0 1 1,11.77 c -0.44,1.38 -1.77,4.23 -3.59,4.09 -1.82,-0.14 -2.5,-2.88 -2.8,-4.26 -0.67,-3.07 -0.53,-6.89 1.35,-9.51 1.13,-1.57 -1.48,-3.07 -2.59,-1.52 z"
     id="path36060" />
  <path
     d="m 969.03,381.54 c 1.46,-6.43 1.38,-15.21 -6.91,-16.54 -8.6,-1.39 -13.42,6.49 -14.49,13.83 -1.34,9.1 -0.34,20.95 4.92,28.81 5.42,8.08 14,3.15 20.66,-0.6 a 1.5,1.5 0 0 0 -1.51,-2.59 49.46,49.46 0 0 1 -7.62,3.76 c -4.23,1.5 -7.37,0.73 -9.64,-3.25 -2.93,-5.12 -4.08,-12 -4.27,-17.83 -0.17,-5.28 0,-12.43 3.86,-16.47 a 8.26,8.26 0 0 1 10.83,-1.14 c 3.34,2.45 2,8 1.28,11.22 -0.43,1.88 2.47,2.68 2.89,0.8 z"
     id="path36062" />
  <path
     d="m 980.04,360.14 a 56.11,56.11 0 0 0 -5.65,29 94.56,94.56 0 0 0 2.47,15 c 0.67,2.81 1.33,5.88 4.22,7.07 a 1.53,1.53 0 0 0 1.46,-0.39 l 0.52,-0.41 c 1.51,-1.19 -0.62,-3.3 -2.12,-2.12 0.47,-0.37 -2.3,-10 -2.51,-11.22 a 69.65,69.65 0 0 1 -1.22,-12.39 52.34,52.34 0 0 1 5.42,-22.95 c 0.85,-1.73 -1.74,-3.25 -2.59,-1.51 z"
     id="path36064" />
  <path
     d="m 1022.15,361.88 c 2.74,16.55 3.73,32.78 -2.49,48.69 -0.71,1.79 2.19,2.57 2.89,0.79 6.42,-16.4 5.31,-33.22 2.5,-50.27 -0.32,-1.9 -3.21,-1.1 -2.9,0.79 z"
     id="path36066" />
  <path
     d="M 995.55,362.49 A 214.53,214.53 0 0 0 991.08,399 c -0.11,2.95 -1.1,8.05 1.81,10.1 2.91,2.05 7.91,0.39 10.78,-0.85 1.77,-0.76 0.25,-3.35 -1.51,-2.59 -2.58,1.12 -6.87,2.49 -8.18,-1.23 -0.44,-1.25 0.05,-4.16 0.1,-5.43 q 0.21,-5.85 0.73,-11.68 a 207.5,207.5 0 0 1 3.63,-24 c 0.4,-1.88 -2.49,-2.68 -2.89,-0.79 z"
     id="path36068" />
  <path
     d="m 985.25,386.95 a 27.8,27.8 0 0 1 17.27,-0.71 1.5,1.5 0 0 0 0.8,-2.89 30.51,30.51 0 0 0 -18.87,0.71 c -1.8,0.65 -1,3.55 0.8,2.89 z"
     id="path36070" />
  <path
     d="m 1007.25,405.14 a 20.58,20.58 0 0 0 6.69,-12.36 l -3,-0.4 c -0.07,5.27 0.15,10.62 -0.22,15.87 -0.05,0.77 0.11,3.07 -0.67,3.53 -0.32,0.18 -1.66,-0.21 -2.12,-0.18 a 3.86,3.86 0 0 0 -2.71,1.08 1.52,1.52 0 0 0 1.06,2.56 l 9.12,0.08 a 1.5,1.5 0 0 0 0,-3 l -9.12,-0.08 1.06,2.56 c 0.95,-0.81 3.31,0.27 4.55,-0.3 1.24,-0.57 1.59,-1.54 1.76,-2.88 0.78,-6.23 0.21,-12.95 0.29,-19.24 0,-1.64 -2.68,-2.1 -2.94,-0.4 a 18.06,18.06 0 0 1 -5.92,11 c -1.43,1.31 0.7,3.43 2.12,2.13 z"
     id="path36072" />
  <path
     d="m 969.03,531.54 c 1.46,-6.43 1.38,-15.21 -6.91,-16.54 -8.6,-1.39 -13.42,6.49 -14.49,13.83 -1.34,9.1 -0.34,20.95 4.92,28.81 5.42,8.08 14,3.15 20.66,-0.6 a 1.5,1.5 0 0 0 -1.51,-2.59 49.46,49.46 0 0 1 -7.62,3.76 c -4.23,1.5 -7.37,0.73 -9.64,-3.25 -2.93,-5.12 -4.08,-12 -4.27,-17.83 -0.17,-5.28 0,-12.43 3.86,-16.47 a 8.26,8.26 0 0 1 10.83,-1.14 c 3.34,2.45 2,8 1.28,11.22 -0.43,1.88 2.47,2.68 2.89,0.8 z"
     id="path36074" />
  <path
     d="m 981.1,510.14 a 56,56 0 0 0 -5.64,29.05 93.39,93.39 0 0 0 2.46,14.95 c 0.68,2.81 1.33,5.88 4.22,7.07 a 1.53,1.53 0 0 0 1.46,-0.39 l 0.52,-0.41 c 1.51,-1.19 -0.62,-3.3 -2.12,-2.12 0.47,-0.37 -2.3,-10 -2.51,-11.22 a 69.65,69.65 0 0 1 -1.22,-12.39 52.34,52.34 0 0 1 5.42,-23 c 0.85,-1.73 -1.74,-3.25 -2.59,-1.51 z"
     id="path36076" />
  <path
     d="m 1023.21,511.88 c 2.74,16.55 3.73,32.78 -2.49,48.69 -0.71,1.79 2.19,2.57 2.89,0.79 6.42,-16.4 5.32,-33.22 2.5,-50.27 -0.32,-1.9 -3.21,-1.1 -2.9,0.79 z"
     id="path36078" />
  <path
     d="m 994.51,514 a 215,215 0 0 0 -4.47,36.47 c -0.1,2.95 -1.1,8 1.81,10.09 2.91,2.09 7.91,0.39 10.79,-0.85 1.77,-0.76 0.24,-3.35 -1.51,-2.59 -2.59,1.11 -6.88,2.49 -8.19,-1.23 -0.43,-1.25 0.06,-4.16 0.1,-5.42 q 0.21,-5.85 0.74,-11.67 a 205.16,205.16 0 0 1 3.62,-24 c 0.4,-1.88 -2.49,-2.68 -2.89,-0.79 z"
     id="path36080" />
  <path
     d="m 984.21,538.44 a 27.73,27.73 0 0 1 17.27,-0.71 1.5,1.5 0 0 0 0.8,-2.89 30.59,30.59 0 0 0 -18.87,0.7 c -1.8,0.65 -1,3.55 0.8,2.9 z"
     id="path36082" />
  <path
     d="m 1005.68,541.86 a 155.67,155.67 0 0 1 -0.83,25.08 c -0.22,1.92 2.78,1.9 3,0 a 155.67,155.67 0 0 0 0.83,-25.08 c -0.1,-1.92 -3.1,-1.94 -3,0 z"
     id="path36084" />
  <path
     d="m 1015.63,544.69 a 38.64,38.64 0 0 1 -8.48,13.77 1.51,1.51 0 0 0 1.46,2.51 c 4.66,-0.77 8.13,2.31 10.3,6.11 a 1.5,1.5 0 0 0 2.59,-1.51 c -2.91,-5.11 -7.67,-8.48 -13.69,-7.5 l 1.46,2.51 a 42.28,42.28 0 0 0 9.25,-15.09 c 0.68,-1.82 -2.22,-2.6 -2.89,-0.8 z"
     id="path36086" />
  <metadata
     id="metadata38672">
    <rdf:RDF>
      <cc:Work
         rdf:about="">
        <dc:title>hmm</dc:title>
      </cc:Work>
    </rdf:RDF>
  </metadata>
</svg>
