<?xml version="1.0" encoding="UTF-8" standalone="no"?>
<svg
   viewBox="0 0 1240 607.74"
   version="1.1"
   id="svg36235"
   sodipodi:docname="4_1.svg"
   width="1240"
   height="607.73999"
   inkscape:version="1.2.2 (1:1.2.2+202212051552+b0a8486541)"
   xmlns:inkscape="http://www.inkscape.org/namespaces/inkscape"
   xmlns:sodipodi="http://sodipodi.sourceforge.net/DTD/sodipodi-0.dtd"
   xmlns="http://www.w3.org/2000/svg"
   xmlns:svg="http://www.w3.org/2000/svg"
   xmlns:rdf="http://www.w3.org/1999/02/22-rdf-syntax-ns#"
   xmlns:cc="http://creativecommons.org/ns#"
   xmlns:dc="http://purl.org/dc/elements/1.1/">
  <sodipodi:namedview
     id="namedview36237"
     pagecolor="#ffffff"
     bordercolor="#000000"
     borderopacity="0.25"
     inkscape:showpageshadow="2"
     inkscape:pageopacity="0.0"
     inkscape:pagecheckerboard="0"
     inkscape:deskcolor="#d1d1d1"
     showgrid="false"
     inkscape:zoom="0.38832396"
     inkscape:cx="704.30885"
     inkscape:cy="193.13771"
     inkscape:window-width="1223"
     inkscape:window-height="779"
     inkscape:window-x="57"
     inkscape:window-y="21"
     inkscape:window-maximized="1"
     inkscape:current-layer="svg36235" />
  <defs
     id="defs35209">
    <style
       id="style35198">.cls-1,.cls-11,.cls-13,.cls-20,.cls-21,.cls-22,.cls-6,.cls-7,.cls-8,.cls-9{fill:none;}.cls-10,.cls-18,.cls-2{fill:#1f77b4;}.cls-2,.cls-3,.cls-4{opacity:0.3;}.cls-12,.cls-16,.cls-3{fill:#ff7f0e;}.cls-14,.cls-19,.cls-4{fill:#2ca02c;}.cls-5{clip-path:url(#clip-path);}.cls-11,.cls-6{stroke:#ff7f0e;}.cls-20,.cls-6,.cls-7,.cls-8{stroke-linejoin:round;}.cls-6,.cls-7,.cls-8{stroke-dasharray:3.7 1.6;}.cls-7,.cls-9{stroke:#1f77b4;}.cls-13,.cls-8{stroke:#2ca02c;}.cls-11,.cls-13,.cls-21,.cls-22,.cls-9{stroke-miterlimit:10;}.cls-10,.cls-12,.cls-14{opacity:0.5;}.cls-15{clip-path:url(#clip-path-13);}.cls-17{clip-path:url(#clip-path-14);}.cls-20,.cls-21,.cls-22{stroke:#000;}.cls-20,.cls-21{stroke-width:3px;}.cls-21{stroke-linecap:square;}.cls-22{stroke-width:4px;}</style>
    <clipPath
       id="clip-path"
       transform="translate(-8.19 -3.86)">
      <rect
         class="cls-1"
         x="1981.51"
         y="138"
         width="285.54001"
         height="354.03"
         id="rect35200" />
    </clipPath>
    <clipPath
       id="clip-path-13"
       transform="translate(-8.19 -3.86)">
      <rect
         class="cls-1"
         x="1981.51"
         y="140"
         width="285.54001"
         height="354.03"
         id="rect35203" />
    </clipPath>
    <clipPath
       id="clip-path-14"
       transform="translate(-8.19 -3.86)">
      <rect
         class="cls-1"
         x="1981.51"
         y="136"
         width="285.54001"
         height="354.03"
         id="rect35206" />
    </clipPath>
  </defs>
  <title
     id="title35211">hmm</title>
  <path
     d="m 969.03,221.54 c 1.46,-6.43 1.38,-15.21 -6.91,-16.54 -8.6,-1.39 -13.42,6.49 -14.49,13.83 -1.34,9.1 -0.34,20.95 4.92,28.81 5.42,8.08 14,3.15 20.66,-0.6 a 1.5,1.5 0 0 0 -1.51,-2.59 49.46,49.46 0 0 1 -7.62,3.76 c -4.23,1.5 -7.37,0.73 -9.64,-3.25 -2.93,-5.12 -4.08,-12 -4.27,-17.83 -0.17,-5.28 0,-12.43 3.86,-16.47 a 8.26,8.26 0 0 1 10.83,-1.14 c 3.34,2.45 2,8 1.28,11.22 -0.43,1.88 2.47,2.68 2.89,0.8 z"
     id="path36050" />
  <path
     d="m 981.27,201.98 a 56.1,56.1 0 0 0 -5.64,29 94.56,94.56 0 0 0 2.47,14.87 c 0.67,2.81 1.32,5.88 4.21,7.07 a 1.52,1.52 0 0 0 1.46,-0.39 l 0.52,-0.41 c 1.52,-1.19 -0.62,-3.3 -2.12,-2.12 0.47,-0.37 -2.29,-10 -2.51,-11.22 a 69.65,69.65 0 0 1 -1.22,-12.39 52.34,52.34 0 0 1 5.42,-23 c 0.85,-1.73 -1.74,-3.25 -2.59,-1.51 z"
     id="path36052" />
  <path
     d="m 1022.39,203.69 c 2.73,16.54 3.72,32.77 -2.5,48.68 -0.7,1.8 2.2,2.58 2.89,0.79 6.42,-16.4 5.32,-33.22 2.5,-50.27 -0.32,-1.9 -3.21,-1.1 -2.89,0.8 z"
     id="path36054" />
  <path
     d="m 994.49,204.9 a 208.67,208.67 0 0 0 -4.47,36 c -0.11,2.94 -1.09,8 1.81,10 2.9,2 7.9,0.39 10.78,-0.84 1.78,-0.75 0.25,-3.34 -1.51,-2.59 -2.54,1.08 -6.87,2.47 -8.18,-1.2 -0.44,-1.22 0,-4.11 0.1,-5.35 q 0.21,-5.76 0.73,-11.51 a 201.32,201.32 0 0 1 3.63,-23.69 c 0.4,-1.88 -2.49,-2.69 -2.89,-0.8 z"
     id="path36056" />
  <path
     d="m 984.19,229.05 a 28.09,28.09 0 0 1 17.27,-0.7 1.51,1.51 0 0 0 0.8,-2.9 31,31 0 0 0 -18.87,0.7 c -1.81,0.64 -1,3.54 0.8,2.9 z"
     id="path36058" />
  <path
     d="m 1006.75,238.73 c -3,4.14 -3,11.81 0,16 3.38,4.67 8.41,1.28 10.13,-2.93 2.06,-5 1.75,-14.42 -3.2,-17.89 -5.32,-3.73 -9.21,3.66 -10,7.9 -0.37,1.88 2.52,2.69 2.89,0.79 0.61,-3.13 3.82,-9.93 6.87,-4.39 a 16,16 0 0 1 1,11.77 c -0.44,1.38 -1.77,4.23 -3.59,4.09 -1.82,-0.14 -2.5,-2.88 -2.8,-4.26 -0.67,-3.07 -0.53,-6.89 1.35,-9.51 1.13,-1.57 -1.48,-3.07 -2.59,-1.52 z"
     id="path36060" />
  <metadata
     id="metadata38672">
    <rdf:RDF>
      <cc:Work
         rdf:about="">
        <dc:title>hmm</dc:title>
      </cc:Work>
    </rdf:RDF>
  </metadata>
</svg>
