<?xml version="1.0" encoding="UTF-8" standalone="no"?>
<svg
   viewBox="0 0 1240 607.74"
   version="1.1"
   id="svg36235"
   sodipodi:docname="4_2.svg"
   width="1240"
   height="607.73999"
   inkscape:version="1.2.2 (1:1.2.2+202212051552+b0a8486541)"
   xmlns:inkscape="http://www.inkscape.org/namespaces/inkscape"
   xmlns:sodipodi="http://sodipodi.sourceforge.net/DTD/sodipodi-0.dtd"
   xmlns="http://www.w3.org/2000/svg"
   xmlns:svg="http://www.w3.org/2000/svg"
   xmlns:rdf="http://www.w3.org/1999/02/22-rdf-syntax-ns#"
   xmlns:cc="http://creativecommons.org/ns#"
   xmlns:dc="http://purl.org/dc/elements/1.1/">
  <sodipodi:namedview
     id="namedview36237"
     pagecolor="#ffffff"
     bordercolor="#000000"
     borderopacity="0.25"
     inkscape:showpageshadow="2"
     inkscape:pageopacity="0.0"
     inkscape:pagecheckerboard="0"
     inkscape:deskcolor="#d1d1d1"
     showgrid="false"
     inkscape:zoom="0.38832396"
     inkscape:cx="704.30885"
     inkscape:cy="193.13771"
     inkscape:window-width="1223"
     inkscape:window-height="779"
     inkscape:window-x="57"
     inkscape:window-y="21"
     inkscape:window-maximized="1"
     inkscape:current-layer="svg36235" />
  <defs
     id="defs35209">
    <style
       id="style35198">.cls-1,.cls-11,.cls-13,.cls-20,.cls-21,.cls-22,.cls-6,.cls-7,.cls-8,.cls-9{fill:none;}.cls-10,.cls-18,.cls-2{fill:#1f77b4;}.cls-2,.cls-3,.cls-4{opacity:0.3;}.cls-12,.cls-16,.cls-3{fill:#ff7f0e;}.cls-14,.cls-19,.cls-4{fill:#2ca02c;}.cls-5{clip-path:url(#clip-path);}.cls-11,.cls-6{stroke:#ff7f0e;}.cls-20,.cls-6,.cls-7,.cls-8{stroke-linejoin:round;}.cls-6,.cls-7,.cls-8{stroke-dasharray:3.7 1.6;}.cls-7,.cls-9{stroke:#1f77b4;}.cls-13,.cls-8{stroke:#2ca02c;}.cls-11,.cls-13,.cls-21,.cls-22,.cls-9{stroke-miterlimit:10;}.cls-10,.cls-12,.cls-14{opacity:0.5;}.cls-15{clip-path:url(#clip-path-13);}.cls-17{clip-path:url(#clip-path-14);}.cls-20,.cls-21,.cls-22{stroke:#000;}.cls-20,.cls-21{stroke-width:3px;}.cls-21{stroke-linecap:square;}.cls-22{stroke-width:4px;}</style>
    <clipPath
       id="clip-path"
       transform="translate(-8.19 -3.86)">
      <rect
         class="cls-1"
         x="1981.51"
         y="138"
         width="285.54001"
         height="354.03"
         id="rect35200" />
    </clipPath>
    <clipPath
       id="clip-path-13"
       transform="translate(-8.19 -3.86)">
      <rect
         class="cls-1"
         x="1981.51"
         y="140"
         width="285.54001"
         height="354.03"
         id="rect35203" />
    </clipPath>
    <clipPath
       id="clip-path-14"
       transform="translate(-8.19 -3.86)">
      <rect
         class="cls-1"
         x="1981.51"
         y="136"
         width="285.54001"
         height="354.03"
         id="rect35206" />
    </clipPath>
  </defs>
  <title
     id="title35211">hmm</title>
  <path
     d="m 969.03,381.54 c 1.46,-6.43 1.38,-15.21 -6.91,-16.54 -8.6,-1.39 -13.42,6.49 -14.49,13.83 -1.34,9.1 -0.34,20.95 4.92,28.81 5.42,8.08 14,3.15 20.66,-0.6 a 1.5,1.5 0 0 0 -1.51,-2.59 49.46,49.46 0 0 1 -7.62,3.76 c -4.23,1.5 -7.37,0.73 -9.64,-3.25 -2.93,-5.12 -4.08,-12 -4.27,-17.83 -0.17,-5.28 0,-12.43 3.86,-16.47 a 8.26,8.26 0 0 1 10.83,-1.14 c 3.34,2.45 2,8 1.28,11.22 -0.43,1.88 2.47,2.68 2.89,0.8 z"
     id="path36062" />
  <path
     d="m 980.04,360.14 a 56.11,56.11 0 0 0 -5.65,29 94.56,94.56 0 0 0 2.47,15 c 0.67,2.81 1.33,5.88 4.22,7.07 a 1.53,1.53 0 0 0 1.46,-0.39 l 0.52,-0.41 c 1.51,-1.19 -0.62,-3.3 -2.12,-2.12 0.47,-0.37 -2.3,-10 -2.51,-11.22 a 69.65,69.65 0 0 1 -1.22,-12.39 52.34,52.34 0 0 1 5.42,-22.95 c 0.85,-1.73 -1.74,-3.25 -2.59,-1.51 z"
     id="path36064" />
  <path
     d="m 1022.15,361.88 c 2.74,16.55 3.73,32.78 -2.49,48.69 -0.71,1.79 2.19,2.57 2.89,0.79 6.42,-16.4 5.31,-33.22 2.5,-50.27 -0.32,-1.9 -3.21,-1.1 -2.9,0.79 z"
     id="path36066" />
  <path
     d="M 995.55,362.49 A 214.53,214.53 0 0 0 991.08,399 c -0.11,2.95 -1.1,8.05 1.81,10.1 2.91,2.05 7.91,0.39 10.78,-0.85 1.77,-0.76 0.25,-3.35 -1.51,-2.59 -2.58,1.12 -6.87,2.49 -8.18,-1.23 -0.44,-1.25 0.05,-4.16 0.1,-5.43 q 0.21,-5.85 0.73,-11.68 a 207.5,207.5 0 0 1 3.63,-24 c 0.4,-1.88 -2.49,-2.68 -2.89,-0.79 z"
     id="path36068" />
  <path
     d="m 985.25,386.95 a 27.8,27.8 0 0 1 17.27,-0.71 1.5,1.5 0 0 0 0.8,-2.89 30.51,30.51 0 0 0 -18.87,0.71 c -1.8,0.65 -1,3.55 0.8,2.89 z"
     id="path36070" />
  <path
     d="m 1007.25,405.14 a 20.58,20.58 0 0 0 6.69,-12.36 l -3,-0.4 c -0.07,5.27 0.15,10.62 -0.22,15.87 -0.05,0.77 0.11,3.07 -0.67,3.53 -0.32,0.18 -1.66,-0.21 -2.12,-0.18 a 3.86,3.86 0 0 0 -2.71,1.08 1.52,1.52 0 0 0 1.06,2.56 l 9.12,0.08 a 1.5,1.5 0 0 0 0,-3 l -9.12,-0.08 1.06,2.56 c 0.95,-0.81 3.31,0.27 4.55,-0.3 1.24,-0.57 1.59,-1.54 1.76,-2.88 0.78,-6.23 0.21,-12.95 0.29,-19.24 0,-1.64 -2.68,-2.1 -2.94,-0.4 a 18.06,18.06 0 0 1 -5.92,11 c -1.43,1.31 0.7,3.43 2.12,2.13 z"
     id="path36072" />
  <metadata
     id="metadata38672">
    <rdf:RDF>
      <cc:Work
         rdf:about="">
        <dc:title>hmm</dc:title>
      </cc:Work>
    </rdf:RDF>
  </metadata>
</svg>
