<?xml version="1.0" encoding="UTF-8" standalone="no"?>
<svg
   viewBox="0 0 1240 607.74"
   version="1.1"
   id="svg36235"
   sodipodi:docname="5.svg"
   width="1240"
   height="607.73999"
   inkscape:version="1.2.2 (1:1.2.2+202212051552+b0a8486541)"
   xmlns:inkscape="http://www.inkscape.org/namespaces/inkscape"
   xmlns:sodipodi="http://sodipodi.sourceforge.net/DTD/sodipodi-0.dtd"
   xmlns="http://www.w3.org/2000/svg"
   xmlns:svg="http://www.w3.org/2000/svg"
   xmlns:rdf="http://www.w3.org/1999/02/22-rdf-syntax-ns#"
   xmlns:cc="http://creativecommons.org/ns#"
   xmlns:dc="http://purl.org/dc/elements/1.1/">
  <sodipodi:namedview
     id="namedview36237"
     pagecolor="#ffffff"
     bordercolor="#000000"
     borderopacity="0.25"
     inkscape:showpageshadow="2"
     inkscape:pageopacity="0.0"
     inkscape:pagecheckerboard="0"
     inkscape:deskcolor="#d1d1d1"
     showgrid="false"
     inkscape:zoom="0.38832396"
     inkscape:cx="704.30885"
     inkscape:cy="193.13771"
     inkscape:window-width="1223"
     inkscape:window-height="779"
     inkscape:window-x="57"
     inkscape:window-y="21"
     inkscape:window-maximized="1"
     inkscape:current-layer="svg36235" />
  <defs
     id="defs35209">
    <style
       id="style35198">.cls-1,.cls-11,.cls-13,.cls-20,.cls-21,.cls-22,.cls-6,.cls-7,.cls-8,.cls-9{fill:none;}.cls-10,.cls-18,.cls-2{fill:#1f77b4;}.cls-2,.cls-3,.cls-4{opacity:0.3;}.cls-12,.cls-16,.cls-3{fill:#ff7f0e;}.cls-14,.cls-19,.cls-4{fill:#2ca02c;}.cls-5{clip-path:url(#clip-path);}.cls-11,.cls-6{stroke:#ff7f0e;}.cls-20,.cls-6,.cls-7,.cls-8{stroke-linejoin:round;}.cls-6,.cls-7,.cls-8{stroke-dasharray:3.7 1.6;}.cls-7,.cls-9{stroke:#1f77b4;}.cls-13,.cls-8{stroke:#2ca02c;}.cls-11,.cls-13,.cls-21,.cls-22,.cls-9{stroke-miterlimit:10;}.cls-10,.cls-12,.cls-14{opacity:0.5;}.cls-15{clip-path:url(#clip-path-13);}.cls-17{clip-path:url(#clip-path-14);}.cls-20,.cls-21,.cls-22{stroke:#000;}.cls-20,.cls-21{stroke-width:3px;}.cls-21{stroke-linecap:square;}.cls-22{stroke-width:4px;}</style>
    <clipPath
       id="clip-path"
       transform="translate(-8.19 -3.86)">
      <rect
         class="cls-1"
         x="1981.51"
         y="138"
         width="285.54001"
         height="354.03"
         id="rect35200" />
    </clipPath>
    <clipPath
       id="clip-path-13"
       transform="translate(-8.19 -3.86)">
      <rect
         class="cls-1"
         x="1981.51"
         y="140"
         width="285.54001"
         height="354.03"
         id="rect35203" />
    </clipPath>
    <clipPath
       id="clip-path-14"
       transform="translate(-8.19 -3.86)">
      <rect
         class="cls-1"
         x="1981.51"
         y="136"
         width="285.54001"
         height="354.03"
         id="rect35206" />
    </clipPath>
  </defs>
  <title
     id="title35211">hmm</title>
  <path
     d="m 609.69,238.14 q 109.8,0.77 219.53,-4.3 a 1,1 0 0 0 0.51,-1.87 L 810,219.34 l -0.5,1.86 a 95.91,95.91 0 0 1 30.44,8.94 v -1.72 a 86.53,86.53 0 0 0 -26.87,18.22 1.0005623,1.0005623 0 0 0 1.42,1.41 85.2,85.2 0 0 1 26.46,-17.91 1,1 0 0 0 0,-1.72 98.81,98.81 0 0 0 -31.45,-9.17 c -1.05,-0.12 -1.26,1.38 -0.5,1.87 l 19.72,12.61 0.5,-1.86 q -109.68,5.06 -219.53,4.3 a 1,1 0 0 0 0,2 z"
     id="path35994" />
  <path
     d="m 609.57,394.14 q 62.38,1.67 124.76,-2.09 30.9,-1.89 61.7,-5.12 7.81,-0.82 15.63,-1.73 c 2.08,-0.25 5.09,-0.45 6.24,-2.6 2.41,-4.51 -7.09,-6.62 -9.84,-7 -1.24,-0.19 -1.82,1.65 -0.53,1.93 l 35.89,7.74 v -1.93 a 190.77,190.77 0 0 0 -36.61,16.12 1,1 0 0 0 1,1.73 188.3,188.3 0 0 1 36.11,-16 1,1 0 0 0 0,-1.93 l -35.89,-7.74 -0.53,1.93 c 1.92,0.29 6.68,0.83 7.59,2.7 1.62,3.35 -3.38,2.93 -5.42,3.22 -4.53,0.65 -9.12,1 -13.67,1.51 q -12.71,1.34 -25.44,2.44 -26.92,2.34 -53.93,3.64 -53.51,2.59 -107.09,1.13 a 1,1 0 0 0 0,2 z"
     id="path35996" />
  <path
     d="m 614.67,541.83 106,-0.12 c 34.46,0 69.16,0.86 103.41,-3.57 a 1.0090714,1.0090714 0 0 0 0.27,-2 l -22.86,-9.32 -0.54,1.93 a 219.33,219.33 0 0 0 37.54,10.52 v -1.92 a 167.83,167.83 0 0 0 -32,11.38 c -1.17,0.55 -0.15,2.27 1,1.72 a 166.63,166.63 0 0 1 31.49,-11.18 1,1 0 0 0 0,-1.92 219.9,219.9 0 0 1 -37.53,-10.53 c -1.22,-0.46 -1.71,1.45 -0.54,1.93 l 22.9,9.39 0.26,-2 c -34.25,4.43 -68.95,3.53 -103.41,3.57 l -106,0.12 a 1,1 0 0 0 0,2 z"
     id="path35998" />
  <path
     d="m 601.13,156.22 q -0.78,25.46 -1.32,50.92 c 0,1.93 3,1.93 3,0 q 0.51,-25.45 1.28,-50.92 c 0.06,-1.93 -2.94,-1.93 -3,0 z"
     id="path36100" />
  <path
     d="m 604.13,157.51 c 7.6,-0.94 13.45,7.94 15.12,14.4 2.34,9 -7.5,13.8 -15.08,14.13 -1.92,0.08 -1.93,3.08 0,3 8.13,-0.36 19.41,-5.35 18.54,-15 -0.78,-8.62 -8.83,-20.72 -18.58,-19.51 -1.89,0.23 -1.91,3.24 0,3 z"
     id="path36102" />
  <path
     d="m 632.35,154.63 c -6.88,7.53 -6.27,17.91 -6.28,27.46 0,8.6 -2.08,20.74 6,26.52 1.58,1.12 3.07,-1.48 1.52,-2.59 -6.93,-5 -4.5,-18.6 -4.5,-25.87 0,-8.08 -0.42,-17 5.4,-23.4 1.3,-1.42 -0.82,-3.55 -2.12,-2.12 z"
     id="path36104" />
  <path
     d="m 669.89,162.74 c -3.61,8.8 -4.41,18.11 -4.68,27.53 -0.19,7 -0.56,14.39 6.33,18.24 a 1.51,1.51 0 0 0 2.2,-0.9 l 0.26,-1.38 c 0.36,-1.88 -2.53,-2.69 -2.89,-0.79 l -0.26,1.37 2.2,-0.89 c -7,-3.91 -5,-14.13 -4.64,-20.84 a 65.52,65.52 0 0 1 4.4,-21.54 c 0.74,-1.79 -2.17,-2.56 -2.89,-0.8 z"
     id="path36106" />
  <path
     d="m 679.3,164.14 c -0.9,12.46 -2.31,25.4 -1.74,37.89 0.3,6.5 7.79,9 11.5,3.32 1.06,-1.62 -1.54,-3.13 -2.59,-1.52 q -6.42,1.15 -5.89,-2.74 c 0,-0.95 0,-1.9 0.06,-2.85 0,-1.26 0.06,-2.53 0.1,-3.79 q 0.15,-5.22 0.38,-10.42 0.45,-10 1.18,-19.89 c 0.14,-1.93 -2.86,-1.92 -3,0 z"
     id="path36108" />
  <path
     d="m 673.92,188.75 a 43.86,43.86 0 0 1 12.75,-1.48 c 1.93,0.06 1.93,-2.94 0,-3 a 46.57,46.57 0 0 0 -13.55,1.59 1.5,1.5 0 0 0 0.8,2.89 z"
     id="path36110" />
  <path
     d="m 687.11,162.05 c 4.05,6.63 8.53,14 10.32,21.65 2,8.66 -1.84,16.8 -5.89,24.24 a 1.5015409,1.5015409 0 0 0 2.59,1.52 l 0.83,-1.44 a 1.5015409,1.5015409 0 0 0 -2.59,-1.52 l -0.83,1.44 2.59,1.52 c 3.94,-7.24 7.78,-15.24 6.73,-23.71 -1.1,-8.9 -6.59,-17.72 -11.16,-25.22 a 1.5015409,1.5015409 0 0 0 -2.59,1.52 z"
     id="path36112" />
  <path
     d="m 705.54,187.88 8.24,-0.93 c 1.9,-0.21 1.92,-3.21 0,-3 l -8.24,0.93 c -1.89,0.21 -1.92,3.22 0,3 z"
     id="path36114" />
  <path
     d="m 705.54,196.77 h 7.88 a 1.5,1.5 0 0 0 0,-3 h -7.88 a 1.5,1.5 0 0 0 0,3 z"
     id="path36116" />
  <path
     d="m 735.11,183.14 c 1.67,-4.9 -4.74,-8.16 -8.91,-7.9 -5.51,0.33 -6.21,7.26 -6.83,11.6 -0.83,5.78 -1.56,16 3.57,20.3 a 8.5,8.5 0 0 0 11.56,-0.77 1.5,1.5 0 0 0 -2.12,-2.12 c -3.25,3.22 -7.49,1.64 -9.19,-2.21 -1.29,-2.93 -1.34,-6.72 -1.27,-9.89 a 39.59,39.59 0 0 1 1.07,-8.39 c 0.4,-1.71 0.64,-3.3 2.1,-4.45 a 1.63,1.63 0 0 1 2.46,-0.86 c 2.22,0.06 3.78,1.36 4.66,3.9 -0.62,1.83 2.28,2.61 2.9,0.79 z"
     id="path36118" />
  <path
     d="m 747.09,161.29 q 0.53,23.23 2.2,46.41 a 1.5,1.5 0 0 0 3,0 l 0.15,-1.94 c 0.14,-1.92 -2.86,-1.91 -3,0 l -0.15,1.94 h 3 q -1.68,-23.17 -2.2,-46.41 c 0,-1.93 -3,-1.94 -3,0 z"
     id="path36120" />
  <path
     d="m 764.16,162.84 a 214.36,214.36 0 0 0 23.71,43.93 c 1.1,1.57 3.7,0.08 2.59,-1.51 a 211.73,211.73 0 0 1 -23.41,-43.22 c -0.7,-1.77 -3.6,-1 -2.89,0.8 z"
     id="path36122" />
  <path
     d="m 788.53,161.05 c -4.74,7.45 -6.39,16.28 -11.11,23.78 -4.3,6.83 -9.43,13.05 -11.93,20.84 -0.59,1.84 2.31,2.63 2.89,0.8 2.58,-8 8.2,-14.35 12.47,-21.48 4.27,-7.13 5.82,-15.43 10.28,-22.43 1,-1.63 -1.56,-3.14 -2.6,-1.51 z"
     id="path36124" />
  <path
     d="m 797.2,161.89 c -3.75,15.26 -9.12,32.07 1,46 l 2.05,-2 -1,-0.52 c -1.71,-0.88 -3.23,1.71 -1.52,2.6 l 1,0.51 c 1.21,0.63 3,-0.75 2,-2.05 -9.65,-13.28 -4.29,-29.27 -0.73,-43.74 0.47,-1.87 -2.43,-2.67 -2.89,-0.79 z"
     id="path36126" />
  <path
     d="m 807.04,164.59 a 168.58,168.58 0 0 0 -2.48,34.16 c 0.1,3.07 -0.08,6.08 2.62,8 2.92,2.1 6.68,1.34 9.75,0.09 1.77,-0.71 1,-3.62 -0.79,-2.89 -1.51,0.61 -4.53,1.89 -6,0.94 -2.16,-1.4 -2.53,-3.9 -2.6,-6.17 q -0.18,-5.31 0,-10.64 a 165,165 0 0 1 2.37,-22.72 c 0.33,-1.89 -2.56,-2.7 -2.89,-0.8 z"
     id="path36128" />
  <path
     d="m 799.93,185.9 a 86.27,86.27 0 0 1 14.16,-1.27 1.5,1.5 0 0 0 0,-3 90.38,90.38 0 0 0 -15,1.38 c -1.9,0.34 -1.09,3.23 0.8,2.89 z"
     id="path36130" />
  <path
     d="m 813.07,162.87 c 6.61,6.13 8.11,12.64 8.56,21.44 0.41,7.93 0.4,15.72 -1.85,23.41 l 2.95,0.4 -0.07,-0.91 c -0.16,-1.91 -3.16,-1.93 -3,0 l 0.07,0.91 a 1.5132746,1.5132746 0 0 0 3,0.4 c 2.65,-9.08 2.38,-18.47 1.75,-27.82 -0.55,-8.1 -3.25,-14.4 -9.23,-19.95 -1.42,-1.32 -3.54,0.8 -2.13,2.12 z"
     id="path36132" />
  <path
     d="m 830.81,187.14 9,-1 c 1.9,-0.21 1.92,-3.21 0,-3 l -9,1 c -1.9,0.21 -1.92,3.21 0,3 z"
     id="path36134" />
  <path
     d="m 831.89,194.04 a 23.53,23.53 0 0 1 7.49,0.2 c 1.88,0.37 2.69,-2.52 0.8,-2.89 a 25.64,25.64 0 0 0 -8.29,-0.31 c -1.89,0.24 -1.91,3.25 0,3 z"
     id="path36136" />
  <path
     d="m 842.61,177.14 c 2,4.77 5.25,8.83 7.85,13.26 a 122.73,122.73 0 0 1 8.51,17.74 1.52,1.52 0 0 0 2.9,0 l 0.37,-1.12 c 0.61,-1.84 -2.29,-2.63 -2.89,-0.8 l -0.38,1.12 h 2.9 a 129.72,129.72 0 0 0 -7,-15.25 c -2.89,-5.29 -7.06,-10.16 -9.35,-15.72 -0.72,-1.77 -3.63,-1 -2.89,0.79 z"
     id="path36138" />
  <path
     d="m 857.42,177.42 c -6.25,9.61 -9.31,20.9 -16.09,30.2 -0.74,1 0.29,2.15 1.29,2.26 a 2.23,2.23 0 0 0 2,-0.54 c 1.53,-1.15 0,-3.75 -1.51,-2.59 l -0.47,0.13 1.3,2.25 c 6.79,-9.29 9.84,-20.59 16.09,-30.2 1.06,-1.62 -1.54,-3.13 -2.59,-1.51 z"
     id="path36140" />
  <path
     d="m 865.21,156.14 c 1.41,8.63 5.13,16.05 5,25 -0.19,9.21 -2.62,18.22 -5,27.06 a 1.5,1.5 0 0 0 2.89,0.79 c 2.49,-9.09 4.95,-18.37 5.14,-27.85 0.19,-9.25 -3.6,-16.94 -5.06,-25.84 -0.31,-1.9 -3.2,-1.09 -2.89,0.8 z"
     id="path36142" />
  <path
     d="m 656.91,178.76 c 1.59,-6.9 0.78,-16.06 -8.34,-16.26 -8,-0.18 -12.09,6.85 -13.09,13.81 -1.28,8.84 -0.25,20.26 5,27.81 5.45,7.92 14,3.08 20.66,-0.56 1.69,-0.93 0.18,-3.52 -1.52,-2.59 -5.42,3 -13.18,7.7 -17.26,0.51 -2.72,-4.8 -3.93,-11 -4.23,-16.42 -0.26,-4.74 -0.18,-10.57 2.29,-14.79 2.17,-3.71 6.29,-5.51 10.28,-4 5.12,2 4.41,7.12 3.37,11.66 -0.44,1.88 2.46,2.68 2.89,0.8 z"
     id="path36144" />
  <path
     d="m 650.86,2.14 q -0.7,23.55 0.67,47.07 c 0.17,2.88 4.67,2.9 4.5,0 Q 654.65,25.72 655.36,2.14 c 0.09,-2.9 -4.41,-2.89 -4.5,0 z"
     id="path36146" />
  <path
     d="m 654.81,4.4 a 85.58,85.58 0 0 0 15.21,1.79 c 2.9,0.07 2.9,-4.43 0,-4.5 a 78.55,78.55 0 0 1 -14,-1.63 c -2.83,-0.59 -4,3.75 -1.2,4.34 z"
     id="path36148" />
  <path
     d="m 654.5,33.06 a 49.62,49.62 0 0 1 9.17,-1 c 2.89,0 2.9,-4.54 0,-4.5 a 55.46,55.46 0 0 0 -10.36,1.18 c -2.84,0.6 -1.64,4.94 1.19,4.34 z"
     id="path36150" />
  <path
     d="m 655.25,52.98 c -0.53,0.72 2,0.2 2.65,0.18 l 5.13,-0.14 9.51,-0.28 c 2.89,-0.08 2.9,-4.59 0,-4.5 l -13.91,0.4 c -2.8,0.08 -5.46,-0.35 -7.26,2.07 -1.8,2.42 2.18,4.57 3.88,2.27 z"
     id="path36152" />
  <path
     d="m 677.7,20.68 0.54,15 c 0.12,3.12 1.77,10.44 -0.44,13 l 3.84,1.59 a 119.21,119.21 0 0 1 2.4,-15.52 49,49 0 0 1 1.85,-6 c 0.41,-1.05 2.37,-6.64 3.79,-7 l -2.19,-0.61 c 6.05,5.81 3.5,19.29 2.56,26.47 -0.32,2.49 4.06,3.11 4.42,0.6 0.76,-5.28 1.47,-10.56 2.27,-15.83 a 30.65,30.65 0 0 1 0.78,-4.15 c 0.47,-1.56 2.46,-6.2 4.16,-6.72 5.08,-1.56 2.48,9.14 2.29,11.83 a 68.63,68.63 0 0 0 0,7.59 c 0.08,2.22 0.85,5.51 0.15,7.66 l 3.31,-1.35 -0.23,-0.15 1,2.55 0.07,-0.23 c 0.85,-2.77 -3.49,-4 -4.34,-1.2 l -0.07,0.23 a 2.3,2.3 0 0 0 1,2.54 l 0.23,0.15 a 2.27,2.27 0 0 0 3.3,-1.35 c 1,-3.14 0,-7.52 -0.06,-10.76 a 87.44,87.44 0 0 1 0.75,-10.88 c 0.42,-4.17 0,-10.69 -5.15,-11.9 -4.68,-1.1 -8.62,5.39 -10.12,8.9 -2.74,6.51 -2.71,14.89 -3.71,21.82 l 4.42,0.6 c 0.91,-7 1.76,-14.11 0.16,-21 -0.65,-2.78 -2.54,-10.48 -6.78,-9 -4,1.35 -6.29,9.39 -7.39,13 -2,6.4 -2.68,13.15 -3.4,19.79 -0.21,1.92 2.62,3 3.84,1.59 2.74,-3.16 2.09,-7.25 1.94,-11.17 l -0.72,-20 c -0.1,-2.89 -4.6,-2.9 -4.5,0 z"
     id="path36154" />
  <path
     d="m 714.02,18.59 q -0.35,15.89 0.55,31.76 c 0.16,2.88 4.66,2.9 4.5,0 q -0.9,-15.87 -0.55,-31.76 c 0.06,-2.9 -4.44,-2.9 -4.5,0 z"
     id="path36156" />
  <path
     d="m 714.33,11.53 0.66,0.53 a 2.44,2.44 0 0 0 1.59,0.65 2.25,2.25 0 0 0 1.59,-3.84 l -0.66,-0.53 a 2.46,2.46 0 0 0 -1.59,-0.65 2.25,2.25 0 0 0 -1.59,3.84 z"
     id="path36158" />
  <path
     d="m 739.12,22 c -2.84,-3.29 -6.94,-5.4 -11.37,-4.61 -3.72,0.67 -7,3.47 -7,7.45 0,3.98 3.14,6.78 6.64,8.14 3.7,1.43 6.69,2.44 7.56,6.82 a 7.87,7.87 0 0 1 -0.51,5.09 c -0.65,1.23 -8.08,5.88 -8,0.88 0,-2.89 -4.49,-2.9 -4.5,0 0,4.94 3.82,7 8.37,6.48 4.9,-0.61 8.34,-3.39 9.18,-8.38 0.78,-4.57 -0.89,-9.85 -4.72,-12.62 -1.89,-1.37 -4.06,-1.67 -6.13,-2.61 -3.82,-1.72 -2.9,-6.54 1,-6.92 2.58,-0.26 4.79,1.68 6.32,3.46 1.9,2.2 5.07,-1 3.19,-3.18 z"
     id="path36160" />
  <path
     d="m 759.58,23.62 c -0.92,-10.34 -15.4,-8.66 -17.16,0.53 -0.86,4.51 1.21,8.09 5.2,10 3.37,1.61 7.06,2.43 8.47,6.47 3.59,10.31 -10.36,5.73 -10.09,4.87 0.85,-2.78 -3.49,-4 -4.34,-1.2 -1.54,5 3.58,6.74 7.61,7.47 4.54,0.83 9.2,-0.63 11,-5.19 1.58,-3.93 0.27,-8.74 -2.56,-11.76 a 16.68,16.68 0 0 0 -5.75,-3.8 c -2.91,-1.26 -5.88,-2.22 -4.92,-6.27 0.78,-3.33 7.55,-6.28 8,-1.12 0.26,2.86 4.76,2.89 4.5,0 z"
     id="path36162" />
  <path
     d="m 763.93,18.71 q 0.69,15.65 2.18,31.23 c 0.22,2.3 4,3.31 4.42,0.6 l 0.27,-1.82 c 0.42,-2.83 -3.91,-4.06 -4.34,-1.2 l -0.27,1.82 4.42,0.6 q -1.49,-15.58 -2.18,-31.23 c -0.13,-2.89 -4.63,-2.9 -4.5,0 z"
     id="path36164" />
  <path
     d="m 765.93,7.41 a 1.73,1.73 0 0 1 2.07,1.1 2.2514218,2.2514218 0 0 0 -4.34,1.2 2.84,2.84 0 0 0 3.47,2 2.2514218,2.2514218 0 0 0 -1.2,-4.34 z"
     id="path36166" />
  <path
     d="m 773.37,29.14 c 0.1,6.73 -2.14,19.06 6.29,21.68 9.53,3 10.31,-7.7 11.26,-14.73 0.95,-7.03 0.6,-16.59 -7.3,-20 a 6.6,6.6 0 0 0 -8,2 c -2.79,3.61 -1.36,8.71 -2.06,12.86 -0.47,2.84 3.86,4 4.34,1.2 a 34.09,34.09 0 0 0 0.43,-5.24 c 0,-1 0,-2.08 0,-3.12 q 4.53,-4.95 6.6,-0.39 c 3,4.45 2,9.5 1.12,14.5 a 37.32,37.32 0 0 1 -1.39,6.2 4.51,4.51 0 0 1 -1.35,2.86 5.22,5.22 0 0 1 -5,-3.37 c -1.5,-3.94 -0.44,-10.26 -0.5,-14.45 0,-2.9 -4.54,-2.9 -4.5,0 z"
     id="path36168" />
  <path
     d="m 794.32,21.4 a 125,125 0 0 1 1.13,29.5 h 4.5 c -0.07,-4.76 -2.62,-30.87 5.86,-29.46 2.16,0.36 2,0.83 2.53,2.81 a 32.42,32.42 0 0 1 0.85,4 27.49,27.49 0 0 1 -0.26,8.68 c -0.69,4.18 -1.41,8 -0.46,12.15 0.64,2.82 5,1.63 4.34,-1.2 -1,-4.42 0.46,-8.56 1,-12.93 a 30.69,30.69 0 0 0 -0.87,-11.08 c -0.93,-3.67 -2.72,-8.66 -7.34,-8.33 -5.29,0.38 -8.65,7.65 -9.7,12.06 -1.73,7.34 -0.5,15.81 -0.39,23.27 0,2.93 4.28,2.86 4.5,0 a 129.86,129.86 0 0 0 -1.29,-30.7 c -0.45,-2.85 -4.79,-1.64 -4.34,1.2 z"
     id="path36170" />
  <path
     d="m 641.14,74.55 q 1.21,26.5 1,53 c 0,2.9 4.48,2.9 4.5,0 q 0.18,-26.52 -1,-53 c -0.13,-2.88 -4.63,-2.9 -4.5,0 z"
     id="path36172" />
  <path
     d="m 649.14,80.02 c 5.21,-6.14 8.63,8.24 8.95,11 0.6,5 -2.35,14.71 -9.23,10 -2.4,-1.63 -4.65,2.26 -2.27,3.89 10,6.81 17.13,-5.79 16,-14.5 -0.62,-4.78 -2.13,-11.32 -6.23,-14.41 a 7.54,7.54 0 0 0 -10.4,0.87 c -1.86,2.2 1.3,5.4 3.18,3.18 z"
     id="path36174" />
  <path
     d="m 666.54,81.05 4.27,-4.91 h -3.2 c 3.11,3 7.24,4.69 10.14,0.5 l -4.11,-1.74 q -1.8,7.71 -3.45,15.45 c -0.7,3.29 -2.13,7.1 -1.84,10.45 0.57,6.51 8.48,5.5 12.52,3 2.47,-1.5 0.22,-5.39 -2.27,-3.88 -1.9,1.72 -3.8,1.5 -5.68,-0.67 0.26,-1.29 0.52,-2.59 0.79,-3.88 l 1.23,-5.81 q 1.47,-6.77 3,-13.51 a 2.27,2.27 0 0 0 -4.12,-1.74 3.19,3.19 0 0 1 -3.06,-1.4 2.29,2.29 0 0 0 -3.19,0 l -4.25,4.91 c -1.89,2.18 1.28,5.37 3.18,3.18 z"
     id="path36176" />
  <path
     d="m 680.32,92.61 c -1,5.43 1.27,17.2 9.45,14.1 7.29,-2.76 10.67,-13.88 10.48,-20.84 -0.16,-6 -3.68,-16.54 -11.74,-13.7 -8.06,2.84 -8.17,18.68 -7.64,25.45 0.23,2.87 4.73,2.89 4.5,0 a 41.94,41.94 0 0 1 1.27,-14.84 c 0.66,-2.32 1.63,-7.67 5.6,-6.06 2.21,0.9 2.88,4.43 3.22,6.48 a 21.24,21.24 0 0 1 -2,13.06 c -0.77,1.5 -2.37,4.8 -4,5.36 -5.41,1.84 -5.24,-5 -4.75,-7.81 0.49,-2.81 -3.84,-4 -4.34,-1.2 z"
     id="path36178" />
  <path
     d="m 702.46,59.02 c -0.64,16.35 -1.11,32.68 1.39,48.91 l 4.11,-1.73 -0.3,-0.62 c -1.24,-2.61 -5.13,-0.33 -3.88,2.27 l 0.29,0.62 c 1.19,2.49 4.47,0.58 4.12,-1.73 -2.44,-15.81 -1.86,-31.81 -1.23,-47.72 0.12,-2.9 -4.38,-2.89 -4.5,0 z"
     id="path36180" />
  <path
     d="m 707.81,81.48 c 2,-3.14 6.26,2.28 7,3.64 a 11.51,11.51 0 0 1 1.26,5.94 c -0.07,3.52 -2,15.31 -7.68,12.36 -2.56,-1.34 -4.84,2.54 -2.27,3.88 10.65,5.53 15.1,-10.92 14.35,-18.56 -0.65,-6.77 -10.81,-18.77 -16.56,-9.54 -1.54,2.47 2.35,4.73 3.88,2.28 z"
     id="path36182" />
  <path
     d="m 738.56,85.6 c -0.73,-4.79 -3.5,-17.45 -11.23,-13 -3.16,1.8 -4.51,6 -5.2,9.28 -0.93,4.44 -2.16,9.88 -1.7,14.41 0.52,5 5.06,15.33 11.29,9.83 3,-2.67 3.55,-7.48 4.18,-11.2 a 149.14,149.14 0 0 0 1.91,-17.54 c 0.14,-2.91 -4.29,-2.86 -4.5,0 -0.68,9.11 2.28,17.66 4.06,26.48 0.57,2.83 4.91,1.63 4.34,-1.2 -1.7,-8.42 -4.55,-16.57 -3.9,-25.28 h -4.5 a 139.32,139.32 0 0 1 -1.78,16.3 39.77,39.77 0 0 1 -1.32,6.22 c -1.61,4.73 -4.3,0.61 -5,-2.34 -1.07,-4.55 0.27,-11.71 1.62,-16.22 0.34,-1.15 0.73,-3 1.71,-3.75 1.52,-1.25 3,0.26 4,1.82 1.2,2 1.34,5.13 1.68,7.39 0.44,2.85 4.77,1.64 4.34,-1.2 z"
     id="path36184" />
  <path
     d="m 740.46,57.88 c -1.34,2.6 -0.76,5.34 -0.52,8.16 l 1.21,14.46 1.12,13.5 c 0.32,3.78 -0.06,8.49 1.28,12 0.47,1.24 2,2.26 3.31,1.35 l 0.27,-0.2 a 2.36,2.36 0 0 0 1,-2.54 l -0.07,-0.33 c -0.6,-2.83 -4.94,-1.63 -4.34,1.2 l 0.07,0.33 1,-2.54 -0.28,0.19 3.31,1.35 c -1.28,-3.39 -0.9,-8.2 -1.2,-11.81 l -1,-11.57 -1,-11.57 c -0.21,-2.49 -1.58,-7.5 -0.41,-9.75 1.33,-2.57 -2.56,-4.84 -3.89,-2.27 z"
     id="path36186" />
  <path
     d="m 746.27,81.81 a 3.57,3.57 0 0 1 3.65,-0.94 q 5.11,0.81 5,5.63 a 19.69,19.69 0 0 1 -0.6,6.49 c -1,4.09 -2.83,8.12 -6.86,9.87 l 3.08,0.81 -0.61,-1.13 c -1.39,-2.54 -5.28,-0.27 -3.89,2.27 l 0.62,1.13 a 2.31,2.31 0 0 0 3.08,0.81 c 7.65,-3.34 10.66,-14.19 9.5,-21.84 -0.51,-3.35 -2.26,-6.45 -5.5,-7.81 -3.24,-1.36 -8.36,-1.22 -10.66,1.53 -1.85,2.21 1.32,5.41 3.18,3.18 z"
     id="path36188" />
  <path
     d="m 761.19,73.04 a 137.67,137.67 0 0 1 0.74,15.59 c -0.07,2.56 -0.29,5.11 -0.58,7.66 -0.21,1.94 0,5.67 -1,7.35 h 3.89 l -0.12,-0.22 -0.8,3.07 0.15,-0.07 c 2.57,-1.34 0.29,-5.23 -2.27,-3.89 l -0.16,0.08 a 2.29,2.29 0 0 0 -0.8,3.08 l 0.11,0.22 a 2.27,2.27 0 0 0 3.89,0 c 0.91,-1.44 0.85,-3.16 1.06,-4.83 0.41,-3.19 0.83,-6.39 1,-9.6 a 122.16,122.16 0 0 0 -0.61,-18.44 c -0.24,-2.86 -4.75,-2.89 -4.5,0 z"
     id="path36190" />
  <path
     d="m 761.74,66.27 0.42,0.06 a 2.48,2.48 0 0 0 1.73,-0.22 2.29,2.29 0 0 0 1,-1.35 c 0.25,-1.06 -0.32,-2.6 -1.57,-2.77 h -0.42 a 2.48,2.48 0 0 0 -1.73,0.22 2.29,2.29 0 0 0 -1,1.35 c -0.24,1 0.32,2.59 1.57,2.76 z"
     id="path36192" />
  <path
     d="m 768.96,57.54 q 1.1,23.71 -0.15,47.42 c -0.15,2.89 4.35,2.88 4.5,0 q 1.25,-23.7 0.15,-47.42 c -0.13,-2.88 -4.63,-2.9 -4.5,0 z"
     id="path36194" />
  <path
     d="m 778.52,71.14 c -3,3.22 -1.32,9.68 -1.18,13.66 q 0.39,10.59 1,21.19 c 0.15,2.88 4.65,2.9 4.5,0 -0.29,-5.46 -0.56,-10.92 -0.78,-16.37 q -0.15,-3.86 -0.28,-7.71 c 0,-1.42 -1,-6.54 0,-7.58 2,-2.11 -1.2,-5.3 -3.19,-3.19 z"
     id="path36196" />
  <path
     d="m 780.4,65.81 c 2.9,0 2.9,-4.5 0,-4.5 -2.9,0 -2.9,4.5 0,4.5 z"
     id="path36198" />
  <path
     d="m 789.27,57.25 c -0.77,13 -2.9,26.82 -1.42,39.83 0.41,3.55 0.89,7.63 4.52,9.33 3.85,1.8 7.69,-0.31 10.84,-2.5 2.36,-1.64 0.11,-5.54 -2.27,-3.89 -2.62,1.82 -5.54,4.32 -8,0.34 -1,-1.53 -0.7,-4.25 -0.82,-6 a 99.6,99.6 0 0 1 0.2,-12 c 0.47,-8.37 1,-16.75 1.47,-25.12 0.17,-2.89 -4.33,-2.88 -4.5,0 z"
     id="path36200" />
  <path
     d="m 786.55,80.37 q 5.85,-1.08 11.76,-1.66 c 2.86,-0.28 2.89,-4.79 0,-4.5 q -6.51,0.65 -13,1.82 c -2.85,0.52 -1.64,4.86 1.19,4.34 z"
     id="path36202" />
  <path
     d="m 800.86,74.55 c 0.8,6.93 1.15,14.09 2.56,20.92 0.82,3.94 2.71,9.51 7.24,10.52 10.36,2.3 8.53,-20 7.17,-25.18 a 2.26,2.26 0 0 0 -4.42,0.6 c -0.05,7.86 0.94,15.65 1.32,23.5 a 70.81,70.81 0 0 1 -0.23,11.65 c -0.21,1.8 -0.09,4.48 -1.61,5.62 -2,1.48 -4.69,-0.53 -6.37,-1.75 -2.35,-1.71 -4.6,2.19 -2.27,3.88 2.95,2.15 7.65,4.2 11.22,2.2 3,-1.68 3.12,-6.29 3.48,-9.35 1.41,-11.89 -1.12,-23.84 -1,-35.75 l -4.42,0.6 a 31.1,31.1 0 0 1 1,10.95 c -0.15,1.5 -0.26,3.73 -1,5.06 -2.23,4 -4.13,1.63 -5.07,-1.25 -2.24,-6.89 -2.19,-15 -3,-22.22 -0.33,-2.84 -4.83,-2.88 -4.5,0 z"
     id="path36204" />
  <metadata
     id="metadata38672">
    <rdf:RDF>
      <cc:Work
         rdf:about="">
        <dc:title>hmm</dc:title>
      </cc:Work>
    </rdf:RDF>
  </metadata>
</svg>
