<?xml version="1.0" encoding="UTF-8" standalone="no"?>
<svg
   viewBox="0 0 1240 607.74"
   version="1.1"
   id="svg36235"
   sodipodi:docname="7.svg"
   width="1240"
   height="607.73999"
   inkscape:version="1.3.2 (091e20e, 2023-11-25)"
   xmlns:inkscape="http://www.inkscape.org/namespaces/inkscape"
   xmlns:sodipodi="http://sodipodi.sourceforge.net/DTD/sodipodi-0.dtd"
   xmlns="http://www.w3.org/2000/svg"
   xmlns:svg="http://www.w3.org/2000/svg"
   xmlns:rdf="http://www.w3.org/1999/02/22-rdf-syntax-ns#"
   xmlns:cc="http://creativecommons.org/ns#"
   xmlns:dc="http://purl.org/dc/elements/1.1/">
  <sodipodi:namedview
     id="namedview36237"
     pagecolor="#ffffff"
     bordercolor="#000000"
     borderopacity="0.25"
     inkscape:showpageshadow="2"
     inkscape:pageopacity="0.0"
     inkscape:pagecheckerboard="0"
     inkscape:deskcolor="#d1d1d1"
     showgrid="false"
     inkscape:zoom="1.1589611"
     inkscape:cx="973.28551"
     inkscape:cy="150.13447"
     inkscape:window-width="1312"
     inkscape:window-height="449"
     inkscape:window-x="64"
     inkscape:window-y="140"
     inkscape:window-maximized="0"
     inkscape:current-layer="svg36235" />
  <defs
     id="defs35209">
    <style
       id="style35198">.cls-1,.cls-11,.cls-13,.cls-20,.cls-21,.cls-22,.cls-6,.cls-7,.cls-8,.cls-9{fill:none;}.cls-10,.cls-18,.cls-2{fill:#1f77b4;}.cls-2,.cls-3,.cls-4{opacity:0.3;}.cls-12,.cls-16,.cls-3{fill:#ff7f0e;}.cls-14,.cls-19,.cls-4{fill:#2ca02c;}.cls-5{clip-path:url(#clip-path);}.cls-11,.cls-6{stroke:#ff7f0e;}.cls-20,.cls-6,.cls-7,.cls-8{stroke-linejoin:round;}.cls-6,.cls-7,.cls-8{stroke-dasharray:3.7 1.6;}.cls-7,.cls-9{stroke:#1f77b4;}.cls-13,.cls-8{stroke:#2ca02c;}.cls-11,.cls-13,.cls-21,.cls-22,.cls-9{stroke-miterlimit:10;}.cls-10,.cls-12,.cls-14{opacity:0.5;}.cls-15{clip-path:url(#clip-path-13);}.cls-17{clip-path:url(#clip-path-14);}.cls-20,.cls-21,.cls-22{stroke:#000;}.cls-20,.cls-21{stroke-width:3px;}.cls-21{stroke-linecap:square;}.cls-22{stroke-width:4px;}</style>
    <clipPath
       id="clip-path"
       transform="translate(-8.19 -3.86)">
      <rect
         class="cls-1"
         x="1981.51"
         y="138"
         width="285.54001"
         height="354.03"
         id="rect35200" />
    </clipPath>
    <clipPath
       id="clip-path-13"
       transform="translate(-8.19 -3.86)">
      <rect
         class="cls-1"
         x="1981.51"
         y="140"
         width="285.54001"
         height="354.03"
         id="rect35203" />
    </clipPath>
    <clipPath
       id="clip-path-14"
       transform="translate(-8.19 -3.86)">
      <rect
         class="cls-1"
         x="1981.51"
         y="136"
         width="285.54001"
         height="354.03"
         id="rect35206" />
    </clipPath>
  </defs>
  <title
     id="title35211">hmm</title>
  <g
     id="Layer_2"
     data-name="Layer 2">
    <rect
       class="cls-2"
       x="1074.25"
       y="177.59"
       width="58.869999"
       height="26.540001"
       id="rect35213" />
    <rect
       class="cls-3"
       x="1074.25"
       y="214.59"
       width="58.869999"
       height="26.540001"
       id="rect35215" />
    <rect
       class="cls-4"
       x="1074.25"
       y="251.59"
       width="58.869999"
       height="26.540001"
       id="rect35217" />
    <rect
       class="cls-2"
       x="1074.25"
       y="339.59"
       width="58.869999"
       height="26.540001"
       id="rect35219" />
    <rect
       class="cls-3"
       x="1074.25"
       y="376.59"
       width="58.869999"
       height="26.540001"
       id="rect35221" />
    <rect
       class="cls-4"
       x="1074.25"
       y="413.59"
       width="58.869999"
       height="26.540001"
       id="rect35223" />
    <rect
       class="cls-2"
       x="1074.25"
       y="489.59"
       width="58.869999"
       height="26.540001"
       id="rect35225" />
    <rect
       class="cls-3"
       x="1074.25"
       y="526.59003"
       width="58.869999"
       height="26.540001"
       id="rect35227" />
    <rect
       class="cls-4"
       x="1074.25"
       y="563.59003"
       width="58.869999"
       height="26.540001"
       id="rect35229" />
  </g>
  <path
     d="m 1077.38,172.31 c -2.85,0.19 -5.77,0.29 -8.63,0.47 -1.82,0.14 -4,-0.08 -5.71,0.46 -3.26,1.09 -2.88,4.35 -2.69,7.21 0.81,11.65 1.52,23.37 1.93,35.06 0.78,22.91 0.54,45.87 -0.57,68.83 a 1.19,1.19 0 0 0 1.37,1.24 c 8,-0.54 16,-1 24.08,-1.54 1.51,-0.08 1.11,-2.4 -0.4,-2.32 -8,0.54 -16,1 -24.08,1.53 0.43,0.44 0.94,0.88 1.37,1.24 q 1.53,-30.66 0.77,-61.32 c -0.22,-9.55 -0.61,-19.11 -1.23,-28.62 -0.14,-2.54 -0.28,-5.07 -0.49,-7.69 -0.16,-2.38 -0.82,-5.27 -0.58,-7.61 0.47,-4.76 3.86,-4 7.27,-4.24 2.61,-0.13 5.3,-0.25 7.92,-0.47 1.57,0 1.18,-2.32 -0.33,-2.23 z"
     id="path35402" />
  <path
     d="m 1128.3,173.52 c 4.7,0.38 9.31,0.82 14,1.19 l -1,-1.14 a 409.82,409.82 0 0 0 -2,60.37 q 0.54,14.61 2.23,29.1 l 0.83,6.8 c 0.32,2.58 1.5,5.94 -0.12,8.07 -1.62,2.13 -5.34,2.06 -8.12,2.47 l -8.57,1.44 a 1.07,1.07 0 1 0 0.44,2.09 c 5.32,-0.85 11.44,-1.14 16.53,-2.78 3.29,-1.09 3.09,-3.37 2.71,-6.24 -1.29,-11.51 -2.73,-23 -3.32,-34.57 a 405.23,405.23 0 0 1 1.76,-66.56 1.12,1.12 0 0 0 -1,-1.15 c -4.69,-0.38 -9.31,-0.82 -14,-1.2 a 1.07,1.07 0 1 0 -0.25,2.11 z"
     id="path35404" />
  <path
     d="m 1079.95,189.92 c -2.9,3.69 -1.1,9.1 3.22,10.85 5.81,2.36 12.67,-2.74 15,-7.9 2.38,-5.35 -1.45,-10 -6.83,-10.87 a 12.43,12.43 0 0 0 -13.15,7.09 c -0.77,1.75 1.81,3.28 2.59,1.52 a 9.3,9.3 0 0 1 6.2,-5.41 c 3,-0.83 8.66,-0.15 9,4 0.31,3.78 -4.22,7.68 -7.43,8.72 -2,0.65 -4.15,0.58 -5.69,-1 -1.26,-1.25 -2,-3.36 -0.74,-4.93 1.26,-1.57 -0.93,-3.63 -2.12,-2.12 z"
     id="path35406" />
  <path
     d="m 1109.05,179.96 a 43,43 0 0 0 -10.3,20.67 c -0.37,1.89 2.52,2.69 2.89,0.8 a 40.06,40.06 0 0 1 9.53,-19.35 c 1.28,-1.44 -0.83,-3.56 -2.12,-2.12 z"
     id="path35408" />
  <path
     d="m 1115.23,188.14 c 0.26,-1.71 0.77,-4.37 2.64,-5 1.27,-0.44 1.26,0.77 1.29,2.07 a 11.58,11.58 0 0 1 -0.64,3.5 c -1,3.42 -3.38,6.26 -5.72,8.88 a 1.52,1.52 0 0 0 0.67,2.51 65.53,65.53 0 0 0 14.12,1 c 1.93,-0.07 1.94,-3.07 0,-3 a 62,62 0 0 1 -13.33,-0.9 l 0.66,2.5 c 3.85,-4.31 9.48,-11.82 6.9,-18.07 -0.91,-2.21 -3.15,-2.37 -5.14,-1.38 -2.68,1.33 -3.92,4.31 -4.34,7.1 -0.28,1.89 2.61,2.7 2.89,0.8 z"
     id="path35410" />
  <path
     d="m 1089.81,222.53 a 5.87,5.87 0 0 1 1.7,-1.63 c 3.42,0.55 4.43,1.66 3,3.33 a 5,5 0 0 1 -3,2.87 l 0.8,2.89 c 2.37,-1 4.47,1.92 2.44,4.18 -1.27,1.41 -3.58,1.25 -5.18,0.9 -1.6,-0.35 -6.1,-1.56 -6.06,-3.79 0,-1.93 -3,-1.93 -3,0 -0.06,3.2 2.76,4.64 5.4,5.71 3.24,1.31 7.21,2.27 10.24,-0.08 4.81,-3.72 1.6,-12.33 -4.64,-9.81 a 1.5,1.5 0 0 0 0.8,2.89 c 3.67,-0.77 7.28,-6.34 5.28,-10 -2.28,-4.12 -7.54,-2.6 -10,0.38 -1.21,1.49 0.9,3.62 2.12,2.12 z"
     id="path35412" />
  <path
     d="m 1109.1,217.64 a 103.84,103.84 0 0 0 -8.73,19.24 1.52,1.52 0 0 0 1.45,1.9 v 0 a 1.51,1.51 0 0 0 1.45,-1.9 v -0.05 c -0.55,-1.85 -3.44,-1.06 -2.89,0.8 v 0 l 1.45,-1.9 v 0 l 1.44,1.9 a 99.76,99.76 0 0 1 8.43,-18.52 1.5015409,1.5015409 0 0 0 -2.59,-1.52 z"
     id="path35414" />
  <path
     d="m 1117.01,222.35 c 2.55,-0.85 3.12,-0.16 1.73,2.07 a 4,4 0 0 1 -3.06,0.9 v 3 c 2.65,-0.16 8.63,1.54 6.17,5.57 -0.93,1.51 -9.65,2.63 -9.92,0.07 -0.21,-1.9 -3.21,-1.92 -3,0 0.29,2.75 2.29,4.32 5,4.46 2.94,0.15 7.75,0.21 9.88,-2.22 a 6.32,6.32 0 0 0 0.29,-7.48 c -1.85,-2.79 -5.3,-3.59 -8.45,-3.4 a 1.5,1.5 0 0 0 0,3 c 4,0 8.42,-3.38 6.24,-7.74 a 4.17,4.17 0 0 0 -7.8,1 c -0.42,1.88 2.47,2.69 2.89,0.8 z"
     id="path35416" />
  <path
     d="m 1089.12,385.48 c -0.2,-1.71 0.45,-4 2.76,-4 2.84,-0.08 3,3.41 1.83,5.25 -1.17,1.84 -3.88,2.93 -5.72,4.21 -2.64,1.84 -4.51,4.3 -4.36,7.62 a 1.52,1.52 0 0 0 1.5,1.5 l 13.4,-0.41 c 1.93,-0.06 1.93,-3.06 0,-3 l -13.4,0.41 1.5,1.5 c -0.29,-6.39 16.14,-9.41 10,-17.6 -3.79,-5.09 -11.22,-1.4 -10.55,4.55 0.21,1.89 3.21,1.91 3,0 z"
     id="path35418" />
  <path
     d="m 1106.75,378.3 q -2.68,10.54 -6.35,20.77 c -0.65,1.82 2.25,2.6 2.9,0.79 q 3.66,-10.23 6.34,-20.76 c 0.47,-1.87 -2.42,-2.67 -2.89,-0.8 z"
     id="path35420" />
  <path
     d="m 1114.99,383.92 c 1,-1.22 0.94,-1.77 2.6,-0.92 1.39,0.16 1.65,0.73 0.78,1.72 a 2.39,2.39 0 0 1 -2.14,2 1.5,1.5 0 0 0 0.4,2.94 c 3.78,0.5 5.79,4.8 1.88,7.06 -2.74,1.57 -6.17,0.77 -6.69,-2.66 -0.3,-1.9 -3.19,-1.09 -2.9,0.8 1,6.57 9.08,7 13.13,2.88 4.73,-4.85 0,-10.36 -5.42,-11.08 l 0.4,2.95 c 3.46,-1 5.9,-4.77 4.37,-8.35 -1.92,-4.47 -6.33,-2.28 -8.53,0.52 -1.18,1.5 0.93,3.64 2.12,2.12 z"
     id="path35422" />
  <path
     d="m 1083.99,261.94 c -2,5.54 -1,11.58 5.12,14 4.9,2 10.39,-4.8 11.7,-9 1.56,-5 -2.14,-11.19 -7,-12.78 -6.28,-2 -8.13,5.73 -9.61,10 -0.63,1.83 2.27,2.62 2.89,0.8 0.45,-1.31 0.88,-2.64 1.36,-3.95 0.87,-2.38 1,-3.41 3.7,-3.41 4.55,0 7.43,5.75 5.27,9.73 -1.32,2.43 -4.71,6.5 -7.83,5.43 -4.44,-1.53 -3.84,-6.8 -2.65,-10.1 0.65,-1.82 -2.25,-2.6 -2.9,-0.8 z"
     id="path35424" />
  <path
     d="m 1108.96,253.66 -4.49,19.56 c -0.43,1.88 2.46,2.68 2.89,0.79 l 4.5,-19.56 c 0.43,-1.88 -2.46,-2.68 -2.9,-0.79 z"
     id="path35426" />
  <path
     d="m 1116.71,266.79 a 13,13 0 0 0 5.65,-4.58 c 1.67,-2.55 1.09,-5.29 2.33,-7.9 l -2.8,-0.76 a 54.24,54.24 0 0 1 -0.71,10.8 c -0.48,3 -0.31,7.83 -4.19,7.52 -1.7,-0.13 -2,2.54 -0.4,2.95 a 19.52,19.52 0 0 0 7.46,0.49 c 1.9,-0.23 1.92,-3.24 0,-3 a 17.66,17.66 0 0 1 -6.67,-0.38 l -0.39,2.94 c 5.06,0.4 5.25,-0.33 6.26,-5.27 a 67.73,67.73 0 0 0 1.64,-16 c 0,-1.38 -2.12,-2.18 -2.79,-0.75 -0.87,1.83 -0.7,3.53 -1.2,5.46 -0.75,2.89 -3.11,4.76 -5.7,5.94 -1.76,0.8 -0.23,3.38 1.51,2.59 z"
     id="path35428" />
  <path
     d="m 1087.6,579.92 a 13.77,13.77 0 0 0 6.6,-12.6 1.5,1.5 0 0 0 -3,0 v 15.1 c 0,2.39 0.1,3.33 -2.62,3.27 -1.94,0 -1.9,2.87 0,3 1.9,0.13 3.87,0.35 5.83,0.68 1.96,0.33 2.7,-2.59 0.79,-2.9 -2.2,-0.36 -4.39,-0.62 -6.62,-0.78 v 3 a 14.2,14.2 0 0 0 4.37,-0.21 1.5,1.5 0 0 0 1,-1.05 c 0.64,-2.79 0.2,-6.12 0.2,-9 v -11.11 h -3 a 10.75,10.75 0 0 1 -5.11,10 c -1.64,1 -0.14,3.61 1.51,2.59 z"
     id="path35430" />
  <path
     d="m 1105.81,565.6 c -1.5,7.34 -2.62,14.9 -5.49,21.86 -0.67,1.62 1.87,2.52 2.74,1.15 l 0.63,-1 c 1,-1.64 -1.56,-3.14 -2.59,-1.52 l -0.63,1 2.75,1.15 c 2.86,-7 4,-14.52 5.48,-21.85 0.39,-1.88 -2.5,-2.69 -2.89,-0.8 z"
     id="path35432" />
  <path
     d="m 1114.14,581.9 a 18.56,18.56 0 0 0 6.9,-14.58 c 0,-1.94 -2.89,-1.91 -3,0 l -0.67,11.38 c -0.09,1.57 0,3.33 -0.29,4.88 -0.41,2.57 -0.51,2.66 -3.06,2.64 v 3 h 7.6 a 1.5,1.5 0 0 0 0,-3 h -7.6 a 1.5,1.5 0 0 0 0,3 c 3.39,0 5.47,0.52 5.92,-3.2 0.74,-6.16 0.73,-12.51 1.1,-18.7 h -3 a 15.76,15.76 0 0 1 -6,12.46 c -1.5,1.22 0.63,3.33 2.12,2.12 z"
     id="path35434" />
  <path
     d="m 1077.38,334.31 c -2.85,0.19 -5.77,0.29 -8.63,0.47 -1.82,0.14 -4,-0.08 -5.71,0.46 -3.26,1.09 -2.88,4.35 -2.69,7.21 0.81,11.65 1.52,23.37 1.93,35.06 0.78,22.91 0.54,45.87 -0.57,68.83 a 1.19,1.19 0 0 0 1.37,1.24 c 8,-0.54 16,-1 24.08,-1.54 1.51,-0.08 1.11,-2.4 -0.4,-2.32 -8,0.54 -16,1 -24.08,1.53 0.43,0.44 0.94,0.88 1.37,1.24 q 1.53,-30.66 0.77,-61.32 c -0.22,-9.55 -0.61,-19.11 -1.23,-28.62 -0.14,-2.54 -0.28,-5.07 -0.49,-7.69 -0.16,-2.38 -0.82,-5.27 -0.58,-7.61 0.47,-4.76 3.86,-4 7.27,-4.24 2.61,-0.13 5.3,-0.25 7.92,-0.47 1.57,0 1.18,-2.32 -0.33,-2.23 z"
     id="path35436" />
  <path
     d="m 1128.3,335.52 c 4.7,0.38 9.31,0.82 14,1.19 l -1,-1.14 a 409.82,409.82 0 0 0 -2,60.37 q 0.54,14.61 2.23,29.1 l 0.83,6.8 c 0.32,2.58 1.5,5.94 -0.12,8.07 -1.62,2.13 -5.34,2.06 -8.12,2.47 l -8.57,1.44 a 1.07,1.07 0 1 0 0.44,2.09 c 5.32,-0.85 11.44,-1.14 16.53,-2.78 3.29,-1.09 3.09,-3.37 2.71,-6.24 -1.29,-11.51 -2.73,-23 -3.32,-34.57 a 405.23,405.23 0 0 1 1.76,-66.56 1.12,1.12 0 0 0 -1,-1.15 c -4.69,-0.38 -9.31,-0.82 -14,-1.2 a 1.07,1.07 0 1 0 -0.25,2.11 z"
     id="path35438" />
  <path
     d="m 1079.95,351.92 c -2.9,3.69 -1.1,9.1 3.22,10.85 5.81,2.36 12.67,-2.74 15,-7.9 2.38,-5.35 -1.45,-10 -6.83,-10.87 a 12.43,12.43 0 0 0 -13.15,7.09 c -0.77,1.75 1.81,3.28 2.59,1.52 a 9.3,9.3 0 0 1 6.2,-5.41 c 3,-0.83 8.66,-0.15 9,4 0.31,3.78 -4.22,7.68 -7.43,8.72 -2,0.65 -4.15,0.58 -5.69,-1 -1.26,-1.25 -2,-3.36 -0.74,-4.93 1.26,-1.57 -0.93,-3.63 -2.12,-2.12 z"
     id="path35440" />
  <path
     d="m 1109.05,341.96 a 43,43 0 0 0 -10.3,20.67 c -0.37,1.89 2.52,2.69 2.89,0.8 a 40.06,40.06 0 0 1 9.53,-19.35 c 1.28,-1.44 -0.83,-3.56 -2.12,-2.12 z"
     id="path35442" />
  <path
     d="m 1115.23,350.14 c 0.26,-1.71 0.77,-4.37 2.64,-5 1.27,-0.44 1.26,0.77 1.29,2.07 a 11.58,11.58 0 0 1 -0.64,3.5 c -1,3.42 -3.38,6.26 -5.72,8.88 a 1.52,1.52 0 0 0 0.67,2.51 65.53,65.53 0 0 0 14.12,1 c 1.93,-0.07 1.94,-3.07 0,-3 a 62,62 0 0 1 -13.33,-0.9 l 0.66,2.5 c 3.85,-4.31 9.48,-11.82 6.9,-18.07 -0.91,-2.21 -3.15,-2.37 -5.14,-1.38 -2.68,1.33 -3.92,4.31 -4.34,7.1 -0.28,1.89 2.61,2.7 2.89,0.8 z"
     id="path35444" />
  <path
     d="m 1077.38,484.31 c -2.85,0.19 -5.77,0.29 -8.63,0.47 -1.82,0.14 -4,-0.08 -5.71,0.46 -3.26,1.09 -2.88,4.35 -2.69,7.21 0.81,11.65 1.52,23.37 1.93,35.06 0.78,22.91 0.54,45.87 -0.57,68.83 a 1.19,1.19 0 0 0 1.37,1.24 c 8,-0.54 16,-1 24.08,-1.54 1.51,-0.08 1.11,-2.4 -0.4,-2.32 -8,0.54 -16,1 -24.08,1.53 0.43,0.44 0.94,0.88 1.37,1.24 q 1.53,-30.66 0.77,-61.32 c -0.22,-9.55 -0.61,-19.11 -1.23,-28.62 -0.14,-2.54 -0.28,-5.07 -0.49,-7.69 -0.16,-2.38 -0.82,-5.27 -0.58,-7.61 0.47,-4.76 3.86,-4 7.27,-4.24 2.61,-0.13 5.3,-0.25 7.92,-0.47 1.57,0 1.18,-2.32 -0.33,-2.23 z"
     id="path35446" />
  <path
     d="m 1128.3,485.52 c 4.7,0.38 9.31,0.82 14,1.19 l -1,-1.14 a 409.82,409.82 0 0 0 -2,60.37 q 0.54,14.61 2.23,29.1 l 0.83,6.8 c 0.32,2.58 1.5,5.94 -0.12,8.07 -1.62,2.13 -5.34,2.06 -8.12,2.47 l -8.57,1.44 a 1.07,1.07 0 1 0 0.44,2.09 c 5.32,-0.85 11.44,-1.14 16.53,-2.78 3.29,-1.09 3.09,-3.37 2.71,-6.24 -1.29,-11.51 -2.73,-23 -3.32,-34.57 a 405.23,405.23 0 0 1 1.76,-66.56 1.12,1.12 0 0 0 -1,-1.15 c -4.69,-0.38 -9.31,-0.82 -14,-1.2 a 1.07,1.07 0 1 0 -0.25,2.11 z"
     id="path35448" />
  <path
     d="m 1079.95,501.92 c -2.9,3.69 -1.1,9.1 3.22,10.85 5.81,2.36 12.67,-2.74 15,-7.9 2.38,-5.35 -1.45,-10 -6.83,-10.87 a 12.43,12.43 0 0 0 -13.15,7.09 c -0.77,1.75 1.81,3.28 2.59,1.52 a 9.3,9.3 0 0 1 6.2,-5.41 c 3,-0.83 8.66,-0.15 9,4 0.31,3.78 -4.22,7.68 -7.43,8.72 -2,0.65 -4.15,0.58 -5.69,-1 -1.26,-1.25 -2,-3.36 -0.74,-4.93 1.26,-1.57 -0.93,-3.63 -2.12,-2.12 z"
     id="path35450" />
  <path
     d="m 1109.05,491.96 a 43,43 0 0 0 -10.3,20.67 c -0.37,1.89 2.52,2.69 2.89,0.8 a 40.06,40.06 0 0 1 9.53,-19.35 c 1.28,-1.44 -0.83,-3.56 -2.12,-2.12 z"
     id="path35452" />
  <path
     d="m 1115.23,500.14 c 0.26,-1.71 0.77,-4.37 2.64,-5 1.27,-0.44 1.26,0.77 1.29,2.07 a 11.58,11.58 0 0 1 -0.64,3.5 c -1,3.42 -3.38,6.26 -5.72,8.88 a 1.52,1.52 0 0 0 0.67,2.51 65.53,65.53 0 0 0 14.12,1 c 1.93,-0.07 1.94,-3.07 0,-3 a 62,62 0 0 1 -13.33,-0.9 l 0.66,2.5 c 3.85,-4.31 9.48,-11.82 6.9,-18.07 -0.91,-2.21 -3.15,-2.37 -5.14,-1.38 -2.68,1.33 -3.92,4.31 -4.34,7.1 -0.28,1.89 2.61,2.7 2.89,0.8 z"
     id="path35454" />
  <path
     d="m 1086.81,542.26 a 15.57,15.57 0 0 0 7.27,-11.88 c 0.21,-1.93 -2.77,-1.89 -3,0 q -1.17,9.4 -1.68,18.87 l 1.5,-1.5 a 8.31,8.31 0 0 0 -3.92,1.15 1.52,1.52 0 0 0 0.76,2.8 l 6.16,0.07 c 1.93,0 1.93,-3 0,-3 l -6.16,-0.07 0.76,2.79 2.4,-0.74 a 1.55,1.55 0 0 0 1.5,-1.5 q 0.51,-9.47 1.68,-18.87 h -3 a 12.31,12.31 0 0 1 -5.79,9.29 c -1.61,1.05 -0.11,3.65 1.52,2.59 z"
     id="path35456" />
  <path
     d="m 1105.7,528.83 a 142.94,142.94 0 0 1 -6.67,21.9 c -0.71,1.79 2.19,2.57 2.89,0.8 a 144.1,144.1 0 0 0 6.68,-21.9 c 0.41,-1.88 -2.48,-2.68 -2.9,-0.8 z"
     id="path35458" />
  <path
     d="m 1116,533.91 q 4.47,-1.87 2.71,2.09 a 6,6 0 0 1 -3.14,2.29 c -1.2,0.47 -1.63,2.64 0,2.89 2.46,0.38 5.37,2.21 4.36,5.22 -1.62,4.81 -6.81,1.56 -7.93,-1.25 -0.71,-1.77 -3.61,-1 -2.89,0.8 1.9,4.76 8.17,8.33 12.37,3.67 4.2,-4.66 0,-10.54 -5.11,-11.33 v 2.85 c 4,-1.56 8,-6.15 4.53,-10.36 -2.73,-3.27 -8.25,-1.23 -7.9,3.09 0.15,1.91 3.16,1.93 3,0 z"
     id="path35460" />
  <path
     d="m 1083.99,423.94 c -2,5.54 -1,11.58 5.12,14 4.9,2 10.39,-4.8 11.7,-9 1.56,-5 -2.14,-11.19 -7,-12.78 -6.28,-2 -8.13,5.73 -9.61,10 -0.63,1.83 2.27,2.62 2.89,0.8 0.45,-1.31 0.88,-2.64 1.36,-3.95 0.87,-2.38 1,-3.41 3.7,-3.41 4.55,0 7.43,5.75 5.27,9.73 -1.32,2.43 -4.71,6.5 -7.83,5.43 -4.44,-1.53 -3.84,-6.8 -2.65,-10.1 0.65,-1.82 -2.25,-2.6 -2.9,-0.8 z"
     id="path35462" />
  <path
     d="m 1108.96,415.66 -4.49,19.56 c -0.43,1.88 2.46,2.68 2.89,0.79 l 4.5,-19.56 c 0.43,-1.88 -2.46,-2.68 -2.9,-0.79 z"
     id="path35464" />
  <path
     d="m 1116.71,428.79 a 13,13 0 0 0 5.65,-4.58 c 1.67,-2.55 1.09,-5.29 2.33,-7.9 l -2.8,-0.76 a 54.24,54.24 0 0 1 -0.71,10.8 c -0.48,3 -0.31,7.83 -4.19,7.52 -1.7,-0.13 -2,2.54 -0.4,2.95 a 19.52,19.52 0 0 0 7.46,0.49 c 1.9,-0.23 1.92,-3.24 0,-3 a 17.66,17.66 0 0 1 -6.67,-0.38 l -0.39,2.94 c 5.06,0.4 5.25,-0.33 6.26,-5.27 a 67.73,67.73 0 0 0 1.64,-16 c 0,-1.38 -2.12,-2.18 -2.79,-0.75 -0.87,1.83 -0.7,3.53 -1.2,5.46 -0.75,2.89 -3.11,4.76 -5.7,5.94 -1.76,0.8 -0.23,3.38 1.51,2.59 z"
     id="path35466" />
  <path
     d="m 979.89,103.14 c -0.7,8.22 -5,16.32 -7,24.32 -2,8 -3.43,16.12 -4.86,24.24 l 2.95,0.4 -0.13,-1.39 c -0.18,-1.9 -3.18,-1.92 -3,0 l 0.13,1.39 c 0.15,1.54 2.63,2.19 3,0.4 1.53,-8.72 3.06,-17.45 5.3,-26 2,-7.73 6,-15.36 6.66,-23.35 0.16,-1.93 -2.84,-1.92 -3,0 z"
     id="path35468" />
  <path
     d="m 979.99,107.05 6.6,43.43 c 0.27,1.72 2.9,1.22 3,-0.4 l 0.2,-0.57 c 1,-1.64 -1.56,-3.14 -2.59,-1.51 a 3.29,3.29 0 0 0 -0.61,2.08 l 2.95,-0.4 -6.61,-43.43 c -0.29,-1.9 -3.18,-1.09 -2.89,0.8 z"
     id="path35470" />
  <path
     d="m 973.36,135.71 a 65.6,65.6 0 0 1 14,-1.52 1.5,1.5 0 0 0 0,-3 69,69 0 0 0 -14.82,1.63 c -1.89,0.41 -1.09,3.3 0.79,2.89 z"
     id="path35472" />
  <path
     d="m 993.33,103.44 -0.26,48.11 a 1.5,1.5 0 0 0 3,0 l 0.26,-48.11 a 1.5,1.5 0 0 0 -3,0 z"
     id="path35474" />
  <path
     d="m 1000.14,104.35 a 153.19,153.19 0 0 1 0.23,23.66 c -0.52,7.78 1.34,15.38 -0.26,23.09 -0.39,1.89 2.5,2.69 2.89,0.8 1.54,-7.44 -0.18,-14.46 0.23,-21.92 a 176.82,176.82 0 0 0 -0.09,-25.63 c -0.16,-1.9 -3.17,-1.92 -3,0 z"
     id="path35476" />
  <path
     d="m 1006.35,138.24 c 5.65,-0.22 14.84,-2.7 13.58,-10.33 a 6.11,6.11 0 0 0 -10.85,-2.88 c -4,4.85 -4.65,15.06 -2.25,20.69 2.49,5.83 9.48,7.48 14.83,4.67 1.71,-0.9 0.19,-3.49 -1.52,-2.59 a 7.51,7.51 0 0 1 -9,-1.19 c -2.44,-2.47 -2.51,-6.18 -2.39,-9.5 0.05,-1.42 0.25,-8.42 2,-9.09 l 5.59,3.25 a 6.27,6.27 0 0 1 -3.86,2.93 17.26,17.26 0 0 1 -6.09,1 c -1.92,0.08 -1.93,3.08 0,3 z"
     id="path35478" />
  <path
     d="m 1026.07,101.58 c -3,6.26 -1.36,14.73 -1.27,21.47 l 0.39,27.27 c 0,1.93 3,1.94 3,0 l -0.33,-23.37 -0.17,-11.69 c 0,-3.88 -0.77,-8.55 1,-12.16 0.84,-1.73 -1.75,-3.26 -2.59,-1.52 z"
     id="path35480" />
  <path
     d="m 1033.15,140.95 c 5.69,-1.84 12.53,-6.83 9.85,-13.78 -2.11,-5.46 -8.41,-4.84 -10.48,0.21 -1.32,3.22 -1.48,7.38 -1.84,10.81 -0.36,3.43 -0.27,7 1.63,9.9 3,4.59 9.17,5.34 12.51,0.87 1.16,-1.55 -1.45,-3 -2.59,-1.51 -4.11,5.5 -8.43,-2 -8.72,-5.35 a 33.7,33.7 0 0 1 0.66,-7.42 l 0.46,-3.14 q 0,-4.53 5.64,0.17 c 0.32,3.34 -5.63,5.61 -7.92,6.35 -1.83,0.59 -1,3.49 0.8,2.89 z"
     id="path35482" />
  <path
     d="m 1034.08,228.14 a 46.76,46.76 0 0 0 15.63,1.31 c 1.91,-0.16 1.93,-3.17 0,-3 a 44.43,44.43 0 0 1 -14.84,-1.2 c -1.87,-0.47 -2.67,2.42 -0.79,2.89 z"
     id="path36088" />
  <path
     d="m 1035.32,241.62 h 15.19 a 1.5,1.5 0 0 0 0,-3 h -15.19 a 1.5,1.5 0 0 0 0,3 z"
     id="path36090" />
  <path
     d="m 1039.52,388.22 12.71,-1.13 c 1.91,-0.17 1.93,-3.17 0,-3 l -12.71,1.13 c -1.9,0.16 -1.92,3.17 0,3 z"
     id="path36092" />
  <path
     d="m 1037.01,399.35 17.71,1.07 c 1.93,0.11 1.92,-2.89 0,-3 l -17.71,-1.07 c -1.92,-0.12 -1.92,2.88 0,3 z"
     id="path36094" />
  <path
     d="m 1038.22,538.41 10.22,-2 c 1.89,-0.38 1.09,-3.28 -0.79,-2.9 l -10.23,2.06 c -1.89,0.37 -1.09,3.27 0.8,2.89 z"
     id="path36096" />
  <path
     d="m 1037.01,547.06 h 13.5 a 1.5,1.5 0 0 0 0,-3 h -13.5 a 1.5,1.5 0 0 0 0,3 z"
     id="path36098" />
  <metadata
     id="metadata38672">
    <rdf:RDF>
      <cc:Work
         rdf:about="">
        <dc:title>hmm</dc:title>
      </cc:Work>
    </rdf:RDF>
  </metadata>
  <g
     id="g1699"
     transform="translate(424.03591,60.597634)">
		<g
   id="g1686">
			<g
   id="g1685">
				<path
   d="m 661.4,56 c 1.1,-4.8 0.9,-13.8 -6.3,-12.8 -7.6,1.1 -11.1,12 -12.6,18.2 -2,8.1 -3.8,18.6 1.4,25.9 5.3,7.4 12.6,3 17.9,-1.8 1.4,-1.3 -0.7,-3.4 -2.1,-2.1 -2.5,2.3 -6.8,6.7 -10.9,4.5 -2.5,-1.3 -3.9,-4.5 -4.6,-7.1 -1.4,-5.2 -0.5,-11.1 0.6,-16.3 0.9,-4.4 2.2,-8.9 4.6,-12.7 1.2,-1.9 5.6,-8.4 8.9,-4.3 1.5,1.8 0.7,5.6 0.2,7.7 -0.4,1.9 2.5,2.7 2.9,0.8 z"
   id="path1684" />

			</g>

		</g>

		<g
   id="g1688">
			<g
   id="g1687">
				<path
   d="m 665.8,78.5 c -1,4.9 0.5,13.4 7.3,12.4 5.9,-0.9 8.8,-9.3 8.6,-14.4 -0.2,-4.6 -3.2,-12.5 -8.9,-12.5 -7.1,0.1 -9.1,11.6 -9.5,16.8 -0.1,1.8 2.7,1.8 2.8,0 0.2,-3.6 1,-7.3 2.8,-10.5 3.3,-5.7 8.3,-1.5 9.5,3 0.8,3 0.6,6.1 -0.5,8.9 -0.4,1.1 -1.4,3.7 -2.6,4.2 -2.3,-0.7 -4.6,-1.3 -6.9,-2 -0.4,-1.8 -0.4,-3.5 0.1,-5.3 0.3,-1.6 -2.4,-2.4 -2.7,-0.6 z"
   id="path1686" />

			</g>

		</g>

		<g
   id="g1690">
			<g
   id="g1689">
				<path
   d="m 685.6,64.6 c -2,5.5 -2.9,11.4 -2.4,17.3 0.3,3.1 0.8,8 4.5,8.9 8.7,2.1 10.9,-17.8 11.1,-23 -0.9,0 -1.9,0 -2.8,0 0.1,7.5 1.1,14.9 2.9,22.2 0.4,1.7 3.1,1 2.7,-0.7 -1.7,-7.1 -2.6,-14.2 -2.8,-21.5 0,-1.8 -2.7,-1.8 -2.8,0 0,2.1 -3.4,24 -8.8,19.3 -1.9,-1.7 -1.4,-7.9 -1.3,-10.4 0.2,-3.9 1,-7.6 2.4,-11.3 0.6,-1.8 -2.1,-2.5 -2.7,-0.8 z"
   id="path1688" />

			</g>

		</g>

		<g
   id="g1692">
			<g
   id="g1691">
				<path
   d="m 703.1,65.6 c 0.4,8.3 0.7,16.7 1.1,25 0.9,0 1.9,0 2.8,0 -0.4,-4.5 -0.2,-9 0.7,-13.4 0.5,-2.5 3.7,-13 7.5,-8.9 1.5,1.5 1,9.2 1,11.2 0.1,3.5 0.1,7.1 0,10.6 -0.1,1.8 2.7,1.8 2.8,0 0.2,-6.1 0.1,-12.2 -0.5,-18.3 -0.3,-2.7 -0.3,-7.5 -4,-7.6 -3.6,-0.1 -6.8,4 -8,6.9 -2.5,6.1 -2.9,13 -2.4,19.5 0.1,1.8 2.9,1.8 2.8,0 -0.4,-8.3 -0.7,-16.7 -1.1,-25 0,-1.8 -2.8,-1.8 -2.7,0 z"
   id="path1690" />

			</g>

		</g>

		<g
   id="g1694">
			<g
   id="g1693">
				<path
   d="m 725.3,45.5 c -0.3,6.5 -0.6,13 -0.6,19.4 -0.1,5.9 -0.6,12.2 0.4,18 0.9,5.2 7.1,10.6 9.6,3.2 0.6,-1.8 -2.3,-2.6 -2.9,-0.8 -2.4,0.1 -3.7,-0.7 -3.6,-2.6 -0.2,-0.9 -0.3,-1.8 -0.3,-2.7 -0.1,-1.1 -0.1,-2.3 -0.1,-3.4 -0.1,-3.6 -0.1,-7.1 -0.1,-10.7 0.1,-6.8 0.3,-13.6 0.6,-20.4 0.1,-1.9 -2.9,-1.9 -3,0 z"
   id="path1692" />

			</g>

		</g>

		<g
   id="g1696">
			<g
   id="g1695">
				<path
   d="m 720.4,66.4 c 4.4,-0.4 8.7,-0.5 13,0 1.9,0.2 1.9,-2.8 0,-3 -4.4,-0.4 -8.7,-0.4 -13,0 -1.9,0.2 -1.9,3.2 0,3 z"
   id="path1694" />

			</g>

		</g>

		<g
   id="g1698">
			<g
   id="g1697">
				<path
   d="m 748.9,67.2 c -4.1,-4.4 -11.7,-1.1 -11,5 0.3,3 2.7,5.3 5.2,6.7 2.2,1.2 4.9,1.4 6.1,3.9 2.9,5.8 -9,8.2 -9.2,1.1 -0.1,-1.8 -2.8,-1.8 -2.8,0 0.2,6.1 9.7,10.3 13.9,5.4 2,-2.3 1.5,-6.5 0.1,-9 -0.6,-1 -1.2,-1.5 -2.3,-2 -1.7,-0.9 -3.5,-0.9 -5.2,-2.1 -0.8,-0.8 -1.6,-1.5 -2.5,-2.3 -1.2,-5.1 0.6,-6.6 5.6,-4.7 1.3,1.3 3.3,-0.7 2.1,-2 z"
   id="path1696" />

			</g>

		</g>

	</g>
</svg>
