<?xml version="1.0" encoding="UTF-8" standalone="no"?>
<svg
   viewBox="0 0 1240 607.74"
   version="1.1"
   id="svg36235"
   sodipodi:docname="8.svg"
   width="1240"
   height="607.73999"
   inkscape:version="1.2.2 (1:1.2.2+202212051552+b0a8486541)"
   xmlns:inkscape="http://www.inkscape.org/namespaces/inkscape"
   xmlns:sodipodi="http://sodipodi.sourceforge.net/DTD/sodipodi-0.dtd"
   xmlns="http://www.w3.org/2000/svg"
   xmlns:svg="http://www.w3.org/2000/svg"
   xmlns:rdf="http://www.w3.org/1999/02/22-rdf-syntax-ns#"
   xmlns:cc="http://creativecommons.org/ns#"
   xmlns:dc="http://purl.org/dc/elements/1.1/">
  <sodipodi:namedview
     id="namedview36237"
     pagecolor="#ffffff"
     bordercolor="#000000"
     borderopacity="0.25"
     inkscape:showpageshadow="2"
     inkscape:pageopacity="0.0"
     inkscape:pagecheckerboard="0"
     inkscape:deskcolor="#d1d1d1"
     showgrid="false"
     inkscape:zoom="0.38832396"
     inkscape:cx="642.50478"
     inkscape:cy="265.24245"
     inkscape:window-width="1223"
     inkscape:window-height="779"
     inkscape:window-x="57"
     inkscape:window-y="21"
     inkscape:window-maximized="1"
     inkscape:current-layer="svg36235" />
  <defs
     id="defs35209">
    <style
       id="style35198">.cls-1,.cls-11,.cls-13,.cls-20,.cls-21,.cls-22,.cls-6,.cls-7,.cls-8,.cls-9{fill:none;}.cls-10,.cls-18,.cls-2{fill:#1f77b4;}.cls-2,.cls-3,.cls-4{opacity:0.3;}.cls-12,.cls-16,.cls-3{fill:#ff7f0e;}.cls-14,.cls-19,.cls-4{fill:#2ca02c;}.cls-5{clip-path:url(#clip-path);}.cls-11,.cls-6{stroke:#ff7f0e;}.cls-20,.cls-6,.cls-7,.cls-8{stroke-linejoin:round;}.cls-6,.cls-7,.cls-8{stroke-dasharray:3.7 1.6;}.cls-7,.cls-9{stroke:#1f77b4;}.cls-13,.cls-8{stroke:#2ca02c;}.cls-11,.cls-13,.cls-21,.cls-22,.cls-9{stroke-miterlimit:10;}.cls-10,.cls-12,.cls-14{opacity:0.5;}.cls-15{clip-path:url(#clip-path-13);}.cls-17{clip-path:url(#clip-path-14);}.cls-20,.cls-21,.cls-22{stroke:#000;}.cls-20,.cls-21{stroke-width:3px;}.cls-21{stroke-linecap:square;}.cls-22{stroke-width:4px;}</style>
    <clipPath
       id="clip-path"
       transform="translate(-8.19 -3.86)">
      <rect
         class="cls-1"
         x="1981.51"
         y="138"
         width="285.54001"
         height="354.03"
         id="rect35200" />
    </clipPath>
    <clipPath
       id="clip-path-13"
       transform="translate(-8.19 -3.86)">
      <rect
         class="cls-1"
         x="1981.51"
         y="140"
         width="285.54001"
         height="354.03"
         id="rect35203" />
    </clipPath>
    <clipPath
       id="clip-path-14"
       transform="translate(-8.19 -3.86)">
      <rect
         class="cls-1"
         x="1981.51"
         y="136"
         width="285.54001"
         height="354.03"
         id="rect35206" />
    </clipPath>
  </defs>
  <title
     id="title35211">hmm</title>
  <path
     d="m 700.67,281.69 v -0.23 a 1.53,1.53 0 0 0 -1.1,-1.44 l -0.26,-0.05 a 1.55,1.55 0 0 0 -1.85,1.05 c -0.78,2.68 -0.07,6 0,8.81 q 0.14,6.38 0.15,12.75 0,12.26 -0.35,24.5 c -0.06,1.94 2.94,1.93 3,0 q 0.35,-11.26 0.35,-22.54 c 0,-3.6 0,-7.19 -0.08,-10.79 0,-3.43 -1.12,-8.63 -0.16,-11.93 l -1.84,1 h 0.26 l -1.1,-1.45 v 0.23 c 0.18,1.91 3.18,1.93 3,0 z"
     id="path36206" />
  <path
     d="m 700.73,284.59 c 6,-1.72 12.59,2 12.66,8.75 0.07,7.06 -6.78,10 -12.46,12 -1.81,0.62 -1.06,3.47 0.8,2.89 4.43,-1.39 9,-1.91 12,2.3 a 19.33,19.33 0 0 1 3.27,8.59 c 1.24,10.27 -11.68,10.51 -19,9.48 -1.89,-0.27 -2.71,2.62 -0.8,2.89 8.92,1.26 23.93,0.54 22.88,-11.84 a 21.42,21.42 0 0 0 -5.27,-12.51 c -3.95,-4.1 -8.92,-3.4 -13.92,-1.83 l 0.8,2.89 c 7.83,-2.68 16.28,-7.53 14.44,-17.22 -1.43,-7.5 -9.2,-11.31 -16.24,-9.3 a 1.5,1.5 0 0 0 0.8,2.89 z"
     id="path36208" />
  <path
     d="m 762.81,281.72 c -3.14,8.36 -3.81,17.12 -3.81,26 a 97.33,97.33 0 0 0 0.46,12.78 21.74,21.74 0 0 0 1.18,5 c 0.15,0.4 1.53,3.53 1.62,2.9 l 1.84,-1.05 -0.35,-0.07 1,1.85 0.06,-0.25 c 0.4,-1.88 -2.49,-2.69 -2.9,-0.8 v 0.25 a 1.53,1.53 0 0 0 1,1.85 l 0.35,0.07 a 1.51,1.51 0 0 0 1.84,-1.05 c 0.32,-2.17 -1.51,-3.95 -2.11,-6 -1.29,-4.34 -1,-9.23 -1,-13.72 -0.07,-9.21 0.43,-18.29 3.69,-27 0.68,-1.81 -2.22,-2.59 -2.89,-0.79 z"
     id="path36210" />
  <path
     d="m 648.32,304.29 c -1.6,-4 -5.72,-7.07 -10.15,-5.1 -4.43,1.97 -6.05,8.35 -6.69,12.77 -0.83,5.7 0,12.65 4.94,16.39 a 8.63,8.63 0 0 0 12.15,-1.39 c 1.23,-1.48 -0.88,-3.61 -2.12,-2.12 -6.48,7.78 -12.3,-3.44 -12.3,-9.2 a 26.56,26.56 0 0 1 1.44,-8.22 c 1.44,-4.32 7.17,-9.06 9.84,-2.33 0.7,1.77 3.61,1 2.89,-0.8 z"
     id="path36212" />
  <path
     d="m 659.6,313.91 c 1.65,-1.91 3.33,-3.8 5.07,-5.63 2,-2.13 1.47,-2.26 2.9,0.32 1.71,3.07 3.58,6.44 7.13,7.63 7.11,2.39 10.91,-5.34 12.62,-10.77 a 1.52,1.52 0 0 0 -2.2,-1.7 l -0.63,0.34 c -1.7,0.92 -0.19,3.51 1.51,2.59 l 0.63,-0.34 -2.2,-1.69 c -0.71,2.26 -1.48,5.85 -3.57,7.24 l -6,1.11 a 9.66,9.66 0 0 1 -3.41,-3.68 c -1,-1.61 -1.84,-4.92 -3.71,-5.72 -3.75,-1.61 -8.28,5.94 -10.22,8.18 -1.25,1.45 0.86,3.58 2.13,2.12 z"
     id="path36214" />
  <path
     d="m 771.48,302.53 0.07,28 c 0,2 2.83,1.9 3,0 0.67,-7.66 1.14,-20.73 7.68,-26.35 5.75,-4.95 5,7.57 5,10.14 v 13.75 a 1.5,1.5 0 0 0 3,0 c 0,-7.22 1,-15.2 -0.24,-22.33 -0.52,-3 -2.2,-7.65 -6.13,-6.64 -4.11,1.05 -7,7.33 -8.41,10.82 -2.69,6.54 -3.31,13.64 -3.92,20.61 h 3 l -0.07,-28 a 1.5,1.5 0 0 0 -3,0 z"
     id="path36216" />
  <path
     d="m 795.3,327.48 a 6.27,6.27 0 0 1 -0.84,5.93 c -1.11,1.58 1.49,3.08 2.59,1.51 a 9.08,9.08 0 0 0 1.14,-8.23 c -0.64,-1.81 -3.54,-1 -2.89,0.79 z"
     id="path36218" />
  <path
     d="m 801.53,301.14 15.16,29.17 a 1.51,1.51 0 0 0 2.74,-0.36 l 0.39,-1.29 c 0.57,-1.85 -2.33,-2.64 -2.89,-0.8 l -0.39,1.3 2.74,-0.36 -15.16,-29.17 c -0.89,-1.71 -3.48,-0.2 -2.59,1.51 z"
     id="path36220" />
  <path
     d="m 817.16,300.58 q -7.53,14.4 -14.14,29.23 c -0.78,1.75 1.81,3.28 2.59,1.52 q 6.62,-14.85 14.14,-29.23 c 0.89,-1.71 -1.7,-3.23 -2.59,-1.52 z"
     id="path36222" />
  <path
     d="m 821.25,280.08 c 4.24,7.63 10.64,16 11.39,25 0.75,9 -3.44,17.59 -8,25 -1,1.65 1.57,3.16 2.59,1.52 4.9,-7.9 9.15,-17 8.45,-26.53 -0.7,-9.53 -7.27,-18.32 -11.8,-26.47 -0.94,-1.69 -3.54,-0.18 -2.59,1.51 z"
     id="path36224" />
  <path
     d="m 725.11,299.41 c -0.09,9.65 -1.08,19.75 0.75,29.27 0.37,1.89 3.26,1.09 2.89,-0.8 -1.76,-9.18 -0.73,-19.16 -0.64,-28.47 a 1.5,1.5 0 0 0 -3,0 z"
     id="path36226" />
  <path
     d="m 726.39,287.08 a 2.74,2.74 0 0 0 -0.43,1.57 1.86,1.86 0 0 0 1.32,1.7 c 1.23,0.3 2.83,-0.77 2.28,-2.17 a 1.54,1.54 0 0 0 -1.84,-1.05 1.51,1.51 0 0 0 -1,1.85 v -0.26 l 0.21,-0.75 a 1.11,1.11 0 0 1 1.72,-0.25 l 0.39,0.66 c 0,0.11 -0.15,0.52 0,0.21 a 1.5,1.5 0 1 0 -2.59,-1.51 z"
     id="path36228" />
  <path
     d="m 734.09,298.32 a 175.21,175.21 0 0 1 0.92,29.82 1.51,1.51 0 0 0 2.26,1.29 l 0.86,-0.64 c 1.53,-1.14 0,-3.74 -1.51,-2.59 l -0.87,0.64 2.26,1.3 a 175.21,175.21 0 0 0 -0.92,-29.86 c -0.22,-1.9 -3.22,-1.92 -3,0 z"
     id="path36230" />
  <path
     d="m 739.21,309.69 c 1.11,-2.78 3.09,-7.15 5.81,-8.74 4.24,-2.49 4.87,5 5.08,7.74 0.51,6.64 -0.12,13.46 -0.29,20.1 0,1.93 3,1.93 3,0 0.16,-6.15 0.59,-12.35 0.37,-18.5 -0.15,-4.12 -0.67,-9.4 -3.62,-12.58 -5.07,-5.46 -11.82,7.61 -13.25,11.18 -0.72,1.79 2.19,2.57 2.9,0.8 z"
     id="path36232" />
  <metadata
     id="metadata38672">
    <rdf:RDF>
      <cc:Work
         rdf:about="">
        <dc:title>hmm</dc:title>
      </cc:Work>
    </rdf:RDF>
  </metadata>
</svg>
