<?xml version="1.0" encoding="UTF-8" standalone="no"?>
<svg
   viewBox="0 0 1240 607.74"
   version="1.1"
   id="svg36235"
   sodipodi:docname="time.svg"
   width="1240"
   height="607.73999"
   inkscape:version="1.2.2 (1:1.2.2+202212051552+b0a8486541)"
   xmlns:inkscape="http://www.inkscape.org/namespaces/inkscape"
   xmlns:sodipodi="http://sodipodi.sourceforge.net/DTD/sodipodi-0.dtd"
   xmlns="http://www.w3.org/2000/svg"
   xmlns:svg="http://www.w3.org/2000/svg"
   xmlns:rdf="http://www.w3.org/1999/02/22-rdf-syntax-ns#"
   xmlns:cc="http://creativecommons.org/ns#"
   xmlns:dc="http://purl.org/dc/elements/1.1/">
  <sodipodi:namedview
     id="namedview36237"
     pagecolor="#ffffff"
     bordercolor="#000000"
     borderopacity="0.25"
     inkscape:showpageshadow="2"
     inkscape:pageopacity="0.0"
     inkscape:pagecheckerboard="0"
     inkscape:deskcolor="#d1d1d1"
     showgrid="false"
     inkscape:zoom="0.38832396"
     inkscape:cx="704.30885"
     inkscape:cy="193.13771"
     inkscape:window-width="1223"
     inkscape:window-height="779"
     inkscape:window-x="57"
     inkscape:window-y="21"
     inkscape:window-maximized="1"
     inkscape:current-layer="svg36235" />
  <defs
     id="defs35209">
    <style
       id="style35198">.cls-1,.cls-11,.cls-13,.cls-20,.cls-21,.cls-22,.cls-6,.cls-7,.cls-8,.cls-9{fill:none;}.cls-10,.cls-18,.cls-2{fill:#1f77b4;}.cls-2,.cls-3,.cls-4{opacity:0.3;}.cls-12,.cls-16,.cls-3{fill:#ff7f0e;}.cls-14,.cls-19,.cls-4{fill:#2ca02c;}.cls-5{clip-path:url(#clip-path);}.cls-11,.cls-6{stroke:#ff7f0e;}.cls-20,.cls-6,.cls-7,.cls-8{stroke-linejoin:round;}.cls-6,.cls-7,.cls-8{stroke-dasharray:3.7 1.6;}.cls-7,.cls-9{stroke:#1f77b4;}.cls-13,.cls-8{stroke:#2ca02c;}.cls-11,.cls-13,.cls-21,.cls-22,.cls-9{stroke-miterlimit:10;}.cls-10,.cls-12,.cls-14{opacity:0.5;}.cls-15{clip-path:url(#clip-path-13);}.cls-17{clip-path:url(#clip-path-14);}.cls-20,.cls-21,.cls-22{stroke:#000;}.cls-20,.cls-21{stroke-width:3px;}.cls-21{stroke-linecap:square;}.cls-22{stroke-width:4px;}</style>
    <clipPath
       id="clip-path"
       transform="translate(-8.19 -3.86)">
      <rect
         class="cls-1"
         x="1981.51"
         y="138"
         width="285.54001"
         height="354.03"
         id="rect35200" />
    </clipPath>
    <clipPath
       id="clip-path-13"
       transform="translate(-8.19 -3.86)">
      <rect
         class="cls-1"
         x="1981.51"
         y="140"
         width="285.54001"
         height="354.03"
         id="rect35203" />
    </clipPath>
    <clipPath
       id="clip-path-14"
       transform="translate(-8.19 -3.86)">
      <rect
         class="cls-1"
         x="1981.51"
         y="136"
         width="285.54001"
         height="354.03"
         id="rect35206" />
    </clipPath>
  </defs>
  <title
     id="title35211">hmm</title>
  <path
     d="m 81.28,167.14 c 0.36,56.15 1.11,112.32 1.77,168.47 0.66,55.28 -0.45,110.58 -0.15,165.87 q 0.25,47.59 1.18,95.19 c 0,1.93 3,1.93 3,0 -2.16,-111.34 -0.42,-222.69 -1.56,-334 -0.33,-31.84 -1,-63.67 -1.24,-95.5 a 1.5,1.5 0 0 0 -3,0 z"
     id="path35354" />
  <path
     d="m 1.59,128.06 a 98.74,98.74 0 0 0 0,35.38 c 0.35,1.89 3.24,1.09 2.9,-0.8 a 94.22,94.22 0 0 1 0,-33.78 c 0.34,-1.89 -2.55,-2.7 -2.89,-0.8 z"
     id="path35356" />
  <path
     d="m 4.66,132.7 c 4.24,-4.13 7.73,4.32 7.48,7.51 -0.33,4.29 -4.5,8 -8.7,5.69 a 1.5015409,1.5015409 0 0 0 -1.52,2.59 c 6.63,3.7 13.36,-2.3 13.25,-9.21 -0.1,-5.86 -6.69,-14.49 -12.63,-8.7 -1.39,1.35 0.74,3.47 2.12,2.12 z"
     id="path35358" />
  <path
     d="m 32.6,144.85 a 6.67,6.67 0 0 0 -9.62,-5.8 c -5,2.32 -9.63,10.11 -9.41,15.63 a 6.84,6.84 0 0 0 9.6,6.31 c 6.58,-2.57 7,-10.78 7.24,-16.78 0.06,-1.94 -2.86,-1.9 -3,0 a 38.57,38.57 0 0 0 3.31,18.86 c 0.79,1.76 3.37,0.24 2.6,-1.51 a 35.63,35.63 0 0 1 -2.91,-17.35 h -3 c -0.1,3.16 -0.16,6.45 -1.35,9.42 -1.4,3.49 -8.5,8.81 -9.49,1 -0.33,-2.58 1.38,-5.6 2.71,-7.68 a 17.81,17.81 0 0 1 3.2,-4 c 2.27,-1.91 6.89,-2.66 7.12,1.88 0.1,1.92 3.1,1.93 3,0 z"
     id="path35360" />
  <path
     d="m 48.23,142.14 c -2.8,-6 -11.75,-5.72 -13.18,1.14 a 8.59,8.59 0 0 0 2.8,8.39 9.45,9.45 0 0 0 4.19,1.54 8.66,8.66 0 0 1 2.82,0.54 q 3.2,5.31 -2.41,5.27 a 19.46,19.46 0 0 1 -3.54,-0.78 1.51,1.51 0 0 0 -0.8,2.9 c 3.22,0.9 7,1.65 9.66,-1 a 5.69,5.69 0 0 0 0.85,-7.43 c -2.1,-2.74 -5.85,-1.68 -8.49,-3.3 a 5.35,5.35 0 0 1 -1.56,-7.12 c 2.05,-3.05 5.85,-1.3 7.07,1.33 0.82,1.75 3.4,0.23 2.59,-1.52 z"
     id="path35362" />
  <path
     d="m 56.5,123.37 a 105.69,105.69 0 0 0 -0.59,31.71 c 0.71,4.84 4.45,12 10,7.27 1.47,-1.25 -0.66,-3.37 -2.12,-2.12 -1.46,1.25 -4.15,-2 -4.49,-3.26 a 34.56,34.56 0 0 1 -0.74,-5.18 c -0.31,-2.89 -0.47,-5.8 -0.53,-8.71 a 108.08,108.08 0 0 1 1.36,-18.94 c 0.3,-1.88 -2.59,-2.7 -2.89,-0.79 z"
     id="path35364" />
  <path
     d="m 50.13,145.67 a 36.71,36.71 0 0 1 13.74,-0.34 c 1.89,0.32 2.7,-2.57 0.8,-2.89 a 40.6,40.6 0 0 0 -15.34,0.34 c -1.88,0.41 -1.09,3.3 0.8,2.89 z"
     id="path35366" />
  <path
     d="m 4.67,569.91 0.1,33.07 a 1.5,1.5 0 0 0 3,0 l -0.1,-33.07 a 1.5,1.5 0 0 0 -3,0 z"
     id="path35368" />
  <path
     d="m 7.12,572.31 12.92,27.83 c 0.71,1.52 2.63,0.52 2.8,-0.76 a 286.92,286.92 0 0 0 2.45,-31.82 c 0,-1.93 -3,-1.93 -3,0 a 286.92,286.92 0 0 1 -2.48,31.85 L 22.6,598.65 9.71,570.8 c -0.81,-1.75 -3.4,-0.23 -2.59,1.51 z"
     id="path35370" />
  <path
     d="m 28.88,586.51 c -0.92,5.17 -1.61,12.84 4.34,15.33 5.95,2.49 11.68,-2.88 13.43,-8.15 1.85,-5.6 -0.2,-13.26 -6.33,-15.24 -5.62,-1.82 -10.95,2.68 -12.12,8 -0.41,1.88 2.48,2.68 2.89,0.8 0.78,-3.55 4,-7 8,-6.07 5.06,1.22 6.06,8 4.52,12.05 -1.35,3.61 -5.52,7.83 -9.61,5.49 -3.78,-2.15 -2.86,-7.83 -2.22,-11.42 0.34,-1.89 -2.55,-2.7 -2.89,-0.8 z"
     id="path35372" />
  <path
     d="m 48.07,579.58 a 201.61,201.61 0 0 0 2.88,23.23 c 0.25,1.37 2.08,1.32 2.74,0.36 a 42.45,42.45 0 0 0 5.93,-12.94 l -3,-0.4 c 0.28,2.06 0.9,15.86 6.64,11.22 2.49,-2 2.81,-7.12 3.42,-10 a 109.36,109.36 0 0 0 2,-14.65 c 0.14,-1.92 -2.86,-1.91 -3,0 A 102.46,102.46 0 0 1 63.36,592 c -0.18,0.77 -0.95,6.63 -2.65,5.6 -0.78,-0.48 -1,-6.7 -1.12,-7.81 -0.2,-1.57 -2.46,-2.17 -2.94,-0.4 a 39.51,39.51 0 0 1 -5.63,12.22 l 2.74,0.36 a 196.54,196.54 0 0 1 -2.77,-22.43 c -0.13,-1.92 -3.13,-1.93 -3,0 z"
     id="path35374" />
  <path
     d="m 39.81,219.73 c -2.69,9.52 -4.81,20 -4.57,30 0.17,7 7,6.12 12.34,4.43 1.83,-0.59 1.05,-3.48 -0.8,-2.9 -3.67,1.18 -7.5,2.1 -8.51,-2.48 -0.58,-2.61 0.38,-6.82 0.68,-9.46 a 118.71,118.71 0 0 1 3.76,-18.76 1.51,1.51 0 0 0 -2.9,-0.8 z"
     id="path35376" />
  <path
     d="m 29.5,238.28 a 37.22,37.22 0 0 1 17.31,-0.52 c 1.89,0.38 2.7,-2.51 0.8,-2.89 a 40.67,40.67 0 0 0 -18.87,0.52 1.5,1.5 0 0 0 0.8,2.89 z"
     id="path35378" />
  <path
     d="m 52.3,244.68 c -3,3.15 -3.19,9.25 -0.3,12.57 3.38,3.9 8.65,1.4 10.46,-2.68 1.81,-4.08 0.83,-10.65 -3.2,-13.24 -4.66,-3 -9.17,1.7 -10.28,6 -0.47,1.87 2.42,2.67 2.9,0.8 0.66,-2.58 3.32,-6.38 6.2,-3.9 2.19,1.88 2.7,5.77 1.92,8.39 -0.84,2.8 -4.32,5.28 -6.23,1.92 -1.27,-2.22 -1.14,-5.87 0.65,-7.74 1.33,-1.4 -0.78,-3.52 -2.12,-2.13 z"
     id="path35380" />
  <path
     d="m 38.91,518.61 c -2.69,9.52 -4.82,20 -4.57,30 0.17,7 7,6.12 12.34,4.43 1.83,-0.59 1.05,-3.48 -0.8,-2.9 -3.68,1.18 -7.5,2.1 -8.51,-2.48 -0.58,-2.61 0.37,-6.82 0.68,-9.46 a 118.68,118.68 0 0 1 3.76,-18.79 1.5,1.5 0 0 0 -2.89,-0.8 z"
     id="path35382" />
  <path
     d="m 28.61,537.14 a 37.21,37.21 0 0 1 17.27,-0.52 c 1.89,0.38 2.69,-2.51 0.8,-2.89 a 40.67,40.67 0 0 0 -18.87,0.52 1.5,1.5 0 0 0 0.8,2.89 z"
     id="path35384" />
  <path
     d="m 50.07,539.32 a 82.9,82.9 0 0 1 -0.77,18.15 c -0.3,1.89 2.59,2.7 2.89,0.79 a 85.78,85.78 0 0 0 0.88,-18.94 c -0.12,-1.92 -3.12,-1.94 -3,0 z"
     id="path35386" />
  <path
     d="m 60.18,540.95 a 28.6,28.6 0 0 1 -8.37,10.13 c -1,0.77 -0.91,3 0.75,2.8 a 11.29,11.29 0 0 1 10.75,4.26 c 1.15,1.51 3.76,0 2.59,-1.52 a 14.23,14.23 0 0 0 -13.3,-5.77 l 0.76,2.79 a 31.67,31.67 0 0 0 9.45,-11.18 c 0.86,-1.72 -1.72,-3.24 -2.59,-1.51 z"
     id="path35388" />
  <path
     d="m 40.18,358.8 c -2.69,9.53 -4.81,20 -4.57,30 0.17,7 7,6.12 12.34,4.43 1.84,-0.59 1,-3.48 -0.79,-2.89 -3.68,1.17 -7.51,2.09 -8.52,-2.49 -0.58,-2.61 0.38,-6.82 0.68,-9.45 a 119.74,119.74 0 0 1 3.76,-18.77 1.51,1.51 0 0 0 -2.9,-0.8 z"
     id="path35390" />
  <path
     d="m 29.88,377.35 a 37.25,37.25 0 0 1 17.28,-0.52 c 1.88,0.39 2.69,-2.5 0.79,-2.89 a 40.62,40.62 0 0 0 -18.86,0.52 1.5,1.5 0 0 0 0.79,2.89 z"
     id="path35392" />
  <path
     d="m 51.58,390.93 c 3.47,-2.31 6.16,-5.36 7,-9.54 L 55.63,381 c -0.08,4.08 0,8.22 -0.23,12.3 -0.08,1.12 0.14,1.34 -0.83,1.62 a 6.62,6.62 0 0 1 -1.71,-0.13 4.24,4.24 0 0 0 -2.65,0.68 1.52,1.52 0 0 0 0.76,2.8 l 9.11,0.06 a 1.5,1.5 0 0 0 0,-3 l -9.11,-0.06 0.76,2.79 c 2.17,-1.52 5.25,1.3 6.48,-2.18 0.66,-1.87 0.23,-4.7 0.26,-6.68 l 0.16,-8.2 c 0,-1.66 -2.61,-2.09 -2.95,-0.4 a 12.11,12.11 0 0 1 -5.61,7.74 c -1.6,1.06 -0.1,3.66 1.51,2.59 z"
     id="path35394" />
  <path
     d="m 82.56,237.97 h -6.75 a 1.5,1.5 0 0 0 0,3 h 6.79 a 1.5,1.5 0 0 0 0,-3 z"
     id="path35396" />
  <path
     d="m 85.46,381.14 h -8.72 a 1.5,1.5 0 0 0 0,3 h 8.72 a 1.5,1.5 0 0 0 0,-3 z"
     id="path35398" />
  <path
     d="m 82.56,538.97 h -6.75 a 1.5,1.5 0 0 0 0,3 h 6.79 a 1.5,1.5 0 0 0 0,-3 z"
     id="path35400" />
  <path
     class="cls-6"
     d="M 410.39,638.81"
     id="path35534" />
  <path
     d="m 76.29,598.14 8.45,-0.67 c 1.91,-0.15 1.92,-3.15 0,-3 l -8.45,0.67 c -1.92,0.15 -1.93,3.15 0,3 z"
     id="path35538" />
  <metadata
     id="metadata38672">
    <rdf:RDF>
      <cc:Work
         rdf:about="">
        <dc:title>hmm</dc:title>
      </cc:Work>
    </rdf:RDF>
  </metadata>
</svg>
