<?xml version="1.0" encoding="UTF-8" standalone="no"?>
<svg
   viewBox="0 0 450 520.00001"
   version="1.1"
   id="svg36235"
   sodipodi:docname="WF.svg"
   width="450"
   height="520"
   inkscape:version="1.2.2 (1:1.2.2+202212051552+b0a8486541)"
   xmlns:inkscape="http://www.inkscape.org/namespaces/inkscape"
   xmlns:sodipodi="http://sodipodi.sourceforge.net/DTD/sodipodi-0.dtd"
   xmlns="http://www.w3.org/2000/svg"
   xmlns:svg="http://www.w3.org/2000/svg"
   xmlns:rdf="http://www.w3.org/1999/02/22-rdf-syntax-ns#"
   xmlns:cc="http://creativecommons.org/ns#"
   xmlns:dc="http://purl.org/dc/elements/1.1/">
  <sodipodi:namedview
     id="namedview36237"
     pagecolor="#ffffff"
     bordercolor="#000000"
     borderopacity="0.25"
     inkscape:showpageshadow="2"
     inkscape:pageopacity="0.0"
     inkscape:pagecheckerboard="0"
     inkscape:deskcolor="#d1d1d1"
     showgrid="false"
     inkscape:zoom="0.38832396"
     inkscape:cx="704.30885"
     inkscape:cy="193.13771"
     inkscape:window-width="1223"
     inkscape:window-height="779"
     inkscape:window-x="57"
     inkscape:window-y="21"
     inkscape:window-maximized="1"
     inkscape:current-layer="svg36235" />
  <defs
     id="defs35209">
    <style
       id="style35198">.cls-1,.cls-11,.cls-13,.cls-20,.cls-21,.cls-22,.cls-6,.cls-7,.cls-8,.cls-9{fill:none;}.cls-10,.cls-18,.cls-2{fill:#1f77b4;}.cls-2,.cls-3,.cls-4{opacity:0.3;}.cls-12,.cls-16,.cls-3{fill:#ff7f0e;}.cls-14,.cls-19,.cls-4{fill:#2ca02c;}.cls-5{clip-path:url(#clip-path);}.cls-11,.cls-6{stroke:#ff7f0e;}.cls-20,.cls-6,.cls-7,.cls-8{stroke-linejoin:round;}.cls-6,.cls-7,.cls-8{stroke-dasharray:3.7 1.6;}.cls-7,.cls-9{stroke:#1f77b4;}.cls-13,.cls-8{stroke:#2ca02c;}.cls-11,.cls-13,.cls-21,.cls-22,.cls-9{stroke-miterlimit:10;}.cls-10,.cls-12,.cls-14{opacity:0.5;}.cls-15{clip-path:url(#clip-path-13);}.cls-17{clip-path:url(#clip-path-14);}.cls-20,.cls-21,.cls-22{stroke:#000;}.cls-20,.cls-21{stroke-width:3px;}.cls-21{stroke-linecap:square;}.cls-22{stroke-width:4px;}</style>
    <clipPath
       id="clip-path"
       transform="translate(-8.19 -3.86)">
      <rect
         class="cls-1"
         x="1981.51"
         y="138"
         width="285.54001"
         height="354.03"
         id="rect35200" />
    </clipPath>
    <clipPath
       id="clip-path-13"
       transform="translate(-8.19 -3.86)">
      <rect
         class="cls-1"
         x="1981.51"
         y="140"
         width="285.54001"
         height="354.03"
         id="rect35203" />
    </clipPath>
    <clipPath
       id="clip-path-14"
       transform="translate(-8.19 -3.86)">
      <rect
         class="cls-1"
         x="1981.51"
         y="136"
         width="285.54001"
         height="354.03"
         id="rect35206" />
    </clipPath>
  </defs>
  <title
     id="title35211">hmm</title>
  <path
     class="cls-6"
     d="M 305.38119,545.55599"
     id="path35534" />
  <path
     d="m 69.291193,97.775985 a 716.86,716.86 0 0 1 0.6,83.950005 c -0.09,1.93 2.91,1.92 3,0 a 716.86,716.86 0 0 0 -0.6,-83.950005 c -0.12,-1.91 -3.12,-1.93 -3,0 z"
     id="path35634" />
  <path
     d="m 74.151193,183.59599 a 920.45,920.45 0 0 1 114.829997,-0.81 c 1.93,0.11 1.93,-2.89 0,-3 a 920.45,920.45 0 0 0 -114.829997,0.81 c -1.92,0.13 -1.93,3.13 0,3 z"
     id="path35636" />
  <path
     d="m 47.351193,176.38599 16.9,1 -0.61,-2.24 -0.32,0.21 c -1.3,0.82 -0.1,2.9 1.21,2.07 l 0.32,-0.21 a 1.21,1.21 0 0 0 -0.6,-2.23 l -16.9,-1 c -1.55,-0.1 -1.54,2.3 0,2.4 z"
     id="path35638" />
  <path
     d="m 48.911193,174.24599 a 3.2,3.2 0 0 1 -0.56,-4.31 c 1,-1.44 2.92,-1.56 4.57,-1.51 1.43,0 2.8,0.2 3.19,1.81 a 20.74,20.74 0 0 1 0.27,4.79 1.2,1.2 0 0 0 2.4,0 c 0,-2.25 0.33,-5.79 -1.4,-7.57 -1.73,-1.78 -4.56,-1.61 -6.65,-1.33 -4.92,0.66 -7.2,6.22 -3.52,9.82 1.11,1.08 2.81,-0.61 1.7,-1.7 z"
     id="path35640" />
  <path
     d="m 45.961193,163.31599 c 6.22,1.52 12.94,4 19.11,1.15 1.4,-0.65 0.19,-2.72 -1.21,-2.08 -5.39,2.49 -11.85,-0.07 -17.26,-1.39 -1.5,-0.36 -2.14,1.95 -0.64,2.32 z"
     id="path35642" />
  <path
     d="m 47.101193,158.80599 a 29.77,29.77 0 0 0 8.29,-2.67 c 2.84,-1.57 5.36,-3.86 7.92,-5.84 1.21,-0.93 0,-3 -1.21,-2.07 -2.3,1.77 -4.55,3.74 -7,5.29 a 25.82,25.82 0 0 1 -8.62,3 c -1.51,0.33 -0.87,2.64 0.63,2.32 z"
     id="path35644" />
  <path
     d="m 45.471193,150.47599 a 95.31,95.31 0 0 1 9.33,5.17 c 2.6,1.64 5,3.43 8,4.24 a 1.2,1.2 0 0 0 0.63,-2.31 c -3.17,-0.86 -5.72,-3 -8.48,-4.67 -2.76,-1.67 -5.44,-3.13 -8.27,-4.5 -1.38,-0.68 -2.6,1.39 -1.21,2.07 z"
     id="path35646" />
  <path
     d="m 45.351193,145.25599 c 6.18,2.77 13.4,5.22 19.42,0.75 1.22,-0.91 0,-3 -1.21,-2.08 -5.3,3.94 -11.58,1.69 -17,-0.74 -1.4,-0.63 -2.62,1.44 -1.21,2.07 z"
     id="path35648" />
  <path
     d="m 46.281193,128.53599 c 4.76,-2 14,-8 17.48,-1.6 0.74,1.35 2.82,0.14 2.07,-1.21 -4.47,-8.07 -14.1,-2 -20.19,0.5 -1.41,0.59 -0.79,2.91 0.64,2.31 z"
     id="path35650" />
  <path
     d="m 54.801193,118.76599 a 32.86,32.86 0 0 1 -0.1,-5.25 c 0.09,-1.54 -2.31,-1.54 -2.4,0 a 32.86,32.86 0 0 0 0.1,5.25 c 0.14,1.52 2.55,1.54 2.4,0 z"
     id="path35652" />
  <path
     d="m 58.531193,119.88599 a 22,22 0 0 0 0.49,-6.67 c -0.13,-1.53 -2.53,-1.54 -2.4,0 a 19.71,19.71 0 0 1 -0.4,6 c -0.34,1.51 2,2.15 2.31,0.64 z"
     id="path35654" />
  <path
     d="m 51.021193,111.20599 a 54.33,54.33 0 0 0 14.23,-8.32 c 1.06,-0.86 -0.31,-2.59 -1.46,-1.88 a 2.53,2.53 0 0 0 -1.27,1.57 c -0.58,1.43 1.74,2 2.31,0.63 l 0.17,-0.13 -1.45,-1.89 a 50.74,50.74 0 0 1 -13.17,7.7 c -1.41,0.57 -0.8,2.89 0.64,2.32 z"
     id="path35656" />
  <path
     d="m 49.611193,101.81599 v 0.1 l 1.48,-0.84 -0.18,-0.06 0.84,0.84 v -0.15 l -0.84,1.48 c -0.59,-0.16 -0.41,0 0.53,0.47 l 1.64,1.08 3.27,2.14 6.55,4.29 c 1.3,0.84 2.5,-1.23 1.21,-2.08 l -8.18,-5.35 c -1.44,-0.94 -3.8,-3.4 -5.66,-2.87 a 1.24,1.24 0 0 0 -0.84,1.48 v 0.15 a 1.18,1.18 0 0 0 0.83,0.84 l 0.18,0.05 a 1.22,1.22 0 0 0 1.48,-0.84 v -0.09 c 0.49,-1.47 -1.83,-2.1 -2.31,-0.64 z"
     id="path35658" />
  <path
     d="m 46.891193,99.805985 c 4.33,-3.12 12.57,-4.44 16.69,-0.49 1.11,1.070005 2.81,-0.62 1.69,-1.7 -5,-4.76 -14.29,-3.7 -19.59,0.12 -1.25,0.9 0,3.000005 1.21,2.07 z"
     id="path35660" />
  <path
     d="m 44.961193,139.59599 c 5,1.23 11,2.6 16.13,2.12 3.52,-0.33 3.17,-3.53 2.27,-6.34 -0.46,-1.47 -2.78,-0.84 -2.31,0.64 0.88,2.76 0.42,2.9 -1.71,3.27 a 18.18,18.18 0 0 1 -4.58,-0.34 69.26,69.26 0 0 1 -9.16,-1.67 1.2033287,1.2033287 0 0 0 -0.64,2.32 z"
     id="path35662" />
  <path
     d="m 55.131193,143.73599 a 14.77,14.77 0 0 1 -0.28,-7.72 c 0.35,-1.51 -2,-2.15 -2.31,-0.64 a 17.35,17.35 0 0 0 0.27,9 1.2020087,1.2020087 0 0 0 2.32,-0.63 z"
     id="path35664" />
  <path
     d="m 57.801193,133.68599 a 6.06,6.06 0 0 0 7,0.27 c 2.45,-1.74 1.05,-4.77 -1.29,-5.76 -2.34,-0.99 -6,-0.57 -7.49,1.66 -1.71,2.58 1,4.94 3.38,5.49 1.5,0.35 2.14,-2 0.64,-2.31 -0.93,-0.22 -3,-1.14 -1.65,-2.2 a 4.7,4.7 0 0 1 3.76,-0.58 c 1.13,0.3 2.25,1.43 0.71,2 a 3.72,3.72 0 0 1 -3.33,-0.29 c -1.17,-1 -2.88,0.69 -1.7,1.7 z"
     id="path35666" />
  <path
     d="m 122.80119,189.05599 a 16.74,16.74 0 0 0 9.68,12.27 c 1.75,0.79 3.27,-1.8 1.51,-2.59 a 14,14 0 0 1 -8.29,-10.47 c -0.34,-1.9 -3.23,-1.1 -2.9,0.79 z"
     id="path35668" />
  <path
     d="m 130.63119,187.88599 -8.76,13.66 c -1,1.64 1.55,3.14 2.59,1.52 l 8.76,-13.67 c 1.05,-1.63 -1.55,-3.14 -2.59,-1.51 z"
     id="path35670" />
  <path
     class="cls-18"
     d="m 83.641193,121.13599 c 10.3,0.38 18.289997,7.1 26.069997,13.12 7.22,5.58 14.53,11.1 22.15,16.12 a 97.48,97.48 0 0 0 22.35,11.44 c 8.36,2.8 16.62,3.18 25.35,2.62 1.91,-0.13 1.93,-3.13 0,-3 -9.65,0.62 -18.65,-0.1 -27.73,-3.68 -8.65,-3.4 -16.55,-8.5 -24.11,-13.84 -7.79,-5.51 -15.19,-11.54 -22.9,-17.16 -6.379997,-4.64 -13.149997,-8.32 -21.179997,-8.62 -1.93,-0.08 -1.93,2.92 0,3 z"
     id="path35672" />
  <path
     class="cls-16"
     d="m 177.17119,126.88599 c -8.14,-2.83 -11.58,-12.26 -19.88,-14.94 -9.15,-3 -17.78,2.61 -24.53,8.23 -17.37,14.45 -35.519997,28.71 -50.179997,46 -1.24,1.47 0.87,3.6 2.12,2.12 13.25,-15.64 29.379997,-28.45 44.999997,-41.61 7.83,-6.61 18.48,-17 29.47,-10.63 6.55,3.78 9.76,11.11 17.21,13.7 1.83,0.64 2.62,-2.26 0.8,-2.89 z"
     id="path35674" />
  <path
     class="cls-19"
     d="m 84.401193,150.55599 c 2.82,-1.59 6.16,-1.9 9.31,-2.41 3.35,-0.55 6.589997,-1.51 9.919997,-2.09 8.21,-1.43 16.61,-0.94 24.88,-0.6 a 134.44,134.44 0 0 0 23.29,-0.57 c 8.3,-1.1 17,-3 24.84,1.09 1.71,0.89 3.23,-1.7 1.52,-2.59 -6.9,-3.61 -14.25,-3.15 -21.76,-2.14 a 157.79,157.79 0 0 1 -27.91,1.22 c -8.57,-0.35 -17.19,-0.77 -25.67,0.7 -3.789997,0.66 -7.469997,1.68 -11.269997,2.3 -3,0.5 -6,1 -8.69,2.51 -1.68,0.94 -0.17,3.53 1.52,2.59 z"
     id="path35676" />
  <path
     d="m 69.291193,247.77599 a 716.86,716.86 0 0 1 0.6,83.95 c -0.09,1.93 2.91,1.92 3,0 a 716.86,716.86 0 0 0 -0.6,-83.95 c -0.12,-1.91 -3.12,-1.93 -3,0 z"
     id="path35678" />
  <path
     d="m 74.151193,333.59599 a 920.45,920.45 0 0 1 114.829997,-0.81 c 1.93,0.11 1.93,-2.89 0,-3 a 920.45,920.45 0 0 0 -114.829997,0.81 c -1.92,0.13 -1.93,3.13 0,3 z"
     id="path35680" />
  <path
     d="m 47.351193,326.38599 16.9,1 -0.61,-2.24 -0.32,0.21 c -1.3,0.82 -0.1,2.9 1.21,2.07 l 0.32,-0.21 a 1.21,1.21 0 0 0 -0.6,-2.23 l -16.9,-1 c -1.55,-0.1 -1.54,2.3 0,2.4 z"
     id="path35682" />
  <path
     d="m 48.911193,324.24599 a 3.2,3.2 0 0 1 -0.56,-4.31 c 1,-1.44 2.92,-1.56 4.57,-1.51 1.43,0 2.8,0.2 3.19,1.81 a 20.74,20.74 0 0 1 0.27,4.79 1.2,1.2 0 0 0 2.4,0 c 0,-2.25 0.33,-5.79 -1.4,-7.57 -1.73,-1.78 -4.56,-1.61 -6.65,-1.33 -4.92,0.66 -7.2,6.22 -3.52,9.82 1.11,1.08 2.81,-0.61 1.7,-1.7 z"
     id="path35684" />
  <path
     d="m 45.961193,313.31599 c 6.22,1.52 12.94,4 19.11,1.15 1.4,-0.65 0.19,-2.72 -1.21,-2.08 -5.39,2.49 -11.85,-0.07 -17.26,-1.39 -1.5,-0.36 -2.14,1.95 -0.64,2.32 z"
     id="path35686" />
  <path
     d="m 47.101193,308.80599 a 29.77,29.77 0 0 0 8.29,-2.67 c 2.84,-1.57 5.36,-3.86 7.92,-5.84 1.21,-0.93 0,-3 -1.21,-2.07 -2.3,1.77 -4.55,3.74 -7,5.29 a 25.82,25.82 0 0 1 -8.62,3 c -1.51,0.33 -0.87,2.64 0.63,2.32 z"
     id="path35688" />
  <path
     d="m 45.471193,300.47599 a 95.31,95.31 0 0 1 9.33,5.17 c 2.6,1.64 5,3.43 8,4.24 a 1.2,1.2 0 0 0 0.63,-2.31 c -3.17,-0.86 -5.72,-3 -8.48,-4.67 -2.76,-1.67 -5.44,-3.13 -8.27,-4.5 -1.38,-0.68 -2.6,1.39 -1.21,2.07 z"
     id="path35690" />
  <path
     d="m 45.351193,295.25599 c 6.18,2.77 13.4,5.22 19.42,0.75 1.22,-0.91 0,-3 -1.21,-2.08 -5.3,3.94 -11.58,1.69 -17,-0.74 -1.4,-0.63 -2.62,1.44 -1.21,2.07 z"
     id="path35692" />
  <path
     d="m 46.281193,278.53599 c 4.76,-2 14,-8 17.48,-1.6 0.74,1.35 2.82,0.14 2.07,-1.21 -4.47,-8.07 -14.1,-2 -20.19,0.5 -1.41,0.59 -0.79,2.91 0.64,2.31 z"
     id="path35694" />
  <path
     d="m 54.801193,268.76599 a 32.86,32.86 0 0 1 -0.1,-5.25 c 0.09,-1.54 -2.31,-1.54 -2.4,0 a 32.86,32.86 0 0 0 0.1,5.25 c 0.14,1.52 2.55,1.54 2.4,0 z"
     id="path35696" />
  <path
     d="m 58.531193,269.88599 a 22,22 0 0 0 0.49,-6.67 c -0.13,-1.53 -2.53,-1.54 -2.4,0 a 19.71,19.71 0 0 1 -0.4,6 c -0.34,1.51 2,2.15 2.31,0.64 z"
     id="path35698" />
  <path
     d="m 46.891193,249.80599 c 4.33,-3.12 12.57,-4.44 16.69,-0.49 1.11,1.07 2.81,-0.62 1.69,-1.7 -5,-4.76 -14.29,-3.7 -19.59,0.12 -1.25,0.9 0,3 1.21,2.07 z"
     id="path35700" />
  <path
     d="m 44.641193,289.40599 c 4.74,1.25 11.32,3 16.26,2.18 3.19,-0.55 2.61,-4.08 1.83,-6.48 -0.48,-1.47 -2.8,-0.84 -2.32,0.63 0.78,2.4 0.75,3.09 -1.65,3.44 a 17.23,17.23 0 0 1 -3.86,-0.28 65.22,65.22 0 0 1 -9.62,-1.8 1.2,1.2 0 0 0 -0.64,2.31 z"
     id="path35702" />
  <path
     d="m 54.641193,293.73599 a 16.3,16.3 0 0 1 -0.27,-8 c 0.33,-1.5 -2,-2.14 -2.31,-0.63 a 18.78,18.78 0 0 0 0.27,9.27 1.2,1.2 0 0 0 2.31,-0.64 z"
     id="path35704" />
  <path
     d="m 61.521193,283.24599 a 8.1,8.1 0 0 0 -5.12,-3.56 l -0.32,2.36 a 49.77,49.77 0 0 0 6,0.1 c 0.05,0 1,0.05 0.7,-0.29 0.08,0.1 -0.06,0.74 -0.06,0.9 a 2.54,2.54 0 0 0 0.39,1.64 1.21,1.21 0 0 0 2.24,-0.61 v -4.35 a 1.2,1.2 0 0 0 -2.4,0 v 4.35 l 2.24,-0.6 c -0.32,-0.45 0.07,-1.54 -0.11,-2.1 a 1.73,1.73 0 0 0 -1.48,-1.27 c -2.35,-0.45 -5.11,-0.13 -7.5,-0.17 -1.32,0 -1.67,2.1 -0.32,2.35 a 5.73,5.73 0 0 1 3.69,2.47 c 0.89,1.25 3,0.05 2.07,-1.22 z"
     id="path35706" />
  <path
     d="m 49.511193,260.15599 c 3.36,0.41 12.54,0.75 12.81,-4.77 0.25,-5.07 -10.37,-5.05 -13.32,-5.05 v 2.4 a 82.19,82.19 0 0 1 10.41,0.34 c 1.49,0.15 4.5,0 5.88,0.83 1.81,1 1.13,2.65 1,4.33 -0.13,1.68 2.29,1.54 2.4,0 0.27,-3.66 0.64,-6 -3.46,-6.77 a 76.19,76.19 0 0 0 -16.24,-1.13 1.2,1.2 0 0 0 0,2.4 c 2.37,0 9.27,-0.48 9.93,2.45 0.84,3.69 -7.1,2.85 -9.42,2.57 -1.53,-0.19 -1.51,2.21 0,2.4 z"
     id="path35708" />
  <path
     class="cls-18"
     d="m 83.641193,271.13599 c 10.3,0.38 18.289997,7.1 26.069997,13.12 7.22,5.58 14.53,11.1 22.15,16.12 a 97.48,97.48 0 0 0 22.35,11.44 c 8.36,2.8 16.62,3.18 25.35,2.62 1.91,-0.13 1.93,-3.13 0,-3 -9.65,0.62 -18.65,-0.1 -27.73,-3.68 -8.65,-3.4 -16.55,-8.5 -24.11,-13.84 -7.79,-5.51 -15.19,-11.54 -22.9,-17.16 -6.379997,-4.64 -13.149997,-8.32 -21.179997,-8.62 -1.93,-0.08 -1.93,2.92 0,3 z"
     id="path35710" />
  <path
     class="cls-16"
     d="m 176.37119,276.88599 c -5.45,1.06 -11,2.81 -16.63,2.7 -7.26,-0.13 -9.67,-6.16 -14.34,-10.71 -3,-2.87 -6.84,-6.4 -11.1,-7 -2.65,-0.38 -5.25,1 -7.45,2.34 -8.93,5.49 -12,16.73 -20.73,22.6 -3.46,2.33 -7.399997,3.75 -10.999997,5.75 a 45.23,45.23 0 0 0 -12.5,10.51 c -1.25,1.45 0.86,3.58 2.12,2.12 a 43.56,43.56 0 0 1 13.32,-10.79 c 3.389997,-1.72 6.939997,-3.12 10.069997,-5.31 8.44,-5.89 11.62,-16.93 20.27,-22.29 10.34,-6.41 16.29,8.09 23,13.37 6.85,5.42 18.35,1.08 25.85,-0.39 1.9,-0.37 1.09,-3.26 -0.8,-2.89 z"
     id="path35712" />
  <path
     class="cls-19"
     d="m 84.401193,313.44599 c 4.83,-3.32 9.25,-7.23 14.17,-10.43 6.629997,-4.33 15.699997,-5.81 23.209997,-8.23 9.08,-2.93 18.25,-5.81 27.68,-7.45 5.56,-1 10.58,-1.37 15.73,1.28 4,2.07 7.6,5 11.47,7.35 a 1.5015409,1.5015409 0 0 0 1.52,-2.59 c -7.66,-4.61 -14,-10.55 -23.51,-9.78 -10.31,0.84 -20.52,4.11 -30.32,7.22 -5,1.57 -9.92,3.23 -14.89,4.8 -3.47,1.1 -7.19,1.79 -10.379997,3.55 -5.83,3.22 -10.73,7.93 -16.2,11.69 -1.58,1.09 -0.08,3.69 1.52,2.59 z"
     id="path35714" />
  <path
     d="m 59.291193,402.77599 a 716.86,716.86 0 0 1 0.6,84 c -0.09,1.93 2.91,1.92 3,0 a 716.86,716.86 0 0 0 -0.6,-84 c -0.12,-1.91 -3.12,-1.93 -3,0 z"
     id="path35716" />
  <path
     d="m 64.151193,488.59599 a 920.45,920.45 0 0 1 114.829997,-0.81 c 1.93,0.11 1.93,-2.89 0,-3 a 920.45,920.45 0 0 0 -114.829997,0.81 c -1.92,0.13 -1.93,3.13 0,3 z"
     id="path35718" />
  <path
     d="m 37.351193,481.38599 16.9,1 -0.61,-2.24 -0.32,0.21 c -1.3,0.82 -0.1,2.9 1.21,2.07 l 0.32,-0.21 a 1.21,1.21 0 0 0 -0.6,-2.23 l -16.9,-1 c -1.55,-0.1 -1.54,2.3 0,2.4 z"
     id="path35720" />
  <path
     d="m 38.911193,479.24599 a 3.2,3.2 0 0 1 -0.56,-4.31 c 1,-1.44 2.92,-1.56 4.57,-1.51 1.43,0 2.8,0.2 3.19,1.81 a 20.74,20.74 0 0 1 0.27,4.79 1.2,1.2 0 0 0 2.4,0 c 0,-2.25 0.33,-5.79 -1.4,-7.57 -1.73,-1.78 -4.56,-1.61 -6.65,-1.33 -4.92,0.66 -7.2,6.22 -3.52,9.82 1.11,1.08 2.81,-0.61 1.7,-1.7 z"
     id="path35722" />
  <path
     d="m 35.961193,468.31599 c 6.22,1.52 12.94,4 19.11,1.15 1.4,-0.65 0.19,-2.72 -1.21,-2.08 -5.39,2.49 -11.85,-0.07 -17.26,-1.39 -1.5,-0.36 -2.14,1.95 -0.64,2.32 z"
     id="path35724" />
  <path
     d="m 37.101193,463.80599 a 29.77,29.77 0 0 0 8.29,-2.67 c 2.84,-1.57 5.36,-3.86 7.92,-5.84 1.21,-0.93 0,-3 -1.21,-2.07 -2.3,1.77 -4.55,3.74 -7,5.29 a 25.82,25.82 0 0 1 -8.62,3 c -1.51,0.33 -0.87,2.64 0.63,2.32 z"
     id="path35726" />
  <path
     d="m 35.471193,455.47599 a 95.31,95.31 0 0 1 9.33,5.17 c 2.6,1.64 5,3.43 8,4.24 a 1.2,1.2 0 0 0 0.63,-2.31 c -3.17,-0.86 -5.72,-3 -8.48,-4.67 -2.76,-1.67 -5.44,-3.13 -8.27,-4.5 -1.38,-0.68 -2.6,1.39 -1.21,2.07 z"
     id="path35728" />
  <path
     d="m 35.351193,450.25599 c 6.18,2.77 13.4,5.22 19.42,0.75 1.22,-0.91 0,-3 -1.21,-2.08 -5.3,3.94 -11.58,1.69 -17,-0.74 -1.4,-0.63 -2.62,1.44 -1.21,2.07 z"
     id="path35730" />
  <path
     d="m 36.281193,433.53599 c 4.76,-2 14,-8 17.48,-1.6 0.74,1.35 2.82,0.14 2.07,-1.21 -4.47,-8.07 -14.1,-2 -20.19,0.5 -1.41,0.59 -0.79,2.91 0.64,2.31 z"
     id="path35732" />
  <path
     d="m 44.801193,423.76599 a 32.86,32.86 0 0 1 -0.1,-5.25 c 0.09,-1.54 -2.31,-1.54 -2.4,0 a 32.86,32.86 0 0 0 0.1,5.25 c 0.14,1.52 2.55,1.54 2.4,0 z"
     id="path35734" />
  <path
     d="m 48.531193,424.88599 a 22,22 0 0 0 0.49,-6.67 c -0.13,-1.53 -2.53,-1.54 -2.4,0 a 19.71,19.71 0 0 1 -0.4,6 c -0.34,1.51 2,2.15 2.31,0.64 z"
     id="path35736" />
  <path
     d="m 36.891193,404.80599 c 4.33,-3.12 12.57,-4.44 16.69,-0.49 1.11,1.07 2.81,-0.62 1.69,-1.7 -5,-4.76 -14.29,-3.7 -19.59,0.12 -1.25,0.9 0,3 1.21,2.07 z"
     id="path35738" />
  <path
     d="m 35.361193,445.25599 c 4.52,1.14 10.68,2.76 15.37,2 3,-0.5 2.57,-3.73 1.79,-6 -0.49,-1.46 -2.81,-0.83 -2.32,0.63 0.75,2.2 0.69,2.71 -1.5,3 a 17.12,17.12 0 0 1 -3.64,-0.26 62.13,62.13 0 0 1 -9.06,-1.63 1.2033287,1.2033287 0 0 0 -0.64,2.32 z"
     id="path35740" />
  <path
     d="m 44.891193,449.05599 a 13.93,13.93 0 0 1 -0.25,-7.22 c 0.34,-1.5 -2,-2.14 -2.32,-0.63 a 16.74,16.74 0 0 0 0.25,8.49 1.2033287,1.2033287 0 0 0 2.32,-0.64 z"
     id="path35742" />
  <path
     d="m 45.461193,440.41599 a 44.34,44.34 0 0 1 8.62,0.32 c 1.51,0.21 2.16,-2.1 0.64,-2.31 a 47,47 0 0 0 -9.26,-0.41 c -1.53,0.09 -1.54,2.49 0,2.4 z"
     id="path35744" />
  <path
     d="m 46.011193,435.95599 a 13.61,13.61 0 0 1 4.9,3.66 c 0.87,1 2.14,-0.13 2,-1.16 a 4.09,4.09 0 0 1 1.87,-3.86 c 1.27,-0.87 0.07,-3 -1.21,-2.08 a 6.62,6.62 0 0 0 -3,6.58 l 2,-1.17 a 15,15 0 0 0 -5.38,-4 c -1.4,-0.63 -2.62,1.44 -1.21,2.08 z"
     id="path35746" />
  <path
     d="m 41.391193,415.07599 q 0.28,-4.43 0.18,-8.86 l -1.52,1.15 c 1.24,0.33 2.2,1.75 3.08,2.6 0.88,0.85 1.87,1.79 2.84,2.65 1.77,1.57 3.62,3 5.51,4.48 0.76,0.57 1.79,-0.21 1.81,-1 l 0.14,-10.09 a 1.2,1.2 0 0 0 -2.4,0 l -0.14,10.09 1.8,-1 a 84.15,84.15 0 0 1 -6.93,-5.86 c -1.52,-1.44 -3,-3.55 -5.07,-4.11 a 1.22,1.22 0 0 0 -1.52,1.16 q 0.1,4.44 -0.18,8.86 c -0.09,1.54 2.31,1.54 2.4,0 z"
     id="path35748" />
  <path
     d="m 47.201193,412.66599 a 9.76,9.76 0 0 1 -0.08,-3.28 1.24,1.24 0 0 0 -0.84,-1.48 1.2,1.2 0 0 0 -1.47,0.84 13.18,13.18 0 0 0 0.08,4.56 c 0.29,1.51 2.6,0.87 2.31,-0.64 z"
     id="path35750" />
  <path
     class="cls-18"
     d="m 73.641193,426.13599 c 10.3,0.38 18.29,7.1 26.07,13.12 7.219997,5.58 14.529997,11.1 22.149997,16.12 a 97.48,97.48 0 0 0 22.35,11.44 c 8.36,2.8 16.62,3.18 25.35,2.62 1.91,-0.13 1.93,-3.13 0,-3 -9.65,0.62 -18.65,-0.1 -27.73,-3.68 -8.65,-3.4 -16.55,-8.5 -24.11,-13.84 -7.79,-5.51 -15.19,-11.54 -22.899997,-17.16 -6.38,-4.64 -13.15,-8.32 -21.18,-8.62 -1.93,-0.08 -1.93,2.92 0,3 z"
     id="path35752" />
  <path
     class="cls-16"
     d="m 169.56119,459.24599 c -4.35,0.58 -9.16,-2.21 -12.85,-4.13 a 137.19,137.19 0 0 1 -15.66,-9.73 c -4.19,-3 -8.55,-6.1 -12.08,-9.88 -3.53,-3.78 -6.86,-7.66 -11.27,-10.79 -6.78,-4.81 -14.26,-9.37 -22.559997,-6.74 -8.6,2.71 -15.68,10.31 -22.56,15.86 -1.5,1.22 0.63,3.33 2.12,2.12 6.68,-5.39 13.45,-12.52 21.77,-15.2 9.349997,-3 21.299997,6.44 27.179997,13 a 102.51,102.51 0 0 0 21.15,17.82 c 6.31,4.11 16.56,11.76 24.72,10.67 1.88,-0.26 1.91,-3.26 0,-3 z"
     id="path35754" />
  <path
     class="cls-19"
     d="m 74.401193,477.45599 c 6,-3.88 12.49,-7.11 18.82,-10.39 6.69,-3.47 14.199997,-5.69 20.319997,-10.11 8.53,-6.18 15.23,-14.57 23.92,-20.51 4.52,-3.09 10,-5.76 15.64,-4.86 5.24,0.83 9.16,6.24 13.56,9 1.65,1 3.16,-1.58 1.52,-2.59 -4.16,-2.57 -7.53,-7.12 -12.19,-8.79 -4.47,-1.6 -9.72,-0.56 -13.95,1.26 -10,4.3 -17.27,13.19 -25.3,20.14 -6.93,6 -14.73,8.65 -22.709997,12.71 -7.11,3.63 -14.44,7.24 -21.15,11.59 -1.61,1 -0.11,3.64 1.52,2.59 z"
     id="path35756" />
  <path
     d="m 114.15119,494.19599 q 4.43,0.29 8.86,0.18 l -1.15,-1.49 c -0.33,1.24 -1.75,2.2 -2.6,3.07 -0.85,0.87 -1.79,1.88 -2.65,2.85 -1.57,1.77 -3.05,3.62 -4.48,5.51 -0.57,0.76 0.21,1.79 1,1.8 l 10.09,0.15 a 1.2,1.2 0 0 0 0,-2.4 l -10.09,-0.15 1,1.81 a 82.52,82.52 0 0 1 5.86,-6.93 c 1.44,-1.53 3.55,-3 4.11,-5.07 a 1.22,1.22 0 0 0 -1.16,-1.52 q -4.44,0.1 -8.86,-0.18 c -1.54,-0.1 -1.54,2.3 0,2.4 z"
     id="path35758" />
  <path
     d="m 116.56119,500.00599 a 9.51,9.51 0 0 1 3.24,-0.12 1.25,1.25 0 0 0 1.48,-0.84 1.21,1.21 0 0 0 -0.84,-1.48 13.43,13.43 0 0 0 -4.56,0.08 c -1.51,0.3 -0.87,2.61 0.64,2.32 z"
     id="path35760" />
  <path
     d="m 282.80119,184.69599 c -2.18,21.61 2.57,43.57 -2.55,64.92 l 2.74,-0.36 a 56.34,56.34 0 0 1 -5.56,-11.37 c -0.64,-1.8 -3.42,-1.09 -2.9,0.79 a 23,23 0 0 0 8.13,12.29 1.52,1.52 0 0 0 2.56,-1.06 c 0.38,-6.41 6.81,-7.69 8.32,-13.26 a 1.51,1.51 0 0 0 -2.9,-0.8 c -0.89,3.29 -4.48,4.65 -6.32,7.28 a 12.72,12.72 0 0 0 -2.1,6.78 l 2.58,-1.02 a 20.33,20.33 0 0 1 -7.35,-11 l -2.9,0.79 a 60.67,60.67 0 0 0 5.87,12.07 1.52,1.52 0 0 0 2.75,-0.36 c 5.18,-21.62 0.44,-43.82 2.65,-65.71 0.2,-1.92 -2.8,-1.91 -3,0 z"
     id="path35762" />
  <path
     d="m 282.80119,334.69599 c -2.18,21.61 2.57,43.57 -2.55,64.92 l 2.74,-0.36 a 56.34,56.34 0 0 1 -5.56,-11.37 c -0.64,-1.8 -3.42,-1.09 -2.9,0.79 a 23,23 0 0 0 8.13,12.29 1.52,1.52 0 0 0 2.56,-1.06 c 0.38,-6.41 6.81,-7.69 8.32,-13.26 a 1.51,1.51 0 0 0 -2.9,-0.8 c -0.89,3.29 -4.48,4.65 -6.32,7.28 a 12.72,12.72 0 0 0 -2.1,6.78 l 2.58,-1.02 a 20.33,20.33 0 0 1 -7.35,-11 l -2.9,0.79 a 60.67,60.67 0 0 0 5.87,12.07 1.52,1.52 0 0 0 2.75,-0.36 c 5.18,-21.62 0.44,-43.82 2.65,-65.71 0.2,-1.92 -2.8,-1.91 -3,0 z"
     id="path35764" />
  <path
     d="m 300.80119,350.94599 c -2.47,4.9 -2.56,9.91 -2.07,15.29 0.66,7.24 1.05,14.15 0,21.39 -0.29,1.89 2.6,2.7 2.89,0.79 a 72.21,72.21 0 0 0 0.63,-17.38 c -0.55,-6.28 -1.79,-12.69 1.18,-18.58 0.87,-1.72 -1.72,-3.24 -2.59,-1.51 z"
     id="path35766" />
  <path
     d="m 300.14119,355.45599 c 4.47,-4.08 10.78,-1.77 13.5,3.12 3.78,6.79 -5.42,10 -10.6,10 a 1.5,1.5 0 0 0 0,3 17.61,17.61 0 0 0 12.16,-4.41 c 3,-2.71 3.13,-5.64 1.47,-9.18 -3.36,-7.22 -12.44,-10.29 -18.65,-4.62 -1.43,1.3 0.69,3.42 2.12,2.12 z"
     id="path35768" />
  <path
     d="m 10.251193,11.095984 c 0,14.51 4.93,29.08 8.23,43.09 a 1.51,1.51 0 0 0 2.89,0 l 5.13,-17.38 h -2.9 a 109,109 0 0 0 4.85,16.71 1.52,1.52 0 0 0 2.9,0 q 5.46,-19.89 9.92,-40 c 0.41,-1.88 -2.48,-2.68 -2.89,-0.8 q -4.46,20.14 -9.93,40 h 2.9 a 107.24,107.24 0 0 1 -4.85,-16.72 c -0.31,-1.51 -2.5,-1.35 -2.9,0 l -5.12,17.38 h 2.89 c -3.23,-13.71 -8.15,-28.1 -8.12,-42.29 a 1.5,1.5 0 0 0 -3,0 z"
     id="path35770" />
  <path
     d="m 40.851193,35.765984 c -0.14,-3.65 1,-2.43 3,-2.57 a 4.23,4.23 0 0 0 2.92,-1.74 l -2.51,-1.46 -2.68,14.15 c -0.63,3.33 -1.89,6.86 -0.83,10.19 a 1.51,1.51 0 0 0 2.2,0.9 c 2.78,-1.92 5.51,-3.88 8.2,-5.92 1.52,-1.14 0,-3.75 -1.51,-2.59 q -4,3 -8.2,5.92 l 2.2,0.89 c -1.12,-3.53 0.83,-8.6 1.5,-12.13 l 2,-10.61 a 1.51,1.51 0 0 0 -2.51,-1.46 c -0.83,0.87 -3.7,-0.26 -5,0.53 -2,1.22 -1.92,3.87 -1.84,5.9 0.08,2.03 3.07,1.94 3,0 z"
     id="path35772" />
  <path
     d="m 52.471193,30.885984 c -1.28,7.21 -4.84,17.3 0,23.88 a 1.53,1.53 0 0 0 2.05,0.54 16.37,16.37 0 0 0 6.59,-7.14 c 0.89,-1.71 -1.69,-3.23 -2.59,-1.52 a 13.74,13.74 0 0 1 -5.51,6.07 l 2,0.54 c -4.24,-5.77 -0.84,-15.17 0.31,-21.57 0.33,-1.89 -2.56,-2.7 -2.9,-0.8 z"
     id="path35774" />
  <path
     d="m 54.801193,24.435984 h 0.85 a 1.5,1.5 0 0 0 0,-3 h -0.85 a 1.5,1.5 0 0 0 0,3 z"
     id="path35776" />
  <path
     d="m 75.701193,37.825984 c 1.43,-4.33 -1.11,-10.91 -6.7,-9.15 -6.44,2 -6.78,12.13 -6.29,17.44 0.3,3.28 0.59,12.38 6,10.33 7,-2.69 7.43,-14.17 7.56,-20.18 h -3 a 223.43,223.43 0 0 1 -1.64,23.41 c -0.33,2.66 -0.21,9.62 -2.34,11.77 -1.67,1.69 -4.84,-0.55 -6.91,-0.43 l 1.5,1.5 0.2,-0.93 c 0.85,-1.73 -1.74,-3.25 -2.59,-1.52 a 4.65,4.65 0 0 0 -0.61,2.45 1.5,1.5 0 0 0 1.5,1.5 c 2.87,-0.17 5.13,2.39 7.91,0.63 2.22,-1.4 2.75,-4.52 3.18,-6.87 a 196.82,196.82 0 0 0 2.8,-31.51 c 0,-1.93 -3,-1.93 -3,0 a 38.66,38.66 0 0 1 -1.2,10.56 c -0.92,3 -4.68,9.16 -5.77,3 a 33.26,33.26 0 0 1 -0.5,-10.1 c 0.2,-1.63 0.44,-3.81 1.38,-5.23 1.84,-2.77 6.86,-1.09 5.67,2.52 -0.61,1.84 2.29,2.62 2.89,0.8 z"
     id="path35778" />
  <path
     d="m 77.441193,16.555984 c 1.19,12.68 0.81,25.37 0.36,38.07 h 3 a 70.8,70.8 0 0 1 0.53,-11.27 c 0.38,-2.43 1.71,-10 4.71,-10.74 3.34,-0.81 2.58,7.11 2.58,9.12 a 79,79 0 0 1 -1.08,12.75 c -0.31,1.89 2.58,2.7 2.89,0.8 a 80.35,80.35 0 0 0 1,-19.22 c -0.2,-2.55 -0.41,-7.34 -4,-7.42 -3.59,-0.08 -6.1,4.8 -7.22,7.36 -2.55,5.82 -2.48,12.4 -2.44,18.62 a 1.5,1.5 0 0 0 3,0 c 0.45,-12.7 0.83,-25.39 -0.36,-38.07 -0.18,-1.9 -3.18,-1.92 -3,0 z"
     id="path35780" />
  <path
     d="m 96.931193,17.995984 c -0.35,10.43 -0.69,20.86 -1.54,31.26 -0.16,2 -1.11,6 1.2,7.37 2,1.13 4.389997,-1.09 5.939997,-2 a 1.5015409,1.5015409 0 0 0 -1.52,-2.59 l -2.209997,1.32 c -1,0.89 -1.22,0.46 -0.63,-1.27 a 20.94,20.94 0 0 1 0.32,-3.77 q 0.41,-5.2 0.67,-10.41 c 0.35,-6.63 0.57,-13.27 0.79,-19.91 0.06,-1.93 -2.94,-1.93 -3,0 z"
     id="path35782" />
  <path
     d="m 94.851193,34.245984 a 21.63,21.63 0 0 1 7.609997,-0.28 c 1.89,0.27 2.7,-2.62 0.8,-2.9 a 26.16,26.16 0 0 0 -9.209997,0.29 c -1.88,0.4 -1.09,3.29 0.8,2.89 z"
     id="path35784" />
  <path
     d="m 117.88119,11.095984 q 0.81,22.26 2.09,44.49 c 0.09,1.59 2.65,2.16 3,0.4 l 0.26,-1.49 c 0.32,-1.88 -2.57,-2.69 -2.9,-0.79 l -0.25,1.48 2.94,0.4 q -1.28,-22.23 -2.09,-44.49 c -0.07,-1.9199995 -3.07,-1.9299995 -3,0 z"
     id="path35786" />
  <path
     d="m 121.61119,16.625984 a 35,35 0 0 1 15.55,-3.1 c 1.94,0.06 1.93,-2.94 0,-3 a 38.4,38.4 0 0 0 -17.07,3.51 c -1.76,0.79 -0.23,3.38 1.52,2.59 z"
     id="path35788" />
  <path
     d="m 122.25119,33.605984 a 18.55,18.55 0 0 0 8.47,-1.59 c 1.77,-0.76 0.24,-3.35 -1.52,-2.59 a 15.18,15.18 0 0 1 -7,1.18 c -1.93,-0.11 -1.92,2.89 0,3 z"
     id="path35790" />
  <path
     d="m 133.80119,31.635984 c -0.15,6.61 -2.76,17.21 2.31,22.76 3.61,3.94 7.76,-0.21 8.4,-4.21 0.31,-1.89 -2.58,-2.71 -2.89,-0.8 0.06,2.25 -1.41,2.57 -4.42,0.94 l -0.38,-1.3 c -1,-1.6 -0.61,-4.46 -0.59,-6.3 0,-3.7 0.49,-7.39 0.57,-11.09 0.05,-1.93 -2.95,-1.93 -3,0 z"
     id="path35792" />
  <path
     d="m 136.18119,24.415984 h 0.47 a 1.51,1.51 0 0 0 1.5,-1.5 1.54,1.54 0 0 0 -1.5,-1.5 h -0.47 a 1.49,1.49 0 0 0 -1.5,1.5 1.54,1.54 0 0 0 1.5,1.5 z"
     id="path35794" />
  <path
     d="m 153.20119,33.255984 c -1.57,-7.45 -8.94,-2.78 -10.32,2.21 -0.59,2.13 -1,5.53 1.47,6.67 2.26,1 3.93,-0.33 6.05,2.16 a 8.26,8.26 0 0 1 1.77,5.71 c -0.51,2.81 -3.52,3.11 -5.89,3.2 l 1.5,1.5 0.07,-0.67 a 1.5015409,1.5015409 0 0 0 -1.52,-2.59 3,3 0 0 0 -1.55,3.26 1.52,1.52 0 0 0 1.5,1.5 c 6.6,-0.24 10.33,-3.54 8.27,-10.25 -0.75,-2.44 -2.34,-5.13 -4.79,-6.2 -0.93,-0.4 -1.89,-0.21 -2.76,-0.51 -1.06,0.49 -1.47,0.13 -1.23,-1.1 a 2.55,2.55 0 0 1 0.18,-2.31 4,4 0 0 1 0.94,-1.91 q 0.95,-2.22 3.41,0.13 c 0.4,1.89 3.29,1.09 2.9,-0.8 z"
     id="path35796" />
  <path
     d="m 154.80119,13.655984 c 1.54,13.38 4,28.4 1.77,41.79 l 2.95,0.4 c 0.14,-2.93 0.21,-5.85 0.19,-8.78 0,-1.86 -0.12,-3.74 0,-5.6 0.17,-2.46 0,-5.66 3,-5.68 1.41,-0.65 2.15,-0.27 2.2,1.14 a 11.48,11.48 0 0 1 0.91,4.05 c 0.17,1.42 0.23,2.86 0.29,4.29 0.15,3.25 0.11,6.49 0,9.74 l 2.95,-0.4 -0.31,-1.43 c -0.39,-1.89 -3.29,-1.09 -2.89,0.79 l 0.3,1.44 c 0.36,1.72 2.87,1.23 2.95,-0.4 0.21,-4.59 2.12,-24.35 -6.49,-23.87 -8.61,0.48 -5.84,19.66 -6.08,24.71 -0.08,1.66 2.66,2.08 2.95,0.4 2.32,-13.71 -0.1,-28.88 -1.67,-42.59 -0.22,-1.89 -3.22,-1.91 -3,0 z"
     id="path35798" />
  <path
     d="m 174.80119,45.945984 c 5.21,-0.91 9.49,-5.26 7.48,-10.93 -1.28,-3.61 -5.13,-5.67 -8.23,-2.84 -4.32,4 -3.68,11.39 -2.78,16.53 0.37,2.11 0.58,5.15 2.34,6.66 2.1,1.81 5.61,0.74 8.07,0.54 1.91,-0.16 1.93,-3.16 0,-3 -2.48,0.2 -5.46,1.17 -6.78,-1.48 -1.11,-2.22 -1.21,-6.11 -1.25,-8.51 0,-1.82 0,-6.61 1.73,-7.69 l 3.66,-0.12 0.54,3.74 c -0.29,2.5 -3.45,3.84 -5.58,4.21 -1.9,0.33 -1.09,3.22 0.8,2.89 z"
     id="path35800" />
  <path
     d="m 186.53119,37.665984 c 1.89,-4.63 6.5,0.67 8.39,-3.55 l -2.74,-1.15 a 71.76,71.76 0 0 0 -2.71,21.77 1.52,1.52 0 0 0 1.89,1.44 11.76,11.76 0 0 0 6.88,-3.94 c 1.31,-1.41 -0.8,-3.53 -2.12,-2.12 a 9.34,9.34 0 0 1 -5.55,3.17 l 1.9,1.45 a 69.2,69.2 0 0 1 2.6,-21 c 0.45,-1.58 -2,-2.74 -2.74,-1.15 0.41,-0.93 -4,-1.6 -4.84,-1.24 -2.07,0.92 -3.06,3.57 -3.85,5.5 -0.79,1.93 2.17,2.56 2.89,0.8 z"
     id="path35802" />
  <path
     d="m 214.65119,14.105984 0.92,39.88 a 1.5132746,1.5132746 0 0 0 3,0.4 l 0.7,-2.47 a 1.5,1.5 0 0 0 -2.89,-0.79 l -0.7,2.46 2.94,0.4 -0.92,-39.88 c 0,-1.93 -3,-1.93 -3,0 z"
     id="path35804" />
  <path
     d="m 217.25119,15.625984 c 9.39,-5.9099995 12.53,15.27 13.09,20.4 1.11,10.17 -1.2,17.88 -12.67,18.66 -1.91,0.13 -1.93,3.13 0,3 5.64,-0.39 10.74,-1.68 13.8,-6.84 3.25,-5.47 2.29,-12.22 1.44,-18.2 -1,-7.12 -5.95,-26.6699995 -17.17,-19.61 -1.63,1 -0.13,3.62 1.51,2.59 z"
     id="path35806" />
  <path
     d="m 237.19119,34.725984 c -0.16,7.09 0,14.15 0.49,21.22 0.14,1.91 3.14,1.93 3,0 -0.49,-7.07 -0.65,-14.13 -0.49,-21.22 0.05,-1.93 -2.95,-1.93 -3,0 z"
     id="path35808" />
  <path
     d="m 238.91119,25.605984 h 0.25 a 1.5,1.5 0 0 0 0,-3 h -0.25 a 1.5,1.5 0 0 0 0,3 z"
     id="path35810" />
  <path
     d="m 251.23119,29.365984 c -0.15,-3.69 1.78,-9.88 -2.09,-12.48 -2.28,-1.52 -4.46,0 -5.46,2.21 -2.1,4.62 -0.78,11.07 -0.22,15.87 0.8,6.88 1.83,13.66 1.13,20.6 -0.19,1.92 2.81,1.91 3,0 0.73,-7.25 -0.44,-14.31 -1.24,-21.5 a 55.07,55.07 0 0 1 -0.52,-10.81 c 0.26,-2.81 2.06,-2.34 2.69,0.13 0.43,1.66 -0.36,4.21 -0.29,6 0.07,1.92 3.07,1.93 3,0 z"
     id="path35812" />
  <path
     d="m 243.69119,39.005984 6.4,-1.6 c 1.88,-0.47 1.08,-3.36 -0.79,-2.89 l -6.41,1.59 c -1.87,0.47 -1.08,3.36 0.8,2.9 z"
     id="path35814" />
  <path
     d="m 265.02119,28.475984 c -0.48,-3 -1.08,-7.9 -4.1,-9.66 -2.1,-1.22 -3.61,-0.2 -4.42,1.88 -1.63,4.21 -0.47,10.37 -0.19,14.75 0.42,6.6 0.95,13.12 -0.23,19.68 -0.34,1.88 2.55,2.69 2.89,0.79 1.18,-6.52 0.84,-13 0.4,-19.55 -0.22,-3.24 -0.85,-6.93 -0.4,-10.16 0.27,-1.88 0.93,-5.69 2.31,-1.21 a 31.16,31.16 0 0 1 0.85,4.28 c 0.3,1.9 3.19,1.09 2.89,-0.8 z"
     id="path35816" />
  <path
     d="m 254.80119,36.245984 a 24.35,24.35 0 0 1 8.58,-0.77 c 1.92,0.16 1.91,-2.84 0,-3 a 26.73,26.73 0 0 0 -9.38,0.88 1.5,1.5 0 0 0 0.8,2.89 z"
     id="path35818" />
  <path
     d="m 266.22119,32.515984 a 38.89,38.89 0 0 0 -0.6,15.42 c 0.4,2.48 1,9.27 4.62,9.43 3.23,0.15 4.35,-3.91 5.07,-6.27 a 66.12,66.12 0 0 0 2.69,-18.12 c 0,-2 -2.85,-1.9 -3,0 a 206.75,206.75 0 0 0 -0.45,21.7 c 0.06,1.93 3.06,1.93 3,0 a 206.75,206.75 0 0 1 0.45,-21.7 h -3 a 65,65 0 0 1 -1,11 c -0.29,1.49 -1.6,9.59 -3.2,9.62 -1.6,0.03 -2.48,-8.05 -2.57,-9.18 a 36,36 0 0 1 0.92,-11.14 c 0.44,-1.88 -2.45,-2.68 -2.89,-0.8 z"
     id="path35820" />
  <path
     d="m 291.99119,36.595984 c 0.63,-6.8 -6.69,-8.39 -10.15,-3.06 -1.49,2.3 -2.53,5.47 -0.92,8 0.86,1.34 2.21,1.8 3.43,2.69 a 6,6 0 0 1 2.78,3.73 c 0.47,2.26 -0.9,9.17 -5.54,5.19 -1.46,-1.25 -3.59,0.87 -2.12,2.13 4.14,3.55 9.62,1.27 10.63,-4 a 9.55,9.55 0 0 0 -1.69,-7.58 c -0.85,-1.06 -2.05,-1.43 -3,-2.29 -0.95,-0.86 -2.26,-2.3 -2.11,-3.86 a 6.6,6.6 0 0 1 1.43,-2.72 q 1.55,-2.91 4.29,1.84 c -0.18,1.93 2.82,1.91 3,0 z"
     id="path35822" />
  <path
     d="m 297.22119,33.165984 -0.38,-0.08 a 1.56,1.56 0 0 0 -1.7,0.69 c -1.45,2.4 -0.53,6.09 -0.45,8.74 l 0.4,13.44 c 0,1.92 3,1.93 3,0 l -0.29,-10.07 c -0.07,-2.34 -1.29,-8.54 -0.06,-10.58 l -1.69,0.69 0.38,0.07 c 1.89,0.38 2.69,-2.51 0.8,-2.89 z"
     id="path35824" />
  <path
     d="m 295.19119,23.315984 h -0.26 a 1.5,1.5 0 0 0 0,3 h 0.26 a 1.5,1.5 0 0 0 0,-3 h -0.26 a 1.5,1.5 0 0 0 0,3 h 0.26 a 1.5,1.5 0 0 0 0,-3 z"
     id="path35826" />
  <path
     d="m 301.47119,39.535984 c -0.57,4.6 -3.15,14.56 2.16,17.54 6.13,3.44 9.69,-7.31 10.3,-11.39 0.65,-4.37 1,-15.37 -5.69,-15.63 -7.18,-0.28 -7.76,10.16 -7.44,15 0.13,1.92 3.13,1.93 3,0 a 23.32,23.32 0 0 1 0.22,-6.62 c 0.52,-2.34 2.11,-7.6 6.46,-2.62 2,2.25 0.59,9.91 -0.14,12.33 -0.45,1.49 -1.36,4.73 -2.91,5.56 -4.07,2.17 -3.9,-2.95 -3.9,-5 a 75.9,75.9 0 0 1 0.94,-9.14 c 0.24,-1.91 -2.77,-1.89 -3,0 z"
     id="path35828" />
  <path
     d="m 315.21119,31.885984 a 106.14,106.14 0 0 1 0.4,23.9 h 3 l 0.12,-1.46 c 0.17,-1.92 -2.83,-1.91 -3,0 l -0.12,1.46 c -0.17,1.93 2.81,1.91 3,0 a 106.14,106.14 0 0 0 -0.4,-23.9 c -0.25,-1.89 -3.25,-1.91 -3,0 z"
     id="path35830" />
  <path
     d="m 319.24119,41.245984 c 0.92,-1.49 2.25,-4.11 3.89,-5 4,-2.09 2.85,3.56 2.7,5.65 l -1,14.54 c -0.13,1.93 2.87,1.92 3,0 l 0.97,-14.55 c 0.19,-2.69 0.84,-6.6 -1.15,-8.86 -3.84,-4.38 -9.29,3.86 -11,6.67 -1,1.65 1.58,3.15 2.59,1.51 z"
     id="path35832" />
  <path
     d="m 350.37119,14.885984 a 409.63,409.63 0 0 0 1.48,42.18 c 0.16,1.9 3.17,1.92 3,0 a 409.63,409.63 0 0 1 -1.48,-42.18 c 0,-1.93 -3,-1.93 -3,0 z"
     id="path35834" />
  <path
     d="m 354.19119,17.695984 c 7.93,-6.74 12.8,4.72 11.16,11.26 -0.86,3.42 -2.68,7.76 -6.53,8.66 -1.77,0.41 -4,-0.3 -5.93,0 -1.68,0.24 -1.26,3 0.4,2.94 h 1.15 c 1.93,0 1.93,-3 0,-3 h -1.15 l 0.4,3 c 5.28,-0.76 8.81,1.24 11.92,-4.18 2.31,-4 3.81,-9 3,-13.59 -1.54,-8.46 -9.43,-13.1399995 -16.51,-7.13 -1.47,1.25 0.66,3.36 2.12,2.12 z"
     id="path35836" />
  <path
     d="m 370.95119,40.225984 a 10.19,10.19 0 0 1 2.62,-5.77 l -2.51,-0.67 c 0.7,4.63 5.17,4.95 6.59,0.59 l -2.89,-0.8 c -1.32,6 -4.12,14.9 -1.63,21 2.23,5.44 7.28,2.81 9.29,-1.28 0.85,-1.72 -1.74,-3.25 -2.59,-1.51 q -0.67,2.48 -3.72,2.18 a 8.42,8.42 0 0 1 -0.73,-3.5 25.17,25.17 0 0 1 0.15,-3.58 105.24,105.24 0 0 1 2.12,-12.48 1.5,1.5 0 0 0 -2.89,-0.8 l -0.8,-0.58 a 1.51,1.51 0 0 0 -2.51,-0.66 12.69,12.69 0 0 0 -3.39,7.09 c -0.32,1.89 2.57,2.7 2.89,0.8 z"
     id="path35838" />
  <path
     d="m 381.00119,45.975984 c -1,3.57 -2,11.45 3.76,11.49 6.23,0 8.45,-9.91 9,-14.45 0.43,-3.79 -0.8,-11.9 -6.58,-10.36 -5.47,1.46 -7,11.13 -6.68,15.74 0.13,1.92 3.13,1.93 3,0 a 20.26,20.26 0 0 1 1.28,-8 c 0.87,-2.55 0.49,-3.59 3.65,-2.64 1.87,-0.19 2.66,0.49 2.36,2.05 a 11,11 0 0 1 -0.17,4.15 22.84,22.84 0 0 1 -2.16,6.95 10.05,10.05 0 0 1 -1.66,2.38 l -3.74,-1.92 c -0.5,-0.91 0.58,-3.69 0.82,-4.59 a 1.5,1.5 0 0 0 -2.89,-0.8 z"
     id="path35840" />
  <path
     d="m 405.74119,39.005984 c 0.12,-3 -1.77,-6.28 -5.21,-5.71 -3.44,0.57 -4.85,4.49 -5.33,7.41 -0.66,4 -1.57,10.33 0.26,14.11 1.83,3.78 5.83,3.54 9.26,2.44 1.83,-0.59 1,-3.49 -0.8,-2.89 -1.42,0.83 -2.67,0.46 -3.76,-1.13 q -2.88,-0.48 -2.45,-2.82 c -0.33,-1.14 0,-2.8 0,-4 0,-1.32 0.07,-2.66 0.22,-4 l 0.48,-2.72 q 0.92,-5.2 4.29,-0.76 c -0.09,1.93 2.91,1.93 3,0 z"
     id="path35842" />
  <path
     d="m 410.57119,45.965984 c 4.5,-1.22 10.7,-4.74 8,-10.3 -1.81,-3.74 -6.06,-3.58 -8.5,-0.56 -1.86,2.31 -2.25,5.42 -2.27,8.28 0,3.05 -0.16,7.26 0.59,10.2 1.18,4.58 7.38,3.72 10.71,2.28 1.76,-0.76 0.24,-3.35 -1.52,-2.59 -3.34,1.44 -5.69,0.86 -6.3,-2.66 a 47.13,47.13 0 0 1 -0.46,-6.5 16.85,16.85 0 0 1 0.21,-3.4 c 0.42,-2.42 0.39,-3.2 3,-3.2 2.09,-0.65 2.61,-0.17 1.58,1.46 a 2.08,2.08 0 0 1 -1.4,2.1 11.38,11.38 0 0 1 -4.49,2 1.5,1.5 0 0 0 0.8,2.89 z"
     id="path35844" />
  <path
     d="m 431.22119,39.805984 c 0.1,-6.47 -8.27,-8.31 -9.88,-1.65 -0.7,2.93 1.75,5.69 3.51,7.75 1.27,1.48 2.91,2.75 4.05,4.33 a 3.19,3.19 0 0 1 1.2,2.39 c 0.93,1.43 0.6,1.93 -1,1.5 -1.09,0.4 -3.05,0 -4.18,0 a 1.5,1.5 0 0 0 0,3 c 3.63,0 10.63,0.9 8.76,-5 -0.73,-2.29 -2.72,-4.07 -4.32,-5.77 a 40.35,40.35 0 0 1 -3.68,-4.17 18.81,18.81 0 0 1 -1.28,-2.11 c -0.75,-2.18 0.5,-2.28 3.78,-0.3 0,1.94 3,1.94 3,0 z"
     id="path35846" />
  <path
     d="m 445.18119,39.045984 c 0.23,-6 -6.21,-8.16 -9.7,-3.21 -1.7,2.4 -1.31,4.26 0.63,6.26 1.78,1.83 3.88,3.28 5.42,5.36 0.73,1 2.23,2.83 2,4.19 -0.5,3.2 -3.67,2.33 -5.76,1.61 -1.82,-0.63 -2.61,2.27 -0.79,2.89 4,1.39 9.77,1.83 9.66,-3.73 a 12.57,12.57 0 0 0 -2.86,-7 31.84,31.84 0 0 0 -4,-4 q -1.1,-1 -2.13,-2 0.42,-5.58 4.48,-0.42 c -0.08,1.93 2.92,1.92 3,0 z"
     id="path35848" />
  <path
     d="m 300.80119,203.94599 c -2.47,4.9 -2.56,9.91 -2.07,15.29 0.66,7.24 1.05,14.15 0,21.39 -0.29,1.89 2.6,2.7 2.89,0.79 a 72.21,72.21 0 0 0 0.63,-17.38 c -0.55,-6.28 -1.79,-12.69 1.18,-18.58 0.87,-1.72 -1.72,-3.24 -2.59,-1.51 z"
     id="path35862" />
  <path
     d="m 300.14119,208.45599 c 4.47,-4.08 10.78,-1.77 13.5,3.12 3.78,6.79 -5.42,10 -10.6,10 a 1.5,1.5 0 0 0 0,3 17.61,17.61 0 0 0 12.16,-4.41 c 3,-2.71 3.13,-5.64 1.47,-9.18 -3.36,-7.22 -12.44,-10.29 -18.65,-4.62 -1.43,1.3 0.69,3.42 2.12,2.12 z"
     id="path35864" />
  <path
     d="m 327.63119,188.88599 a 64.21,64.21 0 0 0 -2.61,38.25 l 2.89,-0.8 -0.18,-0.76 c -0.45,-1.88 -3.35,-1.08 -2.89,0.8 l 0.18,0.76 c 0.45,1.87 3.34,1.08 2.89,-0.8 a 61.42,61.42 0 0 1 2.61,-36.65 c 0.7,-1.8 -2.2,-2.58 -2.89,-0.8 z"
     id="path35866" />
  <path
     d="m 338.68119,201.25599 -8.31,22.52 a 1.51,1.51 0 0 0 1.44,1.9 90.8,90.8 0 0 1 19.43,-0.22 c 1.38,0.14 1.85,-1.68 1.06,-2.56 a 31.55,31.55 0 0 1 -8.24,-20.52 c -0.06,-1.93 -3.06,-1.93 -3,0 a 34.88,34.88 0 0 0 9.12,22.65 l 1.06,-2.57 a 90.8,90.8 0 0 0 -19.43,0.22 l 1.45,1.9 8.31,-22.52 c 0.67,-1.81 -2.22,-2.6 -2.89,-0.8 z"
     id="path35868" />
  <path
     d="m 355.87119,191.49599 c -0.65,5.77 -1.21,11.54 -1.63,17.33 -0.31,4.4 -1.73,10.51 -0.44,14.72 a 1.51,1.51 0 0 0 1.05,1 c 2.7,0.55 5.58,-0.13 8.2,-0.83 a 1.5,1.5 0 0 0 -0.8,-2.89 c -1,0.26 -3.56,1.29 -4.42,0.88 -1.82,-0.87 -1.19,-2.7 -1.12,-4.24 0.15,-2.9 0.32,-5.79 0.53,-8.68 0.42,-5.79 1,-11.56 1.63,-17.33 0.21,-1.92 -2.79,-1.9 -3,0 z"
     id="path35870" />
  <path
     d="m 349.91119,206.82599 12.74,-0.38 c 1.93,-0.06 1.93,-3.06 0,-3 l -12.74,0.38 c -1.93,0.05 -1.93,3.05 0,3 z"
     id="path35872" />
  <path
     d="m 368.64119,221.37599 a 23.06,23.06 0 0 0 3.62,-9.59 l -2.95,-0.4 q 0.21,7.46 0,14.91 l 1.5,-1.5 -3.59,0.28 c -1.9,0.15 -2,3 0,3 a 32.73,32.73 0 0 1 7,0.78 c 1.88,0.42 2.68,-2.47 0.79,-2.89 a 36.15,36.15 0 0 0 -7.83,-0.89 v 3 l 3.59,-0.28 a 1.55,1.55 0 0 0 1.5,-1.5 q 0.2,-7.46 0,-14.91 c -0.05,-1.6 -2.7,-2.14 -2.95,-0.4 a 21,21 0 0 1 -3.31,8.87 c -1.06,1.62 1.54,3.13 2.59,1.52 z"
     id="path35874" />
  <path
     d="m 379.85119,225.54599 a 3.59,3.59 0 0 1 -0.7,4.91 c -1.49,1.24 0.65,3.36 2.12,2.13 a 6.56,6.56 0 0 0 1.17,-8.55 c -1.09,-1.59 -3.69,-0.09 -2.59,1.51 z"
     id="path35876" />
  <path
     d="m 388.22119,205.52599 c 2.72,7.43 5.2,16.65 12.35,21.06 1.64,1 3.15,-1.58 1.51,-2.59 -6.36,-3.93 -8.55,-12.67 -11,-19.27 -0.66,-1.8 -3.56,-1 -2.89,0.8 z"
     id="path35878" />
  <path
     d="m 400.20119,203.74599 c -5.42,5.64 -8.48,13.88 -12.1,20.72 -0.9,1.7 1.69,3.22 2.59,1.51 3.47,-6.56 6.44,-14.71 11.63,-20.11 1.33,-1.39 -0.78,-3.51 -2.12,-2.12 z"
     id="path35880" />
  <path
     d="m 429.80119,183.34599 c 2.65,5.93 6.23,11.1 7.67,17.57 a 33.86,33.86 0 0 1 0.77,9.78 c -0.19,2.68 -1.09,10.41 -3.58,12 l 1.82,0.23 -0.25,-0.19 c -1.5,-1.19 -3.64,0.92 -2.12,2.12 l 0.25,0.19 a 1.55,1.55 0 0 0 1.81,0.24 c 2.17,-1.37 3.15,-5.11 3.84,-7.45 a 34.31,34.31 0 0 0 1.1,-13.1 c -0.93,-8.73 -5.26,-15.13 -8.72,-22.89 -0.78,-1.76 -3.37,-0.24 -2.59,1.51 z"
     id="path35882" />
  <path
     d="m 408.85119,225.54599 a 3.59,3.59 0 0 1 -0.7,4.91 c -1.49,1.24 0.65,3.36 2.12,2.13 a 6.56,6.56 0 0 0 1.17,-8.55 c -1.09,-1.59 -3.69,-0.09 -2.59,1.51 z"
     id="path35884" />
  <path
     d="m 123.31119,338.17599 c -0.42,3.37 -0.75,12.54 4.76,12.81 5.07,0.25 5.06,-10.36 5.06,-13.32 h -2.4 a 82.19,82.19 0 0 1 -0.35,10.41 c -0.15,1.49 0,4.5 -0.82,5.88 -1,1.81 -2.65,1.13 -4.34,1 -1.54,-0.11 -1.53,2.29 0,2.4 3.67,0.27 6,0.64 6.77,-3.45 a 77,77 0 0 0 1.14,-16.25 1.2,1.2 0 0 0 -2.4,0 c 0,2.37 0.47,9.27 -2.45,9.94 -3.69,0.84 -2.86,-7.1 -2.57,-9.43 0.19,-1.52 -2.22,-1.51 -2.4,0 z"
     id="path35886" />
  <path
     d="m 415.09119,205.30599 c -0.62,5.09 -1.17,10.46 1.09,15.26 1.12,2.37 3.69,6.23 6.73,6.06 3.04,-0.17 4.75,-4.23 5.66,-6.68 1.84,-4.93 1.87,-10.34 1.86,-15.52 h -3 a 145.21,145.21 0 0 1 -0.63,18.06 c -0.3,3 -0.07,7.32 -1.37,10 -1.56,3.19 -4.53,2.37 -7.69,2.13 -1.93,-0.14 -1.92,2.86 0,3 6.68,0.51 9.68,1 10.9,-6.21 a 139.83,139.83 0 0 0 1.75,-27 1.5,1.5 0 0 0 -3,0 c 0,4.55 0.78,13.63 -2.87,17.1 -4,3.8 -6.3,-3.21 -6.77,-6.17 a 36.4,36.4 0 0 1 0.3,-10.05 c 0.23,-1.91 -2.77,-1.9 -3,0 z"
     id="path35888" />
  <path
     d="m 327.63119,335.88599 a 64.21,64.21 0 0 0 -2.61,38.25 l 2.89,-0.8 -0.18,-0.76 c -0.45,-1.88 -3.35,-1.08 -2.89,0.8 l 0.18,0.76 c 0.45,1.87 3.34,1.08 2.89,-0.8 a 61.42,61.42 0 0 1 2.61,-36.65 c 0.7,-1.8 -2.2,-2.58 -2.89,-0.8 z"
     id="path35890" />
  <path
     d="m 338.68119,348.25599 -8.31,22.52 a 1.51,1.51 0 0 0 1.44,1.9 90.8,90.8 0 0 1 19.43,-0.22 c 1.38,0.14 1.85,-1.68 1.06,-2.56 a 31.55,31.55 0 0 1 -8.24,-20.52 c -0.06,-1.93 -3.06,-1.93 -3,0 a 34.88,34.88 0 0 0 9.12,22.65 l 1.06,-2.57 a 90.8,90.8 0 0 0 -19.43,0.22 l 1.45,1.9 8.31,-22.52 c 0.67,-1.81 -2.22,-2.6 -2.89,-0.8 z"
     id="path35892" />
  <path
     d="m 355.87119,338.49599 c -0.65,5.77 -1.21,11.54 -1.63,17.33 -0.31,4.4 -1.73,10.51 -0.44,14.72 a 1.51,1.51 0 0 0 1.05,1 c 2.7,0.55 5.58,-0.13 8.2,-0.83 a 1.5,1.5 0 0 0 -0.8,-2.89 c -1,0.26 -3.56,1.29 -4.42,0.88 -1.82,-0.87 -1.19,-2.7 -1.12,-4.24 0.15,-2.9 0.32,-5.79 0.53,-8.68 0.42,-5.79 1,-11.56 1.63,-17.33 0.21,-1.92 -2.79,-1.9 -3,0 z"
     id="path35894" />
  <path
     d="m 349.91119,353.82599 12.74,-0.38 c 1.93,-0.06 1.93,-3.06 0,-3 l -12.74,0.38 c -1.93,0.05 -1.93,3.05 0,3 z"
     id="path35896" />
  <path
     d="m 379.85119,372.54599 a 3.59,3.59 0 0 1 -0.7,4.91 c -1.49,1.24 0.65,3.36 2.12,2.13 a 6.56,6.56 0 0 0 1.17,-8.55 c -1.09,-1.59 -3.69,-0.09 -2.59,1.51 z"
     id="path35898" />
  <path
     d="m 429.80119,330.34599 c 2.65,5.93 6.23,11.1 7.67,17.57 a 33.86,33.86 0 0 1 0.77,9.78 c -0.19,2.68 -1.09,10.41 -3.58,12 l 1.82,0.23 -0.25,-0.19 c -1.5,-1.19 -3.64,0.92 -2.12,2.12 l 0.25,0.19 a 1.55,1.55 0 0 0 1.81,0.24 c 2.17,-1.37 3.15,-5.11 3.84,-7.45 a 34.31,34.31 0 0 0 1.1,-13.1 c -0.93,-8.73 -5.26,-15.13 -8.72,-22.89 -0.78,-1.76 -3.37,-0.24 -2.59,1.51 z"
     id="path35900" />
  <path
     d="m 408.85119,372.54599 a 3.59,3.59 0 0 1 -0.7,4.91 c -1.49,1.24 0.65,3.36 2.12,2.13 a 6.56,6.56 0 0 0 1.17,-8.55 c -1.09,-1.59 -3.69,-0.09 -2.59,1.51 z"
     id="path35902" />
  <path
     d="m 387.09119,352.30599 c -0.62,5.09 -1.17,10.46 1.09,15.26 1.12,2.37 3.69,6.23 6.73,6.06 3.04,-0.17 4.75,-4.23 5.66,-6.68 1.84,-4.93 1.87,-10.34 1.86,-15.52 h -3 a 145.21,145.21 0 0 1 -0.63,18.06 c -0.3,3 -0.07,7.32 -1.37,10 -1.56,3.19 -4.53,2.37 -7.69,2.13 -1.93,-0.14 -1.92,2.86 0,3 6.68,0.51 9.68,1 10.9,-6.21 a 139.83,139.83 0 0 0 1.75,-27 1.5,1.5 0 0 0 -3,0 c 0,4.55 0.78,13.63 -2.87,17.1 -4,3.8 -6.3,-3.21 -6.77,-6.17 a 36.4,36.4 0 0 1 0.3,-10.05 c 0.23,-1.91 -2.77,-1.9 -3,0 z"
     id="path35904" />
  <path
     d="m 364.80119,359.06599 a 122.78,122.78 0 0 1 -0.55,18.09 c -0.2,1.92 2.8,1.9 3,0 a 122.78,122.78 0 0 0 0.55,-18.09 c -0.08,-1.93 -3.08,-1.94 -3,0 z"
     id="path35906" />
  <path
     d="m 371.34119,360.99599 a 28,28 0 0 1 -5.44,9.74 1.51,1.51 0 0 0 1.46,2.51 c 3,-0.51 5,1.87 6.19,4.22 0.9,1.71 3.49,0.2 2.59,-1.51 -1.94,-3.72 -5.24,-6.35 -9.58,-5.6 l 1.46,2.5 a 32,32 0 0 0 6.22,-11.07 c 0.62,-1.83 -2.28,-2.61 -2.9,-0.79 z"
     id="path35908" />
  <path
     d="m 418.16119,352.49599 a 94.94,94.94 0 0 0 10.8,0.28 l -1.45,-1.9 c -0.82,3.38 -4.21,6.49 -6.15,9.32 -1.94,2.83 -3.9,6 -5.69,9.12 a 1.51,1.51 0 0 0 1.3,2.25 l 12.29,0.23 c 1.93,0 1.93,-3 0,-3 l -12.29,-0.23 1.29,2.26 c 2,-3.52 4.18,-7 6.51,-10.29 1.95,-2.8 4.81,-5.49 5.64,-8.86 a 1.52,1.52 0 0 0 -1.45,-1.9 94.94,94.94 0 0 1 -10.8,-0.28 c -1.92,-0.16 -1.91,2.84 0,3 z"
     id="path35910" />
  <path
     d="m 421.11119,361.82599 a 8.87,8.87 0 0 1 4,-0.13 c 1.89,0.37 2.7,-2.52 0.8,-2.89 a 12.33,12.33 0 0 0 -5.57,0.13 c -1.87,0.47 -1.08,3.36 0.8,2.89 z"
     id="path35912" />
  <path
     d="m 259.80119,111.18599 c 1.55,8.12 4.92,16 7.6,23.79 l 8.33,24.23 c 0.52,1.5 3.07,1.38 2.94,-0.4 l -0.16,-2.32 c -0.14,-1.92 -3.14,-1.93 -3,0 l 0.16,2.32 2.95,-0.4 -8.33,-24.23 c -2.67,-7.79 -6.05,-15.67 -7.6,-23.78 -0.36,-1.9 -3.25,-1.1 -2.89,0.79 z"
     id="path36000" />
  <path
     d="m 280.94119,109.61599 c -2.86,3 -4.15,7.1 -5.8,10.87 q -3.13,7.22 -6.26,14.43 l -6.24,14.44 c -1.36,3.15 -4.07,7.09 -4.1,10.56 a 1.53,1.53 0 0 0 2.26,1.3 l 0.26,-0.11 a 1.52,1.52 0 0 0 0.69,-1.7 l -0.07,-0.21 c -0.61,-1.82 -3.51,-1 -2.9,0.8 l 0.07,0.21 0.69,-1.69 -0.26,0.11 2.26,1.29 c 0,-2.21 2.05,-5.23 2.91,-7.24 l 2.34,-5.42 5.07,-11.73 q 2.55,-5.85 5.09,-11.72 c 1.73,-4 3.11,-8.87 6.12,-12.07 1.32,-1.4 -0.8,-3.53 -2.13,-2.12 z"
     id="path36002" />
  <path
     d="m 290.67119,109.88599 a 56.11,56.11 0 0 0 -5.65,29.05 94.56,94.56 0 0 0 2.47,14.95 c 0.67,2.81 1.33,5.88 4.21,7.07 a 1.52,1.52 0 0 0 1.46,-0.39 l 0.52,-0.41 c 1.52,-1.19 -0.62,-3.3 -2.12,-2.12 0.47,-0.37 -2.29,-10 -2.51,-11.22 a 69.64,69.64 0 0 1 -1.25,-12.43 52.21,52.21 0 0 1 5.42,-22.95 c 0.84,-1.73 -1.74,-3.25 -2.59,-1.51 z"
     id="path36004" />
  <path
     d="m 332.80119,111.62599 c 2.73,16.55 3.73,32.78 -2.5,48.69 -0.7,1.79 2.2,2.57 2.9,0.79 6.42,-16.4 5.31,-33.22 2.49,-50.27 -0.31,-1.9 -3.2,-1.1 -2.89,0.79 z"
     id="path36006" />
  <path
     d="m 304.05119,111.64599 a 209.66,209.66 0 0 0 -4.47,36 c -0.1,2.94 -1.08,8 1.81,10 2.89,2 7.91,0.39 10.79,-0.84 1.77,-0.75 0.24,-3.34 -1.51,-2.59 -2.55,1.08 -6.88,2.47 -8.18,-1.2 -0.44,-1.22 0.05,-4.11 0.09,-5.35 q 0.21,-5.76 0.74,-11.51 a 199.26,199.26 0 0 1 3.63,-23.69 c 0.4,-1.88 -2.49,-2.69 -2.9,-0.8 z"
     id="path36008" />
  <path
     d="m 293.80119,135.79599 a 28.09,28.09 0 0 1 17.27,-0.7 1.51,1.51 0 0 0 0.8,-2.9 31,31 0 0 0 -18.87,0.7 c -1.8,0.64 -1,3.54 0.8,2.9 z"
     id="path36010" />
  <path
     d="m 316.32119,145.47599 c -3,4.14 -3,11.81 0,16 3.37,4.67 8.41,1.28 10.13,-2.93 2.06,-5 1.75,-14.42 -3.21,-17.89 -5.31,-3.73 -9.2,3.66 -10,7.9 -0.36,1.88 2.53,2.69 2.9,0.79 0.6,-3.13 3.82,-9.93 6.86,-4.39 a 16,16 0 0 1 1,11.77 c -0.44,1.38 -1.77,4.23 -3.59,4.09 -1.82,-0.14 -2.51,-2.88 -2.8,-4.26 -0.67,-3.07 -0.53,-6.89 1.35,-9.51 1.12,-1.57 -1.48,-3.07 -2.59,-1.52 z"
     id="path36012" />
  <path
     d="m 259.80119,268.18599 c 1.55,8.12 4.92,16 7.6,23.79 l 8.33,24.23 c 0.52,1.5 3.07,1.38 2.94,-0.4 l -0.16,-2.32 c -0.14,-1.92 -3.14,-1.93 -3,0 l 0.16,2.32 2.95,-0.4 -8.33,-24.23 c -2.67,-7.79 -6.05,-15.67 -7.6,-23.78 -0.36,-1.9 -3.25,-1.1 -2.89,0.79 z"
     id="path36014" />
  <path
     d="m 280.94119,266.61599 c -2.86,3 -4.15,7.1 -5.8,10.87 q -3.13,7.22 -6.26,14.43 l -6.24,14.44 c -1.36,3.15 -4.07,7.09 -4.1,10.56 a 1.53,1.53 0 0 0 2.26,1.3 l 0.26,-0.11 a 1.52,1.52 0 0 0 0.69,-1.7 l -0.07,-0.21 c -0.61,-1.82 -3.51,-1 -2.9,0.8 l 0.07,0.21 0.69,-1.69 -0.26,0.11 2.26,1.29 c 0,-2.21 2.05,-5.23 2.91,-7.24 l 2.34,-5.42 5.07,-11.73 q 2.55,-5.85 5.09,-11.72 c 1.73,-4 3.11,-8.87 6.12,-12.07 1.32,-1.4 -0.8,-3.53 -2.13,-2.12 z"
     id="path36016" />
  <path
     d="m 290.67119,266.88599 a 56.11,56.11 0 0 0 -5.65,29 94.56,94.56 0 0 0 2.47,15 c 0.67,2.81 1.33,5.88 4.21,7.07 a 1.52,1.52 0 0 0 1.46,-0.39 l 0.52,-0.41 c 1.52,-1.19 -0.62,-3.3 -2.12,-2.12 0.47,-0.37 -2.29,-10 -2.51,-11.22 a 69.64,69.64 0 0 1 -1.25,-12.43 52.21,52.21 0 0 1 5.42,-22.95 c 0.84,-1.73 -1.74,-3.25 -2.59,-1.51 z"
     id="path36018" />
  <path
     d="m 332.80119,268.62599 c 2.73,16.55 3.73,32.78 -2.5,48.69 -0.7,1.79 2.2,2.57 2.9,0.79 6.42,-16.4 5.31,-33.22 2.49,-50.27 -0.31,-1.9 -3.2,-1.1 -2.89,0.79 z"
     id="path36020" />
  <path
     d="m 306.17119,269.23599 a 215.54,215.54 0 0 0 -4.47,36.51 c -0.1,2.95 -1.1,8.05 1.81,10.1 2.91,2.05 7.91,0.39 10.79,-0.85 1.77,-0.76 0.24,-3.35 -1.51,-2.59 -2.59,1.12 -6.88,2.49 -8.18,-1.23 -0.44,-1.25 0.05,-4.16 0.09,-5.43 q 0.23,-5.85 0.74,-11.68 a 205.37,205.37 0 0 1 3.63,-24 c 0.39,-1.88 -2.5,-2.68 -2.9,-0.79 z"
     id="path36022" />
  <path
     d="m 295.87119,293.69599 a 27.83,27.83 0 0 1 17.28,-0.71 1.5,1.5 0 0 0 0.79,-2.89 30.49,30.49 0 0 0 -18.86,0.71 c -1.81,0.65 -1,3.55 0.79,2.89 z"
     id="path36024" />
  <path
     d="m 317.88119,311.88599 a 20.58,20.58 0 0 0 6.69,-12.36 l -2.95,-0.4 c -0.07,5.27 0.14,10.62 -0.22,15.87 -0.06,0.77 0.11,3.07 -0.67,3.53 -0.32,0.18 -1.67,-0.21 -2.12,-0.18 a 3.84,3.84 0 0 0 -2.71,1.08 1.51,1.51 0 0 0 1.06,2.56 l 9.11,0.08 a 1.5,1.5 0 0 0 0,-3 l -9.11,-0.08 1.06,2.56 c 0.94,-0.81 3.31,0.27 4.55,-0.3 1.24,-0.57 1.59,-1.54 1.76,-2.88 0.78,-6.23 0.2,-12.95 0.29,-19.24 0,-1.64 -2.68,-2.1 -2.95,-0.4 a 18.05,18.05 0 0 1 -5.91,11 c -1.43,1.31 0.69,3.43 2.12,2.13 z"
     id="path36026" />
  <path
     d="m 259.80119,418.18599 c 1.55,8.12 4.92,16 7.6,23.79 l 8.33,24.23 c 0.52,1.5 3.07,1.38 2.94,-0.4 l -0.16,-2.32 c -0.14,-1.92 -3.14,-1.93 -3,0 l 0.16,2.32 2.95,-0.4 -8.33,-24.23 c -2.67,-7.79 -6.05,-15.67 -7.6,-23.78 -0.36,-1.9 -3.25,-1.1 -2.89,0.79 z"
     id="path36028" />
  <path
     d="m 280.94119,416.61599 c -2.86,3 -4.15,7.1 -5.8,10.87 q -3.13,7.21 -6.26,14.43 l -6.24,14.44 c -1.36,3.15 -4.07,7.09 -4.1,10.56 a 1.53,1.53 0 0 0 2.26,1.3 l 0.26,-0.11 a 1.52,1.52 0 0 0 0.69,-1.7 l -0.07,-0.21 c -0.61,-1.82 -3.51,-1 -2.9,0.8 l 0.07,0.21 0.69,-1.69 -0.26,0.11 2.26,1.29 c 0,-2.21 2.05,-5.23 2.91,-7.24 l 2.34,-5.42 5.07,-11.73 q 2.55,-5.85 5.09,-11.72 c 1.73,-4 3.11,-8.87 6.12,-12.07 1.32,-1.4 -0.8,-3.53 -2.13,-2.12 z"
     id="path36030" />
  <path
     d="m 290.67119,416.88599 a 56.11,56.11 0 0 0 -5.65,29.05 94.56,94.56 0 0 0 2.47,14.95 c 0.67,2.81 1.33,5.88 4.21,7.07 a 1.52,1.52 0 0 0 1.46,-0.39 l 0.52,-0.41 c 1.52,-1.19 -0.62,-3.3 -2.12,-2.12 0.47,-0.37 -2.29,-10 -2.51,-11.22 a 69.64,69.64 0 0 1 -1.25,-12.43 52.21,52.21 0 0 1 5.42,-23 c 0.84,-1.73 -1.74,-3.25 -2.59,-1.51 z"
     id="path36032" />
  <path
     d="m 332.80119,418.62599 c 2.73,16.55 3.73,32.78 -2.5,48.69 -0.7,1.79 2.2,2.57 2.9,0.79 6.42,-16.4 5.31,-33.22 2.49,-50.27 -0.31,-1.9 -3.2,-1.1 -2.89,0.79 z"
     id="path36034" />
  <path
     d="m 304.08119,420.74599 a 213.94,213.94 0 0 0 -4.47,36.47 c -0.11,2.95 -1.1,8 1.81,10.09 2.91,2.09 7.91,0.39 10.78,-0.85 1.77,-0.76 0.25,-3.35 -1.51,-2.59 -2.58,1.11 -6.87,2.49 -8.18,-1.23 -0.44,-1.25 0.05,-4.16 0.1,-5.42 q 0.21,-5.85 0.73,-11.67 a 207.32,207.32 0 0 1 3.63,-24 c 0.4,-1.88 -2.49,-2.68 -2.89,-0.79 z"
     id="path36036" />
  <path
     d="m 293.80119,445.18599 a 27.73,27.73 0 0 1 17.27,-0.71 1.5,1.5 0 0 0 0.8,-2.89 30.59,30.59 0 0 0 -18.87,0.7 c -1.8,0.65 -1,3.55 0.8,2.9 z"
     id="path36038" />
  <path
     d="m 315.24119,448.60599 a 154.53,154.53 0 0 1 -0.83,25.08 c -0.22,1.92 2.78,1.9 3,0 a 154.53,154.53 0 0 0 0.83,-25.08 c -0.09,-1.92 -3.09,-1.94 -3,0 z"
     id="path36040" />
  <path
     d="m 325.20119,451.43599 a 38.81,38.81 0 0 1 -8.49,13.77 1.52,1.52 0 0 0 1.46,2.51 c 4.67,-0.77 8.14,2.31 10.3,6.11 a 1.5,1.5 0 0 0 2.59,-1.51 c -2.9,-5.11 -7.66,-8.48 -13.69,-7.5 l 1.46,2.51 a 42.17,42.17 0 0 0 9.26,-15.09 c 0.67,-1.82 -2.23,-2.6 -2.89,-0.8 z"
     id="path36042" />
  <path
     d="m 211.04119,147.29599 a 26.6,26.6 0 0 1 3,-6.83 c 1.56,-2.46 2.48,-3.87 5.52,-3 3.04,0.87 1.83,0.34 2.62,2.32 1,2.42 0.6,5 2.85,6.75 5.75,4.6 11,-2.74 13,-7.33 0.75,-1.75 -1.83,-3.28 -2.59,-1.51 a 25,25 0 0 1 -1.26,2.79 5.31,5.31 0 0 1 -2.42,2.72 c -1.15,1.87 -2.44,1.88 -3.87,0 -2.91,-1.77 -2.22,-2.54 -3.07,-5.39 -0.65,-2.23 -2,-4.22 -4.4,-4.68 -6.78,-1.26 -10.77,8.38 -12.23,13.31 -0.55,1.85 2.34,2.64 2.89,0.79 z"
     id="path36044" />
  <path
     d="m 213.15119,299.13599 c 1.84,-4.38 7,-13.29 12.37,-6.48 1.38,1.76 1.34,3.64 3.76,4.58 5,1.94 8.32,-3.31 9.94,-7.09 0.75,-1.75 -1.83,-3.28 -2.59,-1.51 a 26.43,26.43 0 0 1 -1.35,2.91 q -5.91,3.93 -7.17,-0.4 c -0.7,-0.79 -0.93,-1.62 -1.76,-2.32 a 7.53,7.53 0 0 0 -5.95,-1.44 c -5.65,0.82 -8.17,6.26 -10.15,10.95 -0.75,1.78 2.16,2.55 2.9,0.8 z"
     id="path36046" />
  <path
     d="m 210.34119,447.79599 a 26.39,26.39 0 0 1 7.65,-9.26 l -1.82,-0.24 c 2.54,3 0.9,8.14 6.07,8.63 1.93,0.18 3.76,-0.82 5.32,-1.85 1.4,-0.93 5.46,-5.77 7.11,-5.69 l -1.45,-1.1 0.2,-0.78 1.82,-0.23 -0.25,-0.13 c -1.71,-0.89 -3.23,1.7 -1.51,2.59 l 0.25,0.13 a 1.56,1.56 0 0 0 1.82,-0.23 2,2 0 0 0 0.57,-2.15 1.56,1.56 0 0 0 -1.45,-1.1 c -2.76,-0.14 -5.19,3.33 -7.11,4.86 -2.13,1.7 -2.24,2.3 -5,1 -3.24,-1.55 -1.56,-0.72 -2.56,-2.86 a 12.13,12.13 0 0 0 -1.73,-3.2 1.5,1.5 0 0 0 -1.82,-0.23 29.82,29.82 0 0 0 -8.65,10.32 c -0.88,1.72 1.71,3.24 2.59,1.52 z"
     id="path36048" />
  <metadata
     id="metadata38672">
    <rdf:RDF>
      <cc:Work
         rdf:about="">
        <dc:title>hmm</dc:title>
      </cc:Work>
    </rdf:RDF>
  </metadata>
</svg>
