<?xml version="1.0" encoding="UTF-8" standalone="no"?>
<svg
   viewBox="0 0 450 520.00001"
   version="1.1"
   id="svg36235"
   sodipodi:docname="WF_2.svg"
   width="450"
   height="520"
   inkscape:version="1.2.2 (1:1.2.2+202212051552+b0a8486541)"
   xmlns:inkscape="http://www.inkscape.org/namespaces/inkscape"
   xmlns:sodipodi="http://sodipodi.sourceforge.net/DTD/sodipodi-0.dtd"
   xmlns="http://www.w3.org/2000/svg"
   xmlns:svg="http://www.w3.org/2000/svg"
   xmlns:rdf="http://www.w3.org/1999/02/22-rdf-syntax-ns#"
   xmlns:cc="http://creativecommons.org/ns#"
   xmlns:dc="http://purl.org/dc/elements/1.1/">
  <sodipodi:namedview
     id="namedview36237"
     pagecolor="#ffffff"
     bordercolor="#000000"
     borderopacity="0.25"
     inkscape:showpageshadow="2"
     inkscape:pageopacity="0.0"
     inkscape:pagecheckerboard="0"
     inkscape:deskcolor="#d1d1d1"
     showgrid="false"
     inkscape:zoom="0.38832396"
     inkscape:cx="704.30885"
     inkscape:cy="193.13771"
     inkscape:window-width="1223"
     inkscape:window-height="779"
     inkscape:window-x="57"
     inkscape:window-y="21"
     inkscape:window-maximized="1"
     inkscape:current-layer="svg36235" />
  <defs
     id="defs35209">
    <style
       id="style35198">.cls-1,.cls-11,.cls-13,.cls-20,.cls-21,.cls-22,.cls-6,.cls-7,.cls-8,.cls-9{fill:none;}.cls-10,.cls-18,.cls-2{fill:#1f77b4;}.cls-2,.cls-3,.cls-4{opacity:0.3;}.cls-12,.cls-16,.cls-3{fill:#ff7f0e;}.cls-14,.cls-19,.cls-4{fill:#2ca02c;}.cls-5{clip-path:url(#clip-path);}.cls-11,.cls-6{stroke:#ff7f0e;}.cls-20,.cls-6,.cls-7,.cls-8{stroke-linejoin:round;}.cls-6,.cls-7,.cls-8{stroke-dasharray:3.7 1.6;}.cls-7,.cls-9{stroke:#1f77b4;}.cls-13,.cls-8{stroke:#2ca02c;}.cls-11,.cls-13,.cls-21,.cls-22,.cls-9{stroke-miterlimit:10;}.cls-10,.cls-12,.cls-14{opacity:0.5;}.cls-15{clip-path:url(#clip-path-13);}.cls-17{clip-path:url(#clip-path-14);}.cls-20,.cls-21,.cls-22{stroke:#000;}.cls-20,.cls-21{stroke-width:3px;}.cls-21{stroke-linecap:square;}.cls-22{stroke-width:4px;}</style>
    <clipPath
       id="clip-path"
       transform="translate(-8.19 -3.86)">
      <rect
         class="cls-1"
         x="1981.51"
         y="138"
         width="285.54001"
         height="354.03"
         id="rect35200" />
    </clipPath>
    <clipPath
       id="clip-path-13"
       transform="translate(-8.19 -3.86)">
      <rect
         class="cls-1"
         x="1981.51"
         y="140"
         width="285.54001"
         height="354.03"
         id="rect35203" />
    </clipPath>
    <clipPath
       id="clip-path-14"
       transform="translate(-8.19 -3.86)">
      <rect
         class="cls-1"
         x="1981.51"
         y="136"
         width="285.54001"
         height="354.03"
         id="rect35206" />
    </clipPath>
  </defs>
  <title
     id="title35211">hmm</title>
  <path
     d="m 282.80119,184.69599 c -2.18,21.61 2.57,43.57 -2.55,64.92 l 2.74,-0.36 a 56.34,56.34 0 0 1 -5.56,-11.37 c -0.64,-1.8 -3.42,-1.09 -2.9,0.79 a 23,23 0 0 0 8.13,12.29 1.52,1.52 0 0 0 2.56,-1.06 c 0.38,-6.41 6.81,-7.69 8.32,-13.26 a 1.51,1.51 0 0 0 -2.9,-0.8 c -0.89,3.29 -4.48,4.65 -6.32,7.28 a 12.72,12.72 0 0 0 -2.1,6.78 l 2.58,-1.02 a 20.33,20.33 0 0 1 -7.35,-11 l -2.9,0.79 a 60.67,60.67 0 0 0 5.87,12.07 1.52,1.52 0 0 0 2.75,-0.36 c 5.18,-21.62 0.44,-43.82 2.65,-65.71 0.2,-1.92 -2.8,-1.91 -3,0 z"
     id="path35762" />
  <path
     d="m 300.80119,203.94599 c -2.47,4.9 -2.56,9.91 -2.07,15.29 0.66,7.24 1.05,14.15 0,21.39 -0.29,1.89 2.6,2.7 2.89,0.79 a 72.21,72.21 0 0 0 0.63,-17.38 c -0.55,-6.28 -1.79,-12.69 1.18,-18.58 0.87,-1.72 -1.72,-3.24 -2.59,-1.51 z"
     id="path35862" />
  <path
     d="m 300.14119,208.45599 c 4.47,-4.08 10.78,-1.77 13.5,3.12 3.78,6.79 -5.42,10 -10.6,10 a 1.5,1.5 0 0 0 0,3 17.61,17.61 0 0 0 12.16,-4.41 c 3,-2.71 3.13,-5.64 1.47,-9.18 -3.36,-7.22 -12.44,-10.29 -18.65,-4.62 -1.43,1.3 0.69,3.42 2.12,2.12 z"
     id="path35864" />
  <path
     d="m 327.63119,188.88599 a 64.21,64.21 0 0 0 -2.61,38.25 l 2.89,-0.8 -0.18,-0.76 c -0.45,-1.88 -3.35,-1.08 -2.89,0.8 l 0.18,0.76 c 0.45,1.87 3.34,1.08 2.89,-0.8 a 61.42,61.42 0 0 1 2.61,-36.65 c 0.7,-1.8 -2.2,-2.58 -2.89,-0.8 z"
     id="path35866" />
  <path
     d="m 338.68119,201.25599 -8.31,22.52 a 1.51,1.51 0 0 0 1.44,1.9 90.8,90.8 0 0 1 19.43,-0.22 c 1.38,0.14 1.85,-1.68 1.06,-2.56 a 31.55,31.55 0 0 1 -8.24,-20.52 c -0.06,-1.93 -3.06,-1.93 -3,0 a 34.88,34.88 0 0 0 9.12,22.65 l 1.06,-2.57 a 90.8,90.8 0 0 0 -19.43,0.22 l 1.45,1.9 8.31,-22.52 c 0.67,-1.81 -2.22,-2.6 -2.89,-0.8 z"
     id="path35868" />
  <path
     d="m 355.87119,191.49599 c -0.65,5.77 -1.21,11.54 -1.63,17.33 -0.31,4.4 -1.73,10.51 -0.44,14.72 a 1.51,1.51 0 0 0 1.05,1 c 2.7,0.55 5.58,-0.13 8.2,-0.83 a 1.5,1.5 0 0 0 -0.8,-2.89 c -1,0.26 -3.56,1.29 -4.42,0.88 -1.82,-0.87 -1.19,-2.7 -1.12,-4.24 0.15,-2.9 0.32,-5.79 0.53,-8.68 0.42,-5.79 1,-11.56 1.63,-17.33 0.21,-1.92 -2.79,-1.9 -3,0 z"
     id="path35870" />
  <path
     d="m 349.91119,206.82599 12.74,-0.38 c 1.93,-0.06 1.93,-3.06 0,-3 l -12.74,0.38 c -1.93,0.05 -1.93,3.05 0,3 z"
     id="path35872" />
  <path
     d="m 368.64119,221.37599 a 23.06,23.06 0 0 0 3.62,-9.59 l -2.95,-0.4 q 0.21,7.46 0,14.91 l 1.5,-1.5 -3.59,0.28 c -1.9,0.15 -2,3 0,3 a 32.73,32.73 0 0 1 7,0.78 c 1.88,0.42 2.68,-2.47 0.79,-2.89 a 36.15,36.15 0 0 0 -7.83,-0.89 v 3 l 3.59,-0.28 a 1.55,1.55 0 0 0 1.5,-1.5 q 0.2,-7.46 0,-14.91 c -0.05,-1.6 -2.7,-2.14 -2.95,-0.4 a 21,21 0 0 1 -3.31,8.87 c -1.06,1.62 1.54,3.13 2.59,1.52 z"
     id="path35874" />
  <path
     d="m 379.85119,225.54599 a 3.59,3.59 0 0 1 -0.7,4.91 c -1.49,1.24 0.65,3.36 2.12,2.13 a 6.56,6.56 0 0 0 1.17,-8.55 c -1.09,-1.59 -3.69,-0.09 -2.59,1.51 z"
     id="path35876" />
  <path
     d="m 388.22119,205.52599 c 2.72,7.43 5.2,16.65 12.35,21.06 1.64,1 3.15,-1.58 1.51,-2.59 -6.36,-3.93 -8.55,-12.67 -11,-19.27 -0.66,-1.8 -3.56,-1 -2.89,0.8 z"
     id="path35878" />
  <path
     d="m 400.20119,203.74599 c -5.42,5.64 -8.48,13.88 -12.1,20.72 -0.9,1.7 1.69,3.22 2.59,1.51 3.47,-6.56 6.44,-14.71 11.63,-20.11 1.33,-1.39 -0.78,-3.51 -2.12,-2.12 z"
     id="path35880" />
  <path
     d="m 429.80119,183.34599 c 2.65,5.93 6.23,11.1 7.67,17.57 a 33.86,33.86 0 0 1 0.77,9.78 c -0.19,2.68 -1.09,10.41 -3.58,12 l 1.82,0.23 -0.25,-0.19 c -1.5,-1.19 -3.64,0.92 -2.12,2.12 l 0.25,0.19 a 1.55,1.55 0 0 0 1.81,0.24 c 2.17,-1.37 3.15,-5.11 3.84,-7.45 a 34.31,34.31 0 0 0 1.1,-13.1 c -0.93,-8.73 -5.26,-15.13 -8.72,-22.89 -0.78,-1.76 -3.37,-0.24 -2.59,1.51 z"
     id="path35882" />
  <path
     d="m 408.85119,225.54599 a 3.59,3.59 0 0 1 -0.7,4.91 c -1.49,1.24 0.65,3.36 2.12,2.13 a 6.56,6.56 0 0 0 1.17,-8.55 c -1.09,-1.59 -3.69,-0.09 -2.59,1.51 z"
     id="path35884" />
  <path
     d="m 415.09119,205.30599 c -0.62,5.09 -1.17,10.46 1.09,15.26 1.12,2.37 3.69,6.23 6.73,6.06 3.04,-0.17 4.75,-4.23 5.66,-6.68 1.84,-4.93 1.87,-10.34 1.86,-15.52 h -3 a 145.21,145.21 0 0 1 -0.63,18.06 c -0.3,3 -0.07,7.32 -1.37,10 -1.56,3.19 -4.53,2.37 -7.69,2.13 -1.93,-0.14 -1.92,2.86 0,3 6.68,0.51 9.68,1 10.9,-6.21 a 139.83,139.83 0 0 0 1.75,-27 1.5,1.5 0 0 0 -3,0 c 0,4.55 0.78,13.63 -2.87,17.1 -4,3.8 -6.3,-3.21 -6.77,-6.17 a 36.4,36.4 0 0 1 0.3,-10.05 c 0.23,-1.91 -2.77,-1.9 -3,0 z"
     id="path35888" />
  <metadata
     id="metadata38672">
    <rdf:RDF>
      <cc:Work
         rdf:about="">
        <dc:title>hmm</dc:title>
      </cc:Work>
    </rdf:RDF>
  </metadata>
</svg>
