<?xml version="1.0" encoding="UTF-8" standalone="no"?>
<svg
   viewBox="0 0 450 520.00001"
   version="1.1"
   id="svg36235"
   sodipodi:docname="WF_3.svg"
   width="450"
   height="520"
   inkscape:version="1.2.2 (1:1.2.2+202212051552+b0a8486541)"
   xmlns:inkscape="http://www.inkscape.org/namespaces/inkscape"
   xmlns:sodipodi="http://sodipodi.sourceforge.net/DTD/sodipodi-0.dtd"
   xmlns="http://www.w3.org/2000/svg"
   xmlns:svg="http://www.w3.org/2000/svg"
   xmlns:rdf="http://www.w3.org/1999/02/22-rdf-syntax-ns#"
   xmlns:cc="http://creativecommons.org/ns#"
   xmlns:dc="http://purl.org/dc/elements/1.1/">
  <sodipodi:namedview
     id="namedview36237"
     pagecolor="#ffffff"
     bordercolor="#000000"
     borderopacity="0.25"
     inkscape:showpageshadow="2"
     inkscape:pageopacity="0.0"
     inkscape:pagecheckerboard="0"
     inkscape:deskcolor="#d1d1d1"
     showgrid="false"
     inkscape:zoom="0.38832396"
     inkscape:cx="704.30885"
     inkscape:cy="193.13771"
     inkscape:window-width="1223"
     inkscape:window-height="779"
     inkscape:window-x="57"
     inkscape:window-y="21"
     inkscape:window-maximized="1"
     inkscape:current-layer="svg36235" />
  <defs
     id="defs35209">
    <style
       id="style35198">.cls-1,.cls-11,.cls-13,.cls-20,.cls-21,.cls-22,.cls-6,.cls-7,.cls-8,.cls-9{fill:none;}.cls-10,.cls-18,.cls-2{fill:#1f77b4;}.cls-2,.cls-3,.cls-4{opacity:0.3;}.cls-12,.cls-16,.cls-3{fill:#ff7f0e;}.cls-14,.cls-19,.cls-4{fill:#2ca02c;}.cls-5{clip-path:url(#clip-path);}.cls-11,.cls-6{stroke:#ff7f0e;}.cls-20,.cls-6,.cls-7,.cls-8{stroke-linejoin:round;}.cls-6,.cls-7,.cls-8{stroke-dasharray:3.7 1.6;}.cls-7,.cls-9{stroke:#1f77b4;}.cls-13,.cls-8{stroke:#2ca02c;}.cls-11,.cls-13,.cls-21,.cls-22,.cls-9{stroke-miterlimit:10;}.cls-10,.cls-12,.cls-14{opacity:0.5;}.cls-15{clip-path:url(#clip-path-13);}.cls-17{clip-path:url(#clip-path-14);}.cls-20,.cls-21,.cls-22{stroke:#000;}.cls-20,.cls-21{stroke-width:3px;}.cls-21{stroke-linecap:square;}.cls-22{stroke-width:4px;}</style>
    <clipPath
       id="clip-path"
       transform="translate(-8.19 -3.86)">
      <rect
         class="cls-1"
         x="1981.51"
         y="138"
         width="285.54001"
         height="354.03"
         id="rect35200" />
    </clipPath>
    <clipPath
       id="clip-path-13"
       transform="translate(-8.19 -3.86)">
      <rect
         class="cls-1"
         x="1981.51"
         y="140"
         width="285.54001"
         height="354.03"
         id="rect35203" />
    </clipPath>
    <clipPath
       id="clip-path-14"
       transform="translate(-8.19 -3.86)">
      <rect
         class="cls-1"
         x="1981.51"
         y="136"
         width="285.54001"
         height="354.03"
         id="rect35206" />
    </clipPath>
  </defs>
  <title
     id="title35211">hmm</title>
  <path
     d="m 69.291193,247.77599 a 716.86,716.86 0 0 1 0.6,83.95 c -0.09,1.93 2.91,1.92 3,0 a 716.86,716.86 0 0 0 -0.6,-83.95 c -0.12,-1.91 -3.12,-1.93 -3,0 z"
     id="path35678" />
  <path
     d="m 74.151193,333.59599 a 920.45,920.45 0 0 1 114.829997,-0.81 c 1.93,0.11 1.93,-2.89 0,-3 a 920.45,920.45 0 0 0 -114.829997,0.81 c -1.92,0.13 -1.93,3.13 0,3 z"
     id="path35680" />
  <path
     d="m 47.351193,326.38599 16.9,1 -0.61,-2.24 -0.32,0.21 c -1.3,0.82 -0.1,2.9 1.21,2.07 l 0.32,-0.21 a 1.21,1.21 0 0 0 -0.6,-2.23 l -16.9,-1 c -1.55,-0.1 -1.54,2.3 0,2.4 z"
     id="path35682" />
  <path
     d="m 48.911193,324.24599 a 3.2,3.2 0 0 1 -0.56,-4.31 c 1,-1.44 2.92,-1.56 4.57,-1.51 1.43,0 2.8,0.2 3.19,1.81 a 20.74,20.74 0 0 1 0.27,4.79 1.2,1.2 0 0 0 2.4,0 c 0,-2.25 0.33,-5.79 -1.4,-7.57 -1.73,-1.78 -4.56,-1.61 -6.65,-1.33 -4.92,0.66 -7.2,6.22 -3.52,9.82 1.11,1.08 2.81,-0.61 1.7,-1.7 z"
     id="path35684" />
  <path
     d="m 45.961193,313.31599 c 6.22,1.52 12.94,4 19.11,1.15 1.4,-0.65 0.19,-2.72 -1.21,-2.08 -5.39,2.49 -11.85,-0.07 -17.26,-1.39 -1.5,-0.36 -2.14,1.95 -0.64,2.32 z"
     id="path35686" />
  <path
     d="m 47.101193,308.80599 a 29.77,29.77 0 0 0 8.29,-2.67 c 2.84,-1.57 5.36,-3.86 7.92,-5.84 1.21,-0.93 0,-3 -1.21,-2.07 -2.3,1.77 -4.55,3.74 -7,5.29 a 25.82,25.82 0 0 1 -8.62,3 c -1.51,0.33 -0.87,2.64 0.63,2.32 z"
     id="path35688" />
  <path
     d="m 45.471193,300.47599 a 95.31,95.31 0 0 1 9.33,5.17 c 2.6,1.64 5,3.43 8,4.24 a 1.2,1.2 0 0 0 0.63,-2.31 c -3.17,-0.86 -5.72,-3 -8.48,-4.67 -2.76,-1.67 -5.44,-3.13 -8.27,-4.5 -1.38,-0.68 -2.6,1.39 -1.21,2.07 z"
     id="path35690" />
  <path
     d="m 45.351193,295.25599 c 6.18,2.77 13.4,5.22 19.42,0.75 1.22,-0.91 0,-3 -1.21,-2.08 -5.3,3.94 -11.58,1.69 -17,-0.74 -1.4,-0.63 -2.62,1.44 -1.21,2.07 z"
     id="path35692" />
  <path
     d="m 46.281193,278.53599 c 4.76,-2 14,-8 17.48,-1.6 0.74,1.35 2.82,0.14 2.07,-1.21 -4.47,-8.07 -14.1,-2 -20.19,0.5 -1.41,0.59 -0.79,2.91 0.64,2.31 z"
     id="path35694" />
  <path
     d="m 54.801193,268.76599 a 32.86,32.86 0 0 1 -0.1,-5.25 c 0.09,-1.54 -2.31,-1.54 -2.4,0 a 32.86,32.86 0 0 0 0.1,5.25 c 0.14,1.52 2.55,1.54 2.4,0 z"
     id="path35696" />
  <path
     d="m 58.531193,269.88599 a 22,22 0 0 0 0.49,-6.67 c -0.13,-1.53 -2.53,-1.54 -2.4,0 a 19.71,19.71 0 0 1 -0.4,6 c -0.34,1.51 2,2.15 2.31,0.64 z"
     id="path35698" />
  <path
     d="m 46.891193,249.80599 c 4.33,-3.12 12.57,-4.44 16.69,-0.49 1.11,1.07 2.81,-0.62 1.69,-1.7 -5,-4.76 -14.29,-3.7 -19.59,0.12 -1.25,0.9 0,3 1.21,2.07 z"
     id="path35700" />
  <path
     d="m 44.641193,289.40599 c 4.74,1.25 11.32,3 16.26,2.18 3.19,-0.55 2.61,-4.08 1.83,-6.48 -0.48,-1.47 -2.8,-0.84 -2.32,0.63 0.78,2.4 0.75,3.09 -1.65,3.44 a 17.23,17.23 0 0 1 -3.86,-0.28 65.22,65.22 0 0 1 -9.62,-1.8 1.2,1.2 0 0 0 -0.64,2.31 z"
     id="path35702" />
  <path
     d="m 54.641193,293.73599 a 16.3,16.3 0 0 1 -0.27,-8 c 0.33,-1.5 -2,-2.14 -2.31,-0.63 a 18.78,18.78 0 0 0 0.27,9.27 1.2,1.2 0 0 0 2.31,-0.64 z"
     id="path35704" />
  <path
     d="m 61.521193,283.24599 a 8.1,8.1 0 0 0 -5.12,-3.56 l -0.32,2.36 a 49.77,49.77 0 0 0 6,0.1 c 0.05,0 1,0.05 0.7,-0.29 0.08,0.1 -0.06,0.74 -0.06,0.9 a 2.54,2.54 0 0 0 0.39,1.64 1.21,1.21 0 0 0 2.24,-0.61 v -4.35 a 1.2,1.2 0 0 0 -2.4,0 v 4.35 l 2.24,-0.6 c -0.32,-0.45 0.07,-1.54 -0.11,-2.1 a 1.73,1.73 0 0 0 -1.48,-1.27 c -2.35,-0.45 -5.11,-0.13 -7.5,-0.17 -1.32,0 -1.67,2.1 -0.32,2.35 a 5.73,5.73 0 0 1 3.69,2.47 c 0.89,1.25 3,0.05 2.07,-1.22 z"
     id="path35706" />
  <path
     d="m 49.511193,260.15599 c 3.36,0.41 12.54,0.75 12.81,-4.77 0.25,-5.07 -10.37,-5.05 -13.32,-5.05 v 2.4 a 82.19,82.19 0 0 1 10.41,0.34 c 1.49,0.15 4.5,0 5.88,0.83 1.81,1 1.13,2.65 1,4.33 -0.13,1.68 2.29,1.54 2.4,0 0.27,-3.66 0.64,-6 -3.46,-6.77 a 76.19,76.19 0 0 0 -16.24,-1.13 1.2,1.2 0 0 0 0,2.4 c 2.37,0 9.27,-0.48 9.93,2.45 0.84,3.69 -7.1,2.85 -9.42,2.57 -1.53,-0.19 -1.51,2.21 0,2.4 z"
     id="path35708" />
  <path
     class="cls-18"
     d="m 83.641193,271.13599 c 10.3,0.38 18.289997,7.1 26.069997,13.12 7.22,5.58 14.53,11.1 22.15,16.12 a 97.48,97.48 0 0 0 22.35,11.44 c 8.36,2.8 16.62,3.18 25.35,2.62 1.91,-0.13 1.93,-3.13 0,-3 -9.65,0.62 -18.65,-0.1 -27.73,-3.68 -8.65,-3.4 -16.55,-8.5 -24.11,-13.84 -7.79,-5.51 -15.19,-11.54 -22.9,-17.16 -6.379997,-4.64 -13.149997,-8.32 -21.179997,-8.62 -1.93,-0.08 -1.93,2.92 0,3 z"
     id="path35710" />
  <path
     class="cls-16"
     d="m 176.37119,276.88599 c -5.45,1.06 -11,2.81 -16.63,2.7 -7.26,-0.13 -9.67,-6.16 -14.34,-10.71 -3,-2.87 -6.84,-6.4 -11.1,-7 -2.65,-0.38 -5.25,1 -7.45,2.34 -8.93,5.49 -12,16.73 -20.73,22.6 -3.46,2.33 -7.399997,3.75 -10.999997,5.75 a 45.23,45.23 0 0 0 -12.5,10.51 c -1.25,1.45 0.86,3.58 2.12,2.12 a 43.56,43.56 0 0 1 13.32,-10.79 c 3.389997,-1.72 6.939997,-3.12 10.069997,-5.31 8.44,-5.89 11.62,-16.93 20.27,-22.29 10.34,-6.41 16.29,8.09 23,13.37 6.85,5.42 18.35,1.08 25.85,-0.39 1.9,-0.37 1.09,-3.26 -0.8,-2.89 z"
     id="path35712" />
  <path
     class="cls-19"
     d="m 84.401193,313.44599 c 4.83,-3.32 9.25,-7.23 14.17,-10.43 6.629997,-4.33 15.699997,-5.81 23.209997,-8.23 9.08,-2.93 18.25,-5.81 27.68,-7.45 5.56,-1 10.58,-1.37 15.73,1.28 4,2.07 7.6,5 11.47,7.35 a 1.5015409,1.5015409 0 0 0 1.52,-2.59 c -7.66,-4.61 -14,-10.55 -23.51,-9.78 -10.31,0.84 -20.52,4.11 -30.32,7.22 -5,1.57 -9.92,3.23 -14.89,4.8 -3.47,1.1 -7.19,1.79 -10.379997,3.55 -5.83,3.22 -10.73,7.93 -16.2,11.69 -1.58,1.09 -0.08,3.69 1.52,2.59 z"
     id="path35714" />
  <path
     d="m 123.31119,338.17599 c -0.42,3.37 -0.75,12.54 4.76,12.81 5.07,0.25 5.06,-10.36 5.06,-13.32 h -2.4 a 82.19,82.19 0 0 1 -0.35,10.41 c -0.15,1.49 0,4.5 -0.82,5.88 -1,1.81 -2.65,1.13 -4.34,1 -1.54,-0.11 -1.53,2.29 0,2.4 3.67,0.27 6,0.64 6.77,-3.45 a 77,77 0 0 0 1.14,-16.25 1.2,1.2 0 0 0 -2.4,0 c 0,2.37 0.47,9.27 -2.45,9.94 -3.69,0.84 -2.86,-7.1 -2.57,-9.43 0.19,-1.52 -2.22,-1.51 -2.4,0 z"
     id="path35886" />
  <path
     d="m 259.80119,268.18599 c 1.55,8.12 4.92,16 7.6,23.79 l 8.33,24.23 c 0.52,1.5 3.07,1.38 2.94,-0.4 l -0.16,-2.32 c -0.14,-1.92 -3.14,-1.93 -3,0 l 0.16,2.32 2.95,-0.4 -8.33,-24.23 c -2.67,-7.79 -6.05,-15.67 -7.6,-23.78 -0.36,-1.9 -3.25,-1.1 -2.89,0.79 z"
     id="path36014" />
  <path
     d="m 280.94119,266.61599 c -2.86,3 -4.15,7.1 -5.8,10.87 q -3.13,7.22 -6.26,14.43 l -6.24,14.44 c -1.36,3.15 -4.07,7.09 -4.1,10.56 a 1.53,1.53 0 0 0 2.26,1.3 l 0.26,-0.11 a 1.52,1.52 0 0 0 0.69,-1.7 l -0.07,-0.21 c -0.61,-1.82 -3.51,-1 -2.9,0.8 l 0.07,0.21 0.69,-1.69 -0.26,0.11 2.26,1.29 c 0,-2.21 2.05,-5.23 2.91,-7.24 l 2.34,-5.42 5.07,-11.73 q 2.55,-5.85 5.09,-11.72 c 1.73,-4 3.11,-8.87 6.12,-12.07 1.32,-1.4 -0.8,-3.53 -2.13,-2.12 z"
     id="path36016" />
  <path
     d="m 290.67119,266.88599 a 56.11,56.11 0 0 0 -5.65,29 94.56,94.56 0 0 0 2.47,15 c 0.67,2.81 1.33,5.88 4.21,7.07 a 1.52,1.52 0 0 0 1.46,-0.39 l 0.52,-0.41 c 1.52,-1.19 -0.62,-3.3 -2.12,-2.12 0.47,-0.37 -2.29,-10 -2.51,-11.22 a 69.64,69.64 0 0 1 -1.25,-12.43 52.21,52.21 0 0 1 5.42,-22.95 c 0.84,-1.73 -1.74,-3.25 -2.59,-1.51 z"
     id="path36018" />
  <path
     d="m 332.80119,268.62599 c 2.73,16.55 3.73,32.78 -2.5,48.69 -0.7,1.79 2.2,2.57 2.9,0.79 6.42,-16.4 5.31,-33.22 2.49,-50.27 -0.31,-1.9 -3.2,-1.1 -2.89,0.79 z"
     id="path36020" />
  <path
     d="m 306.17119,269.23599 a 215.54,215.54 0 0 0 -4.47,36.51 c -0.1,2.95 -1.1,8.05 1.81,10.1 2.91,2.05 7.91,0.39 10.79,-0.85 1.77,-0.76 0.24,-3.35 -1.51,-2.59 -2.59,1.12 -6.88,2.49 -8.18,-1.23 -0.44,-1.25 0.05,-4.16 0.09,-5.43 q 0.23,-5.85 0.74,-11.68 a 205.37,205.37 0 0 1 3.63,-24 c 0.39,-1.88 -2.5,-2.68 -2.9,-0.79 z"
     id="path36022" />
  <path
     d="m 295.87119,293.69599 a 27.83,27.83 0 0 1 17.28,-0.71 1.5,1.5 0 0 0 0.79,-2.89 30.49,30.49 0 0 0 -18.86,0.71 c -1.81,0.65 -1,3.55 0.79,2.89 z"
     id="path36024" />
  <path
     d="m 317.88119,311.88599 a 20.58,20.58 0 0 0 6.69,-12.36 l -2.95,-0.4 c -0.07,5.27 0.14,10.62 -0.22,15.87 -0.06,0.77 0.11,3.07 -0.67,3.53 -0.32,0.18 -1.67,-0.21 -2.12,-0.18 a 3.84,3.84 0 0 0 -2.71,1.08 1.51,1.51 0 0 0 1.06,2.56 l 9.11,0.08 a 1.5,1.5 0 0 0 0,-3 l -9.11,-0.08 1.06,2.56 c 0.94,-0.81 3.31,0.27 4.55,-0.3 1.24,-0.57 1.59,-1.54 1.76,-2.88 0.78,-6.23 0.2,-12.95 0.29,-19.24 0,-1.64 -2.68,-2.1 -2.95,-0.4 a 18.05,18.05 0 0 1 -5.91,11 c -1.43,1.31 0.69,3.43 2.12,2.13 z"
     id="path36026" />
  <path
     d="m 213.15119,299.13599 c 1.84,-4.38 7,-13.29 12.37,-6.48 1.38,1.76 1.34,3.64 3.76,4.58 5,1.94 8.32,-3.31 9.94,-7.09 0.75,-1.75 -1.83,-3.28 -2.59,-1.51 a 26.43,26.43 0 0 1 -1.35,2.91 q -5.91,3.93 -7.17,-0.4 c -0.7,-0.79 -0.93,-1.62 -1.76,-2.32 a 7.53,7.53 0 0 0 -5.95,-1.44 c -5.65,0.82 -8.17,6.26 -10.15,10.95 -0.75,1.78 2.16,2.55 2.9,0.8 z"
     id="path36046" />
  <metadata
     id="metadata38672">
    <rdf:RDF>
      <cc:Work
         rdf:about="">
        <dc:title>hmm</dc:title>
      </cc:Work>
    </rdf:RDF>
  </metadata>
</svg>
