<?xml version="1.0" encoding="UTF-8" standalone="no"?>
<svg
   viewBox="0 0 450 520.00001"
   version="1.1"
   id="svg36235"
   sodipodi:docname="WF_4.svg"
   width="450"
   height="520"
   inkscape:version="1.2.2 (1:1.2.2+202212051552+b0a8486541)"
   xmlns:inkscape="http://www.inkscape.org/namespaces/inkscape"
   xmlns:sodipodi="http://sodipodi.sourceforge.net/DTD/sodipodi-0.dtd"
   xmlns="http://www.w3.org/2000/svg"
   xmlns:svg="http://www.w3.org/2000/svg"
   xmlns:rdf="http://www.w3.org/1999/02/22-rdf-syntax-ns#"
   xmlns:cc="http://creativecommons.org/ns#"
   xmlns:dc="http://purl.org/dc/elements/1.1/">
  <sodipodi:namedview
     id="namedview36237"
     pagecolor="#ffffff"
     bordercolor="#000000"
     borderopacity="0.25"
     inkscape:showpageshadow="2"
     inkscape:pageopacity="0.0"
     inkscape:pagecheckerboard="0"
     inkscape:deskcolor="#d1d1d1"
     showgrid="false"
     inkscape:zoom="0.38832396"
     inkscape:cx="704.30885"
     inkscape:cy="193.13771"
     inkscape:window-width="1223"
     inkscape:window-height="779"
     inkscape:window-x="57"
     inkscape:window-y="21"
     inkscape:window-maximized="1"
     inkscape:current-layer="svg36235" />
  <defs
     id="defs35209">
    <style
       id="style35198">.cls-1,.cls-11,.cls-13,.cls-20,.cls-21,.cls-22,.cls-6,.cls-7,.cls-8,.cls-9{fill:none;}.cls-10,.cls-18,.cls-2{fill:#1f77b4;}.cls-2,.cls-3,.cls-4{opacity:0.3;}.cls-12,.cls-16,.cls-3{fill:#ff7f0e;}.cls-14,.cls-19,.cls-4{fill:#2ca02c;}.cls-5{clip-path:url(#clip-path);}.cls-11,.cls-6{stroke:#ff7f0e;}.cls-20,.cls-6,.cls-7,.cls-8{stroke-linejoin:round;}.cls-6,.cls-7,.cls-8{stroke-dasharray:3.7 1.6;}.cls-7,.cls-9{stroke:#1f77b4;}.cls-13,.cls-8{stroke:#2ca02c;}.cls-11,.cls-13,.cls-21,.cls-22,.cls-9{stroke-miterlimit:10;}.cls-10,.cls-12,.cls-14{opacity:0.5;}.cls-15{clip-path:url(#clip-path-13);}.cls-17{clip-path:url(#clip-path-14);}.cls-20,.cls-21,.cls-22{stroke:#000;}.cls-20,.cls-21{stroke-width:3px;}.cls-21{stroke-linecap:square;}.cls-22{stroke-width:4px;}</style>
    <clipPath
       id="clip-path"
       transform="translate(-8.19 -3.86)">
      <rect
         class="cls-1"
         x="1981.51"
         y="138"
         width="285.54001"
         height="354.03"
         id="rect35200" />
    </clipPath>
    <clipPath
       id="clip-path-13"
       transform="translate(-8.19 -3.86)">
      <rect
         class="cls-1"
         x="1981.51"
         y="140"
         width="285.54001"
         height="354.03"
         id="rect35203" />
    </clipPath>
    <clipPath
       id="clip-path-14"
       transform="translate(-8.19 -3.86)">
      <rect
         class="cls-1"
         x="1981.51"
         y="136"
         width="285.54001"
         height="354.03"
         id="rect35206" />
    </clipPath>
  </defs>
  <title
     id="title35211">hmm</title>
  <path
     class="cls-6"
     d="M 305.38119,545.55599"
     id="path35534" />
  <path
     d="m 59.291193,402.77599 a 716.86,716.86 0 0 1 0.6,84 c -0.09,1.93 2.91,1.92 3,0 a 716.86,716.86 0 0 0 -0.6,-84 c -0.12,-1.91 -3.12,-1.93 -3,0 z"
     id="path35716" />
  <path
     d="m 64.151193,488.59599 a 920.45,920.45 0 0 1 114.829997,-0.81 c 1.93,0.11 1.93,-2.89 0,-3 a 920.45,920.45 0 0 0 -114.829997,0.81 c -1.92,0.13 -1.93,3.13 0,3 z"
     id="path35718" />
  <path
     d="m 37.351193,481.38599 16.9,1 -0.61,-2.24 -0.32,0.21 c -1.3,0.82 -0.1,2.9 1.21,2.07 l 0.32,-0.21 a 1.21,1.21 0 0 0 -0.6,-2.23 l -16.9,-1 c -1.55,-0.1 -1.54,2.3 0,2.4 z"
     id="path35720" />
  <path
     d="m 38.911193,479.24599 a 3.2,3.2 0 0 1 -0.56,-4.31 c 1,-1.44 2.92,-1.56 4.57,-1.51 1.43,0 2.8,0.2 3.19,1.81 a 20.74,20.74 0 0 1 0.27,4.79 1.2,1.2 0 0 0 2.4,0 c 0,-2.25 0.33,-5.79 -1.4,-7.57 -1.73,-1.78 -4.56,-1.61 -6.65,-1.33 -4.92,0.66 -7.2,6.22 -3.52,9.82 1.11,1.08 2.81,-0.61 1.7,-1.7 z"
     id="path35722" />
  <path
     d="m 35.961193,468.31599 c 6.22,1.52 12.94,4 19.11,1.15 1.4,-0.65 0.19,-2.72 -1.21,-2.08 -5.39,2.49 -11.85,-0.07 -17.26,-1.39 -1.5,-0.36 -2.14,1.95 -0.64,2.32 z"
     id="path35724" />
  <path
     d="m 37.101193,463.80599 a 29.77,29.77 0 0 0 8.29,-2.67 c 2.84,-1.57 5.36,-3.86 7.92,-5.84 1.21,-0.93 0,-3 -1.21,-2.07 -2.3,1.77 -4.55,3.74 -7,5.29 a 25.82,25.82 0 0 1 -8.62,3 c -1.51,0.33 -0.87,2.64 0.63,2.32 z"
     id="path35726" />
  <path
     d="m 35.471193,455.47599 a 95.31,95.31 0 0 1 9.33,5.17 c 2.6,1.64 5,3.43 8,4.24 a 1.2,1.2 0 0 0 0.63,-2.31 c -3.17,-0.86 -5.72,-3 -8.48,-4.67 -2.76,-1.67 -5.44,-3.13 -8.27,-4.5 -1.38,-0.68 -2.6,1.39 -1.21,2.07 z"
     id="path35728" />
  <path
     d="m 35.351193,450.25599 c 6.18,2.77 13.4,5.22 19.42,0.75 1.22,-0.91 0,-3 -1.21,-2.08 -5.3,3.94 -11.58,1.69 -17,-0.74 -1.4,-0.63 -2.62,1.44 -1.21,2.07 z"
     id="path35730" />
  <path
     d="m 36.281193,433.53599 c 4.76,-2 14,-8 17.48,-1.6 0.74,1.35 2.82,0.14 2.07,-1.21 -4.47,-8.07 -14.1,-2 -20.19,0.5 -1.41,0.59 -0.79,2.91 0.64,2.31 z"
     id="path35732" />
  <path
     d="m 44.801193,423.76599 a 32.86,32.86 0 0 1 -0.1,-5.25 c 0.09,-1.54 -2.31,-1.54 -2.4,0 a 32.86,32.86 0 0 0 0.1,5.25 c 0.14,1.52 2.55,1.54 2.4,0 z"
     id="path35734" />
  <path
     d="m 48.531193,424.88599 a 22,22 0 0 0 0.49,-6.67 c -0.13,-1.53 -2.53,-1.54 -2.4,0 a 19.71,19.71 0 0 1 -0.4,6 c -0.34,1.51 2,2.15 2.31,0.64 z"
     id="path35736" />
  <path
     d="m 36.891193,404.80599 c 4.33,-3.12 12.57,-4.44 16.69,-0.49 1.11,1.07 2.81,-0.62 1.69,-1.7 -5,-4.76 -14.29,-3.7 -19.59,0.12 -1.25,0.9 0,3 1.21,2.07 z"
     id="path35738" />
  <path
     d="m 35.361193,445.25599 c 4.52,1.14 10.68,2.76 15.37,2 3,-0.5 2.57,-3.73 1.79,-6 -0.49,-1.46 -2.81,-0.83 -2.32,0.63 0.75,2.2 0.69,2.71 -1.5,3 a 17.12,17.12 0 0 1 -3.64,-0.26 62.13,62.13 0 0 1 -9.06,-1.63 1.2033287,1.2033287 0 0 0 -0.64,2.32 z"
     id="path35740" />
  <path
     d="m 44.891193,449.05599 a 13.93,13.93 0 0 1 -0.25,-7.22 c 0.34,-1.5 -2,-2.14 -2.32,-0.63 a 16.74,16.74 0 0 0 0.25,8.49 1.2033287,1.2033287 0 0 0 2.32,-0.64 z"
     id="path35742" />
  <path
     d="m 45.461193,440.41599 a 44.34,44.34 0 0 1 8.62,0.32 c 1.51,0.21 2.16,-2.1 0.64,-2.31 a 47,47 0 0 0 -9.26,-0.41 c -1.53,0.09 -1.54,2.49 0,2.4 z"
     id="path35744" />
  <path
     d="m 46.011193,435.95599 a 13.61,13.61 0 0 1 4.9,3.66 c 0.87,1 2.14,-0.13 2,-1.16 a 4.09,4.09 0 0 1 1.87,-3.86 c 1.27,-0.87 0.07,-3 -1.21,-2.08 a 6.62,6.62 0 0 0 -3,6.58 l 2,-1.17 a 15,15 0 0 0 -5.38,-4 c -1.4,-0.63 -2.62,1.44 -1.21,2.08 z"
     id="path35746" />
  <path
     d="m 41.391193,415.07599 q 0.28,-4.43 0.18,-8.86 l -1.52,1.15 c 1.24,0.33 2.2,1.75 3.08,2.6 0.88,0.85 1.87,1.79 2.84,2.65 1.77,1.57 3.62,3 5.51,4.48 0.76,0.57 1.79,-0.21 1.81,-1 l 0.14,-10.09 a 1.2,1.2 0 0 0 -2.4,0 l -0.14,10.09 1.8,-1 a 84.15,84.15 0 0 1 -6.93,-5.86 c -1.52,-1.44 -3,-3.55 -5.07,-4.11 a 1.22,1.22 0 0 0 -1.52,1.16 q 0.1,4.44 -0.18,8.86 c -0.09,1.54 2.31,1.54 2.4,0 z"
     id="path35748" />
  <path
     d="m 47.201193,412.66599 a 9.76,9.76 0 0 1 -0.08,-3.28 1.24,1.24 0 0 0 -0.84,-1.48 1.2,1.2 0 0 0 -1.47,0.84 13.18,13.18 0 0 0 0.08,4.56 c 0.29,1.51 2.6,0.87 2.31,-0.64 z"
     id="path35750" />
  <path
     class="cls-18"
     d="m 73.641193,426.13599 c 10.3,0.38 18.29,7.1 26.07,13.12 7.219997,5.58 14.529997,11.1 22.149997,16.12 a 97.48,97.48 0 0 0 22.35,11.44 c 8.36,2.8 16.62,3.18 25.35,2.62 1.91,-0.13 1.93,-3.13 0,-3 -9.65,0.62 -18.65,-0.1 -27.73,-3.68 -8.65,-3.4 -16.55,-8.5 -24.11,-13.84 -7.79,-5.51 -15.19,-11.54 -22.899997,-17.16 -6.38,-4.64 -13.15,-8.32 -21.18,-8.62 -1.93,-0.08 -1.93,2.92 0,3 z"
     id="path35752" />
  <path
     class="cls-16"
     d="m 169.56119,459.24599 c -4.35,0.58 -9.16,-2.21 -12.85,-4.13 a 137.19,137.19 0 0 1 -15.66,-9.73 c -4.19,-3 -8.55,-6.1 -12.08,-9.88 -3.53,-3.78 -6.86,-7.66 -11.27,-10.79 -6.78,-4.81 -14.26,-9.37 -22.559997,-6.74 -8.6,2.71 -15.68,10.31 -22.56,15.86 -1.5,1.22 0.63,3.33 2.12,2.12 6.68,-5.39 13.45,-12.52 21.77,-15.2 9.349997,-3 21.299997,6.44 27.179997,13 a 102.51,102.51 0 0 0 21.15,17.82 c 6.31,4.11 16.56,11.76 24.72,10.67 1.88,-0.26 1.91,-3.26 0,-3 z"
     id="path35754" />
  <path
     class="cls-19"
     d="m 74.401193,477.45599 c 6,-3.88 12.49,-7.11 18.82,-10.39 6.69,-3.47 14.199997,-5.69 20.319997,-10.11 8.53,-6.18 15.23,-14.57 23.92,-20.51 4.52,-3.09 10,-5.76 15.64,-4.86 5.24,0.83 9.16,6.24 13.56,9 1.65,1 3.16,-1.58 1.52,-2.59 -4.16,-2.57 -7.53,-7.12 -12.19,-8.79 -4.47,-1.6 -9.72,-0.56 -13.95,1.26 -10,4.3 -17.27,13.19 -25.3,20.14 -6.93,6 -14.73,8.65 -22.709997,12.71 -7.11,3.63 -14.44,7.24 -21.15,11.59 -1.61,1 -0.11,3.64 1.52,2.59 z"
     id="path35756" />
  <path
     d="m 114.15119,494.19599 q 4.43,0.29 8.86,0.18 l -1.15,-1.49 c -0.33,1.24 -1.75,2.2 -2.6,3.07 -0.85,0.87 -1.79,1.88 -2.65,2.85 -1.57,1.77 -3.05,3.62 -4.48,5.51 -0.57,0.76 0.21,1.79 1,1.8 l 10.09,0.15 a 1.2,1.2 0 0 0 0,-2.4 l -10.09,-0.15 1,1.81 a 82.52,82.52 0 0 1 5.86,-6.93 c 1.44,-1.53 3.55,-3 4.11,-5.07 a 1.22,1.22 0 0 0 -1.16,-1.52 q -4.44,0.1 -8.86,-0.18 c -1.54,-0.1 -1.54,2.3 0,2.4 z"
     id="path35758" />
  <path
     d="m 116.56119,500.00599 a 9.51,9.51 0 0 1 3.24,-0.12 1.25,1.25 0 0 0 1.48,-0.84 1.21,1.21 0 0 0 -0.84,-1.48 13.43,13.43 0 0 0 -4.56,0.08 c -1.51,0.3 -0.87,2.61 0.64,2.32 z"
     id="path35760" />
  <path
     d="m 282.80119,334.69599 c -2.18,21.61 2.57,43.57 -2.55,64.92 l 2.74,-0.36 a 56.34,56.34 0 0 1 -5.56,-11.37 c -0.64,-1.8 -3.42,-1.09 -2.9,0.79 a 23,23 0 0 0 8.13,12.29 1.52,1.52 0 0 0 2.56,-1.06 c 0.38,-6.41 6.81,-7.69 8.32,-13.26 a 1.51,1.51 0 0 0 -2.9,-0.8 c -0.89,3.29 -4.48,4.65 -6.32,7.28 a 12.72,12.72 0 0 0 -2.1,6.78 l 2.58,-1.02 a 20.33,20.33 0 0 1 -7.35,-11 l -2.9,0.79 a 60.67,60.67 0 0 0 5.87,12.07 1.52,1.52 0 0 0 2.75,-0.36 c 5.18,-21.62 0.44,-43.82 2.65,-65.71 0.2,-1.92 -2.8,-1.91 -3,0 z"
     id="path35764" />
  <path
     d="m 300.80119,350.94599 c -2.47,4.9 -2.56,9.91 -2.07,15.29 0.66,7.24 1.05,14.15 0,21.39 -0.29,1.89 2.6,2.7 2.89,0.79 a 72.21,72.21 0 0 0 0.63,-17.38 c -0.55,-6.28 -1.79,-12.69 1.18,-18.58 0.87,-1.72 -1.72,-3.24 -2.59,-1.51 z"
     id="path35766" />
  <path
     d="m 300.14119,355.45599 c 4.47,-4.08 10.78,-1.77 13.5,3.12 3.78,6.79 -5.42,10 -10.6,10 a 1.5,1.5 0 0 0 0,3 17.61,17.61 0 0 0 12.16,-4.41 c 3,-2.71 3.13,-5.64 1.47,-9.18 -3.36,-7.22 -12.44,-10.29 -18.65,-4.62 -1.43,1.3 0.69,3.42 2.12,2.12 z"
     id="path35768" />
  <path
     d="m 327.63119,335.88599 a 64.21,64.21 0 0 0 -2.61,38.25 l 2.89,-0.8 -0.18,-0.76 c -0.45,-1.88 -3.35,-1.08 -2.89,0.8 l 0.18,0.76 c 0.45,1.87 3.34,1.08 2.89,-0.8 a 61.42,61.42 0 0 1 2.61,-36.65 c 0.7,-1.8 -2.2,-2.58 -2.89,-0.8 z"
     id="path35890" />
  <path
     d="m 338.68119,348.25599 -8.31,22.52 a 1.51,1.51 0 0 0 1.44,1.9 90.8,90.8 0 0 1 19.43,-0.22 c 1.38,0.14 1.85,-1.68 1.06,-2.56 a 31.55,31.55 0 0 1 -8.24,-20.52 c -0.06,-1.93 -3.06,-1.93 -3,0 a 34.88,34.88 0 0 0 9.12,22.65 l 1.06,-2.57 a 90.8,90.8 0 0 0 -19.43,0.22 l 1.45,1.9 8.31,-22.52 c 0.67,-1.81 -2.22,-2.6 -2.89,-0.8 z"
     id="path35892" />
  <path
     d="m 355.87119,338.49599 c -0.65,5.77 -1.21,11.54 -1.63,17.33 -0.31,4.4 -1.73,10.51 -0.44,14.72 a 1.51,1.51 0 0 0 1.05,1 c 2.7,0.55 5.58,-0.13 8.2,-0.83 a 1.5,1.5 0 0 0 -0.8,-2.89 c -1,0.26 -3.56,1.29 -4.42,0.88 -1.82,-0.87 -1.19,-2.7 -1.12,-4.24 0.15,-2.9 0.32,-5.79 0.53,-8.68 0.42,-5.79 1,-11.56 1.63,-17.33 0.21,-1.92 -2.79,-1.9 -3,0 z"
     id="path35894" />
  <path
     d="m 349.91119,353.82599 12.74,-0.38 c 1.93,-0.06 1.93,-3.06 0,-3 l -12.74,0.38 c -1.93,0.05 -1.93,3.05 0,3 z"
     id="path35896" />
  <path
     d="m 379.85119,372.54599 a 3.59,3.59 0 0 1 -0.7,4.91 c -1.49,1.24 0.65,3.36 2.12,2.13 a 6.56,6.56 0 0 0 1.17,-8.55 c -1.09,-1.59 -3.69,-0.09 -2.59,1.51 z"
     id="path35898" />
  <path
     d="m 429.80119,330.34599 c 2.65,5.93 6.23,11.1 7.67,17.57 a 33.86,33.86 0 0 1 0.77,9.78 c -0.19,2.68 -1.09,10.41 -3.58,12 l 1.82,0.23 -0.25,-0.19 c -1.5,-1.19 -3.64,0.92 -2.12,2.12 l 0.25,0.19 a 1.55,1.55 0 0 0 1.81,0.24 c 2.17,-1.37 3.15,-5.11 3.84,-7.45 a 34.31,34.31 0 0 0 1.1,-13.1 c -0.93,-8.73 -5.26,-15.13 -8.72,-22.89 -0.78,-1.76 -3.37,-0.24 -2.59,1.51 z"
     id="path35900" />
  <path
     d="m 408.85119,372.54599 a 3.59,3.59 0 0 1 -0.7,4.91 c -1.49,1.24 0.65,3.36 2.12,2.13 a 6.56,6.56 0 0 0 1.17,-8.55 c -1.09,-1.59 -3.69,-0.09 -2.59,1.51 z"
     id="path35902" />
  <path
     d="m 387.09119,352.30599 c -0.62,5.09 -1.17,10.46 1.09,15.26 1.12,2.37 3.69,6.23 6.73,6.06 3.04,-0.17 4.75,-4.23 5.66,-6.68 1.84,-4.93 1.87,-10.34 1.86,-15.52 h -3 a 145.21,145.21 0 0 1 -0.63,18.06 c -0.3,3 -0.07,7.32 -1.37,10 -1.56,3.19 -4.53,2.37 -7.69,2.13 -1.93,-0.14 -1.92,2.86 0,3 6.68,0.51 9.68,1 10.9,-6.21 a 139.83,139.83 0 0 0 1.75,-27 1.5,1.5 0 0 0 -3,0 c 0,4.55 0.78,13.63 -2.87,17.1 -4,3.8 -6.3,-3.21 -6.77,-6.17 a 36.4,36.4 0 0 1 0.3,-10.05 c 0.23,-1.91 -2.77,-1.9 -3,0 z"
     id="path35904" />
  <path
     d="m 364.80119,359.06599 a 122.78,122.78 0 0 1 -0.55,18.09 c -0.2,1.92 2.8,1.9 3,0 a 122.78,122.78 0 0 0 0.55,-18.09 c -0.08,-1.93 -3.08,-1.94 -3,0 z"
     id="path35906" />
  <path
     d="m 371.34119,360.99599 a 28,28 0 0 1 -5.44,9.74 1.51,1.51 0 0 0 1.46,2.51 c 3,-0.51 5,1.87 6.19,4.22 0.9,1.71 3.49,0.2 2.59,-1.51 -1.94,-3.72 -5.24,-6.35 -9.58,-5.6 l 1.46,2.5 a 32,32 0 0 0 6.22,-11.07 c 0.62,-1.83 -2.28,-2.61 -2.9,-0.79 z"
     id="path35908" />
  <path
     d="m 418.16119,352.49599 a 94.94,94.94 0 0 0 10.8,0.28 l -1.45,-1.9 c -0.82,3.38 -4.21,6.49 -6.15,9.32 -1.94,2.83 -3.9,6 -5.69,9.12 a 1.51,1.51 0 0 0 1.3,2.25 l 12.29,0.23 c 1.93,0 1.93,-3 0,-3 l -12.29,-0.23 1.29,2.26 c 2,-3.52 4.18,-7 6.51,-10.29 1.95,-2.8 4.81,-5.49 5.64,-8.86 a 1.52,1.52 0 0 0 -1.45,-1.9 94.94,94.94 0 0 1 -10.8,-0.28 c -1.92,-0.16 -1.91,2.84 0,3 z"
     id="path35910" />
  <path
     d="m 421.11119,361.82599 a 8.87,8.87 0 0 1 4,-0.13 c 1.89,0.37 2.7,-2.52 0.8,-2.89 a 12.33,12.33 0 0 0 -5.57,0.13 c -1.87,0.47 -1.08,3.36 0.8,2.89 z"
     id="path35912" />
  <path
     d="m 259.80119,418.18599 c 1.55,8.12 4.92,16 7.6,23.79 l 8.33,24.23 c 0.52,1.5 3.07,1.38 2.94,-0.4 l -0.16,-2.32 c -0.14,-1.92 -3.14,-1.93 -3,0 l 0.16,2.32 2.95,-0.4 -8.33,-24.23 c -2.67,-7.79 -6.05,-15.67 -7.6,-23.78 -0.36,-1.9 -3.25,-1.1 -2.89,0.79 z"
     id="path36028" />
  <path
     d="m 280.94119,416.61599 c -2.86,3 -4.15,7.1 -5.8,10.87 q -3.13,7.21 -6.26,14.43 l -6.24,14.44 c -1.36,3.15 -4.07,7.09 -4.1,10.56 a 1.53,1.53 0 0 0 2.26,1.3 l 0.26,-0.11 a 1.52,1.52 0 0 0 0.69,-1.7 l -0.07,-0.21 c -0.61,-1.82 -3.51,-1 -2.9,0.8 l 0.07,0.21 0.69,-1.69 -0.26,0.11 2.26,1.29 c 0,-2.21 2.05,-5.23 2.91,-7.24 l 2.34,-5.42 5.07,-11.73 q 2.55,-5.85 5.09,-11.72 c 1.73,-4 3.11,-8.87 6.12,-12.07 1.32,-1.4 -0.8,-3.53 -2.13,-2.12 z"
     id="path36030" />
  <path
     d="m 290.67119,416.88599 a 56.11,56.11 0 0 0 -5.65,29.05 94.56,94.56 0 0 0 2.47,14.95 c 0.67,2.81 1.33,5.88 4.21,7.07 a 1.52,1.52 0 0 0 1.46,-0.39 l 0.52,-0.41 c 1.52,-1.19 -0.62,-3.3 -2.12,-2.12 0.47,-0.37 -2.29,-10 -2.51,-11.22 a 69.64,69.64 0 0 1 -1.25,-12.43 52.21,52.21 0 0 1 5.42,-23 c 0.84,-1.73 -1.74,-3.25 -2.59,-1.51 z"
     id="path36032" />
  <path
     d="m 332.80119,418.62599 c 2.73,16.55 3.73,32.78 -2.5,48.69 -0.7,1.79 2.2,2.57 2.9,0.79 6.42,-16.4 5.31,-33.22 2.49,-50.27 -0.31,-1.9 -3.2,-1.1 -2.89,0.79 z"
     id="path36034" />
  <path
     d="m 304.08119,420.74599 a 213.94,213.94 0 0 0 -4.47,36.47 c -0.11,2.95 -1.1,8 1.81,10.09 2.91,2.09 7.91,0.39 10.78,-0.85 1.77,-0.76 0.25,-3.35 -1.51,-2.59 -2.58,1.11 -6.87,2.49 -8.18,-1.23 -0.44,-1.25 0.05,-4.16 0.1,-5.42 q 0.21,-5.85 0.73,-11.67 a 207.32,207.32 0 0 1 3.63,-24 c 0.4,-1.88 -2.49,-2.68 -2.89,-0.79 z"
     id="path36036" />
  <path
     d="m 293.80119,445.18599 a 27.73,27.73 0 0 1 17.27,-0.71 1.5,1.5 0 0 0 0.8,-2.89 30.59,30.59 0 0 0 -18.87,0.7 c -1.8,0.65 -1,3.55 0.8,2.9 z"
     id="path36038" />
  <path
     d="m 315.24119,448.60599 a 154.53,154.53 0 0 1 -0.83,25.08 c -0.22,1.92 2.78,1.9 3,0 a 154.53,154.53 0 0 0 0.83,-25.08 c -0.09,-1.92 -3.09,-1.94 -3,0 z"
     id="path36040" />
  <path
     d="m 325.20119,451.43599 a 38.81,38.81 0 0 1 -8.49,13.77 1.52,1.52 0 0 0 1.46,2.51 c 4.67,-0.77 8.14,2.31 10.3,6.11 a 1.5,1.5 0 0 0 2.59,-1.51 c -2.9,-5.11 -7.66,-8.48 -13.69,-7.5 l 1.46,2.51 a 42.17,42.17 0 0 0 9.26,-15.09 c 0.67,-1.82 -2.23,-2.6 -2.89,-0.8 z"
     id="path36042" />
  <path
     d="m 210.34119,447.79599 a 26.39,26.39 0 0 1 7.65,-9.26 l -1.82,-0.24 c 2.54,3 0.9,8.14 6.07,8.63 1.93,0.18 3.76,-0.82 5.32,-1.85 1.4,-0.93 5.46,-5.77 7.11,-5.69 l -1.45,-1.1 0.2,-0.78 1.82,-0.23 -0.25,-0.13 c -1.71,-0.89 -3.23,1.7 -1.51,2.59 l 0.25,0.13 a 1.56,1.56 0 0 0 1.82,-0.23 2,2 0 0 0 0.57,-2.15 1.56,1.56 0 0 0 -1.45,-1.1 c -2.76,-0.14 -5.19,3.33 -7.11,4.86 -2.13,1.7 -2.24,2.3 -5,1 -3.24,-1.55 -1.56,-0.72 -2.56,-2.86 a 12.13,12.13 0 0 0 -1.73,-3.2 1.5,1.5 0 0 0 -1.82,-0.23 29.82,29.82 0 0 0 -8.65,10.32 c -0.88,1.72 1.71,3.24 2.59,1.52 z"
     id="path36048" />
  <metadata
     id="metadata38672">
    <rdf:RDF>
      <cc:Work
         rdf:about="">
        <dc:title>hmm</dc:title>
      </cc:Work>
    </rdf:RDF>
  </metadata>
</svg>
