<?xml version="1.0" encoding="UTF-8" standalone="no"?>
<svg
   width="955pt"
   height="350pt"
   viewBox="0 0 955 350"
   version="1.1"
   id="svg120"
   sodipodi:docname="simulation_process_3.svg"
   inkscape:version="1.3.2 (091e20e, 2023-11-25)"
   xmlns:inkscape="http://www.inkscape.org/namespaces/inkscape"
   xmlns:sodipodi="http://sodipodi.sourceforge.net/DTD/sodipodi-0.dtd"
   xmlns="http://www.w3.org/2000/svg"
   xmlns:svg="http://www.w3.org/2000/svg"
   xmlns:rdf="http://www.w3.org/1999/02/22-rdf-syntax-ns#"
   xmlns:cc="http://creativecommons.org/ns#"
   xmlns:dc="http://purl.org/dc/elements/1.1/">
  <sodipodi:namedview
     id="namedview120"
     pagecolor="#ffffff"
     bordercolor="#000000"
     borderopacity="0.25"
     inkscape:showpageshadow="2"
     inkscape:pageopacity="0.0"
     inkscape:pagecheckerboard="0"
     inkscape:deskcolor="#d1d1d1"
     inkscape:document-units="pt"
     inkscape:zoom="0.37294656"
     inkscape:cx="777.5913"
     inkscape:cy="490.68692"
     inkscape:window-width="1384"
     inkscape:window-height="847"
     inkscape:window-x="108"
     inkscape:window-y="173"
     inkscape:window-maximized="0"
     inkscape:current-layer="patch_5-1" />
  <metadata
     id="metadata1">
    <rdf:RDF>
      <cc:Work>
        <dc:type
           rdf:resource="http://purl.org/dc/dcmitype/StillImage" />
        <dc:date>2025-02-09T15:21:14.159423</dc:date>
        <dc:format>image/svg+xml</dc:format>
        <dc:creator>
          <cc:Agent>
            <dc:title>Matplotlib v3.7.5, https://matplotlib.org/</dc:title>
          </cc:Agent>
        </dc:creator>
      </cc:Work>
    </rdf:RDF>
  </metadata>
  <defs
     id="defs1">
    <style
       type="text/css"
       id="style1">*{stroke-linejoin: round; stroke-linecap: butt}</style>
    <clipPath
       id="pfc9d2fcfc2-9">
      <rect
         x="44.203125"
         y="14.599219"
         width="281.23688"
         height="230.80612"
         id="rect120-3" />
    </clipPath>
    <clipPath
       id="clipPath1">
      <rect
         x="44.203125"
         y="14.599219"
         width="281.23688"
         height="230.80612"
         id="rect1" />
    </clipPath>
    <clipPath
       id="clipPath2">
      <rect
         x="44.203125"
         y="14.599219"
         width="281.23688"
         height="230.80612"
         id="rect2" />
    </clipPath>
    <clipPath
       id="clipPath3">
      <rect
         x="44.203125"
         y="14.599219"
         width="281.23688"
         height="230.80612"
         id="rect3" />
    </clipPath>
    <clipPath
       id="clipPath4">
      <rect
         x="44.203125"
         y="14.599219"
         width="281.23688"
         height="230.80612"
         id="rect4" />
    </clipPath>
    <clipPath
       id="clipPath5">
      <rect
         x="44.203125"
         y="14.599219"
         width="281.23688"
         height="230.80612"
         id="rect5" />
    </clipPath>
    <clipPath
       id="clipPath6">
      <rect
         x="44.203125"
         y="14.599219"
         width="281.23688"
         height="230.80612"
         id="rect6" />
    </clipPath>
    <clipPath
       id="clipPath7">
      <rect
         x="44.203125"
         y="14.599219"
         width="281.23688"
         height="230.80612"
         id="rect7" />
    </clipPath>
    <clipPath
       id="clipPath8">
      <rect
         x="44.203125"
         y="14.599219"
         width="281.23688"
         height="230.80612"
         id="rect8" />
    </clipPath>
    <path
       id="DejaVuSans-50-6"
       d="M 1259,4147 V 2394 h 794 q 441,0 681,228 241,228 241,650 0,419 -241,647 -240,228 -681,228 z m -631,519 h 1425 q 785,0 1186,-355 402,-355 402,-1039 0,-691 -402,-1044 -401,-353 -1186,-353 H 1259 V 0 H 628 Z"
       transform="scale(0.015625)" />
    <path
       id="DejaVuSans-6f-4"
       d="m 1959,3097 q -462,0 -731,-361 -269,-361 -269,-989 0,-628 267,-989 268,-361 733,-361 460,0 728,362 269,363 269,988 0,622 -269,986 -268,364 -728,364 z m 0,487 q 750,0 1178,-488 429,-487 429,-1349 Q 3566,888 3137,398 2709,-91 1959,-91 1206,-91 779,398 353,888 353,1747 q 0,862 426,1349 427,488 1180,488 z"
       transform="scale(0.015625)" />
    <path
       id="DejaVuSans-70-0"
       d="M 1159,525 V -1331 H 581 v 4831 h 578 v -531 q 182,312 458,463 277,152 661,152 638,0 1036,-506 399,-506 399,-1331 0,-825 -399,-1332 -398,-506 -1036,-506 -384,0 -661,152 -276,152 -458,464 z m 1957,1222 q 0,634 -261,995 -261,361 -717,361 -457,0 -718,-361 -261,-361 -261,-995 0,-634 261,-995 261,-361 718,-361 456,0 717,361 261,361 261,995 z"
       transform="scale(0.015625)" />
    <path
       id="DejaVuSans-75-8"
       d="m 544,1381 v 2119 h 575 V 1403 q 0,-497 193,-746 194,-248 582,-248 465,0 735,297 271,297 271,810 v 1984 h 575 V 0 H 2900 V 538 Q 2691,219 2414,64 2138,-91 1772,-91 1169,-91 856,284 544,659 544,1381 Z m 1447,2203 z"
       transform="scale(0.015625)" />
    <path
       id="DejaVuSans-6c-1"
       d="m 603,4863 h 575 V 0 H 603 Z"
       transform="scale(0.015625)" />
    <path
       id="DejaVuSans-61-9"
       d="m 2194,1759 q -697,0 -966,-159 -269,-159 -269,-544 0,-306 202,-486 202,-179 548,-179 479,0 768,339 289,339 289,901 v 128 z m 1147,238 V 0 H 2766 V 531 Q 2569,213 2275,61 1981,-91 1556,-91 q -537,0 -855,302 -317,302 -317,808 0,590 395,890 396,300 1180,300 h 807 v 57 q 0,397 -261,614 -261,217 -733,217 -300,0 -585,-72 -284,-72 -546,-216 v 532 q 315,122 612,182 297,61 578,61 760,0 1135,-394 375,-393 375,-1193 z"
       transform="scale(0.015625)" />
    <path
       id="DejaVuSans-74-5"
       d="M 1172,4494 V 3500 H 2356 V 3053 H 1172 V 1153 q 0,-428 117,-550 117,-122 477,-122 h 590 V 0 H 1766 Q 1100,0 847,248 594,497 594,1153 V 3053 H 172 v 447 h 422 v 994 z"
       transform="scale(0.015625)" />
    <path
       id="DejaVuSans-69-5"
       d="m 603,3500 h 575 V 0 H 603 Z m 0,1363 h 575 V 4134 H 603 Z"
       transform="scale(0.015625)" />
    <path
       id="DejaVuSans-6e-1"
       d="M 3513,2113 V 0 h -575 v 2094 q 0,497 -194,743 -194,247 -581,247 -466,0 -735,-297 -269,-296 -269,-809 V 0 H 581 v 3500 h 578 v -544 q 207,316 486,472 280,156 646,156 603,0 912,-373 310,-373 310,-1098 z"
       transform="scale(0.015625)" />
    <path
       id="DejaVuSans-31-7"
       d="M 794,531 H 1825 V 4091 L 703,3866 v 575 l 1116,225 h 631 V 531 H 3481 V 0 H 794 Z"
       transform="scale(0.015625)" />
    <path
       id="DejaVuSans-32-2"
       d="M 1228,531 H 3431 V 0 H 469 v 531 q 359,372 979,998 621,627 780,809 303,340 423,576 121,236 121,464 0,372 -261,606 -261,235 -680,235 -297,0 -627,-103 -329,-103 -704,-313 v 638 q 381,153 712,231 332,78 607,78 725,0 1156,-363 431,-362 431,-968 0,-288 -108,-546 -107,-257 -392,-607 -78,-91 -497,-524 Q 1991,1309 1228,531 Z"
       transform="scale(0.015625)" />
    <path
       id="mad85fa32c6-8"
       d="M 0,0 H -3.5"
       style="stroke:#000000;stroke-width:0.8" />
    <path
       id="DejaVuSans-30-7"
       d="m 2034,4250 q -487,0 -733,-480 -245,-479 -245,-1442 0,-959 245,-1439 246,-480 733,-480 491,0 736,480 246,480 246,1439 0,963 -246,1442 -245,480 -736,480 z m 0,500 q 785,0 1199,-621 414,-620 414,-1801 0,-1178 -414,-1799 -414,-620 -1199,-620 -784,0 -1198,620 -414,621 -414,1799 0,1181 414,1801 414,621 1198,621 z"
       transform="scale(0.015625)" />
    <path
       id="DejaVuSans-34-3"
       d="M 2419,4116 825,1625 h 1594 z m -166,550 h 794 V 1625 h 666 V 1100 H 3047 V 0 H 2419 V 1100 H 313 v 609 z"
       transform="scale(0.015625)" />
    <path
       id="DejaVuSans-36-5"
       d="m 2113,2584 q -425,0 -674,-291 -248,-290 -248,-796 0,-503 248,-796 249,-292 674,-292 425,0 673,292 248,293 248,796 0,506 -248,796 -248,291 -673,291 z m 1253,1979 v -575 q -238,112 -480,171 -242,60 -480,60 -625,0 -955,-422 -329,-422 -376,-1275 184,272 462,417 279,145 613,145 703,0 1111,-427 408,-426 408,-1160 0,-719 -425,-1154 -425,-434 -1131,-434 -810,0 -1238,620 -428,621 -428,1799 0,1106 525,1764 525,658 1409,658 238,0 480,-47 242,-47 505,-140 z"
       transform="scale(0.015625)" />
    <path
       id="DejaVuSans-38-8"
       d="m 2034,2216 q -450,0 -708,-241 -257,-241 -257,-662 0,-422 257,-663 258,-241 708,-241 450,0 709,242 260,243 260,662 0,421 -258,662 -257,241 -711,241 z m -631,268 q -406,100 -633,378 -226,279 -226,679 0,559 398,884 399,325 1092,325 697,0 1094,-325 397,-325 397,-884 0,-400 -227,-679 -226,-278 -629,-378 456,-106 710,-416 255,-309 255,-755 Q 3634,634 3220,271 2806,-91 2034,-91 1263,-91 848,271 434,634 434,1313 q 0,446 256,755 257,310 713,416 z m -231,997 q 0,-362 226,-565 227,-203 636,-203 407,0 636,203 230,203 230,565 0,363 -230,566 -229,203 -636,203 -409,0 -636,-203 -226,-203 -226,-566 z"
       transform="scale(0.015625)" />
    <path
       id="DejaVuSans-6d-7"
       d="m 3328,2828 q 216,388 516,572 300,184 706,184 547,0 844,-383 297,-382 297,-1088 V 0 h -578 v 2094 q 0,503 -179,746 -178,244 -543,244 -447,0 -707,-297 -259,-296 -259,-809 V 0 h -578 v 2094 q 0,506 -178,748 -178,242 -550,242 -441,0 -701,-298 -259,-298 -259,-808 V 0 H 581 v 3500 h 578 v -544 q 197,322 472,475 275,153 653,153 382,0 649,-194 267,-193 395,-562 z"
       transform="scale(0.015625)" />
    <path
       id="DejaVuSans-65-6"
       d="M 3597,1894 V 1613 H 953 q 38,-594 358,-905 320,-311 892,-311 331,0 642,81 311,81 618,244 V 178 Q 3153,47 2828,-22 2503,-91 2169,-91 1331,-91 842,396 353,884 353,1716 q 0,859 464,1363 464,505 1252,505 706,0 1117,-455 411,-454 411,-1235 z m -575,169 q -6,471 -264,752 -258,282 -683,282 -481,0 -770,-272 -289,-272 -333,-766 z"
       transform="scale(0.015625)" />
    <path
       id="DejaVuSans-20-4"
       transform="scale(0.015625)"
       d="" />
    <path
       id="DejaVuSans-67-6"
       d="m 2906,1791 q 0,625 -258,968 -257,344 -723,344 -462,0 -720,-344 -258,-343 -258,-968 0,-622 258,-966 258,-344 720,-344 466,0 723,344 258,344 258,966 z M 3481,434 q 0,-893 -397,-1329 -396,-436 -1215,-436 -303,0 -572,45 -269,45 -522,139 v 559 q 253,-137 500,-202 247,-66 503,-66 566,0 847,295 281,295 281,892 V 616 Q 2728,306 2450,153 2172,0 1784,0 1141,0 747,490 353,981 353,1791 q 0,812 394,1302 394,491 1037,491 388,0 666,-153 278,-153 456,-462 v 531 h 575 z"
       transform="scale(0.015625)" />
    <path
       id="DejaVuSans-28-3"
       d="m 1984,4856 q -418,-718 -622,-1422 -203,-703 -203,-1425 0,-721 205,-1429 205,-708 620,-1424 h -500 q -468,735 -701,1444 -233,709 -233,1409 0,697 231,1403 232,707 703,1444 z"
       transform="scale(0.015625)" />
    <path
       id="DejaVuSans-72-7"
       d="m 2631,2963 q -97,56 -211,82 -114,27 -251,27 -488,0 -749,-317 -261,-317 -261,-911 V 0 H 581 v 3500 h 578 v -544 q 182,319 472,473 291,155 707,155 59,0 131,-8 72,-7 159,-23 z"
       transform="scale(0.015625)" />
    <path
       id="DejaVuSans-73-8"
       d="m 2834,3397 v -544 q -243,125 -506,187 -262,63 -544,63 -428,0 -642,-131 -214,-131 -214,-394 0,-200 153,-314 153,-114 616,-217 l 197,-44 q 612,-131 870,-370 258,-239 258,-667 0,-488 -386,-773 Q 2250,-91 1575,-91 1294,-91 989,-36 684,19 347,128 v 594 q 319,-166 628,-249 309,-82 613,-82 406,0 624,139 219,139 219,392 0,234 -158,359 -157,125 -692,241 l -200,47 q -534,112 -772,345 -237,233 -237,639 0,494 350,762 350,269 994,269 318,0 599,-47 282,-46 519,-140 z"
       transform="scale(0.015625)" />
    <path
       id="DejaVuSans-29-4"
       d="m 513,4856 h 500 q 468,-737 701,-1444 233,-706 233,-1403 0,-700 -233,-1409 -233,-709 -701,-1444 H 513 q 415,716 620,1424 205,708 205,1429 0,722 -205,1425 -205,704 -620,1422 z"
       transform="scale(0.015625)" />
    <path
       id="DejaVuSans-41-2"
       d="M 2188,4044 1331,1722 h 1716 z m -357,622 h 716 L 4325,0 H 3669 L 3244,1197 H 1141 L 716,0 H 50 Z"
       transform="scale(0.015625)" />
    <path
       id="DejaVuSans-63-3"
       d="m 3122,3366 v -538 q -244,135 -489,202 -245,67 -495,67 -560,0 -870,-355 -309,-354 -309,-995 0,-641 309,-996 310,-354 870,-354 250,0 495,67 245,67 489,202 V 134 Q 2881,22 2623,-34 2366,-91 2075,-91 1284,-91 818,406 353,903 353,1747 q 0,856 470,1346 471,491 1290,491 265,0 518,-55 253,-54 491,-163 z"
       transform="scale(0.015625)" />
    <path
       id="mb784debdd4-4"
       d="M 0,0 V -3.5"
       style="stroke:#000000;stroke-width:0.8" />
    <path
       id="mc0fa220feb-0"
       d="M 0,0 V -2"
       style="stroke:#000000;stroke-width:0.6" />
    <path
       id="DejaVuSans-64-6"
       d="m 2906,2969 v 1894 h 575 V 0 H 2906 V 525 Q 2725,213 2448,61 2172,-91 1784,-91 1150,-91 751,415 353,922 353,1747 q 0,825 398,1331 399,506 1033,506 388,0 664,-152 277,-151 458,-463 z M 947,1747 q 0,-634 261,-995 261,-361 717,-361 456,0 718,361 263,361 263,995 0,634 -263,995 -262,361 -718,361 -456,0 -717,-361 -261,-361 -261,-995 z"
       transform="scale(0.015625)" />
    <path
       id="DejaVuSans-7a-5"
       d="M 353,3500 H 3084 V 2975 L 922,459 H 3084 V 0 H 275 V 525 L 2438,3041 H 353 Z"
       transform="scale(0.015625)" />
    <path
       id="DejaVuSans-76-1"
       d="M 191,3500 H 800 L 1894,563 2988,3500 h 609 L 2284,0 h -781 z"
       transform="scale(0.015625)" />
    <clipPath
       id="clipPath9">
      <rect
         x="44.203125"
         y="14.599219"
         width="281.23688"
         height="230.80612"
         id="rect9" />
    </clipPath>
  </defs>
  <g
     id="figure_1-7"
     style="stroke-linecap:butt;stroke-linejoin:round"
     transform="translate(353.44292,43.688887)">
    <g
       id="axes_1-1"
       style="stroke-linecap:butt;stroke-linejoin:round">
      <g
         id="patch_2-5"
         style="stroke-linecap:butt;stroke-linejoin:round" />
      <g
         id="patch_3-7"
         style="stroke-linecap:butt;stroke-linejoin:round">
        <g
           id="patch_4-4"
           style="stroke-linecap:butt;stroke-linejoin:round">
          <g
             id="patch_5-1"
             style="stroke-linecap:butt;stroke-linejoin:round" />
        </g>
        <defs
           id="defs120-1">
          <clipPath
             id="clipPath151">
            <rect
               x="44.203125"
               y="14.599219"
               width="281.23688"
               height="230.80612"
               id="rect151" />
          </clipPath>
        </defs>
      </g>
    </g>
  </g>
  <path
     class="cls-6"
     d="m 818.88857,182.25127 a 59.055,59.055 0 0 1 0.615,7.7775 0.84,0.84 0 0 0 1.68,0 67.5825,67.5825 0 0 0 -0.6675,-8.25 c -0.1725,-1.065 -1.7925,-0.615 -1.6275,0.45 z"
     id="path382670"
     style="fill:#c1272d;stroke-width:0.75" />
  <path
     class="cls-6"
     d="m 822.58607,180.87127 c 0.675,3.8625 1.4025,7.7775 2.07,11.64 0.165,1.065 1.7925,0.615 1.6275,-0.4425 -0.675,-3.8625 -1.4025,-7.785 -2.0775,-11.6475 -0.2175,-1.065 -1.845,-0.615 -1.62,0.45 z"
     id="path382672"
     style="fill:#c1272d;stroke-width:0.75" />
  <path
     class="cls-6"
     d="m 853.14858,183.25627 c 0.0525,3.1875 0.165,6.3825 0.39,9.57 0.06,1.065 1.7325,1.065 1.68,0 -0.225,-3.1875 -0.39,-6.3825 -0.39,-9.57 a 0.84,0.84 0 0 0 -1.68,0 z"
     id="path382674"
     style="fill:#c1272d;stroke-width:0.75" />
  <path
     class="cls-6"
     d="m 865.29108,183.42127 c 0.3975,3.42 0.675,6.885 1.34252,10.2975 0.225,1.065 1.8525,0.6225 1.6275,-0.4425 -0.615,-3.2475 -0.9,-6.5475 -1.29,-9.855 -0.1125,-1.065 -1.79252,-1.065 -1.68002,0 z"
     id="path382676"
     style="fill:#c1272d;stroke-width:0.75" />
  <path
     class="cls-6"
     d="m 898.5986,178.89127 a 32.6025,32.6025 0 0 0 1.005,8.055 0.84329154,0.84329154 0 0 0 1.6275,-0.4425 31.545,31.545 0 0 1 -0.9525,-7.6125 c -0.06,-1.1175 -1.74,-1.1175 -1.68,0 z"
     id="path382678"
     style="fill:#c1272d;stroke-width:0.75" />
  <path
     class="cls-7"
     d="m 830.58857,180.12127 c 0.675,4.365 1.29,8.79 1.74,13.2075 0.105,1.065 1.785,1.065 1.6725,0 -0.5025,-4.59 -1.0575,-9.12 -1.785,-13.6575 -0.225,-1.065 -1.7925,-0.615 -1.6275,0.45 z"
     id="path382680"
     style="fill:#fcee21;stroke-width:0.75" />
  <path
     class="cls-7"
     d="m 859.13358,182.86627 c 0.285,2.4075 0.615,4.8075 0.9,7.215 0.165,1.5675 0,3.8625 0.84,5.205 a 0.84,0.84 0 0 0 1.3425,0.1725 c 0,-0.06 0.0525,-0.06 0.0525,-0.1125 a 0.8025,0.8025 0 0 0 0,-1.1775 l -0.0525,-0.0525 c -0.84,-0.75 -2.0175,0.5025 -1.1775,1.17 l 0.06,0.06 v -1.1775 c 0,0.06 -0.06,0.06 -0.06,0.1125 l 1.3425,0.1725 c -0.75,-1.29 -0.615,-4.3125 -0.75,-5.715 -0.225,-1.9575 -0.5025,-3.915 -0.75,-5.8725 -0.225,-1.065 -1.905,-1.065 -1.74,0 z"
     id="path382682"
     style="fill:#fcee21;stroke-width:0.75" />
  <path
     class="cls-7"
     d="m 881.5811,181.85377 a 61.8975,61.8975 0 0 0 0.225,7.17 c 0.1125,1.0575 1.7925,1.0575 1.68,0 a 60.27,60.27 0 0 1 -0.225,-7.17 c 0.052,-1.1175 -1.62,-1.1175 -1.68,0 z"
     id="path382684"
     style="fill:#fcee21;stroke-width:0.75" />
  <path
     class="cls-8"
     d="m 826.28357,180.51127 c 1.3425,4.425 2.5125,8.9025 3.4125,13.38 0.225,1.065 1.845,0.615 1.62,-0.45 a 133.905,133.905 0 0 0 -3.4125,-13.38 c -0.3375,-1.005 -1.9575,-0.555 -1.62,0.45 z"
     id="path382686"
     style="fill:#0000ff;stroke-width:0.75" />
  <path
     class="cls-8"
     d="m 848.72358,184.62127 c 0.5625,2.295 1.0125,4.65 1.455,6.9975 0.1725,1.065 1.7925,0.615 1.6275,-0.4425 -0.3975,-2.355 -0.9,-4.7025 -1.455,-6.9975 a 0.84329154,0.84329154 0 0 0 -1.6275,0.4425 z"
     id="path382688"
     style="fill:#0000ff;stroke-width:0.75" />
  <path
     class="cls-8"
     d="m 889.0811,178.21627 c 0.45,4.035 0.9525,8.0025 1.4025,12 0.1125,1.065 1.785,1.065 1.68,0 -0.45,-4.035 -0.9525,-8.0025 -1.4025,-12 -0.1125,-1.065 -1.7925,-1.1175 -1.68,0 z"
     id="path382690"
     style="fill:#0000ff;stroke-width:0.75" />
  <path
     class="cls-8"
     d="m 902.5736,179.73127 c 0.225,1.62 0.4425,3.1875 0.75,4.755 0.225,1.065 1.845,0.615 1.6275,-0.45 -0.285,-1.455 -0.5625,-2.85 -0.75,-4.305 -0.1125,-1.065 -1.7925,-1.065 -1.68,0 z"
     id="path382692"
     style="fill:#0000ff;stroke-width:0.75" />
  <path
     class="cls-9"
     d="m 834.95357,184.32127 c 0.5625,2.295 1.065,4.5 1.62751,6.825 0.225,1.065 1.845,0.615 1.62,-0.45 -0.555,-2.295 -1.065,-4.5 -1.62,-6.825 a 0.8475,0.8475 0 0 0 -1.62751,0.45 z"
     id="path382694"
     style="fill:#8cc63f;stroke-width:0.75" />
  <path
     class="cls-9"
     d="m 838.42608,186.44377 c 0.3375,0.75 0.615,1.455 0.9525,2.1825 0.2775,0.615 0.45,1.3425 1.065,1.68 a 0.75,0.75 0 0 0 0.84,0 0.9,0.9 0 0 0 0.5025,-0.6675 0.9225,0.9225 0 0 0 -0.39,-0.9525 l -0.06,-0.06 c -0.8925,-0.555 -1.7325,0.9 -0.84,1.455 l 0.06,0.06 c -0.1125,-0.3375 -0.285,-0.615 -0.3975,-0.9525 v 0.1125 c 0.1125,-0.165 0.285,-0.3375 0.3975,-0.5025 -0.06,0 -0.06,0.0525 -0.1125,0.0525 h 0.84 c 0.1125,0.1125 0.1125,0.06 -0.06,-0.225 -0.0525,-0.165 -0.165,-0.33 -0.225,-0.5025 -0.06,-0.1725 -0.225,-0.5025 -0.33,-0.75 -0.285,-0.615 -0.51,-1.1775 -0.75,-1.7925 -0.45,-0.9525 -1.905,-0.06 -1.455,0.8925 z"
     id="path382696"
     style="fill:#8cc63f;stroke-width:0.75" />
  <path
     class="cls-9"
     d="m 855.88608,183.42127 c 0.9,3.585 0.225,7.275 1.1775,10.86 a 0.8475,0.8475 0 0 0 1.6275,-0.45 c -1.0125,-3.525 -0.285,-7.275 -1.1775,-10.8525 -0.225,-1.0125 -1.845,-0.5625 -1.6275,0.4425 z"
     id="path382698"
     style="fill:#8cc63f;stroke-width:0.75" />
  <path
     class="cls-9"
     d="m 869.4386,184.62127 c 0.39,2.0775 0.75,4.2 1.17,6.27 0.1725,1.065 1.7925,0.615 1.6275,-0.4425 -0.3975,-2.0775 -0.7875,-4.2 -1.1775,-6.27 -0.225,-1.065 -1.845,-0.615 -1.62,0.4425 z"
     id="path382700"
     style="fill:#8cc63f;stroke-width:0.75" />
  <path
     class="cls-9"
     d="m 885.3911,179.61877 c 0.165,3.3 -0.225,7.275 0.8925,10.4625 0.3375,1.0125 1.9575,0.5625 1.62,-0.4425 -1.0575,-3 -0.6675,-6.8325 -0.84,-10.02 -0.052,-1.1175 -1.7325,-1.1175 -1.6725,0 z"
     id="path382702"
     style="fill:#8cc63f;stroke-width:0.75" />
  <path
     class="cls-9"
     d="m 893.6711,178.32877 a 75.255,75.255 0 0 0 1.7325,10.5 0.8475,0.8475 0 0 0 1.6275,-0.4575 75.2625,75.2625 0 0 1 -1.68,-10.0725 c -0.1125,-1.065 -1.7925,-1.065 -1.68,0 z"
     id="path382704"
     style="fill:#8cc63f;stroke-width:0.75" />
  <path
     d="m 812.28106,191.03377 c 2.01,-3.075 4.08751,-6.21 7.05001,-8.4525 4.2,-3.1875 9,-2.7975 13.6575,-0.555 7.11001,3.465 12.65251,9.57 19.92751,12.705 5.655,2.4075 12.75,3.1875 18.00002,-0.675 2.4075,-1.7925 4.0275,-4.305 5.7075,-6.75 2.5725,-3.8025 5.37,-6.4875 9.8475,-7.89 9.1275,-2.7975 19.425,-0.5025 26.76,5.4825 0.84,0.675 2.01,-0.5025 1.17,-1.17 a 31.41,31.41 0 0 0 -21.12,-7.1325 26.1,26.1 0 0 0 -11.025,2.775 c -3.2475,1.74 -5.3175,4.5375 -7.335,7.4475 -2.52,3.75 -5.205,7.11 -9.85502,8.0025 -4.5,0.9 -9.2325,-0.39 -13.2075,-2.4075 -7.665,-3.975 -13.8225,-11.3625 -22.38751,-13.5 -8.73,-2.1825 -14.38501,4.755 -18.63751,11.25 a 0.855,0.855 0 0 0 1.455,0.8925 z"
     id="path382706"
     style="stroke-width:0.75" />
  <path
     d="m 810.88606,178.94377 c 3.3,6.8325 7.27501,14.445 15.17251,16.5675 8.115,2.1825 12.81751,-4.365 18.86251,-8.34 a 29.1825,29.1825 0 0 1 23.95502,-3.4125 c 4.2525,1.29 7.665,3.915 11.475,6 a 18.75,18.75 0 0 0 11.3625,2.1825 c 9.2925,-1.29 15.9525,-8.4 21.9375,-14.9475 0.75,-0.75 -0.4425,-2.0175 -1.17,-1.1775 -6.885,7.6125 -16.455,17.58 -27.93,13.995 -4.7625,-1.5 -8.565,-5.1525 -13.215,-6.9375 a 30.1575,30.1575 0 0 0 -12.20252,-1.905 30.93,30.93 0 0 0 -11.415,2.745 c -4.2525,1.9575 -7.335,5.145 -11.025,7.83 -5.04001,3.645 -10.80751,3.36 -15.67501,-0.555 -4.0875,-3.3075 -6.43501,-8.25 -8.67751,-12.93 -0.4425,-0.9 -1.905,-0.06 -1.455,0.8925 z"
     id="path382708"
     style="stroke-width:0.75" />
  <path
     class="cls-8"
     d="m 822.92357,98.88127 c -0.1725,1.74 0.2775,3.36 0.555,5.04 a 60.6825,60.6825 0 0 1 0.615,6.435 c 0.06,1.065 1.74,1.065 1.68,0 -0.0525,-1.7325 -0.165,-3.4725 -0.39,-5.205 -0.2775,-2.07 -0.9525,-4.14 -0.75,-6.21 0.0525,-1.125 -1.62,-1.125 -1.7325,-0.06 z"
     id="path382710"
     style="fill:#0000ff;stroke-width:0.75" />
  <path
     class="cls-8"
     d="m 848.89608,99.05377 c -0.45,3.3525 0.555,7.275 0.945,10.635 0.1125,1.0575 1.7925,1.0575 1.68,0 -0.165,-1.68 -0.39,-3.42 -0.555,-5.1 -0.165,-1.68 -0.675,-3.465 -0.45,-5.0925 0.165,-1.065 -1.455,-1.5 -1.62,-0.4425 z"
     id="path382712"
     style="fill:#0000ff;stroke-width:0.75" />
  <path
     class="cls-8"
     d="m 851.74608,98.37127 c 0.75,3.8025 1.4025,7.665 1.905,11.5275 0.1125,1.065 1.7925,1.065 1.68,0 -0.45,-4.0275 -1.1175,-8.0025 -1.9575,-12 -0.225,-1.065 -1.8525,-0.615 -1.6275,0.45 z"
     id="path382714"
     style="fill:#0000ff;stroke-width:0.75" />
  <path
     class="cls-8"
     d="m 880.5311,97.37377 c -0.053,3.525 -0.1125,7.05 -0.053,10.635 a 0.84,0.84 0 0 0 1.68,0 c -0.06,-3.5325 -0.06,-7.0575 0.053,-10.635 a 0.84,0.84 0 1 0 -1.68,0 z"
     id="path382716"
     style="fill:#0000ff;stroke-width:0.75" />
  <path
     class="cls-8"
     d="m 893.7236,102.07627 v 5.295 a 0.84,0.84 0 0 0 1.68,0 v -5.295 a 0.84,0.84 0 1 0 -1.68,0 z"
     id="path382718"
     style="fill:#0000ff;stroke-width:0.75" />
  <path
     class="cls-7"
     d="m 819.56357,100.28377 a 37.185,37.185 0 0 1 2.1225,10.185 c 0.06,1.065 1.74,1.065 1.68,0 a 37.815,37.815 0 0 0 -2.1825,-10.5975 c -0.39,-1.005 -2.01,-0.5625 -1.62,0.45 z"
     id="path382720"
     style="fill:#fcee21;stroke-width:0.75" />
  <path
     class="cls-7"
     d="m 860.47608,98.99377 a 38.595,38.595 0 0 1 1.5675,8.3775 c 0.1125,1.0575 1.7925,1.0575 1.68,0 a 43.275,43.275 0 0 0 -1.62,-8.85 0.8475,0.8475 0 0 0 -1.6275,0.45 z"
     id="path382722"
     style="fill:#fcee21;stroke-width:0.75" />
  <path
     class="cls-7"
     d="m 862.83108,99.94627 a 34.425,34.425 0 0 0 1.62,4.7025 c 0.45,1.005 1.8525,0.1125 1.455,-0.84 a 31.02,31.02 0 0 1 -1.455,-4.3125 0.84066938,0.84066938 0 0 0 -1.62,0.45 z"
     id="path382724"
     style="fill:#fcee21;stroke-width:0.75" />
  <path
     class="cls-7"
     d="m 886.2836,98.71627 c 0.2775,3.5775 0.5025,7.1625 0.75,10.8 0.06,1.065 1.74,1.065 1.68,0 -0.2775,-3.5775 -0.5025,-7.1625 -0.75,-10.8 -0.1125,-1.065 -1.7925,-1.065 -1.68,0 z"
     id="path382726"
     style="fill:#fcee21;stroke-width:0.75" />
  <path
     class="cls-6"
     d="m 826.83857,98.54377 a 115.455,115.455 0 0 1 0.1125,12.375 c -0.0525,1.065 1.62,1.065 1.68,0 a 115.455,115.455 0 0 0 -0.1125,-12.375 c -0.1125,-1.0575 -1.7925,-1.1175 -1.68,0 z"
     id="path382728"
     style="fill:#c1272d;stroke-width:0.75" />
  <path
     class="cls-6"
     d="m 854.54358,98.15377 c 2.07,3.6375 2.07,7.89 3.0825,11.865 a 0.84,0.84 0 0 0 1.62,-0.4425 c -1.005,-4.1475 -1.065,-8.5125 -3.2475,-12.2625 a 0.84003348,0.84003348 0 0 0 -1.455,0.84 z"
     id="path382730"
     style="fill:#c1272d;stroke-width:0.75" />
  <path
     class="cls-6"
     d="m 883.7636,97.14877 a 72.195,72.195 0 0 1 0.1125,12.54 c -0.052,1.0575 1.62,1.0575 1.68,0 a 85.2825,85.2825 0 0 0 -0.1125,-12.54 c -0.06,-1.065 -1.7325,-1.065 -1.68,0 z"
     id="path382732"
     style="fill:#c1272d;stroke-width:0.75" />
  <path
     class="cls-6"
     d="m 896.5811,102.63127 a 10.6725,10.6725 0 0 0 -0.1125,3 c 0.1125,1.065 1.7925,1.065 1.68,0 a 12.87,12.87 0 0 1 0.06,-2.52 0.84,0.84 0 0 0 -0.5625,-1.005 0.795,0.795 0 0 0 -1.065,0.555 z"
     id="path382734"
     style="fill:#c1272d;stroke-width:0.75" />
  <path
     class="cls-9"
     d="m 816.48107,101.73877 a 21.75,21.75 0 0 1 2.55,7.2225 c 0.165,1.0575 1.7925,0.615 1.62,-0.45 a 24.1125,24.1125 0 0 0 -2.745,-7.6125 0.84003348,0.84003348 0 0 0 -1.455,0.84 z"
     id="path382736"
     style="fill:#8cc63f;stroke-width:0.75" />
  <path
     class="cls-9"
     d="m 832.77107,102.69127 c 0.39,1.62 0.675,3.2475 0.9,4.8675 0.165,1.065 1.845,1.065 1.6725,0 -0.2175,-1.7925 -0.555,-3.525 -0.945,-5.3175 -0.225,-1.065 -1.8525,-0.615 -1.6275,0.45 z"
     id="path382738"
     style="fill:#8cc63f;stroke-width:0.75" />
  <path
     class="cls-9"
     d="m 835.56857,104.42377 0.675,1.1775 a 0.885,0.885 0 0 0 1.1775,0.2775 0.84,0.84 0 0 0 0.27751,-1.1775 l -0.67501,-1.17 a 0.87,0.87 0 0 0 -1.17,-0.285 0.96,0.96 0 0 0 -0.285,1.1775 z"
     id="path382740"
     style="fill:#8cc63f;stroke-width:0.75" />
  <path
     class="cls-9"
     d="m 857.67858,97.37377 c 0.75,3.6375 1.5,7.3275 2.25,10.965 0.225,1.065 1.845,0.6225 1.62,-0.4425 -0.75,-3.6375 -1.5,-7.335 -2.25,-10.9725 -0.225,-1.005 -1.8525,-0.5625 -1.6275,0.45 z"
     id="path382742"
     style="fill:#8cc63f;stroke-width:0.75" />
  <path
     class="cls-9"
     d="m 889.4186,99.15877 a 93.1575,93.1575 0 0 1 1.5675,9.405 c 0.1125,1.065 1.7925,1.065 1.68,0 a 99.6225,99.6225 0 0 0 -1.68,-9.8475 c -0.1725,-1.065 -1.7925,-0.615 -1.5675,0.4425 z"
     id="path382744"
     style="fill:#8cc63f;stroke-width:0.75" />
  <path
     class="cls-9"
     d="m 877.1561,97.70377 a 45.345,45.345 0 0 0 0.1725,8.6775 c 0.1125,1.065 1.7925,1.065 1.68,0 a 50.055,50.055 0 0 1 -0.1725,-8.6775 c 0.1125,-1.0575 -1.5675,-1.0575 -1.68,0 z"
     id="path382746"
     style="fill:#8cc63f;stroke-width:0.75" />
  <path
     class="cls-9"
     d="m 874.5836,99.12127 a 33.0525,33.0525 0 0 0 0.3375,4.7025 c 0.1125,1.065 1.7925,1.065 1.68,0 a 33.0525,33.0525 0 0 1 -0.3375,-4.7025 0.84,0.84 0 0 0 -1.68,0 z"
     id="path382748"
     style="fill:#8cc63f;stroke-width:0.75" />
  <path
     class="cls-9"
     d="m 846.78108,101.06377 a 52.635,52.635 0 0 0 0.45,7.8975 c 0.1125,1.0575 1.785,1.0575 1.68,0 a 52.2375,52.2375 0 0 1 -0.45,-7.8975 0.84,0.84 0 0 0 -1.68,0 z"
     id="path382750"
     style="fill:#8cc63f;stroke-width:0.75" />
  <path
     class="cls-7"
     d="m 829.86107,100.50877 c 0.06,3 0.165,5.8725 0.225,8.8425 a 0.84,0.84 0 0 0 1.68,0 c -0.06,-3 -0.1725,-5.88 -0.225,-8.8425 -0.0525,-1.065 -1.7325,-1.125 -1.68,0 z"
     id="path382752"
     style="fill:#fcee21;stroke-width:0.75" />
  <path
     class="cls-6"
     d="m 814.08107,103.47127 c 0.5025,1.6275 1.005,3.3 1.5,4.9275 0.3375,1.005 1.9575,0.615 1.62,-0.45 -0.5025,-1.62 -1.005,-3.3 -1.5,-4.9275 a 0.84066938,0.84066938 0 0 0 -1.62,0.45 z"
     id="path382754"
     style="fill:#c1272d;stroke-width:0.75" />
  <path
     class="cls-6"
     d="m 843.68358,104.03377 a 16.86,16.86 0 0 0 0.1725,3.3375 0.855,0.855 0 0 0 0.84,0.8325 c 0.39,0 0.8925,-0.39 0.84,-0.8325 a 16.86,16.86 0 0 1 -0.1725,-3.36 c 0.06,-1.065 -1.62,-1.065 -1.68,0 z"
     id="path382756"
     style="fill:#c1272d;stroke-width:0.75" />
  <path
     class="cls-6"
     d="m 871.4486,100.89877 c 0.3375,0.6675 0.675,1.2825 1.005,1.9575 0.51,0.9525 1.965,0.1125 1.5,-0.84 -0.3375,-0.6675 -0.675,-1.29 -1.0125,-1.9575 -0.5025,-0.9525 -1.9575,-0.1125 -1.455,0.84 z"
     id="path382758"
     style="fill:#c1272d;stroke-width:0.75" />
  <path
     class="cls-6"
     d="m 905.9861,101.67877 c 0.225,1.1775 0.45,2.355 0.6675,3.525 0.2175,1.17 1.7925,0.6225 1.6275,-0.4425 l -0.675,-3.525 c -0.225,-1.065 -1.845,-0.615 -1.62,0.4425 z"
     id="path382760"
     style="fill:#c1272d;stroke-width:0.75" />
  <path
     class="cls-6"
     d="m 913.8236,96.58627 c 0.33,2.8575 0.84,5.655 1.395,8.4525 0.225,1.065 1.8525,0.615 1.6275,-0.45 -0.5625,-2.625 -1.0125,-5.3175 -1.3425,-8.0025 -0.1725,-1.065 -1.8525,-1.065 -1.68,0 z"
     id="path382762"
     style="fill:#c1272d;stroke-width:0.75" />
  <path
     class="cls-7"
     d="m 904.1936,104.47627 h 0.3375 a 0.84,0.84 0 1 0 0,-1.6725 h -0.3375 a 0.84,0.84 0 1 0 0,1.6725 z"
     id="path382764"
     style="fill:#fcee21;stroke-width:0.75" />
  <path
     class="cls-7"
     d="m 916.1186,95.97127 a 79.065,79.065 0 0 0 1.1175,8.115 c 0.225,1.065 1.845,0.615 1.62,-0.4425 a 58.6125,58.6125 0 0 1 -1.0575,-7.6725 c -0.1125,-1.065 -1.7925,-1.065 -1.68,0 z"
     id="path382766"
     style="fill:#fcee21;stroke-width:0.75" />
  <path
     class="cls-8"
     d="m 908.2811,100.33627 a 16.125,16.125 0 0 1 0.75,4.8675 0.84,0.84 0 0 0 1.68,0 17.25,17.25 0 0 0 -0.81,-5.3325 0.84066938,0.84066938 0 0 0 -1.62,0.45 z"
     id="path382768"
     style="fill:#0000ff;stroke-width:0.75" />
  <path
     class="cls-9"
     d="m 910.8536,98.60377 c 1.005,2.52 0.1725,5.37 1.3425,7.89 0.45,0.9525 1.905,0.1125 1.455,-0.84 -1.1175,-2.295 -0.225,-5.0925 -1.17,-7.44 -0.3975,-1.065 -2.0175,-0.615 -1.6275,0.39 z"
     id="path382770"
     style="fill:#8cc63f;stroke-width:0.75" />
  <path
     d="m 812.84356,108.06127 a 11.04,11.04 0 0 1 7.22251,-8.19 c 4.14,-1.455 8.2875,-0.4425 12.15,1.4025 7.21501,3.4725 13.43251,9.5175 21.71251,10.245 7.8375,0.6675 12.2625,-5.3775 17.40752,-10.08 3.75,-3.4125 7.8975,-5.0325 12.99,-4.14 4.6425,0.84 8.955,3.2475 13.095,5.3775 6.9975,3.5775 15.75,6.885 22.8375,1.785 0.84,-0.615 0.053,-2.07 -0.84,-1.455 -8.3925,6.105 -18.1875,-0.555 -26.025,-4.2525 -7.0575,-3.36 -14.7225,-5.145 -21.3825,0 -3,2.295 -5.3175,5.25 -8.17502,7.6725 a 13.8,13.8 0 0 1 -13.8225,2.625 c -8.4,-2.685 -14.77501,-10.0725 -23.67751,-11.3625 -6.8325,-1.005 -13.60501,3.135 -15.11251,10.02 a 0.8325,0.8325 0 0 0 1.62,0.3375 z"
     id="path382772"
     style="stroke-width:0.75" />
  <path
     d="m 811.78606,110.69377 c 3.12751,-3.0825 8.55751,1.29 12.19501,1.68 a 14.8425,14.8425 0 0 0 8.0625,-1.5 c 6.27001,-2.7975 11.25001,-7.7775 17.25001,-11.025 3.2475,-1.7325 6.885,-3 10.575,-2.3475 3.69,0.6525 6.88502,2.7375 9.85502,4.92 5.145,3.75 10.635,9 17.4075,9.0675 4.9275,0.06 9.18,-3 13.2075,-5.535 l 16.68,-10.5 c 0.9,-0.5625 0.06,-2.0175 -0.84,-1.455 -4.755,3 -9.57,6 -14.325,9 -4.3725,2.745 -9.2925,6.8325 -14.67,6.75 -7.5525,-0.0525 -13.545,-7.1025 -19.5,-10.8 -5.60252,-3.4725 -11.36252,-4.2525 -17.46752,-1.455 -6.3825,2.91 -11.3625,8.0625 -17.57251,11.25 -3.6375,1.905 -7.4475,2.6325 -11.4225,1.1775 -3.525,-1.29 -7.44,-3.525 -10.57501,-0.45 a 0.83261823,0.83261823 0 1 0 1.1775,1.1775 z"
     id="path382774"
     style="stroke-width:0.75" />
  <path
     class="cls-8"
     d="m 817.26857,120.54127 c -0.165,1.74 0.2775,3.36 0.5625,5.04 a 62.925,62.925 0 0 1 0.615,6.435 c 0.0525,1.065 1.7325,1.065 1.68,0 -0.06,-1.7325 -0.1725,-3.465 -0.3975,-5.205 -0.2775,-2.07 -0.9525,-4.14 -0.75,-6.21 0.06,-1.1175 -1.62,-1.1175 -1.7325,-0.06 z"
     id="path382776"
     style="fill:#0000ff;stroke-width:0.75" />
  <path
     class="cls-8"
     d="m 843.24108,120.71377 c -0.45,3.36 0.555,7.275 0.9525,10.635 0.1125,1.065 1.785,1.065 1.68,0 -0.1725,-1.68 -0.3975,-3.42 -0.5625,-5.0925 -0.165,-1.6725 -0.675,-3.4725 -0.45,-5.1 0.1125,-1.0575 -1.455,-1.5 -1.62,-0.4425 z"
     id="path382778"
     style="fill:#0000ff;stroke-width:0.75" />
  <path
     class="cls-8"
     d="m 846.03108,120.03877 c 0.75,3.81 1.4025,7.6725 1.905,11.535 0.1125,1.0575 1.785,1.0575 1.68,0 -0.45,-4.035 -1.125,-8.01 -1.965,-12 -0.2175,-1.005 -1.845,-0.555 -1.62,0.45 z"
     id="path382780"
     style="fill:#0000ff;stroke-width:0.75" />
  <path
     class="cls-8"
     d="m 874.8086,119.03377 c -0.06,3.525 -0.1125,7.05 -0.06,10.635 a 0.84,0.84 0 0 0 1.68,0 c -0.053,-3.525 -0.053,-7.05 0.06,-10.635 a 0.84,0.84 0 0 0 -1.68,0 z"
     id="path382782"
     style="fill:#0000ff;stroke-width:0.75" />
  <path
     class="cls-8"
     d="m 888.0761,123.73627 v 5.3175 a 0.84,0.84 0 0 0 1.68,0 v -5.3175 a 0.84,0.84 0 0 0 -1.68,0 z"
     id="path382784"
     style="fill:#0000ff;stroke-width:0.75" />
  <path
     class="cls-7"
     d="m 813.85607,121.99627 a 37.86,37.86 0 0 1 2.1225,10.1925 c 0.06,1.0575 1.74,1.0575 1.68,0 a 38.3475,38.3475 0 0 0 -2.1825,-10.635 c -0.39,-1.0125 -2.0175,-0.615 -1.62,0.4425 z"
     id="path382786"
     style="fill:#fcee21;stroke-width:0.75" />
  <path
     class="cls-7"
     d="m 854.82858,120.65377 a 39.045,39.045 0 0 1 1.5675,8.4 c 0.1125,1.065 1.785,1.065 1.6725,0 a 42.705,42.705 0 0 0 -1.62,-8.8425 c -0.3375,-1.0125 -1.9575,-0.5625 -1.62,0.4425 z"
     id="path382788"
     style="fill:#fcee21;stroke-width:0.75" />
  <path
     class="cls-7"
     d="m 857.12358,121.62127 a 31.8975,31.8975 0 0 0 1.62,4.7025 c 0.45,1.005 1.845,0.1125 1.455,-0.84 a 29.4525,29.4525 0 0 1 -1.455,-4.3125 0.84066938,0.84066938 0 0 0 -1.62,0.45 z"
     id="path382790"
     style="fill:#fcee21;stroke-width:0.75" />
  <path
     class="cls-7"
     d="m 880.5761,120.37627 c 0.2775,3.585 0.5025,7.1625 0.75,10.8 0.06,1.065 1.7325,1.065 1.68,0 -0.2775,-3.5775 -0.5025,-7.1625 -0.75,-10.8 -0.06,-1.065 -1.74,-1.065 -1.68,0 z"
     id="path382792"
     style="fill:#fcee21;stroke-width:0.75" />
  <path
     class="cls-6"
     d="m 821.13107,120.21127 a 115.32,115.32 0 0 1 0.1125,12.3675 c -0.06,1.065 1.62,1.065 1.68,0 a 115.32,115.32 0 0 0 -0.1125,-12.3675 c -0.06,-1.065 -1.74,-1.065 -1.68,0 z"
     id="path382794"
     style="fill:#c1272d;stroke-width:0.75" />
  <path
     class="cls-6"
     d="m 848.89608,119.81377 c 2.07,3.6375 2.07,7.8975 3.075,11.8725 a 0.84066938,0.84066938 0 0 0 1.62,-0.45 c -1.005,-4.14 -1.0575,-8.5125 -3.24,-12.2625 -0.5625,-0.945 -2.0175,-0.0525 -1.455,0.84 z"
     id="path382796"
     style="fill:#c1272d;stroke-width:0.75" />
  <path
     class="cls-6"
     d="m 878.1086,118.80877 a 71.46,71.46 0 0 1 0.1125,12.54 c -0.053,1.065 1.6275,1.065 1.68,0 a 85.2825,85.2825 0 0 0 -0.1125,-12.54 c -0.1125,-1.065 -1.7925,-1.065 -1.68,0 z"
     id="path382798"
     style="fill:#c1272d;stroke-width:0.75" />
  <path
     class="cls-6"
     d="m 890.8736,124.29127 a 10.4025,10.4025 0 0 0 -0.1125,3 c 0.1125,1.065 1.7925,1.065 1.68,0 a 12.315,12.315 0 0 1 0.053,-2.52 0.84066938,0.84066938 0 0 0 -1.62,-0.45 z"
     id="path382800"
     style="fill:#c1272d;stroke-width:0.75" />
  <path
     class="cls-9"
     d="m 810.83356,123.45127 a 22.065,22.065 0 0 1 2.57251,7.2225 c 0.165,1.065 1.7925,0.615 1.62,-0.45 a 24.24,24.24 0 0 0 -2.74501,-7.605 0.84,0.84 0 0 0 -1.455,0.8325 z"
     id="path382802"
     style="fill:#8cc63f;stroke-width:0.75" />
  <path
     class="cls-9"
     d="m 827.11607,124.35127 a 48.18,48.18 0 0 1 0.9,4.8675 c 0.165,1.065 1.845,1.065 1.68,0 -0.225,-1.7925 -0.5625,-3.525 -0.9525,-5.3175 a 0.8475,0.8475 0 0 0 -1.6275,0.45 z"
     id="path382804"
     style="fill:#8cc63f;stroke-width:0.75" />
  <path
     class="cls-9"
     d="m 829.92107,126.12127 c 0.2175,0.39 0.4425,0.75 0.6675,1.17 a 0.8775,0.8775 0 0 0 1.1925,0.33 0.84,0.84 0 0 0 0.2775,-1.1775 c -0.225,-0.39 -0.45,-0.75 -0.6675,-1.1775 a 0.85542752,0.85542752 0 0 0 -1.455,0.9 z"
     id="path382806"
     style="fill:#8cc63f;stroke-width:0.75" />
  <path
     class="cls-9"
     d="m 851.97108,119.08627 c 0.75,3.6375 1.5,7.335 2.25,10.9725 0.2175,1.065 1.845,0.615 1.62,-0.45 -0.75,-3.6375 -1.5,-7.3275 -2.25,-10.965 -0.2175,-1.065 -1.845,-0.615 -1.62,0.4425 z"
     id="path382808"
     style="fill:#8cc63f;stroke-width:0.75" />
  <path
     class="cls-9"
     d="m 883.7111,120.82627 a 93.3675,93.3675 0 0 1 1.5675,9.3975 c 0.105,1.065 1.785,1.065 1.6725,0 a 97.44,97.44 0 0 0 -1.6725,-9.8475 c -0.1725,-1.065 -1.7925,-0.615 -1.5675,0.45 z"
     id="path382810"
     style="fill:#8cc63f;stroke-width:0.75" />
  <path
     class="cls-9"
     d="m 871.5311,119.42377 a 44.7525,44.7525 0 0 0 0.165,8.6775 c 0.1125,1.065 1.7925,1.065 1.68,0 a 49.335,49.335 0 0 1 -0.165,-8.6775 c 0.053,-1.1175 -1.6275,-1.065 -1.68,0 z"
     id="path382812"
     style="fill:#8cc63f;stroke-width:0.75" />
  <path
     class="cls-9"
     d="m 868.9286,120.76627 a 33.0525,33.0525 0 0 0 0.3375,4.7025 c 0.1125,1.065 1.7925,1.065 1.68,0 a 33.0525,33.0525 0 0 1 -0.3375,-4.7025 0.84,0.84 0 0 0 -1.68,0 z"
     id="path382814"
     style="fill:#8cc63f;stroke-width:0.75" />
  <path
     class="cls-9"
     d="m 841.05858,122.72377 a 53.6325,53.6325 0 0 0 0.4725,7.8975 c 0.1125,1.065 1.7925,1.065 1.68,0 a 53.175,53.175 0 0 1 -0.4425,-7.8975 c 0.0525,-1.0575 -1.6275,-1.0575 -1.68,0 z"
     id="path382816"
     style="fill:#8cc63f;stroke-width:0.75" />
  <path
     class="cls-7"
     d="m 824.15357,122.16877 c 0.0525,3 0.165,5.8725 0.225,8.8425 a 0.84,0.84 0 0 0 1.68,0 c -0.06,-3 -0.1725,-5.88 -0.225,-8.8425 a 0.84,0.84 0 0 0 -1.68,0 z"
     id="path382818"
     style="fill:#fcee21;stroke-width:0.75" />
  <path
     class="cls-6"
     d="m 808.42606,125.13127 c 0.5025,1.6275 1.005,3.3075 1.5,4.9275 0.3375,1.005 1.9575,0.615 1.6275,-0.45 -0.5025,-1.62 -1.0125,-3.3 -1.5,-4.92 -0.3375,-1.0125 -1.9575,-0.5625 -1.62,0.4425 z"
     id="path382820"
     style="fill:#c1272d;stroke-width:0.75" />
  <path
     class="cls-6"
     d="m 838.03608,125.69377 a 16.8525,16.8525 0 0 0 0.165,3.36 0.87,0.87 0 0 0 0.84,0.84 c 0.39,0 0.8925,-0.3975 0.84,-0.84 a 16.8525,16.8525 0 0 1 -0.165,-3.36 0.84,0.84 0 0 0 -1.68,0 z"
     id="path382822"
     style="fill:#c1272d;stroke-width:0.75" />
  <path
     class="cls-6"
     d="m 865.79358,122.61877 c 0.3375,0.6675 0.675,1.2825 1.01252,1.9575 0.5025,0.9525 1.9575,0.1125 1.455,-0.84 -0.3375,-0.675 -0.675,-1.29 -1.0125,-1.9575 -0.5025,-1.0125 -1.95752,-0.1725 -1.45502,0.84 z"
     id="path382824"
     style="fill:#c1272d;stroke-width:0.75" />
  <path
     class="cls-6"
     d="m 900.2786,123.34627 c 0.2175,1.17 0.4425,2.3475 0.6675,3.525 0.225,1.0575 1.7925,0.615 1.6275,-0.45 l -0.675,-3.525 c -0.225,-1.065 -1.7925,-0.615 -1.62,0.45 z"
     id="path382826"
     style="fill:#c1272d;stroke-width:0.75" />
  <path
     class="cls-6"
     d="m 908.1086,118.24627 c 0.3375,2.8575 0.84,5.655 1.4025,8.4525 0.225,1.065 1.845,0.615 1.62,-0.4425 -0.555,-2.6325 -1.005,-5.3175 -1.3425,-8.01 -0.1125,-1.0575 -1.785,-1.0575 -1.68,0 z"
     id="path382828"
     style="fill:#c1272d;stroke-width:0.75" />
  <path
     class="cls-7"
     d="m 898.4861,126.12127 h 0.3375 a 0.84,0.84 0 1 0 0,-1.68 h -0.3375 a 0.855,0.855 0 0 0 -0.84,0.84 0.9,0.9 0 0 0 0.84,0.84 z"
     id="path382830"
     style="fill:#fcee21;stroke-width:0.75" />
  <path
     class="cls-7"
     d="m 910.4036,117.63127 a 79.08,79.08 0 0 0 1.125,8.115 c 0.225,1.065 1.845,0.6225 1.62,-0.4425 a 59.745,59.745 0 0 1 -1.065,-7.6725 c -0.053,-1.065 -1.7325,-1.065 -1.68,0 z"
     id="path382832"
     style="fill:#fcee21;stroke-width:0.75" />
  <path
     class="cls-8"
     d="m 902.5736,121.99627 a 16.14,16.14 0 0 1 0.75,4.875 0.84,0.84 0 0 0 1.68,0 17.145,17.145 0 0 0 -0.75,-5.3175 c -0.3375,-1.0125 -1.9575,-0.615 -1.62,0.4425 z"
     id="path382834"
     style="fill:#0000ff;stroke-width:0.75" />
  <path
     class="cls-9"
     d="m 905.1986,120.26377 c 1.0125,2.52 0.1725,5.3775 1.35,7.89 0.4425,0.9525 1.8975,0.1125 1.455,-0.84 -1.125,-2.295 -0.225,-5.0925 -1.1775,-7.44 -0.39,-1.065 -2.0175,-0.615 -1.6275,0.39 z"
     id="path382836"
     style="fill:#8cc63f;stroke-width:0.75" />
  <path
     d="m 807.13606,129.78127 a 11.025,11.025 0 0 1 7.22251,-8.175 c 4.14,-1.455 8.25,-0.45 12.1425,1.4025 7.2225,3.465 13.43251,9.51 21.75001,10.2375 7.8375,0.675 12.255,-5.37 17.4075,-10.0725 3.75002,-3.4125 7.89002,-5.04 12.98252,-4.14 4.65,0.84 8.9625,3.2475 13.1025,5.37 6.9975,3.585 15.75,6.885 22.8375,1.7925 0.84,-0.615 0.052,-2.07 -0.84,-1.455 -8.4,6.105 -18.195,-0.5625 -26.0325,-4.2525 -7.05,-3.36 -14.715,-5.1525 -21.37502,0 -3,2.295 -5.3175,5.25 -8.175,7.665 a 13.7925,13.7925 0 0 1 -13.8225,2.6325 c -8.40001,-2.685 -14.78251,-10.0725 -23.67751,-11.3625 -6.8775,-1.005 -13.62751,3.135 -15.12751,10.02 -0.225,0.8925 1.395,1.3425 1.62,0.3375 z"
     id="path382838"
     style="stroke-width:0.75" />
  <path
     d="m 806.13106,132.41377 c 3.135,-3.0825 8.56501,1.2825 12.20251,1.6725 a 14.8125,14.8125 0 0 0 8.055,-1.5 c 6.27,-2.7975 11.25001,-7.7775 17.25001,-11.025 3.2475,-1.74 6.885,-3 10.5825,-2.355 3.6975,0.645 6.8775,2.745 9.8475,4.9275 5.15252,3.75 10.63502,9 17.40752,9.0675 4.9275,0.0525 9.18,-3 13.2075,-5.5425 5.5425,-3.4725 11.1375,-6.9975 16.68,-10.5 0.9,-0.5625 0.06,-2.0175 -0.84,-1.455 -4.755,3 -9.57,6 -14.325,9 -4.365,2.745 -9.2925,6.8325 -14.6625,6.75 -7.56,-0.0525 -13.5525,-7.11 -19.53752,-10.8 -5.595,-3.4725 -11.3625,-4.2525 -17.4675,-1.455 -6.375,2.91 -11.36251,8.055 -17.57251,11.25 -3.6375,1.905 -7.4475,2.6325 -11.415,1.1775 -3.53251,-1.29 -7.44751,-3.5325 -10.58251,-0.45 -0.75,0.75 0.39,1.905 1.1775,1.1775 z"
     id="path382840"
     style="stroke-width:0.75" />
  <path
     class="cls-6"
     d="m 830.28107,205.08127 a 61.965,61.965 0 0 1 0.615,7.785 0.84,0.84 0 0 0 1.68,0 67.5,67.5 0 0 0 -0.675,-8.25 c -0.1125,-1.065 -1.7325,-0.615 -1.62,0.4425 z"
     id="path382842"
     style="fill:#c1272d;stroke-width:0.75" />
  <path
     class="cls-6"
     d="m 834.03107,203.73877 c 0.675,3.8625 1.4025,7.785 2.07751,11.6475 0.165,1.0575 1.785,0.615 1.62,-0.45 -0.675,-3.8625 -1.4025,-7.7775 -2.07001,-11.64 -0.1725,-1.065 -1.7925,-0.615 -1.6275,0.4425 z"
     id="path382844"
     style="fill:#c1272d;stroke-width:0.75" />
  <path
     class="cls-6"
     d="m 864.62358,206.09377 c 0.0525,3.1875 0.165,6.3825 0.39,9.57 0.0525,1.065 1.73252,1.065 1.68002,0 -0.22502,-3.1875 -0.39002,-6.3825 -0.39002,-9.57 -0.06,-1.065 -1.74,-1.065 -1.68,0 z"
     id="path382846"
     style="fill:#c1272d;stroke-width:0.75" />
  <path
     class="cls-6"
     d="m 876.7136,206.25877 c 0.39,3.4125 0.6675,6.885 1.3425,10.2975 0.225,1.065 1.845,0.6225 1.62,-0.4425 -0.615,-3.2475 -0.8925,-6.5475 -1.2825,-9.855 -0.1125,-1.065 -1.7925,-1.065 -1.68,0 z"
     id="path382848"
     style="fill:#c1272d;stroke-width:0.75" />
  <path
     class="cls-6"
     d="m 910.0136,201.72877 a 32.25,32.25 0 0 0 1.0125,8.055 0.84,0.84 0 0 0 1.62,-0.4425 31.9275,31.9275 0 0 1 -0.9525,-7.6125 0.84,0.84 0 0 0 -1.68,0 z"
     id="path382850"
     style="fill:#c1272d;stroke-width:0.75" />
  <path
     class="cls-7"
     d="m 842.01108,203.01127 c 0.6675,4.365 1.2825,8.79 1.7325,13.215 0.1125,1.0575 1.7925,1.0575 1.68,0 -0.5025,-4.59 -1.065,-9.1275 -1.7925,-13.6575 -0.165,-1.065 -1.7925,-0.615 -1.62,0.4425 z"
     id="path382852"
     style="fill:#fcee21;stroke-width:0.75" />
  <path
     class="cls-7"
     d="m 870.5561,205.75627 c 0.2775,2.4075 0.615,4.815 0.8925,7.2225 0.1725,1.5675 0,3.8625 0.84,5.205 a 0.84,0.84 0 0 0 1.3425,0.165 c 0,-0.0525 0.06,-0.0525 0.06,-0.1125 a 0.81,0.81 0 0 0 0,-1.17 l -0.06,-0.06 c -0.84,-0.75 -2.01,0.5025 -1.17,1.1775 l 0.053,0.0525 v -1.17 c 0,0.0525 -0.053,0.0525 -0.053,0.1125 l 1.3425,0.165 c -0.7875,-1.29 -0.615,-4.3125 -0.7875,-5.7075 -0.225,-1.965 -0.5025,-3.9225 -0.75,-5.88 -0.165,-1.065 -1.845,-1.065 -1.7325,0 z"
     id="path382854"
     style="fill:#fcee21;stroke-width:0.75" />
  <path
     class="cls-7"
     d="m 893.0036,204.69127 a 61.89,61.89 0 0 0 0.2175,7.17 c 0.1125,1.0575 1.7925,1.0575 1.68,0 a 61.8975,61.8975 0 0 1 -0.225,-7.17 c 0.06,-1.065 -1.62,-1.065 -1.6725,0 z"
     id="path382856"
     style="fill:#fcee21;stroke-width:0.75" />
  <path
     class="cls-8"
     d="m 837.69858,203.40877 c 1.3425,4.4175 2.52,8.895 3.4125,13.3725 0.225,1.065 1.8525,0.615 1.6275,-0.4425 a 132.8925,132.8925 0 0 0 -3.42,-13.38 0.84067297,0.84067297 0 0 0 -1.62,0.45 z"
     id="path382858"
     style="fill:#0000ff;stroke-width:0.75" />
  <path
     class="cls-8"
     d="m 860.14608,207.48877 c 0.555,2.295 1.005,4.65 1.455,6.9975 0.165,1.065 1.7925,0.615 1.62,-0.4425 -0.39,-2.355 -0.8925,-4.7025 -1.455,-6.9975 a 0.84,0.84 0 0 0 -1.62,0.4425 z"
     id="path382860"
     style="fill:#0000ff;stroke-width:0.75" />
  <path
     class="cls-8"
     d="m 900.5036,201.05377 c 0.4425,4.0275 0.945,8.0025 1.395,12.0375 0.1125,1.065 1.7925,1.065 1.68,0 -0.45,-4.035 -0.9525,-8.01 -1.4025,-12.0375 -0.105,-1.065 -1.785,-1.065 -1.6725,0 z"
     id="path382862"
     style="fill:#0000ff;stroke-width:0.75" />
  <path
     class="cls-8"
     d="m 913.9886,202.62127 c 0.225,1.6275 0.45,3.195 0.75,4.755 0.2175,1.065 1.845,0.6225 1.62,-0.4425 -0.2775,-1.455 -0.5625,-2.8575 -0.75,-4.3125 -0.1125,-1.065 -1.7925,-1.065 -1.68,0 z"
     id="path382864"
     style="fill:#0000ff;stroke-width:0.75" />
  <path
     class="cls-9"
     d="m 846.37608,207.15877 c 0.555,2.295 1.065,4.5 1.62,6.825 0.225,1.065 1.845,0.615 1.6275,-0.45 -0.5625,-2.295 -1.065,-4.5 -1.6275,-6.825 a 0.84066938,0.84066938 0 0 0 -1.62,0.45 z"
     id="path382866"
     style="fill:#8cc63f;stroke-width:0.75" />
  <path
     class="cls-9"
     d="m 849.84108,209.37127 c 0.3375,0.75 0.6225,1.455 0.9525,2.1825 0.285,0.615 0.45,1.3425 1.065,1.68 a 0.75,0.75 0 0 0 0.84,0 0.9525,0.9525 0 0 0 0.1125,-1.6275 l -0.0525,-0.0525 c -0.9,-0.5625 -1.74,0.8925 -0.84,1.455 l 0.0525,0.0525 c -0.1125,-0.3375 -0.2775,-0.615 -0.39,-0.9525 v 0.1125 c 0.1125,-0.165 0.2775,-0.33 0.39,-0.5025 -0.0525,0 -0.0525,0.06 -0.1125,0.06 h 0.84 c 0.1125,0.1125 0.1125,0.0525 -0.0525,-0.225 -0.165,-0.2775 -0.1725,-0.3375 -0.225,-0.5025 -0.1125,-0.285 -0.225,-0.51 -0.3375,-0.75 -0.2775,-0.615 -0.5025,-1.1775 -0.75,-1.7925 -0.3975,-0.9525 -1.8525,-0.1125 -1.4625,0.9 z"
     id="path382868"
     style="fill:#8cc63f;stroke-width:0.75" />
  <path
     class="cls-9"
     d="m 867.3611,206.31877 c 0.9,3.5775 0.225,7.275 1.1775,10.86 a 0.8475,0.8475 0 0 0 1.6275,-0.45 c -1.0125,-3.525 -0.285,-7.275 -1.1775,-10.86 a 0.8475,0.8475 0 0 0 -1.6275,0.45 z"
     id="path382870"
     style="fill:#8cc63f;stroke-width:0.75" />
  <path
     class="cls-9"
     d="m 880.8536,207.54877 1.1775,6.27 c 0.165,1.065 1.7925,0.615 1.62,-0.45 -0.39,-2.07 -0.75,-4.2 -1.1775,-6.27 -0.2175,-1.065 -1.845,-0.615 -1.62,0.45 z"
     id="path382872"
     style="fill:#8cc63f;stroke-width:0.75" />
  <path
     class="cls-9"
     d="m 896.8061,202.45627 c 0.165,3.3 -0.225,7.275 0.8925,10.4625 0.3375,1.0125 1.965,0.5625 1.6275,-0.4425 -1.065,-3 -0.675,-6.8325 -0.84,-10.02 -0.06,-1.065 -1.7325,-1.065 -1.68,0 z"
     id="path382874"
     style="fill:#8cc63f;stroke-width:0.75" />
  <path
     class="cls-9"
     d="m 905.0936,201.22627 a 74.1675,74.1675 0 0 0 1.7325,10.5 0.84066938,0.84066938 0 0 0 1.62,-0.45 76.5,76.5 0 0 1 -1.665,-10.05 c -0.053,-1.065 -1.7325,-1.065 -1.6725,0 z"
     id="path382876"
     style="fill:#8cc63f;stroke-width:0.75" />
  <path
     d="m 823.76357,213.87127 c 2.01,-3.075 4.08,-6.21 7.05,-8.4525 4.2,-3.1875 9.00001,-2.7975 13.65751,-0.555 7.11,3.465 12.6525,9.57 19.9275,12.705 5.65502,2.4075 12.75002,3.1875 18.00002,-0.675 2.4,-1.7925 4.0275,-4.305 5.7075,-6.75 2.5725,-3.8025 5.37,-6.495 9.8475,-7.89 9.1275,-2.7975 19.425,-0.5025 26.76,5.4825 0.84,0.675 2.01,-0.5025 1.17,-1.17 a 31.41,31.41 0 0 0 -21.0975,-7.11 26.1,26.1 0 0 0 -11.025,2.7375 c -3.2475,1.74 -5.3175,4.5 -7.335,7.4475 -2.52,3.75 -5.205,7.11 -9.855,8.0025 -4.5,0.9 -9.2325,-0.39 -13.20752,-2.4075 -7.665,-3.975 -13.8225,-11.3625 -22.3875,-13.5 -8.73001,-2.1825 -14.38501,4.755 -18.63751,11.25 -0.615,0.9525 0.84,1.7925 1.455,0.8925 z"
     id="path382878"
     style="stroke-width:0.75" />
  <path
     d="m 822.36107,201.87127 c 3.3,6.825 7.275,14.4375 15.17251,16.5675 8.115,2.1825 12.8175,-4.365 18.8625,-8.34 a 29.1825,29.1825 0 0 1 23.95502,-3.42 c 4.2525,1.29 7.665,3.9225 11.475,6 a 18.6675,18.6675 0 0 0 11.3625,2.1825 c 9.2925,-1.29 15.9525,-8.3925 21.9375,-14.9475 0.75,-0.75 -0.4425,-2.01 -1.17,-1.17 -6.885,7.6125 -16.4625,17.5725 -27.93,13.9875 -4.7625,-1.5 -8.565,-5.145 -13.215,-6.9375 a 30.1575,30.1575 0 0 0 -12.2025,-1.905 31.1925,31.1925 0 0 0 -11.41502,2.745 c -4.2525,1.9575 -7.335,5.1525 -11.025,7.8375 -5.04,3.6375 -10.8075,3.36 -15.67501,-0.5625 -4.0875,-3.3 -6.435,-8.25 -8.6775,-12.93 -0.5025,-0.9525 -1.9575,-0.1125 -1.455,0.9 z"
     id="path382880"
     style="stroke-width:0.75" />
  <path
     class="cls-6"
     d="m 819.84107,226.97377 a 59.055,59.055 0 0 1 0.615,7.7775 0.84,0.84 0 0 0 1.68,0 67.5825,67.5825 0 0 0 -0.6675,-8.25 c -0.1725,-1.065 -1.7925,-0.615 -1.6275,0.45 z"
     id="path382882"
     style="fill:#c1272d;stroke-width:0.75" />
  <path
     class="cls-6"
     d="m 823.53107,225.62377 c 0.6675,3.8625 1.395,7.785 2.07,11.6475 0.165,1.065 1.7925,0.615 1.62,-0.45 -0.6675,-3.8625 -1.395,-7.7775 -2.07,-11.64 -0.225,-1.065 -1.845,-0.615 -1.62,0.4425 z"
     id="path382884"
     style="fill:#c1272d;stroke-width:0.75" />
  <path
     class="cls-6"
     d="m 854.10108,227.97877 c 0.0525,3.1875 0.165,6.3825 0.39,9.57 0.0525,1.065 1.7325,1.065 1.68,0 -0.225,-3.1875 -0.39,-6.3825 -0.39,-9.57 a 0.84,0.84 0 0 0 -1.68,0 z"
     id="path382886"
     style="fill:#c1272d;stroke-width:0.75" />
  <path
     class="cls-6"
     d="m 866.28108,228.12127 c 0.39002,3.42 0.67502,6.885 1.34252,10.2975 0.225,1.065 1.8525,0.6225 1.6275,-0.4425 -0.615,-3.2475 -0.9,-6.5475 -1.29,-9.855 -0.1125,-1.065 -1.79252,-1.065 -1.68002,0 z"
     id="path382888"
     style="fill:#c1272d;stroke-width:0.75" />
  <path
     class="cls-6"
     d="m 899.4911,223.62127 a 32.25,32.25 0 0 0 1.0125,8.055 0.84,0.84 0 0 0 1.62,-0.4425 31.9275,31.9275 0 0 1 -0.9525,-7.6125 0.84,0.84 0 0 0 -1.68,0 z"
     id="path382890"
     style="fill:#c1272d;stroke-width:0.75" />
  <path
     class="cls-7"
     d="m 831.48857,224.89627 c 0.6675,4.3725 1.2825,8.79 1.7325,13.215 0.1125,1.0575 1.7925,1.0575 1.68,0 -0.5025,-4.59 -1.065,-9.1275 -1.7925,-13.6575 -0.165,-1.065 -1.7925,-0.615 -1.62,0.4425 z"
     id="path382892"
     style="fill:#fcee21;stroke-width:0.75" />
  <path
     class="cls-7"
     d="m 860.03358,227.64127 c 0.2775,2.4075 0.615,4.815 0.8925,7.2225 0.1725,1.5675 0,3.8625 0.84,5.205 a 0.84,0.84 0 0 0 1.3425,0.165 c 0,-0.0525 0.06,-0.0525 0.06,-0.1125 a 0.81,0.81 0 0 0 0,-1.17 l -0.06,-0.06 c -0.84,-0.75 -2.01,0.5025 -1.1775,1.1775 l 0.06,0.0525 v -1.17 c 0,0.0525 -0.06,0.0525 -0.06,0.1125 l 1.35,0.165 c -0.7875,-1.29 -0.615,-4.3125 -0.7875,-5.7075 -0.225,-1.9575 -0.5025,-3.9225 -0.75,-5.88 -0.165,-1.065 -1.845,-1.065 -1.7325,0 z"
     id="path382894"
     style="fill:#fcee21;stroke-width:0.75" />
  <path
     class="cls-7"
     d="m 882.5336,226.57627 a 60.27,60.27 0 0 0 0.225,7.17 c 0.1125,1.0575 1.7925,1.0575 1.68,0 a 60.27,60.27 0 0 1 -0.225,-7.17 0.84,0.84 0 0 0 -1.68,0 z"
     id="path382896"
     style="fill:#fcee21;stroke-width:0.75" />
  <path
     class="cls-8"
     d="m 827.22857,225.29377 c 1.35,4.4175 2.52,8.895 3.42,13.3725 0.2175,1.065 1.845,0.615 1.62,-0.4425 a 132.8625,132.8625 0 0 0 -3.4125,-13.38 0.8475,0.8475 0 0 0 -1.6275,0.45 z"
     id="path382898"
     style="fill:#0000ff;stroke-width:0.75" />
  <path
     class="cls-8"
     d="m 849.62358,229.43377 c 0.555,2.295 1.005,4.6425 1.455,6.9975 0.165,1.065 1.785,0.615 1.62,-0.45 -0.39,-2.3475 -0.8925,-4.7025 -1.455,-6.9975 -0.225,-1.065 -1.845,-0.615 -1.62,0.45 z"
     id="path382900"
     style="fill:#0000ff;stroke-width:0.75" />
  <path
     class="cls-8"
     d="m 890.0336,222.93877 c 0.45,4.035 0.9525,8.0025 1.4025,12 0.105,1.065 1.785,1.065 1.6725,0 -0.4425,-4.035 -0.945,-8.0025 -1.395,-12 -0.1725,-1.065 -1.845,-1.065 -1.68,0 z"
     id="path382902"
     style="fill:#0000ff;stroke-width:0.75" />
  <path
     class="cls-8"
     d="m 903.5261,224.50627 c 0.2175,1.6275 0.4425,3.195 0.75,4.7625 0.225,1.0575 1.845,0.615 1.62,-0.45 -0.2775,-1.455 -0.555,-2.8575 -0.75,-4.3125 -0.165,-1.065 -1.845,-1.065 -1.6725,0 z"
     id="path382904"
     style="fill:#0000ff;stroke-width:0.75" />
  <path
     class="cls-9"
     d="m 835.85357,229.04377 c 0.55501,2.295 1.06501,4.5 1.62001,6.825 0.225,1.065 1.845,0.615 1.6275,-0.45 -0.5625,-2.295 -1.065,-4.5 -1.6275,-6.825 -0.225,-1.005 -1.84501,-0.5625 -1.62001,0.45 z"
     id="path382906"
     style="fill:#8cc63f;stroke-width:0.75" />
  <path
     class="cls-9"
     d="m 839.37858,231.22627 c 0.3375,0.75 0.615,1.455 0.9525,2.1825 0.2775,0.615 0.4425,1.3425 1.065,1.68 a 0.75,0.75 0 0 0 0.8325,0 0.9075,0.9075 0 0 0 0.51,-0.675 0.915,0.915 0 0 0 -0.3975,-0.9525 l -0.0525,-0.0525 c -0.8925,-0.5625 -1.7325,0.8925 -0.84,1.455 l 0.0525,0.0525 c -0.105,-0.33 -0.2775,-0.615 -0.39,-0.9525 v 0.1125 c 0.1125,-0.165 0.285,-0.33 0.39,-0.5025 -0.0525,0 -0.0525,0.06 -0.105,0.06 h 0.8325 c 0.1125,0.1125 0.1125,0.0525 -0.0525,-0.225 -0.165,-0.2775 -0.165,-0.3375 -0.225,-0.5025 -0.1125,-0.285 -0.225,-0.51 -0.3375,-0.75 -0.2775,-0.615 -0.5025,-1.1775 -0.75,-1.7925 -0.45,-0.9525 -1.905,-0.1125 -1.455,0.9 z"
     id="path382908"
     style="fill:#8cc63f;stroke-width:0.75" />
  <path
     class="cls-9"
     d="m 856.83858,228.20377 c 0.9,3.5775 0.225,7.275 1.1775,10.86 a 0.8475,0.8475 0 0 0 1.6275,-0.45 c -1.0125,-3.525 -0.285,-7.275 -1.1775,-10.86 a 0.8475,0.8475 0 0 0 -1.6275,0.45 z"
     id="path382910"
     style="fill:#8cc63f;stroke-width:0.75" />
  <path
     class="cls-9"
     d="m 870.3311,229.43377 c 0.39,2.07 0.75,4.2 1.1775,6.27 0.165,1.065 1.7925,0.615 1.62,-0.45 -0.39,-2.07 -0.75,-4.2 -1.1775,-6.27 -0.165,-1.065 -1.785,-0.615 -1.62,0.45 z"
     id="path382912"
     style="fill:#8cc63f;stroke-width:0.75" />
  <path
     class="cls-9"
     d="m 886.3361,224.37127 c 0.1725,3.3 -0.2175,7.275 0.9,10.4625 0.3375,1.0125 1.9575,0.5625 1.62,-0.4425 -1.065,-3 -0.6675,-6.8325 -0.84,-10.02 -0.053,-1.065 -1.7325,-1.065 -1.68,0 z"
     id="path382914"
     style="fill:#8cc63f;stroke-width:0.75" />
  <path
     class="cls-9"
     d="m 894.6236,223.11127 a 75.255,75.255 0 0 0 1.7325,10.5 0.8475,0.8475 0 0 0 1.6275,-0.45 75.2625,75.2625 0 0 1 -1.7025,-10.05 c -0.1125,-1.065 -1.7925,-1.065 -1.68,0 z"
     id="path382916"
     style="fill:#8cc63f;stroke-width:0.75" />
  <path
     d="m 813.24106,235.75627 c 2.01,-3.075 4.08001,-6.21 7.05001,-8.4525 4.2,-3.1875 9,-2.7975 13.6575,-0.555 7.11001,3.465 12.65251,9.57 19.92751,12.705 5.655,2.4075 12.75002,3.1875 17.96252,-0.675 2.4075,-1.7925 4.035,-4.305 5.715,-6.75 2.5725,-3.8025 5.37,-6.4875 9.8475,-7.89 9.1275,-2.7975 19.425,-0.5025 26.76,5.4825 0.8325,0.675 2.01,-0.5025 1.17,-1.17 a 31.41,31.41 0 0 0 -21.0975,-7.11 26.16,26.16 0 0 0 -11.0325,2.7375 c -3.24,1.74 -5.3175,4.5 -7.3275,7.4475 -2.52,3.75 -5.205,7.11 -9.85502,8.0025 -4.5,0.9 -9.2325,-0.39 -13.2075,-2.4075 -7.665,-3.975 -13.8225,-11.3625 -22.38751,-13.5 -8.73,-2.1825 -14.38501,4.755 -18.63751,11.25 a 0.855,0.855 0 0 0 1.455,0.8925 z"
     id="path382918"
     style="stroke-width:0.75" />
  <path
     d="m 811.83856,223.72627 c 3.3,6.825 7.27501,14.4375 15.17251,16.5675 8.115,2.1825 12.81751,-4.365 18.86251,-8.34 a 29.1525,29.1525 0 0 1 23.95502,-3.4125 c 4.2525,1.2825 7.665,3.915 11.475,6 a 18.6675,18.6675 0 0 0 11.3625,2.1825 c 9.2925,-1.29 15.9525,-8.3925 21.9375,-14.9475 0.75,-0.75 -0.4425,-2.01 -1.17,-1.17 -6.885,7.6125 -16.5,17.5725 -27.9375,13.995 -4.755,-1.5 -8.5575,-5.1525 -13.2075,-6.945 a 30.3075,30.3075 0 0 0 -12.20252,-1.905 31.1925,31.1925 0 0 0 -11.415,2.745 c -4.2525,1.9575 -7.335,5.1525 -11.025,7.8375 -5.04001,3.6375 -10.80751,3.36 -15.67501,-0.5625 -4.0875,-3.3 -6.43501,-8.25 -8.67751,-12.93 -0.45,-0.9525 -1.905,-0.1125 -1.455,0.9 z"
     id="path382920"
     style="stroke-width:0.75" />
  <path
     d="m 811.95106,169.34377 c -1.9575,-3 -7.89,-2.61 -10.7475,-0.4425 -2.07,1.5675 -2.52,3.9375 -2.52,6 0.06,3.1275 0.9,6.2625 1.29,9.3975 1.7925,13.3425 2.0175,26.7225 1.62,40.11 -0.225,7.755 -0.615,15.51 -1.005,23.25 a 0.645,0.645 0 0 0 0.615,0.5625 34.86,34.86 0 0 0 11.5875,-0.6825 c 1.005,-0.24 0.5625,-1.41 -0.45,-1.1625 a 33,33 0 0 1 -10.6875,0.6825 c 0.225,0.195 0.39,0.3975 0.615,0.5625 0.75,-14.7075 1.5,-29.415 0.9525,-44.13 a 195.15,195.15 0 0 0 -2.0175,-21.975 c -0.45,-3.135 -1.7925,-6.795 -0.39,-9.885 1.1775,-2.5725 7.275,-5.19 9.57,-1.7325 0.5625,0.75 2.0175,0.12 1.5675,-0.6 z"
     id="path382922"
     style="stroke-width:0.75" />
  <path
     d="m 919.4786,165.64627 a 38.58,38.58 0 0 0 12.5925,1.8075 l -0.84,-0.6 a 291.21,291.21 0 0 0 -3.2475,43.5 c 0,7.155 0.2775,14.25 0.75,21.3825 0.1125,1.845 0.285,3.6975 0.45,5.5425 0.165,2.01 0.615,4.2225 -1.5675,5.8275 -3.525,2.535 -9.63,3.3375 -14.385,3.3 -1.065,0 -1.065,1.2 0,1.2 a 32.325,32.325 0 0 0 13.155,-2.37 c 3.585,-1.5 4.755,-3.5325 4.59,-6.465 -0.45,-7.8825 -1.23,-15.7125 -1.3425,-23.6325 a 296.7525,296.7525 0 0 1 3.1875,-48.2625 c 0.06,-0.3225 -0.4425,-0.6 -0.84,-0.6 a 37.1325,37.1325 0 0 1 -11.7525,-1.65 c -0.8925,-0.36 -1.7925,0.6825 -0.75,1.005 z"
     id="path382924"
     style="stroke-width:0.75" />
  <path
     d="m 806.88856,93.30127 c -2.01,-0.2325 -4.065,-0.51 -6.075,-0.75 a 35.1375,35.1375 0 0 0 -4.0275,-0.442496 c -2.3025,0.075 -2.0625,1.379996 -1.95,2.512496 0.4575,4.6125 0.8625,9.24 1.05,13.83 a 178.32,178.32 0 0 1 -1.0125,26.67 c 0,0.3075 0.3975,0.57 0.9525,0.63 5.64,0.6525 11.25,1.3425 16.965,2.01 1.05751,0.135 0.80251,-0.81 -0.2625,-0.945 -5.6325,-0.6525 -11.25,-1.3425 -16.9575,-2.01 0.2925,0.21 0.645,0.4425 0.9525,0.63 a 178.4175,178.4175 0 0 0 1.08,-23.7375 c -0.075,-3.75 -0.2625,-7.5 -0.615,-11.25 -0.075,-0.9975 -0.1575,-2.0025 -0.2775,-3 -0.12,-0.9975 -0.525,-2.1375 -0.345,-3 0.375,-1.7925 2.76,-1.14 5.16,-0.855 1.8375,0.2325 3.75,0.4725 5.5725,0.675 1.11,0.1725 0.8475,-0.75 -0.21,-0.9075 z"
     id="path382926"
     style="stroke-width:0.75" />
  <path
     d="m 915.1736,86.903774 c 3.465,0.165 6.87,0.3525 10.3425,0.5175 l -0.8175,-0.4875 a 101.895,101.895 0 0 0 0.8325,25.747496 96.9225,96.9225 0 0 0 2.7825,12.4125 c 0.285,0.975 0.5775,1.92 0.87,2.9025 0.2925,0.9825 1.335,2.5275 0.2325,3.4425 -1.1025,0.915 -3.855,0.87 -5.88,1.0425 l -6.2475,0.615 c -1.0725,0.0975 -0.6675,0.99 0.405,0.8925 3.885,-0.36 8.37,-0.48 12.045,-1.185 2.3775,-0.4575 2.145,-1.4325 1.755,-2.655 -1.395,-4.9125 -2.9025,-9.795 -3.7875,-14.745 a 100.7025,100.7025 0 0 1 -1.2975,-28.387496 c 0,-0.24 -0.375,-0.4725 -0.8175,-0.495 -3.4725,-0.1575 -6.8775,-0.3525 -10.3425,-0.5175 -1.1775,-0.0525 -1.2225,0.8475 -0.097,0.9 z"
     id="path382928"
     style="stroke-width:0.75" />
  <path
     d="m 780.57999,21.533775 c 1.3275,-8.460001 -11.1,-11.250001 -16.815,-7.717501 -7.4325,4.635 -6.2775,15.900001 -3.945,23.055 2.2125,6.75 10.725,13.08 17.5425,7.89 2.6325,-2.01 4.215,-6.21 3.87,-9.495 -0.375,-3.555 -4.185,-2.8275 -7.0575,-2.6175 l 0.3825,1.4025 c 1.6875,-0.8175 4.89,-2.55 4.9275,0.42 a 0.75,0.75 0 0 0 1.5,0 v -2.7075 a 0.75,0.75 0 0 0 -0.75,-0.75 18,18 0 0 0 -6.405,1.74 0.75,0.75 0 0 0 0.375,1.395 c 1.0275,-0.075 2.4225,-0.352499 3.45,-0.0825 2.73,0.705001 2.25,2.205001 1.7175,4.425001 -0.8475,3.697499 -3.3675,6.509999 -7.4025,6.539999 -6.5775,0.045 -10.155,-5.534999 -11.3775,-11.287499 -1.0575,-4.965 -1.8525,-11.355001 1.095,-15.855001 a 10.2075,10.2075 0 0 1 10.1475,-4.2225 c 3.24,0.6525 7.9125,3.75 7.3275,7.500001 -0.1425,0.945 1.2975,1.35 1.4475,0.3975 z"
     id="path382930"
     style="stroke-width:0.75" />
  <path
     d="m 780.91749,32.176275 -0.0675,-0.0825 c -0.48,-0.6 -1.5,0.045 -1.2525,0.75 a 34.7325,34.7325 0 0 1 1.575,9.397499 c 0,1.35 -0.5025,3.1425 0.885,3.9225 0.8475,0.4725 1.605,-0.825 0.75,-1.2975 -0.5475,-0.3075 -0.315,-5.452499 -0.42,-6.307499 a 37.6725,37.6725 0 0 0 -1.35,-6.1125 l -1.2075,0.675 0.0675,0.0825 c 0.6,0.75 1.6575,-0.315 1.0575,-1.0575 z"
     id="path382932"
     style="stroke-width:0.75" />
  <path
     d="m 786.92499,40.096274 c 3.6675,0 9.8925,0.4275 11.6775,-3.697499 1.9125,-4.395 -4.5,-5.25 -7.3875,-4.3875 -4.815,1.4025 -4.635,6.36 -3.885,10.507499 0.345,1.8825 0.8325,3.4125 2.8125,4.035 2.55,0.8025 5.805,-0.51 8.25,-1.08 0.9375,-0.2175 0.54,-1.665 -0.405,-1.4475 -1.3575,0.315 -2.7225,0.6825 -4.095,0.945 -2.19,0.42 -3.99,0.4425 -4.935,-1.9125 -1.11,-2.79 -1.1475,-8.077499 2.0325,-9.359999 1.155,-0.4725 3.255,-0.8775 4.5,-0.315 1.245,0.562499 2.295,1.8 1.44,3 a 4.44,4.44 0 0 1 -2.205,1.5 c -2.46,0.81 -5.25,0.75 -7.7925,0.75 a 0.75,0.75 0 0 0 0,1.499999 z"
     id="path382934"
     style="stroke-width:0.75" />
  <path
     d="m 801.21249,33.496275 c 1.9425,3.915 1.275,9.449999 1.425,13.732499 l 1.5,-0.195 -0.0825,-0.3075 a 0.75054355,0.75054355 0 0 0 -1.4475,0.3975 l 0.0825,0.3075 a 0.75680355,0.75680355 0 0 0 1.5,-0.2025 c -0.165,-4.665 0.495,-10.199999 -1.6275,-14.489999 -0.435,-0.87 -1.725,-0.105 -1.2975,0.75 z"
     id="path382936"
     style="stroke-width:0.75" />
  <path
     d="m 804.57999,38.693775 c 1.4025,-1.6875 7.0275,-7.83 8.8425,-3.4575 0.51,1.2075 0,3.4725 -0.0675,4.7625 a 46.455,46.455 0 0 1 -0.9825,6.659999 c -0.2025,0.9375 1.245,1.3425 1.4475,0.3975 a 47.4525,47.4525 0 0 0 1.14,-9.704999 c 0,-1.65 0.2325,-3.6075 -1.35,-4.5825 -3.6675,-2.25 -8.0475,2.4075 -10.0875,4.8675 -0.615,0.749999 0.4425,1.799999 1.0575,1.0575 z"
     id="path382938"
     style="stroke-width:0.75" />
  <path
     d="m 819.28749,41.071274 c 2.6775,-0.5775 12.135,-2.354999 11.64,-6.577499 -0.42,-3.5475 -7.5,-3.39 -9.63,-2.0925 -3.075,1.86 -5.01,7.799999 -3.6075,11.107499 1.8975,4.5 8.3025,3.2025 12,2.4375 0.945,-0.195 0.54,-1.6425 -0.405,-1.4475 -2.6175,0.5475 -7.335,1.6725 -9.5175,-0.5775 -2.1825,-2.25 -0.4275,-7.567499 1.5675,-9.569999 1.0725,-1.0725 2.715,-1.2525 4.1775,-1.1925 0.75,0 1.98,0 2.6175,0.4575 0.81,0.09 0.8925,0.585 0.24,1.5 0.15,0.75 -0.0675,1.2675 -0.66,1.5 -1.965,1.8225 -6.2625,2.505 -8.7975,3.0525 -0.945,0.2025 -0.5475,1.649999 0.3975,1.447499 z"
     id="path382940"
     style="stroke-width:0.75" />
  <path
     d="m 837.8725,25.343775 0.45751,-0.4725 -1.28251,-0.5325 c -0.345,3.3525 -0.59249,6.75 -0.675,10.08 -0.075,3 -0.705,7.304999 0.195,10.184999 0.9,2.88 5.925,1.725 8.1825,1.3275 0.9525,-0.1725 0.5475,-1.6125 -0.3975,-1.4475 -2.055,0.36 -5.3175,1.095 -6.375,-1.425 -0.65249,-1.56 -0.15,-4.844999 -0.135,-6.479999 0,-4.095 0.28501,-8.1675 0.70501,-12.24 0.075,-0.6825 -0.8475,-0.93 -1.2825,-0.525 l -0.47251,0.435 c -0.75,0.66 0.35251,1.7175 1.0575,1.065 z"
     id="path382942"
     style="stroke-width:0.75" />
  <path
     d="m 832.96749,34.126275 q 4.86001,-0.51 9.75001,-0.9675 c 0.9525,-0.09 0.9675,-1.59 0,-1.5 q -4.86,0.465 -9.75001,0.9675 c -0.9525,0.0975 -0.96,1.597499 0,1.5 z"
     id="path382944"
     style="stroke-width:0.75" />
  <path
     d="m 849.925,33.121275 a 34.5825,34.5825 0 0 1 -0.525,8.009999 c -0.165,1.155 -0.585,2.6175 0,3.75 1.575,3 5.535,0.465 7.8075,0.525 a 0.75,0.75 0 0 0 0,-1.5 9.99,9.99 0 0 0 -3,0.6675 c -1.125,0.3 -1.755,0.4125 -2.7375,-0.3225 -1.215,-0.9075 -0.81,-1.0125 -0.57749,-2.7 0.38249,-2.812499 0.83249,-5.557499 0.57749,-8.407499 -0.09,-0.952501 -1.59,-0.960001 -1.5,0 z"
     id="path382946"
     style="stroke-width:0.75" />
  <path
     d="m 849.865,27.871275 h -0.045 a 0.75,0.75 0 0 0 -0.5475,0.75 c 0.045,0.5625 0.75,1.125 1.2825,0.705 a 0.75,0.75 0 0 0 0.27,-1.0275 0.75,0.75 0 0 0 -1.0275,-0.27 v 0 l 0.3825,-0.105 h -0.0525 l 0.38249,0.105 0.075,0.0675 0.21749,0.5325 v 0 l -0.555,0.75 h 0.045 a 0.75,0.75 0 0 0 0.525,-0.9225 0.75,0.75 0 0 0 -0.9225,-0.525 z"
     id="path382948"
     style="stroke-width:0.75" />
  <path
     d="m 870.835,34.921275 c 0.495,-2.5425 -2.4825,-3.2925 -4.49999,-3.0975 -3.2625,0.3075 -5.0925,2.625 -5.9475,5.6325 -0.63751,2.249999 -1.08001,6.172499 1.18499,7.762499 2.55,1.7925 7.1175,0.51 9.525,-0.9225 a 0.75,0.75 0 0 0 -0.75,-1.2975 10.5,10.5 0 0 1 -5.25,1.4475 c -2.90249,0.045 -3.75,-1.5 -3.6825,-4.185 0.06,-1.777499 0.66001,-4.117499 1.875,-5.467499 a 4.8075,4.8075 0 0 1 2.79,-1.4325 c 0.855,-0.1575 3.6225,-0.2625 3.345,1.1625 -0.18,0.944999 1.26,1.35 1.4475,0.3975 z"
     id="path382950"
     style="stroke-width:0.75" />
  <path
     d="m 904.945,30.698775 c -2.7075,-4.230001 -7.6275,-2.7825 -9.435,1.4025 -1.5,3.4875 -3.39,11.999999 1.5675,13.762499 11.625,4.1775 10.7625,-24.427499 11.19,-30.21 0.075,-0.9675 -1.4025,-0.945 -1.5,0 l -1.5,15.5325 c -0.4575,4.672501 -1.8375,10.065 -0.405,14.64 0.285,0.9225 1.74,0.525 1.4475,-0.3975 -1.455,-4.6425 0.105,-10.642499 0.57,-15.4275 l 1.4025,-14.3475 h -1.5 c -0.4725,6.3075 -0.555,12.750001 -1.65,18.96 a 31.71,31.71 0 0 1 -1.1775,4.935001 9.8325,9.8325 0 0 1 -1.875,3.517499 q -3,3.2775 -6.3225,-0.8625 c -0.75,-2.0325 -0.082,-5.167499 0.42,-7.139999 0.75,-3.060001 4.305,-8.617501 7.5,-3.607501 0.5175,0.81 1.815,0.06 1.2975,-0.75 z"
     id="path382952"
     style="stroke-width:0.75" />
  <path
     d="m 921.0625,33.631275 c 1.1475,-3.75 -3.21,-5.0925 -6.12,-4.725 -4.32,0.54 -4.14,8.3925 -4.1775,11.527499 -0.038,3.6525 3.75,4.8825 6.675,3.24 4.9725,-2.835 4.4325,-8.512499 4.3725,-13.499999 a 0.75,0.75 0 0 0 -1.5,0 c -0.4125,4.4325 -0.7125,8.812499 -0.0975,13.244999 0.135,0.9525 1.5825,0.5475 1.4475,-0.405 -0.6,-4.2825 -0.2475,-8.557499 0.15,-12.839999 h -1.5 a 49.0875,49.0875 0 0 1 -0.2025,6.884999 6.5025,6.5025 0 0 1 -2.25,4.38 c -1.425,1.2825 -4.9725,3 -5.6175,-0.69 -0.285,-1.62 0.24,-3.7875 0.42,-5.414999 0.12,-1.065 0.255,-2.925 0.9825,-3.8625 a 3.48,3.48 0 0 1 3,-1.1325 c 1.695,-0.105 2.685,0.855 3,2.864999 -0.285,0.922501 1.1625,1.32 1.4475,0.397501 z"
     id="path382954"
     style="stroke-width:0.75" />
  <path
     d="m 928.51,15.421274 c -0.69,8.137501 -1.89,16.672501 -1.605,24.84 0.06,1.7025 0.21,3.255 2.0175,3.8925 2.3475,0.8175 4.5,-1.3875 6.795,-1.5 0.96,0 0.9675,-1.5 0,-1.5 -1.7625,0.06 -3.3375,1.5 -4.935,1.545 -3.675,0.0525 -2.1225,-7.852499 -2.0175,-9.749999 q 0.495,-8.775 1.245,-17.527501 c 0.082,-0.96 -1.4175,-0.96 -1.5,0 z"
     id="path382956"
     style="stroke-width:0.75" />
  <path
     d="m 923.83,31.516275 a 88.1925,88.1925 0 0 1 11.91,-1.32 c 0.96,-0.0375 0.9675,-1.5375 0,-1.5 a 91.545,91.545 0 0 0 -12.3075,1.3725 c -0.9525,0.1725 -0.5475,1.62 0.3975,1.4475 z"
     id="path382958"
     style="stroke-width:0.75" />
  <path
     d="m 948.0925,34.103775 c -0.54,-3 -5.01,-6.0825 -7.8975,-4.155 -1.6875,1.125 -1.845,3.3075 -1.95,5.1375 -0.1275,2.3775 -0.6525,5.924999 0.7125,8.062499 1.905,3 6.0375,1.9425 7.98,-0.3675 3.1575,-3.749999 3.3675,-9.554999 2.3925,-14.107499 a 0.75680355,0.75680355 0 0 0 -1.5,0.2025 c 0.39,5.4825 0.525,10.4475 2.6325,15.584999 l 1.2525,-0.75 -0.345,-0.3825 c -0.6525,-0.75 -1.71,0.3525 -1.065,1.065 l 0.345,0.375 c 0.48,0.525 1.545,0 1.2525,-0.75 -2.025,-4.957499 -2.1975,-9.907499 -2.5725,-15.187499 l -1.5,0.194999 c 0.855,3.975 0.9,12.825 -4.2675,14.295 -4.245,1.2075 -4.035,-5.0775 -3.9,-7.6875 0.105,-1.9425 -0.075,-2.5425 1.785,-3.66 0.9825,-1.1325 2.0625,-1.215 3.225,-0.2325 a 3.2475,3.2475 0 0 1 1.92,2.715001 c 0.1725,0.944999 1.62,0.547499 1.4475,-0.397501 z"
     id="path382960"
     style="stroke-width:0.75" />
  <path
     d="m 691.21892,167.21168 a 283.12158,283.12158 0 0 0 79.9172,-10.01634 1.2894003,1.2894003 0 0 0 0,-2.46779 l -24.41321,-7.77909 c -1.59681,-0.51235 -2.19454,1.89567 -0.68313,2.46779 q 13.21849,5.03805 26.18081,10.68238 l -0.26472,-2.01522 -15.21663,16.062 c -1.13569,1.19547 0.67459,3.01429 1.81029,1.81028 l 15.21663,-16.05346 a 1.2979395,1.2979395 0 0 0 -0.25617,-2.01522 q -13.26119,-5.78949 -26.78708,-10.93855 l -0.68313,2.46779 24.36198,7.77909 v -2.46779 a 280.50008,280.50008 0 0 1 -79.18284,9.92241 c -1.65658,0 -1.65658,2.56172 0,2.56172 z"
     id="path533556"
     style="stroke-width:0.853905" />
</svg>
