<?xml version="1.0" encoding="utf-8"?>
<!-- Generator: Adobe Illustrator 23.0.3, SVG Export Plug-In . SVG Version: 6.00 Build 0)  -->
<svg version="1.1" xmlns="http://www.w3.org/2000/svg" xmlns:xlink="http://www.w3.org/1999/xlink" x="0px" y="0px"
	 viewBox="0 0 464.9 907.2" style="enable-background:new 0 0 464.9 907.2;" xml:space="preserve">
<style type="text/css">
	.st0{clip-path:url(#SVGID_2_);fill:none;stroke:#FF7F0E;stroke-linejoin:round;stroke-miterlimit:10;stroke-dasharray:3.7,1.6;}
	.st1{clip-path:url(#SVGID_4_);fill:none;stroke:#1F77B4;stroke-linejoin:round;stroke-miterlimit:10;stroke-dasharray:3.7,1.6;}
	.st2{clip-path:url(#SVGID_6_);fill:none;stroke:#2CA02C;stroke-linejoin:round;stroke-miterlimit:10;stroke-dasharray:3.7,1.6;}
	.st3{clip-path:url(#SVGID_8_);fill:none;stroke:#1F77B4;stroke-linejoin:round;stroke-miterlimit:10;stroke-dasharray:3.7,1.6;}
	.st4{clip-path:url(#SVGID_10_);fill:none;stroke:#2CA02C;stroke-linejoin:round;stroke-miterlimit:10;stroke-dasharray:3.7,1.6;}
	.st5{clip-path:url(#SVGID_12_);fill:none;stroke:#FF7F0E;stroke-linejoin:round;stroke-miterlimit:10;stroke-dasharray:3.7,1.6;}
	.st6{clip-path:url(#SVGID_14_);fill:none;stroke:#1F77B4;stroke-miterlimit:10;}
	.st7{opacity:0.5;clip-path:url(#SVGID_16_);fill:#1F77B4;}
	.st8{clip-path:url(#SVGID_18_);fill:none;stroke:#FF7F0E;stroke-miterlimit:10;}
	.st9{opacity:0.5;clip-path:url(#SVGID_20_);fill:#FF7F0E;}
	.st10{clip-path:url(#SVGID_22_);fill:none;stroke:#2CA02C;stroke-miterlimit:10;}
	.st11{opacity:0.5;clip-path:url(#SVGID_24_);fill:#2CA02C;}
	.st12{clip-path:url(#SVGID_26_);fill:none;stroke:#FF7F0E;stroke-linejoin:round;stroke-miterlimit:10;stroke-dasharray:3.7,1.6;}
	.st13{clip-path:url(#SVGID_26_);fill:#FF7F0E;}
	.st14{clip-path:url(#SVGID_26_);fill:none;stroke:#FF7F0E;stroke-miterlimit:10;}
	.st15{clip-path:url(#SVGID_28_);fill:none;stroke:#1F77B4;stroke-linejoin:round;stroke-miterlimit:10;stroke-dasharray:3.7,1.6;}
	.st16{clip-path:url(#SVGID_28_);fill:#1F77B4;}
	.st17{clip-path:url(#SVGID_28_);fill:none;stroke:#1F77B4;stroke-miterlimit:10;}
	.st18{clip-path:url(#SVGID_30_);fill:none;stroke:#2CA02C;stroke-linejoin:round;stroke-miterlimit:10;stroke-dasharray:3.7,1.6;}
	.st19{clip-path:url(#SVGID_30_);fill:#2CA02C;}
	.st20{clip-path:url(#SVGID_30_);fill:none;stroke:#2CA02C;stroke-miterlimit:10;}
	.st21{clip-path:url(#SVGID_32_);fill:none;stroke:#1F77B4;stroke-linejoin:round;stroke-miterlimit:10;stroke-dasharray:3.7,1.6;}
	.st22{clip-path:url(#SVGID_32_);fill:#1F77B4;}
	.st23{clip-path:url(#SVGID_32_);fill:none;stroke:#1F77B4;stroke-miterlimit:10;}
	.st24{clip-path:url(#SVGID_34_);fill:none;stroke:#2CA02C;stroke-linejoin:round;stroke-miterlimit:10;stroke-dasharray:3.7,1.6;}
	.st25{clip-path:url(#SVGID_34_);fill:#2CA02C;}
	.st26{clip-path:url(#SVGID_34_);fill:none;stroke:#2CA02C;stroke-miterlimit:10;}
	.st27{clip-path:url(#SVGID_36_);fill:none;stroke:#FF7F0E;stroke-linejoin:round;stroke-miterlimit:10;stroke-dasharray:3.7,1.6;}
	.st28{clip-path:url(#SVGID_36_);fill:#FF7F0E;}
	.st29{clip-path:url(#SVGID_36_);fill:none;stroke:#FF7F0E;stroke-miterlimit:10;}
	.st30{fill:none;stroke:#000000;stroke-width:3;stroke-linejoin:round;stroke-miterlimit:10;}
	.st31{fill:none;stroke:#000000;stroke-width:3;stroke-linecap:square;stroke-miterlimit:10;}
	.st32{fill:none;stroke:#1F77B4;stroke-linejoin:round;stroke-miterlimit:10;stroke-dasharray:3.7,1.6;}
	.st33{fill:none;stroke:#2CA02C;stroke-linejoin:round;stroke-miterlimit:10;stroke-dasharray:3.7,1.6;}
	.st34{fill:none;stroke:#FF7F0E;stroke-linejoin:round;stroke-miterlimit:10;stroke-dasharray:3.7,1.6;}
	.st35{fill:#870303;}
</style>
<g id="Layer_2">
</g>
<g id="Layer_1">
	<g id="Слой_8">
	</g>
	<g id="Слой_16">
	</g>
	<g id="Time_scale">
	</g>
	<g id="Now_line">
	</g>
	<g id="Слой_10">
	</g>
	<g id="Слой_9">
	</g>
	<g>
		<defs>
			<rect id="SVGID_1_" x="1981.5" y="138" width="285.5" height="354"/>
		</defs>
		<clipPath id="SVGID_2_">
			<use xlink:href="#SVGID_1_"  style="overflow:visible;"/>
		</clipPath>
		<polyline class="st0" points="2094.9,208.8 2092.7,208.9 2090.5,209 2088.3,209.2 2086.1,209.3 2083.9,209.5 2081.7,209.6 
			2079.5,209.7 2077.3,209.9 2075.1,210.1 2072.9,210.2 2070.8,210.3 2068.6,210.6 2066.4,210.7 2064.2,210.8 2062,210.9 
			2059.8,211 2057.6,211 2055.4,211.2 2053.2,211.2 2050.4,211.3 		"/>
	</g>
	<g>
		<defs>
			<rect id="SVGID_3_" x="1981.5" y="138" width="285.5" height="354"/>
		</defs>
		<clipPath id="SVGID_4_">
			<use xlink:href="#SVGID_3_"  style="overflow:visible;"/>
		</clipPath>
		<polyline class="st1" points="2050.4,222.1 2052.6,222 2054.8,221.9 2057,221.7 2059.2,221.6 2061.4,221.4 2063.6,221.3 
			2065.8,221.2 2068,221.1 2070.2,220.9 2072.4,220.7 2074.6,220.6 2076.8,220.4 2078.9,220.2 2081.1,220.1 2083.3,220 2085.5,220 
			2087.7,219.9 2089.9,219.8 2092.1,219.7 2094.9,219.6 		"/>
	</g>
	<g>
		<defs>
			<rect id="SVGID_5_" x="1981.5" y="138" width="285.5" height="354"/>
		</defs>
		<clipPath id="SVGID_6_">
			<use xlink:href="#SVGID_5_"  style="overflow:visible;"/>
		</clipPath>
		<polyline class="st2" points="2198.1,301.8 2195.9,301.9 2193.7,302 2191.6,302.2 2189.4,302.3 2187.2,302.5 2185,302.6 
			2182.8,302.7 2180.6,302.8 2178.4,303 2176.2,303.2 2174,303.3 2171.8,303.6 2169.6,303.7 2167.4,303.8 2165.2,303.9 2163,303.9 
			2160.8,304 2158.6,304.1 2156.5,304.2 2154.3,304.3 2152.1,304.4 2149.9,304.4 2147.7,304.4 2145.5,304.4 2143.3,304.4 
			2141.1,304.4 2138.9,304.3 2136.7,304.2 2134.5,304.2 2132.3,304 2130.1,303.9 2127.9,303.8 2125.7,303.7 2123.5,303.6 
			2121.4,303.4 2119.2,303.3 2117,303.2 2114.8,303 2112.6,302.9 2110.4,302.8 2108.2,302.5 2106,302.3 2103.8,302 2101.6,301.9 
			2099.4,301.7 2097.2,301.6 2095,301.4 2092.8,301.1 2090.6,300.9 2088.5,300.7 2086.3,300.6 2084.1,300.4 2081.9,300.3 
			2079.7,300.1 2077.5,299.9 2075.3,299.8 2073.1,299.7 2070.9,299.7 2068.7,299.6 2066.5,299.6 2064.3,299.4 2062.1,299.3 
			2059.9,299.2 2057.7,299.2 2055.5,299.2 2053.4,299.1 2050.4,299.1 		"/>
	</g>
	<g>
		<defs>
			<rect id="SVGID_7_" x="1981.5" y="138" width="285.5" height="354"/>
		</defs>
		<clipPath id="SVGID_8_">
			<use xlink:href="#SVGID_7_"  style="overflow:visible;"/>
		</clipPath>
		<polyline class="st3" points="2050.4,314.1 2052.6,314 2054.8,313.9 2057,313.7 2059.2,313.6 2061.4,313.4 2063.6,313.3 
			2065.8,313.2 2068,313 2070.2,312.8 2072.4,312.7 2074.6,312.6 2076.8,312.3 2078.9,312.2 2081.1,312.1 2083.3,312 2085.5,311.9 
			2087.7,311.9 2089.9,311.7 2092.1,311.7 2094.3,311.6 2096.5,311.5 2098.7,311.5 2100.9,311.5 2103.1,311.5 2105.3,311.5 
			2107.5,311.5 2109.7,311.6 2111.9,311.6 2114,311.7 2116.2,311.9 2118.4,312 2120.6,312.1 2122.8,312.2 2125,312.3 2127.2,312.4 
			2129.4,312.5 2131.6,312.7 2133.8,312.8 2136,312.9 2138.2,313.1 2140.4,313.4 2142.6,313.6 2144.8,313.9 2146.9,314 
			2149.1,314.2 2151.3,314.3 2153.5,314.5 2155.7,314.8 2157.9,315 2160.1,315.2 2162.3,315.3 2164.5,315.4 2166.7,315.6 
			2168.9,315.8 2171.1,316 2173.3,316.1 2175.5,316.1 2177.7,316.2 2179.9,316.2 2182,316.3 2184.2,316.4 2186.4,316.5 
			2188.6,316.6 2190.8,316.7 2193,316.7 2195.2,316.7 2198.1,316.7 		"/>
	</g>
	<g>
		<defs>
			<rect id="SVGID_9_" x="1981.5" y="138" width="285.5" height="354"/>
		</defs>
		<clipPath id="SVGID_10_">
			<use xlink:href="#SVGID_9_"  style="overflow:visible;"/>
		</clipPath>
		<polyline class="st4" points="2198.1,390.7 2195.9,390.8 2193.7,390.9 2191.6,391.2 2189.4,391.3 2187.2,391.5 2185,391.6 
			2182.8,391.7 2180.6,391.8 2178.4,392 2176.2,392.1 2174,392.3 2171.8,392.5 2169.6,392.6 2167.4,392.8 2165.2,392.8 2163,392.9 
			2160.8,393 2158.6,393.1 2156.5,393.2 2153.7,393.3 		"/>
	</g>
	<g>
		<defs>
			<rect id="SVGID_11_" x="1981.5" y="138" width="285.5" height="354"/>
		</defs>
		<clipPath id="SVGID_12_">
			<use xlink:href="#SVGID_11_"  style="overflow:visible;"/>
		</clipPath>
		<polyline class="st5" points="2153.7,407.1 2155.9,407 2158.1,406.9 2160.3,406.6 2162.5,406.5 2164.6,406.3 2166.8,406.2 
			2169,406.2 2171.2,406 2173.4,405.8 2175.6,405.7 2177.8,405.5 2180,405.3 2182.2,405.2 2184.4,405.1 2186.6,405 2188.8,404.9 
			2191,404.8 2193.2,404.7 2195.4,404.6 2198.1,404.6 		"/>
	</g>
	<g>
		<defs>
			<rect id="SVGID_13_" x="1981.5" y="138" width="285.5" height="354"/>
		</defs>
		<clipPath id="SVGID_14_">
			<use xlink:href="#SVGID_13_"  style="overflow:visible;"/>
		</clipPath>
		<path class="st6" d="M2047.6,138v354 M1994.5,138v354"/>
	</g>
	<g>
		<defs>
			<rect id="SVGID_15_" x="1981.5" y="138" width="285.5" height="354"/>
		</defs>
		<clipPath id="SVGID_16_">
			<use xlink:href="#SVGID_15_"  style="overflow:visible;"/>
		</clipPath>
		<rect x="1994.5" y="138" class="st7" width="53.1" height="354"/>
	</g>
	<g>
		<defs>
			<rect id="SVGID_17_" x="1981.5" y="138" width="285.5" height="354"/>
		</defs>
		<clipPath id="SVGID_18_">
			<use xlink:href="#SVGID_17_"  style="overflow:visible;"/>
		</clipPath>
		<path class="st8" d="M2150.8,138v354 M2097.7,138v354"/>
	</g>
	<g>
		<defs>
			<rect id="SVGID_19_" x="1981.5" y="138" width="285.5" height="354"/>
		</defs>
		<clipPath id="SVGID_20_">
			<use xlink:href="#SVGID_19_"  style="overflow:visible;"/>
		</clipPath>
		<rect x="2097.7" y="138" class="st9" width="53.1" height="354"/>
	</g>
	<g>
		<defs>
			<rect id="SVGID_21_" x="1981.5" y="138" width="285.5" height="354"/>
		</defs>
		<clipPath id="SVGID_22_">
			<use xlink:href="#SVGID_21_"  style="overflow:visible;"/>
		</clipPath>
		<path class="st10" d="M2254.1,138v354 M2201,138v354"/>
	</g>
	<g>
		<defs>
			<rect id="SVGID_23_" x="1981.5" y="138" width="285.5" height="354"/>
		</defs>
		<clipPath id="SVGID_24_">
			<use xlink:href="#SVGID_23_"  style="overflow:visible;"/>
		</clipPath>
		<rect x="2201" y="138" class="st11" width="53.1" height="354"/>
	</g>
	<path d="M1996.3,500.4h4.9c1.8,0,3.1,0.4,4.1,1.2c0.9,0.8,1.4,2,1.4,3.6c0,1.6-0.5,2.8-1.4,3.6c-0.9,0.8-2.3,1.2-4.1,1.2h-2.7v6.4
		h-2.2V500.4z M1998.5,502.2v6h2.7c1,0,1.8-0.2,2.3-0.8c0.5-0.5,0.8-1.3,0.8-2.2s-0.3-1.7-0.8-2.2c-0.5-0.5-1.3-0.8-2.3-0.8H1998.5z
		"/>
	<path d="M2013.4,504.1c1.7,0,3,0.6,4,1.7c1,1.1,1.5,2.7,1.5,4.6c0,2-0.5,3.5-1.5,4.6c-1,1.1-2.3,1.7-4,1.7c-1.7,0-3.1-0.5-4.1-1.7
		c-1-1.1-1.4-2.6-1.4-4.6c0-2,0.5-3.5,1.4-4.6C2010.3,504.7,2011.6,504.1,2013.4,504.1z M2013.4,505.7c-1.1,0-1.9,0.4-2.5,1.3
		s-0.9,2-0.9,3.4c0,1.4,0.3,2.6,0.9,3.4c0.6,0.8,1.4,1.2,2.5,1.2c1.1,0,1.9-0.4,2.5-1.2c0.6-0.8,0.9-2,0.9-3.4
		c0-1.4-0.3-2.5-0.9-3.4C2015.3,506.2,2014.4,505.7,2013.4,505.7z"/>
	<path d="M2030.8,510.4c0-1.4-0.3-2.6-0.9-3.4c-0.6-0.8-1.4-1.3-2.5-1.3c-1.1,0-1.9,0.4-2.5,1.3c-0.6,0.8-0.9,2-0.9,3.4
		c0,1.4,0.3,2.6,0.9,3.4c0.6,0.8,1.4,1.2,2.5,1.2c1,0,1.8-0.4,2.5-1.2C2030.5,513,2030.8,511.8,2030.8,510.4z M2024,514.6v6.3h-2
		v-16.5h2v1.8c0.4-0.7,0.9-1.2,1.6-1.6s1.4-0.5,2.3-0.5c1.4,0,2.6,0.6,3.6,1.7c0.9,1.2,1.4,2.7,1.4,4.6c0,1.9-0.5,3.4-1.4,4.6
		c-0.9,1.1-2.1,1.7-3.6,1.7c-0.9,0-1.6-0.2-2.3-0.5S2024.4,515.3,2024,514.6z"/>
	<polygon points="2036.7,514.5 2040.3,514.5 2040.3,502.3 2036.4,503.1 2036.4,501.1 2040.2,500.4 2042.4,500.4 2042.4,514.5 
		2045.9,514.5 2045.9,516.4 2036.7,516.4 	"/>
	<path d="M2099.6,500.4h4.9c1.8,0,3.1,0.4,4.1,1.2c0.9,0.8,1.4,2,1.4,3.6c0,1.6-0.5,2.8-1.4,3.6c-0.9,0.8-2.3,1.2-4.1,1.2h-2.7v6.4
		h-2.2V500.4z M2101.7,502.2v6h2.7c1,0,1.8-0.2,2.3-0.8c0.5-0.5,0.8-1.3,0.8-2.2s-0.3-1.7-0.8-2.2c-0.5-0.5-1.3-0.8-2.3-0.8H2101.7z
		"/>
	<path d="M2116.6,504.1c1.7,0,3,0.6,4,1.7c1,1.1,1.5,2.7,1.5,4.6c0,2-0.5,3.5-1.5,4.6c-1,1.1-2.3,1.7-4,1.7c-1.7,0-3.1-0.5-4.1-1.7
		c-1-1.1-1.4-2.6-1.4-4.6c0-2,0.5-3.5,1.4-4.6C2113.5,504.7,2114.9,504.1,2116.6,504.1z M2116.6,505.7c-1.1,0-1.9,0.4-2.5,1.3
		c-0.6,0.8-0.9,2-0.9,3.4c0,1.4,0.3,2.6,0.9,3.4c0.6,0.8,1.4,1.2,2.5,1.2c1.1,0,1.9-0.4,2.5-1.2s0.9-2,0.9-3.4
		c0-1.4-0.3-2.5-0.9-3.4S2117.7,505.7,2116.6,505.7z"/>
	<path d="M2134,510.4c0-1.4-0.3-2.6-0.9-3.4c-0.6-0.8-1.4-1.3-2.5-1.3c-1.1,0-1.9,0.4-2.5,1.3c-0.6,0.8-0.9,2-0.9,3.4
		c0,1.4,0.3,2.6,0.9,3.4c0.6,0.8,1.4,1.2,2.5,1.2c1,0,1.8-0.4,2.5-1.2C2133.7,513,2134,511.8,2134,510.4z M2127.3,514.6v6.3h-2
		v-16.5h2v1.8c0.4-0.7,0.9-1.2,1.6-1.6c0.6-0.4,1.4-0.5,2.3-0.5c1.4,0,2.6,0.6,3.6,1.7c0.9,1.2,1.4,2.7,1.4,4.6
		c0,1.9-0.5,3.4-1.4,4.6c-0.9,1.1-2.1,1.7-3.6,1.7c-0.9,0-1.6-0.2-2.3-0.5C2128.2,515.8,2127.7,515.3,2127.3,514.6z"/>
	<path d="M2141.5,514.5h7.5v1.8h-10.2v-1.8c0.8-0.8,1.9-2,3.4-3.4c1.4-1.4,2.3-2.3,2.7-2.8c0.7-0.8,1.2-1.4,1.4-2
		c0.3-0.5,0.4-1.1,0.4-1.6c0-0.8-0.3-1.5-0.9-2.1c-0.6-0.5-1.4-0.8-2.3-0.8c-0.7,0-1.4,0.1-2.1,0.4c-0.7,0.2-1.6,0.6-2.4,1.1v-2.2
		c0.9-0.4,1.7-0.6,2.4-0.8c0.7-0.2,1.4-0.3,2.1-0.3c1.6,0,3,0.4,3.9,1.3c1,0.8,1.5,1.9,1.5,3.3c0,0.7-0.1,1.3-0.4,1.9
		c-0.2,0.6-0.7,1.3-1.3,2.1c-0.2,0.2-0.7,0.8-1.7,1.8C2144.5,511.4,2143.2,512.8,2141.5,514.5z"/>
	<path d="M2202.8,500.4h4.9c1.8,0,3.1,0.4,4.1,1.2c0.9,0.8,1.4,2,1.4,3.6c0,1.6-0.5,2.8-1.4,3.6c-0.9,0.8-2.3,1.2-4.1,1.2h-2.7v6.4
		h-2.2V500.4z M2205,502.2v6h2.7c1,0,1.8-0.2,2.3-0.8c0.5-0.5,0.8-1.3,0.8-2.2s-0.3-1.7-0.8-2.2c-0.5-0.5-1.3-0.8-2.3-0.8H2205z"/>
	<path d="M2219.9,504.1c1.7,0,3,0.6,4,1.7c1,1.1,1.5,2.7,1.5,4.6c0,2-0.5,3.5-1.5,4.6c-1,1.1-2.3,1.7-4,1.7c-1.7,0-3.1-0.5-4.1-1.7
		c-1-1.1-1.4-2.6-1.4-4.6c0-2,0.5-3.5,1.4-4.6C2216.8,504.7,2218.1,504.1,2219.9,504.1z M2219.9,505.7c-1.1,0-1.9,0.4-2.5,1.3
		s-0.9,2-0.9,3.4c0,1.4,0.3,2.6,0.9,3.4c0.6,0.8,1.4,1.2,2.5,1.2c1.1,0,1.9-0.4,2.5-1.2s0.9-2,0.9-3.4c0-1.4-0.3-2.5-0.9-3.4
		S2220.9,505.7,2219.9,505.7z"/>
	<path d="M2237.3,510.4c0-1.4-0.3-2.6-0.9-3.4c-0.6-0.8-1.4-1.3-2.5-1.3c-1.1,0-1.9,0.4-2.5,1.3c-0.6,0.8-0.9,2-0.9,3.4
		c0,1.4,0.3,2.6,0.9,3.4c0.6,0.8,1.4,1.2,2.5,1.2c1,0,1.8-0.4,2.5-1.2C2236.9,513,2237.3,511.8,2237.3,510.4z M2230.5,514.6v6.3h-2
		v-16.5h2v1.8c0.4-0.7,0.9-1.2,1.6-1.6s1.4-0.5,2.3-0.5c1.4,0,2.6,0.6,3.6,1.7c0.9,1.2,1.4,2.7,1.4,4.6c0,1.9-0.5,3.4-1.4,4.6
		c-0.9,1.1-2.1,1.7-3.6,1.7c-0.9,0-1.6-0.2-2.3-0.5S2230.9,515.3,2230.5,514.6z"/>
	<path d="M2249.4,507.7c1,0.2,1.8,0.7,2.4,1.4c0.6,0.7,0.9,1.6,0.9,2.6c0,1.6-0.5,2.8-1.6,3.7c-1.1,0.9-2.6,1.3-4.6,1.3
		c-0.7,0-1.4-0.1-2.1-0.2c-0.7-0.1-1.4-0.3-2.2-0.6v-2.1c0.6,0.4,1.3,0.6,2,0.8c0.7,0.2,1.4,0.3,2.2,0.3c1.4,0,2.4-0.3,3.1-0.8
		c0.7-0.5,1.1-1.3,1.1-2.3c0-0.9-0.3-1.7-1-2.2c-0.7-0.5-1.6-0.8-2.8-0.8h-1.9v-1.8h2c1.1,0,1.9-0.2,2.4-0.6c0.6-0.4,0.9-1,0.9-1.8
		c0-0.8-0.3-1.4-0.9-1.9c-0.6-0.4-1.4-0.7-2.5-0.7c-0.6,0-1.2,0.1-1.9,0.2c-0.7,0.1-1.4,0.3-2.2,0.6v-1.9c0.8-0.2,1.6-0.4,2.3-0.5
		c0.7-0.1,1.4-0.2,2-0.2c1.6,0,2.9,0.4,3.9,1.1c1,0.7,1.4,1.8,1.4,3c0,0.9-0.3,1.6-0.8,2.2C2251.1,507.1,2250.3,507.5,2249.4,507.7z
		"/>
	<line x1="1981.5" y1="492" x2="1973.8" y2="492"/>
	<g>
		<defs>
			<rect id="SVGID_25_" x="1981.5" y="140" width="285.5" height="354"/>
		</defs>
		<clipPath id="SVGID_26_">
			<use xlink:href="#SVGID_25_"  style="overflow:visible;"/>
		</clipPath>
		<path class="st12" d="M2050.4,210.8"/>
		<polygon class="st13" points="2048.2,210.8 2052.6,213.4 2052.6,208.2 		"/>
		<polygon class="st14" points="2048.2,210.8 2052.6,213.4 2052.6,208.2 		"/>
	</g>
	<g>
		<defs>
			<rect id="SVGID_27_" x="1981.5" y="136" width="285.5" height="354"/>
		</defs>
		<clipPath id="SVGID_28_">
			<use xlink:href="#SVGID_27_"  style="overflow:visible;"/>
		</clipPath>
		<path class="st15" d="M2094.9,220.1"/>
		<polygon class="st16" points="2097.1,220.1 2092.7,217.5 2092.7,222.8 		"/>
		<polygon class="st17" points="2097.1,220.1 2092.7,217.5 2092.7,222.8 		"/>
	</g>
	<g>
		<defs>
			<rect id="SVGID_29_" x="1981.5" y="136" width="285.5" height="354"/>
		</defs>
		<clipPath id="SVGID_30_">
			<use xlink:href="#SVGID_29_"  style="overflow:visible;"/>
		</clipPath>
		<path class="st18" d="M2050.4,298.8"/>
		<polygon class="st19" points="2048.2,298.8 2052.6,301.4 2052.6,296.1 		"/>
		<polygon class="st20" points="2048.2,298.8 2052.6,301.4 2052.6,296.1 		"/>
	</g>
	<g>
		<defs>
			<rect id="SVGID_31_" x="1981.5" y="140" width="285.5" height="354"/>
		</defs>
		<clipPath id="SVGID_32_">
			<use xlink:href="#SVGID_31_"  style="overflow:visible;"/>
		</clipPath>
		<path class="st21" d="M2198.1,316.1"/>
		<polygon class="st22" points="2200.3,316.1 2195.9,313.5 2195.9,318.7 		"/>
		<polygon class="st23" points="2200.3,316.1 2195.9,313.5 2195.9,318.7 		"/>
	</g>
	<g>
		<defs>
			<rect id="SVGID_33_" x="1981.5" y="140" width="285.5" height="354"/>
		</defs>
		<clipPath id="SVGID_34_">
			<use xlink:href="#SVGID_33_"  style="overflow:visible;"/>
		</clipPath>
		<path class="st24" d="M2153.7,393.7"/>
		<polygon class="st25" points="2151.5,393.7 2155.9,396.4 2155.9,391.1 		"/>
		<polygon class="st26" points="2151.5,393.7 2155.9,396.4 2155.9,391.1 		"/>
	</g>
	<g>
		<defs>
			<rect id="SVGID_35_" x="1981.5" y="136" width="285.5" height="354"/>
		</defs>
		<clipPath id="SVGID_36_">
			<use xlink:href="#SVGID_35_"  style="overflow:visible;"/>
		</clipPath>
		<path class="st27" d="M2198.1,405.1"/>
		<polygon class="st28" points="2200.3,405.1 2195.9,402.4 2195.9,407.7 		"/>
		<polygon class="st29" points="2200.3,405.1 2195.9,402.4 2195.9,407.7 		"/>
	</g>
	<g>
		<g>
			<g>
				<path d="M2075.5,69c0.2-8.5,0.3-17.1,0.5-25.6c0.2-8.2-0.7-17.2,3.1-24.7c-0.9-0.1-1.8-0.2-2.7-0.4c2.8,10.7,5.7,21.5,8.5,32.2
					c0.3,1,1.7,1.5,2.5,0.7c8.9-10,1-24.5,8.2-35.1c-0.9-0.1-1.8-0.2-2.7-0.4c2.9,18.2,7.5,36,13.8,53.4c0.7,1.8,3.6,1,2.9-0.8
					c-6.3-17.3-10.9-35.2-13.8-53.4c-0.2-1.4-2.1-1.3-2.7-0.4c-7,10.4,0.7,25.1-7.7,34.5c0.8,0.2,1.7,0.4,2.5,0.7
					c-2.8-10.7-5.7-21.5-8.5-32.2c-0.3-1.2-2.1-1.5-2.7-0.4c-3.6,7-3.3,14.8-3.5,22.4c-0.2,9.8-0.4,19.6-0.6,29.4
					C2072.4,70.9,2075.4,70.9,2075.5,69L2075.5,69z"/>
			</g>
		</g>
		<g>
			<g>
				<path d="M2110.6,49.8c-1.5,7.2-2,18.6,7.8,19.9c10.1,1.4,11.2-13.5,10.4-20.2c-0.5-4.4-1.9-20.9-10.1-16.2
					c-7.6,4.3-8.6,17.3-7.3,24.8c0.3,1.9,3.2,1.1,2.9-0.8c-1-5.6-0.3-11.1,2.1-16.3c1.3-2.6,5.5-7.5,7-2.7c0.8,2.6,1.4,5.3,1.9,8
					c0.9,5,2.2,13.8-1.7,18c-3.1,3.5-7.7,2.6-9.9-1.3c-2.1-3.7-1-8.6-0.2-12.4C2113.9,48.7,2111,47.9,2110.6,49.8L2110.6,49.8z"/>
			</g>
		</g>
		<g>
			<g>
				<path d="M2148.9,43.2c0.9-3.3-0.7-6.4-3.8-7.7c-3.7-1.6-7.8,0.5-9.9,3.7c-3.3,4.8-2.1,11.1-1.6,16.5c0.3,3.7-0.2,10.2,3,13
					c7.7,6.6,12.6-12.3,13.1-16.7c0.6-6,0.1-12.1,0-18.1c-0.2-8.3,0.5-16.5,2-24.7c-1-0.1-2-0.3-2.9-0.4
					c-0.2,20.1,0.5,40.2,2.2,60.3c0.2,1.9,3.2,1.9,3,0c-1.7-20.1-2.4-40.1-2.2-60.3c0-1.6-2.6-2.1-2.9-0.4
					c-1.3,6.9-2.1,13.9-2.2,20.9c-0.1,6.8,0.7,13.5,0.3,20.3c-0.2,3.6-0.8,7.2-2.2,10.5c-1.2,2.8-1.3,3.8-4.5,4
					c-2.2,1-3.1,0.5-2.9-1.6c-0.1-0.9-0.2-1.7-0.2-2.6c-0.3-3.4-0.7-6.8-0.9-10.2c-0.1-2-0.2-4.1,0.4-6.1c0.3-1.4,1-2.7,2-3.8
					c2.9-3.1,5.4-2.3,7.6,2.6C2145.5,44.3,2148.4,45.1,2148.9,43.2L2148.9,43.2z"/>
			</g>
		</g>
		<g>
			<g>
				<path d="M2159.9,60.1c6.2-4.2,12.7-11.1,9.7-19.3c-2-5.5-9.7-7.9-13.1-2.3c-3.9,6.4-0.6,18.8,3.2,24.5c3.9,5.9,11.5,9,17.8,5
					c1.6-1,0.1-3.6-1.5-2.6c-11,6.9-17.1-9.1-17.7-17.2c-0.2-1.9-0.8-6.9,0.8-8.2c1.7-0.4,3.5-0.8,5.2-1.2c1.9,1.2,2.9,3,2.9,5.4
					c0.4,6-4.4,10.2-8.9,13.3C2156.8,58.6,2158.3,61.2,2159.9,60.1L2159.9,60.1z"/>
			</g>
		</g>
		<g>
			<g>
				<path d="M2175.3,13c1.8,19.5,3.6,39,5.4,58.5c0.2,1.9,3.2,1.9,3,0c-1.8-19.5-3.6-39-5.4-58.5C2178.2,11.1,2175.2,11,2175.3,13
					L2175.3,13z"/>
			</g>
		</g>
	</g>
	<g>
		<defs>
			<rect id="SVGID_37_" x="1948.7" y="138.3" width="342.9" height="353.6"/>
		</defs>
		<clipPath id="SVGID_38_">
			<use xlink:href="#SVGID_37_"  style="overflow:visible;"/>
		</clipPath>
	</g>
	<g>
		<defs>
			<rect id="SVGID_39_" x="1948.7" y="138.3" width="342.9" height="353.6"/>
		</defs>
		<clipPath id="SVGID_40_">
			<use xlink:href="#SVGID_39_"  style="overflow:visible;"/>
		</clipPath>
	</g>
	<g>
		<defs>
			<rect id="SVGID_41_" x="1948.7" y="138.3" width="342.9" height="353.6"/>
		</defs>
		<clipPath id="SVGID_42_">
			<use xlink:href="#SVGID_41_"  style="overflow:visible;"/>
		</clipPath>
	</g>
	<g>
		<defs>
			<rect id="SVGID_43_" x="1948.7" y="138.3" width="342.9" height="353.6"/>
		</defs>
		<clipPath id="SVGID_44_">
			<use xlink:href="#SVGID_43_"  style="overflow:visible;"/>
		</clipPath>
	</g>
	<g>
		<defs>
			<rect id="SVGID_45_" x="1948.7" y="138.3" width="342.9" height="353.6"/>
		</defs>
		<clipPath id="SVGID_46_">
			<use xlink:href="#SVGID_45_"  style="overflow:visible;"/>
		</clipPath>
	</g>
	<g>
		<defs>
			<rect id="SVGID_47_" x="1948.7" y="138.3" width="342.9" height="353.6"/>
		</defs>
		<clipPath id="SVGID_48_">
			<use xlink:href="#SVGID_47_"  style="overflow:visible;"/>
		</clipPath>
	</g>
	<g>
		<defs>
			<rect id="SVGID_49_" x="1948.7" y="138.3" width="342.9" height="353.6"/>
		</defs>
		<clipPath id="SVGID_50_">
			<use xlink:href="#SVGID_49_"  style="overflow:visible;"/>
		</clipPath>
	</g>
	<g>
		<defs>
			<rect id="SVGID_51_" x="1948.7" y="138.3" width="342.9" height="353.6"/>
		</defs>
		<clipPath id="SVGID_52_">
			<use xlink:href="#SVGID_51_"  style="overflow:visible;"/>
		</clipPath>
	</g>
	<g>
		<defs>
			<rect id="SVGID_53_" x="1948.7" y="138.3" width="342.9" height="353.6"/>
		</defs>
		<clipPath id="SVGID_54_">
			<use xlink:href="#SVGID_53_"  style="overflow:visible;"/>
		</clipPath>
	</g>
	<line x1="1948.7" y1="491.9" x2="1939.5" y2="491.9"/>
	<line class="st30" x1="1948.7" y1="491.9" x2="1939.5" y2="491.9"/>
	<line x1="1948.7" y1="421.2" x2="1939.5" y2="421.2"/>
	<line class="st30" x1="1948.7" y1="448.2" x2="1939.5" y2="448.2"/>
	<line x1="1948.7" y1="319.5" x2="1939.5" y2="319.5"/>
	<line class="st30" x1="1948.7" y1="319.5" x2="1939.5" y2="319.5"/>
	<line x1="1948.7" y1="196" x2="1939.5" y2="196"/>
	<line class="st30" x1="1948.7" y1="196" x2="1939.5" y2="196"/>
	<line class="st31" x1="1948.7" y1="491.9" x2="1948.7" y2="138.3"/>
	<g>
		<g>
			<path d="M2111.8,176.9c1.4-9,2.3-18,2.5-27.2c-0.9,0.3-1.9,0.5-2.8,0.8c4.6,8.2,9.2,16.4,13.7,24.5c0.6,1.1,2.4,0.9,2.7-0.4
				c2-8.6,3.1-17.4,3.3-26.3c0-1.9-3-1.9-3,0c-0.2,8.6-1.3,17.1-3.2,25.5c0.9-0.1,1.8-0.2,2.7-0.4c-4.6-8.2-9.2-16.4-13.7-24.5
				c-0.7-1.3-2.8-0.7-2.8,0.8c-0.2,8.8-1,17.6-2.4,26.4C2108.6,178,2111.5,178.8,2111.8,176.9L2111.8,176.9z"/>
		</g>
	</g>
	<g>
		<g>
			<path d="M2033,172.5c1.8-2.7,3-5.5,3.5-8.7c-1-0.1-2-0.3-2.9-0.4c-0.1,2.5-0.2,5.1-0.1,7.6c0.1,1.3,0.2,2.5,0.4,3.8
				c0,0.2,1.1,6.8-1.8,5.1c-0.3,0.9-0.5,1.9-0.8,2.8c2.5,0,5.1,0.1,7.6,0.1c1.9,0,1.9-3,0-3c-2.5,0-5.1-0.1-7.6-0.1
				c-1.5,0-2,2.1-0.8,2.8c2.7,1.6,5.6-0.1,6.4-2.9c0.7-2.3-0.2-4.9-0.4-7.3c-0.2-3-0.1-5.9,0-8.9c0.1-1.7-2.7-2.1-2.9-0.4
				c-0.5,3-1.5,5.5-3.2,8C2029.3,172.6,2031.9,174.1,2033,172.5L2033,172.5z"/>
		</g>
	</g>
	<g>
		<g>
			<path d="M2007.6,176.3c1.7-9.5,3.5-19.1,5.2-28.6c-0.9,0.1-1.8,0.2-2.7,0.4c4.5,9.5,9.5,18.8,14.9,27.8c0.6,1,2.5,1,2.7-0.4
				c1.7-9.9,2.6-19.9,2.8-30c0-1.9-3-1.9-3,0c-0.2,9.8-1,19.5-2.7,29.2c0.9-0.1,1.8-0.2,2.7-0.4c-5.5-9-10.4-18.3-14.9-27.8
				c-0.5-1.1-2.5-0.9-2.7,0.4c-1.7,9.5-3.5,19.1-5.2,28.6C2004.3,177.4,2007.2,178.2,2007.6,176.3L2007.6,176.3z"/>
		</g>
	</g>
	<g>
		<g>
			<path d="M2135.6,167.8c2-1.1,2.9-1,2.8,0.4c0.1,0.5,0.1,0.9,0,1.3c-0.2,1.2-0.8,2.3-1.7,3.2c-1,1.1-2.3,1.9-3.4,2.8
				c-2,1.6-3.2,3.2-3.4,5.8c-0.1,0.8,0.7,1.6,1.5,1.5c3-0.2,6-0.4,9.1-0.7c1.9-0.1,1.9-3.1,0-3c-3,0.2-6,0.4-9.1,0.7
				c0.5,0.5,1,1,1.5,1.5c0.3-3.3,5-5,6.8-7.5c1.7-2.3,2.4-5.3,1.3-8c-2-4.9-8.7-3.3-8.4,1.9C2132.8,169.8,2135.8,169.8,2135.6,167.8
				L2135.6,167.8z"/>
		</g>
	</g>
	<g>
		<g>
			<path d="M2212.8,174.4c0.7-9.5,0.9-19,0.6-28.5c-0.9,0.4-1.7,0.7-2.6,1.1c8.5,8.5,15.2,18.3,20.2,29.2c0.5,1.1,2.5,0.9,2.7-0.4
				c1.9-10.5,2.9-21.1,2.9-31.8c0-1.9-3-1.9-3,0c-0.1,10.4-1,20.8-2.8,31c0.9-0.1,1.8-0.2,2.7-0.4c-5.1-11.2-12-21.2-20.7-29.9
				c-0.9-0.9-2.6-0.3-2.6,1.1c0.3,9.5,0.1,19-0.6,28.5C2209.6,176.3,2212.6,176.3,2212.8,174.4L2212.8,174.4z"/>
		</g>
	</g>
	<g>
		<g>
			<path d="M2240.1,167.5c1.1-1.1,2.2-1.9,3.6-2.7c-0.6-0.1-1.2-0.2-1.8-0.2c1.9,2.3-0.9,4.9-2.5,6.3c-1.3,1.2,0.4,3.1,1.8,2.4
				c2.7-1.3,2.3,3.8,1.4,4.9c-1.7,2.1-4.3,1.6-5.5-0.7c-0.9-1.7-3.4-0.2-2.6,1.5c2.5,5,9.4,4.5,11.4-0.7c1.6-4-1.5-9.9-6.3-7.6
				c0.6,0.8,1.2,1.6,1.8,2.4c3.1-2.8,5.7-6.8,2.5-10.6c-0.4-0.5-1.3-0.5-1.8-0.2c-1.6,0.9-2.9,1.9-4.2,3.1
				C2236.6,166.7,2238.7,168.8,2240.1,167.5L2240.1,167.5z"/>
		</g>
	</g>
	<g>
		<g>
			<g>
				<path d="M2050.9,226.6c0.5,6-1.2,11.9-0.7,17.9c0.2,1.6,2.4,2.1,2.9,0.4c1.4-4.5-0.2-9.7,3.6-13.3c1.3-1.2,1.3-1.2,2.1,0.1
					c0.6,1.1,0.6,3.2,0.6,4.4c0.1,2.5-0.2,5-0.5,7.4c-0.2,1.7,2.5,2,2.9,0.4c1.1-4.1-0.7-9.4,1.9-12.9c0.5-0.6,1.4-1.9,2.4-1.3
					c0.4,0.2,0.5,4.4,0.6,5.1c0.2,2.8,0.1,5.5-0.1,8.3c-0.1,1.9,2.9,1.9,3,0c0.2-2.8,1.7-19.4-4.6-17.1c-7.4,2.7-4.6,11.5-6.1,17.1
					c1,0.1,2,0.3,2.9,0.4c0.5-4,0.9-8.1,0-12.1c-0.4-1.8-1.2-4.8-3.5-4.7c-2.5,0.2-4.8,3.8-5.9,5.6c-2.2,3.7-1.1,7.7-2.2,11.7
					c1,0.1,2,0.3,2.9,0.4c-0.6-6,1.1-11.9,0.7-17.9C2053.7,224.7,2050.7,224.7,2050.9,226.6L2050.9,226.6z"/>
			</g>
		</g>
		<g>
			<g>
				<path d="M2073.3,241.4c3.9-1.3,3.9-5.5,5-8.9c-1-0.1-2-0.3-2.9-0.4c-0.3,2.5-0.6,5.1-0.9,7.6c-0.1,1.1-0.1,2.4-0.3,3.5
					c0.4,0.7,0.3,1.1-0.3,1.1c-0.6,0.2-1.2,0.3-1.8,0.5c-1.6,0.4-1.3,3.1,0.4,2.9c1.2-0.1,3.3-0.8,4.4-0.4c-0.3-0.6-0.7-1.2-1-1.8
					c0,0.1,0,0.1-0.1,0.2c0.6-0.3,1.2-0.7,1.8-1c0,0-0.1,0-0.1,0c-1.9-0.4-2.7,2.5-0.8,2.9c0,0,0.1,0,0.1,0c0.8,0.2,1.6-0.2,1.8-1
					c0-0.1,0-0.1,0.1-0.2c0.2-0.8-0.3-1.6-1-1.8c-1.5-0.5-3.7,0.1-5.2,0.3c0.1,1,0.3,2,0.4,2.9c2.8-0.7,4.5-0.8,4.4-4
					c-0.1-3.8,0.7-7.8,1.1-11.6c0.2-1.7-2.5-1.9-2.9-0.4c-0.6,1.8-0.6,6.1-2.9,6.8C2070.7,239.1,2071.5,242,2073.3,241.4
					L2073.3,241.4z"/>
			</g>
		</g>
		<g>
			<g>
				<path d="M2082.4,235.7c-0.2-1.9,0.5-2.2,2.1-0.9c0.2,0.9,0.2,1.8-0.1,2.6c-0.4,1.5-1.3,2.7-2.3,3.8c-0.9,1.1-2.5,2.2-2.6,3.7
					c-0.1,3.8,6.5,1.5,8.4,1.1c1.9-0.4,1.1-3.3-0.8-2.9c-1.9,0.4-4,1-5.9,0.8c0.4,0.2,0.9,0.5,1.3,0.7c0.2,0.4,2.6-2.4,2.8-2.7
					c0.8-1,1.4-2.2,1.8-3.4c0.7-2.1,0.7-4.8-0.8-6.7c-3.2-3.8-7.8,0.5-6.8,4.5C2080,238.4,2082.9,237.6,2082.4,235.7L2082.4,235.7z"
					/>
			</g>
		</g>
	</g>
	<g>
		<g>
			<g>
				<path d="M2061.8,183.1c-0.5,6-0.7,12-0.8,18c1,0,2,0,3,0c0-2.7,0.5-5.2,1.4-7.7c0.1-0.2,3.4-7.2,3.4-7.2
					c0.2,0.2-0.5,4.7-0.5,5.3c-0.2,2.6-0.3,5.3-0.5,7.9c-0.1,1.7,2.6,2.1,2.9,0.4c0.4-2,0.6-4,0.8-6.1c0.2-1.9,0.1-6.4,1.9-7.6
					c0.4-1.1,1.1-1.1,2,0.2c0.1,0.7,0.2,1.3,0.4,2c0.1,1.2,0,2.5-0.1,3.7c-0.2,2.7-0.4,5.3-0.6,8c-0.1,1.9,2.9,1.9,3,0
					c0.3-3.6,3.3-18-3.6-18c-6.6,0-5.8,13.1-6.6,17.1c1,0.1,2,0.3,2.9,0.4c0.3-4.3,0.9-8.8,0.8-13.2c0-1.9-0.7-4.3-3.2-3.7
					c-2.6,0.6-4,5.2-4.9,7.3c-1.6,3.6-2.7,7.3-2.7,11.3c0,1.9,3,1.9,3,0c0-6,0.3-12,0.8-18C2064.9,181.2,2061.9,181.2,2061.8,183.1
					L2061.8,183.1z"/>
			</g>
		</g>
		<g>
			<g>
				<path d="M2083.6,193.1c-0.2-0.8,0.1-0.7,0.9,0.3c0,0.5,0,1,0,1.5c-0.2,1.2-1,2.2-1.6,3.2c-1.2,1.8-2.4,3.5-3.7,5.3
					c-0.4,0.6-0.2,1.7,0.5,2.1c2.5,1.1,5.1,0,7.6-0.6c1.9-0.4,1.1-3.3-0.8-2.9c-1.4,0.3-4,1.5-5.3,0.9c0.2,0.7,0.4,1.4,0.5,2.1
					c2.3-3.4,9.1-10.9,4.1-14.8c-3.5-2.8-6.8,2.1-4.4,5.1C2082.7,196.7,2084.8,194.6,2083.6,193.1L2083.6,193.1z"/>
			</g>
		</g>
		<g>
			<g>
				<path d="M2091.1,198c1.5-2.2,2.7-4.3,2.9-7c-1,0-2,0-3,0C2091,193.3,2091.1,195.6,2091.1,198c0.1,0.9,0.1,1.9,0.1,2.9
					c0,0.7,0,1.3,0,2c0.1-0.7-0.2-0.8-0.9-0.5c0,1,0,2,0,3c1.7-0.2,3.5-0.3,5.2-0.2c1.9,0.1,1.9-2.9,0-3c-1.7-0.1-3.5,0-5.2,0.2
					c-1.9,0.2-1.9,3.2,0,3c2.4-0.2,3.9-0.4,3.9-3c0.1-3.8-0.2-7.6-0.2-11.4c0-1.9-2.9-1.9-3,0c-0.2,2.1-1.3,3.8-2.5,5.5
					C2087.4,198.1,2090,199.6,2091.1,198L2091.1,198z"/>
			</g>
		</g>
	</g>
	<g>
		<g>
			<g>
				<path d="M2049.9,317.6c0.3,5.8,0.4,11.7,0.2,17.6c1,0,2,0,3,0c0-2.5,0.2-4.9,0.6-7.3c0.3-1.7,0.6-5.9,2.3-6.7
					c1.4-0.7,1,0.2,1.3,1.6c0.3,1.5,0.6,3.1,0.7,4.6c0.2,2.4,0.2,4.8,0,7.2c1,0,2,0,3,0c0.1-2.6,0.2-5.2,0.2-7.9
					c0-1.2,0-2.5,0.3-3.6c0-1.6,0.7-2.2,2.2-1.7c1.6-0.5,2.3,0.1,2.4,1.8c1.3,4.4-1.2,9.7,0.4,13.8c0.3,0.8,1,1.3,1.8,1
					c0.1,0,0.2,0,0.3-0.1c0.7-0.2,1.1-0.8,1.1-1.4c0-0.1,0-0.2,0-0.2c0.1-1.9-2.9-1.9-3,0c0,0.1,0,0.2,0,0.2c0.4-0.5,0.7-1,1.1-1.4
					c-0.1,0-0.2,0-0.3,0.1c0.6,0.3,1.2,0.7,1.8,1c-0.8-2.1,0.1-5.4,0.1-7.6c0.1-2.1,0-4.2-0.6-6.3c-0.7-2.4-2.3-5.3-5.1-5.4
					c-7.4-0.2-5.8,13.3-5.9,17.5c-0.1,1.9,2.9,1.9,3,0c0.3-4.5,0-9-1-13.3c-0.5-2.1-1.2-4.4-3.8-4.3c-2.6,0.1-3.5,2.6-4.1,4.7
					c-1.3,4.4-1.9,9-1.9,13.6c0,1.9,2.9,1.9,3,0c0.2-5.9,0.1-11.7-0.2-17.6C2052.8,315.7,2049.8,315.6,2049.9,317.6L2049.9,317.6z"
					/>
			</g>
		</g>
		<g>
			<g>
				<path d="M2073.4,334.6c2.5-2.4,3.8-5.3,3.9-8.7c-1,0.1-2,0.3-2.9,0.4c0.4,2.9,0.7,5.9,0.9,8.8c0,0.3,0.4,3.2,0.1,3.5
					c-0.1,0.2-1.8,0.2-2.2,0.3c-1.5,0.6-1.4,2.8,0.4,2.9c1.9,0.1,3.9,0.3,5.8,0.4c1.9,0.1,1.9-2.9,0-3c-1.9-0.1-3.9-0.3-5.8-0.4
					c0.1,1,0.3,2,0.4,2.9c2.3-0.9,4.1-0.1,4.4-3.2c0.4-4.2-0.6-8.9-1.2-13.1c-0.2-1.7-2.9-1.2-2.9,0.4c-0.1,2.6-1.2,4.8-3.1,6.6
					C2069.9,333.8,2072,336,2073.4,334.6L2073.4,334.6z"/>
			</g>
		</g>
		<g>
			<g>
				<path d="M2082.8,328.1c0.4,0.1,0.9,0.1,1.3,0.2c0.2,0.9,0,1.6-0.5,2.2c-0.4,0.6-1,1-1.7,1.3c-1.5,0.7-0.4,3.4,1.2,2.7
					c4-1.6,3.3,5.9,0,4c-1.7-1-3.2,1.6-1.5,2.6c3.1,1.8,6.9-0.4,7.3-3.9c0.4-3.5-3.1-7-6.7-5.5c0.4,0.9,0.8,1.8,1.2,2.7
					c3.1-1.5,5.1-5.4,2.8-8.5c-1.9-2.6-5.5-1.4-6.3,1.4C2079.4,329.2,2082.3,330,2082.8,328.1L2082.8,328.1z"/>
			</g>
		</g>
	</g>
	<g>
		<g>
			<g>
				<path d="M2162.7,273.1c-0.1,6.3-0.3,12.5-0.4,18.8c1-0.1,2-0.3,2.9-0.4c-0.3-2.4-0.4-4.8,0-7.2c0.2-1.1,1.5-7,3.1-6.9
					c1.5,0.1,0.6,13,0.5,14.4c1,0,2,0,3,0c0-2.6,0-5.2,0.2-7.8c0.1-1.3,0.4-2.7,0.7-4c0.5-1.7,0.5-4,2.7-3.6
					c1.9,0.4,1.5,1.6,1.7,3.4c0.1,1.4,0.2,2.8,0.3,4.2c0.1,2.8-0.1,5.6-0.5,8.4c-0.2,1.9,2.8,1.9,3,0c0.6-5,0.7-10.1-0.1-15.1
					c-0.4-2.3-1.4-5.5-4.3-5.5c-2.9,0-4.3,3.3-5.1,5.6c-1.7,4.6-1.7,9.6-1.6,14.4c0,2,2.8,1.9,3,0c0.2-2.6,2.3-20.6-3.9-17.9
					c-6.2,2.7-6.3,13.1-5.5,18.5c0.2,1.7,2.9,1.2,2.9-0.4c0.1-6.3,0.3-12.5,0.4-18.8C2165.7,271.2,2162.7,271.2,2162.7,273.1
					L2162.7,273.1z"/>
			</g>
		</g>
		<g>
			<g>
				<path d="M2184.4,284.5c1.2-0.1,1.5,0.5,0.8,1.8c-0.5,0.7-1,1.3-1.7,1.8c-1.5,1.2-0.3,3.4,1.5,2.6c1.8-0.8,1.8,2.6,1.5,3.3
					c-0.4,1.3-2.7,3.3-3.6,0.9c-0.7-1.8-3.6-1-2.9,0.8c1.7,4.4,7.5,4,9.2-0.2c1.5-3.8-1-9.6-5.7-7.5c0.5,0.9,1,1.7,1.5,2.6
					c2.5-1.9,5.1-5.4,2.4-8.4c-2.1-2.4-5.8-0.7-6,2.2C2181.3,286.4,2184.3,286.4,2184.4,284.5L2184.4,284.5z"/>
			</g>
		</g>
		<g>
			<g>
				<path d="M2192.5,290.7c2.5-2,4.7-4.3,4.7-7.6c0-2-2.8-1.9-3,0c-0.1,1.5-0.5,13.6-2.8,13c-0.1,1-0.3,2-0.4,2.9
					c2-0.1,3.9-0.1,5.9,0.1c1.9,0.2,1.9-2.8,0-3c-2-0.2-3.9-0.3-5.9-0.1c-1.6,0.1-2.1,2.5-0.4,2.9c2.5,0.6,4.6-0.9,5.3-3.4
					c1.1-3.9,0.9-8.5,1.3-12.5c-1,0-2,0-3,0c0,2.5-2,4.1-3.8,5.5C2188.9,289.8,2191,291.9,2192.5,290.7L2192.5,290.7z"/>
			</g>
		</g>
	</g>
	<g>
		<g>
			<g>
				<path d="M2164,364.6c0.4,6,0.3,11.9-0.3,17.9c1,0,2,0,3,0c0.3-6.6,0.7-13.5,6-18.2c-0.8-0.1-1.6-0.2-2.4-0.3
					c3.2,4.9,1.1,13.7,0.6,19.3c1,0,2,0,3,0c-0.7-5.6,0.5-11.1,4.1-15.5c0.5-0.6,1-1.2,1.5-1.7c-0.1,0.8-0.2,1.6-0.3,2.4
					c-0.1,1.4,0,2.9,0,4.3c-0.1,1.2,0.5,7.2-0.4,8.1c0.6-0.1,1.2-0.2,1.8-0.2c-0.1,0-0.2-0.1-0.3-0.1c-1.8-0.8-3.3,1.8-1.5,2.6
					c0.1,0,0.2,0.1,0.3,0.1c0.6,0.3,1.3,0.3,1.8-0.2c1-0.9,0.9-1.9,1-3.2c0.2-2.8,0.3-5.6,0.4-8.4c0-2.1,0.5-8.3-2.9-8.4
					c-2.9-0.1-5.6,5.2-6.5,7.3c-1.9,4.1-2.5,8.5-2,12.9c0.2,1.9,2.8,2,3,0c0.6-6.4,2.7-15.1-1-20.8c-0.5-0.8-1.6-1-2.4-0.3
					c-5.9,5.2-6.5,13-6.8,20.4c-0.1,2,2.8,1.9,3,0c0.6-6,0.7-11.9,0.3-17.9C2166.9,362.7,2163.9,362.7,2164,364.6L2164,364.6z"/>
			</g>
		</g>
		<g>
			<g>
				<path d="M2186.5,373.2c0.5-0.4,1-0.7,1.5-1.1c-0.5-0.4-1-0.7-1.4-1.1c0.6,2,0.2,3.8-1.3,5.2c-1.2,1.2,0.3,3.2,1.8,2.4
					c0.7,0.8,0.8,1.7,0.4,2.7c-0.1,1.5-1,2.3-2.9,2.4c0.3-1.9-2.6-2.7-2.9-0.8c-0.8,5.2,5.6,5.7,7.8,1.7c1.7-3,1.5-11.6-4-8.6
					c0.6,0.8,1.2,1.6,1.8,2.4c2.2-2.2,3-5.1,2.1-8.1c-0.2-0.7-0.8-1-1.4-1.1c-2.6-0.3-4.4,1.6-4.5,4.1
					C2183.5,375.2,2186.5,375.2,2186.5,373.2L2186.5,373.2z"/>
			</g>
		</g>
		<g>
			<g>
				<path d="M2193.8,373.2c1.6,3.1-2.7,9.3-4.1,12.3c-0.6,1.2,0.4,2.5,1.7,2.2c2.2-0.4,4.4-0.8,6.6-1c1.9-0.2,1.9-3.2,0-3
					c-2.5,0.2-4.9,0.6-7.4,1.1c0.6,0.7,1.1,1.5,1.7,2.2c2-4.2,7.9-12.8,3.7-17.3c-3.3-3.5-6.3,1.8-4.7,5
					C2192.1,376.5,2194.7,374.9,2193.8,373.2L2193.8,373.2z"/>
			</g>
		</g>
	</g>
	<g>
		<g>
			<g>
				<path d="M2155.1,410.2c-0.9,6.9-1.2,13.8-0.7,20.8c1-0.1,2-0.3,2.9-0.4c-1.7-6.8,0.3-13.6,5.5-18.3c-0.8-0.1-1.6-0.2-2.4-0.3
					c1.8,2.4,1.3,6.4,1.5,9.3c0.2,3,0.4,6,0.6,9c0.1,1.9,3,1.9,3,0c-0.1-6.3,0-12.9,5.3-17.2c-0.8-0.2-1.7-0.4-2.5-0.7
					c1.3,5.9,1.8,11.9,1.7,18c0,1.9,3,1.9,3,0c0.1-6.3-0.5-12.6-1.8-18.8c-0.3-1.2-1.7-1.3-2.5-0.7c-5.9,4.8-6.3,12.3-6.2,19.3
					c1,0,2,0,3,0c-0.2-4-0.5-8-0.7-12.1c-0.2-2.7,0-5.5-1.7-7.8c-0.6-0.8-1.6-1-2.4-0.3c-6,5.4-8.3,13.4-6.3,21.2
					c0.4,1.6,3,1.3,2.9-0.4c-0.4-7-0.2-13.9,0.7-20.8C2158.4,408.3,2155.4,408.3,2155.1,410.2L2155.1,410.2z"/>
			</g>
		</g>
		<g>
			<g>
				<path d="M2177.5,423.2c-0.2-0.5-0.4-1-0.4-1.6c0.8-1,1.5-0.7,2.1,0.9c0.6,1.3,0,3.1-0.5,4.4c-1,2.2-2.7,4.2-4.1,6.2
					c-0.6,0.9,0.2,2.3,1.3,2.3c2.3-0.2,4.6-0.1,6.9,0.3c1.9,0.3,2.7-2.6,0.8-2.9c-2.6-0.4-5.1-0.6-7.7-0.4c0.4,0.8,0.9,1.5,1.3,2.3
					c2.7-3.9,7.9-10.2,3.8-14.9c-1.3-1.5-3.7-2.3-5.4-1.1c-1.8,1.2-1.6,3.6-1,5.4C2175.3,425.8,2178.2,425.1,2177.5,423.2
					L2177.5,423.2z"/>
			</g>
		</g>
		<g>
			<g>
				<path d="M2185.5,422.6c0.1-2,2.8-0.1,1.6,2c-0.4,0.8-1.3,1.4-2,2c-1.1,0.9-0.1,2.5,1.1,2.6c1.6,0,4.8,2.1,2.1,3.3
					c-0.9,0.4-2.1,0.3-3,0.1c-1.9-0.3-2.7,2.6-0.8,2.9c2.8,0.4,6.7,0.2,7.8-3.1c1.2-3.8-2.8-6.2-6-6.2c0.4,0.9,0.7,1.7,1.1,2.6
					c2.6-2.1,5.2-6,2-8.8c-1.2-1.1-2.9-1.4-4.4-0.9c-1.9,0.7-2.2,1.8-2.3,3.6C2182.4,424.5,2185.4,424.5,2185.5,422.6L2185.5,422.6z
					"/>
			</g>
		</g>
	</g>
	<g>
		<g>
			<path class="st32" d="M1936.7,541.5"/>
		</g>
		<g>
			<path class="st33" d="M1916.5,559.9"/>
		</g>
		<g>
			<g>
				<path d="M1862.3,527.8c-0.5,6-1,12-1.5,18c-0.2,1.9,2.8,1.9,3,0c0.5-6,1-12,1.5-18C1865.5,525.9,1862.5,525.9,1862.3,527.8
					L1862.3,527.8z"/>
			</g>
		</g>
		<g>
			<g>
				<path d="M1857.2,538.4c3.9,0,7.8,0,11.6,0c1.9,0,1.9-3,0-3c-3.9,0-7.8,0-11.6,0C1855.3,535.4,1855.3,538.4,1857.2,538.4
					L1857.2,538.4z"/>
			</g>
		</g>
		<g>
			<g>
				<path d="M1879.1,530.1c0.3,0.6,0.6,0.9,1.1,1.2c1.1,0.8,2.5-0.5,2.2-1.7c-1.1-4.7-7.2-4.9-8.9-0.6c-0.6,1.6-0.5,3.6,0.6,4.9
					c1.5,1.6,3.6,2.2,4.9,4.1c0.6,0.9,1,2.1,1,3.1c-0.2,3.5-4.9,4-5.9,0.6c-0.8,0.5-1.7,1-2.5,1.5c0.1,0.1,0.1,0.1,0.2,0.2
					c1.2,1.5,3.3-0.6,2.1-2.1c-0.1-0.1-0.1-0.1-0.2-0.2c-1-1.2-2.9,0.1-2.5,1.5c1.4,4.9,7.8,6.7,10.8,2.1c1.3-2,1.2-4.8,0.3-6.9
					c-0.6-1.4-1.6-2.6-2.8-3.6c-0.5-0.5-1.1-0.8-1.7-1.3c-0.3-0.2-0.6-0.4-1-0.6c-1.3-2.9-0.4-3.5,2.6-1.9c0.7-0.6,1.5-1.1,2.2-1.7
					c0-0.1,0-0.1-0.1-0.2C1880.9,526.8,1878.3,528.4,1879.1,530.1L1879.1,530.1z"/>
			</g>
		</g>
		<g>
			<g>
				<path d="M1886,540.4c4.2-1.1,10.2-5.1,9-10.3c-1-4-6.4-5.2-9-2.1c-3,3.5-2.5,10.9-0.9,14.8c1.6,4,6.5,6.4,10,3
					c1.4-1.3-0.7-3.5-2.1-2.1c-2.8,2.7-5.2-1.7-5.6-4c-0.4-2.2-0.4-4.7-0.1-6.9c0.1-0.9,0.4-2.4,1.1-3c2.7-2.3,4.1,1.4,3.1,3.4
					c-1.1,2.3-4,3.6-6.3,4.3C1883.3,538,1884.1,540.9,1886,540.4L1886,540.4z"/>
			</g>
		</g>
		<g>
			<g>
				<path d="M1899.8,514.5c-0.8,10.6-1.3,21.2-1.6,31.9c0,1.9,3,1.9,3,0c0.2-10.6,0.7-21.2,1.6-31.9
					C1902.9,512.6,1899.9,512.6,1899.8,514.5L1899.8,514.5z"/>
			</g>
		</g>
		<g>
			<g>
				<path d="M1906.3,539.9c5.3,0.9,8.1-3.7,8.6-8.4c0.5-5-3.4-7.1-7.4-4c-3.7,3-5.5,8.1-4.6,12.8c0.8,4.2,4.5,9.1,9.3,7.3
					c1.8-0.7,1-3.6-0.8-2.9c-5.7,2.1-6.2-7.6-5-10.6c0.5-1.4,2-4.5,3.6-4.7c1.7-0.3,2,1.7,1.8,2.8c-0.4,2.1-1.4,5.4-4.6,4.8
					C1905.2,536.6,1904.4,539.5,1906.3,539.9L1906.3,539.9z"/>
			</g>
		</g>
		<g>
			<g>
				<path d="M1926.7,530.9c0.7-3.2-1.8-5.9-5.1-5.1c-3.9,0.9-5.4,5.9-5.9,9.4c-0.6,3.8-0.7,9.8,3.2,12c3.1,1.8,6.7,0.3,8.2-2.8
					c0.3-0.6,0.2-1.3-0.2-1.8c-0.5-0.6-1-0.8-1.8-0.7c-1.9,0.2-1.9,3.2,0,3c-0.1-0.1-0.2-0.1-0.4-0.2c-0.1-0.6-0.2-1.2-0.2-1.8
					c-1.3,2.5-4.6,2.2-5.7-0.5c-0.5-1.3-0.5-3.2-0.5-4.6c0-1.6,0.3-3.3,0.8-4.8c0.2-0.6,0.4-1.2,0.7-1.8c0.5-1.5,1.8-1.9,3.9-1.1
					C1923.4,532,1926.3,532.8,1926.7,530.9L1926.7,530.9z"/>
			</g>
		</g>
		<g>
			<g>
				<path d="M1934.2,515.1c-1.1,5.1-2.1,10.2-2.8,15.4c-0.5,3.8-1.5,8-1,11.8c0.6,4.4,4.9,7.8,8.8,4.5c1.5-1.3-0.7-3.4-2.1-2.1
					c-3-1.4-4.2-3.4-3.7-6c0.1-0.6,0.1-1.3,0.2-1.9c0.3-2.8,0.7-5.6,1.1-8.3c0.7-4.2,1.5-8.3,2.4-12.5
					C1937.5,514,1934.7,513.2,1934.2,515.1L1934.2,515.1z"/>
			</g>
		</g>
		<g>
			<g>
				<path d="M1928.5,531c3.1-0.4,6.3-0.4,9.4-0.1c1.9,0.2,1.9-2.8,0-3c-3.1-0.3-6.3-0.3-9.4,0.1
					C1926.6,528.2,1926.5,531.2,1928.5,531L1928.5,531z"/>
			</g>
		</g>
		<g>
			<g>
				<path d="M1941.6,529.1c-0.1,3.2-0.2,6.4-0.4,9.6c-0.1,2.5-0.7,5.6-0.1,8c0.2,0.7,0.8,1,1.4,1.1c1.2,0.1,2.2-0.3,3.4-0.5
					c1.9-0.4,1.1-3.3-0.8-2.9c-0.8,0.2-1.7,0.4-2.6,0.4c0.5,0.4,1,0.7,1.4,1.1c-0.6-2.4,0.1-6,0.2-8.5c0.1-2.8,0.2-5.6,0.3-8.3
					C1944.7,527.2,1941.7,527.2,1941.6,529.1L1941.6,529.1z"/>
			</g>
		</g>
		<g>
			<g>
				<path d="M1944.1,523.7c0.2-0.1,0.5-0.3,0.7-0.4c0.7-0.4,0.9-1.4,0.5-2.1c-0.4-0.7-1.3-0.9-2.1-0.5c-0.2,0.1-0.5,0.3-0.7,0.4
					c-0.7,0.4-0.9,1.4-0.5,2.1C1942.5,523.9,1943.4,524.1,1944.1,523.7L1944.1,523.7z"/>
			</g>
		</g>
		<g>
			<g>
				<path d="M1950,531.8c-1,4.1-3.4,12.3,0.8,15.4c3.7,2.7,7.9-0.7,9.2-4.2c1.6-4.2,2.8-11.7-0.7-15.3c-3.8-4-8-0.4-10,3.3
					c-0.9,1.7,1.6,3.2,2.6,1.5c0.5-0.9,1.5-2.9,2.5-3.3c3.7-1.4,3.9,3.4,4,5.1c0,2.4-0.3,5-1.1,7.3c-0.6,1.6-2.2,4.2-4.3,3.3
					c-1.4-0.6-1.4-2.6-1.4-3.8c0-2.9,0.6-5.8,1.3-8.6C1953.3,530.8,1950.4,530,1950,531.8L1950,531.8z"/>
			</g>
		</g>
		<g>
			<g>
				<path d="M1965.7,526c0-0.1-0.1-0.1-0.1-0.2c-0.2,0.7-0.4,1.4-0.5,2.1c0.1,0,0.1-0.1,0.2-0.1c-0.7-0.2-1.4-0.4-2.1-0.5
					c1,2.2,0,7.2-0.1,9.4c-0.1,3.2-0.4,6.5-0.8,9.7c-0.2,1.7,2.6,2,2.9,0.4c0.9-4.2-0.3-15.4,4.5-17.4c2.2-0.9,1.9,0.5,1.7,2.4
					c-0.2,1.5-0.4,3-0.5,4.6c-0.4,3.3-0.8,6.6-1.2,9.9c-0.2,1.7,2.5,1.9,2.9,0.4c0.1-0.3,0.2-0.5,0.3-0.8c0.6-1.8-2.3-2.6-2.9-0.8
					c-0.1,0.3-0.2,0.5-0.3,0.8c1,0.1,2,0.3,2.9,0.4c0.7-5.4,2-11.2,2-16.7c0-2.4-0.9-4.4-3.7-4.1c-8.6,1.1-7.5,14.9-8.6,20.6
					c1,0.1,2,0.3,2.9,0.4c0.4-4,0.8-7.9,0.9-11.9c0.1-2.7,0.7-6.2-0.4-8.7c-0.3-0.7-1.4-0.9-2.1-0.5c-0.1,0-0.1,0.1-0.2,0.1
					c-0.7,0.5-0.9,1.3-0.5,2.1c0,0.1,0.1,0.1,0.1,0.2C1963.9,529.3,1966.5,527.8,1965.7,526L1965.7,526z"/>
			</g>
		</g>
		<g>
			<g>
				<path d="M1979,528.8c-0.7,0.5-1.2,1.1-1.4,2c-0.2,0.8,0.3,1.6,1,1.8c0.6,0.2,1.3,0.2,1.9,0c0.7-0.2,1-0.8,1.1-1.4
					c0.1-1.2-1.1-2.3-2.3-2.2c-0.8,0-1.5,0.5-1.8,1.3c-0.2,0.7-0.2,1.6,0.3,2.2c0.8,1,2.4,0.8,3.3,0c0.9-0.8,1-2,0.5-3
					c-0.3-0.6-1.1-0.8-1.7-0.7c-1,0.3-1.6,1.1-1.7,2.2c-0.1,0.8,0.7,1.5,1.5,1.5c0.9,0,1.4-0.7,1.5-1.5c0,0.2-0.2,0.6-0.5,0.7
					c-0.6-0.2-1.1-0.5-1.7-0.7c-0.1-0.2-0.1-0.3-0.1-0.5c0.1-0.2,0.1-0.2,0-0.1c0.1-0.1,0.1-0.2,0.1-0.1c-0.1,0.1,0,0.1,0.1-0.1
					c-0.1,0.1-0.1,0.1,0,0c0.2-0.1,0.4,0,0.6,0.1c0.2,0.3,0.5,0.6,0.7,0.9c-0.1-0.3-0.1,0.1,0-0.2c-0.2,0.3-0.5,0.6-0.7,0.9
					c-0.4,0.3-1.2-0.1-1.2-0.7c0.4-0.5,0.7-1,1.1-1.4c-0.2,0.1,0,0-0.1,0c-0.2,0,0.3,0.1-0.1,0c0.3,0.6,0.7,1.2,1,1.8
					c0-0.2,0.1-0.2,0-0.1c0,0.1,0,0.1,0.1-0.1c-0.2,0.2,0.2-0.2,0,0c0.6-0.5,1-1.3,0.5-2.1C1980.7,528.7,1979.6,528.3,1979,528.8
					L1979,528.8z"/>
			</g>
		</g>
		<g>
			<g>
				<path d="M1977.8,543.8c1.4,0.9,3.4-0.3,3.4-2c0-0.9-0.6-1.7-1.5-2c-0.7-0.2-1.6,0-2.2,0.4c-0.7,0.5-1.2,1.3-1.2,2.1
					c0,1,1,1.7,2,1.8c1.5,0.1,2.8-1.4,2.4-2.9c-0.2-0.8-1.1-1.2-1.8-1c-1.1,0.2-1.7,1.2-1.7,2.2c-0.1,0.8,0.7,1.5,1.5,1.5
					c0.9,0,1.4-0.7,1.5-1.5c0,0.2-0.2,0.7-0.5,0.7c-0.6-0.3-1.2-0.7-1.8-1c-0.1-0.2,0-0.4,0.1-0.6c0.1-0.1,0.2-0.2,0.3-0.3
					c-0.1,0.1-0.1,0.1,0,0c0.1,0,0.1,0,0,0c0.1,0,0.2,0,0.3,0c0.1,0,0.2,0,0.3,0.1c0.2,0.2,0.2,0.2,0.1,0c0.1,0.5,0.3,1,0.4,1.5
					c0-0.2,0.1-0.3,0-0.1c-0.1,0.1-0.1,0.1,0,0c-0.1,0.1-0.2,0.1-0.1,0c0.1-0.1,0.1,0-0.1,0c0.1,0,0.2,0,0,0c-0.1,0-0.1,0,0,0
					c-0.2,0-0.2,0,0,0c-0.2-0.1-0.4-0.3-0.7-0.4c-0.2-0.3-0.3-0.6-0.2-1c0.1-0.1,0.1-0.1,0,0c-0.1,0.1,0,0.1,0.1-0.1
					c0.1-0.1,0.2-0.1,0.1-0.1c0.2-0.1,0.6-0.2,0.9,0c-0.7-0.4-1.7-0.1-2.1,0.5C1976.8,542.5,1977.1,543.4,1977.8,543.8L1977.8,543.8
					z"/>
			</g>
		</g>
	</g>
	<g>
		<g>
			<path d="M2027.3,531.5c0-0.7-0.1-1.4-0.1-2.1c0-0.5-0.3-1.1-0.7-1.3c-2.7-1.3-5.8-2.7-8.8-1.6c-2.1,0.8-3.9,2.9-3.8,5.2
				c0.1,2.3,1.9,3.7,3.8,4.6c1.8,0.8,4.8,1.3,5.6,3.3c0.9,2.1-1.2,4.1-3.5,4.3c-1.6,0.1-3.3-0.5-4.8-0.9c0.2,0.8,0.4,1.7,0.7,2.5
				c0.3-0.4,0.7-0.8,1-1.2c1.2-1.5-0.9-3.6-2.1-2.1c-0.3,0.4-0.7,0.8-1,1.2c-0.7,0.8-0.5,2.2,0.7,2.5c4.4,1.2,13.3,1.6,12.7-5.5
				c-0.2-2.4-2.1-4.2-4.1-5.3c-1.2-0.7-2.9-0.9-4-1.7c-2.3-1.6-0.8-4.3,1.6-4.3c1.6,0,3.3,0.9,4.7,1.6c-0.2-0.4-0.5-0.9-0.7-1.3
				c0,0.7,0.1,1.4,0.1,2.1C2024.4,533.4,2027.4,533.4,2027.3,531.5L2027.3,531.5z"/>
		</g>
	</g>
	<g>
		<g>
			<path d="M2032.7,542.8c2.5-2.5,3.4-5.5,2.8-9c-0.3-1.7-3-1.3-2.9,0.4c0.1,5,0.1,10-0.1,15c0.5-0.5,1-1,1.5-1.5
				c-1.1-0.1-2.1-0.1-3.2-0.2c0.1,1,0.3,2,0.4,2.9c1.6-0.4,3-0.4,4.6-0.3c1.9,0.2,1.9-2.8,0-3c-1.9-0.2-3.6-0.1-5.4,0.4
				c-1.7,0.4-1.2,2.9,0.4,2.9c1.1,0.1,2.1,0.1,3.2,0.2c0.8,0,1.5-0.7,1.5-1.5c0.2-5,0.2-10,0.1-15c-1,0.1-2,0.3-2.9,0.4
				c0.4,2.3-0.4,4.4-2,6.1C2029.2,542,2031.3,544.2,2032.7,542.8L2032.7,542.8z"/>
		</g>
	</g>
	<g>
		<g>
			<path d="M2128.3,529.5c-3.5-4.3-12.8-5.2-14.5,1.5c-0.7,2.8,1.2,4.6,3.8,5.2c1.8,0.4,4.8,0.5,5.4,2.7c1.3,4.6-5.8,4.3-8.2,4
				c-1.9-0.3-2.7,2.6-0.8,2.9c3.2,0.5,6.8,0.8,9.5-1.4c2.1-1.7,3.2-4.4,2.1-7c-1.1-2.5-3.9-3.5-6.4-4c-1.2-0.2-2.9,0-2.2-2.4
				c0.3-1.1,2.1-1.7,3-1.8c2.4-0.4,4.6,0.6,6.2,2.4C2127.4,533.1,2129.5,530.9,2128.3,529.5L2128.3,529.5z"/>
		</g>
	</g>
	<g>
		<g>
			<path d="M2129.8,537.6c0.4-0.7,1-0.6,1.7,0.4c0.2,0.8,0.1,1.6-0.3,2.3c-0.5,1.1-1.5,2-2.3,2.8c-1.3,1.4-2.4,2.8-3,4.7
				c-0.3,0.9,0.5,1.9,1.4,1.9c2.3-0.1,4.5,0.1,6.8,0.6c1.9,0.4,2.7-2.5,0.8-2.9c-2.5-0.6-5-0.8-7.6-0.7c0.5,0.6,1,1.3,1.4,1.9
				c1.4-4.2,8.4-7.5,5-12.7c-2-3.1-6.7-1.9-7,1.6C2126.6,539.5,2129.6,539.5,2129.8,537.6L2129.8,537.6z"/>
		</g>
	</g>
	<g>
		<g>
			<path d="M2232.5,530.4c-2.1-3.1-5.8-5.3-9.6-3.9c-3.3,1.2-4.9,4.6-4.3,7.9c0.1,0.6,0.8,1.1,1.4,1.1c3.1,0.1,7.6,1.1,7.5,5.1
				c-0.2,4.4-5.4,3.3-8.3,2.6c-1.9-0.4-2.7,2.4-0.8,2.9c4.5,1.1,11.6,1.3,12.1-4.9c0.5-6-5.5-8.6-10.5-8.7c0.5,0.4,1,0.7,1.4,1.1
				c-0.4-2.2,1.2-4.4,3.5-4.6c2.1-0.2,3.8,1.2,4.9,2.8C2230.9,533.6,2233.5,532.1,2232.5,530.4L2232.5,530.4z"/>
		</g>
	</g>
	<g>
		<g>
			<path d="M2235.7,536.9c2.3-1.2,2.7-0.9,1.4,0.8c-0.1,1.1-0.6,1.6-1.5,1.5c-1.6,0.2-1.2,2.4,0,2.9c2.1,0.8,3.3,3.5,1.8,5.5
				c-1.2,1.5-3.7,1.8-4.6-0.2c-0.8-1.8-3.3-0.2-2.6,1.5c1.7,4,7.2,3.8,9.6,0.6c2.8-3.8,0.8-8.6-3.4-10.2c0,1,0,1.9,0,2.9
				c3.8-0.5,6.4-4.9,3.5-8.1c-2.7-3-6.9-0.7-7.1,2.9C2232.6,538.8,2235.6,538.8,2235.7,536.9L2235.7,536.9z"/>
		</g>
	</g>
	<g>
		<g>
			<path d="M85.4,26.3c0.4,111.8,1.3,223.5,2,335.3c0.8,110.4-0.5,220.8-0.2,331.2c0.2,62.8,0.7,125.6,1.4,188.3c0,1.9,3,1.9,3,0
				c-1.3-111.5-1.7-223-1.4-334.5c0.3-109.7,0.3-219.5-0.4-329.2C89.5,153.7,88.7,90,88.4,26.3C88.4,24.3,85.4,24.3,85.4,26.3
				L85.4,26.3z"/>
		</g>
	</g>
	<g>
		<g>
			<g>
				<path d="M45.2,8.1c-2.7,9.5-4.8,20-4.6,30c0.2,7,7,6.1,12.3,4.4c1.8-0.6,1-3.5-0.8-2.9c-3.7,1.2-7.5,2.1-8.5-2.5
					c-0.6-2.6,0.4-6.8,0.7-9.5c0.7-6.4,2-12.6,3.8-18.8C48.6,7.1,45.7,6.3,45.2,8.1L45.2,8.1z"/>
			</g>
		</g>
		<g>
			<g>
				<path d="M34.9,26.7c5.7-1.5,11.5-1.7,17.3-0.5c1.9,0.4,2.7-2.5,0.8-2.9c-6.3-1.3-12.6-1.1-18.9,0.5C32.2,24.3,33,27.2,34.9,26.7
					L34.9,26.7z"/>
			</g>
		</g>
		<g>
			<g>
				<path d="M57.7,33.1c-3,3.1-3.2,9.2-0.3,12.6c3.4,3.9,8.7,1.4,10.5-2.7c1.8-4.1,0.8-10.6-3.2-13.2c-4.7-3-9.2,1.7-10.3,6
					c-0.5,1.9,2.4,2.7,2.9,0.8c0.7-2.6,3.3-6.4,6.2-3.9c2.2,1.9,2.7,5.8,1.9,8.4c-0.8,2.8-4.3,5.3-6.2,1.9c-1.3-2.2-1.1-5.9,0.7-7.7
					C61.1,33.8,59,31.7,57.7,33.1L57.7,33.1z"/>
			</g>
		</g>
	</g>
	<g>
		<g>
			<path d="M85.9,26.4c-2.3,0-4.5,0-6.8,0c-1.9,0-1.9,3,0,3c2.3,0,4.5,0,6.8,0C87.9,29.4,87.9,26.4,85.9,26.4L85.9,26.4z"/>
		</g>
	</g>
	<g>
		<g>
			<path d="M88.9,529.6c-2.9,0-5.8,0-8.7,0c-1.9,0-1.9,3,0,3c2.9,0,5.8,0,8.7,0C90.8,532.6,90.8,529.6,88.9,529.6L88.9,529.6z"/>
		</g>
	</g>
	<g>
		<g>
			<path d="M88.9,369.6c-2.9,0-5.8,0-8.7,0c-1.9,0-1.9,3,0,3c2.9,0,5.8,0,8.7,0C90.8,372.6,90.8,369.6,88.9,369.6L88.9,369.6z"/>
		</g>
	</g>
	<g>
		<g>
			<path d="M88.9,477.6c-2.9,0-5.8,0-8.7,0c-1.9,0-1.9,3,0,3c2.9,0,5.8,0,8.7,0C90.8,480.6,90.8,477.6,88.9,477.6L88.9,477.6z"/>
		</g>
	</g>
	<g>
		<g>
			<path d="M88.9,879.6c-2.9,0-5.8,0-8.7,0c-1.9,0-1.9,3,0,3c2.9,0,5.8,0,8.7,0C90.8,882.6,90.8,879.6,88.9,879.6L88.9,879.6z"/>
		</g>
	</g>
	<g>
		<g>
			<g>
				<path d="M45.6,857.2c-2.7,9.5-4.8,20-4.6,30c0.2,7,7,6.1,12.3,4.4c1.8-0.6,1-3.5-0.8-2.9c-3.7,1.2-7.5,2.1-8.5-2.5
					c-0.6-2.6,0.4-6.8,0.7-9.5c0.7-6.4,2-12.6,3.8-18.8C49,856.2,46.1,855.4,45.6,857.2L45.6,857.2z"/>
			</g>
		</g>
		<g>
			<g>
				<path d="M35.3,875.8c5.7-1.5,11.5-1.7,17.3-0.5c1.9,0.4,2.7-2.5,0.8-2.9c-6.3-1.3-12.6-1.1-18.9,0.5
					C32.6,873.4,33.4,876.3,35.3,875.8L35.3,875.8z"/>
			</g>
		</g>
		<g>
			<g>
				<path d="M57.4,878.4c-0.3,6.4-0.5,12.8-0.8,19.1c-0.1,1.9,2.9,1.9,3,0c0.3-6.4,0.5-12.8,0.8-19.1
					C60.5,876.4,57.5,876.4,57.4,878.4L57.4,878.4z"/>
			</g>
		</g>
		<g>
			<g>
				<path d="M71.7,877.3c-4.5,2.9-8.8,6.1-12.8,9.6c-0.7,0.6-0.5,1.9,0.3,2.4c1.3,0.7,14,6.9,13.5,8.2c-0.7,1.8,2.2,2.6,2.9,0.8
					c1-2.5-1.5-3.9-3.3-5.1c-3.7-2.4-7.6-4.5-11.5-6.6c0.1,0.8,0.2,1.6,0.3,2.4c3.8-3.4,7.9-6.4,12.2-9.1
					C74.9,878.8,73.4,876.2,71.7,877.3L71.7,877.3z"/>
			</g>
		</g>
	</g>
	<g>
		<g>
			<path d="M88.9,729.6c-2.9,0-5.8,0-8.7,0c-1.9,0-1.9,3,0,3c2.9,0,5.8,0,8.7,0C90.8,732.6,90.8,729.6,88.9,729.6L88.9,729.6z"/>
		</g>
	</g>
	<g>
		<g>
			<g>
				<path d="M23.6,707.2c-2.7,9.5-4.8,20-4.6,30c0.2,7,7,6.1,12.3,4.4c1.8-0.6,1-3.5-0.8-2.9c-3.7,1.2-7.5,2.1-8.5-2.5
					c-0.6-2.6,0.4-6.8,0.7-9.5c0.7-6.4,2-12.6,3.8-18.8C27,706.2,24.1,705.4,23.6,707.2L23.6,707.2z"/>
			</g>
		</g>
		<g>
			<g>
				<path d="M13.3,725.8c5.7-1.5,11.5-1.7,17.3-0.5c1.9,0.4,2.7-2.5,0.8-2.9c-6.3-1.3-12.6-1.1-18.9,0.5
					C10.6,723.4,11.4,726.3,13.3,725.8L13.3,725.8z"/>
			</g>
		</g>
		<g>
			<g>
				<path d="M35.4,728.4c-0.3,6.4-0.5,12.8-0.8,19.1c-0.1,1.9,2.9,1.9,3,0c0.3-6.4,0.5-12.8,0.8-19.1
					C38.5,726.4,35.5,726.4,35.4,728.4L35.4,728.4z"/>
			</g>
		</g>
		<g>
			<g>
				<path d="M49.7,727.3c-4.5,2.9-8.8,6.1-12.8,9.6c-0.7,0.6-0.5,1.9,0.3,2.4c1.3,0.7,14,6.9,13.5,8.2c-0.7,1.8,2.2,2.6,2.9,0.8
					c1-2.5-1.5-3.9-3.3-5.1c-3.7-2.4-7.6-4.5-11.5-6.6c0.1,0.8,0.2,1.6,0.3,2.4c3.8-3.4,7.9-6.4,12.2-9.1
					C52.9,728.8,51.4,726.2,49.7,727.3L49.7,727.3z"/>
			</g>
		</g>
		<g>
			<g>
				<path d="M52.8,737.2c2.6,0,5.2,0,7.9,0c1.9,0,1.9-3,0-3c-2.6,0-5.2,0-7.9,0C50.9,734.2,50.9,737.2,52.8,737.2L52.8,737.2z"/>
			</g>
		</g>
		<g>
			<g>
				<path d="M65.7,739.2c2.2-0.9,4-2.3,5.5-4.2c0.7-0.9,1.3-2,1.7-3.1c0.4-1.1,0.4-3.5,1.5-4.2c-0.7-0.6-1.5-1.1-2.2-1.7
					c-2.1,6.2-3,12.6-2.9,19.2c0.5-0.5,1-1,1.5-1.5c-1.1,0-2.1,0.1-3.2,0.1c-1.9,0.1-1.9,3,0,3c2.2,0,4.5,0,6.7,0c1.9,0,1.9-3,0-3
					c-0.8,0-1.6,0-2.4,0c-1.9,0-1.9,3,0,3c0.8,0,1.6,0,2.4,0c0-1,0-2,0-3c-2.2,0-4.5,0-6.7,0c0,1,0,2,0,3c1.1,0,2.1-0.1,3.2-0.1
					c0.8,0,1.5-0.7,1.5-1.5c-0.1-6.3,0.8-12.4,2.8-18.4c0.4-1.2-1.1-2.4-2.2-1.7c-1.8,1.1-1.9,2.5-2.4,4.5c-1,3.4-3,5.6-6.2,7
					C62.4,737.4,64,739.9,65.7,739.2L65.7,739.2z"/>
			</g>
		</g>
	</g>
	<g>
		<path class="st34" d="M204.6,489.7"/>
	</g>
	<g>
		<g>
			<path d="M139,5.3c1.5,8.1,4.9,16,7.6,23.8c2.8,8.1,5.6,16.2,8.3,24.2c0.5,1.5,3.1,1.4,2.9-0.4c-0.1-0.8-0.1-1.5-0.2-2.3
				c-0.1-1.9-3.1-1.9-3,0c0.1,0.8,0.1,1.5,0.2,2.3c1-0.1,2-0.3,2.9-0.4c-2.8-8.1-5.6-16.2-8.3-24.2c-2.7-7.8-6.1-15.7-7.6-23.8
				C141.5,2.6,138.6,3.4,139,5.3L139,5.3z"/>
		</g>
	</g>
	<g>
		<g>
			<path d="M160.1,3.7c-2.9,3-4.2,7.1-5.8,10.9c-2.1,4.8-4.2,9.6-6.3,14.4s-4.2,9.6-6.2,14.4c-1.4,3.1-4.1,7.1-4.1,10.6
				c0,1.3,1.3,1.7,2.3,1.3c0.1,0,0.2-0.1,0.3-0.1c0.6-0.2,0.9-1.1,0.7-1.7c0-0.1,0-0.1-0.1-0.2c-0.6-1.8-3.5-1-2.9,0.8
				c0,0.1,0,0.1,0.1,0.2c0.2-0.6,0.5-1.1,0.7-1.7c-0.1,0-0.2,0.1-0.3,0.1c0.8,0.4,1.5,0.9,2.3,1.3c0-2.2,2-5.2,2.9-7.2
				c0.8-1.8,1.6-3.6,2.3-5.4c1.7-3.9,3.4-7.8,5.1-11.7c1.7-3.9,3.4-7.8,5.1-11.7c1.7-4,3.1-8.9,6.1-12.1
				C163.6,4.4,161.5,2.3,160.1,3.7L160.1,3.7z"/>
		</g>
	</g>
	<g>
		<g>
			<path d="M169.9,4c-4.4,9.1-6.4,19-5.6,29.1c0.4,5,1.3,10,2.5,14.9c0.7,2.8,1.3,5.9,4.2,7.1c0.5,0.2,1.1-0.1,1.5-0.4
				c0.2-0.1,0.3-0.3,0.5-0.4c1.5-1.2-0.6-3.3-2.1-2.1c0.5-0.4-2.3-10-2.5-11.2c-0.7-4.1-1.2-8.2-1.2-12.4c0-8,1.9-15.8,5.4-22.9
				C173.3,3.8,170.7,2.3,169.9,4L169.9,4z"/>
		</g>
	</g>
	<g>
		<g>
			<path d="M212,5.7c2.7,16.5,3.7,32.8-2.5,48.7c-0.7,1.8,2.2,2.6,2.9,0.8c6.4-16.4,5.3-33.2,2.5-50.3C214.6,3,211.7,3.9,212,5.7
				L212,5.7z"/>
		</g>
	</g>
	<g>
		<g>
			<g>
				<path d="M183.3,5.8c-2.5,11.8-4,23.9-4.5,36c-0.1,2.9-1.1,7.9,1.8,10c2.9,2.1,7.9,0.4,10.8-0.8c1.8-0.8,0.2-3.3-1.5-2.6
					c-2.5,1.1-6.9,2.5-8.2-1.2c-0.4-1.2,0.1-4.1,0.1-5.4c0.1-3.8,0.4-7.7,0.7-11.5c0.7-8,2-15.9,3.6-23.7
					C186.5,4.7,183.7,3.9,183.3,5.8L183.3,5.8z"/>
			</g>
		</g>
		<g>
			<g>
				<path d="M173,29.9c5.7-2,11.4-2.3,17.3-0.7c1.9,0.5,2.7-2.4,0.8-2.9c-6.3-1.7-12.7-1.5-18.9,0.7C170.3,27.7,171.1,30.6,173,29.9
					L173,29.9z"/>
			</g>
		</g>
		<g>
			<g>
				<path d="M195.5,39.6c-3,4.1-3,11.8,0,15.9c3.4,4.7,8.4,1.3,10.1-2.9c2.1-5,1.7-14.4-3.2-17.9c-5.3-3.7-9.2,3.7-10,7.9
					c-0.4,1.9,2.5,2.7,2.9,0.8c0.6-3.1,3.8-9.9,6.9-4.4c1.8,3.3,2.1,8.2,1,11.8c-0.4,1.4-1.8,4.2-3.6,4.1c-1.8-0.1-2.5-2.9-2.8-4.3
					c-0.7-3.1-0.5-6.9,1.3-9.5C199.2,39.5,196.6,38,195.5,39.6L195.5,39.6z"/>
			</g>
		</g>
	</g>
	<g>
		<g>
			<path d="M139,342.3c1.5,8.1,4.9,16,7.6,23.8c2.8,8.1,5.6,16.2,8.3,24.2c0.5,1.5,3.1,1.4,2.9-0.4c-0.1-0.8-0.1-1.5-0.2-2.3
				c-0.1-1.9-3.1-1.9-3,0c0.1,0.8,0.1,1.5,0.2,2.3c1-0.1,2-0.3,2.9-0.4c-2.8-8.1-5.6-16.2-8.3-24.2c-2.7-7.8-6.1-15.7-7.6-23.8
				C141.5,339.6,138.6,340.4,139,342.3L139,342.3z"/>
		</g>
	</g>
	<g>
		<g>
			<path d="M160.1,340.7c-2.9,3-4.2,7.1-5.8,10.9c-2.1,4.8-4.2,9.6-6.3,14.4s-4.2,9.6-6.2,14.4c-1.4,3.1-4.1,7.1-4.1,10.6
				c0,1.3,1.3,1.7,2.3,1.3c0.1,0,0.2-0.1,0.3-0.1c0.6-0.2,0.9-1.1,0.7-1.7c0-0.1,0-0.1-0.1-0.2c-0.6-1.8-3.5-1-2.9,0.8
				c0,0.1,0,0.1,0.1,0.2c0.2-0.6,0.5-1.1,0.7-1.7c-0.1,0-0.2,0.1-0.3,0.1c0.8,0.4,1.5,0.9,2.3,1.3c0-2.2,2-5.2,2.9-7.2
				c0.8-1.8,1.6-3.6,2.3-5.4c1.7-3.9,3.4-7.8,5.1-11.7c1.7-3.9,3.4-7.8,5.1-11.7c1.7-4,3.1-8.9,6.1-12.1
				C163.6,341.4,161.5,339.3,160.1,340.7L160.1,340.7z"/>
		</g>
	</g>
	<g>
		<g>
			<path d="M169.9,341c-4.4,9.1-6.4,19-5.6,29.1c0.4,5,1.3,10,2.5,14.9c0.7,2.8,1.3,5.9,4.2,7.1c0.5,0.2,1.1-0.1,1.5-0.4
				c0.2-0.1,0.3-0.3,0.5-0.4c1.5-1.2-0.6-3.3-2.1-2.1c0.5-0.4-2.3-10-2.5-11.2c-0.7-4.1-1.2-8.2-1.2-12.4c0-8,1.9-15.8,5.4-22.9
				C173.3,340.8,170.7,339.3,169.9,341L169.9,341z"/>
		</g>
	</g>
	<g>
		<g>
			<path d="M212,342.7c2.7,16.5,3.7,32.8-2.5,48.7c-0.7,1.8,2.2,2.6,2.9,0.8c6.4-16.4,5.3-33.2,2.5-50.3
				C214.6,340,211.7,340.9,212,342.7L212,342.7z"/>
		</g>
	</g>
	<g>
		<g>
			<g>
				<path d="M184.4,343.3c-2.5,12-4,24.2-4.5,36.5c-0.1,3-1.1,8.1,1.8,10.1c2.9,2.1,7.9,0.4,10.8-0.9c1.8-0.8,0.2-3.3-1.5-2.6
					c-2.6,1.1-6.9,2.5-8.2-1.2c-0.4-1.2,0.1-4.2,0.1-5.4c0.1-3.9,0.4-7.8,0.7-11.7c0.7-8.1,2-16.1,3.6-24
					C187.7,342.3,184.8,341.5,184.4,343.3L184.4,343.3z"/>
			</g>
		</g>
		<g>
			<g>
				<path d="M174.1,367.8c5.7-2.1,11.4-2.3,17.3-0.7c1.9,0.5,2.7-2.4,0.8-2.9c-6.3-1.8-12.7-1.5-18.9,0.7
					C171.5,365.6,172.2,368.5,174.1,367.8L174.1,367.8z"/>
			</g>
		</g>
		<g>
			<g>
				<path d="M195,373.4c0.5,7,0.8,14,0.8,21c0,1.9,3,1.9,3,0c0-7-0.2-14-0.8-21C197.9,371.5,194.9,371.4,195,373.4L195,373.4z"/>
			</g>
		</g>
		<g>
			<g>
				<path d="M204.8,380.8c-1.5,2.5-3.6,4.2-6.4,5.2c-1,0.3-1.3,1.3-0.9,2.2c1.6,3.4,6.3,5,6.9,8.8c0.3,1.9,3.2,1.1,2.9-0.8
					c-0.7-4.4-5.4-5.8-7.2-9.5c-0.3,0.7-0.6,1.5-0.9,2.2c3.5-1.2,6.2-3.4,8.2-6.6C208.4,380.7,205.8,379.2,204.8,380.8L204.8,380.8z
					"/>
			</g>
		</g>
	</g>
	<g>
		<g>
			<path d="M104,455.3c1.5,8.1,4.9,16,7.6,23.8c2.8,8.1,5.6,16.2,8.3,24.2c0.5,1.5,3.1,1.4,2.9-0.4c-0.1-0.8-0.1-1.5-0.2-2.3
				c-0.1-1.9-3.1-1.9-3,0c0.1,0.8,0.1,1.5,0.2,2.3c1-0.1,2-0.3,2.9-0.4c-2.8-8.1-5.6-16.2-8.3-24.2c-2.7-7.8-6.1-15.7-7.6-23.8
				C106.5,452.6,103.6,453.4,104,455.3L104,455.3z"/>
		</g>
	</g>
	<g>
		<g>
			<path d="M125.1,453.7c-2.9,3-4.2,7.1-5.8,10.9c-2.1,4.8-4.2,9.6-6.3,14.4c-2.1,4.8-4.2,9.6-6.2,14.4c-1.4,3.1-4.1,7.1-4.1,10.6
				c0,1.3,1.3,1.7,2.3,1.3c0.1,0,0.2-0.1,0.3-0.1c0.6-0.2,0.9-1.1,0.7-1.7c0-0.1,0-0.1-0.1-0.2c-0.6-1.8-3.5-1-2.9,0.8
				c0,0.1,0,0.1,0.1,0.2c0.2-0.6,0.5-1.1,0.7-1.7c-0.1,0-0.2,0.1-0.3,0.1c0.8,0.4,1.5,0.9,2.3,1.3c0-2.2,2-5.2,2.9-7.2
				c0.8-1.8,1.6-3.6,2.3-5.4c1.7-3.9,3.4-7.8,5.1-11.7s3.4-7.8,5.1-11.7c1.7-4,3.1-8.9,6.1-12.1
				C128.6,454.4,126.5,452.3,125.1,453.7L125.1,453.7z"/>
		</g>
	</g>
	<g>
		<g>
			<path d="M134.9,454c-4.4,9.1-6.4,19-5.6,29.1c0.4,5,1.3,10,2.5,14.9c0.7,2.8,1.3,5.9,4.2,7.1c0.5,0.2,1.1-0.1,1.5-0.4
				c0.2-0.1,0.3-0.3,0.5-0.4c1.5-1.2-0.6-3.3-2.1-2.1c0.5-0.4-2.3-10-2.5-11.2c-0.7-4.1-1.2-8.2-1.2-12.4c0-8,1.9-15.8,5.4-22.9
				C138.3,453.8,135.7,452.3,134.9,454L134.9,454z"/>
		</g>
	</g>
	<g>
		<g>
			<path d="M207,455.7c2.7,16.5,3.7,32.8-2.5,48.7c-0.7,1.8,2.2,2.6,2.9,0.8c6.4-16.4,5.3-33.2,2.5-50.3
				C209.6,453,206.7,453.9,207,455.7L207,455.7z"/>
		</g>
	</g>
	<g>
		<g>
			<path d="M326,22.4c1.5-6.4,1.4-15.2-6.9-16.5c-8.6-1.4-13.4,6.5-14.5,13.8c-1.3,9.1-0.3,20.9,4.9,28.8c5.4,8.1,14,3.1,20.7-0.6
				c1.7-0.9,0.2-3.5-1.5-2.6c-2.4,1.4-5,2.8-7.6,3.8c-4.2,1.5-7.4,0.7-9.6-3.3c-2.9-5.1-4.1-12-4.3-17.8c-0.2-5.3,0-12.4,3.9-16.5
				c2.8-2.9,7.4-3.6,10.8-1.1c3.3,2.5,2,8,1.3,11.2C322.7,23.5,325.6,24.3,326,22.4L326,22.4z"/>
		</g>
	</g>
	<g>
		<g>
			<path d="M338.2,2.8c-4.4,9.1-6.4,19-5.6,29.1c0.4,5,1.3,10,2.5,14.9c0.7,2.8,1.3,5.9,4.2,7.1c0.5,0.2,1.1-0.1,1.5-0.4
				c0.2-0.1,0.3-0.3,0.5-0.4c1.5-1.2-0.6-3.3-2.1-2.1c0.5-0.4-2.3-10-2.5-11.2c-0.7-4.1-1.2-8.2-1.2-12.4c0-8,1.9-15.8,5.4-22.9
				C341.7,2.6,339.1,1.1,338.2,2.8L338.2,2.8z"/>
		</g>
	</g>
	<g>
		<g>
			<path d="M379.4,4.5c2.7,16.5,3.7,32.8-2.5,48.7c-0.7,1.8,2.2,2.6,2.9,0.8c6.4-16.4,5.3-33.2,2.5-50.3
				C381.9,1.8,379,2.7,379.4,4.5L379.4,4.5z"/>
		</g>
	</g>
	<g>
		<g>
			<g>
				<path d="M351.5,5.8c-2.5,11.8-4,23.9-4.5,36c-0.1,2.9-1.1,7.9,1.8,10s7.9,0.4,10.8-0.8c1.8-0.8,0.2-3.3-1.5-2.6
					c-2.5,1.1-6.9,2.5-8.2-1.2c-0.4-1.2,0.1-4.1,0.1-5.4c0.1-3.8,0.4-7.7,0.7-11.5c0.7-8,2-15.9,3.6-23.7
					C354.8,4.7,351.9,3.9,351.5,5.8L351.5,5.8z"/>
			</g>
		</g>
		<g>
			<g>
				<path d="M341.2,29.9c5.7-2,11.4-2.3,17.3-0.7c1.9,0.5,2.7-2.4,0.8-2.9c-6.3-1.7-12.7-1.5-18.9,0.7
					C338.6,27.7,339.3,30.6,341.2,29.9L341.2,29.9z"/>
			</g>
		</g>
		<g>
			<g>
				<path d="M363.7,39.6c-3,4.1-3,11.8,0,15.9c3.4,4.7,8.4,1.3,10.1-2.9c2.1-5,1.7-14.4-3.2-17.9c-5.3-3.7-9.2,3.7-10,7.9
					c-0.4,1.9,2.5,2.7,2.9,0.8c0.6-3.1,3.8-9.9,6.9-4.4c1.8,3.3,2.1,8.2,1,11.8c-0.4,1.4-1.8,4.2-3.6,4.1c-1.8-0.1-2.5-2.9-2.8-4.3
					c-0.7-3.1-0.5-6.9,1.4-9.5C367.4,39.5,364.8,38,363.7,39.6L363.7,39.6z"/>
			</g>
		</g>
	</g>
	<g>
		<g>
			<path d="M328.2,362.4c1.5-6.4,1.4-15.2-6.9-16.5c-8.6-1.4-13.4,6.5-14.5,13.8c-1.3,9.1-0.3,20.9,4.9,28.8
				c5.4,8.1,14,3.1,20.7-0.6c1.7-0.9,0.2-3.5-1.5-2.6c-2.4,1.4-5,2.8-7.6,3.8c-4.2,1.5-7.4,0.7-9.6-3.3c-2.9-5.1-4.1-12-4.3-17.8
				c-0.2-5.3,0-12.4,3.9-16.5c2.8-2.9,7.4-3.6,10.8-1.1c3.3,2.5,2,8,1.3,11.2C324.9,363.5,327.8,364.3,328.2,362.4L328.2,362.4z"/>
		</g>
	</g>
	<g>
		<g>
			<path d="M339.2,341c-4.4,9.1-6.4,19-5.6,29.1c0.4,5,1.3,10,2.5,14.9c0.7,2.8,1.3,5.9,4.2,7.1c0.5,0.2,1.1-0.1,1.5-0.4
				c0.2-0.1,0.3-0.3,0.5-0.4c1.5-1.2-0.6-3.3-2.1-2.1c0.5-0.4-2.3-10-2.5-11.2c-0.7-4.1-1.2-8.2-1.2-12.4c0-8,1.9-15.8,5.4-22.9
				C342.7,340.8,340.1,339.3,339.2,341L339.2,341z"/>
		</g>
	</g>
	<g>
		<g>
			<path d="M381.3,342.7c2.7,16.5,3.7,32.8-2.5,48.7c-0.7,1.8,2.2,2.6,2.9,0.8c6.4-16.4,5.3-33.2,2.5-50.3
				C383.9,340,381,340.9,381.3,342.7L381.3,342.7z"/>
		</g>
	</g>
	<g>
		<g>
			<path class="st35" d="M393.7,370.1c4.2-0.4,8.5-0.7,12.7-1.1c1.9-0.2,1.9-3.2,0-3c-4.2,0.4-8.5,0.7-12.7,1.1
				C391.8,367.2,391.8,370.2,393.7,370.1L393.7,370.1z"/>
		</g>
	</g>
	<g>
		<g>
			<path class="st35" d="M391.2,378.2c5.9,0.4,11.8,0.7,17.7,1.1c1.9,0.1,1.9-2.9,0-3c-5.9-0.4-11.8-0.7-17.7-1.1
				C389.3,375.1,389.3,378.1,391.2,378.2L391.2,378.2z"/>
		</g>
	</g>
	<g>
		<g>
			<g>
				<path d="M146.9,457c-2.5,11.2-4,22.6-4.5,34c-0.1,2.8-1,7.6,1.7,9.6c2.8,2.1,7.8,0.6,10.6-0.5c1.8-0.7,1-3.6-0.8-2.9
					c-1.5,0.6-4.4,1.9-6.2,1.3c-3-1-2.4-3.3-2.3-5.6c0.1-3.8,0.3-7.7,0.7-11.5c0.7-8,2-15.8,3.7-23.6
					C150.2,455.9,147.3,455.1,146.9,457L146.9,457z"/>
			</g>
		</g>
		<g>
			<g>
				<path d="M136.6,480c5.7-1.9,11.4-2.2,17.3-0.7c1.9,0.5,2.7-2.4,0.8-2.9c-6.3-1.6-12.7-1.4-18.9,0.7
					C133.9,477.7,134.7,480.6,136.6,480L136.6,480z"/>
			</g>
		</g>
		<g>
			<g>
				<path d="M157.3,488.1c-0.3,7.1-0.1,14.2,0.8,21.3c0.2,1.9,3.2,1.9,3,0c-0.8-7.1-1.1-14.2-0.8-21.3
					C160.3,486.1,157.3,486.1,157.3,488.1L157.3,488.1z"/>
			</g>
		</g>
		<g>
			<g>
				<path d="M165.9,491.6c-2.1,3.5-4.3,6.8-6.9,9.9c-0.6,0.7-0.6,1.8,0.3,2.4c3.5,2.1,7.1,4.3,10.6,6.4c1.7,1,3.2-1.6,1.5-2.6
					c-3.5-2.1-7.1-4.3-10.6-6.4c0.1,0.8,0.2,1.6,0.3,2.4c2.7-3.3,5.2-6.8,7.4-10.5C169.5,491.5,166.9,490,165.9,491.6L165.9,491.6z"
					/>
			</g>
		</g>
		<g>
			<g>
				<path d="M175.2,476.9c0.2,4,0.5,8.1,0.7,12.1c0.1,1.9,3.1,1.9,3,0c-0.2-4-0.5-8.1-0.7-12.1C178.1,475,175.1,475,175.2,476.9
					L175.2,476.9z"/>
			</g>
		</g>
		<g>
			<g>
				<path d="M171.6,484.8c3.4,0.3,6.8,0.5,10.2,0.8c1.9,0.1,1.9-2.9,0-3c-3.4-0.3-6.8-0.5-10.2-0.8
					C169.7,481.6,169.7,484.6,171.6,484.8L171.6,484.8z"/>
			</g>
		</g>
		<g>
			<g>
				<path d="M193.4,473.1c-0.2,5.3-0.4,10.6-0.6,16c-0.1,2.8-0.6,6.5,1.1,9c3.2,4.7,7.9,0.6,10-2.8c1-1.6-1.6-3.2-2.6-1.5
					c-2,3.2-4.8,1.8-5.6-1.3c-0.5-1.8,0.1-4.4,0.2-6.3c0.2-4.3,0.3-8.6,0.5-13C196.5,471.2,193.5,471.2,193.4,473.1L193.4,473.1z"/>
			</g>
		</g>
		<g>
			<g>
				<path d="M186.7,474.6c1.1-2.1,2.3-5.1,5-4.9c2.2,0.2,2.4,2,3.2,3.8s1.6,3.8,3.5,4.5c5.7,2.3,7.4-6.3,7.8-10c0.2-1.9-2.8-1.9-3,0
					c-0.2,1.6-0.7,8.9-4.7,6.3c-0.8-0.5-1.1-2.4-1.5-3.3c-0.8-1.7-1.6-3.5-3.3-4.4c-4.6-2.3-7.9,3-9.7,6.4
					C183.2,474.8,185.8,476.3,186.7,474.6L186.7,474.6z"/>
			</g>
		</g>
	</g>
	<g>
		<g>
			<path class="st35" d="M218.6,480.7c4.5,0.4,9,0.9,13.5,1.3c1.9,0.2,1.9-2.8,0-3c-4.5-0.4-9-0.9-13.5-1.3
				C216.7,477.5,216.7,480.5,218.6,480.7L218.6,480.7z"/>
		</g>
	</g>
	<g>
		<g>
			<path class="st35" d="M218.1,488.7c5.3-0.3,10.5-0.2,15.8,0.3c1.9,0.2,1.9-2.8,0-3c-5.3-0.5-10.5-0.6-15.8-0.3
				C216.1,485.8,216.1,488.8,218.1,488.7L218.1,488.7z"/>
		</g>
	</g>
	<g>
		<g>
			<path class="st35" d="M242,471.9c-0.8,5.4-3.5,21.7,6.3,21.2c9.8-0.4,12.9-14.6,11.7-22c-0.3-1.7-3.1-1.3-2.9,0.4
				c0.6,8,0.5,16.1-0.1,24c-0.4,4.7-1.6,8.6-7.2,8.7c-2.9,0-5.2-0.4-7.9,0.6c-1.8,0.6-1,3.5,0.8,2.9c6.3-2.3,13.7,1.7,16.4-6.7
				c1.2-3.8,1-8,1.2-11.9c0.2-5.9,0.3-11.7-0.2-17.5c-1,0.1-2,0.3-2.9,0.4c0.5,3.1,0.4,6.2-0.6,9.1c-0.8,2.4-3.3,7.8-6.1,8.4
				c-2.3,0.5-5.1-0.7-5.7-2.9c-0.3-1.1-0.4-2.2-0.4-3.3c-0.2-3.5,0.2-7.1,0.7-10.6C245.2,470.8,242.3,470,242,471.9L242,471.9z"/>
		</g>
	</g>
	<g>
		<g>
			<g>
				<path d="M353.4,343.3c-2.5,12-4,24.2-4.5,36.5c-0.1,3-1.1,8.1,1.8,10.1c2.9,2.1,7.9,0.4,10.8-0.9c1.8-0.8,0.2-3.3-1.5-2.6
					c-2.6,1.1-6.9,2.5-8.2-1.2c-0.4-1.2,0.1-4.2,0.1-5.4c0.1-3.9,0.4-7.8,0.7-11.7c0.7-8.1,2-16.1,3.6-24
					C356.7,342.3,353.8,341.5,353.4,343.3L353.4,343.3z"/>
			</g>
		</g>
		<g>
			<g>
				<path d="M343.1,367.8c5.7-2.1,11.4-2.3,17.3-0.7c1.9,0.5,2.7-2.4,0.8-2.9c-6.3-1.8-12.7-1.5-18.9,0.7
					C340.5,365.6,341.2,368.5,343.1,367.8L343.1,367.8z"/>
			</g>
		</g>
		<g>
			<g>
				<path d="M364,373.4c0.5,7,0.8,14,0.8,21c0,1.9,3,1.9,3,0c0-7-0.2-14-0.8-21C366.9,371.5,363.9,371.4,364,373.4L364,373.4z"/>
			</g>
		</g>
		<g>
			<g>
				<path d="M373.8,380.8c-1.5,2.5-3.6,4.2-6.4,5.2c-1,0.3-1.3,1.3-0.9,2.2c1.6,3.4,6.3,5,6.9,8.8c0.3,1.9,3.2,1.1,2.9-0.8
					c-0.7-4.4-5.4-5.8-7.2-9.5c-0.3,0.7-0.6,1.5-0.9,2.2c3.5-1.2,6.2-3.4,8.2-6.6C377.4,380.7,374.8,379.2,373.8,380.8L373.8,380.8z
					"/>
			</g>
		</g>
	</g>
	<g>
		<g>
			<path class="st35" d="M429.7,364.9c-0.2,0.2-0.4,0.3-0.5,0.5c0.8,0.2,1.7,0.4,2.5,0.7c-0.9-3.8-3.3-8.1-7.9-6.3
				c-4.7,1.8-5.9,8.9-6.1,13.2c-0.2,4.2,0.4,11.6,4.7,13.8c4.3,2.2,8.8-1.8,10.8-5.2c1-1.7-1.6-3.2-2.6-1.5
				c-1.5,2.5-5.1,6.4-8.1,2.7c-1.5-1.9-1.8-5.9-1.9-8.2c-0.1-2.5,0.3-5.1,1.2-7.5c0.5-3,2.5-4.1,6-3.3c0.4,1,0.7,2,0.9,3
				c0.3,1.2,1.7,1.4,2.5,0.7c0.2-0.2,0.4-0.3,0.5-0.5C433.3,365.7,431.2,363.6,429.7,364.9L429.7,364.9z"/>
		</g>
	</g>
	<g>
		<g>
			<path class="st35" d="M435.5,376.2c0.4,2.4,0.7,4.8,0.9,7.3c0.1,1,0.2,2.1,0.3,3.1c0,0.5,0.1,1,0.1,1.5c-0.1,1.2,0,1.4,0.3,0.5
				c0.7,0,1.4,0,2.1,0c-0.1,0-0.1-0.1-0.2-0.1c0,0.7,0,1.4,0,2.1l0.1-0.1c1.2-1.5-0.9-3.6-2.1-2.1l-0.1,0.1c-0.5,0.6-0.7,1.6,0,2.1
				c0.1,0,0.1,0.1,0.2,0.1c0.6,0.5,1.6,0.6,2.1,0c1.3-1.5,0.5-4.4,0.3-6.2c-0.3-3-0.7-6.1-1.1-9.1
				C438.1,373.5,435.2,374.3,435.5,376.2L435.5,376.2z"/>
		</g>
	</g>
	<g>
		<g>
			<path class="st35" d="M445.4,378.6c-2.2,1.7-4.3,3.3-6.6,4.9c-1,0.7-0.9,2.4,0.4,2.7c3,0.9,5.8,2.1,8.6,3.6
				c1.7,0.9,3.2-1.7,1.5-2.6c-3-1.6-6.1-2.9-9.3-3.9c0.1,0.9,0.2,1.8,0.4,2.7c2.2-1.6,4.4-3.2,6.6-4.9
				C448.4,380,446.9,377.4,445.4,378.6L445.4,378.6z"/>
		</g>
	</g>
	<g>
		<g>
			<path class="st35" d="M391.2,32.6c3.3-0.7,6.7-0.9,10-0.5c1.9,0.2,1.9-2.8,0-3c-3.7-0.4-7.3-0.2-10.8,0.7
				C388.5,30.1,389.3,33,391.2,32.6L391.2,32.6z"/>
		</g>
	</g>
	<g>
		<g>
			<path class="st35" d="M390.7,40.3c3.5-0.8,7-1.2,10.6-1c1.9,0.1,1.9-2.9,0-3c-3.8-0.1-7.6,0.3-11.4,1.2
				C388,37.9,388.8,40.8,390.7,40.3L390.7,40.3z"/>
		</g>
	</g>
	<g>
		<g>
			<path class="st35" d="M420.9,32.7c2-4.2-1.7-7.6-5.6-8.8c-4.5-1.4-6.4,3.1-7.4,6.5c-1.4,4.7-3.2,10.2,0.5,14.2
				c3.6,3.8,8.3,5.5,13,2.5c1.6-1,0.1-3.6-1.5-2.6c-3.1,1.9-6,1.2-8.5-1.3s-2.4-4.4-1.7-7.5c0.4-1.8,0.6-4.4,1.6-6.1
				c0.4-2,1.8-2.9,4.2-2.5c1.7,0.6,2.6,2,2.9,4C417.5,32.9,420,34.5,420.9,32.7L420.9,32.7z"/>
		</g>
	</g>
	<g>
		<g>
			<path class="st35" d="M424,42.5c-0.8,2.6-0.5,6.8,2.1,8.4c2.5,1.5,5.8-1.1,6.9-3.3c1.3-2.5,1.1-5.7-0.9-7.7
				c-2.1-2.1-5.5-1.7-7.1,0.8c-1,1.7,1.6,3.2,2.6,1.5c0.9-1.5,2.6-0.3,3.1,0.9s0.2,2.5-0.5,3.5c-0.7,1.1-2.1,2.3-3.1,0.8
				c-0.8-1.2-0.6-2.9-0.2-4.2C427.5,41.4,424.6,40.6,424,42.5L424,42.5z"/>
		</g>
	</g>
	<g>
		<g>
			<path d="M175.1,401.9c0,14.1-0.3,28.3-1,42.4c-0.1,1.9,2.9,1.9,3,0c0.7-14.1,1-28.2,1-42.4C178.1,399.9,175.1,399.9,175.1,401.9
				L175.1,401.9z"/>
		</g>
	</g>
	<g>
		<g>
			<path d="M168.6,432.7c3,3.5,5,7.5,6.1,11.9c0.4,1.4,2.5,1.4,2.9,0c0.5-2.1,1.2-4.1,2.2-6c0.4-0.7,0.8-1.5,1.3-2.2
				c0.4-0.6,0.8-1.2,1.3-1.7c0.7-0.7,0.8-0.8,0.3-0.5c-0.6-0.2-1.1-0.5-1.7-0.7c0,0.1,0.1,0.1,0.1,0.2c0.1-0.6,0.2-1.2,0.2-1.8
				l-0.1,0.1c-1.5,1.2,0.7,3.4,2.1,2.1l0.1-0.1c0.5-0.4,0.5-1.3,0.2-1.8c0-0.1-0.1-0.1-0.1-0.2c-0.3-0.6-1.1-0.8-1.7-0.7
				c-1.8,0.4-3.2,3.3-4.1,4.7c-1.4,2.4-2.5,5.1-3.2,7.8c1,0,1.9,0,2.9,0c-1.3-4.9-3.6-9.3-6.9-13.2
				C169.5,429.1,167.4,431.3,168.6,432.7L168.6,432.7z"/>
		</g>
	</g>
	<g>
		<g>
			<path d="M175.1,62.9c0,14.1-0.3,28.3-1,42.4c-0.1,1.9,2.9,1.9,3,0c0.7-14.1,1-28.2,1-42.4C178.1,60.9,175.1,60.9,175.1,62.9
				L175.1,62.9z"/>
		</g>
	</g>
	<g>
		<g>
			<path d="M168.6,90.7c3,3.5,5,7.5,6.1,11.9c0.4,1.4,2.5,1.4,2.9,0c0.5-2.1,1.2-4.1,2.2-6c0.4-0.7,0.8-1.5,1.3-2.2
				c0.4-0.6,0.8-1.2,1.3-1.7c0.7-0.7,0.8-0.8,0.3-0.5c-0.6-0.2-1.1-0.5-1.7-0.7c0,0.1,0.1,0.1,0.1,0.2c0.1-0.6,0.2-1.2,0.2-1.8
				l-0.1,0.1c-1.5,1.2,0.7,3.4,2.1,2.1l0.1-0.1c0.5-0.4,0.5-1.3,0.2-1.8c0-0.1-0.1-0.1-0.1-0.2c-0.3-0.6-1.1-0.8-1.7-0.7
				c-1.8,0.4-3.2,3.3-4.1,4.7c-1.4,2.4-2.5,5.1-3.2,7.8c1,0,1.9,0,2.9,0c-1.3-4.9-3.6-9.3-6.9-13.2
				C169.5,87.1,167.4,89.3,168.6,90.7L168.6,90.7z"/>
		</g>
	</g>
	<g>
		<g>
			<path d="M175.1,289.9c0,14.1-0.3,28.3-1,42.4c-0.1,1.9,2.9,1.9,3,0c0.7-14.1,1-28.2,1-42.4C178.1,287.9,175.1,287.9,175.1,289.9
				L175.1,289.9z"/>
		</g>
	</g>
	<g>
		<g>
			<path d="M168.6,320.7c3,3.5,5,7.5,6.1,11.9c0.4,1.4,2.5,1.4,2.9,0c0.5-2.1,1.2-4.1,2.2-6c0.4-0.7,0.8-1.5,1.3-2.2
				c0.4-0.6,0.8-1.2,1.3-1.7c0.7-0.7,0.8-0.8,0.3-0.5c-0.6-0.2-1.1-0.5-1.7-0.7c0,0.1,0.1,0.1,0.1,0.2c0.1-0.6,0.2-1.2,0.2-1.8
				l-0.1,0.1c-1.5,1.2,0.7,3.4,2.1,2.1l0.1-0.1c0.5-0.4,0.5-1.3,0.2-1.8c0-0.1-0.1-0.1-0.1-0.2c-0.3-0.6-1.1-0.8-1.7-0.7
				c-1.8,0.4-3.2,3.3-4.1,4.7c-1.4,2.4-2.5,5.1-3.2,7.8c1,0,1.9,0,2.9,0c-1.3-4.9-3.6-9.3-6.9-13.2
				C169.5,317.1,167.4,319.3,168.6,320.7L168.6,320.7z"/>
		</g>
	</g>
	<g>
		<g>
			<path d="M156.7,258.9c-0.9-0.9-2.3-0.8-3.2,0.1c-1,1-0.7,2.7,0.5,3.4c1.1,0.6,2.5,0.4,3.2-0.8c0.6-1.2,0.2-2.5-0.8-3.2
				c-0.4-0.3-1.1-0.3-1.5,0c-1.2,0.7-1.9,1.8-2,3.2c-0.2,1.8,1.9,2.4,3.2,1.6c1.3-0.9,1.3-2.7,0-3.6c-0.5-0.3-1.2-0.4-1.8-0.2
				c-0.8,0.2-1.2,0.7-1.5,1.5c-0.3,0.7,0.3,1.7,1,1.8c0.9,0.2,1.5-0.3,1.8-1c-0.1,0.3-0.3,0.6-0.7,0.7c0.2,0,0.1,0-0.1,0
				c-0.3,0-0.5-0.2-0.7-0.4c-0.6-1,0.5-1.7,1.2-1c0.1,0.4,0.3,0.7,0.4,1.1c0-0.2,0-0.2,0,0c0-0.1,0-0.2,0.1-0.3
				c-0.1,0.2,0.1-0.1,0.1-0.2c0.1-0.1,0.3-0.3,0.4-0.4c-0.5,0-1,0-1.5,0c-0.7-0.5-0.1-1.5,0.7-1.2c1,0.4,0.1,2.2-0.9,1.3
				c0.6,0.6,1.5,0.6,2.1,0C157.3,260.4,157.3,259.4,156.7,258.9L156.7,258.9z"/>
		</g>
	</g>
	<g>
		<g>
			<path d="M174.7,257.3c-1.2,0-2.2,0.8-2.5,2c-0.3,1.3,0.6,2.7,2,2.6c1.3-0.1,2.3-1.3,2-2.6c-0.3-1.2-1.6-1.7-2.7-1.5
				c-2.1,0.5-3,3.5-0.9,4.7c0.9,0.5,2,0.4,2.8-0.1c1-0.6,1.3-1.6,1.2-2.7c-0.1-1-1.5-1.4-2.2-0.9c-1.2,0.8-1.8,2.2-1.4,3.6
				c0.2,0.7,1.1,1.3,1.8,1c1.4-0.5,2.2-2,1.7-3.4c-0.3-0.8-1-1.6-2-1.5s-1.6,0.9-1.9,1.8c-0.3,0.8,0.3,1.6,1,1.8
				c0.8,0.2,1.6-0.3,1.8-1c-0.1,0.2-0.2,0.3-0.4,0.3c-0.4-0.1-0.8-0.1-1.2-0.2c-0.1-0.1-0.3-0.4-0.3-0.3s0-0.2,0-0.2
				c0,0.2-0.1,0.1,0,0s0.2-0.2,0.3-0.2c0.6,0.3,1.2,0.7,1.8,1c0-0.2-0.1-0.2,0-0.1c0,0.1,0,0.1,0-0.1c-0.1,0.1,0.2-0.1,0,0
				c-0.7-0.3-1.5-0.6-2.2-0.9c-0.1-0.2,0-0.4,0.1-0.6c-0.1,0.1-0.1,0.1,0,0l0.1-0.1c-0.1,0.1-0.1,0.1,0,0c-0.1,0-0.2,0,0,0
				c0.1,0,0.1,0,0,0c0.2,0,0.3,0.1,0.5,0.3c0.1,0.1,0.1,0.9,0.1,0.5c0,0-0.1,0.4,0,0.1c-0.1,0.1-0.1,0.1,0,0c0,0-0.1,0-0.1,0.1
				c-0.1,0-0.5-0.1-0.3,0c-0.2-0.2-0.4-0.4-0.5-0.5c-0.2-0.5-0.1-0.9,0.3-1.2c0.3-0.1,0.6-0.1,0.8,0c0.2,0.2,0.4,0.4,0.5,0.5
				c0.1,0.3,0.1,0.8-0.3,0.8C176.7,260.4,176.7,257.4,174.7,257.3L174.7,257.3z"/>
		</g>
	</g>
	<g>
		<g>
			<path d="M196.9,256.4c-2-1.5-4.7,1.3-3.4,3.3c0.7,1,1.9,1.2,2.9,0.7c1.1-0.5,1.7-1.6,1.4-2.7c-0.1-0.7-0.8-1.1-1.4-1.1
				c-1.1-0.1-2.3,0.1-3.2,1c-0.8,0.8-1,2.2-0.4,3.2c0.3,0.5,0.8,0.9,1.4,1c0.8,0.2,1.5-0.3,2-0.8c0.9-0.9,1.1-2.1,0.9-3.4
				c-0.1-0.8-1.1-1.3-1.8-1c-1.6,0.5-2.6,1.9-2.7,3.5c0,0.9,0.7,1.4,1.5,1.5s1.6-0.1,2.2-0.7c0.6-0.6,0.8-1.7,0.3-2.4
				c-0.5-0.8-1.6-1.1-2.5-0.6c-0.8,0.5-1.2,1.6-0.7,2.4c0.4,0.7,1.3,1,2.1,0.5c0.7-0.4,1-1.4,0.5-2.1c0,0,0-0.1-0.1-0.1
				c0.1,0.3,0.1,0.5,0.2,0.8c-0.2,0.4-0.5,0.7-0.7,1.1c-0.3,0-0.5,0-0.8,0c-0.1,0-0.1-0.1-0.2-0.1c-0.2-0.2-0.4-0.4-0.5-0.5
				c-0.2-0.4-0.1-0.7,0.1-1c0.1-0.2,0.3-0.3,0.5-0.3H194c0.5,0.5,1,1,1.5,1.5c0-0.2,0-0.2,0,0c0-0.1,0-0.2,0.1-0.3
				c-0.1,0.2,0.1-0.1,0.1-0.2c-0.2,0.2,0.2-0.1,0.2-0.1c-0.1,0.1-0.1,0.1,0.1,0c-0.1,0-0.1,0,0,0c-0.6-0.3-1.2-0.7-1.8-1
				c-0.1-0.3-0.1,0.4,0,0.1c0,0.1-0.2,0.4,0,0.2c0,0-0.2,0.4-0.1,0.2c-0.1,0.1-0.1,0.1,0,0.1c-0.1,0.1-0.2,0.1-0.3,0.2
				c0.4-0.1,0.8-0.1,1.2-0.2c0.2,0,0.3,0.2,0.4,0.3c0,0.1,0.1,0.4,0.1,0.3c0-0.2-0.1,0.3,0,0c-0.1,0.2-0.1,0.2,0,0.1s0-0.1-0.1,0.1
				c0,0,0,0-0.1,0.1c0.1-0.1,0.2-0.1,0.1-0.1c-0.1,0,0.2,0,0.3-0.1c-0.2,0,0.2,0,0.2,0c0.2,0,0.3,0,0.5,0c-0.5-0.4-1-0.7-1.4-1.1
				c-0.1-0.2,0-0.5,0.1-0.7c0-0.1,0.1-0.1,0.2-0.2c-0.1,0.1-0.1,0.1,0,0c0.1,0,0.1,0,0,0c0.2,0,0.3,0,0.1,0c0.3,0,0.5,0.1,0.7,0.4
				c0.1,0.2,0.1,0.4,0.1,0.6c0,0.1-0.3,0.4-0.1,0.2c-0.2,0.1-0.2,0.1,0,0c-0.1,0-0.1,0-0.2,0.1c-0.1,0-0.3,0-0.4,0
				c-0.2-0.1-0.2-0.1-0.1,0c0.6,0.5,1.7,0.1,2.1-0.5C197.9,257.7,197.5,256.9,196.9,256.4L196.9,256.4z"/>
		</g>
	</g>
	<g>
		<g>
			<path d="M311.5,259.1c-0.8-0.8-2-0.7-2.8,0.1c-0.9,0.9-0.6,2.3,0.4,2.9c0.9,0.6,2.2,0.3,2.8-0.6c0.6-1,0.2-2.2-0.7-2.8
				c-0.3-0.2-0.9-0.2-1.2,0c-1.1,0.6-1.7,1.7-1.9,2.9c-0.2,1.5,1.6,2.1,2.7,1.3c1.1-0.7,1.1-2.3,0-3s-2.4-0.1-2.9,1
				c-0.2,0.6,0.3,1.3,0.8,1.5c0.7,0.2,1.2-0.2,1.5-0.8c-0.1,0.2-0.2,0.4-0.4,0.4c0.1,0,0.1,0,0,0c-0.2-0.1-0.3-0.1-0.4-0.3
				c-0.4-0.6,0.2-1.1,0.7-0.7c0.1,0.3,0.2,0.6,0.4,0.8c0-0.4,0.3-0.9,0.7-1.1c-0.4,0-0.8,0-1.2,0c-0.4-0.3,0-0.8,0.4-0.7
				c0.6,0.2,0.1,1.4-0.6,0.8C310.9,261.9,312.6,260.2,311.5,259.1L311.5,259.1z"/>
		</g>
	</g>
	<g>
		<g>
			<path d="M329.7,257.6c-1.1,0-2,0.7-2.2,1.7c-0.3,1.1,0.5,2.3,1.7,2.2c1.1-0.1,2-1.1,1.8-2.2c-0.2-1-1.4-1.5-2.3-1.2
				c-1.8,0.4-2.7,3.1-0.9,4.1c0.8,0.4,1.8,0.3,2.5-0.1c0.8-0.5,1.2-1.4,1-2.4c-0.1-0.8-1.2-1.1-1.8-0.7c-1.1,0.7-1.7,2-1.2,3.3
				c0.2,0.6,0.8,1.1,1.5,0.8c1.2-0.4,1.9-1.7,1.5-3c-0.2-0.7-0.9-1.4-1.7-1.3c-0.9,0.1-1.4,0.8-1.7,1.6c-0.5,1.5,1.8,2.1,2.3,0.6
				c0,0.1-0.1,0.1-0.1,0.1c-0.3,0-0.6-0.1-0.9-0.1c0,0-0.3-0.3-0.2-0.2c0.1,0.1-0.1,0,0-0.1c0,0-0.1,0.1,0,0.1l0.1-0.1
				c0.5,0.3,1,0.6,1.5,0.8c-0.1-0.2-0.1-0.4,0.1-0.6c-0.6-0.2-1.2-0.5-1.8-0.7c0-0.1,0-0.3,0-0.4c-0.1,0.1-0.1,0.1,0,0
				c0.1,0-0.1,0,0,0c-0.1,0-0.1,0.1-0.2,0l0.2,0.1c0,0,0,0,0,0.1c0,0.3,0,0.4,0,0.1c0,0-0.1,0.3,0.1,0c0,0.1,0.1-0.1,0,0
				s-0.4-0.2-0.1,0c-0.1-0.1-0.3-0.3-0.4-0.4c-0.2-0.4-0.1-0.6,0.2-0.8c0.2-0.1,0.4-0.1,0.5,0s0.3,0.3,0.4,0.4
				c0,0.1,0.1,0.4-0.1,0.4C331.3,260.1,331.3,257.7,329.7,257.6L329.7,257.6z"/>
		</g>
	</g>
	<g>
		<g>
			<path d="M351.7,256.7c-1.7-1.3-4.1,1.2-3,2.9c0.6,0.8,1.6,1,2.5,0.6c1-0.4,1.5-1.4,1.2-2.4c-0.1-0.5-0.6-0.9-1.2-0.9
				c-1-0.1-2.2,0.1-3,0.9c-0.7,0.7-0.9,2-0.4,2.8c0.3,0.4,0.7,0.8,1.2,0.9c0.7,0.2,1.3-0.3,1.7-0.8c0.8-0.9,1-1.9,0.9-3.1
				c-0.1-0.6-0.9-1-1.5-0.8c-1.4,0.5-2.4,1.7-2.5,3.2c0,0.7,0.6,1.1,1.2,1.2c0.7,0.1,1.5,0,2-0.6c0.5-0.5,0.6-1.4,0.2-2.1
				c-1-1.6-3.6-0.1-2.6,1.6c0.8,1.3,2.9,0.1,2.1-1.2c0,0,0-0.1-0.1-0.1c0.1,0.2,0.1,0.4,0.2,0.6c-0.2,0.3-0.4,0.5-0.5,0.8
				c-0.2,0-0.4,0-0.6,0c0,0-0.1,0-0.1-0.1c-0.1-0.1-0.3-0.3-0.4-0.4c-0.1-0.3-0.1-0.5,0.1-0.7c0.1-0.1,0.1-0.2,0.3-0.2h-0.5
				c0.4,0.4,0.8,0.8,1.2,1.2c0-0.4,0.3-0.8,0.7-0.9c-0.5-0.3-1-0.6-1.5-0.8c0.1,0.4-0.2,0.8-0.6,1c0.3,0,0.6-0.1,0.9-0.1
				c0.1,0,0.2,0.1,0.2,0.2v0.1c0,0.1,0,0.1,0,0c-0.1,0,0,0.1,0-0.1c0,0.1,0,0.1,0,0s0-0.1,0,0c0.1,0,0.3-0.1,0.4-0.1
				c0.2,0,0.5,0,0.8,0c-0.4-0.3-0.8-0.6-1.2-0.9c0-0.2,0-0.3,0.1-0.4l0.1-0.1c-0.1,0.1-0.1,0.1,0,0c0.1,0,0.1,0-0.1,0
				c0.1,0,0.2,0,0,0c0.2,0,0.3,0.1,0.4,0.3c0.1,0.1,0.1,0.2,0.1,0.3c0,0.1,0,0.1-0.1,0.2l0.1-0.1c-0.1,0.1-0.1,0.1,0,0h-0.1
				c-0.1,0-0.4-0.1-0.2,0c0.5,0.4,1.3,0.1,1.6-0.4C352.5,257.7,352.3,257.1,351.7,256.7L351.7,256.7z"/>
		</g>
	</g>
	<g>
		<g>
			<path d="M235.8,32.6c16.7,0.5,33.4-0.3,49.9-2.5c0.8-0.1,1-0.9,0.4-1.4c-3.4-2.6-7-3.9-11.3-4.4c-0.9-0.1-0.9,1.2-0.2,1.5
				c5.5,2,11,4,16.5,6c-0.1-0.5-0.1-0.9-0.2-1.4c-5.1,2.7-10.3,5.4-15.4,8.1c-0.9,0.4-0.1,1.7,0.8,1.3c5.1-2.7,10.3-5.4,15.4-8.1
				c0.6-0.3,0.4-1.2-0.2-1.4c-5.5-2-11-4-16.5-6c-0.1,0.5-0.1,1-0.2,1.5c3.9,0.5,7.3,1.8,10.5,4.2c0.1-0.5,0.3-0.9,0.4-1.4
				c-16.6,2.2-33.2,3.1-49.9,2.5C234.8,31.1,234.8,32.6,235.8,32.6L235.8,32.6z"/>
		</g>
	</g>
	<g>
		<g>
			<path d="M235.8,372.6c16.7,0.5,33.4-0.3,49.9-2.5c0.8-0.1,1-0.9,0.4-1.4c-3.4-2.6-7-3.9-11.3-4.4c-0.9-0.1-0.9,1.2-0.2,1.5
				c5.5,2,11,4,16.5,6c-0.1-0.5-0.1-0.9-0.2-1.4c-5.1,2.7-10.3,5.4-15.4,8.1c-0.9,0.4-0.1,1.7,0.8,1.3c5.1-2.7,10.3-5.4,15.4-8.1
				c0.6-0.3,0.4-1.2-0.2-1.4c-5.5-2-11-4-16.5-6c-0.1,0.5-0.1,1-0.2,1.5c3.9,0.5,7.3,1.8,10.5,4.2c0.1-0.5,0.3-0.9,0.4-1.4
				c-16.6,2.2-33.2,3.1-49.9,2.5C234.8,371.1,234.8,372.6,235.8,372.6L235.8,372.6z"/>
		</g>
	</g>
	<g>
		<g>
			<g>
				<path d="M47.9,125.8c-2.7,9.5-4.8,20-4.6,30c0.2,7,7,6.1,12.3,4.4c1.8-0.6,1-3.5-0.8-2.9c-3.7,1.2-7.5,2.1-8.5-2.5
					c-0.6-2.6,0.4-6.8,0.7-9.5c0.7-6.4,2-12.6,3.8-18.8C51.4,124.7,48.5,123.9,47.9,125.8L47.9,125.8z"/>
			</g>
		</g>
		<g>
			<g>
				<path d="M37.6,144.3c5.7-1.5,11.5-1.7,17.3-0.5c1.9,0.4,2.7-2.5,0.8-2.9c-6.3-1.3-12.6-1.1-18.9,0.5
					C35,141.9,35.8,144.8,37.6,144.3L37.6,144.3z"/>
			</g>
		</g>
		<g>
			<g>
				<path d="M59.3,157.9c3.5-2.3,6.2-5.4,7-9.5c-1-0.1-2-0.3-2.9-0.4c-0.1,4.1,0,8.2-0.2,12.3c-0.1,1.1,0.1,1.3-0.8,1.6
					c-0.5,0.1-1.2-0.1-1.7-0.1c-1,0-1.8,0.1-2.6,0.7c-1.2,0.8-0.8,2.8,0.8,2.8c3,0,6.1,0,9.1,0.1c1.9,0,1.9-3,0-3
					c-3,0-6.1,0-9.1-0.1c0.3,0.9,0.5,1.9,0.8,2.8c2.2-1.5,5.3,1.3,6.5-2.2c0.7-1.9,0.2-4.7,0.3-6.7c0.1-2.7,0.1-5.5,0.2-8.2
					c0-1.7-2.6-2.1-2.9-0.4c-0.7,3.4-2.8,5.9-5.6,7.7C56.2,156.4,57.7,159,59.3,157.9L59.3,157.9z"/>
			</g>
		</g>
	</g>
	<g>
		<g>
			<path d="M138.5,122.6c1.5,8.1,4.9,16,7.6,23.8c2.8,8.1,5.6,16.2,8.3,24.2c0.5,1.5,3.1,1.4,2.9-0.4c-0.1-0.8-0.1-1.5-0.2-2.3
				c-0.1-1.9-3.1-1.9-3,0c0.1,0.8,0.1,1.5,0.2,2.3c1-0.1,2-0.3,2.9-0.4c-2.8-8.1-5.6-16.2-8.3-24.2c-2.7-7.8-6.1-15.7-7.6-23.8
				C141,119.9,138.1,120.7,138.5,122.6L138.5,122.6z"/>
		</g>
	</g>
	<g>
		<g>
			<path d="M159.6,121c-2.9,3-4.2,7.1-5.8,10.9c-2.1,4.8-4.2,9.6-6.3,14.4c-2.1,4.8-4.2,9.6-6.2,14.4c-1.4,3.1-4.1,7.1-4.1,10.6
				c0,1.3,1.3,1.7,2.3,1.3c0.1,0,0.2-0.1,0.3-0.1c0.6-0.2,0.9-1.1,0.7-1.7c0-0.1,0-0.1-0.1-0.2c-0.6-1.8-3.5-1-2.9,0.8
				c0,0.1,0,0.1,0.1,0.2c0.2-0.6,0.5-1.1,0.7-1.7c-0.1,0-0.2,0.1-0.3,0.1c0.8,0.4,1.5,0.9,2.3,1.3c0-2.2,2-5.2,2.9-7.2
				c0.8-1.8,1.6-3.6,2.3-5.4c1.7-3.9,3.4-7.8,5.1-11.7c1.7-3.9,3.4-7.8,5.1-11.7c1.7-4,3.1-8.9,6.1-12.1
				C163.1,121.7,161,119.6,159.6,121L159.6,121z"/>
		</g>
	</g>
	<g>
		<g>
			<path d="M169.4,121.3c-4.4,9.1-6.4,19-5.6,29.1c0.4,5,1.3,10,2.5,14.9c0.7,2.8,1.3,5.9,4.2,7.1c0.5,0.2,1.1-0.1,1.5-0.4
				c0.2-0.1,0.3-0.3,0.5-0.4c1.5-1.2-0.6-3.3-2.1-2.1c0.5-0.4-2.3-10-2.5-11.2c-0.7-4.1-1.2-8.2-1.2-12.4c0-8,1.9-15.8,5.4-22.9
				C172.8,121.1,170.2,119.6,169.4,121.3L169.4,121.3z"/>
		</g>
	</g>
	<g>
		<g>
			<path d="M211.5,123c2.7,16.5,3.7,32.8-2.5,48.7c-0.7,1.8,2.2,2.6,2.9,0.8c6.4-16.4,5.3-33.2,2.5-50.3
				C214.1,120.3,211.2,121.1,211.5,123L211.5,123z"/>
		</g>
	</g>
	<g>
		<g>
			<g>
				<path d="M184.9,123.6c-2.5,12-4,24.2-4.5,36.5c-0.1,3-1.1,8.1,1.8,10.1c2.9,2.1,7.9,0.4,10.8-0.9c1.8-0.8,0.2-3.3-1.5-2.6
					c-2.6,1.1-6.9,2.5-8.2-1.2c-0.4-1.2,0.1-4.2,0.1-5.4c0.1-3.9,0.4-7.8,0.7-11.7c0.7-8.1,2-16.1,3.6-24
					C188.2,122.5,185.3,121.7,184.9,123.6L184.9,123.6z"/>
			</g>
		</g>
		<g>
			<g>
				<path d="M174.6,148.1c5.7-2.1,11.4-2.3,17.3-0.7c1.9,0.5,2.7-2.4,0.8-2.9c-6.3-1.8-12.7-1.5-18.9,0.7
					C172,145.9,172.7,148.8,174.6,148.1L174.6,148.1z"/>
			</g>
		</g>
		<g>
			<g>
				<path d="M196.6,166.3c3.7-3.3,5.9-7.4,6.7-12.4c-1-0.1-2-0.3-2.9-0.4c-0.1,5.3,0.1,10.6-0.2,15.9c-0.1,0.8,0.1,3.1-0.7,3.5
					c-0.3,0.2-1.7-0.2-2.1-0.2c-1.2,0.1-1.8,0.3-2.7,1.1c-1,0.9-0.2,2.5,1.1,2.6c3,0,6.1,0.1,9.1,0.1c1.9,0,1.9-3,0-3
					c-3,0-6.1-0.1-9.1-0.1c0.4,0.9,0.7,1.7,1.1,2.6c0.9-0.8,3.3,0.3,4.6-0.3s1.6-1.5,1.8-2.9c0.8-6.2,0.2-13,0.3-19.2
					c0-1.6-2.7-2.1-2.9-0.4c-0.7,4.4-2.6,8-5.9,11C193,165.5,195.2,167.6,196.6,166.3L196.6,166.3z"/>
			</g>
		</g>
	</g>
	<g>
		<g>
			<path d="M326,142.4c1.5-6.4,1.4-15.2-6.9-16.5c-8.6-1.4-13.4,6.5-14.5,13.8c-1.3,9.1-0.3,20.9,4.9,28.8c5.4,8.1,14,3.1,20.7-0.6
				c1.7-0.9,0.2-3.5-1.5-2.6c-2.4,1.4-5,2.8-7.6,3.8c-4.2,1.5-7.4,0.7-9.6-3.3c-2.9-5.1-4.1-12-4.3-17.8c-0.2-5.3,0-12.4,3.9-16.5
				c2.8-2.9,7.4-3.6,10.8-1.1c3.3,2.5,2,8,1.3,11.2C322.7,143.5,325.6,144.3,326,142.4L326,142.4z"/>
		</g>
	</g>
	<g>
		<g>
			<path d="M337,121c-4.4,9.1-6.4,19-5.6,29.1c0.4,5,1.3,10,2.5,14.9c0.7,2.8,1.3,5.9,4.2,7.1c0.5,0.2,1.1-0.1,1.5-0.4
				c0.2-0.1,0.3-0.3,0.5-0.4c1.5-1.2-0.6-3.3-2.1-2.1c0.5-0.4-2.3-10-2.5-11.2c-0.7-4.1-1.2-8.2-1.2-12.4c0-8,1.9-15.8,5.4-22.9
				C340.4,120.8,337.9,119.3,337,121L337,121z"/>
		</g>
	</g>
	<g>
		<g>
			<path d="M379.1,122.7c2.7,16.5,3.7,32.8-2.5,48.7c-0.7,1.8,2.2,2.6,2.9,0.8c6.4-16.4,5.3-33.2,2.5-50.3
				C381.7,120,378.8,120.9,379.1,122.7L379.1,122.7z"/>
		</g>
	</g>
	<g>
		<g>
			<g>
				<path d="M352.5,123.3c-2.5,12-4,24.2-4.5,36.5c-0.1,3-1.1,8.1,1.8,10.1c2.9,2.1,7.9,0.4,10.8-0.9c1.8-0.8,0.2-3.3-1.5-2.6
					c-2.6,1.1-6.9,2.5-8.2-1.2c-0.4-1.2,0.1-4.2,0.1-5.4c0.1-3.9,0.4-7.8,0.7-11.7c0.7-8.1,2-16.1,3.6-24
					C355.8,122.3,352.9,121.5,352.5,123.3L352.5,123.3z"/>
			</g>
		</g>
		<g>
			<g>
				<path d="M342.2,147.8c5.7-2.1,11.4-2.3,17.3-0.7c1.9,0.5,2.7-2.4,0.8-2.9c-6.3-1.8-12.7-1.5-18.9,0.7
					C339.6,145.6,340.4,148.5,342.2,147.8L342.2,147.8z"/>
			</g>
		</g>
		<g>
			<g>
				<path d="M364.2,166c3.7-3.3,5.9-7.4,6.7-12.4c-1-0.1-2-0.3-2.9-0.4c-0.1,5.3,0.1,10.6-0.2,15.9c-0.1,0.8,0.1,3.1-0.7,3.5
					c-0.3,0.2-1.7-0.2-2.1-0.2c-1.2,0.1-1.8,0.3-2.7,1.1c-1,0.9-0.2,2.5,1.1,2.6c3,0,6.1,0.1,9.1,0.1c1.9,0,1.9-3,0-3
					c-3,0-6.1-0.1-9.1-0.1c0.4,0.9,0.7,1.7,1.1,2.6c0.9-0.8,3.3,0.3,4.6-0.3c1.3-0.6,1.6-1.5,1.8-2.9c0.8-6.2,0.2-13,0.3-19.2
					c0-1.6-2.7-2.1-2.9-0.4c-0.7,4.4-2.6,8-5.9,11C360.7,165.2,362.8,167.3,364.2,166L364.2,166z"/>
			</g>
		</g>
	</g>
	<g>
		<g>
			<path d="M88.9,146.6c-2.9,0-5.8,0-8.7,0c-1.9,0-1.9,3,0,3c2.9,0,5.8,0,8.7,0C90.8,149.6,90.8,146.6,88.9,146.6L88.9,146.6z"/>
		</g>
	</g>
	<g>
		<g>
			<path d="M235.8,150.6c16.7,0.5,33.4-0.3,49.9-2.5c0.8-0.1,1-0.9,0.4-1.4c-3.4-2.6-7-3.9-11.3-4.4c-0.9-0.1-0.9,1.2-0.2,1.5
				c5.5,2,11,4,16.5,6c-0.1-0.5-0.1-0.9-0.2-1.4c-5.1,2.7-10.3,5.4-15.4,8.1c-0.9,0.4-0.1,1.7,0.8,1.3c5.1-2.7,10.3-5.4,15.4-8.1
				c0.6-0.3,0.4-1.2-0.2-1.4c-5.5-2-11-4-16.5-6c-0.1,0.5-0.1,1-0.2,1.5c3.9,0.5,7.3,1.8,10.5,4.2c0.1-0.5,0.3-0.9,0.4-1.4
				c-16.6,2.2-33.2,3.1-49.9,2.5C234.8,149.1,234.8,150.6,235.8,150.6L235.8,150.6z"/>
		</g>
	</g>
	<g>
		<g>
			<path class="st35" d="M390.3,147c3.7,0,7.5,0,11.2,0c1.9,0,1.9-3,0-3c-3.8,0-7.5,0-11.2,0C388.4,144,388.4,147,390.3,147
				L390.3,147z"/>
		</g>
	</g>
	<g>
		<g>
			<path class="st35" d="M388.7,156.1c5.2-0.3,10.5-0.5,15.7-0.8c1.9-0.1,1.9-3.1,0-3c-5.2,0.3-10.5,0.5-15.7,0.8
				C386.8,153.2,386.8,156.2,388.7,156.1L388.7,156.1z"/>
		</g>
	</g>
	<g>
		<g>
			<path class="st35" d="M423.9,150.7c0.6-4.7-2.2-10.6-7.7-10.1c-5.7,0.5-7.1,6.4-7.7,11.1c-0.6,5.1-1,12.1,3.3,15.9
				c4.5,4,10.4,1.4,14.4-2c1.5-1.2-0.7-3.4-2.1-2.1c-3.2,2.7-8.5,4.9-11.5,0.4c-1.5-2.3-1.6-5.5-1.5-8.1c0.1-2.5,0.2-5.2,0.9-7.6
				c0.3-1.6,1.2-3,2.6-4.1c1.5,0.2,3,0.3,4.5,0.5c1.7,1,1.8,4.4,1.6,6C420.6,152.6,423.6,152.6,423.9,150.7L423.9,150.7z"/>
		</g>
	</g>
	<g>
		<g>
			<path class="st35" d="M429.6,166.2c3.9-3.1,6.8-6.6,5.9-11.9c-1,0.3-1.9,0.5-2.9,0.8c0.7,3.8,0.5,7.5,0.1,11.3
				c-0.1,1.2-0.3,2.3-0.5,3.5c-0.2,0.2-0.5,0.2-0.7,0c-0.6,0.1-1.3-0.2-2-0.1c-1.4,0.3-1.5,2.6,0,2.9c3.7,0.7,7.1,0.3,10.5-1.4
				c1.7-0.9,0.2-3.4-1.5-2.6c-2.6,1.3-5.3,1.7-8.2,1.1c0,1,0,1.9,0,2.9c1.2-0.3,2,1.1,3.4,0.4c1.4-0.7,1.5-2.4,1.7-3.7
				c0.8-5.1,1.1-10.1,0.2-15.1c-0.3-1.9-3.2-1.1-2.9,0.8c0.7,4.1-2.2,6.7-5.1,9C425.9,165.2,428.1,167.3,429.6,166.2L429.6,166.2z"
				/>
		</g>
	</g>
	<g>
		<g>
			<path d="M175.1,182.9c0,14.1-0.3,28.3-1,42.4c-0.1,1.9,2.9,1.9,3,0c0.7-14.1,1-28.2,1-42.4C178.1,180.9,175.1,180.9,175.1,182.9
				L175.1,182.9z"/>
		</g>
	</g>
	<g>
		<g>
			<path d="M168.6,210.7c3,3.5,5,7.5,6.1,11.9c0.4,1.4,2.5,1.4,2.9,0c0.5-2.1,1.2-4.1,2.2-6c0.4-0.7,0.8-1.5,1.3-2.2
				c0.4-0.6,0.8-1.2,1.3-1.7c0.7-0.7,0.8-0.8,0.3-0.5c-0.6-0.2-1.1-0.5-1.7-0.7c0,0.1,0.1,0.1,0.1,0.2c0.1-0.6,0.2-1.2,0.2-1.8
				l-0.1,0.1c-1.5,1.2,0.7,3.4,2.1,2.1l0.1-0.1c0.5-0.4,0.5-1.3,0.2-1.8c0-0.1-0.1-0.1-0.1-0.2c-0.3-0.6-1.1-0.8-1.7-0.7
				c-1.8,0.4-3.2,3.3-4.1,4.7c-1.4,2.4-2.5,5.1-3.2,7.8c1,0,1.9,0,2.9,0c-1.3-4.9-3.6-9.3-6.9-13.2
				C169.5,207.1,167.4,209.3,168.6,210.7L168.6,210.7z"/>
		</g>
	</g>
	<g>
		<g>
			<g>
				<path d="M48.6,337.2c-2.7,9.5-4.8,20-4.6,30c0.2,7,7,6.1,12.3,4.4c1.8-0.6,1-3.5-0.8-2.9c-3.7,1.2-7.5,2.1-8.5-2.5
					c-0.6-2.6,0.4-6.8,0.7-9.5c0.7-6.4,2-12.6,3.8-18.8C52,336.2,49.1,335.4,48.6,337.2L48.6,337.2z"/>
			</g>
		</g>
		<g>
			<g>
				<path d="M38.3,355.8c5.7-1.5,11.5-1.7,17.3-0.5c1.9,0.4,2.7-2.5,0.8-2.9c-6.3-1.3-12.6-1.1-18.9,0.5
					C35.6,353.4,36.4,356.3,38.3,355.8L38.3,355.8z"/>
			</g>
		</g>
		<g>
			<g>
				<path d="M59,361.9c-0.3,5.8-0.1,11.5,0.8,17.2c0.3,1.9,3.2,1.1,2.9-0.8c-0.8-5.5-1-10.9-0.7-16.4
					C62.1,359.9,59.1,359.9,59,361.9L59,361.9z"/>
			</g>
		</g>
		<g>
			<g>
				<path d="M67.6,364.5c-2.1,2.8-4.4,5.3-6.9,7.7c-0.7,0.6-0.6,1.9,0.3,2.4c3.5,1.7,7.1,3.4,10.6,5.1c1.7,0.8,3.3-1.8,1.5-2.6
					c-3.5-1.7-7.1-3.4-10.6-5.1c0.1,0.8,0.2,1.6,0.3,2.4c2.7-2.6,5.1-5.4,7.4-8.3C71.4,364.5,68.8,363,67.6,364.5L67.6,364.5z"/>
			</g>
		</g>
	</g>
	<g>
		<g>
			<g>
				<path d="M15.6,454.2c-2.7,9.5-4.8,20-4.6,30c0.2,7,7,6.1,12.3,4.4c1.8-0.6,1-3.5-0.8-2.9c-3.7,1.2-7.5,2.1-8.5-2.5
					c-0.6-2.6,0.4-6.8,0.7-9.5c0.7-6.4,2-12.6,3.8-18.8C19,453.2,16.1,452.4,15.6,454.2L15.6,454.2z"/>
			</g>
		</g>
		<g>
			<g>
				<path d="M5.3,472.8c5.7-1.5,11.5-1.7,17.3-0.5c1.9,0.4,2.7-2.5,0.8-2.9c-6.3-1.3-12.6-1.1-18.9,0.5
					C2.6,470.4,3.4,473.3,5.3,472.8L5.3,472.8z"/>
			</g>
		</g>
		<g>
			<g>
				<path d="M26,478.9c-0.3,5.8-0.1,11.5,0.8,17.2c0.3,1.9,3.2,1.1,2.9-0.8c-0.8-5.5-1-10.9-0.7-16.4
					C29.1,476.9,26.1,476.9,26,478.9L26,478.9z"/>
			</g>
		</g>
		<g>
			<g>
				<path d="M34.6,481.5c-2.1,2.8-4.4,5.3-6.9,7.7c-0.7,0.6-0.6,1.9,0.3,2.4c3.5,1.7,7.1,3.4,10.6,5.1c1.7,0.8,3.3-1.8,1.5-2.6
					c-3.5-1.7-7.1-3.4-10.6-5.1c0.1,0.8,0.2,1.6,0.3,2.4c2.7-2.6,5.1-5.4,7.4-8.3C38.4,481.5,35.8,480,34.6,481.5L34.6,481.5z"/>
			</g>
		</g>
		<g>
			<g>
				<path d="M44,470c0.2,3.2,0.5,6.4,0.7,9.6c0.1,1.9,3.1,1.9,3,0c-0.2-3.2-0.5-6.4-0.7-9.6C46.8,468.1,43.8,468.1,44,470L44,470z"
					/>
			</g>
		</g>
		<g>
			<g>
				<path d="M40.4,476.6c3.4,0.2,6.8,0.4,10.2,0.6c1.9,0.1,1.9-2.9,0-3c-3.4-0.2-6.8-0.4-10.2-0.6C38.4,473.5,38.4,476.5,40.4,476.6
					L40.4,476.6z"/>
			</g>
		</g>
		<g>
			<g>
				<path d="M62.2,467c-0.2,4.2-0.4,8.4-0.6,12.6c-0.1,2.2-0.4,4.8,0.9,6.8c2.7,4.3,7.6,1.5,10-1.5c1.2-1.5-0.9-3.6-2.1-2.1
					c-0.6,0.9-1.4,1.7-2.3,2.3c-2.7,0.2-3.9-0.7-3.6-2.9c0-1.4,0.1-2.8,0.2-4.2c0.2-3.7,0.3-7.3,0.5-11
					C65.3,465.1,62.3,465.1,62.2,467L62.2,467z"/>
			</g>
		</g>
		<g>
			<g>
				<path d="M55.4,468.4c1.5-2.3,4.1-6.1,7.2-2.7c0.7,0.8,1,2,1.6,2.9c0.8,1.2,1.7,2.3,3.2,2.7c4.9,1.5,7.1-4.2,7.6-7.8
					c0.3-1.9-2.6-2.7-2.9-0.8c-0.3,2-1,7.4-4.6,5.3c-0.7-0.4-1.1-1.7-1.5-2.4c-0.8-1.5-1.6-3-3.2-3.8c-4.3-2.2-7.8,1.8-9.9,5
					C51.8,468.5,54.4,470,55.4,468.4L55.4,468.4z"/>
			</g>
		</g>
	</g>
	<g>
		<g>
			<g>
				<path d="M32.6,507.2c-2.7,9.5-4.8,20-4.6,30c0.2,7,7,6.1,12.3,4.4c1.8-0.6,1-3.5-0.8-2.9c-3.7,1.2-7.5,2.1-8.5-2.5
					c-0.6-2.6,0.4-6.8,0.7-9.5c0.7-6.4,2-12.6,3.8-18.8C36,506.2,33.1,505.4,32.6,507.2L32.6,507.2z"/>
			</g>
		</g>
		<g>
			<g>
				<path d="M22.3,525.8c5.7-1.5,11.5-1.7,17.3-0.5c1.9,0.4,2.7-2.5,0.8-2.9c-6.3-1.3-12.6-1.1-18.9,0.5
					C19.6,523.4,20.4,526.3,22.3,525.8L22.3,525.8z"/>
			</g>
		</g>
		<g>
			<g>
				<path d="M43,531.9c-0.3,5.8-0.1,11.5,0.8,17.2c0.3,1.9,3.2,1.1,2.9-0.8c-0.8-5.5-1-10.9-0.7-16.4
					C46.1,529.9,43.1,529.9,43,531.9L43,531.9z"/>
			</g>
		</g>
		<g>
			<g>
				<path d="M51.6,534.5c-2.1,2.8-4.4,5.3-6.9,7.7c-0.7,0.6-0.6,1.9,0.3,2.4c3.5,1.7,7.1,3.4,10.6,5.1c1.7,0.8,3.3-1.8,1.5-2.6
					c-3.5-1.7-7.1-3.4-10.6-5.1c0.1,0.8,0.2,1.6,0.3,2.4c2.7-2.6,5.1-5.4,7.4-8.3C55.4,534.5,52.8,533,51.6,534.5L51.6,534.5z"/>
			</g>
		</g>
		<g>
			<g>
				<path d="M57.6,537c0.4,2.1,0.7,4.1,0.9,6.2c0.1,1.9,3.1,1.9,3,0c-0.2-2.4-0.5-4.7-1-7C60.1,534.4,57.2,535.2,57.6,537L57.6,537z
					"/>
			</g>
		</g>
		<g>
			<g>
				<path d="M56.8,540.7c1.7-0.1,3.5-0.3,5.2-0.4c1.9-0.1,1.9-3.1,0-3c-1.7,0.1-3.5,0.3-5.2,0.4C54.9,537.9,54.9,540.9,56.8,540.7
					L56.8,540.7z"/>
			</g>
		</g>
		<g>
			<g>
				<path d="M67.8,538.8c2.3-2.3,3.5-4.9,3.8-8.2c-1,0-2,0-3,0c0.1,5.7,0.1,11.5,0.6,17.2c0.5-0.5,1-1,1.5-1.5
					c-1.2,0.1-2.1,0.3-3.3,0.7c-1.5,0.6-1.4,3,0.4,2.9c1.9-0.1,3.7-0.2,5.5-0.5c1.9-0.3,1.1-3.2-0.8-2.9c-1.6,0.3-3.1,0.4-4.7,0.4
					c0.1,1,0.3,2,0.4,2.9c0.8-0.4,1.6-0.6,2.5-0.6c0.8-0.1,1.6-0.6,1.5-1.5c-0.5-5.7-0.5-11.5-0.6-17.2c0-2-2.8-1.9-3,0
					c-0.3,2.4-1.3,4.3-2.9,6C64.3,538,66.4,540.1,67.8,538.8L67.8,538.8z"/>
			</g>
		</g>
	</g>
</g>
</svg>
