<?xml version="1.0" encoding="UTF-8" standalone="no"?>
<!-- Generator: Adobe Illustrator 23.0.3, SVG Export Plug-In . SVG Version: 6.00 Build 0)  -->

<svg
   version="1.1"
   x="0px"
   y="0px"
   viewBox="0 0 1400 623.6"
   xml:space="preserve"
   id="svg189219"
   sodipodi:docname="models_2.svg"
   width="1400"
   height="623.59998"
   inkscape:version="1.2.2 (1:1.2.2+202212051552+b0a8486541)"
   xmlns:inkscape="http://www.inkscape.org/namespaces/inkscape"
   xmlns:sodipodi="http://sodipodi.sourceforge.net/DTD/sodipodi-0.dtd"
   xmlns:xlink="http://www.w3.org/1999/xlink"
   xmlns="http://www.w3.org/2000/svg"
   xmlns:svg="http://www.w3.org/2000/svg"><defs
   id="defs189223" /><sodipodi:namedview
   id="namedview189221"
   pagecolor="#ffffff"
   bordercolor="#000000"
   borderopacity="0.25"
   inkscape:showpageshadow="2"
   inkscape:pageopacity="0.0"
   inkscape:pagecheckerboard="0"
   inkscape:deskcolor="#d1d1d1"
   showgrid="false"
   inkscape:zoom="0.37844774"
   inkscape:cx="603.78218"
   inkscape:cy="311.79999"
   inkscape:window-width="1221"
   inkscape:window-height="778"
   inkscape:window-x="59"
   inkscape:window-y="22"
   inkscape:window-maximized="1"
   inkscape:current-layer="svg189219" />
<style
   type="text/css"
   id="style189065">
	.st0{clip-path:url(#SVGID_2_);fill:none;stroke:#FFFFFF;stroke-width:3;stroke-linecap:round;stroke-linejoin:round;}
	.st1{clip-path:url(#SVGID_4_);fill:none;stroke:#1F77B4;stroke-linecap:round;stroke-linejoin:round;}
	.st2{clip-path:url(#SVGID_6_);fill:#FFFFFF;stroke:#FFFFFF;stroke-width:3;stroke-linecap:round;stroke-linejoin:round;}
	.st3{clip-path:url(#SVGID_8_);fill:#FFFFFF;stroke:#1F77B4;stroke-linecap:round;stroke-linejoin:round;}
	.st4{clip-path:url(#SVGID_10_);fill:none;stroke:#FFFFFF;stroke-width:3;stroke-linecap:round;stroke-linejoin:round;}
	.st5{clip-path:url(#SVGID_12_);fill:none;stroke:#1F77B4;stroke-linecap:round;stroke-linejoin:round;}
	.st6{clip-path:url(#SVGID_14_);fill:#FFFFFF;stroke:#FFFFFF;stroke-width:3;stroke-linecap:round;stroke-linejoin:round;}
	.st7{clip-path:url(#SVGID_16_);fill:#FFFFFF;stroke:#1F77B4;stroke-linecap:round;stroke-linejoin:round;}
	
		.st8{clip-path:url(#SVGID_18_);fill:#1E75B3;fill-opacity:0.2;stroke:#1E73AF;stroke-width:2;stroke-linejoin:round;stroke-dasharray:8,2;}
	
		.st9{clip-path:url(#SVGID_20_);fill:#FF7D0A;fill-opacity:0.2;stroke:#FF7D0A;stroke-width:2;stroke-linejoin:round;stroke-dasharray:8,2;}
	
		.st10{clip-path:url(#SVGID_22_);fill:#28A028;fill-opacity:0.2;stroke:#28A028;stroke-width:2;stroke-linejoin:round;stroke-dasharray:8,2;}
</style>
<g
   id="Layer_2">
</g>
<g
   id="Layer_3">
</g>
<g
   id="Layer_1">
	<g
   id="Слой_8">
	</g>
	<g
   id="Слой_16">
	</g>
	<g
   id="Time_scale">
	</g>
	<g
   id="Now_line">
	</g>
	<g
   id="Слой_10">
	</g>
	<g
   id="Слой_9">
	</g>
	<g
   id="figure_1_1_">
		<g
   id="axes_1_1_">
			<g
   id="patch_6_1_">
				<g
   id="g189082">
					<defs
   id="defs189076">
						<rect
   id="SVGID_1_"
   x="241.7"
   y="178.39999"
   width="141.7"
   height="121.1" />
					</defs>
					<clipPath
   id="SVGID_2_">
						<use
   xlink:href="#SVGID_1_"
   style="overflow:visible"
   id="use189078" />
					</clipPath>
					<path
   id="path117609"
   class="st0"
   d="m 307.9,245.7 h -0.6 -0.6 l -0.6,-0.1 h -0.6 -0.6 -0.6 -0.6 -0.6 -0.6 -0.6 -0.6 l -0.6,-0.1 h -0.6 -0.6 -0.6 -0.6 -0.6 -0.6 -0.6 -0.6 -0.6 -0.6 -0.6 -0.6 -0.6 -0.6 -0.6 -0.6 -0.6 -0.6 -0.6 -0.6 -0.6 -0.6 -0.6 -0.6 -0.6 -0.6 -0.6 -0.6 l -0.6,0.1 h -0.6 l -0.6,0.1 h -0.6 -0.6 -0.6 -0.6 l -1.1,0.1"
   clip-path="url(#SVGID_2_)" />
				</g>
				<g
   id="g189091">
					<defs
   id="defs189085">
						<rect
   id="SVGID_3_"
   x="241.7"
   y="178.39999"
   width="141.7"
   height="121.1" />
					</defs>
					<clipPath
   id="SVGID_4_">
						<use
   xlink:href="#SVGID_3_"
   style="overflow:visible"
   id="use189087" />
					</clipPath>
					<path
   id="path117611"
   class="st1"
   d="m 307.9,245.7 h -0.6 -0.6 l -0.6,-0.1 h -0.6 -0.6 -0.6 -0.6 -0.6 -0.6 -0.6 -0.6 l -0.6,-0.1 h -0.6 -0.6 -0.6 -0.6 -0.6 -0.6 -0.6 -0.6 -0.6 -0.6 -0.6 -0.6 -0.6 -0.6 -0.6 -0.6 -0.6 -0.6 -0.6 -0.6 -0.6 -0.6 -0.6 -0.6 -0.6 -0.6 -0.6 -0.6 l -0.6,0.1 h -0.6 l -0.6,0.1 h -0.6 -0.6 -0.6 -0.6 l -1.1,0.1"
   clip-path="url(#SVGID_4_)" />
				</g>
				<g
   id="g189100">
					<defs
   id="defs189094">
						<rect
   id="SVGID_5_"
   x="241.7"
   y="178.39999"
   width="141.7"
   height="121.1" />
					</defs>
					<clipPath
   id="SVGID_6_">
						<use
   xlink:href="#SVGID_5_"
   style="overflow:visible"
   id="use189096" />
					</clipPath>
					<path
   id="path117613"
   class="st2"
   d="m 281.2,246.8 -0.5,-0.3 -0.5,-0.3 -0.5,-0.3 -0.8,-0.4 h 0.6 l 0.5,-0.2 0.5,-0.2 0.8,-0.4 -0.4,0.4 v 0.6 1.2 h 0.3 z"
   clip-path="url(#SVGID_6_)" />
				</g>
				<g
   id="g189109">
					<defs
   id="defs189103">
						<rect
   id="SVGID_7_"
   x="241.7"
   y="178.39999"
   width="141.7"
   height="121.1" />
					</defs>
					<clipPath
   id="SVGID_8_">
						<use
   xlink:href="#SVGID_7_"
   style="overflow:visible"
   id="use189105" />
					</clipPath>
					<path
   id="path117615"
   class="st3"
   d="m 281.2,246.8 -0.5,-0.3 -0.5,-0.3 -0.5,-0.3 -0.8,-0.4 h 0.6 l 0.5,-0.2 0.5,-0.2 0.8,-0.4 -0.4,0.4 v 0.6 1.2 h 0.3 z"
   clip-path="url(#SVGID_8_)" />
				</g>
				<g
   id="patch_7">
					<g
   id="g189118">
						<defs
   id="defs189112">
							<rect
   id="SVGID_9_"
   x="241.7"
   y="178.39999"
   width="141.7"
   height="121.1" />
						</defs>
						<clipPath
   id="SVGID_10_">
							<use
   xlink:href="#SVGID_9_"
   style="overflow:visible"
   id="use189114" />
						</clipPath>
						<path
   id="path117617"
   class="st4"
   d="m 317.2,245.7 h 0.6 0.6 l 0.6,0.1 h 0.6 0.6 0.6 0.6 0.6 0.6 0.6 0.6 l 0.6,0.1 h 0.6 0.6 0.6 0.6 0.6 0.6 0.6 0.6 0.6 0.6 0.6 0.6 0.6 0.6 0.6 0.6 0.6 0.6 0.6 0.6 0.6 0.6 0.6 0.6 0.6 0.6 0.6 0.6 l 0.6,-0.1 h 1.2"
   clip-path="url(#SVGID_10_)" />
					</g>
					<g
   id="g189127">
						<defs
   id="defs189121">
							<rect
   id="SVGID_11_"
   x="241.7"
   y="178.39999"
   width="141.7"
   height="121.1" />
						</defs>
						<clipPath
   id="SVGID_12_">
							<use
   xlink:href="#SVGID_11_"
   style="overflow:visible"
   id="use189123" />
						</clipPath>
						<path
   id="path117619"
   class="st5"
   d="m 317.2,245.7 h 0.6 0.6 l 0.6,0.1 h 0.6 0.6 0.6 0.6 0.6 0.6 0.6 0.6 l 0.6,0.1 h 0.6 0.6 0.6 0.6 0.6 0.6 0.6 0.6 0.6 0.6 0.6 0.6 0.6 0.6 0.6 0.6 0.6 0.6 0.6 0.6 0.6 0.6 0.6 0.6 0.6 0.6 0.6 0.6 l 0.6,-0.1 h 1.2"
   clip-path="url(#SVGID_12_)" />
					</g>
					<g
   id="g189136">
						<defs
   id="defs189130">
							<rect
   id="SVGID_13_"
   x="241.7"
   y="178.39999"
   width="141.7"
   height="121.1" />
						</defs>
						<clipPath
   id="SVGID_14_">
							<use
   xlink:href="#SVGID_13_"
   style="overflow:visible"
   id="use189132" />
						</clipPath>
						<path
   id="path117621"
   class="st6"
   d="m 340.4,244.5 0.5,0.3 0.5,0.3 0.5,0.3 0.8,0.4 h -0.6 l -0.5,0.2 -0.5,0.2 -0.8,0.4 0.4,-0.4 v -0.6 -1.2 h -0.3 z"
   clip-path="url(#SVGID_14_)" />
					</g>
					<g
   id="g189145">
						<defs
   id="defs189139">
							<rect
   id="SVGID_15_"
   x="241.7"
   y="178.39999"
   width="141.7"
   height="121.1" />
						</defs>
						<clipPath
   id="SVGID_16_">
							<use
   xlink:href="#SVGID_15_"
   style="overflow:visible"
   id="use189141" />
						</clipPath>
						<path
   id="path117623"
   class="st7"
   d="m 340.4,244.5 0.5,0.3 0.5,0.3 0.5,0.3 0.8,0.4 h -0.6 l -0.5,0.2 -0.5,0.2 -0.8,0.4 0.4,-0.4 v -0.6 -1.2 h -0.3 z"
   clip-path="url(#SVGID_16_)" />
					</g>
				</g>
			</g>
			<g
   id="PolyCollection_1_1_">
				<g
   id="g189156">
					<defs
   id="defs189150">
						<rect
   id="SVGID_17_"
   x="241.7"
   y="178.39999"
   width="141.7"
   height="121.1" />
					</defs>
					<clipPath
   id="SVGID_18_">
						<use
   xlink:href="#SVGID_17_"
   style="overflow:visible"
   id="use189152" />
					</clipPath>
					<path
   id="path117291"
   class="st8"
   d="m 316,178.4 h -7 v 24.2 0 43.1 h 7 v 0 -43.1 0 z"
   clip-path="url(#SVGID_18_)" />
				</g>
			</g>
			<g
   id="PolyCollection_2_1_">
				<g
   id="g189166">
					<defs
   id="defs189160">
						<rect
   id="SVGID_19_"
   x="241.7"
   y="178.39999"
   width="141.7"
   height="121.1" />
					</defs>
					<clipPath
   id="SVGID_20_">
						<use
   xlink:href="#SVGID_19_"
   style="overflow:visible"
   id="use189162" />
					</clipPath>
					<path
   id="path117297"
   class="st9"
   d="M 276.9,245.7 H 249 v 53.8 h 27.9 v 0 z"
   clip-path="url(#SVGID_20_)" />
				</g>
			</g>
			<g
   id="PolyCollection_3_1_">
				<g
   id="g189176">
					<defs
   id="defs189170">
						<rect
   id="SVGID_21_"
   x="241.7"
   y="178.39999"
   width="141.7"
   height="121.1" />
					</defs>
					<clipPath
   id="SVGID_22_">
						<use
   xlink:href="#SVGID_21_"
   style="overflow:visible"
   id="use189172" />
					</clipPath>
					<path
   id="path117303"
   class="st10"
   d="m 379.6,245.7 h -34.9 v 53.8 h 34.9 v 0 z"
   clip-path="url(#SVGID_22_)" />
				</g>
			</g>
		</g>
	</g>
</g>
<g
   id="Layer_4">
	<g
   id="g189186">
		<g
   id="g189184">
			<path
   d="m 44,242.2 c 1.9,-22 2.7,-44.1 2.5,-66.1 -1.3,0.2 -2.6,0.4 -3.9,0.5 3.9,10.7 7.5,21.6 10.7,32.5 0.5,1.8 3.5,2 3.9,0 2.2,-11.1 4.3,-22.2 6.5,-33.3 -1.2,0.2 -2.4,0.3 -3.7,0.5 3.2,4.4 3.3,12.2 4.1,17.5 1,6.6 1.9,13.3 2.5,19.9 0.6,5.9 1,11.8 1.3,17.6 0.2,3.6 -1.1,10 1.6,12.7 0.6,0.6 1.7,0.8 2.4,0.3 1,-0.6 1.3,-1.3 1.4,-2.4 0,-0.9 -0.7,-1.7 -1.5,-1.9 -0.1,0 -0.2,-0.1 -0.3,-0.1 -2.5,-0.7 -3.5,3.2 -1.1,3.9 0.1,0 0.2,0.1 0.3,0.1 -0.5,-0.6 -1,-1.3 -1.5,-1.9 0.2,-0.3 0.4,-0.7 0.6,-1 0.8,0.1 1.6,0.2 2.4,0.3 -1.1,-1.1 -0.3,-7.2 -0.4,-8.9 -0.1,-2.9 -0.3,-5.9 -0.5,-8.8 -0.4,-6.2 -1,-12.4 -1.8,-18.6 -0.7,-5.4 -1.4,-10.7 -2.3,-16.1 -0.8,-4.8 -1,-10.6 -3.9,-14.6 -0.9,-1.2 -3.3,-1.4 -3.7,0.5 -2.2,11.1 -4.3,22.2 -6.5,33.3 1.3,0 2.6,0 3.9,0 -3.2,-11 -6.8,-21.8 -10.7,-32.5 -0.7,-2 -4,-1.8 -3.9,0.5 0.2,22.1 -0.6,44.1 -2.5,66.1 -0.2,2.6 3.8,2.5 4.1,0 z"
   id="path189182" />
		</g>
	</g>
	<g
   id="g189192">
		<g
   id="g189190">
			<path
   d="m 77.3,227.2 c -0.3,3.7 -1,9.9 1.6,13 1.8,2.2 5.3,2 7.8,2 8.3,-0.1 12.2,-5.5 11.4,-13.5 C 97.5,223 95.2,214 87.6,215 c -6.6,0.9 -11.4,10.3 -9,16.2 1,2.4 4.8,1.3 3.9,-1.1 -1.3,-3.3 0.8,-9.3 4.4,-10.8 6.4,-2.4 7.3,7.6 7.4,11.3 0.1,5.8 -3.7,7.6 -8.9,7.4 -5.5,-0.2 -4.4,-7 -4.1,-11 0.2,-2.3 -3.8,-2.3 -4,0.2 z"
   id="path189188" />
		</g>
	</g>
	<g
   id="g189198">
		<g
   id="g189196">
			<path
   d="m 121.3,229.1 c 1.5,-2.4 2.5,-5.6 -0.2,-7.6 -2.6,-1.9 -10.3,-2.6 -13.4,-1.4 -7.2,2.8 -8.3,16.5 -1.7,20.4 8.6,5.1 15.7,-4.8 17.1,-12.1 2.7,-13.6 2.4,-28.1 1.4,-41.8 -0.2,-2.5 -4.1,-2.6 -4,0 0.4,18.3 0.9,36.5 1.3,54.8 0.1,2.6 4.1,2.6 4,0 -0.4,-18.3 -0.9,-36.5 -1.3,-54.8 -1.3,0 -2.7,0 -4,0 1,13.1 1.2,27 -1.1,40 -0.6,3.2 -1.4,6.7 -3.8,9 -3.1,2.9 -7.9,2.8 -9.5,-1.4 -1.4,-3.5 0.2,-7.9 3.4,-9.5 2,-1 4.8,-1.5 7,-0.3 1.5,0.8 2.8,0.5 1.3,2.8 -1.3,2.1 2.1,4.1 3.5,1.9 z"
   id="path189194" />
		</g>
	</g>
	<g
   id="g189204">
		<g
   id="g189202">
			<path
   d="m 132,233.8 c 6.3,-1.7 13.1,-7.1 12.3,-14.3 -0.6,-5.9 -6.6,-9.8 -11.5,-5.4 -5.2,4.7 -5.1,15.7 -2.2,21.5 3.9,7.9 11.2,7.2 18,3.6 2.3,-1.2 0.3,-4.6 -2,-3.5 -4.1,2.1 -8.9,3.7 -11.9,-0.9 -2.1,-3.3 -2.2,-7.5 -1.7,-11.2 0.2,-1.3 0.5,-5.1 1.6,-5.7 1.8,0.3 3.6,0.6 5.5,1 0.4,1.5 0.2,3 -0.5,4.3 -1.4,3.7 -5.1,5.8 -8.8,6.8 -2.3,0.6 -1.3,4.4 1.2,3.8 z"
   id="path189200" />
		</g>
	</g>
	<g
   id="g189210">
		<g
   id="g189208">
			<path
   d="m 150.4,180.6 c 0,20.8 1.9,41.4 5.6,61.8 0.5,2.5 4.3,1.5 3.9,-1.1 -3.6,-20.1 -5.4,-40.4 -5.4,-60.8 -0.1,-2.5 -4.1,-2.5 -4.1,0.1 z"
   id="path189206" />
		</g>
	</g>
	<g
   id="g189216">
		<g
   id="g189214">
			<path
   d="m 200,212.4 c -3.1,-5.2 -2.6,-15.5 4.8,-17.3 9.8,-2.3 8.6,12 6,17.3 -2.4,4.9 -6.3,8.9 -9.8,13 -4.2,4.7 -8.5,9.5 -12.7,14.2 -1,1.1 -0.6,2.9 0.9,3.3 3.9,1.2 8.4,-0.1 12.2,-0.7 5.6,-0.8 11.2,-1.6 16.7,-2.4 2.5,-0.4 1.5,-4.2 -1.1,-3.9 -4.3,0.6 -8.5,1.2 -12.8,1.9 -4.1,0.6 -10.2,2.5 -14.1,1.3 0.3,1.1 0.6,2.2 0.9,3.3 6.9,-7.7 14.7,-15.2 20.6,-23.8 4.4,-6.3 7.2,-15.1 3.3,-22.4 -3.5,-6.5 -10.1,-7.2 -15.6,-2.6 -6.2,5.2 -7,13.9 -2.9,20.7 1.4,2.3 4.9,0.3 3.6,-1.9 z"
   id="path189212" />
		</g>
	</g>
</g>
</svg>
