<?xml version="1.0" encoding="UTF-8" standalone="no"?>
<!-- Generator: Adobe Illustrator 23.0.3, SVG Export Plug-In . SVG Version: 6.00 Build 0)  -->

<svg
   version="1.1"
   x="0px"
   y="0px"
   viewBox="0 0 1400 623.6"
   xml:space="preserve"
   id="svg195567"
   sodipodi:docname="models_7.svg"
   width="1400"
   height="623.59998"
   inkscape:version="1.2.2 (1:1.2.2+202212051552+b0a8486541)"
   xmlns:inkscape="http://www.inkscape.org/namespaces/inkscape"
   xmlns:sodipodi="http://sodipodi.sourceforge.net/DTD/sodipodi-0.dtd"
   xmlns="http://www.w3.org/2000/svg"
   xmlns:svg="http://www.w3.org/2000/svg"><defs
   id="defs195571" /><sodipodi:namedview
   id="namedview195569"
   pagecolor="#ffffff"
   bordercolor="#000000"
   borderopacity="0.25"
   inkscape:showpageshadow="2"
   inkscape:pageopacity="0.0"
   inkscape:pagecheckerboard="0"
   inkscape:deskcolor="#d1d1d1"
   showgrid="false"
   inkscape:zoom="0.37844774"
   inkscape:cx="603.78218"
   inkscape:cy="311.79999"
   inkscape:window-width="1221"
   inkscape:window-height="778"
   inkscape:window-x="59"
   inkscape:window-y="22"
   inkscape:window-maximized="1"
   inkscape:current-layer="svg195567" />
<style
   type="text/css"
   id="style195021">
	.st0{fill:#892903;}
</style>
<g
   id="Layer_2">
</g>
<g
   id="Layer_3">
</g>
<g
   id="Layer_1">
	<g
   id="Слой_8">
	</g>
	<g
   id="Слой_16">
	</g>
	<g
   id="Time_scale">
	</g>
	<g
   id="Now_line">
	</g>
	<g
   id="Слой_10">
	</g>
	<g
   id="Слой_9">
	</g>
</g>
<g
   id="Layer_4"
   transform="translate(40)">
	<g
   id="g195036">
		<g
   id="g195034">
			<path
   d="m 633.4,19.8 c -7.8,0.1 -15.1,1.7 -22.2,4.8 -0.6,0.3 -1,1.1 -1,1.7 -0.1,74.8 -0.2,149.6 -0.3,224.3 -0.1,74.4 -0.2,148.9 -0.3,223.3 0,42.2 -0.1,84.4 -0.1,126.6 0,1.3 1.3,2.2 2.5,1.9 7.5,-1.8 15,-3.5 22.4,-5.3 2.5,-0.6 1.4,-4.4 -1.1,-3.9 -7.5,1.8 -15,3.5 -22.4,5.3 0.8,0.6 1.7,1.3 2.5,1.9 0.1,-77.1 0.2,-154.2 0.3,-231.3 0.1,-76.8 0.2,-153.5 0.3,-230.3 0,-21.6 0,-43.2 0.1,-64.8 0,-11 0,-21.9 0,-32.9 0,-2.7 0,-5.3 0,-8 0,-3.3 -0.7,-5.2 2.8,-6.7 5,-2.2 11.1,-2.7 16.5,-2.7 2.5,0.1 2.6,-3.9 0,-3.9 z"
   id="path195032" />
		</g>
	</g>
	<g
   id="g195042">
		<g
   id="g195040">
			<path
   d="m 819.5,21.7 c 7.6,-2 15.1,-2.5 22.9,-1.3 -0.5,-0.6 -1,-1.3 -1.5,-1.9 3.2,76.9 5.4,153.7 3.3,230.6 -2.1,76.4 -6.4,152.7 -4.5,229.1 1,42.3 4.1,84.6 10.3,126.5 0.6,-0.8 1.3,-1.7 1.9,-2.5 -10.2,0.2 -20.5,0.4 -30.7,0.6 -2.6,0.1 -2.6,4.1 0,4 10.2,-0.2 20.5,-0.4 30.7,-0.6 1.4,0 2.1,-1.2 1.9,-2.5 -11.2,-75.3 -11.7,-151.6 -9.7,-227.6 2,-76 5.9,-151.9 4.9,-227.9 -0.6,-43.2 -2.3,-86.5 -4.1,-129.7 0,-0.8 -0.6,-1.8 -1.5,-1.9 -8.5,-1.3 -16.7,-0.8 -25,1.3 -2.4,0.6 -1.4,4.5 1.1,3.8 z"
   id="path195038" />
		</g>
	</g>
	<g
   id="g195048">
		<g
   id="g195046">
			<path
   d="m 631.4,36.6 c 1.8,19.8 2.2,39.7 1.1,59.6 -0.1,2.6 3.9,2.6 4,0 1.1,-19.9 0.7,-39.8 -1.1,-59.6 -0.2,-2.5 -4.2,-2.5 -4,0 z"
   id="path195044" />
		</g>
	</g>
	<g
   id="g195054">
		<g
   id="g195052">
			<path
   d="m 634.6,39 c 6.2,5.8 11.5,12.2 15.6,19.7 0.8,1.4 3.3,1.2 3.7,-0.5 1.7,-8.8 6.3,-16 13.1,-21.8 2,-1.7 -0.9,-4.5 -2.8,-2.8 -7.2,6.2 -12.3,14.1 -14.1,23.5 1.2,-0.2 2.4,-0.3 3.7,-0.5 -4.3,-7.7 -9.7,-14.5 -16.2,-20.5 -2,-1.7 -4.9,1.2 -3,2.9 z"
   id="path195050" />
		</g>
	</g>
	<g
   id="g195060">
		<g
   id="g195058">
			<path
   d="m 665.2,33.9 c -0.6,10.8 -1.3,21.5 -1.9,32.3 -0.3,4.8 -0.5,9.6 -0.2,14.4 0.1,2 0.3,3.9 0.6,5.9 0.1,0.7 1.9,7.4 2,7.3 0.8,-0.1 1.6,-0.2 2.4,-0.3 -0.1,-0.1 -0.2,-0.1 -0.3,-0.2 0.3,0.8 0.6,1.5 0.9,2.3 0,-0.1 0.1,-0.2 0.1,-0.4 -0.8,0.5 -1.6,0.9 -2.5,1.4 0.1,0 0.1,0 0.2,0.1 2.5,0.8 3.5,-3.1 1.1,-3.9 -0.1,0 -0.1,0 -0.2,-0.1 -1,-0.3 -2.2,0.4 -2.5,1.4 0,0.1 -0.1,0.2 -0.1,0.4 -0.2,0.8 0.2,1.8 0.9,2.3 0.1,0.1 0.2,0.1 0.3,0.2 0.7,0.4 1.8,0.3 2.4,-0.3 2.2,-2.5 0.1,-5.7 -0.5,-8.5 -1.2,-6 -1.1,-12.2 -0.9,-18.3 0.5,-12 1.4,-23.9 2,-35.9 0.3,-2.7 -3.7,-2.7 -3.8,-0.1 z"
   id="path195056" />
		</g>
	</g>
	<g
   id="g195066">
		<g
   id="g195064">
			<path
   d="m 673.1,79 c -2.8,7.2 1.7,15.8 9.7,16.4 8,0.6 14.5,-6.2 14.5,-14 0,-7.2 -5.6,-17.1 -14,-14.3 -6.9,2.3 -14.7,9.4 -9,16.8 1.6,2 4.4,-0.8 2.8,-2.8 -4.5,-5.8 8.1,-12.8 12.4,-9 3.5,3.2 4.8,8.9 3,13.3 -4.1,10.3 -19.8,5.8 -15.6,-5.3 1,-2.5 -2.9,-3.5 -3.8,-1.1 z"
   id="path195062" />
		</g>
	</g>
	<g
   id="g195072">
		<g
   id="g195070">
			<path
   d="m 719.7,80.2 c -0.3,-3.3 -0.9,-7.5 -3.9,-9.5 -3.3,-2.2 -7,-0.3 -9.4,2.3 -4.4,4.9 -8.6,18.5 -0.5,22.3 9.2,4.3 11.1,-14 11.5,-19 1.3,-13.7 -0.8,-27.4 1.8,-41 -1.3,-0.2 -2.6,-0.4 -3.9,-0.5 0.1,9.9 0.2,19.7 0.3,29.6 0,4.6 0.1,9.2 0.1,13.8 0,2.6 0,5.3 0.1,7.9 0,1.2 0.8,7 0,7.8 0.8,-0.1 1.6,-0.2 2.4,-0.3 0.2,0.4 0.5,0.7 0.7,1.1 -0.7,0.7 -1.3,1.3 -2,2 0.1,0 0.2,0 0.3,0 2.6,-0.1 2.6,-4.1 0,-4 -0.1,0 -0.2,0 -0.3,0 -1.2,0 -1.9,0.9 -2,2 -0.1,1.1 0.4,1.7 1.3,2.4 0.7,0.5 1.8,0.3 2.4,-0.3 2.3,-2.2 1.2,-6.8 1.2,-9.7 -0.1,-5.9 -0.1,-11.8 -0.2,-17.8 -0.1,-11.5 -0.2,-23 -0.3,-34.5 0,-2.2 -3.5,-2.8 -3.9,-0.5 -2.5,12.8 -0.9,25.7 -1.7,38.6 -0.2,3.6 -0.6,7.2 -1.4,10.7 -0.5,2.2 -3.6,12.8 -6.6,4.7 -1.1,-3.1 0.6,-7.7 2.1,-10.4 1.2,-2 3.6,-5.7 6.7,-2.8 1,0.9 1.1,4 1.2,5.1 0.2,2.6 4.2,2.6 4,0 z"
   id="path195068" />
		</g>
	</g>
	<g
   id="g195078">
		<g
   id="g195076">
			<path
   d="m 725.6,89.8 c 4.8,-3.1 16.9,-8.4 13.4,-16.2 -2.3,-5.1 -9.6,-4.7 -12.9,-1 -4,4.4 -5.2,13.7 -1.9,18.8 4.7,7.1 17.8,2.5 23.9,0.1 2.4,-0.9 1.3,-4.8 -1.1,-3.9 -4.2,1.7 -9.9,3.8 -14.5,3.3 -2.5,-0.3 -5.1,-1 -5.9,-3.7 -0.6,-2 -0.3,-4.5 0,-6.5 0.4,-2.3 1.3,-5.2 3.6,-6.4 2,-1 6.2,-0.7 4.9,3.4 -1.2,3.6 -8.6,6.7 -11.6,8.7 -2.1,1.3 -0.1,4.8 2.1,3.4 z"
   id="path195074" />
		</g>
	</g>
	<g
   id="g195084">
		<g
   id="g195082">
			<path
   d="m 748,33.9 c 0,20 0.7,40 2.2,59.9 0.2,2.6 4.2,2.6 4,0 -1.5,-19.9 -2.2,-39.9 -2.2,-59.9 0,-2.6 -4,-2.6 -4,0 z"
   id="path195080" />
		</g>
	</g>
	<g
   id="g195090">
		<g
   id="g195088">
			<path
   d="m 789.2,63.4 c 13.2,-1.2 16.5,-15.3 19.8,-25.9 -1.3,-0.4 -2.6,-0.7 -3.9,-1.1 -5.1,18.2 -7.1,37 -6.1,55.9 0.7,-0.7 1.3,-1.3 2,-2 -3.5,-0.2 -6.6,0.3 -9.9,1.4 0.4,1.3 0.7,2.6 1.1,3.9 2.5,-1 5.1,-1.6 7.8,-1.6 2,0 4.6,1.2 6.6,0.6 1.6,-0.5 2.5,-1.9 1.8,-3.5 -1,-2.3 -4.8,-1.3 -3.9,1.1 -0.7,-1.7 -0.4,-1.5 -2,-2 -1.2,-0.4 -3.1,-0.2 -4.3,-0.1 -2.5,0.2 -4.8,0.8 -7.2,1.7 -2.4,0.9 -1.4,4.7 1.1,3.9 2.9,-1 5.7,-1.3 8.8,-1.2 1,0 2.1,-1 2,-2 -1,-18.5 1,-37 6,-54.8 0.7,-2.5 -3.1,-3.5 -3.9,-1.1 -2.6,8.5 -5.1,22 -16,23 -2.4,0 -2.4,4 0.2,3.8 z"
   id="path195086" />
		</g>
	</g>
	<g
   id="g195096">
		<g
   id="g195094">
			<path
   d="m 640.7,242.2 c 1.9,-22 2.7,-44.1 2.5,-66.1 -1.3,0.2 -2.6,0.4 -3.9,0.5 3.9,10.7 7.5,21.6 10.7,32.5 0.5,1.8 3.5,2 3.9,0 2.2,-11.1 4.3,-22.2 6.5,-33.3 -1.2,0.2 -2.4,0.3 -3.7,0.5 3.2,4.4 3.3,12.2 4.1,17.5 1,6.6 1.9,13.3 2.5,19.9 0.6,5.9 1,11.8 1.3,17.6 0.2,3.6 -1.1,10 1.6,12.7 0.6,0.6 1.7,0.8 2.4,0.3 1,-0.6 1.3,-1.3 1.4,-2.4 0,-0.9 -0.7,-1.7 -1.5,-1.9 -0.1,0 -0.2,-0.1 -0.3,-0.1 -2.5,-0.7 -3.5,3.2 -1.1,3.9 0.1,0 0.2,0.1 0.3,0.1 -0.5,-0.6 -1,-1.3 -1.5,-1.9 0.2,-0.3 0.4,-0.7 0.6,-1 0.8,0.1 1.6,0.2 2.4,0.3 -1.1,-1.1 -0.3,-7.2 -0.4,-8.9 -0.1,-2.9 -0.3,-5.9 -0.5,-8.8 -0.4,-6.2 -1,-12.4 -1.8,-18.6 -0.7,-5.4 -1.4,-10.7 -2.3,-16.1 -0.8,-4.8 -1,-10.6 -3.9,-14.6 -0.9,-1.2 -3.3,-1.4 -3.7,0.5 -2.2,11.1 -4.3,22.2 -6.5,33.3 1.3,0 2.6,0 3.9,0 -3.2,-11 -6.8,-21.8 -10.7,-32.5 -0.7,-2 -4,-1.8 -3.9,0.5 0.2,22.1 -0.6,44.1 -2.5,66.1 -0.1,2.6 3.9,2.5 4.1,0 z"
   id="path195092" />
		</g>
	</g>
	<g
   id="g195102">
		<g
   id="g195100">
			<path
   d="m 674.1,227.2 c -0.3,3.7 -1,9.9 1.6,13 1.8,2.2 5.3,2 7.8,2 8.3,-0.1 12.2,-5.5 11.4,-13.5 C 694.3,223 692,214 684.4,215 c -6.6,0.9 -11.4,10.3 -9,16.2 1,2.4 4.8,1.3 3.9,-1.1 -1.3,-3.3 0.8,-9.3 4.4,-10.8 6.4,-2.4 7.3,7.6 7.4,11.3 0.1,5.8 -3.7,7.6 -8.9,7.4 -5.5,-0.2 -4.4,-7 -4.1,-11 0.2,-2.3 -3.8,-2.3 -4,0.2 z"
   id="path195098" />
		</g>
	</g>
	<g
   id="g195108">
		<g
   id="g195106">
			<path
   d="m 718.1,229.1 c 1.5,-2.4 2.5,-5.6 -0.2,-7.6 -2.6,-1.9 -10.3,-2.6 -13.4,-1.4 -7.2,2.8 -8.3,16.5 -1.7,20.4 8.6,5.1 15.7,-4.8 17.1,-12.1 2.7,-13.6 2.4,-28.1 1.4,-41.8 -0.2,-2.5 -4.1,-2.6 -4,0 0.4,18.3 0.9,36.5 1.3,54.8 0.1,2.6 4.1,2.6 4,0 -0.4,-18.3 -0.9,-36.5 -1.3,-54.8 -1.3,0 -2.7,0 -4,0 1,13.1 1.2,27 -1.1,40 -0.6,3.2 -1.4,6.7 -3.8,9 -3.1,2.9 -7.9,2.8 -9.5,-1.4 -1.4,-3.5 0.2,-7.9 3.4,-9.5 2,-1 4.8,-1.5 7,-0.3 1.5,0.8 2.8,0.5 1.3,2.8 -1.3,2.1 2.1,4.1 3.5,1.9 z"
   id="path195104" />
		</g>
	</g>
	<g
   id="g195114">
		<g
   id="g195112">
			<path
   d="m 728.8,233.8 c 6.3,-1.7 13.1,-7.1 12.3,-14.3 -0.6,-5.9 -6.6,-9.8 -11.5,-5.4 -5.2,4.7 -5.1,15.7 -2.2,21.5 3.9,7.9 11.2,7.2 18,3.6 2.3,-1.2 0.3,-4.6 -2,-3.5 -4.1,2.1 -8.9,3.7 -11.9,-0.9 -2.1,-3.3 -2.2,-7.5 -1.7,-11.2 0.2,-1.3 0.5,-5.1 1.6,-5.7 1.8,0.3 3.6,0.6 5.5,1 0.4,1.5 0.2,3 -0.5,4.3 -1.4,3.7 -5.1,5.8 -8.8,6.8 -2.3,0.6 -1.3,4.4 1.2,3.8 z"
   id="path195110" />
		</g>
	</g>
	<g
   id="g195120">
		<g
   id="g195118">
			<path
   d="m 747.2,180.6 c 0,20.8 1.9,41.4 5.6,61.8 0.5,2.5 4.3,1.5 3.9,-1.1 -3.6,-20.1 -5.4,-40.4 -5.4,-60.8 -0.1,-2.5 -4.1,-2.5 -4.1,0.1 z"
   id="path195116" />
		</g>
	</g>
	<g
   id="g195126">
		<g
   id="g195124">
			<path
   d="m 796.8,212.4 c -3.1,-5.2 -2.6,-15.5 4.8,-17.3 9.8,-2.3 8.6,12 6,17.3 -2.4,4.9 -6.3,8.9 -9.8,13 -4.2,4.7 -8.5,9.5 -12.7,14.2 -1,1.1 -0.6,2.9 0.9,3.3 3.9,1.2 8.4,-0.1 12.2,-0.7 5.6,-0.8 11.2,-1.6 16.7,-2.4 2.5,-0.4 1.5,-4.2 -1.1,-3.9 -4.3,0.6 -8.5,1.2 -12.8,1.9 -4.1,0.6 -10.2,2.5 -14.1,1.3 0.3,1.1 0.6,2.2 0.9,3.3 6.9,-7.7 14.7,-15.2 20.6,-23.8 4.4,-6.3 7.2,-15.1 3.3,-22.4 -3.5,-6.5 -10.1,-7.2 -15.6,-2.6 -6.2,5.2 -7,13.9 -2.9,20.7 1.4,2.3 4.9,0.3 3.6,-1.9 z"
   id="path195122" />
		</g>
	</g>
	<g
   id="g195132">
		<g
   id="g195130">
			<path
   d="m 646.3,381.5 c -0.6,-10 -1.1,-20.1 -1.7,-30.1 -0.5,-9.8 -1.5,-19.7 1.8,-29.1 -1.3,0 -2.6,0 -3.9,0 2.5,10.1 5.6,20.1 9.4,29.8 0.6,1.5 2.8,2.1 3.7,0.5 5,-9.2 4.9,-20.9 11.5,-29.2 -1.1,-0.5 -2.3,-0.9 -3.4,-1.4 0.7,18.5 2.9,36.9 6.6,55 0.4,1.9 3.5,1.9 3.9,0 0.1,-0.5 0.2,-1.1 0.3,-1.6 0.4,-2.5 -3.4,-3.6 -3.9,-1.1 -0.1,0.5 -0.2,1.1 -0.3,1.6 1.3,0 2.6,0 3.9,0 -3.6,-17.8 -5.8,-35.8 -6.5,-53.9 -0.1,-1.6 -2.3,-2.9 -3.4,-1.4 -7,8.8 -6.9,20.4 -12.1,30 1.2,0.2 2.4,0.3 3.7,0.5 -3.8,-9.7 -6.9,-19.7 -9.4,-29.8 -0.5,-2 -3.2,-1.8 -3.9,0 -3.3,9.1 -2.6,18.7 -2.1,28.2 0.6,10.7 1.2,21.3 1.8,32 0.1,2.5 4.1,2.5 4,0 z"
   id="path195128" />
		</g>
	</g>
	<g
   id="g195138">
		<g
   id="g195136">
			<path
   d="m 676.8,367 c -2.1,5.7 2.5,11.8 8.5,12 7.4,0.2 12.8,-6.8 13.5,-13.6 0.6,-6.2 -2.6,-13.4 -9.8,-12.8 -8.3,0.7 -11.1,9.2 -12.5,16.1 -0.5,2.5 3.3,3.6 3.9,1.1 0.8,-3.8 1.5,-8.4 4.6,-11.2 4.4,-4 9.4,-1.4 9.9,4.2 0.4,4.4 -1.8,9.4 -5.9,11.4 -4.3,2.1 -10.3,-0.8 -8.3,-6.1 0.8,-2.4 -3,-3.5 -3.9,-1.1 z"
   id="path195134" />
		</g>
	</g>
	<g
   id="g195144">
		<g
   id="g195142">
			<path
   d="m 718.9,366.5 c 2.4,-7.6 -5.7,-14.8 -12.7,-9.8 -6,4.3 -6.4,17.8 0.5,21.6 9.8,5.4 13.6,-8.6 13.9,-15.3 0.3,-6.6 0.2,-13.2 1,-19.8 0.8,-6.5 1.4,-12.9 0.2,-19.4 -0.4,-2.3 -3.9,-1.7 -3.9,0.5 -0.2,9.3 -0.3,18.5 -0.5,27.8 -0.1,8.2 -0.7,16.5 0.9,24.6 0.5,2.5 4.3,1.5 3.9,-1.1 -1.6,-8.3 -0.9,-17 -0.7,-25.5 0.1,-8.6 0.3,-17.2 0.4,-25.8 -1.3,0.2 -2.6,0.4 -3.9,0.5 2,11.2 -1.1,23.2 -1.3,34.5 0,3 0,6.1 -0.6,9 -0.8,3.8 -5.2,10.6 -9.1,4.5 -1.6,-2.6 -1.2,-6.3 -0.4,-9.1 0.5,-1.7 1.7,-4 3.6,-4.5 4.2,-1.1 5.9,3.2 5,6.2 -0.9,2.5 2.9,3.5 3.7,1.1 z"
   id="path195140" />
		</g>
	</g>
	<g
   id="g195150">
		<g
   id="g195148">
			<path
   d="m 727.2,369.2 c 5.6,-0.7 17.2,1.6 17.8,-7.2 0.5,-6.7 -9.6,-10.7 -14.6,-7 -5.1,3.8 -4.4,12.6 -1.1,17.2 4.3,5.9 12.8,6.8 18.7,2.9 2.1,-1.4 0.1,-4.9 -2,-3.5 -7.2,4.8 -17.2,-0.9 -15.1,-9.9 0.6,-2.4 2.3,-3.9 4.9,-3.9 2.9,0 6.8,2.8 4.1,5.7 -2.7,3 -9.2,1.2 -12.7,1.6 -2.6,0.4 -2.6,4.4 0,4.1 z"
   id="path195146" />
		</g>
	</g>
	<g
   id="g195156">
		<g
   id="g195154">
			<path
   d="m 752.5,326.1 c -0.6,16.9 0,33.8 1.6,50.6 0.3,2.5 4.3,2.6 4,0 -1.7,-16.8 -2.2,-33.7 -1.6,-50.6 0.1,-2.6 -3.9,-2.6 -4,0 z"
   id="path195152" />
		</g>
	</g>
	<g
   id="g195162">
		<g
   id="g195160">
			<path
   d="m 799.3,342.6 c 0.6,-2.9 4.9,-5 7.8,-4.4 2.9,0.6 3.9,3.3 2.6,5.8 -1,1.9 -3.4,3.4 -5.2,4.6 -1.5,1 -1.1,3.9 1,3.7 1.4,-0.1 3.4,-0.4 4.8,0.1 2.7,0.9 3.9,5 4.7,7.5 1.2,3.7 2.6,8.4 -0.3,11.4 -2.7,2.8 -7,2.7 -10.8,2.6 -3.2,-0.1 -13.7,-0.3 -9.9,-7 1.3,-2.2 -2.2,-4.3 -3.5,-2 -7.9,14.1 18.4,15.8 26.1,10.8 5.5,-3.6 3.9,-11.5 2.2,-16.8 -2.2,-7.3 -5.4,-11.2 -13.3,-10.5 0.3,1.2 0.7,2.5 1,3.7 5,-3.3 12.4,-11.4 4.9,-16.5 -5.1,-3.5 -14.7,-0.2 -16,6 -0.5,2.4 3.3,3.5 3.9,1 z"
   id="path195158" />
		</g>
	</g>
	<g
   id="g195168">
		<g
   id="g195166">
			<path
   d="m 647.8,529.8 c 0.1,-11.7 0.3,-23.3 0.4,-35 0.1,-5.5 0.1,-11 0.2,-16.5 0.1,-5.6 -0.4,-11.6 1.6,-17 -1.3,0 -2.6,0 -3.9,0 2.2,11.5 6.6,22.3 13,32 0.9,1.4 3.1,1.2 3.7,-0.5 3.4,-11.1 7,-22.2 10.8,-33.2 -1.2,0.2 -2.4,0.3 -3.7,0.5 3,4.8 3.6,10.1 4.1,15.6 0.5,5.8 1,11.6 1.5,17.5 1,11.6 2,23.3 3,34.9 0.2,2.5 4.2,2.6 4,0 -1.1,-12.9 -2.2,-25.9 -3.3,-38.8 -0.9,-10.1 -0.2,-22.3 -5.8,-31.2 -1,-1.5 -3.1,-1.1 -3.7,0.5 -3.8,11 -7.4,22.1 -10.8,33.2 1.2,-0.2 2.4,-0.3 3.7,-0.5 -6.3,-9.5 -10.5,-19.9 -12.6,-31.1 -0.4,-2.1 -3.2,-1.6 -3.9,0 -1.8,4.6 -1.7,9.4 -1.7,14.2 -0.1,6.2 -0.2,12.3 -0.2,18.5 -0.2,12.3 -0.3,24.6 -0.5,36.9 0.1,2.6 4.1,2.6 4.1,0 z"
   id="path195164" />
		</g>
	</g>
	<g
   id="g195174">
		<g
   id="g195172">
			<path
   d="m 685.7,513 c -0.8,6.8 1,14.9 8.4,17.2 7,2.2 12.1,-3.8 13.7,-10.1 1.4,-5.3 0.8,-14.6 -5.6,-16.7 -7.3,-2.4 -12.8,6.2 -15.6,11.4 -1.2,2.3 2.2,4.3 3.5,2 1.8,-3.4 4.3,-8.7 8.5,-9.6 6.3,-1.3 6.2,8.1 5.3,11.7 -1.1,4.5 -4.9,9.7 -10,6.7 -4.6,-2.6 -4.7,-8.2 -4.2,-12.8 0.2,-2.4 -3.8,-2.4 -4,0.2 z"
   id="path195170" />
		</g>
	</g>
	<g
   id="g195180">
		<g
   id="g195178">
			<path
   d="m 729.3,511.8 c 0.5,-3.2 -0.2,-7.1 -3.6,-8.4 -3.5,-1.3 -7.7,2.3 -10.3,4 -3.9,2.5 -3.1,6.8 -3.2,11 0,4 -0.1,8.9 4.4,10.7 10.2,4 13.6,-11.1 15.1,-17.6 3.1,-13.8 3.8,-28 4.5,-42.1 -1.3,0 -2.7,0 -4,0 -0.8,17.5 -1.5,35.1 -2.3,52.6 -0.1,2.6 3.9,2.6 4,0 0.8,-17.5 1.5,-35.1 2.3,-52.6 0.1,-2.6 -3.9,-2.6 -4,0 -0.7,13.7 -1.3,27.6 -4.3,41.1 -0.7,2.9 -1.4,5.9 -2.4,8.8 -0.6,1.8 -1.3,3.5 -2.8,4.7 -3,2.4 -6.1,-0.5 -6.5,-3.8 -0.4,-3.2 -0.4,-7.6 2.2,-9.7 1.1,-0.9 7.9,-4.8 7.1,0.3 -0.4,2.4 3.4,3.5 3.8,1 z"
   id="path195176" />
		</g>
	</g>
	<g
   id="g195186">
		<g
   id="g195184">
			<path
   d="m 729.3,514.7 c 0.4,4.5 0.8,9 1.3,13.5 0.2,2.5 4.2,2.6 4,0 -0.4,-4.5 -0.8,-9 -1.3,-13.5 -0.2,-2.6 -4.2,-2.6 -4,0 z"
   id="path195182" />
		</g>
	</g>
	<g
   id="g195192">
		<g
   id="g195190">
			<path
   d="m 739.2,519.8 c 4.7,-1.6 16.6,-3.9 16.4,-10.8 -0.2,-6.8 -8.7,-6.8 -12.3,-2.9 -3.9,4.2 -6.1,13.3 -3,18.5 3.4,5.6 12.7,4.9 17.7,2.2 2.3,-1.2 0.2,-4.7 -2,-3.5 -2.4,1.3 -7.2,2 -9.9,1 -4.5,-1.6 -3.2,-7.2 -2.2,-10.6 0.4,-1.5 0.8,-3.5 2.1,-4.5 1.1,-1.9 2.4,-1.3 4.1,2 -0.7,0.4 -1.3,0.7 -2.1,1 -3.1,1.4 -6.5,2.5 -9.7,3.6 -2.6,1 -1.5,4.8 0.9,4 z"
   id="path195188" />
		</g>
	</g>
	<g
   id="g195198">
		<g
   id="g195196">
			<path
   d="m 759.5,466.8 c 0.5,20.6 1.6,41.3 3.4,61.8 0.2,2.5 4.2,2.6 4,0 -1.8,-20.6 -2.9,-41.2 -3.4,-61.8 -0.1,-2.5 -4.1,-2.5 -4,0 z"
   id="path195194" />
		</g>
	</g>
	<g
   id="g195204">
		<g
   id="g195202">
			<path
   d="m 808.4,473.6 c -4.7,8.9 -9.4,17.8 -14.1,26.7 -0.6,1.1 -0.1,2.7 1.2,2.9 6.9,1.4 13.9,2 20.9,1.5 0.9,-0.1 1.7,-0.6 1.9,-1.5 1.4,-5.7 2,-11.3 1.9,-17.2 -0.1,-2.1 -3.6,-2.9 -3.9,-0.5 -1.9,13.9 -2.9,27.9 -3,42 0,2.6 4,2.6 4,0 0.1,-13.7 1,-27.4 2.9,-41 -1.3,-0.2 -2.6,-0.4 -3.9,-0.5 0.2,5.5 -0.4,10.8 -1.7,16.1 0.6,-0.5 1.3,-1 1.9,-1.5 -6.7,0.4 -13.3,0 -19.9,-1.4 0.4,1 0.8,2 1.2,2.9 4.7,-8.9 9.4,-17.8 14.1,-26.7 1.2,-2.1 -2.3,-4.1 -3.5,-1.8 z"
   id="path195200" />
		</g>
	</g>
	<g
   id="g195210">
		<g
   id="g195208">
			<path
   d="m 667.3,105.4 c -0.2,11.9 0.6,23.7 2.2,35.4 0.4,2.5 4.2,1.5 3.9,-1.1 -1.6,-11.4 -2.3,-22.8 -2.1,-34.3 0,-2.6 -4,-2.6 -4,0 z"
   id="path195206" />
		</g>
	</g>
	<g
   id="g195216">
		<g
   id="g195214">
			<path
   d="m 677.4,123.1 c 0.5,5.2 1.1,10.5 1.6,15.7 0.3,2.5 4.3,2.6 4,0 -0.5,-5.2 -1.1,-10.5 -1.6,-15.7 -0.2,-2.5 -4.2,-2.6 -4,0 z"
   id="path195212" />
		</g>
	</g>
	<g
   id="g195222">
		<g
   id="g195220">
			<path
   d="m 678.2,113.5 c 0,0.3 0,0.6 0,1 0,1 0.9,2 2,2 1.1,0 2,-0.9 2,-2 0,-0.3 0,-0.6 0,-1 0,-1 -0.9,-2 -2,-2 -1.1,0.1 -2,0.9 -2,2 z"
   id="path195218" />
		</g>
	</g>
	<g
   id="g195228">
		<g
   id="g195226">
			<path
   d="m 686.8,104.1 c 0.2,6.4 0.3,12.9 0.5,19.3 0.1,5.6 -0.2,11.4 1.5,16.8 0.8,2.4 4.7,1.4 3.9,-1.1 -1.8,-5.5 -1.3,-11.9 -1.4,-17.7 -0.2,-5.8 -0.3,-11.6 -0.5,-17.4 -0.1,-2.5 -4.1,-2.5 -4,0.1 z"
   id="path195224" />
		</g>
	</g>
	<g
   id="g195234">
		<g
   id="g195232">
			<path
   d="m 703.7,125.6 c 0.1,0 0.1,0 0.2,0 1,0.2 2.2,-0.3 2.5,-1.4 0,-0.1 0,-0.2 0.1,-0.3 0.2,-1 -0.3,-2.2 -1.4,-2.5 -2.1,-0.4 -3.9,1.4 -5.6,2.4 -3,1.9 -6,3.8 -9,5.7 -1.5,0.9 -1.2,3.1 0.5,3.7 5.9,1.9 11.8,3.8 17.7,5.7 2.5,0.8 3.5,-3.1 1.1,-3.9 -5.9,-1.9 -11.8,-3.8 -17.7,-5.7 0.2,1.2 0.3,2.4 0.5,3.7 2.2,-1.4 4.5,-2.8 6.7,-4.2 1.1,-0.7 2.2,-1.4 3.4,-2.1 0.4,-0.2 0.7,-0.5 1.1,-0.7 1.4,-0.7 1.5,-0.9 0.2,-0.6 -0.5,-0.8 -0.9,-1.6 -1.4,-2.5 0,0.1 0,0.2 -0.1,0.3 0.8,-0.5 1.6,-0.9 2.5,-1.4 -0.1,0 -0.1,0 -0.2,0 -2.6,-0.6 -3.7,3.2 -1.1,3.8 z"
   id="path195230" />
		</g>
	</g>
	<g
   id="g195240">
		<g
   id="g195238">
			<path
   d="m 715.4,132 c 5,-0.3 13.5,-2.9 10.9,-9.8 -2,-5.4 -10.7,-6.2 -13.6,-1.3 -3,5.2 -1.9,12.4 2.6,16.5 4.5,4.2 11.6,4.4 16.7,1 2.1,-1.4 0.1,-4.9 -2,-3.5 -5.6,3.7 -13.5,1.2 -14.7,-5.7 -0.6,-3.3 0.3,-8.2 4.5,-7.5 2.5,0.4 3.7,2.8 1.8,4.6 -1.5,1.5 -4.2,1.5 -6.2,1.6 -2.6,0.3 -2.6,4.3 0,4.1 z"
   id="path195236" />
		</g>
	</g>
	<g
   id="g195246">
		<g
   id="g195244">
			<path
   d="m 731.6,103.3 c 0.4,7.1 1,14.2 1.8,21.3 0.6,5.5 0.9,11.4 3.4,16.5 1.1,2.3 4.6,0.3 3.5,-2 -2.7,-5.4 -2.6,-12.4 -3.3,-18.4 -0.6,-5.8 -1.1,-11.6 -1.4,-17.5 -0.2,-2.4 -4.2,-2.5 -4,0.1 z"
   id="path195242" />
		</g>
	</g>
	<g
   id="g195252">
		<g
   id="g195250">
			<path
   d="m 741.3,120.9 c -0.1,5.9 0.6,11.6 2.3,17.2 0.7,2.5 4.6,1.4 3.9,-1.1 -1.5,-5.3 -2.2,-10.6 -2.1,-16.1 0,-2.6 -4,-2.6 -4.1,0 z"
   id="path195248" />
		</g>
	</g>
	<g
   id="g195258">
		<g
   id="g195256">
			<path
   d="m 740.9,109.4 c 0,0.2 0,0.3 0,0.5 0,1 0.9,2 2,2 1.1,0 2,-0.9 2,-2 0,-0.2 0,-0.3 0,-0.5 0,-1 -0.9,-2 -2,-2 -1.1,0.1 -2,0.9 -2,2 z"
   id="path195254" />
		</g>
	</g>
	<g
   id="g195264">
		<g
   id="g195262">
			<path
   d="m 750.7,101.3 c -0.9,12.6 -1,25.2 -0.3,37.9 0.1,2.6 4.1,2.6 4,0 -0.7,-12.6 -0.6,-25.2 0.3,-37.9 0.2,-2.6 -3.8,-2.6 -4,0 z"
   id="path195260" />
		</g>
	</g>
	<g
   id="g195270">
		<g
   id="g195268">
			<path
   d="m 753.9,127.5 c 1.6,-2.7 5.7,-6.5 7,-1.4 0.9,3.2 0.9,6.9 1.3,10.2 0.3,2.5 4.3,2.6 4,0 -0.5,-4.7 0.1,-12.9 -4.4,-16 -4.5,-3 -9.1,1.5 -11.3,5.2 -1.4,2.2 2.1,4.3 3.4,2 z"
   id="path195266" />
		</g>
	</g>
	<g
   id="g195276">
		<g
   id="g195274">
			<path
   d="m 769.1,131 c -1,5.9 0.8,10.3 7.3,10.2 6.2,0 10.8,-2.8 10.3,-9.5 -0.4,-5.6 -3.2,-13 -10.1,-12.7 -6.2,0.2 -7.8,6.9 -8.3,11.9 -0.2,2.6 3.8,2.5 4,0 0.2,-2.4 0.6,-6.4 3,-7.6 4.1,-2 6.6,3.6 7.1,6.6 0.7,3.9 0,6.7 -4.2,7.2 -1,0.1 -3.2,0.4 -4.1,0 -2,-1 -1.5,-3.4 -1.2,-5.1 0.5,-2.4 -3.4,-3.5 -3.8,-1 z"
   id="path195272" />
		</g>
	</g>
	<g
   id="g195282">
		<g
   id="g195280">
			<path
   d="m 790.2,131.1 c 0.2,3.5 -0.4,6 2.9,7.9 2.4,1.4 5.1,1.8 7.8,1.5 5.3,-0.6 10.1,-4.5 10.6,-10 0.6,-6.6 -5.9,-10.1 -11.6,-10.8 -6.8,-0.8 -9,5.1 -9.6,10.7 -0.3,2.6 3.7,2.5 4,0 0.5,-4 1.8,-7.6 6.6,-6.5 4,0.8 8.3,3.5 6.2,8.1 -1.3,2.9 -4.3,4.5 -7.4,4.6 -1.4,0 -3,-0.1 -4.2,-0.9 -1.7,-1 -1.2,-2.9 -1.3,-4.7 -0.2,-2.5 -4.2,-2.5 -4,0.1 z"
   id="path195278" />
		</g>
	</g>
	<g
   id="g195288">
		<g
   id="g195286">
			<path
   d="m 829,127 c -0.5,-5.8 -5.1,-11.4 -11,-6.5 -4.6,3.9 -5.8,14.3 -1.1,18.5 5.1,4.5 12.4,0.2 14.8,-5 1.8,-3.8 2,-8.3 2.4,-12.5 0.6,-6.1 1.3,-12.1 1.9,-18.2 0.2,-2.2 -3.6,-2.8 -3.9,-0.5 -1.9,13.4 -2.8,26.8 -2.5,40.3 0.1,2.3 3.2,2.6 3.9,0.5 0.1,-0.2 0.1,-0.4 0.2,-0.6 0.9,-2.4 -3,-3.5 -3.9,-1.1 -0.1,0.2 -0.1,0.4 -0.2,0.6 1.3,0.2 2.6,0.4 3.9,0.5 -0.3,-13.1 0.4,-26.2 2.3,-39.2 -1.3,-0.2 -2.6,-0.4 -3.9,-0.5 -0.9,8.4 -1.1,17.4 -2.9,25.6 -0.5,2.2 -1.2,4.5 -2.9,6.1 -2.4,2.3 -6.5,3 -8,-1.4 -0.6,-1.7 -0.2,-4.2 0.2,-5.9 0.3,-1.4 0.9,-2.7 1.8,-3.9 3.4,-0.5 5,0.6 4.7,3.3 0.4,2.5 4.4,2.5 4.2,-0.1 z"
   id="path195284" />
		</g>
	</g>
	<g
   id="g195294">
		<g
   id="g195292">
			<path
   d="m 667.3,250.4 c -0.2,11.9 0.6,23.7 2.2,35.4 0.4,2.5 4.2,1.5 3.9,-1.1 -1.6,-11.4 -2.3,-22.8 -2.1,-34.3 0,-2.6 -4,-2.6 -4,0 z"
   id="path195290" />
		</g>
	</g>
	<g
   id="g195300">
		<g
   id="g195298">
			<path
   d="m 677.4,268.1 c 0.5,5.2 1.1,10.5 1.6,15.7 0.3,2.5 4.3,2.6 4,0 -0.5,-5.2 -1.1,-10.5 -1.6,-15.7 -0.2,-2.5 -4.2,-2.6 -4,0 z"
   id="path195296" />
		</g>
	</g>
	<g
   id="g195306">
		<g
   id="g195304">
			<path
   d="m 678.2,258.5 c 0,0.3 0,0.6 0,1 0,1 0.9,2 2,2 1.1,0 2,-0.9 2,-2 0,-0.3 0,-0.6 0,-1 0,-1 -0.9,-2 -2,-2 -1.1,0.1 -2,0.9 -2,2 z"
   id="path195302" />
		</g>
	</g>
	<g
   id="g195312">
		<g
   id="g195310">
			<path
   d="m 686.8,249.1 c 0.2,6.4 0.3,12.9 0.5,19.3 0.1,5.6 -0.2,11.4 1.5,16.8 0.8,2.4 4.7,1.4 3.9,-1.1 -1.8,-5.5 -1.3,-11.9 -1.4,-17.7 -0.2,-5.8 -0.3,-11.6 -0.5,-17.4 -0.1,-2.5 -4.1,-2.5 -4,0.1 z"
   id="path195308" />
		</g>
	</g>
	<g
   id="g195318">
		<g
   id="g195316">
			<path
   d="m 703.7,270.6 c 0.1,0 0.1,0 0.2,0 1,0.2 2.2,-0.3 2.5,-1.4 0,-0.1 0,-0.2 0.1,-0.3 0.2,-1 -0.3,-2.2 -1.4,-2.5 -2.1,-0.4 -3.9,1.4 -5.6,2.4 -3,1.9 -6,3.8 -9,5.7 -1.5,0.9 -1.2,3.1 0.5,3.7 5.9,1.9 11.8,3.8 17.7,5.7 2.5,0.8 3.5,-3.1 1.1,-3.9 -5.9,-1.9 -11.8,-3.8 -17.7,-5.7 0.2,1.2 0.3,2.4 0.5,3.7 2.2,-1.4 4.5,-2.8 6.7,-4.2 1.1,-0.7 2.2,-1.4 3.4,-2.1 0.4,-0.2 0.7,-0.5 1.1,-0.7 1.4,-0.7 1.5,-0.9 0.2,-0.6 -0.5,-0.8 -0.9,-1.6 -1.4,-2.5 0,0.1 0,0.2 -0.1,0.3 0.8,-0.5 1.6,-0.9 2.5,-1.4 -0.1,0 -0.1,0 -0.2,0 -2.6,-0.6 -3.7,3.2 -1.1,3.8 z"
   id="path195314" />
		</g>
	</g>
	<g
   id="g195324">
		<g
   id="g195322">
			<path
   d="m 715.4,277 c 5,-0.3 13.5,-2.9 10.9,-9.8 -2,-5.4 -10.7,-6.2 -13.6,-1.3 -3,5.2 -1.9,12.4 2.6,16.5 4.5,4.2 11.6,4.4 16.7,1 2.1,-1.4 0.1,-4.9 -2,-3.5 -5.6,3.7 -13.5,1.2 -14.7,-5.7 -0.6,-3.3 0.3,-8.2 4.5,-7.5 2.5,0.4 3.7,2.8 1.8,4.6 -1.5,1.5 -4.2,1.5 -6.2,1.6 -2.6,0.3 -2.6,4.3 0,4.1 z"
   id="path195320" />
		</g>
	</g>
	<g
   id="g195330">
		<g
   id="g195328">
			<path
   d="m 731.6,248.3 c 0.4,7.1 1,14.2 1.8,21.3 0.6,5.5 0.9,11.4 3.4,16.5 1.1,2.3 4.6,0.3 3.5,-2 -2.7,-5.4 -2.6,-12.4 -3.3,-18.4 -0.6,-5.8 -1.1,-11.6 -1.4,-17.5 -0.2,-2.4 -4.2,-2.5 -4,0.1 z"
   id="path195326" />
		</g>
	</g>
	<g
   id="g195336">
		<g
   id="g195334">
			<path
   d="m 741.3,265.9 c -0.1,5.9 0.6,11.6 2.3,17.2 0.7,2.5 4.6,1.4 3.9,-1.1 -1.5,-5.3 -2.2,-10.6 -2.1,-16.1 0,-2.6 -4,-2.6 -4.1,0 z"
   id="path195332" />
		</g>
	</g>
	<g
   id="g195342">
		<g
   id="g195340">
			<path
   d="m 740.9,254.4 c 0,0.2 0,0.3 0,0.5 0,1 0.9,2 2,2 1.1,0 2,-0.9 2,-2 0,-0.2 0,-0.3 0,-0.5 0,-1 -0.9,-2 -2,-2 -1.1,0.1 -2,0.9 -2,2 z"
   id="path195338" />
		</g>
	</g>
	<g
   id="g195348">
		<g
   id="g195346">
			<path
   d="m 750.7,246.3 c -0.9,12.6 -1,25.2 -0.3,37.9 0.1,2.6 4.1,2.6 4,0 -0.7,-12.6 -0.6,-25.2 0.3,-37.9 0.2,-2.6 -3.8,-2.6 -4,0 z"
   id="path195344" />
		</g>
	</g>
	<g
   id="g195354">
		<g
   id="g195352">
			<path
   d="m 753.9,272.5 c 1.6,-2.7 5.7,-6.5 7,-1.4 0.9,3.2 0.9,6.9 1.3,10.2 0.3,2.5 4.3,2.6 4,0 -0.5,-4.7 0.1,-12.9 -4.4,-16 -4.5,-3 -9.1,1.5 -11.3,5.2 -1.4,2.2 2.1,4.3 3.4,2 z"
   id="path195350" />
		</g>
	</g>
	<g
   id="g195360">
		<g
   id="g195358">
			<path
   d="m 769.1,276 c -1,5.9 0.8,10.3 7.3,10.2 6.2,0 10.8,-2.8 10.3,-9.5 -0.4,-5.6 -3.2,-13 -10.1,-12.7 -6.2,0.2 -7.8,6.9 -8.3,11.9 -0.2,2.6 3.8,2.5 4,0 0.2,-2.4 0.6,-6.4 3,-7.6 4.1,-2 6.6,3.6 7.1,6.6 0.7,3.9 0,6.7 -4.2,7.2 -1,0.1 -3.2,0.4 -4.1,0 -2,-1 -1.5,-3.4 -1.2,-5.1 0.5,-2.4 -3.4,-3.5 -3.8,-1 z"
   id="path195356" />
		</g>
	</g>
	<g
   id="g195366">
		<g
   id="g195364">
			<path
   d="m 790.2,276.1 c 0.2,3.5 -0.4,6 2.9,7.9 2.4,1.4 5.1,1.8 7.8,1.5 5.3,-0.6 10.1,-4.5 10.6,-10 0.6,-6.6 -5.9,-10.1 -11.6,-10.8 -6.8,-0.8 -9,5.1 -9.6,10.7 -0.3,2.6 3.7,2.5 4,0 0.5,-4 1.8,-7.6 6.6,-6.5 4,0.8 8.3,3.5 6.2,8.1 -1.3,2.9 -4.3,4.5 -7.4,4.6 -1.4,0 -3,-0.1 -4.2,-0.9 -1.7,-1 -1.2,-2.9 -1.3,-4.7 -0.2,-2.5 -4.2,-2.5 -4,0.1 z"
   id="path195362" />
		</g>
	</g>
	<g
   id="g195372">
		<g
   id="g195370">
			<path
   d="m 829,272 c -0.5,-5.8 -5.1,-11.4 -11,-6.5 -4.6,3.9 -5.8,14.3 -1.1,18.5 5.1,4.5 12.4,0.2 14.8,-5 1.8,-3.8 2,-8.3 2.4,-12.5 0.6,-6.1 1.3,-12.1 1.9,-18.2 0.2,-2.2 -3.6,-2.8 -3.9,-0.5 -1.9,13.4 -2.8,26.8 -2.5,40.3 0.1,2.3 3.2,2.6 3.9,0.5 0.1,-0.2 0.1,-0.4 0.2,-0.6 0.9,-2.4 -3,-3.5 -3.9,-1.1 -0.1,0.2 -0.1,0.4 -0.2,0.6 1.3,0.2 2.6,0.4 3.9,0.5 -0.3,-13.1 0.4,-26.2 2.3,-39.2 -1.3,-0.2 -2.6,-0.4 -3.9,-0.5 -0.9,8.4 -1.1,17.4 -2.9,25.6 -0.5,2.2 -1.2,4.5 -2.9,6.1 -2.4,2.3 -6.5,3 -8,-1.4 -0.6,-1.7 -0.2,-4.2 0.2,-5.9 0.3,-1.4 0.9,-2.7 1.8,-3.9 3.4,-0.5 5,0.6 4.7,3.3 0.4,2.5 4.4,2.5 4.2,-0.1 z"
   id="path195368" />
		</g>
	</g>
	<g
   id="g195378">
		<g
   id="g195376">
			<path
   d="m 667.3,388.4 c -0.2,11.9 0.6,23.7 2.2,35.4 0.4,2.5 4.2,1.5 3.9,-1.1 -1.6,-11.4 -2.3,-22.8 -2.1,-34.3 0,-2.6 -4,-2.6 -4,0 z"
   id="path195374" />
		</g>
	</g>
	<g
   id="g195384">
		<g
   id="g195382">
			<path
   d="m 677.4,406.1 c 0.5,5.2 1.1,10.5 1.6,15.7 0.3,2.5 4.3,2.6 4,0 -0.5,-5.2 -1.1,-10.5 -1.6,-15.7 -0.2,-2.5 -4.2,-2.6 -4,0 z"
   id="path195380" />
		</g>
	</g>
	<g
   id="g195390">
		<g
   id="g195388">
			<path
   d="m 678.2,396.5 c 0,0.3 0,0.6 0,1 0,1 0.9,2 2,2 1.1,0 2,-0.9 2,-2 0,-0.3 0,-0.6 0,-1 0,-1 -0.9,-2 -2,-2 -1.1,0.1 -2,0.9 -2,2 z"
   id="path195386" />
		</g>
	</g>
	<g
   id="g195396">
		<g
   id="g195394">
			<path
   d="m 686.8,387.1 c 0.2,6.4 0.3,12.9 0.5,19.3 0.1,5.6 -0.2,11.4 1.5,16.8 0.8,2.4 4.7,1.4 3.9,-1.1 -1.8,-5.5 -1.3,-11.9 -1.4,-17.7 -0.2,-5.8 -0.3,-11.6 -0.5,-17.4 -0.1,-2.5 -4.1,-2.5 -4,0.1 z"
   id="path195392" />
		</g>
	</g>
	<g
   id="g195402">
		<g
   id="g195400">
			<path
   d="m 703.7,408.6 c 0.1,0 0.1,0 0.2,0 1,0.2 2.2,-0.3 2.5,-1.4 0,-0.1 0,-0.2 0.1,-0.3 0.2,-1 -0.3,-2.2 -1.4,-2.5 -2.1,-0.4 -3.9,1.4 -5.6,2.4 -3,1.9 -6,3.8 -9,5.7 -1.5,0.9 -1.2,3.1 0.5,3.7 5.9,1.9 11.8,3.8 17.7,5.7 2.5,0.8 3.5,-3.1 1.1,-3.9 -5.9,-1.9 -11.8,-3.8 -17.7,-5.7 0.2,1.2 0.3,2.4 0.5,3.7 2.2,-1.4 4.5,-2.8 6.7,-4.2 1.1,-0.7 2.2,-1.4 3.4,-2.1 0.4,-0.2 0.7,-0.5 1.1,-0.7 1.4,-0.7 1.5,-0.9 0.2,-0.6 -0.5,-0.8 -0.9,-1.6 -1.4,-2.5 0,0.1 0,0.2 -0.1,0.3 0.8,-0.5 1.6,-0.9 2.5,-1.4 -0.1,0 -0.1,0 -0.2,0 -2.6,-0.6 -3.7,3.2 -1.1,3.8 z"
   id="path195398" />
		</g>
	</g>
	<g
   id="g195408">
		<g
   id="g195406">
			<path
   d="m 715.4,415 c 5,-0.3 13.5,-2.9 10.9,-9.8 -2,-5.4 -10.7,-6.2 -13.6,-1.3 -3,5.2 -1.9,12.4 2.6,16.5 4.5,4.2 11.6,4.4 16.7,1 2.1,-1.4 0.1,-4.9 -2,-3.5 -5.6,3.7 -13.5,1.2 -14.7,-5.7 -0.6,-3.3 0.3,-8.2 4.5,-7.5 2.5,0.4 3.7,2.8 1.8,4.6 -1.5,1.5 -4.2,1.5 -6.2,1.6 -2.6,0.3 -2.6,4.3 0,4.1 z"
   id="path195404" />
		</g>
	</g>
	<g
   id="g195414">
		<g
   id="g195412">
			<path
   d="m 731.6,386.3 c 0.4,7.1 1,14.2 1.8,21.3 0.6,5.5 0.9,11.4 3.4,16.5 1.1,2.3 4.6,0.3 3.5,-2 -2.7,-5.4 -2.6,-12.4 -3.3,-18.4 -0.6,-5.8 -1.1,-11.6 -1.4,-17.5 -0.2,-2.4 -4.2,-2.5 -4,0.1 z"
   id="path195410" />
		</g>
	</g>
	<g
   id="g195420">
		<g
   id="g195418">
			<path
   d="m 741.3,403.9 c -0.1,5.9 0.6,11.6 2.3,17.2 0.7,2.5 4.6,1.4 3.9,-1.1 -1.5,-5.3 -2.2,-10.6 -2.1,-16.1 0,-2.6 -4,-2.6 -4.1,0 z"
   id="path195416" />
		</g>
	</g>
	<g
   id="g195426">
		<g
   id="g195424">
			<path
   d="m 740.9,392.4 c 0,0.2 0,0.3 0,0.5 0,1 0.9,2 2,2 1.1,0 2,-0.9 2,-2 0,-0.2 0,-0.3 0,-0.5 0,-1 -0.9,-2 -2,-2 -1.1,0.1 -2,0.9 -2,2 z"
   id="path195422" />
		</g>
	</g>
	<g
   id="g195432">
		<g
   id="g195430">
			<path
   d="m 750.7,384.3 c -0.9,12.6 -1,25.2 -0.3,37.9 0.1,2.6 4.1,2.6 4,0 -0.7,-12.6 -0.6,-25.2 0.3,-37.9 0.2,-2.6 -3.8,-2.6 -4,0 z"
   id="path195428" />
		</g>
	</g>
	<g
   id="g195438">
		<g
   id="g195436">
			<path
   d="m 753.9,410.5 c 1.6,-2.7 5.7,-6.5 7,-1.4 0.9,3.2 0.9,6.9 1.3,10.2 0.3,2.5 4.3,2.6 4,0 -0.5,-4.7 0.1,-12.9 -4.4,-16 -4.5,-3 -9.1,1.5 -11.3,5.2 -1.4,2.2 2.1,4.3 3.4,2 z"
   id="path195434" />
		</g>
	</g>
	<g
   id="g195444">
		<g
   id="g195442">
			<path
   d="m 769.1,414 c -1,5.9 0.8,10.3 7.3,10.2 6.2,0 10.8,-2.8 10.3,-9.5 -0.4,-5.6 -3.2,-13 -10.1,-12.7 -6.2,0.2 -7.8,6.9 -8.3,11.9 -0.2,2.6 3.8,2.5 4,0 0.2,-2.4 0.6,-6.4 3,-7.6 4.1,-2 6.6,3.6 7.1,6.6 0.7,3.9 0,6.7 -4.2,7.2 -1,0.1 -3.2,0.4 -4.1,0 -2,-1 -1.5,-3.4 -1.2,-5.1 0.5,-2.4 -3.4,-3.5 -3.8,-1 z"
   id="path195440" />
		</g>
	</g>
	<g
   id="g195450">
		<g
   id="g195448">
			<path
   d="m 790.2,414.1 c 0.2,3.5 -0.4,6 2.9,7.9 2.4,1.4 5.1,1.8 7.8,1.5 5.3,-0.6 10.1,-4.5 10.6,-10 0.6,-6.6 -5.9,-10.1 -11.6,-10.8 -6.8,-0.8 -9,5.1 -9.6,10.7 -0.3,2.6 3.7,2.5 4,0 0.5,-4 1.8,-7.6 6.6,-6.5 4,0.8 8.3,3.5 6.2,8.1 -1.3,2.9 -4.3,4.5 -7.4,4.6 -1.4,0 -3,-0.1 -4.2,-0.9 -1.7,-1 -1.2,-2.9 -1.3,-4.7 -0.2,-2.5 -4.2,-2.5 -4,0.1 z"
   id="path195446" />
		</g>
	</g>
	<g
   id="g195456">
		<g
   id="g195454">
			<path
   d="m 829,410 c -0.5,-5.8 -5.1,-11.4 -11,-6.5 -4.6,3.9 -5.8,14.3 -1.1,18.5 5.1,4.5 12.4,0.2 14.8,-5 1.8,-3.8 2,-8.3 2.4,-12.5 0.6,-6.1 1.3,-12.1 1.9,-18.2 0.2,-2.2 -3.6,-2.8 -3.9,-0.5 -1.9,13.4 -2.8,26.8 -2.5,40.3 0.1,2.3 3.2,2.6 3.9,0.5 0.1,-0.2 0.1,-0.4 0.2,-0.6 0.9,-2.4 -3,-3.5 -3.9,-1.1 -0.1,0.2 -0.1,0.4 -0.2,0.6 1.3,0.2 2.6,0.4 3.9,0.5 -0.3,-13.1 0.4,-26.2 2.3,-39.2 -1.3,-0.2 -2.6,-0.4 -3.9,-0.5 -0.9,8.4 -1.1,17.4 -2.9,25.6 -0.5,2.2 -1.2,4.5 -2.9,6.1 -2.4,2.3 -6.5,3 -8,-1.4 -0.6,-1.7 -0.2,-4.2 0.2,-5.9 0.3,-1.4 0.9,-2.7 1.8,-3.9 3.4,-0.5 5,0.6 4.7,3.3 0.4,2.5 4.4,2.5 4.2,-0.1 z"
   id="path195452" />
		</g>
	</g>
	<g
   id="g195462">
		<g
   id="g195460">
			<path
   d="m 667.3,540.4 c -0.2,11.9 0.6,23.7 2.2,35.4 0.4,2.5 4.2,1.5 3.9,-1.1 -1.6,-11.4 -2.3,-22.8 -2.1,-34.3 0,-2.6 -4,-2.6 -4,0 z"
   id="path195458" />
		</g>
	</g>
	<g
   id="g195468">
		<g
   id="g195466">
			<path
   d="m 677.4,558.1 c 0.5,5.2 1.1,10.5 1.6,15.7 0.3,2.5 4.3,2.6 4,0 -0.5,-5.2 -1.1,-10.5 -1.6,-15.7 -0.2,-2.5 -4.2,-2.6 -4,0 z"
   id="path195464" />
		</g>
	</g>
	<g
   id="g195474">
		<g
   id="g195472">
			<path
   d="m 678.2,548.5 c 0,0.3 0,0.6 0,1 0,1 0.9,2 2,2 1.1,0 2,-0.9 2,-2 0,-0.3 0,-0.6 0,-1 0,-1 -0.9,-2 -2,-2 -1.1,0.1 -2,0.9 -2,2 z"
   id="path195470" />
		</g>
	</g>
	<g
   id="g195480">
		<g
   id="g195478">
			<path
   d="m 686.8,539.1 c 0.2,6.4 0.3,12.9 0.5,19.3 0.1,5.6 -0.2,11.4 1.5,16.8 0.8,2.4 4.7,1.4 3.9,-1.1 -1.8,-5.5 -1.3,-11.9 -1.4,-17.7 -0.2,-5.8 -0.3,-11.6 -0.5,-17.4 -0.1,-2.5 -4.1,-2.5 -4,0.1 z"
   id="path195476" />
		</g>
	</g>
	<g
   id="g195486">
		<g
   id="g195484">
			<path
   d="m 703.7,560.6 c 0.1,0 0.1,0 0.2,0 1,0.2 2.2,-0.3 2.5,-1.4 0,-0.1 0,-0.2 0.1,-0.3 0.2,-1 -0.3,-2.2 -1.4,-2.5 -2.1,-0.4 -3.9,1.4 -5.6,2.4 -3,1.9 -6,3.8 -9,5.7 -1.5,0.9 -1.2,3.1 0.5,3.7 5.9,1.9 11.8,3.8 17.7,5.7 2.5,0.8 3.5,-3.1 1.1,-3.9 -5.9,-1.9 -11.8,-3.8 -17.7,-5.7 0.2,1.2 0.3,2.4 0.5,3.7 2.2,-1.4 4.5,-2.8 6.7,-4.2 1.1,-0.7 2.2,-1.4 3.4,-2.1 0.4,-0.2 0.7,-0.5 1.1,-0.7 1.4,-0.7 1.5,-0.9 0.2,-0.6 -0.5,-0.8 -0.9,-1.6 -1.4,-2.5 0,0.1 0,0.2 -0.1,0.3 0.8,-0.5 1.6,-0.9 2.5,-1.4 -0.1,0 -0.1,0 -0.2,0 -2.6,-0.6 -3.7,3.2 -1.1,3.8 z"
   id="path195482" />
		</g>
	</g>
	<g
   id="g195492">
		<g
   id="g195490">
			<path
   d="m 715.4,567 c 5,-0.3 13.5,-2.9 10.9,-9.8 -2,-5.4 -10.7,-6.2 -13.6,-1.3 -3,5.2 -1.9,12.4 2.6,16.5 4.5,4.2 11.6,4.4 16.7,1 2.1,-1.4 0.1,-4.9 -2,-3.5 -5.6,3.7 -13.5,1.2 -14.7,-5.7 -0.6,-3.3 0.3,-8.2 4.5,-7.5 2.5,0.4 3.7,2.8 1.8,4.6 -1.5,1.5 -4.2,1.5 -6.2,1.6 -2.6,0.3 -2.6,4.3 0,4.1 z"
   id="path195488" />
		</g>
	</g>
	<g
   id="g195498">
		<g
   id="g195496">
			<path
   d="m 731.6,538.3 c 0.4,7.1 1,14.2 1.8,21.3 0.6,5.5 0.9,11.4 3.4,16.5 1.1,2.3 4.6,0.3 3.5,-2 -2.7,-5.4 -2.6,-12.4 -3.3,-18.4 -0.6,-5.8 -1.1,-11.6 -1.4,-17.5 -0.2,-2.4 -4.2,-2.5 -4,0.1 z"
   id="path195494" />
		</g>
	</g>
	<g
   id="g195504">
		<g
   id="g195502">
			<path
   d="m 741.3,555.9 c -0.1,5.9 0.6,11.6 2.3,17.2 0.7,2.5 4.6,1.4 3.9,-1.1 -1.5,-5.3 -2.2,-10.6 -2.1,-16.1 0,-2.6 -4,-2.6 -4.1,0 z"
   id="path195500" />
		</g>
	</g>
	<g
   id="g195510">
		<g
   id="g195508">
			<path
   d="m 740.9,544.4 c 0,0.2 0,0.3 0,0.5 0,1 0.9,2 2,2 1.1,0 2,-0.9 2,-2 0,-0.2 0,-0.3 0,-0.5 0,-1 -0.9,-2 -2,-2 -1.1,0.1 -2,0.9 -2,2 z"
   id="path195506" />
		</g>
	</g>
	<g
   id="g195516">
		<g
   id="g195514">
			<path
   d="m 750.7,536.3 c -0.9,12.6 -1,25.2 -0.3,37.9 0.1,2.6 4.1,2.6 4,0 -0.7,-12.6 -0.6,-25.2 0.3,-37.9 0.2,-2.6 -3.8,-2.6 -4,0 z"
   id="path195512" />
		</g>
	</g>
	<g
   id="g195522">
		<g
   id="g195520">
			<path
   d="m 753.9,562.5 c 1.6,-2.7 5.7,-6.5 7,-1.4 0.9,3.2 0.9,6.9 1.3,10.2 0.3,2.5 4.3,2.6 4,0 -0.5,-4.7 0.1,-12.9 -4.4,-16 -4.5,-3 -9.1,1.5 -11.3,5.2 -1.4,2.2 2.1,4.3 3.4,2 z"
   id="path195518" />
		</g>
	</g>
	<g
   id="g195528">
		<g
   id="g195526">
			<path
   d="m 769.1,566 c -1,5.9 0.8,10.3 7.3,10.2 6.2,0 10.8,-2.8 10.3,-9.5 -0.4,-5.6 -3.2,-13 -10.1,-12.7 -6.2,0.2 -7.8,6.9 -8.3,11.9 -0.2,2.6 3.8,2.5 4,0 0.2,-2.4 0.6,-6.4 3,-7.6 4.1,-2 6.6,3.6 7.1,6.6 0.7,3.9 0,6.7 -4.2,7.2 -1,0.1 -3.2,0.4 -4.1,0 -2,-1 -1.5,-3.4 -1.2,-5.1 0.5,-2.4 -3.4,-3.5 -3.8,-1 z"
   id="path195524" />
		</g>
	</g>
	<g
   id="g195534">
		<g
   id="g195532">
			<path
   d="m 790.2,566.1 c 0.2,3.5 -0.4,6 2.9,7.9 2.4,1.4 5.1,1.8 7.8,1.5 5.3,-0.6 10.1,-4.5 10.6,-10 0.6,-6.6 -5.9,-10.1 -11.6,-10.8 -6.8,-0.8 -9,5.1 -9.6,10.7 -0.3,2.6 3.7,2.5 4,0 0.5,-4 1.8,-7.6 6.6,-6.5 4,0.8 8.3,3.5 6.2,8.1 -1.3,2.9 -4.3,4.5 -7.4,4.6 -1.4,0 -3,-0.1 -4.2,-0.9 -1.7,-1 -1.2,-2.9 -1.3,-4.7 -0.2,-2.5 -4.2,-2.5 -4,0.1 z"
   id="path195530" />
		</g>
	</g>
	<g
   id="g195540">
		<g
   id="g195538">
			<path
   d="m 829,562 c -0.5,-5.8 -5.1,-11.4 -11,-6.5 -4.6,3.9 -5.8,14.3 -1.1,18.5 5.1,4.5 12.4,0.2 14.8,-5 1.8,-3.8 2,-8.3 2.4,-12.5 0.6,-6.1 1.3,-12.1 1.9,-18.2 0.2,-2.2 -3.6,-2.8 -3.9,-0.5 -1.9,13.4 -2.8,26.8 -2.5,40.3 0.1,2.3 3.2,2.6 3.9,0.5 0.1,-0.2 0.1,-0.4 0.2,-0.6 0.9,-2.4 -3,-3.5 -3.9,-1.1 -0.1,0.2 -0.1,0.4 -0.2,0.6 1.3,0.2 2.6,0.4 3.9,0.5 -0.3,-13.1 0.4,-26.2 2.3,-39.2 -1.3,-0.2 -2.6,-0.4 -3.9,-0.5 -0.9,8.4 -1.1,17.4 -2.9,25.6 -0.5,2.2 -1.2,4.5 -2.9,6.1 -2.4,2.3 -6.5,3 -8,-1.4 -0.6,-1.7 -0.2,-4.2 0.2,-5.9 0.3,-1.4 0.9,-2.7 1.8,-3.9 3.4,-0.5 5,0.6 4.7,3.3 0.4,2.5 4.4,2.5 4.2,-0.1 z"
   id="path195536" />
		</g>
	</g>
	<g
   id="g195546">
		<g
   id="g195544">
			<path
   class="st0"
   d="m 644.9,145 c 0,-10.1 -0.6,-20.2 -1.8,-30.2 -0.2,-2 -2.5,-2.6 -3.7,-1 -1.7,2.3 -3.7,4.3 -5.9,6.1 1,0.8 2.1,1.6 3.1,2.4 2.4,-4.1 4.1,-8.3 5,-13 -1.2,0.2 -2.4,0.3 -3.7,0.5 2.9,5.3 6.5,10 10.9,14.1 1.9,1.7 4.7,-1.1 2.8,-2.8 -4.2,-3.9 -7.6,-8.3 -10.3,-13.3 -0.8,-1.5 -3.3,-1.2 -3.7,0.5 -0.8,4.4 -2.3,8.2 -4.6,12 -1.2,2.1 1.5,3.8 3.1,2.4 2.5,-2.1 4.6,-4.3 6.6,-6.9 -1.2,-0.3 -2.5,-0.7 -3.7,-1 1.2,10 1.8,20.1 1.8,30.2 0.2,2.6 4.2,2.6 4.1,0 z"
   id="path195542" />
		</g>
	</g>
	<g
   id="g195552">
		<g
   id="g195550">
			<path
   class="st0"
   d="m 644.9,289 c 0,-10.1 -0.6,-20.2 -1.8,-30.2 -0.2,-2 -2.5,-2.6 -3.7,-1 -1.7,2.3 -3.7,4.3 -5.9,6.1 1,0.8 2.1,1.6 3.1,2.4 2.4,-4.1 4.1,-8.3 5,-13 -1.2,0.2 -2.4,0.3 -3.7,0.5 2.9,5.3 6.5,10 10.9,14.1 1.9,1.7 4.7,-1.1 2.8,-2.8 -4.2,-3.9 -7.6,-8.3 -10.3,-13.3 -0.8,-1.5 -3.3,-1.2 -3.7,0.5 -0.8,4.4 -2.3,8.2 -4.6,12 -1.2,2.1 1.5,3.8 3.1,2.4 2.5,-2.1 4.6,-4.3 6.6,-6.9 -1.2,-0.3 -2.5,-0.7 -3.7,-1 1.2,10 1.8,20.1 1.8,30.2 0.2,2.6 4.2,2.6 4.1,0 z"
   id="path195548" />
		</g>
	</g>
	<g
   id="g195558">
		<g
   id="g195556">
			<path
   class="st0"
   d="m 644.9,428 c 0,-10.1 -0.6,-20.2 -1.8,-30.2 -0.2,-2 -2.5,-2.6 -3.7,-1 -1.7,2.3 -3.7,4.3 -5.9,6.1 1,0.8 2.1,1.6 3.1,2.4 2.4,-4.1 4.1,-8.3 5,-13 -1.2,0.2 -2.4,0.3 -3.7,0.5 2.9,5.3 6.5,10 10.9,14.1 1.9,1.7 4.7,-1.1 2.8,-2.8 -4.2,-3.9 -7.6,-8.3 -10.3,-13.3 -0.8,-1.5 -3.3,-1.2 -3.7,0.5 -0.8,4.4 -2.3,8.2 -4.6,12 -1.2,2.1 1.5,3.8 3.1,2.4 2.5,-2.1 4.6,-4.3 6.6,-6.9 -1.2,-0.3 -2.5,-0.7 -3.7,-1 1.2,10 1.8,20.1 1.8,30.2 0.2,2.6 4.2,2.6 4.1,0 z"
   id="path195554" />
		</g>
	</g>
	<g
   id="g195564">
		<g
   id="g195562">
			<path
   class="st0"
   d="m 644.9,580 c 0,-10.1 -0.6,-20.2 -1.8,-30.2 -0.2,-2 -2.5,-2.6 -3.7,-1 -1.7,2.3 -3.7,4.3 -5.9,6.1 1,0.8 2.1,1.6 3.1,2.4 2.4,-4.1 4.1,-8.3 5,-13 -1.2,0.2 -2.4,0.3 -3.7,0.5 2.9,5.3 6.5,10 10.9,14.1 1.9,1.7 4.7,-1.1 2.8,-2.8 -4.2,-3.9 -7.6,-8.3 -10.3,-13.3 -0.8,-1.5 -3.3,-1.2 -3.7,0.5 -0.8,4.4 -2.3,8.2 -4.6,12 -1.2,2.1 1.5,3.8 3.1,2.4 2.5,-2.1 4.6,-4.3 6.6,-6.9 -1.2,-0.3 -2.5,-0.7 -3.7,-1 1.2,10 1.8,20.1 1.8,30.2 0.2,2.6 4.2,2.6 4.1,0 z"
   id="path195560" />
		</g>
	</g>
</g>
</svg>
