<?xml version="1.0" encoding="UTF-8" standalone="no"?>
<!-- Generator: Adobe Illustrator 23.0.3, SVG Export Plug-In . SVG Version: 6.00 Build 0)  -->

<svg
   version="1.1"
   x="0px"
   y="0px"
   viewBox="0 0 1400 623.6"
   xml:space="preserve"
   id="svg197313"
   sodipodi:docname="models_8.svg"
   width="1400"
   height="623.59998"
   inkscape:version="1.2.2 (1:1.2.2+202212051552+b0a8486541)"
   xmlns:inkscape="http://www.inkscape.org/namespaces/inkscape"
   xmlns:sodipodi="http://sodipodi.sourceforge.net/DTD/sodipodi-0.dtd"
   xmlns:xlink="http://www.w3.org/1999/xlink"
   xmlns="http://www.w3.org/2000/svg"
   xmlns:svg="http://www.w3.org/2000/svg"><defs
   id="defs197317">
	
	
	
	
	
	
	
	
	
	
	
	
	
	
	
	
	
	
	
	
	
	
	
</defs><sodipodi:namedview
   id="namedview197315"
   pagecolor="#ffffff"
   bordercolor="#000000"
   borderopacity="0.25"
   inkscape:showpageshadow="2"
   inkscape:pageopacity="0.0"
   inkscape:pagecheckerboard="0"
   inkscape:deskcolor="#d1d1d1"
   showgrid="false"
   inkscape:zoom="0.86104632"
   inkscape:cx="1038.8524"
   inkscape:cy="163.75426"
   inkscape:window-width="1221"
   inkscape:window-height="778"
   inkscape:window-x="59"
   inkscape:window-y="22"
   inkscape:window-maximized="1"
   inkscape:current-layer="svg197313" />
<style
   type="text/css"
   id="style196697">
	
		.st0{clip-path:url(#SVGID_2_);fill:none;stroke:#FF7F0E;stroke-width:0.2;stroke-linecap:square;stroke-linejoin:round;stroke-opacity:0.5;}
	
		.st1{clip-path:url(#SVGID_4_);fill:none;stroke:#FF7F0E;stroke-width:0.2;stroke-linecap:square;stroke-linejoin:round;stroke-opacity:0.5;}
	
		.st2{clip-path:url(#SVGID_6_);fill:none;stroke:#FF7F0E;stroke-width:0.2;stroke-linecap:square;stroke-linejoin:round;stroke-opacity:0.5;}
	
		.st3{clip-path:url(#SVGID_8_);fill:none;stroke:#FF7F0E;stroke-width:0.2;stroke-linecap:square;stroke-linejoin:round;stroke-opacity:0.5;}
	
		.st4{clip-path:url(#SVGID_10_);fill:none;stroke:#FF7F0E;stroke-width:0.2;stroke-linecap:square;stroke-linejoin:round;stroke-opacity:0.5;}
	
		.st5{clip-path:url(#SVGID_12_);fill:none;stroke:#FF7F0E;stroke-width:0.2;stroke-linecap:square;stroke-linejoin:round;stroke-opacity:0.5;}
	
		.st6{clip-path:url(#SVGID_14_);fill:none;stroke:#FF7F0E;stroke-width:0.2;stroke-linecap:square;stroke-linejoin:round;stroke-opacity:0.5;}
	
		.st7{clip-path:url(#SVGID_16_);fill:none;stroke:#FF7F0E;stroke-width:0.2;stroke-linecap:square;stroke-linejoin:round;stroke-opacity:0.5;}
	
		.st8{clip-path:url(#SVGID_18_);fill:none;stroke:#FF7F0E;stroke-width:0.2;stroke-linecap:square;stroke-linejoin:round;stroke-opacity:0.5;}
	
		.st9{clip-path:url(#SVGID_20_);fill:none;stroke:#FF7F0E;stroke-width:0.2;stroke-linecap:square;stroke-linejoin:round;stroke-opacity:0.5;}
	
		.st10{clip-path:url(#SVGID_22_);fill:none;stroke:#2CA02C;stroke-width:0.2;stroke-linecap:square;stroke-linejoin:round;stroke-opacity:0.5;}
	
		.st11{clip-path:url(#SVGID_24_);fill:none;stroke:#2CA02C;stroke-width:0.2;stroke-linecap:square;stroke-linejoin:round;stroke-opacity:0.5;}
	
		.st12{clip-path:url(#SVGID_26_);fill:none;stroke:#2CA02C;stroke-width:0.2;stroke-linecap:square;stroke-linejoin:round;stroke-opacity:0.5;}
	
		.st13{clip-path:url(#SVGID_28_);fill:none;stroke:#2CA02C;stroke-width:0.2;stroke-linecap:square;stroke-linejoin:round;stroke-opacity:0.5;}
	
		.st14{clip-path:url(#SVGID_30_);fill:none;stroke:#2CA02C;stroke-width:0.2;stroke-linecap:square;stroke-linejoin:round;stroke-opacity:0.5;}
	
		.st15{clip-path:url(#SVGID_32_);fill:none;stroke:#2CA02C;stroke-width:0.2;stroke-linecap:square;stroke-linejoin:round;stroke-opacity:0.5;}
	
		.st16{clip-path:url(#SVGID_34_);fill:none;stroke:#2CA02C;stroke-width:0.2;stroke-linecap:square;stroke-linejoin:round;stroke-opacity:0.5;}
	
		.st17{clip-path:url(#SVGID_36_);fill:none;stroke:#2CA02C;stroke-width:0.2;stroke-linecap:square;stroke-linejoin:round;stroke-opacity:0.5;}
	
		.st18{clip-path:url(#SVGID_38_);fill:none;stroke:#2CA02C;stroke-width:0.2;stroke-linecap:square;stroke-linejoin:round;stroke-opacity:0.5;}
	
		.st19{clip-path:url(#SVGID_40_);fill:none;stroke:#2CA02C;stroke-width:0.2;stroke-linecap:square;stroke-linejoin:round;stroke-opacity:0.5;}
	.st20{clip-path:url(#SVGID_42_);fill:none;stroke:#FFFFFF;stroke-width:3;stroke-linecap:round;stroke-linejoin:round;}
	.st21{clip-path:url(#SVGID_44_);fill:none;stroke:#1F77B4;stroke-linecap:round;stroke-linejoin:round;}
	.st22{clip-path:url(#SVGID_46_);fill:#FFFFFF;stroke:#FFFFFF;stroke-width:3;stroke-linecap:round;stroke-linejoin:round;}
	.st23{clip-path:url(#SVGID_48_);fill:#FFFFFF;stroke:#1F77B4;stroke-linecap:round;stroke-linejoin:round;}
	.st24{clip-path:url(#SVGID_50_);fill:none;stroke:#FFFFFF;stroke-width:3;stroke-linecap:round;stroke-linejoin:round;}
	.st25{clip-path:url(#SVGID_52_);fill:none;stroke:#1F77B4;stroke-linecap:round;stroke-linejoin:round;}
	.st26{clip-path:url(#SVGID_54_);fill:#FFFFFF;stroke:#FFFFFF;stroke-width:3;stroke-linecap:round;stroke-linejoin:round;}
	.st27{clip-path:url(#SVGID_56_);fill:#FFFFFF;stroke:#1F77B4;stroke-linecap:round;stroke-linejoin:round;}
	.st28{clip-path:url(#SVGID_58_);fill:#FF7F0E;fill-opacity:0.5;stroke:#FF7F0E;stroke-opacity:0.5;}
	.st29{clip-path:url(#SVGID_60_);fill:#FF7F0E;fill-opacity:0.5;stroke:#FF7F0E;stroke-opacity:0.5;}
	.st30{clip-path:url(#SVGID_62_);fill:#FF7F0E;fill-opacity:0.5;stroke:#FF7F0E;stroke-opacity:0.5;}
	.st31{clip-path:url(#SVGID_64_);fill:#FF7F0E;fill-opacity:0.5;stroke:#FF7F0E;stroke-opacity:0.5;}
	.st32{clip-path:url(#SVGID_66_);fill:#FF7F0E;fill-opacity:0.5;stroke:#FF7F0E;stroke-opacity:0.5;}
	.st33{clip-path:url(#SVGID_68_);fill:#FF7F0E;fill-opacity:0.5;stroke:#FF7F0E;stroke-opacity:0.5;}
	.st34{clip-path:url(#SVGID_70_);fill:#FF7F0E;fill-opacity:0.5;stroke:#FF7F0E;stroke-opacity:0.5;}
	.st35{clip-path:url(#SVGID_72_);fill:#FF7F0E;fill-opacity:0.5;stroke:#FF7F0E;stroke-opacity:0.5;}
	.st36{clip-path:url(#SVGID_74_);fill:#FF7F0E;fill-opacity:0.5;stroke:#FF7F0E;stroke-opacity:0.5;}
	.st37{clip-path:url(#SVGID_76_);fill:#FF7F0E;fill-opacity:0.5;stroke:#FF7F0E;stroke-opacity:0.5;}
	.st38{clip-path:url(#SVGID_78_);fill:#2CA02C;fill-opacity:0.5;stroke:#2CA02C;stroke-opacity:0.5;}
	.st39{clip-path:url(#SVGID_80_);fill:#2CA02C;fill-opacity:0.5;stroke:#2CA02C;stroke-opacity:0.5;}
	.st40{clip-path:url(#SVGID_82_);fill:#2CA02C;fill-opacity:0.5;stroke:#2CA02C;stroke-opacity:0.5;}
	.st41{clip-path:url(#SVGID_84_);fill:#2CA02C;fill-opacity:0.5;stroke:#2CA02C;stroke-opacity:0.5;}
	.st42{clip-path:url(#SVGID_86_);fill:#2CA02C;fill-opacity:0.5;stroke:#2CA02C;stroke-opacity:0.5;}
	.st43{clip-path:url(#SVGID_88_);fill:#2CA02C;fill-opacity:0.5;stroke:#2CA02C;stroke-opacity:0.5;}
	.st44{clip-path:url(#SVGID_90_);fill:#2CA02C;fill-opacity:0.5;stroke:#2CA02C;stroke-opacity:0.5;}
	.st45{clip-path:url(#SVGID_92_);fill:#2CA02C;fill-opacity:0.5;stroke:#2CA02C;stroke-opacity:0.5;}
	.st46{clip-path:url(#SVGID_94_);fill:#2CA02C;fill-opacity:0.5;stroke:#2CA02C;stroke-opacity:0.5;}
	.st47{clip-path:url(#SVGID_96_);fill:#2CA02C;fill-opacity:0.5;stroke:#2CA02C;stroke-opacity:0.5;}
	
		.st48{clip-path:url(#SVGID_98_);fill:#1E73AF;fill-opacity:0.2;stroke:#1E73AF;stroke-width:2;stroke-linejoin:round;stroke-dasharray:8,2;}
	
		.st49{clip-path:url(#SVGID_100_);fill:#FF7D0A;fill-opacity:0.2;stroke:#FF7D0A;stroke-width:2;stroke-linejoin:round;stroke-dasharray:8,2;}
	
		.st50{clip-path:url(#SVGID_102_);fill:#28A028;fill-opacity:0.2;stroke:#28A028;stroke-width:2;stroke-linejoin:round;stroke-dasharray:8,2;}
</style>
<g
   id="Layer_2">
</g>
<g
   id="Layer_3">
</g>
<g
   id="Layer_1"
   transform="translate(96)">
	<g
   id="Слой_8">
	</g>
	<g
   id="Слой_16">
	</g>
	<g
   id="Time_scale">
	</g>
	<g
   id="Now_line">
	</g>
	<g
   id="Слой_10">
	</g>
	<g
   id="Слой_9">
	</g>
	<g
   id="figure_1_4_">
		<g
   id="axes_1_4_">
			<g
   id="g196714">
				<defs
   id="defs196708">
					<rect
   id="SVGID_1_"
   x="972.59998"
   y="214"
   width="201.89999"
   height="172.60001" />
				</defs>
				<clipPath
   id="SVGID_2_">
					<use
   xlink:href="#SVGID_1_"
   style="overflow:visible"
   id="use196710" />
				</clipPath>
				<path
   id="path143690_1_"
   class="st0"
   d="m 1016.8,358 h 0.8 0.8 l 0.8,0.1 h 0.8 l 0.8,0.1 h 0.8 0.8 0.8 l 0.8,0.1 h 0.8 l 0.8,0.1 0.8,0.1 h 0.8 0.8 0.8 0.8 0.8 0.8 0.8 0.8 0.8 0.8 0.8 0.8 0.8 0.8 0.8 0.8 0.8 l 0.8,-0.1 h 0.8 0.8 0.8 0.8 l 0.8,-0.1 h 0.8 0.8 l 0.8,-0.1 h 0.8 0.8 l 0.8,-0.1 0.8,-0.1 0.8,-0.1 h 0.8 l 0.8,-0.1 h 0.8 l 0.8,-0.1 0.8,-0.1 0.8,-0.1 0.8,-0.1 h 0.8 0.8 l 0.8,-0.1 0.8,-0.1 0.8,-0.1 h 0.8 0.8 0.8 0.8 0.8 0.8 0.8 0.8 0.8 0.8 0.8 0.8 0.8 0.8 0.8 0.8 0.8 0.8 0.8 0.8 0.8 0.8 l 0.8,0.1 0.8,0.1 h 0.8 l 0.8,0.1 h 0.8 0.8 l 0.8,0.1 h 0.8 0.8 0.8 0.8 l 0.8,0.1 h 0.8 l 0.8,0.1 h 0.8 0.8 0.8 l 0.8,0.1 h 0.8 l 0.8,0.1 0.8,0.1 0.8,0.1 h 0.8 0.8 l 0.8,0.1 h 0.8 l 0.8,0.1 h 0.8 l 0.8,0.1 h 0.8 0.8 0.8 0.8 0.8 0.8 0.8 0.8 0.8 0.8 0.8 1.2"
   clip-path="url(#SVGID_2_)" />
			</g>
			<g
   id="g196723">
				<defs
   id="defs196717">
					<rect
   id="SVGID_3_"
   x="972.59998"
   y="214"
   width="201.89999"
   height="172.60001" />
				</defs>
				<clipPath
   id="SVGID_4_">
					<use
   xlink:href="#SVGID_3_"
   style="overflow:visible"
   id="use196719" />
				</clipPath>
				<path
   id="path143692_1_"
   class="st1"
   d="m 1024.2,384.8 h 0.8 0.8 l 0.8,0.1 h 0.8 l 0.8,0.1 h 0.8 0.8 0.8 l 0.8,0.1 h 0.8 l 0.8,0.1 0.8,0.1 h 0.8 0.8 0.8 0.8 0.8 0.8 0.8 0.8 0.8 0.8 0.8 0.8 0.8 0.8 0.8 0.8 0.8 l 0.8,-0.1 h 0.8 0.8 0.8 0.8 l 0.8,-0.1 h 0.8 0.8 l 0.8,-0.1 h 0.8 0.8 l 0.8,-0.1 0.8,-0.1 0.8,-0.1 h 0.8 l 0.8,-0.1 h 0.8 l 0.8,-0.1 0.8,-0.1 0.8,-0.1 0.8,-0.1 h 0.8 0.8 l 0.8,-0.1 0.8,-0.1 0.8,-0.1 h 0.8 0.8 0.8 0.8 0.8 0.8 0.8 0.8 0.8 0.8 0.8 0.8 0.8 0.8 0.8 0.8 0.8 0.8 0.8 0.8 0.8 0.8 l 0.8,0.1 0.8,0.1 h 0.8 l 0.8,0.1 h 0.8 0.8 l 0.8,0.1 h 0.8 0.8 0.8 0.8 l 0.8,0.1 h 0.8 l 0.8,0.1 h 0.8 0.8 0.8 l 0.8,0.1 h 0.8 l 0.8,0.1 0.8,0.1 0.8,0.1 h 0.8 0.8 l 0.8,0.1 h 0.8 l 0.8,0.1 h 0.8 l 0.8,0.1 h 0.8 0.8 1.4"
   clip-path="url(#SVGID_4_)" />
			</g>
			<g
   id="g196732">
				<defs
   id="defs196726">
					<rect
   id="SVGID_5_"
   x="972.59998"
   y="214"
   width="201.89999"
   height="172.60001" />
				</defs>
				<clipPath
   id="SVGID_6_">
					<use
   xlink:href="#SVGID_5_"
   style="overflow:visible"
   id="use196728" />
				</clipPath>
				<path
   id="path143694_1_"
   class="st2"
   d="m 1019.4,369 h 0.8 0.8 l 0.8,0.1 h 0.8 l 0.8,0.1 h 0.8 0.8 0.8 l 0.8,0.1 h 0.8 l 0.8,0.1 0.8,0.1 h 0.8 0.8 0.8 0.8 0.8 0.8 0.8 0.8 0.8 0.8 0.8 0.8 0.8 0.8 0.8 0.8 0.8 l 0.8,-0.1 h 0.8 0.8 0.8 0.8 l 0.8,-0.1 h 0.8 0.8 l 0.8,-0.1 h 0.8 0.8 l 0.8,-0.1 0.8,-0.1 0.8,-0.1 h 0.8 l 0.8,-0.1 h 0.8 l 0.8,-0.1 0.8,-0.1 0.8,-0.1 0.8,-0.1 h 0.8 0.8 l 0.8,-0.1 0.8,-0.1 0.8,-0.1 h 0.8 0.8 0.8 0.8 0.8 0.8 0.8 0.8 0.8 0.8 0.8 0.8 0.8 0.8 0.8 0.8 0.8 0.8 0.8 0.8 0.8 0.8 l 0.8,0.1 0.8,0.1 h 0.8 l 0.8,0.1 h 0.8 0.8 l 0.8,0.1 h 0.8 0.8 0.8 0.8 l 0.8,0.1 h 0.8 l 0.8,0.1 h 0.8 0.8 0.8 l 0.8,0.1 h 0.8 l 0.8,0.1 0.8,0.1 0.8,0.1 h 0.8 0.8 l 0.8,0.1 h 0.8 l 0.8,0.1 h 0.8 l 0.8,0.1 h 0.8 0.8 0.8 0.8 0.8 0.8 0.8 0.8 1.1"
   clip-path="url(#SVGID_6_)" />
			</g>
			<g
   id="g196741">
				<defs
   id="defs196735">
					<rect
   id="SVGID_7_"
   x="972.59998"
   y="214"
   width="201.89999"
   height="172.60001" />
				</defs>
				<clipPath
   id="SVGID_8_">
					<use
   xlink:href="#SVGID_7_"
   style="overflow:visible"
   id="use196737" />
				</clipPath>
				<path
   id="path143696_1_"
   class="st3"
   d="m 1017,358.8 h 0.8 0.8 l 0.8,0.1 h 0.8 l 0.8,0.1 h 0.8 0.8 0.8 l 0.8,0.1 h 0.8 l 0.8,0.1 0.8,0.1 h 0.8 0.8 0.8 0.8 0.8 0.8 0.8 0.8 0.8 0.8 0.8 0.8 0.8 0.8 0.8 0.8 0.8 l 0.8,-0.1 h 0.8 0.8 0.8 0.8 l 0.8,-0.1 h 0.8 0.8 l 0.8,-0.1 h 0.8 0.8 l 0.8,-0.1 0.8,-0.1 0.8,-0.1 h 0.8 l 0.8,-0.1 h 0.8 l 0.8,-0.1 0.8,-0.1 0.8,-0.1 0.8,-0.1 h 0.8 0.8 l 0.8,-0.1 0.8,-0.1 0.8,-0.1 h 0.8 0.8 0.8 0.8 0.8 0.8 0.8 0.8 0.8 0.8 0.8 0.8 0.8 0.8 0.8 0.8 0.8 0.8 0.8 0.8 0.8 0.8 l 0.8,0.1 0.8,0.1 h 0.8 l 0.8,0.1 h 0.8 0.8 l 0.8,0.1 h 0.8 0.8 0.8 0.8 l 0.8,0.1 h 0.8 l 0.8,0.1 h 0.8 0.8 0.8 l 0.8,0.1 h 0.8 l 0.8,0.1 0.8,0.1 0.8,0.1 h 0.8 0.8 l 0.8,0.1 h 0.8 l 0.8,0.1 h 0.8 l 0.8,0.1 h 0.8 0.8 0.8 0.8 0.8 0.8 0.8 0.8 0.8 0.8 0.8 1"
   clip-path="url(#SVGID_8_)" />
			</g>
			<g
   id="g196750">
				<defs
   id="defs196744">
					<rect
   id="SVGID_9_"
   x="972.59998"
   y="214"
   width="201.89999"
   height="172.60001" />
				</defs>
				<clipPath
   id="SVGID_10_">
					<use
   xlink:href="#SVGID_9_"
   style="overflow:visible"
   id="use196746" />
				</clipPath>
				<path
   id="path143698_1_"
   class="st4"
   d="m 1020.1,371.5 h 0.8 0.8 l 0.8,0.1 h 0.8 l 0.8,0.1 h 0.8 0.8 0.8 l 0.8,0.1 h 0.8 l 0.8,0.1 0.8,0.1 h 0.8 0.8 0.8 0.8 0.8 0.8 0.8 0.8 0.8 0.8 0.8 0.8 0.8 0.8 0.8 0.8 0.8 l 0.8,-0.1 h 0.8 0.8 0.8 0.8 l 0.8,-0.1 h 0.8 0.8 l 0.8,-0.1 h 0.8 0.8 l 0.8,-0.1 0.8,-0.1 0.8,-0.1 h 0.8 l 0.8,-0.1 h 0.8 l 0.8,-0.1 0.8,-0.1 0.8,-0.1 0.8,-0.1 h 0.8 0.8 l 0.8,-0.1 0.8,-0.1 0.8,-0.1 h 0.8 0.8 0.8 0.8 0.8 0.8 0.8 0.8 0.8 0.8 0.8 0.8 0.8 0.8 0.8 0.8 0.8 0.8 0.8 0.8 0.8 0.8 l 0.8,0.1 0.8,0.1 h 0.8 l 0.8,0.1 h 0.8 0.8 l 0.8,0.1 h 0.8 0.8 0.8 0.8 l 0.8,0.1 h 0.8 l 0.8,0.1 h 0.8 0.8 0.8 l 0.8,0.1 h 0.8 l 0.8,0.1 0.8,0.1 0.8,0.1 h 0.8 0.8 l 0.8,0.1 h 0.8 l 0.8,0.1 h 0.8 l 0.8,0.1 h 0.8 0.8 0.8 0.8 0.8 0.8 0.8 1.3"
   clip-path="url(#SVGID_10_)" />
			</g>
			<g
   id="g196759">
				<defs
   id="defs196753">
					<rect
   id="SVGID_11_"
   x="972.59998"
   y="214"
   width="201.89999"
   height="172.60001" />
				</defs>
				<clipPath
   id="SVGID_12_">
					<use
   xlink:href="#SVGID_11_"
   style="overflow:visible"
   id="use196755" />
				</clipPath>
				<path
   id="path143700_1_"
   class="st5"
   d="m 1021.6,376.8 h 0.8 0.8 l 0.8,0.1 h 0.8 l 0.8,0.1 h 0.8 0.8 0.8 l 0.8,0.1 h 0.8 l 0.8,0.1 0.8,0.1 h 0.8 0.8 0.8 0.8 0.8 0.8 0.8 0.8 0.8 0.8 0.8 0.8 0.8 0.8 0.8 0.8 0.8 l 0.8,-0.1 h 0.8 0.8 0.8 0.8 l 0.8,-0.1 h 0.8 0.8 l 0.8,-0.1 h 0.8 0.8 l 0.8,-0.1 0.8,-0.1 0.8,-0.1 h 0.8 l 0.8,-0.1 h 0.8 l 0.8,-0.1 0.8,-0.1 0.8,-0.1 0.8,-0.1 h 0.8 0.8 l 0.8,-0.1 0.8,-0.1 0.8,-0.1 h 0.8 0.8 0.8 0.8 0.8 0.8 0.8 0.8 0.8 0.8 0.8 0.8 0.8 0.8 0.8 0.8 0.8 0.8 0.8 0.8 0.8 0.8 l 0.8,0.1 0.8,0.1 h 0.8 l 0.8,0.1 h 0.8 0.8 l 0.8,0.1 h 0.8 0.8 0.8 0.8 l 0.8,0.1 h 0.8 l 0.8,0.1 h 0.8 0.8 0.8 l 0.8,0.1 h 0.8 l 0.8,0.1 0.8,0.1 0.8,0.1 h 0.8 0.8 l 0.8,0.1 h 0.8 l 0.8,0.1 h 0.8 l 0.8,0.1 h 0.8 0.8 0.8 0.8 0.8 1.5"
   clip-path="url(#SVGID_12_)" />
			</g>
			<g
   id="g196768">
				<defs
   id="defs196762">
					<rect
   id="SVGID_13_"
   x="972.59998"
   y="214"
   width="201.89999"
   height="172.60001" />
				</defs>
				<clipPath
   id="SVGID_14_">
					<use
   xlink:href="#SVGID_13_"
   style="overflow:visible"
   id="use196764" />
				</clipPath>
				<path
   id="path143702_1_"
   class="st6"
   d="m 1017.9,363.2 h 0.8 0.8 l 0.8,0.1 h 0.8 l 0.8,0.1 h 0.8 0.8 0.8 l 0.8,0.1 h 0.8 l 0.8,0.1 0.8,0.1 h 0.8 0.8 0.8 0.8 0.8 0.8 0.8 0.8 0.8 0.8 0.8 0.8 0.8 0.8 0.8 0.8 0.8 l 0.8,-0.1 h 0.8 0.8 0.8 0.8 l 0.8,-0.1 h 0.8 0.8 l 0.8,-0.1 h 0.8 0.8 l 0.8,-0.1 0.8,-0.1 0.8,-0.1 h 0.8 l 0.8,-0.1 h 0.8 l 0.8,-0.1 0.8,-0.1 0.8,-0.1 0.8,-0.1 h 0.8 0.8 l 0.8,-0.1 0.8,-0.1 0.8,-0.1 h 0.8 0.8 0.8 0.8 0.8 0.8 0.8 0.8 0.8 0.8 0.8 0.8 0.8 0.8 0.8 0.8 0.8 0.8 0.8 0.8 0.8 0.8 l 0.8,0.1 0.8,0.1 h 0.8 l 0.8,0.1 h 0.8 0.8 l 0.8,0.1 h 0.8 0.8 0.8 0.8 l 0.8,0.1 h 0.8 l 0.8,0.1 h 0.8 0.8 0.8 l 0.8,0.1 h 0.8 l 0.8,0.1 0.8,0.1 0.8,0.1 h 0.8 0.8 l 0.8,0.1 h 0.8 l 0.8,0.1 h 0.8 l 0.8,0.1 h 0.8 0.8 0.8 0.8 0.8 0.8 0.8 0.8 0.8 0.8 0.9"
   clip-path="url(#SVGID_14_)" />
			</g>
			<g
   id="g196777">
				<defs
   id="defs196771">
					<rect
   id="SVGID_15_"
   x="972.59998"
   y="214"
   width="201.89999"
   height="172.60001" />
				</defs>
				<clipPath
   id="SVGID_16_">
					<use
   xlink:href="#SVGID_15_"
   style="overflow:visible"
   id="use196773" />
				</clipPath>
				<path
   id="path143704_1_"
   class="st7"
   d="m 1021.5,376.7 h 0.8 0.8 l 0.8,0.1 h 0.8 l 0.8,0.1 h 0.8 0.8 0.8 l 0.8,0.1 h 0.8 l 0.8,0.1 0.8,0.1 h 0.8 0.8 0.8 0.8 0.8 0.8 0.8 0.8 0.8 0.8 0.8 0.8 0.8 0.8 0.8 0.8 0.8 l 0.8,-0.1 h 0.8 0.8 0.8 0.8 l 0.8,-0.1 h 0.8 0.8 l 0.8,-0.1 h 0.8 0.8 l 0.8,-0.1 0.8,-0.1 0.8,-0.1 h 0.8 l 0.8,-0.1 h 0.8 l 0.8,-0.1 0.8,-0.1 0.8,-0.1 0.8,-0.1 h 0.8 0.8 l 0.8,-0.1 0.8,-0.1 0.8,-0.1 h 0.8 0.8 0.8 0.8 0.8 0.8 0.8 0.8 0.8 0.8 0.8 0.8 0.8 0.8 0.8 0.8 0.8 0.8 0.8 0.8 0.8 0.8 l 0.8,0.1 0.8,0.1 h 0.8 l 0.8,0.1 h 0.8 0.8 l 0.8,0.1 h 0.8 0.8 0.8 0.8 l 0.8,0.1 h 0.8 l 0.8,0.1 h 0.8 0.8 0.8 l 0.8,0.1 h 0.8 l 0.8,0.1 0.8,0.1 0.8,0.1 h 0.8 0.8 l 0.8,0.1 h 0.8 l 0.8,0.1 h 0.8 l 0.8,0.1 h 0.8 0.8 0.8 0.8 0.8 1.5"
   clip-path="url(#SVGID_16_)" />
			</g>
			<g
   id="g196786">
				<defs
   id="defs196780">
					<rect
   id="SVGID_17_"
   x="972.59998"
   y="214"
   width="201.89999"
   height="172.60001" />
				</defs>
				<clipPath
   id="SVGID_18_">
					<use
   xlink:href="#SVGID_17_"
   style="overflow:visible"
   id="use196782" />
				</clipPath>
				<path
   id="path143706_1_"
   class="st8"
   d="m 1020.4,372.6 h 0.8 0.8 l 0.8,0.1 h 0.8 l 0.8,0.1 h 0.8 0.8 0.8 l 0.8,0.1 h 0.8 l 0.8,0.1 0.8,0.1 h 0.8 0.8 0.8 0.8 0.8 0.8 0.8 0.8 0.8 0.8 0.8 0.8 0.8 0.8 0.8 0.8 0.8 l 0.8,-0.1 h 0.8 0.8 0.8 0.8 l 0.8,-0.1 h 0.8 0.8 l 0.8,-0.1 h 0.8 0.8 l 0.8,-0.1 0.8,-0.1 0.8,-0.1 h 0.8 l 0.8,-0.1 h 0.8 l 0.8,-0.1 0.8,-0.1 0.8,-0.1 0.8,-0.1 h 0.8 0.8 l 0.8,-0.1 0.8,-0.1 0.8,-0.1 h 0.8 0.8 0.8 0.8 0.8 0.8 0.8 0.8 0.8 0.8 0.8 0.8 0.8 0.8 0.8 0.8 0.8 0.8 0.8 0.8 0.8 0.8 l 0.8,0.1 0.8,0.1 h 0.8 l 0.8,0.1 h 0.8 0.8 l 0.8,0.1 h 0.8 0.8 0.8 0.8 l 0.8,0.1 h 0.8 l 0.8,0.1 h 0.8 0.8 0.8 l 0.8,0.1 h 0.8 l 0.8,0.1 0.8,0.1 0.8,0.1 h 0.8 0.8 l 0.8,0.1 h 0.8 l 0.8,0.1 h 0.8 l 0.8,0.1 h 0.8 0.8 0.8 0.8 0.8 0.8 0.8 1"
   clip-path="url(#SVGID_18_)" />
			</g>
			<g
   id="g196795">
				<defs
   id="defs196789">
					<rect
   id="SVGID_19_"
   x="972.59998"
   y="214"
   width="201.89999"
   height="172.60001" />
				</defs>
				<clipPath
   id="SVGID_20_">
					<use
   xlink:href="#SVGID_19_"
   style="overflow:visible"
   id="use196791" />
				</clipPath>
				<path
   id="path143708_1_"
   class="st9"
   d="m 1018.3,364.7 h 0.8 0.8 l 0.8,0.1 h 0.8 l 0.8,0.1 h 0.8 0.8 0.8 l 0.8,0.1 h 0.8 l 0.8,0.1 0.8,0.1 h 0.8 0.8 0.8 0.8 0.8 0.8 0.8 0.8 0.8 0.8 0.8 0.8 0.8 0.8 0.8 0.8 0.8 l 0.8,-0.1 h 0.8 0.8 0.8 0.8 l 0.8,-0.1 h 0.8 0.8 l 0.8,-0.1 h 0.8 0.8 l 0.8,-0.1 0.8,-0.1 0.8,-0.1 h 0.8 l 0.8,-0.1 h 0.8 l 0.8,-0.1 0.8,-0.1 0.8,-0.1 0.8,-0.1 h 0.8 0.8 l 0.8,-0.1 0.8,-0.1 0.8,-0.1 h 0.8 0.8 0.8 0.8 0.8 0.8 0.8 0.8 0.8 0.8 0.8 0.8 0.8 0.8 0.8 0.8 0.8 0.8 0.8 0.8 0.8 0.8 l 0.8,0.1 0.8,0.1 h 0.8 l 0.8,0.1 h 0.8 0.8 l 0.8,0.1 h 0.8 0.8 0.8 0.8 l 0.8,0.1 h 0.8 l 0.8,0.1 h 0.8 0.8 0.8 l 0.8,0.1 h 0.8 l 0.8,0.1 0.8,0.1 0.8,0.1 h 0.8 0.8 l 0.8,0.1 h 0.8 l 0.8,0.1 h 0.8 l 0.8,0.1 h 0.8 0.8 0.8 0.8 0.8 0.8 0.8 0.8 0.8 1.4"
   clip-path="url(#SVGID_20_)" />
			</g>
			<g
   id="g196804">
				<defs
   id="defs196798">
					<rect
   id="SVGID_21_"
   x="972.59998"
   y="214"
   width="201.89999"
   height="172.60001" />
				</defs>
				<clipPath
   id="SVGID_22_">
					<use
   xlink:href="#SVGID_21_"
   style="overflow:visible"
   id="use196800" />
				</clipPath>
				<path
   id="path143710_1_"
   class="st10"
   d="m 1117.3,371.5 h -0.8 -0.8 l -0.8,-0.1 h -0.8 l -0.8,-0.1 h -0.8 -0.8 -0.8 l -0.8,-0.1 h -0.8 l -0.8,-0.1 -0.8,-0.1 h -0.8 -0.8 -0.8 -0.8 -0.8 -0.8 -0.8 -0.8 -0.8 -0.8 -0.8 -0.8 -0.8 -0.8 -0.8 -0.8 -0.8 l -0.8,0.1 h -0.8 -0.8 -0.8 -0.8 l -0.8,0.1 h -0.8 -0.8 l -0.8,0.1 h -0.8 -0.8 l -0.8,0.1 -0.8,0.1 -0.8,0.1 h -0.8 l -0.8,0.1 h -0.8 l -0.8,0.1 -0.8,0.1 -0.8,0.1 -0.8,0.1 h -0.8 -0.8 l -0.8,0.1 -0.8,0.1 -0.8,0.1 h -0.8 -0.8 -0.8 -0.8 -0.8 -0.8 -0.8 -0.8 -0.8 -0.8 -0.8 -0.8 -0.8 -0.8 -0.8 -0.8 -0.8 -0.8 -0.8 -0.8 -0.8 -0.8 l -0.8,-0.1 -0.8,-0.1 h -0.8 l -0.8,-0.1 h -0.8 -0.8 l -0.8,-0.1 h -0.8 -0.8 -0.8 -0.8 l -0.8,-0.1 h -0.8 l -0.8,-0.1 h -0.8 -0.8 -0.8 l -0.8,-0.1 h -0.8 l -0.8,-0.1 -0.8,-0.1 -0.8,-0.1 h -0.8 -0.8 l -0.8,-0.1 h -0.8 l -0.8,-0.1 h -0.8 l -0.8,-0.1 h -0.8 -0.8 -0.8 -0.8 -0.8 -0.8 -0.8 -1.3"
   clip-path="url(#SVGID_22_)" />
			</g>
			<g
   id="g196813">
				<defs
   id="defs196807">
					<rect
   id="SVGID_23_"
   x="972.59998"
   y="214"
   width="201.89999"
   height="172.60001" />
				</defs>
				<clipPath
   id="SVGID_24_">
					<use
   xlink:href="#SVGID_23_"
   style="overflow:visible"
   id="use196809" />
				</clipPath>
				<path
   id="path143712_1_"
   class="st11"
   d="m 1117.3,371.4 h -0.8 -0.8 l -0.8,-0.1 h -0.8 l -0.8,-0.1 h -0.8 -0.8 -0.8 l -0.8,-0.1 h -0.8 l -0.8,-0.1 -0.8,-0.1 h -0.8 -0.8 -0.8 -0.8 -0.8 -0.8 -0.8 -0.8 -0.8 -0.8 -0.8 -0.8 -0.8 -0.8 -0.8 -0.8 -0.8 l -0.8,0.1 h -0.8 -0.8 -0.8 -0.8 l -0.8,0.1 h -0.8 -0.8 l -0.8,0.1 h -0.8 -0.8 l -0.8,0.1 -0.8,0.1 -0.8,0.1 h -0.8 l -0.8,0.1 h -0.8 l -0.8,0.1 -0.8,0.1 -0.8,0.1 -0.8,0.1 h -0.8 -0.8 l -0.8,0.1 -0.8,0.1 -0.8,0.1 h -0.8 -0.8 -0.8 -0.8 -0.8 -0.8 -0.8 -0.8 -0.8 -0.8 -0.8 -0.8 -0.8 -0.8 -0.8 -0.8 -0.8 -0.8 -0.8 -0.8 -0.8 -0.8 l -0.8,-0.1 -0.8,-0.1 h -0.8 l -0.8,-0.1 h -0.8 -0.8 l -0.8,-0.1 h -0.8 -0.8 -0.8 -0.8 l -0.8,-0.1 h -0.8 l -0.8,-0.1 h -0.8 -0.8 -0.8 l -0.8,-0.1 h -0.8 l -0.8,-0.1 -0.8,-0.1 -0.8,-0.1 h -0.8 -0.8 l -0.8,-0.1 h -0.8 l -0.8,-0.1 h -0.8 l -0.8,-0.1 h -0.8 -0.8 -0.8 -0.8 -0.8 -0.8 -0.8 -1.3"
   clip-path="url(#SVGID_24_)" />
			</g>
			<g
   id="g196822">
				<defs
   id="defs196816">
					<rect
   id="SVGID_25_"
   x="972.59998"
   y="214"
   width="201.89999"
   height="172.60001" />
				</defs>
				<clipPath
   id="SVGID_26_">
					<use
   xlink:href="#SVGID_25_"
   style="overflow:visible"
   id="use196818" />
				</clipPath>
				<path
   id="path143714_1_"
   class="st12"
   d="m 1117.3,386 h -0.8 -0.8 l -0.8,-0.1 h -0.8 l -0.8,-0.1 h -0.8 -0.8 -0.8 l -0.8,-0.1 h -0.8 l -0.8,-0.1 -0.8,-0.1 h -0.8 -0.8 -0.8 -0.8 -0.8 -0.8 -0.8 -0.8 -0.8 -0.8 -0.8 -0.8 -0.8 -0.8 -0.8 -0.8 -0.8 l -0.8,0.1 h -0.8 -0.8 -0.8 -0.8 l -0.8,0.1 h -0.8 -0.8 l -0.8,0.1 h -0.8 -0.8 l -0.8,0.1 -0.8,0.1 -0.8,0.1 h -0.8 l -0.8,0.1 h -0.8 l -0.8,0.1 -0.8,0.1 -0.8,0.1 -0.8,0.1 h -0.8 -0.8 l -0.8,0.1 -0.8,0.1 -0.8,0.1 h -0.8 -0.8 -0.8 -0.8 -0.8 -0.8 -0.8 -0.8 -0.8 -0.8 -0.8 -0.8 -0.8 -0.8 -0.8 -0.8 -0.8 -0.8 -0.8 -0.8 -0.8 -0.8 l -0.8,-0.1 -0.8,-0.1 h -0.8 l -0.8,-0.1 h -0.8 -0.8 l -0.8,-0.1 h -0.8 -0.8 -0.8 -0.8 l -0.8,-0.1 h -0.8 l -0.8,-0.1 h -0.8 -0.8 -0.8 l -0.8,-0.1 h -0.8 l -0.8,-0.1 -0.8,-0.1 -0.8,-0.1 h -0.8 -0.8 l -0.8,-0.1 h -0.8 l -0.8,-0.1 h -0.8 l -0.8,-0.1 h -0.8 -0.8 -1"
   clip-path="url(#SVGID_26_)" />
			</g>
			<g
   id="g196831">
				<defs
   id="defs196825">
					<rect
   id="SVGID_27_"
   x="972.59998"
   y="214"
   width="201.89999"
   height="172.60001" />
				</defs>
				<clipPath
   id="SVGID_28_">
					<use
   xlink:href="#SVGID_27_"
   style="overflow:visible"
   id="use196827" />
				</clipPath>
				<path
   id="path143716_1_"
   class="st13"
   d="m 1117.3,365.9 h -0.8 -0.8 l -0.8,-0.1 h -0.8 l -0.8,-0.1 h -0.8 -0.8 -0.8 l -0.8,-0.1 h -0.8 l -0.8,-0.1 -0.8,-0.1 h -0.8 -0.8 -0.8 -0.8 -0.8 -0.8 -0.8 -0.8 -0.8 -0.8 -0.8 -0.8 -0.8 -0.8 -0.8 -0.8 -0.8 l -0.8,0.1 h -0.8 -0.8 -0.8 -0.8 l -0.8,0.1 h -0.8 -0.8 l -0.8,0.1 h -0.8 -0.8 l -0.8,0.1 -0.8,0.1 -0.8,0.1 h -0.8 l -0.8,0.1 h -0.8 l -0.8,0.1 -0.8,0.1 -0.8,0.1 -0.8,0.1 h -0.8 -0.8 l -0.8,0.1 -0.8,0.1 -0.8,0.1 h -0.8 -0.8 -0.8 -0.8 -0.8 -0.8 -0.8 -0.8 -0.8 -0.8 -0.8 -0.8 -0.8 -0.8 -0.8 -0.8 -0.8 -0.8 -0.8 -0.8 -0.8 -0.8 l -0.8,-0.1 -0.8,-0.1 h -0.8 l -0.8,-0.1 h -0.8 -0.8 l -0.8,-0.1 h -0.8 -0.8 -0.8 -0.8 l -0.8,-0.1 h -0.8 l -0.8,-0.1 h -0.8 -0.8 -0.8 l -0.8,-0.1 h -0.8 l -0.8,-0.1 -0.8,-0.1 -0.8,-0.1 h -0.8 -0.8 l -0.8,-0.1 h -0.8 l -0.8,-0.1 h -0.8 l -0.8,-0.1 h -0.8 -0.8 -0.8 -0.8 -0.8 -0.8 -0.8 -0.8 -0.8 -1"
   clip-path="url(#SVGID_28_)" />
			</g>
			<g
   id="g196840">
				<defs
   id="defs196834">
					<rect
   id="SVGID_29_"
   x="972.59998"
   y="214"
   width="201.89999"
   height="172.60001" />
				</defs>
				<clipPath
   id="SVGID_30_">
					<use
   xlink:href="#SVGID_29_"
   style="overflow:visible"
   id="use196836" />
				</clipPath>
				<path
   id="path143718_1_"
   class="st14"
   d="m 1117.3,364.9 h -0.8 -0.8 l -0.8,-0.1 h -0.8 l -0.8,-0.1 h -0.8 -0.8 -0.8 l -0.8,-0.1 h -0.8 l -0.8,-0.1 -0.8,-0.1 h -0.8 -0.8 -0.8 -0.8 -0.8 -0.8 -0.8 -0.8 -0.8 -0.8 -0.8 -0.8 -0.8 -0.8 -0.8 -0.8 -0.8 l -0.8,0.1 h -0.8 -0.8 -0.8 -0.8 l -0.8,0.1 h -0.8 -0.8 l -0.8,0.1 h -0.8 -0.8 l -0.8,0.1 -0.8,0.1 -0.8,0.1 h -0.8 l -0.8,0.1 h -0.8 l -0.8,0.1 -0.8,0.1 -0.8,0.1 -0.8,0.1 h -0.8 -0.8 l -0.8,0.1 -0.8,0.1 -0.8,0.1 h -0.8 -0.8 -0.8 -0.8 -0.8 -0.8 -0.8 -0.8 -0.8 -0.8 -0.8 -0.8 -0.8 -0.8 -0.8 -0.8 -0.8 -0.8 -0.8 -0.8 -0.8 -0.8 l -0.8,-0.1 -0.8,-0.1 h -0.8 l -0.8,-0.1 h -0.8 -0.8 l -0.8,-0.1 h -0.8 -0.8 -0.8 -0.8 l -0.8,-0.1 h -0.8 l -0.8,-0.1 h -0.8 -0.8 -0.8 l -0.8,-0.1 h -0.8 l -0.8,-0.1 -0.8,-0.1 -0.8,-0.1 h -0.8 -0.8 l -0.8,-0.1 h -0.8 l -0.8,-0.1 h -0.8 l -0.8,-0.1 h -0.8 -0.8 -0.8 -0.8 -0.8 -0.8 -0.8 -0.8 -0.8 -1.3"
   clip-path="url(#SVGID_30_)" />
			</g>
			<g
   id="g196849">
				<defs
   id="defs196843">
					<rect
   id="SVGID_31_"
   x="972.59998"
   y="214"
   width="201.89999"
   height="172.60001" />
				</defs>
				<clipPath
   id="SVGID_32_">
					<use
   xlink:href="#SVGID_31_"
   style="overflow:visible"
   id="use196845" />
				</clipPath>
				<path
   id="path143720_1_"
   class="st15"
   d="m 1117.3,382.1 h -0.8 -0.8 l -0.8,-0.1 h -0.8 l -0.8,-0.1 h -0.8 -0.8 -0.8 l -0.8,-0.1 h -0.8 l -0.8,-0.1 -0.8,-0.1 h -0.8 -0.8 -0.8 -0.8 -0.8 -0.8 -0.8 -0.8 -0.8 -0.8 -0.8 -0.8 -0.8 -0.8 -0.8 -0.8 -0.8 l -0.8,0.1 h -0.8 -0.8 -0.8 -0.8 l -0.8,0.1 h -0.8 -0.8 l -0.8,0.1 h -0.8 -0.8 l -0.8,0.1 -0.8,0.1 -0.8,0.1 h -0.8 l -0.8,0.1 h -0.8 l -0.8,0.1 -0.8,0.1 -0.8,0.1 -0.8,0.1 h -0.8 -0.8 l -0.8,0.1 -0.8,0.1 -0.8,0.1 h -0.8 -0.8 -0.8 -0.8 -0.8 -0.8 -0.8 -0.8 -0.8 -0.8 -0.8 -0.8 -0.8 -0.8 -0.8 -0.8 -0.8 -0.8 -0.8 -0.8 -0.8 -0.8 l -0.8,-0.1 -0.8,-0.1 h -0.8 l -0.8,-0.1 h -0.8 -0.8 l -0.8,-0.1 h -0.8 -0.8 -0.8 -0.8 l -0.8,-0.1 h -0.8 l -0.8,-0.1 h -0.8 -0.8 -0.8 l -0.8,-0.1 h -0.8 l -0.8,-0.1 -0.8,-0.1 -0.8,-0.1 h -0.8 -0.8 l -0.8,-0.1 h -0.8 l -0.8,-0.1 h -0.8 l -0.8,-0.1 h -0.8 -0.8 -0.8 -1.5"
   clip-path="url(#SVGID_32_)" />
			</g>
			<g
   id="g196858">
				<defs
   id="defs196852">
					<rect
   id="SVGID_33_"
   x="972.59998"
   y="214"
   width="201.89999"
   height="172.60001" />
				</defs>
				<clipPath
   id="SVGID_34_">
					<use
   xlink:href="#SVGID_33_"
   style="overflow:visible"
   id="use196854" />
				</clipPath>
				<path
   id="path143722_1_"
   class="st16"
   d="m 1117.3,374.1 h -0.8 -0.8 l -0.8,-0.1 h -0.8 l -0.8,-0.1 h -0.8 -0.8 -0.8 l -0.8,-0.1 h -0.8 l -0.8,-0.1 -0.8,-0.1 h -0.8 -0.8 -0.8 -0.8 -0.8 -0.8 -0.8 -0.8 -0.8 -0.8 -0.8 -0.8 -0.8 -0.8 -0.8 -0.8 -0.8 l -0.8,0.1 h -0.8 -0.8 -0.8 -0.8 l -0.8,0.1 h -0.8 -0.8 l -0.8,0.1 h -0.8 -0.8 l -0.8,0.1 -0.8,0.1 -0.8,0.1 h -0.8 l -0.8,0.1 h -0.8 l -0.8,0.1 -0.8,0.1 -0.8,0.1 -0.8,0.1 h -0.8 -0.8 l -0.8,0.1 -0.8,0.1 -0.8,0.1 h -0.8 -0.8 -0.8 -0.8 -0.8 -0.8 -0.8 -0.8 -0.8 -0.8 -0.8 -0.8 -0.8 -0.8 -0.8 -0.8 -0.8 -0.8 -0.8 -0.8 -0.8 -0.8 l -0.8,-0.1 -0.8,-0.1 h -0.8 l -0.8,-0.1 h -0.8 -0.8 l -0.8,-0.1 h -0.8 -0.8 -0.8 -0.8 l -0.8,-0.1 h -0.8 l -0.8,-0.1 h -0.8 -0.8 -0.8 l -0.8,-0.1 h -0.8 l -0.8,-0.1 -0.8,-0.1 -0.8,-0.1 h -0.8 -0.8 l -0.8,-0.1 h -0.8 l -0.8,-0.1 h -0.8 l -0.8,-0.1 h -0.8 -0.8 -0.8 -0.8 -0.8 -0.8 -1.4"
   clip-path="url(#SVGID_34_)" />
			</g>
			<g
   id="g196867">
				<defs
   id="defs196861">
					<rect
   id="SVGID_35_"
   x="972.59998"
   y="214"
   width="201.89999"
   height="172.60001" />
				</defs>
				<clipPath
   id="SVGID_36_">
					<use
   xlink:href="#SVGID_35_"
   style="overflow:visible"
   id="use196863" />
				</clipPath>
				<path
   id="path143724_1_"
   class="st17"
   d="m 1117.3,372.4 h -0.8 -0.8 l -0.8,-0.1 h -0.8 l -0.8,-0.1 h -0.8 -0.8 -0.8 l -0.8,-0.1 h -0.8 l -0.8,-0.1 -0.8,-0.1 h -0.8 -0.8 -0.8 -0.8 -0.8 -0.8 -0.8 -0.8 -0.8 -0.8 -0.8 -0.8 -0.8 -0.8 -0.8 -0.8 -0.8 l -0.8,0.1 h -0.8 -0.8 -0.8 -0.8 l -0.8,0.1 h -0.8 -0.8 l -0.8,0.1 h -0.8 -0.8 l -0.8,0.1 -0.8,0.1 -0.8,0.1 h -0.8 l -0.8,0.1 h -0.8 l -0.8,0.1 -0.8,0.1 -0.8,0.1 -0.8,0.1 h -0.8 -0.8 l -0.8,0.1 -0.8,0.1 -0.8,0.1 h -0.8 -0.8 -0.8 -0.8 -0.8 -0.8 -0.8 -0.8 -0.8 -0.8 -0.8 -0.8 -0.8 -0.8 -0.8 -0.8 -0.8 -0.8 -0.8 -0.8 -0.8 -0.8 l -0.8,-0.1 -0.8,-0.1 h -0.8 l -0.8,-0.1 h -0.8 -0.8 l -0.8,-0.1 h -0.8 -0.8 -0.8 -0.8 l -0.8,-0.1 h -0.8 l -0.8,-0.1 h -0.8 -0.8 -0.8 l -0.8,-0.1 h -0.8 l -0.8,-0.1 -0.8,-0.1 -0.8,-0.1 h -0.8 -0.8 l -0.8,-0.1 h -0.8 l -0.8,-0.1 h -0.8 l -0.8,-0.1 h -0.8 -0.8 -0.8 -0.8 -0.8 -0.8 -0.8 -1"
   clip-path="url(#SVGID_36_)" />
			</g>
			<g
   id="g196876">
				<defs
   id="defs196870">
					<rect
   id="SVGID_37_"
   x="972.59998"
   y="214"
   width="201.89999"
   height="172.60001" />
				</defs>
				<clipPath
   id="SVGID_38_">
					<use
   xlink:href="#SVGID_37_"
   style="overflow:visible"
   id="use196872" />
				</clipPath>
				<path
   id="path143726_1_"
   class="st18"
   d="m 1117.3,362.2 h -0.8 -0.8 l -0.8,-0.1 h -0.8 l -0.8,-0.1 h -0.8 -0.8 -0.8 l -0.8,-0.1 h -0.8 l -0.8,-0.1 -0.8,-0.1 h -0.8 -0.8 -0.8 -0.8 -0.8 -0.8 -0.8 -0.8 -0.8 -0.8 -0.8 -0.8 -0.8 -0.8 -0.8 -0.8 -0.8 l -0.8,0.1 h -0.8 -0.8 -0.8 -0.8 l -0.8,0.1 h -0.8 -0.8 l -0.8,0.1 h -0.8 -0.8 l -0.8,0.1 -0.8,0.1 -0.8,0.1 h -0.8 l -0.8,0.1 h -0.8 l -0.8,0.1 -0.8,0.1 -0.8,0.1 -0.8,0.1 h -0.8 -0.8 l -0.8,0.1 -0.8,0.1 -0.8,0.1 h -0.8 -0.8 -0.8 -0.8 -0.8 -0.8 -0.8 -0.8 -0.8 -0.8 -0.8 -0.8 -0.8 -0.8 -0.8 -0.8 -0.8 -0.8 -0.8 -0.8 -0.8 -0.8 l -0.8,-0.1 -0.8,-0.1 h -0.8 l -0.8,-0.1 h -0.8 -0.8 l -0.8,-0.1 h -0.8 -0.8 -0.8 -0.8 l -0.8,-0.1 h -0.8 l -0.8,-0.1 h -0.8 -0.8 -0.8 l -0.8,-0.1 h -0.8 l -0.8,-0.1 -0.8,-0.1 -0.8,-0.1 h -0.8 -0.8 l -0.8,-0.1 h -0.8 l -0.8,-0.1 h -0.8 l -0.8,-0.1 h -0.8 -0.8 -0.8 -0.8 -0.8 -0.8 -0.8 -0.8 -0.8 -0.8 -1.1"
   clip-path="url(#SVGID_38_)" />
			</g>
			<g
   id="g196885">
				<defs
   id="defs196879">
					<rect
   id="SVGID_39_"
   x="972.59998"
   y="214"
   width="201.89999"
   height="172.60001" />
				</defs>
				<clipPath
   id="SVGID_40_">
					<use
   xlink:href="#SVGID_39_"
   style="overflow:visible"
   id="use196881" />
				</clipPath>
				<path
   id="path143728_1_"
   class="st19"
   d="m 1117.3,375.6 h -0.8 -0.8 l -0.8,-0.1 h -0.8 l -0.8,-0.1 h -0.8 -0.8 -0.8 l -0.8,-0.1 h -0.8 l -0.8,-0.1 -0.8,-0.1 h -0.8 -0.8 -0.8 -0.8 -0.8 -0.8 -0.8 -0.8 -0.8 -0.8 -0.8 -0.8 -0.8 -0.8 -0.8 -0.8 -0.8 l -0.8,0.1 h -0.8 -0.8 -0.8 -0.8 l -0.8,0.1 h -0.8 -0.8 l -0.8,0.1 h -0.8 -0.8 l -0.8,0.1 -0.8,0.1 -0.8,0.1 h -0.8 l -0.8,0.1 h -0.8 l -0.8,0.1 -0.8,0.1 -0.8,0.1 -0.8,0.1 h -0.8 -0.8 l -0.8,0.1 -0.8,0.1 -0.8,0.1 h -0.8 -0.8 -0.8 -0.8 -0.8 -0.8 -0.8 -0.8 -0.8 -0.8 -0.8 -0.8 -0.8 -0.8 -0.8 -0.8 -0.8 -0.8 -0.8 -0.8 -0.8 -0.8 l -0.8,-0.1 -0.8,-0.1 h -0.8 l -0.8,-0.1 h -0.8 -0.8 l -0.8,-0.1 h -0.8 -0.8 -0.8 -0.8 l -0.8,-0.1 h -0.8 l -0.8,-0.1 h -0.8 -0.8 -0.8 l -0.8,-0.1 h -0.8 l -0.8,-0.1 -0.8,-0.1 -0.8,-0.1 h -0.8 -0.8 l -0.8,-0.1 h -0.8 l -0.8,-0.1 h -0.8 l -0.8,-0.1 h -0.8 -0.8 -0.8 -0.8 -0.8 -0.8 -1"
   clip-path="url(#SVGID_40_)" />
			</g>
			<g
   id="patch_6_4_">
				<g
   id="g196894">
					<defs
   id="defs196888">
						<rect
   id="SVGID_41_"
   x="972.59998"
   y="214"
   width="201.89999"
   height="172.60001" />
					</defs>
					<clipPath
   id="SVGID_42_">
						<use
   xlink:href="#SVGID_41_"
   style="overflow:visible"
   id="use196890" />
					</clipPath>
					<path
   id="path144051_1_"
   class="st20"
   d="m 1047,309.9 h -0.8 -0.8 l -0.8,-0.1 h -0.8 l -0.8,-0.1 h -0.8 -0.8 -0.8 l -0.8,-0.1 h -0.8 l -0.8,-0.1 -0.8,-0.1 h -0.8 -0.8 -0.8 -0.8 -0.8 -0.8 -0.8 -0.8 -0.8 -0.8 -0.8 -0.8 -0.8 -0.8 -0.8 -0.8 -0.8 l -0.8,0.1 h -0.8 -0.8 -0.8 -0.8 l -0.8,0.1 h -0.8 -0.8 l -0.8,0.1 h -0.8 -0.8 l -0.8,0.1 -1.7,0.1"
   clip-path="url(#SVGID_42_)" />
				</g>
				<g
   id="g196903">
					<defs
   id="defs196897">
						<rect
   id="SVGID_43_"
   x="972.59998"
   y="214"
   width="201.89999"
   height="172.60001" />
					</defs>
					<clipPath
   id="SVGID_44_">
						<use
   xlink:href="#SVGID_43_"
   style="overflow:visible"
   id="use196899" />
					</clipPath>
					<path
   id="path144053_1_"
   class="st21"
   d="m 1047,309.9 h -0.8 -0.8 l -0.8,-0.1 h -0.8 l -0.8,-0.1 h -0.8 -0.8 -0.8 l -0.8,-0.1 h -0.8 l -0.8,-0.1 -0.8,-0.1 h -0.8 -0.8 -0.8 -0.8 -0.8 -0.8 -0.8 -0.8 -0.8 -0.8 -0.8 -0.8 -0.8 -0.8 -0.8 -0.8 -0.8 l -0.8,0.1 h -0.8 -0.8 -0.8 -0.8 l -0.8,0.1 h -0.8 -0.8 l -0.8,0.1 h -0.8 -0.8 l -0.8,0.1 -1.7,0.1"
   clip-path="url(#SVGID_44_)" />
				</g>
				<g
   id="g196912">
					<defs
   id="defs196906">
						<rect
   id="SVGID_45_"
   x="972.59998"
   y="214"
   width="201.89999"
   height="172.60001" />
					</defs>
					<clipPath
   id="SVGID_46_">
						<use
   xlink:href="#SVGID_45_"
   style="overflow:visible"
   id="use196908" />
					</clipPath>
					<path
   id="path144055_1_"
   class="st22"
   d="m 1013.9,311.6 -0.7,-0.4 -0.7,-0.4 -0.7,-0.5 -1.1,-0.6 h 0.8 l 0.8,-0.4 0.8,-0.4 1.1,-0.5 -0.6,0.5 v 0.8 l -0.1,1.7 h 0.4 z"
   clip-path="url(#SVGID_46_)" />
				</g>
				<g
   id="g196921">
					<defs
   id="defs196915">
						<rect
   id="SVGID_47_"
   x="972.59998"
   y="214"
   width="201.89999"
   height="172.60001" />
					</defs>
					<clipPath
   id="SVGID_48_">
						<use
   xlink:href="#SVGID_47_"
   style="overflow:visible"
   id="use196917" />
					</clipPath>
					<path
   id="path144057_1_"
   class="st23"
   d="m 1013.9,311.6 -0.7,-0.4 -0.7,-0.4 -0.7,-0.5 -1.1,-0.6 h 0.8 l 0.8,-0.4 0.8,-0.4 1.1,-0.5 -0.6,0.5 v 0.8 l -0.1,1.7 h 0.4 z"
   clip-path="url(#SVGID_48_)" />
				</g>
				<g
   id="patch_7_3_">
					<g
   id="g196930">
						<defs
   id="defs196924">
							<rect
   id="SVGID_49_"
   x="972.59998"
   y="214"
   width="201.89999"
   height="172.60001" />
						</defs>
						<clipPath
   id="SVGID_50_">
							<use
   xlink:href="#SVGID_49_"
   style="overflow:visible"
   id="use196926" />
						</clipPath>
						<path
   id="path144059_1_"
   class="st24"
   d="m 1100.1,309.9 h 0.8 0.8 l 0.8,0.1 h 0.8 l 0.8,0.1 h 0.8 0.8 0.8 l 0.8,0.1 h 0.8 l 0.8,0.1 0.8,0.1 h 0.8 0.8 0.8 0.8 0.8 0.8 1.3"
   clip-path="url(#SVGID_50_)" />
					</g>
					<g
   id="g196939">
						<defs
   id="defs196933">
							<rect
   id="SVGID_51_"
   x="972.59998"
   y="214"
   width="201.89999"
   height="172.60001" />
						</defs>
						<clipPath
   id="SVGID_52_">
							<use
   xlink:href="#SVGID_51_"
   style="overflow:visible"
   id="use196935" />
						</clipPath>
						<path
   id="path144061_1_"
   class="st25"
   d="m 1100.1,309.9 h 0.8 0.8 l 0.8,0.1 h 0.8 l 0.8,0.1 h 0.8 0.8 0.8 l 0.8,0.1 h 0.8 l 0.8,0.1 0.8,0.1 h 0.8 0.8 0.8 0.8 0.8 0.8 1.3"
   clip-path="url(#SVGID_52_)" />
					</g>
					<g
   id="g196948">
						<defs
   id="defs196942">
							<rect
   id="SVGID_53_"
   x="972.59998"
   y="214"
   width="201.89999"
   height="172.60001" />
						</defs>
						<clipPath
   id="SVGID_54_">
							<use
   xlink:href="#SVGID_53_"
   style="overflow:visible"
   id="use196944" />
						</clipPath>
						<path
   id="path144063_1_"
   class="st26"
   d="m 1113.3,308.2 0.7,0.4 0.7,0.4 0.7,0.5 1.1,0.6 h -0.8 l -0.8,0.4 -0.8,0.4 -1.1,0.5 0.6,-0.5 v -0.8 l 0.1,-1.7 h -0.4 z"
   clip-path="url(#SVGID_54_)" />
					</g>
					<g
   id="g196957">
						<defs
   id="defs196951">
							<rect
   id="SVGID_55_"
   x="972.59998"
   y="214"
   width="201.89999"
   height="172.60001" />
						</defs>
						<clipPath
   id="SVGID_56_">
							<use
   xlink:href="#SVGID_55_"
   style="overflow:visible"
   id="use196953" />
						</clipPath>
						<path
   id="path144065_1_"
   class="st27"
   d="m 1113.3,308.2 0.7,0.4 0.7,0.4 0.7,0.5 1.1,0.6 h -0.8 l -0.8,0.4 -0.8,0.4 -1.1,0.5 0.6,-0.5 v -0.8 l 0.1,-1.7 h -0.4 z"
   clip-path="url(#SVGID_56_)" />
					</g>
					<g
   id="g196966">
						<defs
   id="defs196960">
							<rect
   id="SVGID_57_"
   x="972.59998"
   y="214"
   width="201.89999"
   height="172.60001" />
						</defs>
						<clipPath
   id="SVGID_58_">
							<use
   xlink:href="#SVGID_57_"
   style="overflow:visible"
   id="use196962" />
						</clipPath>
						<path
   id="path144067_1_"
   class="st28"
   d="m 1118.1,358 -1.7,-0.8 v 1.7 z"
   clip-path="url(#SVGID_58_)" />
					</g>
					<g
   id="g196975">
						<defs
   id="defs196969">
							<rect
   id="SVGID_59_"
   x="972.59998"
   y="214"
   width="201.89999"
   height="172.60001" />
						</defs>
						<clipPath
   id="SVGID_60_">
							<use
   xlink:href="#SVGID_59_"
   style="overflow:visible"
   id="use196971" />
						</clipPath>
						<path
   id="path144069_1_"
   class="st29"
   d="m 1118.1,384.8 -1.7,-0.8 v 1.7 z"
   clip-path="url(#SVGID_60_)" />
					</g>
					<g
   id="g196984">
						<defs
   id="defs196978">
							<rect
   id="SVGID_61_"
   x="972.59998"
   y="214"
   width="201.89999"
   height="172.60001" />
						</defs>
						<clipPath
   id="SVGID_62_">
							<use
   xlink:href="#SVGID_61_"
   style="overflow:visible"
   id="use196980" />
						</clipPath>
						<path
   id="path144071_1_"
   class="st30"
   d="m 1118.1,369 -1.7,-0.8 v 1.7 z"
   clip-path="url(#SVGID_62_)" />
					</g>
					<g
   id="g196993">
						<defs
   id="defs196987">
							<rect
   id="SVGID_63_"
   x="972.59998"
   y="214"
   width="201.89999"
   height="172.60001" />
						</defs>
						<clipPath
   id="SVGID_64_">
							<use
   xlink:href="#SVGID_63_"
   style="overflow:visible"
   id="use196989" />
						</clipPath>
						<path
   id="path144073_1_"
   class="st31"
   d="m 1118.1,358.8 -1.7,-0.8 v 1.7 z"
   clip-path="url(#SVGID_64_)" />
					</g>
					<g
   id="g197002">
						<defs
   id="defs196996">
							<rect
   id="SVGID_65_"
   x="972.59998"
   y="214"
   width="201.89999"
   height="172.60001" />
						</defs>
						<clipPath
   id="SVGID_66_">
							<use
   xlink:href="#SVGID_65_"
   style="overflow:visible"
   id="use196998" />
						</clipPath>
						<path
   id="path144075_1_"
   class="st32"
   d="m 1118.1,371.5 -1.7,-0.8 v 1.7 z"
   clip-path="url(#SVGID_66_)" />
					</g>
					<g
   id="g197011">
						<defs
   id="defs197005">
							<rect
   id="SVGID_67_"
   x="972.59998"
   y="214"
   width="201.89999"
   height="172.60001" />
						</defs>
						<clipPath
   id="SVGID_68_">
							<use
   xlink:href="#SVGID_67_"
   style="overflow:visible"
   id="use197007" />
						</clipPath>
						<path
   id="path144077_1_"
   class="st33"
   d="m 1118.1,376.8 -1.7,-0.8 v 1.7 z"
   clip-path="url(#SVGID_68_)" />
					</g>
					<g
   id="g197020">
						<defs
   id="defs197014">
							<rect
   id="SVGID_69_"
   x="972.59998"
   y="214"
   width="201.89999"
   height="172.60001" />
						</defs>
						<clipPath
   id="SVGID_70_">
							<use
   xlink:href="#SVGID_69_"
   style="overflow:visible"
   id="use197016" />
						</clipPath>
						<path
   id="path144079_1_"
   class="st34"
   d="m 1118.1,363.2 -1.7,-0.8 v 1.7 z"
   clip-path="url(#SVGID_70_)" />
					</g>
					<g
   id="g197029">
						<defs
   id="defs197023">
							<rect
   id="SVGID_71_"
   x="972.59998"
   y="214"
   width="201.89999"
   height="172.60001" />
						</defs>
						<clipPath
   id="SVGID_72_">
							<use
   xlink:href="#SVGID_71_"
   style="overflow:visible"
   id="use197025" />
						</clipPath>
						<path
   id="path144081_1_"
   class="st35"
   d="m 1118.1,376.7 -1.7,-0.8 v 1.7 z"
   clip-path="url(#SVGID_72_)" />
					</g>
					<g
   id="g197038">
						<defs
   id="defs197032">
							<rect
   id="SVGID_73_"
   x="972.59998"
   y="214"
   width="201.89999"
   height="172.60001" />
						</defs>
						<clipPath
   id="SVGID_74_">
							<use
   xlink:href="#SVGID_73_"
   style="overflow:visible"
   id="use197034" />
						</clipPath>
						<path
   id="path144083_1_"
   class="st36"
   d="m 1118.1,372.6 -1.7,-0.8 v 1.7 z"
   clip-path="url(#SVGID_74_)" />
					</g>
					<g
   id="g197047">
						<defs
   id="defs197041">
							<rect
   id="SVGID_75_"
   x="972.59998"
   y="214"
   width="201.89999"
   height="172.60001" />
						</defs>
						<clipPath
   id="SVGID_76_">
							<use
   xlink:href="#SVGID_75_"
   style="overflow:visible"
   id="use197043" />
						</clipPath>
						<path
   id="path144085_1_"
   class="st37"
   d="m 1118.1,364.7 -1.7,-0.8 v 1.7 z"
   clip-path="url(#SVGID_76_)" />
					</g>
					<g
   id="g197056">
						<defs
   id="defs197050">
							<rect
   id="SVGID_77_"
   x="972.59998"
   y="214"
   width="201.89999"
   height="172.60001" />
						</defs>
						<clipPath
   id="SVGID_78_">
							<use
   xlink:href="#SVGID_77_"
   style="overflow:visible"
   id="use197052" />
						</clipPath>
						<path
   id="path144087_1_"
   class="st38"
   d="m 1019.2,371.5 1.7,0.8 v -1.7 z"
   clip-path="url(#SVGID_78_)" />
					</g>
					<g
   id="g197065">
						<defs
   id="defs197059">
							<rect
   id="SVGID_79_"
   x="972.59998"
   y="214"
   width="201.89999"
   height="172.60001" />
						</defs>
						<clipPath
   id="SVGID_80_">
							<use
   xlink:href="#SVGID_79_"
   style="overflow:visible"
   id="use197061" />
						</clipPath>
						<path
   id="path144089_1_"
   class="st39"
   d="m 1019.2,371.4 1.7,0.8 v -1.7 z"
   clip-path="url(#SVGID_80_)" />
					</g>
					<g
   id="g197074">
						<defs
   id="defs197068">
							<rect
   id="SVGID_81_"
   x="972.59998"
   y="214"
   width="201.89999"
   height="172.60001" />
						</defs>
						<clipPath
   id="SVGID_82_">
							<use
   xlink:href="#SVGID_81_"
   style="overflow:visible"
   id="use197070" />
						</clipPath>
						<path
   id="path144091_1_"
   class="st40"
   d="m 1023.8,386 1.7,0.8 v -1.7 z"
   clip-path="url(#SVGID_82_)" />
					</g>
					<g
   id="g197083">
						<defs
   id="defs197077">
							<rect
   id="SVGID_83_"
   x="972.59998"
   y="214"
   width="201.89999"
   height="172.60001" />
						</defs>
						<clipPath
   id="SVGID_84_">
							<use
   xlink:href="#SVGID_83_"
   style="overflow:visible"
   id="use197079" />
						</clipPath>
						<path
   id="path144093_1_"
   class="st41"
   d="m 1017.8,365.9 1.7,0.8 V 365 Z"
   clip-path="url(#SVGID_84_)" />
					</g>
					<g
   id="g197092">
						<defs
   id="defs197086">
							<rect
   id="SVGID_85_"
   x="972.59998"
   y="214"
   width="201.89999"
   height="172.60001" />
						</defs>
						<clipPath
   id="SVGID_86_">
							<use
   xlink:href="#SVGID_85_"
   style="overflow:visible"
   id="use197088" />
						</clipPath>
						<path
   id="path144095_1_"
   class="st42"
   d="m 1017.5,364.9 1.7,0.8 V 364 Z"
   clip-path="url(#SVGID_86_)" />
					</g>
					<g
   id="g197101">
						<defs
   id="defs197095">
							<rect
   id="SVGID_87_"
   x="972.59998"
   y="214"
   width="201.89999"
   height="172.60001" />
						</defs>
						<clipPath
   id="SVGID_88_">
							<use
   xlink:href="#SVGID_87_"
   style="overflow:visible"
   id="use197097" />
						</clipPath>
						<path
   id="path144097_1_"
   class="st43"
   d="m 1022.4,382.1 1.7,0.8 v -1.7 z"
   clip-path="url(#SVGID_88_)" />
					</g>
					<g
   id="g197110">
						<defs
   id="defs197104">
							<rect
   id="SVGID_89_"
   x="972.59998"
   y="214"
   width="201.89999"
   height="172.60001" />
						</defs>
						<clipPath
   id="SVGID_90_">
							<use
   xlink:href="#SVGID_89_"
   style="overflow:visible"
   id="use197106" />
						</clipPath>
						<path
   id="path144099_1_"
   class="st44"
   d="m 1019.9,374.1 1.7,0.8 v -1.7 z"
   clip-path="url(#SVGID_90_)" />
					</g>
					<g
   id="g197119">
						<defs
   id="defs197113">
							<rect
   id="SVGID_91_"
   x="972.59998"
   y="214"
   width="201.89999"
   height="172.60001" />
						</defs>
						<clipPath
   id="SVGID_92_">
							<use
   xlink:href="#SVGID_91_"
   style="overflow:visible"
   id="use197115" />
						</clipPath>
						<path
   id="path144101_1_"
   class="st45"
   d="m 1019.5,372.4 1.7,0.8 v -1.7 z"
   clip-path="url(#SVGID_92_)" />
					</g>
					<g
   id="g197128">
						<defs
   id="defs197122">
							<rect
   id="SVGID_93_"
   x="972.59998"
   y="214"
   width="201.89999"
   height="172.60001" />
						</defs>
						<clipPath
   id="SVGID_94_">
							<use
   xlink:href="#SVGID_93_"
   style="overflow:visible"
   id="use197124" />
						</clipPath>
						<path
   id="path144103_1_"
   class="st46"
   d="m 1016.9,362.2 1.7,0.8 v -1.7 z"
   clip-path="url(#SVGID_94_)" />
					</g>
					<g
   id="g197137">
						<defs
   id="defs197131">
							<rect
   id="SVGID_95_"
   x="972.59998"
   y="214"
   width="201.89999"
   height="172.60001" />
						</defs>
						<clipPath
   id="SVGID_96_">
							<use
   xlink:href="#SVGID_95_"
   style="overflow:visible"
   id="use197133" />
						</clipPath>
						<path
   id="path144105_1_"
   class="st47"
   d="m 1020.4,375.6 1.7,0.8 v -1.7 z"
   clip-path="url(#SVGID_96_)" />
					</g>
				</g>
			</g>
			<g
   id="PolyCollection_1_4_"
   transform="translate(7.75e-5)">
				<g
   id="g197148">
					<defs
   id="defs197142">
						<rect
   id="SVGID_97_"
   x="972.59998"
   y="214"
   width="201.89999"
   height="172.60001" />
					</defs>
					<clipPath
   id="SVGID_98_">
						<use
   xlink:href="#SVGID_97_"
   style="overflow:visible"
   id="use197144" />
					</clipPath>
					<path
   id="path143733_1_"
   class="st48"
   d="m 1078.5,214 h -10 v 34.5 0 l -0.1,0.6 -0.1,0.6 -0.1,0.6 -0.1,0.6 -0.1,0.6 -0.1,0.6 -0.1,0.6 -0.1,0.6 -0.1,0.6 -0.1,0.6 -0.1,0.6 -0.1,0.6 -0.1,0.6 -0.1,0.6 -0.1,0.6 -0.1,0.6 -0.1,0.6 -0.1,0.6 -0.1,0.6 -0.1,0.6 -0.1,0.6 -0.1,0.6 -0.1,0.6 -0.1,0.6 -0.1,0.6 -0.1,0.6 -0.1,0.6 -0.1,0.6 -0.1,0.6 -0.1,0.6 -0.1,0.6 -0.1,0.6 -0.1,0.6 -0.1,0.6 -0.1,0.6 -0.1,0.6 -0.1,0.6 -0.1,0.6 -0.2,0.6 -0.2,0.6 -0.2,0.6 -0.2,0.6 -0.2,0.6 -0.2,0.6 -0.2,0.6 -0.2,0.6 -0.2,0.6 -0.2,0.6 -0.2,0.6 -0.2,0.6 -0.2,0.6 -0.2,0.6 -0.2,0.6 -0.2,0.6 -0.2,0.6 -0.2,0.6 -0.2,0.6 -0.2,0.6 -0.2,0.6 -0.2,0.6 -0.2,0.6 -0.2,0.6 -0.2,0.6 -0.2,0.6 -0.2,0.6 -0.2,0.6 -0.2,0.6 -0.2,0.6 -0.2,0.6 -0.3,0.6 -0.3,0.6 -0.3,0.6 -0.3,0.6 -0.3,0.6 -0.3,0.6 -0.3,0.6 -0.3,0.6 -0.3,0.6 -0.3,0.6 -0.3,0.6 -0.3,0.6 -0.3,0.6 -0.3,0.6 -0.3,0.6 -0.3,0.6 -0.3,0.6 -0.3,0.6 -0.3,0.6 -0.3,0.6 -0.3,0.6 -0.4,0.6 -0.4,0.6 -0.4,0.6 -0.4,0.6 -0.4,0.6 -0.4,0.6 -0.4,0.6 -0.4,0.6 -0.4,0.6 h 49.8 v 0 l -0.4,-0.6 -0.4,-0.6 -0.4,-0.6 -0.4,-0.6 -0.4,-0.6 -0.4,-0.6 -0.4,-0.6 -0.4,-0.6 -0.4,-0.6 -0.3,-0.6 -0.3,-0.6 -0.3,-0.6 -0.3,-0.6 -0.3,-0.6 -0.3,-0.6 -0.3,-0.6 -0.3,-0.6 -0.3,-0.6 -0.3,-0.6 -0.3,-0.6 -0.3,-0.6 -0.3,-0.6 -0.3,-0.6 -0.3,-0.6 -0.3,-0.6 -0.3,-0.6 -0.3,-0.6 -0.3,-0.6 -0.3,-0.6 -0.3,-0.6 -0.2,-0.6 -0.2,-0.6 -0.2,-0.6 -0.2,-0.6 -0.2,-0.6 -0.2,-0.6 -0.2,-0.6 -0.2,-0.6 -0.2,-0.6 -0.2,-0.6 -0.2,-0.6 -0.2,-0.6 -0.2,-0.6 -0.2,-0.6 -0.2,-0.6 -0.2,-0.6 -0.2,-0.6 -0.2,-0.6 -0.2,-0.6 -0.2,-0.6 -0.2,-0.6 -0.2,-0.6 -0.2,-0.6 -0.2,-0.6 -0.2,-0.6 -0.2,-0.6 -0.2,-0.6 -0.2,-0.6 -0.2,-0.6 -0.2,-0.6 -0.2,-0.6 -0.1,-0.6 -0.1,-0.6 -0.1,-0.6 -0.1,-0.6 -0.1,-0.6 -0.1,-0.6 -0.1,-0.6 -0.1,-0.6 -0.1,-0.6 -0.1,-0.6 -0.1,-0.6 -0.1,-0.6 -0.1,-0.6 -0.1,-0.6 -0.1,-0.6 -0.1,-0.6 -0.1,-0.6 -0.1,-0.6 -0.1,-0.6 -0.1,-0.6 -0.1,-0.6 -0.1,-0.6 -0.1,-0.6 -0.1,-0.6 -0.1,-0.6 -0.1,-0.6 -0.1,-0.6 -0.1,-0.6 -0.1,-0.6 -0.1,-0.6 -0.1,-0.6 -0.1,-0.6 -0.1,-0.6 -0.1,-0.6 -0.1,-0.6 -0.1,-0.6 -0.1,-0.6 -0.1,-0.6 v 0 z"
   clip-path="url(#SVGID_98_)" />
				</g>
			</g>
			<g
   id="PolyCollection_2_4_">
				<g
   id="g197158">
					<defs
   id="defs197152">
						<rect
   id="SVGID_99_"
   x="972.59998"
   y="214"
   width="201.89999"
   height="172.60001" />
					</defs>
					<clipPath
   id="SVGID_100_">
						<use
   xlink:href="#SVGID_99_"
   style="overflow:visible"
   id="use197154" />
					</clipPath>
					<path
   id="path143739_1_"
   class="st49"
   d="m 1007.8,309.9 h -10 l -0.1,0.8 -0.1,0.8 -0.1,0.8 -0.1,0.8 -0.1,0.8 -0.1,0.8 -0.1,0.8 -0.1,0.8 -0.1,0.8 -0.1,0.8 -0.1,0.8 -0.1,0.8 -0.1,0.8 -0.1,0.8 -0.1,0.8 -0.1,0.8 -0.1,0.8 -0.1,0.8 -0.1,0.8 -0.1,0.8 -0.1,0.8 -0.1,0.8 -0.1,0.8 -0.1,0.8 -0.1,0.8 -0.1,0.8 -0.1,0.8 -0.1,0.8 -0.1,0.8 -0.1,0.8 -0.1,0.8 -0.1,0.8 -0.1,0.8 -0.1,0.8 -0.1,0.8 -0.1,0.8 -0.1,0.8 -0.1,0.8 -0.1,0.8 -0.1,0.8 -0.1,0.8 -0.1,0.8 -0.1,0.8 -0.1,0.8 -0.1,0.8 -0.1,0.8 -0.1,0.8 -0.1,0.8 -0.1,0.8 -0.1,0.8 -0.1,0.8 -0.1,0.8 -0.1,0.8 -0.1,0.8 -0.1,0.8 -0.2,0.8 -0.2,0.8 -0.2,0.8 -0.2,0.8 -0.2,0.8 -0.2,0.8 -0.1,-0.7 -0.2,0.8 -0.2,0.8 -0.2,0.8 -0.2,0.8 -0.2,0.8 -0.2,0.8 -0.2,0.8 -0.2,0.8 -0.2,0.8 -0.2,0.8 -0.2,0.8 -0.2,0.8 -0.2,0.8 -0.2,0.8 -0.2,0.8 -0.2,0.8 -0.2,0.8 -0.2,0.8 -0.2,0.8 -0.2,0.8 -0.2,0.8 -0.2,0.8 -0.2,0.8 -0.2,0.8 -0.2,0.8 -0.2,0.8 -0.2,0.8 -0.2,0.8 -0.2,0.8 -0.3,0.8 -0.3,0.8 -0.3,0.8 -0.3,0.8 -0.3,0.8 -0.3,0.8 -0.3,0.8 -0.3,0.8 h 39.8 v 0 l -0.3,-0.8 -0.3,-0.8 -0.3,-0.8 -0.3,-0.8 -0.3,-0.8 -0.3,-0.8 -0.3,-0.8 -0.3,-0.8 -0.2,-0.8 -0.2,-0.8 -0.2,-0.8 -0.2,-0.8 -0.2,-0.8 -0.2,-0.8 -0.2,-0.8 -0.2,-0.8 -0.2,-0.8 -0.2,-0.8 -0.2,-0.8 -0.2,-0.8 -0.2,-0.8 -0.2,-0.8 -0.2,-0.8 -0.2,-0.8 -0.2,-0.8 -0.2,-0.8 -0.2,-0.8 -0.2,-0.8 -0.2,-0.8 -0.2,-0.8 -0.2,-0.8 -0.2,-0.8 -0.2,-0.8 -0.2,-0.8 -0.2,-0.8 -0.2,-0.8 -0.2,-0.8 -0.2,-0.8 -0.2,-0.8 -0.2,-0.8 -0.2,-0.8 -0.2,-0.8 -0.2,-0.8 -0.2,-0.8 -0.1,-0.8 -0.1,-0.8 -0.1,-0.8 -0.1,-0.8 -0.1,-0.8 -0.1,-0.8 -0.1,-0.8 -0.1,-0.8 -0.1,-0.8 -0.1,-0.8 -0.1,-0.8 -0.1,-0.8 -0.1,-0.8 -0.1,-0.8 -0.1,-0.8 -0.1,-0.8 -0.1,-0.8 -0.1,-0.8 -0.1,-0.8 -0.1,-0.8 -0.1,-0.8 -0.1,-0.8 -0.1,-0.8 -0.1,-0.8 -0.1,-0.8 -0.1,-0.8 -0.1,-0.8 -0.1,-0.8 -0.1,-0.8 -0.1,-0.8 -0.1,-0.8 -0.1,-0.8 -0.1,-0.8 -0.1,-0.8 -0.1,-0.8 -0.1,-0.8 -0.1,-0.8 -0.1,-0.8 -0.1,-0.8 -0.1,-0.8 -0.1,-0.8 -0.1,-0.8 -0.1,-0.8 -0.1,-0.8 -0.1,-0.8 -0.1,-0.8 -0.1,-0.8 -0.1,-0.8 -0.1,-0.8 -0.1,-0.8 -0.1,-0.8 -0.1,-0.8 -0.1,-0.8 -0.1,-0.8 z"
   clip-path="url(#SVGID_100_)" />
				</g>
			</g>
			<g
   id="PolyCollection_3_4_">
				<g
   id="g197168">
					<defs
   id="defs197162">
						<rect
   id="SVGID_101_"
   x="972.59998"
   y="214"
   width="201.89999"
   height="172.60001" />
					</defs>
					<clipPath
   id="SVGID_102_">
						<use
   xlink:href="#SVGID_101_"
   style="overflow:visible"
   id="use197164" />
					</clipPath>
					<path
   id="path143745_1_"
   class="st50"
   d="m 1169.1,309.9 h -49.8 v 76.7 h 49.8 v 0 z"
   clip-path="url(#SVGID_102_)" />
				</g>
			</g>
		</g>
	</g>
</g>
<g
   id="g197178"
   transform="translate(60)">
		<g
   id="g197176">
			<path
   d="m 866.5,306.9 c 29.5,2.4 59.2,-0.2 87.9,-7.5 1.7,-0.4 1.9,-2.7 0.5,-3.7 -7.2,-4.8 -14.5,-9.6 -21.7,-14.3 -0.7,1.2 -1.3,2.3 -2,3.5 10.2,4.5 20.1,9.8 29.5,15.9 0,-1.2 0,-2.3 0,-3.5 -7.6,5.1 -15.2,10.2 -22.8,15.3 -2.1,1.4 -0.1,4.9 2,3.5 7.6,-5.1 15.2,-10.2 22.8,-15.3 1.3,-0.8 1.3,-2.6 0,-3.5 -9.4,-6 -19.3,-11.3 -29.5,-15.9 -2.3,-1 -4.2,2 -2,3.5 7.2,4.8 14.5,9.6 21.7,14.3 0.2,-1.2 0.3,-2.4 0.5,-3.7 -28.4,7.2 -57.7,9.7 -86.9,7.3 -2.5,-0.1 -2.5,3.9 0,4.1 z"
   id="path197174" />
		</g>
	</g><g
   id="g197184"
   transform="rotate(24.79108,1162.2013,533.38165)">
		<g
   id="g197182">
			<path
   d="m 927.1,167.8 c 1.5,-10.4 -9.3,-17.2 -18.5,-12.9 -11,5.2 -12.4,19.4 -8.8,29.7 3.5,10 11.7,18.8 22.2,21.3 5.1,1.2 10.7,1.2 14.9,-2.1 4.6,-3.5 6.6,-9.3 10.9,-13.1 1.9,-1.7 -0.9,-4.5 -2.8,-2.8 -5.6,5 -7.9,14.5 -16.6,14.8 -7.9,0.3 -15.3,-4.5 -20,-10.5 -5,-6.4 -7.7,-15.2 -5.8,-23.3 1.1,-4.8 4.2,-9.2 9,-10.8 5.7,-1.9 12.7,2.1 11.8,8.7 -0.6,2.4 3.3,3.5 3.7,1 z"
   id="path197180" />
		</g>
	</g><g
   id="g197190"
   transform="rotate(24.79108,1162.2013,533.38165)">
		<g
   id="g197188">
			<path
   d="m 926,144.2 c 8,17.4 16.9,34.2 26.7,50.6 1.3,2.2 4.7,0.3 3.5,-2 -5.1,-9.6 -10.1,-22.9 -0.2,-31.3 -0.9,0 -1.9,0 -2.8,0 7.1,5.7 12.5,12.8 16,21.2 1,2.3 4.8,1.3 3.9,-1.1 -3.7,-9.1 -9.4,-16.8 -17,-23 -0.9,-0.7 -1.9,-0.8 -2.8,0 -11.3,9.6 -6.3,25 -0.4,36.1 1.2,-0.7 2.3,-1.3 3.5,-2 -9.9,-16.4 -18.8,-33.2 -26.7,-50.6 -1.3,-2.3 -4.7,-0.2 -3.7,2.1 z"
   id="path197186" />
		</g>
	</g><g
   id="g197196"
   transform="rotate(24.79108,1162.2013,533.38165)">
		<g
   id="g197194">
			<path
   d="m 969,167.2 c 4.1,7.5 10.5,15.4 20,11.6 9.2,-3.7 11.5,-15 8.4,-23.6 -3.6,-9.7 -12,-9.8 -20.3,-5.9 -7,3.3 -13.9,11.8 -7,18.9 1.8,1.9 4.6,-1 2.8,-2.8 -6,-6.2 4.2,-12.2 9.1,-13.8 3.5,-1.2 6.8,-1.5 9.5,1.5 1.9,2.1 2.7,5.1 3,7.9 0.7,6.1 -1.8,13.1 -8.4,14.7 -6.9,1.7 -10.9,-5.2 -13.7,-10.3 -1.2,-2.5 -4.7,-0.5 -3.4,1.8 z"
   id="path197192" />
		</g>
	</g><g
   id="g197202"
   transform="rotate(24.79108,1162.2013,533.38165)">
		<g
   id="g197200">
			<path
   d="m 999.7,153.3 c 0.8,8.1 8.8,13.8 16.8,11.4 8.7,-2.6 12.8,-12 11.1,-20.5 -0.7,-3.7 -2.4,-8.5 -5.6,-10.8 -3.3,-2.4 -8.5,-1.8 -12.1,-0.5 -9,3.3 -13.1,13 -10.4,22 0.7,2.5 4.6,1.4 3.9,-1.1 -1.8,-6 0,-12.7 5.6,-16 2.4,-1.4 6.4,-2.7 9.2,-1.8 3,1 4.6,5 5.3,7.8 1.5,5.7 0.2,12.1 -5,15.6 -5.6,3.7 -14,1.4 -14.7,-6 -0.3,-2.7 -4.3,-2.7 -4.1,-0.1 z"
   id="path197198" />
		</g>
	</g><g
   id="g197208"
   transform="rotate(24.79108,1162.2013,533.38165)">
		<g
   id="g197206">
			<path
   d="m 1040.8,119.1 c -8.8,-2.4 -16.5,7.4 -10.3,14.9 3.1,3.7 7.7,3.6 12.1,3.9 4.6,0.3 9.4,2.9 6.4,8.2 -2.2,3.9 -7.2,5.1 -11.1,6.1 -2.5,0.7 -1.4,4.5 1.1,3.9 7.2,-2 20,-8.5 13.6,-18.1 -2.3,-3.4 -6.2,-3.9 -9.9,-4.1 -3.3,-0.2 -7.5,0.2 -9.5,-3.1 -2.8,-4.7 2,-9.2 6.7,-7.9 2.3,0.8 3.3,-3.1 0.9,-3.8 z"
   id="path197204" />
		</g>
	</g><g
   id="g197214"
   transform="rotate(24.79108,1162.2013,533.38165)">
		<g
   id="g197212">
			<path
   d="m 1056.6,134.5 c 5.3,-3.9 10.2,-8.4 14.4,-13.6 2.6,-3.2 5.7,-7.6 3.5,-11.8 -4.3,-8.1 -15.5,-1.8 -19.2,3.2 -5.8,7.9 -4.8,19.3 3.6,24.9 10,6.7 22.4,-1.7 30.4,-7.9 2,-1.5 0,-5 -2,-3.5 -5.3,4.1 -12.6,9.6 -19.6,9.8 -8.1,0.3 -13.6,-7.8 -11.9,-15.4 0.8,-3.6 3.2,-7.3 6.3,-9.3 2.5,-1.6 9.6,-3.5 8.9,2.5 -0.4,3.2 -4.7,6.9 -6.9,9.2 -2.9,3.1 -6.1,5.8 -9.5,8.3 -2,1.6 -0.1,5.1 2,3.6 z"
   id="path197210" />
		</g>
	</g><g
   id="g197220"
   transform="rotate(24.79108,1146.2013,460.58245)">
		<g
   id="g197218">
			<path
   d="m 907.2,235.6 c 4,12.4 10.8,23.4 19.9,32.7 0.8,-1 1.6,-2.1 2.4,-3.1 -2.6,-1.6 -7.4,-5 -8.1,-8.4 -1,-4.6 8.4,-4.9 11.3,-4.8 3.7,0.1 14.1,1.7 7,7 -3.5,2.6 -7.5,4.4 -11.7,5.6 -2.5,0.7 -1.4,4.6 1.1,3.9 5.8,-1.7 15.6,-5.4 18,-11.6 2.6,-6.8 -8.3,-8.5 -12.7,-8.9 -4.5,-0.4 -16.3,0.3 -17.7,6.1 -1.2,5.6 6.8,12.1 10.8,14.5 2,1.2 4,-1.5 2.4,-3.1 -8.7,-8.8 -15,-19.2 -18.9,-30.9 -0.7,-2.5 -4.6,-1.5 -3.8,1 z"
   id="path197216" />
		</g>
	</g><g
   id="g197226"
   transform="rotate(24.79108,1146.2013,460.58245)">
		<g
   id="g197224">
			<path
   d="m 952.1,250.1 c 5.6,-2.8 17.7,-11.4 13.1,-19 -3.8,-6.4 -15.9,-3.4 -19.4,2 -2,3.1 -1.3,8.3 -0.7,11.7 0.7,4.1 2.7,7.9 6.4,9.9 7.2,3.7 16.2,-4.6 22.2,-8.1 2.2,-1.3 0.2,-4.8 -2,-3.5 -3,1.8 -6.1,3.6 -9.1,5.4 -2.8,1.7 -6.2,4.2 -9.6,2.4 -3.4,-1.8 -4,-6.6 -4.2,-10 -0.1,-2.6 -0.4,-5.1 1.7,-6.7 1.8,-1.4 8.5,-4.3 10.4,-1.9 1.6,2 0.2,5.4 -1.2,7.1 -0.7,0.8 -1.4,1.6 -2.2,2.3 -2.2,2.1 -4.7,3.7 -7.4,5.1 -2.3,1 -0.3,4.5 2,3.3 z"
   id="path197222" />
		</g>
	</g><g
   id="g197232"
   transform="rotate(24.79108,1146.2013,460.58245)">
		<g
   id="g197230">
			<path
   d="m 985.1,219.1 c -3.7,-2 -8.7,-2.4 -11.6,1.2 -2.5,3 -2.3,7.9 1.2,10.1 4.2,2.7 8.4,-0.7 12.7,-0.3 5.3,0.4 4,6.2 0.3,8.3 -1.2,0.7 -8.8,2 -8.9,2.2 0.8,-2.5 -3.1,-3.5 -3.9,-1.1 -1.6,5.1 5.4,5 8.4,4.4 5,-1 10.2,-3.2 11.5,-8.7 1,-4.4 -1.4,-8.4 -5.9,-9.1 -2.4,-0.3 -4.8,0.4 -7.2,0.9 -1.8,0.3 -4.9,1.3 -5.8,-1.3 -1.7,-4.6 5,-4.4 7.2,-3.2 2.2,1.3 4.2,-2.1 2,-3.4 z"
   id="path197228" />
		</g>
	</g><g
   id="g197238"
   transform="rotate(24.79108,1146.2013,460.58245)">
		<g
   id="g197236">
			<path
   d="m 988.5,186.9 c 2.6,7.4 5.2,14.7 7.8,22.1 2,5.6 3.4,12.5 7.3,17.2 6.2,7.7 16.4,-0.6 19,-7.6 0.9,-2.4 -3,-3.5 -3.9,-1.1 -1.5,3.9 -8.9,10.7 -12.5,5.6 -2.4,-3.3 -3.4,-7.7 -4.8,-11.5 -3,-8.6 -6.1,-17.2 -9.1,-25.8 -0.8,-2.4 -4.7,-1.3 -3.8,1.1 z"
   id="path197234" />
		</g>
	</g><g
   id="g197244"
   transform="rotate(24.79108,1146.2013,460.58245)">
		<g
   id="g197242">
			<path
   d="m 988.8,214.7 c 7.7,-4.1 15.4,-8.2 23.2,-12.3 2.3,-1.2 0.3,-4.7 -2,-3.5 -7.7,4.1 -15.4,8.2 -23.2,12.3 -2.3,1.3 -0.3,4.7 2,3.5 z"
   id="path197240" />
		</g>
	</g><g
   id="g197250"
   transform="rotate(24.79108,1146.2013,460.58245)">
		<g
   id="g197248">
			<path
   d="m 1036.5,183.8 c 6.2,8.1 13,15.6 20.5,22.6 1.7,1.6 4.1,-0.4 3.1,-2.4 -2,-4.3 -8.3,-12.4 -4,-16.9 5.2,-5.4 12.2,5.9 14.7,9.6 1.5,2.1 4.6,0.3 3.5,-2 -1.9,-3.6 -3.4,-7.3 -4.6,-11.2 -0.7,-2.2 -1.6,-5.6 -0.4,-7.8 1.2,-2.2 4.7,-1.7 6.6,-1 6.3,2.5 8.8,11 13.7,15.4 1.9,1.7 4.7,-1.1 2.8,-2.8 -6.3,-5.7 -11.2,-20.6 -22.4,-16.5 -11,3.9 -2.6,19.4 0.9,26.1 1.2,-0.7 2.3,-1.3 3.5,-2 -3.7,-5.3 -11.6,-17.8 -19.4,-12.1 -8.5,6.2 -1.3,16.6 1.8,23.4 1,-0.8 2.1,-1.6 3.1,-2.4 -7.2,-6.7 -13.9,-13.9 -19.9,-21.7 -1.6,-2.4 -5,-0.4 -3.5,1.7 z"
   id="path197246" />
		</g>
	</g><g
   id="g197256"
   transform="rotate(24.79108,1146.2013,460.58245)">
		<g
   id="g197254">
			<path
   d="m 1086.5,173.2 c 1.3,4.4 3,9.2 6.9,11.8 3.8,2.5 8.7,2.2 12.8,0.6 8.2,-3.1 13.9,-11.9 10.6,-20.5 -8.2,-21.5 -42.4,2.7 -28,15.2 1.9,1.7 4.8,-1.1 2.8,-2.8 -10,-8.6 18.6,-28.1 21.9,-8.9 1,6 -3.3,11.2 -8.7,13.2 -8.4,3.3 -12.4,-2.6 -14.6,-9.7 -0.6,-2.4 -4.5,-1.3 -3.7,1.1 z"
   id="path197252" />
		</g>
	</g><g
   id="g197262"
   transform="rotate(24.79108,1146.2013,460.58245)">
		<g
   id="g197260">
			<path
   d="m 1133.9,148.3 c -5.4,-3 -14.2,-0.2 -16,5.8 -2,6.9 0.6,18.2 9.4,18.3 8.7,0.1 13.4,-9 12.5,-16.6 -0.7,-5.7 -3.8,-10.9 -6.5,-15.8 -3.3,-5.9 -6.5,-11.8 -9.8,-17.8 -1.1,-1.9 -4.5,-0.6 -3.7,1.5 5.5,14.7 13.2,28.3 23,40.5 1.6,2 4.4,-0.8 2.8,-2.8 -9.4,-11.7 -16.8,-24.7 -22,-38.8 -1.2,0.5 -2.4,1 -3.7,1.5 3.3,5.9 6.5,11.8 9.8,17.8 3.2,5.9 8.3,13.7 5.4,20.6 -1.1,2.7 -3.6,5.1 -6.4,5.6 -4.6,0.9 -6.9,-3.5 -7.3,-7.4 -0.4,-3.3 0,-7.2 3.3,-8.6 1.8,-0.8 5.3,-1.4 7.2,-0.4 2.2,1.3 4.3,-2.2 2,-3.4 z"
   id="path197258" />
		</g>
	</g><g
   id="g197268"
   transform="rotate(24.79108,1146.2013,460.58245)">
		<g
   id="g197266">
			<path
   d="m 1146.9,153.5 c 7.2,-3.3 16.6,-9.5 12.9,-18.9 -3.2,-8 -13.5,-5.8 -16.9,0.7 -3.5,6.7 -2.3,19.9 5.1,23.8 4.3,2.2 9.6,0.1 13.7,-1.4 5.6,-2.1 10.7,-4.9 15.5,-8.4 2.1,-1.5 0.1,-5 -2,-3.5 -4.7,3.5 -9.8,6.3 -15.4,8.3 -3,1.1 -7.4,3 -10.4,1.3 -2.9,-1.7 -3.8,-5.9 -4.1,-8.9 -0.4,-3.5 -0.5,-7.9 2,-10.7 3,-3.2 8.2,-3.3 9,1.8 1,6.7 -6.5,10.1 -11.5,12.4 -2.2,1.1 -0.2,4.6 2.1,3.5 z"
   id="path197264" />
		</g>
	</g><g
   id="g197274"
   transform="rotate(24.79108,1146.2013,460.58245)">
		<g
   id="g197272">
			<path
   d="m 1161.1,99.4 c 5.6,17.1 12.8,33.6 21.6,49.3 1.1,2 4.3,0.6 3.7,-1.5 -0.3,-1 -0.6,-1.9 -0.9,-2.9 -0.8,-2.5 -4.6,-1.4 -3.9,1.1 0.3,1 0.6,1.9 0.9,2.9 1.2,-0.5 2.4,-1 3.7,-1.5 -8.7,-15.4 -15.8,-31.5 -21.2,-48.3 -0.8,-2.6 -4.7,-1.6 -3.9,0.9 z"
   id="path197270" />
		</g>
	</g><g
   id="g197280"
   transform="translate(96)">
		<g
   id="g197278">
			<path
   d="m 994.1,457.5 c -0.6,-10 -1.1,-20.1 -1.7,-30.1 -0.5,-9.8 -1.5,-19.7 1.8,-29.1 -1.3,0 -2.6,0 -3.9,0 2.5,10.1 5.6,20.1 9.4,29.8 0.6,1.5 2.8,2.1 3.7,0.5 5,-9.2 4.9,-20.9 11.5,-29.2 -1.1,-0.5 -2.3,-0.9 -3.4,-1.4 0.7,18.5 2.9,36.9 6.6,55 0.4,1.9 3.5,1.9 3.9,0 0.1,-0.5 0.2,-1.1 0.3,-1.6 0.4,-2.5 -3.4,-3.6 -3.9,-1.1 -0.1,0.5 -0.2,1.1 -0.3,1.6 1.3,0 2.6,0 3.9,0 -3.6,-17.8 -5.8,-35.8 -6.5,-53.9 -0.1,-1.6 -2.3,-2.9 -3.4,-1.4 -7,8.8 -6.9,20.4 -12.1,30 1.2,0.2 2.4,0.3 3.7,0.5 -3.8,-9.7 -6.9,-19.7 -9.4,-29.8 -0.5,-2 -3.2,-1.8 -3.9,0 -3.3,9.1 -2.6,18.7 -2.1,28.2 0.6,10.7 1.2,21.3 1.8,32 0.1,2.6 4.1,2.6 4,0 z"
   id="path197276" />
		</g>
	</g><g
   id="g197286"
   transform="translate(96)">
		<g
   id="g197284">
			<path
   d="m 1024.6,443.1 c -2.1,5.7 2.5,11.8 8.5,12 7.4,0.2 12.8,-6.8 13.5,-13.6 0.6,-6.2 -2.6,-13.4 -9.8,-12.8 -8.3,0.7 -11.1,9.2 -12.5,16.1 -0.5,2.5 3.3,3.6 3.9,1.1 0.8,-3.8 1.5,-8.4 4.6,-11.2 4.4,-4 9.4,-1.4 9.9,4.2 0.4,4.4 -1.8,9.4 -5.9,11.4 -4.3,2.1 -10.3,-0.8 -8.3,-6.1 0.8,-2.5 -3,-3.5 -3.9,-1.1 z"
   id="path197282" />
		</g>
	</g><g
   id="g197292"
   transform="translate(96)">
		<g
   id="g197290">
			<path
   d="m 1066.7,442.5 c 2.4,-7.6 -5.7,-14.8 -12.7,-9.8 -6,4.3 -6.4,17.8 0.5,21.6 9.8,5.4 13.6,-8.6 13.9,-15.3 0.3,-6.6 0.2,-13.2 1,-19.8 0.8,-6.5 1.4,-12.9 0.2,-19.4 -0.4,-2.3 -3.9,-1.7 -3.9,0.5 -0.2,9.3 -0.3,18.5 -0.5,27.8 -0.1,8.2 -0.7,16.5 0.9,24.6 0.5,2.5 4.3,1.5 3.9,-1.1 -1.6,-8.3 -0.9,-17 -0.7,-25.5 0.1,-8.6 0.3,-17.2 0.4,-25.8 -1.3,0.2 -2.6,0.4 -3.9,0.5 2,11.2 -1.1,23.2 -1.3,34.5 0,3 0,6.1 -0.6,9 -0.8,3.8 -5.2,10.6 -9.1,4.5 -1.6,-2.6 -1.2,-6.3 -0.4,-9.1 0.5,-1.7 1.7,-4 3.6,-4.5 4.2,-1.1 5.9,3.2 5,6.2 -1,2.5 2.9,3.6 3.7,1.1 z"
   id="path197288" />
		</g>
	</g><g
   id="g197298"
   transform="translate(96)">
		<g
   id="g197296">
			<path
   d="m 1074.9,445.2 c 5.6,-0.7 17.2,1.6 17.8,-7.2 0.5,-6.7 -9.6,-10.7 -14.6,-7 -5.1,3.8 -4.4,12.6 -1.1,17.2 4.3,5.9 12.8,6.8 18.7,2.9 2.1,-1.4 0.1,-4.9 -2,-3.5 -7.2,4.8 -17.2,-0.9 -15.1,-9.9 0.6,-2.4 2.3,-3.9 4.9,-3.9 2.9,0 6.8,2.8 4.1,5.7 -2.7,3 -9.2,1.2 -12.7,1.6 -2.5,0.4 -2.5,4.4 0,4.1 z"
   id="path197294" />
		</g>
	</g><g
   id="g197304"
   transform="translate(96)">
		<g
   id="g197302">
			<path
   d="m 1100.3,402.1 c -0.6,16.9 0,33.8 1.6,50.6 0.3,2.5 4.3,2.6 4,0 -1.7,-16.8 -2.2,-33.7 -1.6,-50.6 0.1,-2.5 -3.9,-2.5 -4,0 z"
   id="path197300" />
		</g>
	</g><g
   id="g197310"
   transform="translate(96)">
		<g
   id="g197308">
			<path
   d="m 1147,418.6 c 0.6,-2.9 4.9,-5 7.8,-4.4 2.9,0.6 3.9,3.3 2.6,5.8 -1,1.9 -3.4,3.4 -5.2,4.6 -1.5,1 -1.1,3.9 1,3.7 1.4,-0.1 3.4,-0.4 4.8,0.1 2.7,0.9 3.9,5 4.7,7.5 1.2,3.7 2.6,8.4 -0.3,11.4 -2.7,2.8 -7,2.7 -10.8,2.6 -3.2,-0.1 -13.7,-0.3 -9.9,-7 1.3,-2.2 -2.2,-4.3 -3.5,-2 -7.9,14.1 18.4,15.8 26.1,10.8 5.5,-3.6 3.9,-11.5 2.2,-16.8 -2.2,-7.3 -5.4,-11.2 -13.3,-10.5 0.3,1.2 0.7,2.5 1,3.7 5,-3.3 12.4,-11.4 4.9,-16.5 -5.1,-3.5 -14.7,-0.2 -16,6 -0.4,2.5 3.4,3.6 3.9,1 z"
   id="path197306" />
		</g>
	</g>
</svg>
