<?xml version="1.0" encoding="UTF-8" standalone="no"?>
<!-- Generator: Adobe Illustrator 23.0.3, SVG Export Plug-In . SVG Version: 6.00 Build 0)  -->

<svg
   version="1.1"
   x="0px"
   y="0px"
   viewBox="0 0 1400 623.6"
   xml:space="preserve"
   id="svg190324"
   sodipodi:docname="models_3.svg"
   width="1400"
   height="623.59998"
   inkscape:version="1.2.2 (1:1.2.2+202212051552+b0a8486541)"
   xmlns:inkscape="http://www.inkscape.org/namespaces/inkscape"
   xmlns:sodipodi="http://sodipodi.sourceforge.net/DTD/sodipodi-0.dtd"
   xmlns:xlink="http://www.w3.org/1999/xlink"
   xmlns="http://www.w3.org/2000/svg"
   xmlns:svg="http://www.w3.org/2000/svg"><defs
   id="defs190328" /><sodipodi:namedview
   id="namedview190326"
   pagecolor="#ffffff"
   bordercolor="#000000"
   borderopacity="0.25"
   inkscape:showpageshadow="2"
   inkscape:pageopacity="0.0"
   inkscape:pagecheckerboard="0"
   inkscape:deskcolor="#d1d1d1"
   showgrid="false"
   inkscape:zoom="0.37844774"
   inkscape:cx="603.78218"
   inkscape:cy="311.79999"
   inkscape:window-width="1221"
   inkscape:window-height="778"
   inkscape:window-x="59"
   inkscape:window-y="22"
   inkscape:window-maximized="1"
   inkscape:current-layer="svg190324" />
<style
   type="text/css"
   id="style189810">
	
		.st0{clip-path:url(#SVGID_2_);fill:none;stroke:#FF7F0E;stroke-width:0.2;stroke-linecap:square;stroke-linejoin:round;stroke-opacity:0.5;}
	
		.st1{clip-path:url(#SVGID_4_);fill:none;stroke:#FF7F0E;stroke-width:0.2;stroke-linecap:square;stroke-linejoin:round;stroke-opacity:0.5;}
	
		.st2{clip-path:url(#SVGID_6_);fill:none;stroke:#FF7F0E;stroke-width:0.2;stroke-linecap:square;stroke-linejoin:round;stroke-opacity:0.5;}
	
		.st3{clip-path:url(#SVGID_8_);fill:none;stroke:#FF7F0E;stroke-width:0.2;stroke-linecap:square;stroke-linejoin:round;stroke-opacity:0.5;}
	
		.st4{clip-path:url(#SVGID_10_);fill:none;stroke:#FF7F0E;stroke-width:0.2;stroke-linecap:square;stroke-linejoin:round;stroke-opacity:0.5;}
	
		.st5{clip-path:url(#SVGID_12_);fill:none;stroke:#FF7F0E;stroke-width:0.2;stroke-linecap:square;stroke-linejoin:round;stroke-opacity:0.5;}
	
		.st6{clip-path:url(#SVGID_14_);fill:none;stroke:#FF7F0E;stroke-width:0.2;stroke-linecap:square;stroke-linejoin:round;stroke-opacity:0.5;}
	
		.st7{clip-path:url(#SVGID_16_);fill:none;stroke:#FF7F0E;stroke-width:0.2;stroke-linecap:square;stroke-linejoin:round;stroke-opacity:0.5;}
	
		.st8{clip-path:url(#SVGID_18_);fill:none;stroke:#FF7F0E;stroke-width:0.2;stroke-linecap:square;stroke-linejoin:round;stroke-opacity:0.5;}
	
		.st9{clip-path:url(#SVGID_20_);fill:none;stroke:#FF7F0E;stroke-width:0.2;stroke-linecap:square;stroke-linejoin:round;stroke-opacity:0.5;}
	
		.st10{clip-path:url(#SVGID_22_);fill:none;stroke:#2CA02C;stroke-width:0.2;stroke-linecap:square;stroke-linejoin:round;stroke-opacity:0.5;}
	
		.st11{clip-path:url(#SVGID_24_);fill:none;stroke:#2CA02C;stroke-width:0.2;stroke-linecap:square;stroke-linejoin:round;stroke-opacity:0.5;}
	
		.st12{clip-path:url(#SVGID_26_);fill:none;stroke:#2CA02C;stroke-width:0.2;stroke-linecap:square;stroke-linejoin:round;stroke-opacity:0.5;}
	
		.st13{clip-path:url(#SVGID_28_);fill:none;stroke:#2CA02C;stroke-width:0.2;stroke-linecap:square;stroke-linejoin:round;stroke-opacity:0.5;}
	
		.st14{clip-path:url(#SVGID_30_);fill:none;stroke:#2CA02C;stroke-width:0.2;stroke-linecap:square;stroke-linejoin:round;stroke-opacity:0.5;}
	
		.st15{clip-path:url(#SVGID_32_);fill:none;stroke:#2CA02C;stroke-width:0.2;stroke-linecap:square;stroke-linejoin:round;stroke-opacity:0.5;}
	
		.st16{clip-path:url(#SVGID_34_);fill:none;stroke:#2CA02C;stroke-width:0.2;stroke-linecap:square;stroke-linejoin:round;stroke-opacity:0.5;}
	
		.st17{clip-path:url(#SVGID_36_);fill:none;stroke:#2CA02C;stroke-width:0.2;stroke-linecap:square;stroke-linejoin:round;stroke-opacity:0.5;}
	
		.st18{clip-path:url(#SVGID_38_);fill:none;stroke:#2CA02C;stroke-width:0.2;stroke-linecap:square;stroke-linejoin:round;stroke-opacity:0.5;}
	
		.st19{clip-path:url(#SVGID_40_);fill:none;stroke:#2CA02C;stroke-width:0.2;stroke-linecap:square;stroke-linejoin:round;stroke-opacity:0.5;}
	.st20{clip-path:url(#SVGID_42_);fill:none;stroke:#FFFFFF;stroke-width:3;stroke-linecap:round;stroke-linejoin:round;}
	.st21{clip-path:url(#SVGID_44_);fill:none;stroke:#1F77B4;stroke-linecap:round;stroke-linejoin:round;}
	.st22{clip-path:url(#SVGID_46_);fill:#FFFFFF;stroke:#FFFFFF;stroke-width:3;stroke-linecap:round;stroke-linejoin:round;}
	.st23{clip-path:url(#SVGID_48_);fill:#FFFFFF;stroke:#1F77B4;stroke-linecap:round;stroke-linejoin:round;}
	.st24{clip-path:url(#SVGID_50_);fill:none;stroke:#FFFFFF;stroke-width:3;stroke-linecap:round;stroke-linejoin:round;}
	.st25{clip-path:url(#SVGID_52_);fill:none;stroke:#1F77B4;stroke-linecap:round;stroke-linejoin:round;}
	.st26{clip-path:url(#SVGID_54_);fill:#FFFFFF;stroke:#FFFFFF;stroke-width:3;stroke-linecap:round;stroke-linejoin:round;}
	.st27{clip-path:url(#SVGID_56_);fill:#FFFFFF;stroke:#1F77B4;stroke-linecap:round;stroke-linejoin:round;}
	.st28{clip-path:url(#SVGID_58_);fill:#FF7F0E;fill-opacity:0.5;stroke:#FF7F0E;stroke-opacity:0.5;}
	.st29{clip-path:url(#SVGID_60_);fill:#FF7F0E;fill-opacity:0.5;stroke:#FF7F0E;stroke-opacity:0.5;}
	.st30{clip-path:url(#SVGID_62_);fill:#FF7F0E;fill-opacity:0.5;stroke:#FF7F0E;stroke-opacity:0.5;}
	.st31{clip-path:url(#SVGID_64_);fill:#FF7F0E;fill-opacity:0.5;stroke:#FF7F0E;stroke-opacity:0.5;}
	.st32{clip-path:url(#SVGID_66_);fill:#FF7F0E;fill-opacity:0.5;stroke:#FF7F0E;stroke-opacity:0.5;}
	.st33{clip-path:url(#SVGID_68_);fill:#FF7F0E;fill-opacity:0.5;stroke:#FF7F0E;stroke-opacity:0.5;}
	.st34{clip-path:url(#SVGID_70_);fill:#FF7F0E;fill-opacity:0.5;stroke:#FF7F0E;stroke-opacity:0.5;}
	.st35{clip-path:url(#SVGID_72_);fill:#FF7F0E;fill-opacity:0.5;stroke:#FF7F0E;stroke-opacity:0.5;}
	.st36{clip-path:url(#SVGID_74_);fill:#FF7F0E;fill-opacity:0.5;stroke:#FF7F0E;stroke-opacity:0.5;}
	.st37{clip-path:url(#SVGID_76_);fill:#FF7F0E;fill-opacity:0.5;stroke:#FF7F0E;stroke-opacity:0.5;}
	.st38{clip-path:url(#SVGID_78_);fill:#2CA02C;fill-opacity:0.5;stroke:#2CA02C;stroke-opacity:0.5;}
	.st39{clip-path:url(#SVGID_80_);fill:#2CA02C;fill-opacity:0.5;stroke:#2CA02C;stroke-opacity:0.5;}
	.st40{clip-path:url(#SVGID_82_);fill:#2CA02C;fill-opacity:0.5;stroke:#2CA02C;stroke-opacity:0.5;}
	.st41{clip-path:url(#SVGID_84_);fill:#2CA02C;fill-opacity:0.5;stroke:#2CA02C;stroke-opacity:0.5;}
	.st42{clip-path:url(#SVGID_86_);fill:#2CA02C;fill-opacity:0.5;stroke:#2CA02C;stroke-opacity:0.5;}
	.st43{clip-path:url(#SVGID_88_);fill:#2CA02C;fill-opacity:0.5;stroke:#2CA02C;stroke-opacity:0.5;}
	.st44{clip-path:url(#SVGID_90_);fill:#2CA02C;fill-opacity:0.5;stroke:#2CA02C;stroke-opacity:0.5;}
	.st45{clip-path:url(#SVGID_92_);fill:#2CA02C;fill-opacity:0.5;stroke:#2CA02C;stroke-opacity:0.5;}
	.st46{clip-path:url(#SVGID_94_);fill:#2CA02C;fill-opacity:0.5;stroke:#2CA02C;stroke-opacity:0.5;}
	.st47{clip-path:url(#SVGID_96_);fill:#2CA02C;fill-opacity:0.5;stroke:#2CA02C;stroke-opacity:0.5;}
	
		.st48{clip-path:url(#SVGID_98_);fill:#1E73AF;fill-opacity:0.2;stroke:#1E73AF;stroke-width:2;stroke-linejoin:round;stroke-dasharray:8,2;}
	
		.st49{clip-path:url(#SVGID_100_);fill:#FF7D0A;fill-opacity:0.2;stroke:#FF7D0A;stroke-width:2;stroke-linejoin:round;stroke-dasharray:8,2;}
	
		.st50{clip-path:url(#SVGID_102_);fill:#28A028;fill-opacity:0.2;stroke:#28A028;stroke-width:2;stroke-linejoin:round;stroke-dasharray:8,2;}
</style>
<g
   id="Layer_2">
</g>
<g
   id="Layer_3">
</g>
<g
   id="Layer_1">
	<g
   id="Слой_8">
	</g>
	<g
   id="Слой_16">
	</g>
	<g
   id="Time_scale">
	</g>
	<g
   id="Now_line">
	</g>
	<g
   id="Слой_10">
	</g>
	<g
   id="Слой_9">
	</g>
	<g
   id="figure_1_2_">
		<g
   id="axes_1_2_">
			<g
   id="g189827">
				<defs
   id="defs189821">
					<rect
   id="SVGID_1_"
   x="247.3"
   y="321"
   width="141.7"
   height="121.1" />
				</defs>
				<clipPath
   id="SVGID_2_">
					<use
   xlink:href="#SVGID_1_"
   style="overflow:visible"
   id="use189823" />
				</clipPath>
				<path
   id="path143690"
   class="st0"
   d="m 278.3,422.1 h 0.6 0.6 l 0.6,0.1 h 0.6 0.6 0.6 0.6 0.6 0.6 0.6 0.6 l 0.6,0.1 h 0.6 0.6 0.6 0.6 0.6 0.6 0.6 0.6 0.6 0.6 0.6 0.6 0.6 0.6 0.6 0.6 0.6 0.6 0.6 0.6 0.6 0.6 0.6 0.6 0.6 0.6 0.6 0.6 l 0.6,-0.1 h 0.6 l 0.6,-0.1 h 0.6 0.6 0.6 0.6 l 0.6,-0.1 h 0.6 0.6 0.6 0.6 0.6 0.6 0.6 0.6 0.6 0.6 0.6 0.6 0.6 0.6 0.6 0.6 0.6 0.6 0.6 0.6 0.6 0.6 0.6 0.6 0.6 0.6 0.6 0.6 0.6 0.6 0.6 0.6 0.6 0.6 0.6 l 0.6,0.1 h 0.6 0.6 0.6 0.6 0.6 0.6 l 0.6,0.1 h 0.6 0.6 0.6 l 0.6,0.1 h 0.6 0.6 0.6 l 0.6,0.1 h 0.6 0.6 0.6 0.6 0.6 0.6 0.6 0.6 0.6 0.6 0.6 0.6 0.6 0.6 0.6 0.6 0.6 0.6 0.8"
   clip-path="url(#SVGID_2_)" />
			</g>
			<g
   id="g189836">
				<defs
   id="defs189830">
					<rect
   id="SVGID_3_"
   x="247.3"
   y="321"
   width="141.7"
   height="121.1" />
				</defs>
				<clipPath
   id="SVGID_4_">
					<use
   xlink:href="#SVGID_3_"
   style="overflow:visible"
   id="use189832" />
				</clipPath>
				<path
   id="path143692"
   class="st1"
   d="m 283.5,440.9 h 0.6 0.6 l 0.6,0.1 h 0.6 0.6 0.6 0.6 0.6 0.6 0.6 0.6 l 0.6,0.1 h 0.6 0.6 0.6 0.6 0.6 0.6 0.6 0.6 0.6 0.6 0.6 0.6 0.6 0.6 0.6 0.6 0.6 0.6 0.6 0.6 0.6 0.6 0.6 0.6 0.6 0.6 0.6 0.6 l 0.6,-0.1 h 0.6 l 0.6,-0.1 h 0.6 0.6 0.6 0.6 l 0.6,-0.1 h 0.6 0.6 0.6 0.6 0.6 0.6 0.6 0.6 0.6 0.6 0.6 0.6 0.6 0.6 0.6 0.6 0.6 0.6 0.6 0.6 0.6 0.6 0.6 0.6 0.6 0.6 0.6 0.6 0.6 0.6 0.6 0.6 0.6 0.6 0.6 l 0.6,0.1 h 0.6 0.6 0.6 0.6 0.6 0.6 l 0.6,0.1 h 0.6 0.6 0.6 l 0.6,0.1 h 0.6 0.6 0.6 l 0.6,0.1 h 0.6 0.6 0.6 0.6 0.6 0.6 0.6 0.6 0.6 1"
   clip-path="url(#SVGID_4_)" />
			</g>
			<g
   id="g189845">
				<defs
   id="defs189839">
					<rect
   id="SVGID_5_"
   x="247.3"
   y="321"
   width="141.7"
   height="121.1" />
				</defs>
				<clipPath
   id="SVGID_6_">
					<use
   xlink:href="#SVGID_5_"
   style="overflow:visible"
   id="use189841" />
				</clipPath>
				<path
   id="path143694"
   class="st2"
   d="m 280.2,429.8 h 0.6 0.6 l 0.6,0.1 h 0.6 0.6 0.6 0.6 0.6 0.6 0.6 0.6 l 0.6,0.1 h 0.6 0.6 0.6 0.6 0.6 0.6 0.6 0.6 0.6 0.6 0.6 0.6 0.6 0.6 0.6 0.6 0.6 0.6 0.6 0.6 0.6 0.6 0.6 0.6 0.6 0.6 0.6 0.6 l 0.6,-0.1 h 0.6 l 0.6,-0.1 h 0.6 0.6 0.6 0.6 l 0.6,-0.1 h 0.6 0.6 0.6 0.6 0.6 0.6 0.6 0.6 0.6 0.6 0.6 0.6 0.6 0.6 0.6 0.6 0.6 0.6 0.6 0.6 0.6 0.6 0.6 0.6 0.6 0.6 0.6 0.6 0.6 0.6 0.6 0.6 0.6 0.6 0.6 l 0.6,0.1 h 0.6 0.6 0.6 0.6 0.6 0.6 l 0.6,0.1 h 0.6 0.6 0.6 l 0.6,0.1 h 0.6 0.6 0.6 l 0.6,0.1 h 0.6 0.6 0.6 0.6 0.6 0.6 0.6 0.6 0.6 0.6 0.6 0.6 0.6 0.6 0.6 0.8"
   clip-path="url(#SVGID_6_)" />
			</g>
			<g
   id="g189854">
				<defs
   id="defs189848">
					<rect
   id="SVGID_7_"
   x="247.3"
   y="321"
   width="141.7"
   height="121.1" />
				</defs>
				<clipPath
   id="SVGID_8_">
					<use
   xlink:href="#SVGID_7_"
   style="overflow:visible"
   id="use189850" />
				</clipPath>
				<path
   id="path143696"
   class="st3"
   d="m 278.5,422.6 h 0.6 0.6 l 0.6,0.1 h 0.6 0.6 0.6 0.6 0.6 0.6 0.6 0.6 l 0.6,0.1 h 0.6 0.6 0.6 0.6 0.6 0.6 0.6 0.6 0.6 0.6 0.6 0.6 0.6 0.6 0.6 0.6 0.6 0.6 0.6 0.6 0.6 0.6 0.6 0.6 0.6 0.6 0.6 0.6 l 0.6,-0.1 h 0.6 l 0.6,-0.1 h 0.6 0.6 0.6 0.6 l 0.6,-0.1 h 0.6 0.6 0.6 0.6 0.6 0.6 0.6 0.6 0.6 0.6 0.6 0.6 0.6 0.6 0.6 0.6 0.6 0.6 0.6 0.6 0.6 0.6 0.6 0.6 0.6 0.6 0.6 0.6 0.6 0.6 0.6 0.6 0.6 0.6 0.6 l 0.6,0.1 h 0.6 0.6 0.6 0.6 0.6 0.6 l 0.6,0.1 h 0.6 0.6 0.6 l 0.6,0.1 h 0.6 0.6 0.6 l 0.6,0.1 h 0.6 0.6 0.6 0.6 0.6 0.6 0.6 0.6 0.6 0.6 0.6 0.6 0.6 0.6 0.6 0.6 0.6 0.6 0.7"
   clip-path="url(#SVGID_8_)" />
			</g>
			<g
   id="g189863">
				<defs
   id="defs189857">
					<rect
   id="SVGID_9_"
   x="247.3"
   y="321"
   width="141.7"
   height="121.1" />
				</defs>
				<clipPath
   id="SVGID_10_">
					<use
   xlink:href="#SVGID_9_"
   style="overflow:visible"
   id="use189859" />
				</clipPath>
				<path
   id="path143698"
   class="st4"
   d="m 280.6,431.6 h 0.6 0.6 l 0.6,0.1 h 0.6 0.6 0.6 0.6 0.6 0.6 0.6 0.6 l 0.6,0.1 h 0.6 0.6 0.6 0.6 0.6 0.6 0.6 0.6 0.6 0.6 0.6 0.6 0.6 0.6 0.6 0.6 0.6 0.6 0.6 0.6 0.6 0.6 0.6 0.6 0.6 0.6 0.6 0.6 l 0.6,-0.1 h 0.6 l 0.6,-0.1 h 0.6 0.6 0.6 0.6 l 0.6,-0.1 h 0.6 0.6 0.6 0.6 0.6 0.6 0.6 0.6 0.6 0.6 0.6 0.6 0.6 0.6 0.6 0.6 0.6 0.6 0.6 0.6 0.6 0.6 0.6 0.6 0.6 0.6 0.6 0.6 0.6 0.6 0.6 0.6 0.6 0.6 0.6 l 0.6,0.1 h 0.6 0.6 0.6 0.6 0.6 0.6 l 0.6,0.1 h 0.6 0.6 0.6 l 0.6,0.1 h 0.6 0.6 0.6 l 0.6,0.1 h 0.6 0.6 0.6 0.6 0.6 0.6 0.6 0.6 0.6 0.6 0.6 0.6 0.6 0.6 0.9"
   clip-path="url(#SVGID_10_)" />
			</g>
			<g
   id="g189872">
				<defs
   id="defs189866">
					<rect
   id="SVGID_11_"
   x="247.3"
   y="321"
   width="141.7"
   height="121.1" />
				</defs>
				<clipPath
   id="SVGID_12_">
					<use
   xlink:href="#SVGID_11_"
   style="overflow:visible"
   id="use189868" />
				</clipPath>
				<path
   id="path143700"
   class="st5"
   d="m 281.7,435.3 h 0.6 0.6 l 0.6,0.1 h 0.6 0.6 0.6 0.6 0.6 0.6 0.6 0.6 l 0.6,0.1 h 0.6 0.6 0.6 0.6 0.6 0.6 0.6 0.6 0.6 0.6 0.6 0.6 0.6 0.6 0.6 0.6 0.6 0.6 0.6 0.6 0.6 0.6 0.6 0.6 0.6 0.6 0.6 0.6 l 0.6,-0.1 h 0.6 l 0.6,-0.1 h 0.6 0.6 0.6 0.6 l 0.6,-0.1 h 0.6 0.6 0.6 0.6 0.6 0.6 0.6 0.6 0.6 0.6 0.6 0.6 0.6 0.6 0.6 0.6 0.6 0.6 0.6 0.6 0.6 0.6 0.6 0.6 0.6 0.6 0.6 0.6 0.6 0.6 0.6 0.6 0.6 0.6 0.6 l 0.6,0.1 h 0.6 0.6 0.6 0.6 0.6 0.6 l 0.6,0.1 h 0.6 0.6 0.6 l 0.6,0.1 h 0.6 0.6 0.6 l 0.6,0.1 h 0.6 0.6 0.6 0.6 0.6 0.6 0.6 0.6 0.6 0.6 0.6 0.6 1"
   clip-path="url(#SVGID_12_)" />
			</g>
			<g
   id="g189881">
				<defs
   id="defs189875">
					<rect
   id="SVGID_13_"
   x="247.3"
   y="321"
   width="141.7"
   height="121.1" />
				</defs>
				<clipPath
   id="SVGID_14_">
					<use
   xlink:href="#SVGID_13_"
   style="overflow:visible"
   id="use189877" />
				</clipPath>
				<path
   id="path143702"
   class="st6"
   d="m 279.2,425.7 h 0.6 0.6 l 0.6,0.1 h 0.6 0.6 0.6 0.6 0.6 0.6 0.6 0.6 l 0.6,0.1 h 0.6 0.6 0.6 0.6 0.6 0.6 0.6 0.6 0.6 0.6 0.6 0.6 0.6 0.6 0.6 0.6 0.6 0.6 0.6 0.6 0.6 0.6 0.6 0.6 0.6 0.6 0.6 0.6 l 0.6,-0.1 h 0.6 l 0.6,-0.1 h 0.6 0.6 0.6 0.6 l 0.6,-0.1 h 0.6 0.6 0.6 0.6 0.6 0.6 0.6 0.6 0.6 0.6 0.6 0.6 0.6 0.6 0.6 0.6 0.6 0.6 0.6 0.6 0.6 0.6 0.6 0.6 0.6 0.6 0.6 0.6 0.6 0.6 0.6 0.6 0.6 0.6 0.6 l 0.6,0.1 h 0.6 0.6 0.6 0.6 0.6 0.6 l 0.6,0.1 h 0.6 0.6 0.6 l 0.6,0.1 h 0.6 0.6 0.6 l 0.6,0.1 h 0.6 0.6 0.6 0.6 0.6 0.6 0.6 0.6 0.6 0.6 0.6 0.6 0.6 0.6 0.6 0.6 0.6 0.6"
   clip-path="url(#SVGID_14_)" />
			</g>
			<g
   id="g189890">
				<defs
   id="defs189884">
					<rect
   id="SVGID_15_"
   x="247.3"
   y="321"
   width="141.7"
   height="121.1" />
				</defs>
				<clipPath
   id="SVGID_16_">
					<use
   xlink:href="#SVGID_15_"
   style="overflow:visible"
   id="use189886" />
				</clipPath>
				<path
   id="path143704"
   class="st7"
   d="m 281.7,435.2 h 0.6 0.6 l 0.6,0.1 h 0.6 0.6 0.6 0.6 0.6 0.6 0.6 0.6 l 0.6,0.1 h 0.6 0.6 0.6 0.6 0.6 0.6 0.6 0.6 0.6 0.6 0.6 0.6 0.6 0.6 0.6 0.6 0.6 0.6 0.6 0.6 0.6 0.6 0.6 0.6 0.6 0.6 0.6 0.6 l 0.6,-0.1 h 0.6 l 0.6,-0.1 h 0.6 0.6 0.6 0.6 l 0.6,-0.1 h 0.6 0.6 0.6 0.6 0.6 0.6 0.6 0.6 0.6 0.6 0.6 0.6 0.6 0.6 0.6 0.6 0.6 0.6 0.6 0.6 0.6 0.6 0.6 0.6 0.6 0.6 0.6 0.6 0.6 0.6 0.6 0.6 0.6 0.6 0.6 l 0.6,0.1 h 0.6 0.6 0.6 0.6 0.6 0.6 l 0.6,0.1 h 0.6 0.6 0.6 l 0.6,0.1 h 0.6 0.6 0.6 l 0.6,0.1 h 0.6 0.6 0.6 0.6 0.6 0.6 0.6 0.6 0.6 0.6 0.6 0.6 1.1"
   clip-path="url(#SVGID_16_)" />
			</g>
			<g
   id="g189899">
				<defs
   id="defs189893">
					<rect
   id="SVGID_17_"
   x="247.3"
   y="321"
   width="141.7"
   height="121.1" />
				</defs>
				<clipPath
   id="SVGID_18_">
					<use
   xlink:href="#SVGID_17_"
   style="overflow:visible"
   id="use189895" />
				</clipPath>
				<path
   id="path143706"
   class="st8"
   d="m 280.9,432.3 h 0.6 0.6 l 0.6,0.1 h 0.6 0.6 0.6 0.6 0.6 0.6 0.6 0.6 l 0.6,0.1 h 0.6 0.6 0.6 0.6 0.6 0.6 0.6 0.6 0.6 0.6 0.6 0.6 0.6 0.6 0.6 0.6 0.6 0.6 0.6 0.6 0.6 0.6 0.6 0.6 0.6 0.6 0.6 0.6 l 0.6,-0.1 h 0.6 l 0.6,-0.1 h 0.6 0.6 0.6 0.6 l 0.6,-0.1 h 0.6 0.6 0.6 0.6 0.6 0.6 0.6 0.6 0.6 0.6 0.6 0.6 0.6 0.6 0.6 0.6 0.6 0.6 0.6 0.6 0.6 0.6 0.6 0.6 0.6 0.6 0.6 0.6 0.6 0.6 0.6 0.6 0.6 0.6 0.6 l 0.6,0.1 h 0.6 0.6 0.6 0.6 0.6 0.6 l 0.6,0.1 h 0.6 0.6 0.6 l 0.6,0.1 h 0.6 0.6 0.6 l 0.6,0.1 h 0.6 0.6 0.6 0.6 0.6 0.6 0.6 0.6 0.6 0.6 0.6 0.6 0.6 0.6 0.7"
   clip-path="url(#SVGID_18_)" />
			</g>
			<g
   id="g189908">
				<defs
   id="defs189902">
					<rect
   id="SVGID_19_"
   x="247.3"
   y="321"
   width="141.7"
   height="121.1" />
				</defs>
				<clipPath
   id="SVGID_20_">
					<use
   xlink:href="#SVGID_19_"
   style="overflow:visible"
   id="use189904" />
				</clipPath>
				<path
   id="path143708"
   class="st9"
   d="m 279.4,426.7 h 0.6 0.6 l 0.6,0.1 h 0.6 0.6 0.6 0.6 0.6 0.6 0.6 0.6 l 0.6,0.1 h 0.6 0.6 0.6 0.6 0.6 0.6 0.6 0.6 0.6 0.6 0.6 0.6 0.6 0.6 0.6 0.6 0.6 0.6 0.6 0.6 0.6 0.6 0.6 0.6 0.6 0.6 0.6 0.6 l 0.6,-0.1 h 0.6 l 0.6,-0.1 h 0.6 0.6 0.6 0.6 l 0.6,-0.1 h 0.6 0.6 0.6 0.6 0.6 0.6 0.6 0.6 0.6 0.6 0.6 0.6 0.6 0.6 0.6 0.6 0.6 0.6 0.6 0.6 0.6 0.6 0.6 0.6 0.6 0.6 0.6 0.6 0.6 0.6 0.6 0.6 0.6 0.6 0.6 l 0.6,0.1 h 0.6 0.6 0.6 0.6 0.6 0.6 l 0.6,0.1 h 0.6 0.6 0.6 l 0.6,0.1 h 0.6 0.6 0.6 l 0.6,0.1 h 0.6 0.6 0.6 0.6 0.6 0.6 0.6 0.6 0.6 0.6 0.6 0.6 0.6 0.6 0.6 0.6 1"
   clip-path="url(#SVGID_20_)" />
			</g>
			<g
   id="g189917">
				<defs
   id="defs189911">
					<rect
   id="SVGID_21_"
   x="247.3"
   y="321"
   width="141.7"
   height="121.1" />
				</defs>
				<clipPath
   id="SVGID_22_">
					<use
   xlink:href="#SVGID_21_"
   style="overflow:visible"
   id="use189913" />
				</clipPath>
				<path
   id="path143710"
   class="st10"
   d="m 348.9,431.6 h -0.6 -0.6 l -0.6,-0.1 h -0.6 -0.6 -0.6 -0.6 -0.6 -0.6 -0.6 -0.6 l -0.6,-0.1 h -0.6 -0.6 -0.6 -0.6 -0.6 -0.6 -0.6 -0.6 -0.6 -0.6 -0.6 -0.6 -0.6 -0.6 -0.6 -0.6 -0.6 -0.6 -0.6 -0.6 -0.6 -0.6 -0.6 -0.6 -0.6 -0.6 -0.6 -0.6 l -0.6,0.1 h -0.6 l -0.6,0.1 h -0.6 -0.6 -0.6 -0.6 l -0.6,0.1 h -0.6 -0.6 -0.6 -0.6 -0.6 -0.6 -0.6 -0.6 -0.6 -0.6 -0.6 -0.6 -0.6 -0.6 -0.6 -0.6 -0.6 -0.6 -0.6 -0.6 -0.6 -0.6 -0.6 -0.6 -0.6 -0.6 -0.6 -0.6 -0.6 -0.6 -0.6 -0.6 -0.6 -0.6 -0.6 l -0.6,-0.1 h -0.6 -0.6 -0.6 -0.6 -0.6 -0.6 l -0.6,-0.1 h -0.6 -0.6 -0.6 l -0.6,-0.1 h -0.6 -0.6 -0.6 l -0.6,-0.1 h -0.6 -0.6 -0.6 -0.6 -0.6 -0.6 -0.6 -0.6 -0.6 -0.6 -0.6 -0.6 -0.6 -0.6 -0.9"
   clip-path="url(#SVGID_22_)" />
			</g>
			<g
   id="g189926">
				<defs
   id="defs189920">
					<rect
   id="SVGID_23_"
   x="247.3"
   y="321"
   width="141.7"
   height="121.1" />
				</defs>
				<clipPath
   id="SVGID_24_">
					<use
   xlink:href="#SVGID_23_"
   style="overflow:visible"
   id="use189922" />
				</clipPath>
				<path
   id="path143712"
   class="st11"
   d="m 348.9,431.5 h -0.6 -0.6 l -0.6,-0.1 h -0.6 -0.6 -0.6 -0.6 -0.6 -0.6 -0.6 -0.6 l -0.6,-0.1 h -0.6 -0.6 -0.6 -0.6 -0.6 -0.6 -0.6 -0.6 -0.6 -0.6 -0.6 -0.6 -0.6 -0.6 -0.6 -0.6 -0.6 -0.6 -0.6 -0.6 -0.6 -0.6 -0.6 -0.6 -0.6 -0.6 -0.6 -0.6 l -0.6,0.1 h -0.6 l -0.6,0.1 h -0.6 -0.6 -0.6 -0.6 l -0.6,0.1 h -0.6 -0.6 -0.6 -0.6 -0.6 -0.6 -0.6 -0.6 -0.6 -0.6 -0.6 -0.6 -0.6 -0.6 -0.6 -0.6 -0.6 -0.6 -0.6 -0.6 -0.6 -0.6 -0.6 -0.6 -0.6 -0.6 -0.6 -0.6 -0.6 -0.6 -0.6 -0.6 -0.6 -0.6 -0.6 l -0.6,-0.1 h -0.6 -0.6 -0.6 -0.6 -0.6 -0.6 l -0.6,-0.1 h -0.6 -0.6 -0.6 l -0.6,-0.1 h -0.6 -0.6 -0.6 l -0.6,-0.1 h -0.6 -0.6 -0.6 -0.6 -0.6 -0.6 -0.6 -0.6 -0.6 -0.6 -0.6 -0.6 -0.6 -0.6 -0.9"
   clip-path="url(#SVGID_24_)" />
			</g>
			<g
   id="g189935">
				<defs
   id="defs189929">
					<rect
   id="SVGID_25_"
   x="247.3"
   y="321"
   width="141.7"
   height="121.1" />
				</defs>
				<clipPath
   id="SVGID_26_">
					<use
   xlink:href="#SVGID_25_"
   style="overflow:visible"
   id="use189931" />
				</clipPath>
				<path
   id="path143714"
   class="st12"
   d="m 348.9,441.8 h -0.6 -0.6 l -0.6,-0.1 h -0.6 -0.6 -0.6 -0.6 -0.6 -0.6 -0.6 -0.6 l -0.6,-0.1 h -0.6 -0.6 -0.6 -0.6 -0.6 -0.6 -0.6 -0.6 -0.6 -0.6 -0.6 -0.6 -0.6 -0.6 -0.6 -0.6 -0.6 -0.6 -0.6 -0.6 -0.6 -0.6 -0.6 -0.6 -0.6 -0.6 -0.6 -0.6 l -0.6,0.1 h -0.6 l -0.6,0.1 h -0.6 -0.6 -0.6 -0.6 l -0.6,0.1 h -0.6 -0.6 -0.6 -0.6 -0.6 -0.6 -0.6 -0.6 -0.6 -0.6 -0.6 -0.6 -0.6 -0.6 -0.6 -0.6 -0.6 -0.6 -0.6 -0.6 -0.6 -0.6 -0.6 -0.6 -0.6 -0.6 -0.6 -0.6 -0.6 -0.6 -0.6 -0.6 -0.6 -0.6 -0.6 l -0.6,-0.1 h -0.6 -0.6 -0.6 -0.6 -0.6 -0.6 l -0.6,-0.1 h -0.6 -0.6 -0.6 l -0.6,-0.1 h -0.6 -0.6 -0.6 l -0.6,-0.1 h -0.6 -0.6 -0.6 -0.6 -0.6 -0.6 -0.6 -0.6 -0.6 -0.7"
   clip-path="url(#SVGID_26_)" />
			</g>
			<g
   id="g189944">
				<defs
   id="defs189938">
					<rect
   id="SVGID_27_"
   x="247.3"
   y="321"
   width="141.7"
   height="121.1" />
				</defs>
				<clipPath
   id="SVGID_28_">
					<use
   xlink:href="#SVGID_27_"
   style="overflow:visible"
   id="use189940" />
				</clipPath>
				<path
   id="path143716"
   class="st13"
   d="m 348.9,427.6 h -0.6 -0.6 l -0.6,-0.1 h -0.6 -0.6 -0.6 -0.6 -0.6 -0.6 -0.6 -0.6 l -0.6,-0.1 h -0.6 -0.6 -0.6 -0.6 -0.6 -0.6 -0.6 -0.6 -0.6 -0.6 -0.6 -0.6 -0.6 -0.6 -0.6 -0.6 -0.6 -0.6 -0.6 -0.6 -0.6 -0.6 -0.6 -0.6 -0.6 -0.6 -0.6 -0.6 l -0.6,0.1 h -0.6 l -0.6,0.1 h -0.6 -0.6 -0.6 -0.6 l -0.6,0.1 h -0.6 -0.6 -0.6 -0.6 -0.6 -0.6 -0.6 -0.6 -0.6 -0.6 -0.6 -0.6 -0.6 -0.6 -0.6 -0.6 -0.6 -0.6 -0.6 -0.6 -0.6 -0.6 -0.6 -0.6 -0.6 -0.6 -0.6 -0.6 -0.6 -0.6 -0.6 -0.6 -0.6 -0.6 -0.6 l -0.6,-0.1 h -0.6 -0.6 -0.6 -0.6 -0.6 -0.6 l -0.6,-0.1 h -0.6 -0.6 -0.6 l -0.6,-0.1 h -0.6 -0.6 -0.6 l -0.6,-0.1 h -0.6 -0.6 -0.6 -0.6 -0.6 -0.6 -0.6 -0.6 -0.6 -0.6 -0.6 -0.6 -0.6 -0.6 -0.6 -0.6 -0.7"
   clip-path="url(#SVGID_28_)" />
			</g>
			<g
   id="g189953">
				<defs
   id="defs189947">
					<rect
   id="SVGID_29_"
   x="247.3"
   y="321"
   width="141.7"
   height="121.1" />
				</defs>
				<clipPath
   id="SVGID_30_">
					<use
   xlink:href="#SVGID_29_"
   style="overflow:visible"
   id="use189949" />
				</clipPath>
				<path
   id="path143718"
   class="st14"
   d="m 348.9,426.9 h -0.6 -0.6 l -0.6,-0.1 h -0.6 -0.6 -0.6 -0.6 -0.6 -0.6 -0.6 -0.6 l -0.6,-0.1 h -0.6 -0.6 -0.6 -0.6 -0.6 -0.6 -0.6 -0.6 -0.6 -0.6 -0.6 -0.6 -0.6 -0.6 -0.6 -0.6 -0.6 -0.6 -0.6 -0.6 -0.6 -0.6 -0.6 -0.6 -0.6 -0.6 -0.6 -0.6 l -0.6,0.1 h -0.6 l -0.6,0.1 h -0.6 -0.6 -0.6 -0.6 l -0.6,0.1 h -0.6 -0.6 -0.6 -0.6 -0.6 -0.6 -0.6 -0.6 -0.6 -0.6 -0.6 -0.6 -0.6 -0.6 -0.6 -0.6 -0.6 -0.6 -0.6 -0.6 -0.6 -0.6 -0.6 -0.6 -0.6 -0.6 -0.6 -0.6 -0.6 -0.6 -0.6 -0.6 -0.6 -0.6 -0.6 l -0.6,-0.1 h -0.6 -0.6 -0.6 -0.6 -0.6 -0.6 l -0.6,-0.1 h -0.6 -0.6 -0.6 l -0.6,-0.1 h -0.6 -0.6 -0.6 l -0.6,-0.1 h -0.6 -0.6 -0.6 -0.6 -0.6 -0.6 -0.6 -0.6 -0.6 -0.6 -0.6 -0.6 -0.6 -0.6 -0.6 -0.6 -0.9"
   clip-path="url(#SVGID_30_)" />
			</g>
			<g
   id="g189962">
				<defs
   id="defs189956">
					<rect
   id="SVGID_31_"
   x="247.3"
   y="321"
   width="141.7"
   height="121.1" />
				</defs>
				<clipPath
   id="SVGID_32_">
					<use
   xlink:href="#SVGID_31_"
   style="overflow:visible"
   id="use189958" />
				</clipPath>
				<path
   id="path143720"
   class="st15"
   d="m 348.9,439 h -0.6 -0.6 l -0.6,-0.1 h -0.6 -0.6 -0.6 -0.6 -0.6 -0.6 -0.6 -0.6 l -0.6,-0.1 h -0.6 -0.6 -0.6 -0.6 -0.6 -0.6 -0.6 -0.6 -0.6 -0.6 -0.6 -0.6 -0.6 -0.6 -0.6 -0.6 -0.6 -0.6 -0.6 -0.6 -0.6 -0.6 -0.6 -0.6 -0.6 -0.6 -0.6 -0.6 l -0.6,0.1 h -0.6 l -0.6,0.1 h -0.6 -0.6 -0.6 -0.6 l -0.6,0.1 h -0.6 -0.6 -0.6 -0.6 -0.6 -0.6 -0.6 -0.6 -0.6 -0.6 -0.6 -0.6 -0.6 -0.6 -0.6 -0.6 -0.6 -0.6 -0.6 -0.6 -0.6 -0.6 -0.6 -0.6 -0.6 -0.6 -0.6 -0.6 -0.6 -0.6 -0.6 -0.6 -0.6 -0.6 -0.6 l -0.6,-0.1 h -0.6 -0.6 -0.6 -0.6 -0.6 -0.6 l -0.6,-0.1 h -0.6 -0.6 -0.6 l -0.6,-0.1 h -0.6 -0.6 -0.6 l -0.6,-0.1 h -0.6 -0.6 -0.6 -0.6 -0.6 -0.6 -0.6 -0.6 -0.6 -0.6 -1"
   clip-path="url(#SVGID_32_)" />
			</g>
			<g
   id="g189971">
				<defs
   id="defs189965">
					<rect
   id="SVGID_33_"
   x="247.3"
   y="321"
   width="141.7"
   height="121.1" />
				</defs>
				<clipPath
   id="SVGID_34_">
					<use
   xlink:href="#SVGID_33_"
   style="overflow:visible"
   id="use189967" />
				</clipPath>
				<path
   id="path143722"
   class="st16"
   d="m 348.9,433.4 h -0.6 -0.6 l -0.6,-0.1 h -0.6 -0.6 -0.6 -0.6 -0.6 -0.6 -0.6 -0.6 l -0.6,-0.1 h -0.6 -0.6 -0.6 -0.6 -0.6 -0.6 -0.6 -0.6 -0.6 -0.6 -0.6 -0.6 -0.6 -0.6 -0.6 -0.6 -0.6 -0.6 -0.6 -0.6 -0.6 -0.6 -0.6 -0.6 -0.6 -0.6 -0.6 -0.6 l -0.6,0.1 h -0.6 l -0.6,0.1 h -0.6 -0.6 -0.6 -0.6 l -0.6,0.1 h -0.6 -0.6 -0.6 -0.6 -0.6 -0.6 -0.6 -0.6 -0.6 -0.6 -0.6 -0.6 -0.6 -0.6 -0.6 -0.6 -0.6 -0.6 -0.6 -0.6 -0.6 -0.6 -0.6 -0.6 -0.6 -0.6 -0.6 -0.6 -0.6 -0.6 -0.6 -0.6 -0.6 -0.6 -0.6 l -0.6,-0.1 h -0.6 -0.6 -0.6 -0.6 -0.6 -0.6 l -0.6,-0.1 h -0.6 -0.6 -0.6 l -0.6,-0.1 h -0.6 -0.6 -0.6 l -0.6,-0.1 h -0.6 -0.6 -0.6 -0.6 -0.6 -0.6 -0.6 -0.6 -0.6 -0.6 -0.6 -0.6 -0.6 -1"
   clip-path="url(#SVGID_34_)" />
			</g>
			<g
   id="g189980">
				<defs
   id="defs189974">
					<rect
   id="SVGID_35_"
   x="247.3"
   y="321"
   width="141.7"
   height="121.1" />
				</defs>
				<clipPath
   id="SVGID_36_">
					<use
   xlink:href="#SVGID_35_"
   style="overflow:visible"
   id="use189976" />
				</clipPath>
				<path
   id="path143724"
   class="st17"
   d="m 348.9,432.2 h -0.6 -0.6 l -0.6,-0.1 h -0.6 -0.6 -0.6 -0.6 -0.6 -0.6 -0.6 -0.6 l -0.6,-0.1 h -0.6 -0.6 -0.6 -0.6 -0.6 -0.6 -0.6 -0.6 -0.6 -0.6 -0.6 -0.6 -0.6 -0.6 -0.6 -0.6 -0.6 -0.6 -0.6 -0.6 -0.6 -0.6 -0.6 -0.6 -0.6 -0.6 -0.6 -0.6 l -0.6,0.1 h -0.6 l -0.6,0.1 h -0.6 -0.6 -0.6 -0.6 l -0.6,0.1 h -0.6 -0.6 -0.6 -0.6 -0.6 -0.6 -0.6 -0.6 -0.6 -0.6 -0.6 -0.6 -0.6 -0.6 -0.6 -0.6 -0.6 -0.6 -0.6 -0.6 -0.6 -0.6 -0.6 -0.6 -0.6 -0.6 -0.6 -0.6 -0.6 -0.6 -0.6 -0.6 -0.6 -0.6 -0.6 l -0.6,-0.1 h -0.6 -0.6 -0.6 -0.6 -0.6 -0.6 l -0.6,-0.1 h -0.6 -0.6 -0.6 l -0.6,-0.1 h -0.6 -0.6 -0.6 l -0.6,-0.1 h -0.6 -0.6 -0.6 -0.6 -0.6 -0.6 -0.6 -0.6 -0.6 -0.6 -0.6 -0.6 -0.6 -0.6 -0.7"
   clip-path="url(#SVGID_36_)" />
			</g>
			<g
   id="g189989">
				<defs
   id="defs189983">
					<rect
   id="SVGID_37_"
   x="247.3"
   y="321"
   width="141.7"
   height="121.1" />
				</defs>
				<clipPath
   id="SVGID_38_">
					<use
   xlink:href="#SVGID_37_"
   style="overflow:visible"
   id="use189985" />
				</clipPath>
				<path
   id="path143726"
   class="st18"
   d="m 348.9,425 h -0.6 -0.6 l -0.6,-0.1 h -0.6 -0.6 -0.6 -0.6 -0.6 -0.6 -0.6 -0.6 l -0.6,-0.1 h -0.6 -0.6 -0.6 -0.6 -0.6 -0.6 -0.6 -0.6 -0.6 -0.6 -0.6 -0.6 -0.6 -0.6 -0.6 -0.6 -0.6 -0.6 -0.6 -0.6 -0.6 -0.6 -0.6 -0.6 -0.6 -0.6 -0.6 -0.6 l -0.6,0.1 h -0.6 l -0.6,0.1 h -0.6 -0.6 -0.6 -0.6 l -0.6,0.1 h -0.6 -0.6 -0.6 -0.6 -0.6 -0.6 -0.6 -0.6 -0.6 -0.6 -0.6 -0.6 -0.6 -0.6 -0.6 -0.6 -0.6 -0.6 -0.6 -0.6 -0.6 -0.6 -0.6 -0.6 -0.6 -0.6 -0.6 -0.6 -0.6 -0.6 -0.6 -0.6 -0.6 -0.6 -0.6 l -0.6,-0.1 h -0.6 -0.6 -0.6 -0.6 -0.6 -0.6 l -0.6,-0.1 h -0.6 -0.6 -0.6 l -0.6,-0.1 h -0.6 -0.6 -0.6 l -0.6,-0.1 h -0.6 -0.6 -0.6 -0.6 -0.6 -0.6 -0.6 -0.6 -0.6 -0.6 -0.6 -0.6 -0.6 -0.6 -0.6 -0.6 -0.6 -0.8"
   clip-path="url(#SVGID_38_)" />
			</g>
			<g
   id="g189998">
				<defs
   id="defs189992">
					<rect
   id="SVGID_39_"
   x="247.3"
   y="321"
   width="141.7"
   height="121.1" />
				</defs>
				<clipPath
   id="SVGID_40_">
					<use
   xlink:href="#SVGID_39_"
   style="overflow:visible"
   id="use189994" />
				</clipPath>
				<path
   id="path143728"
   class="st19"
   d="m 348.9,434.4 h -0.6 -0.6 l -0.6,-0.1 h -0.6 -0.6 -0.6 -0.6 -0.6 -0.6 -0.6 -0.6 l -0.6,-0.1 h -0.6 -0.6 -0.6 -0.6 -0.6 -0.6 -0.6 -0.6 -0.6 -0.6 -0.6 -0.6 -0.6 -0.6 -0.6 -0.6 -0.6 -0.6 -0.6 -0.6 -0.6 -0.6 -0.6 -0.6 -0.6 -0.6 -0.6 -0.6 l -0.6,0.1 h -0.6 l -0.6,0.1 h -0.6 -0.6 -0.6 -0.6 l -0.6,0.1 h -0.6 -0.6 -0.6 -0.6 -0.6 -0.6 -0.6 -0.6 -0.6 -0.6 -0.6 -0.6 -0.6 -0.6 -0.6 -0.6 -0.6 -0.6 -0.6 -0.6 -0.6 -0.6 -0.6 -0.6 -0.6 -0.6 -0.6 -0.6 -0.6 -0.6 -0.6 -0.6 -0.6 -0.6 -0.6 l -0.6,-0.1 h -0.6 -0.6 -0.6 -0.6 -0.6 -0.6 l -0.6,-0.1 h -0.6 -0.6 -0.6 l -0.6,-0.1 h -0.6 -0.6 -0.6 l -0.6,-0.1 h -0.6 -0.6 -0.6 -0.6 -0.6 -0.6 -0.6 -0.6 -0.6 -0.6 -0.6 -0.6 -0.6 -0.7"
   clip-path="url(#SVGID_40_)" />
			</g>
			<g
   id="patch_6_2_">
				<g
   id="g190007">
					<defs
   id="defs190001">
						<rect
   id="SVGID_41_"
   x="247.3"
   y="321"
   width="141.7"
   height="121.1" />
					</defs>
					<clipPath
   id="SVGID_42_">
						<use
   xlink:href="#SVGID_41_"
   style="overflow:visible"
   id="use190003" />
					</clipPath>
					<path
   id="path144051"
   class="st20"
   d="m 299.5,388.3 h -0.6 -0.6 l -0.6,-0.1 h -0.6 -0.6 -0.6 -0.6 -0.6 -0.6 -0.6 -0.6 l -0.6,-0.1 h -0.6 -0.6 -0.6 -0.6 -0.6 -0.6 -0.6 -0.6 -0.6 -0.6 -0.6 -0.6 -0.6 -0.6 -0.6 -0.6 -0.6 -0.6 -0.6 -0.6 -0.6 -0.6 -0.6 -0.6 -0.6 -0.6 -0.6 -0.6 l -0.6,0.1 h -1.2"
   clip-path="url(#SVGID_42_)" />
				</g>
				<g
   id="g190016">
					<defs
   id="defs190010">
						<rect
   id="SVGID_43_"
   x="247.3"
   y="321"
   width="141.7"
   height="121.1" />
					</defs>
					<clipPath
   id="SVGID_44_">
						<use
   xlink:href="#SVGID_43_"
   style="overflow:visible"
   id="use190012" />
					</clipPath>
					<path
   id="path144053"
   class="st21"
   d="m 299.5,388.3 h -0.6 -0.6 l -0.6,-0.1 h -0.6 -0.6 -0.6 -0.6 -0.6 -0.6 -0.6 -0.6 l -0.6,-0.1 h -0.6 -0.6 -0.6 -0.6 -0.6 -0.6 -0.6 -0.6 -0.6 -0.6 -0.6 -0.6 -0.6 -0.6 -0.6 -0.6 -0.6 -0.6 -0.6 -0.6 -0.6 -0.6 -0.6 -0.6 -0.6 -0.6 -0.6 -0.6 l -0.6,0.1 h -1.2"
   clip-path="url(#SVGID_44_)" />
				</g>
				<g
   id="g190025">
					<defs
   id="defs190019">
						<rect
   id="SVGID_45_"
   x="247.3"
   y="321"
   width="141.7"
   height="121.1" />
					</defs>
					<clipPath
   id="SVGID_46_">
						<use
   xlink:href="#SVGID_45_"
   style="overflow:visible"
   id="use190021" />
					</clipPath>
					<path
   id="path144055"
   class="st22"
   d="m 276.3,389.5 -0.5,-0.3 -0.5,-0.3 -0.5,-0.3 -0.8,-0.4 h 0.6 l 0.5,-0.2 0.5,-0.2 0.8,-0.4 -0.4,0.4 v 0.6 1.2 h 0.3 z"
   clip-path="url(#SVGID_46_)" />
				</g>
				<g
   id="g190034">
					<defs
   id="defs190028">
						<rect
   id="SVGID_47_"
   x="247.3"
   y="321"
   width="141.7"
   height="121.1" />
					</defs>
					<clipPath
   id="SVGID_48_">
						<use
   xlink:href="#SVGID_47_"
   style="overflow:visible"
   id="use190030" />
					</clipPath>
					<path
   id="path144057"
   class="st23"
   d="m 276.3,389.5 -0.5,-0.3 -0.5,-0.3 -0.5,-0.3 -0.8,-0.4 h 0.6 l 0.5,-0.2 0.5,-0.2 0.8,-0.4 -0.4,0.4 v 0.6 1.2 h 0.3 z"
   clip-path="url(#SVGID_48_)" />
				</g>
				<g
   id="patch_7_1_">
					<g
   id="g190043">
						<defs
   id="defs190037">
							<rect
   id="SVGID_49_"
   x="247.3"
   y="321"
   width="141.7"
   height="121.1" />
						</defs>
						<clipPath
   id="SVGID_50_">
							<use
   xlink:href="#SVGID_49_"
   style="overflow:visible"
   id="use190039" />
						</clipPath>
						<path
   id="path144059"
   class="st24"
   d="m 336.8,388.3 h 0.6 0.6 l 0.6,0.1 h 0.6 0.6 0.6 0.6 0.6 0.6 0.6 0.6 l 0.6,0.1 h 0.6 0.6 0.6 0.6 0.6 0.6 0.9"
   clip-path="url(#SVGID_50_)" />
					</g>
					<g
   id="g190052">
						<defs
   id="defs190046">
							<rect
   id="SVGID_51_"
   x="247.3"
   y="321"
   width="141.7"
   height="121.1" />
						</defs>
						<clipPath
   id="SVGID_52_">
							<use
   xlink:href="#SVGID_51_"
   style="overflow:visible"
   id="use190048" />
						</clipPath>
						<path
   id="path144061"
   class="st25"
   d="m 336.8,388.3 h 0.6 0.6 l 0.6,0.1 h 0.6 0.6 0.6 0.6 0.6 0.6 0.6 0.6 l 0.6,0.1 h 0.6 0.6 0.6 0.6 0.6 0.6 0.9"
   clip-path="url(#SVGID_52_)" />
					</g>
					<g
   id="g190061">
						<defs
   id="defs190055">
							<rect
   id="SVGID_53_"
   x="247.3"
   y="321"
   width="141.7"
   height="121.1" />
						</defs>
						<clipPath
   id="SVGID_54_">
							<use
   xlink:href="#SVGID_53_"
   style="overflow:visible"
   id="use190057" />
						</clipPath>
						<path
   id="path144063"
   class="st26"
   d="m 346,387.1 0.5,0.3 0.5,0.3 0.5,0.3 0.8,0.4 h -0.6 l -0.5,0.2 -0.5,0.2 -0.8,0.4 0.4,-0.4 V 388.2 387 H 346 Z"
   clip-path="url(#SVGID_54_)" />
					</g>
					<g
   id="g190070">
						<defs
   id="defs190064">
							<rect
   id="SVGID_55_"
   x="247.3"
   y="321"
   width="141.7"
   height="121.1" />
						</defs>
						<clipPath
   id="SVGID_56_">
							<use
   xlink:href="#SVGID_55_"
   style="overflow:visible"
   id="use190066" />
						</clipPath>
						<path
   id="path144065"
   class="st27"
   d="m 346,387.1 0.5,0.3 0.5,0.3 0.5,0.3 0.8,0.4 h -0.6 l -0.5,0.2 -0.5,0.2 -0.8,0.4 0.4,-0.4 V 388.2 387 H 346 Z"
   clip-path="url(#SVGID_56_)" />
					</g>
					<g
   id="g190079">
						<defs
   id="defs190073">
							<rect
   id="SVGID_57_"
   x="247.3"
   y="321"
   width="141.7"
   height="121.1" />
						</defs>
						<clipPath
   id="SVGID_58_">
							<use
   xlink:href="#SVGID_57_"
   style="overflow:visible"
   id="use190075" />
						</clipPath>
						<path
   id="path144067"
   class="st28"
   d="m 349.4,422.1 -1.2,-0.6 v 1.2 z"
   clip-path="url(#SVGID_58_)" />
					</g>
					<g
   id="g190088">
						<defs
   id="defs190082">
							<rect
   id="SVGID_59_"
   x="247.3"
   y="321"
   width="141.7"
   height="121.1" />
						</defs>
						<clipPath
   id="SVGID_60_">
							<use
   xlink:href="#SVGID_59_"
   style="overflow:visible"
   id="use190084" />
						</clipPath>
						<path
   id="path144069"
   class="st29"
   d="m 349.4,440.9 -1.2,-0.6 v 1.2 z"
   clip-path="url(#SVGID_60_)" />
					</g>
					<g
   id="g190097">
						<defs
   id="defs190091">
							<rect
   id="SVGID_61_"
   x="247.3"
   y="321"
   width="141.7"
   height="121.1" />
						</defs>
						<clipPath
   id="SVGID_62_">
							<use
   xlink:href="#SVGID_61_"
   style="overflow:visible"
   id="use190093" />
						</clipPath>
						<path
   id="path144071"
   class="st30"
   d="m 349.4,429.8 -1.2,-0.6 v 1.2 z"
   clip-path="url(#SVGID_62_)" />
					</g>
					<g
   id="g190106">
						<defs
   id="defs190100">
							<rect
   id="SVGID_63_"
   x="247.3"
   y="321"
   width="141.7"
   height="121.1" />
						</defs>
						<clipPath
   id="SVGID_64_">
							<use
   xlink:href="#SVGID_63_"
   style="overflow:visible"
   id="use190102" />
						</clipPath>
						<path
   id="path144073"
   class="st31"
   d="m 349.4,422.6 -1.2,-0.6 v 1.2 z"
   clip-path="url(#SVGID_64_)" />
					</g>
					<g
   id="g190115">
						<defs
   id="defs190109">
							<rect
   id="SVGID_65_"
   x="247.3"
   y="321"
   width="141.7"
   height="121.1" />
						</defs>
						<clipPath
   id="SVGID_66_">
							<use
   xlink:href="#SVGID_65_"
   style="overflow:visible"
   id="use190111" />
						</clipPath>
						<path
   id="path144075"
   class="st32"
   d="m 349.4,431.6 -1.2,-0.6 v 1.2 z"
   clip-path="url(#SVGID_66_)" />
					</g>
					<g
   id="g190124">
						<defs
   id="defs190118">
							<rect
   id="SVGID_67_"
   x="247.3"
   y="321"
   width="141.7"
   height="121.1" />
						</defs>
						<clipPath
   id="SVGID_68_">
							<use
   xlink:href="#SVGID_67_"
   style="overflow:visible"
   id="use190120" />
						</clipPath>
						<path
   id="path144077"
   class="st33"
   d="m 349.4,435.3 -1.2,-0.6 v 1.2 z"
   clip-path="url(#SVGID_68_)" />
					</g>
					<g
   id="g190133">
						<defs
   id="defs190127">
							<rect
   id="SVGID_69_"
   x="247.3"
   y="321"
   width="141.7"
   height="121.1" />
						</defs>
						<clipPath
   id="SVGID_70_">
							<use
   xlink:href="#SVGID_69_"
   style="overflow:visible"
   id="use190129" />
						</clipPath>
						<path
   id="path144079"
   class="st34"
   d="m 349.4,425.7 -1.2,-0.6 v 1.2 z"
   clip-path="url(#SVGID_70_)" />
					</g>
					<g
   id="g190142">
						<defs
   id="defs190136">
							<rect
   id="SVGID_71_"
   x="247.3"
   y="321"
   width="141.7"
   height="121.1" />
						</defs>
						<clipPath
   id="SVGID_72_">
							<use
   xlink:href="#SVGID_71_"
   style="overflow:visible"
   id="use190138" />
						</clipPath>
						<path
   id="path144081"
   class="st35"
   d="m 349.4,435.2 -1.2,-0.6 v 1.2 z"
   clip-path="url(#SVGID_72_)" />
					</g>
					<g
   id="g190151">
						<defs
   id="defs190145">
							<rect
   id="SVGID_73_"
   x="247.3"
   y="321"
   width="141.7"
   height="121.1" />
						</defs>
						<clipPath
   id="SVGID_74_">
							<use
   xlink:href="#SVGID_73_"
   style="overflow:visible"
   id="use190147" />
						</clipPath>
						<path
   id="path144083"
   class="st36"
   d="m 349.4,432.3 -1.2,-0.6 v 1.2 z"
   clip-path="url(#SVGID_74_)" />
					</g>
					<g
   id="g190160">
						<defs
   id="defs190154">
							<rect
   id="SVGID_75_"
   x="247.3"
   y="321"
   width="141.7"
   height="121.1" />
						</defs>
						<clipPath
   id="SVGID_76_">
							<use
   xlink:href="#SVGID_75_"
   style="overflow:visible"
   id="use190156" />
						</clipPath>
						<path
   id="path144085"
   class="st37"
   d="m 349.4,426.7 -1.2,-0.6 v 1.2 z"
   clip-path="url(#SVGID_76_)" />
					</g>
					<g
   id="g190169">
						<defs
   id="defs190163">
							<rect
   id="SVGID_77_"
   x="247.3"
   y="321"
   width="141.7"
   height="121.1" />
						</defs>
						<clipPath
   id="SVGID_78_">
							<use
   xlink:href="#SVGID_77_"
   style="overflow:visible"
   id="use190165" />
						</clipPath>
						<path
   id="path144087"
   class="st38"
   d="m 280,431.6 1.2,0.6 V 431 Z"
   clip-path="url(#SVGID_78_)" />
					</g>
					<g
   id="g190178">
						<defs
   id="defs190172">
							<rect
   id="SVGID_79_"
   x="247.3"
   y="321"
   width="141.7"
   height="121.1" />
						</defs>
						<clipPath
   id="SVGID_80_">
							<use
   xlink:href="#SVGID_79_"
   style="overflow:visible"
   id="use190174" />
						</clipPath>
						<path
   id="path144089"
   class="st39"
   d="m 280,431.5 1.2,0.6 v -1.2 z"
   clip-path="url(#SVGID_80_)" />
					</g>
					<g
   id="g190187">
						<defs
   id="defs190181">
							<rect
   id="SVGID_81_"
   x="247.3"
   y="321"
   width="141.7"
   height="121.1" />
						</defs>
						<clipPath
   id="SVGID_82_">
							<use
   xlink:href="#SVGID_81_"
   style="overflow:visible"
   id="use190183" />
						</clipPath>
						<path
   id="path144091"
   class="st40"
   d="m 283.2,441.8 1.2,0.6 v -1.2 z"
   clip-path="url(#SVGID_82_)" />
					</g>
					<g
   id="g190196">
						<defs
   id="defs190190">
							<rect
   id="SVGID_83_"
   x="247.3"
   y="321"
   width="141.7"
   height="121.1" />
						</defs>
						<clipPath
   id="SVGID_84_">
							<use
   xlink:href="#SVGID_83_"
   style="overflow:visible"
   id="use190192" />
						</clipPath>
						<path
   id="path144093"
   class="st41"
   d="m 279,427.6 1.2,0.6 V 427 Z"
   clip-path="url(#SVGID_84_)" />
					</g>
					<g
   id="g190205">
						<defs
   id="defs190199">
							<rect
   id="SVGID_85_"
   x="247.3"
   y="321"
   width="141.7"
   height="121.1" />
						</defs>
						<clipPath
   id="SVGID_86_">
							<use
   xlink:href="#SVGID_85_"
   style="overflow:visible"
   id="use190201" />
						</clipPath>
						<path
   id="path144095"
   class="st42"
   d="m 278.9,426.9 1.2,0.6 v -1.2 z"
   clip-path="url(#SVGID_86_)" />
					</g>
					<g
   id="g190214">
						<defs
   id="defs190208">
							<rect
   id="SVGID_87_"
   x="247.3"
   y="321"
   width="141.7"
   height="121.1" />
						</defs>
						<clipPath
   id="SVGID_88_">
							<use
   xlink:href="#SVGID_87_"
   style="overflow:visible"
   id="use190210" />
						</clipPath>
						<path
   id="path144097"
   class="st43"
   d="m 282.3,439 1.2,0.6 v -1.2 z"
   clip-path="url(#SVGID_88_)" />
					</g>
					<g
   id="g190223">
						<defs
   id="defs190217">
							<rect
   id="SVGID_89_"
   x="247.3"
   y="321"
   width="141.7"
   height="121.1" />
						</defs>
						<clipPath
   id="SVGID_90_">
							<use
   xlink:href="#SVGID_89_"
   style="overflow:visible"
   id="use190219" />
						</clipPath>
						<path
   id="path144099"
   class="st44"
   d="m 280.6,433.4 1.2,0.6 v -1.2 z"
   clip-path="url(#SVGID_90_)" />
					</g>
					<g
   id="g190232">
						<defs
   id="defs190226">
							<rect
   id="SVGID_91_"
   x="247.3"
   y="321"
   width="141.7"
   height="121.1" />
						</defs>
						<clipPath
   id="SVGID_92_">
							<use
   xlink:href="#SVGID_91_"
   style="overflow:visible"
   id="use190228" />
						</clipPath>
						<path
   id="path144101"
   class="st45"
   d="m 280.2,432.2 1.2,0.6 v -1.2 z"
   clip-path="url(#SVGID_92_)" />
					</g>
					<g
   id="g190241">
						<defs
   id="defs190235">
							<rect
   id="SVGID_93_"
   x="247.3"
   y="321"
   width="141.7"
   height="121.1" />
						</defs>
						<clipPath
   id="SVGID_94_">
							<use
   xlink:href="#SVGID_93_"
   style="overflow:visible"
   id="use190237" />
						</clipPath>
						<path
   id="path144103"
   class="st46"
   d="m 278.4,425 1.2,0.6 v -1.2 z"
   clip-path="url(#SVGID_94_)" />
					</g>
					<g
   id="g190250">
						<defs
   id="defs190244">
							<rect
   id="SVGID_95_"
   x="247.3"
   y="321"
   width="141.7"
   height="121.1" />
						</defs>
						<clipPath
   id="SVGID_96_">
							<use
   xlink:href="#SVGID_95_"
   style="overflow:visible"
   id="use190246" />
						</clipPath>
						<path
   id="path144105"
   class="st47"
   d="m 280.9,434.4 1.2,0.6 v -1.2 z"
   clip-path="url(#SVGID_96_)" />
					</g>
				</g>
			</g>
			<g
   id="PolyCollection_1_2_"
   transform="translate(7.75e-5)">
				<g
   id="g190261">
					<defs
   id="defs190255">
						<rect
   id="SVGID_97_"
   x="247.3"
   y="321"
   width="141.7"
   height="121.1" />
					</defs>
					<clipPath
   id="SVGID_98_">
						<use
   xlink:href="#SVGID_97_"
   style="overflow:visible"
   id="use190257" />
					</clipPath>
					<path
   id="path143733"
   class="st48"
   d="m 321.7,321 h -7 v 24.2 0 l -0.1,0.4 -0.1,0.4 -0.1,0.4 -0.1,0.4 -0.1,0.4 -0.1,0.4 -0.1,0.4 -0.1,0.4 -0.1,0.4 -0.1,0.4 -0.1,0.4 -0.1,0.4 -0.1,0.4 -0.1,0.4 -0.1,0.4 -0.1,0.4 -0.1,0.4 -0.1,0.4 -0.1,0.4 -0.1,0.4 -0.1,0.4 -0.1,0.4 -0.1,0.4 -0.1,0.4 -0.1,0.4 -0.1,0.4 -0.1,0.4 -0.1,0.4 -0.1,0.4 -0.1,0.4 -0.1,0.4 -0.1,0.4 -0.1,0.4 -0.1,0.4 -0.1,0.4 -0.1,0.4 -0.1,0.4 -0.1,0.4 -0.1,0.4 -0.1,0.4 -0.1,0.4 -0.1,0.4 -0.1,0.4 -0.1,0.4 -0.1,0.4 -0.1,0.4 -0.1,0.4 -0.1,0.4 -0.1,0.4 -0.1,0.4 -0.1,0.4 -0.1,0.4 -0.1,0.4 -0.1,0.4 -0.1,0.4 -0.1,0.4 -0.1,0.4 -0.1,0.4 -0.1,0.4 -0.1,0.4 -0.2,0.4 -0.2,0.4 -0.2,0.4 -0.2,0.4 -0.2,0.4 0.3,2.8 -0.2,0.4 -0.2,0.4 -0.2,0.4 -0.2,0.4 -0.2,0.4 -0.2,0.4 -0.2,0.4 -0.2,0.4 -0.2,0.4 -0.2,0.4 -0.2,0.4 -0.2,0.4 -0.2,0.4 -0.2,0.4 -0.2,0.4 -0.2,0.4 -0.2,0.4 -0.2,0.4 -0.2,0.4 -0.2,0.4 -0.2,0.4 -0.2,0.4 -0.2,0.4 -0.2,0.4 -0.2,0.4 -0.3,0.4 -0.3,0.4 -0.3,0.4 -0.3,0.4 -0.3,0.4 -0.3,0.4 -0.3,0.4 -0.3,0.4 h 34.9 v 0 l -0.3,-0.4 -0.3,-0.4 -0.3,-0.4 -0.3,-0.4 -0.3,-0.4 -0.3,-0.4 -0.3,-0.4 -0.3,-0.4 -0.2,-0.4 0.1,0.4 -0.2,-0.4 -0.2,-0.4 -0.2,-0.4 -0.2,-0.4 -0.2,-0.4 -0.2,-0.4 -0.2,-0.4 -0.2,-0.4 -0.2,-0.4 -0.2,-0.4 -0.2,-0.4 -0.2,-0.4 -0.2,-0.4 -0.2,-0.4 -0.2,-0.4 -0.2,-0.4 -0.2,-0.4 -0.2,-0.4 -0.2,-0.4 -0.2,-0.4 -0.2,-0.4 -0.2,-0.4 -0.2,-0.4 -0.2,-0.4 -0.2,-0.4 -0.2,-0.4 -0.2,-0.4 -0.2,-0.4 -0.2,-0.4 -0.1,-0.4 -0.1,-0.4 -0.1,-0.4 -0.1,-0.4 -0.1,-0.4 -0.1,-0.4 -0.1,-0.4 -0.1,-0.4 -0.1,-0.4 -0.3,-1.8 -0.1,-0.4 -0.1,-0.4 -0.1,-0.4 -0.1,-0.4 -0.1,-0.4 -0.1,-0.4 -0.1,-0.4 -0.1,-0.4 -0.1,-0.4 -0.1,-0.4 -0.1,-0.4 -0.1,-0.4 -0.1,-0.4 -0.1,-0.4 -0.1,-0.4 -0.1,-0.4 -0.1,-0.4 -0.1,-0.4 -0.1,-0.4 -0.1,-0.4 -0.1,-0.4 -0.1,-0.4 -0.1,-0.4 -0.1,-0.4 -0.1,-0.4 -0.1,-0.4 -0.1,-0.4 -0.1,-0.4 -0.1,-0.4 -0.1,-1.4 -0.1,-0.4 -0.1,-0.4 -0.1,-0.4 -0.1,-0.4 -0.1,-0.4 -0.1,-0.4 -0.1,-0.4 -0.1,-0.4 -0.1,-0.4 -0.1,-0.4 -0.1,-0.4 -0.1,-0.4 -0.1,-0.4 -0.1,-0.4 -0.1,-0.4 -0.1,-0.4 -0.1,-0.4 -0.1,-0.4 -0.1,-0.4 -0.1,-0.4 v 0 z"
   clip-path="url(#SVGID_98_)" />
				</g>
			</g>
			<g
   id="PolyCollection_2_2_">
				<g
   id="g190271">
					<defs
   id="defs190265">
						<rect
   id="SVGID_99_"
   x="247.3"
   y="321"
   width="141.7"
   height="121.1" />
					</defs>
					<clipPath
   id="SVGID_100_">
						<use
   xlink:href="#SVGID_99_"
   style="overflow:visible"
   id="use190267" />
					</clipPath>
					<path
   id="path143739"
   class="st49"
   d="m 272.1,388.3 h -7 v 0.5 0.5 l -0.1,0.5 -0.1,0.5 -0.1,0.5 -0.1,0.5 -0.1,0.5 -0.1,0.5 -0.1,0.5 -0.1,0.5 -0.1,0.5 -0.1,0.5 -0.1,0.5 -0.1,0.5 -0.1,0.5 -0.1,0.5 -0.1,0.5 -0.1,0.5 -0.1,0.5 -0.1,0.5 -0.1,0.5 -0.1,0.5 -0.1,0.5 -0.1,0.5 -0.1,0.5 -0.1,0.5 -0.1,0.5 -0.1,0.5 -0.1,0.5 -0.1,0.5 -0.1,0.5 -0.1,0.5 -0.1,0.5 -0.1,0.5 -0.1,0.5 -0.1,0.5 -0.1,0.5 -0.1,0.5 -0.1,0.5 -0.1,0.5 -0.1,0.5 -0.1,0.5 -0.1,0.5 -0.1,0.5 -0.1,0.5 -0.1,0.5 -0.1,0.5 -0.1,0.5 -0.1,0.5 -0.1,0.5 -0.1,0.5 -0.1,0.5 -0.1,0.5 -0.1,0.5 -0.1,0.5 -0.1,0.5 -0.1,0.5 -0.1,0.5 -0.1,0.5 -0.1,0.5 -0.1,0.5 -0.1,0.5 -0.1,0.5 -0.1,0.5 -0.1,0.5 -0.1,0.5 -0.1,0.5 -0.1,0.5 -0.1,0.5 -0.1,0.5 -0.1,0.5 -0.1,0.5 -0.1,0.5 -0.1,0.5 -0.1,0.5 -0.1,0.5 -0.1,0.5 -0.1,0.5 -0.1,0.5 -0.1,0.5 -0.2,0.5 -0.2,0.5 -0.2,0.5 -0.2,0.5 -0.2,0.5 -0.2,0.5 -0.2,0.5 -0.2,0.5 -0.2,0.5 -0.2,0.5 -0.2,0.5 -0.2,0.5 -0.2,0.5 -0.2,0.5 -0.2,0.5 -0.2,0.5 -0.2,0.5 -0.2,0.5 -0.2,0.5 h 27.9 v 0 l -0.2,-0.5 -0.2,-0.5 -0.2,-0.5 -0.2,-0.5 -0.2,-0.5 -0.2,-0.5 -0.2,-0.5 -0.2,-0.5 -0.2,-0.5 -0.2,-0.5 -0.2,-0.5 -0.2,-0.5 -0.2,-0.5 -0.2,-0.5 -0.2,-0.5 -0.2,-0.5 -0.2,-0.5 -0.2,-0.5 -0.2,-0.5 -0.1,-0.5 -0.1,-0.5 -0.1,-0.5 -0.1,-0.5 -0.1,-0.5 -0.1,-0.5 -0.1,-0.5 -0.1,-0.5 -0.1,-0.5 -0.1,-0.5 -0.1,-0.5 -0.1,-0.5 -0.1,-0.5 -0.1,-0.5 -0.1,-0.5 -0.1,-0.5 -0.1,-0.5 -0.1,-0.5 -0.1,-0.5 -0.1,-0.5 -0.1,-0.5 -0.1,-0.5 -0.1,-0.5 -0.1,-0.5 -0.1,-0.5 -0.1,-0.5 -0.1,-0.5 -0.1,-0.5 -0.1,-0.5 -0.1,-0.5 -0.1,-0.5 -0.1,-0.5 -0.1,-0.5 -0.1,-0.5 -0.1,-0.5 -0.1,-0.5 -0.1,-0.5 -0.1,-0.5 -0.1,-0.5 -0.1,-0.5 -0.1,-0.5 -0.1,-0.5 -0.1,-0.5 -0.1,-0.5 -0.1,-0.5 -0.1,-0.5 -0.1,-0.5 -0.1,-0.5 -0.1,-0.5 -0.1,-0.5 -0.1,-0.5 -0.1,-0.5 -0.1,-0.5 -0.1,-0.5 -0.1,-0.5 -0.1,-0.5 -0.1,-0.5 -0.1,-0.5 -0.1,-0.5 -0.1,-0.5 -0.1,-0.5 -0.1,-0.5 -0.1,-0.5 -0.1,-0.5 -0.1,-0.5 -0.1,-0.5 -0.1,-0.5 -0.1,-0.5 -0.1,-0.5 -0.1,-0.5 -0.1,-0.5 -0.1,-0.5 -0.1,-0.5 -0.1,-0.5 -0.1,-0.5 -0.1,-0.5 -0.1,-0.5 -0.1,-0.5 v -0.5 z"
   clip-path="url(#SVGID_100_)" />
				</g>
			</g>
			<g
   id="PolyCollection_3_2_">
				<g
   id="g190281">
					<defs
   id="defs190275">
						<rect
   id="SVGID_101_"
   x="247.3"
   y="321"
   width="141.7"
   height="121.1" />
					</defs>
					<clipPath
   id="SVGID_102_">
						<use
   xlink:href="#SVGID_101_"
   style="overflow:visible"
   id="use190277" />
					</clipPath>
					<path
   id="path143745"
   class="st50"
   d="m 385.2,388.3 h -34.9 v 53.8 h 34.9 v 0 z"
   clip-path="url(#SVGID_102_)" />
				</g>
			</g>
		</g>
	</g>
</g>
<g
   id="Layer_4">
	<g
   id="g190291">
		<g
   id="g190289">
			<path
   d="m 49.5,381.5 c -0.6,-10 -1.1,-20.1 -1.7,-30.1 -0.5,-9.8 -1.5,-19.7 1.8,-29.1 -1.3,0 -2.6,0 -3.9,0 2.5,10.1 5.6,20.1 9.4,29.8 0.6,1.5 2.8,2.1 3.7,0.5 5,-9.2 4.9,-20.9 11.5,-29.2 -1.1,-0.5 -2.3,-0.9 -3.4,-1.4 0.7,18.5 2.9,36.9 6.6,55 0.4,1.9 3.5,1.9 3.9,0 0.1,-0.5 0.2,-1.1 0.3,-1.6 0.4,-2.5 -3.4,-3.6 -3.9,-1.1 -0.1,0.5 -0.2,1.1 -0.3,1.6 1.3,0 2.6,0 3.9,0 -3.6,-17.8 -5.8,-35.8 -6.5,-53.9 -0.1,-1.6 -2.3,-2.9 -3.4,-1.4 -7,8.8 -6.9,20.4 -12.1,30 1.2,0.2 2.4,0.3 3.7,0.5 -3.8,-9.7 -6.9,-19.7 -9.4,-29.8 -0.5,-2 -3.2,-1.8 -3.9,0 -3.3,9.1 -2.6,18.7 -2.1,28.2 0.6,10.7 1.2,21.3 1.8,32 0.2,2.5 4.2,2.5 4,0 z"
   id="path190287" />
		</g>
	</g>
	<g
   id="g190297">
		<g
   id="g190295">
			<path
   d="m 80,367 c -2.1,5.7 2.5,11.8 8.5,12 7.4,0.2 12.8,-6.8 13.5,-13.6 0.6,-6.2 -2.6,-13.4 -9.8,-12.8 -8.3,0.7 -11.1,9.2 -12.5,16.1 -0.5,2.5 3.3,3.6 3.9,1.1 0.8,-3.8 1.5,-8.4 4.6,-11.2 4.4,-4 9.4,-1.4 9.9,4.2 0.4,4.4 -1.8,9.4 -5.9,11.4 -4.3,2.1 -10.3,-0.8 -8.3,-6.1 0.8,-2.4 -3,-3.5 -3.9,-1.1 z"
   id="path190293" />
		</g>
	</g>
	<g
   id="g190303">
		<g
   id="g190301">
			<path
   d="m 122.1,366.5 c 2.4,-7.6 -5.7,-14.8 -12.7,-9.8 -6,4.3 -6.4,17.8 0.5,21.6 9.8,5.4 13.6,-8.6 13.9,-15.3 0.3,-6.6 0.2,-13.2 1,-19.8 0.8,-6.5 1.4,-12.9 0.2,-19.4 -0.4,-2.3 -3.9,-1.7 -3.9,0.5 -0.2,9.3 -0.3,18.5 -0.5,27.8 -0.1,8.2 -0.7,16.5 0.9,24.6 0.5,2.5 4.3,1.5 3.9,-1.1 -1.6,-8.3 -0.9,-17 -0.7,-25.5 0.1,-8.6 0.3,-17.2 0.4,-25.8 -1.3,0.2 -2.6,0.4 -3.9,0.5 2,11.2 -1.1,23.2 -1.3,34.5 0,3 0,6.1 -0.6,9 -0.8,3.8 -5.2,10.6 -9.1,4.5 -1.6,-2.6 -1.2,-6.3 -0.4,-9.1 0.5,-1.7 1.7,-4 3.6,-4.5 4.2,-1.1 5.9,3.2 5,6.2 -0.9,2.5 2.9,3.5 3.7,1.1 z"
   id="path190299" />
		</g>
	</g>
	<g
   id="g190309">
		<g
   id="g190307">
			<path
   d="m 130.4,369.2 c 5.6,-0.7 17.2,1.6 17.8,-7.2 0.5,-6.7 -9.6,-10.7 -14.6,-7 -5.1,3.8 -4.4,12.6 -1.1,17.2 4.3,5.9 12.8,6.8 18.7,2.9 2.1,-1.4 0.1,-4.9 -2,-3.5 -7.2,4.8 -17.2,-0.9 -15.1,-9.9 0.6,-2.4 2.3,-3.9 4.9,-3.9 2.9,0 6.8,2.8 4.1,5.7 -2.7,3 -9.2,1.2 -12.7,1.6 -2.6,0.4 -2.6,4.4 0,4.1 z"
   id="path190305" />
		</g>
	</g>
	<g
   id="g190315">
		<g
   id="g190313">
			<path
   d="m 155.7,326.1 c -0.6,16.9 0,33.8 1.6,50.6 0.3,2.5 4.3,2.6 4,0 -1.7,-16.8 -2.2,-33.7 -1.6,-50.6 0.1,-2.6 -3.9,-2.6 -4,0 z"
   id="path190311" />
		</g>
	</g>
	<g
   id="g190321">
		<g
   id="g190319">
			<path
   d="m 202.5,342.6 c 0.6,-2.9 4.9,-5 7.8,-4.4 2.9,0.6 3.9,3.3 2.6,5.8 -1,1.9 -3.4,3.4 -5.2,4.6 -1.5,1 -1.1,3.9 1,3.7 1.4,-0.1 3.4,-0.4 4.8,0.1 2.7,0.9 3.9,5 4.7,7.5 1.2,3.7 2.6,8.4 -0.3,11.4 -2.7,2.8 -7,2.7 -10.8,2.6 -3.2,-0.1 -13.7,-0.3 -9.9,-7 1.3,-2.2 -2.2,-4.3 -3.5,-2 -7.9,14.1 18.4,15.8 26.1,10.8 5.5,-3.6 3.9,-11.5 2.2,-16.8 -2.2,-7.3 -5.4,-11.2 -13.3,-10.5 0.3,1.2 0.7,2.5 1,3.7 5,-3.3 12.4,-11.4 4.9,-16.5 -5.1,-3.5 -14.7,-0.2 -16,6 -0.5,2.4 3.4,3.5 3.9,1 z"
   id="path190317" />
		</g>
	</g>
</g>
</svg>
