<?xml version="1.0" encoding="UTF-8" standalone="no"?>
<!-- Generator: Adobe Illustrator 23.0.3, SVG Export Plug-In . SVG Version: 6.00 Build 0)  -->

<svg
   version="1.1"
   x="0px"
   y="0px"
   viewBox="0 0 1400 623.6"
   xml:space="preserve"
   id="svg191675"
   sodipodi:docname="models_4.svg"
   width="1400"
   height="623.59998"
   inkscape:version="1.2.2 (1:1.2.2+202212051552+b0a8486541)"
   xmlns:inkscape="http://www.inkscape.org/namespaces/inkscape"
   xmlns:sodipodi="http://sodipodi.sourceforge.net/DTD/sodipodi-0.dtd"
   xmlns:xlink="http://www.w3.org/1999/xlink"
   xmlns="http://www.w3.org/2000/svg"
   xmlns:svg="http://www.w3.org/2000/svg"><defs
   id="defs191679" /><sodipodi:namedview
   id="namedview191677"
   pagecolor="#ffffff"
   bordercolor="#000000"
   borderopacity="0.25"
   inkscape:showpageshadow="2"
   inkscape:pageopacity="0.0"
   inkscape:pagecheckerboard="0"
   inkscape:deskcolor="#d1d1d1"
   showgrid="false"
   inkscape:zoom="0.37844774"
   inkscape:cx="603.78218"
   inkscape:cy="311.79999"
   inkscape:window-width="1221"
   inkscape:window-height="778"
   inkscape:window-x="59"
   inkscape:window-y="22"
   inkscape:window-maximized="1"
   inkscape:current-layer="svg191675" />
<style
   type="text/css"
   id="style191155">
	
		.st0{clip-path:url(#SVGID_2_);fill:none;stroke:#FF7F0E;stroke-width:0.2;stroke-linecap:square;stroke-linejoin:round;stroke-opacity:0.5;}
	
		.st1{clip-path:url(#SVGID_4_);fill:none;stroke:#FF7F0E;stroke-width:0.2;stroke-linecap:square;stroke-linejoin:round;stroke-opacity:0.5;}
	
		.st2{clip-path:url(#SVGID_6_);fill:none;stroke:#FF7F0E;stroke-width:0.2;stroke-linecap:square;stroke-linejoin:round;stroke-opacity:0.5;}
	
		.st3{clip-path:url(#SVGID_8_);fill:none;stroke:#FF7F0E;stroke-width:0.2;stroke-linecap:square;stroke-linejoin:round;stroke-opacity:0.5;}
	
		.st4{clip-path:url(#SVGID_10_);fill:none;stroke:#FF7F0E;stroke-width:0.2;stroke-linecap:square;stroke-linejoin:round;stroke-opacity:0.5;}
	
		.st5{clip-path:url(#SVGID_12_);fill:none;stroke:#FF7F0E;stroke-width:0.2;stroke-linecap:square;stroke-linejoin:round;stroke-opacity:0.5;}
	
		.st6{clip-path:url(#SVGID_14_);fill:none;stroke:#FF7F0E;stroke-width:0.2;stroke-linecap:square;stroke-linejoin:round;stroke-opacity:0.5;}
	
		.st7{clip-path:url(#SVGID_16_);fill:none;stroke:#FF7F0E;stroke-width:0.2;stroke-linecap:square;stroke-linejoin:round;stroke-opacity:0.5;}
	
		.st8{clip-path:url(#SVGID_18_);fill:none;stroke:#FF7F0E;stroke-width:0.2;stroke-linecap:square;stroke-linejoin:round;stroke-opacity:0.5;}
	
		.st9{clip-path:url(#SVGID_20_);fill:none;stroke:#FF7F0E;stroke-width:0.2;stroke-linecap:square;stroke-linejoin:round;stroke-opacity:0.5;}
	
		.st10{clip-path:url(#SVGID_22_);fill:none;stroke:#2CA02C;stroke-width:0.2;stroke-linecap:square;stroke-linejoin:round;stroke-opacity:0.5;}
	
		.st11{clip-path:url(#SVGID_24_);fill:none;stroke:#2CA02C;stroke-width:0.2;stroke-linecap:square;stroke-linejoin:round;stroke-opacity:0.5;}
	
		.st12{clip-path:url(#SVGID_26_);fill:none;stroke:#2CA02C;stroke-width:0.2;stroke-linecap:square;stroke-linejoin:round;stroke-opacity:0.5;}
	
		.st13{clip-path:url(#SVGID_28_);fill:none;stroke:#2CA02C;stroke-width:0.2;stroke-linecap:square;stroke-linejoin:round;stroke-opacity:0.5;}
	
		.st14{clip-path:url(#SVGID_30_);fill:none;stroke:#2CA02C;stroke-width:0.2;stroke-linecap:square;stroke-linejoin:round;stroke-opacity:0.5;}
	
		.st15{clip-path:url(#SVGID_32_);fill:none;stroke:#2CA02C;stroke-width:0.2;stroke-linecap:square;stroke-linejoin:round;stroke-opacity:0.5;}
	
		.st16{clip-path:url(#SVGID_34_);fill:none;stroke:#2CA02C;stroke-width:0.2;stroke-linecap:square;stroke-linejoin:round;stroke-opacity:0.5;}
	
		.st17{clip-path:url(#SVGID_36_);fill:none;stroke:#2CA02C;stroke-width:0.2;stroke-linecap:square;stroke-linejoin:round;stroke-opacity:0.5;}
	
		.st18{clip-path:url(#SVGID_38_);fill:none;stroke:#2CA02C;stroke-width:0.2;stroke-linecap:square;stroke-linejoin:round;stroke-opacity:0.5;}
	
		.st19{clip-path:url(#SVGID_40_);fill:none;stroke:#2CA02C;stroke-width:0.2;stroke-linecap:square;stroke-linejoin:round;stroke-opacity:0.5;}
	.st20{clip-path:url(#SVGID_42_);fill:none;stroke:#FFFFFF;stroke-width:3;stroke-linecap:round;stroke-linejoin:round;}
	.st21{clip-path:url(#SVGID_44_);fill:none;stroke:#1F77B4;stroke-linecap:round;stroke-linejoin:round;}
	.st22{clip-path:url(#SVGID_46_);fill:#FFFFFF;stroke:#FFFFFF;stroke-width:3;stroke-linecap:round;stroke-linejoin:round;}
	.st23{clip-path:url(#SVGID_48_);fill:#FFFFFF;stroke:#1F77B4;stroke-linecap:round;stroke-linejoin:round;}
	.st24{clip-path:url(#SVGID_50_);fill:none;stroke:#FFFFFF;stroke-width:3;stroke-linecap:round;stroke-linejoin:round;}
	.st25{clip-path:url(#SVGID_52_);fill:none;stroke:#1F77B4;stroke-linecap:round;stroke-linejoin:round;}
	.st26{clip-path:url(#SVGID_54_);fill:#FFFFFF;stroke:#FFFFFF;stroke-width:3;stroke-linecap:round;stroke-linejoin:round;}
	.st27{clip-path:url(#SVGID_56_);fill:#FFFFFF;stroke:#1F77B4;stroke-linecap:round;stroke-linejoin:round;}
	.st28{clip-path:url(#SVGID_58_);fill:#FF7F0E;fill-opacity:0.5;stroke:#FF7F0E;stroke-opacity:0.5;}
	.st29{clip-path:url(#SVGID_60_);fill:#FF7F0E;fill-opacity:0.5;stroke:#FF7F0E;stroke-opacity:0.5;}
	.st30{clip-path:url(#SVGID_62_);fill:#FF7F0E;fill-opacity:0.5;stroke:#FF7F0E;stroke-opacity:0.5;}
	.st31{clip-path:url(#SVGID_64_);fill:#FF7F0E;fill-opacity:0.5;stroke:#FF7F0E;stroke-opacity:0.5;}
	.st32{clip-path:url(#SVGID_66_);fill:#FF7F0E;fill-opacity:0.5;stroke:#FF7F0E;stroke-opacity:0.5;}
	.st33{clip-path:url(#SVGID_68_);fill:#FF7F0E;fill-opacity:0.5;stroke:#FF7F0E;stroke-opacity:0.5;}
	.st34{clip-path:url(#SVGID_70_);fill:#FF7F0E;fill-opacity:0.5;stroke:#FF7F0E;stroke-opacity:0.5;}
	.st35{clip-path:url(#SVGID_72_);fill:#FF7F0E;fill-opacity:0.5;stroke:#FF7F0E;stroke-opacity:0.5;}
	.st36{clip-path:url(#SVGID_74_);fill:#FF7F0E;fill-opacity:0.5;stroke:#FF7F0E;stroke-opacity:0.5;}
	.st37{clip-path:url(#SVGID_76_);fill:#FF7F0E;fill-opacity:0.5;stroke:#FF7F0E;stroke-opacity:0.5;}
	.st38{clip-path:url(#SVGID_78_);fill:#2CA02C;fill-opacity:0.5;stroke:#2CA02C;stroke-opacity:0.5;}
	.st39{clip-path:url(#SVGID_80_);fill:#2CA02C;fill-opacity:0.5;stroke:#2CA02C;stroke-opacity:0.5;}
	.st40{clip-path:url(#SVGID_82_);fill:#2CA02C;fill-opacity:0.5;stroke:#2CA02C;stroke-opacity:0.5;}
	.st41{clip-path:url(#SVGID_84_);fill:#2CA02C;fill-opacity:0.5;stroke:#2CA02C;stroke-opacity:0.5;}
	.st42{clip-path:url(#SVGID_86_);fill:#2CA02C;fill-opacity:0.5;stroke:#2CA02C;stroke-opacity:0.5;}
	.st43{clip-path:url(#SVGID_88_);fill:#2CA02C;fill-opacity:0.5;stroke:#2CA02C;stroke-opacity:0.5;}
	.st44{clip-path:url(#SVGID_90_);fill:#2CA02C;fill-opacity:0.5;stroke:#2CA02C;stroke-opacity:0.5;}
	.st45{clip-path:url(#SVGID_92_);fill:#2CA02C;fill-opacity:0.5;stroke:#2CA02C;stroke-opacity:0.5;}
	.st46{clip-path:url(#SVGID_94_);fill:#2CA02C;fill-opacity:0.5;stroke:#2CA02C;stroke-opacity:0.5;}
	.st47{clip-path:url(#SVGID_96_);fill:#2CA02C;fill-opacity:0.5;stroke:#2CA02C;stroke-opacity:0.5;}
	
		.st48{clip-path:url(#SVGID_98_);fill:#1E73AF;fill-opacity:0.2;stroke:#1E73AF;stroke-width:2;stroke-linejoin:round;stroke-dasharray:8,2;}
	
		.st49{clip-path:url(#SVGID_100_);fill:#FF7D0A;fill-opacity:0.2;stroke:#FF7D0A;stroke-width:2;stroke-linejoin:round;stroke-dasharray:8,2;}
	
		.st50{clip-path:url(#SVGID_102_);fill:#28A028;fill-opacity:0.2;stroke:#28A028;stroke-width:2;stroke-linejoin:round;stroke-dasharray:8,2;}
</style>
<g
   id="Layer_2">
</g>
<g
   id="Layer_3">
</g>
<g
   id="Layer_1">
	<g
   id="Слой_8">
	</g>
	<g
   id="Слой_16">
	</g>
	<g
   id="Time_scale">
	</g>
	<g
   id="Now_line">
	</g>
	<g
   id="Слой_10">
	</g>
	<g
   id="Слой_9">
	</g>
	<g
   id="figure_1_3_">
		<g
   id="axes_1_3_">
			<g
   id="g191172">
				<defs
   id="defs191166">
					<rect
   id="SVGID_1_"
   x="247.3"
   y="463.89999"
   width="141.7"
   height="121.1" />
				</defs>
				<clipPath
   id="SVGID_2_">
					<use
   xlink:href="#SVGID_1_"
   style="overflow:visible"
   id="use191168" />
				</clipPath>
				<path
   id="path162894"
   class="st0"
   d="m 284,557.1 h 0.6 0.6 l 0.6,0.1 h 0.6 0.6 0.6 0.6 0.6 0.6 0.6 0.6 l 0.6,0.1 h 0.6 0.6 0.6 0.6 0.6 0.6 0.6 0.6 0.6 0.6 0.6 0.6 0.6 0.6 0.6 0.6 0.6 0.6 0.6 0.6 0.6 0.6 0.6 0.6 0.6 0.6 0.6 0.6 l 0.6,-0.1 h 0.6 l 0.6,-0.1 h 0.6 0.6 0.6 0.6 l 0.6,-0.1 h 0.6 0.6 0.6 0.6 0.6 0.6 0.6 0.6 0.6 0.6 0.6 0.6 0.6 0.6 0.6 0.6 0.6 0.6 0.6 0.6 0.6 0.6 0.6 0.6 0.6 0.6 0.6 0.6 0.6 0.6 0.6 0.6 0.6 0.6 0.6 l 0.6,0.1 h 0.6 0.6 0.6 0.6 0.6 0.6 l 0.6,0.1 h 0.6 0.6 0.6 l 0.6,0.1 h 0.6 0.6 0.6 l 0.6,0.1 h 0.6 0.6 0.6 0.6 0.6 0.6 0.6 0.6 0.6 0.6 0.6 0.6 0.6 0.6 0.6 0.6 0.6 0.6 0.6 0.6 0.6"
   clip-path="url(#SVGID_2_)" />
			</g>
			<g
   id="g191181">
				<defs
   id="defs191175">
					<rect
   id="SVGID_3_"
   x="247.3"
   y="463.89999"
   width="141.7"
   height="121.1" />
				</defs>
				<clipPath
   id="SVGID_4_">
					<use
   xlink:href="#SVGID_3_"
   style="overflow:visible"
   id="use191177" />
				</clipPath>
				<path
   id="path162896"
   class="st1"
   d="m 284,575.6 h 0.6 0.6 l 0.6,0.1 h 0.6 0.6 0.6 0.6 0.6 0.6 0.6 0.6 l 0.6,0.1 h 0.6 0.6 0.6 0.6 0.6 0.6 0.6 0.6 0.6 0.6 0.6 0.6 0.6 0.6 0.6 0.6 0.6 0.6 0.6 0.6 0.6 0.6 0.6 0.6 0.6 0.6 0.6 0.6 l 0.6,-0.1 h 0.6 l 0.6,-0.1 h 0.6 0.6 0.6 0.6 l 0.6,-0.1 h 0.6 0.6 0.6 0.6 0.6 0.6 0.6 0.6 0.6 0.6 0.6 0.6 0.6 0.6 0.6 0.6 0.6 0.6 0.6 0.6 0.6 0.6 0.6 0.6 0.6 0.6 0.6 0.6 0.6 0.6 0.6 0.6 0.6 0.6 0.6 l 0.6,0.1 h 0.6 0.6 0.6 0.6 0.6 0.6 l 0.6,0.1 h 0.6 0.6 0.6 l 0.6,0.1 h 0.6 0.6 0.6 l 0.6,0.1 h 0.6 0.6 0.6 0.6 0.6 0.6 0.6 0.6 0.6 0.6 0.6 0.6 0.6 0.8"
   clip-path="url(#SVGID_4_)" />
			</g>
			<g
   id="g191190">
				<defs
   id="defs191184">
					<rect
   id="SVGID_5_"
   x="247.3"
   y="463.89999"
   width="141.7"
   height="121.1" />
				</defs>
				<clipPath
   id="SVGID_6_">
					<use
   xlink:href="#SVGID_5_"
   style="overflow:visible"
   id="use191186" />
				</clipPath>
				<path
   id="path162898"
   class="st2"
   d="m 284,583.7 h 0.6 0.6 l 0.6,0.1 h 0.6 0.6 0.6 0.6 0.6 0.6 0.6 0.6 l 0.6,0.1 h 0.6 0.6 0.6 0.6 0.6 0.6 0.6 0.6 0.6 0.6 0.6 0.6 0.6 0.6 0.6 0.6 0.6 0.6 0.6 0.6 0.6 0.6 0.6 0.6 0.6 0.6 0.6 0.6 l 0.6,-0.1 h 0.6 l 0.6,-0.1 h 0.6 0.6 0.6 0.6 l 0.6,-0.1 h 0.6 0.6 0.6 0.6 0.6 0.6 0.6 0.6 0.6 0.6 0.6 0.6 0.6 0.6 0.6 0.6 0.6 0.6 0.6 0.6 0.6 0.6 0.6 0.6 0.6 0.6 0.6 0.6 0.6 0.6 0.6 0.6 0.6 0.6 0.6 l 0.6,0.1 h 0.6 0.6 0.6 0.6 0.6 0.6 l 0.6,0.1 h 0.6 0.6 0.6 l 0.6,0.1 h 0.6 0.6 0.6 l 0.6,0.1 h 0.6 0.6 0.6 0.6 0.6 0.6 0.6 0.6 0.6 0.9"
   clip-path="url(#SVGID_6_)" />
			</g>
			<g
   id="g191199">
				<defs
   id="defs191193">
					<rect
   id="SVGID_7_"
   x="247.3"
   y="463.89999"
   width="141.7"
   height="121.1" />
				</defs>
				<clipPath
   id="SVGID_8_">
					<use
   xlink:href="#SVGID_7_"
   style="overflow:visible"
   id="use191195" />
				</clipPath>
				<path
   id="path162900"
   class="st3"
   d="m 284,582.7 h 0.6 0.6 l 0.6,0.1 h 0.6 0.6 0.6 0.6 0.6 0.6 0.6 0.6 l 0.6,0.1 h 0.6 0.6 0.6 0.6 0.6 0.6 0.6 0.6 0.6 0.6 0.6 0.6 0.6 0.6 0.6 0.6 0.6 0.6 0.6 0.6 0.6 0.6 0.6 0.6 0.6 0.6 0.6 0.6 l 0.6,-0.1 h 0.6 l 0.6,-0.1 h 0.6 0.6 0.6 0.6 l 0.6,-0.1 h 0.6 0.6 0.6 0.6 0.6 0.6 0.6 0.6 0.6 0.6 0.6 0.6 0.6 0.6 0.6 0.6 0.6 0.6 0.6 0.6 0.6 0.6 0.6 0.6 0.6 0.6 0.6 0.6 0.6 0.6 0.6 0.6 0.6 0.6 0.6 l 0.6,0.1 h 0.6 0.6 0.6 0.6 0.6 0.6 l 0.6,0.1 h 0.6 0.6 0.6 l 0.6,0.1 h 0.6 0.6 0.6 l 0.6,0.1 h 0.6 0.6 0.6 0.6 0.6 0.6 0.6 0.6 0.6 0.6 0.6"
   clip-path="url(#SVGID_8_)" />
			</g>
			<g
   id="g191208">
				<defs
   id="defs191202">
					<rect
   id="SVGID_9_"
   x="247.3"
   y="463.89999"
   width="141.7"
   height="121.1" />
				</defs>
				<clipPath
   id="SVGID_10_">
					<use
   xlink:href="#SVGID_9_"
   style="overflow:visible"
   id="use191204" />
				</clipPath>
				<path
   id="path162902"
   class="st4"
   d="m 284,565.5 h 0.6 0.6 l 0.6,0.1 h 0.6 0.6 0.6 0.6 0.6 0.6 0.6 0.6 l 0.6,0.1 h 0.6 0.6 0.6 0.6 0.6 0.6 0.6 0.6 0.6 0.6 0.6 0.6 0.6 0.6 0.6 0.6 0.6 0.6 0.6 0.6 0.6 0.6 0.6 0.6 0.6 0.6 0.6 0.6 l 0.6,-0.1 h 0.6 l 0.6,-0.1 h 0.6 0.6 0.6 0.6 l 0.6,-0.1 h 0.6 0.6 0.6 0.6 0.6 0.6 0.6 0.6 0.6 0.6 0.6 0.6 0.6 0.6 0.6 0.6 0.6 0.6 0.6 0.6 0.6 0.6 0.6 0.6 0.6 0.6 0.6 0.6 0.6 0.6 0.6 0.6 0.6 0.6 0.6 l 0.6,0.1 h 0.6 0.6 0.6 0.6 0.6 0.6 l 0.6,0.1 h 0.6 0.6 0.6 l 0.6,0.1 h 0.6 0.6 0.6 l 0.6,0.1 h 0.6 0.6 0.6 0.6 0.6 0.6 0.6 0.6 0.6 0.6 0.6 0.6 0.6 0.6 0.6 0.6 0.6 0.7"
   clip-path="url(#SVGID_10_)" />
			</g>
			<g
   id="g191217">
				<defs
   id="defs191211">
					<rect
   id="SVGID_11_"
   x="247.3"
   y="463.89999"
   width="141.7"
   height="121.1" />
				</defs>
				<clipPath
   id="SVGID_12_">
					<use
   xlink:href="#SVGID_11_"
   style="overflow:visible"
   id="use191213" />
				</clipPath>
				<path
   id="path162904"
   class="st5"
   d="m 284,572.4 h 0.6 0.6 l 0.6,0.1 h 0.6 0.6 0.6 0.6 0.6 0.6 0.6 0.6 l 0.6,0.1 h 0.6 0.6 0.6 0.6 0.6 0.6 0.6 0.6 0.6 0.6 0.6 0.6 0.6 0.6 0.6 0.6 0.6 0.6 0.6 0.6 0.6 0.6 0.6 0.6 0.6 0.6 0.6 0.6 l 0.6,-0.1 h 0.6 l 0.6,-0.1 h 0.6 0.6 0.6 0.6 l 0.6,-0.1 h 0.6 0.6 0.6 0.6 0.6 0.6 0.6 0.6 0.6 0.6 0.6 0.6 0.6 0.6 0.6 0.6 0.6 0.6 0.6 0.6 0.6 0.6 0.6 0.6 0.6 0.6 0.6 0.6 0.6 0.6 0.6 0.6 0.6 0.6 0.6 l 0.6,0.1 h 0.6 0.6 0.6 0.6 0.6 0.6 l 0.6,0.1 h 0.6 0.6 0.6 l 0.6,0.1 h 0.6 0.6 0.6 l 0.6,0.1 h 0.6 0.6 0.6 0.6 0.6 0.6 0.6 0.6 0.6 0.6 0.6 0.6 0.6 0.6 0.9"
   clip-path="url(#SVGID_12_)" />
			</g>
			<g
   id="g191226">
				<defs
   id="defs191220">
					<rect
   id="SVGID_13_"
   x="247.3"
   y="463.89999"
   width="141.7"
   height="121.1" />
				</defs>
				<clipPath
   id="SVGID_14_">
					<use
   xlink:href="#SVGID_13_"
   style="overflow:visible"
   id="use191222" />
				</clipPath>
				<path
   id="path162906"
   class="st6"
   d="m 284,542.3 h 0.6 0.6 l 0.6,0.1 h 0.6 0.6 0.6 0.6 0.6 0.6 0.6 0.6 l 0.6,0.1 h 0.6 0.6 0.6 0.6 0.6 0.6 0.6 0.6 0.6 0.6 0.6 0.6 0.6 0.6 0.6 0.6 0.6 0.6 0.6 0.6 0.6 0.6 0.6 0.6 0.6 0.6 0.6 0.6 l 0.6,-0.1 h 0.6 l 0.6,-0.1 h 0.6 0.6 0.6 0.6 l 0.6,-0.1 h 0.6 0.6 0.6 0.6 0.6 0.6 0.6 0.6 0.6 0.6 0.6 0.6 0.6 0.6 0.6 0.6 0.6 0.6 0.6 0.6 0.6 0.6 0.6 0.6 0.6 0.6 0.6 0.6 0.6 0.6 0.6 0.6 0.6 0.6 0.6 l 0.6,0.1 h 0.6 0.6 0.6 0.6 0.6 0.6 l 0.6,0.1 h 0.6 0.6 0.6 l 0.6,0.1 h 0.6 0.6 0.6 l 0.6,0.1 h 0.6 0.6 0.6 0.6 0.6 0.6 0.6 0.6 0.6 0.6 0.6 0.6 0.6 0.6 0.6 0.6 0.6 0.6 0.6 0.6 0.6 0.6 0.6 0.6 0.6"
   clip-path="url(#SVGID_14_)" />
			</g>
			<g
   id="g191235">
				<defs
   id="defs191229">
					<rect
   id="SVGID_15_"
   x="247.3"
   y="463.89999"
   width="141.7"
   height="121.1" />
				</defs>
				<clipPath
   id="SVGID_16_">
					<use
   xlink:href="#SVGID_15_"
   style="overflow:visible"
   id="use191231" />
				</clipPath>
				<path
   id="path162908"
   class="st7"
   d="m 284,574.9 h 0.6 0.6 l 0.6,0.1 h 0.6 0.6 0.6 0.6 0.6 0.6 0.6 0.6 l 0.6,0.1 h 0.6 0.6 0.6 0.6 0.6 0.6 0.6 0.6 0.6 0.6 0.6 0.6 0.6 0.6 0.6 0.6 0.6 0.6 0.6 0.6 0.6 0.6 0.6 0.6 0.6 0.6 0.6 0.6 l 0.6,-0.1 h 0.6 l 0.6,-0.1 h 0.6 0.6 0.6 0.6 l 0.6,-0.1 h 0.6 0.6 0.6 0.6 0.6 0.6 0.6 0.6 0.6 0.6 0.6 0.6 0.6 0.6 0.6 0.6 0.6 0.6 0.6 0.6 0.6 0.6 0.6 0.6 0.6 0.6 0.6 0.6 0.6 0.6 0.6 0.6 0.6 0.6 0.6 l 0.6,0.1 h 0.6 0.6 0.6 0.6 0.6 0.6 l 0.6,0.1 h 0.6 0.6 0.6 l 0.6,0.1 h 0.6 0.6 0.6 l 0.6,0.1 h 0.6 0.6 0.6 0.6 0.6 0.6 0.6 0.6 0.6 0.6 0.6 0.6 0.6 0.9"
   clip-path="url(#SVGID_16_)" />
			</g>
			<g
   id="g191244">
				<defs
   id="defs191238">
					<rect
   id="SVGID_17_"
   x="247.3"
   y="463.89999"
   width="141.7"
   height="121.1" />
				</defs>
				<clipPath
   id="SVGID_18_">
					<use
   xlink:href="#SVGID_17_"
   style="overflow:visible"
   id="use191240" />
				</clipPath>
				<path
   id="path162910"
   class="st8"
   d="m 284,579.4 h 0.6 0.6 l 0.6,0.1 h 0.6 0.6 0.6 0.6 0.6 0.6 0.6 0.6 l 0.6,0.1 h 0.6 0.6 0.6 0.6 0.6 0.6 0.6 0.6 0.6 0.6 0.6 0.6 0.6 0.6 0.6 0.6 0.6 0.6 0.6 0.6 0.6 0.6 0.6 0.6 0.6 0.6 0.6 0.6 l 0.6,-0.1 h 0.6 l 0.6,-0.1 h 0.6 0.6 0.6 0.6 l 0.6,-0.1 h 0.6 0.6 0.6 0.6 0.6 0.6 0.6 0.6 0.6 0.6 0.6 0.6 0.6 0.6 0.6 0.6 0.6 0.6 0.6 0.6 0.6 0.6 0.6 0.6 0.6 0.6 0.6 0.6 0.6 0.6 0.6 0.6 0.6 0.6 0.6 l 0.6,0.1 h 0.6 0.6 0.6 0.6 0.6 0.6 l 0.6,0.1 h 0.6 0.6 0.6 l 0.6,0.1 h 0.6 0.6 0.6 l 0.6,0.1 h 0.6 0.6 0.6 0.6 0.6 0.6 0.6 0.6 0.6 0.6 0.6 1"
   clip-path="url(#SVGID_18_)" />
			</g>
			<g
   id="g191253">
				<defs
   id="defs191247">
					<rect
   id="SVGID_19_"
   x="247.3"
   y="463.89999"
   width="141.7"
   height="121.1" />
				</defs>
				<clipPath
   id="SVGID_20_">
					<use
   xlink:href="#SVGID_19_"
   style="overflow:visible"
   id="use191249" />
				</clipPath>
				<path
   id="path162912"
   class="st9"
   d="m 284,569.7 h 0.6 0.6 l 0.6,0.1 h 0.6 0.6 0.6 0.6 0.6 0.6 0.6 0.6 l 0.6,0.1 h 0.6 0.6 0.6 0.6 0.6 0.6 0.6 0.6 0.6 0.6 0.6 0.6 0.6 0.6 0.6 0.6 0.6 0.6 0.6 0.6 0.6 0.6 0.6 0.6 0.6 0.6 0.6 0.6 l 0.6,-0.1 h 0.6 l 0.6,-0.1 h 0.6 0.6 0.6 0.6 l 0.6,-0.1 h 0.6 0.6 0.6 0.6 0.6 0.6 0.6 0.6 0.6 0.6 0.6 0.6 0.6 0.6 0.6 0.6 0.6 0.6 0.6 0.6 0.6 0.6 0.6 0.6 0.6 0.6 0.6 0.6 0.6 0.6 0.6 0.6 0.6 0.6 0.6 l 0.6,0.1 h 0.6 0.6 0.6 0.6 0.6 0.6 l 0.6,0.1 h 0.6 0.6 0.6 l 0.6,0.1 h 0.6 0.6 0.6 l 0.6,0.1 h 0.6 0.6 0.6 0.6 0.6 0.6 0.6 0.6 0.6 0.6 0.6 0.6 0.6 0.6 0.6 1"
   clip-path="url(#SVGID_20_)" />
			</g>
			<g
   id="g191262">
				<defs
   id="defs191256">
					<rect
   id="SVGID_21_"
   x="247.3"
   y="463.89999"
   width="141.7"
   height="121.1" />
				</defs>
				<clipPath
   id="SVGID_22_">
					<use
   xlink:href="#SVGID_21_"
   style="overflow:visible"
   id="use191258" />
				</clipPath>
				<path
   id="path162914"
   class="st10"
   d="m 356.3,552.2 h -0.6 -0.6 l -0.6,-0.1 h -0.6 -0.6 -0.6 -0.6 -0.6 -0.6 -0.6 -0.6 l -0.6,-0.1 h -0.6 -0.6 -0.6 -0.6 -0.6 -0.6 -0.6 -0.6 -0.6 -0.6 -0.6 -0.6 -0.6 -0.6 -0.6 -0.6 -0.6 -0.6 -0.6 -0.6 -0.6 -0.6 -0.6 -0.6 -0.6 -0.6 -0.6 -0.6 l -0.6,0.1 h -0.6 l -0.6,0.1 h -0.6 -0.6 -0.6 -0.6 l -0.6,0.1 h -0.6 -0.6 -0.6 -0.6 -0.6 -0.6 -0.6 -0.6 -0.6 -0.6 -0.6 -0.6 -0.6 -0.6 -0.6 -0.6 -0.6 -0.6 -0.6 -0.6 -0.6 -0.6 -0.6 -0.6 -0.6 -0.6 -0.6 -0.6 -0.6 -0.6 -0.6 -0.6 -0.6 -0.6 -0.6 l -0.6,-0.1 h -0.6 -0.6 -0.6 -0.6 -0.6 -0.6 l -0.6,-0.1 h -0.6 -0.6 -0.6 l -0.6,-0.1 h -0.6 -0.6 -0.6 l -0.6,-0.1 h -0.6 -0.6 -0.6 -0.6 -0.6 -0.6 -0.6 -0.6 -0.6 -0.6 -0.6 -0.6 -0.6 -0.6 -0.6 -0.6 -0.6 -0.6 -0.6 -0.6 -0.6 -0.9"
   clip-path="url(#SVGID_22_)" />
			</g>
			<g
   id="g191271">
				<defs
   id="defs191265">
					<rect
   id="SVGID_23_"
   x="247.3"
   y="463.89999"
   width="141.7"
   height="121.1" />
				</defs>
				<clipPath
   id="SVGID_24_">
					<use
   xlink:href="#SVGID_23_"
   style="overflow:visible"
   id="use191267" />
				</clipPath>
				<path
   id="path162916"
   class="st11"
   d="m 353,569.2 h -0.6 -0.6 l -0.6,-0.1 h -0.6 -0.6 -0.6 -0.6 -0.6 -0.6 -0.6 -0.6 l -0.6,-0.1 h -0.6 -0.6 -0.6 -0.6 -0.6 -0.6 -0.6 -0.6 -0.6 -0.6 -0.6 -0.6 -0.6 -0.6 -0.6 -0.6 -0.6 -0.6 -0.6 -0.6 -0.6 -0.6 -0.6 -0.6 -0.6 -0.6 -0.6 -0.6 l -0.6,0.1 h -0.6 l -0.6,0.1 h -0.6 -0.6 -0.6 -0.6 l -0.6,0.1 h -0.6 -0.6 -0.6 -0.6 -0.6 -0.6 -0.6 -0.6 -0.6 -0.6 -0.6 -0.6 -0.6 -0.6 -0.6 -0.6 -0.6 -0.6 -0.6 -0.6 -0.6 -0.6 -0.6 -0.6 -0.6 -0.6 -0.6 -0.6 -0.6 -0.6 -0.6 -0.6 -0.6 -0.6 -0.6 l -0.6,-0.1 h -0.6 -0.6 -0.6 -0.6 -0.6 -0.6 l -0.6,-0.1 h -0.6 -0.6 -0.6 L 296,569 h -0.6 -0.6 -0.6 l -0.6,-0.1 h -0.6 -0.6 -0.6 -0.6 -0.6 -0.6 -0.6 -0.6 -0.6 -0.6 -0.6 -0.6 -0.6 -0.6 -0.6 -1.1"
   clip-path="url(#SVGID_24_)" />
			</g>
			<g
   id="g191280">
				<defs
   id="defs191274">
					<rect
   id="SVGID_25_"
   x="247.3"
   y="463.89999"
   width="141.7"
   height="121.1" />
				</defs>
				<clipPath
   id="SVGID_26_">
					<use
   xlink:href="#SVGID_25_"
   style="overflow:visible"
   id="use191276" />
				</clipPath>
				<path
   id="path162918"
   class="st12"
   d="m 358.3,539.3 h -0.6 -0.6 l -0.6,-0.1 h -0.6 -0.6 -0.6 -0.6 -0.6 -0.6 -0.6 -0.6 l -0.6,-0.1 h -0.6 -0.6 -0.6 -0.6 -0.6 -0.6 -0.6 -0.6 -0.6 -0.6 -0.6 -0.6 -0.6 -0.6 -0.6 -0.6 -0.6 -0.6 -0.6 -0.6 -0.6 -0.6 -0.6 -0.6 -0.6 -0.6 -0.6 -0.6 l -0.6,0.1 h -0.6 l -0.6,0.1 h -0.6 -0.6 -0.6 -0.6 l -0.6,0.1 h -0.6 -0.6 -0.6 -0.6 -0.6 -0.6 -0.6 -0.6 -0.6 -0.6 -0.6 -0.6 -0.6 -0.6 -0.6 -0.6 -0.6 -0.6 -0.6 -0.6 -0.6 -0.6 -0.6 -0.6 -0.6 -0.6 -0.6 -0.6 -0.6 -0.6 -0.6 -0.6 -0.6 -0.6 -0.6 l -0.6,-0.1 h -0.6 -0.6 -0.6 -0.6 -0.6 -0.6 l -0.6,-0.1 h -0.6 -0.6 -0.6 l -0.6,-0.1 h -0.6 -0.6 -0.6 l -0.6,-0.1 h -0.6 -0.6 -0.6 -0.6 -0.6 -0.6 -0.6 -0.6 -0.6 -0.6 -0.6 -0.6 -0.6 -0.6 -0.6 -0.6 -0.6 -0.6 -0.6 -0.6 -0.6 -0.6 -0.6 -0.6 -1.1"
   clip-path="url(#SVGID_26_)" />
			</g>
			<g
   id="g191289">
				<defs
   id="defs191283">
					<rect
   id="SVGID_27_"
   x="247.3"
   y="463.89999"
   width="141.7"
   height="121.1" />
				</defs>
				<clipPath
   id="SVGID_28_">
					<use
   xlink:href="#SVGID_27_"
   style="overflow:visible"
   id="use191285" />
				</clipPath>
				<path
   id="path162920"
   class="st13"
   d="m 352,573.4 h -0.6 -0.6 l -0.6,-0.1 h -0.6 -0.6 -0.6 -0.6 -0.6 -0.6 -0.6 -0.6 l -0.6,-0.1 h -0.6 -0.6 -0.6 -0.6 -0.6 -0.6 -0.6 -0.6 -0.6 -0.6 -0.6 -0.6 -0.6 -0.6 -0.6 -0.6 -0.6 -0.6 -0.6 -0.6 -0.6 -0.6 -0.6 -0.6 -0.6 -0.6 -0.6 -0.6 l -0.6,0.1 h -0.6 l -0.6,0.1 h -0.6 -0.6 -0.6 -0.6 l -0.6,0.1 h -0.6 -0.6 -0.6 -0.6 -0.6 -0.6 -0.6 -0.6 -0.6 -0.6 -0.6 -0.6 -0.6 -0.6 -0.6 -0.6 -0.6 -0.6 -0.6 -0.6 -0.6 -0.6 -0.6 -0.6 -0.6 -0.6 -0.6 -0.6 -0.6 -0.6 -0.6 -0.6 -0.6 -0.6 -0.6 l -0.6,-0.1 h -0.6 -0.6 -0.6 -0.6 -0.6 -0.6 l -0.6,-0.1 h -0.6 -0.6 -0.6 l -0.6,-0.1 h -0.6 -0.6 -0.6 l -0.6,-0.1 h -0.6 -0.6 -0.6 -0.6 -0.6 -0.6 -0.6 -0.6 -0.6 -0.6 -0.6 -0.6 -0.6 -0.6 -0.7"
   clip-path="url(#SVGID_28_)" />
			</g>
			<g
   id="g191298">
				<defs
   id="defs191292">
					<rect
   id="SVGID_29_"
   x="247.3"
   y="463.89999"
   width="141.7"
   height="121.1" />
				</defs>
				<clipPath
   id="SVGID_30_">
					<use
   xlink:href="#SVGID_29_"
   style="overflow:visible"
   id="use191294" />
				</clipPath>
				<path
   id="path162922"
   class="st14"
   d="m 356.1,553.7 h -0.6 -0.6 l -0.6,-0.1 h -0.6 -0.6 -0.6 -0.6 -0.6 -0.6 -0.6 -0.6 l -0.6,-0.1 h -0.6 -0.6 -0.6 -0.6 -0.6 -0.6 -0.6 -0.6 -0.6 -0.6 -0.6 -0.6 -0.6 -0.6 -0.6 -0.6 -0.6 -0.6 -0.6 -0.6 -0.6 -0.6 -0.6 -0.6 -0.6 -0.6 -0.6 -0.6 l -0.6,0.1 h -0.6 l -0.6,0.1 h -0.6 -0.6 -0.6 -0.6 l -0.6,0.1 h -0.6 -0.6 -0.6 -0.6 -0.6 -0.6 -0.6 -0.6 -0.6 -0.6 -0.6 -0.6 -0.6 -0.6 -0.6 -0.6 -0.6 -0.6 -0.6 -0.6 -0.6 -0.6 -0.6 -0.6 -0.6 -0.6 -0.6 -0.6 -0.6 -0.6 -0.6 -0.6 -0.6 -0.6 -0.6 l -0.6,-0.1 h -0.6 -0.6 -0.6 -0.6 -0.6 -0.6 l -0.6,-0.1 h -0.6 -0.6 -0.6 l -0.6,-0.1 h -0.6 -0.6 -0.6 l -0.6,-0.1 h -0.6 -0.6 -0.6 -0.6 -0.6 -0.6 -0.6 -0.6 -0.6 -0.6 -0.6 -0.6 -0.6 -0.6 -0.6 -0.6 -0.6 -0.6 -0.6 -0.6 -0.6 -0.6"
   clip-path="url(#SVGID_30_)" />
			</g>
			<g
   id="g191307">
				<defs
   id="defs191301">
					<rect
   id="SVGID_31_"
   x="247.3"
   y="463.89999"
   width="141.7"
   height="121.1" />
				</defs>
				<clipPath
   id="SVGID_32_">
					<use
   xlink:href="#SVGID_31_"
   style="overflow:visible"
   id="use191303" />
				</clipPath>
				<path
   id="path162924"
   class="st15"
   d="m 356.4,552 h -0.6 -0.6 l -0.6,-0.1 h -0.6 -0.6 -0.6 -0.6 -0.6 -0.6 -0.6 -0.6 l -0.6,-0.1 h -0.6 -0.6 -0.6 -0.6 -0.6 -0.6 -0.6 -0.6 -0.6 -0.6 -0.6 -0.6 -0.6 -0.6 -0.6 -0.6 -0.6 -0.6 -0.6 -0.6 -0.6 -0.6 -0.6 -0.6 -0.6 -0.6 -0.6 -0.6 l -0.6,0.1 h -0.6 l -0.6,0.1 h -0.6 -0.6 -0.6 -0.6 l -0.6,0.1 h -0.6 -0.6 -0.6 -0.6 -0.6 -0.6 -0.6 -0.6 -0.6 -0.6 -0.6 -0.6 -0.6 -0.6 -0.6 -0.6 -0.6 -0.6 -0.6 -0.6 -0.6 -0.6 -0.6 -0.6 -0.6 -0.6 -0.6 -0.6 -0.6 -0.6 -0.6 -0.6 -0.6 -0.6 -0.6 L 306,552 h -0.6 -0.6 -0.6 -0.6 -0.6 -0.6 l -0.6,-0.1 h -0.6 -0.6 -0.6 l -0.6,-0.1 h -0.6 -0.6 -0.6 l -0.6,-0.1 h -0.6 -0.6 -0.6 -0.6 -0.6 -0.6 -0.6 -0.6 -0.6 -0.6 -0.6 -0.6 -0.6 -0.6 -0.6 -0.6 -0.6 -0.6 -0.6 -0.6 -0.6 -0.9"
   clip-path="url(#SVGID_32_)" />
			</g>
			<g
   id="g191316">
				<defs
   id="defs191310">
					<rect
   id="SVGID_33_"
   x="247.3"
   y="463.89999"
   width="141.7"
   height="121.1" />
				</defs>
				<clipPath
   id="SVGID_34_">
					<use
   xlink:href="#SVGID_33_"
   style="overflow:visible"
   id="use191312" />
				</clipPath>
				<path
   id="path162926"
   class="st16"
   d="m 356.2,552.7 h -0.6 -0.6 l -0.6,-0.1 h -0.6 -0.6 -0.6 -0.6 -0.6 -0.6 -0.6 -0.6 l -0.6,-0.1 h -0.6 -0.6 -0.6 -0.6 -0.6 -0.6 -0.6 -0.6 -0.6 -0.6 -0.6 -0.6 -0.6 -0.6 -0.6 -0.6 -0.6 -0.6 -0.6 -0.6 -0.6 -0.6 -0.6 -0.6 -0.6 -0.6 -0.6 -0.6 l -0.6,0.1 H 331 l -0.6,0.1 h -0.6 -0.6 -0.6 -0.6 l -0.6,0.1 h -0.6 -0.6 -0.6 -0.6 -0.6 -0.6 -0.6 -0.6 -0.6 -0.6 -0.6 -0.6 -0.6 -0.6 -0.6 -0.6 -0.6 -0.6 -0.6 -0.6 -0.6 -0.6 -0.6 -0.6 -0.6 -0.6 -0.6 -0.6 -0.6 -0.6 -0.6 -0.6 -0.6 -0.6 -0.6 l -0.6,-0.1 h -0.6 -0.6 -0.6 -0.6 -0.6 -0.6 l -0.6,-0.1 h -0.6 -0.6 -0.6 l -0.6,-0.1 h -0.6 -0.6 -0.6 l -0.6,-0.1 h -0.6 -0.6 -0.6 -0.6 -0.6 -0.6 -0.6 -0.6 -0.6 -0.6 -0.6 -0.6 -0.6 -0.6 -0.6 -0.6 -0.6 -0.6 -0.6 -0.6 -0.6 -0.8"
   clip-path="url(#SVGID_34_)" />
			</g>
			<g
   id="g191325">
				<defs
   id="defs191319">
					<rect
   id="SVGID_35_"
   x="247.3"
   y="463.89999"
   width="141.7"
   height="121.1" />
				</defs>
				<clipPath
   id="SVGID_36_">
					<use
   xlink:href="#SVGID_35_"
   style="overflow:visible"
   id="use191321" />
				</clipPath>
				<path
   id="path162928"
   class="st17"
   d="m 351.2,576.5 h -0.6 -0.6 l -0.6,-0.1 h -0.6 -0.6 -0.6 -0.6 -0.6 -0.6 -0.6 -0.6 l -0.6,-0.1 h -0.6 -0.6 -0.6 -0.6 -0.6 -0.6 -0.6 -0.6 -0.6 -0.6 -0.6 -0.6 -0.6 -0.6 -0.6 -0.6 -0.6 -0.6 -0.6 -0.6 -0.6 -0.6 -0.6 -0.6 -0.6 -0.6 -0.6 -0.6 l -0.6,0.1 H 326 l -0.6,0.1 h -0.6 -0.6 -0.6 -0.6 l -0.6,0.1 h -0.6 -0.6 -0.6 -0.6 -0.6 -0.6 -0.6 -0.6 -0.6 -0.6 -0.6 -0.6 -0.6 -0.6 -0.6 -0.6 -0.6 -0.6 -0.6 -0.6 -0.6 -0.6 -0.6 -0.6 -0.6 -0.6 -0.6 -0.6 -0.6 -0.6 -0.6 -0.6 -0.6 -0.6 -0.6 l -0.6,-0.1 h -0.6 -0.6 -0.6 -0.6 -0.6 -0.6 l -0.6,-0.1 h -0.6 -0.6 -0.6 l -0.6,-0.1 h -0.6 -0.6 -0.6 l -0.6,-0.1 h -0.6 -0.6 -0.6 -0.6 -0.6 -0.6 -0.6 -0.6 -0.6 -0.6 -0.6 -0.6 -1.1"
   clip-path="url(#SVGID_36_)" />
			</g>
			<g
   id="g191334">
				<defs
   id="defs191328">
					<rect
   id="SVGID_37_"
   x="247.3"
   y="463.89999"
   width="141.7"
   height="121.1" />
				</defs>
				<clipPath
   id="SVGID_38_">
					<use
   xlink:href="#SVGID_37_"
   style="overflow:visible"
   id="use191330" />
				</clipPath>
				<path
   id="path162930"
   class="st18"
   d="m 349,584.6 h -0.6 -0.6 l -0.6,-0.1 h -0.6 -0.6 -0.6 -0.6 -0.6 -0.6 -0.6 -0.6 l -0.6,-0.1 h -0.6 -0.6 -0.6 -0.6 -0.6 -0.6 -0.6 -0.6 -0.6 -0.6 -0.6 -0.6 -0.6 -0.6 -0.6 -0.6 -0.6 -0.6 -0.6 -0.6 -0.6 -0.6 -0.6 -0.6 -0.6 -0.6 -0.6 -0.6 l -0.6,0.1 h -0.6 l -0.6,0.1 h -0.6 -0.6 -0.6 -0.6 l -0.6,0.1 h -0.6 -0.6 -0.6 -0.6 -0.6 -0.6 -0.6 -0.6 -0.6 -0.6 -0.6 -0.6 -0.6 -0.6 -0.6 -0.6 -0.6 -0.6 -0.6 -0.6 -0.6 -0.6 -0.6 -0.6 -0.6 -0.6 -0.6 -0.6 -0.6 -0.6 -0.6 -0.6 -0.6 -0.6 -0.6 l -0.6,-0.1 h -0.6 -0.6 -0.6 -0.6 -0.6 -0.6 l -0.6,-0.1 h -0.6 -0.6 -0.6 l -0.6,-0.1 h -0.6 -0.6 -0.6 l -0.6,-0.1 h -0.6 -0.6 -0.6 -0.6 -0.6 -0.6 -0.6 -0.6 -0.6 -0.7"
   clip-path="url(#SVGID_38_)" />
			</g>
			<g
   id="g191343">
				<defs
   id="defs191337">
					<rect
   id="SVGID_39_"
   x="247.3"
   y="463.89999"
   width="141.7"
   height="121.1" />
				</defs>
				<clipPath
   id="SVGID_40_">
					<use
   xlink:href="#SVGID_39_"
   style="overflow:visible"
   id="use191339" />
				</clipPath>
				<path
   id="path162932"
   class="st19"
   d="m 358.8,535.1 h -0.6 -0.6 L 357,535 h -0.6 -0.6 -0.6 -0.6 -0.6 -0.6 -0.6 -0.6 l -0.6,-0.1 h -0.6 -0.6 -0.6 -0.6 -0.6 -0.6 -0.6 -0.6 -0.6 -0.6 -0.6 -0.6 -0.6 -0.6 -0.6 -0.6 -0.6 -0.6 -0.6 -0.6 -0.6 -0.6 -0.6 -0.6 -0.6 -0.6 -0.6 -0.6 l -0.6,0.1 h -0.6 l -0.6,0.1 h -0.6 -0.6 -0.6 -0.6 l -0.6,0.1 h -0.6 -0.6 -0.6 -0.6 -0.6 -0.6 -0.6 -0.6 -0.6 -0.6 -0.6 -0.6 -0.6 -0.6 -0.6 -0.6 -0.6 -0.6 -0.6 -0.6 -0.6 -0.6 -0.6 -0.6 -0.6 -0.6 -0.6 -0.6 -0.6 -0.6 -0.6 -0.6 -0.6 -0.6 -0.6 l -0.6,-0.1 h -0.6 -0.6 -0.6 -0.6 -0.6 -0.6 l -0.6,-0.1 h -0.6 -0.6 -0.6 l -0.6,-0.1 h -0.6 -0.6 -0.6 l -0.6,-0.1 h -0.6 -0.6 -0.6 -0.6 -0.6 -0.6 -0.6 -0.6 -0.6 -0.6 -0.6 -0.6 -0.6 -0.6 -0.6 -0.6 -0.6 -0.6 -0.6 -0.6 -0.6 -0.6 -0.6 -0.6 -0.6 -1"
   clip-path="url(#SVGID_40_)" />
			</g>
			<g
   id="patch_6_3_">
				<g
   id="g191352">
					<defs
   id="defs191346">
						<rect
   id="SVGID_41_"
   x="247.3"
   y="463.89999"
   width="141.7"
   height="121.1" />
					</defs>
					<clipPath
   id="SVGID_42_">
						<use
   xlink:href="#SVGID_41_"
   style="overflow:visible"
   id="use191348" />
					</clipPath>
					<path
   id="path163255"
   class="st20"
   d="m 299.5,531.2 h -0.6 -0.6 l -0.6,-0.1 h -0.6 -0.6 -0.6 -0.6 -0.6 -0.6 -0.6 -0.6 l -0.6,-0.1 h -0.6 -0.6 -0.6 -0.6 -0.6 -0.6 -0.6 -0.6 -0.6 -0.6 -0.6 -0.6 -0.8"
   clip-path="url(#SVGID_42_)" />
				</g>
				<g
   id="g191361">
					<defs
   id="defs191355">
						<rect
   id="SVGID_43_"
   x="247.3"
   y="463.89999"
   width="141.7"
   height="121.1" />
					</defs>
					<clipPath
   id="SVGID_44_">
						<use
   xlink:href="#SVGID_43_"
   style="overflow:visible"
   id="use191357" />
					</clipPath>
					<path
   id="path163257"
   class="st21"
   d="m 299.5,531.2 h -0.6 -0.6 l -0.6,-0.1 h -0.6 -0.6 -0.6 -0.6 -0.6 -0.6 -0.6 -0.6 l -0.6,-0.1 h -0.6 -0.6 -0.6 -0.6 -0.6 -0.6 -0.6 -0.6 -0.6 -0.6 -0.6 -0.6 -0.8"
   clip-path="url(#SVGID_44_)" />
				</g>
				<g
   id="g191370">
					<defs
   id="defs191364">
						<rect
   id="SVGID_45_"
   x="247.3"
   y="463.89999"
   width="141.7"
   height="121.1" />
					</defs>
					<clipPath
   id="SVGID_46_">
						<use
   xlink:href="#SVGID_45_"
   style="overflow:visible"
   id="use191366" />
					</clipPath>
					<path
   id="path163259"
   class="st22"
   d="m 286.8,532.4 -0.5,-0.3 -0.5,-0.3 -0.5,-0.3 -0.8,-0.4 h 0.6 l 0.5,-0.2 0.5,-0.2 0.8,-0.4 -0.4,0.4 v 0.6 1.2 h 0.3 z"
   clip-path="url(#SVGID_46_)" />
				</g>
				<g
   id="g191379">
					<defs
   id="defs191373">
						<rect
   id="SVGID_47_"
   x="247.3"
   y="463.89999"
   width="141.7"
   height="121.1" />
					</defs>
					<clipPath
   id="SVGID_48_">
						<use
   xlink:href="#SVGID_47_"
   style="overflow:visible"
   id="use191375" />
					</clipPath>
					<path
   id="path163261"
   class="st23"
   d="m 286.8,532.4 -0.5,-0.3 -0.5,-0.3 -0.5,-0.3 -0.8,-0.4 h 0.6 l 0.5,-0.2 0.5,-0.2 0.8,-0.4 -0.4,0.4 v 0.6 1.2 h 0.3 z"
   clip-path="url(#SVGID_48_)" />
				</g>
				<g
   id="patch_7_2_">
					<g
   id="g191388">
						<defs
   id="defs191382">
							<rect
   id="SVGID_49_"
   x="247.3"
   y="463.89999"
   width="141.7"
   height="121.1" />
						</defs>
						<clipPath
   id="SVGID_50_">
							<use
   xlink:href="#SVGID_49_"
   style="overflow:visible"
   id="use191384" />
						</clipPath>
						<path
   id="path163263"
   class="st24"
   d="m 336.8,531.2 h 0.6 0.6 l 0.6,0.1 h 0.6 0.6 0.6 0.6 0.6 0.6 0.6 0.6 l 0.6,0.1 h 0.6 0.6 0.6 0.6 0.6 0.6 0.6 0.6 0.6 0.6 0.6 0.6 0.6 0.6 0.6 0.6 0.6 0.6 0.6 0.6 0.6 0.6 0.6 0.6 0.7"
   clip-path="url(#SVGID_50_)" />
					</g>
					<g
   id="g191397">
						<defs
   id="defs191391">
							<rect
   id="SVGID_51_"
   x="247.3"
   y="463.89999"
   width="141.7"
   height="121.1" />
						</defs>
						<clipPath
   id="SVGID_52_">
							<use
   xlink:href="#SVGID_51_"
   style="overflow:visible"
   id="use191393" />
						</clipPath>
						<path
   id="path163265"
   class="st25"
   d="m 336.8,531.2 h 0.6 0.6 l 0.6,0.1 h 0.6 0.6 0.6 0.6 0.6 0.6 0.6 0.6 l 0.6,0.1 h 0.6 0.6 0.6 0.6 0.6 0.6 0.6 0.6 0.6 0.6 0.6 0.6 0.6 0.6 0.6 0.6 0.6 0.6 0.6 0.6 0.6 0.6 0.6 0.6 0.7"
   clip-path="url(#SVGID_52_)" />
					</g>
					<g
   id="g191406">
						<defs
   id="defs191400">
							<rect
   id="SVGID_53_"
   x="247.3"
   y="463.89999"
   width="141.7"
   height="121.1" />
						</defs>
						<clipPath
   id="SVGID_54_">
							<use
   xlink:href="#SVGID_53_"
   style="overflow:visible"
   id="use191402" />
						</clipPath>
						<path
   id="path163267"
   class="st26"
   d="m 356.5,530 0.5,0.3 0.5,0.3 0.5,0.3 0.8,0.4 h -0.6 l -0.5,0.2 -0.5,0.2 -0.8,0.4 0.4,-0.4 v -0.6 -1.2 h -0.3 z"
   clip-path="url(#SVGID_54_)" />
					</g>
					<g
   id="g191415">
						<defs
   id="defs191409">
							<rect
   id="SVGID_55_"
   x="247.3"
   y="463.89999"
   width="141.7"
   height="121.1" />
						</defs>
						<clipPath
   id="SVGID_56_">
							<use
   xlink:href="#SVGID_55_"
   style="overflow:visible"
   id="use191411" />
						</clipPath>
						<path
   id="path163269"
   class="st27"
   d="m 356.5,530 0.5,0.3 0.5,0.3 0.5,0.3 0.8,0.4 h -0.6 l -0.5,0.2 -0.5,0.2 -0.8,0.4 0.4,-0.4 v -0.6 -1.2 h -0.3 z"
   clip-path="url(#SVGID_56_)" />
					</g>
					<g
   id="g191424">
						<defs
   id="defs191418">
							<rect
   id="SVGID_57_"
   x="247.3"
   y="463.89999"
   width="141.7"
   height="121.1" />
						</defs>
						<clipPath
   id="SVGID_58_">
							<use
   xlink:href="#SVGID_57_"
   style="overflow:visible"
   id="use191420" />
						</clipPath>
						<path
   id="path163271"
   class="st28"
   d="m 356.1,557.1 -1.2,-0.6 v 1.2 z"
   clip-path="url(#SVGID_58_)" />
					</g>
					<g
   id="g191433">
						<defs
   id="defs191427">
							<rect
   id="SVGID_59_"
   x="247.3"
   y="463.89999"
   width="141.7"
   height="121.1" />
						</defs>
						<clipPath
   id="SVGID_60_">
							<use
   xlink:href="#SVGID_59_"
   style="overflow:visible"
   id="use191429" />
						</clipPath>
						<path
   id="path163273"
   class="st29"
   d="m 352,575.6 -1.2,-0.6 v 1.2 z"
   clip-path="url(#SVGID_60_)" />
					</g>
					<g
   id="g191442">
						<defs
   id="defs191436">
							<rect
   id="SVGID_61_"
   x="247.3"
   y="463.89999"
   width="141.7"
   height="121.1" />
						</defs>
						<clipPath
   id="SVGID_62_">
							<use
   xlink:href="#SVGID_61_"
   style="overflow:visible"
   id="use191438" />
						</clipPath>
						<path
   id="path163275"
   class="st30"
   d="m 349.8,583.7 -1.2,-0.6 v 1.2 z"
   clip-path="url(#SVGID_62_)" />
					</g>
					<g
   id="g191451">
						<defs
   id="defs191445">
							<rect
   id="SVGID_63_"
   x="247.3"
   y="463.89999"
   width="141.7"
   height="121.1" />
						</defs>
						<clipPath
   id="SVGID_64_">
							<use
   xlink:href="#SVGID_63_"
   style="overflow:visible"
   id="use191447" />
						</clipPath>
						<path
   id="path163277"
   class="st31"
   d="m 350.1,582.7 -1.2,-0.6 v 1.2 z"
   clip-path="url(#SVGID_64_)" />
					</g>
					<g
   id="g191460">
						<defs
   id="defs191454">
							<rect
   id="SVGID_65_"
   x="247.3"
   y="463.89999"
   width="141.7"
   height="121.1" />
						</defs>
						<clipPath
   id="SVGID_66_">
							<use
   xlink:href="#SVGID_65_"
   style="overflow:visible"
   id="use191456" />
						</clipPath>
						<path
   id="path163279"
   class="st32"
   d="m 354.4,565.5 -1.2,-0.6 v 1.2 z"
   clip-path="url(#SVGID_66_)" />
					</g>
					<g
   id="g191469">
						<defs
   id="defs191463">
							<rect
   id="SVGID_67_"
   x="247.3"
   y="463.89999"
   width="141.7"
   height="121.1" />
						</defs>
						<clipPath
   id="SVGID_68_">
							<use
   xlink:href="#SVGID_67_"
   style="overflow:visible"
   id="use191465" />
						</clipPath>
						<path
   id="path163281"
   class="st33"
   d="m 352.8,572.4 -1.2,-0.6 v 1.2 z"
   clip-path="url(#SVGID_68_)" />
					</g>
					<g
   id="g191478">
						<defs
   id="defs191472">
							<rect
   id="SVGID_69_"
   x="247.3"
   y="463.89999"
   width="141.7"
   height="121.1" />
						</defs>
						<clipPath
   id="SVGID_70_">
							<use
   xlink:href="#SVGID_69_"
   style="overflow:visible"
   id="use191474" />
						</clipPath>
						<path
   id="path163283"
   class="st34"
   d="m 358.5,542.3 -1.2,-0.6 v 1.2 z"
   clip-path="url(#SVGID_70_)" />
					</g>
					<g
   id="g191487">
						<defs
   id="defs191481">
							<rect
   id="SVGID_71_"
   x="247.3"
   y="463.89999"
   width="141.7"
   height="121.1" />
						</defs>
						<clipPath
   id="SVGID_72_">
							<use
   xlink:href="#SVGID_71_"
   style="overflow:visible"
   id="use191483" />
						</clipPath>
						<path
   id="path163285"
   class="st35"
   d="m 352.2,574.9 -1.2,-0.6 v 1.2 z"
   clip-path="url(#SVGID_72_)" />
					</g>
					<g
   id="g191496">
						<defs
   id="defs191490">
							<rect
   id="SVGID_73_"
   x="247.3"
   y="463.89999"
   width="141.7"
   height="121.1" />
						</defs>
						<clipPath
   id="SVGID_74_">
							<use
   xlink:href="#SVGID_73_"
   style="overflow:visible"
   id="use191492" />
						</clipPath>
						<path
   id="path163287"
   class="st36"
   d="m 351.1,579.4 -1.2,-0.6 v 1.2 z"
   clip-path="url(#SVGID_74_)" />
					</g>
					<g
   id="g191505">
						<defs
   id="defs191499">
							<rect
   id="SVGID_75_"
   x="247.3"
   y="463.89999"
   width="141.7"
   height="121.1" />
						</defs>
						<clipPath
   id="SVGID_76_">
							<use
   xlink:href="#SVGID_75_"
   style="overflow:visible"
   id="use191501" />
						</clipPath>
						<path
   id="path163289"
   class="st37"
   d="m 353.5,569.7 -1.2,-0.6 v 1.2 z"
   clip-path="url(#SVGID_76_)" />
					</g>
					<g
   id="g191514">
						<defs
   id="defs191508">
							<rect
   id="SVGID_77_"
   x="247.3"
   y="463.89999"
   width="141.7"
   height="121.1" />
						</defs>
						<clipPath
   id="SVGID_78_">
							<use
   xlink:href="#SVGID_77_"
   style="overflow:visible"
   id="use191510" />
						</clipPath>
						<path
   id="path163291"
   class="st38"
   d="m 283.4,552.2 1.2,0.6 v -1.2 z"
   clip-path="url(#SVGID_78_)" />
					</g>
					<g
   id="g191523">
						<defs
   id="defs191517">
							<rect
   id="SVGID_79_"
   x="247.3"
   y="463.89999"
   width="141.7"
   height="121.1" />
						</defs>
						<clipPath
   id="SVGID_80_">
							<use
   xlink:href="#SVGID_79_"
   style="overflow:visible"
   id="use191519" />
						</clipPath>
						<path
   id="path163293"
   class="st39"
   d="m 283.4,569.2 1.2,0.6 v -1.2 z"
   clip-path="url(#SVGID_80_)" />
					</g>
					<g
   id="g191532">
						<defs
   id="defs191526">
							<rect
   id="SVGID_81_"
   x="247.3"
   y="463.89999"
   width="141.7"
   height="121.1" />
						</defs>
						<clipPath
   id="SVGID_82_">
							<use
   xlink:href="#SVGID_81_"
   style="overflow:visible"
   id="use191528" />
						</clipPath>
						<path
   id="path163295"
   class="st40"
   d="m 283.4,539.3 1.2,0.6 v -1.2 z"
   clip-path="url(#SVGID_82_)" />
					</g>
					<g
   id="g191541">
						<defs
   id="defs191535">
							<rect
   id="SVGID_83_"
   x="247.3"
   y="463.89999"
   width="141.7"
   height="121.1" />
						</defs>
						<clipPath
   id="SVGID_84_">
							<use
   xlink:href="#SVGID_83_"
   style="overflow:visible"
   id="use191537" />
						</clipPath>
						<path
   id="path163297"
   class="st41"
   d="m 283.4,573.4 1.2,0.6 v -1.2 z"
   clip-path="url(#SVGID_84_)" />
					</g>
					<g
   id="g191550">
						<defs
   id="defs191544">
							<rect
   id="SVGID_85_"
   x="247.3"
   y="463.89999"
   width="141.7"
   height="121.1" />
						</defs>
						<clipPath
   id="SVGID_86_">
							<use
   xlink:href="#SVGID_85_"
   style="overflow:visible"
   id="use191546" />
						</clipPath>
						<path
   id="path163299"
   class="st42"
   d="m 283.4,553.7 1.2,0.6 v -1.2 z"
   clip-path="url(#SVGID_86_)" />
					</g>
					<g
   id="g191559">
						<defs
   id="defs191553">
							<rect
   id="SVGID_87_"
   x="247.3"
   y="463.89999"
   width="141.7"
   height="121.1" />
						</defs>
						<clipPath
   id="SVGID_88_">
							<use
   xlink:href="#SVGID_87_"
   style="overflow:visible"
   id="use191555" />
						</clipPath>
						<path
   id="path163301"
   class="st43"
   d="m 283.4,552 1.2,0.6 v -1.2 z"
   clip-path="url(#SVGID_88_)" />
					</g>
					<g
   id="g191568">
						<defs
   id="defs191562">
							<rect
   id="SVGID_89_"
   x="247.3"
   y="463.89999"
   width="141.7"
   height="121.1" />
						</defs>
						<clipPath
   id="SVGID_90_">
							<use
   xlink:href="#SVGID_89_"
   style="overflow:visible"
   id="use191564" />
						</clipPath>
						<path
   id="path163303"
   class="st44"
   d="m 283.4,552.7 1.2,0.6 v -1.2 z"
   clip-path="url(#SVGID_90_)" />
					</g>
					<g
   id="g191577">
						<defs
   id="defs191571">
							<rect
   id="SVGID_91_"
   x="247.3"
   y="463.89999"
   width="141.7"
   height="121.1" />
						</defs>
						<clipPath
   id="SVGID_92_">
							<use
   xlink:href="#SVGID_91_"
   style="overflow:visible"
   id="use191573" />
						</clipPath>
						<path
   id="path163305"
   class="st45"
   d="m 283.4,576.5 1.2,0.6 v -1.2 z"
   clip-path="url(#SVGID_92_)" />
					</g>
					<g
   id="g191586">
						<defs
   id="defs191580">
							<rect
   id="SVGID_93_"
   x="247.3"
   y="463.89999"
   width="141.7"
   height="121.1" />
						</defs>
						<clipPath
   id="SVGID_94_">
							<use
   xlink:href="#SVGID_93_"
   style="overflow:visible"
   id="use191582" />
						</clipPath>
						<path
   id="path163307"
   class="st46"
   d="m 283.4,584.6 1.2,0.6 V 584 Z"
   clip-path="url(#SVGID_94_)" />
					</g>
					<g
   id="g191595">
						<defs
   id="defs191589">
							<rect
   id="SVGID_95_"
   x="247.3"
   y="463.89999"
   width="141.7"
   height="121.1" />
						</defs>
						<clipPath
   id="SVGID_96_">
							<use
   xlink:href="#SVGID_95_"
   style="overflow:visible"
   id="use191591" />
						</clipPath>
						<path
   id="path163309"
   class="st47"
   d="m 283.4,535.1 1.2,0.6 v -1.2 z"
   clip-path="url(#SVGID_96_)" />
					</g>
				</g>
			</g>
			<g
   id="PolyCollection_1_3_">
				<g
   id="g191606">
					<defs
   id="defs191600">
						<rect
   id="SVGID_97_"
   x="247.3"
   y="463.89999"
   width="141.7"
   height="121.1" />
					</defs>
					<clipPath
   id="SVGID_98_">
						<use
   xlink:href="#SVGID_97_"
   style="overflow:visible"
   id="use191602" />
					</clipPath>
					<path
   id="path162937"
   class="st48"
   d="m 321.7,463.9 h -7 v 24.2 h -14 v 43.1 h 34.9 v 0 -43.1 h -14 v -24.2 z"
   clip-path="url(#SVGID_98_)" />
				</g>
			</g>
			<g
   id="PolyCollection_2_3_">
				<g
   id="g191616">
					<defs
   id="defs191610">
						<rect
   id="SVGID_99_"
   x="247.3"
   y="463.89999"
   width="141.7"
   height="121.1" />
					</defs>
					<clipPath
   id="SVGID_100_">
						<use
   xlink:href="#SVGID_99_"
   style="overflow:visible"
   id="use191612" />
					</clipPath>
					<path
   id="path162943"
   class="st49"
   d="M 282.5,531.2 H 254.6 V 585 h 27.9 v 0 z"
   clip-path="url(#SVGID_100_)" />
				</g>
			</g>
			<g
   id="PolyCollection_3_3_">
				<g
   id="g191626">
					<defs
   id="defs191620">
						<rect
   id="SVGID_101_"
   x="247.3"
   y="463.89999"
   width="141.7"
   height="121.1" />
					</defs>
					<clipPath
   id="SVGID_102_">
						<use
   xlink:href="#SVGID_101_"
   style="overflow:visible"
   id="use191622" />
					</clipPath>
					<path
   id="path162949"
   class="st50"
   d="m 374.7,531.2 h -14 l -0.1,0.5 -0.1,0.5 -0.1,0.5 -0.1,0.5 -0.1,0.5 -0.1,0.5 -0.1,0.5 -0.1,0.5 -0.1,0.5 -0.1,0.5 -0.1,0.5 -0.1,0.5 -0.1,0.5 -0.1,0.5 -0.1,0.5 -0.1,0.5 -0.1,0.5 -0.1,0.5 -0.1,0.5 -0.1,0.5 -0.1,0.5 -0.1,0.5 -0.1,0.5 -0.1,0.5 -0.1,0.5 -0.1,0.5 -0.1,0.5 -0.1,0.5 -0.1,0.5 -0.1,0.5 -0.1,0.5 -0.1,0.5 -0.1,0.5 -0.1,0.5 -0.1,0.5 -0.1,0.5 -0.1,0.5 -0.1,0.5 -0.1,0.5 -0.1,0.5 -0.1,0.5 -0.1,0.5 -0.1,0.5 -0.1,0.5 -0.1,0.5 -0.1,0.5 -0.1,0.5 -0.1,0.5 -0.1,0.5 -0.1,0.5 -0.1,0.5 -0.1,0.5 -0.1,0.5 -0.1,0.5 -0.1,0.5 -0.1,0.5 -0.1,0.5 -0.1,0.5 -0.1,0.5 -0.1,0.5 -0.1,0.5 -0.1,0.5 -0.1,0.5 -0.1,0.5 -0.1,0.5 -0.1,0.5 -0.1,0.5 -0.1,0.5 -0.1,0.5 -0.1,0.5 -0.1,0.5 -0.1,0.5 -0.1,0.5 -0.1,0.5 -0.1,0.5 -0.1,0.5 -0.1,0.5 -0.1,0.5 -0.1,0.5 -0.1,0.5 -0.1,0.5 -0.1,0.5 -0.1,0.5 -0.1,0.5 -0.1,0.5 -0.1,0.5 -0.1,0.5 v 4.3 l -0.1,0.5 -0.1,0.5 -0.1,0.5 -0.2,0.5 -0.2,0.5 -0.2,0.5 -0.2,0.5 -0.2,0.5 -0.2,0.5 -0.2,0.5 -0.2,0.5 H 385 v 0 l -0.2,-0.5 -0.2,-0.5 -0.2,-0.5 -0.2,-0.5 -0.2,-0.5 -0.2,-0.5 -0.2,-0.5 -0.2,-0.5 -0.1,-0.5 -0.1,-0.5 -0.1,-0.5 -0.1,-0.5 -0.1,-0.5 -0.1,-0.5 -0.1,-0.5 -0.1,-0.5 -0.1,-0.5 -0.1,-0.5 -0.1,-0.5 -0.1,-0.5 -0.1,-0.5 -0.1,-0.5 -0.1,-0.5 -0.1,-0.5 -0.1,-0.5 -0.1,-0.5 -0.1,-0.5 -0.1,-0.5 -0.1,-0.5 -0.1,-0.5 -0.1,-0.5 -0.1,-0.5 -0.1,-0.5 -0.1,-0.5 -0.1,-0.5 -0.1,-0.5 -0.1,-0.5 -0.1,-0.5 -0.1,-0.5 -0.1,-0.5 -0.1,-0.5 -0.1,-0.5 -0.1,-0.5 -0.1,-0.5 -0.1,-0.5 -0.1,-0.5 -0.1,-0.5 -0.1,-0.5 -0.1,-0.5 -0.1,-0.5 -0.1,-0.5 -0.1,-0.5 -0.1,-0.5 -0.1,-0.5 -0.1,-0.5 -0.1,-0.5 -0.1,-0.5 -0.1,-0.5 -0.1,-0.5 -0.1,-0.5 -0.1,-0.5 -0.1,-0.5 -0.1,-0.5 -0.1,-0.5 -0.1,-0.5 -0.1,-0.5 -0.1,-0.5 -0.1,-0.5 -0.1,-0.5 -0.1,-0.5 -0.1,-0.5 -0.1,-0.5 -0.1,-0.5 -0.1,-0.5 -0.1,-0.5 -0.1,-0.5 -0.1,-0.5 -0.1,-0.5 -0.1,-0.5 -0.1,-0.5 -0.2,-3.5 -0.1,-0.5 -0.1,-0.5 -0.1,-0.5 -0.1,-0.5 -0.1,-0.5 -0.1,-0.5 -0.1,-0.5 -0.1,-0.5 -0.1,-0.5 -0.1,-0.5 -0.1,-0.5 -0.1,-0.5 -0.1,-0.5 -0.1,-0.5 -0.1,-0.5 -0.1,-0.5 -0.1,-0.5 z"
   clip-path="url(#SVGID_102_)" />
				</g>
			</g>
		</g>
	</g>
</g>
<g
   id="Layer_4">
	<g
   id="g191636">
		<g
   id="g191634">
			<path
   d="m 51.1,529.8 c 0.1,-11.7 0.3,-23.3 0.4,-35 0.1,-5.5 0.1,-11 0.2,-16.5 0.1,-5.6 -0.4,-11.6 1.6,-17 -1.3,0 -2.6,0 -3.9,0 2.2,11.5 6.6,22.3 13,32 0.9,1.4 3.1,1.2 3.7,-0.5 3.4,-11.1 7,-22.2 10.8,-33.2 -1.2,0.2 -2.4,0.3 -3.7,0.5 3,4.8 3.6,10.1 4.1,15.6 0.5,5.8 1,11.6 1.5,17.5 1,11.6 2,23.3 3,34.9 0.2,2.5 4.2,2.6 4,0 -1.1,-12.9 -2.2,-25.9 -3.3,-38.8 -0.9,-10.1 -0.2,-22.3 -5.8,-31.2 -1,-1.5 -3.1,-1.1 -3.7,0.5 -3.8,11 -7.4,22.1 -10.8,33.2 1.2,-0.2 2.4,-0.3 3.7,-0.5 -6.3,-9.5 -10.5,-19.9 -12.6,-31.1 -0.4,-2.1 -3.2,-1.6 -3.9,0 -1.8,4.6 -1.7,9.4 -1.7,14.2 -0.1,6.2 -0.2,12.3 -0.2,18.5 -0.2,12.3 -0.3,24.6 -0.5,36.9 0,2.6 4,2.6 4.1,0 z"
   id="path191632" />
		</g>
	</g>
	<g
   id="g191642">
		<g
   id="g191640">
			<path
   d="m 88.9,513 c -0.8,6.8 1,14.9 8.4,17.2 7,2.2 12.1,-3.8 13.7,-10.1 1.4,-5.3 0.8,-14.6 -5.6,-16.7 -7.3,-2.4 -12.8,6.2 -15.6,11.4 -1.2,2.3 2.2,4.3 3.5,2 1.8,-3.4 4.3,-8.7 8.5,-9.6 6.3,-1.3 6.2,8.1 5.3,11.7 -1.1,4.5 -4.9,9.7 -10,6.7 -4.6,-2.6 -4.7,-8.2 -4.2,-12.8 0.3,-2.4 -3.8,-2.4 -4,0.2 z"
   id="path191638" />
		</g>
	</g>
	<g
   id="g191648">
		<g
   id="g191646">
			<path
   d="m 132.5,511.8 c 0.5,-3.2 -0.2,-7.1 -3.6,-8.4 -3.5,-1.3 -7.7,2.3 -10.3,4 -3.9,2.5 -3.1,6.8 -3.2,11 0,4 -0.1,8.9 4.4,10.7 10.2,4 13.6,-11.1 15.1,-17.6 3.1,-13.8 3.8,-28 4.5,-42.1 -1.3,0 -2.7,0 -4,0 -0.8,17.5 -1.5,35.1 -2.3,52.6 -0.1,2.6 3.9,2.6 4,0 0.8,-17.5 1.5,-35.1 2.3,-52.6 0.1,-2.6 -3.9,-2.6 -4,0 -0.7,13.7 -1.3,27.6 -4.3,41.1 -0.7,2.9 -1.4,5.9 -2.4,8.8 -0.6,1.8 -1.3,3.5 -2.8,4.7 -3,2.4 -6.1,-0.5 -6.5,-3.8 -0.4,-3.2 -0.4,-7.6 2.2,-9.7 1.1,-0.9 7.9,-4.8 7.1,0.3 -0.4,2.4 3.4,3.5 3.8,1 z"
   id="path191644" />
		</g>
	</g>
	<g
   id="g191654">
		<g
   id="g191652">
			<path
   d="m 132.5,514.7 c 0.4,4.5 0.8,9 1.3,13.5 0.2,2.5 4.2,2.6 4,0 -0.4,-4.5 -0.8,-9 -1.3,-13.5 -0.2,-2.6 -4.2,-2.6 -4,0 z"
   id="path191650" />
		</g>
	</g>
	<g
   id="g191660">
		<g
   id="g191658">
			<path
   d="m 142.4,519.8 c 4.7,-1.6 16.6,-3.9 16.4,-10.8 -0.2,-6.8 -8.7,-6.8 -12.3,-2.9 -3.9,4.2 -6.1,13.3 -3,18.5 3.4,5.6 12.7,4.9 17.7,2.2 2.3,-1.2 0.2,-4.7 -2,-3.5 -2.4,1.3 -7.2,2 -9.9,1 -4.5,-1.6 -3.2,-7.2 -2.2,-10.6 0.4,-1.5 0.8,-3.5 2.1,-4.5 1.1,-1.9 2.4,-1.3 4.1,2 -0.7,0.4 -1.3,0.7 -2.1,1 -3.1,1.4 -6.5,2.5 -9.7,3.6 -2.6,1 -1.5,4.8 0.9,4 z"
   id="path191656" />
		</g>
	</g>
	<g
   id="g191666">
		<g
   id="g191664">
			<path
   d="m 162.7,466.8 c 0.5,20.6 1.6,41.3 3.4,61.8 0.2,2.5 4.2,2.6 4,0 -1.8,-20.6 -2.9,-41.2 -3.4,-61.8 -0.1,-2.5 -4.1,-2.5 -4,0 z"
   id="path191662" />
		</g>
	</g>
	<g
   id="g191672">
		<g
   id="g191670">
			<path
   d="m 211.6,473.6 c -4.7,8.9 -9.4,17.8 -14.1,26.7 -0.6,1.1 -0.1,2.7 1.2,2.9 6.9,1.4 13.9,2 20.9,1.5 0.9,-0.1 1.7,-0.6 1.9,-1.5 1.4,-5.7 2,-11.3 1.9,-17.2 -0.1,-2.1 -3.6,-2.9 -3.9,-0.5 -1.9,13.9 -2.9,27.9 -3,42 0,2.6 4,2.6 4,0 0.1,-13.7 1,-27.4 2.9,-41 -1.3,-0.2 -2.6,-0.4 -3.9,-0.5 0.2,5.5 -0.4,10.8 -1.7,16.1 0.6,-0.5 1.3,-1 1.9,-1.5 -6.7,0.4 -13.3,0 -19.9,-1.4 0.4,1 0.8,2 1.2,2.9 4.7,-8.9 9.4,-17.8 14.1,-26.7 1.2,-2.1 -2.3,-4.1 -3.5,-1.8 z"
   id="path191668" />
		</g>
	</g>
</g>
</svg>
