<?xml version="1.0" encoding="UTF-8" standalone="no"?>
<!-- Generator: Adobe Illustrator 23.0.3, SVG Export Plug-In . SVG Version: 6.00 Build 0)  -->

<svg
   version="1.1"
   x="0px"
   y="0px"
   viewBox="0 0 1400 623.6"
   xml:space="preserve"
   id="svg192531"
   sodipodi:docname="models_5.svg"
   width="1400"
   height="623.59998"
   inkscape:version="1.2.2 (1:1.2.2+202212051552+b0a8486541)"
   xmlns:inkscape="http://www.inkscape.org/namespaces/inkscape"
   xmlns:sodipodi="http://sodipodi.sourceforge.net/DTD/sodipodi-0.dtd"
   xmlns="http://www.w3.org/2000/svg"
   xmlns:svg="http://www.w3.org/2000/svg"><defs
   id="defs192535" /><sodipodi:namedview
   id="namedview192533"
   pagecolor="#ffffff"
   bordercolor="#000000"
   borderopacity="0.25"
   inkscape:showpageshadow="2"
   inkscape:pageopacity="0.0"
   inkscape:pagecheckerboard="0"
   inkscape:deskcolor="#d1d1d1"
   showgrid="false"
   inkscape:zoom="0.37844774"
   inkscape:cx="603.78218"
   inkscape:cy="311.79999"
   inkscape:window-width="1221"
   inkscape:window-height="778"
   inkscape:window-x="59"
   inkscape:window-y="22"
   inkscape:window-maximized="1"
   inkscape:current-layer="svg192531" />
<g
   id="Layer_2">
</g>
<g
   id="Layer_3">
</g>
<g
   id="Layer_1">
	<g
   id="Слой_8">
	</g>
	<g
   id="Слой_16">
	</g>
	<g
   id="Time_scale">
	</g>
	<g
   id="Now_line">
	</g>
	<g
   id="Слой_10">
	</g>
	<g
   id="Слой_9">
	</g>
</g>
<g
   id="Layer_4">
	<g
   id="g192522">
		<g
   id="g192520">
			<path
   d="m 33.4,19.8 c -7.8,0.1 -15.1,1.7 -22.2,4.8 -0.6,0.3 -1,1.1 -1,1.7 C 10.1,101.1 10,175.9 9.9,250.6 9.8,325.1 9.7,399.5 9.6,474 c 0,42.2 -0.1,84.4 -0.1,126.6 0,1.3 1.3,2.2 2.5,1.9 7.5,-1.8 15,-3.5 22.4,-5.3 2.5,-0.6 1.4,-4.4 -1.1,-3.9 -7.5,1.8 -15,3.5 -22.4,5.3 0.8,0.6 1.7,1.3 2.5,1.9 0.1,-77.1 0.2,-154.2 0.3,-231.3 0.1,-76.8 0.2,-153.5 0.3,-230.3 0,-21.6 0,-43.2 0.1,-64.8 0,-11 0,-21.9 0,-32.9 0,-2.7 0,-5.3 0,-8 0,-3.3 -0.7,-5.2 2.8,-6.7 5,-2.2 11.1,-2.7 16.5,-2.7 2.5,0 2.6,-4 0,-4 z"
   id="path192518" />
		</g>
	</g>
	<g
   id="g192528">
		<g
   id="g192526">
			<path
   d="m 384.1,22.9 c 7.6,-2 15.1,-2.5 22.9,-1.3 -0.5,-0.6 -1,-1.3 -1.5,-1.9 3.2,76.9 5.4,153.7 3.3,230.6 -2.1,76.4 -6.4,152.7 -4.5,229.1 1,42.3 4.1,84.6 10.3,126.5 0.6,-0.8 1.3,-1.7 1.9,-2.5 -10.2,0.2 -20.5,0.4 -30.7,0.6 -2.6,0.1 -2.6,4.1 0,4 10.2,-0.2 20.5,-0.4 30.7,-0.6 1.4,0 2.1,-1.2 1.9,-2.5 -11.2,-75.3 -11.7,-151.6 -9.7,-227.6 2,-76 5.9,-151.9 4.9,-227.9 -0.6,-43.2 -2.3,-86.5 -4.1,-129.7 0,-0.8 -0.6,-1.8 -1.5,-1.9 -8.5,-1.3 -16.7,-0.8 -25,1.3 -2.5,0.6 -1.4,4.4 1.1,3.8 z"
   id="path192524" />
		</g>
	</g>
</g>
</svg>
