<?xml version="1.0" encoding="UTF-8" standalone="no"?>
<!-- Generator: Adobe Illustrator 23.0.3, SVG Export Plug-In . SVG Version: 6.00 Build 0)  -->

<svg
   version="1.1"
   x="0px"
   y="0px"
   viewBox="0 0 1400 623.6"
   xml:space="preserve"
   id="svg188253"
   sodipodi:docname="models_1.svg"
   width="1400"
   height="623.59998"
   inkscape:version="1.2.2 (1:1.2.2+202212051552+b0a8486541)"
   xmlns:inkscape="http://www.inkscape.org/namespaces/inkscape"
   xmlns:sodipodi="http://sodipodi.sourceforge.net/DTD/sodipodi-0.dtd"
   xmlns:xlink="http://www.w3.org/1999/xlink"
   xmlns="http://www.w3.org/2000/svg"
   xmlns:svg="http://www.w3.org/2000/svg"><defs
   id="defs188257" /><sodipodi:namedview
   id="namedview188255"
   pagecolor="#ffffff"
   bordercolor="#000000"
   borderopacity="0.25"
   inkscape:showpageshadow="2"
   inkscape:pageopacity="0.0"
   inkscape:pagecheckerboard="0"
   inkscape:deskcolor="#d1d1d1"
   showgrid="false"
   inkscape:zoom="0.37844774"
   inkscape:cx="580.00082"
   inkscape:cy="290.66101"
   inkscape:window-width="1221"
   inkscape:window-height="778"
   inkscape:window-x="59"
   inkscape:window-y="22"
   inkscape:window-maximized="1"
   inkscape:current-layer="svg188253" />
<style
   type="text/css"
   id="style187764">
	
		.st0{clip-path:url(#SVGID_2_);fill:none;stroke:#FF7F0E;stroke-width:0.2;stroke-linecap:square;stroke-linejoin:round;stroke-opacity:0.5;}
	
		.st1{clip-path:url(#SVGID_4_);fill:none;stroke:#FF7F0E;stroke-width:0.2;stroke-linecap:square;stroke-linejoin:round;stroke-opacity:0.5;}
	
		.st2{clip-path:url(#SVGID_6_);fill:none;stroke:#FF7F0E;stroke-width:0.2;stroke-linecap:square;stroke-linejoin:round;stroke-opacity:0.5;}
	
		.st3{clip-path:url(#SVGID_8_);fill:none;stroke:#FF7F0E;stroke-width:0.2;stroke-linecap:square;stroke-linejoin:round;stroke-opacity:0.5;}
	
		.st4{clip-path:url(#SVGID_10_);fill:none;stroke:#FF7F0E;stroke-width:0.2;stroke-linecap:square;stroke-linejoin:round;stroke-opacity:0.5;}
	
		.st5{clip-path:url(#SVGID_12_);fill:none;stroke:#FF7F0E;stroke-width:0.2;stroke-linecap:square;stroke-linejoin:round;stroke-opacity:0.5;}
	
		.st6{clip-path:url(#SVGID_14_);fill:none;stroke:#FF7F0E;stroke-width:0.2;stroke-linecap:square;stroke-linejoin:round;stroke-opacity:0.5;}
	
		.st7{clip-path:url(#SVGID_16_);fill:none;stroke:#FF7F0E;stroke-width:0.2;stroke-linecap:square;stroke-linejoin:round;stroke-opacity:0.5;}
	
		.st8{clip-path:url(#SVGID_18_);fill:none;stroke:#FF7F0E;stroke-width:0.2;stroke-linecap:square;stroke-linejoin:round;stroke-opacity:0.5;}
	
		.st9{clip-path:url(#SVGID_20_);fill:none;stroke:#FF7F0E;stroke-width:0.2;stroke-linecap:square;stroke-linejoin:round;stroke-opacity:0.5;}
	
		.st10{clip-path:url(#SVGID_22_);fill:none;stroke:#2CA02C;stroke-width:0.2;stroke-linecap:square;stroke-linejoin:round;stroke-opacity:0.5;}
	
		.st11{clip-path:url(#SVGID_24_);fill:none;stroke:#2CA02C;stroke-width:0.2;stroke-linecap:square;stroke-linejoin:round;stroke-opacity:0.5;}
	
		.st12{clip-path:url(#SVGID_26_);fill:none;stroke:#2CA02C;stroke-width:0.2;stroke-linecap:square;stroke-linejoin:round;stroke-opacity:0.5;}
	
		.st13{clip-path:url(#SVGID_28_);fill:none;stroke:#2CA02C;stroke-width:0.2;stroke-linecap:square;stroke-linejoin:round;stroke-opacity:0.5;}
	
		.st14{clip-path:url(#SVGID_30_);fill:none;stroke:#2CA02C;stroke-width:0.2;stroke-linecap:square;stroke-linejoin:round;stroke-opacity:0.5;}
	
		.st15{clip-path:url(#SVGID_32_);fill:none;stroke:#2CA02C;stroke-width:0.2;stroke-linecap:square;stroke-linejoin:round;stroke-opacity:0.5;}
	
		.st16{clip-path:url(#SVGID_34_);fill:none;stroke:#2CA02C;stroke-width:0.2;stroke-linecap:square;stroke-linejoin:round;stroke-opacity:0.5;}
	
		.st17{clip-path:url(#SVGID_36_);fill:none;stroke:#2CA02C;stroke-width:0.2;stroke-linecap:square;stroke-linejoin:round;stroke-opacity:0.5;}
	
		.st18{clip-path:url(#SVGID_38_);fill:none;stroke:#2CA02C;stroke-width:0.2;stroke-linecap:square;stroke-linejoin:round;stroke-opacity:0.5;}
	
		.st19{clip-path:url(#SVGID_40_);fill:none;stroke:#2CA02C;stroke-width:0.2;stroke-linecap:square;stroke-linejoin:round;stroke-opacity:0.5;}
	.st20{clip-path:url(#SVGID_42_);fill:none;stroke:#FFFFFF;stroke-width:3;stroke-linecap:round;stroke-linejoin:round;}
	.st21{clip-path:url(#SVGID_44_);fill:none;stroke:#1F77B4;stroke-linecap:round;stroke-linejoin:round;}
	.st22{clip-path:url(#SVGID_46_);fill:#FFFFFF;stroke:#FFFFFF;stroke-width:3;stroke-linecap:round;stroke-linejoin:round;}
	.st23{clip-path:url(#SVGID_48_);fill:#FFFFFF;stroke:#1F77B4;stroke-linecap:round;stroke-linejoin:round;}
	.st24{clip-path:url(#SVGID_50_);fill:#FF7F0E;fill-opacity:0.5;stroke:#FF7F0E;stroke-opacity:0.5;}
	.st25{clip-path:url(#SVGID_52_);fill:#FF7F0E;fill-opacity:0.5;stroke:#FF7F0E;stroke-opacity:0.5;}
	.st26{clip-path:url(#SVGID_54_);fill:#FF7F0E;fill-opacity:0.5;stroke:#FF7F0E;stroke-opacity:0.5;}
	.st27{clip-path:url(#SVGID_56_);fill:#FF7F0E;fill-opacity:0.5;stroke:#FF7F0E;stroke-opacity:0.5;}
	.st28{clip-path:url(#SVGID_58_);fill:#FF7F0E;fill-opacity:0.5;stroke:#FF7F0E;stroke-opacity:0.5;}
	.st29{clip-path:url(#SVGID_60_);fill:#FF7F0E;fill-opacity:0.5;stroke:#FF7F0E;stroke-opacity:0.5;}
	.st30{clip-path:url(#SVGID_62_);fill:#FF7F0E;fill-opacity:0.5;stroke:#FF7F0E;stroke-opacity:0.5;}
	.st31{clip-path:url(#SVGID_64_);fill:#FF7F0E;fill-opacity:0.5;stroke:#FF7F0E;stroke-opacity:0.5;}
	.st32{clip-path:url(#SVGID_66_);fill:#FF7F0E;fill-opacity:0.5;stroke:#FF7F0E;stroke-opacity:0.5;}
	.st33{clip-path:url(#SVGID_68_);fill:#FF7F0E;fill-opacity:0.5;stroke:#FF7F0E;stroke-opacity:0.5;}
	.st34{clip-path:url(#SVGID_70_);fill:#2CA02C;fill-opacity:0.5;stroke:#2CA02C;stroke-opacity:0.5;}
	.st35{clip-path:url(#SVGID_72_);fill:#2CA02C;fill-opacity:0.5;stroke:#2CA02C;stroke-opacity:0.5;}
	.st36{clip-path:url(#SVGID_74_);fill:#2CA02C;fill-opacity:0.5;stroke:#2CA02C;stroke-opacity:0.5;}
	.st37{clip-path:url(#SVGID_76_);fill:#2CA02C;fill-opacity:0.5;stroke:#2CA02C;stroke-opacity:0.5;}
	.st38{clip-path:url(#SVGID_78_);fill:#2CA02C;fill-opacity:0.5;stroke:#2CA02C;stroke-opacity:0.5;}
	.st39{clip-path:url(#SVGID_80_);fill:#2CA02C;fill-opacity:0.5;stroke:#2CA02C;stroke-opacity:0.5;}
	.st40{clip-path:url(#SVGID_82_);fill:#2CA02C;fill-opacity:0.5;stroke:#2CA02C;stroke-opacity:0.5;}
	.st41{clip-path:url(#SVGID_84_);fill:#2CA02C;fill-opacity:0.5;stroke:#2CA02C;stroke-opacity:0.5;}
	.st42{clip-path:url(#SVGID_86_);fill:#2CA02C;fill-opacity:0.5;stroke:#2CA02C;stroke-opacity:0.5;}
	.st43{clip-path:url(#SVGID_88_);fill:#2CA02C;fill-opacity:0.5;stroke:#2CA02C;stroke-opacity:0.5;}
	
		.st44{clip-path:url(#SVGID_90_);fill:#1F77B4;fill-opacity:0.2;stroke:#1E75B3;stroke-width:2;stroke-linejoin:round;stroke-dasharray:8,2;}
	
		.st45{clip-path:url(#SVGID_92_);fill:#2DA42D;fill-opacity:0.2;stroke:#2CA02C;stroke-width:2;stroke-linejoin:round;stroke-dasharray:8,2;}
	
		.st46{clip-path:url(#SVGID_94_);fill:#FF800F;fill-opacity:0.2;stroke:#FF7F0F;stroke-width:2;stroke-linejoin:round;stroke-dasharray:8,2;}
</style>
<g
   id="Layer_2">
</g>
<g
   id="Layer_3">
</g>
<g
   id="Layer_1">
	<g
   id="Слой_8">
	</g>
	<g
   id="Слой_16">
	</g>
	<g
   id="Time_scale">
	</g>
	<g
   id="Now_line">
	</g>
	<g
   id="Слой_10">
	</g>
	<g
   id="Слой_9">
	</g>
	<g
   id="figure_1">
		<g
   id="axes_1">
			<g
   id="g187781">
				<defs
   id="defs187775">
					<rect
   id="SVGID_1_"
   x="241.7"
   y="35.700001"
   width="141.7"
   height="121.1" />
				</defs>
				<clipPath
   id="SVGID_2_">
					<use
   xlink:href="#SVGID_1_"
   style="overflow:visible"
   id="use187777" />
				</clipPath>
				<path
   id="path88279"
   class="st0"
   d="m 278.4,141.9 h 0.6 0.6 l 0.6,0.1 h 0.6 0.6 0.6 0.6 0.6 0.6 0.6 0.6 l 0.6,0.1 h 0.6 0.6 0.6 0.6 0.6 0.6 0.6 0.6 0.6 0.6 0.6 0.6 0.6 0.6 0.6 0.6 0.6 0.6 0.6 0.6 0.6 0.6 0.6 0.6 0.6 0.6 0.6 0.6 L 303,142 h 0.6 l 0.6,-0.1 h 0.6 0.6 0.6 0.6 l 0.6,-0.1 h 0.6 0.6 0.6 0.6 0.6 0.6 0.6 0.6 0.6 0.6 0.6 0.6 0.6 0.6 0.6 0.6 0.6 0.6 0.6 0.6 0.6 0.6 0.6 0.6 0.6 0.6 0.6 0.6 0.6 0.6 0.6 0.6 0.6 0.6 0.6 l 0.6,0.1 h 0.6 0.6 0.6 0.6 0.6 0.6 l 0.6,0.1 h 0.6 0.6 0.6 l 0.6,0.1 h 0.6 0.6 0.6 l 0.6,0.1 h 0.6 0.6 0.6 0.6 0.6 0.6 0.6 0.6 1.1"
   clip-path="url(#SVGID_2_)" />
			</g>
			<g
   id="g187790">
				<defs
   id="defs187784">
					<rect
   id="SVGID_3_"
   x="241.7"
   y="35.700001"
   width="141.7"
   height="121.1" />
				</defs>
				<clipPath
   id="SVGID_4_">
					<use
   xlink:href="#SVGID_3_"
   style="overflow:visible"
   id="use187786" />
				</clipPath>
				<path
   id="path88281"
   class="st1"
   d="m 278.4,130.1 h 0.6 0.6 l 0.6,0.1 h 0.6 0.6 0.6 0.6 0.6 0.6 0.6 0.6 l 0.6,0.1 h 0.6 0.6 0.6 0.6 0.6 0.6 0.6 0.6 0.6 0.6 0.6 0.6 0.6 0.6 0.6 0.6 0.6 0.6 0.6 0.6 0.6 0.6 0.6 0.6 0.6 0.6 0.6 0.6 l 0.6,-0.1 h 0.6 l 0.6,-0.1 h 0.6 0.6 0.6 0.6 l 0.6,-0.1 h 0.6 0.6 0.6 0.6 0.6 0.6 0.6 0.6 0.6 0.6 0.6 0.6 0.6 0.6 0.6 0.6 0.6 0.6 0.6 0.6 0.6 0.6 0.6 0.6 0.6 0.6 0.6 0.6 0.6 0.6 0.6 0.6 0.6 0.6 0.6 l 0.6,0.1 h 0.6 0.6 0.6 0.6 0.6 0.6 l 0.6,0.1 h 0.6 0.6 0.6 l 0.6,0.1 h 0.6 0.6 0.6 l 0.6,0.1 h 0.6 0.6 0.6 0.6 0.6 0.6 0.6 0.6 1.1"
   clip-path="url(#SVGID_4_)" />
			</g>
			<g
   id="g187799">
				<defs
   id="defs187793">
					<rect
   id="SVGID_5_"
   x="241.7"
   y="35.700001"
   width="141.7"
   height="121.1" />
				</defs>
				<clipPath
   id="SVGID_6_">
					<use
   xlink:href="#SVGID_5_"
   style="overflow:visible"
   id="use187795" />
				</clipPath>
				<path
   id="path88283"
   class="st2"
   d="m 278.4,153 h 0.6 0.6 l 0.6,0.1 h 0.6 0.6 0.6 0.6 0.6 0.6 0.6 0.6 l 0.6,0.1 h 0.6 0.6 0.6 0.6 0.6 0.6 0.6 0.6 0.6 0.6 0.6 0.6 0.6 0.6 0.6 0.6 0.6 0.6 0.6 0.6 0.6 0.6 0.6 0.6 0.6 0.6 0.6 0.6 l 0.6,-0.1 h 0.6 l 0.6,-0.1 h 0.6 0.6 0.6 0.6 l 0.6,-0.1 h 0.6 0.6 0.6 0.6 0.6 0.6 0.6 0.6 0.6 0.6 0.6 0.6 0.6 0.6 0.6 0.6 0.6 0.6 0.6 0.6 0.6 0.6 0.6 0.6 0.6 0.6 0.6 0.6 0.6 0.6 0.6 0.6 0.6 0.6 0.6 l 0.6,0.1 h 0.6 0.6 0.6 0.6 0.6 0.6 l 0.6,0.1 h 0.6 0.6 0.6 l 0.6,0.1 h 0.6 0.6 0.6 l 0.6,0.1 h 0.6 0.6 0.6 0.6 0.6 0.6 0.6 0.6 1.1"
   clip-path="url(#SVGID_6_)" />
			</g>
			<g
   id="g187808">
				<defs
   id="defs187802">
					<rect
   id="SVGID_7_"
   x="241.7"
   y="35.700001"
   width="141.7"
   height="121.1" />
				</defs>
				<clipPath
   id="SVGID_8_">
					<use
   xlink:href="#SVGID_7_"
   style="overflow:visible"
   id="use187804" />
				</clipPath>
				<path
   id="path88285"
   class="st3"
   d="m 278.4,104.1 h 0.6 0.6 l 0.6,0.1 h 0.6 0.6 0.6 0.6 0.6 0.6 0.6 0.6 l 0.6,0.1 h 0.6 0.6 0.6 0.6 0.6 0.6 0.6 0.6 0.6 0.6 0.6 0.6 0.6 0.6 0.6 0.6 0.6 0.6 0.6 0.6 0.6 0.6 0.6 0.6 0.6 0.6 0.6 0.6 l 0.6,-0.1 h 0.6 l 0.6,-0.1 h 0.6 0.6 0.6 0.6 l 0.6,-0.1 h 0.6 0.6 0.6 0.6 0.6 0.6 0.6 0.6 0.6 0.6 0.6 0.6 0.6 0.6 0.6 0.6 0.6 0.6 0.6 0.6 0.6 0.6 0.6 0.6 0.6 0.6 0.6 0.6 0.6 0.6 0.6 0.6 0.6 0.6 0.6 l 0.6,0.1 h 0.6 0.6 0.6 0.6 0.6 0.6 l 0.6,0.1 h 0.6 0.6 0.6 l 0.6,0.1 h 0.6 0.6 0.6 l 0.6,0.1 h 0.6 0.6 0.6 0.6 0.6 0.6 0.6 0.6 1.1"
   clip-path="url(#SVGID_8_)" />
			</g>
			<g
   id="g187817">
				<defs
   id="defs187811">
					<rect
   id="SVGID_9_"
   x="241.7"
   y="35.700001"
   width="141.7"
   height="121.1" />
				</defs>
				<clipPath
   id="SVGID_10_">
					<use
   xlink:href="#SVGID_9_"
   style="overflow:visible"
   id="use187813" />
				</clipPath>
				<path
   id="path88287"
   class="st4"
   d="m 278.4,130.4 h 0.6 0.6 l 0.6,0.1 h 0.6 0.6 0.6 0.6 0.6 0.6 0.6 0.6 l 0.6,0.1 h 0.6 0.6 0.6 0.6 0.6 0.6 0.6 0.6 0.6 0.6 0.6 0.6 0.6 0.6 0.6 0.6 0.6 0.6 0.6 0.6 0.6 0.6 0.6 0.6 0.6 0.6 0.6 0.6 l 0.6,-0.1 h 0.6 l 0.6,-0.1 h 0.6 0.6 0.6 0.6 l 0.6,-0.1 h 0.6 0.6 0.6 0.6 0.6 0.6 0.6 0.6 0.6 0.6 0.6 0.6 0.6 0.6 0.6 0.6 0.6 0.6 0.6 0.6 0.6 0.6 0.6 0.6 0.6 0.6 0.6 0.6 0.6 0.6 0.6 0.6 0.6 0.6 0.6 l 0.6,0.1 h 0.6 0.6 0.6 0.6 0.6 0.6 l 0.6,0.1 h 0.6 0.6 0.6 l 0.6,0.1 h 0.6 0.6 0.6 l 0.6,0.1 h 0.6 0.6 0.6 0.6 0.6 0.6 0.6 0.6 1.1"
   clip-path="url(#SVGID_10_)" />
			</g>
			<g
   id="g187826">
				<defs
   id="defs187820">
					<rect
   id="SVGID_11_"
   x="241.7"
   y="35.700001"
   width="141.7"
   height="121.1" />
				</defs>
				<clipPath
   id="SVGID_12_">
					<use
   xlink:href="#SVGID_11_"
   style="overflow:visible"
   id="use187822" />
				</clipPath>
				<path
   id="path88289"
   class="st5"
   d="m 278.4,141 h 0.6 0.6 l 0.6,0.1 h 0.6 0.6 0.6 0.6 0.6 0.6 0.6 0.6 l 0.6,0.1 h 0.6 0.6 0.6 0.6 0.6 0.6 0.6 0.6 0.6 0.6 0.6 0.6 0.6 0.6 0.6 0.6 0.6 0.6 0.6 0.6 0.6 0.6 0.6 0.6 0.6 0.6 0.6 0.6 l 0.6,-0.1 h 0.6 l 0.6,-0.1 h 0.6 0.6 0.6 0.6 l 0.6,-0.1 h 0.6 0.6 0.6 0.6 0.6 0.6 0.6 0.6 0.6 0.6 0.6 0.6 0.6 0.6 0.6 0.6 0.6 0.6 0.6 0.6 0.6 0.6 0.6 0.6 0.6 0.6 0.6 0.6 0.6 0.6 0.6 0.6 0.6 0.6 0.6 l 0.6,0.1 h 0.6 0.6 0.6 0.6 0.6 0.6 l 0.6,0.1 h 0.6 0.6 0.6 l 0.6,0.1 h 0.6 0.6 0.6 l 0.6,0.1 h 0.6 0.6 0.6 0.6 0.6 0.6 0.6 0.6 1.1"
   clip-path="url(#SVGID_12_)" />
			</g>
			<g
   id="g187835">
				<defs
   id="defs187829">
					<rect
   id="SVGID_13_"
   x="241.7"
   y="35.700001"
   width="141.7"
   height="121.1" />
				</defs>
				<clipPath
   id="SVGID_14_">
					<use
   xlink:href="#SVGID_13_"
   style="overflow:visible"
   id="use187831" />
				</clipPath>
				<path
   id="path88291"
   class="st6"
   d="m 278.4,116.3 h 0.6 0.6 l 0.6,0.1 h 0.6 0.6 0.6 0.6 0.6 0.6 0.6 0.6 l 0.6,0.1 h 0.6 0.6 0.6 0.6 0.6 0.6 0.6 0.6 0.6 0.6 0.6 0.6 0.6 0.6 0.6 0.6 0.6 0.6 0.6 0.6 0.6 0.6 0.6 0.6 0.6 0.6 0.6 0.6 l 0.6,-0.1 h 0.6 l 0.6,-0.1 h 0.6 0.6 0.6 0.6 l 0.6,-0.1 h 0.6 0.6 0.6 0.6 0.6 0.6 0.6 0.6 0.6 0.6 0.6 0.6 0.6 0.6 0.6 0.6 0.6 0.6 0.6 0.6 0.6 0.6 0.6 0.6 0.6 0.6 0.6 0.6 0.6 0.6 0.6 0.6 0.6 0.6 0.6 l 0.6,0.1 h 0.6 0.6 0.6 0.6 0.6 0.6 l 0.6,0.1 h 0.6 0.6 0.6 l 0.6,0.1 h 0.6 0.6 0.6 l 0.6,0.1 h 0.6 0.6 0.6 0.6 0.6 0.6 0.6 0.6 1.1"
   clip-path="url(#SVGID_14_)" />
			</g>
			<g
   id="g187844">
				<defs
   id="defs187838">
					<rect
   id="SVGID_15_"
   x="241.7"
   y="35.700001"
   width="141.7"
   height="121.1" />
				</defs>
				<clipPath
   id="SVGID_16_">
					<use
   xlink:href="#SVGID_15_"
   style="overflow:visible"
   id="use187840" />
				</clipPath>
				<path
   id="path88293"
   class="st7"
   d="m 278.4,110.1 h 0.6 0.6 l 0.6,0.1 h 0.6 0.6 0.6 0.6 0.6 0.6 0.6 0.6 l 0.6,0.1 h 0.6 0.6 0.6 0.6 0.6 0.6 0.6 0.6 0.6 0.6 0.6 0.6 0.6 0.6 0.6 0.6 0.6 0.6 0.6 0.6 0.6 0.6 0.6 0.6 0.6 0.6 0.6 0.6 l 0.6,-0.1 h 0.6 l 0.6,-0.1 h 0.6 0.6 0.6 0.6 l 0.6,-0.1 h 0.6 0.6 0.6 0.6 0.6 0.6 0.6 0.6 0.6 0.6 0.6 0.6 0.6 0.6 0.6 0.6 0.6 0.6 0.6 0.6 0.6 0.6 0.6 0.6 0.6 0.6 0.6 0.6 0.6 0.6 0.6 0.6 0.6 0.6 0.6 l 0.6,0.1 h 0.6 0.6 0.6 0.6 0.6 0.6 l 0.6,0.1 h 0.6 0.6 0.6 l 0.6,0.1 h 0.6 0.6 0.6 l 0.6,0.1 h 0.6 0.6 0.6 0.6 0.6 0.6 0.6 0.6 1.1"
   clip-path="url(#SVGID_16_)" />
			</g>
			<g
   id="g187853">
				<defs
   id="defs187847">
					<rect
   id="SVGID_17_"
   x="241.7"
   y="35.700001"
   width="141.7"
   height="121.1" />
				</defs>
				<clipPath
   id="SVGID_18_">
					<use
   xlink:href="#SVGID_17_"
   style="overflow:visible"
   id="use187849" />
				</clipPath>
				<path
   id="path88295"
   class="st8"
   d="m 278.4,107.2 h 0.6 0.6 l 0.6,0.1 h 0.6 0.6 0.6 0.6 0.6 0.6 0.6 0.6 l 0.6,0.1 h 0.6 0.6 0.6 0.6 0.6 0.6 0.6 0.6 0.6 0.6 0.6 0.6 0.6 0.6 0.6 0.6 0.6 0.6 0.6 0.6 0.6 0.6 0.6 0.6 0.6 0.6 0.6 0.6 l 0.6,-0.1 h 0.6 l 0.6,-0.1 h 0.6 0.6 0.6 0.6 l 0.6,-0.1 h 0.6 0.6 0.6 0.6 0.6 0.6 0.6 0.6 0.6 0.6 0.6 0.6 0.6 0.6 0.6 0.6 0.6 0.6 0.6 0.6 0.6 0.6 0.6 0.6 0.6 0.6 0.6 0.6 0.6 0.6 0.6 0.6 0.6 0.6 0.6 l 0.6,0.1 h 0.6 0.6 0.6 0.6 0.6 0.6 l 0.6,0.1 h 0.6 0.6 0.6 l 0.6,0.1 h 0.6 0.6 0.6 l 0.6,0.1 h 0.6 0.6 0.6 0.6 0.6 0.6 0.6 0.6 1.1"
   clip-path="url(#SVGID_18_)" />
			</g>
			<g
   id="g187862">
				<defs
   id="defs187856">
					<rect
   id="SVGID_19_"
   x="241.7"
   y="35.700001"
   width="141.7"
   height="121.1" />
				</defs>
				<clipPath
   id="SVGID_20_">
					<use
   xlink:href="#SVGID_19_"
   style="overflow:visible"
   id="use187858" />
				</clipPath>
				<path
   id="path88297"
   class="st9"
   d="m 278.4,106.1 h 0.6 0.6 l 0.6,0.1 h 0.6 0.6 0.6 0.6 0.6 0.6 0.6 0.6 l 0.6,0.1 h 0.6 0.6 0.6 0.6 0.6 0.6 0.6 0.6 0.6 0.6 0.6 0.6 0.6 0.6 0.6 0.6 0.6 0.6 0.6 0.6 0.6 0.6 0.6 0.6 0.6 0.6 0.6 0.6 l 0.6,-0.1 h 0.6 l 0.6,-0.1 h 0.6 0.6 0.6 0.6 l 0.6,-0.1 h 0.6 0.6 0.6 0.6 0.6 0.6 0.6 0.6 0.6 0.6 0.6 0.6 0.6 0.6 0.6 0.6 0.6 0.6 0.6 0.6 0.6 0.6 0.6 0.6 0.6 0.6 0.6 0.6 0.6 0.6 0.6 0.6 0.6 0.6 0.6 l 0.6,0.1 h 0.6 0.6 0.6 0.6 0.6 0.6 l 0.6,0.1 h 0.6 0.6 0.6 l 0.6,0.1 h 0.6 0.6 0.6 l 0.6,0.1 h 0.6 0.6 0.6 0.6 0.6 0.6 0.6 0.6 1.1"
   clip-path="url(#SVGID_20_)" />
			</g>
			<g
   id="g187871">
				<defs
   id="defs187865">
					<rect
   id="SVGID_21_"
   x="241.7"
   y="35.700001"
   width="141.7"
   height="121.1" />
				</defs>
				<clipPath
   id="SVGID_22_">
					<use
   xlink:href="#SVGID_21_"
   style="overflow:visible"
   id="use187867" />
				</clipPath>
				<path
   id="path88299"
   class="st10"
   d="m 343.2,124.1 h -0.6 -0.6 l -0.6,-0.1 h -0.6 -0.6 -0.6 -0.6 -0.6 -0.6 -0.6 -0.6 l -0.6,-0.1 h -0.6 -0.6 -0.6 -0.6 -0.6 -0.6 -0.6 -0.6 -0.6 -0.6 -0.6 -0.6 -0.6 -0.6 -0.6 -0.6 -0.6 -0.6 -0.6 -0.6 -0.6 -0.6 -0.6 -0.6 -0.6 -0.6 -0.6 -0.6 l -0.6,0.1 H 318 l -0.6,0.1 h -0.6 -0.6 -0.6 -0.6 l -0.6,0.1 h -0.6 -0.6 -0.6 -0.6 -0.6 -0.6 -0.6 -0.6 -0.6 -0.6 -0.6 -0.6 -0.6 -0.6 -0.6 -0.6 -0.6 -0.6 -0.6 -0.6 -0.6 -0.6 -0.6 -0.6 -0.6 -0.6 -0.6 -0.6 -0.6 -0.6 -0.6 -0.6 -0.6 -0.6 -0.6 l -0.6,-0.1 h -0.6 -0.6 -0.6 -0.6 -0.6 -0.6 l -0.6,-0.1 h -0.6 -0.6 -0.6 l -0.6,-0.1 h -0.6 -0.6 -0.6 l -0.6,-0.1 h -0.6 -0.6 -0.6 -0.6 -0.6 -0.6 -0.6 -0.6 -1.1"
   clip-path="url(#SVGID_22_)" />
			</g>
			<g
   id="g187880">
				<defs
   id="defs187874">
					<rect
   id="SVGID_23_"
   x="241.7"
   y="35.700001"
   width="141.7"
   height="121.1" />
				</defs>
				<clipPath
   id="SVGID_24_">
					<use
   xlink:href="#SVGID_23_"
   style="overflow:visible"
   id="use187876" />
				</clipPath>
				<path
   id="path88301"
   class="st11"
   d="m 343.2,114.6 h -0.6 -0.6 l -0.6,-0.1 h -0.6 -0.6 -0.6 -0.6 -0.6 -0.6 -0.6 -0.6 l -0.6,-0.1 h -0.6 -0.6 -0.6 -0.6 -0.6 -0.6 -0.6 -0.6 -0.6 -0.6 -0.6 -0.6 -0.6 -0.6 -0.6 -0.6 -0.6 -0.6 -0.6 -0.6 -0.6 -0.6 -0.6 -0.6 -0.6 -0.6 -0.6 -0.6 l -0.6,0.1 H 318 l -0.6,0.1 h -0.6 -0.6 -0.6 -0.6 l -0.6,0.1 h -0.6 -0.6 -0.6 -0.6 -0.6 -0.6 -0.6 -0.6 -0.6 -0.6 -0.6 -0.6 -0.6 -0.6 -0.6 -0.6 -0.6 -0.6 -0.6 -0.6 -0.6 -0.6 -0.6 -0.6 -0.6 -0.6 -0.6 -0.6 -0.6 -0.6 -0.6 -0.6 -0.6 -0.6 -0.6 l -0.6,-0.1 h -0.6 -0.6 -0.6 -0.6 -0.6 -0.6 l -0.6,-0.1 h -0.6 -0.6 -0.6 l -0.6,-0.1 h -0.6 -0.6 -0.6 l -0.6,-0.1 h -0.6 -0.6 -0.6 -0.6 -0.6 -0.6 -0.6 -0.6 -1.1"
   clip-path="url(#SVGID_24_)" />
			</g>
			<g
   id="g187889">
				<defs
   id="defs187883">
					<rect
   id="SVGID_25_"
   x="241.7"
   y="35.700001"
   width="141.7"
   height="121.1" />
				</defs>
				<clipPath
   id="SVGID_26_">
					<use
   xlink:href="#SVGID_25_"
   style="overflow:visible"
   id="use187885" />
				</clipPath>
				<path
   id="path88303"
   class="st12"
   d="m 343.2,107.5 h -0.6 -0.6 l -0.6,-0.1 h -0.6 -0.6 -0.6 -0.6 -0.6 -0.6 -0.6 -0.6 l -0.6,-0.1 h -0.6 -0.6 -0.6 -0.6 -0.6 -0.6 -0.6 -0.6 -0.6 -0.6 -0.6 -0.6 -0.6 -0.6 -0.6 -0.6 -0.6 -0.6 -0.6 -0.6 -0.6 -0.6 -0.6 -0.6 -0.6 -0.6 -0.6 -0.6 l -0.6,0.1 H 318 l -0.6,0.1 h -0.6 -0.6 -0.6 -0.6 l -0.6,0.1 h -0.6 -0.6 -0.6 -0.6 -0.6 -0.6 -0.6 -0.6 -0.6 -0.6 -0.6 -0.6 -0.6 -0.6 -0.6 -0.6 -0.6 -0.6 -0.6 -0.6 -0.6 -0.6 -0.6 -0.6 -0.6 -0.6 -0.6 -0.6 -0.6 -0.6 -0.6 -0.6 -0.6 -0.6 -0.6 l -0.6,-0.1 h -0.6 -0.6 -0.6 -0.6 -0.6 -0.6 l -0.6,-0.1 h -0.6 -0.6 -0.6 l -0.6,-0.1 h -0.6 -0.6 -0.6 l -0.6,-0.1 h -0.6 -0.6 -0.6 -0.6 -0.6 -0.6 -0.6 -0.6 -1.1"
   clip-path="url(#SVGID_26_)" />
			</g>
			<g
   id="g187898">
				<defs
   id="defs187892">
					<rect
   id="SVGID_27_"
   x="241.7"
   y="35.700001"
   width="141.7"
   height="121.1" />
				</defs>
				<clipPath
   id="SVGID_28_">
					<use
   xlink:href="#SVGID_27_"
   style="overflow:visible"
   id="use187894" />
				</clipPath>
				<path
   id="path88305"
   class="st13"
   d="m 343.2,140.6 h -0.6 -0.6 l -0.6,-0.1 h -0.6 -0.6 -0.6 -0.6 -0.6 -0.6 -0.6 -0.6 l -0.6,-0.1 h -0.6 -0.6 -0.6 -0.6 -0.6 -0.6 -0.6 -0.6 -0.6 -0.6 -0.6 -0.6 -0.6 -0.6 -0.6 -0.6 -0.6 -0.6 -0.6 -0.6 -0.6 -0.6 -0.6 -0.6 -0.6 -0.6 -0.6 -0.6 l -0.6,0.1 H 318 l -0.6,0.1 h -0.6 -0.6 -0.6 -0.6 l -0.6,0.1 h -0.6 -0.6 -0.6 -0.6 -0.6 -0.6 -0.6 -0.6 -0.6 -0.6 -0.6 -0.6 -0.6 -0.6 -0.6 -0.6 -0.6 -0.6 -0.6 -0.6 -0.6 -0.6 -0.6 -0.6 -0.6 -0.6 -0.6 -0.6 -0.6 -0.6 -0.6 -0.6 -0.6 -0.6 -0.6 l -0.6,-0.1 h -0.6 -0.6 -0.6 -0.6 -0.6 -0.6 l -0.6,-0.1 h -0.6 -0.6 -0.6 l -0.6,-0.1 h -0.6 -0.6 -0.6 l -0.6,-0.1 h -0.6 -0.6 -0.6 -0.6 -0.6 -0.6 -0.6 -0.6 -1.1"
   clip-path="url(#SVGID_28_)" />
			</g>
			<g
   id="g187907">
				<defs
   id="defs187901">
					<rect
   id="SVGID_29_"
   x="241.7"
   y="35.700001"
   width="141.7"
   height="121.1" />
				</defs>
				<clipPath
   id="SVGID_30_">
					<use
   xlink:href="#SVGID_29_"
   style="overflow:visible"
   id="use187903" />
				</clipPath>
				<path
   id="path88307"
   class="st14"
   d="m 343.2,118 h -0.6 -0.6 l -0.6,-0.1 h -0.6 -0.6 -0.6 -0.6 -0.6 -0.6 -0.6 -0.6 l -0.6,-0.1 h -0.6 -0.6 -0.6 -0.6 -0.6 -0.6 -0.6 -0.6 -0.6 -0.6 -0.6 -0.6 -0.6 -0.6 -0.6 -0.6 -0.6 -0.6 -0.6 -0.6 -0.6 -0.6 -0.6 -0.6 -0.6 -0.6 -0.6 -0.6 l -0.6,0.1 H 318 l -0.6,0.1 h -0.6 -0.6 -0.6 -0.6 l -0.6,0.1 h -0.6 -0.6 -0.6 -0.6 -0.6 -0.6 -0.6 -0.6 -0.6 -0.6 -0.6 -0.6 -0.6 -0.6 -0.6 -0.6 -0.6 -0.6 -0.6 -0.6 -0.6 -0.6 -0.6 -0.6 -0.6 -0.6 -0.6 -0.6 -0.6 -0.6 -0.6 -0.6 -0.6 -0.6 -0.6 l -0.6,-0.1 h -0.6 -0.6 -0.6 -0.6 -0.6 -0.6 l -0.6,-0.1 h -0.6 -0.6 -0.6 l -0.6,-0.1 h -0.6 -0.6 -0.6 l -0.6,-0.1 h -0.6 -0.6 -0.6 -0.6 -0.6 -0.6 -0.6 -0.6 -1.1"
   clip-path="url(#SVGID_30_)" />
			</g>
			<g
   id="g187916">
				<defs
   id="defs187910">
					<rect
   id="SVGID_31_"
   x="241.7"
   y="35.700001"
   width="141.7"
   height="121.1" />
				</defs>
				<clipPath
   id="SVGID_32_">
					<use
   xlink:href="#SVGID_31_"
   style="overflow:visible"
   id="use187912" />
				</clipPath>
				<path
   id="path88309"
   class="st15"
   d="m 343.2,117.2 h -0.6 -0.6 l -0.6,-0.1 h -0.6 -0.6 -0.6 -0.6 -0.6 -0.6 -0.6 -0.6 L 336,117 h -0.6 -0.6 -0.6 -0.6 -0.6 -0.6 -0.6 -0.6 -0.6 -0.6 -0.6 -0.6 -0.6 -0.6 -0.6 -0.6 -0.6 -0.6 -0.6 -0.6 -0.6 -0.6 -0.6 -0.6 -0.6 -0.6 -0.6 -0.6 l -0.6,0.1 H 318 l -0.6,0.1 h -0.6 -0.6 -0.6 -0.6 l -0.6,0.1 h -0.6 -0.6 -0.6 -0.6 -0.6 -0.6 -0.6 -0.6 -0.6 -0.6 -0.6 -0.6 -0.6 -0.6 -0.6 -0.6 -0.6 -0.6 -0.6 -0.6 -0.6 -0.6 -0.6 -0.6 -0.6 -0.6 -0.6 -0.6 -0.6 -0.6 -0.6 -0.6 -0.6 -0.6 -0.6 l -0.6,-0.1 h -0.6 -0.6 -0.6 -0.6 -0.6 -0.6 l -0.6,-0.1 h -0.6 -0.6 -0.6 l -0.6,-0.1 h -0.6 -0.6 -0.6 l -0.6,-0.1 h -0.6 -0.6 -0.6 -0.6 -0.6 -0.6 -0.6 -0.6 -1.1"
   clip-path="url(#SVGID_32_)" />
			</g>
			<g
   id="g187925">
				<defs
   id="defs187919">
					<rect
   id="SVGID_33_"
   x="241.7"
   y="35.700001"
   width="141.7"
   height="121.1" />
				</defs>
				<clipPath
   id="SVGID_34_">
					<use
   xlink:href="#SVGID_33_"
   style="overflow:visible"
   id="use187921" />
				</clipPath>
				<path
   id="path88311"
   class="st16"
   d="m 343.2,141.8 h -0.6 -0.6 l -0.6,-0.1 h -0.6 -0.6 -0.6 -0.6 -0.6 -0.6 -0.6 -0.6 l -0.6,-0.1 h -0.6 -0.6 -0.6 -0.6 -0.6 -0.6 -0.6 -0.6 -0.6 -0.6 -0.6 -0.6 -0.6 -0.6 -0.6 -0.6 -0.6 -0.6 -0.6 -0.6 -0.6 -0.6 -0.6 -0.6 -0.6 -0.6 -0.6 -0.6 l -0.6,0.1 H 318 l -0.6,0.1 h -0.6 -0.6 -0.6 -0.6 l -0.6,0.1 h -0.6 -0.6 -0.6 -0.6 -0.6 -0.6 -0.6 -0.6 -0.6 -0.6 -0.6 -0.6 -0.6 -0.6 -0.6 -0.6 -0.6 -0.6 -0.6 -0.6 -0.6 -0.6 -0.6 -0.6 -0.6 -0.6 -0.6 -0.6 -0.6 -0.6 -0.6 -0.6 -0.6 -0.6 -0.6 l -0.6,-0.1 h -0.6 -0.6 -0.6 -0.6 -0.6 -0.6 l -0.6,-0.1 h -0.6 -0.6 -0.6 l -0.6,-0.1 h -0.6 -0.6 -0.6 l -0.6,-0.1 h -0.6 -0.6 -0.6 -0.6 -0.6 -0.6 -0.6 -0.6 -1.1"
   clip-path="url(#SVGID_34_)" />
			</g>
			<g
   id="g187934">
				<defs
   id="defs187928">
					<rect
   id="SVGID_35_"
   x="241.7"
   y="35.700001"
   width="141.7"
   height="121.1" />
				</defs>
				<clipPath
   id="SVGID_36_">
					<use
   xlink:href="#SVGID_35_"
   style="overflow:visible"
   id="use187930" />
				</clipPath>
				<path
   id="path88313"
   class="st17"
   d="m 343.2,115.6 h -0.6 -0.6 l -0.6,-0.1 h -0.6 -0.6 -0.6 -0.6 -0.6 -0.6 -0.6 -0.6 l -0.6,-0.1 h -0.6 -0.6 -0.6 -0.6 -0.6 -0.6 -0.6 -0.6 -0.6 -0.6 -0.6 -0.6 -0.6 -0.6 -0.6 -0.6 -0.6 -0.6 -0.6 -0.6 -0.6 -0.6 -0.6 -0.6 -0.6 -0.6 -0.6 -0.6 l -0.6,0.1 H 318 l -0.6,0.1 h -0.6 -0.6 -0.6 -0.6 l -0.6,0.1 h -0.6 -0.6 -0.6 -0.6 -0.6 -0.6 -0.6 -0.6 -0.6 -0.6 -0.6 -0.6 -0.6 -0.6 -0.6 -0.6 -0.6 -0.6 -0.6 -0.6 -0.6 -0.6 -0.6 -0.6 -0.6 -0.6 -0.6 -0.6 -0.6 -0.6 -0.6 -0.6 -0.6 -0.6 -0.6 l -0.6,-0.1 h -0.6 -0.6 -0.6 -0.6 -0.6 -0.6 l -0.6,-0.1 h -0.6 -0.6 -0.6 l -0.6,-0.1 h -0.6 -0.6 -0.6 l -0.6,-0.1 h -0.6 -0.6 -0.6 -0.6 -0.6 -0.6 -0.6 -0.6 -1.1"
   clip-path="url(#SVGID_36_)" />
			</g>
			<g
   id="g187943">
				<defs
   id="defs187937">
					<rect
   id="SVGID_37_"
   x="241.7"
   y="35.700001"
   width="141.7"
   height="121.1" />
				</defs>
				<clipPath
   id="SVGID_38_">
					<use
   xlink:href="#SVGID_37_"
   style="overflow:visible"
   id="use187939" />
				</clipPath>
				<path
   id="path88315"
   class="st18"
   d="m 343.2,113 h -0.6 -0.6 l -0.6,-0.1 h -0.6 -0.6 -0.6 -0.6 -0.6 -0.6 -0.6 -0.6 l -0.6,-0.1 h -0.6 -0.6 -0.6 -0.6 -0.6 -0.6 -0.6 -0.6 -0.6 -0.6 -0.6 -0.6 -0.6 -0.6 -0.6 -0.6 -0.6 -0.6 -0.6 -0.6 -0.6 -0.6 -0.6 -0.6 -0.6 -0.6 -0.6 -0.6 l -0.6,0.1 H 318 l -0.6,0.1 h -0.6 -0.6 -0.6 -0.6 l -0.6,0.1 h -0.6 -0.6 -0.6 -0.6 -0.6 -0.6 -0.6 -0.6 -0.6 -0.6 -0.6 -0.6 -0.6 -0.6 -0.6 -0.6 -0.6 -0.6 -0.6 -0.6 -0.6 -0.6 -0.6 -0.6 -0.6 -0.6 -0.6 -0.6 -0.6 -0.6 -0.6 -0.6 -0.6 -0.6 -0.6 l -0.6,-0.1 h -0.6 -0.6 -0.6 -0.6 -0.6 -0.6 -0.2 -0.6 -0.6 -0.6 l -0.6,-0.1 h -0.6 -0.6 -0.6 l -0.6,-0.1 h -0.6 -0.6 -0.6 -0.6 -0.6 -0.6 -0.6 -0.6 -1.1"
   clip-path="url(#SVGID_38_)" />
			</g>
			<g
   id="g187952">
				<defs
   id="defs187946">
					<rect
   id="SVGID_39_"
   x="241.7"
   y="35.700001"
   width="141.7"
   height="121.1" />
				</defs>
				<clipPath
   id="SVGID_40_">
					<use
   xlink:href="#SVGID_39_"
   style="overflow:visible"
   id="use187948" />
				</clipPath>
				<path
   id="path88317"
   class="st19"
   d="m 343.2,144.1 h -0.6 -0.6 l -0.6,-0.1 h -0.6 -0.6 -0.6 -0.6 -0.6 -0.6 -0.6 -0.6 l -0.6,-0.1 h -0.6 -0.6 -0.6 -0.6 -0.6 -0.6 -0.6 -0.6 -0.6 -0.6 -0.6 -0.6 -0.6 -0.6 -0.6 -0.6 -0.6 -0.6 -0.6 -0.6 -0.6 -0.6 -0.6 -0.6 -0.6 -0.6 -0.6 -0.6 l -0.6,0.1 H 318 l -0.6,0.1 h -0.6 -0.6 -0.6 -0.6 l -0.6,0.1 h -0.6 -0.6 -0.6 -0.6 -0.6 -0.6 -0.6 -0.6 -0.6 -0.6 -0.6 -0.6 -0.6 -0.6 -0.6 -0.6 -0.6 -0.6 -0.6 -0.6 -0.6 -0.6 -0.6 -0.6 -0.6 -0.6 -0.6 -0.6 -0.6 -0.6 -0.6 -0.6 -0.6 -0.6 -0.6 l -0.6,-0.1 h -0.6 -0.6 -0.6 -0.6 -0.6 -0.6 l -0.6,-0.1 h -0.6 -0.6 -0.6 l -0.6,-0.1 h -0.6 -0.6 -0.6 l -0.6,-0.1 h -0.6 -0.6 -0.6 -0.6 -0.6 -0.6 -0.6 -0.6 -1.1"
   clip-path="url(#SVGID_40_)" />
			</g>
			<g
   id="PolyCollection_1">
			</g>
			<g
   id="patch_6">
				<g
   id="g187962">
					<defs
   id="defs187956">
						<rect
   id="SVGID_41_"
   x="241.7"
   y="35.700001"
   width="141.7"
   height="121.1" />
					</defs>
					<clipPath
   id="SVGID_42_">
						<use
   xlink:href="#SVGID_41_"
   style="overflow:visible"
   id="use187958" />
					</clipPath>
					<path
   id="path88640"
   class="st20"
   d="m 277.6,103 h -0.2 0.2"
   clip-path="url(#SVGID_42_)" />
				</g>
				<g
   id="g187971">
					<defs
   id="defs187965">
						<rect
   id="SVGID_43_"
   x="241.7"
   y="35.700001"
   width="141.7"
   height="121.1" />
					</defs>
					<clipPath
   id="SVGID_44_">
						<use
   xlink:href="#SVGID_43_"
   style="overflow:visible"
   id="use187967" />
					</clipPath>
					<path
   id="path88642"
   class="st21"
   d="m 277.6,103 h -0.2 0.2"
   clip-path="url(#SVGID_44_)" />
				</g>
				<g
   id="g187980">
					<defs
   id="defs187974">
						<rect
   id="SVGID_45_"
   x="241.7"
   y="35.700001"
   width="141.7"
   height="121.1" />
					</defs>
					<clipPath
   id="SVGID_46_">
						<use
   xlink:href="#SVGID_45_"
   style="overflow:visible"
   id="use187976" />
					</clipPath>
					<path
   id="path88644"
   class="st22"
   d="m 280,104.2 -0.5,-0.3 -0.5,-0.3 -0.5,-0.3 -0.8,-0.4 h 0.6 l 0.5,-0.2 0.5,-0.2 0.8,-0.4 -0.4,0.4 v 0.6 1.2 h 0.3 z"
   clip-path="url(#SVGID_46_)" />
				</g>
				<g
   id="g187989">
					<defs
   id="defs187983">
						<rect
   id="SVGID_47_"
   x="241.7"
   y="35.700001"
   width="141.7"
   height="121.1" />
					</defs>
					<clipPath
   id="SVGID_48_">
						<use
   xlink:href="#SVGID_47_"
   style="overflow:visible"
   id="use187985" />
					</clipPath>
					<path
   id="path88646"
   class="st23"
   d="m 280,104.2 -0.5,-0.3 -0.5,-0.3 -0.5,-0.3 -0.8,-0.4 h 0.6 l 0.5,-0.2 0.5,-0.2 0.8,-0.4 -0.4,0.4 v 0.6 1.2 h 0.3 z"
   clip-path="url(#SVGID_48_)" />
				</g>
				<g
   id="g187998">
					<defs
   id="defs187992">
						<rect
   id="SVGID_49_"
   x="241.7"
   y="35.700001"
   width="141.7"
   height="121.1" />
					</defs>
					<clipPath
   id="SVGID_50_">
						<use
   xlink:href="#SVGID_49_"
   style="overflow:visible"
   id="use187994" />
					</clipPath>
					<path
   id="path88648"
   class="st24"
   d="m 343.8,141.9 -1.2,-0.6 v 1.2 z"
   clip-path="url(#SVGID_50_)" />
				</g>
				<g
   id="g188007">
					<defs
   id="defs188001">
						<rect
   id="SVGID_51_"
   x="241.7"
   y="35.700001"
   width="141.7"
   height="121.1" />
					</defs>
					<clipPath
   id="SVGID_52_">
						<use
   xlink:href="#SVGID_51_"
   style="overflow:visible"
   id="use188003" />
					</clipPath>
					<path
   id="path88650"
   class="st25"
   d="m 343.8,130.1 -1.2,-0.6 v 1.2 z"
   clip-path="url(#SVGID_52_)" />
				</g>
				<g
   id="g188016">
					<defs
   id="defs188010">
						<rect
   id="SVGID_53_"
   x="241.7"
   y="35.700001"
   width="141.7"
   height="121.1" />
					</defs>
					<clipPath
   id="SVGID_54_">
						<use
   xlink:href="#SVGID_53_"
   style="overflow:visible"
   id="use188012" />
					</clipPath>
					<path
   id="path88652"
   class="st26"
   d="m 343.8,153 -1.2,-0.6 v 1.2 z"
   clip-path="url(#SVGID_54_)" />
				</g>
				<g
   id="g188025">
					<defs
   id="defs188019">
						<rect
   id="SVGID_55_"
   x="241.7"
   y="35.700001"
   width="141.7"
   height="121.1" />
					</defs>
					<clipPath
   id="SVGID_56_">
						<use
   xlink:href="#SVGID_55_"
   style="overflow:visible"
   id="use188021" />
					</clipPath>
					<path
   id="path88654"
   class="st27"
   d="m 343.8,104.1 -1.2,-0.6 v 1.2 z"
   clip-path="url(#SVGID_56_)" />
				</g>
				<g
   id="g188034">
					<defs
   id="defs188028">
						<rect
   id="SVGID_57_"
   x="241.7"
   y="35.700001"
   width="141.7"
   height="121.1" />
					</defs>
					<clipPath
   id="SVGID_58_">
						<use
   xlink:href="#SVGID_57_"
   style="overflow:visible"
   id="use188030" />
					</clipPath>
					<path
   id="path88656"
   class="st28"
   d="m 343.8,130.4 -1.2,-0.6 v 1.2 z"
   clip-path="url(#SVGID_58_)" />
				</g>
				<g
   id="g188043">
					<defs
   id="defs188037">
						<rect
   id="SVGID_59_"
   x="241.7"
   y="35.700001"
   width="141.7"
   height="121.1" />
					</defs>
					<clipPath
   id="SVGID_60_">
						<use
   xlink:href="#SVGID_59_"
   style="overflow:visible"
   id="use188039" />
					</clipPath>
					<path
   id="path88658"
   class="st29"
   d="m 343.8,141 -1.2,-0.6 v 1.2 z"
   clip-path="url(#SVGID_60_)" />
				</g>
				<g
   id="g188052">
					<defs
   id="defs188046">
						<rect
   id="SVGID_61_"
   x="241.7"
   y="35.700001"
   width="141.7"
   height="121.1" />
					</defs>
					<clipPath
   id="SVGID_62_">
						<use
   xlink:href="#SVGID_61_"
   style="overflow:visible"
   id="use188048" />
					</clipPath>
					<path
   id="path88660"
   class="st30"
   d="m 343.8,116.3 -1.2,-0.6 v 1.2 z"
   clip-path="url(#SVGID_62_)" />
				</g>
				<g
   id="g188061">
					<defs
   id="defs188055">
						<rect
   id="SVGID_63_"
   x="241.7"
   y="35.700001"
   width="141.7"
   height="121.1" />
					</defs>
					<clipPath
   id="SVGID_64_">
						<use
   xlink:href="#SVGID_63_"
   style="overflow:visible"
   id="use188057" />
					</clipPath>
					<path
   id="path88662"
   class="st31"
   d="m 343.8,110.1 -1.2,-0.6 v 1.2 z"
   clip-path="url(#SVGID_64_)" />
				</g>
				<g
   id="g188070">
					<defs
   id="defs188064">
						<rect
   id="SVGID_65_"
   x="241.7"
   y="35.700001"
   width="141.7"
   height="121.1" />
					</defs>
					<clipPath
   id="SVGID_66_">
						<use
   xlink:href="#SVGID_65_"
   style="overflow:visible"
   id="use188066" />
					</clipPath>
					<path
   id="path88664"
   class="st32"
   d="m 343.8,107.2 -1.2,-0.6 v 1.2 z"
   clip-path="url(#SVGID_66_)" />
				</g>
				<g
   id="g188079">
					<defs
   id="defs188073">
						<rect
   id="SVGID_67_"
   x="241.7"
   y="35.700001"
   width="141.7"
   height="121.1" />
					</defs>
					<clipPath
   id="SVGID_68_">
						<use
   xlink:href="#SVGID_67_"
   style="overflow:visible"
   id="use188075" />
					</clipPath>
					<path
   id="path88666"
   class="st33"
   d="m 343.8,106.1 -1.2,-0.6 v 1.2 z"
   clip-path="url(#SVGID_68_)" />
				</g>
				<g
   id="g188088">
					<defs
   id="defs188082">
						<rect
   id="SVGID_69_"
   x="241.7"
   y="35.700001"
   width="141.7"
   height="121.1" />
					</defs>
					<clipPath
   id="SVGID_70_">
						<use
   xlink:href="#SVGID_69_"
   style="overflow:visible"
   id="use188084" />
					</clipPath>
					<path
   id="path88668"
   class="st34"
   d="m 277.8,124.1 1.2,0.6 v -1.2 z"
   clip-path="url(#SVGID_70_)" />
				</g>
				<g
   id="g188097">
					<defs
   id="defs188091">
						<rect
   id="SVGID_71_"
   x="241.7"
   y="35.700001"
   width="141.7"
   height="121.1" />
					</defs>
					<clipPath
   id="SVGID_72_">
						<use
   xlink:href="#SVGID_71_"
   style="overflow:visible"
   id="use188093" />
					</clipPath>
					<path
   id="path88670"
   class="st35"
   d="m 277.8,114.6 1.2,0.6 V 114 Z"
   clip-path="url(#SVGID_72_)" />
				</g>
				<g
   id="g188106">
					<defs
   id="defs188100">
						<rect
   id="SVGID_73_"
   x="241.7"
   y="35.700001"
   width="141.7"
   height="121.1" />
					</defs>
					<clipPath
   id="SVGID_74_">
						<use
   xlink:href="#SVGID_73_"
   style="overflow:visible"
   id="use188102" />
					</clipPath>
					<path
   id="path88672"
   class="st36"
   d="m 277.8,107.5 1.2,0.6 V 107 Z"
   clip-path="url(#SVGID_74_)" />
				</g>
				<g
   id="g188115">
					<defs
   id="defs188109">
						<rect
   id="SVGID_75_"
   x="241.7"
   y="35.700001"
   width="141.7"
   height="121.1" />
					</defs>
					<clipPath
   id="SVGID_76_">
						<use
   xlink:href="#SVGID_75_"
   style="overflow:visible"
   id="use188111" />
					</clipPath>
					<path
   id="path88674"
   class="st37"
   d="m 277.8,140.6 1.2,0.6 V 140 Z"
   clip-path="url(#SVGID_76_)" />
				</g>
				<g
   id="g188124">
					<defs
   id="defs188118">
						<rect
   id="SVGID_77_"
   x="241.7"
   y="35.700001"
   width="141.7"
   height="121.1" />
					</defs>
					<clipPath
   id="SVGID_78_">
						<use
   xlink:href="#SVGID_77_"
   style="overflow:visible"
   id="use188120" />
					</clipPath>
					<path
   id="path88676"
   class="st38"
   d="m 277.8,118 1.2,0.6 v -1.2 z"
   clip-path="url(#SVGID_78_)" />
				</g>
				<g
   id="g188133">
					<defs
   id="defs188127">
						<rect
   id="SVGID_79_"
   x="241.7"
   y="35.700001"
   width="141.7"
   height="121.1" />
					</defs>
					<clipPath
   id="SVGID_80_">
						<use
   xlink:href="#SVGID_79_"
   style="overflow:visible"
   id="use188129" />
					</clipPath>
					<path
   id="path88678"
   class="st39"
   d="m 277.8,117.2 1.2,0.6 v -1.2 z"
   clip-path="url(#SVGID_80_)" />
				</g>
				<g
   id="g188142">
					<defs
   id="defs188136">
						<rect
   id="SVGID_81_"
   x="241.7"
   y="35.700001"
   width="141.7"
   height="121.1" />
					</defs>
					<clipPath
   id="SVGID_82_">
						<use
   xlink:href="#SVGID_81_"
   style="overflow:visible"
   id="use188138" />
					</clipPath>
					<path
   id="path88680"
   class="st40"
   d="m 277.8,141.8 1.2,0.6 v -1.2 z"
   clip-path="url(#SVGID_82_)" />
				</g>
				<g
   id="g188151">
					<defs
   id="defs188145">
						<rect
   id="SVGID_83_"
   x="241.7"
   y="35.700001"
   width="141.7"
   height="121.1" />
					</defs>
					<clipPath
   id="SVGID_84_">
						<use
   xlink:href="#SVGID_83_"
   style="overflow:visible"
   id="use188147" />
					</clipPath>
					<path
   id="path88682"
   class="st41"
   d="m 277.8,115.6 1.2,0.6 V 115 Z"
   clip-path="url(#SVGID_84_)" />
				</g>
				<g
   id="g188160">
					<defs
   id="defs188154">
						<rect
   id="SVGID_85_"
   x="241.7"
   y="35.700001"
   width="141.7"
   height="121.1" />
					</defs>
					<clipPath
   id="SVGID_86_">
						<use
   xlink:href="#SVGID_85_"
   style="overflow:visible"
   id="use188156" />
					</clipPath>
					<path
   id="path88684"
   class="st42"
   d="m 277.8,113 1.2,0.6 v -1.2 z"
   clip-path="url(#SVGID_86_)" />
				</g>
				<g
   id="g188169">
					<defs
   id="defs188163">
						<rect
   id="SVGID_87_"
   x="241.7"
   y="35.700001"
   width="141.7"
   height="121.1" />
					</defs>
					<clipPath
   id="SVGID_88_">
						<use
   xlink:href="#SVGID_87_"
   style="overflow:visible"
   id="use188165" />
					</clipPath>
					<path
   id="path88686"
   class="st43"
   d="m 277.8,144.1 1.2,0.6 v -1.2 z"
   clip-path="url(#SVGID_88_)" />
				</g>
			</g>
			<g
   id="g188179">
				<defs
   id="defs188173">
					<rect
   id="SVGID_89_"
   x="241.7"
   y="35.700001"
   width="141.7"
   height="121.1" />
				</defs>
				<clipPath
   id="SVGID_90_">
					<use
   xlink:href="#SVGID_89_"
   style="overflow:visible"
   id="use188175" />
				</clipPath>
				<path
   id="path88322"
   class="st44"
   d="m 316,35.7 h -7 V 59.9 H 277.6 V 103 h 69.8 v 0 -43.1 H 316 Z"
   clip-path="url(#SVGID_90_)" />
			</g>
			<g
   id="PolyCollection_3">
				<g
   id="g188188">
					<defs
   id="defs188182">
						<rect
   id="SVGID_91_"
   x="241.7"
   y="35.700001"
   width="141.7"
   height="121.1" />
					</defs>
					<clipPath
   id="SVGID_92_">
						<use
   xlink:href="#SVGID_91_"
   style="overflow:visible"
   id="use188184" />
					</clipPath>
					<path
   id="path88334"
   class="st45"
   d="m 379.6,103 h -34.9 v 53.8 h 34.9 v 0 z"
   clip-path="url(#SVGID_92_)" />
				</g>
			</g>
			<g
   id="PolyCollection_2">
				<g
   id="g188198">
					<defs
   id="defs188192">
						<rect
   id="SVGID_93_"
   x="241.7"
   y="35.700001"
   width="141.7"
   height="121.1" />
					</defs>
					<clipPath
   id="SVGID_94_">
						<use
   xlink:href="#SVGID_93_"
   style="overflow:visible"
   id="use188194" />
					</clipPath>
					<path
   id="path88328"
   class="st46"
   d="M 276.9,103 H 249 v 53.8 h 27.9 v 0 z"
   clip-path="url(#SVGID_94_)" />
				</g>
			</g>
		</g>
	</g>
</g>
<g
   id="Layer_4">
	<g
   id="g188208">
		<g
   id="g188206">
			<path
   d="m 34.6,36.6 c 1.8,19.8 2.2,39.7 1.1,59.6 -0.1,2.6 3.9,2.6 4,0 1.1,-19.9 0.7,-39.8 -1.1,-59.6 -0.2,-2.5 -4.2,-2.5 -4,0 z"
   id="path188204" />
		</g>
	</g>
	<g
   id="g188214">
		<g
   id="g188212">
			<path
   d="m 37.8,39 c 6.2,5.8 11.5,12.2 15.6,19.7 0.8,1.4 3.3,1.2 3.7,-0.5 1.7,-8.8 6.3,-16 13.1,-21.8 2,-1.7 -0.9,-4.5 -2.8,-2.8 C 60.1,39.8 55,47.8 53.2,57.2 54.4,57 55.6,56.9 56.9,56.7 52.6,49 47.2,42.2 40.7,36.2 38.8,34.4 35.9,37.3 37.8,39 Z"
   id="path188210" />
		</g>
	</g>
	<g
   id="g188220">
		<g
   id="g188218">
			<path
   d="m 68.4,33.9 c -0.6,10.8 -1.3,21.5 -1.9,32.3 -0.3,4.8 -0.5,9.6 -0.2,14.4 0.1,2 0.3,3.9 0.6,5.9 0.1,0.7 1.9,7.4 2,7.3 0.8,-0.1 1.6,-0.2 2.4,-0.3 -0.1,-0.1 -0.2,-0.1 -0.3,-0.2 0.3,0.8 0.6,1.5 0.9,2.3 0,-0.1 0.1,-0.2 0.1,-0.4 -0.8,0.5 -1.6,0.9 -2.5,1.4 0.1,0 0.1,0 0.2,0.1 2.5,0.8 3.5,-3.1 1.1,-3.9 -0.1,0 -0.1,0 -0.2,-0.1 -1,-0.3 -2.2,0.4 -2.5,1.4 0,0.1 -0.1,0.2 -0.1,0.4 -0.2,0.8 0.2,1.8 0.9,2.3 0.1,0.1 0.2,0.1 0.3,0.2 0.7,0.4 1.8,0.3 2.4,-0.3 C 73.8,94.2 71.7,91 71.1,88.2 69.9,82.2 70,76 70.2,69.9 70.7,57.9 71.6,46 72.2,34 72.6,31.3 68.6,31.3 68.4,33.9 Z"
   id="path188216" />
		</g>
	</g>
	<g
   id="g188226">
		<g
   id="g188224">
			<path
   d="m 76.3,79 c -2.8,7.2 1.7,15.8 9.7,16.4 8,0.6 14.5,-6.2 14.5,-14 0,-7.2 -5.6,-17.1 -14,-14.3 -6.9,2.3 -14.7,9.4 -9,16.8 1.6,2 4.4,-0.8 2.8,-2.8 -4.5,-5.8 8.1,-12.8 12.4,-9 3.5,3.2 4.8,8.9 3,13.3 -4.1,10.3 -19.8,5.8 -15.6,-5.3 1,-2.5 -2.9,-3.5 -3.8,-1.1 z"
   id="path188222" />
		</g>
	</g>
	<g
   id="g188232">
		<g
   id="g188230">
			<path
   d="m 122.9,80.2 c -0.3,-3.3 -0.9,-7.5 -3.9,-9.5 -3.3,-2.2 -7,-0.3 -9.4,2.3 -4.4,4.9 -8.6,18.5 -0.5,22.3 9.2,4.3 11.1,-14 11.5,-19 1.3,-13.7 -0.8,-27.4 1.8,-41 -1.3,-0.2 -2.6,-0.4 -3.9,-0.5 0.1,9.9 0.2,19.7 0.3,29.6 0,4.6 0.1,9.2 0.1,13.8 0,2.6 0,5.3 0.1,7.9 0,1.2 0.8,7 0,7.8 0.8,-0.1 1.6,-0.2 2.4,-0.3 0.2,0.4 0.5,0.7 0.7,1.1 -0.7,0.7 -1.3,1.3 -2,2 0.1,0 0.2,0 0.3,0 2.6,-0.1 2.6,-4.1 0,-4 -0.1,0 -0.2,0 -0.3,0 -1.2,0 -1.9,0.9 -2,2 -0.1,1.1 0.4,1.7 1.3,2.4 0.7,0.5 1.8,0.3 2.4,-0.3 2.3,-2.2 1.2,-6.8 1.2,-9.7 -0.1,-5.9 -0.1,-11.8 -0.2,-17.8 -0.1,-11.5 -0.2,-23 -0.3,-34.5 0,-2.2 -3.5,-2.8 -3.9,-0.5 -2.5,12.8 -0.9,25.7 -1.7,38.6 -0.2,3.6 -0.6,7.2 -1.4,10.7 -0.5,2.2 -3.6,12.8 -6.6,4.7 -1.1,-3.1 0.6,-7.7 2.1,-10.4 1.2,-2 3.6,-5.7 6.7,-2.8 1,0.9 1.1,4 1.2,5.1 0.2,2.6 4.2,2.6 4,0 z"
   id="path188228" />
		</g>
	</g>
	<g
   id="g188238">
		<g
   id="g188236">
			<path
   d="m 128.8,89.8 c 4.8,-3.1 16.9,-8.4 13.4,-16.2 -2.3,-5.1 -9.6,-4.7 -12.9,-1 -4,4.4 -5.2,13.7 -1.9,18.8 4.7,7.1 17.8,2.5 23.9,0.1 2.4,-0.9 1.3,-4.8 -1.1,-3.9 -4.2,1.7 -9.9,3.8 -14.5,3.3 -2.5,-0.3 -5.1,-1 -5.9,-3.7 -0.6,-2 -0.3,-4.5 0,-6.5 0.4,-2.3 1.3,-5.2 3.6,-6.4 2,-1 6.2,-0.7 4.9,3.4 -1.2,3.6 -8.6,6.7 -11.6,8.7 -2.1,1.3 -0.1,4.8 2.1,3.4 z"
   id="path188234" />
		</g>
	</g>
	<g
   id="g188244">
		<g
   id="g188242">
			<path
   d="m 151.2,33.9 c 0,20 0.7,40 2.2,59.9 0.2,2.6 4.2,2.6 4,0 -1.5,-19.9 -2.2,-39.9 -2.2,-59.9 0,-2.6 -4,-2.6 -4,0 z"
   id="path188240" />
		</g>
	</g>
	<g
   id="g188250">
		<g
   id="g188248">
			<path
   d="m 192.4,63.4 c 13.2,-1.2 16.5,-15.3 19.8,-25.9 -1.3,-0.4 -2.6,-0.7 -3.9,-1.1 -5.1,18.2 -7.1,37 -6.1,55.9 0.7,-0.7 1.3,-1.3 2,-2 -3.5,-0.2 -6.6,0.3 -9.9,1.4 0.4,1.3 0.7,2.6 1.1,3.9 2.5,-1 5.1,-1.6 7.8,-1.6 2,0 4.6,1.2 6.6,0.6 1.6,-0.5 2.5,-1.9 1.8,-3.5 -1,-2.3 -4.8,-1.3 -3.9,1.1 -0.7,-1.7 -0.4,-1.5 -2,-2 -1.2,-0.4 -3.1,-0.2 -4.3,-0.1 -2.5,0.2 -4.8,0.8 -7.2,1.7 -2.4,0.9 -1.4,4.7 1.1,3.9 2.9,-1 5.7,-1.3 8.8,-1.2 1,0 2.1,-1 2,-2 -1,-18.5 1,-37 6,-54.8 0.7,-2.5 -3.1,-3.5 -3.9,-1.1 -2.6,8.5 -5.1,22 -16,23 -2.4,0 -2.4,4 0.2,3.8 z"
   id="path188246" />
		</g>
	</g>
</g>
</svg>
