<?xml version="1.0" encoding="UTF-8" standalone="no"?>
<svg
   viewBox="0 0 1175.48 577.35"
   version="1.1"
   id="svg383737"
   sodipodi:docname="stdpopsim_3.svg"
   xml:space="preserve"
   inkscape:version="1.2.2 (1:1.2.2+202212051552+b0a8486541)"
   xmlns:inkscape="http://www.inkscape.org/namespaces/inkscape"
   xmlns:sodipodi="http://sodipodi.sourceforge.net/DTD/sodipodi-0.dtd"
   xmlns="http://www.w3.org/2000/svg"
   xmlns:svg="http://www.w3.org/2000/svg"
   xmlns:rdf="http://www.w3.org/1999/02/22-rdf-syntax-ns#"
   xmlns:cc="http://creativecommons.org/ns#"
   xmlns:dc="http://purl.org/dc/elements/1.1/"><sodipodi:namedview
     id="namedview383739"
     pagecolor="#ffffff"
     bordercolor="#000000"
     borderopacity="0.25"
     inkscape:showpageshadow="2"
     inkscape:pageopacity="0.0"
     inkscape:pagecheckerboard="0"
     inkscape:deskcolor="#d1d1d1"
     showgrid="false"
     inkscape:zoom="0.50004994"
     inkscape:cx="436.95636"
     inkscape:cy="313.96864"
     inkscape:window-width="1223"
     inkscape:window-height="779"
     inkscape:window-x="57"
     inkscape:window-y="21"
     inkscape:window-maximized="1"
     inkscape:current-layer="Layer_6-9" /><defs
     id="defs382375"><style
       id="style382361">.cls-1,.cls-11,.cls-17,.cls-18,.cls-20,.cls-22,.cls-24,.cls-26,.cls-27,.cls-33,.cls-4{fill:none;}.cls-2{fill:#d8d8d8;}.cls-11,.cls-3,.cls-33,.cls-4{stroke:#000;}.cls-14,.cls-15,.cls-16,.cls-17,.cls-18,.cls-26,.cls-27,.cls-29,.cls-3,.cls-30,.cls-33{stroke-linejoin:round;}.cls-3,.cls-4{stroke-width:0.8px;}.cls-17,.cls-18,.cls-4{stroke-linecap:square;}.cls-5{opacity:0.82;}.cls-6{fill:#c1272d;}.cls-7{fill:#fcee21;}.cls-8{fill:blue;}.cls-9{fill:#8cc63f;}.cls-10,.cls-29,.cls-30{fill:#fff;}.cls-11{stroke-miterlimit:10;}.cls-12{fill:#b3b3b3;}.cls-13{clip-path:url(#clip-path);}.cls-14,.cls-25{fill:#2ca02c;}.cls-14,.cls-15,.cls-16{fill-opacity:0.2;stroke-width:2px;stroke-dasharray:2 2;}.cls-14,.cls-18,.cls-24{stroke:#2ca02c;}.cls-15,.cls-23,.cls-32{fill:#ff7f0e;}.cls-15{stroke:#ff800f;}.cls-16{fill:#1e75b3;stroke:#1e75b3;}.cls-17,.cls-22,.cls-32{stroke:#ff7f0e;}.cls-17,.cls-18,.cls-32{stroke-opacity:0.5;}.cls-17,.cls-18{stroke-width:0.2px;}.cls-19{clip-path:url(#clip-path-24);}.cls-20,.cls-27,.cls-30{stroke:#1f77b4;}.cls-21{fill:#1f77b4;}.cls-21,.cls-23,.cls-25,.cls-32{fill-opacity:0.5;}.cls-26,.cls-29{stroke:#fff;stroke-width:3px;}.cls-26,.cls-27,.cls-29,.cls-30{stroke-linecap:round;}.cls-28{clip-path:url(#clip-path-42);}.cls-31{clip-path:url(#clip-path-46);}</style><clipPath
       id="clip-path"
       transform="translate(-19.92 -9.25)"><rect
         class="cls-1"
         x="70.17"
         y="382.26"
         width="154.4"
         height="203.34"
         id="rect382363" /></clipPath><clipPath
       id="clip-path-24"
       transform="translate(-19.92 -9.25)"><rect
         class="cls-1"
         x="1010.21"
         y="202.75"
         width="158.77"
         height="237.35"
         id="rect382366" /></clipPath><clipPath
       id="clip-path-42"
       transform="translate(-19.92 -9.25)"><rect
         class="cls-1"
         x="1005.58"
         y="202.75"
         width="158.77"
         height="237.35"
         id="rect382369" /></clipPath><clipPath
       id="clip-path-46"
       transform="translate(-19.92 -9.25)"><rect
         class="cls-1"
         x="1014.84"
         y="202.75"
         width="158.77"
         height="237.35"
         id="rect382372" /></clipPath></defs><title
     id="title382377">full_new</title><g
     id="Layer_1"
     data-name="Layer 1"><path
       class="cls-6"
       d="m 975.08839,323.24593 a 78.74,78.74 0 0 1 0.82,10.37 1.12,1.12 0 0 0 2.24,0 90.11,90.11 0 0 0 -0.89,-11 c -0.23,-1.42 -2.39,-0.82 -2.17,0.6 z"
       id="path382670" /><path
       class="cls-6"
       d="m 980.01839,321.40593 c 0.9,5.15 1.87,10.37 2.76,15.52 0.22,1.42 2.39,0.82 2.17,-0.59 -0.9,-5.15 -1.87,-10.38 -2.77,-15.53 -0.29,-1.42 -2.46,-0.82 -2.16,0.6 z"
       id="path382672" /><path
       class="cls-6"
       d="m 1020.7684,324.58593 c 0.07,4.25 0.22,8.51 0.52,12.76 0.08,1.42 2.31,1.42 2.24,0 -0.3,-4.25 -0.52,-8.51 -0.52,-12.76 a 1.12,1.12 0 0 0 -2.24,0 z"
       id="path382674" /><path
       class="cls-6"
       d="m 1036.9584,324.80593 c 0.53,4.56 0.9,9.18 1.79,13.73 0.3,1.42 2.47,0.83 2.17,-0.59 -0.82,-4.33 -1.2,-8.73 -1.72,-13.14 -0.15,-1.42 -2.39,-1.42 -2.24,0 z"
       id="path382676" /><path
       class="cls-6"
       d="m 1081.3684,318.76593 a 43.47,43.47 0 0 0 1.34,10.74 1.1243887,1.1243887 0 0 0 2.17,-0.59 42.06,42.06 0 0 1 -1.27,-10.15 c -0.08,-1.49 -2.32,-1.49 -2.24,0 z"
       id="path382678" /><path
       class="cls-7"
       d="m 990.68839,320.40593 c 0.9,5.82 1.72,11.72 2.32,17.61 0.14,1.42 2.38,1.42 2.23,0 -0.67,-6.12 -1.41,-12.16 -2.38,-18.21 -0.3,-1.42 -2.39,-0.82 -2.17,0.6 z"
       id="path382680" /><path
       class="cls-7"
       d="m 1028.7484,324.06593 c 0.38,3.21 0.82,6.41 1.2,9.62 0.22,2.09 0,5.15 1.12,6.94 a 1.12,1.12 0 0 0 1.79,0.23 c 0,-0.08 0.07,-0.08 0.07,-0.15 a 1.07,1.07 0 0 0 0,-1.57 l -0.07,-0.07 c -1.12,-1 -2.69,0.67 -1.57,1.56 l 0.08,0.08 v -1.57 c 0,0.08 -0.08,0.08 -0.08,0.15 l 1.79,0.23 c -1,-1.72 -0.82,-5.75 -1,-7.62 -0.3,-2.61 -0.67,-5.22 -1,-7.83 -0.3,-1.42 -2.54,-1.42 -2.32,0 z"
       id="path382682" /><path
       class="cls-7"
       d="m 1058.6784,322.71593 a 82.53,82.53 0 0 0 0.3,9.56 c 0.15,1.41 2.39,1.41 2.24,0 a 80.36,80.36 0 0 1 -0.3,-9.56 c 0.07,-1.49 -2.16,-1.49 -2.24,0 z"
       id="path382684" /><path
       class="cls-8"
       d="m 984.94839,320.92593 c 1.79,5.9 3.35,11.87 4.55,17.84 0.3,1.42 2.46,0.82 2.16,-0.6 a 178.54,178.54 0 0 0 -4.55,-17.84 c -0.45,-1.34 -2.61,-0.74 -2.16,0.6 z"
       id="path382686" /><path
       class="cls-8"
       d="m 1014.8684,326.40593 c 0.75,3.06 1.35,6.2 1.94,9.33 0.23,1.42 2.39,0.82 2.17,-0.59 -0.53,-3.14 -1.2,-6.27 -1.94,-9.33 a 1.1243887,1.1243887 0 0 0 -2.17,0.59 z"
       id="path382688" /><path
       class="cls-8"
       d="m 1068.6784,317.86593 c 0.6,5.38 1.27,10.67 1.87,16 0.15,1.42 2.38,1.42 2.24,0 -0.6,-5.38 -1.27,-10.67 -1.87,-16 -0.15,-1.42 -2.39,-1.49 -2.24,0 z"
       id="path382690" /><path
       class="cls-8"
       d="m 1086.6684,319.88593 c 0.3,2.16 0.59,4.25 1,6.34 0.3,1.42 2.46,0.82 2.17,-0.6 -0.38,-1.94 -0.75,-3.8 -1,-5.74 -0.15,-1.42 -2.39,-1.42 -2.24,0 z"
       id="path382692" /><path
       class="cls-9"
       d="m 996.50839,326.00593 c 0.75,3.06 1.42,6 2.17001,9.1 0.3,1.42 2.46,0.82 2.16,-0.6 -0.74,-3.06 -1.42,-6 -2.16,-9.1 a 1.13,1.13 0 0 0 -2.17001,0.6 z"
       id="path382694" /><path
       class="cls-9"
       d="m 1001.1384,328.83593 c 0.45,1 0.82,1.94 1.27,2.91 0.37,0.82 0.6,1.79 1.42,2.24 a 1,1 0 0 0 1.12,0 1.2,1.2 0 0 0 0.67,-0.89 1.23,1.23 0 0 0 -0.52,-1.27 l -0.08,-0.08 c -1.19,-0.74 -2.31,1.2 -1.12,1.94 l 0.08,0.08 c -0.15,-0.45 -0.38,-0.82 -0.53,-1.27 v 0.15 c 0.15,-0.22 0.38,-0.45 0.53,-0.67 -0.08,0 -0.08,0.07 -0.15,0.07 h 1.12 c 0.15,0.15 0.15,0.08 -0.08,-0.3 -0.07,-0.22 -0.22,-0.44 -0.3,-0.67 -0.08,-0.23 -0.3,-0.67 -0.44,-1 -0.38,-0.82 -0.68,-1.57 -1,-2.39 -0.6,-1.27 -2.54,-0.08 -1.94,1.19 z"
       id="path382696" /><path
       class="cls-9"
       d="m 1024.4184,324.80593 c 1.2,4.78 0.3,9.7 1.57,14.48 a 1.13,1.13 0 0 0 2.17,-0.6 c -1.35,-4.7 -0.38,-9.7 -1.57,-14.47 -0.3,-1.35 -2.46,-0.75 -2.17,0.59 z"
       id="path382698" /><path
       class="cls-9"
       d="m 1042.4884,326.40593 c 0.52,2.77 1,5.6 1.56,8.36 0.23,1.42 2.39,0.82 2.17,-0.59 -0.53,-2.77 -1.05,-5.6 -1.57,-8.36 -0.3,-1.42 -2.46,-0.82 -2.16,0.59 z"
       id="path382700" /><path
       class="cls-9"
       d="m 1063.7584,319.73593 c 0.22,4.4 -0.3,9.7 1.19,13.95 0.45,1.35 2.61,0.75 2.16,-0.59 -1.41,-4 -0.89,-9.11 -1.12,-13.36 -0.07,-1.49 -2.31,-1.49 -2.23,0 z"
       id="path382702" /><path
       class="cls-9"
       d="m 1074.7984,318.01593 a 100.34,100.34 0 0 0 2.31,14 1.13,1.13 0 0 0 2.17,-0.61 100.35,100.35 0 0 1 -2.24,-13.43 c -0.15,-1.42 -2.39,-1.42 -2.24,0 z"
       id="path382704" /><path
       d="m 966.27837,334.95593 c 2.68,-4.1 5.45002,-8.28 9.40002,-11.27 5.6,-4.25 12,-3.73 18.21,-0.74 9.48001,4.62 16.87001,12.76 26.57001,16.94 7.54,3.21 17,4.25 24,-0.9 3.21,-2.39 5.37,-5.74 7.61,-9 3.43,-5.07 7.16,-8.65 13.13,-10.52 12.17,-3.73 25.9,-0.67 35.68,7.31 1.12,0.9 2.68,-0.67 1.56,-1.56 a 41.88,41.88 0 0 0 -28.16,-9.51 34.8,34.8 0 0 0 -14.7,3.7 c -4.33,2.32 -7.09,6.05 -9.78,9.93 -3.36,5 -6.94,9.48 -13.14,10.67 -6,1.2 -12.31,-0.52 -17.61,-3.21 -10.22,-5.3 -18.43,-15.15 -29.85001,-18 -11.64,-2.91 -19.18002,6.34 -24.85002,15 a 1.14,1.14 0 0 0 1.94,1.19 z"
       id="path382706" /><path
       d="m 964.41837,318.83593 c 4.4,9.11 9.70002,19.26 20.23002,22.09 10.82,2.91 17.09001,-5.82 25.15001,-11.12 a 38.91,38.91 0 0 1 31.94,-4.55 c 5.67,1.72 10.22,5.22 15.3,8 a 25,25 0 0 0 15.15,2.91 c 12.39,-1.72 21.27,-11.2 29.25,-19.93 1,-1 -0.59,-2.69 -1.56,-1.57 -9.18,10.15 -21.94,23.44 -37.24,18.66 -6.35,-2 -11.42,-6.87 -17.62,-9.25 a 40.21,40.21 0 0 0 -16.27,-2.54 41.24,41.24 0 0 0 -15.22,3.66 c -5.67,2.61 -9.78,6.86 -14.7,10.44 -6.72001,4.86 -14.41001,4.48 -20.90001,-0.74 -5.45,-4.41 -8.58002,-11 -11.57002,-17.24 -0.59,-1.2 -2.54,-0.08 -1.94,1.19 z"
       id="path382708" /><path
       class="cls-8"
       d="m 980.46839,218.08593 c -0.23,2.32 0.37,4.48 0.74,6.72 a 80.91,80.91 0 0 1 0.82,8.58 c 0.08,1.42 2.32,1.42 2.24,0 -0.07,-2.31 -0.22,-4.63 -0.52,-6.94 -0.37,-2.76 -1.27,-5.52 -1,-8.28 0.07,-1.5 -2.16,-1.5 -2.31,-0.08 z"
       id="path382710" /><path
       class="cls-8"
       d="m 1015.0984,218.31593 c -0.6,4.47 0.74,9.7 1.26,14.18 0.15,1.41 2.39,1.41 2.24,0 -0.22,-2.24 -0.52,-4.56 -0.74,-6.8 -0.22,-2.24 -0.9,-4.62 -0.6,-6.79 0.22,-1.42 -1.94,-2 -2.16,-0.59 z"
       id="path382712" /><path
       class="cls-8"
       d="m 1018.8984,217.40593 c 1,5.07 1.87,10.22 2.54,15.37 0.15,1.42 2.39,1.42 2.24,0 -0.6,-5.37 -1.49,-10.67 -2.61,-16 -0.3,-1.42 -2.47,-0.82 -2.17,0.6 z"
       id="path382714" /><path
       class="cls-8"
       d="m 1057.2784,216.07593 c -0.07,4.7 -0.15,9.4 -0.07,14.18 a 1.12,1.12 0 0 0 2.24,0 c -0.08,-4.71 -0.08,-9.41 0.07,-14.18 a 1.12,1.12 0 1 0 -2.24,0 z"
       id="path382716" /><path
       class="cls-8"
       d="m 1074.8684,222.34593 v 7.06 a 1.12,1.12 0 0 0 2.24,0 v -7.06 a 1.12,1.12 0 1 0 -2.24,0 z"
       id="path382718" /><path
       class="cls-7"
       d="m 975.98839,219.95593 a 49.58,49.58 0 0 1 2.83,13.58 c 0.08,1.42 2.32,1.42 2.24,0 a 50.42,50.42 0 0 0 -2.91,-14.13 c -0.52,-1.34 -2.68,-0.75 -2.16,0.6 z"
       id="path382720" /><path
       class="cls-7"
       d="m 1030.5384,218.23593 a 51.46,51.46 0 0 1 2.09,11.17 c 0.15,1.41 2.39,1.41 2.24,0 a 57.7,57.7 0 0 0 -2.16,-11.8 1.13,1.13 0 0 0 -2.17,0.6 z"
       id="path382722" /><path
       class="cls-7"
       d="m 1033.6784,219.50593 a 45.9,45.9 0 0 0 2.16,6.27 c 0.6,1.34 2.47,0.15 1.94,-1.12 a 41.36,41.36 0 0 1 -1.94,-5.75 1.1208925,1.1208925 0 0 0 -2.16,0.6 z"
       id="path382724" /><path
       class="cls-7"
       d="m 1064.9484,217.86593 c 0.37,4.77 0.67,9.55 1,14.4 0.08,1.42 2.32,1.42 2.24,0 -0.37,-4.77 -0.67,-9.55 -1,-14.4 -0.15,-1.42 -2.39,-1.42 -2.24,0 z"
       id="path382726" /><path
       class="cls-6"
       d="m 985.68839,217.63593 a 153.94,153.94 0 0 1 0.15,16.5 c -0.07,1.42 2.16,1.42 2.24,0 a 153.94,153.94 0 0 0 -0.15,-16.5 c -0.15,-1.41 -2.39,-1.49 -2.24,0 z"
       id="path382728" /><path
       class="cls-6"
       d="m 1022.6284,217.11593 c 2.76,4.85 2.76,10.52 4.11,15.82 a 1.12,1.12 0 0 0 2.16,-0.59 c -1.34,-5.53 -1.42,-11.35 -4.33,-16.35 a 1.1200446,1.1200446 0 0 0 -1.94,1.12 z"
       id="path382730" /><path
       class="cls-6"
       d="m 1061.5884,215.77593 a 96.26,96.26 0 0 1 0.15,16.72 c -0.07,1.41 2.16,1.41 2.24,0 a 113.71,113.71 0 0 0 -0.15,-16.72 c -0.08,-1.42 -2.31,-1.42 -2.24,0 z"
       id="path382732" /><path
       class="cls-6"
       d="m 1078.6784,223.08593 a 14.23,14.23 0 0 0 -0.15,4 c 0.15,1.42 2.39,1.42 2.24,0 a 17.16,17.16 0 0 1 0.08,-3.36 1.12,1.12 0 0 0 -0.75,-1.34 1.06,1.06 0 0 0 -1.42,0.74 z"
       id="path382734" /><path
       class="cls-9"
       d="m 971.87839,221.89593 a 29,29 0 0 1 3.4,9.63 c 0.22,1.41 2.39,0.82 2.16,-0.6 a 32.15,32.15 0 0 0 -3.66,-10.15 1.1200446,1.1200446 0 0 0 -1.94,1.12 z"
       id="path382736" /><path
       class="cls-9"
       d="m 993.59839,223.16593 c 0.52,2.16 0.9,4.33 1.2,6.49 0.22,1.42 2.46,1.42 2.23,0 -0.29,-2.39 -0.74,-4.7 -1.26,-7.09 -0.3,-1.42 -2.47,-0.82 -2.17,0.6 z"
       id="path382738" /><path
       class="cls-9"
       d="m 997.32839,225.47593 0.9,1.57 a 1.18,1.18 0 0 0 1.57,0.37 1.12,1.12 0 0 0 0.37001,-1.57 l -0.90001,-1.56 a 1.16,1.16 0 0 0 -1.56,-0.38 1.28,1.28 0 0 0 -0.38,1.57 z"
       id="path382740" /><path
       class="cls-9"
       d="m 1026.8084,216.07593 c 1,4.85 2,9.77 3,14.62 0.3,1.42 2.46,0.83 2.16,-0.59 -1,-4.85 -2,-9.78 -3,-14.63 -0.3,-1.34 -2.47,-0.75 -2.17,0.6 z"
       id="path382742" /><path
       class="cls-9"
       d="m 1069.1284,218.45593 a 124.21,124.21 0 0 1 2.09,12.54 c 0.15,1.42 2.39,1.42 2.24,0 a 132.83,132.83 0 0 0 -2.24,-13.13 c -0.23,-1.42 -2.39,-0.82 -2.09,0.59 z"
       id="path382744" /><path
       class="cls-9"
       d="m 1052.7784,216.51593 a 60.46,60.46 0 0 0 0.23,11.57 c 0.15,1.42 2.39,1.42 2.24,0 a 66.74,66.74 0 0 1 -0.23,-11.57 c 0.15,-1.41 -2.09,-1.41 -2.24,0 z"
       id="path382746" /><path
       class="cls-9"
       d="m 1049.3484,218.40593 a 44.07,44.07 0 0 0 0.45,6.27 c 0.15,1.42 2.39,1.42 2.24,0 a 44.07,44.07 0 0 1 -0.45,-6.27 1.12,1.12 0 0 0 -2.24,0 z"
       id="path382748" /><path
       class="cls-9"
       d="m 1012.2784,220.99593 a 70.18,70.18 0 0 0 0.6,10.53 c 0.15,1.41 2.38,1.41 2.24,0 a 69.65,69.65 0 0 1 -0.6,-10.53 1.12,1.12 0 0 0 -2.24,0 z"
       id="path382750" /><path
       class="cls-7"
       d="m 989.71839,220.25593 c 0.08,4 0.22,7.83 0.3,11.79 a 1.12,1.12 0 0 0 2.24,0 c -0.08,-4 -0.23,-7.84 -0.3,-11.79 -0.07,-1.42 -2.31,-1.5 -2.24,0 z"
       id="path382752" /><path
       class="cls-6"
       d="m 968.67839,224.20593 c 0.67,2.17 1.34,4.4 2,6.57 0.45,1.34 2.61,0.82 2.16,-0.6 -0.67,-2.16 -1.34,-4.4 -2,-6.57 a 1.1208925,1.1208925 0 0 0 -2.16,0.6 z"
       id="path382754" /><path
       class="cls-6"
       d="m 1008.1484,224.95593 a 22.48,22.48 0 0 0 0.23,4.45 1.14,1.14 0 0 0 1.12,1.11 c 0.52,0 1.19,-0.52 1.12,-1.11 a 22.48,22.48 0 0 1 -0.23,-4.48 c 0.08,-1.42 -2.16,-1.42 -2.24,0 z"
       id="path382756" /><path
       class="cls-6"
       d="m 1045.1684,220.77593 c 0.45,0.89 0.9,1.71 1.34,2.61 0.68,1.27 2.62,0.15 2,-1.12 -0.45,-0.89 -0.9,-1.72 -1.35,-2.61 -0.67,-1.27 -2.61,-0.15 -1.94,1.12 z"
       id="path382758" /><path
       class="cls-6"
       d="m 1091.2184,221.81593 c 0.3,1.57 0.6,3.14 0.89,4.7 0.29,1.56 2.39,0.83 2.17,-0.59 l -0.9,-4.7 c -0.3,-1.42 -2.46,-0.82 -2.16,0.59 z"
       id="path382760" /><path
       class="cls-6"
       d="m 1101.6684,215.02593 c 0.44,3.81 1.12,7.54 1.86,11.27 0.3,1.42 2.47,0.82 2.17,-0.6 -0.75,-3.5 -1.35,-7.09 -1.79,-10.67 -0.23,-1.42 -2.47,-1.42 -2.24,0 z"
       id="path382762" /><path
       class="cls-7"
       d="m 1088.8284,225.54593 h 0.45 a 1.12,1.12 0 1 0 0,-2.23 h -0.45 a 1.12,1.12 0 1 0 0,2.23 z"
       id="path382764" /><path
       class="cls-7"
       d="m 1104.7284,214.20593 a 105.42,105.42 0 0 0 1.49,10.82 c 0.3,1.42 2.46,0.82 2.16,-0.59 a 78.15,78.15 0 0 1 -1.41,-10.23 c -0.15,-1.42 -2.39,-1.42 -2.24,0 z"
       id="path382766" /><path
       class="cls-8"
       d="m 1094.2784,220.02593 a 21.5,21.5 0 0 1 1,6.49 1.12,1.12 0 0 0 2.24,0 23,23 0 0 0 -1.08,-7.11 1.1208925,1.1208925 0 0 0 -2.16,0.6 z"
       id="path382768" /><path
       class="cls-9"
       d="m 1097.7084,217.71593 c 1.34,3.36 0.23,7.16 1.79,10.52 0.6,1.27 2.54,0.15 1.94,-1.12 -1.49,-3.06 -0.3,-6.79 -1.56,-9.92 -0.53,-1.42 -2.69,-0.82 -2.17,0.52 z"
       id="path382770" /><path
       d="m 967.02837,230.32593 a 14.72,14.72 0 0 1 9.63002,-10.92 c 5.52,-1.94 11.05,-0.59 16.2,1.87 9.62001,4.63 17.91001,12.69 28.95001,13.66 10.45,0.89 16.35,-7.17 23.21,-13.44 5,-4.55 10.53,-6.71 17.32,-5.52 6.19,1.12 11.94,4.33 17.46,7.17 9.33,4.77 21,9.18 30.45,2.38 1.12,-0.82 0.07,-2.76 -1.12,-1.94 -11.19,8.14 -24.25,-0.74 -34.7,-5.67 -9.41,-4.48 -19.63,-6.86 -28.51,0 -4,3.06 -7.09,7 -10.9,10.23 a 18.4,18.4 0 0 1 -18.43,3.5 c -11.2,-3.58 -19.70001,-13.43 -31.57001,-15.15 -9.11,-1.34 -18.14002,4.18 -20.15002,13.36 a 1.11,1.11 0 0 0 2.16,0.45 z"
       id="path382772" /><path
       d="m 965.61837,233.83593 c 4.17002,-4.11 11.41002,1.72 16.26002,2.24 a 19.79,19.79 0 0 0 10.75,-2 c 8.36001,-3.73 15.00001,-10.37 23.00001,-14.7 4.33,-2.31 9.18,-4 14.1,-3.13 4.92,0.87 9.18,3.65 13.14,6.56 6.86,5 14.18,12 23.21,12.09 6.57,0.08 12.24,-4 17.61,-7.38 l 22.24,-14 c 1.2,-0.75 0.08,-2.69 -1.12,-1.94 -6.34,4 -12.76,8 -19.1,12 -5.83,3.66 -12.39,9.11 -19.56,9 -10.07,-0.07 -18.06,-9.47 -26,-14.4 -7.47,-4.63 -15.15,-5.67 -23.29,-1.94 -8.51,3.88 -15.15,10.75 -23.43001,15 -4.85,2.54 -9.93,3.51 -15.23,1.57 -4.7,-1.72 -9.92,-4.7 -14.10002,-0.6 a 1.1101576,1.1101576 0 1 0 1.57,1.57 z"
       id="path382774" /><path
       class="cls-8"
       d="m 972.92839,246.96593 c -0.22,2.32 0.37,4.48 0.75,6.72 a 83.9,83.9 0 0 1 0.82,8.58 c 0.07,1.42 2.31,1.42 2.24,0 -0.08,-2.31 -0.23,-4.62 -0.53,-6.94 -0.37,-2.76 -1.27,-5.52 -1,-8.28 0.08,-1.49 -2.16,-1.49 -2.31,-0.08 z"
       id="path382776" /><path
       class="cls-8"
       d="m 1007.5584,247.19593 c -0.6,4.48 0.74,9.7 1.27,14.18 0.15,1.42 2.38,1.42 2.24,0 -0.23,-2.24 -0.53,-4.56 -0.75,-6.79 -0.22,-2.23 -0.9,-4.63 -0.6,-6.8 0.15,-1.41 -1.94,-2 -2.16,-0.59 z"
       id="path382778" /><path
       class="cls-8"
       d="m 1011.2784,246.29593 c 1,5.08 1.87,10.23 2.54,15.38 0.15,1.41 2.38,1.41 2.24,0 -0.6,-5.38 -1.5,-10.68 -2.62,-16 -0.29,-1.34 -2.46,-0.74 -2.16,0.6 z"
       id="path382780" /><path
       class="cls-8"
       d="m 1049.6484,244.95593 c -0.08,4.7 -0.15,9.4 -0.08,14.18 a 1.12,1.12 0 0 0 2.24,0 c -0.07,-4.7 -0.07,-9.4 0.08,-14.18 a 1.12,1.12 0 0 0 -2.24,0 z"
       id="path382782" /><path
       class="cls-8"
       d="m 1067.3384,251.22593 v 7.09 a 1.12,1.12 0 0 0 2.24,0 v -7.09 a 1.12,1.12 0 0 0 -2.24,0 z"
       id="path382784" /><path
       class="cls-7"
       d="m 968.37839,248.90593 a 50.48,50.48 0 0 1 2.83,13.59 c 0.08,1.41 2.32,1.41 2.24,0 a 51.13,51.13 0 0 0 -2.91,-14.18 c -0.52,-1.35 -2.69,-0.82 -2.16,0.59 z"
       id="path382786" /><path
       class="cls-7"
       d="m 1023.0084,247.11593 a 52.06,52.06 0 0 1 2.09,11.2 c 0.15,1.42 2.38,1.42 2.23,0 a 56.94,56.94 0 0 0 -2.16,-11.79 c -0.45,-1.35 -2.61,-0.75 -2.16,0.59 z"
       id="path382788" /><path
       class="cls-7"
       d="m 1026.0684,248.40593 a 42.53,42.53 0 0 0 2.16,6.27 c 0.6,1.34 2.46,0.15 1.94,-1.12 a 39.27,39.27 0 0 1 -1.94,-5.75 1.1208925,1.1208925 0 0 0 -2.16,0.6 z"
       id="path382790" /><path
       class="cls-7"
       d="m 1057.3384,246.74593 c 0.37,4.78 0.67,9.55 1,14.4 0.08,1.42 2.31,1.42 2.24,0 -0.37,-4.77 -0.67,-9.55 -1,-14.4 -0.08,-1.42 -2.32,-1.42 -2.24,0 z"
       id="path382792" /><path
       class="cls-6"
       d="m 978.07839,246.52593 a 153.76,153.76 0 0 1 0.15,16.49 c -0.08,1.42 2.16,1.42 2.24,0 a 153.76,153.76 0 0 0 -0.15,-16.49 c -0.08,-1.42 -2.32,-1.42 -2.24,0 z"
       id="path382794" /><path
       class="cls-6"
       d="m 1015.0984,245.99593 c 2.76,4.85 2.76,10.53 4.1,15.83 a 1.1208925,1.1208925 0 0 0 2.16,-0.6 c -1.34,-5.52 -1.41,-11.35 -4.32,-16.35 -0.75,-1.26 -2.69,-0.07 -1.94,1.12 z"
       id="path382796" /><path
       class="cls-6"
       d="m 1054.0484,244.65593 a 95.28,95.28 0 0 1 0.15,16.72 c -0.07,1.42 2.17,1.42 2.24,0 a 113.71,113.71 0 0 0 -0.15,-16.72 c -0.15,-1.42 -2.39,-1.42 -2.24,0 z"
       id="path382798" /><path
       class="cls-6"
       d="m 1071.0684,251.96593 a 13.87,13.87 0 0 0 -0.15,4 c 0.15,1.42 2.39,1.42 2.24,0 a 16.42,16.42 0 0 1 0.07,-3.36 1.1208925,1.1208925 0 0 0 -2.16,-0.6 z"
       id="path382800" /><path
       class="cls-9"
       d="m 964.34837,250.84593 a 29.42,29.42 0 0 1 3.43002,9.63 c 0.22,1.42 2.39,0.82 2.16,-0.6 a 32.32,32.32 0 0 0 -3.66002,-10.14 1.12,1.12 0 0 0 -1.94,1.11 z"
       id="path382802" /><path
       class="cls-9"
       d="m 986.05839,252.04593 a 64.24,64.24 0 0 1 1.2,6.49 c 0.22,1.42 2.46,1.42 2.24,0 -0.3,-2.39 -0.75,-4.7 -1.27,-7.09 a 1.13,1.13 0 0 0 -2.17,0.6 z"
       id="path382804" /><path
       class="cls-9"
       d="m 989.79839,254.40593 c 0.29,0.52 0.59,1 0.89,1.56 a 1.17,1.17 0 0 0 1.59,0.44 1.12,1.12 0 0 0 0.37,-1.57 c -0.3,-0.52 -0.6,-1 -0.89,-1.57 a 1.14057,1.14057 0 0 0 -1.94,1.2 z"
       id="path382806" /><path
       class="cls-9"
       d="m 1019.1984,245.02593 c 1,4.85 2,9.78 3,14.63 0.29,1.42 2.46,0.82 2.16,-0.6 -1,-4.85 -2,-9.77 -3,-14.62 -0.29,-1.42 -2.46,-0.82 -2.16,0.59 z"
       id="path382808" /><path
       class="cls-9"
       d="m 1061.5184,247.34593 a 124.49,124.49 0 0 1 2.09,12.53 c 0.14,1.42 2.38,1.42 2.23,0 a 129.92,129.92 0 0 0 -2.23,-13.13 c -0.23,-1.42 -2.39,-0.82 -2.09,0.6 z"
       id="path382810" /><path
       class="cls-9"
       d="m 1045.2784,245.47593 a 59.67,59.67 0 0 0 0.22,11.57 c 0.15,1.42 2.39,1.42 2.24,0 a 65.78,65.78 0 0 1 -0.22,-11.57 c 0.07,-1.49 -2.17,-1.42 -2.24,0 z"
       id="path382812" /><path
       class="cls-9"
       d="m 1041.8084,247.26593 a 44.07,44.07 0 0 0 0.45,6.27 c 0.15,1.42 2.39,1.42 2.24,0 a 44.07,44.07 0 0 1 -0.45,-6.27 1.12,1.12 0 0 0 -2.24,0 z"
       id="path382814" /><path
       class="cls-9"
       d="m 1004.6484,249.87593 a 71.51,71.51 0 0 0 0.63,10.53 c 0.15,1.42 2.39,1.42 2.24,0 a 70.9,70.9 0 0 1 -0.59,-10.53 c 0.07,-1.41 -2.17,-1.41 -2.24,0 z"
       id="path382816" /><path
       class="cls-7"
       d="m 982.10839,249.13593 c 0.07,4 0.22,7.83 0.3,11.79 a 1.12,1.12 0 0 0 2.24,0 c -0.08,-4 -0.23,-7.84 -0.3,-11.79 a 1.12,1.12 0 0 0 -2.24,0 z"
       id="path382818" /><path
       class="cls-6"
       d="m 961.13837,253.08593 c 0.67,2.17 1.34,4.41 2,6.57 0.45,1.34 2.61,0.82 2.17,-0.6 -0.67,-2.16 -1.35,-4.4 -2,-6.56 -0.45,-1.35 -2.61,-0.75 -2.16,0.59 z"
       id="path382820" /><path
       class="cls-6"
       d="m 1000.6184,253.83593 a 22.47,22.47 0 0 0 0.22,4.48 1.16,1.16 0 0 0 1.12,1.12 c 0.52,0 1.19,-0.53 1.12,-1.12 a 22.47,22.47 0 0 1 -0.22,-4.48 1.12,1.12 0 0 0 -2.24,0 z"
       id="path382822" /><path
       class="cls-6"
       d="m 1037.6284,249.73593 c 0.45,0.89 0.9,1.71 1.35,2.61 0.67,1.27 2.61,0.15 1.94,-1.12 -0.45,-0.9 -0.9,-1.72 -1.35,-2.61 -0.67,-1.35 -2.61,-0.23 -1.94,1.12 z"
       id="path382824" /><path
       class="cls-6"
       d="m 1083.6084,250.70593 c 0.29,1.56 0.59,3.13 0.89,4.7 0.3,1.41 2.39,0.82 2.17,-0.6 l -0.9,-4.7 c -0.3,-1.42 -2.39,-0.82 -2.16,0.6 z"
       id="path382826" /><path
       class="cls-6"
       d="m 1094.0484,243.90593 c 0.45,3.81 1.12,7.54 1.87,11.27 0.3,1.42 2.46,0.82 2.16,-0.59 -0.74,-3.51 -1.34,-7.09 -1.79,-10.68 -0.15,-1.41 -2.38,-1.41 -2.24,0 z"
       id="path382828" /><path
       class="cls-7"
       d="m 1081.2184,254.40593 h 0.45 a 1.12,1.12 0 1 0 0,-2.24 h -0.45 a 1.14,1.14 0 0 0 -1.12,1.12 1.2,1.2 0 0 0 1.12,1.12 z"
       id="path382830" /><path
       class="cls-7"
       d="m 1097.1084,243.08593 a 105.44,105.44 0 0 0 1.5,10.82 c 0.3,1.42 2.46,0.83 2.16,-0.59 a 79.66,79.66 0 0 1 -1.42,-10.23 c -0.07,-1.42 -2.31,-1.42 -2.24,0 z"
       id="path382832" /><path
       class="cls-8"
       d="m 1086.6684,248.90593 a 21.52,21.52 0 0 1 1,6.5 1.12,1.12 0 0 0 2.24,0 22.86,22.86 0 0 0 -1,-7.09 c -0.45,-1.35 -2.61,-0.82 -2.16,0.59 z"
       id="path382834" /><path
       class="cls-9"
       d="m 1090.1684,246.59593 c 1.35,3.36 0.23,7.17 1.8,10.52 0.59,1.27 2.53,0.15 1.94,-1.12 -1.5,-3.06 -0.3,-6.79 -1.57,-9.92 -0.52,-1.42 -2.69,-0.82 -2.17,0.52 z"
       id="path382836" /><path
       d="m 959.41837,259.28593 a 14.7,14.7 0 0 1 9.63002,-10.9 c 5.52,-1.94 11,-0.6 16.19,1.87 9.63,4.62 17.91001,12.68 29.00001,13.65 10.45,0.9 16.34,-7.16 23.21,-13.43 5,-4.55 10.52,-6.72 17.31,-5.52 6.2,1.12 11.95,4.33 17.47,7.16 9.33,4.78 21,9.18 30.45,2.39 1.12,-0.82 0.07,-2.76 -1.12,-1.94 -11.2,8.14 -24.26,-0.75 -34.71,-5.67 -9.4,-4.48 -19.62,-6.87 -28.5,0 -4,3.06 -7.09,7 -10.9,10.22 a 18.39,18.39 0 0 1 -18.43,3.51 c -11.20001,-3.58 -19.71001,-13.43 -31.57001,-15.15 -9.17,-1.34 -18.17002,4.18 -20.17002,13.36 -0.3,1.19 1.86,1.79 2.16,0.45 z"
       id="path382838" /><path
       d="m 958.07837,262.79593 c 4.18,-4.11 11.42002,1.71 16.27002,2.23 a 19.75,19.75 0 0 0 10.74,-2 c 8.36,-3.73 15.00001,-10.37 23.00001,-14.7 4.33,-2.32 9.18,-4 14.11,-3.14 4.93,0.86 9.17,3.66 13.13,6.57 6.87,5 14.18,12 23.21,12.09 6.57,0.07 12.24,-4 17.61,-7.39 7.39,-4.63 14.85,-9.33 22.24,-14 1.2,-0.75 0.08,-2.69 -1.12,-1.94 -6.34,4 -12.76,8 -19.1,12 -5.82,3.66 -12.39,9.11 -19.55,9 -10.08,-0.07 -18.07,-9.48 -26.05,-14.4 -7.46,-4.63 -15.15,-5.67 -23.29,-1.94 -8.5,3.88 -15.15001,10.74 -23.43001,15 -4.85,2.54 -9.93,3.51 -15.22,1.57 -4.71002,-1.72 -9.93002,-4.71 -14.11002,-0.6 -1,1 0.52,2.54 1.57,1.57 z"
       id="path382840" /><path
       class="cls-6"
       d="m 990.27839,353.68593 a 82.62,82.62 0 0 1 0.82,10.38 1.12,1.12 0 0 0 2.24,0 90,90 0 0 0 -0.9,-11 c -0.15,-1.42 -2.31,-0.82 -2.16,0.59 z"
       id="path382842" /><path
       class="cls-6"
       d="m 995.27839,351.89593 c 0.9,5.15 1.87,10.38 2.77001,15.53 0.22,1.41 2.38,0.82 2.16,-0.6 -0.9,-5.15 -1.87,-10.37 -2.76001,-15.52 -0.23,-1.42 -2.39,-0.82 -2.17,0.59 z"
       id="path382844" /><path
       class="cls-6"
       d="m 1036.0684,355.03593 c 0.07,4.25 0.22,8.51 0.52,12.76 0.07,1.42 2.31,1.42 2.24,0 -0.3,-4.25 -0.52,-8.51 -0.52,-12.76 -0.08,-1.42 -2.32,-1.42 -2.24,0 z"
       id="path382846" /><path
       class="cls-6"
       d="m 1052.1884,355.25593 c 0.52,4.55 0.89,9.18 1.79,13.73 0.3,1.42 2.46,0.83 2.16,-0.59 -0.82,-4.33 -1.19,-8.73 -1.71,-13.14 -0.15,-1.42 -2.39,-1.42 -2.24,0 z"
       id="path382848" /><path
       class="cls-6"
       d="m 1096.5884,349.21593 a 43,43 0 0 0 1.35,10.74 1.12,1.12 0 0 0 2.16,-0.59 42.57,42.57 0 0 1 -1.27,-10.15 1.12,1.12 0 0 0 -2.24,0 z"
       id="path382850" /><path
       class="cls-7"
       d="m 1005.9184,350.92593 c 0.89,5.82 1.71,11.72 2.31,17.62 0.15,1.41 2.39,1.41 2.24,0 -0.67,-6.12 -1.42,-12.17 -2.39,-18.21 -0.22,-1.42 -2.39,-0.82 -2.16,0.59 z"
       id="path382852" /><path
       class="cls-7"
       d="m 1043.9784,354.58593 c 0.37,3.21 0.82,6.42 1.19,9.63 0.23,2.09 0,5.15 1.12,6.94 a 1.12,1.12 0 0 0 1.79,0.22 c 0,-0.07 0.08,-0.07 0.08,-0.15 a 1.08,1.08 0 0 0 0,-1.56 l -0.08,-0.08 c -1.12,-1 -2.68,0.67 -1.56,1.57 l 0.07,0.07 v -1.56 c 0,0.07 -0.07,0.07 -0.07,0.15 l 1.79,0.22 c -1.05,-1.72 -0.82,-5.75 -1.05,-7.61 -0.3,-2.62 -0.67,-5.23 -1,-7.84 -0.22,-1.42 -2.46,-1.42 -2.31,0 z"
       id="path382854" /><path
       class="cls-7"
       d="m 1073.9084,353.16593 a 82.52,82.52 0 0 0 0.29,9.56 c 0.15,1.41 2.39,1.41 2.24,0 a 82.53,82.53 0 0 1 -0.3,-9.56 c 0.08,-1.42 -2.16,-1.42 -2.23,0 z"
       id="path382856" /><path
       class="cls-8"
       d="m 1000.1684,351.45593 c 1.79,5.89 3.36,11.86 4.55,17.83 0.3,1.42 2.47,0.82 2.17,-0.59 a 177.19,177.19 0 0 0 -4.56,-17.84 1.1208973,1.1208973 0 0 0 -2.16,0.6 z"
       id="path382858" /><path
       class="cls-8"
       d="m 1030.0984,356.89593 c 0.74,3.06 1.34,6.2 1.94,9.33 0.22,1.42 2.39,0.82 2.16,-0.59 -0.52,-3.14 -1.19,-6.27 -1.94,-9.33 a 1.12,1.12 0 0 0 -2.16,0.59 z"
       id="path382860" /><path
       class="cls-8"
       d="m 1083.9084,348.31593 c 0.59,5.37 1.26,10.67 1.86,16.05 0.15,1.42 2.39,1.42 2.24,0 -0.6,-5.38 -1.27,-10.68 -1.87,-16.05 -0.14,-1.42 -2.38,-1.42 -2.23,0 z"
       id="path382862" /><path
       class="cls-8"
       d="m 1101.8884,350.40593 c 0.3,2.17 0.6,4.26 1,6.34 0.29,1.42 2.46,0.83 2.16,-0.59 -0.37,-1.94 -0.75,-3.81 -1,-5.75 -0.15,-1.42 -2.39,-1.42 -2.24,0 z"
       id="path382864" /><path
       class="cls-9"
       d="m 1011.7384,356.45593 c 0.74,3.06 1.42,6 2.16,9.1 0.3,1.42 2.46,0.82 2.17,-0.6 -0.75,-3.06 -1.42,-6 -2.17,-9.1 a 1.1208925,1.1208925 0 0 0 -2.16,0.6 z"
       id="path382866" /><path
       class="cls-9"
       d="m 1016.3584,359.40593 c 0.45,1 0.83,1.94 1.27,2.91 0.38,0.82 0.6,1.79 1.42,2.24 a 1,1 0 0 0 1.12,0 1.27,1.27 0 0 0 0.15,-2.17 l -0.07,-0.07 c -1.2,-0.75 -2.32,1.19 -1.12,1.94 l 0.07,0.07 c -0.15,-0.45 -0.37,-0.82 -0.52,-1.27 v 0.15 c 0.15,-0.22 0.37,-0.44 0.52,-0.67 -0.07,0 -0.07,0.08 -0.15,0.08 h 1.12 c 0.15,0.15 0.15,0.07 -0.07,-0.3 -0.22,-0.37 -0.23,-0.45 -0.3,-0.67 -0.15,-0.38 -0.3,-0.68 -0.45,-1 -0.37,-0.82 -0.67,-1.57 -1,-2.39 -0.53,-1.27 -2.47,-0.15 -1.95,1.2 z"
       id="path382868" /><path
       class="cls-9"
       d="m 1039.7184,355.33593 c 1.2,4.77 0.3,9.7 1.57,14.48 a 1.13,1.13 0 0 0 2.17,-0.6 c -1.35,-4.7 -0.38,-9.7 -1.57,-14.48 a 1.13,1.13 0 0 0 -2.17,0.6 z"
       id="path382870" /><path
       class="cls-9"
       d="m 1057.7084,356.97593 1.57,8.36 c 0.22,1.42 2.39,0.82 2.16,-0.6 -0.52,-2.76 -1,-5.6 -1.57,-8.36 -0.29,-1.42 -2.46,-0.82 -2.16,0.6 z"
       id="path382872" /><path
       class="cls-9"
       d="m 1078.9784,350.18593 c 0.22,4.4 -0.3,9.7 1.19,13.95 0.45,1.35 2.62,0.75 2.17,-0.59 -1.42,-4 -0.9,-9.11 -1.12,-13.36 -0.08,-1.42 -2.31,-1.42 -2.24,0 z"
       id="path382874" /><path
       class="cls-9"
       d="m 1090.0284,348.54593 a 98.89,98.89 0 0 0 2.31,14 1.1208925,1.1208925 0 0 0 2.16,-0.6 102,102 0 0 1 -2.22,-13.4 c -0.07,-1.42 -2.31,-1.42 -2.23,0 z"
       id="path382876" /><path
       d="m 981.58839,365.40593 c 2.68,-4.1 5.44,-8.28 9.4,-11.27 5.6,-4.25 12.00001,-3.73 18.21001,-0.74 9.48,4.62 16.87,12.76 26.57,16.94 7.54,3.21 17,4.25 24,-0.9 3.2,-2.39 5.37,-5.74 7.61,-9 3.43,-5.07 7.16,-8.66 13.13,-10.52 12.17,-3.73 25.9,-0.67 35.68,7.31 1.12,0.9 2.68,-0.67 1.56,-1.56 a 41.88,41.88 0 0 0 -28.13,-9.48 34.8,34.8 0 0 0 -14.7,3.65 c -4.33,2.32 -7.09,6 -9.78,9.93 -3.36,5 -6.94,9.48 -13.14,10.67 -6,1.2 -12.31,-0.52 -17.61,-3.21 -10.22,-5.3 -18.43,-15.15 -29.85,-18 -11.64001,-2.91 -19.18001,6.34 -24.85001,15 -0.82,1.27 1.12,2.39 1.94,1.19 z"
       id="path382878" /><path
       d="m 979.71839,349.40593 c 4.4,9.1 9.7,19.25 20.23001,22.09 10.82,2.91 17.09,-5.82 25.15,-11.12 a 38.91,38.91 0 0 1 31.94,-4.56 c 5.67,1.72 10.22,5.23 15.3,8 a 24.89,24.89 0 0 0 15.15,2.91 c 12.39,-1.72 21.27,-11.19 29.25,-19.93 1,-1 -0.59,-2.68 -1.56,-1.56 -9.18,10.15 -21.95,23.43 -37.24,18.65 -6.35,-2 -11.42,-6.86 -17.62,-9.25 a 40.21,40.21 0 0 0 -16.27,-2.54 41.59,41.59 0 0 0 -15.22,3.66 c -5.67,2.61 -9.78,6.87 -14.7,10.45 -6.72,4.85 -14.41,4.48 -20.90001,-0.75 -5.45,-4.4 -8.58,-11 -11.57,-17.24 -0.67,-1.27 -2.61,-0.15 -1.94,1.2 z"
       id="path382880" /><path
       class="cls-6"
       d="m 976.35839,382.87593 a 78.74,78.74 0 0 1 0.82,10.37 1.12,1.12 0 0 0 2.24,0 90.11,90.11 0 0 0 -0.89,-11 c -0.23,-1.42 -2.39,-0.82 -2.17,0.6 z"
       id="path382882" /><path
       class="cls-6"
       d="m 981.27839,381.07593 c 0.89,5.15 1.86,10.38 2.76,15.53 0.22,1.42 2.39,0.82 2.16,-0.6 -0.89,-5.15 -1.86,-10.37 -2.76,-15.52 -0.3,-1.42 -2.46,-0.82 -2.16,0.59 z"
       id="path382884" /><path
       class="cls-6"
       d="m 1022.0384,384.21593 c 0.07,4.25 0.22,8.51 0.52,12.76 0.07,1.42 2.31,1.42 2.24,0 -0.3,-4.25 -0.52,-8.51 -0.52,-12.76 a 1.12,1.12 0 0 0 -2.24,0 z"
       id="path382886" /><path
       class="cls-6"
       d="m 1038.2784,384.40593 c 0.52,4.56 0.9,9.18 1.79,13.73 0.3,1.42 2.47,0.83 2.17,-0.59 -0.82,-4.33 -1.2,-8.73 -1.72,-13.14 -0.15,-1.42 -2.39,-1.42 -2.24,0 z"
       id="path382888" /><path
       class="cls-6"
       d="m 1082.5584,378.40593 a 43,43 0 0 0 1.35,10.74 1.12,1.12 0 0 0 2.16,-0.59 42.57,42.57 0 0 1 -1.27,-10.15 1.12,1.12 0 0 0 -2.24,0 z"
       id="path382890" /><path
       class="cls-7"
       d="m 991.88839,380.10593 c 0.89,5.83 1.71,11.72 2.31,17.62 0.15,1.41 2.39,1.41 2.24,0 -0.67,-6.12 -1.42,-12.17 -2.39,-18.21 -0.22,-1.42 -2.39,-0.82 -2.16,0.59 z"
       id="path382892" /><path
       class="cls-7"
       d="m 1029.9484,383.76593 c 0.37,3.21 0.82,6.42 1.19,9.63 0.23,2.09 0,5.15 1.12,6.94 a 1.12,1.12 0 0 0 1.79,0.22 c 0,-0.07 0.08,-0.07 0.08,-0.15 a 1.08,1.08 0 0 0 0,-1.56 l -0.08,-0.08 c -1.12,-1 -2.68,0.67 -1.57,1.57 l 0.08,0.07 v -1.56 c 0,0.07 -0.08,0.07 -0.08,0.15 l 1.8,0.22 c -1.05,-1.72 -0.82,-5.75 -1.05,-7.61 -0.3,-2.61 -0.67,-5.23 -1,-7.84 -0.22,-1.42 -2.46,-1.42 -2.31,0 z"
       id="path382894" /><path
       class="cls-7"
       d="m 1059.9484,382.34593 a 80.36,80.36 0 0 0 0.3,9.56 c 0.15,1.41 2.39,1.41 2.24,0 a 80.36,80.36 0 0 1 -0.3,-9.56 1.12,1.12 0 0 0 -2.24,0 z"
       id="path382896" /><path
       class="cls-8"
       d="m 986.20839,380.63593 c 1.8,5.89 3.36,11.86 4.56,17.83 0.29,1.42 2.46,0.82 2.16,-0.59 a 177.15,177.15 0 0 0 -4.55,-17.84 1.13,1.13 0 0 0 -2.17,0.6 z"
       id="path382898" /><path
       class="cls-8"
       d="m 1016.0684,386.15593 c 0.74,3.06 1.34,6.19 1.94,9.33 0.22,1.42 2.38,0.82 2.16,-0.6 -0.52,-3.13 -1.19,-6.27 -1.94,-9.33 -0.3,-1.42 -2.46,-0.82 -2.16,0.6 z"
       id="path382900" /><path
       class="cls-8"
       d="m 1069.9484,377.49593 c 0.6,5.38 1.27,10.67 1.87,16 0.14,1.42 2.38,1.42 2.23,0 -0.59,-5.38 -1.26,-10.67 -1.86,-16 -0.23,-1.42 -2.46,-1.42 -2.24,0 z"
       id="path382902" /><path
       class="cls-8"
       d="m 1087.9384,379.58593 c 0.29,2.17 0.59,4.26 1,6.35 0.3,1.41 2.46,0.82 2.16,-0.6 -0.37,-1.94 -0.74,-3.81 -1,-5.75 -0.22,-1.42 -2.46,-1.42 -2.23,0 z"
       id="path382904" /><path
       class="cls-9"
       d="m 997.70839,385.63593 c 0.74001,3.06 1.42001,6 2.16001,9.1 0.3,1.42 2.46,0.82 2.17,-0.6 -0.75,-3.06 -1.42,-6 -2.17,-9.1 -0.3,-1.34 -2.46001,-0.75 -2.16001,0.6 z"
       id="path382906" /><path
       class="cls-9"
       d="m 1002.4084,388.54593 c 0.45,1 0.82,1.94 1.27,2.91 0.37,0.82 0.59,1.79 1.42,2.24 a 1,1 0 0 0 1.11,0 1.21,1.21 0 0 0 0.68,-0.9 1.22,1.22 0 0 0 -0.53,-1.27 l -0.07,-0.07 c -1.19,-0.75 -2.31,1.19 -1.12,1.94 l 0.07,0.07 c -0.14,-0.44 -0.37,-0.82 -0.52,-1.27 v 0.15 c 0.15,-0.22 0.38,-0.44 0.52,-0.67 -0.07,0 -0.07,0.08 -0.14,0.08 h 1.11 c 0.15,0.15 0.15,0.07 -0.07,-0.3 -0.22,-0.37 -0.22,-0.45 -0.3,-0.67 -0.15,-0.38 -0.3,-0.68 -0.45,-1 -0.37,-0.82 -0.67,-1.57 -1,-2.39 -0.6,-1.27 -2.54,-0.15 -1.94,1.2 z"
       id="path382908" /><path
       class="cls-9"
       d="m 1025.6884,384.51593 c 1.2,4.77 0.3,9.7 1.57,14.48 a 1.13,1.13 0 0 0 2.17,-0.6 c -1.35,-4.7 -0.38,-9.7 -1.57,-14.48 a 1.13,1.13 0 0 0 -2.17,0.6 z"
       id="path382910" /><path
       class="cls-9"
       d="m 1043.6784,386.15593 c 0.52,2.76 1,5.6 1.57,8.36 0.22,1.42 2.39,0.82 2.16,-0.6 -0.52,-2.76 -1,-5.6 -1.57,-8.36 -0.22,-1.42 -2.38,-0.82 -2.16,0.6 z"
       id="path382912" /><path
       class="cls-9"
       d="m 1065.0184,379.40593 c 0.23,4.4 -0.29,9.7 1.2,13.95 0.45,1.35 2.61,0.75 2.16,-0.59 -1.42,-4 -0.89,-9.11 -1.12,-13.36 -0.07,-1.42 -2.31,-1.42 -2.24,0 z"
       id="path382914" /><path
       class="cls-9"
       d="m 1076.0684,377.72593 a 100.34,100.34 0 0 0 2.31,14 1.13,1.13 0 0 0 2.17,-0.6 100.35,100.35 0 0 1 -2.27,-13.4 c -0.15,-1.42 -2.39,-1.42 -2.24,0 z"
       id="path382916" /><path
       d="m 967.55837,394.58593 c 2.68,-4.1 5.44002,-8.28 9.40002,-11.27 5.6,-4.25 12,-3.73 18.21,-0.74 9.48001,4.62 16.87001,12.76 26.57001,16.94 7.54,3.21 17,4.25 23.95,-0.9 3.21,-2.39 5.38,-5.74 7.62,-9 3.43,-5.07 7.16,-8.65 13.13,-10.52 12.17,-3.73 25.9,-0.67 35.68,7.31 1.11,0.9 2.68,-0.67 1.56,-1.56 a 41.88,41.88 0 0 0 -28.13,-9.48 34.88,34.88 0 0 0 -14.71,3.65 c -4.32,2.32 -7.09,6 -9.77,9.93 -3.36,5 -6.94,9.48 -13.14,10.67 -6,1.2 -12.31,-0.52 -17.61,-3.21 -10.22,-5.3 -18.43,-15.15 -29.85001,-18 -11.64,-2.91 -19.18002,6.34 -24.85002,15 a 1.14,1.14 0 0 0 1.94,1.19 z"
       id="path382918" /><path
       d="m 965.68837,378.54593 c 4.4,9.1 9.70002,19.25 20.23002,22.09 10.82,2.91 17.09001,-5.82 25.15001,-11.12 a 38.87,38.87 0 0 1 31.94,-4.55 c 5.67,1.71 10.22,5.22 15.3,8 a 24.89,24.89 0 0 0 15.15,2.91 c 12.39,-1.72 21.27,-11.19 29.25,-19.93 1,-1 -0.59,-2.68 -1.56,-1.56 -9.18,10.15 -22,23.43 -37.25,18.66 -6.34,-2 -11.41,-6.87 -17.61,-9.26 a 40.41,40.41 0 0 0 -16.27,-2.54 41.59,41.59 0 0 0 -15.22,3.66 c -5.67,2.61 -9.78,6.87 -14.7,10.45 -6.72001,4.85 -14.41001,4.48 -20.90001,-0.75 -5.45,-4.4 -8.58002,-11 -11.57002,-17.24 -0.6,-1.27 -2.54,-0.15 -1.94,1.2 z"
       id="path382920" /><path
       d="m 965.83837,306.03593 c -2.61,-4 -10.52,-3.48 -14.33,-0.59 -2.76,2.09 -3.36,5.25 -3.36,8 0.08,4.17 1.2,8.35 1.72,12.53 2.39,17.79 2.69,35.63 2.16,53.48 -0.3,10.34 -0.82,20.68 -1.34,31 a 0.86,0.86 0 0 0 0.82,0.75 46.48,46.48 0 0 0 15.45,-0.91 c 1.34,-0.32 0.75,-1.88 -0.6,-1.55 a 44,44 0 0 1 -14.25,0.91 c 0.3,0.26 0.52,0.53 0.82,0.75 1,-19.61 2,-39.22 1.27,-58.84 a 260.2,260.2 0 0 0 -2.69,-29.3 c -0.6,-4.18 -2.39,-9.06 -0.52,-13.18 1.57,-3.43 9.7,-6.92 12.76,-2.31 0.75,1 2.69,0.16 2.09,-0.8 z"
       id="path382922" /><path
       d="m 1109.2084,301.10593 a 51.44,51.44 0 0 0 16.79,2.41 l -1.12,-0.8 a 388.28,388.28 0 0 0 -4.33,58 c 0,9.54 0.37,19 1,28.51 0.15,2.46 0.38,4.93 0.6,7.39 0.22,2.68 0.82,5.63 -2.09,7.77 -4.7,3.38 -12.84,4.45 -19.18,4.4 -1.42,0 -1.42,1.6 0,1.6 a 43.1,43.1 0 0 0 17.54,-3.16 c 4.78,-2 6.34,-4.71 6.12,-8.62 -0.6,-10.51 -1.64,-20.95 -1.79,-31.51 a 395.67,395.67 0 0 1 4.25,-64.35 c 0.08,-0.43 -0.59,-0.8 -1.12,-0.8 a 49.51,49.51 0 0 1 -15.67,-2.2 c -1.19,-0.48 -2.39,0.91 -1,1.34 z"
       id="path382924" /><path
       d="m 959.08837,210.64593 c -2.68,-0.31 -5.42,-0.68 -8.1,-1 a 46.85,46.85 0 0 0 -5.37,-0.59 c -3.07,0.1 -2.75,1.84 -2.6,3.35 0.61,6.15 1.15,12.32 1.4,18.44 a 237.76,237.76 0 0 1 -1.35,35.56 c 0,0.41 0.53,0.76 1.27,0.84 7.52,0.87 15,1.79 22.62,2.68 1.41002,0.18 1.07002,-1.08 -0.35,-1.26 -7.51,-0.87 -15,-1.79 -22.61,-2.68 0.39,0.28 0.86,0.59 1.27,0.84 a 237.89,237.89 0 0 0 1.44,-31.65 c -0.1,-5 -0.35,-10 -0.82,-15 -0.1,-1.33 -0.21,-2.67 -0.37,-4 -0.16,-1.33 -0.7,-2.85 -0.46,-4 0.5,-2.39 3.68,-1.52 6.88,-1.14 2.45,0.31 5,0.63 7.43,0.9 1.48,0.23 1.13,-1 -0.28,-1.21 z"
       id="path382926" /><path
       d="m 1103.4684,202.11593 c 4.62,0.22 9.16,0.47 13.79,0.69 l -1.09,-0.65 a 135.86,135.86 0 0 0 1.11,34.33 129.23,129.23 0 0 0 3.71,16.55 c 0.38,1.3 0.77,2.56 1.16,3.87 0.39,1.31 1.78,3.37 0.31,4.59 -1.47,1.22 -5.14,1.16 -7.84,1.39 l -8.33,0.82 c -1.43,0.13 -0.89,1.32 0.54,1.19 5.18,-0.48 11.16,-0.64 16.06,-1.58 3.17,-0.61 2.86,-1.91 2.34,-3.54 -1.86,-6.55 -3.87,-13.06 -5.05,-19.66 a 134.27,134.27 0 0 1 -1.73,-37.85 c 0,-0.32 -0.5,-0.63 -1.09,-0.66 -4.63,-0.21 -9.17,-0.47 -13.79,-0.69 -1.57,-0.07 -1.63,1.13 -0.13,1.2 z"
       id="path382928" /><path
       d="m 924.01028,126.95593 c 1.77,-11.28 -14.8,-15 -22.42,-10.29 -9.91,6.18 -8.37,21.2 -5.26,30.74 2.95,9 14.3,17.44 23.39,10.52 3.51,-2.68 5.62,-8.28 5.16,-12.66 -0.5,-4.74 -5.58,-3.77 -9.41,-3.49 l 0.51,1.87 c 2.25,-1.09 6.52,-3.4 6.57,0.56 a 1,1 0 0 0 2,0 v -3.61 a 1,1 0 0 0 -1,-1 24,24 0 0 0 -8.54,2.32 1,1 0 0 0 0.5,1.86 c 1.37,-0.1 3.23,-0.47 4.6,-0.11 3.64,0.94 3,2.94 2.29,5.9 -1.13,4.93 -4.49,8.68 -9.87,8.72 -8.77,0.06 -13.54,-7.38 -15.17,-15.05 -1.41,-6.62 -2.47,-15.14 1.46,-21.14 a 13.61,13.61 0 0 1 13.53,-5.63 c 4.32,0.87 10.55,5 9.77,10 -0.19,1.26 1.73,1.8 1.93,0.53 z"
       id="path382930" /><path
       d="m 924.46028,141.14593 -0.09,-0.11 c -0.64,-0.8 -2,0.06 -1.67,1 a 46.31,46.31 0 0 1 2.1,12.53 c 0,1.8 -0.67,4.19 1.18,5.23 1.13,0.63 2.14,-1.1 1,-1.73 -0.73,-0.41 -0.42,-7.27 -0.56,-8.41 a 50.23,50.23 0 0 0 -1.8,-8.15 l -1.61,0.9 0.09,0.11 c 0.8,1 2.21,-0.42 1.41,-1.41 z"
       id="path382932" /><path
       d="m 932.47028,151.70593 c 4.89,0 13.19,0.57 15.57,-4.93 2.55,-5.86 -6,-7 -9.85,-5.85 -6.42,1.87 -6.18,8.48 -5.18,14.01 0.46,2.51 1.11,4.55 3.75,5.38 3.4,1.07 7.74,-0.68 11,-1.44 1.25,-0.29 0.72,-2.22 -0.54,-1.93 -1.81,0.42 -3.63,0.91 -5.46,1.26 -2.92,0.56 -5.32,0.59 -6.58,-2.55 -1.48,-3.72 -1.53,-10.77 2.71,-12.48 1.54,-0.63 4.34,-1.17 6,-0.42 1.66,0.75 3.06,2.4 1.92,4 a 5.92,5.92 0 0 1 -2.94,2 c -3.28,1.08 -7,1 -10.39,1 a 1,1 0 0 0 0,2 z"
       id="path382934" /><path
       d="m 951.52028,142.90593 c 2.59,5.22 1.7,12.6 1.9,18.31 l 2,-0.26 -0.11,-0.41 a 1.0007247,1.0007247 0 0 0 -1.93,0.53 l 0.11,0.41 a 1.0090714,1.0090714 0 0 0 2,-0.27 c -0.22,-6.22 0.66,-13.6 -2.17,-19.32 -0.58,-1.16 -2.3,-0.14 -1.73,1 z"
       id="path382936" /><path
       d="m 956.01028,149.83593 c 1.87,-2.25 9.37,-10.44 11.79,-4.61 0.68,1.61 0,4.63 -0.09,6.35 a 61.94,61.94 0 0 1 -1.31,8.88 c -0.27,1.25 1.66,1.79 1.93,0.53 a 63.27,63.27 0 0 0 1.52,-12.94 c 0,-2.2 0.31,-4.81 -1.8,-6.11 -4.89,-3 -10.73,3.21 -13.45,6.49 -0.82,1 0.59,2.4 1.41,1.41 z"
       id="path382938" /><path
       d="m 975.62028,153.00593 c 3.57,-0.77 16.18,-3.14 15.52,-8.77 -0.56,-4.73 -10,-4.52 -12.84,-2.79 -4.1,2.48 -6.68,10.4 -4.81,14.81 2.53,6 11.07,4.27 16,3.25 1.26,-0.26 0.72,-2.19 -0.54,-1.93 -3.49,0.73 -9.78,2.23 -12.69,-0.77 -2.91,-3 -0.57,-10.09 2.09,-12.76 1.43,-1.43 3.62,-1.67 5.57,-1.59 1,0 2.64,0 3.49,0.61 1.08,0.12 1.19,0.78 0.32,2 0.2,1 -0.09,1.69 -0.88,2 -2.62,2.43 -8.35,3.34 -11.73,4.07 -1.26,0.27 -0.73,2.2 0.53,1.93 z"
       id="path382940" /><path
       d="m 1000.4003,132.03593 0.61,-0.63 -1.71,-0.71 c -0.46,4.47 -0.79,9 -0.9,13.44 -0.1,4 -0.94,9.74 0.26,13.58 1.2,3.84 7.9,2.3 10.91,1.77 1.27,-0.23 0.73,-2.15 -0.53,-1.93 -2.74,0.48 -7.09,1.46 -8.5,-1.9 -0.87,-2.08 -0.2,-6.46 -0.18,-8.64 0,-5.46 0.38,-10.89 0.94,-16.32 0.1,-0.91 -1.13,-1.24 -1.71,-0.7 l -0.63,0.58 c -1,0.88 0.47,2.29 1.41,1.42 z"
       id="path382942" /><path
       d="m 993.86028,143.74593 q 6.48002,-0.68 13.00002,-1.29 c 1.27,-0.12 1.29,-2.12 0,-2 q -6.48,0.62 -13.00002,1.29 c -1.27,0.13 -1.28,2.13 0,2 z"
       id="path382944" /><path
       d="m 1016.4703,142.40593 a 46.11,46.11 0 0 1 -0.7,10.68 c -0.22,1.54 -0.78,3.49 0,5 2.1,4 7.38,0.62 10.41,0.7 a 1,1 0 0 0 0,-2 13.32,13.32 0 0 0 -4,0.89 c -1.5,0.4 -2.34,0.55 -3.65,-0.43 -1.62,-1.21 -1.08,-1.35 -0.77,-3.6 0.51,-3.75 1.11,-7.41 0.77,-11.21 -0.12,-1.27 -2.12,-1.28 -2,0 z"
       id="path382946" /><path
       d="m 1016.3903,135.40593 h -0.06 a 1,1 0 0 0 -0.73,1 c 0.06,0.75 1,1.5 1.71,0.94 a 1,1 0 0 0 0.36,-1.37 1,1 0 0 0 -1.37,-0.36 v 0 l 0.51,-0.14 h -0.07 l 0.51,0.14 0.1,0.09 0.29,0.71 v 0 l -0.74,1 h 0.06 a 1,1 0 0 0 0.7,-1.23 1,1 0 0 0 -1.23,-0.7 z"
       id="path382948" /><path
       d="m 1044.3503,144.80593 c 0.66,-3.39 -3.31,-4.39 -6,-4.13 -4.35,0.41 -6.79,3.5 -7.93,7.51 -0.85,3 -1.44,8.23 1.58,10.35 3.4,2.39 9.49,0.68 12.7,-1.23 a 1,1 0 0 0 -1,-1.73 14,14 0 0 1 -7,1.93 c -3.87,0.06 -5,-2 -4.91,-5.58 0.08,-2.37 0.88,-5.49 2.5,-7.29 a 6.41,6.41 0 0 1 3.72,-1.91 c 1.14,-0.21 4.83,-0.35 4.46,1.55 -0.24,1.26 1.68,1.8 1.93,0.53 z"
       id="path382950" /><path
       d="m 1089.8303,139.17593 c -3.61,-5.64 -10.17,-3.71 -12.58,1.87 -2,4.65 -4.52,16 2.09,18.35 15.5,5.57 14.35,-32.57 14.92,-40.28 0.1,-1.29 -1.87,-1.26 -2,0 l -2,20.71 c -0.61,6.23 -2.45,13.42 -0.54,19.52 0.38,1.23 2.32,0.7 1.93,-0.53 -1.94,-6.19 0.14,-14.19 0.76,-20.57 l 1.87,-19.13 h -2 c -0.63,8.41 -0.74,17 -2.2,25.28 a 42.28,42.28 0 0 1 -1.57,6.58 13.11,13.11 0 0 1 -2.5,4.69 q -4,4.37 -8.43,-1.15 c -1,-2.71 -0.11,-6.89 0.56,-9.52 1,-4.08 5.74,-11.49 10,-4.81 0.69,1.08 2.42,0.08 1.73,-1 z"
       id="path382952" /><path
       d="m 1111.3203,143.08593 c 1.53,-5 -4.28,-6.79 -8.16,-6.3 -5.76,0.72 -5.52,11.19 -5.57,15.37 -0.05,4.87 5,6.51 8.9,4.32 6.63,-3.78 5.91,-11.35 5.83,-18 a 1,1 0 0 0 -2,0 c -0.55,5.91 -0.95,11.75 -0.13,17.66 0.18,1.27 2.11,0.73 1.93,-0.54 -0.8,-5.71 -0.33,-11.41 0.2,-17.12 h -2 a 65.45,65.45 0 0 1 -0.27,9.18 8.67,8.67 0 0 1 -3,5.84 c -1.9,1.71 -6.63,4 -7.49,-0.92 -0.38,-2.16 0.32,-5.05 0.56,-7.22 0.16,-1.42 0.34,-3.9 1.31,-5.15 a 4.64,4.64 0 0 1 4,-1.51 c 2.26,-0.14 3.58,1.14 4,3.82 -0.38,1.23 1.55,1.76 1.93,0.53 z"
       id="path382954" /><path
       d="m 1121.2503,118.80593 c -0.92,10.85 -2.52,22.23 -2.14,33.12 0.08,2.27 0.28,4.34 2.69,5.19 3.13,1.09 6,-1.85 9.06,-2 1.28,0 1.29,-2 0,-2 -2.35,0.08 -4.45,2 -6.58,2.06 -4.9,0.07 -2.83,-10.47 -2.69,-13 q 0.66,-11.7 1.66,-23.37 c 0.11,-1.28 -1.89,-1.28 -2,0 z"
       id="path382956" /><path
       d="m 1115.0103,140.26593 a 117.59,117.59 0 0 1 15.88,-1.76 c 1.28,-0.05 1.29,-2.05 0,-2 a 122.06,122.06 0 0 0 -16.41,1.83 c -1.27,0.23 -0.73,2.16 0.53,1.93 z"
       id="path382958" /><path
       d="m 1147.3603,143.71593 c -0.72,-4 -6.68,-8.11 -10.53,-5.54 -2.25,1.5 -2.46,4.41 -2.6,6.85 -0.17,3.17 -0.87,7.9 0.95,10.75 2.54,4 8.05,2.59 10.64,-0.49 4.21,-5 4.49,-12.74 3.19,-18.81 a 1.0090714,1.0090714 0 0 0 -2,0.27 c 0.52,7.31 0.7,13.93 3.51,20.78 l 1.67,-1 -0.46,-0.51 c -0.87,-1 -2.28,0.47 -1.42,1.42 l 0.46,0.5 c 0.64,0.7 2.06,0 1.67,-1 -2.7,-6.61 -2.93,-13.21 -3.43,-20.25 l -2,0.26 c 1.14,5.3 1.2,17.1 -5.69,19.06 -5.66,1.61 -5.38,-6.77 -5.2,-10.25 0.14,-2.59 -0.1,-3.39 2.38,-4.88 1.31,-1.51 2.75,-1.62 4.3,-0.31 a 4.33,4.33 0 0 1 2.56,3.62 c 0.23,1.26 2.16,0.73 1.93,-0.53 z"
       id="path382960" /><polyline
       class="cls-11"
       points="20.95 183.54 20.95 183.54 20.95 183.54"
       id="polyline383126"
       transform="translate(899.84408,172.65593)" /><g
       id="Layer_6-9"
       data-name="Layer 6"
       transform="translate(323.59701,319.13719)"><path
         d="m 399.59452,-12.894863 a 587.03095,587.03095 0 0 0 165.70222,-20.768106 2.6734731,2.6734731 0 0 0 0,-5.11678 L 514.6778,-54.909112 c -3.31086,-1.062307 -4.55021,3.930536 -1.41641,5.11678 q 27.40753,10.446019 54.2839,22.149105 l -0.54886,-4.178409 -31.55052,33.303331 c -2.35478,2.478716 1.3987,6.249907 3.75349,3.753485 l 31.55052,-33.285625 a 2.6911782,2.6911782 0 0 0 -0.53116,-4.178409 Q 542.72271,-44.232925 514.6778,-54.909112 l -1.41641,5.11678 50.5127,16.129363 v -5.11678 a 581.59548,581.59548 0 0 1 -164.17957,20.573351 c -3.43479,0 -3.43479,5.311535 0,5.311535 z"
         id="path533556"
         style="stroke-width:1.77051" /></g></g><metadata
     id="metadata397870"><rdf:RDF><cc:Work
         rdf:about=""><dc:title>full_new</dc:title></cc:Work></rdf:RDF></metadata></svg>
