<?xml version="1.0" encoding="UTF-8" standalone="no"?>
<svg
   viewBox="0 0 1175.48 577.35"
   version="1.1"
   id="svg383737"
   sodipodi:docname="stdpopsim_2.svg"
   xml:space="preserve"
   inkscape:version="1.2.2 (1:1.2.2+202212051552+b0a8486541)"
   xmlns:inkscape="http://www.inkscape.org/namespaces/inkscape"
   xmlns:sodipodi="http://sodipodi.sourceforge.net/DTD/sodipodi-0.dtd"
   xmlns="http://www.w3.org/2000/svg"
   xmlns:svg="http://www.w3.org/2000/svg"
   xmlns:rdf="http://www.w3.org/1999/02/22-rdf-syntax-ns#"
   xmlns:cc="http://creativecommons.org/ns#"
   xmlns:dc="http://purl.org/dc/elements/1.1/"><sodipodi:namedview
     id="namedview383739"
     pagecolor="#ffffff"
     bordercolor="#000000"
     borderopacity="0.25"
     inkscape:showpageshadow="2"
     inkscape:pageopacity="0.0"
     inkscape:pagecheckerboard="0"
     inkscape:deskcolor="#d1d1d1"
     showgrid="false"
     inkscape:zoom="0.50004994"
     inkscape:cx="458.95416"
     inkscape:cy="323.96764"
     inkscape:window-width="1221"
     inkscape:window-height="778"
     inkscape:window-x="59"
     inkscape:window-y="22"
     inkscape:window-maximized="1"
     inkscape:current-layer="Layer_6-9" /><defs
     id="defs382375"><style
       id="style382361">.cls-1,.cls-11,.cls-17,.cls-18,.cls-20,.cls-22,.cls-24,.cls-26,.cls-27,.cls-33,.cls-4{fill:none;}.cls-2{fill:#d8d8d8;}.cls-11,.cls-3,.cls-33,.cls-4{stroke:#000;}.cls-14,.cls-15,.cls-16,.cls-17,.cls-18,.cls-26,.cls-27,.cls-29,.cls-3,.cls-30,.cls-33{stroke-linejoin:round;}.cls-3,.cls-4{stroke-width:0.8px;}.cls-17,.cls-18,.cls-4{stroke-linecap:square;}.cls-5{opacity:0.82;}.cls-6{fill:#c1272d;}.cls-7{fill:#fcee21;}.cls-8{fill:blue;}.cls-9{fill:#8cc63f;}.cls-10,.cls-29,.cls-30{fill:#fff;}.cls-11{stroke-miterlimit:10;}.cls-12{fill:#b3b3b3;}.cls-13{clip-path:url(#clip-path);}.cls-14,.cls-25{fill:#2ca02c;}.cls-14,.cls-15,.cls-16{fill-opacity:0.2;stroke-width:2px;stroke-dasharray:2 2;}.cls-14,.cls-18,.cls-24{stroke:#2ca02c;}.cls-15,.cls-23,.cls-32{fill:#ff7f0e;}.cls-15{stroke:#ff800f;}.cls-16{fill:#1e75b3;stroke:#1e75b3;}.cls-17,.cls-22,.cls-32{stroke:#ff7f0e;}.cls-17,.cls-18,.cls-32{stroke-opacity:0.5;}.cls-17,.cls-18{stroke-width:0.2px;}.cls-19{clip-path:url(#clip-path-24);}.cls-20,.cls-27,.cls-30{stroke:#1f77b4;}.cls-21{fill:#1f77b4;}.cls-21,.cls-23,.cls-25,.cls-32{fill-opacity:0.5;}.cls-26,.cls-29{stroke:#fff;stroke-width:3px;}.cls-26,.cls-27,.cls-29,.cls-30{stroke-linecap:round;}.cls-28{clip-path:url(#clip-path-42);}.cls-31{clip-path:url(#clip-path-46);}</style><clipPath
       id="clip-path"
       transform="translate(-19.92 -9.25)"><rect
         class="cls-1"
         x="70.17"
         y="382.26"
         width="154.4"
         height="203.34"
         id="rect382363" /></clipPath><clipPath
       id="clip-path-24"
       transform="translate(-19.92 -9.25)"><rect
         class="cls-1"
         x="1010.21"
         y="202.75"
         width="158.77"
         height="237.35"
         id="rect382366" /></clipPath><clipPath
       id="clip-path-42"
       transform="translate(-19.92 -9.25)"><rect
         class="cls-1"
         x="1005.58"
         y="202.75"
         width="158.77"
         height="237.35"
         id="rect382369" /></clipPath><clipPath
       id="clip-path-46"
       transform="translate(-19.92 -9.25)"><rect
         class="cls-1"
         x="1014.84"
         y="202.75"
         width="158.77"
         height="237.35"
         id="rect382372" /></clipPath><clipPath
       id="pdcae12d482-7"><rect
         x="14.3"
         y="10.8"
         width="216.82001"
         height="207.14188"
         id="rect5083-8" /></clipPath><clipPath
       id="clipPath308148"><rect
         x="14.3"
         y="10.8"
         width="216.82001"
         height="207.14188"
         id="rect308146" /></clipPath><clipPath
       id="clipPath308152"><rect
         x="14.3"
         y="10.8"
         width="216.82001"
         height="207.14188"
         id="rect308150" /></clipPath><clipPath
       id="clipPath308156"><rect
         x="14.3"
         y="10.8"
         width="216.82001"
         height="207.14188"
         id="rect308154" /></clipPath><clipPath
       id="clipPath308160"><rect
         x="14.3"
         y="10.8"
         width="216.82001"
         height="207.14188"
         id="rect308158" /></clipPath><clipPath
       id="clipPath308164"><rect
         x="14.3"
         y="10.8"
         width="216.82001"
         height="207.14188"
         id="rect308162" /></clipPath><clipPath
       id="clipPath308168"><rect
         x="14.3"
         y="10.8"
         width="216.82001"
         height="207.14188"
         id="rect308166" /></clipPath><clipPath
       id="clipPath308172"><rect
         x="14.3"
         y="10.8"
         width="216.82001"
         height="207.14188"
         id="rect308170" /></clipPath><path
       id="path616294"
       d="M 2188,4044 1331,1722 h 1716 z m -357,622 h 716 L 4325,0 H 3669 L 3244,1197 H 1141 L 716,0 H 50 Z"
       transform="scale(0.015625)" /><path
       id="path616296"
       d="M 628,4666 H 3309 V 4134 H 1259 V 2759 H 3109 V 2228 H 1259 V 0 H 628 Z"
       transform="scale(0.015625)" /><path
       id="path616298"
       d="m 2841,2188 q 203,-69 395,-294 192,-225 386,-619 L 4263,0 h -679 l -596,1197 q -232,469 -449,622 -217,153 -592,153 H 1259 V 0 H 628 v 4666 h 1425 q 800,0 1194,-335 394,-334 394,-1009 0,-441 -205,-732 -205,-290 -595,-402 z M 1259,4147 V 2491 h 794 q 456,0 689,211 233,211 233,620 0,409 -233,617 -233,208 -689,208 z"
       transform="scale(0.015625)" /><path
       id="path616308"
       d="M 628,4666 H 3578 V 4134 H 1259 V 2753 H 3481 V 2222 H 1259 V 531 H 3634 V 0 H 628 Z"
       transform="scale(0.015625)" /><path
       id="path616310"
       d="m 556,4666 h 635 V 1831 q 0,-750 271,-1080 272,-329 882,-329 606,0 878,329 272,330 272,1080 v 2835 h 634 V 1753 Q 4128,841 3676,375 3225,-91 2344,-91 1459,-91 1007,375 556,841 556,1753 Z"
       transform="scale(0.015625)" /><clipPath
       id="pdcae12d482-7-2"><rect
         x="14.3"
         y="10.8"
         width="216.82001"
         height="207.14188"
         id="rect5083-8-1" /></clipPath><clipPath
       id="clipPath311877"><rect
         x="14.3"
         y="10.8"
         width="216.82001"
         height="207.14188"
         id="rect311875" /></clipPath><clipPath
       id="clipPath311881"><rect
         x="14.3"
         y="10.8"
         width="216.82001"
         height="207.14188"
         id="rect311879" /></clipPath><clipPath
       id="clipPath311885"><rect
         x="14.3"
         y="10.8"
         width="216.82001"
         height="207.14188"
         id="rect311883" /></clipPath><clipPath
       id="clipPath311889"><rect
         x="14.3"
         y="10.8"
         width="216.82001"
         height="207.14188"
         id="rect311887" /></clipPath><clipPath
       id="clipPath311893"><rect
         x="14.3"
         y="10.8"
         width="216.82001"
         height="207.14188"
         id="rect311891" /></clipPath><clipPath
       id="clipPath311897"><rect
         x="14.3"
         y="10.8"
         width="216.82001"
         height="207.14188"
         id="rect311895" /></clipPath><clipPath
       id="clipPath311901"><rect
         x="14.3"
         y="10.8"
         width="216.82001"
         height="207.14188"
         id="rect311899" /></clipPath><path
       id="path616294-2"
       d="M 2188,4044 1331,1722 h 1716 z m -357,622 h 716 L 4325,0 H 3669 L 3244,1197 H 1141 L 716,0 H 50 Z"
       transform="scale(0.015625)" /><path
       id="path616296-5"
       d="M 628,4666 H 3309 V 4134 H 1259 V 2759 H 3109 V 2228 H 1259 V 0 H 628 Z"
       transform="scale(0.015625)" /><path
       id="path616298-3"
       d="m 2841,2188 q 203,-69 395,-294 192,-225 386,-619 L 4263,0 h -679 l -596,1197 q -232,469 -449,622 -217,153 -592,153 H 1259 V 0 H 628 v 4666 h 1425 q 800,0 1194,-335 394,-334 394,-1009 0,-441 -205,-732 -205,-290 -595,-402 z M 1259,4147 V 2491 h 794 q 456,0 689,211 233,211 233,620 0,409 -233,617 -233,208 -689,208 z"
       transform="scale(0.015625)" /><path
       id="path616308-9"
       d="M 628,4666 H 3578 V 4134 H 1259 V 2753 H 3481 V 2222 H 1259 V 531 H 3634 V 0 H 628 Z"
       transform="scale(0.015625)" /><path
       id="path616310-1"
       d="m 556,4666 h 635 V 1831 q 0,-750 271,-1080 272,-329 882,-329 606,0 878,329 272,330 272,1080 v 2835 h 634 V 1753 Q 4128,841 3676,375 3225,-91 2344,-91 1459,-91 1007,375 556,841 556,1753 Z"
       transform="scale(0.015625)" /><path
       id="path311634"
       d="M 0,0 H -3.5"
       style="stroke:#000000;stroke-width:0.8" /><path
       id="path311640"
       d="m 2034,4250 q -487,0 -733,-480 -245,-479 -245,-1442 0,-959 245,-1439 246,-480 733,-480 491,0 736,480 246,480 246,1439 0,963 -246,1442 -245,480 -736,480 z m 0,500 q 785,0 1199,-621 414,-620 414,-1801 0,-1178 -414,-1799 -414,-620 -1199,-620 -784,0 -1198,620 -414,621 -414,1799 0,1181 414,1801 414,621 1198,621 z"
       transform="scale(0.015625)" /><path
       id="path311650"
       d="M 1228,531 H 3431 V 0 H 469 v 531 q 359,372 979,998 621,627 780,809 303,340 423,576 121,236 121,464 0,372 -261,606 -261,235 -680,235 -297,0 -627,-103 -329,-103 -704,-313 v 638 q 381,153 712,231 332,78 607,78 725,0 1156,-363 431,-362 431,-968 0,-288 -108,-546 -107,-257 -392,-607 -78,-91 -497,-524 Q 1991,1309 1228,531 Z"
       transform="scale(0.015625)" /><path
       id="path311665"
       d="M 2419,4116 825,1625 h 1594 z m -166,550 h 794 V 1625 h 666 V 1100 H 3047 V 0 H 2419 V 1100 H 313 v 609 z"
       transform="scale(0.015625)" /><path
       id="path311680"
       d="m 2113,2584 q -425,0 -674,-291 -248,-290 -248,-796 0,-503 248,-796 249,-292 674,-292 425,0 673,292 248,293 248,796 0,506 -248,796 -248,291 -673,291 z m 1253,1979 v -575 q -238,112 -480,171 -242,60 -480,60 -625,0 -955,-422 -329,-422 -376,-1275 184,272 462,417 279,145 613,145 703,0 1111,-427 408,-426 408,-1160 0,-719 -425,-1154 -425,-434 -1131,-434 -810,0 -1238,620 -428,621 -428,1799 0,1106 525,1764 525,658 1409,658 238,0 480,-47 242,-47 505,-140 z"
       transform="scale(0.015625)" /><path
       id="path311695"
       d="m 2034,2216 q -450,0 -708,-241 -257,-241 -257,-662 0,-422 257,-663 258,-241 708,-241 450,0 709,242 260,243 260,662 0,421 -258,662 -257,241 -711,241 z m -631,268 q -406,100 -633,378 -226,279 -226,679 0,559 398,884 399,325 1092,325 697,0 1094,-325 397,-325 397,-884 0,-400 -227,-679 -226,-278 -629,-378 456,-106 710,-416 255,-309 255,-755 Q 3634,634 3220,271 2806,-91 2034,-91 1263,-91 848,271 434,634 434,1313 q 0,446 256,755 257,310 713,416 z m -231,997 q 0,-362 226,-565 227,-203 636,-203 407,0 636,203 230,203 230,565 0,363 -230,566 -229,203 -636,203 -409,0 -636,-203 -226,-203 -226,-566 z"
       transform="scale(0.015625)" /><path
       id="path311707"
       d="M 1172,4494 V 3500 H 2356 V 3053 H 1172 V 1153 q 0,-428 117,-550 117,-122 477,-122 h 590 V 0 H 1766 Q 1100,0 847,248 594,497 594,1153 V 3053 H 172 v 447 h 422 v 994 z"
       transform="scale(0.015625)" /><path
       id="path311709"
       d="m 603,3500 h 575 V 0 H 603 Z m 0,1363 h 575 V 4134 H 603 Z"
       transform="scale(0.015625)" /><path
       id="path311711"
       d="m 3328,2828 q 216,388 516,572 300,184 706,184 547,0 844,-383 297,-382 297,-1088 V 0 h -578 v 2094 q 0,503 -179,746 -178,244 -543,244 -447,0 -707,-297 -259,-296 -259,-809 V 0 h -578 v 2094 q 0,506 -178,748 -178,242 -550,242 -441,0 -701,-298 -259,-298 -259,-808 V 0 H 581 v 3500 h 578 v -544 q 197,322 472,475 275,153 653,153 382,0 649,-194 267,-193 395,-562 z"
       transform="scale(0.015625)" /><path
       id="path311713"
       d="M 3597,1894 V 1613 H 953 q 38,-594 358,-905 320,-311 892,-311 331,0 642,81 311,81 618,244 V 178 Q 3153,47 2828,-22 2503,-91 2169,-91 1331,-91 842,396 353,884 353,1716 q 0,859 464,1363 464,505 1252,505 706,0 1117,-455 411,-454 411,-1235 z m -575,169 q -6,471 -264,752 -258,282 -683,282 -481,0 -770,-272 -289,-272 -333,-766 z"
       transform="scale(0.015625)" /><path
       id="path311715"
       transform="scale(0.015625)"
       d="" /><path
       id="path311717"
       d="m 2194,1759 q -697,0 -966,-159 -269,-159 -269,-544 0,-306 202,-486 202,-179 548,-179 479,0 768,339 289,339 289,901 v 128 z m 1147,238 V 0 H 2766 V 531 Q 2569,213 2275,61 1981,-91 1556,-91 q -537,0 -855,302 -317,302 -317,808 0,590 395,890 396,300 1180,300 h 807 v 57 q 0,397 -261,614 -261,217 -733,217 -300,0 -585,-72 -284,-72 -546,-216 v 532 q 315,122 612,182 297,61 578,61 760,0 1135,-394 375,-393 375,-1193 z"
       transform="scale(0.015625)" /><path
       id="path311719"
       d="m 2906,1791 q 0,625 -258,968 -257,344 -723,344 -462,0 -720,-344 -258,-343 -258,-968 0,-622 258,-966 258,-344 720,-344 466,0 723,344 258,344 258,966 z M 3481,434 q 0,-893 -397,-1329 -396,-436 -1215,-436 -303,0 -572,45 -269,45 -522,139 v 559 q 253,-137 500,-202 247,-66 503,-66 566,0 847,295 281,295 281,892 V 616 Q 2728,306 2450,153 2172,0 1784,0 1141,0 747,490 353,981 353,1791 q 0,812 394,1302 394,491 1037,491 388,0 666,-153 278,-153 456,-462 v 531 h 575 z"
       transform="scale(0.015625)" /><path
       id="path311721"
       d="m 1959,3097 q -462,0 -731,-361 -269,-361 -269,-989 0,-628 267,-989 268,-361 733,-361 460,0 728,362 269,363 269,988 0,622 -269,986 -268,364 -728,364 z m 0,487 q 750,0 1178,-488 429,-487 429,-1349 Q 3566,888 3137,398 2709,-91 1959,-91 1206,-91 779,398 353,888 353,1747 q 0,862 426,1349 427,488 1180,488 z"
       transform="scale(0.015625)" /><path
       id="path311723"
       d="m 1984,4856 q -418,-718 -622,-1422 -203,-703 -203,-1425 0,-721 205,-1429 205,-708 620,-1424 h -500 q -468,735 -701,1444 -233,709 -233,1409 0,697 231,1403 232,707 703,1444 z"
       transform="scale(0.015625)" /><path
       id="path311725"
       d="M 3513,2113 V 0 h -575 v 2094 q 0,497 -194,743 -194,247 -581,247 -466,0 -735,-297 -269,-296 -269,-809 V 0 H 581 v 3500 h 578 v -544 q 207,316 486,472 280,156 646,156 603,0 912,-373 310,-373 310,-1098 z"
       transform="scale(0.015625)" /><path
       id="path311727"
       d="m 2631,2963 q -97,56 -211,82 -114,27 -251,27 -488,0 -749,-317 -261,-317 -261,-911 V 0 H 581 v 3500 h 578 v -544 q 182,319 472,473 291,155 707,155 59,0 131,-8 72,-7 159,-23 z"
       transform="scale(0.015625)" /><path
       id="path311729"
       d="m 2834,3397 v -544 q -243,125 -506,187 -262,63 -544,63 -428,0 -642,-131 -214,-131 -214,-394 0,-200 153,-314 153,-114 616,-217 l 197,-44 q 612,-131 870,-370 258,-239 258,-667 0,-488 -386,-773 Q 2250,-91 1575,-91 1294,-91 989,-36 684,19 347,128 v 594 q 319,-166 628,-249 309,-82 613,-82 406,0 624,139 219,139 219,392 0,234 -158,359 -157,125 -692,241 l -200,47 q -534,112 -772,345 -237,233 -237,639 0,494 350,762 350,269 994,269 318,0 599,-47 282,-46 519,-140 z"
       transform="scale(0.015625)" /><path
       id="path311731"
       d="m 513,4856 h 500 q 468,-737 701,-1444 233,-706 233,-1403 0,-700 -233,-1409 -233,-709 -701,-1444 H 513 q 415,716 620,1424 205,708 205,1429 0,722 -205,1425 -205,704 -620,1422 z"
       transform="scale(0.015625)" /></defs><title
     id="title382377">full_new</title><g
     id="Layer_1"
     data-name="Layer 1"><path
       style="fill:#ffffff;fill-opacity:1;stroke:#fefffe;stroke-width:20.1;stroke-dasharray:none;stroke-opacity:1"
       d="m 503.07781,176.04015 93.53368,2.51628"
       id="path552577" /><g
       id="Слой_11"
       data-name="Слой 11"
       transform="translate(-496.44878,18.636704)"><g
         id="g262277"
         transform="translate(-4.466344,7.4279857)"><g
           id="g262275"><path
             id="path262273"
             d="m 915.2,88.08 c 0.08,14.32 0.37,28.71 1,43 0.07,1.41 2.3,1.41 2.22,0 -0.52,-14.32 -0.81,-28.64 -1,-43 a 1.12,1.12 0 0 0 -2.23,0 z"
             transform="translate(-19.92,-9.25)" /></g></g><g
         id="g262283"
         transform="translate(-4.466344,7.4279857)"><g
           id="g262281"><path
             id="path262279"
             d="m 917.06,89.49 c 6.45,-2.75 13.5,-1.34 20,0.22 3.26,0.74 6.08,1.71 7.79,4.9 a 23.24,23.24 0 0 1 2.3,8.61 35.56,35.56 0 0 1 -0.22,10.09 c -0.74,4.15 -2.52,6.38 -6.16,8.38 a 50.59,50.59 0 0 1 -19.37,5.86 c -1.41,0.15 -1.41,2.38 0,2.23 8,-0.74 17.14,-3 23.6,-8.09 5.42,-4.15 5.12,-13.5 4.3,-19.59 -1,-7 -3.41,-12.46 -10.61,-14.32 -7.49,-1.93 -15.51,-3.34 -22.78,-0.22 -1.33,0.52 -0.22,2.45 1.12,1.93 z"
             transform="translate(-19.92,-9.25)" /></g></g><g
         id="g262289"
         transform="translate(-4.466344,7.4279857)"><g
           id="g262287"><path
             id="path262285"
             d="m 958.68,123.77 c 4.38,-0.3 12.91,-2.52 10.31,-8.91 -1.85,-4.6 -8.16,-3.71 -11.42,-1.33 -4.23,3.12 -6.38,9.27 -4.38,14.17 2.6,6.53 12.32,4.45 17.58,3.19 a 1.1147421,1.1147421 0 0 0 -0.59,-2.15 32.71,32.71 0 0 1 -10.76,1 c -5.41,-0.6 -5.56,-7 -3.56,-10.83 1.41,-2.75 4.3,-5.27 7.57,-5.12 3.27,0.15 4.38,3.26 2.23,5.63 -1.71,1.86 -4.6,2 -7,2.16 -1.41,0 -1.41,2.22 0,2.15 z"
             transform="translate(-19.92,-9.25)" /></g></g><g
         id="g262295"
         transform="translate(-4.466344,7.4279857)"><g
           id="g262293"><path
             id="path262291"
             d="m 978.79,114.72 c -0.37,5.19 -0.67,10.38 -0.82,15.65 -0.07,1.49 2.08,1.41 2.23,0 0.59,-4.38 1.11,-12.39 5.56,-14.69 7,-3.64 6.68,8.31 7,12 a 1.12,1.12 0 0 0 2.23,0 c 0.22,-2.3 0.44,-4.6 0.74,-6.9 0.22,-2 0.15,-3.41 1.56,-5 1.41,-1.59 3.34,-1.93 5.27,-0.3 3.78,3.19 2.22,9.65 2,13.88 -0.08,1.41 2.15,1.41 2.22,0 0.3,-5.57 1.71,-16.4 -6.52,-17.22 -8,-0.74 -6.91,10.32 -7.42,15.44 h 2.22 c -0.44,-5 -0.07,-16.18 -8,-14.77 -7.35,1.26 -8.24,11.65 -9,17.44 h 2.23 c 0.22,-5.2 0.52,-10.46 0.81,-15.66 a 1.19,1.19 0 0 0 -2.37,0.08 z"
             transform="translate(-19.92,-9.25)" /></g></g><g
         id="g262301"
         transform="translate(-4.466344,7.4279857)"><g
           id="g262299"><path
             id="path262297"
             d="m 1013.44,123.69 c 1.33,2 -0.67,4.9 2.59,5.64 2.45,0.6 6.39,-0.44 8.54,-1.41 a 9.92,9.92 0 0 0 5.12,-12.54 c -1.86,-4.82 -7.87,-7.19 -12.62,-5.26 -5,2 -7,8.08 -5,12.91 0.52,1.33 2.67,0.74 2.15,-0.6 -1.56,-3.78 -0.3,-8.46 3.64,-10.16 3.94,-1.7 9,0.52 10.09,4.82 1.09,4.3 -1.78,8.24 -5.94,9.42 -1.93,0.52 -5.27,1.64 -6,-1 -0.3,-1.11 0.07,-1.86 -0.67,-3 -0.74,-1.14 -2.67,-0.07 -1.85,1.11 z"
             transform="translate(-19.92,-9.25)" /></g></g><g
         id="g262307"
         transform="translate(-4.466344,7.4279857)"><g
           id="g262305"><path
             id="path262303"
             d="m 1051.06,122.14 c 1,-4.53 -2.45,-8.76 -7,-9.2 -5.27,-0.45 -9.8,4.3 -11.21,9 -1.48,5.12 3.19,8.23 7.94,7.49 5.42,-0.89 8.16,-6.16 6.9,-11.2 a 1.12,1.12 0 0 0 -2.15,0.59 57.59,57.59 0 0 1 0.59,24.93 c -0.37,1.71 -0.74,3.41 -1.26,5.12 -0.74,2.37 -1.41,5.12 -5.78,3.12 a 7.94,7.94 0 0 1 -2.38,-2.08 c -2.52,-3.93 3.41,-9.35 6.31,-11.28 1.19,-0.81 0.07,-2.74 -1.11,-1.93 -3.42,2.3 -9.13,7.72 -8.09,12.47 0.74,3.41 6.16,7.19 9.57,5.64 4.45,-2.08 5,-10.54 5.49,-14.69 a 60.41,60.41 0 0 0 -1.26,-21.89 c -0.74,0.22 -1.41,0.37 -2.15,0.59 0.89,3.49 -0.67,7.27 -4.31,8.24 -4.6,1.26 -7.56,-2.6 -5.26,-6.68 1.26,-2.38 3.56,-4.68 6.3,-5.12 3.64,-0.67 7.57,2.37 6.68,6.31 -0.22,1.26 1.93,1.85 2.23,0.52 z"
             transform="translate(-19.92,-9.25)" /></g></g><g
         id="g262313"
         transform="translate(-4.466344,7.4279857)"><g
           id="g262311"><path
             id="path262309"
             d="m 1058.55,130.67 c 0.52,-6.23 1,-12.54 1.63,-18.77 a 16.44,16.44 0 0 1 -1.41,1 23.19,23.19 0 0 0 9.28,1.11 c 1.41,-0.15 1.41,-2.38 0,-2.23 a 21.61,21.61 0 0 1 -8.68,-1 1.12,1.12 0 0 0 -1.41,1 c -0.52,6.23 -1,12.54 -1.64,18.77 -0.14,1.49 2.08,1.49 2.23,0.08 z"
             transform="translate(-19.92,-9.25)" /></g></g><g
         id="g262319"
         transform="translate(-4.466344,7.4279857)"><g
           id="g262317"><path
             id="path262315"
             d="m 1086.6,122 a 7.76,7.76 0 0 0 -6.76,-9.35 c -5.12,-0.52 -10,3.93 -10.83,8.83 -2,12.09 20,11.13 17.14,-1.93 -0.3,-1.34 -2,-0.82 -2.15,0.3 a 18.31,18.31 0 0 0 3,12.83 c 0.82,1.19 2.75,0.08 1.93,-1.11 a 16.85,16.85 0 0 1 -2.74,-11.72 c -0.75,0.07 -1.49,0.22 -2.16,0.29 2.23,10.24 -15.73,10 -12.54,0.52 1,-3 4,-5.71 7.28,-5.79 a 5.58,5.58 0 0 1 5.63,6.61 1.1108555,1.1108555 0 0 0 2.16,0.52 z"
             transform="translate(-19.92,-9.25)" /></g></g><g
         id="g262325"
         transform="translate(-4.466344,7.4279857)"><g
           id="g262323"><path
             id="path262321"
             d="m 1092.75,118.2 c 0.23,9.8 0.38,19.59 0.6,29.46 a 1.11,1.11 0 0 0 2.22,0 c -0.22,-9.79 -0.37,-19.59 -0.59,-29.46 a 1.12,1.12 0 0 0 -2.23,0 z"
             transform="translate(-19.92,-9.25)" /></g></g><g
         id="g262331"
         transform="translate(-4.466344,7.4279857)"><g
           id="g262329"><path
             id="path262327"
             d="m 1093.5,117.83 c 0.66,-4.75 9,-4 11.42,-1.18 2.3,2.67 0.37,6.15 -2.22,7.79 -2.23,1.41 -5,1.7 -7.65,2 -1.41,0.15 -1.41,2.37 0,2.22 4.16,-0.51 8.83,-1.11 11.51,-4.74 a 6.82,6.82 0 0 0 0.37,-8.24 c -3.27,-4.38 -14.62,-5.19 -15.59,1.63 -0.14,1.34 2,1.93 2.16,0.52 z"
             transform="translate(-19.92,-9.25)" /></g></g><g
         id="g262337"
         transform="translate(-4.466344,7.4279857)"><g
           id="g262335"><path
             id="path262333"
             d="m 1126.81,114.94 a 37.92,37.92 0 0 0 0.22,14.17 c 0.3,1.41 2.45,0.82 2.15,-0.59 a 38.3,38.3 0 0 1 -0.22,-13 c 0.22,-1.41 -1.93,-2 -2.15,-0.59 z"
             transform="translate(-19.92,-9.25)" /></g></g><g
         id="g262343"
         transform="translate(-4.466344,7.4279857)"><g
           id="g262341"><path
             id="path262339"
             d="m 1126.44,101.14 c 0.22,-0.15 0.37,-0.37 0.59,-0.52 a 1.07,1.07 0 0 0 0,-1.56 1.14,1.14 0 0 0 -1.55,0 c -0.23,0.15 -0.38,0.37 -0.6,0.52 a 1.09,1.09 0 0 0 0,1.56 1.15,1.15 0 0 0 1.56,0 z"
             transform="translate(-19.92,-9.25)" /></g></g><g
         id="g262349"
         transform="translate(-4.466344,7.4279857)"><g
           id="g262347"><path
             id="path262345"
             d="m 1148.11,119.91 a 5.32,5.32 0 0 0 -4,-7.42 c -4.53,-0.82 -9.5,3.49 -10.91,7.57 -3.41,9.72 11.35,14.54 18.25,11.35 1.34,-0.59 0.15,-2.52 -1.11,-1.93 -4.38,2 -11.35,0.37 -14.24,-3.71 -1.86,-2.6 -1,-5.56 1,-7.86 a 9.8,9.8 0 0 1 3.19,-2.6 c 2.08,-1 7.87,-0.82 5.94,3.41 -0.6,1.34 1.33,2.45 1.93,1.19 z"
             transform="translate(-19.92,-9.25)" /></g></g><g
         id="g262411"
         transform="translate(-4.466344,7.4279857)"><g
           id="g262355"><g
             id="g262353"><path
               id="path262351"
               d="m 1083.7,146.1 a 137.76,137.76 0 0 1 1.26,32.28 h 2.23 a 11.64,11.64 0 0 1 0.07,-1.56 c 0.08,-1.41 -2.15,-1.41 -2.22,0 a 10.19,10.19 0 0 1 -0.08,1.56 c -0.07,1.41 2.16,1.41 2.23,0 a 143,143 0 0 0 -1.34,-32.87 c -0.22,-1.41 -2.37,-0.82 -2.15,0.59 z"
               transform="translate(-19.92,-9.25)" /></g></g><g
           id="g262361"><g
             id="g262359"><path
               id="path262357"
               d="m 1088.15,165.61 a 4,4 0 0 1 6.16,-2.89 c 1.56,1.11 1.93,3 2.23,4.82 0.44,2.68 0.59,5.2 2.67,7.2 1,1 2.6,-0.59 1.56,-1.56 -3.49,-3.41 -0.74,-9.79 -5.64,-12.46 -4.16,-2.3 -8.53,0.59 -9.13,5 -0.22,1.33 2,1.33 2.15,-0.08 z"
               transform="translate(-19.92,-9.25)" /></g></g><g
           id="g262367"><g
             id="g262365"><path
               id="path262363"
               d="m 1107.15,160.42 a 46.05,46.05 0 0 0 0.67,15.66 c 0.29,1.41 2.44,0.81 2.15,-0.6 a 43.07,43.07 0 0 1 -0.6,-15.06 c 0.15,-1.48 -2.07,-1.41 -2.22,0 z"
               transform="translate(-19.92,-9.25)" /></g></g><g
           id="g262373"><g
             id="g262371"><path
               id="path262369"
               d="m 1107.52,154.63 h 0.59 a 1.11,1.11 0 1 0 0,-2.22 h -0.59 a 1.14,1.14 0 0 0 -1.11,1.11 1.09,1.09 0 0 0 1.11,1.11 z"
               transform="translate(-19.92,-9.25)" /></g></g><g
           id="g262379"><g
             id="g262377"><path
               id="path262375"
               d="m 1128.59,162.05 c -1.48,-5.78 -8.68,-4.6 -10.53,0.3 -0.89,2.37 -0.67,5.49 1.63,7.05 1.18,0.82 2.67,0.74 4.08,1 1.78,0.44 8.16,2.89 1.26,6.3 -1.56,0.75 -4.16,0 -5.71,-0.29 -1.55,-0.29 -2,1.85 -0.6,2.15 4,0.82 12.17,0.82 11.28,-5.57 a 5.5,5.5 0 0 0 -3.63,-4.08 c -1,-0.44 -2.3,-0.37 -3.27,-0.81 -1.71,-0.82 -3.71,-2.75 -3,-4.75 0.74,-2.23 5.27,-5.34 6.45,-0.74 0.3,1.41 2.45,0.81 2.08,-0.6 z"
               transform="translate(-19.92,-9.25)" /></g></g><g
           id="g262385"><g
             id="g262383"><path
               id="path262381"
               d="m 1137.12,148.7 c -0.22,4.3 -0.44,8.6 -0.37,13 0.08,3 0,6.31 1.49,9 1.85,3.26 6.67,4.38 8.9,0.82 0.74,-1.19 -1.19,-2.3 -1.93,-1.12 -0.74,1.18 -3.41,1.12 -4.38,0.15 a 8.13,8.13 0 0 1 -1.48,-3.11 31.58,31.58 0 0 1 -0.45,-6.46 c -0.07,-4.08 0.15,-8.16 0.38,-12.24 0.14,-1.41 -2.08,-1.41 -2.16,0 z"
               transform="translate(-19.92,-9.25)" /></g></g><g
           id="g262391"><g
             id="g262389"><path
               id="path262387"
               d="m 1131.93,164.35 a 69,69 0 0 0 14,-3 c 1.33,-0.45 0.82,-2.6 -0.59,-2.16 a 69.27,69.27 0 0 1 -13.36,2.9 c -1.41,0.15 -1.41,2.37 0,2.22 z"
               transform="translate(-19.92,-9.25)" /></g></g><g
           id="g262397"><g
             id="g262395"><path
               id="path262393"
               d="m 1154.41,165.61 c -2.3,3.71 0.45,8.91 5,8.46 5.27,-0.52 7.72,-7.19 6.83,-11.72 -1,-4.82 -6,-8.31 -10.83,-6.08 -5.57,2.52 -3.57,9.12 -1.56,13.43 0.59,1.26 2.52,0.14 1.93,-1.12 -1.34,-2.82 -3.49,-7.64 -0.15,-9.94 2.67,-1.85 6.31,-0.37 7.72,2.3 a 8.46,8.46 0 0 1 -1,8.83 c -1.26,1.56 -3.56,3 -5.49,1.48 a 3.42,3.42 0 0 1 -0.59,-4.45 1.1040494,1.1040494 0 1 0 -1.86,-1.19 z"
               transform="translate(-19.92,-9.25)" /></g></g><g
           id="g262403"><g
             id="g262401"><path
               id="path262399"
               d="m 1170.81,169.92 c -0.22,-5 -0.37,-10 -0.59,-15.06 -0.3,0.37 -0.52,0.74 -0.82,1 l 9.57,-1.56 c 1.41,-0.23 0.82,-2.38 -0.59,-2.15 l -9.57,1.55 a 1.12,1.12 0 0 0 -0.82,1 c 0.22,5.05 0.37,10 0.59,15.06 0.08,1.49 2.3,1.49 2.23,0.08 z"
               transform="translate(-19.92,-9.25)" /></g></g><g
           id="g262409"><g
             id="g262407"><path
               id="path262405"
               d="m 1182.83,154.49 c -1,4.6 -3.64,14.17 3.71,14.32 6.45,0.14 9.2,-6.68 8.83,-12 a 1.12,1.12 0 0 0 -2.23,0 c -0.74,6.08 -1.41,12.16 -2.15,18.32 -0.3,2.75 -0.3,5.79 -1,8.46 -0.6,2.3 -1.56,2.75 -3.79,2.67 a 3.58,3.58 0 0 1 -3.93,-2.45 2.13,2.13 0 0 1 1.19,-2.74 c 1.33,-0.52 0.74,-2.67 -0.6,-2.15 a 4.58,4.58 0 0 0 -2.52,6.15 c 1.34,3.42 5.71,3.79 8.83,2.9 4.23,-1.19 3.34,-7.27 3.71,-10.76 0.82,-6.83 1.56,-13.58 2.37,-20.4 h -2.22 c 0.22,3.71 -1,9.49 -5.79,9.64 -5.64,0.22 -3.12,-8.38 -2.45,-11.43 a 1.0320005,1.0320005 0 1 0 -2,-0.51 z"
               transform="translate(-19.92,-9.25)" /></g></g></g><g
         id="g262423"
         transform="translate(-4.466344,7.4279857)"><g
           id="g262421"><path
             id="path262419"
             d="m 1111.16,101.36 c 0.14,9.35 0.22,18.7 0.37,28.05 a 1.11,1.11 0 0 0 2.22,0 c -0.15,-9.35 -0.22,-18.7 -0.37,-28 a 1.11,1.11 0 0 0 -2.22,0 z"
             transform="translate(-19.92,-9.25)" /></g></g><g
         id="g262429"
         transform="translate(-4.466344,7.4279857)"><g
           id="g262427"><path
             id="path262425"
             d="m 1113.53,117.16 c 6.31,-1.63 7.86,6.61 8.31,11.06 0.15,1.41 2.37,1.41 2.23,0 -0.38,-3.56 -0.75,-7.42 -3.12,-10.31 a 7.71,7.71 0 0 0 -8,-2.9 1.1147421,1.1147421 0 0 0 0.59,2.15 z"
             transform="translate(-19.92,-9.25)" /></g></g></g><g
       id="Layer_6-9"
       data-name="Layer 6"
       transform="translate(323.59701,319.13719)"><path
         d="m -42.704036,-56.457871 q 0.63738,44.829364 -0.28329,89.658727 c 0,3.41709 5.31154,3.41709 5.31154,0 q 0.92067,-44.829363 0.28328,-89.658727 a 2.6557681,2.6557681 0 0 0 -5.31153,0 z"
         id="path533552"
         style="stroke-width:1.77051" /><path
         d="m -75.777206,-7.644855 a 171.1731,171.1731 0 0 0 72.9451,-10.251265 l -2.58495,-4.443984 -3.54103,2.815114 c -2.67347,2.14232 1.11543,5.878099 3.75349,3.753485 l 3.54102,-2.815114 c 2.03609,-1.646576 -0.17705,-5.311536 -2.58494,-4.443985 a 167.47273,167.47273 0 0 1 -71.54639,10.074213 c -3.41709,-0.265576 -3.39939,5.04596 0,5.311536 z"
         id="path533554"
         style="stroke-width:1.77051" /><g
         id="patch_3-7"
         style="stroke-linecap:butt;stroke-linejoin:round"
         transform="matrix(1.2634158,0,0,1.2634158,55.940053,-159.1375)"><path
           d="m 86.814315,10.8 v 41.428375 0 23.673357 H 64.650773 V 217.94187 M 97.896085,10.8 v 41.428375 0 23.673357 H 120.05963 V 217.94187"
           clip-path="url(#pdcae12d482-7-2)"
           style="fill:none;stroke:#000000;stroke-linecap:butt;stroke-linejoin:miter;stroke-opacity:1"
           id="path5026-4" /></g><g
         id="PolyCollection_1-1"
         style="fill:#cccccc;stroke-linecap:butt;stroke-linejoin:round"
         transform="matrix(1.2634158,0,0,1.2634158,55.940053,-159.1375)"><path
           d="m 97.896085,10.8 h -11.08177 v 41.428375 0 23.673357 H 64.650773 V 217.94187 h 55.408857 v 0 V 75.901732 H 97.896085 v -23.673357 0 z"
           clip-path="url(#pdcae12d482-7-2)"
           style="fill:#cccccc;fill-opacity:0.5;stroke-linecap:butt;stroke-linejoin:round"
           id="path5029-8" /></g><g
         id="patch_4-5"
         style="stroke-linecap:butt;stroke-linejoin:round"
         transform="matrix(1.2634158,0,0,1.2634158,55.940053,-159.1375)"><path
           d="m 187.74891,180.53797 v 6.62854 h -3.45476 v 30.77536 m 3.46893,-37.4039 v 6.62854 h 3.45477 v 30.77536"
           clip-path="url(#pdcae12d482-7-2)"
           style="fill:none;stroke:#000000;stroke-linecap:butt;stroke-linejoin:miter;stroke-opacity:1"
           id="path5032-9" /></g><g
         id="PolyCollection_2-7"
         style="fill:#b3b3b3;stroke-linecap:butt;stroke-linejoin:round"
         transform="matrix(1.2634158,0,0,1.2634158,55.940053,-159.1375)"><path
           d="m 187.76308,180.53797 h -0.0142 v 6.62854 h -3.45476 v 30.77536 h 6.9237 v 0 -30.77536 h -3.45477 z"
           clip-path="url(#pdcae12d482-7-2)"
           style="fill:#b3b3b3;fill-opacity:0.5;stroke-linecap:butt;stroke-linejoin:round"
           id="path5035-5" /></g><g
         id="patch_5-6"
         style="stroke-linecap:butt;stroke-linejoin:round"
         transform="matrix(1.2634158,0,0,1.2634158,55.940053,-159.1375)"><path
           d="m 122.06337,180.53797 1,0.0314 1,0.0369 1,0.0977 1,0.0325 1,0.0736 1,0.0386 1,0.0354 1,0.0576 1,0.0704 1,0.052 1,0.0591 1,0.0883 1,0.0461 1,0.0424 1,0.0305 1,0.026 1,0.0212 1,0.0543 1,0.0279 1,0.0297 1,0.0254 1,0.0112 1,0.0101 1,-2e-4 1,-0.01 1,-0.0117 1,-0.031 1,-0.0112 1,-0.0301 1,-0.0598 1,-0.0372 1,-0.0391 1,-0.0424 1,-0.0328 1,-0.0674 1,-0.0391 1,-0.0427 1,-0.0706 1,-0.0364 1,-0.0584 1,-0.11095 1,-0.0707 1,-0.11294 1,-0.0458 1,-0.0613 1,-0.0485 1,-0.0808 1,-0.11852 1,-0.0702 1,-0.0833 1,-0.0331 1,-0.0512 1,-0.0684 1,-0.0662 1,-0.0769 1,-0.0273 1,-0.0265 1,-0.0226 1,-0.0195 1,-0.0264 1,-0.0498 1.56696,-0.0351"
           clip-path="url(#pdcae12d482-7-2)"
           style="fill:none;stroke:#ffffff;stroke-width:3;stroke-linecap:round;stroke-linejoin:round"
           id="path5070-4" /><path
           d="m 122.06337,180.53797 1,0.0314 1,0.0369 1,0.0977 1,0.0325 1,0.0736 1,0.0386 1,0.0354 1,0.0576 1,0.0704 1,0.052 1,0.0591 1,0.0883 1,0.0461 1,0.0424 1,0.0305 1,0.026 1,0.0212 1,0.0543 1,0.0279 1,0.0297 1,0.0254 1,0.0112 1,0.0101 1,-2e-4 1,-0.01 1,-0.0117 1,-0.031 1,-0.0112 1,-0.0301 1,-0.0598 1,-0.0372 1,-0.0391 1,-0.0424 1,-0.0328 1,-0.0674 1,-0.0391 1,-0.0427 1,-0.0706 1,-0.0364 1,-0.0584 1,-0.11095 1,-0.0707 1,-0.11294 1,-0.0458 1,-0.0613 1,-0.0485 1,-0.0808 1,-0.11852 1,-0.0702 1,-0.0833 1,-0.0331 1,-0.0512 1,-0.0684 1,-0.0662 1,-0.0769 1,-0.0273 1,-0.0265 1,-0.0226 1,-0.0195 1,-0.0264 1,-0.0498 1.56696,-0.0351"
           clip-path="url(#pdcae12d482-7-2)"
           style="fill:none;stroke:#000000;stroke-linecap:round;stroke-linejoin:round;stroke-opacity:1"
           id="path5072-3" /><path
           d="m 180.63033,178.53797 0.88036,0.47533 0.87791,0.48026 0.85072,0.53464 1.30217,0.68744 -0.92735,0.026 -0.91168,0.41272 -0.91026,0.41554 -1.3425,0.6068 0.6549,-0.63875 0.052,-1 0.0591,-2 z"
           clip-path="url(#pdcae12d482-7-2)"
           style="fill:#ffffff;stroke:#ffffff;stroke-width:3;stroke-linecap:round;stroke-linejoin:round"
           id="path5074-0" /><path
           d="m 180.63033,178.53797 0.88036,0.47533 0.87791,0.48026 0.85072,0.53464 1.30217,0.68744 -0.92735,0.026 -0.91168,0.41272 -0.91026,0.41554 -1.3425,0.6068 0.6549,-0.63875 0.052,-1 0.0591,-2 z"
           clip-path="url(#pdcae12d482-7-2)"
           style="fill:#ffffff;stroke:#000000;stroke-linecap:round;stroke-linejoin:round;stroke-opacity:1"
           id="path5076-3" /></g><g
         id="xtick_1"
         transform="matrix(1.8018139,0,0,1.8018139,6.47648,-278.52711)"
         style="stroke-linecap:butt;stroke-linejoin:round"><g
           id="line2d_1"
           style="stroke-linecap:butt;stroke-linejoin:round" /><g
           id="text_1"
           style="stroke-linecap:butt;stroke-linejoin:round"><!-- AFR --><g
             transform="matrix(0.1,0,0,-0.1,82.584887,229.04031)"
             id="g5050"
             style="stroke-linecap:butt;stroke-linejoin:round"><defs
               id="defs5042"><path
                 id="path313515"
                 d="M 2188,4044 1331,1722 h 1716 z m -357,622 h 716 L 4325,0 H 3669 L 3244,1197 H 1141 L 716,0 H 50 Z"
                 transform="scale(0.015625)" /><path
                 id="path313517"
                 d="M 628,4666 H 3309 V 4134 H 1259 V 2759 H 3109 V 2228 H 1259 V 0 H 628 Z"
                 transform="scale(0.015625)" /><path
                 id="path313519"
                 d="m 2841,2188 q 203,-69 395,-294 192,-225 386,-619 L 4263,0 h -679 l -596,1197 q -232,469 -449,622 -217,153 -592,153 H 1259 V 0 H 628 v 4666 h 1425 q 800,0 1194,-335 394,-334 394,-1009 0,-441 -205,-732 -205,-290 -595,-402 z M 1259,4147 V 2491 h 794 q 456,0 689,211 233,211 233,620 0,409 -233,617 -233,208 -689,208 z"
                 transform="scale(0.015625)" /></defs><path
               id="use5044"
               d="M 34.1875,63.1875 20.796875,26.90625 h 26.8125 z m -5.578125,9.71875 h 11.1875 L 67.578125,0 h -10.25 L 50.6875,18.703125 H 17.828125 L 11.1875,0 H 0.78125 Z"
               style="stroke-width:0.015625;stroke-linecap:butt;stroke-linejoin:round" /><path
               id="use5046"
               d="m 78.220703,72.90625 h 41.890627 v -8.3125 H 88.080078 V 43.109375 H 116.98633 V 34.8125 H 88.080078 V 0 h -9.859375 z"
               style="stroke-width:0.015625;stroke-linecap:butt;stroke-linejoin:round" /><path
               id="use5048"
               d="m 170.31835,34.1875 q 3.17188,-1.078125 6.17188,-4.59375 3,-3.515625 6.03125,-9.671875 L 192.5371,0 h -10.60937 l -9.3125,18.703125 q -3.625,7.328125 -7.01563,9.71875 -3.39062,2.390625 -9.25,2.390625 h -10.75 V 0 h -9.85937 v 72.90625 h 22.26562 q 12.5,0 18.65625,-5.234375 6.15625,-5.21875 6.15625,-15.765625 0,-6.890625 -3.20312,-11.4375 -3.20313,-4.53125 -9.29688,-6.28125 z M 145.5996,64.796875 v -25.875 h 12.40625 q 7.125,0 10.76563,3.296875 3.64062,3.296875 3.64062,9.6875 0,6.390625 -3.64062,9.640625 -3.64063,3.25 -10.76563,3.25 z"
               style="stroke-width:0.015625;stroke-linecap:butt;stroke-linejoin:round" /></g></g></g><g
         id="xtick_2"
         transform="matrix(1.8018139,0,0,1.8018139,-45.46276,-278.52711)"
         style="stroke-linecap:butt;stroke-linejoin:round"><g
           id="line2d_2"
           style="stroke-linecap:butt;stroke-linejoin:round" /><g
           id="text_2"
           style="stroke-linecap:butt;stroke-linejoin:round"><!-- EUR --><g
             transform="matrix(0.1,0,0,-0.1,177.46303,229.04031)"
             id="g5065"
             style="stroke-linecap:butt;stroke-linejoin:round"><defs
               id="defs5057"><path
                 id="path313529"
                 d="M 628,4666 H 3578 V 4134 H 1259 V 2753 H 3481 V 2222 H 1259 V 531 H 3634 V 0 H 628 Z"
                 transform="scale(0.015625)" /><path
                 id="path313531"
                 d="m 556,4666 h 635 V 1831 q 0,-750 271,-1080 272,-329 882,-329 606,0 878,329 272,330 272,1080 v 2835 h 634 V 1753 Q 4128,841 3676,375 3225,-91 2344,-91 1459,-91 1007,375 556,841 556,1753 Z"
                 transform="scale(0.015625)" /></defs><path
               id="use5059"
               d="m 9.8125,72.90625 h 46.09375 v -8.3125 H 19.671875 V 43.015625 h 34.71875 V 34.71875 H 19.671875 V 8.296875 H 56.78125 V 0 H 9.8125 Z"
               style="stroke-width:0.015625;stroke-linecap:butt;stroke-linejoin:round" /><path
               id="use5061"
               d="m 71.871094,72.90625 h 9.921875 V 28.609375 q 0,-11.71875 4.234375,-16.875 4.25,-5.140625 13.78125,-5.140625 9.468746,0 13.718746,5.140625 4.25,5.15625 4.25,16.875 V 72.90625 h 9.90625 V 27.390625 q 0,-14.25 -7.0625,-21.53125 -7.04687,-7.28125 -20.812496,-7.28125 -13.828125,0 -20.890625,7.28125 -7.046875,7.28125 -7.046875,21.53125 z"
               style="stroke-width:0.015625;stroke-linecap:butt;stroke-linejoin:round" /><path
               id="use5063"
               d="m 180.76758,34.1875 q 3.17187,-1.078125 6.17187,-4.59375 3,-3.515625 6.03125,-9.671875 L 202.98633,0 h -10.60938 l -9.3125,18.703125 q -3.625,7.328125 -7.01562,9.71875 -3.39063,2.390625 -9.25,2.390625 h -10.75 V 0 h -9.85938 v 72.90625 h 22.26563 q 12.5,0 18.65625,-5.234375 6.15625,-5.21875 6.15625,-15.765625 0,-6.890625 -3.20313,-11.4375 -3.20312,-4.53125 -9.29687,-6.28125 z m -24.71875,30.609375 v -25.875 h 12.40625 q 7.125,0 10.76562,3.296875 3.64063,3.296875 3.64063,9.6875 0,6.390625 -3.64063,9.640625 -3.64062,3.25 -10.76562,3.25 z"
               style="stroke-width:0.015625;stroke-linecap:butt;stroke-linejoin:round" /></g></g></g><g
         id="patch_6"
         style="stroke-linecap:butt;stroke-linejoin:round"
         transform="matrix(1.2634158,0,0,1.2634158,42.661954,-159.1375)"><path
           d="M 69.653125,217.94187 V 10.8"
           style="fill:none;stroke:#000000;stroke-width:0.8;stroke-linecap:square;stroke-linejoin:miter"
           id="path338" /></g><g
         id="ytick_1"
         style="stroke-linecap:butt;stroke-linejoin:round"
         transform="matrix(1.2634158,0,0,1.2634158,42.806779,-159.1375)"><g
           id="line2d_3"
           style="stroke-linecap:butt;stroke-linejoin:round"><defs
             id="defs59"><path
               id="path313542"
               d="M 0,0 H -3.5"
               style="stroke:#000000;stroke-width:0.8" /></defs><g
             id="g63"
             style="stroke-linecap:butt;stroke-linejoin:round"><path
               id="use61"
               d="m 69.653122,217.94188 h -3.5"
               style="stroke:#000000;stroke-width:0.8;stroke-linecap:butt;stroke-linejoin:round" /></g></g><g
           id="text_3"
           style="stroke-linecap:butt;stroke-linejoin:round"><!-- 0 --><g
             transform="matrix(0.1,0,0,-0.1,56.290625,221.74109)"
             id="g71"
             style="stroke-linecap:butt;stroke-linejoin:round"><defs
               id="defs67"><path
                 id="path313548"
                 d="m 2034,4250 q -487,0 -733,-480 -245,-479 -245,-1442 0,-959 245,-1439 246,-480 733,-480 491,0 736,480 246,480 246,1439 0,963 -246,1442 -245,480 -736,480 z m 0,500 q 785,0 1199,-621 414,-620 414,-1801 0,-1178 -414,-1799 -414,-620 -1199,-620 -784,0 -1198,620 -414,621 -414,1799 0,1181 414,1801 414,621 1198,621 z"
                 transform="scale(0.015625)" /></defs><path
               id="use69"
               d="m 31.78125,66.40625 q -7.609375,0 -11.453125,-7.5 Q 16.5,51.421875 16.5,36.375 q 0,-14.984375 3.828125,-22.484375 3.84375,-7.5 11.453125,-7.5 7.671875,0 11.5,7.5 3.84375,7.5 3.84375,22.484375 0,15.046875 -3.84375,22.53125 -3.828125,7.5 -11.5,7.5 z m 0,7.8125 q 12.265625,0 18.734375,-9.703125 6.46875,-9.6875 6.46875,-28.140625 0,-18.40625 -6.46875,-28.109375 -6.46875,-9.6875 -18.734375,-9.6875 -12.25,0 -18.71875,9.6875 Q 6.59375,17.96875 6.59375,36.375 q 0,18.453125 6.46875,28.140625 6.46875,9.703125 18.71875,9.703125 z"
               style="stroke-width:0.015625;stroke-linecap:butt;stroke-linejoin:round" /></g></g></g><g
         id="ytick_3"
         style="stroke-linecap:butt;stroke-linejoin:round"
         transform="matrix(1.2634158,0,0,1.2634158,42.806779,-159.1375)"><g
           id="line2d_5"
           style="stroke-linecap:butt;stroke-linejoin:round"><g
             id="g101"
             style="stroke-linecap:butt;stroke-linejoin:round"><path
               id="use99"
               d="m 69.653122,170.59515 h -3.5"
               style="stroke:#000000;stroke-width:0.8;stroke-linecap:butt;stroke-linejoin:round" /></g></g><g
           id="text_5"
           style="stroke-linecap:butt;stroke-linejoin:round"><!-- 200000 --><g
             transform="matrix(0.1,0,0,-0.1,24.478125,174.39438)"
             id="g119"
             style="stroke-linecap:butt;stroke-linejoin:round"><defs
               id="defs105"><path
                 id="path313558"
                 d="M 1228,531 H 3431 V 0 H 469 v 531 q 359,372 979,998 621,627 780,809 303,340 423,576 121,236 121,464 0,372 -261,606 -261,235 -680,235 -297,0 -627,-103 -329,-103 -704,-313 v 638 q 381,153 712,231 332,78 607,78 725,0 1156,-363 431,-362 431,-968 0,-288 -108,-546 -107,-257 -392,-607 -78,-91 -497,-524 Q 1991,1309 1228,531 Z"
                 transform="scale(0.015625)" /></defs><path
               id="use107"
               d="M 19.1875,8.296875 H 53.609375 V 0 H 7.328125 v 8.296875 q 5.609375,5.8125 15.296875,15.59375 9.703125,9.796875 12.1875,12.640625 4.734375,5.3125 6.609375,9 1.890625,3.6875 1.890625,7.25 0,5.8125 -4.078125,9.46875 -4.078125,3.671875 -10.625,3.671875 -4.640625,0 -9.796875,-1.609375 -5.140625,-1.609375 -11,-4.890625 v 9.96875 Q 13.765625,71.78125 18.9375,73 q 5.1875,1.21875 9.484375,1.21875 11.328125,0 18.0625,-5.671875 6.734375,-5.65625 6.734375,-15.125 0,-4.5 -1.6875,-8.53125 Q 49.859375,40.875 45.40625,35.40625 44.1875,33.984375 37.640625,27.21875 31.109375,20.453125 19.1875,8.296875 Z"
               style="stroke-width:0.015625;stroke-linecap:butt;stroke-linejoin:round" /><path
               id="use109"
               d="m 95.404297,66.40625 q -7.609375,0 -11.453125,-7.5 -3.828125,-7.484375 -3.828125,-22.53125 0,-14.984375 3.828125,-22.484375 3.84375,-7.5 11.453125,-7.5 7.671873,0 11.500003,7.5 3.84375,7.5 3.84375,22.484375 0,15.046875 -3.84375,22.53125 -3.82813,7.5 -11.500003,7.5 z m 0,7.8125 q 12.265623,0 18.734373,-9.703125 6.46875,-9.6875 6.46875,-28.140625 0,-18.40625 -6.46875,-28.109375 -6.46875,-9.6875 -18.734373,-9.6875 -12.25,0 -18.71875,9.6875 -6.46875,9.703125 -6.46875,28.109375 0,18.453125 6.46875,28.140625 6.46875,9.703125 18.71875,9.703125 z"
               style="stroke-width:0.015625;stroke-linecap:butt;stroke-linejoin:round" /><path
               id="use111"
               d="m 159.02734,66.40625 q -7.60937,0 -11.45312,-7.5 -3.82813,-7.484375 -3.82813,-22.53125 0,-14.984375 3.82813,-22.484375 3.84375,-7.5 11.45312,-7.5 7.67188,0 11.5,7.5 3.84375,7.5 3.84375,22.484375 0,15.046875 -3.84375,22.53125 -3.82812,7.5 -11.5,7.5 z m 0,7.8125 q 12.26563,0 18.73438,-9.703125 6.46875,-9.6875 6.46875,-28.140625 0,-18.40625 -6.46875,-28.109375 -6.46875,-9.6875 -18.73438,-9.6875 -12.25,0 -18.71875,9.6875 -6.46875,9.703125 -6.46875,28.109375 0,18.453125 6.46875,28.140625 6.46875,9.703125 18.71875,9.703125 z"
               style="stroke-width:0.015625;stroke-linecap:butt;stroke-linejoin:round" /><path
               id="use113"
               d="m 222.65039,66.40625 q -7.60937,0 -11.45312,-7.5 -3.82813,-7.484375 -3.82813,-22.53125 0,-14.984375 3.82813,-22.484375 3.84375,-7.5 11.45312,-7.5 7.67188,0 11.5,7.5 3.84375,7.5 3.84375,22.484375 0,15.046875 -3.84375,22.53125 -3.82812,7.5 -11.5,7.5 z m 0,7.8125 q 12.26563,0 18.73438,-9.703125 6.46875,-9.6875 6.46875,-28.140625 0,-18.40625 -6.46875,-28.109375 -6.46875,-9.6875 -18.73438,-9.6875 -12.25,0 -18.71875,9.6875 -6.46875,9.703125 -6.46875,28.109375 0,18.453125 6.46875,28.140625 6.46875,9.703125 18.71875,9.703125 z"
               style="stroke-width:0.015625;stroke-linecap:butt;stroke-linejoin:round" /><path
               id="use115"
               d="m 286.27344,66.40625 q -7.60938,0 -11.45313,-7.5 -3.82812,-7.484375 -3.82812,-22.53125 0,-14.984375 3.82812,-22.484375 3.84375,-7.5 11.45313,-7.5 7.67187,0 11.5,7.5 3.84375,7.5 3.84375,22.484375 0,15.046875 -3.84375,22.53125 -3.82813,7.5 -11.5,7.5 z m 0,7.8125 q 12.26562,0 18.73437,-9.703125 6.46875,-9.6875 6.46875,-28.140625 0,-18.40625 -6.46875,-28.109375 -6.46875,-9.6875 -18.73437,-9.6875 -12.25,0 -18.71875,9.6875 -6.46875,9.703125 -6.46875,28.109375 0,18.453125 6.46875,28.140625 6.46875,9.703125 18.71875,9.703125 z"
               style="stroke-width:0.015625;stroke-linecap:butt;stroke-linejoin:round" /><path
               id="use117"
               d="m 349.89648,66.40625 q -7.60937,0 -11.45312,-7.5 -3.82813,-7.484375 -3.82813,-22.53125 0,-14.984375 3.82813,-22.484375 3.84375,-7.5 11.45312,-7.5 7.67188,0 11.5,7.5 3.84375,7.5 3.84375,22.484375 0,15.046875 -3.84375,22.53125 -3.82812,7.5 -11.5,7.5 z m 0,7.8125 q 12.26563,0 18.73438,-9.703125 6.46875,-9.6875 6.46875,-28.140625 0,-18.40625 -6.46875,-28.109375 -6.46875,-9.6875 -18.73438,-9.6875 -12.25,0 -18.71875,9.6875 -6.46875,9.703125 -6.46875,28.109375 0,18.453125 6.46875,28.140625 6.46875,9.703125 18.71875,9.703125 z"
               style="stroke-width:0.015625;stroke-linecap:butt;stroke-linejoin:round" /></g></g></g><g
         id="ytick_5"
         style="stroke-linecap:butt;stroke-linejoin:round"
         transform="matrix(1.2634158,0,0,1.2634158,42.806779,-159.1375)"><g
           id="line2d_7"
           style="stroke-linecap:butt;stroke-linejoin:round"><g
             id="g149"
             style="stroke-linecap:butt;stroke-linejoin:round"><path
               id="use147"
               d="m 69.653122,123.24844 h -3.5"
               style="stroke:#000000;stroke-width:0.8;stroke-linecap:butt;stroke-linejoin:round" /></g></g><g
           id="text_7"
           style="stroke-linecap:butt;stroke-linejoin:round"><!-- 400000 --><g
             transform="matrix(0.1,0,0,-0.1,24.478125,127.04766)"
             id="g167"
             style="stroke-linecap:butt;stroke-linejoin:round"><defs
               id="defs153"><path
                 id="path313573"
                 d="M 2419,4116 825,1625 h 1594 z m -166,550 h 794 V 1625 h 666 V 1100 H 3047 V 0 H 2419 V 1100 H 313 v 609 z"
                 transform="scale(0.015625)" /></defs><path
               id="use155"
               d="M 37.796875,64.3125 12.890625,25.390625 h 24.90625 z m -2.59375,8.59375 h 12.40625 V 25.390625 h 10.40625 V 17.1875 H 47.609375 V 0 h -9.8125 V 17.1875 H 4.890625 v 9.515625 z"
               style="stroke-width:0.015625;stroke-linecap:butt;stroke-linejoin:round" /><path
               id="use157"
               d="m 95.404297,66.40625 q -7.609375,0 -11.453125,-7.5 -3.828125,-7.484375 -3.828125,-22.53125 0,-14.984375 3.828125,-22.484375 3.84375,-7.5 11.453125,-7.5 7.671873,0 11.500003,7.5 3.84375,7.5 3.84375,22.484375 0,15.046875 -3.84375,22.53125 -3.82813,7.5 -11.500003,7.5 z m 0,7.8125 q 12.265623,0 18.734373,-9.703125 6.46875,-9.6875 6.46875,-28.140625 0,-18.40625 -6.46875,-28.109375 -6.46875,-9.6875 -18.734373,-9.6875 -12.25,0 -18.71875,9.6875 -6.46875,9.703125 -6.46875,28.109375 0,18.453125 6.46875,28.140625 6.46875,9.703125 18.71875,9.703125 z"
               style="stroke-width:0.015625;stroke-linecap:butt;stroke-linejoin:round" /><path
               id="use159"
               d="m 159.02734,66.40625 q -7.60937,0 -11.45312,-7.5 -3.82813,-7.484375 -3.82813,-22.53125 0,-14.984375 3.82813,-22.484375 3.84375,-7.5 11.45312,-7.5 7.67188,0 11.5,7.5 3.84375,7.5 3.84375,22.484375 0,15.046875 -3.84375,22.53125 -3.82812,7.5 -11.5,7.5 z m 0,7.8125 q 12.26563,0 18.73438,-9.703125 6.46875,-9.6875 6.46875,-28.140625 0,-18.40625 -6.46875,-28.109375 -6.46875,-9.6875 -18.73438,-9.6875 -12.25,0 -18.71875,9.6875 -6.46875,9.703125 -6.46875,28.109375 0,18.453125 6.46875,28.140625 6.46875,9.703125 18.71875,9.703125 z"
               style="stroke-width:0.015625;stroke-linecap:butt;stroke-linejoin:round" /><path
               id="use161"
               d="m 222.65039,66.40625 q -7.60937,0 -11.45312,-7.5 -3.82813,-7.484375 -3.82813,-22.53125 0,-14.984375 3.82813,-22.484375 3.84375,-7.5 11.45312,-7.5 7.67188,0 11.5,7.5 3.84375,7.5 3.84375,22.484375 0,15.046875 -3.84375,22.53125 -3.82812,7.5 -11.5,7.5 z m 0,7.8125 q 12.26563,0 18.73438,-9.703125 6.46875,-9.6875 6.46875,-28.140625 0,-18.40625 -6.46875,-28.109375 -6.46875,-9.6875 -18.73438,-9.6875 -12.25,0 -18.71875,9.6875 -6.46875,9.703125 -6.46875,28.109375 0,18.453125 6.46875,28.140625 6.46875,9.703125 18.71875,9.703125 z"
               style="stroke-width:0.015625;stroke-linecap:butt;stroke-linejoin:round" /><path
               id="use163"
               d="m 286.27344,66.40625 q -7.60938,0 -11.45313,-7.5 -3.82812,-7.484375 -3.82812,-22.53125 0,-14.984375 3.82812,-22.484375 3.84375,-7.5 11.45313,-7.5 7.67187,0 11.5,7.5 3.84375,7.5 3.84375,22.484375 0,15.046875 -3.84375,22.53125 -3.82813,7.5 -11.5,7.5 z m 0,7.8125 q 12.26562,0 18.73437,-9.703125 6.46875,-9.6875 6.46875,-28.140625 0,-18.40625 -6.46875,-28.109375 -6.46875,-9.6875 -18.73437,-9.6875 -12.25,0 -18.71875,9.6875 -6.46875,9.703125 -6.46875,28.109375 0,18.453125 6.46875,28.140625 6.46875,9.703125 18.71875,9.703125 z"
               style="stroke-width:0.015625;stroke-linecap:butt;stroke-linejoin:round" /><path
               id="use165"
               d="m 349.89648,66.40625 q -7.60937,0 -11.45312,-7.5 -3.82813,-7.484375 -3.82813,-22.53125 0,-14.984375 3.82813,-22.484375 3.84375,-7.5 11.45312,-7.5 7.67188,0 11.5,7.5 3.84375,7.5 3.84375,22.484375 0,15.046875 -3.84375,22.53125 -3.82812,7.5 -11.5,7.5 z m 0,7.8125 q 12.26563,0 18.73438,-9.703125 6.46875,-9.6875 6.46875,-28.140625 0,-18.40625 -6.46875,-28.109375 -6.46875,-9.6875 -18.73438,-9.6875 -12.25,0 -18.71875,9.6875 -6.46875,9.703125 -6.46875,28.109375 0,18.453125 6.46875,28.140625 6.46875,9.703125 18.71875,9.703125 z"
               style="stroke-width:0.015625;stroke-linecap:butt;stroke-linejoin:round" /></g></g></g><g
         id="ytick_7"
         style="stroke-linecap:butt;stroke-linejoin:round"
         transform="matrix(1.2634158,0,0,1.2634158,42.806779,-159.1375)"><g
           id="line2d_9"
           style="stroke-linecap:butt;stroke-linejoin:round"><g
             id="g197"
             style="stroke-linecap:butt;stroke-linejoin:round"><path
               id="use195"
               d="m 69.653122,75.901733 h -3.5"
               style="stroke:#000000;stroke-width:0.8;stroke-linecap:butt;stroke-linejoin:round" /></g></g><g
           id="text_9"
           style="stroke-linecap:butt;stroke-linejoin:round"><!-- 600000 --><g
             transform="matrix(0.1,0,0,-0.1,24.478125,79.700951)"
             id="g215"
             style="stroke-linecap:butt;stroke-linejoin:round"><defs
               id="defs201"><path
                 id="path313588"
                 d="m 2113,2584 q -425,0 -674,-291 -248,-290 -248,-796 0,-503 248,-796 249,-292 674,-292 425,0 673,292 248,293 248,796 0,506 -248,796 -248,291 -673,291 z m 1253,1979 v -575 q -238,112 -480,171 -242,60 -480,60 -625,0 -955,-422 -329,-422 -376,-1275 184,272 462,417 279,145 613,145 703,0 1111,-427 408,-426 408,-1160 0,-719 -425,-1154 -425,-434 -1131,-434 -810,0 -1238,620 -428,621 -428,1799 0,1106 525,1764 525,658 1409,658 238,0 480,-47 242,-47 505,-140 z"
                 transform="scale(0.015625)" /></defs><path
               id="use203"
               d="m 33.015625,40.375 q -6.640625,0 -10.53125,-4.546875 -3.875,-4.53125 -3.875,-12.4375 0,-7.859375 3.875,-12.4375 3.890625,-4.5625 10.53125,-4.5625 6.640625,0 10.515625,4.5625 3.875,4.578125 3.875,12.4375 0,7.90625 -3.875,12.4375 Q 39.65625,40.375 33.015625,40.375 Z M 52.59375,71.296875 V 62.3125 q -3.71875,1.75 -7.5,2.671875 -3.78125,0.9375 -7.5,0.9375 -9.765625,0 -14.921875,-6.59375 -5.140625,-6.59375 -5.875,-19.921875 2.875,4.25 7.21875,6.515625 4.359375,2.265625 9.578125,2.265625 10.984375,0 17.359375,-6.671875 6.375,-6.65625 6.375,-18.125 0,-11.234375 -6.640625,-18.03125 -6.640625,-6.78125 -17.671875,-6.78125 -12.65625,0 -19.34375,9.6875 -6.6875,9.703125 -6.6875,28.109375 0,17.28125 8.203125,27.5625 8.203125,10.28125 22.015625,10.28125 3.71875,0 7.5,-0.734375 3.78125,-0.734375 7.890625,-2.1875 z"
               style="stroke-width:0.015625;stroke-linecap:butt;stroke-linejoin:round" /><path
               id="use205"
               d="m 95.404297,66.40625 q -7.609375,0 -11.453125,-7.5 -3.828125,-7.484375 -3.828125,-22.53125 0,-14.984375 3.828125,-22.484375 3.84375,-7.5 11.453125,-7.5 7.671873,0 11.500003,7.5 3.84375,7.5 3.84375,22.484375 0,15.046875 -3.84375,22.53125 -3.82813,7.5 -11.500003,7.5 z m 0,7.8125 q 12.265623,0 18.734373,-9.703125 6.46875,-9.6875 6.46875,-28.140625 0,-18.40625 -6.46875,-28.109375 -6.46875,-9.6875 -18.734373,-9.6875 -12.25,0 -18.71875,9.6875 -6.46875,9.703125 -6.46875,28.109375 0,18.453125 6.46875,28.140625 6.46875,9.703125 18.71875,9.703125 z"
               style="stroke-width:0.015625;stroke-linecap:butt;stroke-linejoin:round" /><path
               id="use207"
               d="m 159.02734,66.40625 q -7.60937,0 -11.45312,-7.5 -3.82813,-7.484375 -3.82813,-22.53125 0,-14.984375 3.82813,-22.484375 3.84375,-7.5 11.45312,-7.5 7.67188,0 11.5,7.5 3.84375,7.5 3.84375,22.484375 0,15.046875 -3.84375,22.53125 -3.82812,7.5 -11.5,7.5 z m 0,7.8125 q 12.26563,0 18.73438,-9.703125 6.46875,-9.6875 6.46875,-28.140625 0,-18.40625 -6.46875,-28.109375 -6.46875,-9.6875 -18.73438,-9.6875 -12.25,0 -18.71875,9.6875 -6.46875,9.703125 -6.46875,28.109375 0,18.453125 6.46875,28.140625 6.46875,9.703125 18.71875,9.703125 z"
               style="stroke-width:0.015625;stroke-linecap:butt;stroke-linejoin:round" /><path
               id="use209"
               d="m 222.65039,66.40625 q -7.60937,0 -11.45312,-7.5 -3.82813,-7.484375 -3.82813,-22.53125 0,-14.984375 3.82813,-22.484375 3.84375,-7.5 11.45312,-7.5 7.67188,0 11.5,7.5 3.84375,7.5 3.84375,22.484375 0,15.046875 -3.84375,22.53125 -3.82812,7.5 -11.5,7.5 z m 0,7.8125 q 12.26563,0 18.73438,-9.703125 6.46875,-9.6875 6.46875,-28.140625 0,-18.40625 -6.46875,-28.109375 -6.46875,-9.6875 -18.73438,-9.6875 -12.25,0 -18.71875,9.6875 -6.46875,9.703125 -6.46875,28.109375 0,18.453125 6.46875,28.140625 6.46875,9.703125 18.71875,9.703125 z"
               style="stroke-width:0.015625;stroke-linecap:butt;stroke-linejoin:round" /><path
               id="use211"
               d="m 286.27344,66.40625 q -7.60938,0 -11.45313,-7.5 -3.82812,-7.484375 -3.82812,-22.53125 0,-14.984375 3.82812,-22.484375 3.84375,-7.5 11.45313,-7.5 7.67187,0 11.5,7.5 3.84375,7.5 3.84375,22.484375 0,15.046875 -3.84375,22.53125 -3.82813,7.5 -11.5,7.5 z m 0,7.8125 q 12.26562,0 18.73437,-9.703125 6.46875,-9.6875 6.46875,-28.140625 0,-18.40625 -6.46875,-28.109375 -6.46875,-9.6875 -18.73437,-9.6875 -12.25,0 -18.71875,9.6875 -6.46875,9.703125 -6.46875,28.109375 0,18.453125 6.46875,28.140625 6.46875,9.703125 18.71875,9.703125 z"
               style="stroke-width:0.015625;stroke-linecap:butt;stroke-linejoin:round" /><path
               id="use213"
               d="m 349.89648,66.40625 q -7.60937,0 -11.45312,-7.5 -3.82813,-7.484375 -3.82813,-22.53125 0,-14.984375 3.82813,-22.484375 3.84375,-7.5 11.45312,-7.5 7.67188,0 11.5,7.5 3.84375,7.5 3.84375,22.484375 0,15.046875 -3.84375,22.53125 -3.82812,7.5 -11.5,7.5 z m 0,7.8125 q 12.26563,0 18.73438,-9.703125 6.46875,-9.6875 6.46875,-28.140625 0,-18.40625 -6.46875,-28.109375 -6.46875,-9.6875 -18.73438,-9.6875 -12.25,0 -18.71875,9.6875 -6.46875,9.703125 -6.46875,28.109375 0,18.453125 6.46875,28.140625 6.46875,9.703125 18.71875,9.703125 z"
               style="stroke-width:0.015625;stroke-linecap:butt;stroke-linejoin:round" /></g></g></g><g
         id="ytick_9"
         style="stroke-linecap:butt;stroke-linejoin:round"
         transform="matrix(1.2634158,0,0,1.2634158,42.806779,-159.1375)"><g
           id="line2d_11"
           style="stroke-linecap:butt;stroke-linejoin:round"><g
             id="g245"
             style="stroke-linecap:butt;stroke-linejoin:round"><path
               id="use243"
               d="m 69.653122,28.555017 h -3.5"
               style="stroke:#000000;stroke-width:0.8;stroke-linecap:butt;stroke-linejoin:round" /></g></g><g
           id="text_11"
           style="stroke-linecap:butt;stroke-linejoin:round"><!-- 800000 --><g
             transform="matrix(0.1,0,0,-0.1,24.478125,32.354237)"
             id="g263"
             style="stroke-linecap:butt;stroke-linejoin:round"><defs
               id="defs249"><path
                 id="path313603"
                 d="m 2034,2216 q -450,0 -708,-241 -257,-241 -257,-662 0,-422 257,-663 258,-241 708,-241 450,0 709,242 260,243 260,662 0,421 -258,662 -257,241 -711,241 z m -631,268 q -406,100 -633,378 -226,279 -226,679 0,559 398,884 399,325 1092,325 697,0 1094,-325 397,-325 397,-884 0,-400 -227,-679 -226,-278 -629,-378 456,-106 710,-416 255,-309 255,-755 Q 3634,634 3220,271 2806,-91 2034,-91 1263,-91 848,271 434,634 434,1313 q 0,446 256,755 257,310 713,416 z m -231,997 q 0,-362 226,-565 227,-203 636,-203 407,0 636,203 230,203 230,565 0,363 -230,566 -229,203 -636,203 -409,0 -636,-203 -226,-203 -226,-566 z"
                 transform="scale(0.015625)" /></defs><path
               id="use251"
               d="m 31.78125,34.625 q -7.03125,0 -11.0625,-3.765625 -4.015625,-3.765625 -4.015625,-10.34375 0,-6.59375 4.015625,-10.359375 4.03125,-3.765625 11.0625,-3.765625 7.03125,0 11.078125,3.78125 4.0625,3.796875 4.0625,10.34375 0,6.578125 -4.03125,10.34375 Q 38.875,34.625 31.78125,34.625 Z m -9.859375,4.1875 Q 15.578125,40.375 12.03125,44.71875 8.5,49.078125 8.5,55.328125 q 0,8.734375 6.21875,13.8125 6.234375,5.078125 17.0625,5.078125 10.890625,0 17.09375,-5.078125 6.203125,-5.078125 6.203125,-13.8125 0,-6.25 -3.546875,-10.609375 Q 48,40.375 41.703125,38.8125 q 7.125,-1.65625 11.09375,-6.5 3.984375,-4.828125 3.984375,-11.796875 0,-10.609375 -6.46875,-16.28125 -6.46875,-5.65625 -18.53125,-5.65625 -12.046875,0 -18.53125,5.65625 -6.46875,5.671875 -6.46875,16.28125 0,6.96875 4,11.796875 4.015625,4.84375 11.140625,6.5 z M 18.3125,54.390625 q 0,-5.65625 3.53125,-8.828125 3.546875,-3.171875 9.9375,-3.171875 6.359375,0 9.9375,3.171875 3.59375,3.171875 3.59375,8.828125 0,5.671875 -3.59375,8.84375 -3.578125,3.171875 -9.9375,3.171875 -6.390625,0 -9.9375,-3.171875 Q 18.3125,60.0625 18.3125,54.390625 Z"
               style="stroke-width:0.015625;stroke-linecap:butt;stroke-linejoin:round" /><path
               id="use253"
               d="m 95.404297,66.40625 q -7.609375,0 -11.453125,-7.5 -3.828125,-7.484375 -3.828125,-22.53125 0,-14.984375 3.828125,-22.484375 3.84375,-7.5 11.453125,-7.5 7.671873,0 11.500003,7.5 3.84375,7.5 3.84375,22.484375 0,15.046875 -3.84375,22.53125 -3.82813,7.5 -11.500003,7.5 z m 0,7.8125 q 12.265623,0 18.734373,-9.703125 6.46875,-9.6875 6.46875,-28.140625 0,-18.40625 -6.46875,-28.109375 -6.46875,-9.6875 -18.734373,-9.6875 -12.25,0 -18.71875,9.6875 -6.46875,9.703125 -6.46875,28.109375 0,18.453125 6.46875,28.140625 6.46875,9.703125 18.71875,9.703125 z"
               style="stroke-width:0.015625;stroke-linecap:butt;stroke-linejoin:round" /><path
               id="use255"
               d="m 159.02734,66.40625 q -7.60937,0 -11.45312,-7.5 -3.82813,-7.484375 -3.82813,-22.53125 0,-14.984375 3.82813,-22.484375 3.84375,-7.5 11.45312,-7.5 7.67188,0 11.5,7.5 3.84375,7.5 3.84375,22.484375 0,15.046875 -3.84375,22.53125 -3.82812,7.5 -11.5,7.5 z m 0,7.8125 q 12.26563,0 18.73438,-9.703125 6.46875,-9.6875 6.46875,-28.140625 0,-18.40625 -6.46875,-28.109375 -6.46875,-9.6875 -18.73438,-9.6875 -12.25,0 -18.71875,9.6875 -6.46875,9.703125 -6.46875,28.109375 0,18.453125 6.46875,28.140625 6.46875,9.703125 18.71875,9.703125 z"
               style="stroke-width:0.015625;stroke-linecap:butt;stroke-linejoin:round" /><path
               id="use257"
               d="m 222.65039,66.40625 q -7.60937,0 -11.45312,-7.5 -3.82813,-7.484375 -3.82813,-22.53125 0,-14.984375 3.82813,-22.484375 3.84375,-7.5 11.45312,-7.5 7.67188,0 11.5,7.5 3.84375,7.5 3.84375,22.484375 0,15.046875 -3.84375,22.53125 -3.82812,7.5 -11.5,7.5 z m 0,7.8125 q 12.26563,0 18.73438,-9.703125 6.46875,-9.6875 6.46875,-28.140625 0,-18.40625 -6.46875,-28.109375 -6.46875,-9.6875 -18.73438,-9.6875 -12.25,0 -18.71875,9.6875 -6.46875,9.703125 -6.46875,28.109375 0,18.453125 6.46875,28.140625 6.46875,9.703125 18.71875,9.703125 z"
               style="stroke-width:0.015625;stroke-linecap:butt;stroke-linejoin:round" /><path
               id="use259"
               d="m 286.27344,66.40625 q -7.60938,0 -11.45313,-7.5 -3.82812,-7.484375 -3.82812,-22.53125 0,-14.984375 3.82812,-22.484375 3.84375,-7.5 11.45313,-7.5 7.67187,0 11.5,7.5 3.84375,7.5 3.84375,22.484375 0,15.046875 -3.84375,22.53125 -3.82813,7.5 -11.5,7.5 z m 0,7.8125 q 12.26562,0 18.73437,-9.703125 6.46875,-9.6875 6.46875,-28.140625 0,-18.40625 -6.46875,-28.109375 -6.46875,-9.6875 -18.73437,-9.6875 -12.25,0 -18.71875,9.6875 -6.46875,9.703125 -6.46875,28.109375 0,18.453125 6.46875,28.140625 6.46875,9.703125 18.71875,9.703125 z"
               style="stroke-width:0.015625;stroke-linecap:butt;stroke-linejoin:round" /><path
               id="use261"
               d="m 349.89648,66.40625 q -7.60937,0 -11.45312,-7.5 -3.82813,-7.484375 -3.82813,-22.53125 0,-14.984375 3.82813,-22.484375 3.84375,-7.5 11.45312,-7.5 7.67188,0 11.5,7.5 3.84375,7.5 3.84375,22.484375 0,15.046875 -3.84375,22.53125 -3.82812,7.5 -11.5,7.5 z m 0,7.8125 q 12.26563,0 18.73438,-9.703125 6.46875,-9.6875 6.46875,-28.140625 0,-18.40625 -6.46875,-28.109375 -6.46875,-9.6875 -18.73438,-9.6875 -12.25,0 -18.71875,9.6875 -6.46875,9.703125 -6.46875,28.109375 0,18.453125 6.46875,28.140625 6.46875,9.703125 18.71875,9.703125 z"
               style="stroke-width:0.015625;stroke-linecap:butt;stroke-linejoin:round" /></g></g></g><g
         id="text_12"
         style="stroke-linecap:butt;stroke-linejoin:round"
         transform="matrix(1.2634158,0,0,1.2634158,42.806779,-159.1375)"><!-- time ago (generations) --><g
           transform="matrix(0,-0.1,-0.1,0,18.398438,171.84203)"
           id="g326"
           style="stroke-linecap:butt;stroke-linejoin:round"><defs
             id="defs280"><path
               id="path313615"
               d="M 1172,4494 V 3500 H 2356 V 3053 H 1172 V 1153 q 0,-428 117,-550 117,-122 477,-122 h 590 V 0 H 1766 Q 1100,0 847,248 594,497 594,1153 V 3053 H 172 v 447 h 422 v 994 z"
               transform="scale(0.015625)" /><path
               id="path313617"
               d="m 603,3500 h 575 V 0 H 603 Z m 0,1363 h 575 V 4134 H 603 Z"
               transform="scale(0.015625)" /><path
               id="path313619"
               d="m 3328,2828 q 216,388 516,572 300,184 706,184 547,0 844,-383 297,-382 297,-1088 V 0 h -578 v 2094 q 0,503 -179,746 -178,244 -543,244 -447,0 -707,-297 -259,-296 -259,-809 V 0 h -578 v 2094 q 0,506 -178,748 -178,242 -550,242 -441,0 -701,-298 -259,-298 -259,-808 V 0 H 581 v 3500 h 578 v -544 q 197,322 472,475 275,153 653,153 382,0 649,-194 267,-193 395,-562 z"
               transform="scale(0.015625)" /><path
               id="path313621"
               d="M 3597,1894 V 1613 H 953 q 38,-594 358,-905 320,-311 892,-311 331,0 642,81 311,81 618,244 V 178 Q 3153,47 2828,-22 2503,-91 2169,-91 1331,-91 842,396 353,884 353,1716 q 0,859 464,1363 464,505 1252,505 706,0 1117,-455 411,-454 411,-1235 z m -575,169 q -6,471 -264,752 -258,282 -683,282 -481,0 -770,-272 -289,-272 -333,-766 z"
               transform="scale(0.015625)" /><path
               id="path313623"
               transform="scale(0.015625)"
               d="" /><path
               id="path313625"
               d="m 2194,1759 q -697,0 -966,-159 -269,-159 -269,-544 0,-306 202,-486 202,-179 548,-179 479,0 768,339 289,339 289,901 v 128 z m 1147,238 V 0 H 2766 V 531 Q 2569,213 2275,61 1981,-91 1556,-91 q -537,0 -855,302 -317,302 -317,808 0,590 395,890 396,300 1180,300 h 807 v 57 q 0,397 -261,614 -261,217 -733,217 -300,0 -585,-72 -284,-72 -546,-216 v 532 q 315,122 612,182 297,61 578,61 760,0 1135,-394 375,-393 375,-1193 z"
               transform="scale(0.015625)" /><path
               id="path313627"
               d="m 2906,1791 q 0,625 -258,968 -257,344 -723,344 -462,0 -720,-344 -258,-343 -258,-968 0,-622 258,-966 258,-344 720,-344 466,0 723,344 258,344 258,966 z M 3481,434 q 0,-893 -397,-1329 -396,-436 -1215,-436 -303,0 -572,45 -269,45 -522,139 v 559 q 253,-137 500,-202 247,-66 503,-66 566,0 847,295 281,295 281,892 V 616 Q 2728,306 2450,153 2172,0 1784,0 1141,0 747,490 353,981 353,1791 q 0,812 394,1302 394,491 1037,491 388,0 666,-153 278,-153 456,-462 v 531 h 575 z"
               transform="scale(0.015625)" /><path
               id="path313629"
               d="m 1959,3097 q -462,0 -731,-361 -269,-361 -269,-989 0,-628 267,-989 268,-361 733,-361 460,0 728,362 269,363 269,988 0,622 -269,986 -268,364 -728,364 z m 0,487 q 750,0 1178,-488 429,-487 429,-1349 Q 3566,888 3137,398 2709,-91 1959,-91 1206,-91 779,398 353,888 353,1747 q 0,862 426,1349 427,488 1180,488 z"
               transform="scale(0.015625)" /><path
               id="path313631"
               d="m 1984,4856 q -418,-718 -622,-1422 -203,-703 -203,-1425 0,-721 205,-1429 205,-708 620,-1424 h -500 q -468,735 -701,1444 -233,709 -233,1409 0,697 231,1403 232,707 703,1444 z"
               transform="scale(0.015625)" /><path
               id="path313633"
               d="M 3513,2113 V 0 h -575 v 2094 q 0,497 -194,743 -194,247 -581,247 -466,0 -735,-297 -269,-296 -269,-809 V 0 H 581 v 3500 h 578 v -544 q 207,316 486,472 280,156 646,156 603,0 912,-373 310,-373 310,-1098 z"
               transform="scale(0.015625)" /><path
               id="path313635"
               d="m 2631,2963 q -97,56 -211,82 -114,27 -251,27 -488,0 -749,-317 -261,-317 -261,-911 V 0 H 581 v 3500 h 578 v -544 q 182,319 472,473 291,155 707,155 59,0 131,-8 72,-7 159,-23 z"
               transform="scale(0.015625)" /><path
               id="path313637"
               d="m 2834,3397 v -544 q -243,125 -506,187 -262,63 -544,63 -428,0 -642,-131 -214,-131 -214,-394 0,-200 153,-314 153,-114 616,-217 l 197,-44 q 612,-131 870,-370 258,-239 258,-667 0,-488 -386,-773 Q 2250,-91 1575,-91 1294,-91 989,-36 684,19 347,128 v 594 q 319,-166 628,-249 309,-82 613,-82 406,0 624,139 219,139 219,392 0,234 -158,359 -157,125 -692,241 l -200,47 q -534,112 -772,345 -237,233 -237,639 0,494 350,762 350,269 994,269 318,0 599,-47 282,-46 519,-140 z"
               transform="scale(0.015625)" /><path
               id="path313639"
               d="m 513,4856 h 500 q 468,-737 701,-1444 233,-706 233,-1403 0,-700 -233,-1409 -233,-709 -701,-1444 H 513 q 415,716 620,1424 205,708 205,1429 0,722 -205,1425 -205,704 -620,1422 z"
               transform="scale(0.015625)" /></defs><path
             id="use282"
             d="M 18.3125,70.21875 V 54.6875 h 18.5 v -6.984375 h -18.5 v -29.6875 q 0,-6.6875 1.828125,-8.59375 1.828125,-1.90625 7.453125,-1.90625 H 36.8125 V 0 H 27.59375 Q 17.1875,0 13.234375,3.875 9.28125,7.765625 9.28125,18.015625 v 29.6875 H 2.6875 V 54.6875 h 6.59375 v 15.53125 z"
             style="stroke-width:0.015625;stroke-linecap:butt;stroke-linejoin:round" /><path
             id="use284"
             d="m 48.630859,54.6875 h 8.984375 V 0 h -8.984375 z m 0,21.296875 h 8.984375 V 64.59375 h -8.984375 z"
             style="stroke-width:0.015625;stroke-linecap:butt;stroke-linejoin:round" /><path
             id="use286"
             d="m 118.99219,44.1875 q 3.375,6.0625 8.0625,8.9375 4.6875,2.875 11.03125,2.875 8.54687,0 13.1875,-5.984375 4.64062,-5.96875 4.64062,-17 V 0 h -9.03125 v 32.71875 q 0,7.859375 -2.79687,11.65625 -2.78125,3.8125 -8.48438,3.8125 -6.98437,0 -11.04687,-4.640625 -4.04688,-4.625 -4.04688,-12.640625 V 0 h -9.03125 v 32.71875 q 0,7.90625 -2.78125,11.6875 -2.78125,3.78125 -8.59375,3.78125 -6.890623,0 -10.953123,-4.65625 -4.046875,-4.65625 -4.046875,-12.625 V 0 h -9.03125 v 54.6875 h 9.03125 v -8.5 q 3.078125,5.03125 7.375,7.421875 Q 96.773437,56 102.67969,56 q 5.96875,0 10.14062,-3.03125 4.17188,-3.015625 6.17188,-8.78125 z"
             style="stroke-width:0.015625;stroke-linecap:butt;stroke-linejoin:round" /><path
             id="use288"
             d="m 220.60742,29.59375 v -4.390625 h -41.3125 q 0.59375,-9.28125 5.59375,-14.140625 5,-4.859375 13.9375,-4.859375 5.17188,0 10.03125,1.265625 4.85938,1.265625 9.65625,3.8125 v -8.5 q -4.84375,-2.046875 -9.92187,-3.125 -5.07813,-1.078125 -10.29688,-1.078125 -13.09375,0 -20.73437,7.609375 -7.64063,7.625 -7.64063,20.625 0,13.421875 7.25,21.296875 Q 184.41992,56 196.73242,56 q 11.03125,0 17.45313,-7.109375 6.42187,-7.09375 6.42187,-19.296875 z m -8.98437,2.640625 q -0.0937,7.359375 -4.125,11.75 -4.03125,4.40625 -10.67188,4.40625 -7.51562,0 -12.03125,-4.25 -4.51562,-4.25 -5.20312,-11.96875 z"
             style="stroke-width:0.015625;stroke-linecap:butt;stroke-linejoin:round" /><path
             id="use290"
             d=""
             style="stroke-width:0.015625;stroke-linecap:butt;stroke-linejoin:round" /><path
             id="use292"
             d="m 291.99609,27.484375 q -10.89062,0 -15.09375,-2.484375 -4.20312,-2.484375 -4.20312,-8.5 0,-4.78125 3.15625,-7.59375 3.15625,-2.796875 8.5625,-2.796875 7.48437,0 12,5.296875 4.51562,5.296875 4.51562,14.078125 v 2 z m 17.92188,3.71875 V 0 h -8.98438 v 8.296875 q -3.07812,-4.96875 -7.67187,-7.34375 -4.59375,-2.375 -11.23438,-2.375 -8.39062,0 -13.35937,4.71875 -4.95313,4.71875 -4.95313,12.625 0,9.21875 6.17188,13.90625 6.1875,4.6875 18.4375,4.6875 h 12.60937 v 0.890625 q 0,6.203125 -4.07812,9.59375 -4.07813,3.390625 -11.45313,3.390625 -4.6875,0 -9.14062,-1.125 -4.4375,-1.125 -8.53125,-3.375 v 8.3125 q 4.92187,1.90625 9.5625,2.84375 Q 281.93359,56 286.32422,56 q 11.875,0 17.73437,-6.15625 5.85938,-6.140625 5.85938,-18.640625 z"
             style="stroke-width:0.015625;stroke-linecap:butt;stroke-linejoin:round" /><path
             id="use294"
             d="m 364.40039,27.984375 q 0,9.765625 -4.03125,15.125 -4.01562,5.375 -11.29687,5.375 -7.21875,0 -11.25,-5.375 -4.03125,-5.359375 -4.03125,-15.125 0,-9.71875 4.03125,-15.09375 4.03125,-5.375 11.25,-5.375 7.28125,0 11.29687,5.375 4.03125,5.375 4.03125,15.09375 z M 373.38477,6.78125 q 0,-13.953125 -6.20313,-20.765625 -6.1875,-6.8125 -18.98437,-6.8125 -4.73438,0 -8.9375,0.703125 -4.20313,0.703125 -8.15625,2.171875 V -9.1875 q 3.95312,-2.140625 7.8125,-3.15625 3.85937,-1.03125 7.85937,-1.03125 8.84375,0 13.23438,4.609375 4.39062,4.609375 4.39062,13.9375 V 9.625 Q 361.61914,4.78125 357.27539,2.390625 352.93164,0 346.86914,0 q -10.04687,0 -16.20312,7.65625 -6.15625,7.671875 -6.15625,20.328125 0,12.6875 6.15625,20.34375 Q 336.82227,56 346.86914,56 q 6.0625,0 10.40625,-2.390625 4.34375,-2.390625 7.125,-7.21875 V 54.6875 h 8.98438 z"
             style="stroke-width:0.015625;stroke-linecap:butt;stroke-linejoin:round" /><path
             id="use296"
             d="m 413.08008,48.390625 q -7.21875,0 -11.42188,-5.640625 -4.20312,-5.640625 -4.20312,-15.453125 0,-9.8125 4.17187,-15.453125 4.1875,-5.640625 11.45313,-5.640625 7.1875,0 11.375,5.65625 4.20312,5.671875 4.20312,15.4375 0,9.71875 -4.20312,15.40625 -4.1875,5.6875 -11.375,5.6875 z m 0,7.609375 q 11.71875,0 18.40625,-7.625 6.70312,-7.609375 6.70312,-21.078125 0,-13.421875 -6.70312,-21.078125 -6.6875,-7.640625 -18.40625,-7.640625 -11.76563,0 -18.4375,7.640625 -6.65625,7.65625 -6.65625,21.078125 0,13.46875 6.65625,21.078125 6.67187,7.625 18.4375,7.625 z"
             style="stroke-width:0.015625;stroke-linecap:butt;stroke-linejoin:round" /><path
             id="use298"
             d=""
             style="stroke-width:0.015625;stroke-linecap:butt;stroke-linejoin:round" /><path
             id="use300"
             d="m 506.43945,75.875 q -6.53125,-11.21875 -9.71875,-22.21875 -3.17187,-10.984375 -3.17187,-22.265625 0,-11.265625 3.20312,-22.328125 3.20313,-11.0625 9.6875,-22.25 h -7.8125 q -7.3125,11.484375 -10.95312,22.5625 -3.64063,11.078125 -3.64063,22.015625 0,10.890625 3.60938,21.921875 3.625,11.046875 10.98437,22.5625 z"
             style="stroke-width:0.015625;stroke-linecap:butt;stroke-linejoin:round" /><path
             id="use302"
             d="m 559.85937,27.984375 q 0,9.765625 -4.03125,15.125 -4.01562,5.375 -11.29687,5.375 -7.21875,0 -11.25,-5.375 Q 529.25,37.75 529.25,27.984375 q 0,-9.71875 4.03125,-15.09375 4.03125,-5.375 11.25,-5.375 7.28125,0 11.29687,5.375 4.03125,5.375 4.03125,15.09375 z M 568.84375,6.78125 q 0,-13.953125 -6.20313,-20.765625 -6.1875,-6.8125 -18.98437,-6.8125 -4.73438,0 -8.9375,0.703125 -4.20313,0.703125 -8.15625,2.171875 V -9.1875 q 3.95312,-2.140625 7.8125,-3.15625 3.85937,-1.03125 7.85937,-1.03125 8.84375,0 13.23438,4.609375 4.39062,4.609375 4.39062,13.9375 V 9.625 Q 557.07812,4.78125 552.73437,2.390625 548.39062,0 542.32812,0 532.28125,0 526.125,7.65625 q -6.15625,7.671875 -6.15625,20.328125 0,12.6875 6.15625,20.34375 Q 532.28125,56 542.32812,56 q 6.0625,0 10.40625,-2.390625 4.34375,-2.390625 7.125,-7.21875 V 54.6875 h 8.98438 z"
             style="stroke-width:0.015625;stroke-linecap:butt;stroke-linejoin:round" /><path
             id="use304"
             d="m 634.13281,29.59375 v -4.390625 h -41.3125 q 0.59375,-9.28125 5.59375,-14.140625 5,-4.859375 13.9375,-4.859375 5.17188,0 10.03125,1.265625 4.85938,1.265625 9.65625,3.8125 v -8.5 q -4.84375,-2.046875 -9.92187,-3.125 -5.07813,-1.078125 -10.29688,-1.078125 -13.09375,0 -20.73437,7.609375 -7.64063,7.625 -7.64063,20.625 0,13.421875 7.25,21.296875 Q 597.94531,56 610.25781,56 q 11.03125,0 17.45313,-7.109375 6.42187,-7.09375 6.42187,-19.296875 z m -8.98437,2.640625 q -0.0937,7.359375 -4.125,11.75 -4.03125,4.40625 -10.67188,4.40625 -7.51562,0 -12.03125,-4.25 -4.51562,-4.25 -5.20312,-11.96875 z"
             style="stroke-width:0.015625;stroke-linecap:butt;stroke-linejoin:round" /><path
             id="use306"
             d="M 694.34375,33.015625 V 0 h -8.98438 v 32.71875 q 0,7.765625 -3.03125,11.609375 -3.03125,3.859375 -9.07812,3.859375 -7.28125,0 -11.48438,-4.640625 -4.20312,-4.625 -4.20312,-12.640625 V 0 h -9.03125 v 54.6875 h 9.03125 v -8.5 q 3.23437,4.9375 7.59375,7.375 Q 669.53125,56 675.25,56 q 9.42187,0 14.25,-5.828125 4.84375,-5.828125 4.84375,-17.15625 z"
             style="stroke-width:0.015625;stroke-linecap:butt;stroke-linejoin:round" /><path
             id="use308"
             d="m 759.03516,29.59375 v -4.390625 h -41.3125 q 0.59375,-9.28125 5.59375,-14.140625 5,-4.859375 13.9375,-4.859375 5.17187,0 10.03125,1.265625 4.85937,1.265625 9.65625,3.8125 v -8.5 q -4.84375,-2.046875 -9.92188,-3.125 -5.07812,-1.078125 -10.29687,-1.078125 -13.09375,0 -20.73438,7.609375 -7.64062,7.625 -7.64062,20.625 0,13.421875 7.25,21.296875 Q 722.84766,56 735.16016,56 q 11.03125,0 17.45312,-7.109375 6.42188,-7.09375 6.42188,-19.296875 z m -8.98438,2.640625 q -0.0937,7.359375 -4.125,11.75 -4.03125,4.40625 -10.67187,4.40625 -7.51563,0 -12.03125,-4.25 -4.51563,-4.25 -5.20313,-11.96875 z"
             style="stroke-width:0.015625;stroke-linecap:butt;stroke-linejoin:round" /><path
             id="use310"
             d="m 805.46484,46.296875 q -1.51562,0.875 -3.29687,1.28125 Q 800.38672,48 798.24609,48 790.62109,48 786.54297,43.046875 782.46484,38.09375 782.46484,28.8125 V 0 h -9.03125 v 54.6875 h 9.03125 v -8.5 q 2.84375,4.984375 7.375,7.390625 Q 794.38672,56 800.88672,56 q 0.92187,0 2.04687,-0.125 1.125,-0.109375 2.48438,-0.359375 z"
             style="stroke-width:0.015625;stroke-linecap:butt;stroke-linejoin:round" /><path
             id="use312"
             d="m 839.75,27.484375 q -10.89063,0 -15.09375,-2.484375 -4.20313,-2.484375 -4.20313,-8.5 0,-4.78125 3.15625,-7.59375 3.15625,-2.796875 8.5625,-2.796875 7.48438,0 12,5.296875 4.51563,5.296875 4.51563,14.078125 v 2 z m 17.92187,3.71875 V 0 h -8.98437 v 8.296875 q -3.07813,-4.96875 -7.67188,-7.34375 -4.59375,-2.375 -11.23437,-2.375 -8.39063,0 -13.35938,4.71875 -4.95312,4.71875 -4.95312,12.625 0,9.21875 6.17187,13.90625 6.1875,4.6875 18.4375,4.6875 h 12.60938 v 0.890625 q 0,6.203125 -4.07813,9.59375 -4.07812,3.390625 -11.45312,3.390625 -4.6875,0 -9.14063,-1.125 -4.4375,-1.125 -8.53125,-3.375 v 8.3125 q 4.92188,1.90625 9.5625,2.84375 Q 829.6875,56 834.07812,56 q 11.875,0 17.73438,-6.15625 5.85937,-6.140625 5.85937,-18.640625 z"
             style="stroke-width:0.015625;stroke-linecap:butt;stroke-linejoin:round" /><path
             id="use314"
             d="M 885.06055,70.21875 V 54.6875 h 18.5 v -6.984375 h -18.5 v -29.6875 q 0,-6.6875 1.82812,-8.59375 1.82813,-1.90625 7.45313,-1.90625 h 9.21875 V 0 h -9.21875 q -10.40625,0 -14.35938,3.875 -3.95312,3.890625 -3.95312,14.140625 v 29.6875 h -6.59375 V 54.6875 h 6.59375 v 15.53125 z"
             style="stroke-width:0.015625;stroke-linecap:butt;stroke-linejoin:round" /><path
             id="use316"
             d="m 915.37891,54.6875 h 8.98437 V 0 h -8.98437 z m 0,21.296875 h 8.98437 V 64.59375 h -8.98437 z"
             style="stroke-width:0.015625;stroke-linecap:butt;stroke-linejoin:round" /><path
             id="use318"
             d="m 964.34961,48.390625 q -7.21875,0 -11.42188,-5.640625 -4.20312,-5.640625 -4.20312,-15.453125 0,-9.8125 4.17187,-15.453125 4.1875,-5.640625 11.45313,-5.640625 7.1875,0 11.375,5.65625 4.20312,5.671875 4.20312,15.4375 0,9.71875 -4.20312,15.40625 -4.1875,5.6875 -11.375,5.6875 z m 0,7.609375 q 11.71875,0 18.40625,-7.625 6.70312,-7.609375 6.70312,-21.078125 0,-13.421875 -6.70312,-21.078125 -6.6875,-7.640625 -18.40625,-7.640625 -11.76563,0 -18.4375,7.640625 -6.65625,7.65625 -6.65625,21.078125 0,13.46875 6.65625,21.078125 6.67187,7.625 18.4375,7.625 z"
             style="stroke-width:0.015625;stroke-linecap:butt;stroke-linejoin:round" /><path
             id="use320"
             d="M 1049.8125,33.015625 V 0 h -8.9844 v 32.71875 q 0,7.765625 -3.0312,11.609375 -3.0313,3.859375 -9.0781,3.859375 -7.2813,0 -11.4844,-4.640625 -4.2032,-4.625 -4.2032,-12.640625 V 0 H 1004 v 54.6875 h 9.0312 v -8.5 q 3.2344,4.9375 7.5938,7.375 Q 1025,56 1030.7188,56 q 9.4218,0 14.25,-5.828125 4.8437,-5.828125 4.8437,-17.15625 z"
             style="stroke-width:0.015625;stroke-linecap:butt;stroke-linejoin:round" /><path
             id="use322"
             d="m 1102.582,53.078125 v -8.5 q -3.7968,1.953125 -7.9062,2.921875 -4.0938,0.984375 -8.5,0.984375 -6.6875,0 -10.0313,-2.046875 -3.3437,-2.046875 -3.3437,-6.15625 0,-3.125 2.3906,-4.90625 2.3906,-1.78125 9.625,-3.390625 l 3.0781,-0.6875 q 9.5625,-2.046875 13.5938,-5.78125 4.0312,-3.734375 4.0312,-10.421875 0,-7.625 -6.0312,-12.078125 -6.0313,-4.4375 -16.5781,-4.4375 -4.3907,0 -9.1563,0.859375 -4.7656,0.859375 -10.0312,2.5625 v 9.28125 q 4.9843,-2.59375 9.8125,-3.890625 4.8281,-1.28125 9.5781,-1.28125 6.3437,0 9.75,2.171875 3.4219,2.171875 3.4219,6.125 0,3.65625 -2.4688,5.609375 -2.4531,1.953125 -10.8125,3.765625 l -3.125,0.734375 q -8.3437,1.75 -12.0625,5.390625 -3.7031,3.640625 -3.7031,9.984375 0,7.71875 5.4687,11.90625 Q 1075.0508,56 1085.1133,56 q 4.9687,0 9.3594,-0.734375 4.4062,-0.71875 8.1093,-2.1875 z"
             style="stroke-width:0.015625;stroke-linecap:butt;stroke-linejoin:round" /><path
             id="use324"
             d="m 1118.416,75.875 h 7.8125 q 7.3125,-11.515625 10.9531,-22.5625 3.6407,-11.03125 3.6407,-21.921875 0,-10.9375 -3.6407,-22.015625 -3.6406,-11.078125 -10.9531,-22.5625 h -7.8125 q 6.4844,11.1875 9.6875,22.25 3.2031,11.0625 3.2031,22.328125 0,11.28125 -3.2031,22.265625 -3.2031,11 -9.6875,22.21875 z"
             style="stroke-width:0.015625;stroke-linecap:butt;stroke-linejoin:round" /></g></g></g></g><metadata
     id="metadata397870"><rdf:RDF><cc:Work
         rdf:about=""><dc:title>full_new</dc:title></cc:Work></rdf:RDF></metadata></svg>
