<?xml version="1.0" encoding="UTF-8" standalone="no"?>
<svg
   width="241.92pt"
   height="241.92pt"
   viewBox="0 0 241.92 241.92"
   version="1.1"
   id="svg17624"
   sodipodi:docname="momentsLD.svg"
   inkscape:version="1.2.2 (1:1.2.2+202212051552+b0a8486541)"
   xmlns:inkscape="http://www.inkscape.org/namespaces/inkscape"
   xmlns:sodipodi="http://sodipodi.sourceforge.net/DTD/sodipodi-0.dtd"
   xmlns="http://www.w3.org/2000/svg"
   xmlns:svg="http://www.w3.org/2000/svg"
   xmlns:rdf="http://www.w3.org/1999/02/22-rdf-syntax-ns#"
   xmlns:cc="http://creativecommons.org/ns#"
   xmlns:dc="http://purl.org/dc/elements/1.1/">
  <sodipodi:namedview
     id="namedview17626"
     pagecolor="#ffffff"
     bordercolor="#000000"
     borderopacity="0.25"
     inkscape:showpageshadow="2"
     inkscape:pageopacity="0.0"
     inkscape:pagecheckerboard="0"
     inkscape:deskcolor="#d1d1d1"
     inkscape:document-units="pt"
     showgrid="false"
     inkscape:zoom="0.73164683"
     inkscape:cx="160.59661"
     inkscape:cy="161.28"
     inkscape:window-width="1223"
     inkscape:window-height="779"
     inkscape:window-x="57"
     inkscape:window-y="21"
     inkscape:window-maximized="1"
     inkscape:current-layer="figure_1" />
  <metadata
     id="metadata17549">
    <rdf:RDF>
      <cc:Work>
        <dc:type
           rdf:resource="http://purl.org/dc/dcmitype/StillImage" />
        <dc:date>2023-02-27T14:39:51.870988</dc:date>
        <dc:format>image/svg+xml</dc:format>
        <dc:creator>
          <cc:Agent>
            <dc:title>Matplotlib v3.5.0, https://matplotlib.org/</dc:title>
          </cc:Agent>
        </dc:creator>
      </cc:Work>
    </rdf:RDF>
  </metadata>
  <defs
     id="defs17553">
    <style
       type="text/css"
       id="style17551">*{stroke-linejoin: round; stroke-linecap: butt}</style>
  </defs>
  <g
     id="figure_1">
    <g
       id="axes_1">
      <g
         id="patch_3">
        <path
           d="M 88.397425 10.8  L 88.397425 52.228375  L 71.42311 52.228375  L 71.42311 181.248171  L 63.372306 181.248171  L 63.372306 217.941875  M 96.312975 10.8  L 96.312975 52.228375  L 113.28729 52.228375  L 113.28729 181.248171  L 121.338094 181.248171  L 121.338094 217.941875  "
           clip-path="url(#p8da68f4f69)"
           style="fill: none; stroke: #1f77b4; stroke-linejoin: miter"
           id="path17561" />
      </g>
      <g
         id="PolyCollection_1">
        <path
           d="M 96.312975 10.8  L 88.397425 10.8  L 88.397425 52.228375  L 71.42311 52.228375  L 71.42311 181.248171  L 63.372306 181.248171  L 63.372306 217.941875  L 121.338094 217.941875  L 121.338094 217.941875  L 121.338094 181.248171  L 113.28729 181.248171  L 113.28729 52.228375  L 96.312975 52.228375  L 96.312975 10.8  z "
           clip-path="url(#p8da68f4f69)"
           style="fill: #1f77b4; fill-opacity: 0.5"
           id="path17564" />
      </g>
      <g
         id="patch_4">
        <path
           d="M 187.723797 181.248171  L 187.558404 190.884902  L 187.26654 195.703267  L 186.838841 199.039058  L 186.362 201.262919  L 185.780041 203.116136  L 184.955129 204.969354  L 184.053413 206.451927  L 182.861398 207.934501  L 181.721705 209.046432  L 180.316639 210.158362  L 178.584409 211.270293  L 176.448833 212.382223  L 173.815997 213.494153  L 170.570112 214.606084  L 166.568434 215.718014  L 161.634979 216.829945  L 155.552784 217.941875  M 187.788203 181.248171  L 187.953596 190.884902  L 188.24546 195.703267  L 188.673159 199.039058  L 189.15 201.262919  L 189.731959 203.116136  L 190.556871 204.969354  L 191.458587 206.451927  L 192.650602 207.934501  L 193.790295 209.046432  L 195.195361 210.158362  L 196.927591 211.270293  L 199.063167 212.382223  L 201.696003 213.494153  L 204.941888 214.606084  L 208.943566 215.718014  L 213.877021 216.829945  L 219.959216 217.941875  L 219.959216 217.941875  "
           clip-path="url(#p8da68f4f69)"
           style="fill: none; stroke: #ff7f0e; stroke-linejoin: miter"
           id="path17567" />
      </g>
      <g
         id="PolyCollection_2">
        <path
           d="M 187.788203 181.248171  L 187.723797 181.248171  L 187.72147 181.618815  L 187.718974 181.989458  L 187.716298 182.360102  L 187.713429 182.730745  L 187.710353 183.101389  L 187.707054 183.472032  L 187.703517 183.842676  L 187.699724 184.213319  L 187.695657 184.583963  L 187.691296 184.954606  L 187.68662 185.32525  L 187.681606 185.695893  L 187.67623 186.066537  L 187.670465 186.43718  L 187.664284 186.807823  L 187.657656 187.178467  L 187.650549 187.54911  L 187.642928 187.919754  L 187.634757 188.290397  L 187.625995 188.661041  L 187.6166 189.031684  L 187.606526 189.402328  L 187.595724 189.772971  L 187.584141 190.143615  L 187.571721 190.514258  L 187.558404 190.884902  L 187.544124 191.255545  L 187.528813 191.626189  L 187.512394 191.996832  L 187.49479 192.367476  L 187.475913 192.738119  L 187.455672 193.108762  L 187.433968 193.479406  L 187.410695 193.850049  L 187.385741 194.220693  L 187.358984 194.591336  L 187.330292 194.96198  L 187.299528 195.332623  L 187.26654 195.703267  L 187.231168 196.07391  L 187.19324 196.444554  L 187.152571 196.815197  L 187.108962 197.185841  L 187.062203 197.556484  L 187.012064 197.927128  L 186.958302 198.297771  L 186.900654 198.668415  L 186.838841 199.039058  L 186.77256 199.409701  L 186.70149 199.780345  L 186.625283 200.150988  L 186.54357 200.521632  L 186.455951 200.892275  L 186.362 201.262919  L 186.261259 201.633562  L 186.153238 202.004206  L 186.037411 202.374849  L 185.913214 202.745493  L 185.780041 203.116136  L 185.637243 203.48678  L 185.484127 203.857423  L 185.319945 204.228067  L 185.143898 204.59871  L 184.955129 204.969354  L 184.752717 205.339997  L 184.535678 205.71064  L 184.302955 206.081284  L 184.053413 206.451927  L 183.785837 206.822571  L 183.498924 207.193214  L 183.191277 207.563858  L 182.861398 207.934501  L 182.507678 208.305145  L 182.128397 208.675788  L 181.721705 209.046432  L 181.285624 209.417075  L 180.818027 209.787719  L 180.316639 210.158362  L 179.779018 210.529006  L 179.202543 210.899649  L 178.584409 211.270293  L 177.921603 211.640936  L 177.210899 212.011579  L 176.448833 212.382223  L 175.631696 212.752866  L 174.755506 213.12351  L 173.815997 213.494153  L 172.808591 213.864797  L 171.728384 214.23544  L 170.570112 214.606084  L 169.328136 214.976727  L 167.996405 215.347371  L 166.568434 215.718014  L 165.037268 216.088658  L 163.395448 216.459301  L 161.634979 216.829945  L 159.747285 217.200588  L 157.723173 217.571232  L 155.552784 217.941875  L 219.959216 217.941875  L 219.959216 217.941875  L 217.788827 217.571232  L 215.764715 217.200588  L 213.877021 216.829945  L 212.116552 216.459301  L 210.474732 216.088658  L 208.943566 215.718014  L 207.515595 215.347371  L 206.183864 214.976727  L 204.941888 214.606084  L 203.783616 214.23544  L 202.703409 213.864797  L 201.696003 213.494153  L 200.756494 213.12351  L 199.880304 212.752866  L 199.063167 212.382223  L 198.301101 212.011579  L 197.590397 211.640936  L 196.927591 211.270293  L 196.309457 210.899649  L 195.732982 210.529006  L 195.195361 210.158362  L 194.693973 209.787719  L 194.226376 209.417075  L 193.790295 209.046432  L 193.383603 208.675788  L 193.004322 208.305145  L 192.650602 207.934501  L 192.320723 207.563858  L 192.013076 207.193214  L 191.726163 206.822571  L 191.458587 206.451927  L 191.209045 206.081284  L 190.976322 205.71064  L 190.759283 205.339997  L 190.556871 204.969354  L 190.368102 204.59871  L 190.192055 204.228067  L 190.027873 203.857423  L 189.874757 203.48678  L 189.731959 203.116136  L 189.598786 202.745493  L 189.474589 202.374849  L 189.358762 202.004206  L 189.250741 201.633562  L 189.15 201.262919  L 189.056049 200.892275  L 188.96843 200.521632  L 188.886717 200.150988  L 188.81051 199.780345  L 188.73944 199.409701  L 188.673159 199.039058  L 188.611346 198.668415  L 188.553698 198.297771  L 188.499936 197.927128  L 188.449797 197.556484  L 188.403038 197.185841  L 188.359429 196.815197  L 188.31876 196.444554  L 188.280832 196.07391  L 188.24546 195.703267  L 188.212472 195.332623  L 188.181708 194.96198  L 188.153016 194.591336  L 188.126259 194.220693  L 188.101305 193.850049  L 188.078032 193.479406  L 188.056328 193.108762  L 188.036087 192.738119  L 188.01721 192.367476  L 187.999606 191.996832  L 187.983187 191.626189  L 187.967876 191.255545  L 187.953596 190.884902  L 187.940279 190.514258  L 187.927859 190.143615  L 187.916276 189.772971  L 187.905474 189.402328  L 187.8954 189.031684  L 187.886005 188.661041  L 187.877243 188.290397  L 187.869072 187.919754  L 187.861451 187.54911  L 187.854344 187.178467  L 187.847716 186.807823  L 187.841535 186.43718  L 187.83577 186.066537  L 187.830394 185.695893  L 187.82538 185.32525  L 187.820704 184.954606  L 187.816343 184.583963  L 187.812276 184.213319  L 187.808483 183.842676  L 187.804946 183.472032  L 187.801647 183.101389  L 187.798571 182.730745  L 187.795702 182.360102  L 187.793026 181.989458  L 187.79053 181.618815  L 187.788203 181.248171  z "
           clip-path="url(#p8da68f4f69)"
           style="fill: #ff7f0e; fill-opacity: 0.5"
           id="path17570" />
      </g>
      <g
         id="patch_5">
        <path
           d="M 115.290861 181.248171  L 116.290861 181.279608  L 117.290861 181.316548  L 118.290861 181.414295  L 119.290861 181.446816  L 120.290861 181.520441  L 121.290861 181.559007  L 122.290861 181.59442  L 123.290861 181.65206  L 124.290861 181.722446  L 125.290861 181.77441  L 126.290861 181.8335  L 127.290861 181.921821  L 128.290861 181.967965  L 129.290861 182.010376  L 130.290861 182.040869  L 131.290861 182.066914  L 132.290861 182.088114  L 133.290861 182.142415  L 134.290861 182.170352  L 135.290861 182.200076  L 136.290861 182.225471  L 137.290861 182.236672  L 138.290861 182.246796  L 139.290861 182.246591  L 140.290861 182.237081  L 141.290861 182.225428  L 142.290861 182.194399  L 143.290861 182.183231  L 144.290861 182.153113  L 145.290861 182.093336  L 146.290861 182.056145  L 147.290861 182.017049  L 148.290861 181.974609  L 149.290861 181.941844  L 150.290861 181.874417  L 151.290861 181.835291  L 152.290861 181.792617  L 153.290861 181.722036  L 154.290861 181.685645  L 155.290861 181.627242  L 156.290861 181.51629  L 157.290861 181.445631  L 158.290861 181.332691  L 159.290861 181.286919  L 160.290861 181.225635  L 161.290861 181.177136  L 162.290861 181.096313  L 163.290861 180.977794  L 164.290861 180.907584  L 165.290861 180.824321  L 166.290861 180.79118  L 167.290861 180.739942  L 168.290861 180.671544  L 169.290861 180.605328  L 170.290861 180.528411  L 171.290861 180.501096  L 172.290861 180.474618  L 173.290861 180.451968  L 174.290861 180.432436  L 175.290861 180.406043  L 176.290861 180.356272  L 177.290861 180.321199  L 178.290861 180.285333  L 179.290861 180.269966  L 180.290861 180.254196  L 181.290861 180.250784  L 182.290861 180.248366  L 183.290861 180.248852  L 184.60307 180.250782  "
           clip-path="url(#p8da68f4f69)"
           style="fill: none; stroke: #ffffff; stroke-width: 3; stroke-linecap: round"
           id="path17605" />
        <path
           d="M 115.290861 181.248171  L 116.290861 181.279608  L 117.290861 181.316548  L 118.290861 181.414295  L 119.290861 181.446816  L 120.290861 181.520441  L 121.290861 181.559007  L 122.290861 181.59442  L 123.290861 181.65206  L 124.290861 181.722446  L 125.290861 181.77441  L 126.290861 181.8335  L 127.290861 181.921821  L 128.290861 181.967965  L 129.290861 182.010376  L 130.290861 182.040869  L 131.290861 182.066914  L 132.290861 182.088114  L 133.290861 182.142415  L 134.290861 182.170352  L 135.290861 182.200076  L 136.290861 182.225471  L 137.290861 182.236672  L 138.290861 182.246796  L 139.290861 182.246591  L 140.290861 182.237081  L 141.290861 182.225428  L 142.290861 182.194399  L 143.290861 182.183231  L 144.290861 182.153113  L 145.290861 182.093336  L 146.290861 182.056145  L 147.290861 182.017049  L 148.290861 181.974609  L 149.290861 181.941844  L 150.290861 181.874417  L 151.290861 181.835291  L 152.290861 181.792617  L 153.290861 181.722036  L 154.290861 181.685645  L 155.290861 181.627242  L 156.290861 181.51629  L 157.290861 181.445631  L 158.290861 181.332691  L 159.290861 181.286919  L 160.290861 181.225635  L 161.290861 181.177136  L 162.290861 181.096313  L 163.290861 180.977794  L 164.290861 180.907584  L 165.290861 180.824321  L 166.290861 180.79118  L 167.290861 180.739942  L 168.290861 180.671544  L 169.290861 180.605328  L 170.290861 180.528411  L 171.290861 180.501096  L 172.290861 180.474618  L 173.290861 180.451968  L 174.290861 180.432436  L 175.290861 180.406043  L 176.290861 180.356272  L 177.290861 180.321199  L 178.290861 180.285333  L 179.290861 180.269966  L 180.290861 180.254196  L 181.290861 180.250784  L 182.290861 180.248366  L 183.290861 180.248852  L 184.60307 180.250782  "
           clip-path="url(#p8da68f4f69)"
           style="fill: none; stroke: #1f77b4; stroke-linecap: round"
           id="path17607" />
        <path
           d="M 180.60307 179.248171  L 181.483438 179.723503  L 182.361345 180.203757  L 183.212059 180.738397  L 184.514233 181.425845  L 183.58688 181.45186  L 182.675206 181.864579  L 181.764941 182.280118  L 180.422446 182.886923  L 181.077344 182.248171  L 181.129309 181.248171  L 181.188398 179.248171  L 180.60307 179.248171  z "
           clip-path="url(#p8da68f4f69)"
           style="fill: #ffffff; stroke: #ffffff; stroke-width: 3; stroke-linecap: round"
           id="path17609" />
        <path
           d="M 180.60307 179.248171  L 181.483438 179.723503  L 182.361345 180.203757  L 183.212059 180.738397  L 184.514233 181.425845  L 183.58688 181.45186  L 182.675206 181.864579  L 181.764941 182.280118  L 180.422446 182.886923  L 181.077344 182.248171  L 181.129309 181.248171  L 181.188398 179.248171  L 180.60307 179.248171  z "
           clip-path="url(#p8da68f4f69)"
           style="fill: #ffffff; stroke: #1f77b4; stroke-linecap: round"
           id="path17611" />
        <g
           id="patch_6" />
      </g>
    </g>
    <defs
       id="defs17621">
      <clipPath
         id="p8da68f4f69">
        <rect
           x="14.3"
           y="10.8"
           width="216.82"
           height="207.141875"
           id="rect17618" />
      </clipPath>
    </defs>
  </g>
</svg>
