<?xml version="1.0" encoding="UTF-8" standalone="no"?>
<svg
   width="241.92pt"
   height="241.92pt"
   viewBox="0 0 241.92 241.92"
   version="1.1"
   id="svg11210"
   sodipodi:docname="moments.svg"
   inkscape:version="1.2.2 (1:1.2.2+202212051552+b0a8486541)"
   xmlns:inkscape="http://www.inkscape.org/namespaces/inkscape"
   xmlns:sodipodi="http://sodipodi.sourceforge.net/DTD/sodipodi-0.dtd"
   xmlns="http://www.w3.org/2000/svg"
   xmlns:svg="http://www.w3.org/2000/svg"
   xmlns:rdf="http://www.w3.org/1999/02/22-rdf-syntax-ns#"
   xmlns:cc="http://creativecommons.org/ns#"
   xmlns:dc="http://purl.org/dc/elements/1.1/">
  <sodipodi:namedview
     id="namedview11212"
     pagecolor="#ffffff"
     bordercolor="#000000"
     borderopacity="0.25"
     inkscape:showpageshadow="2"
     inkscape:pageopacity="0.0"
     inkscape:pagecheckerboard="0"
     inkscape:deskcolor="#d1d1d1"
     inkscape:document-units="pt"
     showgrid="false"
     inkscape:zoom="0.73164683"
     inkscape:cx="160.59661"
     inkscape:cy="161.28"
     inkscape:window-width="1223"
     inkscape:window-height="779"
     inkscape:window-x="57"
     inkscape:window-y="21"
     inkscape:window-maximized="1"
     inkscape:current-layer="figure_1" />
  <metadata
     id="metadata11135">
    <rdf:RDF>
      <cc:Work>
        <dc:type
           rdf:resource="http://purl.org/dc/dcmitype/StillImage" />
        <dc:date>2023-02-27T14:39:23.339311</dc:date>
        <dc:format>image/svg+xml</dc:format>
        <dc:creator>
          <cc:Agent>
            <dc:title>Matplotlib v3.5.0, https://matplotlib.org/</dc:title>
          </cc:Agent>
        </dc:creator>
      </cc:Work>
    </rdf:RDF>
  </metadata>
  <defs
     id="defs11139">
    <style
       type="text/css"
       id="style11137">*{stroke-linejoin: round; stroke-linecap: butt}</style>
  </defs>
  <g
     id="figure_1">
    <g
       id="axes_1">
      <g
         id="patch_3">
        <path
           d="M 87.256236 10.8  L 87.256236 52.228375  L 87.256236 52.228375  L 87.256236 82.056805  L 75.93156 82.056805  L 75.93156 163.493154  L 50.491019 163.493154  L 50.491019 217.941875  M 97.454164 10.8  L 97.454164 52.228375  L 97.454164 52.228375  L 97.454164 82.056805  L 108.77884 82.056805  L 108.77884 163.493154  L 134.219381 163.493154  L 134.219381 217.941875  "
           clip-path="url(#p55dcb04f2e)"
           style="fill: none; stroke: #1f77b4; stroke-linejoin: miter"
           id="path11147" />
      </g>
      <g
         id="PolyCollection_1">
        <path
           d="M 97.454164 10.8  L 87.256236 10.8  L 87.256236 52.228375  L 87.256236 52.228375  L 87.256236 82.056805  L 75.93156 82.056805  L 75.93156 163.493154  L 50.491019 163.493154  L 50.491019 217.941875  L 134.219381 217.941875  L 134.219381 217.941875  L 134.219381 163.493154  L 108.77884 163.493154  L 108.77884 82.056805  L 97.454164 82.056805  L 97.454164 52.228375  L 97.454164 52.228375  L 97.454164 10.8  z "
           clip-path="url(#p55dcb04f2e)"
           style="fill: #1f77b4; fill-opacity: 0.5"
           id="path11150" />
      </g>
      <g
         id="patch_4">
        <path
           d="M 187.646509 163.493154  L 187.411058 179.992766  L 187.069302 189.892534  L 186.626919 197.042366  L 186.036272 203.092224  L 185.329557 208.042107  L 184.460904 212.442004  L 183.449209 216.291914  L 182.925518 217.941875  M 187.865491 163.493154  L 188.100942 179.992766  L 188.442698 189.892534  L 188.885081 197.042366  L 189.475728 203.092224  L 190.182443 208.042107  L 191.051096 212.442004  L 192.062791 216.291914  L 192.586482 217.941875  L 192.586482 217.941875  "
           clip-path="url(#p55dcb04f2e)"
           style="fill: none; stroke: #ff7f0e; stroke-linejoin: miter"
           id="path11153" />
      </g>
      <g
         id="PolyCollection_2">
        <path
           d="M 187.865491 163.493154  L 187.646509 163.493154  L 187.64224 164.043141  L 187.637804 164.593128  L 187.633195 165.143115  L 187.628407 165.693102  L 187.623432 166.243089  L 187.618263 166.793076  L 187.612892 167.343063  L 187.607312 167.89305  L 187.601514 168.443037  L 187.595491 168.993024  L 187.589232 169.543012  L 187.582729 170.092999  L 187.575973 170.642986  L 187.568953 171.192973  L 187.56166 171.74296  L 187.554082 172.292947  L 187.546209 172.842934  L 187.538029 173.392921  L 187.52953 173.942908  L 187.520699 174.492895  L 187.511525 175.042882  L 187.501992 175.592869  L 187.492088 176.142857  L 187.481797 176.692844  L 187.471105 177.242831  L 187.459997 177.792818  L 187.448455 178.342805  L 187.436463 178.892792  L 187.424004 179.442779  L 187.411058 179.992766  L 187.397608 180.542753  L 187.383634 181.09274  L 187.369115 181.642727  L 187.354029 182.192714  L 187.338356 182.742702  L 187.322071 183.292689  L 187.305151 183.842676  L 187.287571 184.392663  L 187.269306 184.94265  L 187.250329 185.492637  L 187.230612 186.042624  L 187.210126 186.592611  L 187.188841 187.142598  L 187.166726 187.692585  L 187.143749 188.242572  L 187.119876 188.792559  L 187.095073 189.342547  L 187.069302 189.892534  L 187.042526 190.442521  L 187.014706 190.992508  L 186.985801 191.542495  L 186.95577 192.092482  L 186.924567 192.642469  L 186.892148 193.192456  L 186.858464 193.742443  L 186.823468 194.29243  L 186.787106 194.842417  L 186.749327 195.392405  L 186.710075 195.942392  L 186.669292 196.492379  L 186.626919 197.042366  L 186.582894 197.592353  L 186.537152 198.14234  L 186.489626 198.692327  L 186.440248 199.242314  L 186.388944 199.792301  L 186.335639 200.342288  L 186.280256 200.892275  L 186.222714 201.442262  L 186.162928 201.99225  L 186.100811 202.542237  L 186.036272 203.092224  L 185.969216 203.642211  L 185.899545 204.192198  L 185.827158 204.742185  L 185.751949 205.292172  L 185.673806 205.842159  L 185.592617 206.392146  L 185.508263 206.942133  L 185.420619 207.49212  L 185.329557 208.042107  L 185.234945 208.592095  L 185.136644 209.142082  L 185.03451 209.692069  L 184.928393 210.242056  L 184.818139 210.792043  L 184.703585 211.34203  L 184.584565 211.892017  L 184.460904 212.442004  L 184.332422 212.991991  L 184.198929 213.541978  L 184.060231 214.091965  L 183.916126 214.641952  L 183.766401 215.19194  L 183.610838 215.741927  L 183.449209 216.291914  L 183.281279 216.841901  L 183.1068 217.391888  L 182.925518 217.941875  L 192.586482 217.941875  L 192.586482 217.941875  L 192.4052 217.391888  L 192.230721 216.841901  L 192.062791 216.291914  L 191.901162 215.741927  L 191.745599 215.19194  L 191.595874 214.641952  L 191.451769 214.091965  L 191.313071 213.541978  L 191.179578 212.991991  L 191.051096 212.442004  L 190.927435 211.892017  L 190.808415 211.34203  L 190.693861 210.792043  L 190.583607 210.242056  L 190.47749 209.692069  L 190.375356 209.142082  L 190.277055 208.592095  L 190.182443 208.042107  L 190.091381 207.49212  L 190.003737 206.942133  L 189.919383 206.392146  L 189.838194 205.842159  L 189.760051 205.292172  L 189.684842 204.742185  L 189.612455 204.192198  L 189.542784 203.642211  L 189.475728 203.092224  L 189.411189 202.542237  L 189.349072 201.99225  L 189.289286 201.442262  L 189.231744 200.892275  L 189.176361 200.342288  L 189.123056 199.792301  L 189.071752 199.242314  L 189.022374 198.692327  L 188.974848 198.14234  L 188.929106 197.592353  L 188.885081 197.042366  L 188.842708 196.492379  L 188.801925 195.942392  L 188.762673 195.392405  L 188.724894 194.842417  L 188.688532 194.29243  L 188.653536 193.742443  L 188.619852 193.192456  L 188.587433 192.642469  L 188.55623 192.092482  L 188.526199 191.542495  L 188.497294 190.992508  L 188.469474 190.442521  L 188.442698 189.892534  L 188.416927 189.342547  L 188.392124 188.792559  L 188.368251 188.242572  L 188.345274 187.692585  L 188.323159 187.142598  L 188.301874 186.592611  L 188.281388 186.042624  L 188.261671 185.492637  L 188.242694 184.94265  L 188.224429 184.392663  L 188.206849 183.842676  L 188.189929 183.292689  L 188.173644 182.742702  L 188.157971 182.192714  L 188.142885 181.642727  L 188.128366 181.09274  L 188.114392 180.542753  L 188.100942 179.992766  L 188.087996 179.442779  L 188.075537 178.892792  L 188.063545 178.342805  L 188.052003 177.792818  L 188.040895 177.242831  L 188.030203 176.692844  L 188.019912 176.142857  L 188.010008 175.592869  L 188.000475 175.042882  L 187.991301 174.492895  L 187.98247 173.942908  L 187.973971 173.392921  L 187.965791 172.842934  L 187.957918 172.292947  L 187.95034 171.74296  L 187.943047 171.192973  L 187.936027 170.642986  L 187.929271 170.092999  L 187.922768 169.543012  L 187.916509 168.993024  L 187.910486 168.443037  L 187.904688 167.89305  L 187.899108 167.343063  L 187.893737 166.793076  L 187.888568 166.243089  L 187.883593 165.693102  L 187.878805 165.143115  L 187.874196 164.593128  L 187.86976 164.043141  L 187.865491 163.493154  z "
           clip-path="url(#p55dcb04f2e)"
           style="fill: #ff7f0e; fill-opacity: 0.5"
           id="path11156" />
      </g>
      <g
         id="patch_5">
        <path
           d="M 110.776526 163.493154  L 111.776526 163.52459  L 112.776526 163.56153  L 113.776526 163.659277  L 114.776526 163.691798  L 115.776526 163.765423  L 116.776526 163.803989  L 117.776526 163.839402  L 118.776526 163.897042  L 119.776526 163.967428  L 120.776526 164.019392  L 121.776526 164.078482  L 122.776526 164.166803  L 123.776526 164.212947  L 124.776526 164.255358  L 125.776526 164.285851  L 126.776526 164.311896  L 127.776526 164.333096  L 128.776526 164.387397  L 129.776526 164.415335  L 130.776526 164.445059  L 131.776526 164.470453  L 132.776526 164.481654  L 133.776526 164.491778  L 134.776526 164.491573  L 135.776526 164.482063  L 136.776526 164.47041  L 137.776526 164.439381  L 138.776526 164.428213  L 139.776526 164.398095  L 140.776526 164.338318  L 141.776526 164.301127  L 142.776526 164.262031  L 143.776526 164.219591  L 144.776526 164.186826  L 145.776526 164.119399  L 146.776526 164.080274  L 147.776526 164.037599  L 148.776526 163.967018  L 149.776526 163.930628  L 150.776526 163.872224  L 151.776526 163.761272  L 152.776526 163.690613  L 153.776526 163.577674  L 154.776526 163.531901  L 155.776526 163.470617  L 156.776526 163.422118  L 157.776526 163.341295  L 158.776526 163.222777  L 159.776526 163.152566  L 160.776526 163.069303  L 161.776526 163.036162  L 162.776526 162.984924  L 163.776526 162.916526  L 164.776526 162.850311  L 165.776526 162.773394  L 166.776526 162.746078  L 167.776526 162.719601  L 168.776526 162.69695  L 169.776526 162.677419  L 170.776526 162.651025  L 171.776526 162.601254  L 172.776526 162.566181  L 173.776526 162.530315  L 174.776526 162.514948  L 175.776526 162.499178  L 176.776526 162.495766  L 177.776526 162.493348  L 178.776526 162.493834  L 179.776526 162.495764  L 180.776526 162.509021  L 181.776526 162.517411  L 182.776526 162.538948  L 184.525089 162.56198  "
           clip-path="url(#p55dcb04f2e)"
           style="fill: none; stroke: #ffffff; stroke-width: 3; stroke-linecap: round"
           id="path11191" />
        <path
           d="M 110.776526 163.493154  L 111.776526 163.52459  L 112.776526 163.56153  L 113.776526 163.659277  L 114.776526 163.691798  L 115.776526 163.765423  L 116.776526 163.803989  L 117.776526 163.839402  L 118.776526 163.897042  L 119.776526 163.967428  L 120.776526 164.019392  L 121.776526 164.078482  L 122.776526 164.166803  L 123.776526 164.212947  L 124.776526 164.255358  L 125.776526 164.285851  L 126.776526 164.311896  L 127.776526 164.333096  L 128.776526 164.387397  L 129.776526 164.415335  L 130.776526 164.445059  L 131.776526 164.470453  L 132.776526 164.481654  L 133.776526 164.491778  L 134.776526 164.491573  L 135.776526 164.482063  L 136.776526 164.47041  L 137.776526 164.439381  L 138.776526 164.428213  L 139.776526 164.398095  L 140.776526 164.338318  L 141.776526 164.301127  L 142.776526 164.262031  L 143.776526 164.219591  L 144.776526 164.186826  L 145.776526 164.119399  L 146.776526 164.080274  L 147.776526 164.037599  L 148.776526 163.967018  L 149.776526 163.930628  L 150.776526 163.872224  L 151.776526 163.761272  L 152.776526 163.690613  L 153.776526 163.577674  L 154.776526 163.531901  L 155.776526 163.470617  L 156.776526 163.422118  L 157.776526 163.341295  L 158.776526 163.222777  L 159.776526 163.152566  L 160.776526 163.069303  L 161.776526 163.036162  L 162.776526 162.984924  L 163.776526 162.916526  L 164.776526 162.850311  L 165.776526 162.773394  L 166.776526 162.746078  L 167.776526 162.719601  L 168.776526 162.69695  L 169.776526 162.677419  L 170.776526 162.651025  L 171.776526 162.601254  L 172.776526 162.566181  L 173.776526 162.530315  L 174.776526 162.514948  L 175.776526 162.499178  L 176.776526 162.495766  L 177.776526 162.493348  L 178.776526 162.493834  L 179.776526 162.495764  L 180.776526 162.509021  L 181.776526 162.517411  L 182.776526 162.538948  L 184.525089 162.56198  "
           clip-path="url(#p55dcb04f2e)"
           style="fill: none; stroke: #1f77b4; stroke-linecap: round"
           id="path11193" />
        <path
           d="M 180.525089 161.493154  L 181.405457 161.968485  L 182.283364 162.448739  L 183.134078 162.98338  L 184.436252 163.670827  L 183.508899 163.696842  L 182.597225 164.109561  L 181.68696 164.5251  L 180.344464 165.131905  L 180.999363 164.493154  L 181.051327 163.493154  L 181.110417 161.493154  L 180.525089 161.493154  z "
           clip-path="url(#p55dcb04f2e)"
           style="fill: #ffffff; stroke: #ffffff; stroke-width: 3; stroke-linecap: round"
           id="path11195" />
        <path
           d="M 180.525089 161.493154  L 181.405457 161.968485  L 182.283364 162.448739  L 183.134078 162.98338  L 184.436252 163.670827  L 183.508899 163.696842  L 182.597225 164.109561  L 181.68696 164.5251  L 180.344464 165.131905  L 180.999363 164.493154  L 181.051327 163.493154  L 181.110417 161.493154  L 180.525089 161.493154  z "
           clip-path="url(#p55dcb04f2e)"
           style="fill: #ffffff; stroke: #1f77b4; stroke-linecap: round"
           id="path11197" />
      </g>
    </g>
    <defs
       id="defs11207">
      <clipPath
         id="p55dcb04f2e">
        <rect
           x="14.3"
           y="10.8"
           width="216.82"
           height="207.141875"
           id="rect11204" />
      </clipPath>
    </defs>
  </g>
</svg>
