<?xml version="1.0" encoding="UTF-8" standalone="no"?>
<!-- Generator: Adobe Illustrator 23.0.3, SVG Export Plug-In . SVG Version: 6.00 Build 0)  -->

<svg
   version="1.1"
   x="0px"
   y="0px"
   viewBox="0 0 1204 623.6"
   style="enable-background:new 0 0 1204 623.6;"
   xml:space="preserve"
   id="svg1166"
   sodipodi:docname="sets_dem_hist.svg"
   inkscape:version="1.3.2 (1:1.3.2+202311252150+091e20ef0f)"
   xmlns:inkscape="http://www.inkscape.org/namespaces/inkscape"
   xmlns:sodipodi="http://sodipodi.sourceforge.net/DTD/sodipodi-0.dtd"
   xmlns:xlink="http://www.w3.org/1999/xlink"
   xmlns="http://www.w3.org/2000/svg"
   xmlns:svg="http://www.w3.org/2000/svg"><defs
   id="defs1166"><clipPath
     id="SVGID_216_">
				<use
   xlink:href="#SVGID_215_"
   style="overflow:visible"
   id="use777" />
			</clipPath><clipPath
     id="SVGID_218_">
					<use
   xlink:href="#SVGID_217_"
   style="overflow:visible"
   id="use778" />
				</clipPath><clipPath
     id="clipPath1">
				<use
   xlink:href="#SVGID_215_"
   style="overflow:visible"
   id="use1" />
			</clipPath><clipPath
     id="SVGID_220_">
						<use
   xlink:href="#SVGID_219_"
   style="overflow:visible"
   id="use779" />
					</clipPath><clipPath
     id="clipPath2">
				<use
   xlink:href="#SVGID_215_"
   style="overflow:visible"
   id="use2" />
			</clipPath><clipPath
     id="SVGID_222_">
					<use
   xlink:href="#SVGID_221_"
   style="overflow:visible"
   id="use780" />
				</clipPath><clipPath
     id="clipPath3">
				<use
   xlink:href="#SVGID_215_"
   style="overflow:visible"
   id="use3" />
			</clipPath><clipPath
     id="SVGID_224_">
						<use
   xlink:href="#SVGID_223_"
   style="overflow:visible"
   id="use781" />
					</clipPath><clipPath
     id="SVGID_226_">
				<use
   xlink:href="#SVGID_225_"
   style="overflow:visible"
   id="use792" />
			</clipPath><clipPath
     id="SVGID_228_">
					<use
   xlink:href="#SVGID_227_"
   style="overflow:visible"
   id="use793" />
				</clipPath><clipPath
     id="clipPath4">
					<use
   xlink:href="#SVGID_227_"
   style="overflow:visible"
   id="use4" />
				</clipPath><clipPath
     id="clipPath5">
					<use
   xlink:href="#SVGID_227_"
   style="overflow:visible"
   id="use5" />
				</clipPath><clipPath
     id="clipPath6">
					<use
   xlink:href="#SVGID_227_"
   style="overflow:visible"
   id="use6" />
				</clipPath><clipPath
     id="clipPath7">
					<use
   xlink:href="#SVGID_227_"
   style="overflow:visible"
   id="use7" />
				</clipPath><clipPath
     id="clipPath8">
					<use
   xlink:href="#SVGID_227_"
   style="overflow:visible"
   id="use8" />
				</clipPath><rect
     id="SVGID_215_"
     x="171.39999"
     y="349.20001"
     width="84.900002"
     height="79.099998" /><rect
     id="SVGID_217_"
     x="85.099998"
     y="-86.599998"
     width="1238"
     height="586" /><rect
     id="SVGID_219_"
     x="85.099998"
     y="-86.599998"
     width="1238"
     height="586" /><rect
     id="SVGID_221_"
     x="85.099998"
     y="-86.599998"
     width="1238"
     height="586" /><rect
     id="SVGID_223_"
     x="85.099998"
     y="-86.599998"
     width="1238"
     height="586" /><rect
     id="SVGID_225_"
     x="171.39999"
     y="349.20001"
     width="84.900002"
     height="79.099998" /><rect
     id="SVGID_227_"
     x="85.099998"
     y="-86.599998"
     width="1238"
     height="586" /></defs><sodipodi:namedview
   id="namedview1166"
   pagecolor="#ffffff"
   bordercolor="#000000"
   borderopacity="0.25"
   inkscape:showpageshadow="2"
   inkscape:pageopacity="0.0"
   inkscape:pagecheckerboard="0"
   inkscape:deskcolor="#d1d1d1"
   inkscape:zoom="0.73530409"
   inkscape:cx="410.03444"
   inkscape:cy="138.03813"
   inkscape:window-width="1223"
   inkscape:window-height="774"
   inkscape:window-x="57"
   inkscape:window-y="26"
   inkscape:window-maximized="1"
   inkscape:current-layer="g799" />
<style
   type="text/css"
   id="style1">
	.st0{fill:#FFEE88;}
	.st1{fill:#A2E57F;}
	.st2{stroke:#000000;stroke-width:0.8;stroke-linejoin:round;}
	.st3{fill:none;stroke:#000000;stroke-width:0.8;stroke-linecap:square;}
	.st4{opacity:0.82;}
	.st5{fill:#C1272D;}
	.st6{fill:#FCEE21;}
	.st7{fill:#0000FF;}
	.st8{fill:#8CC63F;}
	.st9{fill:#FFFFFF;}
	.st10{fill:none;stroke:#000000;stroke-miterlimit:10;}
	.st11{fill:#B3B3B3;}
	
		.st12{clip-path:url(#SVGID_2_);fill:#2CA02C;fill-opacity:0.2;stroke:#2CA02C;stroke-width:2;stroke-linejoin:round;stroke-dasharray:2,2;}
	
		.st13{clip-path:url(#SVGID_4_);fill:#FF7F0E;fill-opacity:0.2;stroke:#FF800F;stroke-width:2;stroke-linejoin:round;stroke-dasharray:2,2;}
	
		.st14{clip-path:url(#SVGID_6_);fill:#1E75B3;fill-opacity:0.2;stroke:#1E75B3;stroke-width:2;stroke-linejoin:round;stroke-dasharray:2,2;}
	
		.st15{clip-path:url(#SVGID_8_);fill:none;stroke:#FF7F0E;stroke-width:0.2;stroke-linecap:square;stroke-linejoin:round;stroke-opacity:0.5;}
	
		.st16{clip-path:url(#SVGID_10_);fill:none;stroke:#FF7F0E;stroke-width:0.2;stroke-linecap:square;stroke-linejoin:round;stroke-opacity:0.5;}
	
		.st17{clip-path:url(#SVGID_12_);fill:none;stroke:#FF7F0E;stroke-width:0.2;stroke-linecap:square;stroke-linejoin:round;stroke-opacity:0.5;}
	
		.st18{clip-path:url(#SVGID_14_);fill:none;stroke:#FF7F0E;stroke-width:0.2;stroke-linecap:square;stroke-linejoin:round;stroke-opacity:0.5;}
	
		.st19{clip-path:url(#SVGID_16_);fill:none;stroke:#FF7F0E;stroke-width:0.2;stroke-linecap:square;stroke-linejoin:round;stroke-opacity:0.5;}
	
		.st20{clip-path:url(#SVGID_18_);fill:none;stroke:#FF7F0E;stroke-width:0.2;stroke-linecap:square;stroke-linejoin:round;stroke-opacity:0.5;}
	
		.st21{clip-path:url(#SVGID_20_);fill:none;stroke:#FF7F0E;stroke-width:0.2;stroke-linecap:square;stroke-linejoin:round;stroke-opacity:0.5;}
	
		.st22{clip-path:url(#SVGID_22_);fill:none;stroke:#FF7F0E;stroke-width:0.2;stroke-linecap:square;stroke-linejoin:round;stroke-opacity:0.5;}
	
		.st23{clip-path:url(#SVGID_24_);fill:none;stroke:#FF7F0E;stroke-width:0.2;stroke-linecap:square;stroke-linejoin:round;stroke-opacity:0.5;}
	
		.st24{clip-path:url(#SVGID_26_);fill:none;stroke:#FF7F0E;stroke-width:0.2;stroke-linecap:square;stroke-linejoin:round;stroke-opacity:0.5;}
	
		.st25{clip-path:url(#SVGID_28_);fill:none;stroke:#2CA02C;stroke-width:0.2;stroke-linecap:square;stroke-linejoin:round;stroke-opacity:0.5;}
	
		.st26{clip-path:url(#SVGID_30_);fill:none;stroke:#2CA02C;stroke-width:0.2;stroke-linecap:square;stroke-linejoin:round;stroke-opacity:0.5;}
	
		.st27{clip-path:url(#SVGID_32_);fill:none;stroke:#2CA02C;stroke-width:0.2;stroke-linecap:square;stroke-linejoin:round;stroke-opacity:0.5;}
	
		.st28{clip-path:url(#SVGID_34_);fill:none;stroke:#2CA02C;stroke-width:0.2;stroke-linecap:square;stroke-linejoin:round;stroke-opacity:0.5;}
	
		.st29{clip-path:url(#SVGID_36_);fill:none;stroke:#2CA02C;stroke-width:0.2;stroke-linecap:square;stroke-linejoin:round;stroke-opacity:0.5;}
	
		.st30{clip-path:url(#SVGID_38_);fill:none;stroke:#2CA02C;stroke-width:0.2;stroke-linecap:square;stroke-linejoin:round;stroke-opacity:0.5;}
	
		.st31{clip-path:url(#SVGID_40_);fill:none;stroke:#2CA02C;stroke-width:0.2;stroke-linecap:square;stroke-linejoin:round;stroke-opacity:0.5;}
	
		.st32{clip-path:url(#SVGID_42_);fill:none;stroke:#2CA02C;stroke-width:0.2;stroke-linecap:square;stroke-linejoin:round;stroke-opacity:0.5;}
	
		.st33{clip-path:url(#SVGID_44_);fill:none;stroke:#2CA02C;stroke-width:0.2;stroke-linecap:square;stroke-linejoin:round;stroke-opacity:0.5;}
	
		.st34{clip-path:url(#SVGID_46_);fill:none;stroke:#2CA02C;stroke-width:0.2;stroke-linecap:square;stroke-linejoin:round;stroke-opacity:0.5;}
	
		.st35{clip-path:url(#SVGID_48_);fill:none;stroke:#FF7F0E;stroke-width:0.2;stroke-linecap:square;stroke-linejoin:round;stroke-opacity:0.5;}
	
		.st36{clip-path:url(#SVGID_50_);fill:none;stroke:#FF7F0E;stroke-width:0.2;stroke-linecap:square;stroke-linejoin:round;stroke-opacity:0.5;}
	
		.st37{clip-path:url(#SVGID_52_);fill:none;stroke:#FF7F0E;stroke-width:0.2;stroke-linecap:square;stroke-linejoin:round;stroke-opacity:0.5;}
	
		.st38{clip-path:url(#SVGID_54_);fill:none;stroke:#FF7F0E;stroke-width:0.2;stroke-linecap:square;stroke-linejoin:round;stroke-opacity:0.5;}
	
		.st39{clip-path:url(#SVGID_56_);fill:none;stroke:#FF7F0E;stroke-width:0.2;stroke-linecap:square;stroke-linejoin:round;stroke-opacity:0.5;}
	
		.st40{clip-path:url(#SVGID_58_);fill:none;stroke:#FF7F0E;stroke-width:0.2;stroke-linecap:square;stroke-linejoin:round;stroke-opacity:0.5;}
	
		.st41{clip-path:url(#SVGID_60_);fill:none;stroke:#FF7F0E;stroke-width:0.2;stroke-linecap:square;stroke-linejoin:round;stroke-opacity:0.5;}
	
		.st42{clip-path:url(#SVGID_62_);fill:none;stroke:#FF7F0E;stroke-width:0.2;stroke-linecap:square;stroke-linejoin:round;stroke-opacity:0.5;}
	
		.st43{clip-path:url(#SVGID_64_);fill:none;stroke:#FF7F0E;stroke-width:0.2;stroke-linecap:square;stroke-linejoin:round;stroke-opacity:0.5;}
	
		.st44{clip-path:url(#SVGID_66_);fill:none;stroke:#FF7F0E;stroke-width:0.2;stroke-linecap:square;stroke-linejoin:round;stroke-opacity:0.5;}
	.st45{clip-path:url(#SVGID_68_);fill:none;stroke:#1F77B4;}
	.st46{clip-path:url(#SVGID_70_);fill:#1F77B4;fill-opacity:0.5;}
	.st47{clip-path:url(#SVGID_72_);fill:none;stroke:#FF7F0E;}
	.st48{clip-path:url(#SVGID_74_);fill:#FF7F0E;fill-opacity:0.5;}
	.st49{clip-path:url(#SVGID_76_);fill:none;stroke:#2CA02C;}
	.st50{clip-path:url(#SVGID_78_);fill:#2CA02C;fill-opacity:0.5;}
	.st51{clip-path:url(#SVGID_80_);fill:none;stroke:#FFFFFF;stroke-width:3;stroke-linecap:round;stroke-linejoin:round;}
	.st52{clip-path:url(#SVGID_82_);fill:none;stroke:#1F77B4;stroke-linecap:round;stroke-linejoin:round;}
	.st53{clip-path:url(#SVGID_84_);fill:#FFFFFF;stroke:#FFFFFF;stroke-width:3;stroke-linecap:round;stroke-linejoin:round;}
	.st54{clip-path:url(#SVGID_86_);fill:#FFFFFF;stroke:#1F77B4;stroke-linecap:round;stroke-linejoin:round;}
	.st55{clip-path:url(#SVGID_88_);fill:none;stroke:#FFFFFF;stroke-width:3;stroke-linecap:round;stroke-linejoin:round;}
	.st56{clip-path:url(#SVGID_90_);fill:none;stroke:#1F77B4;stroke-linecap:round;stroke-linejoin:round;}
	.st57{clip-path:url(#SVGID_92_);fill:#FFFFFF;stroke:#FFFFFF;stroke-width:3;stroke-linecap:round;stroke-linejoin:round;}
	.st58{clip-path:url(#SVGID_94_);fill:#FFFFFF;stroke:#1F77B4;stroke-linecap:round;stroke-linejoin:round;}
	.st59{clip-path:url(#SVGID_96_);fill:#FF7F0E;fill-opacity:0.5;stroke:#FF7F0E;stroke-opacity:0.5;}
	.st60{clip-path:url(#SVGID_98_);fill:#FF7F0E;fill-opacity:0.5;stroke:#FF7F0E;stroke-opacity:0.5;}
	.st61{clip-path:url(#SVGID_100_);fill:#FF7F0E;fill-opacity:0.5;stroke:#FF7F0E;stroke-opacity:0.5;}
	.st62{clip-path:url(#SVGID_102_);fill:#FF7F0E;fill-opacity:0.5;stroke:#FF7F0E;stroke-opacity:0.5;}
	.st63{clip-path:url(#SVGID_104_);fill:#FF7F0E;fill-opacity:0.5;stroke:#FF7F0E;stroke-opacity:0.5;}
	.st64{clip-path:url(#SVGID_106_);fill:#FF7F0E;fill-opacity:0.5;stroke:#FF7F0E;stroke-opacity:0.5;}
	.st65{clip-path:url(#SVGID_108_);fill:#FF7F0E;fill-opacity:0.5;stroke:#FF7F0E;stroke-opacity:0.5;}
	.st66{clip-path:url(#SVGID_110_);fill:#FF7F0E;fill-opacity:0.5;stroke:#FF7F0E;stroke-opacity:0.5;}
	.st67{clip-path:url(#SVGID_112_);fill:#FF7F0E;fill-opacity:0.5;stroke:#FF7F0E;stroke-opacity:0.5;}
	.st68{clip-path:url(#SVGID_114_);fill:#FF7F0E;fill-opacity:0.5;stroke:#FF7F0E;stroke-opacity:0.5;}
	.st69{fill:none;stroke:#000000;stroke-linejoin:round;stroke-miterlimit:10;}
	.st70{clip-path:url(#SVGID_116_);enable-background:new    ;}
	.st71{clip-path:url(#SVGID_118_);}
	.st72{clip-path:url(#SVGID_120_);enable-background:new    ;}
	.st73{clip-path:url(#SVGID_122_);}
	.st74{clip-path:url(#SVGID_124_);enable-background:new    ;}
	.st75{clip-path:url(#SVGID_126_);}
	.st76{clip-path:url(#SVGID_128_);enable-background:new    ;}
	.st77{clip-path:url(#SVGID_130_);}
	.st78{clip-path:url(#SVGID_132_);enable-background:new    ;}
	.st79{clip-path:url(#SVGID_134_);}
	.st80{clip-path:url(#SVGID_136_);enable-background:new    ;}
	.st81{clip-path:url(#SVGID_138_);}
	.st82{clip-path:url(#SVGID_140_);enable-background:new    ;}
	.st83{clip-path:url(#SVGID_142_);}
	.st84{clip-path:url(#SVGID_144_);}
	.st85{clip-path:url(#SVGID_146_);fill:none;stroke:#1F77B4;stroke-width:0.3834;stroke-miterlimit:10;}
	.st86{clip-path:url(#SVGID_144_);enable-background:new    ;}
	.st87{opacity:0.5;clip-path:url(#SVGID_148_);fill:#1F77B4;}
	.st88{clip-path:url(#SVGID_150_);fill:none;stroke:#FF7F0E;stroke-width:0.3834;stroke-miterlimit:10;}
	.st89{opacity:0.5;clip-path:url(#SVGID_152_);fill:#FF7F0E;}
	.st90{fill:none;stroke:#000000;stroke-width:0.3067;stroke-linejoin:round;stroke-miterlimit:10;}
	.st91{font-family:'DejaVuSans';}
	.st92{font-size:3.8339px;}
	.st93{clip-path:url(#SVGID_154_);}
	.st94{clip-path:url(#SVGID_156_);}
	.st95{clip-path:url(#SVGID_158_);}
	.st96{clip-path:url(#SVGID_160_);}
	.st97{clip-path:url(#SVGID_162_);}
	.st98{clip-path:url(#SVGID_164_);}
	.st99{clip-path:url(#SVGID_166_);}
	.st100{clip-path:url(#SVGID_168_);}
	.st101{clip-path:url(#SVGID_170_);}
	.st102{clip-path:url(#SVGID_172_);}
	.st103{clip-path:url(#SVGID_174_);}
	.st104{clip-path:url(#SVGID_176_);}
	.st105{clip-path:url(#SVGID_178_);}
	.st106{clip-path:url(#SVGID_180_);}
	.st107{clip-path:url(#SVGID_182_);}
	
		.st108{clip-path:url(#SVGID_184_);fill:none;stroke:#FFFFFF;stroke-width:1.1502;stroke-linecap:round;stroke-linejoin:round;stroke-miterlimit:10;}
	
		.st109{clip-path:url(#SVGID_184_);fill:none;stroke:#1F77B4;stroke-width:0.3834;stroke-linecap:round;stroke-linejoin:round;stroke-miterlimit:10;}
	.st110{clip-path:url(#SVGID_184_);fill:#FFFFFF;}
	.st111{fill:none;stroke:#000000;stroke-width:0.3067;stroke-linecap:square;stroke-miterlimit:10;}
	.st112{clip-path:url(#SVGID_186_);enable-background:new    ;}
	.st113{clip-path:url(#SVGID_188_);}
	.st114{clip-path:url(#SVGID_190_);enable-background:new    ;}
	.st115{clip-path:url(#SVGID_192_);}
	.st116{clip-path:url(#SVGID_194_);}
	.st117{clip-path:url(#SVGID_196_);fill:none;stroke:#1F77B4;stroke-width:0.3834;stroke-miterlimit:10;}
	.st118{clip-path:url(#SVGID_194_);enable-background:new    ;}
	.st119{opacity:0.5;clip-path:url(#SVGID_198_);fill:#1F77B4;}
	.st120{clip-path:url(#SVGID_200_);fill:none;stroke:#FF7F0E;stroke-width:0.3834;stroke-miterlimit:10;}
	.st121{opacity:0.5;clip-path:url(#SVGID_202_);fill:#FF7F0E;}
	.st122{clip-path:url(#SVGID_204_);}
	.st123{clip-path:url(#SVGID_206_);}
	.st124{clip-path:url(#SVGID_208_);}
	.st125{clip-path:url(#SVGID_210_);}
	.st126{clip-path:url(#SVGID_212_);}
	
		.st127{clip-path:url(#SVGID_214_);fill:none;stroke:#FFFFFF;stroke-width:1.1502;stroke-linecap:round;stroke-linejoin:round;stroke-miterlimit:10;}
	
		.st128{clip-path:url(#SVGID_214_);fill:none;stroke:#1F77B4;stroke-width:0.3834;stroke-linecap:round;stroke-linejoin:round;stroke-miterlimit:10;}
	.st129{clip-path:url(#SVGID_214_);fill:#FFFFFF;}
	.st130{clip-path:url(#SVGID_216_);}
	.st131{clip-path:url(#SVGID_218_);fill:none;stroke:#1F77B4;stroke-width:0.3824;stroke-miterlimit:10;}
	.st132{clip-path:url(#SVGID_216_);enable-background:new    ;}
	.st133{opacity:0.5;clip-path:url(#SVGID_220_);fill:#1F77B4;}
	.st134{clip-path:url(#SVGID_222_);fill:none;stroke:#FF7F0E;stroke-width:0.3824;stroke-miterlimit:10;}
	.st135{opacity:0.5;clip-path:url(#SVGID_224_);fill:#FF7F0E;}
	.st136{fill:none;stroke:#000000;stroke-width:0.3059;stroke-linejoin:round;stroke-miterlimit:10;}
	.st137{font-size:3.8236px;}
	.st138{clip-path:url(#SVGID_226_);}
	
		.st139{clip-path:url(#SVGID_228_);fill:none;stroke:#FFFFFF;stroke-width:1.1471;stroke-linecap:round;stroke-linejoin:round;stroke-miterlimit:10;}
	
		.st140{clip-path:url(#SVGID_228_);fill:none;stroke:#1F77B4;stroke-width:0.3824;stroke-linecap:round;stroke-linejoin:round;stroke-miterlimit:10;}
	.st141{clip-path:url(#SVGID_228_);fill:#FFFFFF;}
	.st142{fill:none;stroke:#000000;stroke-width:0.3059;stroke-linecap:square;stroke-miterlimit:10;}
	.st143{clip-path:url(#SVGID_230_);}
	.st144{clip-path:url(#SVGID_232_);fill:none;stroke:#1F77B4;stroke-width:0.3774;stroke-miterlimit:10;}
	.st145{clip-path:url(#SVGID_230_);enable-background:new    ;}
	.st146{opacity:0.5;clip-path:url(#SVGID_234_);fill:#1F77B4;}
	.st147{clip-path:url(#SVGID_236_);fill:none;stroke:#FF7F0E;stroke-width:0.3774;stroke-miterlimit:10;}
	.st148{opacity:0.5;clip-path:url(#SVGID_238_);fill:#FF7F0E;}
	.st149{fill:none;stroke:#000000;stroke-width:0.3019;stroke-linejoin:round;stroke-miterlimit:10;}
	.st150{font-size:3.7741px;}
	.st151{clip-path:url(#SVGID_240_);}
	
		.st152{clip-path:url(#SVGID_242_);fill:none;stroke:#FFFFFF;stroke-width:1.1322;stroke-linecap:round;stroke-linejoin:round;stroke-miterlimit:10;}
	
		.st153{clip-path:url(#SVGID_242_);fill:none;stroke:#1F77B4;stroke-width:0.3774;stroke-linecap:round;stroke-linejoin:round;stroke-miterlimit:10;}
	.st154{clip-path:url(#SVGID_242_);fill:#FFFFFF;}
	.st155{fill:none;stroke:#000000;stroke-width:0.3019;stroke-linecap:square;stroke-miterlimit:10;}
	.st156{clip-path:url(#SVGID_244_);}
	.st157{clip-path:url(#SVGID_246_);fill:none;stroke:#1F77B4;stroke-width:0.4053;stroke-miterlimit:10;}
	.st158{clip-path:url(#SVGID_244_);enable-background:new    ;}
	.st159{opacity:0.5;clip-path:url(#SVGID_248_);fill:#1F77B4;}
	.st160{clip-path:url(#SVGID_250_);fill:none;stroke:#FF7F0E;stroke-width:0.4053;stroke-miterlimit:10;}
	.st161{opacity:0.5;clip-path:url(#SVGID_252_);fill:#FF7F0E;}
	.st162{clip-path:url(#SVGID_254_);fill:none;stroke:#2CA02C;stroke-width:0.4053;stroke-miterlimit:10;}
	.st163{opacity:0.5;clip-path:url(#SVGID_256_);fill:#2CA02C;}
	.st164{fill:none;stroke:#000000;stroke-width:0.3242;stroke-linejoin:round;stroke-miterlimit:10;}
	.st165{font-size:4.0525px;}
	.st166{clip-path:url(#SVGID_258_);}
	
		.st167{clip-path:url(#SVGID_260_);fill:none;stroke:#FFFFFF;stroke-width:1.2158;stroke-linecap:round;stroke-linejoin:round;stroke-miterlimit:10;}
	
		.st168{clip-path:url(#SVGID_260_);fill:none;stroke:#1F77B4;stroke-width:0.4053;stroke-linecap:round;stroke-linejoin:round;stroke-miterlimit:10;}
	.st169{clip-path:url(#SVGID_260_);fill:#FFFFFF;}
	
		.st170{clip-path:url(#SVGID_262_);fill:none;stroke:#FFFFFF;stroke-width:1.2158;stroke-linecap:round;stroke-linejoin:round;stroke-miterlimit:10;}
	
		.st171{clip-path:url(#SVGID_262_);fill:none;stroke:#1F77B4;stroke-width:0.4053;stroke-linecap:round;stroke-linejoin:round;stroke-miterlimit:10;}
	.st172{clip-path:url(#SVGID_262_);fill:#FFFFFF;}
	.st173{fill:none;stroke:#000000;stroke-width:0.3242;stroke-linecap:square;stroke-miterlimit:10;}
	.st174{clip-path:url(#SVGID_264_);enable-background:new    ;}
	
		.st175{opacity:0.5;clip-path:url(#SVGID_266_);fill:none;stroke:#FF7F0E;stroke-width:7.932800e-02;stroke-linecap:square;stroke-linejoin:round;stroke-miterlimit:10;}
	
		.st176{opacity:0.5;clip-path:url(#SVGID_268_);fill:none;stroke:#FF7F0E;stroke-width:7.932800e-02;stroke-linecap:square;stroke-linejoin:round;stroke-miterlimit:10;}
	
		.st177{opacity:0.5;clip-path:url(#SVGID_270_);fill:none;stroke:#FF7F0E;stroke-width:7.932800e-02;stroke-linecap:square;stroke-linejoin:round;stroke-miterlimit:10;}
	
		.st178{opacity:0.5;clip-path:url(#SVGID_272_);fill:none;stroke:#FF7F0E;stroke-width:7.932800e-02;stroke-linecap:square;stroke-linejoin:round;stroke-miterlimit:10;}
	
		.st179{opacity:0.5;clip-path:url(#SVGID_274_);fill:none;stroke:#FF7F0E;stroke-width:7.932800e-02;stroke-linecap:square;stroke-linejoin:round;stroke-miterlimit:10;}
	
		.st180{opacity:0.5;clip-path:url(#SVGID_276_);fill:none;stroke:#FF7F0E;stroke-width:7.932800e-02;stroke-linecap:square;stroke-linejoin:round;stroke-miterlimit:10;}
	
		.st181{opacity:0.5;clip-path:url(#SVGID_278_);fill:none;stroke:#FF7F0E;stroke-width:7.932800e-02;stroke-linecap:square;stroke-linejoin:round;stroke-miterlimit:10;}
	
		.st182{opacity:0.5;clip-path:url(#SVGID_280_);fill:none;stroke:#FF7F0E;stroke-width:7.932800e-02;stroke-linecap:square;stroke-linejoin:round;stroke-miterlimit:10;}
	
		.st183{opacity:0.5;clip-path:url(#SVGID_282_);fill:none;stroke:#FF7F0E;stroke-width:7.932800e-02;stroke-linecap:square;stroke-linejoin:round;stroke-miterlimit:10;}
	
		.st184{opacity:0.5;clip-path:url(#SVGID_284_);fill:none;stroke:#FF7F0E;stroke-width:7.932800e-02;stroke-linecap:square;stroke-linejoin:round;stroke-miterlimit:10;}
	
		.st185{opacity:0.5;clip-path:url(#SVGID_286_);fill:none;stroke:#2CA02C;stroke-width:7.932800e-02;stroke-linecap:square;stroke-linejoin:round;stroke-miterlimit:10;}
	
		.st186{opacity:0.5;clip-path:url(#SVGID_288_);fill:none;stroke:#2CA02C;stroke-width:7.932800e-02;stroke-linecap:square;stroke-linejoin:round;stroke-miterlimit:10;}
	
		.st187{opacity:0.5;clip-path:url(#SVGID_290_);fill:none;stroke:#2CA02C;stroke-width:7.932800e-02;stroke-linecap:square;stroke-linejoin:round;stroke-miterlimit:10;}
	
		.st188{opacity:0.5;clip-path:url(#SVGID_292_);fill:none;stroke:#2CA02C;stroke-width:7.932800e-02;stroke-linecap:square;stroke-linejoin:round;stroke-miterlimit:10;}
	
		.st189{opacity:0.5;clip-path:url(#SVGID_294_);fill:none;stroke:#2CA02C;stroke-width:7.932800e-02;stroke-linecap:square;stroke-linejoin:round;stroke-miterlimit:10;}
	
		.st190{opacity:0.5;clip-path:url(#SVGID_296_);fill:none;stroke:#2CA02C;stroke-width:7.932800e-02;stroke-linecap:square;stroke-linejoin:round;stroke-miterlimit:10;}
	
		.st191{opacity:0.5;clip-path:url(#SVGID_298_);fill:none;stroke:#2CA02C;stroke-width:7.932800e-02;stroke-linecap:square;stroke-linejoin:round;stroke-miterlimit:10;}
	
		.st192{opacity:0.5;clip-path:url(#SVGID_300_);fill:none;stroke:#2CA02C;stroke-width:7.932800e-02;stroke-linecap:square;stroke-linejoin:round;stroke-miterlimit:10;}
	
		.st193{opacity:0.5;clip-path:url(#SVGID_302_);fill:none;stroke:#2CA02C;stroke-width:7.932800e-02;stroke-linecap:square;stroke-linejoin:round;stroke-miterlimit:10;}
	
		.st194{opacity:0.5;clip-path:url(#SVGID_304_);fill:none;stroke:#2CA02C;stroke-width:7.932800e-02;stroke-linecap:square;stroke-linejoin:round;stroke-miterlimit:10;}
	.st195{clip-path:url(#SVGID_264_);}
	.st196{clip-path:url(#SVGID_306_);fill:none;stroke:#1F77B4;stroke-width:0.3966;stroke-miterlimit:10;}
	.st197{opacity:0.5;clip-path:url(#SVGID_308_);fill:#1F77B4;}
	.st198{clip-path:url(#SVGID_310_);fill:none;stroke:#FF7F0E;stroke-width:0.3966;stroke-miterlimit:10;}
	.st199{opacity:0.5;clip-path:url(#SVGID_312_);fill:#FF7F0E;}
	.st200{clip-path:url(#SVGID_314_);fill:none;stroke:#2CA02C;stroke-width:0.3966;stroke-miterlimit:10;}
	.st201{opacity:0.5;clip-path:url(#SVGID_316_);fill:#2CA02C;}
	.st202{fill:none;stroke:#000000;stroke-width:0.3173;stroke-linejoin:round;stroke-miterlimit:10;}
	.st203{font-size:3.9664px;}
	.st204{clip-path:url(#SVGID_318_);}
	
		.st205{clip-path:url(#SVGID_320_);fill:none;stroke:#FFFFFF;stroke-width:1.1899;stroke-linecap:round;stroke-linejoin:round;stroke-miterlimit:10;}
	
		.st206{clip-path:url(#SVGID_320_);fill:none;stroke:#1F77B4;stroke-width:0.3966;stroke-linecap:round;stroke-linejoin:round;stroke-miterlimit:10;}
	.st207{clip-path:url(#SVGID_320_);fill:#FFFFFF;}
	
		.st208{clip-path:url(#SVGID_322_);fill:none;stroke:#FFFFFF;stroke-width:1.1899;stroke-linecap:round;stroke-linejoin:round;stroke-miterlimit:10;}
	
		.st209{clip-path:url(#SVGID_322_);fill:none;stroke:#1F77B4;stroke-width:0.3966;stroke-linecap:round;stroke-linejoin:round;stroke-miterlimit:10;}
	.st210{clip-path:url(#SVGID_322_);fill:#FFFFFF;}
	.st211{clip-path:url(#SVGID_318_);enable-background:new    ;}
	.st212{opacity:0.5;clip-path:url(#SVGID_324_);fill:#FF7F0E;}
	.st213{opacity:0.5;clip-path:url(#SVGID_324_);fill:none;stroke:#FF7F0E;stroke-width:0.3966;stroke-miterlimit:10;}
	.st214{opacity:0.5;clip-path:url(#SVGID_326_);fill:#FF7F0E;}
	.st215{opacity:0.5;clip-path:url(#SVGID_326_);fill:none;stroke:#FF7F0E;stroke-width:0.3966;stroke-miterlimit:10;}
	.st216{opacity:0.5;clip-path:url(#SVGID_328_);fill:#FF7F0E;}
	.st217{opacity:0.5;clip-path:url(#SVGID_328_);fill:none;stroke:#FF7F0E;stroke-width:0.3966;stroke-miterlimit:10;}
	.st218{opacity:0.5;clip-path:url(#SVGID_330_);fill:#FF7F0E;}
	.st219{opacity:0.5;clip-path:url(#SVGID_330_);fill:none;stroke:#FF7F0E;stroke-width:0.3966;stroke-miterlimit:10;}
	.st220{opacity:0.5;clip-path:url(#SVGID_332_);fill:#FF7F0E;}
	.st221{opacity:0.5;clip-path:url(#SVGID_332_);fill:none;stroke:#FF7F0E;stroke-width:0.3966;stroke-miterlimit:10;}
	.st222{opacity:0.5;clip-path:url(#SVGID_334_);fill:#FF7F0E;}
	.st223{opacity:0.5;clip-path:url(#SVGID_334_);fill:none;stroke:#FF7F0E;stroke-width:0.3966;stroke-miterlimit:10;}
	.st224{opacity:0.5;clip-path:url(#SVGID_336_);fill:#FF7F0E;}
	.st225{opacity:0.5;clip-path:url(#SVGID_336_);fill:none;stroke:#FF7F0E;stroke-width:0.3966;stroke-miterlimit:10;}
	.st226{opacity:0.5;clip-path:url(#SVGID_338_);fill:#FF7F0E;}
	.st227{opacity:0.5;clip-path:url(#SVGID_338_);fill:none;stroke:#FF7F0E;stroke-width:0.3966;stroke-miterlimit:10;}
	.st228{opacity:0.5;clip-path:url(#SVGID_340_);fill:#FF7F0E;}
	.st229{opacity:0.5;clip-path:url(#SVGID_340_);fill:none;stroke:#FF7F0E;stroke-width:0.3966;stroke-miterlimit:10;}
	.st230{opacity:0.5;clip-path:url(#SVGID_342_);fill:#FF7F0E;}
	.st231{opacity:0.5;clip-path:url(#SVGID_342_);fill:none;stroke:#FF7F0E;stroke-width:0.3966;stroke-miterlimit:10;}
	.st232{opacity:0.5;clip-path:url(#SVGID_344_);fill:#2CA02C;}
	.st233{opacity:0.5;clip-path:url(#SVGID_344_);fill:none;stroke:#2CA02C;stroke-width:0.3966;stroke-miterlimit:10;}
	.st234{opacity:0.5;clip-path:url(#SVGID_346_);fill:#2CA02C;}
	.st235{opacity:0.5;clip-path:url(#SVGID_346_);fill:none;stroke:#2CA02C;stroke-width:0.3966;stroke-miterlimit:10;}
	.st236{opacity:0.5;clip-path:url(#SVGID_348_);fill:#2CA02C;}
	.st237{opacity:0.5;clip-path:url(#SVGID_348_);fill:none;stroke:#2CA02C;stroke-width:0.3966;stroke-miterlimit:10;}
	.st238{opacity:0.5;clip-path:url(#SVGID_350_);fill:#2CA02C;}
	.st239{opacity:0.5;clip-path:url(#SVGID_350_);fill:none;stroke:#2CA02C;stroke-width:0.3966;stroke-miterlimit:10;}
	.st240{opacity:0.5;clip-path:url(#SVGID_352_);fill:#2CA02C;}
	.st241{opacity:0.5;clip-path:url(#SVGID_352_);fill:none;stroke:#2CA02C;stroke-width:0.3966;stroke-miterlimit:10;}
	.st242{opacity:0.5;clip-path:url(#SVGID_354_);fill:#2CA02C;}
	.st243{opacity:0.5;clip-path:url(#SVGID_354_);fill:none;stroke:#2CA02C;stroke-width:0.3966;stroke-miterlimit:10;}
	.st244{opacity:0.5;clip-path:url(#SVGID_356_);fill:#2CA02C;}
	.st245{opacity:0.5;clip-path:url(#SVGID_356_);fill:none;stroke:#2CA02C;stroke-width:0.3966;stroke-miterlimit:10;}
	.st246{opacity:0.5;clip-path:url(#SVGID_358_);fill:#2CA02C;}
	.st247{opacity:0.5;clip-path:url(#SVGID_358_);fill:none;stroke:#2CA02C;stroke-width:0.3966;stroke-miterlimit:10;}
	.st248{opacity:0.5;clip-path:url(#SVGID_360_);fill:#2CA02C;}
	.st249{opacity:0.5;clip-path:url(#SVGID_360_);fill:none;stroke:#2CA02C;stroke-width:0.3966;stroke-miterlimit:10;}
	.st250{opacity:0.5;clip-path:url(#SVGID_362_);fill:#2CA02C;}
	.st251{opacity:0.5;clip-path:url(#SVGID_362_);fill:none;stroke:#2CA02C;stroke-width:0.3966;stroke-miterlimit:10;}
	.st252{fill:none;stroke:#000000;stroke-width:0.3173;stroke-linecap:square;stroke-miterlimit:10;}
	.st253{fill:none;stroke:#000000;stroke-width:2.3228;}
	.st254{clip-path:url(#SVGID_364_);enable-background:new    ;}
	
		.st255{opacity:0.5;clip-path:url(#SVGID_366_);fill:none;stroke:#FF7F0E;stroke-width:8.234100e-02;stroke-linecap:square;stroke-linejoin:round;}
	
		.st256{opacity:0.5;clip-path:url(#SVGID_368_);fill:none;stroke:#FF7F0E;stroke-width:8.234100e-02;stroke-linecap:square;stroke-linejoin:round;}
	
		.st257{opacity:0.5;clip-path:url(#SVGID_370_);fill:none;stroke:#FF7F0E;stroke-width:8.234100e-02;stroke-linecap:square;stroke-linejoin:round;}
	
		.st258{opacity:0.5;clip-path:url(#SVGID_372_);fill:none;stroke:#FF7F0E;stroke-width:8.234100e-02;stroke-linecap:square;stroke-linejoin:round;}
	
		.st259{opacity:0.5;clip-path:url(#SVGID_374_);fill:none;stroke:#FF7F0E;stroke-width:8.234100e-02;stroke-linecap:square;stroke-linejoin:round;}
	
		.st260{opacity:0.5;clip-path:url(#SVGID_376_);fill:none;stroke:#FF7F0E;stroke-width:8.234100e-02;stroke-linecap:square;stroke-linejoin:round;}
	
		.st261{opacity:0.5;clip-path:url(#SVGID_378_);fill:none;stroke:#FF7F0E;stroke-width:8.234100e-02;stroke-linecap:square;stroke-linejoin:round;}
	
		.st262{opacity:0.5;clip-path:url(#SVGID_380_);fill:none;stroke:#FF7F0E;stroke-width:8.234100e-02;stroke-linecap:square;stroke-linejoin:round;}
	
		.st263{opacity:0.5;clip-path:url(#SVGID_382_);fill:none;stroke:#FF7F0E;stroke-width:8.234100e-02;stroke-linecap:square;stroke-linejoin:round;}
	
		.st264{opacity:0.5;clip-path:url(#SVGID_384_);fill:none;stroke:#FF7F0E;stroke-width:8.234100e-02;stroke-linecap:square;stroke-linejoin:round;}
	
		.st265{opacity:0.5;clip-path:url(#SVGID_386_);fill:none;stroke:#2CA02C;stroke-width:8.234100e-02;stroke-linecap:square;stroke-linejoin:round;}
	
		.st266{opacity:0.5;clip-path:url(#SVGID_388_);fill:none;stroke:#2CA02C;stroke-width:8.234100e-02;stroke-linecap:square;stroke-linejoin:round;}
	
		.st267{opacity:0.5;clip-path:url(#SVGID_390_);fill:none;stroke:#2CA02C;stroke-width:8.234100e-02;stroke-linecap:square;stroke-linejoin:round;}
	
		.st268{opacity:0.5;clip-path:url(#SVGID_392_);fill:none;stroke:#2CA02C;stroke-width:8.234100e-02;stroke-linecap:square;stroke-linejoin:round;}
	
		.st269{opacity:0.5;clip-path:url(#SVGID_394_);fill:none;stroke:#2CA02C;stroke-width:8.234100e-02;stroke-linecap:square;stroke-linejoin:round;}
	
		.st270{opacity:0.5;clip-path:url(#SVGID_396_);fill:none;stroke:#2CA02C;stroke-width:8.234100e-02;stroke-linecap:square;stroke-linejoin:round;}
	
		.st271{opacity:0.5;clip-path:url(#SVGID_398_);fill:none;stroke:#2CA02C;stroke-width:8.234100e-02;stroke-linecap:square;stroke-linejoin:round;}
	
		.st272{opacity:0.5;clip-path:url(#SVGID_400_);fill:none;stroke:#2CA02C;stroke-width:8.234100e-02;stroke-linecap:square;stroke-linejoin:round;}
	
		.st273{opacity:0.5;clip-path:url(#SVGID_402_);fill:none;stroke:#2CA02C;stroke-width:8.234100e-02;stroke-linecap:square;stroke-linejoin:round;}
	
		.st274{opacity:0.5;clip-path:url(#SVGID_404_);fill:none;stroke:#2CA02C;stroke-width:8.234100e-02;stroke-linecap:square;stroke-linejoin:round;}
	.st275{clip-path:url(#SVGID_364_);}
	.st276{clip-path:url(#SVGID_406_);fill:none;stroke:#1F77B4;stroke-width:0.4117;}
	.st277{opacity:0.5;clip-path:url(#SVGID_408_);fill:#1F77B4;}
	.st278{clip-path:url(#SVGID_410_);fill:none;stroke:#FF7F0E;stroke-width:0.4117;}
	.st279{opacity:0.5;clip-path:url(#SVGID_412_);fill:#FF7F0E;}
	.st280{clip-path:url(#SVGID_414_);fill:none;stroke:#2CA02C;stroke-width:0.4117;}
	.st281{opacity:0.5;clip-path:url(#SVGID_416_);fill:#2CA02C;}
	.st282{fill:none;stroke:#000000;stroke-width:0.3294;stroke-linejoin:round;}
	.st283{clip-path:url(#SVGID_418_);}
	.st284{clip-path:url(#SVGID_420_);fill:none;stroke:#FFFFFF;stroke-width:1.2351;stroke-linecap:round;stroke-linejoin:round;}
	.st285{clip-path:url(#SVGID_422_);fill:none;stroke:#1F77B4;stroke-width:0.4117;stroke-linecap:round;stroke-linejoin:round;}
	.st286{clip-path:url(#SVGID_424_);fill:#FFFFFF;}
	.st287{clip-path:url(#SVGID_424_);fill:none;stroke:#FFFFFF;stroke-width:1.2351;stroke-linecap:round;stroke-linejoin:round;}
	.st288{clip-path:url(#SVGID_426_);fill:#FFFFFF;}
	.st289{clip-path:url(#SVGID_426_);fill:none;stroke:#1F77B4;stroke-width:0.4117;stroke-linecap:round;stroke-linejoin:round;}
	.st290{clip-path:url(#SVGID_418_);enable-background:new    ;}
	.st291{opacity:0.5;clip-path:url(#SVGID_428_);fill:#FF7F0E;}
	.st292{opacity:0.5;clip-path:url(#SVGID_428_);fill:none;stroke:#FF7F0E;stroke-width:0.4117;}
	.st293{opacity:0.5;clip-path:url(#SVGID_430_);fill:#FF7F0E;}
	.st294{opacity:0.5;clip-path:url(#SVGID_430_);fill:none;stroke:#FF7F0E;stroke-width:0.4117;}
	.st295{opacity:0.5;clip-path:url(#SVGID_432_);fill:#FF7F0E;}
	.st296{opacity:0.5;clip-path:url(#SVGID_432_);fill:none;stroke:#FF7F0E;stroke-width:0.4117;}
	.st297{opacity:0.5;clip-path:url(#SVGID_434_);fill:#FF7F0E;}
	.st298{opacity:0.5;clip-path:url(#SVGID_434_);fill:none;stroke:#FF7F0E;stroke-width:0.4117;}
	.st299{opacity:0.5;clip-path:url(#SVGID_436_);fill:#FF7F0E;}
	.st300{opacity:0.5;clip-path:url(#SVGID_436_);fill:none;stroke:#FF7F0E;stroke-width:0.4117;}
	.st301{opacity:0.5;clip-path:url(#SVGID_438_);fill:#FF7F0E;}
	.st302{opacity:0.5;clip-path:url(#SVGID_438_);fill:none;stroke:#FF7F0E;stroke-width:0.4117;}
	.st303{opacity:0.5;clip-path:url(#SVGID_440_);fill:#FF7F0E;}
	.st304{opacity:0.5;clip-path:url(#SVGID_440_);fill:none;stroke:#FF7F0E;stroke-width:0.4117;}
	.st305{opacity:0.5;clip-path:url(#SVGID_442_);fill:#FF7F0E;}
	.st306{opacity:0.5;clip-path:url(#SVGID_442_);fill:none;stroke:#FF7F0E;stroke-width:0.4117;}
	.st307{opacity:0.5;clip-path:url(#SVGID_444_);fill:#FF7F0E;}
	.st308{opacity:0.5;clip-path:url(#SVGID_444_);fill:none;stroke:#FF7F0E;stroke-width:0.4117;}
	.st309{opacity:0.5;clip-path:url(#SVGID_446_);fill:#FF7F0E;}
	.st310{opacity:0.5;clip-path:url(#SVGID_446_);fill:none;stroke:#FF7F0E;stroke-width:0.4117;}
	.st311{opacity:0.5;clip-path:url(#SVGID_448_);fill:#2CA02C;}
	.st312{opacity:0.5;clip-path:url(#SVGID_448_);fill:none;stroke:#2CA02C;stroke-width:0.4117;}
	.st313{opacity:0.5;clip-path:url(#SVGID_450_);fill:#2CA02C;}
	.st314{opacity:0.5;clip-path:url(#SVGID_450_);fill:none;stroke:#2CA02C;stroke-width:0.4117;}
	.st315{opacity:0.5;clip-path:url(#SVGID_452_);fill:#2CA02C;}
	.st316{opacity:0.5;clip-path:url(#SVGID_452_);fill:none;stroke:#2CA02C;stroke-width:0.4117;}
	.st317{opacity:0.5;clip-path:url(#SVGID_454_);fill:#2CA02C;}
	.st318{opacity:0.5;clip-path:url(#SVGID_454_);fill:none;stroke:#2CA02C;stroke-width:0.4117;}
	.st319{opacity:0.5;clip-path:url(#SVGID_456_);fill:#2CA02C;}
	.st320{opacity:0.5;clip-path:url(#SVGID_456_);fill:none;stroke:#2CA02C;stroke-width:0.4117;}
	.st321{opacity:0.5;clip-path:url(#SVGID_458_);fill:#2CA02C;}
	.st322{opacity:0.5;clip-path:url(#SVGID_458_);fill:none;stroke:#2CA02C;stroke-width:0.4117;}
	.st323{opacity:0.5;clip-path:url(#SVGID_460_);fill:#2CA02C;}
	.st324{opacity:0.5;clip-path:url(#SVGID_460_);fill:none;stroke:#2CA02C;stroke-width:0.4117;}
	.st325{opacity:0.5;clip-path:url(#SVGID_462_);fill:#2CA02C;}
	.st326{opacity:0.5;clip-path:url(#SVGID_462_);fill:none;stroke:#2CA02C;stroke-width:0.4117;}
	.st327{opacity:0.5;clip-path:url(#SVGID_464_);fill:#2CA02C;}
	.st328{opacity:0.5;clip-path:url(#SVGID_464_);fill:none;stroke:#2CA02C;stroke-width:0.4117;}
	.st329{opacity:0.5;clip-path:url(#SVGID_466_);fill:#2CA02C;}
	.st330{opacity:0.5;clip-path:url(#SVGID_466_);fill:none;stroke:#2CA02C;stroke-width:0.4117;}
	.st331{fill:none;stroke:#000000;stroke-width:0.3294;stroke-linecap:square;}
	.st332{fill:none;stroke:#000000;stroke-width:3.1438;stroke-miterlimit:10;}
</style>
<g
   id="Layer_2">
</g>

<g
   id="Layer_1">
	<g
   id="Слой_8_2_">
	</g>
	<g
   id="Слой_16_2_">
	</g>
	<g
   id="Time_scale_2_">
	</g>
	<g
   id="Now_line_2_">
	</g>
	<g
   id="Слой_10_2_">
	</g>
	<g
   id="Слой_9_2_">
	</g>
	
	
	
	
	
	
	
	
	
	
	
	
	
	
	
	
	
	
	
	
	
	
	
	<g
   id="g394">
		<g
   id="g393">
			<g
   id="XMLID_7_">
				
				<g
   id="g392">
					
					
					
					
					
					
					
					
					
					
					
					
					
					
					<path
   class="st10"
   d="M735.8,277.2L735.8,277.2L735.8,277.2"
   id="path366" />
					
					
					
					
					
					
					<path
   class="st10"
   d="M736,277.2L736,277.2L736,277.2"
   id="path373" />
					
					
					
					
					
					
					
					
					
					<polyline
   class="st10"
   points="735.9,277.3 735.9,277.3 735.9,277.3      "
   id="polyline381" />
					
					
					
					
					
					
					
					
					
					
					
					
					
				</g>
			</g>
		</g>
	</g>
	
	
	
	<g
   id="g138522_1_"
   transform="matrix(-0.69368251,-0.04200099,-0.04200099,0.69368251,1093.2472,326.55792)">
		<g
   id="g138520_1_">
			
		</g>
	</g>
	
	
	
	
	
	
	
	
	
	
	
	
	
	
	
	
	
	
	
	
	
	
	
	
	
	
	
	
	
	
	
	
	
	
	
	
	
	
	
	
	
	
	
	
	
	
	
	
	
	
	
	
	
	
	
	
	
	
	
	
	
	
	
	
	
	
	
	
	
	
	
	
	
	
	
	
	
	
	
	
	
	
	
	
	
	
	
	
	
	
	
	
	
	
	
	
	
	
	
	
	
	
	<g
   id="Слой_11_1_">
		<g
   id="g262277_2_">
			<g
   id="g262275_2_">
				<path
   id="path262273_2_"
   d="M105.4,19.8c0.1,19.6,0.4,39.2,1,58.8c0.1,1.9,2.4,1.9,2.4,0c-0.6-19.6-0.9-39.1-1-58.8      C107.8,17.8,105.4,17.8,105.4,19.8L105.4,19.8z" />
			</g>
		</g>
		<g
   id="g262283_2_">
			<g
   id="g262281_2_">
				<path
   id="path262279_2_"
   d="M107.4,21.7c6.9-3.8,14.3-1.8,21.3,0.3c3.5,1,6.5,2.3,8.3,6.7c1.5,3.5,2.1,7.8,2.4,11.8      c0.4,4.6,0.4,9.2-0.2,13.8c-0.8,5.7-2.7,8.7-6.5,11.5c-6.4,4.5-13.3,7.1-20.6,8c-1.5,0.2-1.5,3.2,0,3c8.5-1,18.2-4.2,25-11      c5.7-5.7,5.4-18.4,4.6-26.8c-1-9.5-3.6-17-11.3-19.6c-8-2.6-16.5-4.6-24.2-0.3C104.8,19.8,106,22.4,107.4,21.7L107.4,21.7z" />
			</g>
		</g>
		<g
   id="g262289_2_">
			<g
   id="g262287_2_">
				<path
   id="path262285_2_"
   d="M151.6,68.5c4.6-0.4,13.7-3.4,10.9-12.2c-2-6.3-8.7-5.1-12.1-1.8c-4.5,4.3-6.8,12.7-4.6,19.4      c2.8,8.9,13.1,6.1,18.7,4.4c1.5-0.5,0.9-3.4-0.6-2.9c-3.6,1.1-7.6,1.9-11.4,1.4c-5.7-0.8-5.9-9.6-3.8-14.8c1.5-3.8,4.6-7.2,8-7      c3.5,0.2,4.6,4.5,2.4,7.7c-1.8,2.5-4.9,2.7-7.4,2.9C150.1,65.6,150.1,68.6,151.6,68.5L151.6,68.5z" />
			</g>
		</g>
		<g
   id="g262295_2_">
			<g
   id="g262293_2_">
				<path
   id="path262291_2_"
   d="M172.9,56.2c-0.4,7.1-0.7,14.2-0.9,21.4c-0.1,2,2.2,1.9,2.4,0c0.6-6,1.2-16.9,5.9-20.1      c7.4-5,7.1,11.4,7.5,16.4c0.2,1.9,2.2,1.9,2.4,0c0.2-3.1,0.5-6.3,0.8-9.4c0.2-2.7,0.2-4.7,1.7-6.8c1.6-2.3,3.5-2.6,5.6-0.4      c4,4.4,2.4,13.2,2.1,19c-0.1,1.9,2.3,1.9,2.4,0c0.3-7.6,1.8-22.4-6.9-23.5c-8.5-1-7.3,14.1-7.9,21.1c0.8,0,1.6,0,2.4,0      c-0.5-6.8-0.1-22.1-8.5-20.2c-7.8,1.7-8.7,15.9-9.5,23.8c0.8,0,1.6,0,2.4,0c0.2-7.1,0.6-14.3,0.9-21.4      C175.4,54.1,173,54.1,172.9,56.2L172.9,56.2z" />
			</g>
		</g>
		<g
   id="g262301_3_">
			<g
   id="g262299_3_">
				<path
   id="path262297_3_"
   d="M209.7,68.4c1.4,2.7-0.7,6.7,2.8,7.7c2.6,0.8,6.8-0.6,9.1-1.9c5-2.9,7.5-10.5,5.4-17.1      c-2-6.6-8.3-9.8-13.4-7.2c-5.3,2.7-7.5,11-5.4,17.6c0.6,1.8,2.8,1,2.3-0.8c-1.7-5.2-0.3-11.6,3.9-13.9c4.2-2.3,9.6,0.7,10.7,6.6      c1.2,6-1.9,11.3-6.3,12.9c-2,0.7-5.6,2.2-6.4-1.3c-0.3-1.5,0.1-2.5-0.7-4.1C210.9,65.3,208.8,66.8,209.7,68.4L209.7,68.4z" />
			</g>
		</g>
		<g
   id="g262307_2_">
			<g
   id="g262305_2_">
				<path
   id="path262303_2_"
   d="M249.6,66.3c1.1-6.2-2.6-12-7.5-12.6c-5.6-0.6-10.4,5.9-11.9,12.4c-1.6,7,3.4,11.3,8.4,10.2      c5.7-1.2,8.7-8.4,7.3-15.3c-0.4-1.9-2.6-1.1-2.3,0.8c2.1,11.1,2.4,22.7,0.6,34.1c-0.4,2.3-0.8,4.7-1.3,7c-0.8,3.2-1.5,7-6.1,4.3      c-0.7-0.4-2-1.9-2.5-2.8c-2.7-5.4,3.6-12.8,6.7-15.4c1.3-1.1,0.1-3.8-1.2-2.6c-3.6,3.1-9.7,10.5-8.6,17      c0.8,4.7,6.5,9.8,10.2,7.7c4.7-2.8,5.3-14.4,5.8-20.1c1-10,0.5-20.1-1.3-29.9c-0.8,0.3-1.5,0.5-2.3,0.8      c0.9,4.8-0.7,9.9-4.6,11.3c-4.9,1.7-8-3.5-5.6-9.1c1.3-3.2,3.8-6.4,6.7-7c3.9-0.9,8,3.2,7.1,8.6C247,67.3,249.3,68.1,249.6,66.3      L249.6,66.3z" />
			</g>
		</g>
		<g
   id="g262313_2_">
			<g
   id="g262311_2_">
				<path
   id="path262309_2_"
   d="M257.6,78c0.6-8.5,1.1-17.1,1.7-25.6c-0.5,0.5-1,1-1.5,1.4c3.2,1.4,6.4,1.8,9.8,1.5      c1.5-0.2,1.5-3.2,0-3c-3.2,0.3-6.1-0.1-9.2-1.4c-0.8-0.3-1.4,0.5-1.5,1.4c-0.6,8.5-1.1,17.1-1.7,25.6      C255.1,79.9,257.4,79.9,257.6,78L257.6,78z" />
			</g>
		</g>
		<g
   id="g262319_2_">
			<g
   id="g262317_2_">
				<path
   id="path262315_2_"
   d="M287.4,66.1c1-6.1-2.3-12.2-7.2-12.8c-5.4-0.7-10.6,5.4-11.5,12.1c-2.1,16.5,21.3,15.2,18.2-2.6      c-0.3-1.8-2.1-1.1-2.3,0.4c-0.6,6.3,0.5,12.3,3.2,17.5c0.9,1.6,2.9,0.1,2-1.5c-2.5-4.9-3.5-10.2-2.9-16      c-0.8,0.1-1.6,0.3-2.3,0.4c2.4,14-16.7,13.7-13.3,0.7c1.1-4.1,4.3-7.8,7.7-7.9c3.7-0.1,6.8,4.3,6,9      C284.7,67.2,287,68,287.4,66.1L287.4,66.1z" />
			</g>
		</g>
		<g
   id="g262325_2_">
			<g
   id="g262323_2_">
				<path
   id="path262321_2_"
   d="M293.9,60.9c0.2,13.4,0.4,26.8,0.6,40.2c0,1.9,2.4,1.9,2.4,0c-0.2-13.4-0.4-26.8-0.6-40.2      C296.3,58.9,293.9,58.9,293.9,60.9L293.9,60.9z" />
			</g>
		</g>
		<g
   id="g262331_2_">
			<g
   id="g262329_2_">
				<path
   id="path262327_2_"
   d="M294.7,60.4c0.7-6.5,9.5-5.5,12.1-1.6c2.4,3.6,0.4,8.4-2.4,10.6c-2.4,1.9-5.4,2.3-8.1,2.7      c-1.5,0.2-1.5,3.2,0,3c4.4-0.7,9.4-1.5,12.2-6.5c2-3.3,2.4-7.8,0.4-11.3c-3.5-6-15.5-7.1-16.5,2.2      C292.2,61.5,294.5,62.3,294.7,60.4L294.7,60.4z" />
			</g>
		</g>
		<g
   id="g262337_2_">
			<g
   id="g262335_2_">
				<path
   id="path262333_2_"
   d="M330,56.5c-0.9,6.5-0.8,13,0.2,19.4c0.3,1.9,2.6,1.1,2.3-0.8c-0.9-5.9-0.9-11.9-0.2-17.7      C332.6,55.4,330.3,54.5,330,56.5L330,56.5z" />
			</g>
		</g>
		<g
   id="g262343_2_">
			<g
   id="g262341_2_">
				<path
   id="path262339_2_"
   d="M329.7,37.6c0.2-0.2,0.4-0.5,0.6-0.7c0.5-0.5,0.5-1.6,0-2.1c-0.5-0.6-1.2-0.5-1.7,0      c-0.2,0.2-0.4,0.5-0.6,0.7c-0.5,0.5-0.5,1.6,0,2.1C328.4,38.2,329.2,38.1,329.7,37.6L329.7,37.6z" />
			</g>
		</g>
		<g
   id="g262349_2_">
			<g
   id="g262347_2_">
				<path
   id="path262345_2_"
   d="M352.6,63.3c1.5-4.4-0.6-9.3-4.3-10.1c-4.8-1.1-10.1,4.8-11.6,10.3c-3.6,13.3,12,19.9,19.4,15.5      c1.4-0.8,0.2-3.4-1.2-2.6c-4.6,2.7-12,0.5-15.1-5.1c-2-3.5-1.1-7.6,1-10.7c0.9-1.4,2-2.7,3.4-3.5c2.2-1.4,8.3-1.1,6.3,4.7      C350,63.5,352,65,352.6,63.3L352.6,63.3z" />
			</g>
		</g>
		<g
   id="g262411_2_">
			<g
   id="g262355_2_">
				<g
   id="g262353_2_">
					<path
   id="path262351_2_"
   d="M391.4,34.8c0.6,14.8-0.1,29.4-2.2,44c0.8,0.1,1.6,0.2,2.4,0.3c0.1-0.7,0.1-1.4,0.2-2.1       c0.2-1.9-2.1-2.2-2.4-0.3c-0.1,0.7-0.1,1.4-0.2,2.1c-0.2,1.9,2.1,2.2,2.4,0.3c2.1-14.8,2.8-29.8,2.2-44.9       C393.6,32.3,391.3,32.8,391.4,34.8L391.4,34.8z" />
				</g>
			</g>
			<g
   id="g262361_2_">
				<g
   id="g262359_2_">
					<path
   id="path262357_2_"
   d="M394,61.9c0.7-3.9,4.3-5.7,6.8-3.1c1.5,1.7,1.7,4.4,1.8,6.9c0.2,3.7,0.1,7.1,2,10.2       c1,1.5,2.8-0.4,1.8-1.9c-3.3-5.1,0.3-13.4-4.6-17.7c-4.1-3.7-9.1-0.4-10.2,5.5C391.3,63.5,393.7,63.8,394,61.9L394,61.9z" />
				</g>
			</g>
			<g
   id="g262367_2_">
				<g
   id="g262365_2_">
					<path
   id="path262363_2_"
   d="M412.2,55.4c-0.7,7.2-0.5,14.3,0.7,21.4c0.3,1.9,2.6,1.1,2.3-0.8c-1.2-6.8-1.3-13.7-0.6-20.6       C414.8,53.4,412.4,53.5,412.2,55.4L412.2,55.4z" />
				</g>
			</g>
			<g
   id="g262373_2_">
				<g
   id="g262371_2_">
					<path
   id="path262369_2_"
   d="M412.6,47.5c0.2,0,0.4,0,0.6,0c0.6,0,1.2-0.7,1.2-1.5s-0.6-1.5-1.2-1.5c-0.2,0-0.4,0-0.6,0       c-0.6,0-1.2,0.7-1.2,1.5C411.5,46.9,412,47.5,412.6,47.5L412.6,47.5z" />
				</g>
			</g>
			<g
   id="g262379_2_">
				<g
   id="g262377_2_">
					<path
   id="path262375_2_"
   d="M431.7,57.7c-1.6-7.9-9.2-6.3-11.2,0.4c-0.9,3.2-0.7,7.5,1.7,9.6c1.3,1.1,2.8,1,4.3,1.4       c1.9,0.6,8.7,4,1.3,8.6c-1.7,1-4.4,0-6.1-0.4c-1.5-0.4-2.1,2.5-0.6,2.9c4.3,1.1,12.9,1.1,12-7.6c-0.3-2.7-2-4.6-3.9-5.6       c-1.1-0.6-2.4-0.5-3.5-1.1c-1.8-1.1-3.9-3.8-3.2-6.5c0.8-3,5.6-7.3,6.9-1C429.8,60.4,432.1,59.6,431.7,57.7L431.7,57.7z" />
				</g>
			</g>
			<g
   id="g262385_2_">
				<g
   id="g262383_2_">
					<path
   id="path262381_2_"
   d="M440.7,44.9c-0.2,5.9-0.5,11.8-0.4,17.7c0.1,4.1,0,8.6,1.6,12.3c2,4.5,7.1,6,9.5,1.1       c0.8-1.6-1.3-3.1-2-1.5c-0.9,1.7-3.6,1.5-4.6,0.2c-0.8-1-1.3-2.9-1.6-4.3c-0.6-2.7-0.4-6-0.5-8.8c-0.1-5.6,0.2-11.1,0.4-16.7       C443.1,43,440.8,43,440.7,44.9L440.7,44.9z" />
				</g>
			</g>
			<g
   id="g262391_2_">
				<g
   id="g262389_2_">
					<path
   id="path262387_2_"
   d="M435.2,66.3c5-0.7,10-2,14.8-4.1c1.4-0.6,0.9-3.5-0.6-2.9c-4.6,1.9-9.4,3.2-14.2,4       C433.7,63.4,433.7,66.5,435.2,66.3L435.2,66.3z" />
				</g>
			</g>
			<g
   id="g262397_2_">
				<g
   id="g262395_2_">
					<path
   id="path262393_2_"
   d="M456.8,69.4c-2.4,5.1,0.5,12.2,5.3,11.6c5.6-0.7,8.2-9.8,7.2-16c-1-6.6-6.4-11.4-11.5-8.3       c-5.9,3.4-3.8,12.5-1.7,18.3c0.6,1.7,2.7,0.2,2-1.5c-1.4-3.9-3.7-10.4-0.2-13.6c2.8-2.5,6.7-0.5,8.2,3.1c1.5,3.8,1,8.8-1,12.1       c-1.3,2.1-3.8,4.2-5.8,2c-1.4-1.5-1.6-4.3-0.6-6.1C459.6,69.2,457.6,67.6,456.8,69.4L456.8,69.4z" />
				</g>
			</g>
			<g
   id="g262403_2_">
				<g
   id="g262401_2_">
					<path
   id="path262399_2_"
   d="M477.3,78c-0.2-6.9-0.4-13.7-0.6-20.6c-0.3,0.5-0.6,1-0.9,1.4c3.4-0.7,6.8-1.4,10.2-2.1       c1.5-0.3,0.9-3.2-0.6-2.9c-3.4,0.7-6.8,1.4-10.2,2.1c-0.5,0.1-0.9,0.8-0.9,1.4c0.2,6.9,0.4,13.7,0.6,20.6       C475,79.9,477.3,79.9,477.3,78L477.3,78z" />
				</g>
			</g>
			<g
   id="g262409_2_">
				<g
   id="g262407_2_">
					<path
   id="path262405_2_"
   d="M491.6,55.3c-1.1,6.3-3.9,19.4,3.9,19.6c6.9,0.2,9.8-9.1,9.4-16.4c-0.1-2-2.2-1.9-2.4,0       c-0.8,8.3-1.5,16.6-2.3,25c-0.3,3.8-0.3,7.9-1,11.6c-0.6,3.1-1.7,3.8-4,3.6c-2,0.2-3.4-0.9-4.2-3.3c-0.3-1.8,0.1-3,1.3-3.8       c1.4-0.7,0.8-3.6-0.6-2.9c-2.7,1.3-3.7,5-2.7,8.4c1.4,4.7,6.1,5.2,9.4,4c4.5-1.6,3.5-9.9,3.9-14.7c0.9-9.3,1.7-18.5,2.5-27.9       c-0.8,0-1.6,0-2.4,0c0.2,5.1-1.1,13-6.1,13.2c-6,0.3-3.3-11.5-2.6-15.6C494.2,54.2,491.9,53.4,491.6,55.3L491.6,55.3z" />
				</g>
			</g>
		</g>
		<g
   id="g262423_2_">
			<g
   id="g262421_2_">
				<path
   id="path262419_2_"
   d="M313.4,37.9c0.2,12.8,0.2,25.5,0.4,38.3c0,1.9,2.4,1.9,2.4,0c-0.2-12.8-0.2-25.5-0.4-38.3      C315.8,36,313.4,36,313.4,37.9L313.4,37.9z" />
			</g>
		</g>
		<g
   id="g262429_2_">
			<g
   id="g262427_2_">
				<path
   id="path262425_2_"
   d="M315.9,59.5c6.7-2.2,8.3,9,8.8,15.1c0.2,1.9,2.5,1.9,2.4,0c-0.4-4.9-0.8-10.1-3.3-14.1      c-2.1-3.3-5.3-5.1-8.5-4C313.8,57.1,314.5,60,315.9,59.5L315.9,59.5z" />
			</g>
		</g>
	</g>
	
	
	
	
	
	
	
	
	
	
	
	
	
	
	
	
	
	
<g
   id="g799">
		
		
		
		
		
		
		
		
		
		
		
		
		
		
		
		
		
		
		
		
	<path
   class="st253"
   d="m 247.73096,114.33295 c -108.72003,0.75498 -143.1752,-11.5403 -176.582751,3.66701 -33.407548,15.31516 -39.809691,18.87432 -43.068965,45.1905 -3.375675,26.42405 -19.7884429,42.60203 0.232806,76.03653 20.021248,33.43451 12.222273,44.65124 -5.238117,63.74127 -17.4603919,19.09002 -22.8149119,53.7109 -0.814819,76.14438 22.000093,22.43348 -3.608481,76.68365 89.862816,94.58729 93.47129,18.01149 78.57176,-4.63769 160.28639,-0.21571 81.83103,4.42198 24.09534,37.64078 146.20167,30.95388 122.10634,-6.6869 101.03747,-48.64181 101.03747,-48.64181 0,0 1.04762,-17.25651 6.16934,-35.69942 4.5397,-16.17799 5.12171,-35.80727 -4.6561,-55.76013 -9.77783,-19.95284 -51.79916,-43.68055 -26.7726,-84.44907 25.02655,-40.76853 30.84668,-55.97583 31.77791,-81.64491 0.81482,-25.66906 -15.83076,-93.40089 -60.87857,-87.57682 -45.04781,5.82407 -98.82582,21.13923 -120.01109,10.03035 -21.30168,-11.10889 -97.54539,-6.36334 -97.54539,-6.36334 z"
   id="path955"
   style="fill:none;stroke:#000000;stroke-width:2.60261" /></g></g>
</svg>
