<?xml version="1.0" encoding="UTF-8" standalone="no"?>
<!-- Generator: Adobe Illustrator 23.0.3, SVG Export Plug-In . SVG Version: 6.00 Build 0)  -->

<svg
   version="1.1"
   x="0px"
   y="0px"
   viewBox="0 0 1204 623.6"
   style="enable-background:new 0 0 1204 623.6;"
   xml:space="preserve"
   id="svg1166"
   sodipodi:docname="sets_gen_data_genomes.svg"
   inkscape:version="1.3.2 (1:1.3.2+202311252150+091e20ef0f)"
   xmlns:inkscape="http://www.inkscape.org/namespaces/inkscape"
   xmlns:sodipodi="http://sodipodi.sourceforge.net/DTD/sodipodi-0.dtd"
   xmlns="http://www.w3.org/2000/svg"
   xmlns:svg="http://www.w3.org/2000/svg"><defs
   id="defs1166" /><sodipodi:namedview
   id="namedview1166"
   pagecolor="#ffffff"
   bordercolor="#000000"
   borderopacity="0.25"
   inkscape:showpageshadow="2"
   inkscape:pageopacity="0.0"
   inkscape:pagecheckerboard="0"
   inkscape:deskcolor="#d1d1d1"
   inkscape:zoom="0.4218555"
   inkscape:cx="800.03699"
   inkscape:cy="98.374918"
   inkscape:window-width="1223"
   inkscape:window-height="774"
   inkscape:window-x="57"
   inkscape:window-y="26"
   inkscape:window-maximized="1"
   inkscape:current-layer="Layer_1" />
<style
   type="text/css"
   id="style1">
	.st0{fill:#FFEE88;}
	.st1{fill:#A2E57F;}
	.st2{stroke:#000000;stroke-width:0.8;stroke-linejoin:round;}
	.st3{fill:none;stroke:#000000;stroke-width:0.8;stroke-linecap:square;}
	.st4{opacity:0.82;}
	.st5{fill:#C1272D;}
	.st6{fill:#FCEE21;}
	.st7{fill:#0000FF;}
	.st8{fill:#8CC63F;}
	.st9{fill:#FFFFFF;}
	.st10{fill:none;stroke:#000000;stroke-miterlimit:10;}
	.st11{fill:#B3B3B3;}
	
		.st12{clip-path:url(#SVGID_2_);fill:#2CA02C;fill-opacity:0.2;stroke:#2CA02C;stroke-width:2;stroke-linejoin:round;stroke-dasharray:2,2;}
	
		.st13{clip-path:url(#SVGID_4_);fill:#FF7F0E;fill-opacity:0.2;stroke:#FF800F;stroke-width:2;stroke-linejoin:round;stroke-dasharray:2,2;}
	
		.st14{clip-path:url(#SVGID_6_);fill:#1E75B3;fill-opacity:0.2;stroke:#1E75B3;stroke-width:2;stroke-linejoin:round;stroke-dasharray:2,2;}
	
		.st15{clip-path:url(#SVGID_8_);fill:none;stroke:#FF7F0E;stroke-width:0.2;stroke-linecap:square;stroke-linejoin:round;stroke-opacity:0.5;}
	
		.st16{clip-path:url(#SVGID_10_);fill:none;stroke:#FF7F0E;stroke-width:0.2;stroke-linecap:square;stroke-linejoin:round;stroke-opacity:0.5;}
	
		.st17{clip-path:url(#SVGID_12_);fill:none;stroke:#FF7F0E;stroke-width:0.2;stroke-linecap:square;stroke-linejoin:round;stroke-opacity:0.5;}
	
		.st18{clip-path:url(#SVGID_14_);fill:none;stroke:#FF7F0E;stroke-width:0.2;stroke-linecap:square;stroke-linejoin:round;stroke-opacity:0.5;}
	
		.st19{clip-path:url(#SVGID_16_);fill:none;stroke:#FF7F0E;stroke-width:0.2;stroke-linecap:square;stroke-linejoin:round;stroke-opacity:0.5;}
	
		.st20{clip-path:url(#SVGID_18_);fill:none;stroke:#FF7F0E;stroke-width:0.2;stroke-linecap:square;stroke-linejoin:round;stroke-opacity:0.5;}
	
		.st21{clip-path:url(#SVGID_20_);fill:none;stroke:#FF7F0E;stroke-width:0.2;stroke-linecap:square;stroke-linejoin:round;stroke-opacity:0.5;}
	
		.st22{clip-path:url(#SVGID_22_);fill:none;stroke:#FF7F0E;stroke-width:0.2;stroke-linecap:square;stroke-linejoin:round;stroke-opacity:0.5;}
	
		.st23{clip-path:url(#SVGID_24_);fill:none;stroke:#FF7F0E;stroke-width:0.2;stroke-linecap:square;stroke-linejoin:round;stroke-opacity:0.5;}
	
		.st24{clip-path:url(#SVGID_26_);fill:none;stroke:#FF7F0E;stroke-width:0.2;stroke-linecap:square;stroke-linejoin:round;stroke-opacity:0.5;}
	
		.st25{clip-path:url(#SVGID_28_);fill:none;stroke:#2CA02C;stroke-width:0.2;stroke-linecap:square;stroke-linejoin:round;stroke-opacity:0.5;}
	
		.st26{clip-path:url(#SVGID_30_);fill:none;stroke:#2CA02C;stroke-width:0.2;stroke-linecap:square;stroke-linejoin:round;stroke-opacity:0.5;}
	
		.st27{clip-path:url(#SVGID_32_);fill:none;stroke:#2CA02C;stroke-width:0.2;stroke-linecap:square;stroke-linejoin:round;stroke-opacity:0.5;}
	
		.st28{clip-path:url(#SVGID_34_);fill:none;stroke:#2CA02C;stroke-width:0.2;stroke-linecap:square;stroke-linejoin:round;stroke-opacity:0.5;}
	
		.st29{clip-path:url(#SVGID_36_);fill:none;stroke:#2CA02C;stroke-width:0.2;stroke-linecap:square;stroke-linejoin:round;stroke-opacity:0.5;}
	
		.st30{clip-path:url(#SVGID_38_);fill:none;stroke:#2CA02C;stroke-width:0.2;stroke-linecap:square;stroke-linejoin:round;stroke-opacity:0.5;}
	
		.st31{clip-path:url(#SVGID_40_);fill:none;stroke:#2CA02C;stroke-width:0.2;stroke-linecap:square;stroke-linejoin:round;stroke-opacity:0.5;}
	
		.st32{clip-path:url(#SVGID_42_);fill:none;stroke:#2CA02C;stroke-width:0.2;stroke-linecap:square;stroke-linejoin:round;stroke-opacity:0.5;}
	
		.st33{clip-path:url(#SVGID_44_);fill:none;stroke:#2CA02C;stroke-width:0.2;stroke-linecap:square;stroke-linejoin:round;stroke-opacity:0.5;}
	
		.st34{clip-path:url(#SVGID_46_);fill:none;stroke:#2CA02C;stroke-width:0.2;stroke-linecap:square;stroke-linejoin:round;stroke-opacity:0.5;}
	
		.st35{clip-path:url(#SVGID_48_);fill:none;stroke:#FF7F0E;stroke-width:0.2;stroke-linecap:square;stroke-linejoin:round;stroke-opacity:0.5;}
	
		.st36{clip-path:url(#SVGID_50_);fill:none;stroke:#FF7F0E;stroke-width:0.2;stroke-linecap:square;stroke-linejoin:round;stroke-opacity:0.5;}
	
		.st37{clip-path:url(#SVGID_52_);fill:none;stroke:#FF7F0E;stroke-width:0.2;stroke-linecap:square;stroke-linejoin:round;stroke-opacity:0.5;}
	
		.st38{clip-path:url(#SVGID_54_);fill:none;stroke:#FF7F0E;stroke-width:0.2;stroke-linecap:square;stroke-linejoin:round;stroke-opacity:0.5;}
	
		.st39{clip-path:url(#SVGID_56_);fill:none;stroke:#FF7F0E;stroke-width:0.2;stroke-linecap:square;stroke-linejoin:round;stroke-opacity:0.5;}
	
		.st40{clip-path:url(#SVGID_58_);fill:none;stroke:#FF7F0E;stroke-width:0.2;stroke-linecap:square;stroke-linejoin:round;stroke-opacity:0.5;}
	
		.st41{clip-path:url(#SVGID_60_);fill:none;stroke:#FF7F0E;stroke-width:0.2;stroke-linecap:square;stroke-linejoin:round;stroke-opacity:0.5;}
	
		.st42{clip-path:url(#SVGID_62_);fill:none;stroke:#FF7F0E;stroke-width:0.2;stroke-linecap:square;stroke-linejoin:round;stroke-opacity:0.5;}
	
		.st43{clip-path:url(#SVGID_64_);fill:none;stroke:#FF7F0E;stroke-width:0.2;stroke-linecap:square;stroke-linejoin:round;stroke-opacity:0.5;}
	
		.st44{clip-path:url(#SVGID_66_);fill:none;stroke:#FF7F0E;stroke-width:0.2;stroke-linecap:square;stroke-linejoin:round;stroke-opacity:0.5;}
	.st45{clip-path:url(#SVGID_68_);fill:none;stroke:#1F77B4;}
	.st46{clip-path:url(#SVGID_70_);fill:#1F77B4;fill-opacity:0.5;}
	.st47{clip-path:url(#SVGID_72_);fill:none;stroke:#FF7F0E;}
	.st48{clip-path:url(#SVGID_74_);fill:#FF7F0E;fill-opacity:0.5;}
	.st49{clip-path:url(#SVGID_76_);fill:none;stroke:#2CA02C;}
	.st50{clip-path:url(#SVGID_78_);fill:#2CA02C;fill-opacity:0.5;}
	.st51{clip-path:url(#SVGID_80_);fill:none;stroke:#FFFFFF;stroke-width:3;stroke-linecap:round;stroke-linejoin:round;}
	.st52{clip-path:url(#SVGID_82_);fill:none;stroke:#1F77B4;stroke-linecap:round;stroke-linejoin:round;}
	.st53{clip-path:url(#SVGID_84_);fill:#FFFFFF;stroke:#FFFFFF;stroke-width:3;stroke-linecap:round;stroke-linejoin:round;}
	.st54{clip-path:url(#SVGID_86_);fill:#FFFFFF;stroke:#1F77B4;stroke-linecap:round;stroke-linejoin:round;}
	.st55{clip-path:url(#SVGID_88_);fill:none;stroke:#FFFFFF;stroke-width:3;stroke-linecap:round;stroke-linejoin:round;}
	.st56{clip-path:url(#SVGID_90_);fill:none;stroke:#1F77B4;stroke-linecap:round;stroke-linejoin:round;}
	.st57{clip-path:url(#SVGID_92_);fill:#FFFFFF;stroke:#FFFFFF;stroke-width:3;stroke-linecap:round;stroke-linejoin:round;}
	.st58{clip-path:url(#SVGID_94_);fill:#FFFFFF;stroke:#1F77B4;stroke-linecap:round;stroke-linejoin:round;}
	.st59{clip-path:url(#SVGID_96_);fill:#FF7F0E;fill-opacity:0.5;stroke:#FF7F0E;stroke-opacity:0.5;}
	.st60{clip-path:url(#SVGID_98_);fill:#FF7F0E;fill-opacity:0.5;stroke:#FF7F0E;stroke-opacity:0.5;}
	.st61{clip-path:url(#SVGID_100_);fill:#FF7F0E;fill-opacity:0.5;stroke:#FF7F0E;stroke-opacity:0.5;}
	.st62{clip-path:url(#SVGID_102_);fill:#FF7F0E;fill-opacity:0.5;stroke:#FF7F0E;stroke-opacity:0.5;}
	.st63{clip-path:url(#SVGID_104_);fill:#FF7F0E;fill-opacity:0.5;stroke:#FF7F0E;stroke-opacity:0.5;}
	.st64{clip-path:url(#SVGID_106_);fill:#FF7F0E;fill-opacity:0.5;stroke:#FF7F0E;stroke-opacity:0.5;}
	.st65{clip-path:url(#SVGID_108_);fill:#FF7F0E;fill-opacity:0.5;stroke:#FF7F0E;stroke-opacity:0.5;}
	.st66{clip-path:url(#SVGID_110_);fill:#FF7F0E;fill-opacity:0.5;stroke:#FF7F0E;stroke-opacity:0.5;}
	.st67{clip-path:url(#SVGID_112_);fill:#FF7F0E;fill-opacity:0.5;stroke:#FF7F0E;stroke-opacity:0.5;}
	.st68{clip-path:url(#SVGID_114_);fill:#FF7F0E;fill-opacity:0.5;stroke:#FF7F0E;stroke-opacity:0.5;}
	.st69{fill:none;stroke:#000000;stroke-linejoin:round;stroke-miterlimit:10;}
	.st70{clip-path:url(#SVGID_116_);enable-background:new    ;}
	.st71{clip-path:url(#SVGID_118_);}
	.st72{clip-path:url(#SVGID_120_);enable-background:new    ;}
	.st73{clip-path:url(#SVGID_122_);}
	.st74{clip-path:url(#SVGID_124_);enable-background:new    ;}
	.st75{clip-path:url(#SVGID_126_);}
	.st76{clip-path:url(#SVGID_128_);enable-background:new    ;}
	.st77{clip-path:url(#SVGID_130_);}
	.st78{clip-path:url(#SVGID_132_);enable-background:new    ;}
	.st79{clip-path:url(#SVGID_134_);}
	.st80{clip-path:url(#SVGID_136_);enable-background:new    ;}
	.st81{clip-path:url(#SVGID_138_);}
	.st82{clip-path:url(#SVGID_140_);enable-background:new    ;}
	.st83{clip-path:url(#SVGID_142_);}
	.st84{clip-path:url(#SVGID_144_);}
	.st85{clip-path:url(#SVGID_146_);fill:none;stroke:#1F77B4;stroke-width:0.3834;stroke-miterlimit:10;}
	.st86{clip-path:url(#SVGID_144_);enable-background:new    ;}
	.st87{opacity:0.5;clip-path:url(#SVGID_148_);fill:#1F77B4;}
	.st88{clip-path:url(#SVGID_150_);fill:none;stroke:#FF7F0E;stroke-width:0.3834;stroke-miterlimit:10;}
	.st89{opacity:0.5;clip-path:url(#SVGID_152_);fill:#FF7F0E;}
	.st90{fill:none;stroke:#000000;stroke-width:0.3067;stroke-linejoin:round;stroke-miterlimit:10;}
	.st91{font-family:'DejaVuSans';}
	.st92{font-size:3.8339px;}
	.st93{clip-path:url(#SVGID_154_);}
	.st94{clip-path:url(#SVGID_156_);}
	.st95{clip-path:url(#SVGID_158_);}
	.st96{clip-path:url(#SVGID_160_);}
	.st97{clip-path:url(#SVGID_162_);}
	.st98{clip-path:url(#SVGID_164_);}
	.st99{clip-path:url(#SVGID_166_);}
	.st100{clip-path:url(#SVGID_168_);}
	.st101{clip-path:url(#SVGID_170_);}
	.st102{clip-path:url(#SVGID_172_);}
	.st103{clip-path:url(#SVGID_174_);}
	.st104{clip-path:url(#SVGID_176_);}
	.st105{clip-path:url(#SVGID_178_);}
	.st106{clip-path:url(#SVGID_180_);}
	.st107{clip-path:url(#SVGID_182_);}
	
		.st108{clip-path:url(#SVGID_184_);fill:none;stroke:#FFFFFF;stroke-width:1.1502;stroke-linecap:round;stroke-linejoin:round;stroke-miterlimit:10;}
	
		.st109{clip-path:url(#SVGID_184_);fill:none;stroke:#1F77B4;stroke-width:0.3834;stroke-linecap:round;stroke-linejoin:round;stroke-miterlimit:10;}
	.st110{clip-path:url(#SVGID_184_);fill:#FFFFFF;}
	.st111{fill:none;stroke:#000000;stroke-width:0.3067;stroke-linecap:square;stroke-miterlimit:10;}
	.st112{clip-path:url(#SVGID_186_);enable-background:new    ;}
	.st113{clip-path:url(#SVGID_188_);}
	.st114{clip-path:url(#SVGID_190_);enable-background:new    ;}
	.st115{clip-path:url(#SVGID_192_);}
	.st116{clip-path:url(#SVGID_194_);}
	.st117{clip-path:url(#SVGID_196_);fill:none;stroke:#1F77B4;stroke-width:0.3834;stroke-miterlimit:10;}
	.st118{clip-path:url(#SVGID_194_);enable-background:new    ;}
	.st119{opacity:0.5;clip-path:url(#SVGID_198_);fill:#1F77B4;}
	.st120{clip-path:url(#SVGID_200_);fill:none;stroke:#FF7F0E;stroke-width:0.3834;stroke-miterlimit:10;}
	.st121{opacity:0.5;clip-path:url(#SVGID_202_);fill:#FF7F0E;}
	.st122{clip-path:url(#SVGID_204_);}
	.st123{clip-path:url(#SVGID_206_);}
	.st124{clip-path:url(#SVGID_208_);}
	.st125{clip-path:url(#SVGID_210_);}
	.st126{clip-path:url(#SVGID_212_);}
	
		.st127{clip-path:url(#SVGID_214_);fill:none;stroke:#FFFFFF;stroke-width:1.1502;stroke-linecap:round;stroke-linejoin:round;stroke-miterlimit:10;}
	
		.st128{clip-path:url(#SVGID_214_);fill:none;stroke:#1F77B4;stroke-width:0.3834;stroke-linecap:round;stroke-linejoin:round;stroke-miterlimit:10;}
	.st129{clip-path:url(#SVGID_214_);fill:#FFFFFF;}
	.st130{clip-path:url(#SVGID_216_);}
	.st131{clip-path:url(#SVGID_218_);fill:none;stroke:#1F77B4;stroke-width:0.3824;stroke-miterlimit:10;}
	.st132{clip-path:url(#SVGID_216_);enable-background:new    ;}
	.st133{opacity:0.5;clip-path:url(#SVGID_220_);fill:#1F77B4;}
	.st134{clip-path:url(#SVGID_222_);fill:none;stroke:#FF7F0E;stroke-width:0.3824;stroke-miterlimit:10;}
	.st135{opacity:0.5;clip-path:url(#SVGID_224_);fill:#FF7F0E;}
	.st136{fill:none;stroke:#000000;stroke-width:0.3059;stroke-linejoin:round;stroke-miterlimit:10;}
	.st137{font-size:3.8236px;}
	.st138{clip-path:url(#SVGID_226_);}
	
		.st139{clip-path:url(#SVGID_228_);fill:none;stroke:#FFFFFF;stroke-width:1.1471;stroke-linecap:round;stroke-linejoin:round;stroke-miterlimit:10;}
	
		.st140{clip-path:url(#SVGID_228_);fill:none;stroke:#1F77B4;stroke-width:0.3824;stroke-linecap:round;stroke-linejoin:round;stroke-miterlimit:10;}
	.st141{clip-path:url(#SVGID_228_);fill:#FFFFFF;}
	.st142{fill:none;stroke:#000000;stroke-width:0.3059;stroke-linecap:square;stroke-miterlimit:10;}
	.st143{clip-path:url(#SVGID_230_);}
	.st144{clip-path:url(#SVGID_232_);fill:none;stroke:#1F77B4;stroke-width:0.3774;stroke-miterlimit:10;}
	.st145{clip-path:url(#SVGID_230_);enable-background:new    ;}
	.st146{opacity:0.5;clip-path:url(#SVGID_234_);fill:#1F77B4;}
	.st147{clip-path:url(#SVGID_236_);fill:none;stroke:#FF7F0E;stroke-width:0.3774;stroke-miterlimit:10;}
	.st148{opacity:0.5;clip-path:url(#SVGID_238_);fill:#FF7F0E;}
	.st149{fill:none;stroke:#000000;stroke-width:0.3019;stroke-linejoin:round;stroke-miterlimit:10;}
	.st150{font-size:3.7741px;}
	.st151{clip-path:url(#SVGID_240_);}
	
		.st152{clip-path:url(#SVGID_242_);fill:none;stroke:#FFFFFF;stroke-width:1.1322;stroke-linecap:round;stroke-linejoin:round;stroke-miterlimit:10;}
	
		.st153{clip-path:url(#SVGID_242_);fill:none;stroke:#1F77B4;stroke-width:0.3774;stroke-linecap:round;stroke-linejoin:round;stroke-miterlimit:10;}
	.st154{clip-path:url(#SVGID_242_);fill:#FFFFFF;}
	.st155{fill:none;stroke:#000000;stroke-width:0.3019;stroke-linecap:square;stroke-miterlimit:10;}
	.st156{clip-path:url(#SVGID_244_);}
	.st157{clip-path:url(#SVGID_246_);fill:none;stroke:#1F77B4;stroke-width:0.4053;stroke-miterlimit:10;}
	.st158{clip-path:url(#SVGID_244_);enable-background:new    ;}
	.st159{opacity:0.5;clip-path:url(#SVGID_248_);fill:#1F77B4;}
	.st160{clip-path:url(#SVGID_250_);fill:none;stroke:#FF7F0E;stroke-width:0.4053;stroke-miterlimit:10;}
	.st161{opacity:0.5;clip-path:url(#SVGID_252_);fill:#FF7F0E;}
	.st162{clip-path:url(#SVGID_254_);fill:none;stroke:#2CA02C;stroke-width:0.4053;stroke-miterlimit:10;}
	.st163{opacity:0.5;clip-path:url(#SVGID_256_);fill:#2CA02C;}
	.st164{fill:none;stroke:#000000;stroke-width:0.3242;stroke-linejoin:round;stroke-miterlimit:10;}
	.st165{font-size:4.0525px;}
	.st166{clip-path:url(#SVGID_258_);}
	
		.st167{clip-path:url(#SVGID_260_);fill:none;stroke:#FFFFFF;stroke-width:1.2158;stroke-linecap:round;stroke-linejoin:round;stroke-miterlimit:10;}
	
		.st168{clip-path:url(#SVGID_260_);fill:none;stroke:#1F77B4;stroke-width:0.4053;stroke-linecap:round;stroke-linejoin:round;stroke-miterlimit:10;}
	.st169{clip-path:url(#SVGID_260_);fill:#FFFFFF;}
	
		.st170{clip-path:url(#SVGID_262_);fill:none;stroke:#FFFFFF;stroke-width:1.2158;stroke-linecap:round;stroke-linejoin:round;stroke-miterlimit:10;}
	
		.st171{clip-path:url(#SVGID_262_);fill:none;stroke:#1F77B4;stroke-width:0.4053;stroke-linecap:round;stroke-linejoin:round;stroke-miterlimit:10;}
	.st172{clip-path:url(#SVGID_262_);fill:#FFFFFF;}
	.st173{fill:none;stroke:#000000;stroke-width:0.3242;stroke-linecap:square;stroke-miterlimit:10;}
	.st174{clip-path:url(#SVGID_264_);enable-background:new    ;}
	
		.st175{opacity:0.5;clip-path:url(#SVGID_266_);fill:none;stroke:#FF7F0E;stroke-width:7.932800e-02;stroke-linecap:square;stroke-linejoin:round;stroke-miterlimit:10;}
	
		.st176{opacity:0.5;clip-path:url(#SVGID_268_);fill:none;stroke:#FF7F0E;stroke-width:7.932800e-02;stroke-linecap:square;stroke-linejoin:round;stroke-miterlimit:10;}
	
		.st177{opacity:0.5;clip-path:url(#SVGID_270_);fill:none;stroke:#FF7F0E;stroke-width:7.932800e-02;stroke-linecap:square;stroke-linejoin:round;stroke-miterlimit:10;}
	
		.st178{opacity:0.5;clip-path:url(#SVGID_272_);fill:none;stroke:#FF7F0E;stroke-width:7.932800e-02;stroke-linecap:square;stroke-linejoin:round;stroke-miterlimit:10;}
	
		.st179{opacity:0.5;clip-path:url(#SVGID_274_);fill:none;stroke:#FF7F0E;stroke-width:7.932800e-02;stroke-linecap:square;stroke-linejoin:round;stroke-miterlimit:10;}
	
		.st180{opacity:0.5;clip-path:url(#SVGID_276_);fill:none;stroke:#FF7F0E;stroke-width:7.932800e-02;stroke-linecap:square;stroke-linejoin:round;stroke-miterlimit:10;}
	
		.st181{opacity:0.5;clip-path:url(#SVGID_278_);fill:none;stroke:#FF7F0E;stroke-width:7.932800e-02;stroke-linecap:square;stroke-linejoin:round;stroke-miterlimit:10;}
	
		.st182{opacity:0.5;clip-path:url(#SVGID_280_);fill:none;stroke:#FF7F0E;stroke-width:7.932800e-02;stroke-linecap:square;stroke-linejoin:round;stroke-miterlimit:10;}
	
		.st183{opacity:0.5;clip-path:url(#SVGID_282_);fill:none;stroke:#FF7F0E;stroke-width:7.932800e-02;stroke-linecap:square;stroke-linejoin:round;stroke-miterlimit:10;}
	
		.st184{opacity:0.5;clip-path:url(#SVGID_284_);fill:none;stroke:#FF7F0E;stroke-width:7.932800e-02;stroke-linecap:square;stroke-linejoin:round;stroke-miterlimit:10;}
	
		.st185{opacity:0.5;clip-path:url(#SVGID_286_);fill:none;stroke:#2CA02C;stroke-width:7.932800e-02;stroke-linecap:square;stroke-linejoin:round;stroke-miterlimit:10;}
	
		.st186{opacity:0.5;clip-path:url(#SVGID_288_);fill:none;stroke:#2CA02C;stroke-width:7.932800e-02;stroke-linecap:square;stroke-linejoin:round;stroke-miterlimit:10;}
	
		.st187{opacity:0.5;clip-path:url(#SVGID_290_);fill:none;stroke:#2CA02C;stroke-width:7.932800e-02;stroke-linecap:square;stroke-linejoin:round;stroke-miterlimit:10;}
	
		.st188{opacity:0.5;clip-path:url(#SVGID_292_);fill:none;stroke:#2CA02C;stroke-width:7.932800e-02;stroke-linecap:square;stroke-linejoin:round;stroke-miterlimit:10;}
	
		.st189{opacity:0.5;clip-path:url(#SVGID_294_);fill:none;stroke:#2CA02C;stroke-width:7.932800e-02;stroke-linecap:square;stroke-linejoin:round;stroke-miterlimit:10;}
	
		.st190{opacity:0.5;clip-path:url(#SVGID_296_);fill:none;stroke:#2CA02C;stroke-width:7.932800e-02;stroke-linecap:square;stroke-linejoin:round;stroke-miterlimit:10;}
	
		.st191{opacity:0.5;clip-path:url(#SVGID_298_);fill:none;stroke:#2CA02C;stroke-width:7.932800e-02;stroke-linecap:square;stroke-linejoin:round;stroke-miterlimit:10;}
	
		.st192{opacity:0.5;clip-path:url(#SVGID_300_);fill:none;stroke:#2CA02C;stroke-width:7.932800e-02;stroke-linecap:square;stroke-linejoin:round;stroke-miterlimit:10;}
	
		.st193{opacity:0.5;clip-path:url(#SVGID_302_);fill:none;stroke:#2CA02C;stroke-width:7.932800e-02;stroke-linecap:square;stroke-linejoin:round;stroke-miterlimit:10;}
	
		.st194{opacity:0.5;clip-path:url(#SVGID_304_);fill:none;stroke:#2CA02C;stroke-width:7.932800e-02;stroke-linecap:square;stroke-linejoin:round;stroke-miterlimit:10;}
	.st195{clip-path:url(#SVGID_264_);}
	.st196{clip-path:url(#SVGID_306_);fill:none;stroke:#1F77B4;stroke-width:0.3966;stroke-miterlimit:10;}
	.st197{opacity:0.5;clip-path:url(#SVGID_308_);fill:#1F77B4;}
	.st198{clip-path:url(#SVGID_310_);fill:none;stroke:#FF7F0E;stroke-width:0.3966;stroke-miterlimit:10;}
	.st199{opacity:0.5;clip-path:url(#SVGID_312_);fill:#FF7F0E;}
	.st200{clip-path:url(#SVGID_314_);fill:none;stroke:#2CA02C;stroke-width:0.3966;stroke-miterlimit:10;}
	.st201{opacity:0.5;clip-path:url(#SVGID_316_);fill:#2CA02C;}
	.st202{fill:none;stroke:#000000;stroke-width:0.3173;stroke-linejoin:round;stroke-miterlimit:10;}
	.st203{font-size:3.9664px;}
	.st204{clip-path:url(#SVGID_318_);}
	
		.st205{clip-path:url(#SVGID_320_);fill:none;stroke:#FFFFFF;stroke-width:1.1899;stroke-linecap:round;stroke-linejoin:round;stroke-miterlimit:10;}
	
		.st206{clip-path:url(#SVGID_320_);fill:none;stroke:#1F77B4;stroke-width:0.3966;stroke-linecap:round;stroke-linejoin:round;stroke-miterlimit:10;}
	.st207{clip-path:url(#SVGID_320_);fill:#FFFFFF;}
	
		.st208{clip-path:url(#SVGID_322_);fill:none;stroke:#FFFFFF;stroke-width:1.1899;stroke-linecap:round;stroke-linejoin:round;stroke-miterlimit:10;}
	
		.st209{clip-path:url(#SVGID_322_);fill:none;stroke:#1F77B4;stroke-width:0.3966;stroke-linecap:round;stroke-linejoin:round;stroke-miterlimit:10;}
	.st210{clip-path:url(#SVGID_322_);fill:#FFFFFF;}
	.st211{clip-path:url(#SVGID_318_);enable-background:new    ;}
	.st212{opacity:0.5;clip-path:url(#SVGID_324_);fill:#FF7F0E;}
	.st213{opacity:0.5;clip-path:url(#SVGID_324_);fill:none;stroke:#FF7F0E;stroke-width:0.3966;stroke-miterlimit:10;}
	.st214{opacity:0.5;clip-path:url(#SVGID_326_);fill:#FF7F0E;}
	.st215{opacity:0.5;clip-path:url(#SVGID_326_);fill:none;stroke:#FF7F0E;stroke-width:0.3966;stroke-miterlimit:10;}
	.st216{opacity:0.5;clip-path:url(#SVGID_328_);fill:#FF7F0E;}
	.st217{opacity:0.5;clip-path:url(#SVGID_328_);fill:none;stroke:#FF7F0E;stroke-width:0.3966;stroke-miterlimit:10;}
	.st218{opacity:0.5;clip-path:url(#SVGID_330_);fill:#FF7F0E;}
	.st219{opacity:0.5;clip-path:url(#SVGID_330_);fill:none;stroke:#FF7F0E;stroke-width:0.3966;stroke-miterlimit:10;}
	.st220{opacity:0.5;clip-path:url(#SVGID_332_);fill:#FF7F0E;}
	.st221{opacity:0.5;clip-path:url(#SVGID_332_);fill:none;stroke:#FF7F0E;stroke-width:0.3966;stroke-miterlimit:10;}
	.st222{opacity:0.5;clip-path:url(#SVGID_334_);fill:#FF7F0E;}
	.st223{opacity:0.5;clip-path:url(#SVGID_334_);fill:none;stroke:#FF7F0E;stroke-width:0.3966;stroke-miterlimit:10;}
	.st224{opacity:0.5;clip-path:url(#SVGID_336_);fill:#FF7F0E;}
	.st225{opacity:0.5;clip-path:url(#SVGID_336_);fill:none;stroke:#FF7F0E;stroke-width:0.3966;stroke-miterlimit:10;}
	.st226{opacity:0.5;clip-path:url(#SVGID_338_);fill:#FF7F0E;}
	.st227{opacity:0.5;clip-path:url(#SVGID_338_);fill:none;stroke:#FF7F0E;stroke-width:0.3966;stroke-miterlimit:10;}
	.st228{opacity:0.5;clip-path:url(#SVGID_340_);fill:#FF7F0E;}
	.st229{opacity:0.5;clip-path:url(#SVGID_340_);fill:none;stroke:#FF7F0E;stroke-width:0.3966;stroke-miterlimit:10;}
	.st230{opacity:0.5;clip-path:url(#SVGID_342_);fill:#FF7F0E;}
	.st231{opacity:0.5;clip-path:url(#SVGID_342_);fill:none;stroke:#FF7F0E;stroke-width:0.3966;stroke-miterlimit:10;}
	.st232{opacity:0.5;clip-path:url(#SVGID_344_);fill:#2CA02C;}
	.st233{opacity:0.5;clip-path:url(#SVGID_344_);fill:none;stroke:#2CA02C;stroke-width:0.3966;stroke-miterlimit:10;}
	.st234{opacity:0.5;clip-path:url(#SVGID_346_);fill:#2CA02C;}
	.st235{opacity:0.5;clip-path:url(#SVGID_346_);fill:none;stroke:#2CA02C;stroke-width:0.3966;stroke-miterlimit:10;}
	.st236{opacity:0.5;clip-path:url(#SVGID_348_);fill:#2CA02C;}
	.st237{opacity:0.5;clip-path:url(#SVGID_348_);fill:none;stroke:#2CA02C;stroke-width:0.3966;stroke-miterlimit:10;}
	.st238{opacity:0.5;clip-path:url(#SVGID_350_);fill:#2CA02C;}
	.st239{opacity:0.5;clip-path:url(#SVGID_350_);fill:none;stroke:#2CA02C;stroke-width:0.3966;stroke-miterlimit:10;}
	.st240{opacity:0.5;clip-path:url(#SVGID_352_);fill:#2CA02C;}
	.st241{opacity:0.5;clip-path:url(#SVGID_352_);fill:none;stroke:#2CA02C;stroke-width:0.3966;stroke-miterlimit:10;}
	.st242{opacity:0.5;clip-path:url(#SVGID_354_);fill:#2CA02C;}
	.st243{opacity:0.5;clip-path:url(#SVGID_354_);fill:none;stroke:#2CA02C;stroke-width:0.3966;stroke-miterlimit:10;}
	.st244{opacity:0.5;clip-path:url(#SVGID_356_);fill:#2CA02C;}
	.st245{opacity:0.5;clip-path:url(#SVGID_356_);fill:none;stroke:#2CA02C;stroke-width:0.3966;stroke-miterlimit:10;}
	.st246{opacity:0.5;clip-path:url(#SVGID_358_);fill:#2CA02C;}
	.st247{opacity:0.5;clip-path:url(#SVGID_358_);fill:none;stroke:#2CA02C;stroke-width:0.3966;stroke-miterlimit:10;}
	.st248{opacity:0.5;clip-path:url(#SVGID_360_);fill:#2CA02C;}
	.st249{opacity:0.5;clip-path:url(#SVGID_360_);fill:none;stroke:#2CA02C;stroke-width:0.3966;stroke-miterlimit:10;}
	.st250{opacity:0.5;clip-path:url(#SVGID_362_);fill:#2CA02C;}
	.st251{opacity:0.5;clip-path:url(#SVGID_362_);fill:none;stroke:#2CA02C;stroke-width:0.3966;stroke-miterlimit:10;}
	.st252{fill:none;stroke:#000000;stroke-width:0.3173;stroke-linecap:square;stroke-miterlimit:10;}
	.st253{fill:none;stroke:#000000;stroke-width:2.3228;}
	.st254{clip-path:url(#SVGID_364_);enable-background:new    ;}
	
		.st255{opacity:0.5;clip-path:url(#SVGID_366_);fill:none;stroke:#FF7F0E;stroke-width:8.234100e-02;stroke-linecap:square;stroke-linejoin:round;}
	
		.st256{opacity:0.5;clip-path:url(#SVGID_368_);fill:none;stroke:#FF7F0E;stroke-width:8.234100e-02;stroke-linecap:square;stroke-linejoin:round;}
	
		.st257{opacity:0.5;clip-path:url(#SVGID_370_);fill:none;stroke:#FF7F0E;stroke-width:8.234100e-02;stroke-linecap:square;stroke-linejoin:round;}
	
		.st258{opacity:0.5;clip-path:url(#SVGID_372_);fill:none;stroke:#FF7F0E;stroke-width:8.234100e-02;stroke-linecap:square;stroke-linejoin:round;}
	
		.st259{opacity:0.5;clip-path:url(#SVGID_374_);fill:none;stroke:#FF7F0E;stroke-width:8.234100e-02;stroke-linecap:square;stroke-linejoin:round;}
	
		.st260{opacity:0.5;clip-path:url(#SVGID_376_);fill:none;stroke:#FF7F0E;stroke-width:8.234100e-02;stroke-linecap:square;stroke-linejoin:round;}
	
		.st261{opacity:0.5;clip-path:url(#SVGID_378_);fill:none;stroke:#FF7F0E;stroke-width:8.234100e-02;stroke-linecap:square;stroke-linejoin:round;}
	
		.st262{opacity:0.5;clip-path:url(#SVGID_380_);fill:none;stroke:#FF7F0E;stroke-width:8.234100e-02;stroke-linecap:square;stroke-linejoin:round;}
	
		.st263{opacity:0.5;clip-path:url(#SVGID_382_);fill:none;stroke:#FF7F0E;stroke-width:8.234100e-02;stroke-linecap:square;stroke-linejoin:round;}
	
		.st264{opacity:0.5;clip-path:url(#SVGID_384_);fill:none;stroke:#FF7F0E;stroke-width:8.234100e-02;stroke-linecap:square;stroke-linejoin:round;}
	
		.st265{opacity:0.5;clip-path:url(#SVGID_386_);fill:none;stroke:#2CA02C;stroke-width:8.234100e-02;stroke-linecap:square;stroke-linejoin:round;}
	
		.st266{opacity:0.5;clip-path:url(#SVGID_388_);fill:none;stroke:#2CA02C;stroke-width:8.234100e-02;stroke-linecap:square;stroke-linejoin:round;}
	
		.st267{opacity:0.5;clip-path:url(#SVGID_390_);fill:none;stroke:#2CA02C;stroke-width:8.234100e-02;stroke-linecap:square;stroke-linejoin:round;}
	
		.st268{opacity:0.5;clip-path:url(#SVGID_392_);fill:none;stroke:#2CA02C;stroke-width:8.234100e-02;stroke-linecap:square;stroke-linejoin:round;}
	
		.st269{opacity:0.5;clip-path:url(#SVGID_394_);fill:none;stroke:#2CA02C;stroke-width:8.234100e-02;stroke-linecap:square;stroke-linejoin:round;}
	
		.st270{opacity:0.5;clip-path:url(#SVGID_396_);fill:none;stroke:#2CA02C;stroke-width:8.234100e-02;stroke-linecap:square;stroke-linejoin:round;}
	
		.st271{opacity:0.5;clip-path:url(#SVGID_398_);fill:none;stroke:#2CA02C;stroke-width:8.234100e-02;stroke-linecap:square;stroke-linejoin:round;}
	
		.st272{opacity:0.5;clip-path:url(#SVGID_400_);fill:none;stroke:#2CA02C;stroke-width:8.234100e-02;stroke-linecap:square;stroke-linejoin:round;}
	
		.st273{opacity:0.5;clip-path:url(#SVGID_402_);fill:none;stroke:#2CA02C;stroke-width:8.234100e-02;stroke-linecap:square;stroke-linejoin:round;}
	
		.st274{opacity:0.5;clip-path:url(#SVGID_404_);fill:none;stroke:#2CA02C;stroke-width:8.234100e-02;stroke-linecap:square;stroke-linejoin:round;}
	.st275{clip-path:url(#SVGID_364_);}
	.st276{clip-path:url(#SVGID_406_);fill:none;stroke:#1F77B4;stroke-width:0.4117;}
	.st277{opacity:0.5;clip-path:url(#SVGID_408_);fill:#1F77B4;}
	.st278{clip-path:url(#SVGID_410_);fill:none;stroke:#FF7F0E;stroke-width:0.4117;}
	.st279{opacity:0.5;clip-path:url(#SVGID_412_);fill:#FF7F0E;}
	.st280{clip-path:url(#SVGID_414_);fill:none;stroke:#2CA02C;stroke-width:0.4117;}
	.st281{opacity:0.5;clip-path:url(#SVGID_416_);fill:#2CA02C;}
	.st282{fill:none;stroke:#000000;stroke-width:0.3294;stroke-linejoin:round;}
	.st283{clip-path:url(#SVGID_418_);}
	.st284{clip-path:url(#SVGID_420_);fill:none;stroke:#FFFFFF;stroke-width:1.2351;stroke-linecap:round;stroke-linejoin:round;}
	.st285{clip-path:url(#SVGID_422_);fill:none;stroke:#1F77B4;stroke-width:0.4117;stroke-linecap:round;stroke-linejoin:round;}
	.st286{clip-path:url(#SVGID_424_);fill:#FFFFFF;}
	.st287{clip-path:url(#SVGID_424_);fill:none;stroke:#FFFFFF;stroke-width:1.2351;stroke-linecap:round;stroke-linejoin:round;}
	.st288{clip-path:url(#SVGID_426_);fill:#FFFFFF;}
	.st289{clip-path:url(#SVGID_426_);fill:none;stroke:#1F77B4;stroke-width:0.4117;stroke-linecap:round;stroke-linejoin:round;}
	.st290{clip-path:url(#SVGID_418_);enable-background:new    ;}
	.st291{opacity:0.5;clip-path:url(#SVGID_428_);fill:#FF7F0E;}
	.st292{opacity:0.5;clip-path:url(#SVGID_428_);fill:none;stroke:#FF7F0E;stroke-width:0.4117;}
	.st293{opacity:0.5;clip-path:url(#SVGID_430_);fill:#FF7F0E;}
	.st294{opacity:0.5;clip-path:url(#SVGID_430_);fill:none;stroke:#FF7F0E;stroke-width:0.4117;}
	.st295{opacity:0.5;clip-path:url(#SVGID_432_);fill:#FF7F0E;}
	.st296{opacity:0.5;clip-path:url(#SVGID_432_);fill:none;stroke:#FF7F0E;stroke-width:0.4117;}
	.st297{opacity:0.5;clip-path:url(#SVGID_434_);fill:#FF7F0E;}
	.st298{opacity:0.5;clip-path:url(#SVGID_434_);fill:none;stroke:#FF7F0E;stroke-width:0.4117;}
	.st299{opacity:0.5;clip-path:url(#SVGID_436_);fill:#FF7F0E;}
	.st300{opacity:0.5;clip-path:url(#SVGID_436_);fill:none;stroke:#FF7F0E;stroke-width:0.4117;}
	.st301{opacity:0.5;clip-path:url(#SVGID_438_);fill:#FF7F0E;}
	.st302{opacity:0.5;clip-path:url(#SVGID_438_);fill:none;stroke:#FF7F0E;stroke-width:0.4117;}
	.st303{opacity:0.5;clip-path:url(#SVGID_440_);fill:#FF7F0E;}
	.st304{opacity:0.5;clip-path:url(#SVGID_440_);fill:none;stroke:#FF7F0E;stroke-width:0.4117;}
	.st305{opacity:0.5;clip-path:url(#SVGID_442_);fill:#FF7F0E;}
	.st306{opacity:0.5;clip-path:url(#SVGID_442_);fill:none;stroke:#FF7F0E;stroke-width:0.4117;}
	.st307{opacity:0.5;clip-path:url(#SVGID_444_);fill:#FF7F0E;}
	.st308{opacity:0.5;clip-path:url(#SVGID_444_);fill:none;stroke:#FF7F0E;stroke-width:0.4117;}
	.st309{opacity:0.5;clip-path:url(#SVGID_446_);fill:#FF7F0E;}
	.st310{opacity:0.5;clip-path:url(#SVGID_446_);fill:none;stroke:#FF7F0E;stroke-width:0.4117;}
	.st311{opacity:0.5;clip-path:url(#SVGID_448_);fill:#2CA02C;}
	.st312{opacity:0.5;clip-path:url(#SVGID_448_);fill:none;stroke:#2CA02C;stroke-width:0.4117;}
	.st313{opacity:0.5;clip-path:url(#SVGID_450_);fill:#2CA02C;}
	.st314{opacity:0.5;clip-path:url(#SVGID_450_);fill:none;stroke:#2CA02C;stroke-width:0.4117;}
	.st315{opacity:0.5;clip-path:url(#SVGID_452_);fill:#2CA02C;}
	.st316{opacity:0.5;clip-path:url(#SVGID_452_);fill:none;stroke:#2CA02C;stroke-width:0.4117;}
	.st317{opacity:0.5;clip-path:url(#SVGID_454_);fill:#2CA02C;}
	.st318{opacity:0.5;clip-path:url(#SVGID_454_);fill:none;stroke:#2CA02C;stroke-width:0.4117;}
	.st319{opacity:0.5;clip-path:url(#SVGID_456_);fill:#2CA02C;}
	.st320{opacity:0.5;clip-path:url(#SVGID_456_);fill:none;stroke:#2CA02C;stroke-width:0.4117;}
	.st321{opacity:0.5;clip-path:url(#SVGID_458_);fill:#2CA02C;}
	.st322{opacity:0.5;clip-path:url(#SVGID_458_);fill:none;stroke:#2CA02C;stroke-width:0.4117;}
	.st323{opacity:0.5;clip-path:url(#SVGID_460_);fill:#2CA02C;}
	.st324{opacity:0.5;clip-path:url(#SVGID_460_);fill:none;stroke:#2CA02C;stroke-width:0.4117;}
	.st325{opacity:0.5;clip-path:url(#SVGID_462_);fill:#2CA02C;}
	.st326{opacity:0.5;clip-path:url(#SVGID_462_);fill:none;stroke:#2CA02C;stroke-width:0.4117;}
	.st327{opacity:0.5;clip-path:url(#SVGID_464_);fill:#2CA02C;}
	.st328{opacity:0.5;clip-path:url(#SVGID_464_);fill:none;stroke:#2CA02C;stroke-width:0.4117;}
	.st329{opacity:0.5;clip-path:url(#SVGID_466_);fill:#2CA02C;}
	.st330{opacity:0.5;clip-path:url(#SVGID_466_);fill:none;stroke:#2CA02C;stroke-width:0.4117;}
	.st331{fill:none;stroke:#000000;stroke-width:0.3294;stroke-linecap:square;}
	.st332{fill:none;stroke:#000000;stroke-width:3.1438;stroke-miterlimit:10;}
</style>
<g
   id="Layer_2">
</g>

<g
   id="Layer_1">
	<g
   id="Слой_8_2_">
	</g>
	<g
   id="Слой_16_2_">
	</g>
	<g
   id="Time_scale_2_">
	</g>
	<g
   id="Now_line_2_">
	</g>
	<g
   id="Слой_10_2_">
	</g>
	<g
   id="Слой_9_2_">
	</g>
	
	
	
	
	
	<g
   id="g59">
		<g
   id="g20">
			<g
   id="g19">
				<path
   class="st5"
   d="M824.9,268c0.9,3.4,1.3,6.9,1.4,10.4c0,1.4,3.8,1.4,3.8,0c-0.1-3.7-0.6-7.3-1.5-11      C828.2,266,824.5,266.5,824.9,268L824.9,268z"
   id="path18" />
			</g>
		</g>
		<g
   id="g22">
			<g
   id="g21">
				<path
   class="st5"
   d="M833.3,266.1c1.5,5.1,3.2,10.4,4.7,15.5c0.4,1.4,4.1,0.8,3.7-0.6c-1.5-5.1-3.2-10.4-4.7-15.5      C836.5,264.1,832.8,264.7,833.3,266.1L833.3,266.1z"
   id="path20" />
			</g>
		</g>
		<g
   id="g24">
			<g
   id="g23">
				<path
   class="st5"
   d="M902.7,269.3c0.1,4.3,0.4,8.5,0.9,12.8c0.1,1.4,3.9,1.4,3.8,0c-0.5-4.3-0.9-8.5-0.9-12.8      C906.5,267.8,902.7,267.8,902.7,269.3L902.7,269.3z"
   id="path22" />
			</g>
		</g>
		<g
   id="g26">
			<g
   id="g25">
				<path
   class="st5"
   d="M930.3,269.5c0.9,4.6,1.5,9.2,3.1,13.7c0.5,1.4,4.2,0.8,3.7-0.6c-1.4-4.3-2-8.7-2.9-13.1      C933.9,268.1,930,268.1,930.3,269.5L930.3,269.5z"
   id="path24" />
			</g>
		</g>
		<g
   id="g28">
			<g
   id="g27">
				<path
   class="st5"
   d="M1005.9,263.5c0,3.7,0.8,7.2,2.3,10.7c0.6,1.4,4.3,0.8,3.7-0.6c-1.4-3.4-2.2-6.7-2.2-10.1      C1009.6,262,1005.8,262,1005.9,263.5L1005.9,263.5z"
   id="path26" />
			</g>
		</g>
		<g
   id="g30">
			<g
   id="g29">
				<path
   class="st6"
   d="M851.5,265.1c1.5,5.8,2.9,11.7,3.9,17.6c0.3,1.4,4.1,1.4,3.8,0c-1.1-6.1-2.4-12.2-4.1-18.2      C854.7,263.1,851.1,263.7,851.5,265.1L851.5,265.1z"
   id="path28" />
			</g>
		</g>
		<g
   id="g32">
			<g
   id="g31">
				<path
   class="st6"
   d="M916.3,268.8c0.6,3.2,1.4,6.4,2,9.6c0.4,2.1,0,5.1,1.9,6.9c0.6,0.6,2.2,0.8,3.1,0.2c0-0.1,0.1-0.1,0.1-0.1      c0.6-0.4,0.9-1.2,0-1.6l-0.1-0.1c-1.9-1-4.6,0.7-2.7,1.6l0.1,0.1c0-0.5,0-1,0-1.6c0,0.1-0.1,0.1-0.1,0.1c1,0.1,2,0.1,3.1,0.2      c-1.8-1.7-1.4-5.7-1.8-7.6c-0.5-2.6-1.1-5.2-1.7-7.8C919.7,267.4,915.9,267.4,916.3,268.8L916.3,268.8z"
   id="path30" />
			</g>
		</g>
		<g
   id="g34">
			<g
   id="g33">
				<path
   class="st6"
   d="M967.3,267.4c-0.1,3.2,0,6.3,0.5,9.6c0.3,1.4,4.1,1.4,3.8,0c-0.5-3.2-0.6-6.3-0.5-9.6      C971.2,266,967.4,266,967.3,267.4L967.3,267.4z"
   id="path32" />
			</g>
		</g>
		<g
   id="g36">
			<g
   id="g35">
				<path
   class="st7"
   d="M841.7,265.7c3.1,5.9,5.7,11.9,7.8,17.8c0.5,1.4,4.2,0.8,3.7-0.6c-2-6-4.7-12-7.8-17.8      C844.6,263.7,840.9,264.3,841.7,265.7L841.7,265.7z"
   id="path34" />
			</g>
		</g>
		<g
   id="g38">
			<g
   id="g37">
				<path
   class="st7"
   d="M892.7,271.2c1.3,3.1,2.3,6.2,3.3,9.3c0.4,1.4,4.1,0.8,3.7-0.6c-0.9-3.1-2-6.3-3.3-9.3      C895.7,269.2,892,269.8,892.7,271.2L892.7,271.2z"
   id="path36" />
			</g>
		</g>
		<g
   id="g40">
			<g
   id="g39">
				<path
   class="st7"
   d="M984.3,262.6c1,5.4,2.2,10.7,3.2,16c0.3,1.4,4.1,1.4,3.8,0c-1-5.4-2.2-10.7-3.2-16      C987.9,261.2,984.1,261.1,984.3,262.6L984.3,262.6z"
   id="path38" />
			</g>
		</g>
		<g
   id="g42">
			<g
   id="g41">
				<path
   class="st7"
   d="M1015,264.6c0.5,2.2,1,4.3,1.8,6.3c0.5,1.4,4.2,0.8,3.7-0.6c-0.6-1.9-1.3-3.8-1.7-5.7      C1018.5,263.2,1014.7,263.2,1015,264.6L1015,264.6z"
   id="path40" />
			</g>
		</g>
		<g
   id="g44">
			<g
   id="g43">
				<path
   class="st8"
   d="M861.4,270.7c1.3,3.1,2.4,6,3.7,9.1c0.5,1.4,4.2,0.8,3.7-0.6c-1.3-3.1-2.4-6-3.7-9.1      C864.4,268.7,860.8,269.3,861.4,270.7L861.4,270.7z"
   id="path42" />
			</g>
		</g>
		<g
   id="g46">
			<g
   id="g45">
				<path
   class="st8"
   d="M869.3,273.6c0.8,1,1.4,1.9,2.2,2.9c0.6,0.8,1,1.8,2.4,2.2c0.6,0.2,1.4,0.2,1.9,0c0.6-0.2,1-0.4,1.1-0.9      c0.1-0.5-0.1-1-0.9-1.3l-0.1-0.1c-2-0.7-3.9,1.2-1.9,1.9l0.1,0.1c-0.3-0.4-0.6-0.8-0.9-1.3c0,0.1,0,0.1,0,0.1      c0.3-0.2,0.6-0.4,0.9-0.7c-0.1,0-0.1,0.1-0.3,0.1c0.6,0,1.3,0,1.9,0c0.3,0.1,0.3,0.1-0.1-0.3c-0.1-0.2-0.4-0.4-0.5-0.7      c-0.3-0.4-0.5-0.7-0.8-1c-0.6-0.8-1.1-1.6-1.8-2.4C871.6,271.1,868.3,272.3,869.3,273.6L869.3,273.6z"
   id="path44" />
			</g>
		</g>
		<g
   id="g48">
			<g
   id="g47">
				<path
   class="st8"
   d="M908.9,269.5c2,4.8,0.5,9.7,2.7,14.5c0.6,1.4,4.3,0.8,3.7-0.6c-2.3-4.7-0.6-9.7-2.7-14.5      C912.1,267.6,908.4,268.2,908.9,269.5L908.9,269.5z"
   id="path46" />
			</g>
		</g>
		<g
   id="g50">
			<g
   id="g49">
				<path
   class="st8"
   d="M939.7,271.2c0.9,2.8,1.8,5.6,2.7,8.4c0.4,1.4,4.1,0.8,3.7-0.6c-0.9-2.8-1.8-5.6-2.7-8.4      C942.9,269.2,939.2,269.8,939.7,271.2L939.7,271.2z"
   id="path48" />
			</g>
		</g>
		<g
   id="g52">
			<g
   id="g51">
				<path
   class="st8"
   d="M975.9,264.5c0.4,4.4-0.5,9.7,2,14c0.8,1.3,4.4,0.7,3.7-0.6c-2.4-4-1.5-9.1-1.9-13.4      C979.6,263,975.8,263,975.9,264.5L975.9,264.5z"
   id="path50" />
			</g>
		</g>
		<g
   id="g54">
			<g
   id="g53">
				<path
   class="st8"
   d="M994.8,262.7c0.8,4.7,2,9.4,3.9,14c0.6,1.4,4.2,0.8,3.7-0.6c-1.8-4.4-3.1-8.9-3.8-13.4      C998.3,261.3,994.5,261.3,994.8,262.7L994.8,262.7z"
   id="path52" />
			</g>
		</g>
		<g
   id="g56">
			<g
   id="g55">
				<path
   d="M809.9,279.7c4.6-4.1,9.3-8.3,16-11.3c9.5-4.3,20.5-3.7,31-0.7c16.1,4.6,28.7,12.8,45.3,16.9c12.8,3.2,29,4.3,40.8-0.9      c5.5-2.4,9.2-5.7,13-9c5.8-5.1,12.2-8.7,22.4-10.5c20.7-3.7,44.1-0.7,60.8,7.3c1.9,0.9,4.6-0.7,2.7-1.6      c-13.5-6.4-30.5-9.9-47.9-9.5c-8.5,0.2-17.4,1.3-25,3.7c-7.4,2.3-12.1,6-16.7,9.9c-5.7,5-11.8,9.5-22.4,10.7      c-10.2,1.2-21-0.5-30-3.2c-17.4-5.3-31.4-15.2-50.9-18c-19.8-2.9-32.7,6.3-42.3,15C805.3,279.8,808.6,280.9,809.9,279.7      L809.9,279.7z"
   id="path54" />
			</g>
		</g>
		<g
   id="g58">
			<g
   id="g57">
				<path
   d="M806.7,263.6c7.5,9.1,16.5,19.3,34.5,22.1c18.4,2.9,29.1-5.8,42.8-11.1c15.9-6.1,36.4-7.7,54.4-4.6      c9.7,1.7,17.4,5.2,26.1,8c8.1,2.5,16.7,3.6,25.8,2.9c21.1-1.7,36.2-11.2,49.8-19.9c1.7-1-1-2.7-2.7-1.6      c-15.6,10.1-37.4,23.4-63.4,18.7c-10.8-2-19.5-6.9-30-9.3c-8.8-1.9-18.3-2.8-27.7-2.5c-8.9,0.2-17.8,1.5-25.9,3.7      c-9.7,2.6-16.7,6.9-25,10.4c-11.4,4.9-24.5,4.5-35.6-0.7c-9.3-4.4-14.6-11-19.7-17.2C809,261.2,805.7,262.3,806.7,263.6      L806.7,263.6z"
   id="path56" />
			</g>
		</g>
	</g>
	<g
   id="g126">
		<g
   id="g61">
			<g
   id="g60">
				<path
   class="st7"
   d="M825.8,143.4c-0.4,2.3,0.6,4.5,1.3,6.7c0.8,2.8,1.1,5.7,1.4,8.6c0.1,1.4,3.9,1.4,3.8,0      c-0.1-2.3-0.4-4.6-0.9-6.9c-0.6-2.8-2.2-5.5-1.7-8.3C829.9,142,826.1,142,825.8,143.4L825.8,143.4z"
   id="path59" />
			</g>
		</g>
		<g
   id="g63">
			<g
   id="g62">
				<path
   class="st7"
   d="M884.8,143.6c-1,4.5,1.3,9.7,2.2,14.2c0.3,1.4,4.1,1.4,3.8,0c-0.4-2.2-0.9-4.6-1.3-6.8      c-0.4-2.2-1.5-4.6-1-6.8C888.9,142.8,885.2,142.2,884.8,143.6L884.8,143.6z"
   id="path61" />
			</g>
		</g>
		<g
   id="g65">
			<g
   id="g64">
				<path
   class="st7"
   d="M891.3,142.7c1.8,5.1,3.2,10.2,4.3,15.4c0.3,1.4,4.1,1.4,3.8,0c-1-5.4-2.5-10.7-4.4-16      C894.5,140.7,890.8,141.3,891.3,142.7L891.3,142.7z"
   id="path63" />
			</g>
		</g>
		<g
   id="g67">
			<g
   id="g66">
				<path
   class="st7"
   d="M956.7,141.4c-0.1,4.7-0.3,9.4-0.1,14.2c0,1.4,3.8,1.4,3.8,0c-0.1-4.7-0.1-9.4,0.1-14.2      C960.5,139.9,956.7,139.9,956.7,141.4L956.7,141.4z"
   id="path65" />
			</g>
		</g>
		<g
   id="g69">
			<g
   id="g68">
				<path
   class="st7"
   d="M986.7,147.7c0,2.4,0,4.7,0,7.1c0,1.4,3.8,1.4,3.8,0c0-2.4,0-4.7,0-7.1      C990.5,146.2,986.7,146.2,986.7,147.7L986.7,147.7z"
   id="path67" />
			</g>
		</g>
		<g
   id="g71">
			<g
   id="g70">
				<path
   class="st6"
   d="M818.2,145.3c2.7,4.4,4.3,9,4.8,13.6c0.1,1.4,3.9,1.4,3.8,0c-0.5-4.9-2.2-9.6-5-14.2      C821,143.3,817.3,143.9,818.2,145.3L818.2,145.3z"
   id="path69" />
			</g>
		</g>
		<g
   id="g73">
			<g
   id="g72">
				<path
   class="st6"
   d="M911.1,143.6c1.9,3.7,3.1,7.4,3.6,11.2c0.3,1.4,4.1,1.4,3.8,0c-0.5-4-1.8-7.9-3.7-11.8      C914.2,141.6,910.5,142.1,911.1,143.6L911.1,143.6z"
   id="path71" />
			</g>
		</g>
		<g
   id="g75">
			<g
   id="g74">
				<path
   class="st6"
   d="M916.5,144.8c1,2.2,2.2,4.3,3.7,6.3c1,1.3,4.2,0.1,3.3-1.1c-1.4-1.9-2.4-3.8-3.3-5.7      C919.5,142.8,915.8,143.4,916.5,144.8L916.5,144.8z"
   id="path73" />
			</g>
		</g>
		<g
   id="g77">
			<g
   id="g76">
				<path
   class="st6"
   d="M969.8,143.2c0.6,4.8,1.1,9.6,1.8,14.4c0.1,1.4,3.9,1.4,3.8,0c-0.6-4.8-1.1-9.6-1.8-14.4      C973.3,141.8,969.5,141.8,969.8,143.2L969.8,143.2z"
   id="path75" />
			</g>
		</g>
		<g
   id="g79">
			<g
   id="g78">
				<path
   class="st5"
   d="M834.7,143c0.6,5.5,0.6,11,0.3,16.5c-0.1,1.4,3.7,1.4,3.8,0c0.4-5.5,0.4-11-0.3-16.5      C838.3,141.5,834.5,141.5,834.7,143L834.7,143z"
   id="path77" />
			</g>
		</g>
		<g
   id="g81">
			<g
   id="g80">
				<path
   class="st5"
   d="M897.7,142.4c4.7,4.9,4.7,10.5,7,15.8c0.6,1.4,4.3,0.8,3.7-0.6c-2.3-5.5-2.4-11.3-7.4-16.3      C899.7,140,896.5,141.2,897.7,142.4L897.7,142.4z"
   id="path79" />
			</g>
		</g>
		<g
   id="g83">
			<g
   id="g82">
				<path
   class="st5"
   d="M964,141.1c0.9,5.6,1,11.1,0.3,16.7c-0.1,1.4,3.7,1.4,3.8,0c0.6-5.6,0.5-11.2-0.3-16.7      C967.7,139.7,963.9,139.7,964,141.1L964,141.1z"
   id="path81" />
			</g>
		</g>
		<g
   id="g85">
			<g
   id="g84">
				<path
   class="st5"
   d="M993.1,148.4c-0.4,1.3-0.5,2.6-0.3,4c0.3,1.4,4.1,1.4,3.8,0c-0.1-1.1-0.1-2.2,0.1-3.4      c0.1-0.6-0.3-1.2-1.3-1.3C994.5,147.4,993.3,147.8,993.1,148.4L993.1,148.4z"
   id="path83" />
			</g>
		</g>
		<g
   id="g87">
			<g
   id="g86">
				<path
   class="st8"
   d="M811.2,147.2c2.9,3,4.8,6.2,5.8,9.6c0.4,1.4,4.1,0.8,3.7-0.6c-1.1-3.6-3.2-7-6.2-10.1      C813.2,144.9,810.1,146,811.2,147.2L811.2,147.2z"
   id="path85" />
			</g>
		</g>
		<g
   id="g89">
			<g
   id="g88">
				<path
   class="st8"
   d="M848.2,148.5c0.9,2.2,1.5,4.3,2,6.5c0.4,1.4,4.2,1.4,3.8,0c-0.5-2.4-1.3-4.7-2.2-7.1      C851.4,146.5,847.7,147.1,848.2,148.5L848.2,148.5z"
   id="path87" />
			</g>
		</g>
		<g
   id="g91">
			<g
   id="g90">
				<path
   class="st8"
   d="M854.6,150.8c0.5,0.5,1,1,1.5,1.6c0.5,0.5,1.8,0.7,2.7,0.4c0.9-0.3,1.3-1,0.6-1.6c-0.5-0.5-1-1-1.5-1.6      c-0.5-0.5-1.8-0.7-2.7-0.4C854.4,149.6,854.1,150.3,854.6,150.8L854.6,150.8z"
   id="path89" />
			</g>
		</g>
		<g
   id="g93">
			<g
   id="g92">
				<path
   class="st8"
   d="M904.8,141.4c1.7,4.9,3.4,9.8,5.1,14.6c0.5,1.4,4.2,0.8,3.7-0.6c-1.7-4.9-3.4-9.8-5.1-14.6      C908,139.5,904.3,140,904.8,141.4L904.8,141.4z"
   id="path91" />
			</g>
		</g>
		<g
   id="g95">
			<g
   id="g94">
				<path
   class="st8"
   d="M976.9,143.8c1.5,4.2,2.8,8.4,3.6,12.5c0.3,1.4,4.1,1.4,3.8,0c-0.9-4.4-2.2-8.8-3.8-13.1      C980.1,141.8,976.4,142.4,976.9,143.8L976.9,143.8z"
   id="path93" />
			</g>
		</g>
		<g
   id="g97">
			<g
   id="g96">
				<path
   class="st8"
   d="M949,141.8c-0.5,3.9-0.4,7.7,0.4,11.6c0.3,1.4,4.1,1.4,3.8,0c-0.8-3.9-0.8-7.7-0.4-11.6      C953.1,140.4,949.3,140.4,949,141.8L949,141.8z"
   id="path95" />
			</g>
		</g>
		<g
   id="g99">
			<g
   id="g98">
				<path
   class="st8"
   d="M943.2,143.7c0,2.1,0.3,4.2,0.8,6.3c0.3,1.4,4.1,1.4,3.8,0c-0.5-2.1-0.8-4.2-0.8-6.3      C947,142.3,943.2,142.3,943.2,143.7L943.2,143.7z"
   id="path97" />
			</g>
		</g>
		<g
   id="g101">
			<g
   id="g100">
				<path
   class="st8"
   d="M880,146.3c-0.1,3.5,0.3,7,1,10.5c0.3,1.4,4.1,1.4,3.8,0c-0.8-3.5-1.1-6.9-1-10.5      C883.8,144.9,880,144.9,880,146.3L880,146.3z"
   id="path99" />
			</g>
		</g>
		<g
   id="g103">
			<g
   id="g102">
				<path
   class="st6"
   d="M841.6,145.6c0.1,4,0.4,7.8,0.5,11.8c0,1.4,3.8,1.4,3.8,0c-0.1-4-0.4-7.8-0.5-11.8      C845.3,144.2,841.5,144.1,841.6,145.6L841.6,145.6z"
   id="path101" />
			</g>
		</g>
		<g
   id="g105">
			<g
   id="g104">
				<path
   class="st5"
   d="M805.7,149.5c1.1,2.2,2.3,4.4,3.4,6.6c0.8,1.3,4.4,0.8,3.7-0.6c-1.1-2.2-2.3-4.4-3.4-6.6      C808.8,147.6,805.1,148.1,805.7,149.5L805.7,149.5z"
   id="path103" />
			</g>
		</g>
		<g
   id="g107">
			<g
   id="g106">
				<path
   class="st5"
   d="M873,150.3c-0.1,1.5,0,3,0.4,4.5c0.1,0.6,0.8,1.1,1.9,1.1c0.9,0,2-0.5,1.9-1.1c-0.4-1.5-0.5-3-0.4-4.5      C876.9,148.9,873.1,148.9,873,150.3L873,150.3z"
   id="path105" />
			</g>
		</g>
		<g
   id="g109">
			<g
   id="g108">
				<path
   class="st5"
   d="M936.1,146.1c0.8,0.9,1.5,1.7,2.3,2.6c1.1,1.3,4.4,0.1,3.3-1.1c-0.8-0.9-1.5-1.7-2.3-2.6      C938.2,143.7,934.9,144.8,936.1,146.1L936.1,146.1z"
   id="path107" />
			</g>
		</g>
		<g
   id="g111">
			<g
   id="g110">
				<path
   class="st5"
   d="M1014.5,147.1c0.5,1.6,1,3.1,1.5,4.7c0.5,1.4,4.1,0.8,3.7-0.6c-0.5-1.6-1-3.1-1.5-4.7      C1017.7,145.1,1014,145.7,1014.5,147.1L1014.5,147.1z"
   id="path109" />
			</g>
		</g>
		<g
   id="g113">
			<g
   id="g112">
				<path
   class="st5"
   d="M1032.3,140.3c0.8,3.8,1.9,7.5,3.2,11.3c0.5,1.4,4.2,0.8,3.7-0.6c-1.3-3.5-2.3-7.1-3.1-10.7      C1035.7,138.9,1031.9,138.9,1032.3,140.3L1032.3,140.3z"
   id="path111" />
			</g>
		</g>
		<g
   id="g115">
			<g
   id="g114">
				<path
   class="st6"
   d="M1010.4,150.9c0.3,0,0.5,0,0.8,0c1,0,1.9-0.5,1.9-1.1c0-0.6-0.9-1.1-1.9-1.1c-0.3,0-0.5,0-0.8,0      c-1,0-1.9,0.5-1.9,1.1C1008.5,150.3,1009.4,150.9,1010.4,150.9L1010.4,150.9z"
   id="path113" />
			</g>
		</g>
		<g
   id="g117">
			<g
   id="g116">
				<path
   class="st6"
   d="M1037.5,139.5c0.5,3.7,1.4,7.2,2.5,10.8c0.5,1.4,4.2,0.8,3.7-0.6c-1.1-3.4-2-6.8-2.4-10.2      C1041.1,138.1,1037.3,138.1,1037.5,139.5L1037.5,139.5z"
   id="path115" />
			</g>
		</g>
		<g
   id="g119">
			<g
   id="g118">
				<path
   class="st7"
   d="M1019.7,145.3c1.1,2.2,1.7,4.3,1.7,6.5c0,1.4,3.8,1.4,3.8,0c0-2.4-0.5-4.8-1.8-7.1      C1022.6,143.3,1019,143.9,1019.7,145.3L1019.7,145.3z"
   id="path117" />
			</g>
		</g>
		<g
   id="g121">
			<g
   id="g120">
				<path
   class="st8"
   d="M1025.6,143c2.3,3.4,0.4,7.2,3.1,10.5c1,1.3,4.3,0.1,3.3-1.1c-2.5-3.1-0.5-6.8-2.7-9.9      C1028.4,141.1,1024.7,141.7,1025.6,143L1025.6,143z"
   id="path119" />
			</g>
		</g>
		<g
   id="g123">
			<g
   id="g122">
				<path
   d="M802.9,155.6c1.9-5.1,7.9-9.1,16.4-10.9c9.4-1.9,18.8-0.6,27.6,1.9c16.4,4.6,30.5,12.7,49.3,13.7      c17.8,0.9,27.8-7.2,39.5-13.4c8.5-4.6,17.9-6.7,29.5-5.5c10.6,1.1,20.3,4.3,29.8,7.2c15.9,4.8,35.7,9.2,51.9,2.4      c1.9-0.8,0.1-2.8-1.9-1.9c-19.1,8.1-41.3-0.7-59.1-5.7c-16-4.5-33.4-6.9-48.6,0c-6.7,3.1-12.1,7-18.6,10.2      c-9.2,4.6-20,5.7-31.4,3.5c-19.1-3.6-33.6-13.4-53.8-15.2c-15.5-1.3-30.9,4.2-34.3,13.4C798.8,156.5,802.3,157.1,802.9,155.6      L802.9,155.6z"
   id="path121" />
			</g>
		</g>
		<g
   id="g125">
			<g
   id="g124">
				<path
   d="M800.5,159.2c7.1-4.1,19.5,1.7,27.7,2.2c6.4,0.4,12.6-0.4,18.3-2c14.2-3.7,25.6-10.4,39.2-14.7c7.4-2.3,15.6-4,24-3.1      c8.4,0.8,15.6,3.7,22.4,6.6c11.7,5,24.2,12,39.5,12.1c11.2,0.1,20.9-4,30-7.4c12.6-4.6,25.3-9.3,37.9-14c2-0.7,0.1-2.7-1.9-1.9      c-10.8,4-21.7,8-32.5,12c-9.9,3.7-21.1,9.1-33.3,9c-17.2-0.1-30.8-9.5-44.4-14.4c-12.7-4.6-25.8-5.7-39.7-1.9      c-14.5,3.9-25.8,10.7-39.9,15c-8.3,2.5-16.9,3.5-25.9,1.6c-8-1.7-16.9-4.7-24-0.6C796.1,158.6,798.8,160.2,800.5,159.2      L800.5,159.2z"
   id="path123" />
			</g>
		</g>
	</g>
	<g
   id="g193">
		<g
   id="g128">
			<g
   id="g127">
				<path
   class="st7"
   d="M826.9,199.9c-0.4,2.3,0.6,4.5,1.3,6.7c0.8,2.8,1.1,5.7,1.4,8.6c0.1,1.4,3.9,1.4,3.8,0      c-0.1-2.3-0.4-4.6-0.9-6.9c-0.6-2.8-2.2-5.5-1.7-8.3C830.9,198.5,827.1,198.5,826.9,199.9L826.9,199.9z"
   id="path126" />
			</g>
		</g>
		<g
   id="g130">
			<g
   id="g129">
				<path
   class="st7"
   d="M885.9,200.1c-1,4.5,1.3,9.7,2.2,14.2c0.3,1.4,4.1,1.4,3.8,0c-0.4-2.2-0.9-4.6-1.3-6.8      c-0.4-2.2-1.5-4.6-1-6.8C889.8,199.3,886.2,198.7,885.9,200.1L885.9,200.1z"
   id="path128" />
			</g>
		</g>
		<g
   id="g132">
			<g
   id="g131">
				<path
   class="st7"
   d="M892.2,199.2c1.8,5.1,3.2,10.2,4.3,15.4c0.3,1.4,4.1,1.4,3.8,0c-1-5.4-2.5-10.7-4.4-16      C895.4,197.3,891.7,197.9,892.2,199.2L892.2,199.2z"
   id="path130" />
			</g>
		</g>
		<g
   id="g134">
			<g
   id="g133">
				<path
   class="st7"
   d="M957.6,197.9c-0.1,4.7-0.3,9.4-0.1,14.2c0,1.4,3.8,1.4,3.8,0c-0.1-4.7-0.1-9.4,0.1-14.2      C961.4,196.4,957.6,196.4,957.6,197.9L957.6,197.9z"
   id="path132" />
			</g>
		</g>
		<g
   id="g136">
			<g
   id="g135">
				<path
   class="st7"
   d="M987.7,204.2c0,2.4,0,4.7,0,7.1c0,1.4,3.8,1.4,3.8,0c0-2.4,0-4.7,0-7.1      C991.5,202.7,987.7,202.7,987.7,204.2L987.7,204.2z"
   id="path134" />
			</g>
		</g>
		<g
   id="g138">
			<g
   id="g137">
				<path
   class="st6"
   d="M819.1,201.8c2.7,4.4,4.3,9,4.8,13.6c0.1,1.4,3.9,1.4,3.8,0c-0.5-4.9-2.2-9.6-5-14.2      C821.9,199.9,818.2,200.4,819.1,201.8L819.1,201.8z"
   id="path136" />
			</g>
		</g>
		<g
   id="g140">
			<g
   id="g139">
				<path
   class="st6"
   d="M912.2,200.1c1.9,3.7,3.1,7.4,3.6,11.2c0.3,1.4,4.1,1.4,3.8,0c-0.5-4-1.8-7.9-3.7-11.8      C915.1,198.1,911.4,198.7,912.2,200.1L912.2,200.1z"
   id="path138" />
			</g>
		</g>
		<g
   id="g142">
			<g
   id="g141">
				<path
   class="st6"
   d="M917.4,201.3c1,2.2,2.2,4.3,3.7,6.3c1,1.3,4.2,0.1,3.3-1.1c-1.4-1.9-2.4-3.8-3.3-5.7      C920.4,199.3,916.8,199.9,917.4,201.3L917.4,201.3z"
   id="path140" />
			</g>
		</g>
		<g
   id="g144">
			<g
   id="g143">
				<path
   class="st6"
   d="M970.7,199.7c0.6,4.8,1.1,9.6,1.8,14.4c0.1,1.4,3.9,1.4,3.8,0c-0.6-4.8-1.1-9.6-1.8-14.4      C974.3,198.3,970.5,198.3,970.7,199.7L970.7,199.7z"
   id="path142" />
			</g>
		</g>
		<g
   id="g146">
			<g
   id="g145">
				<path
   class="st5"
   d="M835.6,199.5c0.6,5.5,0.6,11,0.3,16.5c-0.1,1.4,3.7,1.4,3.8,0c0.4-5.5,0.4-11-0.3-16.5      C839.3,198,835.5,198,835.6,199.5L835.6,199.5z"
   id="path144" />
			</g>
		</g>
		<g
   id="g148">
			<g
   id="g147">
				<path
   class="st5"
   d="M898.7,198.9c4.7,4.9,4.7,10.5,7,15.8c0.6,1.4,4.3,0.8,3.7-0.6c-2.3-5.5-2.4-11.3-7.4-16.3      C900.7,196.5,897.4,197.7,898.7,198.9L898.7,198.9z"
   id="path146" />
			</g>
		</g>
		<g
   id="g150">
			<g
   id="g149">
				<path
   class="st5"
   d="M965.1,197.6c0.9,5.6,1,11.1,0.3,16.7c-0.1,1.4,3.7,1.4,3.8,0c0.6-5.6,0.5-11.2-0.3-16.7      C968.6,196.2,964.8,196.2,965.1,197.6L965.1,197.6z"
   id="path148" />
			</g>
		</g>
		<g
   id="g152">
			<g
   id="g151">
				<path
   class="st5"
   d="M994.1,204.9c-0.4,1.3-0.5,2.6-0.3,4c0.3,1.4,4.1,1.4,3.8,0c-0.1-1.1-0.1-2.2,0.1-3.4      c0.1-0.6-0.3-1.2-1.3-1.3C995.6,203.9,994.3,204.3,994.1,204.9L994.1,204.9z"
   id="path150" />
			</g>
		</g>
		<g
   id="g154">
			<g
   id="g153">
				<path
   class="st8"
   d="M812.2,203.8c2.9,3,4.8,6.2,5.8,9.6c0.4,1.4,4.1,0.8,3.7-0.6c-1.1-3.6-3.2-7-6.2-10.1      C814.3,201.4,811,202.5,812.2,203.8L812.2,203.8z"
   id="path152" />
			</g>
		</g>
		<g
   id="g156">
			<g
   id="g155">
				<path
   class="st8"
   d="M849.2,205c0.9,2.2,1.5,4.3,2,6.5c0.4,1.4,4.2,1.4,3.8,0c-0.5-2.4-1.3-4.7-2.2-7.1      C852.3,203,848.6,203.6,849.2,205L849.2,205z"
   id="path154" />
			</g>
		</g>
		<g
   id="g158">
			<g
   id="g157">
				<path
   class="st8"
   d="M855.6,207.4c0.5,0.5,1,1,1.5,1.6c0.5,0.5,1.8,0.7,2.7,0.4c0.9-0.3,1.3-1,0.6-1.6c-0.5-0.5-1-1-1.5-1.6      c-0.5-0.5-1.8-0.7-2.7-0.4C855.3,206.1,855.1,206.8,855.6,207.4L855.6,207.4z"
   id="path156" />
			</g>
		</g>
		<g
   id="g160">
			<g
   id="g159">
				<path
   class="st8"
   d="M905.7,198c1.7,4.9,3.4,9.8,5.1,14.6c0.5,1.4,4.2,0.8,3.7-0.6c-1.7-4.9-3.4-9.8-5.1-14.6      C908.9,195.9,905.2,196.5,905.7,198L905.7,198z"
   id="path158" />
			</g>
		</g>
		<g
   id="g162">
			<g
   id="g161">
				<path
   class="st8"
   d="M977.8,200.3c1.5,4.2,2.8,8.4,3.6,12.5c0.3,1.4,4.1,1.4,3.8,0c-0.9-4.4-2.2-8.8-3.8-13.1      C981,198.3,977.3,198.9,977.8,200.3L977.8,200.3z"
   id="path160" />
			</g>
		</g>
		<g
   id="g164">
			<g
   id="g163">
				<path
   class="st8"
   d="M950.1,198.4c-0.5,3.9-0.4,7.7,0.4,11.6c0.3,1.4,4.1,1.4,3.8,0c-0.8-3.9-0.8-7.7-0.4-11.6      C954,196.9,950.2,197,950.1,198.4L950.1,198.4z"
   id="path162" />
			</g>
		</g>
		<g
   id="g166">
			<g
   id="g165">
				<path
   class="st8"
   d="M944.2,200.2c0,2.1,0.3,4.2,0.8,6.3c0.3,1.4,4.1,1.4,3.8,0c-0.5-2.1-0.8-4.2-0.8-6.3      C948,198.8,944.2,198.8,944.2,200.2L944.2,200.2z"
   id="path164" />
			</g>
		</g>
		<g
   id="g168">
			<g
   id="g167">
				<path
   class="st8"
   d="M880.9,202.8c-0.1,3.5,0.3,7,1,10.5c0.3,1.4,4.1,1.4,3.8,0c-0.8-3.5-1.1-6.9-1-10.5      C884.8,201.4,881,201.4,880.9,202.8L880.9,202.8z"
   id="path166" />
			</g>
		</g>
		<g
   id="g170">
			<g
   id="g169">
				<path
   class="st6"
   d="M842.5,202.1c0.1,4,0.4,7.8,0.5,11.8c0,1.4,3.8,1.4,3.8,0c-0.1-4-0.4-7.8-0.5-11.8      C846.3,200.6,842.5,200.6,842.5,202.1L842.5,202.1z"
   id="path168" />
			</g>
		</g>
		<g
   id="g172">
			<g
   id="g171">
				<path
   class="st5"
   d="M806.8,206c1.1,2.2,2.3,4.4,3.4,6.6c0.8,1.3,4.4,0.8,3.7-0.6c-1.1-2.2-2.3-4.4-3.4-6.6      C809.7,204.1,806,204.7,806.8,206L806.8,206z"
   id="path170" />
			</g>
		</g>
		<g
   id="g174">
			<g
   id="g173">
				<path
   class="st5"
   d="M874,206.8c-0.1,1.5,0,3,0.4,4.5c0.1,0.6,0.8,1.1,1.9,1.1c0.9,0,2-0.5,1.9-1.1c-0.4-1.5-0.5-3-0.4-4.5      C877.8,205.3,874,205.3,874,206.8L874,206.8z"
   id="path172" />
			</g>
		</g>
		<g
   id="g176">
			<g
   id="g175">
				<path
   class="st5"
   d="M937.1,202.7c0.8,0.9,1.5,1.7,2.3,2.6c1.1,1.3,4.4,0.1,3.3-1.1c-0.8-0.9-1.5-1.7-2.3-2.6      C939.3,200.2,935.9,201.3,937.1,202.7L937.1,202.7z"
   id="path174" />
			</g>
		</g>
		<g
   id="g178">
			<g
   id="g177">
				<path
   class="st5"
   d="M1015.4,203.6c0.5,1.6,1,3.1,1.5,4.7c0.5,1.4,4.1,0.8,3.7-0.6c-0.5-1.6-1-3.1-1.5-4.7      C1018.6,201.6,1015,202.2,1015.4,203.6L1015.4,203.6z"
   id="path176" />
			</g>
		</g>
		<g
   id="g180">
			<g
   id="g179">
				<path
   class="st5"
   d="M1033.2,196.8c0.8,3.8,1.9,7.5,3.2,11.3c0.5,1.4,4.2,0.8,3.7-0.6c-1.3-3.5-2.3-7.1-3.1-10.7      C1036.8,195.4,1033,195.4,1033.2,196.8L1033.2,196.8z"
   id="path178" />
			</g>
		</g>
		<g
   id="g182">
			<g
   id="g181">
				<path
   class="st6"
   d="M1011.3,207.4c0.3,0,0.5,0,0.8,0c1,0,1.9-0.5,1.9-1.1c0-0.6-0.9-1.1-1.9-1.1c-0.3,0-0.5,0-0.8,0      c-1,0-1.9,0.5-1.9,1.1C1009.6,206.8,1010.3,207.4,1011.3,207.4L1011.3,207.4z"
   id="path180" />
			</g>
		</g>
		<g
   id="g184">
			<g
   id="g183">
				<path
   class="st6"
   d="M1038.4,196c0.5,3.7,1.4,7.2,2.5,10.8c0.5,1.4,4.2,0.8,3.7-0.6c-1.1-3.4-2-6.8-2.4-10.2      C1042.1,194.6,1038.3,194.6,1038.4,196L1038.4,196z"
   id="path182" />
			</g>
		</g>
		<g
   id="g186">
			<g
   id="g185">
				<path
   class="st7"
   d="M1020.6,201.8c1.1,2.2,1.7,4.3,1.7,6.5c0,1.4,3.8,1.4,3.8,0c0-2.4-0.5-4.8-1.8-7.1      C1023.5,199.9,1019.9,200.4,1020.6,201.8L1020.6,201.8z"
   id="path184" />
			</g>
		</g>
		<g
   id="g188">
			<g
   id="g187">
				<path
   class="st8"
   d="M1026.6,199.5c2.3,3.4,0.4,7.2,3.1,10.5c1,1.3,4.3,0.1,3.3-1.1c-2.5-3.1-0.5-6.8-2.7-9.9      C1029.4,197.6,1025.7,198.2,1026.6,199.5L1026.6,199.5z"
   id="path186" />
			</g>
		</g>
		<g
   id="g190">
			<g
   id="g189">
				<path
   d="M803.9,212.2c1.9-5.1,7.9-9.1,16.4-10.9c9.4-1.9,18.8-0.6,27.6,1.9c16.4,4.6,30.5,12.7,49.3,13.7      c17.8,0.9,27.8-7.2,39.5-13.4c8.5-4.6,17.9-6.7,29.5-5.5c10.6,1.1,20.3,4.3,29.8,7.2c15.9,4.8,35.7,9.2,51.9,2.4      c1.9-0.8,0.1-2.8-1.9-1.9c-19.1,8.1-41.3-0.7-59.1-5.7c-16-4.5-33.4-6.9-48.6,0c-6.7,3.1-12.1,7-18.6,10.2      c-9.2,4.6-20,5.7-31.4,3.5c-19.1-3.6-33.6-13.4-53.8-15.2c-15.5-1.3-30.9,4.2-34.3,13.4C799.7,213,803.3,213.6,803.9,212.2      L803.9,212.2z"
   id="path188" />
			</g>
		</g>
		<g
   id="g192">
			<g
   id="g191">
				<path
   d="M801.6,215.7c7.1-4.1,19.5,1.7,27.7,2.2c6.4,0.4,12.6-0.4,18.3-2c14.2-3.7,25.6-10.4,39.2-14.7c7.4-2.3,15.6-4,24-3.1      c8.4,0.8,15.6,3.7,22.4,6.6c11.7,5,24.2,12,39.5,12.1c11.2,0.1,20.9-4,30-7.4c12.6-4.6,25.3-9.3,37.9-14c2-0.7,0.1-2.7-1.9-1.9      c-10.8,4-21.7,8-32.5,12c-9.9,3.7-21.1,9.1-33.3,9c-17.2-0.1-30.8-9.5-44.4-14.4c-12.7-4.6-25.8-5.7-39.7-1.9      c-14.5,3.9-25.8,10.7-39.9,15c-8.3,2.5-16.9,3.5-25.9,1.6c-8-1.7-16.9-4.7-24-0.6C797.1,215.1,799.8,216.7,801.6,215.7      L801.6,215.7z"
   id="path190" />
			</g>
		</g>
	</g>
	<g
   id="g234">
		<g
   id="g195">
			<g
   id="g194">
				<path
   class="st5"
   d="M825.7,333.3c0.9,3.4,1.3,6.9,1.4,10.4c0,1.4,3.8,1.4,3.8,0c-0.1-3.7-0.6-7.3-1.5-11      C829.1,331.3,825.5,331.9,825.7,333.3L825.7,333.3z"
   id="path193" />
			</g>
		</g>
		<g
   id="g197">
			<g
   id="g196">
				<path
   class="st5"
   d="M834.1,331.5c1.5,5.1,3.2,10.4,4.7,15.5c0.4,1.4,4.1,0.8,3.7-0.6c-1.5-5.1-3.2-10.4-4.7-15.5      C837.4,329.5,833.7,330.1,834.1,331.5L834.1,331.5z"
   id="path195" />
			</g>
		</g>
		<g
   id="g199">
			<g
   id="g198">
				<path
   class="st5"
   d="M903.6,334.7c0.1,4.3,0.4,8.5,0.9,12.8c0.1,1.4,3.9,1.4,3.8,0c-0.5-4.3-0.9-8.5-0.9-12.8      C907.3,333.3,903.5,333.3,903.6,334.7L903.6,334.7z"
   id="path197" />
			</g>
		</g>
		<g
   id="g201">
			<g
   id="g200">
				<path
   class="st5"
   d="M931.1,334.9c0.9,4.6,1.5,9.2,3.1,13.7c0.5,1.4,4.2,0.8,3.7-0.6c-1.4-4.3-2-8.7-2.9-13.1      C934.7,333.5,930.8,333.5,931.1,334.9L931.1,334.9z"
   id="path199" />
			</g>
		</g>
		<g
   id="g203">
			<g
   id="g202">
				<path
   class="st5"
   d="M1006.7,328.8c0,3.7,0.8,7.2,2.3,10.7c0.6,1.4,4.3,0.8,3.7-0.6c-1.4-3.4-2.2-6.7-2.2-10.1      C1010.6,327.4,1006.7,327.4,1006.7,328.8L1006.7,328.8z"
   id="path201" />
			</g>
		</g>
		<g
   id="g205">
			<g
   id="g204">
				<path
   class="st6"
   d="M852.3,330.6c1.5,5.8,2.9,11.7,3.9,17.6c0.3,1.4,4.1,1.4,3.8,0c-1.1-6.1-2.4-12.2-4.1-18.2      C855.6,328.6,851.9,329.1,852.3,330.6L852.3,330.6z"
   id="path203" />
			</g>
		</g>
		<g
   id="g207">
			<g
   id="g206">
				<path
   class="st6"
   d="M917.1,334.2c0.6,3.2,1.4,6.4,2,9.6c0.4,2.1,0,5.1,1.9,6.9c0.6,0.6,2.2,0.8,3.1,0.2c0-0.1,0.1-0.1,0.1-0.1      c0.6-0.4,0.9-1.2,0-1.6l-0.1-0.1c-1.9-1-4.6,0.7-2.7,1.6l0.1,0.1c0-0.5,0-1,0-1.6c0,0.1-0.1,0.1-0.1,0.1c1,0.1,2,0.1,3.1,0.2      c-1.8-1.7-1.4-5.7-1.8-7.6c-0.5-2.6-1.1-5.2-1.7-7.8C920.7,332.8,916.9,332.8,917.1,334.2L917.1,334.2z"
   id="path205" />
			</g>
		</g>
		<g
   id="g209">
			<g
   id="g208">
				<path
   class="st6"
   d="M968.1,332.8c-0.1,3.2,0,6.3,0.5,9.6c0.3,1.4,4.1,1.4,3.8,0c-0.5-3.2-0.6-6.3-0.5-9.6      C972,331.4,968.2,331.4,968.1,332.8L968.1,332.8z"
   id="path207" />
			</g>
		</g>
		<g
   id="g211">
			<g
   id="g210">
				<path
   class="st7"
   d="M842.5,331.1c3.1,5.9,5.7,11.9,7.8,17.8c0.5,1.4,4.2,0.8,3.7-0.6c-2-6-4.7-12-7.8-17.8      C845.5,329.1,841.9,329.7,842.5,331.1L842.5,331.1z"
   id="path209" />
			</g>
		</g>
		<g
   id="g213">
			<g
   id="g212">
				<path
   class="st7"
   d="M893.5,336.5c1.3,3.1,2.3,6.2,3.3,9.3c0.4,1.4,4.1,0.8,3.7-0.6c-0.9-3.1-2-6.3-3.3-9.3      C896.5,334.6,892.8,335.2,893.5,336.5L893.5,336.5z"
   id="path211" />
			</g>
		</g>
		<g
   id="g215">
			<g
   id="g214">
				<path
   class="st7"
   d="M985.1,328c1,5.4,2.2,10.7,3.2,16c0.3,1.4,4.1,1.4,3.8,0c-1-5.4-2.2-10.7-3.2-16      C988.7,326.5,984.9,326.5,985.1,328L985.1,328z"
   id="path213" />
			</g>
		</g>
		<g
   id="g217">
			<g
   id="g216">
				<path
   class="st7"
   d="M1015.8,330c0.5,2.2,1,4.3,1.8,6.3c0.5,1.4,4.2,0.8,3.7-0.6c-0.6-1.9-1.3-3.8-1.7-5.7      C1019.3,328.6,1015.5,328.6,1015.8,330L1015.8,330z"
   id="path215" />
			</g>
		</g>
		<g
   id="g219">
			<g
   id="g218">
				<path
   class="st8"
   d="M862.2,336.1c1.3,3.1,2.4,6,3.7,9.1c0.5,1.4,4.2,0.8,3.7-0.6c-1.3-3.1-2.4-6-3.7-9.1      C865.2,334.1,861.6,334.7,862.2,336.1L862.2,336.1z"
   id="path217" />
			</g>
		</g>
		<g
   id="g221">
			<g
   id="g220">
				<path
   class="st8"
   d="M870.1,339c0.8,1,1.4,1.9,2.2,2.9c0.6,0.8,1,1.8,2.4,2.2c0.6,0.2,1.4,0.2,1.9,0c0.6-0.2,1-0.4,1.1-0.9      c0.1-0.5-0.1-1-0.9-1.3l-0.1-0.1c-2-0.7-3.9,1.2-1.9,1.9l0.1,0.1c-0.3-0.4-0.6-0.8-0.9-1.3c0,0.1,0,0.1,0,0.1      c0.3-0.2,0.6-0.4,0.9-0.7c-0.1,0-0.1,0.1-0.3,0.1c0.6,0,1.3,0,1.9,0c0.3,0.1,0.3,0.1-0.1-0.3c-0.1-0.2-0.4-0.4-0.5-0.7      c-0.3-0.4-0.5-0.7-0.8-1c-0.6-0.8-1.1-1.6-1.8-2.4C872.5,336.5,869.2,337.7,870.1,339L870.1,339z"
   id="path219" />
			</g>
		</g>
		<g
   id="g223">
			<g
   id="g222">
				<path
   class="st8"
   d="M909.9,335c2,4.8,0.5,9.7,2.7,14.5c0.6,1.4,4.3,0.8,3.7-0.6c-2.3-4.7-0.6-9.7-2.7-14.5      C912.9,333,909.2,333.6,909.9,335L909.9,335z"
   id="path221" />
			</g>
		</g>
		<g
   id="g225">
			<g
   id="g224">
				<path
   class="st8"
   d="M940.5,336.6c0.9,2.8,1.8,5.6,2.7,8.4c0.4,1.4,4.1,0.8,3.7-0.6c-0.9-2.8-1.8-5.6-2.7-8.4      C943.7,334.6,940,335.2,940.5,336.6L940.5,336.6z"
   id="path223" />
			</g>
		</g>
		<g
   id="g227">
			<g
   id="g226">
				<path
   class="st8"
   d="M976.7,329.8c0.4,4.4-0.5,9.7,2,14c0.8,1.3,4.4,0.7,3.7-0.6c-2.4-4-1.5-9.1-1.9-13.4      C980.4,328.4,976.6,328.4,976.7,329.8L976.7,329.8z"
   id="path225" />
			</g>
		</g>
		<g
   id="g229">
			<g
   id="g228">
				<path
   class="st8"
   d="M995.6,328.2c0.8,4.7,2,9.4,3.9,14c0.6,1.4,4.2,0.8,3.7-0.6c-1.8-4.4-3.1-8.9-3.8-13.4      C999.2,326.8,995.4,326.8,995.6,328.2L995.6,328.2z"
   id="path227" />
			</g>
		</g>
		<g
   id="g231">
			<g
   id="g230">
				<path
   d="M810.8,345c4.6-4.1,9.3-8.3,16-11.3c9.5-4.3,20.5-3.7,31-0.7c16.1,4.6,28.7,12.8,45.3,16.9c12.8,3.2,29,4.3,40.8-0.9      c5.5-2.4,9.2-5.7,13-9c5.8-5.1,12.2-8.7,22.4-10.5c20.7-3.7,44.1-0.7,60.8,7.3c1.9,0.9,4.6-0.7,2.7-1.6      c-13.5-6.4-30.5-9.9-47.9-9.5c-8.5,0.2-17.4,1.3-25,3.7c-7.4,2.3-12.1,6-16.7,9.9c-5.7,5-11.8,9.5-22.4,10.7      c-10.2,1.2-21-0.5-30-3.2c-17.4-5.3-31.4-15.2-50.9-18c-19.8-2.9-32.7,6.3-42.3,15C806.1,345.1,809.4,346.2,810.8,345L810.8,345      z"
   id="path229" />
			</g>
		</g>
		<g
   id="g233">
			<g
   id="g232">
				<path
   d="M807.7,329c7.5,9.1,16.5,19.3,34.5,22.1c18.4,2.9,29.1-5.8,42.8-11.1c15.9-6.1,36.4-7.7,54.4-4.6      c9.7,1.7,17.4,5.2,26.1,8c8.1,2.5,16.7,3.6,25.8,2.9c21.1-1.7,36.2-11.2,49.8-19.9c1.7-1-1-2.7-2.7-1.6      c-15.6,10.1-37.4,23.4-63.4,18.7c-10.8-2-19.5-6.9-30-9.3c-8.8-1.9-18.3-2.8-27.7-2.5c-8.9,0.2-17.8,1.5-25.9,3.7      c-9.7,2.6-16.7,6.9-25,10.4c-11.4,4.9-24.5,4.5-35.6-0.7c-9.3-4.4-14.6-11-19.7-17.2C809.8,326.5,806.5,327.7,807.7,329      L807.7,329z"
   id="path231" />
			</g>
		</g>
	</g>
	<g
   id="g275">
		<g
   id="g236">
			<g
   id="g235">
				<path
   class="st5"
   d="M828.2,406.7c0.9,3.4,1.3,6.9,1.4,10.4c0,1.4,3.8,1.4,3.8,0c-0.1-3.7-0.6-7.3-1.5-11      C831.5,404.6,827.8,405.2,828.2,406.7L828.2,406.7z"
   id="path234" />
			</g>
		</g>
		<g
   id="g238">
			<g
   id="g237">
				<path
   class="st5"
   d="M836.6,404.9c1.5,5.1,3.2,10.4,4.7,15.5c0.4,1.4,4.1,0.8,3.7-0.6c-1.5-5.1-3.2-10.4-4.7-15.5      C839.7,402.8,836.1,403.4,836.6,404.9L836.6,404.9z"
   id="path236" />
			</g>
		</g>
		<g
   id="g240">
			<g
   id="g239">
				<path
   class="st5"
   d="M906,408c0.1,4.3,0.4,8.5,0.9,12.8c0.1,1.4,3.9,1.4,3.8,0c-0.5-4.3-0.9-8.5-0.9-12.8      C909.8,406.6,906,406.6,906,408L906,408z"
   id="path238" />
			</g>
		</g>
		<g
   id="g242">
			<g
   id="g241">
				<path
   class="st5"
   d="M933.6,408.2c0.9,4.6,1.5,9.2,3.1,13.7c0.5,1.4,4.2,0.8,3.7-0.6c-1.4-4.3-2-8.7-2.9-13.1      C937.1,406.8,933.3,406.8,933.6,408.2L933.6,408.2z"
   id="path240" />
			</g>
		</g>
		<g
   id="g244">
			<g
   id="g243">
				<path
   class="st5"
   d="M1009.1,402.2c0,3.7,0.8,7.2,2.3,10.7c0.6,1.4,4.3,0.8,3.7-0.6c-1.4-3.4-2.2-6.7-2.2-10.1      C1012.9,400.8,1009.1,400.8,1009.1,402.2L1009.1,402.2z"
   id="path242" />
			</g>
		</g>
		<g
   id="g246">
			<g
   id="g245">
				<path
   class="st6"
   d="M854.6,403.9c1.5,5.8,2.9,11.7,3.9,17.6c0.3,1.4,4.1,1.4,3.8,0c-1.1-6.1-2.4-12.2-4.1-18.2      C857.9,401.9,854.2,402.5,854.6,403.9L854.6,403.9z"
   id="path244" />
			</g>
		</g>
		<g
   id="g248">
			<g
   id="g247">
				<path
   class="st6"
   d="M919.5,407.5c0.6,3.2,1.4,6.4,2,9.6c0.4,2.1,0,5.1,1.9,6.9c0.6,0.6,2.2,0.8,3.1,0.2c0-0.1,0.1-0.1,0.1-0.1      c0.6-0.4,0.9-1.2,0-1.6l-0.1-0.1c-1.9-1-4.6,0.7-2.7,1.6l0.1,0.1c0-0.5,0-1,0-1.6c0,0.1-0.1,0.1-0.1,0.1c1,0.1,2,0.1,3.1,0.2      c-1.8-1.7-1.4-5.7-1.8-7.6c-0.5-2.6-1.1-5.2-1.7-7.8C923,406.1,919.2,406.1,919.5,407.5L919.5,407.5z"
   id="path246" />
			</g>
		</g>
		<g
   id="g250">
			<g
   id="g249">
				<path
   class="st6"
   d="M970.6,406.1c-0.1,3.2,0,6.3,0.5,9.6c0.3,1.4,4.1,1.4,3.8,0c-0.5-3.2-0.6-6.3-0.5-9.6      C974.4,404.7,970.6,404.7,970.6,406.1L970.6,406.1z"
   id="path248" />
			</g>
		</g>
		<g
   id="g252">
			<g
   id="g251">
				<path
   class="st7"
   d="M845,404.4c3.1,5.9,5.7,11.9,7.8,17.8c0.5,1.4,4.2,0.8,3.7-0.6c-2-6-4.7-12-7.8-17.8      C847.9,402.4,844.2,403,845,404.4L845,404.4z"
   id="path250" />
			</g>
		</g>
		<g
   id="g254">
			<g
   id="g253">
				<path
   class="st7"
   d="M895.8,409.9c1.3,3.1,2.3,6.2,3.3,9.3c0.4,1.4,4.1,0.8,3.7-0.6c-0.9-3.1-2-6.3-3.3-9.3      C899,407.9,895.3,408.5,895.8,409.9L895.8,409.9z"
   id="path252" />
			</g>
		</g>
		<g
   id="g256">
			<g
   id="g255">
				<path
   class="st7"
   d="M987.6,401.3c1,5.4,2.2,10.7,3.2,16c0.3,1.4,4.1,1.4,3.8,0c-1-5.4-2.2-10.7-3.2-16      C991,399.9,987.2,399.9,987.6,401.3L987.6,401.3z"
   id="path254" />
			</g>
		</g>
		<g
   id="g258">
			<g
   id="g257">
				<path
   class="st7"
   d="M1018.3,403.4c0.5,2.2,1,4.3,1.8,6.3c0.5,1.4,4.2,0.8,3.7-0.6c-0.6-1.9-1.3-3.8-1.7-5.7      C1021.7,401.9,1017.9,401.9,1018.3,403.4L1018.3,403.4z"
   id="path256" />
			</g>
		</g>
		<g
   id="g260">
			<g
   id="g259">
				<path
   class="st8"
   d="M864.5,409.4c1.3,3.1,2.4,6,3.7,9.1c0.5,1.4,4.2,0.8,3.7-0.6c-1.3-3.1-2.4-6-3.7-9.1      C867.7,407.5,864,408.1,864.5,409.4L864.5,409.4z"
   id="path258" />
			</g>
		</g>
		<g
   id="g262">
			<g
   id="g261">
				<path
   class="st8"
   d="M872.5,412.3c0.8,1,1.4,1.9,2.2,2.9c0.6,0.8,1,1.8,2.4,2.2c0.6,0.2,1.4,0.2,1.9,0c0.6-0.2,1-0.4,1.1-0.9      c0.1-0.5-0.1-1-0.9-1.3l-0.1-0.1c-2-0.7-3.9,1.2-1.9,1.9l0.1,0.1c-0.3-0.4-0.6-0.8-0.9-1.3c0,0.1,0,0.1,0,0.1      c0.3-0.2,0.6-0.4,0.9-0.7c-0.1,0-0.1,0.1-0.3,0.1c0.6,0,1.3,0,1.9,0c0.3,0.1,0.3,0.1-0.1-0.3c-0.1-0.2-0.4-0.4-0.5-0.7      c-0.3-0.4-0.5-0.7-0.8-1c-0.6-0.8-1.1-1.6-1.8-2.4C874.8,409.9,871.5,411,872.5,412.3L872.5,412.3z"
   id="path260" />
			</g>
		</g>
		<g
   id="g264">
			<g
   id="g263">
				<path
   class="st8"
   d="M912.2,408.3c2,4.8,0.5,9.7,2.7,14.5c0.6,1.4,4.3,0.8,3.7-0.6c-2.3-4.7-0.6-9.7-2.7-14.5      C915.3,406.3,911.6,406.9,912.2,408.3L912.2,408.3z"
   id="path262" />
			</g>
		</g>
		<g
   id="g266">
			<g
   id="g265">
				<path
   class="st8"
   d="M942.9,409.9c0.9,2.8,1.8,5.6,2.7,8.4c0.4,1.4,4.1,0.8,3.7-0.6c-0.9-2.8-1.8-5.6-2.7-8.4      C946.2,407.9,942.5,408.5,942.9,409.9L942.9,409.9z"
   id="path264" />
			</g>
		</g>
		<g
   id="g268">
			<g
   id="g267">
				<path
   class="st8"
   d="M979.2,403.1c0.4,4.4-0.5,9.7,2,14c0.8,1.3,4.4,0.7,3.7-0.6c-2.4-4-1.5-9.1-1.9-13.4      C982.9,401.7,979.1,401.7,979.2,403.1L979.2,403.1z"
   id="path266" />
			</g>
		</g>
		<g
   id="g270">
			<g
   id="g269">
				<path
   class="st8"
   d="M998,401.5c0.8,4.7,2,9.4,3.9,14c0.6,1.4,4.2,0.8,3.7-0.6c-1.8-4.4-3.1-8.9-3.8-13.4      C1001.6,400.1,997.8,400.1,998,401.5L998,401.5z"
   id="path268" />
			</g>
		</g>
		<g
   id="g272">
			<g
   id="g271">
				<path
   d="M813.2,418.4c4.6-4.1,9.3-8.3,16-11.3c9.5-4.3,20.5-3.7,31-0.7c16.1,4.6,28.7,12.8,45.3,16.9c12.8,3.2,29,4.3,40.8-0.9      c5.5-2.4,9.2-5.7,13-9c5.8-5.1,12.2-8.7,22.4-10.5c20.7-3.7,44.1-0.7,60.8,7.3c1.9,0.9,4.6-0.7,2.7-1.6      c-13.5-6.4-30.5-9.9-47.9-9.5c-8.5,0.2-17.4,1.3-25,3.7c-7.4,2.3-12.1,6-16.7,9.9c-5.7,5-11.8,9.5-22.4,10.7      c-10.2,1.2-21-0.5-30-3.2c-17.4-5.3-31.4-15.2-50.9-18c-19.8-2.9-32.7,6.3-42.3,15C808.6,418.4,811.9,419.6,813.2,418.4      L813.2,418.4z"
   id="path270" />
			</g>
		</g>
		<g
   id="g274">
			<g
   id="g273">
				<path
   d="M810,402.3c7.5,9.1,16.5,19.3,34.5,22.1c18.4,2.9,29.1-5.8,42.8-11.1c15.9-6.1,36.4-7.7,54.4-4.6      c9.7,1.7,17.4,5.2,26.1,8c8.1,2.5,16.7,3.6,25.8,2.9c21.1-1.7,36.2-11.2,49.8-19.9c1.7-1-1-2.7-2.7-1.6      c-15.6,10.1-37.4,23.4-63.4,18.7c-10.8-2-19.5-6.9-30-9.3c-8.8-1.9-18.3-2.8-27.7-2.5c-8.9,0.2-17.8,1.5-25.9,3.7      c-9.7,2.6-16.7,6.9-25,10.4c-11.4,4.9-24.5,4.5-35.6-0.7c-9.3-4.4-14.6-11-19.7-17.2C812.3,399.9,809,401,810,402.3L810,402.3z"
   id="path272" />
			</g>
		</g>
	</g>
	
	
	
	
	
	
	
	
	
	
	
	
	
	
	
	
	
	<g
   id="g138522_1_"
   transform="matrix(-0.69368251,-0.04200099,-0.04200099,0.69368251,1093.2472,326.55792)">
		<g
   id="g138520_1_">
			<g
   id="XMLID_4_">
				<g
   id="g138425_1_">
					<path
   id="path138323_1_"
   d="M-878.3,1115.6c1.8,2,3.9,5,1.5,7.3c-1.6,1.6-4.2,2.2-6.5,2c-0.3-0.8-0.7-1.6-1.3-2.3       c1.9,0.4,3.9,0.3,5.5-0.7c2.4-1.6,0.1-4-1.3-5.3s-4.1-2.9-5.8-1c-1.1,1.2-1,3.1-0.7,4.7c-0.7-0.6-1.4-1.1-2.2-1.6       c0-2.3,0.6-4.6,2.8-5.6C-883.2,1111.8-880.2,1113.5-878.3,1115.6L-878.3,1115.6z" />
					<path
   id="path138325_1_"
   class="st9"
   d="M-880.2,1116.6c1.4,1.3,3.6,3.8,1.3,5.3c-1.6,1-3.7,1.2-5.5,0.7       c-0.7-0.9-1.4-1.8-2.3-2.4c-0.1-1.6-0.3-3.5,0.7-4.7C-884.3,1113.7-881.6,1115.3-880.2,1116.6L-880.2,1116.6z" />
					<path
   id="path138327_1_"
   d="M-882.9,1126c0.1,0.5-0.1,1-0.4,1.1c-0.1-0.7-0.3-1.5-0.4-2.2c0.1,0,0.4,0,0.5,0.1       C-883.1,1125.3-882.9,1125.6-882.9,1126L-882.9,1126z" />
					<path
   id="path138329_1_"
   d="M-883.3,1127.1c1.5,8.9-0.8,17.3-10.3,20.7c-9.1,3.3-20.8,3.1-28.8-2.7c-6-4.4-11.5-13.7-7-20.8       c1-1.5,2.3-2.7,3.8-3.8c0.3,0.2,0.7,0.4,1,0.5c0.3,0.1,0.5,0.1,0.7,0l0.4,0.7c-0.7,0.4-1.5,1-2.2,1.5c-4.7,3.8-3.9,10.1-1,14.7       c5.8,9.4,18,11.3,28,9.1c5.3-1.1,10.7-3.3,12.7-8.8c1.7-4.4,0.9-9.3-0.2-13.7c0-0.1,0-0.1,0-0.1c0.1,0,0.2,0.1,0.3,0.1       c0.4,0.6,0.7,1.3,0.8,2C-884.6,1127.3-883.8,1127.4-883.3,1127.1L-883.3,1127.1z" />
					<path
   id="path138331_1_"
   d="M-883.2,1125c-0.1,0-0.4,0-0.5-0.1c-0.1-0.3-0.1-0.6-0.2-0.9c-0.3-1.1-1.8-0.9-2,0       c-0.2-0.4-0.4-0.7-0.7-1l0,0c0.1-0.4,0.6-0.8,1.2-0.6c0.4,0.1,0.7,0.2,1,0.3C-884,1123.4-883.5,1124.2-883.2,1125z" />
					<path
   id="path138333_1_"
   d="M-883.3,1127.1c-0.5,0.3-1.3,0.1-1.6-0.6s-0.5-1.4-0.8-2c0.6,0.1,1.3,0.3,1.9,0.4       C-883.6,1125.6-883.4,1126.4-883.3,1127.1z" />
					<path
   id="path138335_1_"
   d="M-884,1124c0.1,0.3,0.1,0.6,0.2,0.9c-0.7-0.1-1.3-0.2-1.9-0.4c-0.1-0.1-0.2-0.4-0.3-0.5       C-885.7,1123.1-884.3,1122.9-884,1124z" />
					<path
   id="path138337_1_"
   d="M-884.5,1122.7c-0.4-0.1-0.7-0.1-1-0.3c-0.6-0.2-1,0.1-1.2,0.6c-0.4-0.4-0.7-0.9-1.2-1.3       c0.6,0.1,1.3-0.1,1.3-1c0-0.2-0.1-0.4-0.1-0.6C-885.9,1121-885.1,1121.8-884.5,1122.7L-884.5,1122.7z" />
					<path
   id="path138339_1_"
   class="st9"
   d="M-886,1124.6c1.2,4.4,1.9,9.3,0.2,13.7c-2.1,5.3-7.5,7.6-12.7,8.8       c-10.1,2.1-22.2,0.3-28-9.1c-2.8-4.6-3.6-11,1-14.7c0.7-0.5,1.4-1,2.2-1.5c3.3-2.1,7.2-3.5,11-4.2c6.4-1.3,17.7-1.1,23.7,3.7       c0.1,0.4,0.4,0.5,0.7,0.6c0.4,0.4,0.8,0.8,1.2,1.3l0,0C-886.9,1123.6-886.7,1124.3-886,1124.6L-886,1124.6       C-886,1124.5-886,1124.5-886,1124.6L-886,1124.6z M-919.2,1129.1c1-0.2,1.6-1.3,1.3-2.4v-0.1c-0.1-0.4-0.4-0.7-0.7-0.9       c-0.4-0.1-1-0.1-1.3,0.1c-1,0.6-0.9,1.9-0.4,2.7C-920.2,1129.1-919.7,1129.2-919.2,1129.1z M-918.2,1139.1c0-1.7,0-3.3,0-5       c0-0.5-0.5-1.1-1-1c-1.3,0.1-2.5,0.4-3.8,0.7c-1,0.4-0.9,1.6-0.1,2c0,2.1,1.6,4,3.6,4.4       C-918.9,1140.3-918.2,1139.8-918.2,1139.1L-918.2,1139.1z M-924.3,1128.7c0.4-0.9-0.1-2.1-1.2-2.1c-0.4,0-1,0.2-1.2,0.7       c-0.3,0.4-0.2,1,0,1.4c0.1,0.4,0.7,0.6,1.1,0.5C-925.1,1129.3-924.5,1129.1-924.3,1128.7z" />
					<path
   id="path138341_1_"
   d="M-885.7,1124.5c-0.1,0-0.2-0.1-0.3-0.1c0-0.1,0-0.3,0-0.4C-885.9,1124.2-885.8,1124.4-885.7,1124.5       z" />
					<path
   id="path138343_1_"
   d="M-886,1124.1c0,0.1-0.1,0.2,0,0.4l0,0c-0.7-0.2-0.8-0.9-0.7-1.4       C-886.5,1123.3-886.2,1123.7-886,1124.1z" />
					<path
   id="path138345_1_"
   d="M-886.6,1120.8c0.1,0.8-0.7,1.1-1.3,1c-0.2-0.2-0.5-0.4-0.7-0.6c-0.1-0.1-0.1-0.2-0.1-0.3       c-0.1-0.7-0.1-1.4-0.1-2.2c0.7,0.4,1.5,1,2.2,1.6C-886.7,1120.4-886.6,1120.7-886.6,1120.8L-886.6,1120.8z" />
					<path
   id="path138347_1_"
   d="M-888.6,1121.2c0.2,0.2,0.5,0.4,0.7,0.6C-888.2,1121.7-888.5,1121.5-888.6,1121.2z" />
					<path
   id="path138349_1_"
   d="M-888.7,1120.8c0,0.1,0.1,0.2,0.1,0.3c-6.1-4.8-17.4-5-23.7-3.7c-3.8,0.7-7.7,2.1-11,4.2l-0.4-0.7       c0.4-0.2,0.6-0.7,0.5-1.2c0.4-0.1,0.7-0.4,0.7-0.9v-0.1c0.1-0.1,0.4-0.1,0.5-0.2c0.4,0.3,1,0.2,1.4-0.4       c0.1-0.1,0.1-0.2,0.2-0.4c0.4-0.1,0.7-0.3,1.1-0.4c4.7-1.9,9.9-2.8,15.1-2.7c4.7,0.1,10.8,1.2,15.4,4       C-888.9,1119.4-888.8,1120.1-888.7,1120.8L-888.7,1120.8z" />
					<path
   id="path138351_1_"
   d="M-913.5,1090.8c3.8,1.4,5.9,7.6,4.5,11.2c-1,2.6-3.3,4.5-5,6.6c-2.4,2.9-4.5,6-6.4,9.3       c-0.5,0.2-1.1,0.4-1.6,0.7c-0.2-0.1-0.4-0.3-0.4-0.4c0.1-0.4,0.1-0.7,0.1-1.1c2-3.5,4.3-6.8,6.9-9.9c1.6-1.9,3.9-3.8,4.6-6.3       c0.6-2.2-0.1-5-1.8-6.8c-5.5-5.7-8.5,9-8.8,11.9c-0.4,3.7-0.5,7.3-0.9,11.1c0,0.1-0.1,0.1-0.1,0.1c-0.2,0.4-0.1,0.7,0,1       c0,0.2-0.1,0.5-0.1,0.7c-0.1,0.1-0.4,0.1-0.5,0.3c0.2-0.1,0.4-0.4,0.4-0.8c0.1-3.9,0.4-7.9,0.5-11.9c0.1-3,0.6-6.1,0.4-9.1       C-920.4,1093.8-917.7,1089.3-913.5,1090.8L-913.5,1090.8z" />
					<path
   id="path138353_1_"
   class="st9"
   d="M-912.8,1094c1.6,1.7,2.4,4.6,1.8,6.8c-0.7,2.5-3,4.4-4.6,6.3       c-2.6,3.1-4.9,6.4-6.9,9.9c0.4-3.7,0.4-7.3,0.9-11.1C-921.2,1103-918.2,1088.3-912.8,1094L-912.8,1094z" />
					<path
   id="path138355_1_"
   d="M-920,1127L-920,1127c0,0.1,0,0.2,0.1,0.3c0,0.1,0,0.1,0,0.1c0.1,0.4,0.5,0.7,1,0.7       c0.5,0,1.1-0.4,1-1c0-0.1,0-0.2-0.1-0.4v0.1c0.4,1-0.3,2.1-1.3,2.4c-0.4,0.1-1-0.1-1.2-0.5c-0.5-0.9-0.7-2.2,0.4-2.7       c0.4-0.2,1-0.2,1.3-0.1c0.4,0.1,0.7,0.5,0.7,0.9c-0.2-0.5-0.7-0.8-1.3-0.7C-919.6,1126.2-920,1126.6-920,1127z" />
					<path
   id="path138357_1_"
   d="M-918.8,1127.3c0,0.1,0,0.1-0.1,0.2l0,0c-0.3-0.1-0.6-0.2-0.9-0.4c0,0,0,0,0.1,0c0,0,0,0-0.1,0l0,0       c-0.1,0-0.1,0.1-0.1,0.1l0,0l0,0l0,0l0,0l0,0l0,0l0,0l0,0c0,0,0,0,0-0.1l0,0v-0.1c0,0,0,0,0-0.1c0-0.4,0.4-0.9,0.7-1       c0.5-0.1,1,0.1,1.3,0.7c0,0.1,0.1,0.2,0.1,0.4c0.1,0.6-0.5,1-1,1c-0.4,0-0.8-0.3-1-0.7l0,0l0,0c0.2,0.5,0.8,0.7,1,0.1       c0.1,0,0.1,0.1,0.2,0.1C-918.6,1127.5-918.6,1127.4-918.8,1127.3C-918.8,1127.3-918.8,1127.3-918.8,1127.3z M-918.8,1127.3       L-918.8,1127.3L-918.8,1127.3L-918.8,1127.3L-918.8,1127.3z" />
					<path
   id="path138359_1_"
   d="M-918.2,1134.1c0,1.7,0,3.3,0,5c0,0.7-0.7,1.1-1.3,1c-2.1-0.4-3.6-2.2-3.6-4.4       c0.2,0.1,0.4,0.1,0.7,0c0.4-0.1,0.9-0.3,1.3-0.4c0,0.1,0,0.1,0,0.2c0,0.7,0.3,1.4,0.8,1.9c0,0.5,0,1.1,0,1.6       c0.4-0.4,0.9-0.7,1.3-1c-0.5-0.1-1-0.3-1.3-0.6c0-0.7,0-1.5,0-2.2c0.4-0.1,0.7-0.1,1-0.1c-0.4-0.4-0.7-0.7-1-1       c0,0.4,0,0.8,0,1.2c-0.3,0.1-0.5,0.1-0.8,0.1c-0.1-1.1-2.1-1.1-2.1,0.2c0,0.1,0,0.1,0,0.1c-0.7-0.4-0.8-1.6,0.1-2       c1.3-0.4,2.4-0.7,3.8-0.7C-918.7,1133-918.2,1133.6-918.2,1134.1z" />
					<path
   id="path138361_1_"
   d="M-918.7,1127.3c0,0.1,0.1,0.1,0.1,0.2c-0.1,0-0.1-0.1-0.2-0.1l0,0       C-918.7,1127.4-918.7,1127.3-918.7,1127.3C-918.8,1127.3-918.8,1127.3-918.7,1127.3z" />
					<path
   id="path138363_1_"
   d="M-918.8,1127.2c0,0,0,0.1,0,0.1l0,0l0,0C-918.8,1127.3-918.8,1127.2-918.8,1127.2z" />
					<path
   id="path138365_1_"
   d="M-919.7,1127.1c0.3,0.1,0.6,0.2,0.9,0.4c-0.2,0.5-0.8,0.4-1-0.1l0,0v-0.1l0,0c0,0,0,0,0-0.1l0,0       l0,0C-919.8,1127.1-919.8,1127.1-919.7,1127.1L-919.7,1127.1z" />
					<path
   id="path138367_1_"
   d="M-919,1138.1c-0.4,0.4-0.9,0.7-1.3,1c0-0.5,0-1.1,0-1.6C-920,1137.8-919.5,1138-919,1138.1       L-919,1138.1z" />
					<path
   id="path138369_1_"
   d="M-920.3,1134.1c0.4,0.4,0.7,0.7,1,1c-0.4,0-0.7,0.1-1,0.1C-920.3,1134.8-920.3,1134.5-920.3,1134.1       z" />
					<path
   id="path138371_1_"
   d="M-919.7,1127.1L-919.7,1127.1L-919.7,1127.1L-919.7,1127.1z" />
					<path
   id="path138373_1_"
   d="M-919.9,1127.2L-919.9,1127.2C-919.9,1127.3-919.9,1127.3-919.9,1127.2L-919.9,1127.2       L-919.9,1127.2L-919.9,1127.2z" />
					<path
   id="path138375_1_"
   d="M-919.9,1127.2L-919.9,1127.2L-919.9,1127.2L-919.9,1127.2z" />
					<path
   id="path138377_1_"
   d="M-919.9,1127.3L-919.9,1127.3C-919.9,1127.4-919.9,1127.4-919.9,1127.3c-0.1-0.1-0.1-0.2-0.1-0.3       v0.1l0,0v0.1C-919.9,1127.3-919.9,1127.3-919.9,1127.3L-919.9,1127.3z" />
					<path
   id="path138379_1_"
   d="M-919.9,1127.3L-919.9,1127.3L-919.9,1127.3C-919.9,1127.3-919.9,1127.3-919.9,1127.3       L-919.9,1127.3z" />
					<path
   id="path138381_1_"
   d="M-919.9,1127.3C-919.9,1127.3-919.9,1127.3-919.9,1127.3L-919.9,1127.3       C-919.9,1127.3-919.9,1127.3-919.9,1127.3C-919.9,1127.3-919.9,1127.3-919.9,1127.3z" />
					<path
   id="path138383_1_"
   d="M-919.9,1127.2L-919.9,1127.2L-919.9,1127.2z" />
					<path
   id="path138385_1_"
   d="M-919.9,1127.2L-919.9,1127.2L-919.9,1127.2C-919.9,1127.3-919.9,1127.3-919.9,1127.2z" />
					<path
   id="path138387_1_"
   d="M-919.9,1127.3L-919.9,1127.3C-920,1127.3-920,1127.3-919.9,1127.3       C-920,1127.3-919.9,1127.3-919.9,1127.3z" />
					<path
   id="path138389_1_"
   d="M-920.5,1117.8c-0.1,0.1-0.1,0.2-0.2,0.4c-0.4,0.6-1,0.6-1.4,0.4       C-921.6,1118.3-921,1118.1-920.5,1117.8z" />
					<path
   id="path138391_1_"
   d="M-921.7,1097.4c0.1,3-0.2,6.1-0.4,9.1c-0.1,3.9-0.4,7.9-0.5,11.9c0,0.4-0.2,0.7-0.4,0.8       c-0.1,0-0.1,0.1-0.1,0.1c-0.1,0.1-0.2,0.1-0.3,0.1c-0.1-0.1-0.2-0.2-0.4-0.2c-0.2-0.1-0.4-0.2-0.7-0.4       c0.8-6.6,0.4-13.4,2.4-19.8C-922.1,1098.4-922,1097.9-921.7,1097.4L-921.7,1097.4z" />
					<path
   id="path138393_1_"
   d="M-922,1095.3c0.1,0.7,0.2,1.3,0.2,2.1c-0.2,0.5-0.4,1-0.5,1.5c-2,6.4-1.6,13.2-2.4,19.8l0,0       c-0.1-0.1-0.1-0.2-0.1-0.4c0.2-4.6,0.4-9.2,0.7-13.8c0.1-1.9,0.2-3.9,0.2-5.9c0-1.4,0.1-4.1-0.9-5.2c-1.5-0.5-2.9-1.1-4.3-1.6       c-0.5,0.5-1,1-1.5,1.5c-2.5,3.8-1,10.3,0.2,14.3c1,3.4,2.3,9.1,5.7,11.1c0,0,0,0,0,0.1s0,0.1,0,0.2c-0.1,0.4,0.1,0.7,0.4,0.8       c-0.4,0.2-0.8,0.5-1.2,0.7c-4.5-2.6-6-9-7.2-13.6c-1.3-4.7-2.7-12.7,1.6-16.3C-927.2,1087.4-922.7,1091.1-922,1095.3z" />
					<path
   id="path138395_1_"
   d="M-923.2,1135.6c0-1.3,1.9-1.3,2.1-0.2c-0.4,0.1-0.9,0.2-1.3,0.4c-0.3,0.1-0.5,0.1-0.7,0       C-923.2,1135.7-923.2,1135.7-923.2,1135.6z" />
					<path
   id="path138397_1_"
   d="M-922.5,1117.2c0-0.1,0.1-0.1,0.1-0.1c-0.1,0.4-0.1,0.7-0.1,1.1       C-922.7,1117.8-922.7,1117.5-922.5,1117.2z" />
					<path
   id="path138399_1_"
   d="M-922.6,1118.8L-922.6,1118.8c-0.1,0.5-0.4,0.8-0.7,1c0-0.1-0.1-0.4-0.2-0.5       c0.1-0.1,0.1-0.1,0.3-0.1c0.1,0,0.1-0.1,0.1-0.1C-923,1119-922.8,1118.9-922.6,1118.8z" />
					<path
   id="path138401_1_"
   d="M-923.3,1119.2c0.1,0,0.1-0.1,0.1-0.1C-923.2,1119.1-923.2,1119.2-923.3,1119.2z" />
					<path
   id="path138403_1_"
   d="M-923.4,1119.8c0.1,0.5-0.1,1-0.5,1.2c-0.2,0.1-0.4,0.1-0.7,0c-0.4-0.1-0.7-0.3-1-0.5       c0.4-0.3,0.8-0.5,1.2-0.7C-924.1,1119.9-923.7,1119.9-923.4,1119.8z" />
					<path
   id="path138405_1_"
   d="M-923.6,1119.3c0.1,0.1,0.2,0.3,0.2,0.5c-0.4,0.1-0.7,0.1-1-0.1       C-924.1,1119.6-923.8,1119.5-923.6,1119.3z" />
					<path
   id="path138407_1_"
   d="M-923.3,1119.2c-0.1,0.1-0.1,0.1-0.3,0.1c0,0,0-0.1-0.1-0.1       C-923.5,1119.3-923.4,1119.3-923.3,1119.2z" />
					<path
   id="path138409_1_"
   d="M-923.7,1119.3C-923.6,1119.3-923.6,1119.3-923.7,1119.3c-0.2,0.2-0.4,0.4-0.7,0.5       c-0.2-0.1-0.4-0.4-0.4-0.8c0-0.1,0-0.1,0-0.2C-924.6,1119.1-924.1,1119.3-923.7,1119.3L-923.7,1119.3z" />
					<path
   id="path138411_1_"
   d="M-923.7,1119.3c-0.4,0.1-0.9-0.1-1.1-0.5l0,0c0.2,0.1,0.4,0.2,0.7,0.4       C-923.9,1119-923.7,1119.2-923.7,1119.3z" />
					<path
   id="path138413_1_"
   class="st9"
   d="M-924.8,1093.4c1,1.1,0.9,3.8,0.9,5.2c0,1.9-0.1,3.9-0.2,5.9       c-0.2,4.6-0.4,9.2-0.7,13.8c0,0.1,0,0.3,0.1,0.4c-3.4-2-4.7-7.6-5.7-11.1c-1.2-4-2.7-10.5-0.2-14.3c0.5-0.5,1-1,1.5-1.5       C-927.7,1092.4-926.3,1092.9-924.8,1093.4z" />
					<path
   id="path138415_1_"
   d="M-925.4,1126.6c1.1,0,1.6,1.2,1.2,2.1c-0.2,0.4-0.8,0.6-1.3,0.4c0.1,0,0.2-0.1,0.3-0.1       c0.4-0.2,0.5-0.6,0.5-1c0-0.1-0.1-0.3-0.1-0.4v-0.1c0,0.1,0.1,0.2,0.1,0.4c-0.1-0.1-0.3,0-0.7,0.2c-0.7,0.4-0.9,0.2-0.7-0.5       c-0.2,0.5-0.1,1.1,0.4,1.4c0.1,0,0.1,0.1,0.2,0.1c-0.4,0.1-1-0.1-1.1-0.5c-0.2-0.5-0.2-1,0-1.4       C-926.3,1126.8-925.9,1126.6-925.4,1126.6L-925.4,1126.6z" />
					<path
   id="path138417_1_"
   d="M-924.7,1128.1c0,0.4-0.1,0.7-0.5,1c-0.1,0.1-0.2,0.1-0.3,0.1c-0.1,0-0.1-0.1-0.2-0.1       c-0.5-0.3-0.7-1-0.4-1.4c-0.2,0.7,0,0.9,0.7,0.5C-925.1,1127.9-924.9,1127.9-924.7,1128.1L-924.7,1128.1       C-924.7,1127.9-924.7,1128-924.7,1128.1C-924.7,1128-924.7,1128.1-924.7,1128.1L-924.7,1128.1z" />
					<path
   id="path138419_1_"
   d="M-924.7,1128.1C-924.7,1128.1-924.7,1128-924.7,1128.1c0-0.1,0-0.1,0-0.1l0,0       c0-0.1-0.1-0.2-0.1-0.4v0.1C-924.8,1127.8-924.7,1127.9-924.7,1128.1z" />
					<path
   id="path138421_1_"
   d="M-924.7,1118.7L-924.7,1118.7L-924.7,1118.7L-924.7,1118.7z" />
					<path
   id="path138423_1_"
   d="M-924.7,1128L-924.7,1128L-924.7,1128z" />
				</g>
				<g
   id="g138517_1_">
					<path
   id="path138427_1_"
   class="st69"
   d="M-886.7,1123c0.2,0.3,0.5,0.7,0.7,1c0.1,0.1,0.2,0.3,0.3,0.5c0.4,0.6,0.7,1.3,0.8,2       c0.2,0.7,1,0.9,1.6,0.6c0.4-0.2,0.6-0.6,0.4-1.1c-0.1-0.4-0.2-0.7-0.4-1c-0.3-0.8-0.7-1.6-1.3-2.3c-0.7-0.9-1.4-1.8-2.3-2.4       c-0.7-0.6-1.4-1.1-2.2-1.6c-4.5-2.7-10.6-3.9-15.4-4c-5.1-0.1-10.3,0.7-15.1,2.7c-0.4,0.1-0.7,0.3-1.1,0.4       c-0.5,0.2-1.1,0.4-1.6,0.7c-0.1,0.1-0.4,0.1-0.5,0.2c-0.1,0.1-0.4,0.1-0.5,0.3c-0.1,0-0.1,0.1-0.1,0.1       c-0.1,0.1-0.1,0.1-0.3,0.1c-0.3,0.1-0.5,0.3-0.8,0.4c-0.4,0.2-0.8,0.5-1.2,0.7c-1.6,1-2.9,2.3-3.8,3.8       c-4.5,7.3,0.9,16.5,7,20.8c8.1,5.8,19.7,6,28.8,2.7c9.6-3.4,11.9-11.9,10.3-20.7c-0.1-0.7-0.3-1.5-0.4-2.2       c-0.1-0.3-0.1-0.6-0.2-0.9c-0.3-1.1-1.8-0.9-2,0c0,0.1-0.1,0.2,0,0.4c0,0.1,0,0.1,0,0.1c1.2,4.4,1.9,9.3,0.2,13.7       c-2.1,5.3-7.5,7.6-12.7,8.8c-10.1,2.1-22.2,0.3-28-9.1c-2.8-4.6-3.6-11,1-14.7c0.7-0.5,1.4-1,2.2-1.5c3.3-2.1,7.2-3.5,11-4.2       c6.4-1.3,17.7-1.1,23.7,3.7c0.2,0.2,0.5,0.4,0.7,0.6C-887.5,1122.2-887.1,1122.6-886.7,1123" />
					<path
   id="path138429_1_"
   class="st69"
   d="M-887.9,1121.8c0.6,0.1,1.3-0.1,1.3-1c0-0.2-0.1-0.4-0.1-0.6       c-0.1-1.6-0.3-3.5,0.7-4.7c1.7-1.9,4.4-0.3,5.8,1s3.6,3.8,1.3,5.3c-1.6,1-3.7,1.2-5.5,0.7c-0.4-0.1-0.7-0.1-1-0.3       c-0.6-0.2-1,0.1-1.2,0.6l0,0c-0.1,0.5,0,1.2,0.7,1.4l0,0c0.1,0,0.2,0.1,0.3,0.1c0.6,0.1,1.3,0.3,1.9,0.4c0.1,0,0.4,0,0.5,0.1       c2.4,0.1,4.8-0.4,6.5-2c2.4-2.4,0.3-5.4-1.5-7.3c-1.9-2.1-4.9-3.9-7.8-2.5c-2.3,1-2.8,3.3-2.8,5.6c0,0.7,0.1,1.5,0.1,2.2       c0,0.1,0.1,0.2,0.1,0.3C-888.5,1121.5-888.2,1121.7-887.9,1121.8L-887.9,1121.8z" />
					<path
   id="path138431_1_"
   class="st69"
   d="M-924.7,1118.7L-924.7,1118.7c0.2,0.4,0.7,0.7,1.1,0.6c0.1,0,0.2,0,0.3-0.1       c0.1,0,0.1-0.1,0.1-0.1c0.2-0.1,0.4-0.4,0.4-0.8c0.1-3.9,0.4-7.9,0.5-11.9c0.1-3,0.6-6.1,0.4-9.1c0-0.7-0.1-1.4-0.2-2.1       c-0.7-4.2-5.2-7.9-9.1-4.7c-4.4,3.6-2.9,11.6-1.6,16.3c1.2,4.6,2.7,11,7.2,13.6c0.3,0.2,0.7,0.4,1,0.5c0.3,0.1,0.5,0.1,0.7,0       c0.4-0.2,0.6-0.7,0.5-1.2c0-0.1-0.1-0.4-0.2-0.5c0,0,0-0.1-0.1-0.1c-0.1-0.1-0.2-0.2-0.4-0.2       C-924.3,1118.9-924.5,1118.8-924.7,1118.7L-924.7,1118.7" />
					<path
   id="path138433_1_"
   class="st69"
   d="M-924.7,1118.7c-3.4-2-4.7-7.6-5.7-11.1c-1.2-4-2.7-10.5-0.2-14.3       c0.5-0.5,1-1,1.5-1.5c1.4,0.5,2.9,1.1,4.3,1.6c1,1.1,0.9,3.8,0.9,5.2c0,1.9-0.1,3.9-0.2,5.9c-0.2,4.6-0.4,9.2-0.7,13.8       C-924.8,1118.4-924.8,1118.5-924.7,1118.7z" />
					<path
   id="path138435_1_"
   class="st69"
   d="M-922.4,1117c0,0.1-0.1,0.1-0.1,0.1c-0.2,0.4-0.1,0.7,0,1c0.1,0.2,0.2,0.4,0.4,0.4       c0.4,0.3,1,0.2,1.4-0.4c0.1-0.1,0.1-0.2,0.2-0.4c1.9-3.3,4-6.4,6.4-9.3c1.7-2.1,4-4,5-6.6c1.4-3.6-0.7-9.8-4.5-11.2       c-4.2-1.6-6.9,3-8.2,6.6c-0.2,0.5-0.4,1-0.5,1.5c-2,6.4-1.6,13.2-2.4,19.8l0,0c0,0.1,0,0.1,0,0.2c-0.1,0.4,0.1,0.7,0.4,0.8       c0.3,0.1,0.7,0.2,1,0.1c0.4-0.1,0.7-0.4,0.7-0.9v-0.1c0-0.2,0.1-0.5,0.1-0.7C-922.5,1117.7-922.5,1117.4-922.4,1117" />
					<path
   id="path138437_1_"
   class="st69"
   d="M-922.4,1117c0.4-3.7,0.4-7.3,0.9-11.1c0.3-2.9,3.3-17.6,8.8-11.9       c1.6,1.7,2.4,4.6,1.8,6.8c-0.7,2.5-3,4.4-4.6,6.3C-918.2,1110.2-920.4,1113.5-922.4,1117z" />
					<path
   id="path138439_1_"
   class="st69"
   d="M-925.5,1129.1c0.1,0,0.2-0.1,0.3-0.1c0.4-0.2,0.5-0.6,0.5-1c0-0.1-0.1-0.3-0.1-0.4       v-0.1c0,0.1,0.1,0.2,0.1,0.4" />
					<path
   id="path138441_1_"
   class="st69"
   d="M-925.5,1129.1c0.4,0.1,1,0,1.3-0.4c0.4-0.9-0.1-2.1-1.2-2.1c-0.4,0-1,0.2-1.2,0.7       c-0.3,0.4-0.2,1,0,1.4C-926.4,1129.1-925.9,1129.3-925.5,1129.1z" />
					<path
   id="path138443_1_"
   class="st69"
   d="M-924.7,1127.9c-0.1-0.1-0.3,0-0.7,0.2c-0.7,0.4-0.9,0.2-0.7-0.5       c-0.2,0.5-0.1,1.1,0.4,1.4c0.1,0,0.1,0.1,0.2,0.1" />
					<path
   id="path138445_1_"
   class="st69"
   d="M-924.7,1128.1C-924.7,1128.1-924.7,1128-924.7,1128.1c0-0.1,0-0.1,0-0.1" />
					<path
   id="path138447_1_"
   class="st69"
   d="M-924.7,1127.9L-924.7,1127.9" />
					<path
   id="path138449_1_"
   class="st69"
   d="M-924.7,1127.9L-924.7,1127.9" />
					<path
   id="path138451_1_"
   class="st69"
   d="M-920,1127.2C-920,1127.3-920,1127.3-920,1127.2c0,0.1,0,0.1,0.1,0.1" />
					<path
   id="path138453_1_"
   class="st69"
   d="M-920,1127L-920,1127" />
					<path
   id="path138455_1_"
   class="st69"
   d="M-920,1127.1L-920,1127.1L-920,1127.1" />
					<path
   id="path138457_1_"
   class="st69"
   d="M-919.9,1127.3C-919.9,1127.3-920,1127.3-919.9,1127.3" />
					<path
   id="path138459_1_"
   class="st69"
   d="M-919.9,1127.3C-919.9,1127.3-919.9,1127.3-919.9,1127.3" />
					<path
   id="path138461_1_"
   class="st69"
   d="M-918.8,1127.3c0,0.1,0,0.1-0.1,0.2l0,0c-0.2,0.5-0.8,0.4-1-0.1" />
					<path
   id="path138463_1_"
   class="st69"
   d="M-918.8,1127.3L-918.8,1127.3L-918.8,1127.3L-918.8,1127.3L-918.8,1127.3z" />
					<path
   id="path138465_1_"
   class="st69"
   d="M-918.8,1127.3L-918.8,1127.3" />
					<path
   id="path138467_1_"
   class="st69"
   d="M-919.7,1127.1L-919.7,1127.1L-919.7,1127.1c0.3,0.1,0.6,0.3,0.9,0.4       c0.1,0,0.1,0.1,0.2,0.1c-0.1-0.1-0.1-0.1-0.1-0.2c0-0.1-0.1-0.1-0.1-0.1" />
					<path
   id="path138469_1_"
   class="st69"
   d="M-919.7,1127.1L-919.7,1127.1L-919.7,1127.1" />
					<path
   id="path138471_1_"
   class="st69"
   d="M-919.9,1127.2L-919.9,1127.2" />
					<path
   id="path138473_1_"
   class="st69"
   d="M-919.9,1127.2C-919.9,1127.3-919.9,1127.3-919.9,1127.2" />
					<path
   id="path138475_1_"
   class="st69"
   d="M-919.9,1127.2L-919.9,1127.2" />
					<path
   id="path138477_1_"
   class="st69"
   d="M-919.9,1127.3C-919.9,1127.2-919.9,1127.2-919.9,1127.3       C-919.9,1127.2-919.9,1127.2-919.9,1127.3L-919.9,1127.3c0.1-0.1,0.1-0.1,0.1-0.1" />
					<line
   id="line138479_1_"
   class="st69"
   x1="-919.9"
   y1="1127.3"
   x2="-919.9"
   y2="1127.3" />
					<path
   id="path138481_1_"
   class="st69"
   d="M-919.9,1127.3L-919.9,1127.3" />
					<path
   id="path138483_1_"
   class="st69"
   d="M-919.9,1127.2L-919.9,1127.2" />
					<path
   id="path138485_1_"
   class="st69"
   d="M-919.9,1127.2L-919.9,1127.2" />
					<path
   id="path138487_1_"
   class="st69"
   d="M-919.9,1127.2L-919.9,1127.2" />
					<polyline
   id="polyline138489_1_"
   class="st69"
   points="-919.9,1127.2 -919.9,1127.2 -919.9,1127.2      " />
					<path
   id="path138491_1_"
   class="st69"
   d="M-919.9,1127.2C-919.9,1127.3-919.9,1127.3-919.9,1127.2" />
					<line
   id="line138493_1_"
   class="st69"
   x1="-919.9"
   y1="1127.3"
   x2="-919.9"
   y2="1127.3" />
					<path
   id="path138495_1_"
   class="st69"
   d="M-919.9,1127.3L-919.9,1127.3L-919.9,1127.3c0-0.1,0-0.1,0-0.1" />
					<line
   id="line138497_1_"
   class="st69"
   x1="-919.9"
   y1="1127.3"
   x2="-919.9"
   y2="1127.3" />
					<path
   id="path138499_1_"
   class="st69"
   d="M-918,1126.7c-0.2-0.5-0.7-0.8-1.3-0.7c-0.4,0.1-0.7,0.6-0.7,1c0,0,0,0,0,0.1       c0,0.1,0,0.1,0,0.2s0,0.1,0,0.1" />
					<path
   id="path138501_1_"
   class="st69"
   d="M-918,1126.7c-0.1-0.4-0.4-0.7-0.7-0.9c-0.4-0.1-1-0.1-1.3,0.1       c-1,0.6-0.9,1.9-0.4,2.7c0.2,0.4,0.7,0.6,1.2,0.5C-918.2,1128.9-917.6,1127.8-918,1126.7L-918,1126.7z" />
					<path
   id="path138503_1_"
   class="st69"
   d="M-919.9,1127.3c0.1,0.4,0.5,0.7,1,0.7c0.5,0,1.1-0.4,1-1c0-0.1,0-0.2-0.1-0.4" />
					<path
   id="path138505_1_"
   class="st69"
   d="M-923.2,1135.8c0,2.1,1.6,4,3.6,4.4c0.7,0.1,1.3-0.3,1.3-1c0-1.7,0-3.3,0-5       c0-0.5-0.5-1.1-1-1c-1.3,0.1-2.5,0.4-3.8,0.7C-924,1134.1-923.9,1135.4-923.2,1135.8L-923.2,1135.8z" />
					<path
   id="path138507_1_"
   class="st69"
   d="M-920.3,1137.5c-0.5-0.4-0.8-1.1-0.8-1.9c0-0.1,0-0.1,0-0.2c-0.1-1.1-2.1-1.1-2.1,0.2       c0,0.1,0,0.1,0,0.1" />
					<path
   id="path138509_1_"
   class="st69"
   d="M-920.3,1137.5c0,0.5,0,1.1,0,1.6c0.4-0.4,0.9-0.7,1.3-1       C-919.5,1138-920,1137.8-920.3,1137.5L-920.3,1137.5z" />
					<path
   id="path138511_1_"
   class="st69"
   d="M-920.3,1135.3c0,0.7,0,1.5,0,2.2" />
					<path
   id="path138513_1_"
   class="st69"
   d="M-920.3,1135.3c0.4-0.1,0.7-0.1,1-0.1c-0.4-0.4-0.7-0.7-1-1       C-920.3,1134.5-920.3,1134.8-920.3,1135.3z" />
					<path
   id="path138515_1_"
   class="st69"
   d="M-923.2,1135.8c0.2,0.1,0.4,0.1,0.7,0c0.4-0.1,0.9-0.3,1.3-0.4       c0.3-0.1,0.5-0.1,0.8-0.1" />
				</g>
			</g>
		</g>
	</g>
	
	
	
	
	
	
	
	
	
	
	
	
	
	
	
	
	
	
	
	
	
	
	
	
	
	
	
	
	
	
	
	
	
	
	
	
	
	
	
	
	
	
	
	
	
	
	
	
	
	
	
	
	
	
	
	
	
	
	
	
	
	
	
	
	
	
	
	
	
	
	
	
	
	
	
	
	
	
	
	
	
	
	
	
	
	
	
	
	
	
	
	
	
	
	
	
	
	
	
	
	
	
	
	
	
	
	
	
	
	
	
	
	
	
	
	
	
	
	
	
	
</g>
</svg>
