<?xml version="1.0" encoding="UTF-8" standalone="no"?>
<!-- Generator: Adobe Illustrator 22.1.0, SVG Export Plug-In . SVG Version: 6.00 Build 0)  -->

<svg
   version="1.1"
   x="0px"
   y="0px"
   viewBox="0 0 449.99999 370.00001"
   xml:space="preserve"
   id="svg6941"
   sodipodi:docname="demes_time_labels.svg"
   width="450"
   height="370"
   inkscape:version="1.2.2 (1:1.2.2+202212051552+b0a8486541)"
   xmlns:inkscape="http://www.inkscape.org/namespaces/inkscape"
   xmlns:sodipodi="http://sodipodi.sourceforge.net/DTD/sodipodi-0.dtd"
   xmlns="http://www.w3.org/2000/svg"
   xmlns:svg="http://www.w3.org/2000/svg"><defs
   id="defs6945"><clipPath
     id="p52f47a454d"><rect
       x="44.203125"
       y="14.599219"
       width="186.91687"
       height="203.34265"
       id="rect38494" /></clipPath><clipPath
     id="clipPath42986"><rect
       x="44.203125"
       y="14.599219"
       width="186.91687"
       height="203.34265"
       id="rect42984" /></clipPath><clipPath
     id="clipPath42990"><rect
       x="44.203125"
       y="14.599219"
       width="186.91687"
       height="203.34265"
       id="rect42988" /></clipPath><clipPath
     id="clipPath42994"><rect
       x="44.203125"
       y="14.599219"
       width="186.91687"
       height="203.34265"
       id="rect42992" /></clipPath><clipPath
     id="clipPath42998"><rect
       x="44.203125"
       y="14.599219"
       width="186.91687"
       height="203.34265"
       id="rect42996" /></clipPath><clipPath
     id="clipPath43002"><rect
       x="44.203125"
       y="14.599219"
       width="186.91687"
       height="203.34265"
       id="rect43000" /></clipPath><path
     id="DejaVuSans-50"
     d="M 1259,4147 V 2394 h 794 q 441,0 681,228 241,228 241,650 0,419 -241,647 -240,228 -681,228 z m -631,519 h 1425 q 785,0 1186,-355 402,-355 402,-1039 0,-691 -402,-1044 -401,-353 -1186,-353 H 1259 V 0 H 628 Z"
     transform="scale(0.015625)" /><path
     id="DejaVuSans-6f"
     d="m 1959,3097 q -462,0 -731,-361 -269,-361 -269,-989 0,-628 267,-989 268,-361 733,-361 460,0 728,362 269,363 269,988 0,622 -269,986 -268,364 -728,364 z m 0,487 q 750,0 1178,-488 429,-487 429,-1349 Q 3566,888 3137,398 2709,-91 1959,-91 1206,-91 779,398 353,888 353,1747 q 0,862 426,1349 427,488 1180,488 z"
     transform="scale(0.015625)" /><path
     id="DejaVuSans-70"
     d="M 1159,525 V -1331 H 581 v 4831 h 578 v -531 q 182,312 458,463 277,152 661,152 638,0 1036,-506 399,-506 399,-1331 0,-825 -399,-1332 -398,-506 -1036,-506 -384,0 -661,152 -276,152 -458,464 z m 1957,1222 q 0,634 -261,995 -261,361 -717,361 -457,0 -718,-361 -261,-361 -261,-995 0,-634 261,-995 261,-361 718,-361 456,0 717,361 261,361 261,995 z"
     transform="scale(0.015625)" /><path
     id="DejaVuSans-75"
     d="m 544,1381 v 2119 h 575 V 1403 q 0,-497 193,-746 194,-248 582,-248 465,0 735,297 271,297 271,810 v 1984 h 575 V 0 H 2900 V 538 Q 2691,219 2414,64 2138,-91 1772,-91 1169,-91 856,284 544,659 544,1381 Z m 1447,2203 z"
     transform="scale(0.015625)" /><path
     id="DejaVuSans-6c"
     d="m 603,4863 h 575 V 0 H 603 Z"
     transform="scale(0.015625)" /><path
     id="DejaVuSans-61"
     d="m 2194,1759 q -697,0 -966,-159 -269,-159 -269,-544 0,-306 202,-486 202,-179 548,-179 479,0 768,339 289,339 289,901 v 128 z m 1147,238 V 0 H 2766 V 531 Q 2569,213 2275,61 1981,-91 1556,-91 q -537,0 -855,302 -317,302 -317,808 0,590 395,890 396,300 1180,300 h 807 v 57 q 0,397 -261,614 -261,217 -733,217 -300,0 -585,-72 -284,-72 -546,-216 v 532 q 315,122 612,182 297,61 578,61 760,0 1135,-394 375,-393 375,-1193 z"
     transform="scale(0.015625)" /><path
     id="DejaVuSans-74"
     d="M 1172,4494 V 3500 H 2356 V 3053 H 1172 V 1153 q 0,-428 117,-550 117,-122 477,-122 h 590 V 0 H 1766 Q 1100,0 847,248 594,497 594,1153 V 3053 H 172 v 447 h 422 v 994 z"
     transform="scale(0.015625)" /><path
     id="DejaVuSans-69"
     d="m 603,3500 h 575 V 0 H 603 Z m 0,1363 h 575 V 4134 H 603 Z"
     transform="scale(0.015625)" /><path
     id="DejaVuSans-6e"
     d="M 3513,2113 V 0 h -575 v 2094 q 0,497 -194,743 -194,247 -581,247 -466,0 -735,-297 -269,-296 -269,-809 V 0 H 581 v 3500 h 578 v -544 q 207,316 486,472 280,156 646,156 603,0 912,-373 310,-373 310,-1098 z"
     transform="scale(0.015625)" /><path
     id="DejaVuSans-31"
     d="M 794,531 H 1825 V 4091 L 703,3866 v 575 l 1116,225 h 631 V 531 H 3481 V 0 H 794 Z"
     transform="scale(0.015625)" /><path
     id="DejaVuSans-32"
     d="M 1228,531 H 3431 V 0 H 469 v 531 q 359,372 979,998 621,627 780,809 303,340 423,576 121,236 121,464 0,372 -261,606 -261,235 -680,235 -297,0 -627,-103 -329,-103 -704,-313 v 638 q 381,153 712,231 332,78 607,78 725,0 1156,-363 431,-362 431,-968 0,-288 -108,-546 -107,-257 -392,-607 -78,-91 -497,-524 Q 1991,1309 1228,531 Z"
     transform="scale(0.015625)" /><path
     id="mc8dfdf61a0"
     d="M 0,0 H -3.5"
     style="stroke:#000000;stroke-width:0.8" /><path
     id="DejaVuSans-30"
     d="m 2034,4250 q -487,0 -733,-480 -245,-479 -245,-1442 0,-959 245,-1439 246,-480 733,-480 491,0 736,480 246,480 246,1439 0,963 -246,1442 -245,480 -736,480 z m 0,500 q 785,0 1199,-621 414,-620 414,-1801 0,-1178 -414,-1799 -414,-620 -1199,-620 -784,0 -1198,620 -414,621 -414,1799 0,1181 414,1801 414,621 1198,621 z"
     transform="scale(0.015625)" /><path
     id="DejaVuSans-35"
     d="M 691,4666 H 3169 V 4134 H 1269 V 2991 q 137,47 274,70 138,23 276,23 781,0 1237,-428 457,-428 457,-1159 Q 3513,744 3044,326 2575,-91 1722,-91 1428,-91 1123,-41 819,9 494,109 v 635 q 281,-153 581,-228 300,-75 634,-75 541,0 856,284 316,284 316,772 0,487 -316,771 -315,285 -856,285 -253,0 -505,-56 -251,-56 -513,-175 z"
     transform="scale(0.015625)" /><path
     id="DejaVuSans-6d"
     d="m 3328,2828 q 216,388 516,572 300,184 706,184 547,0 844,-383 297,-382 297,-1088 V 0 h -578 v 2094 q 0,503 -179,746 -178,244 -543,244 -447,0 -707,-297 -259,-296 -259,-809 V 0 h -578 v 2094 q 0,506 -178,748 -178,242 -550,242 -441,0 -701,-298 -259,-298 -259,-808 V 0 H 581 v 3500 h 578 v -544 q 197,322 472,475 275,153 653,153 382,0 649,-194 267,-193 395,-562 z"
     transform="scale(0.015625)" /><path
     id="DejaVuSans-65"
     d="M 3597,1894 V 1613 H 953 q 38,-594 358,-905 320,-311 892,-311 331,0 642,81 311,81 618,244 V 178 Q 3153,47 2828,-22 2503,-91 2169,-91 1331,-91 842,396 353,884 353,1716 q 0,859 464,1363 464,505 1252,505 706,0 1117,-455 411,-454 411,-1235 z m -575,169 q -6,471 -264,752 -258,282 -683,282 -481,0 -770,-272 -289,-272 -333,-766 z"
     transform="scale(0.015625)" /><path
     id="DejaVuSans-20"
     transform="scale(0.015625)"
     d="" /><path
     id="DejaVuSans-67"
     d="m 2906,1791 q 0,625 -258,968 -257,344 -723,344 -462,0 -720,-344 -258,-343 -258,-968 0,-622 258,-966 258,-344 720,-344 466,0 723,344 258,344 258,966 z M 3481,434 q 0,-893 -397,-1329 -396,-436 -1215,-436 -303,0 -572,45 -269,45 -522,139 v 559 q 253,-137 500,-202 247,-66 503,-66 566,0 847,295 281,295 281,892 V 616 Q 2728,306 2450,153 2172,0 1784,0 1141,0 747,490 353,981 353,1791 q 0,812 394,1302 394,491 1037,491 388,0 666,-153 278,-153 456,-462 v 531 h 575 z"
     transform="scale(0.015625)" /><path
     id="DejaVuSans-28"
     d="m 1984,4856 q -418,-718 -622,-1422 -203,-703 -203,-1425 0,-721 205,-1429 205,-708 620,-1424 h -500 q -468,735 -701,1444 -233,709 -233,1409 0,697 231,1403 232,707 703,1444 z"
     transform="scale(0.015625)" /><path
     id="DejaVuSans-72"
     d="m 2631,2963 q -97,56 -211,82 -114,27 -251,27 -488,0 -749,-317 -261,-317 -261,-911 V 0 H 581 v 3500 h 578 v -544 q 182,319 472,473 291,155 707,155 59,0 131,-8 72,-7 159,-23 z"
     transform="scale(0.015625)" /><path
     id="DejaVuSans-73"
     d="m 2834,3397 v -544 q -243,125 -506,187 -262,63 -544,63 -428,0 -642,-131 -214,-131 -214,-394 0,-200 153,-314 153,-114 616,-217 l 197,-44 q 612,-131 870,-370 258,-239 258,-667 0,-488 -386,-773 Q 2250,-91 1575,-91 1294,-91 989,-36 684,19 347,128 v 594 q 319,-166 628,-249 309,-82 613,-82 406,0 624,139 219,139 219,392 0,234 -158,359 -157,125 -692,241 l -200,47 q -534,112 -772,345 -237,233 -237,639 0,494 350,762 350,269 994,269 318,0 599,-47 282,-46 519,-140 z"
     transform="scale(0.015625)" /><path
     id="DejaVuSans-29"
     d="m 513,4856 h 500 q 468,-737 701,-1444 233,-706 233,-1403 0,-700 -233,-1409 -233,-709 -701,-1444 H 513 q 415,716 620,1424 205,708 205,1429 0,722 -205,1425 -205,704 -620,1422 z"
     transform="scale(0.015625)" /><clipPath
     id="pe520835f7e"><rect
       x="53.743752"
       y="14.599219"
       width="155.38353"
       height="203.34265"
       id="rect53309" /></clipPath><clipPath
     id="clipPath54171"><rect
       x="53.743752"
       y="14.599219"
       width="155.38353"
       height="203.34265"
       id="rect54169" /></clipPath><clipPath
     id="clipPath54175"><rect
       x="53.743752"
       y="14.599219"
       width="155.38353"
       height="203.34265"
       id="rect54173" /></clipPath><clipPath
     id="clipPath54179"><rect
       x="53.743752"
       y="14.599219"
       width="155.38353"
       height="203.34265"
       id="rect54177" /></clipPath><clipPath
     id="clipPath54183"><rect
       x="53.743752"
       y="14.599219"
       width="155.38353"
       height="203.34265"
       id="rect54181" /></clipPath><clipPath
     id="clipPath54187"><rect
       x="53.743752"
       y="14.599219"
       width="155.38353"
       height="203.34265"
       id="rect54185" /></clipPath><path
     id="DejaVuSans-50-3"
     d="M 1259,4147 V 2394 h 794 q 441,0 681,228 241,228 241,650 0,419 -241,647 -240,228 -681,228 z m -631,519 h 1425 q 785,0 1186,-355 402,-355 402,-1039 0,-691 -402,-1044 -401,-353 -1186,-353 H 1259 V 0 H 628 Z"
     transform="scale(0.015625)" /><path
     id="DejaVuSans-6f-6"
     d="m 1959,3097 q -462,0 -731,-361 -269,-361 -269,-989 0,-628 267,-989 268,-361 733,-361 460,0 728,362 269,363 269,988 0,622 -269,986 -268,364 -728,364 z m 0,487 q 750,0 1178,-488 429,-487 429,-1349 Q 3566,888 3137,398 2709,-91 1959,-91 1206,-91 779,398 353,888 353,1747 q 0,862 426,1349 427,488 1180,488 z"
     transform="scale(0.015625)" /><path
     id="DejaVuSans-70-7"
     d="M 1159,525 V -1331 H 581 v 4831 h 578 v -531 q 182,312 458,463 277,152 661,152 638,0 1036,-506 399,-506 399,-1331 0,-825 -399,-1332 -398,-506 -1036,-506 -384,0 -661,152 -276,152 -458,464 z m 1957,1222 q 0,634 -261,995 -261,361 -717,361 -457,0 -718,-361 -261,-361 -261,-995 0,-634 261,-995 261,-361 718,-361 456,0 717,361 261,361 261,995 z"
     transform="scale(0.015625)" /><path
     id="DejaVuSans-75-5"
     d="m 544,1381 v 2119 h 575 V 1403 q 0,-497 193,-746 194,-248 582,-248 465,0 735,297 271,297 271,810 v 1984 h 575 V 0 H 2900 V 538 Q 2691,219 2414,64 2138,-91 1772,-91 1169,-91 856,284 544,659 544,1381 Z m 1447,2203 z"
     transform="scale(0.015625)" /><path
     id="DejaVuSans-6c-3"
     d="m 603,4863 h 575 V 0 H 603 Z"
     transform="scale(0.015625)" /><path
     id="DejaVuSans-61-5"
     d="m 2194,1759 q -697,0 -966,-159 -269,-159 -269,-544 0,-306 202,-486 202,-179 548,-179 479,0 768,339 289,339 289,901 v 128 z m 1147,238 V 0 H 2766 V 531 Q 2569,213 2275,61 1981,-91 1556,-91 q -537,0 -855,302 -317,302 -317,808 0,590 395,890 396,300 1180,300 h 807 v 57 q 0,397 -261,614 -261,217 -733,217 -300,0 -585,-72 -284,-72 -546,-216 v 532 q 315,122 612,182 297,61 578,61 760,0 1135,-394 375,-393 375,-1193 z"
     transform="scale(0.015625)" /><path
     id="DejaVuSans-74-6"
     d="M 1172,4494 V 3500 H 2356 V 3053 H 1172 V 1153 q 0,-428 117,-550 117,-122 477,-122 h 590 V 0 H 1766 Q 1100,0 847,248 594,497 594,1153 V 3053 H 172 v 447 h 422 v 994 z"
     transform="scale(0.015625)" /><path
     id="DejaVuSans-69-2"
     d="m 603,3500 h 575 V 0 H 603 Z m 0,1363 h 575 V 4134 H 603 Z"
     transform="scale(0.015625)" /><path
     id="DejaVuSans-6e-9"
     d="M 3513,2113 V 0 h -575 v 2094 q 0,497 -194,743 -194,247 -581,247 -466,0 -735,-297 -269,-296 -269,-809 V 0 H 581 v 3500 h 578 v -544 q 207,316 486,472 280,156 646,156 603,0 912,-373 310,-373 310,-1098 z"
     transform="scale(0.015625)" /><path
     id="DejaVuSans-31-1"
     d="M 794,531 H 1825 V 4091 L 703,3866 v 575 l 1116,225 h 631 V 531 H 3481 V 0 H 794 Z"
     transform="scale(0.015625)" /><path
     id="DejaVuSans-32-2"
     d="M 1228,531 H 3431 V 0 H 469 v 531 q 359,372 979,998 621,627 780,809 303,340 423,576 121,236 121,464 0,372 -261,606 -261,235 -680,235 -297,0 -627,-103 -329,-103 -704,-313 v 638 q 381,153 712,231 332,78 607,78 725,0 1156,-363 431,-362 431,-968 0,-288 -108,-546 -107,-257 -392,-607 -78,-91 -497,-524 Q 1991,1309 1228,531 Z"
     transform="scale(0.015625)" /><path
     id="m9c5e1ffc94"
     d="M 0,0 H -3.5"
     style="stroke:#000000;stroke-width:0.8" /><path
     id="DejaVuSans-30-7"
     d="m 2034,4250 q -487,0 -733,-480 -245,-479 -245,-1442 0,-959 245,-1439 246,-480 733,-480 491,0 736,480 246,480 246,1439 0,963 -246,1442 -245,480 -736,480 z m 0,500 q 785,0 1199,-621 414,-620 414,-1801 0,-1178 -414,-1799 -414,-620 -1199,-620 -784,0 -1198,620 -414,621 -414,1799 0,1181 414,1801 414,621 1198,621 z"
     transform="scale(0.015625)" /><path
     id="DejaVuSans-2e"
     d="m 684,794 h 660 V 0 H 684 Z"
     transform="scale(0.015625)" /><path
     id="DejaVuSans-35-0"
     d="M 691,4666 H 3169 V 4134 H 1269 V 2991 q 137,47 274,70 138,23 276,23 781,0 1237,-428 457,-428 457,-1159 Q 3513,744 3044,326 2575,-91 1722,-91 1428,-91 1123,-41 819,9 494,109 v 635 q 281,-153 581,-228 300,-75 634,-75 541,0 856,284 316,284 316,772 0,487 -316,771 -315,285 -856,285 -253,0 -505,-56 -251,-56 -513,-175 z"
     transform="scale(0.015625)" /><path
     id="DejaVuSans-37"
     d="M 525,4666 H 3525 V 4397 L 1831,0 H 1172 L 2766,4134 H 525 Z"
     transform="scale(0.015625)" /><path
     id="DejaVuSans-6d-9"
     d="m 3328,2828 q 216,388 516,572 300,184 706,184 547,0 844,-383 297,-382 297,-1088 V 0 h -578 v 2094 q 0,503 -179,746 -178,244 -543,244 -447,0 -707,-297 -259,-296 -259,-809 V 0 h -578 v 2094 q 0,506 -178,748 -178,242 -550,242 -441,0 -701,-298 -259,-298 -259,-808 V 0 H 581 v 3500 h 578 v -544 q 197,322 472,475 275,153 653,153 382,0 649,-194 267,-193 395,-562 z"
     transform="scale(0.015625)" /><path
     id="DejaVuSans-65-3"
     d="M 3597,1894 V 1613 H 953 q 38,-594 358,-905 320,-311 892,-311 331,0 642,81 311,81 618,244 V 178 Q 3153,47 2828,-22 2503,-91 2169,-91 1331,-91 842,396 353,884 353,1716 q 0,859 464,1363 464,505 1252,505 706,0 1117,-455 411,-454 411,-1235 z m -575,169 q -6,471 -264,752 -258,282 -683,282 -481,0 -770,-272 -289,-272 -333,-766 z"
     transform="scale(0.015625)" /><path
     id="DejaVuSans-20-6"
     transform="scale(0.015625)"
     d="" /><path
     id="DejaVuSans-67-0"
     d="m 2906,1791 q 0,625 -258,968 -257,344 -723,344 -462,0 -720,-344 -258,-343 -258,-968 0,-622 258,-966 258,-344 720,-344 466,0 723,344 258,344 258,966 z M 3481,434 q 0,-893 -397,-1329 -396,-436 -1215,-436 -303,0 -572,45 -269,45 -522,139 v 559 q 253,-137 500,-202 247,-66 503,-66 566,0 847,295 281,295 281,892 V 616 Q 2728,306 2450,153 2172,0 1784,0 1141,0 747,490 353,981 353,1791 q 0,812 394,1302 394,491 1037,491 388,0 666,-153 278,-153 456,-462 v 531 h 575 z"
     transform="scale(0.015625)" /><path
     id="DejaVuSans-28-6"
     d="m 1984,4856 q -418,-718 -622,-1422 -203,-703 -203,-1425 0,-721 205,-1429 205,-708 620,-1424 h -500 q -468,735 -701,1444 -233,709 -233,1409 0,697 231,1403 232,707 703,1444 z"
     transform="scale(0.015625)" /><path
     id="DejaVuSans-72-2"
     d="m 2631,2963 q -97,56 -211,82 -114,27 -251,27 -488,0 -749,-317 -261,-317 -261,-911 V 0 H 581 v 3500 h 578 v -544 q 182,319 472,473 291,155 707,155 59,0 131,-8 72,-7 159,-23 z"
     transform="scale(0.015625)" /><path
     id="DejaVuSans-73-6"
     d="m 2834,3397 v -544 q -243,125 -506,187 -262,63 -544,63 -428,0 -642,-131 -214,-131 -214,-394 0,-200 153,-314 153,-114 616,-217 l 197,-44 q 612,-131 870,-370 258,-239 258,-667 0,-488 -386,-773 Q 2250,-91 1575,-91 1294,-91 989,-36 684,19 347,128 v 594 q 319,-166 628,-249 309,-82 613,-82 406,0 624,139 219,139 219,392 0,234 -158,359 -157,125 -692,241 l -200,47 q -534,112 -772,345 -237,233 -237,639 0,494 350,762 350,269 994,269 318,0 599,-47 282,-46 519,-140 z"
     transform="scale(0.015625)" /><path
     id="DejaVuSans-29-1"
     d="m 513,4856 h 500 q 468,-737 701,-1444 233,-706 233,-1403 0,-700 -233,-1409 -233,-709 -701,-1444 H 513 q 415,716 620,1424 205,708 205,1429 0,722 -205,1425 -205,704 -620,1422 z"
     transform="scale(0.015625)" /><clipPath
     id="p9f60cd1e51"><rect
       x="53.743752"
       y="14.599219"
       width="137.05624"
       height="203.34265"
       id="rect57583" /></clipPath><clipPath
     id="clipPath63201"><rect
       x="53.743752"
       y="14.599219"
       width="137.05624"
       height="203.34265"
       id="rect63199" /></clipPath><clipPath
     id="clipPath63205"><rect
       x="53.743752"
       y="14.599219"
       width="137.05624"
       height="203.34265"
       id="rect63203" /></clipPath><clipPath
     id="clipPath63209"><rect
       x="53.743752"
       y="14.599219"
       width="137.05624"
       height="203.34265"
       id="rect63207" /></clipPath><clipPath
     id="clipPath63213"><rect
       x="53.743752"
       y="14.599219"
       width="137.05624"
       height="203.34265"
       id="rect63211" /></clipPath><clipPath
     id="clipPath63217"><rect
       x="53.743752"
       y="14.599219"
       width="137.05624"
       height="203.34265"
       id="rect63215" /></clipPath><path
     id="DejaVuSans-50-8"
     d="M 1259,4147 V 2394 h 794 q 441,0 681,228 241,228 241,650 0,419 -241,647 -240,228 -681,228 z m -631,519 h 1425 q 785,0 1186,-355 402,-355 402,-1039 0,-691 -402,-1044 -401,-353 -1186,-353 H 1259 V 0 H 628 Z"
     transform="scale(0.015625)" /><path
     id="DejaVuSans-6f-7"
     d="m 1959,3097 q -462,0 -731,-361 -269,-361 -269,-989 0,-628 267,-989 268,-361 733,-361 460,0 728,362 269,363 269,988 0,622 -269,986 -268,364 -728,364 z m 0,487 q 750,0 1178,-488 429,-487 429,-1349 Q 3566,888 3137,398 2709,-91 1959,-91 1206,-91 779,398 353,888 353,1747 q 0,862 426,1349 427,488 1180,488 z"
     transform="scale(0.015625)" /><path
     id="DejaVuSans-70-9"
     d="M 1159,525 V -1331 H 581 v 4831 h 578 v -531 q 182,312 458,463 277,152 661,152 638,0 1036,-506 399,-506 399,-1331 0,-825 -399,-1332 -398,-506 -1036,-506 -384,0 -661,152 -276,152 -458,464 z m 1957,1222 q 0,634 -261,995 -261,361 -717,361 -457,0 -718,-361 -261,-361 -261,-995 0,-634 261,-995 261,-361 718,-361 456,0 717,361 261,361 261,995 z"
     transform="scale(0.015625)" /><path
     id="DejaVuSans-75-2"
     d="m 544,1381 v 2119 h 575 V 1403 q 0,-497 193,-746 194,-248 582,-248 465,0 735,297 271,297 271,810 v 1984 h 575 V 0 H 2900 V 538 Q 2691,219 2414,64 2138,-91 1772,-91 1169,-91 856,284 544,659 544,1381 Z m 1447,2203 z"
     transform="scale(0.015625)" /><path
     id="DejaVuSans-6c-0"
     d="m 603,4863 h 575 V 0 H 603 Z"
     transform="scale(0.015625)" /><path
     id="DejaVuSans-61-2"
     d="m 2194,1759 q -697,0 -966,-159 -269,-159 -269,-544 0,-306 202,-486 202,-179 548,-179 479,0 768,339 289,339 289,901 v 128 z m 1147,238 V 0 H 2766 V 531 Q 2569,213 2275,61 1981,-91 1556,-91 q -537,0 -855,302 -317,302 -317,808 0,590 395,890 396,300 1180,300 h 807 v 57 q 0,397 -261,614 -261,217 -733,217 -300,0 -585,-72 -284,-72 -546,-216 v 532 q 315,122 612,182 297,61 578,61 760,0 1135,-394 375,-393 375,-1193 z"
     transform="scale(0.015625)" /><path
     id="DejaVuSans-74-3"
     d="M 1172,4494 V 3500 H 2356 V 3053 H 1172 V 1153 q 0,-428 117,-550 117,-122 477,-122 h 590 V 0 H 1766 Q 1100,0 847,248 594,497 594,1153 V 3053 H 172 v 447 h 422 v 994 z"
     transform="scale(0.015625)" /><path
     id="DejaVuSans-69-7"
     d="m 603,3500 h 575 V 0 H 603 Z m 0,1363 h 575 V 4134 H 603 Z"
     transform="scale(0.015625)" /><path
     id="DejaVuSans-6e-5"
     d="M 3513,2113 V 0 h -575 v 2094 q 0,497 -194,743 -194,247 -581,247 -466,0 -735,-297 -269,-296 -269,-809 V 0 H 581 v 3500 h 578 v -544 q 207,316 486,472 280,156 646,156 603,0 912,-373 310,-373 310,-1098 z"
     transform="scale(0.015625)" /><path
     id="DejaVuSans-31-9"
     d="M 794,531 H 1825 V 4091 L 703,3866 v 575 l 1116,225 h 631 V 531 H 3481 V 0 H 794 Z"
     transform="scale(0.015625)" /><path
     id="DejaVuSans-32-22"
     d="M 1228,531 H 3431 V 0 H 469 v 531 q 359,372 979,998 621,627 780,809 303,340 423,576 121,236 121,464 0,372 -261,606 -261,235 -680,235 -297,0 -627,-103 -329,-103 -704,-313 v 638 q 381,153 712,231 332,78 607,78 725,0 1156,-363 431,-362 431,-968 0,-288 -108,-546 -107,-257 -392,-607 -78,-91 -497,-524 Q 1991,1309 1228,531 Z"
     transform="scale(0.015625)" /><path
     id="mf958e6126b"
     d="M 0,0 H -3.5"
     style="stroke:#000000;stroke-width:0.8" /><path
     id="DejaVuSans-30-8"
     d="m 2034,4250 q -487,0 -733,-480 -245,-479 -245,-1442 0,-959 245,-1439 246,-480 733,-480 491,0 736,480 246,480 246,1439 0,963 -246,1442 -245,480 -736,480 z m 0,500 q 785,0 1199,-621 414,-620 414,-1801 0,-1178 -414,-1799 -414,-620 -1199,-620 -784,0 -1198,620 -414,621 -414,1799 0,1181 414,1801 414,621 1198,621 z"
     transform="scale(0.015625)" /><path
     id="DejaVuSans-2e-9"
     d="m 684,794 h 660 V 0 H 684 Z"
     transform="scale(0.015625)" /><path
     id="DejaVuSans-35-7"
     d="M 691,4666 H 3169 V 4134 H 1269 V 2991 q 137,47 274,70 138,23 276,23 781,0 1237,-428 457,-428 457,-1159 Q 3513,744 3044,326 2575,-91 1722,-91 1428,-91 1123,-41 819,9 494,109 v 635 q 281,-153 581,-228 300,-75 634,-75 541,0 856,284 316,284 316,772 0,487 -316,771 -315,285 -856,285 -253,0 -505,-56 -251,-56 -513,-175 z"
     transform="scale(0.015625)" /><path
     id="DejaVuSans-37-3"
     d="M 525,4666 H 3525 V 4397 L 1831,0 H 1172 L 2766,4134 H 525 Z"
     transform="scale(0.015625)" /><path
     id="DejaVuSans-6d-6"
     d="m 3328,2828 q 216,388 516,572 300,184 706,184 547,0 844,-383 297,-382 297,-1088 V 0 h -578 v 2094 q 0,503 -179,746 -178,244 -543,244 -447,0 -707,-297 -259,-296 -259,-809 V 0 h -578 v 2094 q 0,506 -178,748 -178,242 -550,242 -441,0 -701,-298 -259,-298 -259,-808 V 0 H 581 v 3500 h 578 v -544 q 197,322 472,475 275,153 653,153 382,0 649,-194 267,-193 395,-562 z"
     transform="scale(0.015625)" /><path
     id="DejaVuSans-65-1"
     d="M 3597,1894 V 1613 H 953 q 38,-594 358,-905 320,-311 892,-311 331,0 642,81 311,81 618,244 V 178 Q 3153,47 2828,-22 2503,-91 2169,-91 1331,-91 842,396 353,884 353,1716 q 0,859 464,1363 464,505 1252,505 706,0 1117,-455 411,-454 411,-1235 z m -575,169 q -6,471 -264,752 -258,282 -683,282 -481,0 -770,-272 -289,-272 -333,-766 z"
     transform="scale(0.015625)" /><path
     id="DejaVuSans-20-2"
     transform="scale(0.015625)"
     d="" /><path
     id="DejaVuSans-67-9"
     d="m 2906,1791 q 0,625 -258,968 -257,344 -723,344 -462,0 -720,-344 -258,-343 -258,-968 0,-622 258,-966 258,-344 720,-344 466,0 723,344 258,344 258,966 z M 3481,434 q 0,-893 -397,-1329 -396,-436 -1215,-436 -303,0 -572,45 -269,45 -522,139 v 559 q 253,-137 500,-202 247,-66 503,-66 566,0 847,295 281,295 281,892 V 616 Q 2728,306 2450,153 2172,0 1784,0 1141,0 747,490 353,981 353,1791 q 0,812 394,1302 394,491 1037,491 388,0 666,-153 278,-153 456,-462 v 531 h 575 z"
     transform="scale(0.015625)" /><path
     id="DejaVuSans-28-3"
     d="m 1984,4856 q -418,-718 -622,-1422 -203,-703 -203,-1425 0,-721 205,-1429 205,-708 620,-1424 h -500 q -468,735 -701,1444 -233,709 -233,1409 0,697 231,1403 232,707 703,1444 z"
     transform="scale(0.015625)" /><path
     id="DejaVuSans-72-1"
     d="m 2631,2963 q -97,56 -211,82 -114,27 -251,27 -488,0 -749,-317 -261,-317 -261,-911 V 0 H 581 v 3500 h 578 v -544 q 182,319 472,473 291,155 707,155 59,0 131,-8 72,-7 159,-23 z"
     transform="scale(0.015625)" /><path
     id="DejaVuSans-73-9"
     d="m 2834,3397 v -544 q -243,125 -506,187 -262,63 -544,63 -428,0 -642,-131 -214,-131 -214,-394 0,-200 153,-314 153,-114 616,-217 l 197,-44 q 612,-131 870,-370 258,-239 258,-667 0,-488 -386,-773 Q 2250,-91 1575,-91 1294,-91 989,-36 684,19 347,128 v 594 q 319,-166 628,-249 309,-82 613,-82 406,0 624,139 219,139 219,392 0,234 -158,359 -157,125 -692,241 l -200,47 q -534,112 -772,345 -237,233 -237,639 0,494 350,762 350,269 994,269 318,0 599,-47 282,-46 519,-140 z"
     transform="scale(0.015625)" /><path
     id="DejaVuSans-29-4"
     d="m 513,4856 h 500 q 468,-737 701,-1444 233,-706 233,-1403 0,-700 -233,-1409 -233,-709 -701,-1444 H 513 q 415,716 620,1424 205,708 205,1429 0,722 -205,1425 -205,704 -620,1422 z"
     transform="scale(0.015625)" /><clipPath
     id="p58d5e87bdf"><rect
       x="53.743752"
       y="14.599219"
       width="150.70557"
       height="203.34265"
       id="rect78982" /></clipPath><clipPath
     id="clipPath85328"><rect
       x="53.743752"
       y="14.599219"
       width="150.70557"
       height="203.34265"
       id="rect85326" /></clipPath><clipPath
     id="clipPath85332"><rect
       x="53.743752"
       y="14.599219"
       width="150.70557"
       height="203.34265"
       id="rect85330" /></clipPath><clipPath
     id="clipPath85336"><rect
       x="53.743752"
       y="14.599219"
       width="150.70557"
       height="203.34265"
       id="rect85334" /></clipPath><clipPath
     id="clipPath85340"><rect
       x="53.743752"
       y="14.599219"
       width="150.70557"
       height="203.34265"
       id="rect85338" /></clipPath><clipPath
     id="clipPath85344"><rect
       x="53.743752"
       y="14.599219"
       width="150.70557"
       height="203.34265"
       id="rect85342" /></clipPath><clipPath
     id="clipPath85348"><rect
       x="53.743752"
       y="14.599219"
       width="150.70557"
       height="203.34265"
       id="rect85346" /></clipPath><clipPath
     id="clipPath85352"><rect
       x="53.743752"
       y="14.599219"
       width="150.70557"
       height="203.34265"
       id="rect85350" /></clipPath><clipPath
     id="clipPath85356"><rect
       x="53.743752"
       y="14.599219"
       width="150.70557"
       height="203.34265"
       id="rect85354" /></clipPath><clipPath
     id="clipPath85360"><rect
       x="53.743752"
       y="14.599219"
       width="150.70557"
       height="203.34265"
       id="rect85358" /></clipPath><clipPath
     id="clipPath85364"><rect
       x="53.743752"
       y="14.599219"
       width="150.70557"
       height="203.34265"
       id="rect85362" /></clipPath><clipPath
     id="clipPath85368"><rect
       x="53.743752"
       y="14.599219"
       width="150.70557"
       height="203.34265"
       id="rect85366" /></clipPath><clipPath
     id="clipPath85372"><rect
       x="53.743752"
       y="14.599219"
       width="150.70557"
       height="203.34265"
       id="rect85370" /></clipPath><clipPath
     id="clipPath85376"><rect
       x="53.743752"
       y="14.599219"
       width="150.70557"
       height="203.34265"
       id="rect85374" /></clipPath><path
     id="DejaVuSans-50-2"
     d="M 1259,4147 V 2394 h 794 q 441,0 681,228 241,228 241,650 0,419 -241,647 -240,228 -681,228 z m -631,519 h 1425 q 785,0 1186,-355 402,-355 402,-1039 0,-691 -402,-1044 -401,-353 -1186,-353 H 1259 V 0 H 628 Z"
     transform="scale(0.015625)" /><path
     id="DejaVuSans-6f-5"
     d="m 1959,3097 q -462,0 -731,-361 -269,-361 -269,-989 0,-628 267,-989 268,-361 733,-361 460,0 728,362 269,363 269,988 0,622 -269,986 -268,364 -728,364 z m 0,487 q 750,0 1178,-488 429,-487 429,-1349 Q 3566,888 3137,398 2709,-91 1959,-91 1206,-91 779,398 353,888 353,1747 q 0,862 426,1349 427,488 1180,488 z"
     transform="scale(0.015625)" /><path
     id="DejaVuSans-70-4"
     d="M 1159,525 V -1331 H 581 v 4831 h 578 v -531 q 182,312 458,463 277,152 661,152 638,0 1036,-506 399,-506 399,-1331 0,-825 -399,-1332 -398,-506 -1036,-506 -384,0 -661,152 -276,152 -458,464 z m 1957,1222 q 0,634 -261,995 -261,361 -717,361 -457,0 -718,-361 -261,-361 -261,-995 0,-634 261,-995 261,-361 718,-361 456,0 717,361 261,361 261,995 z"
     transform="scale(0.015625)" /><path
     id="DejaVuSans-75-7"
     d="m 544,1381 v 2119 h 575 V 1403 q 0,-497 193,-746 194,-248 582,-248 465,0 735,297 271,297 271,810 v 1984 h 575 V 0 H 2900 V 538 Q 2691,219 2414,64 2138,-91 1772,-91 1169,-91 856,284 544,659 544,1381 Z m 1447,2203 z"
     transform="scale(0.015625)" /><path
     id="DejaVuSans-6c-4"
     d="m 603,4863 h 575 V 0 H 603 Z"
     transform="scale(0.015625)" /><path
     id="DejaVuSans-61-4"
     d="m 2194,1759 q -697,0 -966,-159 -269,-159 -269,-544 0,-306 202,-486 202,-179 548,-179 479,0 768,339 289,339 289,901 v 128 z m 1147,238 V 0 H 2766 V 531 Q 2569,213 2275,61 1981,-91 1556,-91 q -537,0 -855,302 -317,302 -317,808 0,590 395,890 396,300 1180,300 h 807 v 57 q 0,397 -261,614 -261,217 -733,217 -300,0 -585,-72 -284,-72 -546,-216 v 532 q 315,122 612,182 297,61 578,61 760,0 1135,-394 375,-393 375,-1193 z"
     transform="scale(0.015625)" /><path
     id="DejaVuSans-74-30"
     d="M 1172,4494 V 3500 H 2356 V 3053 H 1172 V 1153 q 0,-428 117,-550 117,-122 477,-122 h 590 V 0 H 1766 Q 1100,0 847,248 594,497 594,1153 V 3053 H 172 v 447 h 422 v 994 z"
     transform="scale(0.015625)" /><path
     id="DejaVuSans-69-78"
     d="m 603,3500 h 575 V 0 H 603 Z m 0,1363 h 575 V 4134 H 603 Z"
     transform="scale(0.015625)" /><path
     id="DejaVuSans-6e-6"
     d="M 3513,2113 V 0 h -575 v 2094 q 0,497 -194,743 -194,247 -581,247 -466,0 -735,-297 -269,-296 -269,-809 V 0 H 581 v 3500 h 578 v -544 q 207,316 486,472 280,156 646,156 603,0 912,-373 310,-373 310,-1098 z"
     transform="scale(0.015625)" /><path
     id="DejaVuSans-31-8"
     d="M 794,531 H 1825 V 4091 L 703,3866 v 575 l 1116,225 h 631 V 531 H 3481 V 0 H 794 Z"
     transform="scale(0.015625)" /><path
     id="DejaVuSans-32-8"
     d="M 1228,531 H 3431 V 0 H 469 v 531 q 359,372 979,998 621,627 780,809 303,340 423,576 121,236 121,464 0,372 -261,606 -261,235 -680,235 -297,0 -627,-103 -329,-103 -704,-313 v 638 q 381,153 712,231 332,78 607,78 725,0 1156,-363 431,-362 431,-968 0,-288 -108,-546 -107,-257 -392,-607 -78,-91 -497,-524 Q 1991,1309 1228,531 Z"
     transform="scale(0.015625)" /><path
     id="m8d98683818"
     d="M 0,0 H -3.5"
     style="stroke:#000000;stroke-width:0.8" /><path
     id="DejaVuSans-30-4"
     d="m 2034,4250 q -487,0 -733,-480 -245,-479 -245,-1442 0,-959 245,-1439 246,-480 733,-480 491,0 736,480 246,480 246,1439 0,963 -246,1442 -245,480 -736,480 z m 0,500 q 785,0 1199,-621 414,-620 414,-1801 0,-1178 -414,-1799 -414,-620 -1199,-620 -784,0 -1198,620 -414,621 -414,1799 0,1181 414,1801 414,621 1198,621 z"
     transform="scale(0.015625)" /><path
     id="DejaVuSans-2e-3"
     d="m 684,794 h 660 V 0 H 684 Z"
     transform="scale(0.015625)" /><path
     id="DejaVuSans-35-1"
     d="M 691,4666 H 3169 V 4134 H 1269 V 2991 q 137,47 274,70 138,23 276,23 781,0 1237,-428 457,-428 457,-1159 Q 3513,744 3044,326 2575,-91 1722,-91 1428,-91 1123,-41 819,9 494,109 v 635 q 281,-153 581,-228 300,-75 634,-75 541,0 856,284 316,284 316,772 0,487 -316,771 -315,285 -856,285 -253,0 -505,-56 -251,-56 -513,-175 z"
     transform="scale(0.015625)" /><path
     id="DejaVuSans-37-4"
     d="M 525,4666 H 3525 V 4397 L 1831,0 H 1172 L 2766,4134 H 525 Z"
     transform="scale(0.015625)" /><path
     id="DejaVuSans-6d-92"
     d="m 3328,2828 q 216,388 516,572 300,184 706,184 547,0 844,-383 297,-382 297,-1088 V 0 h -578 v 2094 q 0,503 -179,746 -178,244 -543,244 -447,0 -707,-297 -259,-296 -259,-809 V 0 h -578 v 2094 q 0,506 -178,748 -178,242 -550,242 -441,0 -701,-298 -259,-298 -259,-808 V 0 H 581 v 3500 h 578 v -544 q 197,322 472,475 275,153 653,153 382,0 649,-194 267,-193 395,-562 z"
     transform="scale(0.015625)" /><path
     id="DejaVuSans-65-0"
     d="M 3597,1894 V 1613 H 953 q 38,-594 358,-905 320,-311 892,-311 331,0 642,81 311,81 618,244 V 178 Q 3153,47 2828,-22 2503,-91 2169,-91 1331,-91 842,396 353,884 353,1716 q 0,859 464,1363 464,505 1252,505 706,0 1117,-455 411,-454 411,-1235 z m -575,169 q -6,471 -264,752 -258,282 -683,282 -481,0 -770,-272 -289,-272 -333,-766 z"
     transform="scale(0.015625)" /><path
     id="DejaVuSans-20-68"
     transform="scale(0.015625)"
     d="" /><path
     id="DejaVuSans-67-92"
     d="m 2906,1791 q 0,625 -258,968 -257,344 -723,344 -462,0 -720,-344 -258,-343 -258,-968 0,-622 258,-966 258,-344 720,-344 466,0 723,344 258,344 258,966 z M 3481,434 q 0,-893 -397,-1329 -396,-436 -1215,-436 -303,0 -572,45 -269,45 -522,139 v 559 q 253,-137 500,-202 247,-66 503,-66 566,0 847,295 281,295 281,892 V 616 Q 2728,306 2450,153 2172,0 1784,0 1141,0 747,490 353,981 353,1791 q 0,812 394,1302 394,491 1037,491 388,0 666,-153 278,-153 456,-462 v 531 h 575 z"
     transform="scale(0.015625)" /><path
     id="DejaVuSans-28-66"
     d="m 1984,4856 q -418,-718 -622,-1422 -203,-703 -203,-1425 0,-721 205,-1429 205,-708 620,-1424 h -500 q -468,735 -701,1444 -233,709 -233,1409 0,697 231,1403 232,707 703,1444 z"
     transform="scale(0.015625)" /><path
     id="DejaVuSans-72-4"
     d="m 2631,2963 q -97,56 -211,82 -114,27 -251,27 -488,0 -749,-317 -261,-317 -261,-911 V 0 H 581 v 3500 h 578 v -544 q 182,319 472,473 291,155 707,155 59,0 131,-8 72,-7 159,-23 z"
     transform="scale(0.015625)" /><path
     id="DejaVuSans-73-95"
     d="m 2834,3397 v -544 q -243,125 -506,187 -262,63 -544,63 -428,0 -642,-131 -214,-131 -214,-394 0,-200 153,-314 153,-114 616,-217 l 197,-44 q 612,-131 870,-370 258,-239 258,-667 0,-488 -386,-773 Q 2250,-91 1575,-91 1294,-91 989,-36 684,19 347,128 v 594 q 319,-166 628,-249 309,-82 613,-82 406,0 624,139 219,139 219,392 0,234 -158,359 -157,125 -692,241 l -200,47 q -534,112 -772,345 -237,233 -237,639 0,494 350,762 350,269 994,269 318,0 599,-47 282,-46 519,-140 z"
     transform="scale(0.015625)" /><path
     id="DejaVuSans-29-0"
     d="m 513,4856 h 500 q 468,-737 701,-1444 233,-706 233,-1403 0,-700 -233,-1409 -233,-709 -701,-1444 H 513 q 415,716 620,1424 205,708 205,1429 0,722 -205,1425 -205,704 -620,1422 z"
     transform="scale(0.015625)" /><clipPath
     id="pe563191287"><rect
       x="53.743752"
       y="14.599219"
       width="150.70557"
       height="203.34265"
       id="rect93978" /></clipPath><clipPath
     id="clipPath97746"><rect
       x="53.743752"
       y="14.599219"
       width="150.70557"
       height="203.34265"
       id="rect97744" /></clipPath><clipPath
     id="clipPath97750"><rect
       x="53.743752"
       y="14.599219"
       width="150.70557"
       height="203.34265"
       id="rect97748" /></clipPath><clipPath
     id="clipPath97754"><rect
       x="53.743752"
       y="14.599219"
       width="150.70557"
       height="203.34265"
       id="rect97752" /></clipPath></defs><sodipodi:namedview
   id="namedview6943"
   pagecolor="#ffffff"
   bordercolor="#000000"
   borderopacity="0.25"
   inkscape:showpageshadow="2"
   inkscape:pageopacity="0.0"
   inkscape:pagecheckerboard="0"
   inkscape:deskcolor="#d1d1d1"
   showgrid="false"
   inkscape:zoom="1.2316372"
   inkscape:cx="193.64469"
   inkscape:cy="237.0828"
   inkscape:window-width="1223"
   inkscape:window-height="779"
   inkscape:window-x="57"
   inkscape:window-y="21"
   inkscape:window-maximized="1"
   inkscape:current-layer="patch_7" />
<style
   type="text/css"
   id="style6583">
	.st0{fill:#29ABE2;stroke:#29ABE2;stroke-miterlimit:10;}
	.st1{opacity:0.82;}
	.st2{fill:#FF0000;}
</style>
<g
   id="Слой_8">
</g>



<g
   id="Green_background">
</g>
<g
   id="Grass">
</g>
<g
   id="Main_bunnies">
</g>
<g
   id="Слой_10">
</g>
<g
   id="Слой_9">
</g>

<g
   id="patch_6"
   style="stroke-linecap:butt;stroke-linejoin:round"
   transform="matrix(1.5732345,0,0,1.5732345,20.406062,-11.383301)"><g
     id="patch_7"
     style="stroke-linecap:butt;stroke-linejoin:round"><g
       id="Time_scale"
       transform="matrix(0.63563315,0,0,0.63563315,-441.88161,-28.334149)">
	<g
   id="g6629">
		
	</g>
	<g
   id="g6667"
   transform="rotate(-81.459173,706.55311,431.02707)">
		<g
   id="g6635">
			<g
   id="g6633">
				<path
   d="m 877.8,413.3 c 0.7,10.6 2.2,21 4.3,31.4 0.4,1.9 3.3,1.1 2.9,-0.8 -2.1,-10.1 -3.5,-20.3 -4.2,-30.6 -0.2,-1.9 -3.2,-2 -3,0 z"
   id="path6631" />
			</g>
		</g>
		<g
   id="g6641">
			<g
   id="g6639">
				<path
   d="m 863.4,417 c 10.8,-1.8 21.5,-4 32.1,-6.8 1.9,-0.5 1.1,-3.4 -0.8,-2.9 -10.6,2.8 -21.3,5 -32.1,6.8 -1.9,0.3 -1.1,3.2 0.8,2.9 z"
   id="path6637" />
			</g>
		</g>
		<g
   id="g6647">
			<g
   id="g6645">
				<path
   d="m 892.5,427.6 c 0.4,4.1 1.3,8.1 2.7,11.9 0.6,1.8 3.5,1 2.9,-0.8 -1.3,-3.6 -2.2,-7.3 -2.6,-11.1 -0.2,-1.9 -3.2,-2 -3,0 z"
   id="path6643" />
			</g>
		</g>
		<g
   id="g6653">
			<g
   id="g6651">
				<path
   d="m 893.6,422.1 c 0,0.3 0.1,-0.4 0,-0.1 0.1,-0.2 0.1,-0.2 0,-0.1 0.1,-0.1 0.1,-0.1 0.2,-0.2 0.6,-0.5 0.5,-1.6 0,-2.1 -0.6,-0.6 -1.5,-0.5 -2.1,0 -0.8,0.6 -1.1,1.5 -1.2,2.5 0,0.8 0.7,1.5 1.5,1.5 0.9,0 1.6,-0.6 1.6,-1.5 z"
   id="path6649" />
			</g>
		</g>
		<g
   id="g6659">
			<g
   id="g6657">
				<path
   d="m 900.5,427.6 c 1.4,4.8 3.3,9.3 5.7,13.7 0.9,1.7 3.4,0.2 2.6,-1.5 -1,-1.9 -3.6,-13.2 1.2,-8.6 1.8,1.8 3,6.5 4,8.8 0.7,1.6 3.1,0.4 2.7,-1.2 -0.4,-1.7 -0.9,-3.3 -1.4,-4.9 -0.5,-1.5 -0.8,-3 -0.9,-4.6 1.5,-4.2 3.3,-5.1 5.5,-2.8 3.3,2.1 4.8,7.4 6.5,10.9 0.8,1.7 3.4,0.2 2.6,-1.5 -2.8,-5.9 -4.5,-14.5 -12.6,-13.5 -8.4,1.1 -3.7,12.4 -2.7,17.2 0.9,-0.4 1.8,-0.8 2.7,-1.2 -1.5,-3.2 -4.6,-15.2 -10.4,-11.8 -4.6,2.7 -1.7,11.1 0.1,14.6 0.9,-0.5 1.7,-1 2.6,-1.5 -2.3,-4.2 -4.1,-8.4 -5.4,-13 -0.4,-1.7 -3.3,-0.9 -2.8,0.9 z"
   id="path6655" />
			</g>
		</g>
		<g
   id="g6665">
			<g
   id="g6663">
				<path
   d="m 931.3,432.9 c 4.3,0 9.1,-2.8 8.3,-7.8 -0.7,-4.3 -5.7,-5.8 -9,-3.2 -4.2,3.3 -2.4,8.9 -0.1,12.7 2.8,4.8 8.8,3.9 13.1,1.7 1.7,-0.9 0.2,-3.5 -1.5,-2.6 -2.1,1 -5.5,2.2 -7.7,0.9 -1.8,-1.1 -3.3,-5.2 -3.3,-7.1 0,-1.3 0.6,-2.8 1.8,-3.4 1.6,-0.9 3.8,-0.2 3.9,1.8 0.3,3 -3,4 -5.4,4.1 -2,-0.1 -2,2.9 -0.1,2.9 z"
   id="path6661" />
			</g>
		</g>
	</g>
	<g
   id="g6707"
   transform="rotate(1.5276662,13636.938,1850.5535)">
		<g
   class="st1"
   id="g6673"
   style="opacity:0.82">
			<g
   id="g6671">
				<path
   d="m 667,411.5 c -0.5,9.7 -0.9,19.5 -1.4,29.2 -0.1,1.9 2.9,1.9 3,0 0.5,-9.7 0.9,-19.5 1.4,-29.2 0.1,-1.9 -2.9,-1.9 -3,0 z"
   id="path6669" />
			</g>
		</g>
		<g
   id="g6699">
			<g
   class="st1"
   id="g6679"
   style="opacity:0.82">
				<g
   id="g6677">
					<path
   d="m 670.2,414.1 c -0.1,-1.4 5,-0.4 5.3,-0.3 2.1,0.9 2.9,2.8 2.4,5 -0.9,3.8 -5.1,5.3 -8.5,6.2 -1.9,0.5 -1.1,3.4 0.8,2.9 5.8,-1.5 13.5,-6.4 10.1,-13.5 -1.4,-3 -4.7,-4 -7.8,-4 -2.3,0 -5.6,0.8 -5.4,3.7 0.3,2 3.3,2 3.1,0 z"
   id="path6675" />
				</g>
			</g>
			<g
   class="st1"
   id="g6685"
   style="opacity:0.82">
				<g
   id="g6683">
					<path
   d="m 689.5,428.6 c -1,-3.9 -5.5,-4.4 -8.5,-2.3 -3.4,2.4 -6.5,7.1 -5.3,11.3 1.1,3.8 5.2,5.1 8.6,3.4 4.7,-2.3 5,-7.8 4.8,-12.4 -1,0 -2,0 -3,0 0.3,4.5 2.3,8.2 6,10.9 1.6,1.1 3.1,-1.5 1.5,-2.6 -2.7,-2 -4.3,-4.9 -4.5,-8.3 -0.1,-1.9 -3.1,-1.9 -3,0 0.1,2.1 0.2,4.4 -0.5,6.5 -0.8,2.3 -3.5,4.8 -5.9,3 -2.2,-1.6 -1.1,-4.6 0.2,-6.5 0.9,-1.3 5.6,-6.4 6.6,-2.3 0.6,1.9 3.5,1.2 3,-0.7 z"
   id="path6681" />
				</g>
			</g>
			<g
   class="st1"
   id="g6691"
   style="opacity:0.82">
				<g
   id="g6689">
					<path
   d="m 699.3,424.1 c -3.5,-3.1 -9.1,0.6 -7.3,5.1 0.9,2.2 3.2,3.6 5.5,3.5 0.9,0 4.4,-1.5 5.1,-0.8 2.6,2.5 -4.9,3.4 -5.6,3.4 -1.9,0 -1.9,3 0,3 2.7,0.1 5.7,-0.5 7.7,-2.5 1.5,-1.4 2.2,-3.7 0.9,-5.4 -1.4,-1.7 -3.7,-1.8 -5.7,-1.3 -1.7,0.4 -3.9,1.4 -5,-0.7 -0.8,-1.4 0.9,-3.4 2.3,-2.2 1.4,1.3 3.5,-0.9 2.1,-2.1 z"
   id="path6687" />
				</g>
			</g>
			<g
   class="st1"
   id="g6697"
   style="opacity:0.82">
				<g
   id="g6695">
					<path
   d="m 709,415.6 c -0.4,3.4 -0.7,6.7 -0.7,10.1 0,2.2 0.1,4.6 1.5,6.4 3.2,4 8.3,1.1 11.2,-1.5 1.5,-1.2 -0.7,-3.4 -2.1,-2.1 -1,0.9 -3.2,2.9 -4.7,2.6 -2.8,-0.6 -2.9,-3.1 -2.9,-5.3 0,-3.4 0.3,-6.8 0.7,-10.1 0.2,-2 -2.8,-2 -3,-0.1 z"
   id="path6693" />
				</g>
			</g>
		</g>
		<g
   class="st1"
   id="g6705"
   style="opacity:0.82">
			<g
   id="g6703">
				<path
   d="m 702.4,427.1 c 5.6,-2 11.2,-3.7 17,-5 1.9,-0.4 1.1,-3.3 -0.8,-2.9 -5.8,1.3 -11.4,3 -17,5 -1.8,0.6 -1,3.5 0.8,2.9 z"
   id="path6701" />
			</g>
		</g>
	</g>
</g><g
       id="g6774"
       transform="matrix(0.63563315,0,0,0.63563315,-657.22012,69.869192)">
		<g
   id="g6766">
			<g
   id="g6752">
				<g
   id="g6750">
					<path
   d="m 1041.4,208.8 c 5.2,10.6 10.1,21.3 14.6,32.1 0.6,1.4 2.4,1.5 2.9,0 4.5,-12.4 -2.4,-25 0.3,-37.5 0.4,-1.9 -2.5,-2.7 -2.9,-0.8 -2.7,12.5 4.2,25.3 -0.3,37.5 1,0 1.9,0 2.9,0 -4.7,-11.1 -9.6,-22 -14.9,-32.8 -0.9,-1.8 -3.4,-0.3 -2.6,1.5 z"
   id="path6748" />
				</g>
			</g>
			<g
   id="g6758">
				<g
   id="g6756">
					<path
   d="m 1065.8,227.9 c -1,3.1 -2,6.6 -0.3,9.7 1.2,2.2 3.5,3.6 6,3.9 5.4,0.6 9.4,-4.1 9.2,-9.2 -0.2,-5.7 -5.8,-10 -11.3,-9.8 -5.3,0.2 -10,5.4 -6.7,10.4 1.1,1.6 3.6,0.1 2.6,-1.5 -2.7,-4.2 3,-6.5 6.4,-5.7 3.5,0.9 6.4,3.9 6.1,7.6 -0.3,3.3 -3,6 -6.4,5.1 -4.7,-1.2 -3.6,-6.3 -2.4,-9.7 0.3,-1.9 -2.6,-2.7 -3.2,-0.8 z"
   id="path6754" />
				</g>
			</g>
			<g
   id="g6764">
				<g
   id="g6762">
					<path
   d="m 1083.8,227.9 c 0.3,4.9 0.6,9.8 0.9,14.6 0.1,1.6 1.9,1.9 2.8,0.8 1.9,-2.5 3.7,-5 5.6,-7.5 -0.9,0 -1.7,0 -2.6,0 1.5,2.6 3,5.2 4.5,7.8 0.7,1.2 2.3,0.8 2.7,-0.4 1.8,-5.6 2.9,-11.3 3.1,-17.1 0.1,-1.9 -2.9,-1.9 -3,0 -0.2,5.6 -1.2,11 -3,16.3 0.9,-0.1 1.8,-0.2 2.7,-0.4 -1.5,-2.6 -3,-5.2 -4.5,-7.8 -0.6,-1.1 -1.9,-0.9 -2.6,0 -1.9,2.5 -3.7,5 -5.6,7.5 0.9,0.3 1.9,0.5 2.8,0.8 -0.3,-4.9 -0.6,-9.8 -0.9,-14.6 0,-1.9 -3,-1.9 -2.9,0 z"
   id="path6760" />
				</g>
			</g>
		</g>
		<g
   id="g6772">
			<g
   id="g6770">
				<path
   d="m 1040.2,209.3 c 0.7,11 1.3,22 2,33 0.1,1.9 3.1,1.9 3,0 -0.7,-11 -1.3,-22 -2,-33 -0.1,-1.9 -3.1,-2 -3,0 z"
   id="path6768" />
			</g>
		</g>
	</g></g></g></svg>
