<?xml version="1.0" encoding="UTF-8" standalone="no"?>
<!-- Generator: Adobe Illustrator 22.1.0, SVG Export Plug-In . SVG Version: 6.00 Build 0)  -->

<svg
   version="1.1"
   x="0px"
   y="0px"
   viewBox="0 0 449.99999 380.00001"
   xml:space="preserve"
   id="svg6941"
   sodipodi:docname="moments_hist.svg"
   width="450"
   height="380"
   inkscape:version="1.2.2 (1:1.2.2+202212051552+b0a8486541)"
   xmlns:inkscape="http://www.inkscape.org/namespaces/inkscape"
   xmlns:sodipodi="http://sodipodi.sourceforge.net/DTD/sodipodi-0.dtd"
   xmlns="http://www.w3.org/2000/svg"
   xmlns:svg="http://www.w3.org/2000/svg"><defs
   id="defs6945" /><sodipodi:namedview
   id="namedview6943"
   pagecolor="#ffffff"
   bordercolor="#000000"
   borderopacity="0.25"
   inkscape:showpageshadow="2"
   inkscape:pageopacity="0.0"
   inkscape:pagecheckerboard="0"
   inkscape:deskcolor="#d1d1d1"
   showgrid="false"
   inkscape:zoom="1.2826809"
   inkscape:cx="178.14251"
   inkscape:cy="264.2902"
   inkscape:window-width="1223"
   inkscape:window-height="779"
   inkscape:window-x="57"
   inkscape:window-y="21"
   inkscape:window-maximized="1"
   inkscape:current-layer="Time_scale" />
<style
   type="text/css"
   id="style6583">
	.st0{fill:#29ABE2;stroke:#29ABE2;stroke-miterlimit:10;}
	.st1{opacity:0.82;}
	.st2{fill:#FF0000;}
</style>
<g
   id="Слой_8">
</g>



<g
   id="Green_background">
</g>
<g
   id="Grass">
</g>
<g
   id="Main_bunnies">
</g>
<g
   id="Слой_10">
</g>
<g
   id="Слой_9">
</g>

<g
   id="Слой_16"
   transform="translate(-659.14159,-109.16357)">
	<path
   class="st0"
   d="M 1031.7,340.7"
   id="path6586"
   style="fill:#29abe2;stroke:#29abe2;stroke-miterlimit:10" />
	<path
   class="st0"
   d="M 1032.2,340.2"
   id="path6588"
   style="fill:#29abe2;stroke:#29abe2;stroke-miterlimit:10" />
	<path
   class="st0"
   d="M 1033.3,339.6"
   id="path6590"
   style="fill:#29abe2;stroke:#29abe2;stroke-miterlimit:10" />
	<path
   class="st0"
   d="M 1058.7,291.6"
   id="path6592"
   style="fill:#29abe2;stroke:#29abe2;stroke-miterlimit:10" />
	<polygon
   class="st0"
   points="758.6,340.2 762.8,340.2 762.8,321.8 713,321.8 713,340.2 734.3,340.2 "
   id="polygon6594"
   style="fill:#29abe2;stroke:#29abe2;stroke-miterlimit:10" />
	<polyline
   class="st0"
   points="800.7,340.5 800.7,312.1 784.6,312 773.6,312 762.1,321.8 763.5,340.4  "
   id="polyline6596"
   style="fill:#29abe2;stroke:#29abe2;stroke-miterlimit:10" />
	<polyline
   class="st0"
   points="853.4,292.3 838.3,293.4 826.5,303.6 811.2,304.6 799.5,312.1 800.7,340.2 820.6,340.2 834.8,340.2    847.5,340.2 853.4,340.2 853.4,292.3  "
   id="polyline6598"
   style="fill:#29abe2;stroke:#29abe2;stroke-miterlimit:10" />
	<polyline
   class="st0"
   points="891,253 882.5,263.2 874.5,272.8 863.4,283.6 853.4,292.3 853.4,340.2 873,340.2 892.7,339.5  "
   id="polyline6600"
   style="fill:#29abe2;stroke:#29abe2;stroke-miterlimit:10" />
	<polyline
   class="st0"
   points="892.7,380.6 930.2,380.6 930.2,340.2 897.7,340.2 891.7,340.2  "
   id="polyline6602"
   style="fill:#29abe2;stroke:#29abe2;stroke-miterlimit:10" />
	<polyline
   class="st0"
   points="891.3,254.3 928.9,254.3 928.9,203.3 896.4,203.3 890.4,203.3  "
   id="polyline6604"
   style="fill:#29abe2;stroke:#29abe2;stroke-miterlimit:10" />
	<polyline
   class="st0"
   points="929.4,254.3 966.9,254.3 966.9,214.5 953.8,214.7 940.5,203.3 928.4,203.3  "
   id="polyline6606"
   style="fill:#29abe2;stroke:#29abe2;stroke-miterlimit:10" />
	<polyline
   class="st0"
   points="967.3,254.3 1004.8,254.3 1004.8,214.7 972.3,214.7 966.3,214.7  "
   id="polyline6608"
   style="fill:#29abe2;stroke:#29abe2;stroke-miterlimit:10" />
	<polyline
   class="st0"
   points="1004.8,254.3 1032.9,254.3 1032.2,203.3 1012.8,203.3 1003.8,214.7  "
   id="polyline6610"
   style="fill:#29abe2;stroke:#29abe2;stroke-miterlimit:10" />
	<polyline
   class="st0"
   points="930.1,380.8 939.7,369.3 952,369 967.2,360.4 966.9,340.2 934.4,340.2 928.4,340.2  "
   id="polyline6612"
   style="fill:#29abe2;stroke:#29abe2;stroke-miterlimit:10" />
	<polyline
   class="st0"
   points="967.1,340.2 973.1,340.2 1005.6,340.2 1005.6,380.8 991.5,380.8 978.8,370.2 967.2,360.4  "
   id="polyline6614"
   style="fill:#29abe2;stroke:#29abe2;stroke-miterlimit:10" />
	<polyline
   class="st0"
   points="1005.6,380.8 1016.3,371.3 1033.3,371.9 1033.3,339.6 1011,340.2 1005,340.2  "
   id="polyline6616"
   style="fill:#29abe2;stroke:#29abe2;stroke-miterlimit:10" />
	<g
   id="g6622">
		<g
   id="g6620">
			<path
   d="m 1009,335.5 c -8.4,-23.7 -11.2,-49.3 -2.8,-73.4 0.6,-1.7 -1.8,-2.4 -2.7,-1.2 -2,2.8 -4.1,5.5 -6.1,8.3 0.9,0.5 1.7,1 2.6,1.5 1.6,-3.6 3.6,-6.6 6.3,-9.4 -0.9,-0.4 -1.7,-0.7 -2.6,-1.1 0.4,4.2 0.5,8.4 0.3,12.6 -0.1,1.9 2.9,1.9 3,0 0.2,-4.2 0.1,-8.4 -0.3,-12.6 -0.1,-1.2 -1.6,-2.1 -2.6,-1.1 -2.8,3 -5.1,6.3 -6.8,10.1 -0.8,1.8 1.4,3.1 2.6,1.5 2,-2.8 4.1,-5.5 6.1,-8.3 -0.9,-0.4 -1.8,-0.8 -2.7,-1.2 -8.6,24.5 -5.7,50.9 2.8,75 0.7,1.9 3.6,1.1 2.9,-0.7 z"
   id="path6618" />
		</g>
	</g>
</g><g
   id="Time_scale"
   transform="translate(-659.14159,-109.16357)"
   style="stroke-width:1;stroke-dasharray:none">
	<g
   id="g6629"
   style="stroke-width:1;stroke-dasharray:none">
		<g
   id="g6627"
   style="stroke-width:1;stroke-dasharray:none">
			<path
   d="m 695.6,409.9 c 99.6,-4 199.4,-5.1 299.1,-3.3 28.2,0.5 56.3,1.3 84.4,2.3 1.5,0.1 2,-2.1 0.8,-2.8 -4.5,-2.5 -9.2,-4.2 -14.2,-5.1 -1.9,-0.3 -2.7,2.5 -0.8,2.9 8.5,1.7 16.9,3.4 25.4,5.1 0,-1 0,-1.9 0,-2.9 -7.8,2.3 -15.6,4.6 -23.4,6.9 -1.8,0.5 -1.1,3.4 0.8,2.9 7.8,-2.3 15.6,-4.6 23.4,-6.9 1.3,-0.4 1.5,-2.6 0,-2.9 -8.5,-1.7 -16.9,-3.4 -25.4,-5.1 -0.3,1 -0.5,1.9 -0.8,2.9 4.8,0.9 9.2,2.4 13.5,4.8 0.3,-0.9 0.5,-1.9 0.8,-2.8 -99.6,-3.5 -199.4,-4.1 -299.1,-1.7 -28.1,0.7 -56.3,1.6 -84.4,2.7 -2,0.1 -2,3.1 -0.1,3 z"
   id="path6625"
   style="stroke-width:1;stroke-dasharray:none" />
		</g>
	</g>
	<g
   id="g6667"
   style="stroke-width:1;stroke-dasharray:none">
		<g
   id="g6635"
   style="stroke-width:1;stroke-dasharray:none">
			<g
   id="g6633"
   style="stroke-width:1;stroke-dasharray:none">
				<path
   d="m 877.8,413.3 c 0.7,10.6 2.2,21 4.3,31.4 0.4,1.9 3.3,1.1 2.9,-0.8 -2.1,-10.1 -3.5,-20.3 -4.2,-30.6 -0.2,-1.9 -3.2,-2 -3,0 z"
   id="path6631"
   style="stroke-width:1;stroke-dasharray:none" />
			</g>
		</g>
		<g
   id="g6641"
   style="stroke-width:1;stroke-dasharray:none">
			<g
   id="g6639"
   style="stroke-width:1;stroke-dasharray:none">
				<path
   d="m 863.4,417 c 10.8,-1.8 21.5,-4 32.1,-6.8 1.9,-0.5 1.1,-3.4 -0.8,-2.9 -10.6,2.8 -21.3,5 -32.1,6.8 -1.9,0.3 -1.1,3.2 0.8,2.9 z"
   id="path6637"
   style="stroke-width:1;stroke-dasharray:none" />
			</g>
		</g>
		<g
   id="g6647"
   style="stroke-width:1;stroke-dasharray:none">
			<g
   id="g6645"
   style="stroke-width:1;stroke-dasharray:none">
				<path
   d="m 892.5,427.6 c 0.4,4.1 1.3,8.1 2.7,11.9 0.6,1.8 3.5,1 2.9,-0.8 -1.3,-3.6 -2.2,-7.3 -2.6,-11.1 -0.2,-1.9 -3.2,-2 -3,0 z"
   id="path6643"
   style="stroke-width:1;stroke-dasharray:none" />
			</g>
		</g>
		<g
   id="g6653"
   style="stroke-width:1;stroke-dasharray:none">
			<g
   id="g6651"
   style="stroke-width:1;stroke-dasharray:none">
				<path
   d="m 893.6,422.1 c 0,0.3 0.1,-0.4 0,-0.1 0.1,-0.2 0.1,-0.2 0,-0.1 0.1,-0.1 0.1,-0.1 0.2,-0.2 0.6,-0.5 0.5,-1.6 0,-2.1 -0.6,-0.6 -1.5,-0.5 -2.1,0 -0.8,0.6 -1.1,1.5 -1.2,2.5 0,0.8 0.7,1.5 1.5,1.5 0.9,0 1.6,-0.6 1.6,-1.5 z"
   id="path6649"
   style="stroke-width:1;stroke-dasharray:none" />
			</g>
		</g>
		<g
   id="g6659"
   style="stroke-width:1;stroke-dasharray:none">
			<g
   id="g6657"
   style="stroke-width:1;stroke-dasharray:none">
				<path
   d="m 900.5,427.6 c 1.4,4.8 3.3,9.3 5.7,13.7 0.9,1.7 3.4,0.2 2.6,-1.5 -1,-1.9 -3.6,-13.2 1.2,-8.6 1.8,1.8 3,6.5 4,8.8 0.7,1.6 3.1,0.4 2.7,-1.2 -0.4,-1.7 -0.9,-3.3 -1.4,-4.9 -0.5,-1.5 -0.8,-3 -0.9,-4.6 1.5,-4.2 3.3,-5.1 5.5,-2.8 3.3,2.1 4.8,7.4 6.5,10.9 0.8,1.7 3.4,0.2 2.6,-1.5 -2.8,-5.9 -4.5,-14.5 -12.6,-13.5 -8.4,1.1 -3.7,12.4 -2.7,17.2 0.9,-0.4 1.8,-0.8 2.7,-1.2 -1.5,-3.2 -4.6,-15.2 -10.4,-11.8 -4.6,2.7 -1.7,11.1 0.1,14.6 0.9,-0.5 1.7,-1 2.6,-1.5 -2.3,-4.2 -4.1,-8.4 -5.4,-13 -0.4,-1.7 -3.3,-0.9 -2.8,0.9 z"
   id="path6655"
   style="stroke-width:1;stroke-dasharray:none" />
			</g>
		</g>
		<g
   id="g6665"
   style="stroke-width:1;stroke-dasharray:none">
			<g
   id="g6663"
   style="stroke-width:1;stroke-dasharray:none">
				<path
   d="m 931.3,432.9 c 4.3,0 9.1,-2.8 8.3,-7.8 -0.7,-4.3 -5.7,-5.8 -9,-3.2 -4.2,3.3 -2.4,8.9 -0.1,12.7 2.8,4.8 8.8,3.9 13.1,1.7 1.7,-0.9 0.2,-3.5 -1.5,-2.6 -2.1,1 -5.5,2.2 -7.7,0.9 -1.8,-1.1 -3.3,-5.2 -3.3,-7.1 0,-1.3 0.6,-2.8 1.8,-3.4 1.6,-0.9 3.8,-0.2 3.9,1.8 0.3,3 -3,4 -5.4,4.1 -2,-0.1 -2,2.9 -0.1,2.9 z"
   id="path6661"
   style="stroke-width:1;stroke-dasharray:none" />
			</g>
		</g>
	</g>
	<g
   id="g6707"
   style="stroke-width:1;stroke-dasharray:none">
		<g
   class="st1"
   id="g6673"
   style="opacity:0.82;stroke-width:1;stroke-dasharray:none">
			<g
   id="g6671"
   style="stroke-width:1;stroke-dasharray:none">
				<path
   d="m 667,411.5 c -0.5,9.7 -0.9,19.5 -1.4,29.2 -0.1,1.9 2.9,1.9 3,0 0.5,-9.7 0.9,-19.5 1.4,-29.2 0.1,-1.9 -2.9,-1.9 -3,0 z"
   id="path6669"
   style="stroke-width:1;stroke-dasharray:none" />
			</g>
		</g>
		<g
   id="g6699"
   style="stroke-width:1;stroke-dasharray:none">
			<g
   class="st1"
   id="g6679"
   style="opacity:0.82;stroke-width:1;stroke-dasharray:none">
				<g
   id="g6677"
   style="stroke-width:1;stroke-dasharray:none">
					<path
   d="m 670.2,414.1 c -0.1,-1.4 5,-0.4 5.3,-0.3 2.1,0.9 2.9,2.8 2.4,5 -0.9,3.8 -5.1,5.3 -8.5,6.2 -1.9,0.5 -1.1,3.4 0.8,2.9 5.8,-1.5 13.5,-6.4 10.1,-13.5 -1.4,-3 -4.7,-4 -7.8,-4 -2.3,0 -5.6,0.8 -5.4,3.7 0.3,2 3.3,2 3.1,0 z"
   id="path6675"
   style="stroke-width:1;stroke-dasharray:none" />
				</g>
			</g>
			<g
   class="st1"
   id="g6685"
   style="opacity:0.82;stroke-width:1;stroke-dasharray:none">
				<g
   id="g6683"
   style="stroke-width:1;stroke-dasharray:none">
					<path
   d="m 689.5,428.6 c -1,-3.9 -5.5,-4.4 -8.5,-2.3 -3.4,2.4 -6.5,7.1 -5.3,11.3 1.1,3.8 5.2,5.1 8.6,3.4 4.7,-2.3 5,-7.8 4.8,-12.4 -1,0 -2,0 -3,0 0.3,4.5 2.3,8.2 6,10.9 1.6,1.1 3.1,-1.5 1.5,-2.6 -2.7,-2 -4.3,-4.9 -4.5,-8.3 -0.1,-1.9 -3.1,-1.9 -3,0 0.1,2.1 0.2,4.4 -0.5,6.5 -0.8,2.3 -3.5,4.8 -5.9,3 -2.2,-1.6 -1.1,-4.6 0.2,-6.5 0.9,-1.3 5.6,-6.4 6.6,-2.3 0.6,1.9 3.5,1.2 3,-0.7 z"
   id="path6681"
   style="stroke-width:1;stroke-dasharray:none" />
				</g>
			</g>
			<g
   class="st1"
   id="g6691"
   style="opacity:0.82;stroke-width:1;stroke-dasharray:none">
				<g
   id="g6689"
   style="stroke-width:1;stroke-dasharray:none">
					<path
   d="m 699.3,424.1 c -3.5,-3.1 -9.1,0.6 -7.3,5.1 0.9,2.2 3.2,3.6 5.5,3.5 0.9,0 4.4,-1.5 5.1,-0.8 2.6,2.5 -4.9,3.4 -5.6,3.4 -1.9,0 -1.9,3 0,3 2.7,0.1 5.7,-0.5 7.7,-2.5 1.5,-1.4 2.2,-3.7 0.9,-5.4 -1.4,-1.7 -3.7,-1.8 -5.7,-1.3 -1.7,0.4 -3.9,1.4 -5,-0.7 -0.8,-1.4 0.9,-3.4 2.3,-2.2 1.4,1.3 3.5,-0.9 2.1,-2.1 z"
   id="path6687"
   style="stroke-width:1;stroke-dasharray:none" />
				</g>
			</g>
			<g
   class="st1"
   id="g6697"
   style="opacity:0.82;stroke-width:1;stroke-dasharray:none">
				<g
   id="g6695"
   style="stroke-width:1;stroke-dasharray:none">
					<path
   d="m 709,415.6 c -0.4,3.4 -0.7,6.7 -0.7,10.1 0,2.2 0.1,4.6 1.5,6.4 3.2,4 8.3,1.1 11.2,-1.5 1.5,-1.2 -0.7,-3.4 -2.1,-2.1 -1,0.9 -3.2,2.9 -4.7,2.6 -2.8,-0.6 -2.9,-3.1 -2.9,-5.3 0,-3.4 0.3,-6.8 0.7,-10.1 0.2,-2 -2.8,-2 -3,-0.1 z"
   id="path6693"
   style="stroke-width:1;stroke-dasharray:none" />
				</g>
			</g>
		</g>
		<g
   class="st1"
   id="g6705"
   style="opacity:0.82;stroke-width:1;stroke-dasharray:none">
			<g
   id="g6703"
   style="stroke-width:1;stroke-dasharray:none">
				<path
   d="m 702.4,427.1 c 5.6,-2 11.2,-3.7 17,-5 1.9,-0.4 1.1,-3.3 -0.8,-2.9 -5.8,1.3 -11.4,3 -17,5 -1.8,0.6 -1,3.5 0.8,2.9 z"
   id="path6701"
   style="stroke-width:1;stroke-dasharray:none" />
			</g>
		</g>
	</g>
</g><g
   id="Now_line"
   transform="translate(-659.14159,-109.16357)">
	<g
   id="g6746">
		<g
   id="g6714">
			<g
   id="g6712">
				<path
   class="st2"
   d="m 1029.6,202.9 c 1.1,10.5 1.5,20.9 1.1,31.5 -0.1,1.9 2.9,1.9 3,0 0.4,-10.5 0,-21 -1.1,-31.5 -0.2,-1.9 -3.2,-1.9 -3,0 z"
   id="path6710"
   style="fill:#ff0000" />
			</g>
		</g>
		<g
   id="g6720">
			<g
   id="g6718">
				<path
   class="st2"
   d="m 1028.8,256.2 c 1,9 1.7,18 2.1,27 0.1,1.9 3.1,1.9 3,0 -0.4,-9 -1.1,-18 -2.1,-27 -0.3,-1.9 -3.3,-1.9 -3,0 z"
   id="path6716"
   style="fill:#ff0000" />
			</g>
		</g>
		<g
   id="g6726">
			<g
   id="g6724">
				<path
   class="st2"
   d="m 1034,298.6 c 0,-0.2 0,-0.3 0,-0.5 0,-0.7 -0.5,-1.2 -1.1,-1.4 -0.2,-0.1 -0.3,-0.1 -0.5,-0.2 -0.6,-0.2 -1.4,0.1 -1.7,0.7 -1.5,2.5 -0.5,6.7 -0.4,9.5 0.1,5 0.2,10 0.3,15 0,1.9 3,1.9 3,0 -0.1,-4.1 -0.2,-8.1 -0.3,-12.2 0,-2.3 -1.2,-8.8 -0.1,-10.8 -0.6,0.2 -1.1,0.5 -1.7,0.7 0.2,0.1 0.3,0.1 0.5,0.2 -0.4,-0.5 -0.7,-1 -1.1,-1.4 0,0.2 0,0.3 0,0.5 0,1.9 3,1.9 3.1,-0.1 z"
   id="path6722"
   style="fill:#ff0000" />
			</g>
		</g>
		<g
   id="g6732">
			<g
   id="g6730">
				<path
   class="st2"
   d="m 1031.8,341 c -0.1,10.1 -0.1,20.2 -0.2,30.3 0,1.9 3,1.9 3,0 0.1,-10.1 0.1,-20.2 0.2,-30.3 0,-2 -3,-2 -3,0 z"
   id="path6728"
   style="fill:#ff0000" />
			</g>
		</g>
		<g
   id="g6738">
			<g
   id="g6736">
				<path
   class="st2"
   d="m 1030.2,386.9 c 1.6,7.3 2.5,14.7 2.5,22.2 0,1.9 3,1.9 3,0 0,-7.8 -0.9,-15.4 -2.6,-23 -0.4,-1.9 -3.3,-1.1 -2.9,0.8 z"
   id="path6734"
   style="fill:#ff0000" />
			</g>
		</g>
		<g
   id="g6744">
			<g
   id="g6742">
				<path
   class="st2"
   d="m 1033.5,420.1 c -0.1,0 -0.2,-0.1 -0.3,-0.1 0.4,0.5 0.7,1 1.1,1.4 0,-0.2 0.1,-0.3 0.1,-0.5 -0.3,0.3 -0.7,0.7 -1,1 -1.5,0.6 1,11.8 1.3,13.7 0.3,1.9 3.2,1.1 2.9,-0.8 -0.4,-2.6 -0.7,-5.1 -1.1,-7.7 -0.3,-2.1 -0.2,-5 -1.2,-6.9 -1.2,-2.1 -4.2,-1.5 -3.9,1.1 0.1,0.7 0.4,1.2 1.1,1.4 0.1,0 0.2,0.1 0.3,0.1 1.7,0.8 2.5,-2 0.7,-2.7 z"
   id="path6740"
   style="fill:#ff0000" />
			</g>
		</g>
	</g>
	<g
   id="g6774"
   style="stroke-width:1;stroke-dasharray:none">
		<g
   id="g6766"
   style="stroke-width:1;stroke-dasharray:none">
			<g
   id="g6752"
   style="stroke-width:1;stroke-dasharray:none">
				<g
   id="g6750"
   style="stroke-width:1;stroke-dasharray:none">
					<path
   d="m 1041.4,208.8 c 5.2,10.6 10.1,21.3 14.6,32.1 0.6,1.4 2.4,1.5 2.9,0 4.5,-12.4 -2.4,-25 0.3,-37.5 0.4,-1.9 -2.5,-2.7 -2.9,-0.8 -2.7,12.5 4.2,25.3 -0.3,37.5 1,0 1.9,0 2.9,0 -4.7,-11.1 -9.6,-22 -14.9,-32.8 -0.9,-1.8 -3.4,-0.3 -2.6,1.5 z"
   id="path6748"
   style="stroke-width:1;stroke-dasharray:none" />
				</g>
			</g>
			<g
   id="g6758"
   style="stroke-width:1;stroke-dasharray:none">
				<g
   id="g6756"
   style="stroke-width:1;stroke-dasharray:none">
					<path
   d="m 1065.8,227.9 c -1,3.1 -2,6.6 -0.3,9.7 1.2,2.2 3.5,3.6 6,3.9 5.4,0.6 9.4,-4.1 9.2,-9.2 -0.2,-5.7 -5.8,-10 -11.3,-9.8 -5.3,0.2 -10,5.4 -6.7,10.4 1.1,1.6 3.6,0.1 2.6,-1.5 -2.7,-4.2 3,-6.5 6.4,-5.7 3.5,0.9 6.4,3.9 6.1,7.6 -0.3,3.3 -3,6 -6.4,5.1 -4.7,-1.2 -3.6,-6.3 -2.4,-9.7 0.3,-1.9 -2.6,-2.7 -3.2,-0.8 z"
   id="path6754"
   style="stroke-width:1;stroke-dasharray:none" />
				</g>
			</g>
			<g
   id="g6764"
   style="stroke-width:1;stroke-dasharray:none">
				<g
   id="g6762"
   style="stroke-width:1;stroke-dasharray:none">
					<path
   d="m 1083.8,227.9 c 0.3,4.9 0.6,9.8 0.9,14.6 0.1,1.6 1.9,1.9 2.8,0.8 1.9,-2.5 3.7,-5 5.6,-7.5 -0.9,0 -1.7,0 -2.6,0 1.5,2.6 3,5.2 4.5,7.8 0.7,1.2 2.3,0.8 2.7,-0.4 1.8,-5.6 2.9,-11.3 3.1,-17.1 0.1,-1.9 -2.9,-1.9 -3,0 -0.2,5.6 -1.2,11 -3,16.3 0.9,-0.1 1.8,-0.2 2.7,-0.4 -1.5,-2.6 -3,-5.2 -4.5,-7.8 -0.6,-1.1 -1.9,-0.9 -2.6,0 -1.9,2.5 -3.7,5 -5.6,7.5 0.9,0.3 1.9,0.5 2.8,0.8 -0.3,-4.9 -0.6,-9.8 -0.9,-14.6 0,-1.9 -3,-1.9 -2.9,0 z"
   id="path6760"
   style="stroke-width:1;stroke-dasharray:none" />
				</g>
			</g>
		</g>
		<g
   id="g6772"
   style="stroke-width:1;stroke-dasharray:none">
			<g
   id="g6770"
   style="stroke-width:1;stroke-dasharray:none">
				<path
   d="m 1040.2,209.3 c 0.7,11 1.3,22 2,33 0.1,1.9 3.1,1.9 3,0 -0.7,-11 -1.3,-22 -2,-33 -0.1,-1.9 -3.1,-2 -3,0 z"
   id="path6768"
   style="stroke-width:1;stroke-dasharray:none" />
			</g>
		</g>
	</g>
</g></svg>
