<?xml version="1.0" encoding="UTF-8" standalone="no"?>
<!-- Generator: Adobe Illustrator 22.1.0, SVG Export Plug-In . SVG Version: 6.00 Build 0)  -->

<svg
   version="1.1"
   x="0px"
   y="0px"
   viewBox="0 0 449.99999 380.00001"
   xml:space="preserve"
   id="svg6941"
   sodipodi:docname="moments_rotated.svg"
   width="450"
   height="380"
   inkscape:version="1.2.2 (1:1.2.2+202212051552+b0a8486541)"
   xmlns:inkscape="http://www.inkscape.org/namespaces/inkscape"
   xmlns:sodipodi="http://sodipodi.sourceforge.net/DTD/sodipodi-0.dtd"
   xmlns="http://www.w3.org/2000/svg"
   xmlns:svg="http://www.w3.org/2000/svg"><defs
   id="defs6945" /><sodipodi:namedview
   id="namedview6943"
   pagecolor="#ffffff"
   bordercolor="#000000"
   borderopacity="0.25"
   inkscape:showpageshadow="2"
   inkscape:pageopacity="0.0"
   inkscape:pagecheckerboard="0"
   inkscape:deskcolor="#d1d1d1"
   showgrid="false"
   inkscape:zoom="0.53"
   inkscape:cx="40.566038"
   inkscape:cy="256.60377"
   inkscape:window-width="1223"
   inkscape:window-height="779"
   inkscape:window-x="57"
   inkscape:window-y="21"
   inkscape:window-maximized="1"
   inkscape:current-layer="svg6941" />
<style
   type="text/css"
   id="style6583">
	.st0{fill:#29ABE2;stroke:#29ABE2;stroke-miterlimit:10;}
	.st1{opacity:0.82;}
	.st2{fill:#FF0000;}
</style>
<g
   id="Слой_8">
</g>



<g
   id="Green_background">
</g>
<g
   id="Grass">
</g>
<g
   id="Main_bunnies">
</g>
<g
   id="Слой_10">
</g>
<g
   id="Слой_9">
</g>

<g
   id="Слой_16"
   transform="rotate(90,610.61099,-92.10258)">
	<path
   class="st0"
   d="M 1031.7,340.7"
   id="path6586"
   style="fill:#29abe2;stroke:#29abe2;stroke-miterlimit:10" />
	<path
   class="st0"
   d="M 1032.2,340.2"
   id="path6588"
   style="fill:#29abe2;stroke:#29abe2;stroke-miterlimit:10" />
	<path
   class="st0"
   d="M 1033.3,339.6"
   id="path6590"
   style="fill:#29abe2;stroke:#29abe2;stroke-miterlimit:10" />
	<path
   class="st0"
   d="M 1058.7,291.6"
   id="path6592"
   style="fill:#29abe2;stroke:#29abe2;stroke-miterlimit:10" />
	<polygon
   class="st0"
   points="762.8,340.2 762.8,321.8 713,321.8 713,340.2 734.3,340.2 758.6,340.2 "
   id="polygon6594"
   style="fill:#29abe2;stroke:#29abe2;stroke-miterlimit:10" />
	<polyline
   class="st0"
   points="800.7,340.5 800.7,312.1 784.6,312 773.6,312 762.1,321.8 763.5,340.4  "
   id="polyline6596"
   style="fill:#29abe2;stroke:#29abe2;stroke-miterlimit:10" />
	<polyline
   class="st0"
   points="853.4,292.3 838.3,293.4 826.5,303.6 811.2,304.6 799.5,312.1 800.7,340.2 820.6,340.2 834.8,340.2    847.5,340.2 853.4,340.2 853.4,292.3  "
   id="polyline6598"
   style="fill:#29abe2;stroke:#29abe2;stroke-miterlimit:10" />
	<polyline
   class="st0"
   points="891,253 882.5,263.2 874.5,272.8 863.4,283.6 853.4,292.3 853.4,340.2 873,340.2 892.7,339.5  "
   id="polyline6600"
   style="fill:#29abe2;stroke:#29abe2;stroke-miterlimit:10" />
	<polyline
   class="st0"
   points="892.7,380.6 930.2,380.6 930.2,340.2 897.7,340.2 891.7,340.2  "
   id="polyline6602"
   style="fill:#29abe2;stroke:#29abe2;stroke-miterlimit:10" />
	<polyline
   class="st0"
   points="891.3,254.3 928.9,254.3 928.9,203.3 896.4,203.3 890.4,203.3  "
   id="polyline6604"
   style="fill:#29abe2;stroke:#29abe2;stroke-miterlimit:10" />
	<polyline
   class="st0"
   points="929.4,254.3 966.9,254.3 966.9,214.5 953.8,214.7 940.5,203.3 928.4,203.3  "
   id="polyline6606"
   style="fill:#29abe2;stroke:#29abe2;stroke-miterlimit:10" />
	<polyline
   class="st0"
   points="967.3,254.3 1004.8,254.3 1004.8,214.7 972.3,214.7 966.3,214.7  "
   id="polyline6608"
   style="fill:#29abe2;stroke:#29abe2;stroke-miterlimit:10" />
	<polyline
   class="st0"
   points="1004.8,254.3 1032.9,254.3 1032.2,203.3 1012.8,203.3 1003.8,214.7  "
   id="polyline6610"
   style="fill:#29abe2;stroke:#29abe2;stroke-miterlimit:10" />
	<polyline
   class="st0"
   points="930.1,380.8 939.7,369.3 952,369 967.2,360.4 966.9,340.2 934.4,340.2 928.4,340.2  "
   id="polyline6612"
   style="fill:#29abe2;stroke:#29abe2;stroke-miterlimit:10" />
	<polyline
   class="st0"
   points="967.1,340.2 973.1,340.2 1005.6,340.2 1005.6,380.8 991.5,380.8 978.8,370.2 967.2,360.4  "
   id="polyline6614"
   style="fill:#29abe2;stroke:#29abe2;stroke-miterlimit:10" />
	<polyline
   class="st0"
   points="1005.6,380.8 1016.3,371.3 1033.3,371.9 1033.3,339.6 1011,340.2 1005,340.2  "
   id="polyline6616"
   style="fill:#29abe2;stroke:#29abe2;stroke-miterlimit:10" />
	<g
   id="g6622">
		<g
   id="g6620">
			<path
   d="m 1009,335.5 c -8.4,-23.7 -11.2,-49.3 -2.8,-73.4 0.6,-1.7 -1.8,-2.4 -2.7,-1.2 -2,2.8 -4.1,5.5 -6.1,8.3 0.9,0.5 1.7,1 2.6,1.5 1.6,-3.6 3.6,-6.6 6.3,-9.4 -0.9,-0.4 -1.7,-0.7 -2.6,-1.1 0.4,4.2 0.5,8.4 0.3,12.6 -0.1,1.9 2.9,1.9 3,0 0.2,-4.2 0.1,-8.4 -0.3,-12.6 -0.1,-1.2 -1.6,-2.1 -2.6,-1.1 -2.8,3 -5.1,6.3 -6.8,10.1 -0.8,1.8 1.4,3.1 2.6,1.5 2,-2.8 4.1,-5.5 6.1,-8.3 -0.9,-0.4 -1.8,-0.8 -2.7,-1.2 -8.6,24.5 -5.7,50.9 2.8,75 0.7,1.9 3.6,1.1 2.9,-0.7 z"
   id="path6618" />
		</g>
	</g>
</g></svg>
