<?xml version="1.0" encoding="UTF-8" standalone="no"?>
<!-- Generator: Adobe Illustrator 22.1.0, SVG Export Plug-In . SVG Version: 6.00 Build 0)  -->

<svg
   version="1.1"
   x="0px"
   y="0px"
   viewBox="0 0 449.99999 370.00001"
   xml:space="preserve"
   id="svg6941"
   sodipodi:docname="moments_rotated_anc.svg"
   width="450"
   height="370"
   inkscape:version="1.2.2 (1:1.2.2+202212051552+b0a8486541)"
   xmlns:inkscape="http://www.inkscape.org/namespaces/inkscape"
   xmlns:sodipodi="http://sodipodi.sourceforge.net/DTD/sodipodi-0.dtd"
   xmlns="http://www.w3.org/2000/svg"
   xmlns:svg="http://www.w3.org/2000/svg"><defs
   id="defs6945" /><sodipodi:namedview
   id="namedview6943"
   pagecolor="#ffffff"
   bordercolor="#000000"
   borderopacity="0.25"
   inkscape:showpageshadow="2"
   inkscape:pageopacity="0.0"
   inkscape:pagecheckerboard="0"
   inkscape:deskcolor="#d1d1d1"
   showgrid="false"
   inkscape:zoom="1.012863"
   inkscape:cx="60.71897"
   inkscape:cy="234.97748"
   inkscape:window-width="1223"
   inkscape:window-height="779"
   inkscape:window-x="57"
   inkscape:window-y="21"
   inkscape:window-maximized="1"
   inkscape:current-layer="Слой_16" />
<style
   type="text/css"
   id="style6583">
	.st0{fill:#29ABE2;stroke:#29ABE2;stroke-miterlimit:10;}
	.st1{opacity:0.82;}
	.st2{fill:#FF0000;}
</style>
<g
   id="Слой_8">
</g>



<g
   id="Green_background">
</g>
<g
   id="Grass">
</g>
<g
   id="Main_bunnies">
</g>
<g
   id="Слой_10">
</g>
<g
   id="Слой_9">
</g>

<g
   id="Слой_16"
   transform="rotate(90,610.61099,-92.10258)">
	<path
   class="st0"
   d="M 1031.7,340.7"
   id="path6586"
   style="fill:#29abe2;stroke:#29abe2;stroke-miterlimit:10" />
	<path
   class="st0"
   d="M 1032.2,340.2"
   id="path6588"
   style="fill:#29abe2;stroke:#29abe2;stroke-miterlimit:10" />
	<path
   class="st0"
   d="M 1033.3,339.6"
   id="path6590"
   style="fill:#29abe2;stroke:#29abe2;stroke-miterlimit:10" />
	<path
   class="st0"
   d="M 1058.7,291.6"
   id="path6592"
   style="fill:#29abe2;stroke:#29abe2;stroke-miterlimit:10" />
	<polygon
   class="st0"
   points="713,340.2 734.3,340.2 758.6,340.2 762.8,340.2 762.8,321.8 713,321.8 "
   id="polygon6594"
   style="fill:#29abe2;stroke:#29abe2;stroke-miterlimit:10" />
	<polyline
   class="st0"
   points="800.7,340.5 800.7,312.1 784.6,312 773.6,312 762.1,321.8 763.5,340.4  "
   id="polyline6596"
   style="fill:#29abe2;stroke:#29abe2;stroke-miterlimit:10" />
	<polyline
   class="st0"
   points="853.4,292.3 838.3,293.4 826.5,303.6 811.2,304.6 799.5,312.1 800.7,340.2 820.6,340.2 834.8,340.2    847.5,340.2 853.4,340.2 853.4,292.3  "
   id="polyline6598"
   style="fill:#29abe2;stroke:#29abe2;stroke-miterlimit:10" />
	<polyline
   class="st0"
   points="891,253 882.5,263.2 874.5,272.8 863.4,283.6 853.4,292.3 853.4,340.2 873,340.2 892.7,339.5  "
   id="polyline6600"
   style="fill:#29abe2;stroke:#29abe2;stroke-miterlimit:10" />
	
	
	
	
	
	
	
	
	
</g></svg>
