<?xml version="1.0" encoding="UTF-8" standalone="no"?>
<!-- Generator: Adobe Illustrator 22.1.0, SVG Export Plug-In . SVG Version: 6.00 Build 0)  -->

<svg
   version="1.1"
   x="0px"
   y="0px"
   viewBox="0 0 449.99999 380.00001"
   xml:space="preserve"
   id="svg6941"
   sodipodi:docname="populations_below.svg"
   width="450"
   height="380"
   inkscape:version="1.2.2 (1:1.2.2+202212051552+b0a8486541)"
   xmlns:inkscape="http://www.inkscape.org/namespaces/inkscape"
   xmlns:sodipodi="http://sodipodi.sourceforge.net/DTD/sodipodi-0.dtd"
   xmlns:xlink="http://www.w3.org/1999/xlink"
   xmlns="http://www.w3.org/2000/svg"
   xmlns:svg="http://www.w3.org/2000/svg"><defs
   id="defs6945"><clipPath
     id="p52f47a454d"><rect
       x="44.203125"
       y="14.599219"
       width="186.91687"
       height="203.34265"
       id="rect38494" /></clipPath><clipPath
     id="clipPath42986"><rect
       x="44.203125"
       y="14.599219"
       width="186.91687"
       height="203.34265"
       id="rect42984" /></clipPath><clipPath
     id="clipPath42990"><rect
       x="44.203125"
       y="14.599219"
       width="186.91687"
       height="203.34265"
       id="rect42988" /></clipPath><clipPath
     id="clipPath42994"><rect
       x="44.203125"
       y="14.599219"
       width="186.91687"
       height="203.34265"
       id="rect42992" /></clipPath><clipPath
     id="clipPath42998"><rect
       x="44.203125"
       y="14.599219"
       width="186.91687"
       height="203.34265"
       id="rect42996" /></clipPath><clipPath
     id="clipPath43002"><rect
       x="44.203125"
       y="14.599219"
       width="186.91687"
       height="203.34265"
       id="rect43000" /></clipPath><path
     id="DejaVuSans-50"
     d="M 1259,4147 V 2394 h 794 q 441,0 681,228 241,228 241,650 0,419 -241,647 -240,228 -681,228 z m -631,519 h 1425 q 785,0 1186,-355 402,-355 402,-1039 0,-691 -402,-1044 -401,-353 -1186,-353 H 1259 V 0 H 628 Z"
     transform="scale(0.015625)" /><path
     id="DejaVuSans-6f"
     d="m 1959,3097 q -462,0 -731,-361 -269,-361 -269,-989 0,-628 267,-989 268,-361 733,-361 460,0 728,362 269,363 269,988 0,622 -269,986 -268,364 -728,364 z m 0,487 q 750,0 1178,-488 429,-487 429,-1349 Q 3566,888 3137,398 2709,-91 1959,-91 1206,-91 779,398 353,888 353,1747 q 0,862 426,1349 427,488 1180,488 z"
     transform="scale(0.015625)" /><path
     id="DejaVuSans-70"
     d="M 1159,525 V -1331 H 581 v 4831 h 578 v -531 q 182,312 458,463 277,152 661,152 638,0 1036,-506 399,-506 399,-1331 0,-825 -399,-1332 -398,-506 -1036,-506 -384,0 -661,152 -276,152 -458,464 z m 1957,1222 q 0,634 -261,995 -261,361 -717,361 -457,0 -718,-361 -261,-361 -261,-995 0,-634 261,-995 261,-361 718,-361 456,0 717,361 261,361 261,995 z"
     transform="scale(0.015625)" /><path
     id="DejaVuSans-75"
     d="m 544,1381 v 2119 h 575 V 1403 q 0,-497 193,-746 194,-248 582,-248 465,0 735,297 271,297 271,810 v 1984 h 575 V 0 H 2900 V 538 Q 2691,219 2414,64 2138,-91 1772,-91 1169,-91 856,284 544,659 544,1381 Z m 1447,2203 z"
     transform="scale(0.015625)" /><path
     id="DejaVuSans-6c"
     d="m 603,4863 h 575 V 0 H 603 Z"
     transform="scale(0.015625)" /><path
     id="DejaVuSans-61"
     d="m 2194,1759 q -697,0 -966,-159 -269,-159 -269,-544 0,-306 202,-486 202,-179 548,-179 479,0 768,339 289,339 289,901 v 128 z m 1147,238 V 0 H 2766 V 531 Q 2569,213 2275,61 1981,-91 1556,-91 q -537,0 -855,302 -317,302 -317,808 0,590 395,890 396,300 1180,300 h 807 v 57 q 0,397 -261,614 -261,217 -733,217 -300,0 -585,-72 -284,-72 -546,-216 v 532 q 315,122 612,182 297,61 578,61 760,0 1135,-394 375,-393 375,-1193 z"
     transform="scale(0.015625)" /><path
     id="DejaVuSans-74"
     d="M 1172,4494 V 3500 H 2356 V 3053 H 1172 V 1153 q 0,-428 117,-550 117,-122 477,-122 h 590 V 0 H 1766 Q 1100,0 847,248 594,497 594,1153 V 3053 H 172 v 447 h 422 v 994 z"
     transform="scale(0.015625)" /><path
     id="DejaVuSans-69"
     d="m 603,3500 h 575 V 0 H 603 Z m 0,1363 h 575 V 4134 H 603 Z"
     transform="scale(0.015625)" /><path
     id="DejaVuSans-6e"
     d="M 3513,2113 V 0 h -575 v 2094 q 0,497 -194,743 -194,247 -581,247 -466,0 -735,-297 -269,-296 -269,-809 V 0 H 581 v 3500 h 578 v -544 q 207,316 486,472 280,156 646,156 603,0 912,-373 310,-373 310,-1098 z"
     transform="scale(0.015625)" /><path
     id="DejaVuSans-31"
     d="M 794,531 H 1825 V 4091 L 703,3866 v 575 l 1116,225 h 631 V 531 H 3481 V 0 H 794 Z"
     transform="scale(0.015625)" /><path
     id="DejaVuSans-32"
     d="M 1228,531 H 3431 V 0 H 469 v 531 q 359,372 979,998 621,627 780,809 303,340 423,576 121,236 121,464 0,372 -261,606 -261,235 -680,235 -297,0 -627,-103 -329,-103 -704,-313 v 638 q 381,153 712,231 332,78 607,78 725,0 1156,-363 431,-362 431,-968 0,-288 -108,-546 -107,-257 -392,-607 -78,-91 -497,-524 Q 1991,1309 1228,531 Z"
     transform="scale(0.015625)" /><path
     id="mc8dfdf61a0"
     d="M 0,0 H -3.5"
     style="stroke:#000000;stroke-width:0.8" /><path
     id="DejaVuSans-30"
     d="m 2034,4250 q -487,0 -733,-480 -245,-479 -245,-1442 0,-959 245,-1439 246,-480 733,-480 491,0 736,480 246,480 246,1439 0,963 -246,1442 -245,480 -736,480 z m 0,500 q 785,0 1199,-621 414,-620 414,-1801 0,-1178 -414,-1799 -414,-620 -1199,-620 -784,0 -1198,620 -414,621 -414,1799 0,1181 414,1801 414,621 1198,621 z"
     transform="scale(0.015625)" /><path
     id="DejaVuSans-35"
     d="M 691,4666 H 3169 V 4134 H 1269 V 2991 q 137,47 274,70 138,23 276,23 781,0 1237,-428 457,-428 457,-1159 Q 3513,744 3044,326 2575,-91 1722,-91 1428,-91 1123,-41 819,9 494,109 v 635 q 281,-153 581,-228 300,-75 634,-75 541,0 856,284 316,284 316,772 0,487 -316,771 -315,285 -856,285 -253,0 -505,-56 -251,-56 -513,-175 z"
     transform="scale(0.015625)" /><path
     id="DejaVuSans-6d"
     d="m 3328,2828 q 216,388 516,572 300,184 706,184 547,0 844,-383 297,-382 297,-1088 V 0 h -578 v 2094 q 0,503 -179,746 -178,244 -543,244 -447,0 -707,-297 -259,-296 -259,-809 V 0 h -578 v 2094 q 0,506 -178,748 -178,242 -550,242 -441,0 -701,-298 -259,-298 -259,-808 V 0 H 581 v 3500 h 578 v -544 q 197,322 472,475 275,153 653,153 382,0 649,-194 267,-193 395,-562 z"
     transform="scale(0.015625)" /><path
     id="DejaVuSans-65"
     d="M 3597,1894 V 1613 H 953 q 38,-594 358,-905 320,-311 892,-311 331,0 642,81 311,81 618,244 V 178 Q 3153,47 2828,-22 2503,-91 2169,-91 1331,-91 842,396 353,884 353,1716 q 0,859 464,1363 464,505 1252,505 706,0 1117,-455 411,-454 411,-1235 z m -575,169 q -6,471 -264,752 -258,282 -683,282 -481,0 -770,-272 -289,-272 -333,-766 z"
     transform="scale(0.015625)" /><path
     id="DejaVuSans-20"
     transform="scale(0.015625)"
     d="" /><path
     id="DejaVuSans-67"
     d="m 2906,1791 q 0,625 -258,968 -257,344 -723,344 -462,0 -720,-344 -258,-343 -258,-968 0,-622 258,-966 258,-344 720,-344 466,0 723,344 258,344 258,966 z M 3481,434 q 0,-893 -397,-1329 -396,-436 -1215,-436 -303,0 -572,45 -269,45 -522,139 v 559 q 253,-137 500,-202 247,-66 503,-66 566,0 847,295 281,295 281,892 V 616 Q 2728,306 2450,153 2172,0 1784,0 1141,0 747,490 353,981 353,1791 q 0,812 394,1302 394,491 1037,491 388,0 666,-153 278,-153 456,-462 v 531 h 575 z"
     transform="scale(0.015625)" /><path
     id="DejaVuSans-28"
     d="m 1984,4856 q -418,-718 -622,-1422 -203,-703 -203,-1425 0,-721 205,-1429 205,-708 620,-1424 h -500 q -468,735 -701,1444 -233,709 -233,1409 0,697 231,1403 232,707 703,1444 z"
     transform="scale(0.015625)" /><path
     id="DejaVuSans-72"
     d="m 2631,2963 q -97,56 -211,82 -114,27 -251,27 -488,0 -749,-317 -261,-317 -261,-911 V 0 H 581 v 3500 h 578 v -544 q 182,319 472,473 291,155 707,155 59,0 131,-8 72,-7 159,-23 z"
     transform="scale(0.015625)" /><path
     id="DejaVuSans-73"
     d="m 2834,3397 v -544 q -243,125 -506,187 -262,63 -544,63 -428,0 -642,-131 -214,-131 -214,-394 0,-200 153,-314 153,-114 616,-217 l 197,-44 q 612,-131 870,-370 258,-239 258,-667 0,-488 -386,-773 Q 2250,-91 1575,-91 1294,-91 989,-36 684,19 347,128 v 594 q 319,-166 628,-249 309,-82 613,-82 406,0 624,139 219,139 219,392 0,234 -158,359 -157,125 -692,241 l -200,47 q -534,112 -772,345 -237,233 -237,639 0,494 350,762 350,269 994,269 318,0 599,-47 282,-46 519,-140 z"
     transform="scale(0.015625)" /><path
     id="DejaVuSans-29"
     d="m 513,4856 h 500 q 468,-737 701,-1444 233,-706 233,-1403 0,-700 -233,-1409 -233,-709 -701,-1444 H 513 q 415,716 620,1424 205,708 205,1429 0,722 -205,1425 -205,704 -620,1422 z"
     transform="scale(0.015625)" /><clipPath
     id="pe520835f7e"><rect
       x="53.743752"
       y="14.599219"
       width="155.38353"
       height="203.34265"
       id="rect53309" /></clipPath><clipPath
     id="clipPath54171"><rect
       x="53.743752"
       y="14.599219"
       width="155.38353"
       height="203.34265"
       id="rect54169" /></clipPath><clipPath
     id="clipPath54175"><rect
       x="53.743752"
       y="14.599219"
       width="155.38353"
       height="203.34265"
       id="rect54173" /></clipPath><clipPath
     id="clipPath54179"><rect
       x="53.743752"
       y="14.599219"
       width="155.38353"
       height="203.34265"
       id="rect54177" /></clipPath><clipPath
     id="clipPath54183"><rect
       x="53.743752"
       y="14.599219"
       width="155.38353"
       height="203.34265"
       id="rect54181" /></clipPath><clipPath
     id="clipPath54187"><rect
       x="53.743752"
       y="14.599219"
       width="155.38353"
       height="203.34265"
       id="rect54185" /></clipPath><path
     id="DejaVuSans-50-3"
     d="M 1259,4147 V 2394 h 794 q 441,0 681,228 241,228 241,650 0,419 -241,647 -240,228 -681,228 z m -631,519 h 1425 q 785,0 1186,-355 402,-355 402,-1039 0,-691 -402,-1044 -401,-353 -1186,-353 H 1259 V 0 H 628 Z"
     transform="scale(0.015625)" /><path
     id="DejaVuSans-6f-6"
     d="m 1959,3097 q -462,0 -731,-361 -269,-361 -269,-989 0,-628 267,-989 268,-361 733,-361 460,0 728,362 269,363 269,988 0,622 -269,986 -268,364 -728,364 z m 0,487 q 750,0 1178,-488 429,-487 429,-1349 Q 3566,888 3137,398 2709,-91 1959,-91 1206,-91 779,398 353,888 353,1747 q 0,862 426,1349 427,488 1180,488 z"
     transform="scale(0.015625)" /><path
     id="DejaVuSans-70-7"
     d="M 1159,525 V -1331 H 581 v 4831 h 578 v -531 q 182,312 458,463 277,152 661,152 638,0 1036,-506 399,-506 399,-1331 0,-825 -399,-1332 -398,-506 -1036,-506 -384,0 -661,152 -276,152 -458,464 z m 1957,1222 q 0,634 -261,995 -261,361 -717,361 -457,0 -718,-361 -261,-361 -261,-995 0,-634 261,-995 261,-361 718,-361 456,0 717,361 261,361 261,995 z"
     transform="scale(0.015625)" /><path
     id="DejaVuSans-75-5"
     d="m 544,1381 v 2119 h 575 V 1403 q 0,-497 193,-746 194,-248 582,-248 465,0 735,297 271,297 271,810 v 1984 h 575 V 0 H 2900 V 538 Q 2691,219 2414,64 2138,-91 1772,-91 1169,-91 856,284 544,659 544,1381 Z m 1447,2203 z"
     transform="scale(0.015625)" /><path
     id="DejaVuSans-6c-3"
     d="m 603,4863 h 575 V 0 H 603 Z"
     transform="scale(0.015625)" /><path
     id="DejaVuSans-61-5"
     d="m 2194,1759 q -697,0 -966,-159 -269,-159 -269,-544 0,-306 202,-486 202,-179 548,-179 479,0 768,339 289,339 289,901 v 128 z m 1147,238 V 0 H 2766 V 531 Q 2569,213 2275,61 1981,-91 1556,-91 q -537,0 -855,302 -317,302 -317,808 0,590 395,890 396,300 1180,300 h 807 v 57 q 0,397 -261,614 -261,217 -733,217 -300,0 -585,-72 -284,-72 -546,-216 v 532 q 315,122 612,182 297,61 578,61 760,0 1135,-394 375,-393 375,-1193 z"
     transform="scale(0.015625)" /><path
     id="DejaVuSans-74-6"
     d="M 1172,4494 V 3500 H 2356 V 3053 H 1172 V 1153 q 0,-428 117,-550 117,-122 477,-122 h 590 V 0 H 1766 Q 1100,0 847,248 594,497 594,1153 V 3053 H 172 v 447 h 422 v 994 z"
     transform="scale(0.015625)" /><path
     id="DejaVuSans-69-2"
     d="m 603,3500 h 575 V 0 H 603 Z m 0,1363 h 575 V 4134 H 603 Z"
     transform="scale(0.015625)" /><path
     id="DejaVuSans-6e-9"
     d="M 3513,2113 V 0 h -575 v 2094 q 0,497 -194,743 -194,247 -581,247 -466,0 -735,-297 -269,-296 -269,-809 V 0 H 581 v 3500 h 578 v -544 q 207,316 486,472 280,156 646,156 603,0 912,-373 310,-373 310,-1098 z"
     transform="scale(0.015625)" /><path
     id="DejaVuSans-31-1"
     d="M 794,531 H 1825 V 4091 L 703,3866 v 575 l 1116,225 h 631 V 531 H 3481 V 0 H 794 Z"
     transform="scale(0.015625)" /><path
     id="DejaVuSans-32-2"
     d="M 1228,531 H 3431 V 0 H 469 v 531 q 359,372 979,998 621,627 780,809 303,340 423,576 121,236 121,464 0,372 -261,606 -261,235 -680,235 -297,0 -627,-103 -329,-103 -704,-313 v 638 q 381,153 712,231 332,78 607,78 725,0 1156,-363 431,-362 431,-968 0,-288 -108,-546 -107,-257 -392,-607 -78,-91 -497,-524 Q 1991,1309 1228,531 Z"
     transform="scale(0.015625)" /><path
     id="m9c5e1ffc94"
     d="M 0,0 H -3.5"
     style="stroke:#000000;stroke-width:0.8" /><path
     id="DejaVuSans-30-7"
     d="m 2034,4250 q -487,0 -733,-480 -245,-479 -245,-1442 0,-959 245,-1439 246,-480 733,-480 491,0 736,480 246,480 246,1439 0,963 -246,1442 -245,480 -736,480 z m 0,500 q 785,0 1199,-621 414,-620 414,-1801 0,-1178 -414,-1799 -414,-620 -1199,-620 -784,0 -1198,620 -414,621 -414,1799 0,1181 414,1801 414,621 1198,621 z"
     transform="scale(0.015625)" /><path
     id="DejaVuSans-2e"
     d="m 684,794 h 660 V 0 H 684 Z"
     transform="scale(0.015625)" /><path
     id="DejaVuSans-35-0"
     d="M 691,4666 H 3169 V 4134 H 1269 V 2991 q 137,47 274,70 138,23 276,23 781,0 1237,-428 457,-428 457,-1159 Q 3513,744 3044,326 2575,-91 1722,-91 1428,-91 1123,-41 819,9 494,109 v 635 q 281,-153 581,-228 300,-75 634,-75 541,0 856,284 316,284 316,772 0,487 -316,771 -315,285 -856,285 -253,0 -505,-56 -251,-56 -513,-175 z"
     transform="scale(0.015625)" /><path
     id="DejaVuSans-37"
     d="M 525,4666 H 3525 V 4397 L 1831,0 H 1172 L 2766,4134 H 525 Z"
     transform="scale(0.015625)" /><path
     id="DejaVuSans-6d-9"
     d="m 3328,2828 q 216,388 516,572 300,184 706,184 547,0 844,-383 297,-382 297,-1088 V 0 h -578 v 2094 q 0,503 -179,746 -178,244 -543,244 -447,0 -707,-297 -259,-296 -259,-809 V 0 h -578 v 2094 q 0,506 -178,748 -178,242 -550,242 -441,0 -701,-298 -259,-298 -259,-808 V 0 H 581 v 3500 h 578 v -544 q 197,322 472,475 275,153 653,153 382,0 649,-194 267,-193 395,-562 z"
     transform="scale(0.015625)" /><path
     id="DejaVuSans-65-3"
     d="M 3597,1894 V 1613 H 953 q 38,-594 358,-905 320,-311 892,-311 331,0 642,81 311,81 618,244 V 178 Q 3153,47 2828,-22 2503,-91 2169,-91 1331,-91 842,396 353,884 353,1716 q 0,859 464,1363 464,505 1252,505 706,0 1117,-455 411,-454 411,-1235 z m -575,169 q -6,471 -264,752 -258,282 -683,282 -481,0 -770,-272 -289,-272 -333,-766 z"
     transform="scale(0.015625)" /><path
     id="DejaVuSans-20-6"
     transform="scale(0.015625)"
     d="" /><path
     id="DejaVuSans-67-0"
     d="m 2906,1791 q 0,625 -258,968 -257,344 -723,344 -462,0 -720,-344 -258,-343 -258,-968 0,-622 258,-966 258,-344 720,-344 466,0 723,344 258,344 258,966 z M 3481,434 q 0,-893 -397,-1329 -396,-436 -1215,-436 -303,0 -572,45 -269,45 -522,139 v 559 q 253,-137 500,-202 247,-66 503,-66 566,0 847,295 281,295 281,892 V 616 Q 2728,306 2450,153 2172,0 1784,0 1141,0 747,490 353,981 353,1791 q 0,812 394,1302 394,491 1037,491 388,0 666,-153 278,-153 456,-462 v 531 h 575 z"
     transform="scale(0.015625)" /><path
     id="DejaVuSans-28-6"
     d="m 1984,4856 q -418,-718 -622,-1422 -203,-703 -203,-1425 0,-721 205,-1429 205,-708 620,-1424 h -500 q -468,735 -701,1444 -233,709 -233,1409 0,697 231,1403 232,707 703,1444 z"
     transform="scale(0.015625)" /><path
     id="DejaVuSans-72-2"
     d="m 2631,2963 q -97,56 -211,82 -114,27 -251,27 -488,0 -749,-317 -261,-317 -261,-911 V 0 H 581 v 3500 h 578 v -544 q 182,319 472,473 291,155 707,155 59,0 131,-8 72,-7 159,-23 z"
     transform="scale(0.015625)" /><path
     id="DejaVuSans-73-6"
     d="m 2834,3397 v -544 q -243,125 -506,187 -262,63 -544,63 -428,0 -642,-131 -214,-131 -214,-394 0,-200 153,-314 153,-114 616,-217 l 197,-44 q 612,-131 870,-370 258,-239 258,-667 0,-488 -386,-773 Q 2250,-91 1575,-91 1294,-91 989,-36 684,19 347,128 v 594 q 319,-166 628,-249 309,-82 613,-82 406,0 624,139 219,139 219,392 0,234 -158,359 -157,125 -692,241 l -200,47 q -534,112 -772,345 -237,233 -237,639 0,494 350,762 350,269 994,269 318,0 599,-47 282,-46 519,-140 z"
     transform="scale(0.015625)" /><path
     id="DejaVuSans-29-1"
     d="m 513,4856 h 500 q 468,-737 701,-1444 233,-706 233,-1403 0,-700 -233,-1409 -233,-709 -701,-1444 H 513 q 415,716 620,1424 205,708 205,1429 0,722 -205,1425 -205,704 -620,1422 z"
     transform="scale(0.015625)" /><clipPath
     id="p9f60cd1e51"><rect
       x="53.743752"
       y="14.599219"
       width="137.05624"
       height="203.34265"
       id="rect57583" /></clipPath><clipPath
     id="clipPath63201"><rect
       x="53.743752"
       y="14.599219"
       width="137.05624"
       height="203.34265"
       id="rect63199" /></clipPath><clipPath
     id="clipPath63205"><rect
       x="53.743752"
       y="14.599219"
       width="137.05624"
       height="203.34265"
       id="rect63203" /></clipPath><clipPath
     id="clipPath63209"><rect
       x="53.743752"
       y="14.599219"
       width="137.05624"
       height="203.34265"
       id="rect63207" /></clipPath><clipPath
     id="clipPath63213"><rect
       x="53.743752"
       y="14.599219"
       width="137.05624"
       height="203.34265"
       id="rect63211" /></clipPath><clipPath
     id="clipPath63217"><rect
       x="53.743752"
       y="14.599219"
       width="137.05624"
       height="203.34265"
       id="rect63215" /></clipPath><path
     id="DejaVuSans-50-8"
     d="M 1259,4147 V 2394 h 794 q 441,0 681,228 241,228 241,650 0,419 -241,647 -240,228 -681,228 z m -631,519 h 1425 q 785,0 1186,-355 402,-355 402,-1039 0,-691 -402,-1044 -401,-353 -1186,-353 H 1259 V 0 H 628 Z"
     transform="scale(0.015625)" /><path
     id="DejaVuSans-6f-7"
     d="m 1959,3097 q -462,0 -731,-361 -269,-361 -269,-989 0,-628 267,-989 268,-361 733,-361 460,0 728,362 269,363 269,988 0,622 -269,986 -268,364 -728,364 z m 0,487 q 750,0 1178,-488 429,-487 429,-1349 Q 3566,888 3137,398 2709,-91 1959,-91 1206,-91 779,398 353,888 353,1747 q 0,862 426,1349 427,488 1180,488 z"
     transform="scale(0.015625)" /><path
     id="DejaVuSans-70-9"
     d="M 1159,525 V -1331 H 581 v 4831 h 578 v -531 q 182,312 458,463 277,152 661,152 638,0 1036,-506 399,-506 399,-1331 0,-825 -399,-1332 -398,-506 -1036,-506 -384,0 -661,152 -276,152 -458,464 z m 1957,1222 q 0,634 -261,995 -261,361 -717,361 -457,0 -718,-361 -261,-361 -261,-995 0,-634 261,-995 261,-361 718,-361 456,0 717,361 261,361 261,995 z"
     transform="scale(0.015625)" /><path
     id="DejaVuSans-75-2"
     d="m 544,1381 v 2119 h 575 V 1403 q 0,-497 193,-746 194,-248 582,-248 465,0 735,297 271,297 271,810 v 1984 h 575 V 0 H 2900 V 538 Q 2691,219 2414,64 2138,-91 1772,-91 1169,-91 856,284 544,659 544,1381 Z m 1447,2203 z"
     transform="scale(0.015625)" /><path
     id="DejaVuSans-6c-0"
     d="m 603,4863 h 575 V 0 H 603 Z"
     transform="scale(0.015625)" /><path
     id="DejaVuSans-61-2"
     d="m 2194,1759 q -697,0 -966,-159 -269,-159 -269,-544 0,-306 202,-486 202,-179 548,-179 479,0 768,339 289,339 289,901 v 128 z m 1147,238 V 0 H 2766 V 531 Q 2569,213 2275,61 1981,-91 1556,-91 q -537,0 -855,302 -317,302 -317,808 0,590 395,890 396,300 1180,300 h 807 v 57 q 0,397 -261,614 -261,217 -733,217 -300,0 -585,-72 -284,-72 -546,-216 v 532 q 315,122 612,182 297,61 578,61 760,0 1135,-394 375,-393 375,-1193 z"
     transform="scale(0.015625)" /><path
     id="DejaVuSans-74-3"
     d="M 1172,4494 V 3500 H 2356 V 3053 H 1172 V 1153 q 0,-428 117,-550 117,-122 477,-122 h 590 V 0 H 1766 Q 1100,0 847,248 594,497 594,1153 V 3053 H 172 v 447 h 422 v 994 z"
     transform="scale(0.015625)" /><path
     id="DejaVuSans-69-7"
     d="m 603,3500 h 575 V 0 H 603 Z m 0,1363 h 575 V 4134 H 603 Z"
     transform="scale(0.015625)" /><path
     id="DejaVuSans-6e-5"
     d="M 3513,2113 V 0 h -575 v 2094 q 0,497 -194,743 -194,247 -581,247 -466,0 -735,-297 -269,-296 -269,-809 V 0 H 581 v 3500 h 578 v -544 q 207,316 486,472 280,156 646,156 603,0 912,-373 310,-373 310,-1098 z"
     transform="scale(0.015625)" /><path
     id="DejaVuSans-31-9"
     d="M 794,531 H 1825 V 4091 L 703,3866 v 575 l 1116,225 h 631 V 531 H 3481 V 0 H 794 Z"
     transform="scale(0.015625)" /><path
     id="DejaVuSans-32-22"
     d="M 1228,531 H 3431 V 0 H 469 v 531 q 359,372 979,998 621,627 780,809 303,340 423,576 121,236 121,464 0,372 -261,606 -261,235 -680,235 -297,0 -627,-103 -329,-103 -704,-313 v 638 q 381,153 712,231 332,78 607,78 725,0 1156,-363 431,-362 431,-968 0,-288 -108,-546 -107,-257 -392,-607 -78,-91 -497,-524 Q 1991,1309 1228,531 Z"
     transform="scale(0.015625)" /><path
     id="mf958e6126b"
     d="M 0,0 H -3.5"
     style="stroke:#000000;stroke-width:0.8" /><path
     id="DejaVuSans-30-8"
     d="m 2034,4250 q -487,0 -733,-480 -245,-479 -245,-1442 0,-959 245,-1439 246,-480 733,-480 491,0 736,480 246,480 246,1439 0,963 -246,1442 -245,480 -736,480 z m 0,500 q 785,0 1199,-621 414,-620 414,-1801 0,-1178 -414,-1799 -414,-620 -1199,-620 -784,0 -1198,620 -414,621 -414,1799 0,1181 414,1801 414,621 1198,621 z"
     transform="scale(0.015625)" /><path
     id="DejaVuSans-2e-9"
     d="m 684,794 h 660 V 0 H 684 Z"
     transform="scale(0.015625)" /><path
     id="DejaVuSans-35-7"
     d="M 691,4666 H 3169 V 4134 H 1269 V 2991 q 137,47 274,70 138,23 276,23 781,0 1237,-428 457,-428 457,-1159 Q 3513,744 3044,326 2575,-91 1722,-91 1428,-91 1123,-41 819,9 494,109 v 635 q 281,-153 581,-228 300,-75 634,-75 541,0 856,284 316,284 316,772 0,487 -316,771 -315,285 -856,285 -253,0 -505,-56 -251,-56 -513,-175 z"
     transform="scale(0.015625)" /><path
     id="DejaVuSans-37-3"
     d="M 525,4666 H 3525 V 4397 L 1831,0 H 1172 L 2766,4134 H 525 Z"
     transform="scale(0.015625)" /><path
     id="DejaVuSans-6d-6"
     d="m 3328,2828 q 216,388 516,572 300,184 706,184 547,0 844,-383 297,-382 297,-1088 V 0 h -578 v 2094 q 0,503 -179,746 -178,244 -543,244 -447,0 -707,-297 -259,-296 -259,-809 V 0 h -578 v 2094 q 0,506 -178,748 -178,242 -550,242 -441,0 -701,-298 -259,-298 -259,-808 V 0 H 581 v 3500 h 578 v -544 q 197,322 472,475 275,153 653,153 382,0 649,-194 267,-193 395,-562 z"
     transform="scale(0.015625)" /><path
     id="DejaVuSans-65-1"
     d="M 3597,1894 V 1613 H 953 q 38,-594 358,-905 320,-311 892,-311 331,0 642,81 311,81 618,244 V 178 Q 3153,47 2828,-22 2503,-91 2169,-91 1331,-91 842,396 353,884 353,1716 q 0,859 464,1363 464,505 1252,505 706,0 1117,-455 411,-454 411,-1235 z m -575,169 q -6,471 -264,752 -258,282 -683,282 -481,0 -770,-272 -289,-272 -333,-766 z"
     transform="scale(0.015625)" /><path
     id="DejaVuSans-20-2"
     transform="scale(0.015625)"
     d="" /><path
     id="DejaVuSans-67-9"
     d="m 2906,1791 q 0,625 -258,968 -257,344 -723,344 -462,0 -720,-344 -258,-343 -258,-968 0,-622 258,-966 258,-344 720,-344 466,0 723,344 258,344 258,966 z M 3481,434 q 0,-893 -397,-1329 -396,-436 -1215,-436 -303,0 -572,45 -269,45 -522,139 v 559 q 253,-137 500,-202 247,-66 503,-66 566,0 847,295 281,295 281,892 V 616 Q 2728,306 2450,153 2172,0 1784,0 1141,0 747,490 353,981 353,1791 q 0,812 394,1302 394,491 1037,491 388,0 666,-153 278,-153 456,-462 v 531 h 575 z"
     transform="scale(0.015625)" /><path
     id="DejaVuSans-28-3"
     d="m 1984,4856 q -418,-718 -622,-1422 -203,-703 -203,-1425 0,-721 205,-1429 205,-708 620,-1424 h -500 q -468,735 -701,1444 -233,709 -233,1409 0,697 231,1403 232,707 703,1444 z"
     transform="scale(0.015625)" /><path
     id="DejaVuSans-72-1"
     d="m 2631,2963 q -97,56 -211,82 -114,27 -251,27 -488,0 -749,-317 -261,-317 -261,-911 V 0 H 581 v 3500 h 578 v -544 q 182,319 472,473 291,155 707,155 59,0 131,-8 72,-7 159,-23 z"
     transform="scale(0.015625)" /><path
     id="DejaVuSans-73-9"
     d="m 2834,3397 v -544 q -243,125 -506,187 -262,63 -544,63 -428,0 -642,-131 -214,-131 -214,-394 0,-200 153,-314 153,-114 616,-217 l 197,-44 q 612,-131 870,-370 258,-239 258,-667 0,-488 -386,-773 Q 2250,-91 1575,-91 1294,-91 989,-36 684,19 347,128 v 594 q 319,-166 628,-249 309,-82 613,-82 406,0 624,139 219,139 219,392 0,234 -158,359 -157,125 -692,241 l -200,47 q -534,112 -772,345 -237,233 -237,639 0,494 350,762 350,269 994,269 318,0 599,-47 282,-46 519,-140 z"
     transform="scale(0.015625)" /><path
     id="DejaVuSans-29-4"
     d="m 513,4856 h 500 q 468,-737 701,-1444 233,-706 233,-1403 0,-700 -233,-1409 -233,-709 -701,-1444 H 513 q 415,716 620,1424 205,708 205,1429 0,722 -205,1425 -205,704 -620,1422 z"
     transform="scale(0.015625)" /><clipPath
     id="p58d5e87bdf"><rect
       x="53.743752"
       y="14.599219"
       width="150.70557"
       height="203.34265"
       id="rect78982" /></clipPath><clipPath
     id="clipPath85328"><rect
       x="53.743752"
       y="14.599219"
       width="150.70557"
       height="203.34265"
       id="rect85326" /></clipPath><clipPath
     id="clipPath85332"><rect
       x="53.743752"
       y="14.599219"
       width="150.70557"
       height="203.34265"
       id="rect85330" /></clipPath><clipPath
     id="clipPath85336"><rect
       x="53.743752"
       y="14.599219"
       width="150.70557"
       height="203.34265"
       id="rect85334" /></clipPath><clipPath
     id="clipPath85340"><rect
       x="53.743752"
       y="14.599219"
       width="150.70557"
       height="203.34265"
       id="rect85338" /></clipPath><clipPath
     id="clipPath85344"><rect
       x="53.743752"
       y="14.599219"
       width="150.70557"
       height="203.34265"
       id="rect85342" /></clipPath><clipPath
     id="clipPath85348"><rect
       x="53.743752"
       y="14.599219"
       width="150.70557"
       height="203.34265"
       id="rect85346" /></clipPath><clipPath
     id="clipPath85352"><rect
       x="53.743752"
       y="14.599219"
       width="150.70557"
       height="203.34265"
       id="rect85350" /></clipPath><clipPath
     id="clipPath85356"><rect
       x="53.743752"
       y="14.599219"
       width="150.70557"
       height="203.34265"
       id="rect85354" /></clipPath><clipPath
     id="clipPath85360"><rect
       x="53.743752"
       y="14.599219"
       width="150.70557"
       height="203.34265"
       id="rect85358" /></clipPath><clipPath
     id="clipPath85364"><rect
       x="53.743752"
       y="14.599219"
       width="150.70557"
       height="203.34265"
       id="rect85362" /></clipPath><clipPath
     id="clipPath85368"><rect
       x="53.743752"
       y="14.599219"
       width="150.70557"
       height="203.34265"
       id="rect85366" /></clipPath><clipPath
     id="clipPath85372"><rect
       x="53.743752"
       y="14.599219"
       width="150.70557"
       height="203.34265"
       id="rect85370" /></clipPath><clipPath
     id="clipPath85376"><rect
       x="53.743752"
       y="14.599219"
       width="150.70557"
       height="203.34265"
       id="rect85374" /></clipPath><path
     id="DejaVuSans-50-2"
     d="M 1259,4147 V 2394 h 794 q 441,0 681,228 241,228 241,650 0,419 -241,647 -240,228 -681,228 z m -631,519 h 1425 q 785,0 1186,-355 402,-355 402,-1039 0,-691 -402,-1044 -401,-353 -1186,-353 H 1259 V 0 H 628 Z"
     transform="scale(0.015625)" /><path
     id="DejaVuSans-6f-5"
     d="m 1959,3097 q -462,0 -731,-361 -269,-361 -269,-989 0,-628 267,-989 268,-361 733,-361 460,0 728,362 269,363 269,988 0,622 -269,986 -268,364 -728,364 z m 0,487 q 750,0 1178,-488 429,-487 429,-1349 Q 3566,888 3137,398 2709,-91 1959,-91 1206,-91 779,398 353,888 353,1747 q 0,862 426,1349 427,488 1180,488 z"
     transform="scale(0.015625)" /><path
     id="DejaVuSans-70-4"
     d="M 1159,525 V -1331 H 581 v 4831 h 578 v -531 q 182,312 458,463 277,152 661,152 638,0 1036,-506 399,-506 399,-1331 0,-825 -399,-1332 -398,-506 -1036,-506 -384,0 -661,152 -276,152 -458,464 z m 1957,1222 q 0,634 -261,995 -261,361 -717,361 -457,0 -718,-361 -261,-361 -261,-995 0,-634 261,-995 261,-361 718,-361 456,0 717,361 261,361 261,995 z"
     transform="scale(0.015625)" /><path
     id="DejaVuSans-75-7"
     d="m 544,1381 v 2119 h 575 V 1403 q 0,-497 193,-746 194,-248 582,-248 465,0 735,297 271,297 271,810 v 1984 h 575 V 0 H 2900 V 538 Q 2691,219 2414,64 2138,-91 1772,-91 1169,-91 856,284 544,659 544,1381 Z m 1447,2203 z"
     transform="scale(0.015625)" /><path
     id="DejaVuSans-6c-4"
     d="m 603,4863 h 575 V 0 H 603 Z"
     transform="scale(0.015625)" /><path
     id="DejaVuSans-61-4"
     d="m 2194,1759 q -697,0 -966,-159 -269,-159 -269,-544 0,-306 202,-486 202,-179 548,-179 479,0 768,339 289,339 289,901 v 128 z m 1147,238 V 0 H 2766 V 531 Q 2569,213 2275,61 1981,-91 1556,-91 q -537,0 -855,302 -317,302 -317,808 0,590 395,890 396,300 1180,300 h 807 v 57 q 0,397 -261,614 -261,217 -733,217 -300,0 -585,-72 -284,-72 -546,-216 v 532 q 315,122 612,182 297,61 578,61 760,0 1135,-394 375,-393 375,-1193 z"
     transform="scale(0.015625)" /><path
     id="DejaVuSans-74-30"
     d="M 1172,4494 V 3500 H 2356 V 3053 H 1172 V 1153 q 0,-428 117,-550 117,-122 477,-122 h 590 V 0 H 1766 Q 1100,0 847,248 594,497 594,1153 V 3053 H 172 v 447 h 422 v 994 z"
     transform="scale(0.015625)" /><path
     id="DejaVuSans-69-78"
     d="m 603,3500 h 575 V 0 H 603 Z m 0,1363 h 575 V 4134 H 603 Z"
     transform="scale(0.015625)" /><path
     id="DejaVuSans-6e-6"
     d="M 3513,2113 V 0 h -575 v 2094 q 0,497 -194,743 -194,247 -581,247 -466,0 -735,-297 -269,-296 -269,-809 V 0 H 581 v 3500 h 578 v -544 q 207,316 486,472 280,156 646,156 603,0 912,-373 310,-373 310,-1098 z"
     transform="scale(0.015625)" /><path
     id="DejaVuSans-31-8"
     d="M 794,531 H 1825 V 4091 L 703,3866 v 575 l 1116,225 h 631 V 531 H 3481 V 0 H 794 Z"
     transform="scale(0.015625)" /><path
     id="DejaVuSans-32-8"
     d="M 1228,531 H 3431 V 0 H 469 v 531 q 359,372 979,998 621,627 780,809 303,340 423,576 121,236 121,464 0,372 -261,606 -261,235 -680,235 -297,0 -627,-103 -329,-103 -704,-313 v 638 q 381,153 712,231 332,78 607,78 725,0 1156,-363 431,-362 431,-968 0,-288 -108,-546 -107,-257 -392,-607 -78,-91 -497,-524 Q 1991,1309 1228,531 Z"
     transform="scale(0.015625)" /><path
     id="m8d98683818"
     d="M 0,0 H -3.5"
     style="stroke:#000000;stroke-width:0.8" /><path
     id="DejaVuSans-30-4"
     d="m 2034,4250 q -487,0 -733,-480 -245,-479 -245,-1442 0,-959 245,-1439 246,-480 733,-480 491,0 736,480 246,480 246,1439 0,963 -246,1442 -245,480 -736,480 z m 0,500 q 785,0 1199,-621 414,-620 414,-1801 0,-1178 -414,-1799 -414,-620 -1199,-620 -784,0 -1198,620 -414,621 -414,1799 0,1181 414,1801 414,621 1198,621 z"
     transform="scale(0.015625)" /><path
     id="DejaVuSans-2e-3"
     d="m 684,794 h 660 V 0 H 684 Z"
     transform="scale(0.015625)" /><path
     id="DejaVuSans-35-1"
     d="M 691,4666 H 3169 V 4134 H 1269 V 2991 q 137,47 274,70 138,23 276,23 781,0 1237,-428 457,-428 457,-1159 Q 3513,744 3044,326 2575,-91 1722,-91 1428,-91 1123,-41 819,9 494,109 v 635 q 281,-153 581,-228 300,-75 634,-75 541,0 856,284 316,284 316,772 0,487 -316,771 -315,285 -856,285 -253,0 -505,-56 -251,-56 -513,-175 z"
     transform="scale(0.015625)" /><path
     id="DejaVuSans-37-4"
     d="M 525,4666 H 3525 V 4397 L 1831,0 H 1172 L 2766,4134 H 525 Z"
     transform="scale(0.015625)" /><path
     id="DejaVuSans-6d-92"
     d="m 3328,2828 q 216,388 516,572 300,184 706,184 547,0 844,-383 297,-382 297,-1088 V 0 h -578 v 2094 q 0,503 -179,746 -178,244 -543,244 -447,0 -707,-297 -259,-296 -259,-809 V 0 h -578 v 2094 q 0,506 -178,748 -178,242 -550,242 -441,0 -701,-298 -259,-298 -259,-808 V 0 H 581 v 3500 h 578 v -544 q 197,322 472,475 275,153 653,153 382,0 649,-194 267,-193 395,-562 z"
     transform="scale(0.015625)" /><path
     id="DejaVuSans-65-0"
     d="M 3597,1894 V 1613 H 953 q 38,-594 358,-905 320,-311 892,-311 331,0 642,81 311,81 618,244 V 178 Q 3153,47 2828,-22 2503,-91 2169,-91 1331,-91 842,396 353,884 353,1716 q 0,859 464,1363 464,505 1252,505 706,0 1117,-455 411,-454 411,-1235 z m -575,169 q -6,471 -264,752 -258,282 -683,282 -481,0 -770,-272 -289,-272 -333,-766 z"
     transform="scale(0.015625)" /><path
     id="DejaVuSans-20-68"
     transform="scale(0.015625)"
     d="" /><path
     id="DejaVuSans-67-92"
     d="m 2906,1791 q 0,625 -258,968 -257,344 -723,344 -462,0 -720,-344 -258,-343 -258,-968 0,-622 258,-966 258,-344 720,-344 466,0 723,344 258,344 258,966 z M 3481,434 q 0,-893 -397,-1329 -396,-436 -1215,-436 -303,0 -572,45 -269,45 -522,139 v 559 q 253,-137 500,-202 247,-66 503,-66 566,0 847,295 281,295 281,892 V 616 Q 2728,306 2450,153 2172,0 1784,0 1141,0 747,490 353,981 353,1791 q 0,812 394,1302 394,491 1037,491 388,0 666,-153 278,-153 456,-462 v 531 h 575 z"
     transform="scale(0.015625)" /><path
     id="DejaVuSans-28-66"
     d="m 1984,4856 q -418,-718 -622,-1422 -203,-703 -203,-1425 0,-721 205,-1429 205,-708 620,-1424 h -500 q -468,735 -701,1444 -233,709 -233,1409 0,697 231,1403 232,707 703,1444 z"
     transform="scale(0.015625)" /><path
     id="DejaVuSans-72-4"
     d="m 2631,2963 q -97,56 -211,82 -114,27 -251,27 -488,0 -749,-317 -261,-317 -261,-911 V 0 H 581 v 3500 h 578 v -544 q 182,319 472,473 291,155 707,155 59,0 131,-8 72,-7 159,-23 z"
     transform="scale(0.015625)" /><path
     id="DejaVuSans-73-95"
     d="m 2834,3397 v -544 q -243,125 -506,187 -262,63 -544,63 -428,0 -642,-131 -214,-131 -214,-394 0,-200 153,-314 153,-114 616,-217 l 197,-44 q 612,-131 870,-370 258,-239 258,-667 0,-488 -386,-773 Q 2250,-91 1575,-91 1294,-91 989,-36 684,19 347,128 v 594 q 319,-166 628,-249 309,-82 613,-82 406,0 624,139 219,139 219,392 0,234 -158,359 -157,125 -692,241 l -200,47 q -534,112 -772,345 -237,233 -237,639 0,494 350,762 350,269 994,269 318,0 599,-47 282,-46 519,-140 z"
     transform="scale(0.015625)" /><path
     id="DejaVuSans-29-0"
     d="m 513,4856 h 500 q 468,-737 701,-1444 233,-706 233,-1403 0,-700 -233,-1409 -233,-709 -701,-1444 H 513 q 415,716 620,1424 205,708 205,1429 0,722 -205,1425 -205,704 -620,1422 z"
     transform="scale(0.015625)" /><clipPath
     id="pe563191287"><rect
       x="53.743752"
       y="14.599219"
       width="150.70557"
       height="203.34265"
       id="rect93978" /></clipPath><clipPath
     id="clipPath97746"><rect
       x="53.743752"
       y="14.599219"
       width="150.70557"
       height="203.34265"
       id="rect97744" /></clipPath><clipPath
     id="clipPath97750"><rect
       x="53.743752"
       y="14.599219"
       width="150.70557"
       height="203.34265"
       id="rect97748" /></clipPath><clipPath
     id="clipPath97754"><rect
       x="53.743752"
       y="14.599219"
       width="150.70557"
       height="203.34265"
       id="rect97752" /></clipPath></defs><sodipodi:namedview
   id="namedview6943"
   pagecolor="#ffffff"
   bordercolor="#000000"
   borderopacity="0.25"
   inkscape:showpageshadow="2"
   inkscape:pageopacity="0.0"
   inkscape:pagecheckerboard="0"
   inkscape:deskcolor="#d1d1d1"
   showgrid="false"
   inkscape:zoom="1.3157326"
   inkscape:cx="211.66915"
   inkscape:cy="225.72976"
   inkscape:window-width="1223"
   inkscape:window-height="779"
   inkscape:window-x="57"
   inkscape:window-y="21"
   inkscape:window-maximized="1"
   inkscape:current-layer="g78931" />
<style
   type="text/css"
   id="style6583">
	.st0{fill:#29ABE2;stroke:#29ABE2;stroke-miterlimit:10;}
	.st1{opacity:0.82;}
	.st2{fill:#FF0000;}
</style>
<g
   id="Слой_8">
</g>



<g
   id="Green_background">
</g>
<g
   id="Grass">
</g>
<g
   id="Main_bunnies">
</g>
<g
   id="Слой_10">
</g>
<g
   id="Слой_9">
</g>

<g
   id="PolyCollection_3"
   style="stroke-linecap:butt;stroke-linejoin:round"
   transform="matrix(1.5732345,0,0,1.5732345,2.406062,-11.383301)" /><g
   id="matplotlib.axis_2"
   style="stroke-linecap:butt;stroke-linejoin:round"
   transform="matrix(1.5732345,0,0,1.5732345,20.406062,-11.383301)"><g
     id="text_13"
     style="stroke-linecap:butt;stroke-linejoin:round"
     transform="translate(22.88279)"><!-- time ago (generations) --><g
       transform="matrix(0,-0.1,-0.1,0,18.398438,173.74164)"
       id="g78931"
       style="stroke-linecap:butt;stroke-linejoin:round"><defs
         id="defs78885"><path
           id="path86727"
           d="m 3328,2828 q 216,388 516,572 300,184 706,184 547,0 844,-383 297,-382 297,-1088 V 0 h -578 v 2094 q 0,503 -179,746 -178,244 -543,244 -447,0 -707,-297 -259,-296 -259,-809 V 0 h -578 v 2094 q 0,506 -178,748 -178,242 -550,242 -441,0 -701,-298 -259,-298 -259,-808 V 0 H 581 v 3500 h 578 v -544 q 197,322 472,475 275,153 653,153 382,0 649,-194 267,-193 395,-562 z"
           transform="scale(0.015625)" /><path
           id="path86729"
           d="M 3597,1894 V 1613 H 953 q 38,-594 358,-905 320,-311 892,-311 331,0 642,81 311,81 618,244 V 178 Q 3153,47 2828,-22 2503,-91 2169,-91 1331,-91 842,396 353,884 353,1716 q 0,859 464,1363 464,505 1252,505 706,0 1117,-455 411,-454 411,-1235 z m -575,169 q -6,471 -264,752 -258,282 -683,282 -481,0 -770,-272 -289,-272 -333,-766 z"
           transform="scale(0.015625)" /><path
           id="path86731"
           transform="scale(0.015625)"
           d="" /><path
           id="path86733"
           d="m 2906,1791 q 0,625 -258,968 -257,344 -723,344 -462,0 -720,-344 -258,-343 -258,-968 0,-622 258,-966 258,-344 720,-344 466,0 723,344 258,344 258,966 z M 3481,434 q 0,-893 -397,-1329 -396,-436 -1215,-436 -303,0 -572,45 -269,45 -522,139 v 559 q 253,-137 500,-202 247,-66 503,-66 566,0 847,295 281,295 281,892 V 616 Q 2728,306 2450,153 2172,0 1784,0 1141,0 747,490 353,981 353,1791 q 0,812 394,1302 394,491 1037,491 388,0 666,-153 278,-153 456,-462 v 531 h 575 z"
           transform="scale(0.015625)" /><path
           id="path86735"
           d="m 1984,4856 q -418,-718 -622,-1422 -203,-703 -203,-1425 0,-721 205,-1429 205,-708 620,-1424 h -500 q -468,735 -701,1444 -233,709 -233,1409 0,697 231,1403 232,707 703,1444 z"
           transform="scale(0.015625)" /><path
           id="path86737"
           d="m 2631,2963 q -97,56 -211,82 -114,27 -251,27 -488,0 -749,-317 -261,-317 -261,-911 V 0 H 581 v 3500 h 578 v -544 q 182,319 472,473 291,155 707,155 59,0 131,-8 72,-7 159,-23 z"
           transform="scale(0.015625)" /><path
           id="path86739"
           d="m 2834,3397 v -544 q -243,125 -506,187 -262,63 -544,63 -428,0 -642,-131 -214,-131 -214,-394 0,-200 153,-314 153,-114 616,-217 l 197,-44 q 612,-131 870,-370 258,-239 258,-667 0,-488 -386,-773 Q 2250,-91 1575,-91 1294,-91 989,-36 684,19 347,128 v 594 q 319,-166 628,-249 309,-82 613,-82 406,0 624,139 219,139 219,392 0,234 -158,359 -157,125 -692,241 l -200,47 q -534,112 -772,345 -237,233 -237,639 0,494 350,762 350,269 994,269 318,0 599,-47 282,-46 519,-140 z"
           transform="scale(0.015625)" /><path
           id="path86741"
           d="m 513,4856 h 500 q 468,-737 701,-1444 233,-706 233,-1403 0,-700 -233,-1409 -233,-709 -701,-1444 H 513 q 415,716 620,1424 205,708 205,1429 0,722 -205,1425 -205,704 -620,1422 z"
           transform="scale(0.015625)" /></defs><use
         xlink:href="#DejaVuSans-20-68"
         x="225.92773"
         id="use78895"
         style="stroke-linecap:butt;stroke-linejoin:round" /><use
         xlink:href="#DejaVuSans-20-68"
         x="443.65234"
         id="use78903"
         style="stroke-linecap:butt;stroke-linejoin:round" /><g
         id="g138522"
         transform="matrix(0.26697223,4.409276,-4.409276,0.26697223,611.89966,-1886.3083)">
		<g
   id="g138520">
			<g
   id="XMLID_13_">
				<g
   id="g138425">
					<path
   d="m 142.3,265.3 c 2.4,2.7 5.3,6.7 2,9.9 -2.2,2.2 -5.6,2.9 -8.7,2.7 -0.4,-1.1 -1,-2.1 -1.7,-3.1 2.5,0.5 5.3,0.4 7.4,-1 3.2,-2.1 0.2,-5.4 -1.7,-7.2 -1.9,-1.8 -5.5,-3.9 -7.8,-1.4 -1.5,1.6 -1.3,4.2 -1,6.3 -0.9,-0.8 -1.9,-1.5 -2.9,-2.1 0,-3.1 0.8,-6.2 3.8,-7.5 4,-1.8 8,0.5 10.6,3.4 z"
   id="path138323" />
					<path
   class="st3"
   d="m 139.7,266.6 c 1.9,1.8 4.9,5.1 1.7,7.2 -2.1,1.4 -5,1.6 -7.4,1 -0.9,-1.2 -1.9,-2.4 -3.1,-3.3 -0.2,-2.1 -0.4,-4.7 1,-6.3 2.3,-2.5 5.9,-0.4 7.8,1.4 z"
   id="path138325"
   style="fill:#ffffff" />
					<path
   d="m 136.1,279.3 c 0.2,0.7 -0.1,1.3 -0.6,1.5 -0.2,-1 -0.4,-2 -0.6,-3 0.2,0 0.5,0 0.7,0.1 0.2,0.4 0.4,0.9 0.5,1.4 z"
   id="path138327" />
					<path
   d="m 135.5,280.8 c 2,12 -1.1,23.3 -13.9,27.9 -12.3,4.4 -28,4.2 -38.8,-3.7 -8.1,-5.9 -15.5,-18.4 -9.4,-28.1 1.3,-2 3.1,-3.7 5.1,-5.1 0.4,0.3 0.9,0.5 1.4,0.7 0.4,0.2 0.7,0.1 1,0 l 0.6,0.9 c -1,0.6 -2,1.3 -2.9,2 -6.3,5.1 -5.2,13.6 -1.3,19.8 7.8,12.7 24.2,15.2 37.8,12.3 7.1,-1.5 14.4,-4.5 17.1,-11.8 2.3,-5.9 1.2,-12.6 -0.3,-18.5 0,-0.1 0,-0.1 0,-0.2 0.1,0 0.3,0.1 0.4,0.1 0.5,0.8 0.9,1.8 1.1,2.7 0.3,1.3 1.4,1.4 2.1,1 z"
   id="path138329" />
					<path
   d="m 135.6,277.9 c -0.2,0 -0.5,0 -0.7,-0.1 -0.1,-0.4 -0.2,-0.8 -0.3,-1.2 -0.4,-1.5 -2.4,-1.2 -2.7,0 -0.3,-0.5 -0.6,-0.9 -1,-1.3 0,0 0,0 0,0 0.2,-0.6 0.8,-1.1 1.6,-0.8 0.5,0.1 0.9,0.3 1.4,0.4 0.7,0.9 1.3,1.9 1.7,3 z"
   id="path138331" />
					<path
   d="m 135.5,280.8 c -0.7,0.4 -1.8,0.2 -2.1,-0.8 -0.3,-1 -0.7,-1.9 -1.1,-2.7 0.8,0.2 1.7,0.4 2.6,0.5 0.2,1 0.4,2 0.6,3 z"
   id="path138333" />
					<path
   d="m 134.6,276.6 c 0.1,0.4 0.2,0.8 0.3,1.2 -0.9,-0.1 -1.8,-0.3 -2.6,-0.5 -0.1,-0.2 -0.3,-0.5 -0.4,-0.7 0.3,-1.2 2.3,-1.5 2.7,0 z"
   id="path138335" />
					<path
   d="m 133.9,274.8 c -0.5,-0.1 -1,-0.2 -1.4,-0.4 -0.8,-0.3 -1.4,0.2 -1.6,0.8 -0.5,-0.6 -1,-1.2 -1.6,-1.7 0.8,0.2 1.8,-0.2 1.7,-1.3 0,-0.3 -0.1,-0.5 -0.1,-0.8 1.1,1.1 2.2,2.2 3,3.4 z"
   id="path138337" />
					<path
   class="st3"
   d="m 131.9,277.4 c 1.6,5.9 2.6,12.6 0.3,18.5 -2.8,7.2 -10.1,10.3 -17.1,11.8 -13.6,2.8 -29.9,0.4 -37.8,-12.3 -3.8,-6.2 -4.9,-14.8 1.3,-19.8 0.9,-0.7 1.9,-1.4 2.9,-2 4.5,-2.8 9.7,-4.7 14.8,-5.7 8.6,-1.7 23.8,-1.5 32,5 0.2,0.5 0.6,0.7 1,0.8 0.6,0.5 1.1,1.1 1.6,1.7 0,0 0,0 0,0 -0.2,0.7 0,1.6 0.9,1.9 0,0 0,0 0,0 0,0 0,0 0.1,0.1 z m -44.8,6.1 c 1.3,-0.3 2.2,-1.8 1.8,-3.2 0,0 0,-0.1 0,-0.1 -0.2,-0.5 -0.5,-1 -1,-1.2 -0.6,-0.2 -1.3,-0.2 -1.8,0.1 -1.4,0.8 -1.2,2.5 -0.5,3.7 0.2,0.6 0.9,0.8 1.5,0.7 z m 1.3,13.5 c 0,-2.3 0,-4.5 0,-6.8 0,-0.7 -0.7,-1.5 -1.4,-1.4 -1.7,0.1 -3.4,0.5 -5.1,1 -1.3,0.5 -1.2,2.2 -0.2,2.7 0,2.8 2.1,5.4 4.9,5.9 0.9,0.1 1.8,-0.5 1.8,-1.4 z m -8.1,-14.1 c 0.6,-1.2 -0.1,-2.8 -1.6,-2.8 -0.6,0 -1.3,0.3 -1.6,0.9 -0.4,0.6 -0.3,1.3 0,1.9 0.2,0.6 0.9,0.8 1.5,0.7 0.6,0.1 1.4,-0.1 1.7,-0.7 z"
   id="path138339"
   style="fill:#ffffff" />
					<path
   d="m 132.2,277.3 c -0.1,0 -0.3,-0.1 -0.4,-0.1 0,-0.2 0,-0.4 0,-0.5 0.2,0.2 0.3,0.4 0.4,0.6 z"
   id="path138341" />
					<path
   d="m 131.8,276.7 c 0,0.2 -0.1,0.3 0,0.5 0,0 0,0 0,0 -0.9,-0.3 -1.1,-1.2 -0.9,-1.9 0.3,0.4 0.7,0.9 0.9,1.4 z"
   id="path138343" />
					<path
   d="m 131,272.3 c 0.1,1.1 -0.9,1.5 -1.7,1.3 -0.3,-0.3 -0.7,-0.6 -1,-0.8 -0.1,-0.1 -0.1,-0.3 -0.1,-0.4 -0.1,-0.9 -0.2,-1.9 -0.2,-2.9 1,0.6 2,1.3 2.9,2.1 0,0.2 0.1,0.5 0.1,0.7 z"
   id="path138345" />
					<path
   d="m 128.3,272.8 c 0.3,0.3 0.7,0.5 1,0.8 -0.4,-0.1 -0.8,-0.4 -1,-0.8 z"
   id="path138347" />
					<path
   d="m 128.2,272.3 c 0,0.2 0.1,0.3 0.1,0.4 -8.2,-6.5 -23.4,-6.7 -32,-5 -5.1,1 -10.4,2.8 -14.8,5.7 l -0.6,-0.9 c 0.5,-0.3 0.8,-1 0.7,-1.6 0.5,-0.2 0.9,-0.6 1,-1.2 0,0 0,-0.1 0,-0.1 0.2,-0.1 0.5,-0.2 0.7,-0.3 0.6,0.4 1.4,0.3 1.9,-0.5 0.1,-0.2 0.2,-0.3 0.3,-0.5 0.5,-0.2 1,-0.4 1.5,-0.6 6.4,-2.6 13.4,-3.8 20.4,-3.6 6.4,0.2 14.6,1.6 20.8,5.4 -0.2,0.9 -0.1,1.9 0,2.8 z"
   id="path138349" />
					<path
   d="m 94.8,231.8 c 5.1,1.9 8,10.3 6,15.1 -1.4,3.5 -4.5,6.1 -6.8,8.9 -3.3,3.9 -6.1,8.1 -8.6,12.5 -0.7,0.3 -1.5,0.6 -2.2,1 -0.3,-0.1 -0.5,-0.4 -0.6,-0.6 0.1,-0.5 0.1,-1 0.2,-1.5 2.7,-4.7 5.8,-9.2 9.3,-13.4 2.2,-2.6 5.3,-5.1 6.2,-8.5 0.8,-2.9 -0.2,-6.8 -2.4,-9.1 -7.4,-7.7 -11.4,12.1 -11.8,16 -0.6,5 -0.7,9.9 -1.2,14.9 0,0.1 -0.1,0.1 -0.1,0.2 -0.3,0.5 -0.2,0.9 0,1.3 0,0.3 -0.1,0.7 -0.1,1 -0.2,0.1 -0.5,0.2 -0.7,0.4 0.3,-0.2 0.6,-0.6 0.6,-1.1 0.2,-5.3 0.5,-10.6 0.7,-16 0.2,-4 0.8,-8.2 0.5,-12.2 1.7,-4.8 5.4,-10.9 11,-8.9 z"
   id="path138351" />
					<path
   class="st3"
   d="m 95.8,236.2 c 2.2,2.3 3.2,6.2 2.4,9.1 -0.9,3.4 -4,5.9 -6.2,8.5 -3.5,4.2 -6.6,8.6 -9.3,13.4 0.5,-5 0.6,-9.9 1.2,-14.9 0.5,-4 4.5,-23.8 11.9,-16.1 z"
   id="path138353"
   style="fill:#ffffff" />
					<path
   d="m 86.1,280.7 c 0,0 0,0 0,0 0,0.2 0,0.3 0.1,0.4 0,0.1 0,0.1 0,0.1 0.2,0.5 0.7,1 1.3,0.9 0.7,0 1.5,-0.6 1.4,-1.4 0,-0.2 0,-0.3 -0.1,-0.5 0,0 0,0.1 0,0.1 0.5,1.3 -0.4,2.8 -1.8,3.2 -0.6,0.2 -1.3,-0.1 -1.6,-0.7 -0.7,-1.2 -1,-2.9 0.5,-3.7 0.6,-0.3 1.3,-0.3 1.8,-0.1 0.6,0.2 0.9,0.7 1,1.2 -0.3,-0.7 -1,-1.1 -1.7,-0.9 -0.4,0.2 -0.9,0.8 -0.9,1.4 z"
   id="path138355" />
					<path
   d="m 87.7,281 c 0,0.1 0,0.2 -0.1,0.3 0,0 0,0 0,0 -0.4,-0.2 -0.8,-0.3 -1.2,-0.5 0,0 0,0 0.1,0 0,0 0,0 -0.1,0 0,0 0,0 0,0 -0.1,0 -0.1,0.1 -0.2,0.1 v 0 c 0,0 0,0 0,0 0,0 0,0 0,0 0,0 0,0 0,0 0,0 0,0 0,0 0,0 0,0 0,0 v 0 c 0,0 0,0 0,0 0,0 0,0 0,-0.1 0,0 0,0 0,0 0,0 0,-0.1 0,-0.1 0,0 0,0 0,-0.1 0,-0.6 0.5,-1.2 1,-1.4 0.7,-0.2 1.4,0.2 1.7,0.9 0,0.1 0.1,0.3 0.1,0.5 0.1,0.8 -0.7,1.4 -1.4,1.4 -0.6,0 -1.1,-0.4 -1.3,-0.9 v 0 c 0,0 0,0 0,0 0.3,0.7 1.1,0.9 1.4,0.2 0.1,0 0.2,0.1 0.3,0.1 -0.1,-0.1 -0.1,-0.2 -0.2,-0.3 -0.1,0 -0.1,-0.1 -0.1,-0.1 z m 0,0 c 0,0 0,0 0,0 0,0 0,-0.1 0,-0.1 0,0 0,0.1 0,0.1 0,0 0,0 0,0 z"
   id="path138357" />
					<path
   d="m 88.4,290.2 c 0,2.3 0,4.5 0,6.8 0,1 -0.9,1.5 -1.8,1.4 -2.8,-0.5 -4.9,-3 -4.9,-5.9 0.3,0.1 0.6,0.2 1,0 0.6,-0.2 1.2,-0.4 1.8,-0.5 0,0.1 0,0.2 0,0.3 0,1 0.4,1.9 1.1,2.5 0,0.7 0,1.5 0,2.2 0.6,-0.5 1.2,-0.9 1.8,-1.4 -0.7,-0.1 -1.3,-0.4 -1.8,-0.8 0,-1 0,-2 0,-3 0.5,-0.1 0.9,-0.1 1.4,-0.2 -0.5,-0.5 -0.9,-0.9 -1.4,-1.4 0,0.5 0,1.1 0,1.6 -0.4,0.1 -0.7,0.1 -1.1,0.2 -0.2,-1.5 -2.8,-1.5 -2.8,0.3 0,0.1 0,0.2 0,0.2 -1,-0.5 -1.1,-2.2 0.2,-2.7 1.7,-0.6 3.3,-0.9 5.1,-1 0.8,-0.1 1.4,0.7 1.4,1.4 z"
   id="path138359" />
					<path
   d="m 87.8,281.1 c 0,0.1 0.1,0.2 0.2,0.3 -0.1,0 -0.2,-0.1 -0.3,-0.1 0,0 0,0 0,0 0.1,-0.1 0.1,-0.2 0.1,-0.3 -0.1,0 -0.1,0.1 0,0.1 z"
   id="path138361" />
					<path
   d="m 87.7,280.9 c 0,0 0,0.1 0,0.2 0,0 0,0 0,0 0,0 0,0 0,0 0,-0.1 0,-0.2 0,-0.2 z"
   id="path138363" />
					<path
   d="m 86.4,280.8 c 0.4,0.2 0.8,0.3 1.2,0.5 -0.3,0.7 -1.1,0.5 -1.4,-0.2 0,0 0,0 0,0 0,0 0,-0.1 0,-0.1 v 0 c 0,0 0,0 0,-0.1 0,0 0,0 0,0 v 0 c 0.1,-0.1 0.1,-0.1 0.2,-0.1 z"
   id="path138365" />
					<path
   d="m 87.4,295.6 c -0.6,0.5 -1.2,0.9 -1.8,1.4 0,-0.7 0,-1.5 0,-2.2 0.5,0.4 1.1,0.7 1.8,0.8 z"
   id="path138367" />
					<path
   d="m 85.6,290.2 c 0.5,0.5 0.9,0.9 1.4,1.4 -0.5,0 -1,0.1 -1.4,0.2 0,-0.6 0,-1.1 0,-1.6 z"
   id="path138369" />
					<path
   d="m 86.4,280.8 c 0,0 0,0 0,0 0,0 0,0 0,0 0,0 0,0 0,0 z"
   id="path138371" />
					<path
   d="m 86.2,280.9 c 0,0 0,0 0,0 0,0.1 0,0.1 0,0 v 0 0 c 0,0 0,0 0,0 z"
   id="path138373" />
					<path
   d="m 86.2,280.9 c 0,0 0,0 0,0 0,0 0,0 0,0 0,0 0,0 0,0 z"
   id="path138375" />
					<path
   d="m 86.2,281.1 v 0 c 0,0.1 0,0.1 0,0 -0.1,-0.2 -0.1,-0.3 -0.1,-0.4 0,0 0,0.1 0,0.1 0,0 0,0 0,0 0,0 0,0.1 0,0.1 0.1,0.2 0.1,0.2 0.1,0.2 z"
   id="path138377" />
					<path
   d="m 86.2,281.1 c 0,0 0,0 0,0 0,0 0,0 0,0 0,-0.1 0,0 0,0 0,0 0,0 0,0 z"
   id="path138379" />
					<path
   d="m 86.2,281.1 c 0,0 0,-0.1 0,0 v 0 c 0,-0.1 0,-0.1 0,-0.1 0,0 0,0 0,0.1 z"
   id="path138381" />
					<path
   d="m 86.2,280.9 c 0,0 0,0 0,0 0,0 0,0 0,0 z"
   id="path138383" />
					<path
   d="m 86.2,280.9 v 0 0 c 0,0.1 0,0.1 0,0 z"
   id="path138385" />
					<path
   d="m 86.2,281 v 0 c -0.1,0 -0.1,0 0,0 -0.1,0 0,0 0,0 z"
   id="path138387" />
					<path
   d="m 85.4,268.3 c -0.1,0.2 -0.2,0.3 -0.3,0.5 -0.5,0.8 -1.3,0.8 -1.9,0.5 0.7,-0.4 1.5,-0.7 2.2,-1 z"
   id="path138389" />
					<path
   d="m 83.7,240.7 c 0.2,4 -0.3,8.2 -0.5,12.2 -0.2,5.3 -0.5,10.6 -0.7,16 0,0.5 -0.3,0.9 -0.6,1.1 -0.1,0 -0.2,0.1 -0.2,0.1 -0.1,0.1 -0.3,0.1 -0.4,0.1 -0.1,-0.1 -0.3,-0.3 -0.5,-0.3 -0.3,-0.1 -0.6,-0.3 -0.9,-0.5 1.1,-8.9 0.6,-18.1 3.3,-26.7 0,-0.6 0.2,-1.3 0.5,-2 z"
   id="path138391" />
					<path
   d="m 83.4,237.9 c 0.2,0.9 0.3,1.8 0.3,2.8 -0.3,0.7 -0.5,1.4 -0.7,2 -2.7,8.6 -2.2,17.8 -3.3,26.7 0,0 0,0 0,0 -0.1,-0.2 -0.1,-0.3 -0.1,-0.5 0.3,-6.2 0.6,-12.4 0.9,-18.6 0.1,-2.6 0.3,-5.2 0.3,-7.9 0,-1.9 0.2,-5.5 -1.2,-7 -2,-0.7 -3.9,-1.5 -5.8,-2.2 -0.7,0.7 -1.4,1.3 -2,2 -3.4,5.1 -1.3,13.9 0.3,19.3 1.3,4.6 3.1,12.2 7.7,14.9 0,0 0,0 0,0.1 0,0.1 0,0.2 0,0.3 -0.1,0.6 0.2,0.9 0.5,1.1 -0.6,0.3 -1.1,0.7 -1.6,1 -6,-3.5 -8.1,-12.1 -9.7,-18.3 -1.7,-6.3 -3.6,-17.1 2.2,-22 5.2,-4.4 11.2,0.6 12.2,6.3 z"
   id="path138393" />
					<path
   d="m 81.7,292.2 c 0,-1.7 2.6,-1.8 2.8,-0.3 -0.6,0.1 -1.2,0.3 -1.8,0.5 -0.4,0.1 -0.7,0.1 -1,0 0,0 0,-0.1 0,-0.2 z"
   id="path138395" />
					<path
   d="m 82.7,267.4 c 0,-0.1 0.1,-0.1 0.1,-0.2 -0.1,0.5 -0.1,1 -0.2,1.5 -0.2,-0.4 -0.2,-0.9 0.1,-1.3 z"
   id="path138397" />
					<path
   d="m 82.5,269.6 c 0,0 0,0.1 0,0.1 -0.1,0.6 -0.5,1 -1,1.2 0,-0.2 -0.2,-0.5 -0.3,-0.7 0.1,-0.1 0.2,-0.1 0.4,-0.2 0.1,0 0.2,-0.1 0.2,-0.1 0.2,-0.1 0.5,-0.2 0.7,-0.3 z"
   id="path138399" />
					<path
   d="m 81.6,270.1 c 0.1,0 0.2,-0.1 0.2,-0.1 -0.1,0 -0.1,0.1 -0.2,0.1 z"
   id="path138401" />
					<path
   d="m 81.5,270.9 c 0.1,0.7 -0.1,1.4 -0.7,1.6 -0.3,0.2 -0.6,0.2 -1,0 -0.5,-0.2 -0.9,-0.4 -1.4,-0.7 0.5,-0.4 1.1,-0.7 1.6,-1 0.5,0.3 1.1,0.3 1.5,0.1 z"
   id="path138403" />
					<path
   d="m 81.2,270.3 c 0.2,0.2 0.3,0.4 0.3,0.7 -0.5,0.2 -1,0.2 -1.4,-0.1 0.4,-0.2 0.8,-0.4 1.1,-0.6 z"
   id="path138405" />
					<path
   d="m 81.6,270.1 c -0.1,0.1 -0.2,0.1 -0.4,0.2 0,0 0,-0.1 -0.1,-0.1 0.2,0 0.3,0 0.5,-0.1 z"
   id="path138407" />
					<path
   d="m 81.1,270.2 c 0.1,0 0.1,0 0,0 -0.3,0.3 -0.6,0.5 -1,0.7 -0.3,-0.2 -0.6,-0.6 -0.5,-1.1 0,-0.1 0,-0.2 0,-0.3 0.3,0.5 0.9,0.8 1.5,0.7 z"
   id="path138409" />
					<path
   d="m 81.1,270.2 c -0.6,0.1 -1.2,-0.2 -1.5,-0.7 0,0 0,0 0,0 0.3,0.2 0.6,0.3 0.9,0.5 0.3,-0.1 0.5,0.1 0.6,0.2 z"
   id="path138411" />
					<path
   class="st3"
   d="m 79.6,235.4 c 1.4,1.5 1.2,5.1 1.2,7 0,2.6 -0.2,5.2 -0.3,7.9 -0.3,6.2 -0.6,12.4 -0.9,18.6 0,0.2 0,0.4 0.1,0.5 -4.6,-2.7 -6.3,-10.3 -7.7,-14.9 -1.6,-5.4 -3.7,-14.2 -0.3,-19.3 0.7,-0.7 1.4,-1.3 2,-2 2,0.8 3.9,1.5 5.9,2.2 z"
   id="path138413"
   style="fill:#ffffff" />
					<path
   d="m 78.7,280.1 c 1.5,0 2.2,1.6 1.6,2.8 -0.3,0.6 -1.1,0.8 -1.7,0.6 0.2,0 0.3,-0.1 0.4,-0.2 0.5,-0.3 0.7,-0.8 0.7,-1.3 0,-0.2 -0.1,-0.4 -0.2,-0.6 0,0 0,-0.1 0,-0.1 0,0.2 0.1,0.3 0.1,0.5 -0.1,-0.2 -0.4,0 -0.9,0.3 -0.9,0.5 -1.2,0.3 -0.9,-0.7 -0.3,0.7 -0.2,1.5 0.5,1.9 0.1,0 0.2,0.1 0.3,0.1 -0.6,0.1 -1.3,-0.1 -1.5,-0.7 -0.3,-0.7 -0.3,-1.3 0,-1.9 0.4,-0.4 1,-0.7 1.6,-0.7 z"
   id="path138415" />
					<path
   d="m 79.7,282.1 c 0,0.5 -0.1,1 -0.7,1.3 -0.1,0.1 -0.3,0.1 -0.4,0.2 -0.1,0 -0.2,-0.1 -0.3,-0.1 -0.7,-0.4 -0.9,-1.3 -0.5,-1.9 -0.3,1 0,1.2 0.9,0.7 0.5,-0.4 0.8,-0.5 0.9,-0.3 0,0 0,0 0,0 0.1,-0.1 0.1,0 0.1,0.1 0,-0.1 0,0 0,0 z"
   id="path138417" />
					<path
   d="m 79.7,282.1 c 0,0 0,-0.1 0,0 0,-0.1 0,-0.2 0,-0.2 0,0 0,0 0,0 0,-0.2 -0.1,-0.3 -0.1,-0.5 0,0 0,0.1 0,0.1 0,0.2 0.1,0.4 0.1,0.6 z"
   id="path138419" />
					<path
   d="m 79.7,269.4 c 0,0 0,0 0,0 0,0 0,0 0,0 0,0 0,0 0,0 z"
   id="path138421" />
					<path
   d="m 79.7,282 c 0,0 0,-0.1 0,-0.1 0,0 0,0.1 0,0.1 z"
   id="path138423" />
				</g>
				<g
   id="g138517">
					<path
   class="st4"
   d="m 130.9,275.3 c 0.3,0.4 0.7,0.9 1,1.3 0.1,0.2 0.3,0.4 0.4,0.7 0.5,0.8 0.9,1.8 1.1,2.7 0.3,1 1.4,1.2 2.1,0.8 0.5,-0.3 0.8,-0.8 0.6,-1.5 -0.1,-0.5 -0.3,-1 -0.5,-1.4 -0.4,-1.1 -1,-2.1 -1.7,-3.1 -0.9,-1.2 -1.9,-2.4 -3.1,-3.3 -0.9,-0.8 -1.9,-1.5 -2.9,-2.1 -6.1,-3.7 -14.3,-5.2 -20.8,-5.4 -6.9,-0.2 -13.9,1 -20.4,3.6 -0.5,0.2 -1,0.4 -1.5,0.6 -0.7,0.3 -1.5,0.6 -2.2,1 -0.2,0.1 -0.5,0.2 -0.7,0.3 -0.2,0.1 -0.5,0.2 -0.7,0.4 -0.1,0 -0.2,0.1 -0.2,0.1 -0.1,0.1 -0.2,0.1 -0.4,0.2 -0.4,0.2 -0.7,0.4 -1.1,0.6 -0.6,0.3 -1.1,0.7 -1.6,1 -2.1,1.4 -3.9,3.1 -5.1,5.1 -6.1,9.8 1.2,22.3 9.4,28.1 10.9,7.8 26.5,8.1 38.8,3.7 12.9,-4.6 16,-16 13.9,-27.9 -0.2,-1 -0.4,-2 -0.6,-3 -0.1,-0.4 -0.2,-0.8 -0.3,-1.2 -0.4,-1.5 -2.4,-1.2 -2.7,0 0,0.2 -0.1,0.3 0,0.5 0,0.1 0,0.1 0,0.2 1.6,5.9 2.6,12.6 0.3,18.5 -2.8,7.2 -10.1,10.3 -17.1,11.8 -13.6,2.8 -29.9,0.4 -37.8,-12.3 -3.8,-6.2 -4.9,-14.8 1.3,-19.8 0.9,-0.7 1.9,-1.4 2.9,-2 4.5,-2.8 9.7,-4.7 14.8,-5.7 8.6,-1.7 23.8,-1.5 32,5 0.3,0.3 0.7,0.5 1,0.8 0.8,0.5 1.3,1.1 1.8,1.7"
   id="path138427"
   style="fill:none;stroke:#000000;stroke-miterlimit:10" />
					<path
   class="st4"
   d="m 129.3,273.6 c 0.8,0.2 1.8,-0.2 1.7,-1.3 0,-0.3 -0.1,-0.5 -0.1,-0.8 -0.2,-2.1 -0.4,-4.7 1,-6.3 2.3,-2.5 5.9,-0.4 7.8,1.4 1.9,1.8 4.9,5.1 1.7,7.2 -2.1,1.4 -5,1.6 -7.4,1 -0.5,-0.1 -1,-0.2 -1.4,-0.4 -0.8,-0.3 -1.4,0.2 -1.6,0.8 0,0 0,0 0,0 -0.2,0.7 0,1.6 0.9,1.9 0,0 0,0 0,0 0.1,0 0.3,0.1 0.4,0.1 0.8,0.2 1.7,0.4 2.6,0.5 0.2,0 0.5,0 0.7,0.1 3.2,0.2 6.5,-0.6 8.7,-2.7 3.3,-3.2 0.4,-7.3 -2,-9.9 -2.6,-2.8 -6.6,-5.2 -10.5,-3.4 -3.1,1.4 -3.8,4.5 -3.8,7.5 0,1 0.1,2 0.2,2.9 0,0.2 0.1,0.3 0.1,0.4 0.2,0.6 0.6,0.9 1,1 z"
   id="path138429"
   style="fill:none;stroke:#000000;stroke-miterlimit:10" />
					<path
   class="st4"
   d="m 79.7,269.4 c 0,0 0,0 0,0 0.3,0.6 0.9,0.9 1.5,0.8 0.2,0 0.3,0 0.4,-0.1 0.1,0 0.2,-0.1 0.2,-0.1 0.3,-0.2 0.6,-0.6 0.6,-1.1 0.2,-5.3 0.5,-10.6 0.7,-16 0.2,-4 0.8,-8.2 0.5,-12.2 0,-0.9 -0.2,-1.9 -0.3,-2.8 -1,-5.7 -7,-10.7 -12.3,-6.3 -5.9,4.9 -3.9,15.6 -2.2,22 1.6,6.2 3.7,14.8 9.7,18.3 0.4,0.3 0.9,0.5 1.4,0.7 0.4,0.2 0.7,0.1 1,0 0.5,-0.3 0.8,-1 0.7,-1.6 0,-0.2 -0.2,-0.5 -0.3,-0.7 0,0 0,-0.1 -0.1,-0.1 -0.1,-0.1 -0.3,-0.3 -0.5,-0.3 -0.4,-0.2 -0.7,-0.3 -1,-0.5 0,0 0,0 0,0"
   id="path138431"
   style="fill:none;stroke:#000000;stroke-miterlimit:10" />
					<path
   class="st4"
   d="m 79.7,269.4 c -4.6,-2.7 -6.3,-10.3 -7.7,-14.9 -1.6,-5.4 -3.7,-14.2 -0.3,-19.3 0.7,-0.7 1.4,-1.3 2,-2 1.9,0.7 3.9,1.5 5.8,2.2 1.4,1.5 1.2,5.1 1.2,7 0,2.6 -0.2,5.2 -0.3,7.9 -0.3,6.2 -0.6,12.4 -0.9,18.6 0.1,0.2 0.1,0.3 0.2,0.5 z"
   id="path138433"
   style="fill:none;stroke:#000000;stroke-miterlimit:10" />
					<path
   class="st4"
   d="m 82.8,267.2 c 0,0.1 -0.1,0.1 -0.1,0.2 -0.3,0.5 -0.2,0.9 0,1.3 0.1,0.3 0.3,0.5 0.6,0.6 0.6,0.4 1.4,0.3 1.9,-0.5 0.1,-0.2 0.2,-0.3 0.3,-0.5 2.5,-4.4 5.4,-8.6 8.6,-12.5 2.3,-2.8 5.4,-5.4 6.8,-8.9 1.9,-4.8 -0.9,-13.2 -6,-15.1 -5.6,-2.1 -9.3,4.1 -11.1,8.9 -0.3,0.7 -0.5,1.4 -0.7,2 -2.7,8.6 -2.2,17.8 -3.3,26.7 0,0 0,0 0,0 0,0.1 0,0.2 0,0.3 -0.1,0.6 0.2,0.9 0.5,1.1 0.4,0.2 0.9,0.3 1.4,0.1 0.5,-0.2 0.9,-0.6 1,-1.2 0,0 0,-0.1 0,-0.1 0,-0.3 0.1,-0.7 0.1,-1 -0.1,-0.5 -0.1,-0.9 0,-1.4"
   id="path138435"
   style="fill:none;stroke:#000000;stroke-miterlimit:10" />
					<path
   class="st4"
   d="m 82.8,267.2 c 0.5,-5 0.6,-9.9 1.2,-14.9 0.4,-3.9 4.4,-23.7 11.8,-16 2.2,2.3 3.2,6.2 2.4,9.1 -0.9,3.4 -4,5.9 -6.2,8.5 -3.5,4.1 -6.5,8.6 -9.2,13.3 z"
   id="path138437"
   style="fill:none;stroke:#000000;stroke-miterlimit:10" />
					<path
   class="st4"
   d="m 78.6,283.5 c 0.2,0 0.3,-0.1 0.4,-0.2 0.5,-0.3 0.7,-0.8 0.7,-1.3 0,-0.2 -0.1,-0.4 -0.2,-0.6 0,0 0,-0.1 0,-0.1 0,0.2 0.1,0.3 0.1,0.5"
   id="path138439"
   style="fill:none;stroke:#000000;stroke-miterlimit:10" />
					<path
   class="st4"
   d="m 78.6,283.5 c 0.6,0.2 1.4,0 1.7,-0.6 0.6,-1.2 -0.1,-2.8 -1.6,-2.8 -0.6,0 -1.3,0.3 -1.6,0.9 -0.4,0.6 -0.3,1.3 0,1.9 0.3,0.5 1,0.8 1.5,0.6 z"
   id="path138441"
   style="fill:none;stroke:#000000;stroke-miterlimit:10" />
					<path
   class="st4"
   d="m 79.7,281.9 c -0.1,-0.2 -0.4,0 -0.9,0.3 -0.9,0.5 -1.2,0.3 -0.9,-0.7 -0.3,0.7 -0.2,1.5 0.5,1.9 0.1,0 0.2,0.1 0.3,0.1"
   id="path138443"
   style="fill:none;stroke:#000000;stroke-miterlimit:10" />
					<path
   class="st4"
   d="m 79.7,282.1 c 0,0 0,-0.1 0,0 0,-0.1 0,-0.2 0,-0.2"
   id="path138445"
   style="fill:none;stroke:#000000;stroke-miterlimit:10" />
					<path
   class="st4"
   d="m 79.7,281.9 c 0,0 0,0.1 0,0.1"
   id="path138447"
   style="fill:none;stroke:#000000;stroke-miterlimit:10" />
					<path
   class="st4"
   d="m 79.7,281.9 c 0,0 0,0 0,0"
   id="path138449"
   style="fill:none;stroke:#000000;stroke-miterlimit:10" />
					<path
   class="st4"
   d="m 86.1,280.9 c 0,0.1 0,0.1 0,0 0,0.1 0,0.2 0.1,0.2"
   id="path138451"
   style="fill:none;stroke:#000000;stroke-miterlimit:10" />
					<path
   class="st4"
   d="m 86.1,280.7 c 0,0 0,0 0,0"
   id="path138453"
   style="fill:none;stroke:#000000;stroke-miterlimit:10" />
					<path
   class="st4"
   d="m 86.1,280.8 c 0,0 0,0.1 0,0.1 0,0 0,0 0,0"
   id="path138455"
   style="fill:none;stroke:#000000;stroke-miterlimit:10" />
					<path
   class="st4"
   d="m 86.2,281 c 0,0 -0.1,0 0,0"
   id="path138457"
   style="fill:none;stroke:#000000;stroke-miterlimit:10" />
					<path
   class="st4"
   d="m 86.2,281.1 c 0,0 0,-0.1 0,0"
   id="path138459"
   style="fill:none;stroke:#000000;stroke-miterlimit:10" />
					<path
   class="st4"
   d="m 87.7,281 c 0,0.1 0,0.2 -0.1,0.3 0,0 0,0 0,0 -0.3,0.7 -1.1,0.5 -1.4,-0.2"
   id="path138461"
   style="fill:none;stroke:#000000;stroke-miterlimit:10" />
					<path
   class="st4"
   d="m 87.7,281 c 0,0 0,0 0,0 0,0 0,-0.1 0,-0.1 0,0 0,0.1 0,0.1 0,0 0,0 0,0 z"
   id="path138463"
   style="fill:none;stroke:#000000;stroke-miterlimit:10" />
					<path
   class="st4"
   d="m 87.7,281 c 0,0 0,0 0,0"
   id="path138465"
   style="fill:none;stroke:#000000;stroke-miterlimit:10" />
					<path
   class="st4"
   d="m 86.4,280.8 c 0,0 0,0 0,0 0,0 0,0 0,0 0.4,0.2 0.8,0.4 1.2,0.5 0.1,0 0.2,0.1 0.3,0.1 -0.1,-0.1 -0.1,-0.2 -0.2,-0.3 0,-0.1 -0.1,-0.1 -0.1,-0.1"
   id="path138467"
   style="fill:none;stroke:#000000;stroke-miterlimit:10" />
					<path
   class="st4"
   d="m 86.4,280.8 c 0,0 0,0 0,0 0,0 0,0 0,0"
   id="path138469"
   style="fill:none;stroke:#000000;stroke-miterlimit:10" />
					<path
   class="st4"
   d="m 86.2,280.9 c 0,0 0,0 0,0"
   id="path138471"
   style="fill:none;stroke:#000000;stroke-miterlimit:10" />
					<path
   class="st4"
   d="m 86.2,280.9 c 0,0.1 0,0.1 0,0"
   id="path138473"
   style="fill:none;stroke:#000000;stroke-miterlimit:10" />
					<path
   class="st4"
   d="m 86.2,280.9 c 0,0 0,0 0,0"
   id="path138475"
   style="fill:none;stroke:#000000;stroke-miterlimit:10" />
					<path
   class="st4"
   d="m 86.2,281 c 0,-0.1 0,-0.1 0,0 0,-0.1 0,-0.1 0,0 v 0 c 0.1,-0.1 0.1,-0.2 0.2,-0.2"
   id="path138477"
   style="fill:none;stroke:#000000;stroke-miterlimit:10" />
					<line
   class="st4"
   x1="86.199997"
   y1="281"
   x2="86.199997"
   y2="281"
   id="line138479"
   style="fill:none;stroke:#000000;stroke-miterlimit:10" />
					<path
   class="st4"
   d="m 86.2,281 c 0,0 0,0 0,0"
   id="path138481"
   style="fill:none;stroke:#000000;stroke-miterlimit:10" />
					<path
   class="st4"
   d="m 86.2,280.9 c 0,0 0,0 0,0"
   id="path138483"
   style="fill:none;stroke:#000000;stroke-miterlimit:10" />
					<path
   class="st4"
   d="m 86.2,280.9 c 0,0 0,0 0,0"
   id="path138485"
   style="fill:none;stroke:#000000;stroke-miterlimit:10" />
					<path
   class="st4"
   d="m 86.2,280.9 c 0,0 0,0 0,0"
   id="path138487"
   style="fill:none;stroke:#000000;stroke-miterlimit:10" />
					<polyline
   class="st4"
   points="86.2,280.9 86.2,280.9 86.2,280.9      "
   id="polyline138489"
   style="fill:none;stroke:#000000;stroke-miterlimit:10" />
					<path
   class="st4"
   d="m 86.2,280.9 c 0,0.1 0,0.1 0,0"
   id="path138491"
   style="fill:none;stroke:#000000;stroke-miterlimit:10" />
					<line
   class="st4"
   x1="86.199997"
   y1="281"
   x2="86.199997"
   y2="281"
   id="line138493"
   style="fill:none;stroke:#000000;stroke-miterlimit:10" />
					<path
   class="st4"
   d="m 86.2,281.1 c 0,0 0,0 0,0 0,0 0,0 0,0 0,-0.1 0,-0.1 0,-0.2"
   id="path138495"
   style="fill:none;stroke:#000000;stroke-miterlimit:10" />
					<line
   class="st4"
   x1="86.199997"
   y1="281.10001"
   x2="86.199997"
   y2="281.10001"
   id="line138497"
   style="fill:none;stroke:#000000;stroke-miterlimit:10" />
					<path
   class="st4"
   d="m 88.8,280.2 c -0.3,-0.7 -1,-1.1 -1.7,-0.9 -0.6,0.2 -1,0.8 -1,1.4 0,0 0,0 0,0.1 0,0.1 0,0.2 0,0.3 0,0.1 0,0.1 0,0.1"
   id="path138499"
   style="fill:none;stroke:#000000;stroke-miterlimit:10" />
					<path
   class="st4"
   d="m 88.8,280.2 c -0.2,-0.5 -0.5,-1 -1,-1.2 -0.6,-0.2 -1.3,-0.2 -1.8,0.1 -1.4,0.8 -1.2,2.5 -0.5,3.7 0.3,0.6 1,0.8 1.6,0.7 1.3,-0.3 2.2,-1.8 1.8,-3.2 0,0 -0.1,-0.1 -0.1,-0.1 z"
   id="path138501"
   style="fill:none;stroke:#000000;stroke-miterlimit:10" />
					<path
   class="st4"
   d="m 86.2,281.1 c 0.2,0.5 0.7,1 1.3,0.9 0.7,0 1.5,-0.6 1.4,-1.4 0,-0.2 0,-0.3 -0.1,-0.5"
   id="path138503"
   style="fill:none;stroke:#000000;stroke-miterlimit:10" />
					<path
   class="st4"
   d="m 81.7,292.5 c 0,2.8 2.1,5.4 4.9,5.9 0.9,0.2 1.8,-0.4 1.8,-1.4 0,-2.3 0,-4.5 0,-6.8 0,-0.7 -0.7,-1.5 -1.4,-1.4 -1.7,0.1 -3.4,0.5 -5.1,1 -1.3,0.4 -1.1,2.2 -0.2,2.7 z"
   id="path138505"
   style="fill:none;stroke:#000000;stroke-miterlimit:10" />
					<path
   class="st4"
   d="m 85.6,294.8 c -0.7,-0.6 -1.1,-1.5 -1.1,-2.5 0,-0.1 0,-0.2 0,-0.3 -0.2,-1.5 -2.8,-1.5 -2.8,0.3 0,0.1 0,0.2 0,0.2"
   id="path138507"
   style="fill:none;stroke:#000000;stroke-miterlimit:10" />
					<path
   class="st4"
   d="m 85.6,294.8 c 0,0.7 0,1.5 0,2.2 0.6,-0.5 1.2,-0.9 1.8,-1.4 -0.7,-0.1 -1.3,-0.4 -1.8,-0.8 z"
   id="path138509"
   style="fill:none;stroke:#000000;stroke-miterlimit:10" />
					<path
   class="st4"
   d="m 85.6,291.8 c 0,1 0,2 0,3"
   id="path138511"
   style="fill:none;stroke:#000000;stroke-miterlimit:10" />
					<path
   class="st4"
   d="m 85.6,291.8 c 0.5,-0.1 0.9,-0.1 1.4,-0.2 -0.5,-0.5 -0.9,-0.9 -1.4,-1.4 0,0.5 0,1 0,1.6 z"
   id="path138513"
   style="fill:none;stroke:#000000;stroke-miterlimit:10" />
					<path
   class="st4"
   d="m 81.7,292.5 c 0.3,0.1 0.6,0.2 1,0 0.6,-0.2 1.2,-0.4 1.8,-0.5 0.4,-0.1 0.7,-0.2 1.1,-0.2"
   id="path138515"
   style="fill:none;stroke:#000000;stroke-miterlimit:10" />
				</g>
			</g>
		</g>
	</g><g
         id="g139053"
         transform="matrix(0.80470252,-3.9974768,-3.9480889,-0.79476061,1040.5238,401.61393)">
		<g
   id="g139051">
			<g
   id="XMLID_5_">
				<g
   id="g139046">
					<path
   d="m 173,435.4 c 2.1,4.8 0.7,10.8 -4.2,13.2 -2.7,1.4 -5.7,1 -7.9,-0.5 -0.1,-2 -0.6,-3.8 -1.4,-5.5 0.4,0.1 0.8,0.4 1,0.9 1.5,3.7 6.1,4.1 8.8,1.4 2.5,-2.6 2.4,-6.5 0.6,-9.5 -1.9,-3.1 -5.4,-4.6 -8.7,-2.4 -2.7,1.8 -3.2,5 -2.6,7.9 -0.8,-1.4 -1.8,-2.6 -2.9,-3.8 0.5,-3 2.1,-5.7 5.2,-7.1 5,-2.5 10,0.5 12.1,5.4 z"
   id="path138908" />
					<path
   class="st6"
   d="m 169.8,435.3 c 1.8,3 1.9,6.9 -0.6,9.5 -2.6,2.7 -7.3,2.3 -8.8,-1.4 -0.2,-0.5 -0.6,-0.8 -1,-0.9 -0.3,-0.6 -0.6,-1.2 -0.9,-1.8 -0.6,-2.9 -0.1,-6 2.6,-7.9 3.3,-2.1 6.8,-0.6 8.7,2.5 z"
   id="path138910"
   style="fill:#b3b3b3" />
					<path
   d="m 160.3,451.6 c 1.8,5 2.1,10.1 -2.1,14.4 -5,5.2 -12.9,8.3 -19.9,9.6 -12.7,2.5 -26.4,-0.2 -36.8,-7.9 -9.7,-7.2 -17.5,-21.3 -9.2,-32.5 1.7,-2.3 3.8,-4.2 6.2,-5.6 0.1,0.1 0.2,0.1 0.3,0.2 0.1,0 0.1,0.1 0.1,0.1 0.4,0.6 1.3,0.8 1.9,0.6 l 0.5,1 c -1.2,0.6 -2.3,1.3 -3.3,2 -7,5.2 -7.7,14.6 -3.8,22 6.5,12.2 21.7,18.3 34.9,18.3 6.5,0 13.1,-1.4 19,-4.3 3.5,-1.7 7.9,-4.1 9.8,-7.6 1.8,-3.3 1,-6.9 -0.4,-10.1 l 0.9,-0.3 c 0.3,0.5 1.3,0.6 1.9,0.1 z"
   id="path138912" />
					<path
   d="m 160.9,450.5 c 0,0.5 -0.3,0.9 -0.6,1.1 -0.6,-1.6 -1.3,-3.2 -2,-4.7 -0.1,-0.3 -0.3,-0.5 -0.5,-0.6 v 0 c -0.1,-0.7 -0.3,-1.3 -0.5,-1.9 0.2,0.1 0.4,0.1 0.7,0.1 0.7,1.5 1.7,2.7 3,3.5 -0.1,0.9 -0.1,1.7 -0.1,2.5 z"
   id="path138914" />
					<path
   class="st6"
   d="m 157.4,451.8 c 1.3,3.3 2.2,6.9 0.4,10.1 -1.9,3.5 -6.3,5.9 -9.8,7.6 -5.9,2.9 -12.5,4.2 -19,4.3 -13.2,0 -28.5,-6.1 -34.9,-18.3 -3.9,-7.4 -3.2,-16.7 3.8,-22 1,-0.8 2.2,-1.5 3.3,-2 5.6,-2.8 12.5,-3.5 18.5,-3.6 10.7,-0.1 29.5,3.1 36,13.6 0.2,0.7 0.4,1.4 0.7,2.1 0.2,0.4 0.4,0.6 0.8,0.8 0.2,0.6 0.4,1.3 0.5,1.9 -1,-0.6 -2.5,0.7 -1.9,2 0.6,1.2 1.1,2.3 1.6,3.5 z m -47.7,-3 c 1.6,-0.8 0.1,-3.2 -1.5,-2.4 -3,1.5 -6.2,1.7 -9.4,0.6 -1.7,-0.6 -2.4,2.2 -0.7,2.7 3.9,1.4 8,1 11.6,-0.9 z m -5.6,-7.4 c 1.5,0 2.7,-1.3 2.7,-2.8 0,-0.8 -0.7,-1.4 -1.5,-1.4 -0.6,0 -1,0.4 -1.2,0.8 -0.2,-0.6 -0.8,-1 -1.4,-0.9 -0.8,0 -1.3,0.7 -1.4,1.5 0.1,1.5 1.3,2.8 2.8,2.8 z m -6.6,0.9 c 1,-0.4 2.3,-1.3 2.1,-2.5 -0.1,-1.1 -1.3,-2 -2.4,-1.9 -0.3,0 -0.6,0.2 -0.8,0.3 -0.5,-0.2 -1.2,-0.1 -1.6,0.3 -0.8,0.7 -0.8,1.9 -0.2,2.8 0.6,1 1.8,1.4 2.9,1 z"
   id="path138916"
   style="fill:#b3b3b3" />
					<path
   d="m 160.3,451.6 c -0.6,0.4 -1.5,0.4 -2,-0.2 -0.2,-0.2 -0.3,-0.5 -0.2,-0.9 0.1,-1.5 0,-2.9 -0.3,-4.3 0.2,0.1 0.4,0.3 0.5,0.6 0.7,1.7 1.4,3.2 2,4.8 z"
   id="path138918" />
					<path
   d="m 158.3,451.5 -0.9,0.3 c -0.5,-1.2 -1,-2.3 -1.6,-3.4 -0.7,-1.3 0.9,-2.6 1.9,-2 v 0 c 0.3,1.3 0.4,2.7 0.3,4.3 0,0.3 0.1,0.6 0.3,0.8 z"
   id="path138920" />
					<path
   d="m 159.5,442.6 c 0.7,1.7 1.2,3.5 1.4,5.5 -1.3,-0.8 -2.3,-2 -3,-3.5 0.9,0 1.7,-0.7 1.3,-1.7 0,-0.1 -0.1,-0.2 -0.1,-0.3 0.1,-0.1 0.2,-0.1 0.4,0 z"
   id="path138922" />
					<path
   d="m 159.5,442.6 c -0.1,0 -0.3,-0.1 -0.4,0 -0.2,-0.6 -0.4,-1.2 -0.5,-1.8 0.3,0.5 0.6,1.1 0.9,1.8 z"
   id="path138924" />
					<path
   d="m 159.1,442.8 c 0.4,1 -0.4,1.7 -1.3,1.7 -0.1,-0.1 -0.1,-0.2 -0.1,-0.3 -0.4,-1 0.4,-1.7 1.3,-1.7 0.1,0.1 0.1,0.2 0.1,0.3 z"
   id="path138926" />
					<path
   d="m 157.7,444.3 c 0,0.1 0.1,0.2 0.1,0.3 -0.2,0 -0.5,0 -0.7,-0.1 -0.4,-1 -0.8,-2 -1.4,-2.9 -0.3,-1.5 -0.4,-3 -0.2,-4.5 1.1,1.2 2.1,2.4 2.9,3.8 0.1,0.6 0.3,1.2 0.5,1.8 -0.7,-0.2 -1.6,0.5 -1.2,1.6 z"
   id="path138928" />
					<path
   d="m 157.2,444.4 c -0.3,-0.1 -0.6,-0.4 -0.8,-0.8 -0.3,-0.7 -0.5,-1.4 -0.7,-2.1 0.7,0.9 1.1,1.9 1.5,2.9 z"
   id="path138930" />
					<path
   d="m 155.6,437 c -0.2,1.5 -0.2,3 0.2,4.5 -6.5,-10.5 -25.3,-13.6 -36,-13.6 -6.1,0 -12.9,0.7 -18.5,3.6 l -0.5,-1 c 0.3,-0.1 0.5,-0.5 0.6,-0.9 0,-0.5 0.1,-1 0.2,-1.5 0.5,0.1 1.2,-0.2 1.5,-0.6 9,-3.4 20.4,-2.9 28.8,-1.4 7.8,1.5 17.8,4.7 23.7,10.9 z"
   id="path138932" />
					<path
   d="m 117.6,384.1 c 7,1.2 8.8,14 6.4,19.1 -1.9,4.3 -6,8 -9,11.5 -3.3,3.9 -6.8,7.6 -10.9,10.7 -0.3,0.3 -0.7,0.3 -1,0.2 -0.2,-0.9 -0.3,-1.8 -0.4,-2.7 5.6,-4.2 9.9,-9.7 14.3,-15 2.8,-3.4 5.6,-6.4 5.2,-11.1 -0.3,-3.9 -3.6,-13.2 -8.9,-8.1 -2.7,2.6 -4.9,5.6 -6.6,9 0,-0.3 0,-0.6 0.1,-0.9 0.1,-1.4 0,-2.9 -0.2,-4.4 2.6,-4.6 6.5,-9.1 11,-8.3 z"
   id="path138934" />
					<path
   d="m 108.2,446.4 c 1.6,-0.8 3.1,1.6 1.5,2.4 -3.6,1.9 -7.7,2.3 -11.5,1 -1.7,-0.6 -1.1,-3.3 0.7,-2.7 3.1,1 6.3,0.9 9.3,-0.7 z"
   id="path138936" />
					<path
   class="st6"
   d="m 122.1,396.8 c 0.4,4.8 -2.3,7.7 -5.2,11.1 -4.5,5.3 -8.8,10.8 -14.3,15 -0.1,-0.7 -0.2,-1.3 -0.2,-2 0.5,-3.4 1.1,-6.7 1.8,-10.1 0.9,-4.4 2.1,-8.7 2.4,-13.2 1.7,-3.4 3.9,-6.4 6.6,-9 5.3,-5 8.6,4.3 8.9,8.2 z"
   id="path138938"
   style="fill:#b3b3b3" />
					<path
   d="m 104,438.6 c 0,0 0,0 0,0 0,0 0,0.1 0,0 0,0.1 0,0.1 0,0 v 0 c 0,0 0.1,0 0,0 0.1,0 0.1,0 0,0 0.1,0 0.1,0 0.2,0 0,0 0,0 0.1,0 0,0 0,0 0,0 v 0 0 c 0,0 0,0 0,0 v 0 0 c 0,0 0,0 0,-0.1 0,-0.2 0,-0.3 -0.1,-0.4 0.2,-0.5 0.6,-0.8 1.2,-0.8 0.7,0 1.5,0.6 1.5,1.4 -0.1,1.5 -1.2,2.8 -2.7,2.8 -1.5,0 -2.8,-1.3 -2.7,-2.8 0,-0.8 0.5,-1.4 1.4,-1.5 0.6,0 1.2,0.4 1.4,0.9 -0.2,0.1 -0.2,0.3 -0.3,0.5 0,0 0,0 0,0 v 0 0 c 0,0 -0.1,0 0,0 z"
   id="path138940" />
					<path
   d="m 104.2,438.6 v 0 0 c 0,0 0,0 0,0 z"
   id="path138942" />
					<path
   d="m 104.2,438.6 c 0,0 0,0 0,0 v 0 0 c 0,0 0,0 0,0 z"
   id="path138944" />
					<path
   d="m 104.2,438.6 v 0 c 0,0 0,0 0,0 v 0 c 0,0 0,0 0,0 z"
   id="path138946" />
					<path
   d="m 104.2,438.6 v 0 c 0,0 0,0 0,0 0,0 0,0 0,0 v 0 c 0,0 0,0 0,0 z"
   id="path138948" />
					<path
   d="m 104.2,438.6 c -0.1,-0.1 -0.1,-0.1 0,0 z m -0.1,0 c 0,0 -0.1,0 0,0 -0.1,0 0,0 0,0 0,-0.1 0,-0.1 0,0 -0.1,-0.1 -0.1,-0.1 0,0 0,-0.2 0,-0.3 0.1,-0.5 0.1,0.1 0.1,0.3 0.1,0.4 0,0 0,0.1 0,0.1 0,0 0,0 0,0 0,0 0,0 0,-0.1 0,0 0,0 0,0.1 v 0 c 0,0 0,0 0,0 -0.1,0 -0.1,0 -0.2,0 0,0 0,0 0,0 0,0 0,0 0,0 -0.1,0 0,0 0,0 z"
   id="path138950" />
					<path
   d="m 104.2,438.6 v 0 c 0,0 0,0 0,0 0,0 0,0 0,0 z"
   id="path138952" />
					<path
   d="m 104.2,438.6 v 0 c 0,0 0,0 0,0 0,0 0,0 0,0 0,0 0,0 0,0 0,0 0,0 0,0 z"
   id="path138954" />
					<path
   d="m 104.2,438.5 c 0,0 0,0.1 0,0 v 0 c 0,0.1 0,0 0,0 z"
   id="path138956" />
					<path
   d="m 104.2,438.6 v 0 c 0,0 0,0 0,0 z"
   id="path138958" />
					<path
   d="m 104.2,438.6 c 0,0 0,0 0,0 0,0 0,0 0,0 0,0 0,0 0,0 z"
   id="path138960" />
					<path
   d="m 104.2,438.6 c -0.1,-0.1 -0.1,-0.1 0,0 z"
   id="path138962" />
					<path
   d="m 104,438.6 c 0.1,0 0.1,0 0,0 0.1,0 0.1,0 0,0 0.1,0 0,0 0,0 z"
   id="path138964" />
					<path
   d="m 104.1,438.6 c 0,0 -0.1,0 0,0 -0.1,0 -0.1,0 0,0 -0.1,0 -0.1,0 0,0 -0.1,0 0,0 0,0 z"
   id="path138966" />
					<path
   d="m 104,438.6 v 0 0 0 c 0,0 0,0 0,0 z"
   id="path138968" />
					<path
   d="m 104.1,438.5 c 0,0 0,0 0,0 0,0.1 -0.1,0.1 0,0 -0.1,0 -0.1,0 0,0 z"
   id="path138970" />
					<path
   d="m 104,438.6 v 0 c 0,0 0,0 0,0 0,0 0,0 0,0 0,0 0,0 0,0 z"
   id="path138972" />
					<path
   d="m 104,438.6 c 0,0 0,0.1 0,0.1 0,0 0,-0.1 0,-0.1 z"
   id="path138974" />
					<path
   d="m 104,438.6 v 0 c 0,0 0,0 0,0 v 0 c 0,0 0,0 0,0 z"
   id="path138976" />
					<path
   d="m 104,438.6 v 0 0 0 c 0,0 0,0 0,0 z"
   id="path138978" />
					<path
   d="m 104,438.6 c 0,0 0,0 0,0 0,0 0,0 0,0 z"
   id="path138980" />
					<path
   d="m 104,438.6 v 0 c 0,0 0,0 0,0 0,0 0,0 0,0 z"
   id="path138982" />
					<path
   d="m 104,438.6 c 0,0 0,0 0,0 v 0 c -0.1,0 0,0 0,0 z"
   id="path138984" />
					<path
   d="m 103.2,426.4 c 0.1,0.5 0,0.9 -0.2,1.1 -0.5,0.2 -1,0.4 -1.5,0.6 0.2,-1.4 0.3,-2.9 0.5,-4.3 v 0 c -0.2,0.8 0.3,1.7 1,1.8 0.1,0.3 0.2,0.5 0.2,0.8 z"
   id="path138986" />
					<path
   d="m 99.6,439.8 c 0.1,1.2 -1.2,2.1 -2.1,2.5 -1.1,0.4 -2.2,0 -2.9,-0.9 -0.6,-0.8 -0.6,-2.1 0.2,-2.8 0.5,-0.4 1.1,-0.5 1.6,-0.3 -0.3,0.3 -0.5,0.6 -0.5,1.1 0,0.7 0.7,1.5 1.5,1.4 0.3,0 -0.1,0 -0.2,-0.1 -0.1,0 -0.2,-0.2 -0.2,-0.3 0.2,-0.3 0.3,-0.8 0.2,-1.2 0,-0.1 0,-0.1 0.1,-0.2 0,0 -0.1,0.1 -0.1,0.1 -0.1,-0.2 -0.2,-0.4 -0.4,-0.6 -0.1,-0.1 -0.3,-0.2 -0.4,-0.3 0.2,-0.2 0.5,-0.3 0.8,-0.3 1.2,-0.1 2.3,0.8 2.4,1.9 z"
   id="path138988" />
					<path
   d="m 103.1,425.6 c -0.7,-0.2 -1.2,-1 -1,-1.8 0.1,-0.3 0.2,-0.6 0.6,-0.8 0,0 0,0 0,0 0,0.9 0.2,1.8 0.4,2.6 z"
   id="path138990" />
					<path
   d="m 101.5,428.1 c 0.5,-0.2 1,-0.4 1.5,-0.6 -0.4,0.5 -1,0.8 -1.5,0.6 0,0 0,0 0,0 z"
   id="path138992" />
					<path
   d="m 101.3,429.6 c -0.1,0.5 -0.3,0.8 -0.6,0.9 -0.6,0.3 -1.4,0 -1.9,-0.6 1,0.6 2,-0.5 1.8,-1.5 0.2,-0.1 0.5,-0.2 0.7,-0.3 0,0 0,0 0,0 0.1,0.5 0.1,1 0,1.5 z"
   id="path138994" />
					<path
   d="m 101.5,428.1 c 0,0 0,0 0,0 -0.1,0.1 -0.1,0.1 0,0 -0.1,0 0,0 0,0 z"
   id="path138996" />
					<path
   d="m 101.5,428.1 c 0,0 -0.1,0 0,0 -0.5,-0.1 -0.8,-0.4 -1,-0.9 -0.4,-2 -0.8,-4.1 -0.9,-6.1 0.7,-4.9 1.7,-9.8 2.7,-14.6 0.4,-1.6 1,-5 1.3,-8.5 0.7,-1.6 1.7,-3.6 2.8,-5.5 0.2,1.5 0.3,3 0.2,4.4 0,0.3 0,0.6 -0.1,0.9 -3.6,7.1 -4.9,15.5 -4.2,23.3 -0.1,0.9 -0.3,1.9 -0.4,2.8 -0.1,1.3 -0.3,2.8 -0.4,4.2 z"
   id="path138998" />
					<path
   d="m 100.5,427.2 c 0.1,0.6 0.5,0.9 0.9,1 -0.2,0.1 -0.5,0.2 -0.7,0.3 0,-0.4 -0.2,-0.8 -0.6,-1.1 -0.4,-0.3 -0.8,-0.6 -1.2,-1 0.2,-1.8 0.5,-3.6 0.7,-5.4 0.1,2.1 0.5,4.2 0.9,6.2 z"
   id="path139000" />
					<path
   d="m 102.6,422.9 c 0,0.1 0,0.1 0,0 -0.4,0.3 -0.5,0.6 -0.6,0.9 v 0 c 0.1,-0.9 0.3,-1.9 0.4,-2.8 0.1,0.6 0.1,1.3 0.2,1.9 z"
   id="path139002" />
					<path
   d="m 100.7,428.5 c 0.1,1 -0.8,2.1 -1.8,1.5 -0.1,-0.1 -0.2,-0.3 -0.2,-0.4 0.6,-0.4 1.3,-0.8 2,-1.1 z"
   id="path139004" />
					<path
   d="m 96.5,439.6 c 0.1,0 0.2,0 0.3,0.1 0,0 0,0 0,0 0,0 0,0 0,0 0,0 0,0 0,0 v 0 c 0,0 0,0 0,0 0,0.1 0,0.1 0.1,0.1 v 0 c 0,0.1 0,0.2 0,0.3 0,0 0,0.1 0,0.1 0,0 0,0 0,0 0,0 0,0 0,0 -0.2,0.3 -0.2,0.4 -0.1,0.2 0,0 0.1,-0.1 0.1,-0.1 0.1,0.1 0.1,0.2 0.2,0.3 0.1,0 0.4,0 0.2,0.1 -0.8,0.1 -1.4,-0.7 -1.5,-1.4 0,-0.5 0.2,-0.9 0.5,-1.1 0.1,0.1 0.3,0.2 0.4,0.3 0.2,0.2 0.3,0.4 0.4,0.6 -0.1,0.1 -0.1,0.1 -0.2,0.2 0,0 -0.1,0.1 -0.1,0.1 0,0.1 -0.1,0.2 -0.3,0.2 0.1,0 0,0 0,0 z"
   id="path139006" />
					<path
   d="m 104.2,410.9 c -0.7,3.3 -1.3,6.7 -1.8,10.1 -0.7,-7.8 0.7,-16.2 4.2,-23.3 -0.3,4.5 -1.4,8.8 -2.4,13.2 z"
   id="path139008" />
					<path
   d="m 100.1,427.4 c 0.4,0.3 0.6,0.7 0.6,1.1 -0.7,0.3 -1.4,0.7 -2.1,1.1 -0.1,-0.2 -0.1,-0.4 -0.1,-0.6 0.1,-0.8 0.2,-1.7 0.3,-2.5 0.4,0.3 0.9,0.6 1.3,0.9 z"
   id="path139010" />
					<path
   d="m 97.2,439.3 c 0.1,0.4 0,0.8 -0.2,1.2 0,0 0,-0.1 -0.1,-0.1 0,0 0,0 0,-0.1 0,0 0,0 0,0 0,0 0,0 0,-0.1 0.1,-0.3 0.2,-0.6 0.3,-0.9 z"
   id="path139012" />
					<path
   d="m 97,440.4 c 0,0 -0.1,0.1 -0.1,0.1 -0.2,0.2 -0.2,0.2 0.1,-0.1 -0.1,0 -0.1,0 0,0 -0.1,0 -0.1,0 0,0 -0.1,0 -0.1,0 0,0 z"
   id="path139014" />
					<path
   d="m 97,440.2 c 0,0 0,0 0,0 0,0.1 0,0.1 0,0.1 -0.1,0 0,-0.1 0,-0.1 z"
   id="path139016" />
					<path
   d="m 96.9,440.4 c 0,0 0,0 0,0 0,0 0,0 0,0 0,0 0,0 0,0 0,0 0,0 0,0 z"
   id="path139018" />
					<path
   d="m 96.9,440.3 c 0,0 0,0.1 0,0 0,0.1 0,0.1 0,0 0,0 0,0 0,0 z"
   id="path139020" />
					<path
   d="m 97,439.9 c 0,0 -0.1,0 0,0 0,0 0,-0.1 -0.1,-0.1 0,0 0,0 0,0 0,0 0,0 0,0 0,0 0,0 0,0 0,0 0,0 0,0 -0.1,0 -0.2,0 -0.3,-0.1 0,0 0,0 0.1,0 0.1,0 0.2,-0.1 0.3,-0.2 0,0 0.1,-0.1 0.1,-0.1 0.1,-0.1 0.1,-0.1 0.2,-0.2 0,0 0,0.1 0,0.1 -0.1,0.3 -0.1,0.6 -0.2,0.9 C 97,440.1 97,440 97,439.9 c 0,0 0,0 0,0 0,0 0,0 0,0 z"
   id="path139022" />
					<path
   d="m 97.2,439.1 c 0,0.1 0,0.1 -0.1,0.2 0.1,-0.1 0.1,-0.1 0.1,-0.2 0,0 0,0 0,0 z"
   id="path139024" />
					<path
   d="m 96.9,440.4 c 0,0 0,0 0,0 0,-0.1 0,-0.1 0,0 z"
   id="path139026" />
					<path
   d="m 97,439.9 c 0,0 0,0 0,0 v 0 c -0.1,0 0,0 0,0 z"
   id="path139028" />
					<path
   d="m 97,439.9 c 0,0 0,0 0,0 z"
   id="path139030" />
					<path
   d="m 96.9,439.7 c 0,0 0,0 0,0 v 0 c 0,0 0,0 0,0 z"
   id="path139032" />
					<path
   d="m 96.9,439.7 c 0,0 0,0 0,0 0,0 0,0 0,0 z"
   id="path139034" />
					<path
   d="m 96.6,439.6 c 0,0 0,0 0,0 v 0 c -0.1,0 0,0 0,0 z"
   id="path139036" />
					<path
   d="m 98.9,430 c 0,0 -0.1,-0.1 -0.1,-0.1 -0.1,-0.1 -0.2,-0.1 -0.3,-0.2 0.1,-0.1 0.1,-0.1 0.2,-0.1 0,0.1 0.1,0.3 0.2,0.4 z"
   id="path139038" />
					<path
   d="m 98.6,429.6 c -0.1,0 -0.1,0.1 -0.2,0.1 -7,-5.2 -10.1,-16 -11.6,-24.2 -1.4,-7.9 0.4,-17.7 8.2,-21.7 7.1,-3.7 10.5,2.5 11.4,8.6 -1.2,2 -2.1,3.9 -2.8,5.5 0.6,-6.8 -0.3,-14.2 -7.2,-11.6 -8.3,3.1 -7.8,15.2 -6,21.9 1.6,6 3.7,13.8 8.5,18.2 -0.1,0.8 -0.2,1.7 -0.3,2.5 -0.1,0.3 0,0.5 0,0.7 z"
   id="path139040" />
					<path
   class="st6"
   d="m 99.6,421.1 c -0.3,1.8 -0.5,3.6 -0.7,5.4 -4.8,-4.4 -6.9,-12.2 -8.5,-18.2 -1.7,-6.7 -2.2,-18.8 6,-21.9 7,-2.6 7.8,4.8 7.2,11.6 -0.2,0.5 -0.5,1 -0.6,1.4 -3,6.9 -4.1,14.3 -3.4,21.7 z"
   id="path139042"
   style="fill:#b3b3b3" />
					<path
   d="m 102.3,406.4 c -1.1,4.8 -2,9.7 -2.7,14.6 -0.6,-7.4 0.5,-14.8 3.4,-21.7 0.2,-0.4 0.4,-0.9 0.6,-1.4 -0.3,3.6 -0.9,7 -1.3,8.5 z"
   id="path139044" />
				</g>
				<g
   id="g139048">
				</g>
			</g>
		</g>
	</g></g></g></g></svg>
