<?xml version="1.0" encoding="UTF-8" standalone="no"?>
<svg
   width="240pt"
   height="200pt"
   viewBox="0 0 240 200"
   version="1.1"
   id="svg1013"
   sodipodi:docname="demographic_model.svg"
   inkscape:version="1.3.2 (091e20e, 2023-11-25)"
   xmlns:inkscape="http://www.inkscape.org/namespaces/inkscape"
   xmlns:sodipodi="http://sodipodi.sourceforge.net/DTD/sodipodi-0.dtd"
   xmlns:xlink="http://www.w3.org/1999/xlink"
   xmlns="http://www.w3.org/2000/svg"
   xmlns:svg="http://www.w3.org/2000/svg"
   xmlns:rdf="http://www.w3.org/1999/02/22-rdf-syntax-ns#"
   xmlns:cc="http://creativecommons.org/ns#"
   xmlns:dc="http://purl.org/dc/elements/1.1/">
  <sodipodi:namedview
     id="namedview1015"
     pagecolor="#ffffff"
     bordercolor="#000000"
     borderopacity="0.25"
     inkscape:showpageshadow="2"
     inkscape:pageopacity="0.0"
     inkscape:pagecheckerboard="0"
     inkscape:deskcolor="#d1d1d1"
     inkscape:document-units="pt"
     showgrid="false"
     inkscape:zoom="1.0650583"
     inkscape:cx="199.98906"
     inkscape:cy="149.28761"
     inkscape:window-width="1384"
     inkscape:window-height="847"
     inkscape:window-x="60"
     inkscape:window-y="25"
     inkscape:window-maximized="1"
     inkscape:current-layer="patch_11" />
  <metadata
     id="metadata2">
    <rdf:RDF>
      <cc:Work>
        <dc:type
           rdf:resource="http://purl.org/dc/dcmitype/StillImage" />
        <dc:date>2023-03-25T20:59:02.219393</dc:date>
        <dc:format>image/svg+xml</dc:format>
        <dc:creator>
          <cc:Agent>
            <dc:title>Matplotlib v3.5.0, https://matplotlib.org/</dc:title>
          </cc:Agent>
        </dc:creator>
      </cc:Work>
    </rdf:RDF>
  </metadata>
  <defs
     id="defs6">
    <style
       type="text/css"
       id="style4">*{stroke-linejoin: round; stroke-linecap: butt}</style>
    <clipPath
       id="pd2ca3efbcc-8">
      <rect
         x="49.078125"
         y="10.8"
         width="242.52188"
         height="207.14188"
         id="rect1005-1" />
    </clipPath>
    <clipPath
       id="pd2ca3efbcc-4">
      <rect
         x="49.078125"
         y="10.8"
         width="242.52188"
         height="207.14188"
         id="rect1005-7" />
    </clipPath>
    <clipPath
       id="pd2ca3efbcc-3">
      <rect
         x="49.078125"
         y="10.8"
         width="242.52188"
         height="207.14188"
         id="rect1005-8" />
    </clipPath>
    <clipPath
       id="pd2ca3efbcc-1">
      <rect
         x="49.078125"
         y="10.8"
         width="242.52188"
         height="207.14188"
         id="rect1005-88" />
    </clipPath>
    <clipPath
       id="pd2ca3efbcc-3-2">
      <rect
         x="49.078125"
         y="10.8"
         width="242.52188"
         height="207.14188"
         id="rect1005-8-2" />
    </clipPath>
    <clipPath
       id="pd2ca3efbcc-15">
      <rect
         x="49.078125"
         y="10.8"
         width="242.52188"
         height="207.14188"
         id="rect1005-5" />
    </clipPath>
    <clipPath
       id="clipPath1">
      <rect
         x="49.078125"
         y="10.8"
         width="242.52188"
         height="207.14188"
         id="rect1" />
    </clipPath>
    <clipPath
       id="clipPath2">
      <rect
         x="49.078125"
         y="10.8"
         width="242.52188"
         height="207.14188"
         id="rect2" />
    </clipPath>
    <clipPath
       id="pd2ca3efbcc-1-8">
      <rect
         x="49.078125"
         y="10.8"
         width="242.52188"
         height="207.14188"
         id="rect1005-88-4" />
    </clipPath>
    <clipPath
       id="pd2ca3efbcc-3-2-0">
      <rect
         x="49.078125"
         y="10.8"
         width="242.52188"
         height="207.14188"
         id="rect1005-8-2-0" />
    </clipPath>
    <clipPath
       id="pd2ca3efbcc-1-8-6">
      <rect
         x="49.078125"
         y="10.8"
         width="242.52188"
         height="207.14188"
         id="rect1005-88-4-8" />
    </clipPath>
    <clipPath
       id="pd2ca3efbcc-3-2-0-5">
      <rect
         x="49.078125"
         y="10.8"
         width="242.52188"
         height="207.14188"
         id="rect1005-8-2-0-3" />
    </clipPath>
    <clipPath
       id="pd2ca3efbcc-48">
      <rect
         x="49.078125"
         y="10.8"
         width="242.52188"
         height="207.14188"
         id="rect1005-0" />
    </clipPath>
    <clipPath
       id="clipPath1-1">
      <rect
         x="49.078125"
         y="10.8"
         width="242.52188"
         height="207.14188"
         id="rect1-5" />
    </clipPath>
    <clipPath
       id="pd2ca3efbcc-0">
      <rect
         x="49.078125"
         y="10.8"
         width="242.52188"
         height="207.14188"
         id="rect1005-81" />
    </clipPath>
    <clipPath
       id="pd2ca3efbcc-14">
      <rect
         x="49.078125"
         y="10.8"
         width="242.52188"
         height="207.14188"
         id="rect1005-818" />
    </clipPath>
    <clipPath
       id="pd2ca3efbcc-31">
      <rect
         x="49.078125"
         y="10.8"
         width="242.52188"
         height="207.14188"
         id="rect1005-9" />
    </clipPath>
    <clipPath
       id="pd2ca3efbcc-32">
      <rect
         x="49.078125"
         y="10.8"
         width="242.52188"
         height="207.14188"
         id="rect1005-82" />
    </clipPath>
  </defs>
  <g
     id="figure_1">
    <g
       id="axes_1">
      <g
         id="PolyCollection_3-3-6"
         transform="matrix(19.726433,0,0,2.2636734,-3798.9873,-76.487046)"
         style="fill:#ff800d;fill-opacity:0.298039;stroke-linecap:butt;stroke-linejoin:round">
        <path
           d="m 196.96304,58.317124 h -2.4862 v 25.428657 h 2.4862 v 0 z"
           clip-path="url(#pd2ca3efbcc-1-8)"
           style="fill:#ff800d;fill-opacity:0.298039;stroke-linecap:butt;stroke-linejoin:round"
           id="path189-5-2" />
      </g>
      <path
         d="m 77.089091,149.99173 1,0.0314 1,0.0369 1,0.0977 1,0.0325 1,0.0736 1,0.0386 1,0.0354 1,0.0576 1,0.0704 1,0.052 1,0.0591 1,0.0883 1,0.0461 1,0.0424 1,0.0305 1,0.026 1,0.0212 1,0.0543 1,0.0279 1,0.0297 1,0.0254 1,0.0112 0.999999,0.0101 1,-2e-4 1,-0.01 1,-0.0117 1,-0.031 1,-0.0112 1,-0.0301 1,-0.0598 1,-0.0372 1,-0.0391 1,-0.0424 1,-0.0328 1,-0.0674 1,-0.0391 1,-0.0427 1,-0.0706 1,-0.0364 1,-0.0584 1,-0.11095 1,-0.0707 1,-0.11294 1,-0.0458 1,-0.0613 1.19648,-0.0485"
         clip-path="url(#pd2ca3efbcc)"
         style="fill:none;stroke:#ff800a;stroke-width:0.650446;stroke-linecap:square;stroke-dasharray:none;stroke-opacity:0.298039"
         id="path62"
         transform="matrix(0.54133064,0,0,1.0902731,46.511019,-75.081551)" />
      <path
         d="m 139.347,90.050074 -2,-1 v 2 z"
         clip-path="url(#pd2ca3efbcc-32)"
         style="fill:#ff800a;fill-opacity:0.298039;stroke:#ff800a;stroke-linecap:butt;stroke-linejoin:miter;stroke-opacity:0.298039"
         id="path831-4"
         transform="matrix(1.6367584,0,0,1.6367584,-115.93513,-59.223717)" />
      <path
         d="m 77.089091,90.050074 1,0.03144 1,0.03694 1,0.09775 1,0.03252 1,0.07363 1,0.03857 1,0.03541 1,0.05764 1,0.07039 1,0.05196 1,0.05909 1,0.08832 1,0.04614 1,0.04241 1,0.03049 1,0.02604 1,0.0212 1,0.0543 1,0.02794 1,0.02972 1,0.02539 1,0.0112 0.999999,0.01012 1,-2.04e-4 1,-0.0095 1,-0.01165 1,-0.03103 1,-0.01117 1,-0.03012 1,-0.05978 1,-0.03719 1,-0.0391 1,-0.04244 1,-0.03276 1,-0.06743 1,-0.03913 1,-0.04267 1,-0.07058 1,-0.03639 1,-0.0584 1,-0.110953 1,-0.07066 1,-0.11294 1,-0.04577 1,-0.06128 1,-0.0485 1,-0.08082 1,-0.118519 1,-0.07021 1,-0.08326 1,-0.03314 1,-0.05124 1,-0.0684 1,-0.06622 1,-0.07692 1,-0.02732 1,-0.02648 1,-0.02265 1,-0.01953 1,-0.02639 1.25791,-0.04977"
         clip-path="url(#pd2ca3efbcc)"
         style="fill:none;stroke:#8ebad9;stroke-width:0.7;stroke-linecap:square;stroke-dasharray:none;stroke-opacity:1"
         id="path64"
         transform="matrix(0.82517492,0,0,1.0298119,90.215339,-4.18595)" />
      <path
         d="m 77.089091,198.01117 1,0.0314 1,0.0369 1,0.0977 1,0.0325 1,0.0736 1,0.0386 1,0.0354 1,0.0576 1,0.0704 1,0.052 1,0.0591 1,0.0883 1,0.0461 1,0.0424 1,0.0305 1,0.0261 1,0.0212 1,0.0543 1,0.0279 1,0.0297 1,0.0254 1,0.0112 0.999999,0.0101 1,-2e-4 1,-0.01 1,-0.0117 1,-0.031 1,-0.0112 1,-0.0301 1,-0.0598 1,-0.0372 1,-0.0391 1,-0.0424 1,-0.0328 1,-0.0674 1,-0.0391 1,-0.0427 1,-0.0706 1,-0.0364 1,-0.0584 1,-0.11095 1,-0.0707 1,-0.11294 1,-0.0458 1.77753,-0.0613"
         clip-path="url(#pd2ca3efbcc)"
         style="fill:none;stroke:#8ebad9;stroke-width:0.570075;stroke-linecap:square;stroke-dasharray:none;stroke-opacity:1"
         id="path68"
         transform="matrix(0.76538446,0,0,1.0050707,94.83996,-77.496624)" />
      <path
         d="m 122.86962,195.07854 -1,-0.0314 -1,-0.0369 -1,-0.0977 -1,-0.0325 -1,-0.0736 -1,-0.0386 -1,-0.0354 -1,-0.0576 -1,-0.0704 -1,-0.052 -1,-0.0591 -1,-0.0883 -1,-0.0461 -1,-0.0424 -1,-0.0305 -1,-0.026 -1,-0.0212 -1,-0.0543 -1,-0.0279 -1,-0.0297 -1,-0.0254 -1,-0.0112 -0.999997,-0.0101 -1,2e-4 -1,0.01 -1,0.0117 -1,0.031 -1,0.0112 -1,0.0301 -1,0.0598 -1,0.0372 -1,0.0391 -1,0.0424 -1,0.0328 -1,0.0674 -1,0.0391 -1,0.0427 -1,0.0706 -1,0.0364 -1,0.0584 -1,0.11095 -1,0.0707 -1,0.11294 -1,0.0458 -1.780532,0.0613"
         clip-path="url(#pd2ca3efbcc)"
         style="fill:none;stroke:#2c9f2c;stroke-width:0.570075;stroke-linecap:square;stroke-dasharray:none;stroke-opacity:0.501961"
         id="path84"
         transform="matrix(0.76538446,0,0,1.0050707,94.83996,-78.996624)" />
      <path
         d="m 139.347,90.050074 -2,-1 v 2 z"
         clip-path="url(#pd2ca3efbcc-14)"
         style="fill:#2c9f2c;fill-opacity:0.501961;stroke:#2c9f2c;stroke-linecap:butt;stroke-linejoin:miter;stroke-opacity:0.501961"
         id="path831-5"
         transform="matrix(-1.6367584,0,0,1.6367584,382.49798,-30.617659)" />
      <path
         d="m 122.9033,179.43033 -1,-0.0314 -1,-0.0369 -1,-0.0978 -1,-0.0325 -1,-0.0736 -1,-0.0386 -1,-0.0354 -1,-0.0576 -1,-0.0704 -1,-0.052 -1,-0.0591 -1,-0.0883 -1,-0.0461 -1,-0.0424 -1,-0.0305 -1,-0.026 -1,-0.0212 -1,-0.0543 -1,-0.0279 -1,-0.0297 -1,-0.0254 -1,-0.0112 -1.000005,-0.0101 -1,2e-4 -1,0.01 -1,0.0117 -1,0.031 -1,0.0112 -1,0.0301 -1,0.0598 -1,0.0372 -1,0.0391 -1,0.0424 -1,0.0328 -1,0.0674 -1,0.0391 -1,0.0427 -1,0.0706 -1,0.0364 -1,0.0584 -1,0.11095 -1,0.0707 -1,0.11294 -1,0.0458 -1.814204,0.0613"
         clip-path="url(#pd2ca3efbcc)"
         style="fill:none;stroke:#8ebad9;stroke-width:0.558188;stroke-linecap:square;stroke-dasharray:none;stroke-opacity:1"
         id="path88"
         transform="matrix(0.5250994,0,0,1.0934806,48.569106,-112.72806)" />
      <g
         id="patch_3"
         transform="matrix(1,0,0,0.67299743,66,-0.57758)"
         style="stroke-width:1.60904;stroke-dasharray:none">
        <path
           d="M 63.061608,10.8 V 52.228375 M 71.704111,10.8 v 41.428375"
           clip-path="url(#pd2ca3efbcc)"
           style="fill:none;stroke:#1f77b4;stroke-width:1.60904;stroke-linejoin:miter;stroke-dasharray:none"
           id="path174" />
      </g>
      <g
         id="PolyCollection_1"
         transform="matrix(1,0,0,0.67299743,66,-0.57758)"
         style="stroke-width:0.999556;stroke-dasharray:none">
        <path
           d="m 71.704111,10.8 h -8.642503 v 41.428375 h 8.642503 v 0 z"
           clip-path="url(#pd2ca3efbcc)"
           style="fill:#1f77b4;fill-opacity:0.5;stroke-width:0.999556;stroke-dasharray:none"
           id="path177" />
      </g>
      <g
         id="patch_5"
         transform="matrix(1,0,0,0.63498296,13.5,39.38817)"
         style="stroke-width:1.37666;stroke-dasharray:none">
        <path
           d="m 194.47684,58.317124 v 25.428657 m 2.4862,-25.428657 v 25.428657"
           clip-path="url(#pd2ca3efbcc)"
           style="fill:none;stroke:#2ca02c;stroke-width:1.37666;stroke-linejoin:miter;stroke-dasharray:none"
           id="path186" />
      </g>
      <g
         id="PolyCollection_3"
         transform="matrix(1,0,0,0.63498296,13.5,39.38817)"
         style="stroke-width:2.13212;stroke-dasharray:none">
        <path
           d="m 196.96304,58.317124 h -2.4862 v 25.428657 h 2.4862 v 0 z"
           clip-path="url(#pd2ca3efbcc)"
           style="fill:#2ca02c;fill-opacity:0.5;stroke-width:2.13212;stroke-dasharray:none"
           id="path189" />
      </g>
      <g
         id="PolyCollection_3-3"
         transform="matrix(14.207974,0,0,2.0925351,-2571.6635,-29.519974)"
         style="stroke-linecap:butt;stroke-linejoin:round">
        <path
           d="m 196.96304,58.317124 h -2.4862 v 25.428657 h 2.4862 v 0 z"
           clip-path="url(#pd2ca3efbcc-1)"
           style="fill:#2ca02c;fill-opacity:0.5;stroke-linecap:butt;stroke-linejoin:round"
           id="path189-5" />
      </g>
      <g
         id="PolyCollection_4"
         style="fill:#8ebad9;fill-opacity:1"
         transform="matrix(2.5664096,0,0,0.69868009,-39.549159,-6.174914)">
        <path
           d="M 74.663872,58.317124 H 60.101847 V 31236.36 h 14.562025 v 0 z"
           clip-path="url(#pd2ca3efbcc)"
           style="fill:#8ebad9;fill-opacity:1"
           id="path195" />
      </g>
      <g
         id="matplotlib.axis_2"
         transform="translate(0,-63)">
        <g
           id="ytick_1"
           transform="translate(-24,-9)">
          <g
             id="line2d_4">
            <defs
               id="defs277">
              <path
                 id="mcdce6e73fb"
                 d="M 0,0 H -3.5"
                 style="stroke:#000000;stroke-width:0.8" />
            </defs>
            <g
               id="g281">
              <use
                 xlink:href="#mcdce6e73fb"
                 x="49.078125"
                 y="217.94188"
                 style="stroke:#000000;stroke-width:0.8"
                 id="use279" />
            </g>
          </g>
        </g>
        <text
           xml:space="preserve"
           style="font-size:11px;font-family:Arial;-inkscape-font-specification:Arial;text-align:end;text-anchor:end;fill:#000000;stroke-width:1.2;stroke-linecap:butt;stroke-linejoin:round"
           x="19.713497"
           y="212.8595"
           id="text72442-6-5"><tspan
             sodipodi:role="line"
             id="tspan72440-7-6"
             style="font-size:11px;stroke-width:1.2"
             x="19.713497"
             y="212.8595">0</tspan></text>
        <text
           xml:space="preserve"
           style="font-size:12px;font-family:Arial;-inkscape-font-specification:Arial;text-align:end;text-anchor:end;fill:#000000;stroke-width:1.2;stroke-linecap:butt;stroke-linejoin:round"
           x="-100.54559"
           y="13.96283"
           id="text14508"
           transform="rotate(-90.153381)"><tspan
             sodipodi:role="line"
             id="tspan14506"
             style="stroke-width:1.2"
             x="-100.54559"
             y="13.96283">Time ago (years)</tspan></text>
      </g>
      <g
         id="patch_9"
         transform="translate(-22.895737,-8.8619671)"
         style="fill:#8ebad9;fill-opacity:1">
        <path
           d="m 76.663924,58.317124 1,0.03144 1,0.03694 1,0.09775 1,0.03252 1,0.07362 1,0.03857 1,0.03541 1,0.05764 1,0.07039 1,0.05196 1,0.05909 1,0.08832 1,0.04614 1,0.04241 1,0.03049 1,0.02604 1,0.0212 1,0.0543 1,0.02794 1,0.02972 1,0.02539 1,0.0112 1,0.01012 0.999996,-2.05e-4 1,-0.0095 1,-0.01165 1,-0.03103 1,-0.01117 1,-0.03012 1,-0.05978 1,-0.03719 1,-0.0391 1,-0.04244 1,-0.03277 1,-0.06743 1,-0.03913 1,-0.04267 1,-0.07058 1,-0.03639 1,-0.0584 1,-0.110952 1,-0.07066 1,-0.11294 1,-0.04577 1,-0.06128 1,-0.0485 1,-0.08082 1,-0.118519 1,-0.07021 1,-0.08326 1,-0.03314 1,-0.05124 1,-0.0684 1,-0.06622 1,-0.07692 1,-0.02732 1,-0.02648 1,-0.02265 1,-0.01953 1,-0.02639 1,-0.04977 1,-0.03507 1,-0.03587 1,-0.01537 1,-0.01577 1,-0.0034 1,-0.0024 1,4.86e-4 1,0.0019 1,0.01326 1,0.0084 1,0.02154 1,0.02303 1,0.01723 1,0.01846 1,0.02045 1,0.0166 1,0.06278 1,0.07526 1,0.03264 1,0.06756 1,0.05405 1,0.0337 1,0.09013 1,0.02853 1,0.03149 1,0.03101 1,0.05481 1,0.06459 1,0.0382 1,0.09593 1,0.04926 1,0.04407 1,0.04012 1,0.108367 1,0.04163 1,0.06214 1,0.06996 1,0.104505 1,0.03699 1,0.04588 1,0.06849 1,0.04875 1,0.0776 1,0.03054 1,0.06952 1,0.02397 1,0.02862 1,0.04179 1,0.02158 1,0.01395 1,0.02672 1,0.0093 1.69227,0.01245"
           clip-path="url(#pd2ca3efbcc)"
           style="fill:none;fill-opacity:1;stroke:#1f77b4;stroke-width:1.54032;stroke-linecap:round;stroke-dasharray:none;stroke-opacity:1"
           id="path759"
           transform="matrix(0.48575176,0,0,1.1276485,140.25265,19.129511)" />
        <path
           d="m 187.35619,56.317124 0.88037,0.475332 0.87791,0.480254 0.85071,0.53464 1.30217,0.687448 -0.92735,0.02601 -0.91167,0.412719 -0.91027,0.415539 -1.34249,0.606805 0.65489,-0.638752 0.052,-1 0.0591,-2 z"
           clip-path="url(#pd2ca3efbcc)"
           style="fill:#8ebad9;fill-opacity:1;stroke:#ffffff;stroke-width:3;stroke-linecap:round"
           id="path761"
           transform="matrix(1.5781837,0,0,1.5781837,-69.854909,-7.032586)" />
        <path
           d="m 187.35619,56.317124 0.88037,0.475332 0.87791,0.480254 0.85071,0.53464 1.30217,0.687448 -0.92735,0.02601 -0.91167,0.412719 -0.91027,0.415539 -1.34249,0.606805 0.65489,-0.638752 0.052,-1 0.0591,-2 z"
           clip-path="url(#pd2ca3efbcc)"
           style="fill:none;fill-opacity:1;stroke:#1f77b4;stroke-linecap:round;stroke-opacity:1"
           id="path763"
           transform="matrix(1.5781837,0,0,1.5781837,-69.854909,-7.032586)" />
        <path
           d="m 76.663924,58.317124 1,0.03144 1,0.03694 1,0.09775 1,0.03252 1,0.07362 1,0.03857 1,0.03541 1,0.05764 1,0.07039 1,0.05196 1,0.05909 1,0.08832 1,0.04614 1,0.04241 1,0.03049 1,0.02604 1,0.0212 1,0.0543 1,0.02794 1,0.02972 1,0.02539 1,0.0112 1,0.01012 0.999996,-2.05e-4 1,-0.0095 1,-0.01165 1,-0.03103 1,-0.01117 1,-0.03012 1,-0.05978 1,-0.03719 1,-0.0391 1,-0.04244 1,-0.03277 1,-0.06743 1,-0.03913 1,-0.04267 1,-0.07058 1,-0.03639 1,-0.0584 1,-0.110952 1,-0.07066 1,-0.11294 1,-0.04577 1,-0.06128 1,-0.0485 1,-0.08082 1,-0.118519 1,-0.07021 1,-0.08326 1,-0.03314 1,-0.05124 1,-0.0684 1,-0.06622 1,-0.07692 1,-0.02732 1,-0.02648 1,-0.02265 1,-0.01953 1,-0.02639 1,-0.04977 1,-0.03507 1,-0.03587 1,-0.01537 1,-0.01577 1,-0.0034 1,-0.0024 1,4.86e-4 1,0.0019 1,0.01326 1,0.0084 1,0.02154 1,0.02303 1,0.01723 1,0.01846 1,0.02045 1,0.0166 1,0.06278 1,0.07526 1,0.03264 1,0.06756 1,0.05405 1,0.0337 1,0.09013 1,0.02853 1,0.03149 1,0.03101 1,0.05481 1,0.06459 1,0.0382 1,0.09593 1,0.04926 1,0.04407 1,0.04012 1,0.108367 1,0.04163 1,0.06214 1,0.06996 1,0.104505 1,0.03699 1,0.04588 1,0.06849 1,0.04875 1,0.0776 1,0.03054 1,0.06952 1,0.02397 1,0.02862 1,0.04179 1,0.02158 1,0.01395 1,0.02672 1,0.0093 1.69227,0.01245"
           clip-path="url(#pd2ca3efbcc-15)"
           style="fill:none;fill-opacity:1;stroke:#1f77b4;stroke-width:1.37063;stroke-linecap:round;stroke-linejoin:round;stroke-dasharray:none;stroke-opacity:1"
           id="path759-8"
           transform="matrix(-0.44582622,0,0,1.1396822,171.6033,-2.757206)" />
        <g
           id="patch_10"
           style="fill:#8ebad9;fill-opacity:1">
          <g
             id="patch_11"
             style="fill:#8ebad9;fill-opacity:1">
            <path
               d="m 139.347,90.050074 -2,-1 v 2 z"
               clip-path="url(#pd2ca3efbcc)"
               style="fill:#8ebad9;fill-opacity:1;stroke:#8ebad9;stroke-linejoin:miter;stroke-opacity:1"
               id="path831"
               transform="matrix(1.6367584,0,0,1.6367584,0.63715682,-50.753719)" />
            <path
               d="m 139.347,90.050074 -2,-1 v 2 z"
               clip-path="url(#pd2ca3efbcc-0)"
               style="fill:#8ebad9;fill-opacity:1;stroke:#8ebad9;stroke-linecap:butt;stroke-linejoin:miter;stroke-opacity:1"
               id="path831-7"
               transform="matrix(1.6367584,0,0,1.6367584,-15.881844,-16.772894)" />
            <path
               d="m 139.347,90.050074 -2,-1 v 2 z"
               clip-path="url(#pd2ca3efbcc-31)"
               style="fill:#1f77b4;fill-opacity:1;stroke:#8ebad9;stroke-linecap:butt;stroke-linejoin:miter;stroke-opacity:1"
               id="path831-3"
               transform="matrix(-1.6367584,0,0,1.6367584,340.46126,-54.838635)" />
            <g
               id="patch_12"
               style="fill:#8ebad9;fill-opacity:1"
               transform="matrix(1,0,0,0.67015453,0,9.019078)">
              <path
                 d="M 47.578125,217.94187 V 10.8"
                 style="fill:#8ebad9;fill-opacity:1;stroke:#000000;stroke-width:0.8;stroke-linecap:square;stroke-linejoin:miter"
                 id="path941" />
            </g>
            <g
               id="text_12"
               style="fill:#8ebad9;fill-opacity:1">
              <!-- ancestral -->
            </g>
          </g>
        </g>
        <defs
           id="defs1008">
          <clipPath
             id="pd2ca3efbcc">
            <rect
               x="49.078125"
               y="10.8"
               width="242.52188"
               height="207.14188"
               id="rect1005" />
          </clipPath>
        </defs>
        <path
           d="m 187.35619,56.317124 0.88037,0.475332 0.87791,0.480254 0.85071,0.53464 1.30217,0.687448 -0.92735,0.02601 -0.91167,0.412719 -0.91027,0.415539 -1.34249,0.606805 0.65489,-0.638752 0.052,-1 0.0591,-2 z"
           clip-path="url(#pd2ca3efbcc-48)"
           style="fill:#8ebad9;fill-opacity:1;stroke:#ffffff;stroke-width:3;stroke-linecap:round;stroke-linejoin:round"
           id="path761-1"
           transform="matrix(-1.5781837,0,0,1.5781837,388.64175,-28.243768)" />
        <path
           d="m 187.35619,56.317124 0.88037,0.475332 0.87791,0.480254 0.85071,0.53464 1.30217,0.687448 -0.92735,0.02601 -0.91167,0.412719 -0.91027,0.415539 -1.34249,0.606805 0.65489,-0.638752 0.052,-1 0.0591,-2 z"
           clip-path="url(#pd2ca3efbcc-48)"
           style="fill:none;fill-opacity:1;stroke:#1f77b4;stroke-linecap:round;stroke-linejoin:round;stroke-opacity:1"
           id="path763-1"
           transform="matrix(-1.5781837,0,0,1.5781837,388.64175,-28.243768)" />
      </g>
      <g
         id="patch_6"
         style="stroke:#1f77b4;stroke-width:0.701235;stroke-linecap:butt;stroke-linejoin:round;stroke-dasharray:none;stroke-opacity:1"
         transform="matrix(2.5664096,0,0,0.69868009,-39.549159,-6.174914)">
        <path
           d="M 60.101847,58.317124 V 242.92 M 74.663872,58.317124 V 242.92"
           clip-path="url(#pd2ca3efbcc-4)"
           style="fill:none;stroke:#1f77b4;stroke-width:0.701235;stroke-linecap:butt;stroke-linejoin:miter;stroke-dasharray:none;stroke-opacity:1"
           id="path192" />
      </g>
      <g
         id="patch_5-0"
         transform="matrix(14.374566,0,0,2.0916392,-2604.1978,-29.43011)"
         style="stroke:#2ca02c;stroke-width:0.115807;stroke-linecap:butt;stroke-linejoin:round;stroke-dasharray:none;stroke-opacity:1">
        <path
           d="m 194.47684,58.317124 v 25.428657 m 2.4862,-25.428657 v 25.428657"
           clip-path="url(#pd2ca3efbcc-3-2)"
           style="fill:none;stroke:#2ca02c;stroke-width:0.115807;stroke-linecap:butt;stroke-linejoin:miter;stroke-dasharray:none;stroke-opacity:1"
           id="path186-2" />
      </g>
      <g
         id="patch_5-0-4"
         transform="matrix(19.957731,0,0,2.2627042,-3844.1581,-76.389832)"
         style="stroke:#ff800d;stroke-width:0.100595;stroke-linecap:butt;stroke-linejoin:round;stroke-dasharray:none;stroke-opacity:1">
        <path
           d="m 194.47684,58.317124 v 25.428657 m 2.4862,-25.428657 v 25.428657"
           clip-path="url(#pd2ca3efbcc-3-2-0)"
           style="fill:none;stroke:#ff800d;stroke-width:0.100595;stroke-linecap:butt;stroke-linejoin:miter;stroke-dasharray:none;stroke-opacity:1"
           id="path186-2-7" />
      </g>
      <g
         id="g2"
         transform="matrix(-0.65616004,0,0,0.65616004,234.8163,6.278162)">
        <g
           class="st11"
           id="g1223"
           transform="matrix(0.75,0,0,0.75,101.7052,149.18332)"
           style="opacity:0.3">
		<g
   id="g1222">
			<path
   class="st3"
   d="m 97.4,133.5 c -7.6,-3.7 -16.1,-5.6 -24.1,-8 -7.8,-2.3 -16,-5.7 -24.2,-5.6 -7.4,0 -14.8,3.1 -19.2,9.2 -4.4,6.2 -3.8,13.3 -0.7,20 5.4,12 19.3,23.7 32.4,26.3 17.1,3.4 28.2,-10.7 35.5,-23.9 2.5,-4.5 -0.5,-12.1 -6.5,-11.4 -5.6,0.7 -11.1,0.6 -16.6,-0.9 -5.6,-1.5 -10.3,-4.6 -15.4,-7.3 -4.6,-2.4 -10.6,-5.4 -15.9,-3.8 -6.3,1.9 -7.6,8.5 -6.6,14.2 2.2,11.6 12.8,17.3 22.9,20.9 5.3,1.9 11.6,5.2 17.3,3.6 5.3,-1.5 6.3,-6 9.7,-9.4 7.1,-7.1 -3.9,-18.2 -11,-11 -1.2,1.2 -2.2,2.5 -3.1,3.9 -0.3,0.5 -0.6,1 -0.9,1.6 -1,1.3 -0.8,1.4 0.4,0.3 1.5,-0.7 1.3,-1.1 -0.5,-1.3 -1,-0.4 -2,-0.7 -3.1,-1.1 -1.5,-0.5 -3.1,-1.1 -4.6,-1.6 -2.9,-1 -5.9,-2.1 -8.4,-4 -0.9,-0.7 -1.8,-1.5 -2.4,-2.5 -0.5,-0.6 -0.8,-1.3 -1,-2.1 0,-1.1 -0.2,-1 -0.5,0.2 -1.6,1.2 -3.1,2.4 -4.7,3.6 -0.9,0.1 -0.5,0.3 1.1,0.5 0.9,0.3 1.7,0.7 2.6,1.1 1.9,0.9 3.8,2.1 5.7,3.1 3.5,2 7.1,3.7 10.9,5 8.4,2.9 17.2,3.1 25.9,1.8 -2.8,-3.7 -5.7,-7.4 -8.5,-11.1 -3.8,7.3 -10,20 -20.2,17.4 -8.5,-2.2 -17.9,-10.1 -21.7,-18 -5.5,-11.6 12.7,-8 18.2,-6.5 5.5,1.5 11,3 16.4,4.5 5.6,1.5 11.6,3.9 17.5,3.8 6,-0.1 9.1,-8.7 3.3,-11.5 z"
   id="path1221"
   style="fill:#1f77b4" />

		</g>

	</g>
        <g
           class="st11"
           id="g1225"
           transform="matrix(0.75,0,0,0.75,101.7052,149.18332)"
           style="opacity:0.3">
		<g
   id="g1224">
			<path
   class="st3"
   d="m 105.9,129.6 c -4.4,-0.8 -7,2.5 -6.4,6.7 0.4,2.5 3.5,3.9 5.7,3.2 2.8,-0.8 6.2,-1.6 8.6,-3.1 3.7,-2.4 4.4,-7.4 1.4,-10.6 -4.7,-4.9 -15.6,-2 -18.5,3.7 -2.1,4.1 1.5,10.1 6.4,8.4 1.5,-0.5 3.6,-2 4.3,-2.3 0.2,-0.1 2,-0.7 1.3,-0.4 0.7,0 0.7,0 0,0 -1.8,-1.9 -2.4,-2.4 -1.8,-1.3 -0.2,-0.9 -0.5,-1.8 -0.7,-2.7 0,0.1 0,0.3 0,0.4 0.2,-0.9 0.5,-1.8 0.7,-2.7 0.5,-0.7 1.3,-1.1 0.1,-0.5 -0.6,0.3 -1.2,0.6 -1.8,0.9 -1.2,0.6 -2.4,1.2 -3.5,1.8 2.3,0.9 4.5,1.8 6.8,2.8 -0.2,1.2 -0.2,1.5 0,0.8 -0.4,0.6 -0.7,1.2 -1.1,1.8 0.1,-0.1 0.2,-0.2 0.3,-0.3 1.8,-2 1.2,-6 -1.8,-6.6 z"
   id="path1223"
   style="fill:#1f77b4" />

		</g>

	</g>
        <g
           class="st11"
           id="g1227"
           transform="matrix(0.75,0,0,0.75,101.7052,149.18332)"
           style="opacity:0.3">
		<g
   id="g1226">
			<path
   class="st3"
   d="m 42.9,120.2 c 1.9,-3.2 0.2,-9.1 -3.7,-10.2 -0.7,-0.2 -0.3,-0.1 0,0.3 -0.4,-0.8 -0.2,-0.6 -0.3,-1.4 -0.3,-1.9 -0.5,-3.7 -0.8,-5.6 0,1.2 0,2.3 0,3.5 -0.1,0.3 -0.2,0.6 -0.4,0.9 1.4,-1.9 0.8,-4.4 0,-6.3 0,-0.1 -0.1,-0.1 -0.1,-0.2 -1,-2.3 -4.2,-3.5 -6.5,-3.1 -2.8,0.4 -4.4,2.2 -5.4,4.7 -0.9,2.3 0,4.4 0.4,6.6 0.4,2 0.7,3.9 1.7,5.8 1.9,3.7 5.9,4.9 9,6.7 2.1,1.1 4.8,0.4 6.1,-1.7 z"
   id="path1225"
   style="fill:#1f77b4" />

		</g>

	</g>
        <g
           class="st11"
           id="g1229"
           transform="matrix(0.75,0,0,0.75,101.7052,149.18332)"
           style="opacity:0.3">
		<g
   id="g1228">
			<path
   class="st3"
   d="m 44.5,117.6 c 3.4,-1.1 7.1,-3.4 9.6,-6.1 3,-3.1 3.6,-8.3 0.4,-11.6 -2.8,-2.8 -7.3,-3.4 -10.7,-1.3 -4.1,2.4 -4.9,7.2 -4.2,11.5 0.4,2.9 3.9,4.7 6.6,4.3 2.6,-0.4 5.6,-2.9 5.2,-5.9 -0.1,-0.3 -0.1,-0.6 -0.1,-0.9 0,-0.4 0,-0.4 -0.1,0.1 -0.6,0.4 -0.9,1.3 -1.8,1.6 -1.9,0.6 -2.5,-0.9 -3.1,-2.3 -0.9,-2.1 -0.5,-2.6 -1.3,-1.4 -0.7,1 -1.5,1.9 -2.2,2.9 -1.2,1.5 -1.9,2.8 -2.6,4.6 -1.1,2.6 1.9,5.3 4.3,4.5 z"
   id="path1227"
   style="fill:#1f77b4" />

		</g>

	</g>
        <g
           id="g1231"
           transform="matrix(0.75,0,0,0.75,101.7052,149.18332)">
		<g
   id="g1230">
			<path
   d="m 100.7,141.3 c 1.5,-2.5 1,-5.6 -0.8,-7.8 -2.2,-2.7 -5.6,-3.7 -8.7,-4.8 C 83.1,125.8 75,123 66.7,121 55,118.3 37.5,115.3 28.9,126.3 c -8.7,11.2 -0.4,26.4 8.6,34.5 10.3,9.3 25.4,15 39.3,13 8.3,-1.2 12.9,-7.1 17,-13.8 2.4,-4 5,-7.9 7.2,-12 1.9,-3.5 3.2,-7.3 1.8,-11.2 -0.7,-1.8 -3.6,-1 -2.9,0.8 1.2,3.4 -0.2,6.6 -1.9,9.6 -1.8,3.2 -3.8,6.3 -5.6,9.4 -3.1,5.1 -6.2,11.1 -12.1,13.3 -5.8,2.2 -13,1.4 -18.9,0.1 -5.8,-1.3 -11.4,-3.8 -16.4,-7.1 -9.1,-6.1 -19.1,-17.5 -16.2,-29.4 3,-12.7 18.8,-12.7 29,-11.2 7.7,1.2 15.2,3.3 22.5,5.7 3.5,1.2 7.1,2.4 10.6,3.7 3.1,1.1 9.9,3.5 7.3,8.1 -1,1.7 1.5,3.2 2.5,1.5 z"
   id="path1229" />

		</g>

	</g>
        <g
           id="g1233"
           transform="matrix(0.75,0,0,0.75,101.7052,149.18332)">
		<g
   id="g1232">
			<path
   d="m 94.5,133.9 c 2.4,4.8 7.7,7.5 13,7.2 5,-0.3 11.4,-4.3 10.5,-10.1 -1,-6.2 -9,-7.6 -13.9,-5.9 -5.8,2 -10,7.2 -10.4,13.3 -0.1,1.9 2.9,1.9 3,0 0.3,-4.4 3.3,-8.3 7.3,-10 3.3,-1.5 11.2,-1.6 11.1,3.7 -0.1,4.3 -5.5,6.2 -9,6 -3.8,-0.2 -7.3,-2.3 -8.9,-5.7 -1,-1.8 -3.6,-0.3 -2.7,1.5 z"
   id="path1231" />

		</g>

	</g>
        <g
           id="g1235"
           transform="matrix(0.75,0,0,0.75,101.7052,149.18332)">
		<g
   id="g1234">
			<path
   d="m 39.6,121.3 c -4.2,-2 -8.6,-4.1 -11.3,-8 -2.5,-3.7 -3.6,-9.1 -0.4,-12.8 4.2,-5 8.7,1.8 10,5.6 1.5,4.6 2.3,9.4 3.3,14.1 0.4,1.9 3.3,1.1 2.9,-0.8 -0.8,-3.6 -1.6,-7.1 -2.4,-10.7 -0.7,-3 -1.6,-6.2 -3.4,-8.7 -2.9,-4 -8.1,-6 -12,-2.2 -3.8,3.7 -4,9.7 -2,14.3 2.6,6 8.1,9.1 13.8,11.8 1.7,0.8 3.3,-1.8 1.5,-2.6 z"
   id="path1233" />

		</g>

	</g>
        <g
           id="g1237"
           transform="matrix(0.75,0,0,0.75,101.7052,149.18332)">
		<g
   id="g1236">
			<path
   d="m 46.7,120.6 c -2.6,-4.1 -4.3,-9 -3.5,-13.9 0.6,-3.8 3.9,-9.8 8.7,-8.4 4.8,1.4 5.7,7.2 3.1,11 -2.6,3.9 -7.5,5.5 -11,8.5 -1.5,1.3 0.7,3.4 2.1,2.1 4.6,-4.1 11.4,-6.1 13.1,-12.8 1.2,-5.1 -1.9,-10.8 -7.1,-11.9 -5.4,-1.1 -9.6,3.7 -11.2,8.2 -2.2,6.2 -0.2,13.2 3.2,18.6 1,1.8 3.6,0.3 2.6,-1.4 z"
   id="path1235" />

		</g>

	</g>
        <g
           id="g1239"
           transform="matrix(0.75,0,0,0.75,101.7052,149.18332)">
		<g
   id="g1238">
			<path
   d="m 37.3,134.1 c 0.7,-0.1 1.2,-0.3 1.6,-0.9 0.4,-0.6 0.5,-1.3 0.2,-2 -0.6,-1.3 -2.4,-1.6 -3.4,-0.6 -0.4,0.5 -0.6,1.2 -0.2,1.8 1.2,1.9 4.2,1.1 4.3,-1.2 0,-0.8 -0.7,-1.5 -1.5,-1.5 -1.4,0.1 -2.8,1.3 -2.6,2.8 0.1,0.6 0.4,1.3 1.1,1.4 0.7,0.2 1.3,-0.1 1.7,-0.7 0.4,-0.6 0.9,-1.2 1.3,-1.8 0.7,-0.9 -0.2,-2.3 -1.3,-2.3 -1.5,0 -2.9,1.3 -2.7,2.9 0.1,0.8 0.6,1.5 1.5,1.5 0.8,0 1.6,-0.7 1.5,-1.5 0,-0.3 -0.1,0.1 0,-0.1 0.1,-0.2 -0.1,0.1 -0.1,0.1 0.1,-0.1 0,-0.1 0,0 -0.1,0 -0.2,0.1 -0.1,0 0.1,0 0.1,0 -0.1,0 -0.4,-0.8 -0.9,-1.5 -1.3,-2.3 -0.4,0.6 -0.9,1.2 -1.3,1.8 0.9,0.3 1.9,0.5 2.8,0.8 0,-0.2 0,-0.2 0,0 -0.1,0.1 -0.1,0.1 0,0 -0.1,0.1 -0.2,0.2 -0.4,0.2 -0.5,-0.5 -1,-1 -1.5,-1.5 0,-0.2 0.1,-0.4 0.2,-0.6 0.1,-0.1 0.4,-0.2 0.3,-0.2 -0.1,0 0.3,0 0.4,0 0.2,0.1 0.4,0.2 0.5,0.4 -0.1,0.6 -0.2,1.2 -0.2,1.8 -0.1,0.1 -0.3,0.1 -0.4,0.2 -0.4,0.1 -0.7,0 -0.8,-0.5 -0.4,-0.2 -0.5,-0.5 -0.2,-0.8 0.1,-0.4 0.3,-0.6 0.8,-0.6 -0.8,0.1 -1.5,0.6 -1.5,1.5 -0.1,1.1 0.5,2 1.4,1.9 z"
   id="path1237" />

		</g>

	</g>
        <g
           id="g1241"
           transform="matrix(0.75,0,0,0.75,101.7052,149.18332)">
		<g
   id="g1240">
			<path
   d="m 43.6,128.9 c -0.1,1 0.8,1.8 1.7,2 1,0.1 2,-0.4 2.2,-1.4 0.3,-1.2 -0.7,-2 -1.8,-1.8 -1.5,0.2 -2.9,1.6 -3.1,3.1 -0.1,0.8 0.2,1.6 1,1.8 0.7,0.2 1.7,-0.2 1.8,-1 0,-0.1 0,-0.2 0,-0.3 0,-0.4 -0.1,0.1 0,-0.1 0,-0.1 0.1,-0.2 0.1,-0.2 0.1,-0.2 -0.2,0.2 0.1,-0.1 0.1,-0.1 0.1,-0.1 0,0 0.1,-0.1 0.2,-0.1 0.2,-0.1 0.2,-0.1 -0.1,0 0.1,0 0.1,0 0.2,-0.1 0.3,-0.1 -0.6,-0.6 -1.2,-1.2 -1.8,-1.8 0.1,-0.5 0.6,-0.8 1.1,-0.8 0.1,0 0.2,0 0.3,0.1 0.3,1 0.5,1.3 0.6,0.9 0.1,-0.8 -0.8,-1.5 -1.5,-1.5 -0.6,-0.2 -1.2,0.5 -1.3,1.3 z"
   id="path1239" />

		</g>

	</g>
        <g
           id="g1243"
           transform="matrix(0.75,0,0,0.75,101.7052,149.18332)">
		<g
   id="g1242">
			<path
   d="m 36.9,141.4 c 3.9,1.2 8,-0.4 10.3,-3.8 -0.9,-0.4 -1.8,-0.8 -2.7,-1.2 -0.5,2.6 -0.8,5.6 -1.7,8.2 -0.6,1.6 -2.1,1.2 -2.7,-0.3 -0.5,-1.3 -0.1,-2.9 0.1,-4.2 0.4,-1.9 -2.5,-2.7 -2.9,-0.8 -0.7,3.7 -0.5,9.4 4.6,9.4 2,0 3.2,-1.5 3.7,-3.3 0.8,-2.6 1.1,-5.5 1.7,-8.2 0.3,-1.7 -1.8,-2.6 -2.7,-1.2 -1.5,2.3 -4.3,3.1 -6.9,2.4 -1.8,-0.5 -2.6,2.4 -0.8,3 z"
   id="path1241" />

		</g>

	</g>
      </g>
      <g
         id="g1345"
         transform="matrix(0.61615801,0,0,0.61615801,-35.504439,-38.057028)">
		<g
   class="st11"
   id="g1322"
   style="opacity:0.3">
			<g
   id="g1321">
				<path
   class="st5"
   d="m 170.1,326.7 c -9.1,-2.9 -18.1,1 -25.7,5.9 -7.1,4.6 -12.4,9.7 -9.1,18.8 5.7,15.8 31.5,18.7 43.9,9.9 15.6,-11.1 7.4,-37.5 -12.9,-32.1 -4.6,1.2 -9.2,2.8 -13.7,4.6 -3.8,1.5 -7.7,3 -10.1,6.5 -6.1,9.2 2.8,17.5 11.7,18.6 8,1.1 23.2,-0.5 25.6,-10.2 3.1,-12.5 -12.7,-13.3 -20,-8.3 -4.8,3.3 -5,12.3 1.8,13.6 3.7,0.7 6.3,0.4 9.7,-1.1 7.8,-3.4 2.2,-16.9 -5.8,-13.8 -0.6,0.5 -1.2,0.6 -1.9,0.4 1.2,4.6 2.5,9.2 3.7,13.8 1.5,-1 2.3,-1.3 4,-1.1 -1.3,-0.3 -2.5,-0.7 -3.8,-1 -0.5,-0.5 -0.9,-1 -1.4,-1.5 -0.3,-1.3 -0.7,-2.5 -1,-3.8 -0.1,-2.3 2.7,-3.3 -0.9,-2.2 -1.2,0.4 -2.4,0.7 -3.6,0.8 -1.3,0.2 -5.6,0.7 -6.3,-0.6 0.3,1.2 0.7,2.5 1,3.7 -1.4,1.5 -1.4,1.8 0.1,0.9 0.9,-0.3 1.8,-0.7 2.7,-1 1.7,-0.6 3.4,-1.2 5.1,-1.8 2,-0.6 7.9,-3.2 9,-2 5,5.5 -7.6,8.8 -10.4,8.9 -3.4,0.2 -7.1,0.1 -10.4,-1.1 -1.7,-0.7 -3.4,-1.7 -4.3,-3.4 -0.3,-0.5 -0.6,-3 -0.9,-1.9 0.3,-0.9 3.3,-2.4 4.3,-3 1.9,-1.3 3.9,-2.6 6,-3.6 3.9,-1.9 7.9,-2.6 12.2,-2.5 6.1,0.1 7,-8.6 1.4,-10.4 z"
   id="path1320"
   style="fill:#ff7f0e" />

			</g>

		</g>

		<g
   class="st11"
   id="g1324"
   style="opacity:0.3">
			<g
   id="g1323">
				<path
   class="st5"
   d="m 175.3,310.7 c -1.1,-1.4 -3.2,-1.6 -4.8,-1.2 -0.6,0.1 -1.2,0.4 -1.7,0.8 -0.3,0.3 -0.7,0.5 -1,0.8 -0.8,0.6 -0.3,0.4 1.5,-0.7 -1.9,0.4 -3.8,2.3 -4.1,4.1 -0.6,2.8 -0.6,5.9 1,8.5 1.8,2.8 5,4.3 8.3,3.8 3.3,-0.4 5.9,-3.1 6.5,-6.4 0.4,-2.4 0.2,-4.9 0.1,-7.3 -0.2,-3.8 -3.3,-6.8 -7.2,-6.3 -4,0.5 -6,4.2 -5.3,8 0.1,0.5 0.3,1.1 0.3,1.6 0,-0.6 -0.1,-0.7 0,-0.1 0,0.5 0.1,1.1 0.1,1.6 0,0.1 0,0.3 0,0.4 0,0.5 0,0.5 0.1,0 0,-0.9 0.6,-1.5 1.6,-1.9 0.8,-1.5 2.1,-2 3.8,-1.5 1,0.3 2,1 2.3,2 0.2,0.5 0.1,1.5 0.2,0.6 0,-0.5 0,-0.9 0.1,-1.4 0.1,-2.1 -1.2,-4.1 -2.9,-5.1 0,0 -0.1,0 -0.1,-0.1 0.7,0.7 1.3,1.3 2,2 0,-0.1 -0.1,-0.2 -0.1,-0.2 0.2,0.9 0.5,1.8 0.7,2.7 0,-0.1 0,-0.7 0,-0.7 -0.1,0.5 -0.3,1 -0.4,1.6 0.3,-0.5 0.5,-1.1 0.5,-1.7 -0.1,-1.7 -0.6,-2.8 -1.5,-3.9 z"
   id="path1322"
   style="fill:#ff7f0e" />

			</g>

		</g>

		<g
   class="st11"
   id="g1326"
   style="opacity:0.3">
			<g
   id="g1325">
				<path
   class="st5"
   d="m 189,314.3 c -2.8,-0.3 -5.5,0.5 -8.1,1.5 -1.3,0.5 -2.7,1.1 -4,1.8 -2.5,1.4 -3.6,3.3 -3.8,6.1 -0.2,2.6 1.9,4.8 4.2,5.5 3.6,1.2 5.9,-1.2 8.8,-2.9 2.2,-1.3 4.3,-2.4 6.3,-3.9 1.5,-1.1 1.7,-3.7 1,-5.2 -0.9,-1.8 -2.4,-2.6 -4.4,-2.9 z"
   id="path1324"
   style="fill:#ff7f0e" />

			</g>

		</g>

		<g
   class="st11"
   id="g1328"
   style="opacity:0.3">
			<g
   id="g1327">
				<path
   class="st5"
   d="m 132.5,341.2 c 0,-0.5 -0.1,-0.9 -0.2,-1.4 -0.2,-0.9 -0.7,-1.7 -1.3,-2.3 -0.6,-0.6 -1.5,-1.2 -2.4,-1.4 -1.4,-0.3 -3.1,-0.3 -4.4,0.6 -1,0.7 -1.8,1.5 -2.3,2.7 -0.5,1.1 -0.7,2.5 -0.3,3.7 0.6,2 2.1,3.6 4.1,4.1 1.4,0.4 2.2,0.2 3.6,0 -0.5,0.1 -1,0.1 -1.5,0.2 0.1,0 0.2,0 0.4,0 -0.5,-0.1 -1,-0.1 -1.5,-0.2 0,0 0.1,0 0.1,0 -0.5,-0.2 -0.9,-0.4 -1.4,-0.6 0,0 0.1,0 0.1,0.1 1.4,0.8 3,0.9 4.5,0.6 1.8,-0.4 3.1,-1.8 3.8,-3.4 0.6,-1.5 0.6,-3 0,-4.5 -0.7,-1.7 -2,-2.8 -3.8,-3.4 -1,-0.3 -2.4,-0.3 -3.4,0 -0.2,0.1 -0.4,0.1 -0.6,0.2 0.5,-0.1 1,-0.1 1.5,-0.2 0,0 -0.1,0 -0.1,0 0.5,0.1 1,0.1 1.5,0.2 0,0 -0.1,0 -0.1,0 0.5,0.2 0.9,0.4 1.4,0.6 -0.3,-0.2 -1.1,-0.6 -1.5,-0.6 0.4,0.2 0.9,0.4 1.3,0.6 0,0 0,0 0,0 0.4,0.3 0.7,0.6 1.1,0.9 0,0 0,0 0,0 0.3,0.4 0.6,0.7 0.8,1.1 0,0 0,0 0,0 0.1,0.6 0.3,1.5 0.6,2.4 0,0 0,-0.1 0,0 -0.2,0.9 -0.5,1.7 -0.7,2.6 0.1,-0.2 0.2,-0.4 0.3,-0.6 0.2,-0.7 0.4,-1.3 0.4,-2 z"
   id="path1326"
   style="fill:#ff7f0e" />

			</g>

		</g>

		<g
   id="g1330">
			<g
   id="g1329">
				<path
   d="m 184.1,333.7 c -5.3,-10 -19.3,-10 -28.8,-7.4 -9.9,2.7 -22.3,10.3 -22.8,21.7 -0.6,11.8 12.4,17.8 22.2,19.2 10.6,1.5 22.8,-1.1 29.8,-9.8 6.7,-8.4 5.9,-21.4 -3.2,-27.6 -1.6,-1.1 -3.1,1.5 -1.5,2.6 9.7,6.8 6.8,20.8 -1.7,27 -9.5,7 -24.3,7 -34.4,1.2 -5.4,-3.1 -9.7,-8.6 -7.8,-15.1 1.7,-5.9 6.9,-10.3 12.1,-13.1 9.1,-4.9 27.4,-8.6 33.4,2.9 1.1,1.7 3.6,0.1 2.7,-1.6 z"
   id="path1328" />

			</g>

		</g>

		<g
   id="g1332">
			<g
   id="g1331">
				<path
   d="m 120.2,342.3 c -0.7,4 2.8,6.6 6.5,6.3 3.5,-0.3 9.2,-2.2 9.6,-6.3 0.4,-3.3 -2.5,-6.4 -5.6,-7.3 -4.6,-1.2 -8.9,2.2 -12.2,4.9 -1.5,1.2 0.6,3.3 2.1,2.1 2.9,-2.4 7.9,-6.5 11.5,-2.9 2.4,2.4 0.5,4.4 -2,5.4 -1.7,0.6 -7.8,2.6 -7.1,-1.5 0.5,-1.8 -2.4,-2.6 -2.8,-0.7 z"
   id="path1330" />

			</g>

		</g>

		<g
   id="g1334">
			<g
   id="g1333">
				<path
   d="m 176.6,327.7 c -5.4,-2.6 -12.9,-11.5 -6.8,-17.2 5.4,-5 8.7,2.5 8.1,7 -0.5,3.5 -2.1,7 -3.3,10.3 -0.7,1.8 2.2,2.6 2.9,0.8 2,-5.6 5.5,-12.4 2.4,-18.3 -2,-3.8 -6.2,-5.6 -10.2,-3.6 -10.9,5.5 -2.3,19.8 5.4,23.6 1.7,0.8 3.3,-1.8 1.5,-2.6 z"
   id="path1332" />

			</g>

		</g>

		<g
   id="g1336">
			<g
   id="g1335">
				<path
   d="m 176.9,326.8 c 1.5,-3.2 3.4,-6.5 5.9,-9 1.4,-1.4 3.4,-3 5.5,-3.1 3.1,-0.1 5.1,2.2 4,5.2 -2.2,6.3 -10.6,8.5 -16.3,6.5 -1.8,-0.6 -2.6,2.3 -0.8,2.9 4.6,1.6 9.6,1.1 13.8,-1.4 3.6,-2.1 7.8,-6.7 6.6,-11.3 -1,-4.1 -6,-5.7 -9.7,-4.5 -5.6,1.8 -9.3,8.2 -11.6,13.2 -0.8,1.8 1.8,3.3 2.6,1.5 z"
   id="path1334" />

			</g>

		</g>

		<g
   id="g1338">
			<g
   id="g1337">
				<path
   d="m 177.1,334.6 c -1.6,-0.7 -3,0.3 -3.2,2 -0.1,1.5 1.1,2.7 2.6,2.4 0.8,-0.2 1.3,-1.1 1,-1.8 -0.2,-0.8 -1,-1.2 -1.8,-1 0.3,-0.1 0.6,0 0.9,0.2 0.1,0.1 0.2,0.2 0.3,0.3 -0.1,-0.1 0,-0.1 0,0.1 0.1,0.1 0.1,0.2 0,0.1 0,-0.2 0,-0.1 0,0.2 0,0 0,-0.2 0,-0.2 0.1,0.1 -0.1,0.4 0,0.1 0.1,-0.3 -0.2,0.3 0,0.1 -0.1,0.2 -0.1,0.2 -0.3,0.3 -0.3,0.2 -0.7,0.2 -1,0 0.7,0.3 1.6,0.2 2.1,-0.5 0.3,-0.9 0.1,-2 -0.6,-2.3 z"
   id="path1336" />

			</g>

		</g>

		<g
   id="g1340">
			<g
   id="g1339">
				<path
   d="m 163.4,347.5 c -1.2,8 8.2,11.9 13.9,7 1.7,-1.5 5.1,-5.7 3,-8.1 -1.2,-1.3 -3.9,-1 -5.4,-1.1 -2.9,-0.3 -5.8,-0.5 -8.7,-0.8 -1.9,-0.2 -1.9,2.8 0,3 2.5,0.2 5.1,0.5 7.6,0.7 0.8,0.1 2.5,0 3.3,0.3 1,-0.4 1.1,-0.1 0.3,1 -0.2,0.4 -0.4,0.8 -0.7,1.2 -1.2,1.8 -3.3,3.2 -5.5,3.1 -2.8,-0.1 -5.3,-2.7 -4.9,-5.5 0.3,-1.9 -2.6,-2.7 -2.9,-0.8 z"
   id="path1338" />

			</g>

		</g>

		<g
   id="g1342">
			<g
   id="g1341">
				<path
   d="m 178.2,334.9 c -0.7,-0.1 -1.3,0 -2,0.3 -1,0.5 -0.9,2.1 0,2.6 0.5,0.3 1,0.4 1.6,0.4 -0.4,-0.8 -0.9,-1.5 -1.3,-2.3 -0.1,0.1 -0.2,0.3 -0.3,0.4 -0.5,0.8 0,2 0.9,2.2 0.8,0.2 1.6,0 2.1,-0.6 0.7,-0.9 0.5,-2.1 -0.7,-2.5 -1,-0.3 -2,0.3 -2.3,1.3 -0.2,0.6 0.1,1.2 0.5,1.6 0.5,0.4 1.1,0.4 1.7,0.1 0.8,-0.4 1.1,-1.4 1,-2.2 -0.2,-0.8 -1.1,-1.3 -1.8,-1 -0.8,0.2 -1.2,1.1 -1,1.8 0.1,-0.4 0.3,-0.8 0.4,-1.1 0.7,0.6 1.5,1.1 2.2,1.7 0,0.1 0,0.1 -0.1,0.2 -0.2,0.2 -0.4,0.4 -0.5,0.5 -0.3,0 -0.5,0.1 -0.8,0.1 -0.2,-0.8 -0.4,-1.7 -0.7,-2.5 0.2,-0.1 0.5,-0.2 0.8,-0.1 0.3,0.7 0.6,1.5 0.9,2.2 0.1,-0.1 0.2,-0.3 0.3,-0.4 0.6,-0.9 -0.2,-2.3 -1.3,-2.3 -0.4,0 -0.1,0 -0.1,0 0,0.9 0,1.7 0,2.6 -0.1,0.1 -0.2,0.1 -0.3,0 0.8,0.1 1.7,-0.2 1.8,-1 0.2,-0.8 -0.2,-1.8 -1,-2 z"
   id="path1340" />

			</g>

		</g>

		<g
   id="g1344">
			<g
   id="g1343">
				<path
   d="m 170,337.5 c -0.6,-1.2 -1.5,-2.3 -3,-2.3 -1.5,0 -3.2,1.1 -4.4,1.8 -1.7,1 -0.2,3.6 1.5,2.6 0.8,-0.5 1.5,-0.9 2.4,-1.2 0.6,-0.3 0.6,0.1 0.9,0.7 0.9,1.6 3.5,0.1 2.6,-1.6 z"
   id="path1342" />

			</g>

		</g>

	</g>
      <g
         id="g1555"
         transform="matrix(1.2352806,0,0,1.2352806,-466.86328,-482.47402)">
		<g
   class="st11"
   id="g1536"
   style="opacity:0.3">
			<g
   id="g1535">
				<path
   class="st4"
   d="m 538.1,523.6 c -0.6,-1.2 -2.1,-1.8 -3.4,-1.5 -1.1,0.3 -1.8,1.4 -1.6,2.5 0.2,1.2 1.1,1.9 2.2,2 1.2,0.1 2.4,0 3.5,-0.5 0.9,-0.4 1.3,-1.7 1.1,-2.6 -0.3,-0.9 -1.2,-1.7 -2.2,-1.7 -0.3,0 -0.6,0.1 -1,0.1 -0.1,0 -0.2,0 -0.4,0.1 0.3,0 0.3,0 0.2,0 -0.4,0 -0.8,0 -1.2,0 0.2,1.5 0.4,3 0.6,4.5 0.2,-0.1 0.5,-0.2 0.7,-0.3 -0.1,0.1 -0.3,0.2 -0.5,0.2 -0.2,0 -0.2,0 0,0 -0.3,-0.1 -0.4,-0.1 -0.2,0 0.7,0.2 1.6,-0.1 2,-0.7 0.5,-0.6 0.5,-1.4 0.2,-2.1 z"
   id="path1534"
   style="fill:#2ca02c" />

			</g>

		</g>

		<g
   class="st11"
   id="g1538"
   style="opacity:0.3">
			<g
   id="g1537">
				<path
   class="st4"
   d="m 542.1,526.4 c 3.2,0.5 6.5,0.1 9.4,1.7 2.7,1.4 3.8,3.3 2.5,6.2 -1.1,2.4 -3.1,3.8 -5.8,3.1 -1.6,-0.4 -3.6,-1 -5,-2 -2,-1.4 -1.8,-4.4 0.6,-5.2 1.1,-0.4 4.1,0.2 4.9,1.1 1.2,1.2 0.4,1.3 -1,1.3 -1.2,0 -3,-1.1 -2.9,1 0.3,-0.8 0.7,-1.6 1,-2.4 -0.1,0.1 -0.2,0.2 -0.3,0.3 1.8,0.2 3.5,0.5 5.3,0.7 -0.2,-0.5 -0.4,-1 -0.6,-1.4 -1.9,0.8 -3.9,1.6 -5.8,2.4 0.1,0.1 0.3,0.3 0.4,0.4 2,3.9 7.8,0.5 5.9,-3.4 -0.4,-0.8 -0.8,-1.3 -1.4,-1.8 -2,-1.7 -6,-0.8 -5.8,2.4 0.1,1.9 0.5,3.3 1.6,4.8 1.1,1.6 3.8,2.5 5.3,0.7 2.8,-3.5 0.1,-9.3 -4,-10.5 -4.7,-1.4 -8.4,3.2 -6.9,7.6 1.5,4.5 7.3,6.9 11.7,5.5 4.1,-1.4 6.6,-6.3 4.3,-10.3 -2.1,-3.6 -9.2,-6.2 -13.2,-5.4 -4.4,0.9 -7.9,7 -6.9,11.3 1.1,5 6.3,7.1 10.7,8.3 5.7,1.5 9.5,-0.2 12.5,-5.2 3.2,-5.3 2.3,-10.1 -2.9,-13.7 -4,-2.8 -10.4,-4.2 -14.3,-0.5 -0.8,1 -0.5,2.8 0.7,3 z"
   id="path1536"
   style="fill:#2ca02c" />

			</g>

		</g>

		<g
   class="st11"
   id="g1540"
   style="opacity:0.3">
			<g
   id="g1539">
				<path
   class="st4"
   d="m 562.4,524 c 1.5,-2.5 2.8,-7.4 -0.7,-9.1 -1,-0.5 -2.7,-0.6 -3.5,0.4 -0.8,1.1 -1.6,2.2 -2.2,3.4 1.7,0 3.3,0 5,0 -0.8,-1.5 -1.5,-3.1 -2.3,-4.6 -1.5,-2.9 -6.1,-0.9 -5.3,2.2 0.4,1.3 0.7,2.6 1.1,3.9 1.2,3.5 6.5,2.1 5.6,-1.5 -0.3,-1.3 -0.8,-2.6 -1.2,-3.9 -1.8,0.7 -3.5,1.5 -5.3,2.2 0.8,1.5 1.5,3.1 2.3,4.6 0.9,1.9 4,1.9 5,0 0.5,-1 1.1,-1.9 1.8,-2.8 -1.3,0.3 -2.6,0.7 -3.9,1 0.8,0.4 -0.6,-0.4 -0.3,-0.6 0,0 0,0.3 0,0.3 -0.3,1 -0.4,2.1 -0.3,3.1 0,2.5 3,3.5 4.2,1.4 z"
   id="path1538"
   style="fill:#2ca02c" />

			</g>

		</g>

		<g
   id="g1542">
			<g
   id="g1541">
				<path
   d="m 543.8,523.8 c 4,-3.6 12.2,-0.4 15.1,3.3 4.3,5.4 0.1,12.5 -5.7,14.4 -5,1.7 -12.3,0.3 -15.9,-3.8 -5.3,-6.1 1.4,-13 7.1,-14.9 0.8,-0.3 0.5,-1.6 -0.4,-1.3 -6.3,2.1 -13,8.9 -8.7,15.9 3.6,5.9 13.3,7.6 19.3,5 6,-2.6 9.7,-10.4 5.3,-16.1 -3.4,-4.4 -12.6,-7.7 -17.2,-3.5 -0.5,0.7 0.4,1.6 1.1,1 z"
   id="path1540" />

			</g>

		</g>

		<g
   id="g1544">
			<g
   id="g1543">
				<path
   d="m 539,524.1 c -0.5,1.4 -2.1,1.4 -3.3,1.3 -0.4,0 -1.1,0 -1.5,-0.2 -0.7,-0.5 -0.5,-1.4 0.2,-1.9 1.7,-1.1 5.1,-1.6 5.5,1.1 0.1,0.9 1.5,0.5 1.3,-0.4 -0.3,-2 -2.3,-3.1 -4.2,-3 -1.7,0.1 -4.5,1.1 -4.9,3 -0.4,1.9 1.5,2.5 3,2.7 2.1,0.2 4.3,-0.1 5.1,-2.3 0.5,-0.7 -0.9,-1.1 -1.2,-0.3 z"
   id="path1542" />

			</g>

		</g>

		<g
   id="g1546">
			<g
   id="g1545">
				<path
   d="m 558.8,526.7 c 2.1,0.3 4,-2.9 5,-4.6 1.2,-2 1.8,-4.8 0,-6.6 -1.3,-1.4 -3.4,-1.4 -4.6,0.1 -1.9,2.3 -1.4,6.6 -1.3,9.3 0,0.9 1.4,0.9 1.4,0 -0.1,-1.7 0,-3.4 0.1,-5.1 0.1,-1.5 1.2,-6 3.5,-3.1 1.3,1.7 0.4,3.7 -0.6,5.2 -0.3,0.5 -2.2,3.5 -3,3.4 -1,0 -1.3,1.3 -0.5,1.4 z"
   id="path1544" />

			</g>

		</g>

		<g
   id="g1548">
			<g
   id="g1547">
				<path
   d="m 559.6,523.9 c 0.9,-2.8 -0.1,-13.4 -5.1,-11.7 -2.2,0.7 -2.7,3.4 -2.2,5.3 0.8,2.7 3,5 5.2,6.6 0.7,0.5 1.4,-0.7 0.7,-1.2 -1.4,-1 -2.6,-2.1 -3.6,-3.6 -0.4,-0.7 -0.8,-1.4 -1,-2.2 -0.4,-1.5 0.4,-5.4 3.2,-2.7 0.8,0.7 1.1,2.6 1.4,3.6 0.5,1.9 0.7,3.7 0.1,5.5 -0.3,0.9 1.1,1.3 1.3,0.4 z"
   id="path1546" />

			</g>

		</g>

		<g
   id="g1550">
			<g
   id="g1549">
				<path
   d="m 555.9,528.3 c 0,0 0,-0.1 -0.1,-0.1 0.4,-0.1 0.8,-0.1 1.2,-0.2 -0.1,-0.2 -0.2,-0.4 -0.2,-0.5 0,0.3 -0.1,0.6 -0.1,0.8 -0.2,0.1 -0.3,0.1 -0.4,-0.1 -0.1,0.9 1.3,0.9 1.4,0 0.1,-1 -1.2,-1.5 -1.9,-0.8 -0.2,0.2 -0.2,0.6 -0.1,0.8 0.1,0.2 0.2,0.4 0.2,0.5 0.2,0.5 1.1,0.4 1.2,-0.2 0.1,-0.6 -0.1,-1.1 -0.6,-1.4 -0.3,-0.2 -0.8,0 -0.9,0.2 -0.1,0.4 0,0.7 0.3,1 z"
   id="path1548" />

			</g>

		</g>

		<g
   id="g1552">
			<g
   id="g1551">
				<path
   d="m 552.6,528.3 c -0.2,0 -0.3,0 -0.3,-0.2 0.3,-0.2 0.6,-0.3 0.8,-0.5 -0.3,-0.1 -0.4,0.1 -0.2,0.8 -0.2,0 -0.4,0 -0.5,-0.1 0,0 0,0 0.1,0 -0.1,-0.1 -0.2,-0.3 -0.3,-0.4 0,0 0,0 0,0.1 0.1,-0.2 0.1,-0.4 0.2,-0.7 0.2,0 0.4,-0.1 0.6,-0.1 0.1,0.3 0.2,0.6 0.2,0.9 0,0 0,0 0,0 -0.3,0.1 -0.5,0.2 -0.8,0.3 0.3,0.1 0.6,0.2 0.8,0.3 0.3,0.1 0.7,-0.2 0.8,-0.5 0.1,-0.4 -0.1,-0.7 -0.5,-0.8 -0.3,-0.1 -0.6,-0.2 -0.8,-0.3 -0.3,-0.1 -0.6,0.1 -0.8,0.3 0,0 0,0 0,0 -0.2,0.3 0,0.7 0.2,0.9 0.3,0.2 0.8,0.1 1,-0.1 0.2,-0.2 0.3,-0.4 0.2,-0.7 -0.2,-0.7 -1.1,-0.8 -1.5,-0.2 -0.4,0.7 0.2,1.3 0.8,1.4 0.4,0.1 0.7,-0.1 0.8,-0.5 0.3,-1 -0.8,-1.9 -1.7,-1.3 -0.6,0.7 0.1,1.9 0.9,1.4 z"
   id="path1550" />

			</g>

		</g>

		<g
   id="g1554">
			<g
   id="g1553">
				<path
   d="m 555.1,531.7 c 0.1,0.4 0.2,1.1 -0.2,1.5 -0.3,0.3 -0.8,0.2 -1.1,0.1 -0.8,-0.3 -1.2,-1.4 -1.5,-2.1 -0.3,-0.8 -1.6,-0.5 -1.3,0.4 0.6,1.5 1.4,3.2 3.2,3.2 0.7,0 1.4,-0.3 1.8,-0.9 0.5,-0.7 0.4,-1.6 0.3,-2.5 0,-1 -1.3,-0.6 -1.2,0.3 z"
   id="path1552" />

			</g>

		</g>

	</g>
      <g
         id="PolyCollection_3-3-6-7"
         transform="matrix(10.810255,0,0,1.3121387,-2053.8687,36.520082)"
         style="fill:#ff800d;fill-opacity:0.298039;stroke-linecap:butt;stroke-linejoin:round">
        <path
           d="m 196.96304,58.317124 h -2.4862 v 25.428657 h 2.4862 v 0 z"
           clip-path="url(#pd2ca3efbcc-1-8-6)"
           style="fill:#ff800d;fill-opacity:0.298039;stroke-linecap:butt;stroke-linejoin:round"
           id="path189-5-2-6" />
      </g>
      <g
         id="patch_5-0-4-8"
         transform="matrix(10.937008,0,0,1.311577,-2078.6227,36.576433)"
         style="stroke:#ff800d;stroke-width:0.178485;stroke-linecap:butt;stroke-linejoin:round;stroke-dasharray:none;stroke-opacity:1">
        <path
           d="m 194.47684,58.317124 v 25.428657 m 2.4862,-25.428657 v 25.428657"
           clip-path="url(#pd2ca3efbcc-3-2-0-5)"
           style="fill:none;stroke:#ff800d;stroke-width:0.178485;stroke-linecap:butt;stroke-linejoin:miter;stroke-dasharray:none;stroke-opacity:1"
           id="path186-2-7-6" />
      </g>
    </g>
  </g>
</svg>
