<?xml version="1.0" encoding="UTF-8" standalone="no"?>
<svg
   xmlns:dc="http://purl.org/dc/elements/1.1/"
   xmlns:cc="http://creativecommons.org/ns#"
   xmlns:rdf="http://www.w3.org/1999/02/22-rdf-syntax-ns#"
   xmlns:svg="http://www.w3.org/2000/svg"
   xmlns="http://www.w3.org/2000/svg"
   xmlns:xlink="http://www.w3.org/1999/xlink"
   xmlns:sodipodi="http://sodipodi.sourceforge.net/DTD/sodipodi-0.dtd"
   xmlns:inkscape="http://www.inkscape.org/namespaces/inkscape"
   height="360pt"
   version="1.1"
   viewBox="0 0 432 360"
   width="432pt"
   id="svg312"
   sodipodi:docname="1d_plot.svg"
   inkscape:version="1.0.2 (1.0.2+r75+1)">
  <sodipodi:namedview
     pagecolor="#ffffff"
     bordercolor="#666666"
     borderopacity="1"
     objecttolerance="10"
     gridtolerance="10"
     guidetolerance="10"
     inkscape:pageopacity="0"
     inkscape:pageshadow="2"
     inkscape:window-width="1856"
     inkscape:window-height="1050"
     id="namedview314"
     showgrid="false"
     inkscape:zoom="6.3045009"
     inkscape:cx="29.617109"
     inkscape:cy="192.80986"
     inkscape:window-x="64"
     inkscape:window-y="30"
     inkscape:window-maximized="1"
     inkscape:current-layer="matplotlib.axis_2"
     inkscape:document-rotation="0" />
  <metadata
     id="metadata2">
    <rdf:RDF>
      <cc:Work>
        <dc:type
           rdf:resource="http://purl.org/dc/dcmitype/StillImage" />
        <dc:date>2021-12-03T19:30:36.399643</dc:date>
        <dc:format>image/svg+xml</dc:format>
        <dc:creator>
          <cc:Agent>
            <dc:title>Matplotlib v3.3.4, https://matplotlib.org/</dc:title>
          </cc:Agent>
        </dc:creator>
      </cc:Work>
    </rdf:RDF>
  </metadata>
  <defs
     id="defs6">
    <style
       type="text/css"
       id="style4">*{stroke-linecap:butt;stroke-linejoin:round;}</style>
  </defs>
  <g
     id="figure_1">
    <g
       id="patch_1">
      <path
         d="M 0 360  L 432 360  L 432 0  L 0 0  z "
         style="fill:#ffffff;"
         id="path8" />
    </g>
    <g
       id="axes_1">
      <g
         id="patch_2">
        <path
           d="M 74.81 295.72  L 410.4 295.72  L 410.4 21.6  L 74.81 21.6  z "
           style="fill:#ffffff;"
           id="path11" />
      </g>
      <g
         id="patch_3">
        <path
           clip-path="url(#p5e717d40a0)"
           d="M 74.81 295.72  L 91.5895 295.72  L 91.5895 34.653333  L 74.81 34.653333  z "
           style="fill:#00ffc1;"
           id="path14" />
      </g>
      <g
         id="patch_4">
        <path
           clip-path="url(#p5e717d40a0)"
           d="M 91.5895 295.72  L 108.369 295.72  L 108.369 182.356546  L 91.5895 182.356546  z "
           style="fill:#d1ff00;"
           id="path17" />
      </g>
      <g
         id="patch_5">
        <path
           clip-path="url(#p5e717d40a0)"
           d="M 108.369 295.72  L 125.1485 295.72  L 125.1485 226.542648  L 108.369 226.542648  z "
           style="fill:#ffb700;"
           id="path20" />
      </g>
      <g
         id="patch_6">
        <path
           clip-path="url(#p5e717d40a0)"
           d="M 125.1485 295.72  L 141.928 295.72  L 141.928 247.33473  L 125.1485 247.33473  z "
           style="fill:#ff8200;"
           id="path23" />
      </g>
      <g
         id="patch_7">
        <path
           clip-path="url(#p5e717d40a0)"
           d="M 141.928 295.72  L 158.7075 295.72  L 158.7075 260.935197  L 141.928 260.935197  z "
           style="fill:#ff5900;"
           id="path26" />
      </g>
      <g
         id="patch_8">
        <path
           clip-path="url(#p5e717d40a0)"
           d="M 158.7075 295.72  L 175.487 295.72  L 175.487 268.658859  L 158.7075 268.658859  z "
           style="fill:#ff4700;"
           id="path29" />
      </g>
      <g
         id="patch_9">
        <path
           clip-path="url(#p5e717d40a0)"
           d="M 175.487 295.72  L 192.2665 295.72  L 192.2665 271.068098  L 175.487 271.068098  z "
           style="fill:#ff4100;"
           id="path32" />
      </g>
      <g
         id="patch_10">
        <path
           clip-path="url(#p5e717d40a0)"
           d="M 192.2665 295.72  L 209.046 295.72  L 209.046 273.794301  L 192.2665 273.794301  z "
           style="fill:#ff3500;"
           id="path35" />
      </g>
      <g
         id="patch_11">
        <path
           clip-path="url(#p5e717d40a0)"
           d="M 209.046 295.72  L 225.8255 295.72  L 225.8255 276.724658  L 209.046 276.724658  z "
           style="fill:#ff2f00;"
           id="path38" />
      </g>
      <g
         id="patch_12">
        <path
           clip-path="url(#p5e717d40a0)"
           d="M 225.8255 295.72  L 242.605 295.72  L 242.605 278.769999  L 225.8255 278.769999  z "
           style="fill:#ff2900;"
           id="path41" />
      </g>
      <g
         id="patch_13">
        <path
           clip-path="url(#p5e717d40a0)"
           d="M 242.605 295.72  L 259.3845 295.72  L 259.3845 281.401854  L 242.605 281.401854  z "
           style="fill:#ff2300;"
           id="path44" />
      </g>
      <g
         id="patch_14">
        <path
           clip-path="url(#p5e717d40a0)"
           d="M 259.3845 295.72  L 276.164 295.72  L 276.164 283.240857  L 259.3845 283.240857  z "
           style="fill:#ff1e00;"
           id="path47" />
      </g>
      <g
         id="patch_15">
        <path
           clip-path="url(#p5e717d40a0)"
           d="M 276.164 295.72  L 292.9435 295.72  L 292.9435 285.396195  L 276.164 285.396195  z "
           style="fill:#ff1800;"
           id="path50" />
      </g>
      <g
         id="patch_16">
        <path
           clip-path="url(#p5e717d40a0)"
           d="M 292.9435 295.72  L 309.723 295.72  L 309.723 286.44702  L 292.9435 286.44702  z "
           style="fill:#ff1800;"
           id="path53" />
      </g>
      <g
         id="patch_17">
        <path
           clip-path="url(#p5e717d40a0)"
           d="M 309.723 295.72  L 326.5025 295.72  L 326.5025 286.12623  L 309.723 286.12623  z "
           style="fill:#ff1800;"
           id="path56" />
      </g>
      <g
         id="patch_18">
        <path
           clip-path="url(#p5e717d40a0)"
           d="M 326.5025 295.72  L 343.282 295.72  L 343.282 286.602165  L 326.5025 286.602165  z "
           style="fill:#ff1800;"
           id="path59" />
      </g>
      <g
         id="patch_19">
        <path
           clip-path="url(#p5e717d40a0)"
           d="M 343.282 295.72  L 360.0615 295.72  L 360.0615 287.177223  L 343.282 287.177223  z "
           style="fill:#ff1200;"
           id="path62" />
      </g>
      <g
         id="patch_20">
        <path
           clip-path="url(#p5e717d40a0)"
           d="M 360.0615 295.72  L 376.841 295.72  L 376.841 285.778964  L 360.0615 285.778964  z "
           style="fill:#ff1800;"
           id="path65" />
      </g>
      <g
         id="patch_21">
        <path
           clip-path="url(#p5e717d40a0)"
           d="M 376.841 295.72  L 393.6205 295.72  L 393.6205 287.671264  L 376.841 287.671264  z "
           style="fill:#ff1200;"
           id="path68" />
      </g>
      <g
         id="patch_22">
        <path
           clip-path="url(#p5e717d40a0)"
           d="M 393.6205 295.72  L 410.4 295.72  L 410.4 292.382557  L 393.6205 292.382557  z "
           style="fill:#ff0600;"
           id="path71" />
      </g>
      <g
         id="matplotlib.axis_1">
        <g
           id="text_5">
          <!-- Allele frequency -->
          <g
             transform="translate(141.589375 332.490781)scale(0.25 -0.25)"
             id="g179">
            <defs
               id="defs145">
              <path
                 d="M 34.1875 63.1875  L 20.796875 26.90625  L 47.609375 26.90625  z M 28.609375 72.90625  L 39.796875 72.90625  L 67.578125 0  L 57.328125 0  L 50.6875 18.703125  L 17.828125 18.703125  L 11.1875 0  L 0.78125 0  z "
                 id="DejaVuSans-65" />
              <path
                 d="M 9.421875 75.984375  L 18.40625 75.984375  L 18.40625 0  L 9.421875 0  z "
                 id="DejaVuSans-108" />
              <path
                 d="M 56.203125 29.59375  L 56.203125 25.203125  L 14.890625 25.203125  Q 15.484375 15.921875 20.484375 11.0625  Q 25.484375 6.203125 34.421875 6.203125  Q 39.59375 6.203125 44.453125 7.46875  Q 49.3125 8.734375 54.109375 11.28125  L 54.109375 2.78125  Q 49.265625 0.734375 44.1875 -0.34375  Q 39.109375 -1.421875 33.890625 -1.421875  Q 20.796875 -1.421875 13.15625 6.1875  Q 5.515625 13.8125 5.515625 26.8125  Q 5.515625 40.234375 12.765625 48.109375  Q 20.015625 56 32.328125 56  Q 43.359375 56 49.78125 48.890625  Q 56.203125 41.796875 56.203125 29.59375  z M 47.21875 32.234375  Q 47.125 39.59375 43.09375 43.984375  Q 39.0625 48.390625 32.421875 48.390625  Q 24.90625 48.390625 20.390625 44.140625  Q 15.875 39.890625 15.1875 32.171875  z "
                 id="DejaVuSans-101" />
              <path
                 id="DejaVuSans-32" />
              <path
                 d="M 37.109375 75.984375  L 37.109375 68.5  L 28.515625 68.5  Q 23.6875 68.5 21.796875 66.546875  Q 19.921875 64.59375 19.921875 59.515625  L 19.921875 54.6875  L 34.71875 54.6875  L 34.71875 47.703125  L 19.921875 47.703125  L 19.921875 0  L 10.890625 0  L 10.890625 47.703125  L 2.296875 47.703125  L 2.296875 54.6875  L 10.890625 54.6875  L 10.890625 58.5  Q 10.890625 67.625 15.140625 71.796875  Q 19.390625 75.984375 28.609375 75.984375  z "
                 id="DejaVuSans-102" />
              <path
                 d="M 41.109375 46.296875  Q 39.59375 47.171875 37.8125 47.578125  Q 36.03125 48 33.890625 48  Q 26.265625 48 22.1875 43.046875  Q 18.109375 38.09375 18.109375 28.8125  L 18.109375 0  L 9.078125 0  L 9.078125 54.6875  L 18.109375 54.6875  L 18.109375 46.1875  Q 20.953125 51.171875 25.484375 53.578125  Q 30.03125 56 36.53125 56  Q 37.453125 56 38.578125 55.875  Q 39.703125 55.765625 41.0625 55.515625  z "
                 id="DejaVuSans-114" />
              <path
                 d="M 14.796875 27.296875  Q 14.796875 17.390625 18.875 11.75  Q 22.953125 6.109375 30.078125 6.109375  Q 37.203125 6.109375 41.296875 11.75  Q 45.40625 17.390625 45.40625 27.296875  Q 45.40625 37.203125 41.296875 42.84375  Q 37.203125 48.484375 30.078125 48.484375  Q 22.953125 48.484375 18.875 42.84375  Q 14.796875 37.203125 14.796875 27.296875  z M 45.40625 8.203125  Q 42.578125 3.328125 38.25 0.953125  Q 33.9375 -1.421875 27.875 -1.421875  Q 17.96875 -1.421875 11.734375 6.484375  Q 5.515625 14.40625 5.515625 27.296875  Q 5.515625 40.1875 11.734375 48.09375  Q 17.96875 56 27.875 56  Q 33.9375 56 38.25 53.625  Q 42.578125 51.265625 45.40625 46.390625  L 45.40625 54.6875  L 54.390625 54.6875  L 54.390625 -20.796875  L 45.40625 -20.796875  z "
                 id="DejaVuSans-113" />
              <path
                 d="M 8.5 21.578125  L 8.5 54.6875  L 17.484375 54.6875  L 17.484375 21.921875  Q 17.484375 14.15625 20.5 10.265625  Q 23.53125 6.390625 29.59375 6.390625  Q 36.859375 6.390625 41.078125 11.03125  Q 45.3125 15.671875 45.3125 23.6875  L 45.3125 54.6875  L 54.296875 54.6875  L 54.296875 0  L 45.3125 0  L 45.3125 8.40625  Q 42.046875 3.421875 37.71875 1  Q 33.40625 -1.421875 27.6875 -1.421875  Q 18.265625 -1.421875 13.375 4.4375  Q 8.5 10.296875 8.5 21.578125  z M 31.109375 56  z "
                 id="DejaVuSans-117" />
              <path
                 d="M 54.890625 33.015625  L 54.890625 0  L 45.90625 0  L 45.90625 32.71875  Q 45.90625 40.484375 42.875 44.328125  Q 39.84375 48.1875 33.796875 48.1875  Q 26.515625 48.1875 22.3125 43.546875  Q 18.109375 38.921875 18.109375 30.90625  L 18.109375 0  L 9.078125 0  L 9.078125 54.6875  L 18.109375 54.6875  L 18.109375 46.1875  Q 21.34375 51.125 25.703125 53.5625  Q 30.078125 56 35.796875 56  Q 45.21875 56 50.046875 50.171875  Q 54.890625 44.34375 54.890625 33.015625  z "
                 id="DejaVuSans-110" />
              <path
                 d="M 48.78125 52.59375  L 48.78125 44.1875  Q 44.96875 46.296875 41.140625 47.34375  Q 37.3125 48.390625 33.40625 48.390625  Q 24.65625 48.390625 19.8125 42.84375  Q 14.984375 37.3125 14.984375 27.296875  Q 14.984375 17.28125 19.8125 11.734375  Q 24.65625 6.203125 33.40625 6.203125  Q 37.3125 6.203125 41.140625 7.25  Q 44.96875 8.296875 48.78125 10.40625  L 48.78125 2.09375  Q 45.015625 0.34375 40.984375 -0.53125  Q 36.96875 -1.421875 32.421875 -1.421875  Q 20.0625 -1.421875 12.78125 6.34375  Q 5.515625 14.109375 5.515625 27.296875  Q 5.515625 40.671875 12.859375 48.328125  Q 20.21875 56 33.015625 56  Q 37.15625 56 41.109375 55.140625  Q 45.0625 54.296875 48.78125 52.59375  z "
                 id="DejaVuSans-99" />
              <path
                 d="M 32.171875 -5.078125  Q 28.375 -14.84375 24.75 -17.8125  Q 21.140625 -20.796875 15.09375 -20.796875  L 7.90625 -20.796875  L 7.90625 -13.28125  L 13.1875 -13.28125  Q 16.890625 -13.28125 18.9375 -11.515625  Q 21 -9.765625 23.484375 -3.21875  L 25.09375 0.875  L 2.984375 54.6875  L 12.5 54.6875  L 29.59375 11.921875  L 46.6875 54.6875  L 56.203125 54.6875  z "
                 id="DejaVuSans-121" />
            </defs>
            <use
               xlink:href="#DejaVuSans-65"
               id="use147" />
            <use
               x="68.408203"
               xlink:href="#DejaVuSans-108"
               id="use149" />
            <use
               x="96.191406"
               xlink:href="#DejaVuSans-108"
               id="use151" />
            <use
               x="123.974609"
               xlink:href="#DejaVuSans-101"
               id="use153" />
            <use
               x="185.498047"
               xlink:href="#DejaVuSans-108"
               id="use155" />
            <use
               x="213.28125"
               xlink:href="#DejaVuSans-101"
               id="use157" />
            <use
               x="274.804688"
               xlink:href="#DejaVuSans-32"
               id="use159" />
            <use
               x="306.591797"
               xlink:href="#DejaVuSans-102"
               id="use161" />
            <use
               x="341.796875"
               xlink:href="#DejaVuSans-114"
               id="use163" />
            <use
               x="380.660156"
               xlink:href="#DejaVuSans-101"
               id="use165" />
            <use
               x="442.183594"
               xlink:href="#DejaVuSans-113"
               id="use167" />
            <use
               x="505.660156"
               xlink:href="#DejaVuSans-117"
               id="use169" />
            <use
               x="569.039062"
               xlink:href="#DejaVuSans-101"
               id="use171" />
            <use
               x="630.5625"
               xlink:href="#DejaVuSans-110"
               id="use173" />
            <use
               x="693.941406"
               xlink:href="#DejaVuSans-99"
               id="use175" />
            <use
               x="748.921875"
               xlink:href="#DejaVuSans-121"
               id="use177" />
          </g>
        </g>
      </g>
      <g
         id="matplotlib.axis_2">
        <g
           id="text_11"
           transform="translate(10.5)">
          <!-- Count -->
          <g
             transform="matrix(0,-0.25,-0.25,0,40.795781,195.78109)"
             id="g289">
            <defs
               id="defs277">
              <path
                 d="M 64.40625,67.28125 V 56.890625 q -4.984375,4.640625 -10.625,6.921875 -5.640625,2.296875 -11.984375,2.296875 -12.5,0 -19.140625,-7.640625 -6.640625,-7.640625 -6.640625,-22.09375 0,-14.40625 6.640625,-22.046875 Q 29.296875,6.6875 41.796875,6.6875 q 6.34375,0 11.984375,2.296875 5.640625,2.296875 10.625,6.9375 V 5.609375 Q 59.234375,2.09375 53.4375,0.328125 q -5.78125,-1.75 -12.21875,-1.75 -16.5625,0 -26.09375,10.125 Q 5.609375,18.84375 5.609375,36.375 q 0,17.578125 9.515625,27.703125 9.53125,10.140625 26.09375,10.140625 6.53125,0 12.3125,-1.734375 5.796875,-1.734375 10.875,-5.203125 z"
                 id="DejaVuSans-67" />
              <path
                 d="m 30.609375,48.390625 q -7.21875,0 -11.421875,-5.640625 -4.203125,-5.640625 -4.203125,-15.453125 0,-9.8125 4.171875,-15.453125 4.1875,-5.640625 11.453125,-5.640625 7.1875,0 11.375,5.65625 4.203125,5.671875 4.203125,15.4375 0,9.71875 -4.203125,15.40625 -4.1875,5.6875 -11.375,5.6875 z m 0,7.609375 q 11.71875,0 18.40625,-7.625 6.703125,-7.609375 6.703125,-21.078125 0,-13.421875 -6.703125,-21.078125 -6.6875,-7.640625 -18.40625,-7.640625 -11.765625,0 -18.4375,7.640625 -6.65625,7.65625 -6.65625,21.078125 0,13.46875 6.65625,21.078125 Q 18.84375,56 30.609375,56 Z"
                 id="DejaVuSans-111" />
              <path
                 d="M 18.3125,70.21875 V 54.6875 h 18.5 v -6.984375 h -18.5 v -29.6875 q 0,-6.6875 1.828125,-8.59375 1.828125,-1.90625 7.453125,-1.90625 H 36.8125 V 0 H 27.59375 Q 17.1875,0 13.234375,3.875 9.28125,7.765625 9.28125,18.015625 v 29.6875 H 2.6875 V 54.6875 h 6.59375 v 15.53125 z"
                 id="DejaVuSans-116" />
            </defs>
            <use
               xlink:href="#DejaVuSans-67"
               id="use279"
               x="0"
               y="0"
               width="100%"
               height="100%" />
            <use
               x="69.824219"
               xlink:href="#DejaVuSans-111"
               id="use281"
               y="0"
               width="100%"
               height="100%" />
            <use
               x="131.00586"
               xlink:href="#DejaVuSans-117"
               id="use283"
               y="0"
               width="100%"
               height="100%" />
            <use
               x="194.38477"
               xlink:href="#DejaVuSans-110"
               id="use285"
               y="0"
               width="100%"
               height="100%" />
            <use
               x="257.76367"
               xlink:href="#DejaVuSans-116"
               id="use287"
               y="0"
               width="100%"
               height="100%" />
          </g>
        </g>
      </g>
      <g
         id="patch_23">
        <path
           d="M 74.81 295.72  L 74.81 21.6  "
           style="fill:none;stroke:#000000;stroke-linecap:square;stroke-linejoin:miter;stroke-width:0.8;"
           id="path293" />
      </g>
      <g
         id="patch_24">
        <path
           d="M 410.4 295.72  L 410.4 21.6  "
           style="fill:none;stroke:#000000;stroke-linecap:square;stroke-linejoin:miter;stroke-width:0.8;"
           id="path296" />
      </g>
      <g
         id="patch_25">
        <path
           d="M 74.81 295.72  L 410.4 295.72  "
           style="fill:none;stroke:#000000;stroke-linecap:square;stroke-linejoin:miter;stroke-width:0.8;"
           id="path299" />
      </g>
      <g
         id="patch_26">
        <path
           d="M 74.81 21.6  L 410.4 21.6  "
           style="fill:none;stroke:#000000;stroke-linecap:square;stroke-linejoin:miter;stroke-width:0.8;"
           id="path302" />
      </g>
    </g>
  </g>
  <defs
     id="defs310">
    <clipPath
       id="p5e717d40a0">
      <rect
         height="274.12"
         width="335.59"
         x="74.81"
         y="21.6"
         id="rect307" />
    </clipPath>
  </defs>
</svg>
