<?xml version="1.0" encoding="UTF-8" standalone="no"?>
<svg
   width="241.92pt"
   height="241.92pt"
   viewBox="0 0 241.92 241.92"
   version="1.1"
   id="svg57340"
   sodipodi:docname="dadi.svg"
   inkscape:version="1.2.2 (1:1.2.2+202212051552+b0a8486541)"
   xmlns:inkscape="http://www.inkscape.org/namespaces/inkscape"
   xmlns:sodipodi="http://sodipodi.sourceforge.net/DTD/sodipodi-0.dtd"
   xmlns="http://www.w3.org/2000/svg"
   xmlns:svg="http://www.w3.org/2000/svg"
   xmlns:rdf="http://www.w3.org/1999/02/22-rdf-syntax-ns#"
   xmlns:cc="http://creativecommons.org/ns#"
   xmlns:dc="http://purl.org/dc/elements/1.1/">
  <sodipodi:namedview
     id="namedview57342"
     pagecolor="#ffffff"
     bordercolor="#000000"
     borderopacity="0.25"
     inkscape:showpageshadow="2"
     inkscape:pageopacity="0.0"
     inkscape:pagecheckerboard="0"
     inkscape:deskcolor="#d1d1d1"
     inkscape:document-units="pt"
     showgrid="false"
     inkscape:zoom="0.73164683"
     inkscape:cx="160.59661"
     inkscape:cy="161.28"
     inkscape:window-width="1223"
     inkscape:window-height="779"
     inkscape:window-x="57"
     inkscape:window-y="21"
     inkscape:window-maximized="1"
     inkscape:current-layer="figure_1" />
  <metadata
     id="metadata57265">
    <rdf:RDF>
      <cc:Work>
        <dc:type
           rdf:resource="http://purl.org/dc/dcmitype/StillImage" />
        <dc:date>2023-02-27T14:01:35.377227</dc:date>
        <dc:format>image/svg+xml</dc:format>
        <dc:creator>
          <cc:Agent>
            <dc:title>Matplotlib v3.5.0, https://matplotlib.org/</dc:title>
          </cc:Agent>
        </dc:creator>
      </cc:Work>
    </rdf:RDF>
  </metadata>
  <defs
     id="defs57269">
    <style
       type="text/css"
       id="style57267">*{stroke-linejoin: round; stroke-linecap: butt}</style>
  </defs>
  <g
     id="figure_1">
    <g
       id="axes_1">
      <g
         id="patch_3">
        <path
           d="M 87.206386 10.8  L 87.206386 52.228375  L 87.206386 52.228375  L 87.206386 74.970659  L 65.236437 74.970659  L 65.236437 217.941875  M 97.504014 10.8  L 97.504014 52.228375  L 97.504014 52.228375  L 97.504014 74.970659  L 119.473963 74.970659  L 119.473963 217.941875  "
           clip-path="url(#p89a2c5eb04)"
           style="fill: none; stroke: #1f77b4; stroke-linejoin: miter"
           id="path57277" />
      </g>
      <g
         id="PolyCollection_1">
        <path
           d="M 97.504014 10.8  L 87.206386 10.8  L 87.206386 52.228375  L 87.206386 52.228375  L 87.206386 74.970659  L 65.236437 74.970659  L 65.236437 217.941875  L 119.473963 217.941875  L 119.473963 217.941875  L 119.473963 74.970659  L 97.504014 74.970659  L 97.504014 52.228375  L 97.504014 52.228375  L 97.504014 10.8  z "
           clip-path="url(#p89a2c5eb04)"
           style="fill: #1f77b4; fill-opacity: 0.5"
           id="path57280" />
      </g>
      <g
         id="patch_4">
        <path
           d="M 187.685156 176.831196  L 187.685156 191.76222  L 184.271242 191.76222  L 184.271242 217.941875  M 187.826844 176.831196  L 187.826844 191.76222  L 191.240758 191.76222  L 191.240758 217.941875  "
           clip-path="url(#p89a2c5eb04)"
           style="fill: none; stroke: #ff7f0e; stroke-linejoin: miter"
           id="path57283" />
      </g>
      <g
         id="PolyCollection_2">
        <path
           d="M 187.826844 176.831196  L 187.685156 176.831196  L 187.685156 191.76222  L 184.271242 191.76222  L 184.271242 217.941875  L 191.240758 217.941875  L 191.240758 217.941875  L 191.240758 191.76222  L 187.826844 191.76222  L 187.826844 176.831196  z "
           clip-path="url(#p89a2c5eb04)"
           style="fill: #ff7f0e; fill-opacity: 0.5"
           id="path57286" />
      </g>
      <g
         id="patch_5">
        <path
           d="M 121.476501 176.831196  L 122.476501 176.862633  L 123.476501 176.899573  L 124.476501 176.99732  L 125.476501 177.029841  L 126.476501 177.103466  L 127.476501 177.142032  L 128.476501 177.177445  L 129.476501 177.235085  L 130.476501 177.305471  L 131.476501 177.357435  L 132.476501 177.416525  L 133.476501 177.504846  L 134.476501 177.55099  L 135.476501 177.593401  L 136.476501 177.623894  L 137.476501 177.649939  L 138.476501 177.671139  L 139.476501 177.72544  L 140.476501 177.753377  L 141.476501 177.783101  L 142.476501 177.808496  L 143.476501 177.819697  L 144.476501 177.829821  L 145.476501 177.829616  L 146.476501 177.820106  L 147.476501 177.808453  L 148.476501 177.777424  L 149.476501 177.766256  L 150.476501 177.736138  L 151.476501 177.676361  L 152.476501 177.63917  L 153.476501 177.600074  L 154.476501 177.557634  L 155.476501 177.524869  L 156.476501 177.457442  L 157.476501 177.418316  L 158.476501 177.375642  L 159.476501 177.305061  L 160.476501 177.26867  L 161.476501 177.210267  L 162.476501 177.099315  L 163.476501 177.028656  L 164.476501 176.915717  L 165.476501 176.869944  L 166.476501 176.80866  L 167.476501 176.760161  L 168.476501 176.679338  L 169.476501 176.560819  L 170.476501 176.490609  L 171.476501 176.407346  L 172.476501 176.374205  L 173.476501 176.322967  L 174.476501 176.254569  L 175.476501 176.188353  L 176.476501 176.111436  L 177.476501 176.084121  L 178.476501 176.057643  L 179.476501 176.034993  L 180.476501 176.015461  L 181.476501 175.989068  L 182.476501 175.939297  L 183.476501 175.904224  L 184.5668 175.868358  "
           clip-path="url(#p89a2c5eb04)"
           style="fill: none; stroke: #ffffff; stroke-width: 3; stroke-linecap: round"
           id="path57321" />
        <path
           d="M 121.476501 176.831196  L 122.476501 176.862633  L 123.476501 176.899573  L 124.476501 176.99732  L 125.476501 177.029841  L 126.476501 177.103466  L 127.476501 177.142032  L 128.476501 177.177445  L 129.476501 177.235085  L 130.476501 177.305471  L 131.476501 177.357435  L 132.476501 177.416525  L 133.476501 177.504846  L 134.476501 177.55099  L 135.476501 177.593401  L 136.476501 177.623894  L 137.476501 177.649939  L 138.476501 177.671139  L 139.476501 177.72544  L 140.476501 177.753377  L 141.476501 177.783101  L 142.476501 177.808496  L 143.476501 177.819697  L 144.476501 177.829821  L 145.476501 177.829616  L 146.476501 177.820106  L 147.476501 177.808453  L 148.476501 177.777424  L 149.476501 177.766256  L 150.476501 177.736138  L 151.476501 177.676361  L 152.476501 177.63917  L 153.476501 177.600074  L 154.476501 177.557634  L 155.476501 177.524869  L 156.476501 177.457442  L 157.476501 177.418316  L 158.476501 177.375642  L 159.476501 177.305061  L 160.476501 177.26867  L 161.476501 177.210267  L 162.476501 177.099315  L 163.476501 177.028656  L 164.476501 176.915717  L 165.476501 176.869944  L 166.476501 176.80866  L 167.476501 176.760161  L 168.476501 176.679338  L 169.476501 176.560819  L 170.476501 176.490609  L 171.476501 176.407346  L 172.476501 176.374205  L 173.476501 176.322967  L 174.476501 176.254569  L 175.476501 176.188353  L 176.476501 176.111436  L 177.476501 176.084121  L 178.476501 176.057643  L 179.476501 176.034993  L 180.476501 176.015461  L 181.476501 175.989068  L 182.476501 175.939297  L 183.476501 175.904224  L 184.5668 175.868358  "
           clip-path="url(#p89a2c5eb04)"
           style="fill: none; stroke: #1f77b4; stroke-linecap: round"
           id="path57323" />
        <path
           d="M 180.5668 174.831196  L 181.447168 175.306528  L 182.325075 175.786782  L 183.175789 176.321422  L 184.477963 177.00887  L 183.55061 177.034885  L 182.638936 177.447604  L 181.728671 177.863143  L 180.386175 178.469948  L 181.041074 177.831196  L 181.093038 176.831196  L 181.152128 174.831196  L 180.5668 174.831196  z "
           clip-path="url(#p89a2c5eb04)"
           style="fill: #ffffff; stroke: #ffffff; stroke-width: 3; stroke-linecap: round"
           id="path57325" />
        <path
           d="M 180.5668 174.831196  L 181.447168 175.306528  L 182.325075 175.786782  L 183.175789 176.321422  L 184.477963 177.00887  L 183.55061 177.034885  L 182.638936 177.447604  L 181.728671 177.863143  L 180.386175 178.469948  L 181.041074 177.831196  L 181.093038 176.831196  L 181.152128 174.831196  L 180.5668 174.831196  z "
           clip-path="url(#p89a2c5eb04)"
           style="fill: #ffffff; stroke: #1f77b4; stroke-linecap: round"
           id="path57327" />
      </g>
    </g>
    <defs
       id="defs57337">
      <clipPath
         id="p89a2c5eb04">
        <rect
           x="14.3"
           y="10.8"
           width="216.82"
           height="207.141875"
           id="rect57334" />
      </clipPath>
    </defs>
  </g>
</svg>
