<?xml version="1.0" encoding="UTF-8" standalone="no"?>
<svg
   width="241.92pt"
   height="241.92pt"
   viewBox="0 0 241.92 241.92"
   version="1.1"
   id="svg65705"
   sodipodi:docname="moments.svg"
   inkscape:version="1.2.2 (1:1.2.2+202212051552+b0a8486541)"
   xmlns:inkscape="http://www.inkscape.org/namespaces/inkscape"
   xmlns:sodipodi="http://sodipodi.sourceforge.net/DTD/sodipodi-0.dtd"
   xmlns="http://www.w3.org/2000/svg"
   xmlns:svg="http://www.w3.org/2000/svg"
   xmlns:rdf="http://www.w3.org/1999/02/22-rdf-syntax-ns#"
   xmlns:cc="http://creativecommons.org/ns#"
   xmlns:dc="http://purl.org/dc/elements/1.1/">
  <sodipodi:namedview
     id="namedview65707"
     pagecolor="#ffffff"
     bordercolor="#000000"
     borderopacity="0.25"
     inkscape:showpageshadow="2"
     inkscape:pageopacity="0.0"
     inkscape:pagecheckerboard="0"
     inkscape:deskcolor="#d1d1d1"
     inkscape:document-units="pt"
     showgrid="false"
     inkscape:zoom="0.73164683"
     inkscape:cx="160.59661"
     inkscape:cy="161.28"
     inkscape:window-width="1223"
     inkscape:window-height="779"
     inkscape:window-x="57"
     inkscape:window-y="21"
     inkscape:window-maximized="1"
     inkscape:current-layer="figure_1" />
  <metadata
     id="metadata65630">
    <rdf:RDF>
      <cc:Work>
        <dc:type
           rdf:resource="http://purl.org/dc/dcmitype/StillImage" />
        <dc:date>2023-02-27T14:01:41.848670</dc:date>
        <dc:format>image/svg+xml</dc:format>
        <dc:creator>
          <cc:Agent>
            <dc:title>Matplotlib v3.5.0, https://matplotlib.org/</dc:title>
          </cc:Agent>
        </dc:creator>
      </cc:Work>
    </rdf:RDF>
  </metadata>
  <defs
     id="defs65634">
    <style
       type="text/css"
       id="style65632">*{stroke-linejoin: round; stroke-linecap: butt}</style>
  </defs>
  <g
     id="figure_1">
    <g
       id="axes_1">
      <g
         id="patch_3">
        <path
           d="M 87.266854 10.8  L 87.266854 52.228375  L 87.266854 52.228375  L 87.266854 85.367524  L 66.753956 85.367524  L 66.753956 217.941875  M 97.443546 10.8  L 97.443546 52.228375  L 97.443546 52.228375  L 97.443546 85.367524  L 117.956444 85.367524  L 117.956444 217.941875  "
           clip-path="url(#p00caa2cdc0)"
           style="fill: none; stroke: #1f77b4; stroke-linejoin: miter"
           id="path65642" />
      </g>
      <g
         id="PolyCollection_1">
        <path
           d="M 97.443546 10.8  L 87.266854 10.8  L 87.266854 52.228375  L 87.266854 52.228375  L 87.266854 85.367524  L 66.753956 85.367524  L 66.753956 217.941875  L 117.956444 217.941875  L 117.956444 217.941875  L 117.956444 85.367524  L 97.443546 85.367524  L 97.443546 52.228375  L 97.443546 52.228375  L 97.443546 10.8  z "
           clip-path="url(#p00caa2cdc0)"
           style="fill: #1f77b4; fill-opacity: 0.5"
           id="path65645" />
      </g>
      <g
         id="patch_4">
        <path
           d="M 187.703966 179.441658  L 187.703966 191.901182  L 184.294154 191.901182  L 184.294154 217.941875  M 187.808034 179.441658  L 187.808034 191.901182  L 191.217846 191.901182  L 191.217846 217.941875  "
           clip-path="url(#p00caa2cdc0)"
           style="fill: none; stroke: #ff7f0e; stroke-linejoin: miter"
           id="path65648" />
      </g>
      <g
         id="PolyCollection_2">
        <path
           d="M 187.808034 179.441658  L 187.703966 179.441658  L 187.703966 191.901182  L 184.294154 191.901182  L 184.294154 217.941875  L 191.217846 217.941875  L 191.217846 217.941875  L 191.217846 191.901182  L 187.808034 191.901182  L 187.808034 179.441658  z "
           clip-path="url(#p00caa2cdc0)"
           style="fill: #ff7f0e; fill-opacity: 0.5"
           id="path65651" />
      </g>
      <g
         id="patch_5">
        <path
           d="M 119.953001 179.441658  L 120.953001 179.473094  L 121.953001 179.510034  L 122.953001 179.607781  L 123.953001 179.640302  L 124.953001 179.713927  L 125.953001 179.752493  L 126.953001 179.787906  L 127.953001 179.845546  L 128.953001 179.915932  L 129.953001 179.967896  L 130.953001 180.026986  L 131.953001 180.115307  L 132.953001 180.161451  L 133.953001 180.203862  L 134.953001 180.234355  L 135.953001 180.2604  L 136.953001 180.2816  L 137.953001 180.335901  L 138.953001 180.363839  L 139.953001 180.393563  L 140.953001 180.418957  L 141.953001 180.430158  L 142.953001 180.440282  L 143.953001 180.440077  L 144.953001 180.430567  L 145.953001 180.418914  L 146.953001 180.387885  L 147.953001 180.376717  L 148.953001 180.346599  L 149.953001 180.286822  L 150.953001 180.249631  L 151.953001 180.210535  L 152.953001 180.168095  L 153.953001 180.13533  L 154.953001 180.067903  L 155.953001 180.028777  L 156.953001 179.986103  L 157.953001 179.915522  L 158.953001 179.879131  L 159.953001 179.820728  L 160.953001 179.709776  L 161.953001 179.639117  L 162.953001 179.526178  L 163.953001 179.480405  L 164.953001 179.419121  L 165.953001 179.370622  L 166.953001 179.289799  L 167.953001 179.171281  L 168.953001 179.10107  L 169.953001 179.017807  L 170.953001 178.984666  L 171.953001 178.933428  L 172.953001 178.86503  L 173.953001 178.798815  L 174.953001 178.721897  L 175.953001 178.694582  L 176.953001 178.668105  L 177.953001 178.645454  L 178.953001 178.625923  L 179.953001 178.599529  L 180.953001 178.549758  L 181.953001 178.514685  L 182.953001 178.478819  L 184.588635 178.463452  "
           clip-path="url(#p00caa2cdc0)"
           style="fill: none; stroke: #ffffff; stroke-width: 3; stroke-linecap: round"
           id="path65686" />
        <path
           d="M 119.953001 179.441658  L 120.953001 179.473094  L 121.953001 179.510034  L 122.953001 179.607781  L 123.953001 179.640302  L 124.953001 179.713927  L 125.953001 179.752493  L 126.953001 179.787906  L 127.953001 179.845546  L 128.953001 179.915932  L 129.953001 179.967896  L 130.953001 180.026986  L 131.953001 180.115307  L 132.953001 180.161451  L 133.953001 180.203862  L 134.953001 180.234355  L 135.953001 180.2604  L 136.953001 180.2816  L 137.953001 180.335901  L 138.953001 180.363839  L 139.953001 180.393563  L 140.953001 180.418957  L 141.953001 180.430158  L 142.953001 180.440282  L 143.953001 180.440077  L 144.953001 180.430567  L 145.953001 180.418914  L 146.953001 180.387885  L 147.953001 180.376717  L 148.953001 180.346599  L 149.953001 180.286822  L 150.953001 180.249631  L 151.953001 180.210535  L 152.953001 180.168095  L 153.953001 180.13533  L 154.953001 180.067903  L 155.953001 180.028777  L 156.953001 179.986103  L 157.953001 179.915522  L 158.953001 179.879131  L 159.953001 179.820728  L 160.953001 179.709776  L 161.953001 179.639117  L 162.953001 179.526178  L 163.953001 179.480405  L 164.953001 179.419121  L 165.953001 179.370622  L 166.953001 179.289799  L 167.953001 179.171281  L 168.953001 179.10107  L 169.953001 179.017807  L 170.953001 178.984666  L 171.953001 178.933428  L 172.953001 178.86503  L 173.953001 178.798815  L 174.953001 178.721897  L 175.953001 178.694582  L 176.953001 178.668105  L 177.953001 178.645454  L 178.953001 178.625923  L 179.953001 178.599529  L 180.953001 178.549758  L 181.953001 178.514685  L 182.953001 178.478819  L 184.588635 178.463452  "
           clip-path="url(#p00caa2cdc0)"
           style="fill: none; stroke: #1f77b4; stroke-linecap: round"
           id="path65688" />
        <path
           d="M 180.588635 177.441658  L 181.469003 177.916989  L 182.34691 178.397243  L 183.197624 178.931884  L 184.499798 179.619331  L 183.572445 179.645346  L 182.660771 180.058065  L 181.750506 180.473604  L 180.408011 181.080409  L 181.062909 180.441658  L 181.114874 179.441658  L 181.173963 177.441658  L 180.588635 177.441658  z "
           clip-path="url(#p00caa2cdc0)"
           style="fill: #ffffff; stroke: #ffffff; stroke-width: 3; stroke-linecap: round"
           id="path65690" />
        <path
           d="M 180.588635 177.441658  L 181.469003 177.916989  L 182.34691 178.397243  L 183.197624 178.931884  L 184.499798 179.619331  L 183.572445 179.645346  L 182.660771 180.058065  L 181.750506 180.473604  L 180.408011 181.080409  L 181.062909 180.441658  L 181.114874 179.441658  L 181.173963 177.441658  L 180.588635 177.441658  z "
           clip-path="url(#p00caa2cdc0)"
           style="fill: #ffffff; stroke: #1f77b4; stroke-linecap: round"
           id="path65692" />
      </g>
    </g>
    <defs
       id="defs65702">
      <clipPath
         id="p00caa2cdc0">
        <rect
           x="14.3"
           y="10.8"
           width="216.82"
           height="207.141875"
           id="rect65699" />
      </clipPath>
    </defs>
  </g>
</svg>
