<?xml version="1.0" encoding="UTF-8" standalone="no"?>
<svg
   width="241.92pt"
   height="241.92pt"
   viewBox="0 0 241.92 241.92"
   version="1.1"
   id="svg75506"
   sodipodi:docname="momentsLD.svg"
   inkscape:version="1.2.2 (1:1.2.2+202212051552+b0a8486541)"
   xmlns:inkscape="http://www.inkscape.org/namespaces/inkscape"
   xmlns:sodipodi="http://sodipodi.sourceforge.net/DTD/sodipodi-0.dtd"
   xmlns="http://www.w3.org/2000/svg"
   xmlns:svg="http://www.w3.org/2000/svg"
   xmlns:rdf="http://www.w3.org/1999/02/22-rdf-syntax-ns#"
   xmlns:cc="http://creativecommons.org/ns#"
   xmlns:dc="http://purl.org/dc/elements/1.1/">
  <sodipodi:namedview
     id="namedview75508"
     pagecolor="#ffffff"
     bordercolor="#000000"
     borderopacity="0.25"
     inkscape:showpageshadow="2"
     inkscape:pageopacity="0.0"
     inkscape:pagecheckerboard="0"
     inkscape:deskcolor="#d1d1d1"
     inkscape:document-units="pt"
     showgrid="false"
     inkscape:zoom="0.73164683"
     inkscape:cx="160.59661"
     inkscape:cy="161.28"
     inkscape:window-width="1223"
     inkscape:window-height="779"
     inkscape:window-x="57"
     inkscape:window-y="21"
     inkscape:window-maximized="1"
     inkscape:current-layer="figure_1" />
  <metadata
     id="metadata75431">
    <rdf:RDF>
      <cc:Work>
        <dc:type
           rdf:resource="http://purl.org/dc/dcmitype/StillImage" />
        <dc:date>2023-02-27T14:02:06.173736</dc:date>
        <dc:format>image/svg+xml</dc:format>
        <dc:creator>
          <cc:Agent>
            <dc:title>Matplotlib v3.5.0, https://matplotlib.org/</dc:title>
          </cc:Agent>
        </dc:creator>
      </cc:Work>
    </rdf:RDF>
  </metadata>
  <defs
     id="defs75435">
    <style
       type="text/css"
       id="style75433">*{stroke-linejoin: round; stroke-linecap: butt}</style>
  </defs>
  <g
     id="figure_1">
    <g
       id="axes_1">
      <g
         id="patch_3">
        <path
           d="M 88.352031 10.8  L 88.352031 52.228375  L 66.7093 52.228375  L 66.7093 217.941875  M 96.358369 10.8  L 96.358369 52.228375  L 118.0011 52.228375  L 118.0011 217.941875  "
           clip-path="url(#pb527611043)"
           style="fill: none; stroke: #1f77b4; stroke-linejoin: miter"
           id="path75443" />
      </g>
      <g
         id="PolyCollection_1">
        <path
           d="M 96.358369 10.8  L 88.352031 10.8  L 88.352031 52.228375  L 66.7093 52.228375  L 66.7093 217.941875  L 118.0011 217.941875  L 118.0011 217.941875  L 118.0011 52.228375  L 96.358369 52.228375  L 96.358369 10.8  z "
           clip-path="url(#pb527611043)"
           style="fill: #1f77b4; fill-opacity: 0.5"
           id="path75446" />
      </g>
      <g
         id="patch_4">
        <path
           d="M 187.749517 182.471055  L 187.749517 190.166646  L 184.206111 190.166646  L 184.206111 217.941875  M 187.762483 182.471055  L 187.762483 190.166646  L 191.305889 190.166646  L 191.305889 217.941875  "
           clip-path="url(#pb527611043)"
           style="fill: none; stroke: #ff7f0e; stroke-linejoin: miter"
           id="path75449" />
      </g>
      <g
         id="PolyCollection_2">
        <path
           d="M 187.762483 182.471055  L 187.749517 182.471055  L 187.749517 190.166646  L 184.206111 190.166646  L 184.206111 217.941875  L 191.305889 217.941875  L 191.305889 217.941875  L 191.305889 190.166646  L 187.762483 190.166646  L 187.762483 182.471055  z "
           clip-path="url(#pb527611043)"
           style="fill: #ff7f0e; fill-opacity: 0.5"
           id="path75452" />
      </g>
      <g
         id="patch_5">
        <path
           d="M 119.997683 182.471055  L 120.997683 182.502492  L 121.997683 182.539432  L 122.997683 182.637179  L 123.997683 182.6697  L 124.997683 182.743325  L 125.997683 182.78189  L 126.997683 182.817304  L 127.997683 182.874944  L 128.997683 182.94533  L 129.997683 182.997294  L 130.997683 183.056384  L 131.997683 183.144705  L 132.997683 183.190849  L 133.997683 183.23326  L 134.997683 183.263753  L 135.997683 183.289798  L 136.997683 183.310998  L 137.997683 183.365299  L 138.997683 183.393236  L 139.997683 183.42296  L 140.997683 183.448355  L 141.997683 183.459556  L 142.997683 183.469679  L 143.997683 183.469475  L 144.997683 183.459965  L 145.997683 183.448312  L 146.997683 183.417282  L 147.997683 183.406115  L 148.997683 183.375997  L 149.997683 183.31622  L 150.997683 183.279029  L 151.997683 183.239932  L 152.997683 183.197493  L 153.997683 183.164728  L 154.997683 183.097301  L 155.997683 183.058175  L 156.997683 183.015501  L 157.997683 182.94492  L 158.997683 182.908529  L 159.997683 182.850126  L 160.997683 182.739174  L 161.997683 182.668515  L 162.997683 182.555575  L 163.997683 182.509803  L 164.997683 182.448519  L 165.997683 182.40002  L 166.997683 182.319197  L 167.997683 182.200678  L 168.997683 182.130468  L 169.997683 182.047205  L 170.997683 182.014063  L 171.997683 181.962826  L 172.997683 181.894428  L 173.997683 181.828212  L 174.997683 181.751295  L 175.997683 181.72398  L 176.997683 181.697502  L 177.997683 181.674852  L 178.997683 181.65532  L 179.997683 181.628926  L 180.997683 181.579156  L 181.997683 181.544082  L 182.997683 181.508217  L 184.634161 181.492849  "
           clip-path="url(#pb527611043)"
           style="fill: none; stroke: #ffffff; stroke-width: 3; stroke-linecap: round"
           id="path75487" />
        <path
           d="M 119.997683 182.471055  L 120.997683 182.502492  L 121.997683 182.539432  L 122.997683 182.637179  L 123.997683 182.6697  L 124.997683 182.743325  L 125.997683 182.78189  L 126.997683 182.817304  L 127.997683 182.874944  L 128.997683 182.94533  L 129.997683 182.997294  L 130.997683 183.056384  L 131.997683 183.144705  L 132.997683 183.190849  L 133.997683 183.23326  L 134.997683 183.263753  L 135.997683 183.289798  L 136.997683 183.310998  L 137.997683 183.365299  L 138.997683 183.393236  L 139.997683 183.42296  L 140.997683 183.448355  L 141.997683 183.459556  L 142.997683 183.469679  L 143.997683 183.469475  L 144.997683 183.459965  L 145.997683 183.448312  L 146.997683 183.417282  L 147.997683 183.406115  L 148.997683 183.375997  L 149.997683 183.31622  L 150.997683 183.279029  L 151.997683 183.239932  L 152.997683 183.197493  L 153.997683 183.164728  L 154.997683 183.097301  L 155.997683 183.058175  L 156.997683 183.015501  L 157.997683 182.94492  L 158.997683 182.908529  L 159.997683 182.850126  L 160.997683 182.739174  L 161.997683 182.668515  L 162.997683 182.555575  L 163.997683 182.509803  L 164.997683 182.448519  L 165.997683 182.40002  L 166.997683 182.319197  L 167.997683 182.200678  L 168.997683 182.130468  L 169.997683 182.047205  L 170.997683 182.014063  L 171.997683 181.962826  L 172.997683 181.894428  L 173.997683 181.828212  L 174.997683 181.751295  L 175.997683 181.72398  L 176.997683 181.697502  L 177.997683 181.674852  L 178.997683 181.65532  L 179.997683 181.628926  L 180.997683 181.579156  L 181.997683 181.544082  L 182.997683 181.508217  L 184.634161 181.492849  "
           clip-path="url(#pb527611043)"
           style="fill: none; stroke: #1f77b4; stroke-linecap: round"
           id="path75489" />
        <path
           d="M 180.634161 180.471055  L 181.514529 180.946386  L 182.392436 181.42664  L 183.24315 181.961281  L 184.545324 182.648729  L 183.617971 182.674744  L 182.706297 183.087463  L 181.796032 183.503002  L 180.453536 184.109807  L 181.108435 183.471055  L 181.160399 182.471055  L 181.219489 180.471055  L 180.634161 180.471055  z "
           clip-path="url(#pb527611043)"
           style="fill: #ffffff; stroke: #ffffff; stroke-width: 3; stroke-linecap: round"
           id="path75491" />
        <path
           d="M 180.634161 180.471055  L 181.514529 180.946386  L 182.392436 181.42664  L 183.24315 181.961281  L 184.545324 182.648729  L 183.617971 182.674744  L 182.706297 183.087463  L 181.796032 183.503002  L 180.453536 184.109807  L 181.108435 183.471055  L 181.160399 182.471055  L 181.219489 180.471055  L 180.634161 180.471055  z "
           clip-path="url(#pb527611043)"
           style="fill: #ffffff; stroke: #1f77b4; stroke-linecap: round"
           id="path75493" />
      </g>
    </g>
    <defs
       id="defs75503">
      <clipPath
         id="pb527611043">
        <rect
           x="14.3"
           y="10.8"
           width="216.82"
           height="207.141875"
           id="rect75500" />
      </clipPath>
    </defs>
  </g>
</svg>
