<?xml version="1.0" encoding="UTF-8" standalone="no"?>
<svg
   width="241.92pt"
   height="241.92pt"
   viewBox="0 0 241.92 241.92"
   version="1.1"
   id="svg87076"
   sodipodi:docname="momi2.svg"
   inkscape:version="1.2.2 (1:1.2.2+202212051552+b0a8486541)"
   xmlns:inkscape="http://www.inkscape.org/namespaces/inkscape"
   xmlns:sodipodi="http://sodipodi.sourceforge.net/DTD/sodipodi-0.dtd"
   xmlns="http://www.w3.org/2000/svg"
   xmlns:svg="http://www.w3.org/2000/svg"
   xmlns:rdf="http://www.w3.org/1999/02/22-rdf-syntax-ns#"
   xmlns:cc="http://creativecommons.org/ns#"
   xmlns:dc="http://purl.org/dc/elements/1.1/">
  <sodipodi:namedview
     id="namedview87078"
     pagecolor="#ffffff"
     bordercolor="#000000"
     borderopacity="0.25"
     inkscape:showpageshadow="2"
     inkscape:pageopacity="0.0"
     inkscape:pagecheckerboard="0"
     inkscape:deskcolor="#d1d1d1"
     inkscape:document-units="pt"
     showgrid="false"
     inkscape:zoom="0.73164683"
     inkscape:cx="160.59661"
     inkscape:cy="161.28"
     inkscape:window-width="1223"
     inkscape:window-height="779"
     inkscape:window-x="57"
     inkscape:window-y="21"
     inkscape:window-maximized="1"
     inkscape:current-layer="figure_1" />
  <metadata
     id="metadata87001">
    <rdf:RDF>
      <cc:Work>
        <dc:type
           rdf:resource="http://purl.org/dc/dcmitype/StillImage" />
        <dc:date>2023-02-27T14:01:46.053782</dc:date>
        <dc:format>image/svg+xml</dc:format>
        <dc:creator>
          <cc:Agent>
            <dc:title>Matplotlib v3.5.0, https://matplotlib.org/</dc:title>
          </cc:Agent>
        </dc:creator>
      </cc:Work>
    </rdf:RDF>
  </metadata>
  <defs
     id="defs87005">
    <style
       type="text/css"
       id="style87003">*{stroke-linejoin: round; stroke-linecap: butt}</style>
  </defs>
  <g
     id="figure_1">
    <g
       id="axes_1">
      <g
         id="patch_3">
        <path
           d="M 86.801363 10.8  L 86.801363 52.228375  L 86.801363 52.228375  L 86.801363 76.496644  L 64.406029 76.496644  L 64.406029 217.941875  M 97.909037 10.8  L 97.909037 52.228375  L 97.909037 52.228375  L 97.909037 76.496644  L 120.304371 76.496644  L 120.304371 217.941875  "
           clip-path="url(#p743594d10e)"
           style="fill: none; stroke: #1f77b4; stroke-linejoin: miter"
           id="path87013" />
      </g>
      <g
         id="PolyCollection_1">
        <path
           d="M 97.909037 10.8  L 86.801363 10.8  L 86.801363 52.228375  L 86.801363 52.228375  L 86.801363 76.496644  L 64.406029 76.496644  L 64.406029 217.941875  L 120.304371 217.941875  L 120.304371 217.941875  L 120.304371 76.496644  L 97.909037 76.496644  L 97.909037 52.228375  L 97.909037 52.228375  L 97.909037 10.8  z "
           clip-path="url(#p743594d10e)"
           style="fill: #1f77b4; fill-opacity: 0.5"
           id="path87016" />
      </g>
      <g
         id="patch_4">
        <path
           d="M 187.754586 180.252707  L 187.754586 180.537971  L 184.506792 180.537971  L 184.506792 217.941875  M 187.757414 180.252707  L 187.757414 180.537971  L 191.005208 180.537971  L 191.005208 217.941875  "
           clip-path="url(#p743594d10e)"
           style="fill: none; stroke: #ff7f0e; stroke-linejoin: miter"
           id="path87019" />
      </g>
      <g
         id="PolyCollection_2">
        <path
           d="M 187.757414 180.252707  L 187.754586 180.252707  L 187.754586 180.537971  L 184.506792 180.537971  L 184.506792 217.941875  L 191.005208 217.941875  L 191.005208 217.941875  L 191.005208 180.537971  L 187.757414 180.537971  L 187.757414 180.252707  z "
           clip-path="url(#p743594d10e)"
           style="fill: #ff7f0e; fill-opacity: 0.5"
           id="path87022" />
      </g>
      <g
         id="patch_5">
        <path
           d="M 122.301036 180.252707  L 123.301036 180.284143  L 124.301036 180.321084  L 125.301036 180.41883  L 126.301036 180.451352  L 127.301036 180.524976  L 128.301036 180.563542  L 129.301036 180.598955  L 130.301036 180.656595  L 131.301036 180.726981  L 132.301036 180.778945  L 133.301036 180.838035  L 134.301036 180.926356  L 135.301036 180.9725  L 136.301036 181.014911  L 137.301036 181.045404  L 138.301036 181.071449  L 139.301036 181.092649  L 140.301036 181.14695  L 141.301036 181.174888  L 142.301036 181.204612  L 143.301036 181.230007  L 144.301036 181.241207  L 145.301036 181.251331  L 146.301036 181.251127  L 147.301036 181.241617  L 148.301036 181.229963  L 149.301036 181.198934  L 150.301036 181.187766  L 151.301036 181.157648  L 152.301036 181.097871  L 153.301036 181.06068  L 154.301036 181.021584  L 155.301036 180.979144  L 156.301036 180.946379  L 157.301036 180.878953  L 158.301036 180.839827  L 159.301036 180.797152  L 160.301036 180.726572  L 161.301036 180.690181  L 162.301036 180.631778  L 163.301036 180.520825  L 164.301036 180.450167  L 165.301036 180.337227  L 166.301036 180.291454  L 167.301036 180.230171  L 168.301036 180.181671  L 169.301036 180.100849  L 170.301036 179.98233  L 171.301036 179.912119  L 172.301036 179.828857  L 173.301036 179.795715  L 174.301036 179.744478  L 175.301036 179.676079  L 176.301036 179.609864  L 177.301036 179.532947  L 178.301036 179.505631  L 179.301036 179.479154  L 180.301036 179.456503  L 181.301036 179.436972  L 182.301036 179.410578  L 183.301036 179.360807  L 184.635073 179.325734  "
           clip-path="url(#p743594d10e)"
           style="fill: none; stroke: #ffffff; stroke-width: 3; stroke-linecap: round"
           id="path87057" />
        <path
           d="M 122.301036 180.252707  L 123.301036 180.284143  L 124.301036 180.321084  L 125.301036 180.41883  L 126.301036 180.451352  L 127.301036 180.524976  L 128.301036 180.563542  L 129.301036 180.598955  L 130.301036 180.656595  L 131.301036 180.726981  L 132.301036 180.778945  L 133.301036 180.838035  L 134.301036 180.926356  L 135.301036 180.9725  L 136.301036 181.014911  L 137.301036 181.045404  L 138.301036 181.071449  L 139.301036 181.092649  L 140.301036 181.14695  L 141.301036 181.174888  L 142.301036 181.204612  L 143.301036 181.230007  L 144.301036 181.241207  L 145.301036 181.251331  L 146.301036 181.251127  L 147.301036 181.241617  L 148.301036 181.229963  L 149.301036 181.198934  L 150.301036 181.187766  L 151.301036 181.157648  L 152.301036 181.097871  L 153.301036 181.06068  L 154.301036 181.021584  L 155.301036 180.979144  L 156.301036 180.946379  L 157.301036 180.878953  L 158.301036 180.839827  L 159.301036 180.797152  L 160.301036 180.726572  L 161.301036 180.690181  L 162.301036 180.631778  L 163.301036 180.520825  L 164.301036 180.450167  L 165.301036 180.337227  L 166.301036 180.291454  L 167.301036 180.230171  L 168.301036 180.181671  L 169.301036 180.100849  L 170.301036 179.98233  L 171.301036 179.912119  L 172.301036 179.828857  L 173.301036 179.795715  L 174.301036 179.744478  L 175.301036 179.676079  L 176.301036 179.609864  L 177.301036 179.532947  L 178.301036 179.505631  L 179.301036 179.479154  L 180.301036 179.456503  L 181.301036 179.436972  L 182.301036 179.410578  L 183.301036 179.360807  L 184.635073 179.325734  "
           clip-path="url(#p743594d10e)"
           style="fill: none; stroke: #1f77b4; stroke-linecap: round"
           id="path87059" />
        <path
           d="M 180.635073 178.252707  L 181.515442 178.728038  L 182.393349 179.208292  L 183.244062 179.742933  L 184.546237 180.43038  L 183.618884 180.456395  L 182.707209 180.869114  L 181.796945 181.284654  L 180.454449 181.891458  L 181.109348 181.252707  L 181.161312 180.252707  L 181.220402 178.252707  L 180.635073 178.252707  z "
           clip-path="url(#p743594d10e)"
           style="fill: #ffffff; stroke: #ffffff; stroke-width: 3; stroke-linecap: round"
           id="path87061" />
        <path
           d="M 180.635073 178.252707  L 181.515442 178.728038  L 182.393349 179.208292  L 183.244062 179.742933  L 184.546237 180.43038  L 183.618884 180.456395  L 182.707209 180.869114  L 181.796945 181.284654  L 180.454449 181.891458  L 181.109348 181.252707  L 181.161312 180.252707  L 181.220402 178.252707  L 180.635073 178.252707  z "
           clip-path="url(#p743594d10e)"
           style="fill: #ffffff; stroke: #1f77b4; stroke-linecap: round"
           id="path87063" />
      </g>
    </g>
    <defs
       id="defs87073">
      <clipPath
         id="p743594d10e">
        <rect
           x="14.3"
           y="10.8"
           width="216.82"
           height="207.141875"
           id="rect87070" />
      </clipPath>
    </defs>
  </g>
</svg>
