<?xml version="1.0" encoding="UTF-8" standalone="no"?>
<svg
   xmlns:dc="http://purl.org/dc/elements/1.1/"
   xmlns:cc="http://creativecommons.org/ns#"
   xmlns:rdf="http://www.w3.org/1999/02/22-rdf-syntax-ns#"
   xmlns:svg="http://www.w3.org/2000/svg"
   xmlns="http://www.w3.org/2000/svg"
   xmlns:xlink="http://www.w3.org/1999/xlink"
   xmlns:sodipodi="http://sodipodi.sourceforge.net/DTD/sodipodi-0.dtd"
   xmlns:inkscape="http://www.inkscape.org/namespaces/inkscape"
   height="466.933125pt"
   version="1.1"
   viewBox="0 0 975.479812 466.933125"
   width="975.479812pt"
   id="svg867"
   sodipodi:docname="4_DivNoMig_9_Sim_comp_auto_logei.svg"
   inkscape:version="1.0.2 (1.0.2+r75+1)">
  <sodipodi:namedview
     pagecolor="#ffffff"
     bordercolor="#666666"
     borderopacity="1"
     objecttolerance="10"
     gridtolerance="10"
     guidetolerance="10"
     inkscape:pageopacity="0"
     inkscape:pageshadow="2"
     inkscape:window-width="1856"
     inkscape:window-height="1050"
     id="namedview869"
     showgrid="false"
     inkscape:zoom="0.82072776"
     inkscape:cx="604.41836"
     inkscape:cy="229.61015"
     inkscape:window-x="64"
     inkscape:window-y="30"
     inkscape:window-maximized="1"
     inkscape:current-layer="svg867" />
  <metadata
     id="metadata2">
    <rdf:RDF>
      <cc:Work>
        <dc:type
           rdf:resource="http://purl.org/dc/dcmitype/StillImage" />
        <dc:date>2021-12-06T18:07:59.425561</dc:date>
        <dc:format>image/svg+xml</dc:format>
        <dc:creator>
          <cc:Agent>
            <dc:title>Matplotlib v3.3.4, https://matplotlib.org/</dc:title>
          </cc:Agent>
        </dc:creator>
        <dc:title></dc:title>
      </cc:Work>
    </rdf:RDF>
  </metadata>
  <defs
     id="defs6">
    <style
       type="text/css"
       id="style4">*{stroke-linecap:butt;stroke-linejoin:round;}</style>
  </defs>
  <g
     id="patch_1">
    <path
       d="M 0,466.93313 H 975.47981 V 0 H 0 Z"
       style="fill:none"
       id="path8" />
  </g>
  <g
     id="PolyCollection_6">
    <path
       clip-path="url(#pac6a362fb1)"
       d="m 148.88606,1156.8998 v 1000.4657 l 2.79,-402.6811 2.79,-461.3349 2.79,-273.5517 2.79,-147.60154 2.79,-141.45329 2.79,-89.63351 2.79,-25.33723 2.79,-16.66284 2.79,-7.4759 h 2.79 l 2.79,-25.4633 2.79,-14.33409 h 2.79 2.79 l 2.79,-21.22995 2.79,-7.27895 2.79,-4.37373 2.79,-28.93287 2.79,-13.1416 2.79,-24.03146 2.79,-19.31103 2.79,-21.12603 2.79,-17.66333 2.79,-10.56326 2.79,-4.56033 2.79,-5.52741 2.79,-1.64285 2.79,-7.95186 2.79,-15.22759 2.79,-10.9787 h 2.79 l 2.79,-0.52235 2.79,-9.11303 2.79,-8.41997 h 2.79 l 2.79,-3.99114 2.79,-2.94482 2.79,-14.17914 2.79,-14.04279 2.79,-17.41137 2.79,-16.35703 2.79,-1.21063 2.79,-1.97899 2.79,-25.42113 2.79,-10.27596 2.79,-5.33244 2.79,-14.90977 2.79,-8.8927 h 2.79 2.79 l 2.79,-1.65358 2.79,-0.0526 2.79,-3.72689 2.79,-13.13628 2.79,-0.39434 2.79,-1.57152 2.79,-0.74609 2.79,-0.43177 2.79,-1.14163 2.79,-0.58367 2.79,-0.65031 h 2.79 l 2.79,-0.51628 2.79,-1.16467 2.79,-5.14264 h 2.79 2.79 l 2.79,-0.26442 2.79,-0.80225 h 2.79 2.79 l 2.79,-0.46413 2.79,-0.53519 2.79,-1.39628 2.79,-0.9778 2.79,-0.089 2.79,-1.22341 2.79,-0.15542 2.79,-0.23781 h 2.79 l 2.79,-0.0198 2.79,-0.56097 2.79,-0.48178 2.79,-1.1437 2.79,-3.39706 2.79,-0.12857 2.79,-1.67909 2.79,-0.13384 2.79,-0.3884 2.79,-2.87413 2.79,-0.40479 2.79,-0.78418 h 2.79 l 2.79,-0.26782 2.79,-1.04331 2.79,-0.61315 2.79,-0.29358 2.79,-0.26539 2.79,-0.45382 h 2.79 l 2.79,-0.39502 h 2.79 2.79 2.79 l 2.79,-0.74538 2.79,-2.12323 2.79,-0.25939 2.79,-0.70034 2.79,-0.45911 2.79,-0.18211 2.79,-0.2827 2.79,-1.14384 2.79,-1.442 2.79,-0.29392 2.79,-1.43114 2.79,-0.44166 2.79,-0.38923 2.79,-0.74904 2.79,-0.44829 2.79,-0.26341 2.79,-0.13027 2.79,-0.92988 2.79,-0.25723 h 2.79 l 2.79,-0.0257 2.79,-0.57021 h 2.79 l 2.79,-0.70955 h 2.79 l 2.79,-0.21906 2.79,-0.36651 2.79,-0.33492 2.79,-0.19867 h 2.79 l 2.79,-0.0414 2.79,-0.0885 h 2.79 2.79 l 2.79,-0.7037 2.79,-0.62479 2.79,-1.32569 2.79,-0.30896 h 2.79 l 2.79,-0.0489 2.79,-0.43256 2.79,-0.0475 h 2.79 l 2.79,-0.10915 h 2.79 l 2.79,-0.17288 h 2.79 l 2.79,-0.13905 2.79,-0.28679 2.79,-0.0729 2.79,-0.18946 h 2.79 2.79 l 2.79,-0.095 2.79,-0.009 h 2.79 l 2.79,-0.18025 2.79,-0.1247 2.79,-0.0933 2.79,-0.0578 h 2.79 2.79 l 2.79,-0.0962 h 2.79 2.79 2.79 2.79 2.79 2.79 2.79 l 2.79,-0.0296 2.79,-0.046 2.79,-0.0165 2.79,-0.0738 2.79,-1.3e-4 2.79,-0.003 2.79,-0.0138 h 2.79 l 2.79,-4.55569 h 2.79 2.79 2.79 2.79 l 2.79,-0.0123 h 2.79 2.79 l 2.79,-1.16978 2.79,-0.87908 h 2.79 2.79 l 2.79,-0.0702 h 2.79 l 2.79,-0.0164 h 2.79 l 2.79,-0.0275 v -59.09678 0 l -2.79,0.09216 h -2.79 -2.79 -2.79 -2.79 -2.79 -2.79 -2.79 -2.79 -2.79 -2.79 -2.79 -2.79 l -2.79,0.04247 h -2.79 -2.79 l -2.79,0.22602 -2.79,1.163432 h -2.79 -2.79 -2.79 -2.79 -2.79 l -2.79,0.09535 h -2.79 -2.79 -2.79 -2.79 -2.79 -2.79 -2.79 -2.79 -2.79 -2.79 -2.79 -2.79 -2.79 -2.79 -2.79 -2.79 -2.79 -2.79 l -2.79,0.304752 h -2.79 l -2.79,0.247156 h -2.79 -2.79 l -2.79,0.181486 h -2.79 -2.79 -2.79 -2.79 -2.79 -2.79 -2.79 -2.79 -2.79 -2.79 -2.79 -2.79 l -2.79,1.063156 h -2.79 l -2.79,0.691581 h -2.79 -2.79 -2.79 -2.79 -2.79 -2.79 -2.79 -2.79 l -2.79,1.694621 h -2.79 l -2.79,0.883549 h -2.79 -2.79 -2.79 -2.79 -2.79 -2.79 -2.79 -2.79 l -2.79,0.08721 h -2.79 -2.79 -2.79 -2.79 -2.79 l -2.79,0.118088 h -2.79 -2.79 l -2.79,0.0613 h -2.79 -2.79 -2.79 l -2.79,0.421231 h -2.79 -2.79 -2.79 l -2.79,0.08575 h -2.79 -2.79 l -2.79,0.498648 h -2.79 -2.79 l -2.79,1.619924 -2.79,0.0799 -2.79,0.79201 h -2.79 -2.79 l -2.79,0.754305 -2.79,0.32309 h -2.79 l -2.79,1.030979 -2.79,1.064088 h -2.79 -2.79 l -2.79,3.072167 h -2.79 l -2.79,2.752598 -2.79,0.302601 -2.79,0.07859 h -2.79 l -2.79,1.398306 -2.79,0.901912 h -2.79 l -2.79,6.417234 h -2.79 l -2.79,0.792843 h -2.79 -2.79 -2.79 l -2.79,2.325873 h -2.79 -2.79 l -2.79,3.79279 h -2.79 l -2.79,5.909797 -2.79,0.98889 -2.79,1.423598 -2.79,0.107253 -2.79,0.311786 h -2.79 l -2.79,0.311949 -2.79,0.282725 -2.79,3.378732 -2.79,2.497397 -2.79,4.561918 -2.79,6.219955 -2.79,2.0079 -2.79,3.93351 -2.79,0.009 -2.79,2.49895 -2.79,1.84819 h -2.79 l -2.79,2.01667 -2.79,5.95004 -2.79,2.28077 -2.79,1.24209 -2.79,3.59799 -2.79,1.61709 h -2.79 l -2.79,2.51012 -2.79,4.60548 -2.79,2.29546 -2.79,17.20535 -2.79,2.65803 -2.79,1.67195 -2.79,0.63242 -2.79,0.20403 -2.79,6.39391 -2.79,5.62093 -2.79,4.83087 -2.79,23.08269 -2.79,2.10603 -2.79,27.04677 -2.79,9.53279 -2.79,12.06829 -2.79,5.34043 -2.79,2.3875 -2.79,1.7229 -2.79,11.53733 h -2.79 -2.79 -2.79 l -2.79,31.95491 -2.79,18.1263 -2.79,15.8647 -2.79,12.32157 -2.79,9.13836 -2.79,20.90126 -2.79,6.61184 h -2.79 l -2.79,23.10419 -2.79,16.91809 -2.79,39.67321 -2.79,72.7545 -2.79,17.38014 z"
       style="fill:#9467bd;fill-opacity:0.1;stroke:#9467bd;stroke-opacity:0.1"
       id="path34" />
  </g>
  <g
     id="line2d_20">
    <path
       clip-path="url(#pac6a362fb1)"
       d="m 179.01133,467.93313 0.56473,-4.20971 2.79,-51.78433 2.79,-12.44161 2.79,-2.91992 2.79,-5.86783 2.79,-0.12812 2.79,-6.35126 2.79,-9.22602 2.79,-18.7994 2.79,-2.19035 2.79,-11.1899 2.79,-6.43282 2.79,-14.05846 2.79,-4.7234 2.79,-10.32008 2.79,-3.26618 2.79,-12.40485 2.79,-13.18329 2.79,-9.77926 2.79,-7.10925 2.79,-23.88328 2.79,-35.6457 2.79,-8.86777 2.79,-5.18288 2.79,-3.11694 2.79,-3.95782 2.79,-2.35736 2.79,-0.61834 2.79,-11.34382 2.79,-6.23613 h 2.79 l 2.79,-4.65318 2.79,-3.60697 2.79,-4.38356 h 5.58 l 2.79,-1.92801 h 8.37 l 2.79,-8.82919 2.79,-7.15516 2.79,-0.68511 h 2.79 l 2.79,-6.77114 2.79,-4.09062 2.79,-3.14422 2.79,-0.18016 h 2.79 l 2.79,-1.89212 h 5.58 l 2.79,-0.83284 2.79,-3.32339 5.58,-1.23966 h 5.58 l 2.79,-0.52141 8.37,-0.0268 2.79,-2.3566 2.79,-3.26456 2.79,-1.1177 h 5.58 l 2.79,-3.944053 h 2.79 l 2.79,-1.397277 2.79,-2.986343 2.79,-3.225281 2.79,-0.26972 2.79,-0.419468 22.32,-0.01046 2.79,-2.431987 2.79,-0.04184 2.79,-0.859784 5.58,-0.04443 2.79,-0.411302 2.79,-4.592262 h 13.95 l 2.79,-0.738384 h 2.79 l 2.79,-3.057555 h 27.9 l 2.79,-0.411277 2.79,-0.673777 h 5.58 l 2.79,-1.412295 8.37,-0.04641 h 16.74 l 2.79,-0.614118 h 13.95 l 2.79,-1.945067 h 8.37 l 2.79,-2.450717 h 44.64 l 2.79,-4.655263 h 2.79 l 2.79,-0.692552 33.48,-0.05741 5.58,-0.08748 2.79,-0.47949 h 11.16 l 2.79,-0.138051 h 30.69 l 2.79,-1.813263 h 11.16 l 2.79,-0.130884 2.79,-0.479713 v 0"
       style="fill:none;stroke:#9467bd;stroke-width:4;stroke-linecap:square;stroke-opacity:0.8"
       id="path497" />
  </g>
  <g
     id="line2d_25" />
  <g
     id="line2d_27" />
  <g
     id="line2d_29" />
  <g
     id="line2d_31" />
  <g
     id="line2d_32">
    <path
       d="m 724.88606,234.89312 h 40"
       style="fill:none;stroke:#9467bd;stroke-width:4;stroke-linecap:square;stroke-opacity:0.8"
       id="path734" />
  </g>
  <g
     id="line2d_33" />
  <g
     id="text_23">
    <!-- Auto + logEI -->
    <g
       transform="matrix(0.2,0,0,-0.2,780.88606,241.89312)"
       id="g765">
      <defs
         id="defs739">
        <path
           d="M 34.1875,63.1875 20.796875,26.90625 h 26.8125 z m -5.578125,9.71875 h 11.1875 L 67.578125,0 h -10.25 L 50.6875,18.703125 H 17.828125 L 11.1875,0 H 0.78125 Z"
           id="DejaVuSans-65" />
      </defs>
      <use
         xlink:href="#DejaVuSans-65"
         id="use741"
         x="0"
         y="0"
         width="100%"
         height="100%" />
      <path
         d="M 76.908203,21.578125 V 54.6875 h 8.984375 V 21.921875 q 0,-7.765625 3.015625,-11.65625 3.03125,-3.875 9.09375,-3.875 7.265627,0 11.484377,4.640625 4.23437,4.640625 4.23437,12.65625 v 31 h 8.98438 V 0 H 113.7207 V 8.40625 Q 110.45508,3.421875 106.12695,1 q -4.3125,-2.421875 -10.031247,-2.421875 -9.421875,0 -14.3125,5.859375 -4.875,5.859375 -4.875,17.140625 z M 99.517578,56 Z"
         id="use743" />
      <path
         d="M 150.09961,70.21875 V 54.6875 h 18.5 v -6.984375 h -18.5 v -29.6875 q 0,-6.6875 1.82812,-8.59375 1.82813,-1.90625 7.45313,-1.90625 h 9.21875 V 0 h -9.21875 q -10.40625,0 -14.35938,3.875 -3.95312,3.890625 -3.95312,14.140625 v 29.6875 h -6.59375 V 54.6875 h 6.59375 v 15.53125 z"
         id="use745" />
      <path
         d="m 201.60547,48.390625 q -7.21875,0 -11.42188,-5.640625 -4.20312,-5.640625 -4.20312,-15.453125 0,-9.8125 4.17187,-15.453125 4.1875,-5.640625 11.45313,-5.640625 7.1875,0 11.375,5.65625 4.20312,5.671875 4.20312,15.4375 0,9.71875 -4.20312,15.40625 -4.1875,5.6875 -11.375,5.6875 z m 0,7.609375 q 11.71875,0 18.40625,-7.625 6.70312,-7.609375 6.70312,-21.078125 0,-13.421875 -6.70312,-21.078125 -6.6875,-7.640625 -18.40625,-7.640625 -11.76563,0 -18.4375,7.640625 -6.65625,7.65625 -6.65625,21.078125 0,13.46875 6.65625,21.078125 6.67187,7.625 18.4375,7.625 z"
         id="use747" />
      <path
         id="use749"
         d="" />
      <path
         d="M 309.96484,62.703125 V 35.5 h 27.1875 v -8.296875 h -27.1875 V 0 h -8.20312 V 27.203125 H 274.55859 V 35.5 h 27.20313 v 27.203125 z"
         id="use751" />
      <path
         id="use753"
         d="" />
      <path
         d="m 388.96289,75.984375 h 8.98438 V 0 h -8.98438 z"
         id="use755" />
      <path
         d="m 437.93359,48.390625 q -7.21875,0 -11.42187,-5.640625 -4.20313,-5.640625 -4.20313,-15.453125 0,-9.8125 4.17188,-15.453125 4.1875,-5.640625 11.45312,-5.640625 7.1875,0 11.375,5.65625 4.20313,5.671875 4.20313,15.4375 0,9.71875 -4.20313,15.40625 -4.1875,5.6875 -11.375,5.6875 z m 0,7.609375 q 11.71875,0 18.40625,-7.625 6.70313,-7.609375 6.70313,-21.078125 0,-13.421875 -6.70313,-21.078125 -6.6875,-7.640625 -18.40625,-7.640625 -11.76562,0 -18.4375,7.640625 -6.65625,7.65625 -6.65625,21.078125 0,13.46875 6.65625,21.078125 6.67188,7.625 18.4375,7.625 z"
         id="use757" />
      <path
         d="m 513.91211,27.984375 q 0,9.765625 -4.03125,15.125 -4.01563,5.375 -11.29688,5.375 -7.21875,0 -11.25,-5.375 -4.03125,-5.359375 -4.03125,-15.125 0,-9.71875 4.03125,-15.09375 4.03125,-5.375 11.25,-5.375 7.28125,0 11.29688,5.375 4.03125,5.375 4.03125,15.09375 z M 522.89648,6.78125 q 0,-13.953125 -6.20312,-20.765625 -6.1875,-6.8125 -18.98438,-6.8125 -4.73437,0 -8.9375,0.703125 -4.20312,0.703125 -8.15625,2.171875 V -9.1875 q 3.95313,-2.140625 7.8125,-3.15625 3.85938,-1.03125 7.85938,-1.03125 8.84375,0 13.23437,4.609375 4.39063,4.609375 4.39063,13.9375 V 9.625 Q 511.13086,4.78125 506.78711,2.390625 502.44336,0 496.38086,0 q -10.04688,0 -16.20313,7.65625 -6.15625,7.671875 -6.15625,20.328125 0,12.6875 6.15625,20.34375 Q 486.33398,56 496.38086,56 q 6.0625,0 10.40625,-2.390625 4.34375,-2.390625 7.125,-7.21875 V 54.6875 h 8.98437 z"
         id="use759" />
      <path
         d="m 541.79492,72.90625 h 46.09375 v -8.3125 H 551.6543 V 43.015625 h 34.71875 V 34.71875 H 551.6543 V 8.296875 h 37.10937 V 0 h -46.96875 z"
         id="use761" />
      <path
         d="m 604.97852,72.90625 h 9.85937 V 0 h -9.85937 z"
         id="use763" />
    </g>
  </g>
  <g
     id="line2d_35" />
  <g
     id="line2d_37" />
  <defs
     id="defs865">
    <clipPath
       id="pac6a362fb1">
      <rect
         height="380.52"
         width="558"
         x="148.886062"
         y="31.43625"
         id="rect862" />
    </clipPath>
  </defs>
</svg>
