<?xml version="1.0" encoding="UTF-8" standalone="no"?>
<svg
   xmlns:dc="http://purl.org/dc/elements/1.1/"
   xmlns:cc="http://creativecommons.org/ns#"
   xmlns:rdf="http://www.w3.org/1999/02/22-rdf-syntax-ns#"
   xmlns:svg="http://www.w3.org/2000/svg"
   xmlns="http://www.w3.org/2000/svg"
   xmlns:xlink="http://www.w3.org/1999/xlink"
   xmlns:sodipodi="http://sodipodi.sourceforge.net/DTD/sodipodi-0.dtd"
   xmlns:inkscape="http://www.inkscape.org/namespaces/inkscape"
   height="466.933125pt"
   version="1.1"
   viewBox="0 0 975.479812 466.933125"
   width="975.479812pt"
   id="svg871"
   sodipodi:docname="4_DivNoMig_9_Sim_comp_auto_base_combination.svg"
   inkscape:version="1.0.2 (1.0.2+r75+1)">
  <sodipodi:namedview
     pagecolor="#ffffff"
     bordercolor="#666666"
     borderopacity="1"
     objecttolerance="10"
     gridtolerance="10"
     guidetolerance="10"
     inkscape:pageopacity="0"
     inkscape:pageshadow="2"
     inkscape:window-width="1856"
     inkscape:window-height="1050"
     id="namedview873"
     showgrid="false"
     inkscape:zoom="0.66500036"
     inkscape:cx="220.14131"
     inkscape:cy="155.20585"
     inkscape:window-x="64"
     inkscape:window-y="30"
     inkscape:window-maximized="1"
     inkscape:current-layer="svg871" />
  <metadata
     id="metadata2">
    <rdf:RDF>
      <cc:Work>
        <dc:type
           rdf:resource="http://purl.org/dc/dcmitype/StillImage" />
        <dc:date>2021-12-06T16:39:54.353316</dc:date>
        <dc:format>image/svg+xml</dc:format>
        <dc:creator>
          <cc:Agent>
            <dc:title>Matplotlib v3.3.4, https://matplotlib.org/</dc:title>
          </cc:Agent>
        </dc:creator>
        <dc:title></dc:title>
      </cc:Work>
    </rdf:RDF>
  </metadata>
  <defs
     id="defs6">
    <style
       type="text/css"
       id="style4">*{stroke-linecap:butt;stroke-linejoin:round;}</style>
  </defs>
  <g
     id="PolyCollection_8">
    <path
       clip-path="url(#p096f0d3dc1)"
       d="M 148.88606,778.19044 V 2009.315 l 2.79,-567.3966 2.79,-226.0288 2.79,-126.4704 2.79,-176.59861 2.79,-48.13736 2.79,-53.73986 2.79,-33.90454 2.79,-45.81574 2.79,-64.13079 2.79,-54.50128 2.79,-33.39244 2.79,-45.80031 2.79,-7.49529 2.79,-6.31773 2.79,-18.11848 2.79,-12.40987 2.79,-12.01797 2.79,-3.10801 2.79,-12.18173 2.79,-24.44953 2.79,-39.36475 2.79,-55.92478 2.79,-14.36547 2.79,-34.01245 2.79,-22.65604 2.79,-25.80041 2.79,-12.18217 2.79,-7.01045 2.79,-0.0717 2.79,-7.02209 2.79,-17.84828 2.79,-6.48843 2.79,-3.33287 2.79,-3.93204 2.79,-5.00005 2.79,-12.92477 2.79,-5.93965 2.79,-2.12734 2.79,-8.71712 2.79,-0.69506 h 2.79 l 2.79,-8.0937 h 2.79 l 2.79,-3.24999 2.79,-1.20577 2.79,-7.52525 2.79,-2.93001 2.79,-2.56374 2.79,-0.62687 2.79,-8.52661 2.79,-3.92055 h 2.79 l 2.79,-0.40929 h 2.79 l 2.79,-0.23559 2.79,-1.089 2.79,-1.19191 2.79,-0.0784 2.79,-1.98159 2.79,-0.2182 2.79,-7.70977 2.79,-0.69803 2.79,-6.432051 h 2.79 2.79 l 2.79,-3.600152 2.79,-0.307936 h 2.79 2.79 2.79 l 2.79,-0.205907 h 2.79 l 2.79,-2.22489 2.79,-4.192102 2.79,-1.372657 h 2.79 2.79 l 2.79,-2.667883 2.79,-0.375125 2.79,-1.908979 h 2.79 2.79 2.79 l 2.79,-0.101875 h 2.79 2.79 2.79 l 2.79,-0.496512 2.79,-2.027145 2.79,-2.073204 2.79,-0.06903 2.79,-5.660957 2.79,-0.341408 2.79,-2.355443 h 2.79 2.79 2.79 l 2.79,-0.119948 2.79,-2.039693 2.79,-0.413706 h 2.79 l 2.79,-1.868021 h 2.79 l 2.79,-1.381932 h 2.79 2.79 l 2.79,-0.694746 2.79,-0.95208 h 2.79 l 2.79,-0.421952 2.79,-0.134127 2.79,-0.586654 h 2.79 2.79 l 2.79,-1.068354 h 2.79 l 2.79,-0.749224 2.79,-0.481154 h 2.79 l 2.79,-0.201071 2.79,-0.290836 2.79,-1.002511 2.79,-0.174253 2.79,-2.36397 h 2.79 2.79 2.79 l 2.79,-0.885567 h 2.79 2.79 2.79 l 2.79,-0.03206 h 2.79 2.79 2.79 l 2.79,-1.473013 2.79,-0.478524 h 2.79 l 2.79,-0.265482 h 2.79 2.79 2.79 2.79 2.79 l 2.79,-0.368683 h 2.79 l 2.79,-0.404802 h 2.79 l 2.79,-0.02687 h 2.79 l 2.79,-0.529892 h 2.79 l 2.79,-0.473401 h 2.79 l 2.79,-1.362544 h 2.79 2.79 l 2.79,-0.642162 h 2.79 l 2.79,-0.31161 2.79,-0.113789 h 2.79 l 2.79,-0.800797 2.79,-0.287637 2.79,-0.22869 2.79,-0.0503 2.79,-0.159208 2.79,-0.06573 h 2.79 l 2.79,-0.05034 h 2.79 l 2.79,-0.105825 h 2.79 2.79 2.79 2.79 l 2.79,-0.0053 h 2.79 2.79 2.79 2.79 l 2.79,-0.08984 2.79,-0.363576 h 2.79 2.79 2.79 l 2.79,-0.375051 h 2.79 l 2.79,-0.08577 2.79,-0.04777 2.79,-0.131756 2.79,-0.199589 h 2.79 2.79 2.79 l 2.79,-0.07428 h 2.79 2.79 2.79 v -4.666266 0 l -2.79,4.1e-4 -2.79,0.02489 -2.79,0.03942 -2.79,0.17597 -2.79,0.0095 h -2.79 -2.79 -2.79 l -2.79,0.02192 -2.79,0.08379 h -2.79 -2.79 -2.79 -2.79 l -2.79,0.02399 h -2.79 l -2.79,0.04766 h -2.79 -2.79 l -2.79,0.263447 -2.79,0.04751 h -2.79 l -2.79,0.28002 h -2.79 l -2.79,0.09512 -2.79,0.09864 -2.79,0.01474 h -2.79 -2.79 -2.79 -2.79 l -2.79,0.06527 h -2.79 -2.79 l -2.79,0.08023 h -2.79 l -2.79,0.06274 -2.79,0.113889 h -2.79 -2.79 l -2.79,0.0023 -2.79,0.320367 -2.79,0.04511 h -2.79 l -2.79,0.0101 -2.79,0.07245 h -2.79 l -2.79,0.03944 -2.79,0.06836 -2.79,0.140984 -2.79,0.124691 -2.79,0.0671 h -2.79 l -2.79,0.0418 -2.79,0.105319 h -2.79 -2.79 l -2.79,0.09181 -2.79,0.126289 h -2.79 l -2.79,0.0138 -2.79,0.118079 -2.79,0.09475 h -2.79 -2.79 l -2.79,0.120218 h -2.79 l -2.79,0.03252 -2.79,0.02716 h -2.79 l -2.79,0.03245 h -2.79 l -2.79,0.002 h -2.79 -2.79 -2.79 -2.79 l -2.79,0.421228 -2.79,0.191272 h -2.79 l -2.79,0.0035 -2.79,0.881891 h -2.79 l -2.79,0.251149 h -2.79 l -2.79,0.60867 -2.79,0.165979 -2.79,0.292315 -2.79,0.258705 h -2.79 l -2.79,0.09632 h -2.79 l -2.79,0.03824 -2.79,0.04196 -2.79,0.295046 -2.79,0.663134 h -2.79 l -2.79,0.130982 -2.79,0.342888 -2.79,0.138592 h -2.79 l -2.79,1.114972 h -2.79 l -2.79,0.281013 -2.79,0.0027 -2.79,0.01003 -2.79,0.783687 -2.79,0.20813 -2.79,0.647286 -2.79,0.284595 -2.79,0.220608 -2.79,0.348594 -2.79,0.272811 -2.79,2.042093 -2.79,0.26179 -2.79,1.070111 -2.79,0.240252 -2.79,0.793087 h -2.79 l -2.79,1.472962 -2.79,0.723273 h -2.79 -2.79 l -2.79,1.153367 -2.79,1.198827 -2.79,0.303079 h -2.79 -2.79 l -2.79,0.328839 -2.79,0.499862 -2.79,1.57695 -2.79,0.375567 -2.79,0.276454 -2.79,0.0077 -2.79,0.177555 -2.79,1.421514 -2.79,0.715991 -2.79,0.05035 h -2.79 l -2.79,0.431766 h -2.79 -2.79 l -2.79,2.634316 -2.79,1.568276 -2.79,1.563907 -2.79,3.677572 -2.79,0.494238 -2.79,1.388074 -2.79,1.172204 -2.79,1.978843 h -2.79 l -2.79,3.820597 -2.79,0.348844 -2.79,0.635928 h -2.79 l -2.79,1.717494 -2.79,7.600232 -2.79,1.322281 -2.79,2.519062 -2.79,3.257294 -2.79,4.732161 -2.79,2.20698 -2.79,4.72328 -2.79,1.85819 -2.79,0.69902 -2.79,5.28447 -2.79,7.26137 -2.79,8.03234 -2.79,0.17141 -2.79,11.96442 -2.79,10.39216 -2.79,5.59956 h -2.79 l -2.79,5.21986 -2.79,17.33637 -2.79,6.22491 -2.79,0.43232 -2.79,4.41482 -2.79,17.84321 -2.79,7.49448 -2.79,29.08125 -2.79,32.40849 -2.79,3.32116 -2.79,12.41135 h -2.79 l -2.79,5.7643 -2.79,2.34571 h -2.79 l -2.79,11.12172 -2.79,23.30901 -2.79,3.5803 -2.79,5.38949 -2.79,40.91539 -2.79,12.26762 -2.79,26.57476 -2.79,85.78256 -2.79,21.04031 -2.79,69.30163 z"
       style="fill:#1f77b4;fill-opacity:0.1;stroke:#1f77b4;stroke-opacity:0.1"
       id="path40" />
  </g>
  <g
     id="line2d_22">
    <path
       clip-path="url(#p096f0d3dc1)"
       d="m 173.91472,467.93313 0.0813,-1.4702 5.58,-24.30643 2.79,-6.27177 2.79,-9.70319 2.79,-2.69435 2.79,-3.41013 2.79,-14.36048 2.79,-18.8443 2.79,-61.77497 2.79,-18.35291 2.79,-28.29359 2.79,-8.88477 2.79,-26.56895 2.79,-14.51877 2.79,-17.72267 2.79,-7.04713 2.79,-3.10359 2.79,-9.00039 2.79,-5.78807 2.79,-3.38389 2.79,-8.37977 2.79,-1.16004 2.79,-20.76581 2.79,-3.08025 2.79,-3.39013 2.79,-8.82898 2.79,-4.81613 2.79,-0.4304 2.79,-4.6957 2.79,-0.57797 2.79,-12.94486 2.79,-3.91875 h 5.58 l 2.79,-0.5455 5.58,-5.84088 h 2.79 l 2.79,-1.14141 2.79,-1.78931 2.79,-6.466059 2.79,-0.05309 2.79,-1.683716 2.79,-5.827879 2.79,-2.9816 2.79,-0.259439 5.58,-1.041275 2.79,-1.371455 2.79,-0.139914 2.79,-2.90294 2.79,-1.389343 h 2.79 l 2.79,-2.016104 2.79,-0.300896 2.79,-2.175799 2.79,-1.824911 2.79,-0.844052 h 2.79 l 2.79,-4.310793 2.79,-1.392512 2.79,-1.053958 h 2.79 l 2.79,-1.271267 8.37,-0.929275 2.79,-0.761302 2.79,-1.563803 2.79,-1.334997 5.58,-0.08994 2.79,-1.011389 5.58,-1.158457 5.58,-0.09324 2.79,-0.537002 h 5.58 l 5.58,-2.140557 2.79,-1.495397 5.58,-0.04234 2.79,-0.38726 2.79,-1.869517 2.79,-0.0058 5.58,-0.521632 h 2.79 l 2.79,-0.370286 2.79,-0.192056 2.79,-0.336 h 5.58 l 2.79,-0.319202 8.37,-0.236934 2.79,-0.376491 13.95,-0.01814 2.79,-0.128342 h 2.79 l 2.79,-0.634153 2.79,-0.934407 2.79,-0.495482 h 11.16 l 2.79,-0.824786 h 2.79 l 5.58,-1.612071 8.37,-0.04154 11.16,-9.57e-4 2.79,-0.268418 2.79,-0.693412 2.79,-0.528708 h 5.58 l 2.79,-0.34871 h 25.11 l 2.79,-0.187833 2.79,-0.767737 2.79,-0.338941 13.95,-0.09816 11.16,-0.528958 13.95,-0.04052 2.79,-0.288096 19.53,-0.350176 2.79,-0.349526 2.79,-0.202734 13.95,-0.04363 2.79,-0.234191 8.37,-0.07545 2.79,-0.316019 8.37,-0.0438 5.58,-0.09739 h 2.79 l 2.79,-0.129759 13.95,-0.0743 v 0"
       style="fill:none;stroke:#1f77b4;stroke-width:4;stroke-linecap:square;stroke-opacity:0.8"
       id="path503" />
  </g>
  <g
     id="line2d_25" />
  <g
     id="line2d_27" />
  <g
     id="line2d_29" />
  <g
     id="line2d_31" />
  <g
     id="line2d_33" />
  <g
     id="line2d_35" />
  <g
     id="line2d_36">
    <path
       d="m 724.88606,293.60562 h 40"
       style="fill:none;stroke:#1f77b4;stroke-width:4;stroke-linecap:square;stroke-opacity:0.8"
       id="path797" />
  </g>
  <g
     id="line2d_37" />
  <g
     id="text_25">
    <!-- Combination -->
    <g
       transform="matrix(0.2,0,0,-0.2,780.88606,300.60562)"
       id="g826">
      <defs
         id="defs802">
        <path
           d="m 48.6875,27.296875 q 0,9.90625 -4.078125,15.546875 -4.078125,5.640625 -11.203125,5.640625 -7.140625,0 -11.21875,-5.640625 -4.078125,-5.640625 -4.078125,-15.546875 0,-9.90625 4.078125,-15.546875 4.078125,-5.640625 11.21875,-5.640625 7.125,0 11.203125,5.640625 4.078125,5.640625 4.078125,15.546875 z m -30.578125,19.09375 q 2.84375,4.875 7.15625,7.234375 Q 29.59375,56 35.59375,56 q 9.96875,0 16.1875,-7.90625 6.234375,-7.90625 6.234375,-20.796875 0,-12.890625 -6.234375,-20.8125 -6.21875,-7.90625 -16.1875,-7.90625 -6,0 -10.328125,2.375 -4.3125,2.375 -7.15625,7.25 V 0 h -9.03125 v 75.984375 h 9.03125 z"
           id="DejaVuSans-98" />
      </defs>
      <path
         d="M 64.40625,67.28125 V 56.890625 q -4.984375,4.640625 -10.625,6.921875 -5.640625,2.296875 -11.984375,2.296875 -12.5,0 -19.140625,-7.640625 -6.640625,-7.640625 -6.640625,-22.09375 0,-14.40625 6.640625,-22.046875 Q 29.296875,6.6875 41.796875,6.6875 q 6.34375,0 11.984375,2.296875 5.640625,2.296875 10.625,6.9375 V 5.609375 Q 59.234375,2.09375 53.4375,0.328125 q -5.78125,-1.75 -12.21875,-1.75 -16.5625,0 -26.09375,10.125 Q 5.609375,18.84375 5.609375,36.375 q 0,17.578125 9.515625,27.703125 9.53125,10.140625 26.09375,10.140625 6.53125,0 12.3125,-1.734375 5.796875,-1.734375 10.875,-5.203125 z"
         id="use804" />
      <path
         d="m 100.43359,48.390625 q -7.218746,0 -11.421871,-5.640625 -4.203125,-5.640625 -4.203125,-15.453125 0,-9.8125 4.171875,-15.453125 4.1875,-5.640625 11.453121,-5.640625 7.1875,0 11.375,5.65625 4.20313,5.671875 4.20313,15.4375 0,9.71875 -4.20313,15.40625 -4.1875,5.6875 -11.375,5.6875 z m 0,7.609375 q 11.71875,0 18.40625,-7.625 6.70313,-7.609375 6.70313,-21.078125 0,-13.421875 -6.70313,-21.078125 -6.6875,-7.640625 -18.40625,-7.640625 -11.765621,0 -18.437496,7.640625 -6.65625,7.65625 -6.65625,21.078125 0,13.46875 6.65625,21.078125 Q 88.667969,56 100.43359,56 Z"
         id="use806" />
      <path
         d="m 183.00586,44.1875 q 3.375,6.0625 8.0625,8.9375 4.6875,2.875 11.03125,2.875 8.54687,0 13.1875,-5.984375 4.64062,-5.96875 4.64062,-17 V 0 h -9.03125 v 32.71875 q 0,7.859375 -2.79687,11.65625 -2.78125,3.8125 -8.48438,3.8125 -6.98437,0 -11.04687,-4.640625 -4.04688,-4.625 -4.04688,-12.640625 V 0 h -9.03125 v 32.71875 q 0,7.90625 -2.78125,11.6875 -2.78125,3.78125 -8.59375,3.78125 -6.89062,0 -10.95312,-4.65625 -4.04688,-4.65625 -4.04688,-12.625 V 0 h -9.03125 v 54.6875 h 9.03125 v -8.5 q 3.07813,5.03125 7.375,7.421875 Q 160.78711,56 166.69336,56 q 5.96875,0 10.14062,-3.03125 4.17188,-3.015625 6.17188,-8.78125 z"
         id="use808" />
      <use
         x="228.41797"
         xlink:href="#DejaVuSans-98"
         id="use810"
         y="0"
         width="100%"
         height="100%" />
      <path
         d="m 301.31641,54.6875 h 8.98437 V 0 h -8.98437 z m 0,21.296875 h 8.98437 V 64.59375 h -8.98437 z"
         id="use812" />
      <path
         d="M 374.56836,33.015625 V 0 h -8.98438 v 32.71875 q 0,7.765625 -3.03125,11.609375 -3.03125,3.859375 -9.07812,3.859375 -7.28125,0 -11.48438,-4.640625 -4.20312,-4.625 -4.20312,-12.640625 V 0 h -9.03125 v 54.6875 h 9.03125 v -8.5 q 3.23437,4.9375 7.59375,7.375 4.375,2.4375 10.09375,2.4375 9.42187,0 14.25,-5.828125 4.84375,-5.828125 4.84375,-17.15625 z"
         id="use814" />
      <path
         d="m 417.33789,27.484375 q -10.89062,0 -15.09375,-2.484375 -4.20312,-2.484375 -4.20312,-8.5 0,-4.78125 3.15625,-7.59375 3.15625,-2.796875 8.5625,-2.796875 7.48437,0 12,5.296875 4.51562,5.296875 4.51562,14.078125 v 2 z m 17.92188,3.71875 V 0 h -8.98438 v 8.296875 q -3.07812,-4.96875 -7.67187,-7.34375 -4.59375,-2.375 -11.23438,-2.375 -8.39062,0 -13.35937,4.71875 -4.95313,4.71875 -4.95313,12.625 0,9.21875 6.17188,13.90625 6.1875,4.6875 18.4375,4.6875 h 12.60937 v 0.890625 q 0,6.203125 -4.07812,9.59375 -4.07813,3.390625 -11.45313,3.390625 -4.6875,0 -9.14062,-1.125 -4.4375,-1.125 -8.53125,-3.375 v 8.3125 q 4.92187,1.90625 9.5625,2.84375 Q 407.27539,56 411.66602,56 q 11.875,0 17.73437,-6.15625 5.85938,-6.140625 5.85938,-18.640625 z"
         id="use816" />
      <path
         d="M 462.64844,70.21875 V 54.6875 h 18.5 v -6.984375 h -18.5 v -29.6875 q 0,-6.6875 1.82812,-8.59375 1.82813,-1.90625 7.45313,-1.90625 h 9.21875 V 0 h -9.21875 q -10.40625,0 -14.35938,3.875 -3.95312,3.890625 -3.95312,14.140625 v 29.6875 h -6.59375 V 54.6875 h 6.59375 v 15.53125 z"
         id="use818" />
      <path
         d="m 492.9668,54.6875 h 8.98437 V 0 h -8.98437 z m 0,21.296875 h 8.98437 V 64.59375 h -8.98437 z"
         id="use820" />
      <path
         d="m 541.9375,48.390625 q -7.21875,0 -11.42188,-5.640625 -4.20312,-5.640625 -4.20312,-15.453125 0,-9.8125 4.17187,-15.453125 4.1875,-5.640625 11.45313,-5.640625 7.1875,0 11.375,5.65625 4.20312,5.671875 4.20312,15.4375 0,9.71875 -4.20312,15.40625 -4.1875,5.6875 -11.375,5.6875 z m 0,7.609375 q 11.71875,0 18.40625,-7.625 6.70312,-7.609375 6.70312,-21.078125 0,-13.421875 -6.70312,-21.078125 -6.6875,-7.640625 -18.40625,-7.640625 -11.76563,0 -18.4375,7.640625 -6.65625,7.65625 -6.65625,21.078125 0,13.46875 6.65625,21.078125 Q 530.17187,56 541.9375,56 Z"
         id="use822" />
      <path
         d="M 627.40039,33.015625 V 0 h -8.98437 v 32.71875 q 0,7.765625 -3.03125,11.609375 -3.03125,3.859375 -9.07813,3.859375 -7.28125,0 -11.48437,-4.640625 -4.20313,-4.625 -4.20313,-12.640625 V 0 h -9.03125 v 54.6875 h 9.03125 v -8.5 q 3.23438,4.9375 7.59375,7.375 4.375,2.4375 10.09375,2.4375 9.42188,0 14.25,-5.828125 4.84375,-5.828125 4.84375,-17.15625 z"
         id="use824" />
    </g>
  </g>
  <defs
     id="defs869">
    <clipPath
       id="p096f0d3dc1">
      <rect
         height="380.52"
         width="558"
         x="148.886062"
         y="31.43625"
         id="rect866" />
    </clipPath>
  </defs>
</svg>
