<?xml version="1.0" encoding="UTF-8" standalone="no"?>
<svg
   xmlns:dc="http://purl.org/dc/elements/1.1/"
   xmlns:cc="http://creativecommons.org/ns#"
   xmlns:rdf="http://www.w3.org/1999/02/22-rdf-syntax-ns#"
   xmlns:svg="http://www.w3.org/2000/svg"
   xmlns="http://www.w3.org/2000/svg"
   xmlns:sodipodi="http://sodipodi.sourceforge.net/DTD/sodipodi-0.dtd"
   xmlns:inkscape="http://www.inkscape.org/namespaces/inkscape"
   height="466.933125pt"
   version="1.1"
   viewBox="0 0 975.479812 466.933125"
   width="975.479812pt"
   id="svg867"
   sodipodi:docname="4_DivNoMig_9_Sim_comp_auto_pi.svg"
   inkscape:version="1.0.2 (1.0.2+r75+1)">
  <sodipodi:namedview
     pagecolor="#ffffff"
     bordercolor="#666666"
     borderopacity="1"
     objecttolerance="10"
     gridtolerance="10"
     guidetolerance="10"
     inkscape:pageopacity="0"
     inkscape:pageshadow="2"
     inkscape:window-width="1856"
     inkscape:window-height="1050"
     id="namedview869"
     showgrid="false"
     inkscape:zoom="0.58167031"
     inkscape:cx="735.79613"
     inkscape:cy="372.43826"
     inkscape:window-x="64"
     inkscape:window-y="30"
     inkscape:window-maximized="1"
     inkscape:current-layer="svg867" />
  <metadata
     id="metadata2">
    <rdf:RDF>
      <cc:Work>
        <dc:type
           rdf:resource="http://purl.org/dc/dcmitype/StillImage" />
        <dc:date>2021-12-06T18:07:59.425561</dc:date>
        <dc:format>image/svg+xml</dc:format>
        <dc:creator>
          <cc:Agent>
            <dc:title>Matplotlib v3.3.4, https://matplotlib.org/</dc:title>
          </cc:Agent>
        </dc:creator>
        <dc:title></dc:title>
      </cc:Work>
    </rdf:RDF>
  </metadata>
  <defs
     id="defs6">
    <style
       type="text/css"
       id="style4">*{stroke-linecap:butt;stroke-linejoin:round;}</style>
  </defs>
  <g
     id="patch_1">
    <path
       d="M 0,466.93313 H 975.47981 V 0 H 0 Z"
       style="fill:none"
       id="path8" />
  </g>
  <g
     id="PolyCollection_7">
    <path
       clip-path="url(#pac6a362fb1)"
       d="m 148.88606,1014.526 v 1079.2468 l 2.79,-610.8126 2.79,-162.8389 2.79,-279.3406 2.79,-121.30505 2.79,-140.11812 2.79,-22.59094 2.79,-63.32302 2.79,-48.66306 2.79,-13.87725 2.79,-10.16913 2.79,-12.59577 2.79,-4.93216 2.79,-56.81721 2.79,-21.40626 h 2.79 l 2.79,-14.88858 2.79,-3.76471 2.79,-4.07092 2.79,-21.10171 2.79,-22.36631 2.79,-21.67373 2.79,-17.27143 2.79,-7.96277 2.79,-4.09164 2.79,-13.08347 2.79,-5.4348 2.79,-14.39126 2.79,-12.47313 2.79,-0.88545 2.79,-2.5105 2.79,-2.36612 2.79,-3.5185 2.79,-7.94149 2.79,-5.80503 2.79,-3.4257 2.79,-4.91376 2.79,-6.36525 2.79,-2.01698 2.79,-1.29729 2.79,-1.6545 2.79,-0.60819 2.79,-5.90275 2.79,-8.87457 2.79,-9.52531 2.79,-8.42572 2.79,-8.61671 2.79,-4.9645 2.79,-3.01172 2.79,-2.25669 2.79,-2.16239 2.79,-8.25622 2.79,-3.94608 2.79,-5.58869 2.79,-5.66576 2.79,-8.03184 2.79,-4.15381 2.79,-2.09516 2.79,-1.60207 2.79,-1.14711 2.79,-0.81203 2.79,-2.06219 2.79,-3.99824 2.79,-1.82902 2.79,-0.69372 2.79,-1.29236 2.79,-2.14646 2.79,-2.36729 2.79,-1.58262 2.79,-0.10753 2.79,-1.07966 2.79,-1.18196 2.79,-1.03033 2.79,-0.17087 2.79,-2.41855 2.79,-1.61027 2.79,-0.73764 2.79,-0.44964 2.79,-0.53891 2.79,-0.64509 2.79,-1.47197 2.79,-2.1255 2.79,-1.77239 2.79,-1.2134 2.79,-0.62627 2.79,-0.71296 2.79,-0.90363 2.79,-1.0152 2.79,-1.08056 2.79,-0.38819 2.79,-0.46685 h 2.79 l 2.79,-0.15989 2.79,-0.98239 2.79,-0.53821 2.79,-0.89005 2.79,-0.28142 2.79,-0.5108 2.79,-0.6812 2.79,-0.7435 2.79,-2.04704 2.79,-1.35656 2.79,-2.4631 h 2.79 l 2.79,-0.93 2.79,-2.56938 2.79,-1.2661 2.79,-0.91997 2.79,-0.45297 2.79,-0.036 2.79,-1.13925 2.79,-0.6108 h 2.79 l 2.79,-0.81522 2.79,-0.5739 h 2.79 l 2.79,-0.41107 2.79,-0.11612 2.79,-0.116 2.79,-0.16772 2.79,-6.17218 2.79,-0.29748 2.79,-0.44545 2.79,-0.456 2.79,-0.0684 2.79,-0.2667 2.79,-0.0639 2.79,-0.31848 2.79,-0.0832 2.79,-0.2671 2.79,-0.4983 2.79,-0.94457 2.79,-0.35091 2.79,-0.47311 2.79,-0.004 2.79,-0.36254 2.79,-0.0426 2.79,-0.047 2.79,-0.15548 2.79,-0.0362 2.79,-0.16341 h 2.79 l 2.79,-0.0593 2.79,-0.39364 2.79,-1.08361 2.79,-2.58352 2.79,-0.34986 h 2.79 l 2.79,-0.2696 2.79,-1e-4 2.79,-0.0138 2.79,-0.0273 2.79,-0.0143 2.79,-0.0231 2.79,-2.6e-4 2.79,-0.16184 2.79,-0.005 2.79,-0.006 h 2.79 l 2.79,-0.0626 2.79,-0.28196 2.79,-0.2849 2.79,-0.0445 2.79,-0.37196 2.79,-0.0294 2.79,-0.0677 h 2.79 l 2.79,-3e-5 2.79,-0.003 2.79,-0.58146 2.79,-0.18078 h 2.79 2.79 l 2.79,-0.002 2.79,-0.50774 2.79,-0.20099 2.79,-0.24259 2.79,-0.0718 h 2.79 l 2.79,-0.0614 2.79,-0.41937 2.79,-0.0559 2.79,-0.002 2.79,-0.005 h 2.79 l 2.79,-0.004 2.79,-0.011 h 2.79 l 2.79,-0.0169 h 2.79 l 2.79,-0.0348 2.79,-5.4e-4 2.79,-0.002 2.79,-0.002 h 2.79 l 2.79,-5.3e-4 2.79,-3.4e-4 2.79,-0.0385 2.79,-0.0567 2.79,-7.6e-4 v -100.999339 0 l -2.79,0.0017 h -2.79 l -2.79,3.07e-4 h -2.79 -2.79 -2.79 -2.79 l -2.79,0.0031 -2.79,9e-5 -2.79,6.53e-4 -2.79,0.0025 h -2.79 -2.79 l -2.79,2.21e-4 -2.79,1.45e-4 -2.79,0.0015 h -2.79 l -2.79,0.0066 -2.79,6.73e-4 h -2.79 -2.79 l -2.79,0.0026 -2.79,0.0018 -2.79,0.0035 -2.79,0.0019 -2.79,0.0012 -2.79,1.05e-4 -2.79,7.24e-4 h -2.79 -2.79 l -2.79,9.9e-4 h -2.79 l -2.79,0.0013 -2.79,0.01143 -2.79,0.0026 -2.79,0.0016 -2.79,0.0011 -2.79,0.0022 -2.79,0.01 -2.79,0.01785 -2.79,0.0096 -2.79,10e-4 -2.79,0.0081 -2.79,0.152092 -2.79,0.124703 -2.79,0.0016 -2.79,7.32e-4 -2.79,0.0073 -2.79,0.03752 -2.79,0.02328 -2.79,0.01561 -2.79,0.02831 -2.79,0.0014 -2.79,0.01747 -2.79,0.03885 -2.79,0.05013 -2.79,0.0255 -2.79,0.0019 -2.79,0.07343 -2.79,0.0098 -2.79,0.0044 -2.79,0.0048 -2.79,0.0058 -2.79,0.04302 -2.79,0.0184 -2.79,0.02374 -2.79,0.0032 -2.79,0.0021 -2.79,0.03207 -2.79,0.07869 -2.79,9.28e-4 -2.79,0.753707 -2.79,0.108112 -2.79,0.02158 -2.79,0.02475 -2.79,0.08807 h -2.79 -2.79 -2.79 l -2.79,0.03453 -2.79,0.151079 -2.79,0.0022 -2.79,0.381444 -2.79,0.04716 -2.79,0.04072 -2.79,0.02006 -2.79,0.15845 -2.79,0.208474 -2.79,0.04921 -2.79,0.916014 -2.79,1.19e-4 -2.79,0.0037 -2.79,0.02296 -2.79,0.242972 -2.79,0.05298 -2.79,0.106129 -2.79,0.01258 -2.79,0.0063 -2.79,0.01405 -2.79,0.20937 -2.79,1.171832 -2.79,0.0015 -2.79,0.357594 -2.79,0.0044 -2.79,1.091641 -2.79,0.337572 -2.79,0.205 -2.79,0.20989 -2.79,0.173904 -2.79,0.300344 -2.79,0.06286 -2.79,0.997612 -2.79,1.864149 -2.79,0.346006 -2.79,0.468438 -2.79,1.19263 -2.79,0.583519 -2.79,2.663274 -2.79,0.520415 -2.79,0.702804 h -2.79 l -2.79,0.344624 -2.79,3.976756 -2.79,3.29539 -2.79,1.113889 -2.79,0.765518 -2.79,0.979398 -2.79,0.06615 -2.79,0.203835 -2.79,0.431256 -2.79,0.188481 -2.79,0.489731 -2.79,1.020011 -2.79,0.315887 -2.79,0.131118 -2.79,0.420728 -2.79,0.464755 -2.79,1.518338 -2.79,0.109196 -2.79,0.109439 -2.79,3.586925 -2.79,0.73441 -2.79,0.91147 -2.79,0.756057 -2.79,0.141915 -2.79,0.378895 -2.79,5.625265 -2.79,0.403723 -2.79,0.675944 -2.79,0.700118 -2.79,0.229245 -2.79,0.05271 -2.79,1.245272 -2.79,6.015543 -2.79,2.52617 -2.79,3.58266 -2.79,0.39232 -2.79,4.3493 -2.79,6.54567 -2.79,2.96353 -2.79,1.22022 -2.79,6.03489 -2.79,1.38142 -2.79,4.24997 -2.79,4.80413 -2.79,4.34042 -2.79,9.81852 -2.79,1.94814 -2.79,2.47321 -2.79,11.64943 -2.79,1.4936 -2.79,1.79396 -2.79,5.0025 -2.79,6.62796 -2.79,7.7739 -2.79,16.77473 -2.79,11.50918 -2.79,17.74536 -2.79,8.91223 -2.79,10.83138 -2.79,26.2702 -2.79,36.2702 -2.79,0.60719 -2.79,1.36035 h -2.79 l -2.79,2.55007 h -2.79 -2.79 -2.79 l -2.79,8.21964 -2.79,20.55758 -2.79,3.40484 -2.79,18.79757 -2.79,12.34741 -2.79,31.36566 -2.79,70.84284 -2.79,95.26054 -2.79,137.70364 z"
       style="fill:#ff7f0e;fill-opacity:0.1;stroke:#ff7f0e;stroke-opacity:0.1"
       id="path37" />
  </g>
  <g
     id="line2d_21">
    <path
       clip-path="url(#pac6a362fb1)"
       d="m 170.55641,467.93313 0.64965,-8.46181 2.79,-33.84639 2.79,-6.1429 2.79,-15.34643 2.79,-13.22669 2.79,-1.36826 2.79,-4.43704 h 2.79 l 2.79,-9.09403 2.79,-0.74243 2.79,-16.96842 5.58,-30.74819 2.79,-5.01073 2.79,-28.79211 2.79,-9.10556 2.79,-22.01381 2.79,-10.06533 2.79,-8.77831 2.79,-4.55231 2.79,-8.1034 5.58,-8.47743 2.79,-3.33335 2.79,-9.29129 2.79,-5.81825 2.79,-3.38137 2.79,-6.2693 2.79,-6.85458 2.79,-4.36975 2.79,-3.63272 2.79,-5.28256 2.79,-2.50994 2.79,-0.52968 2.79,-4.80179 2.79,-1.10788 2.79,-2.20325 2.79,-4.3458 2.79,-0.9464 2.79,-0.57473 2.79,-2.52803 2.79,-7.68586 h 2.79 l 2.79,-5.50249 2.79,-2.74857 2.79,-3.17157 5.58,-3.63995 2.79,-0.85212 2.79,-0.42131 8.37,-3.1563 2.79,-0.68956 2.79,-0.41716 h 2.79 l 5.58,-0.1686 2.79,-0.59659 2.79,-3.89386 2.79,-1.40587 2.79,-0.67924 2.79,-0.82775 h 2.79 l 2.79,-0.19169 2.79,-0.36896 2.79,-0.20304 2.79,-0.36811 2.79,-1.16858 2.79,-0.2684 2.79,-0.46978 2.79,-1.26227 2.79,-0.5017 2.79,-0.34429 2.79,-0.0853 2.79,-0.61057 2.79,-3.26924 5.58,-0.21334 5.58,-0.8091 5.58,-0.15468 5.58,-0.55685 5.58,-0.0865 5.58,-0.745 5.58,-0.44814 2.79,-0.52776 11.16,-0.26096 2.79,-2.67862 2.79,-0.81824 5.58,-0.0647 2.79,-0.087 8.37,-0.67389 5.58,-0.0101 2.79,-0.18668 5.58,-0.009 5.58,-0.28819 2.79,-0.54976 5.58,-0.35896 2.79,-0.981021 2.79,-0.800918 8.37,-0.08804 2.79,-0.197602 2.79,-0.478063 2.79,-0.343403 2.79,-0.118497 2.79,-0.43444 2.79,-0.04903 2.79,-0.392864 2.79,-0.01595 2.79,-0.247238 5.58,-0.655205 2.79,-1.101584 2.79,-0.04147 2.79,-0.446922 2.79,-0.702352 2.79,-0.36874 2.79,-9e-6 2.79,-0.461921 2.79,-0.179724 5.58,-0.03435 2.79,-0.277113 19.53,-0.09736 13.95,-0.146962 2.79,-0.901522 2.79,-0.133397 h 2.79 l 2.79,-0.225947 h 5.58 l 2.79,-1.150928 2.79,-0.323997 2.79,-1.318009 11.16,-0.08776 2.79,-0.692573 8.37,-0.06799 11.16,-0.485123 5.58,-0.129255 2.79,-0.222573 2.79,-0.05406 2.79,-0.217223 8.37,-0.226788 2.79,-0.976567 2.79,-0.122708 2.79,-0.576322 5.58,-0.106859 2.79,-1.213085 2.79,-1.668744 8.37,-0.0025 v 0"
       style="fill:none;stroke:#ff7f0e;stroke-width:4;stroke-linecap:square;stroke-opacity:0.8"
       id="path500" />
  </g>
  <g
     id="line2d_25" />
  <g
     id="line2d_27" />
  <g
     id="line2d_29" />
  <g
     id="line2d_31" />
  <g
     id="line2d_33" />
  <g
     id="line2d_34">
    <path
       d="m 724.88606,264.24937 h 40"
       style="fill:none;stroke:#ff7f0e;stroke-width:4;stroke-linecap:square;stroke-opacity:0.8"
       id="path768" />
  </g>
  <g
     id="line2d_35" />
  <g
     id="text_24">
    <!-- Auto + PI -->
    <g
       transform="matrix(0.2,0,0,-0.2,780.88606,271.24937)"
       id="g790">
      <path
         d="M 34.1875,63.1875 20.796875,26.90625 h 26.8125 z m -5.578125,9.71875 h 11.1875 L 67.578125,0 h -10.25 L 50.6875,18.703125 H 17.828125 L 11.1875,0 H 0.78125 Z"
         id="use772" />
      <path
         d="M 76.908203,21.578125 V 54.6875 h 8.984375 V 21.921875 q 0,-7.765625 3.015625,-11.65625 3.03125,-3.875 9.09375,-3.875 7.265627,0 11.484377,4.640625 4.23437,4.640625 4.23437,12.65625 v 31 h 8.98438 V 0 H 113.7207 V 8.40625 Q 110.45508,3.421875 106.12695,1 q -4.3125,-2.421875 -10.031247,-2.421875 -9.421875,0 -14.3125,5.859375 -4.875,5.859375 -4.875,17.140625 z M 99.517578,56 Z"
         id="use774" />
      <path
         d="M 150.09961,70.21875 V 54.6875 h 18.5 v -6.984375 h -18.5 v -29.6875 q 0,-6.6875 1.82812,-8.59375 1.82813,-1.90625 7.45313,-1.90625 h 9.21875 V 0 h -9.21875 q -10.40625,0 -14.35938,3.875 -3.95312,3.890625 -3.95312,14.140625 v 29.6875 h -6.59375 V 54.6875 h 6.59375 v 15.53125 z"
         id="use776" />
      <path
         d="m 201.60547,48.390625 q -7.21875,0 -11.42188,-5.640625 -4.20312,-5.640625 -4.20312,-15.453125 0,-9.8125 4.17187,-15.453125 4.1875,-5.640625 11.45313,-5.640625 7.1875,0 11.375,5.65625 4.20312,5.671875 4.20312,15.4375 0,9.71875 -4.20312,15.40625 -4.1875,5.6875 -11.375,5.6875 z m 0,7.609375 q 11.71875,0 18.40625,-7.625 6.70312,-7.609375 6.70312,-21.078125 0,-13.421875 -6.70312,-21.078125 -6.6875,-7.640625 -18.40625,-7.640625 -11.76563,0 -18.4375,7.640625 -6.65625,7.65625 -6.65625,21.078125 0,13.46875 6.65625,21.078125 6.67187,7.625 18.4375,7.625 z"
         id="use778" />
      <path
         id="use780"
         d="" />
      <path
         d="M 309.96484,62.703125 V 35.5 h 27.1875 v -8.296875 h -27.1875 V 0 h -8.20312 V 27.203125 H 274.55859 V 35.5 h 27.20313 v 27.203125 z"
         id="use782" />
      <path
         id="use784"
         d="" />
      <path
         d="M 399.21289,64.796875 V 37.40625 h 12.40625 q 6.89063,0 10.64063,3.5625 3.76562,3.5625 3.76562,10.15625 0,6.546875 -3.76562,10.109375 -3.75,3.5625 -10.64063,3.5625 z m -9.85937,8.109375 h 22.26562 q 12.26563,0 18.53125,-5.546875 6.28125,-5.546875 6.28125,-16.234375 0,-10.796875 -6.28125,-16.3125 -6.26562,-5.515625 -18.53125,-5.515625 H 399.21289 V 0 h -9.85937 z"
         id="use786" />
      <path
         d="m 449.65625,72.90625 h 9.85937 V 0 h -9.85937 z"
         id="use788" />
    </g>
  </g>
  <g
     id="line2d_37" />
  <defs
     id="defs865">
    <clipPath
       id="pac6a362fb1">
      <rect
         height="380.52"
         width="558"
         x="148.886062"
         y="31.43625"
         id="rect862" />
    </clipPath>
  </defs>
</svg>
