<?xml version="1.0" encoding="UTF-8" standalone="no"?>
<svg
   xmlns:dc="http://purl.org/dc/elements/1.1/"
   xmlns:cc="http://creativecommons.org/ns#"
   xmlns:rdf="http://www.w3.org/1999/02/22-rdf-syntax-ns#"
   xmlns:svg="http://www.w3.org/2000/svg"
   xmlns="http://www.w3.org/2000/svg"
   xmlns:sodipodi="http://sodipodi.sourceforge.net/DTD/sodipodi-0.dtd"
   xmlns:inkscape="http://www.inkscape.org/namespaces/inkscape"
   height="466.933125pt"
   version="1.1"
   viewBox="0 0 962.754812 466.933125"
   width="962.754812pt"
   id="svg907"
   sodipodi:docname="5_DivNoMig_9_Sim_comp_auto_pi.svg"
   inkscape:version="1.0.2 (1.0.2+r75+1)">
  <sodipodi:namedview
     pagecolor="#ffffff"
     bordercolor="#666666"
     borderopacity="1"
     objecttolerance="10"
     gridtolerance="10"
     guidetolerance="10"
     inkscape:pageopacity="0"
     inkscape:pageshadow="2"
     inkscape:window-width="1856"
     inkscape:window-height="1050"
     id="namedview909"
     showgrid="false"
     inkscape:zoom="1.8661698"
     inkscape:cx="930.26296"
     inkscape:cy="266.89534"
     inkscape:window-x="64"
     inkscape:window-y="30"
     inkscape:window-maximized="1"
     inkscape:current-layer="svg907" />
  <metadata
     id="metadata2">
    <rdf:RDF>
      <cc:Work>
        <dc:type
           rdf:resource="http://purl.org/dc/dcmitype/StillImage" />
        <dc:date>2021-12-06T18:08:29.347978</dc:date>
        <dc:format>image/svg+xml</dc:format>
        <dc:creator>
          <cc:Agent>
            <dc:title>Matplotlib v3.3.4, https://matplotlib.org/</dc:title>
          </cc:Agent>
        </dc:creator>
        <dc:title></dc:title>
      </cc:Work>
    </rdf:RDF>
  </metadata>
  <defs
     id="defs6">
    <style
       type="text/css"
       id="style4">*{stroke-linecap:butt;stroke-linejoin:round;}</style>
  </defs>
  <g
     id="PolyCollection_7">
    <path
       clip-path="url(#pd278c62a57)"
       d="M 136.16106,794.77999 V 2566.8334 l 2.79,-1241.9748 2.79,-425.26755 2.79,-96.72895 2.79,-63.47551 2.79,-46.88557 2.79,-48.72567 2.79,-58.7977 2.79,-43.90175 2.79,-64.46598 2.79,-11.29636 2.79,-1.45748 h 2.79 l 2.79,-5.79463 2.79,-1.76714 h 2.79 l 2.79,-30.726 h 2.79 l 2.79,-34.47606 2.79,-19.70422 2.79,-37.98722 2.79,-22.76101 2.79,-35.72959 2.79,-20.59689 2.79,-9.36446 2.79,-0.41256 2.79,-25.96092 2.79,-3.76349 2.79,-1.24565 2.79,-11.09653 2.79,-0.0327 h 2.79 l 2.79,-13.90254 2.79,-5.27227 2.79,-2.60747 2.79,-5.69283 2.79,-5.75316 h 2.79 l 2.79,-3.76368 2.79,-5.11987 2.79,-8.43778 2.79,-2.53962 2.79,-6.02668 2.79,-2.04649 h 2.79 l 2.79,-1.01249 2.79,-3.81823 2.79,-5.39484 2.79,-4.06589 2.79,-1.80558 2.79,-5.3071 2.79,-0.32637 2.79,-5.03609 2.79,-0.97116 2.79,-1.49712 2.79,-3.11464 2.79,-3.5658 h 2.79 l 2.79,-3.60829 2.79,-1.45652 h 2.79 l 2.79,-5.09382 2.79,-2.539288 2.79,-2.566693 h 2.79 2.79 l 2.79,-0.643739 2.79,-2.103994 2.79,-2.039802 2.79,-1.881716 2.79,-2.346042 2.79,-3.538742 h 2.79 l 2.79,-0.602425 2.79,-0.529378 h 2.79 l 2.79,-0.268069 h 2.79 l 2.79,-3.794105 2.79,-1.558879 2.79,-0.05095 2.79,-2.03306 2.79,-0.88686 h 2.79 l 2.79,-0.486433 2.79,-0.01372 2.79,-0.415349 2.79,-2.284953 2.79,-0.22453 2.79,-1.063945 2.79,-0.666258 2.79,-0.831097 2.79,-0.0055 2.79,-0.83048 2.79,-5.153517 2.79,-0.875079 2.79,-0.189924 2.79,-0.662475 2.79,-0.587874 2.79,-1.547264 2.79,-1.429288 2.79,-0.2758 2.79,-0.63386 h 2.79 l 2.79,-0.191564 2.79,-1.295789 h 2.79 l 2.79,-0.299548 h 2.79 2.79 l 2.79,-0.09837 h 2.79 l 2.79,-0.03192 2.79,-0.149604 2.79,-0.343041 2.79,-2.972732 2.79,-0.496827 2.79,-0.364692 2.79,-0.01689 2.79,-1.086973 2.79,-0.840284 h 2.79 l 2.79,-0.597877 2.79,-0.09088 2.79,-0.283584 2.79,-0.0039 2.79,-0.180621 2.79,-0.09005 2.79,-0.466321 h 2.79 l 2.79,-0.104613 2.79,-0.0058 2.79,-0.28176 h 2.79 l 2.79,-4.96e-4 2.79,-0.02811 2.79,-0.294158 2.79,-0.551613 2.79,-0.0011 2.79,-0.1995 2.79,-0.132777 2.79,-0.01162 h 2.79 2.79 l 2.79,-0.05185 2.79,-0.29307 h 2.79 l 2.79,-0.285671 2.79,-0.863421 h 2.79 2.79 2.79 l 2.79,-0.943831 h 2.79 2.79 l 2.79,-0.208006 2.79,-0.05907 h 2.79 2.79 l 2.79,-0.144921 h 2.79 l 2.79,-0.336355 2.79,-0.04311 2.79,-0.187783 2.79,-0.215023 2.79,-0.408458 2.79,-0.120608 2.79,-0.0036 h 2.79 2.79 l 2.79,-0.154767 h 2.79 2.79 l 2.79,-0.0957 h 2.79 2.79 2.79 l 2.79,-0.168501 h 2.79 2.79 l 2.79,-0.270007 h 2.79 l 2.79,-0.12017 2.79,-0.292737 2.79,-0.06489 h 2.79 l 2.79,-0.06221 2.79,-0.03969 2.79,-0.01803 2.79,-0.03627 h 2.79 2.79 2.79 2.79 l 2.79,-0.248727 h 2.79 l 2.79,-0.05098 h 2.79 l 2.79,-0.0531 2.79,-0.03448 v -0.789604 0 l -2.79,0.0036 h -2.79 -2.79 l -2.79,4.71e-4 h -2.79 l -2.79,0.0024 -2.79,9.67e-4 h -2.79 -2.79 -2.79 -2.79 l -2.79,0.0081 -2.79,0.0027 -2.79,8e-5 -2.79,0.0011 -2.79,8.2e-4 -2.79,0.0041 -2.79,0.01533 -2.79,0.0017 -2.79,0.0013 -2.79,0.0077 -2.79,0.0033 h -2.79 -2.79 -2.79 -2.79 -2.79 l -2.79,0.03586 h -2.79 -2.79 l -2.79,0.0038 h -2.79 -2.79 l -2.79,0.02494 -2.79,0.0012 -2.79,0.0095 -2.79,0.01296 h -2.79 l -2.79,4.23e-4 -2.79,2.86e-4 -2.79,4.22e-4 -2.79,0.0092 -2.79,0.03305 -2.79,0.0084 -2.79,3.1e-5 -2.79,0.0024 -2.79,0.0031 -2.79,3.6e-5 h -2.79 l -2.79,0.02273 h -2.79 -2.79 l -2.79,0.0444 -2.79,0.02672 h -2.79 -2.79 l -2.79,0.08316 -2.79,0.05332 -2.79,0.01965 -2.79,0.004 h -2.79 l -2.79,0.0043 -2.79,0.03315 -2.79,0.03459 h -2.79 l -2.79,0.03509 -2.79,0.02434 h -2.79 l -2.79,0.05379 -2.79,0.01816 h -2.79 l -2.79,0.05924 -2.79,0.02555 -2.79,0.170751 -2.79,0.164802 h -2.79 -2.79 l -2.79,0.207121 -2.79,0.008 -2.79,0.108425 h -2.79 l -2.79,0.05276 -2.79,0.198574 -2.79,0.06099 -2.79,0.147332 -2.79,0.02318 h -2.79 -2.79 l -2.79,0.147688 -2.79,2.63e-4 h -2.79 l -2.79,0.05373 h -2.79 l -2.79,0.363937 h -2.79 -2.79 l -2.79,0.242107 -2.79,0.02129 -2.79,0.142589 -2.79,0.288691 -2.79,0.06695 -2.79,0.452568 -2.79,0.125405 -2.79,0.490719 -2.79,0.07343 -2.79,0.02637 -2.79,0.840144 h -2.79 l -2.79,0.947916 h -2.79 l -2.79,0.543887 -2.79,0.08479 -2.79,0.230501 -2.79,0.232601 -2.79,0.07041 -2.79,1.560966 -2.79,0.938479 -2.79,0.593573 -2.79,0.706863 -2.79,0.201849 -2.79,0.223031 h -2.79 l -2.79,1.022682 h -2.79 l -2.79,0.01373 -2.79,0.159441 -2.79,0.924977 -2.79,1.453736 -2.79,0.0657 -2.79,1.073162 -2.79,0.585992 -2.79,0.601008 -2.79,0.03612 -2.79,1.158111 -2.79,1.405723 -2.79,0.16297 -2.79,0.130827 -2.79,3.993434 h -2.79 -2.79 -2.79 l -2.79,0.814179 -2.79,2.894607 -2.79,0.467316 -2.79,3.915564 h -2.79 l -2.79,2.462486 -2.79,2.641187 -2.79,0.193819 -2.79,1.188402 -2.79,1.180993 -2.79,1.236696 -2.79,0.56064 -2.79,0.947129 -2.79,2.557446 -2.79,3.436654 -2.79,1.31655 -2.79,1.770579 -2.79,6.91555 -2.79,1.986374 -2.79,1.917616 -2.79,4.045893 -2.79,2.517991 -2.79,2.79859 -2.79,2.39416 h -2.79 l -2.79,5.68356 -2.79,7.0534 -2.79,5.06953 -2.79,2.63728 -2.79,8.52159 -2.79,8.5952 -2.79,5.81316 -2.79,1.85202 -2.79,5.79225 -2.79,4.2242 h -2.79 l -2.79,20.64959 -2.79,12.40574 -2.79,12.0494 -2.79,38.8798 -2.79,18.78466 -2.79,5.80768 h -2.79 l -2.79,18.35763 h -2.79 l -2.79,12.04622 -2.79,7.60506 -2.79,15.17256 h -2.79 l -2.79,20.26457 -2.79,7.87762 -2.79,2.41987 -2.79,11.62187 -2.79,33.04976 -2.79,40.37066 h -2.79 l -2.79,114.81937 z"
       style="fill:#ff7f0e;fill-opacity:0.1;stroke:#ff7f0e;stroke-opacity:0.1"
       id="path37" />
  </g>
  <g
     id="line2d_23">
    <path
       clip-path="url(#pd278c62a57)"
       d="m 150.65566,467.93313 2.2454,-10.51452 2.79,-10.06485 2.79,-29.04251 2.79,-16.38169 2.79,-8.82127 2.79,-21.7795 2.79,-3.82256 2.79,-6.9208 h 2.79 l 2.79,-4.27571 5.58,-8.01117 2.79,-43.23746 2.79,-39.71493 2.79,-21.38474 2.79,-25.86135 2.79,-11.62572 2.79,-6.13469 2.79,-4.54124 2.79,-0.85728 2.79,-2.89162 2.79,-14.17772 2.79,-10.69621 2.79,-7.27413 2.79,-5.79411 2.79,-2.98279 2.79,-5.42667 2.79,-2.49404 2.79,-5.20262 2.79,-5.68874 2.79,-5.27419 2.79,-3.60758 2.79,-0.70723 2.79,-8.80088 2.79,-1.8705 2.79,-0.38889 2.79,-2.13355 2.79,-1.23284 2.79,-1.58119 2.79,-2.03735 2.79,-4.998035 2.79,-1.774404 2.79,-1.556205 2.79,-1.316805 2.79,-3.175277 h 2.79 l 2.79,-4.767098 2.79,-2.350259 2.79,-3.049275 2.79,-0.52759 2.79,-2.061189 5.58,-0.107034 2.79,-2.650239 2.79,-0.761125 2.79,-0.35818 2.79,-1.049825 2.79,-2.882386 2.79,-4.792898 2.79,-0.430023 2.79,-1.320888 2.79,-1.871378 2.79,-1.004746 h 2.79 l 2.79,-1.849107 2.79,-2.603534 2.79,-1.409064 2.79,-1.552547 2.79,-0.876184 2.79,-1.133355 5.58,-0.229978 2.79,-1.56812 2.79,-0.932817 2.79,-0.230566 2.79,-1.070407 2.79,-0.424408 2.79,-0.01359 5.58,-0.650447 2.79,-0.403591 2.79,-1.340075 2.79,-0.233377 2.79,-0.9683 5.58,-0.565294 2.79,-0.18951 2.79,-0.832674 2.79,-0.243374 2.79,-0.567853 2.79,-0.211774 2.79,-0.999132 2.79,-0.03334 2.79,-0.410871 2.79,-0.783634 h 2.79 l 2.79,-1.508017 5.58,-0.07147 h 5.58 l 5.58,-0.925351 2.79,-0.112663 2.79,-0.329741 h 2.79 l 2.79,-0.355151 2.79,-0.225161 2.79,-0.461586 13.95,-0.08964 2.79,-0.369236 8.37,-0.279658 2.79,-0.333356 5.58,-0.114474 2.79,-3.75e-4 2.79,-0.245355 5.58,-0.259898 2.79,-0.294572 5.58,-0.112284 5.58,-0.09541 13.95,-0.349064 19.53,-0.263603 5.58,-0.126471 11.16,-0.129842 5.58,-0.07532 5.58,-0.214101 25.11,-0.275141 13.95,-0.0793 5.58,-0.06288 27.9,-0.10039 44.64,-0.117248 v 0"
       style="fill:none;stroke:#ff7f0e;stroke-width:4;stroke-linecap:square;stroke-opacity:0.8"
       id="path540" />
  </g>
  <g
     id="line2d_27" />
  <g
     id="line2d_29" />
  <g
     id="line2d_31" />
  <g
     id="line2d_33" />
  <g
     id="line2d_35" />
  <g
     id="line2d_36">
    <path
       d="m 712.16106,264.24937 h 40"
       style="fill:none;stroke:#ff7f0e;stroke-width:4;stroke-linecap:square;stroke-opacity:0.8"
       id="path808" />
  </g>
  <g
     id="line2d_37" />
  <g
     id="text_26">
    <!-- Auto + PI -->
    <g
       transform="matrix(0.2,0,0,-0.2,768.16106,271.24937)"
       id="g830">
      <path
         d="M 34.1875,63.1875 20.796875,26.90625 h 26.8125 z m -5.578125,9.71875 h 11.1875 L 67.578125,0 h -10.25 L 50.6875,18.703125 H 17.828125 L 11.1875,0 H 0.78125 Z"
         id="use812" />
      <path
         d="M 76.908203,21.578125 V 54.6875 h 8.984375 V 21.921875 q 0,-7.765625 3.015625,-11.65625 3.03125,-3.875 9.09375,-3.875 7.265627,0 11.484377,4.640625 4.23437,4.640625 4.23437,12.65625 v 31 h 8.98438 V 0 H 113.7207 V 8.40625 Q 110.45508,3.421875 106.12695,1 q -4.3125,-2.421875 -10.031247,-2.421875 -9.421875,0 -14.3125,5.859375 -4.875,5.859375 -4.875,17.140625 z M 99.517578,56 Z"
         id="use814" />
      <path
         d="M 150.09961,70.21875 V 54.6875 h 18.5 v -6.984375 h -18.5 v -29.6875 q 0,-6.6875 1.82812,-8.59375 1.82813,-1.90625 7.45313,-1.90625 h 9.21875 V 0 h -9.21875 q -10.40625,0 -14.35938,3.875 -3.95312,3.890625 -3.95312,14.140625 v 29.6875 h -6.59375 V 54.6875 h 6.59375 v 15.53125 z"
         id="use816" />
      <path
         d="m 201.60547,48.390625 q -7.21875,0 -11.42188,-5.640625 -4.20312,-5.640625 -4.20312,-15.453125 0,-9.8125 4.17187,-15.453125 4.1875,-5.640625 11.45313,-5.640625 7.1875,0 11.375,5.65625 4.20312,5.671875 4.20312,15.4375 0,9.71875 -4.20312,15.40625 -4.1875,5.6875 -11.375,5.6875 z m 0,7.609375 q 11.71875,0 18.40625,-7.625 6.70312,-7.609375 6.70312,-21.078125 0,-13.421875 -6.70312,-21.078125 -6.6875,-7.640625 -18.40625,-7.640625 -11.76563,0 -18.4375,7.640625 -6.65625,7.65625 -6.65625,21.078125 0,13.46875 6.65625,21.078125 6.67187,7.625 18.4375,7.625 z"
         id="use818" />
      <path
         id="use820"
         d="" />
      <path
         d="M 309.96484,62.703125 V 35.5 h 27.1875 v -8.296875 h -27.1875 V 0 h -8.20312 V 27.203125 H 274.55859 V 35.5 h 27.20313 v 27.203125 z"
         id="use822" />
      <path
         id="use824"
         d="" />
      <path
         d="M 399.21289,64.796875 V 37.40625 h 12.40625 q 6.89063,0 10.64063,3.5625 3.76562,3.5625 3.76562,10.15625 0,6.546875 -3.76562,10.109375 -3.75,3.5625 -10.64063,3.5625 z m -9.85937,8.109375 h 22.26562 q 12.26563,0 18.53125,-5.546875 6.28125,-5.546875 6.28125,-16.234375 0,-10.796875 -6.28125,-16.3125 -6.26562,-5.515625 -18.53125,-5.515625 H 399.21289 V 0 h -9.85937 z"
         id="use826" />
      <path
         d="m 449.65625,72.90625 h 9.85937 V 0 h -9.85937 z"
         id="use828" />
    </g>
  </g>
  <g
     id="line2d_39" />
  <defs
     id="defs905">
    <clipPath
       id="pd278c62a57">
      <rect
         height="380.52"
         width="558"
         x="136.161063"
         y="31.43625"
         id="rect902" />
    </clipPath>
  </defs>
</svg>
