<?xml version="1.0" encoding="UTF-8" standalone="no"?>
<svg
   xmlns:dc="http://purl.org/dc/elements/1.1/"
   xmlns:cc="http://creativecommons.org/ns#"
   xmlns:rdf="http://www.w3.org/1999/02/22-rdf-syntax-ns#"
   xmlns:svg="http://www.w3.org/2000/svg"
   xmlns="http://www.w3.org/2000/svg"
   xmlns:xlink="http://www.w3.org/1999/xlink"
   xmlns:sodipodi="http://sodipodi.sourceforge.net/DTD/sodipodi-0.dtd"
   xmlns:inkscape="http://www.inkscape.org/namespaces/inkscape"
   height="466.933125pt"
   version="1.1"
   viewBox="0 0 962.754812 466.933125"
   width="962.754812pt"
   id="svg911"
   sodipodi:docname="5_DivNoMig_9_Sim_comp_auto_combination.svg"
   inkscape:version="1.0.2 (1.0.2+r75+1)">
  <sodipodi:namedview
     pagecolor="#ffffff"
     bordercolor="#666666"
     borderopacity="1"
     objecttolerance="10"
     gridtolerance="10"
     guidetolerance="10"
     inkscape:pageopacity="0"
     inkscape:pageshadow="2"
     inkscape:window-width="1856"
     inkscape:window-height="1050"
     id="namedview913"
     showgrid="false"
     inkscape:zoom="2.5692651"
     inkscape:cx="445.33392"
     inkscape:cy="-11.559281"
     inkscape:window-x="64"
     inkscape:window-y="30"
     inkscape:window-maximized="1"
     inkscape:current-layer="svg911" />
  <metadata
     id="metadata2">
    <rdf:RDF>
      <cc:Work>
        <dc:type
           rdf:resource="http://purl.org/dc/dcmitype/StillImage" />
        <dc:date>2021-12-06T16:39:57.629336</dc:date>
        <dc:format>image/svg+xml</dc:format>
        <dc:creator>
          <cc:Agent>
            <dc:title>Matplotlib v3.3.4, https://matplotlib.org/</dc:title>
          </cc:Agent>
        </dc:creator>
        <dc:title></dc:title>
      </cc:Work>
    </rdf:RDF>
  </metadata>
  <defs
     id="defs6">
    <style
       type="text/css"
       id="style4">*{stroke-linecap:butt;stroke-linejoin:round;}</style>
  </defs>
  <g
     id="PolyCollection_8">
    <path
       clip-path="url(#p65e8f78e5f)"
       d="M 136.16106,798.48033 V 2398.1166 l 2.79,-1175.269 2.79,-330.94004 2.79,-78.99645 2.79,-63.87925 2.79,-42.19466 2.79,-10.79589 2.79,-53.84 2.79,-41.46919 2.79,-27.82265 2.79,-26.80725 2.79,-31.09141 h 2.79 l 2.79,-21.73248 2.79,-7.72087 2.79,-3.56654 2.79,-3.69338 2.79,-7.47174 2.79,-34.23355 2.79,-14.06718 2.79,-23.20241 2.79,-25.71756 2.79,-27.83531 2.79,-6.94302 2.79,-19.87752 2.79,-1.51936 2.79,-8.28304 2.79,-8.36303 2.79,-36.70737 2.79,-6.78646 2.79,-14.2473 2.79,-22.12791 2.79,-1.81645 2.79,-34.79441 2.79,-4.14608 2.79,-1.66861 2.79,-0.57054 h 2.79 l 2.79,-5.88808 2.79,-6.61112 2.79,-5.41731 2.79,-0.55217 2.79,-2.99555 2.79,-1.20655 2.79,-0.1682 2.79,-1.29445 2.79,-8.62203 2.79,-1.57964 2.79,-8.63297 2.79,-12.64123 2.79,-1.42606 2.79,-0.69989 2.79,-2.70689 2.79,-2.68675 h 2.79 2.79 l 2.79,-2.84698 2.79,-7.44892 h 2.79 l 2.79,-4.799664 2.79,-2.314123 2.79,-0.193309 h 2.79 l 2.79,-1.024921 2.79,-0.3545 2.79,-0.116665 2.79,-0.296722 h 2.79 l 2.79,-4.318752 2.79,-1.841064 2.79,-1.776452 2.79,-2.39166 2.79,-1.490365 h 2.79 l 2.79,-1.608116 2.79,-5.164009 2.79,-1.098075 2.79,-3.431521 2.79,-1.268047 2.79,-0.205017 h 2.79 2.79 l 2.79,-0.0251 2.79,-0.410473 h 2.79 2.79 2.79 l 2.79,-2.567481 2.79,-0.432693 h 2.79 2.79 l 2.79,-2.774046 2.79,-0.819226 2.79,-0.153367 2.79,-1.476217 2.79,-1.818544 2.79,-0.786864 2.79,-0.442865 2.79,-0.89251 h 2.79 l 2.79,-0.793366 2.79,-0.326805 h 2.79 l 2.79,-2.599343 2.79,-0.294424 2.79,-0.165793 2.79,-0.368254 h 2.79 l 2.79,-2.286477 2.79,-0.48541 2.79,-1.247409 2.79,-0.05694 2.79,-1.389766 h 2.79 2.79 2.79 2.79 l 2.79,-1.835286 2.79,-0.08022 2.79,-1.597585 h 2.79 l 2.79,-0.06246 h 2.79 2.79 l 2.79,-0.0295 2.79,-0.694923 2.79,-0.201774 2.79,-0.116271 h 2.79 l 2.79,-0.05577 2.79,-0.376372 2.79,-0.437602 2.79,-0.863596 2.79,-0.01832 2.79,-0.16453 h 2.79 2.79 l 2.79,-0.0933 h 2.79 2.79 2.79 l 2.79,-0.402656 2.79,-0.698265 2.79,-1.446056 h 2.79 l 2.79,-0.647725 2.79,-0.257116 h 2.79 2.79 l 2.79,-0.138961 h 2.79 2.79 2.79 l 2.79,-0.371444 2.79,-0.10027 h 2.79 2.79 2.79 2.79 2.79 l 2.79,-0.194153 h 2.79 l 2.79,-0.262331 h 2.79 l 2.79,-0.253849 h 2.79 2.79 2.79 2.79 l 2.79,-0.215069 2.79,-0.116052 2.79,-0.04183 h 2.79 2.79 l 2.79,-0.272857 h 2.79 2.79 l 2.79,-0.197601 h 2.79 l 2.79,-0.635286 2.79,-0.185042 h 2.79 l 2.79,-0.01095 2.79,-0.0801 h 2.79 l 2.79,-0.05354 h 2.79 l 2.79,-0.0055 2.79,-0.05667 h 2.79 l 2.79,-0.371693 h 2.79 l 2.79,-0.130737 h 2.79 2.79 2.79 2.79 l 2.79,-0.187641 h 2.79 2.79 v -2.41542 0 h -2.79 -2.79 -2.79 l -2.79,0.0024 -2.79,0.0091 h -2.79 l -2.79,0.0032 h -2.79 l -2.79,0.02042 h -2.79 l -2.79,0.15301 h -2.79 l -2.79,0.05233 h -2.79 -2.79 -2.79 -2.79 l -2.79,0.0609 h -2.79 -2.79 -2.79 -2.79 -2.79 -2.79 l -2.79,0.115145 -2.79,0.07417 -2.79,0.02305 h -2.79 -2.79 -2.79 l -2.79,0.0058 h -2.79 -2.79 l -2.79,0.07658 -2.79,0.04085 h -2.79 l -2.79,0.01323 h -2.79 -2.79 -2.79 l -2.79,7.92e-4 h -2.79 l -2.79,0.06025 -2.79,0.0713 h -2.79 l -2.79,0.167859 -2.79,0.01298 -2.79,0.06565 -2.79,0.06361 -2.79,0.218306 h -2.79 l -2.79,0.0091 -2.79,0.102413 h -2.79 l -2.79,0.130413 h -2.79 l -2.79,0.08503 -2.79,0.03059 -2.79,0.01976 h -2.79 -2.79 -2.79 l -2.79,0.01298 -2.79,0.21638 -2.79,0.258408 -2.79,0.06033 -2.79,0.260826 h -2.79 l -2.79,0.0239 h -2.79 -2.79 -2.79 l -2.79,0.05982 h -2.79 l -2.79,0.108709 -2.79,0.666564 -2.79,0.199593 -2.79,0.453838 h -2.79 -2.79 -2.79 l -2.79,0.242102 -2.79,0.14982 -2.79,0.372263 h -2.79 l -2.79,0.01498 -2.79,0.05802 h -2.79 l -2.79,0.367474 -2.79,0.09476 h -2.79 l -2.79,0.201788 h -2.79 l -2.79,0.916629 -2.79,0.356031 -2.79,0.04567 -2.79,0.305422 h -2.79 l -2.79,0.07978 -2.79,0.908242 -2.79,0.401395 h -2.79 l -2.79,0.166784 -2.79,0.526632 -2.79,0.122037 -2.79,0.06542 -2.79,0.208362 h -2.79 -2.79 l -2.79,1.451788 -2.79,0.184816 -2.79,0.355543 -2.79,0.36479 -2.79,0.324721 h -2.79 l -2.79,1.071858 -2.79,0.485229 -2.79,0.614688 -2.79,0.147431 h -2.79 l -2.79,0.61343 -2.79,1.241021 -2.79,0.997004 -2.79,0.29161 -2.79,0.66456 -2.79,0.556308 -2.79,1.807707 -2.79,1.380246 h -2.79 l -2.79,0.002 -2.79,1.681557 h -2.79 -2.79 l -2.79,3.59734 -2.79,1.360185 -2.79,0.859503 h -2.79 l -2.79,1.151956 -2.79,1.390734 -2.79,2.166611 h -2.79 l -2.79,3.732915 -2.79,0.264585 h -2.79 l -2.79,2.413723 h -2.79 l -2.79,1.842484 h -2.79 l -2.79,0.791822 -2.79,0.365416 -2.79,5.728175 h -2.79 l -2.79,5.923169 -2.79,0.639275 h -2.79 -2.79 l -2.79,1.734018 -2.79,2.785668 -2.79,0.08719 -2.79,1.68151 h -2.79 l -2.79,3.542429 -2.79,10.183336 -2.79,1.72813 -2.79,4.09312 -2.79,5.3456 -2.79,6.18145 -2.79,3.29802 -2.79,0.0432 -2.79,11.61204 -2.79,2.17439 -2.79,0.91285 -2.79,4.09231 -2.79,13.96746 -2.79,2.97977 -2.79,24.41499 -2.79,2.27442 -2.79,15.29679 -2.79,19.42927 -2.79,6.9058 -2.79,11.04603 -2.79,17.53799 -2.79,0.78952 -2.79,7.40516 -2.79,7.04168 -2.79,15.43295 -2.79,8.89653 -2.79,8.58923 h -2.79 l -2.79,7.31445 -2.79,10.24931 -2.79,6.291 -2.79,37.95177 -2.79,26.23261 -2.79,32.12923 -2.79,21.46219 -2.79,53.09714 -2.79,79.69346 z"
       style="fill:#1f77b4;fill-opacity:0.1;stroke:#1f77b4;stroke-opacity:0.1"
       id="path40" />
  </g>
  <g
     id="line2d_24">
    <path
       clip-path="url(#p65e8f78e5f)"
       d="m 161.45401,467.93313 2.60705,-23.68319 2.79,-15.41251 h 2.79 l 2.79,-38.90787 2.79,-3.27031 2.79,-4.85351 2.79,-13.28909 h 2.79 l 2.79,-28.60038 2.79,-7.48356 2.79,-27.09051 2.79,-42.90626 2.79,-21.62583 2.79,-2.19505 2.79,-12.13071 2.79,-12.6538 2.79,-19.80353 2.79,-5.87071 2.79,-8.4958 2.79,-1.47233 2.79,-0.95453 2.79,-11.42603 2.79,-1.75656 2.79,-1.10517 2.79,-0.77287 2.79,-10.30665 2.79,-3.42731 2.79,-1.77875 2.79,-4.54818 2.79,-2.66614 2.79,-2.05878 2.79,-4.7831 2.79,-6.02591 2.79,-2.55792 2.79,-2.96071 2.79,-0.46872 2.79,-3.89088 2.79,-6.33437 2.79,-6.64834 2.79,-1.21158 2.79,-0.31451 2.79,-4.476364 2.79,-3.482404 2.79,-0.520894 h 2.79 l 2.79,-2.445134 2.79,-1.410829 h 2.79 l 2.79,-2.224938 2.79,-4.689065 2.79,-0.778641 2.79,-2.524593 2.79,-1.578434 2.79,-3.056801 2.79,-0.677031 2.79,-0.13958 2.79,-1.262888 2.79,-0.385836 2.79,-2.26183 2.79,-0.211813 2.79,-3.592833 2.79,-0.37528 2.79,-1.413909 2.79,-0.211395 h 2.79 l 2.79,-3.28653 2.79,-0.334925 2.79,-0.15126 2.79,-1.095842 2.79,-0.876946 2.79,-1.031906 2.79,-0.516405 h 2.79 l 2.79,-1.115334 5.58,-4.221441 h 2.79 l 2.79,-0.591361 h 2.79 l 2.79,-0.546128 2.79,-0.191052 2.79,-0.450644 2.79,-1.268978 2.79,-0.492725 2.79,-1.660508 h 2.79 l 2.79,-0.898431 2.79,-0.759092 h 2.79 l 5.58,-1.44713 5.58,-0.128251 2.79,-0.75461 2.79,-0.273932 h 5.58 l 2.79,-0.141685 5.58,-0.07894 5.58,-1.109963 2.79,-0.174855 2.79,-0.0309 2.79,-0.593064 h 2.79 l 2.79,-0.130941 2.79,-0.474001 2.79,-0.679211 h 2.79 l 2.79,-0.17885 2.79,-0.44339 h 2.79 l 5.58,-0.893779 h 2.79 l 2.79,-0.757153 h 5.58 l 2.79,-0.351793 5.58,-0.04498 5.58,-0.102675 2.79,-0.368789 h 2.79 l 2.79,-0.173445 h 11.16 l 8.37,-0.585546 5.58,-0.07286 13.95,-0.154219 16.74,-0.192659 11.16,-0.34975 11.16,-0.05833 2.79,-0.12461 13.95,-0.09039 11.16,-0.167538 8.37,-0.07876 5.58,-0.109988 h 2.79 l 2.79,-0.149689 h 2.79 l 2.79,-0.136046 8.37,-0.08198 19.53,-0.323876 16.74,-0.108523 v 0"
       style="fill:none;stroke:#1f77b4;stroke-width:4;stroke-linecap:square;stroke-opacity:0.8"
       id="path543" />
  </g>
  <g
     id="line2d_27" />
  <g
     id="line2d_29" />
  <g
     id="line2d_31" />
  <g
     id="line2d_33" />
  <g
     id="line2d_35" />
  <g
     id="line2d_37" />
  <g
     id="line2d_38">
    <path
       d="m 712.16106,293.60562 h 40"
       style="fill:none;stroke:#1f77b4;stroke-width:4;stroke-linecap:square;stroke-opacity:0.8"
       id="path837" />
  </g>
  <g
     id="line2d_39" />
  <g
     id="text_27">
    <!-- Combination -->
    <g
       transform="matrix(0.2,0,0,-0.2,768.16106,300.60562)"
       id="g866">
      <defs
         id="defs842">
        <path
           d="m 48.6875,27.296875 q 0,9.90625 -4.078125,15.546875 -4.078125,5.640625 -11.203125,5.640625 -7.140625,0 -11.21875,-5.640625 -4.078125,-5.640625 -4.078125,-15.546875 0,-9.90625 4.078125,-15.546875 4.078125,-5.640625 11.21875,-5.640625 7.125,0 11.203125,5.640625 4.078125,5.640625 4.078125,15.546875 z m -30.578125,19.09375 q 2.84375,4.875 7.15625,7.234375 Q 29.59375,56 35.59375,56 q 9.96875,0 16.1875,-7.90625 6.234375,-7.90625 6.234375,-20.796875 0,-12.890625 -6.234375,-20.8125 -6.21875,-7.90625 -16.1875,-7.90625 -6,0 -10.328125,2.375 -4.3125,2.375 -7.15625,7.25 V 0 h -9.03125 v 75.984375 h 9.03125 z"
           id="DejaVuSans-98" />
      </defs>
      <path
         d="M 64.40625,67.28125 V 56.890625 q -4.984375,4.640625 -10.625,6.921875 -5.640625,2.296875 -11.984375,2.296875 -12.5,0 -19.140625,-7.640625 -6.640625,-7.640625 -6.640625,-22.09375 0,-14.40625 6.640625,-22.046875 Q 29.296875,6.6875 41.796875,6.6875 q 6.34375,0 11.984375,2.296875 5.640625,2.296875 10.625,6.9375 V 5.609375 Q 59.234375,2.09375 53.4375,0.328125 q -5.78125,-1.75 -12.21875,-1.75 -16.5625,0 -26.09375,10.125 Q 5.609375,18.84375 5.609375,36.375 q 0,17.578125 9.515625,27.703125 9.53125,10.140625 26.09375,10.140625 6.53125,0 12.3125,-1.734375 5.796875,-1.734375 10.875,-5.203125 z"
         id="use844" />
      <path
         d="m 100.43359,48.390625 q -7.218746,0 -11.421871,-5.640625 -4.203125,-5.640625 -4.203125,-15.453125 0,-9.8125 4.171875,-15.453125 4.1875,-5.640625 11.453121,-5.640625 7.1875,0 11.375,5.65625 4.20313,5.671875 4.20313,15.4375 0,9.71875 -4.20313,15.40625 -4.1875,5.6875 -11.375,5.6875 z m 0,7.609375 q 11.71875,0 18.40625,-7.625 6.70313,-7.609375 6.70313,-21.078125 0,-13.421875 -6.70313,-21.078125 -6.6875,-7.640625 -18.40625,-7.640625 -11.765621,0 -18.437496,7.640625 -6.65625,7.65625 -6.65625,21.078125 0,13.46875 6.65625,21.078125 Q 88.667969,56 100.43359,56 Z"
         id="use846" />
      <path
         d="m 183.00586,44.1875 q 3.375,6.0625 8.0625,8.9375 4.6875,2.875 11.03125,2.875 8.54687,0 13.1875,-5.984375 4.64062,-5.96875 4.64062,-17 V 0 h -9.03125 v 32.71875 q 0,7.859375 -2.79687,11.65625 -2.78125,3.8125 -8.48438,3.8125 -6.98437,0 -11.04687,-4.640625 -4.04688,-4.625 -4.04688,-12.640625 V 0 h -9.03125 v 32.71875 q 0,7.90625 -2.78125,11.6875 -2.78125,3.78125 -8.59375,3.78125 -6.89062,0 -10.95312,-4.65625 -4.04688,-4.65625 -4.04688,-12.625 V 0 h -9.03125 v 54.6875 h 9.03125 v -8.5 q 3.07813,5.03125 7.375,7.421875 Q 160.78711,56 166.69336,56 q 5.96875,0 10.14062,-3.03125 4.17188,-3.015625 6.17188,-8.78125 z"
         id="use848" />
      <use
         x="228.41797"
         xlink:href="#DejaVuSans-98"
         id="use850"
         y="0"
         width="100%"
         height="100%" />
      <path
         d="m 301.31641,54.6875 h 8.98437 V 0 h -8.98437 z m 0,21.296875 h 8.98437 V 64.59375 h -8.98437 z"
         id="use852" />
      <path
         d="M 374.56836,33.015625 V 0 h -8.98438 v 32.71875 q 0,7.765625 -3.03125,11.609375 -3.03125,3.859375 -9.07812,3.859375 -7.28125,0 -11.48438,-4.640625 -4.20312,-4.625 -4.20312,-12.640625 V 0 h -9.03125 v 54.6875 h 9.03125 v -8.5 q 3.23437,4.9375 7.59375,7.375 4.375,2.4375 10.09375,2.4375 9.42187,0 14.25,-5.828125 4.84375,-5.828125 4.84375,-17.15625 z"
         id="use854" />
      <path
         d="m 417.33789,27.484375 q -10.89062,0 -15.09375,-2.484375 -4.20312,-2.484375 -4.20312,-8.5 0,-4.78125 3.15625,-7.59375 3.15625,-2.796875 8.5625,-2.796875 7.48437,0 12,5.296875 4.51562,5.296875 4.51562,14.078125 v 2 z m 17.92188,3.71875 V 0 h -8.98438 v 8.296875 q -3.07812,-4.96875 -7.67187,-7.34375 -4.59375,-2.375 -11.23438,-2.375 -8.39062,0 -13.35937,4.71875 -4.95313,4.71875 -4.95313,12.625 0,9.21875 6.17188,13.90625 6.1875,4.6875 18.4375,4.6875 h 12.60937 v 0.890625 q 0,6.203125 -4.07812,9.59375 -4.07813,3.390625 -11.45313,3.390625 -4.6875,0 -9.14062,-1.125 -4.4375,-1.125 -8.53125,-3.375 v 8.3125 q 4.92187,1.90625 9.5625,2.84375 Q 407.27539,56 411.66602,56 q 11.875,0 17.73437,-6.15625 5.85938,-6.140625 5.85938,-18.640625 z"
         id="use856" />
      <path
         d="M 462.64844,70.21875 V 54.6875 h 18.5 v -6.984375 h -18.5 v -29.6875 q 0,-6.6875 1.82812,-8.59375 1.82813,-1.90625 7.45313,-1.90625 h 9.21875 V 0 h -9.21875 q -10.40625,0 -14.35938,3.875 -3.95312,3.890625 -3.95312,14.140625 v 29.6875 h -6.59375 V 54.6875 h 6.59375 v 15.53125 z"
         id="use858" />
      <path
         d="m 492.9668,54.6875 h 8.98437 V 0 h -8.98437 z m 0,21.296875 h 8.98437 V 64.59375 h -8.98437 z"
         id="use860" />
      <path
         d="m 541.9375,48.390625 q -7.21875,0 -11.42188,-5.640625 -4.20312,-5.640625 -4.20312,-15.453125 0,-9.8125 4.17187,-15.453125 4.1875,-5.640625 11.45313,-5.640625 7.1875,0 11.375,5.65625 4.20312,5.671875 4.20312,15.4375 0,9.71875 -4.20312,15.40625 -4.1875,5.6875 -11.375,5.6875 z m 0,7.609375 q 11.71875,0 18.40625,-7.625 6.70312,-7.609375 6.70312,-21.078125 0,-13.421875 -6.70312,-21.078125 -6.6875,-7.640625 -18.40625,-7.640625 -11.76563,0 -18.4375,7.640625 -6.65625,7.65625 -6.65625,21.078125 0,13.46875 6.65625,21.078125 Q 530.17187,56 541.9375,56 Z"
         id="use862" />
      <path
         d="M 627.40039,33.015625 V 0 h -8.98437 v 32.71875 q 0,7.765625 -3.03125,11.609375 -3.03125,3.859375 -9.07813,3.859375 -7.28125,0 -11.48437,-4.640625 -4.20313,-4.625 -4.20313,-12.640625 V 0 h -9.03125 v 54.6875 h 9.03125 v -8.5 q 3.23438,4.9375 7.59375,7.375 4.375,2.4375 10.09375,2.4375 9.42188,0 14.25,-5.828125 4.84375,-5.828125 4.84375,-17.15625 z"
         id="use864" />
    </g>
  </g>
  <defs
     id="defs909">
    <clipPath
       id="p65e8f78e5f">
      <rect
         height="380.52"
         width="558"
         x="136.161063"
         y="31.43625"
         id="rect906" />
    </clipPath>
  </defs>
</svg>
