<?xml version="1.0" encoding="UTF-8" standalone="no"?>
<svg
   xmlns:dc="http://purl.org/dc/elements/1.1/"
   xmlns:cc="http://creativecommons.org/ns#"
   xmlns:rdf="http://www.w3.org/1999/02/22-rdf-syntax-ns#"
   xmlns:svg="http://www.w3.org/2000/svg"
   xmlns="http://www.w3.org/2000/svg"
   xmlns:xlink="http://www.w3.org/1999/xlink"
   xmlns:sodipodi="http://sodipodi.sourceforge.net/DTD/sodipodi-0.dtd"
   xmlns:inkscape="http://www.inkscape.org/namespaces/inkscape"
   height="466.933125pt"
   version="1.1"
   viewBox="0 0 962.754812 466.933125"
   width="962.754812pt"
   id="svg907"
   sodipodi:docname="5_DivNoMig_9_Sim_comp_auto_logei.svg"
   inkscape:version="1.0.2 (1.0.2+r75+1)">
  <sodipodi:namedview
     pagecolor="#ffffff"
     bordercolor="#666666"
     borderopacity="1"
     objecttolerance="10"
     gridtolerance="10"
     guidetolerance="10"
     inkscape:pageopacity="0"
     inkscape:pageshadow="2"
     inkscape:window-width="1856"
     inkscape:window-height="1050"
     id="namedview909"
     showgrid="false"
     inkscape:zoom="1.8661698"
     inkscape:cx="796.22325"
     inkscape:cy="185.08282"
     inkscape:window-x="64"
     inkscape:window-y="30"
     inkscape:window-maximized="1"
     inkscape:current-layer="svg907" />
  <metadata
     id="metadata2">
    <rdf:RDF>
      <cc:Work>
        <dc:type
           rdf:resource="http://purl.org/dc/dcmitype/StillImage" />
        <dc:date>2021-12-06T18:08:29.347978</dc:date>
        <dc:format>image/svg+xml</dc:format>
        <dc:creator>
          <cc:Agent>
            <dc:title>Matplotlib v3.3.4, https://matplotlib.org/</dc:title>
          </cc:Agent>
        </dc:creator>
        <dc:title></dc:title>
      </cc:Work>
    </rdf:RDF>
  </metadata>
  <defs
     id="defs6">
    <style
       type="text/css"
       id="style4">*{stroke-linecap:butt;stroke-linejoin:round;}</style>
  </defs>
  <g
     id="PolyCollection_6">
    <path
       clip-path="url(#pd278c62a57)"
       d="M 136.16106,770.4267 V 3063.949 l 2.79,-1871.9361 2.79,-241.13705 2.79,-129.65952 2.79,-79.45677 2.79,-56.35923 2.79,-58.4537 2.79,-19.2259 2.79,-15.02573 h 2.79 l 2.79,-64.47263 2.79,-29.26429 2.79,-0.26248 2.79,-0.30222 2.79,-40.20432 2.79,-4.31244 2.79,-3.75156 2.79,-35.10937 2.79,-35.43477 h 2.79 l 2.79,-7.82754 2.79,-34.13825 h 2.79 l 2.79,-33.55015 2.79,-0.99935 2.79,-1.58426 2.79,-0.14968 2.79,-8.78015 2.79,-1.45751 2.79,-24.25975 h 2.79 2.79 l 2.79,-12.62608 2.79,-16.4117 2.79,-6.30249 2.79,-15.76525 2.79,-2.73314 2.79,-4.44602 2.79,-5.22418 2.79,-5.45931 2.79,-0.87143 2.79,-1.31403 2.79,-8.26964 2.79,-2.86826 2.79,-2.88236 2.79,-5.96528 2.79,-5.40666 h 2.79 l 2.79,-3.25972 2.79,-3.62372 2.79,-1.63826 2.79,-10.646 h 2.79 l 2.79,-8.72237 2.79,-4.70521 2.79,-0.52401 2.79,-1.86108 h 2.79 l 2.79,-3.28516 h 2.79 l 2.79,-3.37802 2.79,-2.96166 h 2.79 l 2.79,-1.10737 2.79,-1.28384 2.79,-3.31337 h 2.79 l 2.79,-3.89048 2.79,-1.24351 h 2.79 l 2.79,-5.64035 h 2.79 2.79 2.79 l 2.79,-1.07447 h 2.79 l 2.79,-0.92472 h 2.79 2.79 2.79 2.79 2.79 2.79 2.79 2.79 l 2.79,-1.43058 h 2.79 2.79 2.79 2.79 2.79 2.79 2.79 2.79 2.79 2.79 l 2.79,-0.24499 h 2.79 2.79 2.79 2.79 2.79 2.79 2.79 2.79 2.79 2.79 2.79 2.79 2.79 2.79 2.79 l 2.79,-0.50615 h 2.79 2.79 2.79 2.79 l 2.79,-2.93341 2.79,-2.49173 h 2.79 2.79 2.79 2.79 2.79 2.79 2.79 2.79 2.79 2.79 2.79 2.79 2.79 2.79 2.79 2.79 l 2.79,-0.471463 2.79,-0.281176 2.79,-0.309784 h 2.79 l 2.79,-0.164718 2.79,-2.457604 h 2.79 l 2.79,-0.231062 2.79,-0.124351 2.79,-0.05765 h 2.79 l 2.79,-0.235054 2.79,-0.210053 2.79,-3.809777 2.79,-0.15325 2.79,-0.449387 2.79,-0.342093 2.79,-0.194481 h 2.79 l 2.79,-0.0081 2.79,-0.603052 2.79,-0.384818 2.79,-0.240048 h 2.79 l 2.79,-0.379093 2.79,-0.268895 2.79,-3.627377 h 2.79 l 2.79,-0.306693 2.79,-1.019616 h 2.79 l 2.79,-0.216012 2.79,-0.05927 2.79,-0.258136 2.79,-0.286533 2.79,-0.303669 2.79,-0.229994 h 2.79 l 2.79,-0.270205 2.79,-0.223181 2.79,-0.134773 2.79,-0.04172 2.79,-0.140259 2.79,-0.04611 h 2.79 2.79 l 2.79,-0.394687 h 2.79 2.79 2.79 l 2.79,-2.071707 h 2.79 2.79 2.79 2.79 2.79 2.79 2.79 2.79 2.79 2.79 2.79 2.79 l 2.79,-1.0656 h 2.79 v -28.344884 0 h -2.79 -2.79 -2.79 -2.79 -2.79 -2.79 -2.79 -2.79 -2.79 -2.79 -2.79 -2.79 -2.79 -2.79 -2.79 -2.79 -2.79 -2.79 -2.79 -2.79 -2.79 -2.79 -2.79 -2.79 -2.79 -2.79 -2.79 -2.79 -2.79 -2.79 -2.79 l -2.79,0.280433 -2.79,0.753142 h -2.79 -2.79 -2.79 -2.79 -2.79 -2.79 -2.79 -2.79 -2.79 -2.79 l -2.79,0.0564 h -2.79 -2.79 -2.79 -2.79 -2.79 -2.79 l -2.79,0.879079 h -2.79 -2.79 -2.79 l -2.79,1.14118 h -2.79 -2.79 -2.79 -2.79 -2.79 -2.79 l -2.79,1.622883 h -2.79 -2.79 -2.79 -2.79 -2.79 -2.79 l -2.79,0.512451 h -2.79 -2.79 -2.79 -2.79 -2.79 l -2.79,0.02803 -2.79,0.04315 h -2.79 -2.79 -2.79 -2.79 -2.79 -2.79 -2.79 -2.79 -2.79 -2.79 l -2.79,0.119212 -2.79,0.377381 -2.79,0.0283 h -2.79 -2.79 -2.79 l -2.79,0.03076 h -2.79 l -2.79,0.03787 -2.79,0.564148 -2.79,1.278574 -2.79,0.10223 h -2.79 -2.79 l -2.79,0.586091 h -2.79 l -2.79,1.383954 h -2.79 l -2.79,0.251209 h -2.79 l -2.79,1.769538 h -2.79 -2.79 -2.79 -2.79 l -2.79,0.368505 -2.79,0.916442 -2.79,2.948203 h -2.79 -2.79 -2.79 l -2.79,1.108318 -2.79,0.919795 -2.79,0.420359 h -2.79 -2.79 -2.79 l -2.79,0.168214 -2.79,2.722067 h -2.79 -2.79 -2.79 l -2.79,2.338368 -2.79,2.390987 -2.79,3.784499 -2.79,0.87333 h -2.79 -2.79 -2.79 l -2.79,0.751238 -2.79,1.485169 -2.79,4.714613 -2.79,0.465772 h -2.79 l -2.79,0.998016 -2.79,1.205014 h -2.79 l -2.79,2.646465 h -2.79 l -2.79,2.674235 -2.79,0.85472 h -2.79 -2.79 l -2.79,1.943427 -2.79,3.284384 -2.79,1.121 -2.79,0.62044 -2.79,3.5309 -2.79,1.34987 -2.79,0.66972 h -2.79 -2.79 l -2.79,3.56053 -2.79,6.83496 -2.79,2.14908 -2.79,0.83612 -2.79,4.51591 -2.79,2.32453 -2.79,2.48371 -2.79,4.07017 -2.79,13.03609 -2.79,1.89575 h -2.79 l -2.79,5.84945 -2.79,3.86583 -2.79,11.32334 -2.79,7.13903 -2.79,6.23292 h -2.79 l -2.79,5.75645 -2.79,19.29295 -2.79,3.14401 -2.79,2.81909 -2.79,17.32434 -2.79,6.55394 -2.79,27.04601 -2.79,6.8018 -2.79,11.74662 -2.79,13.46748 -2.79,2.60103 -2.79,9.63174 h -2.79 l -2.79,6.48544 -2.79,38.64071 h -2.79 l -2.79,7.04424 h -2.79 l -2.79,20.45637 -2.79,42.72393 -2.79,12.99505 -2.79,93.19619 -2.79,82.06364 z"
       style="fill:#9467bd;fill-opacity:0.1;stroke:#9467bd;stroke-opacity:0.1"
       id="path34" />
  </g>
  <g
     id="line2d_22">
    <path
       clip-path="url(#pd278c62a57)"
       d="m 152.72924,467.93313 0.17182,-1.90832 h 2.79 l 2.79,-11.17325 h 2.79 l 2.79,-13.79422 2.79,-20.75788 2.79,-6.97052 2.79,-24.9388 2.79,-19.3786 2.79,-7.19068 2.79,-3.52333 2.79,-20.4387 2.79,-31.85688 2.79,-0.67618 2.79,-14.29511 2.79,-9.63543 2.79,-12.44354 2.79,-30.16409 2.79,-1.27409 2.79,-3.9965 2.79,-10.51873 2.79,-5.03853 2.79,-3.31846 2.79,-16.01262 5.58,-8.25024 2.79,-3.431 2.79,-6.04012 2.79,-10.61998 2.79,-2.61934 h 5.58 l 2.79,-12.84351 5.58,-6.09378 2.79,-2.48465 2.79,-3.58621 2.79,-4.66169 h 2.79 l 2.79,-4.11758 2.79,-2.42302 2.79,-4.88072 2.79,-2.28881 2.79,-3.16223 2.79,-0.009 2.79,-0.5731 h 2.79 l 2.79,-5.98809 2.79,-3.07033 2.79,-2.02522 2.79,-0.49567 2.79,-1.74308 h 2.79 l 2.79,-1.4288 2.79,-1.22677 2.79,-2.5736 2.79,-0.46464 2.79,-4.044853 2.79,-0.339184 2.79,-0.06508 2.79,-2.251477 2.79,-2.635887 2.79,-2.203982 2.79,-1.034717 2.79,-0.720194 2.79,-0.235214 2.79,-1.017174 h 2.79 l 2.79,-1.098045 h 13.95 l 2.79,-2.204916 h 11.16 l 2.79,-0.204117 h 2.79 l 2.79,-1.332375 2.79,-0.313473 h 8.37 l 2.79,-0.358401 h 2.79 l 2.79,-0.527469 h 22.32 l 2.79,-0.519819 h 13.95 l 2.79,-0.336742 19.53,-0.07628 2.79,-0.438056 h 11.16 l 2.79,-0.3845 h 2.79 l 2.79,-2.969799 h 2.79 l 2.79,-2.906598 h 13.95 l 2.79,-0.588216 h 8.37 l 2.79,-0.323482 h 8.37 l 2.79,-1.412096 h 2.79 l 2.79,-0.605967 h 5.58 l 2.79,-0.902325 h 5.58 l 2.79,-1.814387 5.58,-0.08386 h 13.95 l 2.79,-1.192165 2.79,-0.190164 h 11.16 l 5.58,-1.87592 2.79,-0.148903 h 13.95 l 2.79,-0.365304 h 2.79 l 2.79,-1.285938 h 2.79 l 2.79,-1.051085 h 27.9 l 2.79,-0.365315 h 13.95 l 2.79,-0.408378 h 11.16 l 2.79,-0.75062 h 2.79 l 2.79,-1.482434 h 2.79 v 0"
       style="fill:none;stroke:#9467bd;stroke-width:4;stroke-linecap:square;stroke-opacity:0.8"
       id="path537" />
  </g>
  <g
     id="line2d_27" />
  <g
     id="line2d_29" />
  <g
     id="line2d_31" />
  <g
     id="line2d_33" />
  <g
     id="line2d_34">
    <path
       d="m 712.16106,234.89312 h 40"
       style="fill:none;stroke:#9467bd;stroke-width:4;stroke-linecap:square;stroke-opacity:0.8"
       id="path774" />
  </g>
  <g
     id="line2d_35" />
  <g
     id="text_25">
    <!-- Auto + logEI -->
    <g
       transform="matrix(0.2,0,0,-0.2,768.16106,241.89312)"
       id="g805">
      <defs
         id="defs779">
        <path
           d="M 34.1875,63.1875 20.796875,26.90625 h 26.8125 z m -5.578125,9.71875 h 11.1875 L 67.578125,0 h -10.25 L 50.6875,18.703125 H 17.828125 L 11.1875,0 H 0.78125 Z"
           id="DejaVuSans-65" />
      </defs>
      <use
         xlink:href="#DejaVuSans-65"
         id="use781"
         x="0"
         y="0"
         width="100%"
         height="100%" />
      <path
         d="M 76.908203,21.578125 V 54.6875 h 8.984375 V 21.921875 q 0,-7.765625 3.015625,-11.65625 3.03125,-3.875 9.09375,-3.875 7.265627,0 11.484377,4.640625 4.23437,4.640625 4.23437,12.65625 v 31 h 8.98438 V 0 H 113.7207 V 8.40625 Q 110.45508,3.421875 106.12695,1 q -4.3125,-2.421875 -10.031247,-2.421875 -9.421875,0 -14.3125,5.859375 -4.875,5.859375 -4.875,17.140625 z M 99.517578,56 Z"
         id="use783" />
      <path
         d="M 150.09961,70.21875 V 54.6875 h 18.5 v -6.984375 h -18.5 v -29.6875 q 0,-6.6875 1.82812,-8.59375 1.82813,-1.90625 7.45313,-1.90625 h 9.21875 V 0 h -9.21875 q -10.40625,0 -14.35938,3.875 -3.95312,3.890625 -3.95312,14.140625 v 29.6875 h -6.59375 V 54.6875 h 6.59375 v 15.53125 z"
         id="use785" />
      <path
         d="m 201.60547,48.390625 q -7.21875,0 -11.42188,-5.640625 -4.20312,-5.640625 -4.20312,-15.453125 0,-9.8125 4.17187,-15.453125 4.1875,-5.640625 11.45313,-5.640625 7.1875,0 11.375,5.65625 4.20312,5.671875 4.20312,15.4375 0,9.71875 -4.20312,15.40625 -4.1875,5.6875 -11.375,5.6875 z m 0,7.609375 q 11.71875,0 18.40625,-7.625 6.70312,-7.609375 6.70312,-21.078125 0,-13.421875 -6.70312,-21.078125 -6.6875,-7.640625 -18.40625,-7.640625 -11.76563,0 -18.4375,7.640625 -6.65625,7.65625 -6.65625,21.078125 0,13.46875 6.65625,21.078125 6.67187,7.625 18.4375,7.625 z"
         id="use787" />
      <path
         id="use789"
         d="" />
      <path
         d="M 309.96484,62.703125 V 35.5 h 27.1875 v -8.296875 h -27.1875 V 0 h -8.20312 V 27.203125 H 274.55859 V 35.5 h 27.20313 v 27.203125 z"
         id="use791" />
      <path
         id="use793"
         d="" />
      <path
         d="m 388.96289,75.984375 h 8.98438 V 0 h -8.98438 z"
         id="use795" />
      <path
         d="m 437.93359,48.390625 q -7.21875,0 -11.42187,-5.640625 -4.20313,-5.640625 -4.20313,-15.453125 0,-9.8125 4.17188,-15.453125 4.1875,-5.640625 11.45312,-5.640625 7.1875,0 11.375,5.65625 4.20313,5.671875 4.20313,15.4375 0,9.71875 -4.20313,15.40625 -4.1875,5.6875 -11.375,5.6875 z m 0,7.609375 q 11.71875,0 18.40625,-7.625 6.70313,-7.609375 6.70313,-21.078125 0,-13.421875 -6.70313,-21.078125 -6.6875,-7.640625 -18.40625,-7.640625 -11.76562,0 -18.4375,7.640625 -6.65625,7.65625 -6.65625,21.078125 0,13.46875 6.65625,21.078125 6.67188,7.625 18.4375,7.625 z"
         id="use797" />
      <path
         d="m 513.91211,27.984375 q 0,9.765625 -4.03125,15.125 -4.01563,5.375 -11.29688,5.375 -7.21875,0 -11.25,-5.375 -4.03125,-5.359375 -4.03125,-15.125 0,-9.71875 4.03125,-15.09375 4.03125,-5.375 11.25,-5.375 7.28125,0 11.29688,5.375 4.03125,5.375 4.03125,15.09375 z M 522.89648,6.78125 q 0,-13.953125 -6.20312,-20.765625 -6.1875,-6.8125 -18.98438,-6.8125 -4.73437,0 -8.9375,0.703125 -4.20312,0.703125 -8.15625,2.171875 V -9.1875 q 3.95313,-2.140625 7.8125,-3.15625 3.85938,-1.03125 7.85938,-1.03125 8.84375,0 13.23437,4.609375 4.39063,4.609375 4.39063,13.9375 V 9.625 Q 511.13086,4.78125 506.78711,2.390625 502.44336,0 496.38086,0 q -10.04688,0 -16.20313,7.65625 -6.15625,7.671875 -6.15625,20.328125 0,12.6875 6.15625,20.34375 Q 486.33398,56 496.38086,56 q 6.0625,0 10.40625,-2.390625 4.34375,-2.390625 7.125,-7.21875 V 54.6875 h 8.98437 z"
         id="use799" />
      <path
         d="m 541.79492,72.90625 h 46.09375 v -8.3125 H 551.6543 V 43.015625 h 34.71875 V 34.71875 H 551.6543 V 8.296875 h 37.10937 V 0 h -46.96875 z"
         id="use801" />
      <path
         d="m 604.97852,72.90625 h 9.85937 V 0 h -9.85937 z"
         id="use803" />
    </g>
  </g>
  <g
     id="line2d_37" />
  <g
     id="line2d_39" />
  <defs
     id="defs905">
    <clipPath
       id="pd278c62a57">
      <rect
         height="380.52"
         width="558"
         x="136.161063"
         y="31.43625"
         id="rect902" />
    </clipPath>
  </defs>
</svg>
