<?xml version="1.0" encoding="UTF-8" standalone="no"?>
<svg
   viewBox="0 0 300 103"
   version="1.1"
   id="svg346"
   sodipodi:docname="hidden_sign.svg"
   width="300"
   height="103"
   inkscape:version="1.3.2 (1:1.3.2+202311252150+091e20ef0f)"
   xmlns:inkscape="http://www.inkscape.org/namespaces/inkscape"
   xmlns:sodipodi="http://sodipodi.sourceforge.net/DTD/sodipodi-0.dtd"
   xmlns="http://www.w3.org/2000/svg"
   xmlns:svg="http://www.w3.org/2000/svg"
   xmlns:rdf="http://www.w3.org/1999/02/22-rdf-syntax-ns#"
   xmlns:cc="http://creativecommons.org/ns#"
   xmlns:dc="http://purl.org/dc/elements/1.1/">
  <sodipodi:namedview
     id="namedview346"
     pagecolor="#ffffff"
     bordercolor="#000000"
     borderopacity="0.25"
     inkscape:showpageshadow="2"
     inkscape:pageopacity="0.0"
     inkscape:pagecheckerboard="0"
     inkscape:deskcolor="#d1d1d1"
     inkscape:zoom="1.9694942"
     inkscape:cx="155.36984"
     inkscape:cy="79.715899"
     inkscape:window-width="1223"
     inkscape:window-height="779"
     inkscape:window-x="57"
     inkscape:window-y="21"
     inkscape:window-maximized="1"
     inkscape:current-layer="Layer_1" />
  <defs
     id="defs1">
    <style
       id="style1">.cls-1,.cls-18,.cls-19{fill:#fff;}.cls-10,.cls-11,.cls-12,.cls-13,.cls-14,.cls-15,.cls-16,.cls-17,.cls-2,.cls-3,.cls-4,.cls-5,.cls-6,.cls-7,.cls-8,.cls-9{fill:none;stroke-linecap:round;}.cls-2,.cls-3{stroke:#231f20;}.cls-2{stroke-miterlimit:10;}.cls-10,.cls-11,.cls-12,.cls-13,.cls-14,.cls-15,.cls-16,.cls-17,.cls-3,.cls-4,.cls-5,.cls-6,.cls-7,.cls-8,.cls-9{stroke-linejoin:round;}.cls-10,.cls-11,.cls-12,.cls-4,.cls-5,.cls-6,.cls-7,.cls-9{stroke:#fff200;}.cls-4{stroke-width:4px;}.cls-5{stroke-width:5px;}.cls-6{stroke-width:2px;}.cls-15,.cls-7,.cls-8{stroke-width:1.5px;}.cls-13,.cls-8{stroke:#ff883d;}.cls-9{stroke-width:2.12px;}.cls-10{stroke-width:2.65px;}.cls-11{stroke-width:1.06px;}.cls-12,.cls-13,.cls-17{stroke-width:0.8px;}.cls-14,.cls-16{stroke:#c6cdce;}.cls-14{stroke-width:3px;}.cls-15,.cls-17{stroke:gray;}.cls-16{stroke-width:1.59px;}.cls-18{opacity:0.5;}.cls-19{opacity:0.75;}.cls-20{font-size:6px;font-family:TimesNewRomanPSMT, Times New Roman;}.cls-21{fill:#231f20;}</style>
  </defs>
  <title
     id="title1">markov_chain</title>
  <g
     id="Layer_1"
     data-name="Layer 1">
    <path
       class="cls-21"
       d="m 58.87,90.890476 a 64.48,64.48 0 0 0 3.12,10.190004 c 0.19,0.44 0.84,0.06 0.65,-0.38 a 61.44,61.44 0 0 1 -3,-10.000004 0.38,0.38 0 0 0 -0.73,0.2 z"
       id="path347-9"
       style="fill:#231f20" />
    <path
       class="cls-21"
       d="m 62.43,90.740476 c -0.79,3.52 -2.58,6.91 -4,10.220004 -0.19,0.44 0.54,0.64 0.72,0.2 1.4,-3.320004 3.2,-6.700004 4,-10.220004 0.11,-0.47 -0.61,-0.67 -0.72,-0.2 z"
       id="path348-2"
       style="fill:#231f20" />
    <path
       class="cls-21"
       d="m 63.78,90.040476 c -0.8,1.87 -0.6,4.13 -0.62,6.13 a 8.65,8.65 0 0 0 1.42,5.660004 c 0.29,0.38 0.94,0 0.65,-0.38 a 8,8 0 0 1 -1.32,-5.280004 c 0,-1.81 -0.2,-4.07 0.51,-5.75 0.19,-0.44 -0.46,-0.82 -0.64,-0.38 z"
       id="path349-2"
       style="fill:#231f20" />
    <path
       class="cls-21"
       d="m 66.64,90.990476 c -0.3,3 -0.76,6.47 -0.31,9.500004 0.19,1.28 0.87,1.53 2.12,1.25 0.47,-0.1 0.28,-0.82 -0.2,-0.72 -1.82,0.4 -1.22,-4.000004 -1.19,-4.890004 0,-1.72 0.16,-3.43 0.33,-5.14 0,-0.48 -0.71,-0.48 -0.75,0 z"
       id="path350-4"
       style="fill:#231f20" />
    <path
       class="cls-21"
       d="m 64.97,96.310476 a 17.24,17.24 0 0 1 2,-0.29 c 0.29,0 0.57,0 0.86,0 h 0.43 c 0.32,0.07 0.37,0 0.15,-0.11 l 0.1,-0.36 -0.06,0.07 c -0.31,0.36 0.22,0.9 0.53,0.53 0.31,-0.37 -0.08,-0.85 -0.58,-0.87 a 14.92,14.92 0 0 0 -3.65,0.35 c -0.47,0.1 -0.27,0.82 0.2,0.72 z"
       id="path351-7"
       style="fill:#231f20" />
    <path
       class="cls-21"
       d="m 69.2,98.210476 a 35.37,35.37 0 0 1 0.09,4.120004 0.38,0.38 0 0 0 0.75,0 35.37,35.37 0 0 0 -0.09,-4.120004 c 0,-0.48 -0.79,-0.48 -0.75,0 z"
       id="path352-7"
       style="fill:#231f20" />
    <path
       class="cls-21"
       d="m 71.38,100.26048 0.15,-0.320004 -0.68,-0.29 a 3,3 0 0 1 -0.88,1.180004 0.37,0.37 0 0 0 0.07,0.59 6.21,6.21 0 0 1 1.15,0.8 c 0.36,0.32 0.89,-0.2 0.53,-0.53 a 6.9,6.9 0 0 0 -1.3,-0.91 l 0.08,0.58 a 3.76,3.76 0 0 0 1.07,-1.510004 c 0.16,-0.4 -0.5,-0.68 -0.68,-0.29 l -0.16,0.32 c -0.21,0.430004 0.44,0.810004 0.65,0.380004 z"
       id="path353-5"
       style="fill:#231f20" />
    <path
       class="cls-21"
       d="m 71.38,90.420476 a 13.75,13.75 0 0 1 0.17,10.520004 c -0.17,0.45 0.55,0.64 0.72,0.2 A 14.48,14.48 0 0 0 72.03,90.040476 c -0.19,-0.44 -0.84,-0.06 -0.65,0.38 z"
       id="path354-4"
       style="fill:#231f20" />
    <path
       class="cls-21"
       d="m 29.379421,91.806277 a 56.828151,56.828151 0 0 1 -0.164993,9.286733 c 0,0.56568 0.824963,0.56568 0.883889,0 a 56.828151,56.828151 0 0 0 0.164992,-9.286733 c 0,-0.565688 -0.919244,-0.565688 -0.883888,0 z"
       id="path365"
       style="fill:#231f20;stroke-width:1.17852" />
    <path
       class="cls-21"
       d="m 30.334021,97.038898 a 12.739782,12.739782 0 0 1 3.724117,-0.223918 c 0.565689,0 0.553904,-0.836748 0,-0.883889 a 13.128694,13.128694 0 0 0 -3.959821,0.259274 c -0.553904,0.117852 -0.3182,0.966385 0.235704,0.848533 z"
       id="path366"
       style="fill:#231f20;stroke-width:1.17852" />
    <path
       class="cls-21"
       d="m 34.093494,91.582359 a 59.915869,59.915869 0 0 0 -0.6364,9.534221 c 0,0.56569 0.860318,0.56569 0.883889,0 a 59.739091,59.739091 0 0 1 0.601044,-9.298517 c 0.117852,-0.553904 -0.730681,-0.789608 -0.848533,-0.235704 z"
       id="path367"
       style="fill:#231f20;stroke-width:1.17852" />
    <path
       class="cls-21"
       d="m 35.036308,95.341832 0.129637,5.786528 a 0.44783694,0.44783694 0 0 0 0.883889,0 l -0.129637,-5.786528 a 0.44783694,0.44783694 0 0 0 -0.883889,0 z"
       id="path368"
       style="fill:#231f20;stroke-width:1.17852" />
    <path
       class="cls-21"
       d="m 35.048094,93.644766 0.09428,0.153207 c 0.29463,0.471408 1.060667,0 0.754252,-0.447837 l -0.0825,-0.141422 c -0.306415,-0.483192 -1.072452,0 -0.766037,0.436052 z"
       id="path369"
       style="fill:#231f20;stroke-width:1.17852" />
    <path
       class="cls-21"
       d="m 39.891804,96.602847 a 1.4613627,1.4613627 0 0 0 -2.533815,-1.037096 c -1.178518,0.954599 -1.390651,3.653406 -0.671755,4.926209 0.718896,1.2728 2.133118,0.82496 2.88737,-0.21213 a 5.6686729,5.6686729 0 0 0 0.813177,-2.934517 c 0.153208,-1.897414 0.176778,-3.806614 0.259274,-5.715813 0,-0.483193 -0.766036,-0.601045 -0.860318,-0.117852 -0.612829,3.064147 0,6.175436 -0.212133,9.274942 a 0.43605176,0.43605176 0 0 0 0.813177,0.22392 l 0.200349,-0.38891 c 0.247488,-0.50676 -0.506763,-0.954606 -0.766037,-0.43605 l -0.188563,0.37712 0.824963,0.22392 c 0.212133,-3.005225 -0.412482,-6.069372 0.176777,-9.039239 L 39.762167,91.6295 c -0.0825,1.814918 -0.117852,3.618051 -0.247489,5.432969 a 9.8288424,9.8288424 0 0 1 -0.129637,1.308155 c -0.07071,0.966385 -0.754252,1.414227 -2.027052,1.355301 a 6.9532578,6.9532578 0 0 1 -0.0825,-1.402442 c -0.200348,-1.178518 0.377126,-1.720636 1.732422,-1.720636 0,0.565689 0.919244,0.565689 0.883889,0 z"
       id="path370"
       style="fill:#231f20;stroke-width:1.17852" />
    <path
       class="cls-21"
       d="m 44.617662,97.981713 c 0.306415,-1.261014 -0.65997,-3.134858 -2.25097,-2.781303 -1.767777,0.400696 -2.003481,4.171955 -1.579214,5.48011 0.565688,1.6735 2.121332,0.68355 2.875584,-0.34177 1.791348,-2.451318 1.096022,-5.79831 1.638141,-8.591399 0.09428,-0.471407 -0.553904,-0.801392 -0.813178,-0.34177 -0.589259,1.060667 -0.34177,2.486674 -0.365341,3.665192 0,1.873844 0,3.747688 0,5.609747 a 0.44783694,0.44783694 0 0 0 0.883889,0 c 0,-1.496718 0,-2.981651 0,-4.478369 0,-1.178519 -0.329985,-3.288066 0.259274,-4.360518 l -0.801392,-0.329985 c -0.377126,1.885629 -0.223919,3.806614 -0.542119,5.704028 a 7.7546502,7.7546502 0 0 1 -0.412481,1.532074 3.0877179,3.0877179 0 0 1 -0.447837,0.931029 H 41.5653 c -0.200348,-0.235703 0.05893,-1.532073 0.129637,-1.779562 a 1.5792145,1.5792145 0 0 1 0.6364,-1.178518 q 0.895673,-1.661711 1.449577,1.02531 c -0.129637,0.553904 0.718896,0.789608 0.848533,0.235704 z"
       id="path371"
       style="fill:#231f20;stroke-width:1.17852" />
    <path
       class="cls-21"
       d="m 45.654758,98.535617 c 1.461363,0.329985 3.877325,-0.494978 4.16017,-2.180259 a 1.93277,1.93277 0 0 0 -2.639881,-2.074192 c -1.814919,0.801392 -1.897415,3.22914 -1.661711,4.890851 0.271059,1.991703 1.61457,2.357043 3.323421,1.532083 0.506763,-0.24749 0.05893,-1.013535 -0.447837,-0.766042 -0.506762,0.247492 -1.414221,0.730682 -1.920984,-0.388916 a 2.9109401,2.9109401 0 0 1 -0.129637,-0.907459 4.7847842,4.7847842 0 0 1 0.294629,-2.569169 c 0.200348,-0.377126 0.61283,-1.060667 1.178518,-1.060667 a 1.0488813,1.0488813 0 0 1 0.989956,1.579215 2.969866,2.969866 0 0 1 -2.852014,1.084236 c -0.553904,-0.117851 -0.789608,0.730682 -0.235704,0.860319 z"
       id="path372"
       style="fill:#231f20;stroke-width:1.17852" />
    <path
       class="cls-21"
       d="m 50.309905,94.281166 c 0,2.144903 -0.106066,4.278021 -0.212133,6.422934 l 0.872103,-0.11786 a 6.3286431,6.3286431 0 0 1 0.377126,-3.170216 c 0.176778,-0.530333 1.178519,-3.653406 1.956341,-1.508503 a 7.2361022,7.2361022 0 0 1 -0.117852,2.357036 25.126009,25.126009 0 0 0 0.0825,2.981653 c 0,0.56569 0.919244,0.56569 0.883889,0 -0.153208,-1.826705 0.176778,-3.676978 0,-5.491896 -0.07071,-0.801393 -0.518548,-2.015267 -1.543859,-1.88563 -1.025311,0.129637 -1.520289,1.838489 -1.838489,2.604526 a 7.9078576,7.9078576 0 0 0 -0.68354,4.40766 c 0.0825,0.50677 0.848533,0.35356 0.872103,-0.11785 0.106067,-2.144907 0.176778,-4.278025 0.212134,-6.422928 a 0.44783694,0.44783694 0 0 0 -0.883889,0 z"
       id="path373"
       style="fill:#231f20;stroke-width:1.17852" />
  </g>
  <metadata
     id="metadata346">
    <rdf:RDF>
      <cc:Work
         rdf:about="">
        <dc:title>markov_chain</dc:title>
      </cc:Work>
    </rdf:RDF>
  </metadata>
</svg>
