<?xml version="1.0" encoding="UTF-8" standalone="no"?>
<svg
   viewBox="0 0 300 103"
   version="1.1"
   id="svg346"
   sodipodi:docname="hmm_emission_2_3.svg"
   width="300"
   height="103"
   inkscape:version="1.3.2 (091e20e, 2023-11-25)"
   xmlns:inkscape="http://www.inkscape.org/namespaces/inkscape"
   xmlns:sodipodi="http://sodipodi.sourceforge.net/DTD/sodipodi-0.dtd"
   xmlns="http://www.w3.org/2000/svg"
   xmlns:svg="http://www.w3.org/2000/svg"
   xmlns:rdf="http://www.w3.org/1999/02/22-rdf-syntax-ns#"
   xmlns:cc="http://creativecommons.org/ns#"
   xmlns:dc="http://purl.org/dc/elements/1.1/">
  <sodipodi:namedview
     id="namedview346"
     pagecolor="#ffffff"
     bordercolor="#000000"
     borderopacity="0.25"
     inkscape:showpageshadow="2"
     inkscape:pageopacity="0.0"
     inkscape:pagecheckerboard="0"
     inkscape:deskcolor="#d1d1d1"
     inkscape:zoom="2.8989089"
     inkscape:cx="112.4561"
     inkscape:cy="72.441048"
     inkscape:window-width="1312"
     inkscape:window-height="449"
     inkscape:window-x="62"
     inkscape:window-y="25"
     inkscape:window-maximized="0"
     inkscape:current-layer="Layer_1" />
  <defs
     id="defs1">
    <style
       id="style1">.cls-1,.cls-18,.cls-19{fill:#fff;}.cls-10,.cls-11,.cls-12,.cls-13,.cls-14,.cls-15,.cls-16,.cls-17,.cls-2,.cls-3,.cls-4,.cls-5,.cls-6,.cls-7,.cls-8,.cls-9{fill:none;stroke-linecap:round;}.cls-2,.cls-3{stroke:#231f20;}.cls-2{stroke-miterlimit:10;}.cls-10,.cls-11,.cls-12,.cls-13,.cls-14,.cls-15,.cls-16,.cls-17,.cls-3,.cls-4,.cls-5,.cls-6,.cls-7,.cls-8,.cls-9{stroke-linejoin:round;}.cls-10,.cls-11,.cls-12,.cls-4,.cls-5,.cls-6,.cls-7,.cls-9{stroke:#fff200;}.cls-4{stroke-width:4px;}.cls-5{stroke-width:5px;}.cls-6{stroke-width:2px;}.cls-15,.cls-7,.cls-8{stroke-width:1.5px;}.cls-13,.cls-8{stroke:#ff883d;}.cls-9{stroke-width:2.12px;}.cls-10{stroke-width:2.65px;}.cls-11{stroke-width:1.06px;}.cls-12,.cls-13,.cls-17{stroke-width:0.8px;}.cls-14,.cls-16{stroke:#c6cdce;}.cls-14{stroke-width:3px;}.cls-15,.cls-17{stroke:gray;}.cls-16{stroke-width:1.59px;}.cls-18{opacity:0.5;}.cls-19{opacity:0.75;}.cls-20{font-size:6px;font-family:TimesNewRomanPSMT, Times New Roman;}.cls-21{fill:#231f20;}</style>
  </defs>
  <title
     id="title1">markov_chain</title>
  <g
     id="Layer_1"
     data-name="Layer 1">
    <g
       id="g1"
       transform="translate(-4.970357,31.143896)">
      <ellipse
         class="cls-22"
         cx="120.62811"
         cy="26.453869"
         rx="5.4828973"
         ry="5.3609262"
         id="ellipse402"
         style="fill:#8cc63f;stroke:#333333;stroke-width:0.290408px;stroke-linecap:round;stroke-linejoin:round" />
      <path
         class="cls-23"
         d="m 117.13159,27.638733 c 0.2846,1.260369 2.18387,2.079319 3.33969,2.096744 a 4.4258134,4.4258134 0 0 0 3.65914,-2.323262 c 0.12778,-0.255559 -0.24975,-0.476269 -0.37753,-0.22071 a 4.0947486,4.0947486 0 0 1 -2.32326,1.928307 c -1.16163,0.371722 -3.57782,-0.110355 -3.90889,-1.591434 -0.0581,-0.272983 -0.48208,-0.15682 -0.41819,0.116163 z"
         id="path403"
         style="fill:#333333;stroke-width:0.580815" />
      <path
         class="cls-23"
         d="m 118.22934,24.537179 a 0.74344372,0.74344372 0 0 0 0.34848,0.952537 c 0.40658,0.22071 0.66213,-0.203285 0.7086,-0.545967 a 1.5914342,1.5914342 0 0 0 -0.27879,-1.16163 c -0.30203,-0.313641 -0.58082,0.05808 -0.67375,0.360105 a 1.0977411,1.0977411 0 0 0 0.26718,1.045468 c 0.33687,0.2846 0.61566,-0.08131 0.62147,-0.412379 0.006,-0.331065 -0.11036,-0.865415 -0.55177,-0.714403 -0.44142,0.151012 -0.3543,0.743444 -0.22071,1.045468 0.13358,0.302024 0.6447,0.04646 0.4995,-0.296216 a 0.4936931,0.4936931 0 0 1 0,-0.261367 l -0.20329,0.08131 c -0.12778,-0.139396 -0.16263,-0.121971 -0.10455,0.04066 0.0581,0.162629 0,0.133588 0.0639,0.07551 h 0.22071 c 0.0639,0 -0.0407,-0.168436 -0.0465,-0.243942 a 0.41818709,0.41818709 0 0 1 0.0755,-0.313641 l -0.27879,0.07551 c -0.16263,-0.06389 0,0.09293 0,0.168437 a 1.0861248,1.0861248 0 0 1 0.0465,0.331065 0.58081541,0.58081541 0 0 1 0,0.139395 c -0.0465,0.09293 0,0.133588 0.0697,0.121972 0.18586,0.127779 -0.0407,-0.162629 -0.0523,-0.145204 0.15101,-0.336873 -0.34849,-0.633089 -0.4995,-0.290408 z"
         id="path404"
         style="fill:#333333;stroke-width:0.580815" />
      <path
         class="cls-23"
         d="m 121.1218,24.560411 a 0.69697849,0.69697849 0 0 0 0.31364,0.72602 0.54015833,0.54015833 0 0 0 0.69697,-0.121972 c 0.32526,-0.423995 0.0755,-1.335875 -0.27298,-1.684364 a 0.36591371,0.36591371 0 0 0 -0.58081,0.0697 1.544969,1.544969 0 0 0 -0.0929,0.969962 c 0.0465,0.255559 0.16263,0.580816 0.47046,0.580816 0.30783,0 0.40657,-0.394955 0.45303,-0.66213 0.0581,-0.365914 -0.50531,-0.522734 -0.58081,-0.15682 0,0.05227 -0.029,0.307832 -0.0348,0.31364 l 0.20328,-0.08712 c 0.11036,0 0.0639,0.151012 0.0639,0 0,-0.151012 -0.0407,-0.180053 -0.0407,-0.272983 a 0.72601926,0.72601926 0 0 1 0.0813,-0.453036 l -0.24975,0.145204 h 0.0581 l -0.20909,-0.08132 a 0.8479905,0.8479905 0 0 1 0.26717,0.580816 2.4336166,2.4336166 0 0 1 0,0.290407 c 0,0.226518 0,-0.07551 0,-0.139395 0.0407,-0.365914 -0.54015,-0.365914 -0.58081,0 z"
         id="path405"
         style="fill:#333333;stroke-width:0.580815" />
    </g>
    <g
       id="g3-3-4"
       transform="translate(-10,48)"
       style="fill:#0000ff;fill-opacity:1">
      <path
         class="cls-25"
         d="m 87.35568,9.842476 c 6.99632,0 13.99264,0 20.98896,0 a 0.19763616,0.25 0 0 0 0,-0.5 c -6.99632,0 -13.99264,0 -20.98896,0 -0.252974,0 -0.252974,0.51 0,0.5 z"
         id="path411-3-8"
         style="fill:#0000ff;stroke-width:0.889126;fill-opacity:1" />
      <path
         class="cls-25"
         d="m 105.31122,11.253706 a 6.24,6.24 0 0 1 2.92409,-1.3603613 c 0.32195,-0.057061 0.1296,-0.5448011 -0.14372,-0.4761744 a 6.53,6.53 0 0 0 -3.1316,1.4549157 c -0.245,0.208984 0.11548,0.55169 0.36048,0.342706 z"
         id="path415-3-8"
         style="fill:#0000ff;fill-opacity:1" />
      <path
         class="cls-25"
         d="m 108.38349,9.3192967 a 7,7 0 0 1 -3.12,-1.5 c -0.24,-0.21 -0.6,0.14 -0.35,0.35 a 7.37,7.37 0 0 0 3.34,1.63 c 0.31,0.07 0.45,-0.42 0.13,-0.48 z"
         id="path416-8-8"
         style="fill:#0000ff;fill-opacity:1" />
    </g>
  </g>
  <metadata
     id="metadata346">
    <rdf:RDF>
      <cc:Work
         rdf:about="">
        <dc:title>markov_chain</dc:title>
      </cc:Work>
    </rdf:RDF>
  </metadata>
</svg>
