<?xml version="1.0" encoding="UTF-8" standalone="no"?>
<svg
   viewBox="0 0 300 103"
   version="1.1"
   id="svg346"
   sodipodi:docname="markov_chain_3_1.svg"
   width="300"
   height="103"
   inkscape:version="1.3.2 (1:1.3.2+202311252150+091e20ef0f)"
   xmlns:inkscape="http://www.inkscape.org/namespaces/inkscape"
   xmlns:sodipodi="http://sodipodi.sourceforge.net/DTD/sodipodi-0.dtd"
   xmlns="http://www.w3.org/2000/svg"
   xmlns:svg="http://www.w3.org/2000/svg"
   xmlns:rdf="http://www.w3.org/1999/02/22-rdf-syntax-ns#"
   xmlns:cc="http://creativecommons.org/ns#"
   xmlns:dc="http://purl.org/dc/elements/1.1/">
  <sodipodi:namedview
     id="namedview346"
     pagecolor="#ffffff"
     bordercolor="#000000"
     borderopacity="0.25"
     inkscape:showpageshadow="2"
     inkscape:pageopacity="0.0"
     inkscape:pagecheckerboard="0"
     inkscape:deskcolor="#d1d1d1"
     inkscape:zoom="5.7888943"
     inkscape:cx="92.936573"
     inkscape:cy="38.003803"
     inkscape:window-width="1223"
     inkscape:window-height="779"
     inkscape:window-x="57"
     inkscape:window-y="21"
     inkscape:window-maximized="1"
     inkscape:current-layer="Layer_1" />
  <defs
     id="defs1">
    <style
       id="style1">.cls-1,.cls-18,.cls-19{fill:#fff;}.cls-10,.cls-11,.cls-12,.cls-13,.cls-14,.cls-15,.cls-16,.cls-17,.cls-2,.cls-3,.cls-4,.cls-5,.cls-6,.cls-7,.cls-8,.cls-9{fill:none;stroke-linecap:round;}.cls-2,.cls-3{stroke:#231f20;}.cls-2{stroke-miterlimit:10;}.cls-10,.cls-11,.cls-12,.cls-13,.cls-14,.cls-15,.cls-16,.cls-17,.cls-3,.cls-4,.cls-5,.cls-6,.cls-7,.cls-8,.cls-9{stroke-linejoin:round;}.cls-10,.cls-11,.cls-12,.cls-4,.cls-5,.cls-6,.cls-7,.cls-9{stroke:#fff200;}.cls-4{stroke-width:4px;}.cls-5{stroke-width:5px;}.cls-6{stroke-width:2px;}.cls-15,.cls-7,.cls-8{stroke-width:1.5px;}.cls-13,.cls-8{stroke:#ff883d;}.cls-9{stroke-width:2.12px;}.cls-10{stroke-width:2.65px;}.cls-11{stroke-width:1.06px;}.cls-12,.cls-13,.cls-17{stroke-width:0.8px;}.cls-14,.cls-16{stroke:#c6cdce;}.cls-14{stroke-width:3px;}.cls-15,.cls-17{stroke:gray;}.cls-16{stroke-width:1.59px;}.cls-18{opacity:0.5;}.cls-19{opacity:0.75;}.cls-20{font-size:6px;font-family:TimesNewRomanPSMT, Times New Roman;}.cls-21{fill:#231f20;}</style>
  </defs>
  <title
     id="title1">markov_chain</title>
  <g
     id="Layer_1"
     data-name="Layer 1">
    <path
       class="cls-16"
       d="M 57.96,13.92 A 3.89,3.89 0 0 0 59.22,12.08 2.09,2.09 0 0 0 58.68,10 c -0.31,1.33 -0.58,2.66 -0.81,4 0,0.26 0,0.59 0.18,0.71 0.18,0.12 0.6,-0.21 0.75,-0.52 -0.56,0.81 -1.71,0.86 -2.69,0.83 a 61,61 0 0 0 -7.88,-0.08 13.22,13.22 0 0 1 -4,0 l 2,-0.83 c -0.19,-0.58 -0.92,-0.74 -1.38,-1.15 a 1.91,1.91 0 0 1 -0.31,-2.27 c 0.37,-0.74 1.22,-0.56 2,-0.89 a 1.18,1.18 0 0 1 0.72,-0.08 c 0.28,0.05 0.38,-0.45 0.65,-0.32 0.27,0.13 0.67,0.09 0.74,-0.2 a 3.8,3.8 0 0 1 -1,-1.37 0.82,0.82 0 0 1 -0.07,-0.65 0.73,0.73 0 0 1 0.3,-0.33 2.73,2.73 0 0 1 2.65,-0.24 c 1,0.46 1.75,1.54 2.86,1.58 -0.31,-0.47 0.14,-1.15 0.7,-1.21 a 1.53,1.53 0 0 1 1.38,0.8 c 0.56,0.9 0.59,2.17 1.46,2.79 l 0.06,-0.32 a 14.59,14.59 0 0 0 1,1.11 5,5 0 0 1 -3.21,-3 C 54.69,8.13 54.54,7.83 54.3,7.87 54.06,7.91 54.06,8.45 53.93,8.78 A 0.74,0.74 0 0 1 53.02,9.1 2.76,2.76 0 0 1 52.15,8.52 C 51.09,7.65 49.53,7.15 48.37,7.87 c 0.79,0.92 2.12,1.09 3.26,1.52 1.49,0.55 2.87,1.65 4.45,1.52 -1.14,-0.95 -2.92,-0.3 -4.33,-0.79 a 7.12,7.12 0 0 1 1.71,-0.35 15.17,15.17 0 0 0 -5.78,0.47 3.87,3.87 0 0 1 -1.87,0.39 1.61,1.61 0 0 0 -0.39,1.69 4.44,4.44 0 0 0 1,1.53 C 46.25,13.42 46.08,13 45.9,12.57 a 0.55,0.55 0 0 1 0,-0.38 0.38,0.38 0 0 1 0.26,-0.22 c 2,-0.59 5.34,-1.62 8,-1.1 l -5.92,0.73 a 2.6,2.6 0 0 0 -1.17,0.33 0.94,0.94 0 0 0 -0.45,1 1,1 0 0 0 1.12,0.49 3.9,3.9 0 0 0 1.19,-0.59 c 2.42,-1.45 5.45,-1.23 8.26,-1 0.2,0 0.45,0.11 0.42,0.3 -0.03,0.19 -0.2,0.2 -0.35,0.23 -2.94,0.42 -5.94,-0.32 -8.91,-0.19 a 2,2 0 0 0 -1,0.26 0.69,0.69 0 0 0 -0.22,0.93 c 0.25,0.34 0.78,0.23 1.19,0.13 a 14.64,14.64 0 0 1 4.08,-0.26 l 4.57,0.15 c 0.34,0 0.82,0.19 0.72,0.52 a 0.52,0.52 0 0 1 -0.34,0.27 3.73,3.73 0 0 1 -1.87,-0.09 11.56,11.56 0 0 0 -3.27,-0.16 c -0.42,0 -0.93,0.06 -1.14,-0.31 -0.21,-0.37 0.18,-0.89 0.55,-1.2 l 2.46,-2 c 0.27,-0.22 0.57,-0.54 0.47,-0.87"
       id="path219" />
    <path
       class="cls-17"
       d="m 44.96,15.69 12.6,-0.32 a 2,2 0 0 0 0.8,-0.14 1.48,1.48 0 0 0 0.4,-0.29 5.47,5.47 0 0 0 1,-2.23 5,5 0 0 0 0.29,-1.79 1.71,1.71 0 0 0 -1,-1.47 1,1 0 0 0 -1.29,0.69 L 57.07,8.82 A 5.22,5.22 0 0 0 55.22,6.49 1.81,1.81 0 0 0 52.65,7.16 7.79,7.79 0 0 0 50.2,5.83 a 2.69,2.69 0 0 0 -2.62,0.55 2.05,2.05 0 0 0 0,2.76 4.24,4.24 0 0 0 -2.88,0.61 2.73,2.73 0 0 0 -0.76,1.1 2.8,2.8 0 0 0 -0.18,1.97 1.78,1.78 0 0 0 1.42,1.24 3.24,3.24 0 0 0 -1.12,0.46 0.85,0.85 0 0 0 -0.33,0.32 0.63,0.63 0 0 0 0.51,0.77 1.81,1.81 0 0 0 1,-0.19"
       id="path220" />
    <path
       class="cls-17"
       d="M 52.22,8.43 A 3.26,3.26 0 0 0 50.38,7.63 1.3,1.3 0 0 0 48.96,8.25"
       id="path221" />
    <path
       class="cls-17"
       d="m 57.83,11.14 a 2.72,2.72 0 0 1 -0.56,3"
       id="path223" />
  </g>
  <metadata
     id="metadata346">
    <rdf:RDF>
      <cc:Work
         rdf:about="">
        <dc:title>markov_chain</dc:title>
      </cc:Work>
    </rdf:RDF>
  </metadata>
</svg>
