<?xml version="1.0" encoding="UTF-8" standalone="no"?>
<svg
   viewBox="0 0 300 103"
   version="1.1"
   id="svg346"
   sodipodi:docname="markov_chain_3_3.svg"
   width="300"
   height="103"
   inkscape:version="1.3.2 (1:1.3.2+202311252150+091e20ef0f)"
   xmlns:inkscape="http://www.inkscape.org/namespaces/inkscape"
   xmlns:sodipodi="http://sodipodi.sourceforge.net/DTD/sodipodi-0.dtd"
   xmlns="http://www.w3.org/2000/svg"
   xmlns:svg="http://www.w3.org/2000/svg"
   xmlns:rdf="http://www.w3.org/1999/02/22-rdf-syntax-ns#"
   xmlns:cc="http://creativecommons.org/ns#"
   xmlns:dc="http://purl.org/dc/elements/1.1/">
  <sodipodi:namedview
     id="namedview346"
     pagecolor="#ffffff"
     bordercolor="#000000"
     borderopacity="0.25"
     inkscape:showpageshadow="2"
     inkscape:pageopacity="0.0"
     inkscape:pagecheckerboard="0"
     inkscape:deskcolor="#d1d1d1"
     inkscape:zoom="1.7201547"
     inkscape:cx="128.47682"
     inkscape:cy="24.997752"
     inkscape:window-width="1223"
     inkscape:window-height="779"
     inkscape:window-x="57"
     inkscape:window-y="21"
     inkscape:window-maximized="1"
     inkscape:current-layer="Layer_1" />
  <defs
     id="defs1">
    <style
       id="style1">.cls-1,.cls-18,.cls-19{fill:#fff;}.cls-10,.cls-11,.cls-12,.cls-13,.cls-14,.cls-15,.cls-16,.cls-17,.cls-2,.cls-3,.cls-4,.cls-5,.cls-6,.cls-7,.cls-8,.cls-9{fill:none;stroke-linecap:round;}.cls-2,.cls-3{stroke:#231f20;}.cls-2{stroke-miterlimit:10;}.cls-10,.cls-11,.cls-12,.cls-13,.cls-14,.cls-15,.cls-16,.cls-17,.cls-3,.cls-4,.cls-5,.cls-6,.cls-7,.cls-8,.cls-9{stroke-linejoin:round;}.cls-10,.cls-11,.cls-12,.cls-4,.cls-5,.cls-6,.cls-7,.cls-9{stroke:#fff200;}.cls-4{stroke-width:4px;}.cls-5{stroke-width:5px;}.cls-6{stroke-width:2px;}.cls-15,.cls-7,.cls-8{stroke-width:1.5px;}.cls-13,.cls-8{stroke:#ff883d;}.cls-9{stroke-width:2.12px;}.cls-10{stroke-width:2.65px;}.cls-11{stroke-width:1.06px;}.cls-12,.cls-13,.cls-17{stroke-width:0.8px;}.cls-14,.cls-16{stroke:#c6cdce;}.cls-14{stroke-width:3px;}.cls-15,.cls-17{stroke:gray;}.cls-16{stroke-width:1.59px;}.cls-18{opacity:0.5;}.cls-19{opacity:0.75;}.cls-20{font-size:6px;font-family:TimesNewRomanPSMT, Times New Roman;}.cls-21{fill:#231f20;}</style>
  </defs>
  <title
     id="title1">markov_chain</title>
  <g
     id="Layer_1"
     data-name="Layer 1">
    <path
       class="cls-9"
       d="m 51.6,57.42 c 0.4,-0.36 0.9,-0.57 1.29,-0.93 a 1.18,1.18 0 0 0 0.34,-1.42 c -0.31,-0.46 -1,-0.49 -1.34,-1 l 0.44,0.17 a 9.45,9.45 0 0 0 -2,-0.61 3,3 0 0 0 -2.06,1.11 3.27,3.27 0 0 0 -1,2.22 3.2,3.2 0 0 0 0.4,1.34 4.52,4.52 0 0 0 2,2.23 3.21,3.21 0 0 0 3.11,-0.31 4,4 0 0 0 1.62,-2.73 4.37,4.37 0 0 0 -0.06,-1.53 1.63,1.63 0 0 0 -0.31,-0.71 0.67,0.67 0 0 0 -0.7,-0.22"
       id="path250" />
    <path
       class="cls-10"
       d="m 50.12,60.03 a 3.23,3.23 0 0 1 1.53,-1.1 2.57,2.57 0 0 0 1.34,-0.62 5.21,5.21 0 0 1 -1.93,1 2.12,2.12 0 0 1 -2,-0.55 0.79,0.79 0 0 1 -0.24,-0.55 1.1,1.1 0 0 1 0.32,-0.62 c 0.36,-0.42 0.73,-0.82 1.12,-1.2 a 3,3 0 0 1 1.35,-0.9 1.64,1.64 0 0 0 -1.71,0 2.15,2.15 0 0 0 -0.91,0.59 0.85,0.85 0 0 0 -0.09,1 1.08,1.08 0 0 0 0.32,0.28 l 0.66,0.46 a 2.13,2.13 0 0 0 1.6,0.54 1.08,1.08 0 0 0 0.77,-0.72 0.63,0.63 0 0 0 -0.29,-0.77 0.66,0.66 0 0 0 -0.57,0.12 2,2 0 0 0 -0.92,1.21 l 0.24,0.1"
       id="path251" />
    <path
       class="cls-11"
       d="m 54.32,52.14 a 1.57,1.57 0 0 1 1.15,0.93 2.66,2.66 0 0 1 1,-1.63 3.61,3.61 0 0 1 -1.82,0.88 3.17,3.17 0 0 0 1.11,-0.7 l -1.3,0.65 a 1.15,1.15 0 0 1 0.78,-0.56"
       id="path252" />
    <path
       class="cls-11"
       d="m 56.76,55.14 0.48,0.69 a 0.5,0.5 0 0 1 0,-0.85 0.71,0.71 0 0 1 0.9,0.3 3.48,3.48 0 0 0 -1.19,0.18 3.54,3.54 0 0 0 1.62,-0.32 c -0.46,0.25 -0.92,0.51 -1.36,0.78"
       id="path253" />
    <path
       class="cls-11"
       d="m 56.83,58.37 c -0.23,0.37 -0.45,0.74 -0.67,1.11 a 2.64,2.64 0 0 1 1.51,-0.81 c -0.41,0.25 -0.8,0.52 -1.19,0.79 0.5,-0.26 1,-0.49 1.54,-0.7 0,0.09 0,0.19 0,0.28 a 1.53,1.53 0 0 0 1,-0.13 11,11 0 0 1 -1.62,0.06 c -0.29,0 -0.62,-0.07 -0.75,-0.32 a 0.77,0.77 0 0 1 0.66,-0.34 2.52,2.52 0 0 1 0.76,0.16"
       id="path254" />
    <path
       class="cls-11"
       d="m 55,61.79 c 0.06,0 0.09,-0.08 0,-0.12 a 0.17,0.17 0 0 0 -0.17,0 l -1.52,0.65 1.94,-0.32 -0.89,0.35 0.83,-1 a 1.47,1.47 0 0 0 0.57,1.79 5.2,5.2 0 0 0 -1.69,-0.48 2.12,2.12 0 0 1 2,0.71 3.33,3.33 0 0 1 -0.8,-1.37 0.35,0.35 0 0 1 0.17,0.15"
       id="path255" />
    <path
       class="cls-11"
       d="m 51.26,62.82 a 3.65,3.65 0 0 0 -1.3,2.06 3.9,3.9 0 0 0 0.16,-1.48 1,1 0 0 1 -0.75,-0.61 l 1.36,0.49 a 1.59,1.59 0 0 0 -1.22,0.63 c 0,-0.14 0,-0.27 0,-0.41 a 0.89,0.89 0 0 0 0.92,0"
       id="path256" />
    <path
       class="cls-11"
       d="m 45.55,60.4 a 3.49,3.49 0 0 1 -0.73,2 2.54,2.54 0 0 1 2.13,-0.58 1.9,1.9 0 0 1 -1.38,-1.31 1.86,1.86 0 0 1 0.39,0.75 0.62,0.62 0 0 1 -0.35,0.7"
       id="path257" />
    <path
       class="cls-11"
       d="m 44.61,56.14 a 3.4,3.4 0 0 1 -1.67,0.45 1,1 0 0 1 0.87,0.41 3,3 0 0 0 0.72,0.7 4,4 0 0 1 -0.08,-1.56 c 0,0.08 0,0.17 0,0.25"
       id="path258" />
    <path
       class="cls-11"
       d="m 44.05,56.96 0.18,-0.11"
       id="path259" />
    <path
       class="cls-12"
       d="m 46.97,52.22 a 4.49,4.49 0 0 1 1,-0.51 l -1.21,0.53 a 0.94,0.94 0 0 0 -0.38,0.27 c -0.16,0.25 -0.06,0.66 -0.31,0.82 l -1.68,-1.77 a 30.28,30.28 0 0 1 3.3,0 4.28,4.28 0 0 1 -2.53,0.49 9.2,9.2 0 0 1 2,-0.29 5.24,5.24 0 0 1 -1.72,0.94 l 0.43,-0.06"
       id="path260" />
    <path
       class="cls-11"
       d="m 50.02,51.22 a 4.18,4.18 0 0 1 1,-2.4 c -0.17,0.53 -0.34,1 -0.52,1.57 a 0.82,0.82 0 0 0 0,0.72 1.13,1.13 0 0 0 0.52,-1.19 l -0.26,1.28 a 1.92,1.92 0 0 0 0.49,-1.19 c 0,-0.17 -0.14,-0.41 -0.27,-0.3 a 3.38,3.38 0 0 0 1,1.42 3.51,3.51 0 0 0 -1.21,-0.12 l 0.84,0.07"
       id="path261" />
    <circle
       class="cls-13"
       cx="50.779999"
       cy="57.029999"
       r="4.5500002"
       id="circle261" />
    <path
       class="cls-13"
       d="m 49.63,51.48 2.91,-0.07 a 8.85,8.85 0 0 1 -1.62,-3.08 c -0.89,0.7 -0.64,2.32 -1.59,2.92"
       id="path262" />
    <path
       class="cls-13"
       d="m 47.98,52.14 a 4.18,4.18 0 0 0 -2,1.85 9.82,9.82 0 0 1 -1.88,-2.95 7.85,7.85 0 0 1 2.68,0.4 4.3,4.3 0 0 0 1.43,0.36"
       id="path263" />
    <path
       class="cls-13"
       d="m 45.14,55.14 a 6.06,6.06 0 0 0 -0.06,3 c -1.06,-0.13 -1.8,-1.12 -2.79,-1.53 a 16.58,16.58 0 0 1 2.53,-1.17"
       id="path264" />
    <path
       class="cls-13"
       d="m 45.53,59.56 a 4.07,4.07 0 0 0 2,2.25 c -1.08,0.36 -2.17,0.7 -3.27,1 0.56,-0.88 0.55,-2 1,-2.94"
       id="path265" />
    <path
       class="cls-13"
       d="m 48.9,62.33 a 3.5,3.5 0 0 0 2.78,0.23 c -0.53,0.92 -1,1.86 -1.49,2.82 a 13.57,13.57 0 0 1 -1.25,-2.57"
       id="path266" />
    <path
       class="cls-13"
       d="m 52.92,62.19 a 4.86,4.86 0 0 0 2.25,-1.37 c 0.13,-0.14 0.23,-0.37 0.09,-0.47 a 11.33,11.33 0 0 0 1.43,3.42 c -1.41,0.17 -2.58,-1.15 -4,-1.33"
       id="path267" />
    <path
       class="cls-13"
       d="m 53.76,52.14 a 9.39,9.39 0 0 1 1.76,1.44 l 1.52,-2.81 a 26.5,26.5 0 0 0 -3.51,1.11"
       id="path268" />
    <path
       class="cls-13"
       d="m 55.98,54.65 a 4.31,4.31 0 0 1 0.78,1.85 l 2.9,-1.36 a 7,7 0 0 0 -3.12,-0.61"
       id="path269" />
    <path
       class="cls-13"
       d="m 56.18,59.38 c 0,0.09 -0.13,0.12 -0.18,0.05 a 0.3,0.3 0 0 1 0,-0.26 3.61,3.61 0 0 1 0.7,-1.36 l 3.18,1 a 6.14,6.14 0 0 1 -3.63,0.83"
       id="path270" />
  </g>
  <metadata
     id="metadata346">
    <rdf:RDF>
      <cc:Work
         rdf:about="">
        <dc:title>markov_chain</dc:title>
      </cc:Work>
    </rdf:RDF>
  </metadata>
</svg>
