<?xml version="1.0" encoding="UTF-8" standalone="no"?>
<svg
   viewBox="0 0 300 103"
   version="1.1"
   id="svg346"
   sodipodi:docname="markov_chain_5_2.svg"
   width="300"
   height="103"
   inkscape:version="1.3.2 (091e20e, 2023-11-25)"
   xmlns:inkscape="http://www.inkscape.org/namespaces/inkscape"
   xmlns:sodipodi="http://sodipodi.sourceforge.net/DTD/sodipodi-0.dtd"
   xmlns="http://www.w3.org/2000/svg"
   xmlns:svg="http://www.w3.org/2000/svg"
   xmlns:rdf="http://www.w3.org/1999/02/22-rdf-syntax-ns#"
   xmlns:cc="http://creativecommons.org/ns#"
   xmlns:dc="http://purl.org/dc/elements/1.1/">
  <sodipodi:namedview
     id="namedview346"
     pagecolor="#ffffff"
     bordercolor="#000000"
     borderopacity="0.25"
     inkscape:showpageshadow="2"
     inkscape:pageopacity="0.0"
     inkscape:pagecheckerboard="0"
     inkscape:deskcolor="#d1d1d1"
     inkscape:zoom="3.6503889"
     inkscape:cx="224.6336"
     inkscape:cy="22.46336"
     inkscape:window-width="1312"
     inkscape:window-height="449"
     inkscape:window-x="62"
     inkscape:window-y="25"
     inkscape:window-maximized="0"
     inkscape:current-layer="Layer_1" />
  <defs
     id="defs1">
    <style
       id="style1">.cls-1,.cls-18,.cls-19{fill:#fff;}.cls-10,.cls-11,.cls-12,.cls-13,.cls-14,.cls-15,.cls-16,.cls-17,.cls-2,.cls-3,.cls-4,.cls-5,.cls-6,.cls-7,.cls-8,.cls-9{fill:none;stroke-linecap:round;}.cls-2,.cls-3{stroke:#231f20;}.cls-2{stroke-miterlimit:10;}.cls-10,.cls-11,.cls-12,.cls-13,.cls-14,.cls-15,.cls-16,.cls-17,.cls-3,.cls-4,.cls-5,.cls-6,.cls-7,.cls-8,.cls-9{stroke-linejoin:round;}.cls-10,.cls-11,.cls-12,.cls-4,.cls-5,.cls-6,.cls-7,.cls-9{stroke:#fff200;}.cls-4{stroke-width:4px;}.cls-5{stroke-width:5px;}.cls-6{stroke-width:2px;}.cls-15,.cls-7,.cls-8{stroke-width:1.5px;}.cls-13,.cls-8{stroke:#ff883d;}.cls-9{stroke-width:2.12px;}.cls-10{stroke-width:2.65px;}.cls-11{stroke-width:1.06px;}.cls-12,.cls-13,.cls-17{stroke-width:0.8px;}.cls-14,.cls-16{stroke:#c6cdce;}.cls-14{stroke-width:3px;}.cls-15,.cls-17{stroke:gray;}.cls-16{stroke-width:1.59px;}.cls-18{opacity:0.5;}.cls-19{opacity:0.75;}.cls-20{font-size:6px;font-family:TimesNewRomanPSMT, Times New Roman;}.cls-21{fill:#231f20;}</style>
  </defs>
  <title
     id="title1">markov_chain</title>
  <g
     id="Layer_1"
     data-name="Layer 1">
    <path
       class="cls-4"
       d="m 195.19,29.93 c 0.74,-0.67 1.69,-1.07 2.42,-1.75 a 2.21,2.21 0 0 0 0.64,-2.67 c -0.58,-0.87 -1.94,-0.92 -2.52,-1.79 l 0.82,0.32 c -1.3,-0.33 -2.48,-1.14 -3.81,-1.16 a 5.52,5.52 0 0 0 -3.88,2.1 6.18,6.18 0 0 0 -2,4.17 6.38,6.38 0 0 0 0.75,2.54 8.54,8.54 0 0 0 3.75,4.19 6.08,6.08 0 0 0 5.86,-0.57 7.48,7.48 0 0 0 3.08,-5.17 8.56,8.56 0 0 0 -0.11,-2.9 3,3 0 0 0 -0.58,-1.33 1.3,1.3 0 0 0 -1.32,-0.42"
       id="path22" />
    <path
       class="cls-5"
       d="m 192.4,34.85 a 6,6 0 0 1 2.88,-2.07 4.84,4.84 0 0 0 2.48,-1.17 9.57,9.57 0 0 1 -3.63,1.92 4,4 0 0 1 -3.81,-1 1.57,1.57 0 0 1 -0.45,-1 2.06,2.06 0 0 1 0.61,-1.16 c 0.67,-0.78 1.38,-1.54 2.11,-2.27 a 5.67,5.67 0 0 1 2.55,-1.7 c -0.86,-0.75 -2.19,-0.43 -3.24,0 a 4.21,4.21 0 0 0 -1.71,1.12 1.63,1.63 0 0 0 -0.17,1.92 2.3,2.3 0 0 0 0.6,0.52 l 1.24,0.86 a 4,4 0 0 0 3,1 2,2 0 0 0 1.45,-1.36 1.17,1.17 0 0 0 -0.54,-1.45 1.36,1.36 0 0 0 -1.01,0.13 3.89,3.89 0 0 0 -1.73,2.3 l 0.45,0.18"
       id="path23" />
    <path
       class="cls-6"
       d="m 200.29,19.94 a 3,3 0 0 1 2.18,1.76 5,5 0 0 1 1.82,-3.07 6.67,6.67 0 0 1 -3.42,1.66 6.11,6.11 0 0 0 2.22,-1.29 l -2.45,1.23 a 2.13,2.13 0 0 1 1.48,-1.09"
       id="path24" />
    <path
       class="cls-6"
       d="m 204.76,25.61 0.91,1.3 a 0.93,0.93 0 0 1 0,-1.59 1.34,1.34 0 0 1 1.71,0.56 6.16,6.16 0 0 0 -2.25,0.35 7.07,7.07 0 0 0 3.15,-0.55 q -1.32,0.69 -2.58,1.47"
       id="path25" />
    <path
       class="cls-6"
       d="m 205.03,31.72 c -0.42,0.7 -0.84,1.4 -1.27,2.1 a 5.05,5.05 0 0 1 2.85,-1.54 c -0.76,0.48 -1.5,1 -2.24,1.51 a 29.27,29.27 0 0 1 2.91,-1.33 c 0,0.17 0,0.35 -0.05,0.53 a 3,3 0 0 0 2,-0.25 18.19,18.19 0 0 1 -3,0.11 1.63,1.63 0 0 1 -1.47,-0.61 1.5,1.5 0 0 1 1.26,-0.63 4.74,4.74 0 0 1 1.43,0.3"
       id="path26" />
    <path
       class="cls-6"
       d="m 201.59,38.14 c 0.11,0 0.16,-0.15 0.07,-0.21 a 0.36,0.36 0 0 0 -0.32,0 l -2.87,1.23 3.66,-0.6 -1.67,0.66 1.56,-2 a 2.75,2.75 0 0 0 0.9,3.33 10.07,10.07 0 0 0 -3.18,-0.9 4,4 0 0 1 3.74,1.35 6.33,6.33 0 0 1 -1.53,-2.59 0.61,0.61 0 0 1 0.33,0.28"
       id="path27" />
    <path
       class="cls-6"
       d="m 194.54,40.14 a 6.82,6.82 0 0 0 -2.45,3.88 7.46,7.46 0 0 0 0.29,-2.78 1.92,1.92 0 0 1 -1.41,-1.15 l 2.57,0.91 a 3,3 0 0 0 -2.3,1.19 c 0,-0.26 0,-0.51 0,-0.77 a 1.66,1.66 0 0 0 1.73,0"
       id="path28" />
    <path
       class="cls-6"
       d="m 183.76,35.55 a 6.55,6.55 0 0 1 -1.38,3.82 c 0.91,-1.12 2.58,-1.15 4,-1.1 a 3.62,3.62 0 0 1 -2.61,-2.46 3.43,3.43 0 0 1 0.74,1.41 1.16,1.16 0 0 1 -0.66,1.32"
       id="path29" />
    <path
       class="cls-6"
       d="m 182.01,27.51 a 6.51,6.51 0 0 1 -3.16,0.86 1.9,1.9 0 0 1 1.65,0.77 6.08,6.08 0 0 0 1.35,1.33 7.66,7.66 0 0 1 -0.14,-3 c 0,0.16 0.05,0.32 0.08,0.48"
       id="path30" />
    <path
       class="cls-6"
       d="m 180.96,29.06 a 3.79,3.79 0 0 1 0.34,-0.2"
       id="path31" />
    <path
       class="cls-7"
       d="m 186.46,20.14 a 8.3,8.3 0 0 1 1.82,-0.95 l -2.19,1 a 1.54,1.54 0 0 0 -0.7,0.49 c -0.32,0.47 -0.12,1.25 -0.6,1.55 q -1.59,-1.66 -3.16,-3.34 a 56,56 0 0 1 6.21,0.09 8.11,8.11 0 0 1 -4.76,0.92 19.67,19.67 0 0 1 3.82,-0.56 9.68,9.68 0 0 1 -3.26,1.8 l 0.82,-0.12"
       id="path32" />
    <path
       class="cls-6"
       d="m 192.2,18.25 a 7.85,7.85 0 0 1 1.79,-4.52 c -0.33,1 -0.65,2 -1,2.95 a 1.48,1.48 0 0 0 0,1.36 2.13,2.13 0 0 0 1,-2.24 c -0.16,0.81 -0.33,1.61 -0.49,2.41 a 3.67,3.67 0 0 0 0.91,-2.23 c 0,-0.33 -0.25,-0.78 -0.51,-0.58 a 6.43,6.43 0 0 0 1.86,2.68 6.49,6.49 0 0 0 -2.28,-0.23 l 1.59,0.13"
       id="path33" />
    <circle
       class="cls-8"
       cx="193.63"
       cy="29.200001"
       r="8.5699997"
       id="circle33" />
    <path
       class="cls-8"
       d="m 191.46,18.73 5.48,-0.12 a 17,17 0 0 1 -3.05,-5.8 c -1.67,1.32 -1.19,4.36 -3,5.5"
       id="path34" />
    <path
       class="cls-8"
       d="m 188.36,19.92 a 7.84,7.84 0 0 0 -3.8,3.5 18.62,18.62 0 0 1 -3.55,-5.56 14.43,14.43 0 0 1 5.05,0.75 8.26,8.26 0 0 0 2.69,0.68"
       id="path35" />
    <path
       class="cls-8"
       d="m 183.01,25.55 a 11.1,11.1 0 0 0 -0.11,5.75 c -2,-0.23 -3.39,-2.11 -5.26,-2.87 a 31.7,31.7 0 0 1 4.76,-2.22"
       id="path36" />
    <path
       class="cls-8"
       d="m 183.76,33.96 a 7.55,7.55 0 0 0 3.73,4.24 c -2,0.68 -4.09,1.32 -6.16,1.9 1.06,-1.65 1,-3.77 1.89,-5.53"
       id="path37" />
    <path
       class="cls-8"
       d="m 190.09,39.19 a 6.65,6.65 0 0 0 5.24,0.42 q -1.51,2.61 -2.8,5.32 a 25.54,25.54 0 0 1 -2.37,-4.79"
       id="path38" />
    <path
       class="cls-8"
       d="m 197.66,38.92 a 9,9 0 0 0 4.25,-2.59 c 0.23,-0.25 0.44,-0.69 0.16,-0.89 a 21.77,21.77 0 0 0 2.69,6.46 c -2.65,0.33 -4.85,-2.16 -7.5,-2.51"
       id="path39" />
    <path
       class="cls-8"
       d="m 199.26,20.01 a 17.34,17.34 0 0 1 3.33,2.7 l 2.85,-5.29 a 52.3,52.3 0 0 0 -6.61,2.09"
       id="path40" />
    <path
       class="cls-8"
       d="m 203.44,24.71 a 8.24,8.24 0 0 1 1.46,3.48 l 5.46,-2.51 a 13.17,13.17 0 0 0 -5.87,-1.16"
       id="path41" />
    <path
       class="cls-8"
       d="m 203.81,33.63 c 0,0.16 -0.25,0.22 -0.34,0.08 a 0.52,0.52 0 0 1 0,-0.47 6.71,6.71 0 0 1 1.29,-2.57 l 6,1.93 a 11.54,11.54 0 0 1 -6.82,1.54"
       id="path42" />
    <path
       class="cls-14"
       d="m 264.13,32.22 a 7.16,7.16 0 0 0 2.37,-3.47 3.94,3.94 0 0 0 -1,-3.92 q -0.89,3.75 -1.52,7.55 c -0.08,0.49 -0.1,1.12 0.34,1.35 0.44,0.23 1.13,-0.4 1.4,-1 -1,1.52 -3.22,1.63 -5.07,1.55 a 120.65,120.65 0 0 0 -14.89,-0.14 c -2.49,0.22 -5,0.63 -7.48,0.07 l 3.77,-1.55 c -0.37,-1.1 -1.75,-1.41 -2.62,-2.18 a 3.64,3.64 0 0 1 -0.59,-4.28 c 0.71,-1.38 2.31,-1 3.74,-1.66 a 2.24,2.24 0 0 1 1.35,-0.17 c 0.55,0.11 0.73,-0.83 1.23,-0.59 0.5,0.24 1.26,0.16 1.4,-0.38 a 7.13,7.13 0 0 1 -1.8,-2.55 1.62,1.62 0 0 1 -0.15,-1.23 1.5,1.5 0 0 1 0.58,-0.62 5.1,5.1 0 0 1 5,-0.46 c 1.9,0.87 3.32,2.91 5.4,3 -0.58,-0.88 0.27,-2.17 1.32,-2.29 a 2.9,2.9 0 0 1 2.6,1.52 c 1.06,1.69 1.12,4.09 2.75,5.25 l 0.12,-0.6 a 27.55,27.55 0 0 0 1.79,2.1 9.46,9.46 0 0 1 -6.05,-5.69 c -0.17,-0.45 -0.45,-1 -0.91,-0.93 -0.65,0.11 -0.44,1.1 -0.69,1.71 a 1.4,1.4 0 0 1 -1.71,0.61 5.34,5.34 0 0 1 -1.66,-1.1 c -2,-1.64 -4.93,-2.58 -7.11,-1.22 1.49,1.74 4,2 6.14,2.85 2.8,1 5.4,3.11 8.38,2.88 -2.15,-1.8 -5.5,-0.56 -8.15,-1.5 a 14.06,14.06 0 0 1 3.22,-0.66 c -3.66,-0.17 -7.43,-0.32 -10.89,0.88 a 7.22,7.22 0 0 1 -3.52,0.75 3,3 0 0 0 -0.73,3.19 8,8 0 0 0 1.82,2.85 c -0.33,-0.8 -0.65,-1.6 -1,-2.4 a 1,1 0 0 1 -0.09,-0.71 0.79,0.79 0 0 1 0.5,-0.43 c 3.75,-1.11 10.07,-3.05 15.17,-2.07 l -11.13,1.37 a 5.08,5.08 0 0 0 -2.21,0.62 1.77,1.77 0 0 0 -0.84,2 1.86,1.86 0 0 0 2.11,0.93 7.56,7.56 0 0 0 2.24,-1.11 c 4.57,-2.73 10.28,-2.33 15.57,-1.81 0.37,0 0.85,0.21 0.79,0.57 -0.06,0.36 -0.38,0.38 -0.66,0.42 -5.55,0.8 -11.19,-0.6 -16.8,-0.34 a 3.41,3.41 0 0 0 -1.91,0.49 1.31,1.31 0 0 0 -0.43,1.75 c 0.49,0.64 1.48,0.43 2.25,0.23 a 27.48,27.48 0 0 1 7.69,-0.51 l 8.62,0.28 c 0.64,0 1.53,0.35 1.35,1 a 0.94,0.94 0 0 1 -0.64,0.52 6.93,6.93 0 0 1 -3.52,-0.17 22,22 0 0 0 -6.17,-0.3 c -0.78,0.08 -1.76,0.1 -2.14,-0.58 -0.38,-0.68 0.33,-1.69 1,-2.26 l 4.7,-3.84 c 0.51,-0.42 1.08,-1 0.88,-1.63"
       id="path64" />
    <path
       class="cls-15"
       d="m 239.63,35.57 23.75,-0.62 a 3.45,3.45 0 0 0 1.5,-0.26 2.47,2.47 0 0 0 0.7,-0.55 10,10 0 0 0 2,-4.19 9.42,9.42 0 0 0 0.55,-3.39 3.18,3.18 0 0 0 -1.78,-2.75 2,2 0 0 0 -2.68,1.33 c -0.42,-0.83 -0.85,-1.66 -1.28,-2.49 -0.88,-1.69 -1.84,-3.46 -3.49,-4.4 -1.65,-0.94 -4.2,-0.52 -4.84,1.27 a 15.1,15.1 0 0 0 -4.62,-2.52 5.06,5.06 0 0 0 -4.93,1.14 3.87,3.87 0 0 0 0,5.2 c -1.9,-0.06 -4,-0.06 -5.45,1.16 a 5.26,5.26 0 0 0 -1.42,2 5.38,5.38 0 0 0 -0.25,3.66 3.37,3.37 0 0 0 2.67,2.32 6.5,6.5 0 0 0 -2.11,0.87 1.47,1.47 0 0 0 -0.6,0.61 c -0.27,0.6 0.3,1.3 0.94,1.44 a 3.31,3.31 0 0 0 1.91,-0.36"
       id="path65" />
    <path
       class="cls-15"
       d="m 253.32,21.88 a 6.28,6.28 0 0 0 -3.48,-1.52 c -1,-0.11 -2.3,0.2 -2.67,1.18"
       id="path66" />
    <path
       class="cls-15"
       d="m 243.96,26.72 a 2.1,2.1 0 0 0 -2.4,0.9 2.35,2.35 0 0 0 0.2,2.6"
       id="path67" />
    <path
       class="cls-15"
       d="m 263.9,27.06 a 5.15,5.15 0 0 1 -1.06,5.58"
       id="path68" />
    <path
       d="m 212.54,23.87 c 3.69,-0.51 7.63,-1.55 11.33,-0.88 3.22,0.57 6.4,1.53 9.57,2.31 0.2,0 0.42,-0.18 0.28,-0.37 l -1.54,-2.17 c -0.18,-0.26 -0.62,0 -0.43,0.25 0.19,0.25 1.77,2 1.74,2.16 0.05,-0.22 -3,-0.17 -3.16,-0.15 -0.32,0 -0.32,0.53 0,0.5 a 9.67,9.67 0 0 1 3.78,0.35 0.25,0.25 0 0 0 0.24,-0.42 24.31,24.31 0 0 1 -2.17,-2.69 l -0.43,0.25 c 0.7,1 1.79,1.63 0.07,1.38 -0.87,-0.13 -1.78,-0.44 -2.63,-0.65 a 54.76,54.76 0 0 0 -6,-1.38 c -3.49,-0.43 -7.31,0.55 -10.75,1 -0.32,0 -0.18,0.52 0.13,0.48 z"
       id="path179" />
    <path
       d="m 233.66,33.14 c -2.94,1.93 -6.36,2.09 -9.77,1.8 -1.83,-0.16 -3.65,-0.41 -5.46,-0.69 -1.64,-0.26 -4.28,-0.33 -5.5,-1.63 -0.21,-0.23 -0.5,0.06 -0.4,0.3 a 21.09,21.09 0 0 0 1.76,3.28 c 0.12,0.19 0.5,0.14 0.46,-0.12 a 13.18,13.18 0 0 0 -0.9,-2.92 c 0.12,-0.08 3.1,0.68 3.7,0.71 0.32,0 0.32,-0.48 0,-0.5 a 13.23,13.23 0 0 1 -4.27,-0.94 c -0.2,-0.08 -0.4,0.2 -0.28,0.37 a 10.79,10.79 0 0 1 1.15,2.21 c 0.38,1 -0.43,-0.8 -0.57,-1 -0.53,-0.69 -0.85,-0.75 0,-0.26 1.93,1.08 5.17,1.06 7.34,1.34 4.39,0.57 9.07,1 13,-1.53 0.27,-0.18 0,-0.61 -0.25,-0.44 z"
       id="path180" />
    <path
       d="m 178.39,24.42 a 7.35,7.35 0 0 0 -13.24,1.21 c -1.1,2.79 -0.45,6.27 2.23,7.92 3,1.88 6.56,0.2 9.29,-1.39 a 0.25,0.25 0 0 0 -0.06,-0.45 l -1.56,-0.38 c -0.1,0.34 0,0.44 0.43,0.3 h 1.28 a 1.55,1.55 0 0 1 -0.34,1.89 c -0.18,0.27 0.26,0.53 0.43,0.26 a 7.06,7.06 0 0 0 1,-2.33 0.25,0.25 0 0 0 -0.24,-0.31 h -3.4 a 0.25,0.25 0 0 0 -0.06,0.49 c 1.16,0.28 2.17,0.09 0.72,1 a 8.8,8.8 0 0 1 -4.56,1.26 c -3.75,-0.1 -5.88,-3.81 -4.94,-7.3 1.59,-5.91 9.48,-7.29 12.6,-1.9 a 0.25,0.25 0 0 0 0.43,-0.25 z"
       id="path181" />
    <path
       d="m 267.36,23.14 c 2.74,-3 10.6,-1.23 11.26,2.87 a 5.08,5.08 0 0 1 -4.25,5.89 c -0.67,0.08 -2.62,0.28 -3,-0.19 -0.21,0.05 -0.35,0 -0.41,-0.17 a 8.85,8.85 0 0 1 1.81,-0.93 l -0.19,-0.45 -3,1.46 a 0.26,0.26 0 0 0 0,0.44 24.15,24.15 0 0 0 2.61,1.62 c 0.29,0.15 0.54,-0.28 0.25,-0.43 -0.46,-0.25 -2,-0.85 -1.92,-1.37 0.08,-0.52 1.89,-1.09 2.31,-1.29 0.25,-0.13 0.07,-0.57 -0.19,-0.46 a 10.9,10.9 0 0 0 -2.49,1.4 c -0.16,0.12 -0.17,0.41 0.06,0.46 2.23,0.47 4.94,1 6.9,-0.55 a 6.32,6.32 0 0 0 1.85,-6.58 c -1.47,-3.86 -9.23,-5 -11.92,-2.07 -0.21,0.24 0.14,0.59 0.36,0.35 z"
       id="path182" />
    <text
       class="cls-20"
       id="text195"
       x="218.81"
       y="21.700001">0.7</text>
    <text
       class="cls-20"
       id="text196"
       x="218.81"
       y="33.700001">0.4</text>
    <text
       class="cls-20"
       id="text197"
       x="166.2"
       y="29.200001">0.3</text>
    <text
       class="cls-20"
       id="text198"
       x="270.20001"
       y="29.200001">0.6</text>
  </g>
  <metadata
     id="metadata346">
    <rdf:RDF>
      <cc:Work
         rdf:about="">
        <dc:title>markov_chain</dc:title>
      </cc:Work>
    </rdf:RDF>
  </metadata>
</svg>
