<?xml version="1.0" encoding="UTF-8" standalone="no"?>
<svg
   viewBox="0 0 300 103"
   version="1.1"
   id="svg346"
   sodipodi:docname="markov_chain_10_3_1.svg"
   width="300"
   height="103"
   inkscape:version="1.3.2 (1:1.3.2+202311252150+091e20ef0f)"
   xmlns:inkscape="http://www.inkscape.org/namespaces/inkscape"
   xmlns:sodipodi="http://sodipodi.sourceforge.net/DTD/sodipodi-0.dtd"
   xmlns="http://www.w3.org/2000/svg"
   xmlns:svg="http://www.w3.org/2000/svg"
   xmlns:rdf="http://www.w3.org/1999/02/22-rdf-syntax-ns#"
   xmlns:cc="http://creativecommons.org/ns#"
   xmlns:dc="http://purl.org/dc/elements/1.1/">
  <sodipodi:namedview
     id="namedview346"
     pagecolor="#ffffff"
     bordercolor="#000000"
     borderopacity="0.25"
     inkscape:showpageshadow="2"
     inkscape:pageopacity="0.0"
     inkscape:pagecheckerboard="0"
     inkscape:deskcolor="#d1d1d1"
     inkscape:zoom="7.230297"
     inkscape:cx="53.248158"
     inkscape:cy="45.641279"
     inkscape:window-width="1223"
     inkscape:window-height="779"
     inkscape:window-x="57"
     inkscape:window-y="21"
     inkscape:window-maximized="1"
     inkscape:current-layer="Layer_1" />
  <defs
     id="defs1">
    <style
       id="style1">.cls-1,.cls-18,.cls-19{fill:#fff;}.cls-10,.cls-11,.cls-12,.cls-13,.cls-14,.cls-15,.cls-16,.cls-17,.cls-2,.cls-3,.cls-4,.cls-5,.cls-6,.cls-7,.cls-8,.cls-9{fill:none;stroke-linecap:round;}.cls-2,.cls-3{stroke:#231f20;}.cls-2{stroke-miterlimit:10;}.cls-10,.cls-11,.cls-12,.cls-13,.cls-14,.cls-15,.cls-16,.cls-17,.cls-3,.cls-4,.cls-5,.cls-6,.cls-7,.cls-8,.cls-9{stroke-linejoin:round;}.cls-10,.cls-11,.cls-12,.cls-4,.cls-5,.cls-6,.cls-7,.cls-9{stroke:#fff200;}.cls-4{stroke-width:4px;}.cls-5{stroke-width:5px;}.cls-6{stroke-width:2px;}.cls-15,.cls-7,.cls-8{stroke-width:1.5px;}.cls-13,.cls-8{stroke:#ff883d;}.cls-9{stroke-width:2.12px;}.cls-10{stroke-width:2.65px;}.cls-11{stroke-width:1.06px;}.cls-12,.cls-13,.cls-17{stroke-width:0.8px;}.cls-14,.cls-16{stroke:#c6cdce;}.cls-14{stroke-width:3px;}.cls-15,.cls-17{stroke:gray;}.cls-16{stroke-width:1.59px;}.cls-18{opacity:0.5;}.cls-19{opacity:0.75;}.cls-20{font-size:6px;font-family:TimesNewRomanPSMT, Times New Roman;}.cls-21{fill:#231f20;}</style>
  </defs>
  <title
     id="title1">markov_chain</title>
  <g
     id="Layer_1"
     data-name="Layer 1">
    <path
       d="m 40.082484,66.520981 a 41.06,30.272017 8.345806 0 0 -0.187053,5.888505 l 0.465715,-0.0599 a 11.87,8.7513112 8.345806 0 1 -0.951582,-1.136091 0.25000008,0.1843158 8.345806 0 0 -0.462018,0.106955 7.54,5.5589626 8.345806 0 0 1.014721,1.620943 0.26,0.19168837 8.345806 0 0 0.432061,0.03083 12.27,9.0462164 8.345806 0 0 1.187415,-1.892967 0.25000019,0.18431588 8.345806 0 0 -0.480467,-0.128135 12.05,8.8840185 8.345806 0 1 -1.131963,1.800342 l 0.422454,0.02827 a 7.16,5.2788027 8.345806 0 1 -0.966314,-1.523637 l -0.45241,0.109518 a 12.88,9.4959468 8.345806 0 0 0.95158,1.136092 c 0.136738,0.143875 0.490079,0.130698 0.465715,-0.0599 a 41.25,30.412097 8.345806 0 1 0.179287,-5.867556 c 0.08282,-0.22343 -0.453096,-0.25894 -0.494893,-0.03224 z"
       id="path192-6"
       style="stroke:none;stroke-width:0.85864;stroke-opacity:1" />
  </g>
  <metadata
     id="metadata346">
    <rdf:RDF>
      <cc:Work
         rdf:about="">
        <dc:title>markov_chain</dc:title>
      </cc:Work>
    </rdf:RDF>
  </metadata>
</svg>
