<?xml version="1.0" encoding="UTF-8" standalone="no"?>
<svg
   viewBox="0 0 300 103"
   version="1.1"
   id="svg346"
   sodipodi:docname="markov_chain_1_2.svg"
   width="300"
   height="103"
   inkscape:version="1.3.2 (1:1.3.2+202311252150+091e20ef0f)"
   xmlns:inkscape="http://www.inkscape.org/namespaces/inkscape"
   xmlns:sodipodi="http://sodipodi.sourceforge.net/DTD/sodipodi-0.dtd"
   xmlns="http://www.w3.org/2000/svg"
   xmlns:svg="http://www.w3.org/2000/svg"
   xmlns:rdf="http://www.w3.org/1999/02/22-rdf-syntax-ns#"
   xmlns:cc="http://creativecommons.org/ns#"
   xmlns:dc="http://purl.org/dc/elements/1.1/">
  <sodipodi:namedview
     id="namedview346"
     pagecolor="#ffffff"
     bordercolor="#000000"
     borderopacity="0.25"
     inkscape:showpageshadow="2"
     inkscape:pageopacity="0.0"
     inkscape:pagecheckerboard="0"
     inkscape:deskcolor="#d1d1d1"
     inkscape:zoom="1.9694942"
     inkscape:cx="155.36984"
     inkscape:cy="79.715898"
     inkscape:window-width="1223"
     inkscape:window-height="779"
     inkscape:window-x="57"
     inkscape:window-y="21"
     inkscape:window-maximized="1"
     inkscape:current-layer="Layer_1" />
  <defs
     id="defs1">
    <style
       id="style1">.cls-1,.cls-18,.cls-19{fill:#fff;}.cls-10,.cls-11,.cls-12,.cls-13,.cls-14,.cls-15,.cls-16,.cls-17,.cls-2,.cls-3,.cls-4,.cls-5,.cls-6,.cls-7,.cls-8,.cls-9{fill:none;stroke-linecap:round;}.cls-2,.cls-3{stroke:#231f20;}.cls-2{stroke-miterlimit:10;}.cls-10,.cls-11,.cls-12,.cls-13,.cls-14,.cls-15,.cls-16,.cls-17,.cls-3,.cls-4,.cls-5,.cls-6,.cls-7,.cls-8,.cls-9{stroke-linejoin:round;}.cls-10,.cls-11,.cls-12,.cls-4,.cls-5,.cls-6,.cls-7,.cls-9{stroke:#fff200;}.cls-4{stroke-width:4px;}.cls-5{stroke-width:5px;}.cls-6{stroke-width:2px;}.cls-15,.cls-7,.cls-8{stroke-width:1.5px;}.cls-13,.cls-8{stroke:#ff883d;}.cls-9{stroke-width:2.12px;}.cls-10{stroke-width:2.65px;}.cls-11{stroke-width:1.06px;}.cls-12,.cls-13,.cls-17{stroke-width:0.8px;}.cls-14,.cls-16{stroke:#c6cdce;}.cls-14{stroke-width:3px;}.cls-15,.cls-17{stroke:gray;}.cls-16{stroke-width:1.59px;}.cls-18{opacity:0.5;}.cls-19{opacity:0.75;}.cls-20{font-size:6px;font-family:TimesNewRomanPSMT, Times New Roman;}.cls-21{fill:#231f20;}</style>
  </defs>
  <title
     id="title1">markov_chain</title>
  <g
     id="Layer_1"
     data-name="Layer 1">
    <path
       class="cls-21"
       d="m 93.443849,94.663417 c -0.08976,1.9475 -0.605894,5.727933 1.458633,6.758963 1.705479,0.85283 2.984588,-1.38743 3.298755,-2.991257 0.359048,-1.858389 0,-4.836918 -1.649378,-5.842488 -1.122025,-0.700077 -3.792446,0.47097 -3.366076,2.227534 a 0.41922354,0.47558495 0 0 0 0.807858,-0.254576 1.6381573,1.858395 0 0 1 0.987383,-1.00557 c 0.583453,-0.470959 1.122025,-0.292759 1.76158,0.509152 a 3.0182487,3.4240291 0 0 1 0.583453,1.451071 4.8134896,5.4606263 0 0 1 -0.08976,3.373112 c -0.336608,0.992851 -0.594674,1.272882 -1.559615,1.272882 -0.751758,0.28003 -1.178127,0 -1.27911,-0.967388 L 94.285368,98.30384 a 22.339529,25.342907 0 0 1 0,-3.678606 c 0,-0.610976 -0.807859,-0.610976 -0.841519,0 z"
       id="path374"
       style="fill:#231f20;stroke-width:1.19507" />
    <path
       class="cls-21"
       d="m 99.042756,92.575911 -0.07854,4.378682 a 12.196418,13.836132 0 0 0 0,2.991257 1.3913117,1.5783629 0 0 0 2.244054,0.95465 c 1.885,-1.425613 1.45863,-6.593483 -1.312772,-5.16786 -0.493692,0.254565 -0.06732,1.081935 0.426372,0.827359 2.40113,-1.272871 1.12202,5.091501 -0.504914,2.889429 -0.201965,-0.280035 0,-1.794758 0,-2.189341 l 0.07854,-4.684176 a 0.42636971,0.48369185 0 0 0 -0.84152,0 z"
       id="path375"
       style="fill:#231f20;stroke-width:1.19507" />
    <path
       class="cls-21"
       d="m 105.19146,95.401687 a 1.582056,1.7947513 0 0 0 -2.79385,0.725536 1.6493775,1.8711237 0 0 0 0.68444,1.871123 6.3394443,7.191734 0 0 0 1.00982,0.64917 2.0420865,2.3166294 0 0 1 0.57223,0.458236 c 0.16831,1.031038 -0.0561,1.412888 -0.67321,1.120138 a 0.61711405,0.70008031 0 0 1 -0.69566,-0.394599 c 0.0785,-0.598257 -0.72931,-0.865557 -0.80785,-0.25458 -0.22441,1.820209 2.37869,2.291179 3.10801,0.840099 a 1.4698535,1.667464 0 0 0 -0.43759,-2.087511 5.4642644,6.1988929 0 0 0 -1.12203,-0.776453 c -0.30295,-0.190935 -0.93128,-0.56007 -0.8303,-1.081947 a 0.76297737,0.86555383 0 0 1 1.39131,-0.394583 c 0.34783,0.470959 0.9425,-0.20367 0.59468,-0.674629 z"
       id="path376"
       style="fill:#231f20;stroke-width:1.19507" />
    <path
       class="cls-21"
       d="m 105.95443,98.622058 c 1.21179,-0.254577 2.78263,-0.878288 2.61432,-2.609394 a 1.6381573,1.858395 0 0 0 -2.59188,-1.145577 c -0.47125,0.5346 -0.35904,1.527447 -0.35904,2.214789 a 6.6648317,7.5608673 0 0 0 0.34782,2.914892 1.7503598,1.9856823 0 0 0 2.76019,0.929192 c 0.41515,-0.40732 -0.19075,-1.081945 -0.59468,-0.67462 -1.02104,1.00557 -1.55961,-1.107406 -1.61571,-1.820217 a 7.158523,8.1209315 0 0 1 0,-2.151148 c 0.0673,-0.445511 0.15708,-0.903747 0.76297,-0.73827 a 0.61711405,0.70008031 0 0 1 0.46003,0.929194 c -0.20196,0.929205 -1.29033,1.094671 -1.97476,1.272871 -0.68444,0.178211 -0.30295,1.031029 0.2244,0.91647 z"
       id="path377"
       style="fill:#231f20;stroke-width:1.19507" />
    <path
       class="cls-21"
       d="m 109.50003,96.572734 c 0,-0.165476 0.13465,-1.069212 0.29173,-1.158312 0.15708,-0.08909 0.34783,0.165465 0.44881,0.1782 a 1.7054788,1.9347674 0 0 0 1.12203,-0.216394 l -0.61712,-0.280035 a 4.2861376,4.8623759 0 0 1 -0.47125,3.551323 2.3674739,2.6857626 0 0 0 -0.53857,1.960224 0.97616222,1.1073998 0 0 0 1.64938,0.53462 c 0.37027,-0.44552 -0.22441,-1.13287 -0.59468,-0.67463 a 0.69565584,0.78918143 0 0 1 0,-1.005578 c 0.12343,-0.216383 0.23563,-0.432777 0.34783,-0.661894 a 5.4867049,6.2243503 0 0 0 0.43759,-1.158312 5.9018544,6.6953135 0 0 0 0,-2.800318 0.43758996,0.49642058 0 0 0 -0.62833,-0.29277 c -0.57224,0.305494 -1.00983,-0.318218 -1.53718,0 a 2.1430688,2.431188 0 0 0 -0.72931,1.756576 c -0.0785,0.610976 0.72931,0.865553 0.80785,0.254565 z"
       id="path378"
       style="fill:#231f20;stroke-width:1.19507" />
    <path
       class="cls-21"
       d="m 111.92361,94.803434 a 13.340884,15.134463 0 0 0 0.49369,3.436765 9.5035564,10.781237 0 0 0 0.79664,3.131271 0.41514945,0.47096312 0 0 0 0.7181,0 38.20497,43.341336 0 0 0 1.95232,-6.364377 0.42636971,0.48369185 0 0 0 -0.81908,-0.254565 36.634134,41.559312 0 0 1 -1.85134,6.097062 h 0.7181 a 9.22305,10.463018 0 0 1 -0.70688,-2.90215 12.622787,14.319824 0 0 1 -0.46003,-3.182188 c 0,-0.610977 -0.81908,-0.610977 -0.84152,0 z"
       id="path379"
       style="fill:#231f20;stroke-width:1.19507" />
    <path
       class="cls-21"
       d="m 118.98115,97.158252 c 0.0561,-1.272871 -0.43759,-3.589506 -1.99721,-2.825777 -1.38009,0.674618 -1.30155,3.818624 -1.26788,5.091494 0.0337,1.272871 0.83029,2.609401 2.0533,1.654731 1.44742,-1.13285 1.36887,-3.818613 1.33521,-5.536995 h -0.84152 c 0.10099,1.896582 -0.37026,3.818623 -0.14586,5.651555 0.0673,0.59825 0.90884,0.61099 0.84152,0 -0.22441,-1.88385 0.24685,-3.818614 0.14586,-5.651555 0,-0.598253 -0.85274,-0.610977 -0.84152,0 a 13.015496,14.76533 0 0 1 -0.0898,2.545741 3.2875348,3.7295188 0 0 1 -0.34783,1.438347 c -0.0785,0.394599 -0.31416,0.547337 -0.69565,0.483697 q -0.69566,0.45824 -0.57224,-0.381862 a 5.8120923,6.5934836 0 0 1 0.0673,-2.112965 5.0266744,5.7024723 0 0 1 0.29172,-1.629282 l 1.20057,0.101768 a 4.6339655,5.2569667 0 0 1 0,1.183782 c 0,0.610976 0.80786,0.610976 0.84152,0 z"
       id="path380"
       style="fill:#231f20;stroke-width:1.19507" />
    <path
       class="cls-21"
       d="m 120.40612,92.474076 a 51.523413,58.450341 0 0 0 0.19075,8.451884 0.41514945,0.47096312 0 0 0 0.29172,0.34368 2.7826233,3.1567257 0 0 0 1.70548,-0.56006 c 0.49369,-0.25458 0.0673,-1.081952 -0.42637,-0.814647 -1.12202,0.598257 -0.78542,-0.06362 -0.80786,-1.145593 v -1.883847 l -0.0785,-4.391417 a 0.42636971,0.48369185 0 0 0 -0.84152,0 z"
       id="path381"
       style="fill:#231f20;stroke-width:1.19507" />
    <path
       class="cls-21"
       d="m 119.68803,96.012664 a 7.5736724,8.5918947 0 0 1 2.41235,-0.190924 c 0.53857,0 0.53857,-0.891012 0,-0.954653 a 8.3366498,9.4574485 0 0 0 -2.63676,0.229106 c -0.52735,0.140018 -0.30295,1.056488 0.22441,0.916471 z"
       id="path382"
       style="fill:#231f20;stroke-width:1.19507" />
    <path
       class="cls-21"
       d="m 123.30095,95.401687 a 30.29469,34.367578 0 0 0 -0.0898,4.849653 c 0.10098,0.8401 0.75175,1.56563 1.48107,1.00557 0.44881,-0.34367 0,-1.17104 -0.41515,-0.82737 -0.26929,0.20366 -0.2244,-1.361982 -0.21318,-1.425623 v -1.272871 -2.393 a 0.42636971,0.48369185 0 0 0 -0.84152,0 z"
       id="path383"
       style="fill:#231f20;stroke-width:1.19507" />
    <path
       class="cls-21"
       d="m 123.27851,92.970505 v 0.127282 a 0.42636971,0.48369185 0 0 0 0.84152,0 v -0.127282 a 0.42636971,0.48369185 0 0 0 -0.84152,0 z"
       id="path384"
       style="fill:#231f20;stroke-width:1.19507" />
    <path
       class="cls-21"
       d="m 124.84934,98.21474 c 0,0.941929 0.12343,3.92045 1.64938,3.02944 1.30155,-0.75099 1.91866,-3.093081 1.885,-4.569622 0,-1.272871 -0.76297,-2.545741 -2.08696,-2.100241 -1.57084,0.598253 -1.45864,2.813052 -1.25667,4.289582 0.0785,0.598253 0.89762,0.343676 0.80786,-0.254565 -0.12343,-0.916471 -0.34783,-2.545753 0.54979,-3.04217 1.25667,-0.76373 1.17813,1.552905 1.04348,2.265717 a 3.8148868,4.3277692 0 0 1 -0.93128,2.176609 c -0.89762,0.85283 -0.80786,-1.132856 -0.78542,-1.79475 a 0.42636971,0.48369185 0 0 0 -0.84152,0 z"
       id="path385"
       style="fill:#231f20;stroke-width:1.19507" />
    <path
       class="cls-21"
       d="m 128.89986,94.803434 c 0,2.112976 0,4.238676 0.10098,6.364366 a 0.42636971,0.48369185 0 0 0 0.84152,0 13.643831,15.478139 0 0 1 0.17952,-3.067619 c 0.0785,-0.496418 0.52735,-2.673035 1.24545,-2.265717 0.32539,0.190935 0.13464,1.998417 0.13464,2.469376 v 2.90216 a 0.42636971,0.48369185 0 0 0 0.84152,0 c 0,-1.743848 0.13465,-3.576778 0,-5.320619 0,-0.623711 -0.24684,-1.374705 -0.93128,-1.27287 -0.68443,0.101879 -1.58206,1.27287 -1.8289,2.011141 a 10.838767,12.295956 0 0 0 -0.48247,4.556888 h 0.87518 c -0.0785,-2.112982 -0.1122,-4.238671 -0.10098,-6.364371 a 0.42636971,0.48369185 0 0 0 -0.84152,0 z"
       id="path386"
       style="fill:#231f20;stroke-width:1.19507" />
    <path
       class="cls-21"
       d="m 140.23,94.270476 c -0.42,-1.08 -1.39,-2.25 -2.69,-1.68 -1.3,0.57 -1.82,3 -1.9,4.29 -0.1,1.47 0.16,3.290004 1.66,4.000004 1.5,0.71 2.39,-0.33 3.16,-1.400004 0.28,-0.4 -0.37,-0.77 -0.64,-0.38 a 1.29,1.29 0 0 1 -1.41,0.83 c -0.91,0.510004 -1.52,0.180004 -1.83,-1 a 4.87,4.87 0 0 1 -0.21,-1.78 7.48,7.48 0 0 1 0.36,-2 l 0.37,-0.93 c 0.36,-0.93 1.17,-0.83 2.41,0.3 0.17,0.44 0.9,0.25 0.72,-0.2 z"
       id="path387"
       style="fill:#231f20" />
    <path
       class="cls-21"
       d="m 141.02,98.940476 c -0.05,-0.06 0,0.4 0,0.46 v 0.740004 c 0,0.55 -0.09,1.09 -0.16,1.64 -0.07,0.55 0.66,0.67 0.72,0.2 0.1,-0.7 0.17,-1.39 0.2,-2.080004 a 2.17,2.17 0 0 0 -0.17,-1.49 c -0.3,-0.37 -0.83,0.16 -0.53,0.53 z"
       id="path388"
       style="fill:#231f20" />
    <path
       class="cls-21"
       d="m 142.89,99.140476 c -0.46,0.31 -0.93,0.59 -1.41,0.860004 a 0.38,0.38 0 0 0 0.09,0.69 c 0.22,0.07 0.44,0.37 0.6,0.53 0.16,0.16 0.39,0.32 0.44,0.47 v -0.28 0 c -0.27,0.4 0.38,0.78 0.64,0.38 0.26,-0.4 -0.15,-0.67 -0.35,-0.89 a 3.2,3.2 0 0 0 -1.16,-1.000004 l 0.09,0.680004 c 0.48,-0.27 0.95,-0.55 1.41,-0.860004 0.46,-0.31 0,-0.91 -0.38,-0.65 z"
       id="path389"
       style="fill:#231f20" />
  </g>
  <metadata
     id="metadata346">
    <rdf:RDF>
      <cc:Work
         rdf:about="">
        <dc:title>markov_chain</dc:title>
      </cc:Work>
    </rdf:RDF>
  </metadata>
</svg>
