<?xml version="1.0" encoding="UTF-8" standalone="no"?>
<svg
   viewBox="0 0 300 103"
   version="1.1"
   id="svg346"
   sodipodi:docname="markov_chain_10_2_1.svg"
   width="300"
   height="103"
   inkscape:version="1.3.2 (1:1.3.2+202311252150+091e20ef0f)"
   xmlns:inkscape="http://www.inkscape.org/namespaces/inkscape"
   xmlns:sodipodi="http://sodipodi.sourceforge.net/DTD/sodipodi-0.dtd"
   xmlns="http://www.w3.org/2000/svg"
   xmlns:svg="http://www.w3.org/2000/svg"
   xmlns:rdf="http://www.w3.org/1999/02/22-rdf-syntax-ns#"
   xmlns:cc="http://creativecommons.org/ns#"
   xmlns:dc="http://purl.org/dc/elements/1.1/">
  <sodipodi:namedview
     id="namedview346"
     pagecolor="#ffffff"
     bordercolor="#000000"
     borderopacity="0.25"
     inkscape:showpageshadow="2"
     inkscape:pageopacity="0.0"
     inkscape:pagecheckerboard="0"
     inkscape:deskcolor="#d1d1d1"
     inkscape:zoom="7.230297"
     inkscape:cx="40.800537"
     inkscape:cy="26.83154"
     inkscape:window-width="1223"
     inkscape:window-height="779"
     inkscape:window-x="57"
     inkscape:window-y="21"
     inkscape:window-maximized="1"
     inkscape:current-layer="Layer_1" />
  <defs
     id="defs1">
    <style
       id="style1">.cls-1,.cls-18,.cls-19{fill:#fff;}.cls-10,.cls-11,.cls-12,.cls-13,.cls-14,.cls-15,.cls-16,.cls-17,.cls-2,.cls-3,.cls-4,.cls-5,.cls-6,.cls-7,.cls-8,.cls-9{fill:none;stroke-linecap:round;}.cls-2,.cls-3{stroke:#231f20;}.cls-2{stroke-miterlimit:10;}.cls-10,.cls-11,.cls-12,.cls-13,.cls-14,.cls-15,.cls-16,.cls-17,.cls-3,.cls-4,.cls-5,.cls-6,.cls-7,.cls-8,.cls-9{stroke-linejoin:round;}.cls-10,.cls-11,.cls-12,.cls-4,.cls-5,.cls-6,.cls-7,.cls-9{stroke:#fff200;}.cls-4{stroke-width:4px;}.cls-5{stroke-width:5px;}.cls-6{stroke-width:2px;}.cls-15,.cls-7,.cls-8{stroke-width:1.5px;}.cls-13,.cls-8{stroke:#ff883d;}.cls-9{stroke-width:2.12px;}.cls-10{stroke-width:2.65px;}.cls-11{stroke-width:1.06px;}.cls-12,.cls-13,.cls-17{stroke-width:0.8px;}.cls-14,.cls-16{stroke:#c6cdce;}.cls-14{stroke-width:3px;}.cls-15,.cls-17{stroke:gray;}.cls-16{stroke-width:1.59px;}.cls-18{opacity:0.5;}.cls-19{opacity:0.75;}.cls-20{font-size:6px;font-family:TimesNewRomanPSMT, Times New Roman;}.cls-21{fill:#231f20;}</style>
  </defs>
  <title
     id="title1">markov_chain</title>
  <g
     id="Layer_1"
     data-name="Layer 1">
    <path
       d="m 56.393934,40.235937 a 41.06,41.06 0 0 0 -6.869366,4.036274 l 0.350657,0.333226 a 11.87,11.87 0 0 1 0.72751,-1.575827 0.25000008,0.25000008 0 0 0 -0.40237,-0.296814 7.54,7.54 0 0 0 -1.245584,1.971553 0.26,0.26 0 0 0 0.22615,0.370616 12.27,12.27 0 0 0 2.890612,-0.387766 0.25,0.25 0 0 0 -0.143807,-0.478873 12.05,12.05 0 0 1 -2.750775,0.366655 l 0.223274,0.361038 a 7.16,7.16 0 0 1 1.163241,-1.863296 l -0.399493,-0.287236 a 12.88,12.88 0 0 0 -0.72751,1.575826 c -0.08231,0.21266 0.146683,0.488451 0.350657,0.333226 a 41.25,41.25 0 0 1 6.840633,-4.027646 c 0.306479,-0.09204 0.02284,-0.549798 -0.262561,-0.422328 z"
       id="path192"
       style="stroke:none;stroke-opacity:1" />
  </g>
  <metadata
     id="metadata346">
    <rdf:RDF>
      <cc:Work
         rdf:about="">
        <dc:title>markov_chain</dc:title>
      </cc:Work>
    </rdf:RDF>
  </metadata>
</svg>
