<?xml version="1.0" encoding="UTF-8" standalone="no"?>
<svg
   viewBox="0 0 300 103"
   version="1.1"
   id="svg346"
   sodipodi:docname="markov_chain_1.svg"
   width="300"
   height="103"
   inkscape:version="1.3.2 (1:1.3.2+202311252150+091e20ef0f)"
   xmlns:inkscape="http://www.inkscape.org/namespaces/inkscape"
   xmlns:sodipodi="http://sodipodi.sourceforge.net/DTD/sodipodi-0.dtd"
   xmlns="http://www.w3.org/2000/svg"
   xmlns:svg="http://www.w3.org/2000/svg"
   xmlns:rdf="http://www.w3.org/1999/02/22-rdf-syntax-ns#"
   xmlns:cc="http://creativecommons.org/ns#"
   xmlns:dc="http://purl.org/dc/elements/1.1/">
  <sodipodi:namedview
     id="namedview346"
     pagecolor="#ffffff"
     bordercolor="#000000"
     borderopacity="0.25"
     inkscape:showpageshadow="2"
     inkscape:pageopacity="0.0"
     inkscape:pagecheckerboard="0"
     inkscape:deskcolor="#d1d1d1"
     inkscape:zoom="1.9694942"
     inkscape:cx="155.36984"
     inkscape:cy="79.715899"
     inkscape:window-width="1223"
     inkscape:window-height="779"
     inkscape:window-x="57"
     inkscape:window-y="21"
     inkscape:window-maximized="1"
     inkscape:current-layer="Layer_1" />
  <defs
     id="defs1">
    <style
       id="style1">.cls-1,.cls-18,.cls-19{fill:#fff;}.cls-10,.cls-11,.cls-12,.cls-13,.cls-14,.cls-15,.cls-16,.cls-17,.cls-2,.cls-3,.cls-4,.cls-5,.cls-6,.cls-7,.cls-8,.cls-9{fill:none;stroke-linecap:round;}.cls-2,.cls-3{stroke:#231f20;}.cls-2{stroke-miterlimit:10;}.cls-10,.cls-11,.cls-12,.cls-13,.cls-14,.cls-15,.cls-16,.cls-17,.cls-3,.cls-4,.cls-5,.cls-6,.cls-7,.cls-8,.cls-9{stroke-linejoin:round;}.cls-10,.cls-11,.cls-12,.cls-4,.cls-5,.cls-6,.cls-7,.cls-9{stroke:#fff200;}.cls-4{stroke-width:4px;}.cls-5{stroke-width:5px;}.cls-6{stroke-width:2px;}.cls-15,.cls-7,.cls-8{stroke-width:1.5px;}.cls-13,.cls-8{stroke:#ff883d;}.cls-9{stroke-width:2.12px;}.cls-10{stroke-width:2.65px;}.cls-11{stroke-width:1.06px;}.cls-12,.cls-13,.cls-17{stroke-width:0.8px;}.cls-14,.cls-16{stroke:#c6cdce;}.cls-14{stroke-width:3px;}.cls-15,.cls-17{stroke:gray;}.cls-16{stroke-width:1.59px;}.cls-18{opacity:0.5;}.cls-19{opacity:0.75;}.cls-20{font-size:6px;font-family:TimesNewRomanPSMT, Times New Roman;}.cls-21{fill:#231f20;}</style>
  </defs>
  <title
     id="title1">markov_chain</title>
  <g
     id="Layer_1"
     data-name="Layer 1">
    <path
       class="cls-1"
       d="M 20.37,10.14 24.25,9.69 Z"
       id="path1" />
    <path
       class="cls-1"
       d="M 24.97,32.73 A 23.58,23.58 0 0 0 20.78,33.2"
       id="path2" />
    <path
       class="cls-1"
       d="m 24.49,79.62 -4.11,0.26"
       id="path4" />
    <path
       class="cls-2"
       d="m 22.485853,9.865853 c 0,29.234107 0.248294,61.25608 0.248294,76.073766"
       id="path178"
       style="stroke-width:0.951707"
       sodipodi:nodetypes="cc" />
    <path
       class="cls-1"
       d="M 20.24,10.14 24.12,9.69 Z"
       id="path1-2"
       style="fill:#ffffff" />
    <line
       class="cls-2"
       x1="24.120001"
       y1="9.6800003"
       x2="20.25"
       y2="10.139999"
       id="line1-5"
       style="fill:none;stroke:#231f20;stroke-width:0.75px;stroke-linecap:round;stroke-miterlimit:10" />
    <path
       class="cls-1"
       d="M 24.84,32.73 A 23.58,23.58 0 0 0 20.65,33.2"
       id="path2-4"
       style="fill:#ffffff" />
    <path
       class="cls-2"
       d="M 24.84,32.73 A 23.58,23.58 0 0 0 20.65,33.2"
       id="path3-7"
       style="fill:none;stroke:#231f20;stroke-width:0.75px;stroke-linecap:round;stroke-miterlimit:10" />
    <path
       class="cls-1"
       d="m 24.36,79.62 -4.11,0.26"
       id="path4-4"
       style="fill:#ffffff" />
    <path
       class="cls-2"
       d="m 24.36,79.62 -4.11,0.26"
       id="path5-4"
       style="fill:none;stroke:#231f20;stroke-width:0.75px;stroke-linecap:round;stroke-miterlimit:10" />
    <path
       class="cls-2"
       d="m 17.13,10.91 a 8.81,8.81 0 0 0 0.17,2.35 1.34,1.34 0 0 0 1.49,-1 2.52,2.52 0 0 0 -0.27,-2 A 0.67,0.67 0 0 0 18.11,9.89 0.55,0.55 0 0 0 17.75,10 c -0.51,0.38 -0.84,1.01 -0.62,0.91 z"
       id="path8-3"
       style="fill:none;stroke:#231f20;stroke-width:0.75px;stroke-linecap:round;stroke-miterlimit:10" />
    <path
       class="cls-3"
       d="m 16.75,34.71 a 11.1,11.1 0 0 0 1.7,-1.65 c 0.11,-0.12 0.1,-0.37 -0.09,-0.32 0,0.89 0,1.78 -0.05,2.67 a 1.33,1.33 0 0 1 -0.22,0.84 0.87,0.87 0 0 1 -1,0.23 18.07,18.07 0 0 0 2.21,-0.09"
       id="path9-0"
       style="fill:none;stroke:#231f20;stroke-width:0.75px;stroke-linecap:round;stroke-linejoin:round" />
    <path
       class="cls-3"
       d="m 16.76,57.14 a 2.17,2.17 0 0 1 0.14,-1 c 0.36,-0.09 0.79,-0.16 1.05,0.15 a 1.41,1.41 0 0 1 0,1.43 6.15,6.15 0 0 1 -1,1.56 4.15,4.15 0 0 1 2.07,0"
       id="path10-7"
       style="fill:none;stroke:#231f20;stroke-width:0.75px;stroke-linecap:round;stroke-linejoin:round" />
    <path
       class="cls-3"
       d="m 17.29,79.57 a 2.33,2.33 0 0 1 1,-0.48 1,1 0 0 1 -0.7,1.26 1.67,1.67 0 0 1 0.77,-0.2 0.67,0.67 0 0 1 0.6,0.54 1,1 0 0 1 -0.12,0.67 1.27,1.27 0 0 1 -2.1,0.34"
       id="path11-8"
       style="fill:none;stroke:#231f20;stroke-width:0.75px;stroke-linecap:round;stroke-linejoin:round" />
    <path
       class="cls-2"
       d="m 24.36,56.49 a 28.6,28.6 0 0 1 -4,0.25"
       id="path17-6"
       style="fill:none;stroke:#231f20;stroke-width:0.75px;stroke-linecap:round;stroke-miterlimit:10" />
    <path
       class="cls-21"
       d="m 3,59.97 c 2.46,0.16 4.87,-0.77 7.32,-0.28 0.48,0.09 0.68,-0.63 0.2,-0.72 -2.53,-0.51 -5,0.41 -7.52,0.25 -0.48,0 -0.48,0.72 0,0.75 z"
       id="path328-8"
       style="fill:#231f20" />
    <path
       class="cls-21"
       d="M 3.27,62.89 A 23.44,23.44 0 0 1 2.79,56.47 c 0,-0.48 -0.72,-0.48 -0.75,0 a 24.52,24.52 0 0 0 0.51,6.67 c 0.1,0.47 0.83,0.27 0.72,-0.2 z"
       id="path329-8"
       style="fill:#231f20" />
    <path
       class="cls-21"
       d="m 5.73,56.14 a 20,20 0 0 0 4.64,-0.16 c 0.48,-0.08 0.27,-0.8 -0.2,-0.73 a 18.32,18.32 0 0 1 -4.44,0.14 c -0.48,0 -0.47,0.71 0,0.75 z"
       id="path330-4"
       style="fill:#231f20" />
    <path
       class="cls-21"
       d="m 3.68,55.88 h 0.23 a 0.38,0.38 0 0 0 0.16,-0.63 0.51,0.51 0 0 0 -0.78,0 c -0.36,0.33 0.17,0.86 0.53,0.53 L 3.9,55.71 3.63,55.77 h 0.1 L 3.46,55.66 3.54,55.73 3.71,55.14 H 3.48 c -0.47,0.1 -0.27,0.83 0.2,0.72 z"
       id="path331-3"
       style="fill:#231f20" />
    <path
       class="cls-21"
       d="m 4.09,53.14 q 3.14,0 6.25,-0.23 c 0.48,0 0.48,-0.78 0,-0.75 q -3.12,0.19 -6.25,0.23 a 0.38,0.38 0 0 0 0,0.75 z"
       id="path332-1"
       style="fill:#231f20" />
    <path
       class="cls-21"
       d="m 5.94,51.914665 c -0.5,-0.32804 -1.67,-0.995836 -0.59,-1.78079 0.28,-0.210883 1.13,-0.07029 1.46,-0.08201 1,0 2.09,0 3.13,0 a 0.38,0.44519736 0 0 0 0.19,-0.8201 l -0.11,-0.08201 C 9.61,48.856862 9.23,49.606668 9.65,49.911277 l 0.1,0.07029 0.19,-0.8201 c -1.11,-0.01172 -2.23,-0.01172 -3.31,-0.01172 -0.68,0 -1.68,-0.117157 -2.27,0.421766 -1.21,1.171572 0.42,2.542311 1.23,3.069518 0.43,0.269462 0.8,-0.49206 0.38,-0.761521 z"
       id="path333-4"
       style="fill:#231f20;stroke-width:1.08239" />
    <path
       class="cls-21"
       d="m 6.27,48.97 a 4,4 0 0 1 -1.05,-1.15 2,2 0 0 1 -0.32,-0.8 0.38,0.38 0 0 1 0.15,-0.5 0.43,0.43 0 0 1 0.64,-0.38 13.68,13.68 0 0 1 4.22,0.34 c 0.47,0.07 0.67,-0.65 0.2,-0.73 A 28.41,28.41 0 0 0 6.55,45.4 c -0.61,0 -1.85,-0.28 -2.32,0.25 -0.47,0.53 -0.13,1.37 0,1.85 a 4.36,4.36 0 0 0 1.47,2 c 0.37,0.29 0.91,-0.23 0.53,-0.53 z"
       id="path334-9"
       style="fill:#231f20" />
    <path
       class="cls-21"
       d="m 7.51,42.14 c -0.18,-1 -1,-3.09 -2.34,-2.89 a 2,2 0 0 0 -1.06,3 2.73,2.73 0 0 0 2,0.72 16.09,16.09 0 0 0 3.67,0 c 1.47,-0.3 0.86,-2.27 0.39,-3.23 -0.21,-0.43 -0.86,0 -0.64,0.38 0.22,0.38 0.62,1.43 0.39,1.83 -0.23,0.4 -0.44,0.25 -0.77,0.29 a 22.76,22.76 0 0 1 -2.61,0 3.22,3.22 0 0 1 -1.25,-0.1 L 4.72,40.67 c 0.11,-0.46 0.35,-0.59 0.72,-0.38 0.89,0.08 1.21,1.4 1.34,2.12 0.09,0.48 0.81,0.27 0.73,-0.2 z"
       id="path335-2"
       style="fill:#231f20" />
    <path
       class="cls-21"
       d="m 13.63,5.72 c 0,1.16 0.06,2.31 0.14,3.47 a 8.42,8.42 0 0 0 0.35,2.95 c 0.49,1 1.37,0.87 2.11,0.23 0.36,-0.31 -0.17,-0.84 -0.53,-0.53 -1.07,0.89 -1.07,-1.4 -1.13,-1.7 0,-0.49 -0.08,-1 -0.11,-1.48 -0.06,-1 -0.09,-2 -0.11,-3 a 0.38,0.38 0 0 0 -0.75,0 z"
       id="path355"
       style="fill:#231f20" />
    <path
       class="cls-21"
       d="m 12.63,9.14 a 10.33,10.33 0 0 0 3,-0.07 C 16.1,9 15.9,8.27 15.43,8.35 a 10,10 0 0 1 -2.84,0 c -0.48,0 -0.48,0.7 0,0.75 z"
       id="path356"
       style="fill:#231f20" />
    <path
       class="cls-21"
       d="m 13.63,28.72 c 0,1.16 0.06,2.31 0.14,3.47 a 8.42,8.42 0 0 0 0.35,2.95 c 0.49,1 1.37,0.87 2.11,0.23 0.36,-0.31 -0.17,-0.84 -0.53,-0.53 -1.07,0.89 -1.07,-1.4 -1.13,-1.7 0,-0.49 -0.08,-1 -0.11,-1.48 -0.06,-1 -0.09,-2 -0.11,-3 a 0.38,0.38 0 0 0 -0.75,0 z"
       id="path357"
       style="fill:#231f20" />
    <path
       class="cls-21"
       d="m 12.63,32.14 a 10.33,10.33 0 0 0 3,-0.07 C 16.1,32 15.9,31.27 15.43,31.35 a 10,10 0 0 1 -2.84,0 c -0.48,0 -0.48,0.7 0,0.75 z"
       id="path358"
       style="fill:#231f20" />
    <path
       class="cls-21"
       d="m 13.63,51.72 c 0,1.16 0.06,2.31 0.14,3.47 a 8.42,8.42 0 0 0 0.35,2.95 c 0.49,1 1.37,0.87 2.11,0.23 0.36,-0.31 -0.17,-0.84 -0.53,-0.53 -1.07,0.89 -1.07,-1.4 -1.13,-1.7 0,-0.49 -0.08,-1 -0.11,-1.48 -0.06,-1 -0.09,-2 -0.11,-3 a 0.38,0.38 0 0 0 -0.75,0 z"
       id="path359"
       style="fill:#231f20" />
    <path
       class="cls-21"
       d="m 12.63,55.14 a 10.33,10.33 0 0 0 3,-0.07 C 16.1,55 15.9,54.27 15.43,54.35 a 10,10 0 0 1 -2.84,0 c -0.48,0 -0.48,0.7 0,0.75 z"
       id="path360"
       style="fill:#231f20" />
    <path
       class="cls-21"
       d="m 13.63,74.72 c 0,1.16 0.06,2.31 0.14,3.47 a 8.42,8.42 0 0 0 0.38,2.91 c 0.49,1 1.37,0.87 2.11,0.23 0.36,-0.31 -0.17,-0.84 -0.53,-0.53 -1.1,0.93 -1.1,-1.36 -1.16,-1.66 0,-0.49 -0.08,-1 -0.11,-1.48 -0.06,-1 -0.09,-2 -0.11,-3 a 0.38,0.38 0 0 0 -0.75,0 z"
       id="path361"
       style="fill:#231f20" />
    <path
       class="cls-21"
       d="m 12.63,78.14 a 10.33,10.33 0 0 0 3,-0.07 C 16.1,78 15.9,77.27 15.43,77.35 a 10,10 0 0 1 -2.84,0 c -0.48,0 -0.48,0.7 0,0.75 z"
       id="path362"
       style="fill:#231f20" />
  </g>
  <metadata
     id="metadata346">
    <rdf:RDF>
      <cc:Work
         rdf:about="">
        <dc:title>markov_chain</dc:title>
      </cc:Work>
    </rdf:RDF>
  </metadata>
</svg>
