<?xml version="1.0" encoding="UTF-8" standalone="no"?>
<svg
   viewBox="0 0 400 120"
   version="1.1"
   id="svg346"
   sodipodi:docname="matrix.svg"
   width="400"
   height="120"
   inkscape:version="1.3.2 (1:1.3.2+202311252150+091e20ef0f)"
   xmlns:inkscape="http://www.inkscape.org/namespaces/inkscape"
   xmlns:sodipodi="http://sodipodi.sourceforge.net/DTD/sodipodi-0.dtd"
   xmlns="http://www.w3.org/2000/svg"
   xmlns:svg="http://www.w3.org/2000/svg"
   xmlns:rdf="http://www.w3.org/1999/02/22-rdf-syntax-ns#"
   xmlns:cc="http://creativecommons.org/ns#"
   xmlns:dc="http://purl.org/dc/elements/1.1/">
  <sodipodi:namedview
     id="namedview346"
     pagecolor="#ffffff"
     bordercolor="#000000"
     borderopacity="0.25"
     inkscape:showpageshadow="2"
     inkscape:pageopacity="0.0"
     inkscape:pagecheckerboard="0"
     inkscape:deskcolor="#d1d1d1"
     inkscape:zoom="1.5021786"
     inkscape:cx="282.25672"
     inkscape:cy="36.61349"
     inkscape:window-width="1223"
     inkscape:window-height="779"
     inkscape:window-x="57"
     inkscape:window-y="21"
     inkscape:window-maximized="1"
     inkscape:current-layer="Layer_1" />
  <defs
     id="defs1">
    <style
       id="style1">.cls-1,.cls-18,.cls-19{fill:#fff;}.cls-10,.cls-11,.cls-12,.cls-13,.cls-14,.cls-15,.cls-16,.cls-17,.cls-2,.cls-3,.cls-4,.cls-5,.cls-6,.cls-7,.cls-8,.cls-9{fill:none;stroke-linecap:round;}.cls-2,.cls-3{stroke:#231f20;}.cls-2{stroke-miterlimit:10;}.cls-10,.cls-11,.cls-12,.cls-13,.cls-14,.cls-15,.cls-16,.cls-17,.cls-3,.cls-4,.cls-5,.cls-6,.cls-7,.cls-8,.cls-9{stroke-linejoin:round;}.cls-10,.cls-11,.cls-12,.cls-4,.cls-5,.cls-6,.cls-7,.cls-9{stroke:#fff200;}.cls-4{stroke-width:4px;}.cls-5{stroke-width:5px;}.cls-6{stroke-width:2px;}.cls-15,.cls-7,.cls-8{stroke-width:1.5px;}.cls-13,.cls-8{stroke:#ff883d;}.cls-9{stroke-width:2.12px;}.cls-10{stroke-width:2.65px;}.cls-11{stroke-width:1.06px;}.cls-12,.cls-13,.cls-17{stroke-width:0.8px;}.cls-14,.cls-16{stroke:#c6cdce;}.cls-14{stroke-width:3px;}.cls-15,.cls-17{stroke:gray;}.cls-16{stroke-width:1.59px;}.cls-18{opacity:0.5;}.cls-19{opacity:0.75;}.cls-20{font-size:6px;font-family:TimesNewRomanPSMT, Times New Roman;}.cls-21{fill:#231f20;}</style>
  </defs>
  <title
     id="title1">markov_chain</title>
  <g
     id="Layer_1"
     data-name="Layer 1">
    <path
       class="cls-4"
       d="m 244.57738,18.528223 c 0.74,-0.67 1.69,-1.07 2.42,-1.75 a 2.21,2.21 0 0 0 0.64,-2.67 c -0.58,-0.87 -1.94,-0.92 -2.52,-1.79 l 0.82,0.32 c -1.3,-0.33 -2.48,-1.14 -3.81,-1.16 a 5.52,5.52 0 0 0 -3.88,2.1 6.18,6.18 0 0 0 -2,4.17 6.38,6.38 0 0 0 0.75,2.54 8.54,8.54 0 0 0 3.75,4.19 6.08,6.08 0 0 0 5.86,-0.57 7.48,7.48 0 0 0 3.08,-5.17 8.56,8.56 0 0 0 -0.11,-2.9 3,3 0 0 0 -0.58,-1.33 1.3,1.3 0 0 0 -1.32,-0.42"
       id="path22" />
    <path
       class="cls-5"
       d="m 241.78738,23.448223 a 6,6 0 0 1 2.88,-2.07 4.84,4.84 0 0 0 2.48,-1.17 9.57,9.57 0 0 1 -3.63,1.92 4,4 0 0 1 -3.81,-1 1.57,1.57 0 0 1 -0.45,-1 2.06,2.06 0 0 1 0.61,-1.16 c 0.67,-0.78 1.38,-1.54 2.11,-2.27 a 5.67,5.67 0 0 1 2.55,-1.7 c -0.86,-0.75 -2.19,-0.43 -3.24,0 a 4.21,4.21 0 0 0 -1.71,1.12 1.63,1.63 0 0 0 -0.17,1.92 2.3,2.3 0 0 0 0.6,0.52 l 1.24,0.86 a 4,4 0 0 0 3,1 2,2 0 0 0 1.45,-1.36 1.17,1.17 0 0 0 -0.54,-1.45 1.36,1.36 0 0 0 -1.01,0.13 3.89,3.89 0 0 0 -1.73,2.3 l 0.45,0.18"
       id="path23" />
    <path
       class="cls-6"
       d="m 249.67738,8.5382234 a 3,3 0 0 1 2.18,1.7599996 5,5 0 0 1 1.82,-3.0699996 6.67,6.67 0 0 1 -3.42,1.66 6.11,6.11 0 0 0 2.22,-1.29 l -2.45,1.23 a 2.13,2.13 0 0 1 1.48,-1.09"
       id="path24" />
    <path
       class="cls-6"
       d="m 254.14738,14.208223 0.91,1.3 a 0.93,0.93 0 0 1 0,-1.59 1.34,1.34 0 0 1 1.71,0.56 6.16,6.16 0 0 0 -2.25,0.35 7.07,7.07 0 0 0 3.15,-0.55 q -1.32,0.69 -2.58,1.47"
       id="path25" />
    <path
       class="cls-6"
       d="m 254.41738,20.318223 c -0.42,0.7 -0.84,1.4 -1.27,2.1 a 5.05,5.05 0 0 1 2.85,-1.54 c -0.76,0.48 -1.5,1 -2.24,1.51 a 29.27,29.27 0 0 1 2.91,-1.33 c 0,0.17 0,0.35 -0.05,0.53 a 3,3 0 0 0 2,-0.25 18.19,18.19 0 0 1 -3,0.11 1.63,1.63 0 0 1 -1.47,-0.61 1.5,1.5 0 0 1 1.26,-0.63 4.74,4.74 0 0 1 1.43,0.3"
       id="path26" />
    <path
       class="cls-6"
       d="m 250.97738,26.738223 c 0.11,0 0.16,-0.15 0.07,-0.21 a 0.36,0.36 0 0 0 -0.32,0 l -2.87,1.23 3.66,-0.6 -1.67,0.66 1.56,-2 a 2.75,2.75 0 0 0 0.9,3.33 10.07,10.07 0 0 0 -3.18,-0.9 4,4 0 0 1 3.74,1.35 6.33,6.33 0 0 1 -1.53,-2.59 0.61,0.61 0 0 1 0.33,0.28"
       id="path27" />
    <path
       class="cls-6"
       d="m 243.92738,28.738223 a 6.82,6.82 0 0 0 -2.45,3.88 7.46,7.46 0 0 0 0.29,-2.78 1.92,1.92 0 0 1 -1.41,-1.15 l 2.57,0.91 a 3,3 0 0 0 -2.3,1.19 c 0,-0.26 0,-0.51 0,-0.77 a 1.66,1.66 0 0 0 1.73,0"
       id="path28" />
    <path
       class="cls-6"
       d="m 233.14738,24.148223 a 6.55,6.55 0 0 1 -1.38,3.82 c 0.91,-1.12 2.58,-1.15 4,-1.1 a 3.62,3.62 0 0 1 -2.61,-2.46 3.43,3.43 0 0 1 0.74,1.41 1.16,1.16 0 0 1 -0.66,1.32"
       id="path29" />
    <path
       class="cls-6"
       d="m 231.39738,16.108223 a 6.51,6.51 0 0 1 -3.16,0.86 1.9,1.9 0 0 1 1.65,0.77 6.08,6.08 0 0 0 1.35,1.33 7.66,7.66 0 0 1 -0.14,-3 c 0,0.16 0.05,0.32 0.08,0.48"
       id="path30" />
    <path
       class="cls-6"
       d="m 230.34738,17.658223 a 3.79,3.79 0 0 1 0.34,-0.2"
       id="path31" />
    <path
       class="cls-7"
       d="m 235.84738,8.7382234 a 8.3,8.3 0 0 1 1.82,-0.95 l -2.19,1 a 1.54,1.54 0 0 0 -0.7,0.49 c -0.32,0.4699995 -0.12,1.2499996 -0.6,1.5499996 q -1.59,-1.6599996 -3.16,-3.3399996 a 56,56 0 0 1 6.21,0.09 8.11,8.11 0 0 1 -4.76,0.92 19.67,19.67 0 0 1 3.82,-0.56 9.68,9.68 0 0 1 -3.26,1.7999995 l 0.82,-0.12"
       id="path32" />
    <path
       class="cls-6"
       d="m 241.58738,6.8482234 a 7.85,7.85 0 0 1 1.79,-4.52 c -0.33,1 -0.65,2 -1,2.95 a 1.48,1.48 0 0 0 0,1.36 2.13,2.13 0 0 0 1,-2.24 c -0.16,0.81 -0.33,1.61 -0.49,2.41 a 3.67,3.67 0 0 0 0.91,-2.23 c 0,-0.33 -0.25,-0.78 -0.51,-0.58 a 6.43,6.43 0 0 0 1.86,2.68 6.49,6.49 0 0 0 -2.28,-0.23 l 1.59,0.13"
       id="path33" />
    <circle
       class="cls-8"
       cx="243.01736"
       cy="17.798223"
       r="8.5699997"
       id="circle33" />
    <path
       class="cls-8"
       d="m 240.84738,7.3282234 5.48,-0.12 a 17,17 0 0 1 -3.05,-5.8 c -1.67,1.32 -1.19,4.36 -3,5.5"
       id="path34" />
    <path
       class="cls-8"
       d="m 237.74738,8.5182234 a 7.84,7.84 0 0 0 -3.8,3.4999996 18.62,18.62 0 0 1 -3.55,-5.5599996 14.43,14.43 0 0 1 5.05,0.75 8.26,8.26 0 0 0 2.69,0.68"
       id="path35" />
    <path
       class="cls-8"
       d="m 232.39738,14.148223 a 11.1,11.1 0 0 0 -0.11,5.75 c -2,-0.23 -3.39,-2.11 -5.26,-2.87 a 31.7,31.7 0 0 1 4.76,-2.22"
       id="path36" />
    <path
       class="cls-8"
       d="m 233.14738,22.558223 a 7.55,7.55 0 0 0 3.73,4.24 c -2,0.68 -4.09,1.32 -6.16,1.9 1.06,-1.65 1,-3.77 1.89,-5.53"
       id="path37" />
    <path
       class="cls-8"
       d="m 239.47738,27.788223 a 6.65,6.65 0 0 0 5.24,0.42 q -1.51,2.61 -2.8,5.32 a 25.54,25.54 0 0 1 -2.37,-4.79"
       id="path38" />
    <path
       class="cls-8"
       d="m 247.04738,27.518223 a 9,9 0 0 0 4.25,-2.59 c 0.23,-0.25 0.44,-0.69 0.16,-0.89 a 21.77,21.77 0 0 0 2.69,6.46 c -2.65,0.33 -4.85,-2.16 -7.5,-2.51"
       id="path39" />
    <path
       class="cls-8"
       d="m 248.64738,8.6082234 a 17.34,17.34 0 0 1 3.33,2.6999996 l 2.85,-5.2899996 a 52.3,52.3 0 0 0 -6.61,2.09"
       id="path40" />
    <path
       class="cls-8"
       d="m 252.82738,13.308223 a 8.24,8.24 0 0 1 1.46,3.48 l 5.46,-2.51 a 13.17,13.17 0 0 0 -5.87,-1.16"
       id="path41" />
    <path
       class="cls-8"
       d="m 253.19738,22.228223 c 0,0.16 -0.25,0.22 -0.34,0.08 a 0.52,0.52 0 0 1 0,-0.47 6.71,6.71 0 0 1 1.29,-2.57 l 6,1.93 a 11.54,11.54 0 0 1 -6.82,1.54"
       id="path42" />
    <path
       class="cls-14"
       d="m 325.51738,26.818223 a 7.16,7.16 0 0 0 2.37,-3.47 3.94,3.94 0 0 0 -1,-3.92 q -0.89,3.75 -1.52,7.55 c -0.08,0.49 -0.1,1.12 0.34,1.35 0.44,0.23 1.13,-0.4 1.4,-1 -1,1.52 -3.22,1.63 -5.07,1.55 a 120.65,120.65 0 0 0 -14.89,-0.14 c -2.49,0.22 -5,0.63 -7.48,0.07 l 3.77,-1.55 c -0.37,-1.1 -1.75,-1.41 -2.62,-2.18 a 3.64,3.64 0 0 1 -0.59,-4.28 c 0.71,-1.38 2.31,-1 3.74,-1.66 a 2.24,2.24 0 0 1 1.35,-0.17 c 0.55,0.11 0.73,-0.83 1.23,-0.59 0.5,0.24 1.26,0.16 1.4,-0.38 a 7.13,7.13 0 0 1 -1.8,-2.55 1.62,1.62 0 0 1 -0.15,-1.23 1.5,1.5 0 0 1 0.58,-0.62 5.1,5.1 0 0 1 5,-0.46 c 1.9,0.87 3.32,2.91 5.4,3 -0.58,-0.88 0.27,-2.17 1.32,-2.29 a 2.9,2.9 0 0 1 2.6,1.52 c 1.06,1.69 1.12,4.09 2.75,5.25 l 0.12,-0.6 a 27.55,27.55 0 0 0 1.79,2.1 9.46,9.46 0 0 1 -6.05,-5.69 c -0.17,-0.45 -0.45,-1 -0.91,-0.93 -0.65,0.11 -0.44,1.1 -0.69,1.71 a 1.4,1.4 0 0 1 -1.71,0.61 5.34,5.34 0 0 1 -1.66,-1.1 c -2,-1.64 -4.93,-2.58 -7.11,-1.22 1.49,1.74 4,2 6.14,2.85 2.8,1 5.4,3.11 8.38,2.88 -2.15,-1.8 -5.5,-0.56 -8.15,-1.5 a 14.06,14.06 0 0 1 3.22,-0.66 c -3.66,-0.17 -7.43,-0.32 -10.89,0.88 a 7.22,7.22 0 0 1 -3.52,0.75 3,3 0 0 0 -0.73,3.19 8,8 0 0 0 1.82,2.85 c -0.33,-0.8 -0.65,-1.6 -1,-2.4 a 1,1 0 0 1 -0.09,-0.71 0.79,0.79 0 0 1 0.5,-0.43 c 3.75,-1.11 10.07,-3.05 15.17,-2.07 l -11.13,1.37 a 5.08,5.08 0 0 0 -2.21,0.62 1.77,1.77 0 0 0 -0.84,2 1.86,1.86 0 0 0 2.11,0.93 7.56,7.56 0 0 0 2.24,-1.11 c 4.57,-2.73 10.28,-2.33 15.57,-1.81 0.37,0 0.85,0.21 0.79,0.57 -0.06,0.36 -0.38,0.38 -0.66,0.42 -5.55,0.8 -11.19,-0.6 -16.8,-0.34 a 3.41,3.41 0 0 0 -1.91,0.49 1.31,1.31 0 0 0 -0.43,1.75 c 0.49,0.64 1.48,0.43 2.25,0.23 a 27.48,27.48 0 0 1 7.69,-0.51 l 8.62,0.28 c 0.64,0 1.53,0.35 1.35,1 a 0.94,0.94 0 0 1 -0.64,0.52 6.93,6.93 0 0 1 -3.52,-0.17 22,22 0 0 0 -6.17,-0.3 c -0.78,0.08 -1.76,0.1 -2.14,-0.58 -0.38,-0.68 0.33,-1.69 1,-2.26 l 4.7,-3.84 c 0.51,-0.42 1.08,-1 0.88,-1.63"
       id="path64" />
    <path
       class="cls-15"
       d="m 301.01738,30.168223 23.75,-0.62 a 3.45,3.45 0 0 0 1.5,-0.26 2.47,2.47 0 0 0 0.7,-0.55 10,10 0 0 0 2,-4.19 9.42,9.42 0 0 0 0.55,-3.39 3.18,3.18 0 0 0 -1.78,-2.75 2,2 0 0 0 -2.68,1.33 c -0.42,-0.83 -0.85,-1.66 -1.28,-2.49 -0.88,-1.69 -1.84,-3.46 -3.49,-4.4 -1.65,-0.94 -4.2,-0.52 -4.84,1.27 a 15.1,15.1 0 0 0 -4.62,-2.52 5.06,5.06 0 0 0 -4.93,1.14 3.87,3.87 0 0 0 0,5.2 c -1.9,-0.06 -4,-0.06 -5.45,1.16 a 5.26,5.26 0 0 0 -1.42,2 5.38,5.38 0 0 0 -0.25,3.66 3.37,3.37 0 0 0 2.67,2.32 6.5,6.5 0 0 0 -2.11,0.87 1.47,1.47 0 0 0 -0.6,0.61 c -0.27,0.6 0.3,1.3 0.94,1.44 a 3.31,3.31 0 0 0 1.91,-0.36"
       id="path65" />
    <path
       class="cls-15"
       d="m 314.70738,16.478223 a 6.28,6.28 0 0 0 -3.48,-1.52 c -1,-0.11 -2.3,0.2 -2.67,1.18"
       id="path66" />
    <path
       class="cls-15"
       d="m 305.34738,21.318223 a 2.1,2.1 0 0 0 -2.4,0.9 2.35,2.35 0 0 0 0.2,2.6"
       id="path67" />
    <path
       class="cls-15"
       d="m 325.28738,21.658223 a 5.15,5.15 0 0 1 -1.06,5.58"
       id="path68" />
    <path
       class="cls-4"
       d="m 379.7763,55.45807 c 0.74,-0.67 1.69,-1.07 2.42,-1.75 a 2.21,2.21 0 0 0 0.64,-2.67 c -0.58,-0.87 -1.94,-0.92 -2.52,-1.79 l 0.82,0.32 c -1.3,-0.33 -2.48,-1.14 -3.81,-1.16 a 5.52,5.52 0 0 0 -3.88,2.1 6.18,6.18 0 0 0 -2,4.17 6.38,6.38 0 0 0 0.75,2.54 8.54,8.54 0 0 0 3.75,4.19 6.08,6.08 0 0 0 5.86,-0.57 7.48,7.48 0 0 0 3.08,-5.17 8.56,8.56 0 0 0 -0.11,-2.9 3,3 0 0 0 -0.58,-1.33 1.3,1.3 0 0 0 -1.32,-0.42"
       id="path22-4"
       style="fill:none;stroke:#fff200;stroke-width:4px;stroke-linecap:round;stroke-linejoin:round" />
    <path
       class="cls-5"
       d="m 376.9863,60.37807 a 6,6 0 0 1 2.88,-2.07 4.84,4.84 0 0 0 2.48,-1.17 9.57,9.57 0 0 1 -3.63,1.92 4,4 0 0 1 -3.81,-1 1.57,1.57 0 0 1 -0.45,-1 2.06,2.06 0 0 1 0.61,-1.16 c 0.67,-0.78 1.38,-1.54 2.11,-2.27 a 5.67,5.67 0 0 1 2.55,-1.7 c -0.86,-0.75 -2.19,-0.43 -3.24,0 a 4.21,4.21 0 0 0 -1.71,1.12 1.63,1.63 0 0 0 -0.17,1.92 2.3,2.3 0 0 0 0.6,0.52 l 1.24,0.86 a 4,4 0 0 0 3,1 2,2 0 0 0 1.45,-1.36 1.17,1.17 0 0 0 -0.54,-1.45 1.36,1.36 0 0 0 -1.01,0.13 3.89,3.89 0 0 0 -1.73,2.3 l 0.45,0.18"
       id="path23-7"
       style="fill:none;stroke:#fff200;stroke-width:5px;stroke-linecap:round;stroke-linejoin:round" />
    <path
       class="cls-6"
       d="m 384.8763,45.46807 a 3,3 0 0 1 2.18,1.76 5,5 0 0 1 1.82,-3.07 6.67,6.67 0 0 1 -3.42,1.66 6.11,6.11 0 0 0 2.22,-1.29 l -2.45,1.23 a 2.13,2.13 0 0 1 1.48,-1.09"
       id="path24-8"
       style="fill:none;stroke:#fff200;stroke-width:2px;stroke-linecap:round;stroke-linejoin:round" />
    <path
       class="cls-6"
       d="m 389.3463,51.13807 0.91,1.3 a 0.93,0.93 0 0 1 0,-1.59 1.34,1.34 0 0 1 1.71,0.56 6.16,6.16 0 0 0 -2.25,0.35 7.07,7.07 0 0 0 3.15,-0.55 q -1.32,0.69 -2.58,1.47"
       id="path25-4"
       style="fill:none;stroke:#fff200;stroke-width:2px;stroke-linecap:round;stroke-linejoin:round" />
    <path
       class="cls-6"
       d="m 389.6163,57.24807 c -0.42,0.7 -0.84,1.4 -1.27,2.1 a 5.05,5.05 0 0 1 2.85,-1.54 c -0.76,0.48 -1.5,1 -2.24,1.51 a 29.27,29.27 0 0 1 2.91,-1.33 c 0,0.17 0,0.35 -0.05,0.53 a 3,3 0 0 0 2,-0.25 18.19,18.19 0 0 1 -3,0.11 1.63,1.63 0 0 1 -1.47,-0.61 1.5,1.5 0 0 1 1.26,-0.63 4.74,4.74 0 0 1 1.43,0.3"
       id="path26-5"
       style="fill:none;stroke:#fff200;stroke-width:2px;stroke-linecap:round;stroke-linejoin:round" />
    <path
       class="cls-6"
       d="m 386.1763,63.66807 c 0.11,0 0.16,-0.15 0.07,-0.21 a 0.36,0.36 0 0 0 -0.32,0 l -2.87,1.23 3.66,-0.6 -1.67,0.66 1.56,-2 a 2.75,2.75 0 0 0 0.9,3.33 10.07,10.07 0 0 0 -3.18,-0.9 4,4 0 0 1 3.74,1.35 6.33,6.33 0 0 1 -1.53,-2.59 0.61,0.61 0 0 1 0.33,0.28"
       id="path27-0"
       style="fill:none;stroke:#fff200;stroke-width:2px;stroke-linecap:round;stroke-linejoin:round" />
    <path
       class="cls-6"
       d="m 379.1263,65.66807 a 6.82,6.82 0 0 0 -2.45,3.88 7.46,7.46 0 0 0 0.29,-2.78 1.92,1.92 0 0 1 -1.41,-1.15 l 2.57,0.91 a 3,3 0 0 0 -2.3,1.19 c 0,-0.26 0,-0.51 0,-0.77 a 1.66,1.66 0 0 0 1.73,0"
       id="path28-3"
       style="fill:none;stroke:#fff200;stroke-width:2px;stroke-linecap:round;stroke-linejoin:round" />
    <path
       class="cls-6"
       d="m 368.3463,61.07807 a 6.55,6.55 0 0 1 -1.38,3.82 c 0.91,-1.12 2.58,-1.15 4,-1.1 a 3.62,3.62 0 0 1 -2.61,-2.46 3.43,3.43 0 0 1 0.74,1.41 1.16,1.16 0 0 1 -0.66,1.32"
       id="path29-6"
       style="fill:none;stroke:#fff200;stroke-width:2px;stroke-linecap:round;stroke-linejoin:round" />
    <path
       class="cls-6"
       d="m 366.5963,53.03807 a 6.51,6.51 0 0 1 -3.16,0.86 1.9,1.9 0 0 1 1.65,0.77 6.08,6.08 0 0 0 1.35,1.33 7.66,7.66 0 0 1 -0.14,-3 c 0,0.16 0.05,0.32 0.08,0.48"
       id="path30-1"
       style="fill:none;stroke:#fff200;stroke-width:2px;stroke-linecap:round;stroke-linejoin:round" />
    <path
       class="cls-6"
       d="m 365.5463,54.58807 a 3.79,3.79 0 0 1 0.34,-0.2"
       id="path31-0"
       style="fill:none;stroke:#fff200;stroke-width:2px;stroke-linecap:round;stroke-linejoin:round" />
    <path
       class="cls-7"
       d="m 371.0463,45.66807 a 8.3,8.3 0 0 1 1.82,-0.95 l -2.19,1 a 1.54,1.54 0 0 0 -0.7,0.49 c -0.32,0.47 -0.12,1.25 -0.6,1.55 q -1.59,-1.66 -3.16,-3.34 a 56,56 0 0 1 6.21,0.09 8.11,8.11 0 0 1 -4.76,0.92 19.67,19.67 0 0 1 3.82,-0.56 9.68,9.68 0 0 1 -3.26,1.8 l 0.82,-0.12"
       id="path32-6"
       style="fill:none;stroke:#fff200;stroke-width:1.5px;stroke-linecap:round;stroke-linejoin:round" />
    <path
       class="cls-6"
       d="m 376.7863,43.77807 a 7.85,7.85 0 0 1 1.79,-4.52 c -0.33,1 -0.65,2 -1,2.95 a 1.48,1.48 0 0 0 0,1.36 2.13,2.13 0 0 0 1,-2.24 c -0.16,0.81 -0.33,1.61 -0.49,2.41 a 3.67,3.67 0 0 0 0.91,-2.23 c 0,-0.33 -0.25,-0.78 -0.51,-0.58 a 6.43,6.43 0 0 0 1.86,2.68 6.49,6.49 0 0 0 -2.28,-0.23 l 1.59,0.13"
       id="path33-3"
       style="fill:none;stroke:#fff200;stroke-width:2px;stroke-linecap:round;stroke-linejoin:round" />
    <circle
       class="cls-8"
       cx="378.21628"
       cy="54.728069"
       r="8.5699997"
       id="circle33-2"
       style="fill:none;stroke:#ff883d;stroke-width:1.5px;stroke-linecap:round;stroke-linejoin:round" />
    <path
       class="cls-8"
       d="m 376.0463,44.25807 5.48,-0.12 a 17,17 0 0 1 -3.05,-5.8 c -1.67,1.32 -1.19,4.36 -3,5.5"
       id="path34-0"
       style="fill:none;stroke:#ff883d;stroke-width:1.5px;stroke-linecap:round;stroke-linejoin:round" />
    <path
       class="cls-8"
       d="m 372.9463,45.44807 a 7.84,7.84 0 0 0 -3.8,3.5 18.62,18.62 0 0 1 -3.55,-5.56 14.43,14.43 0 0 1 5.05,0.75 8.26,8.26 0 0 0 2.69,0.68"
       id="path35-6"
       style="fill:none;stroke:#ff883d;stroke-width:1.5px;stroke-linecap:round;stroke-linejoin:round" />
    <path
       class="cls-8"
       d="m 367.5963,51.07807 a 11.1,11.1 0 0 0 -0.11,5.75 c -2,-0.23 -3.39,-2.11 -5.26,-2.87 a 31.7,31.7 0 0 1 4.76,-2.22"
       id="path36-1"
       style="fill:none;stroke:#ff883d;stroke-width:1.5px;stroke-linecap:round;stroke-linejoin:round" />
    <path
       class="cls-8"
       d="m 368.3463,59.48807 a 7.55,7.55 0 0 0 3.73,4.24 c -2,0.68 -4.09,1.32 -6.16,1.9 1.06,-1.65 1,-3.77 1.89,-5.53"
       id="path37-5"
       style="fill:none;stroke:#ff883d;stroke-width:1.5px;stroke-linecap:round;stroke-linejoin:round" />
    <path
       class="cls-8"
       d="m 374.6763,64.71807 a 6.65,6.65 0 0 0 5.24,0.42 q -1.51,2.61 -2.8,5.32 a 25.54,25.54 0 0 1 -2.37,-4.79"
       id="path38-5"
       style="fill:none;stroke:#ff883d;stroke-width:1.5px;stroke-linecap:round;stroke-linejoin:round" />
    <path
       class="cls-8"
       d="m 382.2463,64.44807 a 9,9 0 0 0 4.25,-2.59 c 0.23,-0.25 0.44,-0.69 0.16,-0.89 a 21.77,21.77 0 0 0 2.69,6.46 c -2.65,0.33 -4.85,-2.16 -7.5,-2.51"
       id="path39-4"
       style="fill:none;stroke:#ff883d;stroke-width:1.5px;stroke-linecap:round;stroke-linejoin:round" />
    <path
       class="cls-8"
       d="m 383.8463,45.53807 a 17.34,17.34 0 0 1 3.33,2.7 l 2.85,-5.29 a 52.3,52.3 0 0 0 -6.61,2.09"
       id="path40-7"
       style="fill:none;stroke:#ff883d;stroke-width:1.5px;stroke-linecap:round;stroke-linejoin:round" />
    <path
       class="cls-8"
       d="m 388.0263,50.23807 a 8.24,8.24 0 0 1 1.46,3.48 l 5.46,-2.51 a 13.17,13.17 0 0 0 -5.87,-1.16"
       id="path41-6"
       style="fill:none;stroke:#ff883d;stroke-width:1.5px;stroke-linecap:round;stroke-linejoin:round" />
    <path
       class="cls-8"
       d="m 388.3963,59.15807 c 0,0.16 -0.25,0.22 -0.34,0.08 a 0.52,0.52 0 0 1 0,-0.47 6.71,6.71 0 0 1 1.29,-2.57 l 6,1.93 a 11.54,11.54 0 0 1 -6.82,1.54"
       id="path42-5"
       style="fill:none;stroke:#ff883d;stroke-width:1.5px;stroke-linecap:round;stroke-linejoin:round" />
    <path
       class="cls-14"
       d="m 391.61643,99.90074 a 7.16,7.16 0 0 0 2.37,-3.47 3.94,3.94 0 0 0 -1,-3.92 q -0.89,3.75 -1.52,7.55 c -0.08,0.49 -0.1,1.12 0.34,1.35 0.44,0.23 1.13,-0.4 1.4,-1 -1,1.52 -3.22,1.63 -5.07,1.55 a 120.65,120.65 0 0 0 -14.89,-0.14 c -2.49,0.22 -5,0.63 -7.48,0.07 l 3.77,-1.55 c -0.37,-1.1 -1.75,-1.41 -2.62,-2.18 a 3.64,3.64 0 0 1 -0.59,-4.28 c 0.71,-1.38 2.31,-1 3.74,-1.66 a 2.24,2.24 0 0 1 1.35,-0.17 c 0.55,0.11 0.73,-0.83 1.23,-0.59 0.5,0.24 1.26,0.16 1.4,-0.38 a 7.13,7.13 0 0 1 -1.8,-2.55 1.62,1.62 0 0 1 -0.15,-1.23 1.5,1.5 0 0 1 0.58,-0.62 5.1,5.1 0 0 1 5,-0.46 c 1.9,0.87 3.32,2.91 5.4,3 -0.58,-0.88 0.27,-2.17 1.32,-2.29 a 2.9,2.9 0 0 1 2.6,1.52 c 1.06,1.69 1.12,4.09 2.75,5.25 l 0.12,-0.6 a 27.55,27.55 0 0 0 1.79,2.1 9.46,9.46 0 0 1 -6.05,-5.69 c -0.17,-0.45 -0.45,-1 -0.91,-0.93 -0.65,0.11 -0.44,1.1 -0.69,1.71 a 1.4,1.4 0 0 1 -1.71,0.61 5.34,5.34 0 0 1 -1.66,-1.1 c -2,-1.64 -4.93,-2.58 -7.11,-1.22 1.49,1.74 4,2 6.14,2.85 2.8,1 5.4,3.11 8.38,2.88 -2.15,-1.8 -5.5,-0.56 -8.15,-1.5 a 14.06,14.06 0 0 1 3.22,-0.66 c -3.66,-0.17 -7.43,-0.32 -10.89,0.88 a 7.22,7.22 0 0 1 -3.52,0.75 3,3 0 0 0 -0.73,3.19 8,8 0 0 0 1.82,2.85 c -0.33,-0.8 -0.65,-1.6 -1,-2.4 a 1,1 0 0 1 -0.09,-0.71 0.79,0.79 0 0 1 0.5,-0.43 c 3.75,-1.11 10.07,-3.05 15.17,-2.07 l -11.13,1.37 a 5.08,5.08 0 0 0 -2.21,0.62 1.77,1.77 0 0 0 -0.84,2 1.86,1.86 0 0 0 2.11,0.93 7.56,7.56 0 0 0 2.24,-1.11 c 4.57,-2.73 10.28,-2.33 15.57,-1.81 0.37,0 0.85,0.21 0.79,0.57 -0.06,0.36 -0.38,0.38 -0.66,0.42 -5.55,0.8 -11.19,-0.6 -16.8,-0.34 a 3.41,3.41 0 0 0 -1.91,0.49 1.31,1.31 0 0 0 -0.43,1.75 c 0.49,0.64 1.48,0.43 2.25,0.23 a 27.48,27.48 0 0 1 7.69,-0.51 l 8.62,0.28 c 0.64,0 1.53,0.35 1.35,1 a 0.94,0.94 0 0 1 -0.64,0.52 6.93,6.93 0 0 1 -3.52,-0.17 22,22 0 0 0 -6.17,-0.3 c -0.78,0.08 -1.76,0.1 -2.14,-0.58 -0.38,-0.68 0.33,-1.69 1,-2.26 l 4.7,-3.84 c 0.51,-0.42 1.08,-1 0.88,-1.63"
       id="path64-6"
       style="fill:none;stroke:#c6cdce;stroke-width:3px;stroke-linecap:round;stroke-linejoin:round" />
    <path
       class="cls-15"
       d="m 367.11643,103.25074 23.75,-0.62 a 3.45,3.45 0 0 0 1.5,-0.26 2.47,2.47 0 0 0 0.7,-0.55 10,10 0 0 0 2,-4.19 9.42,9.42 0 0 0 0.55,-3.39 3.18,3.18 0 0 0 -1.78,-2.75 2,2 0 0 0 -2.68,1.33 c -0.42,-0.83 -0.85,-1.66 -1.28,-2.49 -0.88,-1.69 -1.84,-3.46 -3.49,-4.4 -1.65,-0.94 -4.2,-0.52 -4.84,1.27 a 15.1,15.1 0 0 0 -4.62,-2.52 5.06,5.06 0 0 0 -4.93,1.14 3.87,3.87 0 0 0 0,5.2 c -1.9,-0.06 -4,-0.06 -5.45,1.16 a 5.26,5.26 0 0 0 -1.42,2 5.38,5.38 0 0 0 -0.25,3.66 3.37,3.37 0 0 0 2.67,2.32 6.5,6.5 0 0 0 -2.11,0.87 1.47,1.47 0 0 0 -0.6,0.61 c -0.27,0.6 0.3,1.3 0.94,1.44 a 3.31,3.31 0 0 0 1.91,-0.36"
       id="path65-9"
       style="fill:none;stroke:#808080;stroke-width:1.5px;stroke-linecap:round;stroke-linejoin:round" />
    <path
       class="cls-15"
       d="m 380.80643,89.56074 a 6.28,6.28 0 0 0 -3.48,-1.52 c -1,-0.11 -2.3,0.2 -2.67,1.18"
       id="path66-3"
       style="fill:none;stroke:#808080;stroke-width:1.5px;stroke-linecap:round;stroke-linejoin:round" />
    <path
       class="cls-15"
       d="m 371.44643,94.40074 a 2.1,2.1 0 0 0 -2.4,0.9 2.35,2.35 0 0 0 0.2,2.6"
       id="path67-7"
       style="fill:none;stroke:#808080;stroke-width:1.5px;stroke-linecap:round;stroke-linejoin:round" />
    <path
       class="cls-15"
       d="m 391.38643,94.74074 a 5.15,5.15 0 0 1 -1.06,5.58"
       id="path68-4"
       style="fill:none;stroke:#808080;stroke-width:1.5px;stroke-linecap:round;stroke-linejoin:round" />
  </g>
  <metadata
     id="metadata346">
    <rdf:RDF>
      <cc:Work
         rdf:about="">
        <dc:title>markov_chain</dc:title>
      </cc:Work>
    </rdf:RDF>
  </metadata>
</svg>
