<?xml version="1.0" encoding="UTF-8" standalone="no"?>
<svg
   viewBox="0 0 300 103"
   version="1.1"
   id="svg346"
   sodipodi:docname="state_sign.svg"
   width="300"
   height="103"
   inkscape:version="1.3.2 (1:1.3.2+202311252150+091e20ef0f)"
   xmlns:inkscape="http://www.inkscape.org/namespaces/inkscape"
   xmlns:sodipodi="http://sodipodi.sourceforge.net/DTD/sodipodi-0.dtd"
   xmlns="http://www.w3.org/2000/svg"
   xmlns:svg="http://www.w3.org/2000/svg"
   xmlns:rdf="http://www.w3.org/1999/02/22-rdf-syntax-ns#"
   xmlns:cc="http://creativecommons.org/ns#"
   xmlns:dc="http://purl.org/dc/elements/1.1/">
  <sodipodi:namedview
     id="namedview346"
     pagecolor="#ffffff"
     bordercolor="#000000"
     borderopacity="0.25"
     inkscape:showpageshadow="2"
     inkscape:pageopacity="0.0"
     inkscape:pagecheckerboard="0"
     inkscape:deskcolor="#d1d1d1"
     inkscape:zoom="9.9532592"
     inkscape:cx="48.12494"
     inkscape:cy="102.37853"
     inkscape:window-width="1223"
     inkscape:window-height="779"
     inkscape:window-x="57"
     inkscape:window-y="21"
     inkscape:window-maximized="1"
     inkscape:current-layer="Layer_1" />
  <defs
     id="defs1">
    <style
       id="style1">.cls-1,.cls-18,.cls-19{fill:#fff;}.cls-10,.cls-11,.cls-12,.cls-13,.cls-14,.cls-15,.cls-16,.cls-17,.cls-2,.cls-3,.cls-4,.cls-5,.cls-6,.cls-7,.cls-8,.cls-9{fill:none;stroke-linecap:round;}.cls-2,.cls-3{stroke:#231f20;}.cls-2{stroke-miterlimit:10;}.cls-10,.cls-11,.cls-12,.cls-13,.cls-14,.cls-15,.cls-16,.cls-17,.cls-3,.cls-4,.cls-5,.cls-6,.cls-7,.cls-8,.cls-9{stroke-linejoin:round;}.cls-10,.cls-11,.cls-12,.cls-4,.cls-5,.cls-6,.cls-7,.cls-9{stroke:#fff200;}.cls-4{stroke-width:4px;}.cls-5{stroke-width:5px;}.cls-6{stroke-width:2px;}.cls-15,.cls-7,.cls-8{stroke-width:1.5px;}.cls-13,.cls-8{stroke:#ff883d;}.cls-9{stroke-width:2.12px;}.cls-10{stroke-width:2.65px;}.cls-11{stroke-width:1.06px;}.cls-12,.cls-13,.cls-17{stroke-width:0.8px;}.cls-14,.cls-16{stroke:#c6cdce;}.cls-14{stroke-width:3px;}.cls-15,.cls-17{stroke:gray;}.cls-16{stroke-width:1.59px;}.cls-18{opacity:0.5;}.cls-19{opacity:0.75;}.cls-20{font-size:6px;font-family:TimesNewRomanPSMT, Times New Roman;}.cls-21{fill:#231f20;}</style>
  </defs>
  <title
     id="title1">markov_chain</title>
  <g
     id="Layer_1"
     data-name="Layer 1">
    <path
       class="cls-21"
       d="m 58.87,90.890476 a 64.48,64.48 0 0 0 3.12,10.190004 c 0.19,0.44 0.84,0.06 0.65,-0.38 a 61.44,61.44 0 0 1 -3,-10.000004 0.38,0.38 0 0 0 -0.73,0.2 z"
       id="path347-9"
       style="fill:#231f20" />
    <path
       class="cls-21"
       d="m 62.43,90.740476 c -0.79,3.52 -2.58,6.91 -4,10.220004 -0.19,0.44 0.54,0.64 0.72,0.2 1.4,-3.320004 3.2,-6.700004 4,-10.220004 0.11,-0.47 -0.61,-0.67 -0.72,-0.2 z"
       id="path348-2"
       style="fill:#231f20" />
    <path
       class="cls-21"
       d="m 63.78,90.040476 c -0.8,1.87 -0.6,4.13 -0.62,6.13 a 8.65,8.65 0 0 0 1.42,5.660004 c 0.29,0.38 0.94,0 0.65,-0.38 a 8,8 0 0 1 -1.32,-5.280004 c 0,-1.81 -0.2,-4.07 0.51,-5.75 0.19,-0.44 -0.46,-0.82 -0.64,-0.38 z"
       id="path349-2"
       style="fill:#231f20" />
    <path
       class="cls-21"
       d="m 66.64,90.990476 c -0.3,3 -0.76,6.47 -0.31,9.500004 0.19,1.28 0.87,1.53 2.12,1.25 0.47,-0.1 0.28,-0.82 -0.2,-0.72 -1.82,0.4 -1.22,-4.000004 -1.19,-4.890004 0,-1.72 0.16,-3.43 0.33,-5.14 0,-0.48 -0.71,-0.48 -0.75,0 z"
       id="path350-4"
       style="fill:#231f20" />
    <path
       class="cls-21"
       d="m 64.97,96.310476 a 17.24,17.24 0 0 1 2,-0.29 c 0.29,0 0.57,0 0.86,0 h 0.43 c 0.32,0.07 0.37,0 0.15,-0.11 l 0.1,-0.36 -0.06,0.07 c -0.31,0.36 0.22,0.9 0.53,0.53 0.31,-0.37 -0.08,-0.85 -0.58,-0.87 a 14.92,14.92 0 0 0 -3.65,0.35 c -0.47,0.1 -0.27,0.82 0.2,0.72 z"
       id="path351-7"
       style="fill:#231f20" />
    <path
       class="cls-21"
       d="m 69.2,98.210476 a 35.37,35.37 0 0 1 0.09,4.120004 0.38,0.38 0 0 0 0.75,0 35.37,35.37 0 0 0 -0.09,-4.120004 c 0,-0.48 -0.79,-0.48 -0.75,0 z"
       id="path352-7"
       style="fill:#231f20" />
    <path
       class="cls-21"
       d="m 71.38,100.26048 0.15,-0.320004 -0.68,-0.29 a 3,3 0 0 1 -0.88,1.180004 0.37,0.37 0 0 0 0.07,0.59 6.21,6.21 0 0 1 1.15,0.8 c 0.36,0.32 0.89,-0.2 0.53,-0.53 a 6.9,6.9 0 0 0 -1.3,-0.91 l 0.08,0.58 a 3.76,3.76 0 0 0 1.07,-1.510004 c 0.16,-0.4 -0.5,-0.68 -0.68,-0.29 l -0.16,0.32 c -0.21,0.430004 0.44,0.810004 0.65,0.380004 z"
       id="path353-5"
       style="fill:#231f20" />
    <path
       class="cls-21"
       d="m 71.38,90.420476 a 13.75,13.75 0 0 1 0.17,10.520004 c -0.17,0.45 0.55,0.64 0.72,0.2 A 14.48,14.48 0 0 0 72.03,90.040476 c -0.19,-0.44 -0.84,-0.06 -0.65,0.38 z"
       id="path354-4"
       style="fill:#231f20" />
    <path
       class="cls-21"
       d="m 32.168773,93.422335 c -0.528801,-2.151259 -4.098208,-1.634476 -4.807282,0.204309 a 1.934931,1.934931 0 0 0 0.877329,2.403641 c 1.129711,0.576874 2.211349,0.420637 3.220879,1.442185 a 1.8988764,1.8988764 0 0 1 -0.648983,3.20886 c -0.925402,0.32449 -2.475751,0.21633 -2.511805,-1.129711 a 0.45669178,0.45669178 0 0 0 -0.901366,0 c 0.08413,2.932441 4.434718,2.728131 5.49232,0.444671 a 2.7281325,2.7281325 0 0 0 -0.793202,-3.160785 5.1918645,5.1918645 0 0 0 -2.019058,-1.285948 c -1.009529,-0.348528 -1.045584,0.168255 -1.20182,-1.27393 -0.408619,-0.949438 -0.09615,-1.382093 0.925401,-1.322002 a 1.2018205,1.2018205 0 0 1 1.40613,0.721092 0.4490373,0.4490373 0 0 0 0.865311,-0.240364 z"
       id="path336"
       style="fill:#231f20;stroke-width:1.20182" />
    <path
       class="cls-21"
       d="m 34.692596,92.460878 c 0,1.514294 -0.09615,3.028588 -0.07211,4.542882 a 15.455411,15.455411 0 0 0 0.180274,4.01408 c 0.444673,1.322 2.091167,0.48073 2.860332,-0.1322 0.456692,-0.36055 -0.192291,-0.997513 -0.636965,-0.63697 -1.634475,1.30999 -1.418148,-0.660996 -1.442184,-1.297961 -0.02404,-0.636965 0,-1.514294 -0.06009,-2.271441 q 0,-2.115204 0.07211,-4.21839 c 0,-0.588892 -0.877329,-0.588892 -0.901365,0 z"
       id="path337"
       style="fill:#231f20;stroke-width:1.20182" />
    <path
       class="cls-21"
       d="m 33.634994,96.426886 3.292988,0.08413 a 0.45669178,0.45669178 0 0 0 0,-0.901365 l -3.292988,-0.08413 a 0.45669178,0.45669178 0 0 0 0,0.901365 z"
       id="path338"
       style="fill:#231f20;stroke-width:1.20182" />
    <path
       class="cls-21"
       d="m 41.879482,96.234595 c -0.420637,-1.045584 -1.910894,-2.223368 -3.004551,-1.261912 -0.588892,0.504765 -0.576874,1.526312 -0.648983,2.223368 a 8.1002701,8.1002701 0 0 0 0.108164,3.401149 1.8027307,1.8027307 0 0 0 3.064642,0.74513 c 1.790713,-1.706586 0.889347,-3.990042 1.081638,-6.141301 0,-0.576874 -0.853292,-0.564856 -0.901365,0 a 23.014862,23.014862 0 0 0 -0.07211,3.966008 2.8603328,2.8603328 0 0 0 0.745129,1.995023 c 0.420637,0.3966 1.057602,-0.22835 0.636964,-0.63697 -0.661,-0.624945 -0.5288,-1.922909 -0.5288,-2.752165 a 22.834589,22.834589 0 0 1 0.120182,-2.571896 h -0.877328 a 17.630707,17.630707 0 0 0 0.108163,2.644005 c 0,0.769165 -0.528801,4.182336 -2.175295,2.992526 -0.73311,-0.51678 -0.492746,-2.211343 -0.444673,-2.980508 0,-0.420637 0.07211,-0.829256 0.1322,-1.20182 a 6.0091024,6.0091024 0 0 1 0.120182,-0.67302 c 0.817238,-0.46871 1.382094,-0.288437 1.682549,0.54082 0.216327,0.528801 1.093656,0.300455 0.877329,-0.240365 z"
       id="path339"
       style="fill:#231f20;stroke-width:1.20182" />
    <path
       class="cls-21"
       d="m 44.872015,90.946584 a 44.335158,44.335158 0 0 0 0.216328,9.109796 c 0.360546,1.7787 1.74264,1.30999 3.136751,0.7932 0.54082,-0.20431 0.300456,-1.081636 -0.240364,-0.877326 -2.403641,0.913386 -2.13924,-2.199329 -2.187313,-3.773714 0,-1.754658 0,-3.509316 0,-5.251956 a 0.45669178,0.45669178 0 0 0 -0.901365,0 z"
       id="path340"
       style="fill:#231f20;stroke-width:1.20182" />
    <path
       class="cls-21"
       d="m 43.622122,95.453411 a 24.216683,24.216683 0 0 1 4.062153,0.192292 c 0.564856,0.07211 0.564856,-0.829257 0,-0.901366 a 24.216683,24.216683 0 0 0 -4.062153,-0.192291 c -0.576874,0 -0.576874,0.925402 0,0.901365 z"
       id="path341"
       style="fill:#231f20;stroke-width:1.20182" />
    <path
       class="cls-21"
       d="m 50.316262,98.145489 c 1.27393,0.108164 3.605461,-0.73311 3.485279,-2.34355 -0.120182,-1.610439 -2.595932,-1.814749 -3.509315,-1.021547 -1.358058,1.20182 -1.129712,4.122244 -0.504765,5.576448 0.624947,1.4542 3.268952,1.43016 4.470772,0.54082 0.456692,-0.34853 0,-1.129716 -0.456692,-0.78119 -0.841274,0.63697 -2.644005,0.9254 -3.232897,-0.276416 a 5.5283742,5.5283742 0 0 1 -0.2644,-2.80024 c 0,-0.420637 0.120182,-1.285948 0.504764,-1.53833 0.384583,-0.252382 2.163277,-0.408619 1.983004,0.60091 -0.180273,1.00953 -1.802731,1.201821 -2.47575,1.14173 -0.673019,-0.06009 -0.576874,0.853292 0,0.901365 z"
       id="path342"
       style="fill:#231f20;stroke-width:1.20182" />
  </g>
  <metadata
     id="metadata346">
    <rdf:RDF>
      <cc:Work
         rdf:about="">
        <dc:title>markov_chain</dc:title>
      </cc:Work>
    </rdf:RDF>
  </metadata>
</svg>
