<?xml version="1.0" encoding="UTF-8" standalone="no"?>
<!-- Generator: Adobe Illustrator 24.2.1, SVG Export Plug-In . SVG Version: 6.00 Build 0)  -->

<svg
   version="1.1"
   id="Layer_1"
   x="0px"
   y="0px"
   viewBox="0 0 800 187.8"
   xml:space="preserve"
   sodipodi:docname="Arizona_Wildcats_logo.svg"
   width="800"
   height="187.8"
   inkscape:version="1.2.2 (1:1.2.2+202212051552+b0a8486541)"
   xmlns:inkscape="http://www.inkscape.org/namespaces/inkscape"
   xmlns:sodipodi="http://sodipodi.sourceforge.net/DTD/sodipodi-0.dtd"
   xmlns="http://www.w3.org/2000/svg"
   xmlns:svg="http://www.w3.org/2000/svg"><defs
   id="defs59" /><sodipodi:namedview
   id="namedview57"
   pagecolor="#ffffff"
   bordercolor="#000000"
   borderopacity="0.25"
   inkscape:showpageshadow="2"
   inkscape:pageopacity="0.0"
   inkscape:pagecheckerboard="0"
   inkscape:deskcolor="#d1d1d1"
   showgrid="false"
   inkscape:zoom="0.93115081"
   inkscape:cx="608.38695"
   inkscape:cy="93.43277"
   inkscape:window-width="1223"
   inkscape:window-height="779"
   inkscape:window-x="57"
   inkscape:window-y="21"
   inkscape:window-maximized="1"
   inkscape:current-layer="Layer_1" />
<style
   type="text/css"
   id="style2">
	.st0{fill:#0C234B;}
	.st1{fill:#FFFFFF;}
	.st2{fill:#AB0520;}
</style>
<g
   id="g54">
	<path
   class="st0"
   d="m 226.8,81.5 c 0,3.1 0.3,5.3 0.8,6.8 0.5,1.5 1.5,2.8 2.7,4 H 214 c 1.3,-1.2 2.2,-2.5 2.7,-4 0.5,-1.5 0.8,-3.7 0.8,-6.8 V 38.1 h -4.8 c -3.3,0 -6,0.3 -8.1,0.8 -2.1,0.5 -3.7,1.4 -4.9,2.5 l 3,-10 h 42.7 l -2.8,9.8 c -0.9,-1.1 -2.1,-1.9 -3.5,-2.4 -1.5,-0.5 -3.3,-0.8 -5.5,-0.8 h -6.7 z"
   id="path4" />
	<path
   class="st0"
   d="m 259.3,82.7 c 0,2.7 0.2,4.8 0.7,6.1 0.5,1.3 1.3,2.5 2.4,3.5 h -14.6 c 1.1,-1 1.9,-2.2 2.4,-3.5 0.5,-1.3 0.7,-3.3 0.7,-6.1 V 47.6 c 0,-2.7 -0.2,-4.8 -0.7,-6.1 -0.5,-1.3 -1.3,-2.5 -2.4,-3.5 h 14.6 c -1.1,1 -2,2.2 -2.4,3.5 -0.5,1.3 -0.7,3.3 -0.7,6.1 V 59.7 H 288 V 47.6 c 0,-2.7 -0.2,-4.8 -0.7,-6.1 C 286.8,40.2 286,39 284.9,38 h 14.6 c -1.1,1 -1.9,2.2 -2.4,3.5 -0.5,1.3 -0.7,3.3 -0.7,6.1 v 35.1 c 0,2.7 0.2,4.8 0.7,6.1 0.5,1.3 1.3,2.5 2.4,3.5 h -14.6 c 1.2,-1 2,-2.2 2.4,-3.5 0.5,-1.3 0.7,-3.3 0.7,-6.1 V 66 h -28.7 z"
   id="path6" />
	<path
   class="st0"
   d="m 306.6,92.2 c 1.1,-1 1.9,-2.2 2.4,-3.5 0.5,-1.3 0.7,-3.3 0.7,-6.1 V 47.5 c 0,-2.7 -0.2,-4.8 -0.7,-6.1 -0.5,-1.3 -1.3,-2.5 -2.4,-3.5 h 29.2 v 8.6 c -1.3,-1.1 -2.7,-1.8 -4.3,-2.3 -1.6,-0.5 -3.4,-0.7 -5.4,-0.7 -1.1,0 -2.2,0.1 -3.5,0.3 -1.3,0.2 -2.8,0.4 -4.4,0.8 v 15.3 h 13.1 v 7.9 c -0.6,-0.7 -1.5,-1.3 -2.5,-1.6 -1.1,-0.3 -3,-0.5 -5.8,-0.5 h -4.8 v 19.4 c 2,0.3 3.9,0.5 5.5,0.7 1.6,0.2 3.1,0.2 4.3,0.2 2.7,0 5.3,-0.4 7.7,-1.1 2.4,-0.7 4.8,-1.9 7.1,-3.4 l -3.7,10.6 z"
   id="path8" />
	<path
   class="st0"
   d="m 410.9,92.2 v -4.6 c -2.9,2.1 -5.8,3.7 -8.8,4.7 -3,1 -6,1.6 -9,1.6 -3.5,0 -6.6,-0.6 -9.3,-1.7 -2.7,-1.2 -5.1,-2.9 -7,-5.2 -1.5,-1.8 -2.7,-4 -3.3,-6.4 -0.7,-2.4 -1,-5.7 -1,-9.8 V 42.3 c 0,-3 -0.3,-5.3 -0.8,-6.8 -0.5,-1.5 -1.4,-2.7 -2.7,-3.9 h 16.3 c -1.2,1.1 -2.1,2.4 -2.7,3.9 -0.5,1.4 -0.8,3.7 -0.8,6.8 V 69 c 0,4.1 0.2,7.2 0.6,9.2 0.4,2 1.1,3.6 2,4.8 1.1,1.4 2.7,2.5 4.6,3.2 1.9,0.7 4.1,1.1 6.8,1.1 2.2,0 4.2,-0.3 6.1,-1 1.9,-0.6 3.5,-1.6 5,-2.8 1.3,-1 2.2,-2.4 2.7,-4.1 0.5,-1.7 0.8,-3.9 0.8,-6.8 V 42.4 c 0,-3.2 -0.3,-5.5 -0.8,-6.9 -0.5,-1.4 -1.4,-2.7 -2.7,-3.8 h 16.4 c -1.3,1.1 -2.2,2.4 -2.7,4 -0.5,1.5 -0.8,3.8 -0.8,6.7 v 39.2 c 0,3 0.3,5.3 0.8,6.8 0.5,1.5 1.4,2.8 2.7,3.9 z"
   id="path10" />
	<path
   class="st0"
   d="m 482.8,38 c -1.2,1 -2,2.2 -2.4,3.5 -0.5,1.3 -0.7,3.3 -0.7,6.1 v 46 c -1.9,-0.1 -3.6,-0.7 -5.3,-1.8 -1.7,-1.2 -3.8,-3.4 -6.3,-6.7 L 440.5,49.8 v 33 c 0,2.8 0.2,4.9 0.7,6.2 0.5,1.3 1.3,2.4 2.4,3.4 h -12.1 c 1.1,-1 1.9,-2.2 2.4,-3.5 0.5,-1.3 0.7,-3.3 0.7,-6.1 v -35 c 0,-2.7 -0.2,-4.8 -0.7,-6.1 -0.5,-1.3 -1.3,-2.5 -2.4,-3.5 h 10.8 l 31.6,40.7 V 47.7 c 0,-2.7 -0.2,-4.8 -0.7,-6.1 -0.5,-1.3 -1.3,-2.5 -2.4,-3.5 z"
   id="path12" />
	<path
   class="st0"
   d="m 503.1,82.7 c 0,2.7 0.2,4.8 0.7,6.1 0.5,1.3 1.3,2.5 2.4,3.5 h -14.6 c 1.2,-1 2,-2.2 2.4,-3.5 0.5,-1.3 0.7,-3.3 0.7,-6.1 V 47.6 c 0,-2.7 -0.2,-4.8 -0.7,-6.1 -0.5,-1.3 -1.3,-2.5 -2.4,-3.5 h 14.6 c -1.2,1 -2,2.2 -2.4,3.5 -0.5,1.3 -0.7,3.3 -0.7,6.1 z"
   id="path14" />
	<path
   class="st0"
   d="m 537.2,93.7 c -2.3,-0.6 -4.2,-1.9 -5.8,-3.9 -1.6,-2 -3.1,-5 -4.5,-9 L 516.1,49.2 c -0.9,-2.6 -1.7,-4.7 -2.5,-6.4 -0.8,-1.6 -1.7,-3.2 -2.6,-4.7 h 11 c 0.1,0.9 0.1,1.7 0.3,2.5 0.1,0.8 0.3,1.5 0.5,2.2 l 13,38.8 12.3,-32.3 c 0.4,-1 0.6,-2 0.9,-3 0.2,-1 0.3,-1.9 0.3,-2.8 0,-0.7 -0.2,-1.5 -0.6,-2.3 -0.4,-0.8 -1.1,-1.8 -2.1,-3.1 h 12.2 z"
   id="path16" />
	<path
   class="st0"
   d="m 562.6,92.2 c 1.1,-1 1.9,-2.2 2.4,-3.5 0.5,-1.3 0.7,-3.3 0.7,-6.1 V 47.5 c 0,-2.7 -0.2,-4.8 -0.7,-6.1 -0.5,-1.3 -1.3,-2.5 -2.4,-3.5 h 29.2 v 8.6 c -1.3,-1.1 -2.7,-1.8 -4.3,-2.3 -1.6,-0.5 -3.4,-0.7 -5.4,-0.7 -1,0 -2.2,0.1 -3.5,0.3 -1.3,0.2 -2.8,0.4 -4.4,0.8 v 15.3 h 13.1 v 7.9 c -0.6,-0.7 -1.5,-1.3 -2.5,-1.6 -1,-0.3 -3,-0.5 -5.8,-0.5 h -4.8 v 19.4 c 2,0.3 3.9,0.5 5.5,0.7 1.6,0.2 3.1,0.2 4.3,0.2 2.7,0 5.3,-0.4 7.7,-1.1 2.4,-0.7 4.8,-1.9 7.1,-3.4 l -3.7,10.6 z"
   id="path18" />
	<path
   class="st0"
   d="m 613.9,82.7 c 0,2.7 0.2,4.8 0.7,6.1 0.5,1.3 1.3,2.5 2.4,3.5 h -14.6 c 1.1,-1 1.9,-2.2 2.4,-3.5 0.5,-1.3 0.7,-3.3 0.7,-6.1 V 47.6 c 0,-2.7 -0.2,-4.8 -0.7,-6.1 -0.5,-1.3 -1.3,-2.5 -2.4,-3.5 h 18.5 c 5.3,0 9.5,1.3 12.8,3.8 3.2,2.6 4.9,5.9 4.9,10 0,3 -1,5.6 -2.9,7.8 -2,2.3 -5,4.3 -9.1,6 l 13.9,18.8 c 0.8,1.1 1.8,2.3 3,3.6 1.1,1.3 2.5,2.6 3.9,3.9 l -4.1,0.4 h -0.7 c -1.9,0 -3.8,-0.5 -5.7,-1.6 -1.8,-1 -3.4,-2.5 -4.7,-4.3 L 616.3,64.1 c 4.7,-1.1 8.2,-2.5 10.4,-4.4 2.2,-1.9 3.3,-4.3 3.3,-7.2 0,-2.7 -0.9,-5 -2.8,-6.7 -1.9,-1.7 -4.3,-2.6 -7.4,-2.6 -0.7,0 -1.5,0.1 -2.5,0.2 -1,0.1 -2.1,0.3 -3.3,0.5 z"
   id="path20" />
	<path
   class="st0"
   d="m 649.9,91 -2.5,-9.8 c 3.1,2.1 6.1,3.7 9,4.7 2.9,1 5.8,1.5 8.7,1.5 3.7,0 6.6,-0.8 8.8,-2.4 2.2,-1.6 3.3,-3.7 3.3,-6.2 0,-0.7 -0.1,-1.5 -0.3,-2.2 -0.2,-0.7 -0.5,-1.4 -1,-2.1 -1,-1.5 -4.2,-3.6 -9.8,-6.4 -1.4,-0.7 -2.5,-1.2 -3.3,-1.6 -5.2,-2.7 -8.8,-5.1 -10.7,-7.3 -1.9,-2.2 -2.9,-4.9 -2.9,-8 0,-4.4 1.8,-7.9 5.3,-10.5 3.5,-2.6 8.4,-3.9 14.5,-3.9 1.8,0 3.7,0.1 5.8,0.4 2.1,0.2 4.4,0.6 6.9,1.1 v 9.1 c -2.2,-1.7 -4.4,-3 -6.7,-3.8 -2.2,-0.8 -4.5,-1.3 -7,-1.3 -3,0 -5.5,0.7 -7.4,2 -1.9,1.3 -2.8,3.1 -2.8,5.2 0,1.9 0.7,3.6 2.2,5 1.4,1.5 4.7,3.4 9.8,5.9 0.3,0.1 0.7,0.3 1.3,0.6 4.3,2 7.5,3.9 9.6,5.5 1.6,1.2 2.8,2.8 3.7,4.6 0.9,1.8 1.3,3.7 1.3,5.7 0,4.7 -2.1,8.6 -6.3,11.9 -4.2,3.2 -9.4,4.9 -15.7,4.9 -2,0 -4.2,-0.2 -6.5,-0.7 -2,-0.2 -4.6,-0.9 -7.3,-1.9 z"
   id="path22" />
	<path
   class="st0"
   d="m 704.8,82.7 c 0,2.7 0.2,4.8 0.7,6.1 0.5,1.3 1.3,2.5 2.4,3.5 h -14.7 c 1.2,-1 2,-2.2 2.4,-3.5 0.5,-1.3 0.7,-3.3 0.7,-6.1 V 47.6 c 0,-2.7 -0.2,-4.8 -0.7,-6.1 -0.5,-1.3 -1.3,-2.5 -2.4,-3.5 H 708 c -1.2,1 -2,2.2 -2.4,3.5 -0.5,1.3 -0.7,3.3 -0.7,6.1 z"
   id="path24" />
	<path
   class="st0"
   d="m 404.7,129.2 -8.8,22.6 h 17.5 z m 1,-19.3 4.8,11.8 18.3,46 c 2,5.1 3.6,10.1 8.6,12.7 v 0.3 h -18.1 v -0.3 c 4.3,-2 3.6,-2.9 1.2,-9.2 l -4.8,-12.6 h -22.4 l -4.6,12.6 c -1.9,5 -2.5,7.6 1.8,9.2 v 0.3 h -16.2 v -0.3 c 5.1,-2.6 6.6,-7.6 8.5,-12.7 l 22.7,-57.4 v -0.4 z"
   id="path26" />
	<path
   class="st0"
   d="m 292.4,130.9 c -5.9,0 -10.8,2.1 -14.7,6.2 -3.9,4.1 -5.8,9.4 -5.8,15.9 0,6.6 1.9,12.1 5.7,16.5 3.8,4.4 8.6,6.6 14.3,6.6 5.9,0 10.8,-2.1 14.7,-6.2 3.8,-4.2 5.8,-9.5 5.8,-15.9 0,-6.6 -1.9,-12.1 -5.7,-16.5 -3.8,-4.5 -8.6,-6.6 -14.3,-6.6 z m -0.3,51 c -4.1,0 -7.9,-0.7 -11.5,-2 -3.6,-1.3 -6.7,-3.2 -9.3,-5.7 -2.7,-2.6 -4.8,-5.7 -6.3,-9.2 -1.5,-3.5 -2.2,-7.2 -2.2,-11.1 0,-3 0.5,-6 1.4,-8.9 0.9,-2.9 2.3,-5.5 4.1,-8 2.8,-3.8 6.2,-6.8 10.4,-8.8 4.1,-2.1 8.6,-3.1 13.4,-3.1 4.1,0 8,0.7 11.6,2 3.6,1.3 6.7,3.2 9.3,5.7 2.8,2.6 4.9,5.7 6.3,9.2 1.5,3.6 2.2,7.4 2.2,11.5 0,3.8 -0.8,7.5 -2.5,11.1 -1.6,3.6 -4,6.8 -6.9,9.6 -2.7,2.5 -5.7,4.4 -9.1,5.7 -3.3,1.3 -7,2 -10.9,2 z"
   id="path28" />
	<path
   class="st0"
   d="m 337.6,171 c 0,2.7 0.2,4.8 0.7,6.1 0.5,1.3 1.3,2.5 2.5,3.5 h -14.7 c 1.1,-1 1.9,-2.2 2.4,-3.5 0.5,-1.3 0.7,-3.3 0.7,-6.1 v -35.1 c 0,-2.7 -0.2,-4.8 -0.7,-6.1 -0.5,-1.3 -1.3,-2.5 -2.4,-3.5 h 29.3 v 8.6 c -1.3,-1.1 -2.7,-1.8 -4.3,-2.3 -1.6,-0.5 -3.4,-0.7 -5.4,-0.7 -1.1,0 -2.2,0.1 -3.6,0.3 -1.3,0.2 -2.8,0.4 -4.4,0.8 v 15.3 h 13.2 v 7.9 c -0.6,-0.7 -1.5,-1.3 -2.5,-1.5 -1.1,-0.3 -3,-0.5 -5.8,-0.5 h -4.9 z"
   id="path30" />
	<path
   class="st0"
   d="m 453,171 c 0,2.7 0.2,4.7 0.7,6.1 0.5,1.3 1.3,2.5 2.4,3.5 h -14.6 c 1.1,-1 1.9,-2.2 2.4,-3.5 0.5,-1.3 0.7,-3.3 0.7,-6.1 v -35.1 c 0,-2.7 -0.2,-4.8 -0.7,-6.1 -0.5,-1.3 -1.3,-2.5 -2.4,-3.5 H 460 c 5.3,0 9.5,1.3 12.8,3.8 3.2,2.6 4.8,5.9 4.8,10 0,3 -1,5.6 -2.9,7.9 -1.9,2.3 -5,4.3 -9.1,6 l 13.9,18.8 c 0.8,1.1 1.8,2.3 3,3.5 1.2,1.2 2.5,2.5 4,3.9 l -4.1,0.4 h -0.7 c -1.9,0 -3.8,-0.5 -5.7,-1.6 -1.9,-1 -3.4,-2.5 -4.7,-4.3 l -15.9,-22.3 c 4.7,-1.1 8.2,-2.5 10.4,-4.4 2.2,-1.9 3.3,-4.3 3.3,-7.2 0,-2.7 -0.9,-5 -2.8,-6.7 -1.9,-1.7 -4.3,-2.6 -7.4,-2.6 -0.7,0 -1.5,0.1 -2.5,0.2 -1,0.1 -2.1,0.3 -3.3,0.5 z"
   id="path32" />
	<path
   class="st0"
   d="m 502.5,171 c 0,2.7 0.2,4.8 0.7,6.1 0.5,1.3 1.3,2.5 2.4,3.5 H 491 c 1.1,-1 1.9,-2.2 2.4,-3.5 0.5,-1.3 0.7,-3.3 0.7,-6.1 v -35.1 c 0,-2.7 -0.2,-4.7 -0.7,-6.1 -0.5,-1.3 -1.3,-2.5 -2.4,-3.5 h 14.6 c -1.2,1 -2,2.2 -2.4,3.5 -0.5,1.3 -0.7,3.3 -0.7,6.1 z"
   id="path34" />
	<path
   class="st0"
   d="m 556.6,170.4 -3.9,10.1 H 511 l 28.4,-47.2 c -2.1,-0.5 -4.1,-0.9 -6,-1.2 -1.9,-0.3 -3.6,-0.4 -5.2,-0.4 -2.4,0 -4.6,0.3 -6.8,0.9 -2.2,0.6 -4.4,1.5 -6.7,2.8 l 3.7,-9.1 H 553 l -28.4,47.2 c 3.2,0.4 5.8,0.6 8,0.8 2.1,0.2 4,0.2 5.6,0.2 3.7,0 7.1,-0.4 10.1,-1 3,-0.6 5.8,-1.8 8.3,-3.1 z"
   id="path36" />
	<path
   class="st0"
   d="m 587.7,130.9 c -6,0 -10.9,2.1 -14.7,6.2 -3.8,4.1 -5.8,9.4 -5.8,15.9 0,6.6 1.9,12.1 5.7,16.5 3.8,4.4 8.6,6.6 14.3,6.6 5.9,0 10.8,-2.1 14.7,-6.2 3.8,-4.2 5.8,-9.5 5.8,-15.9 0,-6.6 -1.9,-12.1 -5.7,-16.5 -3.9,-4.5 -8.6,-6.6 -14.3,-6.6 z m -0.3,51 c -4.1,0 -7.9,-0.7 -11.5,-2 -3.6,-1.3 -6.7,-3.2 -9.3,-5.7 -2.7,-2.6 -4.8,-5.7 -6.3,-9.2 -1.5,-3.5 -2.2,-7.2 -2.2,-11.1 0,-3 0.5,-6 1.4,-8.9 0.9,-2.9 2.3,-5.5 4.1,-8 2.8,-3.8 6.3,-6.8 10.4,-8.8 4.1,-2.1 8.6,-3.1 13.4,-3.1 4.2,0 8,0.7 11.6,2 3.6,1.3 6.7,3.2 9.3,5.7 2.8,2.6 4.9,5.7 6.3,9.2 1.5,3.6 2.2,7.4 2.2,11.5 0,3.8 -0.8,7.5 -2.5,11.1 -1.6,3.6 -4,6.8 -6.9,9.6 -2.7,2.5 -5.7,4.4 -9.1,5.7 -3.4,1.3 -7,2 -10.9,2 z"
   id="path38" />
	<path
   class="st0"
   d="m 672.6,126.4 c -1.2,1 -2,2.2 -2.4,3.5 -0.5,1.3 -0.7,3.3 -0.7,6.1 v 45.9 c -1.9,-0.1 -3.6,-0.7 -5.3,-1.8 -1.7,-1.2 -3.8,-3.4 -6.3,-6.6 L 630.2,138 v 33 c 0,2.8 0.2,4.9 0.7,6.2 0.5,1.3 1.2,2.4 2.4,3.4 h -12.1 c 1.1,-1 1.9,-2.2 2.4,-3.5 0.5,-1.3 0.7,-3.3 0.7,-6.1 v -35.1 c 0,-2.7 -0.2,-4.7 -0.7,-6.1 -0.5,-1.3 -1.3,-2.5 -2.4,-3.5 H 632 l 31.6,40.7 v -31.2 c 0,-2.7 -0.3,-4.7 -0.7,-6.1 -0.5,-1.3 -1.3,-2.5 -2.4,-3.5 h 12.1 z"
   id="path40" />
	<path
   class="st0"
   d="M 692.3,154.9 H 708 l -7.6,-21 z m -7.3,18.3 c -0.2,0.5 -0.4,1.1 -0.5,1.7 -0.1,0.6 -0.2,1.2 -0.2,1.8 0,0.5 0.2,1.1 0.5,1.7 0.4,0.6 1,1.3 1.8,2.1 H 674 c 1,-0.7 2,-1.7 2.8,-3 0.8,-1.3 1.7,-3 2.6,-5.2 l 15,-38.7 c 0.3,-0.7 0.5,-1.4 0.7,-2.1 0.2,-0.7 0.2,-1.3 0.2,-1.9 0,-0.6 -0.1,-1.2 -0.4,-1.7 -0.3,-0.5 -0.8,-1 -1.5,-1.6 h 12.2 l 17,45.5 c 0.8,2.1 1.6,3.7 2.6,5 0.9,1.3 2.1,2.5 3.5,3.7 h -15.3 l 0.2,-0.2 c 1.4,-1.5 2.1,-2.6 2.1,-3.3 0,-0.8 -0.3,-2 -0.9,-3.7 -0.1,-0.3 -0.1,-0.5 -0.2,-0.6 L 710,160.2 h -19.9 z"
   id="path42" />
	<path
   class="st0"
   d="m 756.8,38 13.9,23.6 9.3,-15.4 c 0.6,-0.9 1,-1.8 1.3,-2.6 0.3,-0.8 0.4,-1.4 0.4,-2 0,-0.6 -0.2,-1.2 -0.6,-1.8 -0.4,-0.6 -0.9,-1.2 -1.7,-1.9 H 792 l -18.3,29.9 v 14.8 c 0,2.7 0.2,4.8 0.7,6.1 0.5,1.3 1.3,2.5 2.4,3.5 h -14.7 c 1.2,-1 2,-2.2 2.4,-3.5 0.5,-1.3 0.7,-3.3 0.7,-6.1 v -15 L 752.7,47 c -1.3,-1.9 -2.2,-2.1 -3.4,-2.6 -1.3,-0.5 -3.5,-0.5 -5.5,-0.5 h -6 v 38.7 c 0,2.7 0.2,4.8 0.7,6.1 0.5,1.3 1.3,2.5 2.4,3.5 h -14.7 c 1.1,-1 2,-2.2 2.4,-3.5 0.5,-1.3 0.7,-3.3 0.7,-6.1 V 43.9 H 725 c -3,0 -5.4,0.2 -7.2,0.7 -1.8,0.5 -3.3,1.2 -4.4,2.3 l 2.7,-8.9 z"
   id="path44" />
	<polygon
   class="st1"
   points="0,187.9 0,126.9 21,127 45.8,61 39.5,61 39.5,0 163.8,0 163.8,61 157.7,61 182.3,126.7 203.4,126.9 203.4,187.9 "
   id="polygon46" />
	<polyline
   class="st0"
   points="101.7,22.7 141,22.7 141,38.5 124.7,38.5 167.6,149 180.2,149 180.2,165.2 127.1,165.2 127.1,149.5    112.1,149.5 112.1,180.5 196.1,180.5 196.1,134.2 177.2,134.2 147,53.7 156.5,53.7 156.5,7.5 101.7,7.5 101.7,7.5 46.9,7.5    46.9,53.7 56.4,53.7 26.2,134.2 7.3,134.2 7.3,180.5 91.2,180.5 91.2,149.5 76.3,149.5 76.3,165.2 23.1,165.2 23.1,149 35.8,149    78.7,38.5 62.4,38.5 62.4,22.7 101.7,22.7  "
   id="polyline48" />
	<path
   class="st0"
   d="m 220.3,167 c 1.5,1.5 2.3,3.3 2.3,5.5 0,2.2 -0.8,4 -2.3,5.5 -1.5,1.5 -3.4,2.2 -5.6,2.2 -2.2,0 -4.1,-0.7 -5.6,-2.2 -1.5,-1.5 -2.3,-3.3 -2.3,-5.5 0,-2.2 0.8,-4 2.3,-5.5 1.5,-1.5 3.4,-2.2 5.6,-2.2 2.2,-0.1 4.1,0.8 5.6,2.2 z m -1.1,1 c -1.2,-1.2 -2.7,-1.9 -4.5,-1.9 -1.8,0 -3.3,0.6 -4.5,1.9 -1.2,1.2 -1.8,2.8 -1.8,4.6 0,1.8 0.6,3.3 1.8,4.6 1.2,1.2 2.7,1.9 4.5,1.9 1.8,0 3.3,-0.6 4.5,-1.9 1.2,-1.2 1.8,-2.8 1.8,-4.6 0.1,-1.9 -0.6,-3.4 -1.8,-4.6 z m -7.9,0 h 0.7 2.9 c 1,0 1.7,0.2 2.3,0.6 0.5,0.4 0.8,1 0.8,1.8 0,0.8 -0.3,1.5 -0.8,2 -0.4,0.4 -0.9,0.6 -1.6,0.7 l 2.6,3.9 h -0.8 -0.8 l -2.3,-3.9 h -1.5 v 3.9 h -0.8 -0.7 z m 1.4,4 h 1.9 c 0.7,0 1.1,-0.1 1.5,-0.4 0.3,-0.2 0.5,-0.6 0.5,-1.1 0,-0.4 -0.2,-0.8 -0.5,-1 -0.3,-0.2 -0.8,-0.3 -1.5,-0.3 h -1.9 z"
   id="path50" />
	<path
   class="st2"
   d="m 101.7,22.9 43.6,113 c 0,0 5.6,13.7 14.6,13.7 h -31.7 c 0,0 1.6,0.2 3.2,-2.4 0.9,-1.5 0.1,-3.8 0.1,-3.8 l -9.8,-25.2 h -20 -20 l -9.8,25.2 c 0,0 -0.7,2.3 0.2,3.8 1.6,2.6 3.2,2.4 3.2,2.4 H 43.5 c 9.1,0 14.6,-13.7 14.6,-13.7 l 43.6,-113 m -0.1,83.3 H 117 L 101.7,66.6 86.4,106.2 Z"
   id="path52" />
</g>
</svg>
