<?xml version="1.0" encoding="UTF-8" standalone="no"?>
<svg
   viewBox="0 0 131 131"
   width="131px"
   height="131px"
   version="1.1"
   xml:space="preserve"
   style="fill-rule:evenodd;clip-rule:evenodd;stroke-linejoin:round;stroke-miterlimit:1.41421;"
   id="svg317073"
   sodipodi:docname="WSL-Logo.svg"
   inkscape:version="1.2.2 (1:1.2.2+202212051552+b0a8486541)"
   xmlns:inkscape="http://www.inkscape.org/namespaces/inkscape"
   xmlns:sodipodi="http://sodipodi.sourceforge.net/DTD/sodipodi-0.dtd"
   xmlns="http://www.w3.org/2000/svg"
   xmlns:svg="http://www.w3.org/2000/svg"><defs
     id="defs317077" /><sodipodi:namedview
     id="namedview317075"
     pagecolor="#ffffff"
     bordercolor="#000000"
     borderopacity="0.25"
     inkscape:showpageshadow="2"
     inkscape:pageopacity="0.0"
     inkscape:pagecheckerboard="0"
     inkscape:deskcolor="#d1d1d1"
     showgrid="false"
     inkscape:zoom="1.8015267"
     inkscape:cx="174.8517"
     inkscape:cy="65.777543"
     inkscape:window-width="1226"
     inkscape:window-height="780"
     inkscape:window-x="54"
     inkscape:window-y="20"
     inkscape:window-maximized="1"
     inkscape:current-layer="g317069" /><g
     id="g317071"><g
       id="g317069"><path
         d="M21.4033,112.817c0.146667,0.146667 0.376667,0.143333 0.523333,-0.00333214c0.146667,-0.140001 0.150002,-0.376667 0.00666809,-0.523335c-15.4967,-16.3133 -26.0733,-42.8733 -4.90333,-64.0467c18.0233,-18.0267 39.5333,-3.32667 56.8167,8.48666c11.4167,7.80334 21.28,14.54 26.81,9.01c8.28667,-8.28667 -1.71333,-19.58 -4.97667,-22.8433l-1.51666,-1.45c-0.146667,-0.136665 -0.373337,-0.133331 -0.51667,0.00666809c-0.143333,0.139999 -0.150002,0.373337 -0.0133286,0.523331c5.49333,6.08334 6.6,11.89 2.96333,15.5267c-5.67334,5.67667 -15.5,-1.02667 -26.8767,-8.78333c-17.34,-11.8267 -38.92,-26.54 -58.1967,-7.26667c-6.08,6.08 -9.93667,12.8267 -11.5233,20.1267c2.83333,-34.1767 31.4533,-61.0367 66.36,-61.0367c30.97,0 56.9967,21.1333 64.46,49.7633c-4.18001,-11.6433 -12.2167,-21.0833 -17.64,-26.51l-1.85667,-1.81333c-0.146667,-0.143333 -0.379997,-0.139999 -0.526665,0.00333405c-0.143333,0.143333 -0.146667,0.376663 -0.00666809,0.526665c15.4967,16.31 26.08,42.87 4.90667,64.0433c-18.0267,18.0267 -39.5367,3.32666 -56.82,-8.48333c-11.4167,-7.80334 -21.2767,-14.54 -26.8067,-9.01c-2.14,2.14 -3.22333,4.65334 -3.22333,7.47334c0,18.6133 6.58,36.9967 17.4767,53.3467c0.360001,0.376667 0.713333,0.746667 1.06334,1.11667c-21.5767,-6.4 -38.5733,-23.4233 -44.9267,-45.02c4.30667,10.96 11.8967,19.8333 17.09,25.0267l1.85333,1.81Z"
         style="fill:#386e6e;fill-rule:nonzero;fill-opacity:1"
         id="path317061" /><path
         d="M50.1733,103.28l-5.5,0l8.57,27.46l3.85667,0l5.07,-17.6033l0.0699997,0l5.35667,17.6033l3.85667,0l9.10667,-27.46l-5.5,0l-5.28334,18.3533l-0.0733261,0l-5.57001,-18.7067l-3.10666,0l-5.35667,18.7067l-0.0699997,0l-5.42667,-18.3533Z"
         style="fill:#386e6e;fill-rule:nonzero;fill-opacity:1"
         id="path317063" /><path
         d="M97.5867,105.567c-1.64333,-1.82 -4.96333,-3 -7.35667,-3c-4.53333,0 -7.85333,3.60667 -7.85333,8.07c0,4.17667 2.53333,5.92667 6,7.35333c2.10333,0.823334 4.67333,1.61 4.67333,4.39333c0,2.07 -1.32,3.89333 -3.46333,3.89333c-2.25,0 -4.14,-1.85667 -4.85333,-3.92667l-3.39333,3.32c1.85667,3.10333 4.57,5.24667 8.28333,5.24667c5.5,0 8.85667,-3.82 8.85667,-9.21c0,-9.03667 -10.6767,-7.14333 -10.6767,-11.6767c0,-1.75 1.60667,-3.03333 3.28333,-3.03333c1.75,0 3.03667,0.856667 4.03667,2.21333l2.46333,-3.64333Z"
         style="fill:#386e6e;fill-rule:nonzero;fill-opacity:1"
         id="path317065" /><path
         d="M109.143,103.28l-5.24667,0l0,27.46l12.6767,0l0,-4.57l-7.43,0l0,-22.89Z"
         style="fill:#386e6e;fill-rule:nonzero;fill-opacity:1"
         id="path317067" /></g></g></svg>
