<?xml version="1.0" encoding="utf-8"?>
<!-- Generator: Adobe Illustrator 22.1.0, SVG Export Plug-In . SVG Version: 6.00 Build 0)  -->
<svg version="1.1" xmlns="http://www.w3.org/2000/svg" xmlns:xlink="http://www.w3.org/1999/xlink" x="0px" y="0px"
	 viewBox="0 0 1134.3 623.6" style="enable-background:new 0 0 1134.3 623.6;" xml:space="preserve">
<style type="text/css">
	.st0{fill:#C1272D;}
	.st1{fill:#FCEE21;}
	.st2{fill:#0000FF;}
	.st3{fill:#8CC63F;}
</style>
<g id="Слой_8">
</g>
<g id="Слой_16">
</g>
<g id="Time_scale">
</g>
<g id="Now_line">
</g>
<g id="Green_background">
</g>
<g id="Grass">
</g>
<g id="Main_bunnies">
</g>
<g id="Слой_10">
</g>
<g id="Слой_9">
	<g>
		<g>
			<g>
				<path class="st0" d="M405.8,130.2c0.7,4.6,1,9.3,1.1,13.9c0,1.9,3,1.9,3,0c-0.1-4.9-0.5-9.8-1.2-14.7
					C408.4,127.5,405.5,128.3,405.8,130.2L405.8,130.2z"/>
			</g>
		</g>
		<g>
			<g>
				<path class="st0" d="M412.4,127.7c1.2,6.9,2.5,13.9,3.7,20.8c0.3,1.9,3.2,1.1,2.9-0.8c-1.2-6.9-2.5-13.9-3.7-20.8
					C414.9,125,412,125.8,412.4,127.7L412.4,127.7z"/>
			</g>
		</g>
		<g>
			<g>
				<path class="st0" d="M467,132c0.1,5.7,0.3,11.4,0.7,17.1c0.1,1.9,3.1,1.9,3,0c-0.4-5.7-0.7-11.4-0.7-17.1
					C470,130,467,130,467,132L467,132z"/>
			</g>
		</g>
		<g>
			<g>
				<path class="st0" d="M488.7,132.3c0.7,6.1,1.2,12.3,2.4,18.4c0.4,1.9,3.3,1.1,2.9-0.8c-1.1-5.8-1.6-11.7-2.3-17.6
					C491.5,130.4,488.5,130.4,488.7,132.3L488.7,132.3z"/>
			</g>
		</g>
		<g>
			<g>
				<path class="st0" d="M548.2,124.2c0,4.9,0.6,9.7,1.8,14.4c0.5,1.9,3.4,1.1,2.9-0.8c-1.1-4.5-1.7-9-1.7-13.6
					C551.1,122.2,548.1,122.2,548.2,124.2L548.2,124.2z"/>
			</g>
		</g>
		<g>
			<g>
				<path class="st1" d="M426.7,126.4c1.2,7.8,2.3,15.7,3.1,23.6c0.2,1.9,3.2,1.9,3,0c-0.9-8.2-1.9-16.3-3.2-24.4
					C429.2,123.7,426.4,124.5,426.7,126.4L426.7,126.4z"/>
			</g>
		</g>
		<g>
			<g>
				<path class="st1" d="M477.7,131.3c0.5,4.3,1.1,8.6,1.6,12.9c0.3,2.8,0,6.9,1.5,9.3c0.5,0.8,1.7,1.1,2.4,0.3
					c0-0.1,0.1-0.1,0.1-0.2c0.5-0.6,0.7-1.6,0-2.1c0,0-0.1-0.1-0.1-0.1c-1.5-1.3-3.6,0.9-2.1,2.1c0,0,0.1,0.1,0.1,0.1
					c0-0.7,0-1.4,0-2.1c0,0.1-0.1,0.1-0.1,0.2c0.8,0.1,1.6,0.2,2.4,0.3c-1.4-2.3-1.1-7.7-1.4-10.2c-0.4-3.5-0.9-7-1.3-10.5
					C480.4,129.4,477.4,129.4,477.7,131.3L477.7,131.3z"/>
			</g>
		</g>
		<g>
			<g>
				<path class="st1" d="M517.8,129.5c-0.1,4.3,0,8.5,0.4,12.8c0.2,1.9,3.2,1.9,3,0c-0.4-4.3-0.5-8.5-0.4-12.8
					C520.9,127.5,517.9,127.5,517.8,129.5L517.8,129.5z"/>
			</g>
		</g>
		<g>
			<g>
				<path class="st2" d="M419,127.1c2.4,7.9,4.5,15.9,6.1,23.9c0.4,1.9,3.3,1.1,2.9-0.8c-1.6-8.1-3.7-16.1-6.1-23.9
					C421.3,124.5,418.4,125.3,419,127.1L419,127.1z"/>
			</g>
		</g>
		<g>
			<g>
				<path class="st2" d="M459.1,134.5c1,4.1,1.8,8.3,2.6,12.5c0.3,1.9,3.2,1.1,2.9-0.8c-0.7-4.2-1.6-8.4-2.6-12.5
					C461.5,131.8,458.6,132.6,459.1,134.5L459.1,134.5z"/>
			</g>
		</g>
		<g>
			<g>
				<path class="st2" d="M531.2,123c0.8,7.2,1.7,14.3,2.5,21.5c0.2,1.9,3.2,1.9,3,0c-0.8-7.2-1.7-14.3-2.5-21.5
					C534,121.1,531,121,531.2,123L531.2,123z"/>
			</g>
		</g>
		<g>
			<g>
				<path class="st2" d="M555.3,125.7c0.4,2.9,0.8,5.7,1.4,8.5c0.4,1.9,3.3,1.1,2.9-0.8c-0.5-2.6-1-5.1-1.3-7.7
					C558.1,123.8,555.1,123.8,555.3,125.7L555.3,125.7z"/>
			</g>
		</g>
		<g>
			<g>
				<path class="st3" d="M434.5,133.9c1,4.1,1.9,8.1,2.9,12.2c0.4,1.9,3.3,1.1,2.9-0.8c-1-4.1-1.9-8.1-2.9-12.2
					C436.9,131.2,434,132,434.5,133.9L434.5,133.9z"/>
			</g>
		</g>
		<g>
			<g>
				<path class="st3" d="M440.7,137.7c0.6,1.3,1.1,2.6,1.7,3.9c0.5,1.1,0.8,2.4,1.9,3c0.5,0.3,1.1,0.3,1.5,0
					c0.5-0.3,0.8-0.6,0.9-1.2c0.1-0.7-0.1-1.3-0.7-1.7c0,0-0.1-0.1-0.1-0.1c-1.6-1-3.1,1.6-1.5,2.6c0,0,0.1,0.1,0.1,0.1
					c-0.2-0.6-0.5-1.1-0.7-1.7c0,0.1,0,0.1,0,0.2c0.2-0.3,0.5-0.6,0.7-0.9c-0.1,0-0.1,0.1-0.2,0.1c0.5,0,1,0,1.5,0
					c0.2,0.2,0.2,0.1-0.1-0.4c-0.1-0.3-0.3-0.6-0.4-0.9c-0.2-0.5-0.4-0.9-0.6-1.4c-0.5-1.1-0.9-2.1-1.4-3.2
					C442.5,134.4,439.9,136,440.7,137.7L440.7,137.7z"/>
			</g>
		</g>
		<g>
			<g>
				<path class="st3" d="M471.9,132.3c1.6,6.4,0.4,13,2.1,19.4c0.5,1.9,3.4,1.1,2.9-0.8c-1.8-6.3-0.5-13-2.1-19.4
					C474.4,129.7,471.5,130.5,471.9,132.3L471.9,132.3z"/>
			</g>
		</g>
		<g>
			<g>
				<path class="st3" d="M496.1,134.5c0.7,3.7,1.4,7.5,2.1,11.2c0.3,1.9,3.2,1.1,2.9-0.8c-0.7-3.7-1.4-7.5-2.1-11.2
					C498.6,131.8,495.7,132.6,496.1,134.5L496.1,134.5z"/>
			</g>
		</g>
		<g>
			<g>
				<path class="st3" d="M524.6,125.5c0.3,5.9-0.4,13,1.6,18.7c0.6,1.8,3.5,1,2.9-0.8c-1.9-5.4-1.2-12.2-1.5-17.9
					C527.5,123.5,524.5,123.5,524.6,125.5L524.6,125.5z"/>
			</g>
		</g>
		<g>
			<g>
				<path class="st3" d="M539.4,123.2c0.6,6.3,1.6,12.6,3.1,18.8c0.5,1.9,3.3,1.1,2.9-0.8c-1.4-5.9-2.4-11.9-3-18
					C542.2,121.3,539.2,121.3,539.4,123.2L539.4,123.2z"/>
			</g>
		</g>
		<g>
			<g>
				<path d="M394,145.9c3.6-5.5,7.3-11.1,12.6-15.1c7.5-5.7,16.1-5,24.4-1c12.7,6.2,22.6,17.1,35.6,22.7c10.1,4.3,22.8,5.7,32.1-1.2
					c4.3-3.2,7.2-7.7,10.2-12.1c4.6-6.8,9.6-11.6,17.6-14.1c16.3-5,34.7-0.9,47.8,9.8c1.5,1.2,3.6-0.9,2.1-2.1
					c-10.6-8.6-24-13.3-37.7-12.7c-6.7,0.3-13.7,1.7-19.7,4.9c-5.8,3.1-9.5,8.1-13.1,13.3c-4.5,6.7-9.3,12.7-17.6,14.3
					c-8,1.6-16.5-0.7-23.6-4.3c-13.7-7.1-24.7-20.3-40-24.1c-15.6-3.9-25.7,8.5-33.3,20.1C390.4,146,393,147.5,394,145.9L394,145.9z
					"/>
			</g>
		</g>
		<g>
			<g>
				<path d="M391.5,124.3c5.9,12.2,13,25.8,27.1,29.6c14.5,3.9,22.9-7.8,33.7-14.9c12.5-8.2,28.6-10.3,42.8-6.1
					c7.6,2.3,13.7,7,20.5,10.7c6.4,3.4,13.1,4.8,20.3,3.9c16.6-2.3,28.5-15,39.2-26.7c1.3-1.4-0.8-3.6-2.1-2.1
					c-12.3,13.6-29.4,31.4-49.9,25c-8.5-2.7-15.3-9.2-23.6-12.4c-6.9-2.6-14.4-3.8-21.8-3.4c-7,0.3-14,2-20.4,4.9
					c-7.6,3.5-13.1,9.2-19.7,14c-9,6.5-19.3,6-28-1c-7.3-5.9-11.5-14.8-15.5-23.1C393.3,121.1,390.7,122.6,391.5,124.3L391.5,124.3z
					"/>
			</g>
		</g>
	</g>
	<g>
		<g>
			<g>
				<path class="st2" d="M418,443c-0.3,3.1,0.5,6,1,9c0.6,3.8,0.9,7.6,1.1,11.5c0.1,1.9,3.1,1.9,3,0c-0.1-3.1-0.3-6.2-0.7-9.3
					c-0.5-3.7-1.7-7.4-1.3-11.1C421.2,441.1,418.2,441.1,418,443L418,443z"/>
			</g>
		</g>
		<g>
			<g>
				<path class="st2" d="M464.4,443.3c-0.8,6,1,13,1.7,19c0.2,1.9,3.2,1.9,3,0c-0.3-3-0.7-6.1-1-9.1c-0.3-2.9-1.2-6.2-0.8-9.1
					C467.6,442.2,464.7,441.4,464.4,443.3L464.4,443.3z"/>
			</g>
		</g>
		<g>
			<g>
				<path class="st2" d="M469.5,442.1c1.4,6.8,2.5,13.7,3.4,20.6c0.2,1.9,3.2,1.9,3,0c-0.8-7.2-2-14.3-3.5-21.4
					C472,439.4,469.1,440.2,469.5,442.1L469.5,442.1z"/>
			</g>
		</g>
		<g>
			<g>
				<path class="st2" d="M520.9,440.3c-0.1,6.3-0.2,12.6-0.1,19c0,1.9,3,1.9,3,0c-0.1-6.3-0.1-12.6,0.1-19
					C523.9,438.3,520.9,438.3,520.9,440.3L520.9,440.3z"/>
			</g>
		</g>
		<g>
			<g>
				<path class="st2" d="M544.5,448.7c0,3.2,0,6.3,0,9.5c0,1.9,3,1.9,3,0c0-3.2,0-6.3,0-9.5C547.5,446.7,544.5,446.7,544.5,448.7
					L544.5,448.7z"/>
			</g>
		</g>
		<g>
			<g>
				<path class="st1" d="M412,445.5c2.1,5.9,3.4,12,3.8,18.2c0.1,1.9,3.1,1.9,3,0c-0.4-6.5-1.7-12.9-3.9-19
					C414.2,442.9,411.3,443.7,412,445.5L412,445.5z"/>
			</g>
		</g>
		<g>
			<g>
				<path class="st1" d="M485.1,443.2c1.5,4.9,2.4,9.9,2.8,15c0.2,1.9,3.2,1.9,3,0c-0.4-5.4-1.4-10.6-2.9-15.8
					C487.5,440.6,484.6,441.3,485.1,443.2L485.1,443.2z"/>
			</g>
		</g>
		<g>
			<g>
				<path class="st1" d="M489.3,444.9c0.8,2.9,1.7,5.7,2.9,8.4c0.8,1.8,3.3,0.2,2.6-1.5c-1.1-2.5-1.9-5.1-2.6-7.7
					C491.7,442.2,488.8,443,489.3,444.9L489.3,444.9z"/>
			</g>
		</g>
		<g>
			<g>
				<path class="st1" d="M531.2,442.7c0.5,6.4,0.9,12.8,1.4,19.3c0.1,1.9,3.1,1.9,3,0c-0.5-6.4-0.9-12.8-1.4-19.3
					C534,440.8,531,440.8,531.2,442.7L531.2,442.7z"/>
			</g>
		</g>
		<g>
			<g>
				<path class="st0" d="M425,442.4c0.5,7.4,0.5,14.7,0.2,22.1c-0.1,1.9,2.9,1.9,3,0c0.3-7.4,0.3-14.7-0.2-22.1
					C427.8,440.5,424.8,440.4,425,442.4L425,442.4z"/>
			</g>
		</g>
		<g>
			<g>
				<path class="st0" d="M474.5,441.7c3.7,6.5,3.7,14.1,5.5,21.2c0.5,1.9,3.4,1.1,2.9-0.8c-1.8-7.4-1.9-15.2-5.8-21.9
					C476.1,438.5,473.6,440,474.5,441.7L474.5,441.7z"/>
			</g>
		</g>
		<g>
			<g>
				<path class="st0" d="M526.7,439.9c0.7,7.5,0.8,14.9,0.2,22.4c-0.1,1.9,2.9,1.9,3,0c0.5-7.5,0.4-15-0.2-22.4
					C529.6,438,526.6,438,526.7,439.9L526.7,439.9z"/>
			</g>
		</g>
		<g>
			<g>
				<path class="st0" d="M549.6,449.7c-0.3,1.8-0.4,3.5-0.2,5.3c0.2,1.9,3.2,1.9,3,0c-0.1-1.5-0.1-3,0.1-4.5c0.1-0.8-0.2-1.6-1-1.8
					C550.7,448.4,549.7,448.9,549.6,449.7L549.6,449.7z"/>
			</g>
		</g>
		<g>
			<g>
				<path class="st3" d="M406.5,448.1c2.3,4,3.8,8.3,4.6,12.9c0.3,1.9,3.2,1.1,2.9-0.8c-0.9-4.8-2.5-9.4-4.9-13.6
					C408.1,445,405.6,446.5,406.5,448.1L406.5,448.1z"/>
			</g>
		</g>
		<g>
			<g>
				<path class="st3" d="M435.6,449.8c0.7,2.9,1.2,5.8,1.6,8.7c0.3,1.9,3.3,1.9,3,0c-0.4-3.2-1-6.3-1.7-9.5
					C438.1,447.1,435.2,447.9,435.6,449.8L435.6,449.8z"/>
			</g>
		</g>
		<g>
			<g>
				<path class="st3" d="M440.6,452.9c0.4,0.7,0.8,1.4,1.2,2.1c0.4,0.7,1.4,0.9,2.1,0.5c0.7-0.4,1-1.4,0.5-2.1
					c-0.4-0.7-0.8-1.4-1.2-2.1c-0.4-0.7-1.4-0.9-2.1-0.5C440.5,451.3,440.2,452.2,440.6,452.9L440.6,452.9z"/>
			</g>
		</g>
		<g>
			<g>
				<path class="st3" d="M480.1,440.3c1.3,6.5,2.7,13.1,4,19.6c0.4,1.9,3.3,1.1,2.9-0.8c-1.3-6.5-2.7-13.1-4-19.6
					C482.6,437.7,479.7,438.5,480.1,440.3L480.1,440.3z"/>
			</g>
		</g>
		<g>
			<g>
				<path class="st3" d="M536.8,443.5c1.2,5.6,2.2,11.2,2.8,16.8c0.2,1.9,3.2,1.9,3,0c-0.7-5.9-1.7-11.8-3-17.6
					C539.3,440.8,536.4,441.6,536.8,443.5L536.8,443.5z"/>
			</g>
		</g>
		<g>
			<g>
				<path class="st3" d="M514.9,440.9c-0.4,5.2-0.3,10.3,0.3,15.5c0.2,1.9,3.2,1.9,3,0c-0.6-5.2-0.6-10.3-0.3-15.5
					C518.1,439,515.1,439,514.9,440.9L514.9,440.9z"/>
			</g>
		</g>
		<g>
			<g>
				<path class="st3" d="M510.3,443.4c0,2.8,0.2,5.6,0.6,8.4c0.2,1.9,3.2,1.9,3,0c-0.4-2.8-0.6-5.6-0.6-8.4
					C513.3,441.5,510.3,441.5,510.3,443.4L510.3,443.4z"/>
			</g>
		</g>
		<g>
			<g>
				<path class="st3" d="M460.6,446.9c-0.1,4.7,0.2,9.4,0.8,14.1c0.2,1.9,3.2,1.9,3,0c-0.6-4.7-0.9-9.3-0.8-14.1
					C463.6,445,460.6,445,460.6,446.9L460.6,446.9z"/>
			</g>
		</g>
		<g>
			<g>
				<path class="st1" d="M430.4,445.9c0.1,5.3,0.3,10.5,0.4,15.8c0,1.9,3,1.9,3,0c-0.1-5.3-0.3-10.5-0.4-15.8
					C433.3,444,430.3,443.9,430.4,445.9L430.4,445.9z"/>
			</g>
		</g>
		<g>
			<g>
				<path class="st0" d="M402.2,451.2c0.9,2.9,1.8,5.9,2.7,8.8c0.6,1.8,3.5,1.1,2.9-0.8c-0.9-2.9-1.8-5.9-2.7-8.8
					C404.6,448.6,401.7,449.3,402.2,451.2L402.2,451.2z"/>
			</g>
		</g>
		<g>
			<g>
				<path class="st0" d="M455.1,452.2c-0.1,2,0,4,0.3,6c0.1,0.8,0.6,1.5,1.5,1.5c0.7,0,1.6-0.7,1.5-1.5c-0.3-2-0.4-4-0.3-6
					C458.2,450.3,455.2,450.3,455.1,452.2L455.1,452.2z"/>
			</g>
		</g>
		<g>
			<g>
				<path class="st0" d="M504.7,446.6c0.6,1.2,1.2,2.3,1.8,3.5c0.9,1.7,3.5,0.2,2.6-1.5c-0.6-1.2-1.2-2.3-1.8-3.5
					C506.4,443.4,503.8,444.9,504.7,446.6L504.7,446.6z"/>
			</g>
		</g>
		<g>
			<g>
				<path class="st0" d="M566.4,448c0.4,2.1,0.8,4.2,1.2,6.3c0.4,1.9,3.2,1.1,2.9-0.8c-0.4-2.1-0.8-4.2-1.2-6.3
					C568.9,445.3,566,446.1,566.4,448L566.4,448z"/>
			</g>
		</g>
		<g>
			<g>
				<path class="st0" d="M580.4,438.9c0.6,5.1,1.5,10.1,2.5,15.1c0.4,1.9,3.3,1.1,2.9-0.8c-1-4.7-1.8-9.5-2.4-14.3
					C583.1,437,580.1,437,580.4,438.9L580.4,438.9z"/>
			</g>
		</g>
		<g>
			<g>
				<path class="st1" d="M563.2,453c0.2,0,0.4,0,0.6,0c0.8,0,1.5-0.7,1.5-1.5c0-0.8-0.7-1.5-1.5-1.5c-0.2,0-0.4,0-0.6,0
					c-0.8,0-1.5,0.7-1.5,1.5C561.7,452.3,562.4,453,563.2,453L563.2,453z"/>
			</g>
		</g>
		<g>
			<g>
				<path class="st1" d="M584.5,437.8c0.4,4.9,1.1,9.7,2,14.5c0.4,1.9,3.3,1.1,2.9-0.8c-0.9-4.5-1.6-9.1-1.9-13.7
					C587.3,435.9,584.3,435.9,584.5,437.8L584.5,437.8z"/>
			</g>
		</g>
		<g>
			<g>
				<path class="st2" d="M570.5,445.6c0.9,2.9,1.3,5.7,1.3,8.7c0,1.9,3,1.9,3,0c0-3.2-0.4-6.4-1.4-9.5
					C572.8,442.9,569.9,443.7,570.5,445.6L570.5,445.6z"/>
			</g>
		</g>
		<g>
			<g>
				<path class="st3" d="M575.1,442.5c1.8,4.5,0.3,9.6,2.4,14.1c0.8,1.7,3.4,0.2,2.6-1.5c-2-4.1-0.4-9.1-2.1-13.3
					C577.3,439.9,574.4,440.7,575.1,442.5L575.1,442.5z"/>
			</g>
		</g>
		<g>
			<g>
				<path d="M400,459.4c1.5-6.9,6.2-12.2,12.9-14.6c7.4-2.6,14.8-0.8,21.7,2.5c12.9,6.2,24,17,38.8,18.3c14,1.2,21.9-9.6,31.1-18
					c6.7-6.1,14.1-9,23.2-7.4c8.3,1.5,16,5.8,23.4,9.6c12.5,6.4,28.1,12.3,40.8,3.2c1.5-1.1,0.1-3.7-1.5-2.6
					c-15,10.9-32.5-1-46.5-7.6c-12.6-6-26.3-9.2-38.2,0c-5.3,4.1-9.5,9.4-14.6,13.7c-7.2,6.1-15.7,7.6-24.7,4.7
					c-15-4.8-26.4-18-42.3-20.3c-12.2-1.8-24.3,5.6-27,17.9C396.7,460.5,399.5,461.3,400,459.4L400,459.4z"/>
			</g>
		</g>
		<g>
			<g>
				<path d="M398.1,464.1c5.6-5.5,15.3,2.3,21.8,3c5,0.6,9.9-0.6,14.4-2.7c11.2-5,20.1-13.9,30.8-19.7c5.8-3.1,12.3-5.3,18.9-4.2
					c6.6,1.1,12.3,4.9,17.6,8.8c9.2,6.7,19,16.1,31.1,16.2c8.8,0.1,16.4-5.4,23.6-9.9c9.9-6.2,19.9-12.5,29.8-18.7
					c1.6-1,0.1-3.6-1.5-2.6c-8.5,5.4-17.1,10.7-25.6,16.1c-7.8,4.9-16.6,12.2-26.2,12.1c-13.5-0.1-24.2-12.7-34.9-19.3
					c-10-6.2-20.3-7.6-31.2-2.6c-11.4,5.2-20.3,14.4-31.4,20.1c-6.5,3.4-13.3,4.7-20.4,2.1c-6.3-2.3-13.3-6.3-18.9-0.8
					C394.6,463.4,396.7,465.5,398.1,464.1L398.1,464.1z"/>
			</g>
		</g>
	</g>
	<g>
		<g>
			<g>
				<path class="st2" d="M407.9,529.7c-0.3,3.1,0.5,6,1,9c0.6,3.8,0.9,7.6,1.1,11.5c0.1,1.9,3.1,1.9,3,0c-0.1-3.1-0.3-6.2-0.7-9.3
					c-0.5-3.7-1.7-7.4-1.3-11.1C411.1,527.8,408.1,527.8,407.9,529.7L407.9,529.7z"/>
			</g>
		</g>
		<g>
			<g>
				<path class="st2" d="M454.3,530c-0.8,6,1,13,1.7,19c0.2,1.9,3.2,1.9,3,0c-0.3-3-0.7-6.1-1-9.1c-0.3-2.9-1.2-6.2-0.8-9.1
					C457.4,528.9,454.6,528.1,454.3,530L454.3,530z"/>
			</g>
		</g>
		<g>
			<g>
				<path class="st2" d="M459.3,528.8c1.4,6.8,2.5,13.7,3.4,20.6c0.2,1.9,3.2,1.9,3,0c-0.8-7.2-2-14.3-3.5-21.4
					C461.8,526.2,458.9,527,459.3,528.8L459.3,528.8z"/>
			</g>
		</g>
		<g>
			<g>
				<path class="st2" d="M510.7,527c-0.1,6.3-0.2,12.6-0.1,19c0,1.9,3,1.9,3,0c-0.1-6.3-0.1-12.6,0.1-19
					C513.7,525,510.7,525,510.7,527L510.7,527z"/>
			</g>
		</g>
		<g>
			<g>
				<path class="st2" d="M534.4,535.4c0,3.2,0,6.3,0,9.5c0,1.9,3,1.9,3,0c0-3.2,0-6.3,0-9.5C537.4,533.5,534.4,533.5,534.4,535.4
					L534.4,535.4z"/>
			</g>
		</g>
		<g>
			<g>
				<path class="st1" d="M401.8,532.3c2.1,5.9,3.4,12,3.8,18.2c0.1,1.9,3.1,1.9,3,0c-0.4-6.5-1.7-12.9-3.9-19
					C404,529.7,401.1,530.4,401.8,532.3L401.8,532.3z"/>
			</g>
		</g>
		<g>
			<g>
				<path class="st1" d="M475,529.9c1.5,4.9,2.4,9.9,2.8,15c0.2,1.9,3.2,1.9,3,0c-0.4-5.4-1.4-10.6-2.9-15.8
					C477.3,527.3,474.4,528.1,475,529.9L475,529.9z"/>
			</g>
		</g>
		<g>
			<g>
				<path class="st1" d="M479.1,531.6c0.8,2.9,1.7,5.7,2.9,8.4c0.8,1.8,3.3,0.2,2.6-1.5c-1.1-2.5-1.9-5.1-2.6-7.7
					C481.5,528.9,478.6,529.7,479.1,531.6L479.1,531.6z"/>
			</g>
		</g>
		<g>
			<g>
				<path class="st1" d="M521,529.4c0.5,6.4,0.9,12.8,1.4,19.3c0.1,1.9,3.1,1.9,3,0c-0.5-6.4-0.9-12.8-1.4-19.3
					C523.9,527.5,520.9,527.5,521,529.4L521,529.4z"/>
			</g>
		</g>
		<g>
			<g>
				<path class="st0" d="M414.8,529.1c0.5,7.4,0.5,14.7,0.2,22.1c-0.1,1.9,2.9,1.9,3,0c0.3-7.4,0.3-14.7-0.2-22.1
					C417.7,527.2,414.7,527.2,414.8,529.1L414.8,529.1z"/>
			</g>
		</g>
		<g>
			<g>
				<path class="st0" d="M464.4,528.4c3.7,6.5,3.7,14.1,5.5,21.2c0.5,1.9,3.4,1.1,2.9-0.8c-1.8-7.4-1.9-15.2-5.8-21.9
					C466,525.2,463.4,526.8,464.4,528.4L464.4,528.4z"/>
			</g>
		</g>
		<g>
			<g>
				<path class="st0" d="M516.6,526.6c0.7,7.5,0.8,14.9,0.2,22.4c-0.1,1.9,2.9,1.9,3,0c0.5-7.5,0.4-15-0.2-22.4
					C519.4,524.7,516.4,524.7,516.6,526.6L516.6,526.6z"/>
			</g>
		</g>
		<g>
			<g>
				<path class="st0" d="M539.4,536.4c-0.3,1.8-0.4,3.5-0.2,5.3c0.2,1.9,3.2,1.9,3,0c-0.1-1.5-0.1-3,0.1-4.5c0.1-0.8-0.2-1.6-1-1.8
					C540.6,535.1,539.6,535.6,539.4,536.4L539.4,536.4z"/>
			</g>
		</g>
		<g>
			<g>
				<path class="st3" d="M396.4,534.9c2.3,4,3.8,8.3,4.6,12.9c0.3,1.9,3.2,1.1,2.9-0.8c-0.9-4.8-2.5-9.4-4.9-13.6
					C398,531.7,395.4,533.2,396.4,534.9L396.4,534.9z"/>
			</g>
		</g>
		<g>
			<g>
				<path class="st3" d="M425.5,536.5c0.7,2.9,1.2,5.8,1.6,8.7c0.3,1.9,3.3,1.9,3,0c-0.4-3.2-1-6.3-1.7-9.5
					C427.9,533.8,425,534.6,425.5,536.5L425.5,536.5z"/>
			</g>
		</g>
		<g>
			<g>
				<path class="st3" d="M430.5,539.7c0.4,0.7,0.8,1.4,1.2,2.1c0.4,0.7,1.4,0.9,2.1,0.5c0.7-0.4,1-1.4,0.5-2.1
					c-0.4-0.7-0.8-1.4-1.2-2.1c-0.4-0.7-1.4-0.9-2.1-0.5C430.3,538,430.1,539,430.5,539.7L430.5,539.7z"/>
			</g>
		</g>
		<g>
			<g>
				<path class="st3" d="M469.9,527.1c1.3,6.5,2.7,13.1,4,19.6c0.4,1.9,3.3,1.1,2.9-0.8c-1.3-6.5-2.7-13.1-4-19.6
					C472.4,524.4,469.5,525.2,469.9,527.1L469.9,527.1z"/>
			</g>
		</g>
		<g>
			<g>
				<path class="st3" d="M526.6,530.2c1.2,5.6,2.2,11.2,2.8,16.8c0.2,1.9,3.2,1.9,3,0c-0.7-5.9-1.7-11.8-3-17.6
					C529.1,527.5,526.2,528.3,526.6,530.2L526.6,530.2z"/>
			</g>
		</g>
		<g>
			<g>
				<path class="st3" d="M504.8,527.7c-0.4,5.2-0.3,10.3,0.3,15.5c0.2,1.9,3.2,1.9,3,0c-0.6-5.2-0.6-10.3-0.3-15.5
					C507.9,525.7,504.9,525.8,504.8,527.7L504.8,527.7z"/>
			</g>
		</g>
		<g>
			<g>
				<path class="st3" d="M500.2,530.1c0,2.8,0.2,5.6,0.6,8.4c0.2,1.9,3.2,1.9,3,0c-0.4-2.8-0.6-5.6-0.6-8.4
					C503.2,528.2,500.2,528.2,500.2,530.1L500.2,530.1z"/>
			</g>
		</g>
		<g>
			<g>
				<path class="st3" d="M450.4,533.6c-0.1,4.7,0.2,9.4,0.8,14.1c0.2,1.9,3.2,1.9,3,0c-0.6-4.7-0.9-9.3-0.8-14.1
					C453.5,531.7,450.5,531.7,450.4,533.6L450.4,533.6z"/>
			</g>
		</g>
		<g>
			<g>
				<path class="st1" d="M420.2,532.6c0.1,5.3,0.3,10.5,0.4,15.8c0,1.9,3,1.9,3,0c-0.1-5.3-0.3-10.5-0.4-15.8
					C423.2,530.7,420.2,530.7,420.2,532.6L420.2,532.6z"/>
			</g>
		</g>
		<g>
			<g>
				<path class="st0" d="M392.1,537.9c0.9,2.9,1.8,5.9,2.7,8.8c0.6,1.8,3.5,1.1,2.9-0.8c-0.9-2.9-1.8-5.9-2.7-8.8
					C394.4,535.3,391.5,536.1,392.1,537.9L392.1,537.9z"/>
			</g>
		</g>
		<g>
			<g>
				<path class="st0" d="M445,538.9c-0.1,2,0,4,0.3,6c0.1,0.8,0.6,1.5,1.5,1.5c0.7,0,1.6-0.7,1.5-1.5c-0.3-2-0.4-4-0.3-6
					C448,537,445,537,445,538.9L445,538.9z"/>
			</g>
		</g>
		<g>
			<g>
				<path class="st0" d="M494.6,533.4c0.6,1.2,1.2,2.3,1.8,3.5c0.9,1.7,3.5,0.2,2.6-1.5c-0.6-1.2-1.2-2.3-1.8-3.5
					C496.3,530.1,493.7,531.6,494.6,533.4L494.6,533.4z"/>
			</g>
		</g>
		<g>
			<g>
				<path class="st0" d="M556.2,534.7c0.4,2.1,0.8,4.2,1.2,6.3c0.4,1.9,3.2,1.1,2.9-0.8c-0.4-2.1-0.8-4.2-1.2-6.3
					C558.7,532,555.9,532.8,556.2,534.7L556.2,534.7z"/>
			</g>
		</g>
		<g>
			<g>
				<path class="st0" d="M570.2,525.6c0.6,5.1,1.5,10.1,2.5,15.1c0.4,1.9,3.3,1.1,2.9-0.8c-1-4.7-1.8-9.5-2.4-14.3
					C573,523.7,570,523.7,570.2,525.6L570.2,525.6z"/>
			</g>
		</g>
		<g>
			<g>
				<path class="st1" d="M553,539.7c0.2,0,0.4,0,0.6,0c0.8,0,1.5-0.7,1.5-1.5c0-0.8-0.7-1.5-1.5-1.5c-0.2,0-0.4,0-0.6,0
					c-0.8,0-1.5,0.7-1.5,1.5C551.6,539,552.2,539.7,553,539.7L553,539.7z"/>
			</g>
		</g>
		<g>
			<g>
				<path class="st1" d="M574.3,524.5c0.4,4.9,1.1,9.7,2,14.5c0.4,1.9,3.3,1.1,2.9-0.8c-0.9-4.5-1.6-9.1-1.9-13.7
					C577.2,522.6,574.2,522.6,574.3,524.5L574.3,524.5z"/>
			</g>
		</g>
		<g>
			<g>
				<path class="st2" d="M560.3,532.3c0.9,2.9,1.3,5.7,1.3,8.7c0,1.9,3,1.9,3,0c0-3.2-0.4-6.4-1.4-9.5
					C562.6,529.7,559.7,530.4,560.3,532.3L560.3,532.3z"/>
			</g>
		</g>
		<g>
			<g>
				<path class="st3" d="M565,529.2c1.8,4.5,0.3,9.6,2.4,14.1c0.8,1.7,3.4,0.2,2.6-1.5c-2-4.1-0.4-9.1-2.1-13.3
					C567.2,526.6,564.3,527.4,565,529.2L565,529.2z"/>
			</g>
		</g>
		<g>
			<g>
				<path d="M389.8,546.2c1.5-6.9,6.2-12.2,12.9-14.6c7.4-2.6,14.8-0.8,21.7,2.5c12.9,6.2,24,17,38.8,18.3c14,1.2,21.9-9.6,31.1-18
					c6.7-6.1,14.1-9,23.2-7.4c8.3,1.5,16,5.8,23.4,9.6c12.5,6.4,28.1,12.3,40.8,3.2c1.5-1.1,0.1-3.7-1.5-2.6
					c-15,10.9-32.5-1-46.5-7.6c-12.6-6-26.3-9.2-38.2,0c-5.3,4.1-9.5,9.4-14.6,13.7c-7.2,6.1-15.7,7.6-24.7,4.7
					c-15-4.8-26.4-18-42.3-20.3c-12.2-1.8-24.3,5.6-27,17.9C386.5,547.2,389.4,548,389.8,546.2L389.8,546.2z"/>
			</g>
		</g>
		<g>
			<g>
				<path d="M388,550.9c5.6-5.5,15.3,2.3,21.8,3c5,0.6,9.9-0.6,14.4-2.7c11.2-5,20.1-13.9,30.8-19.7c5.8-3.1,12.3-5.3,18.9-4.2
					c6.6,1.1,12.3,4.9,17.6,8.8c9.2,6.7,19,16.1,31.1,16.2c8.8,0.1,16.4-5.4,23.6-9.9c9.9-6.2,19.9-12.5,29.8-18.7
					c1.6-1,0.1-3.6-1.5-2.6c-8.5,5.4-17.1,10.7-25.6,16.1c-7.8,4.9-16.6,12.2-26.2,12.1c-13.5-0.1-24.2-12.7-34.9-19.3
					c-10-6.2-20.3-7.6-31.2-2.6c-11.4,5.2-20.3,14.4-31.4,20.1c-6.5,3.4-13.3,4.7-20.4,2.1c-6.3-2.3-13.3-6.3-18.9-0.8
					C384.5,550.1,386.6,552.2,388,550.9L388,550.9z"/>
			</g>
		</g>
	</g>
	<g>
		<g>
			<g>
				<path class="st0" d="M430.2,200c0.7,4.6,1,9.3,1.1,13.9c0,1.9,3,1.9,3,0c-0.1-4.9-0.5-9.8-1.2-14.7
					C432.9,197.3,430,198.1,430.2,200L430.2,200z"/>
			</g>
		</g>
		<g>
			<g>
				<path class="st0" d="M436.8,197.6c1.2,6.9,2.5,13.9,3.7,20.8c0.3,1.9,3.2,1.1,2.9-0.8c-1.2-6.9-2.5-13.9-3.7-20.8
					C439.4,194.9,436.5,195.7,436.8,197.6L436.8,197.6z"/>
			</g>
		</g>
		<g>
			<g>
				<path class="st0" d="M491.5,201.8c0.1,5.7,0.3,11.4,0.7,17.1c0.1,1.9,3.1,1.9,3,0c-0.4-5.7-0.7-11.4-0.7-17.1
					C494.4,199.9,491.4,199.9,491.5,201.8L491.5,201.8z"/>
			</g>
		</g>
		<g>
			<g>
				<path class="st0" d="M513.1,202.1c0.7,6.1,1.2,12.3,2.4,18.4c0.4,1.9,3.3,1.1,2.9-0.8c-1.1-5.8-1.6-11.7-2.3-17.6
					C515.9,200.2,512.9,200.2,513.1,202.1L513.1,202.1z"/>
			</g>
		</g>
		<g>
			<g>
				<path class="st0" d="M572.6,194c0,4.9,0.6,9.7,1.8,14.4c0.5,1.9,3.4,1.1,2.9-0.8c-1.1-4.5-1.7-9-1.7-13.6
					C575.6,192.1,572.6,192.1,572.6,194L572.6,194z"/>
			</g>
		</g>
		<g>
			<g>
				<path class="st1" d="M451.1,196.3c1.2,7.8,2.3,15.7,3.1,23.6c0.2,1.9,3.2,1.9,3,0c-0.9-8.2-1.9-16.3-3.2-24.4
					C453.7,193.6,450.8,194.4,451.1,196.3L451.1,196.3z"/>
			</g>
		</g>
		<g>
			<g>
				<path class="st1" d="M502.1,201.2c0.5,4.3,1.1,8.6,1.6,12.9c0.3,2.8,0,6.9,1.5,9.3c0.5,0.8,1.7,1.1,2.4,0.3
					c0-0.1,0.1-0.1,0.1-0.2c0.5-0.6,0.7-1.6,0-2.1c0,0-0.1-0.1-0.1-0.1c-1.5-1.3-3.6,0.9-2.1,2.1c0,0,0.1,0.1,0.1,0.1
					c0-0.7,0-1.4,0-2.1c0,0.1-0.1,0.1-0.1,0.2c0.8,0.1,1.6,0.2,2.4,0.3c-1.4-2.3-1.1-7.7-1.4-10.2c-0.4-3.5-0.9-7-1.3-10.5
					C504.9,199.3,501.9,199.3,502.1,201.2L502.1,201.2z"/>
			</g>
		</g>
		<g>
			<g>
				<path class="st1" d="M542.2,199.3c-0.1,4.3,0,8.5,0.4,12.8c0.2,1.9,3.2,1.9,3,0c-0.4-4.3-0.5-8.5-0.4-12.8
					C545.3,197.4,542.3,197.4,542.2,199.3L542.2,199.3z"/>
			</g>
		</g>
		<g>
			<g>
				<path class="st2" d="M443.4,197c2.4,7.9,4.5,15.9,6.1,23.9c0.4,1.9,3.3,1.1,2.9-0.8c-1.6-8.1-3.7-16.1-6.1-23.9
					C445.8,194.3,442.9,195.1,443.4,197L443.4,197z"/>
			</g>
		</g>
		<g>
			<g>
				<path class="st2" d="M483.5,204.3c1,4.1,1.8,8.3,2.6,12.5c0.3,1.9,3.2,1.1,2.9-0.8c-0.7-4.2-1.6-8.4-2.6-12.5
					C485.9,201.7,483,202.5,483.5,204.3L483.5,204.3z"/>
			</g>
		</g>
		<g>
			<g>
				<path class="st2" d="M555.6,192.8c0.8,7.2,1.7,14.3,2.5,21.5c0.2,1.9,3.2,1.9,3,0c-0.8-7.2-1.7-14.3-2.5-21.5
					C558.4,190.9,555.4,190.9,555.6,192.8L555.6,192.8z"/>
			</g>
		</g>
		<g>
			<g>
				<path class="st2" d="M579.7,195.6c0.4,2.9,0.8,5.7,1.4,8.5c0.4,1.9,3.3,1.1,2.9-0.8c-0.5-2.6-1-5.1-1.3-7.7
					C582.5,193.7,579.5,193.7,579.7,195.6L579.7,195.6z"/>
			</g>
		</g>
		<g>
			<g>
				<path class="st3" d="M458.9,203.7c1,4.1,1.9,8.1,2.9,12.2c0.4,1.9,3.3,1.1,2.9-0.8c-1-4.1-1.9-8.1-2.9-12.2
					C461.3,201.1,458.4,201.9,458.9,203.7L458.9,203.7z"/>
			</g>
		</g>
		<g>
			<g>
				<path class="st3" d="M465.1,207.6c0.6,1.3,1.1,2.6,1.7,3.9c0.5,1.1,0.8,2.4,1.9,3c0.5,0.3,1.1,0.3,1.5,0
					c0.5-0.3,0.8-0.6,0.9-1.2c0.1-0.7-0.1-1.3-0.7-1.7c0,0-0.1-0.1-0.1-0.1c-1.6-1-3.1,1.6-1.5,2.6c0,0,0.1,0.1,0.1,0.1
					c-0.2-0.6-0.5-1.1-0.7-1.7c0,0.1,0,0.1,0,0.2c0.2-0.3,0.5-0.6,0.7-0.9c-0.1,0-0.1,0.1-0.2,0.1c0.5,0,1,0,1.5,0
					c0.2,0.2,0.2,0.1-0.1-0.4c-0.1-0.3-0.3-0.6-0.4-0.9c-0.2-0.5-0.4-0.9-0.6-1.4c-0.5-1.1-0.9-2.1-1.4-3.2
					C467,204.3,464.4,205.8,465.1,207.6L465.1,207.6z"/>
			</g>
		</g>
		<g>
			<g>
				<path class="st3" d="M496.4,202.2c1.6,6.4,0.4,13,2.1,19.4c0.5,1.9,3.4,1.1,2.9-0.8c-1.8-6.3-0.5-13-2.1-19.4
					C498.8,199.5,495.9,200.3,496.4,202.2L496.4,202.2z"/>
			</g>
		</g>
		<g>
			<g>
				<path class="st3" d="M520.5,204.4c0.7,3.7,1.4,7.5,2.1,11.2c0.3,1.9,3.2,1.1,2.9-0.8c-0.7-3.7-1.4-7.5-2.1-11.2
					C523,201.7,520.1,202.5,520.5,204.4L520.5,204.4z"/>
			</g>
		</g>
		<g>
			<g>
				<path class="st3" d="M549,195.3c0.3,5.9-0.4,13,1.6,18.7c0.6,1.8,3.5,1,2.9-0.8c-1.9-5.4-1.2-12.2-1.5-17.9
					C551.9,193.4,548.9,193.4,549,195.3L549,195.3z"/>
			</g>
		</g>
		<g>
			<g>
				<path class="st3" d="M563.8,193.1c0.6,6.3,1.6,12.6,3.1,18.8c0.5,1.9,3.3,1.1,2.9-0.8c-1.4-5.9-2.4-11.9-3-18
					C566.7,191.2,563.7,191.2,563.8,193.1L563.8,193.1z"/>
			</g>
		</g>
		<g>
			<g>
				<path d="M418.5,215.7c3.6-5.5,7.3-11.1,12.6-15.1c7.5-5.7,16.1-5,24.4-1c12.7,6.2,22.6,17.1,35.6,22.7
					c10.1,4.3,22.8,5.7,32.1-1.2c4.3-3.2,7.2-7.7,10.2-12.1c4.6-6.8,9.6-11.6,17.6-14.1c16.3-5,34.7-0.9,47.8,9.8
					c1.5,1.2,3.6-0.9,2.1-2.1c-10.6-8.6-24-13.3-37.7-12.7c-6.7,0.3-13.7,1.7-19.7,4.9c-5.8,3.1-9.5,8.1-13.1,13.3
					c-4.5,6.7-9.3,12.7-17.6,14.3c-8,1.6-16.5-0.7-23.6-4.3c-13.7-7.1-24.7-20.3-40-24.1c-15.6-3.9-25.7,8.5-33.3,20.1
					C414.8,215.8,417.4,217.3,418.5,215.7L418.5,215.7z"/>
			</g>
		</g>
		<g>
			<g>
				<path d="M416,194.2c5.9,12.2,13,25.8,27.1,29.6c14.5,3.9,22.9-7.8,33.7-14.9c12.5-8.2,28.6-10.3,42.8-6.1
					c7.6,2.3,13.7,7,20.5,10.7c6.4,3.4,13.1,4.8,20.3,3.9c16.6-2.3,28.5-15,39.2-26.7c1.3-1.4-0.8-3.6-2.1-2.1
					c-12.3,13.6-29.4,31.4-49.9,25c-8.5-2.7-15.3-9.2-23.6-12.4c-6.9-2.6-14.4-3.8-21.8-3.4c-7,0.3-14,2-20.4,4.9
					c-7.6,3.5-13.1,9.2-19.7,14c-9,6.5-19.3,6-28-1c-7.3-5.9-11.5-14.8-15.5-23.1C417.7,190.9,415.1,192.4,416,194.2L416,194.2z"/>
			</g>
		</g>
	</g>
	<g>
		<g>
			<g>
				<path class="st0" d="M407.5,271.1c0.7,4.6,1,9.3,1.1,13.9c0,1.9,3,1.9,3,0c-0.1-4.9-0.5-9.8-1.2-14.7
					C410.1,268.4,407.2,269.2,407.5,271.1L407.5,271.1z"/>
			</g>
		</g>
		<g>
			<g>
				<path class="st0" d="M414.1,268.7c1.2,6.9,2.5,13.9,3.7,20.8c0.3,1.9,3.2,1.1,2.9-0.8c-1.2-6.9-2.5-13.9-3.7-20.8
					C416.6,266,413.7,266.8,414.1,268.7L414.1,268.7z"/>
			</g>
		</g>
		<g>
			<g>
				<path class="st0" d="M468.7,272.9c0.1,5.7,0.3,11.4,0.7,17.1c0.1,1.9,3.1,1.9,3,0c-0.4-5.7-0.7-11.4-0.7-17.1
					C471.7,271,468.7,271,468.7,272.9L468.7,272.9z"/>
			</g>
		</g>
		<g>
			<g>
				<path class="st0" d="M490.4,273.2c0.7,6.1,1.2,12.3,2.4,18.4c0.4,1.9,3.3,1.1,2.9-0.8c-1.1-5.8-1.6-11.7-2.3-17.6
					C493.2,271.3,490.2,271.3,490.4,273.2L490.4,273.2z"/>
			</g>
		</g>
		<g>
			<g>
				<path class="st0" d="M549.8,265.1c0,4.9,0.6,9.7,1.8,14.4c0.5,1.9,3.4,1.1,2.9-0.8c-1.1-4.5-1.7-9-1.7-13.6
					C552.8,263.2,549.8,263.2,549.8,265.1L549.8,265.1z"/>
			</g>
		</g>
		<g>
			<g>
				<path class="st1" d="M428.3,267.4c1.2,7.8,2.3,15.7,3.1,23.6c0.2,1.9,3.2,1.9,3,0c-0.9-8.2-1.9-16.3-3.2-24.4
					C430.9,264.7,428,265.5,428.3,267.4L428.3,267.4z"/>
			</g>
		</g>
		<g>
			<g>
				<path class="st1" d="M479.3,272.3c0.5,4.3,1.1,8.6,1.6,12.9c0.3,2.8,0,6.9,1.5,9.3c0.5,0.8,1.7,1.1,2.4,0.3
					c0-0.1,0.1-0.1,0.1-0.2c0.5-0.6,0.7-1.6,0-2.1c0,0-0.1-0.1-0.1-0.1c-1.5-1.3-3.6,0.9-2.1,2.1c0,0,0.1,0.1,0.1,0.1
					c0-0.7,0-1.4,0-2.1c0,0.1-0.1,0.1-0.1,0.2c0.8,0.1,1.6,0.2,2.4,0.3c-1.4-2.3-1.1-7.7-1.4-10.2c-0.4-3.5-0.9-7-1.3-10.5
					C482.1,270.4,479.1,270.4,479.3,272.3L479.3,272.3z"/>
			</g>
		</g>
		<g>
			<g>
				<path class="st1" d="M519.5,270.4c-0.1,4.3,0,8.5,0.4,12.8c0.2,1.9,3.2,1.9,3,0c-0.4-4.3-0.5-8.5-0.4-12.8
					C522.5,268.5,519.5,268.5,519.5,270.4L519.5,270.4z"/>
			</g>
		</g>
		<g>
			<g>
				<path class="st2" d="M420.7,268.1c2.4,7.9,4.5,15.9,6.1,23.9c0.4,1.9,3.3,1.1,2.9-0.8c-1.6-8.1-3.7-16.1-6.1-23.9
					C423,265.4,420.1,266.2,420.7,268.1L420.7,268.1z"/>
			</g>
		</g>
		<g>
			<g>
				<path class="st2" d="M460.7,275.5c1,4.1,1.8,8.3,2.6,12.5c0.3,1.9,3.2,1.1,2.9-0.8c-0.7-4.2-1.6-8.4-2.6-12.5
					C463.2,272.8,460.3,273.6,460.7,275.5L460.7,275.5z"/>
			</g>
		</g>
		<g>
			<g>
				<path class="st2" d="M532.9,263.9c0.8,7.2,1.7,14.3,2.5,21.5c0.2,1.9,3.2,1.9,3,0c-0.8-7.2-1.7-14.3-2.5-21.5
					C535.6,262,532.6,262,532.9,263.9L532.9,263.9z"/>
			</g>
		</g>
		<g>
			<g>
				<path class="st2" d="M557,266.7c0.4,2.9,0.8,5.7,1.4,8.5c0.4,1.9,3.3,1.1,2.9-0.8c-0.5-2.6-1-5.1-1.3-7.7
					C559.7,264.8,556.7,264.8,557,266.7L557,266.7z"/>
			</g>
		</g>
		<g>
			<g>
				<path class="st3" d="M436.1,274.8c1,4.1,1.9,8.1,2.9,12.2c0.4,1.9,3.3,1.1,2.9-0.8c-1-4.1-1.9-8.1-2.9-12.2
					C438.6,272.2,435.7,273,436.1,274.8L436.1,274.8z"/>
			</g>
		</g>
		<g>
			<g>
				<path class="st3" d="M442.4,278.7c0.6,1.3,1.1,2.6,1.7,3.9c0.5,1.1,0.8,2.4,1.9,3c0.5,0.3,1.1,0.3,1.5,0
					c0.5-0.3,0.8-0.6,0.9-1.2c0.1-0.7-0.1-1.3-0.7-1.7c0,0-0.1-0.1-0.1-0.1c-1.6-1-3.1,1.6-1.5,2.6c0,0,0.1,0.1,0.1,0.1
					c-0.2-0.6-0.5-1.1-0.7-1.7c0,0.1,0,0.1,0,0.2c0.2-0.3,0.5-0.6,0.7-0.9c-0.1,0-0.1,0.1-0.2,0.1c0.5,0,1,0,1.5,0
					c0.2,0.2,0.2,0.1-0.1-0.4c-0.1-0.3-0.3-0.6-0.4-0.9c-0.2-0.5-0.4-0.9-0.6-1.4c-0.5-1.1-0.9-2.1-1.4-3.2
					C444.2,275.4,441.6,276.9,442.4,278.7L442.4,278.7z"/>
			</g>
		</g>
		<g>
			<g>
				<path class="st3" d="M473.6,273.3c1.6,6.4,0.4,13,2.1,19.4c0.5,1.9,3.4,1.1,2.9-0.8c-1.8-6.3-0.5-13-2.1-19.4
					C476,270.6,473.1,271.4,473.6,273.3L473.6,273.3z"/>
			</g>
		</g>
		<g>
			<g>
				<path class="st3" d="M497.7,275.5c0.7,3.7,1.4,7.5,2.1,11.2c0.3,1.9,3.2,1.1,2.9-0.8c-0.7-3.7-1.4-7.5-2.1-11.2
					C500.3,272.8,497.4,273.6,497.7,275.5L497.7,275.5z"/>
			</g>
		</g>
		<g>
			<g>
				<path class="st3" d="M526.3,266.4c0.3,5.9-0.4,13,1.6,18.7c0.6,1.8,3.5,1,2.9-0.8c-1.9-5.4-1.2-12.2-1.5-17.9
					C529.2,264.5,526.2,264.5,526.3,266.4L526.3,266.4z"/>
			</g>
		</g>
		<g>
			<g>
				<path class="st3" d="M541.1,264.2c0.6,6.3,1.6,12.6,3.1,18.8c0.5,1.9,3.3,1.1,2.9-0.8c-1.4-5.9-2.4-11.9-3-18
					C543.9,262.3,540.9,262.3,541.1,264.2L541.1,264.2z"/>
			</g>
		</g>
		<g>
			<g>
				<path d="M395.7,286.8c3.6-5.5,7.3-11.1,12.6-15.1c7.5-5.7,16.1-5,24.4-1c12.7,6.2,22.6,17.1,35.6,22.7
					c10.1,4.3,22.8,5.7,32.1-1.2c4.3-3.2,7.2-7.7,10.2-12.1c4.6-6.8,9.6-11.6,17.6-14.1c16.3-5,34.7-0.9,47.8,9.8
					c1.5,1.2,3.6-0.9,2.1-2.1c-10.6-8.6-24-13.3-37.7-12.7c-6.7,0.3-13.7,1.7-19.7,4.9c-5.8,3.1-9.5,8.1-13.1,13.3
					c-4.5,6.7-9.3,12.7-17.6,14.3c-8,1.6-16.5-0.7-23.6-4.3c-13.7-7.1-24.7-20.3-40-24.1c-15.6-3.9-25.7,8.5-33.3,20.1
					C392.1,286.9,394.7,288.4,395.7,286.8L395.7,286.8z"/>
			</g>
		</g>
		<g>
			<g>
				<path d="M393.2,265.3c5.9,12.2,13,25.8,27.1,29.6c14.5,3.9,22.9-7.8,33.7-14.9c12.5-8.2,28.6-10.3,42.8-6.1
					c7.6,2.3,13.7,7,20.5,10.7c6.4,3.4,13.1,4.8,20.3,3.9c16.6-2.3,28.5-15,39.2-26.7c1.3-1.4-0.8-3.6-2.1-2.1
					c-12.3,13.6-29.4,31.4-49.9,25c-8.5-2.7-15.3-9.2-23.6-12.4c-6.9-2.6-14.4-3.8-21.8-3.4c-7,0.3-14,2-20.4,4.9
					c-7.6,3.5-13.1,9.2-19.7,14c-9,6.5-19.3,6-28-1c-7.3-5.9-11.5-14.8-15.5-23.1C395,262,392.4,263.5,393.2,265.3L393.2,265.3z"/>
			</g>
		</g>
	</g>
</g>
<g id="Слой_11">
	<g>
		<g>
			<path d="M427.5,24.3c-0.5,11.1-0.5,22.2,0,33.4c0.2,5.2,0.6,10.5,1,15.7c0.3,3-0.4,7.5,1.7,10c0.3,0.4,1,0.5,1.5,0.4
				c0.2-0.1,0.4-0.1,0.5-0.2c0.6-0.2,1.1-0.8,1.1-1.4c0-0.2,0-0.3,0-0.5c-0.1-1.9-3.1-1.9-3,0c0,0.2,0,0.3,0,0.5
				c0.4-0.5,0.7-1,1.1-1.4c1.7-0.6-0.2-11.4-0.3-13.1c-0.3-4.9-0.6-9.8-0.7-14.7c-0.3-9.5-0.2-19,0.2-28.5
				C430.6,22.4,427.6,22.4,427.5,24.3L427.5,24.3z"/>
		</g>
	</g>
	<g>
		<g>
			<path d="M428.6,30.7c16.2-3.6,32.8,5.7,37.2,22c1.1,4,1.7,8.8-0.6,12.5c-2,3.3-6,5-9.4,6.3c-7.2,2.8-14.6,5.2-22.2,6.4
				c-1.9,0.3-1.1,3.2,0.8,2.9c9.3-1.4,20.3-4.2,28.4-9.3c7.1-4.4,8-12.1,6-19.7c-4.9-17.9-23.1-28-40.9-24.1
				C425.9,28.2,426.7,31.1,428.6,30.7L428.6,30.7z"/>
		</g>
	</g>
	<g>
		<g>
			<path d="M529.1,80.5c8.3-16.7,16.2-33.5,23.7-50.6c-0.9-0.1-1.8-0.2-2.7-0.4c3.4,8.2,7.2,16.3,11.4,24.1
				c4.5,8.3,10.8,16.2,14.1,25c0.7,1.8,3.6,1,2.9-0.8c-2.9-8-8.5-15.1-12.6-22.5c-4.8-8.6-9.1-17.5-12.9-26.6
				c-0.4-1-2.2-1.7-2.7-0.4c-7.5,17.1-15.4,33.9-23.7,50.6C525.7,80.7,528.3,82.2,529.1,80.5L529.1,80.5z"/>
		</g>
	</g>
	<g>
		<g>
			<path d="M536.8,65c12.3-0.9,24.6-2.5,36.7-4.7c1.9-0.3,1.1-3.2-0.8-2.9c-11.9,2.2-23.9,3.7-35.9,4.6
				C534.9,62.1,534.9,65.1,536.8,65L536.8,65z"/>
		</g>
	</g>
	<g>
		<g>
			<path d="M479.8,80.2c0-8.7-0.1-17.3-0.1-26c0-8.9-0.5-17.9,1.2-26.7c-0.9,0.1-1.8,0.2-2.7,0.4c9.5,17.3,20.9,33.4,34,48.2
				c0.9,1,2.5,0.2,2.6-1.1c0.2-16-0.2-31.9-1.3-47.8c-0.1-1.9-3.1-1.9-3,0c1.1,15.9,1.5,31.9,1.3,47.8c0.9-0.4,1.7-0.7,2.6-1.1
				c-12.9-14.6-24.1-30.5-33.6-47.6c-0.6-1.1-2.5-0.9-2.7,0.4c-1.6,8.4-1.3,17-1.3,25.5c0.1,9.3,0.1,18.7,0.2,28
				C476.9,82.2,479.9,82.2,479.8,80.2L479.8,80.2z"/>
		</g>
	</g>
	<g>
		<g>
			<path d="M314.6,71.8c23.8,0.9,47.5-1.3,70.7-6.6c1.5-0.3,1.4-2.5,0-2.9c-4.5-1.4-9-2.3-13.6-2.9c0,1,0,2,0,3
				c11.1,0,22.2,0.6,33.3,1.9c-0.1-1-0.3-2-0.4-2.9c-9.2,2-17.4,6.2-24.5,12.4c-1.5,1.3,0.7,3.4,2.1,2.1c6.7-5.8,14.5-9.7,23.2-11.6
				c1.8-0.4,1.2-2.8-0.4-2.9c-11-1.3-22.1-1.9-33.3-1.9c-2,0-1.9,2.8,0,3c4.4,0.5,8.6,1.5,12.8,2.8c0-1,0-1.9,0-2.9
				c-23,5.2-46.4,7.4-70,6.5C312.7,68.7,312.7,71.7,314.6,71.8L314.6,71.8z"/>
		</g>
	</g>
	<g>
		<g>
			<path d="M393.4,110.3c-3.5-7.5-14.1-6.5-19.2-1.1c-3.7,3.9-4.5,9.8-4.5,15c0.1,7.8,1.6,15.6,2.3,23.4c3.2,33.2,3.6,66.5,2.9,99.8
				c-0.4,19.3-1.1,38.6-1.8,57.9c0,0.6,0.5,1.4,1.1,1.4c7.1,1,13.9,0.5,20.7-1.7c1.8-0.6,1-3.5-0.8-2.9c-6.3,2-12.6,2.6-19.1,1.7
				c0.4,0.5,0.7,1,1.1,1.4c1.4-36.6,2.7-73.2,1.7-109.8c-0.5-18.3-1.6-36.5-3.6-54.7c-0.8-7.8-3.2-16.9-0.7-24.6
				c2.1-6.4,13-12.9,17.1-4.3C391.6,113.6,394.2,112.1,393.4,110.3L393.4,110.3z"/>
		</g>
	</g>
	<g>
		<g>
			<path d="M585.5,101.1c7.2,3.2,14.6,4.7,22.5,4.5c-0.5-0.5-1-1-1.5-1.5c-3.9,36-5.8,72.1-5.8,108.3c0,17.8,0.5,35.5,1.4,53.2
				c0.2,4.6,0.5,9.2,0.8,13.8c0.3,5,1.1,10.5-2.8,14.5c-6.3,6.3-17.2,8.3-25.7,8.2c-1.9,0-1.9,3,0,3c8.2,0.2,16.5-1.7,23.5-5.9
				c6.4-3.8,8.5-8.8,8.2-16.1c-0.8-19.6-2.2-39.1-2.4-58.8c-0.5-40.1,1.5-80.2,5.7-120.1c0.1-0.8-0.8-1.5-1.5-1.5
				c-7.3,0.2-14.3-1.2-21-4.1C585.3,97.7,583.7,100.3,585.5,101.1L585.5,101.1z"/>
		</g>
	</g>
	<g>
		<g>
			<path d="M377.4,418.2c-3.6,0.6-7.3,1.1-10.9,1.7c-2.3,0.4-5.1,0.4-7.2,1.3c-4,1.8-3.1,5.9-2.5,9.5c2.5,14.7,4.9,29.5,6.9,44.3
				c3.9,29,6.5,58.2,8,87.5c0.1,1,0.9,1.6,1.9,1.4c10.1-1.7,20.2-3.3,30.4-5c1.9-0.3,1.1-3.2-0.8-2.9c-10.1,1.7-20.2,3.3-30.4,5
				c0.6,0.5,1.3,1,1.9,1.4c-1.3-26.1-3.6-52.1-6.8-78c-1.5-12.1-3.2-24.2-5.2-36.2c-0.5-3.2-1-6.4-1.6-9.7c-0.5-3-1.7-6.6-1.7-9.6
				c0-6.1,4.4-5.6,8.7-6.3c3.3-0.5,6.7-1,10-1.6C380.1,420.8,379.3,417.9,377.4,418.2L377.4,418.2z"/>
		</g>
	</g>
	<g>
		<g>
			<path d="M578.9,401.5c6.2,0,12.3,0.1,18.5,0.1c-0.5-0.5-1-1-1.5-1.5c-0.7,28.5,0.5,57.1,3.7,85.4c1.5,13.7,3.5,27.3,6,40.8
				c0.6,3.2,1.2,6.3,1.8,9.5c0.7,3.6,2.6,8.2,0.7,11.4c-1.9,3.2-6.8,3.5-10.4,4.4c-3.7,1-7.4,2-11.1,3c-1.9,0.5-1.1,3.4,0.8,2.9
				c6.9-1.8,14.9-2.9,21.4-5.8c4.2-1.9,3.7-5.1,2.9-9.1c-2.9-16.1-6-32.1-8-48.4c-4-31.2-5.5-62.7-4.7-94.1c0-0.8-0.7-1.5-1.5-1.5
				c-6.2,0-12.3-0.1-18.5-0.1C576.9,398.5,576.9,401.5,578.9,401.5L578.9,401.5z"/>
		</g>
	</g>
</g>
</svg>
