<?xml version="1.0" encoding="utf-8"?>
<!-- Generator: Adobe Illustrator 22.1.0, SVG Export Plug-In . SVG Version: 6.00 Build 0)  -->
<svg version="1.1" xmlns="http://www.w3.org/2000/svg" xmlns:xlink="http://www.w3.org/1999/xlink" x="0px" y="0px"
	 viewBox="0 0 1134.3 623.6" style="enable-background:new 0 0 1134.3 623.6;" xml:space="preserve">
<style type="text/css">
	.st0{fill:#29ABE2;stroke:#29ABE2;stroke-miterlimit:10;}
	.st1{opacity:0.82;}
	.st2{fill:#FF0000;}
</style>
<g id="Слой_8">
</g>
<g id="Слой_16">
	<path class="st0" d="M1031.7,340.7"/>
	<path class="st0" d="M1032.2,340.2"/>
	<path class="st0" d="M1033.3,339.6"/>
	<path class="st0" d="M1058.7,291.6"/>
	<polygon class="st0" points="762.8,321.8 713,321.8 713,340.2 734.3,340.2 758.6,340.2 762.8,340.2 	"/>
	<polyline class="st0" points="800.7,340.5 800.7,312.1 784.6,312 773.6,312 762.1,321.8 763.5,340.4 	"/>
	<polyline class="st0" points="853.4,292.3 838.3,293.4 826.5,303.6 811.2,304.6 799.5,312.1 800.7,340.2 820.6,340.2 834.8,340.2 
		847.5,340.2 853.4,340.2 853.4,292.3 	"/>
	<polyline class="st0" points="891,253 882.5,263.2 874.5,272.8 863.4,283.6 853.4,292.3 853.4,340.2 873,340.2 892.7,339.5 	"/>
	<polyline class="st0" points="892.7,380.6 930.2,380.6 930.2,340.2 897.7,340.2 891.7,340.2 	"/>
	<polyline class="st0" points="891.3,254.3 928.9,254.3 928.9,203.3 896.4,203.3 890.4,203.3 	"/>
	<polyline class="st0" points="929.4,254.3 966.9,254.3 966.9,214.5 953.8,214.7 940.5,203.3 928.4,203.3 	"/>
	<polyline class="st0" points="967.3,254.3 1004.8,254.3 1004.8,214.7 972.3,214.7 966.3,214.7 	"/>
	<polyline class="st0" points="1004.8,254.3 1032.9,254.3 1032.2,203.3 1012.8,203.3 1003.8,214.7 	"/>
	<polyline class="st0" points="930.1,380.8 939.7,369.3 952,369 967.2,360.4 966.9,340.2 934.4,340.2 928.4,340.2 	"/>
	<polyline class="st0" points="967.1,340.2 973.1,340.2 1005.6,340.2 1005.6,380.8 991.5,380.8 978.8,370.2 967.2,360.4 	"/>
	<polyline class="st0" points="1005.6,380.8 1016.3,371.3 1033.3,371.9 1033.3,339.6 1011,340.2 1005,340.2 	"/>
	<g>
		<g>
			<path d="M1009,335.5c-8.4-23.7-11.2-49.3-2.8-73.4c0.6-1.7-1.8-2.4-2.7-1.2c-2,2.8-4.1,5.5-6.1,8.3c0.9,0.5,1.7,1,2.6,1.5
				c1.6-3.6,3.6-6.6,6.3-9.4c-0.9-0.4-1.7-0.7-2.6-1.1c0.4,4.2,0.5,8.4,0.3,12.6c-0.1,1.9,2.9,1.9,3,0c0.2-4.2,0.1-8.4-0.3-12.6
				c-0.1-1.2-1.6-2.1-2.6-1.1c-2.8,3-5.1,6.3-6.8,10.1c-0.8,1.8,1.4,3.1,2.6,1.5c2-2.8,4.1-5.5,6.1-8.3c-0.9-0.4-1.8-0.8-2.7-1.2
				c-8.6,24.5-5.7,50.9,2.8,75C1006.8,338.1,1009.7,337.3,1009,335.5L1009,335.5z"/>
		</g>
	</g>
</g>
<g id="Time_scale">
	<g>
		<g>
			<path d="M695.6,409.9c99.6-4,199.4-5.1,299.1-3.3c28.2,0.5,56.3,1.3,84.4,2.3c1.5,0.1,2-2.1,0.8-2.8c-4.5-2.5-9.2-4.2-14.2-5.1
				c-1.9-0.3-2.7,2.5-0.8,2.9c8.5,1.7,16.9,3.4,25.4,5.1c0-1,0-1.9,0-2.9c-7.8,2.3-15.6,4.6-23.4,6.9c-1.8,0.5-1.1,3.4,0.8,2.9
				c7.8-2.3,15.6-4.6,23.4-6.9c1.3-0.4,1.5-2.6,0-2.9c-8.5-1.7-16.9-3.4-25.4-5.1c-0.3,1-0.5,1.9-0.8,2.9c4.8,0.9,9.2,2.4,13.5,4.8
				c0.3-0.9,0.5-1.9,0.8-2.8c-99.6-3.5-199.4-4.1-299.1-1.7c-28.1,0.7-56.3,1.6-84.4,2.7C693.7,407,693.7,410,695.6,409.9
				L695.6,409.9z"/>
		</g>
	</g>
	<g>
		<g>
			<g>
				<path d="M877.8,413.3c0.7,10.6,2.2,21,4.3,31.4c0.4,1.9,3.3,1.1,2.9-0.8c-2.1-10.1-3.5-20.3-4.2-30.6
					C880.6,411.4,877.6,411.3,877.8,413.3L877.8,413.3z"/>
			</g>
		</g>
		<g>
			<g>
				<path d="M863.4,417c10.8-1.8,21.5-4,32.1-6.8c1.9-0.5,1.1-3.4-0.8-2.9c-10.6,2.8-21.3,5-32.1,6.8
					C860.7,414.4,861.5,417.3,863.4,417L863.4,417z"/>
			</g>
		</g>
		<g>
			<g>
				<path d="M892.5,427.6c0.4,4.1,1.3,8.1,2.7,11.9c0.6,1.8,3.5,1,2.9-0.8c-1.3-3.6-2.2-7.3-2.6-11.1
					C895.3,425.7,892.3,425.6,892.5,427.6L892.5,427.6z"/>
			</g>
		</g>
		<g>
			<g>
				<path d="M893.6,422.1c0,0.3,0.1-0.4,0-0.1c0.1-0.2,0.1-0.2,0-0.1c0.1-0.1,0.1-0.1,0.2-0.2c0.6-0.5,0.5-1.6,0-2.1
					c-0.6-0.6-1.5-0.5-2.1,0c-0.8,0.6-1.1,1.5-1.2,2.5c0,0.8,0.7,1.5,1.5,1.5C892.9,423.6,893.6,423,893.6,422.1L893.6,422.1z"/>
			</g>
		</g>
		<g>
			<g>
				<path d="M900.5,427.6c1.4,4.8,3.3,9.3,5.7,13.7c0.9,1.7,3.4,0.2,2.6-1.5c-1-1.9-3.6-13.2,1.2-8.6c1.8,1.8,3,6.5,4,8.8
					c0.7,1.6,3.1,0.4,2.7-1.2c-0.4-1.7-0.9-3.3-1.4-4.9c-0.5-1.5-0.8-3-0.9-4.6c1.5-4.2,3.3-5.1,5.5-2.8c3.3,2.1,4.8,7.4,6.5,10.9
					c0.8,1.7,3.4,0.2,2.6-1.5c-2.8-5.9-4.5-14.5-12.6-13.5c-8.4,1.1-3.7,12.4-2.7,17.2c0.9-0.4,1.8-0.8,2.7-1.2
					c-1.5-3.2-4.6-15.2-10.4-11.8c-4.6,2.7-1.7,11.1,0.1,14.6c0.9-0.5,1.7-1,2.6-1.5c-2.3-4.2-4.1-8.4-5.4-13
					C902.9,425,900,425.8,900.5,427.6L900.5,427.6z"/>
			</g>
		</g>
		<g>
			<g>
				<path d="M931.3,432.9c4.3,0,9.1-2.8,8.3-7.8c-0.7-4.3-5.7-5.8-9-3.2c-4.2,3.3-2.4,8.9-0.1,12.7c2.8,4.8,8.8,3.9,13.1,1.7
					c1.7-0.9,0.2-3.5-1.5-2.6c-2.1,1-5.5,2.2-7.7,0.9c-1.8-1.1-3.3-5.2-3.3-7.1c0-1.3,0.6-2.8,1.8-3.4c1.6-0.9,3.8-0.2,3.9,1.8
					c0.3,3-3,4-5.4,4.1C929.4,429.9,929.4,432.9,931.3,432.9L931.3,432.9z"/>
			</g>
		</g>
	</g>
	<g>
		<g class="st1">
			<g>
				<path d="M667,411.5c-0.5,9.7-0.9,19.5-1.4,29.2c-0.1,1.9,2.9,1.9,3,0c0.5-9.7,0.9-19.5,1.4-29.2
					C670.1,409.6,667.1,409.6,667,411.5L667,411.5z"/>
			</g>
		</g>
		<g>
			<g class="st1">
				<g>
					<path d="M670.2,414.1c-0.1-1.4,5-0.4,5.3-0.3c2.1,0.9,2.9,2.8,2.4,5c-0.9,3.8-5.1,5.3-8.5,6.2c-1.9,0.5-1.1,3.4,0.8,2.9
						c5.8-1.5,13.5-6.4,10.1-13.5c-1.4-3-4.7-4-7.8-4c-2.3,0-5.6,0.8-5.4,3.7C667.4,416.1,670.4,416.1,670.2,414.1L670.2,414.1z"/>
				</g>
			</g>
			<g class="st1">
				<g>
					<path d="M689.5,428.6c-1-3.9-5.5-4.4-8.5-2.3c-3.4,2.4-6.5,7.1-5.3,11.3c1.1,3.8,5.2,5.1,8.6,3.4c4.7-2.3,5-7.8,4.8-12.4
						c-1,0-2,0-3,0c0.3,4.5,2.3,8.2,6,10.9c1.6,1.1,3.1-1.5,1.5-2.6c-2.7-2-4.3-4.9-4.5-8.3c-0.1-1.9-3.1-1.9-3,0
						c0.1,2.1,0.2,4.4-0.5,6.5c-0.8,2.3-3.5,4.8-5.9,3c-2.2-1.6-1.1-4.6,0.2-6.5c0.9-1.3,5.6-6.4,6.6-2.3
						C687.1,431.2,690,430.5,689.5,428.6L689.5,428.6z"/>
				</g>
			</g>
			<g class="st1">
				<g>
					<path d="M699.3,424.1c-3.5-3.1-9.1,0.6-7.3,5.1c0.9,2.2,3.2,3.6,5.5,3.5c0.9,0,4.4-1.5,5.1-0.8c2.6,2.5-4.9,3.4-5.6,3.4
						c-1.9,0-1.9,3,0,3c2.7,0.1,5.7-0.5,7.7-2.5c1.5-1.4,2.2-3.7,0.9-5.4c-1.4-1.7-3.7-1.8-5.7-1.3c-1.7,0.4-3.9,1.4-5-0.7
						c-0.8-1.4,0.9-3.4,2.3-2.2C698.6,427.5,700.7,425.3,699.3,424.1L699.3,424.1z"/>
				</g>
			</g>
			<g class="st1">
				<g>
					<path d="M709,415.6c-0.4,3.4-0.7,6.7-0.7,10.1c0,2.2,0.1,4.6,1.5,6.4c3.2,4,8.3,1.1,11.2-1.5c1.5-1.2-0.7-3.4-2.1-2.1
						c-1,0.9-3.2,2.9-4.7,2.6c-2.8-0.6-2.9-3.1-2.9-5.3c0-3.4,0.3-6.8,0.7-10.1C712.2,413.7,709.2,413.7,709,415.6L709,415.6z"/>
				</g>
			</g>
		</g>
		<g class="st1">
			<g>
				<path d="M702.4,427.1c5.6-2,11.2-3.7,17-5c1.9-0.4,1.1-3.3-0.8-2.9c-5.8,1.3-11.4,3-17,5C699.8,424.8,700.6,427.7,702.4,427.1
					L702.4,427.1z"/>
			</g>
		</g>
	</g>
</g>
<g id="Now_line">
	<g>
		<g>
			<g>
				<path class="st2" d="M1029.6,202.9c1.1,10.5,1.5,20.9,1.1,31.5c-0.1,1.9,2.9,1.9,3,0c0.4-10.5,0-21-1.1-31.5
					C1032.4,201,1029.4,201,1029.6,202.9L1029.6,202.9z"/>
			</g>
		</g>
		<g>
			<g>
				<path class="st2" d="M1028.8,256.2c1,9,1.7,18,2.1,27c0.1,1.9,3.1,1.9,3,0c-0.4-9-1.1-18-2.1-27
					C1031.5,254.3,1028.5,254.3,1028.8,256.2L1028.8,256.2z"/>
			</g>
		</g>
		<g>
			<g>
				<path class="st2" d="M1034,298.6c0-0.2,0-0.3,0-0.5c0-0.7-0.5-1.2-1.1-1.4c-0.2-0.1-0.3-0.1-0.5-0.2c-0.6-0.2-1.4,0.1-1.7,0.7
					c-1.5,2.5-0.5,6.7-0.4,9.5c0.1,5,0.2,10,0.3,15c0,1.9,3,1.9,3,0c-0.1-4.1-0.2-8.1-0.3-12.2c0-2.3-1.2-8.8-0.1-10.8
					c-0.6,0.2-1.1,0.5-1.7,0.7c0.2,0.1,0.3,0.1,0.5,0.2c-0.4-0.5-0.7-1-1.1-1.4c0,0.2,0,0.3,0,0.5
					C1030.9,300.6,1033.9,300.6,1034,298.6L1034,298.6z"/>
			</g>
		</g>
		<g>
			<g>
				<path class="st2" d="M1031.8,341c-0.1,10.1-0.1,20.2-0.2,30.3c0,1.9,3,1.9,3,0c0.1-10.1,0.1-20.2,0.2-30.3
					C1034.8,339,1031.8,339,1031.8,341L1031.8,341z"/>
			</g>
		</g>
		<g>
			<g>
				<path class="st2" d="M1030.2,386.9c1.6,7.3,2.5,14.7,2.5,22.2c0,1.9,3,1.9,3,0c0-7.8-0.9-15.4-2.6-23
					C1032.7,384.2,1029.8,385,1030.2,386.9L1030.2,386.9z"/>
			</g>
		</g>
		<g>
			<g>
				<path class="st2" d="M1033.5,420.1c-0.1,0-0.2-0.1-0.3-0.1c0.4,0.5,0.7,1,1.1,1.4c0-0.2,0.1-0.3,0.1-0.5c-0.3,0.3-0.7,0.7-1,1
					c-1.5,0.6,1,11.8,1.3,13.7c0.3,1.9,3.2,1.1,2.9-0.8c-0.4-2.6-0.7-5.1-1.1-7.7c-0.3-2.1-0.2-5-1.2-6.9c-1.2-2.1-4.2-1.5-3.9,1.1
					c0.1,0.7,0.4,1.2,1.1,1.4c0.1,0,0.2,0.1,0.3,0.1C1034.5,423.6,1035.3,420.8,1033.5,420.1L1033.5,420.1z"/>
			</g>
		</g>
	</g>
	<g>
		<g>
			<g>
				<g>
					<path d="M1041.4,208.8c5.2,10.6,10.1,21.3,14.6,32.1c0.6,1.4,2.4,1.5,2.9,0c4.5-12.4-2.4-25,0.3-37.5c0.4-1.9-2.5-2.7-2.9-0.8
						c-2.7,12.5,4.2,25.3-0.3,37.5c1,0,1.9,0,2.9,0c-4.7-11.1-9.6-22-14.9-32.8C1043.1,205.5,1040.6,207,1041.4,208.8L1041.4,208.8z
						"/>
				</g>
			</g>
			<g>
				<g>
					<path d="M1065.8,227.9c-1,3.1-2,6.6-0.3,9.7c1.2,2.2,3.5,3.6,6,3.9c5.4,0.6,9.4-4.1,9.2-9.2c-0.2-5.7-5.8-10-11.3-9.8
						c-5.3,0.2-10,5.4-6.7,10.4c1.1,1.6,3.6,0.1,2.6-1.5c-2.7-4.2,3-6.5,6.4-5.7c3.5,0.9,6.4,3.9,6.1,7.6c-0.3,3.3-3,6-6.4,5.1
						c-4.7-1.2-3.6-6.3-2.4-9.7C1069.3,226.8,1066.4,226,1065.8,227.9L1065.8,227.9z"/>
				</g>
			</g>
			<g>
				<g>
					<path d="M1083.8,227.9c0.3,4.9,0.6,9.8,0.9,14.6c0.1,1.6,1.9,1.9,2.8,0.8c1.9-2.5,3.7-5,5.6-7.5c-0.9,0-1.7,0-2.6,0
						c1.5,2.6,3,5.2,4.5,7.8c0.7,1.2,2.3,0.8,2.7-0.4c1.8-5.6,2.9-11.3,3.1-17.1c0.1-1.9-2.9-1.9-3,0c-0.2,5.6-1.2,11-3,16.3
						c0.9-0.1,1.8-0.2,2.7-0.4c-1.5-2.6-3-5.2-4.5-7.8c-0.6-1.1-1.9-0.9-2.6,0c-1.9,2.5-3.7,5-5.6,7.5c0.9,0.3,1.9,0.5,2.8,0.8
						c-0.3-4.9-0.6-9.8-0.9-14.6C1086.7,226,1083.7,226,1083.8,227.9L1083.8,227.9z"/>
				</g>
			</g>
		</g>
		<g>
			<g>
				<path d="M1040.2,209.3c0.7,11,1.3,22,2,33c0.1,1.9,3.1,1.9,3,0c-0.7-11-1.3-22-2-33C1043.1,207.4,1040.1,207.3,1040.2,209.3
					L1040.2,209.3z"/>
			</g>
		</g>
	</g>
</g>
<g id="Green_background">
</g>
<g id="Grass">
</g>
<g id="Main_bunnies">
</g>
<g id="Слой_10">
</g>
<g id="Слой_9">
</g>
<g id="Слой_11">
	<g>
		<g>
			<path d="M707.9,17.9c0.1,19.3,0.5,38.7,1.3,58c0.1,1.9,3.1,1.9,3,0c-0.7-19.3-1.1-38.6-1.3-58C710.9,16,707.9,16,707.9,17.9
				L707.9,17.9z"/>
		</g>
	</g>
	<g>
		<g>
			<path d="M710.4,19.8c8.7-3.7,18.2-1.8,27,0.3c4.4,1,8.2,2.3,10.5,6.6c1.9,3.5,2.7,7.7,3.1,11.6c0.5,4.5,0.5,9.1-0.3,13.6
				c-1,5.6-3.4,8.6-8.3,11.3c-8.1,4.4-16.9,7-26.1,7.9c-1.9,0.2-1.9,3.2,0,3c10.8-1,23.1-4.1,31.8-10.9c7.3-5.6,6.9-18.2,5.8-26.4
				c-1.3-9.4-4.6-16.8-14.3-19.3c-10.1-2.6-20.9-4.5-30.7-0.3C707.1,17.9,708.6,20.5,710.4,19.8L710.4,19.8z"/>
		</g>
	</g>
	<g>
		<g>
			<path d="M766.5,66c5.9-0.4,17.4-3.4,13.9-12c-2.5-6.2-11-5-15.4-1.8c-5.7,4.2-8.6,12.5-5.9,19.1c3.5,8.8,16.6,6,23.7,4.3
				c1.9-0.5,1.1-3.4-0.8-2.9c-4.6,1.1-9.7,1.9-14.5,1.4c-7.3-0.8-7.5-9.5-4.8-14.6c1.9-3.7,5.8-7.1,10.2-6.9c4.4,0.2,5.9,4.4,3,7.6
				c-2.3,2.5-6.2,2.7-9.4,2.9C764.6,63.1,764.6,66.1,766.5,66L766.5,66z"/>
		</g>
	</g>
	<g>
		<g>
			<path d="M793.6,53.8c-0.5,7-0.9,14-1.1,21.1c-0.1,2,2.8,1.9,3,0c0.8-5.9,1.5-16.7,7.5-19.8c9.4-4.9,9,11.2,9.5,16.2
				c0.2,1.9,2.8,1.9,3,0c0.3-3.1,0.6-6.2,1-9.3c0.3-2.7,0.2-4.6,2.1-6.7c2-2.3,4.5-2.6,7.1-0.4c5.1,4.3,3,13,2.7,18.7
				c-0.1,1.9,2.9,1.9,3,0c0.4-7.5,2.3-22.1-8.8-23.2c-10.8-1-9.3,13.9-10,20.8c1,0,2,0,3,0c-0.6-6.7-0.1-21.8-10.8-19.9
				c-9.9,1.7-11.1,15.7-12.1,23.5c1,0,2,0,3,0c0.3-7,0.7-14.1,1.1-21.1C796.7,51.8,793.7,51.8,793.6,53.8L793.6,53.8z"/>
		</g>
	</g>
	<g>
		<g>
			<path d="M840.3,65.9c1.8,2.7-0.9,6.6,3.5,7.6c3.3,0.8,8.6-0.6,11.5-1.9c6.3-2.9,9.5-10.4,6.9-16.9c-2.5-6.5-10.6-9.7-17-7.1
				c-6.7,2.7-9.5,10.9-6.8,17.4c0.7,1.8,3.6,1,2.9-0.8c-2.1-5.1-0.4-11.4,4.9-13.7c5.3-2.3,12.2,0.7,13.6,6.5
				c1.5,5.9-2.4,11.1-8,12.7c-2.6,0.7-7.1,2.2-8.1-1.3c-0.4-1.5,0.1-2.5-0.9-4C841.8,62.8,839.2,64.3,840.3,65.9L840.3,65.9z"/>
		</g>
	</g>
	<g>
		<g>
			<path d="M891,63.8c1.4-6.1-3.3-11.8-9.5-12.4c-7.1-0.6-13.2,5.8-15.1,12.2c-2,6.9,4.3,11.1,10.7,10.1c7.3-1.2,11-8.3,9.3-15.1
				c-0.5-1.9-3.3-1.1-2.9,0.8c2.7,11,3,22.4,0.8,33.6c-0.5,2.3-1,4.6-1.7,6.9c-1,3.2-1.9,6.9-7.8,4.2c-0.9-0.4-2.6-1.9-3.2-2.8
				c-3.4-5.3,4.6-12.6,8.5-15.2c1.6-1.1,0.1-3.7-1.5-2.6c-4.6,3.1-12.3,10.4-10.9,16.8c1,4.6,8.3,9.7,12.9,7.6
				c6-2.8,6.7-14.2,7.4-19.8c1.3-9.9,0.6-19.8-1.7-29.5c-1,0.3-1.9,0.5-2.9,0.8c1.2,4.7-0.9,9.8-5.8,11.1c-6.2,1.7-10.2-3.5-7.1-9
				c1.7-3.2,4.8-6.3,8.5-6.9c4.9-0.9,10.2,3.2,9,8.5C887.7,64.8,890.6,65.6,891,63.8L891,63.8z"/>
		</g>
	</g>
	<g>
		<g>
			<path d="M901.1,75.3c0.7-8.4,1.4-16.9,2.2-25.3c-0.6,0.5-1.3,1-1.9,1.4c4.1,1.4,8.1,1.8,12.5,1.5c1.9-0.2,1.9-3.2,0-3
				c-4,0.3-7.8-0.1-11.7-1.4c-1-0.3-1.8,0.5-1.9,1.4c-0.7,8.4-1.4,16.9-2.2,25.3C897.9,77.2,900.9,77.2,901.1,75.3L901.1,75.3z"/>
		</g>
	</g>
	<g>
		<g>
			<path d="M938.9,63.6c1.3-6-2.9-12-9.1-12.6c-6.9-0.7-13.5,5.3-14.6,11.9c-2.7,16.3,27,15,23.1-2.6c-0.4-1.8-2.7-1.1-2.9,0.4
				c-0.8,6.2,0.6,12.1,4.1,17.3c1.1,1.6,3.7,0.1,2.6-1.5c-3.2-4.8-4.4-10.1-3.7-15.8c-1,0.1-2,0.3-2.9,0.4
				c3,13.8-21.2,13.5-16.9,0.7c1.4-4,5.4-7.7,9.8-7.8c4.7-0.1,8.6,4.2,7.6,8.9C935.5,64.7,938.4,65.5,938.9,63.6L938.9,63.6z"/>
		</g>
	</g>
	<g>
		<g>
			<path d="M947.2,58.5c0.3,13.2,0.5,26.4,0.8,39.7c0,1.9,3,1.9,3,0c-0.3-13.2-0.5-26.4-0.8-39.7C950.2,56.5,947.2,56.5,947.2,58.5
				L947.2,58.5z"/>
		</g>
	</g>
	<g>
		<g>
			<path d="M948.2,58c0.9-6.4,12.1-5.4,15.4-1.6c3.1,3.6,0.5,8.3-3,10.5c-3,1.9-6.8,2.3-10.3,2.7c-1.9,0.2-1.9,3.2,0,3
				c5.6-0.7,11.9-1.5,15.5-6.4c2.5-3.3,3-7.7,0.5-11.1c-4.4-5.9-19.7-7-21,2.2C945.1,59.1,948,59.9,948.2,58L948.2,58z"/>
		</g>
	</g>
	<g>
		<g>
			<path d="M993.1,54.1c-1.1,6.4-1,12.8,0.3,19.1c0.4,1.9,3.3,1.1,2.9-0.8c-1.1-5.8-1.2-11.7-0.3-17.5
				C996.3,53,993.4,52.2,993.1,54.1L993.1,54.1z"/>
		</g>
	</g>
	<g>
		<g>
			<path d="M992.6,35.5c0.3-0.2,0.5-0.5,0.8-0.7c0.6-0.5,0.6-1.6,0-2.1c-0.6-0.6-1.5-0.5-2.1,0c-0.3,0.2-0.5,0.5-0.8,0.7
				c-0.6,0.5-0.6,1.6,0,2.1C991,36.1,992,36,992.6,35.5L992.6,35.5z"/>
		</g>
	</g>
	<g>
		<g>
			<path d="M1021.8,60.8c1.9-4.3-0.7-9.2-5.4-10c-6.1-1.1-12.8,4.7-14.7,10.2c-4.6,13.1,15.3,19.6,24.6,15.3
				c1.8-0.8,0.2-3.4-1.5-2.6c-5.9,2.7-15.3,0.5-19.2-5c-2.5-3.5-1.4-7.5,1.3-10.6c1.2-1.4,2.6-2.7,4.3-3.5c2.8-1.4,10.6-1.1,8,4.6
				C1018.4,61,1021,62.5,1021.8,60.8L1021.8,60.8z"/>
		</g>
	</g>
	<g>
		<g>
			<g>
				<path d="M935,96.1c2.3,14.4,2.8,28.9,1.7,43.5c1,0,2,0,3,0c0-0.7,0-1.4,0.1-2.1c0.1-1.9-2.9-1.9-3,0c0,0.7,0,1.4-0.1,2.1
					c-0.1,1.9,2.9,1.9,3,0c1.1-14.8,0.5-29.6-1.8-44.3C937.6,93.4,934.7,94.2,935,96.1L935,96.1z"/>
			</g>
		</g>
		<g>
			<g>
				<path d="M941,122.4c0.5-3.9,4.9-6.2,8.3-3.9c2.1,1.5,2.6,4.1,3,6.5c0.6,3.6,0.8,7,3.6,9.7c1.4,1.3,3.5-0.8,2.1-2.1
					c-4.7-4.6-1-13.2-7.6-16.8c-5.6-3.1-11.5,0.8-12.3,6.7C937.8,124.3,940.8,124.3,941,122.4L941,122.4z"/>
			</g>
		</g>
		<g>
			<g>
				<path d="M966.6,115.4c-0.9,7.1-0.6,14.1,0.9,21.1c0.4,1.9,3.3,1.1,2.9-0.8c-1.5-6.7-1.7-13.5-0.8-20.3
					C969.8,113.4,966.8,113.5,966.6,115.4L966.6,115.4z"/>
			</g>
		</g>
		<g>
			<g>
				<path d="M967.1,107.6c0.3,0,0.5,0,0.8,0c0.8,0,1.5-0.7,1.5-1.5c0-0.8-0.7-1.5-1.5-1.5c-0.3,0-0.5,0-0.8,0
					c-0.8,0-1.5,0.7-1.5,1.5C965.6,107,966.3,107.6,967.1,107.6L967.1,107.6z"/>
			</g>
		</g>
		<g>
			<g>
				<path d="M995.5,117.6c-2-7.8-11.7-6.2-14.2,0.4c-1.2,3.2-0.9,7.4,2.2,9.5c1.6,1.1,3.6,1,5.5,1.4c2.4,0.6,11,3.9,1.7,8.5
					c-2.1,1-5.6,0-7.7-0.4c-1.9-0.4-2.7,2.5-0.8,2.9c5.4,1.1,16.4,1.1,15.2-7.5c-0.4-2.7-2.5-4.5-4.9-5.5c-1.4-0.6-3.1-0.5-4.4-1.1
					c-2.3-1.1-5-3.7-4.1-6.4c1-3,7.1-7.2,8.7-1C993.1,120.3,996,119.5,995.5,117.6L995.5,117.6z"/>
			</g>
		</g>
		<g>
			<g>
				<path d="M1007,99.6c-0.3,5.8-0.6,11.6-0.5,17.5c0.1,4,0,8.5,2,12.1c2.5,4.4,9,5.9,12,1.1c1-1.6-1.6-3.1-2.6-1.5
					c-1.1,1.7-4.6,1.5-5.9,0.2c-1-1-1.6-2.9-2-4.2c-0.7-2.7-0.5-5.9-0.6-8.7c-0.1-5.5,0.2-11,0.5-16.5
					C1010.1,97.7,1007.1,97.7,1007,99.6L1007,99.6z"/>
			</g>
		</g>
		<g>
			<g>
				<path d="M1000,120.7c6.4-0.7,12.7-2,18.8-4c1.8-0.6,1.1-3.5-0.8-2.9c-5.9,1.9-11.9,3.2-18,3.9
					C998.1,117.9,998.1,120.9,1000,120.7L1000,120.7z"/>
			</g>
		</g>
		<g>
			<g>
				<path d="M1030.3,122.4c-3.1,5,0.6,12,6.7,11.4c7.1-0.7,10.4-9.7,9.2-15.8c-1.3-6.5-8.1-11.2-14.6-8.2
					c-7.5,3.4-4.8,12.3-2.1,18.1c0.8,1.7,3.4,0.2,2.6-1.5c-1.8-3.8-4.7-10.3-0.2-13.4c3.6-2.5,8.5-0.5,10.4,3.1
					c1.9,3.7,1.3,8.7-1.3,11.9c-1.7,2.1-4.8,4.1-7.4,2c-1.8-1.5-2-4.2-0.8-6C1033.9,122.2,1031.3,120.7,1030.3,122.4L1030.3,122.4z"
					/>
			</g>
		</g>
		<g>
			<g>
				<path d="M1052.4,128.2c-0.3-6.8-0.5-13.5-0.8-20.3c-0.4,0.5-0.7,1-1.1,1.4c4.3-0.7,8.6-1.4,12.9-2.1c1.9-0.3,1.1-3.2-0.8-2.9
					c-4.3,0.7-8.6,1.4-12.9,2.1c-0.6,0.1-1.1,0.8-1.1,1.4c0.3,6.8,0.5,13.5,0.8,20.3C1049.5,130.1,1052.5,130.1,1052.4,128.2
					L1052.4,128.2z"/>
			</g>
		</g>
		<g>
			<g>
				<path d="M1068.6,107.4c-1.4,6.2-4.9,19.1,5,19.3c8.7,0.2,12.4-9,11.9-16.2c-0.1-2-2.8-1.9-3,0c-1,8.2-1.9,16.4-2.9,24.7
					c-0.4,3.7-0.4,7.8-1.3,11.4c-0.8,3.1-2.1,3.7-5.1,3.6c-2.6,0.2-4.3-0.9-5.3-3.3c-0.4-1.8,0.1-3,1.6-3.7c1.8-0.7,1-3.6-0.8-2.9
					c-3.4,1.3-4.7,4.9-3.4,8.3c1.8,4.6,7.7,5.1,11.9,3.9c5.7-1.6,4.5-9.8,5-14.5c1.1-9.2,2.1-18.3,3.2-27.5c-1,0-2,0-3,0
					c0.3,5-1.4,12.8-7.8,13c-7.6,0.3-4.2-11.3-3.3-15.4C1071.9,106.3,1069,105.5,1068.6,107.4L1068.6,107.4z"/>
			</g>
		</g>
	</g>
	<g>
		<g>
			<path d="M594,55.9c26.7-0.6,53.3-1.3,80-1.9c1.4,0,2.1-2.1,0.8-2.8c-4.2-2.1-8.5-3.5-13.2-4.2c-0.1,1-0.3,2-0.4,2.9
				c10.3,0.4,20.7,0.9,31,1.3c-0.1-1-0.3-2-0.4-2.9c-9.5,2.2-18.8,4.6-27,10c-1.6,1.1-0.1,3.7,1.5,2.6c8-5.3,17.1-7.6,26.3-9.7
				c1.7-0.4,1.2-2.9-0.4-2.9c-10.3-0.4-20.7-0.9-31-1.3c-1.7-0.1-2.1,2.7-0.4,2.9c4.4,0.6,8.5,1.8,12.5,3.9c0.3-0.9,0.5-1.9,0.8-2.8
				c-26.7,0.6-53.3,1.3-80,1.9C592.1,52.9,592.1,55.9,594,55.9L594,55.9z"/>
		</g>
	</g>
	<g>
		<g>
			<path d="M972,35.8c0.2,12.6,0.3,25.2,0.5,37.8c0,1.9,3,1.9,3,0c-0.2-12.6-0.3-25.2-0.5-37.8C975,33.9,972,33.9,972,35.8L972,35.8
				z"/>
		</g>
	</g>
	<g>
		<g>
			<path d="M975.2,57.1c8.5-2.2,10.6,8.9,11.2,14.9c0.2,1.9,3.2,1.9,3,0c-0.5-4.8-1-10-4.2-13.9c-2.7-3.3-6.7-5-10.8-3.9
				C972.5,54.7,973.3,57.6,975.2,57.1L975.2,57.1z"/>
		</g>
	</g>
</g>
</svg>
