<?xml version="1.0" encoding="UTF-8" standalone="no"?>
<svg
   height="172.8pt"
   version="1.1"
   viewBox="0 0 174.96 172.8"
   width="174.96pt"
   id="svg59"
   sodipodi:docname="tubes.svg"
   inkscape:version="1.3.2 (1:1.3.2+202311252150+091e20ef0f)"
   xmlns:inkscape="http://www.inkscape.org/namespaces/inkscape"
   xmlns:sodipodi="http://sodipodi.sourceforge.net/DTD/sodipodi-0.dtd"
   xmlns:xlink="http://www.w3.org/1999/xlink"
   xmlns="http://www.w3.org/2000/svg"
   xmlns:svg="http://www.w3.org/2000/svg"
   xmlns:rdf="http://www.w3.org/1999/02/22-rdf-syntax-ns#"
   xmlns:cc="http://creativecommons.org/ns#"
   xmlns:dc="http://purl.org/dc/elements/1.1/">
  <sodipodi:namedview
     id="namedview59"
     pagecolor="#ffffff"
     bordercolor="#000000"
     borderopacity="0.25"
     inkscape:showpageshadow="2"
     inkscape:pageopacity="0.0"
     inkscape:pagecheckerboard="0"
     inkscape:deskcolor="#d1d1d1"
     inkscape:document-units="pt"
     inkscape:zoom="2.4305555"
     inkscape:cx="115.40572"
     inkscape:cy="120.13715"
     inkscape:window-width="1223"
     inkscape:window-height="774"
     inkscape:window-x="57"
     inkscape:window-y="26"
     inkscape:window-maximized="1"
     inkscape:current-layer="patch_3" />
  <metadata
     id="metadata1">
    <rdf:RDF>
      <cc:Work>
        <dc:type
           rdf:resource="http://purl.org/dc/dcmitype/StillImage" />
        <dc:date>2026-01-19T16:37:21.232403</dc:date>
        <dc:format>image/svg+xml</dc:format>
        <dc:creator>
          <cc:Agent>
            <dc:title>Matplotlib v3.4.3, https://matplotlib.org/</dc:title>
          </cc:Agent>
        </dc:creator>
      </cc:Work>
    </rdf:RDF>
  </metadata>
  <defs
     id="defs1">
    <rect
       x="172.15459"
       y="217.7531"
       width="61.552543"
       height="19.830486"
       id="rect1" />
    <style
       type="text/css"
       id="style1">*{stroke-linecap:butt;stroke-linejoin:round;}</style>
  </defs>
  <g
     id="figure_1">
    <g
       id="patch_1" />
    <g
       id="axes_1">
      <g
         id="PolyCollection_1"
         transform="translate(1.5024212,1.173773)">
        <path
           clip-path="url(#p86cb5ec6bd)"
           d="m 111.85006,25.918125 h -10.46199 v 24.58075 0 l -0.22815,0.131904 -0.23473,0.131903 -0.24134,0.131904 -0.24799,0.131904 -0.2547,0.131903 -0.261423,0.131904 -0.268183,0.131904 -0.274965,0.131903 -0.281765,0.131904 -0.28858,0.131903 -0.295403,0.131904 -0.30223,0.131904 -0.309058,0.131903 -0.31588,0.131904 -0.322691,0.131904 -0.329487,0.131903 -0.336264,0.131904 -0.343016,0.131904 -0.349738,0.131903 -0.356428,0.131904 -0.363078,0.131904 -0.369685,0.131903 -0.376245,0.131904 -0.382754,0.131903 -0.389206,0.131904 -0.395598,0.131904 -0.401925,0.131903 -0.408185,0.131904 -0.414372,0.131904 -0.420483,0.131903 -0.426513,0.131904 -0.432462,0.131904 -0.438322,0.131903 -0.444093,0.131904 -0.449771,0.131904 -0.455351,0.131903 -0.460832,0.131904 -0.466211,0.131903 -0.471485,0.131904 -0.47665,0.131904 -0.481707,0.131903 -0.486649,0.131904 -0.491478,0.131904 -0.49619,0.131903 -0.500782,0.131904 -0.505254,0.131904 -0.509604,0.131903 -0.51383,0.131904 -0.517931,0.131904 -0.521905,0.131903 -0.52575,0.131904 -0.529469,0.131903 -0.533056,0.131904 -0.536513,0.131904 -0.539839,0.131903 -0.543032,0.131904 -0.546095,0.131904 -0.549024,0.131903 -0.55182,0.131904 -0.554484,0.131904 -0.557015,0.131903 -0.559412,0.131904 -0.561677,0.131904 -0.56381,0.131903 -0.565811,0.131904 -0.567681,0.131903 -0.569419,0.131904 -0.571028,0.131904 -0.572507,0.131903 -0.573858,0.131904 -0.57508,0.131904 -0.576177,0.131903 -0.577147,0.131904 -0.577994,0.131904 -0.578717,0.131903 -0.579317,0.131904 -0.579798,0.131904 -0.58016,0.131903 -0.580402,0.131904 -0.580529,0.131903 -0.580542,0.131904 -0.58044,0.131904 -0.580228,0.131903 -0.579905,0.131904 -0.579475,0.131904 -0.578937,0.131903 -0.578296,0.131904 -0.577551,0.131904 -0.576706,0.131903 -0.57576,0.131904 -0.574719,0.131904 -0.573581,0.131903 -0.57235,0.131904 -0.571028,0.131903 -0.569616,0.131904 -0.568117,0.131904 -0.566531,0.131903 -0.564863,0.131904 -0.563113,0.131904 v 0 l 2.186174,0.131903 2.066288,0.131904 1.954127,0.131904 1.84913,0.131904 1.750777,0.131904 1.658594,0.131903 1.57214,0.131904 1.491012,0.131904 1.414837,0.131904 1.343272,0.131904 1.275998,0.131903 1.212725,0.131904 1.15318,0.131904 1.097112,0.131904 1.044292,0.131903 0.994502,0.131904 0.947546,0.131904 0.903238,0.131904 0.861408,0.131904 0.821896,0.131903 0.784558,0.131904 0.749253,0.131904 0.715856,0.131904 0.684248,0.131903 0.65432,0.131904 0.625967,0.131904 0.599096,0.131904 0.573616,0.131904 0.549445,0.131903 0.526505,0.131904 0.504724,0.131904 0.484034,0.131904 0.464372,0.131904 0.445679,0.131903 0.4279,0.131904 0.410982,0.131904 0.394878,0.131904 0.379541,0.131903 0.364932,0.131904 0.351006,0.131904 0.33773,0.131904 0.325066,0.131904 0.312983,0.131903 0.301449,0.131904 0.290435,0.131904 0.279915,0.131904 0.26986,0.131903 0.260248,0.131904 0.251058,0.131904 0.242265,0.131904 0.23385,0.131904 0.225795,0.131903 0.218082,0.131904 0.210692,0.131904 0.203611,0.131904 0.196823,0.131904 0.190314,0.131903 0.18407,0.131904 0.17808,0.131904 0.17233,0.131904 0.166809,0.131903 0.161507,0.131904 0.156413,0.131904 0.151518,0.131904 0.146812,0.131904 0.142287,0.131903 0.137935,0.131904 0.133748,0.131904 0.129718,0.131904 0.125838,0.131903 0.122103,0.131904 0.118505,0.131904 0.115038,0.131904 0.111697,0.131904 0.108477,0.131903 0.105371,0.131904 0.102377,0.131904 0.09949,0.131904 0.0967,0.131904 0.09401,0.131903 0.0914,0.131904 0.0889,0.131904 0.0865,0.131904 0.0841,0.131903 0.0819,0.131904 0.0797,0.131904 0.0776,0.131904 0.0755,0.131904 0.0735,0.131903 0.0716,0.131904 0.0698,0.131904 0.068,0.131904 0.0663,0.131903 0.0646,0.131904 0.063,0.131904 0.0614,0.131904 0.0598,0.131904 0.0584,0.131903 0.0569,0.131904 v 0 l -0.22816,0.131904 -0.23472,0.131904 -0.24134,0.131905 -0.24799,0.131904 -0.2547,0.131904 -0.26145,0.131904 -0.268184,0.131904 -0.274965,0.131904 -0.281766,0.131904 -0.28858,0.131904 -0.295404,0.131904 -0.302231,0.131905 -0.309058,0.131904 -0.315881,0.131904 -0.322691,0.131904 -0.329488,0.131904 -0.336265,0.131904 -0.343016,0.131904 -0.34974,0.131904 -0.356428,0.131905 -0.363078,0.131904 -0.369687,0.131904 -0.376246,0.131904 -0.382754,0.131904 -0.389207,0.131904 -0.395598,0.131904 -0.401927,0.131904 -0.408185,0.131904 -0.414373,0.131905 -0.420483,0.131904 -0.426514,0.131904 -0.432463,0.131904 -0.438323,0.131904 -0.444094,0.131904 -0.449771,0.131904 -0.455351,0.131904 -0.460833,0.131905 -0.466212,0.131904 -0.471485,0.131904 -0.476652,0.131904 -0.481707,0.131904 -0.48665,0.131904 -0.491478,0.131904 -0.49619,0.131904 -0.500783,0.131904 -0.505255,0.131905 -0.509604,0.131904 -0.513831,0.131904 -0.517931,0.131904 -0.521905,0.131904 -0.525751,0.131904 -0.529469,0.131904 -0.533056,0.131904 -0.536513,0.131905 -0.539839,0.131904 -0.543033,0.131904 -0.546095,0.131904 -0.549024,0.131904 -0.55182,0.131904 -0.554484,0.131904 -0.557015,0.131904 -0.559412,0.131904 -0.561677,0.131905 -0.56381,0.131904 -0.565811,0.131904 -0.56768,0.131904 -0.569419,0.131904 -0.571028,0.131904 -0.572507,0.131904 -0.573857,0.131904 -0.57508,0.131905 -0.576176,0.131904 -0.577147,0.131904 -0.577993,0.131904 -0.578716,0.131904 -0.579317,0.131904 -0.579798,0.131904 -0.580158,0.131904 -0.580402,0.131904 -0.580528,0.131905 -0.580541,0.131904 -0.580439,0.131904 -0.580227,0.131904 -0.579904,0.131904 -0.579474,0.131904 -0.578936,0.131904 -0.578295,0.131904 -0.577549,0.131905 -0.576705,0.131904 -0.575759,0.131904 -0.574717,0.131904 -0.57358,0.131904 -0.572349,0.131904 -0.571026,0.131904 -0.569615,0.131904 -0.568115,0.131904 -0.56653,0.131905 -0.564861,0.131904 -0.563111,0.131904 v 0 l 2.186189,0.131905 2.0663,0.131906 1.954138,0.131905 1.84914,0.131906 1.750786,0.131905 1.658601,0.131906 1.572146,0.131905 1.491017,0.131905 1.414842,0.131906 1.343275,0.131905 1.276002,0.131906 1.212728,0.131905 1.153181,0.131906 1.097114,0.131905 1.044293,0.131906 0.994503,0.131905 0.947546,0.131906 0.903238,0.131905 0.861408,0.131905 0.821897,0.131906 0.784557,0.131905 0.749252,0.131906 0.715855,0.131905 0.684247,0.131906 0.654318,0.131905 0.625966,0.131906 0.599095,0.131905 0.573614,0.131906 0.549444,0.131905 0.526503,0.131905 0.504723,0.131906 0.484032,0.131905 0.464371,0.131906 0.445677,0.131905 0.427898,0.131906 0.41098,0.131905 0.394876,0.131906 0.37954,0.131905 0.36493,0.131906 0.351004,0.131905 0.337728,0.131905 0.325065,0.131906 0.312981,0.131905 0.301448,0.131906 0.290433,0.131905 0.279913,0.131906 0.269858,0.131905 0.260247,0.131906 0.251056,0.131905 0.242264,0.131906 0.233848,0.131905 0.225794,0.131905 0.21808,0.131906 0.210691,0.131905 0.203609,0.131906 0.196822,0.131905 0.190313,0.131906 0.184069,0.131905 0.178078,0.131906 0.172329,0.131905 0.166807,0.131906 0.161506,0.131905 0.156412,0.131905 0.151516,0.131906 0.146811,0.131905 0.142286,0.131906 0.137934,0.131905 0.133747,0.131906 0.129717,0.131905 0.125837,0.131906 0.122102,0.131905 0.118504,0.131906 0.115037,0.131905 0.111696,0.131905 0.108475,0.131906 0.105371,0.131905 0.102375,0.131906 0.09949,0.131905 0.0967,0.131907 0.094,0.1319 0.0914,0.13191 0.0889,0.13191 0.0865,0.1319 0.0841,0.13191 0.0819,0.1319 0.0797,0.13191 0.0776,0.1319 0.0755,0.13191 0.0736,0.1319 0.0716,0.13191 0.0698,0.1319 0.068,0.13191 0.0663,0.13191 0.0646,0.1319 0.063,0.13191 0.0614,0.1319 0.0598,0.13191 0.0584,0.1319 0.0569,0.13191 v 0 l -0.22815,0.1319 -0.23472,0.1319 -0.24134,0.1319 -0.248,0.13191 -0.25469,0.1319 -0.261423,0.1319 -0.268181,0.1319 -0.274963,0.13191 -0.281763,0.1319 -0.288578,0.1319 -0.295401,0.1319 -0.302229,0.13191 -0.309056,0.1319 -0.315878,0.1319 -0.322689,0.1319 -0.329485,0.1319 -0.336262,0.13191 -0.343013,0.1319 -0.349737,0.1319 -0.356425,0.1319 -0.363076,0.1319 -0.369683,0.13191 -0.376243,0.1319 -0.382752,0.1319 -0.389203,0.1319 -0.395596,0.13191 -0.401923,0.1319 -0.408183,0.1319 -0.41437,0.1319 -0.42048,0.13191 -0.426512,0.1319 -0.432459,0.1319 -0.43832,0.1319 -0.444091,0.1319 -0.449769,0.13191 -0.455349,0.1319 -0.46083,0.1319 -0.466209,0.1319 -0.471483,0.13191 -0.476649,0.1319 -0.481705,0.1319 -0.486648,0.1319 -0.491476,0.1319 -0.496188,0.13191 -0.50078,0.1319 -0.505253,0.1319 -0.509603,0.1319 -0.513829,0.13191 -0.517929,0.1319 -0.521904,0.1319 -0.52575,0.1319 -0.529467,0.13191 -0.533055,0.1319 -0.536512,0.1319 -0.539838,0.1319 -0.543033,0.1319 -0.546094,0.13191 -0.549024,0.1319 -0.55182,0.1319 -0.554484,0.1319 -0.557014,0.1319 -0.559412,0.13191 -0.561678,0.1319 -0.56381,0.1319 -0.565812,0.1319 -0.567681,0.13191 -0.56942,0.1319 -0.571029,0.1319 -0.572508,0.1319 -0.573859,0.13191 -0.575082,0.1319 -0.576178,0.1319 -0.577149,0.1319 -0.577995,0.1319 -0.578719,0.13191 -0.579319,0.1319 -0.579801,0.1319 -0.580161,0.1319 -0.580405,0.1319 -0.580531,0.13191 -0.580545,0.1319 -0.580443,0.1319 -0.58023,0.1319 -0.579909,0.13191 -0.579478,0.1319 -0.57894,0.1319 -0.5783,0.1319 -0.577554,0.13191 -0.576709,0.1319 -0.575765,0.1319 -0.574722,0.1319 -0.573586,0.1319 -0.572354,0.13191 -0.571032,0.1319 -0.569621,0.1319 -0.568121,0.1319 -0.566537,0.13191 -0.564867,0.1319 -0.563118,0.1319 v 0 V 21838.46 H 158.92901 v 0 -21722.66872 0 l -0.56312,-0.1319 -0.56487,-0.1319 -0.56654,-0.13191 -0.56812,-0.1319 -0.56962,-0.1319 -0.57103,-0.1319 -0.57235,-0.13191 -0.57359,-0.1319 -0.57472,-0.1319 -0.57577,-0.1319 -0.57671,-0.1319 -0.57755,-0.13191 -0.5783,-0.1319 -0.57894,-0.1319 -0.57948,-0.1319 -0.57991,-0.13191 -0.58023,-0.1319 -0.58044,-0.1319 -0.58055,-0.1319 -0.58053,-0.13191 -0.5804,-0.1319 -0.58016,-0.1319 -0.5798,-0.1319 -0.57932,-0.1319 -0.57872,-0.13191 -0.578,-0.1319 -0.57715,-0.1319 -0.57617,-0.1319 -0.57509,-0.1319 -0.57385,-0.13191 -0.57251,-0.1319 -0.57103,-0.1319 -0.56942,-0.1319 -0.56768,-0.13191 -0.56581,-0.1319 -0.56381,-0.1319 -0.56168,-0.1319 -0.55941,-0.13191 -0.55702,-0.1319 -0.55448,-0.1319 -0.55182,-0.1319 -0.54903,-0.1319 -0.54609,-0.13191 -0.54303,-0.1319 -0.53984,-0.1319 -0.53651,-0.1319 -0.53306,-0.1319 -0.52947,-0.13191 -0.52575,-0.1319 -0.5219,-0.1319 -0.51793,-0.1319 -0.51383,-0.13191 -0.5096,-0.1319 -0.50525,-0.1319 -0.50078,-0.1319 -0.49619,-0.13191 -0.49148,-0.1319 -0.48665,-0.1319 -0.4817,-0.1319 -0.47665,-0.1319 -0.47148,-0.13191 -0.46621,-0.1319 -0.46083,-0.1319 -0.45535,-0.1319 -0.44977,-0.13191 -0.44409,-0.1319 -0.43832,-0.1319 -0.43246,-0.1319 -0.42651,-0.1319 -0.42048,-0.13191 -0.41437,-0.1319 -0.40818,-0.1319 -0.40193,-0.1319 -0.39559,-0.13191 -0.38921,-0.1319 -0.38275,-0.1319 -0.37624,-0.1319 -0.36968,-0.13191 -0.36308,-0.1319 -0.35642,-0.1319 -0.34974,-0.1319 -0.34301,-0.1319 -0.33627,-0.13191 -0.32948,-0.1319 -0.32269,-0.1319 -0.31588,-0.1319 -0.30906,-0.1319 -0.30222,-0.13191 -0.2954,-0.1319 -0.28858,-0.1319 -0.28177,-0.1319 -0.27496,-0.13191 -0.26818,-0.1319 -0.26142,-0.1319 -0.2547,-0.1319 -0.24799,-0.13191 -0.24134,-0.1319 -0.23472,-0.1319 -0.22815,-0.1319 v 0 l 0.0569,-0.13191 0.0584,-0.1319 0.0598,-0.13191 0.0614,-0.1319 0.0629,-0.13191 0.0646,-0.1319 0.0662,-0.13191 0.068,-0.13191 0.0698,-0.1319 0.0716,-0.13191 0.0735,-0.1319 0.0755,-0.13191 0.0776,-0.1319 0.0797,-0.13191 0.0819,-0.1319 0.0841,-0.13191 0.0865,-0.1319 0.0889,-0.13191 0.0914,-0.13191 0.094,-0.1319 0.0967,-0.131907 0.0995,-0.131905 0.10238,-0.131906 0.10537,-0.131905 0.10847,-0.131906 0.1117,-0.131905 0.11504,-0.131905 0.1185,-0.131906 0.1221,-0.131905 0.12584,-0.131906 0.12971,-0.131905 0.13375,-0.131906 0.13794,-0.131905 0.14228,-0.131906 0.14681,-0.131905 0.15152,-0.131906 0.15641,-0.131905 0.16151,-0.131905 0.1668,-0.131906 0.17233,-0.131905 0.17808,-0.131906 0.18407,-0.131905 0.19031,-0.131906 0.19683,-0.131905 0.2036,-0.131906 0.2107,-0.131905 0.21808,-0.131906 0.22579,-0.131905 0.23385,-0.131905 0.24226,-0.131906 0.25106,-0.131905 0.26024,-0.131906 0.26986,-0.131905 0.27992,-0.131906 0.29043,-0.131905 0.30145,-0.131906 0.31298,-0.131905 0.32506,-0.131906 0.33773,-0.131905 0.351,-0.131905 0.36493,-0.131906 0.37954,-0.131905 0.39488,-0.131906 0.41098,-0.131905 0.4279,-0.131906 0.44568,-0.131905 0.46437,-0.131906 0.48403,-0.131905 0.50472,-0.131906 0.5265,-0.131905 0.54945,-0.131905 0.57361,-0.131906 0.5991,-0.131905 0.62596,-0.131906 0.65432,-0.131905 0.68425,-0.131906 0.71585,-0.131905 0.74925,-0.131906 0.78456,-0.131905 0.8219,-0.131906 0.86141,-0.131905 0.90323,-0.131905 0.94755,-0.131906 0.9945,-0.131905 1.0443,-0.131906 1.09711,-0.131905 1.15318,-0.131906 1.21273,-0.131905 1.276,-0.131906 1.34328,-0.131905 1.41484,-0.131906 1.49102,-0.131905 1.57214,-0.131905 1.6586,-0.131906 1.75079,-0.131905 1.84914,-0.131906 1.95414,-0.131905 2.0663,-0.131906 2.18619,-0.131905 v 0 l -0.56312,-0.131904 -0.56486,-0.131904 -0.56653,-0.131905 -0.56811,-0.131904 -0.56962,-0.131904 -0.57102,-0.131904 -0.57235,-0.131904 -0.57358,-0.131904 -0.57472,-0.131904 -0.57576,-0.131904 -0.5767,-0.131904 -0.57755,-0.131905 -0.5783,-0.131904 -0.57893,-0.131904 -0.57948,-0.131904 -0.5799,-0.131904 -0.58023,-0.131904 -0.58044,-0.131904 -0.58054,-0.131904 -0.58053,-0.131905 -0.5804,-0.131904 -0.58016,-0.131904 -0.57979,-0.131904 -0.57932,-0.131904 -0.57872,-0.131904 -0.57799,-0.131904 -0.57715,-0.131904 -0.57617,-0.131904 -0.57508,-0.131905 -0.57386,-0.131904 -0.57251,-0.131904 -0.57102,-0.131904 -0.56942,-0.131904 -0.56768,-0.131904 -0.56581,-0.131904 -0.56381,-0.131904 -0.56168,-0.131905 -0.55941,-0.131904 -0.55702,-0.131904 -0.55448,-0.131904 -0.55182,-0.131904 -0.54903,-0.131904 -0.54609,-0.131904 -0.54303,-0.131904 -0.53984,-0.131904 -0.53652,-0.131905 -0.53305,-0.131904 -0.52947,-0.131904 -0.52575,-0.131904 -0.52191,-0.131904 -0.51793,-0.131904 -0.51383,-0.131904 -0.5096,-0.131904 -0.50526,-0.131905 -0.50078,-0.131904 -0.49619,-0.131904 -0.49148,-0.131904 -0.48665,-0.131904 -0.48171,-0.131904 -0.47665,-0.131904 -0.47148,-0.131904 -0.46622,-0.131904 -0.46083,-0.131905 -0.45535,-0.131904 -0.44977,-0.131904 -0.44409,-0.131904 -0.43833,-0.131904 -0.43246,-0.131904 -0.42651,-0.131904 -0.42049,-0.131904 -0.41437,-0.131905 -0.40818,-0.131904 -0.40193,-0.131904 -0.3956,-0.131904 -0.38921,-0.131904 -0.38275,-0.131904 -0.37625,-0.131904 -0.36968,-0.131904 -0.36308,-0.131904 -0.35643,-0.131905 -0.34974,-0.131904 -0.34302,-0.131904 -0.33626,-0.131904 -0.32949,-0.131904 -0.32269,-0.131904 -0.31588,-0.131904 -0.30906,-0.131904 -0.30223,-0.131905 -0.2954,-0.131904 -0.28858,-0.131904 -0.28177,-0.131904 -0.27497,-0.131904 -0.26818,-0.131904 -0.26142,-0.131904 -0.2547,-0.131904 -0.248,-0.131904 -0.24134,-0.131905 -0.23472,-0.131904 L 111.85,76.61581 v 0 l 0.0569,-0.131904 0.0584,-0.131903 0.0598,-0.131904 0.0614,-0.131904 0.0629,-0.131904 0.0646,-0.131904 0.0662,-0.131903 0.068,-0.131904 0.0698,-0.131904 0.0716,-0.131904 0.0735,-0.131903 0.0755,-0.131904 0.0776,-0.131904 0.0797,-0.131904 0.0819,-0.131904 0.0841,-0.131903 0.0865,-0.131904 0.0889,-0.131904 0.0914,-0.131904 0.094,-0.131903 0.0967,-0.131904 0.0995,-0.131904 0.10237,-0.131904 0.10538,-0.131904 0.10847,-0.131903 0.1117,-0.131904 0.11504,-0.131904 0.1185,-0.131904 0.12211,-0.131904 0.12583,-0.131903 0.12972,-0.131904 0.13375,-0.131904 0.13793,-0.131904 0.14229,-0.131903 0.14681,-0.131904 0.15152,-0.131904 0.15641,-0.131904 0.16151,-0.131904 0.16681,-0.131903 0.17233,-0.131904 0.17808,-0.131904 0.18407,-0.131904 0.19031,-0.131903 0.19683,-0.131904 0.20361,-0.131904 0.21069,-0.131904 0.21808,-0.131904 0.2258,-0.131903 0.23385,-0.131904 0.24226,-0.131904 0.25106,-0.131904 0.26025,-0.131904 0.26986,-0.131903 0.27991,-0.131904 0.29044,-0.131904 0.30145,-0.131904 0.31298,-0.131903 0.32507,-0.131904 0.33773,-0.131904 0.351,-0.131904 0.36493,-0.131904 0.37955,-0.131903 0.39487,-0.131904 0.41099,-0.131904 0.4279,-0.131904 0.44567,-0.131903 0.46438,-0.131904 0.48403,-0.131904 0.50472,-0.131904 0.52651,-0.131904 0.54944,-0.131903 0.57362,-0.131904 0.5991,-0.131904 0.62596,-0.131904 0.65432,-0.131904 0.68425,-0.131903 0.71586,-0.131904 0.74925,-0.131904 0.78456,-0.131904 0.82189,-0.131903 0.86141,-0.131904 0.90324,-0.131904 0.94755,-0.131904 0.9945,-0.131904 1.04429,-0.131903 1.09711,-0.131904 1.15318,-0.131904 1.21273,-0.131904 1.27599,-0.131903 1.34328,-0.131904 1.41483,-0.131904 1.49102,-0.131904 1.57214,-0.131904 1.65859,-0.131903 1.75078,-0.131904 1.84913,-0.131904 1.95412,-0.131904 2.06629,-0.131904 2.18618,-0.131903 v 0 l -0.56312,-0.131904 -0.56486,-0.131904 -0.56653,-0.131903 -0.56812,-0.131904 -0.56961,-0.131904 -0.57103,-0.131903 -0.57235,-0.131904 -0.57358,-0.131903 -0.57472,-0.131904 -0.57576,-0.131904 -0.57671,-0.131903 -0.57755,-0.131904 -0.57829,-0.131904 -0.57894,-0.131903 -0.57948,-0.131904 -0.5799,-0.131904 -0.58023,-0.131903 -0.58044,-0.131904 -0.58054,-0.131904 -0.58053,-0.131903 -0.5804,-0.131904 -0.58016,-0.131903 -0.5798,-0.131904 -0.57932,-0.131904 -0.57872,-0.131903 -0.57799,-0.131904 -0.57715,-0.131904 -0.57617,-0.131903 -0.57508,-0.131904 -0.57386,-0.131904 -0.57251,-0.131903 -0.57103,-0.131904 -0.56942,-0.131904 -0.56768,-0.131903 -0.56581,-0.131904 -0.56381,-0.131903 -0.56167,-0.131904 -0.55942,-0.131904 -0.55701,-0.131903 -0.55449,-0.131904 -0.55182,-0.131904 -0.54902,-0.131903 -0.54609,-0.131904 -0.54304,-0.131904 -0.53984,-0.131903 -0.53651,-0.131904 -0.53305,-0.131904 -0.52947,-0.131903 -0.52575,-0.131904 -0.52191,-0.131903 -0.51793,-0.131904 -0.51383,-0.131904 -0.5096,-0.131903 -0.50526,-0.131904 -0.50078,-0.131904 -0.49619,-0.131903 -0.49148,-0.131904 -0.48665,-0.131904 -0.4817,-0.131903 -0.47665,-0.131904 -0.47149,-0.131904 -0.46621,-0.131903 -0.46083,-0.131904 -0.45535,-0.131903 -0.44977,-0.131904 -0.4441,-0.131904 -0.43832,-0.131903 -0.43246,-0.131904 -0.42651,-0.131904 -0.42049,-0.131903 -0.41437,-0.131904 -0.40818,-0.131904 -0.40193,-0.131903 -0.3956,-0.131904 -0.3892,-0.131904 -0.38276,-0.131903 -0.37624,-0.131904 -0.36969,-0.131903 -0.36307,-0.131904 -0.35643,-0.131904 -0.34974,-0.131903 -0.34302,-0.131904 -0.33626,-0.131904 -0.32949,-0.131903 -0.32269,-0.131904 -0.31588,-0.131904 -0.30906,-0.131903 -0.30223,-0.131904 -0.2954,-0.131904 -0.28858,-0.131903 -0.28176,-0.131904 -0.27497,-0.131903 -0.26818,-0.131904 -0.26143,-0.131904 -0.25469,-0.131903 -0.248,-0.131904 -0.24134,-0.131904 -0.23472,-0.131903 -0.22815,-0.131904 v 0 z"
           style="fill:#1f77b4;fill-opacity:0.5"
           id="path3" />
      </g>
      <g
         id="patch_3">
        <path
           clip-path="url(#p86cb5ec6bd)"
           d="m 101.38807,25.918125 v 24.58075 0 l -2.011481,1.055229 -2.781358,1.187133 -3.727673,1.319036 -4.816595,1.45094 -6.499215,1.714748 -9.971692,2.374265 -17.270937,3.95711 v 0 l 11.46509,0.791422 8.309984,0.791423 6.13987,0.791423 4.617219,0.791422 4.033673,0.923327 3.007386,0.923326 2.283601,0.923327 1.981073,1.05523 1.502729,1.05523 1.285776,1.187134 1.07376,1.319038 0.88054,1.450942 0.49825,1.05523 v 0 l -2.011485,1.055233 -2.781364,1.187137 -3.727681,1.319041 -4.816602,1.450946 -6.499222,1.714753 -9.971692,2.374274 -17.270905,3.957124 v 0 l 11.465154,0.791433 8.31001,0.791432 6.139875,0.791433 4.617216,0.791433 4.033663,0.923338 3.007374,0.923338 2.283589,0.923338 1.98106,1.055244 1.502718,1.055244 1.285766,1.187149 1.073746,1.31905 0.88053,1.45096 0.49825,1.05525 v 0 l -2.011469,1.05522 -2.781341,1.18712 -3.727651,1.31902 -4.816572,1.45092 -6.499197,1.71473 -9.971691,2.37424 -17.27103,3.95707 V 21838.46 M 111.85006,25.918125 v 24.58075 0 l 2.01148,1.055229 2.78135,1.187133 3.72768,1.319036 4.81659,1.45094 6.49922,1.714748 9.97169,2.374265 17.27094,3.95711 v 0 l -11.46509,0.791422 -8.30999,0.791423 -6.13987,0.791423 -4.61722,0.791422 -4.03367,0.923327 -3.00739,0.923326 -2.2836,0.923327 -1.98107,1.05523 -1.50273,1.05523 -1.28577,1.187134 -1.07377,1.319038 -0.88053,1.450942 -0.49825,1.05523 v 0 l 2.01148,1.055233 2.78136,1.187137 3.72769,1.319041 4.8166,1.450946 6.49922,1.714753 9.97169,2.374274 17.27091,3.957124 v 0 l -11.46516,0.791433 -8.31001,0.791432 -6.13987,0.791433 -4.61722,0.791433 -4.03366,0.923338 -3.00738,0.923338 -2.28358,0.923338 -1.98106,1.055244 -1.50272,1.055244 -1.28577,1.187149 -1.07375,1.31905 -0.88053,1.45096 -0.49824,1.05525 v 0 l 2.01146,1.05522 2.78135,1.18712 3.72765,1.31902 4.81657,1.45092 6.49919,1.71473 9.9717,2.37424 17.27103,3.95707 v 0 21722.66872 0"
           style="fill:none;stroke:#ffffff;stroke-width:3;stroke-linejoin:miter"
           id="path4" />
        <path
           clip-path="url(#p86cb5ec6bd)"
           d="m 101.38807,25.918125 v 24.58075 0 l -2.011481,1.055229 -2.781358,1.187133 -3.727673,1.319036 -4.816595,1.45094 -6.499215,1.714748 -9.971692,2.374265 -17.270937,3.95711 v 0 l 11.46509,0.791422 8.309984,0.791423 6.13987,0.791423 4.617219,0.791422 4.033673,0.923327 3.007386,0.923326 2.283601,0.923327 1.981073,1.05523 1.502729,1.05523 1.285776,1.187134 1.07376,1.319038 0.88054,1.450942 0.49825,1.05523 v 0 l -2.011485,1.055233 -2.781364,1.187137 -3.727681,1.319041 -4.816602,1.450946 -6.499222,1.714753 -9.971692,2.374274 -17.270905,3.957124 v 0 l 11.465154,0.791433 8.31001,0.791432 6.139875,0.791433 4.617216,0.791433 4.033663,0.923338 3.007374,0.923338 2.283589,0.923338 1.98106,1.055244 1.502718,1.055244 1.285766,1.187149 1.073746,1.31905 0.88053,1.45096 0.49825,1.05525 v 0 l -2.011469,1.05522 -2.781341,1.18712 -3.727651,1.31902 -4.816572,1.45092 -6.499197,1.71473 -9.971691,2.37424 -17.27103,3.95707 V 21838.46 M 111.85006,25.918125 v 24.58075 0 l 2.01148,1.055229 2.78135,1.187133 3.72768,1.319036 4.81659,1.45094 6.49922,1.714748 9.97169,2.374265 17.27094,3.95711 v 0 l -11.46509,0.791422 -8.30999,0.791423 -6.13987,0.791423 -4.61722,0.791422 -4.03367,0.923327 -3.00739,0.923326 -2.2836,0.923327 -1.98107,1.05523 -1.50273,1.05523 -1.28577,1.187134 -1.07377,1.319038 -0.88053,1.450942 -0.49825,1.05523 v 0 l 2.01148,1.055233 2.78136,1.187137 3.72769,1.319041 4.8166,1.450946 6.49922,1.714753 9.97169,2.374274 17.27091,3.957124 v 0 l -11.46516,0.791433 -8.31001,0.791432 -6.13987,0.791433 -4.61722,0.791433 -4.03366,0.923338 -3.00738,0.923338 -2.28358,0.923338 -1.98106,1.055244 -1.50272,1.055244 -1.28577,1.187149 -1.07375,1.31905 -0.88053,1.45096 -0.49824,1.05525 v 0 l 2.01146,1.05522 2.78135,1.18712 3.72765,1.31902 4.81657,1.45092 6.49919,1.71473 9.9717,2.37424 17.27103,3.95707 v 0 21722.66872 0"
           style="fill:none;stroke:#1f77b4;stroke-linejoin:miter"
           id="path5" />
        <g
           id="matplotlib.axis_2">
          <g
             id="ytick_1">
            <g
               id="line2d_2">
              <defs
                 id="defs11">
                <path
                   d="M 0,0 H -3.5"
                   id="m583d06e171"
                   style="stroke:#000000;stroke-width:0.8" />
              </defs>
              <g
                 id="g12">
                <use
                   style="stroke:#000000;stroke-width:0.8"
                   x="49.078125"
                   xlink:href="#m583d06e171"
                   y="148.82187"
                   id="use12" />
              </g>
            </g>
            <g
               id="text_2">
              <!-- $\mathdefault{10^{0}}$ -->
              <g
                 transform="matrix(0.1,0,0,-0.1,24.478125,152.62109)"
                 id="g15">
                <defs
                   id="defs12">
                  <path
                     d="M 794,531 H 1825 V 4091 L 703,3866 v 575 l 1116,225 h 631 V 531 H 3481 V 0 H 794 Z"
                     id="DejaVuSans-31"
                     transform="scale(0.015625)" />
                  <path
                     d="m 2034,4250 q -487,0 -733,-480 -245,-479 -245,-1442 0,-959 245,-1439 246,-480 733,-480 491,0 736,480 246,480 246,1439 0,963 -246,1442 -245,480 -736,480 z m 0,500 q 785,0 1199,-621 414,-620 414,-1801 0,-1178 -414,-1799 -414,-620 -1199,-620 -784,0 -1198,620 -414,621 -414,1799 0,1181 414,1801 414,621 1198,621 z"
                     id="DejaVuSans-30"
                     transform="scale(0.015625)" />
                </defs>
                <use
                   transform="translate(0,0.765625)"
                   xlink:href="#DejaVuSans-31"
                   id="use13" />
                <use
                   transform="translate(63.623047,0.765625)"
                   xlink:href="#DejaVuSans-30"
                   id="use14" />
                <use
                   transform="matrix(0.7,0,0,0.7,128.20312,39.046875)"
                   xlink:href="#DejaVuSans-30"
                   id="use15" />
              </g>
            </g>
          </g>
          <g
             id="ytick_2">
            <g
               id="line2d_3">
              <g
                 id="g16">
                <use
                   style="stroke:#000000;stroke-width:0.8"
                   x="49.078125"
                   xlink:href="#m583d06e171"
                   y="105.4426"
                   id="use16" />
              </g>
            </g>
            <g
               id="text_3">
              <!-- $\mathdefault{10^{2}}$ -->
              <g
                 transform="matrix(0.1,0,0,-0.1,24.478125,109.24182)"
                 id="g19">
                <defs
                   id="defs16">
                  <path
                     d="M 1228,531 H 3431 V 0 H 469 v 531 q 359,372 979,998 621,627 780,809 303,340 423,576 121,236 121,464 0,372 -261,606 -261,235 -680,235 -297,0 -627,-103 -329,-103 -704,-313 v 638 q 381,153 712,231 332,78 607,78 725,0 1156,-363 431,-362 431,-968 0,-288 -108,-546 -107,-257 -392,-607 -78,-91 -497,-524 Q 1991,1309 1228,531 Z"
                     id="DejaVuSans-32"
                     transform="scale(0.015625)" />
                </defs>
                <use
                   transform="translate(0,0.765625)"
                   xlink:href="#DejaVuSans-31"
                   id="use17" />
                <use
                   transform="translate(63.623047,0.765625)"
                   xlink:href="#DejaVuSans-30"
                   id="use18" />
                <use
                   transform="matrix(0.7,0,0,0.7,128.20312,39.046875)"
                   xlink:href="#DejaVuSans-32"
                   id="use19" />
              </g>
            </g>
          </g>
          <g
             id="ytick_3">
            <g
               id="line2d_4">
              <g
                 id="g20">
                <use
                   style="stroke:#000000;stroke-width:0.8"
                   x="49.078125"
                   xlink:href="#m583d06e171"
                   y="62.06332"
                   id="use20" />
              </g>
            </g>
            <g
               id="text_4">
              <!-- $\mathdefault{10^{4}}$ -->
              <g
                 transform="matrix(0.1,0,0,-0.1,24.478125,65.862541)"
                 id="g23">
                <defs
                   id="defs20">
                  <path
                     d="M 2419,4116 825,1625 h 1594 z m -166,550 h 794 V 1625 h 666 V 1100 H 3047 V 0 H 2419 V 1100 H 313 v 609 z"
                     id="DejaVuSans-34"
                     transform="scale(0.015625)" />
                </defs>
                <use
                   transform="translate(0,0.684375)"
                   xlink:href="#DejaVuSans-31"
                   id="use21" />
                <use
                   transform="translate(63.623047,0.684375)"
                   xlink:href="#DejaVuSans-30"
                   id="use22" />
                <use
                   transform="matrix(0.7,0,0,0.7,128.20312,38.965625)"
                   xlink:href="#DejaVuSans-34"
                   id="use23" />
              </g>
            </g>
          </g>
          <g
             id="text_5">
            <!-- time ago (generations) -->
            <g
               transform="matrix(0,-0.1,-0.1,0,18.398438,144.84109)"
               id="g45">
              <defs
                 id="defs23">
                <path
                   d="M 1172,4494 V 3500 H 2356 V 3053 H 1172 V 1153 q 0,-428 117,-550 117,-122 477,-122 h 590 V 0 H 1766 Q 1100,0 847,248 594,497 594,1153 V 3053 H 172 v 447 h 422 v 994 z"
                   id="DejaVuSans-74"
                   transform="scale(0.015625)" />
                <path
                   d="m 3328,2828 q 216,388 516,572 300,184 706,184 547,0 844,-383 297,-382 297,-1088 V 0 h -578 v 2094 q 0,503 -179,746 -178,244 -543,244 -447,0 -707,-297 -259,-296 -259,-809 V 0 h -578 v 2094 q 0,506 -178,748 -178,242 -550,242 -441,0 -701,-298 -259,-298 -259,-808 V 0 H 581 v 3500 h 578 v -544 q 197,322 472,475 275,153 653,153 382,0 649,-194 267,-193 395,-562 z"
                   id="DejaVuSans-6d"
                   transform="scale(0.015625)" />
                <path
                   id="DejaVuSans-20"
                   transform="scale(0.015625)"
                   d="" />
                <path
                   d="m 2194,1759 q -697,0 -966,-159 -269,-159 -269,-544 0,-306 202,-486 202,-179 548,-179 479,0 768,339 289,339 289,901 v 128 z m 1147,238 V 0 H 2766 V 531 Q 2569,213 2275,61 1981,-91 1556,-91 q -537,0 -855,302 -317,302 -317,808 0,590 395,890 396,300 1180,300 h 807 v 57 q 0,397 -261,614 -261,217 -733,217 -300,0 -585,-72 -284,-72 -546,-216 v 532 q 315,122 612,182 297,61 578,61 760,0 1135,-394 375,-393 375,-1193 z"
                   id="DejaVuSans-61"
                   transform="scale(0.015625)" />
                <path
                   d="m 1959,3097 q -462,0 -731,-361 -269,-361 -269,-989 0,-628 267,-989 268,-361 733,-361 460,0 728,362 269,363 269,988 0,622 -269,986 -268,364 -728,364 z m 0,487 q 750,0 1178,-488 429,-487 429,-1349 Q 3566,888 3137,398 2709,-91 1959,-91 1206,-91 779,398 353,888 353,1747 q 0,862 426,1349 427,488 1180,488 z"
                   id="DejaVuSans-6f"
                   transform="scale(0.015625)" />
                <path
                   d="m 1984,4856 q -418,-718 -622,-1422 -203,-703 -203,-1425 0,-721 205,-1429 205,-708 620,-1424 h -500 q -468,735 -701,1444 -233,709 -233,1409 0,697 231,1403 232,707 703,1444 z"
                   id="DejaVuSans-28"
                   transform="scale(0.015625)" />
                <path
                   d="m 2834,3397 v -544 q -243,125 -506,187 -262,63 -544,63 -428,0 -642,-131 -214,-131 -214,-394 0,-200 153,-314 153,-114 616,-217 l 197,-44 q 612,-131 870,-370 258,-239 258,-667 0,-488 -386,-773 Q 2250,-91 1575,-91 1294,-91 989,-36 684,19 347,128 v 594 q 319,-166 628,-249 309,-82 613,-82 406,0 624,139 219,139 219,392 0,234 -158,359 -157,125 -692,241 l -200,47 q -534,112 -772,345 -237,233 -237,639 0,494 350,762 350,269 994,269 318,0 599,-47 282,-46 519,-140 z"
                   id="DejaVuSans-73"
                   transform="scale(0.015625)" />
                <path
                   d="m 513,4856 h 500 q 468,-737 701,-1444 233,-706 233,-1403 0,-700 -233,-1409 -233,-709 -701,-1444 H 513 q 415,716 620,1424 205,708 205,1429 0,722 -205,1425 -205,704 -620,1422 z"
                   id="DejaVuSans-29"
                   transform="scale(0.015625)" />
              </defs>
              <use
                 xlink:href="#DejaVuSans-74"
                 id="use24" />
              <path
                 d="m 48.630859,54.6875 h 8.984375 V 0 h -8.984375 z m 0,21.296875 h 8.984375 V 64.59375 h -8.984375 z"
                 id="use25"
                 style="stroke-width:0.015625" />
              <use
                 x="66.992188"
                 xlink:href="#DejaVuSans-6d"
                 id="use26" />
              <path
                 d="m 220.60742,29.59375 v -4.390625 h -41.3125 q 0.59375,-9.28125 5.59375,-14.140625 5,-4.859375 13.9375,-4.859375 5.17188,0 10.03125,1.265625 4.85938,1.265625 9.65625,3.8125 v -8.5 q -4.84375,-2.046875 -9.92187,-3.125 -5.07813,-1.078125 -10.29688,-1.078125 -13.09375,0 -20.73437,7.609375 -7.64063,7.625 -7.64063,20.625 0,13.421875 7.25,21.296875 Q 184.41992,56 196.73242,56 q 11.03125,0 17.45313,-7.109375 6.42187,-7.09375 6.42187,-19.296875 z m -8.98437,2.640625 q -0.0937,7.359375 -4.125,11.75 -4.03125,4.40625 -10.67188,4.40625 -7.51562,0 -12.03125,-4.25 -4.51562,-4.25 -5.20312,-11.96875 z"
                 id="use27"
                 style="stroke-width:0.015625" />
              <use
                 x="225.92773"
                 xlink:href="#DejaVuSans-20"
                 id="use28" />
              <use
                 x="257.71484"
                 xlink:href="#DejaVuSans-61"
                 id="use29" />
              <path
                 d="m 364.40039,27.984375 q 0,9.765625 -4.03125,15.125 -4.01562,5.375 -11.29687,5.375 -7.21875,0 -11.25,-5.375 -4.03125,-5.359375 -4.03125,-15.125 0,-9.71875 4.03125,-15.09375 4.03125,-5.375 11.25,-5.375 7.28125,0 11.29687,5.375 4.03125,5.375 4.03125,15.09375 z M 373.38477,6.78125 q 0,-13.953125 -6.20313,-20.765625 -6.1875,-6.8125 -18.98437,-6.8125 -4.73438,0 -8.9375,0.703125 -4.20313,0.703125 -8.15625,2.171875 V -9.1875 q 3.95312,-2.140625 7.8125,-3.15625 3.85937,-1.03125 7.85937,-1.03125 8.84375,0 13.23438,4.609375 4.39062,4.609375 4.39062,13.9375 V 9.625 Q 361.61914,4.78125 357.27539,2.390625 352.93164,0 346.86914,0 q -10.04687,0 -16.20312,7.65625 -6.15625,7.671875 -6.15625,20.328125 0,12.6875 6.15625,20.34375 Q 336.82227,56 346.86914,56 q 6.0625,0 10.40625,-2.390625 4.34375,-2.390625 7.125,-7.21875 V 54.6875 h 8.98438 z"
                 id="use30"
                 style="stroke-width:0.015625" />
              <use
                 x="382.4707"
                 xlink:href="#DejaVuSans-6f"
                 id="use31" />
              <use
                 x="443.65234"
                 xlink:href="#DejaVuSans-20"
                 id="use32" />
              <use
                 x="475.43945"
                 xlink:href="#DejaVuSans-28"
                 id="use33" />
              <path
                 d="m 559.85937,27.984375 q 0,9.765625 -4.03125,15.125 -4.01562,5.375 -11.29687,5.375 -7.21875,0 -11.25,-5.375 Q 529.25,37.75 529.25,27.984375 q 0,-9.71875 4.03125,-15.09375 4.03125,-5.375 11.25,-5.375 7.28125,0 11.29687,5.375 4.03125,5.375 4.03125,15.09375 z M 568.84375,6.78125 q 0,-13.953125 -6.20313,-20.765625 -6.1875,-6.8125 -18.98437,-6.8125 -4.73438,0 -8.9375,0.703125 -4.20313,0.703125 -8.15625,2.171875 V -9.1875 q 3.95312,-2.140625 7.8125,-3.15625 3.85937,-1.03125 7.85937,-1.03125 8.84375,0 13.23438,4.609375 4.39062,4.609375 4.39062,13.9375 V 9.625 Q 557.07812,4.78125 552.73437,2.390625 548.39062,0 542.32812,0 532.28125,0 526.125,7.65625 q -6.15625,7.671875 -6.15625,20.328125 0,12.6875 6.15625,20.34375 Q 532.28125,56 542.32812,56 q 6.0625,0 10.40625,-2.390625 4.34375,-2.390625 7.125,-7.21875 V 54.6875 h 8.98438 z"
                 id="use34"
                 style="stroke-width:0.015625" />
              <path
                 d="m 634.13281,29.59375 v -4.390625 h -41.3125 q 0.59375,-9.28125 5.59375,-14.140625 5,-4.859375 13.9375,-4.859375 5.17188,0 10.03125,1.265625 4.85938,1.265625 9.65625,3.8125 v -8.5 q -4.84375,-2.046875 -9.92187,-3.125 -5.07813,-1.078125 -10.29688,-1.078125 -13.09375,0 -20.73437,7.609375 -7.64063,7.625 -7.64063,20.625 0,13.421875 7.25,21.296875 Q 597.94531,56 610.25781,56 q 11.03125,0 17.45313,-7.109375 6.42187,-7.09375 6.42187,-19.296875 z m -8.98437,2.640625 q -0.0937,7.359375 -4.125,11.75 -4.03125,4.40625 -10.67188,4.40625 -7.51562,0 -12.03125,-4.25 -4.51562,-4.25 -5.20312,-11.96875 z"
                 id="use35"
                 style="stroke-width:0.015625" />
              <path
                 d="M 694.34375,33.015625 V 0 h -8.98438 v 32.71875 q 0,7.765625 -3.03125,11.609375 -3.03125,3.859375 -9.07812,3.859375 -7.28125,0 -11.48438,-4.640625 -4.20312,-4.625 -4.20312,-12.640625 V 0 h -9.03125 v 54.6875 h 9.03125 v -8.5 q 3.23437,4.9375 7.59375,7.375 Q 669.53125,56 675.25,56 q 9.42187,0 14.25,-5.828125 4.84375,-5.828125 4.84375,-17.15625 z"
                 id="use36"
                 style="stroke-width:0.015625" />
              <path
                 d="m 759.03516,29.59375 v -4.390625 h -41.3125 q 0.59375,-9.28125 5.59375,-14.140625 5,-4.859375 13.9375,-4.859375 5.17187,0 10.03125,1.265625 4.85937,1.265625 9.65625,3.8125 v -8.5 q -4.84375,-2.046875 -9.92188,-3.125 -5.07812,-1.078125 -10.29687,-1.078125 -13.09375,0 -20.73438,7.609375 -7.64062,7.625 -7.64062,20.625 0,13.421875 7.25,21.296875 Q 722.84766,56 735.16016,56 q 11.03125,0 17.45312,-7.109375 6.42188,-7.09375 6.42188,-19.296875 z m -8.98438,2.640625 q -0.0937,7.359375 -4.125,11.75 -4.03125,4.40625 -10.67187,4.40625 -7.51563,0 -12.03125,-4.25 -4.51563,-4.25 -5.20313,-11.96875 z"
                 id="use37"
                 style="stroke-width:0.015625" />
              <path
                 d="m 805.46484,46.296875 q -1.51562,0.875 -3.29687,1.28125 Q 800.38672,48 798.24609,48 790.62109,48 786.54297,43.046875 782.46484,38.09375 782.46484,28.8125 V 0 h -9.03125 v 54.6875 h 9.03125 v -8.5 q 2.84375,4.984375 7.375,7.390625 Q 794.38672,56 800.88672,56 q 0.92187,0 2.04687,-0.125 1.125,-0.109375 2.48438,-0.359375 z"
                 id="use38"
                 style="stroke-width:0.015625" />
              <use
                 x="805.46875"
                 xlink:href="#DejaVuSans-61"
                 id="use39" />
              <use
                 x="866.74805"
                 xlink:href="#DejaVuSans-74"
                 id="use40" />
              <path
                 d="m 915.37891,54.6875 h 8.98437 V 0 h -8.98437 z m 0,21.296875 h 8.98437 V 64.59375 h -8.98437 z"
                 id="use41"
                 style="stroke-width:0.015625" />
              <use
                 x="933.74023"
                 xlink:href="#DejaVuSans-6f"
                 id="use42" />
              <path
                 d="M 1049.8125,33.015625 V 0 h -8.9844 v 32.71875 q 0,7.765625 -3.0312,11.609375 -3.0313,3.859375 -9.0781,3.859375 -7.2813,0 -11.4844,-4.640625 -4.2032,-4.625 -4.2032,-12.640625 V 0 H 1004 v 54.6875 h 9.0312 v -8.5 q 3.2344,4.9375 7.5938,7.375 Q 1025,56 1030.7188,56 q 9.4218,0 14.25,-5.828125 4.8437,-5.828125 4.8437,-17.15625 z"
                 id="use43"
                 style="stroke-width:0.015625" />
              <use
                 x="1058.3008"
                 xlink:href="#DejaVuSans-73"
                 id="use44" />
              <use
                 x="1110.4004"
                 xlink:href="#DejaVuSans-29"
                 id="use45" />
            </g>
          </g>
        </g>
        <g
           id="patch_4">
          <path
             d="M 49.078125,148.82187 V 25.918125"
             style="fill:none;stroke:#000000;stroke-width:0.8;stroke-linecap:square;stroke-linejoin:miter"
             id="path45" />
        </g>
        <g
           id="text_6"
           transform="translate(0,-1.5)">
          <!-- Demes as tubes -->
          <g
             transform="matrix(0.12,0,0,-0.12,58.247813,19.918125)"
             id="g59">
            <defs
               id="defs45">
              <path
                 d="M 1259,4147 V 519 h 763 q 966,0 1414,437 448,438 448,1382 0,937 -448,1373 -448,436 -1414,436 z m -631,519 h 1297 q 1356,0 1990,-564 635,-564 635,-1764 Q 4550,1131 3912,565 3275,0 1925,0 H 628 Z"
                 id="DejaVuSans-44"
                 transform="scale(0.015625)" />
              <path
                 d="m 544,1381 v 2119 h 575 V 1403 q 0,-497 193,-746 194,-248 582,-248 465,0 735,297 271,297 271,810 v 1984 h 575 V 0 H 2900 V 538 Q 2691,219 2414,64 2138,-91 1772,-91 1169,-91 856,284 544,659 544,1381 Z m 1447,2203 z"
                 id="DejaVuSans-75"
                 transform="scale(0.015625)" />
              <path
                 d="m 3116,1747 q 0,634 -261,995 -261,361 -717,361 -457,0 -718,-361 -261,-361 -261,-995 0,-634 261,-995 261,-361 718,-361 456,0 717,361 261,361 261,995 z M 1159,2969 q 182,312 458,463 277,152 661,152 638,0 1036,-506 399,-506 399,-1331 Q 3713,922 3314,415 2916,-91 2278,-91 1894,-91 1617,61 1341,213 1159,525 V 0 H 581 v 4863 h 578 z"
                 id="DejaVuSans-62"
                 transform="scale(0.015625)" />
            </defs>
            <use
               xlink:href="#DejaVuSans-44"
               id="use46" />
            <path
               d="M 133.20508,29.59375 V 25.203125 H 91.892578 q 0.59375,-9.28125 5.59375,-14.140625 5.000002,-4.859375 13.937502,-4.859375 5.17187,0 10.03125,1.265625 4.85937,1.265625 9.65625,3.8125 v -8.5 q -4.84375,-2.046875 -9.92188,-3.125 -5.07812,-1.078125 -10.29687,-1.078125 -13.093752,0 -20.734377,7.609375 -7.640625,7.625 -7.640625,20.625 0,13.421875 7.25,21.296875 Q 97.017578,56 109.33008,56 q 11.03125,0 17.45312,-7.109375 6.42188,-7.09375 6.42188,-19.296875 z m -8.98438,2.640625 q -0.0937,7.359375 -4.125,11.75 -4.03125,4.40625 -10.67187,4.40625 -7.51563,0 -12.031252,-4.25 -4.515625,-4.25 -5.203125,-11.96875 z"
               id="use47"
               style="stroke-width:0.015625" />
            <use
               x="138.52539"
               xlink:href="#DejaVuSans-6d"
               id="use48" />
            <path
               d="m 292.14062,29.59375 v -4.390625 h -41.3125 q 0.59375,-9.28125 5.59375,-14.140625 5,-4.859375 13.9375,-4.859375 5.17188,0 10.03125,1.265625 4.85938,1.265625 9.65625,3.8125 v -8.5 q -4.84375,-2.046875 -9.92187,-3.125 -5.07813,-1.078125 -10.29688,-1.078125 -13.09375,0 -20.73437,7.609375 -7.64063,7.625 -7.64063,20.625 0,13.421875 7.25,21.296875 Q 255.95312,56 268.26562,56 q 11.03125,0 17.45313,-7.109375 6.42187,-7.09375 6.42187,-19.296875 z m -8.98437,2.640625 q -0.0937,7.359375 -4.125,11.75 -4.03125,4.40625 -10.67188,4.40625 -7.51562,0 -12.03125,-4.25 -4.51562,-4.25 -5.20312,-11.96875 z"
               id="use49"
               style="stroke-width:0.015625" />
            <use
               x="297.46094"
               xlink:href="#DejaVuSans-73"
               id="use50" />
            <use
               x="349.56055"
               xlink:href="#DejaVuSans-20"
               id="use51" />
            <use
               x="381.34766"
               xlink:href="#DejaVuSans-61"
               id="use52" />
            <use
               x="442.62695"
               xlink:href="#DejaVuSans-73"
               id="use53" />
            <use
               x="494.72656"
               xlink:href="#DejaVuSans-20"
               id="use54" />
            <use
               x="526.51367"
               xlink:href="#DejaVuSans-74"
               id="use55" />
            <use
               x="565.72266"
               xlink:href="#DejaVuSans-75"
               id="use56" />
            <use
               x="629.10156"
               xlink:href="#DejaVuSans-62"
               id="use57" />
            <path
               d="m 748.78125,29.59375 v -4.390625 h -41.3125 q 0.59375,-9.28125 5.59375,-14.140625 5,-4.859375 13.9375,-4.859375 5.17187,0 10.03125,1.265625 4.85937,1.265625 9.65625,3.8125 v -8.5 q -4.84375,-2.046875 -9.92188,-3.125 -5.07812,-1.078125 -10.29687,-1.078125 -13.09375,0 -20.73438,7.609375 -7.64062,7.625 -7.64062,20.625 0,13.421875 7.25,21.296875 Q 712.59375,56 724.90625,56 q 11.03125,0 17.45312,-7.109375 6.42188,-7.09375 6.42188,-19.296875 z m -8.98438,2.640625 q -0.0937,7.359375 -4.125,11.75 -4.03125,4.40625 -10.67187,4.40625 -7.51563,0 -12.03125,-4.25 -4.51563,-4.25 -5.20313,-11.96875 z"
               id="use58"
               style="stroke-width:0.015625" />
            <use
               x="754.10156"
               xlink:href="#DejaVuSans-73"
               id="use59" />
          </g>
        </g>
        <text
           xml:space="preserve"
           transform="scale(0.75)"
           id="text1"
           style="font-weight:bold;font-size:13.3333px;line-height:normal;font-family:Arial;-inkscape-font-specification:'Arial Bold';text-align:center;text-decoration-color:#000000;white-space:pre;shape-inside:url(#rect1);display:inline;fill:none;stroke:#010000;stroke-width:0.666667;stroke-linecap:round;stroke-dasharray:5.69411, 5.69411;paint-order:markers stroke fill"><tspan
             x="172.1543"
             y="249.59401"
             id="tspan4"><tspan
               dx="0 8.8932066 8.1445093 8.1445122 8.1445084 3.7044182 7.4153481 4.4400902 3.7044182 8.1445122"
               style="stroke-linecap:butt"
               id="tspan3">Population</tspan></tspan></text>
        <text
           xml:space="preserve"
           style="font-weight:bold;font-size:9.99998px;line-height:normal;font-family:Arial;-inkscape-font-specification:'Arial Bold';text-align:center;text-decoration-color:#000000;text-anchor:middle;fill:#000000;fill-opacity:1;stroke:none;stroke-width:0.5;stroke-linecap:round;stroke-linejoin:round;stroke-dasharray:4.27058, 4.27058;stroke-opacity:1;paint-order:markers stroke fill"
           x="106.92103"
           y="159.96802"
           id="text2"><tspan
             sodipodi:role="line"
             id="tspan2"
             style="font-style:normal;font-variant:normal;font-weight:normal;font-stretch:normal;font-family:Arial;-inkscape-font-specification:Arial;stroke-width:0.5"
             x="106.92103"
             y="159.96802">Population</tspan></text>
      </g>
    </g>
    <defs
       id="defs59">
      <clipPath
         id="p86cb5ec6bd">
        <rect
           height="122.90375"
           width="115.081875"
           x="49.078125"
           y="25.918125"
           id="rect59" />
      </clipPath>
    </defs>
  </g>
</svg>
