<?xml version="1.0" encoding="UTF-8" standalone="no"?>
<svg
   viewBox="0 0 97 25"
   version="1.1"
   id="svg178"
   sodipodi:docname="hist_axes.svg"
   inkscape:version="1.3.2 (091e20e, 2023-11-25)"
   width="97"
   height="25"
   xmlns:inkscape="http://www.inkscape.org/namespaces/inkscape"
   xmlns:sodipodi="http://sodipodi.sourceforge.net/DTD/sodipodi-0.dtd"
   xmlns="http://www.w3.org/2000/svg"
   xmlns:svg="http://www.w3.org/2000/svg"
   xmlns:rdf="http://www.w3.org/1999/02/22-rdf-syntax-ns#"
   xmlns:cc="http://creativecommons.org/ns#"
   xmlns:dc="http://purl.org/dc/elements/1.1/">
  <sodipodi:namedview
     id="namedview178"
     pagecolor="#ffffff"
     bordercolor="#000000"
     borderopacity="0.25"
     inkscape:showpageshadow="2"
     inkscape:pageopacity="0.0"
     inkscape:pagecheckerboard="0"
     inkscape:deskcolor="#d1d1d1"
     inkscape:zoom="6.6997331"
     inkscape:cx="42.240489"
     inkscape:cy="11.343736"
     inkscape:window-width="1312"
     inkscape:window-height="449"
     inkscape:window-x="53"
     inkscape:window-y="25"
     inkscape:window-maximized="0"
     inkscape:current-layer="Layer_1" />
  <defs
     id="defs1">
    <style
       id="style1">.cls-1{fill:#fff;}.cls-2,.cls-3,.cls-7{fill:none;}.cls-2,.cls-3,.cls-5,.cls-6,.cls-7{stroke:#231f20;stroke-linecap:round;}.cls-2,.cls-5,.cls-6,.cls-7{stroke-miterlimit:10;}.cls-3{stroke-linejoin:round;}.cls-4{fill:#231f20;}.cls-5{fill:#d4ebf9;}.cls-5,.cls-6{stroke-width:0.75px;}.cls-6{fill:red;}.cls-7{stroke-width:0.25px;}</style>
  </defs>
  <title
     id="title1">wright_fisher</title>
  <g
     id="Layer_1"
     data-name="Layer 1">
    <g
       id="g3"
       transform="translate(0,-187.32585)">
      <path
         style="fill:#2c9f2c;fill-opacity:0.1;stroke:#000000;stroke-width:0.3;stroke-linecap:round;stroke-dasharray:0.9, 0.9;stroke-dashoffset:0;stroke-opacity:1"
         d="M 28.682917,40.667677 H 91.051592"
         id="path22" />
      <path
         style="fill:#2c9f2c;fill-opacity:0.1;stroke:#000000;stroke-width:0.3;stroke-linecap:round;stroke-dasharray:0.900003, 0.900003;stroke-dashoffset:0;stroke-opacity:1"
         d="M 33.05368,36.410516 V 210.03448"
         id="path22-3" />
      <g
         id="g2">
        <path
           style="fill:#2c9f2c;fill-opacity:0.1;stroke:#000000;stroke-width:0.3;stroke-linecap:round;stroke-dasharray:0.900003, 0.900003;stroke-dashoffset:0;stroke-opacity:1"
           d="M 47.05368,36.410516 V 210.03448"
           id="path22-3-8" />
      </g>
      <path
         style="fill:#2c9f2c;fill-opacity:0.1;stroke:#000000;stroke-width:0.3;stroke-linecap:round;stroke-dasharray:0.900003, 0.900003;stroke-dashoffset:0;stroke-opacity:1"
         d="M 61.05368,36.410516 V 210.03448"
         id="path22-3-8-1" />
      <path
         style="fill:#2c9f2c;fill-opacity:0.1;stroke:#000000;stroke-width:0.3;stroke-linecap:round;stroke-dasharray:0.900003, 0.900003;stroke-dashoffset:0;stroke-opacity:1"
         d="M 75.05368,36.410516 V 210.03448"
         id="path22-3-8-1-3" />
      <g
         id="g1">
        <path
           style="fill:#2c9f2c;fill-opacity:0.1;stroke:#000000;stroke-width:0.3;stroke-linecap:round;stroke-dasharray:0.900003, 0.900003;stroke-dashoffset:0;stroke-opacity:1"
           d="M 89.05368,36.410516 V 210.03448"
           id="path22-3-8-1-6" />
      </g>
      <path
         style="fill:#2c9f2c;fill-opacity:0.1;stroke:#000000;stroke-width:0.3;stroke-linecap:round;stroke-dasharray:0.900003, 0.900003;stroke-dashoffset:0;stroke-opacity:1"
         d="M 82.07236,36.410516 V 210.03448"
         id="path22-3-8-1-6-6" />
      <path
         style="fill:#2c9f2c;fill-opacity:0.1;stroke:#000000;stroke-width:0.3;stroke-linecap:round;stroke-dasharray:0.900003, 0.900003;stroke-dashoffset:0;stroke-opacity:1"
         d="M 68.07236,36.410516 V 210.03448"
         id="path22-3-8-1-6-6-7" />
      <path
         style="fill:#2c9f2c;fill-opacity:0.1;stroke:#000000;stroke-width:0.3;stroke-linecap:round;stroke-dasharray:0.900003, 0.900003;stroke-dashoffset:0;stroke-opacity:1"
         d="M 54.07236,36.410516 V 210.03448"
         id="path22-3-8-1-6-6-7-6" />
      <path
         style="fill:#2c9f2c;fill-opacity:0.1;stroke:#000000;stroke-width:0.3;stroke-linecap:round;stroke-dasharray:0.900003, 0.900003;stroke-dashoffset:0;stroke-opacity:1"
         d="M 40.07236,36.410516 V 210.03448"
         id="path22-3-8-1-6-6-7-6-9" />
      <path
         style="fill:#2c9f2c;fill-opacity:0.1;stroke:#000000;stroke-width:0.3;stroke-linecap:round;stroke-dasharray:0.9, 0.9;stroke-dashoffset:0;stroke-opacity:1"
         d="M 28.682917,61.677608 H 91.051592"
         id="path22-94" />
      <path
         style="fill:#2c9f2c;fill-opacity:0.1;stroke:#000000;stroke-width:0.3;stroke-linecap:round;stroke-dasharray:0.9, 0.9;stroke-dashoffset:0;stroke-opacity:1"
         d="M 28.682917,82.66768 H 91.051592"
         id="path22-0" />
      <path
         style="fill:#2c9f2c;fill-opacity:0.1;stroke:#000000;stroke-width:0.3;stroke-linecap:round;stroke-dasharray:0.9, 0.9;stroke-dashoffset:0;stroke-opacity:1"
         d="M 28.682917,103.67761 H 91.051592"
         id="path22-94-9" />
      <path
         style="fill:#2c9f2c;fill-opacity:0.1;stroke:#000000;stroke-width:0.3;stroke-linecap:round;stroke-dasharray:0.9, 0.9;stroke-dashoffset:0;stroke-opacity:1"
         d="M 28.682917,124.66768 H 91.051592"
         id="path22-0-5" />
      <path
         style="fill:#2c9f2c;fill-opacity:0.1;stroke:#000000;stroke-width:0.3;stroke-linecap:round;stroke-dasharray:0.9, 0.9;stroke-dashoffset:0;stroke-opacity:1"
         d="M 28.682917,144.79755 H 91.051592"
         id="path22-94-9-3" />
      <path
         style="fill:#2c9f2c;fill-opacity:0.1;stroke:#000000;stroke-width:0.3;stroke-linecap:round;stroke-dasharray:0.9, 0.9;stroke-dashoffset:0;stroke-opacity:1"
         d="M 28.682917,164.66768 H 91.051592"
         id="path22-0-5-7" />
      <path
         style="fill:#2c9f2c;fill-opacity:0.1;stroke:#000000;stroke-width:0.3;stroke-linecap:round;stroke-dasharray:0.9, 0.9;stroke-dashoffset:0;stroke-opacity:1"
         d="M 28.682917,185.67761 H 91.051592"
         id="path22-94-9-3-0" />
      <path
         style="fill:#2c9f2c;fill-opacity:0.1;stroke:#000000;stroke-width:0.3;stroke-linecap:round;stroke-dasharray:0.9, 0.9;stroke-dashoffset:0;stroke-opacity:1"
         d="M 28.682917,206.66768 H 91.051592"
         id="path22-0-5-7-7" />
    </g>
    <path
       class="cls-4"
       d="m 10.322408,5.663765 a 61.207447,61.316558 0 0 0 3.007942,9.869256 c 0.239164,0.543685 1.030242,0.07373 0.800277,-0.469965 A 60.453161,60.560928 0 0 1 11.205474,5.4241752 C 11.067489,4.8436307 10.175231,5.0924353 10.285614,5.663765 Z"
       id="path59-5"
       style="fill:#231f20;stroke:#000000;stroke-width:0.1;stroke-dasharray:none;stroke-opacity:1" />
    <path
       class="cls-4"
       d="m 13.753484,5.4333899 c -0.763482,3.4279771 -2.492819,6.6716541 -3.817417,9.8784711 -0.229963,0.543686 0.653102,0.783274 0.91986,0.23959 1.342996,-3.197602 3.081529,-6.450494 3.835815,-9.8600417 0.12878,-0.5805445 -0.754286,-0.8293491 -0.91986,-0.2488046 z"
       id="path60-8"
       style="fill:#231f20;stroke:#000000;stroke-width:0.1;stroke-dasharray:none;stroke-opacity:1" />
    <path
       class="cls-4"
       d="M 15.059685,5.3135944 C 14.259408,7.0552288 14.452577,9.276042 14.44338,11.155899 a 7.2668895,7.2798438 0 0 0 1.462575,4.920807 c 0.377143,0.46075 1.021044,-0.20273 0.653102,-0.654264 -1.168224,-1.41911 -1.223415,-3.096238 -1.186619,-4.856302 0,-1.474398 -0.147174,-3.4279772 0.478326,-4.7917958 0.248362,-0.5344691 -0.551917,-1.0044341 -0.791079,-0.4607498 z"
       id="path61-2"
       style="fill:#231f20;stroke:#000000;stroke-width:0.1;stroke-dasharray:none;stroke-opacity:1" />
    <path
       class="cls-4"
       d="m 18.439078,7.3003745 c -0.285158,2.4431595 -0.717491,5.1850125 -0.294355,7.6588085 0.234616,1.311863 1.069473,0.609574 1.284294,-0.158325 -0.456758,-0.358429 -0.410427,-2.698411 -0.39203,-3.357069 0,-1.378585 0.165566,-2.749512 0.321951,-4.1280969 0.05519,-0.4901641 -0.86467,-0.482504 -0.91986,0 z"
       id="path62-0"
       style="fill:#231f20;stroke:#000000;stroke-width:0.1;stroke-dasharray:none;stroke-opacity:1"
       sodipodi:nodetypes="ccccccc" />
    <path
       class="cls-4"
       d="m 16.621157,7.7840706 a 19.0108,14.928287 0 0 1 2.417421,-0.2764501 h 1.056156 0.528078 c 0.445932,0.064502 0.469402,0 0.05866,-0.1750854 l 0.152557,-0.4515342 -0.07041,0.073726 C 20.28248,7.397046 21.103933,8.05131 21.596805,7.5997756 22.089678,7.1482414 21.5616,6.5861264 20.834028,6.5861264 a 17.825559,13.997573 0 0 0 -4.529735,0.3409547 c -0.739309,0.119793 -0.422462,1.0136492 0.316848,0.9214991 z"
       id="path63-9"
       style="fill:#231f20;stroke:#000000;stroke-width:0.1;stroke-dasharray:none;stroke-opacity:1" />
    <path
       class="cls-4"
       d="m 21.318081,5.7743442 a 11.838591,11.859695 0 0 1 0.156378,9.5375168 c -0.220767,0.5529 0.671496,0.79249 0.919858,0.248805 A 12.776847,12.799624 0 0 0 22.118362,5.3135944 C 21.869999,4.7699101 21.078919,5.2398687 21.318081,5.7743442 Z"
       id="path66-0"
       style="fill:#231f20;stroke:#000000;stroke-width:0.1;stroke-dasharray:none;stroke-opacity:1" />
    <path
       d="m 1.0824337,6.7557913 q 0.095036,4.9608777 -0.038014,9.9170037 a 0.35638491,0.35638491 0 0 0 0.7127698,0 q 0.1282986,-4.960877 0.038014,-9.9170037 a 0.35638491,0.35638491 0 0 0 -0.7127698,0 z"
       id="path44"
       style="stroke:#000000;stroke-width:0.2;stroke-dasharray:none;stroke-opacity:1" />
    <path
       d="m 1.7999553,6.7700473 c 1.0311403,-1.5395829 2.5707231,0.152057 3.0268958,0.95036 A 3.872716,3.872716 0 0 1 5.3590523,9.545097 c 0.05702,2.048026 -2.0575286,2.589731 -3.7111546,2.56122 a 0.356385,0.356385 0 0 0 0,0.71277 c 1.3019929,0 3.0791656,-0.270853 3.9344896,-1.378022 0.650996,-0.841068 0.584471,-2.162068 0.280356,-3.11718 -0.57972,-1.8246907 -3.1551944,-4.1815826 -4.67577,-1.9007187 -0.25659724,0.384895 0.3611367,0.74128 0.612982,0.361136 z"
       id="path45"
       style="stroke:#000000;stroke-width:0.2;stroke-dasharray:none;stroke-opacity:1" />
    <path
       d="m 8.1662553,4.6127304 c -1.08341,2.0480249 -1.425539,4.2433566 -1.549086,6.5289716 a 12.302407,12.302407 0 0 0 0.05227,2.955619 c 0.07603,0.403902 1.187949,2.423417 1.159439,2.584978 -0.07128,0.47518 0.612982,0.641493 0.689011,0.190072 a 2.3758994,2.3758994 0 0 0 0,-0.603478 c 0,-0.147306 -0.256598,-0.28986 -0.308867,-0.432414 -0.47518,-1.225964 -0.95036,-1.834194 -0.95036,-3.245479 -0.03801,-2.580226 0.28986,-5.3172617 1.50632,-7.6028776 0.213831,-0.403903 -0.399151,-0.765039 -0.612982,-0.361136 z"
       id="path46"
       style="stroke:#000000;stroke-width:0.2;stroke-dasharray:none;stroke-opacity:1" />
    <path
       d="m 23.291643,4.8028024 c 2.375899,3.1029249 4.875345,8.2966406 0.988374,11.4043166 -0.361137,0.285108 0.147306,0.788799 0.50369,0.503691 4.100803,-3.27399 1.696393,-8.9191257 -0.87433,-12.2643926 -0.275605,-0.356385 -0.89809,0 -0.617734,0.361137 z"
       id="path56"
       style="stroke:#000000;stroke-width:0.2;stroke-dasharray:none;stroke-opacity:1" />
  </g>
  <metadata
     id="metadata178">
    <rdf:RDF>
      <cc:Work
         rdf:about="">
        <dc:title>wright_fisher</dc:title>
      </cc:Work>
    </rdf:RDF>
  </metadata>
</svg>
