<?xml version="1.0" encoding="UTF-8" standalone="no"?>
<svg
   viewBox="0 0 97 215"
   version="1.1"
   id="svg178"
   sodipodi:docname="model_time.svg"
   inkscape:version="1.3.2 (091e20e, 2023-11-25)"
   width="97"
   height="215"
   xmlns:inkscape="http://www.inkscape.org/namespaces/inkscape"
   xmlns:sodipodi="http://sodipodi.sourceforge.net/DTD/sodipodi-0.dtd"
   xmlns="http://www.w3.org/2000/svg"
   xmlns:svg="http://www.w3.org/2000/svg"
   xmlns:rdf="http://www.w3.org/1999/02/22-rdf-syntax-ns#"
   xmlns:cc="http://creativecommons.org/ns#"
   xmlns:dc="http://purl.org/dc/elements/1.1/">
  <sodipodi:namedview
     id="namedview178"
     pagecolor="#ffffff"
     bordercolor="#000000"
     borderopacity="0.25"
     inkscape:showpageshadow="2"
     inkscape:pageopacity="0.0"
     inkscape:pagecheckerboard="0"
     inkscape:deskcolor="#d1d1d1"
     inkscape:zoom="2.0361546"
     inkscape:cx="13.26029"
     inkscape:cy="171.40153"
     inkscape:window-width="1368"
     inkscape:window-height="827"
     inkscape:window-x="56"
     inkscape:window-y="25"
     inkscape:window-maximized="1"
     inkscape:current-layer="Layer_1" />
  <defs
     id="defs1">
    <style
       id="style1">.cls-1{fill:#fff;}.cls-2,.cls-3,.cls-7{fill:none;}.cls-2,.cls-3,.cls-5,.cls-6,.cls-7{stroke:#231f20;stroke-linecap:round;}.cls-2,.cls-5,.cls-6,.cls-7{stroke-miterlimit:10;}.cls-3{stroke-linejoin:round;}.cls-4{fill:#231f20;}.cls-5{fill:#d4ebf9;}.cls-5,.cls-6{stroke-width:0.75px;}.cls-6{fill:red;}.cls-7{stroke-width:0.25px;}</style>
  </defs>
  <title
     id="title1">wright_fisher</title>
  <g
     id="Layer_1"
     data-name="Layer 1">
    <path
       class="cls-21"
       d="m 4.0625727,129.76361 c 3.245621,0.2111 6.4252753,-1.0159 9.6577033,-0.36942 0.633292,0.11875 0.897164,-0.83119 0.263872,-0.94993 -3.337977,-0.67288 -6.5967923,0.54093 -9.9215753,0.32984 -0.633292,0 -0.633292,0.94993 0,0.98951 z"
       id="path328"
       style="fill:#231f20;stroke-width:1.31936" />
    <path
       class="cls-21"
       d="m 4.4187997,133.61614 a 30.925759,30.925759 0 0 1 -0.633292,-8.47028 c 0,-0.63329 -0.949938,-0.63329 -0.989519,0 a 32.350666,32.350666 0 0 0 0.672873,8.80012 c 0.131936,0.6201 1.095067,0.35623 0.949938,-0.26387 z"
       id="path329"
       style="fill:#231f20;stroke-width:1.31936" />
    <path
       class="cls-21"
       d="m 7.6644207,124.71047 a 26.387166,26.387166 0 0 0 6.1218233,-0.2111 c 0.633292,-0.10554 0.356227,-1.05548 -0.263872,-0.96313 a 24.170644,24.170644 0 0 1 -5.8579513,0.18471 c -0.633292,0 -0.620098,0.93675 0,0.98952 z"
       id="path330"
       style="fill:#231f20;stroke-width:1.31936" />
    <path
       class="cls-21"
       d="m 4.9597367,124.36744 h 0.303452 a 0.50135616,0.50135616 0 0 0 0.211097,-0.8312 0.67287275,0.67287275 0 0 0 -1.029099,0 c -0.474969,0.43539 0.224291,1.13465 0.69926,0.69926 l 0.105549,-0.0923 -0.356227,0.0792 h 0.131936 l -0.356227,-0.14513 0.105549,0.0923 0.22429,-0.77842 h -0.303452 c -0.620098,0.13194 -0.356227,1.09507 0.263872,0.94994 z"
       id="path331"
       style="fill:#231f20;stroke-width:1.31936" />
    <path
       class="cls-21"
       d="m 5.5006737,120.7524 q 4.142785,0 8.2459893,-0.30346 c 0.633292,0 0.633292,-1.0291 0,-0.98951 q -4.1163983,0.25067 -8.2459893,0.30345 a 0.50135616,0.50135616 0 0 0 0,0.98952 z"
       id="path332"
       style="fill:#231f20;stroke-width:1.31936" />
    <path
       class="cls-21"
       d="m 7.9414857,119.44146 c -0.659679,-0.46822 -2.203328,-1.42139 -0.778421,-2.54178 0.36942,-0.30099 1.490875,-0.10038 1.926263,-0.11698 1.3193593,0 2.7574593,0 4.1295923,0 a 0.50135616,0.6354429 0 0 0 0.250678,-1.17056 l -0.14513,-0.11711 c -0.540936,-0.41805 -1.042293,0.65217 -0.488162,1.08695 l 0.131936,0.10038 0.250678,-1.17055 c -1.464488,-0.0167 -2.942169,-0.0167 -4.3670763,-0.0167 -0.897164,0 -2.216522,-0.16721 -2.994944,0.602 -1.596423,1.67222 0.554131,3.62872 1.622811,4.38122 0.567324,0.3846 1.055487,-0.70234 0.501356,-1.08694 z"
       id="path333"
       style="fill:#231f20;stroke-width:1.48535" />
    <path
       class="cls-21"
       d="m 8.3768747,115.25067 a 5.2774333,5.2774333 0 0 1 -1.385326,-1.51726 2.6387166,2.6387166 0 0 1 -0.422195,-1.05549 0.50135616,0.50135616 0 0 1 0.197904,-0.65968 0.56732408,0.56732408 0 0 1 0.844389,-0.50135 18.048822,18.048822 0 0 1 5.5676923,0.44858 c 0.620098,0.0924 0.88397,-0.85758 0.263872,-0.96313 a 37.48297,37.48297 0 0 0 -4.6969163,-0.46178 c -0.804809,0 -2.440813,-0.36942 -3.060911,0.32984 -0.620099,0.69926 -0.171517,1.80752 0,2.44082 a 5.7524023,5.7524023 0 0 0 1.939456,2.63871 c 0.488163,0.38262 1.200617,-0.30345 0.69926,-0.69926 z"
       id="path334"
       style="fill:#231f20;stroke-width:1.31936" />
    <path
       class="cls-21"
       d="m 10.012879,107.18301 c -0.2374843,-1.31936 -1.3193583,-4.07682 -3.0872983,-3.81295 a 2.6387166,2.6387166 0 0 0 -1.39852,3.95807 3.6018482,3.6018482 0 0 0 2.638716,0.94994 21.228475,21.228475 0 0 0 4.8420453,0 c 1.939457,-0.3958 1.134649,-2.99494 0.51455,-4.26152 -0.277065,-0.56733 -1.134648,0 -0.844389,0.50135 0.290259,0.50136 0.818002,1.88668 0.51455,2.41443 -0.303453,0.52774 -0.580518,0.32984 -1.015906,0.38261 a 30.028595,30.028595 0 0 1 -3.4435263,0 4.2483338,4.2483338 0 0 1 -1.649197,-0.13193 l -0.752035,-1.93946 c 0.14513,-0.60691 0.461776,-0.77842 0.949938,-0.50136 1.174229,0.10555 1.596424,1.8471 1.76794,2.79704 0.118743,0.63329 1.0686813,0.35623 0.9631323,-0.26387 z"
       id="path335"
       style="fill:#231f20;stroke-width:1.31936" />
    <g
       id="Layer_3"
       data-name="Layer 3"
       style="fill:none;stroke:#001976;stroke-width:2;stroke-dasharray:none;stroke-opacity:1"
       transform="translate(141.68722,23.165913)">
      <path
         class="cls-2"
         d="m 39.77,40.56 c -2.21,2 -2.5,3 -2.27,3.66 0.31,0.86 1.55,0.68 2.67,2.11 0.68,0.86 0.42,1.17 1.27,2.39 0.85,1.22 1.17,1 1.79,2 0.62,1 0.47,1.32 1.1,3.8 0.22,0.89 0.46,1.82 0.86,3 0.51,1.49 0.84,2 1.58,4.09 0.6,1.71 0.6,2 0.57,2.21 -0.15,1.24 -1.1,1.56 -1.26,2.95 a 3.48,3.48 0 0 0 0.28,1.83 C 47,70 48.3,69.73 49,71.08 c 0.6,1.1 -0.05,1.64 0.56,2.39 0.61,0.75 1.83,0.39 3.52,1.12 0.84,0.37 0.79,0.58 2.39,1.83 3.13,2.43 4.53,2.58 5.09,4.22 0.25,0.71 0,0.58 0.21,1.92 a 15,15 0 0 0 1.9,4.69 c 1,1.93 1.51,2.33 1.41,3.23 A 4.43,4.43 0 0 1 63,92.59 21.38,21.38 0 0 1 60.7,95 c -1.34,1.41 -1.15,1.51 -2.53,3 -1,1 -1.1,1 -2.11,2.11 a 7.88,7.88 0 0 0 -1.82,2.4 c -0.32,0.9 0,1 -0.15,2.94 -0.13,1.62 -0.23,2.71 -1,3.23 -0.77,0.52 -1.28,0.1 -1.58,0.54 -0.46,0.69 0.93,1.72 0.6,3 -0.33,1.28 -1.93,1.71 -2,1.74 -1.06,0.32 -1.45,-0.18 -2.22,0.23 a 2.54,2.54 0 0 0 -1.27,2.25 c 0,1.14 1,1.36 1,2.25 -0.08,1.06 -1.53,1.22 -2.11,2.53 -0.17,0.37 -0.41,1.17 0.26,3.11 1.28,3.72 4.19,6.59 5.78,8.14 1.17,1.13 1.91,1.7 2.39,3 0.54,1.4 0.22,2.28 1,3 0.78,0.72 1.69,0 2.88,0.72 1,0.58 1.38,1.67 2.06,3.73 a 6.45,6.45 0 0 1 0.54,3 c -0.17,1.41 -0.85,1.48 -0.84,2.53 0,1.47 1.32,1.66 1.83,3.66 a 4.66,4.66 0 0 1 -0.14,2.95 c -0.19,0.43 -0.33,0.53 -1.69,2 -1.89,2 -1.77,2 -2.39,2.53 -1.19,1.05 -1.45,1 -1.91,1.66 a 5,5 0 0 0 -0.73,2.6 5.86,5.86 0 0 0 0.87,3.81 c 0.6,0.85 1.41,1.3 3,2.2 0.49,0.27 1,0.5 2,1 a 14.75,14.75 0 0 1 2.11,1 3.62,3.62 0 0 1 1.41,3 c -0.12,1.07 -0.86,1.14 -1,2.25 a 4,4 0 0 0 1,2.74 c 1.07,1.45 1.92,1.05 2.55,2.32 0.34,0.69 0.21,1.06 0.81,2.57 0.19,0.47 0.37,0.85 0.49,1.1"
         transform="translate(0.29,0.11)"
         id="path178"
         style="fill:none;stroke:#001976;stroke-width:2;stroke-linecap:round;stroke-miterlimit:10;stroke-dasharray:none;stroke-opacity:1" />
    </g>
    <g
       id="g23"
       transform="translate(21.687217,23.165913)">
      <circle
         class="cls-6"
         cx="139.60988"
         cy="80.380249"
         r="2.4534051"
         id="circle127-4"
         style="fill:#ff0000;stroke:#231f20;stroke-width:1.52071px;stroke-linecap:round;stroke-miterlimit:10" />
      <path
         class="cls-4"
         d="m 112.40922,96.793813 c 0.17093,0.366275 -0.42732,1.489515 -0.5372,1.916834 a 14.95619,14.95619 0 0 0 -0.46395,2.197643 3.5772765,3.5772765 0 0 0 0.54941,2.72264 c 1.50172,1.91683 3.45519,0.47616 4.48075,-1.07441 0.42732,-0.65929 -0.62266,-1.22091 -1.06219,-0.61045 a 3.6627404,3.6627404 0 0 1 -0.69592,0.91568 c -1.34301,1.00115 -1.92905,0 -2.08776,-0.91568 a 6.4220049,6.4220049 0 0 1 0.35406,-2.661592 c 0.24418,-0.988941 0.92789,-2.112181 0.47616,-3.101121 -0.31744,-0.720339 -1.36743,-0.09767 -1.04999,0.610456 z"
         id="path169"
         style="fill:#231f20;stroke-width:1.22091" />
      <path
         class="cls-4"
         d="m 110.28346,97.658539 a 2.4212325,2.6738006 0 0 1 1.41515,-1.623817 c 1.10558,-0.329645 1.18297,0.244184 1.63626,0.964523 a 2.2111711,2.4418269 0 0 0 1.05031,1.074404 c 1.54782,0.586038 2.42124,-1.41626 3.31676,-2.307527 0.53068,-0.524992 -0.24323,-1.379633 -0.78497,-0.866848 -0.34273,0.341856 -0.60807,0.866848 -0.96186,1.220913 -0.33167,0.634876 -0.90658,0.744757 -1.7026,0.317438 -0.0884,-0.170928 -0.17689,-0.341856 -0.2764,-0.512784 -0.45328,-0.549411 -0.6744,-1.013358 -1.39303,-1.147658 a 3.3167568,3.6627404 0 0 0 -3.31676,2.319734 c -0.2764,0.708131 0.68546,1.330797 0.96186,0.610457 z"
         id="path170"
         style="fill:#231f20;stroke-width:1.16182" />
      <g
         id="g2"
         transform="matrix(1.6797941,0,0,1.6797941,62.83504,-19.005098)">
        <path
           class="cls-4"
           d="m 47.409737,54.537525 c 0.9,1.62 1.66,3.55 3,4.88 0.45,0.47 1.16,-0.24 0.71,-0.7 -1.22,-1.25 -2,-3.17 -2.8,-4.68 a 0.50172203,0.50172203 0 0 0 -0.87,0.5 z"
           id="path171"
           style="fill:#231f20" />
        <path
           class="cls-4"
           d="m 50.239737,53.967525 a 22.42,22.42 0 0 0 -2.24,5.12 0.51790443,0.51790443 0 0 0 1,0.27 21.22,21.22 0 0 1 2.14,-4.88 0.5,0.5 0 0 0 -0.86,-0.51 z"
           id="path172"
           style="fill:#231f20" />
      </g>
      <path
         style="fill:none;fill-opacity:0.75;stroke:#060606;stroke-width:1;stroke-dasharray:none;stroke-opacity:1;paint-order:fill markers stroke"
         d="M 119.39944,80.397462 V 120.73276"
         id="path1-4"
         sodipodi:nodetypes="cc" />
      <path
         style="fill:none;fill-opacity:0.75;stroke:#060606;stroke-width:0.5;stroke-dasharray:none;stroke-opacity:1;paint-order:fill markers stroke"
         d="m 118.75298,80.610494 c 0.50284,0 1.00568,0 1.50852,0"
         id="path4-7" />
      <path
         style="fill:none;fill-opacity:0.75;stroke:#060606;stroke-width:0.5;stroke-dasharray:none;stroke-opacity:1;paint-order:fill markers stroke"
         d="m 121.40385,80.496337 c 0.44847,0 0.89695,0 1.34542,0"
         id="path5-2" />
      <path
         style="fill:none;fill-opacity:0.75;stroke:#060606;stroke-width:0.5;stroke-dasharray:none;stroke-opacity:1;paint-order:fill markers stroke"
         d="m 123.68064,80.489317 c 0.45069,-0.0099 0.89543,0.02446 1.34543,0.02446"
         id="path6-4" />
      <path
         style="fill:none;fill-opacity:0.75;stroke:#060606;stroke-width:0.5;stroke-dasharray:none;stroke-opacity:1;paint-order:fill markers stroke"
         d="m 126.08403,80.610494 c 0.50284,0 1.00567,0 1.50851,0"
         id="path4-4" />
      <path
         style="fill:none;fill-opacity:0.75;stroke:#060606;stroke-width:0.5;stroke-dasharray:none;stroke-opacity:1;paint-order:fill markers stroke"
         d="m 128.73489,80.496337 c 0.44848,0 0.89695,0 1.34543,0"
         id="path5-8" />
      <path
         style="fill:none;fill-opacity:0.75;stroke:#060606;stroke-width:0.5;stroke-dasharray:none;stroke-opacity:1;paint-order:fill markers stroke"
         d="m 131.01168,80.489317 c 0.45069,-0.0099 0.89543,0.02446 1.34543,0.02446"
         id="path6-1" />
      <path
         style="fill:none;fill-opacity:0.75;stroke:#060606;stroke-width:0.5;stroke-dasharray:none;stroke-opacity:1;paint-order:fill markers stroke"
         d="m 133.18239,80.532933 c 0.50284,0 1.00568,0 1.50852,0"
         id="path4-4-3" />
      <path
         style="fill:none;fill-opacity:0.75;stroke:#060606;stroke-width:0.5;stroke-dasharray:none;stroke-opacity:1;paint-order:fill markers stroke"
         d="m 135.83325,80.418776 c 0.44848,0 0.89696,0 1.34543,0"
         id="path5-8-0" />
      <path
         style="fill:none;fill-opacity:0.75;stroke:#060606;stroke-width:0.5;stroke-dasharray:none;stroke-opacity:1;paint-order:fill markers stroke"
         d="m 119.14347,121.30853 c 0.43217,0 0.86433,0 1.2965,0"
         id="path7-9" />
      <path
         style="fill:none;fill-opacity:0.75;stroke:#060606;stroke-width:0.5;stroke-dasharray:none;stroke-opacity:1;paint-order:fill markers stroke"
         d="m 121.45108,121.30853 c 0.35335,0 0.70669,0 1.06004,0"
         id="path8-9" />
      <path
         style="fill:none;fill-opacity:0.75;stroke:#060606;stroke-width:0.5;stroke-dasharray:none;stroke-opacity:1;paint-order:fill markers stroke"
         d="m 123.58746,121.30853 c 0.41011,0.0182 0.81427,-0.0326 1.22312,-0.0326"
         id="path9-4" />
      <circle
         class="cls-6"
         cx="125.65308"
         cy="121.7158"
         r="2.4534051"
         id="circle127-9"
         style="fill:#ff0000;stroke:#231f20;stroke-width:1.52071px;stroke-linecap:round;stroke-miterlimit:10" />
      <path
         class="cls-4"
         d="m 130.71083,118.4627 c -0.23366,1.69211 -0.62898,4.64838 1.56624,5.25304 2.65458,0.75042 3.26554,-2.68108 3.95417,-4.34407 l -1.50321,-0.59991 a 12.133706,12.133706 0 0 0 -0.21776,4.45221 2.3081291,2.3081291 0 0 1 -1.13279,2.32969 4.5200861,4.5200861 0 0 1 -2.56739,-0.36591 c -0.99628,-0.24447 -1.37825,1.31222 -0.38197,1.55669 1.71235,0.42018 3.67378,0.90147 4.89522,-0.71331 1.54222,-2.04767 0.11967,-4.65782 0.96138,-6.87739 0.30348,-0.83326 -1.13746,-1.41789 -1.50704,-0.58435 -0.36957,0.83355 -0.48958,2.7351 -1.29589,3.26342 l -1.15815,0.0789 a 2.9172187,2.9172187 0 0 1 -0.24279,-1.29738 9.4088316,9.4088316 0 0 1 0.13996,-1.78112 c 0.15107,-1.0192 -1.40563,-1.40118 -1.55669,-0.38198 z"
         id="path175"
         style="fill:#231f20;stroke:#231f20;stroke-width:0;stroke-dasharray:none;stroke-opacity:1" />
      <path
         style="fill:none;fill-opacity:0.75;stroke:#231f20;stroke-width:1;stroke-linecap:round;stroke-linejoin:round;stroke-dasharray:none;stroke-opacity:1;paint-order:fill markers stroke"
         d="m 117.35514,116.47254 c 0.27939,0.52094 0.74535,0.89603 1.11574,1.34579 0.38321,0.46533 0.75908,0.98441 0.9777,1.55283 0.10558,0.2745 0.13803,0.49441 0.13803,0.78216 0,0.10353 0,0.20705 0,0.31057 0,0.0307 0,0.1227 0,0.092 0,-0.35103 -0.0677,-0.76366 0.0345,-1.10424 0.18837,-0.6279 0.95476,-1.13538 1.28828,-1.70236 0.17361,-0.29513 0.36838,-0.57894 0.54061,-0.87418 0.0978,-0.16759 0.13667,-0.36672 0.27606,-0.50611"
         id="path3-8" />
      <path
         style="fill:none;fill-opacity:0.75;stroke:#231f20;stroke-width:1;stroke-linecap:round;stroke-linejoin:round;stroke-dasharray:none;stroke-opacity:1;paint-order:fill markers stroke"
         d="m 117.39844,84.060632 c 0.19554,-0.06901 0.39922,-0.118274 0.58662,-0.207043 0.0666,-0.03154 0.12763,-0.224461 0.16104,-0.287559 0.16318,-0.308244 0.38589,-0.590429 0.52911,-0.908697 0.1485,-0.330006 0.24277,-0.65928 0.35658,-1.00071 0.0361,-0.108414 0.0942,-0.214431 0.12652,-0.322068 0.0564,-0.187959 -0.004,-0.736158 0.27606,-0.736158 0.005,0 0.0782,-0.0045 0.0805,0 0.0769,0.153759 -0.0101,0.539518 0,0.70165 0.0248,0.396514 0.1878,0.797329 0.33357,1.161746 0.13917,0.347916 0.34714,0.655815 0.58663,0.943201 0.31369,0.376439 0.69649,0.63309 1.06972,0.931698"
         id="path10-7" />
    </g>
  </g>
  <metadata
     id="metadata178">
    <rdf:RDF>
      <cc:Work
         rdf:about="">
        <dc:title>wright_fisher</dc:title>
      </cc:Work>
    </rdf:RDF>
  </metadata>
</svg>
