<?xml version="1.0" encoding="UTF-8" standalone="no"?>
<svg
   viewBox="0 0 97 215"
   version="1.1"
   id="svg178"
   sodipodi:docname="model_1_1.svg"
   inkscape:version="1.3.2 (091e20e, 2023-11-25)"
   width="97"
   height="215"
   xmlns:inkscape="http://www.inkscape.org/namespaces/inkscape"
   xmlns:sodipodi="http://sodipodi.sourceforge.net/DTD/sodipodi-0.dtd"
   xmlns="http://www.w3.org/2000/svg"
   xmlns:svg="http://www.w3.org/2000/svg"
   xmlns:rdf="http://www.w3.org/1999/02/22-rdf-syntax-ns#"
   xmlns:cc="http://creativecommons.org/ns#"
   xmlns:dc="http://purl.org/dc/elements/1.1/">
  <sodipodi:namedview
     id="namedview178"
     pagecolor="#ffffff"
     bordercolor="#000000"
     borderopacity="0.25"
     inkscape:showpageshadow="2"
     inkscape:pageopacity="0.0"
     inkscape:pagecheckerboard="0"
     inkscape:deskcolor="#d1d1d1"
     inkscape:zoom="2.6900101"
     inkscape:cx="76.951383"
     inkscape:cy="88.475503"
     inkscape:window-width="1384"
     inkscape:window-height="847"
     inkscape:window-x="55"
     inkscape:window-y="111"
     inkscape:window-maximized="0"
     inkscape:current-layer="Layer_1" />
  <defs
     id="defs1">
    <style
       id="style1">.cls-1{fill:#fff;}.cls-2,.cls-3,.cls-7{fill:none;}.cls-2,.cls-3,.cls-5,.cls-6,.cls-7{stroke:#231f20;stroke-linecap:round;}.cls-2,.cls-5,.cls-6,.cls-7{stroke-miterlimit:10;}.cls-3{stroke-linejoin:round;}.cls-4{fill:#231f20;}.cls-5{fill:#d4ebf9;}.cls-5,.cls-6{stroke-width:0.75px;}.cls-6{fill:red;}.cls-7{stroke-width:0.25px;}</style>
  </defs>
  <title
     id="title1">wright_fisher</title>
  <g
     id="Layer_1"
     data-name="Layer 1">
    <path
       class="cls-4"
       d="m 7.17,141 c 0,-1.75 -0.69,-4.47 -3,-4 -1.48,0.29 -2.6,2.6 -1.72,3.92 0.49,0.73 1.83,1 2.6,1.09 a 7.09,7.09 0 0 0 3.45,-0.22 c 2.37,-0.82 1.64,-3.14 0.64,-4.86 a 0.5,0.5 0 0 0 -0.86,0.5 c 0.59,1 1.48,2.78 0,3.4 a 6,6 0 0 1 -3,0.2 c -1.24,-0.2 -2.64,-1 -1.71,-2.41 0.72,-1.1 2.1,-0.47 2.5,0.63 a 5.13,5.13 0 0 1 0.1,1.75 c 0,0.64 1,0.64 1,0 z"
       transform="translate(0.29,0.11)"
       id="path23" />
    <path
       class="cls-4"
       d="m 2.29,136.38 q 3.59,0.19 7.17,0.17 a 0.5,0.5 0 0 0 0,-1 q -3.59,0 -7.17,-0.17 c -0.65,0 -0.65,1 0,1 z"
       transform="translate(0.29,0.11)"
       id="path24" />
    <path
       class="cls-4"
       d="m 4.36,135.16 c -0.49,-0.37 -1.68,-1.33 -1.6,-2 0.1,-0.94 1.54,-0.58 2.06,-0.55 l 4.6,0.23 c 0.64,0 0.64,-1 0,-1 L 4.54,131.6 c -0.73,0 -1.9,-0.25 -2.51,0.31 -1.34,1.22 0.91,3.49 1.83,4.16 0.52,0.38 1,-0.48 0.5,-0.86 z"
       transform="translate(0.29,0.11)"
       id="path25" />
    <path
       class="cls-4"
       d="m 7.19,129.85 c -0.44,-1.47 -1.71,-4.17 -3.73,-3.42 -1.52,0.56 -2.15,2.68 -0.79,3.66 a 7.35,7.35 0 0 0 5.95,0.75 c 2,-0.79 1.51,-3.39 0.89,-5 -0.23,-0.59 -1.2,-0.33 -1,0.27 0.36,0.91 1,2.66 0.12,3.5 -0.61,0.61 -2.06,0.41 -2.84,0.36 -0.78,-0.05 -3.09,-0.23 -2.8,-1.73 0.21,-1.12 1.92,-0.69 2.43,0.05 a 6.79,6.79 0 0 1 0.77,1.77 0.51662365,0.51662365 0 0 0 1,-0.26 z"
       transform="translate(0.29,0.11)"
       id="path26" />
    <path
       class="cls-4"
       d="m 3.4,124.42 c -1,0.09 -0.54,-2 -0.79,-2.54 A 1.13,1.13 0 0 0 1.8,121.22 l -0.13,1 a 11.06,11.06 0 0 1 4.63,1.48 6,6 0 0 0 2.44,1 c 1.8,0 1.3,-2.18 0.68,-3.14 -0.35,-0.53 -1.22,0 -0.87,0.51 0.22,0.33 0.13,1.38 -0.33,1.46 -0.19,0 -0.77,-0.39 -0.94,-0.48 -0.71,-0.36 -1.41,-0.73 -2.14,-1 a 9.63,9.63 0 0 0 -3.47,-0.82 0.5042073,0.5042073 0 0 0 -0.13,1 c 0.17,0.06 0.05,2.15 0.3,2.53 a 1.58,1.58 0 0 0 1.56,0.71 c 0.64,-0.06 0.64,-1.07 0,-1 z"
       transform="translate(0.29,0.11)"
       id="path27" />
    <path
       class="cls-4"
       d="m 5,116.17 c -1.19,0 -3.95,1.25 -3.24,2.92 0.32,0.75 1.74,1.2 2.45,1.39 a 7.1,7.1 0 0 0 3.24,0.09 c 1.55,-0.33 3.53,-1.21 2.21,-3 -1.58,-2.11 -4.52,-2 -6.86,-1.81 -0.63,0 -0.65,1 0,1 A 33.24,33.24 0 0 0 9.59,116 c 0.63,-0.15 0.36,-1.12 -0.26,-1 a 32.89,32.89 0 0 1 -6.56,0.74 v 1 a 11.15,11.15 0 0 1 4,0.1 4.12,4.12 0 0 1 1.85,1.16 c 0.69,0.72 0.43,0.93 -0.31,1.26 a 5.69,5.69 0 0 1 -3.66,0.34 c -0.46,-0.1 -1.39,-0.27 -1.66,-0.67 -0.74,-1.11 1.25,-1.69 2,-1.72 0.75,-0.03 0.64,-1 0,-1 z"
       transform="translate(0.29,0.11)"
       id="path28" />
    <path
       class="cls-4"
       d="m 0.33,113.41 c 1.37,-0.42 3.55,0 5,0.08 1.08,0 2.9,0.44 3.86,0 1.32,-0.53 0.43,-2.19 0,-3.1 -0.27,-0.58 -1.13,-0.07 -0.86,0.51 0.08,0.16 0.69,1.32 0.54,1.52 -0.15,0.2 -0.43,0.09 -0.72,0.09 -1,0 -2.12,0 -3.17,-0.07 -1.48,0 -3.52,-0.46 -4.93,0 -0.61,0.19 -0.35,1.15 0.27,1 z"
       transform="translate(0.29,0.11)"
       id="path29" />
    <path
       class="cls-4"
       d="m 4.32,114.71 a 22.2,22.2 0 0 1 -0.2,-4.31 c 0,-0.64 -1,-0.64 -1,0 a 24.07,24.07 0 0 0 0.23,4.6 c 0.09,0.64 1.06,0.37 1,-0.26 z"
       transform="translate(0.29,0.11)"
       id="path30" />
    <path
       class="cls-4"
       d="m 2.39,109.51 4.68,0.13 c 0.83,0 2.06,0.36 2.71,-0.28 a 0.5,0.5 0 0 0 0.13,-0.49 7.21,7.21 0 0 0 -0.8,-1.53 0.50423209,0.50423209 0 0 0 -0.87,0.51 l 0.46,0.77 c 0.49,0.1 0.4,0.12 -0.25,0.06 -0.65,-0.06 -1.29,0 -1.93,-0.05 l -4.13,-0.12 c -0.64,0 -0.64,1 0,1 z"
       transform="translate(0.29,0.11)"
       id="path31" />
    <path
       class="cls-4"
       d="m 0.33,109.67 0.61,-0.22 c 0.36,-0.13 0.55,-0.73 0.12,-0.91 -0.43,-0.18 -1.08,-0.24 -1.15,0.37 a 0.66,0.66 0 0 0 0.83,0.71 c 0.63,-0.13 0.36,-1.09 -0.27,-1 H 0.4 0.78 l 0.1,0.12 -0.05,0.38 v -0.06 l -0.43,0.25 h 0.16 l 0.12,-0.91 -0.62,0.21 c -0.6,0.22 -0.34,1.18 0.27,1 z"
       transform="translate(0.29,0.11)"
       id="path32" />
    <path
       class="cls-4"
       d="m 5.94,107.13 c 1.79,-0.22 3.87,0.39 4,-2.08 0.13,-2.47 -1.21,-3.26 -3.37,-3.5 -1.56,-0.17 -4.67,0.06 -4.78,2.19 -0.11,2.13 3,2.93 4.51,3.38 a 0.51790443,0.51790443 0 0 0 0.27,-1 A 11.33,11.33 0 0 1 3.73,105 1.24,1.24 0 0 1 4,102.73 5.59,5.59 0 0 1 5.82,102.49 c 1.32,0 3.32,0.29 3.11,2.16 -0.21,1.87 -1.83,1.34 -3,1.48 -0.63,0.07 -0.63,1.07 0,1 z"
       transform="translate(0.29,0.11)"
       id="path33" />
    <path
       class="cls-4"
       d="m 1.77,101 7.88,0.19 a 0.5,0.5 0 0 0 0,-1 L 1.77,100 c -0.64,0 -0.64,1 0,1 z"
       transform="translate(0.29,0.11)"
       id="path34" />
    <path
       class="cls-4"
       d="M 4.38,99.78 C 4.07,99.49 3.09,98.85 2.97,98.45 2.47,96.87 4.41,97.06 5.16,97.04 a 16,16 0 0 1 4.18,0.5 0.51662365,0.51662365 0 0 0 0.26,-1 c -2,-0.49 -5.13,-1.14 -7,-0.12 -2.25,1.21 0,3 1.12,4 0.46,0.44 1.17,-0.26 0.7,-0.71 z"
       transform="translate(0.29,0.11)"
       id="path35" />
    <path
       class="cls-4"
       d="m 3.88,90.53 c -0.85,-0.09 -1.94,0 -2.32,0.87 -0.38,0.87 0.44,2.18 1.33,2.69 a 2,2 0 0 0 2.58,0 16.26,16.26 0 0 0 1.27,-2 C 7.26,91.34 8.41,90.83 8.8,92.01 a 2,2 0 0 1 -0.38,2 C 7.99,94.49 8.69,95.2 9.12,94.72 10.23,93.5 10.23,90.5 8.19,90.15 7.19,89.98 6.52,90.7 6,91.45 5.48,92.2 5.14,93.24 4.41,93.45 3.94,93.59 2.77,93.1 2.66,92.53 l 0.51,-1 a 5.65,5.65 0 0 1 0.71,0 c 0.64,0.07 0.63,-0.93 0,-1 z"
       transform="translate(0.29,0.11)"
       id="path36" />
    <path
       class="cls-4"
       d="m 0.67,143.53 c -1.91,1.51 -0.64,3.85 1,4.91 2.14,1.33 5.13,1.32 6.83,-0.71 1.1,-1.31 1.68,-4 -0.22,-5 -1.67,-0.8 -3.91,0.76 -2.76,2.54 0.35,0.53 1.2,0.05 0.87,-0.51 A 2.1,2.1 0 0 1 6,143.25 l -0.5,0.5 a 10.58,10.58 0 0 0 4,-0.49 c 0.61,-0.19 0.35,-1.15 -0.27,-1 a 10,10 0 0 1 -3.68,0.45 0.51,0.51 0 0 0 -0.5,0.5 3.65,3.65 0 0 0 0.55,2.06 l 0.87,-0.51 q 0.66,-2.31 2,-0.43 a 2.79,2.79 0 0 1 -0.05,1.67 3.57,3.57 0 0 1 -2.55,2.29 4.81,4.81 0 0 1 -3.4,-0.56 c -1.12,-0.62 -2.74,-2.18 -1.09,-3.49 0.5,-0.4 -0.21,-1.1 -0.71,-0.7 z"
       transform="translate(0.29,0.11)"
       id="path37" />
    <path
       class="cls-1"
       d="m 26.2,61.3 a 26.72,26.72 0 0 0 -5.27,0.63"
       id="path2"
       style="fill:#ffffff" />
    <path
       class="cls-2"
       d="m 25.46,61.3 a 18.35,18.35 0 0 0 -4.34,0.63"
       id="path3"
       style="fill:none;stroke:#231f20;stroke-linecap:round;stroke-miterlimit:10" />
    <path
       class="cls-1"
       d="m 25.55,103.85 -5.57,0.34"
       id="path4"
       style="fill:#ffffff" />
    <path
       class="cls-2"
       d="m 24.96,103.85 -4.25,0.34"
       id="path5"
       style="fill:none;stroke:#231f20;stroke-linecap:round;stroke-miterlimit:10" />
    <path
       class="cls-1"
       d="m 26.2,124 a 32.26,32.26 0 0 0 -6.12,0.63"
       id="path6"
       style="fill:#ffffff" />
    <path
       class="cls-2"
       d="m 25.46,124 a 19,19 0 0 0 -4.67,0.63"
       id="path7"
       style="fill:none;stroke:#231f20;stroke-linecap:round;stroke-miterlimit:10" />
    <path
       class="cls-3"
       d="m 16.63,62.5 a 16.24,16.24 0 0 0 2.27,-2.39 c 0.13,-0.18 0.12,-0.53 -0.12,-0.47 0,1.31 0,2.61 -0.07,3.92 a 2.07,2.07 0 0 1 -0.29,1.22 1.08,1.08 0 0 1 -1.29,0.35 20.47,20.47 0 0 0 2.93,-0.14"
       id="path9"
       style="fill:none;stroke:#231f20;stroke-linecap:round;stroke-linejoin:round" />
    <path
       class="cls-3"
       d="m 16.65,81.34 a 3.51,3.51 0 0 1 0.23,-1.61 1.64,1.64 0 0 1 1.71,0.25 2.34,2.34 0 0 1 -0.07,2.33 10.31,10.31 0 0 1 -1.64,2.55 6.87,6.87 0 0 1 3.37,0.07"
       id="path10"
       style="fill:none;stroke:#231f20;stroke-linecap:round;stroke-linejoin:round" />
    <path
       class="cls-3"
       d="m 16.52,101.82 a 3.31,3.31 0 0 1 1.47,-0.71 1.49,1.49 0 0 1 -1,1.81 2.27,2.27 0 0 1 1.12,-0.28 1,1 0 0 1 0.87,0.77 1.49,1.49 0 0 1 -0.18,1 1.86,1.86 0 0 1 -3.05,0.49"
       id="path11"
       style="fill:none;stroke:#231f20;stroke-linecap:round;stroke-linejoin:round" />
    <path
       class="cls-3"
       d="m 19.02,121.84 a 18,18 0 0 0 0.16,6"
       id="path12"
       style="fill:none;stroke:#231f20;stroke-linecap:round;stroke-linejoin:round" />
    <path
       class="cls-3"
       d="m 18.83,124.51 a 1.24,1.24 0 0 0 0.22,-0.58"
       id="path13"
       style="fill:none;stroke:#231f20;stroke-linecap:round;stroke-linejoin:round" />
    <path
       class="cls-3"
       d="m 18.29,124.75 a 0.86,0.86 0 0 0 0.54,-0.24"
       id="path14"
       style="fill:none;stroke:#231f20;stroke-linecap:round;stroke-linejoin:round" />
    <path
       class="cls-3"
       d="m 16.29,124.36 a 2.28,2.28 0 0 0 2,0.39"
       id="path15"
       style="fill:none;stroke:#231f20;stroke-linecap:round;stroke-linejoin:round" />
    <path
       class="cls-3"
       d="m 16.14,122.3 a 1.55,1.55 0 0 0 0.19,2.06"
       id="path16"
       style="fill:none;stroke:#231f20;stroke-linecap:round;stroke-linejoin:round" />
    <path
       class="cls-2"
       d="m 24.96,82.5 a 22.42,22.42 0 0 1 -4.17,0.34"
       id="path17"
       style="fill:none;stroke:#231f20;stroke-linecap:round;stroke-miterlimit:10" />
    <path
       class="cls-1"
       d="m 26.29,143.11 a 28.39,28.39 0 0 0 -5.6,0.68"
       id="path18"
       style="fill:#ffffff" />
    <path
       class="cls-2"
       d="m 25.55,143.11 a 16.91,16.91 0 0 0 -4.28,0.68"
       id="path19"
       style="fill:none;stroke:#231f20;stroke-linecap:round;stroke-miterlimit:10" />
    <path
       class="cls-3"
       d="m 17.43,142.72 a 0.27,0.27 0 0 0 -0.13,0.46 1.18,1.18 0 0 1 1.46,-0.18 1.28,1.28 0 0 1 0.5,1.43 2.33,2.33 0 0 1 -1.65,1.27 1.25,1.25 0 0 1 -0.71,0.09 0.47,0.47 0 0 1 -0.33,-0.58"
       id="path20"
       style="fill:none;stroke:#231f20;stroke-linecap:round;stroke-linejoin:round" />
    <path
       class="cls-3"
       d="m 17.29,142.88 a 4.32,4.32 0 0 1 0.2,-2 l 3,-0.19"
       id="path21"
       style="fill:none;stroke:#231f20;stroke-linecap:round;stroke-linejoin:round" />
    <path
       class="cls-1"
       d="m 26.29,164.11 a 28.39,28.39 0 0 0 -5.6,0.68"
       id="path131"
       style="fill:#ffffff" />
    <path
       class="cls-2"
       d="m 25.55,164.11 a 16.91,16.91 0 0 0 -4.28,0.68"
       id="path132"
       style="fill:none;stroke:#231f20;stroke-linecap:round;stroke-miterlimit:10" />
    <path
       class="cls-1"
       d="m 26.29,185.11 a 28.39,28.39 0 0 0 -5.6,0.68"
       id="path141"
       style="fill:#ffffff" />
    <path
       class="cls-2"
       d="m 25.55,185.11 a 16.91,16.91 0 0 0 -4.28,0.68"
       id="path142"
       style="fill:none;stroke:#231f20;stroke-linecap:round;stroke-miterlimit:10" />
    <path
       class="cls-4"
       d="m 20.15,162.11 a 2,2 0 0 0 -3.62,-0.2 c -0.66,1.48 -0.84,4.64 0.73,5.66 1.3,0.84 3.49,-0.57 3.19,-2.1 -0.3,-1.53 -2.86,-2.24 -3.78,-0.83 -0.35,0.54 0.51,1 0.86,0.5 a 1.22,1.22 0 0 1 1.42,-0.1 0.92,0.92 0 0 1 -0.06,1.53 c -1,0.6 -1.61,-0.42 -1.74,-1.32 a 6,6 0 0 1 0,-1.64 5.69,5.69 0 0 1 0.13,-0.81 c 0.16,-0.46 1.36,-2.16 1.88,-0.43 0.18,0.62 1.15,0.35 1,-0.26 z"
       id="path151"
       style="fill:#231f20" />
    <path
       class="cls-4"
       d="m 16.6,183.61 a 28.52,28.52 0 0 1 3.33,-0.13 l -0.43,-0.75 a 8.92,8.92 0 0 0 -1.83,6.07 c 0.05,0.64 1.05,0.64 1,0 a 8.13,8.13 0 0 1 1.69,-5.57 c 0.24,-0.32 -0.08,-0.74 -0.43,-0.75 a 28.52,28.52 0 0 0 -3.33,0.13 c -0.63,0.06 -0.64,1.06 0,1 z"
       id="path152"
       style="fill:#231f20" />
    <path
       class="cls-4"
       d="m 17.13,187.01 a 21.62,21.62 0 0 1 2.4,-0.22 c 0.65,0 0.65,-1 0,-1 a 23.69,23.69 0 0 0 -2.66,0.25 c -0.64,0.1 -0.37,1.06 0.26,1 z"
       id="path153"
       style="fill:#231f20" />
    <path
       class="cls-21"
       d="m 4.0625727,129.76361 c 3.245621,0.2111 6.4252753,-1.0159 9.6577033,-0.36942 0.633292,0.11875 0.897164,-0.83119 0.263872,-0.94993 -3.337977,-0.67288 -6.5967923,0.54093 -9.9215753,0.32984 -0.633292,0 -0.633292,0.94993 0,0.98951 z"
       id="path328"
       style="fill:#231f20;stroke-width:1.31936" />
    <path
       class="cls-21"
       d="m 4.4187997,133.61614 a 30.925759,30.925759 0 0 1 -0.633292,-8.47028 c 0,-0.63329 -0.949938,-0.63329 -0.989519,0 a 32.350666,32.350666 0 0 0 0.672873,8.80012 c 0.131936,0.6201 1.095067,0.35623 0.949938,-0.26387 z"
       id="path329"
       style="fill:#231f20;stroke-width:1.31936" />
    <path
       class="cls-21"
       d="m 7.6644207,124.71047 a 26.387166,26.387166 0 0 0 6.1218233,-0.2111 c 0.633292,-0.10554 0.356227,-1.05548 -0.263872,-0.96313 a 24.170644,24.170644 0 0 1 -5.8579513,0.18471 c -0.633292,0 -0.620098,0.93675 0,0.98952 z"
       id="path330"
       style="fill:#231f20;stroke-width:1.31936" />
    <path
       class="cls-21"
       d="m 4.9597367,124.36744 h 0.303452 a 0.50135616,0.50135616 0 0 0 0.211097,-0.8312 0.67287275,0.67287275 0 0 0 -1.029099,0 c -0.474969,0.43539 0.224291,1.13465 0.69926,0.69926 l 0.105549,-0.0923 -0.356227,0.0792 h 0.131936 l -0.356227,-0.14513 0.105549,0.0923 0.22429,-0.77842 h -0.303452 c -0.620098,0.13194 -0.356227,1.09507 0.263872,0.94994 z"
       id="path331"
       style="fill:#231f20;stroke-width:1.31936" />
    <path
       class="cls-21"
       d="m 5.5006737,120.7524 q 4.142785,0 8.2459893,-0.30346 c 0.633292,0 0.633292,-1.0291 0,-0.98951 q -4.1163983,0.25067 -8.2459893,0.30345 a 0.50135616,0.50135616 0 0 0 0,0.98952 z"
       id="path332"
       style="fill:#231f20;stroke-width:1.31936" />
    <path
       class="cls-21"
       d="m 7.9414857,119.44146 c -0.659679,-0.46822 -2.203328,-1.42139 -0.778421,-2.54178 0.36942,-0.30099 1.490875,-0.10038 1.926263,-0.11698 1.3193593,0 2.7574593,0 4.1295923,0 a 0.50135616,0.6354429 0 0 0 0.250678,-1.17056 l -0.14513,-0.11711 c -0.540936,-0.41805 -1.042293,0.65217 -0.488162,1.08695 l 0.131936,0.10038 0.250678,-1.17055 c -1.464488,-0.0167 -2.942169,-0.0167 -4.3670763,-0.0167 -0.897164,0 -2.216522,-0.16721 -2.994944,0.602 -1.596423,1.67222 0.554131,3.62872 1.622811,4.38122 0.567324,0.3846 1.055487,-0.70234 0.501356,-1.08694 z"
       id="path333"
       style="fill:#231f20;stroke-width:1.48535" />
    <path
       class="cls-21"
       d="m 8.3768747,115.25067 a 5.2774333,5.2774333 0 0 1 -1.385326,-1.51726 2.6387166,2.6387166 0 0 1 -0.422195,-1.05549 0.50135616,0.50135616 0 0 1 0.197904,-0.65968 0.56732408,0.56732408 0 0 1 0.844389,-0.50135 18.048822,18.048822 0 0 1 5.5676923,0.44858 c 0.620098,0.0924 0.88397,-0.85758 0.263872,-0.96313 a 37.48297,37.48297 0 0 0 -4.6969163,-0.46178 c -0.804809,0 -2.440813,-0.36942 -3.060911,0.32984 -0.620099,0.69926 -0.171517,1.80752 0,2.44082 a 5.7524023,5.7524023 0 0 0 1.939456,2.63871 c 0.488163,0.38262 1.200617,-0.30345 0.69926,-0.69926 z"
       id="path334"
       style="fill:#231f20;stroke-width:1.31936" />
    <path
       class="cls-21"
       d="m 10.012879,107.18301 c -0.2374843,-1.31936 -1.3193583,-4.07682 -3.0872983,-3.81295 a 2.6387166,2.6387166 0 0 0 -1.39852,3.95807 3.6018482,3.6018482 0 0 0 2.638716,0.94994 21.228475,21.228475 0 0 0 4.8420453,0 c 1.939457,-0.3958 1.134649,-2.99494 0.51455,-4.26152 -0.277065,-0.56733 -1.134648,0 -0.844389,0.50135 0.290259,0.50136 0.818002,1.88668 0.51455,2.41443 -0.303453,0.52774 -0.580518,0.32984 -1.015906,0.38261 a 30.028595,30.028595 0 0 1 -3.4435263,0 4.2483338,4.2483338 0 0 1 -1.649197,-0.13193 l -0.752035,-1.93946 c 0.14513,-0.60691 0.461776,-0.77842 0.949938,-0.50136 1.174229,0.10555 1.596424,1.8471 1.76794,2.79704 0.118743,0.63329 1.0686813,0.35623 0.9631323,-0.26387 z"
       id="path335"
       style="fill:#231f20;stroke-width:1.31936" />
    <path
       class="cls-1"
       d="m 20.42,40.67 4.87,-0.62 z"
       id="path1"
       style="fill:#ffffff" />
    <line
       class="cls-2"
       x1="24.82"
       y1="40.049999"
       x2="21.1"
       y2="40.669998"
       id="line1"
       style="fill:none;stroke:#231f20;stroke-linecap:round;stroke-miterlimit:10" />
    <path
       class="cls-2"
       d="m 15.74,39.34 a 11,11 0 0 0 0.33,3.7 2.64,2.64 0 0 0 2.87,-1.51 3.3,3.3 0 0 0 -0.52,-3.1 1.24,1.24 0 0 0 -0.78,-0.58 1.28,1.28 0 0 0 -0.69,0.16 c -1,0.5 -1.66,1.5 -1.21,1.33 z"
       id="path8"
       style="fill:none;stroke:#231f20;stroke-linecap:round;stroke-miterlimit:10" />
    <path
       class="cls-2"
       d="m 40.11,31.21 c 0.06,-1.25 0,-1.74 0,-2.5"
       id="path40"
       style="fill:none;stroke:#231f20;stroke-linecap:round;stroke-miterlimit:10" />
    <path
       class="cls-2"
       d="m 47.11,31.17 c 0.06,-1.25 0,-1.74 0,-2.5"
       id="path41"
       style="fill:none;stroke:#231f20;stroke-linecap:round;stroke-miterlimit:10" />
    <path
       class="cls-2"
       d="m 54.11,31.11 c 0.06,-1.24 0,-1.74 0,-2.5"
       id="path42"
       style="fill:none;stroke:#231f20;stroke-linecap:round;stroke-miterlimit:10" />
    <path
       class="cls-2"
       d="m 61.11,31.11 c 0.06,-1.24 0,-1.74 0,-2.49"
       id="path43"
       style="fill:none;stroke:#231f20;stroke-linecap:round;stroke-miterlimit:10" />
    <path
       class="cls-2"
       d="m 68.11,31.11 c 0.06,-1.25 0,-1.75 0,-2.5"
       id="path44"
       style="fill:none;stroke:#231f20;stroke-linecap:round;stroke-miterlimit:10" />
    <path
       class="cls-2"
       d="m 75.11,31.02 c 0.06,-1.25 0,-1.74 0,-2.5"
       id="path45"
       style="fill:none;stroke:#231f20;stroke-linecap:round;stroke-miterlimit:10" />
    <path
       class="cls-2"
       d="m 82.11,30.98 c 0.06,-1.25 0,-1.74 0,-2.5"
       id="path46"
       style="fill:none;stroke:#231f20;stroke-linecap:round;stroke-miterlimit:10" />
    <path
       class="cls-2"
       d="m 89.12,31.34 c -54.31,0.2 -28.46,-0.09 -56,0"
       id="path38"
       style="fill:none;stroke:#231f20;stroke-linecap:round;stroke-miterlimit:10" />
    <path
       class="cls-2"
       d="m 33.11,31.25 c 0.06,-1.25 0,-1.75 0,-2.5"
       id="path39"
       style="fill:none;stroke:#231f20;stroke-linecap:round;stroke-miterlimit:10" />
    <path
       class="cls-2"
       d="m 89.11,30.94 c 0.06,-1.25 0,-1.74 0,-2.5"
       id="path47"
       style="fill:none;stroke:#231f20;stroke-linecap:round;stroke-miterlimit:10" />
    <path
       class="cls-4"
       d="m 31.18,23.11 c -0.2,1.5 0.11,3.39 1.78,3.91 1.67,0.52 2.76,-1.2 2.86,-2.71 0.1,-1.51 0,-4 -1.8,-4.42 -2,-0.45 -2.49,2.33 -2.83,3.68 -0.16,0.62 0.81,0.89 1,0.26 a 8,8 0 0 1 0.62,-2.13 c 1.28,-2.1 2,0.48 2,1.44 0,0.96 0.14,2.63 -1,2.95 -1.52,0.43 -1.82,-1.78 -1.69,-2.71 0.09,-0.63 -0.88,-0.9 -1,-0.27 z"
       id="path48"
       style="fill:#231f20" />
    <path
       class="cls-4"
       d="m 87.625356,24.046355 a 6,6 0 0 0 2.267546,-3.339137 l -1.005914,-0.07096 a 33.45,33.45 0 0 1 -0.21675,5.84286 l 0.607738,-0.396428 a 3.51,3.51 0 0 0 -2.00242,0.0178 0.5,0.5 0 0 0 0.05881,0.998269 11,11 0 0 0 3.240274,-0.09072 c 0.624792,-0.10693 0.575964,-1.105788 -0.05881,-0.99827 a 10.27,10.27 0 0 1 -2.998336,0.116538 l 0.05881,0.998269 a 2.58,2.58 0 0 1 1.461002,-0.02597 0.5,0.5 0 0 0 0.588948,-0.375287 34.72,34.72 0 0 0 0.240802,-6.114745 0.50487652,0.50487652 0 0 0 -1.006503,-0.08095 5,5 0 0 1 -1.843041,2.723105 c -0.507911,0.390547 0.07175,1.217888 0.549712,0.829106 z"
       id="path49"
       style="fill:#231f20" />
    <path
       class="cls-4"
       d="m 39.06,23.98 a 6,6 0 0 0 2.46,-3.2 l -1,-0.13 a 33.45,33.45 0 0 1 -0.56,5.82 l 0.63,-0.36 a 3.51,3.51 0 0 0 -2,-0.1 0.5,0.5 0 0 0 0,1 11,11 0 0 0 3.24,0.1 c 0.63,-0.07 0.64,-1.07 0,-1 a 10.27,10.27 0 0 1 -3,-0.06 v 1 a 2.58,2.58 0 0 1 1.46,0.06 0.5,0.5 0 0 0 0.61,-0.34 34.72,34.72 0 0 0 0.6,-6.09 0.50487622,0.50487622 0 0 0 -1,-0.14 5,5 0 0 1 -2,2.61 c -0.53,0.36 0,1.22 0.5,0.86 z"
       id="path49-8"
       style="fill:#231f20" />
    <path
       class="cls-4"
       d="m 46.86,22.33 -0.13,-0.3 1.42,-0.72 c 0.22,0.11 0.19,0.87 0.16,1 a 4.62,4.62 0 0 1 -1.21,1.93 c -0.46,0.55 -1.41,1.28 -1.52,2 a 0.55,0.55 0 0 0 0.23,0.57 c 0.48,0.33 1,0.13 1.52,0.08 a 17.22,17.22 0 0 1 2.27,-0.07 0.5,0.5 0 0 0 0,-1 15.45,15.45 0 0 0 -1.8,0 c -0.36,0 -1.19,0.29 -1.48,0.09 l 0.23,0.57 c 0,-0.28 0.66,-0.86 0.83,-1.07 0.17,-0.21 0.56,-0.65 0.82,-1 a 5.73,5.73 0 0 0 0.91,-1.3 2.47,2.47 0 0 0 -0.31,-2.57 c -1.43,-1.61 -3.67,0.25 -2.91,2.07 0.25,0.58 1.22,0.33 1,-0.27 z"
       id="path50"
       style="fill:#231f20" />
    <path
       class="cls-4"
       d="m 53.39,21.36 c 0.26,-0.53 0.42,-0.5 0.46,0.09 0.24,0.3 0.22,0.52 -0.06,0.69 a 5,5 0 0 1 -0.46,0.57 c -0.31,0.47 0.41,1 0.79,0.61 1,-1.09 1.62,1.45 1.24,2 -0.62,1 -2.29,1.27 -2.73,0 -0.2,-0.61 -1.17,-0.35 -1,0.26 a 2.15,2.15 0 0 0 2.16,1.67 3.54,3.54 0 0 0 2.7,-1.83 c 0.54,-1.62 -1.53,-4.6 -3.12,-2.8 l 0.79,0.61 c 0.58,-0.87 1.62,-1.86 0.71,-3 -0.91,-1.14 -1.83,-0.13 -2.39,0.61 -0.39,0.51 0.48,1 0.87,0.5 z"
       id="path51"
       style="fill:#231f20" />
    <path
       class="cls-4"
       d="m 58.76,19.54 c -0.14,1 -0.47,2.75 0.06,3.68 0.28,0.49 0.89,0.56 1.39,0.7 0.5,0.14 1.56,0.34 2,-0.22 0.6,-0.76 0.19,-2.61 0.11,-3.48 -0.07,-0.63 -1.05,-0.65 -1,0 0.16,2.22 -0.24,4.43 0,6.65 0.07,0.64 1.07,0.64 1,0 -0.23,-2.22 0.17,-4.43 0,-6.65 h -1.03 c 0.09,0.93 0.69,3.35 -1.17,2.54 a 2,2 0 0 0 -0.42,0 c -0.37,-0.47 -0.07,-2.42 0,-2.94 0.07,-0.52 -0.88,-0.91 -1,-0.27 z"
       id="path52"
       style="fill:#231f20" />
    <path
       class="cls-4"
       d="m 86.35,22.31 q 0.6,-0.94 1,0.15 a 1.57,1.57 0 0 1 0,1 4.22,4.22 0 0 1 -0.82,1.42 13.64,13.64 0 0 0 -1.44,1.93 0.51,0.51 0 0 0 0.57,0.73 26.65,26.65 0 0 1 3.86,-0.43 0.5,0.5 0 0 0 0,-1 27.63,27.63 0 0 0 -4.16,0.39 l 0.57,0.73 c 0.91,-1.65 3.74,-3.86 1.87,-5.91 -1.28,-1.4 -3.44,0.11 -2.16,1.66 0.41,0.49 1.12,-0.22 0.71,-0.71 z"
       id="path53"
       style="fill:#231f20" />
    <path
       class="cls-4"
       d="m 90.03,20.95 c 0.08,1.94 0.13,3.88 0.11,5.82 a 0.5,0.5 0 0 0 1,0 c 0,-1.94 0,-3.88 -0.11,-5.82 0,-0.64 -1,-0.64 -1,0 z"
       id="path54"
       style="fill:#231f20" />
    <path
       class="cls-4"
       d="m 90.29,20.87 a 60.88,60.88 0 0 0 3.22,6.15 0.5,0.5 0 0 0 0.93,-0.25 c 0.13,-2.07 0.13,-4.29 0,-6.36 0,-0.64 -1,-0.64 -1,0 0.08,2.07 0.08,4.29 0,6.36 l 0.94,-0.26 a 60.81,60.81 0 0 1 -3.23,-6.14 c -0.26,-0.59 -1.12,-0.08 -0.86,0.5 z"
       id="path55"
       style="fill:#231f20" />
    <path
       class="cls-4"
       d="m 72.68,23.91 a 0.68,0.68 0 0 0 -1.36,0 0.51,0.51 0 0 0 0.5,0.5 0.75,0.75 0 0 0 0.64,-1.14 0.52,0.52 0 0 0 -0.69,-0.18 0.75,0.75 0 0 0 -0.36,0.7 c 0.08,0.63 1.08,0.63 1,0 v -0.07 l -0.23,0.3 0.09,-0.06 -0.69,-0.18 0.23,-0.37 0.5,0.5 -0.49,0.27 -0.15,-0.35 v 0.07 c 0,0.64 1,0.65 1,0 z"
       id="path56"
       style="fill:#231f20" />
    <path
       class="cls-4"
       d="m 75.66,23.85 v 0 l -0.37,0.26 v 0 l -0.35,-0.14 v 0 l -0.13,-0.49 c 0.06,-0.09 0.05,-0.1 0,0 l -0.2,0.16 a 0.5,0.5 0 0 0 0.36,0.85 0.62,0.62 0 0 0 0.6,-0.8 c -0.14,-0.63 -1.1,-0.37 -1,0.26 v 0.09 -0.39 l -0.06,0.08 0.44,-0.25 h 0.04 l 0.35,0.86 c 0.26,-0.21 0.54,-0.41 0.49,-0.78 a 0.57,0.57 0 0 0 -0.54,-0.45 0.5,0.5 0 0 0 -0.43,0.25 v 0 a 0.5,0.5 0 0 0 0.86,0.5 z"
       id="path57"
       style="fill:#231f20" />
    <path
       class="cls-4"
       d="m 77.63,23.35 -0.14,0.53 a 0.51,0.51 0 0 0 0.48,0.63 0.79,0.79 0 0 0 0.79,-0.78 c 0.06,-0.64 -0.94,-0.63 -1,0 l 0.21,-0.22 0.49,0.63 0.13,-0.53 c 0.16,-0.62 -0.81,-0.89 -1,-0.26 z"
       id="path58"
       style="fill:#231f20" />
    <path
       class="cls-4"
       d="m 65.71,0.64 a 66.54,66.54 0 0 0 3.27,10.71 c 0.26,0.59 1.12,0.08 0.87,-0.51 A 65.72,65.72 0 0 1 66.67,0.38 c -0.15,-0.63 -1.12,-0.36 -1,0.26 z"
       id="path59"
       style="fill:#231f20" />
    <path
       class="cls-4"
       d="m 69.44,0.39 c -0.83,3.72 -2.71,7.24 -4.15,10.72 -0.25,0.59 0.71,0.85 1,0.26 1.46,-3.47 3.35,-7 4.17,-10.7 0.14,-0.63 -0.82,-0.9 -1,-0.27 z"
       id="path60"
       style="fill:#231f20" />
    <path
       class="cls-4"
       d="M 70.86,0.26 C 69.99,2.15 70.2,4.56 70.19,6.6 a 7.9,7.9 0 0 0 1.59,5.34 c 0.41,0.5 1.11,-0.22 0.71,-0.71 -1.27,-1.54 -1.33,-3.36 -1.29,-5.27 0,-1.6 -0.16,-3.72 0.52,-5.2 0.27,-0.58 -0.6,-1.09 -0.86,-0.5 z"
       id="path61"
       style="fill:#231f20" />
    <path
       class="cls-4"
       d="m 73.84,0.72 c -0.31,3.19 -0.78,6.77 -0.32,10 0.2,1.41 1,1.72 2.36,1.41 0.63,-0.13 0.36,-1.1 -0.27,-1 -1.73,0.38 -1.14,-4.14 -1.12,-5 0,-1.8 0.18,-3.59 0.35,-5.39 0.06,-0.64 -0.94,-0.63 -1,0 z"
       id="path62"
       style="fill:#231f20" />
    <path
       class="cls-4"
       d="m 72.23,6.41 a 16.2,16.2 0 0 1 2.06,-0.3 h 0.9 0.45 c 0.38,0.07 0.4,0 0.05,-0.19 l 0.13,-0.49 -0.06,0.08 c -0.41,0.48 0.29,1.19 0.71,0.7 0.42,-0.49 -0.03,-1.1 -0.65,-1.1 a 15.19,15.19 0 0 0 -3.86,0.37 c -0.63,0.13 -0.36,1.1 0.27,1 z"
       id="path63"
       style="fill:#231f20" />
    <path
       class="cls-4"
       d="m 76.82,0.76 a 12.87,12.87 0 0 1 0.17,10.35 c -0.24,0.6 0.73,0.86 1,0.27 A 13.89,13.89 0 0 0 77.69,0.26 c -0.27,-0.59 -1.13,-0.08 -0.87,0.5 z"
       id="path66"
       style="fill:#231f20" />
    <path
       class="cls-4"
       d="M 27.17,3.19 C 26.88,1.98 25.46,-0.18 24.23,1.6 c -0.65,1 -0.34,2.58 -0.3,3.62 0.08,2 0.18,3.93 0.27,5.9 0,0.64 1,0.64 1,0 L 24.98,6.33 c 0,-0.72 -0.08,-1.44 -0.09,-2.16 0,-0.35 0,-0.7 0,-1 q 1.32,-0.81 1.32,0.33 c 0.15,0.63 1.12,0.36 1,-0.26 z"
       id="path159"
       style="fill:#231f20" />
    <path
       class="cls-4"
       d="m 23.46,6.34 a 2.49,2.49 0 0 1 2,0 c 0.58,0.25 1.09,-0.61 0.5,-0.86 a 3.61,3.61 0 0 0 -3,0 c -0.58,0.27 -0.07,1.13 0.51,0.86 z"
       id="path160"
       style="fill:#231f20" />
    <path
       class="cls-4"
       d="m 27.87,6.03 c -0.15,-1 0.19,-0.31 0.6,-0.15 a 1.23,1.23 0 0 0 0.6,0.1 c 0.57,-0.06 0.84,-0.47 1,-1 l -1,-0.13 -0.28,2.96 a 9.55,9.55 0 0 0 -0.22,2.49 c 0.19,1.12 1.21,1.12 2,0.6 0.54,-0.35 0,-1.22 -0.5,-0.87 -0.76,0.49 -0.43,-1 -0.42,-1.09 l 0.15,-1.35 0.29,-2.7 c 0.07,-0.6 -0.8,-0.62 -1,-0.14 -0.2,0.48 -0.93,-0.34 -1.1,-0.38 a 0.81,0.81 0 0 0 -0.77,0.21 1.73,1.73 0 0 0 -0.35,1.71 c 0.09,0.64 1.06,0.37 1,-0.26 z"
       id="path161"
       style="fill:#231f20" />
    <path
       class="cls-4"
       d="m 31.68,8.98 c 1.5,0.15 3.09,-0.69 3,-2.39 0,-1.2 -1.24,-2.64 -2.56,-2.18 A 1.55,1.55 0 0 0 31.2,5.8 13.9,13.9 0 0 0 31.04,9.02 2.77,2.77 0 0 0 31.86,10.9 c 0.72,0.61 1.55,0.27 2.38,0.23 0.64,0 0.65,-1 0,-1 -0.81,0 -1.93,0.16 -2.16,-0.83 a 9.25,9.25 0 0 1 0,-2.52 3.48,3.48 0 0 1 0.21,-1.1 c 0.38,-0.61 1,-0.13 1.22,0.29 0.82,1.36 -0.66,2.12 -1.8,2 -0.64,-0.06 -0.64,0.94 0,1 z"
       id="path162"
       style="fill:#231f20" />
    <path
       class="cls-4"
       d="M 38.9,5.98 C 38.69,4.66 37.44,3.55 36.19,4.59 c -1.25,1.04 -1,3.81 -0.73,5.21 0.26,1.24 1.14,2.68 2.47,1.55 1.33,-1.13 1,-4 1.06,-5.68 h -1 c 0.12,3.06 0.32,6.12 0.58,9.17 0.06,0.64 1.06,0.65 1,0 -0.26,-3.05 -0.46,-6.11 -0.58,-9.17 a 0.5,0.5 0 0 0 -1,0 c 0,0.87 0.39,3.47 -0.25,4.11 l -1.25,0.11 a 9,9 0 0 1 -0.22,-2 V 7.17 c -0.18,-1.27 0.36,-1.58 1.64,-0.92 0.1,0.63 1.06,0.36 1,-0.27 z"
       id="path163"
       style="fill:#231f20" />
    <path
       class="cls-4"
       d="m 39.74,4.68 a 38,38 0 0 0 0.18,5.11 c 0.1,0.7 0.38,1.49 1.23,1.44 2.62,-0.13 2.21,-4.29 2,-5.89 -0.08,-0.62 -1,-0.65 -1,0 l 0.45,5.82 c 0,0.64 1,0.64 1,0 L 43.15,5.34 h -1 a 14.75,14.75 0 0 1 0.14,2.57 c 0,0.43 -0.41,2.89 -1.31,2.12 -0.31,-0.27 -0.15,-2.09 -0.16,-2.52 0,-0.94 0,-1.89 -0.06,-2.83 a 0.5,0.5 0 0 0 -1,0 z"
       id="path164"
       style="fill:#231f20" />
    <path
       class="cls-4"
       d="m 44.52,8.84 a 2.32,2.32 0 0 0 2.91,-2.28 c 0,-1.11 -1,-3.07 -2.39,-2.35 -1.39,0.72 -1.17,4.37 -1,5.68 0.37,2.12 2.49,1.79 4.09,1.19 0.6,-0.22 0.34,-1.19 -0.26,-1 -0.89,0.33 -2.41,0.9 -2.82,-0.31 A 7.29,7.29 0 0 1 44.96,7.39 c 0,-0.43 0,-2.56 1,-2.13 0.43,0.19 0.5,1.26 0.39,1.63 a 1.29,1.29 0 0 1 -1.6,0.95 0.51662365,0.51662365 0 0 0 -0.26,1 z"
       id="path165"
       style="fill:#231f20" />
    <path
       class="cls-4"
       d="m 48.21,4.41 0.31,7.09 c 0,0.64 1,0.64 1,0 a 19.71,19.71 0 0 1 0.1,-2.88 c 0.1,-0.71 0.37,-2.48 1.12,-2.81 1.34,-0.59 1.1,4.88 1.16,5.56 0.06,0.68 1,0.64 1,0 C 52.76,9.68 53.12,7.89 52.52,6.27 52.29,5.64 51.7,4.5 50.87,4.57 50.04,4.64 49.29,6.03 49.07,6.7 a 12.56,12.56 0 0 0 -0.55,4.8 h 1 L 49.21,4.41 c 0,-0.65 -1,-0.65 -1,0 z"
       id="path166"
       style="fill:#231f20" />
    <path
       class="cls-4"
       d="M 57.29,6.29 A 1.54,1.54 0 0 0 55.24,4.74 c -1.34,0.39 -1.87,2 -2,3.22 -0.13,1.22 0.06,3 1.32,3.71 a 2.13,2.13 0 0 0 2.93,-1.11 C 57.76,9.98 56.9,9.48 56.63,10.06 A 1.17,1.17 0 0 1 54.55,10.29 3.88,3.88 0 0 1 54.2,8.62 4.73,4.73 0 0 1 54.45,7 L 54.7,6.43 c 0.38,-0.81 0.9,-0.86 1.58,-0.14 0,0.64 1,0.64 1,0 z"
       id="path167"
       style="fill:#231f20" />
    <path
       class="cls-4"
       d="m 57.87,5.04 c -0.09,1.19 -0.64,6.07 1.42,6.12 2.46,0 2,-4.25 2,-5.64 a 0.5,0.5 0 0 0 -1,0 c 0,1.89 0.91,8.8 -1.61,9.1 -0.63,0.07 -0.64,1.07 0,1 1.35,-0.16 2.25,-0.32 2.51,-1.83 0.44,-2.61 0.07,-5.61 0.1,-8.27 h -1 c 0,0.61 0.25,4.87 -1.25,4 -0.6,-0.35 -0.23,-3.8 -0.18,-4.48 0.05,-0.68 -0.95,-0.64 -1,0 z"
       id="path168"
       style="fill:#231f20" />
    <path
       class="cls-4"
       d="m 81.71,0.64 a 66.54,66.54 0 0 0 3.27,10.71 c 0.26,0.59 1.12,0.08 0.87,-0.51 A 65.72,65.72 0 0 1 82.67,0.38 c -0.15,-0.63 -1.12,-0.36 -1,0.26 z"
       id="path59-5"
       style="fill:#231f20" />
    <path
       class="cls-4"
       d="m 85.44,0.39 c -0.83,3.72 -2.71,7.24 -4.15,10.72 -0.25,0.59 0.71,0.85 1,0.26 1.46,-3.47 3.35,-7 4.17,-10.7 0.14,-0.63 -0.82,-0.9 -1,-0.27 z"
       id="path60-8"
       style="fill:#231f20" />
    <path
       class="cls-4"
       d="M 86.86,0.26 C 85.99,2.15 86.2,4.56 86.19,6.6 a 7.9,7.9 0 0 0 1.59,5.34 c 0.41,0.5 1.11,-0.22 0.71,-0.71 -1.27,-1.54 -1.33,-3.36 -1.29,-5.27 0,-1.6 -0.16,-3.72 0.52,-5.2 0.27,-0.58 -0.6,-1.09 -0.86,-0.5 z"
       id="path61-2"
       style="fill:#231f20" />
    <path
       class="cls-4"
       d="m 89.84,0.72 c -0.31,3.19 -0.78,6.77 -0.32,10 0.2,1.41 1,1.72 2.36,1.41 0.63,-0.13 0.36,-1.1 -0.27,-1 -1.73,0.38 -1.14,-4.14 -1.12,-5 0,-1.8 0.18,-3.59 0.35,-5.39 0.06,-0.64 -0.94,-0.63 -1,0 z"
       id="path62-0"
       style="fill:#231f20" />
    <path
       class="cls-4"
       d="m 88.23,6.41 a 16.2,16.2 0 0 1 2.06,-0.3 h 0.9 0.45 c 0.38,0.07 0.4,0 0.05,-0.19 l 0.13,-0.49 -0.06,0.08 c -0.41,0.48 0.29,1.19 0.71,0.7 0.42,-0.49 -0.03,-1.1 -0.65,-1.1 a 15.19,15.19 0 0 0 -3.86,0.37 c -0.63,0.13 -0.36,1.1 0.27,1 z"
       id="path63-9"
       style="fill:#231f20" />
    <path
       class="cls-4"
       d="m 92.53,8.29 a 38.88,38.88 0 0 1 0.09,4.32 c 0,0.64 1,0.64 1,0 A 38.88,38.88 0 0 0 93.53,8.29 c 0,-0.64 -1.06,-0.65 -1,0 z"
       id="path64"
       style="fill:#231f20" />
    <path
       class="cls-4"
       d="m 95.01,10.49 0.16,-0.34 -0.88,-0.39 a 3.14,3.14 0 0 1 -0.9,1.2 0.51,0.51 0 0 0 0.1,0.79 6.46,6.46 0 0 1 1.19,0.82 c 0.47,0.43 1.18,-0.28 0.7,-0.71 a 7.49,7.49 0 0 0 -1.38,-1 l 0.1,0.79 a 4.11,4.11 0 0 0 1.15,-1.64 C 95.46,9.49 94.58,9.12 94.34,9.62 l -0.16,0.34 c -0.28,0.58 0.58,1.09 0.86,0.51 z"
       id="path65"
       style="fill:#231f20" />
    <path
       class="cls-4"
       d="m 94.82,0.76 a 12.87,12.87 0 0 1 0.17,10.35 c -0.24,0.6 0.73,0.86 1,0.27 A 13.89,13.89 0 0 0 95.69,0.26 c -0.27,-0.59 -1.13,-0.08 -0.87,0.5 z"
       id="path66-0"
       style="fill:#231f20" />
    <path
       class="cls-4"
       d="m 67.81,4.11 c 1.31,-0.68 1.84,-0.42 1.62,0.79 l -0.2,1 a 8.22,8.22 0 0 1 -1.42,2.51 24.62,24.62 0 0 0 -2.13,3 c -0.16,0.3 0,0.8 0.43,0.75 a 30.87,30.87 0 0 1 5.52,-0.2 c 0.65,0 0.65,-1 0,-1 a 30.87,30.87 0 0 0 -5.52,0.2 l 0.43,0.75 c 1.41,-2.6 5.65,-6.15 3.29,-9.48 -1.57,-2.21 -4.06,0 -2.88,2.11 0.31,0.56 1.18,0.06 0.86,-0.51 z"
       id="path67"
       style="fill:#231f20" />
    <path
       class="cls-4"
       d="m 72.29,1.65 c 0.11,3.31 0.18,6.62 0.16,9.93 a 0.5,0.5 0 0 0 1,0 c 0,-3.31 0,-6.62 -0.16,-9.93 0,-0.64 -1,-0.65 -1,0 z"
       id="path68"
       style="fill:#231f20" />
    <path
       class="cls-4"
       d="m 72.66,1.21 a 110.9,110.9 0 0 0 4.73,10.63 c 0.24,0.46 0.91,0.21 0.93,-0.26 0.18,-3.55 0.19,-7.3 0.07,-10.86 0,-0.64 -1,-0.64 -1,0 0.12,3.56 0.11,7.31 -0.07,10.86 l 0.94,-0.25 A 110.87,110.87 0 0 1 73.62,0.95 c -0.23,-0.6 -1.2,-0.34 -1,0.26 z"
       id="path69"
       style="fill:#231f20" />
    <path
       class="cls-4"
       d="m 80.74,6.84 a 0.5,0.5 0 0 0 0,-1 0.5,0.5 0 0 0 0,1 z"
       id="path70"
       style="fill:#231f20" />
    <path
       class="cls-4"
       d="M 81.18,6.6 81.4,6.19 c 0.22,-0.4 -0.26,-1 -0.68,-0.68 a 1.34,1.34 0 0 0 -0.5,0.58 0.5,0.5 0 0 0 0.56,0.73 C 81.35,6.65 81.7,5.73 80.99,5.47 a 0.81,0.81 0 0 0 -1,1 0.51662365,0.51662365 0 0 0 1,-0.26 l -0.21,0.23 -0.4,-0.33 0.13,-0.23 0.57,0.73 a 0.4,0.4 0 0 1 0.14,-0.22 l -0.68,-0.68 -0.25,0.4 c -0.31,0.56 0.55,1.07 0.87,0.51 z"
       id="path71"
       style="fill:#231f20" />
    <circle
       class="cls-5"
       cx="40.060001"
       cy="61.702301"
       r="1.21"
       id="circle72"
       style="fill:#d4ebf9;stroke:#231f20;stroke-width:0.75px;stroke-linecap:round;stroke-miterlimit:10" />
    <circle
       class="cls-5"
       cx="40.060001"
       cy="61.702301"
       r="1.21"
       id="circle125"
       style="fill:#d4ebf9;stroke:#231f20;stroke-width:0.75px;stroke-linecap:round;stroke-miterlimit:10" />
    <circle
       class="cls-5"
       cx="47.060001"
       cy="82.702301"
       r="1.21"
       id="circle82"
       style="fill:#d4ebf9;stroke:#231f20;stroke-width:0.75px;stroke-linecap:round;stroke-miterlimit:10" />
    <circle
       class="cls-5"
       cx="61.060001"
       cy="103.7023"
       r="1.21"
       id="circle93"
       style="fill:#d4ebf9;stroke:#231f20;stroke-width:0.75px;stroke-linecap:round;stroke-miterlimit:10" />
    <circle
       class="cls-5"
       cx="54.060001"
       cy="124.7023"
       r="1.21"
       id="circle101"
       style="fill:#d4ebf9;stroke:#231f20;stroke-width:0.75px;stroke-linecap:round;stroke-miterlimit:10" />
    <circle
       class="cls-5"
       cx="47.060001"
       cy="144.7023"
       r="1.21"
       id="circle109"
       style="fill:#d4ebf9;stroke:#231f20;stroke-width:0.75px;stroke-linecap:round;stroke-miterlimit:10" />
    <circle
       class="cls-5"
       cx="61.060001"
       cy="164.7023"
       r="1.21"
       id="circle120"
       style="fill:#d4ebf9;stroke:#231f20;stroke-width:0.75px;stroke-linecap:round;stroke-miterlimit:10" />
    <circle
       class="cls-5"
       cx="54.060001"
       cy="185.7023"
       r="1.21"
       id="circle135"
       style="fill:#d4ebf9;stroke:#231f20;stroke-width:0.75px;stroke-linecap:round;stroke-miterlimit:10" />
    <circle
       class="cls-5"
       cx="68.059998"
       cy="206.7023"
       r="1.21"
       id="circle147"
       style="fill:#d4ebf9;stroke:#231f20;stroke-width:0.75px;stroke-linecap:round;stroke-miterlimit:10" />
    <circle
       class="cls-6"
       cx="40.060001"
       cy="61.702301"
       r="1.21"
       id="circle126"
       style="fill:#001976;stroke:#231f20;stroke-width:1;stroke-linecap:round;stroke-miterlimit:10;stroke-dasharray:none;fill-opacity:1" />
    <circle
       class="cls-6"
       cx="47.060001"
       cy="82.702301"
       r="1.21"
       id="circle127"
       style="fill:#001976;stroke:#231f20;stroke-width:1;stroke-linecap:round;stroke-miterlimit:10;stroke-dasharray:none;fill-opacity:1" />
    <line
       class="cls-7"
       x1="41.259998"
       y1="64.032303"
       x2="46.060001"
       y2="80.632301"
       id="line153"
       style="fill:none;stroke:#231f20;stroke-width:1;stroke-linecap:round;stroke-miterlimit:10;stroke-dasharray:none" />
    <circle
       class="cls-6"
       cx="61.060001"
       cy="103.7023"
       r="1.21"
       id="circle128"
       style="fill:#001976;stroke:#231f20;stroke-width:1;stroke-linecap:round;stroke-miterlimit:10;stroke-dasharray:none;fill-opacity:1" />
    <line
       class="cls-7"
       x1="48.259998"
       y1="84.662308"
       x2="59.849998"
       y2="101.6323"
       id="line154"
       style="fill:none;stroke:#231f20;stroke-width:1;stroke-linecap:round;stroke-miterlimit:10;stroke-dasharray:none" />
    <circle
       class="cls-6"
       cx="54.060001"
       cy="124.7023"
       r="1.21"
       id="circle129"
       style="fill:#001976;stroke:#231f20;stroke-width:1;stroke-linecap:round;stroke-miterlimit:10;stroke-dasharray:none;fill-opacity:1" />
    <line
       class="cls-7"
       x1="59.849998"
       y1="105.94231"
       x2="55.259998"
       y2="122.44231"
       id="line155"
       style="fill:none;stroke:#231f20;stroke-width:1;stroke-linecap:round;stroke-miterlimit:10;stroke-dasharray:none" />
    <circle
       class="cls-6"
       cx="47.060001"
       cy="144.7023"
       r="1.21"
       id="circle130"
       style="fill:#001976;stroke:#231f20;stroke-width:1;stroke-linecap:round;stroke-miterlimit:10;stroke-dasharray:none;fill-opacity:1" />
    <line
       class="cls-7"
       x1="52.849998"
       y1="126.8523"
       x2="48.259998"
       y2="142.2523"
       id="line156"
       style="fill:none;stroke:#231f20;stroke-width:1;stroke-linecap:round;stroke-miterlimit:10;stroke-dasharray:none" />
    <circle
       class="cls-6"
       cx="61.060001"
       cy="164.7023"
       r="1.21"
       id="circle131"
       style="fill:#001976;stroke:#231f20;stroke-width:1;stroke-linecap:round;stroke-miterlimit:10;stroke-dasharray:none;fill-opacity:1" />
    <line
       class="cls-7"
       x1="48.259998"
       y1="146.91231"
       x2="59.849998"
       y2="162.49231"
       id="line157"
       style="fill:none;stroke:#231f20;stroke-width:1;stroke-linecap:round;stroke-miterlimit:10;stroke-dasharray:none" />
    <circle
       class="cls-6"
       cx="54.060001"
       cy="185.7023"
       r="1.21"
       id="circle141"
       style="fill:#001976;stroke:#231f20;stroke-width:1;stroke-linecap:round;stroke-miterlimit:10;stroke-dasharray:none;fill-opacity:1" />
    <line
       class="cls-7"
       x1="59.849998"
       y1="166.88231"
       x2="55.259998"
       y2="183.2823"
       id="line158"
       style="fill:none;stroke:#231f20;stroke-width:1;stroke-linecap:round;stroke-miterlimit:10;stroke-dasharray:none" />
    <circle
       class="cls-6"
       cx="68.059998"
       cy="206.7023"
       r="1.21"
       id="circle151"
       style="fill:#001976;stroke:#231f20;stroke-width:1;stroke-linecap:round;stroke-miterlimit:10;stroke-dasharray:none;fill-opacity:1" />
    <line
       class="cls-7"
       x1="55.259998"
       y1="187.97231"
       x2="66.849998"
       y2="204.47231"
       id="line159"
       style="fill:none;stroke:#231f20;stroke-width:1;stroke-linecap:round;stroke-miterlimit:10;stroke-dasharray:none" />
    <circle
       class="cls-5"
       cx="33.060001"
       cy="40.669998"
       r="1.21"
       id="circle71-1"
       style="fill:#d4ebf9;stroke:#231f20;stroke-width:0.75px;stroke-linecap:round;stroke-miterlimit:10" />
    <circle
       class="cls-6"
       cx="33.093842"
       cy="40.669998"
       r="1.21"
       id="circle126-2"
       style="fill:#001976;stroke:#231f20;stroke-width:1;stroke-linecap:round;stroke-miterlimit:10;stroke-dasharray:none;fill-opacity:1" />
    <line
       class="cls-7"
       x1="33.949051"
       y1="42.86219"
       x2="38.749054"
       y2="59.462189"
       id="line153-1"
       style="fill:none;stroke:#231f20;stroke-width:1;stroke-linecap:round;stroke-miterlimit:10;stroke-dasharray:none" />
    <g
       id="Layer_3"
       data-name="Layer 3"
       style="fill:none;stroke:#001976;stroke-width:2;stroke-dasharray:none;stroke-opacity:1"
       transform="translate(141.68722,23.165913)">
      <path
         class="cls-2"
         d="m 39.77,40.56 c -2.21,2 -2.5,3 -2.27,3.66 0.31,0.86 1.55,0.68 2.67,2.11 0.68,0.86 0.42,1.17 1.27,2.39 0.85,1.22 1.17,1 1.79,2 0.62,1 0.47,1.32 1.1,3.8 0.22,0.89 0.46,1.82 0.86,3 0.51,1.49 0.84,2 1.58,4.09 0.6,1.71 0.6,2 0.57,2.21 -0.15,1.24 -1.1,1.56 -1.26,2.95 a 3.48,3.48 0 0 0 0.28,1.83 C 47,70 48.3,69.73 49,71.08 c 0.6,1.1 -0.05,1.64 0.56,2.39 0.61,0.75 1.83,0.39 3.52,1.12 0.84,0.37 0.79,0.58 2.39,1.83 3.13,2.43 4.53,2.58 5.09,4.22 0.25,0.71 0,0.58 0.21,1.92 a 15,15 0 0 0 1.9,4.69 c 1,1.93 1.51,2.33 1.41,3.23 A 4.43,4.43 0 0 1 63,92.59 21.38,21.38 0 0 1 60.7,95 c -1.34,1.41 -1.15,1.51 -2.53,3 -1,1 -1.1,1 -2.11,2.11 a 7.88,7.88 0 0 0 -1.82,2.4 c -0.32,0.9 0,1 -0.15,2.94 -0.13,1.62 -0.23,2.71 -1,3.23 -0.77,0.52 -1.28,0.1 -1.58,0.54 -0.46,0.69 0.93,1.72 0.6,3 -0.33,1.28 -1.93,1.71 -2,1.74 -1.06,0.32 -1.45,-0.18 -2.22,0.23 a 2.54,2.54 0 0 0 -1.27,2.25 c 0,1.14 1,1.36 1,2.25 -0.08,1.06 -1.53,1.22 -2.11,2.53 -0.17,0.37 -0.41,1.17 0.26,3.11 1.28,3.72 4.19,6.59 5.78,8.14 1.17,1.13 1.91,1.7 2.39,3 0.54,1.4 0.22,2.28 1,3 0.78,0.72 1.69,0 2.88,0.72 1,0.58 1.38,1.67 2.06,3.73 a 6.45,6.45 0 0 1 0.54,3 c -0.17,1.41 -0.85,1.48 -0.84,2.53 0,1.47 1.32,1.66 1.83,3.66 a 4.66,4.66 0 0 1 -0.14,2.95 c -0.19,0.43 -0.33,0.53 -1.69,2 -1.89,2 -1.77,2 -2.39,2.53 -1.19,1.05 -1.45,1 -1.91,1.66 a 5,5 0 0 0 -0.73,2.6 5.86,5.86 0 0 0 0.87,3.81 c 0.6,0.85 1.41,1.3 3,2.2 0.49,0.27 1,0.5 2,1 a 14.75,14.75 0 0 1 2.11,1 3.62,3.62 0 0 1 1.41,3 c -0.12,1.07 -0.86,1.14 -1,2.25 a 4,4 0 0 0 1,2.74 c 1.07,1.45 1.92,1.05 2.55,2.32 0.34,0.69 0.21,1.06 0.81,2.57 0.19,0.47 0.37,0.85 0.49,1.1"
         transform="translate(0.29,0.11)"
         id="path178"
         style="fill:none;stroke:#001976;stroke-width:2;stroke-linecap:round;stroke-miterlimit:10;stroke-dasharray:none;stroke-opacity:1" />
    </g>
    <path
       class="cls-2"
       d="m 59.649169,31.17 c 0.06,-1.25 0,-1.74 0,-2.5"
       id="path41-7"
       style="fill:none;stroke:#231f20;stroke-linecap:round;stroke-miterlimit:10" />
    <path
       class="cls-2"
       d="m 45.11,31.11 c 0.06,-1.24 0,-1.74 0,-2.49"
       id="path43-5"
       style="fill:none;stroke:#231f20;stroke-linecap:round;stroke-miterlimit:10" />
    <path
       class="cls-4"
       d="m 61.926162,25.226136 c -0.9,-1.62 -1.66,-3.55 -3,-4.88 -0.45,-0.47 -1.16,0.24 -0.71,0.7 1.22,1.25 2,3.17 2.8,4.68 a 0.50172203,0.50172203 0 0 0 0.87,-0.5 z"
       id="path171-4"
       style="fill:#231f20" />
    <path
       class="cls-4"
       d="m 59.096162,25.796136 a 22.42,22.42 0 0 0 2.24,-5.12 0.51790443,0.51790443 0 0 0 -1,-0.27 21.22,21.22 0 0 1 -2.14,4.88 0.5,0.5 0 0 0 0.86,0.51 z"
       id="path172-4"
       style="fill:#231f20" />
    <path
       class="cls-4"
       d="m 43.970194,20.565254 c -0.136548,1.056908 -0.367059,2.903355 1.005741,3.268622 1.660174,0.453676 2.02262,-1.690416 2.443165,-2.731638 L 46.47804,20.73617 a 7.57,7.57 0 0 0 -0.111582,2.778732 1.44,1.44 0 0 1 -0.694007,1.459573 2.82,2.82 0 0 1 -1.603678,-0.214285 c -0.62287,-0.147082 -0.852685,0.826152 -0.229815,0.973234 1.070557,0.252797 2.296833,0.542364 3.050035,-0.47168 0.950966,-1.285871 0.04927,-2.906471 0.562281,-4.295759 0.184792,-0.52149 -0.717339,-0.878365 -0.943358,-0.356335 -0.22602,0.522029 -0.290525,1.708975 -0.79067,2.042973 l -0.722091,0.05554 a 1.82,1.82 0 0 1 -0.158538,-0.808063 5.87,5.87 0 0 1 0.07762,-1.111925 c 0.08869,-0.636659 -0.884547,-0.866474 -0.973235,-0.229815 z"
       id="path175-7"
       style="fill:#231f20" />
    <g
       id="g23"
       transform="translate(21.687217,23.165913)">
      <circle
         class="cls-6"
         cx="139.60988"
         cy="80.380249"
         r="2.4534051"
         id="circle127-4"
         style="fill:#ff0000;stroke:#231f20;stroke-width:1.52071px;stroke-linecap:round;stroke-miterlimit:10" />
      <path
         class="cls-4"
         d="m 112.40922,96.793813 c 0.17093,0.366275 -0.42732,1.489515 -0.5372,1.916834 a 14.95619,14.95619 0 0 0 -0.46395,2.197643 3.5772765,3.5772765 0 0 0 0.54941,2.72264 c 1.50172,1.91683 3.45519,0.47616 4.48075,-1.07441 0.42732,-0.65929 -0.62266,-1.22091 -1.06219,-0.61045 a 3.6627404,3.6627404 0 0 1 -0.69592,0.91568 c -1.34301,1.00115 -1.92905,0 -2.08776,-0.91568 a 6.4220049,6.4220049 0 0 1 0.35406,-2.661592 c 0.24418,-0.988941 0.92789,-2.112181 0.47616,-3.101121 -0.31744,-0.720339 -1.36743,-0.09767 -1.04999,0.610456 z"
         id="path169"
         style="fill:#231f20;stroke-width:1.22091" />
      <path
         class="cls-4"
         d="m 110.28346,97.658539 a 2.4212325,2.6738006 0 0 1 1.41515,-1.623817 c 1.10558,-0.329645 1.18297,0.244184 1.63626,0.964523 a 2.2111711,2.4418269 0 0 0 1.05031,1.074404 c 1.54782,0.586038 2.42124,-1.41626 3.31676,-2.307527 0.53068,-0.524992 -0.24323,-1.379633 -0.78497,-0.866848 -0.34273,0.341856 -0.60807,0.866848 -0.96186,1.220913 -0.33167,0.634876 -0.90658,0.744757 -1.7026,0.317438 -0.0884,-0.170928 -0.17689,-0.341856 -0.2764,-0.512784 -0.45328,-0.549411 -0.6744,-1.013358 -1.39303,-1.147658 a 3.3167568,3.6627404 0 0 0 -3.31676,2.319734 c -0.2764,0.708131 0.68546,1.330797 0.96186,0.610457 z"
         id="path170"
         style="fill:#231f20;stroke-width:1.16182" />
      <g
         id="g2"
         transform="matrix(1.6797941,0,0,1.6797941,62.83504,-19.005098)">
        <path
           class="cls-4"
           d="m 47.409737,54.537525 c 0.9,1.62 1.66,3.55 3,4.88 0.45,0.47 1.16,-0.24 0.71,-0.7 -1.22,-1.25 -2,-3.17 -2.8,-4.68 a 0.50172203,0.50172203 0 0 0 -0.87,0.5 z"
           id="path171"
           style="fill:#231f20" />
        <path
           class="cls-4"
           d="m 50.239737,53.967525 a 22.42,22.42 0 0 0 -2.24,5.12 0.51790443,0.51790443 0 0 0 1,0.27 21.22,21.22 0 0 1 2.14,-4.88 0.5,0.5 0 0 0 -0.86,-0.51 z"
           id="path172"
           style="fill:#231f20" />
      </g>
      <path
         style="fill:none;fill-opacity:0.75;stroke:#060606;stroke-width:1;stroke-dasharray:none;stroke-opacity:1;paint-order:fill markers stroke"
         d="M 119.39944,80.397462 V 120.73276"
         id="path1-4"
         sodipodi:nodetypes="cc" />
      <path
         style="fill:none;fill-opacity:0.75;stroke:#060606;stroke-width:0.5;stroke-dasharray:none;stroke-opacity:1;paint-order:fill markers stroke"
         d="m 118.75298,80.610494 c 0.50284,0 1.00568,0 1.50852,0"
         id="path4-7" />
      <path
         style="fill:none;fill-opacity:0.75;stroke:#060606;stroke-width:0.5;stroke-dasharray:none;stroke-opacity:1;paint-order:fill markers stroke"
         d="m 121.40385,80.496337 c 0.44847,0 0.89695,0 1.34542,0"
         id="path5-2" />
      <path
         style="fill:none;fill-opacity:0.75;stroke:#060606;stroke-width:0.5;stroke-dasharray:none;stroke-opacity:1;paint-order:fill markers stroke"
         d="m 123.68064,80.489317 c 0.45069,-0.0099 0.89543,0.02446 1.34543,0.02446"
         id="path6-4" />
      <path
         style="fill:none;fill-opacity:0.75;stroke:#060606;stroke-width:0.5;stroke-dasharray:none;stroke-opacity:1;paint-order:fill markers stroke"
         d="m 126.08403,80.610494 c 0.50284,0 1.00567,0 1.50851,0"
         id="path4-4" />
      <path
         style="fill:none;fill-opacity:0.75;stroke:#060606;stroke-width:0.5;stroke-dasharray:none;stroke-opacity:1;paint-order:fill markers stroke"
         d="m 128.73489,80.496337 c 0.44848,0 0.89695,0 1.34543,0"
         id="path5-8" />
      <path
         style="fill:none;fill-opacity:0.75;stroke:#060606;stroke-width:0.5;stroke-dasharray:none;stroke-opacity:1;paint-order:fill markers stroke"
         d="m 131.01168,80.489317 c 0.45069,-0.0099 0.89543,0.02446 1.34543,0.02446"
         id="path6-1" />
      <path
         style="fill:none;fill-opacity:0.75;stroke:#060606;stroke-width:0.5;stroke-dasharray:none;stroke-opacity:1;paint-order:fill markers stroke"
         d="m 133.18239,80.532933 c 0.50284,0 1.00568,0 1.50852,0"
         id="path4-4-3" />
      <path
         style="fill:none;fill-opacity:0.75;stroke:#060606;stroke-width:0.5;stroke-dasharray:none;stroke-opacity:1;paint-order:fill markers stroke"
         d="m 135.83325,80.418776 c 0.44848,0 0.89696,0 1.34543,0"
         id="path5-8-0" />
      <path
         style="fill:none;fill-opacity:0.75;stroke:#060606;stroke-width:0.5;stroke-dasharray:none;stroke-opacity:1;paint-order:fill markers stroke"
         d="m 119.14347,121.30853 c 0.43217,0 0.86433,0 1.2965,0"
         id="path7-9" />
      <path
         style="fill:none;fill-opacity:0.75;stroke:#060606;stroke-width:0.5;stroke-dasharray:none;stroke-opacity:1;paint-order:fill markers stroke"
         d="m 121.45108,121.30853 c 0.35335,0 0.70669,0 1.06004,0"
         id="path8-9" />
      <path
         style="fill:none;fill-opacity:0.75;stroke:#060606;stroke-width:0.5;stroke-dasharray:none;stroke-opacity:1;paint-order:fill markers stroke"
         d="m 123.58746,121.30853 c 0.41011,0.0182 0.81427,-0.0326 1.22312,-0.0326"
         id="path9-4" />
      <circle
         class="cls-6"
         cx="125.65308"
         cy="121.7158"
         r="2.4534051"
         id="circle127-9"
         style="fill:#ff0000;stroke:#231f20;stroke-width:1.52071px;stroke-linecap:round;stroke-miterlimit:10" />
      <path
         class="cls-4"
         d="m 130.71083,118.4627 c -0.23366,1.69211 -0.62898,4.64838 1.56624,5.25304 2.65458,0.75042 3.26554,-2.68108 3.95417,-4.34407 l -1.50321,-0.59991 a 12.133706,12.133706 0 0 0 -0.21776,4.45221 2.3081291,2.3081291 0 0 1 -1.13279,2.32969 4.5200861,4.5200861 0 0 1 -2.56739,-0.36591 c -0.99628,-0.24447 -1.37825,1.31222 -0.38197,1.55669 1.71235,0.42018 3.67378,0.90147 4.89522,-0.71331 1.54222,-2.04767 0.11967,-4.65782 0.96138,-6.87739 0.30348,-0.83326 -1.13746,-1.41789 -1.50704,-0.58435 -0.36957,0.83355 -0.48958,2.7351 -1.29589,3.26342 l -1.15815,0.0789 a 2.9172187,2.9172187 0 0 1 -0.24279,-1.29738 9.4088316,9.4088316 0 0 1 0.13996,-1.78112 c 0.15107,-1.0192 -1.40563,-1.40118 -1.55669,-0.38198 z"
         id="path175"
         style="fill:#231f20;stroke:#231f20;stroke-width:0;stroke-dasharray:none;stroke-opacity:1" />
      <path
         style="fill:none;fill-opacity:0.75;stroke:#231f20;stroke-width:1;stroke-linecap:round;stroke-linejoin:round;stroke-dasharray:none;stroke-opacity:1;paint-order:fill markers stroke"
         d="m 117.35514,116.47254 c 0.27939,0.52094 0.74535,0.89603 1.11574,1.34579 0.38321,0.46533 0.75908,0.98441 0.9777,1.55283 0.10558,0.2745 0.13803,0.49441 0.13803,0.78216 0,0.10353 0,0.20705 0,0.31057 0,0.0307 0,0.1227 0,0.092 0,-0.35103 -0.0677,-0.76366 0.0345,-1.10424 0.18837,-0.6279 0.95476,-1.13538 1.28828,-1.70236 0.17361,-0.29513 0.36838,-0.57894 0.54061,-0.87418 0.0978,-0.16759 0.13667,-0.36672 0.27606,-0.50611"
         id="path3-8" />
      <path
         style="fill:none;fill-opacity:0.75;stroke:#231f20;stroke-width:1;stroke-linecap:round;stroke-linejoin:round;stroke-dasharray:none;stroke-opacity:1;paint-order:fill markers stroke"
         d="m 117.39844,84.060632 c 0.19554,-0.06901 0.39922,-0.118274 0.58662,-0.207043 0.0666,-0.03154 0.12763,-0.224461 0.16104,-0.287559 0.16318,-0.308244 0.38589,-0.590429 0.52911,-0.908697 0.1485,-0.330006 0.24277,-0.65928 0.35658,-1.00071 0.0361,-0.108414 0.0942,-0.214431 0.12652,-0.322068 0.0564,-0.187959 -0.004,-0.736158 0.27606,-0.736158 0.005,0 0.0782,-0.0045 0.0805,0 0.0769,0.153759 -0.0101,0.539518 0,0.70165 0.0248,0.396514 0.1878,0.797329 0.33357,1.161746 0.13917,0.347916 0.34714,0.655815 0.58663,0.943201 0.31369,0.376439 0.69649,0.63309 1.06972,0.931698"
         id="path10-7" />
    </g>
    <path
       class="cls-2"
       d="m 22.877694,40.357694 c 0,59.367304 0.254612,141.322606 0.254612,171.421726"
       id="path22-9"
       style="fill:none;stroke:#231f20;stroke-width:1.01539;stroke-linecap:round;stroke-miterlimit:10" />
    <path
       class="cls-2"
       d="m 25.502947,207.00042 a 16.91,16.91 0 0 0 -4.28,0.68"
       id="path142-0"
       style="fill:none;stroke:#231f20;stroke-linecap:round;stroke-miterlimit:10" />
    <path
       class="cls-3"
       d="m 17.649665,208.07813 c -1.733776,-2.47328 0.693119,-2.14876 1.234711,-1.65115 0.109684,0.67605 0.04039,1.51499 -0.725496,1.75118 0.342965,-0.1883 0.669953,-0.0102 1.061178,-0.005 0.424649,0.0446 1.166278,2.23623 0.556281,2.76995 -0.882137,0.77549 -1.965429,0.71766 -3.19954,0.0589 -0.553331,-0.56344 -0.579666,-2.6601 1.087162,-2.72562"
       id="path11-3"
       style="fill:none;stroke:#231f20;stroke-linecap:round;stroke-linejoin:round"
       sodipodi:nodetypes="ccccccc" />
    <path
       style="fill:#2c9f2c;fill-opacity:0.1;stroke-width:0.3;stroke-linecap:round;stroke-opacity:1;stroke-dasharray:0.90000004,0.90000004;stroke:#000000;stroke-dashoffset:0"
       d="M 28.682917,40.667677 H 91.051592"
       id="path22" />
    <path
       style="fill:#2c9f2c;fill-opacity:0.1;stroke:#000000;stroke-width:0.3;stroke-linecap:round;stroke-dasharray:0.9000032,0.9000032;stroke-dashoffset:0;stroke-opacity:1"
       d="M 33.05368,36.410516 V 210.03448"
       id="path22-3" />
    <path
       style="fill:#2c9f2c;fill-opacity:0.1;stroke:#000000;stroke-width:0.3;stroke-linecap:round;stroke-dasharray:0.900003, 0.900003;stroke-dashoffset:0;stroke-opacity:1"
       d="M 47.05368,36.410516 V 210.03448"
       id="path22-3-8" />
    <path
       style="fill:#2c9f2c;fill-opacity:0.1;stroke:#000000;stroke-width:0.3;stroke-linecap:round;stroke-dasharray:0.900003, 0.900003;stroke-dashoffset:0;stroke-opacity:1"
       d="M 61.05368,36.410516 V 210.03448"
       id="path22-3-8-1" />
    <path
       style="fill:#2c9f2c;fill-opacity:0.1;stroke:#000000;stroke-width:0.3;stroke-linecap:round;stroke-dasharray:0.900003, 0.900003;stroke-dashoffset:0;stroke-opacity:1"
       d="M 75.05368,36.410516 V 210.03448"
       id="path22-3-8-1-3" />
    <path
       style="fill:#2c9f2c;fill-opacity:0.1;stroke:#000000;stroke-width:0.3;stroke-linecap:round;stroke-dasharray:0.900003, 0.900003;stroke-dashoffset:0;stroke-opacity:1"
       d="M 89.05368,36.410516 V 210.03448"
       id="path22-3-8-1-6" />
    <path
       style="fill:#2c9f2c;fill-opacity:0.1;stroke:#000000;stroke-width:0.3;stroke-linecap:round;stroke-dasharray:0.900003, 0.900003;stroke-dashoffset:0;stroke-opacity:1"
       d="M 82.07236,36.410516 V 210.03448"
       id="path22-3-8-1-6-6" />
    <path
       style="fill:#2c9f2c;fill-opacity:0.1;stroke:#000000;stroke-width:0.3;stroke-linecap:round;stroke-dasharray:0.900003, 0.900003;stroke-dashoffset:0;stroke-opacity:1"
       d="M 68.07236,36.410516 V 210.03448"
       id="path22-3-8-1-6-6-7" />
    <path
       style="fill:#2c9f2c;fill-opacity:0.1;stroke:#000000;stroke-width:0.3;stroke-linecap:round;stroke-dasharray:0.900003, 0.900003;stroke-dashoffset:0;stroke-opacity:1"
       d="M 54.07236,36.410516 V 210.03448"
       id="path22-3-8-1-6-6-7-6" />
    <path
       style="fill:#2c9f2c;fill-opacity:0.1;stroke:#000000;stroke-width:0.3;stroke-linecap:round;stroke-dasharray:0.900003, 0.900003;stroke-dashoffset:0;stroke-opacity:1"
       d="M 40.07236,36.410516 V 210.03448"
       id="path22-3-8-1-6-6-7-6-9" />
    <path
       style="fill:#2c9f2c;fill-opacity:0.1;stroke:#000000;stroke-width:0.3;stroke-linecap:round;stroke-dasharray:0.9, 0.9;stroke-dashoffset:0;stroke-opacity:1"
       d="M 28.682917,61.677608 H 91.051592"
       id="path22-94" />
    <path
       style="fill:#2c9f2c;fill-opacity:0.1;stroke:#000000;stroke-width:0.3;stroke-linecap:round;stroke-dasharray:0.9, 0.9;stroke-dashoffset:0;stroke-opacity:1"
       d="M 28.682917,82.66768 H 91.051592"
       id="path22-0" />
    <path
       style="fill:#2c9f2c;fill-opacity:0.1;stroke:#000000;stroke-width:0.3;stroke-linecap:round;stroke-dasharray:0.9, 0.9;stroke-dashoffset:0;stroke-opacity:1"
       d="M 28.682917,103.67761 H 91.051592"
       id="path22-94-9" />
    <path
       style="fill:#2c9f2c;fill-opacity:0.1;stroke:#000000;stroke-width:0.3;stroke-linecap:round;stroke-dasharray:0.9, 0.9;stroke-dashoffset:0;stroke-opacity:1"
       d="M 28.682917,124.66768 H 91.051592"
       id="path22-0-5" />
    <path
       style="fill:#2c9f2c;fill-opacity:0.1;stroke:#000000;stroke-width:0.3;stroke-linecap:round;stroke-dasharray:0.9, 0.9;stroke-dashoffset:0;stroke-opacity:1"
       d="M 28.682917,144.79755 H 91.051592"
       id="path22-94-9-3" />
    <path
       style="fill:#2c9f2c;fill-opacity:0.1;stroke:#000000;stroke-width:0.3;stroke-linecap:round;stroke-dasharray:0.9, 0.9;stroke-dashoffset:0;stroke-opacity:1"
       d="M 28.682917,164.66768 H 91.051592"
       id="path22-0-5-7" />
    <path
       style="fill:#2c9f2c;fill-opacity:0.1;stroke:#000000;stroke-width:0.3;stroke-linecap:round;stroke-dasharray:0.9, 0.9;stroke-dashoffset:0;stroke-opacity:1"
       d="M 28.682917,185.67761 H 91.051592"
       id="path22-94-9-3-0" />
    <path
       style="fill:#2c9f2c;fill-opacity:0.1;stroke:#000000;stroke-width:0.3;stroke-linecap:round;stroke-dasharray:0.9, 0.9;stroke-dashoffset:0;stroke-opacity:1"
       d="M 28.682917,206.66768 H 91.051592"
       id="path22-0-5-7-7" />
  </g>
  <metadata
     id="metadata178">
    <rdf:RDF>
      <cc:Work
         rdf:about="">
        <dc:title>wright_fisher</dc:title>
      </cc:Work>
    </rdf:RDF>
  </metadata>
</svg>
