<?xml version="1.0" encoding="UTF-8" standalone="no"?>
<svg
   viewBox="0 0 97 215"
   version="1.1"
   id="svg178"
   sodipodi:docname="model_diffusion.svg"
   inkscape:version="1.3.2 (091e20e, 2023-11-25)"
   width="97"
   height="215"
   xmlns:inkscape="http://www.inkscape.org/namespaces/inkscape"
   xmlns:sodipodi="http://sodipodi.sourceforge.net/DTD/sodipodi-0.dtd"
   xmlns="http://www.w3.org/2000/svg"
   xmlns:svg="http://www.w3.org/2000/svg"
   xmlns:rdf="http://www.w3.org/1999/02/22-rdf-syntax-ns#"
   xmlns:cc="http://creativecommons.org/ns#"
   xmlns:dc="http://purl.org/dc/elements/1.1/">
  <sodipodi:namedview
     id="namedview178"
     pagecolor="#ffffff"
     bordercolor="#000000"
     borderopacity="0.25"
     inkscape:showpageshadow="2"
     inkscape:pageopacity="0.0"
     inkscape:pagecheckerboard="0"
     inkscape:deskcolor="#d1d1d1"
     inkscape:zoom="2.2783666"
     inkscape:cx="54.424955"
     inkscape:cy="112.80011"
     inkscape:window-width="1368"
     inkscape:window-height="827"
     inkscape:window-x="56"
     inkscape:window-y="25"
     inkscape:window-maximized="1"
     inkscape:current-layer="Layer_1" />
  <defs
     id="defs1">
    <style
       id="style1">.cls-1{fill:#fff;}.cls-2,.cls-3,.cls-7{fill:none;}.cls-2,.cls-3,.cls-5,.cls-6,.cls-7{stroke:#231f20;stroke-linecap:round;}.cls-2,.cls-5,.cls-6,.cls-7{stroke-miterlimit:10;}.cls-3{stroke-linejoin:round;}.cls-4{fill:#231f20;}.cls-5{fill:#d4ebf9;}.cls-5,.cls-6{stroke-width:0.75px;}.cls-6{fill:red;}.cls-7{stroke-width:0.25px;}</style>
  </defs>
  <title
     id="title1">wright_fisher</title>
  <g
     id="Layer_1"
     data-name="Layer 1">
    <g
       id="Layer_3"
       data-name="Layer 3"
       style="fill:none;stroke:#001976;stroke-width:2;stroke-dasharray:none;stroke-opacity:1"
       transform="translate(-0.31278,21.165913)">
      <path
         class="cls-2"
         d="m 34.873822,19.515025 c 1.483608,3.546161 2.224382,1.79743 2.797974,5.034366 0.31,0.86 -1.198732,6.349258 -0.07873,7.779258 0.68,0.86 -0.524876,5.808485 0.325124,7.028485 0.85,1.22 2.716161,1.77308 3.336161,2.77308 0.62,1 0.47,1.32 1.1,3.8 0.22,0.89 0.46,7.231565 0.86,8.411565 0.51,1.49 2.815651,5.178221 3.555651,7.268221 0.6,1.71 0.6,2 0.57,2.21 -0.15,1.24 -1.1,1.56 -1.26,2.95 -0.07361,0.624092 0.02315,1.25647 0.28,1.83 0.64,1.4 1.94,1.13 2.64,2.48 0.6,1.1 -0.05,1.64 0.56,2.39 0.61,0.75 1.83,0.39 3.52,1.12 0.84,0.37 0.79,0.58 2.39,1.83 3.13,2.43 4.53,2.58 5.09,4.22 0.25,0.71 0,0.58 0.21,1.92 0.363165,1.659651 1.005639,3.245546 1.9,4.69 1,1.93 1.51,2.33 1.41,3.23 -0.161659,0.788376 -0.535025,1.517823 -1.08,2.11 -0.702818,0.861932 -1.471818,1.66771 -2.3,2.41 -1.34,1.41 -1.15,1.51 -2.53,3 -1,1 -1.1,1 -2.11,2.11 -0.755341,0.67553 -1.373295,1.49042 -1.82,2.4 -0.32,0.9 0,1 -0.15,2.94 -0.13,1.62 -0.23,2.71 -1,3.23 -0.77,0.52 -1.28,0.1 -1.58,0.54 -0.46,0.69 0.93,1.72 0.6,3 -0.33,1.28 -1.93,1.71 -2,1.74 -1.06,0.32 -1.45,-0.18 -2.22,0.23 -0.801654,0.4626 -1.288224,1.32463 -1.27,2.25 0,1.14 1,1.36 1,2.25 -0.08,1.06 -1.53,1.22 -2.11,2.53 -0.17,0.37 -0.41,1.17 0.26,3.11 1.28,3.72 4.19,6.59 5.78,8.14 1.17,1.13 1.91,1.7 2.39,3 0.54,1.4 0.22,2.28 1,3 0.78,0.72 1.69,0 2.88,0.72 1,0.58 1.38,1.67 2.06,3.73 0.417104,0.94249 0.602275,1.97122 0.54,3 -0.17,1.41 -0.85,1.48 -0.84,2.53 0,1.47 1.32,1.66 1.83,3.66 0.274407,0.9725 0.225272,2.00785 -0.14,2.95 -0.19,0.43 -0.33,0.53 -1.69,2 -1.89,2 -1.77,2 -2.39,2.53 -1.19,1.05 -1.45,1 -1.91,1.66 -0.477204,0.7833 -0.72975,1.68278 -0.73,2.6 -0.154504,1.33214 0.152582,2.67696 0.87,3.81 0.6,0.85 1.41,1.3 3,2.2 0.49,0.27 1,0.5 2,1 0.728654,0.27705 1.434197,0.61143 2.11,1 0.927136,0.71342 1.452356,1.83091 1.41,3 -0.12,1.07 -0.86,1.14 -1,2.25 -0.02342,1.00664 0.33368,1.98509 1,2.74 1.07,1.45 1.92,1.05 2.55,2.32 0.34,0.69 0.21,1.06 0.81,2.57 0.19,0.47 0.37,0.85 0.49,1.1"
         transform="translate(0.29,0.11)"
         id="path178"
         style="fill:none;stroke:#001976;stroke-width:2;stroke-linecap:round;stroke-miterlimit:10;stroke-dasharray:none;stroke-opacity:1"
         sodipodi:nodetypes="cccsscccccccsccccccccccccscsccccccccscccccccccccccccccccc" />
    </g>
  </g>
  <metadata
     id="metadata178">
    <rdf:RDF>
      <cc:Work
         rdf:about="">
        <dc:title>wright_fisher</dc:title>
      </cc:Work>
    </rdf:RDF>
  </metadata>
</svg>
