<?xml version="1.0" encoding="UTF-8" standalone="no"?>
<svg
   xmlns:dc="http://purl.org/dc/elements/1.1/"
   xmlns:cc="http://creativecommons.org/ns#"
   xmlns:rdf="http://www.w3.org/1999/02/22-rdf-syntax-ns#"
   xmlns:svg="http://www.w3.org/2000/svg"
   xmlns="http://www.w3.org/2000/svg"
   xmlns:xlink="http://www.w3.org/1999/xlink"
   height="291.6pt"
   version="1.1"
   viewBox="0 0 293.4 291.6"
   width="293.4pt"
   id="svg127">
  <metadata
     id="metadata2">
    <rdf:RDF>
      <cc:Work>
        <dc:type
           rdf:resource="http://purl.org/dc/dcmitype/StillImage" />
        <dc:date>2021-11-27T23:44:53.945135</dc:date>
        <dc:format>image/svg+xml</dc:format>
        <dc:creator>
          <cc:Agent>
            <dc:title>Matplotlib v3.3.4, https://matplotlib.org/</dc:title>
          </cc:Agent>
        </dc:creator>
        <dc:title></dc:title>
      </cc:Work>
    </rdf:RDF>
  </metadata>
  <defs
     id="defs6">
    <style
       type="text/css"
       id="style4">*{stroke-linecap:butt;stroke-linejoin:round;}</style>
  </defs>
  <g
     id="figure_1">
    <g
       id="patch_1">
      <path
         d="M 0 291.6  L 293.4 291.6  L 293.4 0  L 0 0  z "
         style="fill:none;"
         id="path8" />
    </g>
    <g
       id="axes_1">
      <g
         id="patch_2">
        <path
           clip-path="url(#pb717782e6a)"
           d="M 19.881818 173.765333  L 20.135708 173.552256  L 20.389599 173.336162  L 20.643489 173.117042  L 20.897379 172.89489  L 21.151269 172.669702  L 21.40516 172.441471  L 21.65905 172.210195  L 21.91294 171.97587  L 22.16683 171.738494  L 22.420721 171.498065  L 22.674611 171.254584  L 22.928501 171.00805  L 23.182391 170.758464  L 23.436282 170.505828  L 23.690172 170.250146  L 23.944062 169.991421  L 24.197952 169.729658  L 24.451843 169.464863  L 24.705733 169.197042  L 24.959623 168.926202  L 25.213514 168.652353  L 25.467404 168.375503  L 25.721294 168.095662  L 25.975184 167.812843  L 26.229075 167.527057  L 26.482965 167.238318  L 26.736855 166.946639  L 26.990745 166.652037  L 27.244636 166.354526  L 27.498526 166.054125  L 27.752416 165.750851  L 28.006306 165.444723  L 28.260197 165.135762  L 28.514087 164.823989  L 28.767977 164.509425  L 29.021867 164.192095  L 29.275758 163.872021  L 29.529648 163.54923  L 29.783538 163.223747  L 30.037428 162.8956  L 30.291319 162.564817  L 30.545209 162.231426  L 30.799099 161.895459  L 31.052989 161.556946  L 31.30688 161.21592  L 31.56077 160.872413  L 31.81466 160.52646  L 32.06855 160.178096  L 32.322441 159.827358  L 32.576331 159.474282  L 32.830221 159.118906  L 33.084111 158.761271  L 33.338002 158.401415  L 33.591892 158.03938  L 33.845782 157.675208  L 34.099672 157.308943  L 34.353563 156.940627  L 34.607453 156.570306  L 34.861343 156.198026  L 35.115233 155.823834  L 35.369124 155.447776  L 35.623014 155.069903  L 35.876904 154.690263  L 36.130794 154.308906  L 36.384685 153.925885  L 36.638575 153.541251  L 36.892465 153.155057  L 37.146355 152.767358  L 37.400246 152.378207  L 37.654136 151.987661  L 37.908026 151.595776  L 38.161916 151.202609  L 38.415807 150.808217  L 38.669697 150.412661  L 38.923587 150.015999  L 39.177477 149.618292  L 39.431368 149.219601  L 39.685258 148.819987  L 39.939148 148.419513  L 40.193038 148.018242  L 40.446929 147.616239  L 40.700819 147.213567  L 40.954709 146.810292  L 41.2086 146.406479  L 41.46249 146.002196  L 41.71638 145.597509  L 41.97027 145.192485  L 42.224161 144.787194  L 42.478051 144.381704  L 42.731941 143.976083  L 42.985831 143.570403  L 43.239722 143.164733  L 43.493612 142.759144  L 43.747502 142.353708  L 44.001392 141.948495  L 44.255283 141.543579  L 44.509173 141.139032  L 44.763063 140.734927  L 45.016953 140.331336  L 45.270844 140.007439  L 45.524734 140.395039  L 45.778624 140.781279  L 46.032514 141.166087  L 46.286405 141.54939  L 46.540295 141.931117  L 46.794185 142.311196  L 47.048075 142.689555  L 47.301966 143.066123  L 47.555856 143.440828  L 47.809746 143.813598  L 48.063636 144.184362  L 48.317527 144.55305  L 48.571417 144.919589  L 48.825307 145.28391  L 49.079197 145.645942  L 49.333088 146.005614  L 49.586978 146.362856  L 49.840868 146.7176  L 50.094758 147.069775  L 50.348649 147.419312  L 50.602539 147.766143  L 50.856429 148.1102  L 51.110319 148.451414  L 51.36421 148.789719  L 51.6181 149.125047  L 51.87199 149.457332  L 52.12588 149.786509  L 52.379771 150.11251  L 52.633661 150.435273  L 52.887551 150.754732  L 53.141441 151.070823  L 53.395332 151.383484  L 53.649222 151.692653  L 53.903112 151.998267  L 54.157002 152.300265  L 54.410893 152.598587  L 54.664783 152.893173  L 54.918673 153.183965  L 55.172563 153.470903  L 55.426454 153.753932  L 55.680344 154.032994  L 55.934234 154.308033  L 56.188124 154.578994  L 56.442015 154.845825  L 56.695905 155.10847  L 56.949795 155.366879  L 57.203686 155.620999  L 57.457576 155.870781  L 57.711466 156.116175  L 57.965356 156.357133  L 58.219247 156.593607  L 58.473137 156.82555  L 58.727027 157.052918  L 58.980917 157.275666  L 59.234808 157.493751  L 59.488698 157.70713  L 59.742588 157.915763  L 59.996478 158.11961  L 60.250369 158.318632  L 60.504259 158.51279  L 60.758149 158.70205  L 61.012039 158.886375  L 61.26593 159.065731  L 61.51982 159.240085  L 61.77371 159.409406  L 62.0276 159.573664  L 62.281491 159.732828  L 62.535381 159.886872  L 62.789271 160.035768  L 63.043161 160.179492  L 63.297052 160.318018  L 63.550942 160.451326  L 63.804832 160.579392  L 64.058722 160.702197  L 64.312613 160.819723  L 64.566503 160.931952  L 64.820393 161.038868  L 65.074283 161.140456  L 65.328174 161.236704  L 65.582064 161.327599  L 65.835954 161.413131  L 66.089844 161.493292  L 66.343735 161.568073  L 66.597625 161.637469  L 66.851515 161.701475  L 67.105405 161.760088  L 67.359296 161.813305  L 67.613186 161.861128  L 67.867076 161.903556  L 68.120966 161.940592  L 68.374857 161.972242  L 68.628747 161.998509  L 68.882637 162.019402  L 69.136527 162.034929  L 69.390418 162.0451  L 69.644308 162.049926  L 69.898198 162.049422  L 70.152088 162.0436  L 70.405979 162.032478  L 70.659869 162.016072  L 70.913759 161.994403  L 71.167649 161.96749  L 71.42154 161.935356  L 71.67543 161.898024  L 71.92932 161.855519  L 72.18321 161.807869  L 72.437101 161.7551  L 72.690991 161.697244  L 72.944881 161.63433  L 73.198771 161.566391  L 73.452662 161.493462  L 73.706552 161.415578  L 73.960442 161.332777  L 74.214333 161.245096  L 74.468223 161.152575  L 74.722113 161.055257  L 74.976003 160.953184  L 75.229894 160.846401  L 75.483784 160.734953  L 75.737674 160.618888  L 75.991564 160.498254  L 76.245455 160.373102  L 76.499345 160.243483  L 76.753235 160.10945  L 77.007125 159.971058  L 77.261016 159.828362  L 77.514906 159.681419  L 77.768796 159.530288  L 78.022686 159.375029  L 78.276577 159.215704  L 78.530467 159.052373  L 78.784357 158.885103  L 79.038247 158.713957  L 79.292138 158.539002  L 79.546028 158.360306  L 79.799918 158.177938  L 80.053808 157.991968  L 80.307699 157.802467  L 80.561589 157.609509  L 80.815479 157.413168  L 81.069369 157.213518  L 81.32326 157.010635  L 81.57715 156.804598  L 81.83104 156.595485  L 82.08493 156.383375  L 82.338821 156.168349  L 82.592711 155.95049  L 82.846601 155.729879  L 83.100491 155.506602  L 83.354382 155.280743  L 83.608272 155.052387  L 83.862162 154.821623  L 84.116052 154.588538  L 84.369943 154.35322  L 84.623833 154.11576  L 84.877723 153.876249  L 85.131613 153.634777  L 85.385504 153.391437  L 85.639394 153.146323  L 85.893284 152.899528  L 86.147174 152.651147  L 86.401065 152.401275  L 86.654955 152.15001  L 86.908845 151.897447  L 87.162735 151.643684  L 87.416626 151.38882  L 87.670516 151.132954  L 87.924406 150.876184  L 88.178296 150.61861  L 88.432187 150.360334  L 88.686077 150.101456  L 88.939967 149.842078  L 89.193857 149.582301  L 89.447748 149.322228  L 89.701638 149.061962  L 89.955528 148.801605  L 90.209419 148.541262  L 90.463309 148.281035  L 90.717199 148.021028  L 90.971089 147.761347  L 91.22498 147.502094  L 91.47887 147.243376  L 91.73276 146.985295  L 91.98665 146.727958  L 92.240541 146.471469  L 92.494431 146.215932  L 92.748321 145.961454  L 93.002211 145.708138  L 93.256102 145.456089  L 93.509992 145.205412  L 93.763882 144.956212  L 94.017772 144.708593  L 94.271663 144.462659  L 94.525553 144.218514  L 94.779443 143.976262  L 95.033333 143.736006  L 95.287224 143.497849  L 95.541114 143.261895  L 95.795004 143.028245  L 96.048894 143.00849  L 96.302785 143.483939  L 96.556675 143.960649  L 96.810565 144.438527  L 97.064455 144.917479  L 97.318346 145.397412  L 97.572236 145.878233  L 97.826126 146.359846  L 98.080016 146.842159  L 98.333907 147.325078  L 98.587797 147.808506  L 98.841687 148.292352  L 99.095577 148.776519  L 99.349468 149.260914  L 99.603358 149.745442  L 99.857248 150.230008  L 100.111138 150.714518  L 100.365029 151.198878  L 100.618919 151.682994  L 100.872809 152.16677  L 101.126699 152.650113  L 101.38059 153.132929  L 101.63448 153.615125  L 101.88837 154.096606  L 102.14226 154.57728  L 102.396151 155.057053  L 102.650041 155.535832  L 102.903931 156.013525  L 103.157821 156.490041  L 103.411712 156.965286  L 103.665602 157.439169  L 103.919492 157.911601  L 104.173382 158.382489  L 104.427273 158.851744  L 104.681163 159.319275  L 104.935053 159.784995  L 105.188943 160.248814  L 105.442834 160.710643  L 105.696724 161.170396  L 105.950614 161.627986  L 106.204505 162.083326  L 106.458395 162.53633  L 106.712285 162.986913  L 106.966175 163.434992  L 107.220066 163.880482  L 107.473956 164.323301  L 107.727846 164.763366  L 107.981736 165.200597  L 108.235627 165.634912  L 108.489517 166.066232  L 108.743407 166.494479  L 108.997297 166.919574  L 109.251188 167.34144  L 109.505078 167.760001  L 109.758968 168.175182  L 110.012858 168.586909  L 110.266749 168.995109  L 110.520639 169.39971  L 110.774529 169.80064  L 111.028419 170.197829  L 111.28231 170.591209  L 111.5362 170.980712  L 111.79009 171.36627  L 112.04398 171.747818  L 112.297871 172.125292  L 112.551761 172.498629  L 112.805651 172.867766  L 113.059541 173.232642  L 113.313432 173.593199  L 113.567322 173.949377  L 113.821212 174.30112  L 114.075102 174.648372  L 114.328993 174.991078  L 114.582883 175.329185  L 114.836773 175.662642  L 115.090663 175.991398  L 115.344554 176.315404  L 115.598444 176.634612  L 115.852334 176.948977  L 116.106224 177.258452  L 116.360115 177.562996  L 116.614005 177.862566  L 116.867895 178.157121  L 117.121785 178.446623  L 117.375676 178.731034  L 117.629566 179.010318  L 117.883456 179.28444  L 118.137346 179.553369  L 118.391237 179.817071  L 118.645127 180.075518  L 118.899017 180.32868  L 119.152907 180.576532  L 119.406798 180.819048  L 119.660688 181.056205  L 119.914578 181.28798  L 120.168468 181.514352  L 120.422359 181.735304  L 120.676249 181.950817  L 120.930139 182.160876  L 121.184029 182.365468  L 121.43792 182.564579  L 121.69181 182.758198  L 121.9457 182.946317  L 122.19959 183.128928  L 122.453481 183.306025  L 122.707371 183.477604  L 122.961261 183.643661  L 123.215152 183.804195  L 123.469042 183.959208  L 123.722932 184.108701  L 123.976822 184.252678  L 124.230713 184.391143  L 124.484603 184.524105  L 124.738493 184.651571  L 124.992383 184.773551  L 125.246274 184.890057  L 125.500164 185.001102  L 125.754054 185.106702  L 126.007944 185.206871  L 126.261835 185.301628  L 126.515725 185.390993  L 126.769615 185.474985  L 127.023505 185.553628  L 127.277396 185.626946  L 127.531286 185.694963  L 127.785176 185.757706  L 128.039066 185.815204  L 128.292957 185.867486  L 128.546847 185.914583  L 128.800737 185.956528  L 129.054627 185.993355  L 129.308518 186.025099  L 129.562408 186.051795  L 129.816298 186.073483  L 130.070188 186.090201  L 130.324079 186.101989  L 130.577969 186.10889  L 130.831859 186.110945  L 131.085749 186.1082  L 131.33964 186.100699  L 131.59353 186.088488  L 131.84742 186.071616  L 132.10131 186.050131  L 132.355201 186.024082  L 132.609091 185.993521  L 132.862981 185.958498  L 133.116871 185.919067  L 133.370762 185.875281  L 133.624652 185.827195  L 133.878542 185.774864  L 134.132432 185.718345  L 134.386323 185.657695  L 134.640213 185.592971  L 134.894103 185.524233  L 135.147993 185.451539  L 135.401884 185.374951  L 135.655774 185.294528  L 135.909664 185.210332  L 136.163554 185.122425  L 136.417445 185.030869  L 136.671335 184.935728  L 136.925225 184.837065  L 137.179115 184.734944  L 137.433006 184.629429  L 137.686896 184.520585  L 137.940786 184.408477  L 138.194676 184.293169  L 138.448567 184.174729  L 138.702457 184.053221  L 138.956347 183.92871  L 139.210238 183.801264  L 139.464128 183.670949  L 139.718018 183.537829  L 139.971908 183.401972  L 140.225799 183.263444  L 140.479689 183.12231  L 140.733579 182.978636  L 140.987469 182.832488  L 141.24136 182.683932  L 141.49525 182.533033  L 141.74914 182.379855  L 142.00303 182.224463  L 142.256921 182.066922  L 142.510811 181.907296  L 142.764701 181.745647  L 143.018591 181.582039  L 143.272482 181.416534  L 143.526372 181.249194  L 143.780262 181.080081  L 144.034152 180.909254  L 144.288043 180.736773  L 144.541933 180.562699  L 144.795823 180.387089  L 145.049713 180.21  L 145.303604 180.03149  L 145.557494 179.851614  L 145.811384 179.670428  L 146.065274 179.487985  L 146.319165 179.304339  L 146.573055 179.119541  L 146.826945 179.111123  L 147.080835 179.274181  L 147.334726 179.429531  L 147.588616 179.577099  L 147.842506 179.716816  L 148.096396 179.848614  L 148.350287 179.97243  L 148.604177 180.088201  L 148.858067 180.19587  L 149.111957 180.295381  L 149.365848 180.386681  L 149.619738 180.469722  L 149.873628 180.544456  L 150.127518 180.61084  L 150.381409 180.668834  L 150.635299 180.7184  L 150.889189 180.759505  L 151.143079 180.792116  L 151.39697 180.816206  L 151.65086 180.831751  L 151.90475 180.838727  L 152.15864 180.837118  L 152.412531 180.826907  L 152.666421 180.808082  L 152.920311 180.780634  L 153.174201 180.744557  L 153.428092 180.699848  L 153.681982 180.646508  L 153.935872 180.58454  L 154.189762 180.513952  L 154.443653 180.434752  L 154.697543 180.346955  L 154.951433 180.250576  L 155.205324 180.145634  L 155.459214 180.032153  L 155.713104 179.910158  L 155.966994 179.779676  L 156.220885 179.640741  L 156.474775 179.493387  L 156.728665 179.337651  L 156.982555 179.173575  L 157.236446 179.001202  L 157.490336 178.820579  L 157.744226 178.631757  L 157.998116 178.434786  L 158.252007 178.229724  L 158.505897 178.016628  L 158.759787 177.79556  L 159.013677 177.566583  L 159.267568 177.329764  L 159.521458 177.085173  L 159.775348 176.832882  L 160.029238 176.572965  L 160.283129 176.305499  L 160.537019 176.030565  L 160.790909 175.748245  L 161.044799 175.458624  L 161.29869 175.161788  L 161.55258 174.857827  L 161.80647 174.546834  L 162.06036 174.228902  L 162.314251 173.904128  L 162.568141 173.57261  L 162.822031 173.234448  L 163.075921 172.889746  L 163.329812 172.538607  L 163.583702 172.181139  L 163.837592 171.81745  L 164.091482 171.44765  L 164.345373 171.071851  L 164.599263 170.690167  L 164.853153 170.302712  L 165.107043 169.909605  L 165.360934 169.510963  L 165.614824 169.106906  L 165.868714 168.697555  L 166.122604 168.283033  L 166.376495 167.863464  L 166.630385 167.438972  L 166.884275 167.009683  L 167.138165 166.575726  L 167.392056 166.137227  L 167.645946 165.694315  L 167.899836 165.247122  L 168.153726 164.795776  L 168.407617 164.34041  L 168.661507 163.881155  L 168.915397 163.418144  L 169.169287 162.95151  L 169.423178 162.481386  L 169.677068 162.007906  L 169.930958 161.531204  L 170.184848 161.051414  L 170.438739 160.568672  L 170.692629 160.08311  L 170.946519 159.594864  L 171.20041 159.104068  L 171.4543 158.610857  L 171.70819 158.115365  L 171.96208 157.617725  L 172.215971 157.248755  L 172.469861 156.964246  L 172.723751 156.676855  L 172.977641 156.386533  L 173.231532 156.093234  L 173.485422 155.796911  L 173.739312 155.497518  L 173.993202 155.195012  L 174.247093 154.88935  L 174.500983 154.58049  L 174.754873 154.268392  L 175.008763 153.953016  L 175.262654 153.634325  L 175.516544 153.312284  L 175.770434 152.986856  L 176.024324 152.658009  L 176.278215 152.325711  L 176.532105 151.989932  L 176.785995 151.650644  L 177.039885 151.30782  L 177.293776 150.961435  L 177.547666 150.611467  L 177.801556 150.257894  L 178.055446 149.900696  L 178.309337 149.539856  L 178.563227 149.17536  L 178.817117 148.807192  L 179.071007 148.435343  L 179.324898 148.059803  L 179.578788 147.680564  L 179.832678 147.297622  L 180.086568 146.910974  L 180.340459 146.520619  L 180.594349 146.126559  L 180.848239 145.728798  L 181.102129 145.327342  L 181.35602 144.922199  L 181.60991 144.513381  L 181.8638 144.1009  L 182.11769 143.684773  L 182.371581 143.265017  L 182.625471 142.841652  L 182.879361 142.414703  L 183.133251 141.984193  L 183.387142 141.550151  L 183.641032 141.112608  L 183.894922 140.671596  L 184.148812 140.22715  L 184.402703 139.779308  L 184.656593 139.328111  L 184.910483 138.873601  L 185.164373 138.415824  L 185.418264 137.954828  L 185.672154 137.490662  L 185.926044 137.023381  L 186.179934 136.553039  L 186.433825 136.079695  L 186.687715 135.603408  L 186.941605 135.124241  L 187.195495 134.642261  L 187.449386 134.157534  L 187.703276 133.670132  L 187.957166 133.180125  L 188.211057 132.687591  L 188.464947 132.192606  L 188.718837 131.69525  L 188.972727 131.195604  L 189.226618 130.693755  L 189.480508 130.189788  L 189.734398 129.683792  L 189.988288 129.175858  L 190.242179 128.666081  L 190.496069 128.154555  L 190.749959 127.641378  L 191.003849 127.126651  L 191.25774 126.610474  L 191.51163 126.092952  L 191.76552 125.574191  L 192.01941 125.054298  L 192.273301 124.533384  L 192.527191 124.011558  L 192.781081 123.488936  L 193.034971 122.965632  L 193.288862 122.441762  L 193.542752 121.917446  L 193.796642 121.392802  L 194.050532 120.867954  L 194.304423 120.343023  L 194.558313 119.818134  L 194.812203 119.293414  L 195.066093 118.768988  L 195.319984 118.244987  L 195.573874 117.721539  L 195.827764 117.198776  L 196.081654 116.676829  L 196.335545 116.155831  L 196.589435 115.635916  L 196.843325 115.11722  L 197.097215 114.599877  L 197.351106 114.084026  L 197.604996 113.72598  L 197.858886 113.437422  L 198.112776 113.151526  L 198.366667 112.868246  L 198.620557 112.587533  L 198.874447 112.309338  L 199.128337 112.03361  L 199.382228 111.760299  L 199.636118 111.489355  L 199.890008 111.220726  L 200.143898 110.954359  L 200.397789 110.690203  L 200.651679 110.428204  L 200.905569 110.16831  L 201.159459 109.910467  L 201.41335 109.654622  L 201.66724 109.400722  L 201.92113 109.148711  L 202.17502 108.898538  L 202.428911 108.650147  L 202.682801 108.403486  L 202.936691 108.1585  L 203.190581 107.915136  L 203.444472 107.67334  L 203.698362 107.433061  L 203.952252 107.194244  L 204.206143 106.956838  L 204.460033 106.720791  L 204.713923 106.48605  L 204.967813 106.252565  L 205.221704 106.020286  L 205.475594 105.789161  L 205.729484 105.559141  L 205.983374 105.330179  L 206.237265 105.102224  L 206.491155 104.875231  L 206.745045 104.649152  L 206.998935 104.423941  L 207.252826 104.199553  L 207.506716 103.975944  L 207.760606 103.75307  L 208.014496 103.530889  L 208.268387 103.30936  L 208.522277 103.088441  L 208.776167 102.868094  L 209.030057 102.64828  L 209.283948 102.428962  L 209.537838 102.210103  L 209.791728 101.991667  L 210.045618 101.773622  L 210.299509 101.555934  L 210.553399 101.338571  L 210.807289 101.121503  L 211.061179 100.904701  L 211.31507 100.688136  L 211.56896 100.471783  L 211.82285 100.255615  L 212.07674 100.039608  L 212.330631 99.823739  L 212.584521 99.607988  L 212.838411 99.392333  L 213.092301 99.176756  L 213.346192 98.961239  L 213.600082 98.745767  L 213.853972 98.530323  L 214.107862 98.314896  L 214.361753 98.099472  L 214.615643 97.884041  L 214.869533 97.668594  L 215.123423 97.453123  L 215.377314 97.237621  L 215.631204 97.022083  L 215.885094 96.806504  L 216.138984 96.590884  L 216.392875 96.37522  L 216.646765 96.159512  L 216.900655 95.943763  L 217.154545 95.727975  L 217.408436 95.512152  L 217.662326 95.2963  L 217.916216 95.080426  L 218.170106 94.864537  L 218.423997 94.648644  L 218.677887 94.432756  L 218.931777 94.216886  L 219.185667 94.001047  L 219.439558 93.785253  L 219.693448 93.56952  L 219.947338 93.353863  L 220.201229 93.138302  L 220.455119 92.922855  L 220.709009 92.707542  L 220.962899 92.492384  L 221.21679 92.277403  L 221.47068 92.062623  L 221.72457 91.848068  L 221.97846 91.633763  L 222.232351 91.419735  L 222.486241 91.206009  L 222.740131 90.992616  L 222.994021 91.098624  L 223.247912 91.29224  L 223.501802 91.494477  L 223.755692 91.705274  L 224.009582 91.924566  L 224.263473 92.152286  L 224.517363 92.388366  L 224.771253 92.632733  L 225.025143 92.885314  L 225.279034 93.146033  L 225.532924 93.414811  L 225.786814 93.691567  L 226.040704 93.976218  L 226.294595 94.26868  L 226.548485 94.568865  L 226.802375 94.876684  L 227.056265 95.192045  L 227.310156 95.514856  L 227.564046 95.845022  L 227.817936 96.182445  L 228.071826 96.527028  L 228.325717 96.878669  L 228.579607 97.237266  L 228.833497 97.602716  L 229.087387 97.974913  L 229.341278 98.35375  L 229.595168 98.739119  L 229.849058 99.13091  L 230.102948 99.529012  L 230.356839 99.933313  L 230.610729 100.343697  L 230.864619 100.760052  L 231.118509 101.182259  L 231.3724 101.610203  L 231.62629 102.043764  L 231.88018 102.482823  L 232.13407 102.927261  L 232.387961 103.376955  L 232.641851 103.831784  L 232.895741 104.291625  L 233.149631 104.756355  L 233.403522 105.22585  L 233.657412 105.699984  L 233.911302 106.178633  L 234.165192 106.661671  L 234.419083 107.148971  L 234.672973 107.640407  L 234.926863 108.135853  L 235.180753 108.63518  L 235.434644 109.138262  L 235.688534 109.644971  L 235.942424 110.155179  L 236.196314 110.668759  L 236.450205 111.185583  L 236.704095 111.705522  L 236.957985 112.228451  L 237.211876 112.75424  L 237.465766 113.282763  L 237.719656 113.813893  L 237.973546 114.347504  L 238.227437 114.883468  L 238.481327 115.42166  L 238.735217 115.961954  L 238.989107 116.504226  L 239.242998 117.04835  L 239.496888 117.594204  L 239.750778 118.141663  L 240.004668 118.690605  L 240.258559 119.240908  L 240.512449 119.792452  L 240.766339 120.345115  L 241.020229 120.898778  L 241.27412 121.453323  L 241.52801 122.008631  L 241.7819 122.564587  L 242.03579 123.121074  L 242.289681 123.677978  L 242.543571 124.235184  L 242.797461 124.792581  L 243.051351 125.350057  L 243.305242 125.907502  L 243.559132 126.464806  L 243.813022 127.021862  L 244.066912 127.578563  L 244.320803 128.134804  L 244.574693 128.690481  L 244.828583 129.245492  L 245.082473 129.799734  L 245.336364 130.353108  L 245.590254 130.905516  L 245.844144 131.456861  L 246.098034 132.007046  L 246.351925 132.555979  L 246.605815 133.103566  L 246.859705 133.649717  L 247.113595 134.194341  L 247.367486 134.737351  L 247.621376 135.278661  L 247.875266 135.818186  L 248.129156 136.355842  L 248.383047 136.891548  L 248.636937 137.425224  L 248.890827 137.956792  L 249.144717 138.486175  L 249.398608 139.013298  L 249.652498 139.538088  L 249.906388 140.060474  L 250.160278 140.580384  L 250.414169 141.097751  L 250.668059 141.612509  L 250.921949 142.124592  L 251.175839 142.633937  L 251.42973 143.140483  L 251.68362 143.64417  L 251.93751 144.144939  L 252.1914 144.642735  L 252.445291 145.137503  L 252.699181 145.629189  L 252.953071 146.117743  L 253.206962 146.603114  L 253.460852 147.085256  L 253.714742 147.56412  L 253.968632 148.039664  L 254.222523 148.511843  L 254.476413 148.980618  L 254.730303 149.445947  L 254.984193 149.907793  L 255.238084 150.36612  L 255.491974 150.820893  L 255.745864 151.272078  L 255.999754 151.719645  L 256.253645 152.163563  L 256.507535 152.603804  L 256.761425 153.04034  L 257.015315 153.473147  L 257.269206 153.902201  L 257.523096 154.327479  L 257.776986 154.748961  L 258.030876 155.166627  L 258.284767 155.58046  L 258.538657 155.990443  L 258.792547 156.39656  L 259.046437 156.798799  L 259.300328 157.197147  L 259.554218 157.591593  L 259.808108 157.982128  L 260.061998 158.368744  L 260.315889 158.751433  L 260.569779 159.13019  L 260.823669 159.50501  L 261.077559 159.875892  L 261.33145 160.242831  L 261.58534 160.605829  L 261.83923 160.964886  L 262.09312 161.320002  L 262.347011 161.671181  L 262.600901 162.018427  L 262.854791 162.361745  L 263.108681 162.70114  L 263.362572 163.036621  L 263.616462 163.368194  L 263.870352 163.695869  L 264.124242 164.019656  L 264.378133 164.339566  L 264.632023 164.655611  L 264.885913 164.967804  L 265.139803 165.276158  L 265.393694 165.580688  L 265.647584 165.88141  L 265.901474 166.178339  L 266.155364 166.471493  L 266.409255 166.760889  L 266.663145 167.046545  L 266.917035 167.328482  L 267.170925 167.606718  L 267.424816 167.881275  L 267.678706 168.152173  L 267.932596 168.419434  L 268.186486 168.683081  L 268.440377 168.943137  L 268.694267 169.199624  L 268.948157 169.452568  L 269.202048 169.701993  L 269.455938 169.947924  L 269.709828 170.190386  L 269.963718 170.429406  L 270.217609 170.665009  L 270.471499 170.897223  L 270.725389 171.126075  L 270.979279 171.351593  L 271.23317 171.573803  L 271.48706 171.792736  L 271.74095 172.008418  L 271.99484 172.220879  L 272.248731 172.430149  L 272.502621 172.636256  L 272.756511 172.83923  L 273.010401 173.039101  L 273.264292 173.235899  L 273.518182 173.429654  L 273.518182 84.192676  L 273.264292 84.095234  L 273.010401 83.997359  L 272.756511 83.899073  L 272.502621 83.800398  L 272.248731 83.701356  L 271.99484 83.601969  L 271.74095 83.502262  L 271.48706 83.402257  L 271.23317 83.30198  L 270.979279 83.201456  L 270.725389 83.100709  L 270.471499 82.999766  L 270.217609 82.898653  L 269.963718 82.797399  L 269.709828 82.696029  L 269.455938 82.594572  L 269.202048 82.493058  L 268.948157 82.391514  L 268.694267 82.28997  L 268.440377 82.188457  L 268.186486 82.087005  L 267.932596 81.985644  L 267.678706 81.884407  L 267.424816 81.783325  L 267.170925 81.68243  L 266.917035 81.581755  L 266.663145 81.481333  L 266.409255 81.381198  L 266.155364 81.281383  L 265.901474 81.181923  L 265.647584 81.082852  L 265.393694 80.984205  L 265.139803 80.886018  L 264.885913 80.788326  L 264.632023 80.691165  L 264.378133 80.594571  L 264.124242 80.498581  L 263.870352 80.403232  L 263.616462 80.30856  L 263.362572 80.214603  L 263.108681 80.121398  L 262.854791 80.028983  L 262.600901 79.937396  L 262.347011 79.846674  L 262.09312 79.756857  L 261.83923 79.667982  L 261.58534 79.580088  L 261.33145 79.493213  L 261.077559 79.407396  L 260.823669 79.322675  L 260.569779 79.23909  L 260.315889 79.156679  L 260.061998 79.075481  L 259.808108 78.995534  L 259.554218 78.916878  L 259.300328 78.83955  L 259.046437 78.76359  L 258.792547 78.689036  L 258.538657 78.615927  L 258.284767 78.5443  L 258.030876 78.474194  L 257.776986 78.405646  L 257.523096 78.338695  L 257.269206 78.273378  L 257.015315 78.209732  L 256.761425 78.147794  L 256.507535 78.087602  L 256.253645 78.02919  L 255.999754 77.972597  L 255.745864 77.917856  L 255.491974 77.865005  L 255.238084 77.814077  L 254.984193 77.765108  L 254.730303 77.718131  L 254.476413 77.673181  L 254.222523 77.630291  L 253.968632 77.589493  L 253.714742 77.550821  L 253.460852 77.514305  L 253.206962 77.479977  L 252.953071 77.447868  L 252.699181 77.418008  L 252.445291 77.390426  L 252.1914 77.365152  L 251.93751 77.342213  L 251.68362 77.321636  L 251.42973 77.30345  L 251.175839 77.28768  L 250.921949 77.274352  L 250.668059 77.26349  L 250.414169 77.255119  L 250.160278 77.249261  L 249.906388 77.24594  L 249.652498 77.245176  L 249.398608 77.246991  L 249.144717 77.251405  L 248.890827 77.258437  L 248.636937 77.268105  L 248.383047 77.280426  L 248.129156 77.295418  L 247.875266 77.313096  L 247.621376 77.333475  L 247.367486 77.356568  L 247.113595 77.382388  L 246.859705 77.410948  L 246.605815 77.442259  L 246.351925 77.47633  L 246.098034 77.513171  L 245.844144 77.552789  L 245.590254 77.595192  L 245.336364 77.640386  L 245.082473 77.688376  L 244.828583 77.739167  L 244.574693 77.79276  L 244.320803 77.849159  L 244.066912 77.908364  L 243.813022 77.970376  L 243.559132 78.035193  L 243.305242 78.102813  L 243.051351 78.173234  L 242.797461 78.246451  L 242.543571 78.322459  L 242.289681 78.401252  L 242.03579 78.482822  L 241.7819 78.567163  L 241.52801 78.654263  L 241.27412 78.744114  L 241.020229 78.836703  L 240.766339 78.932019  L 240.512449 79.030048  L 240.258559 79.130776  L 240.004668 79.234188  L 239.750778 79.340267  L 239.496888 79.448996  L 239.242998 79.560357  L 238.989107 79.674332  L 238.735217 79.790899  L 238.481327 79.910038  L 238.227437 80.031727  L 237.973546 80.155943  L 237.719656 80.282662  L 237.465766 80.411861  L 237.211876 80.543512  L 236.957985 80.677591  L 236.704095 80.81407  L 236.450205 80.952921  L 236.196314 81.094116  L 235.942424 81.237625  L 235.688534 81.383418  L 235.434644 81.531463  L 235.180753 81.68173  L 234.926863 81.834186  L 234.672973 81.988798  L 234.419083 82.145533  L 234.165192 82.304356  L 233.911302 82.465233  L 233.657412 82.628127  L 233.403522 82.793004  L 233.149631 82.959827  L 232.895741 83.128559  L 232.641851 83.299162  L 232.387961 83.4716  L 232.13407 83.645833  L 231.88018 83.821823  L 231.62629 83.999532  L 231.3724 84.17892  L 231.118509 84.359947  L 230.864619 84.542574  L 230.610729 84.726762  L 230.356839 84.912469  L 230.102948 85.099655  L 229.849058 85.288281  L 229.595168 85.478305  L 229.341278 85.669688  L 229.087387 85.862387  L 228.833497 86.056364  L 228.579607 86.251577  L 228.325717 86.447985  L 228.071826 86.645549  L 227.817936 86.844228  L 227.564046 87.043982  L 227.310156 87.244771  L 227.056265 87.446556  L 226.802375 87.649296  L 226.548485 87.852954  L 226.294595 88.05749  L 226.040704 88.262866  L 225.786814 88.469044  L 225.532924 88.675986  L 225.279034 88.883656  L 225.025143 89.092017  L 224.771253 89.301033  L 224.517363 89.510668  L 224.263473 89.720887  L 224.009582 89.931657  L 223.755692 90.142944  L 223.501802 90.354715  L 223.247912 90.566938  L 222.994021 90.779581  L 222.740131 90.913688  L 222.486241 90.737491  L 222.232351 90.570084  L 221.97846 90.41152  L 221.72457 90.261847  L 221.47068 90.121112  L 221.21679 89.989358  L 220.962899 89.866624  L 220.709009 89.752949  L 220.455119 89.648369  L 220.201229 89.552914  L 219.947338 89.466614  L 219.693448 89.389496  L 219.439558 89.321582  L 219.185667 89.262894  L 218.931777 89.213448  L 218.677887 89.17326  L 218.423997 89.142342  L 218.170106 89.120701  L 217.916216 89.108343  L 217.662326 89.105272  L 217.408436 89.111487  L 217.154545 89.126984  L 216.900655 89.151758  L 216.646765 89.185799  L 216.392875 89.229094  L 216.138984 89.281628  L 215.885094 89.343384  L 215.631204 89.414338  L 215.377314 89.494468  L 215.123423 89.583745  L 214.869533 89.682139  L 214.615643 89.789618  L 214.361753 89.906143  L 214.107862 90.031677  L 213.853972 90.166177  L 213.600082 90.309598  L 213.346192 90.461891  L 213.092301 90.623006  L 212.838411 90.792889  L 212.584521 90.971483  L 212.330631 91.158729  L 212.07674 91.354565  L 211.82285 91.558925  L 211.56896 91.771741  L 211.31507 91.992944  L 211.061179 92.22246  L 210.807289 92.460214  L 210.553399 92.706126  L 210.299509 92.960116  L 210.045618 93.222101  L 209.791728 93.491994  L 209.537838 93.769707  L 209.283948 94.05515  L 209.030057 94.348228  L 208.776167 94.648848  L 208.522277 94.956909  L 208.268387 95.272314  L 208.014496 95.594959  L 207.760606 95.924741  L 207.506716 96.261552  L 207.252826 96.605284  L 206.998935 96.955828  L 206.745045 97.31307  L 206.491155 97.676897  L 206.237265 98.047193  L 205.983374 98.423839  L 205.729484 98.806717  L 205.475594 99.195705  L 205.221704 99.590681  L 204.967813 99.991521  L 204.713923 100.398099  L 204.460033 100.810288  L 204.206143 101.227959  L 203.952252 101.650985  L 203.698362 102.079233  L 203.444472 102.512572  L 203.190581 102.950868  L 202.936691 103.393989  L 202.682801 103.841799  L 202.428911 104.294163  L 202.17502 104.750943  L 201.92113 105.212004  L 201.66724 105.677206  L 201.41335 106.146412  L 201.159459 106.619482  L 200.905569 107.096278  L 200.651679 107.576659  L 200.397789 108.060486  L 200.143898 108.547617  L 199.890008 109.037913  L 199.636118 109.531233  L 199.382228 110.027436  L 199.128337 110.526382  L 198.874447 111.027929  L 198.620557 111.531939  L 198.366667 112.03827  L 198.112776 112.546784  L 197.858886 113.05734  L 197.604996 113.569799  L 197.351106 114.017247  L 197.097215 114.311272  L 196.843325 114.608097  L 196.589435 114.907767  L 196.335545 115.210326  L 196.081654 115.515814  L 195.827764 115.824274  L 195.573874 116.135745  L 195.319984 116.450265  L 195.066093 116.767872  L 194.812203 117.088602  L 194.558313 117.412489  L 194.304423 117.739566  L 194.050532 118.069865  L 193.796642 118.403417  L 193.542752 118.740249  L 193.288862 119.080389  L 193.034971 119.423862  L 192.781081 119.770693  L 192.527191 120.120902  L 192.273301 120.474511  L 192.01941 120.831537  L 191.76552 121.191998  L 191.51163 121.555907  L 191.25774 121.923279  L 191.003849 122.294123  L 190.749959 122.668448  L 190.496069 123.046262  L 190.242179 123.427569  L 189.988288 123.812372  L 189.734398 124.200671  L 189.480508 124.592465  L 189.226618 124.987751  L 188.972727 125.386521  L 188.718837 125.788769  L 188.464947 126.194484  L 188.211057 126.603653  L 187.957166 127.016261  L 187.703276 127.432291  L 187.449386 127.851723  L 187.195495 128.274536  L 186.941605 128.700706  L 186.687715 129.130205  L 186.433825 129.563005  L 186.179934 129.999075  L 185.926044 130.43838  L 185.672154 130.880885  L 185.418264 131.326551  L 185.164373 131.775337  L 184.910483 132.2272  L 184.656593 132.682093  L 184.402703 133.139969  L 184.148812 133.600777  L 183.894922 134.064464  L 183.641032 134.530975  L 183.387142 135.000252  L 183.133251 135.472234  L 182.879361 135.946859  L 182.625471 136.424062  L 182.371581 136.903776  L 182.11769 137.385932  L 181.8638 137.870456  L 181.60991 138.357276  L 181.35602 138.846315  L 181.102129 139.337493  L 180.848239 139.830731  L 180.594349 140.325945  L 180.340459 140.823049  L 180.086568 141.321956  L 179.832678 141.822577  L 179.578788 142.324819  L 179.324898 142.82859  L 179.071007 143.333794  L 178.817117 143.840332  L 178.563227 144.348106  L 178.309337 144.857013  L 178.055446 145.366951  L 177.801556 145.877813  L 177.547666 146.389494  L 177.293776 146.901884  L 177.039885 147.414874  L 176.785995 147.92835  L 176.532105 148.4422  L 176.278215 148.956308  L 176.024324 149.470557  L 175.770434 149.98483  L 175.516544 150.499008  L 175.262654 151.012968  L 175.008763 151.52659  L 174.754873 152.03975  L 174.500983 152.552323  L 174.247093 153.064185  L 173.993202 153.575208  L 173.739312 154.085265  L 173.485422 154.594227  L 173.231532 155.101966  L 172.977641 155.60835  L 172.723751 156.11325  L 172.469861 156.616534  L 172.215971 157.118069  L 171.96208 157.530429  L 171.70819 157.809322  L 171.4543 158.085481  L 171.20041 158.35896  L 170.946519 158.62981  L 170.692629 158.898084  L 170.438739 159.163835  L 170.184848 159.427117  L 169.930958 159.687985  L 169.677068 159.946493  L 169.423178 160.202696  L 169.169287 160.45665  L 168.915397 160.70841  L 168.661507 160.958032  L 168.407617 161.205571  L 168.153726 161.451085  L 167.899836 161.694628  L 167.645946 161.936256  L 167.392056 162.176026  L 167.138165 162.413993  L 166.884275 162.650212  L 166.630385 162.884738  L 166.376495 163.117627  L 166.122604 163.348932  L 165.868714 163.578709  L 165.614824 163.807009  L 165.360934 164.033887  L 165.107043 164.259395  L 164.853153 164.483585  L 164.599263 164.706508  L 164.345373 164.928214  L 164.091482 165.148754  L 163.837592 165.368176  L 163.583702 165.586528  L 163.329812 165.803858  L 163.075921 166.020212  L 162.822031 166.235634  L 162.568141 166.450171  L 162.314251 166.663863  L 162.06036 166.876755  L 161.80647 167.088887  L 161.55258 167.300298  L 161.29869 167.511027  L 161.044799 167.721113  L 160.790909 167.93059  L 160.537019 168.139494  L 160.283129 168.347859  L 160.029238 168.555716  L 159.775348 168.763096  L 159.521458 168.970029  L 159.267568 169.176542  L 159.013677 169.382663  L 158.759787 169.588416  L 158.505897 169.793824  L 158.252007 169.99891  L 157.998116 170.203693  L 157.744226 170.408193  L 157.490336 170.612428  L 157.236446 170.816412  L 156.982555 171.020159  L 156.728665 171.223683  L 156.474775 171.426993  L 156.220885 171.6301  L 155.966994 171.83301  L 155.713104 172.035729  L 155.459214 172.238262  L 155.205324 172.44061  L 154.951433 172.642775  L 154.697543 172.844756  L 154.443653 173.04655  L 154.189762 173.248154  L 153.935872 173.44956  L 153.681982 173.650761  L 153.428092 173.851749  L 153.174201 174.052512  L 152.920311 174.253037  L 152.666421 174.453311  L 152.412531 174.653317  L 152.15864 174.853038  L 151.90475 175.052455  L 151.65086 175.251546  L 151.39697 175.45029  L 151.143079 175.648663  L 150.889189 175.846638  L 150.635299 176.04419  L 150.381409 176.241288  L 150.127518 176.437904  L 149.873628 176.634005  L 149.619738 176.829559  L 149.365848 177.024531  L 149.111957 177.218884  L 148.858067 177.412582  L 148.604177 177.605586  L 148.350287 177.797856  L 148.096396 177.98935  L 147.842506 178.180025  L 147.588616 178.369838  L 147.334726 178.558743  L 147.080835 178.746693  L 146.826945 178.933642  L 146.573055 178.94043  L 146.319165 178.762183  L 146.065274 178.576462  L 145.811384 178.38335  L 145.557494 178.182932  L 145.303604 177.975299  L 145.049713 177.760541  L 144.795823 177.538752  L 144.541933 177.310028  L 144.288043 177.074467  L 144.034152 176.832171  L 143.780262 176.583243  L 143.526372 176.327788  L 143.272482 176.065914  L 143.018591 175.79773  L 142.764701 175.523349  L 142.510811 175.242885  L 142.256921 174.956453  L 142.00303 174.664172  L 141.74914 174.366162  L 141.49525 174.062544  L 141.24136 173.753441  L 140.987469 173.43898  L 140.733579 173.119286  L 140.479689 172.794489  L 140.225799 172.464719  L 139.971908 172.130107  L 139.718018 171.790786  L 139.464128 171.446891  L 139.210238 171.098557  L 138.956347 170.745922  L 138.702457 170.389124  L 138.448567 170.028302  L 138.194676 169.663597  L 137.940786 169.29515  L 137.686896 168.923104  L 137.433006 168.547602  L 137.179115 168.168789  L 136.925225 167.786808  L 136.671335 167.401808  L 136.417445 167.013932  L 136.163554 166.623329  L 135.909664 166.230147  L 135.655774 165.834532  L 135.401884 165.436634  L 135.147993 165.0366  L 134.894103 164.634581  L 134.640213 164.230726  L 134.386323 163.825183  L 134.132432 163.418103  L 133.878542 163.009634  L 133.624652 162.599927  L 133.370762 162.18913  L 133.116871 161.777394  L 132.862981 161.364867  L 132.609091 160.951698  L 132.355201 160.538035  L 132.10131 160.124027  L 131.84742 159.709821  L 131.59353 159.295565  L 131.33964 158.881405  L 131.085749 158.467487  L 130.831859 158.053956  L 130.577969 157.640957  L 130.324079 157.228634  L 130.070188 156.817131  L 129.816298 156.406588  L 129.562408 155.997148  L 129.308518 155.58895  L 129.054627 155.182133  L 128.800737 154.776837  L 128.546847 154.373197  L 128.292957 153.971349  L 128.039066 153.571428  L 127.785176 153.173568  L 127.531286 152.777899  L 127.277396 152.384553  L 127.023505 151.993658  L 126.769615 151.605342  L 126.515725 151.219732  L 126.261835 150.836951  L 126.007944 150.457122  L 125.754054 150.080368  L 125.500164 149.706807  L 125.246274 149.336557  L 124.992383 148.969735  L 124.738493 148.606455  L 124.484603 148.246829  L 124.230713 147.890968  L 123.976822 147.53898  L 123.722932 147.190973  L 123.469042 146.847051  L 123.215152 146.507317  L 122.961261 146.171873  L 122.707371 145.840816  L 122.453481 145.514243  L 122.19959 145.192249  L 121.9457 144.874927  L 121.69181 144.562366  L 121.43792 144.254655  L 121.184029 143.951879  L 120.930139 143.654122  L 120.676249 143.361466  L 120.422359 143.07399  L 120.168468 142.79177  L 119.914578 142.514882  L 119.660688 142.243396  L 119.406798 141.977383  L 119.152907 141.716911  L 118.899017 141.462045  L 118.645127 141.212847  L 118.391237 140.969378  L 118.137346 140.731695  L 117.883456 140.499855  L 117.629566 140.27391  L 117.375676 140.05391  L 117.121785 139.839905  L 116.867895 139.63194  L 116.614005 139.430059  L 116.360115 139.234301  L 116.106224 139.044707  L 115.852334 138.861311  L 115.598444 138.684147  L 115.344554 138.513246  L 115.090663 138.348637  L 114.836773 138.190347  L 114.582883 138.038398  L 114.328993 137.892812  L 114.075102 137.753608  L 113.821212 137.620802  L 113.567322 137.494409  L 113.313432 137.374439  L 113.059541 137.260902  L 112.805651 137.153805  L 112.551761 137.053152  L 112.297871 136.958945  L 112.04398 136.871183  L 111.79009 136.789864  L 111.5362 136.714983  L 111.28231 136.646532  L 111.028419 136.584501  L 110.774529 136.528879  L 110.520639 136.47965  L 110.266749 136.436799  L 110.012858 136.400307  L 109.758968 136.370151  L 109.505078 136.34631  L 109.251188 136.328757  L 108.997297 136.317466  L 108.743407 136.312405  L 108.489517 136.313543  L 108.235627 136.320846  L 107.981736 136.334278  L 107.727846 136.353801  L 107.473956 136.379374  L 107.220066 136.410955  L 106.966175 136.4485  L 106.712285 136.491963  L 106.458395 136.541295  L 106.204505 136.596447  L 105.950614 136.657366  L 105.696724 136.723999  L 105.442834 136.79629  L 105.188943 136.874181  L 104.935053 136.957615  L 104.681163 137.046529  L 104.427273 137.140861  L 104.173382 137.240546  L 103.919492 137.34552  L 103.665602 137.455714  L 103.411712 137.571059  L 103.157821 137.691484  L 102.903931 137.816918  L 102.650041 137.947287  L 102.396151 138.082515  L 102.14226 138.222525  L 101.88837 138.367241  L 101.63448 138.516582  L 101.38059 138.670469  L 101.126699 138.828818  L 100.872809 138.991548  L 100.618919 139.158573  L 100.365029 139.329808  L 100.111138 139.505166  L 99.857248 139.68456  L 99.603358 139.8679  L 99.349468 140.055097  L 99.095577 140.24606  L 98.841687 140.440696  L 98.587797 140.638914  L 98.333907 140.840618  L 98.080016 141.045715  L 97.826126 141.254108  L 97.572236 141.465703  L 97.318346 141.680401  L 97.064455 141.898104  L 96.810565 142.118716  L 96.556675 142.342135  L 96.302785 142.568264  L 96.048894 142.797  L 95.795004 142.534394  L 95.541114 142.061745  L 95.287224 141.590633  L 95.033333 141.121152  L 94.779443 140.653392  L 94.525553 140.187444  L 94.271663 139.7234  L 94.017772 139.261349  L 93.763882 138.801381  L 93.509992 138.343586  L 93.256102 137.888052  L 93.002211 137.434868  L 92.748321 136.984121  L 92.494431 136.535898  L 92.240541 136.090287  L 91.98665 135.647374  L 91.73276 135.207243  L 91.47887 134.76998  L 91.22498 134.335668  L 90.971089 133.904392  L 90.717199 133.476234  L 90.463309 133.051277  L 90.209419 132.629601  L 89.955528 132.211287  L 89.701638 131.796415  L 89.447748 131.385065  L 89.193857 130.977314  L 88.939967 130.57324  L 88.686077 130.172919  L 88.432187 129.776429  L 88.178296 129.383842  L 87.924406 128.995234  L 87.670516 128.610677  L 87.416626 128.230245  L 87.162735 127.854007  L 86.908845 127.482035  L 86.654955 127.114398  L 86.401065 126.751164  L 86.147174 126.392401  L 85.893284 126.038175  L 85.639394 125.688551  L 85.385504 125.343595  L 85.131613 125.003369  L 84.877723 124.667936  L 84.623833 124.337357  L 84.369943 124.011691  L 84.116052 123.690999  L 83.862162 123.375338  L 83.608272 123.064765  L 83.354382 122.759335  L 83.100491 122.459103  L 82.846601 122.164123  L 82.592711 121.874446  L 82.338821 121.590124  L 82.08493 121.311207  L 81.83104 121.037744  L 81.57715 120.769781  L 81.32326 120.507365  L 81.069369 120.250541  L 80.815479 119.999354  L 80.561589 119.753845  L 80.307699 119.514056  L 80.053808 119.280027  L 79.799918 119.051797  L 79.546028 118.829403  L 79.292138 118.612883  L 79.038247 118.40227  L 78.784357 118.197598  L 78.530467 117.998901  L 78.276577 117.806209  L 78.022686 117.619551  L 77.768796 117.438958  L 77.514906 117.264455  L 77.261016 117.096069  L 77.007125 116.933824  L 76.753235 116.777744  L 76.499345 116.62785  L 76.245455 116.484164  L 75.991564 116.346704  L 75.737674 116.215489  L 75.483784 116.090535  L 75.229894 115.971857  L 74.976003 115.85947  L 74.722113 115.753385  L 74.468223 115.653615  L 74.214333 115.560169  L 73.960442 115.473056  L 73.706552 115.392283  L 73.452662 115.317856  L 73.198771 115.24978  L 72.944881 115.188058  L 72.690991 115.132691  L 72.437101 115.083681  L 72.18321 115.041026  L 71.92932 115.004725  L 71.67543 114.974774  L 71.42154 114.951168  L 71.167649 114.933901  L 70.913759 114.922967  L 70.659869 114.918356  L 70.405979 114.920058  L 70.152088 114.928062  L 69.898198 114.942355  L 69.644308 114.962924  L 69.390418 114.989753  L 69.136527 115.022826  L 68.882637 115.062125  L 68.628747 115.107631  L 68.374857 115.159324  L 68.120966 115.217182  L 67.867076 115.281182  L 67.613186 115.351302  L 67.359296 115.427514  L 67.105405 115.509793  L 66.851515 115.598111  L 66.597625 115.69244  L 66.343735 115.792748  L 66.089844 115.899005  L 65.835954 116.011179  L 65.582064 116.129235  L 65.328174 116.253139  L 65.074283 116.382855  L 64.820393 116.518346  L 64.566503 116.659573  L 64.312613 116.806498  L 64.058722 116.95908  L 63.804832 117.117277  L 63.550942 117.281047  L 63.297052 117.450345  L 63.043161 117.625129  L 62.789271 117.80535  L 62.535381 117.990964  L 62.281491 118.181922  L 62.0276 118.378175  L 61.77371 118.579673  L 61.51982 118.786366  L 61.26593 118.998202  L 61.012039 119.215128  L 60.758149 119.437091  L 60.504259 119.664036  L 60.250369 119.895908  L 59.996478 120.132651  L 59.742588 120.374207  L 59.488698 120.620518  L 59.234808 120.871526  L 58.980917 121.127171  L 58.727027 121.387393  L 58.473137 121.65213  L 58.219247 121.92132  L 57.965356 122.194901  L 57.711466 122.47281  L 57.457576 122.754981  L 57.203686 123.041351  L 56.949795 123.331853  L 56.695905 123.626422  L 56.442015 123.924991  L 56.188124 124.227492  L 55.934234 124.533858  L 55.680344 124.844019  L 55.426454 125.157907  L 55.172563 125.475451  L 54.918673 125.796583  L 54.664783 126.12123  L 54.410893 126.449322  L 54.157002 126.780787  L 53.903112 127.115553  L 53.649222 127.453548  L 53.395332 127.794699  L 53.141441 128.138931  L 52.887551 128.486173  L 52.633661 128.836349  L 52.379771 129.189385  L 52.12588 129.545207  L 51.87199 129.90374  L 51.6181 130.264909  L 51.36421 130.628638  L 51.110319 130.994852  L 50.856429 131.363476  L 50.602539 131.734432  L 50.348649 132.107645  L 50.094758 132.48304  L 49.840868 132.860538  L 49.586978 133.240066  L 49.333088 133.621544  L 49.079197 134.004898  L 48.825307 134.390051  L 48.571417 134.776926  L 48.317527 135.165446  L 48.063636 135.555536  L 47.809746 135.947119  L 47.555856 136.340118  L 47.301966 136.734458  L 47.048075 137.130062  L 46.794185 137.526854  L 46.540295 137.924758  L 46.286405 138.3237  L 46.032514 138.723604  L 45.778624 139.124394  L 45.524734 139.525996  L 45.270844 139.928333  L 45.016953 139.618548  L 44.763063 139.228441  L 44.509173 138.837188  L 44.255283 138.444861  L 44.001392 138.051532  L 43.747502 137.65727  L 43.493612 137.262149  L 43.239722 136.866238  L 42.985831 136.469607  L 42.731941 136.072329  L 42.478051 135.674472  L 42.224161 135.276107  L 41.97027 134.877303  L 41.71638 134.47813  L 41.46249 134.078655  L 41.2086 133.678949  L 40.954709 133.279079  L 40.700819 132.879113  L 40.446929 132.479119  L 40.193038 132.079162  L 39.939148 131.679311  L 39.685258 131.27963  L 39.431368 130.880186  L 39.177477 130.481042  L 38.923587 130.082265  L 38.669697 129.683917  L 38.415807 129.286062  L 38.161916 128.888763  L 37.908026 128.492082  L 37.654136 128.096081  L 37.400246 127.70082  L 37.146355 127.30636  L 36.892465 126.91276  L 36.638575 126.52008  L 36.384685 126.128378  L 36.130794 125.73771  L 35.876904 125.348135  L 35.623014 124.959707  L 35.369124 124.572484  L 35.115233 124.186518  L 34.861343 123.801864  L 34.607453 123.418575  L 34.353563 123.036704  L 34.099672 122.656301  L 33.845782 122.277417  L 33.591892 121.900102  L 33.338002 121.524405  L 33.084111 121.150375  L 32.830221 120.778057  L 32.576331 120.4075  L 32.322441 120.038747  L 32.06855 119.671845  L 31.81466 119.306836  L 31.56077 118.943763  L 31.30688 118.582668  L 31.052989 118.223593  L 30.799099 117.866577  L 30.545209 117.511659  L 30.291319 117.158878  L 30.037428 116.808271  L 29.783538 116.459874  L 29.529648 116.113723  L 29.275758 115.769853  L 29.021867 115.428295  L 28.767977 115.089084  L 28.514087 114.752251  L 28.260197 114.417826  L 28.006306 114.085838  L 27.752416 113.756318  L 27.498526 113.429292  L 27.244636 113.104787  L 26.990745 112.782829  L 26.736855 112.463443  L 26.482965 112.146653  L 26.229075 111.832481  L 25.975184 111.52095  L 25.721294 111.21208  L 25.467404 110.905892  L 25.213514 110.602405  L 24.959623 110.301636  L 24.705733 110.003604  L 24.451843 109.708323  L 24.197952 109.415811  L 23.944062 109.12608  L 23.690172 108.839144  L 23.436282 108.555016  L 23.182391 108.273708  L 22.928501 107.99523  L 22.674611 107.719591  L 22.420721 107.446802  L 22.16683 107.176869  L 21.91294 106.9098  L 21.65905 106.645601  L 21.40516 106.384278  L 21.151269 106.125835  L 20.897379 105.870275  L 20.643489 105.617602  L 20.389599 105.367817  L 20.135708 105.120921  L 19.881818 104.876916  z "
           style="fill:#1f77b4;opacity:0.2;"
           id="path11" />
      </g>
      <g
         id="line2d_1">
        <path
           clip-path="url(#pb717782e6a)"
           d="M 19.881818 139.321124  L 31.052989 139.890269  L 38.415807 140.04714  L 45.270844 139.967886  L 52.379771 139.650948  L 62.789271 138.920559  L 70.405979 138.476268  L 75.229894 138.409129  L 79.292138 138.575942  L 82.846601 138.947001  L 86.147174 139.521774  L 89.193857 140.279807  L 92.240541 141.280878  L 95.033333 142.428579  L 97.826126 143.806977  L 100.618919 145.420783  L 103.665602 147.447442  L 106.712285 149.739438  L 110.012858 152.493608  L 113.821212 155.960961  L 119.152907 161.146722  L 126.769615 168.540164  L 130.324079 171.665312  L 133.116871 173.84823  L 135.655774 175.56453  L 137.940786 176.851813  L 139.971908 177.76604  L 142.00303 178.444318  L 144.034152 178.870713  L 145.811384 179.026889  L 147.588616 178.973468  L 149.365848 178.705606  L 151.143079 178.220389  L 152.920311 177.516835  L 154.697543 176.595856  L 156.728665 175.280667  L 158.759787 173.691988  L 161.044799 171.589868  L 163.329812 169.171233  L 165.868714 166.138132  L 168.661507 162.419593  L 171.70819 157.962343  L 175.262654 152.323647  L 179.324898 145.444197  L 185.672154 134.185774  L 193.288862 120.761076  L 197.351106 114.050636  L 200.651679 109.002432  L 203.698362 104.756147  L 206.237265 101.574709  L 208.776167 98.758471  L 211.061179 96.563581  L 213.092301 94.899881  L 215.123423 93.518434  L 217.154545 92.42748  L 218.931777 91.715167  L 220.709009 91.230246  L 222.486241 90.97175  L 224.263473 90.936587  L 226.040704 91.119542  L 227.817936 91.513337  L 229.849058 92.209596  L 231.88018 93.152323  L 234.165192 94.483013  L 236.450205 96.069252  L 238.989107 98.089279  L 242.03579 100.801948  L 245.844144 104.504825  L 260.823669 119.413843  L 264.378133 122.467069  L 267.678706 125.01829  L 270.979279 127.276524  L 273.518182 128.811165  L 273.518182 128.811165  "
           style="fill:none;stroke:#1f77b4;stroke-linecap:square;stroke-width:4;"
           id="path14" />
      </g>
      <g
         id="PathCollection_1">
        <defs
           id="defs30">
          <path
             d="M 0 3.535534  C 0.937635 3.535534 1.836992 3.163008 2.5 2.5  C 3.163008 1.836992 3.535534 0.937635 3.535534 0  C 3.535534 -0.937635 3.163008 -1.836992 2.5 -2.5  C 1.836992 -3.163008 0.937635 -3.535534 0 -3.535534  C -0.937635 -3.535534 -1.836992 -3.163008 -2.5 -2.5  C -3.163008 -1.836992 -3.535534 -0.937635 -3.535534 0  C -3.535534 0.937635 -3.163008 1.836992 -2.5 2.5  C -1.836992 3.163008 -0.937635 3.535534 0 3.535534  z "
             id="m0917ff4fa6"
             style="stroke:#000000;" />
        </defs>
        <g
           clip-path="url(#pb717782e6a)"
           id="g44">
          <use
             style="stroke:#000000;"
             x="45.245455"
             xlink:href="#m0917ff4fa6"
             y="139.968606"
             id="use32" />
          <use
             style="stroke:#000000;"
             x="95.972727"
             xlink:href="#m0917ff4fa6"
             y="142.866115"
             id="use34" />
          <use
             style="stroke:#000000;"
             x="146.7"
             xlink:href="#m0917ff4fa6"
             y="179.026726"
             id="use36" />
          <use
             style="stroke:#000000;"
             x="172.063636"
             xlink:href="#m0917ff4fa6"
             y="157.418096"
             id="use38" />
          <use
             style="stroke:#000000;"
             x="197.427273"
             xlink:href="#m0917ff4fa6"
             y="113.92958"
             id="use40" />
          <use
             style="stroke:#000000;"
             x="222.790909"
             xlink:href="#m0917ff4fa6"
             y="90.949979"
             id="use42" />
        </g>
      </g>
    </g>
  </g>
  <defs
     id="defs125">
    <clipPath
       id="pb717782e6a">
      <rect
         height="277.2"
         width="279"
         x="7.2"
         y="7.2"
         id="rect122" />
    </clipPath>
  </defs>
</svg>
