<?xml version="1.0" encoding="UTF-8" standalone="no"?>
<svg
   xmlns:dc="http://purl.org/dc/elements/1.1/"
   xmlns:cc="http://creativecommons.org/ns#"
   xmlns:rdf="http://www.w3.org/1999/02/22-rdf-syntax-ns#"
   xmlns:svg="http://www.w3.org/2000/svg"
   xmlns="http://www.w3.org/2000/svg"
   xmlns:xlink="http://www.w3.org/1999/xlink"
   height="291.6pt"
   version="1.1"
   viewBox="0 0 293.4 291.6"
   width="293.4pt"
   id="svg127">
  <metadata
     id="metadata2">
    <rdf:RDF>
      <cc:Work>
        <dc:type
           rdf:resource="http://purl.org/dc/dcmitype/StillImage" />
        <dc:date>2021-11-27T23:32:09.906902</dc:date>
        <dc:format>image/svg+xml</dc:format>
        <dc:creator>
          <cc:Agent>
            <dc:title>Matplotlib v3.3.4, https://matplotlib.org/</dc:title>
          </cc:Agent>
        </dc:creator>
        <dc:title></dc:title>
      </cc:Work>
    </rdf:RDF>
  </metadata>
  <defs
     id="defs6">
    <style
       type="text/css"
       id="style4">*{stroke-linecap:butt;stroke-linejoin:round;}</style>
  </defs>
  <g
     id="figure_1">
    <g
       id="patch_1">
      <path
         d="M 0 291.6  L 293.4 291.6  L 293.4 0  L 0 0  z "
         style="fill:none;"
         id="path8" />
    </g>
    <g
       id="axes_1">
      <g
         id="line2d_2">
        <path
           clip-path="url(#pc8c8d8362d)"
           d="M 19.881818 247.939411  L 22.674611 248.77211  L 25.213514 249.303801  L 27.752416 249.604609  L 30.799099 249.732587  L 39.685258 249.75  L 111.28231 249.645803  L 113.059541 249.404864  L 114.582883 248.995663  L 116.106224 248.344892  L 117.629566 247.426892  L 119.152907 246.24457  L 120.930139 244.570914  L 123.215152 242.081692  L 128.800737 235.799183  L 130.577969 234.180511  L 132.10131 233.085343  L 133.370762 232.426853  L 134.640213 232.036461  L 135.655774 231.940078  L 136.671335 232.054732  L 137.686896 232.398779  L 138.702457 232.991887  L 139.718018 233.855787  L 140.733579 235.01517  L 141.74914 236.498782  L 142.764701 238.340742  L 143.780262 240.582102  L 144.795823 243.272699  L 146.065274 247.361468  L 146.573055 249.252387  L 146.826945 249.350656  L 147.588616 247.298303  L 148.350287 245.807851  L 149.111957 244.83514  L 149.619738 244.448719  L 150.127518 244.251607  L 150.635299 244.224538  L 151.39697 244.456887  L 152.15864 244.948997  L 153.428092 246.126966  L 155.713104 248.344734  L 156.728665 249.02928  L 157.744226 249.453392  L 159.013677 249.686856  L 161.044799 249.749037  L 216.646765 249.75  L 258.284767 249.641787  L 262.09312 249.368479  L 265.393694 248.916535  L 268.948157 248.198435  L 273.264292 247.085426  L 273.518182 247.014824  L 273.518182 247.014824  "
           style="fill:none;stroke:#d62728;stroke-linecap:square;stroke-width:4;"
           id="path35" />
      </g>
      <g
         id="legend_1">
        <g
           id="patch_3">
          <path
             d="M 14.2 73.9125  L 70.714062 73.9125  Q 72.714062 73.9125 72.714062 71.9125  L 72.714062 14.2  Q 72.714062 12.2 70.714062 12.2  L 14.2 12.2  Q 12.2 12.2 12.2 14.2  L 12.2 71.9125  Q 12.2 73.9125 14.2 73.9125  z "
             style="fill:none;opacity:0;"
             id="path47" />
        </g>
        <g
           id="line2d_6"
           transform="translate(7.5)">
          <path
             d="m 16.2,20.298437 h 20"
             style="fill:none;stroke:#d62728;stroke-width:4;stroke-linecap:square"
             id="path50" />
        </g>
        <g
           id="line2d_7" />
        <g
           id="text_1"
           transform="translate(7.5)">
          <!-- EI -->
          <g
             transform="matrix(0.1,0,0,-0.1,44.2,23.798437)"
             id="g62">
            <defs
               id="defs56">
              <path
                 d="m 9.8125,72.90625 h 46.09375 v -8.3125 H 19.671875 V 43.015625 h 34.71875 V 34.71875 H 19.671875 V 8.296875 H 56.78125 V 0 H 9.8125 Z"
                 id="DejaVuSans-69" />
              <path
                 d="m 9.8125,72.90625 h 9.859375 V 0 H 9.8125 Z"
                 id="DejaVuSans-73" />
            </defs>
            <use
               xlink:href="#DejaVuSans-69"
               id="use58"
               x="0"
               y="0"
               width="100%"
               height="100%" />
            <use
               x="63.183594"
               xlink:href="#DejaVuSans-73"
               id="use60"
               y="0"
               width="100%"
               height="100%" />
          </g>
        </g>
        <g
           id="line2d_9" />
        <g
           id="line2d_11" />
        <g
           id="line2d_13" />
      </g>
    </g>
  </g>
  <defs
     id="defs125">
    <clipPath
       id="pc8c8d8362d">
      <rect
         height="277.2"
         width="279"
         x="7.2"
         y="7.2"
         id="rect122" />
    </clipPath>
  </defs>
</svg>
