<?xml version="1.0" encoding="UTF-8" standalone="no"?>
<svg
   xmlns:dc="http://purl.org/dc/elements/1.1/"
   xmlns:cc="http://creativecommons.org/ns#"
   xmlns:rdf="http://www.w3.org/1999/02/22-rdf-syntax-ns#"
   xmlns:svg="http://www.w3.org/2000/svg"
   xmlns="http://www.w3.org/2000/svg"
   xmlns:xlink="http://www.w3.org/1999/xlink"
   height="291.6pt"
   version="1.1"
   viewBox="0 0 293.4 291.6"
   width="293.4pt"
   id="svg127">
  <metadata
     id="metadata2">
    <rdf:RDF>
      <cc:Work>
        <dc:type
           rdf:resource="http://purl.org/dc/dcmitype/StillImage" />
        <dc:date>2021-11-27T23:32:09.906902</dc:date>
        <dc:format>image/svg+xml</dc:format>
        <dc:creator>
          <cc:Agent>
            <dc:title>Matplotlib v3.3.4, https://matplotlib.org/</dc:title>
          </cc:Agent>
        </dc:creator>
        <dc:title></dc:title>
      </cc:Work>
    </rdf:RDF>
  </metadata>
  <defs
     id="defs6">
    <style
       type="text/css"
       id="style4">*{stroke-linecap:butt;stroke-linejoin:round;}</style>
  </defs>
  <g
     id="figure_1">
    <g
       id="patch_1">
      <path
         d="M 0 291.6  L 293.4 291.6  L 293.4 0  L 0 0  z "
         style="fill:none;"
         id="path8" />
    </g>
    <g
       id="axes_1">
      <g
         id="line2d_4">
        <path
           clip-path="url(#pc8c8d8362d)"
           d="M 19.881818 229.466043  L 22.674611 231.211101  L 25.467404 233.205448  L 28.514087 235.657895  L 31.81466 238.616371  L 35.369124 242.101919  L 39.939148 246.909001  L 45.270844 252.639044  L 49.586978 248.268217  L 52.887551 245.235708  L 55.680344 242.963559  L 58.219247 241.181689  L 60.504259 239.840072  L 62.789271 238.769259  L 64.820393 238.058231  L 66.851515 237.582143  L 68.882637 237.345071  L 70.913759 237.347129  L 72.944881 237.58435  L 74.976003 238.048642  L 77.007125 238.727814  L 79.292138 239.728418  L 81.83104 241.099757  L 84.623833 242.86826  L 88.178296 245.39833  L 96.048894 251.12641  L 105.442834 240.107209  L 108.743407 236.641977  L 111.5362 234.025325  L 114.075102 231.951014  L 116.360115 230.362539  L 118.645127 229.057435  L 120.676249 228.144786  L 122.707371 227.468525  L 124.738493 227.027133  L 126.769615 226.814418  L 128.800737 226.819699  L 131.085749 227.067577  L 133.370762 227.545764  L 135.909664 228.308698  L 138.956347 229.479802  L 142.764701 231.208017  L 146.826945 233.078204  L 148.604177 232.378812  L 150.381409 231.910591  L 152.15864 231.684072  L 153.935872 231.705086  L 155.713104 231.97464  L 157.490336 232.488903  L 159.267568 233.239335  L 161.29869 234.369284  L 163.329812 235.764662  L 165.614824 237.611761  L 168.153726 239.94617  L 171.4543 243.296515  L 172.215971 244.013668  L 175.262654 245.593059  L 178.055446 247.284946  L 180.848239 249.246099  L 183.641032 251.491668  L 186.687715 254.256186  L 189.988288 257.571468  L 194.558313 262.520886  L 197.604996 265.772724  L 201.159459 267.393737  L 206.745045 269.654386  L 213.092301 272.279202  L 217.408436 274.308449  L 221.72457 276.580873  L 222.740131 277.146472  L 223.247912 276.937536  L 225.025143 275.860366  L 227.056265 274.34549  L 229.087387 272.554599  L 231.3724 270.250442  L 234.165192 267.091177  L 237.465766 263.001885  L 243.051351 255.659662  L 248.636937 248.434758  L 252.1914 244.174687  L 255.491974 240.566208  L 258.538657 237.577257  L 261.33145 235.142338  L 264.124242 233.000418  L 266.917035 231.142423  L 269.709828 229.551613  L 272.502621 228.20597  L 273.518182 227.77258  L 273.518182 227.77258  "
           style="fill:none;stroke:#9467bd;stroke-linecap:square;stroke-width:4;"
           id="path41" />
      </g>
      <g
         id="legend_1">
        <g
           id="patch_3">
          <path
             d="M 14.2 73.9125  L 70.714062 73.9125  Q 72.714062 73.9125 72.714062 71.9125  L 72.714062 14.2  Q 72.714062 12.2 70.714062 12.2  L 14.2 12.2  Q 12.2 12.2 12.2 14.2  L 12.2 71.9125  Q 12.2 73.9125 14.2 73.9125  z "
             style="fill:none;opacity:0;"
             id="path47" />
        </g>
        <g
           id="line2d_7" />
        <g
           id="line2d_9" />
        <g
           id="line2d_10"
           transform="translate(7.5)">
          <path
             d="m 16.2,49.654687 h 20"
             style="fill:none;stroke:#9467bd;stroke-width:4;stroke-linecap:square"
             id="path79" />
        </g>
        <g
           id="line2d_11" />
        <g
           id="text_3"
           transform="translate(7.5)">
          <!-- LCB -->
          <g
             transform="matrix(0.1,0,0,-0.1,44.2,53.154687)"
             id="g94">
            <defs
               id="defs86">
              <path
                 d="m 9.8125,72.90625 h 9.859375 V 8.296875 h 35.5 V 0 H 9.8125 Z"
                 id="DejaVuSans-76" />
              <path
                 d="M 64.40625,67.28125 V 56.890625 q -4.984375,4.640625 -10.625,6.921875 -5.640625,2.296875 -11.984375,2.296875 -12.5,0 -19.140625,-7.640625 -6.640625,-7.640625 -6.640625,-22.09375 0,-14.40625 6.640625,-22.046875 Q 29.296875,6.6875 41.796875,6.6875 q 6.34375,0 11.984375,2.296875 5.640625,2.296875 10.625,6.9375 V 5.609375 Q 59.234375,2.09375 53.4375,0.328125 q -5.78125,-1.75 -12.21875,-1.75 -16.5625,0 -26.09375,10.125 Q 5.609375,18.84375 5.609375,36.375 q 0,17.578125 9.515625,27.703125 9.53125,10.140625 26.09375,10.140625 6.53125,0 12.3125,-1.734375 5.796875,-1.734375 10.875,-5.203125 z"
                 id="DejaVuSans-67" />
              <path
                 d="M 19.671875,34.8125 V 8.109375 H 35.5 q 7.953125,0 11.78125,3.296875 3.84375,3.296875 3.84375,10.078125 0,6.84375 -3.84375,10.078125 -3.828125,3.25 -11.78125,3.25 z m 0,29.984375 V 42.828125 H 34.28125 q 7.21875,0 10.75,2.703125 3.546875,2.71875 3.546875,8.28125 0,5.515625 -3.546875,8.25 -3.53125,2.734375 -10.75,2.734375 z M 9.8125,72.90625 h 25.203125 q 11.28125,0 17.375,-4.6875 Q 58.5,63.53125 58.5,54.890625 58.5,48.1875 55.375,44.234375 52.25,40.28125 46.1875,39.3125 53.46875,37.75 57.5,32.78125 q 4.03125,-4.953125 4.03125,-12.375 0,-9.765625 -6.640625,-15.09375 Q 48.25,0 35.984375,0 H 9.8125 Z"
                 id="DejaVuSans-66" />
            </defs>
            <use
               xlink:href="#DejaVuSans-76"
               id="use88"
               x="0"
               y="0"
               width="100%"
               height="100%" />
            <use
               x="55.712891"
               xlink:href="#DejaVuSans-67"
               id="use90"
               y="0"
               width="100%"
               height="100%" />
            <use
               x="125.53711"
               xlink:href="#DejaVuSans-66"
               id="use92"
               y="0"
               width="100%"
               height="100%" />
          </g>
        </g>
        <g
           id="line2d_13" />
      </g>
    </g>
  </g>
  <defs
     id="defs125">
    <clipPath
       id="pc8c8d8362d">
      <rect
         height="277.2"
         width="279"
         x="7.2"
         y="7.2"
         id="rect122" />
    </clipPath>
  </defs>
</svg>
