<?xml version="1.0" encoding="UTF-8" standalone="no"?>
<svg
   xmlns:dc="http://purl.org/dc/elements/1.1/"
   xmlns:cc="http://creativecommons.org/ns#"
   xmlns:rdf="http://www.w3.org/1999/02/22-rdf-syntax-ns#"
   xmlns:svg="http://www.w3.org/2000/svg"
   xmlns="http://www.w3.org/2000/svg"
   xmlns:xlink="http://www.w3.org/1999/xlink"
   height="291.6pt"
   version="1.1"
   viewBox="0 0 293.4 291.6"
   width="293.4pt"
   id="svg127">
  <metadata
     id="metadata2">
    <rdf:RDF>
      <cc:Work>
        <dc:type
           rdf:resource="http://purl.org/dc/dcmitype/StillImage" />
        <dc:date>2021-11-27T23:32:09.906902</dc:date>
        <dc:format>image/svg+xml</dc:format>
        <dc:creator>
          <cc:Agent>
            <dc:title>Matplotlib v3.3.4, https://matplotlib.org/</dc:title>
          </cc:Agent>
        </dc:creator>
        <dc:title></dc:title>
      </cc:Work>
    </rdf:RDF>
  </metadata>
  <defs
     id="defs6">
    <style
       type="text/css"
       id="style4">*{stroke-linecap:butt;stroke-linejoin:round;}</style>
  </defs>
  <g
     id="figure_1">
    <g
       id="patch_1">
      <path
         d="M 0 291.6  L 293.4 291.6  L 293.4 0  L 0 0  z "
         style="fill:none;"
         id="path8" />
    </g>
    <g
       id="axes_1">
      <g
         id="line2d_5">
        <path
           clip-path="url(#pc8c8d8362d)"
           d="M 19.881818 249.572249  L 25.467404 249.730355  L 37.908026 249.75  L 114.836773 249.641725  L 116.867895 249.39256  L 118.645127 248.950314  L 120.168468 248.348744  L 121.69181 247.510129  L 123.215152 246.422575  L 124.992383 244.84934  L 127.023505 242.704584  L 129.816298 239.362529  L 133.370762 235.127535  L 134.894103 233.610145  L 136.163554 232.618396  L 137.179115 232.068088  L 138.194676 231.790276  L 138.956347 231.795579  L 139.718018 232.013782  L 140.479689 232.474002  L 141.24136 233.207599  L 142.00303 234.248215  L 142.764701 235.63173  L 143.526372 237.396138  L 144.541933 240.41027  L 145.557494 244.270744  L 146.826945 249.70935  L 147.842506 249.507456  L 149.365848 249.480544  L 156.474775 249.749667  L 259.554218 249.69631  L 266.409255 249.468227  L 273.518182 249.042213  L 273.518182 249.042213  "
           style="fill:none;stroke:#2ca02c;stroke-linecap:square;stroke-width:4;"
           id="path44" />
      </g>
      <g
         id="legend_1">
        <g
           id="patch_3">
          <path
             d="M 14.2 73.9125  L 70.714062 73.9125  Q 72.714062 73.9125 72.714062 71.9125  L 72.714062 14.2  Q 72.714062 12.2 70.714062 12.2  L 14.2 12.2  Q 12.2 12.2 12.2 14.2  L 12.2 71.9125  Q 12.2 73.9125 14.2 73.9125  z "
             style="fill:none;opacity:0;"
             id="path47" />
        </g>
        <g
           id="line2d_7" />
        <g
           id="line2d_9" />
        <g
           id="line2d_11" />
        <g
           id="line2d_12"
           transform="translate(7.5)">
          <path
             d="m 16.2,64.332812 h 20"
             style="fill:none;stroke:#2ca02c;stroke-width:4;stroke-linecap:square"
             id="path97" />
        </g>
        <g
           id="line2d_13" />
        <g
           id="text_4"
           transform="translate(7.5)">
          <!-- logEI -->
          <g
             transform="matrix(0.1,0,0,-0.1,44.2,67.832812)"
             id="g116">
            <defs
               id="defs104">
              <path
                 d="M 9.421875,75.984375 H 18.40625 V 0 H 9.421875 Z"
                 id="DejaVuSans-108" />
              <path
                 d="m 30.609375,48.390625 q -7.21875,0 -11.421875,-5.640625 -4.203125,-5.640625 -4.203125,-15.453125 0,-9.8125 4.171875,-15.453125 4.1875,-5.640625 11.453125,-5.640625 7.1875,0 11.375,5.65625 4.203125,5.671875 4.203125,15.4375 0,9.71875 -4.203125,15.40625 -4.1875,5.6875 -11.375,5.6875 z m 0,7.609375 q 11.71875,0 18.40625,-7.625 6.703125,-7.609375 6.703125,-21.078125 0,-13.421875 -6.703125,-21.078125 -6.6875,-7.640625 -18.40625,-7.640625 -11.765625,0 -18.4375,7.640625 -6.65625,7.65625 -6.65625,21.078125 0,13.46875 6.65625,21.078125 Q 18.84375,56 30.609375,56 Z"
                 id="DejaVuSans-111" />
              <path
                 d="m 45.40625,27.984375 q 0,9.765625 -4.03125,15.125 -4.015625,5.375 -11.296875,5.375 -7.21875,0 -11.25,-5.375 -4.03125,-5.359375 -4.03125,-15.125 0,-9.71875 4.03125,-15.09375 4.03125,-5.375 11.25,-5.375 7.28125,0 11.296875,5.375 4.03125,5.375 4.03125,15.09375 z M 54.390625,6.78125 q 0,-13.953125 -6.203125,-20.765625 -6.1875,-6.8125 -18.984375,-6.8125 -4.734375,0 -8.9375,0.703125 -4.203125,0.703125 -8.15625,2.171875 V -9.1875 q 3.953125,-2.140625 7.8125,-3.15625 3.859375,-1.03125 7.859375,-1.03125 8.84375,0 13.234375,4.609375 4.390625,4.609375 4.390625,13.9375 V 9.625 Q 42.625,4.78125 38.28125,2.390625 33.9375,0 27.875,0 17.828125,0 11.671875,7.65625 q -6.15625,7.671875 -6.15625,20.328125 0,12.6875 6.15625,20.34375 Q 17.828125,56 27.875,56 q 6.0625,0 10.40625,-2.390625 4.34375,-2.390625 7.125,-7.21875 V 54.6875 h 8.984375 z"
                 id="DejaVuSans-103" />
            </defs>
            <use
               xlink:href="#DejaVuSans-108"
               id="use106"
               x="0"
               y="0"
               width="100%"
               height="100%" />
            <use
               x="27.783203"
               xlink:href="#DejaVuSans-111"
               id="use108"
               y="0"
               width="100%"
               height="100%" />
            <use
               x="88.964844"
               xlink:href="#DejaVuSans-103"
               id="use110"
               y="0"
               width="100%"
               height="100%" />
            <path
               d="m 162.25391,72.90625 h 46.09375 v -8.3125 H 172.11328 V 43.015625 h 34.71875 V 34.71875 H 172.11328 V 8.296875 h 37.10938 V 0 h -46.96875 z"
               id="use112" />
            <path
               d="m 225.4375,72.90625 h 9.85937 V 0 h -9.85937 z"
               id="use114" />
          </g>
        </g>
      </g>
    </g>
  </g>
  <defs
     id="defs125">
    <clipPath
       id="pc8c8d8362d">
      <rect
         height="277.2"
         width="279"
         x="7.2"
         y="7.2"
         id="rect122" />
    </clipPath>
  </defs>
</svg>
