<?xml version="1.0" encoding="UTF-8" standalone="no"?>
<svg
   width="262.39999pt"
   height="225.92pt"
   viewBox="0 0 262.4 225.92"
   version="1.1"
   id="svg202325"
   sodipodi:docname="picture_2pops_model.svg"
   inkscape:version="1.2.2 (1:1.2.2+202212051552+b0a8486541)"
   xmlns:inkscape="http://www.inkscape.org/namespaces/inkscape"
   xmlns:sodipodi="http://sodipodi.sourceforge.net/DTD/sodipodi-0.dtd"
   xmlns:xlink="http://www.w3.org/1999/xlink"
   xmlns="http://www.w3.org/2000/svg"
   xmlns:svg="http://www.w3.org/2000/svg"
   xmlns:rdf="http://www.w3.org/1999/02/22-rdf-syntax-ns#"
   xmlns:cc="http://creativecommons.org/ns#"
   xmlns:dc="http://purl.org/dc/elements/1.1/">
  <sodipodi:namedview
     id="namedview202327"
     pagecolor="#ffffff"
     bordercolor="#000000"
     borderopacity="0.25"
     inkscape:showpageshadow="2"
     inkscape:pageopacity="0.0"
     inkscape:pagecheckerboard="0"
     inkscape:deskcolor="#d1d1d1"
     inkscape:document-units="pt"
     showgrid="false"
     inkscape:zoom="1.3060664"
     inkscape:cx="163.46795"
     inkscape:cy="211.32156"
     inkscape:window-width="1221"
     inkscape:window-height="778"
     inkscape:window-x="59"
     inkscape:window-y="22"
     inkscape:window-maximized="1"
     inkscape:current-layer="matplotlib.axis_1" />
  <metadata
     id="metadata201957">
    <rdf:RDF>
      <cc:Work>
        <dc:type
           rdf:resource="http://purl.org/dc/dcmitype/StillImage" />
        <dc:date>2023-03-26T11:56:48.360084</dc:date>
        <dc:format>image/svg+xml</dc:format>
        <dc:creator>
          <cc:Agent>
            <dc:title>Matplotlib v3.5.0, https://matplotlib.org/</dc:title>
          </cc:Agent>
        </dc:creator>
      </cc:Work>
    </rdf:RDF>
  </metadata>
  <defs
     id="defs201961">
    <style
       type="text/css"
       id="style201959">*{stroke-linejoin: round; stroke-linecap: butt}</style>
  </defs>
  <g
     id="figure_1">
    <g
       id="axes_1">
      <path
         d="m 124.76427,205.82274 1,0.0314 1,0.0369 1,0.0977 1,0.0325 1,0.0736 1,0.0386 1,0.0354 1,0.0576 1,0.0704 1,0.052 1,0.0591 1,0.0883 1,0.0462 1,0.0424 1,0.0305 1,0.026 1,0.0212 1,0.0543 1,0.0279 1,0.0297 1,0.0254 1,0.0112 1,0.0101 1,-2.1e-4 1,-0.01 1,-0.0116 1,-0.031 1,-0.0112 1,-0.0301 1,-0.0598 1,-0.0372 1,-0.0391 1,-0.0424 1,-0.0328 1,-0.0674 1,-0.0391 1,-0.0427 1,-0.0706 1,-0.0364 1,-0.0584 1,-0.11095 1,-0.0707 1,-0.11294 1,-0.0458 1,-0.0613 1,-0.0485 1,-0.0808 1,-0.11851 1,-0.0702 1,-0.0833 1,-0.0331 1,-0.0512 1,-0.0684 1,-0.0662 1,-0.0769 1,-0.0273 1,-0.0265 1,-0.0226 1,-0.0195 1,-0.0264 1,-0.0498 1,-0.0351 1,-0.0359 1,-0.0154 1,-0.0158 1,-0.003 1,-0.002 1,4.8e-4 1,0.002 1,0.0133 1,0.008 1,0.0215 1,0.023 1,0.0172 1,0.0185 1,0.0205 1,0.0166 1,0.0628 1,0.0753 1,0.0326 1,0.0676 1,0.054 1,0.0337 1,0.0901 1,0.0285 1,0.0315 1,0.031 1,0.0548 1,0.0646 1,0.0382 1,0.0959 1,0.0493 1,0.0441 1,0.0401 1,0.10837 1,0.0416 1,0.0622 1,0.07 1,0.1045 1,0.037 1,0.0459 1,0.0685 1,0.0487 1,0.0776 1,0.0305 1,0.0695 1,0.024 1,0.0286 1,0.0418 1,0.0216 1,0.014 1,0.0267 1,0.009 1,0.0125 1,0.0111 1,0.006 1,0.005 1,-0.006 1,-0.0133 1.47469,-0.008"
         clip-path="url(#p6ac37f5caa)"
         style="fill:none;stroke:#1f77b4;stroke-width:0.2;stroke-linecap:square;stroke-opacity:0.5"
         id="path201969"
         transform="translate(-43.5,-12)" />
      <path
         d="m 124.76427,152.3865 1,0.0314 1,0.0369 1,0.0977 1,0.0325 1,0.0736 1,0.0386 1,0.0354 1,0.0576 1,0.0704 1,0.052 1,0.0591 1,0.0883 1,0.0462 1,0.0424 1,0.0305 1,0.026 1,0.0212 1,0.0543 1,0.0279 1,0.0297 1,0.0254 1,0.0112 1,0.0101 1,-2.1e-4 1,-0.01 1,-0.0116 1,-0.031 1,-0.0112 1,-0.0301 1,-0.0598 1,-0.0372 1,-0.0391 1,-0.0424 1,-0.0328 1,-0.0674 1,-0.0391 1,-0.0427 1,-0.0706 1,-0.0364 1,-0.0584 1,-0.11095 1,-0.0707 1,-0.11294 1,-0.0458 1,-0.0613 1,-0.0485 1,-0.0808 1,-0.11851 1,-0.0702 1,-0.0833 1,-0.0331 1,-0.0512 1,-0.0684 1,-0.0662 1,-0.0769 1,-0.0273 1,-0.0265 1,-0.0226 1,-0.0195 1,-0.0264 1,-0.0498 1,-0.0351 1,-0.0359 1,-0.0154 1,-0.0158 1,-0.003 1,-0.002 1,4.8e-4 1,0.002 1,0.0133 1,0.008 1,0.0215 1,0.023 1,0.0172 1,0.0185 1,0.0205 1,0.0166 1,0.0628 1,0.0753 1,0.0326 1,0.0676 1,0.054 1,0.0337 1,0.0901 1,0.0285 1,0.0315 1,0.031 1,0.0548 1,0.0646 1,0.0382 1,0.0959 1,0.0493 1,0.0441 1,0.0401 1,0.10837 1,0.0416 1,0.0622 1,0.07 1,0.1045 1,0.037 1,0.0459 1,0.0685 1,0.0487 1,0.0776 1,0.0305 1,0.0695 1,0.024 1,0.0286 1,0.0418 1,0.0216 1,0.014 1,0.0267 1,0.009 1,0.0125 1,0.0111 1,0.006 1,0.005 1,-0.006 1,-0.0133 1,-0.008 1,-0.0248 1,-0.0236 1,-0.0362 1,-0.026 1,-0.0223 1,-0.0688 1,-0.0745 1,-0.094 1,-0.0511 1,-0.0539 1,-0.0352 1.00112,-0.10609"
         clip-path="url(#p6ac37f5caa)"
         style="fill:none;stroke:#1f77b4;stroke-width:0.2;stroke-linecap:square;stroke-opacity:0.5"
         id="path201971"
         transform="translate(-43.5,-12)" />
      <path
         d="m 124.76427,163.74534 1,0.0314 1,0.0369 1,0.0977 1,0.0325 1,0.0736 1,0.0386 1,0.0354 1,0.0576 1,0.0704 1,0.052 1,0.0591 1,0.0883 1,0.0461 1,0.0424 1,0.0305 1,0.026 1,0.0212 1,0.0543 1,0.0279 1,0.0297 1,0.0254 1,0.0112 1,0.0101 1,-2.1e-4 1,-0.01 1,-0.0117 1,-0.031 1,-0.0112 1,-0.0301 1,-0.0598 1,-0.0372 1,-0.0391 1,-0.0424 1,-0.0328 1,-0.0674 1,-0.0391 1,-0.0427 1,-0.0706 1,-0.0364 1,-0.0584 1,-0.11095 1,-0.0707 1,-0.11294 1,-0.0458 1,-0.0613 1,-0.0485 1,-0.0808 1,-0.11852 1,-0.0702 1,-0.0833 1,-0.0331 1,-0.0512 1,-0.0684 1,-0.0662 1,-0.0769 1,-0.0273 1,-0.0265 1,-0.0226 1,-0.0195 1,-0.0264 1,-0.0498 1,-0.0351 1,-0.0359 1,-0.0154 1,-0.0158 1,-0.003 1,-0.002 1,4.8e-4 1,0.002 1,0.0133 1,0.008 1,0.0215 1,0.023 1,0.0172 1,0.0185 1,0.0205 1,0.0166 1,0.0628 1,0.0753 1,0.0326 1,0.0676 1,0.0541 1,0.0337 1,0.0901 1,0.0285 1,0.0315 1,0.031 1,0.0548 1,0.0646 1,0.0382 1,0.0959 1,0.0493 1,0.0441 1,0.0401 1,0.10837 1,0.0416 1,0.0621 1,0.07 1,0.1045 1,0.037 1,0.0459 1,0.0685 1,0.0488 1,0.0776 1,0.0305 1,0.0695 1,0.024 1,0.0286 1,0.0418 1,0.0216 1,0.0139 1,0.0267 1,0.009 1,0.0125 1,0.011 1,0.006 1,0.005 1,-0.006 1,-0.0133 1,-0.008 1,-0.0248 1,-0.0236 1,-0.0362 1,-0.026 1,-0.0223 1,-0.0688 1,-0.0745 1,-0.094 1,-0.0511 1,-0.0539 1.11676,-0.0353"
         clip-path="url(#p6ac37f5caa)"
         style="fill:none;stroke:#1f77b4;stroke-width:0.2;stroke-linecap:square;stroke-opacity:0.5"
         id="path201973"
         transform="translate(-43.5,-12)" />
      <path
         d="m 124.76427,210.75617 1,0.0314 1,0.0369 1,0.0977 1,0.0325 1,0.0736 1,0.0386 1,0.0354 1,0.0576 1,0.0704 1,0.052 1,0.0591 1,0.0883 1,0.0461 1,0.0424 1,0.0305 1,0.026 1,0.0212 1,0.0543 1,0.0279 1,0.0297 1,0.0254 1,0.0112 1,0.0101 1,-2e-4 1,-0.01 1,-0.0117 1,-0.031 1,-0.0112 1,-0.0301 1,-0.0598 1,-0.0372 1,-0.0391 1,-0.0424 1,-0.0328 1,-0.0674 1,-0.0391 1,-0.0427 1,-0.0706 1,-0.0364 1,-0.0584 1,-0.11096 1,-0.0707 1,-0.11294 1,-0.0458 1,-0.0613 1,-0.0485 1,-0.0808 1,-0.11852 1,-0.0702 1,-0.0833 1,-0.0332 1,-0.0512 1,-0.0684 1,-0.0662 1,-0.0769 1,-0.0273 1,-0.0265 1,-0.0226 1,-0.0195 1,-0.0264 1,-0.0498 1,-0.0351 1,-0.0359 1,-0.0154 1,-0.0158 1,-0.003 1,-0.002 1,4.9e-4 1,0.002 1,0.0132 1,0.008 1,0.0215 1,0.023 1,0.0172 1,0.0185 1,0.0204 1,0.0166 1,0.0628 1,0.0753 1,0.0326 1,0.0676 1,0.054 1,0.0337 1,0.0901 1,0.0285 1,0.0315 1,0.031 1,0.0548 1,0.0646 1,0.0382 1,0.0959 1,0.0493 1,0.0441 1,0.0401 1,0.10837 1,0.0416 1,0.0621 1,0.07 1,0.10451 1,0.037 1,0.0459 1,0.0685 1,0.0487 1,0.0776 1,0.0305 1,0.0695 1,0.024 1,0.0286 1,0.0418 1,0.0216 1,0.0139 1,0.0267 1,0.009 1,0.0124 1,0.0111 1,0.006 1.619,0.005"
         clip-path="url(#p6ac37f5caa)"
         style="fill:none;stroke:#1f77b4;stroke-width:0.2;stroke-linecap:square;stroke-opacity:0.5"
         id="path201975"
         transform="translate(-43.5,-12)" />
      <path
         d="m 124.76427,158.98395 1,0.0314 1,0.0369 1,0.0977 1,0.0325 1,0.0736 1,0.0386 1,0.0354 1,0.0576 1,0.0704 1,0.052 1,0.0591 1,0.0883 1,0.0462 1,0.0424 1,0.0305 1,0.026 1,0.0212 1,0.0543 1,0.0279 1,0.0297 1,0.0254 1,0.0112 1,0.0101 1,-2.1e-4 1,-0.01 1,-0.0117 1,-0.031 1,-0.0112 1,-0.0301 1,-0.0598 1,-0.0372 1,-0.0391 1,-0.0424 1,-0.0328 1,-0.0674 1,-0.0391 1,-0.0427 1,-0.0706 1,-0.0364 1,-0.0584 1,-0.11095 1,-0.0707 1,-0.11294 1,-0.0458 1,-0.0613 1,-0.0485 1,-0.0808 1,-0.11851 1,-0.0702 1,-0.0833 1,-0.0331 1,-0.0512 1,-0.0684 1,-0.0662 1,-0.0769 1,-0.0273 1,-0.0265 1,-0.0226 1,-0.0195 1,-0.0264 1,-0.0498 1,-0.0351 1,-0.0359 1,-0.0154 1,-0.0158 1,-0.003 1,-0.002 1,4.8e-4 1,0.002 1,0.0133 1,0.008 1,0.0215 1,0.023 1,0.0172 1,0.0185 1,0.0205 1,0.0166 1,0.0628 1,0.0753 1,0.0326 1,0.0676 1,0.0541 1,0.0337 1,0.0901 1,0.0285 1,0.0315 1,0.031 1,0.0548 1,0.0646 1,0.0382 1,0.0959 1,0.0493 1,0.0441 1,0.0401 1,0.10837 1,0.0416 1,0.0622 1,0.07 1,0.1045 1,0.037 1,0.0459 1,0.0685 1,0.0488 1,0.0776 1,0.0305 1,0.0695 1,0.024 1,0.0286 1,0.0418 1,0.0216 1,0.0139 1,0.0267 1,0.009 1,0.0125 1,0.0111 1,0.006 1,0.005 1,-0.006 1,-0.0133 1,-0.008 1,-0.0248 1,-0.0236 1,-0.0362 1,-0.026 1,-0.0223 1,-0.0688 1,-0.0745 1,-0.094 1,-0.0511 1,-0.0539 1.53687,-0.0352"
         clip-path="url(#p6ac37f5caa)"
         style="fill:none;stroke:#1f77b4;stroke-width:0.2;stroke-linecap:square;stroke-opacity:0.5"
         id="path201977"
         transform="translate(-43.5,-12)" />
      <path
         d="m 124.76427,187.87554 1,0.0314 1,0.0369 1,0.0977 1,0.0325 1,0.0736 1,0.0386 1,0.0354 1,0.0576 1,0.0704 1,0.052 1,0.0591 1,0.0883 1,0.0461 1,0.0424 1,0.0305 1,0.026 1,0.0212 1,0.0543 1,0.0279 1,0.0297 1,0.0254 1,0.0112 1,0.0101 1,-2e-4 1,-0.01 1,-0.0117 1,-0.031 1,-0.0112 1,-0.0301 1,-0.0598 1,-0.0372 1,-0.0391 1,-0.0424 1,-0.0328 1,-0.0674 1,-0.0391 1,-0.0427 1,-0.0706 1,-0.0364 1,-0.0584 1,-0.11095 1,-0.0707 1,-0.11294 1,-0.0458 1,-0.0613 1,-0.0485 1,-0.0808 1,-0.11852 1,-0.0702 1,-0.0833 1,-0.0331 1,-0.0512 1,-0.0684 1,-0.0662 1,-0.0769 1,-0.0273 1,-0.0265 1,-0.0226 1,-0.0195 1,-0.0264 1,-0.0498 1,-0.0351 1,-0.0359 1,-0.0154 1,-0.0158 1,-0.003 1,-0.002 1,4.9e-4 1,0.002 1,0.0133 1,0.008 1,0.0215 1,0.023 1,0.0172 1,0.0185 1,0.0205 1,0.0166 1,0.0628 1,0.0753 1,0.0326 1,0.0676 1,0.0541 1,0.0337 1,0.0901 1,0.0285 1,0.0315 1,0.031 1,0.0548 1,0.0646 1,0.0382 1,0.0959 1,0.0493 1,0.0441 1,0.0401 1,0.10836 1,0.0416 1,0.0621 1,0.07 1,0.1045 1,0.037 1,0.0459 1,0.0685 1,0.0488 1,0.0776 1,0.0305 1,0.0695 1,0.024 1,0.0286 1,0.0418 1,0.0216 1,0.0139 1,0.0267 1,0.009 1,0.0125 1,0.011 1,0.006 1,0.005 1,-0.006 1,-0.0133 1,-0.008 1,-0.0248 1,-0.0236 1,-0.0362 1,-0.026 1,-0.0223 1,-0.0688 1.17388,-0.0745"
         clip-path="url(#p6ac37f5caa)"
         style="fill:none;stroke:#1f77b4;stroke-width:0.2;stroke-linecap:square;stroke-opacity:0.5"
         id="path201979"
         transform="translate(-43.5,-12)" />
      <path
         d="m 124.76427,141.19861 1,0.0314 1,0.0369 1,0.0977 1,0.0325 1,0.0736 1,0.0386 1,0.0354 1,0.0576 1,0.0704 1,0.052 1,0.0591 1,0.0883 1,0.0461 1,0.0424 1,0.0305 1,0.026 1,0.0212 1,0.0543 1,0.0279 1,0.0297 1,0.0254 1,0.0112 1,0.0101 1,-2e-4 1,-0.01 1,-0.0117 1,-0.031 1,-0.0112 1,-0.0301 1,-0.0598 1,-0.0372 1,-0.0391 1,-0.0424 1,-0.0328 1,-0.0674 1,-0.0391 1,-0.0427 1,-0.0706 1,-0.0364 1,-0.0584 1,-0.11095 1,-0.0707 1,-0.11294 1,-0.0458 1,-0.0613 1,-0.0485 1,-0.0808 1,-0.11852 1,-0.0702 1,-0.0833 1,-0.0331 1,-0.0512 1,-0.0684 1,-0.0662 1,-0.0769 1,-0.0273 1,-0.0265 1,-0.0226 1,-0.0195 1,-0.0264 1,-0.0498 1,-0.0351 1,-0.0359 1,-0.0154 1,-0.0158 1,-0.003 1,-0.002 1,4.8e-4 1,0.002 1,0.0133 1,0.008 1,0.0215 1,0.023 1,0.0172 1,0.0185 1,0.0205 1,0.0166 1,0.0628 1,0.0753 1,0.0326 1,0.0676 1,0.054 1,0.0337 1,0.0901 1,0.0285 1,0.0315 1,0.031 1,0.0548 1,0.0646 1,0.0382 1,0.0959 1,0.0493 1,0.0441 1,0.0401 1,0.10836 1,0.0416 1,0.0621 1,0.07 1,0.1045 1,0.037 1,0.0459 1,0.0685 1,0.0488 1,0.0776 1,0.0305 1,0.0695 1,0.024 1,0.0286 1,0.0418 1,0.0216 1,0.0139 1,0.0267 1,0.009 1,0.0124 1,0.0111 1,0.006 1,0.005 1,-0.006 1,-0.0133 1,-0.008 1,-0.0248 1,-0.0236 1,-0.0362 1,-0.026 1,-0.0223 1,-0.0688 1,-0.0745 1,-0.094 1,-0.0511 1,-0.0539 1,-0.0353 1.55534,-0.10609"
         clip-path="url(#p6ac37f5caa)"
         style="fill:none;stroke:#1f77b4;stroke-width:0.2;stroke-linecap:square;stroke-opacity:0.5"
         id="path201981"
         transform="translate(-43.5,-12)" />
      <path
         d="m 124.76427,173.8934 1,0.0314 1,0.0369 1,0.0977 1,0.0325 1,0.0736 1,0.0386 1,0.0354 1,0.0576 1,0.0704 1,0.052 1,0.0591 1,0.0883 1,0.0462 1,0.0424 1,0.0305 1,0.026 1,0.0212 1,0.0543 1,0.0279 1,0.0297 1,0.0254 1,0.0112 1,0.0101 1,-2.1e-4 1,-0.01 1,-0.0117 1,-0.031 1,-0.0112 1,-0.0301 1,-0.0598 1,-0.0372 1,-0.0391 1,-0.0424 1,-0.0328 1,-0.0674 1,-0.0391 1,-0.0427 1,-0.0706 1,-0.0364 1,-0.0584 1,-0.11095 1,-0.0707 1,-0.11294 1,-0.0458 1,-0.0613 1,-0.0485 1,-0.0808 1,-0.11852 1,-0.0702 1,-0.0833 1,-0.0331 1,-0.0512 1,-0.0684 1,-0.0662 1,-0.0769 1,-0.0273 1,-0.0265 1,-0.0227 1,-0.0195 1,-0.0264 1,-0.0498 1,-0.0351 1,-0.0359 1,-0.0154 1,-0.0158 1,-0.003 1,-0.002 1,4.8e-4 1,0.002 1,0.0133 1,0.008 1,0.0215 1,0.023 1,0.0172 1,0.0185 1,0.0205 1,0.0166 1,0.0628 1,0.0753 1,0.0326 1,0.0676 1,0.054 1,0.0337 1,0.0901 1,0.0285 1,0.0315 1,0.031 1,0.0548 1,0.0646 1,0.0382 1,0.0959 1,0.0493 1,0.0441 1,0.0401 1,0.10837 1,0.0416 1,0.0621 1,0.07 1,0.1045 1,0.037 1,0.0459 1,0.0685 1,0.0487 1,0.0776 1,0.0305 1,0.0695 1,0.024 1,0.0286 1,0.0418 1,0.0216 1,0.0139 1,0.0267 1,0.009 1,0.0124 1,0.0111 1,0.006 1,0.005 1,-0.006 1,-0.0133 1,-0.008 1,-0.0248 1,-0.0236 1,-0.0362 1,-0.026 1,-0.0223 1,-0.0688 1,-0.0745 1,-0.094 1.90302,-0.0511"
         clip-path="url(#p6ac37f5caa)"
         style="fill:none;stroke:#1f77b4;stroke-width:0.2;stroke-linecap:square;stroke-opacity:0.5"
         id="path201983"
         transform="translate(-43.5,-12)" />
      <path
         d="m 124.76427,204.0936 1,0.0314 1,0.0369 1,0.0977 1,0.0325 1,0.0736 1,0.0386 1,0.0354 1,0.0576 1,0.0704 1,0.052 1,0.0591 1,0.0883 1,0.0462 1,0.0424 1,0.0305 1,0.026 1,0.0212 1,0.0543 1,0.0279 1,0.0297 1,0.0254 1,0.0112 1,0.0101 1,-2.1e-4 1,-0.01 1,-0.0117 1,-0.031 1,-0.0112 1,-0.0301 1,-0.0598 1,-0.0372 1,-0.0391 1,-0.0424 1,-0.0328 1,-0.0674 1,-0.0391 1,-0.0427 1,-0.0706 1,-0.0364 1,-0.0584 1,-0.11095 1,-0.0707 1,-0.11294 1,-0.0458 1,-0.0613 1,-0.0485 1,-0.0808 1,-0.11852 1,-0.0702 1,-0.0833 1,-0.0331 1,-0.0512 1,-0.0684 1,-0.0662 1,-0.0769 1,-0.0273 1,-0.0265 1,-0.0226 1,-0.0195 1,-0.0264 1,-0.0498 1,-0.0351 1,-0.0359 1,-0.0154 1,-0.0158 1,-0.003 1,-0.002 1,4.8e-4 1,0.002 1,0.0133 1,0.008 1,0.0215 1,0.023 1,0.0172 1,0.0185 1,0.0205 1,0.0166 1,0.0628 1,0.0753 1,0.0326 1,0.0676 1,0.054 1,0.0337 1,0.0901 1,0.0285 1,0.0315 1,0.031 1,0.0548 1,0.0646 1,0.0382 1,0.0959 1,0.0493 1,0.0441 1,0.0401 1,0.10837 1,0.0416 1,0.0622 1,0.07 1,0.1045 1,0.037 1,0.0459 1,0.0685 1,0.0487 1,0.0776 1,0.0306 1,0.0695 1,0.024 1,0.0286 1,0.0418 1,0.0216 1,0.014 1,0.0267 1,0.009 1,0.0125 1,0.0111 1,0.006 1,0.005 1,-0.006 1,-0.0133 1,-0.008 1.34924,-0.0248"
         clip-path="url(#p6ac37f5caa)"
         style="fill:none;stroke:#1f77b4;stroke-width:0.2;stroke-linecap:square;stroke-opacity:0.5"
         id="path201985"
         transform="translate(-43.5,-12)" />
      <path
         d="m 124.76427,139.30195 1,0.0314 1,0.0369 1,0.0977 1,0.0325 1,0.0736 1,0.0386 1,0.0354 1,0.0576 1,0.0704 1,0.052 1,0.0591 1,0.0883 1,0.0462 1,0.0424 1,0.0305 1,0.026 1,0.0212 1,0.0543 1,0.0279 1,0.0297 1,0.0254 1,0.0112 1,0.0101 1,-2.1e-4 1,-0.01 1,-0.0117 1,-0.031 1,-0.0112 1,-0.0301 1,-0.0598 1,-0.0372 1,-0.0391 1,-0.0424 1,-0.0328 1,-0.0674 1,-0.0391 1,-0.0427 1,-0.0706 1,-0.0364 1,-0.0584 1,-0.11095 1,-0.0707 1,-0.11294 1,-0.0458 1,-0.0613 1,-0.0485 1,-0.0808 1,-0.11852 1,-0.0702 1,-0.0833 1,-0.0331 1,-0.0512 1,-0.0684 1,-0.0662 1,-0.0769 1,-0.0273 1,-0.0265 1,-0.0226 1,-0.0195 1,-0.0264 1,-0.0498 1,-0.0351 1,-0.0359 1,-0.0154 1,-0.0158 1,-0.003 1,-0.002 1,4.8e-4 1,0.002 1,0.0133 1,0.008 1,0.0215 1,0.023 1,0.0172 1,0.0185 1,0.0205 1,0.0166 1,0.0628 1,0.0753 1,0.0326 1,0.0676 1,0.054 1,0.0337 1,0.0901 1,0.0285 1,0.0315 1,0.031 1,0.0548 1,0.0646 1,0.0382 1,0.0959 1,0.0493 1,0.0441 1,0.0401 1,0.10837 1,0.0416 1,0.0621 1,0.07 1,0.1045 1,0.037 1,0.0459 1,0.0685 1,0.0488 1,0.0776 1,0.0305 1,0.0695 1,0.024 1,0.0286 1,0.0418 1,0.0216 1,0.0139 1,0.0267 1,0.009 1,0.0124 1,0.0111 1,0.006 1,0.005 1,-0.006 1,-0.0133 1,-0.008 1,-0.0248 1,-0.0236 1,-0.0362 1,-0.026 1,-0.0223 1,-0.0688 1,-0.0745 1,-0.094 1,-0.0511 1,-0.0539 1,-0.0352 1.62704,-0.10608"
         clip-path="url(#p6ac37f5caa)"
         style="fill:none;stroke:#1f77b4;stroke-width:0.2;stroke-linecap:square;stroke-opacity:0.5"
         id="path201987"
         transform="translate(-43.5,-12)" />
      <path
         d="m 257.15058,145.17058 -1,-0.0314 -1,-0.0369 -1,-0.0978 -1,-0.0325 -1,-0.0736 -1,-0.0386 -1,-0.0354 -1,-0.0576 -1,-0.0704 -1,-0.052 -1,-0.0591 -1,-0.0883 -1,-0.0461 -1,-0.0424 -1,-0.0305 -1,-0.026 -1,-0.0212 -1,-0.0543 -1,-0.0279 -1,-0.0297 -1,-0.0254 -1,-0.0112 -1,-0.0101 -1,2e-4 -1,0.01 -1,0.0117 -1,0.031 -1,0.0112 -1,0.0301 -1,0.0598 -1,0.0372 -1,0.0391 -1,0.0424 -1,0.0328 -1,0.0674 -1,0.0391 -1,0.0427 -1,0.0706 -1,0.0364 -1,0.0584 -1,0.11095 -1,0.0707 -1,0.11294 -1,0.0458 -1,0.0613 -1,0.0485 -1,0.0808 -1,0.11852 -1,0.0702 -1,0.0833 -1,0.0331 -1,0.0512 -1,0.0684 -1,0.0662 -1,0.0769 -1,0.0273 -1,0.0265 -1,0.0226 -1,0.0195 -1,0.0264 -1,0.0498 -1,0.0351 -1,0.0359 -1,0.0154 -1,0.0158 -1,0.003 -1,0.002 -1,-4.9e-4 -1,-0.002 -1,-0.0132 -1,-0.008 -1,-0.0215 -1,-0.023 -1,-0.0172 -1,-0.0185 -1,-0.0204 -1,-0.0166 -1,-0.0628 -1,-0.0753 -1,-0.0326 -1,-0.0676 -1,-0.0541 -1,-0.0337 -1,-0.0901 -1,-0.0285 -1,-0.0315 -1,-0.031 -1,-0.0548 -1,-0.0646 -1,-0.0382 -1,-0.0959 -1,-0.0493 -1,-0.0441 -1,-0.0401 -1,-0.10837 -1,-0.0416 -1,-0.0621 -1,-0.07 -1,-0.10451 -1,-0.037 -1,-0.0459 -1,-0.0685 -1,-0.0487 -1,-0.0776 -1,-0.0305 -1,-0.0695 -1,-0.024 -1,-0.0286 -1,-0.0418 -1,-0.0216 -1,-0.0139 -1,-0.0267 -1,-0.009 -1,-0.0125 -1,-0.011 -1,-0.006 -1,-0.005 -1,0.006 -1,0.0133 -1,0.008 -1,0.0248 -1,0.0236 -1,0.0362 -1,0.026 -1,0.0223 -1,0.0688 -1,0.0745 -1,0.094 -1,0.0511 -0.99999,0.0539 -1,0.0353 -1.38632,0.10609"
         clip-path="url(#p6ac37f5caa)"
         style="fill:none;stroke:#ff7f0e;stroke-width:0.2;stroke-linecap:square;stroke-opacity:0.5"
         id="path201989"
         transform="translate(-43.5,-12)" />
      <path
         d="m 250.12818,194.12261 -1,-0.0314 -1,-0.0369 -1,-0.0977 -1,-0.0325 -1,-0.0736 -1,-0.0386 -1,-0.0354 -1,-0.0576 -1,-0.0704 -1,-0.052 -1,-0.0591 -1,-0.0883 -1,-0.0462 -1,-0.0424 -1,-0.0305 -1,-0.0261 -1,-0.0212 -1,-0.0543 -1,-0.0279 -1,-0.0297 -1,-0.0254 -1,-0.0112 -1,-0.0101 -1,2.1e-4 -1,0.01 -1,0.0117 -1,0.031 -1,0.0112 -1,0.0301 -1,0.0598 -1,0.0372 -1,0.0391 -1,0.0424 -1,0.0328 -1,0.0674 -1,0.0391 -1,0.0427 -1,0.0706 -1,0.0364 -1,0.0584 -1,0.11096 -1,0.0707 -1,0.11294 -1,0.0458 -1,0.0613 -1,0.0485 -1,0.0808 -1,0.11852 -1,0.0702 -1,0.0833 -1,0.0331 -1,0.0512 -1,0.0684 -1,0.0662 -1,0.0769 -1,0.0273 -1,0.0265 -1,0.0226 -1,0.0195 -1,0.0264 -1,0.0498 -1,0.0351 -1,0.0359 -1,0.0154 -1,0.0158 -1,0.003 -1,0.002 -1,-4.9e-4 -1,-0.002 -1,-0.0133 -1,-0.008 -1,-0.0215 -1,-0.023 -1,-0.0172 -1,-0.0185 -1,-0.0205 -1,-0.0166 -1,-0.0628 -1,-0.0753 -1,-0.0326 -1,-0.0676 -1,-0.054 -1,-0.0337 -1,-0.0901 -1,-0.0285 -1,-0.0315 -1,-0.031 -1,-0.0548 -1,-0.0646 -1,-0.0382 -1,-0.0959 -1,-0.0493 -1,-0.0441 -1,-0.0401 -1,-0.10837 -1,-0.0416 -1,-0.0621 -1,-0.07 -1,-0.1045 -1,-0.037 -1,-0.0459 -1,-0.0685 -1,-0.0487 -1,-0.0776 -1,-0.0305 -1,-0.0695 -1,-0.024 -1,-0.0286 -1,-0.0418 -1,-0.0216 -1,-0.0139 -1,-0.0267 -1,-0.009 -1,-0.0124 -1,-0.0111 -1,-0.006 -1,-0.005 -1,0.006 -1,0.0133 -1,0.008 -1,0.0248 -1,0.0236 -1,0.0362 -1,0.026 -1.36391,0.0223"
         clip-path="url(#p6ac37f5caa)"
         style="fill:none;stroke:#ff7f0e;stroke-width:0.2;stroke-linecap:square;stroke-opacity:0.5"
         id="path201991"
         transform="translate(-43.5,-12)" />
      <path
         d="m 239.216,215.28391 -1,-0.0314 -1,-0.0369 -1,-0.0977 -1,-0.0325 -1,-0.0736 -1,-0.0386 -1,-0.0354 -1,-0.0576 -1,-0.0704 -1,-0.052 -1,-0.0591 -1,-0.0883 -1,-0.0461 -1,-0.0424 -1,-0.0305 -1,-0.026 -1,-0.0212 -1,-0.0543 -1,-0.0279 -1,-0.0297 -1,-0.0254 -1,-0.0112 -1,-0.0101 -1,2e-4 -1,0.01 -1,0.0117 -1,0.031 -1,0.0112 -1,0.0301 -1,0.0598 -1,0.0372 -1,0.0391 -1,0.0424 -1,0.0328 -1,0.0674 -1,0.0391 -1,0.0427 -1,0.0706 -1,0.0364 -1,0.0584 -1,0.11095 -1,0.0707 -1,0.11294 -1,0.0458 -1,0.0613 -1,0.0485 -1,0.0808 -1,0.11852 -1,0.0702 -1,0.0833 -1,0.0331 -1,0.0512 -1,0.0684 -1,0.0662 -1,0.0769 -1,0.0273 -1,0.0265 -1,0.0226 -1,0.0195 -1,0.0264 -1,0.0498 -1,0.0351 -1,0.0359 -1,0.0154 -1,0.0158 -1,0.003 -1,0.002 -1,-4.9e-4 -1,-0.002 -1,-0.0133 -1,-0.008 -1,-0.0215 -1,-0.023 -1,-0.0172 -1,-0.0185 -1,-0.0205 -1,-0.0166 -1,-0.0628 -1,-0.0753 -1,-0.0326 -1,-0.0676 -1,-0.054 -1,-0.0337 -1,-0.0901 -1,-0.0285 -1,-0.0315 -1,-0.031 -1,-0.0548 -1,-0.0646 -1,-0.0382 -1,-0.0959 -1,-0.0493 -1,-0.0441 -1,-0.0401 -1,-0.10836 -1,-0.0416 -1,-0.0621 -1,-0.07 -1,-0.1045 -1,-0.037 -1,-0.0459 -1,-0.0685 -1,-0.0488 -1,-0.0776 -1,-0.0305 -1,-0.0695 -1,-0.024 -1,-0.0286 -1,-0.0418 -1,-0.0216 -1,-0.014 -1,-0.0267 -1,-0.009 -1.45173,-0.0125"
         clip-path="url(#p6ac37f5caa)"
         style="fill:none;stroke:#ff7f0e;stroke-width:0.2;stroke-linecap:square;stroke-opacity:0.5"
         id="path201993"
         transform="translate(-43.5,-12)" />
      <path
         d="m 254.70802,173.61206 -1,-0.0314 -1,-0.0369 -1,-0.0977 -1,-0.0325 -1,-0.0736 -1,-0.0386 -1,-0.0354 -1,-0.0576 -1,-0.0704 -1,-0.052 -1,-0.0591 -1,-0.0883 -1,-0.0461 -1,-0.0424 -1,-0.0305 -1,-0.026 -1,-0.0212 -1,-0.0543 -1,-0.0279 -1,-0.0297 -1,-0.0254 -1,-0.0112 -1,-0.0101 -1,2e-4 -1,0.01 -1,0.0117 -1,0.031 -1,0.0112 -1,0.0301 -1,0.0598 -1,0.0372 -1,0.0391 -1,0.0424 -1,0.0328 -1,0.0674 -1,0.0391 -1,0.0427 -1,0.0706 -1,0.0364 -1,0.0584 -1,0.11095 -1,0.0707 -1,0.11294 -1,0.0458 -1,0.0613 -1,0.0485 -1,0.0808 -1,0.11852 -1,0.0702 -1,0.0833 -1,0.0331 -1,0.0512 -1,0.0684 -1,0.0662 -1,0.0769 -1,0.0273 -1,0.0265 -1,0.0226 -1,0.0195 -1,0.0264 -1,0.0498 -1,0.0351 -1,0.0359 -1,0.0154 -1,0.0158 -1,0.003 -1,0.002 -1,-4.9e-4 -1,-0.002 -1,-0.0133 -1,-0.008 -1,-0.0215 -1,-0.023 -1,-0.0172 -1,-0.0185 -1,-0.0205 -1,-0.0166 -1,-0.0628 -1,-0.0753 -1,-0.0326 -1,-0.0676 -1,-0.054 -1,-0.0337 -1,-0.0901 -1,-0.0285 -1,-0.0315 -1,-0.031 -1,-0.0548 -1,-0.0646 -1,-0.0382 -1,-0.0959 -1,-0.0493 -1,-0.0441 -1,-0.0401 -1,-0.10836 -1,-0.0416 -1,-0.0621 -1,-0.07 -1,-0.1045 -1,-0.037 -1,-0.0459 -1,-0.0685 -1,-0.0487 -1,-0.0776 -1,-0.0305 -1,-0.0695 -1,-0.024 -1,-0.0286 -1,-0.0418 -1,-0.0216 -1,-0.0139 -1,-0.0267 -1,-0.009 -1,-0.0125 -1,-0.0111 -1,-0.006 -1,-0.005 -1,0.006 -1,0.0133 -1,0.008 -1,0.0248 -1,0.0236 -1,0.0362 -1,0.026 -1,0.0223 -1,0.0688 -1,0.0745 -1,0.094 -1.94375,0.0511"
         clip-path="url(#p6ac37f5caa)"
         style="fill:none;stroke:#ff7f0e;stroke-width:0.2;stroke-linecap:square;stroke-opacity:0.5"
         id="path201995"
         transform="translate(-43.5,-12)" />
      <path
         d="m 257.20691,143.91606 -1,-0.0314 -1,-0.0369 -1,-0.0977 -1,-0.0325 -1,-0.0736 -1,-0.0386 -1,-0.0354 -1,-0.0576 -1,-0.0704 -1,-0.052 -1,-0.0591 -1,-0.0883 -1,-0.0461 -1,-0.0424 -1,-0.0305 -1,-0.026 -1,-0.0212 -1,-0.0543 -1,-0.0279 -1,-0.0297 -1,-0.0254 -1,-0.0112 -1,-0.0101 -1,2e-4 -1,0.01 -1,0.0116 -1,0.031 -1,0.0112 -1,0.0301 -1,0.0598 -1,0.0372 -1,0.0391 -1,0.0424 -1,0.0328 -1,0.0674 -1,0.0391 -1,0.0427 -1,0.0706 -1,0.0364 -1,0.0584 -1,0.11095 -1,0.0707 -1,0.11294 -1,0.0458 -1,0.0613 -1,0.0485 -1,0.0808 -1,0.11852 -1,0.0702 -1,0.0833 -1,0.0331 -1,0.0512 -1,0.0684 -1,0.0662 -1,0.0769 -1,0.0273 -1,0.0265 -1,0.0226 -1,0.0195 -1,0.0264 -1,0.0498 -1,0.0351 -1,0.0359 -1,0.0154 -1,0.0158 -1,0.003 -1,0.002 -1,-4.8e-4 -1,-0.002 -1,-0.0133 -1,-0.008 -1,-0.0215 -1,-0.023 -1,-0.0172 -1,-0.0185 -1,-0.0205 -1,-0.0166 -1,-0.0628 -1,-0.0753 -1,-0.0326 -1,-0.0676 -1,-0.054 -1,-0.0337 -1,-0.0901 -1,-0.0285 -1,-0.0315 -1,-0.031 -1,-0.0548 -1,-0.0646 -1,-0.0382 -1,-0.0959 -1,-0.0493 -1,-0.0441 -1,-0.0401 -1,-0.10836 -1,-0.0416 -1,-0.0621 -1,-0.07 -1,-0.1045 -1,-0.037 -1,-0.0459 -1,-0.0685 -1,-0.0487 -1,-0.0776 -1,-0.0305 -1,-0.0695 -1,-0.024 -1,-0.0286 -1,-0.0418 -1,-0.0216 -1,-0.014 -1,-0.0267 -1,-0.009 -1,-0.0125 -1,-0.0111 -1,-0.006 -1,-0.005 -1,0.006 -1,0.0133 -1,0.008 -1,0.0248 -1,0.0236 -1,0.0362 -1,0.026 -1,0.0223 -1,0.0688 -1,0.0745 -1,0.094 -1,0.0511 -1,0.0539 -1,0.0352 -1.44264,0.10609"
         clip-path="url(#p6ac37f5caa)"
         style="fill:none;stroke:#ff7f0e;stroke-width:0.2;stroke-linecap:square;stroke-opacity:0.5"
         id="path201997"
         transform="translate(-43.5,-12)" />
      <path
         d="m 252.9186,183.69933 -1,-0.0314 -1,-0.0369 -1,-0.0977 -1,-0.0325 -1,-0.0736 -1,-0.0386 -1,-0.0354 -1,-0.0576 -1,-0.0704 -1,-0.052 -1,-0.0591 -1,-0.0883 -1,-0.0462 -1,-0.0424 -1,-0.0305 -1,-0.026 -1,-0.0212 -1,-0.0543 -1,-0.0279 -1,-0.0297 -1,-0.0254 -1,-0.0112 -1,-0.0101 -1,2e-4 -1,0.01 -1,0.0117 -1,0.031 -1,0.0112 -1,0.0301 -1,0.0598 -1,0.0372 -1,0.0391 -1,0.0424 -1,0.0328 -1,0.0674 -1,0.0391 -1,0.0427 -1,0.0706 -1,0.0364 -1,0.0584 -1,0.11096 -1,0.0707 -1,0.11294 -1,0.0458 -1,0.0613 -1,0.0485 -1,0.0808 -1,0.11852 -1,0.0702 -1,0.0833 -1,0.0332 -1,0.0512 -1,0.0684 -1,0.0662 -1,0.0769 -1,0.0273 -1,0.0265 -1,0.0226 -1,0.0195 -1,0.0264 -1,0.0498 -1,0.0351 -1,0.0359 -1,0.0154 -1,0.0158 -1,0.003 -1,0.002 -1,-4.9e-4 -1,-0.002 -1,-0.0132 -1,-0.008 -1,-0.0215 -1,-0.023 -1,-0.0172 -1,-0.0185 -1,-0.0204 -1,-0.0166 -1,-0.0628 -1,-0.0753 -1,-0.0326 -1,-0.0676 -1,-0.054 -1,-0.0337 -1,-0.0901 -1,-0.0285 -1,-0.0315 -1,-0.031 -1,-0.0548 -1,-0.0646 -1,-0.0382 -1,-0.0959 -1,-0.0493 -1,-0.0441 -1,-0.0401 -1,-0.10837 -1,-0.0416 -1,-0.0621 -1,-0.07 -1,-0.10451 -1,-0.037 -1,-0.0459 -1,-0.0685 -1,-0.0488 -1,-0.0776 -1,-0.0305 -1,-0.0695 -1,-0.024 -1,-0.0286 -1,-0.0418 -1,-0.0216 -1,-0.0139 -1,-0.0267 -1,-0.009 -1,-0.0124 -1,-0.0111 -1,-0.006 -1,-0.005 -1,0.006 -1,0.0133 -1,0.008 -1,0.0248 -1,0.0236 -1,0.0362 -1,0.026 -1,0.0223 -1,0.0688 -1,0.0745 -1.15433,0.094"
         clip-path="url(#p6ac37f5caa)"
         style="fill:none;stroke:#ff7f0e;stroke-width:0.2;stroke-linecap:square;stroke-opacity:0.5"
         id="path201999"
         transform="translate(-43.5,-12)" />
      <path
         d="m 238.6054,216.06965 -1,-0.0314 -1,-0.0369 -1,-0.0977 -1,-0.0325 -1,-0.0736 -1,-0.0386 -1,-0.0354 -1,-0.0576 -1,-0.0704 -1,-0.052 -1,-0.0591 -1,-0.0883 -1,-0.0461 -1,-0.0424 -1,-0.0305 -1,-0.026 -1,-0.0212 -1,-0.0543 -1,-0.0279 -1,-0.0297 -1,-0.0254 -1,-0.0112 -1,-0.0101 -1,2e-4 -1,0.01 -1,0.0117 -1,0.031 -1,0.0112 -1,0.0301 -1,0.0598 -1,0.0372 -1,0.0391 -1,0.0424 -1,0.0328 -1,0.0674 -1,0.0391 -1,0.0427 -1,0.0706 -1,0.0364 -1,0.0584 -1,0.11095 -1,0.0707 -1,0.11294 -1,0.0458 -1,0.0613 -1,0.0485 -1,0.0808 -1,0.11852 -1,0.0702 -1,0.0833 -1,0.0331 -1,0.0512 -1,0.0684 -1,0.0662 -1,0.0769 -1,0.0273 -1,0.0265 -1,0.0226 -1,0.0195 -1,0.0264 -1,0.0498 -1,0.0351 -1,0.0359 -1,0.0154 -1,0.0158 -1,0.003 -1,0.002 -1,-4.9e-4 -1,-0.002 -1,-0.0133 -1,-0.008 -1,-0.0215 -1,-0.023 -1,-0.0172 -1,-0.0185 -1,-0.0205 -1,-0.0166 -1,-0.0628 -1,-0.0753 -1,-0.0326 -1,-0.0676 -1,-0.054 -1,-0.0337 -1,-0.0901 -1,-0.0285 -1,-0.0315 -1,-0.031 -1,-0.0548 -1,-0.0646 -1,-0.0382 -1,-0.0959 -1,-0.0493 -1,-0.0441 -1,-0.0401 -1,-0.10836 -1,-0.0416 -1,-0.0621 -1,-0.07 -1,-0.1045 -1,-0.037 -1,-0.0459 -1,-0.0685 -1,-0.0488 -1,-0.0776 -1,-0.0305 -1,-0.0695 -1,-0.024 -1,-0.0286 -1,-0.0418 -1,-0.0216 -1,-0.0139 -1,-0.0267 -1.84113,-0.009"
         clip-path="url(#p6ac37f5caa)"
         style="fill:none;stroke:#ff7f0e;stroke-width:0.2;stroke-linecap:square;stroke-opacity:0.5"
         id="path202001"
         transform="translate(-43.5,-12)" />
      <path
         d="m 240.34001,213.76941 -1,-0.0314 -1,-0.0369 -1,-0.0977 -1,-0.0325 -1,-0.0736 -1,-0.0386 -1,-0.0354 -1,-0.0576 -1,-0.0704 -1,-0.052 -1,-0.0591 -1,-0.0883 -1,-0.0461 -1,-0.0424 -1,-0.0305 -1,-0.026 -1,-0.0212 -1,-0.0543 -1,-0.0279 -1,-0.0297 -1,-0.0254 -1,-0.0112 -1,-0.0101 -1,2e-4 -1,0.01 -1,0.0117 -1,0.031 -1,0.0112 -1,0.0301 -1,0.0598 -1,0.0372 -1,0.0391 -1,0.0424 -1,0.0328 -1,0.0674 -1,0.0391 -1,0.0427 -1,0.0706 -1,0.0364 -1,0.0584 -1,0.11095 -1,0.0707 -1,0.11294 -1,0.0458 -1,0.0613 -1,0.0485 -1,0.0808 -1,0.11852 -1,0.0702 -1,0.0833 -1,0.0331 -1,0.0512 -1,0.0684 -1,0.0662 -1,0.0769 -1,0.0273 -1,0.0265 -1,0.0226 -1,0.0195 -1,0.0264 -1,0.0498 -1,0.0351 -1,0.0359 -1,0.0154 -1,0.0158 -1,0.003 -1,0.002 -1,-4.9e-4 -1,-0.002 -1,-0.0133 -1,-0.008 -1,-0.0215 -1,-0.023 -1,-0.0172 -1,-0.0185 -1,-0.0205 -1,-0.0166 -1,-0.0628 -1,-0.0753 -1,-0.0326 -1,-0.0676 -1,-0.054 -1,-0.0337 -1,-0.0901 -1,-0.0285 -1,-0.0315 -1,-0.031 -1,-0.0548 -1,-0.0646 -1,-0.0382 -1,-0.0959 -1,-0.0493 -1,-0.0441 -1,-0.0401 -1,-0.10836 -1,-0.0416 -1,-0.0621 -1,-0.07 -1,-0.1045 -1,-0.037 -1,-0.0459 -1,-0.0685 -1,-0.0488 -1,-0.0776 -1,-0.0305 -1,-0.0695 -1,-0.024 -1,-0.0286 -1,-0.0418 -1,-0.0216 -1,-0.0139 -1,-0.0267 -1,-0.009 -1,-0.0125 -1.57574,-0.0111"
         clip-path="url(#p6ac37f5caa)"
         style="fill:none;stroke:#ff7f0e;stroke-width:0.2;stroke-linecap:square;stroke-opacity:0.5"
         id="path202003"
         transform="translate(-43.5,-12)" />
      <path
         d="m 250.00283,194.50243 -1,-0.0314 -1,-0.0369 -1,-0.0977 -1,-0.0325 -1,-0.0736 -1,-0.0386 -1,-0.0354 -1,-0.0576 -1,-0.0704 -1,-0.052 -1,-0.0591 -1,-0.0883 -1,-0.0461 -1,-0.0424 -1,-0.0305 -1,-0.026 -1,-0.0212 -1,-0.0543 -1,-0.0279 -1,-0.0297 -1,-0.0254 -1,-0.0112 -1,-0.0101 -1,2e-4 -1,0.01 -1,0.0117 -1,0.031 -1,0.0112 -1,0.0301 -1,0.0598 -1,0.0372 -1,0.0391 -1,0.0424 -1,0.0328 -1,0.0674 -1,0.0391 -1,0.0427 -1,0.0706 -1,0.0364 -1,0.0584 -1,0.11095 -1,0.0707 -1,0.11294 -1,0.0458 -1,0.0613 -1,0.0485 -1,0.0808 -1,0.11852 -1,0.0702 -1,0.0833 -1,0.0331 -1,0.0512 -1,0.0684 -1,0.0662 -1,0.0769 -1,0.0273 -1,0.0265 -1,0.0226 -1,0.0195 -1,0.0264 -1,0.0498 -1,0.0351 -1,0.0359 -1,0.0154 -1,0.0158 -1,0.003 -1,0.002 -1,-4.9e-4 -1,-0.002 -1,-0.0133 -1,-0.008 -1,-0.0215 -1,-0.023 -1,-0.0172 -1,-0.0185 -1,-0.0204 -1,-0.0166 -1,-0.0628 -1,-0.0753 -1,-0.0326 -1,-0.0676 -1,-0.0541 -1,-0.0337 -1,-0.0901 -1,-0.0285 -1,-0.0315 -1,-0.031 -1,-0.0548 -1,-0.0646 -1,-0.0382 -1,-0.0959 -1,-0.0493 -1,-0.0441 -1,-0.0401 -1,-0.10836 -1,-0.0416 -1,-0.0621 -1,-0.07 -1,-0.1045 -1,-0.037 -1,-0.0459 -1,-0.0685 -1,-0.0488 -1,-0.0776 -1,-0.0305 -1,-0.0695 -1,-0.024 -1,-0.0286 -1,-0.0418 -1,-0.0216 -1,-0.0139 -1,-0.0267 -1,-0.009 -1,-0.0125 -1,-0.011 -1,-0.006 -1,-0.005 -1,0.006 -1,0.0133 -1,0.008 -1,0.0248 -1,0.0236 -1,0.0362 -1,0.026 -1.23856,0.0223"
         clip-path="url(#p6ac37f5caa)"
         style="fill:none;stroke:#ff7f0e;stroke-width:0.2;stroke-linecap:square;stroke-opacity:0.5"
         id="path202005"
         transform="translate(-43.5,-12)" />
      <path
         d="m 253.78299,179.33012 -1,-0.0314 -1,-0.0369 -1,-0.0977 -1,-0.0325 -1,-0.0736 -1,-0.0386 -1,-0.0354 -1,-0.0576 -1,-0.0704 -1,-0.052 -1,-0.0591 -1,-0.0883 -1,-0.0462 -1,-0.0424 -1,-0.0305 -1,-0.026 -1,-0.0212 -1,-0.0543 -1,-0.0279 -1,-0.0297 -1,-0.0254 -1,-0.0112 -1,-0.0101 -1,2.1e-4 -1,0.01 -1,0.0117 -1,0.031 -1,0.0112 -1,0.0301 -1,0.0598 -1,0.0372 -1,0.0391 -1,0.0424 -1,0.0328 -1,0.0674 -1,0.0391 -1,0.0427 -1,0.0706 -1,0.0364 -1,0.0584 -1,0.11095 -1,0.0707 -1,0.11294 -1,0.0458 -1,0.0613 -1,0.0485 -1,0.0808 -1,0.11852 -1,0.0702 -1,0.0833 -1,0.0331 -1,0.0512 -1,0.0684 -1,0.0662 -1,0.0769 -1,0.0273 -1,0.0265 -1,0.0226 -1,0.0195 -1,0.0264 -1,0.0498 -1,0.0351 -1,0.0359 -1,0.0154 -1,0.0158 -1,0.003 -1,0.002 -1,-4.8e-4 -1,-0.002 -1,-0.0133 -1,-0.008 -1,-0.0215 -1,-0.023 -1,-0.0172 -1,-0.0185 -1,-0.0205 -1,-0.0166 -1,-0.0628 -1,-0.0753 -1,-0.0326 -1,-0.0676 -1,-0.054 -1,-0.0337 -1,-0.0901 -1,-0.0285 -1,-0.0315 -1,-0.031 -1,-0.0548 -1,-0.0646 -1,-0.0382 -1,-0.0959 -1,-0.0493 -1,-0.0441 -1,-0.0401 -1,-0.10837 -1,-0.0416 -1,-0.0621 -1,-0.07 -1,-0.1045 -1,-0.037 -1,-0.0459 -1,-0.0685 -1,-0.0488 -1,-0.0776 -1,-0.0305 -1,-0.0695 -1,-0.024 -1,-0.0286 -1,-0.0418 -1,-0.0216 -1,-0.0139 -1,-0.0267 -1,-0.009 -1,-0.0124 -1,-0.0111 -1,-0.006 -1,-0.005 -1,0.006 -1,0.0133 -1,0.008 -1,0.0248 -1,0.0236 -1,0.0362 -1,0.026 -1,0.0223 -1,0.0688 -1,0.0745 -1,0.094 -1.01872,0.0511"
         clip-path="url(#p6ac37f5caa)"
         style="fill:none;stroke:#ff7f0e;stroke-width:0.2;stroke-linecap:square;stroke-opacity:0.5"
         id="path202007"
         transform="translate(-43.5,-12)" />
      <g
         id="patch_3"
         transform="translate(-43.5,-12)">
        <path
           d="M 89.76674,14.599219 V 55.212125 H 79.741619 V 217.66375 M 112.51968,14.599219 V 55.212125 H 122.5448 V 217.66375"
           clip-path="url(#p6ac37f5caa)"
           style="fill:none;stroke:#1f77b4;stroke-linejoin:miter"
           id="path202009" />
      </g>
      <g
         id="PolyCollection_1"
         transform="translate(-43.5,-12)">
        <path
           d="M 112.51968,14.599219 H 89.76674 V 55.212125 H 79.741619 V 217.66375 H 122.5448 v 0 -162.451625 h -10.02512 z"
           clip-path="url(#p6ac37f5caa)"
           style="fill:#1f77b4;fill-opacity:0.5"
           id="path202012" />
      </g>
      <g
         id="patch_4"
         transform="translate(-43.5,-12)">
        <path
           d="m 259.70922,136.43794 -0.51607,12.30694 -0.64127,9.84555 -0.76579,8.20463 -0.82233,6.5637 -0.92019,5.74324 -1.1584,5.74324 -1.22885,4.92278 -1.22646,4.10231 -1.44567,4.10231 -1.70406,4.10232 -1.58005,3.28185 -1.80219,3.28185 -2.05557,3.28185 -2.34458,3.28185 -1.97232,2.46139 m 21.80228,-81.22581 0.51607,12.30694 0.64128,9.84555 0.76579,8.20463 0.82232,6.5637 0.9202,5.74324 1.1584,5.74324 1.22884,4.92278 1.22647,4.10231 1.44567,4.10231 1.70405,4.10232 1.58005,3.28185 1.80219,3.28185 2.05558,3.28185 2.34457,3.28185 1.97233,2.46139 v 0"
           clip-path="url(#p6ac37f5caa)"
           style="fill:none;stroke:#ff7f0e;stroke-linejoin:miter"
           id="path202015" />
      </g>
      <g
         id="PolyCollection_2"
         transform="translate(-43.5,-12)">
        <path
           d="m 261.3277,136.43794 h -1.61848 l -0.0271,0.82046 -0.028,0.82046 -0.0289,0.82047 -0.0299,0.82046 -0.0309,0.82046 -0.0319,0.82046 -0.033,0.82047 -0.0341,0.82046 -0.0352,0.82046 -0.0364,0.82046 -0.0376,0.82047 -0.0389,0.82046 -0.0401,0.82046 -0.0415,0.82047 -0.0429,0.82046 -0.0443,0.82046 -0.0458,0.82046 -0.0473,0.82047 -0.0489,0.82046 -0.0505,0.82046 -0.0522,0.82046 -0.054,0.82047 -0.0558,0.82046 -0.0576,0.82046 -0.0596,0.82047 -0.0616,0.82046 -0.0636,0.82046 -0.0657,0.82046 -0.0679,0.82047 -0.0702,0.82046 -0.0726,0.82046 -0.075,0.82047 -0.0775,0.82046 -0.0801,0.82046 -0.0828,0.82046 -0.0855,0.82047 -0.0884,0.82046 -0.0914,0.82046 -0.0944,0.82046 -0.0976,0.82047 -0.10083,0.82046 -0.1042,0.82046 -0.10768,0.82047 -0.11129,0.82046 -0.115,0.82046 -0.11885,0.82046 -0.12282,0.82047 -0.12693,0.82046 -0.13117,0.82046 -0.13556,0.82046 -0.14009,0.82047 -0.14477,0.82046 -0.14962,0.82046 -0.15461,0.82047 -0.15979,0.82046 -0.16513,0.82046 -0.17065,0.82046 -0.17635,0.82047 -0.18225,0.82046 -0.18835,0.82046 -0.19464,0.82046 -0.20115,0.82047 -0.20788,0.82046 -0.21482,0.82046 -0.22201,0.82047 -0.22943,0.82046 -0.2371,0.82046 -0.24503,0.82047 -0.25322,0.82046 -0.26168,0.82046 -0.27044,0.82046 -0.27948,0.82047 -0.28882,0.82046 -0.29848,0.82046 -0.30845,0.82046 -0.31877,0.82047 -0.32943,0.82046 -0.34045,0.82046 -0.35182,0.82046 -0.36359,0.82047 -0.37574,0.82046 -0.38831,0.82046 -0.40129,0.82047 -0.41471,0.82046 -0.42857,0.82046 -0.4429,0.82046 -0.45771,0.82047 -0.47301,0.82046 -0.48883,0.82046 -0.50517,0.82046 -0.52206,0.82047 -0.53951,0.82046 -0.55756,0.82046 -0.57619,0.82047 -0.59546,0.82046 -0.61537,0.82046 -0.63594,0.82046 -0.6572,0.82047 -0.67918,0.82046 h 41.98609 v 0 l -0.67918,-0.82046 -0.65721,-0.82047 -0.63594,-0.82046 -0.61537,-0.82046 -0.59546,-0.82046 -0.57619,-0.82047 -0.55755,-0.82046 -0.53952,-0.82046 -0.52206,-0.82047 -0.50517,-0.82046 -0.48883,-0.82046 -0.47301,-0.82046 -0.45771,-0.82047 -0.4429,-0.82046 -0.42857,-0.82046 -0.41471,-0.82046 -0.40129,-0.82047 -0.3883,-0.82046 -0.37575,-0.82046 -0.36358,-0.82047 -0.35183,-0.82046 -0.34044,-0.82046 -0.32943,-0.82046 -0.31877,-0.82047 -0.30846,-0.82046 -0.29848,-0.82046 -0.28882,-0.82046 -0.27948,-0.82047 -0.27043,-0.82046 -0.26169,-0.82046 -0.25322,-0.82046 -0.24503,-0.82047 -0.2371,-0.82046 -0.22943,-0.82046 -0.22201,-0.82047 -0.21482,-0.82046 -0.20788,-0.82046 -0.20115,-0.82047 -0.19464,-0.82046 -0.18834,-0.82046 -0.18225,-0.82046 -0.17636,-0.82047 -0.17065,-0.82046 -0.16513,-0.82046 -0.15978,-0.82046 -0.15462,-0.82047 -0.14961,-0.82046 -0.14478,-0.82046 -0.14009,-0.82047 -0.13556,-0.82046 -0.13117,-0.82046 -0.12693,-0.82046 -0.12282,-0.82047 -0.11885,-0.82046 -0.115,-0.82046 -0.11128,-0.82046 -0.10769,-0.82047 -0.10419,-0.82046 -0.10083,-0.82046 -0.0976,-0.82047 -0.0944,-0.82046 -0.0914,-0.82046 -0.0884,-0.82046 -0.0855,-0.82047 -0.0828,-0.82046 -0.0801,-0.82046 -0.0775,-0.82046 -0.075,-0.82047 -0.0726,-0.82046 -0.0702,-0.82046 -0.0679,-0.82047 -0.0657,-0.82046 -0.0636,-0.82046 -0.0616,-0.82046 -0.0596,-0.82047 -0.0576,-0.82046 -0.0558,-0.82046 -0.054,-0.82047 -0.0522,-0.82046 -0.0505,-0.82046 -0.0489,-0.82046 -0.0473,-0.82047 -0.0458,-0.82046 -0.0443,-0.82046 -0.0429,-0.82046 -0.0415,-0.82047 -0.0401,-0.82046 -0.0389,-0.82046 -0.0376,-0.82047 -0.0364,-0.82046 -0.0352,-0.82046 -0.034,-0.82046 -0.033,-0.82047 -0.0319,-0.82046 -0.0309,-0.82046 -0.0299,-0.82046 -0.0289,-0.82047 -0.028,-0.82046 z"
           clip-path="url(#p6ac37f5caa)"
           style="fill:#ff7f0e;fill-opacity:0.5"
           id="path202018" />
      </g>
      <g
         id="matplotlib.axis_1">
        <g
           id="xtick_1"
           transform="translate(-43.5,-7.5)">
          <g
             id="line2d_1" />
          <g
             id="text_1">
            <!-- Population_1 -->
            <g
               transform="matrix(0.1,0,0,-0.1,69.195554,228.76219)"
               id="g202059">
              <defs
                 id="defs202033">
                <path
                   id="DejaVuSans-50"
                   d="M 1259,4147 V 2394 h 794 q 441,0 681,228 241,228 241,650 0,419 -241,647 -240,228 -681,228 z m -631,519 h 1425 q 785,0 1186,-355 402,-355 402,-1039 0,-691 -402,-1044 -401,-353 -1186,-353 H 1259 V 0 H 628 Z"
                   transform="scale(0.015625)" />
                <path
                   id="DejaVuSans-6f"
                   d="m 1959,3097 q -462,0 -731,-361 -269,-361 -269,-989 0,-628 267,-989 268,-361 733,-361 460,0 728,362 269,363 269,988 0,622 -269,986 -268,364 -728,364 z m 0,487 q 750,0 1178,-488 429,-487 429,-1349 Q 3566,888 3137,398 2709,-91 1959,-91 1206,-91 779,398 353,888 353,1747 q 0,862 426,1349 427,488 1180,488 z"
                   transform="scale(0.015625)" />
                <path
                   id="DejaVuSans-70"
                   d="M 1159,525 V -1331 H 581 v 4831 h 578 v -531 q 182,312 458,463 277,152 661,152 638,0 1036,-506 399,-506 399,-1331 0,-825 -399,-1332 -398,-506 -1036,-506 -384,0 -661,152 -276,152 -458,464 z m 1957,1222 q 0,634 -261,995 -261,361 -717,361 -457,0 -718,-361 -261,-361 -261,-995 0,-634 261,-995 261,-361 718,-361 456,0 717,361 261,361 261,995 z"
                   transform="scale(0.015625)" />
                <path
                   id="DejaVuSans-75"
                   d="m 544,1381 v 2119 h 575 V 1403 q 0,-497 193,-746 194,-248 582,-248 465,0 735,297 271,297 271,810 v 1984 h 575 V 0 H 2900 V 538 Q 2691,219 2414,64 2138,-91 1772,-91 1169,-91 856,284 544,659 544,1381 Z m 1447,2203 z"
                   transform="scale(0.015625)" />
                <path
                   id="DejaVuSans-6c"
                   d="m 603,4863 h 575 V 0 H 603 Z"
                   transform="scale(0.015625)" />
                <path
                   id="DejaVuSans-61"
                   d="m 2194,1759 q -697,0 -966,-159 -269,-159 -269,-544 0,-306 202,-486 202,-179 548,-179 479,0 768,339 289,339 289,901 v 128 z m 1147,238 V 0 H 2766 V 531 Q 2569,213 2275,61 1981,-91 1556,-91 q -537,0 -855,302 -317,302 -317,808 0,590 395,890 396,300 1180,300 h 807 v 57 q 0,397 -261,614 -261,217 -733,217 -300,0 -585,-72 -284,-72 -546,-216 v 532 q 315,122 612,182 297,61 578,61 760,0 1135,-394 375,-393 375,-1193 z"
                   transform="scale(0.015625)" />
                <path
                   id="DejaVuSans-74"
                   d="M 1172,4494 V 3500 H 2356 V 3053 H 1172 V 1153 q 0,-428 117,-550 117,-122 477,-122 h 590 V 0 H 1766 Q 1100,0 847,248 594,497 594,1153 V 3053 H 172 v 447 h 422 v 994 z"
                   transform="scale(0.015625)" />
                <path
                   id="DejaVuSans-69"
                   d="m 603,3500 h 575 V 0 H 603 Z m 0,1363 h 575 V 4134 H 603 Z"
                   transform="scale(0.015625)" />
                <path
                   id="DejaVuSans-6e"
                   d="M 3513,2113 V 0 h -575 v 2094 q 0,497 -194,743 -194,247 -581,247 -466,0 -735,-297 -269,-296 -269,-809 V 0 H 581 v 3500 h 578 v -544 q 207,316 486,472 280,156 646,156 603,0 912,-373 310,-373 310,-1098 z"
                   transform="scale(0.015625)" />
                <path
                   id="DejaVuSans-5f"
                   d="m 3263,-1063 v -446 H -63 v 446 z"
                   transform="scale(0.015625)" />
                <path
                   id="DejaVuSans-31"
                   d="M 794,531 H 1825 V 4091 L 703,3866 v 575 l 1116,225 h 631 V 531 H 3481 V 0 H 794 Z"
                   transform="scale(0.015625)" />
              </defs>
              <use
                 xlink:href="#DejaVuSans-50"
                 id="use202035" />
              <use
                 xlink:href="#DejaVuSans-6f"
                 x="56.677734"
                 id="use202037" />
              <use
                 xlink:href="#DejaVuSans-70"
                 x="117.85938"
                 id="use202039" />
              <use
                 xlink:href="#DejaVuSans-75"
                 x="181.33594"
                 id="use202041" />
              <use
                 xlink:href="#DejaVuSans-6c"
                 x="244.71484"
                 id="use202043" />
              <use
                 xlink:href="#DejaVuSans-61"
                 x="272.49805"
                 id="use202045" />
              <use
                 xlink:href="#DejaVuSans-74"
                 x="333.77734"
                 id="use202047" />
              <use
                 xlink:href="#DejaVuSans-69"
                 x="372.98633"
                 id="use202049" />
              <use
                 xlink:href="#DejaVuSans-6f"
                 x="400.76953"
                 id="use202051" />
              <use
                 xlink:href="#DejaVuSans-6e"
                 x="461.95117"
                 id="use202053" />
              <use
                 xlink:href="#DejaVuSans-31"
                 x="575.33008"
                 id="use202057" />
            </g>
          </g>
        </g>
        <g
           id="xtick_2"
           transform="translate(-43.5,-7.5)">
          <g
             id="line2d_2" />
          <g
             id="text_2">
            <!-- Population_2 -->
            <g
               transform="matrix(0.1,0,0,-0.1,228.57081,228.76219)"
               id="g202091">
              <defs
                 id="defs202065">
                <path
                   id="DejaVuSans-32"
                   d="M 1228,531 H 3431 V 0 H 469 v 531 q 359,372 979,998 621,627 780,809 303,340 423,576 121,236 121,464 0,372 -261,606 -261,235 -680,235 -297,0 -627,-103 -329,-103 -704,-313 v 638 q 381,153 712,231 332,78 607,78 725,0 1156,-363 431,-362 431,-968 0,-288 -108,-546 -107,-257 -392,-607 -78,-91 -497,-524 Q 1991,1309 1228,531 Z"
                   transform="scale(0.015625)" />
              </defs>
              <use
                 xlink:href="#DejaVuSans-50"
                 id="use202067" />
              <use
                 xlink:href="#DejaVuSans-6f"
                 x="56.677734"
                 id="use202069" />
              <use
                 xlink:href="#DejaVuSans-70"
                 x="117.85938"
                 id="use202071" />
              <use
                 xlink:href="#DejaVuSans-75"
                 x="181.33594"
                 id="use202073" />
              <use
                 xlink:href="#DejaVuSans-6c"
                 x="244.71484"
                 id="use202075" />
              <use
                 xlink:href="#DejaVuSans-61"
                 x="272.49805"
                 id="use202077" />
              <use
                 xlink:href="#DejaVuSans-74"
                 x="333.77734"
                 id="use202079" />
              <use
                 xlink:href="#DejaVuSans-69"
                 x="372.98633"
                 id="use202081" />
              <use
                 xlink:href="#DejaVuSans-6f"
                 x="400.76953"
                 id="use202083" />
              <use
                 xlink:href="#DejaVuSans-6e"
                 x="461.95117"
                 id="use202085" />
              <use
                 xlink:href="#DejaVuSans-32"
                 x="575.33008"
                 id="use202089" />
            </g>
          </g>
        </g>
      </g>
      <g
         id="matplotlib.axis_2"
         transform="translate(-43.5,-12)">
        <g
           id="ytick_1">
          <g
             id="line2d_3">
            <defs
               id="defs202097">
              <path
                 id="m24563ffbeb"
                 d="M 0,0 H -3.5"
                 style="stroke:#000000;stroke-width:0.8" />
            </defs>
            <g
               id="g202101">
              <use
                 xlink:href="#m24563ffbeb"
                 x="69.653122"
                 y="217.66376"
                 style="stroke:#000000;stroke-width:0.8"
                 id="use202099" />
            </g>
          </g>
          <g
             id="text_3">
            <!-- 0 -->
            <g
               transform="matrix(0.1,0,0,-0.1,56.290625,221.46297)"
               id="g202109">
              <defs
                 id="defs202105">
                <path
                   id="DejaVuSans-30"
                   d="m 2034,4250 q -487,0 -733,-480 -245,-479 -245,-1442 0,-959 245,-1439 246,-480 733,-480 491,0 736,480 246,480 246,1439 0,963 -246,1442 -245,480 -736,480 z m 0,500 q 785,0 1199,-621 414,-620 414,-1801 0,-1178 -414,-1799 -414,-620 -1199,-620 -784,0 -1198,620 -414,621 -414,1799 0,1181 414,1801 414,621 1198,621 z"
                   transform="scale(0.015625)" />
              </defs>
              <use
                 xlink:href="#DejaVuSans-30"
                 id="use202107" />
            </g>
          </g>
        </g>
        <g
           id="ytick_3">
          <g
             id="line2d_5">
            <g
               id="g202134">
              <use
                 xlink:href="#m24563ffbeb"
                 x="69.653122"
                 y="136.43794"
                 style="stroke:#000000;stroke-width:0.8"
                 id="use202132" />
            </g>
          </g>
        </g>
        <g
           id="ytick_5">
          <g
             id="line2d_7">
            <g
               id="g202178">
              <use
                 xlink:href="#m24563ffbeb"
                 x="69.653122"
                 y="55.212124"
                 style="stroke:#000000;stroke-width:0.8"
                 id="use202176" />
            </g>
          </g>
          <text
             xml:space="preserve"
             style="font-size:13px;font-family:Arial;-inkscape-font-specification:Arial;text-align:end;text-anchor:end;fill:#000000;fill-opacity:0.1;stroke:none;stroke-width:2;stroke-dasharray:8.00002, 2;stroke-opacity:1"
             x="62.275295"
             y="58.011253"
             id="text218283"><tspan
               sodipodi:role="line"
               id="tspan218281"
               style="font-style:normal;font-variant:normal;font-weight:bold;font-stretch:normal;font-size:13px;font-family:Arial;-inkscape-font-specification:'Arial Bold';fill:#000000;fill-opacity:1;stroke:none;stroke-width:2;stroke-opacity:1"
               x="62.275295"
               y="58.011253">T<tspan
   style="font-style:normal;font-variant:normal;font-weight:bold;font-stretch:normal;font-size:13px;font-family:Arial;-inkscape-font-specification:'Arial Bold';baseline-shift:sub"
   id="tspan218577">P</tspan></tspan></text>
          <text
             xml:space="preserve"
             style="font-size:13px;font-family:Arial;-inkscape-font-specification:Arial;text-align:end;text-anchor:end;fill:#000000;fill-opacity:0.1;stroke:none;stroke-width:2;stroke-linecap:butt;stroke-linejoin:round;stroke-dasharray:8.00002, 2;stroke-opacity:1"
             x="62.275295"
             y="139.01126"
             id="text218283-2"><tspan
               sodipodi:role="line"
               id="tspan218281-9"
               style="font-style:normal;font-variant:normal;font-weight:bold;font-stretch:normal;font-size:13px;font-family:Arial;-inkscape-font-specification:'Arial Bold';fill:#000000;fill-opacity:1;stroke:none;stroke-width:2;stroke-opacity:1"
               x="62.275295"
               y="139.01126">T</tspan></text>
          <text
             xml:space="preserve"
             style="font-size:13px;font-family:Arial;-inkscape-font-specification:Arial;text-align:end;text-anchor:end;fill:#000000;fill-opacity:1;stroke:none;stroke-width:2;stroke-dasharray:8.00002, 2;stroke-opacity:1"
             x="120.05046"
             y="33.492287"
             id="text218581"><tspan
               sodipodi:role="line"
               id="tspan218579"
               style="font-style:normal;font-variant:normal;font-weight:bold;font-stretch:normal;font-size:13px;font-family:Arial;-inkscape-font-specification:'Arial Bold';stroke-width:2"
               x="120.05046"
               y="33.492287">N<tspan
   style="font-style:normal;font-variant:normal;font-weight:bold;font-stretch:normal;font-size:13px;font-family:Arial;-inkscape-font-specification:'Arial Bold';baseline-shift:sub"
   id="tspan218583">ANC</tspan></tspan></text>
          <text
             xml:space="preserve"
             style="font-size:13px;font-family:Arial;-inkscape-font-specification:Arial;text-align:end;text-anchor:end;fill:#000000;fill-opacity:1;stroke:none;stroke-width:2;stroke-linecap:butt;stroke-linejoin:round;stroke-dasharray:8.00002, 2;stroke-opacity:1"
             x="115.55046"
             y="207.49228"
             id="text218581-7"><tspan
               sodipodi:role="line"
               id="tspan218579-8"
               style="font-style:normal;font-variant:normal;font-weight:bold;font-stretch:normal;font-size:13px;font-family:Arial;-inkscape-font-specification:'Arial Bold';stroke-width:2"
               x="115.55046"
               y="207.49228">N<tspan
   style="font-style:normal;font-variant:normal;font-weight:bold;font-stretch:normal;font-size:13px;font-family:Arial;-inkscape-font-specification:'Arial Bold';baseline-shift:sub"
   id="tspan219364">1F</tspan></tspan></text>
          <text
             xml:space="preserve"
             style="font-size:13px;font-family:Arial;-inkscape-font-specification:Arial;text-align:end;text-anchor:end;fill:#000000;fill-opacity:1;stroke:none;stroke-width:2;stroke-linecap:butt;stroke-linejoin:round;stroke-dasharray:8.00002, 2;stroke-opacity:1"
             x="301.55048"
             y="207.49228"
             id="text218581-7-5"><tspan
               sodipodi:role="line"
               id="tspan218579-8-0"
               style="font-style:normal;font-variant:normal;font-weight:bold;font-stretch:normal;font-size:13px;font-family:Arial;-inkscape-font-specification:'Arial Bold';stroke-width:2"
               x="301.55048"
               y="207.49228">N<tspan
   style="font-style:normal;font-variant:normal;font-weight:bold;font-stretch:normal;font-size:13px;font-family:Arial;-inkscape-font-specification:'Arial Bold';baseline-shift:sub"
   id="tspan221576">2F</tspan></tspan></text>
          <text
             xml:space="preserve"
             style="font-size:13px;font-family:Arial;-inkscape-font-specification:Arial;text-align:end;text-anchor:end;fill:#000000;fill-opacity:1;stroke:none;stroke-width:2;stroke-linecap:butt;stroke-linejoin:round;stroke-dasharray:8.00002, 2;stroke-opacity:1"
             x="289.63684"
             y="144.2946"
             id="text218581-7-5-6"><tspan
               sodipodi:role="line"
               id="tspan218579-8-0-1"
               style="font-style:normal;font-variant:normal;font-weight:bold;font-stretch:normal;font-size:13px;font-family:Arial;-inkscape-font-specification:'Arial Bold';stroke-width:2"
               x="289.63684"
               y="144.2946">N<tspan
   style="font-style:normal;font-variant:normal;font-weight:bold;font-stretch:normal;font-size:13px;font-family:Arial;-inkscape-font-specification:'Arial Bold';baseline-shift:sub"
   id="tspan221576-0">2B</tspan></tspan></text>
        </g>
      </g>
      <g
         id="patch_5"
         transform="translate(-43.5,-12)">
        <path
           d="m 124.54149,136.43794 1,0.0314 1,0.0369 1,0.0977 1,0.0325 1,0.0736 1,0.0386 1,0.0354 1,0.0576 1,0.0704 1,0.052 1,0.0591 1,0.0883 1,0.0461 1,0.0424 1,0.0305 1,0.026 1,0.0212 1,0.0543 1,0.0279 1,0.0297 1,0.0254 1,0.0112 1,0.0101 1,-2e-4 1,-0.01 1,-0.0117 1,-0.031 1,-0.0112 1,-0.0301 1,-0.0598 1,-0.0372 1,-0.0391 1,-0.0424 1,-0.0328 1,-0.0674 1,-0.0391 1,-0.0427 1,-0.0706 1,-0.0364 1,-0.0584 1,-0.11095 1,-0.0707 1,-0.11294 1,-0.0458 1,-0.0613 1,-0.0485 1,-0.0808 1,-0.11852 1,-0.0702 1,-0.0833 1,-0.0331 1,-0.0512 1,-0.0684 1,-0.0662 1,-0.0769 1,-0.0273 1,-0.0265 1,-0.0226 1,-0.0195 1,-0.0264 1,-0.0498 1,-0.0351 1,-0.0359 1,-0.0154 1,-0.0158 1,-0.003 1,-0.002 1,4.9e-4 1,0.002 1,0.0132 1,0.008 1,0.0215 1,0.023 1,0.0172 1,0.0185 1,0.0204 1,0.0166 1,0.0628 1,0.0753 1,0.0326 1,0.0676 1,0.0541 1,0.0337 1,0.0901 1,0.0285 1,0.0315 1,0.031 1,0.0548 1,0.0646 1,0.0382 1,0.0959 1,0.0493 1,0.0441 1,0.0401 1,0.10837 1,0.0416 1,0.0621 1,0.07 1,0.10451 1,0.037 1,0.0459 1,0.0685 1,0.0487 1,0.0776 1,0.0305 1,0.0695 1,0.024 1,0.0286 1,0.0418 1,0.0216 1,0.0139 1,0.0267 1,0.009 1,0.0125 1,0.011 1,0.006 1,0.005 1,-0.006 1,-0.0133 1,-0.008 1,-0.0248 1,-0.0236 1,-0.0362 1,-0.026 1,-0.0223 1,-0.0688 1,-0.0745 1,-0.094 1,-0.0511 1,-0.0539 1,-0.0353 1.04908,-0.10609"
           clip-path="url(#p6ac37f5caa)"
           style="fill:none;stroke:#ffffff;stroke-width:3;stroke-linecap:round"
           id="path202266" />
        <path
           d="m 124.54149,136.43794 1,0.0314 1,0.0369 1,0.0977 1,0.0325 1,0.0736 1,0.0386 1,0.0354 1,0.0576 1,0.0704 1,0.052 1,0.0591 1,0.0883 1,0.0461 1,0.0424 1,0.0305 1,0.026 1,0.0212 1,0.0543 1,0.0279 1,0.0297 1,0.0254 1,0.0112 1,0.0101 1,-2e-4 1,-0.01 1,-0.0117 1,-0.031 1,-0.0112 1,-0.0301 1,-0.0598 1,-0.0372 1,-0.0391 1,-0.0424 1,-0.0328 1,-0.0674 1,-0.0391 1,-0.0427 1,-0.0706 1,-0.0364 1,-0.0584 1,-0.11095 1,-0.0707 1,-0.11294 1,-0.0458 1,-0.0613 1,-0.0485 1,-0.0808 1,-0.11852 1,-0.0702 1,-0.0833 1,-0.0331 1,-0.0512 1,-0.0684 1,-0.0662 1,-0.0769 1,-0.0273 1,-0.0265 1,-0.0226 1,-0.0195 1,-0.0264 1,-0.0498 1,-0.0351 1,-0.0359 1,-0.0154 1,-0.0158 1,-0.003 1,-0.002 1,4.9e-4 1,0.002 1,0.0132 1,0.008 1,0.0215 1,0.023 1,0.0172 1,0.0185 1,0.0204 1,0.0166 1,0.0628 1,0.0753 1,0.0326 1,0.0676 1,0.0541 1,0.0337 1,0.0901 1,0.0285 1,0.0315 1,0.031 1,0.0548 1,0.0646 1,0.0382 1,0.0959 1,0.0493 1,0.0441 1,0.0401 1,0.10837 1,0.0416 1,0.0621 1,0.07 1,0.10451 1,0.037 1,0.0459 1,0.0685 1,0.0487 1,0.0776 1,0.0305 1,0.0695 1,0.024 1,0.0286 1,0.0418 1,0.0216 1,0.0139 1,0.0267 1,0.009 1,0.0125 1,0.011 1,0.006 1,0.005 1,-0.006 1,-0.0133 1,-0.008 1,-0.0248 1,-0.0236 1,-0.0362 1,-0.026 1,-0.0223 1,-0.0688 1,-0.0745 1,-0.094 1,-0.0511 1,-0.0539 1,-0.0353 1.04908,-0.10609"
           clip-path="url(#p6ac37f5caa)"
           style="fill:none;stroke:#1f77b4;stroke-linecap:round"
           id="path202268" />
        <path
           d="m 252.59057,134.43794 0.88037,0.47533 0.8779,0.48025 0.85072,0.53464 1.30217,0.68745 -0.92735,0.026 -0.91168,0.41271 -0.91026,0.41554 -1.3425,0.60681 0.6549,-0.63875 0.052,-1 0.0591,-2 z"
           clip-path="url(#p6ac37f5caa)"
           style="fill:#ffffff;stroke:#ffffff;stroke-width:3;stroke-linecap:round"
           id="path202270" />
        <path
           d="m 252.59057,134.43794 0.88037,0.47533 0.8779,0.48025 0.85072,0.53464 1.30217,0.68745 -0.92735,0.026 -0.91168,0.41271 -0.91026,0.41554 -1.3425,0.60681 0.6549,-0.63875 0.052,-1 0.0591,-2 z"
           clip-path="url(#p6ac37f5caa)"
           style="fill:#ffffff;stroke:#1f77b4;stroke-linecap:round"
           id="path202272" />
        <path
           d="m 246.23896,205.82274 -2,-1 v 2 z"
           clip-path="url(#p6ac37f5caa)"
           style="fill:#1f77b4;fill-opacity:0.5;stroke:#1f77b4;stroke-linejoin:miter;stroke-opacity:0.5"
           id="path202274" />
        <path
           d="m 257.76539,152.3865 -2,-1 v 2 z"
           clip-path="url(#p6ac37f5caa)"
           style="fill:#1f77b4;fill-opacity:0.5;stroke:#1f77b4;stroke-linejoin:miter;stroke-opacity:0.5"
           id="path202276" />
        <path
           d="m 256.88103,163.74534 -2,-1 v 2 z"
           clip-path="url(#p6ac37f5caa)"
           style="fill:#1f77b4;fill-opacity:0.5;stroke:#1f77b4;stroke-linejoin:miter;stroke-opacity:0.5"
           id="path202278" />
        <path
           d="m 243.38327,210.75617 -2,-1 v 2 z"
           clip-path="url(#p6ac37f5caa)"
           style="fill:#1f77b4;fill-opacity:0.5;stroke:#1f77b4;stroke-linejoin:miter;stroke-opacity:0.5"
           id="path202280" />
        <path
           d="m 257.30114,158.98395 -2,-1 v 2 z"
           clip-path="url(#p6ac37f5caa)"
           style="fill:#1f77b4;fill-opacity:0.5;stroke:#1f77b4;stroke-linejoin:miter;stroke-opacity:0.5"
           id="path202282" />
        <path
           d="m 252.93815,187.87554 -2,-1 v 2 z"
           clip-path="url(#p6ac37f5caa)"
           style="fill:#1f77b4;fill-opacity:0.5;stroke:#1f77b4;stroke-linejoin:miter;stroke-opacity:0.5"
           id="path202284" />
        <path
           d="m 258.31961,141.19861 -2,-1 v 2 z"
           clip-path="url(#p6ac37f5caa)"
           style="fill:#1f77b4;fill-opacity:0.5;stroke:#1f77b4;stroke-linejoin:miter;stroke-opacity:0.5"
           id="path202286" />
        <path
           d="m 255.66729,173.8934 -2,-1 v 2 z"
           clip-path="url(#p6ac37f5caa)"
           style="fill:#1f77b4;fill-opacity:0.5;stroke:#1f77b4;stroke-linejoin:miter;stroke-opacity:0.5"
           id="path202288" />
        <path
           d="m 247.11351,204.0936 -2,-1 v 2 z"
           clip-path="url(#p6ac37f5caa)"
           style="fill:#1f77b4;fill-opacity:0.5;stroke:#1f77b4;stroke-linejoin:miter;stroke-opacity:0.5"
           id="path202290" />
        <path
           d="m 258.39131,139.30195 -2,-1 v 2 z"
           clip-path="url(#p6ac37f5caa)"
           style="fill:#1f77b4;fill-opacity:0.5;stroke:#1f77b4;stroke-linejoin:miter;stroke-opacity:0.5"
           id="path202292" />
        <path
           d="m 123.76427,145.17058 2,1 v -2 z"
           clip-path="url(#p6ac37f5caa)"
           style="fill:#ff7f0e;fill-opacity:0.5;stroke:#ff7f0e;stroke-linejoin:miter;stroke-opacity:0.5"
           id="path202294" />
        <path
           d="m 123.76427,194.12261 2,1 v -2 z"
           clip-path="url(#p6ac37f5caa)"
           style="fill:#ff7f0e;fill-opacity:0.5;stroke:#ff7f0e;stroke-linejoin:miter;stroke-opacity:0.5"
           id="path202296" />
        <path
           d="m 123.76427,215.28391 2,1 v -2 z"
           clip-path="url(#p6ac37f5caa)"
           style="fill:#ff7f0e;fill-opacity:0.5;stroke:#ff7f0e;stroke-linejoin:miter;stroke-opacity:0.5"
           id="path202298" />
        <path
           d="m 123.76427,173.61206 2,1 v -2 z"
           clip-path="url(#p6ac37f5caa)"
           style="fill:#ff7f0e;fill-opacity:0.5;stroke:#ff7f0e;stroke-linejoin:miter;stroke-opacity:0.5"
           id="path202300" />
        <path
           d="m 123.76427,143.91606 2,1 v -2 z"
           clip-path="url(#p6ac37f5caa)"
           style="fill:#ff7f0e;fill-opacity:0.5;stroke:#ff7f0e;stroke-linejoin:miter;stroke-opacity:0.5"
           id="path202302" />
        <path
           d="m 123.76427,183.69933 2,1 v -2 z"
           clip-path="url(#p6ac37f5caa)"
           style="fill:#ff7f0e;fill-opacity:0.5;stroke:#ff7f0e;stroke-linejoin:miter;stroke-opacity:0.5"
           id="path202304" />
        <path
           d="m 123.76427,216.06965 2,1 v -2 z"
           clip-path="url(#p6ac37f5caa)"
           style="fill:#ff7f0e;fill-opacity:0.5;stroke:#ff7f0e;stroke-linejoin:miter;stroke-opacity:0.5"
           id="path202306" />
        <path
           d="m 123.76427,213.76941 2,1 v -2 z"
           clip-path="url(#p6ac37f5caa)"
           style="fill:#ff7f0e;fill-opacity:0.5;stroke:#ff7f0e;stroke-linejoin:miter;stroke-opacity:0.5"
           id="path202308" />
        <path
           d="m 123.76427,194.50243 2,1 v -2 z"
           clip-path="url(#p6ac37f5caa)"
           style="fill:#ff7f0e;fill-opacity:0.5;stroke:#ff7f0e;stroke-linejoin:miter;stroke-opacity:0.5"
           id="path202310" />
        <path
           d="m 123.76427,179.33012 2,1 v -2 z"
           clip-path="url(#p6ac37f5caa)"
           style="fill:#ff7f0e;fill-opacity:0.5;stroke:#ff7f0e;stroke-linejoin:miter;stroke-opacity:0.5"
           id="path202312" />
        <g
           id="patch_6">
          <path
             d="M 69.653125,217.66375 V 14.599219"
             style="fill:none;stroke:#000000;stroke-width:0.8;stroke-linecap:square;stroke-linejoin:miter"
             id="path202314" />
        </g>
      </g>
    </g>
    <defs
       id="defs202322">
      <clipPath
         id="p6ac37f5caa">
        <rect
           x="69.653122"
           y="14.599219"
           width="221.94687"
           height="203.06453"
           id="rect202319" />
      </clipPath>
    </defs>
  </g>
</svg>
