<svg version="1.1" viewBox="0.0 0.0 1604.0761154855643 824.0" fill="none" stroke="none" stroke-linecap="square" stroke-miterlimit="10" xmlns:xlink="http://www.w3.org/1999/xlink" xmlns="http://www.w3.org/2000/svg"><clipPath id="p.0"><path d="m0 0l1604.0762 0l0 824.0l-1604.0762 0l0 -824.0z" clip-rule="nonzero"/></clipPath><g clip-path="url(#p.0)"><path fill="#000000" fill-opacity="0.0" d="m0 0l1604.0762 0l0 824.0l-1604.0762 0z" fill-rule="evenodd"/><path fill="#000000" fill-opacity="0.0" d="m760.90027 315.01575l335.71655 0l0 132.0l-335.71655 0z" fill-rule="evenodd"/><path stroke="#000000" stroke-width="2.0" stroke-linejoin="round" stroke-linecap="butt" d="m760.90027 315.01575l335.71655 0l0 132.0l-335.71655 0z" fill-rule="evenodd"/><path fill="#000000" d="m858.7919 320.88574q4.703125 0 8.015625 2.65625q3.3125 2.640625 3.875 7.265625l-5.875 0q-0.390625 -2.171875 -2.15625 -3.5q-1.75 -1.328125 -3.875 -1.328125q-3.5625 0 -5.53125 2.59375q-1.96875 2.59375 -1.96875 6.875q0 4.09375 1.953125 6.671875q1.953125 2.5625 5.5625 2.5625q2.625 0 4.234375 -1.609375q1.625 -1.625 2.015625 -4.5625l5.890625 0q-0.53125 5.265625 -3.828125 8.28125q-3.296875 3.0 -8.3125 3.0q-3.984375 0 -7.09375 -1.8125q-3.109375 -1.828125 -4.796875 -5.140625q-1.6875 -3.328125 -1.6875 -7.390625q0 -6.359375 3.71875 -10.453125q3.71875 -4.109375 9.859375 -4.109375zm25.402466 7.734375q4.703125 0 7.53125 2.90625q2.828125 2.890625 2.828125 7.640625q0 4.78125 -2.859375 7.65625q-2.859375 2.859375 -7.5 2.859375q-4.640625 0 -7.484375 -2.890625q-2.84375 -2.890625 -2.84375 -7.625q0 -4.734375 2.796875 -7.640625q2.796875 -2.90625 7.53125 -2.90625zm-4.828125 10.546875q0 3.15625 1.28125 4.765625q1.296875 1.609375 3.546875 1.609375q2.34375 0 3.609375 -1.65625q1.265625 -1.671875 1.265625 -4.71875q0 -2.984375 -1.234375 -4.703125q-1.21875 -1.71875 -3.671875 -1.71875q-2.21875 0 -3.515625 1.609375q-1.28125 1.59375 -1.28125 4.8125zm30.253357 -10.546875q2.234375 0 3.6875 0.859375q1.453125 0.859375 2.140625 2.46875q1.140625 -1.609375 2.6875 -2.46875q1.546875 -0.859375 3.375 -0.859375q3.625 0 5.453125 1.859375q1.828125 1.84375 1.828125 5.109375l0 13.546875l-5.484375 0l0 -11.546875q0 -2.734375 -0.8125 -3.6875q-0.796875 -0.953125 -2.546875 -0.953125q-1.859375 0 -2.78125 1.25q-0.90625 1.234375 -0.90625 3.625l0 11.3125l-5.484375 0l0 -12.3125q0 -1.96875 -0.765625 -2.921875q-0.75 -0.953125 -2.546875 -0.953125q-1.5625 0 -2.640625 1.203125q-1.078125 1.203125 -1.078125 3.265625l0 11.71875l-5.484375 0l0 -19.984375l5.171875 0l0 2.71875l0.078125 0q1.15625 -1.640625 2.6875 -2.4375q1.546875 -0.8125 3.421875 -0.8125zm34.74774 0q4.25 0 6.65625 2.96875q2.421875 2.96875 2.421875 7.765625q0 4.4375 -2.375 7.390625q-2.375 2.9375 -6.40625 2.9375q-1.828125 0 -3.421875 -0.78125q-1.578125 -0.78125 -2.5625 -2.234375l-0.09375 0l0 9.515625l-5.46875 0l0 -27.03125l5.203125 0l0 2.546875l0.078125 0q0.984375 -1.5625 2.5 -2.3125q1.53125 -0.765625 3.46875 -0.765625zm-5.96875 10.59375q0 2.859375 1.21875 4.59375q1.234375 1.734375 3.578125 1.734375q2.28125 0 3.515625 -1.65625q1.25 -1.65625 1.25 -4.671875q0 -2.875 -1.234375 -4.671875q-1.21875 -1.796875 -3.609375 -1.796875q-2.265625 0 -3.5 1.703125q-1.21875 1.703125 -1.21875 4.765625zm27.503418 -10.59375q4.4375 0 6.59375 1.453125q2.171875 1.453125 2.171875 4.09375l0 10.71875q0 1.21875 0.15625 2.421875q0.15625 1.203125 0.53125 1.828125l-5.5625 0q-0.15625 -0.453125 -0.265625 -0.9375q-0.09375 -0.484375 -0.125 -0.96875q-1.15625 1.1875 -2.875 1.828125q-1.703125 0.625 -3.84375 0.625q-3.109375 0 -4.953125 -1.546875q-1.84375 -1.5625 -1.84375 -4.453125q0 -2.796875 1.734375 -4.28125q1.734375 -1.484375 6.328125 -1.984375q3.1875 -0.3125 4.203125 -0.78125q1.015625 -0.484375 1.015625 -1.671875q0 -1.34375 -0.78125 -2.015625q-0.78125 -0.671875 -2.75 -0.671875q-1.6875 0 -2.59375 0.734375q-0.90625 0.71875 -1.0625 2.296875l-5.5 0q0.234375 -3.296875 2.71875 -4.984375q2.484375 -1.703125 6.703125 -1.703125zm-4.546875 14.828125q0 1.1875 0.8125 1.875q0.8125 0.671875 2.5625 0.671875q2.1875 0 3.3125 -1.140625q1.125 -1.15625 1.125 -3.359375l0 -2.140625q-0.484375 0.40625 -1.296875 0.609375q-0.796875 0.1875 -2.890625 0.484375q-1.875 0.25 -2.75 0.984375q-0.875 0.71875 -0.875 2.015625zm29.212769 -14.828125q0.359375 0 0.65625 0.046875q0.3125 0.046875 0.578125 0.140625l0 5.09375q-0.46875 -0.09375 -0.921875 -0.140625q-0.4375 -0.046875 -1.046875 -0.046875q-2.765625 0 -4.109375 1.703125q-1.328125 1.6875 -1.328125 4.546875l0 9.171875l-5.46875 0l0 -19.984375l5.203125 0l0 3.71875l0.078125 0q0.875 -1.96875 2.59375 -3.109375q1.734375 -1.140625 3.765625 -1.140625zm12.335144 0q4.4375 0 7.078125 3.046875q2.65625 3.046875 2.65625 7.78125l-0.03125 1.03125l-14.421875 0q0.109375 2.578125 1.34375 3.828125q1.234375 1.234375 3.546875 1.234375q1.484375 0 2.75 -0.75q1.265625 -0.765625 1.609375 -1.84375l4.828125 0q-1.109375 3.390625 -3.4375 5.0625q-2.3125 1.671875 -5.921875 1.671875q-4.625 0 -7.421875 -2.921875q-2.796875 -2.921875 -2.796875 -7.59375q0 -4.46875 2.859375 -7.5q2.859375 -3.046875 7.359375 -3.046875zm-4.71875 8.375l8.921875 0q-0.390625 -2.203125 -1.421875 -3.21875q-1.03125 -1.03125 -2.96875 -1.03125q-2.0 0 -3.171875 1.140625q-1.171875 1.125 -1.359375 3.109375z" fill-rule="nonzero"/><path fill="#000000" d="m799.23175 374.62012q4.078125 0 6.296875 1.609375q2.21875 1.609375 2.53125 4.75l-5.234375 0q-0.109375 -1.421875 -1.0625 -2.0625q-0.9375 -0.640625 -2.703125 -0.640625q-1.578125 0 -2.3125 0.484375q-0.71875 0.46875 -0.71875 1.375q0 0.921875 0.953125 1.515625q0.953125 0.59375 3.84375 1.140625q4.609375 0.890625 6.171875 2.296875q1.578125 1.390625 1.578125 3.640625q0 3.40625 -2.484375 5.1875q-2.46875 1.765625 -6.625 1.765625q-4.15625 0 -6.703125 -1.765625q-2.53125 -1.765625 -2.703125 -5.28125l5.234375 0q0 1.59375 1.1875 2.484375q1.203125 0.875 3.015625 0.875q1.609375 0 2.609375 -0.6875q1.0 -0.6875 1.0 -1.859375q0 -1.03125 -1.3125 -1.6875q-1.296875 -0.671875 -4.765625 -1.390625q-3.4375 -0.671875 -4.96875 -1.9375q-1.53125 -1.265625 -1.53125 -3.421875q0 -3.171875 2.25 -4.78125q2.25 -1.609375 6.453125 -1.609375zm18.21576 -7.078125l0 4.515625l-5.484375 0l0 -4.515625l5.484375 0zm0 7.609375l0 19.984375l-5.484375 0l0 -19.984375l5.484375 0zm15.841064 -0.53125q2.234375 0 3.6875 0.859375q1.453125 0.859375 2.140625 2.46875q1.140625 -1.609375 2.6875 -2.46875q1.546875 -0.859375 3.375 -0.859375q3.625 0 5.453125 1.859375q1.828125 1.84375 1.828125 5.109375l0 13.546875l-5.484375 0l0 -11.546875q0 -2.734375 -0.8125 -3.6875q-0.796875 -0.953125 -2.546875 -0.953125q-1.859375 0 -2.78125 1.25q-0.90625 1.234375 -0.90625 3.625l0 11.3125l-5.484375 0l0 -12.3125q0 -1.96875 -0.765625 -2.921875q-0.75 -0.953125 -2.546875 -0.953125q-1.5625 0 -2.640625 1.203125q-1.078125 1.203125 -1.078125 3.265625l0 11.71875l-5.484375 0l0 -19.984375l5.171875 0l0 2.71875l0.078125 0q1.15625 -1.640625 2.6875 -2.4375q1.546875 -0.8125 3.421875 -0.8125zm28.966492 0.53125l0 11.453125q0 2.265625 0.796875 3.5q0.796875 1.234375 2.734375 1.234375q2.265625 0 3.25 -1.359375q1.0 -1.375 1.0 -4.171875l0 -10.65625l5.5 0l0 19.984375l-5.234375 0l0 -2.78125l-0.109375 0q-1.046875 1.671875 -2.6875 2.5q-1.640625 0.828125 -3.453125 0.828125q-3.71875 0 -5.5 -1.890625q-1.765625 -1.90625 -1.765625 -6.125l0 -12.515625l5.46875 0zm23.086243 -7.609375l0 27.59375l-5.484375 0l0 -27.59375l5.484375 0zm13.497314 7.078125q4.4375 0 6.59375 1.453125q2.171875 1.453125 2.171875 4.09375l0 10.71875q0 1.21875 0.15625 2.421875q0.15625 1.203125 0.53125 1.828125l-5.5625 0q-0.15625 -0.453125 -0.265625 -0.9375q-0.09375 -0.484375 -0.125 -0.96875q-1.15625 1.1875 -2.875 1.828125q-1.703125 0.625 -3.84375 0.625q-3.109375 0 -4.953125 -1.546875q-1.84375 -1.5625 -1.84375 -4.453125q0 -2.796875 1.734375 -4.28125q1.734375 -1.484375 6.328125 -1.984375q3.1875 -0.3125 4.203125 -0.78125q1.015625 -0.484375 1.015625 -1.671875q0 -1.34375 -0.78125 -2.015625q-0.78125 -0.671875 -2.75 -0.671875q-1.6875 0 -2.59375 0.734375q-0.90625 0.71875 -1.0625 2.296875l-5.5 0q0.234375 -3.296875 2.71875 -4.984375q2.484375 -1.703125 6.703125 -1.703125zm-4.546875 14.828125q0 1.1875 0.8125 1.875q0.8125 0.671875 2.5625 0.671875q2.1875 0 3.3125 -1.140625q1.125 -1.15625 1.125 -3.359375l0 -2.140625q-0.484375 0.40625 -1.296875 0.609375q-0.796875 0.1875 -2.890625 0.484375q-1.875 0.25 -2.75 0.984375q-0.875 0.71875 -0.875 2.015625zm24.525269 -20.28125l0 5.984375l4.015625 0l0 3.671875l-4.015625 0l0 10.03125q0 1.21875 0.453125 1.703125q0.46875 0.484375 1.859375 0.484375q0.46875 0 0.90625 -0.03125q0.4375 -0.046875 0.796875 -0.125l0 4.28125q-0.6875 0.125 -1.53125 0.15625q-0.828125 0.03125 -1.640625 0.03125q-3.5625 0 -4.953125 -1.203125q-1.390625 -1.21875 -1.390625 -3.40625l0 -11.921875l-3.328125 0l0 -3.671875l3.328125 0l0 -5.984375l5.5 0zm12.296448 -1.625l0 4.515625l-5.484375 0l0 -4.515625l5.484375 0zm0 7.609375l0 19.984375l-5.484375 0l0 -19.984375l5.484375 0zm14.028564 -0.53125q4.703125 0 7.53125 2.90625q2.828125 2.890625 2.828125 7.640625q0 4.78125 -2.859375 7.65625q-2.859375 2.859375 -7.5 2.859375q-4.640625 0 -7.484375 -2.890625q-2.84375 -2.890625 -2.84375 -7.625q0 -4.734375 2.796875 -7.640625q2.796875 -2.90625 7.53125 -2.90625zm-4.828125 10.546875q0 3.15625 1.28125 4.765625q1.296875 1.609375 3.546875 1.609375q2.34375 0 3.609375 -1.65625q1.265625 -1.671875 1.265625 -4.71875q0 -2.984375 -1.234375 -4.703125q-1.21875 -1.71875 -3.671875 -1.71875q-2.21875 0 -3.515625 1.609375q-1.28125 1.59375 -1.28125 4.8125zm30.190918 -10.546875q3.84375 0 5.5625 1.9375q1.734375 1.9375 1.734375 6.078125l0 12.5l-5.5 0l0 -11.453125q0 -2.34375 -0.8125 -3.53125q-0.796875 -1.203125 -2.703125 -1.203125q-2.28125 0 -3.28125 1.359375q-0.984375 1.34375 -0.984375 4.15625l0 10.671875l-5.46875 0l0 -19.984375l5.203125 0l0 2.796875l0.125 0q1.0 -1.609375 2.59375 -2.46875q1.609375 -0.859375 3.53125 -0.859375zm26.123108 0.53125l3.6875 13.5625l0.078125 0l3.3125 -13.5625l5.34375 0l3.40625 13.53125l0.0625 0l3.6875 -13.53125l5.640625 0l-6.3125 19.984375l-5.625 0l-3.5625 -13.421875l-0.09375 0l-3.390625 13.421875l-5.6875 0l-6.34375 -19.984375l5.796875 0zm33.183594 -7.609375l0 4.515625l-5.484375 0l0 -4.515625l5.484375 0zm0 7.609375l0 19.984375l-5.484375 0l0 -19.984375l5.484375 0zm11.278564 -5.984375l0 5.984375l4.015625 0l0 3.671875l-4.015625 0l0 10.03125q0 1.21875 0.453125 1.703125q0.46875 0.484375 1.859375 0.484375q0.46875 0 0.90625 -0.03125q0.4375 -0.046875 0.796875 -0.125l0 4.28125q-0.6875 0.125 -1.53125 0.15625q-0.828125 0.03125 -1.640625 0.03125q-3.5625 0 -4.953125 -1.203125q-1.390625 -1.21875 -1.390625 -3.40625l0 -11.921875l-3.328125 0l0 -3.671875l3.328125 0l0 -5.984375l5.5 0zm12.124512 -1.625l0 10.40625l0.140625 0q0.859375 -1.5 2.453125 -2.40625q1.609375 -0.921875 3.421875 -0.921875q3.8125 0 5.53125 1.953125q1.734375 1.9375 1.734375 6.0625l0 12.5l-5.5 0l0 -11.453125q0 -2.34375 -0.8125 -3.53125q-0.796875 -1.203125 -2.703125 -1.203125q-2.28125 0 -3.28125 1.359375q-0.984375 1.34375 -0.984375 4.15625l0 10.671875l-5.46875 0l0 -27.59375l5.46875 0z" fill-rule="nonzero"/><path fill="#000000" d="m909.5286 413.542l0 27.59375l-5.234375 0l0 -2.546875l-0.078125 0q-0.875 1.53125 -2.4375 2.3125q-1.5625 0.78125 -3.609375 0.78125q-4.109375 0 -6.546875 -3.0q-2.421875 -3.015625 -2.421875 -7.71875q0 -4.453125 2.390625 -7.390625q2.40625 -2.953125 6.453125 -2.953125q1.875 0 3.421875 0.765625q1.546875 0.75 2.484375 2.203125l0.078125 0l0 -10.046875l5.5 0zm-14.859375 17.578125q0 2.78125 1.296875 4.609375q1.3125 1.8125 3.53125 1.8125q2.28125 0 3.5 -1.6875q1.21875 -1.6875 1.21875 -4.765625q0 -2.921875 -1.1875 -4.625q-1.1875 -1.71875 -3.546875 -1.71875q-2.28125 0 -3.546875 1.71875q-1.265625 1.703125 -1.265625 4.65625zm28.159668 -10.5q4.4375 0 6.59375 1.453125q2.171875 1.453125 2.171875 4.09375l0 10.71875q0 1.21875 0.15625 2.421875q0.15625 1.203125 0.53125 1.828125l-5.5625 0q-0.15625 -0.453125 -0.265625 -0.9375q-0.09375 -0.484375 -0.125 -0.96875q-1.15625 1.1875 -2.875 1.828125q-1.703125 0.625 -3.84375 0.625q-3.109375 0 -4.953125 -1.546875q-1.84375 -1.5625 -1.84375 -4.453125q0 -2.796875 1.734375 -4.28125q1.734375 -1.484375 6.328125 -1.984375q3.1875 -0.3125 4.203125 -0.78125q1.015625 -0.484375 1.015625 -1.671875q0 -1.34375 -0.78125 -2.015625q-0.78125 -0.671875 -2.75 -0.671875q-1.6875 0 -2.59375 0.734375q-0.90625 0.71875 -1.0625 2.296875l-5.5 0q0.234375 -3.296875 2.71875 -4.984375q2.484375 -1.703125 6.703125 -1.703125zm-4.546875 14.828125q0 1.1875 0.8125 1.875q0.8125 0.671875 2.5625 0.671875q2.1875 0 3.3125 -1.140625q1.125 -1.15625 1.125 -3.359375l0 -2.140625q-0.484375 0.40625 -1.296875 0.609375q-0.796875 0.1875 -2.890625 0.484375q-1.875 0.25 -2.75 0.984375q-0.875 0.71875 -0.875 2.015625zm24.525269 -20.28125l0 5.984375l4.015625 0l0 3.671875l-4.015625 0l0 10.03125q0 1.21875 0.453125 1.703125q0.46875 0.484375 1.859375 0.484375q0.46875 0 0.90625 -0.03125q0.4375 -0.046875 0.796875 -0.125l0 4.28125q-0.6875 0.125 -1.53125 0.15625q-0.828125 0.03125 -1.640625 0.03125q-3.5625 0 -4.953125 -1.203125q-1.390625 -1.21875 -1.390625 -3.40625l0 -11.921875l-3.328125 0l0 -3.671875l3.328125 0l0 -5.984375l5.5 0zm15.827698 5.453125q4.4375 0 6.59375 1.453125q2.171875 1.453125 2.171875 4.09375l0 10.71875q0 1.21875 0.15625 2.421875q0.15625 1.203125 0.53125 1.828125l-5.5625 0q-0.15625 -0.453125 -0.265625 -0.9375q-0.09375 -0.484375 -0.125 -0.96875q-1.15625 1.1875 -2.875 1.828125q-1.703125 0.625 -3.84375 0.625q-3.109375 0 -4.953125 -1.546875q-1.84375 -1.5625 -1.84375 -4.453125q0 -2.796875 1.734375 -4.28125q1.734375 -1.484375 6.328125 -1.984375q3.1875 -0.3125 4.203125 -0.78125q1.015625 -0.484375 1.015625 -1.671875q0 -1.34375 -0.78125 -2.015625q-0.78125 -0.671875 -2.75 -0.671875q-1.6875 0 -2.59375 0.734375q-0.90625 0.71875 -1.0625 2.296875l-5.5 0q0.234375 -3.296875 2.71875 -4.984375q2.484375 -1.703125 6.703125 -1.703125zm-4.546875 14.828125q0 1.1875 0.8125 1.875q0.8125 0.671875 2.5625 0.671875q2.1875 0 3.3125 -1.140625q1.125 -1.15625 1.125 -3.359375l0 -2.140625q-0.484375 0.40625 -1.296875 0.609375q-0.796875 0.1875 -2.890625 0.484375q-1.875 0.25 -2.75 0.984375q-0.875 0.71875 -0.875 2.015625z" fill-rule="nonzero"/><path fill="#000000" fill-opacity="0.0" d="m827.105 127.144356c64.48822 0 128.97638 94.42519 128.97638 188.8504" fill-rule="evenodd"/><path stroke="#000000" stroke-width="4.0" stroke-linejoin="round" stroke-linecap="butt" d="m827.105 127.144356c32.24408 0 64.48822 23.6063 88.671265 59.015755c12.091553 17.704712 22.167847 38.36023 29.221191 60.491135c3.5266724 11.06546 6.2976685 22.499756 8.187012 34.11847c0.47229004 2.9046936 0.88952637 5.8208923 1.2496948 8.745758c0.090026855 0.7312012 0.17651367 1.4629517 0.25933838 2.195221l0.035705566 0.32217407" fill-rule="evenodd"/><path fill="#000000" stroke="#000000" stroke-width="4.0" stroke-linecap="butt" d="m948.13275 292.40512l7.6191406 17.751312l5.5737305 -18.495789z" fill-rule="evenodd"/><path fill="#000000" fill-opacity="0.0" d="m619.24677 447.4252c0 -33.19687 70.81885 -66.39371 141.63776 -66.39371" fill-rule="evenodd"/><path stroke="#000000" stroke-width="4.0" stroke-linejoin="round" stroke-linecap="butt" d="m619.2467 447.4252c0 -16.59842 17.704712 -33.19687 44.26184 -45.64566c13.278503 -6.2244263 28.770142 -11.411438 45.368347 -15.042328c8.299133 -1.8154602 16.874817 -3.2418823 25.588806 -4.214447c0.5446167 -0.060791016 1.0898438 -0.11981201 1.635498 -0.17700195l0.81500244 -0.082733154" fill-rule="evenodd"/><path fill="#000000" stroke="#000000" stroke-width="4.0" stroke-linecap="butt" d="m737.2552 388.86127l17.789429 -7.5296936l-18.46753 -5.6667786z" fill-rule="evenodd"/></g></svg>