<svg version="1.1" viewBox="0.0 0.0 1604.0761154855643 824.0" fill="none" stroke="none" stroke-linecap="square" stroke-miterlimit="10" xmlns:xlink="http://www.w3.org/1999/xlink" xmlns="http://www.w3.org/2000/svg"><clipPath id="p.0"><path d="m0 0l1604.0762 0l0 824.0l-1604.0762 0l0 -824.0z" clip-rule="nonzero"/></clipPath><g clip-path="url(#p.0)"><path fill="#000000" fill-opacity="0.0" d="m0 0l1604.0762 0l0 824.0l-1604.0762 0z" fill-rule="evenodd"/><defs><linearGradient id="p.1" gradientUnits="userSpaceOnUse" gradientTransform="matrix(0.0 -10.330004332136106 10.330004332136106 0.0 0.0 0.0)" spreadMethod="pad" x1="-41.54919962020358" y1="121.66273453471682" x2="-41.54923535053595" y2="131.99273886679111"><stop offset="0.0" stop-color="#17becf" stop-opacity="0.0"/><stop offset="1.0" stop-color="#17becf"/></linearGradient></defs><path fill="url(#p.1)" d="m1256.7769 429.2034l0 -91.590546l106.70874 0l0 91.590546z" fill-rule="evenodd"/><path fill="#17becf" d="m1363.4751 519.6417l0 -91.590546l150.48816 0l0 91.590546z" fill-rule="evenodd"/><path fill="#17becf" d="m1363.4751 341.28217l0 -43.24411l150.48816 0l0 43.24411z" fill-rule="evenodd"/><path fill="#000000" fill-opacity="0.0" d="m1409.3071 340.08792l0 85.921265" fill-rule="evenodd"/><path stroke="#000000" stroke-width="3.0" stroke-linejoin="round" stroke-linecap="butt" d="m1409.3071 340.08792l0 67.921265" fill-rule="evenodd"/><path fill="#000000" stroke="#000000" stroke-width="3.0" stroke-linecap="butt" d="m1404.3519 408.0092l4.9552 13.614288l4.9552 -13.614288z" fill-rule="evenodd"/><path fill="#000000" fill-opacity="0.0" d="m1465.3071 342.13406l0 85.921265" fill-rule="evenodd"/><path stroke="#000000" stroke-width="3.0" stroke-linejoin="round" stroke-linecap="butt" d="m1465.3071 360.13406l0 67.921265" fill-rule="evenodd"/><path fill="#000000" stroke="#000000" stroke-width="3.0" stroke-linecap="butt" d="m1470.2623 360.13406l-4.9552 -13.614288l-4.9552 13.614288z" fill-rule="evenodd"/><path fill="#000000" fill-opacity="0.0" d="m1256.2047 349.6299l116.0 0l0 56.566925l-116.0 0z" fill-rule="evenodd"/><path fill="#000000" d="m1276.6266 388.06992l-2.6875 0l0 -17.171875q-0.984375 0.9375 -2.5625 1.859375q-1.578125 0.921875 -2.828125 1.390625l0 -2.609375q2.25 -1.0625 3.9375 -2.5625q1.703125 -1.515625 2.40625 -2.9375l1.734375 0l0 22.03125zm6.8933105 -10.828125q0 -3.890625 0.796875 -6.25q0.8125 -2.375 2.390625 -3.65625q1.578125 -1.296875 3.96875 -1.296875q1.765625 0 3.09375 0.71875q1.34375 0.703125 2.203125 2.046875q0.875 1.328125 1.359375 3.265625q0.5 1.921875 0.5 5.171875q0 3.875 -0.796875 6.25q-0.78125 2.359375 -2.359375 3.65625q-1.578125 1.296875 -4.0 1.296875q-3.171875 0 -4.984375 -2.28125q-2.171875 -2.734375 -2.171875 -8.921875zm2.78125 0q0 5.40625 1.265625 7.203125q1.265625 1.78125 3.109375 1.78125q1.859375 0 3.125 -1.796875q1.265625 -1.796875 1.265625 -7.1875q0 -5.40625 -1.265625 -7.1875q-1.265625 -1.78125 -3.15625 -1.78125q-1.84375 0 -2.953125 1.5625q-1.390625 2.015625 -1.390625 7.40625zm15.721436 10.828125l0 -3.0625l3.078125 0l0 3.0625q0 1.6875 -0.609375 2.71875q-0.59375 1.046875 -1.890625 1.625l-0.75 -1.15625q0.84375 -0.375 1.25 -1.109375q0.40625 -0.71875 0.453125 -2.078125l-1.53125 0zm7.064087 -10.828125q0 -3.890625 0.796875 -6.25q0.8125 -2.375 2.390625 -3.65625q1.578125 -1.296875 3.96875 -1.296875q1.765625 0 3.09375 0.71875q1.34375 0.703125 2.203125 2.046875q0.875 1.328125 1.359375 3.265625q0.5 1.921875 0.5 5.171875q0 3.875 -0.796875 6.25q-0.78125 2.359375 -2.359375 3.65625q-1.578125 1.296875 -4.0 1.296875q-3.171875 0 -4.984375 -2.28125q-2.171875 -2.734375 -2.171875 -8.921875zm2.78125 0q0 5.40625 1.265625 7.203125q1.265625 1.78125 3.109375 1.78125q1.859375 0 3.125 -1.796875q1.265625 -1.796875 1.265625 -7.1875q0 -5.40625 -1.265625 -7.1875q-1.265625 -1.78125 -3.15625 -1.78125q-1.84375 0 -2.953125 1.5625q-1.390625 2.015625 -1.390625 7.40625zm14.268311 0q0 -3.890625 0.796875 -6.25q0.8125 -2.375 2.390625 -3.65625q1.578125 -1.296875 3.96875 -1.296875q1.765625 0 3.09375 0.71875q1.34375 0.703125 2.203125 2.046875q0.875 1.328125 1.359375 3.265625q0.5 1.921875 0.5 5.171875q0 3.875 -0.796875 6.25q-0.78125 2.359375 -2.359375 3.65625q-1.578125 1.296875 -4.0 1.296875q-3.171875 0 -4.984375 -2.28125q-2.171875 -2.734375 -2.171875 -8.921875zm2.78125 0q0 5.40625 1.265625 7.203125q1.265625 1.78125 3.109375 1.78125q1.859375 0 3.125 -1.796875q1.265625 -1.796875 1.265625 -7.1875q0 -5.40625 -1.265625 -7.1875q-1.265625 -1.78125 -3.15625 -1.78125q-1.84375 0 -2.953125 1.5625q-1.390625 2.015625 -1.390625 7.40625zm14.268311 0q0 -3.890625 0.796875 -6.25q0.8125 -2.375 2.390625 -3.65625q1.578125 -1.296875 3.96875 -1.296875q1.765625 0 3.09375 0.71875q1.34375 0.703125 2.203125 2.046875q0.875 1.328125 1.359375 3.265625q0.5 1.921875 0.5 5.171875q0 3.875 -0.796875 6.25q-0.78125 2.359375 -2.359375 3.65625q-1.578125 1.296875 -4.0 1.296875q-3.171875 0 -4.984375 -2.28125q-2.171875 -2.734375 -2.171875 -8.921875zm2.78125 0q0 5.40625 1.265625 7.203125q1.265625 1.78125 3.109375 1.78125q1.859375 0 3.125 -1.796875q1.265625 -1.796875 1.265625 -7.1875q0 -5.40625 -1.265625 -7.1875q-1.265625 -1.78125 -3.15625 -1.78125q-1.84375 0 -2.953125 1.5625q-1.390625 2.015625 -1.390625 7.40625z" fill-rule="nonzero"/><path fill="#000000" fill-opacity="0.0" d="m1363.4751 450.79156l150.48816 0l0 46.86612l-150.48816 0z" fill-rule="evenodd"/><path fill="#000000" d="m1403.2585 481.26462l-2.6875 0l0 -17.171875q-0.984375 0.9375 -2.5625 1.859375q-1.578125 0.921875 -2.828125 1.390625l0 -2.609375q2.25 -1.0625 3.9375 -2.5625q1.703125 -1.515625 2.40625 -2.9375l1.734375 0l0 22.03125zm6.8933105 -10.828125q0 -3.890625 0.796875 -6.25q0.8125 -2.375 2.390625 -3.65625q1.578125 -1.296875 3.96875 -1.296875q1.765625 0 3.09375 0.71875q1.34375 0.703125 2.203125 2.046875q0.875 1.328125 1.359375 3.265625q0.5 1.921875 0.5 5.171875q0 3.875 -0.796875 6.25q-0.78125 2.359375 -2.359375 3.65625q-1.578125 1.296875 -4.0 1.296875q-3.171875 0 -4.984375 -2.28125q-2.171875 -2.734375 -2.171875 -8.921875zm2.78125 0q0 5.40625 1.265625 7.203125q1.265625 1.78125 3.109375 1.78125q1.859375 0 3.125 -1.796875q1.265625 -1.796875 1.265625 -7.1875q0 -5.40625 -1.265625 -7.1875q-1.265625 -1.78125 -3.15625 -1.78125q-1.84375 0 -2.953125 1.5625q-1.390625 2.015625 -1.390625 7.40625zm15.721436 10.828125l0 -3.0625l3.078125 0l0 3.0625q0 1.6875 -0.609375 2.71875q-0.59375 1.046875 -1.890625 1.625l-0.75 -1.15625q0.84375 -0.375 1.25 -1.109375q0.40625 -0.71875 0.453125 -2.078125l-1.53125 0zm7.064087 -10.828125q0 -3.890625 0.796875 -6.25q0.8125 -2.375 2.390625 -3.65625q1.578125 -1.296875 3.96875 -1.296875q1.765625 0 3.09375 0.71875q1.34375 0.703125 2.203125 2.046875q0.875 1.328125 1.359375 3.265625q0.5 1.921875 0.5 5.171875q0 3.875 -0.796875 6.25q-0.78125 2.359375 -2.359375 3.65625q-1.578125 1.296875 -4.0 1.296875q-3.171875 0 -4.984375 -2.28125q-2.171875 -2.734375 -2.171875 -8.921875zm2.78125 0q0 5.40625 1.265625 7.203125q1.265625 1.78125 3.109375 1.78125q1.859375 0 3.125 -1.796875q1.265625 -1.796875 1.265625 -7.1875q0 -5.40625 -1.265625 -7.1875q-1.265625 -1.78125 -3.15625 -1.78125q-1.84375 0 -2.953125 1.5625q-1.390625 2.015625 -1.390625 7.40625zm14.268311 0q0 -3.890625 0.796875 -6.25q0.8125 -2.375 2.390625 -3.65625q1.578125 -1.296875 3.96875 -1.296875q1.765625 0 3.09375 0.71875q1.34375 0.703125 2.203125 2.046875q0.875 1.328125 1.359375 3.265625q0.5 1.921875 0.5 5.171875q0 3.875 -0.796875 6.25q-0.78125 2.359375 -2.359375 3.65625q-1.578125 1.296875 -4.0 1.296875q-3.171875 0 -4.984375 -2.28125q-2.171875 -2.734375 -2.171875 -8.921875zm2.78125 0q0 5.40625 1.265625 7.203125q1.265625 1.78125 3.109375 1.78125q1.859375 0 3.125 -1.796875q1.265625 -1.796875 1.265625 -7.1875q0 -5.40625 -1.265625 -7.1875q-1.265625 -1.78125 -3.15625 -1.78125q-1.84375 0 -2.953125 1.5625q-1.390625 2.015625 -1.390625 7.40625zm14.268311 0q0 -3.890625 0.796875 -6.25q0.8125 -2.375 2.390625 -3.65625q1.578125 -1.296875 3.96875 -1.296875q1.765625 0 3.09375 0.71875q1.34375 0.703125 2.203125 2.046875q0.875 1.328125 1.359375 3.265625q0.5 1.921875 0.5 5.171875q0 3.875 -0.796875 6.25q-0.78125 2.359375 -2.359375 3.65625q-1.578125 1.296875 -4.0 1.296875q-3.171875 0 -4.984375 -2.28125q-2.171875 -2.734375 -2.171875 -8.921875zm2.78125 0q0 5.40625 1.265625 7.203125q1.265625 1.78125 3.109375 1.78125q1.859375 0 3.125 -1.796875q1.265625 -1.796875 1.265625 -7.1875q0 -5.40625 -1.265625 -7.1875q-1.265625 -1.78125 -3.15625 -1.78125q-1.84375 0 -2.953125 1.5625q-1.390625 2.015625 -1.390625 7.40625z" fill-rule="nonzero"/><path fill="#000000" fill-opacity="0.0" d="m1379.2598 289.22046l128.97644 0l0 56.566956l-128.97644 0z" fill-rule="evenodd"/><path fill="#000000" d="m1406.6559 321.91046l2.828125 -0.234375q0.328125 2.0625 1.46875 3.109375q1.140625 1.03125 2.765625 1.03125q1.9375 0 3.28125 -1.46875q1.359375 -1.46875 1.359375 -3.890625q0 -2.296875 -1.296875 -3.625q-1.296875 -1.34375 -3.390625 -1.34375q-1.3125 0 -2.359375 0.59375q-1.046875 0.59375 -1.640625 1.53125l-2.53125 -0.328125l2.125 -11.265625l10.921875 0l0 2.5625l-8.765625 0l-1.1875 5.90625q1.984375 -1.375 4.15625 -1.375q2.875 0 4.84375 2.0q1.984375 1.984375 1.984375 5.109375q0 2.984375 -1.75 5.140625q-2.109375 2.671875 -5.75 2.671875q-3.0 0 -4.890625 -1.671875q-1.890625 -1.6875 -2.171875 -4.453125zm18.502686 5.75l0 -3.0625l3.078125 0l0 3.0625q0 1.6875 -0.609375 2.71875q-0.59375 1.046875 -1.890625 1.625l-0.75 -1.15625q0.84375 -0.375 1.25 -1.109375q0.40625 -0.71875 0.453125 -2.078125l-1.53125 0zm7.064209 -10.828125q0 -3.890625 0.796875 -6.25q0.8125 -2.375 2.390625 -3.65625q1.578125 -1.296875 3.96875 -1.296875q1.765625 0 3.09375 0.71875q1.34375 0.703125 2.203125 2.046875q0.875 1.328125 1.359375 3.265625q0.5 1.921875 0.5 5.171875q0 3.875 -0.796875 6.25q-0.78125 2.359375 -2.359375 3.65625q-1.578125 1.296875 -4.0 1.296875q-3.171875 0 -4.984375 -2.28125q-2.171875 -2.734375 -2.171875 -8.921875zm2.78125 0q0 5.40625 1.265625 7.203125q1.265625 1.78125 3.109375 1.78125q1.859375 0 3.125 -1.796875q1.265625 -1.796875 1.265625 -7.1875q0 -5.40625 -1.265625 -7.1875q-1.265625 -1.78125 -3.15625 -1.78125q-1.84375 0 -2.953125 1.5625q-1.390625 2.015625 -1.390625 7.40625zm14.268311 0q0 -3.890625 0.796875 -6.25q0.8125 -2.375 2.390625 -3.65625q1.578125 -1.296875 3.96875 -1.296875q1.765625 0 3.09375 0.71875q1.34375 0.703125 2.203125 2.046875q0.875 1.328125 1.359375 3.265625q0.5 1.921875 0.5 5.171875q0 3.875 -0.796875 6.25q-0.78125 2.359375 -2.359375 3.65625q-1.578125 1.296875 -4.0 1.296875q-3.171875 0 -4.984375 -2.28125q-2.171875 -2.734375 -2.171875 -8.921875zm2.78125 0q0 5.40625 1.265625 7.203125q1.265625 1.78125 3.109375 1.78125q1.859375 0 3.125 -1.796875q1.265625 -1.796875 1.265625 -7.1875q0 -5.40625 -1.265625 -7.1875q-1.265625 -1.78125 -3.15625 -1.78125q-1.84375 0 -2.953125 1.5625q-1.390625 2.015625 -1.390625 7.40625zm14.268188 0q0 -3.890625 0.796875 -6.25q0.8125 -2.375 2.390625 -3.65625q1.578125 -1.296875 3.96875 -1.296875q1.765625 0 3.09375 0.71875q1.34375 0.703125 2.203125 2.046875q0.875 1.328125 1.359375 3.265625q0.5 1.921875 0.5 5.171875q0 3.875 -0.796875 6.25q-0.78125 2.359375 -2.359375 3.65625q-1.578125 1.296875 -4.0 1.296875q-3.171875 0 -4.984375 -2.28125q-2.171875 -2.734375 -2.171875 -8.921875zm2.78125 0q0 5.40625 1.265625 7.203125q1.265625 1.78125 3.109375 1.78125q1.859375 0 3.125 -1.796875q1.265625 -1.796875 1.265625 -7.1875q0 -5.40625 -1.265625 -7.1875q-1.265625 -1.78125 -3.15625 -1.78125q-1.84375 0 -2.953125 1.5625q-1.390625 2.015625 -1.390625 7.40625z" fill-rule="nonzero"/><path fill="#000000" fill-opacity="0.0" d="m1403.6693 358.9259l86.92908 0l0 56.566925l-86.92908 0z" fill-rule="evenodd"/><path fill="#000000" d="m1424.0912 397.3659l-2.6875 0l0 -17.171875q-0.984375 0.9375 -2.5625 1.859375q-1.578125 0.921875 -2.828125 1.390625l0 -2.609375q2.25 -1.0625 3.9375 -2.5625q1.703125 -1.515625 2.40625 -2.9375l1.734375 0l0 22.03125z" fill-rule="nonzero"/><path fill="#000000" fill-opacity="0.0" d="m1459.6693 358.9259l86.92908 0l0 56.566925l-86.92908 0z" fill-rule="evenodd"/><path fill="#000000" d="m1469.9349 391.6159l2.828125 -0.234375q0.328125 2.0625 1.46875 3.109375q1.140625 1.03125 2.765625 1.03125q1.9375 0 3.28125 -1.46875q1.359375 -1.46875 1.359375 -3.890625q0 -2.296875 -1.296875 -3.625q-1.296875 -1.34375 -3.390625 -1.34375q-1.3125 0 -2.359375 0.59375q-1.046875 0.59375 -1.640625 1.53125l-2.53125 -0.328125l2.125 -11.265625l10.921875 0l0 2.5625l-8.765625 0l-1.1875 5.90625q1.984375 -1.375 4.15625 -1.375q2.875 0 4.84375 2.0q1.984375 1.984375 1.984375 5.109375q0 2.984375 -1.75 5.140625q-2.109375 2.671875 -5.75 2.671875q-3.0 0 -4.890625 -1.671875q-1.890625 -1.6875 -2.171875 -4.453125z" fill-rule="nonzero"/><path fill="#000000" fill-opacity="0.0" d="m1362.1707 535.2297l150.48816 0" fill-rule="evenodd"/><path stroke="#000000" stroke-width="3.0" stroke-linejoin="round" stroke-linecap="butt" d="m1380.1707 535.2297l114.48816 0" fill-rule="evenodd"/><path fill="#000000" stroke="#000000" stroke-width="3.0" stroke-linecap="butt" d="m1380.1707 530.2745l-13.61438 4.9552l13.61438 4.9552z" fill-rule="evenodd"/><path fill="#000000" stroke="#000000" stroke-width="3.0" stroke-linecap="butt" d="m1494.6588 540.1849l13.614258 -4.9552l-13.614258 -4.9552z" fill-rule="evenodd"/><path fill="#000000" fill-opacity="0.0" d="m1385.231 525.62994l210.8346 0l0 56.566895l-210.8346 0z" fill-rule="evenodd"/><path fill="#000000" d="m1409.6685 561.4762l0 2.59375l-14.515625 0q-0.03125 -0.96875 0.328125 -1.875q0.546875 -1.484375 1.765625 -2.921875q1.21875 -1.4375 3.53125 -3.3125q3.578125 -2.9375 4.828125 -4.640625q1.265625 -1.71875 1.265625 -3.25q0 -1.609375 -1.15625 -2.703125q-1.140625 -1.09375 -2.984375 -1.09375q-1.9375 0 -3.109375 1.171875q-1.171875 1.15625 -1.1875 3.21875l-2.765625 -0.28125q0.28125 -3.09375 2.140625 -4.71875q1.859375 -1.625 4.984375 -1.625q3.15625 0 5.0 1.75q1.84375 1.75 1.84375 4.34375q0 1.3125 -0.546875 2.59375q-0.53125 1.265625 -1.78125 2.671875q-1.25 1.40625 -4.15625 3.859375q-2.421875 2.03125 -3.109375 2.765625q-0.6875 0.71875 -1.140625 1.453125l10.765625 0zm13.033936 2.59375l-2.6875 0l0 -17.171875q-0.984375 0.9375 -2.5625 1.859375q-1.578125 0.921875 -2.828125 1.390625l0 -2.609375q2.25 -1.0625 3.9375 -2.5625q1.703125 -1.515625 2.40625 -2.9375l1.734375 0l0 22.03125zm16.176147 0l0 -21.9375l2.703125 0l0 12.5l6.375 -6.453125l3.484375 0l-6.078125 5.890625l6.6875 10.0l-3.3125 0l-5.265625 -8.125l-1.890625 1.828125l0 6.296875l-2.703125 0zm15.203125 6.125l-0.296875 -2.53125q0.875 0.234375 1.53125 0.234375q0.90625 0 1.4375 -0.296875q0.546875 -0.296875 0.890625 -0.84375q0.25 -0.390625 0.8125 -2.0q0.078125 -0.21875 0.25 -0.65625l-6.03125 -15.921875l2.890625 0l3.3125 9.203125q0.640625 1.75 1.15625 3.671875q0.46875 -1.84375 1.109375 -3.609375l3.390625 -9.265625l2.703125 0l-6.046875 16.15625q-0.984375 2.625 -1.515625 3.609375q-0.71875 1.328125 -1.65625 1.953125q-0.921875 0.625 -2.203125 0.625q-0.78125 0 -1.734375 -0.328125zm25.8125 -8.078125q-1.5 1.265625 -2.890625 1.796875q-1.375 0.515625 -2.953125 0.515625q-2.625 0 -4.03125 -1.28125q-1.40625 -1.28125 -1.40625 -3.265625q0 -1.171875 0.53125 -2.140625q0.53125 -0.96875 1.390625 -1.546875q0.859375 -0.578125 1.9375 -0.875q0.796875 -0.21875 2.390625 -0.40625q3.265625 -0.390625 4.8125 -0.9375q0.015625 -0.546875 0.015625 -0.703125q0 -1.640625 -0.765625 -2.3125q-1.03125 -0.921875 -3.0625 -0.921875q-1.90625 0 -2.8125 0.671875q-0.90625 0.671875 -1.34375 2.359375l-2.625 -0.359375q0.359375 -1.6875 1.171875 -2.734375q0.828125 -1.046875 2.375 -1.59375q1.5625 -0.5625 3.609375 -0.5625q2.046875 0 3.3125 0.484375q1.28125 0.46875 1.875 1.203125q0.59375 0.71875 0.84375 1.828125q0.125 0.6875 0.125 2.484375l0 3.59375q0 3.75 0.171875 4.75q0.171875 1.0 0.6875 1.90625l-2.8125 0q-0.421875 -0.84375 -0.546875 -1.953125zm-0.21875 -6.03125q-1.46875 0.609375 -4.40625 1.03125q-1.65625 0.234375 -2.34375 0.53125q-0.6875 0.296875 -1.0625 0.875q-0.375 0.578125 -0.375 1.28125q0 1.078125 0.8125 1.796875q0.8125 0.71875 2.390625 0.71875q1.546875 0 2.765625 -0.671875q1.21875 -0.6875 1.78125 -1.875q0.4375 -0.90625 0.4375 -2.6875l0 -1.0z" fill-rule="nonzero"/><path fill="#000000" fill-opacity="0.0" d="m1505.874 445.0198l106.70862 0l0 51.716553l-106.70862 0z" fill-rule="evenodd"/><path fill="#000000" d="m1526.4607 479.6198l0 -19.078125l7.1875 0q1.90625 0 2.90625 0.171875q1.40625 0.234375 2.359375 0.90625q0.953125 0.65625 1.53125 1.84375q0.578125 1.171875 0.578125 2.59375q0 2.4375 -1.5625 4.125q-1.546875 1.6875 -5.59375 1.6875l-4.890625 0l0 7.75l-2.515625 0zm2.515625 -10.015625l4.9375 0q2.453125 0 3.46875 -0.90625q1.03125 -0.90625 1.03125 -2.5625q0 -1.203125 -0.609375 -2.046875q-0.59375 -0.859375 -1.59375 -1.125q-0.625 -0.171875 -2.34375 -0.171875l-4.890625 0l0 6.8125zm14.092041 3.109375q0 -3.84375 2.125 -5.6875q1.78125 -1.546875 4.34375 -1.546875q2.859375 0 4.65625 1.875q1.8125 1.859375 1.8125 5.15625q0 2.671875 -0.796875 4.203125q-0.796875 1.53125 -2.328125 2.375q-1.53125 0.84375 -3.34375 0.84375q-2.890625 0 -4.6875 -1.859375q-1.78125 -1.859375 -1.78125 -5.359375zm2.40625 0q0 2.65625 1.15625 3.984375q1.15625 1.3125 2.90625 1.3125q1.75 0 2.90625 -1.328125q1.15625 -1.328125 1.15625 -4.046875q0 -2.5625 -1.171875 -3.890625q-1.15625 -1.328125 -2.890625 -1.328125q-1.75 0 -2.90625 1.328125q-1.15625 1.3125 -1.15625 3.96875zm13.278076 12.203125l0 -19.125l2.140625 0l0 1.796875q0.75 -1.046875 1.703125 -1.578125q0.953125 -0.53125 2.3125 -0.53125q1.765625 0 3.109375 0.921875q1.359375 0.90625 2.046875 2.5625q0.6875 1.65625 0.6875 3.640625q0 2.125 -0.765625 3.828125q-0.75 1.6875 -2.203125 2.59375q-1.453125 0.90625 -3.046875 0.90625q-1.171875 0 -2.109375 -0.484375q-0.921875 -0.5 -1.53125 -1.265625l0 6.734375l-2.34375 0zm2.125 -12.125q0 2.65625 1.078125 3.9375q1.09375 1.28125 2.625 1.28125q1.5625 0 2.671875 -1.3125q1.109375 -1.328125 1.109375 -4.109375q0 -2.640625 -1.09375 -3.953125q-1.078125 -1.3125 -2.59375 -1.3125q-1.484375 0 -2.640625 1.40625q-1.15625 1.390625 -1.15625 4.0625zm28.293335 6.828125l-2.34375 0l0 -14.921875q-0.859375 0.796875 -2.234375 1.609375q-1.359375 0.796875 -2.453125 1.203125l0 -2.265625q1.96875 -0.921875 3.4375 -2.234375q1.46875 -1.3125 2.078125 -2.546875l1.515625 0l0 19.15625z" fill-rule="nonzero"/><path fill="#000000" fill-opacity="0.0" d="m1505.874 299.18503l106.70862 0l0 51.716553l-106.70862 0z" fill-rule="evenodd"/><path fill="#000000" d="m1526.4607 333.78503l0 -19.078125l7.1875 0q1.90625 0 2.90625 0.171875q1.40625 0.234375 2.359375 0.90625q0.953125 0.65625 1.53125 1.84375q0.578125 1.171875 0.578125 2.59375q0 2.4375 -1.5625 4.125q-1.546875 1.6875 -5.59375 1.6875l-4.890625 0l0 7.75l-2.515625 0zm2.515625 -10.015625l4.9375 0q2.453125 0 3.46875 -0.90625q1.03125 -0.90625 1.03125 -2.5625q0 -1.203125 -0.609375 -2.046875q-0.59375 -0.859375 -1.59375 -1.125q-0.625 -0.171875 -2.34375 -0.171875l-4.890625 0l0 6.8125zm14.092041 3.109375q0 -3.84375 2.125 -5.6875q1.78125 -1.546875 4.34375 -1.546875q2.859375 0 4.65625 1.875q1.8125 1.859375 1.8125 5.15625q0 2.671875 -0.796875 4.203125q-0.796875 1.53125 -2.328125 2.375q-1.53125 0.84375 -3.34375 0.84375q-2.890625 0 -4.6875 -1.859375q-1.78125 -1.859375 -1.78125 -5.359375zm2.40625 0q0 2.65625 1.15625 3.984375q1.15625 1.3125 2.90625 1.3125q1.75 0 2.90625 -1.328125q1.15625 -1.328125 1.15625 -4.046875q0 -2.5625 -1.171875 -3.890625q-1.15625 -1.328125 -2.890625 -1.328125q-1.75 0 -2.90625 1.328125q-1.15625 1.3125 -1.15625 3.96875zm13.278076 12.203125l0 -19.125l2.140625 0l0 1.796875q0.75 -1.046875 1.703125 -1.578125q0.953125 -0.53125 2.3125 -0.53125q1.765625 0 3.109375 0.921875q1.359375 0.90625 2.046875 2.5625q0.6875 1.65625 0.6875 3.640625q0 2.125 -0.765625 3.828125q-0.75 1.6875 -2.203125 2.59375q-1.453125 0.90625 -3.046875 0.90625q-1.171875 0 -2.109375 -0.484375q-0.921875 -0.5 -1.53125 -1.265625l0 6.734375l-2.34375 0zm2.125 -12.125q0 2.65625 1.078125 3.9375q1.09375 1.28125 2.625 1.28125q1.5625 0 2.671875 -1.3125q1.109375 -1.328125 1.109375 -4.109375q0 -2.640625 -1.09375 -3.953125q-1.078125 -1.3125 -2.59375 -1.3125q-1.484375 0 -2.640625 1.40625q-1.15625 1.390625 -1.15625 4.0625zm31.77771 4.578125l0 2.25l-12.609375 0q-0.03125 -0.84375 0.265625 -1.625q0.484375 -1.296875 1.546875 -2.546875q1.0625 -1.25 3.0625 -2.875q3.109375 -2.5625 4.203125 -4.046875q1.09375 -1.5 1.09375 -2.8125q0 -1.40625 -1.0 -2.359375q-0.984375 -0.953125 -2.59375 -0.953125q-1.6875 0 -2.703125 1.015625q-1.015625 1.015625 -1.03125 2.8125l-2.40625 -0.25q0.25 -2.6875 1.859375 -4.09375q1.609375 -1.421875 4.328125 -1.421875q2.75 0 4.34375 1.53125q1.609375 1.515625 1.609375 3.765625q0 1.140625 -0.46875 2.25q-0.46875 1.109375 -1.5625 2.328125q-1.078125 1.21875 -3.609375 3.359375q-2.09375 1.765625 -2.703125 2.40625q-0.59375 0.625 -0.984375 1.265625l9.359375 0z" fill-rule="nonzero"/><path fill="#000000" fill-opacity="0.0" d="m1221.1444 183.80446l397.95276 0l0 113.10237l-397.95276 0z" fill-rule="evenodd"/><path fill="#000000" d="m1287.2916 202.3307l0 10.59375l11.171875 0l0 -10.59375l6.0625 0l0 27.59375l-6.0625 0l0 -11.90625l-11.171875 0l0 11.90625l-6.078125 0l0 -27.59375l6.078125 0zm27.652466 0l0 4.515625l-5.484375 0l0 -4.515625l5.484375 0zm0 7.609375l0 19.984375l-5.484375 0l0 -19.984375l5.484375 0zm12.512939 -0.53125q4.078125 0 6.296875 1.609375q2.21875 1.609375 2.53125 4.75l-5.234375 0q-0.109375 -1.421875 -1.0625 -2.0625q-0.9375 -0.640625 -2.703125 -0.640625q-1.578125 0 -2.3125 0.484375q-0.71875 0.46875 -0.71875 1.375q0 0.921875 0.953125 1.515625q0.953125 0.59375 3.84375 1.140625q4.609375 0.890625 6.171875 2.296875q1.578125 1.390625 1.578125 3.640625q0 3.40625 -2.484375 5.1875q-2.46875 1.765625 -6.625 1.765625q-4.15625 0 -6.703125 -1.765625q-2.53125 -1.765625 -2.703125 -5.28125l5.234375 0q0 1.59375 1.1875 2.484375q1.203125 0.875 3.015625 0.875q1.609375 0 2.609375 -0.6875q1.0 -0.6875 1.0 -1.859375q0 -1.03125 -1.3125 -1.6875q-1.296875 -0.671875 -4.765625 -1.390625q-3.4375 -0.671875 -4.96875 -1.9375q-1.53125 -1.265625 -1.53125 -3.421875q0 -3.171875 2.25 -4.78125q2.25 -1.609375 6.453125 -1.609375zm19.528198 -5.453125l0 5.984375l4.015625 0l0 3.671875l-4.015625 0l0 10.03125q0 1.21875 0.453125 1.703125q0.46875 0.484375 1.859375 0.484375q0.46875 0 0.90625 -0.03125q0.4375 -0.046875 0.796875 -0.125l0 4.28125q-0.6875 0.125 -1.53125 0.15625q-0.828125 0.03125 -1.640625 0.03125q-3.5625 0 -4.953125 -1.203125q-1.390625 -1.21875 -1.390625 -3.40625l0 -11.921875l-3.328125 0l0 -3.671875l3.328125 0l0 -5.984375l5.5 0zm16.170166 5.453125q4.703125 0 7.53125 2.90625q2.828125 2.890625 2.828125 7.640625q0 4.78125 -2.859375 7.65625q-2.859375 2.859375 -7.5 2.859375q-4.640625 0 -7.484375 -2.890625q-2.84375 -2.890625 -2.84375 -7.625q0 -4.734375 2.796875 -7.640625q2.796875 -2.90625 7.53125 -2.90625zm-4.828125 10.546875q0 3.15625 1.28125 4.765625q1.296875 1.609375 3.546875 1.609375q2.34375 0 3.609375 -1.65625q1.265625 -1.671875 1.265625 -4.71875q0 -2.984375 -1.234375 -4.703125q-1.21875 -1.71875 -3.671875 -1.71875q-2.21875 0 -3.515625 1.609375q-1.28125 1.59375 -1.28125 4.8125zm30.378418 -10.546875q0.359375 0 0.65625 0.046875q0.3125 0.046875 0.578125 0.140625l0 5.09375q-0.46875 -0.09375 -0.921875 -0.140625q-0.4375 -0.046875 -1.046875 -0.046875q-2.765625 0 -4.109375 1.703125q-1.328125 1.6875 -1.328125 4.546875l0 9.171875l-5.46875 0l0 -19.984375l5.203125 0l0 3.71875l0.078125 0q0.875 -1.96875 2.59375 -3.109375q1.734375 -1.140625 3.765625 -1.140625zm7.535034 0.53125l4.53125 13.6875l0.078125 0l4.359375 -13.6875l5.6875 0l-8.5 22.875q-0.75 2.0 -2.328125 3.078125q-1.5625 1.078125 -4.046875 1.078125q-1.1875 0 -2.015625 -0.0625q-0.828125 -0.0625 -1.6875 -0.15625l0 -4.5q1.0 0.109375 1.640625 0.140625q0.640625 0.046875 1.234375 0.046875q1.15625 0 1.796875 -0.71875q0.65625 -0.71875 0.65625 -1.796875q0 -0.28125 -0.046875 -0.546875q-0.03125 -0.28125 -0.203125 -0.703125l-7.046875 -18.734375l5.890625 0zm34.21045 -5.984375l0 5.984375l4.015625 0l0 3.671875l-4.015625 0l0 10.03125q0 1.21875 0.453125 1.703125q0.46875 0.484375 1.859375 0.484375q0.46875 0 0.90625 -0.03125q0.4375 -0.046875 0.796875 -0.125l0 4.28125q-0.6875 0.125 -1.53125 0.15625q-0.828125 0.03125 -1.640625 0.03125q-3.5625 0 -4.953125 -1.203125q-1.390625 -1.21875 -1.390625 -3.40625l0 -11.921875l-3.328125 0l0 -3.671875l3.328125 0l0 -5.984375l5.5 0zm12.124634 -1.625l0 10.40625l0.140625 0q0.859375 -1.5 2.453125 -2.40625q1.609375 -0.921875 3.421875 -0.921875q3.8125 0 5.53125 1.953125q1.734375 1.9375 1.734375 6.0625l0 12.5l-5.5 0l0 -11.453125q0 -2.34375 -0.8125 -3.53125q-0.796875 -1.203125 -2.703125 -1.203125q-2.28125 0 -3.28125 1.359375q-0.984375 1.34375 -0.984375 4.15625l0 10.671875l-5.46875 0l0 -27.59375l5.46875 0zm26.617432 7.078125q4.4375 0 6.59375 1.453125q2.171875 1.453125 2.171875 4.09375l0 10.71875q0 1.21875 0.15625 2.421875q0.15625 1.203125 0.53125 1.828125l-5.5625 0q-0.15625 -0.453125 -0.265625 -0.9375q-0.09375 -0.484375 -0.125 -0.96875q-1.15625 1.1875 -2.875 1.828125q-1.703125 0.625 -3.84375 0.625q-3.109375 0 -4.953125 -1.546875q-1.84375 -1.5625 -1.84375 -4.453125q0 -2.796875 1.734375 -4.28125q1.734375 -1.484375 6.328125 -1.984375q3.1875 -0.3125 4.203125 -0.78125q1.015625 -0.484375 1.015625 -1.671875q0 -1.34375 -0.78125 -2.015625q-0.78125 -0.671875 -2.75 -0.671875q-1.6875 0 -2.59375 0.734375q-0.90625 0.71875 -1.0625 2.296875l-5.5 0q0.234375 -3.296875 2.71875 -4.984375q2.484375 -1.703125 6.703125 -1.703125zm-4.546875 14.828125q0 1.1875 0.8125 1.875q0.8125 0.671875 2.5625 0.671875q2.1875 0 3.3125 -1.140625q1.125 -1.15625 1.125 -3.359375l0 -2.140625q-0.484375 0.40625 -1.296875 0.609375q-0.796875 0.1875 -2.890625 0.484375q-1.875 0.25 -2.75 0.984375q-0.875 0.71875 -0.875 2.015625zm24.525269 -20.28125l0 5.984375l4.015625 0l0 3.671875l-4.015625 0l0 10.03125q0 1.21875 0.453125 1.703125q0.46875 0.484375 1.859375 0.484375q0.46875 0 0.90625 -0.03125q0.4375 -0.046875 0.796875 -0.125l0 4.28125q-0.6875 0.125 -1.53125 0.15625q-0.828125 0.03125 -1.640625 0.03125q-3.5625 0 -4.953125 -1.203125q-1.390625 -1.21875 -1.390625 -3.40625l0 -11.921875l-3.328125 0l0 -3.671875l3.328125 0l0 -5.984375l5.5 0zm25.270874 -1.625q0.5625 0 1.5 0.0625q0.953125 0.046875 1.40625 0.09375l0 4.09375q-0.546875 -0.0625 -1.046875 -0.09375q-0.5 -0.03125 -0.9375 -0.03125q-1.15625 0 -1.640625 0.5q-0.46875 0.5 -0.46875 2.0625l0 0.921875l3.796875 0l0 3.671875l-3.796875 0l0 16.3125l-5.5 0l0 -16.3125l-3.28125 0l0 -3.671875l3.28125 0l0 -1.375q0 -3.125 1.796875 -4.671875q1.8125 -1.5625 4.890625 -1.5625zm10.640625 0l0 4.515625l-5.484375 0l0 -4.515625l5.484375 0zm0 7.609375l0 19.984375l-5.484375 0l0 -19.984375l5.484375 0zm11.276367 -5.984375l0 5.984375l4.015625 0l0 3.671875l-4.015625 0l0 10.03125q0 1.21875 0.453125 1.703125q0.46875 0.484375 1.859375 0.484375q0.46875 0 0.90625 -0.03125q0.4375 -0.046875 0.796875 -0.125l0 4.28125q-0.6875 0.125 -1.53125 0.15625q-0.828125 0.03125 -1.640625 0.03125q-3.5625 0 -4.953125 -1.203125q-1.390625 -1.21875 -1.390625 -3.40625l0 -11.921875l-3.328125 0l0 -3.671875l3.328125 0l0 -5.984375l5.5 0zm14.843384 5.453125q4.078125 0 6.296875 1.609375q2.21875 1.609375 2.53125 4.75l-5.234375 0q-0.109375 -1.421875 -1.0625 -2.0625q-0.9375 -0.640625 -2.703125 -0.640625q-1.578125 0 -2.3125 0.484375q-0.71875 0.46875 -0.71875 1.375q0 0.921875 0.953125 1.515625q0.953125 0.59375 3.84375 1.140625q4.609375 0.890625 6.171875 2.296875q1.578125 1.390625 1.578125 3.640625q0 3.40625 -2.484375 5.1875q-2.46875 1.765625 -6.625 1.765625q-4.15625 0 -6.703125 -1.765625q-2.53125 -1.765625 -2.703125 -5.28125l5.234375 0q0 1.59375 1.1875 2.484375q1.203125 0.875 3.015625 0.875q1.609375 0 2.609375 -0.6875q1.0 -0.6875 1.0 -1.859375q0 -1.03125 -1.3125 -1.6875q-1.296875 -0.671875 -4.765625 -1.390625q-3.4375 -0.671875 -4.96875 -1.9375q-1.53125 -1.265625 -1.53125 -3.421875q0 -3.171875 2.25 -4.78125q2.25 -1.609375 6.453125 -1.609375z" fill-rule="nonzero"/><path fill="#000000" d="m1320.7 248.73071l0 27.59375l-5.234375 0l0 -2.546875l-0.078125 0q-0.875 1.53125 -2.4375 2.3125q-1.5625 0.78125 -3.609375 0.78125q-4.109375 0 -6.546875 -3.0q-2.421875 -3.015625 -2.421875 -7.71875q0 -4.453125 2.390625 -7.390625q2.40625 -2.953125 6.453125 -2.953125q1.875 0 3.421875 0.765625q1.546875 0.75 2.484375 2.203125l0.078125 0l0 -10.046875l5.5 0zm-14.859375 17.578125q0 2.78125 1.296875 4.609375q1.3125 1.8125 3.53125 1.8125q2.28125 0 3.5 -1.6875q1.21875 -1.6875 1.21875 -4.765625q0 -2.921875 -1.1875 -4.625q-1.1875 -1.71875 -3.546875 -1.71875q-2.28125 0 -3.546875 1.71875q-1.265625 1.703125 -1.265625 4.65625zm28.159546 -10.5q4.4375 0 6.59375 1.453125q2.171875 1.453125 2.171875 4.09375l0 10.71875q0 1.21875 0.15625 2.421875q0.15625 1.203125 0.53125 1.828125l-5.5625 0q-0.15625 -0.453125 -0.265625 -0.9375q-0.09375 -0.484375 -0.125 -0.96875q-1.15625 1.1875 -2.875 1.828125q-1.703125 0.625 -3.84375 0.625q-3.109375 0 -4.953125 -1.546875q-1.84375 -1.5625 -1.84375 -4.453125q0 -2.796875 1.734375 -4.28125q1.734375 -1.484375 6.328125 -1.984375q3.1875 -0.3125 4.203125 -0.78125q1.015625 -0.484375 1.015625 -1.671875q0 -1.34375 -0.78125 -2.015625q-0.78125 -0.671875 -2.75 -0.671875q-1.6875 0 -2.59375 0.734375q-0.90625 0.71875 -1.0625 2.296875l-5.5 0q0.234375 -3.296875 2.71875 -4.984375q2.484375 -1.703125 6.703125 -1.703125zm-4.546875 14.828125q0 1.1875 0.8125 1.875q0.8125 0.671875 2.5625 0.671875q2.1875 0 3.3125 -1.140625q1.125 -1.15625 1.125 -3.359375l0 -2.140625q-0.484375 0.40625 -1.296875 0.609375q-0.796875 0.1875 -2.890625 0.484375q-1.875 0.25 -2.75 0.984375q-0.875 0.71875 -0.875 2.015625zm24.525269 -20.28125l0 5.984375l4.015625 0l0 3.671875l-4.015625 0l0 10.03125q0 1.21875 0.453125 1.703125q0.46875 0.484375 1.859375 0.484375q0.46875 0 0.90625 -0.03125q0.4375 -0.046875 0.796875 -0.125l0 4.28125q-0.6875 0.125 -1.53125 0.15625q-0.828125 0.03125 -1.640625 0.03125q-3.5625 0 -4.953125 -1.203125q-1.390625 -1.21875 -1.390625 -3.40625l0 -11.921875l-3.328125 0l0 -3.671875l3.328125 0l0 -5.984375l5.5 0zm15.827759 5.453125q4.4375 0 6.59375 1.453125q2.171875 1.453125 2.171875 4.09375l0 10.71875q0 1.21875 0.15625 2.421875q0.15625 1.203125 0.53125 1.828125l-5.5625 0q-0.15625 -0.453125 -0.265625 -0.9375q-0.09375 -0.484375 -0.125 -0.96875q-1.15625 1.1875 -2.875 1.828125q-1.703125 0.625 -3.84375 0.625q-3.109375 0 -4.953125 -1.546875q-1.84375 -1.5625 -1.84375 -4.453125q0 -2.796875 1.734375 -4.28125q1.734375 -1.484375 6.328125 -1.984375q3.1875 -0.3125 4.203125 -0.78125q1.015625 -0.484375 1.015625 -1.671875q0 -1.34375 -0.78125 -2.015625q-0.78125 -0.671875 -2.75 -0.671875q-1.6875 0 -2.59375 0.734375q-0.90625 0.71875 -1.0625 2.296875l-5.5 0q0.234375 -3.296875 2.71875 -4.984375q2.484375 -1.703125 6.703125 -1.703125zm-4.546875 14.828125q0 1.1875 0.8125 1.875q0.8125 0.671875 2.5625 0.671875q2.1875 0 3.3125 -1.140625q1.125 -1.15625 1.125 -3.359375l0 -2.140625q-0.484375 0.40625 -1.296875 0.609375q-0.796875 0.1875 -2.890625 0.484375q-1.875 0.25 -2.75 0.984375q-0.875 0.71875 -0.875 2.015625zm35.26526 -20.28125l0 5.984375l4.015625 0l0 3.671875l-4.015625 0l0 10.03125q0 1.21875 0.453125 1.703125q0.46875 0.484375 1.859375 0.484375q0.46875 0 0.90625 -0.03125q0.4375 -0.046875 0.796875 -0.125l0 4.28125q-0.6875 0.125 -1.53125 0.15625q-0.828125 0.03125 -1.640625 0.03125q-3.5625 0 -4.953125 -1.203125q-1.390625 -1.21875 -1.390625 -3.40625l0 -11.921875l-3.328125 0l0 -3.671875l3.328125 0l0 -5.984375l5.5 0zm12.124512 -1.625l0 10.40625l0.140625 0q0.859375 -1.5 2.453125 -2.40625q1.609375 -0.921875 3.421875 -0.921875q3.8125 0 5.53125 1.953125q1.734375 1.9375 1.734375 6.0625l0 12.5l-5.5 0l0 -11.453125q0 -2.34375 -0.8125 -3.53125q-0.796875 -1.203125 -2.703125 -1.203125q-2.28125 0 -3.28125 1.359375q-0.984375 1.34375 -0.984375 4.15625l0 10.671875l-5.46875 0l0 -27.59375l5.46875 0zm26.680054 7.078125q4.4375 0 7.078125 3.046875q2.65625 3.046875 2.65625 7.78125l-0.03125 1.03125l-14.421875 0q0.109375 2.578125 1.34375 3.828125q1.234375 1.234375 3.546875 1.234375q1.484375 0 2.75 -0.75q1.265625 -0.765625 1.609375 -1.84375l4.828125 0q-1.109375 3.390625 -3.4375 5.0625q-2.3125 1.671875 -5.921875 1.671875q-4.625 0 -7.421875 -2.921875q-2.796875 -2.921875 -2.796875 -7.59375q0 -4.46875 2.859375 -7.5q2.859375 -3.046875 7.359375 -3.046875zm-4.71875 8.375l8.921875 0q-0.390625 -2.203125 -1.421875 -3.21875q-1.03125 -1.03125 -2.96875 -1.03125q-2.0 0 -3.171875 1.140625q-1.171875 1.125 -1.359375 3.109375zm33.89026 -15.453125l0 10.046875l0.09375 0q0.890625 -1.359375 2.546875 -2.15625q1.671875 -0.8125 3.75 -0.8125q3.5 0 5.890625 2.84375q2.390625 2.84375 2.390625 7.671875q0 4.796875 -2.390625 7.671875q-2.390625 2.875 -5.90625 2.875q-2.421875 0 -4.09375 -0.796875q-1.65625 -0.8125 -2.46875 -2.296875l-0.078125 0l0 2.546875l-5.203125 0l0 -27.59375l5.46875 0zm-0.1875 17.625q0 2.875 1.265625 4.625q1.265625 1.75 3.421875 1.75q2.15625 0 3.421875 -1.75q1.265625 -1.75 1.265625 -4.625q0 -2.890625 -1.25 -4.65625q-1.234375 -1.765625 -3.46875 -1.765625q-2.109375 0 -3.390625 1.734375q-1.265625 1.734375 -1.265625 4.6875zm27.565918 -10.546875q4.4375 0 7.078125 3.046875q2.65625 3.046875 2.65625 7.78125l-0.03125 1.03125l-14.421875 0q0.109375 2.578125 1.34375 3.828125q1.234375 1.234375 3.546875 1.234375q1.484375 0 2.75 -0.75q1.265625 -0.765625 1.609375 -1.84375l4.828125 0q-1.109375 3.390625 -3.4375 5.0625q-2.3125 1.671875 -5.921875 1.671875q-4.625 0 -7.421875 -2.921875q-2.796875 -2.921875 -2.796875 -7.59375q0 -4.46875 2.859375 -7.5q2.859375 -3.046875 7.359375 -3.046875zm-4.71875 8.375l8.921875 0q-0.390625 -2.203125 -1.421875 -3.21875q-1.03125 -1.03125 -2.96875 -1.03125q-2.0 0 -3.171875 1.140625q-1.171875 1.125 -1.359375 3.109375zm25.869019 -8.375q4.078125 0 6.296875 1.609375q2.21875 1.609375 2.53125 4.75l-5.234375 0q-0.109375 -1.421875 -1.0625 -2.0625q-0.9375 -0.640625 -2.703125 -0.640625q-1.578125 0 -2.3125 0.484375q-0.71875 0.46875 -0.71875 1.375q0 0.921875 0.953125 1.515625q0.953125 0.59375 3.84375 1.140625q4.609375 0.890625 6.171875 2.296875q1.578125 1.390625 1.578125 3.640625q0 3.40625 -2.484375 5.1875q-2.46875 1.765625 -6.625 1.765625q-4.15625 0 -6.703125 -1.765625q-2.53125 -1.765625 -2.703125 -5.28125l5.234375 0q0 1.59375 1.1875 2.484375q1.203125 0.875 3.015625 0.875q1.609375 0 2.609375 -0.6875q1.0 -0.6875 1.0 -1.859375q0 -1.03125 -1.3125 -1.6875q-1.296875 -0.671875 -4.765625 -1.390625q-3.4375 -0.671875 -4.96875 -1.9375q-1.53125 -1.265625 -1.53125 -3.421875q0 -3.171875 2.25 -4.78125q2.25 -1.609375 6.453125 -1.609375zm19.528198 -5.453125l0 5.984375l4.015625 0l0 3.671875l-4.015625 0l0 10.03125q0 1.21875 0.453125 1.703125q0.46875 0.484375 1.859375 0.484375q0.46875 0 0.90625 -0.03125q0.4375 -0.046875 0.796875 -0.125l0 4.28125q-0.6875 0.125 -1.53125 0.15625q-0.828125 0.03125 -1.640625 0.03125q-3.5625 0 -4.953125 -1.203125q-1.390625 -1.21875 -1.390625 -3.40625l0 -11.921875l-3.328125 0l0 -3.671875l3.328125 0l0 -5.984375l5.5 0z" fill-rule="nonzero"/><path fill="#000000" fill-opacity="0.0" d="m1104.6141 361.0l121.44885 17.007874" fill-rule="evenodd"/><path stroke="#000000" stroke-width="4.0" stroke-linejoin="round" stroke-linecap="butt" d="m1104.6141 361.0l97.680786 13.679352" fill-rule="evenodd"/><path fill="#000000" stroke="#000000" stroke-width="4.0" stroke-linecap="butt" d="m1201.3787 381.22244l18.893188 -4.0255737l-17.060669 -9.060577z" fill-rule="evenodd"/></g></svg>