<svg version="1.1" viewBox="0.0 0.0 1604.0761154855643 824.0" fill="none" stroke="none" stroke-linecap="square" stroke-miterlimit="10" xmlns:xlink="http://www.w3.org/1999/xlink" xmlns="http://www.w3.org/2000/svg"><clipPath id="p.0"><path d="m0 0l1604.0762 0l0 824.0l-1604.0762 0l0 -824.0z" clip-rule="nonzero"/></clipPath><g clip-path="url(#p.0)"><path fill="#000000" fill-opacity="0.0" d="m0 0l1604.0762 0l0 824.0l-1604.0762 0z" fill-rule="evenodd"/><path fill="#000000" fill-opacity="0.0" d="m56.44883 98.70155l26.740166 0l0 27.23381l-26.740166 0z" fill-rule="evenodd"/><path stroke="#b7b7b7" stroke-width="1.0" stroke-linejoin="round" stroke-linecap="butt" d="m56.44883 98.70155l26.740166 0l0 27.23381l-26.740166 0z" fill-rule="evenodd"/><path fill="#000000" d="m73.40967 118.25971l-7.140625 0l-0.703125 1.78125l0.703125 0q1.0625 0 1.515625 0.40625q0.453125 0.40625 0.453125 1.078125q0 0.640625 -0.453125 1.046875q-0.453125 0.40625 -1.515625 0.40625l-3.9531288 0q-1.046875 0 -1.5 -0.40625q-0.453125 -0.40625 -0.453125 -1.0625q0 -0.671875 0.46875 -1.078125q0.46875 -0.421875 1.5625 -0.390625l4.609379 -11.484375l-1.921875 0q-1.0625 0 -1.5156288 -0.40625q-0.4375 -0.40625 -0.4375 -1.0625q0 -0.65625 0.4375 -1.0625q0.4531288 -0.421875 1.5156288 -0.421875l6.34375 0.015625l5.84375 14.421875q1.03125 0 1.359375 0.234375q0.65625 0.46875 0.65625 1.25q0 0.640625 -0.4375 1.046875q-0.4375 0.40625 -1.5 0.40625l-3.953125 0q-1.0625 0 -1.515625 -0.40625q-0.453125 -0.40625 -0.453125 -1.0625q0 -0.65625 0.453125 -1.0625q0.453125 -0.40625 1.515625 -0.40625l0.71875 0l-0.703125 -1.78125zm-1.21875 -2.9375l-2.359375 -5.8125l-2.375 5.8125l4.734375 0z" fill-rule="nonzero"/><path fill="#000000" fill-opacity="0.0" d="m83.188995 98.70155l26.740166 0l0 27.23381l-26.740166 0z" fill-rule="evenodd"/><path stroke="#b7b7b7" stroke-width="1.0" stroke-linejoin="round" stroke-linecap="butt" d="m83.188995 98.70155l26.740166 0l0 27.23381l-26.740166 0z" fill-rule="evenodd"/><path fill="#000000" d="m101.16546 106.36909q0.265625 -0.375 0.59375 -0.5625q0.328125 -0.1875 0.6875 -0.1875q0.65625 0 1.0625 0.453125q0.40625 0.4375 0.40625 1.5l0 2.484375q0 1.0625 -0.40625 1.515625q-0.40625 0.453125 -1.0625 0.453125q-0.578125 0 -0.9375 -0.328125q-0.359375 -0.328125 -0.53125 -1.234375q-0.09375 -0.609375 -0.40625 -0.9375q-0.578125 -0.640625 -1.640625 -1.015625q-1.046875 -0.390625 -2.109375 -0.390625q-1.3125 0 -2.421875 0.578125q-1.09375 0.5625 -1.9375 1.859375q-0.84375 1.28125 -0.84375 3.0625l0 1.90625q0 2.109375 1.53125 3.53125q1.546875 1.421875 4.28125 1.421875q1.625 0 2.765625 -0.453125q0.65625 -0.25 1.390625 -1.015625q0.46875 -0.453125 0.71875 -0.59375q0.265625 -0.140625 0.59375 -0.140625q0.578125 0 1.015625 0.453125q0.453125 0.4375 0.453125 1.046875q0 0.59375 -0.59375 1.28125q-0.875 1.0 -2.25 1.578125q-1.84375 0.765625 -4.078125 0.765625q-2.609375 0 -4.703125 -1.0625q-1.6875 -0.859375 -2.875 -2.71875q-1.1875 -1.859375 -1.1875 -4.046875l0 -1.984375q0 -2.296875 1.0625 -4.28125q1.0625 -1.984375 2.953125 -3.046875q1.890625 -1.078125 4.015625 -1.078125q1.265625 0 2.375 0.296875q1.109375 0.28125 2.078125 0.890625z" fill-rule="nonzero"/><path fill="#000000" fill-opacity="0.0" d="m109.92916 98.70155l26.740166 0l0 27.23381l-26.740166 0z" fill-rule="evenodd"/><path stroke="#b7b7b7" stroke-width="1.0" stroke-linejoin="round" stroke-linecap="butt" d="m109.92916 98.70155l26.740166 0l0 27.23381l-26.740166 0z" fill-rule="evenodd"/><path fill="#000000" d="m124.718124 108.55659l0 11.484375l1.984375 0q1.0625 0 1.5 0.40625q0.453125 0.40625 0.453125 1.078125q0 0.640625 -0.453125 1.046875q-0.4375 0.40625 -1.5 0.40625l-6.875 0q-1.0625 0 -1.515625 -0.40625q-0.453125 -0.40625 -0.453125 -1.0625q0 -0.65625 0.453125 -1.0625q0.453125 -0.40625 1.515625 -0.40625l1.96875 0l0 -11.484375l-3.1875 0l0 2.78125q0 1.0625 -0.40625 1.515625q-0.40625 0.4375 -1.0625 0.4375q-0.65625 0 -1.0625 -0.4375q-0.40625 -0.453125 -0.40625 -1.515625l0 -5.734375l15.203125 0.015625l0 5.71875q0 1.0625 -0.40625 1.515625q-0.40625 0.4375 -1.0625 0.4375q-0.640625 0 -1.046875 -0.4375q-0.40625 -0.453125 -0.40625 -1.515625l0 -2.78125l-3.234375 0z" fill-rule="nonzero"/><path fill="#000000" fill-opacity="0.0" d="m136.66933 98.70155l26.740173 0l0 27.23381l-26.740173 0z" fill-rule="evenodd"/><path stroke="#b7b7b7" stroke-width="1.0" stroke-linejoin="round" stroke-linecap="butt" d="m136.66933 98.70155l26.740173 0l0 27.23381l-26.740173 0z" fill-rule="evenodd"/><path fill="#000000" d="m153.63017 118.25971l-7.140625 0l-0.703125 1.78125l0.703125 0q1.0625 0 1.515625 0.40625q0.453125 0.40625 0.453125 1.078125q0 0.640625 -0.453125 1.046875q-0.453125 0.40625 -1.515625 0.40625l-3.953125 0q-1.046875 0 -1.5 -0.40625q-0.453125 -0.40625 -0.453125 -1.0625q0 -0.671875 0.46875 -1.078125q0.46875 -0.421875 1.5625 -0.390625l4.609375 -11.484375l-1.921875 0q-1.0625 0 -1.515625 -0.40625q-0.4375 -0.40625 -0.4375 -1.0625q0 -0.65625 0.4375 -1.0625q0.453125 -0.421875 1.515625 -0.421875l6.34375 0.015625l5.84375 14.421875q1.03125 0 1.359375 0.234375q0.65625 0.46875 0.65625 1.25q0 0.640625 -0.4375 1.046875q-0.4375 0.40625 -1.5 0.40625l-3.953125 0q-1.0625 0 -1.515625 -0.40625q-0.453125 -0.40625 -0.453125 -1.0625q0 -0.65625 0.453125 -1.0625q0.453125 -0.40625 1.515625 -0.40625l0.71875 0l-0.703125 -1.78125zm-1.21875 -2.9375l-2.359375 -5.8125l-2.375 5.8125l4.734375 0z" fill-rule="nonzero"/><path fill="#000000" fill-opacity="0.0" d="m163.4095 98.70155l26.740158 0l0 27.23381l-26.740158 0z" fill-rule="evenodd"/><path stroke="#b7b7b7" stroke-width="1.0" stroke-linejoin="round" stroke-linecap="butt" d="m163.4095 98.70155l26.740158 0l0 27.23381l-26.740158 0z" fill-rule="evenodd"/><path fill="#000000" d="m184.18283 117.60346l0 3.9375q-2.0 1.078125 -3.40625 1.46875q-1.390625 0.390625 -3.0 0.390625q-2.25 0 -4.171875 -0.671875q-1.5 -0.515625 -2.375 -1.296875q-0.859375 -0.78125 -1.59375 -2.3125q-0.71875 -1.546875 -0.71875 -3.453125l0 -2.125q0 -2.9375 1.78125 -5.234375q2.40625 -3.125 6.546875 -3.125q1.203125 0 2.28125 0.25q1.078125 0.234375 2.0625 0.71875q0.578125 -0.53125 1.140625 -0.53125q0.640625 0 1.046875 0.453125q0.40625 0.4375 0.40625 1.5l0 1.90625q0 1.0625 -0.421875 1.515625q-0.40625 0.4375 -1.046875 0.4375q-0.515625 0 -0.890625 -0.3125q-0.28125 -0.21875 -0.484375 -0.953125q-0.1875 -0.734375 -0.421875 -1.0q-0.390625 -0.40625 -1.375 -0.71875q-0.984375 -0.328125 -2.203125 -0.328125q-1.734375 0 -3.03125 0.703125q-0.921875 0.53125 -1.703125 1.859375q-0.765625 1.3125 -0.765625 2.859375l0 2.125q0 2.359375 1.375 3.59375q1.375 1.21875 4.34375 1.21875q2.015625 0 3.6875 -0.765625l0 -2.109375l-3.0 0q-1.0625 0 -1.515625 -0.40625q-0.4375 -0.40625 -0.4375 -1.0625q0 -0.65625 0.4375 -1.0625q0.453125 -0.40625 1.515625 -0.40625l5.21875 0q1.0625 0 1.5 0.40625q0.453125 0.40625 0.453125 1.0625q0 0.515625 -0.3125 0.90625q-0.296875 0.375 -0.921875 0.5625z" fill-rule="nonzero"/><path fill="#000000" fill-opacity="0.0" d="m56.44883 173.45056l26.740166 0l0 27.23381l-26.740166 0z" fill-rule="evenodd"/><path stroke="#b7b7b7" stroke-width="1.0" stroke-linejoin="round" stroke-linecap="butt" d="m56.44883 173.45056l26.740166 0l0 27.23381l-26.740166 0z" fill-rule="evenodd"/><path fill="#000000" d="m73.40967 193.00871l-7.140625 0l-0.703125 1.78125l0.703125 0q1.0625 0 1.515625 0.40625q0.453125 0.40625 0.453125 1.078125q0 0.640625 -0.453125 1.046875q-0.453125 0.40625 -1.515625 0.40625l-3.9531288 0q-1.046875 0 -1.5 -0.40625q-0.453125 -0.40625 -0.453125 -1.0625q0 -0.671875 0.46875 -1.078125q0.46875 -0.421875 1.5625 -0.390625l4.609379 -11.484375l-1.921875 0q-1.0625 0 -1.5156288 -0.40625q-0.4375 -0.40625 -0.4375 -1.0625q0 -0.65625 0.4375 -1.0625q0.4531288 -0.421875 1.5156288 -0.421875l6.34375 0.015625l5.84375 14.421875q1.03125 0 1.359375 0.234375q0.65625 0.46875 0.65625 1.25q0 0.640625 -0.4375 1.046875q-0.4375 0.40625 -1.5 0.40625l-3.953125 0q-1.0625 0 -1.515625 -0.40625q-0.453125 -0.40625 -0.453125 -1.0625q0 -0.65625 0.453125 -1.0625q0.453125 -0.40625 1.515625 -0.40625l0.71875 0l-0.703125 -1.78125zm-1.21875 -2.9375l-2.359375 -5.8125l-2.375 5.8125l4.734375 0z" fill-rule="nonzero"/><path fill="#000000" fill-opacity="0.0" d="m83.188995 173.45056l26.740166 0l0 27.23381l-26.740166 0z" fill-rule="evenodd"/><path stroke="#b7b7b7" stroke-width="1.0" stroke-linejoin="round" stroke-linecap="butt" d="m83.188995 173.45056l26.740166 0l0 27.23381l-26.740166 0z" fill-rule="evenodd"/><path fill="#000000" d="m101.16546 181.11809q0.265625 -0.375 0.59375 -0.5625q0.328125 -0.1875 0.6875 -0.1875q0.65625 0 1.0625 0.453125q0.40625 0.4375 0.40625 1.5l0 2.484375q0 1.0625 -0.40625 1.515625q-0.40625 0.453125 -1.0625 0.453125q-0.578125 0 -0.9375 -0.328125q-0.359375 -0.328125 -0.53125 -1.234375q-0.09375 -0.609375 -0.40625 -0.9375q-0.578125 -0.640625 -1.640625 -1.015625q-1.046875 -0.390625 -2.109375 -0.390625q-1.3125 0 -2.421875 0.578125q-1.09375 0.5625 -1.9375 1.859375q-0.84375 1.28125 -0.84375 3.0625l0 1.90625q0 2.109375 1.53125 3.53125q1.546875 1.421875 4.28125 1.421875q1.625 0 2.765625 -0.453125q0.65625 -0.25 1.390625 -1.015625q0.46875 -0.453125 0.71875 -0.59375q0.265625 -0.140625 0.59375 -0.140625q0.578125 0 1.015625 0.453125q0.453125 0.4375 0.453125 1.046875q0 0.59375 -0.59375 1.28125q-0.875 1.0 -2.25 1.578125q-1.84375 0.765625 -4.078125 0.765625q-2.609375 0 -4.703125 -1.0625q-1.6875 -0.859375 -2.875 -2.71875q-1.1875 -1.859375 -1.1875 -4.046875l0 -1.984375q0 -2.296875 1.0625 -4.28125q1.0625 -1.984375 2.953125 -3.046875q1.890625 -1.078125 4.015625 -1.078125q1.265625 0 2.375 0.296875q1.109375 0.28125 2.078125 0.890625z" fill-rule="nonzero"/><path fill="#000000" fill-opacity="0.0" d="m109.92916 173.45056l26.740166 0l0 27.23381l-26.740166 0z" fill-rule="evenodd"/><path stroke="#b7b7b7" stroke-width="1.0" stroke-linejoin="round" stroke-linecap="butt" d="m109.92916 173.45056l26.740166 0l0 27.23381l-26.740166 0z" fill-rule="evenodd"/><path fill="#cc0000" d="m126.89 193.00871l-7.140625 0l-0.703125 1.78125l0.703125 0q1.0625 0 1.515625 0.40625q0.453125 0.40625 0.453125 1.078125q0 0.640625 -0.453125 1.046875q-0.453125 0.40625 -1.515625 0.40625l-3.953125 0q-1.046875 0 -1.5 -0.40625q-0.453125 -0.40625 -0.453125 -1.0625q0 -0.671875 0.46875 -1.078125q0.46875 -0.421875 1.5625 -0.390625l4.609375 -11.484375l-1.921875 0q-1.0625 0 -1.515625 -0.40625q-0.4375 -0.40625 -0.4375 -1.0625q0 -0.65625 0.4375 -1.0625q0.453125 -0.421875 1.515625 -0.421875l6.34375 0.015625l5.84375 14.421875q1.03125 0 1.359375 0.234375q0.65625 0.46875 0.65625 1.25q0 0.640625 -0.4375 1.046875q-0.4375 0.40625 -1.5 0.40625l-3.953125 0q-1.0625 0 -1.515625 -0.40625q-0.453125 -0.40625 -0.453125 -1.0625q0 -0.65625 0.453125 -1.0625q0.453125 -0.40625 1.515625 -0.40625l0.71875 0l-0.703125 -1.78125zm-1.21875 -2.9375l-2.359375 -5.8125l-2.375 5.8125l4.734375 0z" fill-rule="nonzero"/><path fill="#000000" fill-opacity="0.0" d="m136.66933 173.45056l26.740173 0l0 27.23381l-26.740173 0z" fill-rule="evenodd"/><path stroke="#b7b7b7" stroke-width="1.0" stroke-linejoin="round" stroke-linecap="butt" d="m136.66933 173.45056l26.740173 0l0 27.23381l-26.740173 0z" fill-rule="evenodd"/><path fill="#000000" d="m153.63017 193.00871l-7.140625 0l-0.703125 1.78125l0.703125 0q1.0625 0 1.515625 0.40625q0.453125 0.40625 0.453125 1.078125q0 0.640625 -0.453125 1.046875q-0.453125 0.40625 -1.515625 0.40625l-3.953125 0q-1.046875 0 -1.5 -0.40625q-0.453125 -0.40625 -0.453125 -1.0625q0 -0.671875 0.46875 -1.078125q0.46875 -0.421875 1.5625 -0.390625l4.609375 -11.484375l-1.921875 0q-1.0625 0 -1.515625 -0.40625q-0.4375 -0.40625 -0.4375 -1.0625q0 -0.65625 0.4375 -1.0625q0.453125 -0.421875 1.515625 -0.421875l6.34375 0.015625l5.84375 14.421875q1.03125 0 1.359375 0.234375q0.65625 0.46875 0.65625 1.25q0 0.640625 -0.4375 1.046875q-0.4375 0.40625 -1.5 0.40625l-3.953125 0q-1.0625 0 -1.515625 -0.40625q-0.453125 -0.40625 -0.453125 -1.0625q0 -0.65625 0.453125 -1.0625q0.453125 -0.40625 1.515625 -0.40625l0.71875 0l-0.703125 -1.78125zm-1.21875 -2.9375l-2.359375 -5.8125l-2.375 5.8125l4.734375 0z" fill-rule="nonzero"/><path fill="#000000" fill-opacity="0.0" d="m163.4095 173.45056l26.740158 0l0 27.23381l-26.740158 0z" fill-rule="evenodd"/><path stroke="#b7b7b7" stroke-width="1.0" stroke-linejoin="round" stroke-linecap="butt" d="m163.4095 173.45056l26.740158 0l0 27.23381l-26.740158 0z" fill-rule="evenodd"/><path fill="#000000" d="m184.18283 192.35246l0 3.9375q-2.0 1.078125 -3.40625 1.46875q-1.390625 0.390625 -3.0 0.390625q-2.25 0 -4.171875 -0.671875q-1.5 -0.515625 -2.375 -1.296875q-0.859375 -0.78125 -1.59375 -2.3125q-0.71875 -1.546875 -0.71875 -3.453125l0 -2.125q0 -2.9375 1.78125 -5.234375q2.40625 -3.125 6.546875 -3.125q1.203125 0 2.28125 0.25q1.078125 0.234375 2.0625 0.71875q0.578125 -0.53125 1.140625 -0.53125q0.640625 0 1.046875 0.453125q0.40625 0.4375 0.40625 1.5l0 1.90625q0 1.0625 -0.421875 1.515625q-0.40625 0.4375 -1.046875 0.4375q-0.515625 0 -0.890625 -0.3125q-0.28125 -0.21875 -0.484375 -0.953125q-0.1875 -0.734375 -0.421875 -1.0q-0.390625 -0.40625 -1.375 -0.71875q-0.984375 -0.328125 -2.203125 -0.328125q-1.734375 0 -3.03125 0.703125q-0.921875 0.53125 -1.703125 1.859375q-0.765625 1.3125 -0.765625 2.859375l0 2.125q0 2.359375 1.375 3.59375q1.375 1.21875 4.34375 1.21875q2.015625 0 3.6875 -0.765625l0 -2.109375l-3.0 0q-1.0625 0 -1.515625 -0.40625q-0.4375 -0.40625 -0.4375 -1.0625q0 -0.65625 0.4375 -1.0625q0.453125 -0.40625 1.515625 -0.40625l5.21875 0q1.0625 0 1.5 0.40625q0.453125 0.40625 0.453125 1.0625q0 0.515625 -0.3125 0.90625q-0.296875 0.375 -0.921875 0.5625z" fill-rule="nonzero"/><path fill="#000000" fill-opacity="0.0" d="m56.44883 217.55846l26.740166 0l0 27.23381l-26.740166 0z" fill-rule="evenodd"/><path stroke="#b7b7b7" stroke-width="1.0" stroke-linejoin="round" stroke-linecap="butt" d="m56.44883 217.55846l26.740166 0l0 27.23381l-26.740166 0z" fill-rule="evenodd"/><path fill="#000000" d="m73.40967 237.11662l-7.140625 0l-0.703125 1.78125l0.703125 0q1.0625 0 1.515625 0.40625q0.453125 0.40625 0.453125 1.078125q0 0.640625 -0.453125 1.046875q-0.453125 0.40625 -1.515625 0.40625l-3.9531288 0q-1.046875 0 -1.5 -0.40625q-0.453125 -0.40625 -0.453125 -1.0625q0 -0.671875 0.46875 -1.078125q0.46875 -0.421875 1.5625 -0.390625l4.609379 -11.484375l-1.921875 0q-1.0625 0 -1.5156288 -0.40625q-0.4375 -0.40625 -0.4375 -1.0625q0 -0.65625 0.4375 -1.0625q0.4531288 -0.421875 1.5156288 -0.421875l6.34375 0.015625l5.84375 14.421875q1.03125 0 1.359375 0.234375q0.65625 0.46875 0.65625 1.25q0 0.640625 -0.4375 1.046875q-0.4375 0.40625 -1.5 0.40625l-3.953125 0q-1.0625 0 -1.515625 -0.40625q-0.453125 -0.40625 -0.453125 -1.0625q0 -0.65625 0.453125 -1.0625q0.453125 -0.40625 1.515625 -0.40625l0.71875 0l-0.703125 -1.78125zm-1.21875 -2.9375l-2.359375 -5.8125l-2.375 5.8125l4.734375 0z" fill-rule="nonzero"/><path fill="#000000" fill-opacity="0.0" d="m83.188995 217.55846l26.740166 0l0 27.23381l-26.740166 0z" fill-rule="evenodd"/><path stroke="#b7b7b7" stroke-width="1.0" stroke-linejoin="round" stroke-linecap="butt" d="m83.188995 217.55846l26.740166 0l0 27.23381l-26.740166 0z" fill-rule="evenodd"/><path fill="#000000" d="m101.16546 225.226q0.265625 -0.375 0.59375 -0.5625q0.328125 -0.1875 0.6875 -0.1875q0.65625 0 1.0625 0.453125q0.40625 0.4375 0.40625 1.5l0 2.484375q0 1.0625 -0.40625 1.515625q-0.40625 0.453125 -1.0625 0.453125q-0.578125 0 -0.9375 -0.328125q-0.359375 -0.328125 -0.53125 -1.234375q-0.09375 -0.609375 -0.40625 -0.9375q-0.578125 -0.640625 -1.640625 -1.015625q-1.046875 -0.390625 -2.109375 -0.390625q-1.3125 0 -2.421875 0.578125q-1.09375 0.5625 -1.9375 1.859375q-0.84375 1.28125 -0.84375 3.0625l0 1.90625q0 2.109375 1.53125 3.53125q1.546875 1.421875 4.28125 1.421875q1.625 0 2.765625 -0.453125q0.65625 -0.25 1.390625 -1.015625q0.46875 -0.453125 0.71875 -0.59375q0.265625 -0.140625 0.59375 -0.140625q0.578125 0 1.015625 0.453125q0.453125 0.4375 0.453125 1.046875q0 0.59375 -0.59375 1.28125q-0.875 1.0 -2.25 1.578125q-1.84375 0.765625 -4.078125 0.765625q-2.609375 0 -4.703125 -1.0625q-1.6875 -0.859375 -2.875 -2.71875q-1.1875 -1.859375 -1.1875 -4.046875l0 -1.984375q0 -2.296875 1.0625 -4.28125q1.0625 -1.984375 2.953125 -3.046875q1.890625 -1.078125 4.015625 -1.078125q1.265625 0 2.375 0.296875q1.109375 0.28125 2.078125 0.890625z" fill-rule="nonzero"/><path fill="#000000" fill-opacity="0.0" d="m109.92916 217.55846l26.740166 0l0 27.23381l-26.740166 0z" fill-rule="evenodd"/><path stroke="#b7b7b7" stroke-width="1.0" stroke-linejoin="round" stroke-linecap="butt" d="m109.92916 217.55846l26.740166 0l0 27.23381l-26.740166 0z" fill-rule="evenodd"/><path fill="#cc0000" d="m126.89 237.11662l-7.140625 0l-0.703125 1.78125l0.703125 0q1.0625 0 1.515625 0.40625q0.453125 0.40625 0.453125 1.078125q0 0.640625 -0.453125 1.046875q-0.453125 0.40625 -1.515625 0.40625l-3.953125 0q-1.046875 0 -1.5 -0.40625q-0.453125 -0.40625 -0.453125 -1.0625q0 -0.671875 0.46875 -1.078125q0.46875 -0.421875 1.5625 -0.390625l4.609375 -11.484375l-1.921875 0q-1.0625 0 -1.515625 -0.40625q-0.4375 -0.40625 -0.4375 -1.0625q0 -0.65625 0.4375 -1.0625q0.453125 -0.421875 1.515625 -0.421875l6.34375 0.015625l5.84375 14.421875q1.03125 0 1.359375 0.234375q0.65625 0.46875 0.65625 1.25q0 0.640625 -0.4375 1.046875q-0.4375 0.40625 -1.5 0.40625l-3.953125 0q-1.0625 0 -1.515625 -0.40625q-0.453125 -0.40625 -0.453125 -1.0625q0 -0.65625 0.453125 -1.0625q0.453125 -0.40625 1.515625 -0.40625l0.71875 0l-0.703125 -1.78125zm-1.21875 -2.9375l-2.359375 -5.8125l-2.375 5.8125l4.734375 0z" fill-rule="nonzero"/><path fill="#000000" fill-opacity="0.0" d="m136.66933 217.55846l26.740173 0l0 27.23381l-26.740173 0z" fill-rule="evenodd"/><path stroke="#b7b7b7" stroke-width="1.0" stroke-linejoin="round" stroke-linecap="butt" d="m136.66933 217.55846l26.740173 0l0 27.23381l-26.740173 0z" fill-rule="evenodd"/><path fill="#000000" d="m153.63017 237.11662l-7.140625 0l-0.703125 1.78125l0.703125 0q1.0625 0 1.515625 0.40625q0.453125 0.40625 0.453125 1.078125q0 0.640625 -0.453125 1.046875q-0.453125 0.40625 -1.515625 0.40625l-3.953125 0q-1.046875 0 -1.5 -0.40625q-0.453125 -0.40625 -0.453125 -1.0625q0 -0.671875 0.46875 -1.078125q0.46875 -0.421875 1.5625 -0.390625l4.609375 -11.484375l-1.921875 0q-1.0625 0 -1.515625 -0.40625q-0.4375 -0.40625 -0.4375 -1.0625q0 -0.65625 0.4375 -1.0625q0.453125 -0.421875 1.515625 -0.421875l6.34375 0.015625l5.84375 14.421875q1.03125 0 1.359375 0.234375q0.65625 0.46875 0.65625 1.25q0 0.640625 -0.4375 1.046875q-0.4375 0.40625 -1.5 0.40625l-3.953125 0q-1.0625 0 -1.515625 -0.40625q-0.453125 -0.40625 -0.453125 -1.0625q0 -0.65625 0.453125 -1.0625q0.453125 -0.40625 1.515625 -0.40625l0.71875 0l-0.703125 -1.78125zm-1.21875 -2.9375l-2.359375 -5.8125l-2.375 5.8125l4.734375 0z" fill-rule="nonzero"/><path fill="#000000" fill-opacity="0.0" d="m163.4095 217.55846l26.740158 0l0 27.23381l-26.740158 0z" fill-rule="evenodd"/><path stroke="#b7b7b7" stroke-width="1.0" stroke-linejoin="round" stroke-linecap="butt" d="m163.4095 217.55846l26.740158 0l0 27.23381l-26.740158 0z" fill-rule="evenodd"/><path fill="#cc0000" d="m178.19846 227.4135l0 11.484375l1.984375 0q1.0625 0 1.5 0.40625q0.453125 0.40625 0.453125 1.078125q0 0.640625 -0.453125 1.046875q-0.4375 0.40625 -1.5 0.40625l-6.875 0q-1.0625 0 -1.515625 -0.40625q-0.453125 -0.40625 -0.453125 -1.0625q0 -0.65625 0.453125 -1.0625q0.453125 -0.40625 1.515625 -0.40625l1.96875 0l0 -11.484375l-3.1875 0l0 2.78125q0 1.0625 -0.40625 1.515625q-0.40625 0.4375 -1.0625 0.4375q-0.65625 0 -1.0625 -0.4375q-0.40625 -0.453125 -0.40625 -1.515625l0 -5.734375l15.203125 0.015625l0 5.71875q0 1.0625 -0.40625 1.515625q-0.40625 0.4375 -1.0625 0.4375q-0.640625 0 -1.046875 -0.4375q-0.40625 -0.453125 -0.40625 -1.515625l0 -2.78125l-3.234375 0z" fill-rule="nonzero"/><path fill="#000000" fill-opacity="0.0" d="m254.87924 175.3428l26.740173 0l0 27.233826l-26.740173 0z" fill-rule="evenodd"/><path stroke="#b7b7b7" stroke-width="1.0" stroke-linejoin="round" stroke-linecap="butt" d="m254.87924 175.3428l26.740173 0l0 27.233826l-26.740173 0z" fill-rule="evenodd"/><path fill="#cc0000" d="m275.6526 194.24472l0 3.9375q-2.0 1.078125 -3.40625 1.46875q-1.390625 0.390625 -3.0 0.390625q-2.25 0 -4.171875 -0.671875q-1.5 -0.515625 -2.375 -1.296875q-0.859375 -0.78125 -1.59375 -2.3125q-0.71875 -1.546875 -0.71875 -3.453125l0 -2.125q0 -2.9375 1.78125 -5.234375q2.40625 -3.125 6.546875 -3.125q1.203125 0 2.28125 0.25q1.078125 0.234375 2.0625 0.71875q0.578125 -0.53125 1.140625 -0.53125q0.640625 0 1.046875 0.453125q0.40625 0.4375 0.40625 1.5l0 1.90625q0 1.0625 -0.421875 1.515625q-0.40625 0.4375 -1.046875 0.4375q-0.515625 0 -0.890625 -0.3125q-0.28125 -0.21875 -0.484375 -0.953125q-0.1875 -0.734375 -0.421875 -1.0q-0.390625 -0.40625 -1.375 -0.71875q-0.984375 -0.328125 -2.203125 -0.328125q-1.734375 0 -3.03125 0.703125q-0.921875 0.53125 -1.703125 1.859375q-0.765625 1.3125 -0.765625 2.859375l0 2.125q0 2.359375 1.375 3.59375q1.375 1.21875 4.34375 1.21875q2.015625 0 3.6875 -0.765625l0 -2.109375l-3.0 0q-1.0625 0 -1.515625 -0.40625q-0.4375 -0.40625 -0.4375 -1.0625q0 -0.65625 0.4375 -1.0625q0.453125 -0.40625 1.515625 -0.40625l5.21875 0q1.0625 0 1.5 0.40625q0.453125 0.40625 0.453125 1.0625q0 0.515625 -0.3125 0.90625q-0.296875 0.375 -0.921875 0.5625z" fill-rule="nonzero"/><path fill="#000000" fill-opacity="0.0" d="m281.61942 175.3428l26.740173 0l0 27.233826l-26.740173 0z" fill-rule="evenodd"/><path stroke="#b7b7b7" stroke-width="1.0" stroke-linejoin="round" stroke-linecap="butt" d="m281.61942 175.3428l26.740173 0l0 27.233826l-26.740173 0z" fill-rule="evenodd"/><path fill="#000000" d="m299.5959 183.01035q0.265625 -0.375 0.59375 -0.5625q0.328125 -0.1875 0.6875 -0.1875q0.65625 0 1.0625 0.453125q0.40625 0.4375 0.40625 1.5l0 2.484375q0 1.0625 -0.40625 1.515625q-0.40625 0.453125 -1.0625 0.453125q-0.578125 0 -0.9375 -0.328125q-0.359375 -0.328125 -0.53125 -1.234375q-0.09375 -0.609375 -0.40625 -0.9375q-0.578125 -0.640625 -1.640625 -1.015625q-1.046875 -0.390625 -2.109375 -0.390625q-1.3125 0 -2.421875 0.578125q-1.09375 0.5625 -1.9375 1.859375q-0.84375 1.28125 -0.84375 3.0625l0 1.90625q0 2.109375 1.53125 3.53125q1.546875 1.421875 4.28125 1.421875q1.625 0 2.765625 -0.453125q0.65625 -0.25 1.390625 -1.015625q0.46875 -0.453125 0.71875 -0.59375q0.265625 -0.140625 0.59375 -0.140625q0.578125 0 1.015625 0.453125q0.453125 0.4375 0.453125 1.046875q0 0.59375 -0.59375 1.28125q-0.875 1.0 -2.25 1.578125q-1.84375 0.765625 -4.078125 0.765625q-2.609375 0 -4.703125 -1.0625q-1.6875 -0.859375 -2.875 -2.71875q-1.1875 -1.859375 -1.1875 -4.046875l0 -1.984375q0 -2.296875 1.0625 -4.28125q1.0625 -1.984375 2.953125 -3.046875q1.890625 -1.078125 4.015625 -1.078125q1.265625 0 2.375 0.296875q1.109375 0.28125 2.078125 0.890625z" fill-rule="nonzero"/><path fill="#000000" fill-opacity="0.0" d="m308.3596 175.3428l26.740173 0l0 27.233826l-26.740173 0z" fill-rule="evenodd"/><path stroke="#b7b7b7" stroke-width="1.0" stroke-linejoin="round" stroke-linecap="butt" d="m308.3596 175.3428l26.740173 0l0 27.233826l-26.740173 0z" fill-rule="evenodd"/><path fill="#000000" d="m323.14853 185.19785l0 11.484375l1.984375 0q1.0625 0 1.5 0.40625q0.453125 0.40625 0.453125 1.078125q0 0.640625 -0.453125 1.046875q-0.4375 0.40625 -1.5 0.40625l-6.875 0q-1.0625 0 -1.515625 -0.40625q-0.453125 -0.40625 -0.453125 -1.0625q0 -0.65625 0.453125 -1.0625q0.453125 -0.40625 1.515625 -0.40625l1.96875 0l0 -11.484375l-3.1875 0l0 2.78125q0 1.0625 -0.40625 1.515625q-0.40625 0.4375 -1.0625 0.4375q-0.65625 0 -1.0625 -0.4375q-0.40625 -0.453125 -0.40625 -1.515625l0 -5.734375l15.203125 0.015625l0 5.71875q0 1.0625 -0.40625 1.515625q-0.40625 0.4375 -1.0625 0.4375q-0.640625 0 -1.046875 -0.4375q-0.40625 -0.453125 -0.40625 -1.515625l0 -2.78125l-3.234375 0z" fill-rule="nonzero"/><path fill="#000000" fill-opacity="0.0" d="m335.09976 175.3428l26.740143 0l0 27.233826l-26.740143 0z" fill-rule="evenodd"/><path stroke="#b7b7b7" stroke-width="1.0" stroke-linejoin="round" stroke-linecap="butt" d="m335.09976 175.3428l26.740143 0l0 27.233826l-26.740143 0z" fill-rule="evenodd"/><path fill="#000000" d="m352.06058 194.90097l-7.140625 0l-0.703125 1.78125l0.703125 0q1.0625 0 1.515625 0.40625q0.453125 0.40625 0.453125 1.078125q0 0.640625 -0.453125 1.046875q-0.453125 0.40625 -1.515625 0.40625l-3.953125 0q-1.046875 0 -1.5 -0.40625q-0.453125 -0.40625 -0.453125 -1.0625q0 -0.671875 0.46875 -1.078125q0.46875 -0.421875 1.5625 -0.390625l4.609375 -11.484375l-1.921875 0q-1.0625 0 -1.515625 -0.40625q-0.4375 -0.40625 -0.4375 -1.0625q0 -0.65625 0.4375 -1.0625q0.453125 -0.421875 1.515625 -0.421875l6.34375 0.015625l5.84375 14.421875q1.03125 0 1.359375 0.234375q0.65625 0.46875 0.65625 1.25q0 0.640625 -0.4375 1.046875q-0.4375 0.40625 -1.5 0.40625l-3.953125 0q-1.0625 0 -1.515625 -0.40625q-0.453125 -0.40625 -0.453125 -1.0625q0 -0.65625 0.453125 -1.0625q0.453125 -0.40625 1.515625 -0.40625l0.71875 0l-0.703125 -1.78125zm-1.21875 -2.9375l-2.359375 -5.8125l-2.375 5.8125l4.734375 0z" fill-rule="nonzero"/><path fill="#000000" fill-opacity="0.0" d="m361.8399 175.3428l26.740173 0l0 27.233826l-26.740173 0z" fill-rule="evenodd"/><path stroke="#b7b7b7" stroke-width="1.0" stroke-linejoin="round" stroke-linecap="butt" d="m361.8399 175.3428l26.740173 0l0 27.233826l-26.740173 0z" fill-rule="evenodd"/><path fill="#cc0000" d="m376.62888 185.19785l0 11.484375l1.984375 0q1.0625 0 1.5 0.40625q0.453125 0.40625 0.453125 1.078125q0 0.640625 -0.453125 1.046875q-0.4375 0.40625 -1.5 0.40625l-6.875 0q-1.0625 0 -1.515625 -0.40625q-0.453125 -0.40625 -0.453125 -1.0625q0 -0.65625 0.453125 -1.0625q0.453125 -0.40625 1.515625 -0.40625l1.96875 0l0 -11.484375l-3.1875 0l0 2.78125q0 1.0625 -0.40625 1.515625q-0.40625 0.4375 -1.0625 0.4375q-0.65625 0 -1.0625 -0.4375q-0.40625 -0.453125 -0.40625 -1.515625l0 -5.734375l15.203125 0.015625l0 5.71875q0 1.0625 -0.40625 1.515625q-0.40625 0.4375 -1.0625 0.4375q-0.640625 0 -1.046875 -0.4375q-0.40625 -0.453125 -0.40625 -1.515625l0 -2.78125l-3.234375 0z" fill-rule="nonzero"/><path fill="#000000" fill-opacity="0.0" d="m254.87924 217.83463l26.740173 0l0 27.23381l-26.740173 0z" fill-rule="evenodd"/><path stroke="#b7b7b7" stroke-width="1.0" stroke-linejoin="round" stroke-linecap="butt" d="m254.87924 217.83463l26.740173 0l0 27.23381l-26.740173 0z" fill-rule="evenodd"/><path fill="#000000" d="m271.8401 237.39278l-7.140625 0l-0.703125 1.78125l0.703125 0q1.0625 0 1.515625 0.40625q0.453125 0.40625 0.453125 1.078125q0 0.640625 -0.453125 1.046875q-0.453125 0.40625 -1.515625 0.40625l-3.953125 0q-1.046875 0 -1.5 -0.40625q-0.453125 -0.40625 -0.453125 -1.0625q0 -0.671875 0.46875 -1.078125q0.46875 -0.421875 1.5625 -0.390625l4.609375 -11.484375l-1.921875 0q-1.0625 0 -1.515625 -0.40625q-0.4375 -0.40625 -0.4375 -1.0625q0 -0.65625 0.4375 -1.0625q0.453125 -0.421875 1.515625 -0.421875l6.34375 0.015625l5.84375 14.421875q1.03125 0 1.359375 0.234375q0.65625 0.46875 0.65625 1.25q0 0.640625 -0.4375 1.046875q-0.4375 0.40625 -1.5 0.40625l-3.953125 0q-1.0625 0 -1.515625 -0.40625q-0.453125 -0.40625 -0.453125 -1.0625q0 -0.65625 0.453125 -1.0625q0.453125 -0.40625 1.515625 -0.40625l0.71875 0l-0.703125 -1.78125zm-1.21875 -2.9375l-2.359375 -5.8125l-2.375 5.8125l4.734375 0z" fill-rule="nonzero"/><path fill="#000000" fill-opacity="0.0" d="m281.61942 217.83463l26.740173 0l0 27.23381l-26.740173 0z" fill-rule="evenodd"/><path stroke="#b7b7b7" stroke-width="1.0" stroke-linejoin="round" stroke-linecap="butt" d="m281.61942 217.83463l26.740173 0l0 27.23381l-26.740173 0z" fill-rule="evenodd"/><path fill="#000000" d="m299.5959 225.50215q0.265625 -0.375 0.59375 -0.5625q0.328125 -0.1875 0.6875 -0.1875q0.65625 0 1.0625 0.453125q0.40625 0.4375 0.40625 1.5l0 2.484375q0 1.0625 -0.40625 1.515625q-0.40625 0.453125 -1.0625 0.453125q-0.578125 0 -0.9375 -0.328125q-0.359375 -0.328125 -0.53125 -1.234375q-0.09375 -0.609375 -0.40625 -0.9375q-0.578125 -0.640625 -1.640625 -1.015625q-1.046875 -0.390625 -2.109375 -0.390625q-1.3125 0 -2.421875 0.578125q-1.09375 0.5625 -1.9375 1.859375q-0.84375 1.28125 -0.84375 3.0625l0 1.90625q0 2.109375 1.53125 3.53125q1.546875 1.421875 4.28125 1.421875q1.625 0 2.765625 -0.453125q0.65625 -0.25 1.390625 -1.015625q0.46875 -0.453125 0.71875 -0.59375q0.265625 -0.140625 0.59375 -0.140625q0.578125 0 1.015625 0.453125q0.453125 0.4375 0.453125 1.046875q0 0.59375 -0.59375 1.28125q-0.875 1.0 -2.25 1.578125q-1.84375 0.765625 -4.078125 0.765625q-2.609375 0 -4.703125 -1.0625q-1.6875 -0.859375 -2.875 -2.71875q-1.1875 -1.859375 -1.1875 -4.046875l0 -1.984375q0 -2.296875 1.0625 -4.28125q1.0625 -1.984375 2.953125 -3.046875q1.890625 -1.078125 4.015625 -1.078125q1.265625 0 2.375 0.296875q1.109375 0.28125 2.078125 0.890625z" fill-rule="nonzero"/><path fill="#000000" fill-opacity="0.0" d="m308.3596 217.83463l26.740173 0l0 27.23381l-26.740173 0z" fill-rule="evenodd"/><path stroke="#b7b7b7" stroke-width="1.0" stroke-linejoin="round" stroke-linecap="butt" d="m308.3596 217.83463l26.740173 0l0 27.23381l-26.740173 0z" fill-rule="evenodd"/><path fill="#000000" d="m323.14853 227.68965l0 11.484375l1.984375 0q1.0625 0 1.5 0.40625q0.453125 0.40625 0.453125 1.078125q0 0.640625 -0.453125 1.046875q-0.4375 0.40625 -1.5 0.40625l-6.875 0q-1.0625 0 -1.515625 -0.40625q-0.453125 -0.40625 -0.453125 -1.0625q0 -0.65625 0.453125 -1.0625q0.453125 -0.40625 1.515625 -0.40625l1.96875 0l0 -11.484375l-3.1875 0l0 2.78125q0 1.0625 -0.40625 1.515625q-0.40625 0.4375 -1.0625 0.4375q-0.65625 0 -1.0625 -0.4375q-0.40625 -0.453125 -0.40625 -1.515625l0 -5.734375l15.203125 0.015625l0 5.71875q0 1.0625 -0.40625 1.515625q-0.40625 0.4375 -1.0625 0.4375q-0.640625 0 -1.046875 -0.4375q-0.40625 -0.453125 -0.40625 -1.515625l0 -2.78125l-3.234375 0z" fill-rule="nonzero"/><path fill="#000000" fill-opacity="0.0" d="m335.09976 217.83463l26.740143 0l0 27.23381l-26.740143 0z" fill-rule="evenodd"/><path stroke="#b7b7b7" stroke-width="1.0" stroke-linejoin="round" stroke-linecap="butt" d="m335.09976 217.83463l26.740143 0l0 27.23381l-26.740143 0z" fill-rule="evenodd"/><path fill="#000000" d="m352.06058 237.39278l-7.140625 0l-0.703125 1.78125l0.703125 0q1.0625 0 1.515625 0.40625q0.453125 0.40625 0.453125 1.078125q0 0.640625 -0.453125 1.046875q-0.453125 0.40625 -1.515625 0.40625l-3.953125 0q-1.046875 0 -1.5 -0.40625q-0.453125 -0.40625 -0.453125 -1.0625q0 -0.671875 0.46875 -1.078125q0.46875 -0.421875 1.5625 -0.390625l4.609375 -11.484375l-1.921875 0q-1.0625 0 -1.515625 -0.40625q-0.4375 -0.40625 -0.4375 -1.0625q0 -0.65625 0.4375 -1.0625q0.453125 -0.421875 1.515625 -0.421875l6.34375 0.015625l5.84375 14.421875q1.03125 0 1.359375 0.234375q0.65625 0.46875 0.65625 1.25q0 0.640625 -0.4375 1.046875q-0.4375 0.40625 -1.5 0.40625l-3.953125 0q-1.0625 0 -1.515625 -0.40625q-0.453125 -0.40625 -0.453125 -1.0625q0 -0.65625 0.453125 -1.0625q0.453125 -0.40625 1.515625 -0.40625l0.71875 0l-0.703125 -1.78125zm-1.21875 -2.9375l-2.359375 -5.8125l-2.375 5.8125l4.734375 0z" fill-rule="nonzero"/><path fill="#000000" fill-opacity="0.0" d="m361.8399 217.83463l26.740173 0l0 27.23381l-26.740173 0z" fill-rule="evenodd"/><path stroke="#b7b7b7" stroke-width="1.0" stroke-linejoin="round" stroke-linecap="butt" d="m361.8399 217.83463l26.740173 0l0 27.23381l-26.740173 0z" fill-rule="evenodd"/><path fill="#cc0000" d="m376.62888 227.68965l0 11.484375l1.984375 0q1.0625 0 1.5 0.40625q0.453125 0.40625 0.453125 1.078125q0 0.640625 -0.453125 1.046875q-0.4375 0.40625 -1.5 0.40625l-6.875 0q-1.0625 0 -1.515625 -0.40625q-0.453125 -0.40625 -0.453125 -1.0625q0 -0.65625 0.453125 -1.0625q0.453125 -0.40625 1.515625 -0.40625l1.96875 0l0 -11.484375l-3.1875 0l0 2.78125q0 1.0625 -0.40625 1.515625q-0.40625 0.4375 -1.0625 0.4375q-0.65625 0 -1.0625 -0.4375q-0.40625 -0.453125 -0.40625 -1.515625l0 -5.734375l15.203125 0.015625l0 5.71875q0 1.0625 -0.40625 1.515625q-0.40625 0.4375 -1.0625 0.4375q-0.640625 0 -1.046875 -0.4375q-0.40625 -0.453125 -0.40625 -1.515625l0 -2.78125l-3.234375 0z" fill-rule="nonzero"/><path fill="#000000" fill-opacity="0.0" d="m39.913387 56.212597l166.77165 0l0 53.322834l-166.77165 0z" fill-rule="evenodd"/><path fill="#000000" d="m71.49159 72.10822q2.609375 0 4.28125 1.375q1.671875 1.375 1.671875 3.859375q0 1.96875 -0.875 3.265625q-0.859375 1.296875 -2.609375 1.796875l0 0.046875q1.515625 0.296875 2.234375 1.421875q0.71875 1.109375 0.828125 3.8125q0.078125 1.75 0.328125 2.75q0.265625 1.0 0.78125 1.65625l-2.96875 0q-0.234375 -0.328125 -0.3125 -0.640625q-0.078125 -0.328125 -0.140625 -0.890625l-0.109375 -2.203125q-0.046875 -1.546875 -0.671875 -3.140625q-0.625 -1.609375 -2.734375 -1.671875l-6.578125 0l0 8.546875l-2.6562462 0l0 -19.984375l9.531246 0zm-1.1875 9.203125q2.21875 0 3.34375 -0.859375q1.140625 -0.875 1.140625 -2.703125q0 -1.609375 -0.921875 -2.5q-0.90625 -0.90625 -2.546875 -0.90625l-6.703125 0l0 6.96875l5.6875 0zm16.46289 -4.03125q3.109375 0 4.828125 2.25q1.734375 2.234375 1.734375 5.75l0 0.296875l-10.84375 0l0 0.171875q0 2.0625 1.203125 3.328125q1.203125 1.25 3.3125 1.25q1.578125 0 2.515625 -0.734375q0.9375 -0.734375 1.21875 -2.09375l2.359375 0q-0.484375 2.40625 -2.109375 3.671875q-1.625 1.265625 -4.078125 1.265625q-2.28125 0 -3.859375 -1.03125q-1.578125 -1.03125 -2.328125 -2.875q-0.75 -1.84375 -0.75 -3.765625q0 -3.203125 1.921875 -5.34375q1.9375 -2.140625 4.875 -2.140625zm-4.28125 6.1875l8.3125 0q-0.109375 -1.765625 -1.28125 -2.921875q-1.171875 -1.171875 -2.921875 -1.171875q-1.640625 0 -2.8125 1.109375q-1.15625 1.109375 -1.296875 2.984375zm18.257812 -11.59375q0.3125 0 0.796875 0.078125q0.484375 0.0625 0.765625 0.15625l0 2.0625q-0.265625 -0.09375 -0.671875 -0.140625q-0.390625 -0.046875 -0.671875 -0.046875q-1.0 0 -1.40625 0.40625q-0.40625 0.40625 -0.40625 1.140625l0 2.078125l2.796875 0l0 2.109375l-2.796875 0l0 12.375l-2.375 0l0 -12.375l-2.4375 0l0 -2.109375l2.4375 0l0 -2.25q0 -1.59375 1.0 -2.53125q1.0 -0.953125 2.96875 -0.953125zm9.347656 5.40625q3.109375 0 4.828125 2.25q1.734375 2.234375 1.734375 5.75l0 0.296875l-10.84375 0l0 0.171875q0 2.0625 1.203125 3.328125q1.203125 1.25 3.3125 1.25q1.578125 0 2.515625 -0.734375q0.9375 -0.734375 1.21875 -2.09375l2.359375 0q-0.484375 2.40625 -2.109375 3.671875q-1.625 1.265625 -4.078125 1.265625q-2.28125 0 -3.859375 -1.03125q-1.578125 -1.03125 -2.328125 -2.875q-0.75 -1.84375 -0.75 -3.765625q0 -3.203125 1.921875 -5.34375q1.9375 -2.140625 4.875 -2.140625zm-4.28125 6.1875l8.3125 0q-0.109375 -1.765625 -1.28125 -2.921875q-1.171875 -1.171875 -2.921875 -1.171875q-1.640625 0 -2.8125 1.109375q-1.15625 1.109375 -1.296875 2.984375zm20.507812 -6.203125q0.078125 0 0.140625 0q0.078125 0 0.1875 0.015625l0 2.515625q-2.6875 0 -3.96875 1.421875q-1.265625 1.421875 -1.265625 4.390625l0 6.484375l-2.390625 0l0 -14.484375l2.25 0l0 3.046875l0.046875 0q0.84375 -1.71875 2.0625 -2.546875q1.21875 -0.84375 2.9375 -0.84375zm7.6308594 0.015625q3.109375 0 4.828125 2.25q1.734375 2.234375 1.734375 5.75l0 0.296875l-10.84375 0l0 0.171875q0 2.0625 1.203125 3.328125q1.203125 1.25 3.3125 1.25q1.578125 0 2.515625 -0.734375q0.9375 -0.734375 1.21875 -2.09375l2.359375 0q-0.484375 2.40625 -2.109375 3.671875q-1.625 1.265625 -4.078125 1.265625q-2.28125 0 -3.859375 -1.03125q-1.578125 -1.03125 -2.328125 -2.875q-0.75 -1.84375 -0.75 -3.765625q0 -3.203125 1.921875 -5.34375q1.9375 -2.140625 4.875 -2.140625zm-4.28125 6.1875l8.3125 0q-0.109375 -1.765625 -1.28125 -2.921875q-1.171875 -1.171875 -2.921875 -1.171875q-1.640625 0 -2.8125 1.109375q-1.15625 1.109375 -1.296875 2.984375zm20.320312 -6.1875q2.609375 0 3.78125 1.34375q1.1875 1.34375 1.1875 3.828125l0 9.640625l-2.375 0l0 -9.890625q0 -1.21875 -0.796875 -2.015625q-0.78125 -0.8125 -2.171875 -0.8125q-2.015625 0 -3.140625 1.25q-1.125 1.234375 -1.125 3.203125l0 8.265625l-2.375 0l0 -14.484375l2.234375 0l0 2.296875l0.0625 0q0.78125 -1.34375 1.9375 -1.984375q1.15625 -0.640625 2.78125 -0.640625zm14.587891 0q2.65625 0 4.3125153 1.265625q1.65625 1.25 1.9375 3.71875l-2.453125 0q-0.296875 -1.40625 -1.2343903 -2.140625q-0.921875 -0.75 -2.34375 -0.75q-2.21875 0 -3.375 1.484375q-1.140625 1.484375 -1.140625 4.171875q0 2.40625 1.125 3.859375q1.140625 1.4375 3.09375 1.4375q1.734375 0 2.734375 -0.9375q1.0156403 -0.9375 1.2500153 -2.59375l2.4375 0q-0.40625 2.71875 -2.046875 4.1875q-1.6406403 1.453125 -4.3437653 1.453125q-3.15625 0 -4.96875 -1.984375q-1.796875 -2.0 -1.796875 -5.421875q0 -3.546875 1.8125 -5.640625q1.828125 -2.109375 5.0 -2.109375zm15.023453 0q3.109375 0 4.828125 2.25q1.734375 2.234375 1.734375 5.75l0 0.296875l-10.84375 0l0 0.171875q0 2.0625 1.203125 3.328125q1.203125 1.25 3.3125 1.25q1.578125 0 2.515625 -0.734375q0.9375 -0.734375 1.21875 -2.09375l2.359375 0q-0.484375 2.40625 -2.109375 3.671875q-1.625 1.265625 -4.078125 1.265625q-2.28125 0 -3.859375 -1.03125q-1.578125 -1.03125 -2.328125 -2.875q-0.75 -1.84375 -0.75 -3.765625q0 -3.203125 1.921875 -5.34375q1.9375 -2.140625 4.875 -2.140625zm-4.28125 6.1875l8.3125 0q-0.109375 -1.765625 -1.28125 -2.921875q-1.171875 -1.171875 -2.921875 -1.171875q-1.640625 0 -2.8125 1.109375q-1.15625 1.109375 -1.296875 2.984375z" fill-rule="nonzero"/><path fill="#000000" fill-opacity="0.0" d="m31.913366 123.874016l183.2441 0l0 53.322838l-183.2441 0z" fill-rule="evenodd"/><path fill="#000000" d="m56.35573 139.76964q2.75 0 4.375 1.484375q1.625 1.484375 1.625 4.421875q0 2.9375 -1.625 4.421875q-1.625 1.484375 -4.1875 1.484375l-6.421875 0l0 8.171875l-2.65625 0l0 -19.984375l8.890625 0zm-0.734375 9.5625q1.890625 0 2.984375 -0.890625q1.09375 -0.890625 1.09375 -2.765625q0 -1.84375 -1.078125 -2.75q-1.078125 -0.921875 -3.171875 -0.921875l-5.328125 0l0 7.328125l5.5 0zm14.669922 -4.390625q3.28125 0 5.140625 2.125q1.875 2.125 1.875 5.46875q0 3.375 -1.921875 5.46875q-1.90625 2.09375 -5.09375 2.09375q-3.15625 0 -5.09375 -2.0625q-1.9375 -2.0625 -1.9375 -5.5q0 -3.453125 1.890625 -5.515625q1.90625 -2.078125 5.140625 -2.078125zm-4.515625 7.59375q0 2.484375 1.265625 3.96875q1.28125 1.484375 3.25 1.484375q1.953125 0 3.21875 -1.484375q1.28125 -1.5 1.28125 -3.96875q0 -2.46875 -1.265625 -3.984375q-1.265625 -1.515625 -3.265625 -1.515625q-1.921875 0 -3.203125 1.484375q-1.28125 1.484375 -1.28125 4.015625zm21.46875 -7.59375q3.109375 0 4.890625 2.140625q1.78125 2.125 1.78125 5.484375q0 3.359375 -1.78125 5.453125q-1.765625 2.078125 -4.8125 2.078125q-1.359375 0 -2.65625 -0.5625q-1.28125 -0.5625 -2.03125 -1.703125l-0.0625 0l0 7.46875l-2.375 0l0 -20.03125l2.375 0l0 1.96875l0.0625 0q0.5625 -1.109375 1.765625 -1.703125q1.203125 -0.59375 2.84375 -0.59375zm-4.75 7.5625q0 2.515625 1.21875 4.0q1.21875 1.484375 3.34375 1.484375q2.0625 0 3.203125 -1.46875q1.140625 -1.484375 1.140625 -4.125q0 -2.328125 -1.203125 -3.84375q-1.203125 -1.515625 -3.296875 -1.515625q-2.09375 0 -3.25 1.53125q-1.15625 1.53125 -1.15625 3.9375zm16.597656 -7.234375l0 9.875q0 1.234375 0.78125 2.046875q0.796875 0.796875 2.171875 0.796875q2.046875 0 3.15625 -1.25q1.125 -1.25 1.125 -3.1875l0 -8.28125l2.375 0l0 14.484375l-2.234375 0l0 -2.296875l-0.0625 0q-0.796875 1.375 -1.984375 2.015625q-1.1875 0.625 -2.734375 0.625q-2.53125 0 -3.75 -1.296875q-1.21875 -1.3125 -1.21875 -3.875l0 -9.65625l2.375 0zm15.712891 -5.5l0 19.984375l-2.390625 0l0 -19.984375l2.390625 0zm9.626953 5.171875q2.953125 0 4.1875 1.0625q1.234375 1.046875 1.234375 2.8125q0 7.53125 0 8.359375q0 0.8125 0.75 0.8125q0.171875 0 0.359375 -0.03125q0.1875 -0.046875 0.359375 -0.109375l0 1.84375q-0.328125 0.203125 -0.765625 0.296875q-0.421875 0.109375 -0.921875 0.109375q-0.984375 0 -1.515625 -0.546875q-0.515625 -0.5625 -0.515625 -1.703125q-0.9375 1.125 -2.21875 1.6875q-1.28125 0.5625 -2.875 0.5625q-2.234375 0 -3.515625 -1.0625q-1.265625 -1.0625 -1.265625 -3.0q0 -1.953125 1.234375 -3.09375q1.25 -1.140625 5.859375 -1.71875q1.5625 -0.203125 2.109375 -0.59375q0.5625 -0.40625 0.5625 -1.203125q0 -1.203125 -0.78125 -1.796875q-0.765625 -0.59375 -2.453125 -0.59375q-1.765625 0 -2.65625 0.671875q-0.875 0.671875 -0.9375 2.078125l-2.375 0q0.109375 -2.40625 1.6875 -3.625q1.59375 -1.21875 4.453125 -1.21875zm-4.1875 10.921875q0 1.0 0.734375 1.5625q0.734375 0.5625 2.0625 0.5625q2.015625 0 3.21875 -1.0q1.203125 -1.0 1.203125 -2.21875l0 -2.5q-0.609375 0.421875 -1.5625 0.578125q-0.953125 0.15625 -2.546875 0.375q-1.578125 0.234375 -2.34375 0.859375q-0.765625 0.625 -0.765625 1.78125zm16.601562 -14.921875l0 4.328125l2.890625 0l0 2.109375l-2.890625 0l0 9.0625q0 1.078125 0.71875 1.140625q0.71875 0.0625 1.5 0.0625l0.671875 0l0 2.109375l-1.96875 0q-1.953125 0 -2.625 -0.6875q-0.671875 -0.703125 -0.671875 -2.34375l0 -9.34375l-2.46875 0l0 -2.109375l2.46875 0l0 -4.328125l2.375 0zm8.037109 -1.171875l0 2.90625l-2.390625 0l0 -2.90625l2.390625 0zm0 5.5l0 14.484375l-2.390625 0l0 -14.484375l2.390625 0zm9.955078 -0.328125q3.28125 0 5.1406097 2.125q1.875 2.125 1.875 5.46875q0 3.375 -1.921875 5.46875q-1.9062347 2.09375 -5.0937347 2.09375q-3.15625 0 -5.09375 -2.0625q-1.9375 -2.0625 -1.9375 -5.5q0 -3.453125 1.890625 -5.515625q1.90625 -2.078125 5.140625 -2.078125zm-4.515625 7.59375q0 2.484375 1.265625 3.96875q1.28125 1.484375 3.25 1.484375q1.953125 0 3.21875 -1.484375q1.28125 -1.5 1.28125 -3.96875q0 -2.46875 -1.265625 -3.984375q-1.265625 -1.515625 -3.265625 -1.515625q-1.921875 0 -3.203125 1.484375q-1.28125 1.484375 -1.28125 4.015625zm21.35936 -7.59375q2.609375 0 3.78125 1.34375q1.1875 1.34375 1.1875 3.828125l0 9.640625l-2.375 0l0 -9.890625q0 -1.21875 -0.796875 -2.015625q-0.78125 -0.8125 -2.171875 -0.8125q-2.015625 0 -3.140625 1.25q-1.125 1.234375 -1.125 3.203125l0 8.265625l-2.375 0l0 -14.484375l2.234375 0l0 2.296875l0.0625 0q0.78125 -1.34375 1.9375 -1.984375q1.15625 -0.640625 2.78125 -0.640625zm24.507812 -5.046875l0 19.859375l-2.375 0l0 -14.21875l-5.15625 0l0 -1.921875l0.078125 0q2.515625 0 3.890625 -0.890625q1.390625 -0.90625 1.75 -2.828125l1.8125 0z" fill-rule="nonzero"/><path fill="#000000" fill-opacity="0.0" d="m230.34383 125.4462l183.2441 0l0 53.32283l-183.2441 0z" fill-rule="evenodd"/><path fill="#000000" d="m254.7862 141.34181q2.75 0 4.375 1.484375q1.625 1.484375 1.625 4.421875q0 2.9375 -1.625 4.421875q-1.625 1.484375 -4.1875 1.484375l-6.421875 0l0 8.171875l-2.65625 0l0 -19.984375l8.890625 0zm-0.734375 9.5625q1.890625 0 2.984375 -0.890625q1.09375 -0.890625 1.09375 -2.765625q0 -1.84375 -1.078125 -2.75q-1.078125 -0.921875 -3.171875 -0.921875l-5.328125 0l0 7.328125l5.5 0zm14.669922 -4.390625q3.28125 0 5.140625 2.125q1.875 2.125 1.875 5.46875q0 3.375 -1.921875 5.46875q-1.90625 2.09375 -5.09375 2.09375q-3.15625 0 -5.09375 -2.0625q-1.9375 -2.0625 -1.9375 -5.5q0 -3.453125 1.890625 -5.515625q1.90625 -2.078125 5.140625 -2.078125zm-4.515625 7.59375q0 2.484375 1.265625 3.96875q1.28125 1.484375 3.25 1.484375q1.953125 0 3.21875 -1.484375q1.28125 -1.5 1.28125 -3.96875q0 -2.46875 -1.265625 -3.984375q-1.265625 -1.515625 -3.265625 -1.515625q-1.921875 0 -3.203125 1.484375q-1.28125 1.484375 -1.28125 4.015625zm21.46875 -7.59375q3.109375 0 4.890625 2.140625q1.78125 2.125 1.78125 5.484375q0 3.359375 -1.78125 5.453125q-1.765625 2.078125 -4.8125 2.078125q-1.359375 0 -2.65625 -0.5625q-1.28125 -0.5625 -2.03125 -1.703125l-0.0625 0l0 7.46875l-2.375 0l0 -20.03125l2.375 0l0 1.96875l0.0625 0q0.5625 -1.109375 1.765625 -1.703125q1.203125 -0.59375 2.84375 -0.59375zm-4.75 7.5625q0 2.515625 1.21875 4.0q1.21875 1.484375 3.34375 1.484375q2.0625 0 3.203125 -1.46875q1.140625 -1.484375 1.140625 -4.125q0 -2.328125 -1.203125 -3.84375q-1.203125 -1.515625 -3.296875 -1.515625q-2.09375 0 -3.25 1.53125q-1.15625 1.53125 -1.15625 3.9375zm16.597656 -7.234375l0 9.875q0 1.234375 0.78125 2.046875q0.796875 0.796875 2.171875 0.796875q2.046875 0 3.15625 -1.25q1.125 -1.25 1.125 -3.1875l0 -8.28125l2.375 0l0 14.484375l-2.234375 0l0 -2.296875l-0.0625 0q-0.796875 1.375 -1.984375 2.015625q-1.1875 0.625 -2.734375 0.625q-2.53125 0 -3.75 -1.296875q-1.21875 -1.3125 -1.21875 -3.875l0 -9.65625l2.375 0zm15.712891 -5.5l0 19.984375l-2.390625 0l0 -19.984375l2.390625 0zm9.626953 5.171875q2.953125 0 4.1875 1.0625q1.234375 1.046875 1.234375 2.8125q0 7.53125 0 8.359375q0 0.8125 0.75 0.8125q0.171875 0 0.359375 -0.03125q0.1875 -0.046875 0.359375 -0.109375l0 1.84375q-0.328125 0.203125 -0.765625 0.296875q-0.421875 0.109375 -0.921875 0.109375q-0.984375 0 -1.515625 -0.546875q-0.515625 -0.5625 -0.515625 -1.703125q-0.9375 1.125 -2.21875 1.6875q-1.28125 0.5625 -2.875 0.5625q-2.234375 0 -3.515625 -1.0625q-1.265625 -1.0625 -1.265625 -3.0q0 -1.953125 1.234375 -3.09375q1.25 -1.140625 5.859375 -1.71875q1.5625 -0.203125 2.109375 -0.59375q0.5625 -0.40625 0.5625 -1.203125q0 -1.203125 -0.78125 -1.796875q-0.765625 -0.59375 -2.453125 -0.59375q-1.765625 0 -2.65625 0.671875q-0.875 0.671875 -0.9375 2.078125l-2.375 0q0.109375 -2.40625 1.6875 -3.625q1.59375 -1.21875 4.453125 -1.21875zm-4.1875 10.921875q0 1.0 0.734375 1.5625q0.734375 0.5625 2.0625 0.5625q2.015625 0 3.21875 -1.0q1.203125 -1.0 1.203125 -2.21875l0 -2.5q-0.609375 0.421875 -1.5625 0.578125q-0.953125 0.15625 -2.546875 0.375q-1.578125 0.234375 -2.34375 0.859375q-0.765625 0.625 -0.765625 1.78125zm16.601562 -14.921875l0 4.328125l2.890625 0l0 2.109375l-2.890625 0l0 9.0625q0 1.078125 0.71875 1.140625q0.71875 0.0625 1.5 0.0625l0.671875 0l0 2.109375l-1.96875 0q-1.953125 0 -2.625 -0.6875q-0.671875 -0.703125 -0.671875 -2.34375l0 -9.34375l-2.46875 0l0 -2.109375l2.46875 0l0 -4.328125l2.375 0zm8.037109 -1.171875l0 2.90625l-2.390625 0l0 -2.90625l2.390625 0zm0 5.5l0 14.484375l-2.390625 0l0 -14.484375l2.390625 0zm9.955078 -0.328125q3.28125 0 5.140625 2.125q1.875 2.125 1.875 5.46875q0 3.375 -1.921875 5.46875q-1.90625 2.09375 -5.09375 2.09375q-3.15625 0 -5.09375 -2.0625q-1.9375 -2.0625 -1.9375 -5.5q0 -3.453125 1.890625 -5.515625q1.90625 -2.078125 5.140625 -2.078125zm-4.515625 7.59375q0 2.484375 1.265625 3.96875q1.28125 1.484375 3.25 1.484375q1.953125 0 3.21875 -1.484375q1.28125 -1.5 1.28125 -3.96875q0 -2.46875 -1.265625 -3.984375q-1.265625 -1.515625 -3.265625 -1.515625q-1.921875 0 -3.203125 1.484375q-1.28125 1.484375 -1.28125 4.015625zm21.359375 -7.59375q2.609375 0 3.78125 1.34375q1.1875 1.34375 1.1875 3.828125l0 9.640625l-2.375 0l0 -9.890625q0 -1.21875 -0.796875 -2.015625q-0.78125 -0.8125 -2.171875 -0.8125q-2.015625 0 -3.140625 1.25q-1.125 1.234375 -1.125 3.203125l0 8.265625l-2.375 0l0 -14.484375l2.234375 0l0 2.296875l0.0625 0q0.78125 -1.34375 1.9375 -1.984375q1.15625 -0.640625 2.78125 -0.640625zm22.148438 -5.046875q2.75 0 4.484375 1.5625q1.75 1.546875 1.75 4.15625q0 2.046875 -1.15625 3.703125q-1.140625 1.65625 -4.859375 3.8125q-2.28125 1.3125 -3.234375 2.359375q-0.9375 1.03125 -1.140625 2.15625l10.171875 0l0 2.109375l-12.953125 0q0.203125 -2.46875 1.265625 -4.328125q1.078125 -1.859375 4.03125 -3.609375q3.46875 -2.125 4.40625 -3.328125q0.9375 -1.203125 0.9375 -2.890625q0 -1.546875 -1.09375 -2.5625q-1.09375 -1.03125 -2.734375 -1.03125q-1.796875 0 -2.84375 1.34375q-1.03125 1.328125 -1.03125 3.390625l0 0.1875l-2.375 0l-0.015625 -0.484375q0 -2.953125 1.75 -4.75q1.75 -1.796875 4.640625 -1.796875z" fill-rule="nonzero"/><path fill="#000000" d="m105.63449 208.73228l0 0c0 -1.165451 0.9447861 -2.1102448 2.1102371 -2.1102448l0 0c0.5596695 0 1.0964203 0.22233582 1.4921646 0.61808777c0.39574432 0.3957367 0.6180725 0.93247986 0.6180725 1.492157l0 0c0 1.165451 -0.9447861 2.1102295 -2.1102371 2.1102295l0 0c-1.165451 0 -2.1102371 -0.94477844 -2.1102371 -2.1102295z" fill-rule="evenodd"/><path stroke="#000000" stroke-width="1.0" stroke-linejoin="round" stroke-linecap="butt" d="m105.63449 208.73228l0 0c0 -1.165451 0.9447861 -2.1102448 2.1102371 -2.1102448l0 0c0.5596695 0 1.0964203 0.22233582 1.4921646 0.61808777c0.39574432 0.3957367 0.6180725 0.93247986 0.6180725 1.492157l0 0c0 1.165451 -0.9447861 2.1102295 -2.1102371 2.1102295l0 0c-1.165451 0 -2.1102371 -0.94477844 -2.1102371 -2.1102295z" fill-rule="evenodd"/><path fill="#000000" d="m121.63449 208.79921l0 0c0 -1.165451 0.9447861 -2.1102295 2.1102371 -2.1102295l0 0c0.5596695 0 1.0964203 0.22232056 1.4921646 0.6180725c0.39574432 0.3957367 0.6180725 0.9324951 0.6180725 1.492157l0 0c0 1.165451 -0.9447861 2.1102448 -2.1102371 2.1102448l0 0c-1.165451 0 -2.1102371 -0.9447937 -2.1102371 -2.1102448z" fill-rule="evenodd"/><path stroke="#000000" stroke-width="1.0" stroke-linejoin="round" stroke-linecap="butt" d="m121.63449 208.79921l0 0c0 -1.165451 0.9447861 -2.1102295 2.1102371 -2.1102295l0 0c0.5596695 0 1.0964203 0.22232056 1.4921646 0.6180725c0.39574432 0.3957367 0.6180725 0.9324951 0.6180725 1.492157l0 0c0 1.165451 -0.9447861 2.1102448 -2.1102371 2.1102448l0 0c-1.165451 0 -2.1102371 -0.9447937 -2.1102371 -2.1102448z" fill-rule="evenodd"/><path fill="#000000" d="m137.63449 208.7979l0 0c0 -1.165451 0.9447937 -2.1102295 2.1102448 -2.1102295l0 0c0.55966187 0 1.096405 0.22232056 1.492157 0.6180725c0.39575195 0.3957367 0.6180725 0.9324951 0.6180725 1.492157l0 0c0 1.165451 -0.94477844 2.1102448 -2.1102295 2.1102448l0 0c-1.165451 0 -2.1102448 -0.9447937 -2.1102448 -2.1102448z" fill-rule="evenodd"/><path stroke="#000000" stroke-width="1.0" stroke-linejoin="round" stroke-linecap="butt" d="m137.63449 208.7979l0 0c0 -1.165451 0.9447937 -2.1102295 2.1102448 -2.1102295l0 0c0.55966187 0 1.096405 0.22232056 1.492157 0.6180725c0.39575195 0.3957367 0.6180725 0.9324951 0.6180725 1.492157l0 0c0 1.165451 -0.94477844 2.1102448 -2.1102295 2.1102448l0 0c-1.165451 0 -2.1102448 -0.9447937 -2.1102448 -2.1102448z" fill-rule="evenodd"/><path fill="#000000" d="m304.06494 210.1017l0 0c0 -1.165451 0.9447937 -2.1102448 2.1102295 -2.1102448l0 0c0.55966187 0 1.0964355 0.22233582 1.492157 0.6180725c0.39575195 0.39575195 0.6180725 0.9324951 0.6180725 1.4921722l0 0c0 1.165451 -0.9447632 2.1102295 -2.1102295 2.1102295l0 0c-1.1654358 0 -2.1102295 -0.94477844 -2.1102295 -2.1102295z" fill-rule="evenodd"/><path stroke="#000000" stroke-width="1.0" stroke-linejoin="round" stroke-linecap="butt" d="m304.06494 210.1017l0 0c0 -1.165451 0.9447937 -2.1102448 2.1102295 -2.1102448l0 0c0.55966187 0 1.0964355 0.22233582 1.492157 0.6180725c0.39575195 0.39575195 0.6180725 0.9324951 0.6180725 1.4921722l0 0c0 1.165451 -0.9447632 2.1102295 -2.1102295 2.1102295l0 0c-1.1654358 0 -2.1102295 -0.94477844 -2.1102295 -2.1102295z" fill-rule="evenodd"/><path fill="#000000" d="m320.06494 210.16862l0 0c0 -1.165451 0.9447937 -2.1102448 2.1102295 -2.1102448l0 0c0.55966187 0 1.0964355 0.22233582 1.492157 0.61808777c0.39575195 0.3957367 0.6180725 0.93247986 0.6180725 1.492157l0 0c0 1.165451 -0.9447632 2.1102295 -2.1102295 2.1102295l0 0c-1.1654358 0 -2.1102295 -0.94477844 -2.1102295 -2.1102295z" fill-rule="evenodd"/><path stroke="#000000" stroke-width="1.0" stroke-linejoin="round" stroke-linecap="butt" d="m320.06494 210.16862l0 0c0 -1.165451 0.9447937 -2.1102448 2.1102295 -2.1102448l0 0c0.55966187 0 1.0964355 0.22233582 1.492157 0.61808777c0.39575195 0.3957367 0.6180725 0.93247986 0.6180725 1.492157l0 0c0 1.165451 -0.9447632 2.1102295 -2.1102295 2.1102295l0 0c-1.1654358 0 -2.1102295 -0.94477844 -2.1102295 -2.1102295z" fill-rule="evenodd"/><path fill="#000000" d="m336.06494 210.16731l0 0c0 -1.165451 0.9447937 -2.1102448 2.1102295 -2.1102448l0 0c0.55966187 0 1.0964355 0.22233582 1.492157 0.61808777c0.39575195 0.3957367 0.6180725 0.93247986 0.6180725 1.492157l0 0c0 1.165451 -0.9447632 2.1102295 -2.1102295 2.1102295l0 0c-1.1654358 0 -2.1102295 -0.94477844 -2.1102295 -2.1102295z" fill-rule="evenodd"/><path stroke="#000000" stroke-width="1.0" stroke-linejoin="round" stroke-linecap="butt" d="m336.06494 210.16731l0 0c0 -1.165451 0.9447937 -2.1102448 2.1102295 -2.1102448l0 0c0.55966187 0 1.0964355 0.22233582 1.492157 0.61808777c0.39575195 0.3957367 0.6180725 0.93247986 0.6180725 1.492157l0 0c0 1.165451 -0.9447632 2.1102295 -2.1102295 2.1102295l0 0c-1.1654358 0 -2.1102295 -0.94477844 -2.1102295 -2.1102295z" fill-rule="evenodd"/><path fill="#000000" fill-opacity="0.0" d="m48.165356 246.79239c-2.0699806 0 -3.7480316 -1.6780396 -3.7480316 -3.7480316l0 -30.393692c0 -2.069992 -1.678051 -3.7480316 -3.7480316 -3.7480316l0 0c2.0699806 0 3.7480316 -1.6780548 3.7480316 -3.7480316l0 -30.393707l0 0c0 -2.0699768 1.678051 -3.7480316 3.7480316 -3.7480316z" fill-rule="evenodd"/><path fill="#000000" fill-opacity="0.0" d="m48.165356 246.79239c-2.0699806 0 -3.7480316 -1.6780396 -3.7480316 -3.7480316l0 -30.393692c0 -2.069992 -1.678051 -3.7480316 -3.7480316 -3.7480316l0 0c2.0699806 0 3.7480316 -1.6780548 3.7480316 -3.7480316l0 -30.393707l0 0c0 -2.0699768 1.678051 -3.7480316 3.7480316 -3.7480316" fill-rule="evenodd"/><path stroke="#000000" stroke-width="2.0" stroke-linejoin="round" stroke-linecap="butt" d="m48.165356 246.79239c-2.0699806 0 -3.7480316 -1.6780396 -3.7480316 -3.7480316l0 -30.393692c0 -2.069992 -1.678051 -3.7480316 -3.7480316 -3.7480316l0 0c2.0699806 0 3.7480316 -1.6780548 3.7480316 -3.7480316l0 -30.393707l0 0c0 -2.0699768 1.678051 -3.7480316 3.7480316 -3.7480316" fill-rule="evenodd"/><path fill="#000000" fill-opacity="0.0" d="m246.5958 248.03674c-2.0699768 0 -3.7480316 -1.6780548 -3.7480316 -3.7480316l0 -30.393707c0 -2.0699768 -1.6780396 -3.7480316 -3.7480316 -3.7480316l0 0c2.069992 0 3.7480316 -1.6780548 3.7480316 -3.7480316l0 -30.393692l0 0c0 -2.069992 1.6780548 -3.7480316 3.7480316 -3.7480316z" fill-rule="evenodd"/><path fill="#000000" fill-opacity="0.0" d="m246.5958 248.03674c-2.0699768 0 -3.7480316 -1.6780548 -3.7480316 -3.7480316l0 -30.393707c0 -2.0699768 -1.6780396 -3.7480316 -3.7480316 -3.7480316l0 0c2.069992 0 3.7480316 -1.6780548 3.7480316 -3.7480316l0 -30.393692l0 0c0 -2.069992 1.6780548 -3.7480316 3.7480316 -3.7480316" fill-rule="evenodd"/><path stroke="#000000" stroke-width="2.0" stroke-linejoin="round" stroke-linecap="butt" d="m246.5958 248.03674c-2.0699768 0 -3.7480316 -1.6780548 -3.7480316 -3.7480316l0 -30.393707c0 -2.0699768 -1.6780396 -3.7480316 -3.7480316 -3.7480316l0 0c2.069992 0 3.7480316 -1.6780548 3.7480316 -3.7480316l0 -30.393692l0 0c0 -2.069992 1.6780548 -3.7480316 3.7480316 -3.7480316" fill-rule="evenodd"/><path fill="#000000" fill-opacity="0.0" d="m4.0760217 183.62993l43.937008 0l0 50.078735l-43.937008 0z" fill-rule="evenodd"/><path fill="#000000" d="m22.277588 203.5593q2.359375 0 3.421875 1.21875q1.078125 1.203125 1.078125 3.453125l0 8.71875l-2.15625 0l0 -8.9375q0 -1.109375 -0.71875 -1.828125q-0.703125 -0.734375 -1.96875 -0.734375q-1.8125 0 -2.84375 1.125q-1.015625 1.109375 -1.015625 2.890625l0 7.484375l-2.140624 0l0 -13.09375l2.015624 0l0 2.078125l0.0625 0q0.71875 -1.234375 1.75 -1.796875q1.046875 -0.578125 2.515625 -0.578125z" fill-rule="nonzero"/><path fill="#000000" d="m34.39514 214.48117l0 11.96875l-1.421875 0l0 -8.5625l-3.109375 0l0 -1.15625l0.046875 0q1.515625 0 2.34375 -0.546875q0.84375 -0.546875 1.046875 -1.703125l1.09375 0z" fill-rule="nonzero"/><path fill="#000000" fill-opacity="0.0" d="m202.32323 185.12437l43.93701 0l0 50.07875l-43.93701 0z" fill-rule="evenodd"/><path fill="#000000" d="m220.5248 205.05376q2.359375 0 3.421875 1.21875q1.078125 1.203125 1.078125 3.453125l0 8.71875l-2.15625 0l0 -8.9375q0 -1.109375 -0.71875 -1.828125q-0.703125 -0.734375 -1.96875 -0.734375q-1.8125 0 -2.84375 1.125q-1.015625 1.109375 -1.015625 2.890625l0 7.484375l-2.140625 0l0 -13.09375l2.015625 0l0 2.078125l0.0625 0q0.71875 -1.234375 1.75 -1.796875q1.046875 -0.578125 2.515625 -0.578125z" fill-rule="nonzero"/><path fill="#000000" d="m231.2361 215.97563q1.65625 0 2.703125 0.9375q1.046875 0.9375 1.046875 2.515625q0 1.234375 -0.703125 2.234375q-0.6875 0.984375 -2.921875 2.28125q-1.375 0.796875 -1.953125 1.421875q-0.5625 0.625 -0.6875 1.3125l6.140625 0l0 1.265625l-7.8125 0q0.125 -1.484375 0.765625 -2.609375q0.65625 -1.125 2.421875 -2.171875q2.09375 -1.28125 2.65625 -2.0q0.5625 -0.734375 0.5625 -1.75q0 -0.9375 -0.65625 -1.546875q-0.65625 -0.609375 -1.65625 -0.609375q-1.078125 0 -1.703125 0.796875q-0.625 0.796875 -0.625 2.046875l0 0.109375l-1.4375 0l0 -0.296875q0 -1.78125 1.046875 -2.859375q1.0625 -1.078125 2.8125 -1.078125z" fill-rule="nonzero"/><path fill="#000000" fill-opacity="0.0" d="m38.04987 6.0104985l367.0551 0l0 66.267715l-367.0551 0z" fill-rule="evenodd"/><path fill="#000000" d="m116.70446 23.880497q4.484375 0 7.796875 2.59375q3.328125 2.59375 3.8437576 7.140625l-5.7968826 0q-0.578125 -2.328125 -2.109375 -3.484375q-1.53125 -1.15625 -3.71875 -1.15625q-3.609375 0 -5.5625 2.609375q-1.953125 2.609375 -1.953125 6.859375q0 4.015625 1.9375 6.625q1.9375 2.609375 5.578125 2.609375q2.90625 0 4.59375 -1.484375q1.6875 -1.484375 1.96875 -4.46875l-6.109375 0l0 -4.53125l11.609383 0l0 14.9375l-3.8750076 0l-0.625 -3.109375q-1.484375 1.859375 -3.375 2.8125q-1.890625 0.953125 -4.203125 0.953125q-3.953125 0 -7.078125 -1.8125q-3.109375 -1.828125 -4.796875 -5.140625q-1.6875 -3.328125 -1.6875 -7.390625q0 -6.375 3.71875 -10.46875q3.71875 -4.09375 9.84375 -4.09375zm25.628822 7.734375q4.4375 0 7.078125 3.046875q2.65625 3.046875 2.65625 7.78125l-0.03125 1.03125l-14.421875 0q0.109375 2.578125 1.34375 3.828125q1.234375 1.234375 3.546875 1.234375q1.484375 0 2.75 -0.75q1.265625 -0.765625 1.609375 -1.84375l4.828125 0q-1.109375 3.390625 -3.4375 5.0625q-2.3125 1.671875 -5.921875 1.671875q-4.625 0 -7.421875 -2.921875q-2.796875 -2.921875 -2.796875 -7.59375q0 -4.46875 2.859375 -7.5q2.859375 -3.046875 7.359375 -3.046875zm-4.71875 8.375l8.921875 0q-0.390625 -2.203125 -1.421875 -3.21875q-1.03125 -1.03125 -2.96875 -1.03125q-2.0 0 -3.171875 1.140625q-1.171875 1.125 -1.359375 3.109375zm29.134644 -8.375q3.84375 0 5.5625 1.9375q1.734375 1.9375 1.734375 6.078125l0 12.5l-5.5 0l0 -11.453125q0 -2.34375 -0.8125 -3.53125q-0.796875 -1.203125 -2.703125 -1.203125q-2.28125 0 -3.28125 1.359375q-0.984375 1.34375 -0.984375 4.15625l0 10.671875l-5.46875 0l0 -19.984375l5.203125 0l0 2.796875l0.125 0q1.0 -1.609375 2.59375 -2.46875q1.609375 -0.859375 3.53125 -0.859375zm20.695648 0q4.4375 0 7.078125 3.046875q2.65625 3.046875 2.65625 7.78125l-0.03125 1.03125l-14.421875 0q0.109375 2.578125 1.34375 3.828125q1.234375 1.234375 3.546875 1.234375q1.484375 0 2.75 -0.75q1.265625 -0.765625 1.609375 -1.84375l4.828125 0q-1.109375 3.390625 -3.4375 5.0625q-2.3125 1.671875 -5.921875 1.671875q-4.625 0 -7.421875 -2.921875q-2.796875 -2.921875 -2.796875 -7.59375q0 -4.46875 2.859375 -7.5q2.859375 -3.046875 7.359375 -3.046875zm-4.71875 8.375l8.921875 0q-0.390625 -2.203125 -1.421875 -3.21875q-1.03125 -1.03125 -2.96875 -1.03125q-2.0 0 -3.171875 1.140625q-1.171875 1.125 -1.359375 3.109375zm24.634644 -13.828125l0 5.984375l4.015625 0l0 3.671875l-4.015625 0l0 10.03125q0 1.21875 0.453125 1.703125q0.46875 0.484375 1.859375 0.484375q0.46875 0 0.90625 -0.03125q0.4375 -0.046875 0.796875 -0.125l0 4.28125q-0.6875 0.125 -1.53125 0.15625q-0.828125 0.03125 -1.640625 0.03125q-3.5625 0 -4.953125 -1.203125q-1.390625 -1.21875 -1.390625 -3.40625l0 -11.921875l-3.328125 0l0 -3.671875l3.328125 0l0 -5.984375l5.5 0zm12.296448 -1.625l0 4.515625l-5.484375 0l0 -4.515625l5.484375 0zm0 7.609375l0 19.984375l-5.484375 0l0 -19.984375l5.484375 0zm13.903564 -0.53125q3.859375 0 6.515625 2.0q2.65625 2.0 2.875 5.5625l-5.375 0q-0.25 -1.71875 -1.265625 -2.578125q-1.015625 -0.859375 -2.796875 -0.859375q-2.203125 0 -3.4375 1.8125q-1.21875 1.8125 -1.21875 4.6875q0 2.875 1.203125 4.59375q1.203125 1.703125 3.34375 1.703125q1.828125 0 2.953125 -1.046875q1.140625 -1.046875 1.421875 -3.015625l5.28125 0q-0.546875 3.953125 -3.09375 6.078125q-2.546875 2.125 -6.53125 2.125q-4.453125 0 -7.265625 -2.859375q-2.8125 -2.859375 -2.8125 -7.390625q0 -4.84375 2.765625 -7.828125q2.765625 -2.984375 7.4375 -2.984375zm36.030853 -7.078125q5.5 0 8.921875 3.59375q3.421875 3.59375 3.421875 10.046875q0 6.453125 -3.34375 10.203125q-3.34375 3.75 -9.0 3.75l-12.109375 0l0 -27.59375l12.109375 0zm-0.484375 22.5q2.90625 0 4.828125 -2.078125q1.921875 -2.09375 1.921875 -6.234375q0 -4.765625 -2.0 -6.921875q-2.0 -2.171875 -5.796875 -2.171875l-4.5 0l0 17.40625l5.546875 0zm25.63681 -15.421875q4.4375 0 6.59375 1.453125q2.171875 1.453125 2.171875 4.09375l0 10.71875q0 1.21875 0.15625 2.421875q0.15625 1.203125 0.53125 1.828125l-5.5625 0q-0.15625 -0.453125 -0.265625 -0.9375q-0.09375 -0.484375 -0.125 -0.96875q-1.15625 1.1875 -2.875 1.828125q-1.703125 0.625 -3.84375 0.625q-3.109375 0 -4.953125 -1.546875q-1.84375 -1.5625 -1.84375 -4.453125q0 -2.796875 1.734375 -4.28125q1.734375 -1.484375 6.328125 -1.984375q3.1875 -0.3125 4.203125 -0.78125q1.015625 -0.484375 1.015625 -1.671875q0 -1.34375 -0.78125 -2.015625q-0.78125 -0.671875 -2.75 -0.671875q-1.6875 0 -2.59375 0.734375q-0.90625 0.71875 -1.0625 2.296875l-5.5 0q0.234375 -3.296875 2.71875 -4.984375q2.484375 -1.703125 6.703125 -1.703125zm-4.546875 14.828125q0 1.1875 0.8125 1.875q0.8125 0.671875 2.5625 0.671875q2.1875 0 3.3125 -1.140625q1.125 -1.15625 1.125 -3.359375l0 -2.140625q-0.484375 0.40625 -1.296875 0.609375q-0.796875 0.1875 -2.890625 0.484375q-1.875 0.25 -2.75 0.984375q-0.875 0.71875 -0.875 2.015625zm24.525269 -20.28125l0 5.984375l4.015625 0l0 3.671875l-4.015625 0l0 10.03125q0 1.21875 0.453125 1.703125q0.46875 0.484375 1.859375 0.484375q0.46875 0 0.90625 -0.03125q0.4375 -0.046875 0.796875 -0.125l0 4.28125q-0.6875 0.125 -1.53125 0.15625q-0.828125 0.03125 -1.640625 0.03125q-3.5625 0 -4.953125 -1.203125q-1.390625 -1.21875 -1.390625 -3.40625l0 -11.921875l-3.328125 0l0 -3.671875l3.328125 0l0 -5.984375l5.5 0zm15.827698 5.453125q4.4375 0 6.59375 1.453125q2.171875 1.453125 2.171875 4.09375l0 10.71875q0 1.21875 0.15625 2.421875q0.15625 1.203125 0.53125 1.828125l-5.5625 0q-0.15625 -0.453125 -0.265625 -0.9375q-0.09375 -0.484375 -0.125 -0.96875q-1.15625 1.1875 -2.875 1.828125q-1.703125 0.625 -3.84375 0.625q-3.109375 0 -4.953125 -1.546875q-1.84375 -1.5625 -1.84375 -4.453125q0 -2.796875 1.734375 -4.28125q1.734375 -1.484375 6.328125 -1.984375q3.1875 -0.3125 4.203125 -0.78125q1.015625 -0.484375 1.015625 -1.671875q0 -1.34375 -0.78125 -2.015625q-0.78125 -0.671875 -2.75 -0.671875q-1.6875 0 -2.59375 0.734375q-0.90625 0.71875 -1.0625 2.296875l-5.5 0q0.234375 -3.296875 2.71875 -4.984375q2.484375 -1.703125 6.703125 -1.703125zm-4.546875 14.828125q0 1.1875 0.8125 1.875q0.8125 0.671875 2.5625 0.671875q2.1875 0 3.3125 -1.140625q1.125 -1.15625 1.125 -3.359375l0 -2.140625q-0.484375 0.40625 -1.296875 0.609375q-0.796875 0.1875 -2.890625 0.484375q-1.875 0.25 -2.75 0.984375q-0.875 0.71875 -0.875 2.015625z" fill-rule="nonzero"/></g></svg>