<svg version="1.1" viewBox="0.0 0.0 1604.0761154855643 824.0" fill="none" stroke="none" stroke-linecap="square" stroke-miterlimit="10" xmlns:xlink="http://www.w3.org/1999/xlink" xmlns="http://www.w3.org/2000/svg"><clipPath id="p.0"><path d="m0 0l1604.0762 0l0 824.0l-1604.0762 0l0 -824.0z" clip-rule="nonzero"/></clipPath><g clip-path="url(#p.0)"><path fill="#000000" fill-opacity="0.0" d="m0 0l1604.0762 0l0 824.0l-1604.0762 0z" fill-rule="evenodd"/><path fill="#000000" fill-opacity="0.0" d="m1096.6168 381.01575c25.729736 0 53.746826 84.22833 51.45935 168.45667c-2.2873535 84.22839 -34.879272 168.45673 -69.758545 168.45673" fill-rule="evenodd"/><path stroke="#000000" stroke-width="4.0" stroke-linejoin="round" stroke-linecap="butt" d="m1096.6168 381.01575c25.729614 0 53.746826 84.22833 51.45935 168.45667c-1.1436768 42.114197 -9.863525 84.22839 -22.657349 115.814026c-6.3969727 15.792786 -13.812256 28.953491 -21.808472 38.166016c-0.9995117 1.1514893 -2.0080566 2.241333 -3.0249023 3.2669678c-0.1270752 0.12817383 -0.25427246 0.2553711 -0.3815918 0.38153076l-0.31445312 0.30871582" fill-rule="evenodd"/><path fill="#000000" stroke="#000000" stroke-width="4.0" stroke-linecap="butt" d="m1096.9935 701.47125l-13.419922 13.894836l19.21167 -2.0178833z" fill-rule="evenodd"/></g></svg>