<svg version="1.1" viewBox="0.0 0.0 1604.0761154855643 824.0" fill="none" stroke="none" stroke-linecap="square" stroke-miterlimit="10" xmlns:xlink="http://www.w3.org/1999/xlink" xmlns="http://www.w3.org/2000/svg"><clipPath id="p.0"><path d="m0 0l1604.0762 0l0 824.0l-1604.0762 0l0 -824.0z" clip-rule="nonzero"/></clipPath><g clip-path="url(#p.0)"><path fill="#000000" fill-opacity="0.0" d="m0 0l1604.0762 0l0 824.0l-1604.0762 0z" fill-rule="evenodd"/><defs><linearGradient id="p.1" gradientUnits="userSpaceOnUse" gradientTransform="matrix(0.0 -10.330004580270657 10.330004580270657 0.0 0.0 0.0)" spreadMethod="pad" x1="-64.94561025896385" y1="4.508151011318552" x2="-64.9456499593322" y2="14.838155591512919"><stop offset="0.0" stop-color="#17becf" stop-opacity="0.0"/><stop offset="1.0" stop-color="#17becf"/></linearGradient></defs><path fill="url(#p.1)" d="m46.569553 670.8884l0 -91.590515l106.708664 0l0 91.590515z" fill-rule="evenodd"/><path fill="#17becf" d="m153.26772 761.3268l0 -91.590576l150.4882 0l0 91.590576z" fill-rule="evenodd"/><path fill="#17becf" d="m153.26772 582.96716l0 -43.24408l150.4882 0l0 43.24408z" fill-rule="evenodd"/><path fill="#000000" fill-opacity="0.0" d="m199.09973 581.77295l0 85.921265" fill-rule="evenodd"/><path stroke="#000000" stroke-width="3.0" stroke-linejoin="round" stroke-linecap="butt" d="m199.09973 581.77295l0 67.921265" fill-rule="evenodd"/><path fill="#000000" stroke="#000000" stroke-width="3.0" stroke-linecap="butt" d="m194.14455 649.6942l4.955185 13.614319l4.9552 -13.614319z" fill-rule="evenodd"/><path fill="#000000" fill-opacity="0.0" d="m255.09973 583.8191l0 85.921265" fill-rule="evenodd"/><path stroke="#000000" stroke-width="3.0" stroke-linejoin="round" stroke-linecap="butt" d="m255.09973 601.8191l0 67.921265" fill-rule="evenodd"/><path fill="#000000" stroke="#000000" stroke-width="3.0" stroke-linecap="butt" d="m260.05493 601.8191l-4.9552 -13.614258l-4.955185 13.614258z" fill-rule="evenodd"/><path fill="#000000" fill-opacity="0.0" d="m67.068245 591.31366l86.92913 0l0 56.566895l-86.92913 0z" fill-rule="evenodd"/><path fill="#000000" d="m78.39637 629.75366l0 -21.9375l2.984375 0l11.53125 17.21875l0 -17.21875l2.78125 0l0 21.9375l-2.984375 0l-11.515625 -17.25l0 17.25l-2.796875 0z" fill-rule="nonzero"/><path fill="#000000" d="m98.17596 641.25366l5.625 -14.625l2.078125 0l5.984375 14.625l-2.203125 0l-1.703125 -4.4375l-6.125 0l-1.59375 4.4375l-2.0625 0zm4.21875 -6.0l4.96875 0l-1.53125 -4.0625q-0.703125 -1.84375 -1.03125 -3.03125q-0.28125 1.40625 -0.796875 2.796875l-1.609375 4.296875zm11.006653 6.0l0 -14.625l1.984375 0l7.6875 11.484375l0 -11.484375l1.84375 0l0 14.625l-1.984375 0l-7.6875 -11.5l0 11.5l-1.84375 0zm25.212425 -5.125l1.9375 0.484375q-0.609375 2.390625 -2.203125 3.640625q-1.578125 1.25 -3.859375 1.25q-2.359375 0 -3.84375 -0.953125q-1.484375 -0.96875 -2.265625 -2.796875q-0.7656174 -1.828125 -0.7656174 -3.921875q0 -2.28125 0.8749924 -3.984375q0.875 -1.703125 2.484375 -2.578125q1.609375 -0.890625 3.546875 -0.890625q2.203125 0 3.6875 1.125q1.5 1.109375 2.09375 3.125l-1.90625 0.453125q-0.515625 -1.59375 -1.484375 -2.3125q-0.96875 -0.734375 -2.421875 -0.734375q-1.6875 0 -2.828125 0.8125q-1.125 0.796875 -1.59375 2.171875q-0.453125 1.359375 -0.453125 2.796875q0 1.875 0.53125 3.265625q0.546875 1.390625 1.6875 2.078125q1.15625 0.6875 2.5 0.6875q1.625 0 2.75 -0.9375q1.125 -0.9375 1.53125 -2.78125z" fill-rule="nonzero"/><path fill="#000000" fill-opacity="0.0" d="m153.26772 692.47656l150.4882 0l0 46.86615l-150.4882 0z" fill-rule="evenodd"/><path fill="#000000" d="m198.19533 722.94965l0 -21.9375l2.984375 0l11.53125 17.21875l0 -17.21875l2.78125 0l0 21.9375l-2.984375 0l-11.515625 -17.25l0 17.25l-2.796875 0z" fill-rule="nonzero"/><path fill="#000000" d="m217.97491 734.44965l5.625 -14.625l2.078125 0l5.984375 14.625l-2.203125 0l-1.703125 -4.4375l-6.125 0l-1.59375 4.4375l-2.0625 0zm4.21875 -6.0l4.96875 0l-1.53125 -4.0625q-0.703125 -1.84375 -1.03125 -3.03125q-0.28125 1.40625 -0.796875 2.796875l-1.609375 4.296875zm11.006653 6.0l0 -14.625l1.984375 0l7.6875 11.484375l0 -11.484375l1.84375 0l0 14.625l-1.984375 0l-7.6875 -11.5l0 11.5l-1.84375 0zm25.212433 -5.125l1.9375 0.484375q-0.609375 2.390625 -2.203125 3.640625q-1.578125 1.25 -3.859375 1.25q-2.359375 0 -3.84375 -0.953125q-1.484375 -0.96875 -2.265625 -2.796875q-0.765625 -1.828125 -0.765625 -3.921875q0 -2.28125 0.875 -3.984375q0.875 -1.703125 2.484375 -2.578125q1.609375 -0.890625 3.546875 -0.890625q2.203125 0 3.6875 1.125q1.5 1.109375 2.09375 3.125l-1.90625 0.453125q-0.515625 -1.59375 -1.484375 -2.3125q-0.96875 -0.734375 -2.421875 -0.734375q-1.6875 0 -2.828125 0.8125q-1.125 0.796875 -1.59375 2.171875q-0.453125 1.359375 -0.453125 2.796875q0 1.875 0.53125 3.265625q0.546875 1.390625 1.6875 2.078125q1.15625 0.6875 2.5 0.6875q1.625 0 2.75 -0.9375q1.125 -0.9375 1.53125 -2.78125z" fill-rule="nonzero"/><path fill="#000000" fill-opacity="0.0" d="m190.0282 530.9047l86.92914 0l0 56.566895l-86.92914 0z" fill-rule="evenodd"/><path fill="#000000" d="m219.06824 569.3447l0 -21.9375l2.984375 0l11.53125 17.21875l0 -17.21875l2.78125 0l0 21.9375l-2.984375 0l-11.515625 -17.25l0 17.25l-2.796875 0z" fill-rule="nonzero"/><path fill="#000000" d="m249.16032 579.126l0 1.71875l-9.65625 0q-0.03125 -0.65625 0.203125 -1.25q0.375 -0.984375 1.1875 -1.9375q0.8125 -0.96875 2.34375 -2.21875q2.390625 -1.953125 3.21875 -3.09375q0.84375 -1.15625 0.84375 -2.171875q0 -1.0625 -0.765625 -1.796875q-0.765625 -0.734375 -1.984375 -0.734375q-1.296875 0 -2.078125 0.78125q-0.78125 0.78125 -0.796875 2.15625l-1.84375 -0.1875q0.1875 -2.078125 1.421875 -3.15625q1.25 -1.078125 3.328125 -1.078125q2.109375 0 3.328125 1.171875q1.234375 1.15625 1.234375 2.890625q0 0.875 -0.359375 1.734375q-0.359375 0.84375 -1.1875 1.78125q-0.828125 0.9375 -2.765625 2.5625q-1.625 1.359375 -2.09375 1.84375q-0.453125 0.484375 -0.75 0.984375l7.171875 0z" fill-rule="nonzero"/><path fill="#000000" fill-opacity="0.0" d="m193.46193 600.61096l86.92912 0l0 56.566895l-86.92912 0z" fill-rule="evenodd"/><path fill="#000000" d="m204.47755 639.05096l0 -15.890625l2.421875 0l0 2.21875q0.734375 -1.15625 1.984375 -1.859375q1.25 -0.71875 2.828125 -0.71875q1.765625 0 2.890625 0.734375q1.140625 0.71875 1.59375 2.046875q1.890625 -2.78125 4.921875 -2.78125q2.359375 0 3.625 1.3125q1.28125 1.296875 1.28125 4.03125l0 10.90625l-2.6875 0l0 -10.015625q0 -1.609375 -0.265625 -2.3125q-0.25 -0.71875 -0.9375 -1.15625q-0.6875 -0.4375 -1.625 -0.4375q-1.671875 0 -2.78125 1.125q-1.109375 1.109375 -1.109375 3.5625l0 9.234375l-2.6875 0l0 -10.328125q0 -1.796875 -0.65625 -2.6875q-0.65625 -0.90625 -2.15625 -0.90625q-1.140625 0 -2.109375 0.609375q-0.96875 0.59375 -1.40625 1.75q-0.421875 1.140625 -0.421875 3.3125l0 8.25l-2.703125 0z" fill-rule="nonzero"/><path fill="#000000" d="m235.6082 650.55096l-1.796875 0l0 -11.453125q-0.640625 0.625 -1.703125 1.25q-1.046875 0.609375 -1.890625 0.921875l0 -1.734375q1.515625 -0.703125 2.640625 -1.703125q1.125 -1.015625 1.59375 -1.96875l1.15625 0l0 14.6875zm14.038239 -1.71875l0 1.71875l-9.65625 0q-0.03125 -0.65625 0.203125 -1.25q0.375 -0.984375 1.1875 -1.9375q0.8125 -0.96875 2.34375 -2.21875q2.390625 -1.953125 3.21875 -3.09375q0.84375 -1.15625 0.84375 -2.171875q0 -1.0625 -0.765625 -1.796875q-0.765625 -0.734375 -1.984375 -0.734375q-1.296875 0 -2.078125 0.78125q-0.78125 0.78125 -0.796875 2.15625l-1.84375 -0.1875q0.1875 -2.078125 1.421875 -3.15625q1.25 -1.078125 3.328125 -1.078125q2.109375 0 3.328125 1.171875q1.234375 1.15625 1.234375 2.890625q0 0.875 -0.359375 1.734375q-0.359375 0.84375 -1.1875 1.78125q-0.828125 0.9375 -2.765625 2.5625q-1.625 1.359375 -2.09375 1.84375q-0.453125 0.484375 -0.75 0.984375l7.171875 0z" fill-rule="nonzero"/><path fill="#000000" fill-opacity="0.0" d="m249.46193 600.61096l86.92912 0l0 56.566895l-86.92912 0z" fill-rule="evenodd"/><path fill="#000000" d="m260.47754 639.05096l0 -15.890625l2.421875 0l0 2.21875q0.734375 -1.15625 1.984375 -1.859375q1.25 -0.71875 2.828125 -0.71875q1.765625 0 2.890625 0.734375q1.140625 0.71875 1.59375 2.046875q1.890625 -2.78125 4.921875 -2.78125q2.359375 0 3.625 1.3125q1.28125 1.296875 1.28125 4.03125l0 10.90625l-2.6875 0l0 -10.015625q0 -1.609375 -0.265625 -2.3125q-0.25 -0.71875 -0.9375 -1.15625q-0.6875 -0.4375 -1.625 -0.4375q-1.671875 0 -2.78125 1.125q-1.109375 1.109375 -1.109375 3.5625l0 9.234375l-2.6875 0l0 -10.328125q0 -1.796875 -0.65625 -2.6875q-0.65625 -0.90625 -2.15625 -0.90625q-1.140625 0 -2.109375 0.609375q-0.96875 0.59375 -1.40625 1.75q-0.421875 1.140625 -0.421875 3.3125l0 8.25l-2.703125 0z" fill-rule="nonzero"/><path fill="#000000" d="m294.28006 648.8322l0 1.71875l-9.65625 0q-0.03125 -0.65625 0.203125 -1.25q0.375 -0.984375 1.1875 -1.9375q0.8125 -0.96875 2.34375 -2.21875q2.390625 -1.953125 3.21875 -3.09375q0.84375 -1.15625 0.84375 -2.171875q0 -1.0625 -0.765625 -1.796875q-0.765625 -0.734375 -1.984375 -0.734375q-1.296875 0 -2.078125 0.78125q-0.78125 0.78125 -0.796875 2.15625l-1.84375 -0.1875q0.1875 -2.078125 1.421875 -3.15625q1.25 -1.078125 3.328125 -1.078125q2.109375 0 3.328125 1.171875q1.234375 1.15625 1.234375 2.890625q0 0.875 -0.359375 1.734375q-0.359375 0.84375 -1.1875 1.78125q-0.828125 0.9375 -2.765625 2.5625q-1.625 1.359375 -2.09375 1.84375q-0.453125 0.484375 -0.75 0.984375l7.171875 0zm8.694489 1.71875l-1.796875 0l0 -11.453125q-0.640625 0.625 -1.703125 1.25q-1.046875 0.609375 -1.890625 0.921875l0 -1.734375q1.515625 -0.703125 2.640625 -1.703125q1.125 -1.015625 1.59375 -1.96875l1.15625 0l0 14.6875z" fill-rule="nonzero"/><path fill="#000000" fill-opacity="0.0" d="m151.96326 776.9147l150.48819 0" fill-rule="evenodd"/><path stroke="#000000" stroke-width="3.0" stroke-linejoin="round" stroke-linecap="butt" d="m169.96326 776.9147l114.48819 0" fill-rule="evenodd"/><path fill="#000000" stroke="#000000" stroke-width="3.0" stroke-linecap="butt" d="m169.96326 771.9595l-13.614288 4.9552l13.614288 4.9552z" fill-rule="evenodd"/><path fill="#000000" stroke="#000000" stroke-width="3.0" stroke-linecap="butt" d="m284.45145 781.8699l13.614288 -4.9552l-13.614288 -4.9552z" fill-rule="evenodd"/><path fill="#000000" fill-opacity="0.0" d="m209.07143 767.31366l86.92912 0l0 56.566895l-86.92912 0z" fill-rule="evenodd"/><path fill="#000000" d="m226.02455 805.75366l0 -19.359375l-7.234375 0l0 -2.578125l17.390625 0l0 2.578125l-7.25 0l0 19.359375l-2.90625 0z" fill-rule="nonzero"/><path fill="#000000" fill-opacity="0.0" d="m295.66666 686.70483l106.70868 0l0 51.716553l-106.70868 0z" fill-rule="evenodd"/><path fill="#000000" d="m316.25336 721.3049l0 -19.078125l7.1875 0q1.90625 0 2.90625 0.171875q1.40625 0.234375 2.359375 0.90625q0.953125 0.65625 1.53125 1.84375q0.578125 1.171875 0.578125 2.59375q0 2.4375 -1.5625 4.125q-1.546875 1.6875 -5.59375 1.6875l-4.890625 0l0 7.75l-2.515625 0zm2.515625 -10.015625l4.9375 0q2.453125 0 3.46875 -0.90625q1.03125 -0.90625 1.03125 -2.5625q0 -1.203125 -0.609375 -2.046875q-0.59375 -0.859375 -1.59375 -1.125q-0.625 -0.171875 -2.34375 -0.171875l-4.890625 0l0 6.8125zm14.0920105 3.109375q0 -3.84375 2.125 -5.6875q1.78125 -1.546875 4.34375 -1.546875q2.859375 0 4.65625 1.875q1.8125 1.859375 1.8125 5.15625q0 2.671875 -0.796875 4.203125q-0.796875 1.53125 -2.328125 2.375q-1.53125 0.84375 -3.34375 0.84375q-2.890625 0 -4.6875 -1.859375q-1.78125 -1.859375 -1.78125 -5.359375zm2.40625 0q0 2.65625 1.15625 3.984375q1.15625 1.3125 2.90625 1.3125q1.75 0 2.90625 -1.328125q1.15625 -1.328125 1.15625 -4.046875q0 -2.5625 -1.171875 -3.890625q-1.15625 -1.328125 -2.890625 -1.328125q-1.75 0 -2.90625 1.328125q-1.15625 1.3125 -1.15625 3.96875zm13.278076 12.203125l0 -19.125l2.140625 0l0 1.796875q0.75 -1.046875 1.703125 -1.578125q0.953125 -0.53125 2.3125 -0.53125q1.765625 0 3.109375 0.921875q1.359375 0.90625 2.046875 2.5625q0.6875 1.65625 0.6875 3.640625q0 2.125 -0.765625 3.828125q-0.75 1.6875 -2.203125 2.59375q-1.453125 0.90625 -3.046875 0.90625q-1.171875 0 -2.109375 -0.484375q-0.921875 -0.5 -1.53125 -1.265625l0 6.734375l-2.34375 0zm2.125 -12.125q0 2.65625 1.078125 3.9375q1.09375 1.28125 2.625 1.28125q1.5625 0 2.671875 -1.3125q1.109375 -1.328125 1.109375 -4.109375q0 -2.640625 -1.09375 -3.953125q-1.078125 -1.3125 -2.59375 -1.3125q-1.484375 0 -2.640625 1.40625q-1.15625 1.390625 -1.15625 4.0625zm28.293396 6.828125l-2.34375 0l0 -14.921875q-0.859375 0.796875 -2.234375 1.609375q-1.359375 0.796875 -2.453125 1.203125l0 -2.265625q1.96875 -0.921875 3.4375 -2.234375q1.46875 -1.3125 2.078125 -2.546875l1.515625 0l0 19.15625z" fill-rule="nonzero"/><path fill="#000000" fill-opacity="0.0" d="m295.66666 540.87006l106.70868 0l0 51.716553l-106.70868 0z" fill-rule="evenodd"/><path fill="#000000" d="m316.25336 575.4701l0 -19.078125l7.1875 0q1.90625 0 2.90625 0.171875q1.40625 0.234375 2.359375 0.90625q0.953125 0.65625 1.53125 1.84375q0.578125 1.171875 0.578125 2.59375q0 2.4375 -1.5625 4.125q-1.546875 1.6875 -5.59375 1.6875l-4.890625 0l0 7.75l-2.515625 0zm2.515625 -10.015625l4.9375 0q2.453125 0 3.46875 -0.90625q1.03125 -0.90625 1.03125 -2.5625q0 -1.203125 -0.609375 -2.046875q-0.59375 -0.859375 -1.59375 -1.125q-0.625 -0.171875 -2.34375 -0.171875l-4.890625 0l0 6.8125zm14.0920105 3.109375q0 -3.84375 2.125 -5.6875q1.78125 -1.546875 4.34375 -1.546875q2.859375 0 4.65625 1.875q1.8125 1.859375 1.8125 5.15625q0 2.671875 -0.796875 4.203125q-0.796875 1.53125 -2.328125 2.375q-1.53125 0.84375 -3.34375 0.84375q-2.890625 0 -4.6875 -1.859375q-1.78125 -1.859375 -1.78125 -5.359375zm2.40625 0q0 2.65625 1.15625 3.984375q1.15625 1.3125 2.90625 1.3125q1.75 0 2.90625 -1.328125q1.15625 -1.328125 1.15625 -4.046875q0 -2.5625 -1.171875 -3.890625q-1.15625 -1.328125 -2.890625 -1.328125q-1.75 0 -2.90625 1.328125q-1.15625 1.3125 -1.15625 3.96875zm13.278076 12.203125l0 -19.125l2.140625 0l0 1.796875q0.75 -1.046875 1.703125 -1.578125q0.953125 -0.53125 2.3125 -0.53125q1.765625 0 3.109375 0.921875q1.359375 0.90625 2.046875 2.5625q0.6875 1.65625 0.6875 3.640625q0 2.125 -0.765625 3.828125q-0.75 1.6875 -2.203125 2.59375q-1.453125 0.90625 -3.046875 0.90625q-1.171875 0 -2.109375 -0.484375q-0.921875 -0.5 -1.53125 -1.265625l0 6.734375l-2.34375 0zm2.125 -12.125q0 2.65625 1.078125 3.9375q1.09375 1.28125 2.625 1.28125q1.5625 0 2.671875 -1.3125q1.109375 -1.328125 1.109375 -4.109375q0 -2.640625 -1.09375 -3.953125q-1.078125 -1.3125 -2.59375 -1.3125q-1.484375 0 -2.640625 1.40625q-1.15625 1.390625 -1.15625 4.0625zm31.777771 4.578125l0 2.25l-12.609375 0q-0.03125 -0.84375 0.265625 -1.625q0.484375 -1.296875 1.546875 -2.546875q1.0625 -1.25 3.0625 -2.875q3.109375 -2.5625 4.203125 -4.046875q1.09375 -1.5 1.09375 -2.8125q0 -1.40625 -1.0 -2.359375q-0.984375 -0.953125 -2.59375 -0.953125q-1.6875 0 -2.703125 1.015625q-1.015625 1.015625 -1.03125 2.8125l-2.40625 -0.25q0.25 -2.6875 1.859375 -4.09375q1.609375 -1.421875 4.328125 -1.421875q2.75 0 4.34375 1.53125q1.609375 1.515625 1.609375 3.765625q0 1.140625 -0.46875 2.25q-0.46875 1.109375 -1.5625 2.328125q-1.078125 1.21875 -3.609375 3.359375q-2.09375 1.765625 -2.703125 2.40625q-0.59375 0.625 -0.984375 1.265625l9.359375 0z" fill-rule="nonzero"/><path fill="#000000" fill-opacity="0.0" d="m10.937008 473.4895l397.95276 0l0 66.2677l-397.95276 0z" fill-rule="evenodd"/><path fill="#000000" d="m29.236324 492.01575q4.3125 0 6.828125 2.421875q2.53125 2.421875 2.53125 6.421875q0 3.984375 -2.53125 6.421875q-2.515625 2.4375 -6.828125 2.4375l-6.578125 0l0 9.890625l-6.078125 0l0 -27.59375l12.65625 0zm-1.6875 12.984375q2.609375 0 3.875 -0.984375q1.28125 -0.984375 1.28125 -3.15625q0 -2.109375 -1.234375 -3.109375q-1.21875 -1.015625 -3.90625 -1.015625l-4.90625 0l0 8.265625l4.890625 0zm22.498917 -5.90625q4.4375 0 6.59375 1.453125q2.171875 1.453125 2.171875 4.09375l0 10.71875q0 1.21875 0.15625 2.421875q0.15625 1.203125 0.53125 1.828125l-5.5625 0q-0.15625 -0.453125 -0.265625 -0.9375q-0.09375 -0.484375 -0.125 -0.96875q-1.15625 1.1875 -2.875 1.828125q-1.703125 0.625 -3.84375 0.625q-3.109375 0 -4.953125 -1.546875q-1.84375 -1.5625 -1.84375 -4.453125q0 -2.796875 1.734375 -4.28125q1.734375 -1.484375 6.328125 -1.984375q3.1875 -0.3125 4.203125 -0.78125q1.015625 -0.484375 1.015625 -1.671875q0 -1.34375 -0.78125 -2.015625q-0.78125 -0.671875 -2.75 -0.671875q-1.6875 0 -2.59375 0.734375q-0.90625 0.71875 -1.0625 2.296875l-5.5 0q0.234375 -3.296875 2.71875 -4.984375q2.484375 -1.703125 6.703125 -1.703125zm-4.546875 14.828125q0 1.1875 0.8125 1.875q0.8125 0.671875 2.5625 0.671875q2.1875 0 3.3125 -1.140625q1.125 -1.15625 1.125 -3.359375l0 -2.140625q-0.484375 0.40625 -1.296875 0.609375q-0.796875 0.1875 -2.890625 0.484375q-1.875 0.25 -2.75 0.984375q-0.875 0.71875 -0.875 2.015625zm29.212765 -14.828125q0.359375 0 0.65625 0.046875q0.3125 0.046875 0.578125 0.140625l0 5.09375q-0.46875 -0.09375 -0.921875 -0.140625q-0.4375 -0.046875 -1.046875 -0.046875q-2.765625 0 -4.109375 1.703125q-1.328125 1.6875 -1.328125 4.546875l0 9.171875l-5.468746 0l0 -19.984375l5.203121 0l0 3.71875l0.078125 0q0.875 -1.96875 2.59375 -3.109375q1.734375 -1.140625 3.765625 -1.140625zm11.989441 0q4.4375 0 6.59375 1.453125q2.171875 1.453125 2.171875 4.09375l0 10.71875q0 1.21875 0.15625 2.421875q0.15625 1.203125 0.53125 1.828125l-5.5625 0q-0.15625 -0.453125 -0.265625 -0.9375q-0.09375 -0.484375 -0.125 -0.96875q-1.15625 1.1875 -2.875 1.828125q-1.703125 0.625 -3.84375 0.625q-3.109375 0 -4.953125 -1.546875q-1.84375 -1.5625 -1.84375 -4.453125q0 -2.796875 1.734375 -4.28125q1.734375 -1.484375 6.328125 -1.984375q3.1875 -0.3125 4.203125 -0.78125q1.015625 -0.484375 1.015625 -1.671875q0 -1.34375 -0.78125 -2.015625q-0.78125 -0.671875 -2.75 -0.671875q-1.6875 0 -2.59375 0.734375q-0.90625 0.71875 -1.0625 2.296875l-5.5 0q0.234375 -3.296875 2.71875 -4.984375q2.484375 -1.703125 6.703125 -1.703125zm-4.546875 14.828125q0 1.1875 0.8125 1.875q0.8125 0.671875 2.5625 0.671875q2.1875 0 3.3125 -1.140625q1.125 -1.15625 1.125 -3.359375l0 -2.140625q-0.484375 0.40625 -1.296875 0.609375q-0.796875 0.1875 -2.890625 0.484375q-1.875 0.25 -2.75 0.984375q-0.875 0.71875 -0.875 2.015625zm29.087769 -14.828125q2.234375 0 3.6875 0.859375q1.453125 0.859375 2.140625 2.46875q1.140625 -1.609375 2.6875 -2.46875q1.546875 -0.859375 3.375 -0.859375q3.625 0 5.4531326 1.859375q1.828125 1.84375 1.828125 5.109375l0 13.546875l-5.4843826 0l0 -11.546875q0 -2.734375 -0.8125 -3.6875q-0.796875 -0.953125 -2.546875 -0.953125q-1.859375 0 -2.78125 1.25q-0.90625 1.234375 -0.90625 3.625l0 11.3125l-5.484375 0l0 -12.3125q0 -1.96875 -0.765625 -2.921875q-0.75 -0.953125 -2.546875 -0.953125q-1.5625 0 -2.640625 1.203125q-1.078125 1.203125 -1.078125 3.265625l0 11.71875l-5.484375 0l0 -19.984375l5.171875 0l0 2.71875l0.078125 0q1.15625 -1.640625 2.6875 -2.4375q1.546875 -0.8125 3.421875 -0.8125zm32.73211 0q4.4375 0 7.078125 3.046875q2.65625 3.046875 2.65625 7.78125l-0.03125 1.03125l-14.421875 0q0.109375 2.578125 1.34375 3.828125q1.234375 1.234375 3.546875 1.234375q1.484375 0 2.75 -0.75q1.265625 -0.765625 1.609375 -1.84375l4.828125 0q-1.109375 3.390625 -3.4375 5.0625q-2.3125 1.671875 -5.921875 1.671875q-4.625 0 -7.421875 -2.921875q-2.796875 -2.921875 -2.796875 -7.59375q0 -4.46875 2.859375 -7.5q2.859375 -3.046875 7.359375 -3.046875zm-4.71875 8.375l8.921875 0q-0.390625 -2.203125 -1.421875 -3.21875q-1.03125 -1.03125 -2.96875 -1.03125q-2.0 0 -3.171875 1.140625q-1.171875 1.125 -1.359375 3.109375zm24.634644 -13.828125l0 5.984375l4.015625 0l0 3.671875l-4.015625 0l0 10.03125q0 1.21875 0.453125 1.703125q0.46875 0.484375 1.859375 0.484375q0.46875 0 0.90625 -0.03125q0.4375 -0.046875 0.796875 -0.125l0 4.28125q-0.6875 0.125 -1.53125 0.15625q-0.828125 0.03125 -1.640625 0.03125q-3.5625 0 -4.953125 -1.203125q-1.390625 -1.21875 -1.390625 -3.40625l0 -11.921875l-3.328125 0l0 -3.671875l3.328125 0l0 -5.984375l5.5 0zm15.701416 5.453125q4.4375 0 7.078125 3.046875q2.65625 3.046875 2.65625 7.78125l-0.03125 1.03125l-14.421875 0q0.109375 2.578125 1.34375 3.828125q1.234375 1.234375 3.546875 1.234375q1.484375 0 2.75 -0.75q1.265625 -0.765625 1.609375 -1.84375l4.828125 0q-1.109375 3.390625 -3.4375 5.0625q-2.3125 1.671875 -5.921875 1.671875q-4.625 0 -7.421875 -2.921875q-2.796875 -2.921875 -2.796875 -7.59375q0 -4.46875 2.859375 -7.5q2.859375 -3.046875 7.359375 -3.046875zm-4.71875 8.375l8.921875 0q-0.390625 -2.203125 -1.421875 -3.21875q-1.03125 -1.03125 -2.96875 -1.03125q-2.0 0 -3.171875 1.140625q-1.171875 1.125 -1.359375 3.109375zm29.322144 -8.375q0.359375 0 0.65625 0.046875q0.3125 0.046875 0.578125 0.140625l0 5.09375q-0.46875 -0.09375 -0.921875 -0.140625q-0.4375 -0.046875 -1.046875 -0.046875q-2.765625 0 -4.109375 1.703125q-1.328125 1.6875 -1.328125 4.546875l0 9.171875l-5.46875 0l0 -19.984375l5.203125 0l0 3.71875l0.078125 0q0.875 -1.96875 2.59375 -3.109375q1.734375 -1.140625 3.765625 -1.140625zm9.043472 -7.078125l0 4.515625l-5.484375 0l0 -4.515625l5.484375 0zm0 7.609375l0 19.984375l-5.484375 0l0 -19.984375l5.484375 0zm20.716064 0l0 4.125l-10.40625 11.71875l11.140625 0l0 4.140625l-18.375 0l0 -4.140625l10.40625 -11.71875l-9.625 0l0 -4.125l16.859375 0zm12.322723 -0.53125q4.4375 0 7.078125 3.046875q2.6562347 3.046875 2.6562347 7.78125l-0.031234741 1.03125l-14.421875 0q0.109375 2.578125 1.34375 3.828125q1.234375 1.234375 3.546875 1.234375q1.484375 0 2.75 -0.75q1.265625 -0.765625 1.609375 -1.84375l4.828125 0q-1.109375 3.390625 -3.4375 5.0625q-2.3125 1.671875 -5.921875 1.671875q-4.625 0 -7.421875 -2.921875q-2.796875 -2.921875 -2.796875 -7.59375q0 -4.46875 2.859375 -7.5q2.859375 -3.046875 7.359375 -3.046875zm-4.71875 8.375l8.921875 0q-0.390625 -2.203125 -1.421875 -3.21875q-1.03125 -1.03125 -2.96875 -1.03125q-2.0 0 -3.171875 1.140625q-1.171875 1.125 -1.359375 3.109375zm37.16591 -15.453125l0 27.59375l-5.234375 0l0 -2.546875l-0.078125 0q-0.875 1.53125 -2.4375 2.3125q-1.5625 0.78125 -3.609375 0.78125q-4.1094055 0 -6.5469055 -3.0q-2.421875 -3.015625 -2.421875 -7.71875q0 -4.453125 2.390625 -7.390625q2.40625 -2.953125 6.4531555 -2.953125q1.875 0 3.421875 0.765625q1.546875 0.75 2.484375 2.203125l0.078125 0l0 -10.046875l5.5 0zm-14.8594055 17.578125q0 2.78125 1.296875 4.609375q1.3125 1.8125 3.5312805 1.8125q2.28125 0 3.5 -1.6875q1.21875 -1.6875 1.21875 -4.765625q0 -2.921875 -1.1875 -4.625q-1.1875 -1.71875 -3.546875 -1.71875q-2.2812805 0 -3.5469055 1.71875q-1.265625 1.703125 -1.265625 4.65625zm41.243378 -10.5q2.234375 0 3.6875 0.859375q1.453125 0.859375 2.140625 2.46875q1.140625 -1.609375 2.6875 -2.46875q1.546875 -0.859375 3.375 -0.859375q3.625 0 5.453125 1.859375q1.828125 1.84375 1.828125 5.109375l0 13.546875l-5.484375 0l0 -11.546875q0 -2.734375 -0.8125 -3.6875q-0.796875 -0.953125 -2.546875 -0.953125q-1.859375 0 -2.78125 1.25q-0.90625 1.234375 -0.90625 3.625l0 11.3125l-5.484375 0l0 -12.3125q0 -1.96875 -0.765625 -2.921875q-0.75 -0.953125 -2.546875 -0.953125q-1.5625 0 -2.640625 1.203125q-1.078125 1.203125 -1.078125 3.265625l0 11.71875l-5.484375 0l0 -19.984375l5.171875 0l0 2.71875l0.078125 0q1.15625 -1.640625 2.6875 -2.4375q1.546875 -0.8125 3.421875 -0.8125zm33.200867 0q4.703125 0 7.53125 2.90625q2.828125 2.890625 2.828125 7.640625q0 4.78125 -2.859375 7.65625q-2.859375 2.859375 -7.5 2.859375q-4.640625 0 -7.484375 -2.890625q-2.84375 -2.890625 -2.84375 -7.625q0 -4.734375 2.796875 -7.640625q2.796875 -2.90625 7.53125 -2.90625zm-4.828125 10.546875q0 3.15625 1.28125 4.765625q1.296875 1.609375 3.546875 1.609375q2.34375 0 3.609375 -1.65625q1.265625 -1.671875 1.265625 -4.71875q0 -2.984375 -1.234375 -4.703125q-1.21875 -1.71875 -3.671875 -1.71875q-2.21875 0 -3.515625 1.609375q-1.28125 1.59375 -1.28125 4.8125zm38.222168 -17.625l0 27.59375l-5.234375 0l0 -2.546875l-0.078125 0q-0.875 1.53125 -2.4375 2.3125q-1.5625 0.78125 -3.609375 0.78125q-4.109375 0 -6.546875 -3.0q-2.421875 -3.015625 -2.421875 -7.71875q0 -4.453125 2.390625 -7.390625q2.40625 -2.953125 6.453125 -2.953125q1.875 0 3.421875 0.765625q1.546875 0.75 2.484375 2.203125l0.078125 0l0 -10.046875l5.5 0zm-14.859375 17.578125q0 2.78125 1.296875 4.609375q1.3125 1.8125 3.53125 1.8125q2.28125 0 3.5 -1.6875q1.21875 -1.6875 1.21875 -4.765625q0 -2.921875 -1.1875 -4.625q-1.1875 -1.71875 -3.546875 -1.71875q-2.28125 0 -3.546875 1.71875q-1.265625 1.703125 -1.265625 4.65625zm28.222168 -10.5q4.4375 0 7.078125 3.046875q2.65625 3.046875 2.65625 7.78125l-0.03125 1.03125l-14.421875 0q0.109375 2.578125 1.34375 3.828125q1.234375 1.234375 3.546875 1.234375q1.484375 0 2.75 -0.75q1.265625 -0.765625 1.609375 -1.84375l4.828125 0q-1.109375 3.390625 -3.4375 5.0625q-2.3125 1.671875 -5.921875 1.671875q-4.625 0 -7.421875 -2.921875q-2.796875 -2.921875 -2.796875 -7.59375q0 -4.46875 2.859375 -7.5q2.859375 -3.046875 7.359375 -3.046875zm-4.71875 8.375l8.921875 0q-0.390625 -2.203125 -1.421875 -3.21875q-1.03125 -1.03125 -2.96875 -1.03125q-2.0 0 -3.171875 1.140625q-1.171875 1.125 -1.359375 3.109375zm23.322144 -15.453125l0 27.59375l-5.484375 0l0 -27.59375l5.484375 0z" fill-rule="nonzero"/></g></svg>