<svg version="1.1" viewBox="0.0 0.0 1604.0761154855643 824.0" fill="none" stroke="none" stroke-linecap="square" stroke-miterlimit="10" xmlns:xlink="http://www.w3.org/1999/xlink" xmlns="http://www.w3.org/2000/svg"><clipPath id="p.0"><path d="m0 0l1604.0762 0l0 824.0l-1604.0762 0l0 -824.0z" clip-rule="nonzero"/></clipPath><g clip-path="url(#p.0)"><path fill="#000000" fill-opacity="0.0" d="m0 0l1604.0762 0l0 824.0l-1604.0762 0z" fill-rule="evenodd"/><path fill="#000000" fill-opacity="0.0" d="m402.37534 712.5631c88.44095 0 176.88187 -66.566895 176.88187 -133.13385" fill-rule="evenodd"/><path stroke="#000000" stroke-width="4.0" stroke-linejoin="round" stroke-linecap="butt" d="m402.37534 712.5632c44.22046 0 88.44095 -16.641724 121.60629 -41.60437c16.582703 -12.481323 30.40155 -27.042847 40.07483 -42.64447c4.836609 -7.8007812 8.63678 -15.861633 11.227844 -24.05249c0.08093262 -0.25598145 0.1607666 -0.5120239 0.23937988 -0.7682495l0.1027832 -0.34051514" fill-rule="evenodd"/><path fill="#000000" stroke="#000000" stroke-width="4.0" stroke-linecap="butt" d="m582.1574 604.1525l-3.78479 -18.942932l-9.277039 16.94397z" fill-rule="evenodd"/><path fill="#000000" fill-opacity="0.0" d="m508.0499 447.4252l222.3937 0l0 131.99997l-222.3937 0z" fill-rule="evenodd"/><path stroke="#000000" stroke-width="2.0" stroke-linejoin="round" stroke-linecap="butt" d="m508.0499 447.4252l222.3937 0l0 131.99997l-222.3937 0z" fill-rule="evenodd"/><path fill="#000000" d="m551.03894 476.2952q5.0 0 8.015625 2.328125q3.03125 2.3125 3.03125 6.5625l-5.875 0q-0.125 -2.078125 -1.421875 -3.125q-1.28125 -1.046875 -4.0 -1.046875q-1.84375 0 -3.03125 0.8125q-1.171875 0.8125 -1.171875 2.3125q0 1.046875 0.484375 1.5625q0.5 0.5 2.015625 1.0625q1.515625 0.546875 6.640625 1.75q3.4375 0.84375 5.359375 2.828125q1.921875 1.96875 1.921875 5.015625q0 4.0 -3.0 6.421875q-3.0 2.421875 -8.453125 2.421875q-5.21875 0 -8.5 -2.5625q-3.28125 -2.5625 -3.28125 -7.09375l0 -0.15625l5.875 0q0.03125 2.5625 1.703125 3.828125q1.6875 1.265625 4.40625 1.265625q2.453125 0 3.90625 -0.890625q1.46875 -0.890625 1.46875 -2.546875q0 -1.328125 -1.125 -2.1875q-1.109375 -0.859375 -3.59375 -1.484375q-3.171875 -0.71875 -5.765625 -1.515625q-2.578125 -0.8125 -4.265625 -2.609375q-1.6875 -1.796875 -1.6875 -4.609375q0 -3.71875 2.96875 -6.03125q2.984375 -2.3125 7.375 -2.3125zm20.647522 0.65625l0 4.515625l-5.484375 0l0 -4.515625l5.484375 0zm0 7.609375l0 19.984375l-5.484375 0l0 -19.984375l5.484375 0zm15.841064 -0.53125q2.234375 0 3.6875 0.859375q1.453125 0.859375 2.140625 2.46875q1.140625 -1.609375 2.6875 -2.46875q1.546875 -0.859375 3.375 -0.859375q3.625 0 5.453125 1.859375q1.828125 1.84375 1.828125 5.109375l0 13.546875l-5.484375 0l0 -11.546875q0 -2.734375 -0.8125 -3.6875q-0.796875 -0.953125 -2.546875 -0.953125q-1.859375 0 -2.78125 1.25q-0.90625 1.234375 -0.90625 3.625l0 11.3125l-5.484375 0l0 -12.3125q0 -1.96875 -0.765625 -2.921875q-0.75 -0.953125 -2.546875 -0.953125q-1.5625 0 -2.640625 1.203125q-1.078125 1.203125 -1.078125 3.265625l0 11.71875l-5.484375 0l0 -19.984375l5.171875 0l0 2.71875l0.078125 0q1.15625 -1.640625 2.6875 -2.4375q1.546875 -0.8125 3.421875 -0.8125zm28.966492 0.53125l0 11.453125q0 2.265625 0.796875 3.5q0.796875 1.234375 2.734375 1.234375q2.265625 0 3.25 -1.359375q1.0 -1.375 1.0 -4.171875l0 -10.65625l5.5 0l0 19.984375l-5.234375 0l0 -2.78125l-0.109375 0q-1.046875 1.671875 -2.6875 2.5q-1.640625 0.828125 -3.453125 0.828125q-3.71875 0 -5.5 -1.890625q-1.765625 -1.90625 -1.765625 -6.125l0 -12.515625l5.46875 0zm23.086243 -7.609375l0 27.59375l-5.484375 0l0 -27.59375l5.484375 0zm13.497314 7.078125q4.4375 0 6.59375 1.453125q2.171875 1.453125 2.171875 4.09375l0 10.71875q0 1.21875 0.15625 2.421875q0.15625 1.203125 0.53125 1.828125l-5.5625 0q-0.15625 -0.453125 -0.265625 -0.9375q-0.09375 -0.484375 -0.125 -0.96875q-1.15625 1.1875 -2.875 1.828125q-1.703125 0.625 -3.84375 0.625q-3.109375 0 -4.953125 -1.546875q-1.84375 -1.5625 -1.84375 -4.453125q0 -2.796875 1.734375 -4.28125q1.734375 -1.484375 6.328125 -1.984375q3.1875 -0.3125 4.203125 -0.78125q1.015625 -0.484375 1.015625 -1.671875q0 -1.34375 -0.78125 -2.015625q-0.78125 -0.671875 -2.75 -0.671875q-1.6875 0 -2.59375 0.734375q-0.90625 0.71875 -1.0625 2.296875l-5.5 0q0.234375 -3.296875 2.71875 -4.984375q2.484375 -1.703125 6.703125 -1.703125zm-4.546875 14.828125q0 1.1875 0.8125 1.875q0.8125 0.671875 2.5625 0.671875q2.1875 0 3.3125 -1.140625q1.125 -1.15625 1.125 -3.359375l0 -2.140625q-0.484375 0.40625 -1.296875 0.609375q-0.796875 0.1875 -2.890625 0.484375q-1.875 0.25 -2.75 0.984375q-0.875 0.71875 -0.875 2.015625zm24.525269 -20.28125l0 5.984375l4.015625 0l0 3.671875l-4.015625 0l0 10.03125q0 1.21875 0.453125 1.703125q0.46875 0.484375 1.859375 0.484375q0.46875 0 0.90625 -0.03125q0.4375 -0.046875 0.796875 -0.125l0 4.28125q-0.6875 0.125 -1.53125 0.15625q-0.828125 0.03125 -1.640625 0.03125q-3.5625 0 -4.953125 -1.203125q-1.390625 -1.21875 -1.390625 -3.40625l0 -11.921875l-3.328125 0l0 -3.671875l3.328125 0l0 -5.984375l5.5 0zm15.701416 5.453125q4.4375 0 7.078125 3.046875q2.65625 3.046875 2.65625 7.78125l-0.03125 1.03125l-14.421875 0q0.109375 2.578125 1.34375 3.828125q1.234375 1.234375 3.546875 1.234375q1.484375 0 2.75 -0.75q1.265625 -0.765625 1.609375 -1.84375l4.828125 0q-1.109375 3.390625 -3.4375 5.0625q-2.3125 1.671875 -5.921875 1.671875q-4.625 0 -7.421875 -2.921875q-2.796875 -2.921875 -2.796875 -7.59375q0 -4.46875 2.859375 -7.5q2.859375 -3.046875 7.359375 -3.046875zm-4.71875 8.375l8.921875 0q-0.390625 -2.203125 -1.421875 -3.21875q-1.03125 -1.03125 -2.96875 -1.03125q-2.0 0 -3.171875 1.140625q-1.171875 1.125 -1.359375 3.109375z" fill-rule="nonzero"/><path fill="#000000" d="m600.01685 522.9514l0 27.59375l-5.234375 0l0 -2.546875l-0.078125 0q-0.875 1.53125 -2.4375 2.3125q-1.5625 0.78125 -3.609375 0.78125q-4.109375 0 -6.546875 -3.0q-2.421875 -3.015625 -2.421875 -7.71875q0 -4.453125 2.390625 -7.390625q2.40625 -2.953125 6.453125 -2.953125q1.875 0 3.421875 0.765625q1.546875 0.75 2.484375 2.203125l0.078125 0l0 -10.046875l5.5 0zm-14.859375 17.578125q0 2.78125 1.296875 4.609375q1.3125 1.8125 3.53125 1.8125q2.28125 0 3.5 -1.6875q1.21875 -1.6875 1.21875 -4.765625q0 -2.921875 -1.1875 -4.625q-1.1875 -1.71875 -3.546875 -1.71875q-2.28125 0 -3.546875 1.71875q-1.265625 1.703125 -1.265625 4.65625zm28.159668 -10.5q4.4375 0 6.59375 1.453125q2.171875 1.453125 2.171875 4.09375l0 10.71875q0 1.21875 0.15625 2.421875q0.15625 1.203125 0.53125 1.828125l-5.5625 0q-0.15625 -0.453125 -0.265625 -0.9375q-0.09375 -0.484375 -0.125 -0.96875q-1.15625 1.1875 -2.875 1.828125q-1.703125 0.625 -3.84375 0.625q-3.109375 0 -4.953125 -1.546875q-1.84375 -1.5625 -1.84375 -4.453125q0 -2.796875 1.734375 -4.28125q1.734375 -1.484375 6.328125 -1.984375q3.1875 -0.3125 4.203125 -0.78125q1.015625 -0.484375 1.015625 -1.671875q0 -1.34375 -0.78125 -2.015625q-0.78125 -0.671875 -2.75 -0.671875q-1.6875 0 -2.59375 0.734375q-0.90625 0.71875 -1.0625 2.296875l-5.5 0q0.234375 -3.296875 2.71875 -4.984375q2.484375 -1.703125 6.703125 -1.703125zm-4.546875 14.828125q0 1.1875 0.8125 1.875q0.8125 0.671875 2.5625 0.671875q2.1875 0 3.3125 -1.140625q1.125 -1.15625 1.125 -3.359375l0 -2.140625q-0.484375 0.40625 -1.296875 0.609375q-0.796875 0.1875 -2.890625 0.484375q-1.875 0.25 -2.75 0.984375q-0.875 0.71875 -0.875 2.015625zm24.525269 -20.28125l0 5.984375l4.015625 0l0 3.671875l-4.015625 0l0 10.03125q0 1.21875 0.453125 1.703125q0.46875 0.484375 1.859375 0.484375q0.46875 0 0.90625 -0.03125q0.4375 -0.046875 0.796875 -0.125l0 4.28125q-0.6875 0.125 -1.53125 0.15625q-0.828125 0.03125 -1.640625 0.03125q-3.5625 0 -4.953125 -1.203125q-1.390625 -1.21875 -1.390625 -3.40625l0 -11.921875l-3.328125 0l0 -3.671875l3.328125 0l0 -5.984375l5.5 0zm15.827698 5.453125q4.4375 0 6.59375 1.453125q2.171875 1.453125 2.171875 4.09375l0 10.71875q0 1.21875 0.15625 2.421875q0.15625 1.203125 0.53125 1.828125l-5.5625 0q-0.15625 -0.453125 -0.265625 -0.9375q-0.09375 -0.484375 -0.125 -0.96875q-1.15625 1.1875 -2.875 1.828125q-1.703125 0.625 -3.84375 0.625q-3.109375 0 -4.953125 -1.546875q-1.84375 -1.5625 -1.84375 -4.453125q0 -2.796875 1.734375 -4.28125q1.734375 -1.484375 6.328125 -1.984375q3.1875 -0.3125 4.203125 -0.78125q1.015625 -0.484375 1.015625 -1.671875q0 -1.34375 -0.78125 -2.015625q-0.78125 -0.671875 -2.75 -0.671875q-1.6875 0 -2.59375 0.734375q-0.90625 0.71875 -1.0625 2.296875l-5.5 0q0.234375 -3.296875 2.71875 -4.984375q2.484375 -1.703125 6.703125 -1.703125zm-4.546875 14.828125q0 1.1875 0.8125 1.875q0.8125 0.671875 2.5625 0.671875q2.1875 0 3.3125 -1.140625q1.125 -1.15625 1.125 -3.359375l0 -2.140625q-0.484375 0.40625 -1.296875 0.609375q-0.796875 0.1875 -2.890625 0.484375q-1.875 0.25 -2.75 0.984375q-0.875 0.71875 -0.875 2.015625z" fill-rule="nonzero"/><path fill="#000000" fill-opacity="0.0" d="m709.9622 717.92914c-45.35431 0 -90.70868 -69.24408 -90.70868 -138.48822" fill-rule="evenodd"/><path stroke="#000000" stroke-width="4.0" stroke-linejoin="round" stroke-linecap="butt" d="m709.96216 717.92914c-22.677124 0 -45.354248 -17.311035 -62.36212 -43.277588c-8.503967 -12.983215 -15.590576 -28.130371 -20.551208 -44.359497c-2.4802856 -8.114502 -4.429138 -16.499573 -5.7578735 -25.019836c-0.08300781 -0.53253174 -0.16363525 -1.0655518 -0.24182129 -1.59906l-0.042053223 -0.29632568" fill-rule="evenodd"/><path fill="#000000" stroke="#000000" stroke-width="4.0" stroke-linecap="butt" d="m627.5964 602.89404l-7.9155884 -17.621094l-5.2629395 18.586548z" fill-rule="evenodd"/></g></svg>