<?xml version="1.0" encoding="UTF-8" standalone="no"?>
<svg
   id="Layer_1"
   data-name="Layer 1"
   viewBox="0 0 1081.29 593.84"
   version="1.1"
   sodipodi:docname="dem_inf_3_2.svg"
   inkscape:version="1.2.2 (1:1.2.2+202212051552+b0a8486541)"
   xmlns:inkscape="http://www.inkscape.org/namespaces/inkscape"
   xmlns:sodipodi="http://sodipodi.sourceforge.net/DTD/sodipodi-0.dtd"
   xmlns="http://www.w3.org/2000/svg"
   xmlns:svg="http://www.w3.org/2000/svg"
   xmlns:rdf="http://www.w3.org/1999/02/22-rdf-syntax-ns#"
   xmlns:cc="http://creativecommons.org/ns#"
   xmlns:dc="http://purl.org/dc/elements/1.1/">
  <sodipodi:namedview
     id="namedview352073"
     pagecolor="#ffffff"
     bordercolor="#000000"
     borderopacity="0.25"
     inkscape:showpageshadow="2"
     inkscape:pageopacity="0.0"
     inkscape:pagecheckerboard="0"
     inkscape:deskcolor="#d1d1d1"
     showgrid="false"
     inkscape:zoom="0.51651066"
     inkscape:cx="808.30858"
     inkscape:cy="540.1631"
     inkscape:window-width="1223"
     inkscape:window-height="779"
     inkscape:window-x="57"
     inkscape:window-y="21"
     inkscape:window-maximized="1"
     inkscape:current-layer="Layer_1" />
  <defs
     id="defs350437">
    <style
       id="style350420">.cls-1,.cls-10,.cls-13,.cls-17,.cls-20,.cls-22,.cls-23,.cls-27,.cls-29,.cls-6{fill:none;}.cls-2{opacity:0.6;}.cls-3{fill:#39b54a;}.cls-4{fill:#006837;}.cls-24,.cls-25,.cls-5{fill:#fff;}.cls-26,.cls-27,.cls-29,.cls-6{stroke:#000;}.cls-6{stroke-miterlimit:10;}.cls-7{fill:#fdfeff;}.cls-8{fill:#b3b3b3;}.cls-9{clip-path:url(#clip-path);}.cls-10,.cls-13,.cls-15{stroke:#ff7f0e;}.cls-11,.cls-15{fill:#ff7f0e;}.cls-11,.cls-15,.cls-18,.cls-21{fill-opacity:0.5;}.cls-12{clip-path:url(#clip-path-3);}.cls-13,.cls-27{stroke-linecap:square;}.cls-13,.cls-22,.cls-23,.cls-24,.cls-25,.cls-26,.cls-29{stroke-linejoin:round;}.cls-13,.cls-15{stroke-opacity:0.5;}.cls-13{stroke-width:0.2px;}.cls-14{clip-path:url(#clip-path-5);}.cls-16{clip-path:url(#clip-path-7);}.cls-17{stroke:#2ca02c;}.cls-18{fill:#2ca02c;}.cls-19{clip-path:url(#clip-path-9);}.cls-20,.cls-23,.cls-25{stroke:#1f77b4;}.cls-21{fill:#1f77b4;}.cls-22,.cls-24{stroke:#fff;stroke-width:3px;}.cls-22,.cls-23,.cls-24,.cls-25{stroke-linecap:round;}.cls-26,.cls-27{stroke-width:0.8px;}.cls-28{opacity:0.82;}.cls-30{fill:#c1272d;}.cls-31{fill:#fcee21;}.cls-32{fill:blue;}.cls-33{fill:#8cc63f;}</style>
    <clipPath
       id="clip-path"
       transform="translate(-4.26 -9.2)">
      <rect
         class="cls-1"
         x="840.09"
         y="168.46"
         width="237.1"
         height="319.91"
         id="rect350422" />
    </clipPath>
    <clipPath
       id="clip-path-3"
       transform="translate(-4.26 -9.2)">
      <rect
         class="cls-1"
         x="856.59"
         y="225.81"
         width="158.63"
         height="272.33"
         id="rect350425" />
    </clipPath>
    <clipPath
       id="clip-path-5"
       transform="translate(-4.26 -9.2)">
      <rect
         class="cls-1"
         x="824.21"
         y="226.84"
         width="200.94"
         height="271.12"
         id="rect350428" />
    </clipPath>
    <clipPath
       id="clip-path-7"
       transform="translate(-4.26 -9.2)">
      <rect
         class="cls-1"
         x="798.09"
         y="168.46"
         width="237.1"
         height="319.91"
         id="rect350431" />
    </clipPath>
    <clipPath
       id="clip-path-9"
       transform="translate(-4.26 -9.2)">
      <rect
         class="cls-1"
         x="816.09"
         y="168.46"
         width="237.1"
         height="319.91"
         id="rect350434" />
    </clipPath>
    <clipPath
       id="p75db4d1339">
      <rect
         x="56.928123"
         y="14.599219"
         width="234.67188"
         height="203.34265"
         id="rect47161" />
    </clipPath>
    <clipPath
       id="clipPath49477">
      <rect
         x="56.928123"
         y="14.599219"
         width="234.67188"
         height="203.34265"
         id="rect49475" />
    </clipPath>
    <clipPath
       id="p75db4d1339-5">
      <rect
         x="56.928123"
         y="14.599219"
         width="234.67188"
         height="203.34265"
         id="rect47161-3" />
    </clipPath>
    <clipPath
       id="clipPath50258">
      <rect
         x="56.928123"
         y="14.599219"
         width="234.67188"
         height="203.34265"
         id="rect50256" />
    </clipPath>
    <clipPath
       id="p75db4d1339-56">
      <rect
         x="56.928123"
         y="14.599219"
         width="234.67188"
         height="203.34265"
         id="rect47161-2" />
    </clipPath>
    <clipPath
       id="clipPath56847">
      <rect
         x="56.928123"
         y="14.599219"
         width="234.67188"
         height="203.34265"
         id="rect56845" />
    </clipPath>
  </defs>
  <title
     id="title350439">full</title>
  <g
     id="Слой_11-2"
     data-name="Слой 11">
    <g
       id="g262277">
      <g
         id="g262275">
        <path
           id="path262273"
           d="M707.9,17.9c.1,19.3.5,38.7,1.3,58,.1,1.9,3.1,1.9,3,0-.7-19.3-1.1-38.6-1.3-58a1.5,1.5,0,0,0-3,0Z"
           transform="translate(-4.26 -9.2)" />
      </g>
    </g>
    <g
       id="g262283">
      <g
         id="g262281">
        <path
           id="path262279"
           d="M710.4,19.8c8.7-3.7,18.2-1.8,27,.3,4.4,1,8.2,2.3,10.5,6.6A31.25,31.25,0,0,1,751,38.3a47.7,47.7,0,0,1-.3,13.6c-1,5.6-3.4,8.6-8.3,11.3a68.25,68.25,0,0,1-26.1,7.9c-1.9.2-1.9,3.2,0,3,10.8-1,23.1-4.1,31.8-10.9,7.3-5.6,6.9-18.2,5.8-26.4-1.3-9.4-4.6-16.8-14.3-19.3-10.1-2.6-20.9-4.5-30.7-.3-1.8.7-.3,3.3,1.5,2.6Z"
           transform="translate(-4.26 -9.2)" />
      </g>
    </g>
    <g
       id="g262289">
      <g
         id="g262287">
        <path
           id="path262285"
           d="M766.5,66c5.9-.4,17.4-3.4,13.9-12-2.5-6.2-11-5-15.4-1.8-5.7,4.2-8.6,12.5-5.9,19.1,3.5,8.8,16.6,6,23.7,4.3a1.5,1.5,0,0,0-.8-2.9,44.19,44.19,0,0,1-14.5,1.4c-7.3-.8-7.5-9.5-4.8-14.6,1.9-3.7,5.8-7.1,10.2-6.9s5.9,4.4,3,7.6c-2.3,2.5-6.2,2.7-9.4,2.9-1.9,0-1.9,3,0,2.9Z"
           transform="translate(-4.26 -9.2)" />
      </g>
    </g>
    <g
       id="g262295">
      <g
         id="g262293">
        <path
           id="path262291"
           d="M793.6,53.8c-.5,7-.9,14-1.1,21.1-.1,2,2.8,1.9,3,0,.8-5.9,1.5-16.7,7.5-19.8,9.4-4.9,9,11.2,9.5,16.2a1.5,1.5,0,0,0,3,0c.3-3.1.6-6.2,1-9.3.3-2.7.2-4.6,2.1-6.7,2-2.3,4.5-2.6,7.1-.4,5.1,4.3,3,13,2.7,18.7-.1,1.9,2.9,1.9,3,0,.4-7.5,2.3-22.1-8.8-23.2-10.8-1-9.3,13.9-10,20.8h3c-.6-6.7-.1-21.8-10.8-19.9C794.9,53,793.7,67,792.7,74.8h3c.3-7,.7-14.1,1.1-21.1a1.61,1.61,0,0,0-3.2.1Z"
           transform="translate(-4.26 -9.2)" />
      </g>
    </g>
    <g
       id="g262301">
      <g
         id="g262299">
        <path
           id="path262297"
           d="M840.3,65.9c1.8,2.7-.9,6.6,3.5,7.6,3.3.8,8.6-.6,11.5-1.9a13.37,13.37,0,0,0,6.9-16.9c-2.5-6.5-10.6-9.7-17-7.1-6.7,2.7-9.5,10.9-6.8,17.4.7,1.8,3.6,1,2.9-.8-2.1-5.1-.4-11.4,4.9-13.7s12.2.7,13.6,6.5-2.4,11.1-8,12.7c-2.6.7-7.1,2.2-8.1-1.3-.4-1.5.1-2.5-.9-4s-3.6-.1-2.5,1.5Z"
           transform="translate(-4.26 -9.2)" />
      </g>
    </g>
    <g
       id="g262307">
      <g
         id="g262305">
        <path
           id="path262303"
           d="M891,63.8c1.4-6.1-3.3-11.8-9.5-12.4-7.1-.6-13.2,5.8-15.1,12.2-2,6.9,4.3,11.1,10.7,10.1,7.3-1.2,11-8.3,9.3-15.1-.5-1.9-3.3-1.1-2.9.8a77.71,77.71,0,0,1,.8,33.6c-.5,2.3-1,4.6-1.7,6.9-1,3.2-1.9,6.9-7.8,4.2a10.61,10.61,0,0,1-3.2-2.8c-3.4-5.3,4.6-12.6,8.5-15.2,1.6-1.1.1-3.7-1.5-2.6-4.6,3.1-12.3,10.4-10.9,16.8,1,4.6,8.3,9.7,12.9,7.6,6-2.8,6.7-14.2,7.4-19.8a81.4,81.4,0,0,0-1.7-29.5c-1,.3-1.9.5-2.9.8,1.2,4.7-.9,9.8-5.8,11.1-6.2,1.7-10.2-3.5-7.1-9,1.7-3.2,4.8-6.3,8.5-6.9,4.9-.9,10.2,3.2,9,8.5-.3,1.7,2.6,2.5,3,.7Z"
           transform="translate(-4.26 -9.2)" />
      </g>
    </g>
    <g
       id="g262313">
      <g
         id="g262311">
        <path
           id="path262309"
           d="M901.1,75.3c.7-8.4,1.4-16.9,2.2-25.3a23.07,23.07,0,0,1-1.9,1.4,31,31,0,0,0,12.5,1.5c1.9-.2,1.9-3.2,0-3a29.22,29.22,0,0,1-11.7-1.4,1.52,1.52,0,0,0-1.9,1.4c-.7,8.4-1.4,16.9-2.2,25.3-.2,2,2.8,2,3,.1Z"
           transform="translate(-4.26 -9.2)" />
      </g>
    </g>
    <g
       id="g262319">
      <g
         id="g262317">
        <path
           id="path262315"
           d="M938.9,63.6A10.45,10.45,0,0,0,929.8,51c-6.9-.7-13.5,5.3-14.6,11.9-2.7,16.3,27,15,23.1-2.6-.4-1.8-2.7-1.1-2.9.4A24.69,24.69,0,0,0,939.5,78c1.1,1.6,3.7.1,2.6-1.5a22.68,22.68,0,0,1-3.7-15.8c-1,.1-2,.3-2.9.4,3,13.8-21.2,13.5-16.9.7,1.4-4,5.4-7.7,9.8-7.8a7.52,7.52,0,0,1,7.6,8.9c-.5,1.8,2.4,2.6,2.9.7Z"
           transform="translate(-4.26 -9.2)" />
      </g>
    </g>
    <g
       id="g262325">
      <g
         id="g262323">
        <path
           id="path262321"
           d="M947.2,58.5c.3,13.2.5,26.4.8,39.7a1.5,1.5,0,0,0,3,0c-.3-13.2-.5-26.4-.8-39.7a1.5,1.5,0,0,0-3,0Z"
           transform="translate(-4.26 -9.2)" />
      </g>
    </g>
    <g
       id="g262331">
      <g
         id="g262329">
        <path
           id="path262327"
           d="M948.2,58c.9-6.4,12.1-5.4,15.4-1.6,3.1,3.6.5,8.3-3,10.5-3,1.9-6.8,2.3-10.3,2.7-1.9.2-1.9,3.2,0,3,5.6-.7,11.9-1.5,15.5-6.4,2.5-3.3,3-7.7.5-11.1-4.4-5.9-19.7-7-21,2.2-.2,1.8,2.7,2.6,2.9.7Z"
           transform="translate(-4.26 -9.2)" />
      </g>
    </g>
    <g
       id="g262337">
      <g
         id="g262335">
        <path
           id="path262333"
           d="M993.1,54.1a51.1,51.1,0,0,0,.3,19.1c.4,1.9,3.3,1.1,2.9-.8a51.44,51.44,0,0,1-.3-17.5c.3-1.9-2.6-2.7-2.9-.8Z"
           transform="translate(-4.26 -9.2)" />
      </g>
    </g>
    <g
       id="g262343">
      <g
         id="g262341">
        <path
           id="path262339"
           d="M992.6,35.5c.3-.2.5-.5.8-.7a1.45,1.45,0,0,0,0-2.1,1.54,1.54,0,0,0-2.1,0c-.3.2-.5.5-.8.7a1.45,1.45,0,0,0,0,2.1,1.54,1.54,0,0,0,2.1,0Z"
           transform="translate(-4.26 -9.2)" />
      </g>
    </g>
    <g
       id="g262349">
      <g
         id="g262347">
        <path
           id="path262345"
           d="M1021.8,60.8a7.16,7.16,0,0,0-5.4-10c-6.1-1.1-12.8,4.7-14.7,10.2-4.6,13.1,15.3,19.6,24.6,15.3,1.8-.8.2-3.4-1.5-2.6-5.9,2.7-15.3.5-19.2-5-2.5-3.5-1.4-7.5,1.3-10.6a13.27,13.27,0,0,1,4.3-3.5c2.8-1.4,10.6-1.1,8,4.6-.8,1.8,1.8,3.3,2.6,1.6Z"
           transform="translate(-4.26 -9.2)" />
      </g>
    </g>
    <g
       id="g262411">
      <g
         id="g262355">
        <g
           id="g262353">
          <path
             id="path262351"
             d="M935,96.1a186.15,186.15,0,0,1,1.7,43.5h3a14.77,14.77,0,0,1,.1-2.1c.1-1.9-2.9-1.9-3,0a14.77,14.77,0,0,1-.1,2.1c-.1,1.9,2.9,1.9,3,0a193.29,193.29,0,0,0-1.8-44.3c-.3-1.9-3.2-1.1-2.9.8Z"
             transform="translate(-4.26 -9.2)" />
        </g>
      </g>
      <g
         id="g262361">
        <g
           id="g262359">
          <path
             id="path262357"
             d="M941,122.4a5.38,5.38,0,0,1,8.3-3.9c2.1,1.5,2.6,4.1,3,6.5.6,3.6.8,7,3.6,9.7,1.4,1.3,3.5-.8,2.1-2.1-4.7-4.6-1-13.2-7.6-16.8-5.6-3.1-11.5.8-12.3,6.7-.3,1.8,2.7,1.8,2.9-.1Z"
             transform="translate(-4.26 -9.2)" />
        </g>
      </g>
      <g
         id="g262367">
        <g
           id="g262365">
          <path
             id="path262363"
             d="M966.6,115.4a62.34,62.34,0,0,0,.9,21.1c.4,1.9,3.3,1.1,2.9-.8a57.72,57.72,0,0,1-.8-20.3c.2-2-2.8-1.9-3,0Z"
             transform="translate(-4.26 -9.2)" />
        </g>
      </g>
      <g
         id="g262373">
        <g
           id="g262371">
          <path
             id="path262369"
             d="M967.1,107.6h.8a1.5,1.5,0,0,0,0-3h-.8a1.54,1.54,0,0,0-1.5,1.5,1.47,1.47,0,0,0,1.5,1.5Z"
             transform="translate(-4.26 -9.2)" />
        </g>
      </g>
      <g
         id="g262379">
        <g
           id="g262377">
          <path
             id="path262375"
             d="M995.5,117.6c-2-7.8-11.7-6.2-14.2.4-1.2,3.2-.9,7.4,2.2,9.5,1.6,1.1,3.6,1,5.5,1.4,2.4.6,11,3.9,1.7,8.5-2.1,1-5.6,0-7.7-.4-1.9-.4-2.7,2.5-.8,2.9,5.4,1.1,16.4,1.1,15.2-7.5-.4-2.7-2.5-4.5-4.9-5.5-1.4-.6-3.1-.5-4.4-1.1-2.3-1.1-5-3.7-4.1-6.4,1-3,7.1-7.2,8.7-1,.4,1.9,3.3,1.1,2.8-.8Z"
             transform="translate(-4.26 -9.2)" />
        </g>
      </g>
      <g
         id="g262385">
        <g
           id="g262383">
          <path
             id="path262381"
             d="M1007,99.6c-.3,5.8-.6,11.6-.5,17.5.1,4,0,8.5,2,12.1,2.5,4.4,9,5.9,12,1.1,1-1.6-1.6-3.1-2.6-1.5s-4.6,1.5-5.9.2a10.88,10.88,0,0,1-2-4.2c-.7-2.7-.5-5.9-.6-8.7-.1-5.5.2-11,.5-16.5.2-1.9-2.8-1.9-2.9,0Z"
             transform="translate(-4.26 -9.2)" />
        </g>
      </g>
      <g
         id="g262391">
        <g
           id="g262389">
          <path
             id="path262387"
             d="M1000,120.7a92.57,92.57,0,0,0,18.8-4c1.8-.6,1.1-3.5-.8-2.9a93.28,93.28,0,0,1-18,3.9c-1.9.2-1.9,3.2,0,3Z"
             transform="translate(-4.26 -9.2)" />
        </g>
      </g>
      <g
         id="g262397">
        <g
           id="g262395">
          <path
             id="path262393"
             d="M1030.3,122.4c-3.1,5,.6,12,6.7,11.4,7.1-.7,10.4-9.7,9.2-15.8-1.3-6.5-8.1-11.2-14.6-8.2-7.5,3.4-4.8,12.3-2.1,18.1.8,1.7,3.4.2,2.6-1.5-1.8-3.8-4.7-10.3-.2-13.4,3.6-2.5,8.5-.5,10.4,3.1A11.4,11.4,0,0,1,1041,128c-1.7,2.1-4.8,4.1-7.4,2a4.62,4.62,0,0,1-.8-6,1.48,1.48,0,1,0-2.5-1.6Z"
             transform="translate(-4.26 -9.2)" />
        </g>
      </g>
      <g
         id="g262403">
        <g
           id="g262401">
          <path
             id="path262399"
             d="M1052.4,128.2c-.3-6.8-.5-13.5-.8-20.3a17.1,17.1,0,0,1-1.1,1.4l12.9-2.1c1.9-.3,1.1-3.2-.8-2.9l-12.9,2.1a1.5,1.5,0,0,0-1.1,1.4c.3,6.8.5,13.5.8,20.3.1,2,3.1,2,3,.1Z"
             transform="translate(-4.26 -9.2)" />
        </g>
      </g>
      <g
         id="g262409">
        <g
           id="g262407">
          <path
             id="path262405"
             d="M1068.6,107.4c-1.4,6.2-4.9,19.1,5,19.3,8.7.2,12.4-9,11.9-16.2a1.5,1.5,0,0,0-3,0c-1,8.2-1.9,16.4-2.9,24.7-.4,3.7-.4,7.8-1.3,11.4-.8,3.1-2.1,3.7-5.1,3.6a4.83,4.83,0,0,1-5.3-3.3c-.4-1.8.1-3,1.6-3.7,1.8-.7,1-3.6-.8-2.9-3.4,1.3-4.7,4.9-3.4,8.3,1.8,4.6,7.7,5.1,11.9,3.9,5.7-1.6,4.5-9.8,5-14.5,1.1-9.2,2.1-18.3,3.2-27.5h-3c.3,5-1.4,12.8-7.8,13-7.6.3-4.2-11.3-3.3-15.4a1.4,1.4,0,1,0-2.7-.7Z"
             transform="translate(-4.26 -9.2)" />
        </g>
      </g>
    </g>
    <g
       id="g262417">
      <g
         id="g262415">
        <path
           id="path262413"
           d="M594,55.9c26.7-.6,53.3-1.3,80-1.9,1.4,0,2.1-2.1.8-2.8A43.33,43.33,0,0,0,661.6,47c-.1,1-.3,2-.4,2.9,10.3.4,20.7.9,31,1.3-.1-1-.3-2-.4-2.9-9.5,2.2-18.8,4.6-27,10-1.6,1.1-.1,3.7,1.5,2.6,8-5.3,17.1-7.6,26.3-9.7,1.7-.4,1.2-2.9-.4-2.9-10.3-.4-20.7-.9-31-1.3-1.7-.1-2.1,2.7-.4,2.9a37.14,37.14,0,0,1,12.5,3.9c.3-.9.5-1.9.8-2.8-26.7.6-53.3,1.3-80,1.9-2,0-2,3-.1,3Z"
           transform="translate(-4.26 -9.2)" />
      </g>
    </g>
    <g
       id="g262423">
      <g
         id="g262421">
        <path
           id="path262419"
           d="M972,35.8c.2,12.6.3,25.2.5,37.8a1.5,1.5,0,0,0,3,0c-.2-12.6-.3-25.2-.5-37.8a1.5,1.5,0,0,0-3,0Z"
           transform="translate(-4.26 -9.2)" />
      </g>
    </g>
    <g
       id="g262429">
      <g
         id="g262427">
        <path
           id="path262425"
           d="M975.2,57.1c8.5-2.2,10.6,8.9,11.2,14.9.2,1.9,3.2,1.9,3,0-.5-4.8-1-10-4.2-13.9-2.7-3.3-6.7-5-10.8-3.9a1.5,1.5,0,0,0,.8,2.9Z"
           transform="translate(-4.26 -9.2)" />
      </g>
    </g>
  </g>
  <g
     id="PolyCollection_2"
     data-name="PolyCollection 2">
    <g
       class="cls-9"
       clip-path="url(#clip-path)"
       id="g351501" />
  </g>
  <g
     id="matplotlib.axis_1"
     data-name="matplotlib.axis 1">
    <g
       class="cls-12"
       clip-path="url(#clip-path-3)"
       id="g351505">
      <path
         id="path93578"
         class="cls-13"
         d="M889.18,455.89l1.05,0,1.06.05,1.05.13,1,.05,1.05.09,1.06.06,1,0,1.05.08,1,.1,1.06.06,1,.08,1,.12,1.05.06,1.06.06,1.05,0,1,0,1.05,0,1.06.08,1,0,1.05,0,1,0h1.06l1,0h1.05l1,0h1.06l1.05,0,1,0,1.05,0,1.06-.08,1,0,1.05-.05,1-.06,1.06,0,1-.09,1.05-.05,1.06-.06,1-.1,1.05,0,1-.07,1.06-.15,1-.1,1.05-.15,1-.06,1.06-.08,1.05-.07,1-.1,1.05-.16,1.06-.1,1-.11,1.05,0,1-.07,1.06-.09,1-.09,1.05-.1,1,0,1.06,0,1.05,0,1,0,1.05,0,1.06-.07,1.05,0,1,0,1,0,1.06,0h4.21l1.05,0h1l1.05,0,1.06,0,1.05,0,1,0,1.06,0,1.05,0,1,.08,1.05.1,1.06.05,1.05.09,1,.07,1,.05,1.37.12"
         transform="translate(-4.26 -9.2)" />
    </g>
    <g
       class="cls-12"
       clip-path="url(#clip-path-3)"
       id="g351508">
      <path
         id="path93580"
         class="cls-13"
         d="M890.25,460l1,0,1.05.05,1.06.13,1.05.05,1,.1,1,.05,1.06,0,1,.08,1.05.1,1,.07,1.06.08,1,.11,1,.07L905,461l1.06,0,1.05,0,1,0,1.05.07,1.06,0,1,0,1.05,0h1l1.06,0h1l1,0h1.06l1,0,1.05,0,1,0,1.06-.08,1-.05,1-.05,1.05-.06,1.06,0,1.05-.09,1-.05,1.05-.06,1.06-.1,1,0,1.05-.08,1-.15,1.06-.1,1-.15,1-.06,1.05-.08,1.06-.07,1.05-.1,1-.16,1.05-.1,1.06-.11,1,0,1.05-.07,1-.09,1.06-.09,1-.1,1.05,0,1,0,1.06,0,1.05,0,1,0,1.06-.06,1,0,1-.05,1.05,0,1.06,0H965l1,0,1.06,0,1,0,1.05,0,1,0,1.06,0,1.05.09,1,.1,1.05,0,1.06.09,1,.07,1.35.05"
         transform="translate(-4.26 -9.2)" />
    </g>
    <g
       class="cls-14"
       clip-path="url(#clip-path-5)"
       id="g351511">
      <path
         id="path93935"
         class="cls-15"
         d="M979.22,455.9l-2.66-1.33v2.66Z"
         transform="translate(-4.26 -9.2)" />
    </g>
    <g
       class="cls-14"
       clip-path="url(#clip-path-5)"
       id="g351514">
      <path
         id="path93937"
         class="cls-15"
         d="M979.22,460l-2.66-1.33v2.67Z"
         transform="translate(-4.26 -9.2)" />
    </g>
  </g>
  <g
     id="PolyCollection_3"
     data-name="PolyCollection 3" />
  <g
     id="patch_3"
     data-name="patch 3">
    <g
       class="cls-19"
       clip-path="url(#clip-path-9)"
       id="g351526">
      <path
         id="path78614"
         class="cls-20"
         d="M922.8,168.46l-.14,65.13-1.93,13.78L918.63,260,916.4,271.5,913.79,283l-2.71,10.34-2.74,9.19-3.09,9.19-3.49,9.19L898.34,329l-3.81,8-4.24,8-.64,1.15m52.09-177.72.15,65.13,1.92,13.78,2.1,12.64,2.24,11.49,2.6,11.49,2.71,10.34,2.74,9.19,3.09,9.19,3.49,9.19,3.43,8.05,3.81,8,4.23,8,.64,1.15h0"
         transform="translate(-4.26 -9.2)" />
    </g>
  </g>
  <g
     id="PolyCollection_1"
     data-name="PolyCollection 1">
    <g
       class="cls-19"
       clip-path="url(#clip-path-9)"
       id="g351530">
      <path
         id="path78617"
         class="cls-21"
         d="M941.74,168.46H922.8v64h0l-.14,1.15-.15,1.14-.15,1.15-.15,1.15-.16,1.15-.15,1.15-.16,1.15-.16,1.15-.17,1.15-.16,1.15-.17,1.15-.17,1.14-.18,1.15-.17,1.15-.18,1.15-.19,1.15L920,252l-.19,1.15-.19,1.15-.19,1.15-.2,1.14-.2,1.15-.2,1.15-.21,1.15-.2,1.15-.22,1.15-.21,1.15-.22,1.15-.22,1.15-.23,1.14-.23,1.15-.23,1.15-.23,1.15-.24,1.15-.25,1.15-.24,1.15-.25,1.15-.26,1.15-.26,1.15-.26,1.14-.27,1.15-.27,1.15-.27,1.15-.28,1.15-.28,1.15-.29,1.15-.29,1.15-.3,1.15-.3,1.14-.3,1.15-.31,1.15-.32,1.15-.32,1.15-.32,1.15-.33,1.15-.33,1.15-.34,1.15-.35,1.15-.35,1.14-.35,1.15-.37,1.15-.36,1.15-.37,1.15-.38,1.15-.38,1.15-.39,1.15-.4,1.15-.4,1.14-.41,1.15-.41,1.15-.42,1.15-.43,1.15-.43,1.15-.44,1.15-.45,1.15-.45,1.15-.46,1.14-.47,1.15-.47,1.15-.48,1.15-.49,1.15-.5,1.15-.5,1.15-.51,1.15-.52,1.15-.53,1.15-.54,1.14-.54,1.15-.55,1.15-.56,1.15-.57,1.15-.58,1.15-.59,1.15-.59,1.15-.61,1.15-.61,1.14-.62,1.15-.64,1.15-.64,1.15h85.24l-.64-1.15-.63-1.15-.62-1.15-.62-1.14-.6-1.15-.6-1.15-.59-1.15L970,337l-.57-1.15-.56-1.15-.55-1.15-.55-1.15-.53-1.14-.53-1.15-.52-1.15-.51-1.15-.51-1.15-.49-1.15-.49-1.15-.48-1.15-.48-1.15-.46-1.15-.47-1.14-.45-1.15-.44-1.15-.44-1.15-.44-1.15-.42-1.15-.42-1.15-.42-1.15-.4-1.15-.41-1.14-.39-1.15-.39-1.15-.38-1.15-.38-1.15-.37-1.15-.37-1.15-.36-1.15-.36-1.15-.35-1.14-.34-1.15-.34-1.15-.33-1.15-.33-1.15-.33-1.15-.32-1.15-.31-1.15-.31-1.15-.31-1.15-.3-1.14-.29-1.15-.3-1.15-.28-1.15-.29-1.15-.27-1.15-.28-1.15-.27-1.15-.27-1.15-.26-1.14-.26-1.15-.25-1.15-.25-1.15-.25-1.15-.24-1.15-.24-1.15-.24-1.15-.23-1.15-.23-1.15-.22-1.14-.22-1.15-.22-1.15-.22-1.15-.21-1.15-.21-1.15-.2-1.15-.21-1.15-.2-1.15-.19-1.14-.2-1.15-.19-1.15-.18-1.15-.19-1.15-.18-1.15-.18-1.15-.18-1.15-.17-1.15-.17-1.14-.17-1.15-.17-1.15-.16-1.15-.16-1.15-.16-1.15-.16-1.15-.15-1.15-.15-1.15-.15-1.15-.15-1.14-.15-1.15h0Z"
         transform="translate(-4.26 -9.2)" />
    </g>
  </g>
  <g
     id="patch_6"
     data-name="patch 6">
    <g
       class="cls-19"
       clip-path="url(#clip-path-9)"
       id="g351534">
      <path
         id="path78935"
         class="cls-22"
         d="M886.51,346.18l-1.57-.05-1.58-.06-1.57-.15-1.57-.05-1.58-.12-1.57-.06-1.57-.05-1.58-.09-1.57-.11-2.69-.09"
         transform="translate(-4.26 -9.2)" />
    </g>
    <g
       class="cls-19"
       clip-path="url(#clip-path-9)"
       id="g351537">
      <path
         id="path78937"
         class="cls-23"
         d="M886.51,346.18l-1.57-.05-1.58-.06-1.57-.15-1.57-.05-1.58-.12-1.57-.06-1.57-.05-1.58-.09-1.57-.11-2.69-.09"
         transform="translate(-4.26 -9.2)" />
    </g>
    <g
       class="cls-19"
       clip-path="url(#clip-path-9)"
       id="g351540">
      <path
         id="path78939"
         class="cls-24"
         d="M876,349.33l-1.39-.75-1.38-.76-1.34-.84-2.05-1.08,1.46,0,1.44-.65,1.43-.65,2.11-1-1,1-.08,1.57-.09,3.15Z"
         transform="translate(-4.26 -9.2)" />
    </g>
    <g
       class="cls-19"
       clip-path="url(#clip-path-9)"
       id="g351543">
      <path
         id="path78941"
         class="cls-25"
         d="M876,349.33l-1.39-.75-1.38-.76-1.34-.84-2.05-1.08,1.46,0,1.44-.65,1.43-.65,2.11-1-1,1-.08,1.57-.09,3.15Z"
         transform="translate(-4.26 -9.2)" />
    </g>
    <g
       id="patch_7"
       data-name="patch 7">
      <g
         class="cls-19"
         clip-path="url(#clip-path-9)"
         id="g351546">
        <path
           id="path78943"
           class="cls-22"
           d="M978,346.18l1.57.05,1.58.06,1.57.15,1.57.05,1.58.12,1.57.06,2.67.06"
           transform="translate(-4.26 -9.2)" />
      </g>
      <g
         class="cls-19"
         clip-path="url(#clip-path-9)"
         id="g351549">
        <path
           id="path78945"
           class="cls-23"
           d="M978,346.18l1.57.05,1.58.06,1.57.15,1.57.05,1.58.12,1.57.06,2.67.06"
           transform="translate(-4.26 -9.2)" />
      </g>
      <g
         class="cls-19"
         clip-path="url(#clip-path-9)"
         id="g351552">
        <path
           id="path78947"
           class="cls-24"
           d="M983.86,343l1.38.75,1.38.76,1.34.84,2,1.08-1.46,0-1.43.65-1.43.65-2.12,1,1-1,.09-1.57.09-3.15Z"
           transform="translate(-4.26 -9.2)" />
      </g>
      <g
         class="cls-19"
         clip-path="url(#clip-path-9)"
         id="g351555">
        <path
           id="path78949"
           class="cls-25"
           d="M983.86,343l1.38.75,1.38.76,1.34.84,2,1.08-1.46,0-1.43.65-1.43.65-2.12,1,1-1,.09-1.57.09-3.15Z"
           transform="translate(-4.26 -9.2)" />
      </g>
    </g>
  </g>
  <g
     id="matplotlib.axis_2"
     data-name="matplotlib.axis 2">
    <g
       id="ytick_1"
       data-name="ytick 1">
      <g
         id="line2d_3"
         data-name="line2d 3">
        <g
           id="g78707">
          <path
             id="use78705"
             class="cls-26"
             d="M816.09,492.36h-5.5"
             transform="translate(-4.26 -9.2)" />
        </g>
      </g>
    </g>
    <g
       id="ytick_5"
       data-name="ytick 5">
      <g
         id="line2d_7"
         data-name="line2d 7">
        <g
           id="g78777">
          <path
             id="use78775"
             class="cls-26"
             d="M816.09,350.18h-5.5"
             transform="translate(-4.26 -9.2)" />
        </g>
      </g>
    </g>
    <g
       id="ytick_8"
       data-name="ytick 8">
      <g
         id="line2d_10"
         data-name="line2d 10">
        <g
           id="g78828">
          <path
             id="use78826"
             class="cls-26"
             d="M816.09,231.55h-5.5"
             transform="translate(-4.26 -9.2)" />
        </g>
      </g>
    </g>
  </g>
  <g
     id="patch_8"
     data-name="patch 8">
    <path
       id="path78951"
       class="cls-27"
       d="M816.09,492.36V172.46"
       transform="translate(-4.26 -9.2)" />
  </g>
  <g
     id="Time_scale-7"
     data-name="Time scale-7">
    <g
       id="g6667">
      <g
         id="g6635">
        <g
           id="g6633">
          <path
             id="path6631"
             d="M750.81,364a237.74,237.74,0,0,0,31.69.41c1.94-.11,1.58-3.1-.36-3a224.14,224.14,0,0,1-30.88-.39C749.35,360.91,748.81,363.86,750.81,364Z"
             transform="translate(-4.26 -9.2)" />
        </g>
      </g>
      <g
         id="g6641">
        <g
           id="g6639">
          <path
             id="path6637"
             d="M752.33,378.75c-.17-10.95-.76-21.86-2-32.76a1.51,1.51,0,0,0-3,.36c1.19,10.9,1.78,21.81,2,32.76C749.36,381,752.35,380.67,752.33,378.75Z"
             transform="translate(-4.26 -9.2)" />
        </g>
      </g>
      <g
         id="g6647">
        <g
           id="g6645">
          <path
             id="path6643"
             d="M767.14,351.54a47.58,47.58,0,0,0,12.17-.9c1.87-.32,1.51-3.31-.36-3a47.22,47.22,0,0,1-11.37.92c-1.91-.09-2.45,2.87-.44,3Z"
             transform="translate(-4.26 -9.2)" />
        </g>
      </g>
      <g
         id="g6653">
        <g
           id="g6651">
          <path
             id="path6649"
             d="M761.86,349.64c.3,0-.38-.16-.1,0-.18-.13-.18-.13-.1,0l-.16-.23a1.49,1.49,0,1,0-2.39,1.77,3.34,3.34,0,0,0,2.29,1.56,1.55,1.55,0,0,0,1.71-1.26,1.51,1.51,0,0,0-1.25-1.81Z"
             transform="translate(-4.26 -9.2)" />
        </g>
      </g>
      <g
         id="g6659">
        <g
           id="g6657">
          <path
             id="path6655"
             d="M768.33,343.63a68.31,68.31,0,0,0,14.39-3.6c1.82-.64.7-3.33-1.1-2.79-2,.7-13.58,1.6-8.32-2.47,2-1.51,6.87-2,9.29-2.65,1.69-.45.86-3-.78-2.84s-3.4.4-5.06.65a17.84,17.84,0,0,1-4.68.21c-3.93-2.11-4.55-4-2-5.85,2.57-3,8-3.65,11.74-4.81,1.8-.54.71-3.34-1.09-2.8-6.25,1.89-15,2.3-15.22,10.46-.16,8.47,11.71,5.5,16.6,5.22l-.78-2.85c-3.39,1-15.72,2.3-13.22,8.54,2,4.95,10.73,3.33,14.46,2.07-.36-1-.74-1.83-1.1-2.8a61.56,61.56,0,0,1-13.66,3.41c-1.74.14-1.38,3.13.48,2.9Z"
             transform="translate(-4.26 -9.2)" />
        </g>
      </g>
      <g
         id="g6665">
        <g
           id="g6663">
          <path
             id="path6661"
             d="M778.14,314c.64-4.25-1.42-9.41-6.48-9.36-4.36,0-6.58,4.77-4.5,8.42,2.64,4.64,8.44,3.7,12.54,2,5.17-2.06,5.17-8.13,3.63-12.71-.64-1.81-3.43-.71-2.79,1.1.67,2.23,1.36,5.77-.26,7.75-1.35,1.62-5.63,2.49-7.51,2.21a3.82,3.82,0,0,1-3.09-2.29c-.66-1.71.36-3.78,2.36-3.59,3,.15,3.51,3.56,3.25,5.95A1.45,1.45,0,1,0,778.14,314Z"
             transform="translate(-4.26 -9.2)" />
        </g>
      </g>
    </g>
    <g
       id="g6707">
      <g
         id="g6673"
         class="cls-28">
        <g
           id="g6671">
          <path
             id="path6669"
             d="M746.33,171.15c-.76,9.68-1.42,19.47-2.18,29.15-.15,1.9,2.85,2,3,.08.76-9.68,1.42-19.47,2.18-29.15C749.48,169.33,746.48,169.25,746.33,171.15Z"
             transform="translate(-4.26 -9.2)" />
        </g>
      </g>
      <g
         id="g6699">
        <g
           id="g6679"
           class="cls-28">
          <g
             id="g6677">
            <path
               id="path6675"
               d="M749.46,173.83c-.06-1.4,5-.26,5.31-.16a4.08,4.08,0,0,1,2.26,5.07c-1,3.77-5.24,5.16-8.66,6a1.5,1.5,0,0,0,.72,2.92c5.84-1.35,13.67-6,10.46-13.23-1.32-3-4.59-4.12-7.69-4.2-2.3-.07-5.62.65-5.5,3.55.25,2,3.25,2.09,3.1.08Z"
               transform="translate(-4.26 -9.2)" />
          </g>
        </g>
        <g
           id="g6685"
           class="cls-28">
          <g
             id="g6683">
            <path
               id="path6681"
               d="M768.37,188.84c-.9-3.92-5.38-4.54-8.44-2.52-3.46,2.31-6.68,6.92-5.6,11.15,1,3.83,5.07,5.24,8.51,3.63,4.76-2.17,5.21-7.66,5.13-12.27l-3-.08a14.14,14.14,0,0,0,5.71,11.06c1.57,1.14,3.14-1.42,1.57-2.56a10.89,10.89,0,0,1-4.28-8.42c-.05-1.9-3.05-2-3-.08a18.16,18.16,0,0,1-.67,6.49c-.86,2.27-3.63,4.7-6,2.84-2.16-1.66-1-4.63.37-6.49.94-1.28,5.77-6.25,6.66-2.13.55,1.92,3.47,1.3,3-.62Z"
               transform="translate(-4.26 -9.2)" />
          </g>
        </g>
        <g
           id="g6691"
           class="cls-28">
          <g
             id="g6689">
            <path
               id="path6687"
               d="M778.28,184.61c-3.41-3.2-9.11.35-7.43,4.9a5.76,5.76,0,0,0,5.41,3.64c.9,0,4.43-1.38,5.12-.66,2.53,2.57-5,3.27-5.69,3.25a1.5,1.5,0,0,0-.08,3c2.69.17,5.71-.35,7.76-2.29,1.54-1.36,2.3-3.64,1-5.38s-3.65-1.9-5.66-1.45c-1.71.35-3.93,1.3-5-.83-.76-1.42,1-3.38,2.36-2.14S779.65,185.84,778.28,184.61Z"
               transform="translate(-4.26 -9.2)" />
          </g>
        </g>
        <g
           id="g6697"
           class="cls-28">
          <g
             id="g6695">
            <path
               id="path6693"
               d="M788.21,176.37a85.72,85.72,0,0,0-1,10.08c-.06,2.19,0,4.6,1.33,6.43,3.09,4.09,8.27,1.32,11.23-1.2,1.54-1.16-.61-3.42-2-2.15-1,.87-3.28,2.81-4.77,2.47-2.78-.67-2.81-3.18-2.75-5.38a85.83,85.83,0,0,1,1-10.07C791.46,174.55,788.46,174.47,788.21,176.37Z"
               transform="translate(-4.26 -9.2)" />
          </g>
        </g>
      </g>
      <g
         id="g6705"
         class="cls-28">
        <g
           id="g6703">
          <path
             id="path6701"
             d="M781.3,187.69a145.53,145.53,0,0,1,17.13-4.55c1.91-.35,1.19-3.27-.72-2.92a145,145,0,0,0-17.13,4.55C778.77,185.32,779.49,188.24,781.3,187.69Z"
             transform="translate(-4.26 -9.2)" />
        </g>
      </g>
    </g>
  </g>
  <g
     id="g6774">
    <g
       id="g6766">
      <g
         id="g6752">
        <g
           id="g6750">
          <path
             id="path6748"
             d="M739,468.21c5.2,10.6,10.1,21.3,14.6,32.1a1.51,1.51,0,0,0,2.9,0c4.5-12.4-2.4-25,.3-37.5.4-1.9-2.5-2.7-2.9-.8-2.7,12.5,4.2,25.3-.3,37.5h2.9c-4.7-11.1-9.6-22-14.9-32.8-.9-1.8-3.4-.3-2.6,1.5Z"
             transform="translate(-4.26 -9.2)" />
        </g>
      </g>
      <g
         id="g6758">
        <g
           id="g6756">
          <path
             id="path6754"
             d="M763.38,487.31c-1,3.1-2,6.6-.3,9.7a7.85,7.85,0,0,0,6,3.9c5.4.6,9.4-4.1,9.2-9.2-.2-5.7-5.8-10-11.3-9.8-5.3.2-10,5.4-6.7,10.4,1.1,1.6,3.6.1,2.6-1.5-2.7-4.2,3-6.5,6.4-5.7s6.4,3.9,6.1,7.6c-.3,3.3-3,6-6.4,5.1-4.7-1.2-3.6-6.3-2.4-9.7.3-1.9-2.6-2.7-3.2-.8Z"
             transform="translate(-4.26 -9.2)" />
        </g>
      </g>
      <g
         id="g6764">
        <g
           id="g6762">
          <path
             id="path6760"
             d="M781.38,487.31c.3,4.9.6,9.8.9,14.6a1.53,1.53,0,0,0,2.8.8c1.9-2.5,3.7-5,5.6-7.5h-2.6l4.5,7.8a1.48,1.48,0,0,0,2.7-.4,62.83,62.83,0,0,0,3.1-17.1c.1-1.9-2.9-1.9-3,0a56.55,56.55,0,0,1-3,16.3,25.12,25.12,0,0,0,2.7-.4l-4.5-7.8a1.5,1.5,0,0,0-2.6,0c-1.9,2.5-3.7,5-5.6,7.5.9.3,1.9.5,2.8.8-.3-4.9-.6-9.8-.9-14.6,0-1.9-3-1.9-2.9,0Z"
             transform="translate(-4.26 -9.2)" />
        </g>
      </g>
    </g>
    <g
       id="g6772">
      <g
         id="g6770">
        <path
           id="path6768"
           d="M737.78,468.71c.7,11,1.3,22,2,33,.1,1.9,3.1,1.9,3,0-.7-11-1.3-22-2-33C740.68,466.81,737.68,466.71,737.78,468.71Z"
           transform="translate(-4.26 -9.2)" />
      </g>
    </g>
  </g>
  <metadata
     id="metadata363077">
    <rdf:RDF>
      <cc:Work
         rdf:about="">
        <dc:title>full</dc:title>
      </cc:Work>
    </rdf:RDF>
  </metadata>
  <g
     id="PolyCollection_2-6"
     style="stroke-linecap:butt;stroke-linejoin:round"
     transform="matrix(1.1002663,0,0,1.5724642,764.3433,136.22329)">
    <path
       d="M 109.48174,127.56736 H 74.776074 v 90.37451 h 34.705666 v 0 z"
       clip-path="url(#p75db4d1339-5)"
       style="fill:#ff7f0e;fill-opacity:0.5;stroke-linecap:butt;stroke-linejoin:round"
       id="path46807" />
  </g>
  <g
     id="PolyCollection_3-7"
     style="stroke-linecap:butt;stroke-linejoin:round"
     transform="matrix(0.8303679,0,0,1.5634409,783.55386,137.86759)">
    <path
       d="m 285.32061,127.56736 h -57.84278 v 90.37451 h 57.84278 v 0 z"
       clip-path="url(#p75db4d1339-5)"
       style="fill:#2ca02c;fill-opacity:0.5;stroke-linecap:butt;stroke-linejoin:round"
       id="path46813" />
  </g>
  <g
     id="patch_4"
     style="stroke-linecap:butt;stroke-linejoin:round;stroke-width:1.12500003;stroke-dasharray:none"
     transform="matrix(1.3333333,0,0,1.3333333,974.63808,173.86848)">
    <path
       d="m 74.776074,127.56736 v 90.37451 m 34.705666,-90.37451 v 90.37451"
       clip-path="url(#p75db4d1339-56)"
       style="fill:none;stroke:#ff7f0e;stroke-linecap:butt;stroke-linejoin:miter;stroke-width:1.14276768;stroke-dasharray:none"
       id="path46804"
       transform="matrix(0.82292771,0,0,1.1776805,-157.68319,-27.914285)" />
  </g>
  <g
     id="patch_5"
     style="stroke-linecap:butt;stroke-linejoin:round;stroke-width:1.39837243;stroke-dasharray:none"
     transform="matrix(0.83936299,0,0,1.5597121,781.09543,138.41434)">
    <path
       d="m 227.47783,127.56736 v 90.37451 m 57.84278,-90.37451 v 90.37451"
       clip-path="url(#p75db4d1339-56)"
       style="fill:none;stroke:#2ca02c;stroke-linecap:butt;stroke-linejoin:miter;stroke-width:1.39837243;stroke-dasharray:none"
       id="path46810" />
  </g>
  <g
     id="g138522">
    <g
       id="g138520">
      <g
         id="g138425">
        <path
           id="path138323"
           d="m 983.39,504.62 c -1.77,1.77 -3.95,4.42 -1.8,6.78 a 7.82,7.82 0 0 0 5.92,2.24 9.31,9.31 0 0 1 1.31,-2.08 6.93,6.93 0 0 1 -5.09,-1 c -2.13,-1.59 0.09,-3.75 1.48,-4.92 1.39,-1.17 4,-2.47 5.47,-0.64 1,1.17 0.73,3 0.43,4.41 a 13.79,13.79 0 0 1 2.1,-1.34 c 0.13,-2.15 -0.29,-4.33 -2.32,-5.36 -2.7,-1.41 -5.57,0 -7.5,1.92 z"
           transform="translate(-4.26,-9.2)" />
        <path
           id="path138325"
           class="cls-5"
           d="m 985.14,505.63 c -1.39,1.16 -3.61,3.33 -1.48,4.92 a 6.63,6.63 0 0 0 5.09,1 11.72,11.72 0 0 1 2.29,-2.16 c 0.23,-1.44 0.48,-3.24 -0.43,-4.41 -1.49,-1.83 -4.07,-0.52 -5.47,0.65 z"
           transform="translate(-4.26,-9.2)"
           style="fill:#ffffff" />
        <path
           id="path138327"
           d="m 987.11,514.59 a 0.82,0.82 0 0 0 0.35,1.06 l 0.54,-2 a 1.17,1.17 0 0 0 -0.49,0 4.11,4.11 0 0 0 -0.4,1 z"
           transform="translate(-4.26,-9.2)" />
        <path
           id="path138329"
           d="m 987.46,515.65 c -1.89,8.24 -0.22,16.21 8.47,19.94 8.35,3.57 19.25,4.09 27.07,-0.94 5.87,-3.75 11.52,-12.11 7.7,-19.09 a 13.21,13.21 0 0 0 -3.32,-3.76 4.08,4.08 0 0 1 -1,0.43 0.84,0.84 0 0 1 -0.7,0 l -0.45,0.6 a 20.39,20.39 0 0 1 1.93,1.51 c 4.15,3.8 3,9.65 0.07,13.79 -6,8.48 -17.43,9.52 -26.74,6.94 -4.86,-1.34 -9.8,-3.73 -11.37,-8.9 -1.34,-4.19 -0.3,-8.79 1,-12.82 v -0.14 a 2.93,2.93 0 0 0 -0.29,0.05 6,6 0 0 0 -0.87,1.83 1,1 0 0 1 -1.5,0.6 z"
           transform="translate(-4.26,-9.2)" />
        <path
           id="path138331"
           d="m 987.51,513.64 a 1.17,1.17 0 0 0 0.49,0 l 0.26,-0.82 a 1,1 0 0 1 1.87,0.11 4.77,4.77 0 0 1 0.75,-0.86 v 0 a 0.83,0.83 0 0 0 -1.08,-0.62 c -0.35,0 -0.63,0.17 -1,0.22 a 7.57,7.57 0 0 0 -1.29,1.97 z"
           transform="translate(-4.26,-9.2)" />
        <path
           id="path138333"
           d="m 987.46,515.65 a 1,1 0 0 0 1.49,-0.46 12,12 0 0 1 0.88,-1.83 14.72,14.72 0 0 1 -1.83,0.24 z"
           transform="translate(-4.26,-9.2)" />
        <path
           id="path138335"
           d="M 988.26,512.78 988,513.6 a 14.72,14.72 0 0 0 1.83,-0.24 c 0.07,-0.14 0.23,-0.33 0.3,-0.47 a 1,1 0 0 0 -1.87,-0.11 z"
           transform="translate(-4.26,-9.2)" />
        <path
           id="path138337"
           d="m 988.82,511.56 a 4.23,4.23 0 0 0 1,-0.22 0.83,0.83 0 0 1 1.08,0.62 8.86,8.86 0 0 1 1.18,-1.11 c -0.57,0.1 -1.24,-0.22 -1.13,-1 0,-0.21 0.09,-0.35 0.11,-0.55 a 16.2,16.2 0 0 0 -2.23,2.23 z"
           transform="translate(-4.26,-9.2)" />
        <path
           id="path138339"
           class="cls-5"
           d="m 990.1,513.45 c -1.36,4 -2.33,8.63 -1,12.82 1.64,5.11 6.58,7.57 11.37,8.9 9.32,2.51 20.72,1.53 26.74,-6.94 2.89,-4.15 4,-10.07 -0.07,-13.79 a 18.88,18.88 0 0 0 -1.93,-1.51 31,31 0 0 0 -10,-4.58 c -5.89,-1.54 -16.44,-2 -22.4,2.13 a 0.94,0.94 0 0 1 -0.73,0.51 8.25,8.25 0 0 0 -1.18,1.11 v 0 a 1,1 0 0 1 -0.71,1.28 v 0 l -0.07,0.07 z m 30.82,6.11 a 1.8,1.8 0 0 1 -1.11,-2.3 v -0.07 a 1.44,1.44 0 0 1 0.74,-0.79 1.58,1.58 0 0 1 1.25,0.15 1.79,1.79 0 0 1 0.19,2.59 0.91,0.91 0 0 1 -1.07,0.42 z m -1.47,9.31 0.29,-4.72 c 0,-0.48 0.55,-1 1,-0.91 a 15.9,15.9 0 0 1 3.49,0.91 1,1 0 0 1 0,1.88 4.25,4.25 0 0 1 -3.65,3.89 1.08,1.08 0 0 1 -1.19,-1 z m 6.21,-9.44 a 1.32,1.32 0 0 1 1.23,-1.88 1.29,1.29 0 0 1 1,2 0.9,0.9 0 0 1 -1.07,0.43 1.14,1.14 0 0 1 -1.16,-0.55 z"
           transform="translate(-4.26,-9.2)"
           style="fill:#ffffff" />
        <path
           id="path138341"
           d="m 989.9,513.36 c 0.06,0 0.21,-0.05 0.28,-0.05 v -0.35 a 1.31,1.31 0 0 0 -0.28,0.4 z"
           transform="translate(-4.26,-9.2)" />
        <path
           id="path138343"
           d="m 990.2,513 c 0,0.14 0,0.22 0,0.35 v 0 a 1,1 0 0 0 0.7,-1.28 5.29,5.29 0 0 0 -0.7,0.93 z"
           transform="translate(-4.26,-9.2)" />
        <path
           id="path138345"
           d="m 990.94,510 c -0.12,0.75 0.56,1.07 1.12,1 a 4,4 0 0 1 0.73,-0.51 0.51,0.51 0 0 0 0.09,-0.28 c 0.1,-0.62 0.21,-1.31 0.26,-2 a 13.25,13.25 0 0 0 -2.1,1.33 c 0,0.14 -0.09,0.35 -0.1,0.49 z"
           transform="translate(-4.26,-9.2)" />
        <path
           id="path138347"
           d="m 992.79,510.41 c -0.22,0.19 -0.51,0.31 -0.73,0.51 a 1.14,1.14 0 0 0 0.73,-0.51 z"
           transform="translate(-4.26,-9.2)" />
        <path
           id="path138349"
           d="m 992.88,510.06 a 1.31,1.31 0 0 1 -0.09,0.28 c 6,-4.17 16.52,-3.67 22.41,-2.13 a 29,29 0 0 1 10,4.58 l 0.45,-0.6 a 1.16,1.16 0 0 1 -0.42,-1.14 1.1,1.1 0 0 1 -0.64,-0.88 v -0.06 c -0.14,-0.08 -0.34,-0.16 -0.48,-0.24 a 0.9,0.9 0 0 1 -1.29,-0.43 c -0.07,-0.14 -0.13,-0.22 -0.19,-0.36 l -1,-0.48 a 35,35 0 0 0 -14,-3.35 c -4.44,-0.13 -10.19,0.5 -14.65,2.87 a 6,6 0 0 1 -0.12,1.94 z"
           transform="translate(-4.26,-9.2)" />
        <path
           id="path138351"
           d="m 1017.75,483.37 c -3.62,1.11 -6,6.81 -4.8,10.22 0.83,2.49 2.87,4.42 4.35,6.46 a 57.36,57.36 0 0 1 5.44,9 15.07,15.07 0 0 1 1.48,0.78 0.75,0.75 0 0 0 0.44,-0.39 c -0.05,-0.35 0,-0.7 -0.07,-1.05 a 66.16,66.16 0 0 0 -5.89,-9.68 c -1.42,-1.9 -3.46,-3.76 -3.94,-6.16 a 7.09,7.09 0 0 1 2,-6.21 c 5.46,-5 7.4,8.87 7.52,11.59 0.2,3.5 0.07,6.9 0.2,10.39 0,0.07 0.07,0.07 0.06,0.14 a 0.85,0.85 0 0 1 0,0.9 c 0,0.21 0,0.49 0,0.7 a 1.77,1.77 0 0 1 0.46,0.31 1,1 0 0 1 -0.37,-0.79 c 0.09,-3.69 0.1,-7.37 0.19,-11.13 A 68.51,68.51 0 0 1 1025,490 c -1,-3.4 -3.29,-7.79 -7.26,-6.64 z"
           transform="translate(-4.26,-9.2)" />
        <path
           id="path138353"
           class="cls-5"
           d="m 1016.87,486.38 a 7.14,7.14 0 0 0 -2,6.21 c 0.49,2.4 2.53,4.26 3.95,6.16 a 61.52,61.52 0 0 1 5.89,9.69 c -0.14,-3.49 0,-6.9 -0.21,-10.39 -0.18,-2.8 -2.12,-16.7 -7.58,-11.67 z"
           transform="translate(-4.26,-9.2)"
           style="fill:#ffffff" />
        <path
           id="path138355"
           d="m 1021.73,517.66 v 0 c 0,0.14 0,0.21 -0.08,0.27 V 518 a 0.89,0.89 0 0 1 -0.94,0.57 1,1 0 0 1 -0.91,-1 0.6,0.6 0 0 1 0.09,-0.34 v 0.07 a 1.75,1.75 0 0 0 1.11,2.29 0.92,0.92 0 0 0 1.14,-0.42 c 0.53,-0.8 0.81,-2 -0.19,-2.58 a 1.56,1.56 0 0 0 -1.25,-0.15 1.07,1.07 0 0 0 -0.74,0.79 1,1 0 0 1 1.22,-0.55 1.2,1.2 0 0 1 0.55,0.98 z"
           transform="translate(-4.26,-9.2)" />
        <path
           id="path138357"
           d="m 1020.61,517.8 a 0.22,0.22 0 0 0 0.06,0.21 v 0 c 0.28,-0.12 0.56,-0.17 0.85,-0.29 v 0 c 0.07,0 0.06,0.07 0.13,0.07 v 0 -0.07 0 -0.14 a 1.17,1.17 0 0 0 -0.64,-1 1,1 0 0 0 -1.22,0.55 c 0,0.07 -0.08,0.21 -0.09,0.35 a 1,1 0 0 0 0.92,1 1,1 0 0 0 0.94,-0.57 v 0 c -0.24,0.47 -0.8,0.58 -1,0.08 -0.07,0 -0.15,0.06 -0.22,0 0.08,-0.06 0.08,-0.13 0.16,-0.2 0.08,-0.07 0.11,0.01 0.11,0.01 z m 0,0 z"
           transform="translate(-4.26,-9.2)" />
        <path
           id="path138359"
           d="m 1019.74,524.15 -0.29,4.72 a 1,1 0 0 0 1.19,1 4.19,4.19 0 0 0 3.65,-3.89 0.83,0.83 0 0 1 -0.7,0 8.06,8.06 0 0 0 -1.22,-0.43 v 0.21 a 2.25,2.25 0 0 1 -0.86,1.69 l -0.1,1.53 c -0.39,-0.38 -0.79,-0.68 -1.19,-1 a 2.59,2.59 0 0 0 1.29,-0.48 l 0.12,-2.08 c -0.34,-0.09 -0.62,-0.11 -1,-0.2 l 1,-0.91 -0.07,1.11 c 0.28,0.09 0.48,0.1 0.76,0.18 a 1,1 0 0 1 1.93,0.33 V 526 a 1,1 0 0 0 0,-1.88 12.07,12.07 0 0 0 -3.49,-0.91 1,1 0 0 0 -1.02,0.94 z"
           transform="translate(-4.26,-9.2)" />
        <path
           id="path138361"
           d="m 1020.54,517.86 a 0.37,0.37 0 0 1 -0.16,0.2 c 0.07,0 0.15,-0.06 0.22,0 v 0 a 0.26,0.26 0 0 1 -0.06,-0.21 c 0.07,-0.05 0.06,0.02 0,0.01 z"
           transform="translate(-4.26,-9.2)" />
        <path
           id="path138363"
           d="m 1020.61,517.73 v 0.14 0 z"
           transform="translate(-4.26,-9.2)" />
        <path
           id="path138365"
           d="m 1021.52,517.72 c -0.29,0.12 -0.57,0.17 -0.85,0.29 0.17,0.5 0.74,0.39 1,-0.08 v 0 -0.07 0 -0.07 0 c -0.06,-0.07 -0.06,-0.07 -0.13,-0.07 z"
           transform="translate(-4.26,-9.2)" />
        <path
           id="path138367"
           d="m 1020.2,527.94 c 0.4,0.37 0.8,0.67 1.19,1 l 0.1,-1.53 a 2.59,2.59 0 0 1 -1.29,0.48 z"
           transform="translate(-4.26,-9.2)" />
        <path
           id="path138369"
           d="m 1021.68,524.27 -1,0.91 a 3.78,3.78 0 0 1 1,0.2 z"
           transform="translate(-4.26,-9.2)" />
        <path
           id="path138371"
           d="M 1021.52,517.72 Z"
           transform="translate(-4.26,-9.2)" />
        <path
           id="path138373"
           d="M 1021.65,517.79 Z"
           transform="translate(-4.26,-9.2)" />
        <path
           id="path138375"
           d="M 1021.65,517.79 Z"
           transform="translate(-4.26,-9.2)" />
        <path
           id="path138377"
           d="m 1021.65,517.93 v 0 a 0.52,0.52 0 0 0 0.08,-0.27 v 0.07 0 0.07 l -0.07,0.13 z"
           transform="translate(-4.26,-9.2)" />
        <path
           id="path138379"
           d="M 1021.65,517.93 Z"
           transform="translate(-4.26,-9.2)" />
        <path
           id="path138381"
           d="M 1021.65,517.93 Z"
           transform="translate(-4.26,-9.2)" />
        <path
           id="path138383"
           d="M 1021.65,517.79 Z"
           transform="translate(-4.26,-9.2)" />
        <path
           id="path138385"
           d="M 1021.65,517.79 Z"
           transform="translate(-4.26,-9.2)" />
        <path
           id="path138387"
           d="M 1021.65,517.86 Z"
           transform="translate(-4.26,-9.2)" />
        <path
           id="path138389"
           d="m 1022.74,509.09 c 0.06,0.14 0.12,0.21 0.18,0.36 a 1,1 0 0 0 1.3,0.42 15.07,15.07 0 0 0 -1.48,-0.78 z"
           transform="translate(-4.26,-9.2)" />
        <path
           id="path138391"
           d="m 1025.08,490 c -0.31,2.77 -0.14,5.7 -0.17,8.49 -0.08,3.68 -0.1,7.37 -0.19,11.12 a 0.94,0.94 0 0 0 0.37,0.79 0.31,0.31 0 0 1 0.14,0.08 c 0.06,0.07 0.2,0.08 0.27,0.09 0.07,0.01 0.22,-0.2 0.36,-0.19 a 2.94,2.94 0 0 0 0.65,-0.31 c -0.39,-6.22 0.34,-12.58 -1.17,-18.66 a 3.78,3.78 0 0 0 -0.26,-1.41 z"
           transform="translate(-4.26,-9.2)" />
        <path
           id="path138393"
           d="m 1025.4,488.08 a 9.16,9.16 0 0 0 -0.32,1.93 c 0.18,0.5 0.28,1 0.4,1.42 1.51,6.08 0.78,12.44 1.17,18.66 v 0 a 0.75,0.75 0 0 0 0.09,-0.34 l 0.15,-12.94 c 0,-1.81 0,-3.62 0.13,-5.5 0.08,-1.32 0.09,-3.82 1.12,-4.8 1.42,-0.4 2.77,-0.88 4.12,-1.28 0.45,0.51 0.92,1 1.3,1.47 2.15,3.68 0.32,9.69 -1,13.37 -1.09,3.14 -2.66,8.33 -6,10 v 0.28 a 0.7,0.7 0 0 1 -0.39,0.74 c 0.4,0.24 0.73,0.54 1.06,0.76 4.31,-2.17 6.13,-8.05 7.5,-12.28 1.37,-4.23 3.22,-11.71 -0.6,-15.36 -3.42,-3.21 -7.79,-0.04 -8.73,3.87 z"
           transform="translate(-4.26,-9.2)" />
        <path
           id="path138395"
           d="m 1024.3,525.82 a 1,1 0 0 0 -1.93,-0.33 8.58,8.58 0 0 1 1.23,0.43 1.19,1.19 0 0 0 0.69,0 z"
           transform="translate(-4.26,-9.2)" />
        <path
           id="path138397"
           d="m 1024.65,508.58 c 0,-0.07 -0.07,-0.08 -0.06,-0.15 0.05,0.35 0,0.7 0.07,1.05 a 0.84,0.84 0 0 0 -0.01,-0.9 z"
           transform="translate(-4.26,-9.2)" />
        <path
           id="path138399"
           d="m 1024.69,510.11 v 0.07 a 1.08,1.08 0 0 0 0.64,0.87 1.5,1.5 0 0 1 0.24,-0.47 c -0.06,-0.07 -0.13,-0.08 -0.27,-0.16 a 0.21,0.21 0 0 1 -0.13,-0.07 c -0.17,-0.08 -0.34,-0.16 -0.48,-0.24 z"
           transform="translate(-4.26,-9.2)" />
        <path
           id="path138401"
           d="m 1025.3,510.49 a 0.24,0.24 0 0 1 -0.14,-0.07 c 0.07,0 0.07,0.07 0.14,0.07 z"
           transform="translate(-4.26,-9.2)" />
        <path
           id="path138403"
           d="m 1025.33,511.05 c -0.09,0.48 0,1 0.42,1.14 a 0.63,0.63 0 0 0 0.7,0 5.62,5.62 0 0 0 1,-0.42 10.07,10.07 0 0 0 -1.07,-0.76 1.14,1.14 0 0 1 -1.05,0.04 z"
           transform="translate(-4.26,-9.2)" />
        <path
           id="path138405"
           d="m 1025.57,510.65 a 0.61,0.61 0 0 0 -0.24,0.47 1,1 0 0 0 1,0 6.84,6.84 0 0 1 -0.76,-0.47 z"
           transform="translate(-4.26,-9.2)" />
        <path
           id="path138407"
           d="m 1025.3,510.49 c 0.06,0.08 0.13,0.08 0.27,0.16 a 0.07,0.07 0 0 1 0.07,-0.07 0.53,0.53 0 0 1 -0.34,-0.09 z"
           transform="translate(-4.26,-9.2)" />
        <path
           id="path138409"
           d="m 1025.64,510.58 v 0 a 2.31,2.31 0 0 0 0.67,0.53 0.75,0.75 0 0 0 0.39,-0.74 v -0.21 a 1,1 0 0 1 -1.07,0.42 z"
           transform="translate(-4.26,-9.2)" />
        <path
           id="path138411"
           d="m 1025.64,510.58 a 1,1 0 0 0 1.07,-0.42 v 0 c -0.22,0.13 -0.43,0.18 -0.64,0.31 a 0.41,0.41 0 0 0 -0.43,0.11 z"
           transform="translate(-4.26,-9.2)" />
        <path
           id="path138413"
           class="cls-5"
           d="m 1028.14,486.51 c -1,1 -1,3.48 -1.12,4.8 -0.11,1.81 -0.08,3.62 -0.13,5.5 l -0.15,12.94 a 0.57,0.57 0 0 1 -0.09,0.34 c 3.3,-1.68 4.8,-6.88 6,-10 1.34,-3.68 3.17,-9.7 1,-13.38 -0.45,-0.51 -0.92,-1 -1.3,-1.47 -1.44,0.46 -2.79,0.87 -4.21,1.27 z"
           transform="translate(-4.26,-9.2)"
           style="fill:#ffffff" />
        <path
           id="path138415"
           d="m 1026.89,517.55 a 1.32,1.32 0 0 0 -1.23,1.88 1,1 0 0 0 1.16,0.49 0.37,0.37 0 0 1 -0.27,-0.16 1,1 0 0 1 -0.43,-0.93 0.88,0.88 0 0 1 0.16,-0.41 v -0.07 c 0,0.14 -0.08,0.21 -0.09,0.34 0.08,-0.13 0.28,0 0.62,0.25 0.6,0.38 0.82,0.26 0.65,-0.45 a 1,1 0 0 1 -0.43,1.3 c -0.07,0 -0.14,0.06 -0.21,0.06 a 0.9,0.9 0 0 0 1.07,-0.43 1.46,1.46 0 0 0 0.08,-1.31 1.63,1.63 0 0 0 -1.08,-0.56 z"
           transform="translate(-4.26,-9.2)" />
        <path
           id="path138417"
           d="m 1026.11,518.9 a 0.89,0.89 0 0 0 0.43,0.93 c 0.07,0.07 0.21,0.08 0.27,0.16 0.06,0.08 0.15,-0.07 0.21,-0.06 a 1,1 0 0 0 0.43,-1.3 c 0.17,0.71 0,0.83 -0.65,0.45 -0.33,-0.3 -0.54,-0.38 -0.61,-0.25 v 0 c -0.07,-0.07 -0.07,0 -0.08,0.07 z"
           transform="translate(-4.26,-9.2)" />
        <path
           id="path138419"
           d="m 1026.11,518.9 v 0 -0.14 0 c 0,-0.14 0.08,-0.2 0.09,-0.34 v 0.07 c 0,0.14 -0.08,0.27 -0.09,0.41 z"
           transform="translate(-4.26,-9.2)" />
        <path
           id="path138421"
           d="M 1026.65,510.09 Z"
           transform="translate(-4.26,-9.2)" />
        <path
           id="path138423"
           d="M 1026.12,518.83 Z"
           transform="translate(-4.26,-9.2)" />
      </g>
      <g
         id="g138517">
        <path
           id="path138427"
           class="cls-29"
           d="m 990.88,512 c -0.22,0.27 -0.52,0.6 -0.75,0.86 a 4.32,4.32 0 0 0 -0.3,0.47 6.31,6.31 0 0 0 -0.88,1.83 1,1 0 0 1 -1.49,0.46 0.86,0.86 0 0 1 -0.35,-1.06 4.11,4.11 0 0 1 0.4,-1 9.31,9.31 0 0 1 1.31,-2.08 11.15,11.15 0 0 1 2.29,-2.16 13.79,13.79 0 0 1 2.1,-1.34 c 4.39,-2.31 10.14,-3 14.66,-2.87 a 35.48,35.48 0 0 1 14,3.36 l 1,0.48 a 12.38,12.38 0 0 1 1.48,0.78 c 0.14,0.08 0.34,0.16 0.48,0.24 a 1.81,1.81 0 0 1 0.47,0.31 0.21,0.21 0 0 1 0.13,0.07 c 0.07,0.08 0.14,0.08 0.27,0.16 0.13,0.08 0.47,0.31 0.74,0.46 0.27,0.15 0.73,0.53 1.07,0.76 a 11.67,11.67 0 0 1 3.32,3.75 c 3.82,7.06 -1.77,15.42 -7.7,19.1 -7.89,5 -18.72,4.51 -27.07,0.94 -8.76,-3.73 -10.43,-11.77 -8.47,-19.94 l 0.54,-2 0.26,-0.82 a 1,1 0 0 1 1.87,0.11 c 0,0.14 0.06,0.21 0,0.35 v 0.13 c -1.36,4 -2.33,8.64 -1,12.83 1.64,5.11 6.57,7.56 11.36,8.9 9.32,2.51 20.73,1.53 26.74,-7 2.9,-4.14 4,-10.06 -0.07,-13.79 a 19.1,19.1 0 0 0 -1.93,-1.5 30.84,30.84 0 0 0 -10,-4.58 c -5.9,-1.54 -16.45,-2 -22.41,2.12 -0.22,0.2 -0.51,0.32 -0.73,0.52 a 5.22,5.22 0 0 0 -1.32,1.1"
           transform="translate(-4.26,-9.2)"
           style="fill:none;stroke:#000000;stroke-linejoin:round" />
        <path
           id="path138429"
           class="cls-29"
           d="m 992.06,510.92 c -0.56,0.1 -1.24,-0.22 -1.12,-1 0,-0.21 0.09,-0.35 0.1,-0.56 0.23,-1.44 0.48,-3.24 -0.43,-4.41 -1.49,-1.83 -4.07,-0.52 -5.47,0.65 -1.4,1.17 -3.61,3.33 -1.48,4.92 a 6.63,6.63 0 0 0 5.09,1 3.78,3.78 0 0 0 1,-0.21 0.83,0.83 0 0 1 1.08,0.62 v 0 a 1,1 0 0 1 -0.71,1.28 v 0 a 2.74,2.74 0 0 0 -0.28,0 12.9,12.9 0 0 1 -1.82,0.24 1.17,1.17 0 0 0 -0.49,0 8.07,8.07 0 0 1 -5.93,-2.24 c -2.15,-2.36 0,-5.08 1.81,-6.78 1.81,-1.7 4.79,-3.33 7.42,-1.92 2.1,1.1 2.45,3.28 2.32,5.36 a 17.29,17.29 0 0 1 -0.26,2 c 0,0.14 -0.08,0.21 -0.08,0.28 a 1,1 0 0 1 -0.74,0.65 z"
           transform="translate(-4.26,-9.2)"
           style="fill:none;stroke:#000000;stroke-linejoin:round" />
        <path
           id="path138431"
           class="cls-29"
           d="m 1026.65,510.09 v 0 a 1,1 0 0 1 -1.08,0.49 c -0.14,0 -0.21,0 -0.27,-0.09 a 0.24,0.24 0 0 1 -0.14,-0.07 0.94,0.94 0 0 1 -0.37,-0.79 c 0.09,-3.69 0.1,-7.38 0.19,-11.13 a 68.51,68.51 0 0 1 0.17,-8.48 15.85,15.85 0 0 1 0.32,-1.93 c 0.93,-3.92 5.31,-7.13 8.8,-3.86 3.89,3.65 2,11 0.6,15.36 -1.4,4.36 -3.19,10.11 -7.5,12.28 a 4.31,4.31 0 0 1 -1,0.43 0.81,0.81 0 0 1 -0.69,0 1.14,1.14 0 0 1 -0.42,-1.14 1.4,1.4 0 0 1 0.24,-0.47 0.07,0.07 0 0 1 0.07,-0.07 c 0.08,-0.06 0.22,-0.2 0.36,-0.19 a 7.51,7.51 0 0 0 0.72,-0.3 v 0"
           transform="translate(-4.26,-9.2)"
           style="fill:none;stroke:#000000;stroke-linejoin:round" />
        <path
           id="path138433"
           class="cls-29"
           d="m 1026.65,510.09 c 3.3,-1.68 4.8,-6.88 6,-10 1.34,-3.68 3.17,-9.7 1,-13.38 -0.45,-0.51 -0.92,-1 -1.3,-1.47 -1.35,0.4 -2.77,0.88 -4.12,1.28 -1,1 -1,3.49 -1.12,4.81 -0.11,1.8 -0.08,3.61 -0.13,5.49 l -0.15,12.94 a 3.54,3.54 0 0 0 -0.18,0.33 z"
           transform="translate(-4.26,-9.2)"
           style="fill:none;stroke:#000000;stroke-linejoin:round" />
        <path
           id="path138435"
           class="cls-29"
           d="m 1024.59,508.43 c 0,0.07 0.06,0.08 0.06,0.15 a 0.83,0.83 0 0 1 -0.06,0.9 0.64,0.64 0 0 1 -0.44,0.39 0.9,0.9 0 0 1 -1.29,-0.43 c -0.07,-0.14 -0.13,-0.22 -0.19,-0.36 a 62.54,62.54 0 0 0 -5.44,-9 c -1.48,-2 -3.52,-4 -4.35,-6.46 -1.11,-3.41 1.18,-9.12 4.8,-10.22 4,-1.22 6.28,3.23 7.33,6.64 0.18,0.5 0.28,1 0.4,1.41 1.51,6.08 0.78,12.44 1.17,18.66 v 0 0.21 a 0.68,0.68 0 0 1 -0.39,0.74 1.17,1.17 0 0 1 -1,0 1.1,1.1 0 0 1 -0.65,-0.88 v -0.07 c 0,-0.21 0,-0.49 0,-0.7 a 2.27,2.27 0 0 0 0.06,-1"
           transform="translate(-4.26,-9.2)"
           style="fill:none;stroke:#000000;stroke-linejoin:round" />
        <path
           id="path138437"
           class="cls-29"
           d="m 1024.59,508.43 c -0.14,-3.49 0,-6.89 -0.21,-10.38 -0.11,-2.73 -2.06,-16.63 -7.51,-11.6 a 7.1,7.1 0 0 0 -2,6.21 c 0.48,2.4 2.53,4.26 3.94,6.16 a 60.9,60.9 0 0 1 5.78,9.61 z"
           transform="translate(-4.26,-9.2)"
           style="fill:none;stroke:#000000;stroke-linejoin:round" />
        <path
           id="path138439"
           class="cls-29"
           d="m 1026.82,519.92 a 0.37,0.37 0 0 1 -0.27,-0.16 1,1 0 0 1 -0.43,-0.93 0.88,0.88 0 0 1 0.16,-0.41 v -0.07 c 0,0.14 -0.08,0.21 -0.09,0.34"
           transform="translate(-4.26,-9.2)"
           style="fill:none;stroke:#000000;stroke-linejoin:round" />
        <path
           id="path138441"
           class="cls-29"
           d="m 1026.82,519.92 a 1,1 0 0 1 -1.16,-0.49 1.32,1.32 0 0 1 1.23,-1.88 1.29,1.29 0 0 1 1,2 0.92,0.92 0 0 1 -1.07,0.37 z"
           transform="translate(-4.26,-9.2)"
           style="fill:none;stroke:#000000;stroke-linejoin:round" />
        <path
           id="path138443"
           class="cls-29"
           d="m 1026.12,518.76 c 0.08,-0.14 0.28,0 0.61,0.25 0.61,0.38 0.82,0.25 0.66,-0.45 a 1,1 0 0 1 -0.43,1.29 c -0.07,0 -0.14,0.07 -0.21,0.06"
           transform="translate(-4.26,-9.2)"
           style="fill:none;stroke:#000000;stroke-linejoin:round" />
        <path
           id="path138445"
           class="cls-29"
           d="m 1026.11,518.9 v 0 -0.14"
           transform="translate(-4.26,-9.2)"
           style="fill:none;stroke:#000000;stroke-linejoin:round" />
        <path
           id="path138447"
           class="cls-29"
           d="m 1026.12,518.76 v 0.07"
           transform="translate(-4.26,-9.2)"
           style="fill:none;stroke:#000000;stroke-linejoin:round" />
        <path
           id="path138449"
           class="cls-29"
           d="m 1026.12,518.76 v 0"
           transform="translate(-4.26,-9.2)"
           style="fill:none;stroke:#000000;stroke-linejoin:round" />
        <path
           id="path138451"
           class="cls-29"
           d="m 1021.72,517.8 v 0 c 0,0.07 0,0.14 -0.07,0.13"
           transform="translate(-4.26,-9.2)"
           style="fill:none;stroke:#000000;stroke-linejoin:round" />
        <path
           id="path138453"
           class="cls-29"
           d="m 1021.73,517.66 v 0"
           transform="translate(-4.26,-9.2)"
           style="fill:none;stroke:#000000;stroke-linejoin:round" />
        <path
           id="path138455"
           class="cls-29"
           d="m 1021.73,517.73 v 0.07 0"
           transform="translate(-4.26,-9.2)"
           style="fill:none;stroke:#000000;stroke-linejoin:round" />
        <path
           id="path138457"
           class="cls-29"
           d="m 1021.65,517.86 v 0"
           transform="translate(-4.26,-9.2)"
           style="fill:none;stroke:#000000;stroke-linejoin:round" />
        <path
           id="path138459"
           class="cls-29"
           d="m 1021.65,517.93 v 0"
           transform="translate(-4.26,-9.2)"
           style="fill:none;stroke:#000000;stroke-linejoin:round" />
        <path
           id="path138461"
           class="cls-29"
           d="m 1020.61,517.8 a 0.22,0.22 0 0 0 0.06,0.21 v 0 c 0.17,0.5 0.74,0.39 1,-0.08"
           transform="translate(-4.26,-9.2)"
           style="fill:none;stroke:#000000;stroke-linejoin:round" />
        <path
           id="path138463"
           class="cls-29"
           d="M 1020.61,517.8 Z"
           transform="translate(-4.26,-9.2)"
           style="fill:none;stroke:#000000;stroke-linejoin:round" />
        <path
           id="path138465"
           class="cls-29"
           d="m 1020.61,517.8 v 0"
           transform="translate(-4.26,-9.2)"
           style="fill:none;stroke:#000000;stroke-linejoin:round" />
        <path
           id="path138467"
           class="cls-29"
           d="m 1021.52,517.72 v 0 a 4.28,4.28 0 0 1 -0.85,0.29 c -0.07,0 -0.15,0.06 -0.22,0.06 -0.07,0 0.08,-0.14 0.15,-0.2 a 0.08,0.08 0 0 1 0.08,-0.07"
           transform="translate(-4.26,-9.2)"
           style="fill:none;stroke:#000000;stroke-linejoin:round" />
        <path
           id="path138469"
           class="cls-29"
           d="m 1021.52,517.72 v 0"
           transform="translate(-4.26,-9.2)"
           style="fill:none;stroke:#000000;stroke-linejoin:round" />
        <path
           id="path138471"
           class="cls-29"
           d="m 1021.65,517.79 v 0"
           transform="translate(-4.26,-9.2)"
           style="fill:none;stroke:#000000;stroke-linejoin:round" />
        <path
           id="path138473"
           class="cls-29"
           d="m 1021.65,517.79 v 0"
           transform="translate(-4.26,-9.2)"
           style="fill:none;stroke:#000000;stroke-linejoin:round" />
        <path
           id="path138475"
           class="cls-29"
           d="m 1021.65,517.79 v 0"
           transform="translate(-4.26,-9.2)"
           style="fill:none;stroke:#000000;stroke-linejoin:round" />
        <path
           id="path138477"
           class="cls-29"
           d="m 1021.65,517.86 v 0 c -0.07,-0.07 -0.06,-0.14 -0.13,-0.14"
           transform="translate(-4.26,-9.2)"
           style="fill:none;stroke:#000000;stroke-linejoin:round" />
        <line
           id="line138479"
           class="cls-29"
           x1="1017.39"
           y1="508.66"
           x2="1017.39"
           y2="508.66"
           style="fill:none;stroke:#000000;stroke-linejoin:round" />
        <path
           id="path138481"
           class="cls-29"
           d="m 1021.65,517.86 v 0"
           transform="translate(-4.26,-9.2)"
           style="fill:none;stroke:#000000;stroke-linejoin:round" />
        <path
           id="path138483"
           class="cls-29"
           d="m 1021.65,517.79 v 0"
           transform="translate(-4.26,-9.2)"
           style="fill:none;stroke:#000000;stroke-linejoin:round" />
        <path
           id="path138485"
           class="cls-29"
           d="m 1021.65,517.79 v 0"
           transform="translate(-4.26,-9.2)"
           style="fill:none;stroke:#000000;stroke-linejoin:round" />
        <path
           id="path138487"
           class="cls-29"
           d="m 1021.65,517.79 v 0"
           transform="translate(-4.26,-9.2)"
           style="fill:none;stroke:#000000;stroke-linejoin:round" />
        <polyline
           id="polyline138489"
           class="cls-29"
           points="1017.4 508.59 1017.4 508.59 1017.4 508.59"
           style="fill:none;stroke:#000000;stroke-linejoin:round" />
        <path
           id="path138491"
           class="cls-29"
           d="m 1021.65,517.79 v 0"
           transform="translate(-4.26,-9.2)"
           style="fill:none;stroke:#000000;stroke-linejoin:round" />
        <line
           id="line138493"
           class="cls-29"
           x1="1017.39"
           y1="508.66"
           x2="1017.39"
           y2="508.66"
           style="fill:none;stroke:#000000;stroke-linejoin:round" />
        <path
           id="path138495"
           class="cls-29"
           d="m 1021.65,517.93 v 0 -0.14"
           transform="translate(-4.26,-9.2)"
           style="fill:none;stroke:#000000;stroke-linejoin:round" />
        <line
           id="line138497"
           class="cls-29"
           x1="1017.39"
           y1="508.73001"
           x2="1017.39"
           y2="508.73001"
           style="fill:none;stroke:#000000;stroke-linejoin:round" />
        <path
           id="path138499"
           class="cls-29"
           d="m 1019.88,517.2 a 1,1 0 0 1 1.22,-0.55 1,1 0 0 1 0.63,1 v 0.07 0.21 0.07"
           transform="translate(-4.26,-9.2)"
           style="fill:none;stroke:#000000;stroke-linejoin:round" />
        <path
           id="path138501"
           class="cls-29"
           d="m 1019.88,517.2 a 1.4,1.4 0 0 1 0.74,-0.79 1.54,1.54 0 0 1 1.25,0.14 1.79,1.79 0 0 1 0.19,2.59 1,1 0 0 1 -1.14,0.42 1.8,1.8 0 0 1 -1.11,-2.3 z"
           transform="translate(-4.26,-9.2)"
           style="fill:none;stroke:#000000;stroke-linejoin:round" />
        <path
           id="path138503"
           class="cls-29"
           d="m 1021.65,517.93 a 0.89,0.89 0 0 1 -0.94,0.57 1,1 0 0 1 -0.92,-1 0.69,0.69 0 0 1 0.09,-0.34"
           transform="translate(-4.26,-9.2)"
           style="fill:none;stroke:#000000;stroke-linejoin:round" />
        <path
           id="path138505"
           class="cls-29"
           d="m 1024.29,526 a 4.25,4.25 0 0 1 -3.65,3.89 1,1 0 0 1 -1.19,-1 l 0.29,-4.72 c 0,-0.48 0.55,-1 1,-0.91 a 15.9,15.9 0 0 1 3.49,0.91 1.06,1.06 0 0 1 0,1.88 z"
           transform="translate(-4.26,-9.2)"
           style="fill:none;stroke:#000000;stroke-linejoin:round" />
        <path
           id="path138507"
           class="cls-29"
           d="m 1021.49,527.46 a 2.25,2.25 0 0 0 0.86,-1.69 v -0.21 a 1,1 0 0 1 1.93,0.33 V 526"
           transform="translate(-4.26,-9.2)"
           style="fill:none;stroke:#000000;stroke-linejoin:round" />
        <path
           id="path138509"
           class="cls-29"
           d="m 1021.49,527.46 -0.1,1.53 c -0.39,-0.38 -0.79,-0.68 -1.19,-1 a 2.59,2.59 0 0 0 1.29,-0.48 z"
           transform="translate(-4.26,-9.2)"
           style="fill:none;stroke:#000000;stroke-linejoin:round" />
        <path
           id="path138511"
           class="cls-29"
           d="m 1021.61,525.38 -0.12,2.08"
           transform="translate(-4.26,-9.2)"
           style="fill:none;stroke:#000000;stroke-linejoin:round" />
        <path
           id="path138513"
           class="cls-29"
           d="m 1021.61,525.38 c -0.34,-0.09 -0.62,-0.11 -1,-0.2 l 1,-0.91 z"
           transform="translate(-4.26,-9.2)"
           style="fill:none;stroke:#000000;stroke-linejoin:round" />
        <path
           id="path138515"
           class="cls-29"
           d="m 1024.29,526 a 0.83,0.83 0 0 1 -0.7,0 8.06,8.06 0 0 0 -1.22,-0.43 3.49,3.49 0 0 0 -0.76,-0.18"
           transform="translate(-4.26,-9.2)"
           style="fill:none;stroke:#000000;stroke-linejoin:round" />
      </g>
    </g>
  </g>
  <g
     id="g139053">
    <g
       id="g139051">
      <g
         id="g139046">
        <path
           id="path138908"
           d="m 896.54,507.66 a 6.32,6.32 0 0 1 -1,8.73 5,5 0 0 1 -5,0.69 9,9 0 0 0 -1.57,-3.24 0.94,0.94 0 0 1 0.74,0.44 3.42,3.42 0 0 0 5.71,-0.25 4.9,4.9 0 0 0 -0.81,-6 c -1.58,-1.68 -4,-2.17 -5.77,-0.38 a 4.58,4.58 0 0 0 -0.65,5.23 12.84,12.84 0 0 0 -2.29,-2 5.7,5.7 0 0 1 2.38,-5.07 c 2.83,-2.19 6.35,-1 8.28,1.82 z"
           transform="translate(-4.26,-9.2)" />
        <path
           id="path138910"
           class="cls-8"
           d="m 894.52,508 a 4.89,4.89 0 0 1 0.81,6 3.42,3.42 0 0 1 -5.71,0.25 1,1 0 0 0 -0.74,-0.44 l -0.79,-1 a 4.62,4.62 0 0 1 0.64,-5.24 c 1.82,-1.72 4.21,-1.23 5.79,0.46 z"
           transform="translate(-4.26,-9.2)"
           style="fill:#b3b3b3" />
        <path
           id="path138912"
           d="m 890.58,519.33 c 1.76,2.88 2.58,6 0.48,9.21 -2.49,3.87 -7.07,6.79 -11.31,8.48 a 30.51,30.51 0 0 1 -24.13,-0.24 c -7,-3.25 -13.67,-11 -9.85,-19 a 13.21,13.21 0 0 1 3.19,-4.26 c 0.08,0 0.14,0 0.22,0.09 a 0.06,0.06 0 0 1 0.07,0 1.14,1.14 0 0 0 1.27,0.13 l 0.44,0.56 a 16.34,16.34 0 0 0 -1.82,1.66 c -3.75,4.11 -3,10 0.36,14.14 5.61,6.76 15.93,8.62 24.24,7 a 28.16,28.16 0 0 0 11.41,-5.1 c 2,-1.5 4.45,-3.55 5.21,-6 0.72,-2.27 -0.23,-4.41 -1.51,-6.22 l 0.52,-0.3 a 0.89,0.89 0 0 0 1.21,-0.18 z"
           transform="translate(-4.26,-9.2)" />
        <path
           id="path138914"
           d="m 890.82,518.57 a 0.87,0.87 0 0 1 -0.24,0.76 c -0.58,-0.92 -1.22,-1.82 -1.84,-2.66 a 0.63,0.63 0 0 0 -0.39,-0.31 v 0 a 6.5,6.5 0 0 0 -0.56,-1.12 0.93,0.93 0 0 0 0.46,0 4.94,4.94 0 0 0 2.32,1.8 13.41,13.41 0 0 0 0.25,1.53 z"
           transform="translate(-4.26,-9.2)" />
        <path
           id="path138916"
           class="cls-8"
           d="m 888.78,519.82 c 1.23,1.89 2.25,4 1.52,6.23 -0.76,2.41 -3.23,4.46 -5.22,6 a 28.79,28.79 0 0 1 -11.41,5.07 c -8.3,1.68 -18.68,-0.18 -24.23,-6.94 -3.38,-4.11 -4.1,-10 -0.37,-14.15 a 10.57,10.57 0 0 1 1.83,-1.66 c 3.17,-2.45 7.42,-3.76 11.18,-4.58 6.72,-1.42 18.94,-1.81 24.35,3.89 a 10,10 0 0 0 0.7,1.22 1,1 0 0 0 0.6,0.39 7.73,7.73 0 0 1 0.55,1.12 1,1 0 0 0 -0.94,1.48 c 0.53,0.63 0.98,1.25 1.44,1.93 z M 858.41,524 c 0.91,-0.7 -0.34,-2 -1.24,-1.3 a 7.68,7.68 0 0 1 -5.84,1.56 c -1.15,-0.16 -1.24,1.67 -0.1,1.77 a 9.25,9.25 0 0 0 7.18,-2 z M 854,520.11 a 1.76,1.76 0 0 0 1.35,-2.08 0.93,0.93 0 0 0 -1.12,-0.68 0.86,0.86 0 0 0 -0.65,0.65 0.83,0.83 0 0 0 -1,-0.38 1,1 0 0 0 -0.69,1.11 1.87,1.87 0 0 0 2.11,1.38 z m -4,1.4 c 0.58,-0.38 1.29,-1.1 1,-1.82 a 1.47,1.47 0 0 0 -1.75,-0.88 1.25,1.25 0 0 0 -0.46,0.29 1,1 0 0 0 -1,0.39 1.32,1.32 0 0 0 0.22,1.76 1.55,1.55 0 0 0 1.95,0.26 z"
           transform="translate(-4.26,-9.2)"
           style="fill:#b3b3b3" />
        <path
           id="path138918"
           d="m 890.58,519.33 a 1,1 0 0 1 -1.28,0.13 0.57,0.57 0 0 1 -0.24,-0.53 9.3,9.3 0 0 0 -0.73,-2.64 0.67,0.67 0 0 1 0.39,0.31 c 0.66,0.97 1.28,1.81 1.86,2.73 z"
           transform="translate(-4.26,-9.2)" />
        <path
           id="path138920"
           d="m 889.31,519.52 -0.53,0.3 a 21.11,21.11 0 0 0 -1.43,-1.91 0.94,0.94 0 0 1 0.95,-1.48 v 0 a 9.44,9.44 0 0 1 0.72,2.63 0.72,0.72 0 0 0 0.29,0.46 z"
           transform="translate(-4.26,-9.2)" />
        <path
           id="path138922"
           d="m 889,513.84 a 12.18,12.18 0 0 1 1.57,3.24 5,5 0 0 1 -2.32,-1.79 c 0.56,-0.12 1,-0.65 0.6,-1.22 0,-0.06 -0.09,-0.11 -0.1,-0.18 -0.01,-0.07 0.06,-0.08 0.25,-0.05 z"
           transform="translate(-4.26,-9.2)" />
        <path
           id="path138924"
           d="m 889,513.84 c -0.06,0 -0.2,0 -0.25,0 a 7.45,7.45 0 0 1 -0.54,-1 9.2,9.2 0 0 1 0.79,1 z"
           transform="translate(-4.26,-9.2)" />
        <path
           id="path138926"
           d="m 888.73,514 a 0.79,0.79 0 0 1 -0.61,1.22 0.24,0.24 0 0 1 -0.1,-0.17 c -0.38,-0.58 0,-1.11 0.61,-1.23 a 0.3,0.3 0 0 1 0.1,0.18 z"
           transform="translate(-4.26,-9.2)" />
        <path
           id="path138928"
           d="m 888,515.13 c 0,0.06 0.09,0.11 0.1,0.17 a 1.12,1.12 0 0 1 -0.45,0 10.31,10.31 0 0 0 -1.24,-1.63 8.36,8.36 0 0 1 -0.69,-2.77 13.76,13.76 0 0 1 2.3,2 8,8 0 0 0 0.54,1.05 0.71,0.71 0 0 0 -0.56,1.15 z"
           transform="translate(-4.26,-9.2)" />
        <path
           id="path138930"
           d="m 887.73,515.25 a 1,1 0 0 1 -0.6,-0.39 10,10 0 0 1 -0.7,-1.22 7.35,7.35 0 0 1 1.3,1.61 z"
           transform="translate(-4.26,-9.2)" />
        <path
           id="path138932"
           d="m 885.8,510.86 a 7.07,7.07 0 0 0 0.69,2.77 c -5.4,-5.7 -17.61,-5.25 -24.34,-3.89 -3.84,0.77 -8,2.07 -11.19,4.58 l -0.44,-0.56 a 0.76,0.76 0 0 0 0.27,-0.64 5,5 0 0 1 -0.06,-1 1.09,1.09 0 0 0 0.86,-0.57 c 5.24,-3.25 12.47,-4.38 17.94,-4.51 5.09,-0.04 11.78,0.71 16.27,3.82 z"
           transform="translate(-4.26,-9.2)" />
        <path
           id="path138934"
           d="m 855.29,482.81 c 4.55,-0.14 7.28,7.58 6.41,11.06 -0.66,2.91 -2.77,5.72 -4.22,8.28 a 44,44 0 0 1 -5.52,8 0.59,0.59 0 0 1 -0.6,0.25 14.33,14.33 0 0 1 -0.59,-1.62 c 3,-3.32 5,-7.28 7.12,-11.13 1.33,-2.47 2.72,-4.68 1.88,-7.55 -0.68,-2.39 -3.92,-7.74 -6.61,-3.91 a 21,21 0 0 0 -3,6.43 2.16,2.16 0 0 1 0,-0.57 13.92,13.92 0 0 0 -0.67,-2.71 c 1.06,-3.19 3,-6.48 5.88,-6.55 z"
           transform="translate(-4.26,-9.2)" />
        <path
           id="path138936"
           d="m 857.17,522.7 c 0.9,-0.7 2.15,0.6 1.24,1.3 a 9.4,9.4 0 0 1 -7.11,2.08 c -1.14,-0.16 -1.1,-1.91 0.1,-1.77 a 7.58,7.58 0 0 0 5.77,-1.61 z"
           transform="translate(-4.26,-9.2)" />
        <path
           id="path138938"
           class="cls-8"
           d="m 859.71,490.13 c 0.85,2.93 -0.49,5.07 -1.89,7.55 -2.16,3.87 -4.18,7.83 -7.11,11.13 a 7.49,7.49 0 0 1 -0.38,-1.22 c -0.11,-2.17 -0.15,-4.3 -0.13,-6.5 a 63.45,63.45 0 0 0 -0.14,-8.5 20.72,20.72 0 0 1 3,-6.43 c 2.73,-3.77 5.94,1.59 6.65,3.97 z"
           transform="translate(-4.26,-9.2)"
           style="fill:#b3b3b3" />
        <path
           id="path138940"
           d="m 853.55,518.39 v 0 h 0.12 0.07 v -0.06 c 0,-0.13 0,-0.19 -0.11,-0.24 a 0.79,0.79 0 0 1 0.66,-0.65 1,1 0 0 1 1.12,0.68 1.82,1.82 0 0 1 -1.35,2.08 1.72,1.72 0 0 1 -2,-1.4 0.91,0.91 0 0 1 0.69,-1.1 1,1 0 0 1 1,0.38 c -0.11,0.08 -0.08,0.21 -0.12,0.35 z"
           transform="translate(-4.26,-9.2)" />
        <path
           id="path138942"
           d="M 853.67,518.36 Z"
           transform="translate(-4.26,-9.2)" />
        <path
           id="path138944"
           d="M 853.67,518.36 Z"
           transform="translate(-4.26,-9.2)" />
        <path
           id="path138946"
           d="M 853.67,518.36 Z"
           transform="translate(-4.26,-9.2)" />
        <path
           id="path138948"
           d="M 853.67,518.36 Z"
           transform="translate(-4.26,-9.2)" />
        <path
           id="path138950"
           d="m 853.67,518.36 m -0.06,0 v 0 a 0.58,0.58 0 0 1 0,-0.32 0.34,0.34 0 0 1 0.11,0.24 v 0.06 0 -0.06 0.06 0 h -0.13 z"
           transform="translate(-4.26,-9.2)" />
        <path
           id="path138952"
           d="M 853.67,518.36 Z"
           transform="translate(-4.26,-9.2)" />
        <path
           id="path138954"
           d="M 853.67,518.36 Z"
           transform="translate(-4.26,-9.2)" />
        <path
           id="path138956"
           d="M 853.66,518.3 Z"
           transform="translate(-4.26,-9.2)" />
        <path
           id="path138958"
           d="M 853.67,518.36 Z"
           transform="translate(-4.26,-9.2)" />
        <path
           id="path138960"
           d="M 853.67,518.36 Z"
           transform="translate(-4.26,-9.2)" />
        <path
           id="path138962"
           d="M 853.67,518.36"
           transform="translate(-4.26,-9.2)" />
        <path
           id="path138964"
           d="M 853.55,518.39 Z"
           transform="translate(-4.26,-9.2)" />
        <path
           id="path138966"
           d="M 853.61,518.37 Z"
           transform="translate(-4.26,-9.2)" />
        <path
           id="path138968"
           d="M 853.55,518.39 Z"
           transform="translate(-4.26,-9.2)" />
        <path
           id="path138970"
           d="m 853.6,518.31 v 0 c 0,0.06 -0.05,0.08 0,0 z"
           transform="translate(-4.26,-9.2)" />
        <path
           id="path138972"
           d="M 853.55,518.39 Z"
           transform="translate(-4.26,-9.2)" />
        <path
           id="path138974"
           d="M 853.55,518.39 Z"
           transform="translate(-4.26,-9.2)" />
        <path
           id="path138976"
           d="M 853.55,518.39 Z"
           transform="translate(-4.26,-9.2)" />
        <path
           id="path138978"
           d="M 853.55,518.39 Z"
           transform="translate(-4.26,-9.2)" />
        <path
           id="path138980"
           d="M 853.55,518.39 Z"
           transform="translate(-4.26,-9.2)" />
        <path
           id="path138982"
           d="M 853.55,518.39 Z"
           transform="translate(-4.26,-9.2)" />
        <path
           id="path138984"
           d="M 853.55,518.39 Z"
           transform="translate(-4.26,-9.2)" />
        <path
           id="path138986"
           d="m 851.52,510.91 a 0.76,0.76 0 0 1 0,0.71 l -0.87,0.56 c 0,-0.89 -0.17,-1.84 -0.22,-2.73 v 0 a 0.93,0.93 0 0 0 0.85,1 1.47,1.47 0 0 1 0.24,0.46 z"
           transform="translate(-4.26,-9.2)" />
        <path
           id="path138988"
           d="m 850.93,519.69 c 0.21,0.73 -0.49,1.45 -1,1.82 a 1.63,1.63 0 0 1 -1.93,-0.2 1.34,1.34 0 0 1 -0.23,-1.76 1.05,1.05 0 0 1 1,-0.39 0.9,0.9 0 0 0 0.94,1.43 c 0.19,0 -0.06,0 -0.14,0 -0.08,0 -0.15,-0.1 -0.16,-0.16 a 1,1 0 0 0 0,-0.77 c 0,-0.06 0,-0.06 0,-0.14 l -0.06,0.08 a 1.24,1.24 0 0 0 -0.32,-0.33 2.55,2.55 0 0 1 -0.29,-0.13 0.75,0.75 0 0 1 0.46,-0.29 1.43,1.43 0 0 1 1.75,0.88 z"
           transform="translate(-4.26,-9.2)" />
        <path
           id="path138990"
           d="m 851.36,510.42 a 1,1 0 0 1 -0.86,-1 0.74,0.74 0 0 1 0.28,-0.57 v 0 a 6.44,6.44 0 0 0 0.58,1.56 z"
           transform="translate(-4.26,-9.2)" />
        <path
           id="path138992"
           d="m 850.66,512.18 0.87,-0.56 a 0.9,0.9 0 0 1 -0.87,0.56 z"
           transform="translate(-4.26,-9.2)" />
        <path
           id="path138994"
           d="m 850.73,513.14 a 0.66,0.66 0 0 1 -0.27,0.63 1.07,1.07 0 0 1 -1.27,-0.13 c 0.7,0.25 1.2,-0.56 0.95,-1.16 0.11,-0.09 0.28,-0.19 0.4,-0.27 v 0 a 2.41,2.41 0 0 1 0.19,0.93 z"
           transform="translate(-4.26,-9.2)" />
        <path
           id="path138996"
           d="M 850.66,512.18 Z"
           transform="translate(-4.26,-9.2)" />
        <path
           id="path138998"
           d="m 850.66,512.18 v 0 a 0.85,0.85 0 0 1 -0.74,-0.43 27.94,27.94 0 0 1 -1.33,-3.68 c -0.17,-3.13 -0.15,-6.3 -0.12,-9.41 a 39.17,39.17 0 0 0 -0.25,-5.44 37.42,37.42 0 0 1 1.07,-3.77 13,13 0 0 1 0.68,2.71 1.78,1.78 0 0 1 0,0.57 27.4,27.4 0 0 0 0.27,15 c 0.05,0.57 0.05,1.22 0.1,1.79 0.1,0.82 0.16,1.78 0.27,2.66 z"
           transform="translate(-4.26,-9.2)" />
        <path
           id="path139000"
           d="m 849.92,511.75 a 0.75,0.75 0 0 0 0.69,0.5 c -0.11,0.09 -0.29,0.19 -0.4,0.28 a 0.9,0.9 0 0 0 -0.51,-0.61 5.82,5.82 0 0 1 -0.88,-0.47 c -0.1,-1.14 -0.14,-2.3 -0.24,-3.44 a 27.19,27.19 0 0 0 1.34,3.74 z"
           transform="translate(-4.26,-9.2)" />
        <path
           id="path139002"
           d="m 850.71,508.81 v 0 a 1,1 0 0 0 -0.27,0.64 v 0 c -0.05,-0.58 -0.05,-1.22 -0.1,-1.79 0.14,0.34 0.23,0.79 0.37,1.15 z"
           transform="translate(-4.26,-9.2)" />
        <path
           id="path139004"
           d="m 850.21,512.53 c 0.19,0.61 -0.24,1.41 -0.94,1.16 a 0.45,0.45 0 0 1 -0.18,-0.22 7.85,7.85 0 0 1 1.12,-0.94 z"
           transform="translate(-4.26,-9.2)" />
        <path
           id="path139006"
           d="m 849,520 a 0.21,0.21 0 0 1 0.2,0 v 0 c 0,0.06 0,0.06 0.07,0 v 0 0.19 0.06 0 c -0.08,0.21 -0.07,0.27 0,0.13 v -0.07 c 0.07,0 0.08,0.11 0.16,0.16 0.08,0.05 0.25,0 0.14,0 a 1,1 0 0 1 -1.12,-0.68 0.81,0.81 0 0 1 0.18,-0.75 c 0.07,0 0.21,0.09 0.29,0.14 a 1.38,1.38 0 0 1 0.32,0.32 l -0.1,0.15 v 0.07 c 0,0.07 0,0.14 -0.16,0.17 z"
           transform="translate(-4.26,-9.2)" />
        <path
           id="path139008"
           d="m 850.21,501.15 c 0,2.14 0,4.33 0.13,6.51 a 28.12,28.12 0 0 1 -0.27,-15 53.61,53.61 0 0 1 0.14,8.5 z"
           transform="translate(-4.26,-9.2)" />
        <path
           id="path139010"
           d="m 849.7,511.92 a 0.9,0.9 0 0 1 0.51,0.61 12.59,12.59 0 0 0 -1.18,1 0.73,0.73 0 0 1 -0.14,-0.36 c 0,-0.51 -0.09,-1.08 -0.12,-1.59 0.28,0.08 0.64,0.21 0.93,0.34 z"
           transform="translate(-4.26,-9.2)" />
        <path
           id="path139012"
           d="m 849.36,519.68 a 1.07,1.07 0 0 1 0,0.77 0.06,0.06 0 0 0 -0.07,-0.05 v -0.06 0 -0.06 z"
           transform="translate(-4.26,-9.2)" />
        <path
           id="path139014"
           d="m 849.37,520.39 v 0.07 z"
           transform="translate(-4.26,-9.2)" />
        <path
           id="path139016"
           d="m 849.35,520.27 v 0 0.06 c -0.05,0.01 0,-0.06 0,-0.06 z"
           transform="translate(-4.26,-9.2)" />
        <path
           id="path139018"
           d="M 849.31,520.4 Z"
           transform="translate(-4.26,-9.2)" />
        <path
           id="path139020"
           d="M 849.3,520.34 Z"
           transform="translate(-4.26,-9.2)" />
        <path
           id="path139022"
           d="m 849.31,520.08 v 0 a 0.06,0.06 0 0 0 -0.08,-0.05 v 0 a 0.29,0.29 0 0 1 -0.2,0 h 0.07 c 0.06,0 0.11,-0.08 0.16,-0.16 v -0.07 l 0.1,-0.15 v 0.06 c 0,0.2 0,0.38 0,0.58 a 0.21,0.21 0 0 1 -0.1,-0.17 z"
           transform="translate(-4.26,-9.2)" />
        <path
           id="path139024"
           d="m 849.33,519.56 c 0,0.06 0,0.06 0,0.13 0,0.07 0.05,-0.07 0,-0.13 z"
           transform="translate(-4.26,-9.2)" />
        <path
           id="path139026"
           d="M 849.31,520.4 Z"
           transform="translate(-4.26,-9.2)" />
        <path
           id="path139028"
           d="M 849.31,520.08 Z"
           transform="translate(-4.26,-9.2)" />
        <path
           id="path139030"
           d="M 849.31,520.08"
           transform="translate(-4.26,-9.2)" />
        <path
           id="path139032"
           d="M 849.22,520 Z"
           transform="translate(-4.26,-9.2)" />
        <path
           id="path139034"
           d="M 849.22,520 Z"
           transform="translate(-4.26,-9.2)" />
        <path
           id="path139036"
           d="M 849,519.94 Z"
           transform="translate(-4.26,-9.2)" />
        <path
           id="path139038"
           d="m 849.27,513.69 -0.08,-0.05 c -0.07,0 -0.14,0 -0.21,-0.09 -0.07,-0.09 0,-0.07 0.11,-0.08 a 0.45,0.45 0 0 0 0.18,0.22 z"
           transform="translate(-4.26,-9.2)" />
        <path
           id="path139040"
           d="m 849,513.48 c -0.07,0 0,0.07 -0.12,0.09 -5,-2.35 -8.35,-8.66 -10.32,-13.57 -1.87,-4.73 -2,-11 2.45,-14.51 4,-3.2 6.91,0.22 8.24,3.9 a 30.32,30.32 0 0 0 -1.07,3.77 c -0.47,-4.3 -2,-8.79 -6,-6.3 -4.83,3 -3,10.43 -1,14.36 1.76,3.53 4.06,8.11 7.63,10.23 0,0.51 0.08,1.08 0.12,1.59 a 0.93,0.93 0 0 0 0.07,0.44 z"
           transform="translate(-4.26,-9.2)" />
        <path
           id="path139042"
           class="cls-8"
           d="m 848.59,508.07 c 0,1.16 0.14,2.3 0.24,3.45 -3.57,-2.13 -5.87,-6.71 -7.62,-10.23 -1.91,-4 -3.74,-11.4 1,-14.37 4.08,-2.5 5.51,2 6,6.3 a 8.94,8.94 0 0 0 -0.2,0.94 27.43,27.43 0 0 0 0.58,13.91 z"
           transform="translate(-4.26,-9.2)"
           style="fill:#b3b3b3" />
        <path
           id="path139044"
           d="m 848.45,498.6 c -0.09,3.12 0,6.28 0.13,9.41 A 28.84,28.84 0 0 1 848,494.1 c 0.07,-0.27 0.14,-0.61 0.2,-0.94 a 35.11,35.11 0 0 1 0.25,5.44 z"
           transform="translate(-4.26,-9.2)" />
      </g>
    </g>
  </g>
</svg>
