<?xml version="1.0" encoding="UTF-8" standalone="no"?>
<svg
   viewBox="0 0 1175.48 577.35"
   version="1.1"
   id="svg364837"
   sodipodi:docname="dem_inf_tool_3.svg"
   inkscape:version="1.2.2 (1:1.2.2+202212051552+b0a8486541)"
   xmlns:inkscape="http://www.inkscape.org/namespaces/inkscape"
   xmlns:sodipodi="http://sodipodi.sourceforge.net/DTD/sodipodi-0.dtd"
   xmlns="http://www.w3.org/2000/svg"
   xmlns:svg="http://www.w3.org/2000/svg"
   xmlns:rdf="http://www.w3.org/1999/02/22-rdf-syntax-ns#"
   xmlns:cc="http://creativecommons.org/ns#"
   xmlns:dc="http://purl.org/dc/elements/1.1/">
  <sodipodi:namedview
     id="namedview364839"
     pagecolor="#ffffff"
     bordercolor="#000000"
     borderopacity="0.25"
     inkscape:showpageshadow="2"
     inkscape:pageopacity="0.0"
     inkscape:pagecheckerboard="0"
     inkscape:deskcolor="#d1d1d1"
     showgrid="false"
     inkscape:zoom="0.37918934"
     inkscape:cx="607.87573"
     inkscape:cy="311.19018"
     inkscape:window-width="1223"
     inkscape:window-height="779"
     inkscape:window-x="57"
     inkscape:window-y="21"
     inkscape:window-maximized="1"
     inkscape:current-layer="Layer_1" />
  <defs
     id="defs363475">
    <style
       id="style363461">.cls-1,.cls-11,.cls-17,.cls-18,.cls-20,.cls-22,.cls-24,.cls-26,.cls-27,.cls-33,.cls-4{fill:none;}.cls-2{fill:#d8d8d8;}.cls-11,.cls-3,.cls-33,.cls-4{stroke:#000;}.cls-14,.cls-15,.cls-16,.cls-17,.cls-18,.cls-26,.cls-27,.cls-29,.cls-3,.cls-30,.cls-33{stroke-linejoin:round;}.cls-3,.cls-4{stroke-width:0.8px;}.cls-17,.cls-18,.cls-4{stroke-linecap:square;}.cls-5{opacity:0.82;}.cls-6{fill:#c1272d;}.cls-7{fill:#fcee21;}.cls-8{fill:blue;}.cls-9{fill:#8cc63f;}.cls-10,.cls-29,.cls-30{fill:#fff;}.cls-11{stroke-miterlimit:10;}.cls-12{fill:#b3b3b3;}.cls-13{clip-path:url(#clip-path);}.cls-14,.cls-25{fill:#2ca02c;}.cls-14,.cls-15,.cls-16{fill-opacity:0.2;stroke-width:2px;stroke-dasharray:2 2;}.cls-14,.cls-18,.cls-24{stroke:#2ca02c;}.cls-15,.cls-23,.cls-32{fill:#ff7f0e;}.cls-15{stroke:#ff800f;}.cls-16{fill:#1e75b3;stroke:#1e75b3;}.cls-17,.cls-22,.cls-32{stroke:#ff7f0e;}.cls-17,.cls-18,.cls-32{stroke-opacity:0.5;}.cls-17,.cls-18{stroke-width:0.2px;}.cls-19{clip-path:url(#clip-path-24);}.cls-20,.cls-27,.cls-30{stroke:#1f77b4;}.cls-21{fill:#1f77b4;}.cls-21,.cls-23,.cls-25,.cls-32{fill-opacity:0.5;}.cls-26,.cls-29{stroke:#fff;stroke-width:3px;}.cls-26,.cls-27,.cls-29,.cls-30{stroke-linecap:round;}.cls-28{clip-path:url(#clip-path-42);}.cls-31{clip-path:url(#clip-path-46);}</style>
    <clipPath
       id="clip-path"
       transform="translate(-19.92 -9.25)">
      <rect
         class="cls-1"
         x="70.17"
         y="382.26"
         width="154.4"
         height="203.34"
         id="rect363463" />
    </clipPath>
    <clipPath
       id="clip-path-24"
       transform="translate(-19.92 -9.25)">
      <rect
         class="cls-1"
         x="1010.21"
         y="202.75"
         width="158.77"
         height="237.35"
         id="rect363466" />
    </clipPath>
    <clipPath
       id="clip-path-42"
       transform="translate(-19.92 -9.25)">
      <rect
         class="cls-1"
         x="1005.58"
         y="202.75"
         width="158.77"
         height="237.35"
         id="rect363469" />
    </clipPath>
    <clipPath
       id="clip-path-46"
       transform="translate(-19.92 -9.25)">
      <rect
         class="cls-1"
         x="1014.84"
         y="202.75"
         width="158.77"
         height="237.35"
         id="rect363472" />
    </clipPath>
  </defs>
  <title
     id="title363477">full_new</title>
  <g
     id="Layer_1"
     data-name="Layer 1">
    <g
       id="axes_1"
       data-name="axes 1">
      <g
         id="PolyCollection_3-1"
         data-name="PolyCollection 3-1">
        <g
           class="cls-13"
           clip-path="url(#clip-path)"
           id="g364393">
          <path
             id="path286072-5"
             class="cls-14"
             d="M213.79,495.23h-30v18.08h3.75v27.11H180v45.19h37.53V540.42H210V513.31h3.75Z"
             transform="translate(-19.92 -9.25)" />
        </g>
      </g>
      <g
         class="cls-13"
         clip-path="url(#clip-path)"
         id="g364397">
        <path
           id="path286066"
           class="cls-15"
           d="M107.21,495.23h-30v45.19h7.51v27.11H80.94v18.08h22.52V567.53H99.7V540.42h7.51Z"
           transform="translate(-19.92 -9.25)" />
      </g>
      <g
         id="PolyCollection_1-0"
         data-name="PolyCollection 1-0">
        <g
           class="cls-13"
           clip-path="url(#clip-path)"
           id="g364400">
          <path
             id="path286060-6"
             class="cls-16"
             d="M149.24,430.17h-7.5v23.42h0l-.09.42-.09.42-.09.42-.1.42-.1.42-.1.43-.1.42-.1.42-.11.42-.11.42-.11.42-.11.42-.12.42-.12.42-.12.42-.13.42-.12.42-.13.42-.14.42-.14.42-.14.42-.14.42-.15.43-.15.42-.15.42-.16.42-.16.42-.17.42-.17.42-.17.42-.18.42-.18.42-.19.42-.19.42-.19.42-.2.42-.2.42-.21.42-.22.43-.22.42-.22.42-.23.42-.23.42-.24.42-.25.42-.25.42-.26.42-.26.42-.27.42-.28.42-.28.42-.29.42-.3.42-.3.42-.31.42-.32.43-.32.42L131,478l-.34.42-.35.42-.36.42-.36.42-.38.42-.38.42-.39.42-.4.42-.41.42-.42.42-.43.42-.44.42-.45.42-.46.43-.47.42-.48.42-.5.42-.5.42L123,486l-.53.42-.54.42-.56.42-.56.42-.58.42-.6.42-.61.42-.62.42-.64.42-.65.42-.67.43-.68.42-.7.42-.72.42-.73.42-.75.42-.77.42-.79.42-.8.42-.83.42-.84.42-.86.42H183l-.86-.42-.85-.42-.82-.42-.8-.42-.79-.42-.77-.42-.75-.42-.73-.42-.72-.42-.7-.42-.68-.42-.67-.43-.65-.42-.64-.42-.62-.42-.61-.42-.6-.42-.58-.42-.57-.42-.55-.42-.54-.42L168,486l-.52-.42-.5-.42-.5-.42-.48-.42-.47-.42-.46-.43-.45-.42-.44-.42-.43-.42-.42-.42-.41-.42-.4-.42-.39-.42-.38-.42-.38-.42-.36-.42-.36-.42-.35-.42L160,478l-.33-.42-.33-.42-.31-.43-.31-.42-.31-.42-.29-.42-.29-.42-.28-.42-.28-.42-.27-.42-.26-.42-.26-.42-.25-.42-.25-.42-.24-.42-.23-.42-.23-.42-.22-.42-.22-.42-.22-.43-.21-.42-.2-.42-.2-.42-.19-.42-.19-.42-.19-.42-.18-.42-.18-.42-.17-.42-.17-.42-.17-.42-.16-.42-.16-.42-.15-.42-.15-.42-.15-.43-.14-.42-.14-.42-.14-.42-.14-.42-.13-.42-.13-.42-.12-.42-.12-.42-.12-.42-.12-.42-.11-.42-.11-.42-.11-.42L150,457l-.1-.42-.11-.42-.09-.43-.1-.42-.1-.42-.09-.42-.09-.42-.09-.42h0Z"
             transform="translate(-19.92 -9.25)" />
        </g>
      </g>
      <g
         class="cls-13"
         clip-path="url(#clip-path)"
         id="g364404">
        <path
           id="path286017"
           class="cls-17"
           d="M108.75,512.06l1,0,1,0,1,.1,1,0,1,.08,1,0,1,0,1,.06,1,.07,1,.05,1,.06,1,.09,1,0,1,.05,1,0,1,0,1,0,1,.06,1,0,1,0,1,0h5l1,0h1l1,0,1-.06,1,0,1,0,1,0,1,0,1-.07,1,0,1,0,1-.07,1,0,1-.06,1-.11,1-.07,1-.11,1,0,1-.06,1,0,1-.08,1-.12,1-.07,1-.08,1,0,1-.05,1-.07,1-.07,1-.08,1,0,1,0,1,0,1,0,1,0,1-.05,1,0,1,0h1l1,0h6l1,0,1.48,0"
           transform="translate(-19.92 -9.25)" />
      </g>
      <g
         class="cls-13"
         clip-path="url(#clip-path)"
         id="g364407">
        <path
           id="path286019"
           class="cls-17"
           d="M108.75,499.22l1,0,1,0,1,.1,1,0,1,.08,1,0,1,0,1,.06,1,.07,1,.05,1,.06,1,.09,1,0,1,.05,1,0,1,0,1,0,1,.06,1,0,1,0,1,0h5l1,0h1l1,0,1-.06,1,0,1,0,1,0,1,0,1-.07,1,0,1,0,1-.07,1,0,1-.06,1-.11,1-.07,1-.11,1-.05,1-.06,1-.05,1-.08,1-.12,1-.07,1-.08,1,0,1,0,1-.07,1-.07,1-.08,1,0,1,0,1,0,1,0,1,0,1-.05,1,0,1,0h1l1,0h6l1,0,1.48,0"
           transform="translate(-19.92 -9.25)" />
      </g>
      <g
         class="cls-13"
         clip-path="url(#clip-path)"
         id="g364410">
        <path
           id="path286021"
           class="cls-17"
           d="M105,578l1,0,1,0,1,.1,1,0,1,.08,1,0,1,0,1,.06,1,.07,1,0,1,.06,1,.09,1,0,1,0,1,0,1,0,1,0,1,0,1,0,1,0,1,0h4l1,0,1,0h1l1,0,1-.06,1,0,1,0,1,0,1,0,1-.07,1,0,1,0,1-.07,1,0,1-.05,1-.12,1-.07,1-.11,1,0,1-.07,1,0,1-.09,1-.11,1-.07,1-.09,1,0,1-.05,1-.07,1-.07,1-.07,1,0,1,0,1,0,1,0,1,0,1-.05,1,0,1,0h1l1,0h6l1,0,1.47,0"
           transform="translate(-19.92 -9.25)" />
      </g>
      <g
         class="cls-13"
         clip-path="url(#clip-path)"
         id="g364413">
        <path
           id="path286023"
           class="cls-17"
           d="M101.25,561.41l1,0,1,0,1,.1,1,0,1,.07,1,0,1,0,1,.06,1,.07,1,.05,1,.06,1,.09,1,0,1,0,1,0,1,0,1,0,1,.06,1,0,1,0,1,0h5l1,0h1l1,0,1-.06,1,0,1,0,1,0,1,0,1-.07,1,0,1,0,1-.07,1,0,1-.06,1-.11,1-.07,1-.11,1,0,1-.06,1,0,1-.08,1-.12,1-.07,1-.08,1,0,1-.05,1-.07,1-.06,1-.08,1,0,1,0,1,0,1,0,1,0,1-.05,1,0,1,0,1,0h5l1,0h1l1,0,1,0,1,0,1,0,1,0h1.22"
           transform="translate(-19.92 -9.25)" />
      </g>
      <g
         class="cls-13"
         clip-path="url(#clip-path)"
         id="g364416">
        <path
           id="path286025"
           class="cls-17"
           d="M108.75,530.37l1,0,1,0,1,.1,1,0,1,.07,1,0,1,0,1,0,1,.07,1,.06,1,.05,1,.09,1,.05,1,0,1,0,1,0,1,0,1,0,1,0,1,0,1,0h5l1,0,1,0,1,0,1-.06,1,0,1,0,1,0,1,0,1-.06,1,0,1-.05,1-.07,1,0,1-.06,1-.11,1-.07,1-.12,1,0,1-.06,1-.05,1-.08,1-.12,1-.07,1-.08,1,0,1,0,1-.07,1-.06,1-.08,1,0,1,0,1,0,1,0,1,0,1,0,1,0,1,0,1,0h5l1,0h1l1,0,1,0,1,0h1l1,0,1.23,0"
           transform="translate(-19.92 -9.25)" />
      </g>
      <g
         class="cls-13"
         clip-path="url(#clip-path)"
         id="g364419">
        <path
           id="path286027"
           class="cls-17"
           d="M108.75,507.82l1,0,1,0,1,.09,1,0,1,.07,1,0,1,0,1,.06,1,.07,1,0,1,.06,1,.09,1,.05,1,0,1,0,1,0,1,0,1,0,1,0,1,0,1,0,1,0h3l1,0,1,0h1l1,0,1-.06,1,0,1,0,1,0,1,0,1-.07,1,0,1,0,1-.07,1,0,1-.05,1-.11,1-.08,1-.11,1,0,1-.07,1,0,1-.08,1-.12,1-.07,1-.09,1,0,1-.05,1-.07,1-.07,1-.07,1,0,1,0,1,0,1,0,1,0,1,0,1,0,1,0h1l1,0h6l1,0,1.48,0"
           transform="translate(-19.92 -9.25)" />
      </g>
      <g
         class="cls-13"
         clip-path="url(#clip-path)"
         id="g364422">
        <path
           id="path286029"
           class="cls-17"
           d="M108.75,520l1,0,1,0,1,.1,1,0,1,.08,1,0,1,0,1,.06,1,.07,1,0,1,.06,1,.09,1,0,1,0,1,0,1,0,1,0,1,.06,1,0,1,0,1,0h5l1,0h1l1,0,1-.06,1,0,1,0,1,0,1,0,1-.07,1,0,1,0,1-.07,1,0,1-.06,1-.11,1-.07,1-.11,1-.05,1-.06,1-.05,1-.08,1-.12,1-.07,1-.08,1,0,1-.06,1-.06,1-.07,1-.08,1,0,1,0,1,0,1,0,1,0,1,0,1,0,1,0,1,0h7l1,0,1,0,1,0,1,0,1,0H186"
           transform="translate(-19.92 -9.25)" />
      </g>
      <g
         class="cls-13"
         clip-path="url(#clip-path)"
         id="g364425">
        <path
           id="path286031"
           class="cls-17"
           d="M101.25,562.43l1,0,1,0,1,.1,1,0,1,.07,1,0,1,0,1,.05,1,.07,1,.06,1,.06,1,.08,1,0,1,0,1,0,1,0,1,0,1,.05,1,0,1,0,1,0h5l1,0,1,0,1,0,1-.05,1,0,1,0,1,0,1,0,1-.06,1,0,1,0,1-.07,1,0,1-.06,1-.11,1-.07,1-.12,1,0,1-.06,1,0,1-.08,1-.12,1-.07,1-.08,1,0,1-.05,1-.07,1-.06,1-.08,1,0,1,0,1,0,1,0,1,0,1-.05,1,0,1,0,1,0h5l1,0h1l1,0,1,0,1,0h1l1,0,1.22,0"
           transform="translate(-19.92 -9.25)" />
      </g>
      <g
         class="cls-13"
         clip-path="url(#clip-path)"
         id="g364428">
        <path
           id="path286033"
           class="cls-17"
           d="M108.75,535.71l1,0,1,0,1,.1,1,0,1,.08,1,0,1,0,1,.06,1,.07,1,0,1,.06,1,.09,1,0,1,.05,1,0,1,0,1,0,1,.06,1,0,1,0,1,0h5l1,0h1l1,0,1-.06,1,0,1,0,1,0,1,0,1-.07,1,0,1,0,1-.07,1,0,1-.06,1-.11,1-.07,1-.11,1,0,1-.06,1-.05,1-.08,1-.12,1-.07,1-.08,1,0,1,0,1-.07,1-.07,1-.08,1,0,1,0,1,0,1,0,1,0,1,0,1,0,1,0h1l1,0h6l1,0,1,0,1,0,1,0,1,0,1.23,0"
           transform="translate(-19.92 -9.25)" />
      </g>
      <g
         class="cls-13"
         clip-path="url(#clip-path)"
         id="g364431">
        <path
           id="path286035"
           class="cls-17"
           d="M108.75,497.77l1,0,1,0,1,.1,1,0,1,.08,1,0,1,0,1,.06,1,.07,1,.05,1,.06,1,.09,1,0,1,.05,1,0,1,0,1,0,1,.06,1,0,1,0,1,0h5l1,0h1l1,0,1-.06,1,0,1,0,1,0,1,0,1-.07,1,0,1,0,1-.07,1,0,1-.06,1-.11,1-.07,1-.11,1-.05,1-.06,1-.05,1-.08,1-.12,1-.07,1-.08,1,0,1-.05,1-.07,1-.07,1-.08,1,0,1,0,1,0,1,0,1,0,1-.05,1,0,1,0h1l1,0h6l1,0,1.48,0"
           transform="translate(-19.92 -9.25)" />
      </g>
      <g
         class="cls-13"
         clip-path="url(#clip-path)"
         id="g364434">
        <path
           id="path286037"
           class="cls-18"
           d="M182.23,503.74l-1,0-1,0-1-.1-1,0-1-.08-1,0-1,0-1-.06-1-.07-1-.05-1-.06-1-.09-1,0-1,0-1,0-1,0-1,0-1-.06-1,0-1,0-1,0h-5l-1,0h-1l-1,0-1,.06-1,0-1,0-1,0-1,0-1,.07-1,0-1,0-1,.07-1,0-1,.06-1,.11-1,.07-1,.11-1,.05-1,.06-1,.05-1,.08-1,.12-1,.07-1,.08-1,0-1,.06-1,.06-1,.07-1,.08-1,0-1,0-1,0-1,0-1,0-1,.05-1,0-1,0-1,0h-7l-1,0-1.48,0"
           transform="translate(-19.92 -9.25)" />
      </g>
      <g
         class="cls-13"
         clip-path="url(#clip-path)"
         id="g364437">
        <path
           id="path286039"
           class="cls-18"
           d="M186,539.56l-1,0-1,0-1-.1-1,0-1-.07-1,0-1,0-1-.05-1-.07-1-.06-1-.06-1-.08-1,0-1,0-1,0-1,0-1,0-1-.05-1,0-1,0-1,0h-5l-1,0h-1l-1,0-1,.05-1,0-1,0-1,0-1,0-1,.06-1,0-1,0-1,.07-1,0-1,.06-1,.11-1,.07-1,.12-1,0-1,.06-1,0-1,.08-1,.12-1,.07-1,.08-1,0-1,.05-1,.07-1,.06-1,.08-1,0-1,0-1,0-1,0-1,0-1,.05-1,0-1,0-1,0h-5l-1,0h-1l-1,0-1,0-1,0h-1l-1,0-1.23,0"
           transform="translate(-19.92 -9.25)" />
      </g>
      <g
         class="cls-13"
         clip-path="url(#clip-path)"
         id="g364440">
        <path
           id="path286041"
           class="cls-18"
           d="M178.47,558.14l-1,0-1,0-1-.1-1,0-1-.07-1,0-1,0-1,0-1-.08-1,0-1-.06-1-.08-1-.05-1,0-1,0-1,0-1,0-1-.06-1,0-1,0-1,0h-5l-1,0h-1l-1,0-1,.06-1,0-1,0-1,0-1,0-1,.06-1,0-1,0-1,.08-1,0-1,.06-1,.11-1,.07-1,.11-1,.05-1,.06-1,.05-1,.08-1,.12-1,.07-1,.08-1,0-1,0-1,.07-1,.06-1,.08-1,0-1,0-1,0h-1l-1,0-1,0-1,0-1,0-1,0h-5l-1,0h-1l-1,0-1,0-1,0-1,0-1,0h-1.22"
           transform="translate(-19.92 -9.25)" />
      </g>
      <g
         class="cls-13"
         clip-path="url(#clip-path)"
         id="g364443">
        <path
           id="path286043"
           class="cls-18"
           d="M186,532.36l-1,0-1,0-1-.09-1,0-1-.07-1,0-1,0-1-.06-1-.07-1,0-1-.06-1-.09-1-.05-1,0-1,0-1,0-1,0-1,0-1,0-1,0-1,0h-5l-1,0h-1l-1,0-1,.06-1,0-1,0-1,0-1,0-1,.07-1,0-1,.05-1,.07-1,0-1,.06-1,.11-1,.07-1,.12-1,0-1,.06-1,0-1,.08-1,.12-1,.07-1,.09-1,0-1,0-1,.07-1,.06-1,.08-1,0-1,0-1,0-1,0-1,0-1,0-1,0-1,0-1,0-1,0h-6l-1,0-1,0h-1l-1,0-1,0-1.23,0"
           transform="translate(-19.92 -9.25)" />
      </g>
      <g
         class="cls-13"
         clip-path="url(#clip-path)"
         id="g364446">
        <path
           id="path286045"
           class="cls-18"
           d="M186,529.85l-1,0-1,0-1-.1-1,0-1-.08-1,0-1,0-1-.06-1-.07-1,0-1-.06-1-.09-1,0-1,0-1,0-1,0-1,0-1-.06-1,0-1,0-1,0h-5l-1,0h-1l-1,0-1,.06-1,0-1,0-1,0-1,0-1,.07-1,0-1,0-1,.07-1,0-1,.06-1,.11-1,.07-1,.11-1,0-1,.06-1,0-1,.08-1,.12-1,.07-1,.08-1,0-1,.05-1,.07-1,.07-1,.08-1,0-1,0-1,0-1,0-1,0-1,0-1,0-1,0h-1l-1,0h-6l-1,0-1,0-1,0-1,0-1,0h-1.23"
           transform="translate(-19.92 -9.25)" />
      </g>
      <g
         class="cls-13"
         clip-path="url(#clip-path)"
         id="g364449">
        <path
           id="path286047"
           class="cls-18"
           d="M182.23,503.31l-1,0-1,0-1-.1-1,0-1-.08-1,0-1,0-1-.06-1-.07-1,0-1-.06-1-.09-1,0-1-.05-1,0-1,0-1,0-1-.05-1,0-1,0-1,0h-5l-1,0h-1l-1,0-1,.06-1,0-1,0-1,0-1,0-1,.07-1,0-1,0-1,.07-1,0-1,.06-1,.11-1,.07-1,.11-1,0-1,.06-1,.05-1,.08-1,.12-1,.07-1,.08-1,0-1,.05-1,.07-1,.07-1,.07-1,0-1,0-1,0-1,0-1,0-1,0-1,0-1,0h-1l-1,0h-6l-1,0-1.48,0"
           transform="translate(-19.92 -9.25)" />
      </g>
      <g
         class="cls-13"
         clip-path="url(#clip-path)"
         id="g364452">
        <path
           id="path286049"
           class="cls-18"
           d="M186,515.64l-1,0-1,0-1-.09-1,0-1-.07-1,0-1,0-1-.06-1-.07-1,0-1-.06-1-.09-1-.05-1,0-1,0-1,0-1,0-1,0-1,0-1,0-1,0h-5l-1,0h-1l-1,0-1,.06-1,0-1,0-1,0-1,0-1,.07-1,0-1,.05-1,.07-1,0-1,.06-1,.11-1,.07-1,.12-1,0-1,.06-1,.05-1,.08-1,.12-1,.07-1,.09-1,0-1,0-1,.07-1,.06-1,.08-1,0-1,0-1,0-1,0-1,0-1,0-1,0-1,0-1,0-1,0h-6l-1,0-1,0h-1l-1,0-1,0-1.23,0"
           transform="translate(-19.92 -9.25)" />
      </g>
      <g
         class="cls-13"
         clip-path="url(#clip-path)"
         id="g364455">
        <path
           id="path286051"
           class="cls-18"
           d="M186,524.94l-1,0-1,0-1-.1-1,0-1-.07-1,0-1,0-1-.05-1-.08-1-.05-1-.06-1-.08-1,0-1,0-1,0-1,0-1,0-1-.06-1,0-1,0-1,0h-5l-1,0h-1l-1,0-1,.06-1,0-1,0-1,0-1,0-1,.06-1,0-1,0-1,.08-1,0-1,.06-1,.11-1,.07-1,.11-1,0-1,.06-1,0-1,.08-1,.12-1,.07-1,.08-1,0-1,.05-1,.07-1,.06-1,.08-1,0-1,0-1,0h-1l-1,0-1,.05-1,0-1,0-1,0h-5l-1,0h-1l-1,0-1,0-1,0-1,0-1,0h-1.23"
           transform="translate(-19.92 -9.25)" />
      </g>
      <g
         class="cls-13"
         clip-path="url(#clip-path)"
         id="g364458">
        <path
           id="path286053"
           class="cls-18"
           d="M178.47,583.45l-1,0-1,0-1-.1-1,0-1-.07-1,0-1,0-1-.05-1-.08-1-.05-1-.06-1-.08-1,0-1,0-1,0-1,0-1,0-1-.06-1,0-1,0-1,0h-5l-1,0h-1l-1,0-1,.06-1,0-1,0-1,0-1,0-1,.06-1,0-1,0-1,.08-1,0-1,.06-1,.11-1,.07-1,.11-1,0-1,.06-1,0-1,.08-1,.12-1,.07-1,.08-1,0-1,.05-1,.07-1,.06-1,.08-1,0-1,0-1,0h-1l-1,0-1,.05-1,0-1,0-1,0h-5l-1,0h-1l-1,0-1.47,0"
           transform="translate(-19.92 -9.25)" />
      </g>
      <g
         class="cls-13"
         clip-path="url(#clip-path)"
         id="g364461">
        <path
           id="path286055"
           class="cls-18"
           d="M182.23,509.48l-1,0-1,0-1-.09-1,0-1-.07-1,0-1,0-1-.06-1-.07-1-.05-1-.06-1-.09-1-.05-1,0-1,0-1,0-1,0-1-.05-1,0-1,0-1,0-1,0h-3l-1,0-1,0h-1l-1,0-1,.06-1,0-1,0-1,.05-1,0-1,.07-1,0-1,0-1,.07-1,0-1,.05-1,.12-1,.07-1,.11-1,0-1,.07-1,0-1,.08-1,.12-1,.07-1,.09-1,0-1,.05-1,.07-1,.07-1,.07-1,0-1,0-1,0-1,0-1,0-1,.05-1,0-1,0h-1l-1,0h-6l-1,0-1.48,0"
           transform="translate(-19.92 -9.25)" />
      </g>
    </g>
    <path
       d="M38.91,327.93c2.07,14,1.14,28.16.63,42.23,0,1.28,2,1.28,2,0,.52-14.27,1.4-28.58-.7-42.76-.19-1.27-2.12-.73-1.93.53Z"
       transform="translate(-19.92 -9.25)"
       id="path364750" />
    <path
       d="M41.84,331.85c2.42-4.58,8.6-2.7,12-.64a39.91,39.91,0,0,1,3.3,2.32l3.44,2.61q1.89,1.07.46,3.31c-1.14,7.72-11.87,9.62-18.38,8.5-1.26-.22-1.8,1.71-.53,1.93,4.89.84,10,.6,14.32-2,3.17-1.91,9.25-5.94,7.68-10.44-.72-2.07-2.94-3.35-4.61-4.6-2.66-2-5.36-4.24-8.61-5.23-3.81-1.16-8.76-.61-10.79,3.23-.6,1.14,1.12,2.15,1.73,1Z"
       transform="translate(-19.92 -9.25)"
       id="path364752" />
    <path
       d="M70.43,357.82c-1.42-5.3-7.21-10.24-13-8.11-5.16,1.91-5.85,10.23-5.08,14.85.84,5,5.42,7.85,10.26,6,7.34-2.82,7-12.08,6.3-18.45l-2,.26L71,369c.3,1.25,2.23.72,1.93-.53l-4-16.67c-.26-1.07-2.1-.87-2,.27.48,4.16,1.11,8.93-1,12.78-3,5.4-10.94,5.75-11.68-1.31-.31-2.95,0-6.82,1.39-9.47,3.59-6.7,11.54-.64,12.86,4.25a1,1,0,0,0,1.92-.53Z"
       transform="translate(-19.92 -9.25)"
       id="path364754" />
    <path
       d="M75.58,356.81a7.47,7.47,0,0,1,.92-4.41,2.22,2.22,0,0,1,1.35.19c.61-.06,1.26.39,2,.3a7.56,7.56,0,0,0,4-2.31l-1.71-.71c-.56,5.14-1.33,10.32-1.69,15.48-.31,4.37,2.93,5,6.3,2.85,1.08-.7.07-2.43-1-1.73-4.27,2.76-3.21-1.84-3-3.92l1.39-12.68c.1-.92-1.13-1.24-1.71-.71-1.33,1.22-2.55,1.37-4.39,1.18-.3,0-.62-.36-.92-.33a2.86,2.86,0,0,0-1.57.47c-1.74,1.27-2,4.42-1.93,6.33a1,1,0,0,0,2,0Z"
       transform="translate(-19.92 -9.25)"
       id="path364756" />
    <path
       d="M104.92,359.55c1.6-5-1.76-10.28-7.23-10-6.14.27-7.79,6.69-7.88,11.75-.08,4.46,1.14,10.4,6.92,9.67,6.72-.84,7.73-8.23,7.91-13.69h-2a38.68,38.68,0,0,0,.56,7.29c.24,1.33.34,3.52,1.45,4.42a1,1,0,0,0,1.22.16l.27-.15a1,1,0,0,0,.46-1.13l0-.25c-.29-1.26-2.22-.73-1.93.53l0,.25.46-1.13-.27.15,1.21.16c-.82-.67-1-3.66-1.09-4.57a37.84,37.84,0,0,1-.34-5.73,1,1,0,0,0-2,0c-.12,3.65-.19,8.41-3.57,10.66-1.86,1.23-4.1,1.56-5.75-.13-1.42-1.45-1.49-3.6-1.51-5.54,0-3.05.09-6.94,2.45-9.21,4.41-4.26,10.41.82,8.73,6-.4,1.22,1.53,1.75,1.93.53Z"
       transform="translate(-19.92 -9.25)"
       id="path364758" />
    <path
       d="M109.08,349.94l.58,20.05a1,1,0,0,0,2,0c0-3.75-.4-8.67,1.75-11.94q1.13-3.46,5.92-1.56c.26,1.21.49,2.42.67,3.65a67.16,67.16,0,0,1,.67,9l2-.26a31.94,31.94,0,0,1-.18-9.31c.37-2.29,1.89-6.33,4.72-6.77l5,3a12.28,12.28,0,0,1,.13,2.57c0,3.25-.53,6.09,1.12,9a1,1,0,0,0,1.73-1c-2.57-4.6,2-16.33-7.13-15.78-8.93.53-8.16,12.69-7.34,18.77.16,1.13,2,.84,2-.27-.06-3.7.66-18.87-6.34-16.82-6.64,1.94-6.74,12.39-6.67,17.71h2l-.58-20.05a1,1,0,0,0-2,0Z"
       transform="translate(-19.92 -9.25)"
       id="path364760" />
    <path
       d="M139,364.48c4.64-2.14,10.4-2.51,9.7-9.15-.34-3.29-3.56-8.8-7.33-6-4.24,3.16-4.76,11.22-3.51,15.85,1.7,6.35,8.61,5.86,13.73,4.7,1.25-.28.72-2.21-.53-1.93-5,1.13-10.79,1.63-11.54-5a18.75,18.75,0,0,1,1-8.93,6.21,6.21,0,0,1,1.48-2.52c2.43-.42,3.9.38,4.39,2.41a6,6,0,0,1-.16,4.85c-1.5,2.62-5.67,2.81-8.2,4-1.16.54-.15,2.26,1,1.73Z"
       transform="translate(-19.92 -9.25)"
       id="path364762" />
    <path
       d="M158.34,332.19q-.85,8.25-1.36,16.54c-.29,5-1.22,10.69-.19,15.59,1.13,5.36,6.84,8.28,10.83,3.66.84-1-.57-2.39-1.41-1.41l-7.31-1.88-.42-3.38c-.06-1.25.05-2.54.09-3.8.1-2.93.24-5.85.41-8.78q.5-8.28,1.36-16.54c.13-1.28-1.87-1.27-2,0Z"
       transform="translate(-19.92 -9.25)"
       id="path364764" />
    <path
       d="M151.14,353.22a42.09,42.09,0,0,1,14.44-1.14c1.29.12,1.28-1.89,0-2a43.89,43.89,0,0,0-15,1.21,1,1,0,0,0,.53,1.93Z"
       transform="translate(-19.92 -9.25)"
       id="path364766" />
    <path
       d="M175.38,360.47c5,1.75,9.07-2.81,8-7.74-1-4.65-6.42-5.4-9.9-2.72-3.82,3-3.94,10.18-2.58,14.4,2,6.27,8.46,6,13.83,4.88,1.26-.26.73-2.19-.53-1.93-3.55.74-8.5,1.7-10.77-2.09-1.23-2.07-1.2-4.71-1.11-7,.13-3.16.92-6.77,4.47-7.63,6.82-1.65,5.93,10.3-.88,7.92-1.21-.42-1.74,1.51-.53,1.93Z"
       transform="translate(-19.92 -9.25)"
       id="path364768" />
    <path
       d="M187.74,353.5c-.61-4,5.17-1,6.33-1.27,1.46-.39,1.64-2.15,3-2.77l-1.47-1.13a60.13,60.13,0,0,0-4.18,20.21,1,1,0,0,0,1,1,10.88,10.88,0,0,0,7.46-1.79c1.08-.7.08-2.43-1-1.73a9.26,9.26,0,0,1-6.45,1.52l1,1a58.26,58.26,0,0,1,4.11-19.68c.35-.89-.77-1.46-1.47-1.13-1.67.79-1.39,2.25-3.66,1.83-1-.19-1.67-.93-2.83-.87-2.94.16-4.11,2.77-3.72,5.34.2,1.27,2.13.73,1.93-.53Z"
       transform="translate(-19.92 -9.25)"
       id="path364770" />
    <path
       d="M203.13,350.55V363.1c0,1.89-.79,5.15.65,6.67a1,1,0,0,0,1.42,0l.25-.25a1,1,0,0,0,0-1.41l-.18-.19c-.87-.95-2.28.47-1.41,1.41l.18.19v-1.41l-.26.24h1.42c-.37-.38-.07-4-.07-4.51V350.55a1,1,0,0,0-2,0Z"
       transform="translate(-19.92 -9.25)"
       id="path364772" />
    <path
       d="M204.22,341.83v-.46a1,1,0,0,0-2,0v.46a1,1,0,0,0,2,0Z"
       transform="translate(-19.92 -9.25)"
       id="path364774" />
    <path
       d="M209.31,351.51c2.21-.34,7.34-1.6,9.45-.55,3,1.49-.36,5.15-1.44,6.77-2.43,3.65-4.78,7.19-5.71,11.53a1,1,0,0,0,1.23,1.23,49.75,49.75,0,0,1,12.24-.68c1.29.08,1.28-1.92,0-2a52.06,52.06,0,0,0-12.77.75l1.23,1.23c.85-4,2.94-7.2,5.16-10.53,1.36-2.05,4.14-5.07,4.21-7.65.12-4.93-11.51-2.44-14.13-2-1.27.19-.73,2.12.53,1.93Z"
       transform="translate(-19.92 -9.25)"
       id="path364776" />
    <path
       d="M212.68,361.3l8.73-.81c1.27-.11,1.28-2.11,0-2l-8.73.81c-1.27.12-1.28,2.12,0,2Z"
       transform="translate(-19.92 -9.25)"
       id="path364778" />
    <path
       d="M230.53,362.9c5.14.69,12.08-3.81,11.95-9.57-.12-5.23-6.68-6.9-10.51-4.55-11.22,6.88,1.7,28.22,13.11,20.81,1.07-.7.07-2.43-1-1.73-7.35,4.78-14.93-4.95-14.22-11.85.34-3.19,4.85-9.2,8.65-5.67l1.83,4a11.11,11.11,0,0,1-2.41,3.88c-1.81,1.91-4,3.16-6.85,2.78-1.26-.17-1.81,1.76-.54,1.93Z"
       transform="translate(-19.92 -9.25)"
       id="path364780" />
    <path
       d="M262.24,354c2.25-6.73-6-9.4-10.53-5.44-3,2.59-3.78,6.8-4,10.52-.21,3.12-.76,8.4,1.79,10.88,5.86,5.72,10.11-4.79,11.27-8.82a65.22,65.22,0,0,0,.76-32.1c-.23-1.09-2.08-.87-2,.26,1.43,13.07,1.08,26.18.63,39.29,0,1.29,2,1.29,2,0,.45-13.11.8-26.22-.63-39.29l-2,.27a63,63,0,0,1-.09,28.46,51.45,51.45,0,0,1-1.74,6q-1,5.27-7.69,3a11.21,11.21,0,0,1-.42-2.93,34.86,34.86,0,0,1,.1-5.87,15.09,15.09,0,0,1,1.62-6q3.66-6.95,8.95,1.21c-.41,1.23,1.52,1.75,1.93.54Z"
       transform="translate(-19.92 -9.25)"
       id="path364782" />
    <path
       d="M105.27,385.14v-.34a1,1,0,0,0-.74-1l-.37-.1a1,1,0,0,0-1.23.7c-1.31,3.43-.72,8.19-.86,11.84q-.28,7.34-.4,14.67l2-.27a21.44,21.44,0,0,1,.43-9.56c.69-2.42,2.6-7.46,5.07-8.68,2.72-1.33,3.48-.24,3.87,2.63.21,1.62.39,3.26.59,4.88l1.3,10.75,2-.27a52.19,52.19,0,0,1-.39-11.24c0-.11.61-12.26,5.55-7.15.93,1,1,3.72,1.17,4.9a67.91,67.91,0,0,1,.56,9.87c0,1.2-.56,2.65.34,3.59a1,1,0,0,0,1.58-.2,1.5,1.5,0,0,0,.34-1.29c-.09-1.27-2.1-1.28-2,0l-.07.28,1.57-.2c-.52-.54.13-7.56,0-8.56a39.89,39.89,0,0,0-.9-6.88c-.61-2.41-1.94-5.1-4.79-4.93-7.9.48-5.56,17.81-4.94,22.34.15,1.11,2.1.86,2-.26l-1.3-10.75c-.32-2.6-.22-5.75-1.08-8.26-.72-2.14-1.86-3.47-4.22-2.69-3.22,1.06-6,6-7.19,8.86a23.55,23.55,0,0,0-1.4,13.35c.19,1.14,2,.83,2-.26q.11-6.36.32-12.72c.14-3.87-.52-9.62.87-13.26l-1.23.7-.35-.52c.06,1.29,2.06,1.29,2,0Z"
       transform="translate(-19.92 -9.25)"
       id="path364784" />
    <path
       d="M129.67,398c.54,4.16,1.43,13.62,7.24,13.94s9.26-8.18,9.42-12.79c.19-5.15-3.18-11-8.81-11.35-7.83-.5-5.71,7.29-6.36,12.18-.16,1.27,1.84,1.26,2,0,.4-3.05-1.86-11.3,5.21-10,4.78.86,6.54,6.86,5.77,11-.49,2.63-4.34,11.62-8.92,8.2-2.6-1.93-3.19-8.35-3.55-11.14-.17-1.26-2.17-1.28-2,0Z"
       transform="translate(-19.92 -9.25)"
       id="path364786" />
    <path
       d="M159.94,395.42c2.58-4.83-3-9.35-7.3-5.89-4.92,3.92-4.2,15.67-1.56,20.67,4,7.67,8.23-5.1,9-7.85,2.53-8.72,1.73-17.26.81-26.18-.13-1.26-2.11-1.29-2,0,1,11.53.52,23,.48,34.51l2-.26-.52-1.36c-.47-1.18-2.4-.67-1.93.54l.53,1.35a1,1,0,0,0,2-.27c0-11.55.49-23-.48-34.51h-2c.79,7.68,1.76,15.33,0,22.94-.45,1.92-1,3.81-1.65,5.67-.47,1.43-1,2.83-1.58,4.21q-3.76.15-3.66-2.89c-.72-2.05-.66-5.39-.6-7.6a15.69,15.69,0,0,1,.47-4.15q8.34-5.79,6.33.06c-.61,1.13,1.12,2.14,1.73,1Z"
       transform="translate(-19.92 -9.25)"
       id="path364788" />
    <path
       d="M166,402.29c4,.11,13.84-.66,12.48-7.06-.93-4.36-8-4.61-10.46-1.59-2.91,3.53-3.32,11.66-.42,15.25,3.87,4.81,11.82,2.14,16.21-.38a1,1,0,0,0-1-1.73c-3.08,1.77-7.17,3.36-10.8,2.54-4.1-.92-4.43-5.29-4.1-8.71s2-8.56,6.54-6.73q4,3.83-.79,5.43a21.07,21.07,0,0,1-2.07.56,23.27,23.27,0,0,1-5.58.42,1,1,0,0,0,0,2Z"
       transform="translate(-19.92 -9.25)"
       id="path364790" />
    <path
       d="M187,374.29c.08,12.74.65,25.33,2,38,.14,1.27,2.12,1.29,2,0l-.25-2.78c-.12-1.27-2.12-1.29-2,0l.25,2.78h2c-1.34-12.66-1.91-25.25-2-38a1,1,0,0,0-2,0Z"
       transform="translate(-19.92 -9.25)"
       id="path364792" />
    <path
       d="M268.25,454.21a292.93,292.93,0,0,1,153.91-85.44c2.39-.48,1.54-3.7-.53-3.92a160.49,160.49,0,0,0-50.47,2.41c-2.53.52-1.45,4.34,1.07,3.85a489.09,489.09,0,0,1,57.46-7.55l-1-3.72q-21.93,14.67-42.7,30.93c-2,1.59.83,4.4,2.83,2.83q20.37-15.93,41.89-30.31c1.52-1,1.11-3.88-1-3.73a494.94,494.94,0,0,0-58.53,7.7l1.07,3.85a157.27,157.27,0,0,1,49.4-2.26l-.53-3.93a296.49,296.49,0,0,0-155.67,86.46c-1.77,1.87,1.05,4.7,2.82,2.83Z"
       transform="translate(-19.92 -9.25)"
       id="path364832" />
  </g>
  <metadata
     id="metadata375244">
    <rdf:RDF>
      <cc:Work
         rdf:about="">
        <dc:title>full_new</dc:title>
      </cc:Work>
    </rdf:RDF>
  </metadata>
</svg>
