<?xml version="1.0" encoding="UTF-8" standalone="no"?>
<svg
   viewBox="0 0 1175.48 577.35"
   version="1.1"
   id="svg364837"
   sodipodi:docname="dem_inf_tool_4.svg"
   inkscape:version="1.2.2 (1:1.2.2+202212051552+b0a8486541)"
   xmlns:inkscape="http://www.inkscape.org/namespaces/inkscape"
   xmlns:sodipodi="http://sodipodi.sourceforge.net/DTD/sodipodi-0.dtd"
   xmlns="http://www.w3.org/2000/svg"
   xmlns:svg="http://www.w3.org/2000/svg"
   xmlns:rdf="http://www.w3.org/1999/02/22-rdf-syntax-ns#"
   xmlns:cc="http://creativecommons.org/ns#"
   xmlns:dc="http://purl.org/dc/elements/1.1/">
  <sodipodi:namedview
     id="namedview364839"
     pagecolor="#ffffff"
     bordercolor="#000000"
     borderopacity="0.25"
     inkscape:showpageshadow="2"
     inkscape:pageopacity="0.0"
     inkscape:pagecheckerboard="0"
     inkscape:deskcolor="#d1d1d1"
     showgrid="false"
     inkscape:zoom="0.37918934"
     inkscape:cx="607.87573"
     inkscape:cy="311.19018"
     inkscape:window-width="1223"
     inkscape:window-height="779"
     inkscape:window-x="57"
     inkscape:window-y="21"
     inkscape:window-maximized="1"
     inkscape:current-layer="Layer_1" />
  <defs
     id="defs363475">
    <style
       id="style363461">.cls-1,.cls-11,.cls-17,.cls-18,.cls-20,.cls-22,.cls-24,.cls-26,.cls-27,.cls-33,.cls-4{fill:none;}.cls-2{fill:#d8d8d8;}.cls-11,.cls-3,.cls-33,.cls-4{stroke:#000;}.cls-14,.cls-15,.cls-16,.cls-17,.cls-18,.cls-26,.cls-27,.cls-29,.cls-3,.cls-30,.cls-33{stroke-linejoin:round;}.cls-3,.cls-4{stroke-width:0.8px;}.cls-17,.cls-18,.cls-4{stroke-linecap:square;}.cls-5{opacity:0.82;}.cls-6{fill:#c1272d;}.cls-7{fill:#fcee21;}.cls-8{fill:blue;}.cls-9{fill:#8cc63f;}.cls-10,.cls-29,.cls-30{fill:#fff;}.cls-11{stroke-miterlimit:10;}.cls-12{fill:#b3b3b3;}.cls-13{clip-path:url(#clip-path);}.cls-14,.cls-25{fill:#2ca02c;}.cls-14,.cls-15,.cls-16{fill-opacity:0.2;stroke-width:2px;stroke-dasharray:2 2;}.cls-14,.cls-18,.cls-24{stroke:#2ca02c;}.cls-15,.cls-23,.cls-32{fill:#ff7f0e;}.cls-15{stroke:#ff800f;}.cls-16{fill:#1e75b3;stroke:#1e75b3;}.cls-17,.cls-22,.cls-32{stroke:#ff7f0e;}.cls-17,.cls-18,.cls-32{stroke-opacity:0.5;}.cls-17,.cls-18{stroke-width:0.2px;}.cls-19{clip-path:url(#clip-path-24);}.cls-20,.cls-27,.cls-30{stroke:#1f77b4;}.cls-21{fill:#1f77b4;}.cls-21,.cls-23,.cls-25,.cls-32{fill-opacity:0.5;}.cls-26,.cls-29{stroke:#fff;stroke-width:3px;}.cls-26,.cls-27,.cls-29,.cls-30{stroke-linecap:round;}.cls-28{clip-path:url(#clip-path-42);}.cls-31{clip-path:url(#clip-path-46);}</style>
    <clipPath
       id="clip-path"
       transform="translate(-19.92 -9.25)">
      <rect
         class="cls-1"
         x="70.17"
         y="382.26"
         width="154.4"
         height="203.34"
         id="rect363463" />
    </clipPath>
    <clipPath
       id="clip-path-24"
       transform="translate(-19.92 -9.25)">
      <rect
         class="cls-1"
         x="1010.21"
         y="202.75"
         width="158.77"
         height="237.35"
         id="rect363466" />
    </clipPath>
    <clipPath
       id="clip-path-42"
       transform="translate(-19.92 -9.25)">
      <rect
         class="cls-1"
         x="1005.58"
         y="202.75"
         width="158.77"
         height="237.35"
         id="rect363469" />
    </clipPath>
    <clipPath
       id="clip-path-46"
       transform="translate(-19.92 -9.25)">
      <rect
         class="cls-1"
         x="1014.84"
         y="202.75"
         width="158.77"
         height="237.35"
         id="rect363472" />
    </clipPath>
  </defs>
  <title
     id="title363477">full_new</title>
  <g
     id="Layer_1"
     data-name="Layer 1">
    <g
       id="Слой_11"
       data-name="Слой 11">
      <g
         id="g262277">
        <g
           id="g262275">
          <path
             id="path262273"
             d="M915.2,88.08c.08,14.32.37,28.71,1,43,.07,1.41,2.3,1.41,2.22,0-.52-14.32-.81-28.64-1-43a1.12,1.12,0,0,0-2.23,0Z"
             transform="translate(-19.92 -9.25)" />
        </g>
      </g>
      <g
         id="g262283">
        <g
           id="g262281">
          <path
             id="path262279"
             d="M917.06,89.49c6.45-2.75,13.5-1.34,20,.22,3.26.74,6.08,1.71,7.79,4.9a23.24,23.24,0,0,1,2.3,8.61,35.56,35.56,0,0,1-.22,10.09c-.74,4.15-2.52,6.38-6.16,8.38a50.59,50.59,0,0,1-19.37,5.86c-1.41.15-1.41,2.38,0,2.23,8-.74,17.14-3,23.6-8.09,5.42-4.15,5.12-13.5,4.3-19.59-1-7-3.41-12.46-10.61-14.32-7.49-1.93-15.51-3.34-22.78-.22-1.33.52-.22,2.45,1.12,1.93Z"
             transform="translate(-19.92 -9.25)" />
        </g>
      </g>
      <g
         id="g262289">
        <g
           id="g262287">
          <path
             id="path262285"
             d="M958.68,123.77c4.38-.3,12.91-2.52,10.31-8.91-1.85-4.6-8.16-3.71-11.42-1.33-4.23,3.12-6.38,9.27-4.38,14.17,2.6,6.53,12.32,4.45,17.58,3.19a1.11,1.11,0,0,0-.59-2.15,32.71,32.71,0,0,1-10.76,1c-5.41-.6-5.56-7-3.56-10.83,1.41-2.75,4.3-5.27,7.57-5.12s4.38,3.26,2.23,5.63c-1.71,1.86-4.6,2-7,2.16-1.41,0-1.41,2.22,0,2.15Z"
             transform="translate(-19.92 -9.25)" />
        </g>
      </g>
      <g
         id="g262295">
        <g
           id="g262293">
          <path
             id="path262291"
             d="M978.79,114.72c-.37,5.19-.67,10.38-.82,15.65-.07,1.49,2.08,1.41,2.23,0,.59-4.38,1.11-12.39,5.56-14.69,7-3.64,6.68,8.31,7,12a1.12,1.12,0,0,0,2.23,0c.22-2.3.44-4.6.74-6.9.22-2,.15-3.41,1.56-5s3.34-1.93,5.27-.3c3.78,3.19,2.22,9.65,2,13.88-.08,1.41,2.15,1.41,2.22,0,.3-5.57,1.71-16.4-6.52-17.22-8-.74-6.91,10.32-7.42,15.44h2.22c-.44-5-.07-16.18-8-14.77-7.35,1.26-8.24,11.65-9,17.44h2.23c.22-5.2.52-10.46.81-15.66a1.19,1.19,0,0,0-2.37.08Z"
             transform="translate(-19.92 -9.25)" />
        </g>
      </g>
      <g
         id="g262301">
        <g
           id="g262299">
          <path
             id="path262297"
             d="M1013.44,123.69c1.33,2-.67,4.9,2.59,5.64,2.45.6,6.39-.44,8.54-1.41a9.92,9.92,0,0,0,5.12-12.54c-1.86-4.82-7.87-7.19-12.62-5.26-5,2-7,8.08-5,12.91.52,1.33,2.67.74,2.15-.6-1.56-3.78-.3-8.46,3.64-10.16s9,.52,10.09,4.82-1.78,8.24-5.94,9.42c-1.93.52-5.27,1.64-6-1-.3-1.11.07-1.86-.67-3s-2.67-.07-1.85,1.11Z"
             transform="translate(-19.92 -9.25)" />
        </g>
      </g>
      <g
         id="g262307">
        <g
           id="g262305">
          <path
             id="path262303"
             d="M1051.06,122.14c1-4.53-2.45-8.76-7-9.2-5.27-.45-9.8,4.3-11.21,9-1.48,5.12,3.19,8.23,7.94,7.49,5.42-.89,8.16-6.16,6.9-11.2a1.12,1.12,0,0,0-2.15.59,57.59,57.59,0,0,1,.59,24.93c-.37,1.71-.74,3.41-1.26,5.12-.74,2.37-1.41,5.12-5.78,3.12a7.94,7.94,0,0,1-2.38-2.08c-2.52-3.93,3.41-9.35,6.31-11.28,1.19-.81.07-2.74-1.11-1.93-3.42,2.3-9.13,7.72-8.09,12.47.74,3.41,6.16,7.19,9.57,5.64,4.45-2.08,5-10.54,5.49-14.69a60.41,60.41,0,0,0-1.26-21.89c-.74.22-1.41.37-2.15.59.89,3.49-.67,7.27-4.31,8.24-4.6,1.26-7.56-2.6-5.26-6.68,1.26-2.38,3.56-4.68,6.3-5.12,3.64-.67,7.57,2.37,6.68,6.31-.22,1.26,1.93,1.85,2.23.52Z"
             transform="translate(-19.92 -9.25)" />
        </g>
      </g>
      <g
         id="g262313">
        <g
           id="g262311">
          <path
             id="path262309"
             d="M1058.55,130.67c.52-6.23,1-12.54,1.63-18.77a16.44,16.44,0,0,1-1.41,1,23.19,23.19,0,0,0,9.28,1.11c1.41-.15,1.41-2.38,0-2.23a21.61,21.61,0,0,1-8.68-1,1.12,1.12,0,0,0-1.41,1c-.52,6.23-1,12.54-1.64,18.77-.14,1.49,2.08,1.49,2.23.08Z"
             transform="translate(-19.92 -9.25)" />
        </g>
      </g>
      <g
         id="g262319">
        <g
           id="g262317">
          <path
             id="path262315"
             d="M1086.6,122a7.76,7.76,0,0,0-6.76-9.35c-5.12-.52-10,3.93-10.83,8.83-2,12.09,20,11.13,17.14-1.93-.3-1.34-2-.82-2.15.3a18.31,18.31,0,0,0,3,12.83c.82,1.19,2.75.08,1.93-1.11a16.85,16.85,0,0,1-2.74-11.72c-.75.07-1.49.22-2.16.29,2.23,10.24-15.73,10-12.54.52,1-3,4-5.71,7.28-5.79a5.58,5.58,0,0,1,5.63,6.61,1.11,1.11,0,0,0,2.16.52Z"
             transform="translate(-19.92 -9.25)" />
        </g>
      </g>
      <g
         id="g262325">
        <g
           id="g262323">
          <path
             id="path262321"
             d="M1092.75,118.2c.23,9.8.38,19.59.6,29.46a1.11,1.11,0,0,0,2.22,0c-.22-9.79-.37-19.59-.59-29.46a1.12,1.12,0,0,0-2.23,0Z"
             transform="translate(-19.92 -9.25)" />
        </g>
      </g>
      <g
         id="g262331">
        <g
           id="g262329">
          <path
             id="path262327"
             d="M1093.5,117.83c.66-4.75,9-4,11.42-1.18,2.3,2.67.37,6.15-2.22,7.79-2.23,1.41-5,1.7-7.65,2-1.41.15-1.41,2.37,0,2.22,4.16-.51,8.83-1.11,11.51-4.74a6.82,6.82,0,0,0,.37-8.24c-3.27-4.38-14.62-5.19-15.59,1.63-.14,1.34,2,1.93,2.16.52Z"
             transform="translate(-19.92 -9.25)" />
        </g>
      </g>
      <g
         id="g262337">
        <g
           id="g262335">
          <path
             id="path262333"
             d="M1126.81,114.94a37.92,37.92,0,0,0,.22,14.17c.3,1.41,2.45.82,2.15-.59a38.3,38.3,0,0,1-.22-13c.22-1.41-1.93-2-2.15-.59Z"
             transform="translate(-19.92 -9.25)" />
        </g>
      </g>
      <g
         id="g262343">
        <g
           id="g262341">
          <path
             id="path262339"
             d="M1126.44,101.14c.22-.15.37-.37.59-.52a1.07,1.07,0,0,0,0-1.56,1.14,1.14,0,0,0-1.55,0c-.23.15-.38.37-.6.52a1.09,1.09,0,0,0,0,1.56,1.15,1.15,0,0,0,1.56,0Z"
             transform="translate(-19.92 -9.25)" />
        </g>
      </g>
      <g
         id="g262349">
        <g
           id="g262347">
          <path
             id="path262345"
             d="M1148.11,119.91a5.32,5.32,0,0,0-4-7.42c-4.53-.82-9.5,3.49-10.91,7.57-3.41,9.72,11.35,14.54,18.25,11.35,1.34-.59.15-2.52-1.11-1.93-4.38,2-11.35.37-14.24-3.71-1.86-2.6-1-5.56,1-7.86a9.8,9.8,0,0,1,3.19-2.6c2.08-1,7.87-.82,5.94,3.41-.6,1.34,1.33,2.45,1.93,1.19Z"
             transform="translate(-19.92 -9.25)" />
        </g>
      </g>
      <g
         id="g262411">
        <g
           id="g262355">
          <g
             id="g262353">
            <path
               id="path262351"
               d="M1083.7,146.1a137.76,137.76,0,0,1,1.26,32.28h2.23a11.64,11.64,0,0,1,.07-1.56c.08-1.41-2.15-1.41-2.22,0a10.19,10.19,0,0,1-.08,1.56c-.07,1.41,2.16,1.41,2.23,0a143,143,0,0,0-1.34-32.87c-.22-1.41-2.37-.82-2.15.59Z"
               transform="translate(-19.92 -9.25)" />
          </g>
        </g>
        <g
           id="g262361">
          <g
             id="g262359">
            <path
               id="path262357"
               d="M1088.15,165.61a4,4,0,0,1,6.16-2.89c1.56,1.11,1.93,3,2.23,4.82.44,2.68.59,5.2,2.67,7.2,1,1,2.6-.59,1.56-1.56-3.49-3.41-.74-9.79-5.64-12.46-4.16-2.3-8.53.59-9.13,5-.22,1.33,2,1.33,2.15-.08Z"
               transform="translate(-19.92 -9.25)" />
          </g>
        </g>
        <g
           id="g262367">
          <g
             id="g262365">
            <path
               id="path262363"
               d="M1107.15,160.42a46.05,46.05,0,0,0,.67,15.66c.29,1.41,2.44.81,2.15-.6a43.07,43.07,0,0,1-.6-15.06c.15-1.48-2.07-1.41-2.22,0Z"
               transform="translate(-19.92 -9.25)" />
          </g>
        </g>
        <g
           id="g262373">
          <g
             id="g262371">
            <path
               id="path262369"
               d="M1107.52,154.63h.59a1.11,1.11,0,1,0,0-2.22h-.59a1.14,1.14,0,0,0-1.11,1.11,1.09,1.09,0,0,0,1.11,1.11Z"
               transform="translate(-19.92 -9.25)" />
          </g>
        </g>
        <g
           id="g262379">
          <g
             id="g262377">
            <path
               id="path262375"
               d="M1128.59,162.05c-1.48-5.78-8.68-4.6-10.53.3-.89,2.37-.67,5.49,1.63,7.05,1.18.82,2.67.74,4.08,1,1.78.44,8.16,2.89,1.26,6.3-1.56.75-4.16,0-5.71-.29s-2,1.85-.6,2.15c4,.82,12.17.82,11.28-5.57a5.5,5.5,0,0,0-3.63-4.08c-1-.44-2.3-.37-3.27-.81-1.71-.82-3.71-2.75-3-4.75.74-2.23,5.27-5.34,6.45-.74.3,1.41,2.45.81,2.08-.6Z"
               transform="translate(-19.92 -9.25)" />
          </g>
        </g>
        <g
           id="g262385">
          <g
             id="g262383">
            <path
               id="path262381"
               d="M1137.12,148.7c-.22,4.3-.44,8.6-.37,13,.08,3,0,6.31,1.49,9,1.85,3.26,6.67,4.38,8.9.82.74-1.19-1.19-2.3-1.93-1.12s-3.41,1.12-4.38.15a8.13,8.13,0,0,1-1.48-3.11,31.58,31.58,0,0,1-.45-6.46c-.07-4.08.15-8.16.38-12.24.14-1.41-2.08-1.41-2.16,0Z"
               transform="translate(-19.92 -9.25)" />
          </g>
        </g>
        <g
           id="g262391">
          <g
             id="g262389">
            <path
               id="path262387"
               d="M1131.93,164.35a69,69,0,0,0,14-3c1.33-.45.82-2.6-.59-2.16a69.27,69.27,0,0,1-13.36,2.9c-1.41.15-1.41,2.37,0,2.22Z"
               transform="translate(-19.92 -9.25)" />
          </g>
        </g>
        <g
           id="g262397">
          <g
             id="g262395">
            <path
               id="path262393"
               d="M1154.41,165.61c-2.3,3.71.45,8.91,5,8.46,5.27-.52,7.72-7.19,6.83-11.72-1-4.82-6-8.31-10.83-6.08-5.57,2.52-3.57,9.12-1.56,13.43.59,1.26,2.52.14,1.93-1.12-1.34-2.82-3.49-7.64-.15-9.94,2.67-1.85,6.31-.37,7.72,2.3a8.46,8.46,0,0,1-1,8.83c-1.26,1.56-3.56,3-5.49,1.48a3.42,3.42,0,0,1-.59-4.45,1.1,1.1,0,1,0-1.86-1.19Z"
               transform="translate(-19.92 -9.25)" />
          </g>
        </g>
        <g
           id="g262403">
          <g
             id="g262401">
            <path
               id="path262399"
               d="M1170.81,169.92c-.22-5-.37-10-.59-15.06-.3.37-.52.74-.82,1l9.57-1.56c1.41-.23.82-2.38-.59-2.15l-9.57,1.55a1.12,1.12,0,0,0-.82,1c.22,5.05.37,10,.59,15.06.08,1.49,2.3,1.49,2.23.08Z"
               transform="translate(-19.92 -9.25)" />
          </g>
        </g>
        <g
           id="g262409">
          <g
             id="g262407">
            <path
               id="path262405"
               d="M1182.83,154.49c-1,4.6-3.64,14.17,3.71,14.32,6.45.14,9.2-6.68,8.83-12a1.12,1.12,0,0,0-2.23,0c-.74,6.08-1.41,12.16-2.15,18.32-.3,2.75-.3,5.79-1,8.46-.6,2.3-1.56,2.75-3.79,2.67a3.58,3.58,0,0,1-3.93-2.45,2.13,2.13,0,0,1,1.19-2.74c1.33-.52.74-2.67-.6-2.15a4.58,4.58,0,0,0-2.52,6.15c1.34,3.42,5.71,3.79,8.83,2.9,4.23-1.19,3.34-7.27,3.71-10.76.82-6.83,1.56-13.58,2.37-20.4h-2.22c.22,3.71-1,9.49-5.79,9.64-5.64.22-3.12-8.38-2.45-11.43a1,1,0,1,0-2-.51Z"
               transform="translate(-19.92 -9.25)" />
          </g>
        </g>
      </g>
      <g
         id="g262423">
        <g
           id="g262421">
          <path
             id="path262419"
             d="M1111.16,101.36c.14,9.35.22,18.7.37,28.05a1.11,1.11,0,0,0,2.22,0c-.15-9.35-.22-18.7-.37-28a1.11,1.11,0,0,0-2.22,0Z"
             transform="translate(-19.92 -9.25)" />
        </g>
      </g>
      <g
         id="g262429">
        <g
           id="g262427">
          <path
             id="path262425"
             d="M1113.53,117.16c6.31-1.63,7.86,6.61,8.31,11.06.15,1.41,2.37,1.41,2.23,0-.38-3.56-.75-7.42-3.12-10.31a7.71,7.71,0,0,0-8-2.9,1.11,1.11,0,0,0,.59,2.15Z"
             transform="translate(-19.92 -9.25)" />
        </g>
      </g>
    </g>
    <g
       id="matplotlib.axis_2"
       data-name="matplotlib.axis 2">
      <g
         id="ytick_1"
         data-name="ytick 1">
        <g
           id="line2d_3"
           data-name="line2d 3">
          <g
             id="g78707">
            <path
               id="use78705"
               class="cls-3"
               d="M995.48,440.11h-4.09"
               transform="translate(-19.92 -9.25)" />
          </g>
        </g>
      </g>
      <g
         id="ytick_5"
         data-name="ytick 5">
        <g
           id="line2d_7"
           data-name="line2d 7">
          <g
             id="g78777">
            <path
               id="use78775"
               class="cls-3"
               d="M995.48,334.62h-4.09"
               transform="translate(-19.92 -9.25)" />
          </g>
        </g>
      </g>
      <g
         id="ytick_8"
         data-name="ytick 8">
        <g
           id="line2d_10"
           data-name="line2d 10">
          <g
             id="g78828">
            <path
               id="use78826"
               class="cls-3"
               d="M995.48,246.6h-4.09"
               transform="translate(-19.92 -9.25)" />
          </g>
        </g>
      </g>
    </g>
    <g
       id="patch_8"
       data-name="patch 8">
      <path
         id="path78951"
         class="cls-4"
         d="M995.48,440.11V202.75"
         transform="translate(-19.92 -9.25)" />
    </g>
    <g
       id="Time_scale-7"
       data-name="Time scale-7">
      <g
         id="g6667">
        <g
           id="g6635">
          <g
             id="g6633">
            <path
               id="path6631"
               d="M947,344.84a175.84,175.84,0,0,0,23.52.31c1.43-.09,1.17-2.3-.27-2.22a167,167,0,0,1-22.92-.29C946,342.58,945.55,344.77,947,344.84Z"
               transform="translate(-19.92 -9.25)" />
          </g>
        </g>
        <g
           id="g6641">
          <g
             id="g6639">
            <path
               id="path6637"
               d="M948.17,355.82c-.13-8.13-.57-16.22-1.45-24.31a1.12,1.12,0,0,0-2.22.27c.89,8.09,1.32,16.18,1.45,24.3C946,357.51,948.18,357.24,948.17,355.82Z"
               transform="translate(-19.92 -9.25)" />
          </g>
        </g>
        <g
           id="g6647">
          <g
             id="g6645">
            <path
               id="path6643"
               d="M959.15,335.63a35.33,35.33,0,0,0,9-.67c1.39-.24,1.12-2.45-.26-2.21a35.18,35.18,0,0,1-8.44.68c-1.41-.06-1.82,2.13-.33,2.2Z"
               transform="translate(-19.92 -9.25)" />
          </g>
        </g>
        <g
           id="g6653">
          <g
             id="g6651">
            <path
               id="path6649"
               d="M955.24,334.22c.22,0-.28-.12-.07,0-.14-.1-.14-.1-.08,0L955,334a1.1,1.1,0,1,0-1.77,1.31,2.46,2.46,0,0,0,1.7,1.15,1.15,1.15,0,0,0,.34-2.27Z"
               transform="translate(-19.92 -9.25)" />
          </g>
        </g>
        <g
           id="g6659">
          <g
             id="g6657">
            <path
               id="path6655"
               d="M960,329.76a50.78,50.78,0,0,0,10.68-2.67c1.34-.47.52-2.47-.82-2.07-1.5.52-10.08,1.18-6.18-1.83,1.52-1.12,5.1-1.49,6.9-2,1.25-.33.64-2.23-.58-2.11s-2.52.3-3.75.49a13.49,13.49,0,0,1-3.48.15c-2.91-1.56-3.37-3-1.44-4.34,1.9-2.19,6-2.71,8.71-3.57,1.34-.4.52-2.47-.81-2.07-4.64,1.4-11.14,1.7-11.3,7.75-.12,6.29,8.69,4.08,12.33,3.88-.2-.7-.39-1.41-.59-2.11-2.51.74-11.66,1.7-9.8,6.33,1.47,3.67,8,2.47,10.72,1.53-.27-.71-.54-1.35-.81-2.07a46.19,46.19,0,0,1-10.14,2.53c-1.29.11-1,2.32.36,2.15Z"
               transform="translate(-19.92 -9.25)" />
          </g>
        </g>
        <g
           id="g6665">
          <g
             id="g6663">
            <path
               id="path6661"
               d="M967.32,307.75c.47-3.16-1.05-7-4.81-6.95a4.09,4.09,0,0,0-3.34,6.25c2,3.44,6.27,2.74,9.31,1.47,3.83-1.52,3.83-6,2.69-9.42-.47-1.35-2.55-.53-2.07.81.5,1.65,1,4.28-.19,5.75-1,1.2-4.18,1.85-5.58,1.64a2.82,2.82,0,0,1-2.29-1.7,1.85,1.85,0,0,1,1.75-2.66c2.23.11,2.6,2.64,2.41,4.41A1.08,1.08,0,1,0,967.32,307.75Z"
               transform="translate(-19.92 -9.25)" />
          </g>
        </g>
      </g>
      <g
         id="g6707">
        <g
           id="g6673"
           class="cls-5">
          <g
             id="g6671">
            <path
               id="path6669"
               d="M943.72,201.79c-.57,7.18-1.06,14.44-1.62,21.63-.11,1.4,2.11,1.46,2.23.05.56-7.18,1-14.44,1.61-21.63C946.05,200.44,943.83,200.38,943.72,201.79Z"
               transform="translate(-19.92 -9.25)" />
          </g>
        </g>
        <g
           id="g6699">
          <g
             id="g6679"
             class="cls-5">
            <g
               id="g6677">
              <path
                 id="path6675"
                 d="M946,203.78c0-1,3.72-.2,3.94-.12a3,3,0,0,1,1.68,3.76c-.75,2.8-3.89,3.83-6.43,4.43a1.11,1.11,0,0,0,.54,2.16c4.33-1,10.14-4.48,7.75-9.81-1-2.25-3.4-3.06-5.7-3.12-1.71-.05-4.17.48-4.08,2.64.18,1.48,2.41,1.54,2.3.06Z"
                 transform="translate(-19.92 -9.25)" />
            </g>
          </g>
          <g
             id="g6685"
             class="cls-5">
            <g
               id="g6683">
              <path
                 id="path6681"
                 d="M960.07,214.91c-.67-2.91-4-3.37-6.26-1.87-2.57,1.71-5,5.14-4.16,8.28A4.39,4.39,0,0,0,956,224c3.53-1.62,3.86-5.69,3.8-9.1l-2.22-.06a10.48,10.48,0,0,0,4.23,8.2c1.16.85,2.33-1.05,1.16-1.9a8.1,8.1,0,0,1-3.17-6.24c0-1.42-2.26-1.48-2.22-.06a13.37,13.37,0,0,1-.5,4.81c-.64,1.69-2.69,3.49-4.44,2.11s-.72-3.44.28-4.82c.69-.95,4.28-4.64,4.94-1.58.41,1.42,2.57,1,2.24-.46Z"
                 transform="translate(-19.92 -9.25)" />
            </g>
          </g>
          <g
             id="g6691"
             class="cls-5">
            <g
               id="g6689">
              <path
                 id="path6687"
                 d="M967.42,211.77a3.4,3.4,0,0,0-5.51,3.64,4.27,4.27,0,0,0,4,2.7c.67,0,3.29-1,3.8-.49,1.88,1.91-3.7,2.42-4.22,2.41a1.12,1.12,0,0,0-.06,2.23,7.64,7.64,0,0,0,5.76-1.71,3,3,0,0,0,.77-4,4,4,0,0,0-4.2-1.08c-1.27.26-2.92,1-3.69-.62-.57-1.05.73-2.5,1.75-1.58S968.44,212.69,967.42,211.77Z"
                 transform="translate(-19.92 -9.25)" />
            </g>
          </g>
          <g
             id="g6697"
             class="cls-5">
            <g
               id="g6695">
              <path
                 id="path6693"
                 d="M974.79,205.66a62.72,62.72,0,0,0-.72,7.47c0,1.64,0,3.42,1,4.78,2.3,3,6.14,1,8.34-.89,1.14-.86-.45-2.54-1.51-1.6-.76.65-2.44,2.09-3.54,1.84-2.07-.5-2.09-2.36-2.05-4a63.57,63.57,0,0,1,.72-7.48C977.2,204.31,975,204.25,974.79,205.66Z"
                 transform="translate(-19.92 -9.25)" />
            </g>
          </g>
        </g>
        <g
           id="g6705"
           class="cls-5">
          <g
             id="g6703">
            <path
               id="path6701"
               d="M969.66,214.06a106.28,106.28,0,0,1,12.71-3.38c1.42-.26.88-2.42-.53-2.16a107.12,107.12,0,0,0-12.71,3.37C967.78,212.3,968.32,214.47,969.66,214.06Z"
               transform="translate(-19.92 -9.25)" />
          </g>
        </g>
      </g>
    </g>
    <g
       id="g6774">
      <g
         id="g6766">
        <g
           id="g6752">
          <g
             id="g6750">
            <path
               id="path6748"
               d="M938.26,422.19c3.86,7.87,7.5,15.81,10.83,23.82a1.13,1.13,0,0,0,2.16,0c3.34-9.2-1.78-18.55.22-27.82.3-1.41-1.86-2-2.15-.6-2,9.28,3.11,18.78-.23,27.83h2.16c-3.49-8.24-7.13-16.33-11.06-24.34-.67-1.33-2.52-.22-1.93,1.11Z"
               transform="translate(-19.92 -9.25)" />
          </g>
        </g>
        <g
           id="g6758">
          <g
             id="g6756">
            <path
               id="path6754"
               d="M956.37,436.37c-.75,2.3-1.49,4.89-.23,7.19a5.86,5.86,0,0,0,4.46,2.9c4,.44,7-3,6.82-6.83-.15-4.23-4.3-7.42-8.38-7.27s-7.42,4-5,7.71c.81,1.19,2.67.08,1.93-1.11-2-3.11,2.22-4.82,4.74-4.23s4.75,2.9,4.53,5.64c-.22,2.45-2.23,4.45-4.75,3.79-3.49-.89-2.67-4.68-1.78-7.2a1.23,1.23,0,0,0-2.37-.59Z"
               transform="translate(-19.92 -9.25)" />
          </g>
        </g>
        <g
           id="g6764">
          <g
             id="g6762">
            <path
               id="path6760"
               d="M969.72,436.37c.22,3.63.45,7.27.67,10.83a1.14,1.14,0,0,0,2.08.59c1.41-1.85,2.74-3.71,4.15-5.56h-1.93L978,448a1.1,1.1,0,0,0,2-.29,46.21,46.21,0,0,0,2.3-12.69c.08-1.41-2.15-1.41-2.22,0a41.86,41.86,0,0,1-2.23,12.09,17.38,17.38,0,0,0,2-.29L976.55,441a1.11,1.11,0,0,0-1.93,0c-1.41,1.85-2.75,3.71-4.16,5.56.67.23,1.41.38,2.08.6-.22-3.64-.44-7.27-.67-10.83,0-1.41-2.22-1.41-2.15,0Z"
               transform="translate(-19.92 -9.25)" />
          </g>
        </g>
      </g>
      <g
         id="g6772">
        <g
           id="g6770">
          <path
             id="path6768"
             d="M937.37,422.56c.52,8.17,1,16.33,1.49,24.49.07,1.41,2.3,1.41,2.22,0-.52-8.16-1-16.32-1.48-24.49C939.52,421.15,937.3,421.08,937.37,422.56Z"
             transform="translate(-19.92 -9.25)" />
        </g>
      </g>
    </g>
    <g
       id="figure_1"
       data-name="figure 1">
      <g
         id="axes_1-2"
         data-name="axes 1">
        <g
           id="patch_2"
           data-name="patch 2">
          <path
             id="path336177"
             class="cls-10"
             d="M1010.21,440.11H1169V202.75H1010.21Z"
             transform="translate(-19.92 -9.25)" />
        </g>
        <g
           class="cls-19"
           clip-path="url(#clip-path-24)"
           id="g364467">
          <path
             id="path336180"
             class="cls-17"
             d="M1049.89,439.08l1,0,1,0,1,.11,1,0,1,.09,1,0,1,0,1,.07,1,.08,1,.06,1,.07,1,.11,1,.05,1,.05,1,0,1,0,1,0,1,.06,1,0,1,0,1,0h1l1,0h1l1,0h1l1,0h1l1,0,1-.07,1-.05,1,0,1-.05,1,0,1-.08,1-.05,1,0,1-.09,1,0,1-.07,1-.13,1-.08,1-.13,1-.06,1-.07,1-.05,1-.1,1-.14,1-.08,1-.1,1,0,1-.06,1-.08,1-.08,1-.09,1,0,1,0,1,0,1,0,1,0,1-.06,1,0,1,0,1,0,1,0h4.85"
             transform="translate(-19.92 -9.25)" />
        </g>
        <g
           class="cls-19"
           clip-path="url(#clip-path-24)"
           id="g364470">
          <path
             id="path336182"
             class="cls-17"
             d="M1049.89,343l1,0,1,0,1,.11,1,0,1,.09,1,0,1,0,1,.07,1,.08,1,.06,1,.07,1,.11,1,.05,1,.05,1,0,1,0,1,0,1,.06,1,0,1,0,1,0h1l1,0h1l1,0h1l1,0h1l1,0,1-.07,1-.05,1,0,1-.05,1,0,1-.08,1,0,1,0,1-.09,1,0,1-.07,1-.13,1-.08,1-.13,1-.05,1-.08,1-.05,1-.1,1-.14,1-.08,1-.09,1,0,1-.06,1-.08,1-.08,1-.09,1,0,1,0,1,0,1,0,1,0,1-.06,1,0,1,0,1,0,1,0h4.85"
             transform="translate(-19.92 -9.25)" />
        </g>
        <g
           class="cls-19"
           clip-path="url(#clip-path-24)"
           id="g364473">
          <path
             id="path336184"
             class="cls-17"
             d="M1042.17,401.92l1,0,1,0,1,.11,1,0,1,.09,1,0,1,0,1,.07,1,.08,1,.06,1,.07,1,.11,1,.05,1,.05,1,0,1,0,1,0,1,.06,1,0,1,0,1,0h1l1,0h1l1,0h1l1,0h1l1,0,1-.07,1-.05,1,0,1-.05,1,0,1-.08,1,0,1-.05,1-.09,1,0,1-.07,1-.13,1-.08,1-.13,1,0,1-.08,1-.05,1-.1,1-.14,1-.08,1-.09,1,0,1-.06,1-.08,1-.08,1-.09,1,0,1,0,1,0,1,0,1,0,1-.06,1,0,1,0,1,0,1,0h6.17l1,0,1,0,1,0,1,0,1,0,1,0,1,.07,1,.09,2,0"
             transform="translate(-19.92 -9.25)" />
        </g>
        <g
           class="cls-19"
           clip-path="url(#clip-path-24)"
           id="g364476">
          <path
             id="path336186"
             class="cls-17"
             d="M1042.17,398.88l1,0,1,0,1,.12,1,0,1,.09,1,0,1,.05,1,.06,1,.08,1,.07,1,.06,1,.11,1,.05,1,0,1,0,1,0,1,0,1,.06,1,0,1,0,1,0h1l1,0h2.06l1,0,1,0,1,0,1,0,1-.07,1-.05,1,0,1,0,1,0,1-.08,1,0,1-.05,1-.09,1,0,1-.07,1-.13,1-.08,1-.13,1-.05,1-.08,1-.05,1-.1,1-.13,1-.09,1-.09,1,0,1-.06,1-.08,1-.08,1-.09,1,0,1,0,1,0,1,0,1,0,1-.06,1,0,1,0,1,0,1,0h6.17l1,0,1,0,1,0,1,0,1,0,1,0,1,.07,1,.09,2,0"
             transform="translate(-19.92 -9.25)" />
        </g>
        <g
           class="cls-19"
           clip-path="url(#clip-path-24)"
           id="g364479">
          <path
             id="path336188"
             class="cls-17"
             d="M1049.89,429.12l1,0,1,0,1,.12,1,0,1,.09,1,.05,1,0,1,.06,1,.09,1,.06,1,.07,1,.1,1,0,1,.05,1,0,1,0,1,0,1,.07,1,0,1,0,1,0,1,0h3.09l1,0,1,0,1,0,1,0,1-.07,1,0,1-.05,1,0,1,0,1-.08,1,0,1-.05,1-.08,1-.05,1-.06,1-.13,1-.09,1-.13,1-.05,1-.07,1-.06,1-.09,1-.14,1-.08,1-.1,1,0,1-.06,1-.08,1-.08,1-.09,1,0,1,0,1,0,1,0,1,0,1-.06,1,0,1,0,1,0,1,0h6.17l1,0,1.51,0"
             transform="translate(-19.92 -9.25)" />
        </g>
        <g
           class="cls-19"
           clip-path="url(#clip-path-24)"
           id="g364482">
          <path
             id="path336190"
             class="cls-17"
             d="M1049.89,364.53l1,0,1,.05,1,.11,1,0,1,.08,1,.05,1,0,1,.07,1,.08,1,.06,1,.07,1,.1,1,.06,1,.05,1,0,1,0,1,0,1,.06,1,0,1,0,1,0h5.15l1,0h1l1,0,1-.07,1,0,1-.05,1-.05,1,0,1-.08,1-.05,1,0,1-.08,1,0,1-.07,1-.13,1-.08,1-.14,1-.05,1-.07,1-.06,1-.09,1-.14,1-.08,1-.1,1,0,1-.06,1-.08,1-.07,1-.09,1,0,1,0,1,0,1,0,1,0,1-.06,1,0,1,0,1,0h5.88"
             transform="translate(-19.92 -9.25)" />
        </g>
        <g
           class="cls-19"
           clip-path="url(#clip-path-24)"
           id="g364485">
          <path
             id="path336192"
             class="cls-17"
             d="M1049.89,363.86l1,0,1,0,1,.11,1,0,1,.09,1,0,1,0,1,.06,1,.08,1,.07,1,.06,1,.11,1,.05,1,.05,1,0,1,0,1,0,1,.06,1,0,1,0,1,0h1l1,0h2.06l1,0,1,0,1,0,1,0,1-.07,1-.05,1,0,1-.05,1,0,1-.08,1,0,1-.05,1-.09,1,0,1-.07,1-.13,1-.08,1-.13,1,0,1-.08,1-.05,1-.1,1-.13,1-.09,1-.09,1,0,1-.06,1-.08,1-.08,1-.09,1,0,1,0,1,0,1,0,1,0,1-.06,1,0,1,0,1,0,1,0h4.85"
             transform="translate(-19.92 -9.25)" />
        </g>
        <g
           class="cls-19"
           clip-path="url(#clip-path-24)"
           id="g364488">
          <path
             id="path336194"
             class="cls-17"
             d="M1042.17,382.64l1,0,1,0,1,.11,1,0,1,.09,1,0,1,0,1,.07,1,.08,1,.06,1,.07,1,.11,1,.05,1,0,1,0,1,0,1,0,1,.06,1,0,1,0,1,0h1l1,0h1l1,0h1l1,0h1l1,0,1-.07,1-.05,1,0,1-.05,1,0,1-.08,1,0,1-.05,1-.09,1,0,1-.07,1-.13,1-.08,1-.13,1-.05,1-.08,1-.05,1-.1,1-.14,1-.08,1-.09,1,0,1-.06,1-.08,1-.08,1-.09,1,0,1,0,1,0,1,0,1,0,1-.06,1,0,1,0,1,0,1,0h6.17l1,0,1,0,1,0,1,0,1,0,1,0,1,.07,1,.09,2,0"
             transform="translate(-19.92 -9.25)" />
        </g>
        <g
           class="cls-19"
           clip-path="url(#clip-path-24)"
           id="g364491">
          <path
             id="path336196"
             class="cls-17"
             d="M1049.89,410.63l1,0,1,0,1,.11,1,0,1,.09,1,0,1,0,1,.07,1,.08,1,.06,1,.07,1,.11,1,.05,1,0,1,0,1,0,1,0,1,.06,1,0,1,0,1,0h1l1,0h1l1,0h1l1,0,1,0,1,0,1-.07,1-.05,1,0,1,0,1,0,1-.08,1,0,1-.05,1-.09,1,0,1-.07,1-.13,1-.08,1-.13,1-.05,1-.08,1-.05,1-.1,1-.13,1-.09,1-.09,1,0,1-.06,1-.08,1-.08,1-.09,1,0,1,0,1,0,1,0,1,0,1-.06,1,0,1,0,1,0,1,0h6.17l1,0,1.51,0"
             transform="translate(-19.92 -9.25)" />
        </g>
        <g
           class="cls-19"
           clip-path="url(#clip-path-24)"
           id="g364494">
          <path
             id="path336198"
             class="cls-17"
             d="M1042.17,381.86l1,0,1,.05,1,.11,1,0,1,.08,1,.05,1,0,1,.07,1,.08,1,.06,1,.07,1,.1,1,.06,1,.05,1,0,1,0,1,0,1,.06,1,0,1,0,1,0h5.14l1,0h1l1,0,1-.07,1,0,1-.05,1-.05,1,0,1-.08,1,0,1-.05,1-.08,1,0,1-.07,1-.13,1-.08,1-.13,1-.06,1-.07,1-.06,1-.09,1-.14,1-.08,1-.1,1,0,1-.06,1-.08,1-.07,1-.09,1,0,1,0,1,0,1,0,1,0,1-.05,1-.05,1,0,1,0h5.14l1,0h1l1,0,1,0,1,0,1,0,1,0h1l1,.08,1,.09,2,0"
             transform="translate(-19.92 -9.25)" />
        </g>
        <g
           id="patch_3"
           data-name="patch 3">
          <g
             class="cls-19"
             clip-path="url(#clip-path-24)"
             id="g364497">
            <path
               id="path336200"
               class="cls-20"
               d="M1080,202.75v47.47h0l-1.41,9.38-1.49,8.53-1.75,8.52-1.81,7.67-1.83,6.82-2.07,6.82-2,6-2.25,6-2.51,6-2.79,6-2.64,5.11-2.89,5.12-1.55,2.56m42.45-131.87v47.47h0l1.41,9.38,1.5,8.53,1.74,8.52,1.81,7.67,1.83,6.82,2.07,6.82,2,6,2.25,6,2.51,6,2.79,6,2.64,5.11,2.89,5.12,1.55,2.56h0"
               transform="translate(-19.92 -9.25)" />
          </g>
        </g>
        <g
           id="PolyCollection_1"
           data-name="PolyCollection 1">
          <g
             class="cls-19"
             clip-path="url(#clip-path-24)"
             id="g364501">
            <path
               id="path336203"
               class="cls-21"
               d="M1095.38,202.75H1080v47.47h0l-.12.86-.12.85-.12.85-.13.85-.12.86-.13.85-.13.85-.13.85-.13.86-.14.85-.14.85-.14.85-.14.86-.14.85-.15.85-.15.85-.15.86-.15.85-.16.85-.15.85-.16.86-.17.85-.16.85-.17.85-.17.86-.17.85-.18.85-.18.85-.18.86-.18.85-.19.85-.19.85-.19.86-.19.85-.2.85-.2.85-.21.86-.2.85-.21.85-.22.85-.21.85-.22.86-.23.85-.23.85-.23.85-.23.86-.24.85-.24.85-.24.85-.25.86-.26.85-.25.85-.26.85-.27.86-.26.85-.28.85-.27.85-.28.86-.29.85-.29.85-.29.85-.3.86-.31.85-.3.85-.32.85-.31.86-.32.85-.33.85-.33.85-.34.86-.34.85-.35.85-.35.85-.36.86-.37.85-.36.85-.38.85-.38.86-.39.85-.39.85-.4.85-.4.85-.41.86-.42.85-.42.85-.43.85-.44.86-.44.85-.45.85-.46.85-.46.86-.47.85-.48.85-.49.85-.49.86-.5.85-.51.85-.51.85-.53.86h69.47l-.52-.86-.52-.85-.51-.85-.5-.85-.49-.86-.49-.85-.47-.85-.48-.85-.46-.86-.46-.85-.45-.85-.44-.85-.44-.86-.43-.85-.42-.85-.42-.85-.41-.86-.4-.85-.4-.85-.39-.85-.39-.85-.38-.86-.37-.85-.37-.85-.37-.85-.35-.86-.36-.85-.35-.85-.34-.85-.33-.86-.34-.85-.32-.85-.33-.85-.31-.86-.32-.85-.3-.85-.31-.85-.29-.86-.3-.85-.29-.85-.28-.85-.28-.86-.28-.85-.27-.85-.27-.85-.27-.86-.26-.85-.25-.85-.26-.85-.24-.86-.25-.85-.24-.85-.24-.85-.23-.86-.23-.85-.23-.85-.22-.85-.22-.86-.22-.85-.21-.85-.22-.85-.2-.85-.21-.86-.2-.85-.2-.85-.19-.85-.19-.86-.19-.85-.19-.85-.18-.85-.18-.86-.18-.85-.18-.85-.17-.85-.17-.86-.17-.85-.16-.85-.16-.85-.16-.86-.16-.85-.16-.85-.15-.85-.15-.86-.15-.85-.15-.85-.14-.85-.14-.86-.14-.85-.14-.85-.13-.85-.14-.86-.13-.85-.13-.85-.13-.85-.12-.86-.13-.85-.12-.85-.12-.85-.12-.86h0Z"
               transform="translate(-19.92 -9.25)" />
          </g>
        </g>
        <g
           id="patch_4"
           data-name="patch 4">
          <g
             class="cls-19"
             clip-path="url(#clip-path-24)"
             id="g364505">
            <path
               id="path336206"
               class="cls-22"
               d="M1017.43,334.62v42.19h7.72v31.65h-7.72v31.65m30.87-105.49v42.19h-7.72v31.65h7.72v31.65"
               transform="translate(-19.92 -9.25)" />
          </g>
        </g>
        <g
           id="PolyCollection_2"
           data-name="PolyCollection 2">
          <g
             class="cls-19"
             clip-path="url(#clip-path-24)"
             id="g364509">
            <path
               id="path336209"
               class="cls-23"
               d="M1048.3,334.62h-30.87v42.19h7.72v31.65h-7.72v31.65h30.87V408.46h-7.72V376.81h7.72Z"
               transform="translate(-19.92 -9.25)" />
          </g>
        </g>
        <g
           id="patch_5"
           data-name="patch 5">
          <g
             class="cls-19"
             clip-path="url(#clip-path-24)"
             id="g364513">
            <path
               id="path336212"
               class="cls-24"
               d="M1123.17,334.62v42.19H1127v52.75h-3.86v10.55m38.59-105.49v42.19h-3.86v52.75h3.86v10.55"
               transform="translate(-19.92 -9.25)" />
          </g>
        </g>
        <g
           id="PolyCollection_3"
           data-name="PolyCollection 3">
          <g
             class="cls-19"
             clip-path="url(#clip-path-24)"
             id="g364517">
            <path
               id="path336215"
               class="cls-25"
               d="M1161.76,334.62h-38.59v42.19H1127v52.75h-3.86v10.55h38.59V429.56h-3.86V376.81h3.86Z"
               transform="translate(-19.92 -9.25)" />
          </g>
        </g>
        <g
           id="patch_6"
           data-name="patch 6">
          <g
             class="cls-19"
             clip-path="url(#clip-path-24)"
             id="g364521">
            <path
               id="path336521"
               class="cls-26"
               d="M1050.88,334.62l-.26,0,.89.12"
               transform="translate(-19.92 -9.25)" />
          </g>
          <g
             class="cls-19"
             clip-path="url(#clip-path-24)"
             id="g364524">
            <path
               id="path336523"
               class="cls-27"
               d="M1050.88,334.62l-.26,0,.89.12"
               transform="translate(-19.92 -9.25)" />
          </g>
          <g
             class="cls-28"
             clip-path="url(#clip-path-42)"
             id="g364527">
            <path
               id="path336525"
               class="cls-29"
               d="M1051,337l-.9-.55-.91-.56-.87-.63-1.34-.8,1,0,.94-.48.94-.49,1.38-.71-.67.75-.06,1.17-.06,2.33Z"
               transform="translate(-19.92 -9.25)" />
          </g>
          <g
             class="cls-28"
             clip-path="url(#clip-path-42)"
             id="g364530">
            <path
               id="path336527"
               class="cls-30"
               d="M1051,337l-.9-.55-.91-.56-.87-.63-1.34-.8,1,0,.94-.48.94-.49,1.38-.71-.67.75-.06,1.17-.06,2.33Z"
               transform="translate(-19.92 -9.25)" />
          </g>
          <g
             id="patch_7"
             data-name="patch 7">
            <g
               class="cls-19"
               clip-path="url(#clip-path-24)"
               id="g364533">
              <path
                 id="path336529"
                 class="cls-26"
                 d="M1122.4,334.62l.38,0-.76-.11"
                 transform="translate(-19.92 -9.25)" />
            </g>
            <g
               class="cls-19"
               clip-path="url(#clip-path-24)"
               id="g364536">
              <path
                 id="path336531"
                 class="cls-27"
                 d="M1122.4,334.62l.38,0-.76-.11"
                 transform="translate(-19.92 -9.25)" />
            </g>
            <g
               class="cls-31"
               clip-path="url(#clip-path-46)"
               id="g364539">
              <path
                 id="path336533"
                 class="cls-29"
                 d="M1122.53,332.28l.91.56.9.56.88.62,1.34.8-1,0-.93.49-.94.48-1.38.71.67-.75.06-1.16.06-2.34Z"
                 transform="translate(-19.92 -9.25)" />
            </g>
            <g
               class="cls-31"
               clip-path="url(#clip-path-46)"
               id="g364542">
              <path
                 id="path336535"
                 class="cls-30"
                 d="M1122.53,332.28l.91.56.9.56.88.62,1.34.8-1,0-.93.49-.94.48-1.38.71.67-.75.06-1.16.06-2.34Z"
                 transform="translate(-19.92 -9.25)" />
            </g>
            <g
               class="cls-19"
               clip-path="url(#clip-path-24)"
               id="g364545">
              <path
                 id="path336537"
                 class="cls-32"
                 d="M1122.61,439.08l-2.06-1.17v2.34Z"
                 transform="translate(-19.92 -9.25)" />
            </g>
            <g
               class="cls-19"
               clip-path="url(#clip-path-24)"
               id="g364548">
              <path
                 id="path336539"
                 class="cls-32"
                 d="M1122.61,343l-2.06-1.17v2.34Z"
                 transform="translate(-19.92 -9.25)" />
            </g>
            <g
               class="cls-19"
               clip-path="url(#clip-path-24)"
               id="g364551">
              <path
                 id="path336541"
                 class="cls-32"
                 d="M1126.47,401.92l-2.06-1.17v2.34Z"
                 transform="translate(-19.92 -9.25)" />
            </g>
            <g
               class="cls-19"
               clip-path="url(#clip-path-24)"
               id="g364554">
              <path
                 id="path336543"
                 class="cls-32"
                 d="M1126.47,398.88l-2.06-1.17v2.34Z"
                 transform="translate(-19.92 -9.25)" />
            </g>
            <g
               class="cls-19"
               clip-path="url(#clip-path-24)"
               id="g364557">
              <path
                 id="path336545"
                 class="cls-32"
                 d="M1126.47,429.12l-2.06-1.16v2.33Z"
                 transform="translate(-19.92 -9.25)" />
            </g>
            <g
               class="cls-19"
               clip-path="url(#clip-path-24)"
               id="g364560">
              <path
                 id="path336547"
                 class="cls-32"
                 d="M1122.61,364.53l-2.06-1.17v2.33Z"
                 transform="translate(-19.92 -9.25)" />
            </g>
            <g
               class="cls-19"
               clip-path="url(#clip-path-24)"
               id="g364563">
              <path
                 id="path336549"
                 class="cls-32"
                 d="M1122.61,363.86l-2.06-1.17V365Z"
                 transform="translate(-19.92 -9.25)" />
            </g>
            <g
               class="cls-19"
               clip-path="url(#clip-path-24)"
               id="g364566">
              <path
                 id="path336551"
                 class="cls-32"
                 d="M1126.47,382.64l-2.06-1.17v2.34Z"
                 transform="translate(-19.92 -9.25)" />
            </g>
            <g
               class="cls-19"
               clip-path="url(#clip-path-24)"
               id="g364569">
              <path
                 id="path336553"
                 class="cls-32"
                 d="M1126.47,410.63l-2.06-1.17v2.34Z"
                 transform="translate(-19.92 -9.25)" />
            </g>
            <g
               class="cls-19"
               clip-path="url(#clip-path-24)"
               id="g364572">
              <path
                 id="path336555"
                 class="cls-32"
                 d="M1126.47,381.86l-2.06-1.17V383Z"
                 transform="translate(-19.92 -9.25)" />
            </g>
          </g>
        </g>
      </g>
    </g>
    <g
       id="g138522">
      <g
         id="g138520">
        <g
           id="g138425">
          <path
             id="path138323"
             d="M1119.61,449.21c-1.32,1.31-2.94,3.28-1.34,5a5.8,5.8,0,0,0,4.39,1.66,6.67,6.67,0,0,1,1-1.54,5.12,5.12,0,0,1-3.78-.75c-1.58-1.18.06-2.78,1.1-3.65s3-1.84,4.06-.48c.72.87.53,2.2.31,3.28a9.29,9.29,0,0,1,1.56-1c.1-1.6-.22-3.22-1.72-4-2-1.05-4.13,0-5.56,1.42Z"
             transform="translate(-19.92 -9.25)" />
          <path
             id="path138325"
             class="cls-10"
             d="M1120.91,450c-1,.86-2.68,2.47-1.1,3.65a4.87,4.87,0,0,0,3.77.74,8.87,8.87,0,0,1,1.7-1.6c.17-1.07.36-2.4-.32-3.27-1.1-1.36-3-.39-4,.48Z"
             transform="translate(-19.92 -9.25)" />
          <path
             id="path138327"
             d="M1122.36,456.61a.61.61,0,0,0,.27.79l.4-1.53a.78.78,0,0,0-.37,0,3.3,3.3,0,0,0-.3.71Z"
             transform="translate(-19.92 -9.25)" />
          <path
             id="path138329"
             d="M1122.63,457.4c-1.41,6.11-.16,12,6.28,14.79,6.19,2.65,14.28,3,20.09-.7,4.35-2.78,8.55-9,5.71-14.17a9.76,9.76,0,0,0-2.47-2.78,3.31,3.31,0,0,1-.74.32.59.59,0,0,1-.51,0l-.34.44a14.42,14.42,0,0,1,1.43,1.12c3.08,2.82,2.25,7.16.05,10.23-4.41,6.29-12.93,7.07-19.84,5.15-3.6-1-7.27-2.76-8.43-6.6-1-3.11-.23-6.53.73-9.51v-.11l-.21,0a4.73,4.73,0,0,0-.65,1.36.71.71,0,0,1-1.11.45Z"
             transform="translate(-19.92 -9.25)" />
          <path
             id="path138331"
             d="M1122.66,455.9a.78.78,0,0,0,.37,0l.19-.61a.73.73,0,0,1,1.39.09,3.43,3.43,0,0,1,.55-.64h0a.6.6,0,0,0-.79-.46c-.26,0-.48.12-.74.16A5.71,5.71,0,0,0,1122.66,455.9Z"
             transform="translate(-19.92 -9.25)" />
          <path
             id="path138333"
             d="M1122.63,457.4a.74.74,0,0,0,1.1-.35,9.07,9.07,0,0,1,.65-1.36,9.56,9.56,0,0,1-1.35.18Z"
             transform="translate(-19.92 -9.25)" />
          <path
             id="path138335"
             d="M1123.22,455.26l-.19.61a9.56,9.56,0,0,0,1.35-.18c.06-.1.17-.24.23-.34A.73.73,0,0,0,1123.22,455.26Z"
             transform="translate(-19.92 -9.25)" />
          <path
             id="path138337"
             d="M1123.64,454.36a3.13,3.13,0,0,0,.73-.16.61.61,0,0,1,.8.46,6.2,6.2,0,0,1,.87-.83.65.65,0,0,1-.83-.72c0-.15.07-.25.08-.41a11.75,11.75,0,0,0-1.65,1.66Z"
             transform="translate(-19.92 -9.25)" />
          <path
             id="path138339"
             class="cls-10"
             d="M1124.58,455.76c-1,3-1.73,6.4-.73,9.51,1.22,3.79,4.88,5.62,8.44,6.61,6.91,1.86,15.37,1.13,19.84-5.16,2.14-3.07,3-7.46-.06-10.23a14.42,14.42,0,0,0-1.43-1.12,22.89,22.89,0,0,0-7.44-3.39c-4.37-1.15-12.2-1.52-16.62,1.57a.65.65,0,0,1-.54.38,6.91,6.91,0,0,0-.88.83h0a.77.77,0,0,1-.52.95h0l-.06.05Zm22.87,4.53a1.33,1.33,0,0,1-.82-1.7v0a1.06,1.06,0,0,1,.55-.59,1.16,1.16,0,0,1,.92.11,1.33,1.33,0,0,1,.15,1.92A.67.67,0,0,1,1147.45,460.29Zm-1.09,6.91.21-3.5a.75.75,0,0,1,.77-.68,12.23,12.23,0,0,1,2.59.68.76.76,0,0,1,0,1.39,3.14,3.14,0,0,1-2.7,2.89.8.8,0,0,1-.89-.78Zm4.61-7a1,1,0,0,1,.91-1.39.92.92,0,0,1,.8.51,1,1,0,0,1-.06,1,.67.67,0,0,1-.8.31A.84.84,0,0,1,1151,460.2Z"
             transform="translate(-19.92 -9.25)" />
          <path
             id="path138341"
             d="M1124.43,455.7l.21,0,0-.26A1.2,1.2,0,0,0,1124.43,455.7Z"
             transform="translate(-19.92 -9.25)" />
          <path
             id="path138343"
             d="M1124.66,455.4c0,.1,0,.16,0,.26h0a.76.76,0,0,0,.52-1A3.59,3.59,0,0,0,1124.66,455.4Z"
             transform="translate(-19.92 -9.25)" />
          <path
             id="path138345"
             d="M1125.21,453.16c-.09.56.41.8.83.72a4.45,4.45,0,0,1,.54-.38.26.26,0,0,0,.06-.2,13.1,13.1,0,0,0,.2-1.49,10.25,10.25,0,0,0-1.56,1c0,.11-.07.26-.07.36Z"
             transform="translate(-19.92 -9.25)" />
          <path
             id="path138347"
             d="M1126.58,453.5c-.16.15-.38.24-.54.38A.81.81,0,0,0,1126.58,453.5Z"
             transform="translate(-19.92 -9.25)" />
          <path
             id="path138349"
             d="M1126.65,453.25a.88.88,0,0,1-.07.2c4.43-3.09,12.26-2.72,16.63-1.58a21.67,21.67,0,0,1,7.44,3.4l.34-.44a.85.85,0,0,1-.31-.85.79.79,0,0,1-.48-.65v-.05l-.35-.18a.67.67,0,0,1-1-.31c-.05-.11-.1-.16-.14-.27l-.75-.36a26.12,26.12,0,0,0-10.39-2.48,22.68,22.68,0,0,0-10.88,2.13,4.36,4.36,0,0,1-.08,1.44Z"
             transform="translate(-19.92 -9.25)" />
          <path
             id="path138351"
             d="M1145.1,433.44c-2.68.82-4.44,5.06-3.56,7.59.61,1.84,2.13,3.28,3.22,4.79a42,42,0,0,1,4,6.7,11.79,11.79,0,0,1,1.1.59.64.64,0,0,0,.33-.29c0-.26,0-.52-.06-.78a48.56,48.56,0,0,0-4.37-7.19c-1-1.41-2.56-2.79-2.92-4.57a5.28,5.28,0,0,1,1.52-4.61c4-3.73,5.49,6.59,5.57,8.61.15,2.59,0,5.11.16,7.7,0,.06,0,.06,0,.11a.62.62,0,0,1,0,.67c0,.15,0,.36,0,.52a1.35,1.35,0,0,1,.35.22.7.7,0,0,1-.28-.58c.07-2.73.08-5.47.14-8.26a52.79,52.79,0,0,1,.12-6.29c-.72-2.53-2.44-5.78-5.38-4.93Z"
             transform="translate(-19.92 -9.25)" />
          <path
             id="path138353"
             class="cls-10"
             d="M1144.45,435.68a5.26,5.26,0,0,0-1.52,4.61c.36,1.77,1.87,3.16,2.93,4.56a46.52,46.52,0,0,1,4.36,7.19c-.1-2.59,0-5.11-.15-7.7-.13-2.08-1.57-12.39-5.62-8.66Z"
             transform="translate(-19.92 -9.25)" />
          <path
             id="path138355"
             d="M1148.05,458.88h0c0,.11,0,.16-.06.21v.05a.67.67,0,0,1-.7.42.71.71,0,0,1-.68-.76.48.48,0,0,1,.07-.26v0a1.31,1.31,0,0,0,.82,1.71.7.7,0,0,0,.85-.31c.4-.6.6-1.46-.14-1.92a1.15,1.15,0,0,0-.93-.11.78.78,0,0,0-.55.59.73.73,0,0,1,.9-.41A.88.88,0,0,1,1148.05,458.88Z"
             transform="translate(-19.92 -9.25)" />
          <path
             id="path138357"
             d="M1147.22,459a.25.25,0,0,0,0,.16h0c.22-.09.42-.13.64-.22h0s0,.05.1.05h0v-.05h0v-.1a.86.86,0,0,0-.48-.75.74.74,0,0,0-.9.41c0,.05-.06.15-.07.25a.72.72,0,0,0,.68.77.76.76,0,0,0,.7-.43h0c-.18.35-.6.43-.73.06,0,0-.1.05-.16,0s.06-.09.12-.14A0,0,0,0,0,1147.22,459Zm0,0h0v0Z"
             transform="translate(-19.92 -9.25)" />
          <path
             id="path138359"
             d="M1146.57,463.7l-.21,3.5a.77.77,0,0,0,.89.78,3.1,3.1,0,0,0,2.7-2.89.55.55,0,0,1-.51,0,7,7,0,0,0-.91-.31v.15a1.69,1.69,0,0,1-.65,1.26l-.07,1.13c-.29-.28-.59-.5-.88-.78a1.92,1.92,0,0,0,.95-.35l.1-1.55-.72-.14.77-.68,0,.82c.2.07.35.08.56.14a.73.73,0,0,1,1.43.24v.1a.76.76,0,0,0,0-1.39,9.26,9.26,0,0,0-2.59-.68A.72.72,0,0,0,1146.57,463.7Z"
             transform="translate(-19.92 -9.25)" />
          <path
             id="path138361"
             d="M1147.17,459a.26.26,0,0,1-.12.14c.06,0,.11,0,.16,0h0a.17.17,0,0,1,0-.15S1147.22,459,1147.17,459Z"
             transform="translate(-19.92 -9.25)" />
          <path
             id="path138363"
             d="M1147.22,458.94v.1h0Z"
             transform="translate(-19.92 -9.25)" />
          <path
             id="path138365"
             d="M1147.9,458.93c-.22.09-.42.13-.64.22.14.37.55.29.73-.06h0v0h0V459h0c0-.05,0-.05-.1-.05Z"
             transform="translate(-19.92 -9.25)" />
          <path
             id="path138367"
             d="M1146.92,466.51c.29.28.59.5.88.78l.07-1.13a1.92,1.92,0,0,1-.95.35Z"
             transform="translate(-19.92 -9.25)" />
          <path
             id="path138369"
             d="M1148,463.79l-.77.68a3.07,3.07,0,0,1,.72.14Z"
             transform="translate(-19.92 -9.25)" />
          <path
             id="path138371"
             d="M1147.9,458.93Z"
             transform="translate(-19.92 -9.25)" />
          <path
             id="path138373"
             d="M1148,459Z"
             transform="translate(-19.92 -9.25)" />
          <path
             id="path138375"
             d="M1148,459Z"
             transform="translate(-19.92 -9.25)" />
          <path
             id="path138377"
             d="M1148,459.09h0a.34.34,0,0,0,.06-.21v.06h0V459l-.06.1Z"
             transform="translate(-19.92 -9.25)" />
          <path
             id="path138379"
             d="M1148,459.09Z"
             transform="translate(-19.92 -9.25)" />
          <path
             id="path138381"
             d="M1148,459.09h0v0Z"
             transform="translate(-19.92 -9.25)" />
          <path
             id="path138383"
             d="M1148,459Z"
             transform="translate(-19.92 -9.25)" />
          <path
             id="path138385"
             d="M1148,459Z"
             transform="translate(-19.92 -9.25)" />
          <path
             id="path138387"
             d="M1148,459Z"
             transform="translate(-19.92 -9.25)" />
          <path
             id="path138389"
             d="M1148.8,452.52c0,.11.09.16.14.27a.71.71,0,0,0,1,.32A11.79,11.79,0,0,0,1148.8,452.52Z"
             transform="translate(-19.92 -9.25)" />
          <path
             id="path138391"
             d="M1150.54,438.37a63,63,0,0,0-.13,6.3c-.06,2.73-.07,5.47-.14,8.25a.72.72,0,0,0,.28.59s.1.06.1.06a.31.31,0,0,0,.2.06c.06-.05.17-.15.27-.14a2.1,2.1,0,0,0,.48-.23c-.29-4.61.25-9.33-.87-13.84a2.79,2.79,0,0,0-.19-1.05Z"
             transform="translate(-19.92 -9.25)" />
          <path
             id="path138393"
             d="M1150.78,436.94a6.57,6.57,0,0,0-.24,1.43c.13.37.21.74.29,1.05,1.13,4.51.58,9.23.87,13.85h0a.48.48,0,0,0,.07-.26l.11-9.6c0-1.34,0-2.68.1-4.07,0-1,.06-2.84.83-3.57,1-.3,2.06-.65,3.06-.95.33.38.68.71,1,1.09,1.59,2.73.24,7.2-.75,9.93-.82,2.32-2,6.18-4.43,7.42v.21a.51.51,0,0,1-.3.55c.3.17.55.4.8.57,3.19-1.62,4.54-6,5.56-9.12s2.39-8.69-.45-11.39C1154.71,431.65,1151.47,434,1150.78,436.94Z"
             transform="translate(-19.92 -9.25)" />
          <path
             id="path138395"
             d="M1150,464.94a.73.73,0,0,0-1.43-.24,6.52,6.52,0,0,1,.91.31.83.83,0,0,0,.51,0Z"
             transform="translate(-19.92 -9.25)" />
          <path
             id="path138397"
             d="M1150.22,452.14c0-.05,0-.05,0-.1,0,.26,0,.52.06.78A.64.64,0,0,0,1150.22,452.14Z"
             transform="translate(-19.92 -9.25)" />
          <path
             id="path138399"
             d="M1150.25,453.28v.05a.79.79,0,0,0,.48.65c0-.1.12-.25.17-.35s-.1-.06-.2-.11a.24.24,0,0,1-.1-.06Z"
             transform="translate(-19.92 -9.25)" />
          <path
             id="path138401"
             d="M1150.7,453.57s-.1-.06-.1-.06S1150.65,453.57,1150.7,453.57Z"
             transform="translate(-19.92 -9.25)" />
          <path
             id="path138403"
             d="M1150.73,454a.7.7,0,0,0,.31.85.46.46,0,0,0,.51,0,4.35,4.35,0,0,0,.74-.32,6.72,6.72,0,0,0-.79-.56A.81.81,0,0,1,1150.73,454Z"
             transform="translate(-19.92 -9.25)" />
          <path
             id="path138405"
             d="M1150.9,453.68a.48.48,0,0,0-.18.35.73.73,0,0,0,.73,0A5.27,5.27,0,0,1,1150.9,453.68Z"
             transform="translate(-19.92 -9.25)" />
          <path
             id="path138407"
             d="M1150.7,453.57a.71.71,0,0,0,.2.11,0,0,0,0,1,0,0A.47.47,0,0,1,1150.7,453.57Z"
             transform="translate(-19.92 -9.25)" />
          <path
             id="path138409"
             d="M1151,453.64h0a2.16,2.16,0,0,0,.5.39.56.56,0,0,0,.29-.55v-.16a.77.77,0,0,1-.8.32Z"
             transform="translate(-19.92 -9.25)" />
          <path
             id="path138411"
             d="M1151,453.64a.77.77,0,0,0,.8-.32h0c-.16.1-.32.14-.48.23A.3.3,0,0,0,1151,453.64Z"
             transform="translate(-19.92 -9.25)" />
          <path
             id="path138413"
             class="cls-10"
             d="M1152.81,435.77c-.77.73-.78,2.59-.83,3.57-.09,1.33-.06,2.68-.1,4.07l-.11,9.6c0,.11,0,.21-.07.26,2.45-1.25,3.56-5.11,4.43-7.43,1-2.73,2.34-7.19.75-9.93-.33-.38-.68-.71-1-1.09C1154.86,435.17,1153.86,435.47,1152.81,435.77Z"
             transform="translate(-19.92 -9.25)" />
          <path
             id="path138415"
             d="M1151.88,458.81a1,1,0,0,0-.91,1.39.74.74,0,0,0,.86.36.26.26,0,0,1-.2-.12.73.73,0,0,1-.32-.69.63.63,0,0,1,.12-.3v-.05c0,.1-.06.15-.06.25.05-.1.2,0,.45.18.45.29.61.2.48-.33a.74.74,0,0,1-.31,1s-.11,0-.16,0a.65.65,0,0,0,.79-.32,1.05,1.05,0,0,0,.06-1,1.16,1.16,0,0,0-.8-.41Z"
             transform="translate(-19.92 -9.25)" />
          <path
             id="path138417"
             d="M1151.3,459.8a.68.68,0,0,0,.32.69c.05.06.16.07.2.12s.11-.05.16,0a.7.7,0,0,0,.32-1c.12.52,0,.61-.49.33q-.36-.33-.45-.18h0c0-.06,0,0-.06,0Z"
             transform="translate(-19.92 -9.25)" />
          <path
             id="path138419"
             d="M1151.3,459.8h0v-.1h0c0-.1.06-.15.07-.25v.05C1151.37,459.6,1151.31,459.7,1151.3,459.8Z"
             transform="translate(-19.92 -9.25)" />
          <path
             id="path138421"
             d="M1151.7,453.27Z"
             transform="translate(-19.92 -9.25)" />
          <path
             id="path138423"
             d="M1151.31,459.75v0Z"
             transform="translate(-19.92 -9.25)" />
        </g>
        <g
           id="g138517">
          <path
             id="path138427"
             class="cls-33"
             d="M1125.16,454.71l-.55.64a2,2,0,0,0-.23.34,4.73,4.73,0,0,0-.65,1.36.74.74,0,0,1-1.1.35.64.64,0,0,1-.27-.79,3.3,3.3,0,0,1,.3-.71,6.67,6.67,0,0,1,1-1.54,8.26,8.26,0,0,1,1.69-1.6,9.29,9.29,0,0,1,1.56-1,23,23,0,0,1,10.88-2.14,26.49,26.49,0,0,1,10.38,2.49l.76.36a9.72,9.72,0,0,1,1.1.58l.35.18a1.4,1.4,0,0,1,.35.23.17.17,0,0,1,.1,0c0,.06.1.06.2.12s.34.23.54.34.55.4.8.57a8.43,8.43,0,0,1,2.46,2.78c2.84,5.23-1.31,11.44-5.71,14.17-5.85,3.67-13.89,3.34-20.09.7-6.49-2.77-7.73-8.74-6.28-14.8l.4-1.52.19-.61a.73.73,0,0,1,1.39.08c0,.11,0,.16,0,.26v.1c-1,3-1.73,6.41-.73,9.52,1.22,3.79,4.88,5.61,8.43,6.6,6.92,1.87,15.38,1.14,19.84-5.15,2.15-3.07,3-7.47,0-10.23a14.42,14.42,0,0,0-1.43-1.12,23.22,23.22,0,0,0-7.44-3.4c-4.37-1.14-12.2-1.51-16.63,1.58-.16.14-.37.23-.54.38a4,4,0,0,0-1,.82"
             transform="translate(-19.92 -9.25)" />
          <path
             id="path138429"
             class="cls-33"
             d="M1126,453.88c-.42.08-.92-.16-.83-.72,0-.15.06-.25.07-.41.17-1.07.36-2.4-.32-3.27-1.1-1.36-3-.39-4,.48s-2.68,2.47-1.1,3.65a4.87,4.87,0,0,0,3.77.74,2.77,2.77,0,0,0,.74-.16.62.62,0,0,1,.8.46h0a.76.76,0,0,1-.53,1h0s-.15,0-.21,0a9.18,9.18,0,0,1-1.35.18.74.74,0,0,0-.36,0,6,6,0,0,1-4.4-1.66c-1.59-1.75,0-3.77,1.34-5s3.56-2.47,5.51-1.42c1.55.82,1.82,2.44,1.72,4a13.15,13.15,0,0,1-.19,1.49c0,.1-.06.15-.06.2a.74.74,0,0,1-.55.48Z"
             transform="translate(-19.92 -9.25)" />
          <path
             id="path138431"
             class="cls-33"
             d="M1151.7,453.27h0a.72.72,0,0,1-.8.36.24.24,0,0,1-.2-.06s-.1-.06-.1-.06a.68.68,0,0,1-.27-.58c.06-2.74.07-5.48.13-8.26a52.91,52.91,0,0,1,.13-6.3,14.22,14.22,0,0,1,.24-1.43c.69-2.9,3.94-5.29,6.53-2.86,2.88,2.71,1.52,8.15.44,11.39s-2.36,7.51-5.56,9.12a3.52,3.52,0,0,1-.74.32.62.62,0,0,1-.52,0,.87.87,0,0,1-.31-.85,1.17,1.17,0,0,1,.18-.35,0,0,0,0,1,.05-.05.5.5,0,0,1,.27-.14,5.71,5.71,0,0,0,.53-.22h0"
             transform="translate(-19.92 -9.25)" />
          <path
             id="path138433"
             class="cls-33"
             d="M1151.7,453.27c2.45-1.25,3.56-5.11,4.43-7.43,1-2.73,2.34-7.19.75-9.93-.33-.38-.68-.71-1-1.09-1,.3-2.06.65-3.06.95-.76.73-.77,2.59-.83,3.57-.08,1.34-.06,2.68-.09,4.07l-.12,9.61C1151.76,453.12,1151.76,453.17,1151.7,453.27Z"
             transform="translate(-19.92 -9.25)" />
          <path
             id="path138435"
             class="cls-33"
             d="M1150.17,452s0,0,0,.1a.64.64,0,0,1,0,.67.46.46,0,0,1-.33.29.67.67,0,0,1-1-.31c-.05-.11-.1-.16-.14-.27a46,46,0,0,0-4-6.7c-1.09-1.51-2.61-2.95-3.22-4.79-.83-2.53.87-6.77,3.56-7.59,3-.91,4.66,2.4,5.43,4.93a9,9,0,0,1,.3,1.05c1.12,4.51.58,9.23.87,13.84h0v.16a.52.52,0,0,1-.29.55.88.88,0,0,1-.73,0,.79.79,0,0,1-.47-.65v-.05c0-.16,0-.37,0-.52a1.6,1.6,0,0,0,0-.72"
             transform="translate(-19.92 -9.25)" />
          <path
             id="path138437"
             class="cls-33"
             d="M1150.17,452c-.1-2.59,0-5.12-.15-7.71-.08-2-1.53-12.33-5.57-8.6a5.26,5.26,0,0,0-1.52,4.61c.35,1.78,1.87,3.16,2.92,4.57A44.53,44.53,0,0,1,1150.17,452Z"
             transform="translate(-19.92 -9.25)" />
          <path
             id="path138439"
             class="cls-33"
             d="M1151.83,460.56a.26.26,0,0,1-.2-.12.73.73,0,0,1-.32-.69.63.63,0,0,1,.12-.3v-.05c0,.1-.06.15-.06.25"
             transform="translate(-19.92 -9.25)" />
          <path
             id="path138441"
             class="cls-33"
             d="M1151.83,460.56a.74.74,0,0,1-.86-.36,1,1,0,0,1,.91-1.39.92.92,0,0,1,.8.51,1,1,0,0,1-.06,1A.7.7,0,0,1,1151.83,460.56Z"
             transform="translate(-19.92 -9.25)" />
          <path
             id="path138443"
             class="cls-33"
             d="M1151.31,459.7c.06-.1.21,0,.45.18.45.29.61.2.49-.33a.73.73,0,0,1-.32,1s-.1.05-.15.05"
             transform="translate(-19.92 -9.25)" />
          <path
             id="path138445"
             class="cls-33"
             d="M1151.3,459.8h0v-.1"
             transform="translate(-19.92 -9.25)" />
          <path
             id="path138447"
             class="cls-33"
             d="M1151.31,459.7v.05"
             transform="translate(-19.92 -9.25)" />
          <path
             id="path138449"
             class="cls-33"
             d="M1151.31,459.7h0"
             transform="translate(-19.92 -9.25)" />
          <path
             id="path138451"
             class="cls-33"
             d="M1148.05,459h0c0,.05,0,.1-.06.1"
             transform="translate(-19.92 -9.25)" />
          <path
             id="path138453"
             class="cls-33"
             d="M1148.05,458.88h0"
             transform="translate(-19.92 -9.25)" />
          <path
             id="path138455"
             class="cls-33"
             d="M1148.05,458.94V459h0"
             transform="translate(-19.92 -9.25)" />
          <path
             id="path138457"
             class="cls-33"
             d="M1148,459h0"
             transform="translate(-19.92 -9.25)" />
          <path
             id="path138459"
             class="cls-33"
             d="M1148,459.09h0"
             transform="translate(-19.92 -9.25)" />
          <path
             id="path138461"
             class="cls-33"
             d="M1147.22,459a.25.25,0,0,0,0,.16h0c.14.37.55.29.73-.06"
             transform="translate(-19.92 -9.25)" />
          <path
             id="path138463"
             class="cls-33"
             d="M1147.22,459h0v0Z"
             transform="translate(-19.92 -9.25)" />
          <path
             id="path138465"
             class="cls-33"
             d="M1147.22,459h0"
             transform="translate(-19.92 -9.25)" />
          <path
             id="path138467"
             class="cls-33"
             d="M1147.9,458.93h0a3.47,3.47,0,0,1-.64.22s-.1,0-.15,0,.05-.1.11-.15a0,0,0,0,1,0-.05"
             transform="translate(-19.92 -9.25)" />
          <path
             id="path138469"
             class="cls-33"
             d="M1147.9,458.93h0"
             transform="translate(-19.92 -9.25)" />
          <path
             id="path138471"
             class="cls-33"
             d="M1148,459h0"
             transform="translate(-19.92 -9.25)" />
          <path
             id="path138473"
             class="cls-33"
             d="M1148,459h0"
             transform="translate(-19.92 -9.25)" />
          <path
             id="path138475"
             class="cls-33"
             d="M1148,459h0"
             transform="translate(-19.92 -9.25)" />
          <path
             id="path138477"
             class="cls-33"
             d="M1148,459h0c0-.06,0-.11-.09-.11"
             transform="translate(-19.92 -9.25)" />
          <line
             id="line138479"
             class="cls-33"
             x1="1128.07"
             y1="449.78"
             x2="1128.07"
             y2="449.78" />
          <path
             id="path138481"
             class="cls-33"
             d="M1148,459h0"
             transform="translate(-19.92 -9.25)" />
          <path
             id="path138483"
             class="cls-33"
             d="M1148,459h0"
             transform="translate(-19.92 -9.25)" />
          <path
             id="path138485"
             class="cls-33"
             d="M1148,459h0"
             transform="translate(-19.92 -9.25)" />
          <path
             id="path138487"
             class="cls-33"
             d="M1148,459h0"
             transform="translate(-19.92 -9.25)" />
          <polyline
             id="polyline138489"
             class="cls-33"
             points="1128.07 449.73 1128.07 449.73 1128.07 449.73" />
          <path
             id="path138491"
             class="cls-33"
             d="M1148,459h0"
             transform="translate(-19.92 -9.25)" />
          <line
             id="line138493"
             class="cls-33"
             x1="1128.07"
             y1="449.78"
             x2="1128.07"
             y2="449.78" />
          <path
             id="path138495"
             class="cls-33"
             d="M1148,459.09h0V459"
             transform="translate(-19.92 -9.25)" />
          <line
             id="line138497"
             class="cls-33"
             x1="1128.07"
             y1="449.83"
             x2="1128.07"
             y2="449.83" />
          <path
             id="path138499"
             class="cls-33"
             d="M1146.68,458.54a.75.75,0,0,1,.9-.41.76.76,0,0,1,.47.75v.26"
             transform="translate(-19.92 -9.25)" />
          <path
             id="path138501"
             class="cls-33"
             d="M1146.68,458.54a1,1,0,0,1,.55-.58,1.15,1.15,0,0,1,.93.1,1.33,1.33,0,0,1,.14,1.92.77.77,0,0,1-.85.31,1.33,1.33,0,0,1-.82-1.7Z"
             transform="translate(-19.92 -9.25)" />
          <path
             id="path138503"
             class="cls-33"
             d="M1148,459.09a.67.67,0,0,1-.7.42.7.7,0,0,1-.67-.76.48.48,0,0,1,.06-.26"
             transform="translate(-19.92 -9.25)" />
          <path
             id="path138505"
             class="cls-33"
             d="M1150,465.09a3.14,3.14,0,0,1-2.7,2.89.75.75,0,0,1-.89-.78l.21-3.5a.75.75,0,0,1,.77-.68,12.23,12.23,0,0,1,2.59.68.78.78,0,0,1,0,1.39Z"
             transform="translate(-19.92 -9.25)" />
          <path
             id="path138507"
             class="cls-33"
             d="M1147.87,466.16a1.69,1.69,0,0,0,.65-1.26v-.15a.73.73,0,0,1,1.43.24v.1"
             transform="translate(-19.92 -9.25)" />
          <path
             id="path138509"
             class="cls-33"
             d="M1147.87,466.16l-.07,1.13c-.29-.28-.59-.5-.88-.78a1.92,1.92,0,0,0,.95-.35Z"
             transform="translate(-19.92 -9.25)" />
          <path
             id="path138511"
             class="cls-33"
             d="M1148,464.61l-.1,1.55"
             transform="translate(-19.92 -9.25)" />
          <path
             id="path138513"
             class="cls-33"
             d="M1148,464.61l-.72-.14.77-.68Z"
             transform="translate(-19.92 -9.25)" />
          <path
             id="path138515"
             class="cls-33"
             d="M1150,465.09a.55.55,0,0,1-.51,0,7,7,0,0,0-.91-.31,2.42,2.42,0,0,0-.56-.14"
             transform="translate(-19.92 -9.25)" />
        </g>
      </g>
    </g>
    <g
       id="g139053">
      <g
         id="g139051">
        <g
           id="g139046">
          <path
             id="path138908"
             d="M1055.17,451.47a4.68,4.68,0,0,1-.74,6.47,3.7,3.7,0,0,1-3.73.52,6.66,6.66,0,0,0-1.16-2.41.72.72,0,0,1,.55.32,2.52,2.52,0,0,0,4.23-.18,3.62,3.62,0,0,0-.6-4.43,2.86,2.86,0,0,0-4.28-.29,3.39,3.39,0,0,0-.48,3.88,9.68,9.68,0,0,0-1.71-1.47,4.26,4.26,0,0,1,1.77-3.76c2.1-1.63,4.71-.71,6.15,1.35Z"
             transform="translate(-19.92 -9.25)" />
          <path
             id="path138910"
             class="cls-12"
             d="M1053.67,451.72a3.66,3.66,0,0,1,.6,4.44,2.54,2.54,0,0,1-4.24.18.7.7,0,0,0-.55-.32l-.59-.75a3.42,3.42,0,0,1,.48-3.88,2.92,2.92,0,0,1,4.3.33Z"
             transform="translate(-19.92 -9.25)" />
          <path
             id="path138912"
             d="M1050.74,460.13c1.31,2.13,1.92,4.45.36,6.83-1.85,2.87-5.25,5-8.39,6.29a22.65,22.65,0,0,1-17.91-.18c-5.19-2.41-10.14-8.17-7.31-14.11a9.84,9.84,0,0,1,2.38-3.17s.1,0,.16.07a0,0,0,0,1,.05,0,.84.84,0,0,0,.94.1l.33.41a12.49,12.49,0,0,0-1.35,1.24c-2.79,3.05-2.24,7.45.26,10.49,4.17,5,11.83,6.4,18,5.16a20.79,20.79,0,0,0,8.46-3.77c1.48-1.11,3.31-2.63,3.87-4.42a5.24,5.24,0,0,0-1.12-4.62l.39-.22a.66.66,0,0,0,.89-.13Z"
             transform="translate(-19.92 -9.25)" />
          <path
             id="path138914"
             d="M1050.92,459.56a.62.62,0,0,1-.18.57c-.42-.69-.9-1.36-1.36-2a.52.52,0,0,0-.29-.23h0a4.93,4.93,0,0,0-.41-.83.64.64,0,0,0,.33,0,3.78,3.78,0,0,0,1.73,1.33A9.42,9.42,0,0,0,1050.92,459.56Z"
             transform="translate(-19.92 -9.25)" />
          <path
             id="path138916"
             class="cls-12"
             d="M1049.41,460.49c.91,1.4,1.67,3,1.12,4.62s-2.39,3.31-3.86,4.42a21.64,21.64,0,0,1-8.47,3.77c-6.16,1.24-13.87-.14-18-5.16-2.51-3-3.05-7.39-.27-10.49a7.85,7.85,0,0,1,1.35-1.24,21.28,21.28,0,0,1,8.3-3.39c5-1,14.05-1.35,18.06,2.88a9.23,9.23,0,0,0,.52.91.81.81,0,0,0,.45.29,5.81,5.81,0,0,1,.41.83.7.7,0,0,0-.7,1.1C1048.73,459.52,1049.07,460,1049.41,460.49Zm-22.54,3.1c.68-.52-.25-1.49-.92-1a5.64,5.64,0,0,1-4.33,1.16c-.85-.11-.91,1.24-.08,1.31a6.86,6.86,0,0,0,5.33-1.5Zm-3.3-2.89a1.31,1.31,0,0,0,1-1.54.68.68,0,0,0-.83-.5.67.67,0,0,1-1.22.19.73.73,0,0,0-.51.83A1.37,1.37,0,0,0,1023.57,460.7Zm-3,1c.43-.28.95-.82.75-1.35a1,1,0,0,0-1.65-.44.76.76,0,0,0-.71.29,1,1,0,0,0,.16,1.31,1.15,1.15,0,0,0,1.45.19Z"
             transform="translate(-19.92 -9.25)" />
          <path
             id="path138918"
             d="M1050.74,460.13a.73.73,0,0,1-1,.09.41.41,0,0,1-.17-.39,7.37,7.37,0,0,0-.54-2,.52.52,0,0,1,.29.23C1049.85,458.82,1050.32,459.44,1050.74,460.13Z"
             transform="translate(-19.92 -9.25)" />
          <path
             id="path138920"
             d="M1049.8,460.27l-.39.22a15.42,15.42,0,0,0-1.06-1.42.7.7,0,0,1,.7-1.1h0a6.84,6.84,0,0,1,.54,2,.55.55,0,0,0,.21.34Z"
             transform="translate(-19.92 -9.25)" />
          <path
             id="path138922"
             d="M1049.54,456.05a9.12,9.12,0,0,1,1.16,2.41,3.77,3.77,0,0,1-1.72-1.33.59.59,0,0,0,.44-.91c0-.05-.06-.08-.07-.13S1049.43,456,1049.54,456.05Z"
             transform="translate(-19.92 -9.25)" />
          <path
             id="path138924"
             d="M1049.54,456.05s-.15,0-.19,0a5.23,5.23,0,0,1-.4-.78A7.35,7.35,0,0,1,1049.54,456.05Z"
             transform="translate(-19.92 -9.25)" />
          <path
             id="path138926"
             d="M1049.37,456.18c.28.43,0,.82-.45.91a.14.14,0,0,1-.07-.13.59.59,0,0,1,.44-.91A.19.19,0,0,1,1049.37,456.18Z"
             transform="translate(-19.92 -9.25)" />
          <path
             id="path138928"
             d="M1048.85,457s.07.08.08.12a.77.77,0,0,1-.34,0,7.64,7.64,0,0,0-.92-1.2,6.42,6.42,0,0,1-.51-2.06,10.51,10.51,0,0,1,1.71,1.48,5.33,5.33,0,0,0,.4.79.53.53,0,0,0-.42.85Z"
             transform="translate(-19.92 -9.25)" />
          <path
             id="path138930"
             d="M1048.63,457.1a.76.76,0,0,1-.45-.29,9.23,9.23,0,0,1-.52-.91A5.5,5.5,0,0,1,1048.63,457.1Z"
             transform="translate(-19.92 -9.25)" />
          <path
             id="path138932"
             d="M1047.2,453.84a5.08,5.08,0,0,0,.51,2.05c-4-4.22-13.07-3.89-18.06-2.88a19.58,19.58,0,0,0-8.3,3.39L1021,456a.58.58,0,0,0,.2-.47,3.35,3.35,0,0,1-.05-.71.82.82,0,0,0,.65-.42c3.88-2.41,9.25-3.25,13.31-3.35C1038.91,451,1043.87,451.54,1047.2,453.84Z"
             transform="translate(-19.92 -9.25)" />
          <path
             id="path138934"
             d="M1024.56,433c3.38-.11,5.4,5.62,4.76,8.2-.49,2.16-2.06,4.25-3.14,6.15a32.08,32.08,0,0,1-4.09,5.95.47.47,0,0,1-.45.19c-.17-.4-.3-.8-.43-1.21a42.12,42.12,0,0,0,5.28-8.26c1-1.83,2-3.47,1.39-5.6-.5-1.77-2.9-5.75-4.9-2.9a15.37,15.37,0,0,0-2.25,4.77,1.49,1.49,0,0,1,0-.42,10.74,10.74,0,0,0-.5-2c.78-2.37,2.18-4.81,4.36-4.86Z"
             transform="translate(-19.92 -9.25)" />
          <path
             id="path138936"
             d="M1026,462.62c.67-.52,1.6.45.92,1a7,7,0,0,1-5.27,1.54c-.85-.12-.82-1.42.08-1.31a5.59,5.59,0,0,0,4.27-1.2Z"
             transform="translate(-19.92 -9.25)" />
          <path
             id="path138938"
             class="cls-12"
             d="M1027.84,438.46c.63,2.17-.36,3.76-1.4,5.6a45.48,45.48,0,0,1-5.28,8.26,5.85,5.85,0,0,1-.28-.9c-.08-1.62-.11-3.19-.1-4.83a45.84,45.84,0,0,0-.1-6.31,15.4,15.4,0,0,1,2.24-4.76C1024.93,432.71,1027.33,436.69,1027.84,438.46Z"
             transform="translate(-19.92 -9.25)" />
          <path
             id="path138940"
             d="M1023.27,459.42h0l.09,0h0v0c0-.09,0-.14-.08-.18a.56.56,0,0,1,.48-.48.72.72,0,0,1,.83.51,1.34,1.34,0,0,1-1,1.54,1.28,1.28,0,0,1-1.52-1,.68.68,0,0,1,.52-.82.73.73,0,0,1,.73.28c-.08.07-.06.16-.09.26Z"
             transform="translate(-19.92 -9.25)" />
          <path
             id="path138942"
             d="M1023.36,459.4Z"
             transform="translate(-19.92 -9.25)" />
          <path
             id="path138944"
             d="M1023.36,459.4Z"
             transform="translate(-19.92 -9.25)" />
          <path
             id="path138946"
             d="M1023.36,459.4Z"
             transform="translate(-19.92 -9.25)" />
          <path
             id="path138948"
             d="M1023.36,459.4Z"
             transform="translate(-19.92 -9.25)" />
          <path
             id="path138950"
             d="M1023.36,459.4m-.05,0h0a.5.5,0,0,1,0-.24.33.33,0,0,1,.08.18v0h0v0h-.1Z"
             transform="translate(-19.92 -9.25)" />
          <path
             id="path138952"
             d="M1023.36,459.4Z"
             transform="translate(-19.92 -9.25)" />
          <path
             id="path138954"
             d="M1023.36,459.4Z"
             transform="translate(-19.92 -9.25)" />
          <path
             id="path138956"
             d="M1023.35,459.36Z"
             transform="translate(-19.92 -9.25)" />
          <path
             id="path138958"
             d="M1023.36,459.4Z"
             transform="translate(-19.92 -9.25)" />
          <path
             id="path138960"
             d="M1023.36,459.4Z"
             transform="translate(-19.92 -9.25)" />
          <path
             id="path138962"
             d="M1023.36,459.4"
             transform="translate(-19.92 -9.25)" />
          <path
             id="path138964"
             d="M1023.27,459.42Z"
             transform="translate(-19.92 -9.25)" />
          <path
             id="path138966"
             d="M1023.31,459.41Z"
             transform="translate(-19.92 -9.25)" />
          <path
             id="path138968"
             d="M1023.27,459.42Z"
             transform="translate(-19.92 -9.25)" />
          <path
             id="path138970"
             d="M1023.31,459.37h0s0,.05,0,0Z"
             transform="translate(-19.92 -9.25)" />
          <path
             id="path138972"
             d="M1023.27,459.42Z"
             transform="translate(-19.92 -9.25)" />
          <path
             id="path138974"
             d="M1023.27,459.42v0Z"
             transform="translate(-19.92 -9.25)" />
          <path
             id="path138976"
             d="M1023.27,459.42Z"
             transform="translate(-19.92 -9.25)" />
          <path
             id="path138978"
             d="M1023.27,459.42Z"
             transform="translate(-19.92 -9.25)" />
          <path
             id="path138980"
             d="M1023.27,459.42Z"
             transform="translate(-19.92 -9.25)" />
          <path
             id="path138982"
             d="M1023.27,459.42Z"
             transform="translate(-19.92 -9.25)" />
          <path
             id="path138984"
             d="M1023.27,459.42Z"
             transform="translate(-19.92 -9.25)" />
          <path
             id="path138986"
             d="M1021.76,453.88a.53.53,0,0,1,0,.52l-.64.42c0-.66-.13-1.37-.17-2h0a.69.69,0,0,0,.64.74A.93.93,0,0,1,1021.76,453.88Z"
             transform="translate(-19.92 -9.25)" />
          <path
             id="path138988"
             d="M1021.33,460.39c.15.54-.37,1.08-.75,1.35a1.2,1.2,0,0,1-1.44-.14,1,1,0,0,1-.16-1.31.75.75,0,0,1,.71-.29.67.67,0,0,0,.7,1.06c.14,0,0,0-.1,0s-.11-.07-.12-.12a.8.8,0,0,0,0-.57s0,0,0-.1l0,.05a1.09,1.09,0,0,0-.24-.24,2.14,2.14,0,0,1-.22-.1.58.58,0,0,1,.35-.21,1.06,1.06,0,0,1,1.3.65Z"
             transform="translate(-19.92 -9.25)" />
          <path
             id="path138990"
             d="M1021.64,453.52a.72.72,0,0,1-.63-.74.56.56,0,0,1,.2-.42h0a5.34,5.34,0,0,0,.43,1.16Z"
             transform="translate(-19.92 -9.25)" />
          <path
             id="path138992"
             d="M1021.13,454.82l.64-.42a.67.67,0,0,1-.64.42Z"
             transform="translate(-19.92 -9.25)" />
          <path
             id="path138994"
             d="M1021.17,455.53c0,.24-.06.4-.19.47a.81.81,0,0,1-1-.1c.53.18.89-.42.71-.86l.29-.2h0A1.64,1.64,0,0,1,1021.17,455.53Z"
             transform="translate(-19.92 -9.25)" />
          <path
             id="path138996"
             d="M1021.13,454.82Z"
             transform="translate(-19.92 -9.25)" />
          <path
             id="path138998"
             d="M1021.13,454.82h0a.61.61,0,0,1-.55-.32,20.33,20.33,0,0,1-1-2.73c-.13-2.32-.11-4.67-.09-7a29.29,29.29,0,0,0-.18-4,24.53,24.53,0,0,1,.79-2.8,10.18,10.18,0,0,1,.5,2,1.24,1.24,0,0,1,0,.43,20.33,20.33,0,0,0,.2,11.13c0,.42,0,.9.07,1.33.08.6.12,1.31.21,2Z"
             transform="translate(-19.92 -9.25)" />
          <path
             id="path139000"
             d="M1020.58,454.5a.53.53,0,0,0,.51.37c-.08.07-.21.14-.3.21a.65.65,0,0,0-.38-.45,4.13,4.13,0,0,1-.65-.35c-.08-.85-.1-1.71-.18-2.55A20.29,20.29,0,0,0,1020.58,454.5Z"
             transform="translate(-19.92 -9.25)" />
          <path
             id="path139002"
             d="M1021.16,452.32h0a.75.75,0,0,0-.2.47h0c0-.42,0-.9-.07-1.33C1021,451.73,1021.06,452.05,1021.16,452.32Z"
             transform="translate(-19.92 -9.25)" />
          <path
             id="path139004"
             d="M1020.79,455.08c.14.45-.18,1-.7.86a.34.34,0,0,1-.13-.17A5.63,5.63,0,0,1,1020.79,455.08Z"
             transform="translate(-19.92 -9.25)" />
          <path
             id="path139006"
             d="M1019.86,460.59a.17.17,0,0,1,.15,0h0s0,0,.06,0h0l0,.14v.05h0c-.06.15-.05.2,0,.1l0-.06c.06,0,.07.09.12.12s.19,0,.11,0a.72.72,0,0,1-.83-.5.61.61,0,0,1,.13-.56,2,2,0,0,0,.21.1,1.09,1.09,0,0,1,.24.24l-.07.11,0,.06s0,.1-.12.12Z"
             transform="translate(-19.92 -9.25)" />
          <path
             id="path139008"
             d="M1020.79,446.64c0,1.59,0,3.21.1,4.82a20.72,20.72,0,0,1-.2-11.13,40.26,40.26,0,0,1,.1,6.31Z"
             transform="translate(-19.92 -9.25)" />
          <path
             id="path139010"
             d="M1020.41,454.63a.65.65,0,0,1,.38.45,9.3,9.3,0,0,0-.88.7.64.64,0,0,1-.1-.26c0-.38-.06-.81-.09-1.18C1019.93,454.44,1020.19,454.53,1020.41,454.63Z"
             transform="translate(-19.92 -9.25)" />
          <path
             id="path139012"
             d="M1020.16,460.38a.88.88,0,0,1,0,.58,0,0,0,0,0-.06,0v-.05h0v0Z"
             transform="translate(-19.92 -9.25)" />
          <path
             id="path139014"
             d="M1020.17,460.91l0,.06,0-.06Z"
             transform="translate(-19.92 -9.25)" />
          <path
             id="path139016"
             d="M1020.15,460.82h0v0S1020.15,460.82,1020.15,460.82Z"
             transform="translate(-19.92 -9.25)" />
          <path
             id="path139018"
             d="M1020.12,460.92Z"
             transform="translate(-19.92 -9.25)" />
          <path
             id="path139020"
             d="M1020.11,460.87Z"
             transform="translate(-19.92 -9.25)" />
          <path
             id="path139022"
             d="M1020.12,460.68h0s0-.05,0,0h0a.2.2,0,0,1-.15,0h0s.09-.07.13-.12l0-.06.08-.11v.05c0,.14,0,.28,0,.43a.17.17,0,0,1-.08-.13Z"
             transform="translate(-19.92 -9.25)" />
          <path
             id="path139024"
             d="M1020.14,460.29s0,0,0,.1,0-.05,0-.1Z"
             transform="translate(-19.92 -9.25)" />
          <path
             id="path139026"
             d="M1020.12,460.92Z"
             transform="translate(-19.92 -9.25)" />
          <path
             id="path139028"
             d="M1020.12,460.68Z"
             transform="translate(-19.92 -9.25)" />
          <path
             id="path139030"
             d="M1020.12,460.68"
             transform="translate(-19.92 -9.25)" />
          <path
             id="path139032"
             d="M1020.06,460.6Z"
             transform="translate(-19.92 -9.25)" />
          <path
             id="path139034"
             d="M1020.06,460.6Z"
             transform="translate(-19.92 -9.25)" />
          <path
             id="path139036"
             d="M1019.91,460.58Z"
             transform="translate(-19.92 -9.25)" />
          <path
             id="path139038"
             d="M1020.09,455.94l-.06,0s-.1,0-.15-.06,0-.06.08-.07a.34.34,0,0,0,.13.17Z"
             transform="translate(-19.92 -9.25)" />
          <path
             id="path139040"
             d="M1019.91,455.78s0,.06-.08.07c-3.75-1.74-6.2-6.43-7.66-10.07s-1.45-8.19,1.81-10.77c3-2.37,5.14.17,6.12,2.9a21.51,21.51,0,0,0-.79,2.79c-.36-3.19-1.46-6.51-4.44-4.67-3.59,2.21-2.23,7.74-.77,10.66,1.31,2.62,3,6,5.66,7.59,0,.38.06.8.09,1.18A.7.7,0,0,0,1019.91,455.78Z"
             transform="translate(-19.92 -9.25)" />
          <path
             id="path139042"
             class="cls-12"
             d="M1019.59,451.77c0,.86.1,1.71.18,2.56-2.65-1.58-4.36-5-5.66-7.59-1.41-2.93-2.77-8.46.77-10.66,3-1.86,4.08,1.48,4.44,4.67a6.68,6.68,0,0,0-.16.7A20.5,20.5,0,0,0,1019.59,451.77Z"
             transform="translate(-19.92 -9.25)" />
          <path
             id="path139044"
             d="M1019.49,444.74c-.07,2.32,0,4.66.09,7a21.45,21.45,0,0,1-.42-10.32c.05-.21.1-.46.15-.71A26.81,26.81,0,0,1,1019.49,444.74Z"
             transform="translate(-19.92 -9.25)" />
        </g>
      </g>
    </g>
    <path
       d="M771,302.17c6.88-5.42,17.18-5.11,25.48-5.86q13.28-1.21,26.59-1.95,27.12-1.51,54.29-1.07c2.29,0,2.67-3.28.54-3.93a203.57,203.57,0,0,1-37-15.28l-1.54,3.66,55.35,16.5v-3.85l-49.21,17c-2.42.83-1.38,4.7,1.06,3.85l49.21-17a2,2,0,0,0,0-3.85l-55.35-16.51c-2.15-.64-3.56,2.58-1.54,3.65a209.5,209.5,0,0,0,38,15.69l.53-3.93q-30.12-.45-60.2,1.42-14.79.94-29.52,2.46c-7,.73-13.77,1.68-19.46,6.17-2,1.59.82,4.4,2.82,2.83Z"
       transform="translate(-19.92 -9.25)"
       id="path364834" />
  </g>
  <metadata
     id="metadata376075">
    <rdf:RDF>
      <cc:Work
         rdf:about="">
        <dc:title>full_new</dc:title>
      </cc:Work>
    </rdf:RDF>
  </metadata>
</svg>
