<?xml version="1.0" encoding="UTF-8" standalone="no"?>
<svg
   id="Layer_1"
   data-name="Layer 1"
   viewBox="0 0 1081.29 593.84"
   version="1.1"
   sodipodi:docname="dem_inf_2.svg"
   inkscape:version="1.2.2 (1:1.2.2+202212051552+b0a8486541)"
   xmlns:inkscape="http://www.inkscape.org/namespaces/inkscape"
   xmlns:sodipodi="http://sodipodi.sourceforge.net/DTD/sodipodi-0.dtd"
   xmlns="http://www.w3.org/2000/svg"
   xmlns:svg="http://www.w3.org/2000/svg"
   xmlns:rdf="http://www.w3.org/1999/02/22-rdf-syntax-ns#"
   xmlns:cc="http://creativecommons.org/ns#"
   xmlns:dc="http://purl.org/dc/elements/1.1/">
  <sodipodi:namedview
     id="namedview352073"
     pagecolor="#ffffff"
     bordercolor="#000000"
     borderopacity="0.25"
     inkscape:showpageshadow="2"
     inkscape:pageopacity="0.0"
     inkscape:pagecheckerboard="0"
     inkscape:deskcolor="#d1d1d1"
     showgrid="false"
     inkscape:zoom="0.4"
     inkscape:cx="543.75"
     inkscape:cy="297.5"
     inkscape:window-width="1223"
     inkscape:window-height="779"
     inkscape:window-x="57"
     inkscape:window-y="21"
     inkscape:window-maximized="1"
     inkscape:current-layer="Layer_1" />
  <defs
     id="defs350437">
    <style
       id="style350420">.cls-1,.cls-10,.cls-13,.cls-17,.cls-20,.cls-22,.cls-23,.cls-27,.cls-29,.cls-6{fill:none;}.cls-2{opacity:0.6;}.cls-3{fill:#39b54a;}.cls-4{fill:#006837;}.cls-24,.cls-25,.cls-5{fill:#fff;}.cls-26,.cls-27,.cls-29,.cls-6{stroke:#000;}.cls-6{stroke-miterlimit:10;}.cls-7{fill:#fdfeff;}.cls-8{fill:#b3b3b3;}.cls-9{clip-path:url(#clip-path);}.cls-10,.cls-13,.cls-15{stroke:#ff7f0e;}.cls-11,.cls-15{fill:#ff7f0e;}.cls-11,.cls-15,.cls-18,.cls-21{fill-opacity:0.5;}.cls-12{clip-path:url(#clip-path-3);}.cls-13,.cls-27{stroke-linecap:square;}.cls-13,.cls-22,.cls-23,.cls-24,.cls-25,.cls-26,.cls-29{stroke-linejoin:round;}.cls-13,.cls-15{stroke-opacity:0.5;}.cls-13{stroke-width:0.2px;}.cls-14{clip-path:url(#clip-path-5);}.cls-16{clip-path:url(#clip-path-7);}.cls-17{stroke:#2ca02c;}.cls-18{fill:#2ca02c;}.cls-19{clip-path:url(#clip-path-9);}.cls-20,.cls-23,.cls-25{stroke:#1f77b4;}.cls-21{fill:#1f77b4;}.cls-22,.cls-24{stroke:#fff;stroke-width:3px;}.cls-22,.cls-23,.cls-24,.cls-25{stroke-linecap:round;}.cls-26,.cls-27{stroke-width:0.8px;}.cls-28{opacity:0.82;}.cls-30{fill:#c1272d;}.cls-31{fill:#fcee21;}.cls-32{fill:blue;}.cls-33{fill:#8cc63f;}</style>
    <clipPath
       id="clip-path"
       transform="translate(-4.26 -9.2)">
      <rect
         class="cls-1"
         x="840.09"
         y="168.46"
         width="237.1"
         height="319.91"
         id="rect350422" />
    </clipPath>
    <clipPath
       id="clip-path-3"
       transform="translate(-4.26 -9.2)">
      <rect
         class="cls-1"
         x="856.59"
         y="225.81"
         width="158.63"
         height="272.33"
         id="rect350425" />
    </clipPath>
    <clipPath
       id="clip-path-5"
       transform="translate(-4.26 -9.2)">
      <rect
         class="cls-1"
         x="824.21"
         y="226.84"
         width="200.94"
         height="271.12"
         id="rect350428" />
    </clipPath>
    <clipPath
       id="clip-path-7"
       transform="translate(-4.26 -9.2)">
      <rect
         class="cls-1"
         x="798.09"
         y="168.46"
         width="237.1"
         height="319.91"
         id="rect350431" />
    </clipPath>
    <clipPath
       id="clip-path-9"
       transform="translate(-4.26 -9.2)">
      <rect
         class="cls-1"
         x="816.09"
         y="168.46"
         width="237.1"
         height="319.91"
         id="rect350434" />
    </clipPath>
  </defs>
  <title
     id="title350439">full</title>
  <path
     class="cls-30"
     d="M427.8,401.2a108.46,108.46,0,0,1,1.1,13.9,1.5,1.5,0,0,0,3,0,121.36,121.36,0,0,0-1.2-14.7c-.3-1.9-3.2-1.1-2.9.8Z"
     transform="translate(-4.26 -9.2)"
     id="path351800" />
  <path
     class="cls-30"
     d="M434.4,398.7c1.2,6.9,2.5,13.9,3.7,20.8.3,1.9,3.2,1.1,2.9-.8-1.2-6.9-2.5-13.9-3.7-20.8-.4-1.9-3.3-1.1-2.9.8Z"
     transform="translate(-4.26 -9.2)"
     id="path351802" />
  <path
     class="cls-30"
     d="M489,403c.1,5.7.3,11.4.7,17.1.1,1.9,3.1,1.9,3,0-.4-5.7-.7-11.4-.7-17.1a1.5,1.5,0,0,0-3,0Z"
     transform="translate(-4.26 -9.2)"
     id="path351804" />
  <path
     class="cls-30"
     d="M510.7,403.3c.7,6.1,1.2,12.3,2.4,18.4.4,1.9,3.3,1.1,2.9-.8-1.1-5.8-1.6-11.7-2.3-17.6-.2-1.9-3.2-1.9-3,0Z"
     transform="translate(-4.26 -9.2)"
     id="path351806" />
  <path
     class="cls-30"
     d="M570.2,395.2a58,58,0,0,0,1.8,14.4,1.5,1.5,0,0,0,2.9-.8,56.93,56.93,0,0,1-1.7-13.6c-.1-2-3.1-2-3,0Z"
     transform="translate(-4.26 -9.2)"
     id="path351808" />
  <path
     class="cls-31"
     d="M448.7,397.4c1.2,7.8,2.3,15.7,3.1,23.6.2,1.9,3.2,1.9,3,0-.9-8.2-1.9-16.3-3.2-24.4-.4-1.9-3.2-1.1-2.9.8Z"
     transform="translate(-4.26 -9.2)"
     id="path351810" />
  <path
     class="cls-31"
     d="M499.7,402.3c.5,4.3,1.1,8.6,1.6,12.9.3,2.8,0,6.9,1.5,9.3a1.51,1.51,0,0,0,2.4.3c0-.1.1-.1.1-.2a1.45,1.45,0,0,0,0-2.1l-.1-.1c-1.5-1.3-3.6.9-2.1,2.1l.1.1v-2.1c0,.1-.1.1-.1.2l2.4.3c-1.4-2.3-1.1-7.7-1.4-10.2-.4-3.5-.9-7-1.3-10.5-.4-1.9-3.4-1.9-3.1,0Z"
     transform="translate(-4.26 -9.2)"
     id="path351812" />
  <path
     class="cls-31"
     d="M539.8,400.5a109.48,109.48,0,0,0,.4,12.8c.2,1.9,3.2,1.9,3,0a109.48,109.48,0,0,1-.4-12.8c.1-2-2.9-2-3,0Z"
     transform="translate(-4.26 -9.2)"
     id="path351814" />
  <path
     class="cls-32"
     d="M441,398.1c2.4,7.9,4.5,15.9,6.1,23.9.4,1.9,3.3,1.1,2.9-.8a238.94,238.94,0,0,0-6.1-23.9c-.6-1.8-3.5-1-2.9.8Z"
     transform="translate(-4.26 -9.2)"
     id="path351816" />
  <path
     class="cls-32"
     d="M481.1,405.5c1,4.1,1.8,8.3,2.6,12.5.3,1.9,3.2,1.1,2.9-.8-.7-4.2-1.6-8.4-2.6-12.5a1.5,1.5,0,0,0-2.9.8Z"
     transform="translate(-4.26 -9.2)"
     id="path351818" />
  <path
     class="cls-32"
     d="M553.2,394c.8,7.2,1.7,14.3,2.5,21.5.2,1.9,3.2,1.9,3,0-.8-7.2-1.7-14.3-2.5-21.5-.2-1.9-3.2-2-3,0Z"
     transform="translate(-4.26 -9.2)"
     id="path351820" />
  <path
     class="cls-32"
     d="M577.3,396.7c.4,2.9.8,5.7,1.4,8.5.4,1.9,3.3,1.1,2.9-.8-.5-2.6-1-5.1-1.3-7.7-.2-1.9-3.2-1.9-3,0Z"
     transform="translate(-4.26 -9.2)"
     id="path351822" />
  <path
     class="cls-33"
     d="M456.5,404.9c1,4.1,1.9,8.1,2.9,12.2.4,1.9,3.3,1.1,2.9-.8-1-4.1-1.9-8.1-2.9-12.2a1.5,1.5,0,0,0-2.9.8Z"
     transform="translate(-4.26 -9.2)"
     id="path351824" />
  <path
     class="cls-33"
     d="M462.7,408.7c.6,1.3,1.1,2.6,1.7,3.9.5,1.1.8,2.4,1.9,3a1.36,1.36,0,0,0,1.5,0,1.59,1.59,0,0,0,.9-1.2,1.62,1.62,0,0,0-.7-1.7l-.1-.1c-1.6-1-3.1,1.6-1.5,2.6l.1.1c-.2-.6-.5-1.1-.7-1.7v.2c.2-.3.5-.6.7-.9-.1,0-.1.1-.2.1h1.5c.2.2.2.1-.1-.4-.1-.3-.3-.6-.4-.9-.2-.5-.4-.9-.6-1.4-.5-1.1-.9-2.1-1.4-3.2-.8-1.7-3.4-.1-2.6,1.6Z"
     transform="translate(-4.26 -9.2)"
     id="path351826" />
  <path
     class="cls-33"
     d="M493.9,403.3c1.6,6.4.4,13,2.1,19.4a1.5,1.5,0,0,0,2.9-.8c-1.8-6.3-.5-13-2.1-19.4-.4-1.8-3.3-1-2.9.8Z"
     transform="translate(-4.26 -9.2)"
     id="path351828" />
  <path
     class="cls-33"
     d="M518.1,405.5c.7,3.7,1.4,7.5,2.1,11.2.3,1.9,3.2,1.1,2.9-.8-.7-3.7-1.4-7.5-2.1-11.2-.4-1.9-3.3-1.1-2.9.8Z"
     transform="translate(-4.26 -9.2)"
     id="path351830" />
  <path
     class="cls-33"
     d="M546.6,396.5c.3,5.9-.4,13,1.6,18.7.6,1.8,3.5,1,2.9-.8-1.9-5.4-1.2-12.2-1.5-17.9-.1-2-3.1-2-3,0Z"
     transform="translate(-4.26 -9.2)"
     id="path351832" />
  <path
     class="cls-33"
     d="M561.4,394.2a134,134,0,0,0,3.1,18.8c.5,1.9,3.3,1.1,2.9-.8a135.19,135.19,0,0,1-3-18c-.2-1.9-3.2-1.9-3,0Z"
     transform="translate(-4.26 -9.2)"
     id="path351834" />
  <path
     d="M416,416.9c3.6-5.5,7.3-11.1,12.6-15.1,7.5-5.7,16.1-5,24.4-1,12.7,6.2,22.6,17.1,35.6,22.7,10.1,4.3,22.8,5.7,32.1-1.2,4.3-3.2,7.2-7.7,10.2-12.1,4.6-6.8,9.6-11.6,17.6-14.1,16.3-5,34.7-.9,47.8,9.8,1.5,1.2,3.6-.9,2.1-2.1a56.16,56.16,0,0,0-37.7-12.7c-6.7.3-13.7,1.7-19.7,4.9-5.8,3.1-9.5,8.1-13.1,13.3-4.5,6.7-9.3,12.7-17.6,14.3-8,1.6-16.5-.7-23.6-4.3-13.7-7.1-24.7-20.3-40-24.1-15.6-3.9-25.7,8.5-33.3,20.1a1.53,1.53,0,0,0,2.6,1.6Z"
     transform="translate(-4.26 -9.2)"
     id="path351836" />
  <path
     d="M413.5,395.3c5.9,12.2,13,25.8,27.1,29.6,14.5,3.9,22.9-7.8,33.7-14.9a52.13,52.13,0,0,1,42.8-6.1c7.6,2.3,13.7,7,20.5,10.7a33.39,33.39,0,0,0,20.3,3.9c16.6-2.3,28.5-15,39.2-26.7,1.3-1.4-.8-3.6-2.1-2.1-12.3,13.6-29.4,31.4-49.9,25-8.5-2.7-15.3-9.2-23.6-12.4a53.93,53.93,0,0,0-21.8-3.4,55.49,55.49,0,0,0-20.4,4.9c-7.6,3.5-13.1,9.2-19.7,14-9,6.5-19.3,6-28-1-7.3-5.9-11.5-14.8-15.5-23.1-.8-1.6-3.4-.1-2.6,1.6Z"
     transform="translate(-4.26 -9.2)"
     id="path351838" />
  <path
     class="cls-32"
     d="M440,172c-.3,3.1.5,6,1,9a109.19,109.19,0,0,1,1.1,11.5c.1,1.9,3.1,1.9,3,0-.1-3.1-.3-6.2-.7-9.3-.5-3.7-1.7-7.4-1.3-11.1.1-2-2.9-2-3.1-.1Z"
     transform="translate(-4.26 -9.2)"
     id="path351840" />
  <path
     class="cls-32"
     d="M486.4,172.3c-.8,6,1,13,1.7,19,.2,1.9,3.2,1.9,3,0-.3-3-.7-6.1-1-9.1s-1.2-6.2-.8-9.1c.3-1.9-2.6-2.7-2.9-.8Z"
     transform="translate(-4.26 -9.2)"
     id="path351842" />
  <path
     class="cls-32"
     d="M491.5,171.1c1.4,6.8,2.5,13.7,3.4,20.6.2,1.9,3.2,1.9,3,0-.8-7.2-2-14.3-3.5-21.4-.4-1.9-3.3-1.1-2.9.8Z"
     transform="translate(-4.26 -9.2)"
     id="path351844" />
  <path
     class="cls-32"
     d="M542.9,169.3c-.1,6.3-.2,12.6-.1,19a1.5,1.5,0,0,0,3,0c-.1-6.3-.1-12.6.1-19a1.5,1.5,0,0,0-3,0Z"
     transform="translate(-4.26 -9.2)"
     id="path351846" />
  <path
     class="cls-32"
     d="M566.5,177.7v9.5a1.5,1.5,0,0,0,3,0v-9.5a1.5,1.5,0,0,0-3,0Z"
     transform="translate(-4.26 -9.2)"
     id="path351848" />
  <path
     class="cls-31"
     d="M434,174.5a67.1,67.1,0,0,1,3.8,18.2c.1,1.9,3.1,1.9,3,0a68.36,68.36,0,0,0-3.9-19c-.7-1.8-3.6-1-2.9.8Z"
     transform="translate(-4.26 -9.2)"
     id="path351850" />
  <path
     class="cls-31"
     d="M507.1,172.2a69.63,69.63,0,0,1,2.8,15c.2,1.9,3.2,1.9,3,0a77.15,77.15,0,0,0-2.9-15.8,1.51,1.51,0,0,0-2.9.8Z"
     transform="translate(-4.26 -9.2)"
     id="path351852" />
  <path
     class="cls-31"
     d="M511.3,173.9a59.45,59.45,0,0,0,2.9,8.4c.8,1.8,3.3.2,2.6-1.5a53.65,53.65,0,0,1-2.6-7.7,1.5,1.5,0,0,0-2.9.8Z"
     transform="translate(-4.26 -9.2)"
     id="path351854" />
  <path
     class="cls-31"
     d="M553.2,171.7c.5,6.4.9,12.8,1.4,19.3.1,1.9,3.1,1.9,3,0-.5-6.4-.9-12.8-1.4-19.3-.2-1.9-3.2-1.9-3,0Z"
     transform="translate(-4.26 -9.2)"
     id="path351856" />
  <path
     class="cls-30"
     d="M447,171.4a203.68,203.68,0,0,1,.2,22.1c-.1,1.9,2.9,1.9,3,0a203.68,203.68,0,0,0-.2-22.1c-.2-1.9-3.2-2-3,0Z"
     transform="translate(-4.26 -9.2)"
     id="path351858" />
  <path
     class="cls-30"
     d="M496.5,170.7c3.7,6.5,3.7,14.1,5.5,21.2a1.5,1.5,0,0,0,2.9-.8c-1.8-7.4-1.9-15.2-5.8-21.9a1.5,1.5,0,0,0-2.6,1.5Z"
     transform="translate(-4.26 -9.2)"
     id="path351860" />
  <path
     class="cls-30"
     d="M548.7,168.9a128.92,128.92,0,0,1,.2,22.4c-.1,1.9,2.9,1.9,3,0a152.15,152.15,0,0,0-.2-22.4c-.1-1.9-3.1-1.9-3,0Z"
     transform="translate(-4.26 -9.2)"
     id="path351862" />
  <path
     class="cls-30"
     d="M571.6,178.7a18.86,18.86,0,0,0-.2,5.3c.2,1.9,3.2,1.9,3,0a22.57,22.57,0,0,1,.1-4.5,1.51,1.51,0,0,0-1-1.8,1.43,1.43,0,0,0-1.9,1Z"
     transform="translate(-4.26 -9.2)"
     id="path351864" />
  <path
     class="cls-33"
     d="M428.5,177.1a39,39,0,0,1,4.6,12.9c.3,1.9,3.2,1.1,2.9-.8a43.44,43.44,0,0,0-4.9-13.6,1.5,1.5,0,0,0-2.6,1.5Z"
     transform="translate(-4.26 -9.2)"
     id="path351866" />
  <path
     class="cls-33"
     d="M457.6,178.8a88.46,88.46,0,0,1,1.6,8.7c.3,1.9,3.3,1.9,3,0-.4-3.2-1-6.3-1.7-9.5-.4-1.9-3.3-1.1-2.9.8Z"
     transform="translate(-4.26 -9.2)"
     id="path351868" />
  <path
     class="cls-33"
     d="M462.6,181.9l1.2,2.1a1.58,1.58,0,0,0,2.1.5,1.49,1.49,0,0,0,.5-2.1l-1.2-2.1a1.58,1.58,0,0,0-2.1-.5,1.72,1.72,0,0,0-.5,2.1Z"
     transform="translate(-4.26 -9.2)"
     id="path351870" />
  <path
     class="cls-33"
     d="M502.1,169.3c1.3,6.5,2.7,13.1,4,19.6.4,1.9,3.3,1.1,2.9-.8-1.3-6.5-2.7-13.1-4-19.6-.4-1.8-3.3-1-2.9.8Z"
     transform="translate(-4.26 -9.2)"
     id="path351872" />
  <path
     class="cls-33"
     d="M558.8,172.5a163.49,163.49,0,0,1,2.8,16.8c.2,1.9,3.2,1.9,3,0a174.79,174.79,0,0,0-3-17.6c-.3-1.9-3.2-1.1-2.8.8Z"
     transform="translate(-4.26 -9.2)"
     id="path351874" />
  <path
     class="cls-33"
     d="M536.9,169.9a80.32,80.32,0,0,0,.3,15.5c.2,1.9,3.2,1.9,3,0a89.2,89.2,0,0,1-.3-15.5c.2-1.9-2.8-1.9-3,0Z"
     transform="translate(-4.26 -9.2)"
     id="path351876" />
  <path
     class="cls-33"
     d="M532.3,172.4a59.33,59.33,0,0,0,.6,8.4c.2,1.9,3.2,1.9,3,0a59.33,59.33,0,0,1-.6-8.4,1.5,1.5,0,0,0-3,0Z"
     transform="translate(-4.26 -9.2)"
     id="path351878" />
  <path
     class="cls-33"
     d="M482.6,175.9a95.26,95.26,0,0,0,.8,14.1c.2,1.9,3.2,1.9,3,0a94.5,94.5,0,0,1-.8-14.1,1.5,1.5,0,0,0-3,0Z"
     transform="translate(-4.26 -9.2)"
     id="path351880" />
  <path
     class="cls-31"
     d="M452.4,174.9c.1,5.3.3,10.5.4,15.8a1.5,1.5,0,0,0,3,0c-.1-5.3-.3-10.5-.4-15.8-.1-1.9-3.1-2-3,0Z"
     transform="translate(-4.26 -9.2)"
     id="path351882" />
  <path
     class="cls-30"
     d="M424.2,180.2c.9,2.9,1.8,5.9,2.7,8.8.6,1.8,3.5,1.1,2.9-.8-.9-2.9-1.8-5.9-2.7-8.8a1.51,1.51,0,0,0-2.9.8Z"
     transform="translate(-4.26 -9.2)"
     id="path351884" />
  <path
     class="cls-30"
     d="M477.1,181.2a30.19,30.19,0,0,0,.3,6,1.54,1.54,0,0,0,1.5,1.5c.7,0,1.6-.7,1.5-1.5a30.19,30.19,0,0,1-.3-6c.1-1.9-2.9-1.9-3,0Z"
     transform="translate(-4.26 -9.2)"
     id="path351886" />
  <path
     class="cls-30"
     d="M526.7,175.6c.6,1.2,1.2,2.3,1.8,3.5.9,1.7,3.5.2,2.6-1.5-.6-1.2-1.2-2.3-1.8-3.5-.9-1.7-3.5-.2-2.6,1.5Z"
     transform="translate(-4.26 -9.2)"
     id="path351888" />
  <path
     class="cls-30"
     d="M588.4,177l1.2,6.3c.4,1.9,3.2,1.1,2.9-.8l-1.2-6.3c-.4-1.9-3.3-1.1-2.9.8Z"
     transform="translate(-4.26 -9.2)"
     id="path351890" />
  <path
     class="cls-30"
     d="M602.4,167.9c.6,5.1,1.5,10.1,2.5,15.1.4,1.9,3.3,1.1,2.9-.8-1-4.7-1.8-9.5-2.4-14.3-.3-1.9-3.3-1.9-3,0Z"
     transform="translate(-4.26 -9.2)"
     id="path351892" />
  <path
     class="cls-31"
     d="M585.2,182h.6a1.5,1.5,0,0,0,0-3h-.6a1.5,1.5,0,0,0,0,3Z"
     transform="translate(-4.26 -9.2)"
     id="path351894" />
  <path
     class="cls-31"
     d="M606.5,166.8a140.41,140.41,0,0,0,2,14.5c.4,1.9,3.3,1.1,2.9-.8a105,105,0,0,1-1.9-13.7c-.2-1.9-3.2-1.9-3,0Z"
     transform="translate(-4.26 -9.2)"
     id="path351896" />
  <path
     class="cls-32"
     d="M592.5,174.6a28.67,28.67,0,0,1,1.3,8.7,1.5,1.5,0,0,0,3,0,30.81,30.81,0,0,0-1.4-9.5c-.6-1.9-3.5-1.1-2.9.8Z"
     transform="translate(-4.26 -9.2)"
     id="path351898" />
  <path
     class="cls-33"
     d="M597.1,171.5c1.8,4.5.3,9.6,2.4,14.1.8,1.7,3.4.2,2.6-1.5-2-4.1-.4-9.1-2.1-13.3-.7-1.9-3.6-1.1-2.9.7Z"
     transform="translate(-4.26 -9.2)"
     id="path351900" />
  <path
     d="M422,188.4a19.69,19.69,0,0,1,12.9-14.6c7.4-2.6,14.8-.8,21.7,2.5,12.9,6.2,24,17,38.8,18.3,14,1.2,21.9-9.6,31.1-18,6.7-6.1,14.1-9,23.2-7.4,8.3,1.5,16,5.8,23.4,9.6,12.5,6.4,28.1,12.3,40.8,3.2,1.5-1.1.1-3.7-1.5-2.6-15,10.9-32.5-1-46.5-7.6-12.6-6-26.3-9.2-38.2,0-5.3,4.1-9.5,9.4-14.6,13.7-7.2,6.1-15.7,7.6-24.7,4.7-15-4.8-26.4-18-42.3-20.3-12.2-1.8-24.3,5.6-27,17.9a1.48,1.48,0,0,0,2.9.6Z"
     transform="translate(-4.26 -9.2)"
     id="path351902" />
  <path
     d="M420.1,193.1c5.6-5.5,15.3,2.3,21.8,3a26.57,26.57,0,0,0,14.4-2.7c11.2-5,20.1-13.9,30.8-19.7,5.8-3.1,12.3-5.3,18.9-4.2s12.3,4.9,17.6,8.8c9.2,6.7,19,16.1,31.1,16.2,8.8.1,16.4-5.4,23.6-9.9,9.9-6.2,19.9-12.5,29.8-18.7,1.6-1,.1-3.6-1.5-2.6-8.5,5.4-17.1,10.7-25.6,16.1-7.8,4.9-16.6,12.2-26.2,12.1-13.5-.1-24.2-12.7-34.9-19.3-10-6.2-20.3-7.6-31.2-2.6-11.4,5.2-20.3,14.4-31.4,20.1-6.5,3.4-13.3,4.7-20.4,2.1-6.3-2.3-13.3-6.3-18.9-.8a1.48,1.48,0,1,0,2.1,2.1Z"
     transform="translate(-4.26 -9.2)"
     id="path351904" />
  <path
     class="cls-32"
     d="M429.9,258.7c-.3,3.1.5,6,1,9a109.19,109.19,0,0,1,1.1,11.5c.1,1.9,3.1,1.9,3,0-.1-3.1-.3-6.2-.7-9.3-.5-3.7-1.7-7.4-1.3-11.1.1-2-2.9-2-3.1-.1Z"
     transform="translate(-4.26 -9.2)"
     id="path351906" />
  <path
     class="cls-32"
     d="M476.3,259c-.8,6,1,13,1.7,19,.2,1.9,3.2,1.9,3,0-.3-3-.7-6.1-1-9.1s-1.2-6.2-.8-9.1c.2-1.9-2.6-2.7-2.9-.8Z"
     transform="translate(-4.26 -9.2)"
     id="path351908" />
  <path
     class="cls-32"
     d="M481.3,257.8c1.4,6.8,2.5,13.7,3.4,20.6.2,1.9,3.2,1.9,3,0-.8-7.2-2-14.3-3.5-21.4-.4-1.8-3.3-1-2.9.8Z"
     transform="translate(-4.26 -9.2)"
     id="path351910" />
  <path
     class="cls-32"
     d="M532.7,256c-.1,6.3-.2,12.6-.1,19a1.5,1.5,0,0,0,3,0c-.1-6.3-.1-12.6.1-19a1.5,1.5,0,0,0-3,0Z"
     transform="translate(-4.26 -9.2)"
     id="path351912" />
  <path
     class="cls-32"
     d="M556.4,264.4v9.5a1.5,1.5,0,0,0,3,0v-9.5a1.5,1.5,0,0,0-3,0Z"
     transform="translate(-4.26 -9.2)"
     id="path351914" />
  <path
     class="cls-31"
     d="M423.8,261.3a67.1,67.1,0,0,1,3.8,18.2c.1,1.9,3.1,1.9,3,0a68.36,68.36,0,0,0-3.9-19c-.7-1.8-3.6-1.1-2.9.8Z"
     transform="translate(-4.26 -9.2)"
     id="path351916" />
  <path
     class="cls-31"
     d="M497,258.9a69.63,69.63,0,0,1,2.8,15c.2,1.9,3.2,1.9,3,0a77.15,77.15,0,0,0-2.9-15.8c-.6-1.8-3.5-1-2.9.8Z"
     transform="translate(-4.26 -9.2)"
     id="path351918" />
  <path
     class="cls-31"
     d="M501.1,260.6A59.45,59.45,0,0,0,504,269c.8,1.8,3.3.2,2.6-1.5a53.65,53.65,0,0,1-2.6-7.7,1.5,1.5,0,0,0-2.9.8Z"
     transform="translate(-4.26 -9.2)"
     id="path351920" />
  <path
     class="cls-31"
     d="M543,258.4c.5,6.4.9,12.8,1.4,19.3.1,1.9,3.1,1.9,3,0-.5-6.4-.9-12.8-1.4-19.3-.1-1.9-3.1-1.9-3,0Z"
     transform="translate(-4.26 -9.2)"
     id="path351922" />
  <path
     class="cls-30"
     d="M436.8,258.1a203.68,203.68,0,0,1,.2,22.1c-.1,1.9,2.9,1.9,3,0a203.68,203.68,0,0,0-.2-22.1c-.1-1.9-3.1-1.9-3,0Z"
     transform="translate(-4.26 -9.2)"
     id="path351924" />
  <path
     class="cls-30"
     d="M486.4,257.4c3.7,6.5,3.7,14.1,5.5,21.2a1.5,1.5,0,0,0,2.9-.8c-1.8-7.4-1.9-15.2-5.8-21.9-1-1.7-3.6-.1-2.6,1.5Z"
     transform="translate(-4.26 -9.2)"
     id="path351926" />
  <path
     class="cls-30"
     d="M538.6,255.6a128.92,128.92,0,0,1,.2,22.4c-.1,1.9,2.9,1.9,3,0a152.15,152.15,0,0,0-.2-22.4c-.2-1.9-3.2-1.9-3,0Z"
     transform="translate(-4.26 -9.2)"
     id="path351928" />
  <path
     class="cls-30"
     d="M561.4,265.4a18.86,18.86,0,0,0-.2,5.3c.2,1.9,3.2,1.9,3,0a22.57,22.57,0,0,1,.1-4.5,1.5,1.5,0,0,0-2.9-.8Z"
     transform="translate(-4.26 -9.2)"
     id="path351930" />
  <path
     class="cls-33"
     d="M418.4,263.9a39,39,0,0,1,4.6,12.9c.3,1.9,3.2,1.1,2.9-.8a43.44,43.44,0,0,0-4.9-13.6,1.5,1.5,0,0,0-2.6,1.5Z"
     transform="translate(-4.26 -9.2)"
     id="path351932" />
  <path
     class="cls-33"
     d="M447.5,265.5a88.46,88.46,0,0,1,1.6,8.7c.3,1.9,3.3,1.9,3,0-.4-3.2-1-6.3-1.7-9.5a1.5,1.5,0,0,0-2.9.8Z"
     transform="translate(-4.26 -9.2)"
     id="path351934" />
  <path
     class="cls-33"
     d="M452.5,268.7l1.2,2.1a1.58,1.58,0,0,0,2.1.5,1.49,1.49,0,0,0,.5-2.1l-1.2-2.1a1.53,1.53,0,0,0-2.6,1.6Z"
     transform="translate(-4.26 -9.2)"
     id="path351936" />
  <path
     class="cls-33"
     d="M491.9,256.1c1.3,6.5,2.7,13.1,4,19.6.4,1.9,3.3,1.1,2.9-.8-1.3-6.5-2.7-13.1-4-19.6-.4-1.9-3.3-1.1-2.9.8Z"
     transform="translate(-4.26 -9.2)"
     id="path351938" />
  <path
     class="cls-33"
     d="M548.6,259.2a163.49,163.49,0,0,1,2.8,16.8c.2,1.9,3.2,1.9,3,0a174.79,174.79,0,0,0-3-17.6c-.3-1.9-3.2-1.1-2.8.8Z"
     transform="translate(-4.26 -9.2)"
     id="path351940" />
  <path
     class="cls-33"
     d="M526.8,256.7a80.32,80.32,0,0,0,.3,15.5c.2,1.9,3.2,1.9,3,0a89.2,89.2,0,0,1-.3-15.5c.1-2-2.9-1.9-3,0Z"
     transform="translate(-4.26 -9.2)"
     id="path351942" />
  <path
     class="cls-33"
     d="M522.2,259.1a59.33,59.33,0,0,0,.6,8.4c.2,1.9,3.2,1.9,3,0a59.33,59.33,0,0,1-.6-8.4,1.5,1.5,0,0,0-3,0Z"
     transform="translate(-4.26 -9.2)"
     id="path351944" />
  <path
     class="cls-33"
     d="M472.4,262.6a95.26,95.26,0,0,0,.8,14.1c.2,1.9,3.2,1.9,3,0a94.5,94.5,0,0,1-.8-14.1c.1-1.9-2.9-1.9-3,0Z"
     transform="translate(-4.26 -9.2)"
     id="path351946" />
  <path
     class="cls-31"
     d="M442.2,261.6c.1,5.3.3,10.5.4,15.8a1.5,1.5,0,0,0,3,0c-.1-5.3-.3-10.5-.4-15.8a1.5,1.5,0,0,0-3,0Z"
     transform="translate(-4.26 -9.2)"
     id="path351948" />
  <path
     class="cls-30"
     d="M414.1,266.9c.9,2.9,1.8,5.9,2.7,8.8.6,1.8,3.5,1.1,2.9-.8-.9-2.9-1.8-5.9-2.7-8.8-.6-1.8-3.5-1-2.9.8Z"
     transform="translate(-4.26 -9.2)"
     id="path351950" />
  <path
     class="cls-30"
     d="M467,267.9a30.19,30.19,0,0,0,.3,6,1.54,1.54,0,0,0,1.5,1.5c.7,0,1.6-.7,1.5-1.5a30.19,30.19,0,0,1-.3-6,1.5,1.5,0,0,0-3,0Z"
     transform="translate(-4.26 -9.2)"
     id="path351952" />
  <path
     class="cls-30"
     d="M516.6,262.4c.6,1.2,1.2,2.3,1.8,3.5.9,1.7,3.5.2,2.6-1.5-.6-1.2-1.2-2.3-1.8-3.5-.9-1.8-3.5-.3-2.6,1.5Z"
     transform="translate(-4.26 -9.2)"
     id="path351954" />
  <path
     class="cls-30"
     d="M578.2,263.7l1.2,6.3c.4,1.9,3.2,1.1,2.9-.8l-1.2-6.3c-.4-1.9-3.2-1.1-2.9.8Z"
     transform="translate(-4.26 -9.2)"
     id="path351956" />
  <path
     class="cls-30"
     d="M592.2,254.6c.6,5.1,1.5,10.1,2.5,15.1.4,1.9,3.3,1.1,2.9-.8-1-4.7-1.8-9.5-2.4-14.3-.2-1.9-3.2-1.9-3,0Z"
     transform="translate(-4.26 -9.2)"
     id="path351958" />
  <path
     class="cls-31"
     d="M575,268.7h.6a1.5,1.5,0,0,0,0-3H575a1.54,1.54,0,0,0-1.5,1.5,1.61,1.61,0,0,0,1.5,1.5Z"
     transform="translate(-4.26 -9.2)"
     id="path351960" />
  <path
     class="cls-31"
     d="M596.3,253.5a140.41,140.41,0,0,0,2,14.5c.4,1.9,3.3,1.1,2.9-.8a105,105,0,0,1-1.9-13.7c-.1-1.9-3.1-1.9-3,0Z"
     transform="translate(-4.26 -9.2)"
     id="path351962" />
  <path
     class="cls-32"
     d="M582.3,261.3a28.67,28.67,0,0,1,1.3,8.7,1.5,1.5,0,0,0,3,0,30.81,30.81,0,0,0-1.4-9.5c-.6-1.8-3.5-1.1-2.9.8Z"
     transform="translate(-4.26 -9.2)"
     id="path351964" />
  <path
     class="cls-33"
     d="M587,258.2c1.8,4.5.3,9.6,2.4,14.1.8,1.7,3.4.2,2.6-1.5-2-4.1-.4-9.1-2.1-13.3-.7-1.9-3.6-1.1-2.9.7Z"
     transform="translate(-4.26 -9.2)"
     id="path351966" />
  <path
     d="M411.8,275.2a19.69,19.69,0,0,1,12.9-14.6c7.4-2.6,14.8-.8,21.7,2.5,12.9,6.2,24,17,38.8,18.3,14,1.2,21.9-9.6,31.1-18,6.7-6.1,14.1-9,23.2-7.4,8.3,1.5,16,5.8,23.4,9.6,12.5,6.4,28.1,12.3,40.8,3.2,1.5-1.1.1-3.7-1.5-2.6-15,10.9-32.5-1-46.5-7.6-12.6-6-26.3-9.2-38.2,0-5.3,4.1-9.5,9.4-14.6,13.7-7.2,6.1-15.7,7.6-24.7,4.7-15-4.8-26.4-18-42.3-20.3-12.2-1.8-24.3,5.6-27,17.9-.4,1.6,2.5,2.4,2.9.6Z"
     transform="translate(-4.26 -9.2)"
     id="path351968" />
  <path
     d="M410,279.9c5.6-5.5,15.3,2.3,21.8,3a26.57,26.57,0,0,0,14.4-2.7c11.2-5,20.1-13.9,30.8-19.7,5.8-3.1,12.3-5.3,18.9-4.2s12.3,4.9,17.6,8.8c9.2,6.7,19,16.1,31.1,16.2,8.8.1,16.4-5.4,23.6-9.9,9.9-6.2,19.9-12.5,29.8-18.7,1.6-1,.1-3.6-1.5-2.6-8.5,5.4-17.1,10.7-25.6,16.1-7.8,4.9-16.6,12.2-26.2,12.1-13.5-.1-24.2-12.7-34.9-19.3-10-6.2-20.3-7.6-31.2-2.6-11.4,5.2-20.3,14.4-31.4,20.1-6.5,3.4-13.3,4.7-20.4,2.1-6.3-2.3-13.3-6.3-18.9-.8-1.4,1.3.7,3.4,2.1,2.1Z"
     transform="translate(-4.26 -9.2)"
     id="path351970" />
  <path
     class="cls-30"
     d="M452.2,471a108.46,108.46,0,0,1,1.1,13.9,1.5,1.5,0,0,0,3,0,121.36,121.36,0,0,0-1.2-14.7c-.2-1.9-3.1-1.1-2.9.8Z"
     transform="translate(-4.26 -9.2)"
     id="path351972" />
  <path
     class="cls-30"
     d="M458.8,468.6c1.2,6.9,2.5,13.9,3.7,20.8.3,1.9,3.2,1.1,2.9-.8-1.2-6.9-2.5-13.9-3.7-20.8-.3-1.9-3.2-1.1-2.9.8Z"
     transform="translate(-4.26 -9.2)"
     id="path351974" />
  <path
     class="cls-30"
     d="M513.5,472.8c.1,5.7.3,11.4.7,17.1.1,1.9,3.1,1.9,3,0-.4-5.7-.7-11.4-.7-17.1-.1-1.9-3.1-1.9-3,0Z"
     transform="translate(-4.26 -9.2)"
     id="path351976" />
  <path
     class="cls-30"
     d="M535.1,473.1c.7,6.1,1.2,12.3,2.4,18.4.4,1.9,3.3,1.1,2.9-.8-1.1-5.8-1.6-11.7-2.3-17.6-.2-1.9-3.2-1.9-3,0Z"
     transform="translate(-4.26 -9.2)"
     id="path351978" />
  <path
     class="cls-30"
     d="M594.6,465a58,58,0,0,0,1.8,14.4,1.5,1.5,0,0,0,2.9-.8,56.93,56.93,0,0,1-1.7-13.6,1.5,1.5,0,0,0-3,0Z"
     transform="translate(-4.26 -9.2)"
     id="path351980" />
  <path
     class="cls-31"
     d="M473.1,467.3c1.2,7.8,2.3,15.7,3.1,23.6.2,1.9,3.2,1.9,3,0-.9-8.2-1.9-16.3-3.2-24.4-.3-1.9-3.2-1.1-2.9.8Z"
     transform="translate(-4.26 -9.2)"
     id="path351982" />
  <path
     class="cls-31"
     d="M524.1,472.2c.5,4.3,1.1,8.6,1.6,12.9.3,2.8,0,6.9,1.5,9.3a1.51,1.51,0,0,0,2.4.3c0-.1.1-.1.1-.2a1.45,1.45,0,0,0,0-2.1l-.1-.1c-1.5-1.3-3.6.9-2.1,2.1l.1.1v-2.1c0,.1-.1.1-.1.2l2.4.3c-1.4-2.3-1.1-7.7-1.4-10.2-.4-3.5-.9-7-1.3-10.5-.3-1.9-3.3-1.9-3.1,0Z"
     transform="translate(-4.26 -9.2)"
     id="path351984" />
  <path
     class="cls-31"
     d="M564.2,470.3a109.48,109.48,0,0,0,.4,12.8c.2,1.9,3.2,1.9,3,0a109.48,109.48,0,0,1-.4-12.8c.1-1.9-2.9-1.9-3,0Z"
     transform="translate(-4.26 -9.2)"
     id="path351986" />
  <path
     class="cls-32"
     d="M465.4,468c2.4,7.9,4.5,15.9,6.1,23.9.4,1.9,3.3,1.1,2.9-.8a238.94,238.94,0,0,0-6.1-23.9,1.5,1.5,0,0,0-2.9.8Z"
     transform="translate(-4.26 -9.2)"
     id="path351988" />
  <path
     class="cls-32"
     d="M505.5,475.3c1,4.1,1.8,8.3,2.6,12.5.3,1.9,3.2,1.1,2.9-.8-.7-4.2-1.6-8.4-2.6-12.5-.5-1.8-3.4-1-2.9.8Z"
     transform="translate(-4.26 -9.2)"
     id="path351990" />
  <path
     class="cls-32"
     d="M577.6,463.8c.8,7.2,1.7,14.3,2.5,21.5.2,1.9,3.2,1.9,3,0-.8-7.2-1.7-14.3-2.5-21.5-.2-1.9-3.2-1.9-3,0Z"
     transform="translate(-4.26 -9.2)"
     id="path351992" />
  <path
     class="cls-32"
     d="M601.7,466.6c.4,2.9.8,5.7,1.4,8.5.4,1.9,3.3,1.1,2.9-.8-.5-2.6-1-5.1-1.3-7.7-.2-1.9-3.2-1.9-3,0Z"
     transform="translate(-4.26 -9.2)"
     id="path351994" />
  <path
     class="cls-33"
     d="M480.9,474.7c1,4.1,1.9,8.1,2.9,12.2.4,1.9,3.3,1.1,2.9-.8-1-4.1-1.9-8.1-2.9-12.2-.5-1.8-3.4-1-2.9.8Z"
     transform="translate(-4.26 -9.2)"
     id="path351996" />
  <path
     class="cls-33"
     d="M487.1,478.6c.6,1.3,1.1,2.6,1.7,3.9.5,1.1.8,2.4,1.9,3a1.36,1.36,0,0,0,1.5,0,1.59,1.59,0,0,0,.9-1.2,1.62,1.62,0,0,0-.7-1.7l-.1-.1c-1.6-1-3.1,1.6-1.5,2.6l.1.1c-.2-.6-.5-1.1-.7-1.7v.2c.2-.3.5-.6.7-.9-.1,0-.1.1-.2.1h1.5c.2.2.2.1-.1-.4-.1-.3-.3-.6-.4-.9-.2-.5-.4-.9-.6-1.4-.5-1.1-.9-2.1-1.4-3.2-.7-1.7-3.3-.2-2.6,1.6Z"
     transform="translate(-4.26 -9.2)"
     id="path351998" />
  <path
     class="cls-33"
     d="M518.4,473.2c1.6,6.4.4,13,2.1,19.4a1.5,1.5,0,0,0,2.9-.8c-1.8-6.3-.5-13-2.1-19.4a1.5,1.5,0,0,0-2.9.8Z"
     transform="translate(-4.26 -9.2)"
     id="path352000" />
  <path
     class="cls-33"
     d="M542.5,475.4c.7,3.7,1.4,7.5,2.1,11.2.3,1.9,3.2,1.1,2.9-.8-.7-3.7-1.4-7.5-2.1-11.2-.4-1.9-3.3-1.1-2.9.8Z"
     transform="translate(-4.26 -9.2)"
     id="path352002" />
  <path
     class="cls-33"
     d="M571,466.3c.3,5.9-.4,13,1.6,18.7.6,1.8,3.5,1,2.9-.8-1.9-5.4-1.2-12.2-1.5-17.9-.1-1.9-3.1-1.9-3,0Z"
     transform="translate(-4.26 -9.2)"
     id="path352004" />
  <path
     class="cls-33"
     d="M585.8,464.1a134,134,0,0,0,3.1,18.8c.5,1.9,3.3,1.1,2.9-.8a135.19,135.19,0,0,1-3-18c-.1-1.9-3.1-1.9-3,0Z"
     transform="translate(-4.26 -9.2)"
     id="path352006" />
  <path
     d="M440.5,486.7c3.6-5.5,7.3-11.1,12.6-15.1,7.5-5.7,16.1-5,24.4-1,12.7,6.2,22.6,17.1,35.6,22.7,10.1,4.3,22.8,5.7,32.1-1.2,4.3-3.2,7.2-7.7,10.2-12.1,4.6-6.8,9.6-11.6,17.6-14.1,16.3-5,34.7-.9,47.8,9.8,1.5,1.2,3.6-.9,2.1-2.1a56.16,56.16,0,0,0-37.7-12.7c-6.7.3-13.7,1.7-19.7,4.9-5.8,3.1-9.5,8.1-13.1,13.3-4.5,6.7-9.3,12.7-17.6,14.3-8,1.6-16.5-.7-23.6-4.3-13.7-7.1-24.7-20.3-40-24.1-15.6-3.9-25.7,8.5-33.3,20.1-1.1,1.7,1.5,3.2,2.6,1.6Z"
     transform="translate(-4.26 -9.2)"
     id="path352008" />
  <path
     d="M438,465.2c5.9,12.2,13,25.8,27.1,29.6,14.5,3.9,22.9-7.8,33.7-14.9a52.13,52.13,0,0,1,42.8-6.1c7.6,2.3,13.7,7,20.5,10.7a33.39,33.39,0,0,0,20.3,3.9c16.6-2.3,28.5-15,39.2-26.7,1.3-1.4-.8-3.6-2.1-2.1-12.3,13.6-29.4,31.4-49.9,25-8.5-2.7-15.3-9.2-23.6-12.4a53.93,53.93,0,0,0-21.8-3.4,55.49,55.49,0,0,0-20.4,4.9c-7.6,3.5-13.1,9.2-19.7,14-9,6.5-19.3,6-28-1-7.3-5.9-11.5-14.8-15.5-23.1-.9-1.7-3.5-.2-2.6,1.6Z"
     transform="translate(-4.26 -9.2)"
     id="path352010" />
  <path
     class="cls-30"
     d="M429.5,542.1a108.46,108.46,0,0,1,1.1,13.9,1.5,1.5,0,0,0,3,0,121.36,121.36,0,0,0-1.2-14.7c-.3-1.9-3.2-1.1-2.9.8Z"
     transform="translate(-4.26 -9.2)"
     id="path352012" />
  <path
     class="cls-30"
     d="M436.1,539.7c1.2,6.9,2.5,13.9,3.7,20.8.3,1.9,3.2,1.1,2.9-.8-1.2-6.9-2.5-13.9-3.7-20.8-.4-1.9-3.3-1.1-2.9.8Z"
     transform="translate(-4.26 -9.2)"
     id="path352014" />
  <path
     class="cls-30"
     d="M490.7,543.9c.1,5.7.3,11.4.7,17.1.1,1.9,3.1,1.9,3,0-.4-5.7-.7-11.4-.7-17.1a1.5,1.5,0,0,0-3,0Z"
     transform="translate(-4.26 -9.2)"
     id="path352016" />
  <path
     class="cls-30"
     d="M512.4,544.2c.7,6.1,1.2,12.3,2.4,18.4.4,1.9,3.3,1.1,2.9-.8-1.1-5.8-1.6-11.7-2.3-17.6-.2-1.9-3.2-1.9-3,0Z"
     transform="translate(-4.26 -9.2)"
     id="path352018" />
  <path
     class="cls-30"
     d="M571.8,536.1a58,58,0,0,0,1.8,14.4,1.5,1.5,0,0,0,2.9-.8,56.93,56.93,0,0,1-1.7-13.6,1.5,1.5,0,0,0-3,0Z"
     transform="translate(-4.26 -9.2)"
     id="path352020" />
  <path
     class="cls-31"
     d="M450.3,538.4c1.2,7.8,2.3,15.7,3.1,23.6.2,1.9,3.2,1.9,3,0-.9-8.2-1.9-16.3-3.2-24.4-.3-1.9-3.2-1.1-2.9.8Z"
     transform="translate(-4.26 -9.2)"
     id="path352022" />
  <path
     class="cls-31"
     d="M501.3,543.3c.5,4.3,1.1,8.6,1.6,12.9.3,2.8,0,6.9,1.5,9.3a1.51,1.51,0,0,0,2.4.3c0-.1.1-.1.1-.2a1.45,1.45,0,0,0,0-2.1l-.1-.1c-1.5-1.3-3.6.9-2.1,2.1l.1.1v-2.1c0,.1-.1.1-.1.2l2.4.3c-1.4-2.3-1.1-7.7-1.4-10.2-.4-3.5-.9-7-1.3-10.5-.3-1.9-3.3-1.9-3.1,0Z"
     transform="translate(-4.26 -9.2)"
     id="path352024" />
  <path
     class="cls-31"
     d="M541.5,541.4a109.48,109.48,0,0,0,.4,12.8c.2,1.9,3.2,1.9,3,0a109.48,109.48,0,0,1-.4-12.8,1.5,1.5,0,0,0-3,0Z"
     transform="translate(-4.26 -9.2)"
     id="path352026" />
  <path
     class="cls-32"
     d="M442.7,539.1c2.4,7.9,4.5,15.9,6.1,23.9.4,1.9,3.3,1.1,2.9-.8a238.94,238.94,0,0,0-6.1-23.9c-.6-1.9-3.5-1.1-2.9.8Z"
     transform="translate(-4.26 -9.2)"
     id="path352028" />
  <path
     class="cls-32"
     d="M482.7,546.5c1,4.1,1.8,8.3,2.6,12.5.3,1.9,3.2,1.1,2.9-.8-.7-4.2-1.6-8.4-2.6-12.5-.4-1.9-3.3-1.1-2.9.8Z"
     transform="translate(-4.26 -9.2)"
     id="path352030" />
  <path
     class="cls-32"
     d="M554.9,534.9c.8,7.2,1.7,14.3,2.5,21.5.2,1.9,3.2,1.9,3,0-.8-7.2-1.7-14.3-2.5-21.5-.3-1.9-3.3-1.9-3,0Z"
     transform="translate(-4.26 -9.2)"
     id="path352032" />
  <path
     class="cls-32"
     d="M579,537.7c.4,2.9.8,5.7,1.4,8.5.4,1.9,3.3,1.1,2.9-.8-.5-2.6-1-5.1-1.3-7.7-.3-1.9-3.3-1.9-3,0Z"
     transform="translate(-4.26 -9.2)"
     id="path352034" />
  <path
     class="cls-33"
     d="M458.1,545.8c1,4.1,1.9,8.1,2.9,12.2.4,1.9,3.3,1.1,2.9-.8-1-4.1-1.9-8.1-2.9-12.2-.4-1.8-3.3-1-2.9.8Z"
     transform="translate(-4.26 -9.2)"
     id="path352036" />
  <path
     class="cls-33"
     d="M464.4,549.7c.6,1.3,1.1,2.6,1.7,3.9.5,1.1.8,2.4,1.9,3a1.36,1.36,0,0,0,1.5,0,1.59,1.59,0,0,0,.9-1.2,1.62,1.62,0,0,0-.7-1.7l-.1-.1c-1.6-1-3.1,1.6-1.5,2.6l.1.1c-.2-.6-.5-1.1-.7-1.7v.2c.2-.3.5-.6.7-.9-.1,0-.1.1-.2.1h1.5c.2.2.2.1-.1-.4-.1-.3-.3-.6-.4-.9-.2-.5-.4-.9-.6-1.4-.5-1.1-.9-2.1-1.4-3.2-.8-1.7-3.4-.2-2.6,1.6Z"
     transform="translate(-4.26 -9.2)"
     id="path352038" />
  <path
     class="cls-33"
     d="M495.6,544.3c1.6,6.4.4,13,2.1,19.4a1.5,1.5,0,0,0,2.9-.8c-1.8-6.3-.5-13-2.1-19.4a1.5,1.5,0,0,0-2.9.8Z"
     transform="translate(-4.26 -9.2)"
     id="path352040" />
  <path
     class="cls-33"
     d="M519.7,546.5c.7,3.7,1.4,7.5,2.1,11.2.3,1.9,3.2,1.1,2.9-.8-.7-3.7-1.4-7.5-2.1-11.2-.3-1.9-3.2-1.1-2.9.8Z"
     transform="translate(-4.26 -9.2)"
     id="path352042" />
  <path
     class="cls-33"
     d="M548.3,537.4c.3,5.9-.4,13,1.6,18.7.6,1.8,3.5,1,2.9-.8-1.9-5.4-1.2-12.2-1.5-17.9-.1-1.9-3.1-1.9-3,0Z"
     transform="translate(-4.26 -9.2)"
     id="path352044" />
  <path
     class="cls-33"
     d="M563.1,535.2a134,134,0,0,0,3.1,18.8c.5,1.9,3.3,1.1,2.9-.8a135.19,135.19,0,0,1-3-18c-.2-1.9-3.2-1.9-3,0Z"
     transform="translate(-4.26 -9.2)"
     id="path352046" />
  <path
     d="M417.7,557.8c3.6-5.5,7.3-11.1,12.6-15.1,7.5-5.7,16.1-5,24.4-1,12.7,6.2,22.6,17.1,35.6,22.7,10.1,4.3,22.8,5.7,32.1-1.2,4.3-3.2,7.2-7.7,10.2-12.1,4.6-6.8,9.6-11.6,17.6-14.1,16.3-5,34.7-.9,47.8,9.8,1.5,1.2,3.6-.9,2.1-2.1A56.16,56.16,0,0,0,562.4,532c-6.7.3-13.7,1.7-19.7,4.9-5.8,3.1-9.5,8.1-13.1,13.3-4.5,6.7-9.3,12.7-17.6,14.3-8,1.6-16.5-.7-23.6-4.3-13.7-7.1-24.7-20.3-40-24.1-15.6-3.9-25.7,8.5-33.3,20.1a1.53,1.53,0,0,0,2.6,1.6Z"
     transform="translate(-4.26 -9.2)"
     id="path352048" />
  <path
     d="M415.2,536.3c5.9,12.2,13,25.8,27.1,29.6,14.5,3.9,22.9-7.8,33.7-14.9a52.13,52.13,0,0,1,42.8-6.1c7.6,2.3,13.7,7,20.5,10.7a33.39,33.39,0,0,0,20.3,3.9c16.6-2.3,28.5-15,39.2-26.7,1.3-1.4-.8-3.6-2.1-2.1-12.3,13.6-29.4,31.4-49.9,25-8.5-2.7-15.3-9.2-23.6-12.4a53.93,53.93,0,0,0-21.8-3.4,55.49,55.49,0,0,0-20.4,4.9c-7.6,3.5-13.1,9.2-19.7,14-9,6.5-19.3,6-28-1-7.3-5.9-11.5-14.8-15.5-23.1-.8-1.7-3.4-.2-2.6,1.6Z"
     transform="translate(-4.26 -9.2)"
     id="path352050" />
  <path
     d="M427.5,24.3c-.5,11.1-.5,22.2,0,33.4.2,5.2.6,10.5,1,15.7.3,3-.4,7.5,1.7,10a1.6,1.6,0,0,0,1.5.4c.2-.1.4-.1.5-.2a1.6,1.6,0,0,0,1.1-1.4v-.5c-.1-1.9-3.1-1.9-3,0v.5a17.1,17.1,0,0,1,1.1-1.4c1.7-.6-.2-11.4-.3-13.1-.3-4.9-.6-9.8-.7-14.7-.3-9.5-.2-19,.2-28.5a1.55,1.55,0,0,0-3.1-.2Z"
     transform="translate(-4.26 -9.2)"
     id="path352052" />
  <path
     d="M428.6,30.7c16.2-3.6,32.8,5.7,37.2,22,1.1,4,1.7,8.8-.6,12.5-2,3.3-6,5-9.4,6.3a108.27,108.27,0,0,1-22.2,6.4c-1.9.3-1.1,3.2.8,2.9,9.3-1.4,20.3-4.2,28.4-9.3,7.1-4.4,8-12.1,6-19.7-4.9-17.9-23.1-28-40.9-24.1a1.54,1.54,0,0,0,.7,3Z"
     transform="translate(-4.26 -9.2)"
     id="path352054" />
  <path
     d="M529.1,80.5c8.3-16.7,16.2-33.5,23.7-50.6a25.12,25.12,0,0,1-2.7-.4,265.12,265.12,0,0,0,11.4,24.1c4.5,8.3,10.8,16.2,14.1,25,.7,1.8,3.6,1,2.9-.8-2.9-8-8.5-15.1-12.6-22.5A260.8,260.8,0,0,1,553,28.7c-.4-1-2.2-1.7-2.7-.4-7.5,17.1-15.4,33.9-23.7,50.6-.9,1.8,1.7,3.3,2.5,1.6Z"
     transform="translate(-4.26 -9.2)"
     id="path352056" />
  <path
     d="M536.8,65a347.3,347.3,0,0,0,36.7-4.7c1.9-.3,1.1-3.2-.8-2.9A335.57,335.57,0,0,1,536.8,62c-1.9.1-1.9,3.1,0,3Z"
     transform="translate(-4.26 -9.2)"
     id="path352058" />
  <path
     d="M479.8,80.2c0-8.7-.1-17.3-.1-26,0-8.9-.5-17.9,1.2-26.7a25.12,25.12,0,0,0-2.7.4,265.43,265.43,0,0,0,34,48.2,1.55,1.55,0,0,0,2.6-1.1c.2-16-.2-31.9-1.3-47.8-.1-1.9-3.1-1.9-3,0,1.1,15.9,1.5,31.9,1.3,47.8.9-.4,1.7-.7,2.6-1.1a269,269,0,0,1-33.6-47.6,1.48,1.48,0,0,0-2.7.4c-1.6,8.4-1.3,17-1.3,25.5.1,9.3.1,18.7.2,28a1.4,1.4,0,1,0,2.8,0Z"
     transform="translate(-4.26 -9.2)"
     id="path352060" />
  <path
     d="M314.6,71.8a271,271,0,0,0,70.7-6.6,1.51,1.51,0,0,0,0-2.9,80.39,80.39,0,0,0-13.6-2.9v3A286,286,0,0,1,405,64.3c-.1-1-.3-2-.4-2.9a54.41,54.41,0,0,0-24.5,12.4c-1.5,1.3.7,3.4,2.1,2.1a52,52,0,0,1,23.2-11.6c1.8-.4,1.2-2.8-.4-2.9a283.48,283.48,0,0,0-33.3-1.9c-2,0-1.9,2.8,0,3a69.58,69.58,0,0,1,12.8,2.8V62.4a269.92,269.92,0,0,1-70,6.5c-1.8-.2-1.8,2.8.1,2.9Z"
     transform="translate(-4.26 -9.2)"
     id="path352062" />
  <path
     d="M415.4,381.3c-3.5-7.5-14.1-6.5-19.2-1.1-3.7,3.9-4.5,9.8-4.5,15,.1,7.8,1.6,15.6,2.3,23.4,3.2,33.2,3.6,66.5,2.9,99.8-.4,19.3-1.1,38.6-1.8,57.9,0,.6.5,1.4,1.1,1.4a45.34,45.34,0,0,0,20.7-1.7c1.8-.6,1-3.5-.8-2.9a42.72,42.72,0,0,1-19.1,1.7,17.1,17.1,0,0,0,1.1,1.4c1.4-36.6,2.7-73.2,1.7-109.8-.5-18.3-1.6-36.5-3.6-54.7-.8-7.8-3.2-16.9-.7-24.6,2.1-6.4,13-12.9,17.1-4.3,1,1.8,3.6.3,2.8-1.5Z"
     transform="translate(-4.26 -9.2)"
     id="path352064" />
  <path
     d="M607.5,372.1a51.21,51.21,0,0,0,22.5,4.5l-1.5-1.5a1004.76,1004.76,0,0,0-5.8,108.3c0,17.8.5,35.5,1.4,53.2.2,4.6.5,9.2.8,13.8.3,5,1.1,10.5-2.8,14.5-6.3,6.3-17.2,8.3-25.7,8.2a1.5,1.5,0,0,0,0,3,43.77,43.77,0,0,0,23.5-5.9c6.4-3.8,8.5-8.8,8.2-16.1-.8-19.6-2.2-39.1-2.4-58.8a1025.25,1025.25,0,0,1,5.7-120.1c.1-.8-.8-1.5-1.5-1.5a48.92,48.92,0,0,1-21-4.1c-1.6-.9-3.2,1.7-1.4,2.5Z"
     transform="translate(-4.26 -9.2)"
     id="path352066" />
  <path
     d="M406.66,147.23c-3.65.24-7.38.37-11,.61-2.33.17-5.11-.11-7.29.58-4.16,1.4-3.67,5.56-3.43,9.21,1,14.87,1.94,29.84,2.46,44.76,1,29.25.68,58.56-.73,87.86a1.52,1.52,0,0,0,1.75,1.59c10.22-.69,20.42-1.28,30.74-2,1.92-.11,1.42-3.07-.5-3-10.22.68-20.43,1.27-30.75,1.95a21,21,0,0,0,1.75,1.58q2-39.15,1-78.29c-.29-12.19-.77-24.39-1.57-36.53-.18-3.24-.36-6.47-.63-9.82-.2-3-1-6.73-.74-9.72.61-6.07,4.94-5.13,9.28-5.4,3.34-.17,6.77-.33,10.11-.6,2,0,1.51-3-.41-2.86Z"
     transform="translate(-4.26 -9.2)"
     id="path352068" />
  <path
     d="M605.05,129.75c6.19.34,12.27.77,18.47,1.1l-1.42-1.58a623.74,623.74,0,0,0-.91,85.48q1.14,20.64,3.79,41.06c.43,3.23.86,6.36,1.29,9.58.5,3.64,2.15,8.33.08,11.42s-7,3.13-10.62,3.84l-11.24,2.4a1.5,1.5,0,0,0,.64,2.93c7-1.42,15-2.09,21.68-4.63,4.3-1.67,4-4.9,3.39-8.93-2-16.24-4.27-32.38-5.38-48.77a616,616,0,0,1,.37-94.21,1.52,1.52,0,0,0-1.41-1.58c-6.19-.33-12.28-.76-18.47-1.1a1.5,1.5,0,1,0-.26,3Z"
     transform="translate(-4.26 -9.2)"
     id="path352070" />
  <metadata
     id="metadata360729">
    <rdf:RDF>
      <cc:Work
         rdf:about="">
        <dc:title>full</dc:title>
      </cc:Work>
    </rdf:RDF>
  </metadata>
</svg>
