<?xml version="1.0" encoding="UTF-8" standalone="no"?>
<svg
   id="Layer_1"
   data-name="Layer 1"
   viewBox="0 0 1081.29 593.84"
   version="1.1"
   sodipodi:docname="dem_inf_1.svg"
   inkscape:version="1.2.2 (1:1.2.2+202212051552+b0a8486541)"
   xmlns:inkscape="http://www.inkscape.org/namespaces/inkscape"
   xmlns:sodipodi="http://sodipodi.sourceforge.net/DTD/sodipodi-0.dtd"
   xmlns="http://www.w3.org/2000/svg"
   xmlns:svg="http://www.w3.org/2000/svg"
   xmlns:rdf="http://www.w3.org/1999/02/22-rdf-syntax-ns#"
   xmlns:cc="http://creativecommons.org/ns#"
   xmlns:dc="http://purl.org/dc/elements/1.1/">
  <sodipodi:namedview
     id="namedview352073"
     pagecolor="#ffffff"
     bordercolor="#000000"
     borderopacity="0.25"
     inkscape:showpageshadow="2"
     inkscape:pageopacity="0.0"
     inkscape:pagecheckerboard="0"
     inkscape:deskcolor="#d1d1d1"
     showgrid="false"
     inkscape:zoom="0.39741343"
     inkscape:cx="542.25647"
     inkscape:cy="296.92001"
     inkscape:window-width="1223"
     inkscape:window-height="779"
     inkscape:window-x="57"
     inkscape:window-y="21"
     inkscape:window-maximized="1"
     inkscape:current-layer="Layer_1" />
  <defs
     id="defs350437">
    <style
       id="style350420">.cls-1,.cls-10,.cls-13,.cls-17,.cls-20,.cls-22,.cls-23,.cls-27,.cls-29,.cls-6{fill:none;}.cls-2{opacity:0.6;}.cls-3{fill:#39b54a;}.cls-4{fill:#006837;}.cls-24,.cls-25,.cls-5{fill:#fff;}.cls-26,.cls-27,.cls-29,.cls-6{stroke:#000;}.cls-6{stroke-miterlimit:10;}.cls-7{fill:#fdfeff;}.cls-8{fill:#b3b3b3;}.cls-9{clip-path:url(#clip-path);}.cls-10,.cls-13,.cls-15{stroke:#ff7f0e;}.cls-11,.cls-15{fill:#ff7f0e;}.cls-11,.cls-15,.cls-18,.cls-21{fill-opacity:0.5;}.cls-12{clip-path:url(#clip-path-3);}.cls-13,.cls-27{stroke-linecap:square;}.cls-13,.cls-22,.cls-23,.cls-24,.cls-25,.cls-26,.cls-29{stroke-linejoin:round;}.cls-13,.cls-15{stroke-opacity:0.5;}.cls-13{stroke-width:0.2px;}.cls-14{clip-path:url(#clip-path-5);}.cls-16{clip-path:url(#clip-path-7);}.cls-17{stroke:#2ca02c;}.cls-18{fill:#2ca02c;}.cls-19{clip-path:url(#clip-path-9);}.cls-20,.cls-23,.cls-25{stroke:#1f77b4;}.cls-21{fill:#1f77b4;}.cls-22,.cls-24{stroke:#fff;stroke-width:3px;}.cls-22,.cls-23,.cls-24,.cls-25{stroke-linecap:round;}.cls-26,.cls-27{stroke-width:0.8px;}.cls-28{opacity:0.82;}.cls-30{fill:#c1272d;}.cls-31{fill:#fcee21;}.cls-32{fill:blue;}.cls-33{fill:#8cc63f;}</style>
    <clipPath
       id="clip-path"
       transform="translate(-4.26 -9.2)">
      <rect
         class="cls-1"
         x="840.09"
         y="168.46"
         width="237.1"
         height="319.91"
         id="rect350422" />
    </clipPath>
    <clipPath
       id="clip-path-3"
       transform="translate(-4.26 -9.2)">
      <rect
         class="cls-1"
         x="856.59"
         y="225.81"
         width="158.63"
         height="272.33"
         id="rect350425" />
    </clipPath>
    <clipPath
       id="clip-path-5"
       transform="translate(-4.26 -9.2)">
      <rect
         class="cls-1"
         x="824.21"
         y="226.84"
         width="200.94"
         height="271.12"
         id="rect350428" />
    </clipPath>
    <clipPath
       id="clip-path-7"
       transform="translate(-4.26 -9.2)">
      <rect
         class="cls-1"
         x="798.09"
         y="168.46"
         width="237.1"
         height="319.91"
         id="rect350431" />
    </clipPath>
    <clipPath
       id="clip-path-9"
       transform="translate(-4.26 -9.2)">
      <rect
         class="cls-1"
         x="816.09"
         y="168.46"
         width="237.1"
         height="319.91"
         id="rect350434" />
    </clipPath>
  </defs>
  <title
     id="title350439">full</title>
  <g
     class="cls-2"
     id="g350443">
    <path
       class="cls-3"
       d="M148,500.19c2.1-1.9,4.3-3.7,6.5-5.5l-12.1,9.4c9.5-7.3,19.9-13.2,29.5-20.2,13.2-9.6,24.8-20.6,37.5-30.7l-12.1,9.4a67.7,67.7,0,0,1,13.9-8.4,44.76,44.76,0,0,0,16.8-15.5,44.66,44.66,0,0,0,10.7-20.4c4-14.4,2.2-33.5-6-46.2s-20.6-24.1-35.9-27.6l-16-2.1a59.93,59.93,0,0,0-30.3,8.2c-18.3,8-31.9,23.8-47.3,36.1l12.1-9.4c-17.2,13.2-36,23.5-52.3,38.1-11.1,10-17.6,27.8-17.6,42.4s6.5,32.3,17.6,42.4c11.4,10.5,26.4,18.3,42.4,17.6a65.75,65.75,0,0,0,42.6-17.6Z"
       transform="translate(-4.26 -9.2)"
       id="path350441" />
  </g>
  <g
     class="cls-2"
     id="g350447">
    <path
       class="cls-3"
       d="M134.84,566.69c18.7-16.5,37.9-32.3,57.6-47.6l-12.1,9.4q38.55-29.7,79.3-56c13-8.4,23.4-20.7,27.6-35.9,4-14.4,2.2-33.5-6-46.2s-20.6-24.1-35.9-27.6-32.6-2.7-46.2,6A1258.09,1258.09,0,0,0,50,481.69c-11.1,9.8-17.6,28-17.6,42.4,0,14.7,6.5,32.3,17.6,42.4,11.4,10.5,26.4,18.3,42.4,17.6l16-2.1a57.9,57.9,0,0,0,26.4-15.3Z"
       transform="translate(-4.26 -9.2)"
       id="path350445" />
  </g>
  <g
     class="cls-2"
     id="g350451">
    <path
       class="cls-3"
       d="M185.74,585.39a127.51,127.51,0,0,1,11.2-9.7l-12.1,9.4c12.1-9.2,25.4-16.6,38.3-24.7,17.7-11,33.2-24.7,49.5-37.6a44.33,44.33,0,0,0,12.4-19.3,45.08,45.08,0,0,0,5.2-23.1c0-14.7-6.5-32.3-17.6-42.4-11.4-10.5-26.4-18.3-42.4-17.6l-16,2.1a60.66,60.66,0,0,0-26.5,15.4c-6.4,5.1-12.4,10.5-18.8,15.6l12.1-9.4c-11.2,8.6-23.5,15.7-35.5,23-15.8,9.7-31.3,20.5-44.6,33.4-11,10.7-17.6,27.3-17.6,42.5,0,14.7,6.5,32.3,17.6,42.4,11.4,10.5,26.4,18.3,42.4,17.6s30.7-6.2,42.4-17.6Z"
       transform="translate(-4.26 -9.2)"
       id="path350449" />
  </g>
  <g
     class="cls-2"
     id="g350455">
    <path
       class="cls-3"
       d="M55.24,556.59c24.1,5.5,49.1,10.9,74,10.2s49.4-6.4,74-9.8l-16,2.1a213,213,0,0,1,22.6-1.9c15.6-.4,31.3-6.4,42.4-17.6,10.4-10.4,18.2-27.5,17.6-42.4-.7-15.5-5.8-31.6-17.6-42.4-11.6-10.6-26.3-18-42.4-17.6-25.6.6-50.7,6.4-76,9.9l16-2.1a171,171,0,0,1-45.2.3l16,2.1c-11.3-1.6-22.4-4.1-33.5-6.6-15.6-3.5-32.2-2.2-46.2,6-12.5,7.4-24.4,21.7-27.6,36-3.5,15.4-2.7,32.6,6,46.2,8.3,12.8,20.6,24.1,35.9,27.6Z"
       transform="translate(-4.26 -9.2)"
       id="path350453" />
  </g>
  <g
     class="cls-2"
     id="g350459">
    <path
       class="cls-3"
       d="M77.5,131c-16.9,27.72-32.8,56.4-55,81.35,3.1-3.47,6.3-7,9.4-10.49-1.1,1.22-2.2,2.43-3.4,3.64a38.29,38.29,0,0,0-12.4,16.72,34.83,34.83,0,0,0-5.2,20c0,12.74,6.5,28,17.6,36.74,11.4,9.09,26.4,15.85,42.4,15.24,14.9-.6,32.6-4.67,42.4-15.24a370.27,370.27,0,0,0,40.1-50.68c9.6-14.73,18.5-29.89,27.7-44.88,7.5-12.21,10.4-26.51,6-40-3.8-12-14.6-25.12-27.6-31.1-13.9-6.41-30.8-9.53-46.2-5.2C98.8,111.16,84.8,119,77.5,131Z"
       transform="translate(-4.26 -9.2)"
       id="path350457" />
  </g>
  <g
     class="cls-2"
     id="g350463">
    <path
       class="cls-3"
       d="M149.5,121c-12.8,10.31-21.1,25-30,37.86-7.6,11-15.2,21.92-22.8,32.92C89.3,202.47,81.8,213.21,74.4,224a306.52,306.52,0,0,0-24.7,42.62,34.19,34.19,0,0,0-1.1,20.7,35.35,35.35,0,0,0,7.1,19.32c7.3,10.74,21.6,21,35.9,23.91,15.4,3,32.6,2.34,46.2-5.2,4-2.68,8.1-5.45,12.1-8.14a50.67,50.67,0,0,0,15.4-23c.2-.52.5-.95.7-1.47-2,4.16-4,8.32-6,12.39,10.2-20.62,25.4-39.59,38.7-58.74,6.8-9.79,13.5-19.49,20.3-29.28s12.9-19.92,20.5-29.11c-3.1,3.47-6.3,7-9.4,10.49a27.88,27.88,0,0,1,4.2-4c11-8.84,17.6-23.91,17.6-36.73s-6.5-28-17.6-36.73c-11.4-9.1-26.4-15.86-42.4-15.25-16.3.52-30.4,5.46-42.4,15.16Z"
       transform="translate(-4.26 -9.2)"
       id="path350461" />
  </g>
  <g
     class="cls-2"
     id="g350467">
    <path
       class="cls-3"
       d="M183.2,163.66c-29.8,22.52-43.5,55.7-58.7,86.2a34.59,34.59,0,0,0-7.1,19.32,34.13,34.13,0,0,0,1.1,20.7c3.8,12,14.6,25.13,27.6,31.1,13.9,6.41,30.8,9.53,46.2,5.2,4.8-1.73,9.6-3.46,14.3-5.2a56.59,56.59,0,0,0,21.5-18.62c10.9-21.92,20.3-45.66,37.2-64.72-3.1,3.47-6.3,7-9.4,10.49a90.33,90.33,0,0,1,12.1-11c11.1-8.4,17.6-24.34,17.6-36.73,0-12.73-6.5-28-17.6-36.73-11.4-9.1-26.4-15.85-42.4-15.25-5.3.61-10.6,1.22-16,1.82a63.8,63.8,0,0,0-26.4,13.43Z"
       transform="translate(-4.26 -9.2)"
       id="path350465" />
  </g>
  <g
     class="cls-2"
     id="g350471">
    <path
       class="cls-3"
       d="M137.7,318.21a306,306,0,0,1,50.8-43c-4,2.69-8.1,5.46-12.1,8.14,10.3-6.84,21-13.34,33-17.84-4.8,1.73-9.6,3.46-14.3,5.2a98.29,98.29,0,0,1,15.9-4.16c14.1-2.34,28.9-13.52,35.9-23.91,7.5-11.18,10.7-27.55,6-40s-13.7-24.69-27.6-31.1c-4.8-1.73-9.6-3.46-14.3-5.19a68.25,68.25,0,0,0-31.9,0,92.12,92.12,0,0,0-15.2,3.89c-8.9,3.12-18,6.24-26.3,10.4-13.3,6.58-25.5,15.25-37.4,23.48a295.65,295.65,0,0,0-47.3,40.54,38.29,38.29,0,0,0-12.4,16.72,34.83,34.83,0,0,0-5.2,20c0,12.74,6.5,28,17.6,36.73,11.4,9.1,26.4,15.86,42.4,15.25,15-.52,32.5-4.68,42.4-15.16Z"
       transform="translate(-4.26 -9.2)"
       id="path350469" />
  </g>
  <g
     class="cls-2"
     id="g350475">
    <path
       class="cls-3"
       d="M56.6,157.6a164.62,164.62,0,0,0,3.9,43.05c3,13.86,9.4,27,16.3,39.68,13.9,25.38,37,45.65,63.2,61.77a48.71,48.71,0,0,0,22.3,6.15,51.81,51.81,0,0,0,23.9-1c13.9-3.29,29-12.64,35.9-23.91,7.4-12,11-26.68,6-40-2-4.16-4-8.32-6-12.39a56.59,56.59,0,0,0-21.5-18.62c-1.7-1-3.3-2.08-5-3.21l12.1,8.15A124.42,124.42,0,0,1,186,198.4l9.4,10.48a117.25,117.25,0,0,1-17.2-25.29c2,4.15,4,8.31,6,12.38a103.17,103.17,0,0,1-9-28.24c.7,4.59,1.4,9.19,2.1,13.86a120.2,120.2,0,0,1-.8-24c.6-13-7.1-27.73-17.6-36.74s-27.5-15.76-42.4-15.24c-15.5.6-31.6,5-42.4,15.24-10.9,10.4-16.8,22.53-17.5,36.74Z"
       transform="translate(-4.26 -9.2)"
       id="path350473" />
  </g>
  <g
     class="cls-2"
     id="g350479">
    <path
       class="cls-3"
       d="M94.5,273.86c3.9-1.56,7.8-3,11.8-4.51-4.8,1.73-9.6,3.47-14.3,5.2a420.84,420.84,0,0,1,94-22.27c-5.3.61-10.6,1.22-16,1.82,7.9-.95,15.9-1.64,23.8-2.08,16.1-1,30.8-5.11,42.4-15.24,10.4-9,18.2-23.83,17.6-36.73-.7-13.43-5.8-27.38-17.6-36.74-11.3-8.92-26.6-16.2-42.4-15.24a534.85,534.85,0,0,0-82.3,11.17c-26.8,6-52.5,14.82-77.6,24.87C21,189.3,10,203.77,6.3,215.21c-4,12.47-2.2,29,6,40s20.6,20.88,35.9,23.91l16,1.82a68.45,68.45,0,0,0,30.3-7.1Z"
       transform="translate(-4.26 -9.2)"
       id="path350477" />
  </g>
  <path
     class="cls-4"
     d="M58.64,524.69c2.8-3.9,5.6-7.7,8.4-11.6-.9-.3-1.9-.5-2.8-.8l1.2,14.1a1.47,1.47,0,0,0,1.9,1.4c2.8-.6,4.2-2.3,5.9-4.4,2.8-3.6,4.5-4.2,7.8-.3,1.4,1.7,2.5,3.9,3.7,5.7a1.56,1.56,0,0,0,2.4.3,31.33,31.33,0,0,0,7.2-10.4c.7-1.8-1.8-3.3-2.6-1.5A28.55,28.55,0,0,1,85,527l2.4.3c-2-3.2-4.6-10.2-9.1-10.6-5.7-.5-6.8,7.2-11.7,8.2a23.07,23.07,0,0,0,1.9,1.4l-1.2-14.1a1.53,1.53,0,0,0-2.8-.8c-2.8,3.9-5.6,7.7-8.4,11.6a1.51,1.51,0,1,0,2.5,1.7Z"
     transform="translate(-4.26 -9.2)"
     id="path350481" />
  <path
     class="cls-4"
     d="M102.84,465.79q-.3-3.15,3.6-4.2a6.38,6.38,0,0,0,.8,1.4c.6.4,1,1.2,1.6,1.6a7.63,7.63,0,0,0,5.7,1.1c6.3-.8,10.8-8.4,17.3-7.3,1.9.3,2.7-2.6.8-2.9-3.5-.6-6.3.3-9.3,2.2-2,1.3-3.8,2.9-5.9,3.9a9.63,9.63,0,0,1-4.1,1.1c-2.7,0-2.9-1.5-4.7-3.3-4.9-4.8-8.5,1.4-8.8,6.2a1.51,1.51,0,1,0,3,.2Z"
     transform="translate(-4.26 -9.2)"
     id="path350483" />
  <path
     class="cls-4"
     d="M163.24,518.79c3.3-2.8,6.7-5.6,10-8.4-.9-.4-1.7-.7-2.6-1.1.1,4.5,1,10.9,6.7,11.6,6,.7,7.6-10.2,12.3-8.6,1.8.6,2.6-2.3.8-2.9-2.7-.9-5,.2-6.8,2.3a26.67,26.67,0,0,0-2.2,3.6c-2.1,3.2-6.2,1.6-7.3-2a14.2,14.2,0,0,1-.3-4.1,1.55,1.55,0,0,0-2.6-1.1c-3.3,2.8-6.7,5.6-10,8.4-1.6,1.4.5,3.5,2,2.3Z"
     transform="translate(-4.26 -9.2)"
     id="path350485" />
  <path
     class="cls-4"
     d="M206.84,445c5.3-4.1,10.6-8.1,16-12.2-.7-.3-1.5-.6-2.2-.9,1.4,5.7,4.6,12.3,11,13.3,4.8.8,9.7-1.9,10.9-6.7.4-1.9-2.5-2.7-2.9-.8-1.1,4.6-6.7,5.8-10.4,3.4-3.4-2.2-4.9-6.3-5.8-10a1.47,1.47,0,0,0-2.2-.9c-5.3,4.1-10.6,8.1-16,12.2-1.4,1.2.1,3.8,1.6,2.6Z"
     transform="translate(-4.26 -9.2)"
     id="path350487" />
  <path
     class="cls-4"
     d="M105.2,225a74.33,74.33,0,0,1,3.5-13.3,25.12,25.12,0,0,0-2.7.4c1.3,2.2,2.5,4.4,3.8,6.6a1.51,1.51,0,0,0,2.4.3c3.8-3.6,7.6-7.3,11.5-10.9a23.35,23.35,0,0,1-2.5-.7,30.38,30.38,0,0,0,5.4,9,1.57,1.57,0,0,0,2.4-.3c2.5-3.8,4.9-7.6,7.4-11.3a25.12,25.12,0,0,1-2.7-.4c1.4,3.8,3,7.5,4.6,11.2.8,1.8,3.4.2,2.6-1.5-1.6-3.5-3-6.9-4.3-10.5a1.51,1.51,0,0,0-2.7-.4c-2.5,3.8-4.9,7.6-7.4,11.3l2.4-.3a26.25,26.25,0,0,1-4.6-7.7,1.55,1.55,0,0,0-2.5-.7c-3.8,3.6-7.6,7.3-11.5,10.9l2.4.3c-1.3-2.2-2.5-4.4-3.8-6.6a1.48,1.48,0,0,0-2.7.4,66.77,66.77,0,0,0-3.5,13.3c-.7,2,2.2,2.8,2.5.9Z"
     transform="translate(-4.26 -9.2)"
     id="path350489" />
  <path
     class="cls-4"
     d="M110.6,292c-.8,1.8-1.7,3.6-2.5,5.4a1.5,1.5,0,0,0,2.6,1.5,32.8,32.8,0,0,1,7.9-8.3,11,11,0,0,0-1.8-.2,21,21,0,0,1,4.1,4.3c.6.8,2.1,1.1,2.6,0a12.63,12.63,0,0,1,7.2-7.3c-.6-.3-1.2-.7-1.8-1a23.23,23.23,0,0,0,4.7,10.5,1.5,1.5,0,0,0,2.6,0,36.47,36.47,0,0,0,6.3-12.8,1.5,1.5,0,0,0-2.9-.8,34.33,34.33,0,0,1-6,12.1h2.6a22.35,22.35,0,0,1-4.4-9.8,1.43,1.43,0,0,0-1.8-1,16,16,0,0,0-9,8.7h2.6a23.21,23.21,0,0,0-4.5-4.9c-.5-.4-1.3-.7-1.8-.2a37.86,37.86,0,0,0-8.9,9.4c.9.5,1.7,1,2.6,1.5.8-1.8,1.7-3.6,2.5-5.4.5-2-2.1-3.5-2.9-1.7Z"
     transform="translate(-4.26 -9.2)"
     id="path350491" />
  <path
     class="cls-4"
     d="M194,245.8a12,12,0,0,1,2.9-4.7l-2.4-.3,3.6,8.4a1.49,1.49,0,0,0,2.1.5,34.47,34.47,0,0,0,12-15.2,23.35,23.35,0,0,0-2.5.7c1.7,1.4,3.4,2.7,5.1,4.1a1.45,1.45,0,0,0,2.1,0,8.81,8.81,0,0,1,6.9-3.6c.9,0,2.4.9,3.4,1.1a13.59,13.59,0,0,0,7.4-1.1c5.2-2.3,8.5-7.2,11.5-11.8,1-1.6-1.5-3.1-2.6-1.5-4.2,6.6-9.3,13.4-18.1,10.8-4.9-1.5-7.4,0-10.6,4h2.1c-1.7-1.4-3.4-2.7-5.1-4.1a1.51,1.51,0,0,0-2.5.7,29.74,29.74,0,0,1-10.6,13.4,16,16,0,0,0,2.1.5l-3.6-8.4a1.51,1.51,0,0,0-2.4-.3,21.2,21.2,0,0,0-3.7,6.1c-.7,1.7,2.2,2.5,2.9.7Z"
     transform="translate(-4.26 -9.2)"
     id="path350493" />
  <path
     d="M152.64,518.79c2.4,2.7,5.3,6.7,2,9.9-2.2,2.2-5.6,2.9-8.7,2.7a13.45,13.45,0,0,0-1.7-3.1c2.5.5,5.3.4,7.4-1,3.2-2.1.2-5.4-1.7-7.2s-5.5-3.9-7.8-1.4c-1.5,1.6-1.3,4.2-1,6.3a19.41,19.41,0,0,0-2.9-2.1c0-3.1.8-6.2,3.8-7.5C146,513.59,150,515.89,152.64,518.79Z"
     transform="translate(-4.26 -9.2)"
     id="path350495" />
  <path
     class="cls-5"
     d="M150,520.09c1.9,1.8,4.9,5.1,1.7,7.2a9.57,9.57,0,0,1-7.4,1,16.19,16.19,0,0,0-3.1-3.3c-.2-2.1-.4-4.7,1-6.3C144.54,516.19,148.14,518.29,150,520.09Z"
     transform="translate(-4.26 -9.2)"
     id="path350497" />
  <path
     d="M146.44,532.79a1.19,1.19,0,0,1-.6,1.5l-.6-3a1.7,1.7,0,0,1,.7.1A5.78,5.78,0,0,1,146.44,532.79Z"
     transform="translate(-4.26 -9.2)"
     id="path350499" />
  <path
     d="M145.84,534.29c2,12-1.1,23.3-13.9,27.9-12.3,4.4-28,4.2-38.8-3.7-8.1-5.9-15.5-18.4-9.4-28.1a19,19,0,0,1,5.1-5.1,6.11,6.11,0,0,0,1.4.7,1.16,1.16,0,0,0,1,0l.6.9a29.77,29.77,0,0,0-2.9,2c-6.3,5.1-5.2,13.6-1.3,19.8,7.8,12.7,24.2,15.2,37.8,12.3,7.1-1.5,14.4-4.5,17.1-11.8,2.3-5.9,1.2-12.6-.3-18.5v-.2c.1,0,.3.1.4.1a9,9,0,0,1,1.1,2.7A1.37,1.37,0,0,0,145.84,534.29Z"
     transform="translate(-4.26 -9.2)"
     id="path350501" />
  <path
     d="M145.94,531.39a1.7,1.7,0,0,1-.7-.1l-.3-1.2a1.41,1.41,0,0,0-2.7,0,6.42,6.42,0,0,0-1-1.3h0a1.19,1.19,0,0,1,1.6-.8c.5.1.9.3,1.4.4A11.09,11.09,0,0,1,145.94,531.39Z"
     transform="translate(-4.26 -9.2)"
     id="path350503" />
  <path
     d="M145.84,534.29a1.43,1.43,0,0,1-2.1-.8,16.87,16.87,0,0,0-1.1-2.7,20,20,0,0,0,2.6.5Z"
     transform="translate(-4.26 -9.2)"
     id="path350505" />
  <path
     d="M144.94,530.09l.3,1.2a20,20,0,0,1-2.6-.5c-.1-.2-.3-.5-.4-.7A1.41,1.41,0,0,1,144.94,530.09Z"
     transform="translate(-4.26 -9.2)"
     id="path350507" />
  <path
     d="M144.24,528.29a5.73,5.73,0,0,1-1.4-.4,1.19,1.19,0,0,0-1.6.8,12.88,12.88,0,0,0-1.6-1.7,1.26,1.26,0,0,0,1.7-1.3c0-.3-.1-.5-.1-.8A23.59,23.59,0,0,1,144.24,528.29Z"
     transform="translate(-4.26 -9.2)"
     id="path350509" />
  <path
     class="cls-5"
     d="M142.24,530.89c1.6,5.9,2.6,12.6.3,18.5-2.8,7.2-10.1,10.3-17.1,11.8-13.6,2.8-29.9.4-37.8-12.3-3.8-6.2-4.9-14.8,1.3-19.8a29.77,29.77,0,0,1,2.9-2,44.59,44.59,0,0,1,14.8-5.7c8.6-1.7,23.8-1.5,32,5a1.33,1.33,0,0,0,1,.8,12.88,12.88,0,0,1,1.6,1.7h0a1.48,1.48,0,0,0,.9,1.9h0ZM97.44,537a2.6,2.6,0,0,0,1.8-3.2v-.1a2,2,0,0,0-1-1.2,2.24,2.24,0,0,0-1.8.1c-1.4.8-1.2,2.5-.5,3.7A1.29,1.29,0,0,0,97.44,537Zm1.3,13.5v-6.8c0-.7-.7-1.5-1.4-1.4a23,23,0,0,0-5.1,1A1.49,1.49,0,0,0,92,546a6.09,6.09,0,0,0,4.9,5.9A1.54,1.54,0,0,0,98.74,550.49Zm-8.1-14.1a1.89,1.89,0,0,0-1.6-2.8,1.8,1.8,0,0,0-1.6.9,1.85,1.85,0,0,0,0,1.9,1.29,1.29,0,0,0,1.5.7A1.62,1.62,0,0,0,90.64,536.39Z"
     transform="translate(-4.26 -9.2)"
     id="path350511" />
  <path
     d="M142.54,530.79c-.1,0-.3-.1-.4-.1v-.5A2.09,2.09,0,0,1,142.54,530.79Z"
     transform="translate(-4.26 -9.2)"
     id="path350513" />
  <path
     d="M142.14,530.19c0,.2-.1.3,0,.5h0a1.48,1.48,0,0,1-.9-1.9A6.71,6.71,0,0,1,142.14,530.19Z"
     transform="translate(-4.26 -9.2)"
     id="path350515" />
  <path
     d="M141.34,525.79a1.26,1.26,0,0,1-1.7,1.3,7,7,0,0,0-1-.8.6.6,0,0,1-.1-.4,26.42,26.42,0,0,1-.2-2.9,19.41,19.41,0,0,1,2.9,2.1C141.24,525.29,141.34,525.59,141.34,525.79Z"
     transform="translate(-4.26 -9.2)"
     id="path350517" />
  <path
     d="M138.64,526.29c.3.3.7.5,1,.8A1.59,1.59,0,0,1,138.64,526.29Z"
     transform="translate(-4.26 -9.2)"
     id="path350519" />
  <path
     d="M138.54,525.79c0,.2.1.3.1.4-8.2-6.5-23.4-6.7-32-5a41.79,41.79,0,0,0-14.8,5.7l-.6-.9a1.64,1.64,0,0,0,.7-1.6,1.55,1.55,0,0,0,1-1.2v-.1c.2-.1.5-.2.7-.3a1.3,1.3,0,0,0,1.9-.5c.1-.2.2-.3.3-.5l1.5-.6a50.52,50.52,0,0,1,20.4-3.6c6.4.2,14.6,1.6,20.8,5.4A8.77,8.77,0,0,0,138.54,525.79Z"
     transform="translate(-4.26 -9.2)"
     id="path350521" />
  <path
     d="M105.14,485.29c5.1,1.9,8,10.3,6,15.1-1.4,3.5-4.5,6.1-6.8,8.9a81.6,81.6,0,0,0-8.6,12.5,21.4,21.4,0,0,0-2.2,1,1.17,1.17,0,0,1-.6-.6c.1-.5.1-1,.2-1.5a94.29,94.29,0,0,1,9.3-13.4c2.2-2.6,5.3-5.1,6.2-8.5a10.24,10.24,0,0,0-2.4-9.1c-7.4-7.7-11.4,12.1-11.8,16-.6,5-.7,9.9-1.2,14.9,0,.1-.1.1-.1.2a1.22,1.22,0,0,0,0,1.3c0,.3-.1.7-.1,1a2.51,2.51,0,0,0-.7.4,1.36,1.36,0,0,0,.6-1.1c.2-5.3.5-10.6.7-16,.2-4,.8-8.2.5-12.2C95.84,489.39,99.54,483.29,105.14,485.29Z"
     transform="translate(-4.26 -9.2)"
     id="path350523" />
  <path
     class="cls-5"
     d="M106.14,489.69a10.24,10.24,0,0,1,2.4,9.1c-.9,3.4-4,5.9-6.2,8.5a88.93,88.93,0,0,0-9.3,13.4c.5-5,.6-9.9,1.2-14.9C94.74,501.79,98.74,482,106.14,489.69Z"
     transform="translate(-4.26 -9.2)"
     id="path350525" />
  <path
     d="M96.44,534.19h0c0,.2,0,.3.1.4v.1a1.29,1.29,0,0,0,1.3.9,1.37,1.37,0,0,0,1.4-1.4.9.9,0,0,0-.1-.5v.1a2.53,2.53,0,0,1-1.8,3.2,1.35,1.35,0,0,1-1.6-.7c-.7-1.2-1-2.9.5-3.7a2.28,2.28,0,0,1,1.8-.1,1.52,1.52,0,0,1,1,1.2,1.44,1.44,0,0,0-1.7-.9A1.77,1.77,0,0,0,96.44,534.19Z"
     transform="translate(-4.26 -9.2)"
     id="path350527" />
  <path
     d="M98,534.49a.37.37,0,0,1-.1.3h0c-.4-.2-.8-.3-1.2-.5h0c-.1,0-.1.1-.2.1h0v-.1h0v-.2a1.66,1.66,0,0,1,1-1.4,1.44,1.44,0,0,1,1.7.9,4.33,4.33,0,0,1,.1.5,1.37,1.37,0,0,1-1.4,1.4,1.42,1.42,0,0,1-1.3-.9h0c.3.7,1.1.9,1.4.2.1,0,.2.1.3.1-.1-.1-.1-.2-.2-.3A.1.1,0,0,1,98,534.49Zm0,0h0v0Z"
     transform="translate(-4.26 -9.2)"
     id="path350529" />
  <path
     d="M98.74,543.69v6.8a1.49,1.49,0,0,1-1.8,1.4A6,6,0,0,1,92,546a1.16,1.16,0,0,0,1,0,12.09,12.09,0,0,1,1.8-.5v.3a3.25,3.25,0,0,0,1.1,2.5v2.2c.6-.5,1.2-.9,1.8-1.4a3.7,3.7,0,0,1-1.8-.8v-3c.5-.1.9-.1,1.4-.2l-1.4-1.4v1.6c-.4.1-.7.1-1.1.2a1.42,1.42,0,0,0-2.8.3v.2a1.49,1.49,0,0,1,.2-2.7,17.75,17.75,0,0,1,5.1-1A1.37,1.37,0,0,1,98.74,543.69Z"
     transform="translate(-4.26 -9.2)"
     id="path350531" />
  <path
     d="M98.14,534.59c0,.1.1.2.2.3-.1,0-.2-.1-.3-.1h0a.37.37,0,0,0,.1-.3C98,534.49,98,534.59,98.14,534.59Z"
     transform="translate(-4.26 -9.2)"
     id="path350533" />
  <path
     d="M98,534.39v.2h0Z"
     transform="translate(-4.26 -9.2)"
     id="path350535" />
  <path
     d="M96.74,534.29c.4.2.8.3,1.2.5-.3.7-1.1.5-1.4-.2h0v-.1h0v-.1h0C96.64,534.29,96.64,534.29,96.74,534.29Z"
     transform="translate(-4.26 -9.2)"
     id="path350537" />
  <path
     d="M97.74,549.09c-.6.5-1.2.9-1.8,1.4v-2.2A3.7,3.7,0,0,0,97.74,549.09Z"
     transform="translate(-4.26 -9.2)"
     id="path350539" />
  <path
     d="M95.94,543.69l1.4,1.4a5.9,5.9,0,0,0-1.4.2Z"
     transform="translate(-4.26 -9.2)"
     id="path350541" />
  <path
     d="M96.74,534.29Z"
     transform="translate(-4.26 -9.2)"
     id="path350543" />
  <path
     d="M96.54,534.39Z"
     transform="translate(-4.26 -9.2)"
     id="path350545" />
  <path
     d="M96.54,534.39Z"
     transform="translate(-4.26 -9.2)"
     id="path350547" />
  <path
     d="M96.54,534.59h0a.76.76,0,0,1-.1-.4v.1h0v.1Z"
     transform="translate(-4.26 -9.2)"
     id="path350549" />
  <path
     d="M96.54,534.59Z"
     transform="translate(-4.26 -9.2)"
     id="path350551" />
  <path
     d="M96.54,534.59h0v0Z"
     transform="translate(-4.26 -9.2)"
     id="path350553" />
  <path
     d="M96.54,534.39Z"
     transform="translate(-4.26 -9.2)"
     id="path350555" />
  <path
     d="M96.54,534.39Z"
     transform="translate(-4.26 -9.2)"
     id="path350557" />
  <path
     d="M96.54,534.49Z"
     transform="translate(-4.26 -9.2)"
     id="path350559" />
  <path
     d="M95.74,521.79c-.1.2-.2.3-.3.5a1.38,1.38,0,0,1-1.9.5A21.4,21.4,0,0,1,95.74,521.79Z"
     transform="translate(-4.26 -9.2)"
     id="path350561" />
  <path
     d="M94,494.19c.2,4-.3,8.2-.5,12.2-.2,5.3-.5,10.6-.7,16a1.36,1.36,0,0,1-.6,1.1.35.35,0,0,0-.2.1.6.6,0,0,1-.4.1.85.85,0,0,0-.5-.3,4.05,4.05,0,0,1-.9-.5c1.1-8.9.6-18.1,3.3-26.7A5.34,5.34,0,0,1,94,494.19Z"
     transform="translate(-4.26 -9.2)"
     id="path350563" />
  <path
     d="M93.74,491.39a12.65,12.65,0,0,1,.3,2.8c-.3.7-.5,1.4-.7,2-2.7,8.6-2.2,17.8-3.3,26.7h0a.9.9,0,0,1-.1-.5l.9-18.6c.1-2.6.3-5.2.3-7.9,0-1.9.2-5.5-1.2-7-2-.7-3.9-1.5-5.8-2.2-.7.7-1.4,1.3-2,2-3.4,5.1-1.3,13.9.3,19.3,1.3,4.6,3.1,12.2,7.7,14.9v.4a1,1,0,0,0,.5,1.1c-.6.3-1.1.7-1.6,1-6-3.5-8.1-12.1-9.7-18.3s-3.6-17.1,2.2-22C86.74,480.69,92.74,485.69,93.74,491.39Z"
     transform="translate(-4.26 -9.2)"
     id="path350565" />
  <path
     d="M92,545.69c0-1.7,2.6-1.8,2.8-.3a12.09,12.09,0,0,0-1.8.5,1.7,1.7,0,0,1-1,0Z"
     transform="translate(-4.26 -9.2)"
     id="path350567" />
  <path
     d="M93,520.89c0-.1.1-.1.1-.2-.1.5-.1,1-.2,1.5A1.23,1.23,0,0,1,93,520.89Z"
     transform="translate(-4.26 -9.2)"
     id="path350569" />
  <path
     d="M92.84,523.09v.1a1.55,1.55,0,0,1-1,1.2,2.12,2.12,0,0,0-.3-.7c.1-.1.2-.1.4-.2a.35.35,0,0,0,.2-.1C92.34,523.29,92.64,523.19,92.84,523.09Z"
     transform="translate(-4.26 -9.2)"
     id="path350571" />
  <path
     d="M91.94,523.59a.35.35,0,0,0,.2-.1C92,523.49,92,523.59,91.94,523.59Z"
     transform="translate(-4.26 -9.2)"
     id="path350573" />
  <path
     d="M91.84,524.39a1.36,1.36,0,0,1-.7,1.6.9.9,0,0,1-1,0,9.14,9.14,0,0,1-1.4-.7,14,14,0,0,1,1.6-1A1.62,1.62,0,0,0,91.84,524.39Z"
     transform="translate(-4.26 -9.2)"
     id="path350575" />
  <path
     d="M91.54,523.79a.91.91,0,0,1,.3.7,1.39,1.39,0,0,1-1.4-.1A10.91,10.91,0,0,0,91.54,523.79Z"
     transform="translate(-4.26 -9.2)"
     id="path350577" />
  <path
     d="M91.94,523.59c-.1.1-.2.1-.4.2a.1.1,0,0,0-.1-.1A.9.9,0,0,0,91.94,523.59Z"
     transform="translate(-4.26 -9.2)"
     id="path350579" />
  <path
     d="M91.44,523.69h0a3.59,3.59,0,0,1-1,.7,1.08,1.08,0,0,1-.5-1.1V523A1.49,1.49,0,0,0,91.44,523.69Z"
     transform="translate(-4.26 -9.2)"
     id="path350581" />
  <path
     d="M91.44,523.69a1.49,1.49,0,0,1-1.5-.7h0c.3.2.6.3.9.5A.56.56,0,0,1,91.44,523.69Z"
     transform="translate(-4.26 -9.2)"
     id="path350583" />
  <path
     class="cls-5"
     d="M89.94,488.89c1.4,1.5,1.2,5.1,1.2,7,0,2.6-.2,5.2-.3,7.9l-.9,18.6a.75.75,0,0,0,.1.5c-4.6-2.7-6.3-10.3-7.7-14.9-1.6-5.4-3.7-14.2-.3-19.3.7-.7,1.4-1.3,2-2C86,487.49,87.94,488.19,89.94,488.89Z"
     transform="translate(-4.26 -9.2)"
     id="path350585" />
  <path
     d="M89,533.59a1.89,1.89,0,0,1,1.6,2.8,1.43,1.43,0,0,1-1.7.6.52.52,0,0,0,.4-.2,1.46,1.46,0,0,0,.7-1.3,1.42,1.42,0,0,0-.2-.6v-.1c0,.2.1.3.1.5-.1-.2-.4,0-.9.3-.9.5-1.2.3-.9-.7a1.43,1.43,0,0,0,.5,1.9c.1,0,.2.1.3.1a1.29,1.29,0,0,1-1.5-.7,2.12,2.12,0,0,1,0-1.9A2.36,2.36,0,0,1,89,533.59Z"
     transform="translate(-4.26 -9.2)"
     id="path350587" />
  <path
     d="M90,535.59a1.28,1.28,0,0,1-.7,1.3c-.1.1-.3.1-.4.2s-.2-.1-.3-.1a1.36,1.36,0,0,1-.5-1.9c-.3,1,0,1.2.9.7q.75-.6.9-.3h0c.1-.1.1,0,.1.1Z"
     transform="translate(-4.26 -9.2)"
     id="path350589" />
  <path
     d="M90,535.59h0v-.2h0c0-.2-.1-.3-.1-.5v.1C89.94,535.19,90,535.39,90,535.59Z"
     transform="translate(-4.26 -9.2)"
     id="path350591" />
  <path
     d="M90,522.89Z"
     transform="translate(-4.26 -9.2)"
     id="path350593" />
  <path
     d="M90,535.49v0Z"
     transform="translate(-4.26 -9.2)"
     id="path350595" />
  <path
     class="cls-6"
     d="M141.24,528.79c.3.4.7.9,1,1.3a4.35,4.35,0,0,1,.4.7,9,9,0,0,1,1.1,2.7,1.43,1.43,0,0,0,2.1.8,1.24,1.24,0,0,0,.6-1.5,5.78,5.78,0,0,0-.5-1.4,13.45,13.45,0,0,0-1.7-3.1,16.19,16.19,0,0,0-3.1-3.3,19.41,19.41,0,0,0-2.9-2.1c-6.1-3.7-14.3-5.2-20.8-5.4a51.13,51.13,0,0,0-20.4,3.6l-1.5.6a21.4,21.4,0,0,0-2.2,1c-.2.1-.5.2-.7.3a2.51,2.51,0,0,0-.7.4.35.35,0,0,0-.2.1c-.1.1-.2.1-.4.2-.4.2-.7.4-1.1.6-.6.3-1.1.7-1.6,1a16.54,16.54,0,0,0-5.1,5.1c-6.1,9.8,1.2,22.3,9.4,28.1,10.9,7.8,26.5,8.1,38.8,3.7,12.9-4.6,16-16,13.9-27.9l-.6-3-.3-1.2a1.41,1.41,0,0,0-2.7,0c0,.2-.1.3,0,.5v.2c1.6,5.9,2.6,12.6.3,18.5-2.8,7.2-10.1,10.3-17.1,11.8-13.6,2.8-29.9.4-37.8-12.3-3.8-6.2-4.9-14.8,1.3-19.8a29.77,29.77,0,0,1,2.9-2,44.59,44.59,0,0,1,14.8-5.7c8.6-1.7,23.8-1.5,32,5,.3.3.7.5,1,.8a7.37,7.37,0,0,1,1.8,1.7"
     transform="translate(-4.26 -9.2)"
     id="path350597" />
  <path
     class="cls-6"
     d="M139.64,527.09a1.26,1.26,0,0,0,1.7-1.3c0-.3-.1-.5-.1-.8-.2-2.1-.4-4.7,1-6.3,2.3-2.5,5.9-.4,7.8,1.4s4.9,5.1,1.7,7.2a9.57,9.57,0,0,1-7.4,1,5.73,5.73,0,0,1-1.4-.4,1.19,1.19,0,0,0-1.6.8h0a1.48,1.48,0,0,0,.9,1.9h0c.1,0,.3.1.4.1a20,20,0,0,0,2.6.5,1.7,1.7,0,0,1,.7.1,11.56,11.56,0,0,0,8.7-2.7c3.3-3.2.4-7.3-2-9.9-2.6-2.8-6.6-5.2-10.5-3.4-3.1,1.4-3.8,4.5-3.8,7.5a26.42,26.42,0,0,0,.2,2.9c0,.2.1.3.1.4A1.42,1.42,0,0,0,139.64,527.09Z"
     transform="translate(-4.26 -9.2)"
     id="path350599" />
  <path
     class="cls-6"
     d="M90,522.89h0a1.41,1.41,0,0,0,1.5.8c.2,0,.3,0,.4-.1a.35.35,0,0,0,.2-.1,1.36,1.36,0,0,0,.6-1.1c.2-5.3.5-10.6.7-16,.2-4,.8-8.2.5-12.2a26.6,26.6,0,0,0-.3-2.8c-1-5.7-7-10.7-12.3-6.3-5.9,4.9-3.9,15.6-2.2,22,1.6,6.2,3.7,14.8,9.7,18.3a6.11,6.11,0,0,0,1.4.7,1.16,1.16,0,0,0,1,0,1.64,1.64,0,0,0,.7-1.6,2.12,2.12,0,0,0-.3-.7.1.1,0,0,0-.1-.1.85.85,0,0,0-.5-.3,9.29,9.29,0,0,1-1-.5h0"
     transform="translate(-4.26 -9.2)"
     id="path350601" />
  <path
     class="cls-6"
     d="M90,522.89c-4.6-2.7-6.3-10.3-7.7-14.9-1.6-5.4-3.7-14.2-.3-19.3.7-.7,1.4-1.3,2-2,1.9.7,3.9,1.5,5.8,2.2,1.4,1.5,1.2,5.1,1.2,7,0,2.6-.2,5.2-.3,7.9l-.9,18.6C89.94,522.59,89.94,522.69,90,522.89Z"
     transform="translate(-4.26 -9.2)"
     id="path350603" />
  <path
     class="cls-6"
     d="M93.14,520.69c0,.1-.1.1-.1.2a1.22,1.22,0,0,0,0,1.3.9.9,0,0,0,.6.6,1.3,1.3,0,0,0,1.9-.5c.1-.2.2-.3.3-.5a89.38,89.38,0,0,1,8.6-12.5c2.3-2.8,5.4-5.4,6.8-8.9,1.9-4.8-.9-13.2-6-15.1-5.6-2.1-9.3,4.1-11.1,8.9-.3.7-.5,1.4-.7,2-2.7,8.6-2.2,17.8-3.3,26.7h0v.3a1,1,0,0,0,.5,1.1,1.69,1.69,0,0,0,1.4.1,1.55,1.55,0,0,0,1-1.2v-.1c0-.3.1-.7.1-1a3.3,3.3,0,0,1,0-1.4"
     transform="translate(-4.26 -9.2)"
     id="path350605" />
  <path
     class="cls-6"
     d="M93.14,520.69c.5-5,.6-9.9,1.2-14.9.4-3.9,4.4-23.7,11.8-16a10.24,10.24,0,0,1,2.4,9.1c-.9,3.4-4,5.9-6.2,8.5A87.43,87.43,0,0,0,93.14,520.69Z"
     transform="translate(-4.26 -9.2)"
     id="path350607" />
  <path
     class="cls-6"
     d="M88.94,537a.52.52,0,0,0,.4-.2,1.46,1.46,0,0,0,.7-1.3,1.42,1.42,0,0,0-.2-.6v-.1c0,.2.1.3.1.5"
     transform="translate(-4.26 -9.2)"
     id="path350609" />
  <path
     class="cls-6"
     d="M88.94,537a1.43,1.43,0,0,0,1.7-.6,1.89,1.89,0,0,0-1.6-2.8,1.8,1.8,0,0,0-1.6.9,1.85,1.85,0,0,0,0,1.9A1.34,1.34,0,0,0,88.94,537Z"
     transform="translate(-4.26 -9.2)"
     id="path350611" />
  <path
     class="cls-6"
     d="M90,535.39c-.1-.2-.4,0-.9.3-.9.5-1.2.3-.9-.7a1.43,1.43,0,0,0,.5,1.9c.1,0,.2.1.3.1"
     transform="translate(-4.26 -9.2)"
     id="path350613" />
  <path
     class="cls-6"
     d="M90,535.59h0v-.2"
     transform="translate(-4.26 -9.2)"
     id="path350615" />
  <path
     class="cls-6"
     d="M90,535.39v.1"
     transform="translate(-4.26 -9.2)"
     id="path350617" />
  <path
     class="cls-6"
     d="M90,535.39h0"
     transform="translate(-4.26 -9.2)"
     id="path350619" />
  <path
     class="cls-6"
     d="M96.44,534.39h0c0,.1,0,.2.1.2"
     transform="translate(-4.26 -9.2)"
     id="path350621" />
  <path
     class="cls-6"
     d="M96.44,534.19h0"
     transform="translate(-4.26 -9.2)"
     id="path350623" />
  <path
     class="cls-6"
     d="M96.44,534.29v.1h0"
     transform="translate(-4.26 -9.2)"
     id="path350625" />
  <path
     class="cls-6"
     d="M96.54,534.49h0"
     transform="translate(-4.26 -9.2)"
     id="path350627" />
  <path
     class="cls-6"
     d="M96.54,534.59h0"
     transform="translate(-4.26 -9.2)"
     id="path350629" />
  <path
     class="cls-6"
     d="M98,534.49a.37.37,0,0,1-.1.3h0c-.3.7-1.1.5-1.4-.2"
     transform="translate(-4.26 -9.2)"
     id="path350631" />
  <path
     class="cls-6"
     d="M98,534.49h0v0Z"
     transform="translate(-4.26 -9.2)"
     id="path350633" />
  <path
     class="cls-6"
     d="M98,534.49h0"
     transform="translate(-4.26 -9.2)"
     id="path350635" />
  <path
     class="cls-6"
     d="M96.74,534.29h0a6.12,6.12,0,0,0,1.2.5c.1,0,.2.1.3.1-.1-.1-.1-.2-.2-.3a.1.1,0,0,0-.1-.1"
     transform="translate(-4.26 -9.2)"
     id="path350637" />
  <path
     class="cls-6"
     d="M96.74,534.29h0"
     transform="translate(-4.26 -9.2)"
     id="path350639" />
  <path
     class="cls-6"
     d="M96.54,534.39h0"
     transform="translate(-4.26 -9.2)"
     id="path350641" />
  <path
     class="cls-6"
     d="M96.54,534.39h0"
     transform="translate(-4.26 -9.2)"
     id="path350643" />
  <path
     class="cls-6"
     d="M96.54,534.39h0"
     transform="translate(-4.26 -9.2)"
     id="path350645" />
  <path
     class="cls-6"
     d="M96.54,534.49h0c.1-.1.1-.2.2-.2"
     transform="translate(-4.26 -9.2)"
     id="path350647" />
  <line
     class="cls-6"
     x1="92.28"
     y1="525.29"
     x2="92.28"
     y2="525.29"
     id="line350649" />
  <path
     class="cls-6"
     d="M96.54,534.49h0"
     transform="translate(-4.26 -9.2)"
     id="path350651" />
  <path
     class="cls-6"
     d="M96.54,534.39h0"
     transform="translate(-4.26 -9.2)"
     id="path350653" />
  <path
     class="cls-6"
     d="M96.54,534.39h0"
     transform="translate(-4.26 -9.2)"
     id="path350655" />
  <path
     class="cls-6"
     d="M96.54,534.39h0"
     transform="translate(-4.26 -9.2)"
     id="path350657" />
  <polyline
     class="cls-6"
     points="92.28 525.19 92.28 525.19 92.28 525.19"
     id="polyline350659" />
  <path
     class="cls-6"
     d="M96.54,534.39h0"
     transform="translate(-4.26 -9.2)"
     id="path350661" />
  <line
     class="cls-6"
     x1="92.28"
     y1="525.29"
     x2="92.28"
     y2="525.29"
     id="line350663" />
  <path
     class="cls-6"
     d="M96.54,534.59h0v-.2"
     transform="translate(-4.26 -9.2)"
     id="path350665" />
  <line
     class="cls-6"
     x1="92.28"
     y1="525.39"
     x2="92.28"
     y2="525.39"
     id="line350667" />
  <path
     class="cls-6"
     d="M99.14,533.69a1.44,1.44,0,0,0-1.7-.9,1.5,1.5,0,0,0-1,1.4v.5"
     transform="translate(-4.26 -9.2)"
     id="path350669" />
  <path
     class="cls-6"
     d="M99.14,533.69a2,2,0,0,0-1-1.2,2.24,2.24,0,0,0-1.8.1c-1.4.8-1.2,2.5-.5,3.7a1.48,1.48,0,0,0,1.6.7,2.6,2.6,0,0,0,1.8-3.2Z"
     transform="translate(-4.26 -9.2)"
     id="path350671" />
  <path
     class="cls-6"
     d="M96.54,534.59a1.29,1.29,0,0,0,1.3.9,1.37,1.37,0,0,0,1.4-1.4.9.9,0,0,0-.1-.5"
     transform="translate(-4.26 -9.2)"
     id="path350673" />
  <path
     class="cls-6"
     d="M92,546a6.09,6.09,0,0,0,4.9,5.9,1.44,1.44,0,0,0,1.8-1.4v-6.8c0-.7-.7-1.5-1.4-1.4a23,23,0,0,0-5.1,1C90.94,543.69,91.14,545.49,92,546Z"
     transform="translate(-4.26 -9.2)"
     id="path350675" />
  <path
     class="cls-6"
     d="M95.94,548.29a3.25,3.25,0,0,1-1.1-2.5v-.3a1.42,1.42,0,0,0-2.8.3v.2"
     transform="translate(-4.26 -9.2)"
     id="path350677" />
  <path
     class="cls-6"
     d="M95.94,548.29v2.2c.6-.5,1.2-.9,1.8-1.4A3.7,3.7,0,0,1,95.94,548.29Z"
     transform="translate(-4.26 -9.2)"
     id="path350679" />
  <path
     class="cls-6"
     d="M95.94,545.29v3"
     transform="translate(-4.26 -9.2)"
     id="path350681" />
  <path
     class="cls-6"
     d="M95.94,545.29c.5-.1.9-.1,1.4-.2l-1.4-1.4Z"
     transform="translate(-4.26 -9.2)"
     id="path350683" />
  <path
     class="cls-6"
     d="M92,546a1.16,1.16,0,0,0,1,0,12.09,12.09,0,0,1,1.8-.5,4.25,4.25,0,0,1,1.1-.2"
     transform="translate(-4.26 -9.2)"
     id="path350685" />
  <path
     d="M181.64,436c1.7,3.7,1.8,10-2.6,11.9a6.28,6.28,0,0,1-6.6-1,18.23,18.23,0,0,0-2.1-6.2c-.1-.1-.1-.2-.2-.2l.3.3c1.8,2.5,5.4,7,8.6,3.5,1.8-1.9.6-6.2-.6-8.1-1.5-2.2-5.6-4.9-8.4-3.7-2.5,1-1.8,5.2-1.2,7.5a4.88,4.88,0,0,0-.7.3c-.8-1.5-1.7-2.9-2.6-4.3,0-3.1,1-6,4.4-6.4A11.42,11.42,0,0,1,181.64,436Z"
     transform="translate(-4.26 -9.2)"
     id="path350687" />
  <path
     class="cls-7"
     d="M178.54,436.19c1.2,1.9,2.4,6.2.6,8.1-3.2,3.5-6.8-1-8.6-3.5l-.3-.3h0a1.25,1.25,0,0,0-1.3-.4c-.6-2.3-1.3-6.6,1.2-7.5C172.94,431.29,177,433.89,178.54,436.19Z"
     transform="translate(-4.26 -9.2)"
     id="path350689" />
  <path
     d="M172.54,446.89c1.7,11.4-7.7,22.1-18.4,26-12.8,4.7-32.2,6.1-43.9-1.9-5.8-4-8.8-10.3-10.2-17-1.5-7.1-2.9-15.7-.2-22.7a15.79,15.79,0,0,1,4.5-6.4c.4.7.9,1.4,1.4,2.1.1.1.1.2.2.2a11.22,11.22,0,0,0-2.2,2.6c-4.5,6.9-2.5,17.6-.7,25,4.6,18.9,24.4,20.4,40.7,17.9,7.5-1.2,15.3-3.7,20.5-9.5a20.61,20.61,0,0,0,5.5-15,1.3,1.3,0,0,0,1-1.6c-.2-.6-.4-1.3-.6-1.9A12.56,12.56,0,0,0,172.54,446.89Z"
     transform="translate(-4.26 -9.2)"
     id="path350691" />
  <path
     d="M170.74,446.59a1.22,1.22,0,0,1-1,1.6,15.92,15.92,0,0,0-1.7-5.9h.1c.6.8,1.2,1.6,1.9,2.4A10.66,10.66,0,0,1,170.74,446.59Z"
     transform="translate(-4.26 -9.2)"
     id="path350693" />
  <path
     class="cls-7"
     d="M169.74,448.19a20.76,20.76,0,0,1-5.5,15c-5.2,5.8-13.1,8.3-20.5,9.5-16.3,2.5-36.1,1-40.7-17.9-1.8-7.5-3.8-18.1.7-25a13.77,13.77,0,0,1,2.2-2.6c1,.9,2.4-.3,2.1-1.6a21.57,21.57,0,0,1,6.7-2.5,1.7,1.7,0,0,0,2-.3h0a65,65,0,0,1,9.7-.5c17.1.1,36.4,6.9,41.4,25A1.62,1.62,0,0,0,169.74,448.19Zm-50-11.1a1.9,1.9,0,0,0,1.5-1.7,1.08,1.08,0,0,0-.2-.8,1.56,1.56,0,0,0-.6-.8c-.1-.1-.2-.1-.3-.2a.75.75,0,0,0,.1-.5,1.52,1.52,0,0,0-1.4-1.5,2.72,2.72,0,0,0-2.6,3.8,2.63,2.63,0,0,0,2.1,1.4A1.74,1.74,0,0,0,119.74,437.09Zm-3.5,9.3c1.6-.5,2.8-2.4,1.7-3.9a2.36,2.36,0,0,0-2-.9,2.44,2.44,0,0,0-3.6-.4c-.1,0-.1.1-.2.1a2.71,2.71,0,0,0-3.6,3.2c.7,2.7,4.4,3.4,6.6,2A4.48,4.48,0,0,0,116.24,446.39Zm-5.5-12.5a3,3,0,0,0-.2-2.6,1.66,1.66,0,0,0-2.1-.3,1.76,1.76,0,0,0-.8.9h0a2.07,2.07,0,0,0-.8,2.6C107.64,436.19,110.14,435.49,110.74,433.89Z"
     transform="translate(-4.26 -9.2)"
     id="path350695" />
  <path
     d="M172.54,446.89a12.56,12.56,0,0,1-2.4-2.2,14.76,14.76,0,0,0-1.2-2.9,1.31,1.31,0,0,0,.2-1.1c0-.2-.1-.3-.1-.5a1.64,1.64,0,0,1,1.2.2h0c.1.1.1.2.2.2A19.5,19.5,0,0,1,172.54,446.89Z"
     transform="translate(-4.26 -9.2)"
     id="path350697" />
  <path
     d="M169.74,448.19a1.44,1.44,0,0,1-1.8-1c-5-18.2-24.3-24.9-41.4-25a65,65,0,0,0-9.7.5,18.79,18.79,0,0,1,3.5-3.4,77.18,77.18,0,0,1,17.1.9c11.1,1.8,21.7,7,28.1,15.8a16.69,16.69,0,0,0,.8,5.2,1.37,1.37,0,0,0,1.7,1A17,17,0,0,1,169.74,448.19Z"
     transform="translate(-4.26 -9.2)"
     id="path350699" />
  <path
     d="M170.24,440.39a1.32,1.32,0,0,0-1.2-.2V440A1.2,1.2,0,0,1,170.24,440.39Z"
     transform="translate(-4.26 -9.2)"
     id="path350701" />
  <path
     d="M168.94,441.69c.4,1,.8,1.9,1.2,2.9-.7-.8-1.3-1.6-1.9-2.4C168.54,442.19,168.74,442,168.94,441.69Z"
     transform="translate(-4.26 -9.2)"
     id="path350703" />
  <path
     d="M169.14,440.59a1.31,1.31,0,0,1-.2,1.1c-.2-.4-.4-.9-.6-1.3a.91.91,0,0,1,.7-.3A.75.75,0,0,0,169.14,440.59Z"
     transform="translate(-4.26 -9.2)"
     id="path350705" />
  <path
     d="M168.94,441.69a1.16,1.16,0,0,1-.7.5c0-.1-.1-.1-.1-.2a1.21,1.21,0,0,1,.2-1.6C168.54,440.89,168.74,441.29,168.94,441.69Z"
     transform="translate(-4.26 -9.2)"
     id="path350707" />
  <path
     d="M168.94,440v.2c-.2.1-.5.2-.7.3a.31.31,0,0,0-.1-.2A1.6,1.6,0,0,1,168.94,440Z"
     transform="translate(-4.26 -9.2)"
     id="path350709" />
  <path
     d="M168.14,442.09c0,.1.1.1.1.2h-.1c0-.1-.1-.2-.1-.3a1.34,1.34,0,0,1,.3-1.7.35.35,0,0,1,.1.2A1,1,0,0,0,168.14,442.09Z"
     transform="translate(-4.26 -9.2)"
     id="path350711" />
  <path
     d="M167.94,442c0,.1.1.2.1.3a1.37,1.37,0,0,1-1.7-1,21,21,0,0,1-.8-5.2,23.43,23.43,0,0,1,2.6,4.3A1.29,1.29,0,0,0,167.94,442Z"
     transform="translate(-4.26 -9.2)"
     id="path350713" />
  <path
     d="M135.24,390c5.2,3.8,4.8,11.4,1.5,16.2-4.1,5.9-11,8.6-16.5,13a39.34,39.34,0,0,0-4.8.6c3-3.2,6.7-5.5,10.4-7.9,5.4-3.5,12.8-9.2,9.8-16.6-1.9-4.8-6.6-4.7-10.5-2.5a18.89,18.89,0,0,0-4.1,3,19.15,19.15,0,0,0,.5-4.1C125.74,389,130.94,386.89,135.24,390Z"
     transform="translate(-4.26 -9.2)"
     id="path350715" />
  <path
     class="cls-7"
     d="M135.84,395.39c3,7.4-4.4,13.1-9.8,16.6-3.8,2.4-7.4,4.7-10.4,7.9a8.47,8.47,0,0,0-1.7.4c.4-2.1.7-4.2,1.1-6.3,1-2.8,1.9-5.5,2.9-8.3,1-3,2.6-6.4,3.3-9.7a18.89,18.89,0,0,1,4.1-3C129.24,390.69,133.84,390.59,135.84,395.39Z"
     transform="translate(-4.26 -9.2)"
     id="path350717" />
  <path
     d="M121.24,435.29a1.73,1.73,0,0,1-1.5,1.7,1.91,1.91,0,0,1-1.3-.2h.1a2.77,2.77,0,0,0,2.4-1.1,1.06,1.06,0,0,0,.1-1.2A.83.83,0,0,1,121.24,435.29Z"
     transform="translate(-4.26 -9.2)"
     id="path350719" />
  <path
     d="M118.74,434.09h0l-.1-.1h0c0,.1.1.3.1.4s-.1.2-.1.4c0-.1.1-.2.2-.3l.3,1.5c.4.3.9,0,1.2-.3,0-.9-.2-1.4-.6-1.6.2-.1.3-.3.4-.4a1.7,1.7,0,0,1,1,.6,1.67,1.67,0,0,1-.1,1.2,2.45,2.45,0,0,1-2.4,1.1h-.1a2.34,2.34,0,0,1-.7-.7,1.89,1.89,0,0,1,2.5-2.5c0,.1-.1.2-.2.3H120a1.16,1.16,0,0,0-1,.4h0c-.2.1-.2.1-.3,0Z"
     transform="translate(-4.26 -9.2)"
     id="path350721" />
  <path
     d="M117.94,442.49c1.1,1.5-.1,3.5-1.7,3.9a4.87,4.87,0,0,1-1.2.1,5.24,5.24,0,0,0,1.1-1,3.17,3.17,0,0,0-.3-3.9A2.2,2.2,0,0,1,117.94,442.49Z"
     transform="translate(-4.26 -9.2)"
     id="path350723" />
  <path
     d="M120.44,433.79a5.55,5.55,0,0,1,.6.8,1.33,1.33,0,0,0-1-.6c.1-.1.1-.2.2-.3S120.34,433.69,120.44,433.79Z"
     transform="translate(-4.26 -9.2)"
     id="path350725" />
  <path
     d="M120.24,433.09a.9.9,0,0,1-.1.5,2.12,2.12,0,0,0-1.9.2,1.87,1.87,0,0,0-.6,2.3,1.58,1.58,0,0,0,.7.7,2.63,2.63,0,0,1-2.1-1.4,2.72,2.72,0,0,1,2.6-3.8A1.45,1.45,0,0,1,120.24,433.09Z"
     transform="translate(-4.26 -9.2)"
     id="path350727" />
  <path
     d="M118.84,434.49h0a1.45,1.45,0,0,0,.7-.2c.4.1.6.6.6,1.6-.3.3-.8.6-1.2.3l-.3-1.5a.22.22,0,0,1,.2-.2Z"
     transform="translate(-4.26 -9.2)"
     id="path350729" />
  <path
     d="M118.84,434.39h0v-.1a1.16,1.16,0,0,1,1-.4h.1c-.1.2-.3.3-.4.4h-.3a.76.76,0,0,0-.4.1c.1,0,.1-.1,0,0,.1-.1.1,0,0,0Z"
     transform="translate(-4.26 -9.2)"
     id="path350731" />
  <path
     d="M116.64,444.09a3,3,0,0,1-.5,1.3,2.66,2.66,0,0,1-1.1,1,5.1,5.1,0,0,1-3.6-2.2,1.45,1.45,0,0,0,1.1.1,1.37,1.37,0,0,0,1.1-.4c.2-.2.1-.9.2-1h.1c-.3,1.5,1.8,2.6,2.7,1.2Z"
     transform="translate(-4.26 -9.2)"
     id="path350733" />
  <path
     d="M116.64,444.09h0c-.6,1-1.9-1.1-2.6-1.1a.76.76,0,0,1,.2-.4,1.86,1.86,0,0,1,1.7-1A3.53,3.53,0,0,1,116.64,444.09Z"
     transform="translate(-4.26 -9.2)"
     id="path350735" />
  <path
     d="M118.94,434.39h0a.37.37,0,0,1,.3-.1h.3a.66.66,0,0,1-.6.1Z"
     transform="translate(-4.26 -9.2)"
     id="path350737" />
  <path
     d="M114,443c.7,0,2,2.1,2.5,1.1C115.74,445.49,113.64,444.39,114,443Z"
     transform="translate(-4.26 -9.2)"
     id="path350739" />
  <path
     d="M118.94,434.29Z"
     transform="translate(-4.26 -9.2)"
     id="path350741" />
  <path
     d="M118.94,434.39Z"
     transform="translate(-4.26 -9.2)"
     id="path350743" />
  <path
     d="M118.94,434.39Z"
     transform="translate(-4.26 -9.2)"
     id="path350745" />
  <path
     d="M118.94,434.39Z"
     transform="translate(-4.26 -9.2)"
     id="path350747" />
  <path
     d="M118.94,434.39Z"
     transform="translate(-4.26 -9.2)"
     id="path350749" />
  <path
     d="M118.94,434.39Z"
     transform="translate(-4.26 -9.2)"
     id="path350751" />
  <path
     d="M118.84,434.39Z"
     transform="translate(-4.26 -9.2)"
     id="path350753" />
  <path
     d="M118.94,434.39Z"
     transform="translate(-4.26 -9.2)"
     id="path350755" />
  <path
     d="M118.84,434.39Z"
     transform="translate(-4.26 -9.2)"
     id="path350757" />
  <path
     d="M118.84,434.39Z"
     transform="translate(-4.26 -9.2)"
     id="path350759" />
  <polygon
     points="114.58 425.26 114.58 425.26 114.58 425.26 114.58 425.26"
     id="polygon350761" />
  <path
     d="M118.84,434.39Z"
     transform="translate(-4.26 -9.2)"
     id="path350763" />
  <path
     d="M118.84,434.39Z"
     transform="translate(-4.26 -9.2)"
     id="path350765" />
  <path
     d="M118.84,434.39Z"
     transform="translate(-4.26 -9.2)"
     id="path350767" />
  <path
     d="M118.84,434.49Z"
     transform="translate(-4.26 -9.2)"
     id="path350769" />
  <path
     d="M118.84,434.39Z"
     transform="translate(-4.26 -9.2)"
     id="path350771" />
  <path
     d="M118.84,434.49Z"
     transform="translate(-4.26 -9.2)"
     id="path350773" />
  <path
     d="M118.84,434.49h0c-.1,0,0-.1,0,0Z"
     transform="translate(-4.26 -9.2)"
     id="path350775" />
  <path
     d="M118.84,434.49Z"
     transform="translate(-4.26 -9.2)"
     id="path350777" />
  <path
     d="M118.84,434.39Z"
     transform="translate(-4.26 -9.2)"
     id="path350779" />
  <path
     d="M118.84,434.39Z"
     transform="translate(-4.26 -9.2)"
     id="path350781" />
  <path
     d="M118.84,434.39h0a.31.31,0,0,1-.2.1h0A.35.35,0,0,0,118.84,434.39Z"
     transform="translate(-4.26 -9.2)"
     id="path350783" />
  <path
     d="M118.84,434.39h0c-.1,0-.1.1-.2.1h0c0-.1.1-.1.2-.2v.1Z"
     transform="translate(-4.26 -9.2)"
     id="path350785" />
  <path
     d="M118.64,434.49a.1.1,0,0,1-.1.1c0-.1-.1-.3-.1-.4h.2l.1.1h0c.1,0,0,.1-.1.2Z"
     transform="translate(-4.26 -9.2)"
     id="path350787" />
  <path
     d="M118.74,434.49c-.1,0-.1.1-.1.2h0c0-.1,0-.2.1-.2Z"
     transform="translate(-4.26 -9.2)"
     id="path350789" />
  <path
     d="M118.84,434.19h0c-.1-.1,0-.1,0,0Z"
     transform="translate(-4.26 -9.2)"
     id="path350791" />
  <path
     d="M118.84,434.09Z"
     transform="translate(-4.26 -9.2)"
     id="path350793" />
  <path
     d="M118.64,434.59h0a.6.6,0,0,0-.1.4A.6.6,0,0,1,118.64,434.59Z"
     transform="translate(-4.26 -9.2)"
     id="path350795" />
  <path
     d="M118.74,434.09Z"
     transform="translate(-4.26 -9.2)"
     id="path350797" />
  <path
     d="M118.74,434Z"
     transform="translate(-4.26 -9.2)"
     id="path350799" />
  <path
     d="M118.74,434Z"
     transform="translate(-4.26 -9.2)"
     id="path350801" />
  <path
     d="M118.74,434.09Z"
     transform="translate(-4.26 -9.2)"
     id="path350803" />
  <path
     d="M118.74,434h0c-.1.1-.1,0,0,0Z"
     transform="translate(-4.26 -9.2)"
     id="path350805" />
  <path
     d="M118.74,434c-.1,0-.1.1,0,0Z"
     transform="translate(-4.26 -9.2)"
     id="path350807" />
  <path
     d="M118.64,434.09Z"
     transform="translate(-4.26 -9.2)"
     id="path350809" />
  <path
     d="M118.64,434Z"
     transform="translate(-4.26 -9.2)"
     id="path350811" />
  <path
     d="M118.64,434Z"
     transform="translate(-4.26 -9.2)"
     id="path350813" />
  <path
     d="M118.64,434Z"
     transform="translate(-4.26 -9.2)"
     id="path350815" />
  <path
     d="M118.64,434Z"
     transform="translate(-4.26 -9.2)"
     id="path350817" />
  <path
     d="M118.64,434.09Z"
     transform="translate(-4.26 -9.2)"
     id="path350819" />
  <path
     d="M111.54,444.29a4.8,4.8,0,0,0,3.6,2.2c-2.2,1.4-5.9.7-6.6-2a2.76,2.76,0,0,1,3.6-3.2,2.15,2.15,0,0,0-.7,2.7c-.3-.2-.5-.3-.6-.6A1.27,1.27,0,0,0,111.54,444.29Z"
     transform="translate(-4.26 -9.2)"
     id="path350821" />
  <path
     d="M115.94,441.49a1.94,1.94,0,0,0-1.7,1c-.1.1-.1.3-.2.4h-.1c-.1,0,0,.7-.2,1a1.37,1.37,0,0,1-1.1.4,1.15,1.15,0,0,0,.9-1.6,2.34,2.34,0,0,0-1.4-1.5c.1,0,.1-.1.2-.1A2.45,2.45,0,0,1,115.94,441.49Z"
     transform="translate(-4.26 -9.2)"
     id="path350823" />
  <path
     d="M113.54,442.79a1.18,1.18,0,0,1-.9,1.6,1.27,1.27,0,0,1-.6-.1c-.2-.1-.5-.2-.7-.3a2.13,2.13,0,0,1,.7-2.7A2.46,2.46,0,0,1,113.54,442.79Z"
     transform="translate(-4.26 -9.2)"
     id="path350825" />
  <path
     d="M112,444.29c.2,0,.4.1.6.1a1.38,1.38,0,0,1-1.1-.1.37.37,0,0,1-.1-.3A3.33,3.33,0,0,0,112,444.29Z"
     transform="translate(-4.26 -9.2)"
     id="path350827" />
  <path
     d="M111.34,444c0,.1.1.2.1.3a1.55,1.55,0,0,1-.8-.8A4.23,4.23,0,0,0,111.34,444Z"
     transform="translate(-4.26 -9.2)"
     id="path350829" />
  <path
     d="M120.34,419.29a18.79,18.79,0,0,0-3.5,3.4l-2,.3a1.09,1.09,0,0,1-.4-1.8c.4-.4.7-.9,1.1-1.3A39.34,39.34,0,0,1,120.34,419.29Z"
     transform="translate(-4.26 -9.2)"
     id="path350831" />
  <path
     d="M116.84,422.69h0a1.45,1.45,0,0,1-2,.3Z"
     transform="translate(-4.26 -9.2)"
     id="path350833" />
  <path
     d="M114.84,423a21.57,21.57,0,0,0-6.7,2.5.86.86,0,0,0-.3-.6l-1.2-1.8a17.07,17.07,0,0,1,2.7-1.4c-.5,1.6,1.9,2.4,2.6,1a1.19,1.19,0,0,0,1.7-.9c.1-.5.2-1.1.3-1.6.6-.1,1.1-.3,1.7-.4a6.89,6.89,0,0,0-1.1,1.3A1.15,1.15,0,0,0,114.84,423Z"
     transform="translate(-4.26 -9.2)"
     id="path350835" />
  <path
     d="M109.64,431.79a1.14,1.14,0,0,1,.4,1.4h0a.35.35,0,0,0-.1.2h0a1.6,1.6,0,0,0-2.4-1.4,1.76,1.76,0,0,1,.8-.9,1.66,1.66,0,0,1,2.1.3,2.65,2.65,0,0,1,.2,2.6c-.6,1.6-3,2.3-4,.6a2.07,2.07,0,0,1,.8-2.6,1.85,1.85,0,0,0-.2.7,1.63,1.63,0,0,0,1.2,1.7c.1,0,.2.1.3.1a.66.66,0,0,1-.6.1,1.18,1.18,0,0,0,1-.1h0a1.72,1.72,0,0,0,1.2-1A1.38,1.38,0,0,0,109.64,431.79Z"
     transform="translate(-4.26 -9.2)"
     id="path350837" />
  <path
     d="M110.34,433.39a1.41,1.41,0,0,1-1.2,1,1.27,1.27,0,0,0,.7-.9v-.2h0a.31.31,0,0,0,.1-.2h0a1.17,1.17,0,0,0-.4-1.4A1.42,1.42,0,0,1,110.34,433.39Z"
     transform="translate(-4.26 -9.2)"
     id="path350839" />
  <path
     d="M113.54,421.89a1.19,1.19,0,0,1-1.7.9c0-.1.1-.1.1-.2.2-.7.5-1.3.7-2l1.2-.3C113.74,420.79,113.64,421.39,113.54,421.89Z"
     transform="translate(-4.26 -9.2)"
     id="path350841" />
  <path
     d="M110.14,433.09Z"
     transform="translate(-4.26 -9.2)"
     id="path350843" />
  <path
     d="M109.94,433.49a1.6,1.6,0,0,1-.7.9h-.3a1.21,1.21,0,0,0,.5-.5c0-.1.1-.2,0-.4a1.42,1.42,0,0,0,.6-.2C109.94,433.39,109.94,433.39,109.94,433.49Z"
     transform="translate(-4.26 -9.2)"
     id="path350845" />
  <path
     d="M121.14,396c-.8,3.3-2.3,6.7-3.3,9.7-1,2.8-1.9,5.5-2.9,8.3.8-4.1,1.6-8.2,2.8-12.2A15.11,15.11,0,0,1,121.14,396Z"
     transform="translate(-4.26 -9.2)"
     id="path350847" />
  <path
     d="M109.94,433.29a.73.73,0,0,1-.6.2c-.1-.5-.6-1.1-1.1-.8h0c-.1-.2-.1-.4-.2-.5v.7l.2-.2c.1.2.1.3.2.5.3.2.7.4.9.3v.4a1.21,1.21,0,0,1-.5.5.37.37,0,0,1-.3-.1,1.71,1.71,0,0,1-1.2-1.7,1.45,1.45,0,0,1,.2-.7h0a1.69,1.69,0,0,1,1.4-.1A1.33,1.33,0,0,1,109.94,433.29Z"
     transform="translate(-4.26 -9.2)"
     id="path350849" />
  <path
     d="M109.34,433.49a1.61,1.61,0,0,1-.9-.3c-.1-.2-.1-.3-.2-.5h0C108.74,432.39,109.24,433,109.34,433.49Z"
     transform="translate(-4.26 -9.2)"
     id="path350851" />
  <path
     d="M108.84,434.39h.3a1.18,1.18,0,0,1-1,.1A1.48,1.48,0,0,0,108.84,434.39Z"
     transform="translate(-4.26 -9.2)"
     id="path350853" />
  <path
     d="M114.94,414c-.4,2.1-.8,4.2-1.1,6.3l-1.2.3C113.44,418.39,114.24,416.19,114.94,414Z"
     transform="translate(-4.26 -9.2)"
     id="path350855" />
  <path
     d="M114.94,414c-.8,2.2-1.5,4.4-2.3,6.6l-1.8.6v-.1c.5-2.8,1-5.6,1.6-8.5,1.3-3.8,2.6-7.5,3.9-11.3a62,62,0,0,0,2.3-6.9c.1-.1.3-.2.4-.4.8-.7,1.7-1.4,2.6-2.1a19.15,19.15,0,0,1-.5,4.1,14,14,0,0,0-3.4,5.8C116.64,405.79,115.74,409.89,114.94,414Z"
     transform="translate(-4.26 -9.2)"
     id="path350857" />
  <path
     d="M121.64,391.19v.7A29.62,29.62,0,0,0,119,394c-.1.1-.3.2-.4.4a8.53,8.53,0,0,0,0-4.2c-1.9-7.1-9.3-3.1-11.8,1-5.5,9-5.8,22.9-.2,32a18.82,18.82,0,0,0-2.3,1.6,32.16,32.16,0,0,1-4.2-20.2c.6-6.8,2.5-15.6,8.6-19.6C114.44,381.19,121.14,384.29,121.64,391.19Z"
     transform="translate(-4.26 -9.2)"
     id="path350859" />
  <path
     d="M112.74,420.59c-.2.7-.5,1.3-.7,2,0,.1-.1.1-.1.2a1.66,1.66,0,0,1-1.1-1.6C111.44,421,112,420.79,112.74,420.59Z"
     transform="translate(-4.26 -9.2)"
     id="path350861" />
  <path
     d="M108,432.19c.1.2.1.4.2.5-.1,0-.2.2-.2.2Z"
     transform="translate(-4.26 -9.2)"
     id="path350863" />
  <path
     d="M111.94,422.79c-.7,1.4-3.2.6-2.6-1,.5-.2,1-.4,1.6-.6A1.38,1.38,0,0,0,111.94,422.79Z"
     transform="translate(-4.26 -9.2)"
     id="path350865" />
  <path
     d="M110.84,421.09h0a11.11,11.11,0,0,1-1.6.7h0c1-3,2.1-6.1,3.2-9.1C111.94,415.39,111.34,418.19,110.84,421.09Z"
     transform="translate(-4.26 -9.2)"
     id="path350867" />
  <path
     d="M118.64,394.39a62,62,0,0,1-2.3,6.9c-1.3,3.8-2.6,7.5-3.9,11.3.6-3,1.2-6,2-8.9C115.24,400.09,116,397,118.64,394.39Z"
     transform="translate(-4.26 -9.2)"
     id="path350869" />
  <path
     class="cls-7"
     d="M112.44,412.59c-1.1,3-2.1,6.1-3.2,9.1h0c-.9.4-1.8.9-2.7,1.4-5.6-9.1-5.3-23,.2-32,2.5-4,9.9-8.1,11.8-1a8.53,8.53,0,0,1,0,4.2c-2.6,2.6-3.4,5.7-4.2,9.3C113.74,406.69,113,409.59,112.44,412.59Z"
     transform="translate(-4.26 -9.2)"
     id="path350871" />
  <path
     d="M108.14,425.49c.3,1.2-1.2,2.5-2.1,1.6A11.6,11.6,0,0,1,108.14,425.49Z"
     transform="translate(-4.26 -9.2)"
     id="path350873" />
  <path
     d="M107.84,425l.3.6a11.6,11.6,0,0,0-2.1,1.6l-.2-.2c-.5-.7-1-1.4-1.4-2.1a11.87,11.87,0,0,1,2.3-1.6C107,423.79,107.44,424.39,107.84,425Z"
     transform="translate(-4.26 -9.2)"
     id="path350875" />
  <path
     d="M257.14,511.29c-.5,6.2-5.1,11-10.5,13.6-19.7,9.6-61.6-.4-54.1-28.9a24.8,24.8,0,0,1,8.7-13.1,27,27,0,0,1,3.3-2.2,2.78,2.78,0,0,0,2.7-1c.2-.2.3-.3.3-.5a30.44,30.44,0,0,1,3.9-1.4,2.09,2.09,0,0,0,.4.6,2.65,2.65,0,0,0,.6.5l.7,1.4c-1,.3-2.1.6-3.2,1-12.4,4.6-20.6,20.2-12.1,32,9,12.4,30.5,14.7,44.1,10.5,8.3-2.6,14.1-9.4,11.6-18.3-1.1-3.8-2.6-7.2-3.1-11a1.32,1.32,0,0,0,.9-1,1.6,1.6,0,0,0,.7-.9,10.47,10.47,0,0,0,1.1.8C253.64,499.49,257.64,505,257.14,511.29Z"
     transform="translate(-4.26 -9.2)"
     id="path350877" />
  <path
     d="M265.44,482.59c2.7,3.7,2.5,9.5-1.5,12.2-3.6,2.5-7.5.8-10.8-1.4v-1.7a1.57,1.57,0,0,0-1.8-1.6,6.75,6.75,0,0,1,.2-1.4,1.33,1.33,0,0,1,.8.3c2.5,2.1,6.3,5.5,9.7,3.5s2.7-6.5.5-9.1a9.69,9.69,0,0,0-4.3-2.9c-2.5-.7-3.6.7-4.6,2.7a24.09,24.09,0,0,0-2.1,5.4,1.51,1.51,0,0,0-1.4.9c-.5-.4-.9-.9-1.4-1.3a21.85,21.85,0,0,1,1-3.4c.9-2.3,2-5.5,4.2-6.7C258,475.89,263.24,479.39,265.44,482.59Z"
     transform="translate(-4.26 -9.2)"
     id="path350879" />
  <path
     class="cls-5"
     d="M262.64,483.49c2.2,2.6,2.9,7.2-.5,9.1s-7.3-1.4-9.7-3.5a1.14,1.14,0,0,0-.8-.3,20.88,20.88,0,0,1,2.1-5.4c1-2,2.1-3.4,4.6-2.7A8.74,8.74,0,0,1,262.64,483.49Z"
     transform="translate(-4.26 -9.2)"
     id="path350881" />
  <path
     class="cls-5"
     d="M253.64,505.39c2.5,8.9-3.2,15.7-11.6,18.3-13.7,4.2-35.1,1.9-44.1-10.5-8.6-11.8-.3-27.4,12.1-32a29.92,29.92,0,0,1,3.2-1c12.9-3.2,25.8,2.8,35.4,11.6,0,.5.1,1,.1,1.5a1.39,1.39,0,0,0,1.9,1.1C251,498.19,252.54,501.69,253.64,505.39Zm-41.6.2c1.8.2,2.2-2.6.4-2.8a19.55,19.55,0,0,1-8.7-3.2c-1.5-1-3.3,1.2-1.8,2.2A24.33,24.33,0,0,0,212,505.59Zm.7-7.9a3.23,3.23,0,0,0,2.8-3.2,1.84,1.84,0,0,0-1.6-1.8,1.29,1.29,0,0,0-1.5-.8,3.1,3.1,0,0,0-2.7,2.9A2.76,2.76,0,0,0,212.74,497.69Zm-9.1-1.8c1.7-.2,2.1-2.1,1.5-3.4-.4-.8-.9-1.6-2-1.4a1.83,1.83,0,0,0-1.5,1.3,2.54,2.54,0,0,0-.2,1.2A1.85,1.85,0,0,0,203.64,495.89Z"
     transform="translate(-4.26 -9.2)"
     id="path350883" />
  <path
     d="M253.14,491.69v1.7l-1.1-.8a1.27,1.27,0,0,0-.4-1.5l-.4-.4a.75.75,0,0,1,.1-.5A1.42,1.42,0,0,1,253.14,491.69Z"
     transform="translate(-4.26 -9.2)"
     id="path350885" />
  <path
     d="M252.14,492.59a1.6,1.6,0,0,1-.7.9V493a4.1,4.1,0,0,1-.1-1.1C251.54,492.09,251.84,492.29,252.14,492.59Z"
     transform="translate(-4.26 -9.2)"
     id="path350887" />
  <path
     d="M251.44,493.49a1.3,1.3,0,0,1-.9,1c0-.3-.1-.6-.1-.9A1.73,1.73,0,0,0,251.44,493.49Z"
     transform="translate(-4.26 -9.2)"
     id="path350889" />
  <path
     d="M252.14,492.59a2.7,2.7,0,0,1-.8-.7v-1.3l.4.4A1.46,1.46,0,0,1,252.14,492.59Z"
     transform="translate(-4.26 -9.2)"
     id="path350891" />
  <path
     d="M251.44,493v.5a1.15,1.15,0,0,1-1,.1,8.84,8.84,0,0,1,0-2.3v-.2c0,.1.1.1.2.2s.5.4.7.6A4.1,4.1,0,0,0,251.44,493Z"
     transform="translate(-4.26 -9.2)"
     id="path350893" />
  <path
     d="M250.44,493.49c0,.3.1.6.1.9a1.42,1.42,0,0,1-1.9-1.1,7.57,7.57,0,0,1-.1-1.5c.5.5,1,.9,1.5,1.4C250.14,493.39,250.24,493.49,250.44,493.49Z"
     transform="translate(-4.26 -9.2)"
     id="path350895" />
  <path
     d="M251.34,491.89c-.2-.2-.5-.4-.7-.6l-.2-.2a1.23,1.23,0,0,1,.5-.8l.4.4Z"
     transform="translate(-4.26 -9.2)"
     id="path350897" />
  <path
     d="M250.44,493.49a1.38,1.38,0,0,1-.4-.3,19.2,19.2,0,0,0-1.5-1.4,20.68,20.68,0,0,1,.3-3.5,8.64,8.64,0,0,1,1.4,1.3,1.39,1.39,0,0,0,.2,1.5v.2A8.1,8.1,0,0,0,250.44,493.49Z"
     transform="translate(-4.26 -9.2)"
     id="path350899" />
  <path
     d="M251.34,490.59l-.4-.4c.1-.1.3-.1.4-.2Z"
     transform="translate(-4.26 -9.2)"
     id="path350901" />
  <path
     d="M251.34,490.09a.52.52,0,0,0-.4.2c-.2-.2-.5-.4-.7-.6a1.69,1.69,0,0,1,1.4-.9C251.54,489.19,251.44,489.69,251.34,490.09Z"
     transform="translate(-4.26 -9.2)"
     id="path350903" />
  <path
     d="M250.24,489.59c.2.2.5.4.7.6a.89.89,0,0,0-.5.8A1.21,1.21,0,0,1,250.24,489.59Z"
     transform="translate(-4.26 -9.2)"
     id="path350905" />
  <path
     d="M248.84,488.29a13.43,13.43,0,0,0-.3,3.5c-9.6-8.8-22.4-14.8-35.4-11.6l-.7-1.4a1.44,1.44,0,0,0,1.9-1.7,7.72,7.72,0,0,1,1.5-.2C228,475.09,239.74,480.49,248.84,488.29Z"
     transform="translate(-4.26 -9.2)"
     id="path350907" />
  <path
     d="M212.44,502.79c1.8.2,1.4,3-.4,2.8a24.33,24.33,0,0,1-10.1-3.8c-1.5-1,.3-3.2,1.8-2.2A21.73,21.73,0,0,0,212.44,502.79Z"
     transform="translate(-4.26 -9.2)"
     id="path350909" />
  <path
     d="M215.54,494.39a3.15,3.15,0,0,1-2.8,3.2,2.74,2.74,0,0,1-3-3,3,3,0,0,1,2.7-2.9,1.76,1.76,0,0,1,1.5.8h-.4a3.37,3.37,0,0,0-2.3,1.3,1.53,1.53,0,0,0,.2,2,1.42,1.42,0,0,0,2-.2c.2-.2.2-.3.4-.3-.4-.3-.7-.6-1-.8h.1a1.34,1.34,0,0,0,1.2-1.6c0-.1-.1-.3-.1-.4A1.85,1.85,0,0,1,215.54,494.39Z"
     transform="translate(-4.26 -9.2)"
     id="path350911" />
  <path
     d="M212.64,494.69h.1s0-.1-.1,0h0l.1-.1h0c.4.3.7.6,1,.8-.2,0-.3,0-.4.3a1.42,1.42,0,0,1-2,.2,1.53,1.53,0,0,1-.2-2,3.37,3.37,0,0,1,2.3-1.3h.4c0,.1.1.3.1.4a1.52,1.52,0,0,1-1.2,1.6h-.1a.1.1,0,0,1,.1-.1h0l-.1.2Zm-.2.1Zm0,0h0C212.34,494.89,212.44,494.89,212.44,494.79Zm0,0h0c.1,0,.1,0,.1.1h0v-.2h0c.1,0,0,.1-.1.1Z"
     transform="translate(-4.26 -9.2)"
     id="path350913" />
  <path
     d="M232,452.59c-.8,4.2-3.6,7.7-6.1,11.1-3.2,4.4-6.7,8.6-10.2,12.7a1.46,1.46,0,0,1-1.6.4v-.1l-.9-1.5a.86.86,0,0,1,.3-.6,152.1,152.1,0,0,0,11.7-14.8c2.5-3.6,4.4-7,4.2-11.5-.1-2.5-.4-7-2.8-8.3-4.4-2.4-9.4,2.8-11,6.2a25,25,0,0,0-2.3,8.2l-1.1-.2a29,29,0,0,0,.3-7.2v-.3h0c2.1-5.3,6-10,12.2-9.8C232.24,437.09,233.24,446.79,232,452.59Z"
     transform="translate(-4.26 -9.2)"
     id="path350915" />
  <path
     d="M212.64,495Z"
     transform="translate(-4.26 -9.2)"
     id="path350917" />
  <path
     d="M212.74,494.69Z"
     transform="translate(-4.26 -9.2)"
     id="path350919" />
  <path
     d="M212.64,494.89Z"
     transform="translate(-4.26 -9.2)"
     id="path350921" />
  <path
     d="M212.64,495Z"
     transform="translate(-4.26 -9.2)"
     id="path350923" />
  <path
     d="M212.74,494.49Z"
     transform="translate(-4.26 -9.2)"
     id="path350925" />
  <path
     d="M212.74,494.49Z"
     transform="translate(-4.26 -9.2)"
     id="path350927" />
  <path
     d="M212.64,494.89Z"
     transform="translate(-4.26 -9.2)"
     id="path350929" />
  <path
     d="M212.64,494.89Z"
     transform="translate(-4.26 -9.2)"
     id="path350931" />
  <path
     d="M212.74,494.59Z"
     transform="translate(-4.26 -9.2)"
     id="path350933" />
  <path
     d="M212.74,494.59Z"
     transform="translate(-4.26 -9.2)"
     id="path350935" />
  <path
     d="M212.74,494.59Z"
     transform="translate(-4.26 -9.2)"
     id="path350937" />
  <path
     d="M212.54,494.89Z"
     transform="translate(-4.26 -9.2)"
     id="path350939" />
  <path
     d="M212.74,494.59Z"
     transform="translate(-4.26 -9.2)"
     id="path350941" />
  <polygon
     points="208.51 485.36 208.51 485.36 208.51 485.36 208.51 485.36"
     id="polygon350943" />
  <polygon
     points="208.43 485.31 208.43 485.31 208.43 485.31 208.43 485.31"
     id="polygon350945" />
  <path
     d="M212.74,494.59h0c-.1,0-.1.1,0,0Z"
     transform="translate(-4.26 -9.2)"
     id="path350947" />
  <path
     d="M212.74,494.49Z"
     transform="translate(-4.26 -9.2)"
     id="path350949" />
  <path
     d="M212.74,494.59Z"
     transform="translate(-4.26 -9.2)"
     id="path350951" />
  <path
     d="M212.74,494.49Z"
     transform="translate(-4.26 -9.2)"
     id="path350953" />
  <path
     d="M212.74,494.59Z"
     transform="translate(-4.26 -9.2)"
     id="path350955" />
  <path
     d="M212.74,494.49Z"
     transform="translate(-4.26 -9.2)"
     id="path350957" />
  <path
     d="M212.54,494.79Zm0,0h0l.1-.1a.1.1,0,0,1-.1.1l.1-.1h0v.2c0-.1,0,0-.1-.1Z"
     transform="translate(-4.26 -9.2)"
     id="path350959" />
  <path
     d="M212.74,494.59Z"
     transform="translate(-4.26 -9.2)"
     id="path350961" />
  <path
     d="M212.74,494.49Z"
     transform="translate(-4.26 -9.2)"
     id="path350963" />
  <path
     d="M212.74,494.49Z"
     transform="translate(-4.26 -9.2)"
     id="path350965" />
  <path
     d="M212.74,494.49Z"
     transform="translate(-4.26 -9.2)"
     id="path350967" />
  <path
     d="M212.74,494.49Z"
     transform="translate(-4.26 -9.2)"
     id="path350969" />
  <path
     d="M212.74,494.49Z"
     transform="translate(-4.26 -9.2)"
     id="path350971" />
  <path
     d="M212.74,494.59Z"
     transform="translate(-4.26 -9.2)"
     id="path350973" />
  <path
     d="M212.74,494.59Z"
     transform="translate(-4.26 -9.2)"
     id="path350975" />
  <path
     d="M212.74,494.49Z"
     transform="translate(-4.26 -9.2)"
     id="path350977" />
  <path
     d="M212.74,494.59Z"
     transform="translate(-4.26 -9.2)"
     id="path350979" />
  <path
     d="M212.74,494.59Z"
     transform="translate(-4.26 -9.2)"
     id="path350981" />
  <path
     d="M212.54,494.89Z"
     transform="translate(-4.26 -9.2)"
     id="path350983" />
  <path
     d="M212.74,494.59Z"
     transform="translate(-4.26 -9.2)"
     id="path350985" />
  <path
     d="M212.74,494.59Z"
     transform="translate(-4.26 -9.2)"
     id="path350987" />
  <path
     d="M212.74,494.59Z"
     transform="translate(-4.26 -9.2)"
     id="path350989" />
  <path
     d="M212.64,494.59Z"
     transform="translate(-4.26 -9.2)"
     id="path350991" />
  <path
     d="M212.64,494.59Z"
     transform="translate(-4.26 -9.2)"
     id="path350993" />
  <path
     d="M212.64,494.69Z"
     transform="translate(-4.26 -9.2)"
     id="path350995" />
  <path
     d="M212.74,494.49Z"
     transform="translate(-4.26 -9.2)"
     id="path350997" />
  <path
     d="M212.64,494.69Z"
     transform="translate(-4.26 -9.2)"
     id="path350999" />
  <path
     d="M212.64,494.69Z"
     transform="translate(-4.26 -9.2)"
     id="path351001" />
  <path
     d="M212.74,494.59Z"
     transform="translate(-4.26 -9.2)"
     id="path351003" />
  <path
     d="M212.54,494.89Z"
     transform="translate(-4.26 -9.2)"
     id="path351005" />
  <path
     d="M212.54,494.79Z"
     transform="translate(-4.26 -9.2)"
     id="path351007" />
  <path
     d="M212.54,494.89Z"
     transform="translate(-4.26 -9.2)"
     id="path351009" />
  <path
     d="M212.54,494.79Z"
     transform="translate(-4.26 -9.2)"
     id="path351011" />
  <path
     d="M212.44,494.79c0,.1-.1.1,0,0Z"
     transform="translate(-4.26 -9.2)"
     id="path351013" />
  <path
     d="M212.34,494.79Z"
     transform="translate(-4.26 -9.2)"
     id="path351015" />
  <path
     class="cls-5"
     d="M229.44,448.39c.2,4.5-1.7,7.9-4.2,11.5a185.41,185.41,0,0,1-11.7,14.8.86.86,0,0,0-.3.6c-2.3-5.1-.9-13.6-.2-18.5.1-.7.2-1.5.3-2.3a26.43,26.43,0,0,1,2.3-8.2c1.7-3.3,6.6-8.5,11-6.2C229.14,441.39,229.34,445.79,229.44,448.39Z"
     transform="translate(-4.26 -9.2)"
     id="path351017" />
  <path
     d="M214.34,477.09a1.42,1.42,0,0,1-1.9,1.7,1.33,1.33,0,0,1-.6-.5c-.1-.2-.3-.4-.4-.6Z"
     transform="translate(-4.26 -9.2)"
     id="path351019" />
  <path
     d="M214.14,476.79c.1.1.1.2.2.3-1,.2-1.9.4-2.9.7-2-3.1-2-7.7-2-11.3.3-1.1.5-2.1.8-3.2.7-3,1.5-6,2-9.2l1.1.2c-.1.8-.2,1.5-.3,2.3-.7,4.9-2.1,13.4.2,18.5A1.55,1.55,0,0,0,214.14,476.79Z"
     transform="translate(-4.26 -9.2)"
     id="path351021" />
  <path
     d="M214.14,476.79a1.37,1.37,0,0,1-.9-1.6c.3.5.6,1,.9,1.6Z"
     transform="translate(-4.26 -9.2)"
     id="path351023" />
  <path
     d="M203.24,495.39a1.38,1.38,0,0,0,1.6-1.2,1.44,1.44,0,0,0-1.2-1.6c-.3,0-.1,0,.4.2l.2.2h0v.1h0v.2a.1.1,0,0,1-.1.1,1.06,1.06,0,0,0-.8-.9,1.47,1.47,0,0,0-1.9.7v.2a1.72,1.72,0,0,1,.2-1.2,2.17,2.17,0,0,1,1.5-1.3c1-.2,1.6.6,2,1.4a2.24,2.24,0,0,1-1.5,3.4,1.92,1.92,0,0,1-2.2-2.4A2.08,2.08,0,0,0,203.24,495.39Z"
     transform="translate(-4.26 -9.2)"
     id="path351025" />
  <path
     d="M204.14,494.29v0Zm-1.6-.7h0c.1.1.1.1.1.2h0v-.2a.1.1,0,0,1,.1-.1,3,3,0,0,1,.8.4h0c.1,0,.2-.1.4-.1l.1-.1a.9.9,0,0,1,.1.5v-.6l.1-.1v-.2h0v-.1h0a.22.22,0,0,0-.2-.2c-.5-.2-.6-.2-.4-.2a1.44,1.44,0,0,1,1.2,1.6,1.38,1.38,0,0,1-1.6,1.2,2.23,2.23,0,0,1-1.8-1.9v-.2a1.39,1.39,0,0,1,1.9-.7,1.42,1.42,0,0,1,.8.9.1.1,0,0,1-.1.1.82.82,0,0,0-.5-.5H203c-.1,0-.3.2-.4.3-.1-.1-.3-.1-.4-.2.1,0,.2.1.3.2Z"
     transform="translate(-4.26 -9.2)"
     id="path351027" />
  <path
     d="M204.14,494.39v0Z"
     transform="translate(-4.26 -9.2)"
     id="path351029" />
  <path
     d="M204.14,493.59a.64.64,0,0,1,0,.6v-.6Z"
     transform="translate(-4.26 -9.2)"
     id="path351031" />
  <path
     d="M204,493.69h0c-.3.1-.4.2-.5.2a3,3,0,0,1-.8-.4c.1-.1.3-.3.4-.3h.5A.7.7,0,0,1,204,493.69Z"
     transform="translate(-4.26 -9.2)"
     id="path351033" />
  <path
     d="M204.24,493.09Z"
     transform="translate(-4.26 -9.2)"
     id="path351035" />
  <path
     d="M203.54,493.89Z"
     transform="translate(-4.26 -9.2)"
     id="path351037" />
  <path
     d="M202.64,493.79h0l-.1-.1h0c-.1-.1-.1-.2-.2-.3.1.1.3.1.4.2a.1.1,0,0,1-.1.1v.1Z"
     transform="translate(-4.26 -9.2)"
     id="path351039" />
  <path
     d="M202.64,493.79Z"
     transform="translate(-4.26 -9.2)"
     id="path351041" />
  <path
     d="M207.54,479.19c-.1.2-.2.3-.3.5a2.78,2.78,0,0,1-2.7,1c.4-.2.8-.5,1.2-.7C206.34,479.69,206.94,479.49,207.54,479.19Z"
     transform="translate(-4.26 -9.2)"
     id="path351043" />
  <path
     d="M207.54,479.19c-.6.3-1.2.5-1.8.8l-.2-.4c.2-.7.5-1.5.7-2.2C207.14,477.59,207.84,478.39,207.54,479.19Z"
     transform="translate(-4.26 -9.2)"
     id="path351045" />
  <path
     d="M205.64,479.69l.2.4a7.46,7.46,0,0,0-1.2.7c-.3-.1-.5-.2-.8-.3a1.47,1.47,0,0,1-.7-1.9,164,164,0,0,0,5.8-21.6l.6-3.3,1.1.2a72.12,72.12,0,0,0-1.1,12.3v.5c-1,3.7-2,7.4-3.2,11a1.37,1.37,0,0,0-1.3.4c-.1,0-.1-.1-.2-.1C205.14,478.49,205.34,479.09,205.64,479.69Z"
     transform="translate(-4.26 -9.2)"
     id="path351047" />
  <path
     d="M205.64,479.69c-.2-.6-.5-1.2-.7-1.9.1,0,.1.1.2.1a1.31,1.31,0,0,1,1.3-.4A9.75,9.75,0,0,0,205.64,479.69Z"
     transform="translate(-4.26 -9.2)"
     id="path351049" />
  <path
     class="cls-5"
     d="M203.74,480.39a6.89,6.89,0,0,1,.8.3,27,27,0,0,0-3.3,2.2l-.1-.2a1.46,1.46,0,0,0-.2-2.5c-6.2-3-7.1-14.5-7.4-20.5-.3-5.5-.5-17.3,4.7-20.9s10.3,2.3,11.3,7a22.74,22.74,0,0,1-.1,7.8l-.6,3.3a202.38,202.38,0,0,1-5.8,21.6A1.44,1.44,0,0,0,203.74,480.39Z"
     transform="translate(-4.26 -9.2)"
     id="path351051" />
  <path
     d="M209.54,466.49V466a73,73,0,0,1,1.1-12.3c.1-.6.2-1.2.3-1.7a27.63,27.63,0,0,1,1.6-5.4v.3a24.88,24.88,0,0,1-.3,7.2c-.5,3.1-1.3,6.2-2,9.2C210,464.39,209.74,465.39,209.54,466.49Z"
     transform="translate(-4.26 -9.2)"
     id="path351053" />
  <path
     d="M200.94,480.29a1.5,1.5,0,0,1,.2,2.5,1,1,0,0,1-1.3.1c-8-3.8-9.1-17.4-9.1-25.1-.1-6.5.1-18.7,7.3-22,7.5-3.4,13.7,4.2,14.6,10.8h0A27.63,27.63,0,0,0,211,452c-.1.6-.2,1.1-.3,1.7l-1.1-.2a22.71,22.71,0,0,0,.1-7.8c-1-4.7-6.1-10.6-11.3-7s-4.9,15.4-4.7,20.9C193.84,465.79,194.84,477.29,200.94,480.29Z"
     transform="translate(-4.26 -9.2)"
     id="path351055" />
  <path
     d="M138.54,236.61c2.1,4.8.7,10.8-4.2,13.2a7.68,7.68,0,0,1-7.9-.5,14.41,14.41,0,0,0-1.4-5.5,1.47,1.47,0,0,1,1,.9c1.5,3.7,6.1,4.1,8.8,1.4,2.5-2.6,2.4-6.5.6-9.5s-5.4-4.6-8.7-2.4c-2.7,1.8-3.2,5-2.6,7.9a21.24,21.24,0,0,0-2.9-3.8,9.05,9.05,0,0,1,5.2-7.1C131.44,228.71,136.44,231.71,138.54,236.61Z"
     transform="translate(-4.26 -9.2)"
     id="path351057" />
  <path
     class="cls-8"
     d="M135.34,236.51c1.8,3,1.9,6.9-.6,9.5s-7.3,2.3-8.8-1.4a1.47,1.47,0,0,0-1-.9l-.9-1.8c-.6-2.9-.1-6,2.6-7.9C129.94,231.91,133.44,233.41,135.34,236.51Z"
     transform="translate(-4.26 -9.2)"
     id="path351059" />
  <path
     d="M125.84,252.81c1.8,5,2.1,10.1-2.1,14.4-5,5.2-12.9,8.3-19.9,9.6-12.7,2.5-26.4-.2-36.8-7.9-9.7-7.2-17.5-21.3-9.2-32.5a20.67,20.67,0,0,1,6.2-5.6c.1.1.2.1.3.2a.1.1,0,0,1,.1.1,1.76,1.76,0,0,0,1.9.6l.5,1a26.26,26.26,0,0,0-3.3,2c-7,5.2-7.7,14.6-3.8,22,6.5,12.2,21.7,18.3,34.9,18.3a43.28,43.28,0,0,0,19-4.3c3.5-1.7,7.9-4.1,9.8-7.6,1.8-3.3,1-6.9-.4-10.1l.9-.3A1.37,1.37,0,0,0,125.84,252.81Z"
     transform="translate(-4.26 -9.2)"
     id="path351061" />
  <path
     d="M126.44,251.71a1.36,1.36,0,0,1-.6,1.1c-.6-1.6-1.3-3.2-2-4.7a1,1,0,0,0-.5-.6h0a10.55,10.55,0,0,0-.5-1.9,1.48,1.48,0,0,0,.7.1,7.94,7.94,0,0,0,3,3.5A21.75,21.75,0,0,0,126.44,251.71Z"
     transform="translate(-4.26 -9.2)"
     id="path351063" />
  <path
     class="cls-8"
     d="M122.94,253c1.3,3.3,2.2,6.9.4,10.1-1.9,3.5-6.3,5.9-9.8,7.6a44.71,44.71,0,0,1-19,4.3c-13.2,0-28.5-6.1-34.9-18.3-3.9-7.4-3.2-16.7,3.8-22a16.15,16.15,0,0,1,3.3-2c5.6-2.8,12.5-3.5,18.5-3.6,10.7-.1,29.5,3.1,36,13.6a17.23,17.23,0,0,0,.7,2.1,1.56,1.56,0,0,0,.8.8,13.32,13.32,0,0,1,.5,1.9c-1-.6-2.5.7-1.9,2S122.44,251.81,122.94,253Zm-47.7-3c1.6-.8.1-3.2-1.5-2.4a11.83,11.83,0,0,1-9.4.6c-1.7-.6-2.4,2.2-.7,2.7A14.24,14.24,0,0,0,75.24,250Zm-5.6-7.4a2.78,2.78,0,0,0,2.7-2.8,1.45,1.45,0,0,0-1.5-1.4,1.35,1.35,0,0,0-1.2.8,1.3,1.3,0,0,0-1.4-.9,1.52,1.52,0,0,0-1.4,1.5A2.93,2.93,0,0,0,69.64,242.61Zm-6.6.9c1-.4,2.3-1.3,2.1-2.5a2.29,2.29,0,0,0-2.4-1.9,1.91,1.91,0,0,0-.8.3,1.57,1.57,0,0,0-1.6.3,2.13,2.13,0,0,0-.2,2.8A2.39,2.39,0,0,0,63,243.51Z"
     transform="translate(-4.26 -9.2)"
     id="path351065" />
  <path
     d="M125.84,252.81a1.53,1.53,0,0,1-2-.2.9.9,0,0,1-.2-.9,15.33,15.33,0,0,0-.3-4.3,1,1,0,0,1,.5.6C124.54,249.71,125.24,251.21,125.84,252.81Z"
     transform="translate(-4.26 -9.2)"
     id="path351067" />
  <path
     d="M123.84,252.71l-.9.3a35.39,35.39,0,0,0-1.6-3.4,1.47,1.47,0,0,1,1.9-2h0a14.8,14.8,0,0,1,.3,4.3A1.14,1.14,0,0,0,123.84,252.71Z"
     transform="translate(-4.26 -9.2)"
     id="path351069" />
  <path
     d="M125,243.81a19.32,19.32,0,0,1,1.4,5.5,7.94,7.94,0,0,1-3-3.5c.9,0,1.7-.7,1.3-1.7,0-.1-.1-.2-.1-.3S124.84,243.71,125,243.81Z"
     transform="translate(-4.26 -9.2)"
     id="path351071" />
  <path
     d="M125,243.81c-.1,0-.3-.1-.4,0a12.09,12.09,0,0,1-.5-1.8A15,15,0,0,1,125,243.81Z"
     transform="translate(-4.26 -9.2)"
     id="path351073" />
  <path
     d="M124.64,244c.4,1-.4,1.7-1.3,1.7a.37.37,0,0,1-.1-.3c-.4-1,.4-1.7,1.3-1.7A.37.37,0,0,1,124.64,244Z"
     transform="translate(-4.26 -9.2)"
     id="path351075" />
  <path
     d="M123.24,245.51c0,.1.1.2.1.3a1.7,1.7,0,0,1-.7-.1,15.5,15.5,0,0,0-1.4-2.9,13.63,13.63,0,0,1-.2-4.5,21.24,21.24,0,0,1,2.9,3.8,12.09,12.09,0,0,0,.5,1.8A1.11,1.11,0,0,0,123.24,245.51Z"
     transform="translate(-4.26 -9.2)"
     id="path351077" />
  <path
     d="M122.74,245.61a1.55,1.55,0,0,1-.8-.8,17.23,17.23,0,0,1-.7-2.1A11.43,11.43,0,0,1,122.74,245.61Z"
     transform="translate(-4.26 -9.2)"
     id="path351079" />
  <path
     d="M121.14,238.21a11.4,11.4,0,0,0,.2,4.5c-6.5-10.5-25.3-13.6-36-13.6-6.1,0-12.9.7-18.5,3.6l-.5-1c.3-.1.5-.5.6-.9a7.72,7.72,0,0,1,.2-1.5,1.72,1.72,0,0,0,1.5-.6c9-3.4,20.4-2.9,28.8-1.4C105.24,228.81,115.24,232,121.14,238.21Z"
     transform="translate(-4.26 -9.2)"
     id="path351081" />
  <path
     d="M83.14,185.31c7,1.2,8.8,14,6.4,19.1-1.9,4.3-6,8-9,11.5a69,69,0,0,1-10.9,10.7,1,1,0,0,1-1,.2,25.12,25.12,0,0,1-.4-2.7c5.6-4.2,9.9-9.7,14.3-15,2.8-3.4,5.6-6.4,5.2-11.1-.3-3.9-3.6-13.2-8.9-8.1a32.69,32.69,0,0,0-6.6,9,2.77,2.77,0,0,1,.1-.9,22,22,0,0,0-.2-4.4C74.74,189,78.64,184.51,83.14,185.31Z"
     transform="translate(-4.26 -9.2)"
     id="path351083" />
  <path
     d="M73.74,247.61c1.6-.8,3.1,1.6,1.5,2.4a14.46,14.46,0,0,1-11.5,1c-1.7-.6-1.1-3.3.7-2.7A11.64,11.64,0,0,0,73.74,247.61Z"
     transform="translate(-4.26 -9.2)"
     id="path351085" />
  <path
     class="cls-8"
     d="M87.64,198c.4,4.8-2.3,7.7-5.2,11.1-4.5,5.3-8.8,10.8-14.3,15a13.55,13.55,0,0,1-.2-2c.5-3.4,1.1-6.7,1.8-10.1.9-4.4,2.1-8.7,2.4-13.2a32.69,32.69,0,0,1,6.6-9C84,184.81,87.34,194.11,87.64,198Z"
     transform="translate(-4.26 -9.2)"
     id="path351087" />
  <path
     d="M69.54,239.81h.3v-.1c0-.2,0-.3-.1-.4a1.21,1.21,0,0,1,1.2-.8,1.52,1.52,0,0,1,1.5,1.4,2.84,2.84,0,0,1-2.7,2.8,2.71,2.71,0,0,1-2.7-2.8,1.45,1.45,0,0,1,1.4-1.5,1.57,1.57,0,0,1,1.4.9c-.2.1-.2.3-.3.5Z"
     transform="translate(-4.26 -9.2)"
     id="path351089" />
  <path
     d="M69.74,239.81Z"
     transform="translate(-4.26 -9.2)"
     id="path351091" />
  <path
     d="M69.74,239.81Z"
     transform="translate(-4.26 -9.2)"
     id="path351093" />
  <path
     d="M69.74,239.81Z"
     transform="translate(-4.26 -9.2)"
     id="path351095" />
  <path
     d="M69.74,239.81Z"
     transform="translate(-4.26 -9.2)"
     id="path351097" />
  <path
     d="M69.74,239.81Zm-.1,0h0a.9.9,0,0,1,.1-.5.6.6,0,0,1,.1.4v.1h0v0h-.2Z"
     transform="translate(-4.26 -9.2)"
     id="path351099" />
  <path
     d="M69.74,239.81Z"
     transform="translate(-4.26 -9.2)"
     id="path351101" />
  <path
     d="M69.74,239.81Z"
     transform="translate(-4.26 -9.2)"
     id="path351103" />
  <path
     d="M69.74,239.71Z"
     transform="translate(-4.26 -9.2)"
     id="path351105" />
  <path
     d="M69.74,239.81Z"
     transform="translate(-4.26 -9.2)"
     id="path351107" />
  <path
     d="M69.74,239.81Z"
     transform="translate(-4.26 -9.2)"
     id="path351109" />
  <path
     d="M69.74,239.81Z"
     transform="translate(-4.26 -9.2)"
     id="path351111" />
  <path
     d="M69.54,239.81Z"
     transform="translate(-4.26 -9.2)"
     id="path351113" />
  <path
     d="M69.64,239.81Z"
     transform="translate(-4.26 -9.2)"
     id="path351115" />
  <path
     d="M69.54,239.81Z"
     transform="translate(-4.26 -9.2)"
     id="path351117" />
  <path
     d="M69.64,239.71h0c0,.1-.1.1,0,0Z"
     transform="translate(-4.26 -9.2)"
     id="path351119" />
  <path
     d="M69.54,239.81Z"
     transform="translate(-4.26 -9.2)"
     id="path351121" />
  <path
     d="M69.54,239.81v0Z"
     transform="translate(-4.26 -9.2)"
     id="path351123" />
  <path
     d="M69.54,239.81Z"
     transform="translate(-4.26 -9.2)"
     id="path351125" />
  <path
     d="M69.54,239.81Z"
     transform="translate(-4.26 -9.2)"
     id="path351127" />
  <path
     d="M69.54,239.81Z"
     transform="translate(-4.26 -9.2)"
     id="path351129" />
  <path
     d="M69.54,239.81Z"
     transform="translate(-4.26 -9.2)"
     id="path351131" />
  <path
     d="M69.54,239.81Z"
     transform="translate(-4.26 -9.2)"
     id="path351133" />
  <path
     d="M68.74,227.61a1.23,1.23,0,0,1-.2,1.1l-1.5.6c.2-1.4.3-2.9.5-4.3h0a1.46,1.46,0,0,0,1,1.8A2.35,2.35,0,0,1,68.74,227.61Z"
     transform="translate(-4.26 -9.2)"
     id="path351135" />
  <path
     d="M65.14,241c.1,1.2-1.2,2.1-2.1,2.5a2.51,2.51,0,0,1-2.9-.9,2.13,2.13,0,0,1,.2-2.8,1.61,1.61,0,0,1,1.6-.3,1.43,1.43,0,0,0-.5,1.1,1.45,1.45,0,0,0,1.5,1.4c.3,0-.1,0-.2-.1s-.2-.2-.2-.3a1.64,1.64,0,0,0,.2-1.2c0-.1,0-.1.1-.2l-.1.1a2.09,2.09,0,0,0-.4-.6c-.1-.1-.3-.2-.4-.3a1.14,1.14,0,0,1,.8-.3A2.23,2.23,0,0,1,65.14,241Z"
     transform="translate(-4.26 -9.2)"
     id="path351137" />
  <path
     d="M68.64,226.81a1.51,1.51,0,0,1-1-1.8,1.16,1.16,0,0,1,.6-.8h0A10.87,10.87,0,0,0,68.64,226.81Z"
     transform="translate(-4.26 -9.2)"
     id="path351139" />
  <path
     d="M67,229.31l1.5-.6a1.39,1.39,0,0,1-1.5.6Z"
     transform="translate(-4.26 -9.2)"
     id="path351141" />
  <path
     d="M66.84,230.81q-.15.75-.6.9a1.65,1.65,0,0,1-1.9-.6c1,.6,2-.5,1.8-1.5.2-.1.5-.2.7-.3h0A3.79,3.79,0,0,1,66.84,230.81Z"
     transform="translate(-4.26 -9.2)"
     id="path351143" />
  <path
     d="M67,229.31Z"
     transform="translate(-4.26 -9.2)"
     id="path351145" />
  <path
     d="M67,229.31h0a1.3,1.3,0,0,1-1-.9,42.76,42.76,0,0,1-.9-6.1c.7-4.9,1.7-9.8,2.7-14.6a62.23,62.23,0,0,0,1.3-8.5,57.49,57.49,0,0,1,2.8-5.5,22,22,0,0,1,.2,4.4,2.77,2.77,0,0,1-.1.9,43.71,43.71,0,0,0-4.2,23.3c-.1.9-.3,1.9-.4,2.8C67.34,226.41,67.14,227.91,67,229.31Z"
     transform="translate(-4.26 -9.2)"
     id="path351147" />
  <path
     d="M66,228.41a1.18,1.18,0,0,0,.9,1c-.2.1-.5.2-.7.3a1.38,1.38,0,0,0-.6-1.1,10.59,10.59,0,0,1-1.2-1c.2-1.8.5-3.6.7-5.4A42.09,42.09,0,0,0,66,228.41Z"
     transform="translate(-4.26 -9.2)"
     id="path351149" />
  <path
     d="M68.14,224.11h0a1.59,1.59,0,0,0-.6.9h0c.1-.9.3-1.9.4-2.8C68,222.81,68,223.51,68.14,224.11Z"
     transform="translate(-4.26 -9.2)"
     id="path351151" />
  <path
     d="M66.24,229.71c.1,1-.8,2.1-1.8,1.5a.76.76,0,0,1-.2-.4A12.81,12.81,0,0,1,66.24,229.71Z"
     transform="translate(-4.26 -9.2)"
     id="path351153" />
  <path
     d="M62,240.81a.37.37,0,0,1,.3.1h0c0,.1,0,.1.1.1h0v.4h0c-.2.3-.2.4-.1.2l.1-.1c.1.1.1.2.2.3s.4,0,.2.1c-.8.1-1.4-.7-1.5-1.4a1.29,1.29,0,0,1,.5-1.1c.1.1.3.2.4.3a2.09,2.09,0,0,1,.4.6l-.2.2-.1.1c0,.1-.1.2-.3.2Z"
     transform="translate(-4.26 -9.2)"
     id="path351155" />
  <path
     d="M69.74,212.11c-.7,3.3-1.3,6.7-1.8,10.1a44.68,44.68,0,0,1,4.2-23.3A85,85,0,0,1,69.74,212.11Z"
     transform="translate(-4.26 -9.2)"
     id="path351157" />
  <path
     d="M65.64,228.61a1.38,1.38,0,0,1,.6,1.1,21.16,21.16,0,0,0-2.1,1.1,1.27,1.27,0,0,1-.1-.6c.1-.8.2-1.7.3-2.5C64.74,228,65.24,228.31,65.64,228.61Z"
     transform="translate(-4.26 -9.2)"
     id="path351159" />
  <path
     d="M62.74,240.51a1.72,1.72,0,0,1-.2,1.2.1.1,0,0,0-.1-.1v-.1h0v-.1Z"
     transform="translate(-4.26 -9.2)"
     id="path351161" />
  <path
     d="M62.54,241.61l-.1.1.1-.1Z"
     transform="translate(-4.26 -9.2)"
     id="path351163" />
  <path
     d="M62.54,241.41h0v.1C62.44,241.51,62.54,241.41,62.54,241.41Z"
     transform="translate(-4.26 -9.2)"
     id="path351165" />
  <path
     d="M62.44,241.61Z"
     transform="translate(-4.26 -9.2)"
     id="path351167" />
  <path
     d="M62.44,241.51Z"
     transform="translate(-4.26 -9.2)"
     id="path351169" />
  <path
     d="M62.54,241.11h0a.1.1,0,0,0-.1-.1h0a.37.37,0,0,1-.3-.1h.1c.1,0,.2-.1.3-.2l.1-.1.2-.2v.1c-.1.3-.1.6-.2.9a.37.37,0,0,1-.1-.3Z"
     transform="translate(-4.26 -9.2)"
     id="path351171" />
  <path
     d="M62.74,240.31c0,.1,0,.1-.1.2.1-.1.1-.1.1-.2Z"
     transform="translate(-4.26 -9.2)"
     id="path351173" />
  <path
     d="M62.44,241.61Z"
     transform="translate(-4.26 -9.2)"
     id="path351175" />
  <path
     d="M62.54,241.11Z"
     transform="translate(-4.26 -9.2)"
     id="path351177" />
  <path
     d="M62.54,241.11Z"
     transform="translate(-4.26 -9.2)"
     id="path351179" />
  <path
     d="M62.44,240.91Z"
     transform="translate(-4.26 -9.2)"
     id="path351181" />
  <path
     d="M62.44,240.91Z"
     transform="translate(-4.26 -9.2)"
     id="path351183" />
  <path
     d="M62.14,240.81Z"
     transform="translate(-4.26 -9.2)"
     id="path351185" />
  <path
     d="M64.44,231.21l-.1-.1c-.1-.1-.2-.1-.3-.2.1-.1.1-.1.2-.1A.76.76,0,0,0,64.44,231.21Z"
     transform="translate(-4.26 -9.2)"
     id="path351187" />
  <path
     d="M64.14,230.81c-.1,0-.1.1-.2.1-7-5.2-10.1-16-11.6-24.2-1.4-7.9.4-17.7,8.2-21.7,7.1-3.7,10.5,2.5,11.4,8.6a47.88,47.88,0,0,0-2.8,5.5c.6-6.8-.3-14.2-7.2-11.6-8.3,3.1-7.8,15.2-6,21.9,1.6,6,3.7,13.8,8.5,18.2-.1.8-.2,1.7-.3,2.5A1.63,1.63,0,0,0,64.14,230.81Z"
     transform="translate(-4.26 -9.2)"
     id="path351189" />
  <path
     class="cls-8"
     d="M65.14,222.31c-.3,1.8-.5,3.6-.7,5.4-4.8-4.4-6.9-12.2-8.5-18.2-1.7-6.7-2.2-18.8,6-21.9,7-2.6,7.8,4.8,7.2,11.6a14.67,14.67,0,0,0-.6,1.4A43.78,43.78,0,0,0,65.14,222.31Z"
     transform="translate(-4.26 -9.2)"
     id="path351191" />
  <path
     d="M67.84,207.61c-1.1,4.8-2,9.7-2.7,14.6a46.15,46.15,0,0,1,3.4-21.7c.2-.4.4-.9.6-1.4A57.37,57.37,0,0,1,67.84,207.61Z"
     transform="translate(-4.26 -9.2)"
     id="path351193" />
  <path
     d="M227.76,166.68c2.7,3,4.7,9.1,1,12.1a6.66,6.66,0,0,1-6.6,1,19,19,0,0,0-3.8-5.4c-.1-.1-.2-.1-.2-.2a.76.76,0,0,1,.4.2c2.4,1.9,7.2,5.1,9.3.9,1.1-2.3-1.3-6.1-3-7.6-2-1.7-6.7-3-9.1-1.1-2.1,1.7-.2,5.5,1.1,7.6a2.65,2.65,0,0,0-.6.5,30,30,0,0,0-3.8-3.3c-.9-2.9-.8-6,2.3-7.4A11.4,11.4,0,0,1,227.76,166.68Z"
     transform="translate(-4.26 -9.2)"
     id="path351195" />
  <path
     class="cls-8"
     d="M224.76,167.68c1.7,1.5,4.1,5.2,3,7.6-2.1,4.2-6.8,1-9.3-.9a.76.76,0,0,0-.4-.2H218a1.22,1.22,0,0,0-1.3,0c-1.2-2-3.2-5.9-1.1-7.6C218.06,164.68,222.76,166.08,224.76,167.68Z"
     transform="translate(-4.26 -9.2)"
     id="path351197" />
  <path
     d="M222.16,179.78c4.9,10.4-.9,23.3-10,30.2-10.8,8.2-29,15.2-42.6,11-6.8-2.1-11.4-7.3-14.7-13.3-3.5-6.4-7.3-14.2-6.8-21.7a15.93,15.93,0,0,1,2.5-7.5,15.58,15.58,0,0,0,2,1.6.37.37,0,0,0,.3.1,12.32,12.32,0,0,0-1.4,3.1c-2.3,7.9,2.7,17.5,6.6,24.2,9.9,16.7,29.3,12.4,44.2,5.3,6.8-3.3,13.6-8,16.9-15.1a20.48,20.48,0,0,0,.8-15.9,1.31,1.31,0,0,0,.5-1.8c-.4-.6-.7-1.1-1.1-1.6A18.28,18.28,0,0,0,222.16,179.78Z"
     transform="translate(-4.26 -9.2)"
     id="path351199" />
  <path
     d="M220.36,180a1.19,1.19,0,0,1-.5,1.8,15.27,15.27,0,0,0-3.3-5.2.1.1,0,0,0,.1-.1c.8.6,1.6,1.2,2.5,1.8A17.67,17.67,0,0,1,220.36,180Z"
     transform="translate(-4.26 -9.2)"
     id="path351201" />
  <path
     class="cls-8"
     d="M219.86,181.78a20.48,20.48,0,0,1-.8,15.9c-3.3,7-10.1,11.8-16.9,15.1-14.8,7.1-34.3,11.5-44.2-5.3-3.9-6.6-8.9-16.2-6.6-24.2a10.91,10.91,0,0,1,1.4-3.1c1.2.6,2.2-1,1.6-2.1a20.38,20.38,0,0,1,5.7-4.3,1.46,1.46,0,0,0,1.8-.9h0a63,63,0,0,1,9.1-3.3c16.4-4.9,36.8-4.1,46.9,11.8A1.38,1.38,0,0,0,219.86,181.78Zm-51.1,4a2,2,0,0,0,1-2.1,1,1,0,0,0-.4-.7,5.55,5.55,0,0,0-.8-.6c-.1,0-.2-.1-.3-.1v-.5a1.45,1.45,0,0,0-1.7-1,2.75,2.75,0,0,0-1.4,4.4,2.38,2.38,0,0,0,2.4.7A1.3,1.3,0,0,0,168.76,185.78Zm-.6,9.9c1.4-.9,2-3.1.5-4.2a2.5,2.5,0,0,0-2.2-.3,2.39,2.39,0,0,0-3.6.7c0,.1-.1.1-.1.2a2.71,2.71,0,0,0-2.5,4.1c1.5,2.4,5.2,2,6.9,0A4.67,4.67,0,0,0,168.16,195.68Zm-8.9-10.3c0-.8-.2-2-1-2.4a1.66,1.66,0,0,0-2.1.3,1.61,1.61,0,0,0-.5,1.1h0a2,2,0,0,0,0,2.8C157.06,188.48,159.16,187.08,159.26,185.38Z"
     transform="translate(-4.26 -9.2)"
     id="path351203" />
  <path
     d="M222.16,179.78a15.5,15.5,0,0,1-2.9-1.4,24.33,24.33,0,0,0-2-2.5,1.17,1.17,0,0,0-.2-1.1c-.1-.1-.2-.3-.3-.4a1.47,1.47,0,0,1,1.3-.1h.1c.1.1.2.1.2.2A19.2,19.2,0,0,1,222.16,179.78Z"
     transform="translate(-4.26 -9.2)"
     id="path351205" />
  <path
     d="M219.86,181.78a1.38,1.38,0,0,1-2-.4c-10.1-15.9-30.5-16.8-46.9-11.8a71.7,71.7,0,0,0-9.1,3.3,20.38,20.38,0,0,1,2.4-4.3,78.57,78.57,0,0,1,16.6-4.1c11.1-1.5,22.8.4,31.5,6.9a16.46,16.46,0,0,0,2.3,4.8,1.48,1.48,0,0,0,1.9.5A14.89,14.89,0,0,1,219.86,181.78Z"
     transform="translate(-4.26 -9.2)"
     id="path351207" />
  <path
     d="M218.06,174.18a2,2,0,0,0-1.3.1.35.35,0,0,1-.1-.2A1.69,1.69,0,0,1,218.06,174.18Z"
     transform="translate(-4.26 -9.2)"
     id="path351209" />
  <path
     d="M217.26,175.88a24.33,24.33,0,0,1,2,2.5,27,27,0,0,1-2.5-1.8A1.79,1.79,0,0,0,217.26,175.88Z"
     transform="translate(-4.26 -9.2)"
     id="path351211" />
  <path
     d="M217.06,174.78a1.17,1.17,0,0,1,.2,1.1,4.74,4.74,0,0,0-1-1,1.21,1.21,0,0,1,.5-.5C216.86,174.48,217,174.68,217.06,174.78Z"
     transform="translate(-4.26 -9.2)"
     id="path351213" />
  <path
     d="M217.26,175.88a1.34,1.34,0,0,1-.6.7c-.1,0-.1-.1-.2-.1a1.06,1.06,0,0,1-.2-1.6A9.43,9.43,0,0,1,217.26,175.88Z"
     transform="translate(-4.26 -9.2)"
     id="path351215" />
  <path
     d="M216.76,174.18c0,.1.1.1.1.2a1.21,1.21,0,0,0-.5.5l-.1-.1A.63.63,0,0,1,216.76,174.18Z"
     transform="translate(-4.26 -9.2)"
     id="path351217" />
  <path
     d="M216.56,176.48c.1,0,.1.1.2.1l-.1.1-.2-.2a1.38,1.38,0,0,1-.2-1.7l.1.1A1.06,1.06,0,0,0,216.56,176.48Z"
     transform="translate(-4.26 -9.2)"
     id="path351219" />
  <path
     d="M216.36,176.38l.2.2a1.38,1.38,0,0,1-1.9-.5,23.83,23.83,0,0,1-2.3-4.8,39,39,0,0,1,3.8,3.3A1.38,1.38,0,0,0,216.36,176.38Z"
     transform="translate(-4.26 -9.2)"
     id="path351221" />
  <path
     d="M170,136.28c6.1,2.1,8,9.5,6.2,15.1-2.2,6.9-8,11.5-11.9,17.3-1.5.6-3,1.3-4.4,2,2-4,4.8-7.2,7.7-10.6,4.2-4.9,9.5-12.6,4.5-18.7-3.3-4-7.7-2.6-10.8.7a15.91,15.91,0,0,0-3,4.1,16.71,16.71,0,0,0-.7-4C160.46,138.08,164.86,134.48,170,136.28Z"
     transform="translate(-4.26 -9.2)"
     id="path351223" />
  <path
     class="cls-8"
     d="M172.06,141.28c5,6.2-.4,13.8-4.5,18.7-2.9,3.4-5.7,6.6-7.7,10.6l-1.5.9c-.3-2.1-.5-4.2-.8-6.3.1-2.9.2-5.9.3-8.8.1-3.2.6-6.8.4-10.3a22.59,22.59,0,0,1,3-4.1C164.36,138.68,168.76,137.18,172.06,141.28Z"
     transform="translate(-4.26 -9.2)"
     id="path351225" />
  <path
     d="M169.76,183.68a1.82,1.82,0,0,1-1,2.1,2,2,0,0,1-1.3.2h.1a2.63,2.63,0,0,0,2-1.8,1.23,1.23,0,0,0-.2-1.2C169.56,183.08,169.66,183.38,169.76,183.68Z"
     transform="translate(-4.26 -9.2)"
     id="path351227" />
  <path
     d="M167.06,183.18H167v.1h0v.1a.76.76,0,0,1,.2.4v0c.2.4.5.9.7,1.3.5.2.9-.3,1.1-.6-.3-.9-.6-1.3-1-1.3.1-.2.2-.3.3-.5a1.8,1.8,0,0,1,1.2.3,1,1,0,0,1,.2,1.2,2.63,2.63,0,0,1-2,1.8h-.1a2,2,0,0,1-.9-.5,2,2,0,0,1-.1-2.4,2,2,0,0,1,1.7-.8.37.37,0,0,1-.1.3h-.1a1.6,1.6,0,0,0-.9.7h0l-.1-.1Z"
     transform="translate(-4.26 -9.2)"
     id="path351229" />
  <path
     d="M168.66,191.48c1.5,1.1,1,3.3-.5,4.2a3.58,3.58,0,0,1-1.1.4,3.29,3.29,0,0,0,.7-1.3,2.29,2.29,0,0,0,.1-1.4,3.18,3.18,0,0,0-1.5-2.2A2.38,2.38,0,0,1,168.66,191.48Z"
     transform="translate(-4.26 -9.2)"
     id="path351231" />
  <path
     d="M168.56,182.38a1.56,1.56,0,0,1,.8.6,1.31,1.31,0,0,0-1.2-.3c0-.1.1-.2.1-.3S168.46,182.38,168.56,182.38Z"
     transform="translate(-4.26 -9.2)"
     id="path351233" />
  <path
     d="M168.16,181.78c0,.2.1.3,0,.5a1.88,1.88,0,0,0-1.7.8,1.83,1.83,0,0,0,.1,2.4,1.62,1.62,0,0,0,.9.5,2.6,2.6,0,0,1-2.4-.7,2.75,2.75,0,0,1,1.4-4.4A1.39,1.39,0,0,1,168.16,181.78Z"
     transform="translate(-4.26 -9.2)"
     id="path351235" />
  <path
     d="M167.26,183.58a.92.92,0,0,0,.6-.4c.4,0,.8.4,1,1.3-.2.4-.6.8-1.1.6-.2-.4-.5-.9-.7-1.3,0-.1,0-.1.2-.2Z"
     transform="translate(-4.26 -9.2)"
     id="path351237" />
  <path
     d="M167.16,183.48h0a1.09,1.09,0,0,1,.8-.8h.1a2.19,2.19,0,0,1-.3.5.37.37,0,0,0-.3.1,1.24,1.24,0,0,1-.3.2Z"
     transform="translate(-4.26 -9.2)"
     id="path351239" />
  <path
     d="M168,193.38a2.25,2.25,0,0,1-.1,1.4,5.39,5.39,0,0,1-.7,1.3,5,5,0,0,1-4.1-1.1,1.39,1.39,0,0,0,1.1-.2,1.83,1.83,0,0,0,1-.7c.1-.3-.2-.9-.1-1h.1a1.42,1.42,0,0,0,2.8.3Z"
     transform="translate(-4.26 -9.2)"
     id="path351241" />
  <path
     d="M168,193.38h0c-.3,1.1-2.2-.5-2.9-.3v-.4a2,2,0,0,1,1.4-1.5A3.82,3.82,0,0,1,168,193.38Z"
     transform="translate(-4.26 -9.2)"
     id="path351243" />
  <path
     d="M167.26,183.48h0c.1-.1.2-.2.3-.2a.37.37,0,0,1,.3-.1.86.86,0,0,1-.6.3Z"
     transform="translate(-4.26 -9.2)"
     id="path351245" />
  <path
     d="M165.06,193.08c.7-.2,2.5,1.4,2.8.3A1.43,1.43,0,0,1,165.06,193.08Z"
     transform="translate(-4.26 -9.2)"
     id="path351247" />
  <path
     d="M167.26,183.38Z"
     transform="translate(-4.26 -9.2)"
     id="path351249" />
  <path
     d="M167.26,183.48Z"
     transform="translate(-4.26 -9.2)"
     id="path351251" />
  <path
     d="M167.26,183.48Z"
     transform="translate(-4.26 -9.2)"
     id="path351253" />
  <path
     d="M167.26,183.48Z"
     transform="translate(-4.26 -9.2)"
     id="path351255" />
  <path
     d="M167.26,183.48Z"
     transform="translate(-4.26 -9.2)"
     id="path351257" />
  <path
     d="M167.26,183.48Z"
     transform="translate(-4.26 -9.2)"
     id="path351259" />
  <path
     d="M167.26,183.48Z"
     transform="translate(-4.26 -9.2)"
     id="path351261" />
  <path
     d="M167.26,183.48Z"
     transform="translate(-4.26 -9.2)"
     id="path351263" />
  <path
     d="M167.26,183.48Z"
     transform="translate(-4.26 -9.2)"
     id="path351265" />
  <path
     d="M167.26,183.48Z"
     transform="translate(-4.26 -9.2)"
     id="path351267" />
  <polygon
     points="163.01 174.28 163.01 174.28 163.01 174.28 163.01 174.28"
     id="polygon351269" />
  <path
     d="M167.26,183.48Z"
     transform="translate(-4.26 -9.2)"
     id="path351271" />
  <path
     d="M167.26,183.48Z"
     transform="translate(-4.26 -9.2)"
     id="path351273" />
  <path
     d="M167.26,183.48Z"
     transform="translate(-4.26 -9.2)"
     id="path351275" />
  <path
     d="M167.26,183.48Z"
     transform="translate(-4.26 -9.2)"
     id="path351277" />
  <path
     d="M167.26,183.48Z"
     transform="translate(-4.26 -9.2)"
     id="path351279" />
  <path
     d="M167.26,183.48h0c-.1.1-.1,0,0,0Z"
     transform="translate(-4.26 -9.2)"
     id="path351281" />
  <path
     d="M167.16,183.48Z"
     transform="translate(-4.26 -9.2)"
     id="path351283" />
  <path
     d="M167.16,183.58Z"
     transform="translate(-4.26 -9.2)"
     id="path351285" />
  <path
     d="M167.16,183.48Z"
     transform="translate(-4.26 -9.2)"
     id="path351287" />
  <path
     d="M167.16,183.48Z"
     transform="translate(-4.26 -9.2)"
     id="path351289" />
  <path
     d="M167.16,183.48h0c-.1.1-.1.1-.2.1h0A.35.35,0,0,0,167.16,183.48Z"
     transform="translate(-4.26 -9.2)"
     id="path351291" />
  <path
     d="M167.16,183.48h0a.1.1,0,0,1-.1.1h0a.1.1,0,0,1,.1-.1Z"
     transform="translate(-4.26 -9.2)"
     id="path351293" />
  <path
     d="M167.06,183.58v.2c-.1-.1-.1-.3-.2-.4v-.1h0l.1-.1h.1l.1.1h0c0,.2-.1.2-.1.3Z"
     transform="translate(-4.26 -9.2)"
     id="path351295" />
  <path
     d="M167.16,183.58c0,.1-.1.1-.1.2h0c0-.1,0-.1.1-.2Z"
     transform="translate(-4.26 -9.2)"
     id="path351297" />
  <path
     d="M167.06,183.28Z"
     transform="translate(-4.26 -9.2)"
     id="path351299" />
  <path
     d="M167.06,183.28Z"
     transform="translate(-4.26 -9.2)"
     id="path351301" />
  <path
     d="M167.06,183.78h0v.4C167,184,167,183.88,167.06,183.78Z"
     transform="translate(-4.26 -9.2)"
     id="path351303" />
  <path
     d="M167,183.18Z"
     transform="translate(-4.26 -9.2)"
     id="path351305" />
  <path
     d="M167,183.18Z"
     transform="translate(-4.26 -9.2)"
     id="path351307" />
  <path
     d="M167,183.18Z"
     transform="translate(-4.26 -9.2)"
     id="path351309" />
  <path
     d="M167,183.18Z"
     transform="translate(-4.26 -9.2)"
     id="path351311" />
  <path
     d="M167,183.18Z"
     transform="translate(-4.26 -9.2)"
     id="path351313" />
  <path
     d="M167,183.18Z"
     transform="translate(-4.26 -9.2)"
     id="path351315" />
  <path
     d="M167,183.18h0c-.1,0-.1.1,0,0Z"
     transform="translate(-4.26 -9.2)"
     id="path351317" />
  <path
     d="M166.86,183.18Z"
     transform="translate(-4.26 -9.2)"
     id="path351319" />
  <path
     d="M166.86,183.18Z"
     transform="translate(-4.26 -9.2)"
     id="path351321" />
  <path
     d="M166.86,183.18Z"
     transform="translate(-4.26 -9.2)"
     id="path351323" />
  <path
     d="M166.86,183.18Z"
     transform="translate(-4.26 -9.2)"
     id="path351325" />
  <path
     d="M166.86,183.28Z"
     transform="translate(-4.26 -9.2)"
     id="path351327" />
  <path
     d="M163.06,195.08a5,5,0,0,0,4.1,1.1c-1.7,2-5.4,2.4-6.9,0a2.71,2.71,0,0,1,2.5-4.1,2.22,2.22,0,0,0,.1,2.8,2,2,0,0,1-.8-.4A2.07,2.07,0,0,0,163.06,195.08Z"
     transform="translate(-4.26 -9.2)"
     id="path351329" />
  <path
     d="M166.46,191.18a2,2,0,0,0-1.4,1.5v.4H165c-.1,0,.2.7.1,1s-.5.6-1,.7a1.21,1.21,0,0,0,.4-1.8,2.12,2.12,0,0,0-1.8-1c0-.1.1-.1.1-.2A2.56,2.56,0,0,1,166.46,191.18Z"
     transform="translate(-4.26 -9.2)"
     id="path351331" />
  <path
     d="M164.46,193.08a1.21,1.21,0,0,1-.4,1.8,1.27,1.27,0,0,1-.6.1,1.7,1.7,0,0,1-.7-.1,2.22,2.22,0,0,1-.1-2.8A2.12,2.12,0,0,1,164.46,193.08Z"
     transform="translate(-4.26 -9.2)"
     id="path351333" />
  <path
     d="M163.56,194.88a1.27,1.27,0,0,0,.6-.1,1.39,1.39,0,0,1-1.1.2l-.2-.2A1.7,1.7,0,0,0,163.56,194.88Z"
     transform="translate(-4.26 -9.2)"
     id="path351335" />
  <path
     d="M162.86,194.88l.2.2a1.22,1.22,0,0,1-1-.6A1.51,1.51,0,0,0,162.86,194.88Z"
     transform="translate(-4.26 -9.2)"
     id="path351337" />
  <path
     d="M164.26,168.58a29.75,29.75,0,0,0-2.4,4.3l-1.8.9a1.11,1.11,0,0,1-.9-1.6c.2-.5.5-1.1.7-1.6A44.81,44.81,0,0,1,164.26,168.58Z"
     transform="translate(-4.26 -9.2)"
     id="path351339" />
  <path
     d="M161.86,172.88h0a1.46,1.46,0,0,1-1.8.9Z"
     transform="translate(-4.26 -9.2)"
     id="path351341" />
  <path
     d="M160.06,173.78a22.48,22.48,0,0,0-5.7,4.3,1.76,1.76,0,0,0-.4-.5,21,21,0,0,1-1.7-1.4l2.1-2.1a1.41,1.41,0,0,0,2.8.2c.7,0,1.4-.4,1.3-1.3-.1-.5-.1-1.1-.2-1.6l1.5-.9a7.74,7.74,0,0,0-.7,1.6A1.26,1.26,0,0,0,160.06,173.78Z"
     transform="translate(-4.26 -9.2)"
     id="path351343" />
  <path
     d="M157.66,183.58a1.12,1.12,0,0,1,.8,1.2h0a.31.31,0,0,1-.1.2h0a1.5,1.5,0,0,0-1.4-1.2,1.3,1.3,0,0,0-1.3.5,1.61,1.61,0,0,1,.5-1.1,1.66,1.66,0,0,1,2.1-.3,3,3,0,0,1,1,2.4c-.1,1.7-2.2,3.1-3.6,1.7a2.25,2.25,0,0,1,0-2.8v.8a1.71,1.71,0,0,0,1.7,1.3h.3a.86.86,0,0,1-.6.3,1.09,1.09,0,0,0,.9-.4h0a1.29,1.29,0,0,0,.8-1.3A1.48,1.48,0,0,0,157.66,183.58Z"
     transform="translate(-4.26 -9.2)"
     id="path351345" />
  <path
     d="M158.76,185a1.44,1.44,0,0,1-.8,1.3,1.59,1.59,0,0,0,.5-1v-.2h0a.35.35,0,0,1,.1-.2h0a1.12,1.12,0,0,0-.8-1.2A1.31,1.31,0,0,1,158.76,185Z"
     transform="translate(-4.26 -9.2)"
     id="path351347" />
  <path
     d="M158.46,173.08a1.12,1.12,0,0,1-1.3,1.3v-.2a14.77,14.77,0,0,1,.1-2.1c.3-.2.7-.4,1-.6A7.77,7.77,0,0,1,158.46,173.08Z"
     transform="translate(-4.26 -9.2)"
     id="path351349" />
  <path
     d="M158.46,184.78Z"
     transform="translate(-4.26 -9.2)"
     id="path351351" />
  <path
     d="M158.36,185.28a1.23,1.23,0,0,1-.5,1h0a.37.37,0,0,1-.3.1.86.86,0,0,0,.3-.6.37.37,0,0,0-.1-.3,1,1,0,0,0,.5-.4C158.36,185.08,158.36,185.18,158.36,185.28Z"
     transform="translate(-4.26 -9.2)"
     id="path351353" />
  <path
     d="M158.26,146.08c.2,3.4-.3,7-.4,10.3-.1,2.9-.2,5.9-.3,8.8-.5-4.2-.8-8.3-.9-12.5A12.66,12.66,0,0,1,158.26,146.08Z"
     transform="translate(-4.26 -9.2)"
     id="path351355" />
  <path
     d="M158.36,185a1,1,0,0,1-.5.4c-.2-.5-.9-.9-1.3-.5h0c-.1-.2-.2-.3-.3-.5a6.37,6.37,0,0,0,.2.7l.1-.2c.1.1.2.3.3.4.4.1.7.2,1,0a.37.37,0,0,1,.1.3.71.71,0,0,1-.3.6h-.3a1.83,1.83,0,0,1-1.7-1.3,2.15,2.15,0,0,1,0-.8h0a1.9,1.9,0,0,1,1.3-.5C157.66,183.88,158.26,184.28,158.36,185Z"
     transform="translate(-4.26 -9.2)"
     id="path351357" />
  <path
     d="M157.86,185.38a1.7,1.7,0,0,1-1,0c-.1-.1-.2-.3-.3-.4h0A.84.84,0,0,1,157.86,185.38Z"
     transform="translate(-4.26 -9.2)"
     id="path351359" />
  <path
     d="M157.56,186.38a.37.37,0,0,0,.3-.1,1.49,1.49,0,0,1-.9.4A.6.6,0,0,0,157.56,186.38Z"
     transform="translate(-4.26 -9.2)"
     id="path351361" />
  <path
     d="M157.56,165.08c.2,2.1.5,4.2.8,6.3-.3.2-.7.4-1,.6C157.36,169.78,157.46,167.38,157.56,165.08Z"
     transform="translate(-4.26 -9.2)"
     id="path351363" />
  <path
     d="M157.56,165.08l-.3,6.9a15.26,15.26,0,0,0-1.6,1.1V173c-.4-2.8-.7-5.7-1-8.5.1-4,.3-8,.4-11.9a58.25,58.25,0,0,0,.2-7.3c.1-.2.2-.3.3-.5a23.08,23.08,0,0,1,1.9-2.8,17.63,17.63,0,0,1,.7,4,13.59,13.59,0,0,0-1.6,6.5C156.66,156.78,157.06,161,157.56,165.08Z"
     transform="translate(-4.26 -9.2)"
     id="path351365" />
  <path
     d="M157.26,141.38a1.45,1.45,0,0,1,.2.7c-.7.9-1.3,1.9-1.9,2.8-.1.2-.2.3-.3.5a9.34,9.34,0,0,0-1.2-4.1c-3.9-6.2-9.8-.2-11,4.4-2.7,10.2,1.1,23.6,9.1,30.7-.6.7-1.2,1.5-1.7,2.2a31.88,31.88,0,0,1-9.9-18.1c-1.4-6.7-2.2-15.6,2.5-21.3C147.46,133.88,154.76,134.88,157.26,141.38Z"
     transform="translate(-4.26 -9.2)"
     id="path351367" />
  <path
     d="M157.26,172.08a14.77,14.77,0,0,1-.1,2.1v.2a1.59,1.59,0,0,1-1.5-1.2A15.26,15.26,0,0,1,157.26,172.08Z"
     transform="translate(-4.26 -9.2)"
     id="path351369" />
  <path
     d="M156.16,184.48c.1.2.2.3.3.5l-.1.2C156.46,185.18,156.26,184.58,156.16,184.48Z"
     transform="translate(-4.26 -9.2)"
     id="path351371" />
  <path
     d="M157.16,174.38a1.41,1.41,0,0,1-2.8-.2,11.32,11.32,0,0,1,1.3-1A1.56,1.56,0,0,0,157.16,174.38Z"
     transform="translate(-4.26 -9.2)"
     id="path351373" />
  <path
     d="M155.66,173.08h0a12.67,12.67,0,0,1-1.3,1.1h0c.1-3.2.2-6.4.3-9.7C155,167.38,155.36,170.18,155.66,173.08Z"
     transform="translate(-4.26 -9.2)"
     id="path351375" />
  <path
     d="M155.26,145.28a43.92,43.92,0,0,1-.2,7.3c-.1,4-.3,7.9-.4,11.9-.3-3-.5-6.1-.7-9.1C153.76,151.78,153.56,148.48,155.26,145.28Z"
     transform="translate(-4.26 -9.2)"
     id="path351377" />
  <path
     class="cls-8"
     d="M154.76,164.48c-.1,3.2-.2,6.4-.3,9.7h0a13.89,13.89,0,0,0-2.1,2.1c-8-7.1-11.8-20.5-9.1-30.7,1.2-4.6,7.1-10.6,11-4.4a9.34,9.34,0,0,1,1.2,4.1c-1.8,3.2-1.5,6.5-1.3,10.1A90.67,90.67,0,0,0,154.76,164.48Z"
     transform="translate(-4.26 -9.2)"
     id="path351379" />
  <path
     d="M154.36,178.08c.6,1.1-.4,2.7-1.6,2.1C153.26,179.48,153.76,178.78,154.36,178.08Z"
     transform="translate(-4.26 -9.2)"
     id="path351381" />
  <path
     d="M154,177.68a1,1,0,0,1,.4.5c-.6.7-1.1,1.4-1.6,2.1-.1,0-.2-.1-.3-.1-.7-.5-1.3-1-2-1.6a18.39,18.39,0,0,1,1.7-2.2A20.28,20.28,0,0,1,154,177.68Z"
     transform="translate(-4.26 -9.2)"
     id="path351383" />
  <g
     id="_11"
     data-name=" 11">
    <path
       d="M33.9,10.7C33.5,33.9,32,57,29.6,80.1c-.2,1.9,2.8,1.9,3,0C35,57,36.5,33.9,36.9,10.7a1.5,1.5,0,1,0-3,0Z"
       transform="translate(-4.26 -9.2)"
       id="path351385" />
    <path
       d="M35.7,14.5C44.8,9.5,55,21.2,52.4,30c-2,6.9-9.5,13.6-16.9,13.3-1.9-.1-1.9,2.9,0,3,9.8.4,21.3-10.3,20.2-20.5S44.3,6.3,34.2,11.9c-1.7.9-.2,3.5,1.5,2.6Z"
       transform="translate(-4.26 -9.2)"
       id="path351387" />
    <path
       d="M52.9,58.9c-.8,6.5-1.4,16.1,5.9,19.3,3.3,1.5,7.5.9,10.8-.2,3.1-1,4.3-3.1,5.3-6.1,2.1-6.3,1.6-14-5.3-16.9-5.5-2.3-14.1-3.3-14.9,4.4-.2,1.9,2.8,1.9,3,0,.7-6.1,11.9-2.2,14.1.9,2.6,3.8,1.5,11.4-2.1,14.1-4.3,3.2-11,2.2-13.2-2.9-1.7-3.9-1-8.4-.5-12.6.2-1.9-2.8-1.8-3.1,0Z"
       transform="translate(-4.26 -9.2)"
       id="path351389" />
    <path
       d="M83.5,55c-.6,13.1-1.2,26.1-1.9,39.2-.1,1.9,2.9,1.9,3,0,.6-13.1,1.2-26.1,1.9-39.2.1-1.9-2.9-1.9-3,0Z"
       transform="translate(-4.26 -9.2)"
       id="path351391" />
    <path
       d="M86.5,59.4c.9-2,9.6.3,11,1,3,1.6,6.1,4.9,3.8,8.2-3.4,5-10.8,6.9-16.4,5.7-1.9-.4-2.7,2.5-.8,2.9a19.77,19.77,0,0,0,13.9-2c3.4-1.9,7.9-5.3,7.2-9.6s-4.6-7.5-8.5-8.7c-3.1-1-11.1-2.7-12.8,1-.8,1.7,1.8,3.2,2.6,1.5Z"
       transform="translate(-4.26 -9.2)"
       id="path351393" />
    <path
       d="M112.1,54.3c-1.1,5.8-2.3,12.4.9,17.7,2,3.3,5.5,5.7,9.5,4.7C131.8,74.5,134.9,62,133,54c-.4-1.7-2.8-1.2-2.9.4a44.41,44.41,0,0,0,3.5,21c.8,1.8,3.3.2,2.6-1.5a40.73,40.73,0,0,1-3.1-19.5c-1,.1-2,.3-2.9.4,1.4,6-.1,13.1-5,17.2-4.1,3.4-8.7,1.4-10.4-3.5-1.5-4.3-.4-9.1.4-13.4.2-1.8-2.7-2.7-3.1-.8Z"
       transform="translate(-4.26 -9.2)"
       id="path351395" />
    <path
       d="M148.8,24.6c-1.1,16-1.8,32.1-2,48.1a1.5,1.5,0,0,0,3,0c.2-16.1.9-32.1,2-48.1.2-1.9-2.8-1.9-3,0Z"
       transform="translate(-4.26 -9.2)"
       id="path351397" />
    <path
       d="M179.9,59.4c.7-6.6-4.3-13.8-11.6-11.4-6.6,2.2-9.1,11.3-8.4,17.5s5.4,13.6,12.6,11.4c7.4-2.2,8.2-13.9,8.6-20.2h-3a102.85,102.85,0,0,0,2.1,21.4c.4,1.9,3.3,1.1,2.9-.8a95.31,95.31,0,0,1-2-20.6c0-1.9-2.9-1.9-3,0a48.06,48.06,0,0,1-2.2,11.9c-1.1,3.1-3.1,6.4-7,5.4-2.8-.7-4.6-3.7-5.4-6.2a16.93,16.93,0,0,1,1.3-12.5c1-1.9,2.8-4.2,5.1-4.7,5.5-1.2,7.6,4.5,7.1,8.7-.3,2,2.7,2,2.9.1Z"
       transform="translate(-4.26 -9.2)"
       id="path351399" />
    <path
       d="M198.2,25.7c-1.5,6.9-2.8,13.9-3.7,20.9-.9,6.3-2.3,13.3-1.7,19.7.7,7.7,9.2,13.6,14.1,5.3a1.5,1.5,0,0,0-2.6-1.5c-2.6,4.4-7.4,1.3-8.3-2.5a24.82,24.82,0,0,1-.1-7.2c.3-3.5.7-7,1.1-10.6,1-7.8,2.4-15.6,4-23.3.5-1.9-2.4-2.7-2.8-.8Z"
       transform="translate(-4.26 -9.2)"
       id="path351401" />
    <path
       d="M186.1,55.1A102.43,102.43,0,0,1,206,53.2a1.5,1.5,0,0,0,0-3,96.22,96.22,0,0,0-20.7,2c-1.8.4-1,3.3.8,2.9Z"
       transform="translate(-4.26 -9.2)"
       id="path351403" />
    <path
       d="M214.4,52.3c-.6,6.9-2.8,15.6.4,22.1.9,1.7,3.5.2,2.6-1.5-2.8-5.7-.5-14.6,0-20.6.2-2-2.8-2-3,0Z"
       transform="translate(-4.26 -9.2)"
       id="path351405" />
    <path
       d="M216.9,38.9a1.94,1.94,0,0,0-.1,3.7,1.43,1.43,0,0,0,1.8-1,1.51,1.51,0,0,0-1-1.8h-.1a4.35,4.35,0,0,0,.7.4c.6.5.2,1.5-.5,1.8a1.4,1.4,0,0,0,1-1.8,1.48,1.48,0,0,0-1.8-1.3Z"
       transform="translate(-4.26 -9.2)"
       id="path351407" />
    <path
       d="M225.2,61.9c-1.8,7.2,0,12.8,8.1,13.8,9.4,1.2,10.4-8.2,11.3-15.3.7-5.8-1.6-11.9-8.2-12.4S226,54.2,225.3,59.9c-.2,1.9,2.8,1.9,3,0,.5-4,2.8-8.6,7.3-8.8,5.7-.2,6.6,5.5,5.9,9.9-.4,2.7-.4,7-2,9.3-1.4,2.2-6.1,3.1-8.5,1.6-1.2-1.7-2.5-3.5-3.7-5.2a20.73,20.73,0,0,1,.8-4.2c.5-1.7-2.4-2.5-2.9-.6Z"
       transform="translate(-4.26 -9.2)"
       id="path351409" />
    <path
       d="M257.5,49.7c.1-.4.1-.8.2-1.2-1-.1-2-.3-2.9-.4a230.89,230.89,0,0,1-.8,28.8h3a29.61,29.61,0,0,1,.5-9.4c.7-2.9,3.5-12.2,9-8.5,4.2,2.8,2.6,14,2.7,18.4a1.5,1.5,0,0,0,3,0c-.1-6.3,1.8-21.8-7.9-22.6-9.3-.8-11,16.1-10.4,22.2a1.5,1.5,0,0,0,3,0,230.89,230.89,0,0,0,.8-28.8c-.1-1.6-2.7-2.2-2.9-.4-.1.4-.1.8-.2,1.2-.2,1.8,2.7,2.6,2.9.7Z"
       transform="translate(-4.26 -9.2)"
       id="path351411" />
    <path
       d="M291.9,56.7c-.3-8.6-10-8.4-13.5-1.8-1.6,3.1-1.8,6,.8,8.6,2.1,2,5,3.3,7.3,5.1,3,2.3,4.8,7.7,1.8,10.5-2.2,2.1-5.4,3.8-8,1-1.3-1.4-3.4.7-2.1,2.1,4.8,5.2,13.5.7,15.2-5.4,1-3.5-.8-6.9-3.3-9.2a46.46,46.46,0,0,0-5.7-4.2c-1.8-1.2-4-3-4-5.5,0-3.2,8.3-8.4,8.5-1.2a1.5,1.5,0,0,0,3,0Z"
       transform="translate(-4.26 -9.2)"
       id="path351413" />
  </g>
  <metadata
     id="metadata354023">
    <rdf:RDF>
      <cc:Work
         rdf:about="">
        <dc:title>full</dc:title>
      </cc:Work>
    </rdf:RDF>
  </metadata>
</svg>
