<?xml version="1.0" encoding="UTF-8" standalone="no"?>
<svg
   viewBox="0 0 1175.48 577.35"
   version="1.1"
   id="svg377762"
   sodipodi:docname="dem_inf_tool_5.svg"
   inkscape:version="1.2.2 (1:1.2.2+202212051552+b0a8486541)"
   xmlns:inkscape="http://www.inkscape.org/namespaces/inkscape"
   xmlns:sodipodi="http://sodipodi.sourceforge.net/DTD/sodipodi-0.dtd"
   xmlns="http://www.w3.org/2000/svg"
   xmlns:svg="http://www.w3.org/2000/svg"
   xmlns:rdf="http://www.w3.org/1999/02/22-rdf-syntax-ns#"
   xmlns:cc="http://creativecommons.org/ns#"
   xmlns:dc="http://purl.org/dc/elements/1.1/">
  <sodipodi:namedview
     id="namedview377764"
     pagecolor="#ffffff"
     bordercolor="#000000"
     borderopacity="0.25"
     inkscape:showpageshadow="2"
     inkscape:pageopacity="0.0"
     inkscape:pagecheckerboard="0"
     inkscape:deskcolor="#d1d1d1"
     showgrid="false"
     inkscape:zoom="0.4087642"
     inkscape:cx="603.03715"
     inkscape:cy="288.67499"
     inkscape:window-width="1223"
     inkscape:window-height="779"
     inkscape:window-x="57"
     inkscape:window-y="21"
     inkscape:window-maximized="1"
     inkscape:current-layer="Layer_1" />
  <defs
     id="defs376505">
    <style
       id="style376491">.cls-1,.cls-10,.cls-16,.cls-17,.cls-19,.cls-21,.cls-23,.cls-25,.cls-26,.cls-3,.cls-32{fill:none;}.cls-10,.cls-2,.cls-3,.cls-32{stroke:#000;}.cls-13,.cls-14,.cls-15,.cls-16,.cls-17,.cls-2,.cls-25,.cls-26,.cls-28,.cls-29,.cls-32{stroke-linejoin:round;}.cls-2,.cls-3{stroke-width:0.8px;}.cls-16,.cls-17,.cls-3{stroke-linecap:square;}.cls-4{opacity:0.82;}.cls-5{fill:#c1272d;}.cls-6{fill:#fcee21;}.cls-7{fill:blue;}.cls-8{fill:#8cc63f;}.cls-28,.cls-29,.cls-9{fill:#fff;}.cls-10{stroke-miterlimit:10;}.cls-11{fill:#b3b3b3;}.cls-12{clip-path:url(#clip-path);}.cls-13,.cls-24{fill:#2ca02c;}.cls-13,.cls-14,.cls-15{fill-opacity:0.2;stroke-width:2px;stroke-dasharray:2 2;}.cls-13,.cls-17,.cls-23{stroke:#2ca02c;}.cls-14,.cls-22,.cls-31{fill:#ff7f0e;}.cls-14{stroke:#ff800f;}.cls-15{fill:#1e75b3;stroke:#1e75b3;}.cls-16,.cls-21,.cls-31{stroke:#ff7f0e;}.cls-16,.cls-17,.cls-31{stroke-opacity:0.5;}.cls-16,.cls-17{stroke-width:0.2px;}.cls-18{clip-path:url(#clip-path-24);}.cls-19,.cls-26,.cls-29{stroke:#1f77b4;}.cls-20{fill:#1f77b4;}.cls-20,.cls-22,.cls-24,.cls-31{fill-opacity:0.5;}.cls-25,.cls-28{stroke:#fff;stroke-width:3px;}.cls-25,.cls-26,.cls-28,.cls-29{stroke-linecap:round;}.cls-27{clip-path:url(#clip-path-42);}.cls-30{clip-path:url(#clip-path-46);}.cls-33{fill:#ffe000;}.cls-34{fill:#2e8e02;}</style>
    <clipPath
       id="clip-path"
       transform="translate(-19.92 -9.25)">
      <rect
         class="cls-1"
         x="70.17"
         y="382.26"
         width="154.4"
         height="203.34"
         id="rect376493" />
    </clipPath>
    <clipPath
       id="clip-path-24"
       transform="translate(-19.92 -9.25)">
      <rect
         class="cls-1"
         x="1010.21"
         y="202.75"
         width="158.77"
         height="237.35"
         id="rect376496" />
    </clipPath>
    <clipPath
       id="clip-path-42"
       transform="translate(-19.92 -9.25)">
      <rect
         class="cls-1"
         x="1005.58"
         y="202.75"
         width="158.77"
         height="237.35"
         id="rect376499" />
    </clipPath>
    <clipPath
       id="clip-path-46"
       transform="translate(-19.92 -9.25)">
      <rect
         class="cls-1"
         x="1014.84"
         y="202.75"
         width="158.77"
         height="237.35"
         id="rect376502" />
    </clipPath>
  </defs>
  <title
     id="title376507">full_new_2</title>
  <g
     id="Layer_1"
     data-name="Layer 1">
    <g
       id="Layer_3"
       transform="translate(-36,-18)">
      <g
         id="g32722">
        <g
           id="g32720">
          <path
             class="st0"
             d="m 632.7,239.3 c -4.7,-10.5 -17.3,-11.2 -27,-8.3 -12.6,3.7 -24.8,8 -37.6,11.1 -7.1,1.7 -13.7,3.7 -21,2.2 -6.2,-1.3 -11.5,-1.7 -17.5,0.5 -5.6,2 -10.5,5.4 -15.5,8.6 -4.8,3 -11.3,5.7 -14.9,10.2 -2.3,2.8 -2.4,6.7 0.1,9.5 1.2,1.4 2.9,1.9 4.4,2.8 2.9,1.7 3.1,4.9 4.2,7.9 3.6,10.2 7.9,20.3 20,21.5 12,1.2 21.7,-6.9 33.2,-7.9 6.2,-0.5 11.2,3 17,4.2 4.9,1 10,0.7 14.8,-1 5.7,-2 8.9,-5.4 13,-9.6 3.8,-3.9 13.3,-2.4 18.5,-3.1 5.7,-0.7 11.3,-2 16.6,-4.4 2.6,-1.2 4.9,-2.7 7.1,-4.5 1.8,-1.4 5.8,-7 8.5,-5.7 0.3,-2.4 0.6,-4.9 1,-7.3 -1.5,0.3 -3,0.7 -4.5,1 -4.7,1 -3.1,7.4 1.1,7.9 11.7,1.3 23.4,2 35.2,2.3 0,-2.7 0,-5.3 0,-8 -2.6,0.1 -4.6,0.6 -6.9,1.7 -3.8,1.9 -1.6,7.2 2,7.5 7.3,0.5 14.4,-0.4 21.3,-2.5 5.1,-1.6 2.8,-8.4 -2.1,-7.7 -0.4,0.1 -0.7,0.1 -1.1,0.2 1,0.1 2.1,0.3 3.1,0.4 0,0 4.4,-3.5 4.7,-3.7 2.1,-1.5 4.2,-3 6.4,-4.6 2.6,-1.9 2.6,-6.4 -1,-7.3 -1.6,-0.4 -1.9,-1.7 -1,-3 -2.4,-1 -4.9,-2.1 -7.3,-3.1 0.8,-2.9 -7.3,-6.7 -9.2,-7.7 -3.3,-1.7 -6.9,-3 -10.5,-3.8 -3.6,-0.8 -7.4,-1.2 -11.1,-1.1 -2.1,0.1 -10.8,0.4 -11.5,2.3 -2,0.8 -3.9,1.6 -5.9,2.4 0.2,0.2 0.4,0.4 0.6,0.6 0.6,-1.5 1.2,-3 1.8,-4.5 0.3,-0.1 -2.6,-1.6 -2.9,-1.7 -1.3,-0.3 -2.5,-0.3 -3.8,-0.2 -3.3,0.3 -6.6,1.9 -9.9,2.5 -7.4,1.4 -15,1.1 -22.5,1.1 -7.3,0.1 -14.7,0.4 -21.8,2.2 -6.9,1.7 -13.5,4.6 -20.3,6.9 -7.1,2.4 -14.4,3.9 -21.9,4.5 -7.4,0.6 -14.8,-0.4 -22.2,0.3 -12.6,1.2 -24.4,11.1 -32.5,20.3 -2,2.3 -1.2,5.7 1.8,6.7 6,2 10.9,-1.5 15.4,-5.2 5.8,-4.7 12.1,-9.7 19.7,-10.7 -0.9,-2.3 -1.9,-4.6 -2.8,-6.8 -9.1,8.4 -18.3,16.9 -27.4,25.3 -1.3,1.2 -1.5,3.4 -0.6,4.8 5,8.5 17.4,-2.5 21.7,-6.7 7.1,-7 12.7,-15.6 22.1,-19.7 -1.8,-1.8 -3.6,-3.6 -5.5,-5.5 -5.8,9.5 -13,18 -21.6,25 -3.4,2.8 -8.8,5.3 -10.6,9.5 -1.6,3.7 0,7.7 3.6,9.5 9.1,4.4 18.1,-8.9 23.1,-14.5 7.4,-8.4 13.2,-18.9 22.9,-25 -2,-1.5 -3.9,-3 -5.9,-4.5 -5.7,16.6 -21.3,27.3 -31.8,40.7 -2,2.6 -1,6.9 2.8,6.8 11.6,-0.1 17.5,-9.7 22.8,-18.6 6.1,-10.3 14.8,-18.2 25.5,-23.5 -1.6,-2.1 -3.2,-4.2 -4.8,-6.3 -9.9,12.2 -19.3,24.8 -27.9,37.9 -1.9,2.8 1.3,7 4.5,5.9 8.2,-2.9 12.9,-10 18.1,-16.6 6.5,-8.3 13,-16.6 19.6,-25 -2.2,-1.3 -4.5,-2.6 -6.7,-3.9 -5,12.8 -12,24.9 -20.6,35.6 -1.3,1.6 -1.8,4.2 0,5.7 8.1,6.8 16.2,-0.5 19.2,-8.5 4.4,-11.7 9.3,-22.5 16.8,-32.6 -2.5,-0.7 -5,-1.3 -7.5,-2 -0.9,7.4 -4.3,14.6 -6.8,21.6 -2.6,7.2 -5.2,14.4 -7.9,21.6 -1,2.6 1.5,4.9 3.9,5.1 6.6,0.5 11.9,-3 16.7,-7.3 2.9,-2.6 5.7,-5.5 9.5,-6.8 3.2,-1.1 6.7,-1.2 10,-1.3 13.8,-0.4 25.7,-3.2 36.7,-12 -1.9,-1.9 -3.8,-3.8 -5.7,-5.7 -8.1,6.7 -18.5,9.4 -28.3,12.7 -10.6,3.5 -20.7,8.2 -30.3,14 2,0.8 3.9,1.6 5.9,2.4 -2.7,-7.4 1.7,-15.5 4.2,-22.4 2.8,-7.7 5.6,-15.5 8.4,-23.2 -2.6,-0.7 -5.1,-1.4 -7.7,-2.1 -1.6,10.1 -3.1,20.2 -4.7,30.3 -0.6,3.7 3.6,7 6.7,3.9 4,-4.2 5.8,-9.3 7.1,-14.8 1.3,-5.7 1.7,-12.2 5.8,-16.8 -2.3,-0.9 -4.6,-1.9 -6.8,-2.8 -0.6,9.2 -1.7,18.4 -3.5,27.5 -0.7,3.6 2.7,6 5.9,4.5 4.3,-2 7.1,-5.9 8.5,-10.4 0.5,-1.7 1.8,-17.5 2.5,-17.4 -0.9,-1.6 -1.9,-3.3 -2.8,-4.9 -1.1,8.1 -2.2,16.1 -3.3,24.2 -0.6,4.7 -1,10.3 5.1,10.7 1.3,0.1 2.8,-0.8 3.5,-2 5.3,-10.1 8.1,-21 8.1,-32.4 -1.3,1.3 -2.7,2.7 -4,4 -1,0 -2.6,18 -2.5,20 0.1,4.3 3.6,8.6 8.2,6.7 11.2,-4.5 3.1,-20.2 7.6,-27.9 -1.8,0.5 -3.6,1 -5.5,1.4 2.4,1.8 0.6,7 0.3,9.2 -0.4,2.8 -0.4,5.3 0.4,8.1 0.6,2.2 2.8,3.2 4.9,2.8 10.1,-1.8 8.4,-18.7 7.3,-25.8 -0.6,-4.2 -6.6,-3.3 -7.7,0 -3,8.6 -4.4,17.4 -4.5,26.5 0,3.7 4.3,5 6.8,2.8 5.6,-4.8 9.7,-11.3 11.2,-18.6 0.3,-1.3 0.5,-2.7 0.6,-4.1 0.1,-1 1.3,-6.7 -1.8,-4.9 -0.8,0.5 -1.7,4.1 -2.2,5.2 -0.8,1.8 -1.8,3.7 -2.3,5.6 -1.5,5.4 2.5,10.3 8.1,9.2 2.6,-0.5 4.7,-2.1 5.9,-4.4 1.1,-2.1 3.1,-9.5 0.8,-11.1 -0.6,-0.8 -1.2,-1.6 -1.8,-2.4 0.2,1.8 -2,4.6 -2.7,6.3 -0.8,1.9 -1.4,3.7 -1.4,5.8 0,3.6 1.6,7 5,8.6 1.9,0.9 4.4,0.6 5.5,-1.4 1.7,-3.2 3.1,-6.6 4.2,-10.1 0.5,-1.6 1.8,-4.8 1.4,-6.4 0.7,-1.6 -0.1,-2.2 -2.4,-1.8 -0.1,1 -0.2,1.9 -0.5,2.8 -1.8,6.7 -5.1,12.3 -1.3,19 1.4,2.4 4.3,2.4 6.3,0.8 3.5,-2.9 5.4,-6.9 6.4,-11.3 0.3,-1.4 1.8,-13.5 2,-13.6 -1,-0.1 -2.1,-0.3 -3.1,-0.4 0.9,0.4 -0.7,8.8 -0.8,9.5 -0.5,2.9 -1.3,5.6 -1.9,8.5 -0.6,3.3 -0.4,7.8 3.1,9.6 10.7,5.7 11.4,-16.1 12.3,-21.3 0.4,-2 2,-3.4 -1,-3.2 -2.7,0.2 -1.9,1.5 -2.2,3.8 -0.4,3 -0.8,6.1 -1.2,9.1 -0.5,4 -1.9,9.4 2.4,11.9 10.3,6 11.5,-17.4 12.4,-22.2 -2.2,0.6 -4.5,1.2 -6.7,1.8 2.1,2.2 2.5,4.7 1.5,7.5 -1.2,3.6 3,5.9 5.9,4.5 3.9,-1.9 9.3,-7.9 6,-12.5 -1,-1.4 -2.7,-2.5 -4.5,-1.8 -1.7,0.6 -2.8,1.5 -3.3,3.3 -0.5,1.7 0.3,3.6 1.8,4.5 0.1,0.1 0.2,0.1 0.3,0.2 4.4,2.7 8.4,-4.2 4,-6.9 -0.1,-0.1 -0.2,-0.1 -0.3,-0.2 0.6,1.5 1.2,3 1.8,4.5 0,-0.1 0.1,-0.3 0.1,-0.4 -0.9,0.9 -1.9,1.9 -2.8,2.8 0.1,0 0.3,-0.1 0.4,-0.1 -1.5,-0.6 -3,-1.2 -4.5,-1.8 -0.5,-0.7 -2.5,1.2 -3.1,1.5 2,1.5 3.9,3 5.9,4.5 1.9,-5.6 0.4,-11.1 -3.6,-15.3 -2,-2.1 -6.1,-1.2 -6.7,1.8 -0.8,4.3 -1.6,8.7 -2.5,13 -0.2,1 -1.4,4.1 -1,4.8 1.2,0.2 2.4,0.4 3.7,0.6 0.1,-1.3 0.2,-2.6 0.4,-3.8 0.7,-5.5 3.5,-13.4 1.1,-18.7 -1.9,-4.2 -7.2,-5.1 -10,-1.3 -1.7,2.3 -2,5.6 -2.4,8.3 -0.3,1.9 -0.4,3.8 -0.7,5.7 -0.2,1.8 -1.1,3.9 -1,5.7 -1,1.3 -0.7,2 0.8,2.3 1.1,1.1 1.6,1 1.4,-0.4 0.9,-1 1,-3.9 1.3,-5.3 0.7,-3.6 1.2,-7.2 1.5,-10.9 0.3,-4.2 -0.4,-10.6 -5.9,-10.9 -5.7,-0.3 -6.7,7.2 -7.3,11.4 -0.9,5.6 -1,11.9 -5.7,15.7 2.1,0.3 4.2,0.5 6.3,0.8 -3.5,-6.2 9.9,-22.5 -1.7,-25.6 -4.1,-1.1 -7.2,2 -8.3,5.6 -1.7,5.7 -2.2,11 -5.1,16.5 1.8,-0.5 3.6,-1 5.5,-1.4 -3.2,-1.5 3,-10.6 3.1,-13.6 0,-3.9 -3.4,-6.8 -7.3,-5.6 -4.2,1.3 -5.6,5.9 -6.1,9.7 -0.1,1.2 -0.3,2.6 -0.4,3.8 0,1.6 -0.4,4.4 1.1,0.7 1,-2.5 2.3,-5 3.2,-7.6 1.3,-3.5 1.5,-7.8 -2,-10.2 -2.9,-1.9 -6.8,-0.8 -9,1.7 -3,3.5 -2,8.5 -3,12.8 -1.3,5.7 -4.5,10.5 -8.9,14.3 2.3,0.9 4.6,1.9 6.8,2.8 0.1,-8.4 1.5,-16.4 4.2,-24.4 -2.6,0 -5.1,0 -7.7,0 0.4,2.4 1.9,15.3 -1.8,16 1.6,0.9 3.3,1.9 4.9,2.8 -1.2,-4.5 1.2,-9.2 0.6,-13.8 -0.5,-3.6 -2,-6.1 -4.9,-8.3 -1.8,-1.3 -4.5,-0.3 -5.5,1.4 -2.4,4 -2.7,8.3 -2.5,12.9 0.1,2.3 0.3,4.6 0.2,6.9 -0.1,1.1 -0.6,2.2 -0.6,3.3 -1.4,1.3 -1.2,1.9 0.6,1.9 1.4,0.9 1.9,0.6 1.5,-0.9 1.2,-2.1 0.8,-7.1 1,-9.5 0.3,-2.9 0.9,-6 1,-8.9 0,-4.6 -2.6,-8.4 -7.5,-8.3 -2.2,0 -4,1.8 -4,4 0,10 -2.3,19.5 -7,28.4 1.2,-0.7 2.3,-1.3 3.5,-2 -0.3,0 -0.5,0 -0.8,-0.1 0.9,0.4 1.9,0.8 2.8,1.2 -0.1,-0.1 1.2,-5.9 1.2,-6.6 0.3,-1.9 0.5,-3.9 0.8,-5.8 0.6,-4.5 1.2,-9 1.8,-13.5 0.3,-2 -0.4,-4.5 -2.8,-4.9 -17.2,-2.8 -6.2,23.6 -17.2,28.6 2,1.5 3.9,3 5.9,4.5 1.9,-9.8 3.2,-19.6 3.8,-29.6 0.2,-3.4 -4.6,-5.4 -6.8,-2.8 -3.9,4.3 -5.6,9.5 -6.8,15.1 -1.2,5.7 -1.8,12.1 -6.1,16.5 2.2,1.3 4.5,2.6 6.7,3.9 1.6,-10.1 3.1,-20.2 4.7,-30.3 0.8,-5 -5.9,-7 -7.7,-2.1 -3.2,8.9 -6.5,17.8 -9.7,26.8 -2.7,7.4 -5.8,15.2 -2.9,23.1 0.9,2.3 3.5,3.8 5.9,2.4 10.4,-6.4 21.3,-11 32.9,-14.7 9.8,-3.2 19.3,-6.6 27.2,-13.2 4,-3.3 -1.7,-8.8 -5.7,-5.7 -5.1,4.1 -11.1,7 -17.4,8.4 -6.1,1.4 -12.3,0.8 -18.5,1.4 -5.4,0.5 -10.4,2 -14.7,5.4 -5.1,3.9 -9.5,10.3 -16.6,9.8 1.3,1.7 2.6,3.4 3.9,5.1 2.8,-7.8 5.7,-15.6 8.5,-23.4 2.6,-7.2 5.5,-14.2 6.4,-21.9 0.5,-4.4 -5.4,-4.8 -7.5,-2 -4.8,6.6 -9,13.6 -12.4,21.1 -1.1,2.5 -7,21.8 -11,18.4 0,1.9 0,3.8 0,5.7 9.5,-11.9 17.1,-24.9 22.7,-39.1 1.4,-3.6 -4.3,-7 -6.7,-3.9 -5.7,7.3 -11.5,14.6 -17.2,21.9 -4.5,5.8 -9.6,15 -16.9,17.6 1.5,2 3,3.9 4.5,5.9 8.3,-12.5 17.2,-24.7 26.7,-36.3 2.8,-3.5 -0.6,-8.4 -4.8,-6.3 -9,4.5 -16.9,10.8 -23.1,18.7 -5.7,7.2 -10.2,22.2 -21.1,22.3 0.9,2.3 1.9,4.6 2.8,6.8 11.5,-14.7 27.5,-26 33.8,-44.3 1.1,-3.3 -3,-6.3 -5.9,-4.5 -7,4.4 -12.1,10.6 -17.1,17.1 -3,3.9 -6,7.7 -9.3,11.3 -3,3.2 -6,7.2 -9.6,9.8 -1.3,1 -3.8,2.2 -0.6,0.5 1.7,-0.9 3.3,-2.3 4.8,-3.5 3.4,-2.7 6.7,-5.5 9.8,-8.6 6,-6 11.2,-12.8 15.6,-20.1 2.3,-3.7 -2.1,-7 -5.5,-5.5 -7,3.1 -12.3,8.6 -17.4,14.2 -2.5,2.8 -5,5.6 -7.8,8.2 -1.7,1.6 -7.1,6.8 -9.7,5.8 0.8,0.6 1.6,1.2 2.4,1.8 -0.1,-0.2 -0.3,-0.5 -0.4,-0.7 -0.2,1.6 -0.4,3.2 -0.6,4.8 9.1,-8.4 18.3,-16.9 27.4,-25.3 2.4,-2.2 0.7,-7.3 -2.8,-6.8 -6.1,0.8 -11.4,2.9 -16.5,6.2 -2.4,1.6 -4.7,3.4 -6.9,5.2 -2.6,2.1 -5.9,6 -9.6,4.8 0.6,2.2 1.2,4.5 1.8,6.7 4.5,-5.1 9.6,-9.6 15.4,-13.2 2.8,-1.7 5.8,-3.4 9.1,-4.3 3.9,-1 7.9,-0.5 11.8,-0.5 14.1,0.3 27.6,-1.7 40.9,-6.5 6.4,-2.3 12.8,-4.9 19.6,-6.1 7.4,-1.4 15.1,-1.1 22.6,-1.2 7,0 14.1,-0.3 20.9,-2 3.5,-0.9 5.5,-2.1 8.9,-0.8 2.7,1.1 4.4,1.2 7,-0.1 1.6,-0.8 2.3,-2.9 1.8,-4.5 -0.7,-2.5 -1.9,-4.1 -4.2,-5.4 -2.3,-1.3 -5.1,-0.1 -5.9,2.4 -1.7,5.2 2.7,9.6 7.8,9.5 3.3,0 6.5,-1.3 9.8,-1.6 3.5,-0.3 7.1,0 10.6,0.7 7,1.5 11.9,5.1 17.6,9.1 4.4,3 10.3,2.4 11.9,-3.2 1.3,-4.5 -4.8,-6.7 -7.3,-3.1 -3.7,5.5 -0.6,13.2 5.8,14.7 -0.3,-2.4 -0.6,-4.9 -1,-7.3 -4.6,3.3 -13.3,7.3 -15.1,13.3 -1.7,5.6 2.8,9.8 8.2,9.1 -0.7,-2.6 -1.4,-5.1 -2.1,-7.7 -6.3,2 -12.6,2.7 -19.2,2.2 0.7,2.5 1.3,5 2,7.5 1,-0.2 1.9,-0.4 2.9,-0.7 5.1,-0.1 5.2,-7.9 0,-8 -11.8,-0.3 -23.5,-1.1 -35.2,-2.3 0.4,2.6 0.7,5.2 1.1,7.9 1.5,-0.3 3,-0.7 4.5,-1 3.2,-0.7 4,-5.8 1,-7.3 -9.5,-4.6 -14.4,5.2 -21.7,9.2 -9,4.9 -19,4.3 -28.9,5.2 -9.6,0.9 -12.7,10.7 -21.9,12.9 -10,2.3 -18.6,-5.3 -28.7,-4.1 -10.3,1.2 -19.5,8.4 -30.1,7.8 -12.6,-0.8 -11.9,-15.7 -16.7,-24.1 -0.6,-1.1 -7,-6.2 -7.1,-4.9 0.1,-1.1 6,-3.9 6.8,-4.5 3,-1.9 6,-3.8 9,-5.7 4.4,-2.8 9.1,-5.9 14.3,-6.8 6,-1.1 11.8,1.9 17.8,1.7 6.3,-0.2 12.5,-2.1 18.6,-3.6 6.3,-1.6 12.7,-3.2 18.9,-5 9.1,-2.7 29,-13.8 34.7,-0.9 2.1,4 9,-0.1 6.9,-4.8 z"
             id="path32718"
             style="fill:#ffee88" />
        </g>
      </g>
      <g
         id="g32728">
        <g
           id="g32726">
          <path
             d="m 745.4,327.4 c 6.8,-14.1 16.3,-29.5 14.2,-45.9 -2.1,-16.3 -15.2,-22.7 -29.3,-27.3 -0.9,-0.3 -1.5,0.7 -1.1,1.5 1.7,3.7 3.3,7.4 5,11.1 0.6,-0.3 1.2,-0.7 1.7,-1 -3.3,-4.4 -7.2,-7.9 -11.9,-10.7 -0.2,0.6 -0.3,1.2 -0.5,1.9 7.6,-0.5 14.9,-1.9 22.1,-4.3 1.2,-0.4 0.7,-2.3 -0.5,-1.9 -7,2.4 -14.2,3.8 -21.6,4.2 -1,0.1 -1.4,1.3 -0.5,1.9 4.4,2.6 8.1,5.9 11.2,10 0.8,1 2.3,0.2 1.7,-1 -1.7,-3.7 -3.3,-7.4 -5,-11.1 -0.4,0.5 -0.8,1 -1.1,1.5 6.7,2.1 13.8,4.4 19.3,9 5.9,5 8.6,12.2 8.9,19.7 0.6,14.8 -8,28.6 -14.2,41.5 -0.7,1 1,2.1 1.6,0.9 z"
             id="path32724" />
        </g>
      </g>
      <g
         id="g32734">
        <g
           id="g32732">
          <path
             class="st1"
             d="m 709.9,325.7 c -8.8,-3.7 -18.2,-5.5 -27.8,-4.4 -5.2,0.6 -10.1,2.7 -15.3,3.3 -4.4,0.6 -8.8,0 -13.2,0.7 -7,1.1 -13.8,4.4 -16.4,11.4 -1.2,3.3 -1.6,4.6 -5.3,5.9 -2.3,0.8 -4.6,1.5 -7,2.1 -5.9,1.4 -11.8,1.9 -17.9,1.7 0.4,2.6 0.7,5.2 1.1,7.9 9.9,-3.4 20,-5.2 30.5,-5.3 -0.9,-2.3 -1.9,-4.6 -2.8,-6.8 -8.2,6.4 -18,10.6 -28.4,11.9 -3.4,0.4 -5.4,4.1 -2.8,6.8 3.9,4.3 9.6,3.5 14.7,1.9 6.6,-2.1 12.9,-5.3 18.7,-9.2 5.6,-3.9 10.2,-8.4 14.8,-13.4 3.1,-3.3 7.5,-3.2 11.8,-3.9 4.5,-0.7 9.1,-1.3 13.6,-2 -1,-2.4 -2.1,-4.9 -3.1,-7.3 -19.3,9.1 -37,21.2 -52.6,35.8 -3.8,3.6 1.7,8.8 5.7,5.7 15.6,-12.6 32.2,-25.2 52.5,-28.4 -1.3,-2.2 -2.6,-4.5 -3.9,-6.7 -14.2,14.1 -34.4,19.9 -48.8,33.9 -3.5,3.4 0.9,8.1 4.8,6.3 8.4,-3.8 16.5,-8.1 24.3,-12.9 7.4,-4.6 14.8,-11 23.9,-11.7 -1.2,-2 -2.3,-4 -3.5,-6 -10.5,16.5 -32.6,20.3 -45,35.2 -2.7,3.3 0.7,8.9 4.8,6.3 7.6,-4.8 15.2,-9.5 22.8,-14.3 3.7,-2.3 7.3,-4.6 11,-6.9 2.9,-1.8 7,-5.1 10.2,-2.7 0,-2.3 0,-4.6 0,-6.9 -10.6,6.7 -21.2,13.5 -31.8,20.2 -4.8,3.1 -10,5.9 -14.6,9.4 -3.6,2.7 -5.7,6 -4.6,10.5 0.7,3 4.6,3.8 6.7,1.8 12.8,-12.5 29,-17.8 46.6,-17.8 7.7,0 15.7,-0.2 22.4,-4.6 5.9,-3.8 10,-9.6 11.8,-16.3 0.7,-2.7 -2,-6.1 -4.9,-4.9 -7.1,2.8 -11.8,8.8 -18.4,12.5 -7.4,4.1 -16.2,5.5 -24.6,4.1 0,2.6 0,5.1 0,7.7 15,-3.7 28.6,-10.6 40.7,-20.1 3.5,-2.8 -1.2,-9 -4.8,-6.3 -9.9,7.2 -20.8,12.1 -32.9,14.4 1,2.4 2.1,4.9 3.1,7.3 10.1,-7.1 20.6,-13.5 31.5,-19.2 4.6,-2.4 0.6,-9.2 -4,-6.9 -8.2,4 -16.7,7.2 -25.5,9.6 1,2.4 2.1,4.9 3.1,7.3 8.6,-6.2 17.7,-11.8 27.1,-16.7 4.3,-2.2 1.1,-8 -3.1,-7.3 -8.8,1.5 -17.2,3.9 -25.5,7.3 1,2.4 2.1,4.9 3.1,7.3 7.6,-4.5 15.1,-9.1 22.7,-13.6 4.5,-2.7 0.6,-9.1 -4,-6.9 -4.7,2.3 -9.4,4.6 -14.2,6.9 1.3,2.3 2.7,4.6 4,6.9 3.9,-2.3 7.8,-4.7 11.7,-7 3.1,-1.9 2.1,-8 -2,-7.5 -7,0.9 -13.4,2.6 -19.8,5.5 1.6,2.1 3.2,4.2 4.8,6.3 2.9,-2.5 5.8,-5 8.8,-7.5 2.7,-2.3 0.5,-6.8 -2.8,-6.8 -4.4,0 -8.9,0 -13.3,0 0.4,2.6 0.7,5.2 1.1,7.9 10.6,-1.6 21.2,-3.2 31.7,-4.7 2.6,-0.4 3.6,-3.9 2.4,-5.9 -0.6,-1.1 -1.3,-2.2 -1.9,-3.3 -0.5,1.8 -1,3.6 -1.4,5.5 4.2,-1.8 13.2,-5.3 15.1,1.3 1.6,-1.6 3.3,-3.3 4.9,-4.9 -11.2,-3.3 -23.5,1.6 -29.2,11.8 -2,3.6 2,7.2 5.5,5.5 7.1,-3.5 14.6,-5.8 22.5,-7.1 -1.5,-2 -3,-3.9 -4.5,-5.9 -2.9,4.6 -8.8,6.2 -13.6,8.4 -4.7,2.1 -9,4.9 -11.5,9.7 -1.4,2.8 1,7.2 4.5,5.9 7.9,-3.1 15.8,-6.1 23.7,-9.2 -1.3,-2.2 -2.6,-4.5 -3.9,-6.7 -4.6,4.2 -9.2,8.4 -13.8,12.6 -3.1,2.8 0.2,7.5 3.9,6.7 5.9,-1.3 11.8,-2.6 17.6,-3.8 -1.5,-2 -3,-3.9 -4.5,-5.9 -2.3,3.5 -5.4,5.3 -9.4,6 -4.4,0.8 -3.4,8.4 1.1,7.9 5.6,-0.7 11.1,-1.7 16.5,-3.2 3.6,-1 8.6,-2 10.4,-5.7 1.7,-3.5 0,-6.8 -2.4,-9.5 -3.8,-4.3 -6.5,-8.6 -7.1,-14.5 -0.4,-4.4 -6.3,-5.5 -7.9,-1.1 -1.9,5.6 1.3,10.2 5.4,13.6 1,0.9 2.6,1.7 3.3,2.9 0.8,1.3 1.6,4.4 -1,1.1 -1.9,-2.4 -2.4,-5.9 -4.1,-8.5 -1.7,-2.6 -6.7,-2.7 -7.3,1 -0.6,3.9 -3.9,5.7 -7.3,7.2 -4.4,2 -9.2,3.6 -13.8,5.2 -8.8,3.2 -17.8,6.2 -26.9,8.7 -19.1,5.3 -38.9,8.6 -58.7,7.2 -1.9,-0.1 -4.3,0.1 -6.1,-0.7 -2.9,-1.2 -2.2,-2.2 -1.8,-4.8 0.6,-3.7 -0.3,-7.1 -2.2,-10.3 -3.1,-5.4 -9.7,-13.2 -16.7,-11.3 -2.8,0.7 -4.1,3.3 -6.5,4.4 -1.8,0.8 -1.8,-0.5 -3.4,-1.6 -1.3,-0.9 -2.8,-1.5 -4.4,-1.6 -8.3,-0.9 -12,7 -18.7,9.9 -3,1.3 -2.2,5.4 0,6.9 0.1,0.1 0.3,0.2 0.4,0.3 1.1,0.7 3,0.8 4,0 1.7,-1.2 2.4,-2.3 2.5,-4.4 0.1,-1.3 -0.8,-2.8 -2,-3.5 -2.4,-1.3 -4.3,-0.9 -6.9,-0.4 -1.7,0.4 -3.9,0.5 -5.5,1.2 -1.4,0.6 -2.4,1.7 -4.1,1.6 -3.5,-0.3 -5.2,4.6 -2.8,6.8 0.1,0.1 0.3,0.3 0.4,0.4 1,1 2.5,1.5 3.9,1 3,-1 5.3,-4.2 3.5,-7.4 -2.2,-3.8 -7.1,-2.7 -10.6,-2.2 -10.2,1.4 -19.9,3.7 -27.9,10.5 1.9,1.9 3.8,3.8 5.7,5.7 1.1,-1.2 2.1,-2.4 3.2,-3.6 -2.2,-1.3 -4.5,-2.6 -6.7,-3.9 -1.5,4.8 -8.6,0.5 -10.9,-0.8 -3.3,-1.9 -7.9,2.1 -5.5,5.5 1.1,1.1 1.5,2.5 1.1,4.1 -0.4,2.2 1.1,5.4 3.9,5.1 3.6,-0.5 1.7,4.2 0.6,5.8 -1.5,2.1 -3.5,3.9 -5.3,5.8 -3.9,4 -7.8,8 -11.6,12 -2.3,2.4 -0.7,7 2.8,6.8 4.1,-0.2 4.9,2.2 7.5,4.6 2,1.8 4.5,2.7 7,3.7 6.9,2.9 13.9,5.6 21.4,6.7 11.4,1.6 24,-1.1 31.4,-10.5 -1.6,0.2 -3.2,0.4 -4.8,0.6 9.7,6.1 18.5,-5.4 27.1,-8.4 10.9,-3.7 22.8,-2.8 34,-1.6 1.3,0.1 2.9,-0.8 3.5,-2 1.7,-3.7 6.5,-5.3 9.7,-2.2 1.9,1.9 6.2,1.4 6.7,-1.8 1.3,-9 2.2,-19.7 -5.6,-26.2 -6.7,-5.6 -16.4,-4.9 -22.9,0.5 -3.7,3.1 1,8.2 4.8,6.3 2.1,-1 3.7,-0.7 5.6,0.5 -0.3,-2.1 -0.5,-4.2 -0.8,-6.3 -3.7,3.6 -7.6,6.7 -11.9,9.5 -3,1.9 -2.2,8 2,7.5 4.3,-0.6 8.5,-0.8 12.8,-0.7 -0.9,-2.3 -1.9,-4.6 -2.8,-6.8 -2.8,2.5 -5.7,4.9 -8.5,7.4 -3.3,2.8 0.3,7.4 3.9,6.7 4.9,-0.9 11.5,-2.5 15.2,-6.2 3,-3.1 2.9,-7.9 -0.5,-10.5 -8.1,-6.3 -21.5,1.6 -27.4,7.5 -1.9,1.8 -1.4,5 0.8,6.3 1.9,1.1 3.8,2.3 5.8,3.4 0.7,-2.5 1.3,-5 2,-7.5 -9.7,-0.6 -19.5,0.6 -28.7,3.6 -9.4,3 -18.1,7.7 -27.2,11.7 -15,6.6 -37.6,12.5 -49.2,-3.5 -1.5,2 -3,3.9 -4.5,5.9 16.8,5.6 35.8,7.5 52.3,0.1 8.4,-3.8 16,-9 24.5,-12.5 9,-3.7 18.5,-6.1 28.1,-7.2 -0.7,-2.5 -1.3,-5 -2,-7.5 -14.3,6.7 -28.9,12.6 -43.8,17.8 1.3,2.2 2.6,4.5 3.9,6.7 11.1,-13.9 27.7,-22.1 45.6,-22 0,-2.7 0,-5.3 0,-8 -17.6,0.2 -33.4,7.8 -49.2,14.8 -16.6,7.4 -35.4,14.1 -53.2,7.1 0.6,2.2 1.2,4.5 1.8,6.7 1.6,-1.7 3.2,-2.6 5.6,-2.7 5.1,-0.3 5.2,-8.3 0,-8 -4.4,0.2 -8.1,1.8 -11.2,5 -2.2,2.3 -1,5.6 1.8,6.7 37.1,14.6 68.5,-21.3 104.6,-21.6 5.1,0 5.2,-8 0,-8 -19.8,0 -38.9,8.9 -51.2,24.4 -2.2,2.8 -0.3,8.1 3.9,6.7 15.6,-5.4 30.8,-11.6 45.7,-18.6 3.5,-1.6 1.9,-7.9 -2,-7.5 -17.9,2.1 -33.4,8.3 -49.1,16.9 -8.3,4.6 -16.5,7.6 -26.1,7.7 -9.4,0.1 -18.7,-1.7 -27.6,-4.7 -3.1,-1.1 -6.6,3 -4.5,5.9 11,15.2 31,16.6 47.7,11.2 10,-3.2 19.3,-8.3 29,-12.4 11.3,-4.9 23,-7.3 35.3,-6.6 4.1,0.2 5.3,-5.5 2,-7.5 -1.9,-1.1 -3.8,-2.3 -5.8,-3.4 0.3,2.1 0.5,4.2 0.8,6.3 3.6,-3.5 7.9,-6.1 12.9,-6.9 3.4,-0.6 2.4,-0.3 -0.3,0.7 -2.5,1 -5,1.6 -7.6,2.1 1.3,2.2 2.6,4.5 3.9,6.7 2.8,-2.5 5.7,-4.9 8.5,-7.4 2.7,-2.4 0.4,-6.8 -2.8,-6.8 -4.3,-0.1 -8.5,0.2 -12.8,0.7 0.7,2.5 1.3,5 2,7.5 4.9,-3.2 9.3,-6.7 13.5,-10.8 1.9,-1.8 1.4,-5 -0.8,-6.3 -4.4,-2.7 -9.1,-2.7 -13.7,-0.5 1.6,2.1 3.2,4.2 4.8,6.3 3.9,-3.3 10.3,-2.7 13.4,1.4 3.5,4.5 2.4,11.3 1.7,16.5 2.2,-0.6 4.5,-1.2 6.7,-1.8 -6.6,-6.3 -18.3,-4.7 -22.2,3.9 1.2,-0.7 2.3,-1.3 3.5,-2 -10,-1.1 -20.1,-1.6 -30.1,0.3 -4.4,0.9 -8.8,2.3 -12.8,4.4 -3.7,1.9 -10,9 -14.2,6.3 -1.3,-0.8 -3.8,-0.7 -4.8,0.6 -7.8,10 -20.9,9.9 -32.1,6.6 -5.3,-1.6 -13.2,-3.4 -17.2,-7.3 -3.7,-3.7 -6.6,-6.2 -12.2,-6 0.9,2.3 1.9,4.6 2.8,6.8 3.9,-4 7.8,-8 11.6,-12 3.1,-3.2 6.7,-6.3 8.3,-10.5 2.6,-6.4 -1.2,-15.7 -9.2,-14.7 1.3,1.7 2.6,3.4 3.9,5.1 0.7,-3.8 0.3,-7.1 -2,-10.3 -1.8,1.8 -3.6,3.6 -5.5,5.5 7.6,4.3 19.3,6.9 22.7,-4 1.1,-3.7 -4,-6.9 -6.7,-3.9 -1.1,1.2 -2.1,2.4 -3.2,3.6 -3.4,3.9 1.7,9 5.7,5.7 3.9,-3.3 8.5,-5.2 13.4,-6.4 2,-0.5 4.1,-0.9 6.2,-1.3 0.8,-0.1 6.8,-1.4 6.9,-1.4 -0.4,-0.9 -0.8,-1.9 -1.2,-2.8 0,0.2 0,0.5 0,0.7 0.4,-0.9 0.8,-1.9 1.2,-2.8 0.2,-0.1 0.4,-0.2 0.6,-0.2 1.3,0.3 2.6,0.7 3.9,1 -0.1,-0.1 -0.3,-0.3 -0.4,-0.4 -0.9,2.3 -1.9,4.6 -2.8,6.8 2.3,0.2 4,-0.3 6.1,-1.3 1.2,-0.5 5.4,-2.7 6.3,-2.2 -0.7,-1.2 -1.3,-2.3 -2,-3.5 0,0.2 0,0.4 0,0.6 0.7,-1.2 1.3,-2.3 2,-3.5 -0.2,0.1 -0.3,0.2 -0.5,0.4 1.3,0 2.7,0 4,0 -0.1,-0.1 -0.3,-0.2 -0.4,-0.3 0,2.3 0,4.6 0,6.9 2.5,-1.1 4.5,-2.7 6.5,-4.5 1.1,-1 2.2,-2.2 3.5,-3.1 2.8,-1.7 3.9,-1 6.3,0.7 4.1,3 7.7,2.4 11.5,-0.7 0.7,-0.6 1.6,-1.8 2.5,-2.2 1.8,-0.7 3.5,1.1 4.8,2.4 2.8,2.9 5.5,6 4.9,10.3 -0.7,5.6 -0.5,10 5.3,12.5 5.9,2.5 13.6,2.1 19.9,2.1 7.8,0 15.5,-0.7 23.3,-1.8 15.8,-2.2 31.2,-6.5 46.3,-11.7 7.8,-2.7 15.7,-5.4 23.3,-8.7 5.6,-2.4 11.2,-6.1 12.2,-12.5 -2.4,0.3 -4.9,0.6 -7.3,1 2.6,4 3.3,9.1 7.4,12 3.4,2.5 8.1,3 11.4,-0.1 2.9,-2.8 3,-7.2 1.4,-10.7 -1.7,-3.6 -10.5,-8.1 -9.1,-12.2 -2.6,-0.4 -5.2,-0.7 -7.9,-1.1 0.6,6.5 2.7,12.4 7,17.5 0.6,0.7 2.7,2.3 2.4,3.2 -0.2,0.6 -4.8,1.5 -5.3,1.6 -4.4,1.2 -9,2.1 -13.5,2.7 0.4,2.6 0.7,5.2 1.1,7.9 6.1,-1.2 10.8,-4.6 14.2,-9.7 2.1,-3.1 -1.3,-6.6 -4.5,-5.9 -5.9,1.3 -11.8,2.5 -17.6,3.8 1.3,2.2 2.6,4.5 3.9,6.7 4.6,-4.2 9.2,-8.4 13.8,-12.6 2.8,-2.6 -0.1,-8.1 -3.9,-6.7 -7.9,3.1 -15.8,6.1 -23.7,9.2 1.5,2 3,3.9 4.5,5.9 2.5,-5 8.2,-6.6 12.9,-8.7 4.9,-2.2 9.2,-4.8 12.1,-9.4 2,-3.2 -1.3,-6.4 -4.5,-5.9 -8.6,1.4 -16.6,4.1 -24.4,7.9 1.8,1.8 3.6,3.6 5.5,5.5 4,-7.2 12.3,-10.5 20.2,-8.2 2.9,0.9 5.7,-2 4.9,-4.9 -3.6,-12.7 -17.6,-10.1 -26.9,-6.1 -2,0.9 -2.4,3.8 -1.4,5.5 0.6,1.1 1.3,2.2 1.9,3.3 0.8,-2 1.6,-3.9 2.4,-5.9 -10.6,1.6 -21.2,3.2 -31.7,4.7 -4.5,0.7 -3.3,7.9 1.1,7.9 4.4,0 8.9,0 13.3,0 -0.9,-2.3 -1.9,-4.6 -2.8,-6.8 -2.9,2.5 -5.8,5 -8.8,7.5 -3.7,3.2 1,8 4.8,6.3 5,-2.2 10.3,-3.7 15.8,-4.4 -0.7,-2.5 -1.3,-5 -2,-7.5 -3.9,2.3 -7.8,4.7 -11.7,7 -4.5,2.7 -0.5,9.1 4,6.9 4.7,-2.3 9.4,-4.6 14.2,-6.9 -1.3,-2.3 -2.7,-4.6 -4,-6.9 -7.6,4.5 -15.1,9.1 -22.7,13.6 -3.7,2.2 -1.3,9.1 3.1,7.3 8.2,-3.3 16.7,-5.7 25.5,-7.3 -1,-2.4 -2.1,-4.9 -3.1,-7.3 -9.4,4.9 -18.5,10.5 -27.1,16.7 -3.5,2.5 -1.6,8.6 3.1,7.3 9.5,-2.6 18.6,-6.1 27.4,-10.4 -1.3,-2.3 -2.7,-4.6 -4,-6.9 -10.9,5.7 -21.4,12.1 -31.5,19.2 -3.7,2.6 -1.5,8.2 3.1,7.3 12.6,-2.5 24.4,-7.6 34.8,-15.2 -1.6,-2.1 -3.2,-4.2 -4.8,-6.3 -11,8.6 -23.7,14.7 -37.2,18 -3.6,0.9 -4,7 0,7.7 8.6,1.5 17.3,0.9 25.5,-2.4 3.8,-1.5 7.3,-3.5 10.5,-6 3.7,-2.8 6.9,-6.5 11.2,-8.2 -1.6,-1.6 -3.3,-3.3 -4.9,-4.9 -2,7.3 -7.4,12.7 -14.8,14.3 -8,1.8 -16.5,0.3 -24.6,1.4 -14.9,2.1 -28.6,9 -39.3,19.4 2.2,0.6 4.5,1.2 6.7,1.8 -0.5,-2 8.9,-6.7 10.5,-7.7 4.2,-2.7 8.4,-5.3 12.5,-8 8.1,-5.2 16.2,-10.3 24.2,-15.5 2.7,-1.7 2.4,-5.1 0,-6.9 -7.4,-5.5 -16.2,1.4 -22.5,5.3 -9.9,6.2 -19.7,12.4 -29.6,18.5 1.6,2.1 3.2,4.2 4.8,6.3 12.9,-15.5 35.1,-19.3 46.2,-36.8 1.6,-2.5 -0.4,-6.2 -3.5,-6 -9.6,0.7 -17.1,5.8 -24.9,10.9 -8.7,5.6 -17.9,10.6 -27.3,14.9 1.6,2.1 3.2,4.2 4.8,6.3 14.4,-13.9 34.5,-19.7 48.8,-33.9 3.1,-3.1 -0.2,-7.3 -3.9,-6.7 -21.7,3.4 -39.4,17.1 -56.1,30.5 1.9,1.9 3.8,3.8 5.7,5.7 15.1,-14.1 32.3,-25.7 51,-34.5 4.5,-2.1 1,-7.9 -3.1,-7.3 -6.9,1 -14.3,1.5 -21.1,3.2 -6,1.5 -9,6.5 -13.2,10.6 -4.4,4.2 -9.3,7.6 -14.6,10.5 -3.1,1.7 -13.7,7.8 -16.9,4.4 -0.9,2.3 -1.9,4.6 -2.8,6.8 12.7,-1.7 24,-6.4 34,-14.3 2.8,-2.2 0.4,-6.9 -2.8,-6.8 -11.1,0.1 -22.1,2 -32.6,5.6 -4.2,1.4 -3.6,7.7 1.1,7.9 9.8,0.4 19.6,-1.1 28.6,-4.7 3.4,-1.4 6.2,-2.9 7.7,-6.4 1.9,-4.3 2.1,-7.3 7,-9.1 3.4,-1.3 7.1,-1.5 10.7,-1.4 5.1,0 9.4,-0.8 14.3,-2.1 10,-2.7 20.7,-2.1 30.2,2 4.3,1.4 8.3,-5.5 3.6,-7.5 z"
             id="path32730"
             style="fill:#a2e57f" />
        </g>
      </g>
      <g
         id="g32740">
        <g
           id="g32738">
          <path
             class="st1"
             d="m 603.6,362.7 c -16.5,-2.8 -31.3,6.4 -45.5,13.3 -13.9,6.8 -31.1,17.4 -46.7,9.9 0.3,2.1 0.5,4.2 0.8,6.3 5,-4.6 12.3,-5.2 18.6,-6.8 7,-1.8 13.8,-4.3 20.5,-7.2 -1.6,-2.1 -3.2,-4.2 -4.8,-6.3 -7.3,5.8 -15.7,9.6 -24.8,11.5 -3.9,0.8 -3.7,6.8 0,7.7 6.8,1.7 13.4,-3.4 19,-6.6 6.5,-3.7 12.9,-7.7 19.5,-11.2 14.2,-7.6 29.2,-12.1 45.4,-12.4 -0.9,-2.3 -1.9,-4.6 -2.8,-6.8 -3.9,3.4 -9,4.4 -13.8,5.8 -5.4,1.5 -10.7,3.4 -15.9,5.5 -9.9,4.1 -19.3,9.2 -28.2,15.3 2,0.8 3.9,1.6 5.9,2.4 -1.1,-8.2 15.6,-14.6 21.1,-17.5 8.9,-4.7 17.9,-9.3 27.3,-13 4.1,-1.6 3.7,-7.8 -1.1,-7.9 -14.6,-0.3 -27.9,8.3 -40.6,14.5 -7,3.5 -14.1,6.9 -21.2,10.2 -3.5,1.7 -7.1,3.3 -10.7,4.9 -1.9,0.9 -9.8,5.7 -12,3.8 0.2,1.6 0.4,3.2 0.6,4.8 2.4,-5 7.9,-7.3 12.6,-9.6 5.6,-2.7 11.4,-5 17.2,-7.2 11.9,-4.7 23.9,-9.3 35.8,-14 -1,-2.4 -2.1,-4.9 -3.1,-7.3 -15.9,7.7 -31.7,15.5 -47.6,23.2 -0.7,0.4 -8.4,4.9 -9.6,3.4 -2,-2.6 8.5,-6.7 9.6,-7.2 7.5,-3.1 15.4,-4.9 23.5,-5.3 5.1,-0.3 5.2,-8.3 0,-8 -11.1,0.6 -21.9,3.3 -31.8,8.3 -4,2.1 -8.3,4.7 -9.4,9.5 -0.9,3.9 0.8,8.1 4.5,9.8 3.6,1.7 7.7,0.7 11.1,-0.7 5.7,-2.4 11.3,-5.4 16.8,-8.2 12.3,-6 24.5,-12 36.8,-18 4,-2 1.2,-9 -3.1,-7.3 -13.6,5.3 -27.2,10.5 -40.8,15.9 -10,4 -24.5,8.2 -29.6,18.6 -0.7,1.5 -0.8,3.7 0.6,4.8 5.2,4.4 10.8,2.3 16.4,-0.1 8.4,-3.7 16.7,-7.6 24.9,-11.6 8,-3.8 15.9,-7.8 23.9,-11.7 8,-3.9 15.9,-7.9 25,-7.7 -0.4,-2.6 -0.7,-5.2 -1.1,-7.9 -12.3,4.7 -24,10.8 -35.5,17.1 -9,4.9 -20.1,11.4 -18.5,23.2 0.3,2.5 3.9,3.7 5.9,2.4 9.7,-6.7 20.2,-12.3 31.2,-16.4 9.5,-3.5 20.4,-4.7 28.3,-11.5 2.7,-2.3 0.5,-6.9 -2.8,-6.8 -14.4,0.3 -28.3,3.5 -41.4,9.5 -6.5,3 -12.8,6.6 -18.9,10.2 -3.1,1.8 -6.2,3.7 -9.3,5.4 -2.8,1.6 -8.8,6.2 -12.1,5.4 0,2.6 0,5.1 0,7.7 10.5,-2.2 20,-6.9 28.3,-13.5 3.9,-3.1 -1.1,-7.9 -4.8,-6.3 -7.7,3.3 -15.6,5.8 -23.7,7.7 -6.3,1.5 -12.2,3.1 -17,7.6 -1.8,1.6 -1.5,5.2 0.8,6.3 14.3,6.9 29.3,2.4 42.9,-4.1 8.2,-3.8 16.2,-8 24.3,-11.9 8.4,-4 17.5,-8.1 27,-6.5 5,1.2 7.2,-6.5 2.1,-7.4 z"
             id="path32736"
             style="fill:#a2e57f" />
        </g>
      </g>
      <g
         id="g32746">
        <g
           id="g32744">
          <path
             class="st1"
             d="m 597.2,359.6 c 4.9,0.5 10,-1.2 14.3,1.8 3.6,2.5 6.6,5.8 10.3,8.2 4.3,2.9 8.3,-4.1 4,-6.9 -4.5,-3 -8.4,-8 -13.4,-10 -4.9,-2 -10.2,-0.5 -15.2,-1 -5.1,-0.7 -5,7.3 0,7.9 z"
             id="path32742"
             style="fill:#a2e57f" />
        </g>
      </g>
      <g
         id="g32752">
        <g
           id="g32750">
          <path
             class="st1"
             d="m 628.6,388.1 c 2,-2.2 4.1,-4.5 6.1,-6.7 1.5,-1.6 3,-3.8 5.2,-4.4 5,-1.2 2.9,-8.9 -2.1,-7.7 -3,0.7 -5.3,2.7 -7.3,4.9 -2.5,2.7 -5,5.5 -7.5,8.2 -3.5,3.8 2.1,9.5 5.6,5.7 z"
             id="path32748"
             style="fill:#a2e57f" />
        </g>
      </g>
      <g
         id="g32758">
        <g
           id="g32756">
          <path
             class="st1"
             d="m 516.2,358 c -2.8,-0.3 -5.3,0.8 -7.3,2.5 1.9,0 3.8,0 5.7,0 -0.5,-0.4 -0.9,-0.8 -1.4,-1.2 -1.6,-1.3 -4.1,-1.7 -5.7,0 -1.4,1.5 -1.7,4.2 0,5.7 0.5,0.4 0.9,0.8 1.4,1.2 1.8,1.5 3.9,1.5 5.7,0 -0.4,0.4 0.1,0 0.3,-0.1 0.4,-0.3 -0.7,0.2 0.3,-0.1 0.4,-0.1 0.4,0 0,0 0.4,0 0.7,0 1.1,0 2.1,0.2 4.1,-2 4,-4 -0.2,-2.3 -1.8,-3.8 -4.1,-4 z"
             id="path32754"
             style="fill:#a2e57f" />
        </g>
      </g>
      <g
         id="g32764">
        <g
           id="g32762">
          <path
             class="st1"
             d="m 649.7,333.4 c 1.6,0.7 3.2,1 4.8,0.1 1.3,-0.7 1.6,-1.8 2.6,-2.7 -0.6,0.3 -1.2,0.7 -1.8,1 0.9,-0.3 2.3,0 3.2,0 1.3,0 2.6,0 3.9,0 5.1,0 5.2,-8 0,-8 -2.3,0 -4.7,-0.1 -7,0 -1.1,0 -2.2,0.2 -3.2,0.7 -0.6,0.4 -1.1,0.9 -1.6,1.4 -0.2,0.2 -0.3,0.4 -0.5,0.7 -0.4,0.6 -0.1,0.4 0.8,-0.4 1,0.1 2.1,0.3 3.1,0.4 -0.1,-0.1 -0.2,-0.1 -0.4,-0.2 -2,-0.9 -4.3,-0.6 -5.5,1.4 -0.8,1.9 -0.3,4.7 1.6,5.6 z"
             id="path32760"
             style="fill:#a2e57f" />
        </g>
      </g>
      <g
         id="g32770">
        <g
           id="g32768">
          <path
             class="st1"
             d="m 707.5,323.1 c -5.7,-1.1 -11.4,-1.5 -17.2,-1 -5.1,0.5 -5.1,8.5 0,8 5.1,-0.5 10.1,-0.3 15.1,0.7 5,1 7.1,-6.7 2.1,-7.7 z"
             id="path32766"
             style="fill:#a2e57f" />
        </g>
      </g>
    </g>
    <g
       id="g35018"
       transform="translate(-36,-18)">
      <g
         id="g35016">
        <path
           d="m 515.4,254.1 c 0.9,13.8 3.6,27.3 8.3,40.3 1.2,3.4 1.6,6 5.5,6.4 5.4,0.7 11.3,-1.6 15.7,-4.5 1.1,-0.7 0.1,-2.4 -1,-1.7 -3.2,2.1 -13.1,7.1 -16.7,3.3 -1.4,-1.5 -2.1,-5.6 -2.8,-7.6 -0.7,-2.1 -1.3,-4.1 -1.9,-6.2 -2.8,-9.8 -4.4,-19.8 -5.1,-30 -0.1,-1.3 -2.1,-1.3 -2,0 z"
           id="path35014" />
      </g>
    </g>
    <g
       id="g35024"
       transform="translate(-36,-18)">
      <g
         id="g35022">
        <path
           d="m 547.7,275.4 c 1.9,5.1 3.7,10.2 5.6,15.3 0.4,1.2 2.4,0.7 1.9,-0.5 -1.9,-5.1 -3.7,-10.2 -5.6,-15.3 -0.4,-1.2 -2.3,-0.7 -1.9,0.5 z"
           id="path35020" />
      </g>
    </g>
    <g
       id="g35030"
       transform="translate(-36,-18)">
      <g
         id="g35028">
        <path
           d="m 542.6,263.9 c 0.3,0.6 0.6,1.1 0.9,1.7 0.6,1.1 2.3,0.1 1.7,-1 -0.3,-0.6 -0.6,-1.1 -0.9,-1.7 -0.5,-1.1 -2.3,-0.1 -1.7,1 z"
           id="path35026" />
      </g>
    </g>
    <g
       id="g35036"
       transform="translate(-36,-18)">
      <g
         id="g35034">
        <path
           d="m 553.2,256.1 c 1.7,12 5.6,23.3 11.8,33.7 0.7,1.1 2.4,0.1 1.7,-1 -6.1,-10.3 -10,-21.4 -11.6,-33.2 -0.2,-1.3 -2.1,-0.8 -1.9,0.5 z"
           id="path35032" />
      </g>
    </g>
    <g
       id="g35042"
       transform="translate(-36,-18)">
      <g
         id="g35040">
        <path
           d="m 567,268.4 c 0,4.9 -1.2,9.3 -3.6,13.5 -0.3,0.5 0,1.3 0.6,1.5 5.2,1.1 10.3,2.2 15.5,3.3 1.3,0.3 1.8,-1.7 0.5,-1.9 -5.2,-1.1 -10.3,-2.2 -15.5,-3.3 0.2,0.5 0.4,1 0.6,1.5 2.6,-4.5 3.9,-9.3 3.9,-14.5 0.1,-1.4 -1.9,-1.4 -2,-0.1 z"
           id="path35038" />
      </g>
    </g>
    <g
       id="g35048"
       transform="translate(-36,-18)">
      <g
         id="g35046">
        <path
           d="m 582.6,279.4 c 3.8,-1.3 9.1,-4 7,-8.9 -2,-4.6 -6.9,-1.5 -9.1,1.1 -2.9,3.3 -3.8,8.5 -0.5,11.9 1.7,1.7 3.8,2.1 6.2,1.9 4.2,-0.4 8.4,-1.6 12.5,-2.5 1.3,-0.3 0.7,-2.2 -0.5,-1.9 -5,1 -17.2,5.7 -18.2,-2.1 -0.4,-2.8 1.6,-6.6 4.2,-7.9 3.5,-1.7 4.6,1.8 2.5,4.1 -1.2,1.3 -2.9,1.8 -4.6,2.4 -1.2,0.4 -0.7,2.3 0.5,1.9 z"
           id="path35044" />
      </g>
    </g>
    <g
       id="g35054"
       transform="translate(-36,-18)">
      <g
         id="g35052">
        <path
           d="m 591.5,244.8 c 1.6,14.6 6.6,28.3 15.1,40.3 0.7,1 2.5,0 1.7,-1 -8.2,-11.7 -13.3,-25.1 -14.8,-39.3 -0.1,-1.3 -2.1,-1.3 -2,0 z"
           id="path35050" />
      </g>
    </g>
    <g
       id="g35060"
       transform="translate(-36,-18)">
      <g
         id="g35058">
        <path
           d="m 608.2,266.2 c 0.9,5.2 3.1,9.8 6.5,13.8 0.8,1 2.3,-0.4 1.4,-1.4 -3.2,-3.7 -5.2,-8 -6,-12.9 -0.2,-1.3 -2.1,-0.8 -1.9,0.5 z"
           id="path35056" />
      </g>
    </g>
    <g
       id="g35066"
       transform="translate(-36,-18)">
      <g
         id="g35064">
        <path
           d="m 606.2,255.8 c 0,-0.3 0,-0.6 0,-0.8 0,-1.3 -2,-1.3 -2,0 0,0.3 0,0.6 0,0.8 0,1.3 2,1.3 2,0 z"
           id="path35062" />
      </g>
    </g>
    <g
       id="g35072"
       transform="translate(-36,-18)">
      <g
         id="g35070">
        <path
           d="m 606.4,235.9 c 4.6,13.4 9.1,26.8 13.7,40.2 0.4,1.2 2.3,0.7 1.9,-0.5 -0.7,-2.2 -4,-14.8 1.2,-12.2 3.6,1.8 6.5,8.6 8,12.1 0.5,1.2 2.4,0.7 1.9,-0.5 -1.5,-3.6 -3.3,-6.9 -5.8,-9.9 -1.3,-1.7 -4.2,-5.9 -6.7,-5.6 -5.1,0.5 -1.4,13.8 -0.5,16.7 0.6,-0.2 1.3,-0.4 1.9,-0.5 -4.6,-13.4 -9.1,-26.8 -13.7,-40.2 -0.4,-1.3 -2.3,-0.8 -1.9,0.4 z"
           id="path35068" />
      </g>
    </g>
    <g
       id="g35078"
       transform="translate(-36,-18)">
      <g
         id="g35076">
        <path
           d="m 636.9,262.5 c -2.3,3.8 -0.5,9.2 3.8,10.8 4.8,1.8 10.1,-2.2 11.1,-6.9 1.1,-5.1 -2.4,-11.2 -7.3,-12.9 -6,-2 -9.3,6.8 -10.9,11.1 -0.5,1.2 1.5,1.7 1.9,0.5 1.3,-3.3 4.2,-11.3 9.2,-9.4 3.1,1.2 5.2,5.3 5.3,8.4 0.1,3.4 -2.3,6.8 -5.7,7.5 -4.5,1 -8.1,-4.2 -5.7,-8 0.7,-1.2 -1,-2.2 -1.7,-1.1 z"
           id="path35074" />
      </g>
    </g>
    <g
       id="g35084"
       transform="translate(-36,-18)">
      <g
         id="g35082">
        <path
           d="m 659.8,260.9 c -2.8,4 -0.4,9.5 4.3,10.4 5.6,1 10,-4 10,-9.3 0.1,-5.3 -3.7,-9.5 -9.2,-8.8 -5.8,0.8 -8.6,6.8 -8,12.1 0.1,1.3 2.1,1.3 2,0 -0.3,-3.3 0.4,-6.9 3.3,-8.9 3.5,-2.4 8.4,-1.2 9.6,3.1 1.1,3.8 -0.6,8.6 -4.6,9.7 -4.4,1.3 -8.6,-3.2 -5.8,-7.2 0.9,-1.1 -0.9,-2.1 -1.6,-1.1 z"
           id="path35080" />
      </g>
    </g>
    <g
       id="g35090"
       transform="translate(-36,-18)">
      <g
         id="g35088">
        <path
           d="m 687.8,259.4 c 0.6,-3.5 -0.2,-6.2 -2.7,-8.8 -0.4,-0.4 -1,-0.4 -1.4,0 -3.7,3.8 -5.8,8.8 -5.2,14.1 0.4,4.1 2.8,8.1 7.1,5 4,-2.8 4.6,-8.4 4.4,-12.9 -0.3,-7.1 -1.6,-14.2 -2.4,-21.2 -0.2,-1.2 -2,-1.3 -2,0 -0.4,12.4 1.4,23.9 5.2,35.7 0.4,1.2 2.3,0.7 1.9,-0.5 -3.8,-11.6 -5.5,-23 -5.2,-35.1 -0.7,0 -1.3,0 -2,0 0.9,7.4 2.5,15.1 2.5,22.6 0,2.4 -0.2,5 -1.4,7.2 -1.4,2.6 -4.9,3.4 -6.1,0.2 -0.9,-2.7 0,-6.7 1.2,-9.2 0.6,-1.2 1.3,-2.4 2.2,-3.4 1.9,1.5 2.5,3.4 1.8,5.8 0,1.2 1.9,1.8 2.1,0.5 z"
           id="path35086" />
      </g>
    </g>
    <g
       id="g35096"
       transform="translate(-36,-18)">
      <g
         id="g35094">
        <path
           d="m 509.8,383.3 c -3,9.1 0.9,21 11.3,22.8 4.4,0.7 9.4,-0.6 12.6,-3.8 4.2,-4.1 4.1,-10.1 2.7,-15.4 -0.9,-3.8 -2.3,-7.5 -3.1,-11.4 -0.7,-3 -1.2,-6.1 -3,-8.7 -2.3,-3.3 -6.6,-5.6 -10.4,-3.4 -4.6,2.6 -7,9.8 -7.9,14.6 -1.2,6.4 -0.3,12.6 2.2,18.5 0.5,1.2 2.2,0.2 1.7,-1 -3.8,-8.8 -3.3,-19.7 2.3,-27.7 5.7,-8 11.4,0.3 12.7,6 1,4 2,8 3.2,12 1.4,5.1 2.4,11.1 -1.8,15.1 -2.6,2.5 -6.5,3.7 -10,3.4 -9.8,-0.9 -13.3,-12.2 -10.6,-20.4 0.4,-1.3 -1.5,-1.8 -1.9,-0.6 z"
           id="path35092" />
      </g>
    </g>
    <g
       id="g35102"
       transform="translate(-36,-18)">
      <g
         id="g35100">
        <path
           d="m 541.8,384.4 c 0.9,9.3 3,18.2 6.3,26.9 0.5,1.2 2.2,0.7 1.9,-0.5 -0.8,-3.4 -1.6,-6.7 -2.4,-10.1 -0.8,-3.4 -2.6,-7.9 -2.3,-11.3 0.2,-2.8 2.6,-8.5 6.2,-4.7 1.1,1.1 1.4,3 1.4,4.5 0,3.7 -2.2,7.1 -5.7,8.3 -1.2,0.4 -0.7,2.4 0.5,1.9 3.9,-1.4 6.5,-4.7 7,-8.9 0.4,-3.1 -0.7,-8.1 -4.2,-9.3 -3.8,-1.3 -6.7,3.1 -7.2,6.2 -0.6,3.3 0.7,6.9 1.4,10.1 1.1,4.6 2.2,9.1 3.2,13.7 0.6,-0.2 1.3,-0.4 1.9,-0.5 -3.3,-8.5 -5.4,-17.3 -6.2,-26.3 0.1,-1.3 -1.9,-1.3 -1.8,0 z"
           id="path35098" />
      </g>
    </g>
    <g
       id="g35108"
       transform="translate(-36,-18)">
      <g
         id="g35106">
        <path
           d="m 556.5,357.7 c 0.5,5.6 1.1,11.1 1.6,16.7 0.4,3.6 0.5,7.5 2.1,10.9 2.4,5.1 8.4,8 13.2,4.3 1,-0.8 -0.4,-2.2 -1.4,-1.4 -1.6,1.3 -5.3,1.1 -7,0 -2,-1.3 -3,-3.5 -3.6,-5.6 -0.8,-2.6 -0.9,-5.4 -1.2,-8.1 -0.5,-5.6 -1.1,-11.1 -1.6,-16.7 -0.2,-1.3 -2.2,-1.3 -2.1,-0.1 z"
           id="path35104" />
      </g>
    </g>
    <g
       id="g35114"
       transform="translate(-36,-18)">
      <g
         id="g35112">
        <path
           d="m 555,380.8 c 3.8,-1.6 7.6,-3.3 11.4,-4.9 1.2,-0.5 0.2,-2.2 -1,-1.7 -3.8,1.6 -7.6,3.3 -11.4,4.9 -1.2,0.5 -0.1,2.2 1,1.7 z"
           id="path35110" />
      </g>
    </g>
    <g
       id="g35120"
       transform="translate(-36,-18)">
      <g
         id="g35118">
        <path
           d="m 571.4,372.7 c 1.5,5.3 3,10.5 4.5,15.8 0.4,1.2 2.3,0.7 1.9,-0.5 -1.5,-5.3 -3,-10.5 -4.5,-15.8 -0.3,-1.3 -2.2,-0.7 -1.9,0.5 z"
           id="path35116" />
      </g>
    </g>
    <g
       id="g35126"
       transform="translate(-36,-18)">
      <g
         id="g35124">
        <path
           d="m 568.6,362.7 c -0.3,0.3 -0.6,0.5 -0.9,0.8 -0.4,0.4 -0.4,1.1 0,1.4 0.4,0.4 1,0.4 1.4,0 0.3,-0.3 0.6,-0.5 0.9,-0.8 0.4,-0.4 0.4,-1.1 0,-1.4 -0.4,-0.4 -1,-0.3 -1.4,0 z"
           id="path35122" />
      </g>
    </g>
    <g
       id="g35132"
       transform="translate(-36,-18)">
      <g
         id="g35130">
        <path
           d="m 580,369.6 c 2.1,6.2 3.7,12.5 4.9,19 0.6,-0.2 1.3,-0.4 1.9,-0.5 -0.8,-2.8 -1.4,-5.5 -1.3,-8.5 0,-1.5 0.1,-2.9 0.4,-4.3 3.6,-1.5 5.7,-1 6.2,1.5 1.5,2.8 1.1,6.3 2.8,9.1 0.6,1 2.1,0.3 1.8,-0.8 -0.7,-2.8 -1.2,-5.6 -1.2,-8.5 0,-1.7 0.1,-3.4 0.4,-5 1.5,-2.6 3.1,-3.1 4.8,-1.3 4.6,1.8 7.1,7.9 8,12.3 0.3,1.3 2.2,0.7 1.9,-0.5 -1.1,-5.4 -5.9,-15.4 -12.7,-14.9 -7.1,0.5 -4.2,14.4 -3.1,18.5 0.6,-0.3 1.2,-0.5 1.8,-0.8 -2.3,-3.9 -1.9,-14.7 -9.2,-13.7 -6.7,0.9 -3.7,13.6 -2.6,17.4 0.4,1.3 2.2,0.7 1.9,-0.5 -1.1,-6.5 -2.8,-12.8 -4.9,-19 -0.3,-1.3 -2.2,-0.8 -1.8,0.5 z"
           id="path35128" />
      </g>
    </g>
    <g
       id="g35138"
       transform="translate(-36,-18)">
      <g
         id="g35136">
        <path
           d="m 613.2,365.8 c 1,4.9 2.1,9.9 3.1,14.8 0.3,1.3 2.2,0.7 1.9,-0.5 -1,-4.9 -2.1,-9.9 -3.1,-14.8 -0.2,-1.3 -2.2,-0.7 -1.9,0.5 z"
           id="path35134" />
      </g>
    </g>
    <g
       id="g35144"
       transform="translate(-36,-18)">
      <g
         id="g35142">
        <path
           d="m 611.7,357 c -0.3,-0.3 -0.5,-0.6 -0.8,-0.9 -0.4,-0.4 -1.1,-0.4 -1.4,0 -0.4,0.4 -0.4,1 0,1.4 0.3,0.3 0.5,0.6 0.8,0.9 0.4,0.4 1.1,0.4 1.4,0 0.5,-0.4 0.4,-1 0,-1.4 z"
           id="path35140" />
      </g>
    </g>
    <g
       id="g35150"
       transform="translate(-36,-18)">
      <g
         id="g35148">
        <path
           d="m 621.8,364.5 c 1.7,-0.9 3.5,-1.8 5.2,-2.7 1,-0.5 3.6,-1.5 4.3,0.1 0.3,0.5 -1,3 -1.2,3.5 -1.6,4.5 -3.1,9 -4.7,13.5 -0.3,0.8 0.5,1.3 1.2,1.2 5.4,-0.9 10.2,-3 14.3,-6.6 1,-0.8 -0.4,-2.3 -1.4,-1.4 -3.8,3.4 -8.4,5.3 -13.4,6.1 0.4,0.4 0.8,0.8 1.2,1.2 1.4,-4 2.8,-8 4.2,-12 0.7,-2 3.1,-5.9 1.6,-8 -2.5,-3.6 -10.1,2.2 -12.4,3.4 -1.1,0.5 -0.1,2.3 1.1,1.7 z"
           id="path35146" />
      </g>
    </g>
    <g
       id="g35156"
       transform="translate(-36,-18)">
      <g
         id="g35154">
        <path
           d="m 624.5,373.1 c 4.1,-2.3 8.1,-4.6 12.2,-6.9 1.1,-0.6 0.1,-2.4 -1,-1.7 -4.1,2.3 -8.1,4.6 -12.2,6.9 -1.1,0.6 -0.1,2.3 1,1.7 z"
           id="path35152" />
      </g>
    </g>
    <g
       id="g35162"
       transform="translate(-36,-18)">
      <g
         id="g35160">
        <path
           d="m 658.1,358.6 c 0.5,-5 -5.7,-7.2 -9.4,-4.8 -4.5,2.9 -6.5,11 -4.7,15.8 1.8,5 7.4,5.4 11.2,2.3 5,-4 5,-11.5 1.6,-16.5 -0.5,-0.8 -1.8,-0.5 -1.9,0.5 -0.2,5.6 2.3,10.5 7,13.6 1.1,0.7 2.1,-1 1,-1.7 -4,-2.7 -6.1,-7 -6,-11.9 -0.6,0.2 -1.2,0.3 -1.9,0.5 2,3 2.7,6.6 1.5,10.1 -1.3,3.8 -7.6,8.6 -10.4,3.2 -1.5,-2.9 -0.6,-7 0.5,-9.9 0.8,-2 2.2,-4.5 4.5,-5 2.4,-0.6 5.2,1.1 5,3.8 -0.1,1.3 1.9,1.3 2,0 z"
           id="path35158" />
      </g>
    </g>
    <g
       id="g35168"
       transform="translate(-36,-18)">
      <g
         id="g35166">
        <path
           d="m 664.7,330.8 c 1,8.3 3,16.3 6.4,23.9 1,2.3 1.8,5.7 4.5,6.6 2,0.7 3.9,-0.3 5.3,-1.7 0.9,-0.9 -0.5,-2.3 -1.4,-1.4 -4.6,4.7 -9,-10.4 -9.7,-12.8 -1.5,-4.8 -2.5,-9.7 -3.1,-14.7 -0.2,-1.2 -2.2,-1.2 -2,0.1 z"
           id="path35164" />
      </g>
    </g>
    <g
       id="g35174"
       transform="translate(-36,-18)">
      <g
         id="g35172">
        <path
           d="m 661.7,355.1 c 5.3,-2.7 10.6,-5.3 15.9,-8 1.2,-0.6 0.1,-2.3 -1,-1.7 -5.3,2.7 -10.6,5.3 -15.9,8 -1.2,0.6 -0.2,2.3 1,1.7 z"
           id="path35170" />
      </g>
    </g>
    <g
       id="g35180"
       transform="translate(-36,-18)">
      <g
         id="g35178">
        <path
           d="m 683,344.7 c 1.8,3.5 3.6,7 5.3,10.4 0.6,1.1 2.3,0.1 1.7,-1 -1.8,-3.5 -3.6,-7 -5.3,-10.4 -0.6,-1.2 -2.3,-0.2 -1.7,1 z"
           id="path35176" />
      </g>
    </g>
    <g
       id="g35186"
       transform="translate(-36,-18)">
      <g
         id="g35184">
        <path
           d="m 679.4,338.8 c 1.3,0 1.3,-2 0,-2 -1.3,0 -1.3,2 0,2 z"
           id="path35182" />
      </g>
    </g>
    <g
       id="g35192"
       transform="translate(-36,-18)">
      <g
         id="g35190">
        <path
           d="m 693.1,344.4 c 1.5,5.1 5.7,12.2 12.2,9.8 4.6,-1.7 6.1,-7.3 4.8,-11.6 -1.3,-4.5 -5.4,-7.8 -10.1,-7.2 -5.3,0.6 -9.4,5.2 -9.5,10.5 0,1.3 2,1.3 2,0 0.1,-8.4 11.9,-11.9 15.3,-3.6 1.3,3.1 1,7.3 -1.9,9.4 -5.6,3.9 -9.6,-3.1 -10.9,-7.6 -0.3,-1.5 -2.2,-1 -1.9,0.3 z"
           id="path35188" />
      </g>
    </g>
    <g
       id="g35198"
       transform="translate(-36,-18)">
      <g
         id="g35196">
        <path
           d="m 711.4,334.9 c 1.1,4.3 2.8,8.4 5,12.2 0.5,0.9 1.9,0.5 1.9,-0.5 0,-3.8 -5.6,-18.2 2.5,-16.9 3.3,0.5 4.3,4.3 5.5,6.9 1,2 2.1,3.5 4,4.7 1.1,0.7 2.1,-1 1,-1.7 -4.2,-2.7 -5.8,-15.2 -13.3,-11.7 -7.3,3.4 -1.7,13.6 -1.7,18.8 0.6,-0.2 1.2,-0.3 1.9,-0.5 -2.1,-3.7 -3.7,-7.6 -4.8,-11.7 -0.3,-1.4 -2.3,-0.8 -2,0.4 z"
           id="path35194" />
      </g>
    </g>
    <g
       id="g35204"
       transform="translate(-36,-18)">
      <g
         id="g35202">
        <path
           d="m 739.3,336.2 c 1.6,-5.5 -0.2,-10.2 -4.3,-14.1 -0.3,-0.3 -0.9,-0.4 -1.2,-0.2 -1.4,1.1 -2.8,2.1 -4.2,3.2 0.5,0.2 1,0.4 1.5,0.6 -0.9,-4.2 -4.6,-6.7 -8.6,-7.8 -2.1,-0.6 -4.4,-0.6 -6.5,-0.4 -3.3,0.4 -5.2,2.2 -8.1,3.2 -2.3,0.8 -5.1,-0.2 -7.5,-0.4 -4.3,-0.4 -8.6,-0.5 -12.9,-0.4 -5.6,0.1 -12.2,-0.4 -17.4,2.1 -2.6,1.2 -2.7,1.5 -5.6,0.8 -2.4,-0.5 -4.8,-0.7 -7.2,-0.5 -4.7,0.3 -9.5,1.6 -13.5,4.1 -3,1.9 -5.9,4.6 -6.7,8.2 -0.2,0.7 0,1.6 -0.2,2.2 -1,2.9 -3.2,3.6 -5.9,4.1 -4.1,0.7 -8.2,1.4 -12.3,2.1 -5.2,0.9 -11.7,3.5 -15.7,-1 -1.4,-1.6 -2.2,-3.3 -4.2,-4.2 -4.9,-2.2 -10.2,1.3 -13.7,4.6 0.5,0.1 1,0.1 1.6,0.2 -3.3,-5 -10.4,-6.3 -15.8,-4.2 -3,1.2 -3.9,2.9 -5.8,5.2 -2.5,2.9 -11,3 -14.7,3.7 -9.8,1.8 -20.2,2.7 -29.7,5.6 -1.2,0.4 -2.3,0.9 -3.4,1.6 -1.4,0.9 -2.6,2.6 -4.2,3 -1.4,0.4 -3.2,0 -4.5,-0.2 -3.3,-0.6 -6.3,-1.6 -9.6,-0.7 -0.6,0.2 -0.9,0.9 -0.6,1.5 1.7,3.3 2.3,6.2 1.6,9.9 -0.1,0.6 0.2,1 0.7,1.2 11.5,4.6 -2.1,15.3 -6.6,19 -4.1,3.4 -8.5,7.4 -7.4,13.1 0.1,0.4 0.5,0.7 1,0.7 2.1,0.1 6,-0.3 7.6,0.9 1.7,1.3 2.3,5.2 3,7.2 0.2,0.6 0.9,1 1.5,0.6 3.9,-2.6 11.8,4.1 15.9,5.2 4.9,1.4 10.1,2.4 15.2,2.8 4.5,0.4 9.3,0.3 13.6,-1.4 1.7,-0.6 3.2,-1.5 4.6,-2.6 3.5,-2.5 5.4,-3.9 9.9,-4.3 4.2,-0.4 7.2,-2 10.5,-4.6 4.3,-3.4 8.6,-6.1 13.9,-7.8 10.7,-3.5 22.5,-3.7 33.3,-0.3 0.6,0.2 1.3,-0.3 1.3,-1 0,-2.4 2,-5.3 4.6,-4.9 1.3,0.2 3.1,2 4.3,2.6 2.1,1.1 4.4,2 6.8,2.3 6.1,0.8 8.7,-2.2 12.2,-6.5 8.5,-10.6 26.9,-9.3 39.1,-10.5 9.3,-0.9 22.6,-2.3 28.4,-10.9 1.9,-2.8 2.4,-5.8 5.5,-7.7 2.6,-1.6 6,-1.9 9,-2.3 5,-0.7 10.5,-0.9 15.1,-3.4 11,-6.1 2.7,-18 -4.7,-23 -1.1,-0.7 -2.1,1 -1,1.7 6,4.1 14.3,14.3 4.7,19.6 -5.1,2.8 -11.5,2.6 -17.1,3.6 -5,0.9 -8.9,2.4 -11.3,7 -3.6,6.6 -8.2,9.4 -15.5,11.3 -13.2,3.5 -27.2,2 -40.4,5.7 -4.9,1.4 -9.8,3.5 -13.1,7.5 -0.6,0.8 -1.1,1.7 -1.8,2.5 -2.8,3.3 -6,4.2 -10.1,3.2 -3.7,-0.9 -7,-2.9 -10,-5.2 -0.3,-0.2 -0.7,-0.1 -1,0 -3.1,1.6 -5.4,3.8 -5.5,7.5 0.4,-0.3 0.8,-0.6 1.3,-1 -9.7,-3 -20.2,-3.2 -30.1,-0.9 -4.7,1.1 -9.2,2.8 -13.3,5.3 -1.8,1.1 -3.4,2.4 -5.1,3.8 -3.8,3 -6.8,4 -11.6,4.6 -5,0.6 -7.3,3.9 -11.5,6.1 -5.9,3.2 -13.6,2.4 -20,1.3 -6,-1 -11.6,-2.4 -16.9,-5.4 -3.1,-1.8 -6.6,-3.8 -9.9,-1.6 0.5,0.2 1,0.4 1.5,0.6 -1,-2.8 -2,-5.6 -2.9,-8.4 -0.2,-0.4 -0.5,-0.7 -1,-0.7 -3.2,-0.2 -8.4,0.9 -7.3,-3.6 0.6,-2.7 3.9,-5.1 5.9,-6.8 3.4,-2.8 7.2,-5.2 9.7,-8.9 3.6,-5.5 3,-11.4 -3.4,-13.9 0.2,0.4 0.5,0.8 0.7,1.2 0.7,-4.2 0.1,-7.7 -1.8,-11.5 -0.2,0.5 -0.4,1 -0.6,1.5 4.6,-1.2 8.9,1.8 13.5,1 1.7,-0.3 2.6,-1.1 4,-2.1 3.3,-2.4 5.6,-3 9.4,-3.7 13.2,-2.4 26.3,-4.8 39.5,-7.3 0.3,-0.1 0.6,-0.4 0.7,-0.7 1.3,-8 14.5,-8 18.4,-2.1 0.4,0.5 1.1,0.7 1.6,0.2 2.1,-2 4.9,-4.3 7.9,-4.5 3.6,-0.2 5.2,1.6 7.2,4.1 1.4,1.7 2.6,2.9 4.8,3.2 4,0.7 8.9,-1.1 12.8,-1.8 5.2,-0.9 11,-1.2 16,-2.9 1.9,-0.6 3.1,-1.6 3.6,-3.6 0.5,-1.8 0.1,-3.5 1,-5.3 0.8,-1.7 2.3,-3.1 3.8,-4.2 6.7,-4.9 16.3,-6.1 24,-3.1 0.3,0.1 0.7,0 1,-0.3 3.8,-3.8 10.4,-3.5 15.4,-3.6 6.1,-0.2 12.2,-0.3 18.2,0.5 1.5,0.2 4.2,1.2 5.7,0.9 1.5,-0.3 3,-2.3 4.6,-2.9 5.5,-2.2 15.3,-1.4 16.8,5.7 0.1,0.6 1,1 1.5,0.6 2.6,-2 3.8,-3.6 5.9,0.1 1.7,2.8 1.8,5.7 0.9,8.8 -1.1,1.5 0.9,2 1.2,0.7 z"
           id="path35200" />
      </g>
    </g>
    <g
       id="g35210"
       transform="translate(-36,-18)">
      <g
         id="g35208">
        <path
           d="m 716.9,253.9 c -1,-3.6 -2,-7.2 -2.9,-10.8 -0.2,-0.7 -0.9,-0.8 -1.5,-0.6 -2.6,1.1 -3.3,1.5 -5.8,0.1 -1.7,-1 -3.2,-2.4 -4.9,-3.4 -3.2,-2 -6.7,-3.7 -10.3,-4.8 -3.2,-1 -6.5,-1.5 -9.8,-1.6 -2.2,-0.1 -4.4,0 -6.6,0.4 -1.5,0.2 -3.4,1.1 -4.9,0.8 -1.7,-0.3 -3.3,-1.4 -5.2,-1.7 -2.5,-0.3 -5.1,-0.2 -7.6,0.1 -5.9,0.6 -11.7,2 -17.6,2.4 -2.9,0.2 -6.3,0.3 -9,-1 -2.5,-1.2 -3.6,-3.8 -5.8,-5.2 -5,-3.1 -12.4,-1.2 -17.6,0.2 -9.3,2.5 -18.5,5.4 -27.7,8 -5,1.5 -10,2.9 -15,4.4 -2.3,0.7 -5.9,0.9 -7.1,3.4 -0.2,0.4 -0.2,0.9 0.2,1.2 1,0.9 2.3,0.9 3.4,0.2 0.4,-0.3 0.7,-0.9 0.4,-1.4 -0.1,-0.1 -0.1,-0.2 -0.2,-0.3 -0.3,-0.4 -0.7,-0.5 -1.1,-0.5 -6.9,1.1 -12.9,0.1 -19.5,-1.8 -3.9,-1.2 -7.4,-0.9 -11.1,1 -4.9,2.4 -9.5,5.7 -14.1,8.6 -5.6,3.5 -11.8,6.6 -17.1,10.6 -6.7,5.2 -0.5,10 3.6,14.4 6,6.4 4.9,16.2 10.9,22.5 5.4,5.7 14.3,6.7 21.8,6.3 4.2,-0.3 8.4,-1 12.4,-2.4 5.7,-2 10.2,-5.1 16.6,-4.1 5.6,0.9 10.8,3.6 16.5,4.3 4,0.5 8.2,0.1 12.1,-1 3.5,-1 7,-2.5 9.9,-4.7 1,-0.8 2,-1.7 2.8,-2.7 0.9,-1.2 1.1,-3.2 1.9,-4.1 1,-1.2 4.3,-0.7 6.3,-0.8 3.1,-0.2 6.1,-0.5 9.2,-0.9 6.3,-0.8 12.4,-2.1 18.5,-3.9 3.3,-1 17,-6.7 9.3,-11.1 -0.2,0.6 -0.3,1.2 -0.5,1.9 11.7,-1.2 22.9,2.2 34.4,3.7 7.2,0.9 19.3,2 24.7,-4.4 1.3,-1.5 1.7,-3 0.7,-4.7 -0.2,-0.3 -1.8,-2 -1.6,-1.5 -0.6,-2.3 1.8,-4.8 3.5,-5.6 2,-0.9 4.1,-1.6 6,-2.8 4.7,-3 3.6,-8.3 -2.3,-8.2 -1.3,0 -1.3,2 0,2 2.3,2.7 2.3,4.4 0,5.1 -0.9,0.4 -1.8,0.8 -2.7,1.2 -1.4,0.6 -2.9,1.2 -4.2,2 -1.6,1 -3.6,2.6 -3.6,4.7 0,1.6 1.1,1.9 1.8,3 2.1,2 1.9,3.6 -0.6,4.7 -1.1,0.7 -2.3,1.3 -3.5,1.7 -1.9,0.7 -3.9,1 -5.9,1.2 -15.8,1.5 -30.9,-5.7 -46.7,-4 -0.9,0.1 -1.4,1.3 -0.5,1.9 4.5,2.6 -7.4,7 -8,7.1 -3.7,1.2 -7.4,2 -11.2,2.8 -7.9,1.6 -16,2.3 -24,2.4 -0.5,0 -1,0.5 -1,1 0,8.7 -13.5,12.1 -20.2,12.4 -9,0.3 -17,-5.4 -25.9,-4.8 -6.7,0.5 -12.6,5 -19.4,6.2 -8.1,1.4 -19.1,1.3 -25.2,-5.2 -5,-5.3 -4.4,-13.3 -8.2,-19.2 -1.6,-2.4 -3.8,-4.2 -5.7,-6.2 -0.9,-0.9 -1.7,-1.8 -2.4,-2.8 -0.2,-3.4 1,-5.8 3.7,-7 1.9,-1.6 4.5,-2.8 6.6,-4.1 4.4,-2.7 8.8,-5.4 13.2,-8.1 4.3,-2.7 9.5,-7.1 14.8,-7.1 3.9,0 7.8,2.2 11.7,2.8 1.1,0.2 12,-0.1 11.9,-0.4 0.1,-0.5 0.2,-0.9 0.4,-1.4 1.4,-0.9 5.1,-1.1 6.9,-1.6 1.9,-0.5 3.8,-1.1 5.6,-1.6 4.4,-1.3 8.8,-2.5 13.1,-3.8 7.8,-2.3 15.6,-4.8 23.5,-6.8 3.7,-0.9 7.6,-1.8 11.4,-1.1 3.8,0.7 4.8,3.4 7.6,5.4 3.1,2.2 7.3,2.4 10.9,2.2 10.2,-0.5 19.9,-4.3 29.9,-1.1 2.5,0.8 4.6,-0.4 7.5,-0.8 3.7,-0.4 7.5,-0.1 11.2,0.6 7.7,1.6 14,5.9 20.2,10.6 0.3,0.2 0.7,0.1 1,0 1.5,-0.6 3,-1.3 4.4,-1.9 -0.5,-0.2 -1,-0.4 -1.5,-0.6 1,3.6 2,7.2 2.9,10.8 0.3,1 2.2,0.5 1.9,-0.7 z"
           id="path35206" />
      </g>
    </g>
    <g
       id="g35216"
       transform="translate(-36,-18)">
      <g
         id="g35214">
        <path
           d="m 500.7,291.6 c -5.2,3.4 -8.1,8.5 -10.8,14 -3.3,6.7 -6.5,13.5 -8.5,20.6 -3.6,12.6 -3.2,26.4 5.1,37.1 0.3,-0.6 0.6,-1.1 1,-1.7 -6.1,-2.1 -11.7,-5 -17,-8.6 -0.9,-0.6 -2.1,0.9 -1.2,1.6 7,5.6 13.6,11.7 19.8,18.1 0.7,0.7 2,0 1.7,-1 -3.5,-10 -3.6,-20.4 -0.2,-30.5 0.4,-1.2 -1.5,-1.7 -1.9,-0.5 -3.5,10.4 -3.5,21.2 0.2,31.6 0.6,-0.3 1.1,-0.6 1.7,-1 -6.2,-6.4 -12.8,-12.5 -19.8,-18.1 -0.4,0.5 -0.8,1 -1.2,1.6 5.4,3.7 11.2,6.6 17.4,8.8 1.1,0.4 1.5,-1 1,-1.7 -8.2,-10.6 -7.9,-24.6 -4.1,-36.9 1.9,-6.1 4.6,-11.9 7.4,-17.7 2.6,-5.3 5.4,-10.7 10.5,-14.1 1,-0.5 0,-2.3 -1.1,-1.6 z"
           id="path35212" />
      </g>
    </g>
  </g>
  <metadata
     id="metadata382306">
    <rdf:RDF>
      <cc:Work
         rdf:about="">
        <dc:title>full_new_2</dc:title>
      </cc:Work>
    </rdf:RDF>
  </metadata>
</svg>
