<?xml version="1.0" encoding="UTF-8" standalone="no"?>
<svg
   viewBox="0 0 1175.48 577.35"
   version="1.1"
   id="svg364837"
   sodipodi:docname="dem_inf_tool_2.svg"
   inkscape:version="1.2.2 (1:1.2.2+202212051552+b0a8486541)"
   xmlns:inkscape="http://www.inkscape.org/namespaces/inkscape"
   xmlns:sodipodi="http://sodipodi.sourceforge.net/DTD/sodipodi-0.dtd"
   xmlns="http://www.w3.org/2000/svg"
   xmlns:svg="http://www.w3.org/2000/svg"
   xmlns:rdf="http://www.w3.org/1999/02/22-rdf-syntax-ns#"
   xmlns:cc="http://creativecommons.org/ns#"
   xmlns:dc="http://purl.org/dc/elements/1.1/">
  <sodipodi:namedview
     id="namedview364839"
     pagecolor="#ffffff"
     bordercolor="#000000"
     borderopacity="0.25"
     inkscape:showpageshadow="2"
     inkscape:pageopacity="0.0"
     inkscape:pagecheckerboard="0"
     inkscape:deskcolor="#d1d1d1"
     showgrid="false"
     inkscape:zoom="0.37918934"
     inkscape:cx="607.87573"
     inkscape:cy="311.19018"
     inkscape:window-width="1223"
     inkscape:window-height="779"
     inkscape:window-x="57"
     inkscape:window-y="21"
     inkscape:window-maximized="1"
     inkscape:current-layer="Layer_1" />
  <defs
     id="defs363475">
    <style
       id="style363461">.cls-1,.cls-11,.cls-17,.cls-18,.cls-20,.cls-22,.cls-24,.cls-26,.cls-27,.cls-33,.cls-4{fill:none;}.cls-2{fill:#d8d8d8;}.cls-11,.cls-3,.cls-33,.cls-4{stroke:#000;}.cls-14,.cls-15,.cls-16,.cls-17,.cls-18,.cls-26,.cls-27,.cls-29,.cls-3,.cls-30,.cls-33{stroke-linejoin:round;}.cls-3,.cls-4{stroke-width:0.8px;}.cls-17,.cls-18,.cls-4{stroke-linecap:square;}.cls-5{opacity:0.82;}.cls-6{fill:#c1272d;}.cls-7{fill:#fcee21;}.cls-8{fill:blue;}.cls-9{fill:#8cc63f;}.cls-10,.cls-29,.cls-30{fill:#fff;}.cls-11{stroke-miterlimit:10;}.cls-12{fill:#b3b3b3;}.cls-13{clip-path:url(#clip-path);}.cls-14,.cls-25{fill:#2ca02c;}.cls-14,.cls-15,.cls-16{fill-opacity:0.2;stroke-width:2px;stroke-dasharray:2 2;}.cls-14,.cls-18,.cls-24{stroke:#2ca02c;}.cls-15,.cls-23,.cls-32{fill:#ff7f0e;}.cls-15{stroke:#ff800f;}.cls-16{fill:#1e75b3;stroke:#1e75b3;}.cls-17,.cls-22,.cls-32{stroke:#ff7f0e;}.cls-17,.cls-18,.cls-32{stroke-opacity:0.5;}.cls-17,.cls-18{stroke-width:0.2px;}.cls-19{clip-path:url(#clip-path-24);}.cls-20,.cls-27,.cls-30{stroke:#1f77b4;}.cls-21{fill:#1f77b4;}.cls-21,.cls-23,.cls-25,.cls-32{fill-opacity:0.5;}.cls-26,.cls-29{stroke:#fff;stroke-width:3px;}.cls-26,.cls-27,.cls-29,.cls-30{stroke-linecap:round;}.cls-28{clip-path:url(#clip-path-42);}.cls-31{clip-path:url(#clip-path-46);}</style>
    <clipPath
       id="clip-path"
       transform="translate(-19.92 -9.25)">
      <rect
         class="cls-1"
         x="70.17"
         y="382.26"
         width="154.4"
         height="203.34"
         id="rect363463" />
    </clipPath>
    <clipPath
       id="clip-path-24"
       transform="translate(-19.92 -9.25)">
      <rect
         class="cls-1"
         x="1010.21"
         y="202.75"
         width="158.77"
         height="237.35"
         id="rect363466" />
    </clipPath>
    <clipPath
       id="clip-path-42"
       transform="translate(-19.92 -9.25)">
      <rect
         class="cls-1"
         x="1005.58"
         y="202.75"
         width="158.77"
         height="237.35"
         id="rect363469" />
    </clipPath>
    <clipPath
       id="clip-path-46"
       transform="translate(-19.92 -9.25)">
      <rect
         class="cls-1"
         x="1014.84"
         y="202.75"
         width="158.77"
         height="237.35"
         id="rect363472" />
    </clipPath>
  </defs>
  <title
     id="title363477">full_new</title>
  <g
     id="Layer_1"
     data-name="Layer 1">
    <path
       class="cls-6"
       d="M123.81,157.84a78.74,78.74,0,0,1,.82,10.37,1.12,1.12,0,0,0,2.24,0,90.11,90.11,0,0,0-.89-11c-.23-1.42-2.39-.82-2.17.6Z"
       transform="translate(-19.92 -9.25)"
       id="path363770" />
    <path
       class="cls-6"
       d="M128.74,156c.9,5.15,1.87,10.37,2.76,15.52.22,1.42,2.39.82,2.17-.59-.9-5.15-1.87-10.38-2.77-15.53-.29-1.42-2.46-.82-2.16.6Z"
       transform="translate(-19.92 -9.25)"
       id="path363772" />
    <path
       class="cls-6"
       d="M169.49,159.18c.07,4.25.22,8.51.52,12.76.08,1.42,2.31,1.42,2.24,0-.3-4.25-.52-8.51-.52-12.76a1.12,1.12,0,0,0-2.24,0Z"
       transform="translate(-19.92 -9.25)"
       id="path363774" />
    <path
       class="cls-6"
       d="M185.68,159.4c.53,4.56.9,9.18,1.79,13.73.3,1.42,2.47.83,2.17-.59-.82-4.33-1.2-8.73-1.72-13.14-.15-1.42-2.39-1.42-2.24,0Z"
       transform="translate(-19.92 -9.25)"
       id="path363776" />
    <path
       class="cls-6"
       d="M230.09,153.36a43.47,43.47,0,0,0,1.34,10.74,1.12,1.12,0,0,0,2.17-.59,42.06,42.06,0,0,1-1.27-10.15c-.08-1.49-2.32-1.49-2.24,0Z"
       transform="translate(-19.92 -9.25)"
       id="path363778" />
    <path
       class="cls-7"
       d="M139.41,155c.9,5.82,1.72,11.72,2.32,17.61.14,1.42,2.38,1.42,2.23,0-.67-6.12-1.41-12.16-2.38-18.21-.3-1.42-2.39-.82-2.17.6Z"
       transform="translate(-19.92 -9.25)"
       id="path363780" />
    <path
       class="cls-7"
       d="M177.47,158.66c.38,3.21.82,6.41,1.2,9.62.22,2.09,0,5.15,1.12,6.94a1.12,1.12,0,0,0,1.79.23c0-.08.07-.08.07-.15a1.07,1.07,0,0,0,0-1.57l-.07-.07c-1.12-1-2.69.67-1.57,1.56l.08.08v-1.57c0,.08-.08.08-.08.15l1.79.23c-1-1.72-.82-5.75-1-7.62-.3-2.61-.67-5.22-1-7.83-.3-1.42-2.54-1.42-2.32,0Z"
       transform="translate(-19.92 -9.25)"
       id="path363782" />
    <path
       class="cls-7"
       d="M207.4,157.31a82.53,82.53,0,0,0,.3,9.56c.15,1.41,2.39,1.41,2.24,0a80.36,80.36,0,0,1-.3-9.56c.07-1.49-2.16-1.49-2.24,0Z"
       transform="translate(-19.92 -9.25)"
       id="path363784" />
    <path
       class="cls-8"
       d="M133.67,155.52c1.79,5.9,3.35,11.87,4.55,17.84.3,1.42,2.46.82,2.16-.6a178.54,178.54,0,0,0-4.55-17.84c-.45-1.34-2.61-.74-2.16.6Z"
       transform="translate(-19.92 -9.25)"
       id="path363786" />
    <path
       class="cls-8"
       d="M163.59,161c.75,3.06,1.35,6.2,1.94,9.33.23,1.42,2.39.82,2.17-.59-.53-3.14-1.2-6.27-1.94-9.33a1.12,1.12,0,0,0-2.17.59Z"
       transform="translate(-19.92 -9.25)"
       id="path363788" />
    <path
       class="cls-8"
       d="M217.4,152.46c.6,5.38,1.27,10.67,1.87,16,.15,1.42,2.38,1.42,2.24,0-.6-5.38-1.27-10.67-1.87-16-.15-1.42-2.39-1.49-2.24,0Z"
       transform="translate(-19.92 -9.25)"
       id="path363790" />
    <path
       class="cls-8"
       d="M235.39,154.48c.3,2.16.59,4.25,1,6.34.3,1.42,2.46.82,2.17-.6-.38-1.94-.75-3.8-1-5.74-.15-1.42-2.39-1.42-2.24,0Z"
       transform="translate(-19.92 -9.25)"
       id="path363792" />
    <path
       class="cls-9"
       d="M145.23,160.6c.75,3.06,1.42,6,2.17,9.1.3,1.42,2.46.82,2.16-.6-.74-3.06-1.42-6-2.16-9.1a1.13,1.13,0,0,0-2.17.6Z"
       transform="translate(-19.92 -9.25)"
       id="path363794" />
    <path
       class="cls-9"
       d="M149.86,163.43c.45,1,.82,1.94,1.27,2.91.37.82.6,1.79,1.42,2.24a1,1,0,0,0,1.12,0,1.2,1.2,0,0,0,.67-.89,1.23,1.23,0,0,0-.52-1.27l-.08-.08c-1.19-.74-2.31,1.2-1.12,1.94l.08.08c-.15-.45-.38-.82-.53-1.27v.15c.15-.22.38-.45.53-.67-.08,0-.08.07-.15.07h1.12c.15.15.15.08-.08-.3-.07-.22-.22-.44-.3-.67s-.3-.67-.44-1c-.38-.82-.68-1.57-1-2.39-.6-1.27-2.54-.08-1.94,1.19Z"
       transform="translate(-19.92 -9.25)"
       id="path363796" />
    <path
       class="cls-9"
       d="M173.14,159.4c1.2,4.78.3,9.7,1.57,14.48a1.13,1.13,0,0,0,2.17-.6c-1.35-4.7-.38-9.7-1.57-14.47-.3-1.35-2.46-.75-2.17.59Z"
       transform="translate(-19.92 -9.25)"
       id="path363798" />
    <path
       class="cls-9"
       d="M191.21,161c.52,2.77,1,5.6,1.56,8.36.23,1.42,2.39.82,2.17-.59-.53-2.77-1.05-5.6-1.57-8.36-.3-1.42-2.46-.82-2.16.59Z"
       transform="translate(-19.92 -9.25)"
       id="path363800" />
    <path
       class="cls-9"
       d="M212.48,154.33c.22,4.4-.3,9.7,1.19,13.95.45,1.35,2.61.75,2.16-.59-1.41-4-.89-9.11-1.12-13.36-.07-1.49-2.31-1.49-2.23,0Z"
       transform="translate(-19.92 -9.25)"
       id="path363802" />
    <path
       class="cls-9"
       d="M223.52,152.61a100.34,100.34,0,0,0,2.31,14A1.13,1.13,0,0,0,228,166a100.35,100.35,0,0,1-2.24-13.43c-.15-1.42-2.39-1.42-2.24,0Z"
       transform="translate(-19.92 -9.25)"
       id="path363804" />
    <path
       d="M115,169.55c2.68-4.1,5.45-8.28,9.4-11.27,5.6-4.25,12-3.73,18.21-.74,9.48,4.62,16.87,12.76,26.57,16.94,7.54,3.21,17,4.25,24-.9,3.21-2.39,5.37-5.74,7.61-9,3.43-5.07,7.16-8.65,13.13-10.52,12.17-3.73,25.9-.67,35.68,7.31,1.12.9,2.68-.67,1.56-1.56A41.88,41.88,0,0,0,223,150.3,34.8,34.8,0,0,0,208.3,154c-4.33,2.32-7.09,6.05-9.78,9.93-3.36,5-6.94,9.48-13.14,10.67-6,1.2-12.31-.52-17.61-3.21-10.22-5.3-18.43-15.15-29.85-18-11.64-2.91-19.18,6.34-24.85,15a1.14,1.14,0,0,0,1.94,1.19Z"
       transform="translate(-19.92 -9.25)"
       id="path363806" />
    <path
       d="M113.14,153.43c4.4,9.11,9.7,19.26,20.23,22.09,10.82,2.91,17.09-5.82,25.15-11.12a38.91,38.91,0,0,1,31.94-4.55c5.67,1.72,10.22,5.22,15.3,8a25,25,0,0,0,15.15,2.91c12.39-1.72,21.27-11.2,29.25-19.93,1-1-.59-2.69-1.56-1.57-9.18,10.15-21.94,23.44-37.24,18.66-6.35-2-11.42-6.87-17.62-9.25a40.21,40.21,0,0,0-16.27-2.54,41.24,41.24,0,0,0-15.22,3.66c-5.67,2.61-9.78,6.86-14.7,10.44-6.72,4.86-14.41,4.48-20.9-.74-5.45-4.41-8.58-11-11.57-17.24-.59-1.2-2.54-.08-1.94,1.19Z"
       transform="translate(-19.92 -9.25)"
       id="path363808" />
    <path
       class="cls-8"
       d="M133.19,80.68c-.23,2.32.37,4.48.74,6.72a80.91,80.91,0,0,1,.82,8.58c.08,1.42,2.32,1.42,2.24,0-.07-2.31-.22-4.63-.52-6.94-.37-2.76-1.27-5.52-1-8.28.07-1.5-2.16-1.5-2.31-.08Z"
       transform="translate(-19.92 -9.25)"
       id="path363810" />
    <path
       class="cls-8"
       d="M167.82,80.91c-.6,4.47.74,9.7,1.26,14.18.15,1.41,2.39,1.41,2.24,0-.22-2.24-.52-4.56-.74-6.8s-.9-4.62-.6-6.79c.22-1.42-1.94-2-2.16-.59Z"
       transform="translate(-19.92 -9.25)"
       id="path363812" />
    <path
       class="cls-8"
       d="M171.62,80c1,5.07,1.87,10.22,2.54,15.37.15,1.42,2.39,1.42,2.24,0-.6-5.37-1.49-10.67-2.61-16-.3-1.42-2.47-.82-2.17.6Z"
       transform="translate(-19.92 -9.25)"
       id="path363814" />
    <path
       class="cls-8"
       d="M210,78.67c-.07,4.7-.15,9.4-.07,14.18a1.12,1.12,0,0,0,2.24,0c-.08-4.71-.08-9.41.07-14.18a1.12,1.12,0,1,0-2.24,0Z"
       transform="translate(-19.92 -9.25)"
       id="path363816" />
    <path
       class="cls-8"
       d="M227.59,84.94V92a1.12,1.12,0,0,0,2.24,0V84.94a1.12,1.12,0,1,0-2.24,0Z"
       transform="translate(-19.92 -9.25)"
       id="path363818" />
    <path
       class="cls-7"
       d="M128.71,82.55a49.58,49.58,0,0,1,2.83,13.58c.08,1.42,2.32,1.42,2.24,0A50.42,50.42,0,0,0,130.87,82c-.52-1.34-2.68-.75-2.16.6Z"
       transform="translate(-19.92 -9.25)"
       id="path363820" />
    <path
       class="cls-7"
       d="M183.26,80.83A51.46,51.46,0,0,1,185.35,92c.15,1.41,2.39,1.41,2.24,0a57.7,57.7,0,0,0-2.16-11.8,1.13,1.13,0,0,0-2.17.6Z"
       transform="translate(-19.92 -9.25)"
       id="path363822" />
    <path
       class="cls-7"
       d="M186.4,82.1a45.9,45.9,0,0,0,2.16,6.27c.6,1.34,2.47.15,1.94-1.12a41.36,41.36,0,0,1-1.94-5.75,1.12,1.12,0,0,0-2.16.6Z"
       transform="translate(-19.92 -9.25)"
       id="path363824" />
    <path
       class="cls-7"
       d="M217.67,80.46c.37,4.77.67,9.55,1,14.4.08,1.42,2.32,1.42,2.24,0-.37-4.77-.67-9.55-1-14.4-.15-1.42-2.39-1.42-2.24,0Z"
       transform="translate(-19.92 -9.25)"
       id="path363826" />
    <path
       class="cls-6"
       d="M138.41,80.23a153.94,153.94,0,0,1,.15,16.5c-.07,1.42,2.16,1.42,2.24,0a153.94,153.94,0,0,0-.15-16.5c-.15-1.41-2.39-1.49-2.24,0Z"
       transform="translate(-19.92 -9.25)"
       id="path363828" />
    <path
       class="cls-6"
       d="M175.35,79.71c2.76,4.85,2.76,10.52,4.11,15.82a1.12,1.12,0,0,0,2.16-.59c-1.34-5.53-1.42-11.35-4.33-16.35a1.12,1.12,0,0,0-1.94,1.12Z"
       transform="translate(-19.92 -9.25)"
       id="path363830" />
    <path
       class="cls-6"
       d="M214.31,78.37a96.26,96.26,0,0,1,.15,16.72c-.07,1.41,2.16,1.41,2.24,0a113.71,113.71,0,0,0-.15-16.72c-.08-1.42-2.31-1.42-2.24,0Z"
       transform="translate(-19.92 -9.25)"
       id="path363832" />
    <path
       class="cls-6"
       d="M231.4,85.68a14.23,14.23,0,0,0-.15,4c.15,1.42,2.39,1.42,2.24,0a17.16,17.16,0,0,1,.08-3.36,1.12,1.12,0,0,0-.75-1.34,1.06,1.06,0,0,0-1.42.74Z"
       transform="translate(-19.92 -9.25)"
       id="path363834" />
    <path
       class="cls-9"
       d="M124.6,84.49A29,29,0,0,1,128,94.12c.22,1.41,2.39.82,2.16-.6a32.15,32.15,0,0,0-3.66-10.15,1.12,1.12,0,0,0-1.94,1.12Z"
       transform="translate(-19.92 -9.25)"
       id="path363836" />
    <path
       class="cls-9"
       d="M146.32,85.76c.52,2.16.9,4.33,1.2,6.49.22,1.42,2.46,1.42,2.23,0-.29-2.39-.74-4.7-1.26-7.09-.3-1.42-2.47-.82-2.17.6Z"
       transform="translate(-19.92 -9.25)"
       id="path363838" />
    <path
       class="cls-9"
       d="M150.05,88.07l.9,1.57a1.18,1.18,0,0,0,1.57.37,1.12,1.12,0,0,0,.37-1.57l-.9-1.56a1.16,1.16,0,0,0-1.56-.38,1.28,1.28,0,0,0-.38,1.57Z"
       transform="translate(-19.92 -9.25)"
       id="path363840" />
    <path
       class="cls-9"
       d="M179.53,78.67c1,4.85,2,9.77,3,14.62.3,1.42,2.46.83,2.16-.59-1-4.85-2-9.78-3-14.63-.3-1.34-2.47-.75-2.17.6Z"
       transform="translate(-19.92 -9.25)"
       id="path363842" />
    <path
       class="cls-9"
       d="M221.85,81.05a124.21,124.21,0,0,1,2.09,12.54c.15,1.42,2.39,1.42,2.24,0a132.83,132.83,0,0,0-2.24-13.13c-.23-1.42-2.39-.82-2.09.59Z"
       transform="translate(-19.92 -9.25)"
       id="path363844" />
    <path
       class="cls-9"
       d="M205.5,79.11a60.46,60.46,0,0,0,.23,11.57c.15,1.42,2.39,1.42,2.24,0a66.74,66.74,0,0,1-.23-11.57c.15-1.41-2.09-1.41-2.24,0Z"
       transform="translate(-19.92 -9.25)"
       id="path363846" />
    <path
       class="cls-9"
       d="M202.07,81a44.07,44.07,0,0,0,.45,6.27c.15,1.42,2.39,1.42,2.24,0a44.07,44.07,0,0,1-.45-6.27,1.12,1.12,0,0,0-2.24,0Z"
       transform="translate(-19.92 -9.25)"
       id="path363848" />
    <path
       class="cls-9"
       d="M165,83.59a70.18,70.18,0,0,0,.6,10.53c.15,1.41,2.38,1.41,2.24,0a69.65,69.65,0,0,1-.6-10.53,1.12,1.12,0,0,0-2.24,0Z"
       transform="translate(-19.92 -9.25)"
       id="path363850" />
    <path
       class="cls-7"
       d="M142.44,82.85c.08,4,.22,7.83.3,11.79a1.12,1.12,0,0,0,2.24,0c-.08-4-.23-7.84-.3-11.79-.07-1.42-2.31-1.5-2.24,0Z"
       transform="translate(-19.92 -9.25)"
       id="path363852" />
    <path
       class="cls-6"
       d="M121.4,86.8c.67,2.17,1.34,4.4,2,6.57.45,1.34,2.61.82,2.16-.6-.67-2.16-1.34-4.4-2-6.57a1.12,1.12,0,0,0-2.16.6Z"
       transform="translate(-19.92 -9.25)"
       id="path363854" />
    <path
       class="cls-6"
       d="M160.87,87.55A22.48,22.48,0,0,0,161.1,92a1.14,1.14,0,0,0,1.12,1.11c.52,0,1.19-.52,1.12-1.11a22.48,22.48,0,0,1-.23-4.48c.08-1.42-2.16-1.42-2.24,0Z"
       transform="translate(-19.92 -9.25)"
       id="path363856" />
    <path
       class="cls-6"
       d="M197.89,83.37c.45.89.9,1.71,1.34,2.61.68,1.27,2.62.15,2-1.12-.45-.89-.9-1.72-1.35-2.61-.67-1.27-2.61-.15-1.94,1.12Z"
       transform="translate(-19.92 -9.25)"
       id="path363858" />
    <path
       class="cls-6"
       d="M243.94,84.41c.3,1.57.6,3.14.89,4.7s2.39.83,2.17-.59l-.9-4.7c-.3-1.42-2.46-.82-2.16.59Z"
       transform="translate(-19.92 -9.25)"
       id="path363860" />
    <path
       class="cls-6"
       d="M254.39,77.62c.44,3.81,1.12,7.54,1.86,11.27.3,1.42,2.47.82,2.17-.6-.75-3.5-1.35-7.09-1.79-10.67-.23-1.42-2.47-1.42-2.24,0Z"
       transform="translate(-19.92 -9.25)"
       id="path363862" />
    <path
       class="cls-7"
       d="M241.55,88.14H242a1.12,1.12,0,1,0,0-2.23h-.45a1.12,1.12,0,1,0,0,2.23Z"
       transform="translate(-19.92 -9.25)"
       id="path363864" />
    <path
       class="cls-7"
       d="M257.45,76.8a105.42,105.42,0,0,0,1.49,10.82c.3,1.42,2.46.82,2.16-.59a78.15,78.15,0,0,1-1.41-10.23c-.15-1.42-2.39-1.42-2.24,0Z"
       transform="translate(-19.92 -9.25)"
       id="path363866" />
    <path
       class="cls-8"
       d="M247,82.62a21.5,21.5,0,0,1,1,6.49,1.12,1.12,0,0,0,2.24,0A23,23,0,0,0,249.16,82a1.12,1.12,0,0,0-2.16.6Z"
       transform="translate(-19.92 -9.25)"
       id="path363868" />
    <path
       class="cls-9"
       d="M250.43,80.31c1.34,3.36.23,7.16,1.79,10.52.6,1.27,2.54.15,1.94-1.12-1.49-3.06-.3-6.79-1.56-9.92-.53-1.42-2.69-.82-2.17.52Z"
       transform="translate(-19.92 -9.25)"
       id="path363870" />
    <path
       d="M119.75,92.92A14.72,14.72,0,0,1,129.38,82c5.52-1.94,11.05-.59,16.2,1.87,9.62,4.63,17.91,12.69,28.95,13.66,10.45.89,16.35-7.17,23.21-13.44,5-4.55,10.53-6.71,17.32-5.52,6.19,1.12,11.94,4.33,17.46,7.17,9.33,4.77,21,9.18,30.45,2.38,1.12-.82.07-2.76-1.12-1.94-11.19,8.14-24.25-.74-34.7-5.67-9.41-4.48-19.63-6.86-28.51,0-4,3.06-7.09,7-10.9,10.23a18.4,18.4,0,0,1-18.43,3.5c-11.2-3.58-19.7-13.43-31.57-15.15-9.11-1.34-18.14,4.18-20.15,13.36a1.11,1.11,0,0,0,2.16.45Z"
       transform="translate(-19.92 -9.25)"
       id="path363872" />
    <path
       d="M118.34,96.43c4.17-4.11,11.41,1.72,16.26,2.24a19.79,19.79,0,0,0,10.75-2c8.36-3.73,15-10.37,23-14.7,4.33-2.31,9.18-4,14.1-3.13s9.18,3.65,13.14,6.56c6.86,5,14.18,12,23.21,12.09,6.57.08,12.24-4,17.61-7.38l22.24-14c1.2-.75.08-2.69-1.12-1.94-6.34,4-12.76,8-19.1,12-5.83,3.66-12.39,9.11-19.56,9-10.07-.07-18.06-9.47-26-14.4-7.47-4.63-15.15-5.67-23.29-1.94-8.51,3.88-15.15,10.75-23.43,15-4.85,2.54-9.93,3.51-15.23,1.57-4.7-1.72-9.92-4.7-14.1-.6a1.11,1.11,0,1,0,1.57,1.57Z"
       transform="translate(-19.92 -9.25)"
       id="path363874" />
    <path
       class="cls-8"
       d="M125.65,109.56c-.22,2.32.37,4.48.75,6.72a83.9,83.9,0,0,1,.82,8.58c.07,1.42,2.31,1.42,2.24,0-.08-2.31-.23-4.62-.53-6.94-.37-2.76-1.27-5.52-1-8.28.08-1.49-2.16-1.49-2.31-.08Z"
       transform="translate(-19.92 -9.25)"
       id="path363876" />
    <path
       class="cls-8"
       d="M160.28,109.79c-.6,4.48.74,9.7,1.27,14.18.15,1.42,2.38,1.42,2.24,0-.23-2.24-.53-4.56-.75-6.79s-.9-4.63-.6-6.8c.15-1.41-1.94-2-2.16-.59Z"
       transform="translate(-19.92 -9.25)"
       id="path363878" />
    <path
       class="cls-8"
       d="M164,108.89c1,5.08,1.87,10.23,2.54,15.38.15,1.41,2.38,1.41,2.24,0-.6-5.38-1.5-10.68-2.62-16-.29-1.34-2.46-.74-2.16.6Z"
       transform="translate(-19.92 -9.25)"
       id="path363880" />
    <path
       class="cls-8"
       d="M202.37,107.55c-.08,4.7-.15,9.4-.08,14.18a1.12,1.12,0,0,0,2.24,0c-.07-4.7-.07-9.4.08-14.18a1.12,1.12,0,0,0-2.24,0Z"
       transform="translate(-19.92 -9.25)"
       id="path363882" />
    <path
       class="cls-8"
       d="M220.06,113.82v7.09a1.12,1.12,0,0,0,2.24,0v-7.09a1.12,1.12,0,0,0-2.24,0Z"
       transform="translate(-19.92 -9.25)"
       id="path363884" />
    <path
       class="cls-7"
       d="M121.1,111.5a50.48,50.48,0,0,1,2.83,13.59c.08,1.41,2.32,1.41,2.24,0a51.13,51.13,0,0,0-2.91-14.18c-.52-1.35-2.69-.82-2.16.59Z"
       transform="translate(-19.92 -9.25)"
       id="path363886" />
    <path
       class="cls-7"
       d="M175.73,109.71a52.06,52.06,0,0,1,2.09,11.2c.15,1.42,2.38,1.42,2.23,0a56.94,56.94,0,0,0-2.16-11.79c-.45-1.35-2.61-.75-2.16.59Z"
       transform="translate(-19.92 -9.25)"
       id="path363888" />
    <path
       class="cls-7"
       d="M178.79,111a42.53,42.53,0,0,0,2.16,6.27c.6,1.34,2.46.15,1.94-1.12a39.27,39.27,0,0,1-1.94-5.75,1.12,1.12,0,0,0-2.16.6Z"
       transform="translate(-19.92 -9.25)"
       id="path363890" />
    <path
       class="cls-7"
       d="M210.06,109.34c.37,4.78.67,9.55,1,14.4.08,1.42,2.31,1.42,2.24,0-.37-4.77-.67-9.55-1-14.4-.08-1.42-2.32-1.42-2.24,0Z"
       transform="translate(-19.92 -9.25)"
       id="path363892" />
    <path
       class="cls-6"
       d="M130.8,109.12a153.76,153.76,0,0,1,.15,16.49c-.08,1.42,2.16,1.42,2.24,0a153.76,153.76,0,0,0-.15-16.49c-.08-1.42-2.32-1.42-2.24,0Z"
       transform="translate(-19.92 -9.25)"
       id="path363894" />
    <path
       class="cls-6"
       d="M167.82,108.59c2.76,4.85,2.76,10.53,4.1,15.83a1.12,1.12,0,0,0,2.16-.6c-1.34-5.52-1.41-11.35-4.32-16.35-.75-1.26-2.69-.07-1.94,1.12Z"
       transform="translate(-19.92 -9.25)"
       id="path363896" />
    <path
       class="cls-6"
       d="M206.77,107.25a95.28,95.28,0,0,1,.15,16.72c-.07,1.42,2.17,1.42,2.24,0a113.71,113.71,0,0,0-.15-16.72c-.15-1.42-2.39-1.42-2.24,0Z"
       transform="translate(-19.92 -9.25)"
       id="path363898" />
    <path
       class="cls-6"
       d="M223.79,114.56a13.87,13.87,0,0,0-.15,4c.15,1.42,2.39,1.42,2.24,0a16.42,16.42,0,0,1,.07-3.36,1.12,1.12,0,0,0-2.16-.6Z"
       transform="translate(-19.92 -9.25)"
       id="path363900" />
    <path
       class="cls-9"
       d="M117.07,113.44a29.42,29.42,0,0,1,3.43,9.63c.22,1.42,2.39.82,2.16-.6A32.32,32.32,0,0,0,119,112.33a1.12,1.12,0,0,0-1.94,1.11Z"
       transform="translate(-19.92 -9.25)"
       id="path363902" />
    <path
       class="cls-9"
       d="M138.78,114.64a64.24,64.24,0,0,1,1.2,6.49c.22,1.42,2.46,1.42,2.24,0-.3-2.39-.75-4.7-1.27-7.09a1.13,1.13,0,0,0-2.17.6Z"
       transform="translate(-19.92 -9.25)"
       id="path363904" />
    <path
       class="cls-9"
       d="M142.52,117c.29.52.59,1,.89,1.56A1.17,1.17,0,0,0,145,119a1.12,1.12,0,0,0,.37-1.57c-.3-.52-.6-1-.89-1.57a1.14,1.14,0,0,0-1.94,1.2Z"
       transform="translate(-19.92 -9.25)"
       id="path363906" />
    <path
       class="cls-9"
       d="M171.92,107.62c1,4.85,2,9.78,3,14.63.29,1.42,2.46.82,2.16-.6-1-4.85-2-9.77-3-14.62-.29-1.42-2.46-.82-2.16.59Z"
       transform="translate(-19.92 -9.25)"
       id="path363908" />
    <path
       class="cls-9"
       d="M214.24,109.94a124.49,124.49,0,0,1,2.09,12.53c.14,1.42,2.38,1.42,2.23,0a129.92,129.92,0,0,0-2.23-13.13c-.23-1.42-2.39-.82-2.09.6Z"
       transform="translate(-19.92 -9.25)"
       id="path363910" />
    <path
       class="cls-9"
       d="M198,108.07a59.67,59.67,0,0,0,.22,11.57c.15,1.42,2.39,1.42,2.24,0a65.78,65.78,0,0,1-.22-11.57c.07-1.49-2.17-1.42-2.24,0Z"
       transform="translate(-19.92 -9.25)"
       id="path363912" />
    <path
       class="cls-9"
       d="M194.53,109.86a44.07,44.07,0,0,0,.45,6.27c.15,1.42,2.39,1.42,2.24,0a44.07,44.07,0,0,1-.45-6.27,1.12,1.12,0,0,0-2.24,0Z"
       transform="translate(-19.92 -9.25)"
       id="path363914" />
    <path
       class="cls-9"
       d="M157.37,112.47A71.51,71.51,0,0,0,158,123c.15,1.42,2.39,1.42,2.24,0a70.9,70.9,0,0,1-.59-10.53c.07-1.41-2.17-1.41-2.24,0Z"
       transform="translate(-19.92 -9.25)"
       id="path363916" />
    <path
       class="cls-7"
       d="M134.83,111.73c.07,4,.22,7.83.3,11.79a1.12,1.12,0,0,0,2.24,0c-.08-4-.23-7.84-.3-11.79a1.12,1.12,0,0,0-2.24,0Z"
       transform="translate(-19.92 -9.25)"
       id="path363918" />
    <path
       class="cls-6"
       d="M113.86,115.68c.67,2.17,1.34,4.41,2,6.57.45,1.34,2.61.82,2.17-.6-.67-2.16-1.35-4.4-2-6.56-.45-1.35-2.61-.75-2.16.59Z"
       transform="translate(-19.92 -9.25)"
       id="path363920" />
    <path
       class="cls-6"
       d="M153.34,116.43a22.47,22.47,0,0,0,.22,4.48,1.16,1.16,0,0,0,1.12,1.12c.52,0,1.19-.53,1.12-1.12a22.47,22.47,0,0,1-.22-4.48,1.12,1.12,0,0,0-2.24,0Z"
       transform="translate(-19.92 -9.25)"
       id="path363922" />
    <path
       class="cls-6"
       d="M190.35,112.33c.45.89.9,1.71,1.35,2.61.67,1.27,2.61.15,1.94-1.12-.45-.9-.9-1.72-1.35-2.61-.67-1.35-2.61-.23-1.94,1.12Z"
       transform="translate(-19.92 -9.25)"
       id="path363924" />
    <path
       class="cls-6"
       d="M236.33,113.3c.29,1.56.59,3.13.89,4.7.3,1.41,2.39.82,2.17-.6l-.9-4.7c-.3-1.42-2.39-.82-2.16.6Z"
       transform="translate(-19.92 -9.25)"
       id="path363926" />
    <path
       class="cls-6"
       d="M246.77,106.5c.45,3.81,1.12,7.54,1.87,11.27.3,1.42,2.46.82,2.16-.59-.74-3.51-1.34-7.09-1.79-10.68-.15-1.41-2.38-1.41-2.24,0Z"
       transform="translate(-19.92 -9.25)"
       id="path363928" />
    <path
       class="cls-7"
       d="M233.94,117h.45a1.12,1.12,0,1,0,0-2.24h-.45a1.14,1.14,0,0,0-1.12,1.12,1.2,1.2,0,0,0,1.12,1.12Z"
       transform="translate(-19.92 -9.25)"
       id="path363930" />
    <path
       class="cls-7"
       d="M249.83,105.68a105.44,105.44,0,0,0,1.5,10.82c.3,1.42,2.46.83,2.16-.59a79.66,79.66,0,0,1-1.42-10.23c-.07-1.42-2.31-1.42-2.24,0Z"
       transform="translate(-19.92 -9.25)"
       id="path363932" />
    <path
       class="cls-8"
       d="M239.39,111.5a21.52,21.52,0,0,1,1,6.5,1.12,1.12,0,0,0,2.24,0,22.86,22.86,0,0,0-1-7.09c-.45-1.35-2.61-.82-2.16.59Z"
       transform="translate(-19.92 -9.25)"
       id="path363934" />
    <path
       class="cls-9"
       d="M242.89,109.19c1.35,3.36.23,7.17,1.8,10.52.59,1.27,2.53.15,1.94-1.12-1.5-3.06-.3-6.79-1.57-9.92-.52-1.42-2.69-.82-2.17.52Z"
       transform="translate(-19.92 -9.25)"
       id="path363936" />
    <path
       d="M112.14,121.88a14.7,14.7,0,0,1,9.63-10.9c5.52-1.94,11-.6,16.19,1.87,9.63,4.62,17.91,12.68,29,13.65,10.45.9,16.34-7.16,23.21-13.43,5-4.55,10.52-6.72,17.31-5.52,6.2,1.12,11.95,4.33,17.47,7.16,9.33,4.78,21,9.18,30.45,2.39,1.12-.82.07-2.76-1.12-1.94-11.2,8.14-24.26-.75-34.71-5.67-9.4-4.48-19.62-6.87-28.5,0-4,3.06-7.09,7-10.9,10.22a18.39,18.39,0,0,1-18.43,3.51c-11.2-3.58-19.71-13.43-31.57-15.15C121,106.73,112,112.25,110,121.43c-.3,1.19,1.86,1.79,2.16.45Z"
       transform="translate(-19.92 -9.25)"
       id="path363938" />
    <path
       d="M110.8,125.39c4.18-4.11,11.42,1.71,16.27,2.23a19.75,19.75,0,0,0,10.74-2c8.36-3.73,15-10.37,23-14.7,4.33-2.32,9.18-4,14.11-3.14s9.17,3.66,13.13,6.57c6.87,5,14.18,12,23.21,12.09,6.57.07,12.24-4,17.61-7.39,7.39-4.63,14.85-9.33,22.24-14,1.2-.75.08-2.69-1.12-1.94-6.34,4-12.76,8-19.1,12-5.82,3.66-12.39,9.11-19.55,9-10.08-.07-18.07-9.48-26.05-14.4-7.46-4.63-15.15-5.67-23.29-1.94-8.5,3.88-15.15,10.74-23.43,15-4.85,2.54-9.93,3.51-15.22,1.57-4.71-1.72-9.93-4.71-14.11-.6-1,1,.52,2.54,1.57,1.57Z"
       transform="translate(-19.92 -9.25)"
       id="path363940" />
    <path
       class="cls-6"
       d="M139,188.28a82.62,82.62,0,0,1,.82,10.38,1.12,1.12,0,0,0,2.24,0,90,90,0,0,0-.9-11c-.15-1.42-2.31-.82-2.16.59Z"
       transform="translate(-19.92 -9.25)"
       id="path363942" />
    <path
       class="cls-6"
       d="M144,186.49c.9,5.15,1.87,10.38,2.77,15.53.22,1.41,2.38.82,2.16-.6-.9-5.15-1.87-10.37-2.76-15.52-.23-1.42-2.39-.82-2.17.59Z"
       transform="translate(-19.92 -9.25)"
       id="path363944" />
    <path
       class="cls-6"
       d="M184.79,189.63c.07,4.25.22,8.51.52,12.76.07,1.42,2.31,1.42,2.24,0-.3-4.25-.52-8.51-.52-12.76-.08-1.42-2.32-1.42-2.24,0Z"
       transform="translate(-19.92 -9.25)"
       id="path363946" />
    <path
       class="cls-6"
       d="M200.91,189.85c.52,4.55.89,9.18,1.79,13.73.3,1.42,2.46.83,2.16-.59-.82-4.33-1.19-8.73-1.71-13.14-.15-1.42-2.39-1.42-2.24,0Z"
       transform="translate(-19.92 -9.25)"
       id="path363948" />
    <path
       class="cls-6"
       d="M245.31,183.81a43,43,0,0,0,1.35,10.74,1.12,1.12,0,0,0,2.16-.59,42.57,42.57,0,0,1-1.27-10.15,1.12,1.12,0,0,0-2.24,0Z"
       transform="translate(-19.92 -9.25)"
       id="path363950" />
    <path
       class="cls-7"
       d="M154.64,185.52c.89,5.82,1.71,11.72,2.31,17.62.15,1.41,2.39,1.41,2.24,0-.67-6.12-1.42-12.17-2.39-18.21-.22-1.42-2.39-.82-2.16.59Z"
       transform="translate(-19.92 -9.25)"
       id="path363952" />
    <path
       class="cls-7"
       d="M192.7,189.18c.37,3.21.82,6.42,1.19,9.63.23,2.09,0,5.15,1.12,6.94a1.12,1.12,0,0,0,1.79.22c0-.07.08-.07.08-.15a1.08,1.08,0,0,0,0-1.56l-.08-.08c-1.12-1-2.68.67-1.56,1.57l.07.07v-1.56c0,.07-.07.07-.07.15l1.79.22c-1.05-1.72-.82-5.75-1.05-7.61-.3-2.62-.67-5.23-1-7.84-.22-1.42-2.46-1.42-2.31,0Z"
       transform="translate(-19.92 -9.25)"
       id="path363954" />
    <path
       class="cls-7"
       d="M222.63,187.76a82.52,82.52,0,0,0,.29,9.56c.15,1.41,2.39,1.41,2.24,0a82.53,82.53,0,0,1-.3-9.56c.08-1.42-2.16-1.42-2.23,0Z"
       transform="translate(-19.92 -9.25)"
       id="path363956" />
    <path
       class="cls-8"
       d="M148.89,186.05c1.79,5.89,3.36,11.86,4.55,17.83.3,1.42,2.47.82,2.17-.59a177.19,177.19,0,0,0-4.56-17.84,1.12,1.12,0,0,0-2.16.6Z"
       transform="translate(-19.92 -9.25)"
       id="path363958" />
    <path
       class="cls-8"
       d="M178.82,191.49c.74,3.06,1.34,6.2,1.94,9.33.22,1.42,2.39.82,2.16-.59-.52-3.14-1.19-6.27-1.94-9.33a1.12,1.12,0,0,0-2.16.59Z"
       transform="translate(-19.92 -9.25)"
       id="path363960" />
    <path
       class="cls-8"
       d="M232.63,182.91c.59,5.37,1.26,10.67,1.86,16.05.15,1.42,2.39,1.42,2.24,0-.6-5.38-1.27-10.68-1.87-16.05-.14-1.42-2.38-1.42-2.23,0Z"
       transform="translate(-19.92 -9.25)"
       id="path363962" />
    <path
       class="cls-8"
       d="M250.61,185c.3,2.17.6,4.26,1,6.34.29,1.42,2.46.83,2.16-.59-.37-1.94-.75-3.81-1-5.75-.15-1.42-2.39-1.42-2.24,0Z"
       transform="translate(-19.92 -9.25)"
       id="path363964" />
    <path
       class="cls-9"
       d="M160.46,191.05c.74,3.06,1.42,6,2.16,9.1.3,1.42,2.46.82,2.17-.6-.75-3.06-1.42-6-2.17-9.1a1.12,1.12,0,0,0-2.16.6Z"
       transform="translate(-19.92 -9.25)"
       id="path363966" />
    <path
       class="cls-9"
       d="M165.08,194c.45,1,.83,1.94,1.27,2.91.38.82.6,1.79,1.42,2.24a1,1,0,0,0,1.12,0,1.27,1.27,0,0,0,.15-2.17l-.07-.07c-1.2-.75-2.32,1.19-1.12,1.94l.07.07c-.15-.45-.37-.82-.52-1.27v.15c.15-.22.37-.44.52-.67-.07,0-.07.08-.15.08h1.12c.15.15.15.07-.07-.3s-.23-.45-.3-.67c-.15-.38-.3-.68-.45-1-.37-.82-.67-1.57-1-2.39-.53-1.27-2.47-.15-1.95,1.2Z"
       transform="translate(-19.92 -9.25)"
       id="path363968" />
    <path
       class="cls-9"
       d="M188.44,189.93c1.2,4.77.3,9.7,1.57,14.48a1.13,1.13,0,0,0,2.17-.6c-1.35-4.7-.38-9.7-1.57-14.48a1.13,1.13,0,0,0-2.17.6Z"
       transform="translate(-19.92 -9.25)"
       id="path363970" />
    <path
       class="cls-9"
       d="M206.43,191.57l1.57,8.36c.22,1.42,2.39.82,2.16-.6-.52-2.76-1-5.6-1.57-8.36-.29-1.42-2.46-.82-2.16.6Z"
       transform="translate(-19.92 -9.25)"
       id="path363972" />
    <path
       class="cls-9"
       d="M227.7,184.78c.22,4.4-.3,9.7,1.19,13.95.45,1.35,2.62.75,2.17-.59-1.42-4-.9-9.11-1.12-13.36-.08-1.42-2.31-1.42-2.24,0Z"
       transform="translate(-19.92 -9.25)"
       id="path363974" />
    <path
       class="cls-9"
       d="M238.75,183.14a98.89,98.89,0,0,0,2.31,14,1.12,1.12,0,0,0,2.16-.6A102,102,0,0,1,241,183.14c-.07-1.42-2.31-1.42-2.23,0Z"
       transform="translate(-19.92 -9.25)"
       id="path363976" />
    <path
       d="M130.31,200c2.68-4.1,5.44-8.28,9.4-11.27,5.6-4.25,12-3.73,18.21-.74,9.48,4.62,16.87,12.76,26.57,16.94,7.54,3.21,17,4.25,24-.9,3.2-2.39,5.37-5.74,7.61-9,3.43-5.07,7.16-8.66,13.13-10.52,12.17-3.73,25.9-.67,35.68,7.31,1.12.9,2.68-.67,1.56-1.56a41.88,41.88,0,0,0-28.13-9.48,34.8,34.8,0,0,0-14.7,3.65c-4.33,2.32-7.09,6-9.78,9.93-3.36,5-6.94,9.48-13.14,10.67-6,1.2-12.31-.52-17.61-3.21-10.22-5.3-18.43-15.15-29.85-18-11.64-2.91-19.18,6.34-24.85,15-.82,1.27,1.12,2.39,1.94,1.19Z"
       transform="translate(-19.92 -9.25)"
       id="path363978" />
    <path
       d="M128.44,184c4.4,9.1,9.7,19.25,20.23,22.09,10.82,2.91,17.09-5.82,25.15-11.12a38.91,38.91,0,0,1,31.94-4.56c5.67,1.72,10.22,5.23,15.3,8a24.89,24.89,0,0,0,15.15,2.91c12.39-1.72,21.27-11.19,29.25-19.93,1-1-.59-2.68-1.56-1.56-9.18,10.15-21.95,23.43-37.24,18.65-6.35-2-11.42-6.86-17.62-9.25a40.21,40.21,0,0,0-16.27-2.54,41.59,41.59,0,0,0-15.22,3.66c-5.67,2.61-9.78,6.87-14.7,10.45-6.72,4.85-14.41,4.48-20.9-.75-5.45-4.4-8.58-11-11.57-17.24-.67-1.27-2.61-.15-1.94,1.2Z"
       transform="translate(-19.92 -9.25)"
       id="path363980" />
    <path
       class="cls-6"
       d="M125.08,217.47a78.74,78.74,0,0,1,.82,10.37,1.12,1.12,0,0,0,2.24,0,90.11,90.11,0,0,0-.89-11c-.23-1.42-2.39-.82-2.17.6Z"
       transform="translate(-19.92 -9.25)"
       id="path363982" />
    <path
       class="cls-6"
       d="M130,215.67c.89,5.15,1.86,10.38,2.76,15.53.22,1.42,2.39.82,2.16-.6-.89-5.15-1.86-10.37-2.76-15.52-.3-1.42-2.46-.82-2.16.59Z"
       transform="translate(-19.92 -9.25)"
       id="path363984" />
    <path
       class="cls-6"
       d="M170.76,218.81c.07,4.25.22,8.51.52,12.76.07,1.42,2.31,1.42,2.24,0-.3-4.25-.52-8.51-.52-12.76a1.12,1.12,0,0,0-2.24,0Z"
       transform="translate(-19.92 -9.25)"
       id="path363986" />
    <path
       class="cls-6"
       d="M187,219c.52,4.56.9,9.18,1.79,13.73.3,1.42,2.47.83,2.17-.59-.82-4.33-1.2-8.73-1.72-13.14-.15-1.42-2.39-1.42-2.24,0Z"
       transform="translate(-19.92 -9.25)"
       id="path363988" />
    <path
       class="cls-6"
       d="M231.28,213a43,43,0,0,0,1.35,10.74,1.12,1.12,0,0,0,2.16-.59A42.57,42.57,0,0,1,233.52,213a1.12,1.12,0,0,0-2.24,0Z"
       transform="translate(-19.92 -9.25)"
       id="path363990" />
    <path
       class="cls-7"
       d="M140.61,214.7c.89,5.83,1.71,11.72,2.31,17.62.15,1.41,2.39,1.41,2.24,0-.67-6.12-1.42-12.17-2.39-18.21-.22-1.42-2.39-.82-2.16.59Z"
       transform="translate(-19.92 -9.25)"
       id="path363992" />
    <path
       class="cls-7"
       d="M178.67,218.36c.37,3.21.82,6.42,1.19,9.63.23,2.09,0,5.15,1.12,6.94a1.12,1.12,0,0,0,1.79.22c0-.07.08-.07.08-.15a1.08,1.08,0,0,0,0-1.56l-.08-.08c-1.12-1-2.68.67-1.57,1.57l.08.07v-1.56c0,.07-.08.07-.08.15l1.8.22c-1.05-1.72-.82-5.75-1.05-7.61-.3-2.61-.67-5.23-1-7.84-.22-1.42-2.46-1.42-2.31,0Z"
       transform="translate(-19.92 -9.25)"
       id="path363994" />
    <path
       class="cls-7"
       d="M208.67,216.94a80.36,80.36,0,0,0,.3,9.56c.15,1.41,2.39,1.41,2.24,0a80.36,80.36,0,0,1-.3-9.56,1.12,1.12,0,0,0-2.24,0Z"
       transform="translate(-19.92 -9.25)"
       id="path363996" />
    <path
       class="cls-8"
       d="M134.93,215.23c1.8,5.89,3.36,11.86,4.56,17.83.29,1.42,2.46.82,2.16-.59a177.15,177.15,0,0,0-4.55-17.84,1.13,1.13,0,0,0-2.17.6Z"
       transform="translate(-19.92 -9.25)"
       id="path363998" />
    <path
       class="cls-8"
       d="M164.79,220.75c.74,3.06,1.34,6.19,1.94,9.33.22,1.42,2.38.82,2.16-.6-.52-3.13-1.19-6.27-1.94-9.33-.3-1.42-2.46-.82-2.16.6Z"
       transform="translate(-19.92 -9.25)"
       id="path364000" />
    <path
       class="cls-8"
       d="M218.67,212.09c.6,5.38,1.27,10.67,1.87,16,.14,1.42,2.38,1.42,2.23,0-.59-5.38-1.26-10.67-1.86-16-.23-1.42-2.46-1.42-2.24,0Z"
       transform="translate(-19.92 -9.25)"
       id="path364002" />
    <path
       class="cls-8"
       d="M236.66,214.18c.29,2.17.59,4.26,1,6.35.3,1.41,2.46.82,2.16-.6-.37-1.94-.74-3.81-1-5.75-.22-1.42-2.46-1.42-2.23,0Z"
       transform="translate(-19.92 -9.25)"
       id="path364004" />
    <path
       class="cls-9"
       d="M146.43,220.23c.74,3.06,1.42,6,2.16,9.1.3,1.42,2.46.82,2.17-.6-.75-3.06-1.42-6-2.17-9.1-.3-1.34-2.46-.75-2.16.6Z"
       transform="translate(-19.92 -9.25)"
       id="path364006" />
    <path
       class="cls-9"
       d="M151.13,223.14c.45,1,.82,1.94,1.27,2.91.37.82.59,1.79,1.42,2.24a1,1,0,0,0,1.11,0,1.21,1.21,0,0,0,.68-.9,1.22,1.22,0,0,0-.53-1.27l-.07-.07c-1.19-.75-2.31,1.19-1.12,1.94l.07.07c-.14-.44-.37-.82-.52-1.27v.15c.15-.22.38-.44.52-.67-.07,0-.07.08-.14.08h1.11c.15.15.15.07-.07-.3s-.22-.45-.3-.67c-.15-.38-.3-.68-.45-1-.37-.82-.67-1.57-1-2.39-.6-1.27-2.54-.15-1.94,1.2Z"
       transform="translate(-19.92 -9.25)"
       id="path364008" />
    <path
       class="cls-9"
       d="M174.41,219.11c1.2,4.77.3,9.7,1.57,14.48a1.13,1.13,0,0,0,2.17-.6c-1.35-4.7-.38-9.7-1.57-14.48a1.13,1.13,0,0,0-2.17.6Z"
       transform="translate(-19.92 -9.25)"
       id="path364010" />
    <path
       class="cls-9"
       d="M192.4,220.75c.52,2.76,1,5.6,1.57,8.36.22,1.42,2.39.82,2.16-.6-.52-2.76-1-5.6-1.57-8.36-.22-1.42-2.38-.82-2.16.6Z"
       transform="translate(-19.92 -9.25)"
       id="path364012" />
    <path
       class="cls-9"
       d="M213.74,214c.23,4.4-.29,9.7,1.2,13.95.45,1.35,2.61.75,2.16-.59-1.42-4-.89-9.11-1.12-13.36-.07-1.42-2.31-1.42-2.24,0Z"
       transform="translate(-19.92 -9.25)"
       id="path364014" />
    <path
       class="cls-9"
       d="M224.79,212.32a100.34,100.34,0,0,0,2.31,14,1.13,1.13,0,0,0,2.17-.6A100.35,100.35,0,0,1,227,212.32c-.15-1.42-2.39-1.42-2.24,0Z"
       transform="translate(-19.92 -9.25)"
       id="path364016" />
    <path
       d="M116.28,229.18c2.68-4.1,5.44-8.28,9.4-11.27,5.6-4.25,12-3.73,18.21-.74,9.48,4.62,16.87,12.76,26.57,16.94,7.54,3.21,17,4.25,23.95-.9,3.21-2.39,5.38-5.74,7.62-9,3.43-5.07,7.16-8.65,13.13-10.52,12.17-3.73,25.9-.67,35.68,7.31,1.11.9,2.68-.67,1.56-1.56a41.88,41.88,0,0,0-28.13-9.48,34.88,34.88,0,0,0-14.71,3.65c-4.32,2.32-7.09,6-9.77,9.93-3.36,5-6.94,9.48-13.14,10.67-6,1.2-12.31-.52-17.61-3.21-10.22-5.3-18.43-15.15-29.85-18-11.64-2.91-19.18,6.34-24.85,15a1.14,1.14,0,0,0,1.94,1.19Z"
       transform="translate(-19.92 -9.25)"
       id="path364018" />
    <path
       d="M114.41,213.14c4.4,9.1,9.7,19.25,20.23,22.09,10.82,2.91,17.09-5.82,25.15-11.12a38.87,38.87,0,0,1,31.94-4.55c5.67,1.71,10.22,5.22,15.3,8a24.89,24.89,0,0,0,15.15,2.91c12.39-1.72,21.27-11.19,29.25-19.93,1-1-.59-2.68-1.56-1.56-9.18,10.15-22,23.43-37.25,18.66-6.34-2-11.41-6.87-17.61-9.26a40.41,40.41,0,0,0-16.27-2.54,41.59,41.59,0,0,0-15.22,3.66c-5.67,2.61-9.78,6.87-14.7,10.45-6.72,4.85-14.41,4.48-20.9-.75-5.45-4.4-8.58-11-11.57-17.24-.6-1.27-2.54-.15-1.94,1.2Z"
       transform="translate(-19.92 -9.25)"
       id="path364020" />
    <path
       d="M114.56,140.63c-2.61-4-10.52-3.48-14.33-.59-2.76,2.09-3.36,5.25-3.36,8,.08,4.17,1.2,8.35,1.72,12.53,2.39,17.79,2.69,35.63,2.16,53.48-.3,10.34-.82,20.68-1.34,31a.86.86,0,0,0,.82.75,46.48,46.48,0,0,0,15.45-.91c1.34-.32.75-1.88-.6-1.55a44,44,0,0,1-14.25.91c.3.26.52.53.82.75,1-19.61,2-39.22,1.27-58.84a260.2,260.2,0,0,0-2.69-29.3c-.6-4.18-2.39-9.06-.52-13.18,1.57-3.43,9.7-6.92,12.76-2.31.75,1,2.69.16,2.09-.8Z"
       transform="translate(-19.92 -9.25)"
       id="path364022" />
    <path
       d="M257.93,135.7a51.44,51.44,0,0,0,16.79,2.41l-1.12-.8a388.28,388.28,0,0,0-4.33,58c0,9.54.37,19,1,28.51.15,2.46.38,4.93.6,7.39.22,2.68.82,5.63-2.09,7.77-4.7,3.38-12.84,4.45-19.18,4.4-1.42,0-1.42,1.6,0,1.6a43.1,43.1,0,0,0,17.54-3.16c4.78-2,6.34-4.71,6.12-8.62-.6-10.51-1.64-20.95-1.79-31.51a395.67,395.67,0,0,1,4.25-64.35c.08-.43-.59-.8-1.12-.8a49.51,49.51,0,0,1-15.67-2.2c-1.19-.48-2.39.91-1,1.34Z"
       transform="translate(-19.92 -9.25)"
       id="path364024" />
    <path
       d="M111.81,73.24c-2.68-.31-5.42-.68-8.1-1a46.85,46.85,0,0,0-5.37-.59c-3.07.1-2.75,1.84-2.6,3.35.61,6.15,1.15,12.32,1.4,18.44A237.76,237.76,0,0,1,95.79,129c0,.41.53.76,1.27.84,7.52.87,15,1.79,22.62,2.68,1.41.18,1.07-1.08-.35-1.26-7.51-.87-15-1.79-22.61-2.68.39.28.86.59,1.27.84a237.89,237.89,0,0,0,1.44-31.65c-.1-5-.35-10-.82-15-.1-1.33-.21-2.67-.37-4s-.7-2.85-.46-4c.5-2.39,3.68-1.52,6.88-1.14,2.45.31,5,.63,7.43.9,1.48.23,1.13-1-.28-1.21Z"
       transform="translate(-19.92 -9.25)"
       id="path364026" />
    <path
       d="M256.19,66.71c4.62.22,9.16.47,13.79.69l-1.09-.65A135.86,135.86,0,0,0,270,101.08a129.23,129.23,0,0,0,3.71,16.55c.38,1.3.77,2.56,1.16,3.87s1.78,3.37.31,4.59-5.14,1.16-7.84,1.39l-8.33.82c-1.43.13-.89,1.32.54,1.19,5.18-.48,11.16-.64,16.06-1.58,3.17-.61,2.86-1.91,2.34-3.54-1.86-6.55-3.87-13.06-5.05-19.66a134.27,134.27,0,0,1-1.73-37.85c0-.32-.5-.63-1.09-.66-4.63-.21-9.17-.47-13.79-.69-1.57-.07-1.63,1.13-.13,1.2Z"
       transform="translate(-19.92 -9.25)"
       id="path364028" />
    <path
       d="M50,21.55c1.77-11.28-14.8-15-22.42-10.29-9.91,6.18-8.37,21.2-5.26,30.74,2.95,9,14.3,17.44,23.39,10.52,3.51-2.68,5.62-8.28,5.16-12.66-.5-4.74-5.58-3.77-9.41-3.49l.51,1.87c2.25-1.09,6.52-3.4,6.57.56a1,1,0,0,0,2,0l0-3.61a1,1,0,0,0-1-1,24,24,0,0,0-8.54,2.32,1,1,0,0,0,.5,1.86c1.37-.1,3.23-.47,4.6-.11,3.64.94,3,2.94,2.29,5.9-1.13,4.93-4.49,8.68-9.87,8.72-8.77.06-13.54-7.38-15.17-15.05-1.41-6.62-2.47-15.14,1.46-21.14a13.61,13.61,0,0,1,13.53-5.63c4.32.87,10.55,5,9.77,10-.19,1.26,1.73,1.8,1.93.53Z"
       transform="translate(-19.92 -9.25)"
       id="path364030" />
    <path
       d="M50.45,35.74l-.09-.11c-.64-.8-2,.06-1.67,1a46.31,46.31,0,0,1,2.1,12.53c0,1.8-.67,4.19,1.18,5.23,1.13.63,2.14-1.1,1-1.73-.73-.41-.42-7.27-.56-8.41a50.23,50.23,0,0,0-1.8-8.15L49,37l.09.11c.8,1,2.21-.42,1.41-1.41Z"
       transform="translate(-19.92 -9.25)"
       id="path364032" />
    <path
       d="M58.46,46.3c4.89,0,13.19.57,15.57-4.93,2.55-5.86-6-7-9.85-5.85C57.76,37.39,58,44,59,49.53c.46,2.51,1.11,4.55,3.75,5.38,3.4,1.07,7.74-.68,11-1.44,1.25-.29.72-2.22-.54-1.93-1.81.42-3.63.91-5.46,1.26-2.92.56-5.32.59-6.58-2.55-1.48-3.72-1.53-10.77,2.71-12.48,1.54-.63,4.34-1.17,6-.42s3.06,2.4,1.92,4a5.92,5.92,0,0,1-2.94,2c-3.28,1.08-7,1-10.39,1a1,1,0,0,0,0,2Z"
       transform="translate(-19.92 -9.25)"
       id="path364034" />
    <path
       d="M77.51,37.5c2.59,5.22,1.7,12.6,1.9,18.31l2-.26-.11-.41a1,1,0,0,0-1.93.53l.11.41a1,1,0,0,0,2-.27c-.22-6.22.66-13.6-2.17-19.32-.58-1.16-2.3-.14-1.73,1Z"
       transform="translate(-19.92 -9.25)"
       id="path364036" />
    <path
       d="M82,44.43c1.87-2.25,9.37-10.44,11.79-4.61.68,1.61,0,4.63-.09,6.35a61.94,61.94,0,0,1-1.31,8.88c-.27,1.25,1.66,1.79,1.93.53a63.27,63.27,0,0,0,1.52-12.94c0-2.2.31-4.81-1.8-6.11-4.89-3-10.73,3.21-13.45,6.49-.82,1,.59,2.4,1.41,1.41Z"
       transform="translate(-19.92 -9.25)"
       id="path364038" />
    <path
       d="M101.61,47.6c3.57-.77,16.18-3.14,15.52-8.77-.56-4.73-10-4.52-12.84-2.79-4.1,2.48-6.68,10.4-4.81,14.81,2.53,6,11.07,4.27,16,3.25,1.26-.26.72-2.19-.54-1.93-3.49.73-9.78,2.23-12.69-.77s-.57-10.09,2.09-12.76c1.43-1.43,3.62-1.67,5.57-1.59,1,0,2.64,0,3.49.61,1.08.12,1.19.78.32,2,.2,1-.09,1.69-.88,2-2.62,2.43-8.35,3.34-11.73,4.07-1.26.27-.73,2.2.53,1.93Z"
       transform="translate(-19.92 -9.25)"
       id="path364040" />
    <path
       d="M126.39,26.63,127,26l-1.71-.71c-.46,4.47-.79,9-.9,13.44-.1,4-.94,9.74.26,13.58s7.9,2.3,10.91,1.77c1.27-.23.73-2.15-.53-1.93-2.74.48-7.09,1.46-8.5-1.9-.87-2.08-.2-6.46-.18-8.64,0-5.46.38-10.89.94-16.32.1-.91-1.13-1.24-1.71-.7l-.63.58c-1,.88.47,2.29,1.41,1.42Z"
       transform="translate(-19.92 -9.25)"
       id="path364042" />
    <path
       d="M119.85,38.34q6.48-.68,13-1.29c1.27-.12,1.29-2.12,0-2q-6.48.62-13,1.29c-1.27.13-1.28,2.13,0,2Z"
       transform="translate(-19.92 -9.25)"
       id="path364044" />
    <path
       d="M142.46,37a46.11,46.11,0,0,1-.7,10.68c-.22,1.54-.78,3.49,0,5,2.1,4,7.38.62,10.41.7a1,1,0,0,0,0-2,13.32,13.32,0,0,0-4,.89c-1.5.4-2.34.55-3.65-.43-1.62-1.21-1.08-1.35-.77-3.6.51-3.75,1.11-7.41.77-11.21-.12-1.27-2.12-1.28-2,0Z"
       transform="translate(-19.92 -9.25)"
       id="path364046" />
    <path
       d="M142.38,30l-.06,0a1,1,0,0,0-.73,1c.06.75,1,1.5,1.71.94a1,1,0,0,0,.36-1.37,1,1,0,0,0-1.37-.36l0,0,.51-.14h-.07l.51.14.1.09.29.71v0l-.74,1,.06,0a1,1,0,0,0,.7-1.23,1,1,0,0,0-1.23-.7Z"
       transform="translate(-19.92 -9.25)"
       id="path364048" />
    <path
       d="M170.34,39.4c.66-3.39-3.31-4.39-6-4.13-4.35.41-6.79,3.5-7.93,7.51-.85,3-1.44,8.23,1.58,10.35,3.4,2.39,9.49.68,12.7-1.23a1,1,0,0,0-1-1.73,14,14,0,0,1-7,1.93c-3.87.06-5-2-4.91-5.58.08-2.37.88-5.49,2.5-7.29A6.41,6.41,0,0,1,164,37.32c1.14-.21,4.83-.35,4.46,1.55-.24,1.26,1.68,1.8,1.93.53Z"
       transform="translate(-19.92 -9.25)"
       id="path364050" />
    <path
       d="M215.82,33.77c-3.61-5.64-10.17-3.71-12.58,1.87-2,4.65-4.52,16,2.09,18.35,15.5,5.57,14.35-32.57,14.92-40.28.1-1.29-1.87-1.26-2,0l-2,20.71c-.61,6.23-2.45,13.42-.54,19.52.38,1.23,2.32.7,1.93-.53-1.94-6.19.14-14.19.76-20.57l1.87-19.13h-2c-.63,8.41-.74,17-2.2,25.28a42.28,42.28,0,0,1-1.57,6.58A13.11,13.11,0,0,1,212,50.26q-4,4.37-8.43-1.15c-1-2.71-.11-6.89.56-9.52,1-4.08,5.74-11.49,10-4.81.69,1.08,2.42.08,1.73-1Z"
       transform="translate(-19.92 -9.25)"
       id="path364052" />
    <path
       d="M237.31,37.68c1.53-5-4.28-6.79-8.16-6.3-5.76.72-5.52,11.19-5.57,15.37-.05,4.87,5,6.51,8.9,4.32,6.63-3.78,5.91-11.35,5.83-18a1,1,0,0,0-2,0c-.55,5.91-.95,11.75-.13,17.66.18,1.27,2.11.73,1.93-.54-.8-5.71-.33-11.41.2-17.12h-2a65.45,65.45,0,0,1-.27,9.18,8.67,8.67,0,0,1-3,5.84c-1.9,1.71-6.63,4-7.49-.92-.38-2.16.32-5.05.56-7.22.16-1.42.34-3.9,1.31-5.15a4.64,4.64,0,0,1,4-1.51c2.26-.14,3.58,1.14,4,3.82-.38,1.23,1.55,1.76,1.93.53Z"
       transform="translate(-19.92 -9.25)"
       id="path364054" />
    <path
       d="M247.24,13.4c-.92,10.85-2.52,22.23-2.14,33.12.08,2.27.28,4.34,2.69,5.19,3.13,1.09,6-1.85,9.06-2,1.28,0,1.29-2,0-2-2.35.08-4.45,2-6.58,2.06-4.9.07-2.83-10.47-2.69-13q.66-11.7,1.66-23.37c.11-1.28-1.89-1.28-2,0Z"
       transform="translate(-19.92 -9.25)"
       id="path364056" />
    <path
       d="M241,34.86a117.59,117.59,0,0,1,15.88-1.76c1.28-.05,1.29-2.05,0-2a122.06,122.06,0,0,0-16.41,1.83c-1.27.23-.73,2.16.53,1.93Z"
       transform="translate(-19.92 -9.25)"
       id="path364058" />
    <path
       d="M273.35,38.31c-.72-4-6.68-8.11-10.53-5.54-2.25,1.5-2.46,4.41-2.6,6.85-.17,3.17-.87,7.9.95,10.75,2.54,4,8.05,2.59,10.64-.49,4.21-5,4.49-12.74,3.19-18.81a1,1,0,0,0-2,.27c.52,7.31.7,13.93,3.51,20.78l1.67-1-.46-.51c-.87-1-2.28.47-1.42,1.42l.46.5c.64.7,2.06,0,1.67-1-2.7-6.61-2.93-13.21-3.43-20.25l-2,.26c1.14,5.3,1.2,17.1-5.69,19.06-5.66,1.61-5.38-6.77-5.2-10.25.14-2.59-.1-3.39,2.38-4.88,1.31-1.51,2.75-1.62,4.3-.31a4.33,4.33,0,0,1,2.56,3.62c.23,1.26,2.16.73,1.93-.53Z"
       transform="translate(-19.92 -9.25)"
       id="path364060" />
    <path
       d="M82.74,181.15c1.79,2,4,5,1.49,7.39a8.42,8.42,0,0,1-6.49,2,10.27,10.27,0,0,0-1.27-2.31,7.41,7.41,0,0,0,5.52-.75c2.39-1.56.15-4-1.27-5.37s-4.1-2.91-5.82-1c-1.12,1.19-1,3.13-.74,4.7A14.23,14.23,0,0,0,72,184.21c0-2.31.6-4.63,2.84-5.6C77.81,177.27,80.8,179,82.74,181.15Z"
       transform="translate(-19.92 -9.25)"
       id="path364062" />
    <path
       class="cls-10"
       d="M80.8,182.12c1.42,1.34,3.66,3.81,1.27,5.37a7.11,7.11,0,0,1-5.52.75,12.31,12.31,0,0,0-2.32-2.46c-.15-1.57-.3-3.51.75-4.7C76.69,179.21,79.38,180.78,80.8,182.12Z"
       transform="translate(-19.92 -9.25)"
       id="path364064" />
    <path
       d="M78.11,191.6a.89.89,0,0,1-.44,1.12l-.45-2.24a1.34,1.34,0,0,1,.52.07A4.2,4.2,0,0,1,78.11,191.6Z"
       transform="translate(-19.92 -9.25)"
       id="path364066" />
    <path
       d="M77.67,192.72c1.49,8.95-.83,17.39-10.38,20.82-9.18,3.28-20.9,3.14-29-2.76-6-4.4-11.56-13.73-7-21A14.24,14.24,0,0,1,35.13,186a3.9,3.9,0,0,0,1,.52.85.85,0,0,0,.75,0l.44.68a21.75,21.75,0,0,0-2.16,1.49c-4.7,3.81-3.88,10.15-1,14.78,5.82,9.47,18.06,11.34,28.21,9.18,5.3-1.12,10.75-3.36,12.76-8.81,1.72-4.4.9-9.4-.22-13.81v-.15c.07,0,.22.08.3.08a6.76,6.76,0,0,1,.82,2A1,1,0,0,0,77.67,192.72Z"
       transform="translate(-19.92 -9.25)"
       id="path364068" />
    <path
       d="M77.74,190.55a1.34,1.34,0,0,1-.52-.07l-.23-.9a1,1,0,0,0-2,0,5.12,5.12,0,0,0-.75-1h0a.89.89,0,0,1,1.2-.59c.37.07.67.22,1,.3A8.32,8.32,0,0,1,77.74,190.55Z"
       transform="translate(-19.92 -9.25)"
       id="path364070" />
    <path
       d="M77.67,192.72a1.07,1.07,0,0,1-1.57-.6,12.93,12.93,0,0,0-.82-2,13.9,13.9,0,0,0,1.94.37Z"
       transform="translate(-19.92 -9.25)"
       id="path364072" />
    <path
       d="M77,189.58l.23.9a13.9,13.9,0,0,1-1.94-.37c-.08-.15-.23-.38-.3-.53A1,1,0,0,1,77,189.58Z"
       transform="translate(-19.92 -9.25)"
       id="path364074" />
    <path
       d="M76.47,188.24a4,4,0,0,1-1-.3.9.9,0,0,0-1.2.6A9,9,0,0,0,73,187.27a1,1,0,0,0,1.27-1c0-.22-.08-.37-.08-.6A18.12,18.12,0,0,1,76.47,188.24Z"
       transform="translate(-19.92 -9.25)"
       id="path364076" />
    <path
       class="cls-10"
       d="M75,190.18c1.19,4.4,1.94,9.41.22,13.81-2.09,5.37-7.54,7.69-12.76,8.8-10.15,2.09-22.31.3-28.21-9.17-2.84-4.63-3.66-11.05,1-14.78a21.75,21.75,0,0,1,2.16-1.49,33.37,33.37,0,0,1,11-4.26c6.42-1.27,17.76-1.12,23.88,3.73a1,1,0,0,0,.75.6,9,9,0,0,1,1.19,1.27h0a1.11,1.11,0,0,0,.67,1.42h0Zm-33.44,4.55a1.94,1.94,0,0,0,1.35-2.38v-.08a1.49,1.49,0,0,0-.75-.89,1.67,1.67,0,0,0-1.34.07c-1,.6-.9,1.87-.38,2.76A1,1,0,0,0,41.54,194.73Zm1,10.08v-5.08c0-.52-.52-1.12-1-1a16.58,16.58,0,0,0-3.81.75,1.11,1.11,0,0,0-.15,2,4.54,4.54,0,0,0,3.66,4.4A1.14,1.14,0,0,0,42.51,204.81Zm-6-10.52a1.41,1.41,0,0,0-1.2-2.09,1.34,1.34,0,0,0-1.19.67,1.39,1.39,0,0,0,0,1.42,1,1,0,0,0,1.12.52A1.23,1.23,0,0,0,36.47,194.29Z"
       transform="translate(-19.92 -9.25)"
       id="path364078" />
    <path
       d="M75.2,190.11c-.07,0-.22-.08-.3-.08v-.37A1.47,1.47,0,0,1,75.2,190.11Z"
       transform="translate(-19.92 -9.25)"
       id="path364080" />
    <path
       d="M74.9,189.66c0,.15-.07.22,0,.37h0a1.1,1.1,0,0,1-.67-1.42A4.94,4.94,0,0,1,74.9,189.66Z"
       transform="translate(-19.92 -9.25)"
       id="path364082" />
    <path
       d="M74.31,186.38a1,1,0,0,1-1.27,1,4.93,4.93,0,0,0-.75-.6.49.49,0,0,1-.07-.3,18.47,18.47,0,0,1-.15-2.16,14.58,14.58,0,0,1,2.16,1.56C74.23,186,74.31,186.23,74.31,186.38Z"
       transform="translate(-19.92 -9.25)"
       id="path364084" />
    <path
       d="M72.29,186.75c.23.22.52.37.75.6A1.21,1.21,0,0,1,72.29,186.75Z"
       transform="translate(-19.92 -9.25)"
       id="path364086" />
    <path
       d="M72.22,186.38c0,.14.07.22.07.29-6.12-4.85-17.46-5-23.88-3.73a31.2,31.2,0,0,0-11,4.26l-.44-.68a1.23,1.23,0,0,0,.52-1.19,1.18,1.18,0,0,0,.75-.9v-.07c.14-.07.37-.15.52-.22a1,1,0,0,0,1.42-.38c.07-.15.15-.22.22-.37l1.12-.45a37.69,37.69,0,0,1,15.22-2.68c4.78.14,10.9,1.19,15.53,4A6.37,6.37,0,0,0,72.22,186.38Z"
       transform="translate(-19.92 -9.25)"
       id="path364088" />
    <path
       d="M47.29,156.15c3.81,1.42,6,7.69,4.48,11.27-1.05,2.61-3.36,4.55-5.08,6.64a60.8,60.8,0,0,0-6.41,9.33,15,15,0,0,0-1.65.75.87.87,0,0,1-.44-.45c.07-.37.07-.75.14-1.12a69.8,69.8,0,0,1,7-10c1.64-1.94,3.95-3.81,4.62-6.34a7.65,7.65,0,0,0-1.79-6.8c-5.52-5.74-8.51,9-8.81,11.94-.44,3.74-.52,7.39-.89,11.12,0,.08-.08.08-.08.15a.94.94,0,0,0,0,1c0,.23-.07.53-.07.75a1.74,1.74,0,0,0-.52.3,1,1,0,0,0,.45-.82c.14-4,.37-7.91.52-11.94a75,75,0,0,0,.37-9.11C40.35,159.21,43.11,154.66,47.29,156.15Z"
       transform="translate(-19.92 -9.25)"
       id="path364090" />
    <path
       class="cls-10"
       d="M48,159.43a7.68,7.68,0,0,1,1.79,6.8c-.67,2.53-3,4.4-4.63,6.34a66.76,66.76,0,0,0-6.94,10c.37-3.73.45-7.39.9-11.12C39.53,168.46,42.51,153.69,48,159.43Z"
       transform="translate(-19.92 -9.25)"
       id="path364092" />
    <path
       d="M40.8,192.64h0c0,.15,0,.23.07.3V193a1,1,0,0,0,1,.67,1,1,0,0,0,1-1.05.64.64,0,0,0-.08-.37v.08a1.88,1.88,0,0,1-1.34,2.38,1,1,0,0,1-1.19-.52c-.53-.89-.75-2.16.37-2.76a1.71,1.71,0,0,1,1.34-.07,1.13,1.13,0,0,1,.75.89,1.08,1.08,0,0,0-1.27-.67A1.32,1.32,0,0,0,40.8,192.64Z"
       transform="translate(-19.92 -9.25)"
       id="path364094" />
    <path
       d="M42,192.87a.28.28,0,0,1-.07.22h0c-.3-.15-.6-.22-.9-.37h0c-.07,0-.07.07-.15.07h0v-.07h0v-.15a1.26,1.26,0,0,1,.75-1,1.09,1.09,0,0,1,1.27.68,3.1,3.1,0,0,1,.07.37,1,1,0,0,1-1,1,1,1,0,0,1-1-.67h0c.22.53.82.67,1,.15.08,0,.15.08.23.08-.08-.08-.08-.15-.15-.23A.07.07,0,0,1,42,192.87Zm0,0h0v0Z"
       transform="translate(-19.92 -9.25)"
       id="path364096" />
    <path
       d="M42.51,199.73v5.08a1.1,1.1,0,0,1-1.34,1,4.48,4.48,0,0,1-3.66-4.4.85.85,0,0,0,.75,0,8.66,8.66,0,0,1,1.34-.37v.22a2.44,2.44,0,0,0,.82,1.87v1.64c.45-.37.9-.67,1.35-1.05a2.76,2.76,0,0,1-1.35-.59v-2.24c.38-.08.68-.08,1-.15l-1-1.05v1.2c-.29.07-.52.07-.82.15a1.06,1.06,0,0,0-2.09.22v.15a1.11,1.11,0,0,1,.15-2,13.08,13.08,0,0,1,3.81-.75A1,1,0,0,1,42.51,199.73Z"
       transform="translate(-19.92 -9.25)"
       id="path364098" />
    <path
       d="M42.07,192.94c0,.08.07.15.15.23-.08,0-.15-.08-.23-.08h0a.26.26,0,0,0,.08-.22C42,192.87,42,192.94,42.07,192.94Z"
       transform="translate(-19.92 -9.25)"
       id="path364100" />
    <path
       d="M42,192.79v.15h0Z"
       transform="translate(-19.92 -9.25)"
       id="path364102" />
    <path
       d="M41,192.72c.3.15.6.22.9.37-.23.52-.82.38-1.05-.15h0v-.07h0v-.08h0C41,192.72,41,192.72,41,192.72Z"
       transform="translate(-19.92 -9.25)"
       id="path364104" />
    <path
       d="M41.77,203.76c-.45.38-.9.68-1.35,1.05v-1.64A2.76,2.76,0,0,0,41.77,203.76Z"
       transform="translate(-19.92 -9.25)"
       id="path364106" />
    <path
       d="M40.42,199.73l1,1.05a4.22,4.22,0,0,0-1,.15Z"
       transform="translate(-19.92 -9.25)"
       id="path364108" />
    <path
       d="M41,192.72Z"
       transform="translate(-19.92 -9.25)"
       id="path364110" />
    <path
       d="M40.87,192.79Z"
       transform="translate(-19.92 -9.25)"
       id="path364112" />
    <path
       d="M40.87,192.79Z"
       transform="translate(-19.92 -9.25)"
       id="path364114" />
    <path
       d="M40.87,192.94h0a.59.59,0,0,1-.07-.3v.08h0v.07Z"
       transform="translate(-19.92 -9.25)"
       id="path364116" />
    <path
       d="M40.87,192.94Z"
       transform="translate(-19.92 -9.25)"
       id="path364118" />
    <path
       d="M40.87,192.94h0v0Z"
       transform="translate(-19.92 -9.25)"
       id="path364120" />
    <path
       d="M40.87,192.79Z"
       transform="translate(-19.92 -9.25)"
       id="path364122" />
    <path
       d="M40.87,192.79Z"
       transform="translate(-19.92 -9.25)"
       id="path364124" />
    <path
       d="M40.87,192.87Z"
       transform="translate(-19.92 -9.25)"
       id="path364126" />
    <path
       d="M40.28,183.39c-.08.15-.15.22-.23.37a1,1,0,0,1-1.42.38A15,15,0,0,1,40.28,183.39Z"
       transform="translate(-19.92 -9.25)"
       id="path364128" />
    <path
       d="M39,162.79c.15,3-.23,6.12-.38,9.11-.15,3.95-.37,7.91-.52,11.94a1,1,0,0,1-.45.82.29.29,0,0,0-.15.07.4.4,0,0,1-.29.08c-.08-.08-.23-.23-.38-.23a2.8,2.8,0,0,1-.67-.37c.82-6.64.45-13.51,2.46-19.93A3.9,3.9,0,0,1,39,162.79Z"
       transform="translate(-19.92 -9.25)"
       id="path364130" />
    <path
       d="M38.78,160.7a9.43,9.43,0,0,1,.23,2.09c-.23.52-.38,1.05-.53,1.49-2,6.42-1.64,13.29-2.46,19.93h0a.7.7,0,0,1-.07-.37q.33-6.94.67-13.88c.07-1.94.22-3.88.22-5.9,0-1.42.15-4.1-.89-5.22-1.5-.53-2.91-1.12-4.33-1.65-.52.53-1.05,1-1.49,1.5-2.54,3.8-1,10.37.22,14.4,1,3.43,2.31,9.11,5.75,11.12v.3a.75.75,0,0,0,.37.82c-.45.22-.82.52-1.2.75-4.47-2.62-6-9-7.23-13.66S25.35,159.66,29.68,156C33.56,152.72,38,156.45,38.78,160.7Z"
       transform="translate(-19.92 -9.25)"
       id="path364132" />
    <path
       d="M37.51,201.23A1.06,1.06,0,0,1,39.6,201a10,10,0,0,0-1.34.38,1.36,1.36,0,0,1-.75,0Z"
       transform="translate(-19.92 -9.25)"
       id="path364134" />
    <path
       d="M38.26,182.72c0-.08.07-.08.07-.15-.07.37-.07.75-.14,1.12A.92.92,0,0,1,38.26,182.72Z"
       transform="translate(-19.92 -9.25)"
       id="path364136" />
    <path
       d="M38.11,184.36v.08a1.14,1.14,0,0,1-.75.89,1.45,1.45,0,0,0-.22-.52c.08-.08.15-.08.3-.15a.28.28,0,0,0,.15-.08C37.74,184.51,38,184.44,38.11,184.36Z"
       transform="translate(-19.92 -9.25)"
       id="path364138" />
    <path
       d="M37.44,184.73a.29.29,0,0,0,.15-.07C37.51,184.66,37.51,184.73,37.44,184.73Z"
       transform="translate(-19.92 -9.25)"
       id="path364140" />
    <path
       d="M37.36,185.33a1,1,0,0,1-.52,1.19.66.66,0,0,1-.74,0,5.39,5.39,0,0,1-1.05-.52,9,9,0,0,1,1.2-.74A1.2,1.2,0,0,0,37.36,185.33Z"
       transform="translate(-19.92 -9.25)"
       id="path364142" />
    <path
       d="M37.14,184.88a.68.68,0,0,1,.22.53,1.06,1.06,0,0,1-1-.08A7.56,7.56,0,0,0,37.14,184.88Z"
       transform="translate(-19.92 -9.25)"
       id="path364144" />
    <path
       d="M37.44,184.73c-.08.08-.15.08-.3.15a.07.07,0,0,0-.07-.07A.62.62,0,0,0,37.44,184.73Z"
       transform="translate(-19.92 -9.25)"
       id="path364146" />
    <path
       d="M37.07,184.81h0a2.87,2.87,0,0,1-.75.52.81.81,0,0,1-.37-.82v-.22A1.12,1.12,0,0,0,37.07,184.81Z"
       transform="translate(-19.92 -9.25)"
       id="path364148" />
    <path
       d="M37.07,184.81a1.12,1.12,0,0,1-1.12-.52h0c.22.15.44.22.67.37A.41.41,0,0,1,37.07,184.81Z"
       transform="translate(-19.92 -9.25)"
       id="path364150" />
    <path
       class="cls-10"
       d="M36,158.84c1,1.12.89,3.8.89,5.22,0,1.94-.15,3.88-.22,5.9q-.34,6.93-.67,13.88c0,.15,0,.3.07.37-3.43-2-4.7-7.69-5.75-11.12-1.19-4-2.76-10.6-.22-14.4.52-.52,1.05-1,1.49-1.5C33,157.79,34.45,158.31,36,158.84Z"
       transform="translate(-19.92 -9.25)"
       id="path364152" />
    <path
       d="M35.27,192.2a1.41,1.41,0,0,1,1.2,2.09,1.07,1.07,0,0,1-1.27.44.38.38,0,0,0,.3-.15,1.08,1.08,0,0,0,.52-1,1,1,0,0,0-.15-.44v-.08c0,.15.08.23.08.38-.08-.15-.3,0-.68.22-.67.37-.89.22-.67-.52a1.05,1.05,0,0,0,.38,1.41c.07,0,.15.08.22.08a1,1,0,0,1-1.12-.52,1.61,1.61,0,0,1,0-1.42A1.76,1.76,0,0,1,35.27,192.2Z"
       transform="translate(-19.92 -9.25)"
       id="path364154" />
    <path
       d="M36,193.69a1,1,0,0,1-.52,1c-.08.07-.23.07-.3.15s-.15-.08-.22-.08a1,1,0,0,1-.38-1.41c-.22.74,0,.89.67.52.38-.3.6-.37.68-.23h0c.07-.07.07,0,.07.08Z"
       transform="translate(-19.92 -9.25)"
       id="path364156" />
    <path
       d="M36,193.69h0v-.15h0c0-.15-.07-.22-.07-.37v.07C36,193.39,36,193.54,36,193.69Z"
       transform="translate(-19.92 -9.25)"
       id="path364158" />
    <path
       d="M36,184.21Z"
       transform="translate(-19.92 -9.25)"
       id="path364160" />
    <path
       d="M36,193.61v0Z"
       transform="translate(-19.92 -9.25)"
       id="path364162" />
    <path
       class="cls-11"
       d="M74.23,188.61l.75,1a4,4,0,0,1,.3.53,6.76,6.76,0,0,1,.82,2,1.07,1.07,0,0,0,1.57.6.92.92,0,0,0,.44-1.12,4.2,4.2,0,0,0-.37-1,10.27,10.27,0,0,0-1.27-2.31,12.26,12.26,0,0,0-2.31-2.46A14.23,14.23,0,0,0,72,184.21c-4.55-2.76-10.67-3.88-15.52-4a38.13,38.13,0,0,0-15.22,2.69l-1.12.45a14.94,14.94,0,0,0-1.65.74c-.15.08-.37.15-.52.23a1.94,1.94,0,0,0-.52.29.24.24,0,0,0-.15.08c-.07.07-.15.07-.3.15-.3.15-.52.3-.82.45-.45.22-.82.52-1.19.74a12.47,12.47,0,0,0-3.81,3.81c-4.55,7.31.9,16.64,7,21,8.13,5.82,19.77,6,29,2.76,9.63-3.43,11.94-11.94,10.38-20.82l-.45-2.24-.23-.9a1,1,0,0,0-2,0c0,.15-.08.23,0,.38v.15c1.19,4.4,1.94,9.4.22,13.8-2.09,5.38-7.53,7.69-12.76,8.81-10.15,2.09-22.31.3-28.21-9.18-2.84-4.63-3.66-11,1-14.78a22.44,22.44,0,0,1,2.17-1.49,33,33,0,0,1,11-4.25c6.42-1.27,17.76-1.12,23.88,3.73.23.22.52.37.75.6a5.43,5.43,0,0,1,1.34,1.26"
       transform="translate(-19.92 -9.25)"
       id="path364164" />
    <path
       class="cls-11"
       d="M73,187.35a1,1,0,0,0,1.27-1c0-.23-.08-.38-.08-.6-.15-1.57-.3-3.51.75-4.7,1.71-1.87,4.4-.3,5.82,1s3.66,3.81,1.27,5.37a7.11,7.11,0,0,1-5.52.75,4,4,0,0,1-1-.3.89.89,0,0,0-1.19.6h0A1.11,1.11,0,0,0,75,190h0c.07,0,.22.07.3.07a15.5,15.5,0,0,0,1.94.38,1.34,1.34,0,0,1,.52.07,8.64,8.64,0,0,0,6.49-2c2.47-2.39.3-5.45-1.49-7.39-1.94-2.09-4.93-3.88-7.84-2.54-2.31,1-2.83,3.36-2.83,5.6a18.47,18.47,0,0,0,.15,2.16c0,.15.07.22.07.3A1.08,1.08,0,0,0,73,187.35Z"
       transform="translate(-19.92 -9.25)"
       id="path364166" />
    <path
       class="cls-11"
       d="M36,184.21h0a1.06,1.06,0,0,0,1.12.6c.15,0,.22,0,.3-.08a.29.29,0,0,0,.15-.07,1,1,0,0,0,.45-.82c.15-4,.37-7.91.52-11.94a73.05,73.05,0,0,0,.37-9.11c0-.67-.15-1.42-.22-2.09-.75-4.25-5.23-8-9.18-4.7-4.4,3.66-2.91,11.64-1.64,16.42s2.76,11,7.24,13.66a4.6,4.6,0,0,0,1,.52.89.89,0,0,0,.75,0,1.24,1.24,0,0,0,.52-1.19,1.71,1.71,0,0,0-.22-.53.07.07,0,0,0-.08-.07.59.59,0,0,0-.37-.23,5.83,5.83,0,0,1-.75-.37h0"
       transform="translate(-19.92 -9.25)"
       id="path364168" />
    <path
       class="cls-11"
       d="M36,184.21c-3.43-2-4.7-7.69-5.75-11.12-1.19-4-2.76-10.6-.22-14.4.52-.52,1.05-1,1.49-1.5,1.42.53,2.91,1.12,4.33,1.65,1.05,1.12.9,3.8.9,5.22,0,1.94-.15,3.88-.23,5.9q-.33,6.93-.67,13.88C36,184,36,184.06,36,184.21Z"
       transform="translate(-19.92 -9.25)"
       id="path364170" />
    <path
       class="cls-11"
       d="M38.33,182.57c0,.07-.07.07-.07.15a.91.91,0,0,0,0,1,.68.68,0,0,0,.45.45,1,1,0,0,0,1.42-.38c.07-.15.15-.22.22-.37a67.12,67.12,0,0,1,6.42-9.33c1.71-2.09,4-4,5.07-6.64,1.42-3.58-.67-9.85-4.48-11.27-4.17-1.57-6.94,3.06-8.28,6.64-.22.52-.37,1.05-.52,1.49-2,6.42-1.64,13.29-2.46,19.93h0v.23a.75.75,0,0,0,.37.82,1.25,1.25,0,0,0,1,.07,1.14,1.14,0,0,0,.75-.89v-.08c0-.22.07-.52.07-.75a2.6,2.6,0,0,1,0-1"
       transform="translate(-19.92 -9.25)"
       id="path364172" />
    <path
       class="cls-11"
       d="M38.33,182.57c.38-3.73.45-7.39.9-11.12.3-2.91,3.28-17.69,8.81-11.94a7.66,7.66,0,0,1,1.79,6.79c-.67,2.54-3,4.4-4.63,6.34A65.71,65.71,0,0,0,38.33,182.57Z"
       transform="translate(-19.92 -9.25)"
       id="path364174" />
    <path
       class="cls-11"
       d="M35.2,194.73a.38.38,0,0,0,.3-.15,1.08,1.08,0,0,0,.52-1,1,1,0,0,0-.15-.44v-.08c0,.15.08.23.08.38"
       transform="translate(-19.92 -9.25)"
       id="path364176" />
    <path
       class="cls-11"
       d="M35.2,194.73a1.07,1.07,0,0,0,1.27-.44,1.41,1.41,0,0,0-1.2-2.09,1.34,1.34,0,0,0-1.19.67,1.39,1.39,0,0,0,0,1.42A1,1,0,0,0,35.2,194.73Z"
       transform="translate(-19.92 -9.25)"
       id="path364178" />
    <path
       class="cls-11"
       d="M36,193.54c-.07-.15-.3,0-.67.22-.67.38-.9.23-.67-.52a1.07,1.07,0,0,0,.37,1.42c.08,0,.15.07.22.07"
       transform="translate(-19.92 -9.25)"
       id="path364180" />
    <path
       class="cls-11"
       d="M36,193.69h0v-.15"
       transform="translate(-19.92 -9.25)"
       id="path364182" />
    <path
       class="cls-11"
       d="M36,193.54v.07"
       transform="translate(-19.92 -9.25)"
       id="path364184" />
    <path
       class="cls-11"
       d="M36,193.54h0"
       transform="translate(-19.92 -9.25)"
       id="path364186" />
    <path
       class="cls-11"
       d="M40.8,192.79h0c0,.08,0,.15.07.15"
       transform="translate(-19.92 -9.25)"
       id="path364188" />
    <path
       class="cls-11"
       d="M40.8,192.64h0"
       transform="translate(-19.92 -9.25)"
       id="path364190" />
    <path
       class="cls-11"
       d="M40.8,192.72v.07h0"
       transform="translate(-19.92 -9.25)"
       id="path364192" />
    <path
       class="cls-11"
       d="M40.87,192.87h0"
       transform="translate(-19.92 -9.25)"
       id="path364194" />
    <path
       class="cls-11"
       d="M40.87,192.94h0"
       transform="translate(-19.92 -9.25)"
       id="path364196" />
    <path
       class="cls-11"
       d="M42,192.87a.28.28,0,0,1-.07.22h0c-.23.52-.82.38-1.05-.15"
       transform="translate(-19.92 -9.25)"
       id="path364198" />
    <path
       class="cls-11"
       d="M42,192.87h0v0Z"
       transform="translate(-19.92 -9.25)"
       id="path364200" />
    <path
       class="cls-11"
       d="M42,192.87h0"
       transform="translate(-19.92 -9.25)"
       id="path364202" />
    <path
       class="cls-11"
       d="M41,192.72h0a4.28,4.28,0,0,0,.9.37c.07,0,.15.08.22.08s-.07-.15-.15-.23a.07.07,0,0,0-.07-.07"
       transform="translate(-19.92 -9.25)"
       id="path364204" />
    <path
       class="cls-11"
       d="M41,192.72h0"
       transform="translate(-19.92 -9.25)"
       id="path364206" />
    <path
       class="cls-11"
       d="M40.87,192.79h0"
       transform="translate(-19.92 -9.25)"
       id="path364208" />
    <path
       class="cls-11"
       d="M40.87,192.79h0"
       transform="translate(-19.92 -9.25)"
       id="path364210" />
    <path
       class="cls-11"
       d="M40.87,192.79h0"
       transform="translate(-19.92 -9.25)"
       id="path364212" />
    <path
       class="cls-11"
       d="M40.87,192.87h0c.08-.08.08-.15.15-.15"
       transform="translate(-19.92 -9.25)"
       id="path364214" />
    <line
       class="cls-11"
       x1="20.95"
       y1="183.62"
       x2="20.95"
       y2="183.62"
       id="line364216" />
    <path
       class="cls-11"
       d="M40.87,192.87h0"
       transform="translate(-19.92 -9.25)"
       id="path364218" />
    <path
       class="cls-11"
       d="M40.87,192.79h0"
       transform="translate(-19.92 -9.25)"
       id="path364220" />
    <path
       class="cls-11"
       d="M40.87,192.79h0"
       transform="translate(-19.92 -9.25)"
       id="path364222" />
    <path
       class="cls-11"
       d="M40.87,192.79h0"
       transform="translate(-19.92 -9.25)"
       id="path364224" />
    <polyline
       class="cls-11"
       points="20.95 183.54 20.95 183.54 20.95 183.54"
       id="polyline364226" />
    <path
       class="cls-11"
       d="M40.87,192.79h0"
       transform="translate(-19.92 -9.25)"
       id="path364228" />
    <line
       class="cls-11"
       x1="20.95"
       y1="183.62"
       x2="20.95"
       y2="183.62"
       id="line364230" />
    <path
       class="cls-11"
       d="M40.87,192.94h0v-.15"
       transform="translate(-19.92 -9.25)"
       id="path364232" />
    <line
       class="cls-11"
       x1="20.95"
       y1="183.69"
       x2="20.95"
       y2="183.69"
       id="line364234" />
    <path
       class="cls-11"
       d="M42.81,192.27a1.07,1.07,0,0,0-1.27-.67,1.13,1.13,0,0,0-.74,1V193"
       transform="translate(-19.92 -9.25)"
       id="path364236" />
    <path
       class="cls-11"
       d="M42.81,192.27a1.47,1.47,0,0,0-.74-.89,1.7,1.7,0,0,0-1.35.07c-1,.6-.89,1.87-.37,2.76a1.09,1.09,0,0,0,1.19.52,1.94,1.94,0,0,0,1.35-2.38Z"
       transform="translate(-19.92 -9.25)"
       id="path364238" />
    <path
       class="cls-11"
       d="M40.87,192.94a1,1,0,0,0,1,.67,1,1,0,0,0,1-1,.62.62,0,0,0-.08-.37"
       transform="translate(-19.92 -9.25)"
       id="path364240" />
    <path
       class="cls-11"
       d="M37.51,201.45a4.54,4.54,0,0,0,3.66,4.4,1.07,1.07,0,0,0,1.34-1v-5.08c0-.52-.52-1.12-1-1a16.58,16.58,0,0,0-3.81.75A1.13,1.13,0,0,0,37.51,201.45Z"
       transform="translate(-19.92 -9.25)"
       id="path364242" />
    <path
       class="cls-11"
       d="M40.42,203.17a2.44,2.44,0,0,1-.82-1.87v-.22a1.06,1.06,0,0,0-2.09.22v.15"
       transform="translate(-19.92 -9.25)"
       id="path364244" />
    <path
       class="cls-11"
       d="M40.42,203.17v1.64c.45-.37.9-.67,1.35-1.05A2.76,2.76,0,0,1,40.42,203.17Z"
       transform="translate(-19.92 -9.25)"
       id="path364246" />
    <path
       class="cls-11"
       d="M40.42,200.93v2.24"
       transform="translate(-19.92 -9.25)"
       id="path364248" />
    <path
       class="cls-11"
       d="M40.42,200.93c.38-.08.68-.08,1-.15l-1-1.05Z"
       transform="translate(-19.92 -9.25)"
       id="path364250" />
    <path
       class="cls-11"
       d="M37.51,201.45a.85.85,0,0,0,.75,0,8.66,8.66,0,0,1,1.34-.37,3,3,0,0,1,.82-.15"
       transform="translate(-19.92 -9.25)"
       id="path364252" />
    <path
       d="M82.54,99.84c1.37,3.11.46,7-2.72,8.56a5,5,0,0,1-5.12-.33,9.41,9.41,0,0,0-.91-3.56,1,1,0,0,1,.65.58,3.43,3.43,0,0,0,5.71.91,5.06,5.06,0,0,0,.38-6.16c-1.23-2-3.5-3-5.64-1.56-1.75,1.17-2.07,3.24-1.68,5.12a14.32,14.32,0,0,0-1.88-2.46,5.86,5.86,0,0,1,3.37-4.61C77.94,94.71,81.18,96.66,82.54,99.84Z"
       transform="translate(-19.92 -9.25)"
       id="path364254" />
    <path
       class="cls-12"
       d="M80.47,99.77a5.06,5.06,0,0,1-.39,6.16,3.44,3.44,0,0,1-5.71-.9,1,1,0,0,0-.65-.59l-.58-1.17a4.75,4.75,0,0,1,1.69-5.12C77,96.79,79.24,97.76,80.47,99.77Z"
       transform="translate(-19.92 -9.25)"
       id="path364256" />
    <path
       d="M74.31,110.34c1.17,3.25,1.36,6.55-1.36,9.34-3.25,3.37-8.37,5.38-12.91,6.23a30.53,30.53,0,0,1-23.86-5.13c-6.29-4.67-11.35-13.81-6-21.07a13.24,13.24,0,0,1,4-3.63c.07.06.13.06.19.13a.06.06,0,0,1,.07.06,1.14,1.14,0,0,0,1.23.39l.33.65a16.84,16.84,0,0,0-2.14,1.29c-4.54,3.38-5,9.47-2.47,14.27,4.22,7.91,14.07,11.87,22.63,11.87A28.11,28.11,0,0,0,66.4,122c2.27-1.1,5.12-2.66,6.35-4.93s.65-4.47-.26-6.55l.59-.19A.88.88,0,0,0,74.31,110.34Z"
       transform="translate(-19.92 -9.25)"
       id="path364258" />
    <path
       d="M74.7,109.63a.89.89,0,0,1-.39.71c-.39-1-.84-2.07-1.3-3a.62.62,0,0,0-.32-.38h0a7.23,7.23,0,0,0-.33-1.24.91.91,0,0,0,.46.07A5.16,5.16,0,0,0,74.76,108,15.17,15.17,0,0,0,74.7,109.63Z"
       transform="translate(-19.92 -9.25)"
       id="path364260" />
    <path
       class="cls-12"
       d="M72.43,110.47c.84,2.14,1.42,4.48.26,6.55-1.23,2.27-4.09,3.83-6.36,4.93A28.89,28.89,0,0,1,54,124.74c-8.56,0-18.48-4-22.63-11.87-2.53-4.8-2.08-10.83,2.46-14.27A10.78,10.78,0,0,1,36,97.31C39.61,95.49,44.09,95,48,95c6.94-.06,19.13,2,23.35,8.82a9.84,9.84,0,0,0,.45,1.36,1,1,0,0,0,.52.52,8.08,8.08,0,0,1,.32,1.24c-.65-.39-1.62.45-1.23,1.29S72.1,109.69,72.43,110.47Zm-30.94-1.94c1-.52.07-2.08-1-1.56a7.7,7.7,0,0,1-6.1.39c-1.1-.39-1.55,1.43-.45,1.75A9.23,9.23,0,0,0,41.49,108.53Zm-3.63-4.8a1.81,1.81,0,0,0,1.75-1.82.94.94,0,0,0-1-.91.88.88,0,0,0-.78.52.83.83,0,0,0-.91-.58,1,1,0,0,0-.9,1A1.9,1.9,0,0,0,37.86,103.73Zm-4.28.58c.65-.26,1.49-.84,1.36-1.62a1.48,1.48,0,0,0-1.55-1.23,1.28,1.28,0,0,0-.52.19,1,1,0,0,0-1,.2,1.37,1.37,0,0,0-.13,1.81A1.55,1.55,0,0,0,33.58,104.31Z"
       transform="translate(-19.92 -9.25)"
       id="path364262" />
    <path
       d="M74.31,110.34a1,1,0,0,1-1.3-.13.59.59,0,0,1-.13-.58,9.94,9.94,0,0,0-.19-2.79.67.67,0,0,1,.32.39C73.47,108.33,73.92,109.31,74.31,110.34Z"
       transform="translate(-19.92 -9.25)"
       id="path364264" />
    <path
       d="M73,110.28l-.58.19a23.47,23.47,0,0,0-1-2.2,1,1,0,0,1,1.23-1.3h0a9.56,9.56,0,0,1,.2,2.79A.74.74,0,0,0,73,110.28Z"
       transform="translate(-19.92 -9.25)"
       id="path364266" />
    <path
       d="M73.79,104.51a12.66,12.66,0,0,1,.91,3.56,5.12,5.12,0,0,1-2-2.27c.59,0,1.1-.45.85-1.1,0-.06-.07-.13-.07-.19S73.66,104.44,73.79,104.51Z"
       transform="translate(-19.92 -9.25)"
       id="path364268" />
    <path
       d="M73.79,104.51c-.07,0-.19-.07-.26,0a7.28,7.28,0,0,1-.32-1.17A9.11,9.11,0,0,1,73.79,104.51Z"
       transform="translate(-19.92 -9.25)"
       id="path364270" />
    <path
       d="M73.53,104.64a.8.8,0,0,1-.84,1.1.24.24,0,0,1-.07-.2c-.26-.64.26-1.1.85-1.1A.26.26,0,0,1,73.53,104.64Z"
       transform="translate(-19.92 -9.25)"
       id="path364272" />
    <path
       d="M72.62,105.61c0,.06.07.13.07.19a1.22,1.22,0,0,1-.46-.06,10.48,10.48,0,0,0-.9-1.88,8.71,8.71,0,0,1-.13-2.92,14.32,14.32,0,0,1,1.88,2.46,7.28,7.28,0,0,0,.32,1.17A.72.72,0,0,0,72.62,105.61Z"
       transform="translate(-19.92 -9.25)"
       id="path364274" />
    <path
       d="M72.3,105.67a1,1,0,0,1-.52-.52,9.84,9.84,0,0,1-.45-1.36A7.81,7.81,0,0,1,72.3,105.67Z"
       transform="translate(-19.92 -9.25)"
       id="path364276" />
    <path
       d="M71.26,100.87a7.37,7.37,0,0,0,.13,2.92C67.17,97,55,95,48,95c-3.95,0-8.36.46-12,2.34l-.33-.65a.79.79,0,0,0,.39-.58,5.49,5.49,0,0,1,.13-1,1.08,1.08,0,0,0,1-.39c5.84-2.2,13.23-1.88,18.68-.9C61,94.78,67.43,96.85,71.26,100.87Z"
       transform="translate(-19.92 -9.25)"
       id="path364278" />
    <path
       d="M46.62,66.57c4.54.78,5.7,9.08,4.15,12.38-1.23,2.79-3.89,5.19-5.84,7.46a44.63,44.63,0,0,1-7.07,6.94.6.6,0,0,1-.65.13A17.59,17.59,0,0,1,37,91.73C40.59,89,43.37,85.44,46.23,82c1.81-2.2,3.63-4.15,3.37-7.2-.19-2.52-2.33-8.56-5.77-5.25a21.17,21.17,0,0,0-4.28,5.84,2,2,0,0,1,.06-.59A13.83,13.83,0,0,0,39.48,72C41.17,69,43.7,66.05,46.62,66.57Z"
       transform="translate(-19.92 -9.25)"
       id="path364280" />
    <path
       d="M40.52,107c1-.52,2,1,1,1.56a9.38,9.38,0,0,1-7.45.65c-1.11-.39-.72-2.14.45-1.76A7.53,7.53,0,0,0,40.52,107Z"
       transform="translate(-19.92 -9.25)"
       id="path364282" />
    <path
       class="cls-12"
       d="M49.54,74.8c.25,3.12-1.5,5-3.38,7.2-2.92,3.44-5.7,7-9.27,9.73a8.07,8.07,0,0,1-.13-1.3c.32-2.2.71-4.34,1.17-6.55a63.74,63.74,0,0,0,1.55-8.56,21.32,21.32,0,0,1,4.28-5.83C47.2,66.24,49.34,72.28,49.54,74.8Z"
       transform="translate(-19.92 -9.25)"
       id="path364284" />
    <path
       d="M37.8,101.91H38v-.06c0-.13,0-.2-.06-.26a.78.78,0,0,1,.78-.52,1,1,0,0,1,1,.91,1.85,1.85,0,0,1-1.75,1.81A1.75,1.75,0,0,1,36.18,102a.94.94,0,0,1,.9-1,1,1,0,0,1,.91.59c-.13.06-.13.19-.19.32Z"
       transform="translate(-19.92 -9.25)"
       id="path364286" />
    <path
       d="M37.93,101.91Z"
       transform="translate(-19.92 -9.25)"
       id="path364288" />
    <path
       d="M37.93,101.91Z"
       transform="translate(-19.92 -9.25)"
       id="path364290" />
    <path
       d="M37.93,101.91Z"
       transform="translate(-19.92 -9.25)"
       id="path364292" />
    <path
       d="M37.93,101.91Z"
       transform="translate(-19.92 -9.25)"
       id="path364294" />
    <path
       d="M37.93,101.91Zm-.07,0h0a.54.54,0,0,1,.07-.32.4.4,0,0,1,.06.26v.06h0v0h-.13Z"
       transform="translate(-19.92 -9.25)"
       id="path364296" />
    <path
       d="M37.93,101.91Z"
       transform="translate(-19.92 -9.25)"
       id="path364298" />
    <path
       d="M37.93,101.91Z"
       transform="translate(-19.92 -9.25)"
       id="path364300" />
    <path
       d="M37.93,101.85Z"
       transform="translate(-19.92 -9.25)"
       id="path364302" />
    <path
       d="M37.93,101.91Z"
       transform="translate(-19.92 -9.25)"
       id="path364304" />
    <path
       d="M37.93,101.91Z"
       transform="translate(-19.92 -9.25)"
       id="path364306" />
    <path
       d="M37.93,101.91Z"
       transform="translate(-19.92 -9.25)"
       id="path364308" />
    <path
       d="M37.8,101.91Z"
       transform="translate(-19.92 -9.25)"
       id="path364310" />
    <path
       d="M37.86,101.91Z"
       transform="translate(-19.92 -9.25)"
       id="path364312" />
    <path
       d="M37.8,101.91Z"
       transform="translate(-19.92 -9.25)"
       id="path364314" />
    <path
       d="M37.86,101.85h0c0,.06-.06.06,0,0Z"
       transform="translate(-19.92 -9.25)"
       id="path364316" />
    <path
       d="M37.8,101.91Z"
       transform="translate(-19.92 -9.25)"
       id="path364318" />
    <path
       d="M37.8,101.91v0Z"
       transform="translate(-19.92 -9.25)"
       id="path364320" />
    <path
       d="M37.8,101.91Z"
       transform="translate(-19.92 -9.25)"
       id="path364322" />
    <path
       d="M37.8,101.91Z"
       transform="translate(-19.92 -9.25)"
       id="path364324" />
    <path
       d="M37.8,101.91Z"
       transform="translate(-19.92 -9.25)"
       id="path364326" />
    <path
       d="M37.8,101.91Z"
       transform="translate(-19.92 -9.25)"
       id="path364328" />
    <path
       d="M37.8,101.91Z"
       transform="translate(-19.92 -9.25)"
       id="path364330" />
    <path
       d="M37.28,94a.81.81,0,0,1-.13.71l-1,.39c.13-.91.19-1.88.32-2.79h0a.94.94,0,0,0,.65,1.17A1.73,1.73,0,0,1,37.28,94Z"
       transform="translate(-19.92 -9.25)"
       id="path364332" />
    <path
       d="M34.94,102.69c.07.78-.77,1.36-1.36,1.62a1.64,1.64,0,0,1-1.88-.58,1.39,1.39,0,0,1,.13-1.82,1,1,0,0,1,1-.19.91.91,0,0,0-.33.71,1,1,0,0,0,1,.91c.19,0-.07,0-.13-.07s-.13-.13-.13-.19a1.09,1.09,0,0,0,.13-.78c0-.06,0-.06.06-.13l-.06.07a1.47,1.47,0,0,0-.26-.39c-.07-.07-.2-.13-.26-.2a.73.73,0,0,1,.52-.19A1.43,1.43,0,0,1,34.94,102.69Z"
       transform="translate(-19.92 -9.25)"
       id="path364334" />
    <path
       d="M37.21,93.48a1,1,0,0,1-.64-1.17A.72.72,0,0,1,37,91.8h0A7,7,0,0,0,37.21,93.48Z"
       transform="translate(-19.92 -9.25)"
       id="path364336" />
    <path
       d="M36.18,95.1l1-.39a.89.89,0,0,1-1,.39Z"
       transform="translate(-19.92 -9.25)"
       id="path364338" />
    <path
       d="M36.05,96.08c-.07.32-.2.51-.39.58a1.09,1.09,0,0,1-1.24-.39c.65.39,1.3-.32,1.17-1,.13-.07.33-.13.46-.2h0A2.69,2.69,0,0,1,36.05,96.08Z"
       transform="translate(-19.92 -9.25)"
       id="path364340" />
    <path
       d="M36.18,95.1Z"
       transform="translate(-19.92 -9.25)"
       id="path364342" />
    <path
       d="M36.18,95.1h0a.83.83,0,0,1-.65-.58,28.47,28.47,0,0,1-.59-4c.46-3.17,1.11-6.35,1.75-9.47a40.65,40.65,0,0,0,.85-5.51A36.42,36.42,0,0,1,39.35,72a13.8,13.8,0,0,1,.13,2.85,1.91,1.91,0,0,1-.06.58,28.34,28.34,0,0,0-2.73,15.11c-.06.59-.19,1.24-.25,1.82C36.37,93.22,36.24,94.19,36.18,95.1Z"
       transform="translate(-19.92 -9.25)"
       id="path364344" />
    <path
       d="M35.53,94.52a.76.76,0,0,0,.58.65l-.45.19a.88.88,0,0,0-.39-.71,7.46,7.46,0,0,1-.78-.65c.13-1.17.32-2.33.45-3.5A28,28,0,0,0,35.53,94.52Z"
       transform="translate(-19.92 -9.25)"
       id="path364346" />
    <path
       d="M36.89,91.73h0a1.08,1.08,0,0,0-.39.58h0c.07-.58.19-1.23.26-1.81C36.82,90.89,36.82,91.34,36.89,91.73Z"
       transform="translate(-19.92 -9.25)"
       id="path364348" />
    <path
       d="M35.66,95.36c.06.65-.52,1.36-1.17,1a.43.43,0,0,1-.13-.25A8.53,8.53,0,0,1,35.66,95.36Z"
       transform="translate(-19.92 -9.25)"
       id="path364350" />
    <path
       d="M32.93,102.56a.24.24,0,0,1,.2.07h0c0,.06,0,.06.06.06h0V103h0c-.13.19-.13.26-.06.13l.06-.07c.07.07.07.13.13.2s.26,0,.13.06c-.52.07-.91-.45-1-.9a.85.85,0,0,1,.32-.72c.07.07.2.13.26.2a1.26,1.26,0,0,1,.26.39l-.13.13-.06.06c0,.07-.07.13-.2.13Z"
       transform="translate(-19.92 -9.25)"
       id="path364352" />
    <path
       d="M37.93,84c-.46,2.14-.85,4.34-1.17,6.55a29,29,0,0,1,2.72-15.11A54.53,54.53,0,0,1,37.93,84Z"
       transform="translate(-19.92 -9.25)"
       id="path364354" />
    <path
       d="M35.27,94.65a.88.88,0,0,1,.39.71,13.69,13.69,0,0,0-1.36.72.77.77,0,0,1-.07-.39c.07-.52.13-1.11.19-1.62C34.68,94.26,35,94.45,35.27,94.65Z"
       transform="translate(-19.92 -9.25)"
       id="path364356" />
    <path
       d="M33.39,102.37a1.12,1.12,0,0,1-.13.77.06.06,0,0,0-.07-.06V103h0V103Z"
       transform="translate(-19.92 -9.25)"
       id="path364358" />
    <path
       d="M33.26,103.08l-.07.06c-.13.13-.13.13.07-.06Z"
       transform="translate(-19.92 -9.25)"
       id="path364360" />
    <path
       d="M33.26,103h0V103C33.19,103,33.26,103,33.26,103Z"
       transform="translate(-19.92 -9.25)"
       id="path364362" />
    <path
       d="M33.19,103.08Z"
       transform="translate(-19.92 -9.25)"
       id="path364364" />
    <path
       d="M33.19,103Z"
       transform="translate(-19.92 -9.25)"
       id="path364366" />
    <path
       d="M33.26,102.76h0a.07.07,0,0,0-.07-.07h0a.24.24,0,0,1-.19-.06h.06c.07,0,.13-.07.2-.13l.06-.07.13-.13v.07c-.06.19-.06.39-.13.58a.25.25,0,0,1-.06-.19Z"
       transform="translate(-19.92 -9.25)"
       id="path364368" />
    <path
       d="M33.39,102.24c0,.06,0,.06-.07.13s.07-.07.07-.13Z"
       transform="translate(-19.92 -9.25)"
       id="path364370" />
    <path
       d="M33.19,103.08Z"
       transform="translate(-19.92 -9.25)"
       id="path364372" />
    <path
       d="M33.26,102.76Z"
       transform="translate(-19.92 -9.25)"
       id="path364374" />
    <path
       d="M33.26,102.76Z"
       transform="translate(-19.92 -9.25)"
       id="path364376" />
    <path
       d="M33.19,102.63Z"
       transform="translate(-19.92 -9.25)"
       id="path364378" />
    <path
       d="M33.19,102.63Z"
       transform="translate(-19.92 -9.25)"
       id="path364380" />
    <path
       d="M33,102.56Z"
       transform="translate(-19.92 -9.25)"
       id="path364382" />
    <path
       d="M34.49,96.33l-.07-.06c-.06-.06-.12-.06-.19-.13s.07-.06.13-.06A.43.43,0,0,0,34.49,96.33Z"
       transform="translate(-19.92 -9.25)"
       id="path364384" />
    <path
       d="M34.3,96.08c-.07,0-.07.06-.13.06-4.54-3.37-6.55-10.38-7.53-15.69C25.73,75.32,26.9,69,32,66.37,36.57,64,38.77,68,39.35,72a31.69,31.69,0,0,0-1.81,3.57c.39-4.41-.2-9.21-4.67-7.53C27.49,70,27.81,77.85,29,82.2c1,3.89,2.4,9,5.51,11.8-.07.52-.13,1.1-.19,1.62A1,1,0,0,0,34.3,96.08Z"
       transform="translate(-19.92 -9.25)"
       id="path364386" />
    <path
       class="cls-12"
       d="M34.94,90.56c-.19,1.17-.32,2.34-.45,3.51C31.38,91.21,30,86.15,29,82.26c-1.1-4.34-1.43-12.19,3.89-14.2,4.54-1.69,5.06,3.11,4.67,7.52a8.85,8.85,0,0,0-.39.91A28.39,28.39,0,0,0,34.94,90.56Z"
       transform="translate(-19.92 -9.25)"
       id="path364388" />
    <path
       d="M36.69,81c-.71,3.11-1.29,6.29-1.75,9.47a29.91,29.91,0,0,1,2.21-14.07c.13-.26.26-.59.39-.91A37.66,37.66,0,0,1,36.69,81Z"
       transform="translate(-19.92 -9.25)"
       id="path364390" />
    <path
       d="M304.63,131.53c14.77-2.75,30.08-4.56,45-2.07s27.49,9.76,39.07,19c23.76,18.94,45.78,40.55,67.55,61.71L458.7,207,420.19,187.1l-2,3.45a257.53,257.53,0,0,1,43.42,24.27c1.69,1.17,3.73-1.09,2.74-2.73a118.08,118.08,0,0,1-14.67-37.93c-.5-2.52-4.36-1.46-3.85,1.06a121.09,121.09,0,0,0,15.07,38.89l2.73-2.74a256.84,256.84,0,0,0-43.42-24.27c-2.3-1-4.35,2.25-2,3.45l38.51,19.93c2,1,4.11-1.5,2.42-3.14q-18.17-17.65-36.87-34.74c-11.42-10.42-22.78-21.18-35.17-30.46-11.9-8.92-25-15.13-39.83-17-14.58-1.88-29.3-.09-43.66,2.58-2.53.47-1.46,4.33,1.06,3.86Z"
       transform="translate(-19.92 -9.25)"
       id="path364830" />
  </g>
  <metadata
     id="metadata372721">
    <rdf:RDF>
      <cc:Work
         rdf:about="">
        <dc:title>full_new</dc:title>
      </cc:Work>
    </rdf:RDF>
  </metadata>
</svg>
