<?xml version="1.0" encoding="UTF-8" standalone="no"?>
<svg
   viewBox="0 0 1175.48 577.35"
   version="1.1"
   id="svg383737"
   sodipodi:docname="gadma_3.svg"
   xml:space="preserve"
   inkscape:version="1.2.2 (1:1.2.2+202212051552+b0a8486541)"
   xmlns:inkscape="http://www.inkscape.org/namespaces/inkscape"
   xmlns:sodipodi="http://sodipodi.sourceforge.net/DTD/sodipodi-0.dtd"
   xmlns="http://www.w3.org/2000/svg"
   xmlns:svg="http://www.w3.org/2000/svg"
   xmlns:rdf="http://www.w3.org/1999/02/22-rdf-syntax-ns#"
   xmlns:cc="http://creativecommons.org/ns#"
   xmlns:dc="http://purl.org/dc/elements/1.1/"><sodipodi:namedview
     id="namedview383739"
     pagecolor="#ffffff"
     bordercolor="#000000"
     borderopacity="0.25"
     inkscape:showpageshadow="2"
     inkscape:pageopacity="0.0"
     inkscape:pagecheckerboard="0"
     inkscape:deskcolor="#d1d1d1"
     showgrid="false"
     inkscape:zoom="1.1082409"
     inkscape:cx="108.73087"
     inkscape:cy="212.04776"
     inkscape:window-width="1223"
     inkscape:window-height="779"
     inkscape:window-x="57"
     inkscape:window-y="21"
     inkscape:window-maximized="1"
     inkscape:current-layer="Layer_1" /><defs
     id="defs382375"><style
       id="style382361">.cls-1,.cls-11,.cls-17,.cls-18,.cls-20,.cls-22,.cls-24,.cls-26,.cls-27,.cls-33,.cls-4{fill:none;}.cls-2{fill:#d8d8d8;}.cls-11,.cls-3,.cls-33,.cls-4{stroke:#000;}.cls-14,.cls-15,.cls-16,.cls-17,.cls-18,.cls-26,.cls-27,.cls-29,.cls-3,.cls-30,.cls-33{stroke-linejoin:round;}.cls-3,.cls-4{stroke-width:0.8px;}.cls-17,.cls-18,.cls-4{stroke-linecap:square;}.cls-5{opacity:0.82;}.cls-6{fill:#c1272d;}.cls-7{fill:#fcee21;}.cls-8{fill:blue;}.cls-9{fill:#8cc63f;}.cls-10,.cls-29,.cls-30{fill:#fff;}.cls-11{stroke-miterlimit:10;}.cls-12{fill:#b3b3b3;}.cls-13{clip-path:url(#clip-path);}.cls-14,.cls-25{fill:#2ca02c;}.cls-14,.cls-15,.cls-16{fill-opacity:0.2;stroke-width:2px;stroke-dasharray:2 2;}.cls-14,.cls-18,.cls-24{stroke:#2ca02c;}.cls-15,.cls-23,.cls-32{fill:#ff7f0e;}.cls-15{stroke:#ff800f;}.cls-16{fill:#1e75b3;stroke:#1e75b3;}.cls-17,.cls-22,.cls-32{stroke:#ff7f0e;}.cls-17,.cls-18,.cls-32{stroke-opacity:0.5;}.cls-17,.cls-18{stroke-width:0.2px;}.cls-19{clip-path:url(#clip-path-24);}.cls-20,.cls-27,.cls-30{stroke:#1f77b4;}.cls-21{fill:#1f77b4;}.cls-21,.cls-23,.cls-25,.cls-32{fill-opacity:0.5;}.cls-26,.cls-29{stroke:#fff;stroke-width:3px;}.cls-26,.cls-27,.cls-29,.cls-30{stroke-linecap:round;}.cls-28{clip-path:url(#clip-path-42);}.cls-31{clip-path:url(#clip-path-46);}</style><clipPath
       id="clip-path"
       transform="translate(-19.92 -9.25)"><rect
         class="cls-1"
         x="70.17"
         y="382.26"
         width="154.4"
         height="203.34"
         id="rect382363" /></clipPath><clipPath
       id="clip-path-24"
       transform="translate(-19.92 -9.25)"><rect
         class="cls-1"
         x="1010.21"
         y="202.75"
         width="158.77"
         height="237.35"
         id="rect382366" /></clipPath><clipPath
       id="clip-path-42"
       transform="translate(-19.92 -9.25)"><rect
         class="cls-1"
         x="1005.58"
         y="202.75"
         width="158.77"
         height="237.35"
         id="rect382369" /></clipPath><clipPath
       id="clip-path-46"
       transform="translate(-19.92 -9.25)"><rect
         class="cls-1"
         x="1014.84"
         y="202.75"
         width="158.77"
         height="237.35"
         id="rect382372" /></clipPath></defs><title
     id="title382377">full_new</title><g
     id="Layer_1"
     data-name="Layer 1"><g
       id="g122303"
       transform="matrix(0.72640598,0,0,1.166461,96.931168,-89.991067)">
		<g
   id="g122301">
			<path
   d="m 268.3,454.2 c 41.1,-43.5 95.3,-73.5 153.9,-85.4 2.4,-0.5 1.5,-3.7 -0.5,-3.9 -16.9,-1.9 -33.8,-1 -50.5,2.4 -2.5,0.5 -1.4,4.3 1.1,3.9 19,-3.7 38.2,-6.2 57.5,-7.5 -0.3,-1.2 -0.7,-2.5 -1,-3.7 -14.6,9.8 -28.8,20.1 -42.7,30.9 -2,1.6 0.8,4.4 2.8,2.8 13.6,-10.6 27.6,-20.7 41.9,-30.3 1.5,-1 1.1,-3.9 -1,-3.7 -19.7,1.4 -39.2,4 -58.5,7.7 0.4,1.3 0.7,2.6 1.1,3.9 16.3,-3.4 32.9,-4.1 49.4,-2.3 -0.2,-1.3 -0.4,-2.6 -0.5,-3.9 -59.3,12 -114.1,42.5 -155.7,86.5 -1.9,1.7 0.9,4.5 2.7,2.6 z"
   id="path122299" />
		</g>
	</g><g
       id="g122315"
       transform="matrix(0.86960572,0,0,0.86960572,-433.40537,345.11217)">
		<g
   id="g122313">
			<path
   d="m 574.7,88.1 c -3.1,-5.6 -1.6,-14 5.6,-15.5 8.6,-1.7 11.8,7 8.7,13.8 -4.5,9.9 -14.8,18.3 -23.3,24.7 -0.4,0.3 -0.6,0.8 -0.4,1.4 1.5,2.9 4.5,3.3 7.6,3.2 6.5,-0.2 13,-1.2 19.4,-1.8 1.3,-0.1 1.3,-2.1 0,-2 -4.1,0.4 -8.1,0.8 -12.2,1.2 -3.2,0.3 -11,2.3 -13,-1.5 -0.1,0.5 -0.2,0.9 -0.4,1.4 7.7,-5.7 14.9,-12.4 20.7,-20.1 3.8,-5.1 7.6,-12.9 2.9,-18.7 -3.5,-4.4 -10.7,-4.9 -15,-1.5 -5,4 -5.3,11.2 -2.4,16.4 0.7,1.1 2.4,0.1 1.8,-1 z"
   id="path122311" />
		</g>
	</g><g
       id="g122321"
       transform="matrix(0.86960572,0,0,0.86960572,-433.40537,345.11217)">
		<g
   id="g122319">
			<path
   d="m 559.3,31.8 c -1,16.6 -0.4,33.3 1.5,49.8 0.2,1.3 2.2,1.3 2,0 -2,-16.5 -2.5,-33.2 -1.5,-49.8 0.1,-1.3 -1.9,-1.3 -2,0 z"
   id="path122317" />
		</g>
	</g><g
       id="g122327"
       transform="matrix(0.86960572,0,0,0.86960572,-433.40537,345.11217)">
		<g
   id="g122325">
			<path
   d="m 561.2,39.9 c -0.7,-4.2 3.9,-6.6 7.2,-5.8 1.9,0.5 3.7,1.9 5,3.3 2.8,3 5.4,8.5 3.6,12.5 -3,6.5 -10.3,2 -15,5.5 -1,0.8 0,2.5 1,1.7 4.4,-3.3 10.5,0.6 14.5,-4 3.9,-4.5 1.8,-11 -1.2,-15.3 -2.4,-3.5 -6.4,-6.7 -10.9,-5.8 -4.1,0.8 -6.7,4.3 -6.1,8.4 0.2,1.3 2.1,0.7 1.9,-0.5 z"
   id="path122323" />
		</g>
	</g><g
       id="g122333"
       transform="matrix(0.86960572,0,0,0.86960572,-433.40537,345.11217)">
		<g
   id="g122331">
			<path
   d="m 584.9,45.1 c -1.3,5.7 -1.4,14.4 6.6,14.3 7.1,-0.1 12.8,-7.5 12.4,-14.2 -0.4,-6.8 -6.9,-13 -13.8,-12.6 -8.2,0.5 -8.1,13.1 -6.9,18.9 0.2,1.3 2.2,0.7 1.9,-0.5 -0.9,-4.5 -1.4,-15.4 5,-16.4 5.2,-0.8 10.5,4.3 11.6,8.9 1.3,5.5 -2.3,11.6 -7.6,13.4 -8.5,2.9 -8.4,-6.1 -7.2,-11.2 0.2,-1.3 -1.7,-1.8 -2,-0.6 z"
   id="path122329" />
		</g>
	</g><g
       id="g122339"
       transform="matrix(0.86960572,0,0,0.86960572,-433.40537,345.11217)">
		<g
   id="g122337">
			<path
   d="m 619.8,40.2 c 2.3,-3.6 -0.9,-7.6 -4.8,-7.6 -6.4,-0.1 -8.6,6.6 -8.6,11.8 -0.1,5.2 -1.2,12 5.2,13.5 6,1.4 8.8,-0.9 13,-4.4 1,-0.8 -0.4,-2.2 -1.4,-1.4 -1.4,1.2 -3,3.1 -4.8,3.8 -3,1.1 -7.7,0.5 -9,-2.3 -1.2,-2.6 -0.9,-5.5 -1,-8.3 0,-1.8 -0.1,-3.8 0.5,-5.5 0.6,-1 1.2,-2.1 1.8,-3.1 2.8,-3.1 5.3,-2.2 7.5,2.6 -0.8,0.9 0.9,1.9 1.6,0.9 z"
   id="path122335" />
		</g>
	</g><g
       id="g122345"
       transform="matrix(0.86960572,0,0,0.86960572,-433.40537,345.11217)">
		<g
   id="g122343">
			<path
   d="m 624.2,16 c 2,13.9 3.1,27.9 3.2,41.9 0,1.3 2,1.3 2,0 -0.1,-14.2 -1.2,-28.4 -3.3,-42.5 -0.1,-1.2 -2.1,-0.7 -1.9,0.6 z"
   id="path122341" />
		</g>
	</g><g
       id="g122351"
       transform="matrix(0.86960572,0,0,0.86960572,-433.40537,345.11217)">
		<g
   id="g122349">
			<path
   d="m 629.8,43.1 c 2.9,-6.5 11,-7.9 12.9,0 1.1,4.6 1.3,9.5 2,14.2 0.2,1.3 2.1,0.7 1.9,-0.5 -0.6,-4.7 -1,-9.5 -2,-14.2 -0.6,-2.7 -1.6,-5.1 -4.2,-6.4 -5.2,-2.5 -10.2,1.2 -12.3,5.9 -0.6,1.2 1.1,2.2 1.7,1 z"
   id="path122347" />
		</g>
	</g><g
       id="g122357"
       transform="matrix(0.86960572,0,0,0.86960572,-433.40537,345.11217)">
		<g
   id="g122355">
			<path
   d="m 663.6,41.9 c -0.1,-3.7 -1.3,-7.8 -4.9,-9.6 -2.7,-1.4 -6.6,-0.7 -8.4,1.8 -2.2,3 -0.4,6.3 2.1,8.4 1.9,1.6 4.2,2.6 6.2,4 1.3,0.9 2.5,1.9 3.7,3 1.6,1 1.8,2.5 0.6,4.4 0.5,2.6 -0.5,4 -3.1,4.2 -3.5,1.5 -6.3,0.4 -8.5,-3.5 -0.1,-1.3 -2.1,-1.3 -2,0 0.8,8.2 14.3,7.9 17.3,1.4 1.9,-4.1 -2.7,-7.9 -5.5,-10.1 -2.2,-1.7 -5.4,-2.8 -7.3,-4.9 -3.8,-4 0.3,-9.6 4.8,-6 2.3,1.9 2.9,3.9 3,6.9 0,1.3 2,1.3 2,0 z"
   id="path122353" />
		</g>
	</g><g
       id="g122363"
       transform="matrix(0.86960572,0,0,0.86960572,-433.40537,345.11217)">
		<g
   id="g122361">
			<path
   d="m 608.6,78.1 c -0.5,11.7 0.3,23.3 2.4,34.9 0.2,1.3 2.2,0.7 1.9,-0.5 -2.1,-11.4 -2.9,-22.8 -2.4,-34.3 0.2,-1.4 -1.8,-1.4 -1.9,-0.1 z"
   id="path122359" />
		</g>
	</g><g
       id="g122369"
       transform="matrix(0.86960572,0,0,0.86960572,-433.40537,345.11217)">
		<g
   id="g122367">
			<path
   d="m 611.4,97.5 c 1.8,-2 3.9,-4.4 6.9,-4.1 2.7,0.3 3.9,4 4.2,6.1 0.8,5.2 -2.7,15.2 -9.6,10.8 -1.1,-0.7 -2.1,1 -1,1.7 8.3,5.3 13.7,-5.9 12.6,-12.8 -0.4,-2.9 -1.9,-6.4 -4.9,-7.5 -4,-1.6 -7.3,1.6 -9.7,4.3 -0.7,1.1 0.7,2.5 1.5,1.5 z"
   id="path122365" />
		</g>
	</g><g
       id="g122375"
       transform="matrix(0.86960572,0,0,0.86960572,-433.40537,345.11217)">
		<g
   id="g122373">
			<path
   d="m 626.8,104.2 c 4.8,-0.1 14,-0.4 13.3,-7.6 -0.5,-5.8 -8.2,-5.2 -11.5,-2.4 -4.2,3.6 -4.6,9.7 -1,13.9 4,4.7 10.9,5.7 16.3,3 1.1,-0.6 0.1,-2.3 -1,-1.7 -6.5,3.3 -18.1,-1.3 -15.4,-10 0.5,-1.7 1.7,-3.2 3.1,-4.2 1.8,-1.2 5.7,-2.1 7.2,0.4 1.8,3.2 -2.3,5.7 -4.7,6.2 -2,0.5 -4.2,0.3 -6.3,0.3 -1.3,0.1 -1.3,2.1 0,2.1 z"
   id="path122371" />
		</g>
	</g><g
       id="g122381"
       transform="matrix(0.86960572,0,0,0.86960572,-433.40537,345.11217)">
		<g
   id="g122379">
			<path
   d="m 655.7,90.7 c 0.9,-4.2 0.4,-9 -2.7,-12.3 -2.1,-2.2 -4.6,-1.8 -6.5,0.5 -2.5,3 -2,7.1 -1,10.7 1.9,7.3 3.1,14.4 3.8,21.9 0.1,1.3 2.1,1.3 2,0 -0.6,-6.1 -1.2,-12.2 -2.7,-18.1 -0.9,-3.4 -2.8,-7.3 -1.8,-10.8 1.2,-4.5 5.4,-2.8 6.6,0.6 0.8,2.3 0.8,4.6 0.3,7 -0.2,1.2 1.7,1.7 2,0.5 z"
   id="path122377" />
		</g>
	</g><g
       id="g122387"
       transform="matrix(0.86960572,0,0,0.86960572,-433.40537,345.11217)">
		<g
   id="g122385">
			<path
   d="m 641.4,95.5 c 5.5,-1.3 11,-1.7 16.7,-1.2 1.3,0.1 1.3,-1.9 0,-2 -5.8,-0.5 -11.5,-0.1 -17.2,1.3 -1.3,0.2 -0.7,2.2 0.5,1.9 z"
   id="path122383" />
		</g>
	</g><g
       id="g122393"
       transform="matrix(0.86960572,0,0,0.86960572,-433.40537,345.11217)">
		<g
   id="g122391">
			<path
   d="m 660.4,97.8 c -2.4,4.2 -4.2,11.9 1.7,14.1 5.2,2 10.8,-2.4 12.3,-7.2 1.5,-4.6 0,-11.4 -4.9,-13.4 -5.7,-2.3 -9.9,4.3 -9.4,9.3 0.1,1.3 2.1,1.3 2,0 -0.5,-4.5 4.2,-10.7 8.6,-6 2.3,2.4 2.9,6.5 1.8,9.6 -1.1,3.2 -4.2,6.3 -7.8,6.2 -6.8,-0.2 -4.6,-8.1 -2.6,-11.6 0.7,-1.1 -1,-2.1 -1.7,-1 z"
   id="path122389" />
		</g>
	</g><g
       id="g122399"
       transform="matrix(0.86960572,0,0,0.86960572,-433.40537,345.11217)">
		<g
   id="g122397">
			<path
   d="m 677.8,96.3 c -0.1,-4.7 7.3,-1.9 10.1,-2.7 -0.4,-0.5 -0.8,-1 -1.1,-1.5 -2.8,6.1 -4.1,12.6 -4.2,19.3 0,0.6 0.5,1 1,1 4.6,0.3 8.6,-1.4 12,-4.4 1,-0.9 -0.5,-2.3 -1.4,-1.4 -3,2.7 -6.5,4 -10.6,3.8 0.3,0.3 0.7,0.7 1,1 0.1,-6.4 1.3,-12.5 4,-18.3 0.3,-0.8 -0.2,-1.7 -1.1,-1.5 -3.1,0.8 -6.1,-1.3 -9.1,0.2 -1.7,0.9 -2.5,2.4 -2.5,4.4 0,1.4 2,1.4 1.9,0.1 z"
   id="path122395" />
		</g>
	</g><g
       id="g122405"
       transform="matrix(0.86960572,0,0,0.86960572,-433.40537,345.11217)">
		<g
   id="g122403">
			<path
   d="m 699,101.7 c 3.4,-0.4 13.7,-3.3 10.4,-8.7 -2.6,-4.3 -8.5,-0.7 -10.6,2 -3,4 -4.5,10.6 -0.3,14.2 5.3,4.5 12.6,4.6 18.4,1.1 1.1,-0.7 0.1,-2.4 -1,-1.7 -5.4,3.2 -18.4,3.3 -18,-5.8 0.1,-3.3 2.1,-7.3 5.1,-9 1.8,-1 7,-2 2.6,3.7 -1.1,1.5 -4.9,2 -6.6,2.2 -1.3,0.1 -1.3,2.1 0,2 z"
   id="path122401" />
		</g>
	</g><g
       id="g122411"
       transform="matrix(0.86960572,0,0,0.86960572,-433.40537,345.11217)">
		<g
   id="g122409">
			<path
   d="m 747.6,96.4 c 3.4,-7.7 -9.4,-8.6 -12.1,-2.5 -1.5,3.4 1.3,6.6 4,8.3 1.6,1 10.7,4.1 6.7,7.6 -2.7,2.3 -9,0.4 -11.7,-0.8 -1.2,-0.5 -1.7,1.4 -0.5,1.9 3.6,1.5 14.6,3.9 15.2,-2.4 0.3,-2.5 -1.8,-4.4 -3.7,-5.6 -1.6,-1 -3.4,-1.5 -5,-2.4 -1,-0.6 -2.4,-1.6 -2.9,-2.7 -0.3,-2.9 0.5,-4.7 2.7,-5.3 2.1,-1.3 4,-0.3 5.5,3 -0.4,1.1 1.3,2.1 1.8,0.9 z"
   id="path122407" />
		</g>
	</g><g
       id="g122417"
       transform="matrix(0.86960572,0,0,0.86960572,-433.40537,345.11217)">
		<g
   id="g122415">
			<path
   d="m 751.3,91.8 c -0.4,9.5 0.2,19 1.6,28.4 0.2,1.3 2.1,0.7 1.9,-0.5 -1.4,-9.3 -1.9,-18.5 -1.6,-27.9 0.1,-1.3 -1.9,-1.3 -1.9,0 z"
   id="path122413" />
		</g>
	</g><g
       id="g122423"
       transform="matrix(0.86960572,0,0,0.86960572,-433.40537,345.11217)">
		<g
   id="g122421">
			<path
   d="m 753.1,94.4 c 1.4,-2.8 4.4,-4.5 7.5,-3 3,1.4 3.6,5.3 3.4,8.3 -0.2,3.9 -2.6,5.9 -6.4,6.1 -1.1,0.1 -6.2,0.4 -7,-0.4 0.1,0.4 0.1,0.8 0.2,1.2 -0.1,0.1 -0.3,0.2 -0.4,0.2 -0.3,-0.2 -0.6,-0.5 -1,-0.7 0,0.1 0,0.1 0.1,0.2 0.4,1.2 2.4,0.7 1.9,-0.5 0,-0.1 0,-0.1 -0.1,-0.2 -0.1,-0.4 -0.5,-0.8 -1,-0.7 -0.6,0.1 -1,0.2 -1.3,0.8 -0.2,0.4 -0.2,0.9 0.2,1.2 1.1,1.2 3.2,0.8 4.7,0.9 2.5,0.1 5.1,0.4 7.5,-0.6 3.7,-1.5 4.8,-5.2 4.6,-8.9 -0.2,-3.8 -1.6,-7.7 -5.5,-9 -3.8,-1.3 -7.5,0.7 -9.2,4.2 -0.4,1 1.3,2 1.8,0.9 z"
   id="path122419" />
		</g>
	</g><g
       id="g122429"
       transform="matrix(0.86960572,0,0,0.86960572,-433.40537,345.11217)">
		<g
   id="g122427">
			<path
   d="m 769.2,80.6 c -1,7.2 -1.5,14.4 -1.1,21.6 0.2,3.1 -0.5,9.6 3.6,10.6 1.3,0.3 1.8,-1.6 0.5,-1.9 -2.9,-0.7 -2.3,-12.6 -2.3,-15.2 0,-4.9 0.5,-9.7 1.1,-14.6 0.3,-1.2 -1.6,-1.8 -1.8,-0.5 z"
   id="path122425" />
		</g>
	</g><g
       id="g122435"
       transform="matrix(0.86960572,0,0,0.86960572,-433.40537,345.11217)">
		<g
   id="g122433">
			<path
   d="m 776.5,90.6 c 0,7.1 0,14.2 0,21.4 0,1.3 2,1.3 2,0 0,-7.1 0,-14.2 0,-21.4 0,-1.3 -2,-1.3 -2,0 z"
   id="path122431" />
		</g>
	</g><g
       id="g122441"
       transform="matrix(0.86960572,0,0,0.86960572,-433.40537,345.11217)">
		<g
   id="g122439">
			<path
   d="m 778.6,83.1 c -0.2,-0.2 -0.5,-0.5 -0.7,-0.7 -0.9,-0.9 -2.3,0.5 -1.4,1.4 0.2,0.2 0.5,0.5 0.7,0.7 0.9,1 2.3,-0.4 1.4,-1.4 z"
   id="path122437" />
		</g>
	</g><g
       id="g122447"
       transform="matrix(0.86960572,0,0,0.86960572,-433.40537,345.11217)">
		<g
   id="g122445">
			<path
   d="m 788.6,71.8 c -2.1,10.4 -3.3,21 -3.3,31.6 0,2.5 -0.2,4.9 1.9,6.5 3.4,2.6 8.6,2.9 12.6,2.4 1.3,-0.2 1.3,-2.2 0,-2 -4.5,0.6 -11.4,0.4 -12.5,-5.1 -0.6,-3.1 0.1,-7.2 0.3,-10.3 0.5,-7.6 1.5,-15.2 3,-22.6 0.1,-1.2 -1.8,-1.8 -2,-0.5 z"
   id="path122443" />
		</g>
	</g><g
       id="g122453"
       transform="matrix(0.86960572,0,0,0.86960572,-433.40537,345.11217)">
		<g
   id="g122451">
			<path
   d="m 780.5,94.8 c 4.3,-2 8.6,-2.4 13.2,-1 1.2,0.4 1.8,-1.6 0.5,-1.9 -5.1,-1.5 -9.9,-1 -14.7,1.2 -1.2,0.5 -0.2,2.3 1,1.7 z"
   id="path122449" />
		</g>
	</g><g
       id="g122459"
       transform="matrix(0.86960572,0,0,0.86960572,-433.40537,345.11217)">
		<g
   id="g122457">
			<path
   d="m 567.8,146.4 c 9.2,-5.1 14.8,-14.4 15.1,-24.8 0,-1.3 -1.9,-1.2 -2,0 -0.9,7.4 -1.3,14.8 -1.1,22.3 0.1,3.5 0.5,7 0.5,10.5 0,4.1 -2.2,13.2 -8.5,9.2 -0.2,0.6 -0.3,1.2 -0.5,1.9 7.8,0.2 15.5,-0.1 23.2,-0.8 1.3,-0.1 1.3,-2.1 0,-2 -7.7,0.8 -15.4,1 -23.2,0.8 -1,0 -1.3,1.3 -0.5,1.9 5.8,3.7 10.9,-2.3 11.5,-7.8 0.6,-5.3 -0.4,-10.9 -0.5,-16.3 0,-6.5 0.4,-13 1.2,-19.5 -0.7,0 -1.3,0 -2,0 -0.3,9.8 -5.5,18.4 -14.1,23.1 -1.2,0.4 -0.2,2.1 0.9,1.5 z"
   id="path122455" />
		</g>
	</g><g
       id="g122465"
       transform="matrix(0.86960572,0,0,0.86960572,-433.40537,345.11217)">
		<g
   id="g122463">
			<path
   d="m 638,149.1 c 0.3,-5.9 -1.8,-14.8 -9.5,-14 -7.1,0.7 -8,11.7 -8.8,17 -0.8,4.9 1.1,11.6 7.5,9.4 7.3,-2.5 9.9,-12.7 9.9,-19.5 -0.7,0.1 -1.3,0.2 -2,0.3 1.1,5.9 2.2,11.8 3.3,17.7 0.2,1.3 2.2,0.7 1.9,-0.5 -1.1,-5.9 -2.2,-11.8 -3.3,-17.7 -0.2,-1.1 -2,-0.8 -2,0.3 0,5.1 -1.2,10.9 -4.8,14.9 -1.8,2 -6.6,5.7 -8.7,0.2 -0.8,-2.2 0.1,-5.1 0.6,-7.3 0.7,-3.1 1,-7.7 2.9,-10.4 3.6,-4.9 8.9,-1.3 10.3,2.9 0.7,2.2 0.7,4.5 0.5,6.7 0.1,1.3 2.1,1.3 2.2,0 z"
   id="path122461" />
		</g>
	</g><g
       id="g122471"
       transform="matrix(0.86960572,0,0,0.86960572,-433.40537,345.11217)">
		<g
   id="g122469">
			<path
   d="m 654.8,135.1 c 1.8,-4.6 2,-10.8 -1.3,-14.9 -1.7,-2.2 -4.6,-3.1 -6.4,-0.5 -1.4,2 -1.5,5.2 -1.9,7.5 -0.6,3.7 -1,7.4 -1.2,11.1 -0.3,7.4 0.3,14.7 1.8,21.9 0.3,1.3 2.2,0.7 1.9,-0.5 -1.6,-8.2 -2.2,-16.6 -1.5,-25 0.2,-2.3 0.5,-4.6 0.9,-6.9 0.2,-1 0.3,-4.6 1.1,-5.3 4,-3.6 5.2,1.7 5.6,3.9 0.5,2.9 0,5.6 -1,8.3 -0.4,1.1 1.5,1.6 2,0.4 z"
   id="path122467" />
		</g>
	</g><g
       id="g122477"
       transform="matrix(0.86960572,0,0,0.86960572,-433.40537,345.11217)">
		<g
   id="g122475">
			<path
   d="m 640.3,143.3 c 5.4,-2.5 11.2,-3.6 17.2,-3.4 1.3,0.1 1.3,-1.9 0,-2 -6.4,-0.3 -12.4,1 -18.2,3.6 -1.2,0.6 -0.2,2.3 1,1.8 z"
   id="path122473" />
		</g>
	</g><g
       id="g122483"
       transform="matrix(0.86960572,0,0,0.86960572,-433.40537,345.11217)">
		<g
   id="g122481">
			<path
   d="m 662.8,126.2 c -0.5,5.3 -1,10.6 -1.6,15.9 -0.5,5.2 -1.9,11.1 -1.6,16.4 0.4,6.3 8,1.2 11,-0.2 1.2,-0.5 0.2,-2.3 -1,-1.7 -1.2,0.5 -2.7,1.5 -4,1.8 -1.2,0.8 -2.6,0.6 -4,-0.4 0.1,-0.7 0.1,-1.3 0.2,-2 -0.6,-2.7 0.7,-7.1 1,-9.9 0.7,-6.6 1.3,-13.3 2,-19.9 0.2,-1.3 -1.8,-1.3 -2,0 z"
   id="path122479" />
		</g>
	</g><g
       id="g122489"
       transform="matrix(0.86960572,0,0,0.86960572,-433.40537,345.11217)">
		<g
   id="g122487">
			<path
   d="m 654.5,145.3 c 5.8,-2.6 11.9,-3.6 18.2,-3 1.3,0.1 1.3,-1.9 0,-2 -6.7,-0.7 -13.1,0.4 -19.2,3.2 -1.2,0.6 -0.1,2.4 1,1.8 z"
   id="path122485" />
		</g>
	</g><g
       id="g122495"
       transform="matrix(0.86960572,0,0,0.86960572,-433.40537,345.11217)">
		<g
   id="g122493">
			<path
   d="m 677.4,151.8 c 4.3,-1.7 11.6,-6 8,-11.8 -3.5,-5.5 -10,-0.5 -11.7,3.6 -2.1,4.9 -2.5,11.9 1.9,15.7 3.6,3.1 9.9,2.7 12.1,-1.8 0.6,-1.1 -1.1,-2.2 -1.7,-1 -1.6,3.1 -5.9,3.6 -8.6,1.6 -2.8,-2 -3.5,-5.8 -3.1,-8.9 0.3,-3.3 1.8,-8.4 5.5,-9.4 4.6,-1.2 5.1,4.7 2.5,7.1 -1.5,1.4 -3.6,2.2 -5.4,2.9 -1.2,0.5 -0.7,2.5 0.5,2 z"
   id="path122491" />
		</g>
	</g><g
       id="g122501"
       transform="matrix(0.86960572,0,0,0.86960572,-433.40537,345.11217)">
		<g
   id="g122499">
			<path
   d="m 691,144.8 c 0.1,-2 0.1,-4 0.2,-6 -0.4,0.3 -0.8,0.6 -1.3,1 4.3,0.9 8.3,1.2 11.9,-1.6 -0.5,-0.4 -1,-0.8 -1.6,-1.2 -2.9,5.8 -6.8,15.8 -4,22.3 2.9,6.8 11.4,-2.3 14.6,-4.5 1,-0.7 0,-2.5 -1,-1.7 -1.9,1.3 -3.7,2.7 -5.6,4 -0.6,0.4 -2.1,2 -2.8,2 -3.1,0.2 -3.8,-2.3 -3.8,-4.6 0.1,-5.7 1.8,-11.3 4.3,-16.4 0.5,-1.1 -0.7,-1.9 -1.6,-1.2 -3,2.3 -6.5,1.8 -9.9,1.1 -0.6,-0.1 -1.2,0.3 -1.3,1 -0.1,2 -0.1,4 -0.2,6 0,1.1 2,1.1 2.1,-0.2 z"
   id="path122497" />
		</g>
	</g><g
       id="g122507"
       transform="matrix(0.86960572,0,0,0.86960572,-433.40537,345.11217)">
		<g
   id="g122505">
			<path
   d="m 749.1,146.5 c 2,-2.7 1.9,-6.7 -0.8,-9 -3.1,-2.8 -7.6,-1.2 -10.2,1.5 -2.7,2.7 -4.1,6.7 -1.4,9.9 1.4,1.7 3.6,2.4 5.6,3.2 1.2,0.4 2.4,0.8 3.5,1.4 0,2.3 -0.1,4.6 -0.1,6.9 -1.1,0.4 -2.2,0.6 -3.4,0.6 -1.6,0.3 -2.8,-0.3 -3.8,-2 1,-0.8 -0.4,-2.3 -1.4,-1.4 -2,1.7 -0.9,4.3 1.4,5.2 3.1,1.1 8.8,0.1 11,-2.5 2.2,-2.7 0.9,-5.9 -1.5,-7.8 -2.2,-1.8 -5.1,-1.9 -7.5,-3.3 -4,-2.4 -3,-7.9 0.5,-10 4.6,-2.8 9.8,1.9 6.4,6.4 -0.8,1 1,2 1.7,0.9 z"
   id="path122503" />
		</g>
	</g><g
       id="g122513"
       transform="matrix(0.86960572,0,0,0.86960572,-433.40537,345.11217)">
		<g
   id="g122511">
			<path
   d="m 754.6,140.4 c -2.2,13.7 -1.7,27.5 1.4,41 0.3,1.3 2.2,0.7 1.9,-0.5 -3,-13.2 -3.5,-26.6 -1.4,-40 0.2,-1.3 -1.7,-1.8 -1.9,-0.5 z"
   id="path122509" />
		</g>
	</g><g
       id="g122519"
       transform="matrix(0.86960572,0,0,0.86960572,-433.40537,345.11217)">
		<g
   id="g122517">
			<path
   d="m 755,147.3 c 2.4,-7.6 13.6,-5.8 13.1,2.3 -0.2,3.2 -2.9,5.4 -5.8,6.3 -1.4,0.4 -2.8,0.6 -4.2,0.7 -0.7,0 -1.4,0 -2.1,0 -0.5,0 -2.7,0.6 -2.6,0.6 1.3,0.2 1.3,-1.9 0,-2 -1.2,-0.1 -2.1,1.1 -1.5,2.2 0.9,1.7 4.7,1.3 6.2,1.2 4.6,-0.2 10,-2 11.6,-6.9 1.3,-4.2 -0.9,-9.4 -5.2,-11 -4.8,-1.8 -10,1.4 -11.5,6 -0.3,1.3 1.6,1.8 2,0.6 z"
   id="path122515" />
		</g>
	</g><g
       id="g122525"
       transform="matrix(0.86960572,0,0,0.86960572,-433.40537,345.11217)">
		<g
   id="g122523">
			<path
   d="m 774.5,127.7 c -1.7,11.3 -1.7,22.6 -0.1,33.9 0.1,1 1.8,0.9 1.9,0 0.1,-0.7 0.2,-1.4 0.4,-2 0.2,-1.3 -1.7,-1.8 -1.9,-0.5 -0.1,0.7 -0.2,1.4 -0.4,2 0.6,0 1.3,0 1.9,0 -1.6,-10.9 -1.5,-21.9 0.1,-32.9 0.2,-1.2 -1.7,-1.7 -1.9,-0.5 z"
   id="path122521" />
		</g>
	</g><g
       id="g122531"
       transform="matrix(0.86960572,0,0,0.86960572,-433.40537,345.11217)">
		<g
   id="g122529">
			<path
   d="m 780.8,142.2 c 0,6.4 0,12.8 0,19.2 0,1.3 2,1.3 2,0 0,-0.8 0,-1.5 0,-2.3 0,-1.3 -2,-1.3 -2,0 0,0.8 0,1.5 0,2.3 0,1.3 2,1.3 2,0 0,-6.4 0,-12.8 0,-19.2 0,-1.3 -2,-1.3 -2,0 z"
   id="path122527" />
		</g>
	</g><g
       id="g122537"
       transform="matrix(0.86960572,0,0,0.86960572,-433.40537,345.11217)">
		<g
   id="g122535">
			<path
   d="m 781.4,137.1 c 0.3,0 0.6,0 0.8,0 1.3,0 1.3,-2 0,-2 -0.3,0 -0.6,0 -0.8,0 -1.3,0 -1.3,2 0,2 z"
   id="path122533" />
		</g>
	</g><g
       id="g122543"
       transform="matrix(0.86960572,0,0,0.86960572,-433.40537,345.11217)">
		<g
   id="g122541">
			<path
   d="m 793.3,126.2 c -0.5,6.6 -1.3,13.1 -2.5,19.6 -0.7,3.8 -1.9,8.1 -0.9,12 2,8 8.7,3.5 12,-0.8 0.8,-1 -1,-2 -1.7,-1 -1.5,2 -5.4,7.4 -8.2,1.9 -0.6,-1.1 -0.4,-2.9 -0.4,-4 0.1,-3.1 0.9,-6.2 1.5,-9.2 1.1,-6.1 1.8,-12.2 2.3,-18.4 0,-1.4 -2,-1.4 -2.1,-0.1 z"
   id="path122539" />
		</g>
	</g><g
       id="g122549"
       transform="matrix(0.86960572,0,0,0.86960572,-433.40537,345.11217)">
		<g
   id="g122547">
			<path
   d="m 785.9,147.6 c 4.5,-2.4 9.2,-3.9 14.2,-4.6 1.3,-0.2 0.7,-2.1 -0.5,-1.9 -5.2,0.7 -10,2.4 -14.7,4.8 -1.2,0.6 -0.2,2.3 1,1.7 z"
   id="path122545" />
		</g>
	</g><g
       id="g122555"
       transform="matrix(0.86960572,0,0,0.86960572,-433.40537,345.11217)">
		<g
   id="g122553">
			<path
   d="m 524,17.4 c 2,13 2.9,26.1 2.7,39.2 0,1.1 1.7,1.4 2,0.3 0.1,-0.3 0.1,-0.5 0.2,-0.8 0.3,-1.2 -1.6,-1.8 -1.9,-0.5 -0.1,0.3 -0.1,0.5 -0.2,0.8 0.7,0.1 1.3,0.2 2,0.3 C 529,43.4 528.1,30.1 526,17 c -0.3,-1.4 -2.2,-0.8 -2,0.4 z"
   id="path122551" />
		</g>
	</g><g
       id="g122561"
       transform="matrix(0.86960572,0,0,0.86960572,-433.40537,345.11217)">
		<g
   id="g122559">
			<path
   d="m 525.9,18.7 c 7.8,-1 15.2,0.9 22.6,3 1.2,0.3 1.8,-1.6 0.5,-1.9 -7.6,-2.1 -15.2,-4 -23.1,-3.1 -1.2,0.1 -1.2,2.1 0,2 z"
   id="path122557" />
		</g>
	</g><g
       id="g122567"
       transform="matrix(0.86960572,0,0,0.86960572,-433.40537,345.11217)">
		<g
   id="g122565">
			<path
   d="m 527.4,39.1 c 5.7,-0.2 11.3,0.1 16.9,0.9 1.3,0.2 1.8,-1.7 0.5,-1.9 -5.8,-0.8 -11.6,-1.2 -17.5,-0.9 -1.1,-0.1 -1.2,1.9 0.1,1.9 z"
   id="path122563" />
		</g>
	</g><g
       id="g122573"
       transform="matrix(0.86960572,0,0,0.86960572,-433.40537,345.11217)">
		<g
   id="g122571">
			<path
   d="m 527.6,58 c 5,-1.1 10.5,-0.2 15.6,-0.3 4.3,-0.1 8.7,-0.4 13,-0.9 1.3,-0.2 1.3,-2.2 0,-2 -4.9,0.6 -9.9,0.9 -14.9,1 -4.7,0 -9.5,-0.7 -14.2,0.4 -1.3,0.1 -0.8,2 0.5,1.8 z"
   id="path122569" />
		</g>
	</g><g
       id="g122579"
       transform="matrix(0.86960572,0,0,0.86960572,-433.40537,345.11217)">
		<g
   id="g122577">
			<path
   d="m 679.9,53.7 c -0.9,-0.1 -1.8,-0.1 -2.6,0.5 -0.7,0.6 -0.9,1.4 -0.7,2.3 0.5,1.9 2.7,2.4 4.2,1.3 1.6,-1.1 1.9,-3.7 -0.2,-4.4 -1.8,-0.6 -3.3,1.1 -2.7,2.8 0.7,2.1 3.6,1.7 4.2,-0.2 0.1,-0.4 -0.1,-1 -0.5,-1.1 -1.3,-0.6 -2.6,-0.7 -4.1,-0.4 -0.7,0.1 -1,1.2 -0.4,1.7 0.7,0.6 1.5,0.9 2.5,1 1.3,0.1 1.3,-1.9 0,-2 -0.4,0 -0.7,-0.2 -1,-0.4 -0.1,0.6 -0.3,1.1 -0.4,1.7 0.8,-0.2 1.7,-0.1 2.5,0.2 -0.2,-0.4 -0.3,-0.8 -0.5,-1.1 -0.1,0.3 -0.5,0.2 -0.4,-0.2 0,-0.1 0.1,-0.2 0.2,0 0.2,0.2 0.2,0.3 0,0.6 -0.3,0.4 -1.2,0.9 -1.4,0.2 -0.3,-0.7 1,-0.4 1.3,-0.4 0.5,0.1 1,-0.5 1,-1 0,-0.7 -0.5,-1 -1,-1.1 z"
   id="path122575" />
		</g>
	</g><g
       id="g122585"
       transform="matrix(0.86960572,0,0,0.86960572,-433.40537,345.11217)">
		<g
   id="g122583">
			<path
   d="m 676.5,29.3 c -2.1,-0.6 -4.5,1.6 -3.1,3.6 0.6,0.9 1.9,1.3 2.9,0.8 0.9,-0.5 1.2,-1.6 0.8,-2.6 -0.4,-0.9 -1.3,-1.6 -2.3,-1.3 -1,0.3 -1.5,1.6 -1.4,2.6 0.2,2.4 3.3,3.1 4.5,1.1 1.4,-2.2 -2.1,-4.6 -3.7,-2.6 -0.4,0.5 -0.4,1.2 0.2,1.6 1.2,0.8 2.5,1 3.9,0.8 0.5,-0.1 0.8,-0.8 0.7,-1.2 -0.2,-0.6 -0.7,-0.8 -1.2,-0.7 -0.9,0.1 -1.7,-0.1 -2.4,-0.6 0.1,0.5 0.1,1 0.2,1.6 0.2,-0.2 0.8,-0.1 0.5,0.2 -0.1,0.1 -0.4,0.2 -0.6,0.2 -0.3,-0.1 -0.1,-0.5 -0.2,-0.7 0,-0.1 0.4,-0.8 -0.2,-0.3 0,0 0.1,0.1 0.1,0.1 0,0 0.1,0.2 -0.1,0 -0.5,-0.5 0.2,-0.9 0.7,-0.7 1.4,0.4 1.9,-1.5 0.7,-1.9 z"
   id="path122581" />
		</g>
	</g></g><metadata
     id="metadata403729"><rdf:RDF><cc:Work
         rdf:about=""><dc:title>full_new</dc:title></cc:Work></rdf:RDF></metadata></svg>
