<?xml version="1.0" encoding="UTF-8" standalone="no"?>
<svg
   viewBox="0 0 1175.48 577.35"
   version="1.1"
   id="svg383737"
   sodipodi:docname="gadma_2.svg"
   xml:space="preserve"
   inkscape:version="1.2.2 (1:1.2.2+202212051552+b0a8486541)"
   xmlns:inkscape="http://www.inkscape.org/namespaces/inkscape"
   xmlns:sodipodi="http://sodipodi.sourceforge.net/DTD/sodipodi-0.dtd"
   xmlns="http://www.w3.org/2000/svg"
   xmlns:svg="http://www.w3.org/2000/svg"
   xmlns:rdf="http://www.w3.org/1999/02/22-rdf-syntax-ns#"
   xmlns:cc="http://creativecommons.org/ns#"
   xmlns:dc="http://purl.org/dc/elements/1.1/"><sodipodi:namedview
     id="namedview383739"
     pagecolor="#ffffff"
     bordercolor="#000000"
     borderopacity="0.25"
     inkscape:showpageshadow="2"
     inkscape:pageopacity="0.0"
     inkscape:pagecheckerboard="0"
     inkscape:deskcolor="#d1d1d1"
     showgrid="false"
     inkscape:zoom="1.1082409"
     inkscape:cx="184.52666"
     inkscape:cy="245.434"
     inkscape:window-width="1223"
     inkscape:window-height="779"
     inkscape:window-x="57"
     inkscape:window-y="21"
     inkscape:window-maximized="1"
     inkscape:current-layer="Layer_1" /><defs
     id="defs382375"><style
       id="style382361">.cls-1,.cls-11,.cls-17,.cls-18,.cls-20,.cls-22,.cls-24,.cls-26,.cls-27,.cls-33,.cls-4{fill:none;}.cls-2{fill:#d8d8d8;}.cls-11,.cls-3,.cls-33,.cls-4{stroke:#000;}.cls-14,.cls-15,.cls-16,.cls-17,.cls-18,.cls-26,.cls-27,.cls-29,.cls-3,.cls-30,.cls-33{stroke-linejoin:round;}.cls-3,.cls-4{stroke-width:0.8px;}.cls-17,.cls-18,.cls-4{stroke-linecap:square;}.cls-5{opacity:0.82;}.cls-6{fill:#c1272d;}.cls-7{fill:#fcee21;}.cls-8{fill:blue;}.cls-9{fill:#8cc63f;}.cls-10,.cls-29,.cls-30{fill:#fff;}.cls-11{stroke-miterlimit:10;}.cls-12{fill:#b3b3b3;}.cls-13{clip-path:url(#clip-path);}.cls-14,.cls-25{fill:#2ca02c;}.cls-14,.cls-15,.cls-16{fill-opacity:0.2;stroke-width:2px;stroke-dasharray:2 2;}.cls-14,.cls-18,.cls-24{stroke:#2ca02c;}.cls-15,.cls-23,.cls-32{fill:#ff7f0e;}.cls-15{stroke:#ff800f;}.cls-16{fill:#1e75b3;stroke:#1e75b3;}.cls-17,.cls-22,.cls-32{stroke:#ff7f0e;}.cls-17,.cls-18,.cls-32{stroke-opacity:0.5;}.cls-17,.cls-18{stroke-width:0.2px;}.cls-19{clip-path:url(#clip-path-24);}.cls-20,.cls-27,.cls-30{stroke:#1f77b4;}.cls-21{fill:#1f77b4;}.cls-21,.cls-23,.cls-25,.cls-32{fill-opacity:0.5;}.cls-26,.cls-29{stroke:#fff;stroke-width:3px;}.cls-26,.cls-27,.cls-29,.cls-30{stroke-linecap:round;}.cls-28{clip-path:url(#clip-path-42);}.cls-31{clip-path:url(#clip-path-46);}</style><clipPath
       id="clip-path"
       transform="translate(-19.92 -9.25)"><rect
         class="cls-1"
         x="70.17"
         y="382.26"
         width="154.4"
         height="203.34"
         id="rect382363" /></clipPath><clipPath
       id="clip-path-24"
       transform="translate(-19.92 -9.25)"><rect
         class="cls-1"
         x="1010.21"
         y="202.75"
         width="158.77"
         height="237.35"
         id="rect382366" /></clipPath><clipPath
       id="clip-path-42"
       transform="translate(-19.92 -9.25)"><rect
         class="cls-1"
         x="1005.58"
         y="202.75"
         width="158.77"
         height="237.35"
         id="rect382369" /></clipPath><clipPath
       id="clip-path-46"
       transform="translate(-19.92 -9.25)"><rect
         class="cls-1"
         x="1014.84"
         y="202.75"
         width="158.77"
         height="237.35"
         id="rect382372" /></clipPath></defs><title
     id="title382377">full_new</title><g
     id="Layer_1"
     data-name="Layer 1"><path
       class="cls-6"
       d="m 103.89,182.59 a 78.74,78.74 0 0 1 0.82,10.37 1.12,1.12 0 0 0 2.24,0 90.11,90.11 0 0 0 -0.89,-11 c -0.23,-1.42 -2.39,-0.82 -2.17,0.6 z"
       id="path382670" /><path
       class="cls-6"
       d="m 108.82,180.75 c 0.9,5.15 1.87,10.37 2.76,15.52 0.22,1.42 2.39,0.82 2.17,-0.59 -0.9,-5.15 -1.87,-10.38 -2.77,-15.53 -0.29,-1.42 -2.46,-0.82 -2.16,0.6 z"
       id="path382672" /><path
       class="cls-6"
       d="m 149.57,183.93 c 0.07,4.25 0.22,8.51 0.52,12.76 0.08,1.42 2.31,1.42 2.24,0 -0.3,-4.25 -0.52,-8.51 -0.52,-12.76 a 1.12,1.12 0 0 0 -2.24,0 z"
       id="path382674" /><path
       class="cls-6"
       d="m 165.76,184.15 c 0.53,4.56 0.9,9.18 1.79,13.73 0.3,1.42 2.47,0.83 2.17,-0.59 -0.82,-4.33 -1.2,-8.73 -1.72,-13.14 -0.15,-1.42 -2.39,-1.42 -2.24,0 z"
       id="path382676" /><path
       class="cls-6"
       d="m 210.17,178.11 a 43.47,43.47 0 0 0 1.34,10.74 1.1243887,1.1243887 0 0 0 2.17,-0.59 42.06,42.06 0 0 1 -1.27,-10.15 c -0.08,-1.49 -2.32,-1.49 -2.24,0 z"
       id="path382678" /><path
       class="cls-7"
       d="m 119.49,179.75 c 0.9,5.82 1.72,11.72 2.32,17.61 0.14,1.42 2.38,1.42 2.23,0 -0.67,-6.12 -1.41,-12.16 -2.38,-18.21 -0.3,-1.42 -2.39,-0.82 -2.17,0.6 z"
       id="path382680" /><path
       class="cls-7"
       d="m 157.55,183.41 c 0.38,3.21 0.82,6.41 1.2,9.62 0.22,2.09 0,5.15 1.12,6.94 a 1.12,1.12 0 0 0 1.79,0.23 c 0,-0.08 0.07,-0.08 0.07,-0.15 a 1.07,1.07 0 0 0 0,-1.57 l -0.07,-0.07 c -1.12,-1 -2.69,0.67 -1.57,1.56 l 0.08,0.08 v -1.57 c 0,0.08 -0.08,0.08 -0.08,0.15 l 1.79,0.23 c -1,-1.72 -0.82,-5.75 -1,-7.62 -0.3,-2.61 -0.67,-5.22 -1,-7.83 -0.3,-1.42 -2.54,-1.42 -2.32,0 z"
       id="path382682" /><path
       class="cls-7"
       d="m 187.48,182.06 a 82.53,82.53 0 0 0 0.3,9.56 c 0.15,1.41 2.39,1.41 2.24,0 a 80.36,80.36 0 0 1 -0.3,-9.56 c 0.07,-1.49 -2.16,-1.49 -2.24,0 z"
       id="path382684" /><path
       class="cls-8"
       d="m 113.75,180.27 c 1.79,5.9 3.35,11.87 4.55,17.84 0.3,1.42 2.46,0.82 2.16,-0.6 a 178.54,178.54 0 0 0 -4.55,-17.84 c -0.45,-1.34 -2.61,-0.74 -2.16,0.6 z"
       id="path382686" /><path
       class="cls-8"
       d="m 143.67,185.75 c 0.75,3.06 1.35,6.2 1.94,9.33 0.23,1.42 2.39,0.82 2.17,-0.59 -0.53,-3.14 -1.2,-6.27 -1.94,-9.33 a 1.1243887,1.1243887 0 0 0 -2.17,0.59 z"
       id="path382688" /><path
       class="cls-8"
       d="m 197.48,177.21 c 0.6,5.38 1.27,10.67 1.87,16 0.15,1.42 2.38,1.42 2.24,0 -0.6,-5.38 -1.27,-10.67 -1.87,-16 -0.15,-1.42 -2.39,-1.49 -2.24,0 z"
       id="path382690" /><path
       class="cls-8"
       d="m 215.47,179.23 c 0.3,2.16 0.59,4.25 1,6.34 0.3,1.42 2.46,0.82 2.17,-0.6 -0.38,-1.94 -0.75,-3.8 -1,-5.74 -0.15,-1.42 -2.39,-1.42 -2.24,0 z"
       id="path382692" /><path
       class="cls-9"
       d="m 125.31,185.35 c 0.75,3.06 1.42,6 2.17,9.1 0.3,1.42 2.46,0.82 2.16,-0.6 -0.74,-3.06 -1.42,-6 -2.16,-9.1 a 1.13,1.13 0 0 0 -2.17,0.6 z"
       id="path382694" /><path
       class="cls-9"
       d="m 129.94,188.18 c 0.45,1 0.82,1.94 1.27,2.91 0.37,0.82 0.6,1.79 1.42,2.24 a 1,1 0 0 0 1.12,0 1.2,1.2 0 0 0 0.67,-0.89 1.23,1.23 0 0 0 -0.52,-1.27 l -0.08,-0.08 c -1.19,-0.74 -2.31,1.2 -1.12,1.94 l 0.08,0.08 c -0.15,-0.45 -0.38,-0.82 -0.53,-1.27 v 0.15 c 0.15,-0.22 0.38,-0.45 0.53,-0.67 -0.08,0 -0.08,0.07 -0.15,0.07 h 1.12 c 0.15,0.15 0.15,0.08 -0.08,-0.3 -0.07,-0.22 -0.22,-0.44 -0.3,-0.67 -0.08,-0.23 -0.3,-0.67 -0.44,-1 -0.38,-0.82 -0.68,-1.57 -1,-2.39 -0.6,-1.27 -2.54,-0.08 -1.94,1.19 z"
       id="path382696" /><path
       class="cls-9"
       d="m 153.22,184.15 c 1.2,4.78 0.3,9.7 1.57,14.48 a 1.13,1.13 0 0 0 2.17,-0.6 c -1.35,-4.7 -0.38,-9.7 -1.57,-14.47 -0.3,-1.35 -2.46,-0.75 -2.17,0.59 z"
       id="path382698" /><path
       class="cls-9"
       d="m 171.29,185.75 c 0.52,2.77 1,5.6 1.56,8.36 0.23,1.42 2.39,0.82 2.17,-0.59 -0.53,-2.77 -1.05,-5.6 -1.57,-8.36 -0.3,-1.42 -2.46,-0.82 -2.16,0.59 z"
       id="path382700" /><path
       class="cls-9"
       d="m 192.56,179.08 c 0.22,4.4 -0.3,9.7 1.19,13.95 0.45,1.35 2.61,0.75 2.16,-0.59 -1.41,-4 -0.89,-9.11 -1.12,-13.36 -0.07,-1.49 -2.31,-1.49 -2.23,0 z"
       id="path382702" /><path
       class="cls-9"
       d="m 203.6,177.36 a 100.34,100.34 0 0 0 2.31,14 1.13,1.13 0 0 0 2.17,-0.61 100.35,100.35 0 0 1 -2.24,-13.43 c -0.15,-1.42 -2.39,-1.42 -2.24,0 z"
       id="path382704" /><path
       d="m 95.08,194.3 c 2.68,-4.1 5.45,-8.28 9.4,-11.27 5.6,-4.25 12,-3.73 18.21,-0.74 9.48,4.62 16.87,12.76 26.57,16.94 7.54,3.21 17,4.25 24,-0.9 3.21,-2.39 5.37,-5.74 7.61,-9 3.43,-5.07 7.16,-8.65 13.13,-10.52 12.17,-3.73 25.9,-0.67 35.68,7.31 1.12,0.9 2.68,-0.67 1.56,-1.56 a 41.88,41.88 0 0 0 -28.16,-9.51 34.8,34.8 0 0 0 -14.7,3.7 c -4.33,2.32 -7.09,6.05 -9.78,9.93 -3.36,5 -6.94,9.48 -13.14,10.67 -6,1.2 -12.31,-0.52 -17.61,-3.21 -10.22,-5.3 -18.43,-15.15 -29.85,-18 -11.64,-2.91 -19.18,6.34 -24.85,15 a 1.14,1.14 0 0 0 1.94,1.19 z"
       id="path382706" /><path
       d="m 93.22,178.18 c 4.4,9.11 9.7,19.26 20.23,22.09 10.82,2.91 17.09,-5.82 25.15,-11.12 a 38.91,38.91 0 0 1 31.94,-4.55 c 5.67,1.72 10.22,5.22 15.3,8 a 25,25 0 0 0 15.15,2.91 c 12.39,-1.72 21.27,-11.2 29.25,-19.93 1,-1 -0.59,-2.69 -1.56,-1.57 -9.18,10.15 -21.94,23.44 -37.24,18.66 -6.35,-2 -11.42,-6.87 -17.62,-9.25 a 40.21,40.21 0 0 0 -16.27,-2.54 41.24,41.24 0 0 0 -15.22,3.66 c -5.67,2.61 -9.78,6.86 -14.7,10.44 -6.72,4.86 -14.41,4.48 -20.9,-0.74 -5.45,-4.41 -8.58,-11 -11.57,-17.24 -0.59,-1.2 -2.54,-0.08 -1.94,1.19 z"
       id="path382708" /><path
       class="cls-8"
       d="m 113.27,105.43 c -0.23,2.32 0.37,4.48 0.74,6.72 a 80.91,80.91 0 0 1 0.82,8.58 c 0.08,1.42 2.32,1.42 2.24,0 -0.07,-2.31 -0.22,-4.63 -0.52,-6.94 -0.37,-2.76 -1.27,-5.52 -1,-8.28 0.07,-1.5 -2.16,-1.5 -2.31,-0.08 z"
       id="path382710" /><path
       class="cls-8"
       d="m 147.9,105.66 c -0.6,4.47 0.74,9.7 1.26,14.18 0.15,1.41 2.39,1.41 2.24,0 -0.22,-2.24 -0.52,-4.56 -0.74,-6.8 -0.22,-2.24 -0.9,-4.62 -0.6,-6.79 0.22,-1.42 -1.94,-2 -2.16,-0.59 z"
       id="path382712" /><path
       class="cls-8"
       d="m 151.7,104.75 c 1,5.07 1.87,10.22 2.54,15.37 0.15,1.42 2.39,1.42 2.24,0 -0.6,-5.37 -1.49,-10.67 -2.61,-16 -0.3,-1.42 -2.47,-0.82 -2.17,0.6 z"
       id="path382714" /><path
       class="cls-8"
       d="m 190.08,103.42 c -0.07,4.7 -0.15,9.4 -0.07,14.18 a 1.12,1.12 0 0 0 2.24,0 c -0.08,-4.71 -0.08,-9.41 0.07,-14.18 a 1.12,1.12 0 1 0 -2.24,0 z"
       id="path382716" /><path
       class="cls-8"
       d="m 207.67,109.69 v 7.06 a 1.12,1.12 0 0 0 2.24,0 v -7.06 a 1.12,1.12 0 1 0 -2.24,0 z"
       id="path382718" /><path
       class="cls-7"
       d="m 108.79,107.3 a 49.58,49.58 0 0 1 2.83,13.58 c 0.08,1.42 2.32,1.42 2.24,0 a 50.42,50.42 0 0 0 -2.91,-14.13 c -0.52,-1.34 -2.68,-0.75 -2.16,0.6 z"
       id="path382720" /><path
       class="cls-7"
       d="m 163.34,105.58 a 51.46,51.46 0 0 1 2.09,11.17 c 0.15,1.41 2.39,1.41 2.24,0 a 57.7,57.7 0 0 0 -2.16,-11.8 1.13,1.13 0 0 0 -2.17,0.6 z"
       id="path382722" /><path
       class="cls-7"
       d="m 166.48,106.85 a 45.9,45.9 0 0 0 2.16,6.27 c 0.6,1.34 2.47,0.15 1.94,-1.12 a 41.36,41.36 0 0 1 -1.94,-5.75 1.1208925,1.1208925 0 0 0 -2.16,0.6 z"
       id="path382724" /><path
       class="cls-7"
       d="m 197.75,105.21 c 0.37,4.77 0.67,9.55 1,14.4 0.08,1.42 2.32,1.42 2.24,0 -0.37,-4.77 -0.67,-9.55 -1,-14.4 -0.15,-1.42 -2.39,-1.42 -2.24,0 z"
       id="path382726" /><path
       class="cls-6"
       d="m 118.49,104.98 a 153.94,153.94 0 0 1 0.15,16.5 c -0.07,1.42 2.16,1.42 2.24,0 a 153.94,153.94 0 0 0 -0.15,-16.5 c -0.15,-1.41 -2.39,-1.49 -2.24,0 z"
       id="path382728" /><path
       class="cls-6"
       d="m 155.43,104.46 c 2.76,4.85 2.76,10.52 4.11,15.82 a 1.12,1.12 0 0 0 2.16,-0.59 c -1.34,-5.53 -1.42,-11.35 -4.33,-16.35 a 1.1200446,1.1200446 0 0 0 -1.94,1.12 z"
       id="path382730" /><path
       class="cls-6"
       d="m 194.39,103.12 a 96.26,96.26 0 0 1 0.15,16.72 c -0.07,1.41 2.16,1.41 2.24,0 a 113.71,113.71 0 0 0 -0.15,-16.72 c -0.08,-1.42 -2.31,-1.42 -2.24,0 z"
       id="path382732" /><path
       class="cls-6"
       d="m 211.48,110.43 a 14.23,14.23 0 0 0 -0.15,4 c 0.15,1.42 2.39,1.42 2.24,0 a 17.16,17.16 0 0 1 0.08,-3.36 1.12,1.12 0 0 0 -0.75,-1.34 1.06,1.06 0 0 0 -1.42,0.74 z"
       id="path382734" /><path
       class="cls-9"
       d="m 104.68,109.24 a 29,29 0 0 1 3.4,9.63 c 0.22,1.41 2.39,0.82 2.16,-0.6 a 32.15,32.15 0 0 0 -3.66,-10.15 1.1200446,1.1200446 0 0 0 -1.94,1.12 z"
       id="path382736" /><path
       class="cls-9"
       d="m 126.4,110.51 c 0.52,2.16 0.9,4.33 1.2,6.49 0.22,1.42 2.46,1.42 2.23,0 -0.29,-2.39 -0.74,-4.7 -1.26,-7.09 -0.3,-1.42 -2.47,-0.82 -2.17,0.6 z"
       id="path382738" /><path
       class="cls-9"
       d="m 130.13,112.82 0.9,1.57 a 1.18,1.18 0 0 0 1.57,0.37 1.12,1.12 0 0 0 0.37,-1.57 l -0.9,-1.56 a 1.16,1.16 0 0 0 -1.56,-0.38 1.28,1.28 0 0 0 -0.38,1.57 z"
       id="path382740" /><path
       class="cls-9"
       d="m 159.61,103.42 c 1,4.85 2,9.77 3,14.62 0.3,1.42 2.46,0.83 2.16,-0.59 -1,-4.85 -2,-9.78 -3,-14.63 -0.3,-1.34 -2.47,-0.75 -2.17,0.6 z"
       id="path382742" /><path
       class="cls-9"
       d="m 201.93,105.8 a 124.21,124.21 0 0 1 2.09,12.54 c 0.15,1.42 2.39,1.42 2.24,0 a 132.83,132.83 0 0 0 -2.24,-13.13 c -0.23,-1.42 -2.39,-0.82 -2.09,0.59 z"
       id="path382744" /><path
       class="cls-9"
       d="m 185.58,103.86 a 60.46,60.46 0 0 0 0.23,11.57 c 0.15,1.42 2.39,1.42 2.24,0 a 66.74,66.74 0 0 1 -0.23,-11.57 c 0.15,-1.41 -2.09,-1.41 -2.24,0 z"
       id="path382746" /><path
       class="cls-9"
       d="m 182.15,105.75 a 44.07,44.07 0 0 0 0.45,6.27 c 0.15,1.42 2.39,1.42 2.24,0 a 44.07,44.07 0 0 1 -0.45,-6.27 1.12,1.12 0 0 0 -2.24,0 z"
       id="path382748" /><path
       class="cls-9"
       d="m 145.08,108.34 a 70.18,70.18 0 0 0 0.6,10.53 c 0.15,1.41 2.38,1.41 2.24,0 a 69.65,69.65 0 0 1 -0.6,-10.53 1.12,1.12 0 0 0 -2.24,0 z"
       id="path382750" /><path
       class="cls-7"
       d="m 122.52,107.6 c 0.08,4 0.22,7.83 0.3,11.79 a 1.12,1.12 0 0 0 2.24,0 c -0.08,-4 -0.23,-7.84 -0.3,-11.79 -0.07,-1.42 -2.31,-1.5 -2.24,0 z"
       id="path382752" /><path
       class="cls-6"
       d="m 101.48,111.55 c 0.67,2.17 1.34,4.4 2,6.57 0.45,1.34 2.61,0.82 2.16,-0.6 -0.67,-2.16 -1.34,-4.4 -2,-6.57 a 1.1208925,1.1208925 0 0 0 -2.16,0.6 z"
       id="path382754" /><path
       class="cls-6"
       d="m 140.95,112.3 a 22.48,22.48 0 0 0 0.23,4.45 1.14,1.14 0 0 0 1.12,1.11 c 0.52,0 1.19,-0.52 1.12,-1.11 a 22.48,22.48 0 0 1 -0.23,-4.48 c 0.08,-1.42 -2.16,-1.42 -2.24,0 z"
       id="path382756" /><path
       class="cls-6"
       d="m 177.97,108.12 c 0.45,0.89 0.9,1.71 1.34,2.61 0.68,1.27 2.62,0.15 2,-1.12 -0.45,-0.89 -0.9,-1.72 -1.35,-2.61 -0.67,-1.27 -2.61,-0.15 -1.94,1.12 z"
       id="path382758" /><path
       class="cls-6"
       d="m 224.02,109.16 c 0.3,1.57 0.6,3.14 0.89,4.7 0.29,1.56 2.39,0.83 2.17,-0.59 l -0.9,-4.7 c -0.3,-1.42 -2.46,-0.82 -2.16,0.59 z"
       id="path382760" /><path
       class="cls-6"
       d="m 234.47,102.37 c 0.44,3.81 1.12,7.54 1.86,11.27 0.3,1.42 2.47,0.82 2.17,-0.6 -0.75,-3.5 -1.35,-7.09 -1.79,-10.67 -0.23,-1.42 -2.47,-1.42 -2.24,0 z"
       id="path382762" /><path
       class="cls-7"
       d="m 221.63,112.89 h 0.45 a 1.12,1.12 0 1 0 0,-2.23 h -0.45 a 1.12,1.12 0 1 0 0,2.23 z"
       id="path382764" /><path
       class="cls-7"
       d="m 237.53,101.55 a 105.42,105.42 0 0 0 1.49,10.82 c 0.3,1.42 2.46,0.82 2.16,-0.59 a 78.15,78.15 0 0 1 -1.41,-10.23 c -0.15,-1.42 -2.39,-1.42 -2.24,0 z"
       id="path382766" /><path
       class="cls-8"
       d="m 227.08,107.37 a 21.5,21.5 0 0 1 1,6.49 1.12,1.12 0 0 0 2.24,0 23,23 0 0 0 -1.08,-7.11 1.1208925,1.1208925 0 0 0 -2.16,0.6 z"
       id="path382768" /><path
       class="cls-9"
       d="m 230.51,105.06 c 1.34,3.36 0.23,7.16 1.79,10.52 0.6,1.27 2.54,0.15 1.94,-1.12 -1.49,-3.06 -0.3,-6.79 -1.56,-9.92 -0.53,-1.42 -2.69,-0.82 -2.17,0.52 z"
       id="path382770" /><path
       d="m 99.83,117.67 a 14.72,14.72 0 0 1 9.63,-10.92 c 5.52,-1.94 11.05,-0.59 16.2,1.87 9.62,4.63 17.91,12.69 28.95,13.66 10.45,0.89 16.35,-7.17 23.21,-13.44 5,-4.55 10.53,-6.71 17.32,-5.52 6.19,1.12 11.94,4.33 17.46,7.17 9.33,4.77 21,9.18 30.45,2.38 1.12,-0.82 0.07,-2.76 -1.12,-1.94 -11.19,8.14 -24.25,-0.74 -34.7,-5.67 -9.41,-4.48 -19.63,-6.86 -28.51,0 -4,3.06 -7.09,7 -10.9,10.23 a 18.4,18.4 0 0 1 -18.43,3.5 c -11.2,-3.58 -19.7,-13.43 -31.57,-15.15 -9.11,-1.34 -18.14,4.18 -20.15,13.36 a 1.11,1.11 0 0 0 2.16,0.45 z"
       id="path382772" /><path
       d="m 98.42,121.18 c 4.17,-4.11 11.41,1.72 16.26,2.24 a 19.79,19.79 0 0 0 10.75,-2 c 8.36,-3.73 15,-10.37 23,-14.7 4.33,-2.31 9.18,-4 14.1,-3.13 4.92,0.87 9.18,3.65 13.14,6.56 6.86,5 14.18,12 23.21,12.09 6.57,0.08 12.24,-4 17.61,-7.38 l 22.24,-14 c 1.2,-0.75 0.08,-2.69 -1.12,-1.94 -6.34,4 -12.76,8 -19.1,12 -5.83,3.66 -12.39,9.11 -19.56,9 -10.07,-0.07 -18.06,-9.47 -26,-14.4 -7.47,-4.63 -15.15,-5.67 -23.29,-1.94 -8.51,3.88 -15.15,10.75 -23.43,15 -4.85,2.54 -9.93,3.51 -15.23,1.57 -4.7,-1.72 -9.92,-4.7 -14.1,-0.6 a 1.1101576,1.1101576 0 1 0 1.57,1.57 z"
       id="path382774" /><path
       class="cls-8"
       d="m 105.73,134.31 c -0.22,2.32 0.37,4.48 0.75,6.72 a 83.9,83.9 0 0 1 0.82,8.58 c 0.07,1.42 2.31,1.42 2.24,0 -0.08,-2.31 -0.23,-4.62 -0.53,-6.94 -0.37,-2.76 -1.27,-5.52 -1,-8.28 0.08,-1.49 -2.16,-1.49 -2.31,-0.08 z"
       id="path382776" /><path
       class="cls-8"
       d="m 140.36,134.54 c -0.6,4.48 0.74,9.7 1.27,14.18 0.15,1.42 2.38,1.42 2.24,0 -0.23,-2.24 -0.53,-4.56 -0.75,-6.79 -0.22,-2.23 -0.9,-4.63 -0.6,-6.8 0.15,-1.41 -1.94,-2 -2.16,-0.59 z"
       id="path382778" /><path
       class="cls-8"
       d="m 144.08,133.64 c 1,5.08 1.87,10.23 2.54,15.38 0.15,1.41 2.38,1.41 2.24,0 -0.6,-5.38 -1.5,-10.68 -2.62,-16 -0.29,-1.34 -2.46,-0.74 -2.16,0.6 z"
       id="path382780" /><path
       class="cls-8"
       d="m 182.45,132.3 c -0.08,4.7 -0.15,9.4 -0.08,14.18 a 1.12,1.12 0 0 0 2.24,0 c -0.07,-4.7 -0.07,-9.4 0.08,-14.18 a 1.12,1.12 0 0 0 -2.24,0 z"
       id="path382782" /><path
       class="cls-8"
       d="m 200.14,138.57 v 7.09 a 1.12,1.12 0 0 0 2.24,0 v -7.09 a 1.12,1.12 0 0 0 -2.24,0 z"
       id="path382784" /><path
       class="cls-7"
       d="m 101.18,136.25 a 50.48,50.48 0 0 1 2.83,13.59 c 0.08,1.41 2.32,1.41 2.24,0 a 51.13,51.13 0 0 0 -2.91,-14.18 c -0.52,-1.35 -2.69,-0.82 -2.16,0.59 z"
       id="path382786" /><path
       class="cls-7"
       d="m 155.81,134.46 a 52.06,52.06 0 0 1 2.09,11.2 c 0.15,1.42 2.38,1.42 2.23,0 a 56.94,56.94 0 0 0 -2.16,-11.79 c -0.45,-1.35 -2.61,-0.75 -2.16,0.59 z"
       id="path382788" /><path
       class="cls-7"
       d="m 158.87,135.75 a 42.53,42.53 0 0 0 2.16,6.27 c 0.6,1.34 2.46,0.15 1.94,-1.12 a 39.27,39.27 0 0 1 -1.94,-5.75 1.1208925,1.1208925 0 0 0 -2.16,0.6 z"
       id="path382790" /><path
       class="cls-7"
       d="m 190.14,134.09 c 0.37,4.78 0.67,9.55 1,14.4 0.08,1.42 2.31,1.42 2.24,0 -0.37,-4.77 -0.67,-9.55 -1,-14.4 -0.08,-1.42 -2.32,-1.42 -2.24,0 z"
       id="path382792" /><path
       class="cls-6"
       d="m 110.88,133.87 a 153.76,153.76 0 0 1 0.15,16.49 c -0.08,1.42 2.16,1.42 2.24,0 a 153.76,153.76 0 0 0 -0.15,-16.49 c -0.08,-1.42 -2.32,-1.42 -2.24,0 z"
       id="path382794" /><path
       class="cls-6"
       d="m 147.9,133.34 c 2.76,4.85 2.76,10.53 4.1,15.83 a 1.1208925,1.1208925 0 0 0 2.16,-0.6 c -1.34,-5.52 -1.41,-11.35 -4.32,-16.35 -0.75,-1.26 -2.69,-0.07 -1.94,1.12 z"
       id="path382796" /><path
       class="cls-6"
       d="m 186.85,132 a 95.28,95.28 0 0 1 0.15,16.72 c -0.07,1.42 2.17,1.42 2.24,0 A 113.71,113.71 0 0 0 189.09,132 c -0.15,-1.42 -2.39,-1.42 -2.24,0 z"
       id="path382798" /><path
       class="cls-6"
       d="m 203.87,139.31 a 13.87,13.87 0 0 0 -0.15,4 c 0.15,1.42 2.39,1.42 2.24,0 a 16.42,16.42 0 0 1 0.07,-3.36 1.1208925,1.1208925 0 0 0 -2.16,-0.6 z"
       id="path382800" /><path
       class="cls-9"
       d="m 97.15,138.19 a 29.42,29.42 0 0 1 3.43,9.63 c 0.22,1.42 2.39,0.82 2.16,-0.6 a 32.32,32.32 0 0 0 -3.66,-10.14 1.12,1.12 0 0 0 -1.94,1.11 z"
       id="path382802" /><path
       class="cls-9"
       d="m 118.86,139.39 a 64.24,64.24 0 0 1 1.2,6.49 c 0.22,1.42 2.46,1.42 2.24,0 -0.3,-2.39 -0.75,-4.7 -1.27,-7.09 a 1.13,1.13 0 0 0 -2.17,0.6 z"
       id="path382804" /><path
       class="cls-9"
       d="m 122.6,141.75 c 0.29,0.52 0.59,1 0.89,1.56 a 1.17,1.17 0 0 0 1.59,0.44 1.12,1.12 0 0 0 0.37,-1.57 c -0.3,-0.52 -0.6,-1 -0.89,-1.57 a 1.14057,1.14057 0 0 0 -1.94,1.2 z"
       id="path382806" /><path
       class="cls-9"
       d="m 152,132.37 c 1,4.85 2,9.78 3,14.63 0.29,1.42 2.46,0.82 2.16,-0.6 -1,-4.85 -2,-9.77 -3,-14.62 -0.29,-1.42 -2.46,-0.82 -2.16,0.59 z"
       id="path382808" /><path
       class="cls-9"
       d="m 194.32,134.69 a 124.49,124.49 0 0 1 2.09,12.53 c 0.14,1.42 2.38,1.42 2.23,0 a 129.92,129.92 0 0 0 -2.23,-13.13 c -0.23,-1.42 -2.39,-0.82 -2.09,0.6 z"
       id="path382810" /><path
       class="cls-9"
       d="m 178.08,132.82 a 59.67,59.67 0 0 0 0.22,11.57 c 0.15,1.42 2.39,1.42 2.24,0 a 65.78,65.78 0 0 1 -0.22,-11.57 c 0.07,-1.49 -2.17,-1.42 -2.24,0 z"
       id="path382812" /><path
       class="cls-9"
       d="m 174.61,134.61 a 44.07,44.07 0 0 0 0.45,6.27 c 0.15,1.42 2.39,1.42 2.24,0 a 44.07,44.07 0 0 1 -0.45,-6.27 1.12,1.12 0 0 0 -2.24,0 z"
       id="path382814" /><path
       class="cls-9"
       d="m 137.45,137.22 a 71.51,71.51 0 0 0 0.63,10.53 c 0.15,1.42 2.39,1.42 2.24,0 a 70.9,70.9 0 0 1 -0.59,-10.53 c 0.07,-1.41 -2.17,-1.41 -2.24,0 z"
       id="path382816" /><path
       class="cls-7"
       d="m 114.91,136.48 c 0.07,4 0.22,7.83 0.3,11.79 a 1.12,1.12 0 0 0 2.24,0 c -0.08,-4 -0.23,-7.84 -0.3,-11.79 a 1.12,1.12 0 0 0 -2.24,0 z"
       id="path382818" /><path
       class="cls-6"
       d="m 93.94,140.43 c 0.67,2.17 1.34,4.41 2,6.57 0.45,1.34 2.61,0.82 2.17,-0.6 -0.67,-2.16 -1.35,-4.4 -2,-6.56 -0.45,-1.35 -2.61,-0.75 -2.16,0.59 z"
       id="path382820" /><path
       class="cls-6"
       d="m 133.42,141.18 a 22.47,22.47 0 0 0 0.22,4.48 1.16,1.16 0 0 0 1.12,1.12 c 0.52,0 1.19,-0.53 1.12,-1.12 a 22.47,22.47 0 0 1 -0.22,-4.48 1.12,1.12 0 0 0 -2.24,0 z"
       id="path382822" /><path
       class="cls-6"
       d="m 170.43,137.08 c 0.45,0.89 0.9,1.71 1.35,2.61 0.67,1.27 2.61,0.15 1.94,-1.12 -0.45,-0.9 -0.9,-1.72 -1.35,-2.61 -0.67,-1.35 -2.61,-0.23 -1.94,1.12 z"
       id="path382824" /><path
       class="cls-6"
       d="m 216.41,138.05 c 0.29,1.56 0.59,3.13 0.89,4.7 0.3,1.41 2.39,0.82 2.17,-0.6 l -0.9,-4.7 c -0.3,-1.42 -2.39,-0.82 -2.16,0.6 z"
       id="path382826" /><path
       class="cls-6"
       d="m 226.85,131.25 c 0.45,3.81 1.12,7.54 1.87,11.27 0.3,1.42 2.46,0.82 2.16,-0.59 -0.74,-3.51 -1.34,-7.09 -1.79,-10.68 -0.15,-1.41 -2.38,-1.41 -2.24,0 z"
       id="path382828" /><path
       class="cls-7"
       d="m 214.02,141.75 h 0.45 a 1.12,1.12 0 1 0 0,-2.24 h -0.45 a 1.14,1.14 0 0 0 -1.12,1.12 1.2,1.2 0 0 0 1.12,1.12 z"
       id="path382830" /><path
       class="cls-7"
       d="m 229.91,130.43 a 105.44,105.44 0 0 0 1.5,10.82 c 0.3,1.42 2.46,0.83 2.16,-0.59 a 79.66,79.66 0 0 1 -1.42,-10.23 c -0.07,-1.42 -2.31,-1.42 -2.24,0 z"
       id="path382832" /><path
       class="cls-8"
       d="m 219.47,136.25 a 21.52,21.52 0 0 1 1,6.5 1.12,1.12 0 0 0 2.24,0 22.86,22.86 0 0 0 -1,-7.09 c -0.45,-1.35 -2.61,-0.82 -2.16,0.59 z"
       id="path382834" /><path
       class="cls-9"
       d="m 222.97,133.94 c 1.35,3.36 0.23,7.17 1.8,10.52 0.59,1.27 2.53,0.15 1.94,-1.12 -1.5,-3.06 -0.3,-6.79 -1.57,-9.92 -0.52,-1.42 -2.69,-0.82 -2.17,0.52 z"
       id="path382836" /><path
       d="m 92.22,146.63 a 14.7,14.7 0 0 1 9.63,-10.9 c 5.52,-1.94 11,-0.6 16.19,1.87 9.63,4.62 17.91,12.68 29,13.65 10.45,0.9 16.34,-7.16 23.21,-13.43 5,-4.55 10.52,-6.72 17.31,-5.52 6.2,1.12 11.95,4.33 17.47,7.16 9.33,4.78 21,9.18 30.45,2.39 1.12,-0.82 0.07,-2.76 -1.12,-1.94 -11.2,8.14 -24.26,-0.75 -34.71,-5.67 -9.4,-4.48 -19.62,-6.87 -28.5,0 -4,3.06 -7.09,7 -10.9,10.22 a 18.39,18.39 0 0 1 -18.43,3.51 c -11.2,-3.58 -19.71,-13.43 -31.57,-15.15 -9.17,-1.34 -18.17,4.18 -20.17,13.36 -0.3,1.19 1.86,1.79 2.16,0.45 z"
       id="path382838" /><path
       d="m 90.88,150.14 c 4.18,-4.11 11.42,1.71 16.27,2.23 a 19.75,19.75 0 0 0 10.74,-2 c 8.36,-3.73 15,-10.37 23,-14.7 4.33,-2.32 9.18,-4 14.11,-3.14 4.93,0.86 9.17,3.66 13.13,6.57 6.87,5 14.18,12 23.21,12.09 6.57,0.07 12.24,-4 17.61,-7.39 7.39,-4.63 14.85,-9.33 22.24,-14 1.2,-0.75 0.08,-2.69 -1.12,-1.94 -6.34,4 -12.76,8 -19.1,12 -5.82,3.66 -12.39,9.11 -19.55,9 -10.08,-0.07 -18.07,-9.48 -26.05,-14.4 -7.46,-4.63 -15.15,-5.67 -23.29,-1.94 -8.5,3.88 -15.15,10.74 -23.43,15 -4.85,2.54 -9.93,3.51 -15.22,1.57 -4.71,-1.72 -9.93,-4.71 -14.11,-0.6 -1,1 0.52,2.54 1.57,1.57 z"
       id="path382840" /><path
       class="cls-6"
       d="m 119.08,213.03 a 82.62,82.62 0 0 1 0.82,10.38 1.12,1.12 0 0 0 2.24,0 90,90 0 0 0 -0.9,-11 c -0.15,-1.42 -2.31,-0.82 -2.16,0.59 z"
       id="path382842" /><path
       class="cls-6"
       d="m 124.08,211.24 c 0.9,5.15 1.87,10.38 2.77,15.53 0.22,1.41 2.38,0.82 2.16,-0.6 -0.9,-5.15 -1.87,-10.37 -2.76,-15.52 -0.23,-1.42 -2.39,-0.82 -2.17,0.59 z"
       id="path382844" /><path
       class="cls-6"
       d="m 164.87,214.38 c 0.07,4.25 0.22,8.51 0.52,12.76 0.07,1.42 2.31,1.42 2.24,0 -0.3,-4.25 -0.52,-8.51 -0.52,-12.76 -0.08,-1.42 -2.32,-1.42 -2.24,0 z"
       id="path382846" /><path
       class="cls-6"
       d="m 180.99,214.6 c 0.52,4.55 0.89,9.18 1.79,13.73 0.3,1.42 2.46,0.83 2.16,-0.59 -0.82,-4.33 -1.19,-8.73 -1.71,-13.14 -0.15,-1.42 -2.39,-1.42 -2.24,0 z"
       id="path382848" /><path
       class="cls-6"
       d="m 225.39,208.56 a 43,43 0 0 0 1.35,10.74 1.12,1.12 0 0 0 2.16,-0.59 42.57,42.57 0 0 1 -1.27,-10.15 1.12,1.12 0 0 0 -2.24,0 z"
       id="path382850" /><path
       class="cls-7"
       d="m 134.72,210.27 c 0.89,5.82 1.71,11.72 2.31,17.62 0.15,1.41 2.39,1.41 2.24,0 -0.67,-6.12 -1.42,-12.17 -2.39,-18.21 -0.22,-1.42 -2.39,-0.82 -2.16,0.59 z"
       id="path382852" /><path
       class="cls-7"
       d="m 172.78,213.93 c 0.37,3.21 0.82,6.42 1.19,9.63 0.23,2.09 0,5.15 1.12,6.94 a 1.12,1.12 0 0 0 1.79,0.22 c 0,-0.07 0.08,-0.07 0.08,-0.15 a 1.08,1.08 0 0 0 0,-1.56 l -0.08,-0.08 c -1.12,-1 -2.68,0.67 -1.56,1.57 l 0.07,0.07 v -1.56 c 0,0.07 -0.07,0.07 -0.07,0.15 l 1.79,0.22 c -1.05,-1.72 -0.82,-5.75 -1.05,-7.61 -0.3,-2.62 -0.67,-5.23 -1,-7.84 -0.22,-1.42 -2.46,-1.42 -2.31,0 z"
       id="path382854" /><path
       class="cls-7"
       d="m 202.71,212.51 a 82.52,82.52 0 0 0 0.29,9.56 c 0.15,1.41 2.39,1.41 2.24,0 a 82.53,82.53 0 0 1 -0.3,-9.56 c 0.08,-1.42 -2.16,-1.42 -2.23,0 z"
       id="path382856" /><path
       class="cls-8"
       d="m 128.97,210.8 c 1.79,5.89 3.36,11.86 4.55,17.83 0.3,1.42 2.47,0.82 2.17,-0.59 a 177.19,177.19 0 0 0 -4.56,-17.84 1.1208925,1.1208925 0 0 0 -2.16,0.6 z"
       id="path382858" /><path
       class="cls-8"
       d="m 158.9,216.24 c 0.74,3.06 1.34,6.2 1.94,9.33 0.22,1.42 2.39,0.82 2.16,-0.59 -0.52,-3.14 -1.19,-6.27 -1.94,-9.33 a 1.12,1.12 0 0 0 -2.16,0.59 z"
       id="path382860" /><path
       class="cls-8"
       d="m 212.71,207.66 c 0.59,5.37 1.26,10.67 1.86,16.05 0.15,1.42 2.39,1.42 2.24,0 -0.6,-5.38 -1.27,-10.68 -1.87,-16.05 -0.14,-1.42 -2.38,-1.42 -2.23,0 z"
       id="path382862" /><path
       class="cls-8"
       d="m 230.69,209.75 c 0.3,2.17 0.6,4.26 1,6.34 0.29,1.42 2.46,0.83 2.16,-0.59 -0.37,-1.94 -0.75,-3.81 -1,-5.75 -0.15,-1.42 -2.39,-1.42 -2.24,0 z"
       id="path382864" /><path
       class="cls-9"
       d="m 140.54,215.8 c 0.74,3.06 1.42,6 2.16,9.1 0.3,1.42 2.46,0.82 2.17,-0.6 -0.75,-3.06 -1.42,-6 -2.17,-9.1 a 1.1208925,1.1208925 0 0 0 -2.16,0.6 z"
       id="path382866" /><path
       class="cls-9"
       d="m 145.16,218.75 c 0.45,1 0.83,1.94 1.27,2.91 0.38,0.82 0.6,1.79 1.42,2.24 a 1,1 0 0 0 1.12,0 1.27,1.27 0 0 0 0.15,-2.17 l -0.07,-0.07 c -1.2,-0.75 -2.32,1.19 -1.12,1.94 l 0.07,0.07 c -0.15,-0.45 -0.37,-0.82 -0.52,-1.27 v 0.15 c 0.15,-0.22 0.37,-0.44 0.52,-0.67 -0.07,0 -0.07,0.08 -0.15,0.08 h 1.12 c 0.15,0.15 0.15,0.07 -0.07,-0.3 -0.22,-0.37 -0.23,-0.45 -0.3,-0.67 -0.15,-0.38 -0.3,-0.68 -0.45,-1 -0.37,-0.82 -0.67,-1.57 -1,-2.39 -0.53,-1.27 -2.47,-0.15 -1.95,1.2 z"
       id="path382868" /><path
       class="cls-9"
       d="m 168.52,214.68 c 1.2,4.77 0.3,9.7 1.57,14.48 a 1.13,1.13 0 0 0 2.17,-0.6 c -1.35,-4.7 -0.38,-9.7 -1.57,-14.48 a 1.13,1.13 0 0 0 -2.17,0.6 z"
       id="path382870" /><path
       class="cls-9"
       d="m 186.51,216.32 1.57,8.36 c 0.22,1.42 2.39,0.82 2.16,-0.6 -0.52,-2.76 -1,-5.6 -1.57,-8.36 -0.29,-1.42 -2.46,-0.82 -2.16,0.6 z"
       id="path382872" /><path
       class="cls-9"
       d="m 207.78,209.53 c 0.22,4.4 -0.3,9.7 1.19,13.95 0.45,1.35 2.62,0.75 2.17,-0.59 -1.42,-4 -0.9,-9.11 -1.12,-13.36 -0.08,-1.42 -2.31,-1.42 -2.24,0 z"
       id="path382874" /><path
       class="cls-9"
       d="m 218.83,207.89 a 98.89,98.89 0 0 0 2.31,14 1.1208925,1.1208925 0 0 0 2.16,-0.6 102,102 0 0 1 -2.22,-13.4 c -0.07,-1.42 -2.31,-1.42 -2.23,0 z"
       id="path382876" /><path
       d="m 110.39,224.75 c 2.68,-4.1 5.44,-8.28 9.4,-11.27 5.6,-4.25 12,-3.73 18.21,-0.74 9.48,4.62 16.87,12.76 26.57,16.94 7.54,3.21 17,4.25 24,-0.9 3.2,-2.39 5.37,-5.74 7.61,-9 3.43,-5.07 7.16,-8.66 13.13,-10.52 12.17,-3.73 25.9,-0.67 35.68,7.31 1.12,0.9 2.68,-0.67 1.56,-1.56 a 41.88,41.88 0 0 0 -28.13,-9.48 34.8,34.8 0 0 0 -14.7,3.65 c -4.33,2.32 -7.09,6 -9.78,9.93 -3.36,5 -6.94,9.48 -13.14,10.67 -6,1.2 -12.31,-0.52 -17.61,-3.21 -10.22,-5.3 -18.43,-15.15 -29.85,-18 -11.64,-2.91 -19.18,6.34 -24.85,15 -0.82,1.27 1.12,2.39 1.94,1.19 z"
       id="path382878" /><path
       d="m 108.52,208.75 c 4.4,9.1 9.7,19.25 20.23,22.09 10.82,2.91 17.09,-5.82 25.15,-11.12 a 38.91,38.91 0 0 1 31.94,-4.56 c 5.67,1.72 10.22,5.23 15.3,8 a 24.89,24.89 0 0 0 15.15,2.91 c 12.39,-1.72 21.27,-11.19 29.25,-19.93 1,-1 -0.59,-2.68 -1.56,-1.56 -9.18,10.15 -21.95,23.43 -37.24,18.65 -6.35,-2 -11.42,-6.86 -17.62,-9.25 a 40.21,40.21 0 0 0 -16.27,-2.54 41.59,41.59 0 0 0 -15.22,3.66 c -5.67,2.61 -9.78,6.87 -14.7,10.45 -6.72,4.85 -14.41,4.48 -20.9,-0.75 -5.45,-4.4 -8.58,-11 -11.57,-17.24 -0.67,-1.27 -2.61,-0.15 -1.94,1.2 z"
       id="path382880" /><path
       class="cls-6"
       d="m 105.16,242.22 a 78.74,78.74 0 0 1 0.82,10.37 1.12,1.12 0 0 0 2.24,0 90.11,90.11 0 0 0 -0.89,-11 c -0.23,-1.42 -2.39,-0.82 -2.17,0.6 z"
       id="path382882" /><path
       class="cls-6"
       d="m 110.08,240.42 c 0.89,5.15 1.86,10.38 2.76,15.53 0.22,1.42 2.39,0.82 2.16,-0.6 -0.89,-5.15 -1.86,-10.37 -2.76,-15.52 -0.3,-1.42 -2.46,-0.82 -2.16,0.59 z"
       id="path382884" /><path
       class="cls-6"
       d="m 150.84,243.56 c 0.07,4.25 0.22,8.51 0.52,12.76 0.07,1.42 2.31,1.42 2.24,0 -0.3,-4.25 -0.52,-8.51 -0.52,-12.76 a 1.12,1.12 0 0 0 -2.24,0 z"
       id="path382886" /><path
       class="cls-6"
       d="m 167.08,243.75 c 0.52,4.56 0.9,9.18 1.79,13.73 0.3,1.42 2.47,0.83 2.17,-0.59 -0.82,-4.33 -1.2,-8.73 -1.72,-13.14 -0.15,-1.42 -2.39,-1.42 -2.24,0 z"
       id="path382888" /><path
       class="cls-6"
       d="m 211.36,237.75 a 43,43 0 0 0 1.35,10.74 1.12,1.12 0 0 0 2.16,-0.59 42.57,42.57 0 0 1 -1.27,-10.15 1.12,1.12 0 0 0 -2.24,0 z"
       id="path382890" /><path
       class="cls-7"
       d="m 120.69,239.45 c 0.89,5.83 1.71,11.72 2.31,17.62 0.15,1.41 2.39,1.41 2.24,0 -0.67,-6.12 -1.42,-12.17 -2.39,-18.21 -0.22,-1.42 -2.39,-0.82 -2.16,0.59 z"
       id="path382892" /><path
       class="cls-7"
       d="m 158.75,243.11 c 0.37,3.21 0.82,6.42 1.19,9.63 0.23,2.09 0,5.15 1.12,6.94 a 1.12,1.12 0 0 0 1.79,0.22 c 0,-0.07 0.08,-0.07 0.08,-0.15 a 1.08,1.08 0 0 0 0,-1.56 l -0.08,-0.08 c -1.12,-1 -2.68,0.67 -1.57,1.57 l 0.08,0.07 v -1.56 c 0,0.07 -0.08,0.07 -0.08,0.15 l 1.8,0.22 c -1.05,-1.72 -0.82,-5.75 -1.05,-7.61 -0.3,-2.61 -0.67,-5.23 -1,-7.84 -0.22,-1.42 -2.46,-1.42 -2.31,0 z"
       id="path382894" /><path
       class="cls-7"
       d="m 188.75,241.69 a 80.36,80.36 0 0 0 0.3,9.56 c 0.15,1.41 2.39,1.41 2.24,0 a 80.36,80.36 0 0 1 -0.3,-9.56 1.12,1.12 0 0 0 -2.24,0 z"
       id="path382896" /><path
       class="cls-8"
       d="m 115.01,239.98 c 1.8,5.89 3.36,11.86 4.56,17.83 0.29,1.42 2.46,0.82 2.16,-0.59 a 177.15,177.15 0 0 0 -4.55,-17.84 1.13,1.13 0 0 0 -2.17,0.6 z"
       id="path382898" /><path
       class="cls-8"
       d="m 144.87,245.5 c 0.74,3.06 1.34,6.19 1.94,9.33 0.22,1.42 2.38,0.82 2.16,-0.6 -0.52,-3.13 -1.19,-6.27 -1.94,-9.33 -0.3,-1.42 -2.46,-0.82 -2.16,0.6 z"
       id="path382900" /><path
       class="cls-8"
       d="m 198.75,236.84 c 0.6,5.38 1.27,10.67 1.87,16 0.14,1.42 2.38,1.42 2.23,0 -0.59,-5.38 -1.26,-10.67 -1.86,-16 -0.23,-1.42 -2.46,-1.42 -2.24,0 z"
       id="path382902" /><path
       class="cls-8"
       d="m 216.74,238.93 c 0.29,2.17 0.59,4.26 1,6.35 0.3,1.41 2.46,0.82 2.16,-0.6 -0.37,-1.94 -0.74,-3.81 -1,-5.75 -0.22,-1.42 -2.46,-1.42 -2.23,0 z"
       id="path382904" /><path
       class="cls-9"
       d="m 126.51,244.98 c 0.74,3.06 1.42,6 2.16,9.1 0.3,1.42 2.46,0.82 2.17,-0.6 -0.75,-3.06 -1.42,-6 -2.17,-9.1 -0.3,-1.34 -2.46,-0.75 -2.16,0.6 z"
       id="path382906" /><path
       class="cls-9"
       d="m 131.21,247.89 c 0.45,1 0.82,1.94 1.27,2.91 0.37,0.82 0.59,1.79 1.42,2.24 a 1,1 0 0 0 1.11,0 1.21,1.21 0 0 0 0.68,-0.9 1.22,1.22 0 0 0 -0.53,-1.27 l -0.07,-0.07 c -1.19,-0.75 -2.31,1.19 -1.12,1.94 l 0.07,0.07 c -0.14,-0.44 -0.37,-0.82 -0.52,-1.27 v 0.15 c 0.15,-0.22 0.38,-0.44 0.52,-0.67 -0.07,0 -0.07,0.08 -0.14,0.08 h 1.11 c 0.15,0.15 0.15,0.07 -0.07,-0.3 -0.22,-0.37 -0.22,-0.45 -0.3,-0.67 -0.15,-0.38 -0.3,-0.68 -0.45,-1 -0.37,-0.82 -0.67,-1.57 -1,-2.39 -0.6,-1.27 -2.54,-0.15 -1.94,1.2 z"
       id="path382908" /><path
       class="cls-9"
       d="m 154.49,243.86 c 1.2,4.77 0.3,9.7 1.57,14.48 a 1.13,1.13 0 0 0 2.17,-0.6 c -1.35,-4.7 -0.38,-9.7 -1.57,-14.48 a 1.13,1.13 0 0 0 -2.17,0.6 z"
       id="path382910" /><path
       class="cls-9"
       d="m 172.48,245.5 c 0.52,2.76 1,5.6 1.57,8.36 0.22,1.42 2.39,0.82 2.16,-0.6 -0.52,-2.76 -1,-5.6 -1.57,-8.36 -0.22,-1.42 -2.38,-0.82 -2.16,0.6 z"
       id="path382912" /><path
       class="cls-9"
       d="m 193.82,238.75 c 0.23,4.4 -0.29,9.7 1.2,13.95 0.45,1.35 2.61,0.75 2.16,-0.59 -1.42,-4 -0.89,-9.11 -1.12,-13.36 -0.07,-1.42 -2.31,-1.42 -2.24,0 z"
       id="path382914" /><path
       class="cls-9"
       d="m 204.87,237.07 a 100.34,100.34 0 0 0 2.31,14 1.13,1.13 0 0 0 2.17,-0.6 100.35,100.35 0 0 1 -2.27,-13.4 c -0.15,-1.42 -2.39,-1.42 -2.24,0 z"
       id="path382916" /><path
       d="m 96.36,253.93 c 2.68,-4.1 5.44,-8.28 9.4,-11.27 5.6,-4.25 12,-3.73 18.21,-0.74 9.48,4.62 16.87,12.76 26.57,16.94 7.54,3.21 17,4.25 23.95,-0.9 3.21,-2.39 5.38,-5.74 7.62,-9 3.43,-5.07 7.16,-8.65 13.13,-10.52 12.17,-3.73 25.9,-0.67 35.68,7.31 1.11,0.9 2.68,-0.67 1.56,-1.56 a 41.88,41.88 0 0 0 -28.13,-9.48 34.88,34.88 0 0 0 -14.71,3.65 c -4.32,2.32 -7.09,6 -9.77,9.93 -3.36,5 -6.94,9.48 -13.14,10.67 -6,1.2 -12.31,-0.52 -17.61,-3.21 -10.22,-5.3 -18.43,-15.15 -29.85,-18 -11.64,-2.91 -19.18,6.34 -24.85,15 a 1.14,1.14 0 0 0 1.94,1.19 z"
       id="path382918" /><path
       d="m 94.49,237.89 c 4.4,9.1 9.7,19.25 20.23,22.09 10.82,2.91 17.09,-5.82 25.15,-11.12 a 38.87,38.87 0 0 1 31.94,-4.55 c 5.67,1.71 10.22,5.22 15.3,8 a 24.89,24.89 0 0 0 15.15,2.91 c 12.39,-1.72 21.27,-11.19 29.25,-19.93 1,-1 -0.59,-2.68 -1.56,-1.56 -9.18,10.15 -22,23.43 -37.25,18.66 -6.34,-2 -11.41,-6.87 -17.61,-9.26 a 40.41,40.41 0 0 0 -16.27,-2.54 41.59,41.59 0 0 0 -15.22,3.66 c -5.67,2.61 -9.78,6.87 -14.7,10.45 -6.72,4.85 -14.41,4.48 -20.9,-0.75 -5.45,-4.4 -8.58,-11 -11.57,-17.24 -0.6,-1.27 -2.54,-0.15 -1.94,1.2 z"
       id="path382920" /><path
       d="m 94.64,165.38 c -2.61,-4 -10.52,-3.48 -14.33,-0.59 -2.76,2.09 -3.36,5.25 -3.36,8 0.08,4.17 1.2,8.35 1.72,12.53 2.39,17.79 2.69,35.63 2.16,53.48 -0.3,10.34 -0.82,20.68 -1.34,31 a 0.86,0.86 0 0 0 0.82,0.75 46.48,46.48 0 0 0 15.45,-0.91 c 1.34,-0.32 0.75,-1.88 -0.6,-1.55 A 44,44 0 0 1 80.91,269 c 0.3,0.26 0.52,0.53 0.82,0.75 1,-19.61 2,-39.22 1.27,-58.84 a 260.2,260.2 0 0 0 -2.69,-29.3 c -0.6,-4.18 -2.39,-9.06 -0.52,-13.18 1.57,-3.43 9.7,-6.92 12.76,-2.31 0.75,1 2.69,0.16 2.09,-0.8 z"
       id="path382922" /><path
       d="m 238.01,160.45 a 51.44,51.44 0 0 0 16.79,2.41 l -1.12,-0.8 a 388.28,388.28 0 0 0 -4.33,58 c 0,9.54 0.37,19 1,28.51 0.15,2.46 0.38,4.93 0.6,7.39 0.22,2.68 0.82,5.63 -2.09,7.77 -4.7,3.38 -12.84,4.45 -19.18,4.4 -1.42,0 -1.42,1.6 0,1.6 a 43.1,43.1 0 0 0 17.54,-3.16 c 4.78,-2 6.34,-4.71 6.12,-8.62 -0.6,-10.51 -1.64,-20.95 -1.79,-31.51 a 395.67,395.67 0 0 1 4.25,-64.35 c 0.08,-0.43 -0.59,-0.8 -1.12,-0.8 a 49.51,49.51 0 0 1 -15.67,-2.2 c -1.19,-0.48 -2.39,0.91 -1,1.34 z"
       id="path382924" /><path
       d="m 91.89,97.99 c -2.68,-0.31 -5.42,-0.68 -8.1,-1 A 46.85,46.85 0 0 0 78.42,96.4 c -3.07,0.1 -2.75,1.84 -2.6,3.35 0.61,6.15 1.15,12.32 1.4,18.44 a 237.76,237.76 0 0 1 -1.35,35.56 c 0,0.41 0.53,0.76 1.27,0.84 7.52,0.87 15,1.79 22.62,2.68 1.41,0.18 1.07,-1.08 -0.35,-1.26 -7.51,-0.87 -15,-1.79 -22.61,-2.68 0.39,0.28 0.86,0.59 1.27,0.84 a 237.89,237.89 0 0 0 1.44,-31.65 c -0.1,-5 -0.35,-10 -0.82,-15 -0.1,-1.33 -0.21,-2.67 -0.37,-4 -0.16,-1.33 -0.7,-2.85 -0.46,-4 0.5,-2.39 3.68,-1.52 6.88,-1.14 2.45,0.31 5,0.63 7.43,0.9 1.48,0.23 1.13,-1 -0.28,-1.21 z"
       id="path382926" /><path
       d="m 236.27,91.46 c 4.62,0.22 9.16,0.47 13.79,0.69 l -1.09,-0.65 a 135.86,135.86 0 0 0 1.11,34.33 129.23,129.23 0 0 0 3.71,16.55 c 0.38,1.3 0.77,2.56 1.16,3.87 0.39,1.31 1.78,3.37 0.31,4.59 -1.47,1.22 -5.14,1.16 -7.84,1.39 l -8.33,0.82 c -1.43,0.13 -0.89,1.32 0.54,1.19 5.18,-0.48 11.16,-0.64 16.06,-1.58 3.17,-0.61 2.86,-1.91 2.34,-3.54 -1.86,-6.55 -3.87,-13.06 -5.05,-19.66 a 134.27,134.27 0 0 1 -1.73,-37.85 c 0,-0.32 -0.5,-0.63 -1.09,-0.66 -4.63,-0.21 -9.17,-0.47 -13.79,-0.69 -1.57,-0.07 -1.63,1.13 -0.13,1.2 z"
       id="path382928" /><path
       d="m 30.08,46.3 c 1.77,-11.28 -14.8,-15 -22.42,-10.29 -9.91,6.18 -8.37,21.2 -5.26,30.74 2.95,9 14.3,17.44 23.39,10.52 3.51,-2.68 5.62,-8.28 5.16,-12.66 -0.5,-4.74 -5.58,-3.77 -9.41,-3.49 l 0.51,1.87 c 2.25,-1.09 6.52,-3.4 6.57,0.56 a 1,1 0 0 0 2,0 v -3.61 a 1,1 0 0 0 -1,-1 24,24 0 0 0 -8.54,2.32 1,1 0 0 0 0.5,1.86 c 1.37,-0.1 3.23,-0.47 4.6,-0.11 3.64,0.94 3,2.94 2.29,5.9 -1.13,4.93 -4.49,8.68 -9.87,8.72 C 9.83,77.69 5.06,70.25 3.43,62.58 2.02,55.96 0.96,47.44 4.89,41.44 a 13.61,13.61 0 0 1 13.53,-5.63 c 4.32,0.87 10.55,5 9.77,10 -0.19,1.26 1.73,1.8 1.93,0.53 z"
       id="path382930" /><path
       d="m 30.53,60.49 -0.09,-0.11 c -0.64,-0.8 -2,0.06 -1.67,1 a 46.31,46.31 0 0 1 2.1,12.53 c 0,1.8 -0.67,4.19 1.18,5.23 1.13,0.63 2.14,-1.1 1,-1.73 C 32.32,77 32.63,70.14 32.49,69 a 50.23,50.23 0 0 0 -1.8,-8.15 l -1.61,0.9 0.09,0.11 c 0.8,1 2.21,-0.42 1.41,-1.41 z"
       id="path382932" /><path
       d="m 38.54,71.05 c 4.89,0 13.19,0.57 15.57,-4.93 2.55,-5.86 -6,-7 -9.85,-5.85 -6.42,1.87 -6.18,8.48 -5.18,14.01 0.46,2.51 1.11,4.55 3.75,5.38 3.4,1.07 7.74,-0.68 11,-1.44 1.25,-0.29 0.72,-2.22 -0.54,-1.93 -1.81,0.42 -3.63,0.91 -5.46,1.26 -2.92,0.56 -5.32,0.59 -6.58,-2.55 -1.48,-3.72 -1.53,-10.77 2.71,-12.48 1.54,-0.63 4.34,-1.17 6,-0.42 1.66,0.75 3.06,2.4 1.92,4 a 5.92,5.92 0 0 1 -2.94,2 c -3.28,1.08 -7,1 -10.39,1 a 1,1 0 0 0 0,2 z"
       id="path382934" /><path
       d="m 57.59,62.25 c 2.59,5.22 1.7,12.6 1.9,18.31 l 2,-0.26 -0.11,-0.41 a 1.0007247,1.0007247 0 0 0 -1.93,0.53 l 0.11,0.41 a 1.0090714,1.0090714 0 0 0 2,-0.27 c -0.22,-6.22 0.66,-13.6 -2.17,-19.32 -0.58,-1.16 -2.3,-0.14 -1.73,1 z"
       id="path382936" /><path
       d="m 62.08,69.18 c 1.87,-2.25 9.37,-10.44 11.79,-4.61 0.68,1.61 0,4.63 -0.09,6.35 a 61.94,61.94 0 0 1 -1.31,8.88 c -0.27,1.25 1.66,1.79 1.93,0.53 a 63.27,63.27 0 0 0 1.52,-12.94 c 0,-2.2 0.31,-4.81 -1.8,-6.11 -4.89,-3 -10.73,3.21 -13.45,6.49 -0.82,1 0.59,2.4 1.41,1.41 z"
       id="path382938" /><path
       d="m 81.69,72.35 c 3.57,-0.77 16.18,-3.14 15.52,-8.77 -0.56,-4.73 -10,-4.52 -12.84,-2.79 -4.1,2.48 -6.68,10.4 -4.81,14.81 2.53,6 11.07,4.27 16,3.25 1.26,-0.26 0.72,-2.19 -0.54,-1.93 -3.49,0.73 -9.78,2.23 -12.69,-0.77 -2.91,-3 -0.57,-10.09 2.09,-12.76 1.43,-1.43 3.62,-1.67 5.57,-1.59 1,0 2.64,0 3.49,0.61 1.08,0.12 1.19,0.78 0.32,2 0.2,1 -0.09,1.69 -0.88,2 -2.62,2.43 -8.35,3.34 -11.73,4.07 -1.26,0.27 -0.73,2.2 0.53,1.93 z"
       id="path382940" /><path
       d="m 106.47,51.38 0.61,-0.63 -1.71,-0.71 c -0.46,4.47 -0.79,9 -0.9,13.44 -0.1,4 -0.94,9.74 0.26,13.58 1.2,3.84 7.9,2.3 10.91,1.77 1.27,-0.23 0.73,-2.15 -0.53,-1.93 -2.74,0.48 -7.09,1.46 -8.5,-1.9 -0.87,-2.08 -0.2,-6.46 -0.18,-8.64 0,-5.46 0.38,-10.89 0.94,-16.32 0.1,-0.91 -1.13,-1.24 -1.71,-0.7 l -0.63,0.58 c -1,0.88 0.47,2.29 1.41,1.42 z"
       id="path382942" /><path
       d="m 99.93,63.09 q 6.48,-0.68 13,-1.29 c 1.27,-0.12 1.29,-2.12 0,-2 q -6.48,0.62 -13,1.29 c -1.27,0.13 -1.28,2.13 0,2 z"
       id="path382944" /><path
       d="m 122.54,61.75 a 46.11,46.11 0 0 1 -0.7,10.68 c -0.22,1.54 -0.78,3.49 0,5 2.1,4 7.38,0.62 10.41,0.7 a 1,1 0 0 0 0,-2 13.32,13.32 0 0 0 -4,0.89 c -1.5,0.4 -2.34,0.55 -3.65,-0.43 -1.62,-1.21 -1.08,-1.35 -0.77,-3.6 0.51,-3.75 1.11,-7.41 0.77,-11.21 -0.12,-1.27 -2.12,-1.28 -2,0 z"
       id="path382946" /><path
       d="m 122.46,54.75 h -0.06 a 1,1 0 0 0 -0.73,1 c 0.06,0.75 1,1.5 1.71,0.94 a 1,1 0 0 0 0.36,-1.37 1,1 0 0 0 -1.37,-0.36 v 0 l 0.51,-0.14 h -0.07 l 0.51,0.14 0.1,0.09 0.29,0.71 v 0 l -0.74,1 h 0.06 a 1,1 0 0 0 0.7,-1.23 1,1 0 0 0 -1.23,-0.7 z"
       id="path382948" /><path
       d="m 150.42,64.15 c 0.66,-3.39 -3.31,-4.39 -6,-4.13 -4.35,0.41 -6.79,3.5 -7.93,7.51 -0.85,3 -1.44,8.23 1.58,10.35 3.4,2.39 9.49,0.68 12.7,-1.23 a 1,1 0 0 0 -1,-1.73 14,14 0 0 1 -7,1.93 c -3.87,0.06 -5,-2 -4.91,-5.58 0.08,-2.37 0.88,-5.49 2.5,-7.29 a 6.41,6.41 0 0 1 3.72,-1.91 c 1.14,-0.21 4.83,-0.35 4.46,1.55 -0.24,1.26 1.68,1.8 1.93,0.53 z"
       id="path382950" /><path
       d="m 195.9,58.52 c -3.61,-5.64 -10.17,-3.71 -12.58,1.87 -2,4.65 -4.52,16 2.09,18.35 15.5,5.57 14.35,-32.57 14.92,-40.28 0.1,-1.29 -1.87,-1.26 -2,0 l -2,20.71 c -0.61,6.23 -2.45,13.42 -0.54,19.52 0.38,1.23 2.32,0.7 1.93,-0.53 -1.94,-6.19 0.14,-14.19 0.76,-20.57 l 1.87,-19.13 h -2 c -0.63,8.41 -0.74,17 -2.2,25.28 a 42.28,42.28 0 0 1 -1.57,6.58 13.11,13.11 0 0 1 -2.5,4.69 q -4,4.37 -8.43,-1.15 c -1,-2.71 -0.11,-6.89 0.56,-9.52 1,-4.08 5.74,-11.49 10,-4.81 0.69,1.08 2.42,0.08 1.73,-1 z"
       id="path382952" /><path
       d="m 217.39,62.43 c 1.53,-5 -4.28,-6.79 -8.16,-6.3 -5.76,0.72 -5.52,11.19 -5.57,15.37 -0.05,4.87 5,6.51 8.9,4.32 6.63,-3.78 5.91,-11.35 5.83,-18 a 1,1 0 0 0 -2,0 c -0.55,5.91 -0.95,11.75 -0.13,17.66 0.18,1.27 2.11,0.73 1.93,-0.54 -0.8,-5.71 -0.33,-11.41 0.2,-17.12 h -2 a 65.45,65.45 0 0 1 -0.27,9.18 8.67,8.67 0 0 1 -3,5.84 c -1.9,1.71 -6.63,4 -7.49,-0.92 -0.38,-2.16 0.32,-5.05 0.56,-7.22 0.16,-1.42 0.34,-3.9 1.31,-5.15 a 4.64,4.64 0 0 1 4,-1.51 c 2.26,-0.14 3.58,1.14 4,3.82 -0.38,1.23 1.55,1.76 1.93,0.53 z"
       id="path382954" /><path
       d="m 227.32,38.15 c -0.92,10.85 -2.52,22.23 -2.14,33.12 0.08,2.27 0.28,4.34 2.69,5.19 3.13,1.09 6,-1.85 9.06,-2 1.28,0 1.29,-2 0,-2 -2.35,0.08 -4.45,2 -6.58,2.06 -4.9,0.07 -2.83,-10.47 -2.69,-13 q 0.66,-11.7 1.66,-23.37 c 0.11,-1.28 -1.89,-1.28 -2,0 z"
       id="path382956" /><path
       d="m 221.08,59.61 a 117.59,117.59 0 0 1 15.88,-1.76 c 1.28,-0.05 1.29,-2.05 0,-2 a 122.06,122.06 0 0 0 -16.41,1.83 c -1.27,0.23 -0.73,2.16 0.53,1.93 z"
       id="path382958" /><path
       d="m 253.43,63.06 c -0.72,-4 -6.68,-8.11 -10.53,-5.54 -2.25,1.5 -2.46,4.41 -2.6,6.85 -0.17,3.17 -0.87,7.9 0.95,10.75 2.54,4 8.05,2.59 10.64,-0.49 4.21,-5 4.49,-12.74 3.19,-18.81 a 1.0090714,1.0090714 0 0 0 -2,0.27 c 0.52,7.31 0.7,13.93 3.51,20.78 l 1.67,-1 -0.46,-0.51 c -0.87,-1 -2.28,0.47 -1.42,1.42 l 0.46,0.5 c 0.64,0.7 2.06,0 1.67,-1 -2.7,-6.61 -2.93,-13.21 -3.43,-20.25 l -2,0.26 c 1.14,5.3 1.2,17.1 -5.69,19.06 -5.66,1.61 -5.38,-6.77 -5.2,-10.25 0.14,-2.59 -0.1,-3.39 2.38,-4.88 1.31,-1.51 2.75,-1.62 4.3,-0.31 a 4.33,4.33 0 0 1 2.56,3.62 c 0.23,1.26 2.16,0.73 1.93,-0.53 z"
       id="path382960" /><path
       d="m 62.82,205.9 c 1.79,2 4,5 1.49,7.39 a 8.42,8.42 0 0 1 -6.49,2 10.27,10.27 0 0 0 -1.27,-2.31 7.41,7.41 0 0 0 5.52,-0.75 c 2.39,-1.56 0.15,-4 -1.27,-5.37 -1.42,-1.37 -4.1,-2.91 -5.82,-1 -1.12,1.19 -1,3.13 -0.74,4.7 a 14.23,14.23 0 0 0 -2.16,-1.6 c 0,-2.31 0.6,-4.63 2.84,-5.6 2.97,-1.34 5.96,0.39 7.9,2.54 z"
       id="path382962" /><path
       class="cls-10"
       d="m 60.88,206.87 c 1.42,1.34 3.66,3.81 1.27,5.37 a 7.11,7.11 0 0 1 -5.52,0.75 12.31,12.31 0 0 0 -2.32,-2.46 c -0.15,-1.57 -0.3,-3.51 0.75,-4.7 1.71,-1.87 4.4,-0.3 5.82,1.04 z"
       id="path382964" /><path
       d="m 58.19,216.35 a 0.89,0.89 0 0 1 -0.44,1.12 l -0.45,-2.24 a 1.34,1.34 0 0 1 0.52,0.07 4.2,4.2 0 0 1 0.37,1.05 z"
       id="path382966" /><path
       d="m 57.75,217.47 c 1.49,8.95 -0.83,17.39 -10.38,20.82 -9.18,3.28 -20.9,3.14 -29,-2.76 -6,-4.4 -11.56,-13.73 -7,-21 a 14.24,14.24 0 0 1 3.84,-3.78 3.9,3.9 0 0 0 1,0.52 0.85,0.85 0 0 0 0.75,0 l 0.44,0.68 a 21.75,21.75 0 0 0 -2.16,1.49 c -4.7,3.81 -3.88,10.15 -1,14.78 5.82,9.47 18.06,11.34 28.21,9.18 5.3,-1.12 10.75,-3.36 12.76,-8.81 1.72,-4.4 0.9,-9.4 -0.22,-13.81 v -0.15 c 0.07,0 0.22,0.08 0.3,0.08 a 6.76,6.76 0 0 1 0.82,2 1,1 0 0 0 1.64,0.76 z"
       id="path382968" /><path
       d="m 57.82,215.3 a 1.34,1.34 0 0 1 -0.52,-0.07 l -0.23,-0.9 a 1,1 0 0 0 -2,0 5.12,5.12 0 0 0 -0.75,-1 v 0 a 0.89,0.89 0 0 1 1.2,-0.59 c 0.37,0.07 0.67,0.22 1,0.3 a 8.32,8.32 0 0 1 1.3,2.26 z"
       id="path382970" /><path
       d="m 57.75,217.47 a 1.07,1.07 0 0 1 -1.57,-0.6 12.93,12.93 0 0 0 -0.82,-2 13.9,13.9 0 0 0 1.94,0.37 z"
       id="path382972" /><path
       d="m 57.08,214.33 0.23,0.9 a 13.9,13.9 0 0 1 -1.94,-0.37 c -0.08,-0.15 -0.23,-0.38 -0.3,-0.53 a 1.005,1.005 0 0 1 2.01,0 z"
       id="path382974" /><path
       d="m 56.55,212.99 a 4,4 0 0 1 -1,-0.3 0.9,0.9 0 0 0 -1.2,0.6 9,9 0 0 0 -1.27,-1.27 1,1 0 0 0 1.27,-1 c 0,-0.22 -0.08,-0.37 -0.08,-0.6 a 18.12,18.12 0 0 1 2.28,2.57 z"
       id="path382976" /><path
       class="cls-10"
       d="m 55.08,214.93 c 1.19,4.4 1.94,9.41 0.22,13.81 -2.09,5.37 -7.54,7.69 -12.76,8.8 -10.15,2.09 -22.31,0.3 -28.21,-9.17 -2.84,-4.63 -3.66,-11.05 1,-14.78 a 21.75,21.75 0 0 1 2.16,-1.49 33.37,33.37 0 0 1 11,-4.26 c 6.42,-1.27 17.76,-1.12 23.88,3.73 a 1,1 0 0 0 0.75,0.6 9,9 0 0 1 1.19,1.27 v 0 a 1.11,1.11 0 0 0 0.67,1.42 v 0 z m -33.44,4.55 a 1.94,1.94 0 0 0 1.35,-2.38 v -0.08 a 1.49,1.49 0 0 0 -0.75,-0.89 1.67,1.67 0 0 0 -1.34,0.07 c -1,0.6 -0.9,1.87 -0.38,2.76 a 1,1 0 0 0 1.1,0.52 z m 1,10.08 v -5.08 c 0,-0.52 -0.52,-1.12 -1,-1 a 16.58,16.58 0 0 0 -3.81,0.75 1.11,1.11 0 0 0 -0.15,2 4.54,4.54 0 0 0 3.66,4.4 1.14,1.14 0 0 0 1.25,-1.07 z m -6,-10.52 a 1.41,1.41 0 0 0 -1.2,-2.09 1.34,1.34 0 0 0 -1.19,0.67 1.39,1.39 0 0 0 0,1.42 1,1 0 0 0 1.12,0.52 1.23,1.23 0 0 0 1.18,-0.52 z"
       id="path382978" /><path
       d="m 55.28,214.86 c -0.07,0 -0.22,-0.08 -0.3,-0.08 v -0.37 a 1.47,1.47 0 0 1 0.3,0.45 z"
       id="path382980" /><path
       d="m 54.98,214.41 c 0,0.15 -0.07,0.22 0,0.37 v 0 a 1.1,1.1 0 0 1 -0.67,-1.42 4.94,4.94 0 0 1 0.67,1.05 z"
       id="path382982" /><path
       d="m 54.39,211.13 a 1,1 0 0 1 -1.27,1 4.93,4.93 0 0 0 -0.75,-0.6 0.49,0.49 0 0 1 -0.07,-0.3 18.47,18.47 0 0 1 -0.15,-2.16 14.58,14.58 0 0 1 2.16,1.56 c 0,0.12 0.08,0.35 0.08,0.5 z"
       id="path382984" /><path
       d="m 52.37,211.5 c 0.23,0.22 0.52,0.37 0.75,0.6 a 1.21,1.21 0 0 1 -0.75,-0.6 z"
       id="path382986" /><path
       d="m 52.3,211.13 c 0,0.14 0.07,0.22 0.07,0.29 -6.12,-4.85 -17.46,-5 -23.88,-3.73 a 31.2,31.2 0 0 0 -11,4.26 l -0.44,-0.68 a 1.23,1.23 0 0 0 0.52,-1.19 1.18,1.18 0 0 0 0.75,-0.9 v -0.07 c 0.14,-0.07 0.37,-0.15 0.52,-0.22 a 1,1 0 0 0 1.42,-0.38 c 0.07,-0.15 0.15,-0.22 0.22,-0.37 l 1.12,-0.45 a 37.69,37.69 0 0 1 15.22,-2.68 c 4.78,0.14 10.9,1.19 15.53,4 a 6.37,6.37 0 0 0 -0.05,2.12 z"
       id="path382988" /><path
       d="m 27.37,180.9 c 3.81,1.42 6,7.69 4.48,11.27 -1.05,2.61 -3.36,4.55 -5.08,6.64 a 60.8,60.8 0 0 0 -6.41,9.33 15,15 0 0 0 -1.65,0.75 0.87,0.87 0 0 1 -0.44,-0.45 c 0.07,-0.37 0.07,-0.75 0.14,-1.12 a 69.8,69.8 0 0 1 7,-10 c 1.64,-1.94 3.95,-3.81 4.62,-6.34 a 7.65,7.65 0 0 0 -1.79,-6.8 c -5.52,-5.74 -8.51,9 -8.81,11.94 -0.44,3.74 -0.52,7.39 -0.89,11.12 0,0.08 -0.08,0.08 -0.08,0.15 a 0.94,0.94 0 0 0 0,1 c 0,0.23 -0.07,0.53 -0.07,0.75 a 1.74,1.74 0 0 0 -0.52,0.3 1,1 0 0 0 0.45,-0.82 c 0.14,-4 0.37,-7.91 0.52,-11.94 a 75,75 0 0 0 0.37,-9.11 c 1.22,-3.61 3.98,-8.16 8.16,-6.67 z"
       id="path382990" /><path
       class="cls-10"
       d="m 28.08,184.18 a 7.68,7.68 0 0 1 1.79,6.8 c -0.67,2.53 -3,4.4 -4.63,6.34 a 66.76,66.76 0 0 0 -6.94,10 c 0.37,-3.73 0.45,-7.39 0.9,-11.12 0.41,-2.99 3.39,-17.76 8.88,-12.02 z"
       id="path382992" /><path
       d="m 20.88,217.39 v 0 c 0,0.15 0,0.23 0.07,0.3 v 0.06 a 1,1 0 0 0 1,0.67 1,1 0 0 0 1,-1.05 0.64,0.64 0 0 0 -0.08,-0.37 v 0.08 a 1.88,1.88 0 0 1 -1.34,2.38 1,1 0 0 1 -1.19,-0.52 c -0.53,-0.89 -0.75,-2.16 0.37,-2.76 a 1.71,1.71 0 0 1 1.34,-0.07 1.13,1.13 0 0 1 0.75,0.89 1.08,1.08 0 0 0 -1.27,-0.67 1.32,1.32 0 0 0 -0.65,1.06 z"
       id="path382994" /><path
       d="m 22.08,217.62 a 0.28,0.28 0 0 1 -0.07,0.22 v 0 c -0.3,-0.15 -0.6,-0.22 -0.9,-0.37 v 0 c -0.07,0 -0.07,0.07 -0.15,0.07 v 0 -0.07 0 -0.15 a 1.26,1.26 0 0 1 0.75,-1 1.09,1.09 0 0 1 1.27,0.68 3.1,3.1 0 0 1 0.07,0.37 1,1 0 0 1 -1,1 1,1 0 0 1 -1,-0.67 v 0 c 0.22,0.53 0.82,0.67 1,0.15 0.08,0 0.15,0.08 0.23,0.08 -0.08,-0.08 -0.08,-0.15 -0.15,-0.23 a 0.07,0.07 0 0 1 -0.05,-0.08 z m 0,0 z"
       id="path382996" /><path
       d="m 22.59,224.48 v 5.08 a 1.1,1.1 0 0 1 -1.34,1 4.48,4.48 0 0 1 -3.66,-4.4 0.85,0.85 0 0 0 0.75,0 8.66,8.66 0 0 1 1.34,-0.37 v 0.22 a 2.44,2.44 0 0 0 0.82,1.87 v 1.64 c 0.45,-0.37 0.9,-0.67 1.35,-1.05 a 2.76,2.76 0 0 1 -1.35,-0.59 v -2.24 c 0.38,-0.08 0.68,-0.08 1,-0.15 l -1,-1.05 v 1.2 c -0.29,0.07 -0.52,0.07 -0.82,0.15 a 1.06,1.06 0 0 0 -2.09,0.22 v 0.15 a 1.11,1.11 0 0 1 0.15,-2 13.08,13.08 0 0 1 3.81,-0.75 1,1 0 0 1 1.04,1.07 z"
       id="path382998" /><path
       d="m 22.15,217.69 c 0,0.08 0.07,0.15 0.15,0.23 -0.08,0 -0.15,-0.08 -0.23,-0.08 v 0 a 0.26,0.26 0 0 0 0.08,-0.22 c -0.07,0 -0.07,0.07 0,0.07 z"
       id="path383000" /><path
       d="m 22.08,217.54 v 0.15 0 z"
       id="path383002" /><path
       d="m 21.08,217.47 c 0.3,0.15 0.6,0.22 0.9,0.37 -0.23,0.52 -0.82,0.38 -1.05,-0.15 v 0 -0.07 0 -0.08 0 c 0.15,-0.07 0.15,-0.07 0.15,-0.07 z"
       id="path383004" /><path
       d="m 21.85,228.51 c -0.45,0.38 -0.9,0.68 -1.35,1.05 v -1.64 a 2.76,2.76 0 0 0 1.35,0.59 z"
       id="path383006" /><path
       d="m 20.5,224.48 1,1.05 a 4.22,4.22 0 0 0 -1,0.15 z"
       id="path383008" /><path
       d="M 21.08,217.47 Z"
       id="path383010" /><path
       d="M 20.95,217.54 Z"
       id="path383012" /><path
       d="M 20.95,217.54 Z"
       id="path383014" /><path
       d="m 20.95,217.69 v 0 a 0.59,0.59 0 0 1 -0.07,-0.3 v 0.08 0 0.07 z"
       id="path383016" /><path
       d="M 20.95,217.69 Z"
       id="path383018" /><path
       d="M 20.95,217.69 Z"
       id="path383020" /><path
       d="M 20.95,217.54 Z"
       id="path383022" /><path
       d="M 20.95,217.54 Z"
       id="path383024" /><path
       d="M 20.95,217.62 Z"
       id="path383026" /><path
       d="m 20.36,208.14 c -0.08,0.15 -0.15,0.22 -0.23,0.37 a 1,1 0 0 1 -1.42,0.38 15,15 0 0 1 1.65,-0.75 z"
       id="path383028" /><path
       d="m 19.08,187.54 c 0.15,3 -0.23,6.12 -0.38,9.11 -0.15,3.95 -0.37,7.91 -0.52,11.94 a 1,1 0 0 1 -0.45,0.82 0.29,0.29 0 0 0 -0.15,0.07 0.4,0.4 0 0 1 -0.29,0.08 c -0.08,-0.08 -0.23,-0.23 -0.38,-0.23 a 2.8,2.8 0 0 1 -0.67,-0.37 c 0.82,-6.64 0.45,-13.51 2.46,-19.93 a 3.9,3.9 0 0 1 0.38,-1.49 z"
       id="path383030" /><path
       d="m 18.86,185.45 a 9.43,9.43 0 0 1 0.23,2.09 c -0.23,0.52 -0.38,1.05 -0.53,1.49 -2,6.42 -1.64,13.29 -2.46,19.93 v 0 a 0.7,0.7 0 0 1 -0.07,-0.37 q 0.33,-6.94 0.67,-13.88 c 0.07,-1.94 0.22,-3.88 0.22,-5.9 0,-1.42 0.15,-4.1 -0.89,-5.22 -1.5,-0.53 -2.91,-1.12 -4.33,-1.65 -0.52,0.53 -1.05,1 -1.49,1.5 -2.54,3.8 -1,10.37 0.22,14.4 1,3.43 2.31,9.11 5.75,11.12 v 0.3 a 0.75,0.75 0 0 0 0.37,0.82 c -0.45,0.22 -0.82,0.52 -1.2,0.75 -4.47,-2.62 -6,-9 -7.23,-13.66 -1.23,-4.66 -2.69,-12.76 1.64,-16.42 3.88,-3.28 8.32,0.45 9.1,4.7 z"
       id="path383032" /><path
       d="m 17.59,225.98 a 1.06,1.06 0 0 1 2.09,-0.23 10,10 0 0 0 -1.34,0.38 1.36,1.36 0 0 1 -0.75,0 z"
       id="path383034" /><path
       d="m 18.34,207.47 c 0,-0.08 0.07,-0.08 0.07,-0.15 -0.07,0.37 -0.07,0.75 -0.14,1.12 a 0.92,0.92 0 0 1 0.07,-0.97 z"
       id="path383036" /><path
       d="m 18.19,209.11 v 0.08 a 1.14,1.14 0 0 1 -0.75,0.89 1.45,1.45 0 0 0 -0.22,-0.52 c 0.08,-0.08 0.15,-0.08 0.3,-0.15 a 0.28,0.28 0 0 0 0.15,-0.08 c 0.15,-0.07 0.41,-0.14 0.52,-0.22 z"
       id="path383038" /><path
       d="m 17.52,209.48 a 0.29,0.29 0 0 0 0.15,-0.07 c -0.08,0 -0.08,0.07 -0.15,0.07 z"
       id="path383040" /><path
       d="m 17.44,210.08 a 1,1 0 0 1 -0.52,1.19 0.66,0.66 0 0 1 -0.74,0 5.39,5.39 0 0 1 -1.05,-0.52 9,9 0 0 1 1.2,-0.74 1.2,1.2 0 0 0 1.11,0.07 z"
       id="path383042" /><path
       d="m 17.22,209.63 a 0.68,0.68 0 0 1 0.22,0.53 1.06,1.06 0 0 1 -1,-0.08 7.56,7.56 0 0 0 0.78,-0.45 z"
       id="path383044" /><path
       d="m 17.52,209.48 c -0.08,0.08 -0.15,0.08 -0.3,0.15 a 0.07,0.07 0 0 0 -0.07,-0.07 0.62,0.62 0 0 0 0.37,-0.08 z"
       id="path383046" /><path
       d="m 17.15,209.56 v 0 a 2.87,2.87 0 0 1 -0.75,0.52 0.81,0.81 0 0 1 -0.37,-0.82 v -0.22 a 1.12,1.12 0 0 0 1.12,0.52 z"
       id="path383048" /><path
       d="m 17.15,209.56 a 1.12,1.12 0 0 1 -1.12,-0.52 v 0 c 0.22,0.15 0.44,0.22 0.67,0.37 a 0.41,0.41 0 0 1 0.45,0.15 z"
       id="path383050" /><path
       class="cls-10"
       d="m 16.08,183.59 c 1,1.12 0.89,3.8 0.89,5.22 0,1.94 -0.15,3.88 -0.22,5.9 q -0.34,6.93 -0.67,13.88 c 0,0.15 0,0.3 0.07,0.37 -3.43,-2 -4.7,-7.69 -5.75,-11.12 -1.19,-4 -2.76,-10.6 -0.22,-14.4 0.52,-0.52 1.05,-1 1.49,-1.5 1.41,0.6 2.86,1.12 4.41,1.65 z"
       id="path383052" /><path
       d="m 15.35,216.95 a 1.41,1.41 0 0 1 1.2,2.09 1.07,1.07 0 0 1 -1.27,0.44 0.38,0.38 0 0 0 0.3,-0.15 1.08,1.08 0 0 0 0.52,-1 1,1 0 0 0 -0.15,-0.44 v -0.08 c 0,0.15 0.08,0.23 0.08,0.38 -0.08,-0.15 -0.3,0 -0.68,0.22 -0.67,0.37 -0.89,0.22 -0.67,-0.52 a 1.05,1.05 0 0 0 0.38,1.41 c 0.07,0 0.15,0.08 0.22,0.08 a 1,1 0 0 1 -1.12,-0.52 1.61,1.61 0 0 1 0,-1.42 1.76,1.76 0 0 1 1.19,-0.49 z"
       id="path383054" /><path
       d="m 16.08,218.44 a 1,1 0 0 1 -0.52,1 c -0.08,0.07 -0.23,0.07 -0.3,0.15 -0.07,0.08 -0.15,-0.08 -0.22,-0.08 a 1,1 0 0 1 -0.38,-1.41 c -0.22,0.74 0,0.89 0.67,0.52 0.38,-0.3 0.6,-0.37 0.68,-0.23 v 0 c 0.07,-0.07 0.07,0 0.07,0.08 z"
       id="path383056" /><path
       d="m 16.08,218.44 v 0 -0.15 0 c 0,-0.15 -0.07,-0.22 -0.07,-0.37 v 0.07 c 0.07,0.15 0.07,0.3 0.07,0.45 z"
       id="path383058" /><path
       d="M 16.08,208.96 Z"
       id="path383060" /><path
       d="M 16.08,218.36 Z"
       id="path383062" /><path
       class="cls-11"
       d="m 54.31,213.36 0.75,1 a 4,4 0 0 1 0.3,0.53 6.76,6.76 0 0 1 0.82,2 1.07,1.07 0 0 0 1.57,0.6 0.92,0.92 0 0 0 0.44,-1.12 4.2,4.2 0 0 0 -0.37,-1 10.27,10.27 0 0 0 -1.27,-2.31 12.26,12.26 0 0 0 -2.31,-2.46 14.23,14.23 0 0 0 -2.16,-1.64 c -4.55,-2.76 -10.67,-3.88 -15.52,-4 a 38.13,38.13 0 0 0 -15.22,2.69 l -1.12,0.45 a 14.94,14.94 0 0 0 -1.65,0.74 c -0.15,0.08 -0.37,0.15 -0.52,0.23 a 1.94,1.94 0 0 0 -0.52,0.29 0.24,0.24 0 0 0 -0.15,0.08 c -0.07,0.07 -0.15,0.07 -0.3,0.15 -0.3,0.15 -0.52,0.3 -0.82,0.45 -0.45,0.22 -0.82,0.52 -1.19,0.74 a 12.47,12.47 0 0 0 -3.81,3.81 c -4.55,7.31 0.9,16.64 7,21 8.13,5.82 19.77,6 29,2.76 9.63,-3.43 11.94,-11.94 10.38,-20.82 l -0.45,-2.24 -0.23,-0.9 a 1,1 0 0 0 -2,0 c 0,0.15 -0.08,0.23 0,0.38 v 0.15 c 1.19,4.4 1.94,9.4 0.22,13.8 -2.09,5.38 -7.53,7.69 -12.76,8.81 -10.15,2.09 -22.31,0.3 -28.21,-9.18 -2.84,-4.63 -3.66,-11 1,-14.78 a 22.44,22.44 0 0 1 2.17,-1.49 33,33 0 0 1 11,-4.25 c 6.42,-1.27 17.76,-1.12 23.88,3.73 0.23,0.22 0.52,0.37 0.75,0.6 a 5.43,5.43 0 0 1 1.34,1.26"
       id="path383064" /><path
       class="cls-11"
       d="m 53.08,212.1 a 1,1 0 0 0 1.27,-1 c 0,-0.23 -0.08,-0.38 -0.08,-0.6 -0.15,-1.57 -0.3,-3.51 0.75,-4.7 1.71,-1.87 4.4,-0.3 5.82,1 1.42,1.3 3.66,3.81 1.27,5.37 a 7.11,7.11 0 0 1 -5.52,0.75 4,4 0 0 1 -1,-0.3 0.89,0.89 0 0 0 -1.19,0.6 v 0 a 1.11,1.11 0 0 0 0.68,1.53 v 0 c 0.07,0 0.22,0.07 0.3,0.07 a 15.5,15.5 0 0 0 1.94,0.38 1.34,1.34 0 0 1 0.52,0.07 8.64,8.64 0 0 0 6.49,-2 c 2.47,-2.39 0.3,-5.45 -1.49,-7.39 -1.94,-2.09 -4.93,-3.88 -7.84,-2.54 -2.31,1 -2.83,3.36 -2.83,5.6 a 18.47,18.47 0 0 0 0.15,2.16 c 0,0.15 0.07,0.22 0.07,0.3 a 1.08,1.08 0 0 0 0.69,0.7 z"
       id="path383066" /><path
       class="cls-11"
       d="m 16.08,208.96 v 0 a 1.06,1.06 0 0 0 1.12,0.6 c 0.15,0 0.22,0 0.3,-0.08 a 0.29,0.29 0 0 0 0.15,-0.07 1,1 0 0 0 0.45,-0.82 c 0.15,-4 0.37,-7.91 0.52,-11.94 a 73.05,73.05 0 0 0 0.37,-9.11 c 0,-0.67 -0.15,-1.42 -0.22,-2.09 -0.75,-4.25 -5.23,-8 -9.18,-4.7 -4.4,3.66 -2.91,11.64 -1.64,16.42 1.27,4.78 2.76,11 7.24,13.66 a 4.6,4.6 0 0 0 1,0.52 0.89,0.89 0 0 0 0.75,0 1.24,1.24 0 0 0 0.52,-1.19 1.71,1.71 0 0 0 -0.22,-0.53 0.07,0.07 0 0 0 -0.08,-0.07 0.59,0.59 0 0 0 -0.37,-0.23 5.83,5.83 0 0 1 -0.75,-0.37 v 0"
       id="path383068" /><path
       class="cls-11"
       d="m 16.08,208.96 c -3.43,-2 -4.7,-7.69 -5.75,-11.12 -1.19,-4 -2.76,-10.6 -0.22,-14.4 0.52,-0.52 1.05,-1 1.49,-1.5 1.42,0.53 2.91,1.12 4.33,1.65 1.05,1.12 0.9,3.8 0.9,5.22 0,1.94 -0.15,3.88 -0.23,5.9 q -0.33,6.93 -0.67,13.88 c 0.15,0.16 0.15,0.22 0.15,0.37 z"
       id="path383070" /><path
       class="cls-11"
       d="m 18.41,207.32 c 0,0.07 -0.07,0.07 -0.07,0.15 a 0.91,0.91 0 0 0 0,1 0.68,0.68 0 0 0 0.45,0.45 1,1 0 0 0 1.42,-0.38 c 0.07,-0.15 0.15,-0.22 0.22,-0.37 a 67.12,67.12 0 0 1 6.42,-9.33 c 1.71,-2.09 4,-4 5.07,-6.64 1.42,-3.58 -0.67,-9.85 -4.48,-11.27 -4.17,-1.57 -6.94,3.06 -8.28,6.64 -0.22,0.52 -0.37,1.05 -0.52,1.49 -2,6.42 -1.64,13.29 -2.46,19.93 v 0 0.23 a 0.75,0.75 0 0 0 0.37,0.82 1.25,1.25 0 0 0 1,0.07 1.14,1.14 0 0 0 0.75,-0.89 v -0.08 c 0,-0.22 0.07,-0.52 0.07,-0.75 a 2.6,2.6 0 0 1 0,-1"
       id="path383072" /><path
       class="cls-11"
       d="m 18.41,207.32 c 0.38,-3.73 0.45,-7.39 0.9,-11.12 0.3,-2.91 3.28,-17.69 8.81,-11.94 a 7.66,7.66 0 0 1 1.79,6.79 c -0.67,2.54 -3,4.4 -4.63,6.34 a 65.71,65.71 0 0 0 -6.87,9.93 z"
       id="path383074" /><path
       class="cls-11"
       d="m 15.28,219.48 a 0.38,0.38 0 0 0 0.3,-0.15 1.08,1.08 0 0 0 0.52,-1 1,1 0 0 0 -0.15,-0.44 v -0.08 c 0,0.15 0.08,0.23 0.08,0.38"
       id="path383076" /><path
       class="cls-11"
       d="m 15.28,219.48 a 1.07,1.07 0 0 0 1.27,-0.44 1.41,1.41 0 0 0 -1.2,-2.09 1.34,1.34 0 0 0 -1.19,0.67 1.39,1.39 0 0 0 0,1.42 1,1 0 0 0 1.12,0.44 z"
       id="path383078" /><path
       class="cls-11"
       d="m 16.08,218.29 c -0.07,-0.15 -0.3,0 -0.67,0.22 -0.67,0.38 -0.9,0.23 -0.67,-0.52 a 1.07,1.07 0 0 0 0.37,1.42 c 0.08,0 0.15,0.07 0.22,0.07"
       id="path383080" /><path
       class="cls-11"
       d="m 16.08,218.44 v 0 -0.15"
       id="path383082" /><path
       class="cls-11"
       d="m 16.08,218.29 v 0.07"
       id="path383084" /><path
       class="cls-11"
       d="m 16.08,218.29 v 0"
       id="path383086" /><path
       class="cls-11"
       d="m 20.88,217.54 v 0 c 0,0.08 0,0.15 0.07,0.15"
       id="path383088" /><path
       class="cls-11"
       d="m 20.88,217.39 v 0"
       id="path383090" /><path
       class="cls-11"
       d="m 20.88,217.47 v 0.07 0"
       id="path383092" /><path
       class="cls-11"
       d="m 20.95,217.62 v 0"
       id="path383094" /><path
       class="cls-11"
       d="m 20.95,217.69 v 0"
       id="path383096" /><path
       class="cls-11"
       d="m 22.08,217.62 a 0.28,0.28 0 0 1 -0.07,0.22 v 0 c -0.23,0.52 -0.82,0.38 -1.05,-0.15"
       id="path383098" /><path
       class="cls-11"
       d="M 22.08,217.62 Z"
       id="path383100" /><path
       class="cls-11"
       d="m 22.08,217.62 v 0"
       id="path383102" /><path
       class="cls-11"
       d="m 21.08,217.47 v 0 a 4.28,4.28 0 0 0 0.9,0.37 c 0.07,0 0.15,0.08 0.22,0.08 0.07,0 -0.07,-0.15 -0.15,-0.23 a 0.07,0.07 0 0 0 -0.07,-0.07"
       id="path383104" /><path
       class="cls-11"
       d="m 21.08,217.47 v 0"
       id="path383106" /><path
       class="cls-11"
       d="m 20.95,217.54 v 0"
       id="path383108" /><path
       class="cls-11"
       d="m 20.95,217.54 v 0"
       id="path383110" /><path
       class="cls-11"
       d="m 20.95,217.54 v 0"
       id="path383112" /><path
       class="cls-11"
       d="m 20.95,217.62 v 0 c 0.08,-0.08 0.08,-0.15 0.15,-0.15"
       id="path383114" /><line
       class="cls-11"
       x1="20.950001"
       y1="217.62"
       x2="20.950001"
       y2="217.62"
       id="line383116" /><path
       class="cls-11"
       d="m 20.95,217.62 v 0"
       id="path383118" /><path
       class="cls-11"
       d="m 20.95,217.54 v 0"
       id="path383120" /><path
       class="cls-11"
       d="m 20.95,217.54 v 0"
       id="path383122" /><path
       class="cls-11"
       d="m 20.95,217.54 v 0"
       id="path383124" /><polyline
       class="cls-11"
       points="20.95 183.54 20.95 183.54 20.95 183.54"
       id="polyline383126"
       transform="translate(0,34)" /><path
       class="cls-11"
       d="m 20.95,217.54 v 0"
       id="path383128" /><line
       class="cls-11"
       x1="20.950001"
       y1="217.62"
       x2="20.950001"
       y2="217.62"
       id="line383130" /><path
       class="cls-11"
       d="m 20.95,217.69 v 0 -0.15"
       id="path383132" /><line
       class="cls-11"
       x1="20.950001"
       y1="217.69"
       x2="20.950001"
       y2="217.69"
       id="line383134" /><path
       class="cls-11"
       d="m 22.89,217.02 a 1.07,1.07 0 0 0 -1.27,-0.67 1.13,1.13 0 0 0 -0.74,1 v 0.4"
       id="path383136" /><path
       class="cls-11"
       d="m 22.89,217.02 a 1.47,1.47 0 0 0 -0.74,-0.89 1.7,1.7 0 0 0 -1.35,0.07 c -1,0.6 -0.89,1.87 -0.37,2.76 a 1.09,1.09 0 0 0 1.19,0.52 1.94,1.94 0 0 0 1.35,-2.38 z"
       id="path383138" /><path
       class="cls-11"
       d="m 20.95,217.69 a 1,1 0 0 0 1,0.67 1,1 0 0 0 1,-1 0.62,0.62 0 0 0 -0.08,-0.37"
       id="path383140" /><path
       class="cls-11"
       d="m 17.59,226.2 a 4.54,4.54 0 0 0 3.66,4.4 1.07,1.07 0 0 0 1.34,-1 v -5.08 c 0,-0.52 -0.52,-1.12 -1,-1 a 16.58,16.58 0 0 0 -3.81,0.75 1.13,1.13 0 0 0 -0.19,1.93 z"
       id="path383142" /><path
       class="cls-11"
       d="m 20.5,227.92 a 2.44,2.44 0 0 1 -0.82,-1.87 v -0.22 a 1.06,1.06 0 0 0 -2.09,0.22 v 0.15"
       id="path383144" /><path
       class="cls-11"
       d="m 20.5,227.92 v 1.64 c 0.45,-0.37 0.9,-0.67 1.35,-1.05 a 2.76,2.76 0 0 1 -1.35,-0.59 z"
       id="path383146" /><path
       class="cls-11"
       d="m 20.5,225.68 v 2.24"
       id="path383148" /><path
       class="cls-11"
       d="m 20.5,225.68 c 0.38,-0.08 0.68,-0.08 1,-0.15 l -1,-1.05 z"
       id="path383150" /><path
       class="cls-11"
       d="m 17.59,226.2 a 0.85,0.85 0 0 0 0.75,0 8.66,8.66 0 0 1 1.34,-0.37 3,3 0 0 1 0.82,-0.15"
       id="path383152" /><path
       d="m 62.62,124.59 c 1.37,3.11 0.46,7 -2.72,8.56 a 5,5 0 0 1 -5.12,-0.33 9.41,9.41 0 0 0 -0.91,-3.56 1,1 0 0 1 0.65,0.58 3.43,3.43 0 0 0 5.71,0.91 5.06,5.06 0 0 0 0.38,-6.16 c -1.23,-2 -3.5,-3 -5.64,-1.56 -1.75,1.17 -2.07,3.24 -1.68,5.12 a 14.32,14.32 0 0 0 -1.88,-2.46 5.86,5.86 0 0 1 3.37,-4.61 c 3.24,-1.62 6.48,0.33 7.84,3.51 z"
       id="path383154" /><path
       class="cls-12"
       d="m 60.55,124.52 a 5.06,5.06 0 0 1 -0.39,6.16 3.44,3.44 0 0 1 -5.71,-0.9 1,1 0 0 0 -0.65,-0.59 l -0.58,-1.17 a 4.75,4.75 0 0 1 1.69,-5.12 c 2.17,-1.36 4.41,-0.39 5.64,1.62 z"
       id="path383156" /><path
       d="m 54.39,135.09 c 1.17,3.25 1.36,6.55 -1.36,9.34 -3.25,3.37 -8.37,5.38 -12.91,6.23 a 30.53,30.53 0 0 1 -23.86,-5.13 c -6.29,-4.67 -11.35,-13.81 -6,-21.07 a 13.24,13.24 0 0 1 4,-3.63 c 0.07,0.06 0.13,0.06 0.19,0.13 a 0.06,0.06 0 0 1 0.07,0.06 1.14,1.14 0 0 0 1.23,0.39 l 0.33,0.65 a 16.84,16.84 0 0 0 -2.14,1.29 c -4.54,3.38 -5,9.47 -2.47,14.27 4.22,7.91 14.07,11.87 22.63,11.87 a 28.11,28.11 0 0 0 12.38,-2.74 c 2.27,-1.1 5.12,-2.66 6.35,-4.93 1.23,-2.27 0.65,-4.47 -0.26,-6.55 l 0.59,-0.19 a 0.88,0.88 0 0 0 1.23,0.01 z"
       id="path383158" /><path
       d="m 54.78,134.38 a 0.89,0.89 0 0 1 -0.39,0.71 c -0.39,-1 -0.84,-2.07 -1.3,-3 a 0.62,0.62 0 0 0 -0.32,-0.38 v 0 a 7.23,7.23 0 0 0 -0.33,-1.24 0.91,0.91 0 0 0 0.46,0.07 5.16,5.16 0 0 0 1.94,2.21 15.17,15.17 0 0 0 -0.06,1.63 z"
       id="path383160" /><path
       class="cls-12"
       d="m 52.51,135.22 c 0.84,2.14 1.42,4.48 0.26,6.55 -1.23,2.27 -4.09,3.83 -6.36,4.93 a 28.89,28.89 0 0 1 -12.33,2.79 c -8.56,0 -18.48,-4 -22.63,-11.87 -2.53,-4.8 -2.08,-10.83 2.46,-14.27 a 10.78,10.78 0 0 1 2.17,-1.29 c 3.61,-1.82 8.09,-2.31 12,-2.31 6.94,-0.06 19.13,2 23.35,8.82 a 9.84,9.84 0 0 0 0.45,1.36 1,1 0 0 0 0.52,0.52 8.08,8.08 0 0 1 0.32,1.24 c -0.65,-0.39 -1.62,0.45 -1.23,1.29 0.39,0.84 0.69,1.46 1.02,2.24 z m -30.94,-1.94 c 1,-0.52 0.07,-2.08 -1,-1.56 a 7.7,7.7 0 0 1 -6.1,0.39 c -1.1,-0.39 -1.55,1.43 -0.45,1.75 a 9.23,9.23 0 0 0 7.55,-0.58 z m -3.63,-4.8 a 1.81,1.81 0 0 0 1.75,-1.82 0.94,0.94 0 0 0 -1,-0.91 0.88,0.88 0 0 0 -0.78,0.52 0.83,0.83 0 0 0 -0.91,-0.58 1,1 0 0 0 -0.9,1 1.9,1.9 0 0 0 1.84,1.79 z m -4.28,0.58 c 0.65,-0.26 1.49,-0.84 1.36,-1.62 a 1.48,1.48 0 0 0 -1.55,-1.23 1.28,1.28 0 0 0 -0.52,0.19 1,1 0 0 0 -1,0.2 1.37,1.37 0 0 0 -0.13,1.81 1.55,1.55 0 0 0 1.84,0.65 z"
       id="path383162" /><path
       d="m 54.39,135.09 a 1,1 0 0 1 -1.3,-0.13 0.59,0.59 0 0 1 -0.13,-0.58 9.94,9.94 0 0 0 -0.19,-2.79 0.67,0.67 0 0 1 0.32,0.39 c 0.46,1.1 0.91,2.08 1.3,3.11 z"
       id="path383164" /><path
       d="m 53.08,135.03 -0.58,0.19 a 23.47,23.47 0 0 0 -1,-2.2 1,1 0 0 1 1.23,-1.3 v 0 a 9.56,9.56 0 0 1 0.2,2.79 0.74,0.74 0 0 0 0.15,0.52 z"
       id="path383166" /><path
       d="m 53.87,129.26 a 12.66,12.66 0 0 1 0.91,3.56 5.12,5.12 0 0 1 -2,-2.27 c 0.59,0 1.1,-0.45 0.85,-1.1 0,-0.06 -0.07,-0.13 -0.07,-0.19 0,-0.06 0.18,-0.07 0.31,0 z"
       id="path383168" /><path
       d="m 53.87,129.26 c -0.07,0 -0.19,-0.07 -0.26,0 a 7.28,7.28 0 0 1 -0.32,-1.17 9.11,9.11 0 0 1 0.58,1.17 z"
       id="path383170" /><path
       d="m 53.61,129.39 a 0.8,0.8 0 0 1 -0.84,1.1 0.24,0.24 0 0 1 -0.07,-0.2 c -0.26,-0.64 0.26,-1.1 0.85,-1.1 a 0.26,0.26 0 0 1 0.06,0.2 z"
       id="path383172" /><path
       d="m 52.7,130.36 c 0,0.06 0.07,0.13 0.07,0.19 a 1.22,1.22 0 0 1 -0.46,-0.06 10.48,10.48 0 0 0 -0.9,-1.88 8.71,8.71 0 0 1 -0.13,-2.92 14.32,14.32 0 0 1 1.88,2.46 7.28,7.28 0 0 0 0.32,1.17 0.72,0.72 0 0 0 -0.78,1.04 z"
       id="path383174" /><path
       d="m 52.38,130.42 a 1,1 0 0 1 -0.52,-0.52 9.84,9.84 0 0 1 -0.45,-1.36 7.81,7.81 0 0 1 0.97,1.88 z"
       id="path383176" /><path
       d="m 51.34,125.62 a 7.37,7.37 0 0 0 0.13,2.92 c -4.22,-6.79 -16.39,-8.79 -23.39,-8.79 -3.95,0 -8.36,0.46 -12,2.34 l -0.33,-0.65 a 0.79,0.79 0 0 0 0.39,-0.58 5.49,5.49 0 0 1 0.13,-1 1.08,1.08 0 0 0 1,-0.39 c 5.84,-2.2 13.23,-1.88 18.68,-0.9 5.13,0.96 11.56,3.03 15.39,7.05 z"
       id="path383178" /><path
       d="m 26.7,91.32 c 4.54,0.78 5.7,9.08 4.15,12.38 -1.23,2.79 -3.89,5.19 -5.84,7.46 a 44.63,44.63 0 0 1 -7.07,6.94 0.6,0.6 0 0 1 -0.65,0.13 17.59,17.59 0 0 1 -0.21,-1.75 c 3.59,-2.73 6.37,-6.29 9.23,-9.73 1.81,-2.2 3.63,-4.15 3.37,-7.2 -0.19,-2.52 -2.33,-8.56 -5.77,-5.25 a 21.17,21.17 0 0 0 -4.28,5.84 2,2 0 0 1 0.06,-0.59 13.83,13.83 0 0 0 -0.13,-2.8 c 1.69,-3 4.22,-5.95 7.14,-5.43 z"
       id="path383180" /><path
       d="m 20.6,131.75 c 1,-0.52 2,1 1,1.56 a 9.38,9.38 0 0 1 -7.45,0.65 c -1.11,-0.39 -0.72,-2.14 0.45,-1.76 a 7.53,7.53 0 0 0 6,-0.45 z"
       id="path383182" /><path
       class="cls-12"
       d="m 29.62,99.55 c 0.25,3.12 -1.5,5 -3.38,7.2 -2.92,3.44 -5.7,7 -9.27,9.73 a 8.07,8.07 0 0 1 -0.13,-1.3 c 0.32,-2.2 0.71,-4.34 1.17,-6.55 a 63.74,63.74 0 0 0 1.55,-8.56 21.32,21.32 0 0 1 4.28,-5.83 c 3.44,-3.25 5.58,2.79 5.78,5.31 z"
       id="path383184" /><path
       d="m 17.88,126.66 h 0.2 v -0.06 c 0,-0.13 0,-0.2 -0.06,-0.26 a 0.78,0.78 0 0 1 0.78,-0.52 1,1 0 0 1 1,0.91 1.85,1.85 0 0 1 -1.75,1.81 1.75,1.75 0 0 1 -1.79,-1.79 0.94,0.94 0 0 1 0.9,-1 1,1 0 0 1 0.91,0.59 c -0.13,0.06 -0.13,0.19 -0.19,0.32 z"
       id="path383186" /><path
       d="M 18.01,126.66 Z"
       id="path383188" /><path
       d="M 18.01,126.66 Z"
       id="path383190" /><path
       d="M 18.01,126.66 Z"
       id="path383192" /><path
       d="M 18.01,126.66 Z"
       id="path383194" /><path
       d="m 18.01,126.66 z m -0.07,0 v 0 a 0.54,0.54 0 0 1 0.07,-0.32 0.4,0.4 0 0 1 0.06,0.26 v 0.06 0 0 z"
       id="path383196" /><path
       d="M 18.01,126.66 Z"
       id="path383198" /><path
       d="M 18.01,126.66 Z"
       id="path383200" /><path
       d="M 18.01,126.6 Z"
       id="path383202" /><path
       d="M 18.01,126.66 Z"
       id="path383204" /><path
       d="M 18.01,126.66 Z"
       id="path383206" /><path
       d="M 18.01,126.66 Z"
       id="path383208" /><path
       d="M 17.88,126.66 Z"
       id="path383210" /><path
       d="M 17.94,126.66 Z"
       id="path383212" /><path
       d="M 17.88,126.66 Z"
       id="path383214" /><path
       d="m 17.94,126.6 v 0 c 0,0.06 -0.06,0.06 0,0 z"
       id="path383216" /><path
       d="M 17.88,126.66 Z"
       id="path383218" /><path
       d="M 17.88,126.66 Z"
       id="path383220" /><path
       d="M 17.88,126.66 Z"
       id="path383222" /><path
       d="M 17.88,126.66 Z"
       id="path383224" /><path
       d="M 17.88,126.66 Z"
       id="path383226" /><path
       d="M 17.88,126.66 Z"
       id="path383228" /><path
       d="M 17.88,126.66 Z"
       id="path383230" /><path
       d="m 17.36,118.75 a 0.81,0.81 0 0 1 -0.13,0.71 l -1,0.39 c 0.13,-0.91 0.19,-1.88 0.32,-2.79 v 0 a 0.94,0.94 0 0 0 0.65,1.17 1.73,1.73 0 0 1 0.16,0.52 z"
       id="path383232" /><path
       d="m 15.02,127.44 c 0.07,0.78 -0.77,1.36 -1.36,1.62 a 1.64,1.64 0 0 1 -1.88,-0.58 1.39,1.39 0 0 1 0.13,-1.82 1,1 0 0 1 1,-0.19 0.91,0.91 0 0 0 -0.33,0.71 1,1 0 0 0 1,0.91 c 0.19,0 -0.07,0 -0.13,-0.07 -0.06,-0.07 -0.13,-0.13 -0.13,-0.19 a 1.09,1.09 0 0 0 0.13,-0.78 c 0,-0.06 0,-0.06 0.06,-0.13 l -0.06,0.07 a 1.47,1.47 0 0 0 -0.26,-0.39 c -0.07,-0.07 -0.2,-0.13 -0.26,-0.2 a 0.73,0.73 0 0 1 0.52,-0.19 1.43,1.43 0 0 1 1.57,1.23 z"
       id="path383234" /><path
       d="m 17.29,118.23 a 1,1 0 0 1 -0.64,-1.17 0.72,0.72 0 0 1 0.43,-0.51 v 0 a 7,7 0 0 0 0.21,1.68 z"
       id="path383236" /><path
       d="m 16.26,119.85 1,-0.39 a 0.89,0.89 0 0 1 -1,0.39 z"
       id="path383238" /><path
       d="m 16.13,120.83 c -0.07,0.32 -0.2,0.51 -0.39,0.58 a 1.09,1.09 0 0 1 -1.24,-0.39 c 0.65,0.39 1.3,-0.32 1.17,-1 0.13,-0.07 0.33,-0.13 0.46,-0.2 v 0 a 2.69,2.69 0 0 1 0,1.01 z"
       id="path383240" /><path
       d="M 16.26,119.85 Z"
       id="path383242" /><path
       d="m 16.26,119.85 v 0 a 0.83,0.83 0 0 1 -0.65,-0.58 28.47,28.47 0 0 1 -0.59,-4 c 0.46,-3.17 1.11,-6.35 1.75,-9.47 a 40.65,40.65 0 0 0 0.85,-5.51 36.42,36.42 0 0 1 1.81,-3.54 13.8,13.8 0 0 1 0.13,2.85 1.91,1.91 0 0 1 -0.06,0.58 28.34,28.34 0 0 0 -2.73,15.11 c -0.06,0.59 -0.19,1.24 -0.25,1.82 -0.07,0.86 -0.2,1.83 -0.26,2.74 z"
       id="path383244" /><path
       d="m 15.61,119.27 a 0.76,0.76 0 0 0 0.58,0.65 l -0.45,0.19 a 0.88,0.88 0 0 0 -0.39,-0.71 7.46,7.46 0 0 1 -0.78,-0.65 c 0.13,-1.17 0.32,-2.33 0.45,-3.5 a 28,28 0 0 0 0.59,4.02 z"
       id="path383246" /><path
       d="m 16.97,116.48 v 0 a 1.08,1.08 0 0 0 -0.39,0.58 v 0 c 0.07,-0.58 0.19,-1.23 0.26,-1.81 0.06,0.39 0.06,0.84 0.13,1.23 z"
       id="path383248" /><path
       d="m 15.74,120.11 c 0.06,0.65 -0.52,1.36 -1.17,1 a 0.43,0.43 0 0 1 -0.13,-0.25 8.53,8.53 0 0 1 1.3,-0.75 z"
       id="path383250" /><path
       d="m 13.01,127.31 a 0.24,0.24 0 0 1 0.2,0.07 v 0 c 0,0.06 0,0.06 0.06,0.06 v 0 0.31 0 c -0.13,0.19 -0.13,0.26 -0.06,0.13 l 0.06,-0.07 c 0.07,0.07 0.07,0.13 0.13,0.2 0.06,0.07 0.26,0 0.13,0.06 -0.52,0.07 -0.91,-0.45 -1,-0.9 a 0.85,0.85 0 0 1 0.32,-0.72 c 0.07,0.07 0.2,0.13 0.26,0.2 a 1.26,1.26 0 0 1 0.26,0.39 l -0.13,0.13 -0.06,0.06 c 0,0.07 -0.07,0.13 -0.2,0.13 z"
       id="path383252" /><path
       d="m 18.01,108.75 c -0.46,2.14 -0.85,4.34 -1.17,6.55 a 29,29 0 0 1 2.72,-15.11 54.53,54.53 0 0 1 -1.55,8.56 z"
       id="path383254" /><path
       d="m 15.35,119.4 a 0.88,0.88 0 0 1 0.39,0.71 13.69,13.69 0 0 0 -1.36,0.72 0.77,0.77 0 0 1 -0.07,-0.39 c 0.07,-0.52 0.13,-1.11 0.19,-1.62 0.26,0.19 0.58,0.38 0.85,0.58 z"
       id="path383256" /><path
       d="m 13.47,127.12 a 1.12,1.12 0 0 1 -0.13,0.77 0.06,0.06 0 0 0 -0.07,-0.06 v -0.08 0 0 z"
       id="path383258" /><path
       d="m 13.34,127.83 -0.07,0.06 c -0.13,0.13 -0.13,0.13 0.07,-0.06 z"
       id="path383260" /><path
       d="m 13.34,127.75 v 0 0 c -0.07,0 0,0 0,0 z"
       id="path383262" /><path
       d="M 13.27,127.83 Z"
       id="path383264" /><path
       d="M 13.27,127.75 Z"
       id="path383266" /><path
       d="m 13.34,127.51 v 0 a 0.07,0.07 0 0 0 -0.07,-0.07 v 0 a 0.24,0.24 0 0 1 -0.19,-0.06 h 0.06 c 0.07,0 0.13,-0.07 0.2,-0.13 l 0.06,-0.07 0.13,-0.13 v 0.07 c -0.06,0.19 -0.06,0.39 -0.13,0.58 a 0.25,0.25 0 0 1 -0.06,-0.19 z"
       id="path383268" /><path
       d="m 13.47,126.99 c 0,0.06 0,0.06 -0.07,0.13 -0.07,0.07 0.07,-0.07 0.07,-0.13 z"
       id="path383270" /><path
       d="M 13.27,127.83 Z"
       id="path383272" /><path
       d="M 13.34,127.51 Z"
       id="path383274" /><path
       d="M 13.34,127.51 Z"
       id="path383276" /><path
       d="M 13.27,127.38 Z"
       id="path383278" /><path
       d="M 13.27,127.38 Z"
       id="path383280" /><path
       d="M 13.08,127.31 Z"
       id="path383282" /><path
       d="m 14.57,121.08 -0.07,-0.06 c -0.06,-0.06 -0.12,-0.06 -0.19,-0.13 -0.07,-0.07 0.07,-0.06 0.13,-0.06 a 0.43,0.43 0 0 0 0.13,0.25 z"
       id="path383284" /><path
       d="m 14.38,120.83 c -0.07,0 -0.07,0.06 -0.13,0.06 C 9.71,117.52 7.7,110.51 6.72,105.2 5.81,100.07 6.98,93.75 12.08,91.12 c 4.57,-2.37 6.77,1.63 7.35,5.63 a 31.69,31.69 0 0 0 -1.81,3.57 c 0.39,-4.41 -0.2,-9.21 -4.67,-7.53 -5.38,1.96 -5.06,9.81 -3.87,14.16 1,3.89 2.4,9 5.51,11.8 -0.07,0.52 -0.13,1.1 -0.19,1.62 a 1,1 0 0 0 -0.02,0.46 z"
       id="path383286" /><path
       class="cls-12"
       d="m 15.02,115.31 c -0.19,1.17 -0.32,2.34 -0.45,3.51 -3.11,-2.86 -4.49,-7.92 -5.49,-11.81 -1.1,-4.34 -1.43,-12.19 3.89,-14.2 4.54,-1.69 5.06,3.11 4.67,7.52 a 8.85,8.85 0 0 0 -0.39,0.91 28.39,28.39 0 0 0 -2.23,14.07 z"
       id="path383288" /><path
       d="m 16.77,105.75 c -0.71,3.11 -1.29,6.29 -1.75,9.47 a 29.91,29.91 0 0 1 2.21,-14.07 c 0.13,-0.26 0.26,-0.59 0.39,-0.91 a 37.66,37.66 0 0 1 -0.85,5.51 z"
       id="path383290" /><path
       d="m 283.16588,166.32292 a 245.81754,292.93 33.932514 0 1 114.70769,93.36805 c 1.06204,1.81788 3.56427,-0.30228 3.1844,-2.15306 a 134.67811,160.49 33.932514 0 0 -15.86486,-41.74636 c -1.13433,-1.9192 -4.08321,0.65674 -2.97709,2.5805 a 410.42878,489.09 33.932514 0 1 22.14433,45.43932 l 2.88584,-2.46464 q -18.46424,-12.21884 -37.96138,-22.76308 c -1.89806,-1.00479 -3.50994,2.61604 -1.62889,3.62951 q 19.10734,10.3485 37.21301,22.34574 c 1.26568,0.85395 3.59944,-0.74512 2.89434,-2.46901 A 415.33791,494.94 33.932514 0 0 385.1986,215.80851 l -2.97711,2.5805 a 131.97598,157.27 33.932514 0 1 15.4445,40.90429 l 3.19289,-2.1574 A 248.80498,296.49 33.932514 0 0 284.80299,162.71885 c -2.07291,-0.68808 -3.70454,2.93296 -1.63162,3.62103 z"
       id="path383732"
       style="stroke-width:0.916061" /></g><metadata
     id="metadata403729"><rdf:RDF><cc:Work
         rdf:about=""><dc:title>full_new</dc:title></cc:Work></rdf:RDF></metadata></svg>
