<svg version="1.1" viewBox="0.0 0.0 1810.0 692.0" fill="none" stroke="none" stroke-linecap="square" stroke-miterlimit="10" xmlns:xlink="http://www.w3.org/1999/xlink" xmlns="http://www.w3.org/2000/svg"><clipPath id="p.0"><path d="m0 0l1810.0 0l0 692.0l-1810.0 0l0 -692.0z" clip-rule="nonzero"/></clipPath><g clip-path="url(#p.0)"><path fill="#000000" fill-opacity="0.0" d="m0 0l1810.0 0l0 692.0l-1810.0 0z" fill-rule="evenodd"/><path fill="#000000" fill-opacity="0.0" d="m1271.0052 308.99222l188.85034 0.50393677" fill-rule="evenodd"/><path stroke="#000000" stroke-width="8.0" stroke-linejoin="round" stroke-linecap="butt" d="m1271.0052 308.99222l188.85034 0.50393677" fill-rule="evenodd"/><path fill="#000000" fill-opacity="0.0" d="m1370.0 311.0l0 213.98425" fill-rule="evenodd"/><path stroke="#000000" stroke-width="8.0" stroke-linejoin="round" stroke-linecap="butt" d="m1370.0 311.0l0 165.98425" fill-rule="evenodd"/><path fill="#000000" stroke="#000000" stroke-width="8.0" stroke-linecap="butt" d="m1356.7861 476.98425l13.213867 36.30481l13.213867 -36.30481z" fill-rule="evenodd"/><path fill="#000000" fill-opacity="0.0" d="m1133.2289 500.01575l473.54333 0l0 133.44879l-473.54333 0z" fill-rule="evenodd"/><path fill="#000000" d="m1205.3325 527.33136q9.5 0 15.875 4.921875q6.390625 4.921875 7.640625 13.640625l-7.578125 0q-1.25 -5.859375 -5.484375 -9.0q-4.234375 -3.15625 -10.53125 -3.15625q-9.0625 0 -14.203125 6.40625q-5.125 6.40625 -5.125 16.71875q0 10.9375 5.03125 17.421875q5.046875 6.484375 14.375 6.484375q7.0 0 11.46875 -4.421875q4.46875 -4.4375 5.015625 -12.0625l7.625 0q-1.25 11.09375 -7.71875 17.0q-6.46875 5.90625 -17.015625 5.90625q-12.265625 0 -19.34375 -8.125q-7.0625 -8.140625 -7.0625 -21.65625q0 -13.3125 7.296875 -21.6875q7.3125 -8.390625 19.734375 -8.390625zm50.273438 16.171875q9.375 0 14.71875 6.0625q5.359375 6.046875 5.359375 15.625q0 9.640625 -5.46875 15.625q-5.46875 5.984375 -14.609375 5.984375q-8.984375 0 -14.53125 -5.875q-5.546875 -5.890625 -5.546875 -15.734375q0 -9.84375 5.421875 -15.765625q5.4375 -5.921875 14.65625 -5.921875zm-12.890625 21.6875q0 7.109375 3.625 11.34375q3.640625 4.234375 9.265625 4.234375q5.59375 0 9.234375 -4.25q3.65625 -4.265625 3.65625 -11.328125q0 -7.078125 -3.640625 -11.390625q-3.625 -4.3125 -9.328125 -4.3125q-5.46875 0 -9.140625 4.234375q-3.671875 4.234375 -3.671875 11.46875zm60.90625 -21.6875q4.53125 0 7.390625 1.84375q2.875 1.828125 3.96875 5.1875q2.109375 -3.3125 5.5 -5.171875q3.40625 -1.859375 7.515625 -1.859375q6.984375 0 10.34375 3.171875q3.359375 3.15625 3.359375 8.546875l0 30.59375l-6.796875 0l0 -27.421875q0 -4.453125 -1.890625 -6.671875q-1.890625 -2.234375 -6.109375 -2.234375q-5.078125 0 -7.9375 2.96875q-2.84375 2.96875 -2.84375 7.375l0 25.984375l-6.84375 0l0 -27.421875q0 -4.453125 -1.875 -6.671875q-1.875 -2.234375 -5.859375 -2.234375q-3.234375 0 -5.734375 1.5625q-2.5 1.5625 -3.90625 4.28125q-1.40625 2.703125 -1.40625 4.578125l0 25.90625l-6.796875 0l0 -41.375l6.40625 0l0 6.09375l0.15625 0q2.34375 -3.546875 5.65625 -5.28125q3.328125 -1.75 7.703125 -1.75zm68.71094 0q8.859375 0 13.953125 6.09375q5.109375 6.09375 5.109375 15.671875q0 9.609375 -5.078125 15.578125q-5.078125 5.953125 -13.796875 5.953125q-3.859375 0 -7.5625 -1.609375q-3.6875 -1.609375 -5.828125 -4.890625l-0.15625 0l0 21.375l-6.796875 0l0 -57.234375l6.796875 0l0 5.625l0.15625 0q1.59375 -3.203125 5.046875 -4.875q3.46875 -1.6875 8.15625 -1.6875zm-13.59375 21.609375q0 7.1875 3.46875 11.421875q3.484375 4.234375 9.578125 4.234375q5.890625 0 9.125 -4.21875q3.25 -4.21875 3.25 -11.75q0 -6.6875 -3.421875 -11.0q-3.40625 -4.3125 -9.421875 -4.3125q-5.984375 0 -9.28125 4.375q-3.296875 4.375 -3.296875 11.25zm58.46875 -21.609375q9.375 0 14.71875 6.0625q5.359375 6.046875 5.359375 15.625q0 9.640625 -5.46875 15.625q-5.46875 5.984375 -14.609375 5.984375q-8.984375 0 -14.53125 -5.875q-5.546875 -5.890625 -5.546875 -15.734375q0 -9.84375 5.421875 -15.765625q5.4375 -5.921875 14.65625 -5.921875zm-12.890625 21.6875q0 7.109375 3.625 11.34375q3.640625 4.234375 9.265625 4.234375q5.59375 0 9.234375 -4.25q3.65625 -4.265625 3.65625 -11.328125q0 -7.078125 -3.640625 -11.390625q-3.625 -4.3125 -9.328125 -4.3125q-5.46875 0 -9.140625 4.234375q-3.671875 4.234375 -3.671875 11.46875zm54.734375 -21.6875q8.359375 0 12.421875 3.25q4.0625 3.234375 4.453125 9.6875l-6.796875 0l0 -0.078125q-0.28125 -3.28125 -2.875 -5.078125q-2.59375 -1.796875 -6.703125 -1.796875q-4.09375 0 -6.46875 1.390625q-2.359375 1.375 -2.359375 3.875q0 2.265625 2.09375 3.71875q2.09375 1.4375 6.3125 2.34375l6.40625 1.4375q6.015625 1.328125 9.140625 4.09375q3.125 2.75 3.125 7.390625q0 6.09375 -4.734375 9.578125q-4.71875 3.484375 -12.890625 3.484375q-7.921875 0 -12.578125 -3.5625q-4.640625 -3.5625 -4.953125 -10.46875l6.828125 0q0.125 3.859375 3.046875 5.9375q2.9375 2.0625 8.046875 2.0625q4.921875 0 7.453125 -1.5625q2.546875 -1.5625 2.546875 -4.609375q0 -2.765625 -2.515625 -4.390625q-2.515625 -1.625 -10.328125 -3.1875q-7.8125 -1.515625 -11.0 -4.3125q-3.1875 -2.796875 -3.1875 -7.4375q0 -5.4375 4.40625 -8.59375q4.421875 -3.171875 11.109375 -3.171875zm33.4375 -14.796875l0 8.3125l-6.796875 0l0 -8.3125l6.796875 0zm0 15.734375l0 41.375l-6.796875 0l0 -41.375l6.796875 0zm20.039062 -12.375l0 12.375l8.234375 0l0 6.015625l-8.234375 0l0 25.90625q0 3.078125 2.046875 3.265625q2.046875 0.171875 4.28125 0.171875l1.90625 0l0 6.015625l-5.625 0q-5.578125 0 -7.5 -1.984375q-1.90625 -2.0 -1.90625 -6.6875l0 -26.6875l-7.078125 0l0 -6.015625l7.078125 0l0 -12.375l6.796875 0zm31.953125 11.4375q8.90625 0 13.828125 6.40625q4.921875 6.40625 4.921875 16.453125l0 0.8125l-30.984375 0l0 0.515625q0 5.890625 3.4375 9.484375q3.4375 3.59375 9.453125 3.59375q4.53125 0 7.203125 -2.109375q2.6875 -2.109375 3.5 -5.96875l6.71875 0q-1.359375 6.875 -6.015625 10.5q-4.640625 3.609375 -11.640625 3.609375q-6.515625 0 -11.03125 -2.953125q-4.515625 -2.953125 -6.671875 -8.203125q-2.140625 -5.265625 -2.140625 -10.765625q0 -9.140625 5.5 -15.25q5.515625 -6.125 13.921875 -6.125zm-12.234375 17.65625l23.75 0q-0.3125 -5.03125 -3.65625 -8.34375q-3.328125 -3.328125 -8.328125 -3.328125q-4.6875 0 -8.015625 3.171875q-3.3125 3.15625 -3.75 8.5z" fill-rule="nonzero"/><path fill="#000000" d="m1212.7817 624.70636l0 57.109375l-6.796875 0l0 -57.109375l6.796875 0zm17.773438 0l0 8.3125l-6.796875 0l0 -8.3125l6.796875 0zm0 15.734375l0 41.375l-6.796875 0l0 -41.375l6.796875 0zm17.773438 -15.734375l0 33.828125l18.90625 -18.09375l9.09375 0l-16.40625 15.046875l17.625 26.328125l-8.640625 0l-14.171875 -21.609375l-6.40625 5.9375l0 15.671875l-6.796875 0l0 -57.109375l6.796875 0zm51.210938 14.796875q8.90625 0 13.828125 6.40625q4.921875 6.40625 4.921875 16.453125l0 0.8125l-30.984375 0l0 0.515625q0 5.890625 3.4375 9.484375q3.4375 3.59375 9.453125 3.59375q4.53125 0 7.203125 -2.109375q2.6875 -2.109375 3.5 -5.96875l6.71875 0q-1.359375 6.875 -6.015625 10.5q-4.640625 3.609375 -11.640625 3.609375q-6.515625 0 -11.03125 -2.953125q-4.515625 -2.953125 -6.671875 -8.203125q-2.140625 -5.265625 -2.140625 -10.765625q0 -9.140625 5.5 -15.25q5.515625 -6.125 13.921875 -6.125zm-12.234375 17.65625l23.75 0q-0.3125 -5.03125 -3.65625 -8.34375q-3.328125 -3.328125 -8.328125 -3.328125q-4.6875 0 -8.015625 3.171875q-3.3125 3.15625 -3.75 8.5zm45.203125 -32.453125l0 57.109375l-6.796875 0l0 -57.109375l6.796875 0zm17.773438 0l0 8.3125l-6.796875 0l0 -8.3125l6.796875 0zm0 15.734375l0 41.375l-6.796875 0l0 -41.375l6.796875 0zm17.382812 -15.734375l0 21.828125l0.15625 0q1.484375 -3.3125 5.03125 -5.171875q3.5625 -1.859375 8.046875 -1.859375q7.46875 0 10.84375 3.828125q3.375 3.828125 3.375 10.9375l0 27.546875l-6.796875 0l0 -28.25q0 -3.515625 -2.25 -5.796875q-2.234375 -2.28125 -6.21875 -2.28125q-5.75 0 -8.96875 3.53125q-3.21875 3.53125 -3.21875 9.15625l0 23.640625l-6.796875 0l0 -57.109375l6.796875 0zm55.539062 14.796875q9.375 0 14.71875 6.0625q5.359375 6.046875 5.359375 15.625q0 9.640625 -5.46875 15.625q-5.46875 5.984375 -14.609375 5.984375q-8.984375 0 -14.53125 -5.875q-5.546875 -5.890625 -5.546875 -15.734375q0 -9.84375 5.421875 -15.765625q5.4375 -5.921875 14.65625 -5.921875zm-12.890625 21.6875q0 7.109375 3.625 11.34375q3.640625 4.234375 9.265625 4.234375q5.59375 0 9.234375 -4.25q3.65625 -4.265625 3.65625 -11.328125q0 -7.078125 -3.640625 -11.390625q-3.625 -4.3125 -9.328125 -4.3125q-5.46875 0 -9.140625 4.234375q-3.671875 4.234375 -3.671875 11.46875zm58.828125 -21.6875q9.375 0 14.71875 6.0625q5.359375 6.046875 5.359375 15.625q0 9.640625 -5.46875 15.625q-5.46875 5.984375 -14.609375 5.984375q-8.984375 0 -14.53125 -5.875q-5.546875 -5.890625 -5.546875 -15.734375q0 -9.84375 5.421875 -15.765625q5.4375 -5.921875 14.65625 -5.921875zm-12.890625 21.6875q0 7.109375 3.625 11.34375q3.640625 4.234375 9.265625 4.234375q5.59375 0 9.234375 -4.25q3.65625 -4.265625 3.65625 -11.328125q0 -7.078125 -3.640625 -11.390625q-3.625 -4.3125 -9.328125 -4.3125q-5.46875 0 -9.140625 4.234375q-3.671875 4.234375 -3.671875 11.46875zm77.9375 -36.484375l0 57.109375l-6.796875 0l0 -5.59375l-0.15625 0q-1.609375 3.203125 -5.109375 4.890625q-3.484375 1.6875 -8.09375 1.6875q-8.671875 0 -13.859375 -6.015625q-5.171875 -6.03125 -5.171875 -15.75q0 -9.578125 5.015625 -15.546875q5.03125 -5.984375 13.8125 -5.984375q4.0625 0 7.71875 1.640625q3.65625 1.640625 5.6875 4.8125l0.15625 0l0 -21.25l6.796875 0zm-32.0 36.75q0 6.6875 3.453125 11.0q3.46875 4.3125 9.359375 4.3125q6.015625 0 9.3125 -4.3125q3.3125 -4.3125 3.3125 -11.265625q0 -7.078125 -3.40625 -11.390625q-3.390625 -4.3125 -9.71875 -4.3125q-5.859375 0 -9.09375 4.28125q-3.21875 4.265625 -3.21875 11.6875z" fill-rule="nonzero"/></g></svg>