<svg version="1.1" viewBox="0.0 0.0 1810.0 692.0" fill="none" stroke="none" stroke-linecap="square" stroke-miterlimit="10" xmlns:xlink="http://www.w3.org/1999/xlink" xmlns="http://www.w3.org/2000/svg"><clipPath id="p.0"><path d="m0 0l1810.0 0l0 692.0l-1810.0 0l0 -692.0z" clip-rule="nonzero"/></clipPath><g clip-path="url(#p.0)"><path fill="#000000" fill-opacity="0.0" d="m0 0l1810.0 0l0 692.0l-1810.0 0z" fill-rule="evenodd"/><path fill="#000000" fill-opacity="0.0" d="m482.0 309.0l124.0 0" fill-rule="evenodd"/><path stroke="#000000" stroke-width="8.0" stroke-linejoin="round" stroke-linecap="butt" d="m482.0 309.0l76.0 0" fill-rule="evenodd"/><path fill="#000000" stroke="#000000" stroke-width="8.0" stroke-linecap="butt" d="m558.0 322.21387l36.30481 -13.213867l-36.30481 -13.213867z" fill-rule="evenodd"/><path fill="#000000" fill-opacity="0.0" d="m598.8045 237.50438l270.39368 0l0 142.99214l-270.39368 0z" fill-rule="evenodd"/><path fill="#000000" d="m671.5116 272.76376q10.46875 0 16.65625 5.6875q6.203125 5.671875 6.203125 16.8125q0 11.203125 -6.203125 16.859375q-6.1875 5.640625 -15.9375 5.640625l-24.46875 0l0 31.140625l-10.109375 0l0 -76.140625l33.859375 0zm-2.8125 36.453125q7.234375 0 11.390625 -3.40625q4.171875 -3.40625 4.171875 -10.546875q0 -7.03125 -4.109375 -10.484375q-4.109375 -3.46875 -12.078125 -3.46875l-20.3125 0l0 27.90625l20.9375 0zm64.77966 -36.453125q17.296875 0 26.640625 9.171875q9.34375 9.15625 9.34375 27.125q0 20.109375 -9.25 29.984375q-9.234375 9.859375 -26.734375 9.859375l-26.71875 0l0 -76.140625l26.71875 0zm0.625 67.59375q11.40625 0 18.296875 -7.4375q6.90625 -7.453125 6.90625 -22.5q0 -15.109375 -6.28125 -22.109375q-6.265625 -7.0 -18.5625 -7.0l-17.59375 0l0 59.046875l17.234375 0zm100.29999 -67.59375l0 8.546875l-42.4375 0l0 24.15625l39.578125 0l0 8.546875l-39.578125 0l0 26.34375l42.8125 0l0 8.546875l-52.921875 0l0 -76.140625l52.546875 0z" fill-rule="nonzero"/></g></svg>