<?xml version="1.0" encoding="utf-8"?>
<!-- Generator: Adobe Illustrator 23.0.3, SVG Export Plug-In . SVG Version: 6.00 Build 0)  -->
<svg version="1.1" xmlns="http://www.w3.org/2000/svg" xmlns:xlink="http://www.w3.org/1999/xlink" x="0px" y="0px"
	 viewBox="0 0 181.9 260.2" style="enable-background:new 0 0 181.9 260.2;" xml:space="preserve">
<style type="text/css">
	.st0{display:none;}
	.st1{display:inline;}
</style>
<g id="Layer_13">
</g>
<g id="Layer_7">
</g>
<g id="Layer_6">
	<g>
		<g>
			<path d="M38,85.8c2.2-2.3,2.2-5.7,0.3-8.2c-2.1-2.8-5.8-3.6-9.1-3.8c-7.4-0.5-15.3,3.7-16.2,11.7c-0.8,7.6,6.5,11.9,11.9,15.6
				c3.7,2.5,7.3,5.5,9.5,9.4c2.4,4.1,4,11,0.4,15c-3.2,3.6-9.9,2.7-13.9,1.1c-4.3-1.7-7.7-5-9.6-9.1c-0.8-1.7-3.4-0.2-2.6,1.5
				c2.9,6.1,8.8,10.5,15.5,11.6c3.2,0.5,6.8,0.4,9.8-1c3.4-1.6,5.1-4.7,5.6-8.2c1.2-8-3.5-15.3-9.4-20.1c-4.9-4-14.9-7.7-14.3-15.4
				c0.5-5.5,5.8-8.7,10.8-9c2.1-0.1,4.4,0,6.4,0.8c2.3,0.9,5,3.7,2.8,6.1C34.5,85,36.7,87.2,38,85.8L38,85.8z"/>
		</g>
	</g>
	<g>
		<g>
			<path d="M42.7,107.4c1.7,19.1,3.4,38.4,2.3,57.6c1,0,2,0,3,0c-0.1-1.1-0.2-2.2-0.3-3.3c-0.2-1.9-3.2-1.9-3,0
				c0.1,1.1,0.2,2.2,0.3,3.3c0.2,1.9,2.9,1.9,3,0c1.1-19.2-0.6-38.4-2.3-57.6C45.6,105.5,42.5,105.5,42.7,107.4L42.7,107.4z"/>
		</g>
	</g>
	<g>
		<g>
			<path d="M46.7,113c3.8-8.4,15.7-4.4,15.5,4.2c-0.2,7.7-8.9,12.2-15.5,8.7c-1.7-0.9-3.2,1.7-1.5,2.6c9.1,4.8,21.2-2.1,19.9-12.8
				c-0.6-4.9-4.2-9.1-9-10.2c-4.9-1.1-9.9,1.5-12,6C43.3,113.3,45.9,114.8,46.7,113L46.7,113z"/>
		</g>
	</g>
	<g>
		<g>
			<path d="M69.1,124.1c5.9,0.1,13.8-5.9,14-12.1c0.2-6.3-8.8-10.1-13.4-6c-2.7,2.4-3.1,6-3.3,9.3c-0.2,3.6-0.2,7.5,1.8,10.6
				c3,5,9.5,7.3,15,5.3c1.8-0.6,1-3.5-0.8-2.9c-3.6,1.3-7.6,0.4-10.3-2.3c-3.5-3.4-3.3-9.7-2.3-14.2c0.6-2.6,2.2-4.9,5.1-4.5
				c2.8,0.4,5.7,1.9,5.1,5.2c-0.8,4.3-6.7,8.6-10.9,8.5C67.2,121.1,67.2,124.1,69.1,124.1L69.1,124.1z"/>
		</g>
	</g>
	<g>
		<g>
			<path d="M104.3,112.7c-0.5-5.7-6-8.2-11.2-7.7c-5.8,0.6-8.7,4.9-8.1,10.5c0.4,4.6,1.8,11.2,6,13.9c3.9,2.5,11,2.4,14.5-0.7
				c1.5-1.3-0.7-3.4-2.1-2.1c-2.3,2-8,1.9-10.6,0.4c-2.9-1.7-3.6-5.5-4.3-8.5c-0.8-3.3-1.5-8.5,2.5-10.1c3.6-1.5,9.9-0.4,10.3,4.2
				C101.5,114.6,104.5,114.6,104.3,112.7L104.3,112.7z"/>
		</g>
	</g>
	<g>
		<g>
			<path d="M107.8,107.9c-1.4,7.2,0.1,14.3,1.8,21.3c0.4,1.6,3.1,1.3,2.9-0.4c0-0.3-0.1-0.7-0.1-1c-0.2-1.9-3.2-1.9-3,0
				c0,0.3,0.1,0.7,0.1,1c1-0.1,2-0.3,2.9-0.4c-1.6-6.4-3.1-13-1.8-19.7C111,106.8,108.2,106,107.8,107.9L107.8,107.9z"/>
		</g>
	</g>
	<g>
		<g>
			<path d="M110.1,99c-0.1,0-0.2,0-0.4,0c-0.8,0-1.5,0.7-1.5,1.5c0,0.8,0.7,1.5,1.5,1.5c0.1,0,0.2,0,0.4,0c0.8,0,1.5-0.7,1.5-1.5
				C111.5,99.7,110.9,99,110.1,99L110.1,99z"/>
		</g>
	</g>
	<g>
		<g>
			<path d="M119.4,120.3c5.9,2.4,15.2-0.2,16.4-7.3c0.6-3.3-1.9-5.7-4.5-7.3c-2.7-1.7-6-1.7-8.8-0.4c-6.2,2.8-9.5,12.2-6.8,18.3
				c2.8,6.2,12.8,8.8,18.4,5.5c1.7-1,0.2-3.6-1.5-2.6c-4.1,2.4-11.1,0.5-13.8-3.4c-2.6-3.9-0.3-11.3,3.1-14c1.7-1.4,4.2-2.2,6.3-1.5
				c2.5,0.7,5.3,3.2,4.3,5.9c-1.8,4.8-8.2,5.7-12.4,4C118.4,116.7,117.6,119.6,119.4,120.3L119.4,120.3z"/>
		</g>
	</g>
	<g>
		<g>
			<path d="M156.7,108.6c-2.5-3.7-7-6-11.4-4.1c-3.8,1.7-5.7,6.5-3.3,10.2c1.3,2,3.7,2.8,5.8,3.8c2.5,1.2,6.1,2.2,6.9,5.2
				c0.8,3-1.7,5.3-4.6,5.3c-3.2,0.1-5.7-2.3-7.6-4.6c-1.2-1.5-3.3,0.6-2.1,2.1c2.7,3.5,6.8,6.3,11.4,5.3c4-0.9,6.7-4.5,5.9-8.6
				c-1.1-5.1-6.7-6.5-10.8-8.5c-1.4-0.7-2.6-1.4-2.8-3.1c-0.3-1.6,0.4-3,1.7-3.9c3-2.1,6.6-0.3,8.4,2.4
				C155.2,111.7,157.8,110.2,156.7,108.6L156.7,108.6z"/>
		</g>
	</g>
</g>
<g id="Layer_5" class="st0">
	<g id="J3KAzm_1_" class="st1">
		
			<image style="overflow:visible;" width="667" height="900" id="J3KAzm_2_" xlink:href="5E0EC36B018C9AE6.jpg"  transform="matrix(0.16 0 0 0.16 38.2123 16.7239)">
		</image>
	</g>
</g>
<g id="Layer_3">
</g>
<g id="Layer_4">
</g>
<g id="Layer_1">
	<g id="Слой_3" class="st0">
		<g id="rJn6an.tif" class="st1">
			
				<image style="overflow:visible;enable-background:new    ;" width="276" height="184" id="Layer_0_2_" xlink:href="5E0EC36B018C9AEA.png"  transform="matrix(2.1103 0 0 2.1103 -19.4695 626.7032)">
			</image>
		</g>
	</g>
	<g id="Слой_6">
	</g>
	<g id="Слой_1">
	</g>
	<g id="Слой_5">
	</g>
	<g id="Слой_4">
	</g>
	<g id="Слой_7">
	</g>
	<g id="Слой_23">
	</g>
	<g id="Слой_12">
	</g>
	<g id="Слой_17">
	</g>
	<g id="Слой_19">
	</g>
	<g id="Слой_21">
	</g>
	<g id="Слой_20">
	</g>
	<g id="Слой_18">
	</g>
	<g id="Слой_22">
	</g>
	<g id="Слой_14">
	</g>
	<g id="Слой_13">
	</g>
	<g id="Слой_28">
	</g>
	<g id="Слой_26">
	</g>
	<g id="Слой_27">
	</g>
	<g id="Слой_15">
	</g>
	<g id="Слой_25">
	</g>
	<g id="Слой_24">
	</g>
	<g id="Слой_16">
	</g>
	<g id="Слой_29">
	</g>
</g>
</svg>
