<?xml version="1.0" encoding="UTF-8" standalone="no"?>
<svg
   viewBox="0 0 97 197.65"
   version="1.1"
   id="svg178"
   sodipodi:docname="model_4_2.svg"
   inkscape:version="1.3.2 (1:1.3.2+202311252150+091e20ef0f)"
   xmlns:inkscape="http://www.inkscape.org/namespaces/inkscape"
   xmlns:sodipodi="http://sodipodi.sourceforge.net/DTD/sodipodi-0.dtd"
   xmlns="http://www.w3.org/2000/svg"
   xmlns:svg="http://www.w3.org/2000/svg"
   xmlns:rdf="http://www.w3.org/1999/02/22-rdf-syntax-ns#"
   xmlns:cc="http://creativecommons.org/ns#"
   xmlns:dc="http://purl.org/dc/elements/1.1/">
  <sodipodi:namedview
     id="namedview178"
     pagecolor="#ffffff"
     bordercolor="#000000"
     borderopacity="0.25"
     inkscape:showpageshadow="2"
     inkscape:pageopacity="0.0"
     inkscape:pagecheckerboard="0"
     inkscape:deskcolor="#d1d1d1"
     inkscape:zoom="3.3347074"
     inkscape:cx="21.5911"
     inkscape:cy="17.992583"
     inkscape:window-width="1223"
     inkscape:window-height="779"
     inkscape:window-x="57"
     inkscape:window-y="21"
     inkscape:window-maximized="1"
     inkscape:current-layer="Layer_1" />
  <defs
     id="defs1">
    <style
       id="style1">.cls-1{fill:#fff;}.cls-2,.cls-3,.cls-7{fill:none;}.cls-2,.cls-3,.cls-5,.cls-6,.cls-7{stroke:#231f20;stroke-linecap:round;}.cls-2,.cls-5,.cls-6,.cls-7{stroke-miterlimit:10;}.cls-3{stroke-linejoin:round;}.cls-4{fill:#231f20;}.cls-5{fill:#d4ebf9;}.cls-5,.cls-6{stroke-width:0.75px;}.cls-6{fill:red;}.cls-7{stroke-width:0.25px;}</style>
  </defs>
  <title
     id="title1">wright_fisher</title>
  <g
     id="Layer_1"
     data-name="Layer 1">
    <path
       class="cls-4"
       d="m 87.625356,24.046355 a 6,6 0 0 0 2.267546,-3.339137 l -1.005914,-0.07096 a 33.45,33.45 0 0 1 -0.21675,5.84286 l 0.607738,-0.396428 a 3.51,3.51 0 0 0 -2.00242,0.0178 0.5,0.5 0 0 0 0.05881,0.998269 11,11 0 0 0 3.240274,-0.09072 c 0.624792,-0.10693 0.575964,-1.105788 -0.05881,-0.99827 a 10.27,10.27 0 0 1 -2.998336,0.116538 l 0.05881,0.998269 a 2.58,2.58 0 0 1 1.461002,-0.02597 0.5,0.5 0 0 0 0.588948,-0.375287 34.72,34.72 0 0 0 0.240802,-6.114745 0.50487652,0.50487652 0 0 0 -1.006503,-0.08095 5,5 0 0 1 -1.843041,2.723105 c -0.507911,0.390547 0.07175,1.217888 0.549712,0.829106 z"
       id="path49" />
  </g>
  <metadata
     id="metadata178">
    <rdf:RDF>
      <cc:Work
         rdf:about="">
        <dc:title>wright_fisher</dc:title>
      </cc:Work>
    </rdf:RDF>
  </metadata>
</svg>
