<?xml version="1.0" encoding="UTF-8" standalone="no"?>
<svg
   viewBox="0 0 97 197.65"
   version="1.1"
   id="svg178"
   sodipodi:docname="model_1_3.svg"
   inkscape:version="1.3.2 (1:1.3.2+202311252150+091e20ef0f)"
   xmlns:inkscape="http://www.inkscape.org/namespaces/inkscape"
   xmlns:sodipodi="http://sodipodi.sourceforge.net/DTD/sodipodi-0.dtd"
   xmlns="http://www.w3.org/2000/svg"
   xmlns:svg="http://www.w3.org/2000/svg"
   xmlns:rdf="http://www.w3.org/1999/02/22-rdf-syntax-ns#"
   xmlns:cc="http://creativecommons.org/ns#"
   xmlns:dc="http://purl.org/dc/elements/1.1/">
  <sodipodi:namedview
     id="namedview178"
     pagecolor="#ffffff"
     bordercolor="#000000"
     borderopacity="0.25"
     inkscape:showpageshadow="2"
     inkscape:pageopacity="0.0"
     inkscape:pagecheckerboard="0"
     inkscape:deskcolor="#d1d1d1"
     inkscape:zoom="8.3853765"
     inkscape:cx="-18.365305"
     inkscape:cy="113.29247"
     inkscape:window-width="1223"
     inkscape:window-height="779"
     inkscape:window-x="57"
     inkscape:window-y="21"
     inkscape:window-maximized="1"
     inkscape:current-layer="Layer_1" />
  <defs
     id="defs1">
    <style
       id="style1">.cls-1{fill:#fff;}.cls-2,.cls-3,.cls-7{fill:none;}.cls-2,.cls-3,.cls-5,.cls-6,.cls-7{stroke:#231f20;stroke-linecap:round;}.cls-2,.cls-5,.cls-6,.cls-7{stroke-miterlimit:10;}.cls-3{stroke-linejoin:round;}.cls-4{fill:#231f20;}.cls-5{fill:#d4ebf9;}.cls-5,.cls-6{stroke-width:0.75px;}.cls-6{fill:red;}.cls-7{stroke-width:0.25px;}</style>
  </defs>
  <title
     id="title1">wright_fisher</title>
  <g
     id="Layer_1"
     data-name="Layer 1">
    <path
       class="cls-21"
       d="m 4.0625727,129.76361 c 3.245621,0.2111 6.4252753,-1.0159 9.6577033,-0.36942 0.633292,0.11875 0.897164,-0.83119 0.263872,-0.94993 -3.337977,-0.67288 -6.5967923,0.54093 -9.9215753,0.32984 -0.633292,0 -0.633292,0.94993 0,0.98951 z"
       id="path328"
       style="fill:#231f20;stroke-width:1.31936" />
    <path
       class="cls-21"
       d="m 4.4187997,133.61614 a 30.925759,30.925759 0 0 1 -0.633292,-8.47028 c 0,-0.63329 -0.949938,-0.63329 -0.989519,0 a 32.350666,32.350666 0 0 0 0.672873,8.80012 c 0.131936,0.6201 1.095067,0.35623 0.949938,-0.26387 z"
       id="path329"
       style="fill:#231f20;stroke-width:1.31936" />
    <path
       class="cls-21"
       d="m 7.6644207,124.71047 a 26.387166,26.387166 0 0 0 6.1218233,-0.2111 c 0.633292,-0.10554 0.356227,-1.05548 -0.263872,-0.96313 a 24.170644,24.170644 0 0 1 -5.8579513,0.18471 c -0.633292,0 -0.620098,0.93675 0,0.98952 z"
       id="path330"
       style="fill:#231f20;stroke-width:1.31936" />
    <path
       class="cls-21"
       d="m 4.9597367,124.36744 h 0.303452 a 0.50135616,0.50135616 0 0 0 0.211097,-0.8312 0.67287275,0.67287275 0 0 0 -1.029099,0 c -0.474969,0.43539 0.224291,1.13465 0.69926,0.69926 l 0.105549,-0.0923 -0.356227,0.0792 h 0.131936 l -0.356227,-0.14513 0.105549,0.0923 0.22429,-0.77842 h -0.303452 c -0.620098,0.13194 -0.356227,1.09507 0.263872,0.94994 z"
       id="path331"
       style="fill:#231f20;stroke-width:1.31936" />
    <path
       class="cls-21"
       d="m 5.5006737,120.7524 q 4.142785,0 8.2459893,-0.30346 c 0.633292,0 0.633292,-1.0291 0,-0.98951 q -4.1163983,0.25067 -8.2459893,0.30345 a 0.50135616,0.50135616 0 0 0 0,0.98952 z"
       id="path332"
       style="fill:#231f20;stroke-width:1.31936" />
    <path
       class="cls-21"
       d="m 7.9414857,119.44146 c -0.659679,-0.46822 -2.203328,-1.42139 -0.778421,-2.54178 0.36942,-0.30099 1.490875,-0.10038 1.926263,-0.11698 1.3193593,0 2.7574593,0 4.1295923,0 a 0.50135616,0.6354429 0 0 0 0.250678,-1.17056 l -0.14513,-0.11711 c -0.540936,-0.41805 -1.042293,0.65217 -0.488162,1.08695 l 0.131936,0.10038 0.250678,-1.17055 c -1.464488,-0.0167 -2.942169,-0.0167 -4.3670763,-0.0167 -0.897164,0 -2.216522,-0.16721 -2.994944,0.602 -1.596423,1.67222 0.554131,3.62872 1.622811,4.38122 0.567324,0.3846 1.055487,-0.70234 0.501356,-1.08694 z"
       id="path333"
       style="fill:#231f20;stroke-width:1.48535" />
    <path
       class="cls-21"
       d="m 8.3768747,115.25067 a 5.2774333,5.2774333 0 0 1 -1.385326,-1.51726 2.6387166,2.6387166 0 0 1 -0.422195,-1.05549 0.50135616,0.50135616 0 0 1 0.197904,-0.65968 0.56732408,0.56732408 0 0 1 0.844389,-0.50135 18.048822,18.048822 0 0 1 5.5676923,0.44858 c 0.620098,0.0924 0.88397,-0.85758 0.263872,-0.96313 a 37.48297,37.48297 0 0 0 -4.6969163,-0.46178 c -0.804809,0 -2.440813,-0.36942 -3.060911,0.32984 -0.620099,0.69926 -0.171517,1.80752 0,2.44082 a 5.7524023,5.7524023 0 0 0 1.939456,2.63871 c 0.488163,0.38262 1.200617,-0.30345 0.69926,-0.69926 z"
       id="path334"
       style="fill:#231f20;stroke-width:1.31936" />
    <path
       class="cls-21"
       d="m 10.012879,107.18301 c -0.2374843,-1.31936 -1.3193583,-4.07682 -3.0872983,-3.81295 a 2.6387166,2.6387166 0 0 0 -1.39852,3.95807 3.6018482,3.6018482 0 0 0 2.638716,0.94994 21.228475,21.228475 0 0 0 4.8420453,0 c 1.939457,-0.3958 1.134649,-2.99494 0.51455,-4.26152 -0.277065,-0.56733 -1.134648,0 -0.844389,0.50135 0.290259,0.50136 0.818002,1.88668 0.51455,2.41443 -0.303453,0.52774 -0.580518,0.32984 -1.015906,0.38261 a 30.028595,30.028595 0 0 1 -3.4435263,0 4.2483338,4.2483338 0 0 1 -1.649197,-0.13193 l -0.752035,-1.93946 c 0.14513,-0.60691 0.461776,-0.77842 0.949938,-0.50136 1.174229,0.10555 1.596424,1.8471 1.76794,2.79704 0.118743,0.63329 1.0686813,0.35623 0.9631323,-0.26387 z"
       id="path335"
       style="fill:#231f20;stroke-width:1.31936" />
  </g>
  <metadata
     id="metadata178">
    <rdf:RDF>
      <cc:Work
         rdf:about="">
        <dc:title>wright_fisher</dc:title>
      </cc:Work>
    </rdf:RDF>
  </metadata>
</svg>
