<?xml version="1.0" encoding="UTF-8" standalone="no"?>
<svg
   viewBox="0 0 97 197.65"
   version="1.1"
   id="svg178"
   sodipodi:docname="model_2_2.svg"
   inkscape:version="1.3.2 (1:1.3.2+202311252150+091e20ef0f)"
   xmlns:inkscape="http://www.inkscape.org/namespaces/inkscape"
   xmlns:sodipodi="http://sodipodi.sourceforge.net/DTD/sodipodi-0.dtd"
   xmlns="http://www.w3.org/2000/svg"
   xmlns:svg="http://www.w3.org/2000/svg"
   xmlns:rdf="http://www.w3.org/1999/02/22-rdf-syntax-ns#"
   xmlns:cc="http://creativecommons.org/ns#"
   xmlns:dc="http://purl.org/dc/elements/1.1/">
  <sodipodi:namedview
     id="namedview178"
     pagecolor="#ffffff"
     bordercolor="#000000"
     borderopacity="0.25"
     inkscape:showpageshadow="2"
     inkscape:pageopacity="0.0"
     inkscape:pagecheckerboard="0"
     inkscape:deskcolor="#d1d1d1"
     inkscape:zoom="4.0695564"
     inkscape:cx="29.487244"
     inkscape:cy="37.841963"
     inkscape:window-width="1223"
     inkscape:window-height="779"
     inkscape:window-x="57"
     inkscape:window-y="21"
     inkscape:window-maximized="1"
     inkscape:current-layer="Layer_1" />
  <defs
     id="defs1">
    <style
       id="style1">.cls-1{fill:#fff;}.cls-2,.cls-3,.cls-7{fill:none;}.cls-2,.cls-3,.cls-5,.cls-6,.cls-7{stroke:#231f20;stroke-linecap:round;}.cls-2,.cls-5,.cls-6,.cls-7{stroke-miterlimit:10;}.cls-3{stroke-linejoin:round;}.cls-4{fill:#231f20;}.cls-5{fill:#d4ebf9;}.cls-5,.cls-6{stroke-width:0.75px;}.cls-6{fill:red;}.cls-7{stroke-width:0.25px;}</style>
  </defs>
  <title
     id="title1">wright_fisher</title>
  <g
     id="Layer_1"
     data-name="Layer 1">
    <path
       class="cls-2"
       d="M39.82,31.1c.06-1.25,0-1.74,0-2.5"
       transform="translate(0.29 0.11)"
       id="path40" />
    <path
       class="cls-2"
       d="M46.82,31.06c.06-1.25,0-1.74,0-2.5"
       transform="translate(0.29 0.11)"
       id="path41" />
    <path
       class="cls-2"
       d="M53.82,31c.06-1.24,0-1.74,0-2.5"
       transform="translate(0.29 0.11)"
       id="path42" />
    <path
       class="cls-2"
       d="M60.82,31c.06-1.24,0-1.74,0-2.49"
       transform="translate(0.29 0.11)"
       id="path43" />
    <path
       class="cls-2"
       d="M67.82,31c.06-1.25,0-1.75,0-2.5"
       transform="translate(0.29 0.11)"
       id="path44" />
    <path
       class="cls-2"
       d="M74.82,30.91c.06-1.25,0-1.74,0-2.5"
       transform="translate(0.29 0.11)"
       id="path45" />
    <path
       class="cls-2"
       d="M81.82,30.87c.06-1.25,0-1.74,0-2.5"
       transform="translate(0.29 0.11)"
       id="path46" />
  </g>
  <metadata
     id="metadata178">
    <rdf:RDF>
      <cc:Work
         rdf:about="">
        <dc:title>wright_fisher</dc:title>
      </cc:Work>
    </rdf:RDF>
  </metadata>
</svg>
