<?xml version="1.0" encoding="UTF-8" standalone="no"?>
<svg
   viewBox="0 0 97 197.65"
   version="1.1"
   id="svg178"
   sodipodi:docname="model_4.svg"
   inkscape:version="1.3.2 (1:1.3.2+202311252150+091e20ef0f)"
   xmlns:inkscape="http://www.inkscape.org/namespaces/inkscape"
   xmlns:sodipodi="http://sodipodi.sourceforge.net/DTD/sodipodi-0.dtd"
   xmlns="http://www.w3.org/2000/svg"
   xmlns:svg="http://www.w3.org/2000/svg"
   xmlns:rdf="http://www.w3.org/1999/02/22-rdf-syntax-ns#"
   xmlns:cc="http://creativecommons.org/ns#"
   xmlns:dc="http://purl.org/dc/elements/1.1/">
  <sodipodi:namedview
     id="namedview178"
     pagecolor="#ffffff"
     bordercolor="#000000"
     borderopacity="0.25"
     inkscape:showpageshadow="2"
     inkscape:pageopacity="0.0"
     inkscape:pagecheckerboard="0"
     inkscape:deskcolor="#d1d1d1"
     inkscape:zoom="4.7077735"
     inkscape:cx="51.191928"
     inkscape:cy="36.535318"
     inkscape:window-width="1223"
     inkscape:window-height="779"
     inkscape:window-x="57"
     inkscape:window-y="21"
     inkscape:window-maximized="1"
     inkscape:current-layer="Layer_1" />
  <defs
     id="defs1">
    <style
       id="style1">.cls-1{fill:#fff;}.cls-2,.cls-3,.cls-7{fill:none;}.cls-2,.cls-3,.cls-5,.cls-6,.cls-7{stroke:#231f20;stroke-linecap:round;}.cls-2,.cls-5,.cls-6,.cls-7{stroke-miterlimit:10;}.cls-3{stroke-linejoin:round;}.cls-4{fill:#231f20;}.cls-5{fill:#d4ebf9;}.cls-5,.cls-6{stroke-width:0.75px;}.cls-6{fill:red;}.cls-7{stroke-width:0.25px;}</style>
  </defs>
  <title
     id="title1">wright_fisher</title>
  <g
     id="Layer_1"
     data-name="Layer 1">
    <path
       class="cls-4"
       d="M38.77,23.87a6,6,0,0,0,2.46-3.2l-1-.13a33.45,33.45,0,0,1-.56,5.82L40.3,26a3.51,3.51,0,0,0-2-.1.5.5,0,0,0,0,1,11,11,0,0,0,3.24.1c.63-.07.64-1.07,0-1a10.27,10.27,0,0,1-3-.06v1A2.58,2.58,0,0,1,40,27a.5.5,0,0,0,.61-.34,34.72,34.72,0,0,0,.6-6.09.5.5,0,0,0-1-.14,5,5,0,0,1-2,2.61c-.53.36,0,1.22.5.86Z"
       transform="translate(0.29 0.11)"
       id="path49" />
    <path
       class="cls-4"
       d="M46.57,22.22l-.13-.3,1.42-.72c.22.11.19.87.16,1a4.62,4.62,0,0,1-1.21,1.93c-.46.55-1.41,1.28-1.52,2a.55.55,0,0,0,.23.57c.48.33,1,.13,1.52.08a17.22,17.22,0,0,1,2.27-.07.5.5,0,0,0,0-1,15.45,15.45,0,0,0-1.8,0c-.36,0-1.19.29-1.48.09l.23.57c0-.28.66-.86.83-1.07s.56-.65.82-1A5.73,5.73,0,0,0,48.82,23a2.47,2.47,0,0,0-.31-2.57c-1.43-1.61-3.67.25-2.91,2.07.25.58,1.22.33,1-.27Z"
       transform="translate(0.29 0.11)"
       id="path50" />
    <path
       class="cls-4"
       d="M53.1,21.25c.26-.53.42-.5.46.09.24.3.22.52-.06.69a5,5,0,0,1-.46.57c-.31.47.41,1,.79.61,1-1.09,1.62,1.45,1.24,2-.62,1-2.29,1.27-2.73,0-.2-.61-1.17-.35-1,.26a2.15,2.15,0,0,0,2.16,1.67,3.54,3.54,0,0,0,2.7-1.83c.54-1.62-1.53-4.6-3.12-2.8l.79.61c.58-.87,1.62-1.86.71-3s-1.83-.13-2.39.61c-.39.51.48,1,.87.5Z"
       transform="translate(0.29 0.11)"
       id="path51" />
    <path
       class="cls-4"
       d="M58.47,19.43c-.14,1-.47,2.75.06,3.68.28.49.89.56,1.39.7s1.56.34,2-.22c.6-.76.19-2.61.11-3.48-.07-.63-1.05-.65-1,0,.16,2.22-.24,4.43,0,6.65.07.64,1.07.64,1,0-.23-2.22.17-4.43,0-6.65H61c.09.93.69,3.35-1.17,2.54a2,2,0,0,0-.42,0c-.37-.47-.07-2.42,0-2.94s-.88-.91-1-.27Z"
       transform="translate(0.29 0.11)"
       id="path52" />
    <path
       class="cls-4"
       d="M86.06,22.2q.6-.94,1,.15a1.57,1.57,0,0,1,0,1,4.22,4.22,0,0,1-.82,1.42,13.64,13.64,0,0,0-1.44,1.93.51.51,0,0,0,.57.73A26.65,26.65,0,0,1,89.23,27a.5.5,0,0,0,0-1,27.63,27.63,0,0,0-4.16.39l.57.73c.91-1.65,3.74-3.86,1.87-5.91-1.28-1.4-3.44.11-2.16,1.66.41.49,1.12-.22.71-.71Z"
       transform="translate(0.29 0.11)"
       id="path53" />
    <path
       class="cls-4"
       d="M89.74,20.84c.08,1.94.13,3.88.11,5.82a.5.5,0,0,0,1,0c0-1.94,0-3.88-.11-5.82,0-.64-1-.64-1,0Z"
       transform="translate(0.29 0.11)"
       id="path54" />
    <path
       class="cls-4"
       d="M90,20.76a60.88,60.88,0,0,0,3.22,6.15.5.5,0,0,0,.93-.25c.13-2.07.13-4.29,0-6.36,0-.64-1-.64-1,0,.08,2.07.08,4.29,0,6.36l.94-.26a60.81,60.81,0,0,1-3.23-6.14c-.26-.59-1.12-.08-.86.5Z"
       transform="translate(0.29 0.11)"
       id="path55" />
    <path
       class="cls-4"
       d="M72.39,23.8a.68.68,0,0,0-1.36,0,.51.51,0,0,0,.5.5.75.75,0,0,0,.64-1.14.52.52,0,0,0-.69-.18.75.75,0,0,0-.36.7c.08.63,1.08.63,1,0v-.07l-.23.3.09-.06-.69-.18.23-.37.5.5-.49.27-.15-.35v.07c0,.64,1,.65,1,0Z"
       transform="translate(0.29 0.11)"
       id="path56" />
    <path
       class="cls-4"
       d="M75.37,23.74l0,0L75,24H75l-.35-.14,0,0-.13-.49c.06-.09.05-.1,0,0l-.2.16a.5.5,0,0,0,.36.85.62.62,0,0,0,.6-.8c-.14-.63-1.1-.37-1,.26l0,.09,0-.39-.06.08.44-.25H74.7l.35.86c.26-.21.54-.41.49-.78A.57.57,0,0,0,75,23a.5.5,0,0,0-.43.25l0,0a.5.5,0,0,0,.86.5Z"
       transform="translate(0.29 0.11)"
       id="path57" />
    <path
       class="cls-4"
       d="M77.34,23.24l-.14.53a.51.51,0,0,0,.48.63.79.79,0,0,0,.79-.78c.06-.64-.94-.63-1,0l.21-.22.49.63.13-.53c.16-.62-.81-.89-1-.26Z"
       transform="translate(0.29 0.11)"
       id="path58" />
  </g>
  <metadata
     id="metadata178">
    <rdf:RDF>
      <cc:Work
         rdf:about="">
        <dc:title>wright_fisher</dc:title>
      </cc:Work>
    </rdf:RDF>
  </metadata>
</svg>
