<?xml version="1.0" encoding="UTF-8" standalone="no"?>
<svg
   viewBox="0 0 97 197.65"
   version="1.1"
   id="svg178"
   sodipodi:docname="model_10.svg"
   inkscape:version="1.3.2 (1:1.3.2+202311252150+091e20ef0f)"
   xmlns:inkscape="http://www.inkscape.org/namespaces/inkscape"
   xmlns:sodipodi="http://sodipodi.sourceforge.net/DTD/sodipodi-0.dtd"
   xmlns="http://www.w3.org/2000/svg"
   xmlns:svg="http://www.w3.org/2000/svg"
   xmlns:rdf="http://www.w3.org/1999/02/22-rdf-syntax-ns#"
   xmlns:cc="http://creativecommons.org/ns#"
   xmlns:dc="http://purl.org/dc/elements/1.1/">
  <sodipodi:namedview
     id="namedview178"
     pagecolor="#ffffff"
     bordercolor="#000000"
     borderopacity="0.25"
     inkscape:showpageshadow="2"
     inkscape:pageopacity="0.0"
     inkscape:pagecheckerboard="0"
     inkscape:deskcolor="#d1d1d1"
     inkscape:zoom="6.5207708"
     inkscape:cx="53.674636"
     inkscape:cy="72.997505"
     inkscape:window-width="1223"
     inkscape:window-height="779"
     inkscape:window-x="57"
     inkscape:window-y="21"
     inkscape:window-maximized="1"
     inkscape:current-layer="Layer_1" />
  <defs
     id="defs1">
    <style
       id="style1">.cls-1{fill:#fff;}.cls-2,.cls-3,.cls-7{fill:none;}.cls-2,.cls-3,.cls-5,.cls-6,.cls-7{stroke:#231f20;stroke-linecap:round;}.cls-2,.cls-5,.cls-6,.cls-7{stroke-miterlimit:10;}.cls-3{stroke-linejoin:round;}.cls-4{fill:#231f20;}.cls-5{fill:#d4ebf9;}.cls-5,.cls-6{stroke-width:0.75px;}.cls-6{fill:red;}.cls-7{stroke-width:0.25px;}</style>
  </defs>
  <title
     id="title1">wright_fisher</title>
  <g
     id="Layer_1"
     data-name="Layer 1">
    <circle
       class="cls-6"
       cx="59.609879"
       cy="80.380249"
       r="2.4534051"
       id="circle127"
       style="fill:#ff0000;stroke:#231f20;stroke-width:1.52071px;stroke-linecap:round;stroke-miterlimit:10" />
    <path
       class="cls-4"
       d="m 32.409218,96.793813 c 0.170929,0.366275 -0.427319,1.489515 -0.537201,1.916834 a 14.95619,14.95619 0 0 0 -0.463947,2.197643 3.5772765,3.5772765 0 0 0 0.54941,2.72264 c 1.501724,1.91683 3.455186,0.47616 4.480753,-1.07441 0.427319,-0.65929 -0.622667,-1.22091 -1.062195,-0.61045 a 3.6627404,3.6627404 0 0 1 -0.69592,0.91568 c -1.343005,1.00115 -1.929043,0 -2.087762,-0.91568 a 6.4220049,6.4220049 0 0 1 0.354064,-2.661592 c 0.244183,-0.988941 0.927894,-2.112181 0.476156,-3.101121 -0.317437,-0.720339 -1.367423,-0.09767 -1.049985,0.610456 z"
       id="path169"
       style="fill:#231f20;stroke-width:1.22091" />
    <path
       class="cls-4"
       d="m 30.283459,97.658539 a 2.4212325,2.6738006 0 0 1 1.41515,-1.623817 c 1.105586,-0.329645 1.182976,0.244184 1.636266,0.964523 a 2.2111711,2.4418269 0 0 0 1.050307,1.074404 c 1.54782,0.586038 2.421233,-1.41626 3.316757,-2.307527 0.530681,-0.524992 -0.243229,-1.379633 -0.784966,-0.866848 -0.342731,0.341856 -0.608072,0.866848 -0.961859,1.220913 -0.331676,0.634876 -0.906581,0.744757 -1.702603,0.317438 -0.08844,-0.170928 -0.176892,-0.341856 -0.276396,-0.512784 -0.453289,-0.549411 -0.674407,-1.013358 -1.393037,-1.147658 a 3.3167568,3.6627404 0 0 0 -3.316757,2.319734 c -0.276396,0.708131 0.685463,1.330797 0.96186,0.610457 z"
       id="path170"
       style="fill:#231f20;stroke-width:1.16182" />
    <g
       id="g2"
       transform="matrix(1.6797941,0,0,1.6797941,-17.16496,-19.005098)">
      <path
         class="cls-4"
         d="m 47.409737,54.537525 c 0.9,1.62 1.66,3.55 3,4.88 0.45,0.47 1.16,-0.24 0.71,-0.7 -1.22,-1.25 -2,-3.17 -2.8,-4.68 a 0.50172203,0.50172203 0 0 0 -0.87,0.5 z"
         id="path171"
         style="fill:#231f20" />
      <path
         class="cls-4"
         d="m 50.239737,53.967525 a 22.42,22.42 0 0 0 -2.24,5.12 0.51790443,0.51790443 0 0 0 1,0.27 21.22,21.22 0 0 1 2.14,-4.88 0.5,0.5 0 0 0 -0.86,-0.51 z"
         id="path172"
         style="fill:#231f20" />
    </g>
    <path
       style="fill:none;fill-opacity:0.75;stroke:#060606;stroke-width:1;stroke-dasharray:none;stroke-opacity:1;paint-order:fill markers stroke"
       d="m 39.399442,80.397462 0,40.335298"
       id="path1"
       sodipodi:nodetypes="cc" />
    <path
       style="fill:none;fill-opacity:0.75;stroke:#060606;stroke-width:0.5;stroke-dasharray:none;stroke-opacity:1;paint-order:fill markers stroke"
       d="m 38.752985,80.610494 c 0.502837,0 1.005674,0 1.508511,0"
       id="path4" />
    <path
       style="fill:none;fill-opacity:0.75;stroke:#060606;stroke-width:0.5;stroke-dasharray:none;stroke-opacity:1;paint-order:fill markers stroke"
       d="m 41.403846,80.496337 c 0.448476,0 0.896952,0 1.345427,0"
       id="path5" />
    <path
       style="fill:none;fill-opacity:0.75;stroke:#060606;stroke-width:0.5;stroke-dasharray:none;stroke-opacity:1;paint-order:fill markers stroke"
       d="m 43.680636,80.489317 c 0.450694,-0.0099 0.895433,0.02446 1.34543,0.02446"
       id="path6" />
    <path
       style="fill:none;fill-opacity:0.75;stroke:#060606;stroke-width:0.5;stroke-dasharray:none;stroke-opacity:1;paint-order:fill markers stroke"
       d="m 46.084029,80.610494 c 0.502837,0 1.005674,0 1.508511,0"
       id="path4-4" />
    <path
       style="fill:none;fill-opacity:0.75;stroke:#060606;stroke-width:0.5;stroke-dasharray:none;stroke-opacity:1;paint-order:fill markers stroke"
       d="m 48.73489,80.496337 c 0.448476,0 0.896952,0 1.345427,0"
       id="path5-8" />
    <path
       style="fill:none;fill-opacity:0.75;stroke:#060606;stroke-width:0.5;stroke-dasharray:none;stroke-opacity:1;paint-order:fill markers stroke"
       d="m 51.01168,80.489317 c 0.450694,-0.0099 0.895433,0.02446 1.34543,0.02446"
       id="path6-1" />
    <path
       style="fill:none;fill-opacity:0.75;stroke:#060606;stroke-width:0.5;stroke-dasharray:none;stroke-opacity:1;paint-order:fill markers stroke"
       d="m 53.182394,80.532933 c 0.502837,0 1.005674,0 1.508511,0"
       id="path4-4-3" />
    <path
       style="fill:none;fill-opacity:0.75;stroke:#060606;stroke-width:0.5;stroke-dasharray:none;stroke-opacity:1;paint-order:fill markers stroke"
       d="m 55.833255,80.418776 c 0.448476,0 0.896952,0 1.345427,0"
       id="path5-8-0" />
    <path
       style="fill:none;fill-opacity:0.75;stroke:#060606;stroke-width:0.5;stroke-dasharray:none;stroke-opacity:1;paint-order:fill markers stroke"
       d="m 39.143469,121.30853 c 0.432168,0 0.864336,0 1.296503,0"
       id="path7" />
    <path
       style="fill:none;fill-opacity:0.75;stroke:#060606;stroke-width:0.5;stroke-dasharray:none;stroke-opacity:1;paint-order:fill markers stroke"
       d="m 41.451082,121.30853 c 0.353345,0 0.70669,0 1.060034,0"
       id="path8" />
    <path
       style="fill:none;fill-opacity:0.75;stroke:#060606;stroke-width:0.5;stroke-dasharray:none;stroke-opacity:1;paint-order:fill markers stroke"
       d="m 43.58746,121.30853 c 0.410108,0.0182 0.814275,-0.0326 1.223117,-0.0326"
       id="path9" />
    <circle
       class="cls-6"
       cx="45.65308"
       cy="121.7158"
       r="2.4534051"
       id="circle127-9"
       style="fill:#ff0000;stroke:#231f20;stroke-width:1.52071px;stroke-linecap:round;stroke-miterlimit:10" />
    <path
       class="cls-4"
       d="m 50.71083,118.4627 c -0.23366,1.69211 -0.62898,4.64838 1.566238,5.25304 2.654585,0.75042 3.265538,-2.68108 3.95417,-4.34407 l -1.503212,-0.59991 a 12.133706,12.133706 0 0 0 -0.217751,4.45221 2.3081291,2.3081291 0 0 1 -1.132798,2.32969 4.5200861,4.5200861 0 0 1 -2.567385,-0.36591 c -0.99628,-0.24447 -1.378256,1.31222 -0.381976,1.55669 1.712356,0.42018 3.673783,0.90147 4.895221,-0.71331 1.54222,-2.04767 0.11967,-4.65782 0.961378,-6.87739 0.303488,-0.83326 -1.137456,-1.41789 -1.507031,-0.58435 -0.369576,0.83355 -0.489584,2.7351 -1.295897,3.26342 l -1.158149,0.0789 a 2.9172187,2.9172187 0 0 1 -0.242791,-1.29738 9.4088316,9.4088316 0 0 1 0.139962,-1.78112 c 0.151071,-1.0192 -1.405625,-1.40118 -1.556688,-0.38198 z"
       id="path175"
       style="fill:#231f20;stroke:#231f20;stroke-width:0;stroke-dasharray:none;stroke-opacity:1" />
    <path
       class="cls-2"
       d="m 59.649169,31.17 c 0.06,-1.25 0,-1.74 0,-2.5"
       id="path41"
       style="fill:none;stroke:#231f20;stroke-linecap:round;stroke-miterlimit:10" />
    <path
       class="cls-2"
       d="m 45.11,31.11 c 0.06,-1.24 0,-1.74 0,-2.49"
       id="path43"
       style="fill:none;stroke:#231f20;stroke-linecap:round;stroke-miterlimit:10" />
    <path
       class="cls-4"
       d="m 61.926162,25.226136 c -0.9,-1.62 -1.66,-3.55 -3,-4.88 -0.45,-0.47 -1.16,0.24 -0.71,0.7 1.22,1.25 2,3.17 2.8,4.68 a 0.50172203,0.50172203 0 0 0 0.87,-0.5 z"
       id="path171-4"
       style="fill:#231f20" />
    <path
       class="cls-4"
       d="m 59.096162,25.796136 a 22.42,22.42 0 0 0 2.24,-5.12 0.51790443,0.51790443 0 0 0 -1,-0.27 21.22,21.22 0 0 1 -2.14,4.88 0.5,0.5 0 0 0 0.86,0.51 z"
       id="path172-4"
       style="fill:#231f20" />
    <path
       class="cls-4"
       d="m 43.970194,20.565254 c -0.136548,1.056908 -0.367059,2.903355 1.005741,3.268622 1.660174,0.453676 2.02262,-1.690416 2.443165,-2.731638 L 46.47804,20.73617 a 7.57,7.57 0 0 0 -0.111582,2.778732 1.44,1.44 0 0 1 -0.694007,1.459573 2.82,2.82 0 0 1 -1.603678,-0.214285 c -0.62287,-0.147082 -0.852685,0.826152 -0.229815,0.973234 1.070557,0.252797 2.296833,0.542364 3.050035,-0.47168 0.950966,-1.285871 0.04927,-2.906471 0.562281,-4.295759 0.184792,-0.52149 -0.717339,-0.878365 -0.943358,-0.356335 -0.22602,0.522029 -0.290525,1.708975 -0.79067,2.042973 l -0.722091,0.05554 a 1.82,1.82 0 0 1 -0.158538,-0.808063 5.87,5.87 0 0 1 0.07762,-1.111925 c 0.08869,-0.636659 -0.884547,-0.866474 -0.973235,-0.229815 z"
       id="path175-7"
       style="fill:#231f20" />
    <path
       style="fill:none;fill-opacity:0.75;stroke:#231f20;stroke-width:1;stroke-linecap:round;stroke-linejoin:round;stroke-dasharray:none;stroke-opacity:1;paint-order:fill markers stroke"
       d="m 37.355141,116.47254 c 0.279393,0.52094 0.745346,0.89603 1.115736,1.34579 0.383213,0.46533 0.759087,0.98441 0.977705,1.55283 0.105574,0.2745 0.13803,0.49441 0.13803,0.78216 0,0.10353 0,0.20705 0,0.31057 0,0.0307 0,0.1227 0,0.092 0,-0.35103 -0.06766,-0.76366 0.03451,-1.10424 0.188371,-0.6279 0.95476,-1.13538 1.288275,-1.70236 0.173611,-0.29513 0.368382,-0.57894 0.540613,-0.87418 0.09777,-0.16759 0.136668,-0.36672 0.276056,-0.50611"
       id="path3" />
    <path
       style="fill:none;fill-opacity:0.75;stroke:#231f20;stroke-width:1;stroke-linecap:round;stroke-linejoin:round;stroke-dasharray:none;stroke-opacity:1;paint-order:fill markers stroke"
       d="m 37.39844,84.060632 c 0.195541,-0.06901 0.399223,-0.118274 0.586625,-0.207043 0.06658,-0.03154 0.127627,-0.224461 0.161031,-0.287559 0.163185,-0.308244 0.385895,-0.590429 0.529115,-0.908697 0.148502,-0.330006 0.242774,-0.65928 0.356576,-1.00071 0.03614,-0.108414 0.09423,-0.214431 0.126523,-0.322068 0.05638,-0.187959 -0.0044,-0.736158 0.27606,-0.736158 0.0055,0 0.07825,-0.0045 0.08052,0 0.07688,0.153759 -0.01013,0.539518 0,0.70165 0.02478,0.396514 0.187804,0.797329 0.33357,1.161746 0.139165,0.347916 0.347138,0.655815 0.586625,0.943201 0.313696,0.376439 0.696497,0.63309 1.069728,0.931698"
       id="path10" />
  </g>
  <metadata
     id="metadata178">
    <rdf:RDF>
      <cc:Work
         rdf:about="">
        <dc:title>wright_fisher</dc:title>
      </cc:Work>
    </rdf:RDF>
  </metadata>
</svg>
