<?xml version="1.0" encoding="UTF-8" standalone="no"?>
<svg
   viewBox="0 0 97 197.65"
   version="1.1"
   id="svg178"
   sodipodi:docname="model_5.svg"
   inkscape:version="1.3.2 (1:1.3.2+202311252150+091e20ef0f)"
   xmlns:inkscape="http://www.inkscape.org/namespaces/inkscape"
   xmlns:sodipodi="http://sodipodi.sourceforge.net/DTD/sodipodi-0.dtd"
   xmlns="http://www.w3.org/2000/svg"
   xmlns:svg="http://www.w3.org/2000/svg"
   xmlns:rdf="http://www.w3.org/1999/02/22-rdf-syntax-ns#"
   xmlns:cc="http://creativecommons.org/ns#"
   xmlns:dc="http://purl.org/dc/elements/1.1/">
  <sodipodi:namedview
     id="namedview178"
     pagecolor="#ffffff"
     bordercolor="#000000"
     borderopacity="0.25"
     inkscape:showpageshadow="2"
     inkscape:pageopacity="0.0"
     inkscape:pagecheckerboard="0"
     inkscape:deskcolor="#d1d1d1"
     inkscape:zoom="4.7077735"
     inkscape:cx="51.191928"
     inkscape:cy="36.535318"
     inkscape:window-width="1223"
     inkscape:window-height="779"
     inkscape:window-x="57"
     inkscape:window-y="21"
     inkscape:window-maximized="1"
     inkscape:current-layer="Layer_1" />
  <defs
     id="defs1">
    <style
       id="style1">.cls-1{fill:#fff;}.cls-2,.cls-3,.cls-7{fill:none;}.cls-2,.cls-3,.cls-5,.cls-6,.cls-7{stroke:#231f20;stroke-linecap:round;}.cls-2,.cls-5,.cls-6,.cls-7{stroke-miterlimit:10;}.cls-3{stroke-linejoin:round;}.cls-4{fill:#231f20;}.cls-5{fill:#d4ebf9;}.cls-5,.cls-6{stroke-width:0.75px;}.cls-6{fill:red;}.cls-7{stroke-width:0.25px;}</style>
  </defs>
  <title
     id="title1">wright_fisher</title>
  <g
     id="Layer_1"
     data-name="Layer 1">
    <path
       class="cls-4"
       d="M26.88,3.08c-.29-1.21-1.71-3.37-2.94-1.59-.65,1-.34,2.58-.3,3.62.08,2,.18,3.93.27,5.9,0,.64,1,.64,1,0l-.22-4.79c0-.72-.08-1.44-.09-2.16,0-.35,0-.7,0-1q1.32-.81,1.32.33c.15.63,1.12.36,1-.26Z"
       transform="translate(0.29 0.11)"
       id="path159" />
    <path
       class="cls-4"
       d="M23.17,6.23a2.49,2.49,0,0,1,2,0c.58.25,1.09-.61.5-.86a3.61,3.61,0,0,0-3,0c-.58.27-.07,1.13.51.86Z"
       transform="translate(0.29 0.11)"
       id="path160" />
    <path
       class="cls-4"
       d="M27.58,5.92c-.15-1,.19-.31.6-.15a1.23,1.23,0,0,0,.6.1c.57-.06.84-.47,1-1l-1-.13L28.5,7.7a9.55,9.55,0,0,0-.22,2.49c.19,1.12,1.21,1.12,2,.6.54-.35,0-1.22-.5-.87-.76.49-.43-1-.42-1.09l.15-1.35.29-2.7c.07-.6-.8-.62-1-.14s-.93-.34-1.1-.38a.81.81,0,0,0-.77.21,1.73,1.73,0,0,0-.35,1.71c.09.64,1.06.37,1-.26Z"
       transform="translate(0.29 0.11)"
       id="path161" />
    <path
       class="cls-4"
       d="M31.39,8.87c1.5.15,3.09-.69,3-2.39,0-1.2-1.24-2.64-2.56-2.18a1.55,1.55,0,0,0-.92,1.39,13.9,13.9,0,0,0-.16,3.22,2.77,2.77,0,0,0,.82,1.88c.72.61,1.55.27,2.38.23.64,0,.65-1,0-1-.81,0-1.93.16-2.16-.83a9.25,9.25,0,0,1,0-2.52A3.48,3.48,0,0,1,32,5.57c.38-.61,1-.13,1.22.29.82,1.36-.66,2.12-1.8,2-.64-.06-.64.94,0,1Z"
       transform="translate(0.29 0.11)"
       id="path162" />
    <path
       class="cls-4"
       d="M38.61,5.87c-.21-1.32-1.46-2.43-2.71-1.39s-1,3.81-.73,5.21c.26,1.24,1.14,2.68,2.47,1.55s1-4,1.06-5.68h-1c.12,3.06.32,6.12.58,9.17.06.64,1.06.65,1,0-.26-3.05-.46-6.11-.58-9.17a.5.5,0,0,0-1,0c0,.87.39,3.47-.25,4.11l-1.25.11a9,9,0,0,1-.22-2l0-.72c-.18-1.27.36-1.58,1.64-.92.1.63,1.06.36,1-.27Z"
       transform="translate(0.29 0.11)"
       id="path163" />
    <path
       class="cls-4"
       d="M39.45,4.57a38,38,0,0,0,.18,5.11c.1.7.38,1.49,1.23,1.44,2.62-.13,2.21-4.29,2-5.89-.08-.62-1-.65-1,0l.45,5.82c0,.64,1,.64,1,0l-.45-5.82h-1A14.75,14.75,0,0,1,42,7.8c0,.43-.41,2.89-1.31,2.12-.31-.27-.15-2.09-.16-2.52,0-.94,0-1.89-.06-2.83a.5.5,0,0,0-1,0Z"
       transform="translate(0.29 0.11)"
       id="path164" />
    <path
       class="cls-4"
       d="M44.23,8.73a2.32,2.32,0,0,0,2.91-2.28c0-1.11-1-3.07-2.39-2.35s-1.17,4.37-1,5.68c.37,2.12,2.49,1.79,4.09,1.19.6-.22.34-1.19-.26-1-.89.33-2.41.9-2.82-.31a7.29,7.29,0,0,1-.09-2.38c0-.43,0-2.56,1-2.13.43.19.5,1.26.39,1.63a1.29,1.29,0,0,1-1.6.95.5.5,0,0,0-.26,1Z"
       transform="translate(0.29 0.11)"
       id="path165" />
    <path
       class="cls-4"
       d="M47.92,4.3l.31,7.09c0,.64,1,.64,1,0a19.71,19.71,0,0,1,.1-2.88c.1-.71.37-2.48,1.12-2.81,1.34-.59,1.1,4.88,1.16,5.56s1,.64,1,0c-.14-1.69.22-3.48-.38-5.1-.23-.63-.82-1.77-1.65-1.7S49,5.92,48.78,6.59a12.56,12.56,0,0,0-.55,4.8h1L48.92,4.3c0-.65-1-.65-1,0Z"
       transform="translate(0.29 0.11)"
       id="path166" />
    <path
       class="cls-4"
       d="M57,6.18a1.54,1.54,0,0,0-2.05-1.55c-1.34.39-1.87,2-2,3.22s.06,3,1.32,3.71a2.13,2.13,0,0,0,2.93-1.11c.27-.58-.59-1.08-.86-.5a1.17,1.17,0,0,1-2.08.23,3.88,3.88,0,0,1-.35-1.67,4.73,4.73,0,0,1,.25-1.62l.25-.57c.38-.81.9-.86,1.58-.14,0,.64,1,.64,1,0Z"
       transform="translate(0.29 0.11)"
       id="path167" />
    <path
       class="cls-4"
       d="M57.58,4.93C57.49,6.12,56.94,11,59,11.05c2.46,0,2-4.25,2-5.64a.5.5,0,0,0-1,0c0,1.89.91,8.8-1.61,9.1-.63.07-.64,1.07,0,1,1.35-.16,2.25-.32,2.51-1.83.44-2.61.07-5.61.1-8.27H60c0,.61.25,4.87-1.25,4-.6-.35-.23-3.8-.18-4.48s-.95-.64-1,0Z"
       transform="translate(0.29 0.11)"
       id="path168" />
  </g>
  <metadata
     id="metadata178">
    <rdf:RDF>
      <cc:Work
         rdf:about="">
        <dc:title>wright_fisher</dc:title>
      </cc:Work>
    </rdf:RDF>
  </metadata>
</svg>
