<?xml version="1.0" encoding="UTF-8" standalone="no"?>
<svg
   viewBox="0 0 97 197.65"
   version="1.1"
   id="svg178"
   sodipodi:docname="model_5_2.svg"
   inkscape:version="1.3.2 (1:1.3.2+202311252150+091e20ef0f)"
   xmlns:inkscape="http://www.inkscape.org/namespaces/inkscape"
   xmlns:sodipodi="http://sodipodi.sourceforge.net/DTD/sodipodi-0.dtd"
   xmlns="http://www.w3.org/2000/svg"
   xmlns:svg="http://www.w3.org/2000/svg"
   xmlns:rdf="http://www.w3.org/1999/02/22-rdf-syntax-ns#"
   xmlns:cc="http://creativecommons.org/ns#"
   xmlns:dc="http://purl.org/dc/elements/1.1/">
  <sodipodi:namedview
     id="namedview178"
     pagecolor="#ffffff"
     bordercolor="#000000"
     borderopacity="0.25"
     inkscape:showpageshadow="2"
     inkscape:pageopacity="0.0"
     inkscape:pagecheckerboard="0"
     inkscape:deskcolor="#d1d1d1"
     inkscape:zoom="4.4738145"
     inkscape:cx="19.670015"
     inkscape:cy="34.64605"
     inkscape:window-width="1223"
     inkscape:window-height="779"
     inkscape:window-x="57"
     inkscape:window-y="21"
     inkscape:window-maximized="1"
     inkscape:current-layer="Layer_1" />
  <defs
     id="defs1">
    <style
       id="style1">.cls-1{fill:#fff;}.cls-2,.cls-3,.cls-7{fill:none;}.cls-2,.cls-3,.cls-5,.cls-6,.cls-7{stroke:#231f20;stroke-linecap:round;}.cls-2,.cls-5,.cls-6,.cls-7{stroke-miterlimit:10;}.cls-3{stroke-linejoin:round;}.cls-4{fill:#231f20;}.cls-5{fill:#d4ebf9;}.cls-5,.cls-6{stroke-width:0.75px;}.cls-6{fill:red;}.cls-7{stroke-width:0.25px;}</style>
  </defs>
  <title
     id="title1">wright_fisher</title>
  <g
     id="Layer_1"
     data-name="Layer 1">
    <path
       class="cls-4"
       d="m 65.71,0.64 a 66.54,66.54 0 0 0 3.27,10.71 c 0.26,0.59 1.12,0.08 0.87,-0.51 A 65.72,65.72 0 0 1 66.67,0.38 c -0.15,-0.63 -1.12,-0.36 -1,0.26 z"
       id="path59" />
    <path
       class="cls-4"
       d="m 69.44,0.39 c -0.83,3.72 -2.71,7.24 -4.15,10.72 -0.25,0.59 0.71,0.85 1,0.26 1.46,-3.47 3.35,-7 4.17,-10.7 0.14,-0.63 -0.82,-0.9 -1,-0.27 z"
       id="path60" />
    <path
       class="cls-4"
       d="M 70.86,0.26 C 69.99,2.15 70.2,4.56 70.19,6.6 a 7.9,7.9 0 0 0 1.59,5.34 c 0.41,0.5 1.11,-0.22 0.71,-0.71 -1.27,-1.54 -1.33,-3.36 -1.29,-5.27 0,-1.6 -0.16,-3.72 0.52,-5.2 0.27,-0.58 -0.6,-1.09 -0.86,-0.5 z"
       id="path61" />
    <path
       class="cls-4"
       d="m 73.84,0.72 c -0.31,3.19 -0.78,6.77 -0.32,10 0.2,1.41 1,1.72 2.36,1.41 0.63,-0.13 0.36,-1.1 -0.27,-1 -1.73,0.38 -1.14,-4.14 -1.12,-5 0,-1.8 0.18,-3.59 0.35,-5.39 0.06,-0.64 -0.94,-0.63 -1,0 z"
       id="path62" />
    <path
       class="cls-4"
       d="m 72.23,6.41 a 16.2,16.2 0 0 1 2.06,-0.3 h 0.9 0.45 c 0.38,0.07 0.4,0 0.05,-0.19 l 0.13,-0.49 -0.06,0.08 c -0.41,0.48 0.29,1.19 0.71,0.7 0.42,-0.49 -0.03,-1.1 -0.65,-1.1 a 15.19,15.19 0 0 0 -3.86,0.37 c -0.63,0.13 -0.36,1.1 0.27,1 z"
       id="path63" />
    <path
       class="cls-4"
       d="m 76.82,0.76 a 12.87,12.87 0 0 1 0.17,10.35 c -0.24,0.6 0.73,0.86 1,0.27 A 13.89,13.89 0 0 0 77.69,0.26 c -0.27,-0.59 -1.13,-0.08 -0.87,0.5 z"
       id="path66" />
  </g>
  <metadata
     id="metadata178">
    <rdf:RDF>
      <cc:Work
         rdf:about="">
        <dc:title>wright_fisher</dc:title>
      </cc:Work>
    </rdf:RDF>
  </metadata>
</svg>
