<?xml version="1.0" encoding="UTF-8" standalone="no"?>
<svg
   viewBox="0 0 97 197.65"
   version="1.1"
   id="svg178"
   sodipodi:docname="model_11.svg"
   inkscape:version="1.3.2 (1:1.3.2+202311252150+091e20ef0f)"
   xmlns:inkscape="http://www.inkscape.org/namespaces/inkscape"
   xmlns:sodipodi="http://sodipodi.sourceforge.net/DTD/sodipodi-0.dtd"
   xmlns="http://www.w3.org/2000/svg"
   xmlns:svg="http://www.w3.org/2000/svg"
   xmlns:rdf="http://www.w3.org/1999/02/22-rdf-syntax-ns#"
   xmlns:cc="http://creativecommons.org/ns#"
   xmlns:dc="http://purl.org/dc/elements/1.1/">
  <sodipodi:namedview
     id="namedview178"
     pagecolor="#ffffff"
     bordercolor="#000000"
     borderopacity="0.25"
     inkscape:showpageshadow="2"
     inkscape:pageopacity="0.0"
     inkscape:pagecheckerboard="0"
     inkscape:deskcolor="#d1d1d1"
     inkscape:zoom="2.2288729"
     inkscape:cx="46.660355"
     inkscape:cy="88.834137"
     inkscape:window-width="1223"
     inkscape:window-height="779"
     inkscape:window-x="57"
     inkscape:window-y="21"
     inkscape:window-maximized="1"
     inkscape:current-layer="Layer_1" />
  <defs
     id="defs1">
    <style
       id="style1">.cls-1{fill:#fff;}.cls-2,.cls-3,.cls-7{fill:none;}.cls-2,.cls-3,.cls-5,.cls-6,.cls-7{stroke:#231f20;stroke-linecap:round;}.cls-2,.cls-5,.cls-6,.cls-7{stroke-miterlimit:10;}.cls-3{stroke-linejoin:round;}.cls-4{fill:#231f20;}.cls-5{fill:#d4ebf9;}.cls-5,.cls-6{stroke-width:0.75px;}.cls-6{fill:red;}.cls-7{stroke-width:0.25px;}</style>
  </defs>
  <title
     id="title1">wright_fisher</title>
  <g
     id="Layer_1"
     data-name="Layer 1">
    <path
       class="cls-4"
       d="m 11.501491,33.255274 c 0.42,1.37 0,3.55 -0.08,5 0,1.08 -0.44,2.9 0,3.86 0.53,1.32 2.19,0.43 3.1,0 0.58,-0.27 0.07,-1.13 -0.51,-0.86 -0.16,0.08 -1.32,0.69 -1.52,0.54 -0.2,-0.15 -0.09,-0.43 -0.09,-0.72 0,-1 0,-2.12 0.07,-3.17 0,-1.48 0.46,-3.52 0,-4.93 -0.19,-0.61 -1.15,-0.35 -1,0.27 z"
       id="path29-7"
       style="fill:#231f20" />
    <path
       class="cls-4"
       d="m 10.201491,37.245274 a 22.2,22.2 0 0 1 4.31,-0.2 c 0.64,0 0.64,-1 0,-1 a 24.07,24.07 0 0 0 -4.5999997,0.23 c -0.64,0.09 -0.37,1.06 0.2599997,1 z"
       id="path30-1"
       style="fill:#231f20" />
    <path
       class="cls-4"
       d="m 12.115662,54.598744 c 0.42,1.37 0,3.55 -0.08,5 0,1.08 -0.44,2.9 0,3.86 0.53,1.32 2.19,0.43 3.1,0 0.58,-0.27 0.07,-1.13 -0.51,-0.86 -0.16,0.08 -1.32,0.69 -1.52,0.54 -0.2,-0.15 -0.09,-0.43 -0.09,-0.72 0,-1 0,-2.12 0.07,-3.17 0,-1.48 0.46,-3.52 0,-4.93 -0.19,-0.61 -1.15,-0.35 -1,0.27 z"
       id="path29-7-2"
       style="fill:#231f20" />
    <path
       class="cls-4"
       d="m 10.815662,58.588744 a 22.2,22.2 0 0 1 4.31,-0.2 c 0.64,0 0.64,-1 0,-1 a 24.07,24.07 0 0 0 -4.6,0.23 c -0.6399997,0.09 -0.37,1.06 0.26,1 z"
       id="path30-1-7"
       style="fill:#231f20" />
    <path
       class="cls-4"
       d="m 12.115662,74.598744 c 0.42,1.37 0,3.55 -0.08,5 0,1.08 -0.44,2.9 0,3.86 0.53,1.32 2.19,0.43 3.1,0 0.58,-0.27 0.07,-1.13 -0.51,-0.86 -0.16,0.08 -1.32,0.69 -1.52,0.54 -0.2,-0.15 -0.09,-0.43 -0.09,-0.72 0,-1 0,-2.12 0.07,-3.17 0,-1.48 0.46,-3.52 0,-4.93 -0.19,-0.61 -1.15,-0.35 -1,0.27 z"
       id="path29-7-2-2"
       style="fill:#231f20" />
    <path
       class="cls-4"
       d="m 10.815662,78.588744 a 22.2,22.2 0 0 1 4.31,-0.2 c 0.64,0 0.64,-1 0,-1 a 24.07,24.07 0 0 0 -4.6,0.23 c -0.6399997,0.09 -0.37,1.06 0.26,1 z"
       id="path30-1-7-6"
       style="fill:#231f20" />
    <path
       class="cls-4"
       d="m 12.115662,94.598744 c 0.42,1.37 0,3.55 -0.08,5 0,1.079996 -0.44,2.899996 0,3.859996 0.53,1.32 2.19,0.43 3.1,0 0.58,-0.27 0.07,-1.13 -0.51,-0.86 -0.16,0.08 -1.32,0.69 -1.52,0.54 -0.2,-0.15 -0.09,-0.43 -0.09,-0.72 0,-1 0,-2.12 0.07,-3.169996 0,-1.48 0.46,-3.52 0,-4.93 -0.19,-0.61 -1.15,-0.35 -1,0.27 z"
       id="path29-7-2-2-0"
       style="fill:#231f20" />
    <path
       class="cls-4"
       d="m 10.815662,98.588744 a 22.2,22.2 0 0 1 4.31,-0.2 c 0.64,0 0.64,-1 0,-1 a 24.07,24.07 0 0 0 -4.6,0.23 c -0.6399997,0.09 -0.37,1.06 0.26,1 z"
       id="path30-1-7-6-6"
       style="fill:#231f20" />
    <path
       class="cls-4"
       d="m 12.115662,116.59874 c 0.42,1.37 0,3.55 -0.08,5 0,1.08 -0.44,2.9 0,3.86 0.53,1.32 2.19,0.43 3.1,0 0.58,-0.27 0.07,-1.13 -0.51,-0.86 -0.16,0.08 -1.32,0.69 -1.52,0.54 -0.2,-0.15 -0.09,-0.43 -0.09,-0.72 0,-1 0,-2.12 0.07,-3.17 0,-1.48 0.46,-3.52 0,-4.93 -0.19,-0.61 -1.15,-0.35 -1,0.27 z"
       id="path29-7-2-2-0-5"
       style="fill:#231f20" />
    <path
       class="cls-4"
       d="m 10.815662,120.58874 a 22.2,22.2 0 0 1 4.31,-0.2 c 0.64,0 0.64,-1 0,-1 a 24.07,24.07 0 0 0 -4.6,0.23 c -0.6399997,0.09 -0.37,1.06 0.26,1 z"
       id="path30-1-7-6-6-9"
       style="fill:#231f20" />
    <path
       class="cls-4"
       d="m 12.602767,135.68807 c 0.42,1.37 0,3.55 -0.08,5 0,1.08 -0.44,2.9 0,3.86 0.53,1.32 2.19,0.43 3.1,0 0.58,-0.27 0.07,-1.13 -0.51,-0.86 -0.16,0.08 -1.32,0.69 -1.52,0.54 -0.2,-0.15 -0.09,-0.43 -0.09,-0.72 0,-1 0,-2.12 0.07,-3.17 0,-1.48 0.46,-3.52 0,-4.93 -0.19,-0.61 -1.15,-0.35 -1,0.27 z"
       id="path29-7-2-2-0-5-9"
       style="fill:#231f20" />
    <path
       class="cls-4"
       d="m 11.302767,139.67807 a 22.2,22.2 0 0 1 4.31,-0.2 c 0.64,0 0.64,-1 0,-1 a 24.07,24.07 0 0 0 -4.6,0.23 c -0.64,0.09 -0.37,1.06 0.26,1 z"
       id="path30-1-7-6-6-9-0"
       style="fill:#231f20" />
    <path
       class="cls-4"
       d="m 12.115662,156.59874 c 0.42,1.37 0,3.55 -0.08,5 0,1.08 -0.44,2.9 0,3.86 0.53,1.32 2.19,0.43 3.1,0 0.58,-0.27 0.07,-1.13 -0.51,-0.86 -0.16,0.08 -1.32,0.69 -1.52,0.54 -0.2,-0.15 -0.09,-0.43 -0.09,-0.72 0,-1 0,-2.12 0.07,-3.17 0,-1.48 0.46,-3.52 0,-4.93 -0.19,-0.61 -1.15,-0.35 -1,0.27 z"
       id="path29-7-2-2-0-5-1"
       style="fill:#231f20" />
    <path
       class="cls-4"
       d="m 10.815662,160.58874 a 22.2,22.2 0 0 1 4.31,-0.2 c 0.64,0 0.64,-1 0,-1 a 24.07,24.07 0 0 0 -4.6,0.23 c -0.6399997,0.09 -0.37,1.06 0.26,1 z"
       id="path30-1-7-6-6-9-7"
       style="fill:#231f20" />
    <path
       class="cls-4"
       d="m 12.115662,176.59874 c 0.42,1.37 0,3.55 -0.08,5 0,1.08 -0.44,2.9 0,3.86 0.53,1.32 2.19,0.43 3.1,0 0.58,-0.27 0.07,-1.13 -0.51,-0.86 -0.16,0.08 -1.32,0.69 -1.52,0.54 -0.2,-0.15 -0.09,-0.43 -0.09,-0.72 0,-1 0,-2.12 0.07,-3.17 0,-1.48 0.46,-3.52 0,-4.93 -0.19,-0.61 -1.15,-0.35 -1,0.27 z"
       id="path29-7-2-2-0-5-1-1"
       style="fill:#231f20" />
    <path
       class="cls-4"
       d="m 10.815662,180.58874 a 22.2,22.2 0 0 1 4.31,-0.2 c 0.64,0 0.64,-1 0,-1 a 24.07,24.07 0 0 0 -4.6,0.23 c -0.6399997,0.09 -0.37,1.06 0.26,1 z"
       id="path30-1-7-6-6-9-7-1"
       style="fill:#231f20" />
  </g>
  <metadata
     id="metadata178">
    <rdf:RDF>
      <cc:Work
         rdf:about="">
        <dc:title>wright_fisher</dc:title>
      </cc:Work>
    </rdf:RDF>
  </metadata>
</svg>
