<?xml version="1.0" encoding="UTF-8" standalone="no"?>
<svg
   viewBox="0 0 97 197.65"
   version="1.1"
   id="svg178"
   sodipodi:docname="model_1_1.svg"
   inkscape:version="1.3.2 (1:1.3.2+202311252150+091e20ef0f)"
   xmlns:inkscape="http://www.inkscape.org/namespaces/inkscape"
   xmlns:sodipodi="http://sodipodi.sourceforge.net/DTD/sodipodi-0.dtd"
   xmlns="http://www.w3.org/2000/svg"
   xmlns:svg="http://www.w3.org/2000/svg"
   xmlns:rdf="http://www.w3.org/1999/02/22-rdf-syntax-ns#"
   xmlns:cc="http://creativecommons.org/ns#"
   xmlns:dc="http://purl.org/dc/elements/1.1/">
  <sodipodi:namedview
     id="namedview178"
     pagecolor="#ffffff"
     bordercolor="#000000"
     borderopacity="0.25"
     inkscape:showpageshadow="2"
     inkscape:pageopacity="0.0"
     inkscape:pagecheckerboard="0"
     inkscape:deskcolor="#d1d1d1"
     inkscape:zoom="2.0499291"
     inkscape:cx="15.610296"
     inkscape:cy="95.613063"
     inkscape:window-width="1223"
     inkscape:window-height="779"
     inkscape:window-x="57"
     inkscape:window-y="21"
     inkscape:window-maximized="1"
     inkscape:current-layer="Layer_1" />
  <defs
     id="defs1">
    <style
       id="style1">.cls-1{fill:#fff;}.cls-2,.cls-3,.cls-7{fill:none;}.cls-2,.cls-3,.cls-5,.cls-6,.cls-7{stroke:#231f20;stroke-linecap:round;}.cls-2,.cls-5,.cls-6,.cls-7{stroke-miterlimit:10;}.cls-3{stroke-linejoin:round;}.cls-4{fill:#231f20;}.cls-5{fill:#d4ebf9;}.cls-5,.cls-6{stroke-width:0.75px;}.cls-6{fill:red;}.cls-7{stroke-width:0.25px;}</style>
  </defs>
  <title
     id="title1">wright_fisher</title>
  <g
     id="Layer_1"
     data-name="Layer 1">
    <path
       class="cls-4"
       d="M7.17,141c0-1.75-.69-4.47-3-4-1.48.29-2.6,2.6-1.72,3.92.49.73,1.83,1,2.6,1.09a7.09,7.09,0,0,0,3.45-.22c2.37-.82,1.64-3.14.64-4.86a.5.5,0,0,0-.86.5c.59,1,1.48,2.78,0,3.4a6,6,0,0,1-3,.2c-1.24-.2-2.64-1-1.71-2.41.72-1.1,2.1-.47,2.5.63A5.13,5.13,0,0,1,6.17,141c0,.64,1,.64,1,0Z"
       transform="translate(0.29 0.11)"
       id="path23" />
    <path
       class="cls-4"
       d="M2.29,136.38q3.59.19,7.17.17a.5.5,0,0,0,0-1q-3.59,0-7.17-.17c-.65,0-.65,1,0,1Z"
       transform="translate(0.29 0.11)"
       id="path24" />
    <path
       class="cls-4"
       d="M4.36,135.16c-.49-.37-1.68-1.33-1.6-2,.1-.94,1.54-.58,2.06-.55l4.6.23c.64,0,.64-1,0-1l-4.88-.24c-.73,0-1.9-.25-2.51.31-1.34,1.22.91,3.49,1.83,4.16.52.38,1-.48.5-.86Z"
       transform="translate(0.29 0.11)"
       id="path25" />
    <path
       class="cls-4"
       d="M7.19,129.85c-.44-1.47-1.71-4.17-3.73-3.42-1.52.56-2.15,2.68-.79,3.66a7.35,7.35,0,0,0,5.95.75c2-.79,1.51-3.39.89-5-.23-.59-1.2-.33-1,.27.36.91,1,2.66.12,3.5-.61.61-2.06.41-2.84.36s-3.09-.23-2.8-1.73c.21-1.12,1.92-.69,2.43.05a6.79,6.79,0,0,1,.77,1.77.5.5,0,0,0,1-.26Z"
       transform="translate(0.29 0.11)"
       id="path26" />
    <path
       class="cls-4"
       d="M3.4,124.42c-1,.09-.54-2-.79-2.54a1.13,1.13,0,0,0-.81-.66l-.13,1a11.06,11.06,0,0,1,4.63,1.48,6,6,0,0,0,2.44,1c1.8,0,1.3-2.18.68-3.14-.35-.53-1.22,0-.87.51.22.33.13,1.38-.33,1.46-.19,0-.77-.39-.94-.48-.71-.36-1.41-.73-2.14-1a9.63,9.63,0,0,0-3.47-.82.5.5,0,0,0-.13,1c.17.06.05,2.15.3,2.53a1.58,1.58,0,0,0,1.56.71c.64-.06.64-1.07,0-1Z"
       transform="translate(0.29 0.11)"
       id="path27" />
    <path
       class="cls-4"
       d="M5,116.17c-1.19,0-3.95,1.25-3.24,2.92.32.75,1.74,1.2,2.45,1.39a7.1,7.1,0,0,0,3.24.09c1.55-.33,3.53-1.21,2.21-3-1.58-2.11-4.52-2-6.86-1.81-.63,0-.65,1,0,1A33.24,33.24,0,0,0,9.59,116c.63-.15.36-1.12-.26-1a32.89,32.89,0,0,1-6.56.74v1a11.15,11.15,0,0,1,4,.1A4.12,4.12,0,0,1,8.62,118c.69.72.43.93-.31,1.26a5.69,5.69,0,0,1-3.66.34c-.46-.1-1.39-.27-1.66-.67-.74-1.11,1.25-1.69,2-1.72s.64-1,0-1Z"
       transform="translate(0.29 0.11)"
       id="path28" />
    <path
       class="cls-4"
       d="M.33,113.41c1.37-.42,3.55,0,5,.08,1.08,0,2.9.44,3.86,0,1.32-.53.43-2.19,0-3.1-.27-.58-1.13-.07-.86.51.08.16.69,1.32.54,1.52s-.43.09-.72.09c-1,0-2.12,0-3.17-.07-1.48,0-3.52-.46-4.93,0-.61.19-.35,1.15.27,1Z"
       transform="translate(0.29 0.11)"
       id="path29" />
    <path
       class="cls-4"
       d="M4.32,114.71a22.2,22.2,0,0,1-.2-4.31c0-.64-1-.64-1,0A24.07,24.07,0,0,0,3.35,115c.09.64,1.06.37,1-.26Z"
       transform="translate(0.29 0.11)"
       id="path30" />
    <path
       class="cls-4"
       d="M2.39,109.51l4.68.13c.83,0,2.06.36,2.71-.28a.5.5,0,0,0,.13-.49,7.21,7.21,0,0,0-.8-1.53.5.5,0,0,0-.87.51l.46.77c.49.1.4.12-.25.06s-1.29,0-1.93-.05l-4.13-.12c-.64,0-.64,1,0,1Z"
       transform="translate(0.29 0.11)"
       id="path31" />
    <path
       class="cls-4"
       d="M.33,109.67l.61-.22c.36-.13.55-.73.12-.91s-1.08-.24-1.15.37a.66.66,0,0,0,.83.71c.63-.13.36-1.09-.27-1l-.07,0,.38,0,.1.12-.05.38,0-.06-.43.25H.56l.12-.91-.62.21c-.6.22-.34,1.18.27,1Z"
       transform="translate(0.29 0.11)"
       id="path32" />
    <path
       class="cls-4"
       d="M5.94,107.13c1.79-.22,3.87.39,4-2.08s-1.21-3.26-3.37-3.5c-1.56-.17-4.67.06-4.78,2.19s3,2.93,4.51,3.38a.5.5,0,0,0,.27-1A11.33,11.33,0,0,1,3.73,105,1.24,1.24,0,0,1,4,102.73a5.59,5.59,0,0,1,1.82-.24c1.32,0,3.32.29,3.11,2.16s-1.83,1.34-3,1.48c-.63.07-.63,1.07,0,1Z"
       transform="translate(0.29 0.11)"
       id="path33" />
    <path
       class="cls-4"
       d="M1.77,101l7.88.19a.5.5,0,0,0,0-1L1.77,100c-.64,0-.64,1,0,1Z"
       transform="translate(0.29 0.11)"
       id="path34" />
    <path
       class="cls-4"
       d="M4.38,99.78c-.31-.29-1.29-.93-1.41-1.33-.5-1.58,1.44-1.39,2.19-1.41a16,16,0,0,1,4.18.5.5.5,0,0,0,.26-1c-2-.49-5.13-1.14-7-.12-2.25,1.21,0,3,1.12,4,.46.44,1.17-.26.7-.71Z"
       transform="translate(0.29 0.11)"
       id="path35" />
    <path
       class="cls-4"
       d="M3.88,90.53c-.85-.09-1.94,0-2.32.87S2,93.58,2.89,94.09a2,2,0,0,0,2.58,0,16.26,16.26,0,0,0,1.27-2c.52-.75,1.67-1.26,2.06-.08a2,2,0,0,1-.38,2c-.43.48.27,1.19.7.71,1.11-1.22,1.11-4.22-.93-4.57-1-.17-1.67.55-2.19,1.3s-.86,1.79-1.59,2c-.47.14-1.64-.35-1.75-.92l.51-1a5.65,5.65,0,0,1,.71,0c.64.07.63-.93,0-1Z"
       transform="translate(0.29 0.11)"
       id="path36" />
    <path
       class="cls-4"
       d="M.67,143.53c-1.91,1.51-.64,3.85,1,4.91,2.14,1.33,5.13,1.32,6.83-.71,1.1-1.31,1.68-4-.22-5-1.67-.8-3.91.76-2.76,2.54.35.53,1.2.05.87-.51A2.1,2.1,0,0,1,6,143.25l-.5.5a10.58,10.58,0,0,0,4-.49c.61-.19.35-1.15-.27-1a10,10,0,0,1-3.68.45.51.51,0,0,0-.5.5,3.65,3.65,0,0,0,.55,2.06l.87-.51q.66-2.31,2-.43A2.79,2.79,0,0,1,8.42,146a3.57,3.57,0,0,1-2.55,2.29,4.81,4.81,0,0,1-3.4-.56c-1.12-.62-2.74-2.18-1.09-3.49.5-.4-.21-1.1-.71-.7Z"
       transform="translate(0.29 0.11)"
       id="path37" />
  </g>
  <metadata
     id="metadata178">
    <rdf:RDF>
      <cc:Work
         rdf:about="">
        <dc:title>wright_fisher</dc:title>
      </cc:Work>
    </rdf:RDF>
  </metadata>
</svg>
