<?xml version="1.0" encoding="UTF-8" standalone="no"?>
<svg
   viewBox="0 0 97 197.65"
   version="1.1"
   id="svg178"
   sodipodi:docname="model_1_2.svg"
   inkscape:version="1.3.2 (1:1.3.2+202311252150+091e20ef0f)"
   xmlns:inkscape="http://www.inkscape.org/namespaces/inkscape"
   xmlns:sodipodi="http://sodipodi.sourceforge.net/DTD/sodipodi-0.dtd"
   xmlns="http://www.w3.org/2000/svg"
   xmlns:svg="http://www.w3.org/2000/svg"
   xmlns:rdf="http://www.w3.org/1999/02/22-rdf-syntax-ns#"
   xmlns:cc="http://creativecommons.org/ns#"
   xmlns:dc="http://purl.org/dc/elements/1.1/">
  <sodipodi:namedview
     id="namedview178"
     pagecolor="#ffffff"
     bordercolor="#000000"
     borderopacity="0.25"
     inkscape:showpageshadow="2"
     inkscape:pageopacity="0.0"
     inkscape:pagecheckerboard="0"
     inkscape:deskcolor="#d1d1d1"
     inkscape:zoom="2.0499291"
     inkscape:cx="15.610296"
     inkscape:cy="95.613063"
     inkscape:window-width="1223"
     inkscape:window-height="779"
     inkscape:window-x="57"
     inkscape:window-y="21"
     inkscape:window-maximized="1"
     inkscape:current-layer="Layer_1" />
  <defs
     id="defs1">
    <style
       id="style1">.cls-1{fill:#fff;}.cls-2,.cls-3,.cls-7{fill:none;}.cls-2,.cls-3,.cls-5,.cls-6,.cls-7{stroke:#231f20;stroke-linecap:round;}.cls-2,.cls-5,.cls-6,.cls-7{stroke-miterlimit:10;}.cls-3{stroke-linejoin:round;}.cls-4{fill:#231f20;}.cls-5{fill:#d4ebf9;}.cls-5,.cls-6{stroke-width:0.75px;}.cls-6{fill:red;}.cls-7{stroke-width:0.25px;}</style>
  </defs>
  <title
     id="title1">wright_fisher</title>
  <g
     id="Layer_1"
     data-name="Layer 1">
    <path
       class="cls-1"
       d="m 26.2,61.3 a 26.72,26.72 0 0 0 -5.27,0.63"
       id="path2"
       style="fill:#ffffff" />
    <path
       class="cls-2"
       d="m 25.46,61.3 a 18.35,18.35 0 0 0 -4.34,0.63"
       id="path3"
       style="fill:none;stroke:#231f20;stroke-linecap:round;stroke-miterlimit:10" />
    <path
       class="cls-1"
       d="m 25.55,103.85 -5.57,0.34"
       id="path4"
       style="fill:#ffffff" />
    <path
       class="cls-2"
       d="m 24.96,103.85 -4.25,0.34"
       id="path5"
       style="fill:none;stroke:#231f20;stroke-linecap:round;stroke-miterlimit:10" />
    <path
       class="cls-1"
       d="m 26.2,124 a 32.26,32.26 0 0 0 -6.12,0.63"
       id="path6"
       style="fill:#ffffff" />
    <path
       class="cls-2"
       d="m 25.46,124 a 19,19 0 0 0 -4.67,0.63"
       id="path7"
       style="fill:none;stroke:#231f20;stroke-linecap:round;stroke-miterlimit:10" />
    <path
       class="cls-3"
       d="m 16.63,62.5 a 16.24,16.24 0 0 0 2.27,-2.39 c 0.13,-0.18 0.12,-0.53 -0.12,-0.47 0,1.31 0,2.61 -0.07,3.92 a 2.07,2.07 0 0 1 -0.29,1.22 1.08,1.08 0 0 1 -1.29,0.35 20.47,20.47 0 0 0 2.93,-0.14"
       id="path9"
       style="fill:none;stroke:#231f20;stroke-linecap:round;stroke-linejoin:round" />
    <path
       class="cls-3"
       d="m 16.65,81.34 a 3.51,3.51 0 0 1 0.23,-1.61 1.64,1.64 0 0 1 1.71,0.25 2.34,2.34 0 0 1 -0.07,2.33 10.31,10.31 0 0 1 -1.64,2.55 6.87,6.87 0 0 1 3.37,0.07"
       id="path10"
       style="fill:none;stroke:#231f20;stroke-linecap:round;stroke-linejoin:round" />
    <path
       class="cls-3"
       d="m 16.52,101.82 a 3.31,3.31 0 0 1 1.47,-0.71 1.49,1.49 0 0 1 -1,1.81 2.27,2.27 0 0 1 1.12,-0.28 1,1 0 0 1 0.87,0.77 1.49,1.49 0 0 1 -0.18,1 1.86,1.86 0 0 1 -3.05,0.49"
       id="path11"
       style="fill:none;stroke:#231f20;stroke-linecap:round;stroke-linejoin:round" />
    <path
       class="cls-3"
       d="m 19.02,121.84 a 18,18 0 0 0 0.16,6"
       id="path12"
       style="fill:none;stroke:#231f20;stroke-linecap:round;stroke-linejoin:round" />
    <path
       class="cls-3"
       d="m 18.83,124.51 a 1.24,1.24 0 0 0 0.22,-0.58"
       id="path13"
       style="fill:none;stroke:#231f20;stroke-linecap:round;stroke-linejoin:round" />
    <path
       class="cls-3"
       d="m 18.29,124.75 a 0.86,0.86 0 0 0 0.54,-0.24"
       id="path14"
       style="fill:none;stroke:#231f20;stroke-linecap:round;stroke-linejoin:round" />
    <path
       class="cls-3"
       d="m 16.29,124.36 a 2.28,2.28 0 0 0 2,0.39"
       id="path15"
       style="fill:none;stroke:#231f20;stroke-linecap:round;stroke-linejoin:round" />
    <path
       class="cls-3"
       d="m 16.14,122.3 a 1.55,1.55 0 0 0 0.19,2.06"
       id="path16"
       style="fill:none;stroke:#231f20;stroke-linecap:round;stroke-linejoin:round" />
    <path
       class="cls-2"
       d="m 24.96,82.5 a 22.42,22.42 0 0 1 -4.17,0.34"
       id="path17"
       style="fill:none;stroke:#231f20;stroke-linecap:round;stroke-miterlimit:10" />
    <path
       class="cls-1"
       d="m 26.29,143.11 a 28.39,28.39 0 0 0 -5.6,0.68"
       id="path18"
       style="fill:#ffffff" />
    <path
       class="cls-2"
       d="m 25.55,143.11 a 16.91,16.91 0 0 0 -4.28,0.68"
       id="path19"
       style="fill:none;stroke:#231f20;stroke-linecap:round;stroke-miterlimit:10" />
    <path
       class="cls-3"
       d="m 17.43,142.72 a 0.27,0.27 0 0 0 -0.13,0.46 1.18,1.18 0 0 1 1.46,-0.18 1.28,1.28 0 0 1 0.5,1.43 2.33,2.33 0 0 1 -1.65,1.27 1.25,1.25 0 0 1 -0.71,0.09 0.47,0.47 0 0 1 -0.33,-0.58"
       id="path20"
       style="fill:none;stroke:#231f20;stroke-linecap:round;stroke-linejoin:round" />
    <path
       class="cls-3"
       d="m 17.29,142.88 a 4.32,4.32 0 0 1 0.2,-2 l 3,-0.19"
       id="path21"
       style="fill:none;stroke:#231f20;stroke-linecap:round;stroke-linejoin:round" />
    <path
       class="cls-1"
       d="m 26.29,164.11 a 28.39,28.39 0 0 0 -5.6,0.68"
       id="path131"
       style="fill:#ffffff" />
    <path
       class="cls-2"
       d="m 25.55,164.11 a 16.91,16.91 0 0 0 -4.28,0.68"
       id="path132"
       style="fill:none;stroke:#231f20;stroke-linecap:round;stroke-miterlimit:10" />
    <path
       class="cls-1"
       d="m 26.29,185.11 a 28.39,28.39 0 0 0 -5.6,0.68"
       id="path141"
       style="fill:#ffffff" />
    <path
       class="cls-2"
       d="m 25.55,185.11 a 16.91,16.91 0 0 0 -4.28,0.68"
       id="path142"
       style="fill:none;stroke:#231f20;stroke-linecap:round;stroke-miterlimit:10" />
    <path
       class="cls-4"
       d="m 20.15,162.11 a 2,2 0 0 0 -3.62,-0.2 c -0.66,1.48 -0.84,4.64 0.73,5.66 1.3,0.84 3.49,-0.57 3.19,-2.1 -0.3,-1.53 -2.86,-2.24 -3.78,-0.83 -0.35,0.54 0.51,1 0.86,0.5 a 1.22,1.22 0 0 1 1.42,-0.1 0.92,0.92 0 0 1 -0.06,1.53 c -1,0.6 -1.61,-0.42 -1.74,-1.32 a 6,6 0 0 1 0,-1.64 5.69,5.69 0 0 1 0.13,-0.81 c 0.16,-0.46 1.36,-2.16 1.88,-0.43 0.18,0.62 1.15,0.35 1,-0.26 z"
       id="path151"
       style="fill:#231f20" />
    <path
       class="cls-4"
       d="m 16.6,183.61 a 28.52,28.52 0 0 1 3.33,-0.13 l -0.43,-0.75 a 8.92,8.92 0 0 0 -1.83,6.07 c 0.05,0.64 1.05,0.64 1,0 a 8.13,8.13 0 0 1 1.69,-5.57 c 0.24,-0.32 -0.08,-0.74 -0.43,-0.75 a 28.52,28.52 0 0 0 -3.33,0.13 c -0.63,0.06 -0.64,1.06 0,1 z"
       id="path152"
       style="fill:#231f20" />
    <path
       class="cls-4"
       d="m 17.13,187.01 a 21.62,21.62 0 0 1 2.4,-0.22 c 0.65,0 0.65,-1 0,-1 a 23.69,23.69 0 0 0 -2.66,0.25 c -0.64,0.1 -0.37,1.06 0.26,1 z"
       id="path153"
       style="fill:#231f20" />
  </g>
  <metadata
     id="metadata178">
    <rdf:RDF>
      <cc:Work
         rdf:about="">
        <dc:title>wright_fisher</dc:title>
      </cc:Work>
    </rdf:RDF>
  </metadata>
</svg>
