<?xml version="1.0" encoding="UTF-8" standalone="no"?>
<svg
   viewBox="0 0 97 197.65"
   version="1.1"
   id="svg178"
   sodipodi:docname="model_9.svg"
   inkscape:version="1.3.2 (1:1.3.2+202311252150+091e20ef0f)"
   xmlns:inkscape="http://www.inkscape.org/namespaces/inkscape"
   xmlns:sodipodi="http://sodipodi.sourceforge.net/DTD/sodipodi-0.dtd"
   xmlns="http://www.w3.org/2000/svg"
   xmlns:svg="http://www.w3.org/2000/svg"
   xmlns:rdf="http://www.w3.org/1999/02/22-rdf-syntax-ns#"
   xmlns:cc="http://creativecommons.org/ns#"
   xmlns:dc="http://purl.org/dc/elements/1.1/">
  <sodipodi:namedview
     id="namedview178"
     pagecolor="#ffffff"
     bordercolor="#000000"
     borderopacity="0.25"
     inkscape:showpageshadow="2"
     inkscape:pageopacity="0.0"
     inkscape:pagecheckerboard="0"
     inkscape:deskcolor="#d1d1d1"
     inkscape:zoom="3.0058525"
     inkscape:cx="86.165239"
     inkscape:cy="117.77025"
     inkscape:window-width="1223"
     inkscape:window-height="779"
     inkscape:window-x="57"
     inkscape:window-y="21"
     inkscape:window-maximized="1"
     inkscape:current-layer="Layer_1" />
  <defs
     id="defs1">
    <style
       id="style1">.cls-1{fill:#fff;}.cls-2,.cls-3,.cls-7{fill:none;}.cls-2,.cls-3,.cls-5,.cls-6,.cls-7{stroke:#231f20;stroke-linecap:round;}.cls-2,.cls-5,.cls-6,.cls-7{stroke-miterlimit:10;}.cls-3{stroke-linejoin:round;}.cls-4{fill:#231f20;}.cls-5{fill:#d4ebf9;}.cls-5,.cls-6{stroke-width:0.75px;}.cls-6{fill:red;}.cls-7{stroke-width:0.25px;}</style>
  </defs>
  <title
     id="title1">wright_fisher</title>
  <g
     id="Layer_1"
     data-name="Layer 1">
    <g
       id="Layer_3"
       data-name="Layer 3"
       style="stroke-width:2;stroke-dasharray:none;fill:none;stroke:#001976;stroke-opacity:1">
      <path
         class="cls-2"
         d="m 39.77,40.56 c -2.21,2 -2.5,3 -2.27,3.66 0.31,0.86 1.55,0.68 2.67,2.11 0.68,0.86 0.42,1.17 1.27,2.39 0.85,1.22 1.17,1 1.79,2 0.62,1 0.47,1.32 1.1,3.8 0.22,0.89 0.46,1.82 0.86,3 0.51,1.49 0.84,2 1.58,4.09 0.6,1.71 0.6,2 0.57,2.21 -0.15,1.24 -1.1,1.56 -1.26,2.95 a 3.48,3.48 0 0 0 0.28,1.83 C 47,70 48.3,69.73 49,71.08 c 0.6,1.1 -0.05,1.64 0.56,2.39 0.61,0.75 1.83,0.39 3.52,1.12 0.84,0.37 0.79,0.58 2.39,1.83 3.13,2.43 4.53,2.58 5.09,4.22 0.25,0.71 0,0.58 0.21,1.92 a 15,15 0 0 0 1.9,4.69 c 1,1.93 1.51,2.33 1.41,3.23 A 4.43,4.43 0 0 1 63,92.59 21.38,21.38 0 0 1 60.7,95 c -1.34,1.41 -1.15,1.51 -2.53,3 -1,1 -1.1,1 -2.11,2.11 a 7.88,7.88 0 0 0 -1.82,2.4 c -0.32,0.9 0,1 -0.15,2.94 -0.13,1.62 -0.23,2.71 -1,3.23 -0.77,0.52 -1.28,0.1 -1.58,0.54 -0.46,0.69 0.93,1.72 0.6,3 -0.33,1.28 -1.93,1.71 -2,1.74 -1.06,0.32 -1.45,-0.18 -2.22,0.23 a 2.54,2.54 0 0 0 -1.27,2.25 c 0,1.14 1,1.36 1,2.25 -0.08,1.06 -1.53,1.22 -2.11,2.53 -0.17,0.37 -0.41,1.17 0.26,3.11 1.28,3.72 4.19,6.59 5.78,8.14 1.17,1.13 1.91,1.7 2.39,3 0.54,1.4 0.22,2.28 1,3 0.78,0.72 1.69,0 2.88,0.72 1,0.58 1.38,1.67 2.06,3.73 a 6.45,6.45 0 0 1 0.54,3 c -0.17,1.41 -0.85,1.48 -0.84,2.53 0,1.47 1.32,1.66 1.83,3.66 a 4.66,4.66 0 0 1 -0.14,2.95 c -0.19,0.43 -0.33,0.53 -1.69,2 -1.89,2 -1.77,2 -2.39,2.53 -1.19,1.05 -1.45,1 -1.91,1.66 a 5,5 0 0 0 -0.73,2.6 5.86,5.86 0 0 0 0.87,3.81 c 0.6,0.85 1.41,1.3 3,2.2 0.49,0.27 1,0.5 2,1 a 14.75,14.75 0 0 1 2.11,1 3.62,3.62 0 0 1 1.41,3 c -0.12,1.07 -0.86,1.14 -1,2.25 a 4,4 0 0 0 1,2.74 c 1.07,1.45 1.92,1.05 2.55,2.32 0.34,0.69 0.21,1.06 0.81,2.57 0.19,0.47 0.37,0.85 0.49,1.1"
         transform="translate(0.29,0.11)"
         id="path178"
         style="fill:none;stroke:#001976;stroke-linecap:round;stroke-miterlimit:10;stroke-width:2;stroke-dasharray:none;stroke-opacity:1" />
    </g>
  </g>
  <metadata
     id="metadata178">
    <rdf:RDF>
      <cc:Work
         rdf:about="">
        <dc:title>wright_fisher</dc:title>
      </cc:Work>
    </rdf:RDF>
  </metadata>
</svg>
