<?xml version="1.0" encoding="UTF-8" standalone="no"?>
<svg
   viewBox="0 0 97 197.65"
   version="1.1"
   id="svg178"
   sodipodi:docname="model_6.svg"
   inkscape:version="1.3.2 (1:1.3.2+202311252150+091e20ef0f)"
   xmlns:inkscape="http://www.inkscape.org/namespaces/inkscape"
   xmlns:sodipodi="http://sodipodi.sourceforge.net/DTD/sodipodi-0.dtd"
   xmlns="http://www.w3.org/2000/svg"
   xmlns:svg="http://www.w3.org/2000/svg"
   xmlns:rdf="http://www.w3.org/1999/02/22-rdf-syntax-ns#"
   xmlns:cc="http://creativecommons.org/ns#"
   xmlns:dc="http://purl.org/dc/elements/1.1/">
  <sodipodi:namedview
     id="namedview178"
     pagecolor="#ffffff"
     bordercolor="#000000"
     borderopacity="0.25"
     inkscape:showpageshadow="2"
     inkscape:pageopacity="0.0"
     inkscape:pagecheckerboard="0"
     inkscape:deskcolor="#d1d1d1"
     inkscape:zoom="4.7077735"
     inkscape:cx="51.191928"
     inkscape:cy="36.535318"
     inkscape:window-width="1223"
     inkscape:window-height="779"
     inkscape:window-x="57"
     inkscape:window-y="21"
     inkscape:window-maximized="1"
     inkscape:current-layer="Layer_1" />
  <defs
     id="defs1">
    <style
       id="style1">.cls-1{fill:#fff;}.cls-2,.cls-3,.cls-7{fill:none;}.cls-2,.cls-3,.cls-5,.cls-6,.cls-7{stroke:#231f20;stroke-linecap:round;}.cls-2,.cls-5,.cls-6,.cls-7{stroke-miterlimit:10;}.cls-3{stroke-linejoin:round;}.cls-4{fill:#231f20;}.cls-5{fill:#d4ebf9;}.cls-5,.cls-6{stroke-width:0.75px;}.cls-6{fill:red;}.cls-7{stroke-width:0.25px;}</style>
  </defs>
  <title
     id="title1">wright_fisher</title>
  <g
     id="Layer_1"
     data-name="Layer 1">
    <path
       class="cls-4"
       d="M81.42.53a66.54,66.54,0,0,0,3.27,10.71c.26.59,1.12.08.87-.51A65.72,65.72,0,0,1,82.38.27c-.15-.63-1.12-.36-1,.26Z"
       transform="translate(0.29 0.11)"
       id="path59" />
    <path
       class="cls-4"
       d="M85.15.28C84.32,4,82.44,7.52,81,11c-.25.59.71.85,1,.26,1.46-3.47,3.35-7,4.17-10.7.14-.63-.82-.9-1-.27Z"
       transform="translate(0.29 0.11)"
       id="path60" />
    <path
       class="cls-4"
       d="M86.57.15c-.87,1.89-.66,4.3-.67,6.34a7.9,7.9,0,0,0,1.59,5.34c.41.5,1.11-.22.71-.71-1.27-1.54-1.33-3.36-1.29-5.27,0-1.6-.16-3.72.52-5.2.27-.58-.6-1.09-.86-.5Z"
       transform="translate(0.29 0.11)"
       id="path61" />
    <path
       class="cls-4"
       d="M89.55.61c-.31,3.19-.78,6.77-.32,10,.2,1.41,1,1.72,2.36,1.41.63-.13.36-1.1-.27-1-1.73.38-1.14-4.14-1.12-5,0-1.8.18-3.59.35-5.39.06-.64-.94-.63-1,0Z"
       transform="translate(0.29 0.11)"
       id="path62" />
    <path
       class="cls-4"
       d="M87.94,6.3A16.2,16.2,0,0,1,90,6l.9,0h.45c.38.07.4,0,.05-.19l.13-.49-.06.08c-.41.48.29,1.19.71.7S92.15,5,91.53,5a15.19,15.19,0,0,0-3.86.37c-.63.13-.36,1.1.27,1Z"
       transform="translate(0.29 0.11)"
       id="path63" />
    <path
       class="cls-4"
       d="M92.24,8.18a38.88,38.88,0,0,1,.09,4.32c0,.64,1,.64,1,0a38.88,38.88,0,0,0-.09-4.32c0-.64-1.06-.65-1,0Z"
       transform="translate(0.29 0.11)"
       id="path64" />
    <path
       class="cls-4"
       d="M94.72,10.38l.16-.34L94,9.65a3.14,3.14,0,0,1-.9,1.2.51.51,0,0,0,.1.79,6.46,6.46,0,0,1,1.19.82c.47.43,1.18-.28.7-.71a7.49,7.49,0,0,0-1.38-1l.1.79a4.11,4.11,0,0,0,1.15-1.64c.21-.52-.67-.89-.91-.39l-.16.34c-.28.58.58,1.09.86.51Z"
       transform="translate(0.29 0.11)"
       id="path65" />
    <path
       class="cls-4"
       d="M94.53.65A12.87,12.87,0,0,1,94.7,11c-.24.6.73.86,1,.27A13.89,13.89,0,0,0,95.4.15c-.27-.59-1.13-.08-.87.5Z"
       transform="translate(0.29 0.11)"
       id="path66" />
    <path
       class="cls-4"
       d="M67.52,4c1.31-.68,1.84-.42,1.62.79l-.2,1a8.22,8.22,0,0,1-1.42,2.51,24.62,24.62,0,0,0-2.13,3c-.16.3,0,.8.43.75a30.87,30.87,0,0,1,5.52-.2c.65,0,.65-1,0-1a30.87,30.87,0,0,0-5.52.2l.43.75c1.41-2.6,5.65-6.15,3.29-9.48-1.57-2.21-4.06,0-2.88,2.11.31.56,1.18.06.86-.51Z"
       transform="translate(0.29 0.11)"
       id="path67" />
    <path
       class="cls-4"
       d="M72,1.54c.11,3.31.18,6.62.16,9.93a.5.5,0,0,0,1,0c0-3.31,0-6.62-.16-9.93,0-.64-1-.65-1,0Z"
       transform="translate(0.29 0.11)"
       id="path68" />
    <path
       class="cls-4"
       d="M72.37,1.1A110.9,110.9,0,0,0,77.1,11.73c.24.46.91.21.93-.26.18-3.55.19-7.3.07-10.86,0-.64-1-.64-1,0,.12,3.56.11,7.31-.07,10.86l.94-.25A110.87,110.87,0,0,1,73.33.84c-.23-.6-1.2-.34-1,.26Z"
       transform="translate(0.29 0.11)"
       id="path69" />
    <path
       class="cls-4"
       d="M80.45,6.73a.5.5,0,0,0,0-1,.5.5,0,0,0,0,1Z"
       transform="translate(0.29 0.11)"
       id="path70" />
    <path
       class="cls-4"
       d="M80.89,6.49l.22-.41c.22-.4-.26-1-.68-.68a1.34,1.34,0,0,0-.5.58.5.5,0,0,0,.56.73c.57-.17.92-1.09.21-1.35a.81.81,0,0,0-1,1,.5.5,0,0,0,1-.26l-.21.23L80.09,6l.13-.23.57.73a.4.4,0,0,1,.14-.22l-.68-.68L80,6c-.31.56.55,1.07.87.51Z"
       transform="translate(0.29 0.11)"
       id="path71" />
  </g>
  <metadata
     id="metadata178">
    <rdf:RDF>
      <cc:Work
         rdf:about="">
        <dc:title>wright_fisher</dc:title>
      </cc:Work>
    </rdf:RDF>
  </metadata>
</svg>
