<?xml version="1.0" encoding="UTF-8" standalone="no"?>
<svg
   width="302.4pt"
   height="241.92pt"
   viewBox="0 0 302.4 241.92"
   version="1.1"
   id="svg455161"
   sodipodi:docname="anc_const.svg"
   inkscape:version="1.2.2 (1:1.2.2+202212051552+b0a8486541)"
   xmlns:inkscape="http://www.inkscape.org/namespaces/inkscape"
   xmlns:sodipodi="http://sodipodi.sourceforge.net/DTD/sodipodi-0.dtd"
   xmlns="http://www.w3.org/2000/svg"
   xmlns:svg="http://www.w3.org/2000/svg"
   xmlns:rdf="http://www.w3.org/1999/02/22-rdf-syntax-ns#"
   xmlns:cc="http://creativecommons.org/ns#"
   xmlns:dc="http://purl.org/dc/elements/1.1/">
  <sodipodi:namedview
     id="namedview455163"
     pagecolor="#ffffff"
     bordercolor="#000000"
     borderopacity="0.25"
     inkscape:showpageshadow="2"
     inkscape:pageopacity="0.0"
     inkscape:pagecheckerboard="0"
     inkscape:deskcolor="#d1d1d1"
     inkscape:document-units="pt"
     showgrid="false"
     inkscape:zoom="3.394851"
     inkscape:cx="190.14089"
     inkscape:cy="169.07959"
     inkscape:window-width="1223"
     inkscape:window-height="779"
     inkscape:window-x="57"
     inkscape:window-y="21"
     inkscape:window-maximized="1"
     inkscape:current-layer="patch_6" />
  <metadata
     id="metadata454779">
    <rdf:RDF>
      <cc:Work>
        <dc:type
           rdf:resource="http://purl.org/dc/dcmitype/StillImage" />
        <dc:date>2023-03-05T14:52:02.840321</dc:date>
        <dc:format>image/svg+xml</dc:format>
        <dc:creator>
          <cc:Agent>
            <dc:title>Matplotlib v3.5.0, https://matplotlib.org/</dc:title>
          </cc:Agent>
        </dc:creator>
      </cc:Work>
    </rdf:RDF>
  </metadata>
  <defs
     id="defs454783">
    <style
       type="text/css"
       id="style454781">*{stroke-linejoin: round; stroke-linecap: butt}</style>
    <clipPath
       id="p9180e4344f">
      <rect
         x="56.928123"
         y="14.599219"
         width="234.67188"
         height="203.34265"
         id="rect493071" />
    </clipPath>
    <clipPath
       id="clipPath502533">
      <rect
         x="56.928123"
         y="14.599219"
         width="234.67188"
         height="203.34265"
         id="rect502531" />
    </clipPath>
    <clipPath
       id="clipPath502537">
      <rect
         x="56.928123"
         y="14.599219"
         width="234.67188"
         height="203.34265"
         id="rect502535" />
    </clipPath>
    <clipPath
       id="clipPath502541">
      <rect
         x="56.928123"
         y="14.599219"
         width="234.67188"
         height="203.34265"
         id="rect502539" />
    </clipPath>
    <clipPath
       id="clipPath502545">
      <rect
         x="56.928123"
         y="14.599219"
         width="234.67188"
         height="203.34265"
         id="rect502543" />
    </clipPath>
    <clipPath
       id="clipPath502549">
      <rect
         x="56.928123"
         y="14.599219"
         width="234.67188"
         height="203.34265"
         id="rect502547" />
    </clipPath>
    <clipPath
       id="clipPath502553">
      <rect
         x="56.928123"
         y="14.599219"
         width="234.67188"
         height="203.34265"
         id="rect502551" />
    </clipPath>
    <clipPath
       id="clipPath502557">
      <rect
         x="56.928123"
         y="14.599219"
         width="234.67188"
         height="203.34265"
         id="rect502555" />
    </clipPath>
  </defs>
  <g
     id="figure_1">
    <g
       id="axes_1">
      <g
         id="patch_3">
        <path
           d="M 168.479785 14.599219  L 168.479785 55.26775  L 122.205565 55.26775  L 122.205565 127.567361  M 180.04834 14.599219  L 180.04834 55.26775  L 226.32256 55.26775  L 226.32256 127.567361  "
           clip-path="url(#pe939dac762)"
           style="fill: none; stroke: #1f77b4; stroke-linejoin: miter"
           id="path454791" />
      </g>
      <g
         id="PolyCollection_1">
        <path
           d="M 180.04834 14.599219  L 168.479785 14.599219  L 168.479785 55.26775  L 122.205565 55.26775  L 122.205565 127.567361  L 226.32256 127.567361  L 226.32256 127.567361  L 226.32256 55.26775  L 180.04834 55.26775  L 180.04834 14.599219  z "
           clip-path="url(#pe939dac762)"
           style="fill: #1f77b4; fill-opacity: 0.5"
           id="path454794" />
      </g>
      <g
         id="patch_6">
        <g
           id="patch_7" />
        <path
           d="m 120.20456,127.56736 -1,-0.0314 -1,-0.0369 -1,-0.0977 -1,-0.0325 -1,-0.0736 -1,-0.0386 -1,-0.0354 -1,-0.0576 -1,-0.0704 -1,-0.052 -1,-0.0591 -1,-0.0883 -1,-0.0461 -1,-0.0424 -1,-0.0305 -1,-0.026 -1,-0.0212 -1,-0.0543 -1,-0.0279 -1,-0.0297 -1.000004,-0.0254 -1.064199,-0.0112"
           clip-path="url(#p9180e4344f)"
           style="fill:none;stroke:#ffffff;stroke-width:3;stroke-linecap:round;stroke-linejoin:round"
           id="path493024"
           transform="translate(5.0000004e-7,-1.9999124e-5)" />
        <path
           d="m 120.20456,127.56736 -1,-0.0314 -1,-0.0369 -1,-0.0977 -1,-0.0325 -1,-0.0736 -1,-0.0386 -1,-0.0354 -1,-0.0576 -1,-0.0704 -1,-0.052 -1,-0.0591 -1,-0.0883 -1,-0.0461 -1,-0.0424 -1,-0.0305 -1,-0.026 -1,-0.0212 -1,-0.0543 -1,-0.0279 -1,-0.0297 -1.000004,-0.0254 -1.064199,-0.0112"
           clip-path="url(#p9180e4344f)"
           style="fill:none;stroke:#1f77b4;stroke-linecap:round;stroke-linejoin:round"
           id="path493026"
           transform="translate(5.0000004e-7,-1.9999124e-5)" />
        <path
           d="m 102.14036,129.56736 -0.88037,-0.47533 -0.87791,-0.48025 -0.850712,-0.53465 -1.302175,-0.68744 0.927353,-0.026 0.911674,-0.41272 0.91027,-0.41554 1.34249,-0.6068 -0.6549,0.63875 -0.052,1 -0.0591,2 z"
           clip-path="url(#p9180e4344f)"
           style="fill:#ffffff;stroke:#ffffff;stroke-width:3;stroke-linecap:round;stroke-linejoin:round"
           id="path493028"
           transform="translate(5.0000004e-7,-1.9999124e-5)" />
        <path
           d="m 102.14036,129.56736 -0.88037,-0.47533 -0.87791,-0.48025 -0.850712,-0.53465 -1.302175,-0.68744 0.927353,-0.026 0.911674,-0.41272 0.91027,-0.41554 1.34249,-0.6068 -0.6549,0.63875 -0.052,1 -0.0591,2 z"
           clip-path="url(#p9180e4344f)"
           style="fill:#ffffff;stroke:#1f77b4;stroke-linecap:round;stroke-linejoin:round"
           id="path493030"
           transform="translate(5.0000004e-7,-1.9999124e-5)" />
        <path
           d="m 228.32421,127.56736 1,0.0314 1,0.0369 1,0.0977 1,0.0325 1,0.0736 1,0.0386 1,0.0354 1,0.0576 1,0.0704 1,0.052 1,0.0591 1,0.0883 1,0.0462 1,0.0424 1,0.0305 1,0.026 1,0.0212 1,0.0543 1,0.0279 1,0.0297 1,0.0254 1,0.0112 1.799,0.0101"
           clip-path="url(#p9180e4344f)"
           style="fill:none;stroke:#ffffff;stroke-width:3;stroke-linecap:round;stroke-linejoin:round"
           id="path493032"
           transform="translate(5.0000004e-7,-1.9999124e-5)" />
        <path
           d="m 228.32421,127.56736 1,0.0314 1,0.0369 1,0.0977 1,0.0325 1,0.0736 1,0.0386 1,0.0354 1,0.0576 1,0.0704 1,0.052 1,0.0591 1,0.0883 1,0.0462 1,0.0424 1,0.0305 1,0.026 1,0.0212 1,0.0543 1,0.0279 1,0.0297 1,0.0254 1,0.0112 1.799,0.0101"
           clip-path="url(#p9180e4344f)"
           style="fill:none;stroke:#1f77b4;stroke-linecap:round;stroke-linejoin:round"
           id="path493034"
           transform="translate(5.0000004e-7,-1.9999124e-5)" />
        <path
           d="m 248.12321,125.56736 0.88037,0.47533 0.87791,0.48026 0.85071,0.53464 1.30217,0.68745 -0.92735,0.026 -0.91167,0.41272 -0.91027,0.41554 -1.34249,0.6068 0.6549,-0.63875 0.052,-1 0.0591,-2 z"
           clip-path="url(#p9180e4344f)"
           style="fill:#ffffff;stroke:#ffffff;stroke-width:3;stroke-linecap:round;stroke-linejoin:round"
           id="path493036"
           transform="translate(5.0000004e-7,-1.9999124e-5)" />
        <path
           d="m 248.12321,125.56736 0.88037,0.47533 0.87791,0.48026 0.85071,0.53464 1.30217,0.68745 -0.92735,0.026 -0.91167,0.41272 -0.91027,0.41554 -1.34249,0.6068 0.6549,-0.63875 0.052,-1 0.0591,-2 z"
           clip-path="url(#p9180e4344f)"
           style="fill:#ffffff;stroke:#1f77b4;stroke-linecap:round;stroke-linejoin:round"
           id="path493038"
           transform="translate(5.0000004e-7,-1.9999124e-5)" />
      </g>
      <defs
         id="defs455157">
        <clipPath
           id="pe939dac762">
          <rect
             x="56.928125"
             y="14.599219"
             width="234.671875"
             height="203.342656"
             id="rect455154" />
        </clipPath>
      </defs>
    </g>
  </g>
</svg>
