<?xml version="1.0" encoding="UTF-8" standalone="no"?>
<svg
   width="302.4pt"
   height="241.92pt"
   viewBox="0 0 302.4 241.92"
   version="1.1"
   id="svg441352"
   sodipodi:docname="anc_lin.svg"
   inkscape:version="1.2.2 (1:1.2.2+202212051552+b0a8486541)"
   xmlns:inkscape="http://www.inkscape.org/namespaces/inkscape"
   xmlns:sodipodi="http://sodipodi.sourceforge.net/DTD/sodipodi-0.dtd"
   xmlns="http://www.w3.org/2000/svg"
   xmlns:svg="http://www.w3.org/2000/svg"
   xmlns:rdf="http://www.w3.org/1999/02/22-rdf-syntax-ns#"
   xmlns:cc="http://creativecommons.org/ns#"
   xmlns:dc="http://purl.org/dc/elements/1.1/">
  <sodipodi:namedview
     id="namedview441354"
     pagecolor="#ffffff"
     bordercolor="#000000"
     borderopacity="0.25"
     inkscape:showpageshadow="2"
     inkscape:pageopacity="0.0"
     inkscape:pagecheckerboard="0"
     inkscape:deskcolor="#d1d1d1"
     inkscape:document-units="pt"
     showgrid="false"
     inkscape:zoom="2.5834094"
     inkscape:cx="258.37949"
     inkscape:cy="178.83345"
     inkscape:window-width="1223"
     inkscape:window-height="779"
     inkscape:window-x="57"
     inkscape:window-y="21"
     inkscape:window-maximized="1"
     inkscape:current-layer="axes_1" />
  <metadata
     id="metadata440970">
    <rdf:RDF>
      <cc:Work>
        <dc:type
           rdf:resource="http://purl.org/dc/dcmitype/StillImage" />
        <dc:date>2023-03-05T14:53:19.184791</dc:date>
        <dc:format>image/svg+xml</dc:format>
        <dc:creator>
          <cc:Agent>
            <dc:title>Matplotlib v3.5.0, https://matplotlib.org/</dc:title>
          </cc:Agent>
        </dc:creator>
      </cc:Work>
    </rdf:RDF>
  </metadata>
  <defs
     id="defs440974">
    <style
       type="text/css"
       id="style440972">*{stroke-linejoin: round; stroke-linecap: butt}</style>
    <clipPath
       id="p9180e4344f">
      <rect
         x="56.928123"
         y="14.599219"
         width="234.67188"
         height="203.34265"
         id="rect493071" />
    </clipPath>
    <clipPath
       id="clipPath502533">
      <rect
         x="56.928123"
         y="14.599219"
         width="234.67188"
         height="203.34265"
         id="rect502531" />
    </clipPath>
    <clipPath
       id="clipPath502537">
      <rect
         x="56.928123"
         y="14.599219"
         width="234.67188"
         height="203.34265"
         id="rect502535" />
    </clipPath>
    <clipPath
       id="clipPath502541">
      <rect
         x="56.928123"
         y="14.599219"
         width="234.67188"
         height="203.34265"
         id="rect502539" />
    </clipPath>
    <clipPath
       id="clipPath502545">
      <rect
         x="56.928123"
         y="14.599219"
         width="234.67188"
         height="203.34265"
         id="rect502543" />
    </clipPath>
    <clipPath
       id="clipPath502549">
      <rect
         x="56.928123"
         y="14.599219"
         width="234.67188"
         height="203.34265"
         id="rect502547" />
    </clipPath>
    <clipPath
       id="clipPath502553">
      <rect
         x="56.928123"
         y="14.599219"
         width="234.67188"
         height="203.34265"
         id="rect502551" />
    </clipPath>
    <clipPath
       id="clipPath502557">
      <rect
         x="56.928123"
         y="14.599219"
         width="234.67188"
         height="203.34265"
         id="rect502555" />
    </clipPath>
  </defs>
  <g
     id="figure_1">
    <g
       id="axes_1">
      <g
         id="patch_3">
        <path
           d="M 168.479785 14.599219  L 168.479785 55.26775  L 122.205565 127.567361  M 180.04834 14.599219  L 180.04834 55.26775  L 226.32256 127.567361  L 226.32256 127.567361  "
           clip-path="url(#p7895c06336)"
           style="fill: none; stroke: #1f77b4; stroke-linejoin: miter"
           id="path440982" />
      </g>
      <g
         id="PolyCollection_1">
        <path
           d="M 180.04834 14.599219  L 168.479785 14.599219  L 168.479785 55.26775  L 168.479785 55.26775  L 168.012369 55.998049  L 167.544952 56.728348  L 167.077536 57.458647  L 166.61012 58.188946  L 166.142703 58.919246  L 165.675287 59.649545  L 165.207871 60.379844  L 164.740454 61.110143  L 164.273038 61.840442  L 163.805621 62.570741  L 163.338205 63.30104  L 162.870789 64.031339  L 162.403372 64.761638  L 161.935956 65.491937  L 161.46854 66.222237  L 161.001123 66.952536  L 160.533707 67.682835  L 160.066291 68.413134  L 159.598874 69.143433  L 159.131458 69.873732  L 158.664042 70.604031  L 158.196625 71.33433  L 157.729209 72.064629  L 157.261792 72.794928  L 156.794376 73.525228  L 156.32696 74.255527  L 155.859543 74.985826  L 155.392127 75.716125  L 154.924711 76.446424  L 154.457294 77.176723  L 153.989878 77.907022  L 153.522462 78.637321  L 153.055045 79.36762  L 152.587629 80.097919  L 152.120212 80.828219  L 151.652796 81.558518  L 151.18538 82.288817  L 150.717963 83.019116  L 150.250547 83.749415  L 149.783131 84.479714  L 149.315714 85.210013  L 148.848298 85.940312  L 148.380882 86.670611  L 147.913465 87.40091  L 147.446049 88.13121  L 146.978633 88.861509  L 146.511216 89.591808  L 146.0438 90.322107  L 145.576383 91.052406  L 145.108967 91.782705  L 144.641551 92.513004  L 144.174134 93.243303  L 143.706718 93.973602  L 143.239302 94.703902  L 142.771885 95.434201  L 142.304469 96.1645  L 141.837053 96.894799  L 141.369636 97.625098  L 140.90222 98.355397  L 140.434803 99.085696  L 139.967387 99.815995  L 139.499971 100.546294  L 139.032554 101.276593  L 138.565138 102.006893  L 138.097722 102.737192  L 137.630305 103.467491  L 137.162889 104.19779  L 136.695473 104.928089  L 136.228056 105.658388  L 135.76064 106.388687  L 135.293224 107.118986  L 134.825807 107.849285  L 134.358391 108.579584  L 133.890974 109.309884  L 133.423558 110.040183  L 132.956142 110.770482  L 132.488725 111.500781  L 132.021309 112.23108  L 131.553893 112.961379  L 131.086476 113.691678  L 130.61906 114.421977  L 130.151644 115.152276  L 129.684227 115.882575  L 129.216811 116.612875  L 128.749394 117.343174  L 128.281978 118.073473  L 127.814562 118.803772  L 127.347145 119.534071  L 126.879729 120.26437  L 126.412313 120.994669  L 125.944896 121.724968  L 125.47748 122.455267  L 125.010064 123.185566  L 124.542647 123.915866  L 124.075231 124.646165  L 123.607815 125.376464  L 123.140398 126.106763  L 122.672982 126.837062  L 122.205565 127.567361  L 226.32256 127.567361  L 226.32256 127.567361  L 225.855143 126.837062  L 225.387727 126.106763  L 224.92031 125.376464  L 224.452894 124.646165  L 223.985478 123.915866  L 223.518061 123.185566  L 223.050645 122.455267  L 222.583229 121.724968  L 222.115812 120.994669  L 221.648396 120.26437  L 221.18098 119.534071  L 220.713563 118.803772  L 220.246147 118.073473  L 219.778731 117.343174  L 219.311314 116.612875  L 218.843898 115.882575  L 218.376481 115.152276  L 217.909065 114.421977  L 217.441649 113.691678  L 216.974232 112.961379  L 216.506816 112.23108  L 216.0394 111.500781  L 215.571983 110.770482  L 215.104567 110.040183  L 214.637151 109.309884  L 214.169734 108.579584  L 213.702318 107.849285  L 213.234901 107.118986  L 212.767485 106.388687  L 212.300069 105.658388  L 211.832652 104.928089  L 211.365236 104.19779  L 210.89782 103.467491  L 210.430403 102.737192  L 209.962987 102.006893  L 209.495571 101.276593  L 209.028154 100.546294  L 208.560738 99.815995  L 208.093322 99.085696  L 207.625905 98.355397  L 207.158489 97.625098  L 206.691072 96.894799  L 206.223656 96.1645  L 205.75624 95.434201  L 205.288823 94.703902  L 204.821407 93.973602  L 204.353991 93.243303  L 203.886574 92.513004  L 203.419158 91.782705  L 202.951742 91.052406  L 202.484325 90.322107  L 202.016909 89.591808  L 201.549492 88.861509  L 201.082076 88.13121  L 200.61466 87.40091  L 200.147243 86.670611  L 199.679827 85.940312  L 199.212411 85.210013  L 198.744994 84.479714  L 198.277578 83.749415  L 197.810162 83.019116  L 197.342745 82.288817  L 196.875329 81.558518  L 196.407913 80.828219  L 195.940496 80.097919  L 195.47308 79.36762  L 195.005663 78.637321  L 194.538247 77.907022  L 194.070831 77.176723  L 193.603414 76.446424  L 193.135998 75.716125  L 192.668582 74.985826  L 192.201165 74.255527  L 191.733749 73.525228  L 191.266333 72.794928  L 190.798916 72.064629  L 190.3315 71.33433  L 189.864083 70.604031  L 189.396667 69.873732  L 188.929251 69.143433  L 188.461834 68.413134  L 187.994418 67.682835  L 187.527002 66.952536  L 187.059585 66.222237  L 186.592169 65.491937  L 186.124753 64.761638  L 185.657336 64.031339  L 185.18992 63.30104  L 184.722504 62.570741  L 184.255087 61.840442  L 183.787671 61.110143  L 183.320254 60.379844  L 182.852838 59.649545  L 182.385422 58.919246  L 181.918005 58.188946  L 181.450589 57.458647  L 180.983173 56.728348  L 180.515756 55.998049  L 180.04834 55.26775  L 180.04834 55.26775  L 180.04834 14.599219  z "
           clip-path="url(#p7895c06336)"
           style="fill: #1f77b4; fill-opacity: 0.5"
           id="path440985" />
      </g>
      <defs
         id="defs441348">
        <clipPath
           id="p7895c06336">
          <rect
             x="56.928125"
             y="14.599219"
             width="234.671875"
             height="203.342656"
             id="rect441345" />
        </clipPath>
      </defs>
      <path
         d="m 120.20456,127.56736 -1,-0.0314 -1,-0.0369 -1,-0.0977 -1,-0.0325 -1,-0.0736 -1,-0.0386 -1,-0.0354 -1,-0.0576 -1,-0.0704 -1,-0.052 -1,-0.0591 -1,-0.0883 -1,-0.0461 -1,-0.0424 -1,-0.0305 -1,-0.026 -1,-0.0212 -1,-0.0543 -1,-0.0279 -1,-0.0297 -1.000004,-0.0254 -1.064199,-0.0112"
         clip-path="url(#p9180e4344f)"
         style="fill:none;stroke:#ffffff;stroke-width:3;stroke-linecap:round;stroke-linejoin:round"
         id="path493024"
         transform="translate(5.0000004e-7,-1.9999124e-5)" />
      <path
         d="m 120.20456,127.56736 -1,-0.0314 -1,-0.0369 -1,-0.0977 -1,-0.0325 -1,-0.0736 -1,-0.0386 -1,-0.0354 -1,-0.0576 -1,-0.0704 -1,-0.052 -1,-0.0591 -1,-0.0883 -1,-0.0461 -1,-0.0424 -1,-0.0305 -1,-0.026 -1,-0.0212 -1,-0.0543 -1,-0.0279 -1,-0.0297 -1.000004,-0.0254 -1.064199,-0.0112"
         clip-path="url(#p9180e4344f)"
         style="fill:none;stroke:#1f77b4;stroke-linecap:round;stroke-linejoin:round"
         id="path493026"
         transform="translate(5.0000004e-7,-1.9999124e-5)" />
      <path
         d="m 102.14036,129.56736 -0.88037,-0.47533 -0.87791,-0.48025 -0.850712,-0.53465 -1.302175,-0.68744 0.927353,-0.026 0.911674,-0.41272 0.91027,-0.41554 1.34249,-0.6068 -0.6549,0.63875 -0.052,1 -0.0591,2 z"
         clip-path="url(#p9180e4344f)"
         style="fill:#ffffff;stroke:#ffffff;stroke-width:3;stroke-linecap:round;stroke-linejoin:round"
         id="path493028"
         transform="translate(5.0000004e-7,-1.9999124e-5)" />
      <path
         d="m 102.14036,129.56736 -0.88037,-0.47533 -0.87791,-0.48025 -0.850712,-0.53465 -1.302175,-0.68744 0.927353,-0.026 0.911674,-0.41272 0.91027,-0.41554 1.34249,-0.6068 -0.6549,0.63875 -0.052,1 -0.0591,2 z"
         clip-path="url(#p9180e4344f)"
         style="fill:#ffffff;stroke:#1f77b4;stroke-linecap:round;stroke-linejoin:round"
         id="path493030"
         transform="translate(5.0000004e-7,-1.9999124e-5)" />
      <path
         d="m 228.32421,127.56736 1,0.0314 1,0.0369 1,0.0977 1,0.0325 1,0.0736 1,0.0386 1,0.0354 1,0.0576 1,0.0704 1,0.052 1,0.0591 1,0.0883 1,0.0462 1,0.0424 1,0.0305 1,0.026 1,0.0212 1,0.0543 1,0.0279 1,0.0297 1,0.0254 1,0.0112 1.799,0.0101"
         clip-path="url(#p9180e4344f)"
         style="fill:none;stroke:#ffffff;stroke-width:3;stroke-linecap:round;stroke-linejoin:round"
         id="path493032"
         transform="translate(5.0000004e-7,-1.9999124e-5)" />
      <path
         d="m 228.32421,127.56736 1,0.0314 1,0.0369 1,0.0977 1,0.0325 1,0.0736 1,0.0386 1,0.0354 1,0.0576 1,0.0704 1,0.052 1,0.0591 1,0.0883 1,0.0462 1,0.0424 1,0.0305 1,0.026 1,0.0212 1,0.0543 1,0.0279 1,0.0297 1,0.0254 1,0.0112 1.799,0.0101"
         clip-path="url(#p9180e4344f)"
         style="fill:none;stroke:#1f77b4;stroke-linecap:round;stroke-linejoin:round"
         id="path493034"
         transform="translate(5.0000004e-7,-1.9999124e-5)" />
      <path
         d="m 248.12321,125.56736 0.88037,0.47533 0.87791,0.48026 0.85071,0.53464 1.30217,0.68745 -0.92735,0.026 -0.91167,0.41272 -0.91027,0.41554 -1.34249,0.6068 0.6549,-0.63875 0.052,-1 0.0591,-2 z"
         clip-path="url(#p9180e4344f)"
         style="fill:#ffffff;stroke:#ffffff;stroke-width:3;stroke-linecap:round;stroke-linejoin:round"
         id="path493036"
         transform="translate(5.0000004e-7,-1.9999124e-5)" />
      <path
         d="m 248.12321,125.56736 0.88037,0.47533 0.87791,0.48026 0.85071,0.53464 1.30217,0.68745 -0.92735,0.026 -0.91167,0.41272 -0.91027,0.41554 -1.34249,0.6068 0.6549,-0.63875 0.052,-1 0.0591,-2 z"
         clip-path="url(#p9180e4344f)"
         style="fill:#ffffff;stroke:#1f77b4;stroke-linecap:round;stroke-linejoin:round"
         id="path493038"
         transform="translate(5.0000004e-7,-1.9999124e-5)" />
    </g>
  </g>
</svg>
