<?xml version="1.0" encoding="UTF-8" standalone="no"?>
<svg
   width="302.4pt"
   height="241.92pt"
   viewBox="0 0 302.4 241.92"
   version="1.1"
   id="svg406324"
   sodipodi:docname="anc_exp.svg"
   inkscape:version="1.2.2 (1:1.2.2+202212051552+b0a8486541)"
   xmlns:inkscape="http://www.inkscape.org/namespaces/inkscape"
   xmlns:sodipodi="http://sodipodi.sourceforge.net/DTD/sodipodi-0.dtd"
   xmlns="http://www.w3.org/2000/svg"
   xmlns:svg="http://www.w3.org/2000/svg"
   xmlns:rdf="http://www.w3.org/1999/02/22-rdf-syntax-ns#"
   xmlns:cc="http://creativecommons.org/ns#"
   xmlns:dc="http://purl.org/dc/elements/1.1/">
  <sodipodi:namedview
     id="namedview406326"
     pagecolor="#ffffff"
     bordercolor="#000000"
     borderopacity="0.25"
     inkscape:showpageshadow="2"
     inkscape:pageopacity="0.0"
     inkscape:pagecheckerboard="0"
     inkscape:deskcolor="#d1d1d1"
     inkscape:document-units="pt"
     showgrid="false"
     inkscape:zoom="2.104991"
     inkscape:cx="242.51885"
     inkscape:cy="123.51597"
     inkscape:window-width="1223"
     inkscape:window-height="779"
     inkscape:window-x="57"
     inkscape:window-y="21"
     inkscape:window-maximized="1"
     inkscape:current-layer="axes_1" />
  <metadata
     id="metadata405942">
    <rdf:RDF>
      <cc:Work>
        <dc:type
           rdf:resource="http://purl.org/dc/dcmitype/StillImage" />
        <dc:date>2023-03-05T14:53:01.653926</dc:date>
        <dc:format>image/svg+xml</dc:format>
        <dc:creator>
          <cc:Agent>
            <dc:title>Matplotlib v3.5.0, https://matplotlib.org/</dc:title>
          </cc:Agent>
        </dc:creator>
      </cc:Work>
    </rdf:RDF>
  </metadata>
  <defs
     id="defs405946">
    <style
       type="text/css"
       id="style405944">*{stroke-linejoin: round; stroke-linecap: butt}</style>
    <clipPath
       id="p9180e4344f">
      <rect
         x="56.928123"
         y="14.599219"
         width="234.67188"
         height="203.34265"
         id="rect493071" />
    </clipPath>
    <clipPath
       id="clipPath502533">
      <rect
         x="56.928123"
         y="14.599219"
         width="234.67188"
         height="203.34265"
         id="rect502531" />
    </clipPath>
    <clipPath
       id="clipPath502537">
      <rect
         x="56.928123"
         y="14.599219"
         width="234.67188"
         height="203.34265"
         id="rect502535" />
    </clipPath>
    <clipPath
       id="clipPath502541">
      <rect
         x="56.928123"
         y="14.599219"
         width="234.67188"
         height="203.34265"
         id="rect502539" />
    </clipPath>
    <clipPath
       id="clipPath502545">
      <rect
         x="56.928123"
         y="14.599219"
         width="234.67188"
         height="203.34265"
         id="rect502543" />
    </clipPath>
    <clipPath
       id="clipPath502549">
      <rect
         x="56.928123"
         y="14.599219"
         width="234.67188"
         height="203.34265"
         id="rect502547" />
    </clipPath>
    <clipPath
       id="clipPath502553">
      <rect
         x="56.928123"
         y="14.599219"
         width="234.67188"
         height="203.34265"
         id="rect502551" />
    </clipPath>
    <clipPath
       id="clipPath502557">
      <rect
         x="56.928123"
         y="14.599219"
         width="234.67188"
         height="203.34265"
         id="rect502555" />
    </clipPath>
  </defs>
  <g
     id="figure_1">
    <g
       id="axes_1">
      <g
         id="patch_3">
        <path
           d="M 168.479785 14.599219  L 168.479785 55.26775  L 167.200912 61.840442  L 165.828599 67.682835  L 164.410787 72.794928  L 162.754672 77.907022  L 161.11529 82.288817  L 159.242397 86.670611  L 157.102732 91.052406  L 155.088636 94.703902  L 152.838161 98.355397  L 150.323565 102.006893  L 147.51385 105.658388  L 144.37438 109.309884  L 141.599522 112.23108  L 138.567056 115.152276  L 135.253065 118.073473  L 131.631415 120.994669  L 127.673542 123.915866  L 123.348234 126.837062  L 122.205565 127.567361  M 180.04834 14.599219  L 180.04834 55.26775  L 181.327213 61.840442  L 182.699526 67.682835  L 184.117338 72.794928  L 185.773453 77.907022  L 187.412835 82.288817  L 189.285728 86.670611  L 191.425393 91.052406  L 193.439489 94.703902  L 195.689964 98.355397  L 198.20456 102.006893  L 201.014275 105.658388  L 204.153745 109.309884  L 206.928603 112.23108  L 209.961069 115.152276  L 213.27506 118.073473  L 216.89671 120.994669  L 220.854583 123.915866  L 225.179891 126.837062  L 226.32256 127.567361  L 226.32256 127.567361  "
           clip-path="url(#p75db4d1339)"
           style="fill: none; stroke: #1f77b4; stroke-linejoin: miter"
           id="path405954" />
      </g>
      <g
         id="PolyCollection_1">
        <path
           d="M 180.04834 14.599219  L 168.479785 14.599219  L 168.479785 55.26775  L 168.479785 55.26775  L 168.349972 55.998049  L 168.217247 56.728348  L 168.081542 57.458647  L 167.942792 58.188946  L 167.800928 58.919246  L 167.655881 59.649545  L 167.507578 60.379844  L 167.355946 61.110143  L 167.200912 61.840442  L 167.042399 62.570741  L 166.880328 63.30104  L 166.71462 64.031339  L 166.545193 64.761638  L 166.371964 65.491937  L 166.194847 66.222237  L 166.013755 66.952536  L 165.828599 67.682835  L 165.639288 68.413134  L 165.445728 69.143433  L 165.247824 69.873732  L 165.045479 70.604031  L 164.838593 71.33433  L 164.627063 72.064629  L 164.410787 72.794928  L 164.189657 73.525228  L 163.963564 74.255527  L 163.732397 74.985826  L 163.496042 75.716125  L 163.254382 76.446424  L 163.0073 77.176723  L 162.754672 77.907022  L 162.496375 78.637321  L 162.232281 79.36762  L 161.96226 80.097919  L 161.686179 80.828219  L 161.403902 81.558518  L 161.11529 82.288817  L 160.820201 83.019116  L 160.51849 83.749415  L 160.210008 84.479714  L 159.894602 85.210013  L 159.572118 85.940312  L 159.242397 86.670611  L 158.905276 87.40091  L 158.56059 88.13121  L 158.208167 88.861509  L 157.847836 89.591808  L 157.479418 90.322107  L 157.102732 91.052406  L 156.717592 91.782705  L 156.323808 92.513004  L 155.921188 93.243303  L 155.509531 93.973602  L 155.088636 94.703902  L 154.658295 95.434201  L 154.218296 96.1645  L 153.768423 96.894799  L 153.308454 97.625098  L 152.838161 98.355397  L 152.357315 99.085696  L 151.865677 99.815995  L 151.363005 100.546294  L 150.849052 101.276593  L 150.323565 102.006893  L 149.786285 102.737192  L 149.236948 103.467491  L 148.675281 104.19779  L 148.10101 104.928089  L 147.51385 105.658388  L 146.913514 106.388687  L 146.299704 107.118986  L 145.67212 107.849285  L 145.03045 108.579584  L 144.37438 109.309884  L 143.703587 110.040183  L 143.017739 110.770482  L 142.3165 111.500781  L 141.599522 112.23108  L 140.866455 112.961379  L 140.116935 113.691678  L 139.350595 114.421977  L 138.567056 115.152276  L 137.765932 115.882575  L 136.94683 116.612875  L 136.109345 117.343174  L 135.253065 118.073473  L 134.377568 118.803772  L 133.482423 119.534071  L 132.567189 120.26437  L 131.631415 120.994669  L 130.67464 121.724968  L 129.696392 122.455267  L 128.696191 123.185566  L 127.673542 123.915866  L 126.627943 124.646165  L 125.558879 125.376464  L 124.465822 126.106763  L 123.348234 126.837062  L 122.205565 127.567361  L 226.32256 127.567361  L 226.32256 127.567361  L 225.179891 126.837062  L 224.062303 126.106763  L 222.969246 125.376464  L 221.900182 124.646165  L 220.854583 123.915866  L 219.831934 123.185566  L 218.831733 122.455267  L 217.853485 121.724968  L 216.89671 120.994669  L 215.960936 120.26437  L 215.045702 119.534071  L 214.150557 118.803772  L 213.27506 118.073473  L 212.41878 117.343174  L 211.581295 116.612875  L 210.762193 115.882575  L 209.961069 115.152276  L 209.17753 114.421977  L 208.41119 113.691678  L 207.66167 112.961379  L 206.928603 112.23108  L 206.211625 111.500781  L 205.510386 110.770482  L 204.824538 110.040183  L 204.153745 109.309884  L 203.497675 108.579584  L 202.856005 107.849285  L 202.228421 107.118986  L 201.614611 106.388687  L 201.014275 105.658388  L 200.427115 104.928089  L 199.852844 104.19779  L 199.291177 103.467491  L 198.74184 102.737192  L 198.20456 102.006893  L 197.679073 101.276593  L 197.16512 100.546294  L 196.662448 99.815995  L 196.17081 99.085696  L 195.689964 98.355397  L 195.219671 97.625098  L 194.759702 96.894799  L 194.309829 96.1645  L 193.86983 95.434201  L 193.439489 94.703902  L 193.018594 93.973602  L 192.606937 93.243303  L 192.204317 92.513004  L 191.810533 91.782705  L 191.425393 91.052406  L 191.048707 90.322107  L 190.680289 89.591808  L 190.319958 88.861509  L 189.967535 88.13121  L 189.622849 87.40091  L 189.285728 86.670611  L 188.956007 85.940312  L 188.633523 85.210013  L 188.318117 84.479714  L 188.009635 83.749415  L 187.707924 83.019116  L 187.412835 82.288817  L 187.124223 81.558518  L 186.841946 80.828219  L 186.565865 80.097919  L 186.295844 79.36762  L 186.03175 78.637321  L 185.773453 77.907022  L 185.520825 77.176723  L 185.273743 76.446424  L 185.032083 75.716125  L 184.795728 74.985826  L 184.564561 74.255527  L 184.338468 73.525228  L 184.117338 72.794928  L 183.901062 72.064629  L 183.689532 71.33433  L 183.482646 70.604031  L 183.280301 69.873732  L 183.082397 69.143433  L 182.888837 68.413134  L 182.699526 67.682835  L 182.51437 66.952536  L 182.333278 66.222237  L 182.156161 65.491937  L 181.982932 64.761638  L 181.813505 64.031339  L 181.647797 63.30104  L 181.485726 62.570741  L 181.327213 61.840442  L 181.172179 61.110143  L 181.020547 60.379844  L 180.872244 59.649545  L 180.727197 58.919246  L 180.585333 58.188946  L 180.446583 57.458647  L 180.310878 56.728348  L 180.178153 55.998049  L 180.04834 55.26775  L 180.04834 55.26775  L 180.04834 14.599219  z "
           clip-path="url(#p75db4d1339)"
           style="fill: #1f77b4; fill-opacity: 0.5"
           id="path405957" />
      </g>
      <defs
         id="defs406320">
        <clipPath
           id="p75db4d1339">
          <rect
             x="56.928125"
             y="14.599219"
             width="234.671875"
             height="203.342656"
             id="rect406317" />
        </clipPath>
      </defs>
      <path
         d="m 120.20456,127.56736 -1,-0.0314 -1,-0.0369 -1,-0.0977 -1,-0.0325 -1,-0.0736 -1,-0.0386 -1,-0.0354 -1,-0.0576 -1,-0.0704 -1,-0.052 -1,-0.0591 -1,-0.0883 -1,-0.0461 -1,-0.0424 -1,-0.0305 -1,-0.026 -1,-0.0212 -1,-0.0543 -1,-0.0279 -1,-0.0297 -1.000004,-0.0254 -1.064199,-0.0112"
         clip-path="url(#p9180e4344f)"
         style="fill:none;stroke:#ffffff;stroke-width:3;stroke-linecap:round;stroke-linejoin:round"
         id="path493024"
         transform="translate(5.0000004e-7,-1.9999124e-5)" />
      <path
         d="m 120.20456,127.56736 -1,-0.0314 -1,-0.0369 -1,-0.0977 -1,-0.0325 -1,-0.0736 -1,-0.0386 -1,-0.0354 -1,-0.0576 -1,-0.0704 -1,-0.052 -1,-0.0591 -1,-0.0883 -1,-0.0461 -1,-0.0424 -1,-0.0305 -1,-0.026 -1,-0.0212 -1,-0.0543 -1,-0.0279 -1,-0.0297 -1.000004,-0.0254 -1.064199,-0.0112"
         clip-path="url(#p9180e4344f)"
         style="fill:none;stroke:#1f77b4;stroke-linecap:round;stroke-linejoin:round"
         id="path493026"
         transform="translate(5.0000004e-7,-1.9999124e-5)" />
      <path
         d="m 102.14036,129.56736 -0.88037,-0.47533 -0.87791,-0.48025 -0.850712,-0.53465 -1.302175,-0.68744 0.927353,-0.026 0.911674,-0.41272 0.91027,-0.41554 1.34249,-0.6068 -0.6549,0.63875 -0.052,1 -0.0591,2 z"
         clip-path="url(#p9180e4344f)"
         style="fill:#ffffff;stroke:#ffffff;stroke-width:3;stroke-linecap:round;stroke-linejoin:round"
         id="path493028"
         transform="translate(5.0000004e-7,-1.9999124e-5)" />
      <path
         d="m 102.14036,129.56736 -0.88037,-0.47533 -0.87791,-0.48025 -0.850712,-0.53465 -1.302175,-0.68744 0.927353,-0.026 0.911674,-0.41272 0.91027,-0.41554 1.34249,-0.6068 -0.6549,0.63875 -0.052,1 -0.0591,2 z"
         clip-path="url(#p9180e4344f)"
         style="fill:#ffffff;stroke:#1f77b4;stroke-linecap:round;stroke-linejoin:round"
         id="path493030"
         transform="translate(5.0000004e-7,-1.9999124e-5)" />
      <path
         d="m 228.32421,127.56736 1,0.0314 1,0.0369 1,0.0977 1,0.0325 1,0.0736 1,0.0386 1,0.0354 1,0.0576 1,0.0704 1,0.052 1,0.0591 1,0.0883 1,0.0462 1,0.0424 1,0.0305 1,0.026 1,0.0212 1,0.0543 1,0.0279 1,0.0297 1,0.0254 1,0.0112 1.799,0.0101"
         clip-path="url(#p9180e4344f)"
         style="fill:none;stroke:#ffffff;stroke-width:3;stroke-linecap:round;stroke-linejoin:round"
         id="path493032"
         transform="translate(5.0000004e-7,-1.9999124e-5)" />
      <path
         d="m 228.32421,127.56736 1,0.0314 1,0.0369 1,0.0977 1,0.0325 1,0.0736 1,0.0386 1,0.0354 1,0.0576 1,0.0704 1,0.052 1,0.0591 1,0.0883 1,0.0462 1,0.0424 1,0.0305 1,0.026 1,0.0212 1,0.0543 1,0.0279 1,0.0297 1,0.0254 1,0.0112 1.799,0.0101"
         clip-path="url(#p9180e4344f)"
         style="fill:none;stroke:#1f77b4;stroke-linecap:round;stroke-linejoin:round"
         id="path493034"
         transform="translate(5.0000004e-7,-1.9999124e-5)" />
      <path
         d="m 248.12321,125.56736 0.88037,0.47533 0.87791,0.48026 0.85071,0.53464 1.30217,0.68745 -0.92735,0.026 -0.91167,0.41272 -0.91027,0.41554 -1.34249,0.6068 0.6549,-0.63875 0.052,-1 0.0591,-2 z"
         clip-path="url(#p9180e4344f)"
         style="fill:#ffffff;stroke:#ffffff;stroke-width:3;stroke-linecap:round;stroke-linejoin:round"
         id="path493036"
         transform="translate(5.0000004e-7,-1.9999124e-5)" />
      <path
         d="m 248.12321,125.56736 0.88037,0.47533 0.87791,0.48026 0.85071,0.53464 1.30217,0.68745 -0.92735,0.026 -0.91167,0.41272 -0.91027,0.41554 -1.34249,0.6068 0.6549,-0.63875 0.052,-1 0.0591,-2 z"
         clip-path="url(#p9180e4344f)"
         style="fill:#ffffff;stroke:#1f77b4;stroke-linecap:round;stroke-linejoin:round"
         id="path493038"
         transform="translate(5.0000004e-7,-1.9999124e-5)" />
    </g>
  </g>
</svg>
