<?xml version="1.0" encoding="UTF-8" standalone="no"?>
<svg
   width="302.4pt"
   height="241.92pt"
   viewBox="0 0 302.4 241.92"
   version="1.1"
   id="svg469337"
   sodipodi:docname="pop1_lin.svg"
   inkscape:version="1.2.2 (1:1.2.2+202212051552+b0a8486541)"
   xmlns:inkscape="http://www.inkscape.org/namespaces/inkscape"
   xmlns:sodipodi="http://sodipodi.sourceforge.net/DTD/sodipodi-0.dtd"
   xmlns="http://www.w3.org/2000/svg"
   xmlns:svg="http://www.w3.org/2000/svg"
   xmlns:rdf="http://www.w3.org/1999/02/22-rdf-syntax-ns#"
   xmlns:cc="http://creativecommons.org/ns#"
   xmlns:dc="http://purl.org/dc/elements/1.1/">
  <sodipodi:namedview
     id="namedview469339"
     pagecolor="#ffffff"
     bordercolor="#000000"
     borderopacity="0.25"
     inkscape:showpageshadow="2"
     inkscape:pageopacity="0.0"
     inkscape:pagecheckerboard="0"
     inkscape:deskcolor="#d1d1d1"
     inkscape:document-units="pt"
     showgrid="false"
     inkscape:zoom="1.3681519"
     inkscape:cx="200.63561"
     inkscape:cy="148.37533"
     inkscape:window-width="1223"
     inkscape:window-height="779"
     inkscape:window-x="57"
     inkscape:window-y="21"
     inkscape:window-maximized="1"
     inkscape:current-layer="axes_1" />
  <metadata
     id="metadata468955">
    <rdf:RDF>
      <cc:Work>
        <dc:type
           rdf:resource="http://purl.org/dc/dcmitype/StillImage" />
        <dc:date>2023-03-05T14:54:37.486998</dc:date>
        <dc:format>image/svg+xml</dc:format>
        <dc:creator>
          <cc:Agent>
            <dc:title>Matplotlib v3.5.0, https://matplotlib.org/</dc:title>
          </cc:Agent>
        </dc:creator>
      </cc:Work>
    </rdf:RDF>
  </metadata>
  <defs
     id="defs468959">
    <style
       type="text/css"
       id="style468957">*{stroke-linejoin: round; stroke-linecap: butt}</style>
  </defs>
  <g
     id="figure_1">
    <g
       id="axes_1">
      <g
         id="patch_3" />
      <g
         id="patch_4">
        <path
           d="M 89.236768 127.567361  L 74.776074 217.941875  M 95.021045 127.567361  L 109.481739 217.941875  L 109.481739 217.941875  "
           clip-path="url(#p9180e4344f)"
           style="fill: none; stroke: #ff7f0e; stroke-linejoin: miter"
           id="path468973" />
      </g>
      <g
         id="PolyCollection_2">
        <path
           d="M 95.021045 127.567361  L 89.236768 127.567361  L 89.0907 128.480235  L 88.944632 129.393109  L 88.798565 130.305983  L 88.652497 131.218857  L 88.506429 132.13173  L 88.360362 133.044604  L 88.214294 133.957478  L 88.068227 134.870352  L 87.922159 135.783226  L 87.776091 136.6961  L 87.630024 137.608974  L 87.483956 138.521848  L 87.337889 139.434722  L 87.191821 140.347595  L 87.045753 141.260469  L 86.899686 142.173343  L 86.753618 143.086217  L 86.607551 143.999091  L 86.461483 144.911965  L 86.315415 145.824839  L 86.169348 146.737713  L 86.02328 147.650586  L 85.877212 148.56346  L 85.731145 149.476334  L 85.585077 150.389208  L 85.43901 151.302082  L 85.292942 152.214956  L 85.146874 153.12783  L 85.000807 154.040704  L 84.854739 154.953577  L 84.708672 155.866451  L 84.562604 156.779325  L 84.416536 157.692199  L 84.270469 158.605073  L 84.124401 159.517947  L 83.978333 160.430821  L 83.832266 161.343695  L 83.686198 162.256568  L 83.540131 163.169442  L 83.394063 164.082316  L 83.247995 164.99519  L 83.101928 165.908064  L 82.95586 166.820938  L 82.809793 167.733812  L 82.663725 168.646686  L 82.517657 169.559559  L 82.37159 170.472433  L 82.225522 171.385307  L 82.079455 172.298181  L 81.933387 173.211055  L 81.787319 174.123929  L 81.641252 175.036803  L 81.495184 175.949677  L 81.349116 176.862551  L 81.203049 177.775424  L 81.056981 178.688298  L 80.910914 179.601172  L 80.764846 180.514046  L 80.618778 181.42692  L 80.472711 182.339794  L 80.326643 183.252668  L 80.180576 184.165542  L 80.034508 185.078415  L 79.88844 185.991289  L 79.742373 186.904163  L 79.596305 187.817037  L 79.450237 188.729911  L 79.30417 189.642785  L 79.158102 190.555659  L 79.012035 191.468533  L 78.865967 192.381406  L 78.719899 193.29428  L 78.573832 194.207154  L 78.427764 195.120028  L 78.281697 196.032902  L 78.135629 196.945776  L 77.989561 197.85865  L 77.843494 198.771524  L 77.697426 199.684397  L 77.551359 200.597271  L 77.405291 201.510145  L 77.259223 202.423019  L 77.113156 203.335893  L 76.967088 204.248767  L 76.82102 205.161641  L 76.674953 206.074515  L 76.528885 206.987388  L 76.382818 207.900262  L 76.23675 208.813136  L 76.090682 209.72601  L 75.944615 210.638884  L 75.798547 211.551758  L 75.65248 212.464632  L 75.506412 213.377506  L 75.360344 214.290379  L 75.214277 215.203253  L 75.068209 216.116127  L 74.922142 217.029001  L 74.776074 217.941875  L 109.481739 217.941875  L 109.481739 217.941875  L 109.335671 217.029001  L 109.189603 216.116127  L 109.043536 215.203253  L 108.897468 214.290379  L 108.751401 213.377506  L 108.605333 212.464632  L 108.459265 211.551758  L 108.313198 210.638884  L 108.16713 209.72601  L 108.021062 208.813136  L 107.874995 207.900262  L 107.728927 206.987388  L 107.58286 206.074515  L 107.436792 205.161641  L 107.290724 204.248767  L 107.144657 203.335893  L 106.998589 202.423019  L 106.852522 201.510145  L 106.706454 200.597271  L 106.560386 199.684397  L 106.414319 198.771524  L 106.268251 197.85865  L 106.122184 196.945776  L 105.976116 196.032902  L 105.830048 195.120028  L 105.683981 194.207154  L 105.537913 193.29428  L 105.391845 192.381406  L 105.245778 191.468533  L 105.09971 190.555659  L 104.953643 189.642785  L 104.807575 188.729911  L 104.661507 187.817037  L 104.51544 186.904163  L 104.369372 185.991289  L 104.223305 185.078415  L 104.077237 184.165542  L 103.931169 183.252668  L 103.785102 182.339794  L 103.639034 181.42692  L 103.492966 180.514046  L 103.346899 179.601172  L 103.200831 178.688298  L 103.054764 177.775424  L 102.908696 176.862551  L 102.762628 175.949677  L 102.616561 175.036803  L 102.470493 174.123929  L 102.324426 173.211055  L 102.178358 172.298181  L 102.03229 171.385307  L 101.886223 170.472433  L 101.740155 169.559559  L 101.594088 168.646686  L 101.44802 167.733812  L 101.301952 166.820938  L 101.155885 165.908064  L 101.009817 164.99519  L 100.863749 164.082316  L 100.717682 163.169442  L 100.571614 162.256568  L 100.425547 161.343695  L 100.279479 160.430821  L 100.133411 159.517947  L 99.987344 158.605073  L 99.841276 157.692199  L 99.695209 156.779325  L 99.549141 155.866451  L 99.403073 154.953577  L 99.257006 154.040704  L 99.110938 153.12783  L 98.964871 152.214956  L 98.818803 151.302082  L 98.672735 150.389208  L 98.526668 149.476334  L 98.3806 148.56346  L 98.234532 147.650586  L 98.088465 146.737713  L 97.942397 145.824839  L 97.79633 144.911965  L 97.650262 143.999091  L 97.504194 143.086217  L 97.358127 142.173343  L 97.212059 141.260469  L 97.065992 140.347595  L 96.919924 139.434722  L 96.773856 138.521848  L 96.627789 137.608974  L 96.481721 136.6961  L 96.335653 135.783226  L 96.189586 134.870352  L 96.043518 133.957478  L 95.897451 133.044604  L 95.751383 132.13173  L 95.605315 131.218857  L 95.459248 130.305983  L 95.31318 129.393109  L 95.167113 128.480235  L 95.021045 127.567361  z "
           clip-path="url(#p9180e4344f)"
           style="fill: #ff7f0e; fill-opacity: 0.5"
           id="path468976" />
      </g>
      <defs
         id="defs469333">
        <clipPath
           id="p9180e4344f">
          <rect
             x="56.928125"
             y="14.599219"
             width="234.671875"
             height="203.342656"
             id="rect469330" />
        </clipPath>
      </defs>
    </g>
  </g>
</svg>
