<?xml version="1.0" encoding="UTF-8" standalone="no"?>
<svg
   width="302.4pt"
   height="241.92pt"
   viewBox="0 0 302.4 241.92"
   version="1.1"
   id="svg469337"
   sodipodi:docname="pop2_exp.svg"
   inkscape:version="1.2.2 (1:1.2.2+202212051552+b0a8486541)"
   xmlns:inkscape="http://www.inkscape.org/namespaces/inkscape"
   xmlns:sodipodi="http://sodipodi.sourceforge.net/DTD/sodipodi-0.dtd"
   xmlns="http://www.w3.org/2000/svg"
   xmlns:svg="http://www.w3.org/2000/svg"
   xmlns:rdf="http://www.w3.org/1999/02/22-rdf-syntax-ns#"
   xmlns:cc="http://creativecommons.org/ns#"
   xmlns:dc="http://purl.org/dc/elements/1.1/">
  <sodipodi:namedview
     id="namedview469339"
     pagecolor="#ffffff"
     bordercolor="#000000"
     borderopacity="0.25"
     inkscape:showpageshadow="2"
     inkscape:pageopacity="0.0"
     inkscape:pagecheckerboard="0"
     inkscape:deskcolor="#d1d1d1"
     inkscape:document-units="pt"
     showgrid="false"
     inkscape:zoom="1.3681519"
     inkscape:cx="200.63561"
     inkscape:cy="148.37533"
     inkscape:window-width="1223"
     inkscape:window-height="779"
     inkscape:window-x="57"
     inkscape:window-y="21"
     inkscape:window-maximized="1"
     inkscape:current-layer="axes_1" />
  <metadata
     id="metadata468955">
    <rdf:RDF>
      <cc:Work>
        <dc:type
           rdf:resource="http://purl.org/dc/dcmitype/StillImage" />
        <dc:date>2023-03-05T14:54:37.486998</dc:date>
        <dc:format>image/svg+xml</dc:format>
        <dc:creator>
          <cc:Agent>
            <dc:title>Matplotlib v3.5.0, https://matplotlib.org/</dc:title>
          </cc:Agent>
        </dc:creator>
      </cc:Work>
    </rdf:RDF>
  </metadata>
  <defs
     id="defs468959">
    <style
       type="text/css"
       id="style468957">*{stroke-linejoin: round; stroke-linecap: butt}</style>
  </defs>
  <g
     id="figure_1">
    <g
       id="axes_1">
      <g
         id="patch_3" />
      <g
         id="patch_5">
        <path
           d="M 255.242363 127.567361  L 254.69028 138.521848  L 254.033667 147.650586  L 253.229521 155.866451  L 252.287885 163.169442  L 251.237112 169.559559  L 250.12513 175.036803  L 248.773614 180.514046  L 247.427466 185.078415  L 245.843682 189.642785  L 244.377605 193.29428  L 242.707903 196.945776  L 240.806293 200.597271  L 238.640565 204.248767  L 236.174036 207.900262  L 233.364926 211.551758  L 231.004892 214.290379  L 228.403056 217.029001  L 227.477832 217.941875  M 257.556074 127.567361  L 258.108157 138.521848  L 258.76477 147.650586  L 259.568917 155.866451  L 260.510553 163.169442  L 261.561326 169.559559  L 262.673307 175.036803  L 264.024823 180.514046  L 265.370972 185.078415  L 266.954756 189.642785  L 268.420832 193.29428  L 270.090534 196.945776  L 271.992144 200.597271  L 274.157872 204.248767  L 276.624401 207.900262  L 279.433511 211.551758  L 281.793545 214.290379  L 284.395382 217.029001  L 285.320606 217.941875  L 285.320606 217.941875  "
           clip-path="url(#p9180e4344f)"
           style="fill: none; stroke: #2ca02c; stroke-linejoin: miter"
           id="path468979" />
      </g>
      <g
         id="PolyCollection_3">
        <path
           d="M 257.556074 127.567361  L 255.242363 127.567361  L 255.204131 128.480235  L 255.164636 129.393109  L 255.123835 130.305983  L 255.081686 131.218857  L 255.038143 132.13173  L 254.993162 133.044604  L 254.946695 133.957478  L 254.898691 134.870352  L 254.849101 135.783226  L 254.797873 136.6961  L 254.744951 137.608974  L 254.69028 138.521848  L 254.633803 139.434722  L 254.575459 140.347595  L 254.515187 141.260469  L 254.452923 142.173343  L 254.388601 143.086217  L 254.322154 143.999091  L 254.253511 144.911965  L 254.182599 145.824839  L 254.109343 146.737713  L 254.033667 147.650586  L 253.95549 148.56346  L 253.874729 149.476334  L 253.791299 150.389208  L 253.705112 151.302082  L 253.616076 152.214956  L 253.524098 153.12783  L 253.42908 154.040704  L 253.330922 154.953577  L 253.229521 155.866451  L 253.124768 156.779325  L 253.016553 157.692199  L 252.904762 158.605073  L 252.789276 159.517947  L 252.669974 160.430821  L 252.546729 161.343695  L 252.419411 162.256568  L 252.287885 163.169442  L 252.152012 164.082316  L 252.01165 164.99519  L 251.866648 165.908064  L 251.716855 166.820938  L 251.562111 167.733812  L 251.402253 168.646686  L 251.237112 169.559559  L 251.066513 170.472433  L 250.890277 171.385307  L 250.708216 172.298181  L 250.520138 173.211055  L 250.325845 174.123929  L 250.12513 175.036803  L 249.917783 175.949677  L 249.703583 176.862551  L 249.482304 177.775424  L 249.253712 178.688298  L 249.017565 179.601172  L 248.773614 180.514046  L 248.521602 181.42692  L 248.26126 182.339794  L 247.992315 183.252668  L 247.714481 184.165542  L 247.427466 185.078415  L 247.130965 185.991289  L 246.824666 186.904163  L 246.508243 187.817037  L 246.181364 188.729911  L 245.843682 189.642785  L 245.49484 190.555659  L 245.134469 191.468533  L 244.762189 192.381406  L 244.377605 193.29428  L 243.980312 194.207154  L 243.569889 195.120028  L 243.145902 196.032902  L 242.707903 196.945776  L 242.255429 197.85865  L 241.788002 198.771524  L 241.305127 199.684397  L 240.806293 200.597271  L 240.290974 201.510145  L 239.758625 202.423019  L 239.208683 203.335893  L 238.640565 204.248767  L 238.053673 205.161641  L 237.447385 206.074515  L 236.82106 206.987388  L 236.174036 207.900262  L 235.505629 208.813136  L 234.815133 209.72601  L 234.101816 210.638884  L 233.364926 211.551758  L 232.603683 212.464632  L 231.817282 213.377506  L 231.004892 214.290379  L 230.165654 215.203253  L 229.298681 216.116127  L 228.403056 217.029001  L 227.477832 217.941875  L 285.320606 217.941875  L 285.320606 217.941875  L 284.395382 217.029001  L 283.499756 216.116127  L 282.632783 215.203253  L 281.793545 214.290379  L 280.981155 213.377506  L 280.194754 212.464632  L 279.433511 211.551758  L 278.696621 210.638884  L 277.983305 209.72601  L 277.292808 208.813136  L 276.624401 207.900262  L 275.977378 206.987388  L 275.351053 206.074515  L 274.744764 205.161641  L 274.157872 204.248767  L 273.589755 203.335893  L 273.039812 202.423019  L 272.507463 201.510145  L 271.992144 200.597271  L 271.493311 199.684397  L 271.010436 198.771524  L 270.543008 197.85865  L 270.090534 196.945776  L 269.652535 196.032902  L 269.228548 195.120028  L 268.818125 194.207154  L 268.420832 193.29428  L 268.036249 192.381406  L 267.663968 191.468533  L 267.303598 190.555659  L 266.954756 189.642785  L 266.617073 188.729911  L 266.290194 187.817037  L 265.973772 186.904163  L 265.667472 185.991289  L 265.370972 185.078415  L 265.083956 184.165542  L 264.806123 183.252668  L 264.537177 182.339794  L 264.276836 181.42692  L 264.024823 180.514046  L 263.780872 179.601172  L 263.544726 178.688298  L 263.316134 177.775424  L 263.094855 176.862551  L 262.880655 175.949677  L 262.673307 175.036803  L 262.472593 174.123929  L 262.278299 173.211055  L 262.090222 172.298181  L 261.908161 171.385307  L 261.731924 170.472433  L 261.561326 169.559559  L 261.396185 168.646686  L 261.236327 167.733812  L 261.081583 166.820938  L 260.931789 165.908064  L 260.786788 164.99519  L 260.646425 164.082316  L 260.510553 163.169442  L 260.379027 162.256568  L 260.251709 161.343695  L 260.128464 160.430821  L 260.009162 159.517947  L 259.893676 158.605073  L 259.781885 157.692199  L 259.67367 156.779325  L 259.568917 155.866451  L 259.467515 154.953577  L 259.369357 154.040704  L 259.274339 153.12783  L 259.182361 152.214956  L 259.093326 151.302082  L 259.007139 150.389208  L 258.923709 149.476334  L 258.842948 148.56346  L 258.76477 147.650586  L 258.689094 146.737713  L 258.615839 145.824839  L 258.544927 144.911965  L 258.476283 143.999091  L 258.409836 143.086217  L 258.345514 142.173343  L 258.28325 141.260469  L 258.222978 140.347595  L 258.164634 139.434722  L 258.108157 138.521848  L 258.053486 137.608974  L 258.000565 136.6961  L 257.949336 135.783226  L 257.899746 134.870352  L 257.851743 133.957478  L 257.805275 133.044604  L 257.760294 132.13173  L 257.716752 131.218857  L 257.674603 130.305983  L 257.633802 129.393109  L 257.594306 128.480235  L 257.556074 127.567361  z "
           clip-path="url(#p9180e4344f)"
           style="fill: #2ca02c; fill-opacity: 0.5"
           id="path468982" />
      </g>
      <defs
         id="defs469333">
        <clipPath
           id="p9180e4344f">
          <rect
             x="56.928125"
             y="14.599219"
             width="234.671875"
             height="203.342656"
             id="rect469330" />
        </clipPath>
      </defs>
    </g>
  </g>
</svg>
