<?xml version="1.0" encoding="UTF-8" standalone="no"?>
<!-- Generator: Adobe Illustrator 23.0.3, SVG Export Plug-In . SVG Version: 6.00 Build 0)  -->

<svg
   version="1.1"
   x="0px"
   y="0px"
   viewBox="0 0 761.1 623.6"
   style="enable-background:new 0 0 761.1 623.6;"
   xml:space="preserve"
   id="svg1770"
   sodipodi:docname="time-series_data_data_t2_data.svg"
   inkscape:version="1.3.2 (091e20e, 2023-11-25)"
   xmlns:inkscape="http://www.inkscape.org/namespaces/inkscape"
   xmlns:sodipodi="http://sodipodi.sourceforge.net/DTD/sodipodi-0.dtd"
   xmlns="http://www.w3.org/2000/svg"
   xmlns:svg="http://www.w3.org/2000/svg"><defs
   id="defs1770" /><sodipodi:namedview
   id="namedview1770"
   pagecolor="#ffffff"
   bordercolor="#000000"
   borderopacity="0.25"
   inkscape:showpageshadow="2"
   inkscape:pageopacity="0.0"
   inkscape:pagecheckerboard="0"
   inkscape:deskcolor="#d1d1d1"
   inkscape:zoom="0.77924644"
   inkscape:cx="392.68707"
   inkscape:cy="259.2248"
   inkscape:window-width="1384"
   inkscape:window-height="847"
   inkscape:window-x="62"
   inkscape:window-y="25"
   inkscape:window-maximized="1"
   inkscape:current-layer="Layer_1" />
<style
   type="text/css"
   id="style1">
	.st0{opacity:0.3;fill:#1F77B4;}
	.st1{opacity:0.3;fill:#FF7F0E;}
	.st2{opacity:0.3;fill:#2CA02C;}
	.st3{fill:#1F77B4;}
	.st4{fill:#2CA02C;}
	.st5{fill:#FF7F0E;}
	.st6{fill:#C1272D;}
	.st7{fill:#FCEE21;}
	.st8{fill:#0000FF;}
	.st9{fill:#8CC63F;}
	.st10{fill:none;stroke:#820303;stroke-width:2.0469;stroke-miterlimit:10;}
	.st11{opacity:0.3;}
</style>

<g
   id="Layer_1">
	<g
   id="Слой_8">
	</g>
	<g
   id="Слой_16">
	</g>
	<g
   id="Time_scale">
	</g>
	<g
   id="Now_line">
	</g>
	<g
   id="Слой_10">
	</g>
	<g
   id="Слой_9">
	</g>
	
	
	
	
	
	
	
	
	
	
	
	
	
	
	
	
	
	
	
	<rect
   x="257.2"
   y="439.9"
   class="st0"
   width="199.3"
   height="26.5"
   id="rect674" />
	<rect
   x="257.2"
   y="475.9"
   class="st1"
   width="199.3"
   height="39.4"
   id="rect675" />
	<rect
   x="257.2"
   y="523.9"
   class="st2"
   width="199.3"
   height="16.5"
   id="rect676" />
	<g
   id="g716">
		<g
   id="g677">
			<g
   id="g676">
				<path
   class="st6"
   d="M278,481.9c0.7,1.5,1,3.1,1.1,4.6c0,0.6,3,0.6,3,0c-0.1-1.6-0.5-3.2-1.2-4.9      C280.6,481,277.7,481.3,278,481.9L278,481.9z"
   id="path676" />
			</g>
		</g>
		<g
   id="g679">
			<g
   id="g678">
				<path
   class="st6"
   d="M284.6,481.1c1.2,2.3,2.5,4.6,3.7,6.9c0.3,0.6,3.2,0.4,2.9-0.3c-1.2-2.3-2.5-4.6-3.7-6.9      C287.1,480.2,284.2,480.4,284.6,481.1L284.6,481.1z"
   id="path677" />
			</g>
		</g>
		<g
   id="g681">
			<g
   id="g680">
				<path
   class="st6"
   d="M339.2,482.5c0.1,1.9,0.3,3.8,0.7,5.7c0.1,0.6,3.1,0.6,3,0c-0.4-1.9-0.7-3.8-0.7-5.7      C342.2,481.8,339.2,481.8,339.2,482.5L339.2,482.5z"
   id="path679" />
			</g>
		</g>
		<g
   id="g683">
			<g
   id="g682">
				<path
   class="st6"
   d="M360.9,482.6c0.7,2,1.2,4.1,2.4,6.1c0.4,0.6,3.3,0.4,2.9-0.3c-1.1-1.9-1.6-3.9-2.3-5.8      C363.7,482,360.7,482,360.9,482.6L360.9,482.6z"
   id="path681" />
			</g>
		</g>
		<g
   id="g685">
			<g
   id="g684">
				<path
   class="st6"
   d="M420.4,479.9c0,1.6,0.6,3.2,1.8,4.8c0.5,0.6,3.4,0.4,2.9-0.3c-1.1-1.5-1.7-3-1.7-4.5      C423.3,479.2,420.3,479.2,420.4,479.9L420.4,479.9z"
   id="path683" />
			</g>
		</g>
		<g
   id="g687">
			<g
   id="g686">
				<path
   class="st7"
   d="M298.9,480.6c1.2,2.6,2.3,5.2,3.1,7.8c0.2,0.6,3.2,0.6,3,0c-0.9-2.7-1.9-5.4-3.2-8.1      C301.4,479.7,298.6,480,298.9,480.6L298.9,480.6z"
   id="path685" />
			</g>
		</g>
		<g
   id="g689">
			<g
   id="g688">
				<path
   class="st7"
   d="M349.9,482.3c0.5,1.4,1.1,2.8,1.6,4.3c0.3,0.9,0,2.3,1.5,3.1c0.5,0.3,1.7,0.4,2.4,0.1c0,0,0.1,0,0.1-0.1      c0.5-0.2,0.7-0.5,0-0.7l-0.1,0c-1.5-0.4-3.6,0.3-2.1,0.7l0.1,0c0-0.2,0-0.5,0-0.7c0,0-0.1,0-0.1,0.1c0.8,0,1.6,0.1,2.4,0.1      c-1.4-0.8-1.1-2.5-1.4-3.4c-0.4-1.2-0.9-2.3-1.3-3.5C352.6,481.6,349.6,481.6,349.9,482.3L349.9,482.3z"
   id="path687" />
			</g>
		</g>
		<g
   id="g691">
			<g
   id="g690">
				<path
   class="st7"
   d="M390,481.7c-0.1,1.4,0,2.8,0.4,4.2c0.2,0.6,3.2,0.6,3,0c-0.4-1.4-0.5-2.8-0.4-4.2      C393.1,481,390.1,481,390,481.7L390,481.7z"
   id="path689" />
			</g>
		</g>
		<g
   id="g693">
			<g
   id="g692">
				<path
   class="st8"
   d="M291.2,480.9c2.4,2.6,4.5,5.3,6.1,7.9c0.4,0.6,3.3,0.4,2.9-0.3c-1.6-2.7-3.7-5.3-6.1-7.9      C293.5,480,290.6,480.3,291.2,480.9L291.2,480.9z"
   id="path691" />
			</g>
		</g>
		<g
   id="g695">
			<g
   id="g694">
				<path
   class="st8"
   d="M331.3,483.3c1,1.4,1.8,2.7,2.6,4.1c0.3,0.6,3.2,0.4,2.9-0.3c-0.7-1.4-1.6-2.8-2.6-4.1      C333.7,482.4,330.8,482.7,331.3,483.3L331.3,483.3z"
   id="path693" />
			</g>
		</g>
		<g
   id="g697">
			<g
   id="g696">
				<path
   class="st8"
   d="M403.4,479.5c0.8,2.4,1.7,4.7,2.5,7.1c0.2,0.6,3.2,0.6,3,0c-0.8-2.4-1.7-4.7-2.5-7.1      C406.2,478.9,403.2,478.8,403.4,479.5L403.4,479.5z"
   id="path695" />
			</g>
		</g>
		<g
   id="g699">
			<g
   id="g698">
				<path
   class="st8"
   d="M427.5,480.4c0.4,1,0.8,1.9,1.4,2.8c0.4,0.6,3.3,0.4,2.9-0.3c-0.5-0.9-1-1.7-1.3-2.5      C430.3,479.8,427.3,479.8,427.5,480.4L427.5,480.4z"
   id="path697" />
			</g>
		</g>
		<g
   id="g701">
			<g
   id="g700">
				<path
   class="st9"
   d="M306.7,483.1c1,1.4,1.9,2.7,2.9,4c0.4,0.6,3.3,0.4,2.9-0.3c-1-1.4-1.9-2.7-2.9-4      C309.1,482.2,306.2,482.5,306.7,483.1L306.7,483.1z"
   id="path699" />
			</g>
		</g>
		<g
   id="g703">
			<g
   id="g702">
				<path
   class="st9"
   d="M312.9,484.4c0.6,0.4,1.1,0.9,1.7,1.3c0.5,0.4,0.8,0.8,1.9,1c0.5,0.1,1.1,0.1,1.5,0      c0.5-0.1,0.8-0.2,0.9-0.4c0.1-0.2-0.1-0.4-0.7-0.6l-0.1,0c-1.6-0.3-3.1,0.5-1.5,0.9l0.1,0c-0.2-0.2-0.5-0.4-0.7-0.6      c0,0,0,0,0,0.1c0.2-0.1,0.5-0.2,0.7-0.3c-0.1,0-0.1,0-0.2,0c0.5,0,1,0,1.5,0c0.2,0.1,0.2,0-0.1-0.1c-0.1-0.1-0.3-0.2-0.4-0.3      c-0.2-0.2-0.4-0.3-0.6-0.5c-0.5-0.4-0.9-0.7-1.4-1.1C314.7,483.3,312.1,483.8,312.9,484.4L312.9,484.4z"
   id="path701" />
			</g>
		</g>
		<g
   id="g705">
			<g
   id="g704">
				<path
   class="st9"
   d="M344.1,482.6c1.6,2.1,0.4,4.3,2.1,6.4c0.5,0.6,3.4,0.4,2.9-0.3c-1.8-2.1-0.5-4.3-2.1-6.4      C346.6,481.7,343.7,482,344.1,482.6L344.1,482.6z"
   id="path703" />
			</g>
		</g>
		<g
   id="g707">
			<g
   id="g706">
				<path
   class="st9"
   d="M368.3,483.3c0.7,1.2,1.4,2.5,2.1,3.7c0.3,0.6,3.2,0.4,2.9-0.3c-0.7-1.2-1.4-2.5-2.1-3.7      C370.8,482.4,367.9,482.7,368.3,483.3L368.3,483.3z"
   id="path705" />
			</g>
		</g>
		<g
   id="g709">
			<g
   id="g708">
				<path
   class="st9"
   d="M396.8,480.3c0.3,2-0.4,4.3,1.6,6.2c0.6,0.6,3.5,0.3,2.9-0.3c-1.9-1.8-1.2-4-1.5-5.9      C399.7,479.7,396.7,479.7,396.8,480.3L396.8,480.3z"
   id="path707" />
			</g>
		</g>
		<g
   id="g711">
			<g
   id="g710">
				<path
   class="st9"
   d="M411.6,479.6c0.6,2.1,1.6,4.2,3.1,6.2c0.5,0.6,3.3,0.4,2.9-0.3c-1.4-2-2.4-3.9-3-6      C414.4,478.9,411.4,478.9,411.6,479.6L411.6,479.6z"
   id="path709" />
			</g>
		</g>
		<g
   id="g713">
			<g
   id="g712">
				<path
   d="M266.2,487.1c3.6-1.8,7.3-3.7,12.6-5c7.5-1.9,16.1-1.7,24.4-0.3c12.7,2.1,22.6,5.7,35.6,7.5c10.1,1.4,22.8,1.9,32.1-0.4      c4.3-1.1,7.2-2.5,10.2-4c4.6-2.3,9.6-3.8,17.6-4.7c16.3-1.7,34.7-0.3,47.8,3.2c1.5,0.4,3.6-0.3,2.1-0.7      c-10.6-2.8-24-4.4-37.7-4.2c-6.7,0.1-13.7,0.6-19.7,1.6c-5.8,1-9.5,2.7-13.1,4.4c-4.5,2.2-9.3,4.2-17.6,4.7      c-8,0.5-16.5-0.2-23.6-1.4c-13.7-2.4-24.7-6.7-40-8c-15.6-1.3-25.7,2.8-33.3,6.7C262.6,487.1,265.2,487.6,266.2,487.1      L266.2,487.1z"
   id="path711" />
			</g>
		</g>
		<g
   id="g715">
			<g
   id="g714">
				<path
   d="M263.7,479.9c5.9,4,13,8.5,27.1,9.8c14.5,1.3,22.9-2.6,33.7-4.9c12.5-2.7,28.6-3.4,42.8-2c7.6,0.8,13.7,2.3,20.5,3.5      c6.4,1.1,13.1,1.6,20.3,1.3c16.6-0.8,28.5-5,39.2-8.8c1.3-0.5-0.8-1.2-2.1-0.7c-12.3,4.5-29.4,10.4-49.9,8.3      c-8.5-0.9-15.3-3-23.6-4.1c-6.9-0.9-14.4-1.3-21.8-1.1c-7,0.1-14,0.7-20.4,1.6c-7.6,1.2-13.1,3-19.7,4.6c-9,2.2-19.3,2-28-0.3      c-7.3-2-11.5-4.9-15.5-7.6C265.5,478.9,262.9,479.4,263.7,479.9L263.7,479.9z"
   id="path713" />
			</g>
		</g>
	</g>
	<g
   id="g783">
		<g
   id="g718">
			<g
   id="g717">
				<path
   class="st8"
   d="M281.2,446.3c-0.3,1,0.5,2,1,3c0.6,1.3,0.9,2.5,1.1,3.8c0.1,0.6,3.1,0.6,3,0c-0.1-1-0.3-2.1-0.7-3.1      c-0.5-1.2-1.7-2.4-1.3-3.7C284.4,445.6,281.4,445.6,281.2,446.3L281.2,446.3z"
   id="path716" />
			</g>
		</g>
		<g
   id="g720">
			<g
   id="g719">
				<path
   class="st8"
   d="M327.6,446.4c-0.8,2,1,4.3,1.7,6.3c0.2,0.6,3.2,0.6,3,0c-0.3-1-0.7-2-1-3c-0.3-1-1.2-2.1-0.8-3      C330.8,446,327.9,445.7,327.6,446.4L327.6,446.4z"
   id="path718" />
			</g>
		</g>
		<g
   id="g722">
			<g
   id="g721">
				<path
   class="st8"
   d="M332.7,446c1.4,2.3,2.5,4.5,3.4,6.8c0.2,0.6,3.2,0.6,3,0c-0.8-2.4-2-4.7-3.5-7.1      C335.2,445.1,332.3,445.3,332.7,446L332.7,446z"
   id="path720" />
			</g>
		</g>
		<g
   id="g724">
			<g
   id="g723">
				<path
   class="st8"
   d="M384.1,445.4c-0.1,2.1-0.2,4.2-0.1,6.3c0,0.6,3,0.6,3,0c-0.1-2.1-0.1-4.2,0.1-6.3      C387.1,444.7,384.1,444.7,384.1,445.4L384.1,445.4z"
   id="path722" />
			</g>
		</g>
		<g
   id="g726">
			<g
   id="g725">
				<path
   class="st8"
   d="M407.7,448.2c0,1.1,0,2.1,0,3.1c0,0.6,3,0.6,3,0c0-1.1,0-2.1,0-3.1C410.7,447.5,407.7,447.5,407.7,448.2      L407.7,448.2z"
   id="path724" />
			</g>
		</g>
		<g
   id="g728">
			<g
   id="g727">
				<path
   class="st7"
   d="M275.2,447.1c2.1,2,3.4,4,3.8,6c0.1,0.6,3.1,0.6,3,0c-0.4-2.2-1.7-4.3-3.9-6.3      C277.4,446.2,274.5,446.5,275.2,447.1L275.2,447.1z"
   id="path726" />
			</g>
		</g>
		<g
   id="g730">
			<g
   id="g729">
				<path
   class="st7"
   d="M348.3,446.3c1.5,1.6,2.4,3.3,2.8,5c0.2,0.6,3.2,0.6,3,0c-0.4-1.8-1.4-3.5-2.9-5.2      C350.7,445.5,347.8,445.7,348.3,446.3L348.3,446.3z"
   id="path728" />
			</g>
		</g>
		<g
   id="g732">
			<g
   id="g731">
				<path
   class="st7"
   d="M352.5,446.9c0.8,1,1.7,1.9,2.9,2.8c0.8,0.6,3.3,0.1,2.6-0.5c-1.1-0.8-1.9-1.7-2.6-2.5      C354.9,446,352,446.3,352.5,446.9L352.5,446.9z"
   id="path730" />
			</g>
		</g>
		<g
   id="g734">
			<g
   id="g733">
				<path
   class="st7"
   d="M394.4,446.2c0.5,2.1,0.9,4.2,1.4,6.4c0.1,0.6,3.1,0.6,3,0c-0.5-2.1-0.9-4.2-1.4-6.4      C397.2,445.5,394.2,445.5,394.4,446.2L394.4,446.2z"
   id="path732" />
			</g>
		</g>
		<g
   id="g736">
			<g
   id="g735">
				<path
   class="st6"
   d="M288.2,446.1c0.5,2.4,0.5,4.9,0.2,7.3c-0.1,0.6,2.9,0.6,3,0c0.3-2.4,0.3-4.9-0.2-7.3      C291,445.4,288,445.4,288.2,446.1L288.2,446.1z"
   id="path734" />
			</g>
		</g>
		<g
   id="g738">
			<g
   id="g737">
				<path
   class="st6"
   d="M337.7,445.8c3.7,2.2,3.7,4.7,5.5,7c0.5,0.6,3.4,0.4,2.9-0.3c-1.8-2.4-1.9-5-5.8-7.2      C339.3,444.8,336.8,445.3,337.7,445.8L337.7,445.8z"
   id="path736" />
			</g>
		</g>
		<g
   id="g740">
			<g
   id="g739">
				<path
   class="st6"
   d="M389.9,445.2c0.7,2.5,0.8,4.9,0.2,7.4c-0.1,0.6,2.9,0.6,3,0c0.5-2.5,0.4-5-0.2-7.4      C392.8,444.6,389.8,444.6,389.9,445.2L389.9,445.2z"
   id="path738" />
			</g>
		</g>
		<g
   id="g742">
			<g
   id="g741">
				<path
   class="st6"
   d="M412.8,448.5c-0.3,0.6-0.4,1.2-0.2,1.8c0.2,0.6,3.2,0.6,3,0c-0.1-0.5-0.1-1,0.1-1.5c0.1-0.3-0.2-0.5-1-0.6      C413.9,448.1,412.9,448.2,412.8,448.5L412.8,448.5z"
   id="path740" />
			</g>
		</g>
		<g
   id="g744">
			<g
   id="g743">
				<path
   class="st9"
   d="M269.7,448c2.3,1.3,3.8,2.7,4.6,4.3c0.3,0.6,3.2,0.4,2.9-0.3c-0.9-1.6-2.5-3.1-4.9-4.5      C271.3,446.9,268.8,447.4,269.7,448L269.7,448z"
   id="path742" />
			</g>
		</g>
		<g
   id="g746">
			<g
   id="g745">
				<path
   class="st9"
   d="M298.8,448.5c0.7,1,1.2,1.9,1.6,2.9c0.3,0.6,3.3,0.6,3,0c-0.4-1.1-1-2.1-1.7-3.1      C301.3,447.6,298.4,447.9,298.8,448.5L298.8,448.5z"
   id="path744" />
			</g>
		</g>
		<g
   id="g748">
			<g
   id="g747">
				<path
   class="st9"
   d="M303.8,449.5c0.4,0.2,0.8,0.5,1.2,0.7c0.4,0.2,1.4,0.3,2.1,0.2s1-0.5,0.5-0.7c-0.4-0.2-0.8-0.5-1.2-0.7      c-0.4-0.2-1.4-0.3-2.1-0.2C303.7,449,303.4,449.3,303.8,449.5L303.8,449.5z"
   id="path746" />
			</g>
		</g>
		<g
   id="g750">
			<g
   id="g749">
				<path
   class="st9"
   d="M343.3,445.4c1.3,2.2,2.7,4.3,4,6.5c0.4,0.6,3.3,0.4,2.9-0.3c-1.3-2.2-2.7-4.3-4-6.5      C345.8,444.5,342.9,444.8,343.3,445.4L343.3,445.4z"
   id="path748" />
			</g>
		</g>
		<g
   id="g752">
			<g
   id="g751">
				<path
   class="st9"
   d="M400,446.4c1.2,1.9,2.2,3.7,2.8,5.6c0.2,0.6,3.2,0.6,3,0c-0.7-2-1.7-3.9-3-5.8      C402.5,445.5,399.6,445.8,400,446.4L400,446.4z"
   id="path750" />
			</g>
		</g>
		<g
   id="g754">
			<g
   id="g753">
				<path
   class="st9"
   d="M378.1,445.6c-0.4,1.7-0.3,3.4,0.3,5.1c0.2,0.6,3.2,0.6,3,0c-0.6-1.7-0.6-3.4-0.3-5.1      C381.3,444.9,378.3,444.9,378.1,445.6L378.1,445.6z"
   id="path752" />
			</g>
		</g>
		<g
   id="g756">
			<g
   id="g755">
				<path
   class="st9"
   d="M373.5,446.4c0,0.9,0.2,1.9,0.6,2.8c0.2,0.6,3.2,0.6,3,0c-0.4-0.9-0.6-1.9-0.6-2.8      C376.5,445.8,373.5,445.8,373.5,446.4L373.5,446.4z"
   id="path754" />
			</g>
		</g>
		<g
   id="g758">
			<g
   id="g757">
				<path
   class="st9"
   d="M323.8,447.6c-0.1,1.6,0.2,3.1,0.8,4.7c0.2,0.6,3.2,0.6,3,0c-0.6-1.6-0.9-3.1-0.8-4.7      C326.8,446.9,323.8,446.9,323.8,447.6L323.8,447.6z"
   id="path756" />
			</g>
		</g>
		<g
   id="g760">
			<g
   id="g759">
				<path
   class="st7"
   d="M293.6,447.2c0.1,1.8,0.3,3.5,0.4,5.2c0,0.6,3,0.6,3,0c-0.1-1.8-0.3-3.5-0.4-5.2      C296.5,446.6,293.5,446.6,293.6,447.2L293.6,447.2z"
   id="path758" />
			</g>
		</g>
		<g
   id="g762">
			<g
   id="g761">
				<path
   class="st6"
   d="M265.4,449c0.9,1,1.8,2,2.7,2.9c0.6,0.6,3.5,0.4,2.9-0.3c-0.9-1-1.8-2-2.7-2.9      C267.8,448.1,264.9,448.4,265.4,449L265.4,449z"
   id="path760" />
			</g>
		</g>
		<g
   id="g764">
			<g
   id="g763">
				<path
   class="st6"
   d="M318.3,449.3c-0.1,0.7,0,1.3,0.3,2c0.1,0.3,0.6,0.5,1.5,0.5c0.7,0,1.6-0.2,1.5-0.5c-0.3-0.7-0.4-1.3-0.3-2      C321.4,448.7,318.4,448.7,318.3,449.3L318.3,449.3z"
   id="path762" />
			</g>
		</g>
		<g
   id="g766">
			<g
   id="g765">
				<path
   class="st6"
   d="M367.9,447.5c0.6,0.4,1.2,0.8,1.8,1.2c0.9,0.6,3.5,0.1,2.6-0.5c-0.6-0.4-1.2-0.8-1.8-1.2      C369.6,446.4,367,446.9,367.9,447.5L367.9,447.5z"
   id="path764" />
			</g>
		</g>
		<g
   id="g768">
			<g
   id="g767">
				<path
   class="st6"
   d="M429.6,447.9c0.4,0.7,0.8,1.4,1.2,2.1c0.4,0.6,3.2,0.4,2.9-0.3c-0.4-0.7-0.8-1.4-1.2-2.1      C432.1,447,429.2,447.3,429.6,447.9L429.6,447.9z"
   id="path766" />
			</g>
		</g>
		<g
   id="g770">
			<g
   id="g769">
				<path
   class="st6"
   d="M443.6,444.9c0.6,1.7,1.5,3.3,2.5,5c0.4,0.6,3.3,0.4,2.9-0.3c-1-1.6-1.8-3.1-2.4-4.7      C446.3,444.3,443.3,444.3,443.6,444.9L443.6,444.9z"
   id="path768" />
			</g>
		</g>
		<g
   id="g772">
			<g
   id="g771">
				<path
   class="st7"
   d="M426.4,449.6c0.2,0,0.4,0,0.6,0c0.8,0,1.5-0.2,1.5-0.5s-0.7-0.5-1.5-0.5c-0.2,0-0.4,0-0.6,0      c-0.8,0-1.5,0.2-1.5,0.5S425.6,449.6,426.4,449.6L426.4,449.6z"
   id="path770" />
			</g>
		</g>
		<g
   id="g774">
			<g
   id="g773">
				<path
   class="st7"
   d="M447.7,444.5c0.4,1.6,1.1,3.2,2,4.8c0.4,0.6,3.3,0.4,2.9-0.3c-0.9-1.5-1.6-3-1.9-4.5      C450.5,443.9,447.5,443.9,447.7,444.5L447.7,444.5z"
   id="path772" />
			</g>
		</g>
		<g
   id="g776">
			<g
   id="g775">
				<path
   class="st8"
   d="M433.7,447.1c0.9,1,1.3,1.9,1.3,2.9c0,0.6,3,0.6,3,0c0-1.1-0.4-2.1-1.4-3.1      C436,446.2,433.1,446.5,433.7,447.1L433.7,447.1z"
   id="path774" />
			</g>
		</g>
		<g
   id="g778">
			<g
   id="g777">
				<path
   class="st9"
   d="M438.3,446.1c1.8,1.5,0.3,3.2,2.4,4.7c0.8,0.6,3.4,0.1,2.6-0.5c-2-1.4-0.4-3-2.1-4.4      C440.5,445.2,437.6,445.5,438.3,446.1L438.3,446.1z"
   id="path776" />
			</g>
		</g>
		<g
   id="g780">
			<g
   id="g779">
				<path
   d="M263.2,451.7c1.5-2.3,6.2-4,12.9-4.8c7.4-0.9,14.8-0.3,21.7,0.8c12.9,2.1,24,5.6,38.8,6.1c14,0.4,21.9-3.2,31.1-6      c6.7-2,14.1-3,23.2-2.4c8.3,0.5,16,1.9,23.4,3.2c12.5,2.1,28.1,4.1,40.8,1.1c1.5-0.4,0.1-1.2-1.5-0.9c-15,3.6-32.5-0.3-46.5-2.5      c-12.6-2-26.3-3-38.2,0c-5.3,1.4-9.5,3.1-14.6,4.5c-7.2,2-15.7,2.5-24.7,1.6c-15-1.6-26.4-6-42.3-6.7c-12.2-0.6-24.3,1.9-27,5.9      C259.9,452.1,262.7,452.3,263.2,451.7L263.2,451.7z"
   id="path778" />
			</g>
		</g>
		<g
   id="g782">
			<g
   id="g781">
				<path
   d="M261.3,453.3c5.6-1.8,15.3,0.8,21.8,1c5,0.2,9.9-0.2,14.4-0.9c11.2-1.7,20.1-4.6,30.8-6.5c5.8-1,12.3-1.8,18.9-1.4      s12.3,1.6,17.6,2.9c9.2,2.2,19,5.3,31.1,5.4c8.8,0,16.4-1.8,23.6-3.3c9.9-2.1,19.9-4.1,29.8-6.2c1.6-0.3,0.1-1.2-1.5-0.9      c-8.5,1.8-17.1,3.5-25.6,5.3c-7.8,1.6-16.6,4-26.2,4c-13.5,0-24.2-4.2-34.9-6.4c-10-2.1-20.3-2.5-31.2-0.9      c-11.4,1.7-20.3,4.8-31.4,6.7c-6.5,1.1-13.3,1.6-20.4,0.7c-6.3-0.8-13.3-2.1-18.9-0.3C257.8,453,259.9,453.7,261.3,453.3      L261.3,453.3z"
   id="path780" />
			</g>
		</g>
	</g>
	<g
   id="g850">
		<g
   id="g785">
			<g
   id="g784">
				<path
   class="st8"
   d="M282.1,456.8c-0.3,1,0.5,2,1,3c0.6,1.3,0.9,2.5,1.1,3.8c0.1,0.6,3.1,0.6,3,0c-0.1-1-0.3-2.1-0.7-3.1      c-0.5-1.2-1.7-2.4-1.3-3.7C285.3,456.1,282.3,456.1,282.1,456.8L282.1,456.8z"
   id="path783" />
			</g>
		</g>
		<g
   id="g787">
			<g
   id="g786">
				<path
   class="st8"
   d="M328.5,456.9c-0.8,2,1,4.3,1.7,6.3c0.2,0.6,3.2,0.6,3,0c-0.3-1-0.7-2-1-3c-0.3-1-1.2-2.1-0.8-3      C331.6,456.5,328.8,456.2,328.5,456.9L328.5,456.9z"
   id="path785" />
			</g>
		</g>
		<g
   id="g789">
			<g
   id="g788">
				<path
   class="st8"
   d="M333.5,456.5c1.4,2.3,2.5,4.5,3.4,6.8c0.2,0.6,3.2,0.6,3,0c-0.8-2.4-2-4.7-3.5-7.1      C336,455.6,333.1,455.9,333.5,456.5L333.5,456.5z"
   id="path787" />
			</g>
		</g>
		<g
   id="g791">
			<g
   id="g790">
				<path
   class="st8"
   d="M384.9,455.9c-0.1,2.1-0.2,4.2-0.1,6.3c0,0.6,3,0.6,3,0c-0.1-2.1-0.1-4.2,0.1-6.3      C387.9,455.2,384.9,455.2,384.9,455.9L384.9,455.9z"
   id="path789" />
			</g>
		</g>
		<g
   id="g793">
			<g
   id="g792">
				<path
   class="st8"
   d="M408.6,458.6c0,1.1,0,2.1,0,3.1c0,0.6,3,0.6,3,0c0-1.1,0-2.1,0-3.1C411.6,458,408.6,458,408.6,458.6      L408.6,458.6z"
   id="path791" />
			</g>
		</g>
		<g
   id="g795">
			<g
   id="g794">
				<path
   class="st7"
   d="M276,457.6c2.1,2,3.4,4,3.8,6c0.1,0.6,3.1,0.6,3,0c-0.4-2.2-1.7-4.3-3.9-6.3      C278.2,456.8,275.3,457,276,457.6L276,457.6z"
   id="path793" />
			</g>
		</g>
		<g
   id="g797">
			<g
   id="g796">
				<path
   class="st7"
   d="M349.2,456.8c1.5,1.6,2.4,3.3,2.8,5c0.2,0.6,3.2,0.6,3,0c-0.4-1.8-1.4-3.5-2.9-5.2      C351.5,456,348.6,456.2,349.2,456.8L349.2,456.8z"
   id="path795" />
			</g>
		</g>
		<g
   id="g799">
			<g
   id="g798">
				<path
   class="st7"
   d="M353.3,457.4c0.8,1,1.7,1.9,2.9,2.8c0.8,0.6,3.3,0.1,2.6-0.5c-1.1-0.8-1.9-1.7-2.6-2.5      C355.7,456.5,352.8,456.8,353.3,457.4L353.3,457.4z"
   id="path797" />
			</g>
		</g>
		<g
   id="g801">
			<g
   id="g800">
				<path
   class="st7"
   d="M395.2,456.7c0.5,2.1,0.9,4.2,1.4,6.4c0.1,0.6,3.1,0.6,3,0c-0.5-2.1-0.9-4.2-1.4-6.4      C398.1,456,395.1,456,395.2,456.7L395.2,456.7z"
   id="path799" />
			</g>
		</g>
		<g
   id="g803">
			<g
   id="g802">
				<path
   class="st6"
   d="M289,456.6c0.5,2.4,0.5,4.9,0.2,7.3c-0.1,0.6,2.9,0.6,3,0c0.3-2.4,0.3-4.9-0.2-7.3      C291.9,455.9,288.9,455.9,289,456.6L289,456.6z"
   id="path801" />
			</g>
		</g>
		<g
   id="g805">
			<g
   id="g804">
				<path
   class="st6"
   d="M338.6,456.3c3.7,2.2,3.7,4.7,5.5,7c0.5,0.6,3.4,0.4,2.9-0.3c-1.8-2.4-1.9-5-5.8-7.2      C340.2,455.3,337.6,455.8,338.6,456.3L338.6,456.3z"
   id="path803" />
			</g>
		</g>
		<g
   id="g807">
			<g
   id="g806">
				<path
   class="st6"
   d="M390.8,455.7c0.7,2.5,0.8,4.9,0.2,7.4c-0.1,0.6,2.9,0.6,3,0c0.5-2.5,0.4-5-0.2-7.4      C393.6,455.1,390.6,455.1,390.8,455.7L390.8,455.7z"
   id="path805" />
			</g>
		</g>
		<g
   id="g809">
			<g
   id="g808">
				<path
   class="st6"
   d="M413.6,459c-0.3,0.6-0.4,1.2-0.2,1.8c0.2,0.6,3.2,0.6,3,0c-0.1-0.5-0.1-1,0.1-1.5c0.1-0.3-0.2-0.5-1-0.6      C414.8,458.5,413.8,458.7,413.6,459L413.6,459z"
   id="path807" />
			</g>
		</g>
		<g
   id="g811">
			<g
   id="g810">
				<path
   class="st9"
   d="M270.6,458.5c2.3,1.3,3.8,2.7,4.6,4.3c0.3,0.6,3.2,0.4,2.9-0.3c-0.9-1.6-2.5-3.1-4.9-4.5      C272.2,457.4,269.6,457.9,270.6,458.5L270.6,458.5z"
   id="path809" />
			</g>
		</g>
		<g
   id="g813">
			<g
   id="g812">
				<path
   class="st9"
   d="M299.7,459c0.7,1,1.2,1.9,1.6,2.9c0.3,0.6,3.3,0.6,3,0c-0.4-1.1-1-2.1-1.7-3.1      C302.1,458.1,299.2,458.4,299.7,459L299.7,459z"
   id="path811" />
			</g>
		</g>
		<g
   id="g815">
			<g
   id="g814">
				<path
   class="st9"
   d="M304.7,460.1c0.4,0.2,0.8,0.5,1.2,0.7c0.4,0.2,1.4,0.3,2.1,0.2s1-0.5,0.5-0.7c-0.4-0.2-0.8-0.5-1.2-0.7      c-0.4-0.2-1.4-0.3-2.1-0.2C304.5,459.5,304.3,459.8,304.7,460.1L304.7,460.1z"
   id="path813" />
			</g>
		</g>
		<g
   id="g817">
			<g
   id="g816">
				<path
   class="st9"
   d="M344.1,455.9c1.3,2.2,2.7,4.3,4,6.5c0.4,0.6,3.3,0.4,2.9-0.3c-1.3-2.2-2.7-4.3-4-6.5      C346.6,455,343.7,455.3,344.1,455.9L344.1,455.9z"
   id="path815" />
			</g>
		</g>
		<g
   id="g819">
			<g
   id="g818">
				<path
   class="st9"
   d="M400.8,456.9c1.2,1.9,2.2,3.7,2.8,5.6c0.2,0.6,3.2,0.6,3,0c-0.7-2-1.7-3.9-3-5.8      C403.3,456,400.4,456.3,400.8,456.9L400.8,456.9z"
   id="path817" />
			</g>
		</g>
		<g
   id="g821">
			<g
   id="g820">
				<path
   class="st9"
   d="M379,456.1c-0.4,1.7-0.3,3.4,0.3,5.1c0.2,0.6,3.2,0.6,3,0c-0.6-1.7-0.6-3.4-0.3-5.1      C382.1,455.4,379.1,455.5,379,456.1L379,456.1z"
   id="path819" />
			</g>
		</g>
		<g
   id="g823">
			<g
   id="g822">
				<path
   class="st9"
   d="M374.4,456.9c0,0.9,0.2,1.9,0.6,2.8c0.2,0.6,3.2,0.6,3,0c-0.4-0.9-0.6-1.9-0.6-2.8      C377.4,456.3,374.4,456.3,374.4,456.9L374.4,456.9z"
   id="path821" />
			</g>
		</g>
		<g
   id="g825">
			<g
   id="g824">
				<path
   class="st9"
   d="M324.6,458.1c-0.1,1.6,0.2,3.1,0.8,4.7c0.2,0.6,3.2,0.6,3,0c-0.6-1.6-0.9-3.1-0.8-4.7      C327.7,457.4,324.7,457.4,324.6,458.1L324.6,458.1z"
   id="path823" />
			</g>
		</g>
		<g
   id="g827">
			<g
   id="g826">
				<path
   class="st7"
   d="M294.4,457.7c0.1,1.8,0.3,3.5,0.4,5.2c0,0.6,3,0.6,3,0c-0.1-1.8-0.3-3.5-0.4-5.2      C297.4,457.1,294.4,457.1,294.4,457.7L294.4,457.7z"
   id="path825" />
			</g>
		</g>
		<g
   id="g829">
			<g
   id="g828">
				<path
   class="st6"
   d="M266.3,459.5c0.9,1,1.8,2,2.7,2.9c0.6,0.6,3.5,0.4,2.9-0.3c-0.9-1-1.8-2-2.7-2.9      C268.6,458.6,265.7,458.9,266.3,459.5L266.3,459.5z"
   id="path827" />
			</g>
		</g>
		<g
   id="g831">
			<g
   id="g830">
				<path
   class="st6"
   d="M319.2,459.8c-0.1,0.7,0,1.3,0.3,2c0.1,0.3,0.6,0.5,1.5,0.5c0.7,0,1.6-0.2,1.5-0.5c-0.3-0.7-0.4-1.3-0.3-2      C322.2,459.2,319.2,459.2,319.2,459.8L319.2,459.8z"
   id="path829" />
			</g>
		</g>
		<g
   id="g833">
			<g
   id="g832">
				<path
   class="st6"
   d="M368.8,458c0.6,0.4,1.2,0.8,1.8,1.2c0.9,0.6,3.5,0.1,2.6-0.5c-0.6-0.4-1.2-0.8-1.8-1.2      C370.5,456.9,367.9,457.4,368.8,458L368.8,458z"
   id="path831" />
			</g>
		</g>
		<g
   id="g835">
			<g
   id="g834">
				<path
   class="st6"
   d="M430.4,458.4c0.4,0.7,0.8,1.4,1.2,2.1c0.4,0.6,3.2,0.4,2.9-0.3c-0.4-0.7-0.8-1.4-1.2-2.1      C432.9,457.5,430.1,457.8,430.4,458.4L430.4,458.4z"
   id="path833" />
			</g>
		</g>
		<g
   id="g837">
			<g
   id="g836">
				<path
   class="st6"
   d="M444.4,455.4c0.6,1.7,1.5,3.3,2.5,5c0.4,0.6,3.3,0.4,2.9-0.3c-1-1.6-1.8-3.1-2.4-4.7      C447.2,454.8,444.2,454.8,444.4,455.4L444.4,455.4z"
   id="path835" />
			</g>
		</g>
		<g
   id="g839">
			<g
   id="g838">
				<path
   class="st7"
   d="M427.2,460.1c0.2,0,0.4,0,0.6,0c0.8,0,1.5-0.2,1.5-0.5c0-0.3-0.7-0.5-1.5-0.5c-0.2,0-0.4,0-0.6,0      c-0.8,0-1.5,0.2-1.5,0.5C425.8,459.8,426.4,460.1,427.2,460.1L427.2,460.1z"
   id="path837" />
			</g>
		</g>
		<g
   id="g841">
			<g
   id="g840">
				<path
   class="st7"
   d="M448.5,455c0.4,1.6,1.1,3.2,2,4.8c0.4,0.6,3.3,0.4,2.9-0.3c-0.9-1.5-1.6-3-1.9-4.5      C451.4,454.4,448.4,454.4,448.5,455L448.5,455z"
   id="path839" />
			</g>
		</g>
		<g
   id="g843">
			<g
   id="g842">
				<path
   class="st8"
   d="M434.5,457.6c0.9,1,1.3,1.9,1.3,2.9c0,0.6,3,0.6,3,0c0-1.1-0.4-2.1-1.4-3.1      C436.8,456.8,433.9,457,434.5,457.6L434.5,457.6z"
   id="path841" />
			</g>
		</g>
		<g
   id="g845">
			<g
   id="g844">
				<path
   class="st9"
   d="M439.2,456.6c1.8,1.5,0.3,3.2,2.4,4.7c0.8,0.6,3.4,0.1,2.6-0.5c-2-1.4-0.4-3-2.1-4.4      C441.4,455.7,438.5,456,439.2,456.6L439.2,456.6z"
   id="path843" />
			</g>
		</g>
		<g
   id="g847">
			<g
   id="g846">
				<path
   d="M264,462.2c1.5-2.3,6.2-4,12.9-4.8c7.4-0.9,14.8-0.3,21.7,0.8c12.9,2.1,24,5.6,38.8,6.1c14,0.4,21.9-3.2,31.1-6      c6.7-2,14.1-3,23.2-2.4c8.3,0.5,16,1.9,23.4,3.2c12.5,2.1,28.1,4.1,40.8,1.1c1.5-0.4,0.1-1.2-1.5-0.9c-15,3.6-32.5-0.3-46.5-2.5      c-12.6-2-26.3-3-38.2,0c-5.3,1.4-9.5,3.1-14.6,4.5c-7.2,2-15.7,2.5-24.7,1.6c-15-1.6-26.4-6-42.3-6.7c-12.2-0.6-24.3,1.9-27,5.9      C260.7,462.6,263.6,462.8,264,462.2L264,462.2z"
   id="path845" />
			</g>
		</g>
		<g
   id="g849">
			<g
   id="g848">
				<path
   d="M262.2,463.8c5.6-1.8,15.3,0.8,21.8,1c5,0.2,9.9-0.2,14.4-0.9c11.2-1.7,20.1-4.6,30.8-6.5c5.8-1,12.3-1.8,18.9-1.4      c6.6,0.4,12.3,1.6,17.6,2.9c9.2,2.2,19,5.3,31.1,5.4c8.8,0,16.4-1.8,23.6-3.3c9.9-2.1,19.9-4.1,29.8-6.2      c1.6-0.3,0.1-1.2-1.5-0.9c-8.5,1.8-17.1,3.5-25.6,5.3c-7.8,1.6-16.6,4-26.2,4c-13.5,0-24.2-4.2-34.9-6.4      c-10-2.1-20.3-2.5-31.2-0.9c-11.4,1.7-20.3,4.8-31.4,6.7c-6.5,1.1-13.3,1.6-20.4,0.7c-6.3-0.8-13.3-2.1-18.9-0.3      C258.7,463.5,260.8,464.2,262.2,463.8L262.2,463.8z"
   id="path847" />
			</g>
		</g>
	</g>
	<g
   id="g891">
		<g
   id="g852">
			<g
   id="g851">
				<path
   class="st6"
   d="M277.4,494.6c0.7,1.5,1,3.1,1.1,4.6c0,0.6,3,0.6,3,0c-0.1-1.6-0.5-3.2-1.2-4.9      C280.1,493.7,277.2,494,277.4,494.6L277.4,494.6z"
   id="path850" />
			</g>
		</g>
		<g
   id="g854">
			<g
   id="g853">
				<path
   class="st6"
   d="M284,493.8c1.2,2.3,2.5,4.6,3.7,6.9c0.3,0.6,3.2,0.4,2.9-0.3c-1.2-2.3-2.5-4.6-3.7-6.9      C286.6,492.9,283.7,493.2,284,493.8L284,493.8z"
   id="path852" />
			</g>
		</g>
		<g
   id="g856">
			<g
   id="g855">
				<path
   class="st6"
   d="M338.7,495.2c0.1,1.9,0.3,3.8,0.7,5.7c0.1,0.6,3.1,0.6,3,0c-0.4-1.9-0.7-3.8-0.7-5.7      C341.6,494.6,338.6,494.6,338.7,495.2L338.7,495.2z"
   id="path854" />
			</g>
		</g>
		<g
   id="g858">
			<g
   id="g857">
				<path
   class="st6"
   d="M360.3,495.3c0.7,2,1.2,4.1,2.4,6.1c0.4,0.6,3.3,0.4,2.9-0.3c-1.1-1.9-1.6-3.9-2.3-5.8      C363.1,494.7,360.1,494.7,360.3,495.3L360.3,495.3z"
   id="path856" />
			</g>
		</g>
		<g
   id="g860">
			<g
   id="g859">
				<path
   class="st6"
   d="M419.8,492.6c0,1.6,0.6,3.2,1.8,4.8c0.5,0.6,3.4,0.4,2.9-0.3c-1.1-1.5-1.7-3-1.7-4.5      C422.8,492,419.8,492,419.8,492.6L419.8,492.6z"
   id="path858" />
			</g>
		</g>
		<g
   id="g862">
			<g
   id="g861">
				<path
   class="st7"
   d="M298.3,493.4c1.2,2.6,2.3,5.2,3.1,7.8c0.2,0.6,3.2,0.6,3,0c-0.9-2.7-1.9-5.4-3.2-8.1      C300.9,492.5,298,492.7,298.3,493.4L298.3,493.4z"
   id="path860" />
			</g>
		</g>
		<g
   id="g864">
			<g
   id="g863">
				<path
   class="st7"
   d="M349.3,495c0.5,1.4,1.1,2.8,1.6,4.3c0.3,0.9,0,2.3,1.5,3.1c0.5,0.3,1.7,0.4,2.4,0.1c0,0,0.1,0,0.1-0.1      c0.5-0.2,0.7-0.5,0-0.7l-0.1,0c-1.5-0.4-3.6,0.3-2.1,0.7l0.1,0c0-0.2,0-0.5,0-0.7c0,0-0.1,0-0.1,0.1c0.8,0,1.6,0.1,2.4,0.1      c-1.4-0.8-1.1-2.5-1.4-3.4c-0.4-1.2-0.9-2.3-1.3-3.5C352.1,494.4,349.1,494.4,349.3,495L349.3,495z"
   id="path862" />
			</g>
		</g>
		<g
   id="g866">
			<g
   id="g865">
				<path
   class="st6"
   d="M390.4,494.4c-0.1,1.4,0,2.8,0.4,4.2c0.2,0.6,3.2,0.6,3,0c-0.4-1.4-0.5-2.8-0.4-4.2      C393.5,493.7,390.5,493.7,390.4,494.4L390.4,494.4z"
   id="path864" />
			</g>
		</g>
		<g
   id="g868">
			<g
   id="g867">
				<path
   class="st8"
   d="M290.6,493.6c2.4,2.6,4.5,5.3,6.1,7.9c0.4,0.6,3.3,0.4,2.9-0.3c-1.6-2.7-3.7-5.3-6.1-7.9      C293,492.7,290.1,493,290.6,493.6L290.6,493.6z"
   id="path866" />
			</g>
		</g>
		<g
   id="g870">
			<g
   id="g869">
				<path
   class="st8"
   d="M330.7,496c1,1.4,1.8,2.7,2.6,4.1c0.3,0.6,3.2,0.4,2.9-0.3c-0.7-1.4-1.6-2.8-2.6-4.1      C333.1,495.1,330.2,495.4,330.7,496L330.7,496z"
   id="path868" />
			</g>
		</g>
		<g
   id="g872">
			<g
   id="g871">
				<path
   class="st8"
   d="M402.8,492.2c0.8,2.4,1.7,4.7,2.5,7.1c0.2,0.6,3.2,0.6,3,0c-0.8-2.4-1.7-4.7-2.5-7.1      C405.6,491.6,402.6,491.6,402.8,492.2L402.8,492.2z"
   id="path870" />
			</g>
		</g>
		<g
   id="g874">
			<g
   id="g873">
				<path
   class="st8"
   d="M426.9,493.1c0.4,1,0.8,1.9,1.4,2.8c0.4,0.6,3.3,0.4,2.9-0.3c-0.5-0.9-1-1.7-1.3-2.5      C429.7,492.5,426.7,492.5,426.9,493.1L426.9,493.1z"
   id="path872" />
			</g>
		</g>
		<g
   id="g876">
			<g
   id="g875">
				<path
   class="st9"
   d="M306.1,495.8c1,1.4,1.9,2.7,2.9,4c0.4,0.6,3.3,0.4,2.9-0.3c-1-1.4-1.9-2.7-2.9-4      C308.5,495,305.6,495.2,306.1,495.8L306.1,495.8z"
   id="path874" />
			</g>
		</g>
		<g
   id="g878">
			<g
   id="g877">
				<path
   class="st9"
   d="M312.3,497.1c0.6,0.4,1.1,0.9,1.7,1.3c0.5,0.4,0.8,0.8,1.9,1c0.5,0.1,1.1,0.1,1.5,0      c0.5-0.1,0.8-0.2,0.9-0.4c0.1-0.2-0.1-0.4-0.7-0.6l-0.1,0c-1.6-0.3-3.1,0.5-1.5,0.9l0.1,0c-0.2-0.2-0.5-0.4-0.7-0.6      c0,0,0,0,0,0.1c0.2-0.1,0.5-0.2,0.7-0.3c-0.1,0-0.1,0-0.2,0c0.5,0,1,0,1.5,0c0.2,0.1,0.2,0-0.1-0.1c-0.1-0.1-0.3-0.2-0.4-0.3      c-0.2-0.2-0.4-0.3-0.6-0.5c-0.5-0.4-0.9-0.7-1.4-1.1C314.2,496,311.6,496.5,312.3,497.1L312.3,497.1z"
   id="path876" />
			</g>
		</g>
		<g
   id="g880">
			<g
   id="g879">
				<path
   class="st9"
   d="M343.6,495.3c1.6,2.1,0.4,4.3,2.1,6.4c0.5,0.6,3.4,0.4,2.9-0.3c-1.8-2.1-0.5-4.3-2.1-6.4      C346,494.4,343.1,494.7,343.6,495.3L343.6,495.3z"
   id="path878" />
			</g>
		</g>
		<g
   id="g882">
			<g
   id="g881">
				<path
   class="st9"
   d="M367.7,496c0.7,1.2,1.4,2.5,2.1,3.7c0.3,0.6,3.2,0.4,2.9-0.3c-0.7-1.2-1.4-2.5-2.1-3.7      C370.2,495.1,367.3,495.4,367.7,496L367.7,496z"
   id="path880" />
			</g>
		</g>
		<g
   id="g884">
			<g
   id="g883">
				<path
   class="st9"
   d="M396.2,493c0.3,2-0.4,4.3,1.6,6.2c0.6,0.6,3.5,0.3,2.9-0.3c-1.9-1.8-1.2-4-1.5-5.9      C399.1,492.4,396.1,492.4,396.2,493L396.2,493z"
   id="path882" />
			</g>
		</g>
		<g
   id="g886">
			<g
   id="g885">
				<path
   class="st9"
   d="M411,492.3c0.6,2.1,1.6,4.2,3.1,6.2c0.5,0.6,3.3,0.4,2.9-0.3c-1.4-2-2.4-3.9-3-6      C413.9,491.7,410.9,491.7,411,492.3L411,492.3z"
   id="path884" />
			</g>
		</g>
		<g
   id="g888">
			<g
   id="g887">
				<path
   d="M265.7,499.8c3.6-1.8,7.3-3.7,12.6-5c7.5-1.9,16.1-1.7,24.4-0.3c12.7,2.1,22.6,5.7,35.6,7.5c10.1,1.4,22.8,1.9,32.1-0.4      c4.3-1.1,7.2-2.5,10.2-4c4.6-2.3,9.6-3.8,17.6-4.7c16.3-1.7,34.7-0.3,47.8,3.2c1.5,0.4,3.6-0.3,2.1-0.7      c-10.6-2.8-24-4.4-37.7-4.2c-6.7,0.1-13.7,0.6-19.7,1.6c-5.8,1-9.5,2.7-13.1,4.4c-4.5,2.2-9.3,4.2-17.6,4.7      c-8,0.5-16.5-0.2-23.6-1.4c-13.7-2.4-24.7-6.7-40-8c-15.6-1.3-25.7,2.8-33.3,6.7C262,499.8,264.6,500.3,265.7,499.8L265.7,499.8      z"
   id="path886" />
			</g>
		</g>
		<g
   id="g890">
			<g
   id="g889">
				<path
   d="M263.2,492.7c5.9,4,13,8.5,27.1,9.8c14.5,1.3,22.9-2.6,33.7-4.9c12.5-2.7,28.6-3.4,42.8-2c7.6,0.8,13.7,2.3,20.5,3.5      c6.4,1.1,13.1,1.6,20.3,1.3c16.6-0.8,28.5-5,39.2-8.8c1.3-0.5-0.8-1.2-2.1-0.7c-12.3,4.5-29.4,10.4-49.9,8.3      c-8.5-0.9-15.3-3-23.6-4.1c-6.9-0.9-14.4-1.3-21.8-1.1c-7,0.1-14,0.7-20.4,1.6c-7.6,1.2-13.1,3-19.7,4.6c-9,2.2-19.3,2-28-0.3      c-7.3-2-11.5-4.9-15.5-7.6C264.9,491.6,262.3,492.1,263.2,492.7L263.2,492.7z"
   id="path888" />
			</g>
		</g>
	</g>
	<g
   id="g932">
		<g
   id="g893">
			<g
   id="g892">
				<path
   class="st6"
   d="M279.7,506.5c0.7,1.5,1,3.1,1.1,4.6c0,0.6,3,0.6,3,0c-0.1-1.6-0.5-3.2-1.2-4.9      C282.3,505.6,279.4,505.8,279.7,506.5L279.7,506.5z"
   id="path891" />
			</g>
		</g>
		<g
   id="g895">
			<g
   id="g894">
				<path
   class="st6"
   d="M286.3,505.7c1.2,2.3,2.5,4.6,3.7,6.9c0.3,0.6,3.2,0.4,2.9-0.3c-1.2-2.3-2.5-4.6-3.7-6.9      C288.8,504.8,285.9,505,286.3,505.7L286.3,505.7z"
   id="path893" />
			</g>
		</g>
		<g
   id="g897">
			<g
   id="g896">
				<path
   class="st6"
   d="M340.9,507.1c0.1,1.9,0.3,3.8,0.7,5.7c0.1,0.6,3.1,0.6,3,0c-0.4-1.9-0.7-3.8-0.7-5.7      C343.9,506.4,340.9,506.4,340.9,507.1L340.9,507.1z"
   id="path895" />
			</g>
		</g>
		<g
   id="g899">
			<g
   id="g898">
				<path
   class="st6"
   d="M362.6,507.2c0.7,2,1.2,4.1,2.4,6.1c0.4,0.6,3.3,0.4,2.9-0.3c-1.1-1.9-1.6-3.9-2.3-5.8      C365.4,506.5,362.4,506.5,362.6,507.2L362.6,507.2z"
   id="path897" />
			</g>
		</g>
		<g
   id="g901">
			<g
   id="g900">
				<path
   class="st6"
   d="M422,504.5c0,1.6,0.6,3.2,1.8,4.8c0.5,0.6,3.4,0.4,2.9-0.3c-1.1-1.5-1.7-3-1.7-4.5      C425,503.8,422,503.8,422,504.5L422,504.5z"
   id="path899" />
			</g>
		</g>
		<g
   id="g903">
			<g
   id="g902">
				<path
   class="st7"
   d="M300.5,505.2c1.2,2.6,2.3,5.2,3.1,7.8c0.2,0.6,3.2,0.6,3,0c-0.9-2.7-1.9-5.4-3.2-8.1      C303.1,504.3,300.2,504.6,300.5,505.2L300.5,505.2z"
   id="path901" />
			</g>
		</g>
		<g
   id="g905">
			<g
   id="g904">
				<path
   class="st7"
   d="M351.5,506.9c0.5,1.4,1.1,2.8,1.6,4.3c0.3,0.9,0,2.3,1.5,3.1c0.5,0.3,1.7,0.4,2.4,0.1c0,0,0.1,0,0.1-0.1      c0.5-0.2,0.7-0.5,0-0.7l-0.1,0c-1.5-0.4-3.6,0.3-2.1,0.7l0.1,0c0-0.2,0-0.5,0-0.7c0,0-0.1,0-0.1,0.1c0.8,0,1.6,0.1,2.4,0.1      c-1.4-0.8-1.1-2.5-1.4-3.4c-0.4-1.2-0.9-2.3-1.3-3.5C354.3,506.2,351.3,506.2,351.5,506.9L351.5,506.9z"
   id="path903" />
			</g>
		</g>
		<g
   id="g907">
			<g
   id="g906">
				<path
   class="st6"
   d="M391.7,506.2c-0.1,1.4,0,2.8,0.4,4.2c0.2,0.6,3.2,0.6,3,0c-0.4-1.4-0.5-2.8-0.4-4.2      C394.7,505.6,391.7,505.6,391.7,506.2L391.7,506.2z"
   id="path905" />
			</g>
		</g>
		<g
   id="g909">
			<g
   id="g908">
				<path
   class="st8"
   d="M292.9,505.5c2.4,2.6,4.5,5.3,6.1,7.9c0.4,0.6,3.3,0.4,2.9-0.3c-1.6-2.7-3.7-5.3-6.1-7.9      C295.2,504.6,292.3,504.8,292.9,505.5L292.9,505.5z"
   id="path907" />
			</g>
		</g>
		<g
   id="g911">
			<g
   id="g910">
				<path
   class="st8"
   d="M332.9,507.9c1,1.4,1.8,2.7,2.6,4.1c0.3,0.6,3.2,0.4,2.9-0.3c-0.7-1.4-1.6-2.8-2.6-4.1      C335.4,507,332.5,507.3,332.9,507.9L332.9,507.9z"
   id="path909" />
			</g>
		</g>
		<g
   id="g913">
			<g
   id="g912">
				<path
   class="st8"
   d="M405.1,504.1c0.8,2.4,1.7,4.7,2.5,7.1c0.2,0.6,3.2,0.6,3,0c-0.8-2.4-1.7-4.7-2.5-7.1      C407.8,503.5,404.8,503.5,405.1,504.1L405.1,504.1z"
   id="path911" />
			</g>
		</g>
		<g
   id="g915">
			<g
   id="g914">
				<path
   class="st8"
   d="M429.2,505c0.4,1,0.8,1.9,1.4,2.8c0.4,0.6,3.3,0.4,2.9-0.3c-0.5-0.9-1-1.7-1.3-2.5      C431.9,504.4,428.9,504.4,429.2,505L429.2,505z"
   id="path913" />
			</g>
		</g>
		<g
   id="g917">
			<g
   id="g916">
				<path
   class="st9"
   d="M308.3,507.7c1,1.4,1.9,2.7,2.9,4c0.4,0.6,3.3,0.4,2.9-0.3c-1-1.4-1.9-2.7-2.9-4      C310.8,506.8,307.9,507.1,308.3,507.7L308.3,507.7z"
   id="path915" />
			</g>
		</g>
		<g
   id="g919">
			<g
   id="g918">
				<path
   class="st9"
   d="M314.6,509c0.6,0.4,1.1,0.9,1.7,1.3c0.5,0.4,0.8,0.8,1.9,1c0.5,0.1,1.1,0.1,1.5,0c0.5-0.1,0.8-0.2,0.9-0.4      c0.1-0.2-0.1-0.4-0.7-0.6l-0.1,0c-1.6-0.3-3.1,0.5-1.5,0.9l0.1,0c-0.2-0.2-0.5-0.4-0.7-0.6c0,0,0,0,0,0.1      c0.2-0.1,0.5-0.2,0.7-0.3c-0.1,0-0.1,0-0.2,0c0.5,0,1,0,1.5,0c0.2,0.1,0.2,0-0.1-0.1c-0.1-0.1-0.3-0.2-0.4-0.3      c-0.2-0.2-0.4-0.3-0.6-0.5c-0.5-0.4-0.9-0.7-1.4-1.1C316.4,507.9,313.8,508.4,314.6,509L314.6,509z"
   id="path917" />
			</g>
		</g>
		<g
   id="g921">
			<g
   id="g920">
				<path
   class="st9"
   d="M345.8,507.2c1.6,2.1,0.4,4.3,2.1,6.4c0.5,0.6,3.4,0.4,2.9-0.3c-1.8-2.1-0.5-4.3-2.1-6.4      C348.2,506.3,345.3,506.6,345.8,507.2L345.8,507.2z"
   id="path919" />
			</g>
		</g>
		<g
   id="g923">
			<g
   id="g922">
				<path
   class="st9"
   d="M369.9,507.9c0.7,1.2,1.4,2.5,2.1,3.7c0.3,0.6,3.2,0.4,2.9-0.3c-0.7-1.2-1.4-2.5-2.1-3.7      C372.5,507,369.6,507.3,369.9,507.9L369.9,507.9z"
   id="path921" />
			</g>
		</g>
		<g
   id="g925">
			<g
   id="g924">
				<path
   class="st9"
   d="M398.5,504.9c0.3,2-0.4,4.3,1.6,6.2c0.6,0.6,3.5,0.3,2.9-0.3c-1.9-1.8-1.2-4-1.5-5.9      C401.4,504.3,398.4,504.3,398.5,504.9L398.5,504.9z"
   id="path923" />
			</g>
		</g>
		<g
   id="g927">
			<g
   id="g926">
				<path
   class="st9"
   d="M413.3,504.2c0.6,2.1,1.6,4.2,3.1,6.2c0.5,0.6,3.3,0.4,2.9-0.3c-1.4-2-2.4-3.9-3-6      C416.1,503.5,413.1,503.5,413.3,504.2L413.3,504.2z"
   id="path925" />
			</g>
		</g>
		<g
   id="g929">
			<g
   id="g928">
				<path
   d="M267.9,511.7c3.6-1.8,7.3-3.7,12.6-5c7.5-1.9,16.1-1.7,24.4-0.3c12.7,2.1,22.6,5.7,35.6,7.5c10.1,1.4,22.8,1.9,32.1-0.4      c4.3-1.1,7.2-2.5,10.2-4c4.6-2.3,9.6-3.8,17.6-4.7c16.3-1.7,34.7-0.3,47.8,3.2c1.5,0.4,3.6-0.3,2.1-0.7      c-10.6-2.8-24-4.4-37.7-4.2c-6.7,0.1-13.7,0.6-19.7,1.6c-5.8,1-9.5,2.7-13.1,4.4c-4.5,2.2-9.3,4.2-17.6,4.7      c-8,0.5-16.5-0.2-23.6-1.4c-13.7-2.4-24.7-6.7-40-8c-15.6-1.3-25.7,2.8-33.3,6.7C264.3,511.7,266.9,512.2,267.9,511.7      L267.9,511.7z"
   id="path927" />
			</g>
		</g>
		<g
   id="g931">
			<g
   id="g930">
				<path
   d="M265.4,504.5c5.9,4,13,8.5,27.1,9.8c14.5,1.3,22.9-2.6,33.7-4.9c12.5-2.7,28.6-3.4,42.8-2c7.6,0.8,13.7,2.3,20.5,3.5      c6.4,1.1,13.1,1.6,20.3,1.3c16.6-0.8,28.5-5,39.2-8.8c1.3-0.5-0.8-1.2-2.1-0.7c-12.3,4.5-29.4,10.4-49.9,8.3      c-8.5-0.9-15.3-3-23.6-4.1c-6.9-0.9-14.4-1.3-21.8-1.1c-7,0.1-14,0.7-20.4,1.6c-7.6,1.2-13.1,3-19.7,4.6c-9,2.2-19.3,2-28-0.3      c-7.3-2-11.5-4.9-15.5-7.6C267.2,503.5,264.6,503.9,265.4,504.5L265.4,504.5z"
   id="path929" />
			</g>
		</g>
	</g>
	<g
   id="g934">
		<g
   id="g933">
			<path
   d="M199.3,434.6c-2.9,0.2-5.8,0.3-8.6,0.5c-1.8,0.1-4-0.1-5.7,0.5c-3.3,1.1-2.9,4.4-2.7,7.2c0.8,11.7,1.5,23.4,1.9,35.1     c0.8,22.9,0.5,45.9-0.6,68.8c0,0.8,0.6,1.3,1.4,1.2c8-0.5,16-1,24.1-1.5c1.5-0.1,1.1-2.4-0.4-2.3c-8,0.5-16,1-24.1,1.5     c0.4,0.4,0.9,0.9,1.4,1.2c1-20.4,1.2-40.9,0.8-61.3c-0.2-9.5-0.6-19.1-1.2-28.6c-0.1-2.5-0.3-5.1-0.5-7.7     c-0.2-2.4-0.8-5.3-0.6-7.6c0.5-4.8,3.9-4,7.3-4.2c2.6-0.1,5.3-0.3,7.9-0.5C201.2,436.8,200.8,434.5,199.3,434.6L199.3,434.6z"
   id="path932" />
		</g>
	</g>
	<g
   id="g936">
		<g
   id="g935">
			<path
   d="M455.3,444.8c4.7,0.4,9.3,0.8,14,1.2c-0.4-0.4-0.7-0.8-1.1-1.1c-2.1,20-2.8,40.2-2,60.4c0.4,9.7,1.1,19.4,2.2,29.1     c0.3,2.3,0.6,4.5,0.8,6.8c0.3,2.6,1.5,5.9-0.1,8.1c-1.6,2.1-5.3,2.1-8.1,2.5c-2.9,0.5-5.7,1-8.6,1.4c-1.5,0.2-1,2.3,0.4,2.1     c5.3-0.8,11.4-1.1,16.5-2.8c3.3-1.1,3.1-3.4,2.7-6.2c-1.3-11.5-2.7-23-3.3-34.6c-1.3-22.2-0.6-44.5,1.8-66.6     c0-0.6-0.4-1.1-1.1-1.1c-4.7-0.4-9.3-0.8-14-1.2C453.9,442.6,453.7,444.7,455.3,444.8L455.3,444.8z"
   id="path934" />
		</g>
	</g>
	<g
   id="g1003">
		<g
   id="g938">
			<g
   id="g937">
				<path
   class="st8"
   d="M282.5,528.5c-0.3,1,0.5,2,1,3c0.6,1.3,0.9,2.5,1.1,3.8c0.1,0.6,3.1,0.6,3,0c-0.1-1-0.3-2.1-0.7-3.1      c-0.5-1.2-1.7-2.4-1.3-3.7C285.7,527.9,282.7,527.9,282.5,528.5L282.5,528.5z"
   id="path936" />
			</g>
		</g>
		<g
   id="g940">
			<g
   id="g939">
				<path
   class="st8"
   d="M328.9,528.6c-0.8,2,1,4.3,1.7,6.3c0.2,0.6,3.2,0.6,3,0c-0.3-1-0.7-2-1-3c-0.3-1-1.2-2.1-0.8-3      C332.1,528.2,329.2,528,328.9,528.6L328.9,528.6z"
   id="path938" />
			</g>
		</g>
		<g
   id="g942">
			<g
   id="g941">
				<path
   class="st8"
   d="M334,528.2c1.4,2.3,2.5,4.5,3.4,6.8c0.2,0.6,3.2,0.6,3,0c-0.8-2.4-2-4.7-3.5-7.1      C336.5,527.3,333.6,527.6,334,528.2L334,528.2z"
   id="path940" />
			</g>
		</g>
		<g
   id="g944">
			<g
   id="g943">
				<path
   class="st8"
   d="M385.4,527.6c-0.1,2.1-0.2,4.2-0.1,6.3c0,0.6,3,0.6,3,0c-0.1-2.1-0.1-4.2,0.1-6.3      C388.4,527,385.4,527,385.4,527.6L385.4,527.6z"
   id="path942" />
			</g>
		</g>
		<g
   id="g946">
			<g
   id="g945">
				<path
   class="st8"
   d="M409,530.4c0,1.1,0,2.1,0,3.1c0,0.6,3,0.6,3,0c0-1.1,0-2.1,0-3.1C412,529.7,409,529.7,409,530.4L409,530.4z      "
   id="path944" />
			</g>
		</g>
		<g
   id="g948">
			<g
   id="g947">
				<path
   class="st7"
   d="M276.5,529.3c2.1,2,3.4,4,3.8,6c0.1,0.6,3.1,0.6,3,0c-0.4-2.2-1.7-4.3-3.9-6.3      C278.7,528.5,275.8,528.7,276.5,529.3L276.5,529.3z"
   id="path946" />
			</g>
		</g>
		<g
   id="g950">
			<g
   id="g949">
				<path
   class="st7"
   d="M349.6,528.6c1.5,1.6,2.4,3.3,2.8,5c0.2,0.6,3.2,0.6,3,0c-0.4-1.8-1.4-3.5-2.9-5.2      C352,527.7,349.1,528,349.6,528.6L349.6,528.6z"
   id="path948" />
			</g>
		</g>
		<g
   id="g952">
			<g
   id="g951">
				<path
   class="st7"
   d="M353.8,529.1c0.8,1,1.7,1.9,2.9,2.8c0.8,0.6,3.3,0.1,2.6-0.5c-1.1-0.8-1.9-1.7-2.6-2.5      C356.2,528.2,353.3,528.5,353.8,529.1L353.8,529.1z"
   id="path950" />
			</g>
		</g>
		<g
   id="g954">
			<g
   id="g953">
				<path
   class="st7"
   d="M395.7,528.4c0.5,2.1,0.9,4.2,1.4,6.4c0.1,0.6,3.1,0.6,3,0c-0.5-2.1-0.9-4.2-1.4-6.4      C398.5,527.8,395.5,527.8,395.7,528.4L395.7,528.4z"
   id="path952" />
			</g>
		</g>
		<g
   id="g956">
			<g
   id="g955">
				<path
   class="st6"
   d="M289.5,528.3c0.5,2.4,0.5,4.9,0.2,7.3c-0.1,0.6,2.9,0.6,3,0c0.3-2.4,0.3-4.9-0.2-7.3      C292.3,527.7,289.3,527.7,289.5,528.3L289.5,528.3z"
   id="path954" />
			</g>
		</g>
		<g
   id="g958">
			<g
   id="g957">
				<path
   class="st6"
   d="M339,528.1c3.7,2.2,3.7,4.7,5.5,7c0.5,0.6,3.4,0.4,2.9-0.3c-1.8-2.4-1.9-5-5.8-7.2      C340.6,527,338.1,527.5,339,528.1L339,528.1z"
   id="path956" />
			</g>
		</g>
		<g
   id="g960">
			<g
   id="g959">
				<path
   class="st7"
   d="M391.2,527.5c0.7,2.5,0.8,4.9,0.2,7.4c-0.1,0.6,2.9,0.6,3,0c0.5-2.5,0.4-5-0.2-7.4      C394.1,526.9,391.1,526.9,391.2,527.5L391.2,527.5z"
   id="path958" />
			</g>
		</g>
		<g
   id="g962">
			<g
   id="g961">
				<path
   class="st6"
   d="M414.1,530.7c-0.3,0.6-0.4,1.2-0.2,1.8c0.2,0.6,3.2,0.6,3,0c-0.1-0.5-0.1-1,0.1-1.5c0.1-0.3-0.2-0.5-1-0.6      C415.2,530.3,414.2,530.5,414.1,530.7L414.1,530.7z"
   id="path960" />
			</g>
		</g>
		<g
   id="g964">
			<g
   id="g963">
				<path
   class="st9"
   d="M271,530.2c2.3,1.3,3.8,2.7,4.6,4.3c0.3,0.6,3.2,0.4,2.9-0.3c-0.9-1.6-2.5-3.1-4.9-4.5      C272.6,529.2,270.1,529.7,271,530.2L271,530.2z"
   id="path962" />
			</g>
		</g>
		<g
   id="g966">
			<g
   id="g965">
				<path
   class="st9"
   d="M300.1,530.8c0.7,1,1.2,1.9,1.6,2.9c0.3,0.6,3.3,0.6,3,0c-0.4-1.1-1-2.1-1.7-3.1      C302.6,529.9,299.7,530.1,300.1,530.8L300.1,530.8z"
   id="path964" />
			</g>
		</g>
		<g
   id="g968">
			<g
   id="g967">
				<path
   class="st9"
   d="M305.1,531.8c0.4,0.2,0.8,0.5,1.2,0.7c0.4,0.2,1.4,0.3,2.1,0.2c0.7-0.1,1-0.5,0.5-0.7      c-0.4-0.2-0.8-0.5-1.2-0.7c-0.4-0.2-1.4-0.3-2.1-0.2C305,531.3,304.7,531.6,305.1,531.8L305.1,531.8z"
   id="path966" />
			</g>
		</g>
		<g
   id="g970">
			<g
   id="g969">
				<path
   class="st9"
   d="M344.6,527.6c1.3,2.2,2.7,4.3,4,6.5c0.4,0.6,3.3,0.4,2.9-0.3c-1.3-2.2-2.7-4.3-4-6.5      C347.1,526.8,344.2,527,344.6,527.6L344.6,527.6z"
   id="path968" />
			</g>
		</g>
		<g
   id="g972">
			<g
   id="g971">
				<path
   class="st9"
   d="M401.3,528.7c1.2,1.9,2.2,3.7,2.8,5.6c0.2,0.6,3.2,0.6,3,0c-0.7-2-1.7-3.9-3-5.8      C403.8,527.8,400.9,528.1,401.3,528.7L401.3,528.7z"
   id="path970" />
			</g>
		</g>
		<g
   id="g974">
			<g
   id="g973">
				<path
   class="st9"
   d="M379.4,527.8c-0.4,1.7-0.3,3.4,0.3,5.1c0.2,0.6,3.2,0.6,3,0c-0.6-1.7-0.6-3.4-0.3-5.1      C382.6,527.2,379.6,527.2,379.4,527.8L379.4,527.8z"
   id="path972" />
			</g>
		</g>
		<g
   id="g976">
			<g
   id="g975">
				<path
   class="st9"
   d="M374.8,528.6c0,0.9,0.2,1.9,0.6,2.8c0.2,0.6,3.2,0.6,3,0c-0.4-0.9-0.6-1.9-0.6-2.8      C377.8,528,374.8,528,374.8,528.6L374.8,528.6z"
   id="path974" />
			</g>
		</g>
		<g
   id="g978">
			<g
   id="g977">
				<path
   class="st9"
   d="M325.1,529.8c-0.1,1.6,0.2,3.1,0.8,4.7c0.2,0.6,3.2,0.6,3,0c-0.6-1.6-0.9-3.1-0.8-4.7      C328.1,529.2,325.1,529.2,325.1,529.8L325.1,529.8z"
   id="path976" />
			</g>
		</g>
		<g
   id="g980">
			<g
   id="g979">
				<path
   class="st7"
   d="M294.9,529.5c0.1,1.8,0.3,3.5,0.4,5.2c0,0.6,3,0.6,3,0c-0.1-1.8-0.3-3.5-0.4-5.2      C297.8,528.8,294.8,528.8,294.9,529.5L294.9,529.5z"
   id="path978" />
			</g>
		</g>
		<g
   id="g982">
			<g
   id="g981">
				<path
   class="st6"
   d="M266.7,531.2c0.9,1,1.8,2,2.7,2.9c0.6,0.6,3.5,0.4,2.9-0.3c-0.9-1-1.8-2-2.7-2.9      C269.1,530.4,266.2,530.6,266.7,531.2L266.7,531.2z"
   id="path980" />
			</g>
		</g>
		<g
   id="g984">
			<g
   id="g983">
				<path
   class="st6"
   d="M319.6,531.6c-0.1,0.7,0,1.3,0.3,2c0.1,0.3,0.6,0.5,1.5,0.5c0.7,0,1.6-0.2,1.5-0.5c-0.3-0.7-0.4-1.3-0.3-2      C322.7,530.9,319.7,530.9,319.6,531.6L319.6,531.6z"
   id="path982" />
			</g>
		</g>
		<g
   id="g986">
			<g
   id="g985">
				<path
   class="st6"
   d="M369.2,529.7c0.6,0.4,1.2,0.8,1.8,1.2c0.9,0.6,3.5,0.1,2.6-0.5c-0.6-0.4-1.2-0.8-1.8-1.2      C370.9,528.6,368.3,529.1,369.2,529.7L369.2,529.7z"
   id="path984" />
			</g>
		</g>
		<g
   id="g988">
			<g
   id="g987">
				<path
   class="st6"
   d="M430.9,530.2c0.4,0.7,0.8,1.4,1.2,2.1c0.4,0.6,3.2,0.4,2.9-0.3c-0.4-0.7-0.8-1.4-1.2-2.1      C433.4,529.3,430.5,529.5,430.9,530.2L430.9,530.2z"
   id="path986" />
			</g>
		</g>
		<g
   id="g990">
			<g
   id="g989">
				<path
   class="st6"
   d="M444.9,527.2c0.6,1.7,1.5,3.3,2.5,5c0.4,0.6,3.3,0.4,2.9-0.3c-1-1.6-1.8-3.1-2.4-4.7      C447.6,526.5,444.6,526.5,444.9,527.2L444.9,527.2z"
   id="path988" />
			</g>
		</g>
		<g
   id="g992">
			<g
   id="g991">
				<path
   class="st7"
   d="M427.7,531.8c0.2,0,0.4,0,0.6,0c0.8,0,1.5-0.2,1.5-0.5s-0.7-0.5-1.5-0.5c-0.2,0-0.4,0-0.6,0      c-0.8,0-1.5,0.2-1.5,0.5S426.9,531.8,427.7,531.8L427.7,531.8z"
   id="path990" />
			</g>
		</g>
		<g
   id="g994">
			<g
   id="g993">
				<path
   class="st7"
   d="M449,526.8c0.4,1.6,1.1,3.2,2,4.8c0.4,0.6,3.3,0.4,2.9-0.3c-0.9-1.5-1.6-3-1.9-4.5      C451.8,526.2,448.8,526.2,449,526.8L449,526.8z"
   id="path992" />
			</g>
		</g>
		<g
   id="g996">
			<g
   id="g995">
				<path
   class="st8"
   d="M435,529.4c0.9,1,1.3,1.9,1.3,2.9c0,0.6,3,0.6,3,0c0-1.1-0.4-2.1-1.4-3.1      C437.3,528.5,434.4,528.7,435,529.4L435,529.4z"
   id="path994" />
			</g>
		</g>
		<g
   id="g998">
			<g
   id="g997">
				<path
   class="st9"
   d="M439.6,528.3c1.8,1.5,0.3,3.2,2.4,4.7c0.8,0.6,3.4,0.1,2.6-0.5c-2-1.4-0.4-3-2.1-4.4      C441.8,527.5,438.9,527.8,439.6,528.3L439.6,528.3z"
   id="path996" />
			</g>
		</g>
		<g
   id="g1000">
			<g
   id="g999">
				<path
   d="M264.5,533.9c1.5-2.3,6.2-4,12.9-4.8c7.4-0.9,14.8-0.3,21.7,0.8c12.9,2.1,24,5.6,38.8,6.1c14,0.4,21.9-3.2,31.1-6      c6.7-2,14.1-3,23.2-2.4c8.3,0.5,16,1.9,23.4,3.2c12.5,2.1,28.1,4.1,40.8,1.1c1.5-0.4,0.1-1.2-1.5-0.9c-15,3.6-32.5-0.3-46.5-2.5      c-12.6-2-26.3-3-38.2,0c-5.3,1.4-9.5,3.1-14.6,4.5c-7.2,2-15.7,2.5-24.7,1.6c-15-1.6-26.4-6-42.3-6.7c-12.2-0.6-24.3,1.9-27,5.9      C261.2,534.3,264,534.6,264.5,533.9L264.5,533.9z"
   id="path998" />
			</g>
		</g>
		<g
   id="g1002">
			<g
   id="g1001">
				<path
   d="M262.6,535.5c5.6-1.8,15.3,0.8,21.8,1c5,0.2,9.9-0.2,14.4-0.9c11.2-1.7,20.1-4.6,30.8-6.5c5.8-1,12.3-1.8,18.9-1.4      s12.3,1.6,17.6,2.9c9.2,2.2,19,5.3,31.1,5.4c8.8,0,16.4-1.8,23.6-3.3c9.9-2.1,19.9-4.1,29.8-6.2c1.6-0.3,0.1-1.2-1.5-0.9      c-8.5,1.8-17.1,3.5-25.6,5.3c-7.8,1.6-16.6,4-26.2,4c-13.5,0-24.2-4.2-34.9-6.4c-10-2.1-20.3-2.5-31.2-0.9      c-11.4,1.7-20.3,4.8-31.4,6.7c-6.5,1.1-13.3,1.6-20.4,0.7c-6.3-0.8-13.3-2.1-18.9-0.3C259.1,535.3,261.2,536,262.6,535.5      L262.6,535.5z"
   id="path1000" />
			</g>
		</g>
	</g>
	
	
	
	
	
	
	
	
	
	
	
	<g
   id="g1060">
		<g
   id="g1059">
			<path
   d="M108.8,495c19.8-1.2,39.6-2.5,59.4-3.7c1.2-0.1,1.3-1.6,0.3-2c-5.3-2-9.5-5.2-12.8-9.8c-0.5,0.4-1,0.8-1.6,1.2     c5.2,4.9,10.9,8.7,17.4,11.5c0-0.6,0-1.2,0-1.7c-6.6,3.3-12.6,7.3-18.2,12.2c-1,0.9,0.5,2.3,1.4,1.4c5.4-4.8,11.3-8.7,17.8-11.9     c0.6-0.3,0.7-1.4,0-1.7c-6.3-2.7-12-6.4-17-11.2c-0.8-0.7-2.3,0.3-1.6,1.2c3.6,5,8.2,8.5,14,10.7c0.1-0.7,0.2-1.3,0.3-2     c-19.8,1.2-39.6,2.5-59.4,3.7C107.5,493.1,107.5,495.1,108.8,495L108.8,495z"
   id="path1058" />
		</g>
	</g>
	
	
	
	
	
	
	
	
	
	
	
	
	
	
	
	
	
	
	
	
	
	
	
	
	
	
	
	
	
	
	
	
	
	
	
	
	
	
	
	
	
	
	
	
	
	
	
	
	
	
	
	
	
	
	
	
	
	
	
	
	
	
	
	
	
	
	
	
	
	<g
   id="g1509">
		<g
   class="st11"
   id="g1487">
			<g
   id="g1486">
				<path
   class="st3"
   d="M232,443.4c-1.6-0.1-2,1.7-2.5,2.9c1.3,0.4,2.7,0.7,4,1.1c0.1-0.4,0.2-0.7,0.3-1.1c0.6-1.9-1.3-3.2-3-3      c-0.2,0-0.5,0.1-0.7,0.1c1,0.6,2,1.2,3.1,1.7c-0.2-1.5-0.5-3-0.7-4.4c-0.6-3-5.5-2.3-5.4,0.7c0.1,2.3,1.5,4.8,4.1,4.8      c2.1,0,3.1-2.2,2.3-3.9c-0.2-0.4-0.5-0.9-0.9-1.1c-0.2-0.1,0-0.1,0,0.2c-1.8,0.2-3.6,0.5-5.4,0.7c0.4,1.4,0.8,2.9,1.2,4.3      c0.3,1.2,1.8,2.2,3.1,1.7c0.4-0.2,0.8-0.3,1.2-0.5c-1.2-0.5-2.4-1-3.6-1.4c0.1,0.4,0.2,0.7,0.4,1.1c0.7,2.2,4.1,1.8,4.1-0.5      C233.6,445.7,233.8,443.5,232,443.4L232,443.4z"
   id="path1485" />
			</g>
		</g>
		<g
   class="st11"
   id="g1489">
			<g
   id="g1488">
				<path
   class="st3"
   d="M234.8,448.2c1.1-0.8,2-1.7,2.9-2.6c0.5-0.5,1.1-1.3,1.9-1.3c-0.6-0.3-1.3-0.5-1.9-0.8      c0.1,0.1,0.1,0.1,0.2,0.2c-0.3-0.6-0.5-1.3-0.8-1.9c0,0.1,0,0.2,0,0.3c0.1-0.5,0.2-0.9,0.4-1.4c-0.4,0.8-2.2,1.7-3.1,2.2      c-1.5,0.9-3.5,1.4-3.9,3.4c-0.2,1,0.1,2.3,1.1,2.8c1.6,0.8,2.7,0.4,4.2-0.4c1-0.6,2.1-1.2,3-1.9c1.9-1.3,4.4-3,3.6-5.7      c-0.8-2.9-4.3-2.4-6.2-1c-1.8,1.3-3.2,3.4-4.1,5.4c-0.4,0.8-0.4,1.8,0.3,2.4C232.9,448.5,234,448.8,234.8,448.2L234.8,448.2z"
   id="path1487" />
			</g>
		</g>
		<g
   class="st11"
   id="g1491">
			<g
   id="g1490">
				<path
   class="st3"
   d="M230.8,455.3c0.1-0.1,0.2-0.2,0.3-0.3c0.6-0.6,0.9-1.6,0.6-2.4c-0.6-2.1-1.8-3.2-3.9-4      c-2.3-0.8-4.3-2.2-6.7-2.3c-6.1-0.3-10,1.6-12.4,7.2c-1.6,3.7-1.3,10.5,3,12.5c2.3,1.1,5.3,0.1,7.7,0.3c3,0.2,5.5-0.2,8.3-1.5      c4.1-1.9,8.1-6.5,5.7-11.2c-2.2-4.6-11.5-3.4-15.5-2.8c-4,0.7-8,4.7-5,8.8c3.6,4.8,12.1-0.5,16.1-1.9c-1.3-0.5-2.6-1.1-4-1.6      c0.1,0.2,0.3,0.4,0.4,0.7c-0.1-0.9-0.2-1.8-0.4-2.7c-0.1,0.5-0.3,1-0.6,1.5c-0.8,1.4-0.2,1.4,1.9,0.1c0.7,0.5,1.3,1,2,1.5      c-0.1-0.1-0.1-0.2-0.2-0.4c-0.7-1.4-2.7-1.8-4-1c-0.1,0.1-0.2,0.1-0.4,0.2c-1.6,1-2,2.9-1.2,4.5c0.1,0.2,0.2,0.4,0.3,0.5      c0.7,1.4,2.6,2,4,1.6c3.7-1,6.2-6.8,4.1-10.1c-0.8-1.2-2.5-2.1-4-1.6c-1.9,0.7-3.7,1.3-5.6,2c-1,0.3-3.7,1.9-4.7,1.5      c0.7,0.5,1.4,1.1,2.1,1.6c-0.8,1.8-0.4,2.3,1.3,1.6c1-0.1,2-0.1,3-0.1c1.9,0,3.9,0,5.7,0.6c-0.7-0.5-1.4-1.1-2.1-1.6      c1,1.5-3.5,2.9-4.3,3.1c-1.6,0.4-3.1,0-4.7-0.1c-0.6,0-4.2-0.2-3.2,0.6c-1.3-1-0.3-3.7,0.2-4.8c1.6-3.2,5.6-2.5,8.3-1.8      c2.1,0.5,3.8,1.5,5.8,2.2C229.7,456,230.4,455.7,230.8,455.3L230.8,455.3z"
   id="path1489" />
			</g>
		</g>
		<g
   class="st11"
   id="g1493">
			<g
   id="g1492">
				<path
   class="st3"
   d="M207.9,453.9c0.2-0.2,0.4-0.3-0.1,0c-0.1,0.1-0.2,0.1-0.4,0.2c0.3-0.1,0.5-0.2,0.7-0.3      c1.1-0.7,1.6-2,1.1-3.3c-0.5-1.1-1.8-1.9-3.1-1.5c-1,0.3-1.7,1-2.2,1.9c-0.6,1.1-0.4,2.5,0.6,3.2      C205.5,454.8,207.1,454.9,207.9,453.9L207.9,453.9z"
   id="path1491" />
			</g>
		</g>
		<g
   id="g1508">
			<g
   id="g1495">
				<g
   id="g1494">
					<path
   d="M235.6,454.4c-2.6-5-9.2-7.5-14.5-8.2c-5.4-0.7-11.2,1.2-13.3,6.6c-1.6,4.2-2.7,11.4,2.4,13.7c2.6,1.2,6.1,1,8.9,0.9       c3.1-0.1,6.3-0.3,9.3-1.4c5.1-1.8,9.3-7.2,6.5-12.6c-0.4-0.8-1.6-0.1-1.2,0.7c3.5,6.8-5,11-10.4,11.6c-2.8,0.3-5.8,0.4-8.6,0.2       c-3.8-0.2-6.6-1.8-6.7-6c-0.1-6.4,3.1-12.2,10-12.6c5.6-0.3,13.7,2.4,16.4,7.6C234.8,455.9,236,455.2,235.6,454.4L235.6,454.4z       "
   id="path1493" />
				</g>
			</g>
			<g
   id="g1497">
				<g
   id="g1496">
					<path
   d="M230.9,449.5c-1.3-2-6.4-8.9-1.6-10.1c5.3-1.3,2.4,7.6,1.8,9.8c-0.3,0.9,1.1,1.2,1.3,0.4c1-3.3,3.6-12.3-3-11.6       c-2,0.2-3.3,1.9-3.5,3.9c-0.3,3.1,2.1,5.9,3.7,8.3C230.2,450.9,231.4,450.2,230.9,449.5L230.9,449.5z"
   id="path1495" />
				</g>
			</g>
			<g
   id="g1499">
				<g
   id="g1498">
					<path
   d="M233,449.3c-0.5-2.3,0.6-4.8,1.9-6.7c1.3-1.8,4.1-3.8,6.1-1.8c2.2,2.2-1.4,5-3,6.1c-1.8,1.2-3.9,1.9-6,2.3       c-0.9,0.2-0.5,1.5,0.4,1.3c3.3-0.7,7-2.2,9.2-4.9c1.6-1.9,2.2-4.7-0.1-6.3c-5.7-3.8-10.9,5.6-9.9,10.2       C231.8,450.5,233.2,450.2,233,449.3L233,449.3z"
   id="path1497" />
				</g>
			</g>
			<g
   id="g1501">
				<g
   id="g1500">
					<path
   d="M226.4,453.3c-0.3,0.5-0.5,1-0.3,1.5c0.2,0.5,0.7,0.8,1.2,0.7c0.9-0.2,1.1-1.7,0.1-1.9c-0.4-0.1-0.7,0.1-0.9,0.5       c-0.4,0.9,0.8,1.9,1.6,1.3c0.8-0.5,0.5-1.9-0.4-2c-0.4-0.1-0.7,0.1-0.9,0.5c-0.1,0.3,0.1,0.8,0.5,0.9c-0.1-0.1-0.1-0.1-0.1-0.2       c0.4-0.4,0.6-0.4,0.7-0.1c-0.3,0.2-0.6,0.3-0.9,0.5c0,0,0.5-0.8,0.6-1C228.1,453.3,226.9,452.6,226.4,453.3L226.4,453.3z"
   id="path1499" />
				</g>
			</g>
			<g
   id="g1503">
				<g
   id="g1502">
					<path
   d="M231,453.3c-0.4,0.6-0.4,1.2,0,1.7c0.2-0.4,0.5-0.8,0.7-1.2c-0.7-0.2-1.4,0.2-1.6,0.9c-0.1,0.4,0.2,0.9,0.7,0.9       c0.3,0,0.5-0.1,0.8-0.1c0.4,0,0.7-0.3,0.7-0.7c0-0.3-0.3-0.7-0.7-0.7c-0.3,0-0.5,0.1-0.8,0.1c0.2,0.3,0.4,0.6,0.7,0.9       c0,0-0.1,0.1-0.2,0.1c0.7,0.2,1.1-0.7,0.7-1.2c0,0.1,0,0.2,0,0.3c0.2-0.3,0.3-0.7,0-1C231.7,453.1,231.2,453,231,453.3       L231,453.3z"
   id="path1501" />
				</g>
			</g>
			<g
   id="g1505">
				<g
   id="g1504">
					<path
   d="M227.4,460.3c2.2,0.3,4.3-0.4,5.8-2c0.6-0.7-0.4-1.7-1-1c-1.1,1.3-2.8,1.9-4.5,1.7       C226.8,458.9,226.5,460.2,227.4,460.3L227.4,460.3z"
   id="path1503" />
				</g>
			</g>
			<g
   id="g1507">
				<g
   id="g1506">
					<path
   d="M210.1,451.5c0.4-1.9-1.4-3.6-3.3-3.3c-2.1,0.3-3.5,2.5-3.8,4.4c-0.3,2,0.8,3.7,3,3.4c2.3-0.3,4.1-2,4.7-4.2       c0.3-0.9-1.1-1.2-1.3-0.4c-0.3,1.1-1.1,2.1-2.1,2.7c-1.2,0.7-3,0.8-2.9-1c0.1-1.1,0.7-2.2,1.4-2.9c0.5-0.5,1.1-0.8,1.8-0.6       c0.7,0.2,1.3,0.8,1.2,1.5C208.6,452,209.9,452.4,210.1,451.5L210.1,451.5z"
   id="path1505" />
				</g>
			</g>
		</g>
	</g>
	<g
   id="g1534">
		<g
   class="st11"
   id="g1511">
			<g
   id="g1510">
				<path
   class="st5"
   d="M228.9,485.7c-3-0.8-5.8-0.5-8.6,0.8c-2.5,1.1-6.1,2.9-7.6,5.2c-2.8,4.2,1,9.4,4.7,11.2      c4.5,2.2,11.4,2.3,15.7-0.5c4.4-2.9,5.7-9.2,2.2-13.3c-4.1-4.9-11.7-1.6-16.4,0.7c-4.6,2.2-5.7,8.2-0.4,10.6      c3.9,1.8,12.1,1.3,14.6-2.9c1.2-2,0.7-4.8-1.3-6.1c-2.4-1.5-5.5-0.5-7.7,0.8c-2.3,1.4-2.4,6,0.8,6.5c1.4,0.2,2.4,0.3,3.8-0.2      c4.4-1.5,2.5-8.5-1.9-7c-0.3,0.1-0.6,0.1-0.9,0.2c0.6,2.2,1.2,4.4,1.8,6.6c0.4-0.2,0.9-0.3,1.3-0.5c-0.7-0.5-1.4-1.1-2.1-1.6      c0.1,0.2,0.2,0.4,0.3,0.6c-0.1-0.9-0.2-1.8-0.4-2.7c0.2-0.8-0.2-0.9-1.2-0.2c-1,0.2-1.9,0.3-2.9,0.2c-1.5,2-1.4,2.5,0.2,1.5      c0.8-0.3,1.6-0.6,2.4-0.9c0.9-0.3,3.9-1.8,4.7-1c1.8,1.5-1.6,3.5-2.6,3.8c-1.9,0.6-10.6,0.9-9.8-2.9c0.1-0.7,3.7-2.4,4.3-2.7      c2-1,4-1.5,6.3-1.4C231.1,490.7,231.7,486.5,228.9,485.7L228.9,485.7z"
   id="path1509" />
			</g>
		</g>
		<g
   class="st11"
   id="g1513">
			<g
   id="g1512">
				<path
   class="st5"
   d="M231.4,478.1c-0.5-0.7-1.5-0.8-2.3-0.6c-0.3,0.1-0.6,0.2-0.8,0.4c-0.2,0.1-0.3,0.2-0.5,0.4      c-0.4,0.3-0.2,0.2,0.7-0.4c-0.9,0.2-1.8,1.1-2,2c-0.3,1.4-0.3,2.8,0.5,4c0.9,1.3,2.4,2,3.9,1.8c1.6-0.2,2.8-1.5,3.1-3.1      c0.2-1.2,0.1-2.3,0-3.5c-0.1-1.8-1.6-3.3-3.5-3c-1.9,0.3-2.9,2-2.5,3.8c0,0.2,0.1,0.5,0.1,0.8c0-0.3,0-0.4,0,0      c0,0.3,0,0.5,0.1,0.8c0,0.1,0,0.1,0,0.2c0,0.3,0,0.3,0,0c0-0.4,0.3-0.7,0.8-0.9c0.4-0.7,1-1,1.8-0.7c0.5,0.1,0.9,0.5,1.1,1      c0.1,0.2,0,0.7,0.1,0.3c0-0.2,0-0.4,0-0.7c0-1-0.6-2-1.4-2.4c0,0,0,0-0.1,0c0.3,0.3,0.6,0.6,1,1c0,0,0-0.1-0.1-0.1      c0.1,0.4,0.2,0.9,0.3,1.3c0,0,0-0.3,0-0.3c-0.1,0.2-0.1,0.5-0.2,0.7c0.2-0.2,0.2-0.5,0.3-0.8C232,479.1,231.8,478.6,231.4,478.1      L231.4,478.1z"
   id="path1511" />
			</g>
		</g>
		<g
   class="st11"
   id="g1515">
			<g
   id="g1514">
				<path
   class="st5"
   d="M237.9,479.8c-1.3-0.2-2.6,0.2-3.9,0.7c-0.6,0.3-1.3,0.5-1.9,0.9c-1.2,0.7-1.7,1.6-1.8,2.9      c-0.1,1.2,0.9,2.3,2,2.6c1.7,0.6,2.8-0.6,4.2-1.4c1-0.6,2-1.1,3-1.9c0.7-0.5,0.8-1.8,0.5-2.5      C239.6,480.3,238.9,479.9,237.9,479.8L237.9,479.8z"
   id="path1513" />
			</g>
		</g>
		<g
   class="st11"
   id="g1517">
			<g
   id="g1516">
				<path
   class="st5"
   d="M210.8,492c-0.4-1.4-1.8-2.1-3.2-1.8c-0.8,0.2-1.7,1-1.9,1.9c0,0,0,0,0,0.1c-0.2,1.1,0.1,2.5,1.3,3.1      c0.5,0.2,0.9,0.4,1.5,0.4c0,0,0.1,0,0.1,0c1.1-0.1,1-0.1-0.4-0.1c1.6,0.3,3.2-0.6,3.5-2.3c0.2-1.6-1-3.2-2.7-3.2      c-0.4,0-0.8,0.1-1.2,0.2c0.5,0,1,0,1.5,0c-0.3-0.1-0.1,0,0.5,0.2c0.3,0.3,0.6,0.6,0.9,0.9c0,0,0,0,0,0c0.1,0.7,0.2,1.3,0.3,2      C211,493,210.9,492.3,210.8,492L210.8,492z"
   id="path1515" />
			</g>
		</g>
		<g
   id="g1519">
			<g
   id="g1518">
				<path
   d="M235.6,489.1c-7.2-12-33.4,2.8-21.8,12.9c5.2,4.5,14.5,4.5,19.9,0.5c5.1-3.8,5.8-11.3,0.6-15.2      c-0.7-0.6-1.4,0.7-0.7,1.2c6.3,4.8,1.7,12.7-4.3,14.7c-4.1,1.3-9.3,1-13-1.2c-12.9-7.8,11.4-23.2,18.1-12.1      C234.9,490.6,236.1,489.9,235.6,489.1L235.6,489.1z"
   id="path1517" />
			</g>
		</g>
		<g
   id="g1521">
			<g
   id="g1520">
				<path
   d="M205,493.2c-0.3,1.9,1.3,3.1,3.1,3c1.7-0.1,4.4-1.1,4.6-3c0.2-1.6-1.2-3.1-2.7-3.5c-2.2-0.6-4.3,1.1-5.8,2.4      c-0.7,0.6,0.3,1.6,1,1c1.4-1.1,3.8-3.1,5.5-1.4c1.1,1.1,0.2,2.1-1,2.6c-0.8,0.3-3.7,1.2-3.4-0.7      C206.6,492.7,205.2,492.3,205,493.2L205,493.2z"
   id="path1519" />
			</g>
		</g>
		<g
   id="g1523">
			<g
   id="g1522">
				<path
   d="M232,486.2c-2.6-1.3-6.2-5.5-3.3-8.2c2.6-2.4,4.2,1.2,3.9,3.4c-0.2,1.7-1,3.3-1.6,4.9c-0.3,0.9,1.1,1.2,1.4,0.4      c1-2.7,2.7-5.9,1.2-8.7c-1-1.8-3-2.7-4.9-1.7c-5.2,2.6-1.1,9.5,2.6,11.3C232.1,487.9,232.8,486.6,232,486.2L232,486.2z"
   id="path1521" />
			</g>
		</g>
		<g
   id="g1525">
			<g
   id="g1524">
				<path
   d="M232.2,485.8c0.7-1.5,1.6-3.1,2.8-4.3c0.7-0.7,1.6-1.4,2.6-1.5c1.5-0.1,2.4,1,1.9,2.5c-1,3-5.1,4.1-7.8,3.1      c-0.9-0.3-1.2,1.1-0.4,1.4c2.2,0.8,4.6,0.5,6.6-0.7c1.7-1,3.7-3.2,3.2-5.4c-0.5-2-2.9-2.7-4.6-2.2c-2.7,0.9-4.4,3.9-5.6,6.3      C230.5,485.9,231.8,486.6,232.2,485.8L232.2,485.8z"
   id="path1523" />
			</g>
		</g>
		<g
   id="g1527">
			<g
   id="g1526">
				<path
   d="M232.1,489.4c-1.5-0.6-2,2.5-0.1,2.2c0.4-0.1,0.6-0.5,0.5-0.9c-0.1-0.4-0.5-0.6-0.9-0.5c0.3,0,0.5,0.1,0.6,0.3      c0,0,0,0,0,0c0,0.1-0.1,0.2-0.2,0.3c-0.1,0-0.3,0-0.4,0c0,0,0.1,0,0.1,0c0.4,0.1,0.8-0.2,0.9-0.5      C232.7,489.9,232.4,489.6,232.1,489.4L232.1,489.4z"
   id="path1525" />
			</g>
		</g>
		<g
   id="g1529">
			<g
   id="g1528">
				<path
   d="M225.7,495.7c-0.6,3.8,3.9,5.7,6.7,3.3c0.8-0.7,2.4-2.7,1.4-3.9c-0.6-0.6-1.8-0.5-2.6-0.5c-1.4-0.1-2.8-0.3-4.2-0.4      c-0.9-0.1-0.9,1.4,0,1.4c1.2,0.1,2.4,0.2,3.6,0.3c0.4,0,1.2,0,1.6,0.1c0.5-0.2,0.5,0,0.2,0.5c-0.1,0.2-0.2,0.4-0.4,0.6      c-0.6,0.8-1.6,1.5-2.6,1.5c-1.3,0-2.6-1.3-2.3-2.7C227.2,495.1,225.8,494.8,225.7,495.7L225.7,495.7z"
   id="path1527" />
			</g>
		</g>
		<g
   id="g1531">
			<g
   id="g1530">
				<path
   d="M232.6,489.7c-0.2,0-0.4,0-0.6,0.1c-0.5,0.2-0.8,1-0.2,1.3c0.3,0.1,0.5,0.2,0.8,0.2c-0.2-0.4-0.4-0.7-0.6-1.1      c0,0.1-0.1,0.1-0.1,0.2c-0.3,0.5,0.1,1,0.6,1.1c0.3,0,0.6-0.1,0.8-0.3c0.5-0.5,0.1-1.2-0.5-1.2c-0.4,0-0.7,0.2-0.8,0.5      c-0.3,0.6,0.3,1.4,1,1c0.3-0.2,0.5-0.5,0.5-0.9c-0.1-0.9-1.5-0.9-1.4,0c0.1-0.1,0.2-0.2,0.2-0.4c0.3,0.3,0.7,0.7,1,1      c-0.1,0.1-0.3,0.2-0.4,0.2c-0.2-0.4-0.3-0.8-0.5-1.2c0.1,0,0.1-0.1,0.2-0.1c0.2,0.4,0.4,0.7,0.6,1.1c0-0.1,0.1-0.1,0.1-0.2      c0.3-0.5-0.1-1.1-0.6-1.1c0,0,0,0,0,0c-0.1,0.4-0.1,0.9-0.2,1.3c0.1-0.1,0.1-0.1,0.2,0C233.5,491.2,233.5,489.7,232.6,489.7      L232.6,489.7z"
   id="path1529" />
			</g>
		</g>
		<g
   id="g1533">
			<g
   id="g1532">
				<path
   d="M228.9,490.9c-0.3-0.6-0.7-1.1-1.4-1.1c-0.7,0-1.5,0.5-2.1,0.9c-0.8,0.5-0.1,1.7,0.7,1.2c0.4-0.2,0.7-0.4,1.1-0.6      c0.3-0.1,0.3,0,0.5,0.3C228,492.5,229.3,491.7,228.9,490.9L228.9,490.9z"
   id="path1531" />
			</g>
		</g>
	</g>
	<g
   id="g1555">
		<g
   class="st11"
   id="g1536">
			<g
   id="g1535">
				<path
   class="st4"
   d="M211.6,523.6c-0.6-1.2-2.1-1.8-3.4-1.5c-1.1,0.3-1.8,1.4-1.6,2.5c0.2,1.2,1.1,1.9,2.2,2      c1.2,0.1,2.4,0,3.5-0.5c0.9-0.4,1.3-1.7,1.1-2.6c-0.3-0.9-1.2-1.7-2.2-1.7c-0.3,0-0.6,0.1-1,0.1c-0.1,0-0.2,0-0.4,0.1      c0.3,0,0.3,0,0.2,0c-0.4,0-0.8,0-1.2,0c0.2,1.5,0.4,3,0.6,4.5c0.2-0.1,0.5-0.2,0.7-0.3c-0.1,0.1-0.3,0.2-0.5,0.2      c-0.2,0-0.2,0,0,0c-0.3-0.1-0.4-0.1-0.2,0c0.7,0.2,1.6-0.1,2-0.7C212,525.1,212,524.3,211.6,523.6L211.6,523.6z"
   id="path1534" />
			</g>
		</g>
		<g
   class="st11"
   id="g1538">
			<g
   id="g1537">
				<path
   class="st4"
   d="M215.6,526.4c3.2,0.5,6.5,0.1,9.4,1.7c2.7,1.4,3.8,3.3,2.5,6.2c-1.1,2.4-3.1,3.8-5.8,3.1      c-1.6-0.4-3.6-1-5-2c-2-1.4-1.8-4.4,0.6-5.2c1.1-0.4,4.1,0.2,4.9,1.1c1.2,1.2,0.4,1.3-1,1.3c-1.2,0-3-1.1-2.9,1      c0.3-0.8,0.7-1.6,1-2.4c-0.1,0.1-0.2,0.2-0.3,0.3c1.8,0.2,3.5,0.5,5.3,0.7c-0.2-0.5-0.4-1-0.6-1.4c-1.9,0.8-3.9,1.6-5.8,2.4      c0.1,0.1,0.3,0.3,0.4,0.4c2,3.9,7.8,0.5,5.9-3.4c-0.4-0.8-0.8-1.3-1.4-1.8c-2-1.7-6-0.8-5.8,2.4c0.1,1.9,0.5,3.3,1.6,4.8      c1.1,1.6,3.8,2.5,5.3,0.7c2.8-3.5,0.1-9.3-4-10.5c-4.7-1.4-8.4,3.2-6.9,7.6c1.5,4.5,7.3,6.9,11.7,5.5c4.1-1.4,6.6-6.3,4.3-10.3      c-2.1-3.6-9.2-6.2-13.2-5.4c-4.4,0.9-7.9,7-6.9,11.3c1.1,5,6.3,7.1,10.7,8.3c5.7,1.5,9.5-0.2,12.5-5.2      c3.2-5.3,2.3-10.1-2.9-13.7c-4-2.8-10.4-4.2-14.3-0.5C214.1,524.4,214.4,526.2,215.6,526.4L215.6,526.4z"
   id="path1536" />
			</g>
		</g>
		<g
   class="st11"
   id="g1540">
			<g
   id="g1539">
				<path
   class="st4"
   d="M236,524c1.5-2.5,2.8-7.4-0.7-9.1c-1-0.5-2.7-0.6-3.5,0.4c-0.8,1.1-1.6,2.2-2.2,3.4c1.7,0,3.3,0,5,0      c-0.8-1.5-1.5-3.1-2.3-4.6c-1.5-2.9-6.1-0.9-5.3,2.2c0.4,1.3,0.7,2.6,1.1,3.9c1.2,3.5,6.5,2.1,5.6-1.5c-0.3-1.3-0.8-2.6-1.2-3.9      c-1.8,0.7-3.5,1.5-5.3,2.2c0.8,1.5,1.5,3.1,2.3,4.6c0.9,1.9,4,1.9,5,0c0.5-1,1.1-1.9,1.8-2.8c-1.3,0.3-2.6,0.7-3.9,1      c0.8,0.4-0.6-0.4-0.3-0.6c0,0,0,0.3,0,0.3c-0.3,1-0.4,2.1-0.3,3.1C231.8,525.1,234.8,526.1,236,524L236,524z"
   id="path1538" />
			</g>
		</g>
		<g
   id="g1542">
			<g
   id="g1541">
				<path
   d="M217.3,523.8c4-3.6,12.2-0.4,15.1,3.3c4.3,5.4,0.1,12.5-5.7,14.4c-5,1.7-12.3,0.3-15.9-3.8c-5.3-6.1,1.4-13,7.1-14.9      c0.8-0.3,0.5-1.6-0.4-1.3c-6.3,2.1-13,8.9-8.7,15.9c3.6,5.9,13.3,7.6,19.3,5c6-2.6,9.7-10.4,5.3-16.1      c-3.4-4.4-12.6-7.7-17.2-3.5C215.7,523.5,216.7,524.4,217.3,523.8L217.3,523.8z"
   id="path1540" />
			</g>
		</g>
		<g
   id="g1544">
			<g
   id="g1543">
				<path
   d="M212.5,524.1c-0.5,1.4-2.1,1.4-3.3,1.3c-0.4,0-1.1,0-1.5-0.2c-0.7-0.5-0.5-1.4,0.2-1.9c1.7-1.1,5.1-1.6,5.5,1.1      c0.1,0.9,1.5,0.5,1.3-0.4c-0.3-2-2.3-3.1-4.2-3c-1.7,0.1-4.5,1.1-4.9,3c-0.4,1.9,1.5,2.5,3,2.7c2.1,0.2,4.3-0.1,5.1-2.3      C214.2,523.7,212.9,523.3,212.5,524.1L212.5,524.1z"
   id="path1542" />
			</g>
		</g>
		<g
   id="g1546">
			<g
   id="g1545">
				<path
   d="M232.3,526.7c2.1,0.3,4-2.9,5-4.6c1.2-2,1.8-4.8,0-6.6c-1.3-1.4-3.4-1.4-4.6,0.1c-1.9,2.3-1.4,6.6-1.3,9.3      c0,0.9,1.4,0.9,1.4,0c-0.1-1.7,0-3.4,0.1-5.1c0.1-1.5,1.2-6,3.5-3.1c1.3,1.7,0.4,3.7-0.6,5.2c-0.3,0.5-2.2,3.5-3,3.4      C231.8,525.3,231.5,526.6,232.3,526.7L232.3,526.7z"
   id="path1544" />
			</g>
		</g>
		<g
   id="g1548">
			<g
   id="g1547">
				<path
   d="M233.1,523.9c0.9-2.8-0.1-13.4-5.1-11.7c-2.2,0.7-2.7,3.4-2.2,5.3c0.8,2.7,3,5,5.2,6.6c0.7,0.5,1.4-0.7,0.7-1.2      c-1.4-1-2.6-2.1-3.6-3.6c-0.4-0.7-0.8-1.4-1-2.2c-0.4-1.5,0.4-5.4,3.2-2.7c0.8,0.7,1.1,2.6,1.4,3.6c0.5,1.9,0.7,3.7,0.1,5.5      C231.6,524.4,232.9,524.8,233.1,523.9L233.1,523.9z"
   id="path1546" />
			</g>
		</g>
		<g
   id="g1550">
			<g
   id="g1549">
				<path
   d="M229.4,528.3c0,0,0-0.1-0.1-0.1c0.4-0.1,0.8-0.1,1.2-0.2c-0.1-0.2-0.2-0.4-0.2-0.5c0,0.3-0.1,0.6-0.1,0.8      c-0.2,0.1-0.3,0.1-0.4-0.1c-0.1,0.9,1.3,0.9,1.4,0c0.1-1-1.2-1.5-1.9-0.8c-0.2,0.2-0.2,0.6-0.1,0.8c0.1,0.2,0.2,0.4,0.2,0.5      c0.2,0.5,1.1,0.4,1.2-0.2c0.1-0.6-0.1-1.1-0.6-1.4c-0.3-0.2-0.8,0-0.9,0.2C229,527.7,229.2,528,229.4,528.3L229.4,528.3z"
   id="path1548" />
			</g>
		</g>
		<g
   id="g1552">
			<g
   id="g1551">
				<path
   d="M226.1,528.3c-0.2,0-0.3,0-0.3-0.2c0.3-0.2,0.6-0.3,0.8-0.5c-0.3-0.1-0.4,0.1-0.2,0.8c-0.2,0-0.4,0-0.5-0.1      c0,0,0,0,0.1,0c-0.1-0.1-0.2-0.3-0.3-0.4c0,0,0,0,0,0.1c0.1-0.2,0.1-0.4,0.2-0.7c0.2,0,0.4-0.1,0.6-0.1c0.1,0.3,0.2,0.6,0.2,0.9      c0,0,0,0,0,0c-0.3,0.1-0.5,0.2-0.8,0.3c0.3,0.1,0.6,0.2,0.8,0.3c0.3,0.1,0.7-0.2,0.8-0.5c0.1-0.4-0.1-0.7-0.5-0.8      c-0.3-0.1-0.6-0.2-0.8-0.3c-0.3-0.1-0.6,0.1-0.8,0.3c0,0,0,0,0,0c-0.2,0.3,0,0.7,0.2,0.9c0.3,0.2,0.8,0.1,1-0.1      c0.2-0.2,0.3-0.4,0.2-0.7c-0.2-0.7-1.1-0.8-1.5-0.2c-0.4,0.7,0.2,1.3,0.8,1.4c0.4,0.1,0.7-0.1,0.8-0.5c0.3-1-0.8-1.9-1.7-1.3      C224.6,527.6,225.3,528.8,226.1,528.3L226.1,528.3z"
   id="path1550" />
			</g>
		</g>
		<g
   id="g1554">
			<g
   id="g1553">
				<path
   d="M228.6,531.7c0.1,0.4,0.2,1.1-0.2,1.5c-0.3,0.3-0.8,0.2-1.1,0.1c-0.8-0.3-1.2-1.4-1.5-2.1c-0.3-0.8-1.6-0.5-1.3,0.4      c0.6,1.5,1.4,3.2,3.2,3.2c0.7,0,1.4-0.3,1.8-0.9c0.5-0.7,0.4-1.6,0.3-2.5C229.8,530.4,228.5,530.8,228.6,531.7L228.6,531.7z"
   id="path1552" />
			</g>
		</g>
	</g>
	
	
	
	
	
	
	
	
	
	
	
	
	
	
	
	
	
	
	
	
	
	
	
	
	
	
	
	
	
	
	
	
	
	
	
	
	
	
	
	
	
</g>
</svg>
