<?xml version="1.0" encoding="UTF-8" standalone="no"?>
<!-- Generator: Adobe Illustrator 23.0.3, SVG Export Plug-In . SVG Version: 6.00 Build 0)  -->

<svg
   version="1.1"
   x="0px"
   y="0px"
   viewBox="0 0 372.9 623.6"
   style="enable-background:new 0 0 372.9 623.6;"
   xml:space="preserve"
   id="svg1770"
   sodipodi:docname="time-series_data_allele_freq_s&gt;0.svg"
   inkscape:version="1.3.2 (091e20e, 2023-11-25)"
   xmlns:inkscape="http://www.inkscape.org/namespaces/inkscape"
   xmlns:sodipodi="http://sodipodi.sourceforge.net/DTD/sodipodi-0.dtd"
   xmlns="http://www.w3.org/2000/svg"
   xmlns:svg="http://www.w3.org/2000/svg"><defs
   id="defs1770" /><sodipodi:namedview
   id="namedview1770"
   pagecolor="#ffffff"
   bordercolor="#000000"
   borderopacity="0.25"
   inkscape:showpageshadow="2"
   inkscape:pageopacity="0.0"
   inkscape:pagecheckerboard="0"
   inkscape:deskcolor="#d1d1d1"
   inkscape:zoom="0.82697818"
   inkscape:cx="38.695096"
   inkscape:cy="224.91525"
   inkscape:window-width="1312"
   inkscape:window-height="449"
   inkscape:window-x="62"
   inkscape:window-y="25"
   inkscape:window-maximized="0"
   inkscape:current-layer="Layer_1" />
<style
   type="text/css"
   id="style1">
	.st0{opacity:0.3;fill:#1F77B4;}
	.st1{opacity:0.3;fill:#FF7F0E;}
	.st2{opacity:0.3;fill:#2CA02C;}
	.st3{fill:#1F77B4;}
	.st4{fill:#2CA02C;}
	.st5{fill:#FF7F0E;}
	.st6{fill:#C1272D;}
	.st7{fill:#FCEE21;}
	.st8{fill:#0000FF;}
	.st9{fill:#8CC63F;}
	.st10{fill:none;stroke:#820303;stroke-width:2.0469;stroke-miterlimit:10;}
	.st11{opacity:0.3;}
</style>
<g
   id="Layer_2"
   transform="translate(0,40)">
	
	
	
	
	
	
	
	
	
	
	
	
	
	<g
   id="g15">
		<g
   id="g14">
			<path
   class="st4"
   d="m 94.5,311.1 c 9.5,-0.4 18.2,0.3 27.5,-2.3 9.5,-2.7 18.6,-6.7 27.8,-10.3 9,-3.5 18.3,-6.6 27.1,-10.6 3.7,-1.7 4.6,-4 7.3,-6.6 2.8,-2.6 7.8,-2.5 11.3,-3.7 6.1,-2 9,-6.2 10.6,-12.2 0.8,-3.1 1.4,-6.2 3.7,-8.6 2.3,-2.3 5.1,-3.8 5.6,-7.3 0.3,-2.2 -0.9,-6.4 0.1,-8.3 1.4,-2.5 7.3,-3.6 9.8,-4.5 5.9,-2 12.1,-4.2 14.7,-10.4 0.9,-2.1 1.1,-4.7 2.9,-6.4 1.9,-1.8 5,-2.2 7.5,-2.4 4.5,-0.4 8.9,0.2 13.4,0 6.1,-0.3 13.9,-1.4 16.4,-7.9 1.3,-3.4 -4.1,-4.8 -5.4,-1.5 -2.2,5.8 -15.9,3.7 -20.5,3.7 -5.8,0 -13.1,0.6 -16.6,5.8 -1.9,2.8 -1.9,6.8 -4.4,9.2 -2.6,2.5 -6.6,3.6 -10,4.7 -4.3,1.5 -12,3.2 -13.1,8.5 -0.5,2.2 0.1,4.6 -0.2,6.8 -0.5,4 -3.9,5.2 -6,8.4 -3.2,4.8 -2.2,12.8 -7.6,16 -5.2,3.1 -12.4,1.7 -16.7,6.6 -1.2,1.4 -1.9,3.1 -3.5,4.2 -2,1.4 -4.8,2.1 -7.1,3 -4.8,1.9 -9.6,3.7 -14.4,5.6 -9.4,3.7 -18.8,7.6 -28.3,10.9 -4.9,1.7 -10,3.2 -15.2,3.8 -5.5,0.6 -11,-0.1 -16.5,0.2 -3.7,0.2 -3.8,5.8 -0.2,5.6 z"
   id="path13" />
		</g>
	</g>
	
</g>
<g
   id="Layer_1">
	<g
   id="Слой_8">
	</g>
	<g
   id="Слой_16">
	</g>
	<g
   id="Time_scale">
	</g>
	<g
   id="Now_line">
	</g>
	<g
   id="Слой_10">
	</g>
	<g
   id="Слой_9">
	</g>
	
	
	
	
	
	
	
	
	
	
	
	
	
	
	
	
	
	
	
	
	
	
	
	
	
	
	
	
	
	
	
	
	
	
	
	
	
	
	
	
	
	
	
	
	
	
	
	
	
	
	
	
	
	
	
	
	
	
	
	
	
	
	
	
	
	
	
	
	
	
	
	
	
	
	
	
	
	
	
	
	
	
	
	
	
	
	
	
	
	
	
	
	
	
	
	
	
	
	
	
	
	
	
	
	
	
	
	
	
	
	
	
	
	
	
	
	
	
	
	
	
	
	
	
	
	
	
	
	
	
	
	
	
	
	
	
	
	
	
	
	<g
   id="g1735"
   transform="translate(0,40)">
		<g
   id="g1734">
			<path
   d="m 240.8,193.9 c 3.3,2 6.7,4.1 10,6.1 0.1,-0.8 0.2,-1.6 0.3,-2.4 -3.7,1.4 -7.3,2.9 -11,4.5 -1.6,0.7 -0.2,3 1.3,2.3 3.4,-1.5 6.9,-2.9 10.3,-4.2 1,-0.4 1.4,-1.8 0.3,-2.4 -3.3,-2 -6.7,-4.1 -10,-6.1 -1.3,-1 -2.6,1.3 -1.2,2.2 z"
   id="path1733" />
		</g>
	</g>
	
	
	
	
	<g
   id="g1745"
   transform="translate(0,40)">
		<g
   id="g1744">
			<path
   d="m 256.6,197 c 0,4.8 2.4,12.9 8.6,12.3 6.5,-0.6 7.7,-9.6 7.3,-14.6 -0.3,-4.7 -2.3,-12.8 -8.5,-12.2 -6.8,0.7 -6.7,9.3 -7,14.3 -0.1,1.9 2.9,1.9 3,0 0.2,-2.5 -0.1,-5.6 1,-7.9 1.8,-4 6.7,-1.9 7.7,1.5 0.5,1.6 0.7,3.4 0.8,5.1 0.1,2.2 0.1,7.4 -1.8,8.8 -2.1,0 -4.1,-0.1 -6.2,-0.1 -0.2,-0.4 -0.5,-0.8 -0.7,-1.2 -1.1,-1.6 -1.2,-4.1 -1.2,-6 0,-1.9 -3,-1.9 -3,0 z"
   id="path1743" />
		</g>
	</g>
	<g
   id="g1747"
   transform="translate(0,40)">
		<g
   id="g1746">
			<path
   d="m 233.3,188.1 c -1.6,-7.8 -11.4,-6.5 -13,0.7 -0.8,3.5 1.3,6.7 4.4,8.2 1.9,0.9 4,0.7 5.8,1.5 4.1,1.8 1.8,7.8 -1.5,7.8 -1.7,0 -5.5,0 -6,-2.2 -0.4,-1.9 -3.3,-1.1 -2.9,0.8 1.1,5.8 13.5,6.3 15.8,1 1.1,-2.6 0.1,-6.9 -2,-8.9 -1.1,-1 -2.3,-1.3 -3.7,-1.6 -1.4,-0.3 -3.5,-0.2 -4.6,-1.3 -0.6,-2 -1.2,-4 -1.8,-6.1 1.3,-2.9 3.6,-2.6 6.6,0.8 0.3,2 3.2,1.2 2.9,-0.7 z"
   id="path1745" />
		</g>
	</g>
	
	
	
	
	
	
	
	
<g
   class="st11"
   id="g1396"
   style="opacity:0.3"
   transform="matrix(1.4922959,0,0,1.4922959,-19.643084,-112.01905)">
			<g
   id="g1395">
				<path
   class="st4"
   d="m 211.6,223.6 c -0.6,-1.2 -2.1,-1.8 -3.4,-1.5 -1.1,0.3 -1.8,1.4 -1.6,2.5 0.2,1.2 1.1,1.9 2.2,2 1.2,0.1 2.4,0 3.5,-0.5 0.9,-0.4 1.3,-1.7 1.1,-2.6 -0.3,-0.9 -1.2,-1.7 -2.2,-1.7 -0.3,0 -0.6,0.1 -1,0.1 -0.1,0 -0.2,0 -0.4,0.1 0.3,0 0.3,0 0.2,0 -0.4,0 -0.8,0 -1.2,0 0.2,1.5 0.4,3 0.6,4.5 0.2,-0.1 0.5,-0.2 0.7,-0.3 -0.1,0.1 -0.3,0.2 -0.5,0.2 -0.2,0 -0.2,0 0,0 -0.3,-0.1 -0.4,-0.1 -0.2,0 0.7,0.2 1.6,-0.1 2,-0.7 0.6,-0.6 0.6,-1.4 0.2,-2.1 z"
   id="path1394"
   style="fill:#2ca02c" />
			</g>
		</g><g
   class="st11"
   id="g1398"
   style="opacity:0.3"
   transform="matrix(1.4922959,0,0,1.4922959,-19.643084,-112.01905)">
			<g
   id="g1397">
				<path
   class="st4"
   d="m 215.6,226.4 c 3.2,0.5 6.5,0.1 9.4,1.7 2.7,1.4 3.8,3.3 2.5,6.2 -1.1,2.4 -3.1,3.8 -5.8,3.1 -1.6,-0.4 -3.6,-1 -5,-2 -2,-1.4 -1.8,-4.4 0.6,-5.2 1.1,-0.4 4.1,0.2 4.9,1.1 1.2,1.2 0.4,1.3 -1,1.3 -1.2,0 -3,-1.1 -2.9,1 0.3,-0.8 0.7,-1.6 1,-2.4 -0.1,0.1 -0.2,0.2 -0.3,0.3 1.8,0.2 3.5,0.5 5.3,0.7 -0.2,-0.5 -0.4,-1 -0.6,-1.4 -1.9,0.8 -3.9,1.6 -5.8,2.4 0.1,0.1 0.3,0.3 0.4,0.4 2,3.9 7.8,0.5 5.9,-3.4 -0.4,-0.8 -0.8,-1.3 -1.4,-1.8 -2,-1.7 -6,-0.8 -5.8,2.4 0.1,1.9 0.5,3.3 1.6,4.8 1.1,1.6 3.8,2.5 5.3,0.7 2.8,-3.5 0.1,-9.3 -4,-10.5 -4.7,-1.4 -8.4,3.2 -6.9,7.6 1.5,4.5 7.3,6.9 11.7,5.5 4.1,-1.4 6.6,-6.3 4.3,-10.3 -2.1,-3.6 -9.2,-6.2 -13.2,-5.4 -4.4,0.9 -7.9,7 -6.9,11.3 1.1,5 6.3,7.1 10.7,8.3 5.7,1.5 9.5,-0.2 12.5,-5.2 3.2,-5.3 2.3,-10.1 -2.9,-13.7 -4,-2.8 -10.4,-4.2 -14.3,-0.5 -0.8,1 -0.5,2.8 0.7,3 z"
   id="path1396"
   style="fill:#2ca02c" />
			</g>
		</g><g
   class="st11"
   id="g1400"
   style="opacity:0.3"
   transform="matrix(1.4922959,0,0,1.4922959,-19.643084,-112.01905)">
			<g
   id="g1399">
				<path
   class="st4"
   d="m 236,224 c 1.5,-2.5 2.8,-7.4 -0.7,-9.1 -1,-0.5 -2.7,-0.6 -3.5,0.4 -0.8,1.1 -1.6,2.2 -2.2,3.4 1.7,0 3.3,0 5,0 -0.8,-1.5 -1.5,-3.1 -2.3,-4.6 -1.5,-2.9 -6.1,-0.9 -5.3,2.2 0.4,1.3 0.7,2.6 1.1,3.9 1.2,3.5 6.5,2.1 5.6,-1.5 -0.3,-1.3 -0.8,-2.6 -1.2,-3.9 -1.8,0.7 -3.5,1.5 -5.3,2.2 0.8,1.5 1.5,3.1 2.3,4.6 0.9,1.9 4,1.9 5,0 0.5,-1 1.1,-1.9 1.8,-2.8 -1.3,0.3 -2.6,0.7 -3.9,1 0.8,0.4 -0.6,-0.4 -0.3,-0.6 0,0 0,0.3 0,0.3 -0.3,1 -0.4,2.1 -0.3,3.1 0,2.5 3,3.5 4.2,1.4 z"
   id="path1398"
   style="fill:#2ca02c" />
			</g>
		</g><g
   id="g1402"
   transform="matrix(1.4922959,0,0,1.4922959,-19.643084,-112.01905)">
			<g
   id="g1401">
				<path
   d="m 217.3,223.8 c 4,-3.6 12.2,-0.4 15.1,3.3 4.3,5.4 0.1,12.5 -5.7,14.4 -5,1.7 -12.3,0.3 -15.9,-3.8 -5.3,-6.1 1.4,-13 7.1,-14.9 0.8,-0.3 0.5,-1.6 -0.4,-1.3 -6.3,2.1 -13,8.9 -8.7,15.9 3.6,5.9 13.3,7.6 19.3,5 6,-2.6 9.7,-10.4 5.3,-16.1 -3.4,-4.4 -12.6,-7.7 -17.2,-3.5 -0.5,0.7 0.5,1.6 1.1,1 z"
   id="path1400" />
			</g>
		</g><g
   id="g1404"
   transform="matrix(1.4922959,0,0,1.4922959,-19.643084,-112.01905)">
			<g
   id="g1403">
				<path
   d="m 212.5,224.1 c -0.5,1.4 -2.1,1.4 -3.3,1.3 -0.4,0 -1.1,0 -1.5,-0.2 -0.7,-0.5 -0.5,-1.4 0.2,-1.9 1.7,-1.1 5.1,-1.6 5.5,1.1 0.1,0.9 1.5,0.5 1.3,-0.4 -0.3,-2 -2.3,-3.1 -4.2,-3 -1.7,0.1 -4.5,1.1 -4.9,3 -0.4,1.9 1.5,2.5 3,2.7 2.1,0.2 4.3,-0.1 5.1,-2.3 0.5,-0.7 -0.8,-1.1 -1.2,-0.3 z"
   id="path1402" />
			</g>
		</g><g
   id="g1406"
   transform="matrix(1.4922959,0,0,1.4922959,-19.643084,-112.01905)">
			<g
   id="g1405">
				<path
   d="m 232.3,226.7 c 2.1,0.3 4,-2.9 5,-4.6 1.2,-2 1.8,-4.8 0,-6.6 -1.3,-1.4 -3.4,-1.4 -4.6,0.1 -1.9,2.3 -1.4,6.6 -1.3,9.3 0,0.9 1.4,0.9 1.4,0 -0.1,-1.7 0,-3.4 0.1,-5.1 0.1,-1.5 1.2,-6 3.5,-3.1 1.3,1.7 0.4,3.7 -0.6,5.2 -0.3,0.5 -2.2,3.5 -3,3.4 -1,0 -1.3,1.3 -0.5,1.4 z"
   id="path1404" />
			</g>
		</g><g
   id="g1408"
   transform="matrix(1.4922959,0,0,1.4922959,-19.643084,-112.01905)">
			<g
   id="g1407">
				<path
   d="m 233.1,223.9 c 0.9,-2.8 -0.1,-13.4 -5.1,-11.7 -2.2,0.7 -2.7,3.4 -2.2,5.3 0.8,2.7 3,5 5.2,6.6 0.7,0.5 1.4,-0.7 0.7,-1.2 -1.4,-1 -2.6,-2.1 -3.6,-3.6 -0.4,-0.7 -0.8,-1.4 -1,-2.2 -0.4,-1.5 0.4,-5.4 3.2,-2.7 0.8,0.7 1.1,2.6 1.4,3.6 0.5,1.9 0.7,3.7 0.1,5.5 -0.2,0.9 1.1,1.3 1.3,0.4 z"
   id="path1406" />
			</g>
		</g><g
   id="g1410"
   transform="matrix(1.4922959,0,0,1.4922959,-19.643084,-112.01905)">
			<g
   id="g1409">
				<path
   d="m 229.4,228.3 c 0,0 0,-0.1 -0.1,-0.1 0.4,-0.1 0.8,-0.1 1.2,-0.2 -0.1,-0.2 -0.2,-0.4 -0.2,-0.5 0,0.3 -0.1,0.6 -0.1,0.8 -0.2,0.1 -0.3,0.1 -0.4,-0.1 -0.1,0.9 1.3,0.9 1.4,0 0.1,-1 -1.2,-1.5 -1.9,-0.8 -0.2,0.2 -0.2,0.6 -0.1,0.8 0.1,0.2 0.2,0.4 0.2,0.5 0.2,0.5 1.1,0.4 1.2,-0.2 0.1,-0.6 -0.1,-1.1 -0.6,-1.4 -0.3,-0.2 -0.8,0 -0.9,0.2 -0.1,0.4 0.1,0.7 0.3,1 z"
   id="path1408" />
			</g>
		</g><g
   id="g1412"
   transform="matrix(1.4922959,0,0,1.4922959,-19.643084,-112.01905)">
			<g
   id="g1411">
				<path
   d="m 226.1,228.3 c -0.2,0 -0.3,0 -0.3,-0.2 0.3,-0.2 0.6,-0.3 0.8,-0.5 -0.3,-0.1 -0.4,0.1 -0.2,0.8 -0.2,0 -0.4,0 -0.5,-0.1 0,0 0,0 0.1,0 -0.1,-0.1 -0.2,-0.3 -0.3,-0.4 0,0 0,0 0,0.1 0.1,-0.2 0.1,-0.4 0.2,-0.7 0.2,0 0.4,-0.1 0.6,-0.1 0.1,0.3 0.2,0.6 0.2,0.9 0,0 0,0 0,0 -0.3,0.1 -0.5,0.2 -0.8,0.3 0.3,0.1 0.6,0.2 0.8,0.3 0.3,0.1 0.7,-0.2 0.8,-0.5 0.1,-0.4 -0.1,-0.7 -0.5,-0.8 -0.3,-0.1 -0.6,-0.2 -0.8,-0.3 -0.3,-0.1 -0.6,0.1 -0.8,0.3 0,0 0,0 0,0 -0.2,0.3 0,0.7 0.2,0.9 0.3,0.2 0.8,0.1 1,-0.1 0.2,-0.2 0.3,-0.4 0.2,-0.7 -0.2,-0.7 -1.1,-0.8 -1.5,-0.2 -0.4,0.7 0.2,1.3 0.8,1.4 0.4,0.1 0.7,-0.1 0.8,-0.5 0.3,-1 -0.8,-1.9 -1.7,-1.3 -0.6,0.7 0.1,1.9 0.9,1.4 z"
   id="path1410" />
			</g>
		</g><g
   id="g1414"
   transform="matrix(1.4922959,0,0,1.4922959,-19.643084,-112.01905)">
			<g
   id="g1413">
				<path
   d="m 228.6,231.7 c 0.1,0.4 0.2,1.1 -0.2,1.5 -0.3,0.3 -0.8,0.2 -1.1,0.1 -0.8,-0.3 -1.2,-1.4 -1.5,-2.1 -0.3,-0.8 -1.6,-0.5 -1.3,0.4 0.6,1.5 1.4,3.2 3.2,3.2 0.7,0 1.4,-0.3 1.8,-0.9 0.5,-0.7 0.4,-1.6 0.3,-2.5 0,-1 -1.3,-0.6 -1.2,0.3 z"
   id="path1412" />
			</g>
		</g></g>
</svg>
