<?xml version="1.0" encoding="UTF-8" standalone="no"?>
<!-- Generator: Adobe Illustrator 23.0.3, SVG Export Plug-In . SVG Version: 6.00 Build 0)  -->

<svg
   version="1.1"
   x="0px"
   y="0px"
   viewBox="0 0 761.1 623.6"
   style="enable-background:new 0 0 761.1 623.6;"
   xml:space="preserve"
   id="svg1770"
   sodipodi:docname="time-series_data_data_t1.svg"
   inkscape:version="1.3.2 (091e20e, 2023-11-25)"
   xmlns:inkscape="http://www.inkscape.org/namespaces/inkscape"
   xmlns:sodipodi="http://sodipodi.sourceforge.net/DTD/sodipodi-0.dtd"
   xmlns="http://www.w3.org/2000/svg"
   xmlns:svg="http://www.w3.org/2000/svg"><defs
   id="defs1770" /><sodipodi:namedview
   id="namedview1770"
   pagecolor="#ffffff"
   bordercolor="#000000"
   borderopacity="0.25"
   inkscape:showpageshadow="2"
   inkscape:pageopacity="0.0"
   inkscape:pagecheckerboard="0"
   inkscape:deskcolor="#d1d1d1"
   inkscape:zoom="0.77924644"
   inkscape:cx="392.68707"
   inkscape:cy="259.2248"
   inkscape:window-width="1384"
   inkscape:window-height="847"
   inkscape:window-x="62"
   inkscape:window-y="25"
   inkscape:window-maximized="1"
   inkscape:current-layer="Layer_1" />
<style
   type="text/css"
   id="style1">
	.st0{opacity:0.3;fill:#1F77B4;}
	.st1{opacity:0.3;fill:#FF7F0E;}
	.st2{opacity:0.3;fill:#2CA02C;}
	.st3{fill:#1F77B4;}
	.st4{fill:#2CA02C;}
	.st5{fill:#FF7F0E;}
	.st6{fill:#C1272D;}
	.st7{fill:#FCEE21;}
	.st8{fill:#0000FF;}
	.st9{fill:#8CC63F;}
	.st10{fill:none;stroke:#820303;stroke-width:2.0469;stroke-miterlimit:10;}
	.st11{opacity:0.3;}
</style>

<g
   id="Layer_1">
	<g
   id="Слой_8">
	</g>
	<g
   id="Слой_16">
	</g>
	<g
   id="Time_scale">
	</g>
	<g
   id="Now_line">
	</g>
	<g
   id="Слой_10">
	</g>
	<g
   id="Слой_9">
	</g>
	
	
	
	
	
	
	
	
	
	
	
	
	
	
	
	
	
	
	
	
	
	
	
	
	
	
	
	
	
	
	
	
	
	
	
	<g
   id="g1048">
		<g
   id="g1043">
			<g
   id="g1042">
				<path
   d="M51.1,319.1c-2.7,9.5-4.8,20-4.6,30c0.2,7,7,6.1,12.3,4.4c1.8-0.6,1-3.5-0.8-2.9c-3.7,1.2-7.5,2.1-8.5-2.5      c-0.6-2.6,0.4-6.8,0.7-9.5c0.7-6.4,2-12.6,3.8-18.8C54.5,318,51.6,317.2,51.1,319.1L51.1,319.1z"
   id="path1041" />
			</g>
		</g>
		<g
   id="g1045">
			<g
   id="g1044">
				<path
   d="M40.8,337.6c5.7-1.5,11.5-1.7,17.3-0.5c1.9,0.4,2.7-2.5,0.8-2.9c-6.3-1.3-12.6-1.1-18.9,0.5      C38.1,335.2,38.9,338.1,40.8,337.6L40.8,337.6z"
   id="path1043" />
			</g>
		</g>
		<g
   id="g1047">
			<g
   id="g1046">
				<path
   d="M62.5,351.2c3.5-2.3,6.2-5.4,7-9.5c-1-0.1-2-0.3-2.9-0.4c-0.1,4.1,0,8.2-0.2,12.3c-0.1,1.1,0.1,1.3-0.8,1.6      c-0.5,0.1-1.2-0.1-1.7-0.1c-1,0-1.8,0.1-2.6,0.7c-1.2,0.8-0.8,2.8,0.8,2.8c3,0,6.1,0,9.1,0.1c1.9,0,1.9-3,0-3      c-3,0-6.1,0-9.1-0.1c0.3,0.9,0.5,1.9,0.8,2.8c2.2-1.5,5.3,1.3,6.5-2.2c0.7-1.9,0.2-4.7,0.3-6.7c0.1-2.7,0.1-5.5,0.2-8.2      c0-1.7-2.6-2.1-2.9-0.4c-0.7,3.4-2.8,5.9-5.6,7.7C59.3,349.7,60.8,352.3,62.5,351.2L62.5,351.2z"
   id="path1045" />
			</g>
		</g>
	</g>
	
	<g
   id="g1052">
		<g
   id="g1051">
			<path
   d="M96.3,341.4c-2.9,0-5.8,0-8.7,0c-1.9,0-1.9,3,0,3c2.9,0,5.8,0,8.7,0C98.3,344.4,98.3,341.4,96.3,341.4L96.3,341.4z"
   id="path1050" />
		</g>
	</g>
	
	
	
	
	
	
	
	
	
	
	
	
	
	
	
	
	
	
	
	
	
	
	
	
	
	
	
	
	
	
	
	
	
	
	
	
	
	
	
	
	
	
	
	
	
	
	
	
	
	
	
	
	
	
	
	
	
	
	
	
	
	
	
	
	
	
	
	
	
	
	
	
	
	
	
	
	
	
	
	
	
	
	
	
	
	
	
	
	
	
	
	
	
	
	
	
	
	
	
	
	
	
	
	
	
	
	
	
	
	
	
	
	
	
	
	
	
</g>
</svg>
