<?xml version="1.0" encoding="UTF-8" standalone="no"?>
<!-- Generator: Adobe Illustrator 23.0.3, SVG Export Plug-In . SVG Version: 6.00 Build 0)  -->

<svg
   version="1.1"
   x="0px"
   y="0px"
   viewBox="0 0 372.9 623.6"
   style="enable-background:new 0 0 372.9 623.6;"
   xml:space="preserve"
   id="svg1770"
   sodipodi:docname="time-series_data_allele_freq_s_0.svg"
   inkscape:version="1.3.2 (091e20e, 2023-11-25)"
   xmlns:inkscape="http://www.inkscape.org/namespaces/inkscape"
   xmlns:sodipodi="http://sodipodi.sourceforge.net/DTD/sodipodi-0.dtd"
   xmlns="http://www.w3.org/2000/svg"
   xmlns:svg="http://www.w3.org/2000/svg"><defs
   id="defs1770" /><sodipodi:namedview
   id="namedview1770"
   pagecolor="#ffffff"
   bordercolor="#000000"
   borderopacity="0.25"
   inkscape:showpageshadow="2"
   inkscape:pageopacity="0.0"
   inkscape:pagecheckerboard="0"
   inkscape:deskcolor="#d1d1d1"
   inkscape:zoom="0.82697818"
   inkscape:cx="94.319296"
   inkscape:cy="336.16365"
   inkscape:window-width="1312"
   inkscape:window-height="449"
   inkscape:window-x="62"
   inkscape:window-y="25"
   inkscape:window-maximized="0"
   inkscape:current-layer="Layer_1" />
<style
   type="text/css"
   id="style1">
	.st0{opacity:0.3;fill:#1F77B4;}
	.st1{opacity:0.3;fill:#FF7F0E;}
	.st2{opacity:0.3;fill:#2CA02C;}
	.st3{fill:#1F77B4;}
	.st4{fill:#2CA02C;}
	.st5{fill:#FF7F0E;}
	.st6{fill:#C1272D;}
	.st7{fill:#FCEE21;}
	.st8{fill:#0000FF;}
	.st9{fill:#8CC63F;}
	.st10{fill:none;stroke:#820303;stroke-width:2.0469;stroke-miterlimit:10;}
	.st11{opacity:0.3;}
</style>
<g
   id="Layer_2">
	
	
	
	
	
	
	
	
	
	
	
	
	<g
   id="g13">
		<g
   id="g12">
			<path
   class="st3"
   d="M97.8,408.8c0.5-6,7.3-4,10.8-2.2c3.3,1.7,6.7,3.6,10.5,3.3c4.2-0.2,6.6-3.4,10.1-4.9     c3.4-1.5,6.1,0.5,8.7,2.7c4.1,3.5,7.9,8.4,13.3,10c5.9,1.7,10.5-1.9,13.9-6.3c3.4-4.3,7.5-12.6,14-8.6c5,3.2,8.1,8.8,12.8,12.3     c4.9,3.6,10.1,3.9,15.3,0.8c3-1.8,5.5-4.5,8.7-6c4.5-2.1,8.9,0.2,13.5,0.6c4.3,0.3,7.4-1.3,10.1-4.6c2-2.4,3.4-4.1,6.6-2.7     c2.4,1.1,4.3,3,6.3,4.6c7.5,6.3,15.9,9.4,25.6,6.4c3.4-1.1,2-6.5-1.5-5.4c-5.4,1.7-10.8,1.2-15.7-1.6c-4-2.3-6.9-6.1-10.9-8.4     c-2.8-1.6-6.1-2.6-9.3-1.3c-4.5,1.9-5.4,7.5-10.8,7.3c-4-0.1-7.7-2-11.8-1.4c-3.8,0.5-6.8,2.7-9.8,5c-2.8,2.1-6.2,5.1-10,3.9     c-3.2-1-5.7-4-7.8-6.4c-3.8-4-8-9.5-13.9-10c-6.3-0.5-10.3,4.7-13.7,9.2c-1.8,2.4-4,6.1-7.1,7.1c-3.4,1-6.4-1.7-8.8-3.8     c-4.1-3.7-8.4-8.9-14.2-9.7c-3.9-0.5-6.7,1.5-9.9,3.5c-6.1,3.9-9.9-0.6-15.7-2.6c-7.1-2.5-14.4,1.4-15.1,9     C91.9,412.4,97.5,412.4,97.8,408.8L97.8,408.8z"
   id="path12" />
		</g>
	</g>
	
	
</g>
<g
   id="Layer_1">
	<g
   id="Слой_8">
	</g>
	<g
   id="Слой_16">
	</g>
	<g
   id="Time_scale">
	</g>
	<g
   id="Now_line">
	</g>
	<g
   id="Слой_10">
	</g>
	<g
   id="Слой_9">
	</g>
	
	
	
	
	
	
	
	
	
	
	
	
	
	
	
	
	
	
	
	
	
	
	
	
	
	
	
	
	
	
	
	
	
	
	
	
	
	
	
	
	
	
	
	
	
	
	
	
	
	
	
	
	
	
	
	
	
	
	
	
	
	
	
	
	
	
	
	
	
	
	
	
	
	
	
	
	
	
	
	
	
	
	
	
	
	
	
	
	
	
	
	
	
	
	
	
	
	
	
	
	
	
	
	
	
	
	
	
	
	
	
	
	
	
	
	
	
	
	
	
	
	
	
	
	
	
	
	
	
	
	
	
	
	
	
	
	
	<g
   id="g1729">
		<g
   id="g1728">
			<path
   d="M249.2,381.7c3.6,0,7.2,0,10.8,0c1.9,0,1.9-3,0-3c-3.6,0-7.2,0-10.8,0C247.3,378.7,247.3,381.7,249.2,381.7L249.2,381.7z     "
   id="path1727" />
		</g>
	</g>
	<g
   id="g1731">
		<g
   id="g1730">
			<path
   d="M249.9,387c3,0,6,0,9.1,0c1.9,0,1.9-3,0-3c-3,0-6,0-9.1,0C248,384,248,387,249.9,387L249.9,387z"
   id="path1729" />
		</g>
	</g>
	<g
   id="g1733">
		<g
   id="g1732">
			<path
   d="M265.1,383.7c0,4.8,2.4,12.9,8.6,12.3c6.5-0.6,7.7-9.6,7.3-14.6c-0.3-4.7-2.3-12.8-8.5-12.2c-6.8,0.7-6.7,9.3-7,14.3     c-0.1,1.9,2.9,1.9,3,0c0.2-2.5-0.1-5.6,1-7.9c1.8-4,6.7-1.9,7.7,1.5c0.5,1.6,0.7,3.4,0.8,5.1c0.1,2.2,0.1,7.4-1.8,8.8     c-2.1,0-4.1-0.1-6.2-0.1c-0.2-0.4-0.5-0.8-0.7-1.2c-1.1-1.6-1.2-4.1-1.2-6C268.1,381.8,265.1,381.8,265.1,383.7L265.1,383.7z"
   id="path1731" />
		</g>
	</g>
	
	
	<g
   id="g1739">
		<g
   id="g1738">
			<path
   d="M241.8,374.8c-1.6-7.8-11.4-6.5-13,0.7c-0.8,3.5,1.3,6.7,4.4,8.2c1.9,0.9,4,0.7,5.8,1.5c4.1,1.8,1.8,7.8-1.5,7.8     c-1.7,0-5.5,0-6-2.2c-0.4-1.9-3.3-1.1-2.9,0.8c1.1,5.8,13.5,6.3,15.8,1c1.1-2.6,0.1-6.9-2-8.9c-1.1-1-2.3-1.3-3.7-1.6     c-1.4-0.3-3.5-0.2-4.6-1.3c-0.6-2-1.2-4-1.8-6.1c1.3-2.9,3.6-2.6,6.6,0.8C239.3,377.5,242.2,376.7,241.8,374.8L241.8,374.8z"
   id="path1737" />
		</g>
	</g>
	
	
	
	
	
	
	
	
	
	
	
	
<g
   id="g1369"
   transform="matrix(1.4922959,0,0,1.4922959,-13.448575,155.67413)">
		<g
   class="st11"
   id="g1347"
   style="opacity:0.3">
			<g
   id="g1346">
				<path
   class="st3"
   d="m 232,143.4 c -1.6,-0.1 -2,1.7 -2.5,2.9 1.3,0.4 2.7,0.7 4,1.1 0.1,-0.4 0.2,-0.7 0.3,-1.1 0.6,-1.9 -1.3,-3.2 -3,-3 -0.2,0 -0.5,0.1 -0.7,0.1 1,0.6 2,1.2 3.1,1.7 -0.2,-1.5 -0.5,-3 -0.7,-4.4 -0.6,-3 -5.5,-2.3 -5.4,0.7 0.1,2.3 1.5,4.8 4.1,4.8 2.1,0 3.1,-2.2 2.3,-3.9 -0.2,-0.4 -0.5,-0.9 -0.9,-1.1 -0.2,-0.1 0,-0.1 0,0.2 -1.8,0.2 -3.6,0.5 -5.4,0.7 0.4,1.4 0.8,2.9 1.2,4.3 0.3,1.2 1.8,2.2 3.1,1.7 0.4,-0.2 0.8,-0.3 1.2,-0.5 -1.2,-0.5 -2.4,-1 -3.6,-1.4 0.1,0.4 0.2,0.7 0.4,1.1 0.7,2.2 4.1,1.8 4.1,-0.5 0,-1.1 0.2,-3.3 -1.6,-3.4 z"
   id="path1345"
   style="fill:#1f77b4" />
			</g>
		</g>
		<g
   class="st11"
   id="g1349"
   style="opacity:0.3">
			<g
   id="g1348">
				<path
   class="st3"
   d="m 234.8,148.2 c 1.1,-0.8 2,-1.7 2.9,-2.6 0.5,-0.5 1.1,-1.3 1.9,-1.3 -0.6,-0.3 -1.3,-0.5 -1.9,-0.8 0.1,0.1 0.1,0.1 0.2,0.2 -0.3,-0.6 -0.5,-1.3 -0.8,-1.9 0,0.1 0,0.2 0,0.3 0.1,-0.5 0.2,-0.9 0.4,-1.4 -0.4,0.8 -2.2,1.7 -3.1,2.2 -1.5,0.9 -3.5,1.4 -3.9,3.4 -0.2,1 0.1,2.3 1.1,2.8 1.6,0.8 2.7,0.4 4.2,-0.4 1,-0.6 2.1,-1.2 3,-1.9 1.9,-1.3 4.4,-3 3.6,-5.7 -0.8,-2.9 -4.3,-2.4 -6.2,-1 -1.8,1.3 -3.2,3.4 -4.1,5.4 -0.4,0.8 -0.4,1.8 0.3,2.4 0.5,0.6 1.6,0.9 2.4,0.3 z"
   id="path1347"
   style="fill:#1f77b4" />
			</g>
		</g>
		<g
   class="st11"
   id="g1351"
   style="opacity:0.3">
			<g
   id="g1350">
				<path
   class="st3"
   d="m 230.8,155.3 c 0.1,-0.1 0.2,-0.2 0.3,-0.3 0.6,-0.6 0.9,-1.6 0.6,-2.4 -0.6,-2.1 -1.8,-3.2 -3.9,-4 -2.3,-0.8 -4.3,-2.2 -6.7,-2.3 -6.1,-0.3 -10,1.6 -12.4,7.2 -1.6,3.7 -1.3,10.5 3,12.5 2.3,1.1 5.3,0.1 7.7,0.3 3,0.2 5.5,-0.2 8.3,-1.5 4.1,-1.9 8.1,-6.5 5.7,-11.2 -2.2,-4.6 -11.5,-3.4 -15.5,-2.8 -4,0.7 -8,4.7 -5,8.8 3.6,4.8 12.1,-0.5 16.1,-1.9 -1.3,-0.5 -2.6,-1.1 -4,-1.6 0.1,0.2 0.3,0.4 0.4,0.7 -0.1,-0.9 -0.2,-1.8 -0.4,-2.7 -0.1,0.5 -0.3,1 -0.6,1.5 -0.8,1.4 -0.2,1.4 1.9,0.1 0.7,0.5 1.3,1 2,1.5 -0.1,-0.1 -0.1,-0.2 -0.2,-0.4 -0.7,-1.4 -2.7,-1.8 -4,-1 -0.1,0.1 -0.2,0.1 -0.4,0.2 -1.6,1 -2,2.9 -1.2,4.5 0.1,0.2 0.2,0.4 0.3,0.5 0.7,1.4 2.6,2 4,1.6 3.7,-1 6.2,-6.8 4.1,-10.1 -0.8,-1.2 -2.5,-2.1 -4,-1.6 -1.9,0.7 -3.7,1.3 -5.6,2 -1,0.3 -3.7,1.9 -4.7,1.5 0.7,0.5 1.4,1.1 2.1,1.6 -0.8,1.8 -0.4,2.3 1.3,1.6 1,-0.1 2,-0.1 3,-0.1 1.9,0 3.9,0 5.7,0.6 -0.7,-0.5 -1.4,-1.1 -2.1,-1.6 1,1.5 -3.5,2.9 -4.3,3.1 -1.6,0.4 -3.1,0 -4.7,-0.1 -0.6,0 -4.2,-0.2 -3.2,0.6 -1.3,-1 -0.3,-3.7 0.2,-4.8 1.6,-3.2 5.6,-2.5 8.3,-1.8 2.1,0.5 3.8,1.5 5.8,2.2 1,0.3 1.7,0 2.1,-0.4 z"
   id="path1349"
   style="fill:#1f77b4" />
			</g>
		</g>
		<g
   class="st11"
   id="g1353"
   style="opacity:0.3">
			<g
   id="g1352">
				<path
   class="st3"
   d="m 207.9,153.9 c 0.2,-0.2 0.4,-0.3 -0.1,0 -0.1,0.1 -0.2,0.1 -0.4,0.2 0.3,-0.1 0.5,-0.2 0.7,-0.3 1.1,-0.7 1.6,-2 1.1,-3.3 -0.5,-1.1 -1.8,-1.9 -3.1,-1.5 -1,0.3 -1.7,1 -2.2,1.9 -0.6,1.1 -0.4,2.5 0.6,3.2 1,0.7 2.6,0.8 3.4,-0.2 z"
   id="path1351"
   style="fill:#1f77b4" />
			</g>
		</g>
		<g
   id="g1368">
			<g
   id="g1355">
				<g
   id="g1354">
					<path
   d="m 235.6,154.4 c -2.6,-5 -9.2,-7.5 -14.5,-8.2 -5.4,-0.7 -11.2,1.2 -13.3,6.6 -1.6,4.2 -2.7,11.4 2.4,13.7 2.6,1.2 6.1,1 8.9,0.9 3.1,-0.1 6.3,-0.3 9.3,-1.4 5.1,-1.8 9.3,-7.2 6.5,-12.6 -0.4,-0.8 -1.6,-0.1 -1.2,0.7 3.5,6.8 -5,11 -10.4,11.6 -2.8,0.3 -5.8,0.4 -8.6,0.2 -3.8,-0.2 -6.6,-1.8 -6.7,-6 -0.1,-6.4 3.1,-12.2 10,-12.6 5.6,-0.3 13.7,2.4 16.4,7.6 0.4,1 1.6,0.3 1.2,-0.5 z"
   id="path1353" />
				</g>
			</g>
			<g
   id="g1357">
				<g
   id="g1356">
					<path
   d="m 230.9,149.5 c -1.3,-2 -6.4,-8.9 -1.6,-10.1 5.3,-1.3 2.4,7.6 1.8,9.8 -0.3,0.9 1.1,1.2 1.3,0.4 1,-3.3 3.6,-12.3 -3,-11.6 -2,0.2 -3.3,1.9 -3.5,3.9 -0.3,3.1 2.1,5.9 3.7,8.3 0.6,0.7 1.8,0 1.3,-0.7 z"
   id="path1355" />
				</g>
			</g>
			<g
   id="g1359">
				<g
   id="g1358">
					<path
   d="m 233,149.3 c -0.5,-2.3 0.6,-4.8 1.9,-6.7 1.3,-1.8 4.1,-3.8 6.1,-1.8 2.2,2.2 -1.4,5 -3,6.1 -1.8,1.2 -3.9,1.9 -6,2.3 -0.9,0.2 -0.5,1.5 0.4,1.3 3.3,-0.7 7,-2.2 9.2,-4.9 1.6,-1.9 2.2,-4.7 -0.1,-6.3 -5.7,-3.8 -10.9,5.6 -9.9,10.2 0.2,1 1.6,0.7 1.4,-0.2 z"
   id="path1357" />
				</g>
			</g>
			<g
   id="g1361">
				<g
   id="g1360">
					<path
   d="m 226.4,153.3 c -0.3,0.5 -0.5,1 -0.3,1.5 0.2,0.5 0.7,0.8 1.2,0.7 0.9,-0.2 1.1,-1.7 0.1,-1.9 -0.4,-0.1 -0.7,0.1 -0.9,0.5 -0.4,0.9 0.8,1.9 1.6,1.3 0.8,-0.5 0.5,-1.9 -0.4,-2 -0.4,-0.1 -0.7,0.1 -0.9,0.5 -0.1,0.3 0.1,0.8 0.5,0.9 -0.1,-0.1 -0.1,-0.1 -0.1,-0.2 0.4,-0.4 0.6,-0.4 0.7,-0.1 -0.3,0.2 -0.6,0.3 -0.9,0.5 0,0 0.5,-0.8 0.6,-1 0.5,-0.7 -0.7,-1.4 -1.2,-0.7 z"
   id="path1359" />
				</g>
			</g>
			<g
   id="g1363">
				<g
   id="g1362">
					<path
   d="m 231,153.3 c -0.4,0.6 -0.4,1.2 0,1.7 0.2,-0.4 0.5,-0.8 0.7,-1.2 -0.7,-0.2 -1.4,0.2 -1.6,0.9 -0.1,0.4 0.2,0.9 0.7,0.9 0.3,0 0.5,-0.1 0.8,-0.1 0.4,0 0.7,-0.3 0.7,-0.7 0,-0.3 -0.3,-0.7 -0.7,-0.7 -0.3,0 -0.5,0.1 -0.8,0.1 0.2,0.3 0.4,0.6 0.7,0.9 0,0 -0.1,0.1 -0.2,0.1 0.7,0.2 1.1,-0.7 0.7,-1.2 0,0.1 0,0.2 0,0.3 0.2,-0.3 0.3,-0.7 0,-1 -0.3,-0.2 -0.8,-0.3 -1,0 z"
   id="path1361" />
				</g>
			</g>
			<g
   id="g1365">
				<g
   id="g1364">
					<path
   d="m 227.4,160.3 c 2.2,0.3 4.3,-0.4 5.8,-2 0.6,-0.7 -0.4,-1.7 -1,-1 -1.1,1.3 -2.8,1.9 -4.5,1.7 -0.9,-0.1 -1.2,1.2 -0.3,1.3 z"
   id="path1363" />
				</g>
			</g>
			<g
   id="g1367">
				<g
   id="g1366">
					<path
   d="m 210.1,151.5 c 0.4,-1.9 -1.4,-3.6 -3.3,-3.3 -2.1,0.3 -3.5,2.5 -3.8,4.4 -0.3,2 0.8,3.7 3,3.4 2.3,-0.3 4.1,-2 4.7,-4.2 0.3,-0.9 -1.1,-1.2 -1.3,-0.4 -0.3,1.1 -1.1,2.1 -2.1,2.7 -1.2,0.7 -3,0.8 -2.9,-1 0.1,-1.1 0.7,-2.2 1.4,-2.9 0.5,-0.5 1.1,-0.8 1.8,-0.6 0.7,0.2 1.3,0.8 1.2,1.5 -0.2,0.9 1.1,1.3 1.3,0.4 z"
   id="path1365" />
				</g>
			</g>
		</g>
	</g></g>
</svg>
