<?xml version="1.0" encoding="UTF-8" standalone="no"?>
<!-- Generator: Adobe Illustrator 23.0.3, SVG Export Plug-In . SVG Version: 6.00 Build 0)  -->

<svg
   version="1.1"
   x="0px"
   y="0px"
   viewBox="0 0 761.1 623.6"
   style="enable-background:new 0 0 761.1 623.6;"
   xml:space="preserve"
   id="svg1770"
   sodipodi:docname="time-series_data_data_t0_data.svg"
   inkscape:version="1.3.2 (091e20e, 2023-11-25)"
   xmlns:inkscape="http://www.inkscape.org/namespaces/inkscape"
   xmlns:sodipodi="http://sodipodi.sourceforge.net/DTD/sodipodi-0.dtd"
   xmlns="http://www.w3.org/2000/svg"
   xmlns:svg="http://www.w3.org/2000/svg"><defs
   id="defs1770" /><sodipodi:namedview
   id="namedview1770"
   pagecolor="#ffffff"
   bordercolor="#000000"
   borderopacity="0.25"
   inkscape:showpageshadow="2"
   inkscape:pageopacity="0.0"
   inkscape:pagecheckerboard="0"
   inkscape:deskcolor="#d1d1d1"
   inkscape:zoom="0.77924644"
   inkscape:cx="392.68707"
   inkscape:cy="259.2248"
   inkscape:window-width="1384"
   inkscape:window-height="847"
   inkscape:window-x="62"
   inkscape:window-y="25"
   inkscape:window-maximized="1"
   inkscape:current-layer="Layer_1" />
<style
   type="text/css"
   id="style1">
	.st0{opacity:0.3;fill:#1F77B4;}
	.st1{opacity:0.3;fill:#FF7F0E;}
	.st2{opacity:0.3;fill:#2CA02C;}
	.st3{fill:#1F77B4;}
	.st4{fill:#2CA02C;}
	.st5{fill:#FF7F0E;}
	.st6{fill:#C1272D;}
	.st7{fill:#FCEE21;}
	.st8{fill:#0000FF;}
	.st9{fill:#8CC63F;}
	.st10{fill:none;stroke:#820303;stroke-width:2.0469;stroke-miterlimit:10;}
	.st11{opacity:0.3;}
</style>
<g
   id="Layer_2">
	<rect
   x="257.2"
   y="139.9"
   class="st0"
   width="199.3"
   height="26.5"
   id="rect1" />
	<rect
   x="257.2"
   y="175.9"
   class="st1"
   width="199.3"
   height="39.4"
   id="rect2" />
	<rect
   x="257.2"
   y="223.9"
   class="st2"
   width="199.3"
   height="16.5"
   id="rect3" />
	
	
	
	
	
	
	
	
	
	
	
	
</g>
<g
   id="Layer_1">
	<g
   id="Слой_8">
	</g>
	<g
   id="Слой_16">
	</g>
	<g
   id="Time_scale">
	</g>
	<g
   id="Now_line">
	</g>
	<g
   id="Слой_10">
	</g>
	<g
   id="Слой_9">
	</g>
	<g
   id="g58">
		<g
   id="g19">
			<g
   id="g18">
				<path
   class="st6"
   d="M278,181.9c0.7,1.5,1,3.1,1.1,4.6c0,0.6,3,0.6,3,0c-0.1-1.6-0.5-3.2-1.2-4.9      C280.6,181,277.7,181.3,278,181.9L278,181.9z"
   id="path17" />
			</g>
		</g>
		<g
   id="g21">
			<g
   id="g20">
				<path
   class="st6"
   d="M284.6,181.1c1.2,2.3,2.5,4.6,3.7,6.9c0.3,0.6,3.2,0.4,2.9-0.3c-1.2-2.3-2.5-4.6-3.7-6.9      C287.1,180.2,284.2,180.4,284.6,181.1L284.6,181.1z"
   id="path19" />
			</g>
		</g>
		<g
   id="g23">
			<g
   id="g22">
				<path
   class="st6"
   d="M339.2,182.5c0.1,1.9,0.3,3.8,0.7,5.7c0.1,0.6,3.1,0.6,3,0c-0.4-1.9-0.7-3.8-0.7-5.7      C342.2,181.8,339.2,181.8,339.2,182.5L339.2,182.5z"
   id="path21" />
			</g>
		</g>
		<g
   id="g25">
			<g
   id="g24">
				<path
   class="st6"
   d="M360.9,182.6c0.7,2,1.2,4.1,2.4,6.1c0.4,0.6,3.3,0.4,2.9-0.3c-1.1-1.9-1.6-3.9-2.3-5.8      C363.7,182,360.7,182,360.9,182.6L360.9,182.6z"
   id="path23" />
			</g>
		</g>
		<g
   id="g27">
			<g
   id="g26">
				<path
   class="st6"
   d="M420.4,179.9c0,1.6,0.6,3.2,1.8,4.8c0.5,0.6,3.4,0.4,2.9-0.3c-1.1-1.5-1.7-3-1.7-4.5      C423.3,179.2,420.3,179.2,420.4,179.9L420.4,179.9z"
   id="path25" />
			</g>
		</g>
		<g
   id="g29">
			<g
   id="g28">
				<path
   class="st7"
   d="M298.9,180.6c1.2,2.6,2.3,5.2,3.1,7.8c0.2,0.6,3.2,0.6,3,0c-0.9-2.7-1.9-5.4-3.2-8.1      C301.4,179.7,298.6,180,298.9,180.6L298.9,180.6z"
   id="path27" />
			</g>
		</g>
		<g
   id="g31">
			<g
   id="g30">
				<path
   class="st7"
   d="M349.9,182.3c0.5,1.4,1.1,2.8,1.6,4.3c0.3,0.9,0,2.3,1.5,3.1c0.5,0.3,1.7,0.4,2.4,0.1c0,0,0.1,0,0.1-0.1      c0.5-0.2,0.7-0.5,0-0.7l-0.1,0c-1.5-0.4-3.6,0.3-2.1,0.7l0.1,0c0-0.2,0-0.5,0-0.7c0,0-0.1,0-0.1,0.1c0.8,0,1.6,0.1,2.4,0.1      c-1.4-0.8-1.1-2.5-1.4-3.4c-0.4-1.2-0.9-2.3-1.3-3.5C352.6,181.6,349.6,181.6,349.9,182.3L349.9,182.3z"
   id="path29" />
			</g>
		</g>
		<g
   id="g33">
			<g
   id="g32">
				<path
   class="st7"
   d="M390,181.7c-0.1,1.4,0,2.8,0.4,4.2c0.2,0.6,3.2,0.6,3,0c-0.4-1.4-0.5-2.8-0.4-4.2      C393.1,181,390.1,181,390,181.7L390,181.7z"
   id="path31" />
			</g>
		</g>
		<g
   id="g35">
			<g
   id="g34">
				<path
   class="st8"
   d="M291.2,180.9c2.4,2.6,4.5,5.3,6.1,7.9c0.4,0.6,3.3,0.4,2.9-0.3c-1.6-2.7-3.7-5.3-6.1-7.9      C293.5,180,290.6,180.3,291.2,180.9L291.2,180.9z"
   id="path33" />
			</g>
		</g>
		<g
   id="g37">
			<g
   id="g36">
				<path
   class="st8"
   d="M331.3,183.3c1,1.4,1.8,2.7,2.6,4.1c0.3,0.6,3.2,0.4,2.9-0.3c-0.7-1.4-1.6-2.8-2.6-4.1      C333.7,182.4,330.8,182.7,331.3,183.3L331.3,183.3z"
   id="path35" />
			</g>
		</g>
		<g
   id="g39">
			<g
   id="g38">
				<path
   class="st8"
   d="M403.4,179.5c0.8,2.4,1.7,4.7,2.5,7.1c0.2,0.6,3.2,0.6,3,0c-0.8-2.4-1.7-4.7-2.5-7.1      C406.2,178.9,403.2,178.8,403.4,179.5L403.4,179.5z"
   id="path37" />
			</g>
		</g>
		<g
   id="g41">
			<g
   id="g40">
				<path
   class="st8"
   d="M427.5,180.4c0.4,1,0.8,1.9,1.4,2.8c0.4,0.6,3.3,0.4,2.9-0.3c-0.5-0.9-1-1.7-1.3-2.5      C430.3,179.8,427.3,179.8,427.5,180.4L427.5,180.4z"
   id="path39" />
			</g>
		</g>
		<g
   id="g43">
			<g
   id="g42">
				<path
   class="st9"
   d="M306.7,183.1c1,1.4,1.9,2.7,2.9,4c0.4,0.6,3.3,0.4,2.9-0.3c-1-1.4-1.9-2.7-2.9-4      C309.1,182.2,306.2,182.5,306.7,183.1L306.7,183.1z"
   id="path41" />
			</g>
		</g>
		<g
   id="g45">
			<g
   id="g44">
				<path
   class="st9"
   d="M312.9,184.4c0.6,0.4,1.1,0.9,1.7,1.3c0.5,0.4,0.8,0.8,1.9,1c0.5,0.1,1.1,0.1,1.5,0      c0.5-0.1,0.8-0.2,0.9-0.4c0.1-0.2-0.1-0.4-0.7-0.6l-0.1,0c-1.6-0.3-3.1,0.5-1.5,0.9l0.1,0c-0.2-0.2-0.5-0.4-0.7-0.6      c0,0,0,0,0,0.1c0.2-0.1,0.5-0.2,0.7-0.3c-0.1,0-0.1,0-0.2,0c0.5,0,1,0,1.5,0c0.2,0.1,0.2,0-0.1-0.1c-0.1-0.1-0.3-0.2-0.4-0.3      c-0.2-0.2-0.4-0.3-0.6-0.5c-0.5-0.4-0.9-0.7-1.4-1.1C314.7,183.3,312.1,183.8,312.9,184.4L312.9,184.4z"
   id="path43" />
			</g>
		</g>
		<g
   id="g47">
			<g
   id="g46">
				<path
   class="st9"
   d="M344.1,182.6c1.6,2.1,0.4,4.3,2.1,6.4c0.5,0.6,3.4,0.4,2.9-0.3c-1.8-2.1-0.5-4.3-2.1-6.4      C346.6,181.7,343.7,182,344.1,182.6L344.1,182.6z"
   id="path45" />
			</g>
		</g>
		<g
   id="g49">
			<g
   id="g48">
				<path
   class="st9"
   d="M368.3,183.3c0.7,1.2,1.4,2.5,2.1,3.7c0.3,0.6,3.2,0.4,2.9-0.3c-0.7-1.2-1.4-2.5-2.1-3.7      C370.8,182.4,367.9,182.7,368.3,183.3L368.3,183.3z"
   id="path47" />
			</g>
		</g>
		<g
   id="g51">
			<g
   id="g50">
				<path
   class="st9"
   d="M396.8,180.3c0.3,2-0.4,4.3,1.6,6.2c0.6,0.6,3.5,0.3,2.9-0.3c-1.9-1.8-1.2-4-1.5-5.9      C399.7,179.7,396.7,179.7,396.8,180.3L396.8,180.3z"
   id="path49" />
			</g>
		</g>
		<g
   id="g53">
			<g
   id="g52">
				<path
   class="st9"
   d="M411.6,179.6c0.6,2.1,1.6,4.2,3.1,6.2c0.5,0.6,3.3,0.4,2.9-0.3c-1.4-2-2.4-3.9-3-6      C414.4,178.9,411.4,178.9,411.6,179.6L411.6,179.6z"
   id="path51" />
			</g>
		</g>
		<g
   id="g55">
			<g
   id="g54">
				<path
   d="M266.2,187.1c3.6-1.8,7.3-3.7,12.6-5c7.5-1.9,16.1-1.7,24.4-0.3c12.7,2.1,22.6,5.7,35.6,7.5c10.1,1.4,22.8,1.9,32.1-0.4      c4.3-1.1,7.2-2.5,10.2-4c4.6-2.3,9.6-3.8,17.6-4.7c16.3-1.7,34.7-0.3,47.8,3.2c1.5,0.4,3.6-0.3,2.1-0.7      c-10.6-2.8-24-4.4-37.7-4.2c-6.7,0.1-13.7,0.6-19.7,1.6c-5.8,1-9.5,2.7-13.1,4.4c-4.5,2.2-9.3,4.2-17.6,4.7      c-8,0.5-16.5-0.2-23.6-1.4c-13.7-2.4-24.7-6.7-40-8c-15.6-1.3-25.7,2.8-33.3,6.7C262.6,187.1,265.2,187.6,266.2,187.1      L266.2,187.1z"
   id="path53" />
			</g>
		</g>
		<g
   id="g57">
			<g
   id="g56">
				<path
   d="M263.7,179.9c5.9,4,13,8.5,27.1,9.8c14.5,1.3,22.9-2.6,33.7-4.9c12.5-2.7,28.6-3.4,42.8-2c7.6,0.8,13.7,2.3,20.5,3.5      c6.4,1.1,13.1,1.6,20.3,1.3c16.6-0.8,28.5-5,39.2-8.8c1.3-0.5-0.8-1.2-2.1-0.7c-12.3,4.5-29.4,10.4-49.9,8.3      c-8.5-0.9-15.3-3-23.6-4.1c-6.9-0.9-14.4-1.3-21.8-1.1c-7,0.1-14,0.7-20.4,1.6c-7.6,1.2-13.1,3-19.7,4.6c-9,2.2-19.3,2-28-0.3      c-7.3-2-11.5-4.9-15.5-7.6C265.5,178.9,262.9,179.4,263.7,179.9L263.7,179.9z"
   id="path55" />
			</g>
		</g>
	</g>
	<g
   id="g125">
		<g
   id="g60">
			<g
   id="g59">
				<path
   class="st8"
   d="M281.2,146.3c-0.3,1,0.5,2,1,3c0.6,1.3,0.9,2.5,1.1,3.8c0.1,0.6,3.1,0.6,3,0c-0.1-1-0.3-2.1-0.7-3.1      c-0.5-1.2-1.7-2.4-1.3-3.7C284.4,145.6,281.4,145.6,281.2,146.3L281.2,146.3z"
   id="path58" />
			</g>
		</g>
		<g
   id="g62">
			<g
   id="g61">
				<path
   class="st8"
   d="M327.6,146.4c-0.8,2,1,4.3,1.7,6.3c0.2,0.6,3.2,0.6,3,0c-0.3-1-0.7-2-1-3c-0.3-1-1.2-2.1-0.8-3      C330.8,146,327.9,145.7,327.6,146.4L327.6,146.4z"
   id="path60" />
			</g>
		</g>
		<g
   id="g64">
			<g
   id="g63">
				<path
   class="st8"
   d="M332.7,146c1.4,2.3,2.5,4.5,3.4,6.8c0.2,0.6,3.2,0.6,3,0c-0.8-2.4-2-4.7-3.5-7.1      C335.2,145.1,332.3,145.3,332.7,146L332.7,146z"
   id="path62" />
			</g>
		</g>
		<g
   id="g66">
			<g
   id="g65">
				<path
   class="st8"
   d="M384.1,145.4c-0.1,2.1-0.2,4.2-0.1,6.3c0,0.6,3,0.6,3,0c-0.1-2.1-0.1-4.2,0.1-6.3      C387.1,144.7,384.1,144.7,384.1,145.4L384.1,145.4z"
   id="path64" />
			</g>
		</g>
		<g
   id="g68">
			<g
   id="g67">
				<path
   class="st8"
   d="M407.7,148.2c0,1.1,0,2.1,0,3.1c0,0.6,3,0.6,3,0c0-1.1,0-2.1,0-3.1C410.7,147.5,407.7,147.5,407.7,148.2      L407.7,148.2z"
   id="path66" />
			</g>
		</g>
		<g
   id="g70">
			<g
   id="g69">
				<path
   class="st7"
   d="M275.2,147.1c2.1,2,3.4,4,3.8,6c0.1,0.6,3.1,0.6,3,0c-0.4-2.2-1.7-4.3-3.9-6.3      C277.4,146.2,274.5,146.5,275.2,147.1L275.2,147.1z"
   id="path68" />
			</g>
		</g>
		<g
   id="g72">
			<g
   id="g71">
				<path
   class="st7"
   d="M348.3,146.3c1.5,1.6,2.4,3.3,2.8,5c0.2,0.6,3.2,0.6,3,0c-0.4-1.8-1.4-3.5-2.9-5.2      C350.7,145.5,347.8,145.7,348.3,146.3L348.3,146.3z"
   id="path70" />
			</g>
		</g>
		<g
   id="g74">
			<g
   id="g73">
				<path
   class="st7"
   d="M352.5,146.9c0.8,1,1.7,1.9,2.9,2.8c0.8,0.6,3.3,0.1,2.6-0.5c-1.1-0.8-1.9-1.7-2.6-2.5      C354.9,146,352,146.3,352.5,146.9L352.5,146.9z"
   id="path72" />
			</g>
		</g>
		<g
   id="g76">
			<g
   id="g75">
				<path
   class="st7"
   d="M394.4,146.2c0.5,2.1,0.9,4.2,1.4,6.4c0.1,0.6,3.1,0.6,3,0c-0.5-2.1-0.9-4.2-1.4-6.4      C397.2,145.5,394.2,145.5,394.4,146.2L394.4,146.2z"
   id="path74" />
			</g>
		</g>
		<g
   id="g78">
			<g
   id="g77">
				<path
   class="st6"
   d="M288.2,146.1c0.5,2.4,0.5,4.9,0.2,7.3c-0.1,0.6,2.9,0.6,3,0c0.3-2.4,0.3-4.9-0.2-7.3      C291,145.4,288,145.4,288.2,146.1L288.2,146.1z"
   id="path76" />
			</g>
		</g>
		<g
   id="g80">
			<g
   id="g79">
				<path
   class="st6"
   d="M337.7,145.8c3.7,2.2,3.7,4.7,5.5,7c0.5,0.6,3.4,0.4,2.9-0.3c-1.8-2.4-1.9-5-5.8-7.2      C339.3,144.8,336.8,145.3,337.7,145.8L337.7,145.8z"
   id="path78" />
			</g>
		</g>
		<g
   id="g82">
			<g
   id="g81">
				<path
   class="st6"
   d="M389.9,145.2c0.7,2.5,0.8,4.9,0.2,7.4c-0.1,0.6,2.9,0.6,3,0c0.5-2.5,0.4-5-0.2-7.4      C392.8,144.6,389.8,144.6,389.9,145.2L389.9,145.2z"
   id="path80" />
			</g>
		</g>
		<g
   id="g84">
			<g
   id="g83">
				<path
   class="st6"
   d="M412.8,148.5c-0.3,0.6-0.4,1.2-0.2,1.8c0.2,0.6,3.2,0.6,3,0c-0.1-0.5-0.1-1,0.1-1.5c0.1-0.3-0.2-0.5-1-0.6      C413.9,148.1,412.9,148.2,412.8,148.5L412.8,148.5z"
   id="path82" />
			</g>
		</g>
		<g
   id="g86">
			<g
   id="g85">
				<path
   class="st9"
   d="M269.7,148c2.3,1.3,3.8,2.7,4.6,4.3c0.3,0.6,3.2,0.4,2.9-0.3c-0.9-1.6-2.5-3.1-4.9-4.5      C271.3,146.9,268.8,147.4,269.7,148L269.7,148z"
   id="path84" />
			</g>
		</g>
		<g
   id="g88">
			<g
   id="g87">
				<path
   class="st9"
   d="M298.8,148.5c0.7,1,1.2,1.9,1.6,2.9c0.3,0.6,3.3,0.6,3,0c-0.4-1.1-1-2.1-1.7-3.1      C301.3,147.6,298.4,147.9,298.8,148.5L298.8,148.5z"
   id="path86" />
			</g>
		</g>
		<g
   id="g90">
			<g
   id="g89">
				<path
   class="st9"
   d="M303.8,149.5c0.4,0.2,0.8,0.5,1.2,0.7c0.4,0.2,1.4,0.3,2.1,0.2s1-0.5,0.5-0.7c-0.4-0.2-0.8-0.5-1.2-0.7      c-0.4-0.2-1.4-0.3-2.1-0.2C303.7,149,303.4,149.3,303.8,149.5L303.8,149.5z"
   id="path88" />
			</g>
		</g>
		<g
   id="g92">
			<g
   id="g91">
				<path
   class="st9"
   d="M343.3,145.4c1.3,2.2,2.7,4.3,4,6.5c0.4,0.6,3.3,0.4,2.9-0.3c-1.3-2.2-2.7-4.3-4-6.5      C345.8,144.5,342.9,144.8,343.3,145.4L343.3,145.4z"
   id="path90" />
			</g>
		</g>
		<g
   id="g94">
			<g
   id="g93">
				<path
   class="st9"
   d="M400,146.4c1.2,1.9,2.2,3.7,2.8,5.6c0.2,0.6,3.2,0.6,3,0c-0.7-2-1.7-3.9-3-5.8      C402.5,145.5,399.6,145.8,400,146.4L400,146.4z"
   id="path92" />
			</g>
		</g>
		<g
   id="g96">
			<g
   id="g95">
				<path
   class="st9"
   d="M378.1,145.6c-0.4,1.7-0.3,3.4,0.3,5.1c0.2,0.6,3.2,0.6,3,0c-0.6-1.7-0.6-3.4-0.3-5.1      C381.3,144.9,378.3,144.9,378.1,145.6L378.1,145.6z"
   id="path94" />
			</g>
		</g>
		<g
   id="g98">
			<g
   id="g97">
				<path
   class="st9"
   d="M373.5,146.4c0,0.9,0.2,1.9,0.6,2.8c0.2,0.6,3.2,0.6,3,0c-0.4-0.9-0.6-1.9-0.6-2.8      C376.5,145.8,373.5,145.8,373.5,146.4L373.5,146.4z"
   id="path96" />
			</g>
		</g>
		<g
   id="g100">
			<g
   id="g99">
				<path
   class="st9"
   d="M323.8,147.6c-0.1,1.6,0.2,3.1,0.8,4.7c0.2,0.6,3.2,0.6,3,0c-0.6-1.6-0.9-3.1-0.8-4.7      C326.8,146.9,323.8,146.9,323.8,147.6L323.8,147.6z"
   id="path98" />
			</g>
		</g>
		<g
   id="g102">
			<g
   id="g101">
				<path
   class="st7"
   d="M293.6,147.2c0.1,1.8,0.3,3.5,0.4,5.2c0,0.6,3,0.6,3,0c-0.1-1.8-0.3-3.5-0.4-5.2      C296.5,146.6,293.5,146.6,293.6,147.2L293.6,147.2z"
   id="path100" />
			</g>
		</g>
		<g
   id="g104">
			<g
   id="g103">
				<path
   class="st6"
   d="M265.4,149c0.9,1,1.8,2,2.7,2.9c0.6,0.6,3.5,0.4,2.9-0.3c-0.9-1-1.8-2-2.7-2.9      C267.8,148.1,264.9,148.4,265.4,149L265.4,149z"
   id="path102" />
			</g>
		</g>
		<g
   id="g106">
			<g
   id="g105">
				<path
   class="st6"
   d="M318.3,149.3c-0.1,0.7,0,1.3,0.3,2c0.1,0.3,0.6,0.5,1.5,0.5c0.7,0,1.6-0.2,1.5-0.5c-0.3-0.7-0.4-1.3-0.3-2      C321.4,148.7,318.4,148.7,318.3,149.3L318.3,149.3z"
   id="path104" />
			</g>
		</g>
		<g
   id="g108">
			<g
   id="g107">
				<path
   class="st6"
   d="M367.9,147.5c0.6,0.4,1.2,0.8,1.8,1.2c0.9,0.6,3.5,0.1,2.6-0.5c-0.6-0.4-1.2-0.8-1.8-1.2      C369.6,146.4,367,146.9,367.9,147.5L367.9,147.5z"
   id="path106" />
			</g>
		</g>
		<g
   id="g110">
			<g
   id="g109">
				<path
   class="st6"
   d="M429.6,147.9c0.4,0.7,0.8,1.4,1.2,2.1c0.4,0.6,3.2,0.4,2.9-0.3c-0.4-0.7-0.8-1.4-1.2-2.1      C432.1,147,429.2,147.3,429.6,147.9L429.6,147.9z"
   id="path108" />
			</g>
		</g>
		<g
   id="g112">
			<g
   id="g111">
				<path
   class="st6"
   d="M443.6,144.9c0.6,1.7,1.5,3.3,2.5,5c0.4,0.6,3.3,0.4,2.9-0.3c-1-1.6-1.8-3.1-2.4-4.7      C446.3,144.3,443.3,144.3,443.6,144.9L443.6,144.9z"
   id="path110" />
			</g>
		</g>
		<g
   id="g114">
			<g
   id="g113">
				<path
   class="st7"
   d="M426.4,149.6c0.2,0,0.4,0,0.6,0c0.8,0,1.5-0.2,1.5-0.5s-0.7-0.5-1.5-0.5c-0.2,0-0.4,0-0.6,0      c-0.8,0-1.5,0.2-1.5,0.5S425.6,149.6,426.4,149.6L426.4,149.6z"
   id="path112" />
			</g>
		</g>
		<g
   id="g116">
			<g
   id="g115">
				<path
   class="st7"
   d="M447.7,144.5c0.4,1.6,1.1,3.2,2,4.8c0.4,0.6,3.3,0.4,2.9-0.3c-0.9-1.5-1.6-3-1.9-4.5      C450.5,143.9,447.5,143.9,447.7,144.5L447.7,144.5z"
   id="path114" />
			</g>
		</g>
		<g
   id="g118">
			<g
   id="g117">
				<path
   class="st8"
   d="M433.7,147.1c0.9,1,1.3,1.9,1.3,2.9c0,0.6,3,0.6,3,0c0-1.1-0.4-2.1-1.4-3.1      C436,146.2,433.1,146.5,433.7,147.1L433.7,147.1z"
   id="path116" />
			</g>
		</g>
		<g
   id="g120">
			<g
   id="g119">
				<path
   class="st9"
   d="M438.3,146.1c1.8,1.5,0.3,3.2,2.4,4.7c0.8,0.6,3.4,0.1,2.6-0.5c-2-1.4-0.4-3-2.1-4.4      C440.5,145.2,437.6,145.5,438.3,146.1L438.3,146.1z"
   id="path118" />
			</g>
		</g>
		<g
   id="g122">
			<g
   id="g121">
				<path
   d="M263.2,151.7c1.5-2.3,6.2-4,12.9-4.8c7.4-0.9,14.8-0.3,21.7,0.8c12.9,2.1,24,5.6,38.8,6.1c14,0.4,21.9-3.2,31.1-6      c6.7-2,14.1-3,23.2-2.4c8.3,0.5,16,1.9,23.4,3.2c12.5,2.1,28.1,4.1,40.8,1.1c1.5-0.4,0.1-1.2-1.5-0.9c-15,3.6-32.5-0.3-46.5-2.5      c-12.6-2-26.3-3-38.2,0c-5.3,1.4-9.5,3.1-14.6,4.5c-7.2,2-15.7,2.5-24.7,1.6c-15-1.6-26.4-6-42.3-6.7c-12.2-0.6-24.3,1.9-27,5.9      C259.9,152.1,262.7,152.3,263.2,151.7L263.2,151.7z"
   id="path120" />
			</g>
		</g>
		<g
   id="g124">
			<g
   id="g123">
				<path
   d="M261.3,153.3c5.6-1.8,15.3,0.8,21.8,1c5,0.2,9.9-0.2,14.4-0.9c11.2-1.7,20.1-4.6,30.8-6.5c5.8-1,12.3-1.8,18.9-1.4      s12.3,1.6,17.6,2.9c9.2,2.2,19,5.3,31.1,5.4c8.8,0,16.4-1.8,23.6-3.3c9.9-2.1,19.9-4.1,29.8-6.2c1.6-0.3,0.1-1.2-1.5-0.9      c-8.5,1.8-17.1,3.5-25.6,5.3c-7.8,1.6-16.6,4-26.2,4c-13.5,0-24.2-4.2-34.9-6.4c-10-2.1-20.3-2.5-31.2-0.9      c-11.4,1.7-20.3,4.8-31.4,6.7c-6.5,1.1-13.3,1.6-20.4,0.7c-6.3-0.8-13.3-2.1-18.9-0.3C257.8,153,259.9,153.7,261.3,153.3      L261.3,153.3z"
   id="path122" />
			</g>
		</g>
	</g>
	<g
   id="g192">
		<g
   id="g127">
			<g
   id="g126">
				<path
   class="st8"
   d="M282.1,156.8c-0.3,1,0.5,2,1,3c0.6,1.3,0.9,2.5,1.1,3.8c0.1,0.6,3.1,0.6,3,0c-0.1-1-0.3-2.1-0.7-3.1      c-0.5-1.2-1.7-2.4-1.3-3.7C285.3,156.1,282.3,156.1,282.1,156.8L282.1,156.8z"
   id="path125" />
			</g>
		</g>
		<g
   id="g129">
			<g
   id="g128">
				<path
   class="st8"
   d="M328.5,156.9c-0.8,2,1,4.3,1.7,6.3c0.2,0.6,3.2,0.6,3,0c-0.3-1-0.7-2-1-3c-0.3-1-1.2-2.1-0.8-3      C331.6,156.5,328.8,156.2,328.5,156.9L328.5,156.9z"
   id="path127" />
			</g>
		</g>
		<g
   id="g131">
			<g
   id="g130">
				<path
   class="st8"
   d="M333.5,156.5c1.4,2.3,2.5,4.5,3.4,6.8c0.2,0.6,3.2,0.6,3,0c-0.8-2.4-2-4.7-3.5-7.1      C336,155.6,333.1,155.9,333.5,156.5L333.5,156.5z"
   id="path129" />
			</g>
		</g>
		<g
   id="g133">
			<g
   id="g132">
				<path
   class="st8"
   d="M384.9,155.9c-0.1,2.1-0.2,4.2-0.1,6.3c0,0.6,3,0.6,3,0c-0.1-2.1-0.1-4.2,0.1-6.3      C387.9,155.2,384.9,155.2,384.9,155.9L384.9,155.9z"
   id="path131" />
			</g>
		</g>
		<g
   id="g135">
			<g
   id="g134">
				<path
   class="st8"
   d="M408.6,158.6c0,1.1,0,2.1,0,3.1c0,0.6,3,0.6,3,0c0-1.1,0-2.1,0-3.1C411.6,158,408.6,158,408.6,158.6      L408.6,158.6z"
   id="path133" />
			</g>
		</g>
		<g
   id="g137">
			<g
   id="g136">
				<path
   class="st7"
   d="M276,157.6c2.1,2,3.4,4,3.8,6c0.1,0.6,3.1,0.6,3,0c-0.4-2.2-1.7-4.3-3.9-6.3      C278.2,156.8,275.3,157,276,157.6L276,157.6z"
   id="path135" />
			</g>
		</g>
		<g
   id="g139">
			<g
   id="g138">
				<path
   class="st7"
   d="M349.2,156.8c1.5,1.6,2.4,3.3,2.8,5c0.2,0.6,3.2,0.6,3,0c-0.4-1.8-1.4-3.5-2.9-5.2      C351.5,156,348.6,156.2,349.2,156.8L349.2,156.8z"
   id="path137" />
			</g>
		</g>
		<g
   id="g141">
			<g
   id="g140">
				<path
   class="st7"
   d="M353.3,157.4c0.8,1,1.7,1.9,2.9,2.8c0.8,0.6,3.3,0.1,2.6-0.5c-1.1-0.8-1.9-1.7-2.6-2.5      C355.7,156.5,352.8,156.8,353.3,157.4L353.3,157.4z"
   id="path139" />
			</g>
		</g>
		<g
   id="g143">
			<g
   id="g142">
				<path
   class="st7"
   d="M395.2,156.7c0.5,2.1,0.9,4.2,1.4,6.4c0.1,0.6,3.1,0.6,3,0c-0.5-2.1-0.9-4.2-1.4-6.4      C398.1,156,395.1,156,395.2,156.7L395.2,156.7z"
   id="path141" />
			</g>
		</g>
		<g
   id="g145">
			<g
   id="g144">
				<path
   class="st6"
   d="M289,156.6c0.5,2.4,0.5,4.9,0.2,7.3c-0.1,0.6,2.9,0.6,3,0c0.3-2.4,0.3-4.9-0.2-7.3      C291.9,155.9,288.9,155.9,289,156.6L289,156.6z"
   id="path143" />
			</g>
		</g>
		<g
   id="g147">
			<g
   id="g146">
				<path
   class="st6"
   d="M338.6,156.3c3.7,2.2,3.7,4.7,5.5,7c0.5,0.6,3.4,0.4,2.9-0.3c-1.8-2.4-1.9-5-5.8-7.2      C340.2,155.3,337.6,155.8,338.6,156.3L338.6,156.3z"
   id="path145" />
			</g>
		</g>
		<g
   id="g149">
			<g
   id="g148">
				<path
   class="st6"
   d="M390.8,155.7c0.7,2.5,0.8,4.9,0.2,7.4c-0.1,0.6,2.9,0.6,3,0c0.5-2.5,0.4-5-0.2-7.4      C393.6,155.1,390.6,155.1,390.8,155.7L390.8,155.7z"
   id="path147" />
			</g>
		</g>
		<g
   id="g151">
			<g
   id="g150">
				<path
   class="st6"
   d="M413.6,159c-0.3,0.6-0.4,1.2-0.2,1.8c0.2,0.6,3.2,0.6,3,0c-0.1-0.5-0.1-1,0.1-1.5c0.1-0.3-0.2-0.5-1-0.6      C414.8,158.5,413.8,158.7,413.6,159L413.6,159z"
   id="path149" />
			</g>
		</g>
		<g
   id="g153">
			<g
   id="g152">
				<path
   class="st9"
   d="M270.6,158.5c2.3,1.3,3.8,2.7,4.6,4.3c0.3,0.6,3.2,0.4,2.9-0.3c-0.9-1.6-2.5-3.1-4.9-4.5      C272.2,157.4,269.6,157.9,270.6,158.5L270.6,158.5z"
   id="path151" />
			</g>
		</g>
		<g
   id="g155">
			<g
   id="g154">
				<path
   class="st9"
   d="M299.7,159c0.7,1,1.2,1.9,1.6,2.9c0.3,0.6,3.3,0.6,3,0c-0.4-1.1-1-2.1-1.7-3.1      C302.1,158.1,299.2,158.4,299.7,159L299.7,159z"
   id="path153" />
			</g>
		</g>
		<g
   id="g157">
			<g
   id="g156">
				<path
   class="st9"
   d="M304.7,160.1c0.4,0.2,0.8,0.5,1.2,0.7c0.4,0.2,1.4,0.3,2.1,0.2c0.7-0.1,1-0.5,0.5-0.7      c-0.4-0.2-0.8-0.5-1.2-0.7c-0.4-0.2-1.4-0.3-2.1-0.2C304.5,159.5,304.3,159.8,304.7,160.1L304.7,160.1z"
   id="path155" />
			</g>
		</g>
		<g
   id="g159">
			<g
   id="g158">
				<path
   class="st9"
   d="M344.1,155.9c1.3,2.2,2.7,4.3,4,6.5c0.4,0.6,3.3,0.4,2.9-0.3c-1.3-2.2-2.7-4.3-4-6.5      C346.6,155,343.7,155.3,344.1,155.9L344.1,155.9z"
   id="path157" />
			</g>
		</g>
		<g
   id="g161">
			<g
   id="g160">
				<path
   class="st9"
   d="M400.8,156.9c1.2,1.9,2.2,3.7,2.8,5.6c0.2,0.6,3.2,0.6,3,0c-0.7-2-1.7-3.9-3-5.8      C403.3,156,400.4,156.3,400.8,156.9L400.8,156.9z"
   id="path159" />
			</g>
		</g>
		<g
   id="g163">
			<g
   id="g162">
				<path
   class="st9"
   d="M379,156.1c-0.4,1.7-0.3,3.4,0.3,5.1c0.2,0.6,3.2,0.6,3,0c-0.6-1.7-0.6-3.4-0.3-5.1      C382.1,155.4,379.1,155.5,379,156.1L379,156.1z"
   id="path161" />
			</g>
		</g>
		<g
   id="g165">
			<g
   id="g164">
				<path
   class="st9"
   d="M374.4,156.9c0,0.9,0.2,1.9,0.6,2.8c0.2,0.6,3.2,0.6,3,0c-0.4-0.9-0.6-1.9-0.6-2.8      C377.4,156.3,374.4,156.3,374.4,156.9L374.4,156.9z"
   id="path163" />
			</g>
		</g>
		<g
   id="g167">
			<g
   id="g166">
				<path
   class="st9"
   d="M324.6,158.1c-0.1,1.6,0.2,3.1,0.8,4.7c0.2,0.6,3.2,0.6,3,0c-0.6-1.6-0.9-3.1-0.8-4.7      C327.7,157.4,324.7,157.4,324.6,158.1L324.6,158.1z"
   id="path165" />
			</g>
		</g>
		<g
   id="g169">
			<g
   id="g168">
				<path
   class="st7"
   d="M294.4,157.7c0.1,1.8,0.3,3.5,0.4,5.2c0,0.6,3,0.6,3,0c-0.1-1.8-0.3-3.5-0.4-5.2      C297.4,157.1,294.4,157.1,294.4,157.7L294.4,157.7z"
   id="path167" />
			</g>
		</g>
		<g
   id="g171">
			<g
   id="g170">
				<path
   class="st6"
   d="M266.3,159.5c0.9,1,1.8,2,2.7,2.9c0.6,0.6,3.5,0.4,2.9-0.3c-0.9-1-1.8-2-2.7-2.9      C268.6,158.6,265.7,158.9,266.3,159.5L266.3,159.5z"
   id="path169" />
			</g>
		</g>
		<g
   id="g173">
			<g
   id="g172">
				<path
   class="st6"
   d="M319.2,159.8c-0.1,0.7,0,1.3,0.3,2c0.1,0.3,0.6,0.5,1.5,0.5c0.7,0,1.6-0.2,1.5-0.5c-0.3-0.7-0.4-1.3-0.3-2      C322.2,159.2,319.2,159.2,319.2,159.8L319.2,159.8z"
   id="path171" />
			</g>
		</g>
		<g
   id="g175">
			<g
   id="g174">
				<path
   class="st6"
   d="M368.8,158c0.6,0.4,1.2,0.8,1.8,1.2c0.9,0.6,3.5,0.1,2.6-0.5c-0.6-0.4-1.2-0.8-1.8-1.2      C370.5,156.9,367.9,157.4,368.8,158L368.8,158z"
   id="path173" />
			</g>
		</g>
		<g
   id="g177">
			<g
   id="g176">
				<path
   class="st6"
   d="M430.4,158.4c0.4,0.7,0.8,1.4,1.2,2.1c0.4,0.6,3.2,0.4,2.9-0.3c-0.4-0.7-0.8-1.4-1.2-2.1      C432.9,157.5,430.1,157.8,430.4,158.4L430.4,158.4z"
   id="path175" />
			</g>
		</g>
		<g
   id="g179">
			<g
   id="g178">
				<path
   class="st6"
   d="M444.4,155.4c0.6,1.7,1.5,3.3,2.5,5c0.4,0.6,3.3,0.4,2.9-0.3c-1-1.6-1.8-3.1-2.4-4.7      C447.2,154.8,444.2,154.8,444.4,155.4L444.4,155.4z"
   id="path177" />
			</g>
		</g>
		<g
   id="g181">
			<g
   id="g180">
				<path
   class="st7"
   d="M427.2,160.1c0.2,0,0.4,0,0.6,0c0.8,0,1.5-0.2,1.5-0.5c0-0.3-0.7-0.5-1.5-0.5c-0.2,0-0.4,0-0.6,0      c-0.8,0-1.5,0.2-1.5,0.5C425.8,159.8,426.4,160.1,427.2,160.1L427.2,160.1z"
   id="path179" />
			</g>
		</g>
		<g
   id="g183">
			<g
   id="g182">
				<path
   class="st7"
   d="M448.5,155c0.4,1.6,1.1,3.2,2,4.8c0.4,0.6,3.3,0.4,2.9-0.3c-0.9-1.5-1.6-3-1.9-4.5      C451.4,154.4,448.4,154.4,448.5,155L448.5,155z"
   id="path181" />
			</g>
		</g>
		<g
   id="g185">
			<g
   id="g184">
				<path
   class="st8"
   d="M434.5,157.6c0.9,1,1.3,1.9,1.3,2.9c0,0.6,3,0.6,3,0c0-1.1-0.4-2.1-1.4-3.1      C436.8,156.8,433.9,157,434.5,157.6L434.5,157.6z"
   id="path183" />
			</g>
		</g>
		<g
   id="g187">
			<g
   id="g186">
				<path
   class="st9"
   d="M439.2,156.6c1.8,1.5,0.3,3.2,2.4,4.7c0.8,0.6,3.4,0.1,2.6-0.5c-2-1.4-0.4-3-2.1-4.4      C441.4,155.7,438.5,156,439.2,156.6L439.2,156.6z"
   id="path185" />
			</g>
		</g>
		<g
   id="g189">
			<g
   id="g188">
				<path
   d="M264,162.2c1.5-2.3,6.2-4,12.9-4.8c7.4-0.9,14.8-0.3,21.7,0.8c12.9,2.1,24,5.6,38.8,6.1c14,0.4,21.9-3.2,31.1-6      c6.7-2,14.1-3,23.2-2.4c8.3,0.5,16,1.9,23.4,3.2c12.5,2.1,28.1,4.1,40.8,1.1c1.5-0.4,0.1-1.2-1.5-0.9c-15,3.6-32.5-0.3-46.5-2.5      c-12.6-2-26.3-3-38.2,0c-5.3,1.4-9.5,3.1-14.6,4.5c-7.2,2-15.7,2.5-24.7,1.6c-15-1.6-26.4-6-42.3-6.7c-12.2-0.6-24.3,1.9-27,5.9      C260.7,162.6,263.6,162.8,264,162.2L264,162.2z"
   id="path187" />
			</g>
		</g>
		<g
   id="g191">
			<g
   id="g190">
				<path
   d="M262.2,163.8c5.6-1.8,15.3,0.8,21.8,1c5,0.2,9.9-0.2,14.4-0.9c11.2-1.7,20.1-4.6,30.8-6.5c5.8-1,12.3-1.8,18.9-1.4      s12.3,1.6,17.6,2.9c9.2,2.2,19,5.3,31.1,5.4c8.8,0,16.4-1.8,23.6-3.3c9.9-2.1,19.9-4.1,29.8-6.2c1.6-0.3,0.1-1.2-1.5-0.9      c-8.5,1.8-17.1,3.5-25.6,5.3c-7.8,1.6-16.6,4-26.2,4c-13.5,0-24.2-4.2-34.9-6.4c-10-2.1-20.3-2.5-31.2-0.9      c-11.4,1.7-20.3,4.8-31.4,6.7c-6.5,1.1-13.3,1.6-20.4,0.7c-6.3-0.8-13.3-2.1-18.9-0.3C258.7,163.5,260.8,164.2,262.2,163.8      L262.2,163.8z"
   id="path189" />
			</g>
		</g>
	</g>
	<g
   id="g233">
		<g
   id="g194">
			<g
   id="g193">
				<path
   class="st6"
   d="M277.4,194.6c0.7,1.5,1,3.1,1.1,4.6c0,0.6,3,0.6,3,0c-0.1-1.6-0.5-3.2-1.2-4.9      C280.1,193.7,277.2,194,277.4,194.6L277.4,194.6z"
   id="path192" />
			</g>
		</g>
		<g
   id="g196">
			<g
   id="g195">
				<path
   class="st6"
   d="M284,193.8c1.2,2.3,2.5,4.6,3.7,6.9c0.3,0.6,3.2,0.4,2.9-0.3c-1.2-2.3-2.5-4.6-3.7-6.9      C286.6,192.9,283.7,193.2,284,193.8L284,193.8z"
   id="path194" />
			</g>
		</g>
		<g
   id="g198">
			<g
   id="g197">
				<path
   class="st6"
   d="M338.7,195.2c0.1,1.9,0.3,3.8,0.7,5.7c0.1,0.6,3.1,0.6,3,0c-0.4-1.9-0.7-3.8-0.7-5.7      C341.6,194.6,338.6,194.6,338.7,195.2L338.7,195.2z"
   id="path196" />
			</g>
		</g>
		<g
   id="g200">
			<g
   id="g199">
				<path
   class="st6"
   d="M360.3,195.3c0.7,2,1.2,4.1,2.4,6.1c0.4,0.6,3.3,0.4,2.9-0.3c-1.1-1.9-1.6-3.9-2.3-5.8      C363.1,194.7,360.1,194.7,360.3,195.3L360.3,195.3z"
   id="path198" />
			</g>
		</g>
		<g
   id="g202">
			<g
   id="g201">
				<path
   class="st6"
   d="M419.8,192.6c0,1.6,0.6,3.2,1.8,4.8c0.5,0.6,3.4,0.4,2.9-0.3c-1.1-1.5-1.7-3-1.7-4.5      C422.8,192,419.8,192,419.8,192.6L419.8,192.6z"
   id="path200" />
			</g>
		</g>
		<g
   id="g204">
			<g
   id="g203">
				<path
   class="st7"
   d="M298.3,193.4c1.2,2.6,2.3,5.2,3.1,7.8c0.2,0.6,3.2,0.6,3,0c-0.9-2.7-1.9-5.4-3.2-8.1      C300.9,192.5,298,192.7,298.3,193.4L298.3,193.4z"
   id="path202" />
			</g>
		</g>
		<g
   id="g206">
			<g
   id="g205">
				<path
   class="st7"
   d="M349.3,195c0.5,1.4,1.1,2.8,1.6,4.3c0.3,0.9,0,2.3,1.5,3.1c0.5,0.3,1.7,0.4,2.4,0.1c0,0,0.1,0,0.1-0.1      c0.5-0.2,0.7-0.5,0-0.7l-0.1,0c-1.5-0.4-3.6,0.3-2.1,0.7l0.1,0c0-0.2,0-0.5,0-0.7c0,0-0.1,0-0.1,0.1c0.8,0,1.6,0.1,2.4,0.1      c-1.4-0.8-1.1-2.5-1.4-3.4c-0.4-1.2-0.9-2.3-1.3-3.5C352.1,194.4,349.1,194.4,349.3,195L349.3,195z"
   id="path204" />
			</g>
		</g>
		<g
   id="g208">
			<g
   id="g207">
				<path
   class="st7"
   d="M390.4,194.4c-0.1,1.4,0,2.8,0.4,4.2c0.2,0.6,3.2,0.6,3,0c-0.4-1.4-0.5-2.8-0.4-4.2      C393.5,193.7,390.5,193.7,390.4,194.4L390.4,194.4z"
   id="path206" />
			</g>
		</g>
		<g
   id="g210">
			<g
   id="g209">
				<path
   class="st8"
   d="M290.6,193.6c2.4,2.6,4.5,5.3,6.1,7.9c0.4,0.6,3.3,0.4,2.9-0.3c-1.6-2.7-3.7-5.3-6.1-7.9      C293,192.7,290.1,193,290.6,193.6L290.6,193.6z"
   id="path208" />
			</g>
		</g>
		<g
   id="g212">
			<g
   id="g211">
				<path
   class="st8"
   d="M330.7,196c1,1.4,1.8,2.7,2.6,4.1c0.3,0.6,3.2,0.4,2.9-0.3c-0.7-1.4-1.6-2.8-2.6-4.1      C333.1,195.1,330.2,195.4,330.7,196L330.7,196z"
   id="path210" />
			</g>
		</g>
		<g
   id="g214">
			<g
   id="g213">
				<path
   class="st8"
   d="M402.8,192.2c0.8,2.4,1.7,4.7,2.5,7.1c0.2,0.6,3.2,0.6,3,0c-0.8-2.4-1.7-4.7-2.5-7.1      C405.6,191.6,402.6,191.6,402.8,192.2L402.8,192.2z"
   id="path212" />
			</g>
		</g>
		<g
   id="g216">
			<g
   id="g215">
				<path
   class="st8"
   d="M426.9,193.1c0.4,1,0.8,1.9,1.4,2.8c0.4,0.6,3.3,0.4,2.9-0.3c-0.5-0.9-1-1.7-1.3-2.5      C429.7,192.5,426.7,192.5,426.9,193.1L426.9,193.1z"
   id="path214" />
			</g>
		</g>
		<g
   id="g218">
			<g
   id="g217">
				<path
   class="st9"
   d="M306.1,195.8c1,1.4,1.9,2.7,2.9,4c0.4,0.6,3.3,0.4,2.9-0.3c-1-1.4-1.9-2.7-2.9-4      C308.5,195,305.6,195.2,306.1,195.8L306.1,195.8z"
   id="path216" />
			</g>
		</g>
		<g
   id="g220">
			<g
   id="g219">
				<path
   class="st9"
   d="M312.3,197.1c0.6,0.4,1.1,0.9,1.7,1.3c0.5,0.4,0.8,0.8,1.9,1c0.5,0.1,1.1,0.1,1.5,0      c0.5-0.1,0.8-0.2,0.9-0.4c0.1-0.2-0.1-0.4-0.7-0.6l-0.1,0c-1.6-0.3-3.1,0.5-1.5,0.9l0.1,0c-0.2-0.2-0.5-0.4-0.7-0.6      c0,0,0,0,0,0.1c0.2-0.1,0.5-0.2,0.7-0.3c-0.1,0-0.1,0-0.2,0c0.5,0,1,0,1.5,0c0.2,0.1,0.2,0-0.1-0.1c-0.1-0.1-0.3-0.2-0.4-0.3      c-0.2-0.2-0.4-0.3-0.6-0.5c-0.5-0.4-0.9-0.7-1.4-1.1C314.2,196,311.6,196.5,312.3,197.1L312.3,197.1z"
   id="path218" />
			</g>
		</g>
		<g
   id="g222">
			<g
   id="g221">
				<path
   class="st9"
   d="M343.6,195.3c1.6,2.1,0.4,4.3,2.1,6.4c0.5,0.6,3.4,0.4,2.9-0.3c-1.8-2.1-0.5-4.3-2.1-6.4      C346,194.4,343.1,194.7,343.6,195.3L343.6,195.3z"
   id="path220" />
			</g>
		</g>
		<g
   id="g224">
			<g
   id="g223">
				<path
   class="st9"
   d="M367.7,196c0.7,1.2,1.4,2.5,2.1,3.7c0.3,0.6,3.2,0.4,2.9-0.3c-0.7-1.2-1.4-2.5-2.1-3.7      C370.2,195.1,367.3,195.4,367.7,196L367.7,196z"
   id="path222" />
			</g>
		</g>
		<g
   id="g226">
			<g
   id="g225">
				<path
   class="st9"
   d="M396.2,193c0.3,2-0.4,4.3,1.6,6.2c0.6,0.6,3.5,0.3,2.9-0.3c-1.9-1.8-1.2-4-1.5-5.9      C399.1,192.4,396.1,192.4,396.2,193L396.2,193z"
   id="path224" />
			</g>
		</g>
		<g
   id="g228">
			<g
   id="g227">
				<path
   class="st9"
   d="M411,192.3c0.6,2.1,1.6,4.2,3.1,6.2c0.5,0.6,3.3,0.4,2.9-0.3c-1.4-2-2.4-3.9-3-6      C413.9,191.7,410.9,191.7,411,192.3L411,192.3z"
   id="path226" />
			</g>
		</g>
		<g
   id="g230">
			<g
   id="g229">
				<path
   d="M265.7,199.8c3.6-1.8,7.3-3.7,12.6-5c7.5-1.9,16.1-1.7,24.4-0.3c12.7,2.1,22.6,5.7,35.6,7.5c10.1,1.4,22.8,1.9,32.1-0.4      c4.3-1.1,7.2-2.5,10.2-4c4.6-2.3,9.6-3.8,17.6-4.7c16.3-1.7,34.7-0.3,47.8,3.2c1.5,0.4,3.6-0.3,2.1-0.7      c-10.6-2.8-24-4.4-37.7-4.2c-6.7,0.1-13.7,0.6-19.7,1.6c-5.8,1-9.5,2.7-13.1,4.4c-4.5,2.2-9.3,4.2-17.6,4.7      c-8,0.5-16.5-0.2-23.6-1.4c-13.7-2.4-24.7-6.7-40-8c-15.6-1.3-25.7,2.8-33.3,6.7C262,199.8,264.6,200.3,265.7,199.8L265.7,199.8      z"
   id="path228" />
			</g>
		</g>
		<g
   id="g232">
			<g
   id="g231">
				<path
   d="M263.2,192.7c5.9,4,13,8.5,27.1,9.8c14.5,1.3,22.9-2.6,33.7-4.9c12.5-2.7,28.6-3.4,42.8-2c7.6,0.8,13.7,2.3,20.5,3.5      c6.4,1.1,13.1,1.6,20.3,1.3c16.6-0.8,28.5-5,39.2-8.8c1.3-0.5-0.8-1.2-2.1-0.7c-12.3,4.5-29.4,10.4-49.9,8.3      c-8.5-0.9-15.3-3-23.6-4.1c-6.9-0.9-14.4-1.3-21.8-1.1c-7,0.1-14,0.7-20.4,1.6c-7.6,1.2-13.1,3-19.7,4.6c-9,2.2-19.3,2-28-0.3      c-7.3-2-11.5-4.9-15.5-7.6C264.9,191.6,262.3,192.1,263.2,192.7L263.2,192.7z"
   id="path230" />
			</g>
		</g>
	</g>
	<g
   id="g274">
		<g
   id="g235">
			<g
   id="g234">
				<path
   class="st6"
   d="M279.7,206.5c0.7,1.5,1,3.1,1.1,4.6c0,0.6,3,0.6,3,0c-0.1-1.6-0.5-3.2-1.2-4.9      C282.3,205.6,279.4,205.8,279.7,206.5L279.7,206.5z"
   id="path233" />
			</g>
		</g>
		<g
   id="g237">
			<g
   id="g236">
				<path
   class="st6"
   d="M286.3,205.7c1.2,2.3,2.5,4.6,3.7,6.9c0.3,0.6,3.2,0.4,2.9-0.3c-1.2-2.3-2.5-4.6-3.7-6.9      C288.8,204.8,285.9,205,286.3,205.7L286.3,205.7z"
   id="path235" />
			</g>
		</g>
		<g
   id="g239">
			<g
   id="g238">
				<path
   class="st6"
   d="M340.9,207.1c0.1,1.9,0.3,3.8,0.7,5.7c0.1,0.6,3.1,0.6,3,0c-0.4-1.9-0.7-3.8-0.7-5.7      C343.9,206.4,340.9,206.4,340.9,207.1L340.9,207.1z"
   id="path237" />
			</g>
		</g>
		<g
   id="g241">
			<g
   id="g240">
				<path
   class="st6"
   d="M362.6,207.2c0.7,2,1.2,4.1,2.4,6.1c0.4,0.6,3.3,0.4,2.9-0.3c-1.1-1.9-1.6-3.9-2.3-5.8      C365.4,206.5,362.4,206.5,362.6,207.2L362.6,207.2z"
   id="path239" />
			</g>
		</g>
		<g
   id="g243">
			<g
   id="g242">
				<path
   class="st6"
   d="M422,204.5c0,1.6,0.6,3.2,1.8,4.8c0.5,0.6,3.4,0.4,2.9-0.3c-1.1-1.5-1.7-3-1.7-4.5      C425,203.8,422,203.8,422,204.5L422,204.5z"
   id="path241" />
			</g>
		</g>
		<g
   id="g245">
			<g
   id="g244">
				<path
   class="st7"
   d="M300.5,205.2c1.2,2.6,2.3,5.2,3.1,7.8c0.2,0.6,3.2,0.6,3,0c-0.9-2.7-1.9-5.4-3.2-8.1      C303.1,204.3,300.2,204.6,300.5,205.2L300.5,205.2z"
   id="path243" />
			</g>
		</g>
		<g
   id="g247">
			<g
   id="g246">
				<path
   class="st7"
   d="M351.5,206.9c0.5,1.4,1.1,2.8,1.6,4.3c0.3,0.9,0,2.3,1.5,3.1c0.5,0.3,1.7,0.4,2.4,0.1c0,0,0.1,0,0.1-0.1      c0.5-0.2,0.7-0.5,0-0.7l-0.1,0c-1.5-0.4-3.6,0.3-2.1,0.7l0.1,0c0-0.2,0-0.5,0-0.7c0,0-0.1,0-0.1,0.1c0.8,0,1.6,0.1,2.4,0.1      c-1.4-0.8-1.1-2.5-1.4-3.4c-0.4-1.2-0.9-2.3-1.3-3.5C354.3,206.2,351.3,206.2,351.5,206.9L351.5,206.9z"
   id="path245" />
			</g>
		</g>
		<g
   id="g249">
			<g
   id="g248">
				<path
   class="st7"
   d="M391.7,206.2c-0.1,1.4,0,2.8,0.4,4.2c0.2,0.6,3.2,0.6,3,0c-0.4-1.4-0.5-2.8-0.4-4.2      C394.7,205.6,391.7,205.6,391.7,206.2L391.7,206.2z"
   id="path247" />
			</g>
		</g>
		<g
   id="g251">
			<g
   id="g250">
				<path
   class="st8"
   d="M292.9,205.5c2.4,2.6,4.5,5.3,6.1,7.9c0.4,0.6,3.3,0.4,2.9-0.3c-1.6-2.7-3.7-5.3-6.1-7.9      C295.2,204.6,292.3,204.8,292.9,205.5L292.9,205.5z"
   id="path249" />
			</g>
		</g>
		<g
   id="g253">
			<g
   id="g252">
				<path
   class="st8"
   d="M332.9,207.9c1,1.4,1.8,2.7,2.6,4.1c0.3,0.6,3.2,0.4,2.9-0.3c-0.7-1.4-1.6-2.8-2.6-4.1      C335.4,207,332.5,207.3,332.9,207.9L332.9,207.9z"
   id="path251" />
			</g>
		</g>
		<g
   id="g255">
			<g
   id="g254">
				<path
   class="st8"
   d="M405.1,204.1c0.8,2.4,1.7,4.7,2.5,7.1c0.2,0.6,3.2,0.6,3,0c-0.8-2.4-1.7-4.7-2.5-7.1      C407.8,203.5,404.8,203.5,405.1,204.1L405.1,204.1z"
   id="path253" />
			</g>
		</g>
		<g
   id="g257">
			<g
   id="g256">
				<path
   class="st8"
   d="M429.2,205c0.4,1,0.8,1.9,1.4,2.8c0.4,0.6,3.3,0.4,2.9-0.3c-0.5-0.9-1-1.7-1.3-2.5      C431.9,204.4,428.9,204.4,429.2,205L429.2,205z"
   id="path255" />
			</g>
		</g>
		<g
   id="g259">
			<g
   id="g258">
				<path
   class="st9"
   d="M308.3,207.7c1,1.4,1.9,2.7,2.9,4c0.4,0.6,3.3,0.4,2.9-0.3c-1-1.4-1.9-2.7-2.9-4      C310.8,206.8,307.9,207.1,308.3,207.7L308.3,207.7z"
   id="path257" />
			</g>
		</g>
		<g
   id="g261">
			<g
   id="g260">
				<path
   class="st9"
   d="M314.6,209c0.6,0.4,1.1,0.9,1.7,1.3c0.5,0.4,0.8,0.8,1.9,1c0.5,0.1,1.1,0.1,1.5,0c0.5-0.1,0.8-0.2,0.9-0.4      c0.1-0.2-0.1-0.4-0.7-0.6l-0.1,0c-1.6-0.3-3.1,0.5-1.5,0.9l0.1,0c-0.2-0.2-0.5-0.4-0.7-0.6c0,0,0,0,0,0.1      c0.2-0.1,0.5-0.2,0.7-0.3c-0.1,0-0.1,0-0.2,0c0.5,0,1,0,1.5,0c0.2,0.1,0.2,0-0.1-0.1c-0.1-0.1-0.3-0.2-0.4-0.3      c-0.2-0.2-0.4-0.3-0.6-0.5c-0.5-0.4-0.9-0.7-1.4-1.1C316.4,207.9,313.8,208.4,314.6,209L314.6,209z"
   id="path259" />
			</g>
		</g>
		<g
   id="g263">
			<g
   id="g262">
				<path
   class="st9"
   d="M345.8,207.2c1.6,2.1,0.4,4.3,2.1,6.4c0.5,0.6,3.4,0.4,2.9-0.3c-1.8-2.1-0.5-4.3-2.1-6.4      C348.2,206.3,345.3,206.6,345.8,207.2L345.8,207.2z"
   id="path261" />
			</g>
		</g>
		<g
   id="g265">
			<g
   id="g264">
				<path
   class="st9"
   d="M369.9,207.9c0.7,1.2,1.4,2.5,2.1,3.7c0.3,0.6,3.2,0.4,2.9-0.3c-0.7-1.2-1.4-2.5-2.1-3.7      C372.5,207,369.6,207.3,369.9,207.9L369.9,207.9z"
   id="path263" />
			</g>
		</g>
		<g
   id="g267">
			<g
   id="g266">
				<path
   class="st9"
   d="M398.5,204.9c0.3,2-0.4,4.3,1.6,6.2c0.6,0.6,3.5,0.3,2.9-0.3c-1.9-1.8-1.2-4-1.5-5.9      C401.4,204.3,398.4,204.3,398.5,204.9L398.5,204.9z"
   id="path265" />
			</g>
		</g>
		<g
   id="g269">
			<g
   id="g268">
				<path
   class="st9"
   d="M413.3,204.2c0.6,2.1,1.6,4.2,3.1,6.2c0.5,0.6,3.3,0.4,2.9-0.3c-1.4-2-2.4-3.9-3-6      C416.1,203.5,413.1,203.5,413.3,204.2L413.3,204.2z"
   id="path267" />
			</g>
		</g>
		<g
   id="g271">
			<g
   id="g270">
				<path
   d="M267.9,211.7c3.6-1.8,7.3-3.7,12.6-5c7.5-1.9,16.1-1.7,24.4-0.3c12.7,2.1,22.6,5.7,35.6,7.5c10.1,1.4,22.8,1.9,32.1-0.4      c4.3-1.1,7.2-2.5,10.2-4c4.6-2.3,9.6-3.8,17.6-4.7c16.3-1.7,34.7-0.3,47.8,3.2c1.5,0.4,3.6-0.3,2.1-0.7      c-10.6-2.8-24-4.4-37.7-4.2c-6.7,0.1-13.7,0.6-19.7,1.6c-5.8,1-9.5,2.7-13.1,4.4c-4.5,2.2-9.3,4.2-17.6,4.7      c-8,0.5-16.5-0.2-23.6-1.4c-13.7-2.4-24.7-6.7-40-8c-15.6-1.3-25.7,2.8-33.3,6.7C264.3,211.7,266.9,212.2,267.9,211.7      L267.9,211.7z"
   id="path269" />
			</g>
		</g>
		<g
   id="g273">
			<g
   id="g272">
				<path
   d="M265.4,204.5c5.9,4,13,8.5,27.1,9.8c14.5,1.3,22.9-2.6,33.7-4.9c12.5-2.7,28.6-3.4,42.8-2c7.6,0.8,13.7,2.3,20.5,3.5      c6.4,1.1,13.1,1.6,20.3,1.3c16.6-0.8,28.5-5,39.2-8.8c1.3-0.5-0.8-1.2-2.1-0.7c-12.3,4.5-29.4,10.4-49.9,8.3      c-8.5-0.9-15.3-3-23.6-4.1c-6.9-0.9-14.4-1.3-21.8-1.1c-7,0.1-14,0.7-20.4,1.6c-7.6,1.2-13.1,3-19.7,4.6c-9,2.2-19.3,2-28-0.3      c-7.3-2-11.5-4.9-15.5-7.6C267.2,203.5,264.6,203.9,265.4,204.5L265.4,204.5z"
   id="path271" />
			</g>
		</g>
	</g>
	<g
   id="g276">
		<g
   id="g275">
			<path
   d="M199.3,134.6c-2.9,0.2-5.8,0.3-8.6,0.5c-1.8,0.1-4-0.1-5.7,0.5c-3.3,1.1-2.9,4.4-2.7,7.2c0.8,11.7,1.5,23.4,1.9,35.1     c0.8,22.9,0.5,45.9-0.6,68.8c0,0.8,0.6,1.3,1.4,1.2c8-0.5,16-1,24.1-1.5c1.5-0.1,1.1-2.4-0.4-2.3c-8,0.5-16,1-24.1,1.5     c0.4,0.4,0.9,0.9,1.4,1.2c1-20.4,1.2-40.9,0.8-61.3c-0.2-9.5-0.6-19.1-1.2-28.6c-0.1-2.5-0.3-5.1-0.5-7.7     c-0.2-2.4-0.8-5.3-0.6-7.6c0.5-4.8,3.9-4,7.3-4.2c2.6-0.1,5.3-0.3,7.9-0.5C201.2,136.8,200.8,134.5,199.3,134.6L199.3,134.6z"
   id="path274" />
		</g>
	</g>
	<g
   id="g278">
		<g
   id="g277">
			<path
   d="M455.3,134.8c4.7,0.4,9.3,0.8,14,1.2c-0.4-0.4-0.7-0.8-1.1-1.1c-2.1,20-2.8,40.2-2,60.4c0.4,9.7,1.1,19.4,2.2,29.1     c0.3,2.3,0.6,4.5,0.8,6.8c0.3,2.6,1.5,5.9-0.1,8.1s-5.3,2.1-8.1,2.5c-2.9,0.5-5.7,1-8.6,1.4c-1.5,0.2-1,2.3,0.4,2.1     c5.3-0.8,11.4-1.1,16.5-2.8c3.3-1.1,3.1-3.4,2.7-6.2c-1.3-11.5-2.7-23-3.3-34.6c-1.3-22.2-0.6-44.5,1.8-66.6     c0-0.6-0.4-1.1-1.1-1.1c-4.7-0.4-9.3-0.8-14-1.2C453.9,132.6,453.7,134.7,455.3,134.8L455.3,134.8z"
   id="path276" />
		</g>
	</g>
	<g
   id="g345">
		<g
   id="g280">
			<g
   id="g279">
				<path
   class="st8"
   d="M282.5,228.5c-0.3,1,0.5,2,1,3c0.6,1.3,0.9,2.5,1.1,3.8c0.1,0.6,3.1,0.6,3,0c-0.1-1-0.3-2.1-0.7-3.1      c-0.5-1.2-1.7-2.4-1.3-3.7C285.7,227.9,282.7,227.9,282.5,228.5L282.5,228.5z"
   id="path278" />
			</g>
		</g>
		<g
   id="g282">
			<g
   id="g281">
				<path
   class="st8"
   d="M328.9,228.6c-0.8,2,1,4.3,1.7,6.3c0.2,0.6,3.2,0.6,3,0c-0.3-1-0.7-2-1-3c-0.3-1-1.2-2.1-0.8-3      C332.1,228.2,329.2,228,328.9,228.6L328.9,228.6z"
   id="path280" />
			</g>
		</g>
		<g
   id="g284">
			<g
   id="g283">
				<path
   class="st8"
   d="M334,228.2c1.4,2.3,2.5,4.5,3.4,6.8c0.2,0.6,3.2,0.6,3,0c-0.8-2.4-2-4.7-3.5-7.1      C336.5,227.3,333.6,227.6,334,228.2L334,228.2z"
   id="path282" />
			</g>
		</g>
		<g
   id="g286">
			<g
   id="g285">
				<path
   class="st8"
   d="M385.4,227.6c-0.1,2.1-0.2,4.2-0.1,6.3c0,0.6,3,0.6,3,0c-0.1-2.1-0.1-4.2,0.1-6.3      C388.4,227,385.4,227,385.4,227.6L385.4,227.6z"
   id="path284" />
			</g>
		</g>
		<g
   id="g288">
			<g
   id="g287">
				<path
   class="st8"
   d="M409,230.4c0,1.1,0,2.1,0,3.1c0,0.6,3,0.6,3,0c0-1.1,0-2.1,0-3.1C412,229.7,409,229.7,409,230.4L409,230.4z      "
   id="path286" />
			</g>
		</g>
		<g
   id="g290">
			<g
   id="g289">
				<path
   class="st7"
   d="M276.5,229.3c2.1,2,3.4,4,3.8,6c0.1,0.6,3.1,0.6,3,0c-0.4-2.2-1.7-4.3-3.9-6.3      C278.7,228.5,275.8,228.7,276.5,229.3L276.5,229.3z"
   id="path288" />
			</g>
		</g>
		<g
   id="g292">
			<g
   id="g291">
				<path
   class="st7"
   d="M349.6,228.6c1.5,1.6,2.4,3.3,2.8,5c0.2,0.6,3.2,0.6,3,0c-0.4-1.8-1.4-3.5-2.9-5.2      C352,227.7,349.1,228,349.6,228.6L349.6,228.6z"
   id="path290" />
			</g>
		</g>
		<g
   id="g294">
			<g
   id="g293">
				<path
   class="st7"
   d="M353.8,229.1c0.8,1,1.7,1.9,2.9,2.8c0.8,0.6,3.3,0.1,2.6-0.5c-1.1-0.8-1.9-1.7-2.6-2.5      C356.2,228.2,353.3,228.5,353.8,229.1L353.8,229.1z"
   id="path292" />
			</g>
		</g>
		<g
   id="g296">
			<g
   id="g295">
				<path
   class="st7"
   d="M395.7,228.4c0.5,2.1,0.9,4.2,1.4,6.4c0.1,0.6,3.1,0.6,3,0c-0.5-2.1-0.9-4.2-1.4-6.4      C398.5,227.8,395.5,227.8,395.7,228.4L395.7,228.4z"
   id="path294" />
			</g>
		</g>
		<g
   id="g298">
			<g
   id="g297">
				<path
   class="st6"
   d="M289.5,228.3c0.5,2.4,0.5,4.9,0.2,7.3c-0.1,0.6,2.9,0.6,3,0c0.3-2.4,0.3-4.9-0.2-7.3      C292.3,227.7,289.3,227.7,289.5,228.3L289.5,228.3z"
   id="path296" />
			</g>
		</g>
		<g
   id="g300">
			<g
   id="g299">
				<path
   class="st6"
   d="M339,228.1c3.7,2.2,3.7,4.7,5.5,7c0.5,0.6,3.4,0.4,2.9-0.3c-1.8-2.4-1.9-5-5.8-7.2      C340.6,227,338.1,227.5,339,228.1L339,228.1z"
   id="path298" />
			</g>
		</g>
		<g
   id="g302">
			<g
   id="g301">
				<path
   class="st6"
   d="M391.2,227.5c0.7,2.5,0.8,4.9,0.2,7.4c-0.1,0.6,2.9,0.6,3,0c0.5-2.5,0.4-5-0.2-7.4      C394.1,226.9,391.1,226.9,391.2,227.5L391.2,227.5z"
   id="path300" />
			</g>
		</g>
		<g
   id="g304">
			<g
   id="g303">
				<path
   class="st6"
   d="M414.1,230.7c-0.3,0.6-0.4,1.2-0.2,1.8c0.2,0.6,3.2,0.6,3,0c-0.1-0.5-0.1-1,0.1-1.5c0.1-0.3-0.2-0.5-1-0.6      C415.2,230.3,414.2,230.5,414.1,230.7L414.1,230.7z"
   id="path302" />
			</g>
		</g>
		<g
   id="g306">
			<g
   id="g305">
				<path
   class="st9"
   d="M271,230.2c2.3,1.3,3.8,2.7,4.6,4.3c0.3,0.6,3.2,0.4,2.9-0.3c-0.9-1.6-2.5-3.1-4.9-4.5      C272.6,229.2,270.1,229.7,271,230.2L271,230.2z"
   id="path304" />
			</g>
		</g>
		<g
   id="g308">
			<g
   id="g307">
				<path
   class="st9"
   d="M300.1,230.8c0.7,1,1.2,1.9,1.6,2.9c0.3,0.6,3.3,0.6,3,0c-0.4-1.1-1-2.1-1.7-3.1      C302.6,229.9,299.7,230.1,300.1,230.8L300.1,230.8z"
   id="path306" />
			</g>
		</g>
		<g
   id="g310">
			<g
   id="g309">
				<path
   class="st9"
   d="M305.1,231.8c0.4,0.2,0.8,0.5,1.2,0.7c0.4,0.2,1.4,0.3,2.1,0.2c0.7-0.1,1-0.5,0.5-0.7      c-0.4-0.2-0.8-0.5-1.2-0.7c-0.4-0.2-1.4-0.3-2.1-0.2C305,231.3,304.7,231.6,305.1,231.8L305.1,231.8z"
   id="path308" />
			</g>
		</g>
		<g
   id="g312">
			<g
   id="g311">
				<path
   class="st9"
   d="M344.6,227.6c1.3,2.2,2.7,4.3,4,6.5c0.4,0.6,3.3,0.4,2.9-0.3c-1.3-2.2-2.7-4.3-4-6.5      C347.1,226.8,344.2,227,344.6,227.6L344.6,227.6z"
   id="path310" />
			</g>
		</g>
		<g
   id="g314">
			<g
   id="g313">
				<path
   class="st9"
   d="M401.3,228.7c1.2,1.9,2.2,3.7,2.8,5.6c0.2,0.6,3.2,0.6,3,0c-0.7-2-1.7-3.9-3-5.8      C403.8,227.8,400.9,228.1,401.3,228.7L401.3,228.7z"
   id="path312" />
			</g>
		</g>
		<g
   id="g316">
			<g
   id="g315">
				<path
   class="st9"
   d="M379.4,227.8c-0.4,1.7-0.3,3.4,0.3,5.1c0.2,0.6,3.2,0.6,3,0c-0.6-1.7-0.6-3.4-0.3-5.1      C382.6,227.2,379.6,227.2,379.4,227.8L379.4,227.8z"
   id="path314" />
			</g>
		</g>
		<g
   id="g318">
			<g
   id="g317">
				<path
   class="st9"
   d="M374.8,228.6c0,0.9,0.2,1.9,0.6,2.8c0.2,0.6,3.2,0.6,3,0c-0.4-0.9-0.6-1.9-0.6-2.8      C377.8,228,374.8,228,374.8,228.6L374.8,228.6z"
   id="path316" />
			</g>
		</g>
		<g
   id="g320">
			<g
   id="g319">
				<path
   class="st9"
   d="M325.1,229.8c-0.1,1.6,0.2,3.1,0.8,4.7c0.2,0.6,3.2,0.6,3,0c-0.6-1.6-0.9-3.1-0.8-4.7      C328.1,229.2,325.1,229.2,325.1,229.8L325.1,229.8z"
   id="path318" />
			</g>
		</g>
		<g
   id="g322">
			<g
   id="g321">
				<path
   class="st7"
   d="M294.9,229.5c0.1,1.8,0.3,3.5,0.4,5.2c0,0.6,3,0.6,3,0c-0.1-1.8-0.3-3.5-0.4-5.2      C297.8,228.8,294.8,228.8,294.9,229.5L294.9,229.5z"
   id="path320" />
			</g>
		</g>
		<g
   id="g324">
			<g
   id="g323">
				<path
   class="st6"
   d="M266.7,231.2c0.9,1,1.8,2,2.7,2.9c0.6,0.6,3.5,0.4,2.9-0.3c-0.9-1-1.8-2-2.7-2.9      C269.1,230.4,266.2,230.6,266.7,231.2L266.7,231.2z"
   id="path322" />
			</g>
		</g>
		<g
   id="g326">
			<g
   id="g325">
				<path
   class="st6"
   d="M319.6,231.6c-0.1,0.7,0,1.3,0.3,2c0.1,0.3,0.6,0.5,1.5,0.5c0.7,0,1.6-0.2,1.5-0.5c-0.3-0.7-0.4-1.3-0.3-2      C322.7,230.9,319.7,230.9,319.6,231.6L319.6,231.6z"
   id="path324" />
			</g>
		</g>
		<g
   id="g328">
			<g
   id="g327">
				<path
   class="st6"
   d="M369.2,229.7c0.6,0.4,1.2,0.8,1.8,1.2c0.9,0.6,3.5,0.1,2.6-0.5c-0.6-0.4-1.2-0.8-1.8-1.2      C370.9,228.6,368.3,229.1,369.2,229.7L369.2,229.7z"
   id="path326" />
			</g>
		</g>
		<g
   id="g330">
			<g
   id="g329">
				<path
   class="st6"
   d="M430.9,230.2c0.4,0.7,0.8,1.4,1.2,2.1c0.4,0.6,3.2,0.4,2.9-0.3c-0.4-0.7-0.8-1.4-1.2-2.1      C433.4,229.3,430.5,229.5,430.9,230.2L430.9,230.2z"
   id="path328" />
			</g>
		</g>
		<g
   id="g332">
			<g
   id="g331">
				<path
   class="st6"
   d="M444.9,227.2c0.6,1.7,1.5,3.3,2.5,5c0.4,0.6,3.3,0.4,2.9-0.3c-1-1.6-1.8-3.1-2.4-4.7      C447.6,226.5,444.6,226.5,444.9,227.2L444.9,227.2z"
   id="path330" />
			</g>
		</g>
		<g
   id="g334">
			<g
   id="g333">
				<path
   class="st7"
   d="M427.7,231.8c0.2,0,0.4,0,0.6,0c0.8,0,1.5-0.2,1.5-0.5c0-0.3-0.7-0.5-1.5-0.5c-0.2,0-0.4,0-0.6,0      c-0.8,0-1.5,0.2-1.5,0.5C426.2,231.6,426.9,231.8,427.7,231.8L427.7,231.8z"
   id="path332" />
			</g>
		</g>
		<g
   id="g336">
			<g
   id="g335">
				<path
   class="st7"
   d="M449,226.8c0.4,1.6,1.1,3.2,2,4.8c0.4,0.6,3.3,0.4,2.9-0.3c-0.9-1.5-1.6-3-1.9-4.5      C451.8,226.2,448.8,226.2,449,226.8L449,226.8z"
   id="path334" />
			</g>
		</g>
		<g
   id="g338">
			<g
   id="g337">
				<path
   class="st8"
   d="M435,229.4c0.9,1,1.3,1.9,1.3,2.9c0,0.6,3,0.6,3,0c0-1.1-0.4-2.1-1.4-3.1      C437.3,228.5,434.4,228.7,435,229.4L435,229.4z"
   id="path336" />
			</g>
		</g>
		<g
   id="g340">
			<g
   id="g339">
				<path
   class="st9"
   d="M439.6,228.3c1.8,1.5,0.3,3.2,2.4,4.7c0.8,0.6,3.4,0.1,2.6-0.5c-2-1.4-0.4-3-2.1-4.4      C441.8,227.5,438.9,227.8,439.6,228.3L439.6,228.3z"
   id="path338" />
			</g>
		</g>
		<g
   id="g342">
			<g
   id="g341">
				<path
   d="M264.5,233.9c1.5-2.3,6.2-4,12.9-4.8c7.4-0.9,14.8-0.3,21.7,0.8c12.9,2.1,24,5.6,38.8,6.1c14,0.4,21.9-3.2,31.1-6      c6.7-2,14.1-3,23.2-2.4c8.3,0.5,16,1.9,23.4,3.2c12.5,2.1,28.1,4.1,40.8,1.1c1.5-0.4,0.1-1.2-1.5-0.9c-15,3.6-32.5-0.3-46.5-2.5      c-12.6-2-26.3-3-38.2,0c-5.3,1.4-9.5,3.1-14.6,4.5c-7.2,2-15.7,2.5-24.7,1.6c-15-1.6-26.4-6-42.3-6.7c-12.2-0.6-24.3,1.9-27,5.9      C261.2,234.3,264,234.6,264.5,233.9L264.5,233.9z"
   id="path340" />
			</g>
		</g>
		<g
   id="g344">
			<g
   id="g343">
				<path
   d="M262.6,235.5c5.6-1.8,15.3,0.8,21.8,1c5,0.2,9.9-0.2,14.4-0.9c11.2-1.7,20.1-4.6,30.8-6.5c5.8-1,12.3-1.8,18.9-1.4      c6.6,0.4,12.3,1.6,17.6,2.9c9.2,2.2,19,5.3,31.1,5.4c8.8,0,16.4-1.8,23.6-3.3c9.9-2.1,19.9-4.1,29.8-6.2      c1.6-0.3,0.1-1.2-1.5-0.9c-8.5,1.8-17.1,3.5-25.6,5.3c-7.8,1.6-16.6,4-26.2,4c-13.5,0-24.2-4.2-34.9-6.4      c-10-2.1-20.3-2.5-31.2-0.9c-11.4,1.7-20.3,4.8-31.4,6.7c-6.5,1.1-13.3,1.6-20.4,0.7c-6.3-0.8-13.3-2.1-18.9-0.3      C259.1,235.3,261.2,236,262.6,235.5L262.6,235.5z"
   id="path342" />
			</g>
		</g>
	</g>
	
	
	
	
	
	
	
	
	
	
	
	
	
	
	
	
	
	
	
	
	
	
	
	
	
	
	
	
	
	
	
	<g
   id="g1056">
		<g
   id="g1055">
			<path
   d="M111,198.8c18.1,0,36.3,0,54.4-0.1c0.9,0,1.2-1.1,0.7-1.7c-3.2-4-6.9-7.1-11.5-9.5c-0.2,0.6-0.3,1.2-0.5,1.9     c6.2,0.5,11.8,2.6,16.9,6.2c-0.1-0.5-0.1-1-0.2-1.6c-5.2,5.2-11.2,9.3-18,12.1c-1.2,0.5-0.2,2.2,1,1.7c7-3,13-7.1,18.4-12.5     c0.5-0.5,0.3-1.2-0.2-1.6c-5.4-3.9-11.3-6-17.9-6.5c-1-0.1-1.4,1.4-0.5,1.9c4.4,2.3,8,5.3,11.1,9.2c0.2-0.6,0.5-1.1,0.7-1.7     c-18.1,0-36.3,0-54.4,0.1C109.8,196.8,109.8,198.8,111,198.8L111,198.8z"
   id="path1054" />
		</g>
	</g>
	
	
	
	
	
	
	
	
	
	
	
	
	
	
	
	
	
	
	
	
	
	
	
	
	
	
	
	
	
	
	
	
	
	
	
	
	
	
	
	
	
	
	
	
	
	
	
	
	
	
	
	
	
	
	
	
	
	
	
	
	
	
	
	
	
	<g
   id="g1369">
		<g
   class="st11"
   id="g1347">
			<g
   id="g1346">
				<path
   class="st3"
   d="M232,143.4c-1.6-0.1-2,1.7-2.5,2.9c1.3,0.4,2.7,0.7,4,1.1c0.1-0.4,0.2-0.7,0.3-1.1c0.6-1.9-1.3-3.2-3-3      c-0.2,0-0.5,0.1-0.7,0.1c1,0.6,2,1.2,3.1,1.7c-0.2-1.5-0.5-3-0.7-4.4c-0.6-3-5.5-2.3-5.4,0.7c0.1,2.3,1.5,4.8,4.1,4.8      c2.1,0,3.1-2.2,2.3-3.9c-0.2-0.4-0.5-0.9-0.9-1.1c-0.2-0.1,0-0.1,0,0.2c-1.8,0.2-3.6,0.5-5.4,0.7c0.4,1.4,0.8,2.9,1.2,4.3      c0.3,1.2,1.8,2.2,3.1,1.7c0.4-0.2,0.8-0.3,1.2-0.5c-1.2-0.5-2.4-1-3.6-1.4c0.1,0.4,0.2,0.7,0.4,1.1c0.7,2.2,4.1,1.8,4.1-0.5      C233.6,145.7,233.8,143.5,232,143.4L232,143.4z"
   id="path1345" />
			</g>
		</g>
		<g
   class="st11"
   id="g1349">
			<g
   id="g1348">
				<path
   class="st3"
   d="M234.8,148.2c1.1-0.8,2-1.7,2.9-2.6c0.5-0.5,1.1-1.3,1.9-1.3c-0.6-0.3-1.3-0.5-1.9-0.8      c0.1,0.1,0.1,0.1,0.2,0.2c-0.3-0.6-0.5-1.3-0.8-1.9c0,0.1,0,0.2,0,0.3c0.1-0.5,0.2-0.9,0.4-1.4c-0.4,0.8-2.2,1.7-3.1,2.2      c-1.5,0.9-3.5,1.4-3.9,3.4c-0.2,1,0.1,2.3,1.1,2.8c1.6,0.8,2.7,0.4,4.2-0.4c1-0.6,2.1-1.2,3-1.9c1.9-1.3,4.4-3,3.6-5.7      c-0.8-2.9-4.3-2.4-6.2-1c-1.8,1.3-3.2,3.4-4.1,5.4c-0.4,0.8-0.4,1.8,0.3,2.4C232.9,148.5,234,148.8,234.8,148.2L234.8,148.2z"
   id="path1347" />
			</g>
		</g>
		<g
   class="st11"
   id="g1351">
			<g
   id="g1350">
				<path
   class="st3"
   d="M230.8,155.3c0.1-0.1,0.2-0.2,0.3-0.3c0.6-0.6,0.9-1.6,0.6-2.4c-0.6-2.1-1.8-3.2-3.9-4      c-2.3-0.8-4.3-2.2-6.7-2.3c-6.1-0.3-10,1.6-12.4,7.2c-1.6,3.7-1.3,10.5,3,12.5c2.3,1.1,5.3,0.1,7.7,0.3c3,0.2,5.5-0.2,8.3-1.5      c4.1-1.9,8.1-6.5,5.7-11.2c-2.2-4.6-11.5-3.4-15.5-2.8c-4,0.7-8,4.7-5,8.8c3.6,4.8,12.1-0.5,16.1-1.9c-1.3-0.5-2.6-1.1-4-1.6      c0.1,0.2,0.3,0.4,0.4,0.7c-0.1-0.9-0.2-1.8-0.4-2.7c-0.1,0.5-0.3,1-0.6,1.5c-0.8,1.4-0.2,1.4,1.9,0.1c0.7,0.5,1.3,1,2,1.5      c-0.1-0.1-0.1-0.2-0.2-0.4c-0.7-1.4-2.7-1.8-4-1c-0.1,0.1-0.2,0.1-0.4,0.2c-1.6,1-2,2.9-1.2,4.5c0.1,0.2,0.2,0.4,0.3,0.5      c0.7,1.4,2.6,2,4,1.6c3.7-1,6.2-6.8,4.1-10.1c-0.8-1.2-2.5-2.1-4-1.6c-1.9,0.7-3.7,1.3-5.6,2c-1,0.3-3.7,1.9-4.7,1.5      c0.7,0.5,1.4,1.1,2.1,1.6c-0.8,1.8-0.4,2.3,1.3,1.6c1-0.1,2-0.1,3-0.1c1.9,0,3.9,0,5.7,0.6c-0.7-0.5-1.4-1.1-2.1-1.6      c1,1.5-3.5,2.9-4.3,3.1c-1.6,0.4-3.1,0-4.7-0.1c-0.6,0-4.2-0.2-3.2,0.6c-1.3-1-0.3-3.7,0.2-4.8c1.6-3.2,5.6-2.5,8.3-1.8      c2.1,0.5,3.8,1.5,5.8,2.2C229.7,156,230.4,155.7,230.8,155.3L230.8,155.3z"
   id="path1349" />
			</g>
		</g>
		<g
   class="st11"
   id="g1353">
			<g
   id="g1352">
				<path
   class="st3"
   d="M207.9,153.9c0.2-0.2,0.4-0.3-0.1,0c-0.1,0.1-0.2,0.1-0.4,0.2c0.3-0.1,0.5-0.2,0.7-0.3      c1.1-0.7,1.6-2,1.1-3.3c-0.5-1.1-1.8-1.9-3.1-1.5c-1,0.3-1.7,1-2.2,1.9c-0.6,1.1-0.4,2.5,0.6,3.2      C205.5,154.8,207.1,154.9,207.9,153.9L207.9,153.9z"
   id="path1351" />
			</g>
		</g>
		<g
   id="g1368">
			<g
   id="g1355">
				<g
   id="g1354">
					<path
   d="M235.6,154.4c-2.6-5-9.2-7.5-14.5-8.2c-5.4-0.7-11.2,1.2-13.3,6.6c-1.6,4.2-2.7,11.4,2.4,13.7c2.6,1.2,6.1,1,8.9,0.9       c3.1-0.1,6.3-0.3,9.3-1.4c5.1-1.8,9.3-7.2,6.5-12.6c-0.4-0.8-1.6-0.1-1.2,0.7c3.5,6.8-5,11-10.4,11.6c-2.8,0.3-5.8,0.4-8.6,0.2       c-3.8-0.2-6.6-1.8-6.7-6c-0.1-6.4,3.1-12.2,10-12.6c5.6-0.3,13.7,2.4,16.4,7.6C234.8,155.9,236,155.2,235.6,154.4L235.6,154.4z       "
   id="path1353" />
				</g>
			</g>
			<g
   id="g1357">
				<g
   id="g1356">
					<path
   d="M230.9,149.5c-1.3-2-6.4-8.9-1.6-10.1c5.3-1.3,2.4,7.6,1.8,9.8c-0.3,0.9,1.1,1.2,1.3,0.4c1-3.3,3.6-12.3-3-11.6       c-2,0.2-3.3,1.9-3.5,3.9c-0.3,3.1,2.1,5.9,3.7,8.3C230.2,150.9,231.4,150.2,230.9,149.5L230.9,149.5z"
   id="path1355" />
				</g>
			</g>
			<g
   id="g1359">
				<g
   id="g1358">
					<path
   d="M233,149.3c-0.5-2.3,0.6-4.8,1.9-6.7c1.3-1.8,4.1-3.8,6.1-1.8c2.2,2.2-1.4,5-3,6.1c-1.8,1.2-3.9,1.9-6,2.3       c-0.9,0.2-0.5,1.5,0.4,1.3c3.3-0.7,7-2.2,9.2-4.9c1.6-1.9,2.2-4.7-0.1-6.3c-5.7-3.8-10.9,5.6-9.9,10.2       C231.8,150.5,233.2,150.2,233,149.3L233,149.3z"
   id="path1357" />
				</g>
			</g>
			<g
   id="g1361">
				<g
   id="g1360">
					<path
   d="M226.4,153.3c-0.3,0.5-0.5,1-0.3,1.5c0.2,0.5,0.7,0.8,1.2,0.7c0.9-0.2,1.1-1.7,0.1-1.9c-0.4-0.1-0.7,0.1-0.9,0.5       c-0.4,0.9,0.8,1.9,1.6,1.3c0.8-0.5,0.5-1.9-0.4-2c-0.4-0.1-0.7,0.1-0.9,0.5c-0.1,0.3,0.1,0.8,0.5,0.9c-0.1-0.1-0.1-0.1-0.1-0.2       c0.4-0.4,0.6-0.4,0.7-0.1c-0.3,0.2-0.6,0.3-0.9,0.5c0,0,0.5-0.8,0.6-1C228.1,153.3,226.9,152.6,226.4,153.3L226.4,153.3z"
   id="path1359" />
				</g>
			</g>
			<g
   id="g1363">
				<g
   id="g1362">
					<path
   d="M231,153.3c-0.4,0.6-0.4,1.2,0,1.7c0.2-0.4,0.5-0.8,0.7-1.2c-0.7-0.2-1.4,0.2-1.6,0.9c-0.1,0.4,0.2,0.9,0.7,0.9       c0.3,0,0.5-0.1,0.8-0.1c0.4,0,0.7-0.3,0.7-0.7c0-0.3-0.3-0.7-0.7-0.7c-0.3,0-0.5,0.1-0.8,0.1c0.2,0.3,0.4,0.6,0.7,0.9       c0,0-0.1,0.1-0.2,0.1c0.7,0.2,1.1-0.7,0.7-1.2c0,0.1,0,0.2,0,0.3c0.2-0.3,0.3-0.7,0-1C231.7,153.1,231.2,153,231,153.3       L231,153.3z"
   id="path1361" />
				</g>
			</g>
			<g
   id="g1365">
				<g
   id="g1364">
					<path
   d="M227.4,160.3c2.2,0.3,4.3-0.4,5.8-2c0.6-0.7-0.4-1.7-1-1c-1.1,1.3-2.8,1.9-4.5,1.7       C226.8,158.9,226.5,160.2,227.4,160.3L227.4,160.3z"
   id="path1363" />
				</g>
			</g>
			<g
   id="g1367">
				<g
   id="g1366">
					<path
   d="M210.1,151.5c0.4-1.9-1.4-3.6-3.3-3.3c-2.1,0.3-3.5,2.5-3.8,4.4c-0.3,2,0.8,3.7,3,3.4c2.3-0.3,4.1-2,4.7-4.2       c0.3-0.9-1.1-1.2-1.3-0.4c-0.3,1.1-1.1,2.1-2.1,2.7c-1.2,0.7-3,0.8-2.9-1c0.1-1.1,0.7-2.2,1.4-2.9c0.5-0.5,1.1-0.8,1.8-0.6       c0.7,0.2,1.3,0.8,1.2,1.5C208.6,152,209.9,152.4,210.1,151.5L210.1,151.5z"
   id="path1365" />
				</g>
			</g>
		</g>
	</g>
	<g
   id="g1394">
		<g
   class="st11"
   id="g1371">
			<g
   id="g1370">
				<path
   class="st5"
   d="M228.9,185.7c-3-0.8-5.8-0.5-8.6,0.8c-2.5,1.1-6.1,2.9-7.6,5.2c-2.8,4.2,1,9.4,4.7,11.2      c4.5,2.2,11.4,2.3,15.7-0.5c4.4-2.9,5.7-9.2,2.2-13.3c-4.1-4.9-11.7-1.6-16.4,0.7c-4.6,2.2-5.7,8.2-0.4,10.6      c3.9,1.8,12.1,1.3,14.6-2.9c1.2-2,0.7-4.8-1.3-6.1c-2.4-1.5-5.5-0.5-7.7,0.8c-2.3,1.4-2.4,6,0.8,6.5c1.4,0.2,2.4,0.3,3.8-0.2      c4.4-1.5,2.5-8.5-1.9-7c-0.3,0.1-0.6,0.1-0.9,0.2c0.6,2.2,1.2,4.4,1.8,6.6c0.4-0.2,0.9-0.3,1.3-0.5c-0.7-0.5-1.4-1.1-2.1-1.6      c0.1,0.2,0.2,0.4,0.3,0.6c-0.1-0.9-0.2-1.8-0.4-2.7c0.2-0.8-0.2-0.9-1.2-0.2c-1,0.2-1.9,0.3-2.9,0.2c-1.5,2-1.4,2.5,0.2,1.5      c0.8-0.3,1.6-0.6,2.4-0.9c0.9-0.3,3.9-1.8,4.7-1c1.8,1.5-1.6,3.5-2.6,3.8c-1.9,0.6-10.6,0.9-9.8-2.9c0.1-0.7,3.7-2.4,4.3-2.7      c2-1,4-1.5,6.3-1.4C231.1,190.7,231.7,186.5,228.9,185.7L228.9,185.7z"
   id="path1369" />
			</g>
		</g>
		<g
   class="st11"
   id="g1373">
			<g
   id="g1372">
				<path
   class="st5"
   d="M231.4,178.1c-0.5-0.7-1.5-0.8-2.3-0.6c-0.3,0.1-0.6,0.2-0.8,0.4c-0.2,0.1-0.3,0.2-0.5,0.4      c-0.4,0.3-0.2,0.2,0.7-0.4c-0.9,0.2-1.8,1.1-2,2c-0.3,1.4-0.3,2.8,0.5,4c0.9,1.3,2.4,2,3.9,1.8c1.6-0.2,2.8-1.5,3.1-3.1      c0.2-1.2,0.1-2.3,0-3.5c-0.1-1.8-1.6-3.3-3.5-3c-1.9,0.3-2.9,2-2.5,3.8c0,0.2,0.1,0.5,0.1,0.8c0-0.3,0-0.4,0,0      c0,0.3,0,0.5,0.1,0.8c0,0.1,0,0.1,0,0.2c0,0.3,0,0.3,0,0c0-0.4,0.3-0.7,0.8-0.9c0.4-0.7,1-1,1.8-0.7c0.5,0.1,0.9,0.5,1.1,1      c0.1,0.2,0,0.7,0.1,0.3c0-0.2,0-0.4,0-0.7c0-1-0.6-2-1.4-2.4c0,0,0,0-0.1,0c0.3,0.3,0.6,0.6,1,1c0,0,0-0.1-0.1-0.1      c0.1,0.4,0.2,0.9,0.3,1.3c0,0,0-0.3,0-0.3c-0.1,0.2-0.1,0.5-0.2,0.7c0.2-0.2,0.2-0.5,0.3-0.8C232,179.1,231.8,178.6,231.4,178.1      L231.4,178.1z"
   id="path1371" />
			</g>
		</g>
		<g
   class="st11"
   id="g1375">
			<g
   id="g1374">
				<path
   class="st5"
   d="M237.9,179.8c-1.3-0.2-2.6,0.2-3.9,0.7c-0.6,0.3-1.3,0.5-1.9,0.9c-1.2,0.7-1.7,1.6-1.8,2.9      c-0.1,1.2,0.9,2.3,2,2.6c1.7,0.6,2.8-0.6,4.2-1.4c1-0.6,2-1.1,3-1.9c0.7-0.5,0.8-1.8,0.5-2.5      C239.6,180.3,238.9,179.9,237.9,179.8L237.9,179.8z"
   id="path1373" />
			</g>
		</g>
		<g
   class="st11"
   id="g1377">
			<g
   id="g1376">
				<path
   class="st5"
   d="M210.8,192c-0.4-1.4-1.8-2.1-3.2-1.8c-0.8,0.2-1.7,1-1.9,1.9c0,0,0,0,0,0.1c-0.2,1.1,0.1,2.5,1.3,3.1      c0.5,0.2,0.9,0.4,1.5,0.4c0,0,0.1,0,0.1,0c1.1-0.1,1-0.1-0.4-0.1c1.6,0.3,3.2-0.6,3.5-2.3c0.2-1.6-1-3.2-2.7-3.2      c-0.4,0-0.8,0.1-1.2,0.2c0.5,0,1,0,1.5,0c-0.3-0.1-0.1,0,0.5,0.2c0.3,0.3,0.6,0.6,0.9,0.9c0,0,0,0,0,0c0.1,0.7,0.2,1.3,0.3,2      C211,193,210.9,192.3,210.8,192L210.8,192z"
   id="path1375" />
			</g>
		</g>
		<g
   id="g1379">
			<g
   id="g1378">
				<path
   d="M235.6,189.1c-7.2-12-33.4,2.8-21.8,12.9c5.2,4.5,14.5,4.5,19.9,0.5c5.1-3.8,5.8-11.3,0.6-15.2      c-0.7-0.6-1.4,0.7-0.7,1.2c6.3,4.8,1.7,12.7-4.3,14.7c-4.1,1.3-9.3,1-13-1.2c-12.9-7.8,11.4-23.2,18.1-12.1      C234.9,190.6,236.1,189.9,235.6,189.1L235.6,189.1z"
   id="path1377" />
			</g>
		</g>
		<g
   id="g1381">
			<g
   id="g1380">
				<path
   d="M205,193.2c-0.3,1.9,1.3,3.1,3.1,3c1.7-0.1,4.4-1.1,4.6-3c0.2-1.6-1.2-3.1-2.7-3.5c-2.2-0.6-4.3,1.1-5.8,2.4      c-0.7,0.6,0.3,1.6,1,1c1.4-1.1,3.8-3.1,5.5-1.4c1.1,1.1,0.2,2.1-1,2.6c-0.8,0.3-3.7,1.2-3.4-0.7      C206.6,192.7,205.2,192.3,205,193.2L205,193.2z"
   id="path1379" />
			</g>
		</g>
		<g
   id="g1383">
			<g
   id="g1382">
				<path
   d="M232,186.2c-2.6-1.3-6.2-5.5-3.3-8.2c2.6-2.4,4.2,1.2,3.9,3.4c-0.2,1.7-1,3.3-1.6,4.9c-0.3,0.9,1.1,1.2,1.4,0.4      c1-2.7,2.7-5.9,1.2-8.7c-1-1.8-3-2.7-4.9-1.7c-5.2,2.6-1.1,9.5,2.6,11.3C232.1,187.9,232.8,186.6,232,186.2L232,186.2z"
   id="path1381" />
			</g>
		</g>
		<g
   id="g1385">
			<g
   id="g1384">
				<path
   d="M232.2,185.8c0.7-1.5,1.6-3.1,2.8-4.3c0.7-0.7,1.6-1.4,2.6-1.5c1.5-0.1,2.4,1,1.9,2.5c-1,3-5.1,4.1-7.8,3.1      c-0.9-0.3-1.2,1.1-0.4,1.4c2.2,0.8,4.6,0.5,6.6-0.7c1.7-1,3.7-3.2,3.2-5.4c-0.5-2-2.9-2.7-4.6-2.2c-2.7,0.9-4.4,3.9-5.6,6.3      C230.5,185.9,231.8,186.6,232.2,185.8L232.2,185.8z"
   id="path1383" />
			</g>
		</g>
		<g
   id="g1387">
			<g
   id="g1386">
				<path
   d="M232.1,189.4c-1.5-0.6-2,2.5-0.1,2.2c0.4-0.1,0.6-0.5,0.5-0.9c-0.1-0.4-0.5-0.6-0.9-0.5c0.3,0,0.5,0.1,0.6,0.3      c0,0,0,0,0,0c0,0.1-0.1,0.2-0.2,0.3c-0.1,0-0.3,0-0.4,0c0,0,0.1,0,0.1,0c0.4,0.1,0.8-0.2,0.9-0.5      C232.7,189.9,232.4,189.6,232.1,189.4L232.1,189.4z"
   id="path1385" />
			</g>
		</g>
		<g
   id="g1389">
			<g
   id="g1388">
				<path
   d="M225.7,195.7c-0.6,3.8,3.9,5.7,6.7,3.3c0.8-0.7,2.4-2.7,1.4-3.9c-0.6-0.6-1.8-0.5-2.6-0.5c-1.4-0.1-2.8-0.3-4.2-0.4      c-0.9-0.1-0.9,1.4,0,1.4c1.2,0.1,2.4,0.2,3.6,0.3c0.4,0,1.2,0,1.6,0.1c0.5-0.2,0.5,0,0.2,0.5c-0.1,0.2-0.2,0.4-0.4,0.6      c-0.6,0.8-1.6,1.5-2.6,1.5c-1.3,0-2.6-1.3-2.3-2.7C227.2,195.1,225.8,194.8,225.7,195.7L225.7,195.7z"
   id="path1387" />
			</g>
		</g>
		<g
   id="g1391">
			<g
   id="g1390">
				<path
   d="M232.6,189.7c-0.2,0-0.4,0-0.6,0.1c-0.5,0.2-0.8,1-0.2,1.3c0.3,0.1,0.5,0.2,0.8,0.2c-0.2-0.4-0.4-0.7-0.6-1.1      c0,0.1-0.1,0.1-0.1,0.2c-0.3,0.5,0.1,1,0.6,1.1c0.3,0,0.6-0.1,0.8-0.3c0.5-0.5,0.1-1.2-0.5-1.2c-0.4,0-0.7,0.2-0.8,0.5      c-0.3,0.6,0.3,1.4,1,1c0.3-0.2,0.5-0.5,0.5-0.9c-0.1-0.9-1.5-0.9-1.4,0c0.1-0.1,0.2-0.2,0.2-0.4c0.3,0.3,0.7,0.7,1,1      c-0.1,0.1-0.3,0.2-0.4,0.2c-0.2-0.4-0.3-0.8-0.5-1.2c0.1,0,0.1-0.1,0.2-0.1c0.2,0.4,0.4,0.7,0.6,1.1c0-0.1,0.1-0.1,0.1-0.2      c0.3-0.5-0.1-1.1-0.6-1.1c0,0,0,0,0,0c-0.1,0.4-0.1,0.9-0.2,1.3c0.1-0.1,0.1-0.1,0.2,0C233.5,191.2,233.5,189.7,232.6,189.7      L232.6,189.7z"
   id="path1389" />
			</g>
		</g>
		<g
   id="g1393">
			<g
   id="g1392">
				<path
   d="M228.9,190.9c-0.3-0.6-0.7-1.1-1.4-1.1c-0.7,0-1.5,0.5-2.1,0.9c-0.8,0.5-0.1,1.7,0.7,1.2c0.4-0.2,0.7-0.4,1.1-0.6      c0.3-0.1,0.3,0,0.5,0.3C228,192.5,229.3,191.7,228.9,190.9L228.9,190.9z"
   id="path1391" />
			</g>
		</g>
	</g>
	<g
   id="g1415">
		<g
   class="st11"
   id="g1396">
			<g
   id="g1395">
				<path
   class="st4"
   d="M211.6,223.6c-0.6-1.2-2.1-1.8-3.4-1.5c-1.1,0.3-1.8,1.4-1.6,2.5c0.2,1.2,1.1,1.9,2.2,2      c1.2,0.1,2.4,0,3.5-0.5c0.9-0.4,1.3-1.7,1.1-2.6c-0.3-0.9-1.2-1.7-2.2-1.7c-0.3,0-0.6,0.1-1,0.1c-0.1,0-0.2,0-0.4,0.1      c0.3,0,0.3,0,0.2,0c-0.4,0-0.8,0-1.2,0c0.2,1.5,0.4,3,0.6,4.5c0.2-0.1,0.5-0.2,0.7-0.3c-0.1,0.1-0.3,0.2-0.5,0.2      c-0.2,0-0.2,0,0,0c-0.3-0.1-0.4-0.1-0.2,0c0.7,0.2,1.6-0.1,2-0.7C212,225.1,212,224.3,211.6,223.6L211.6,223.6z"
   id="path1394" />
			</g>
		</g>
		<g
   class="st11"
   id="g1398">
			<g
   id="g1397">
				<path
   class="st4"
   d="M215.6,226.4c3.2,0.5,6.5,0.1,9.4,1.7c2.7,1.4,3.8,3.3,2.5,6.2c-1.1,2.4-3.1,3.8-5.8,3.1      c-1.6-0.4-3.6-1-5-2c-2-1.4-1.8-4.4,0.6-5.2c1.1-0.4,4.1,0.2,4.9,1.1c1.2,1.2,0.4,1.3-1,1.3c-1.2,0-3-1.1-2.9,1      c0.3-0.8,0.7-1.6,1-2.4c-0.1,0.1-0.2,0.2-0.3,0.3c1.8,0.2,3.5,0.5,5.3,0.7c-0.2-0.5-0.4-1-0.6-1.4c-1.9,0.8-3.9,1.6-5.8,2.4      c0.1,0.1,0.3,0.3,0.4,0.4c2,3.9,7.8,0.5,5.9-3.4c-0.4-0.8-0.8-1.3-1.4-1.8c-2-1.7-6-0.8-5.8,2.4c0.1,1.9,0.5,3.3,1.6,4.8      c1.1,1.6,3.8,2.5,5.3,0.7c2.8-3.5,0.1-9.3-4-10.5c-4.7-1.4-8.4,3.2-6.9,7.6c1.5,4.5,7.3,6.9,11.7,5.5c4.1-1.4,6.6-6.3,4.3-10.3      c-2.1-3.6-9.2-6.2-13.2-5.4c-4.4,0.9-7.9,7-6.9,11.3c1.1,5,6.3,7.1,10.7,8.3c5.7,1.5,9.5-0.2,12.5-5.2      c3.2-5.3,2.3-10.1-2.9-13.7c-4-2.8-10.4-4.2-14.3-0.5C214.1,224.4,214.4,226.2,215.6,226.4L215.6,226.4z"
   id="path1396" />
			</g>
		</g>
		<g
   class="st11"
   id="g1400">
			<g
   id="g1399">
				<path
   class="st4"
   d="M236,224c1.5-2.5,2.8-7.4-0.7-9.1c-1-0.5-2.7-0.6-3.5,0.4c-0.8,1.1-1.6,2.2-2.2,3.4c1.7,0,3.3,0,5,0      c-0.8-1.5-1.5-3.1-2.3-4.6c-1.5-2.9-6.1-0.9-5.3,2.2c0.4,1.3,0.7,2.6,1.1,3.9c1.2,3.5,6.5,2.1,5.6-1.5c-0.3-1.3-0.8-2.6-1.2-3.9      c-1.8,0.7-3.5,1.5-5.3,2.2c0.8,1.5,1.5,3.1,2.3,4.6c0.9,1.9,4,1.9,5,0c0.5-1,1.1-1.9,1.8-2.8c-1.3,0.3-2.6,0.7-3.9,1      c0.8,0.4-0.6-0.4-0.3-0.6c0,0,0,0.3,0,0.3c-0.3,1-0.4,2.1-0.3,3.1C231.8,225.1,234.8,226.1,236,224L236,224z"
   id="path1398" />
			</g>
		</g>
		<g
   id="g1402">
			<g
   id="g1401">
				<path
   d="M217.3,223.8c4-3.6,12.2-0.4,15.1,3.3c4.3,5.4,0.1,12.5-5.7,14.4c-5,1.7-12.3,0.3-15.9-3.8c-5.3-6.1,1.4-13,7.1-14.9      c0.8-0.3,0.5-1.6-0.4-1.3c-6.3,2.1-13,8.9-8.7,15.9c3.6,5.9,13.3,7.6,19.3,5c6-2.6,9.7-10.4,5.3-16.1      c-3.4-4.4-12.6-7.7-17.2-3.5C215.7,223.5,216.7,224.4,217.3,223.8L217.3,223.8z"
   id="path1400" />
			</g>
		</g>
		<g
   id="g1404">
			<g
   id="g1403">
				<path
   d="M212.5,224.1c-0.5,1.4-2.1,1.4-3.3,1.3c-0.4,0-1.1,0-1.5-0.2c-0.7-0.5-0.5-1.4,0.2-1.9c1.7-1.1,5.1-1.6,5.5,1.1      c0.1,0.9,1.5,0.5,1.3-0.4c-0.3-2-2.3-3.1-4.2-3c-1.7,0.1-4.5,1.1-4.9,3c-0.4,1.9,1.5,2.5,3,2.7c2.1,0.2,4.3-0.1,5.1-2.3      C214.2,223.7,212.9,223.3,212.5,224.1L212.5,224.1z"
   id="path1402" />
			</g>
		</g>
		<g
   id="g1406">
			<g
   id="g1405">
				<path
   d="M232.3,226.7c2.1,0.3,4-2.9,5-4.6c1.2-2,1.8-4.8,0-6.6c-1.3-1.4-3.4-1.4-4.6,0.1c-1.9,2.3-1.4,6.6-1.3,9.3      c0,0.9,1.4,0.9,1.4,0c-0.1-1.7,0-3.4,0.1-5.1c0.1-1.5,1.2-6,3.5-3.1c1.3,1.7,0.4,3.7-0.6,5.2c-0.3,0.5-2.2,3.5-3,3.4      C231.8,225.3,231.5,226.6,232.3,226.7L232.3,226.7z"
   id="path1404" />
			</g>
		</g>
		<g
   id="g1408">
			<g
   id="g1407">
				<path
   d="M233.1,223.9c0.9-2.8-0.1-13.4-5.1-11.7c-2.2,0.7-2.7,3.4-2.2,5.3c0.8,2.7,3,5,5.2,6.6c0.7,0.5,1.4-0.7,0.7-1.2      c-1.4-1-2.6-2.1-3.6-3.6c-0.4-0.7-0.8-1.4-1-2.2c-0.4-1.5,0.4-5.4,3.2-2.7c0.8,0.7,1.1,2.6,1.4,3.6c0.5,1.9,0.7,3.7,0.1,5.5      C231.6,224.4,232.9,224.8,233.1,223.9L233.1,223.9z"
   id="path1406" />
			</g>
		</g>
		<g
   id="g1410">
			<g
   id="g1409">
				<path
   d="M229.4,228.3c0,0,0-0.1-0.1-0.1c0.4-0.1,0.8-0.1,1.2-0.2c-0.1-0.2-0.2-0.4-0.2-0.5c0,0.3-0.1,0.6-0.1,0.8      c-0.2,0.1-0.3,0.1-0.4-0.1c-0.1,0.9,1.3,0.9,1.4,0c0.1-1-1.2-1.5-1.9-0.8c-0.2,0.2-0.2,0.6-0.1,0.8c0.1,0.2,0.2,0.4,0.2,0.5      c0.2,0.5,1.1,0.4,1.2-0.2c0.1-0.6-0.1-1.1-0.6-1.4c-0.3-0.2-0.8,0-0.9,0.2C229,227.7,229.2,228,229.4,228.3L229.4,228.3z"
   id="path1408" />
			</g>
		</g>
		<g
   id="g1412">
			<g
   id="g1411">
				<path
   d="M226.1,228.3c-0.2,0-0.3,0-0.3-0.2c0.3-0.2,0.6-0.3,0.8-0.5c-0.3-0.1-0.4,0.1-0.2,0.8c-0.2,0-0.4,0-0.5-0.1      c0,0,0,0,0.1,0c-0.1-0.1-0.2-0.3-0.3-0.4c0,0,0,0,0,0.1c0.1-0.2,0.1-0.4,0.2-0.7c0.2,0,0.4-0.1,0.6-0.1c0.1,0.3,0.2,0.6,0.2,0.9      c0,0,0,0,0,0c-0.3,0.1-0.5,0.2-0.8,0.3c0.3,0.1,0.6,0.2,0.8,0.3c0.3,0.1,0.7-0.2,0.8-0.5c0.1-0.4-0.1-0.7-0.5-0.8      c-0.3-0.1-0.6-0.2-0.8-0.3c-0.3-0.1-0.6,0.1-0.8,0.3c0,0,0,0,0,0c-0.2,0.3,0,0.7,0.2,0.9c0.3,0.2,0.8,0.1,1-0.1      c0.2-0.2,0.3-0.4,0.2-0.7c-0.2-0.7-1.1-0.8-1.5-0.2c-0.4,0.7,0.2,1.3,0.8,1.4c0.4,0.1,0.7-0.1,0.8-0.5c0.3-1-0.8-1.9-1.7-1.3      C224.6,227.6,225.3,228.8,226.1,228.3L226.1,228.3z"
   id="path1410" />
			</g>
		</g>
		<g
   id="g1414">
			<g
   id="g1413">
				<path
   d="M228.6,231.7c0.1,0.4,0.2,1.1-0.2,1.5c-0.3,0.3-0.8,0.2-1.1,0.1c-0.8-0.3-1.2-1.4-1.5-2.1c-0.3-0.8-1.6-0.5-1.3,0.4      c0.6,1.5,1.4,3.2,3.2,3.2c0.7,0,1.4-0.3,1.8-0.9c0.5-0.7,0.4-1.6,0.3-2.5C229.8,230.4,228.5,230.8,228.6,231.7L228.6,231.7z"
   id="path1412" />
			</g>
		</g>
	</g>
	
	
	
	
	
	
	
	
	
	
	
	
	
	
	
	
	
	
	
	
	
	
	
	
	
	
	
	
	
	
	
	
	
	
	
	
	
	
	
	
	
	
	
	
	
	
	
</g>
</svg>
