<?xml version="1.0" encoding="UTF-8" standalone="no"?>
<!-- Generator: Adobe Illustrator 23.0.3, SVG Export Plug-In . SVG Version: 6.00 Build 0)  -->

<svg
   version="1.1"
   x="0px"
   y="0px"
   viewBox="0 0 761.1 623.6"
   style="enable-background:new 0 0 761.1 623.6;"
   xml:space="preserve"
   id="svg1770"
   sodipodi:docname="time-series_data_data_t1_data.svg"
   inkscape:version="1.3.2 (091e20e, 2023-11-25)"
   xmlns:inkscape="http://www.inkscape.org/namespaces/inkscape"
   xmlns:sodipodi="http://sodipodi.sourceforge.net/DTD/sodipodi-0.dtd"
   xmlns="http://www.w3.org/2000/svg"
   xmlns:svg="http://www.w3.org/2000/svg"><defs
   id="defs1770" /><sodipodi:namedview
   id="namedview1770"
   pagecolor="#ffffff"
   bordercolor="#000000"
   borderopacity="0.25"
   inkscape:showpageshadow="2"
   inkscape:pageopacity="0.0"
   inkscape:pagecheckerboard="0"
   inkscape:deskcolor="#d1d1d1"
   inkscape:zoom="0.77924644"
   inkscape:cx="392.68707"
   inkscape:cy="259.2248"
   inkscape:window-width="1384"
   inkscape:window-height="847"
   inkscape:window-x="62"
   inkscape:window-y="25"
   inkscape:window-maximized="1"
   inkscape:current-layer="Layer_1" />
<style
   type="text/css"
   id="style1">
	.st0{opacity:0.3;fill:#1F77B4;}
	.st1{opacity:0.3;fill:#FF7F0E;}
	.st2{opacity:0.3;fill:#2CA02C;}
	.st3{fill:#1F77B4;}
	.st4{fill:#2CA02C;}
	.st5{fill:#FF7F0E;}
	.st6{fill:#C1272D;}
	.st7{fill:#FCEE21;}
	.st8{fill:#0000FF;}
	.st9{fill:#8CC63F;}
	.st10{fill:none;stroke:#820303;stroke-width:2.0469;stroke-miterlimit:10;}
	.st11{opacity:0.3;}
</style>

<g
   id="Layer_1">
	<g
   id="Слой_8">
	</g>
	<g
   id="Слой_16">
	</g>
	<g
   id="Time_scale">
	</g>
	<g
   id="Now_line">
	</g>
	<g
   id="Слой_10">
	</g>
	<g
   id="Слой_9">
	</g>
	
	
	
	
	
	
	
	
	<rect
   x="257.2"
   y="289.9"
   class="st0"
   width="199.3"
   height="26.5"
   id="rect345" />
	<rect
   x="257.2"
   y="325.9"
   class="st1"
   width="199.3"
   height="39.4"
   id="rect346" />
	<rect
   x="257.2"
   y="373.9"
   class="st2"
   width="199.3"
   height="16.5"
   id="rect347" />
	<g
   id="g387">
		<g
   id="g348">
			<g
   id="g347">
				<path
   class="st6"
   d="M278,331.9c0.7,1.5,1,3.1,1.1,4.6c0,0.6,3,0.6,3,0c-0.1-1.6-0.5-3.2-1.2-4.9      C280.6,331,277.7,331.3,278,331.9L278,331.9z"
   id="path347" />
			</g>
		</g>
		<g
   id="g350">
			<g
   id="g349">
				<path
   class="st6"
   d="M284.6,331.1c1.2,2.3,2.5,4.6,3.7,6.9c0.3,0.6,3.2,0.4,2.9-0.3c-1.2-2.3-2.5-4.6-3.7-6.9      C287.1,330.2,284.2,330.4,284.6,331.1L284.6,331.1z"
   id="path348" />
			</g>
		</g>
		<g
   id="g352">
			<g
   id="g351">
				<path
   class="st6"
   d="M339.2,332.5c0.1,1.9,0.3,3.8,0.7,5.7c0.1,0.6,3.1,0.6,3,0c-0.4-1.9-0.7-3.8-0.7-5.7      C342.2,331.8,339.2,331.8,339.2,332.5L339.2,332.5z"
   id="path350" />
			</g>
		</g>
		<g
   id="g354">
			<g
   id="g353">
				<path
   class="st6"
   d="M360.9,332.6c0.7,2,1.2,4.1,2.4,6.1c0.4,0.6,3.3,0.4,2.9-0.3c-1.1-1.9-1.6-3.9-2.3-5.8      C363.7,332,360.7,332,360.9,332.6L360.9,332.6z"
   id="path352" />
			</g>
		</g>
		<g
   id="g356">
			<g
   id="g355">
				<path
   class="st6"
   d="M420.4,329.9c0,1.6,0.6,3.2,1.8,4.8c0.5,0.6,3.4,0.4,2.9-0.3c-1.1-1.5-1.7-3-1.7-4.5      C423.3,329.2,420.3,329.2,420.4,329.9L420.4,329.9z"
   id="path354" />
			</g>
		</g>
		<g
   id="g358">
			<g
   id="g357">
				<path
   class="st7"
   d="M298.9,330.6c1.2,2.6,2.3,5.2,3.1,7.8c0.2,0.6,3.2,0.6,3,0c-0.9-2.7-1.9-5.4-3.2-8.1      C301.4,329.7,298.6,330,298.9,330.6L298.9,330.6z"
   id="path356" />
			</g>
		</g>
		<g
   id="g360">
			<g
   id="g359">
				<path
   class="st7"
   d="M349.9,332.3c0.5,1.4,1.1,2.8,1.6,4.3c0.3,0.9,0,2.3,1.5,3.1c0.5,0.3,1.7,0.4,2.4,0.1c0,0,0.1,0,0.1-0.1      c0.5-0.2,0.7-0.5,0-0.7l-0.1,0c-1.5-0.4-3.6,0.3-2.1,0.7l0.1,0c0-0.2,0-0.5,0-0.7c0,0-0.1,0-0.1,0.1c0.8,0,1.6,0.1,2.4,0.1      c-1.4-0.8-1.1-2.5-1.4-3.4c-0.4-1.2-0.9-2.3-1.3-3.5C352.6,331.6,349.6,331.6,349.9,332.3L349.9,332.3z"
   id="path358" />
			</g>
		</g>
		<g
   id="g362">
			<g
   id="g361">
				<path
   class="st7"
   d="M390,331.7c-0.1,1.4,0,2.8,0.4,4.2c0.2,0.6,3.2,0.6,3,0c-0.4-1.4-0.5-2.8-0.4-4.2      C393.1,331,390.1,331,390,331.7L390,331.7z"
   id="path360" />
			</g>
		</g>
		<g
   id="g364">
			<g
   id="g363">
				<path
   class="st8"
   d="M291.2,330.9c2.4,2.6,4.5,5.3,6.1,7.9c0.4,0.6,3.3,0.4,2.9-0.3c-1.6-2.7-3.7-5.3-6.1-7.9      C293.5,330,290.6,330.3,291.2,330.9L291.2,330.9z"
   id="path362" />
			</g>
		</g>
		<g
   id="g366">
			<g
   id="g365">
				<path
   class="st8"
   d="M331.3,333.3c1,1.4,1.8,2.7,2.6,4.1c0.3,0.6,3.2,0.4,2.9-0.3c-0.7-1.4-1.6-2.8-2.6-4.1      C333.7,332.4,330.8,332.7,331.3,333.3L331.3,333.3z"
   id="path364" />
			</g>
		</g>
		<g
   id="g368">
			<g
   id="g367">
				<path
   class="st8"
   d="M403.4,329.5c0.8,2.4,1.7,4.7,2.5,7.1c0.2,0.6,3.2,0.6,3,0c-0.8-2.4-1.7-4.7-2.5-7.1      C406.2,328.9,403.2,328.8,403.4,329.5L403.4,329.5z"
   id="path366" />
			</g>
		</g>
		<g
   id="g370">
			<g
   id="g369">
				<path
   class="st8"
   d="M427.5,330.4c0.4,1,0.8,1.9,1.4,2.8c0.4,0.6,3.3,0.4,2.9-0.3c-0.5-0.9-1-1.7-1.3-2.5      C430.3,329.8,427.3,329.8,427.5,330.4L427.5,330.4z"
   id="path368" />
			</g>
		</g>
		<g
   id="g372">
			<g
   id="g371">
				<path
   class="st9"
   d="M306.7,333.1c1,1.4,1.9,2.7,2.9,4c0.4,0.6,3.3,0.4,2.9-0.3c-1-1.4-1.9-2.7-2.9-4      C309.1,332.2,306.2,332.5,306.7,333.1L306.7,333.1z"
   id="path370" />
			</g>
		</g>
		<g
   id="g374">
			<g
   id="g373">
				<path
   class="st9"
   d="M312.9,334.4c0.6,0.4,1.1,0.9,1.7,1.3c0.5,0.4,0.8,0.8,1.9,1c0.5,0.1,1.1,0.1,1.5,0      c0.5-0.1,0.8-0.2,0.9-0.4c0.1-0.2-0.1-0.4-0.7-0.6l-0.1,0c-1.6-0.3-3.1,0.5-1.5,0.9l0.1,0c-0.2-0.2-0.5-0.4-0.7-0.6      c0,0,0,0,0,0.1c0.2-0.1,0.5-0.2,0.7-0.3c-0.1,0-0.1,0-0.2,0c0.5,0,1,0,1.5,0c0.2,0.1,0.2,0-0.1-0.1c-0.1-0.1-0.3-0.2-0.4-0.3      c-0.2-0.2-0.4-0.3-0.6-0.5c-0.5-0.4-0.9-0.7-1.4-1.1C314.7,333.3,312.1,333.8,312.9,334.4L312.9,334.4z"
   id="path372" />
			</g>
		</g>
		<g
   id="g376">
			<g
   id="g375">
				<path
   class="st9"
   d="M344.1,332.6c1.6,2.1,0.4,4.3,2.1,6.4c0.5,0.6,3.4,0.4,2.9-0.3c-1.8-2.1-0.5-4.3-2.1-6.4      C346.6,331.7,343.7,332,344.1,332.6L344.1,332.6z"
   id="path374" />
			</g>
		</g>
		<g
   id="g378">
			<g
   id="g377">
				<path
   class="st9"
   d="M368.3,333.3c0.7,1.2,1.4,2.5,2.1,3.7c0.3,0.6,3.2,0.4,2.9-0.3c-0.7-1.2-1.4-2.5-2.1-3.7      C370.8,332.4,367.9,332.7,368.3,333.3L368.3,333.3z"
   id="path376" />
			</g>
		</g>
		<g
   id="g380">
			<g
   id="g379">
				<path
   class="st9"
   d="M396.8,330.3c0.3,2-0.4,4.3,1.6,6.2c0.6,0.6,3.5,0.3,2.9-0.3c-1.9-1.8-1.2-4-1.5-5.9      C399.7,329.7,396.7,329.7,396.8,330.3L396.8,330.3z"
   id="path378" />
			</g>
		</g>
		<g
   id="g382">
			<g
   id="g381">
				<path
   class="st9"
   d="M411.6,329.6c0.6,2.1,1.6,4.2,3.1,6.2c0.5,0.6,3.3,0.4,2.9-0.3c-1.4-2-2.4-3.9-3-6      C414.4,328.9,411.4,328.9,411.6,329.6L411.6,329.6z"
   id="path380" />
			</g>
		</g>
		<g
   id="g384">
			<g
   id="g383">
				<path
   d="M266.2,337.1c3.6-1.8,7.3-3.7,12.6-5c7.5-1.9,16.1-1.7,24.4-0.3c12.7,2.1,22.6,5.7,35.6,7.5c10.1,1.4,22.8,1.9,32.1-0.4      c4.3-1.1,7.2-2.5,10.2-4c4.6-2.3,9.6-3.8,17.6-4.7c16.3-1.7,34.7-0.3,47.8,3.2c1.5,0.4,3.6-0.3,2.1-0.7      c-10.6-2.8-24-4.4-37.7-4.2c-6.7,0.1-13.7,0.6-19.7,1.6c-5.8,1-9.5,2.7-13.1,4.4c-4.5,2.2-9.3,4.2-17.6,4.7      c-8,0.5-16.5-0.2-23.6-1.4c-13.7-2.4-24.7-6.7-40-8c-15.6-1.3-25.7,2.8-33.3,6.7C262.6,337.1,265.2,337.6,266.2,337.1      L266.2,337.1z"
   id="path382" />
			</g>
		</g>
		<g
   id="g386">
			<g
   id="g385">
				<path
   d="M263.7,329.9c5.9,4,13,8.5,27.1,9.8c14.5,1.3,22.9-2.6,33.7-4.9c12.5-2.7,28.6-3.4,42.8-2c7.6,0.8,13.7,2.3,20.5,3.5      c6.4,1.1,13.1,1.6,20.3,1.3c16.6-0.8,28.5-5,39.2-8.8c1.3-0.5-0.8-1.2-2.1-0.7c-12.3,4.5-29.4,10.4-49.9,8.3      c-8.5-0.9-15.3-3-23.6-4.1c-6.9-0.9-14.4-1.3-21.8-1.1c-7,0.1-14,0.7-20.4,1.6c-7.6,1.2-13.1,3-19.7,4.6c-9,2.2-19.3,2-28-0.3      c-7.3-2-11.5-4.9-15.5-7.6C265.5,328.9,262.9,329.4,263.7,329.9L263.7,329.9z"
   id="path384" />
			</g>
		</g>
	</g>
	<g
   id="g454">
		<g
   id="g389">
			<g
   id="g388">
				<path
   class="st8"
   d="M281.2,296.3c-0.3,1,0.5,2,1,3c0.6,1.3,0.9,2.5,1.1,3.8c0.1,0.6,3.1,0.6,3,0c-0.1-1-0.3-2.1-0.7-3.1      c-0.5-1.2-1.7-2.4-1.3-3.7C284.4,295.6,281.4,295.6,281.2,296.3L281.2,296.3z"
   id="path387" />
			</g>
		</g>
		<g
   id="g391">
			<g
   id="g390">
				<path
   class="st8"
   d="M327.6,296.4c-0.8,2,1,4.3,1.7,6.3c0.2,0.6,3.2,0.6,3,0c-0.3-1-0.7-2-1-3c-0.3-1-1.2-2.1-0.8-3      C330.8,296,327.9,295.7,327.6,296.4L327.6,296.4z"
   id="path389" />
			</g>
		</g>
		<g
   id="g393">
			<g
   id="g392">
				<path
   class="st8"
   d="M332.7,296c1.4,2.3,2.5,4.5,3.4,6.8c0.2,0.6,3.2,0.6,3,0c-0.8-2.4-2-4.7-3.5-7.1      C335.2,295.1,332.3,295.3,332.7,296L332.7,296z"
   id="path391" />
			</g>
		</g>
		<g
   id="g395">
			<g
   id="g394">
				<path
   class="st8"
   d="M384.1,295.4c-0.1,2.1-0.2,4.2-0.1,6.3c0,0.6,3,0.6,3,0c-0.1-2.1-0.1-4.2,0.1-6.3      C387.1,294.7,384.1,294.7,384.1,295.4L384.1,295.4z"
   id="path393" />
			</g>
		</g>
		<g
   id="g397">
			<g
   id="g396">
				<path
   class="st8"
   d="M407.7,298.2c0,1.1,0,2.1,0,3.1c0,0.6,3,0.6,3,0c0-1.1,0-2.1,0-3.1C410.7,297.5,407.7,297.5,407.7,298.2      L407.7,298.2z"
   id="path395" />
			</g>
		</g>
		<g
   id="g399">
			<g
   id="g398">
				<path
   class="st7"
   d="M275.2,297.1c2.1,2,3.4,4,3.8,6c0.1,0.6,3.1,0.6,3,0c-0.4-2.2-1.7-4.3-3.9-6.3      C277.4,296.2,274.5,296.5,275.2,297.1L275.2,297.1z"
   id="path397" />
			</g>
		</g>
		<g
   id="g401">
			<g
   id="g400">
				<path
   class="st7"
   d="M348.3,296.3c1.5,1.6,2.4,3.3,2.8,5c0.2,0.6,3.2,0.6,3,0c-0.4-1.8-1.4-3.5-2.9-5.2      C350.7,295.5,347.8,295.7,348.3,296.3L348.3,296.3z"
   id="path399" />
			</g>
		</g>
		<g
   id="g403">
			<g
   id="g402">
				<path
   class="st7"
   d="M352.5,296.9c0.8,1,1.7,1.9,2.9,2.8c0.8,0.6,3.3,0.1,2.6-0.5c-1.1-0.8-1.9-1.7-2.6-2.5      C354.9,296,352,296.3,352.5,296.9L352.5,296.9z"
   id="path401" />
			</g>
		</g>
		<g
   id="g405">
			<g
   id="g404">
				<path
   class="st7"
   d="M394.4,296.2c0.5,2.1,0.9,4.2,1.4,6.4c0.1,0.6,3.1,0.6,3,0c-0.5-2.1-0.9-4.2-1.4-6.4      C397.2,295.5,394.2,295.5,394.4,296.2L394.4,296.2z"
   id="path403" />
			</g>
		</g>
		<g
   id="g407">
			<g
   id="g406">
				<path
   class="st6"
   d="M288.2,296.1c0.5,2.4,0.5,4.9,0.2,7.3c-0.1,0.6,2.9,0.6,3,0c0.3-2.4,0.3-4.9-0.2-7.3      C291,295.4,288,295.4,288.2,296.1L288.2,296.1z"
   id="path405" />
			</g>
		</g>
		<g
   id="g409">
			<g
   id="g408">
				<path
   class="st6"
   d="M337.7,295.8c3.7,2.2,3.7,4.7,5.5,7c0.5,0.6,3.4,0.4,2.9-0.3c-1.8-2.4-1.9-5-5.8-7.2      C339.3,294.8,336.8,295.3,337.7,295.8L337.7,295.8z"
   id="path407" />
			</g>
		</g>
		<g
   id="g411">
			<g
   id="g410">
				<path
   class="st6"
   d="M389.9,295.2c0.7,2.5,0.8,4.9,0.2,7.4c-0.1,0.6,2.9,0.6,3,0c0.5-2.5,0.4-5-0.2-7.4      C392.8,294.6,389.8,294.6,389.9,295.2L389.9,295.2z"
   id="path409" />
			</g>
		</g>
		<g
   id="g413">
			<g
   id="g412">
				<path
   class="st6"
   d="M412.8,298.5c-0.3,0.6-0.4,1.2-0.2,1.8c0.2,0.6,3.2,0.6,3,0c-0.1-0.5-0.1-1,0.1-1.5c0.1-0.3-0.2-0.5-1-0.6      C413.9,298.1,412.9,298.2,412.8,298.5L412.8,298.5z"
   id="path411" />
			</g>
		</g>
		<g
   id="g415">
			<g
   id="g414">
				<path
   class="st9"
   d="M269.7,298c2.3,1.3,3.8,2.7,4.6,4.3c0.3,0.6,3.2,0.4,2.9-0.3c-0.9-1.6-2.5-3.1-4.9-4.5      C271.3,296.9,268.8,297.4,269.7,298L269.7,298z"
   id="path413" />
			</g>
		</g>
		<g
   id="g417">
			<g
   id="g416">
				<path
   class="st9"
   d="M298.8,298.5c0.7,1,1.2,1.9,1.6,2.9c0.3,0.6,3.3,0.6,3,0c-0.4-1.1-1-2.1-1.7-3.1      C301.3,297.6,298.4,297.9,298.8,298.5L298.8,298.5z"
   id="path415" />
			</g>
		</g>
		<g
   id="g419">
			<g
   id="g418">
				<path
   class="st9"
   d="M303.8,299.5c0.4,0.2,0.8,0.5,1.2,0.7c0.4,0.2,1.4,0.3,2.1,0.2s1-0.5,0.5-0.7c-0.4-0.2-0.8-0.5-1.2-0.7      c-0.4-0.2-1.4-0.3-2.1-0.2C303.7,299,303.4,299.3,303.8,299.5L303.8,299.5z"
   id="path417" />
			</g>
		</g>
		<g
   id="g421">
			<g
   id="g420">
				<path
   class="st9"
   d="M343.3,295.4c1.3,2.2,2.7,4.3,4,6.5c0.4,0.6,3.3,0.4,2.9-0.3c-1.3-2.2-2.7-4.3-4-6.5      C345.8,294.5,342.9,294.8,343.3,295.4L343.3,295.4z"
   id="path419" />
			</g>
		</g>
		<g
   id="g423">
			<g
   id="g422">
				<path
   class="st9"
   d="M400,296.4c1.2,1.9,2.2,3.7,2.8,5.6c0.2,0.6,3.2,0.6,3,0c-0.7-2-1.7-3.9-3-5.8      C402.5,295.5,399.6,295.8,400,296.4L400,296.4z"
   id="path421" />
			</g>
		</g>
		<g
   id="g425">
			<g
   id="g424">
				<path
   class="st9"
   d="M378.1,295.6c-0.4,1.7-0.3,3.4,0.3,5.1c0.2,0.6,3.2,0.6,3,0c-0.6-1.7-0.6-3.4-0.3-5.1      C381.3,294.9,378.3,294.9,378.1,295.6L378.1,295.6z"
   id="path423" />
			</g>
		</g>
		<g
   id="g427">
			<g
   id="g426">
				<path
   class="st9"
   d="M373.5,296.4c0,0.9,0.2,1.9,0.6,2.8c0.2,0.6,3.2,0.6,3,0c-0.4-0.9-0.6-1.9-0.6-2.8      C376.5,295.8,373.5,295.8,373.5,296.4L373.5,296.4z"
   id="path425" />
			</g>
		</g>
		<g
   id="g429">
			<g
   id="g428">
				<path
   class="st9"
   d="M323.8,297.6c-0.1,1.6,0.2,3.1,0.8,4.7c0.2,0.6,3.2,0.6,3,0c-0.6-1.6-0.9-3.1-0.8-4.7      C326.8,296.9,323.8,296.9,323.8,297.6L323.8,297.6z"
   id="path427" />
			</g>
		</g>
		<g
   id="g431">
			<g
   id="g430">
				<path
   class="st7"
   d="M293.6,297.2c0.1,1.8,0.3,3.5,0.4,5.2c0,0.6,3,0.6,3,0c-0.1-1.8-0.3-3.5-0.4-5.2      C296.5,296.6,293.5,296.6,293.6,297.2L293.6,297.2z"
   id="path429" />
			</g>
		</g>
		<g
   id="g433">
			<g
   id="g432">
				<path
   class="st6"
   d="M265.4,299c0.9,1,1.8,2,2.7,2.9c0.6,0.6,3.5,0.4,2.9-0.3c-0.9-1-1.8-2-2.7-2.9      C267.8,298.1,264.9,298.4,265.4,299L265.4,299z"
   id="path431" />
			</g>
		</g>
		<g
   id="g435">
			<g
   id="g434">
				<path
   class="st6"
   d="M318.3,299.3c-0.1,0.7,0,1.3,0.3,2c0.1,0.3,0.6,0.5,1.5,0.5c0.7,0,1.6-0.2,1.5-0.5c-0.3-0.7-0.4-1.3-0.3-2      C321.4,298.7,318.4,298.7,318.3,299.3L318.3,299.3z"
   id="path433" />
			</g>
		</g>
		<g
   id="g437">
			<g
   id="g436">
				<path
   class="st6"
   d="M367.9,297.5c0.6,0.4,1.2,0.8,1.8,1.2c0.9,0.6,3.5,0.1,2.6-0.5c-0.6-0.4-1.2-0.8-1.8-1.2      C369.6,296.4,367,296.9,367.9,297.5L367.9,297.5z"
   id="path435" />
			</g>
		</g>
		<g
   id="g439">
			<g
   id="g438">
				<path
   class="st6"
   d="M429.6,297.9c0.4,0.7,0.8,1.4,1.2,2.1c0.4,0.6,3.2,0.4,2.9-0.3c-0.4-0.7-0.8-1.4-1.2-2.1      C432.1,297,429.2,297.3,429.6,297.9L429.6,297.9z"
   id="path437" />
			</g>
		</g>
		<g
   id="g441">
			<g
   id="g440">
				<path
   class="st6"
   d="M443.6,294.9c0.6,1.7,1.5,3.3,2.5,5c0.4,0.6,3.3,0.4,2.9-0.3c-1-1.6-1.8-3.1-2.4-4.7      C446.3,294.3,443.3,294.3,443.6,294.9L443.6,294.9z"
   id="path439" />
			</g>
		</g>
		<g
   id="g443">
			<g
   id="g442">
				<path
   class="st7"
   d="M426.4,299.6c0.2,0,0.4,0,0.6,0c0.8,0,1.5-0.2,1.5-0.5s-0.7-0.5-1.5-0.5c-0.2,0-0.4,0-0.6,0      c-0.8,0-1.5,0.2-1.5,0.5S425.6,299.6,426.4,299.6L426.4,299.6z"
   id="path441" />
			</g>
		</g>
		<g
   id="g445">
			<g
   id="g444">
				<path
   class="st7"
   d="M447.7,294.5c0.4,1.6,1.1,3.2,2,4.8c0.4,0.6,3.3,0.4,2.9-0.3c-0.9-1.5-1.6-3-1.9-4.5      C450.5,293.9,447.5,293.9,447.7,294.5L447.7,294.5z"
   id="path443" />
			</g>
		</g>
		<g
   id="g447">
			<g
   id="g446">
				<path
   class="st8"
   d="M433.7,297.1c0.9,1,1.3,1.9,1.3,2.9c0,0.6,3,0.6,3,0c0-1.1-0.4-2.1-1.4-3.1      C436,296.2,433.1,296.5,433.7,297.1L433.7,297.1z"
   id="path445" />
			</g>
		</g>
		<g
   id="g449">
			<g
   id="g448">
				<path
   class="st9"
   d="M438.3,296.1c1.8,1.5,0.3,3.2,2.4,4.7c0.8,0.6,3.4,0.1,2.6-0.5c-2-1.4-0.4-3-2.1-4.4      C440.5,295.2,437.6,295.5,438.3,296.1L438.3,296.1z"
   id="path447" />
			</g>
		</g>
		<g
   id="g451">
			<g
   id="g450">
				<path
   d="M263.2,301.7c1.5-2.3,6.2-4,12.9-4.8c7.4-0.9,14.8-0.3,21.7,0.8c12.9,2.1,24,5.6,38.8,6.1c14,0.4,21.9-3.2,31.1-6      c6.7-2,14.1-3,23.2-2.4c8.3,0.5,16,1.9,23.4,3.2c12.5,2.1,28.1,4.1,40.8,1.1c1.5-0.4,0.1-1.2-1.5-0.9c-15,3.6-32.5-0.3-46.5-2.5      c-12.6-2-26.3-3-38.2,0c-5.3,1.4-9.5,3.1-14.6,4.5c-7.2,2-15.7,2.5-24.7,1.6c-15-1.6-26.4-6-42.3-6.7c-12.2-0.6-24.3,1.9-27,5.9      C259.9,302.1,262.7,302.3,263.2,301.7L263.2,301.7z"
   id="path449" />
			</g>
		</g>
		<g
   id="g453">
			<g
   id="g452">
				<path
   d="M261.3,303.3c5.6-1.8,15.3,0.8,21.8,1c5,0.2,9.9-0.2,14.4-0.9c11.2-1.7,20.1-4.6,30.8-6.5c5.8-1,12.3-1.8,18.9-1.4      s12.3,1.6,17.6,2.9c9.2,2.2,19,5.3,31.1,5.4c8.8,0,16.4-1.8,23.6-3.3c9.9-2.1,19.9-4.1,29.8-6.2c1.6-0.3,0.1-1.2-1.5-0.9      c-8.5,1.8-17.1,3.5-25.6,5.3c-7.8,1.6-16.6,4-26.2,4c-13.5,0-24.2-4.2-34.9-6.4c-10-2.1-20.3-2.5-31.2-0.9      c-11.4,1.7-20.3,4.8-31.4,6.7c-6.5,1.1-13.3,1.6-20.4,0.7c-6.3-0.8-13.3-2.1-18.9-0.3C257.8,303,259.9,303.7,261.3,303.3      L261.3,303.3z"
   id="path451" />
			</g>
		</g>
	</g>
	<g
   id="g521">
		<g
   id="g456">
			<g
   id="g455">
				<path
   class="st8"
   d="M282.1,306.8c-0.3,1,0.5,2,1,3c0.6,1.3,0.9,2.5,1.1,3.8c0.1,0.6,3.1,0.6,3,0c-0.1-1-0.3-2.1-0.7-3.1      c-0.5-1.2-1.7-2.4-1.3-3.7C285.3,306.1,282.3,306.1,282.1,306.8L282.1,306.8z"
   id="path454" />
			</g>
		</g>
		<g
   id="g458">
			<g
   id="g457">
				<path
   class="st8"
   d="M328.5,306.9c-0.8,2,1,4.3,1.7,6.3c0.2,0.6,3.2,0.6,3,0c-0.3-1-0.7-2-1-3c-0.3-1-1.2-2.1-0.8-3      C331.6,306.5,328.8,306.2,328.5,306.9L328.5,306.9z"
   id="path456" />
			</g>
		</g>
		<g
   id="g460">
			<g
   id="g459">
				<path
   class="st8"
   d="M333.5,306.5c1.4,2.3,2.5,4.5,3.4,6.8c0.2,0.6,3.2,0.6,3,0c-0.8-2.4-2-4.7-3.5-7.1      C336,305.6,333.1,305.9,333.5,306.5L333.5,306.5z"
   id="path458" />
			</g>
		</g>
		<g
   id="g462">
			<g
   id="g461">
				<path
   class="st8"
   d="M384.9,305.9c-0.1,2.1-0.2,4.2-0.1,6.3c0,0.6,3,0.6,3,0c-0.1-2.1-0.1-4.2,0.1-6.3      C387.9,305.2,384.9,305.2,384.9,305.9L384.9,305.9z"
   id="path460" />
			</g>
		</g>
		<g
   id="g464">
			<g
   id="g463">
				<path
   class="st8"
   d="M408.6,308.6c0,1.1,0,2.1,0,3.1c0,0.6,3,0.6,3,0c0-1.1,0-2.1,0-3.1C411.6,308,408.6,308,408.6,308.6      L408.6,308.6z"
   id="path462" />
			</g>
		</g>
		<g
   id="g466">
			<g
   id="g465">
				<path
   class="st7"
   d="M276,307.6c2.1,2,3.4,4,3.8,6c0.1,0.6,3.1,0.6,3,0c-0.4-2.2-1.7-4.3-3.9-6.3      C278.2,306.8,275.3,307,276,307.6L276,307.6z"
   id="path464" />
			</g>
		</g>
		<g
   id="g468">
			<g
   id="g467">
				<path
   class="st7"
   d="M349.2,306.8c1.5,1.6,2.4,3.3,2.8,5c0.2,0.6,3.2,0.6,3,0c-0.4-1.8-1.4-3.5-2.9-5.2      C351.5,306,348.6,306.2,349.2,306.8L349.2,306.8z"
   id="path466" />
			</g>
		</g>
		<g
   id="g470">
			<g
   id="g469">
				<path
   class="st7"
   d="M353.3,307.4c0.8,1,1.7,1.9,2.9,2.8c0.8,0.6,3.3,0.1,2.6-0.5c-1.1-0.8-1.9-1.7-2.6-2.5      C355.7,306.5,352.8,306.8,353.3,307.4L353.3,307.4z"
   id="path468" />
			</g>
		</g>
		<g
   id="g472">
			<g
   id="g471">
				<path
   class="st7"
   d="M395.2,306.7c0.5,2.1,0.9,4.2,1.4,6.4c0.1,0.6,3.1,0.6,3,0c-0.5-2.1-0.9-4.2-1.4-6.4      C398.1,306,395.1,306,395.2,306.7L395.2,306.7z"
   id="path470" />
			</g>
		</g>
		<g
   id="g474">
			<g
   id="g473">
				<path
   class="st6"
   d="M289,306.6c0.5,2.4,0.5,4.9,0.2,7.3c-0.1,0.6,2.9,0.6,3,0c0.3-2.4,0.3-4.9-0.2-7.3      C291.9,305.9,288.9,305.9,289,306.6L289,306.6z"
   id="path472" />
			</g>
		</g>
		<g
   id="g476">
			<g
   id="g475">
				<path
   class="st6"
   d="M338.6,306.3c3.7,2.2,3.7,4.7,5.5,7c0.5,0.6,3.4,0.4,2.9-0.3c-1.8-2.4-1.9-5-5.8-7.2      C340.2,305.3,337.6,305.8,338.6,306.3L338.6,306.3z"
   id="path474" />
			</g>
		</g>
		<g
   id="g478">
			<g
   id="g477">
				<path
   class="st6"
   d="M390.8,305.7c0.7,2.5,0.8,4.9,0.2,7.4c-0.1,0.6,2.9,0.6,3,0c0.5-2.5,0.4-5-0.2-7.4      C393.6,305.1,390.6,305.1,390.8,305.7L390.8,305.7z"
   id="path476" />
			</g>
		</g>
		<g
   id="g480">
			<g
   id="g479">
				<path
   class="st6"
   d="M413.6,309c-0.3,0.6-0.4,1.2-0.2,1.8c0.2,0.6,3.2,0.6,3,0c-0.1-0.5-0.1-1,0.1-1.5c0.1-0.3-0.2-0.5-1-0.6      C414.8,308.5,413.8,308.7,413.6,309L413.6,309z"
   id="path478" />
			</g>
		</g>
		<g
   id="g482">
			<g
   id="g481">
				<path
   class="st9"
   d="M270.6,308.5c2.3,1.3,3.8,2.7,4.6,4.3c0.3,0.6,3.2,0.4,2.9-0.3c-0.9-1.6-2.5-3.1-4.9-4.5      C272.2,307.4,269.6,307.9,270.6,308.5L270.6,308.5z"
   id="path480" />
			</g>
		</g>
		<g
   id="g484">
			<g
   id="g483">
				<path
   class="st9"
   d="M299.7,309c0.7,1,1.2,1.9,1.6,2.9c0.3,0.6,3.3,0.6,3,0c-0.4-1.1-1-2.1-1.7-3.1      C302.1,308.1,299.2,308.4,299.7,309L299.7,309z"
   id="path482" />
			</g>
		</g>
		<g
   id="g486">
			<g
   id="g485">
				<path
   class="st9"
   d="M304.7,310.1c0.4,0.2,0.8,0.5,1.2,0.7c0.4,0.2,1.4,0.3,2.1,0.2s1-0.5,0.5-0.7c-0.4-0.2-0.8-0.5-1.2-0.7      c-0.4-0.2-1.4-0.3-2.1-0.2C304.5,309.5,304.3,309.8,304.7,310.1L304.7,310.1z"
   id="path484" />
			</g>
		</g>
		<g
   id="g488">
			<g
   id="g487">
				<path
   class="st9"
   d="M344.1,305.9c1.3,2.2,2.7,4.3,4,6.5c0.4,0.6,3.3,0.4,2.9-0.3c-1.3-2.2-2.7-4.3-4-6.5      C346.6,305,343.7,305.3,344.1,305.9L344.1,305.9z"
   id="path486" />
			</g>
		</g>
		<g
   id="g490">
			<g
   id="g489">
				<path
   class="st9"
   d="M400.8,306.9c1.2,1.9,2.2,3.7,2.8,5.6c0.2,0.6,3.2,0.6,3,0c-0.7-2-1.7-3.9-3-5.8      C403.3,306,400.4,306.3,400.8,306.9L400.8,306.9z"
   id="path488" />
			</g>
		</g>
		<g
   id="g492">
			<g
   id="g491">
				<path
   class="st9"
   d="M379,306.1c-0.4,1.7-0.3,3.4,0.3,5.1c0.2,0.6,3.2,0.6,3,0c-0.6-1.7-0.6-3.4-0.3-5.1      C382.1,305.4,379.1,305.5,379,306.1L379,306.1z"
   id="path490" />
			</g>
		</g>
		<g
   id="g494">
			<g
   id="g493">
				<path
   class="st9"
   d="M374.4,306.9c0,0.9,0.2,1.9,0.6,2.8c0.2,0.6,3.2,0.6,3,0c-0.4-0.9-0.6-1.9-0.6-2.8      C377.4,306.3,374.4,306.3,374.4,306.9L374.4,306.9z"
   id="path492" />
			</g>
		</g>
		<g
   id="g496">
			<g
   id="g495">
				<path
   class="st9"
   d="M324.6,308.1c-0.1,1.6,0.2,3.1,0.8,4.7c0.2,0.6,3.2,0.6,3,0c-0.6-1.6-0.9-3.1-0.8-4.7      C327.7,307.4,324.7,307.4,324.6,308.1L324.6,308.1z"
   id="path494" />
			</g>
		</g>
		<g
   id="g498">
			<g
   id="g497">
				<path
   class="st7"
   d="M294.4,307.7c0.1,1.8,0.3,3.5,0.4,5.2c0,0.6,3,0.6,3,0c-0.1-1.8-0.3-3.5-0.4-5.2      C297.4,307.1,294.4,307.1,294.4,307.7L294.4,307.7z"
   id="path496" />
			</g>
		</g>
		<g
   id="g500">
			<g
   id="g499">
				<path
   class="st6"
   d="M266.3,309.5c0.9,1,1.8,2,2.7,2.9c0.6,0.6,3.5,0.4,2.9-0.3c-0.9-1-1.8-2-2.7-2.9      C268.6,308.6,265.7,308.9,266.3,309.5L266.3,309.5z"
   id="path498" />
			</g>
		</g>
		<g
   id="g502">
			<g
   id="g501">
				<path
   class="st6"
   d="M319.2,309.8c-0.1,0.7,0,1.3,0.3,2c0.1,0.3,0.6,0.5,1.5,0.5c0.7,0,1.6-0.2,1.5-0.5c-0.3-0.7-0.4-1.3-0.3-2      C322.2,309.2,319.2,309.2,319.2,309.8L319.2,309.8z"
   id="path500" />
			</g>
		</g>
		<g
   id="g504">
			<g
   id="g503">
				<path
   class="st6"
   d="M368.8,308c0.6,0.4,1.2,0.8,1.8,1.2c0.9,0.6,3.5,0.1,2.6-0.5c-0.6-0.4-1.2-0.8-1.8-1.2      C370.5,306.9,367.9,307.4,368.8,308L368.8,308z"
   id="path502" />
			</g>
		</g>
		<g
   id="g506">
			<g
   id="g505">
				<path
   class="st6"
   d="M430.4,308.4c0.4,0.7,0.8,1.4,1.2,2.1c0.4,0.6,3.2,0.4,2.9-0.3c-0.4-0.7-0.8-1.4-1.2-2.1      C432.9,307.5,430.1,307.8,430.4,308.4L430.4,308.4z"
   id="path504" />
			</g>
		</g>
		<g
   id="g508">
			<g
   id="g507">
				<path
   class="st6"
   d="M444.4,305.4c0.6,1.7,1.5,3.3,2.5,5c0.4,0.6,3.3,0.4,2.9-0.3c-1-1.6-1.8-3.1-2.4-4.7      C447.2,304.8,444.2,304.8,444.4,305.4L444.4,305.4z"
   id="path506" />
			</g>
		</g>
		<g
   id="g510">
			<g
   id="g509">
				<path
   class="st7"
   d="M427.2,310.1c0.2,0,0.4,0,0.6,0c0.8,0,1.5-0.2,1.5-0.5c0-0.3-0.7-0.5-1.5-0.5c-0.2,0-0.4,0-0.6,0      c-0.8,0-1.5,0.2-1.5,0.5C425.8,309.8,426.4,310.1,427.2,310.1L427.2,310.1z"
   id="path508" />
			</g>
		</g>
		<g
   id="g512">
			<g
   id="g511">
				<path
   class="st7"
   d="M448.5,305c0.4,1.6,1.1,3.2,2,4.8c0.4,0.6,3.3,0.4,2.9-0.3c-0.9-1.5-1.6-3-1.9-4.5      C451.4,304.4,448.4,304.4,448.5,305L448.5,305z"
   id="path510" />
			</g>
		</g>
		<g
   id="g514">
			<g
   id="g513">
				<path
   class="st8"
   d="M434.5,307.6c0.9,1,1.3,1.9,1.3,2.9c0,0.6,3,0.6,3,0c0-1.1-0.4-2.1-1.4-3.1      C436.8,306.8,433.9,307,434.5,307.6L434.5,307.6z"
   id="path512" />
			</g>
		</g>
		<g
   id="g516">
			<g
   id="g515">
				<path
   class="st9"
   d="M439.2,306.6c1.8,1.5,0.3,3.2,2.4,4.7c0.8,0.6,3.4,0.1,2.6-0.5c-2-1.4-0.4-3-2.1-4.4      C441.4,305.7,438.5,306,439.2,306.6L439.2,306.6z"
   id="path514" />
			</g>
		</g>
		<g
   id="g518">
			<g
   id="g517">
				<path
   d="M264,312.2c1.5-2.3,6.2-4,12.9-4.8c7.4-0.9,14.8-0.3,21.7,0.8c12.9,2.1,24,5.6,38.8,6.1c14,0.4,21.9-3.2,31.1-6      c6.7-2,14.1-3,23.2-2.4c8.3,0.5,16,1.9,23.4,3.2c12.5,2.1,28.1,4.1,40.8,1.1c1.5-0.4,0.1-1.2-1.5-0.9c-15,3.6-32.5-0.3-46.5-2.5      c-12.6-2-26.3-3-38.2,0c-5.3,1.4-9.5,3.1-14.6,4.5c-7.2,2-15.7,2.5-24.7,1.6c-15-1.6-26.4-6-42.3-6.7c-12.2-0.6-24.3,1.9-27,5.9      C260.7,312.6,263.6,312.8,264,312.2L264,312.2z"
   id="path516" />
			</g>
		</g>
		<g
   id="g520">
			<g
   id="g519">
				<path
   d="M262.2,313.8c5.6-1.8,15.3,0.8,21.8,1c5,0.2,9.9-0.2,14.4-0.9c11.2-1.7,20.1-4.6,30.8-6.5c5.8-1,12.3-1.8,18.9-1.4      c6.6,0.4,12.3,1.6,17.6,2.9c9.2,2.2,19,5.3,31.1,5.4c8.8,0,16.4-1.8,23.6-3.3c9.9-2.1,19.9-4.1,29.8-6.2      c1.6-0.3,0.1-1.2-1.5-0.9c-8.5,1.8-17.1,3.5-25.6,5.3c-7.8,1.6-16.6,4-26.2,4c-13.5,0-24.2-4.2-34.9-6.4      c-10-2.1-20.3-2.5-31.2-0.9c-11.4,1.7-20.3,4.8-31.4,6.7c-6.5,1.1-13.3,1.6-20.4,0.7c-6.3-0.8-13.3-2.1-18.9-0.3      C258.7,313.5,260.8,314.2,262.2,313.8L262.2,313.8z"
   id="path518" />
			</g>
		</g>
	</g>
	<g
   id="g562">
		<g
   id="g523">
			<g
   id="g522">
				<path
   class="st6"
   d="M277.4,344.6c0.7,1.5,1,3.1,1.1,4.6c0,0.6,3,0.6,3,0c-0.1-1.6-0.5-3.2-1.2-4.9      C280.1,343.7,277.2,344,277.4,344.6L277.4,344.6z"
   id="path521" />
			</g>
		</g>
		<g
   id="g525">
			<g
   id="g524">
				<path
   class="st6"
   d="M284,343.8c1.2,2.3,2.5,4.6,3.7,6.9c0.3,0.6,3.2,0.4,2.9-0.3c-1.2-2.3-2.5-4.6-3.7-6.9      C286.6,342.9,283.7,343.2,284,343.8L284,343.8z"
   id="path523" />
			</g>
		</g>
		<g
   id="g527">
			<g
   id="g526">
				<path
   class="st6"
   d="M338.7,345.2c0.1,1.9,0.3,3.8,0.7,5.7c0.1,0.6,3.1,0.6,3,0c-0.4-1.9-0.7-3.8-0.7-5.7      C341.6,344.6,338.6,344.6,338.7,345.2L338.7,345.2z"
   id="path525" />
			</g>
		</g>
		<g
   id="g529">
			<g
   id="g528">
				<path
   class="st6"
   d="M360.3,345.3c0.7,2,1.2,4.1,2.4,6.1c0.4,0.6,3.3,0.4,2.9-0.3c-1.1-1.9-1.6-3.9-2.3-5.8      C363.1,344.7,360.1,344.7,360.3,345.3L360.3,345.3z"
   id="path527" />
			</g>
		</g>
		<g
   id="g531">
			<g
   id="g530">
				<path
   class="st6"
   d="M419.8,342.6c0,1.6,0.6,3.2,1.8,4.8c0.5,0.6,3.4,0.4,2.9-0.3c-1.1-1.5-1.7-3-1.7-4.5      C422.8,342,419.8,342,419.8,342.6L419.8,342.6z"
   id="path529" />
			</g>
		</g>
		<g
   id="g533">
			<g
   id="g532">
				<path
   class="st7"
   d="M298.3,343.4c1.2,2.6,2.3,5.2,3.1,7.8c0.2,0.6,3.2,0.6,3,0c-0.9-2.7-1.9-5.4-3.2-8.1      C300.9,342.5,298,342.7,298.3,343.4L298.3,343.4z"
   id="path531" />
			</g>
		</g>
		<g
   id="g535">
			<g
   id="g534">
				<path
   class="st7"
   d="M349.3,345c0.5,1.4,1.1,2.8,1.6,4.3c0.3,0.9,0,2.3,1.5,3.1c0.5,0.3,1.7,0.4,2.4,0.1c0,0,0.1,0,0.1-0.1      c0.5-0.2,0.7-0.5,0-0.7l-0.1,0c-1.5-0.4-3.6,0.3-2.1,0.7l0.1,0c0-0.2,0-0.5,0-0.7c0,0-0.1,0-0.1,0.1c0.8,0,1.6,0.1,2.4,0.1      c-1.4-0.8-1.1-2.5-1.4-3.4c-0.4-1.2-0.9-2.3-1.3-3.5C352.1,344.4,349.1,344.4,349.3,345L349.3,345z"
   id="path533" />
			</g>
		</g>
		<g
   id="g537">
			<g
   id="g536">
				<path
   class="st6"
   d="M390.4,344.4c-0.1,1.4,0,2.8,0.4,4.2c0.2,0.6,3.2,0.6,3,0c-0.4-1.4-0.5-2.8-0.4-4.2      C393.5,343.7,390.5,343.7,390.4,344.4L390.4,344.4z"
   id="path535" />
			</g>
		</g>
		<g
   id="g539">
			<g
   id="g538">
				<path
   class="st8"
   d="M290.6,343.6c2.4,2.6,4.5,5.3,6.1,7.9c0.4,0.6,3.3,0.4,2.9-0.3c-1.6-2.7-3.7-5.3-6.1-7.9      C293,342.7,290.1,343,290.6,343.6L290.6,343.6z"
   id="path537" />
			</g>
		</g>
		<g
   id="g541">
			<g
   id="g540">
				<path
   class="st8"
   d="M330.7,346c1,1.4,1.8,2.7,2.6,4.1c0.3,0.6,3.2,0.4,2.9-0.3c-0.7-1.4-1.6-2.8-2.6-4.1      C333.1,345.1,330.2,345.4,330.7,346L330.7,346z"
   id="path539" />
			</g>
		</g>
		<g
   id="g543">
			<g
   id="g542">
				<path
   class="st8"
   d="M402.8,342.2c0.8,2.4,1.7,4.7,2.5,7.1c0.2,0.6,3.2,0.6,3,0c-0.8-2.4-1.7-4.7-2.5-7.1      C405.6,341.6,402.6,341.6,402.8,342.2L402.8,342.2z"
   id="path541" />
			</g>
		</g>
		<g
   id="g545">
			<g
   id="g544">
				<path
   class="st8"
   d="M426.9,343.1c0.4,1,0.8,1.9,1.4,2.8c0.4,0.6,3.3,0.4,2.9-0.3c-0.5-0.9-1-1.7-1.3-2.5      C429.7,342.5,426.7,342.5,426.9,343.1L426.9,343.1z"
   id="path543" />
			</g>
		</g>
		<g
   id="g547">
			<g
   id="g546">
				<path
   class="st9"
   d="M306.1,345.8c1,1.4,1.9,2.7,2.9,4c0.4,0.6,3.3,0.4,2.9-0.3c-1-1.4-1.9-2.7-2.9-4      C308.5,345,305.6,345.2,306.1,345.8L306.1,345.8z"
   id="path545" />
			</g>
		</g>
		<g
   id="g549">
			<g
   id="g548">
				<path
   class="st9"
   d="M312.3,347.1c0.6,0.4,1.1,0.9,1.7,1.3c0.5,0.4,0.8,0.8,1.9,1c0.5,0.1,1.1,0.1,1.5,0      c0.5-0.1,0.8-0.2,0.9-0.4c0.1-0.2-0.1-0.4-0.7-0.6l-0.1,0c-1.6-0.3-3.1,0.5-1.5,0.9l0.1,0c-0.2-0.2-0.5-0.4-0.7-0.6      c0,0,0,0,0,0.1c0.2-0.1,0.5-0.2,0.7-0.3c-0.1,0-0.1,0-0.2,0c0.5,0,1,0,1.5,0c0.2,0.1,0.2,0-0.1-0.1c-0.1-0.1-0.3-0.2-0.4-0.3      c-0.2-0.2-0.4-0.3-0.6-0.5c-0.5-0.4-0.9-0.7-1.4-1.1C314.2,346,311.6,346.5,312.3,347.1L312.3,347.1z"
   id="path547" />
			</g>
		</g>
		<g
   id="g551">
			<g
   id="g550">
				<path
   class="st9"
   d="M343.6,345.3c1.6,2.1,0.4,4.3,2.1,6.4c0.5,0.6,3.4,0.4,2.9-0.3c-1.8-2.1-0.5-4.3-2.1-6.4      C346,344.4,343.1,344.7,343.6,345.3L343.6,345.3z"
   id="path549" />
			</g>
		</g>
		<g
   id="g553">
			<g
   id="g552">
				<path
   class="st9"
   d="M367.7,346c0.7,1.2,1.4,2.5,2.1,3.7c0.3,0.6,3.2,0.4,2.9-0.3c-0.7-1.2-1.4-2.5-2.1-3.7      C370.2,345.1,367.3,345.4,367.7,346L367.7,346z"
   id="path551" />
			</g>
		</g>
		<g
   id="g555">
			<g
   id="g554">
				<path
   class="st9"
   d="M396.2,343c0.3,2-0.4,4.3,1.6,6.2c0.6,0.6,3.5,0.3,2.9-0.3c-1.9-1.8-1.2-4-1.5-5.9      C399.1,342.4,396.1,342.4,396.2,343L396.2,343z"
   id="path553" />
			</g>
		</g>
		<g
   id="g557">
			<g
   id="g556">
				<path
   class="st9"
   d="M411,342.3c0.6,2.1,1.6,4.2,3.1,6.2c0.5,0.6,3.3,0.4,2.9-0.3c-1.4-2-2.4-3.9-3-6      C413.9,341.7,410.9,341.7,411,342.3L411,342.3z"
   id="path555" />
			</g>
		</g>
		<g
   id="g559">
			<g
   id="g558">
				<path
   d="M265.7,349.8c3.6-1.8,7.3-3.7,12.6-5c7.5-1.9,16.1-1.7,24.4-0.3c12.7,2.1,22.6,5.7,35.6,7.5c10.1,1.4,22.8,1.9,32.1-0.4      c4.3-1.1,7.2-2.5,10.2-4c4.6-2.3,9.6-3.8,17.6-4.7c16.3-1.7,34.7-0.3,47.8,3.2c1.5,0.4,3.6-0.3,2.1-0.7      c-10.6-2.8-24-4.4-37.7-4.2c-6.7,0.1-13.7,0.6-19.7,1.6c-5.8,1-9.5,2.7-13.1,4.4c-4.5,2.2-9.3,4.2-17.6,4.7      c-8,0.5-16.5-0.2-23.6-1.4c-13.7-2.4-24.7-6.7-40-8c-15.6-1.3-25.7,2.8-33.3,6.7C262,349.8,264.6,350.3,265.7,349.8L265.7,349.8      z"
   id="path557" />
			</g>
		</g>
		<g
   id="g561">
			<g
   id="g560">
				<path
   d="M263.2,342.7c5.9,4,13,8.5,27.1,9.8c14.5,1.3,22.9-2.6,33.7-4.9c12.5-2.7,28.6-3.4,42.8-2c7.6,0.8,13.7,2.3,20.5,3.5      c6.4,1.1,13.1,1.6,20.3,1.3c16.6-0.8,28.5-5,39.2-8.8c1.3-0.5-0.8-1.2-2.1-0.7c-12.3,4.5-29.4,10.4-49.9,8.3      c-8.5-0.9-15.3-3-23.6-4.1c-6.9-0.9-14.4-1.3-21.8-1.1c-7,0.1-14,0.7-20.4,1.6c-7.6,1.2-13.1,3-19.7,4.6c-9,2.2-19.3,2-28-0.3      c-7.3-2-11.5-4.9-15.5-7.6C264.9,341.6,262.3,342.1,263.2,342.7L263.2,342.7z"
   id="path559" />
			</g>
		</g>
	</g>
	<g
   id="g603">
		<g
   id="g564">
			<g
   id="g563">
				<path
   class="st6"
   d="M279.7,356.5c0.7,1.5,1,3.1,1.1,4.6c0,0.6,3,0.6,3,0c-0.1-1.6-0.5-3.2-1.2-4.9      C282.3,355.6,279.4,355.8,279.7,356.5L279.7,356.5z"
   id="path562" />
			</g>
		</g>
		<g
   id="g566">
			<g
   id="g565">
				<path
   class="st6"
   d="M286.3,355.7c1.2,2.3,2.5,4.6,3.7,6.9c0.3,0.6,3.2,0.4,2.9-0.3c-1.2-2.3-2.5-4.6-3.7-6.9      C288.8,354.8,285.9,355,286.3,355.7L286.3,355.7z"
   id="path564" />
			</g>
		</g>
		<g
   id="g568">
			<g
   id="g567">
				<path
   class="st6"
   d="M340.9,357.1c0.1,1.9,0.3,3.8,0.7,5.7c0.1,0.6,3.1,0.6,3,0c-0.4-1.9-0.7-3.8-0.7-5.7      C343.9,356.4,340.9,356.4,340.9,357.1L340.9,357.1z"
   id="path566" />
			</g>
		</g>
		<g
   id="g570">
			<g
   id="g569">
				<path
   class="st6"
   d="M362.6,357.2c0.7,2,1.2,4.1,2.4,6.1c0.4,0.6,3.3,0.4,2.9-0.3c-1.1-1.9-1.6-3.9-2.3-5.8      C365.4,356.5,362.4,356.5,362.6,357.2L362.6,357.2z"
   id="path568" />
			</g>
		</g>
		<g
   id="g572">
			<g
   id="g571">
				<path
   class="st6"
   d="M422,354.5c0,1.6,0.6,3.2,1.8,4.8c0.5,0.6,3.4,0.4,2.9-0.3c-1.1-1.5-1.7-3-1.7-4.5      C425,353.8,422,353.8,422,354.5L422,354.5z"
   id="path570" />
			</g>
		</g>
		<g
   id="g574">
			<g
   id="g573">
				<path
   class="st7"
   d="M300.5,355.2c1.2,2.6,2.3,5.2,3.1,7.8c0.2,0.6,3.2,0.6,3,0c-0.9-2.7-1.9-5.4-3.2-8.1      C303.1,354.3,300.2,354.6,300.5,355.2L300.5,355.2z"
   id="path572" />
			</g>
		</g>
		<g
   id="g576">
			<g
   id="g575">
				<path
   class="st7"
   d="M351.5,356.9c0.5,1.4,1.1,2.8,1.6,4.3c0.3,0.9,0,2.3,1.5,3.1c0.5,0.3,1.7,0.4,2.4,0.1c0,0,0.1,0,0.1-0.1      c0.5-0.2,0.7-0.5,0-0.7l-0.1,0c-1.5-0.4-3.6,0.3-2.1,0.7l0.1,0c0-0.2,0-0.5,0-0.7c0,0-0.1,0-0.1,0.1c0.8,0,1.6,0.1,2.4,0.1      c-1.4-0.8-1.1-2.5-1.4-3.4c-0.4-1.2-0.9-2.3-1.3-3.5C354.3,356.2,351.3,356.2,351.5,356.9L351.5,356.9z"
   id="path574" />
			</g>
		</g>
		<g
   id="g578">
			<g
   id="g577">
				<path
   class="st7"
   d="M391.7,356.2c-0.1,1.4,0,2.8,0.4,4.2c0.2,0.6,3.2,0.6,3,0c-0.4-1.4-0.5-2.8-0.4-4.2      C394.7,355.6,391.7,355.6,391.7,356.2L391.7,356.2z"
   id="path576" />
			</g>
		</g>
		<g
   id="g580">
			<g
   id="g579">
				<path
   class="st8"
   d="M292.9,355.5c2.4,2.6,4.5,5.3,6.1,7.9c0.4,0.6,3.3,0.4,2.9-0.3c-1.6-2.7-3.7-5.3-6.1-7.9      C295.2,354.6,292.3,354.8,292.9,355.5L292.9,355.5z"
   id="path578" />
			</g>
		</g>
		<g
   id="g582">
			<g
   id="g581">
				<path
   class="st8"
   d="M332.9,357.9c1,1.4,1.8,2.7,2.6,4.1c0.3,0.6,3.2,0.4,2.9-0.3c-0.7-1.4-1.6-2.8-2.6-4.1      C335.4,357,332.5,357.3,332.9,357.9L332.9,357.9z"
   id="path580" />
			</g>
		</g>
		<g
   id="g584">
			<g
   id="g583">
				<path
   class="st8"
   d="M405.1,354.1c0.8,2.4,1.7,4.7,2.5,7.1c0.2,0.6,3.2,0.6,3,0c-0.8-2.4-1.7-4.7-2.5-7.1      C407.8,353.5,404.8,353.5,405.1,354.1L405.1,354.1z"
   id="path582" />
			</g>
		</g>
		<g
   id="g586">
			<g
   id="g585">
				<path
   class="st8"
   d="M429.2,355c0.4,1,0.8,1.9,1.4,2.8c0.4,0.6,3.3,0.4,2.9-0.3c-0.5-0.9-1-1.7-1.3-2.5      C431.9,354.4,428.9,354.4,429.2,355L429.2,355z"
   id="path584" />
			</g>
		</g>
		<g
   id="g588">
			<g
   id="g587">
				<path
   class="st9"
   d="M308.3,357.7c1,1.4,1.9,2.7,2.9,4c0.4,0.6,3.3,0.4,2.9-0.3c-1-1.4-1.9-2.7-2.9-4      C310.8,356.8,307.9,357.1,308.3,357.7L308.3,357.7z"
   id="path586" />
			</g>
		</g>
		<g
   id="g590">
			<g
   id="g589">
				<path
   class="st9"
   d="M314.6,359c0.6,0.4,1.1,0.9,1.7,1.3c0.5,0.4,0.8,0.8,1.9,1c0.5,0.1,1.1,0.1,1.5,0c0.5-0.1,0.8-0.2,0.9-0.4      c0.1-0.2-0.1-0.4-0.7-0.6l-0.1,0c-1.6-0.3-3.1,0.5-1.5,0.9l0.1,0c-0.2-0.2-0.5-0.4-0.7-0.6c0,0,0,0,0,0.1      c0.2-0.1,0.5-0.2,0.7-0.3c-0.1,0-0.1,0-0.2,0c0.5,0,1,0,1.5,0c0.2,0.1,0.2,0-0.1-0.1c-0.1-0.1-0.3-0.2-0.4-0.3      c-0.2-0.2-0.4-0.3-0.6-0.5c-0.5-0.4-0.9-0.7-1.4-1.1C316.4,357.9,313.8,358.4,314.6,359L314.6,359z"
   id="path588" />
			</g>
		</g>
		<g
   id="g592">
			<g
   id="g591">
				<path
   class="st9"
   d="M345.8,357.2c1.6,2.1,0.4,4.3,2.1,6.4c0.5,0.6,3.4,0.4,2.9-0.3c-1.8-2.1-0.5-4.3-2.1-6.4      C348.2,356.3,345.3,356.6,345.8,357.2L345.8,357.2z"
   id="path590" />
			</g>
		</g>
		<g
   id="g594">
			<g
   id="g593">
				<path
   class="st9"
   d="M369.9,357.9c0.7,1.2,1.4,2.5,2.1,3.7c0.3,0.6,3.2,0.4,2.9-0.3c-0.7-1.2-1.4-2.5-2.1-3.7      C372.5,357,369.6,357.3,369.9,357.9L369.9,357.9z"
   id="path592" />
			</g>
		</g>
		<g
   id="g596">
			<g
   id="g595">
				<path
   class="st9"
   d="M398.5,354.9c0.3,2-0.4,4.3,1.6,6.2c0.6,0.6,3.5,0.3,2.9-0.3c-1.9-1.8-1.2-4-1.5-5.9      C401.4,354.3,398.4,354.3,398.5,354.9L398.5,354.9z"
   id="path594" />
			</g>
		</g>
		<g
   id="g598">
			<g
   id="g597">
				<path
   class="st9"
   d="M413.3,354.2c0.6,2.1,1.6,4.2,3.1,6.2c0.5,0.6,3.3,0.4,2.9-0.3c-1.4-2-2.4-3.9-3-6      C416.1,353.5,413.1,353.5,413.3,354.2L413.3,354.2z"
   id="path596" />
			</g>
		</g>
		<g
   id="g600">
			<g
   id="g599">
				<path
   d="M267.9,361.7c3.6-1.8,7.3-3.7,12.6-5c7.5-1.9,16.1-1.7,24.4-0.3c12.7,2.1,22.6,5.7,35.6,7.5c10.1,1.4,22.8,1.9,32.1-0.4      c4.3-1.1,7.2-2.5,10.2-4c4.6-2.3,9.6-3.8,17.6-4.7c16.3-1.7,34.7-0.3,47.8,3.2c1.5,0.4,3.6-0.3,2.1-0.7      c-10.6-2.8-24-4.4-37.7-4.2c-6.7,0.1-13.7,0.6-19.7,1.6c-5.8,1-9.5,2.7-13.1,4.4c-4.5,2.2-9.3,4.2-17.6,4.7      c-8,0.5-16.5-0.2-23.6-1.4c-13.7-2.4-24.7-6.7-40-8c-15.6-1.3-25.7,2.8-33.3,6.7C264.3,361.7,266.9,362.2,267.9,361.7      L267.9,361.7z"
   id="path598" />
			</g>
		</g>
		<g
   id="g602">
			<g
   id="g601">
				<path
   d="M265.4,354.5c5.9,4,13,8.5,27.1,9.8c14.5,1.3,22.9-2.6,33.7-4.9c12.5-2.7,28.6-3.4,42.8-2c7.6,0.8,13.7,2.3,20.5,3.5      c6.4,1.1,13.1,1.6,20.3,1.3c16.6-0.8,28.5-5,39.2-8.8c1.3-0.5-0.8-1.2-2.1-0.7c-12.3,4.5-29.4,10.4-49.9,8.3      c-8.5-0.9-15.3-3-23.6-4.1c-6.9-0.9-14.4-1.3-21.8-1.1c-7,0.1-14,0.7-20.4,1.6c-7.6,1.2-13.1,3-19.7,4.6c-9,2.2-19.3,2-28-0.3      c-7.3-2-11.5-4.9-15.5-7.6C267.2,353.5,264.6,353.9,265.4,354.5L265.4,354.5z"
   id="path600" />
			</g>
		</g>
	</g>
	<g
   id="g605">
		<g
   id="g604">
			<path
   d="M199.3,284.6c-2.9,0.2-5.8,0.3-8.6,0.5c-1.8,0.1-4-0.1-5.7,0.5c-3.3,1.1-2.9,4.4-2.7,7.2c0.8,11.7,1.5,23.4,1.9,35.1     c0.8,22.9,0.5,45.9-0.6,68.8c0,0.8,0.6,1.3,1.4,1.2c8-0.5,16-1,24.1-1.5c1.5-0.1,1.1-2.4-0.4-2.3c-8,0.5-16,1-24.1,1.5     c0.4,0.4,0.9,0.9,1.4,1.2c1-20.4,1.2-40.9,0.8-61.3c-0.2-9.5-0.6-19.1-1.2-28.6c-0.1-2.5-0.3-5.1-0.5-7.7     c-0.2-2.4-0.8-5.3-0.6-7.6c0.5-4.8,3.9-4,7.3-4.2c2.6-0.1,5.3-0.3,7.9-0.5C201.2,286.8,200.8,284.5,199.3,284.6L199.3,284.6z"
   id="path603" />
		</g>
	</g>
	<g
   id="g607">
		<g
   id="g606">
			<path
   d="M455.3,284.8c4.7,0.4,9.3,0.8,14,1.2c-0.4-0.4-0.7-0.8-1.1-1.1c-2.1,20-2.8,40.2-2,60.4c0.4,9.7,1.1,19.4,2.2,29.1     c0.3,2.3,0.6,4.5,0.8,6.8c0.3,2.6,1.5,5.9-0.1,8.1s-5.3,2.1-8.1,2.5c-2.9,0.5-5.7,1-8.6,1.4c-1.5,0.2-1,2.3,0.4,2.1     c5.3-0.8,11.4-1.1,16.5-2.8c3.3-1.1,3.1-3.4,2.7-6.2c-1.3-11.5-2.7-23-3.3-34.6c-1.3-22.2-0.6-44.5,1.8-66.6     c0-0.6-0.4-1.1-1.1-1.1c-4.7-0.4-9.3-0.8-14-1.2C453.9,282.6,453.7,284.7,455.3,284.8L455.3,284.8z"
   id="path605" />
		</g>
	</g>
	<g
   id="g674">
		<g
   id="g609">
			<g
   id="g608">
				<path
   class="st8"
   d="M282.5,378.5c-0.3,1,0.5,2,1,3c0.6,1.3,0.9,2.5,1.1,3.8c0.1,0.6,3.1,0.6,3,0c-0.1-1-0.3-2.1-0.7-3.1      c-0.5-1.2-1.7-2.4-1.3-3.7C285.7,377.9,282.7,377.9,282.5,378.5L282.5,378.5z"
   id="path607" />
			</g>
		</g>
		<g
   id="g611">
			<g
   id="g610">
				<path
   class="st8"
   d="M328.9,378.6c-0.8,2,1,4.3,1.7,6.3c0.2,0.6,3.2,0.6,3,0c-0.3-1-0.7-2-1-3c-0.3-1-1.2-2.1-0.8-3      C332.1,378.2,329.2,378,328.9,378.6L328.9,378.6z"
   id="path609" />
			</g>
		</g>
		<g
   id="g613">
			<g
   id="g612">
				<path
   class="st8"
   d="M334,378.2c1.4,2.3,2.5,4.5,3.4,6.8c0.2,0.6,3.2,0.6,3,0c-0.8-2.4-2-4.7-3.5-7.1      C336.5,377.3,333.6,377.6,334,378.2L334,378.2z"
   id="path611" />
			</g>
		</g>
		<g
   id="g615">
			<g
   id="g614">
				<path
   class="st8"
   d="M385.4,377.6c-0.1,2.1-0.2,4.2-0.1,6.3c0,0.6,3,0.6,3,0c-0.1-2.1-0.1-4.2,0.1-6.3      C388.4,377,385.4,377,385.4,377.6L385.4,377.6z"
   id="path613" />
			</g>
		</g>
		<g
   id="g617">
			<g
   id="g616">
				<path
   class="st8"
   d="M409,380.4c0,1.1,0,2.1,0,3.1c0,0.6,3,0.6,3,0c0-1.1,0-2.1,0-3.1C412,379.7,409,379.7,409,380.4L409,380.4z      "
   id="path615" />
			</g>
		</g>
		<g
   id="g619">
			<g
   id="g618">
				<path
   class="st7"
   d="M276.5,379.3c2.1,2,3.4,4,3.8,6c0.1,0.6,3.1,0.6,3,0c-0.4-2.2-1.7-4.3-3.9-6.3      C278.7,378.5,275.8,378.7,276.5,379.3L276.5,379.3z"
   id="path617" />
			</g>
		</g>
		<g
   id="g621">
			<g
   id="g620">
				<path
   class="st7"
   d="M349.6,378.6c1.5,1.6,2.4,3.3,2.8,5c0.2,0.6,3.2,0.6,3,0c-0.4-1.8-1.4-3.5-2.9-5.2      C352,377.7,349.1,378,349.6,378.6L349.6,378.6z"
   id="path619" />
			</g>
		</g>
		<g
   id="g623">
			<g
   id="g622">
				<path
   class="st7"
   d="M353.8,379.1c0.8,1,1.7,1.9,2.9,2.8c0.8,0.6,3.3,0.1,2.6-0.5c-1.1-0.8-1.9-1.7-2.6-2.5      C356.2,378.2,353.3,378.5,353.8,379.1L353.8,379.1z"
   id="path621" />
			</g>
		</g>
		<g
   id="g625">
			<g
   id="g624">
				<path
   class="st7"
   d="M395.7,378.4c0.5,2.1,0.9,4.2,1.4,6.4c0.1,0.6,3.1,0.6,3,0c-0.5-2.1-0.9-4.2-1.4-6.4      C398.5,377.8,395.5,377.8,395.7,378.4L395.7,378.4z"
   id="path623" />
			</g>
		</g>
		<g
   id="g627">
			<g
   id="g626">
				<path
   class="st6"
   d="M289.5,378.3c0.5,2.4,0.5,4.9,0.2,7.3c-0.1,0.6,2.9,0.6,3,0c0.3-2.4,0.3-4.9-0.2-7.3      C292.3,377.7,289.3,377.7,289.5,378.3L289.5,378.3z"
   id="path625" />
			</g>
		</g>
		<g
   id="g629">
			<g
   id="g628">
				<path
   class="st6"
   d="M339,378.1c3.7,2.2,3.7,4.7,5.5,7c0.5,0.6,3.4,0.4,2.9-0.3c-1.8-2.4-1.9-5-5.8-7.2      C340.6,377,338.1,377.5,339,378.1L339,378.1z"
   id="path627" />
			</g>
		</g>
		<g
   id="g631">
			<g
   id="g630">
				<path
   class="st6"
   d="M391.2,377.5c0.7,2.5,0.8,4.9,0.2,7.4c-0.1,0.6,2.9,0.6,3,0c0.5-2.5,0.4-5-0.2-7.4      C394.1,376.9,391.1,376.9,391.2,377.5L391.2,377.5z"
   id="path629" />
			</g>
		</g>
		<g
   id="g633">
			<g
   id="g632">
				<path
   class="st6"
   d="M414.1,380.7c-0.3,0.6-0.4,1.2-0.2,1.8c0.2,0.6,3.2,0.6,3,0c-0.1-0.5-0.1-1,0.1-1.5c0.1-0.3-0.2-0.5-1-0.6      C415.2,380.3,414.2,380.5,414.1,380.7L414.1,380.7z"
   id="path631" />
			</g>
		</g>
		<g
   id="g635">
			<g
   id="g634">
				<path
   class="st9"
   d="M271,380.2c2.3,1.3,3.8,2.7,4.6,4.3c0.3,0.6,3.2,0.4,2.9-0.3c-0.9-1.6-2.5-3.1-4.9-4.5      C272.6,379.2,270.1,379.7,271,380.2L271,380.2z"
   id="path633" />
			</g>
		</g>
		<g
   id="g637">
			<g
   id="g636">
				<path
   class="st9"
   d="M300.1,380.8c0.7,1,1.2,1.9,1.6,2.9c0.3,0.6,3.3,0.6,3,0c-0.4-1.1-1-2.1-1.7-3.1      C302.6,379.9,299.7,380.1,300.1,380.8L300.1,380.8z"
   id="path635" />
			</g>
		</g>
		<g
   id="g639">
			<g
   id="g638">
				<path
   class="st9"
   d="M305.1,381.8c0.4,0.2,0.8,0.5,1.2,0.7c0.4,0.2,1.4,0.3,2.1,0.2s1-0.5,0.5-0.7c-0.4-0.2-0.8-0.5-1.2-0.7      c-0.4-0.2-1.4-0.3-2.1-0.2C305,381.3,304.7,381.6,305.1,381.8L305.1,381.8z"
   id="path637" />
			</g>
		</g>
		<g
   id="g641">
			<g
   id="g640">
				<path
   class="st9"
   d="M344.6,377.6c1.3,2.2,2.7,4.3,4,6.5c0.4,0.6,3.3,0.4,2.9-0.3c-1.3-2.2-2.7-4.3-4-6.5      C347.1,376.8,344.2,377,344.6,377.6L344.6,377.6z"
   id="path639" />
			</g>
		</g>
		<g
   id="g643">
			<g
   id="g642">
				<path
   class="st9"
   d="M401.3,378.7c1.2,1.9,2.2,3.7,2.8,5.6c0.2,0.6,3.2,0.6,3,0c-0.7-2-1.7-3.9-3-5.8      C403.8,377.8,400.9,378.1,401.3,378.7L401.3,378.7z"
   id="path641" />
			</g>
		</g>
		<g
   id="g645">
			<g
   id="g644">
				<path
   class="st9"
   d="M379.4,377.8c-0.4,1.7-0.3,3.4,0.3,5.1c0.2,0.6,3.2,0.6,3,0c-0.6-1.7-0.6-3.4-0.3-5.1      C382.6,377.2,379.6,377.2,379.4,377.8L379.4,377.8z"
   id="path643" />
			</g>
		</g>
		<g
   id="g647">
			<g
   id="g646">
				<path
   class="st9"
   d="M374.8,378.6c0,0.9,0.2,1.9,0.6,2.8c0.2,0.6,3.2,0.6,3,0c-0.4-0.9-0.6-1.9-0.6-2.8      C377.8,378,374.8,378,374.8,378.6L374.8,378.6z"
   id="path645" />
			</g>
		</g>
		<g
   id="g649">
			<g
   id="g648">
				<path
   class="st9"
   d="M325.1,379.8c-0.1,1.6,0.2,3.1,0.8,4.7c0.2,0.6,3.2,0.6,3,0c-0.6-1.6-0.9-3.1-0.8-4.7      C328.1,379.2,325.1,379.2,325.1,379.8L325.1,379.8z"
   id="path647" />
			</g>
		</g>
		<g
   id="g651">
			<g
   id="g650">
				<path
   class="st7"
   d="M294.9,379.5c0.1,1.8,0.3,3.5,0.4,5.2c0,0.6,3,0.6,3,0c-0.1-1.8-0.3-3.5-0.4-5.2      C297.8,378.8,294.8,378.8,294.9,379.5L294.9,379.5z"
   id="path649" />
			</g>
		</g>
		<g
   id="g653">
			<g
   id="g652">
				<path
   class="st6"
   d="M266.7,381.2c0.9,1,1.8,2,2.7,2.9c0.6,0.6,3.5,0.4,2.9-0.3c-0.9-1-1.8-2-2.7-2.9      C269.1,380.4,266.2,380.6,266.7,381.2L266.7,381.2z"
   id="path651" />
			</g>
		</g>
		<g
   id="g655">
			<g
   id="g654">
				<path
   class="st6"
   d="M319.6,381.6c-0.1,0.7,0,1.3,0.3,2c0.1,0.3,0.6,0.5,1.5,0.5c0.7,0,1.6-0.2,1.5-0.5c-0.3-0.7-0.4-1.3-0.3-2      C322.7,380.9,319.7,380.9,319.6,381.6L319.6,381.6z"
   id="path653" />
			</g>
		</g>
		<g
   id="g657">
			<g
   id="g656">
				<path
   class="st6"
   d="M369.2,379.7c0.6,0.4,1.2,0.8,1.8,1.2c0.9,0.6,3.5,0.1,2.6-0.5c-0.6-0.4-1.2-0.8-1.8-1.2      C370.9,378.6,368.3,379.1,369.2,379.7L369.2,379.7z"
   id="path655" />
			</g>
		</g>
		<g
   id="g659">
			<g
   id="g658">
				<path
   class="st6"
   d="M430.9,380.2c0.4,0.7,0.8,1.4,1.2,2.1c0.4,0.6,3.2,0.4,2.9-0.3c-0.4-0.7-0.8-1.4-1.2-2.1      C433.4,379.3,430.5,379.5,430.9,380.2L430.9,380.2z"
   id="path657" />
			</g>
		</g>
		<g
   id="g661">
			<g
   id="g660">
				<path
   class="st6"
   d="M444.9,377.2c0.6,1.7,1.5,3.3,2.5,5c0.4,0.6,3.3,0.4,2.9-0.3c-1-1.6-1.8-3.1-2.4-4.7      C447.6,376.5,444.6,376.5,444.9,377.2L444.9,377.2z"
   id="path659" />
			</g>
		</g>
		<g
   id="g663">
			<g
   id="g662">
				<path
   class="st7"
   d="M427.7,381.8c0.2,0,0.4,0,0.6,0c0.8,0,1.5-0.2,1.5-0.5c0-0.3-0.7-0.5-1.5-0.5c-0.2,0-0.4,0-0.6,0      c-0.8,0-1.5,0.2-1.5,0.5C426.2,381.6,426.9,381.8,427.7,381.8L427.7,381.8z"
   id="path661" />
			</g>
		</g>
		<g
   id="g665">
			<g
   id="g664">
				<path
   class="st7"
   d="M449,376.8c0.4,1.6,1.1,3.2,2,4.8c0.4,0.6,3.3,0.4,2.9-0.3c-0.9-1.5-1.6-3-1.9-4.5      C451.8,376.2,448.8,376.2,449,376.8L449,376.8z"
   id="path663" />
			</g>
		</g>
		<g
   id="g667">
			<g
   id="g666">
				<path
   class="st8"
   d="M435,379.4c0.9,1,1.3,1.9,1.3,2.9c0,0.6,3,0.6,3,0c0-1.1-0.4-2.1-1.4-3.1      C437.3,378.5,434.4,378.7,435,379.4L435,379.4z"
   id="path665" />
			</g>
		</g>
		<g
   id="g669">
			<g
   id="g668">
				<path
   class="st9"
   d="M439.6,378.3c1.8,1.5,0.3,3.2,2.4,4.7c0.8,0.6,3.4,0.1,2.6-0.5c-2-1.4-0.4-3-2.1-4.4      C441.8,377.5,438.9,377.8,439.6,378.3L439.6,378.3z"
   id="path667" />
			</g>
		</g>
		<g
   id="g671">
			<g
   id="g670">
				<path
   d="M264.5,383.9c1.5-2.3,6.2-4,12.9-4.8c7.4-0.9,14.8-0.3,21.7,0.8c12.9,2.1,24,5.6,38.8,6.1c14,0.4,21.9-3.2,31.1-6      c6.7-2,14.1-3,23.2-2.4c8.3,0.5,16,1.9,23.4,3.2c12.5,2.1,28.1,4.1,40.8,1.1c1.5-0.4,0.1-1.2-1.5-0.9c-15,3.6-32.5-0.3-46.5-2.5      c-12.6-2-26.3-3-38.2,0c-5.3,1.4-9.5,3.1-14.6,4.5c-7.2,2-15.7,2.5-24.7,1.6c-15-1.6-26.4-6-42.3-6.7c-12.2-0.6-24.3,1.9-27,5.9      C261.2,384.3,264,384.6,264.5,383.9L264.5,383.9z"
   id="path669" />
			</g>
		</g>
		<g
   id="g673">
			<g
   id="g672">
				<path
   d="M262.6,385.5c5.6-1.8,15.3,0.8,21.8,1c5,0.2,9.9-0.2,14.4-0.9c11.2-1.7,20.1-4.6,30.8-6.5c5.8-1,12.3-1.8,18.9-1.4      s12.3,1.6,17.6,2.9c9.2,2.2,19,5.3,31.1,5.4c8.8,0,16.4-1.8,23.6-3.3c9.9-2.1,19.9-4.1,29.8-6.2c1.6-0.3,0.1-1.2-1.5-0.9      c-8.5,1.8-17.1,3.5-25.6,5.3c-7.8,1.6-16.6,4-26.2,4c-13.5,0-24.2-4.2-34.9-6.4c-10-2.1-20.3-2.5-31.2-0.9      c-11.4,1.7-20.3,4.8-31.4,6.7c-6.5,1.1-13.3,1.6-20.4,0.7c-6.3-0.8-13.3-2.1-18.9-0.3C259.1,385.3,261.2,386,262.6,385.5      L262.6,385.5z"
   id="path671" />
			</g>
		</g>
	</g>
	
	
	
	
	
	
	
	
	
	
	
	
	
	
	
	
	
	
	
	
	
	<g
   id="g1058">
		<g
   id="g1057">
			<path
   d="M113.3,342.6c18.3-0.1,36.6-0.1,54.9-0.2c1.1,0,1.4-1.7,0.3-2c-4.4-0.8-8.2-2.5-11.7-5.2c-0.3,0.6-0.6,1.1-1,1.7     c6.1,1.4,12,3.3,17.6,6c0-0.6,0-1.2,0-1.7c-4.3,2.1-8.5,3.6-13.2,4.6c-1.3,0.3-0.7,2.2,0.5,1.9c4.8-1.1,9.3-2.7,13.6-4.8     c0.6-0.3,0.7-1.4,0-1.7c-5.8-2.7-11.8-4.8-18.1-6.2c-0.9-0.2-1.8,1-1,1.7c3.8,3,7.9,4.8,12.6,5.8c0.1-0.7,0.2-1.3,0.3-2     c-18.3,0.1-36.6,0.1-54.9,0.2C112,340.6,112,342.6,113.3,342.6L113.3,342.6z"
   id="path1056" />
		</g>
	</g>
	
	
	
	
	
	
	
	
	
	
	
	
	
	
	
	
	
	
	
	
	
	
	
	
	
	
	
	
	
	
	
	
	
	
	
	
	
	
	
	
	
	
	
	
	
	
	
	
	
	
	
	
	
	
	
	
	
	
	
	
	
	
	
	
	
	
	
	<g
   id="g1439">
		<g
   class="st11"
   id="g1417">
			<g
   id="g1416">
				<path
   class="st3"
   d="M232,293.4c-1.6-0.1-2,1.7-2.5,2.9c1.3,0.4,2.7,0.7,4,1.1c0.1-0.4,0.2-0.7,0.3-1.1c0.6-1.9-1.3-3.2-3-3      c-0.2,0-0.5,0.1-0.7,0.1c1,0.6,2,1.2,3.1,1.7c-0.2-1.5-0.5-3-0.7-4.4c-0.6-3-5.5-2.3-5.4,0.7c0.1,2.3,1.5,4.8,4.1,4.8      c2.1,0,3.1-2.2,2.3-3.9c-0.2-0.4-0.5-0.9-0.9-1.1c-0.2-0.1,0-0.1,0,0.2c-1.8,0.2-3.6,0.5-5.4,0.7c0.4,1.4,0.8,2.9,1.2,4.3      c0.3,1.2,1.8,2.2,3.1,1.7c0.4-0.2,0.8-0.3,1.2-0.5c-1.2-0.5-2.4-1-3.6-1.4c0.1,0.4,0.2,0.7,0.4,1.1c0.7,2.2,4.1,1.8,4.1-0.5      C233.6,295.7,233.8,293.5,232,293.4L232,293.4z"
   id="path1415" />
			</g>
		</g>
		<g
   class="st11"
   id="g1419">
			<g
   id="g1418">
				<path
   class="st3"
   d="M234.8,298.2c1.1-0.8,2-1.7,2.9-2.6c0.5-0.5,1.1-1.3,1.9-1.3c-0.6-0.3-1.3-0.5-1.9-0.8      c0.1,0.1,0.1,0.1,0.2,0.2c-0.3-0.6-0.5-1.3-0.8-1.9c0,0.1,0,0.2,0,0.3c0.1-0.5,0.2-0.9,0.4-1.4c-0.4,0.8-2.2,1.7-3.1,2.2      c-1.5,0.9-3.5,1.4-3.9,3.4c-0.2,1,0.1,2.3,1.1,2.8c1.6,0.8,2.7,0.4,4.2-0.4c1-0.6,2.1-1.2,3-1.9c1.9-1.3,4.4-3,3.6-5.7      c-0.8-2.9-4.3-2.4-6.2-1c-1.8,1.3-3.2,3.4-4.1,5.4c-0.4,0.8-0.4,1.8,0.3,2.4C232.9,298.5,234,298.8,234.8,298.2L234.8,298.2z"
   id="path1417" />
			</g>
		</g>
		<g
   class="st11"
   id="g1421">
			<g
   id="g1420">
				<path
   class="st3"
   d="M230.8,305.3c0.1-0.1,0.2-0.2,0.3-0.3c0.6-0.6,0.9-1.6,0.6-2.4c-0.6-2.1-1.8-3.2-3.9-4      c-2.3-0.8-4.3-2.2-6.7-2.3c-6.1-0.3-10,1.6-12.4,7.2c-1.6,3.7-1.3,10.5,3,12.5c2.3,1.1,5.3,0.1,7.7,0.3c3,0.2,5.5-0.2,8.3-1.5      c4.1-1.9,8.1-6.5,5.7-11.2c-2.2-4.6-11.5-3.4-15.5-2.8c-4,0.7-8,4.7-5,8.8c3.6,4.8,12.1-0.5,16.1-1.9c-1.3-0.5-2.6-1.1-4-1.6      c0.1,0.2,0.3,0.4,0.4,0.7c-0.1-0.9-0.2-1.8-0.4-2.7c-0.1,0.5-0.3,1-0.6,1.5c-0.8,1.4-0.2,1.4,1.9,0.1c0.7,0.5,1.3,1,2,1.5      c-0.1-0.1-0.1-0.2-0.2-0.4c-0.7-1.4-2.7-1.8-4-1c-0.1,0.1-0.2,0.1-0.4,0.2c-1.6,1-2,2.9-1.2,4.5c0.1,0.2,0.2,0.4,0.3,0.5      c0.7,1.4,2.6,2,4,1.6c3.7-1,6.2-6.8,4.1-10.1c-0.8-1.2-2.5-2.1-4-1.6c-1.9,0.7-3.7,1.3-5.6,2c-1,0.3-3.7,1.9-4.7,1.5      c0.7,0.5,1.4,1.1,2.1,1.6c-0.8,1.8-0.4,2.3,1.3,1.6c1-0.1,2-0.1,3-0.1c1.9,0,3.9,0,5.7,0.6c-0.7-0.5-1.4-1.1-2.1-1.6      c1,1.5-3.5,2.9-4.3,3.1c-1.6,0.4-3.1,0-4.7-0.1c-0.6,0-4.2-0.2-3.2,0.6c-1.3-1-0.3-3.7,0.2-4.8c1.6-3.2,5.6-2.5,8.3-1.8      c2.1,0.5,3.8,1.5,5.8,2.2C229.7,306,230.4,305.7,230.8,305.3L230.8,305.3z"
   id="path1419" />
			</g>
		</g>
		<g
   class="st11"
   id="g1423">
			<g
   id="g1422">
				<path
   class="st3"
   d="M207.9,303.9c0.2-0.2,0.4-0.3-0.1,0c-0.1,0.1-0.2,0.1-0.4,0.2c0.3-0.1,0.5-0.2,0.7-0.3      c1.1-0.7,1.6-2,1.1-3.3c-0.5-1.1-1.8-1.9-3.1-1.5c-1,0.3-1.7,1-2.2,1.9c-0.6,1.1-0.4,2.5,0.6,3.2      C205.5,304.8,207.1,304.9,207.9,303.9L207.9,303.9z"
   id="path1421" />
			</g>
		</g>
		<g
   id="g1438">
			<g
   id="g1425">
				<g
   id="g1424">
					<path
   d="M235.6,304.4c-2.6-5-9.2-7.5-14.5-8.2c-5.4-0.7-11.2,1.2-13.3,6.6c-1.6,4.2-2.7,11.4,2.4,13.7c2.6,1.2,6.1,1,8.9,0.9       c3.1-0.1,6.3-0.3,9.3-1.4c5.1-1.8,9.3-7.2,6.5-12.6c-0.4-0.8-1.6-0.1-1.2,0.7c3.5,6.8-5,11-10.4,11.6c-2.8,0.3-5.8,0.4-8.6,0.2       c-3.8-0.2-6.6-1.8-6.7-6c-0.1-6.4,3.1-12.2,10-12.6c5.6-0.3,13.7,2.4,16.4,7.6C234.8,305.9,236,305.2,235.6,304.4L235.6,304.4z       "
   id="path1423" />
				</g>
			</g>
			<g
   id="g1427">
				<g
   id="g1426">
					<path
   d="M230.9,299.5c-1.3-2-6.4-8.9-1.6-10.1c5.3-1.3,2.4,7.6,1.8,9.8c-0.3,0.9,1.1,1.2,1.3,0.4c1-3.3,3.6-12.3-3-11.6       c-2,0.2-3.3,1.9-3.5,3.9c-0.3,3.1,2.1,5.9,3.7,8.3C230.2,300.9,231.4,300.2,230.9,299.5L230.9,299.5z"
   id="path1425" />
				</g>
			</g>
			<g
   id="g1429">
				<g
   id="g1428">
					<path
   d="M233,299.3c-0.5-2.3,0.6-4.8,1.9-6.7c1.3-1.8,4.1-3.8,6.1-1.8c2.2,2.2-1.4,5-3,6.1c-1.8,1.2-3.9,1.9-6,2.3       c-0.9,0.2-0.5,1.5,0.4,1.3c3.3-0.7,7-2.2,9.2-4.9c1.6-1.9,2.2-4.7-0.1-6.3c-5.7-3.8-10.9,5.6-9.9,10.2       C231.8,300.5,233.2,300.2,233,299.3L233,299.3z"
   id="path1427" />
				</g>
			</g>
			<g
   id="g1431">
				<g
   id="g1430">
					<path
   d="M226.4,303.3c-0.3,0.5-0.5,1-0.3,1.5c0.2,0.5,0.7,0.8,1.2,0.7c0.9-0.2,1.1-1.7,0.1-1.9c-0.4-0.1-0.7,0.1-0.9,0.5       c-0.4,0.9,0.8,1.9,1.6,1.3c0.8-0.5,0.5-1.9-0.4-2c-0.4-0.1-0.7,0.1-0.9,0.5c-0.1,0.3,0.1,0.8,0.5,0.9c-0.1-0.1-0.1-0.1-0.1-0.2       c0.4-0.4,0.6-0.4,0.7-0.1c-0.3,0.2-0.6,0.3-0.9,0.5c0,0,0.5-0.8,0.6-1C228.1,303.3,226.9,302.6,226.4,303.3L226.4,303.3z"
   id="path1429" />
				</g>
			</g>
			<g
   id="g1433">
				<g
   id="g1432">
					<path
   d="M231,303.3c-0.4,0.6-0.4,1.2,0,1.7c0.2-0.4,0.5-0.8,0.7-1.2c-0.7-0.2-1.4,0.2-1.6,0.9c-0.1,0.4,0.2,0.9,0.7,0.9       c0.3,0,0.5-0.1,0.8-0.1c0.4,0,0.7-0.3,0.7-0.7c0-0.3-0.3-0.7-0.7-0.7c-0.3,0-0.5,0.1-0.8,0.1c0.2,0.3,0.4,0.6,0.7,0.9       c0,0-0.1,0.1-0.2,0.1c0.7,0.2,1.1-0.7,0.7-1.2c0,0.1,0,0.2,0,0.3c0.2-0.3,0.3-0.7,0-1C231.7,303.1,231.2,303,231,303.3       L231,303.3z"
   id="path1431" />
				</g>
			</g>
			<g
   id="g1435">
				<g
   id="g1434">
					<path
   d="M227.4,310.3c2.2,0.3,4.3-0.4,5.8-2c0.6-0.7-0.4-1.7-1-1c-1.1,1.3-2.8,1.9-4.5,1.7       C226.8,308.9,226.5,310.2,227.4,310.3L227.4,310.3z"
   id="path1433" />
				</g>
			</g>
			<g
   id="g1437">
				<g
   id="g1436">
					<path
   d="M210.1,301.5c0.4-1.9-1.4-3.6-3.3-3.3c-2.1,0.3-3.5,2.5-3.8,4.4c-0.3,2,0.8,3.7,3,3.4c2.3-0.3,4.1-2,4.7-4.2       c0.3-0.9-1.1-1.2-1.3-0.4c-0.3,1.1-1.1,2.1-2.1,2.7c-1.2,0.7-3,0.8-2.9-1c0.1-1.1,0.7-2.2,1.4-2.9c0.5-0.5,1.1-0.8,1.8-0.6       c0.7,0.2,1.3,0.8,1.2,1.5C208.6,302,209.9,302.4,210.1,301.5L210.1,301.5z"
   id="path1435" />
				</g>
			</g>
		</g>
	</g>
	<g
   id="g1464">
		<g
   class="st11"
   id="g1441">
			<g
   id="g1440">
				<path
   class="st5"
   d="M228.9,335.7c-3-0.8-5.8-0.5-8.6,0.8c-2.5,1.1-6.1,2.9-7.6,5.2c-2.8,4.2,1,9.4,4.7,11.2      c4.5,2.2,11.4,2.3,15.7-0.5c4.4-2.9,5.7-9.2,2.2-13.3c-4.1-4.9-11.7-1.6-16.4,0.7c-4.6,2.2-5.7,8.2-0.4,10.6      c3.9,1.8,12.1,1.3,14.6-2.9c1.2-2,0.7-4.8-1.3-6.1c-2.4-1.5-5.5-0.5-7.7,0.8c-2.3,1.4-2.4,6,0.8,6.5c1.4,0.2,2.4,0.3,3.8-0.2      c4.4-1.5,2.5-8.5-1.9-7c-0.3,0.1-0.6,0.1-0.9,0.2c0.6,2.2,1.2,4.4,1.8,6.6c0.4-0.2,0.9-0.3,1.3-0.5c-0.7-0.5-1.4-1.1-2.1-1.6      c0.1,0.2,0.2,0.4,0.3,0.6c-0.1-0.9-0.2-1.8-0.4-2.7c0.2-0.8-0.2-0.9-1.2-0.2c-1,0.2-1.9,0.3-2.9,0.2c-1.5,2-1.4,2.5,0.2,1.5      c0.8-0.3,1.6-0.6,2.4-0.9c0.9-0.3,3.9-1.8,4.7-1c1.8,1.5-1.6,3.5-2.6,3.8c-1.9,0.6-10.6,0.9-9.8-2.9c0.1-0.7,3.7-2.4,4.3-2.7      c2-1,4-1.5,6.3-1.4C231.1,340.7,231.7,336.5,228.9,335.7L228.9,335.7z"
   id="path1439" />
			</g>
		</g>
		<g
   class="st11"
   id="g1443">
			<g
   id="g1442">
				<path
   class="st5"
   d="M231.4,328.1c-0.5-0.7-1.5-0.8-2.3-0.6c-0.3,0.1-0.6,0.2-0.8,0.4c-0.2,0.1-0.3,0.2-0.5,0.4      c-0.4,0.3-0.2,0.2,0.7-0.4c-0.9,0.2-1.8,1.1-2,2c-0.3,1.4-0.3,2.8,0.5,4c0.9,1.3,2.4,2,3.9,1.8c1.6-0.2,2.8-1.5,3.1-3.1      c0.2-1.2,0.1-2.3,0-3.5c-0.1-1.8-1.6-3.3-3.5-3c-1.9,0.3-2.9,2-2.5,3.8c0,0.2,0.1,0.5,0.1,0.8c0-0.3,0-0.4,0,0      c0,0.3,0,0.5,0.1,0.8c0,0.1,0,0.1,0,0.2c0,0.3,0,0.3,0,0c0-0.4,0.3-0.7,0.8-0.9c0.4-0.7,1-1,1.8-0.7c0.5,0.1,0.9,0.5,1.1,1      c0.1,0.2,0,0.7,0.1,0.3c0-0.2,0-0.4,0-0.7c0-1-0.6-2-1.4-2.4c0,0,0,0-0.1,0c0.3,0.3,0.6,0.6,1,1c0,0,0-0.1-0.1-0.1      c0.1,0.4,0.2,0.9,0.3,1.3c0,0,0-0.3,0-0.3c-0.1,0.2-0.1,0.5-0.2,0.7c0.2-0.2,0.2-0.5,0.3-0.8C232,329.1,231.8,328.6,231.4,328.1      L231.4,328.1z"
   id="path1441" />
			</g>
		</g>
		<g
   class="st11"
   id="g1445">
			<g
   id="g1444">
				<path
   class="st5"
   d="M237.9,329.8c-1.3-0.2-2.6,0.2-3.9,0.7c-0.6,0.3-1.3,0.5-1.9,0.9c-1.2,0.7-1.7,1.6-1.8,2.9      c-0.1,1.2,0.9,2.3,2,2.6c1.7,0.6,2.8-0.6,4.2-1.4c1-0.6,2-1.1,3-1.9c0.7-0.5,0.8-1.8,0.5-2.5      C239.6,330.3,238.9,329.9,237.9,329.8L237.9,329.8z"
   id="path1443" />
			</g>
		</g>
		<g
   class="st11"
   id="g1447">
			<g
   id="g1446">
				<path
   class="st5"
   d="M210.8,342c-0.4-1.4-1.8-2.1-3.2-1.8c-0.8,0.2-1.7,1-1.9,1.9c0,0,0,0,0,0.1c-0.2,1.1,0.1,2.5,1.3,3.1      c0.5,0.2,0.9,0.4,1.5,0.4c0,0,0.1,0,0.1,0c1.1-0.1,1-0.1-0.4-0.1c1.6,0.3,3.2-0.6,3.5-2.3c0.2-1.6-1-3.2-2.7-3.2      c-0.4,0-0.8,0.1-1.2,0.2c0.5,0,1,0,1.5,0c-0.3-0.1-0.1,0,0.5,0.2c0.3,0.3,0.6,0.6,0.9,0.9c0,0,0,0,0,0c0.1,0.7,0.2,1.3,0.3,2      C211,343,210.9,342.3,210.8,342L210.8,342z"
   id="path1445" />
			</g>
		</g>
		<g
   id="g1449">
			<g
   id="g1448">
				<path
   d="M235.6,339.1c-7.2-12-33.4,2.8-21.8,12.9c5.2,4.5,14.5,4.5,19.9,0.5c5.1-3.8,5.8-11.3,0.6-15.2      c-0.7-0.6-1.4,0.7-0.7,1.2c6.3,4.8,1.7,12.7-4.3,14.7c-4.1,1.3-9.3,1-13-1.2c-12.9-7.8,11.4-23.2,18.1-12.1      C234.9,340.6,236.1,339.9,235.6,339.1L235.6,339.1z"
   id="path1447" />
			</g>
		</g>
		<g
   id="g1451">
			<g
   id="g1450">
				<path
   d="M205,343.2c-0.3,1.9,1.3,3.1,3.1,3c1.7-0.1,4.4-1.1,4.6-3c0.2-1.6-1.2-3.1-2.7-3.5c-2.2-0.6-4.3,1.1-5.8,2.4      c-0.7,0.6,0.3,1.6,1,1c1.4-1.1,3.8-3.1,5.5-1.4c1.1,1.1,0.2,2.1-1,2.6c-0.8,0.3-3.7,1.2-3.4-0.7      C206.6,342.7,205.2,342.3,205,343.2L205,343.2z"
   id="path1449" />
			</g>
		</g>
		<g
   id="g1453">
			<g
   id="g1452">
				<path
   d="M232,336.2c-2.6-1.3-6.2-5.5-3.3-8.2c2.6-2.4,4.2,1.2,3.9,3.4c-0.2,1.7-1,3.3-1.6,4.9c-0.3,0.9,1.1,1.2,1.4,0.4      c1-2.7,2.7-5.9,1.2-8.7c-1-1.8-3-2.7-4.9-1.7c-5.2,2.6-1.1,9.5,2.6,11.3C232.1,337.9,232.8,336.6,232,336.2L232,336.2z"
   id="path1451" />
			</g>
		</g>
		<g
   id="g1455">
			<g
   id="g1454">
				<path
   d="M232.2,335.8c0.7-1.5,1.6-3.1,2.8-4.3c0.7-0.7,1.6-1.4,2.6-1.5c1.5-0.1,2.4,1,1.9,2.5c-1,3-5.1,4.1-7.8,3.1      c-0.9-0.3-1.2,1.1-0.4,1.4c2.2,0.8,4.6,0.5,6.6-0.7c1.7-1,3.7-3.2,3.2-5.4c-0.5-2-2.9-2.7-4.6-2.2c-2.7,0.9-4.4,3.9-5.6,6.3      C230.5,335.9,231.8,336.6,232.2,335.8L232.2,335.8z"
   id="path1453" />
			</g>
		</g>
		<g
   id="g1457">
			<g
   id="g1456">
				<path
   d="M232.1,339.4c-1.5-0.6-2,2.5-0.1,2.2c0.4-0.1,0.6-0.5,0.5-0.9c-0.1-0.4-0.5-0.6-0.9-0.5c0.3,0,0.5,0.1,0.6,0.3      c0,0,0,0,0,0c0,0.1-0.1,0.2-0.2,0.3c-0.1,0-0.3,0-0.4,0c0,0,0.1,0,0.1,0c0.4,0.1,0.8-0.2,0.9-0.5      C232.7,339.9,232.4,339.6,232.1,339.4L232.1,339.4z"
   id="path1455" />
			</g>
		</g>
		<g
   id="g1459">
			<g
   id="g1458">
				<path
   d="M225.7,345.7c-0.6,3.8,3.9,5.7,6.7,3.3c0.8-0.7,2.4-2.7,1.4-3.9c-0.6-0.6-1.8-0.5-2.6-0.5c-1.4-0.1-2.8-0.3-4.2-0.4      c-0.9-0.1-0.9,1.4,0,1.4c1.2,0.1,2.4,0.2,3.6,0.3c0.4,0,1.2,0,1.6,0.1c0.5-0.2,0.5,0,0.2,0.5c-0.1,0.2-0.2,0.4-0.4,0.6      c-0.6,0.8-1.6,1.5-2.6,1.5c-1.3,0-2.6-1.3-2.3-2.7C227.2,345.1,225.8,344.8,225.7,345.7L225.7,345.7z"
   id="path1457" />
			</g>
		</g>
		<g
   id="g1461">
			<g
   id="g1460">
				<path
   d="M232.6,339.7c-0.2,0-0.4,0-0.6,0.1c-0.5,0.2-0.8,1-0.2,1.3c0.3,0.1,0.5,0.2,0.8,0.2c-0.2-0.4-0.4-0.7-0.6-1.1      c0,0.1-0.1,0.1-0.1,0.2c-0.3,0.5,0.1,1,0.6,1.1c0.3,0,0.6-0.1,0.8-0.3c0.5-0.5,0.1-1.2-0.5-1.2c-0.4,0-0.7,0.2-0.8,0.5      c-0.3,0.6,0.3,1.4,1,1c0.3-0.2,0.5-0.5,0.5-0.9c-0.1-0.9-1.5-0.9-1.4,0c0.1-0.1,0.2-0.2,0.2-0.4c0.3,0.3,0.7,0.7,1,1      c-0.1,0.1-0.3,0.2-0.4,0.2c-0.2-0.4-0.3-0.8-0.5-1.2c0.1,0,0.1-0.1,0.2-0.1c0.2,0.4,0.4,0.7,0.6,1.1c0-0.1,0.1-0.1,0.1-0.2      c0.3-0.5-0.1-1.1-0.6-1.1c0,0,0,0,0,0c-0.1,0.4-0.1,0.9-0.2,1.3c0.1-0.1,0.1-0.1,0.2,0C233.5,341.2,233.5,339.7,232.6,339.7      L232.6,339.7z"
   id="path1459" />
			</g>
		</g>
		<g
   id="g1463">
			<g
   id="g1462">
				<path
   d="M228.9,340.9c-0.3-0.6-0.7-1.1-1.4-1.1c-0.7,0-1.5,0.5-2.1,0.9c-0.8,0.5-0.1,1.7,0.7,1.2c0.4-0.2,0.7-0.4,1.1-0.6      c0.3-0.1,0.3,0,0.5,0.3C228,342.5,229.3,341.7,228.9,340.9L228.9,340.9z"
   id="path1461" />
			</g>
		</g>
	</g>
	<g
   id="g1485">
		<g
   class="st11"
   id="g1466">
			<g
   id="g1465">
				<path
   class="st4"
   d="M211.6,373.6c-0.6-1.2-2.1-1.8-3.4-1.5c-1.1,0.3-1.8,1.4-1.6,2.5c0.2,1.2,1.1,1.9,2.2,2      c1.2,0.1,2.4,0,3.5-0.5c0.9-0.4,1.3-1.7,1.1-2.6c-0.3-0.9-1.2-1.7-2.2-1.7c-0.3,0-0.6,0.1-1,0.1c-0.1,0-0.2,0-0.4,0.1      c0.3,0,0.3,0,0.2,0c-0.4,0-0.8,0-1.2,0c0.2,1.5,0.4,3,0.6,4.5c0.2-0.1,0.5-0.2,0.7-0.3c-0.1,0.1-0.3,0.2-0.5,0.2      c-0.2,0-0.2,0,0,0c-0.3-0.1-0.4-0.1-0.2,0c0.7,0.2,1.6-0.1,2-0.7C212,375.1,212,374.3,211.6,373.6L211.6,373.6z"
   id="path1464" />
			</g>
		</g>
		<g
   class="st11"
   id="g1468">
			<g
   id="g1467">
				<path
   class="st4"
   d="M215.6,376.4c3.2,0.5,6.5,0.1,9.4,1.7c2.7,1.4,3.8,3.3,2.5,6.2c-1.1,2.4-3.1,3.8-5.8,3.1      c-1.6-0.4-3.6-1-5-2c-2-1.4-1.8-4.4,0.6-5.2c1.1-0.4,4.1,0.2,4.9,1.1c1.2,1.2,0.4,1.3-1,1.3c-1.2,0-3-1.1-2.9,1      c0.3-0.8,0.7-1.6,1-2.4c-0.1,0.1-0.2,0.2-0.3,0.3c1.8,0.2,3.5,0.5,5.3,0.7c-0.2-0.5-0.4-1-0.6-1.4c-1.9,0.8-3.9,1.6-5.8,2.4      c0.1,0.1,0.3,0.3,0.4,0.4c2,3.9,7.8,0.5,5.9-3.4c-0.4-0.8-0.8-1.3-1.4-1.8c-2-1.7-6-0.8-5.8,2.4c0.1,1.9,0.5,3.3,1.6,4.8      c1.1,1.6,3.8,2.5,5.3,0.7c2.8-3.5,0.1-9.3-4-10.5c-4.7-1.4-8.4,3.2-6.9,7.6c1.5,4.5,7.3,6.9,11.7,5.5c4.1-1.4,6.6-6.3,4.3-10.3      c-2.1-3.6-9.2-6.2-13.2-5.4c-4.4,0.9-7.9,7-6.9,11.3c1.1,5,6.3,7.1,10.7,8.3c5.7,1.5,9.5-0.2,12.5-5.2      c3.2-5.3,2.3-10.1-2.9-13.7c-4-2.8-10.4-4.2-14.3-0.5C214.1,374.4,214.4,376.2,215.6,376.4L215.6,376.4z"
   id="path1466" />
			</g>
		</g>
		<g
   class="st11"
   id="g1470">
			<g
   id="g1469">
				<path
   class="st4"
   d="M236,374c1.5-2.5,2.8-7.4-0.7-9.1c-1-0.5-2.7-0.6-3.5,0.4c-0.8,1.1-1.6,2.2-2.2,3.4c1.7,0,3.3,0,5,0      c-0.8-1.5-1.5-3.1-2.3-4.6c-1.5-2.9-6.1-0.9-5.3,2.2c0.4,1.3,0.7,2.6,1.1,3.9c1.2,3.5,6.5,2.1,5.6-1.5c-0.3-1.3-0.8-2.6-1.2-3.9      c-1.8,0.7-3.5,1.5-5.3,2.2c0.8,1.5,1.5,3.1,2.3,4.6c0.9,1.9,4,1.9,5,0c0.5-1,1.1-1.9,1.8-2.8c-1.3,0.3-2.6,0.7-3.9,1      c0.8,0.4-0.6-0.4-0.3-0.6c0,0,0,0.3,0,0.3c-0.3,1-0.4,2.1-0.3,3.1C231.8,375.1,234.8,376.1,236,374L236,374z"
   id="path1468" />
			</g>
		</g>
		<g
   id="g1472">
			<g
   id="g1471">
				<path
   d="M217.3,373.8c4-3.6,12.2-0.4,15.1,3.3c4.3,5.4,0.1,12.5-5.7,14.4c-5,1.7-12.3,0.3-15.9-3.8c-5.3-6.1,1.4-13,7.1-14.9      c0.8-0.3,0.5-1.6-0.4-1.3c-6.3,2.1-13,8.9-8.7,15.9c3.6,5.9,13.3,7.6,19.3,5c6-2.6,9.7-10.4,5.3-16.1      c-3.4-4.4-12.6-7.7-17.2-3.5C215.7,373.5,216.7,374.4,217.3,373.8L217.3,373.8z"
   id="path1470" />
			</g>
		</g>
		<g
   id="g1474">
			<g
   id="g1473">
				<path
   d="M212.5,374.1c-0.5,1.4-2.1,1.4-3.3,1.3c-0.4,0-1.1,0-1.5-0.2c-0.7-0.5-0.5-1.4,0.2-1.9c1.7-1.1,5.1-1.6,5.5,1.1      c0.1,0.9,1.5,0.5,1.3-0.4c-0.3-2-2.3-3.1-4.2-3c-1.7,0.1-4.5,1.1-4.9,3c-0.4,1.9,1.5,2.5,3,2.7c2.1,0.2,4.3-0.1,5.1-2.3      C214.2,373.7,212.9,373.3,212.5,374.1L212.5,374.1z"
   id="path1472" />
			</g>
		</g>
		<g
   id="g1476">
			<g
   id="g1475">
				<path
   d="M232.3,376.7c2.1,0.3,4-2.9,5-4.6c1.2-2,1.8-4.8,0-6.6c-1.3-1.4-3.4-1.4-4.6,0.1c-1.9,2.3-1.4,6.6-1.3,9.3      c0,0.9,1.4,0.9,1.4,0c-0.1-1.7,0-3.4,0.1-5.1c0.1-1.5,1.2-6,3.5-3.1c1.3,1.7,0.4,3.7-0.6,5.2c-0.3,0.5-2.2,3.5-3,3.4      C231.8,375.3,231.5,376.6,232.3,376.7L232.3,376.7z"
   id="path1474" />
			</g>
		</g>
		<g
   id="g1478">
			<g
   id="g1477">
				<path
   d="M233.1,373.9c0.9-2.8-0.1-13.4-5.1-11.7c-2.2,0.7-2.7,3.4-2.2,5.3c0.8,2.7,3,5,5.2,6.6c0.7,0.5,1.4-0.7,0.7-1.2      c-1.4-1-2.6-2.1-3.6-3.6c-0.4-0.7-0.8-1.4-1-2.2c-0.4-1.5,0.4-5.4,3.2-2.7c0.8,0.7,1.1,2.6,1.4,3.6c0.5,1.9,0.7,3.7,0.1,5.5      C231.6,374.4,232.9,374.8,233.1,373.9L233.1,373.9z"
   id="path1476" />
			</g>
		</g>
		<g
   id="g1480">
			<g
   id="g1479">
				<path
   d="M229.4,378.3c0,0,0-0.1-0.1-0.1c0.4-0.1,0.8-0.1,1.2-0.2c-0.1-0.2-0.2-0.4-0.2-0.5c0,0.3-0.1,0.6-0.1,0.8      c-0.2,0.1-0.3,0.1-0.4-0.1c-0.1,0.9,1.3,0.9,1.4,0c0.1-1-1.2-1.5-1.9-0.8c-0.2,0.2-0.2,0.6-0.1,0.8c0.1,0.2,0.2,0.4,0.2,0.5      c0.2,0.5,1.1,0.4,1.2-0.2c0.1-0.6-0.1-1.1-0.6-1.4c-0.3-0.2-0.8,0-0.9,0.2C229,377.7,229.2,378,229.4,378.3L229.4,378.3z"
   id="path1478" />
			</g>
		</g>
		<g
   id="g1482">
			<g
   id="g1481">
				<path
   d="M226.1,378.3c-0.2,0-0.3,0-0.3-0.2c0.3-0.2,0.6-0.3,0.8-0.5c-0.3-0.1-0.4,0.1-0.2,0.8c-0.2,0-0.4,0-0.5-0.1      c0,0,0,0,0.1,0c-0.1-0.1-0.2-0.3-0.3-0.4c0,0,0,0,0,0.1c0.1-0.2,0.1-0.4,0.2-0.7c0.2,0,0.4-0.1,0.6-0.1c0.1,0.3,0.2,0.6,0.2,0.9      c0,0,0,0,0,0c-0.3,0.1-0.5,0.2-0.8,0.3c0.3,0.1,0.6,0.2,0.8,0.3c0.3,0.1,0.7-0.2,0.8-0.5c0.1-0.4-0.1-0.7-0.5-0.8      c-0.3-0.1-0.6-0.2-0.8-0.3c-0.3-0.1-0.6,0.1-0.8,0.3c0,0,0,0,0,0c-0.2,0.3,0,0.7,0.2,0.9c0.3,0.2,0.8,0.1,1-0.1      c0.2-0.2,0.3-0.4,0.2-0.7c-0.2-0.7-1.1-0.8-1.5-0.2c-0.4,0.7,0.2,1.3,0.8,1.4c0.4,0.1,0.7-0.1,0.8-0.5c0.3-1-0.8-1.9-1.7-1.3      C224.6,377.6,225.3,378.8,226.1,378.3L226.1,378.3z"
   id="path1480" />
			</g>
		</g>
		<g
   id="g1484">
			<g
   id="g1483">
				<path
   d="M228.6,381.7c0.1,0.4,0.2,1.1-0.2,1.5c-0.3,0.3-0.8,0.2-1.1,0.1c-0.8-0.3-1.2-1.4-1.5-2.1c-0.3-0.8-1.6-0.5-1.3,0.4      c0.6,1.5,1.4,3.2,3.2,3.2c0.7,0,1.4-0.3,1.8-0.9c0.5-0.7,0.4-1.6,0.3-2.5C229.8,380.4,228.5,380.8,228.6,381.7L228.6,381.7z"
   id="path1482" />
			</g>
		</g>
	</g>
	
	
	
	
	
	
	
	
	
	
	
	
	
	
	
	
	
	
	
	
	
	
	
	
	
	
	
	
	
	
	
	
	
	
	
	
	
	
	
	
	
	
	
	
</g>
</svg>
