<?xml version="1.0" encoding="UTF-8" standalone="no"?>
<!-- Generator: Adobe Illustrator 23.0.3, SVG Export Plug-In . SVG Version: 6.00 Build 0)  -->

<svg
   version="1.1"
   x="0px"
   y="0px"
   viewBox="0 0 761.1 623.6"
   style="enable-background:new 0 0 761.1 623.6;"
   xml:space="preserve"
   id="svg1770"
   sodipodi:docname="time-series_data_data_t2.svg"
   inkscape:version="1.3.2 (091e20e, 2023-11-25)"
   xmlns:inkscape="http://www.inkscape.org/namespaces/inkscape"
   xmlns:sodipodi="http://sodipodi.sourceforge.net/DTD/sodipodi-0.dtd"
   xmlns="http://www.w3.org/2000/svg"
   xmlns:svg="http://www.w3.org/2000/svg"><defs
   id="defs1770" /><sodipodi:namedview
   id="namedview1770"
   pagecolor="#ffffff"
   bordercolor="#000000"
   borderopacity="0.25"
   inkscape:showpageshadow="2"
   inkscape:pageopacity="0.0"
   inkscape:pagecheckerboard="0"
   inkscape:deskcolor="#d1d1d1"
   inkscape:zoom="0.77924644"
   inkscape:cx="392.68707"
   inkscape:cy="259.2248"
   inkscape:window-width="1384"
   inkscape:window-height="847"
   inkscape:window-x="62"
   inkscape:window-y="25"
   inkscape:window-maximized="1"
   inkscape:current-layer="Layer_1" />
<style
   type="text/css"
   id="style1">
	.st0{opacity:0.3;fill:#1F77B4;}
	.st1{opacity:0.3;fill:#FF7F0E;}
	.st2{opacity:0.3;fill:#2CA02C;}
	.st3{fill:#1F77B4;}
	.st4{fill:#2CA02C;}
	.st5{fill:#FF7F0E;}
	.st6{fill:#C1272D;}
	.st7{fill:#FCEE21;}
	.st8{fill:#0000FF;}
	.st9{fill:#8CC63F;}
	.st10{fill:none;stroke:#820303;stroke-width:2.0469;stroke-miterlimit:10;}
	.st11{opacity:0.3;}
</style>

<g
   id="Layer_1">
	<g
   id="Слой_8">
	</g>
	<g
   id="Слой_16">
	</g>
	<g
   id="Time_scale">
	</g>
	<g
   id="Now_line">
	</g>
	<g
   id="Слой_10">
	</g>
	<g
   id="Слой_9">
	</g>
	
	
	
	
	
	
	
	
	
	
	
	
	
	
	
	
	
	
	
	
	
	
	
	
	
	
	
	
	
	
	
	
	
	
	<g
   id="g1041">
		<g
   id="g1036">
			<g
   id="g1035">
				<path
   d="M64.6,502.1c-1-2.4,1.2-5,3.7-4.4c2.3,0.5,3.2,2.9,2.1,4.8c-1,1.7-3.2,2.6-4.8,3.5c-2.7,1.6-5.7,3.4-6.3,6.7      c-0.1,0.9,0.4,2,1.4,1.9c4.6-0.4,9.1-0.7,13.7-1.1c1.9-0.2,1.9-3.2,0-3c-4.6,0.4-9.1,0.7-13.7,1.1c0.5,0.6,1,1.3,1.4,1.9      c1-6.3,14.7-6.5,11.2-15c-3.3-7.8-14.8-2.7-11.5,5C62.8,505.4,65.3,503.9,64.6,502.1L64.6,502.1z"
   id="path1034" />
			</g>
		</g>
		<g
   id="g1038">
			<g
   id="g1037">
				<path
   d="M49.8,473.9c-2.7,9.5-4.8,20-4.6,30c0.2,7,7,6.1,12.3,4.4c1.8-0.6,1-3.5-0.8-2.9c-3.7,1.2-7.5,2.1-8.5-2.5      c-0.6-2.6,0.4-6.8,0.7-9.5c0.7-6.4,2-12.6,3.8-18.8C53.2,472.8,50.3,472,49.8,473.9L49.8,473.9z"
   id="path1036" />
			</g>
		</g>
		<g
   id="g1040">
			<g
   id="g1039">
				<path
   d="M39.5,492.4c5.7-1.5,11.5-1.7,17.3-0.5c1.9,0.4,2.7-2.5,0.8-2.9c-6.3-1.3-12.6-1.1-18.9,0.5      C36.8,490,37.6,492.9,39.5,492.4L39.5,492.4z"
   id="path1038" />
			</g>
		</g>
	</g>
	
	
	
	<g
   id="g1054">
		<g
   id="g1053">
			<path
   d="M93.4,494.3c-2.3,0-4.5,0-6.8,0c-1.9,0-1.9,3,0,3c2.3,0,4.5,0,6.8,0C95.4,497.3,95.4,494.3,93.4,494.3L93.4,494.3z"
   id="path1052" />
		</g>
	</g>
	
	
	
	
	
	
	
	
	
	
	
	
	
	
	
	
	
	
	
	
	
	
	
	
	
	
	
	
	
	
	
	
	
	
	
	
	
	
	
	
	
	
	
	
	
	
	
	
	
	
	
	
	
	
	
	
	
	
	
	
	
	
	
	
	
	
	
	
	
	
	
	
	
	
	
	
	
	
	
	
	
	
	
	
	
	
	
	
	
	
	
	
	
	
	
	
	
	
	
	
	
	
	
	
	
	
	
	
	
	
	
	
	
	
	
	
</g>
</svg>
