<?xml version="1.0" encoding="UTF-8" standalone="no"?>
<!-- Generator: Adobe Illustrator 23.0.3, SVG Export Plug-In . SVG Version: 6.00 Build 0)  -->

<svg
   version="1.1"
   x="0px"
   y="0px"
   viewBox="0 0 761.1 623.6"
   style="enable-background:new 0 0 761.1 623.6;"
   xml:space="preserve"
   id="svg1770"
   sodipodi:docname="time-series_data_data_locus.svg"
   inkscape:version="1.3.2 (091e20e, 2023-11-25)"
   xmlns:inkscape="http://www.inkscape.org/namespaces/inkscape"
   xmlns:sodipodi="http://sodipodi.sourceforge.net/DTD/sodipodi-0.dtd"
   xmlns="http://www.w3.org/2000/svg"
   xmlns:svg="http://www.w3.org/2000/svg"><defs
   id="defs1770" /><sodipodi:namedview
   id="namedview1770"
   pagecolor="#ffffff"
   bordercolor="#000000"
   borderopacity="0.25"
   inkscape:showpageshadow="2"
   inkscape:pageopacity="0.0"
   inkscape:pagecheckerboard="0"
   inkscape:deskcolor="#d1d1d1"
   inkscape:zoom="0.77924644"
   inkscape:cx="392.68707"
   inkscape:cy="259.2248"
   inkscape:window-width="1384"
   inkscape:window-height="847"
   inkscape:window-x="62"
   inkscape:window-y="25"
   inkscape:window-maximized="1"
   inkscape:current-layer="Layer_1" />
<style
   type="text/css"
   id="style1">
	.st0{opacity:0.3;fill:#1F77B4;}
	.st1{opacity:0.3;fill:#FF7F0E;}
	.st2{opacity:0.3;fill:#2CA02C;}
	.st3{fill:#1F77B4;}
	.st4{fill:#2CA02C;}
	.st5{fill:#FF7F0E;}
	.st6{fill:#C1272D;}
	.st7{fill:#FCEE21;}
	.st8{fill:#0000FF;}
	.st9{fill:#8CC63F;}
	.st10{fill:none;stroke:#820303;stroke-width:2.0469;stroke-miterlimit:10;}
	.st11{opacity:0.3;}
</style>

<g
   id="Layer_1">
	<g
   id="Слой_8">
	</g>
	<g
   id="Слой_16">
	</g>
	<g
   id="Time_scale">
	</g>
	<g
   id="Now_line">
	</g>
	<g
   id="Слой_10">
	</g>
	<g
   id="Слой_9">
	</g>
	
	
	
	
	
	
	
	
	
	
	
	
	
	
	
	
	
	
	
	
	
	
	
	
	
	
	
	
	
	
	
	
	
	
	
	
	
	
	
	
	
	
	<rect
   x="387.7"
   y="114.3"
   class="st10"
   width="10"
   height="447.4"
   id="rect1060" />
	
	
	
	
	
	
	
	
	
	
	
	
	
	
	
	
	
	
	
	
	
	
	
	
	
	
	
	
	
	
	
	
	
	
	
	
	
	
	
	
	
	
	
	
	
	
	
	
	
	
	
	
	
	
	
	
	
	
	
	
	
	
	
	
	
	
	
	
	
	
	
	
	
	
	
	
	
	
	
	
	
	
	
	
	
	
	
	
	
	
	
	
	
	
	
	
	
	
	
	
	
	
	
	
	
	<g
   id="g1751">
		<g
   id="g1750">
			<path
   d="M354.8,561c0.4,5.9,0.8,11.9,1.2,17.8c0.2,3.8-0.5,9.8,1.2,13.1c0.5,0.9,1.7,0.9,2.4,0.3c0.1,0,0.1-0.1,0.2-0.1     c0.6-0.6,0.5-1.5,0-2.1c0,0-0.1-0.1-0.1-0.1c-1.2-1.5-3.4,0.6-2.1,2.1c0,0,0.1,0.1,0.1,0.1c0-0.7,0-1.4,0-2.1     c-0.1,0-0.1,0.1-0.2,0.1c0.8,0.1,1.6,0.2,2.4,0.3c-0.9-1.8-0.4-5.7-0.6-7.6c-0.2-2.3-0.3-4.6-0.5-6.9c-0.3-5-0.7-9.9-1-14.9     C357.6,559.1,354.6,559.1,354.8,561L354.8,561z"
   id="path1749" />
		</g>
	</g>
	<g
   id="g1753">
		<g
   id="g1752">
			<path
   d="M361.3,582.8c-0.5,3.9-0.1,9.6,4.9,10.1c5.6,0.6,7.3-6.3,7.5-10.6c0.1-3.9,0.2-11.9-5.2-12.5c-5.7-0.7-7.2,8.9-8.1,12.7     c-0.4,1.9,2.4,2.7,2.9,0.8c0.5-2.1,1-4.2,1.7-6.2c0.7-2.1,3.3-5,5-2c0.7,1.3,0.6,3.2,0.6,4.6c0.1,2.4,0.2,4.9-0.7,7.2     c-0.3,1.2-1,2.1-2,2.8c-1.1-0.3-2.1-0.6-3.2-0.9c-1-0.9-0.6-4-0.5-5.1C364.5,581.7,361.6,580.8,361.3,582.8L361.3,582.8z"
   id="path1751" />
		</g>
	</g>
	<g
   id="g1755">
		<g
   id="g1754">
			<path
   d="M385.8,574.8c-0.9-2.4-3.3-3.5-5.8-2.6c-3.5,1.4-4.3,6-4.7,9.3c-0.4,3.4-0.9,8.1,2.6,10c3.1,1.7,6.8,0.7,9.2-1.7     c1.4-1.3-0.7-3.5-2.1-2.1c-2.1,2-5.5,2.7-6.8-1.2c-0.3-1-0.1-2.6,0-3.6c0.1-1.4,0.3-3,0.7-4.4c0.2-0.7,0.4-1.4,0.8-2.1     c0.7-1.6,1.8-1.8,3.2-0.9C383.6,577.3,386.5,576.6,385.8,574.8L385.8,574.8z"
   id="path1753" />
		</g>
	</g>
	<g
   id="g1757">
		<g
   id="g1756">
			<path
   d="M389.7,572.1c-0.9,4.5-1.6,9.4-1.3,14c0.1,2.6,0.9,5.6,3.8,6.2c8,1.6,7.8-14,8.4-18.3c-1-0.1-2-0.3-2.9-0.4     c-0.4,3.2-0.9,6.4-0.5,9.7c0.2,2.1,0.3,5.3,1.5,7c0.6,0.8,2.1,1.1,2.6,0c0,0,0-0.1,0.1-0.1c0.3-0.8,0.2-1.6-0.5-2.1     c0,0-0.1,0-0.1-0.1c-1.7-1-3.2,1.6-1.5,2.6c0,0,0.1,0,0.1,0.1c-0.2-0.7-0.4-1.4-0.5-2.1c0,0,0,0.1-0.1,0.1c0.9,0,1.7,0,2.6,0     c-1.3-1.9-1.2-5.8-1.2-7.9c0-2.4,0.4-4.8,0.7-7.2c0.2-1.7-2.7-2.1-2.9-0.4c-0.4,2.7-0.7,5.4-1.1,8.1c-0.2,1.3-0.5,7.1-2.1,7.4     c-1-0.4-1.9-0.7-2.9-1.1c-0.1-0.8-0.2-1.7-0.2-2.5c0-1.3,0-2.6,0.1-3.8c0.2-2.8,0.5-5.6,1.1-8.4C393,571,390.1,570.2,389.7,572.1     L389.7,572.1z"
   id="path1755" />
		</g>
	</g>
	<g
   id="g1759">
		<g
   id="g1758">
			<path
   d="M411.6,575c-1.3-4.7-8.2-3.5-9.2,0.8c-0.5,2.1,1.2,3.7,2.7,4.8c2,1.4,4.3,2.4,5.3,4.7c0.7,1.7,0.5,4.3-1.7,4     c-1.6-0.2-2.6-2-3.2-3.3c-0.8-1.8-3.3-0.2-2.6,1.5c1.8,4.3,8.3,7.5,10.4,1.8c0.9-2.5,0.3-5.2-1.3-7.2c-0.9-1.2-2.2-2-3.4-2.8     c-0.7-0.5-2.3-1.1-2.7-1.9c-1-2,2.5-3.2,2.9-1.6C409.2,577.7,412.1,576.9,411.6,575L411.6,575z"
   id="path1757" />
		</g>
	</g>
	<g
   id="g1761">
		<g
   id="g1760">
			<path
   d="M430.2,582.9c1.2-2.2,13.4-23.2,3.8-22.6c-3.7,0.2-4,7.2-4.3,9.8c-0.9,7.3-1,14.7-1.4,22c0,0.7,0.7,1.6,1.5,1.5     c3.4-0.4,5.9-1.8,7.8-4.7c1.1-1.6-1.5-3.1-2.6-1.5c-1.1,2-2.9,3.1-5.2,3.3c0.5,0.5,1,1,1.5,1.5c0.4-7.2,0.5-14.6,1.5-21.8     c0-0.3,0.8-5.2,1-5.2c1.8,0.3,0.1,4.4-0.2,5.3c-1.3,3.8-3.8,7.4-5.8,11C426.7,583.1,429.3,584.6,430.2,582.9L430.2,582.9z"
   id="path1759" />
		</g>
	</g>
	
</g>
</svg>
