<?xml version="1.0" encoding="UTF-8" standalone="no"?>
<!-- Generator: Adobe Illustrator 23.0.3, SVG Export Plug-In . SVG Version: 6.00 Build 0)  -->

<svg
   version="1.1"
   x="0px"
   y="0px"
   viewBox="0 0 761.1 623.6"
   style="enable-background:new 0 0 761.1 623.6;"
   xml:space="preserve"
   id="svg1770"
   sodipodi:docname="time-series_data_data_counts.svg"
   inkscape:version="1.3.2 (091e20e, 2023-11-25)"
   xmlns:inkscape="http://www.inkscape.org/namespaces/inkscape"
   xmlns:sodipodi="http://sodipodi.sourceforge.net/DTD/sodipodi-0.dtd"
   xmlns="http://www.w3.org/2000/svg"
   xmlns:svg="http://www.w3.org/2000/svg"><defs
   id="defs1770" /><sodipodi:namedview
   id="namedview1770"
   pagecolor="#ffffff"
   bordercolor="#000000"
   borderopacity="0.25"
   inkscape:showpageshadow="2"
   inkscape:pageopacity="0.0"
   inkscape:pagecheckerboard="0"
   inkscape:deskcolor="#d1d1d1"
   inkscape:zoom="1.3585771"
   inkscape:cx="585.17106"
   inkscape:cy="72.134294"
   inkscape:window-width="1312"
   inkscape:window-height="449"
   inkscape:window-x="62"
   inkscape:window-y="25"
   inkscape:window-maximized="0"
   inkscape:current-layer="Layer_1" />
<style
   type="text/css"
   id="style1">
	.st0{opacity:0.3;fill:#1F77B4;}
	.st1{opacity:0.3;fill:#FF7F0E;}
	.st2{opacity:0.3;fill:#2CA02C;}
	.st3{fill:#1F77B4;}
	.st4{fill:#2CA02C;}
	.st5{fill:#FF7F0E;}
	.st6{fill:#C1272D;}
	.st7{fill:#FCEE21;}
	.st8{fill:#0000FF;}
	.st9{fill:#8CC63F;}
	.st10{fill:none;stroke:#820303;stroke-width:2.0469;stroke-miterlimit:10;}
	.st11{opacity:0.3;}
</style>
<g
   id="Layer_2"
   transform="translate(20)">
	
	
	
	<rect
   x="617.20001"
   y="139.89999"
   class="st0"
   width="58.900002"
   height="26.5"
   id="rect4" />
	<rect
   x="617.20001"
   y="176.89999"
   class="st1"
   width="58.900002"
   height="26.5"
   id="rect5" />
	<rect
   x="617.20001"
   y="213.89999"
   class="st2"
   width="58.900002"
   height="26.5"
   id="rect6" />
	<rect
   x="617.20001"
   y="289.89999"
   class="st0"
   width="58.900002"
   height="26.5"
   id="rect7" />
	<rect
   x="617.20001"
   y="326.89999"
   class="st1"
   width="58.900002"
   height="26.5"
   id="rect8" />
	<rect
   x="617.20001"
   y="363.89999"
   class="st2"
   width="58.900002"
   height="26.5"
   id="rect9" />
	<rect
   x="617.20001"
   y="439.89999"
   class="st0"
   width="58.900002"
   height="26.5"
   id="rect10" />
	<rect
   x="617.20001"
   y="476.89999"
   class="st1"
   width="58.900002"
   height="26.5"
   id="rect11" />
	<rect
   x="617.20001"
   y="513.90002"
   class="st2"
   width="58.900002"
   height="26.5"
   id="rect12" />
	
	
	
</g>
<g
   id="Layer_1">
	<g
   id="Слой_8">
	</g>
	<g
   id="Слой_16">
	</g>
	<g
   id="Time_scale">
	</g>
	<g
   id="Now_line">
	</g>
	<g
   id="Слой_10">
	</g>
	<g
   id="Слой_9">
	</g>
	
	
	
	
	
	
	
	
	
	
	
	
	
	
	
	
	
	
	
	
	
	
	
	
	
	
	
	
	
	
	
	
	
	
	
	
	
	
	
	
	
	
	
	<g
   id="g1062"
   transform="translate(20)">
		<g
   id="g1061">
			<path
   d="m 620.3,134.6 c -2.9,0.2 -5.8,0.3 -8.6,0.5 -1.8,0.1 -4,-0.1 -5.7,0.5 -3.3,1.1 -2.9,4.4 -2.7,7.2 0.8,11.7 1.5,23.4 1.9,35.1 0.8,22.9 0.5,45.9 -0.6,68.8 0,0.8 0.6,1.3 1.4,1.2 8,-0.5 16,-1 24.1,-1.5 1.5,-0.1 1.1,-2.4 -0.4,-2.3 -8,0.5 -16,1 -24.1,1.5 0.4,0.4 0.9,0.9 1.4,1.2 1,-20.4 1.2,-40.9 0.8,-61.3 -0.2,-9.5 -0.6,-19.1 -1.2,-28.6 -0.1,-2.5 -0.3,-5.1 -0.5,-7.7 -0.2,-2.4 -0.8,-5.3 -0.6,-7.6 0.5,-4.8 3.9,-4 7.3,-4.2 2.6,-0.1 5.3,-0.3 7.9,-0.5 1.5,-0.1 1.1,-2.4 -0.4,-2.3 z"
   id="path1060" />
		</g>
	</g>
	<g
   id="g1064"
   transform="translate(20)">
		<g
   id="g1063">
			<path
   d="m 671.3,135.8 c 4.7,0.4 9.3,0.8 14,1.2 -0.4,-0.4 -0.7,-0.8 -1.1,-1.1 -2.1,20 -2.8,40.2 -2,60.4 0.4,9.7 1.1,19.4 2.2,29.1 0.3,2.3 0.6,4.5 0.8,6.8 0.3,2.6 1.5,5.9 -0.1,8.1 -1.6,2.1 -5.3,2.1 -8.1,2.5 -2.9,0.5 -5.7,1 -8.6,1.4 -1.5,0.2 -1,2.3 0.4,2.1 5.3,-0.8 11.4,-1.1 16.5,-2.8 3.3,-1.1 3.1,-3.4 2.7,-6.2 -1.3,-11.5 -2.7,-23 -3.3,-34.6 -1.3,-22.2 -0.6,-44.5 1.8,-66.6 0,-0.6 -0.4,-1.1 -1.1,-1.1 -4.7,-0.4 -9.3,-0.8 -14,-1.2 -1.5,-0.2 -1.7,1.9 -0.1,2 z"
   id="path1062" />
		</g>
	</g>
	<g
   id="g1071"
   transform="translate(20)">
		<g
   id="g1066">
			<g
   id="g1065">
				<path
   d="m 622.9,152.2 c -2.9,3.7 -1.1,9.1 3.2,10.9 5.8,2.4 12.7,-2.7 15,-7.9 2.4,-5.3 -1.5,-10 -6.8,-10.9 -5.4,-0.8 -11,2.1 -13.2,7.1 -0.8,1.8 1.8,3.3 2.6,1.5 1.2,-2.7 3.3,-4.6 6.2,-5.4 3,-0.8 8.7,-0.1 9,4 0.3,3.8 -4.2,7.7 -7.4,8.7 -2,0.7 -4.1,0.6 -5.7,-1 -1.3,-1.3 -2,-3.4 -0.7,-4.9 1.1,-1.5 -1,-3.6 -2.2,-2.1 z"
   id="path1064" />
			</g>
		</g>
		<g
   id="g1068">
			<g
   id="g1067">
				<path
   d="m 652,142.2 c -5.3,5.9 -8.8,12.9 -10.3,20.7 -0.4,1.9 2.5,2.7 2.9,0.8 1.4,-7.3 4.6,-13.8 9.5,-19.3 1.3,-1.5 -0.8,-3.6 -2.1,-2.2 z"
   id="path1066" />
			</g>
		</g>
		<g
   id="g1070">
			<g
   id="g1069">
				<path
   d="m 658.2,150.4 c 0.3,-1.7 0.8,-4.4 2.6,-5 1.3,-0.4 1.3,0.8 1.3,2.1 0,1.1 -0.3,2.4 -0.6,3.5 -1,3.4 -3.4,6.3 -5.7,8.9 -0.7,0.8 -0.5,2.3 0.7,2.5 4.7,0.8 9.4,1.2 14.1,1 1.9,-0.1 1.9,-3.1 0,-3 -4.5,0.2 -8.9,-0.1 -13.3,-0.9 0.2,0.8 0.4,1.7 0.7,2.5 3.8,-4.3 9.5,-11.8 6.9,-18.1 -0.9,-2.2 -3.2,-2.4 -5.1,-1.4 -2.7,1.3 -3.9,4.3 -4.3,7.1 -0.5,1.9 2.4,2.7 2.7,0.8 z"
   id="path1068" />
			</g>
		</g>
	</g>
	<g
   id="g1078"
   transform="translate(20)">
		<g
   id="g1073">
			<g
   id="g1072">
				<path
   d="m 632.8,184.8 c 0.5,-0.7 1,-1.2 1.7,-1.6 3.4,0.5 4.4,1.7 3,3.3 -0.5,1.2 -1.7,2.6 -3,2.9 0.3,1 0.5,1.9 0.8,2.9 2.4,-1 4.5,1.9 2.4,4.2 -1.3,1.4 -3.6,1.3 -5.2,0.9 -1.7,-0.4 -6.1,-1.6 -6.1,-3.8 0,-1.9 -3,-1.9 -3,0 -0.1,3.2 2.8,4.6 5.4,5.7 3.2,1.3 7.2,2.3 10.2,-0.1 4.8,-3.7 1.6,-12.3 -4.6,-9.8 -1.8,0.7 -1.1,3.3 0.8,2.9 3.7,-0.8 7.3,-6.3 5.3,-10 -2.3,-4.1 -7.5,-2.6 -10,0.4 -1,1.5 1.1,3.6 2.3,2.1 z"
   id="path1071" />
			</g>
		</g>
		<g
   id="g1075">
			<g
   id="g1074">
				<path
   d="m 652,179.9 c -3.6,6.1 -6.5,12.5 -8.7,19.2 -0.3,1 0.5,1.9 1.4,1.9 0,0 0,0 0.1,0 1,0 1.7,-1 1.4,-1.9 0,0 0,0 0,-0.1 -0.5,-1.8 -3.4,-1.1 -2.9,0.8 0,0 0,0 0,0.1 0.5,-0.6 1,-1.3 1.4,-1.9 0,0 0,0 -0.1,0 0.5,0.6 1,1.3 1.4,1.9 2.2,-6.5 5,-12.6 8.4,-18.5 1.2,-1.6 -1.4,-3.1 -2.4,-1.5 z"
   id="path1073" />
			</g>
		</g>
		<g
   id="g1077">
			<g
   id="g1076">
				<path
   d="m 660,184.6 c 2.5,-0.9 3.1,-0.2 1.7,2.1 -0.9,0.7 -1.9,1 -3.1,0.9 0,1 0,2 0,3 2.6,-0.2 8.6,1.5 6.2,5.6 -0.9,1.5 -9.6,2.6 -9.9,0.1 -0.2,-1.9 -3.2,-1.9 -3,0 0.3,2.7 2.3,4.3 5,4.5 2.9,0.2 7.7,0.2 9.9,-2.2 1.8,-2.1 1.8,-5.3 0.3,-7.5 -1.8,-2.8 -5.3,-3.6 -8.4,-3.4 -1.9,0.1 -1.9,3 0,3 4,0 8.4,-3.4 6.2,-7.7 -1.8,-3.5 -7,-2.8 -7.8,1 -0.5,1.7 2.4,2.5 2.9,0.6 z"
   id="path1075" />
			</g>
		</g>
	</g>
	<g
   id="g1085"
   transform="translate(20)">
		<g
   id="g1080">
			<g
   id="g1079">
				<path
   d="m 632.1,335.8 c -0.2,-1.7 0.5,-4 2.8,-4 2.8,-0.1 3,3.4 1.8,5.2 -1.2,2 -3.9,2.9 -5.7,4.2 -2.6,1.8 -4.5,4.3 -4.4,7.6 0,0.8 0.7,1.5 1.5,1.5 4.5,-0.1 8.9,-0.3 13.4,-0.4 1.9,-0.1 1.9,-3.1 0,-3 -4.5,0.1 -8.9,0.3 -13.4,0.4 0.5,0.5 1,1 1.5,1.5 -0.3,-6.4 16.1,-9.4 10,-17.6 -3.8,-5.1 -11.2,-1.4 -10.6,4.5 0.3,2 3.3,2 3.1,0.1 z"
   id="path1078" />
			</g>
		</g>
		<g
   id="g1082">
			<g
   id="g1081">
				<path
   d="m 649.7,328.6 c -1.8,7 -3.9,13.9 -6.3,20.8 -0.7,1.8 2.2,2.6 2.9,0.8 2.4,-6.8 4.6,-13.7 6.3,-20.8 0.5,-1.9 -2.4,-2.7 -2.9,-0.8 z"
   id="path1080" />
			</g>
		</g>
		<g
   id="g1084">
			<g
   id="g1083">
				<path
   d="m 657.9,334.2 c 1,-1.2 0.9,-1.8 2.6,-0.9 1.4,0.2 1.6,0.7 0.8,1.7 -0.2,1.1 -0.9,1.8 -2.1,2 -1.7,0.5 -1.2,2.7 0.4,2.9 3.8,0.5 5.8,4.8 1.9,7.1 -2.7,1.6 -6.2,0.8 -6.7,-2.7 -0.3,-1.9 -3.2,-1.1 -2.9,0.8 1,6.6 9.1,7 13.1,2.9 4.7,-4.8 0,-10.4 -5.4,-11.1 0.1,1 0.3,2 0.4,2.9 3.5,-1 5.9,-4.8 4.4,-8.4 -1.9,-4.5 -6.3,-2.3 -8.5,0.5 -1.3,1.7 0.9,3.8 2,2.3 z"
   id="path1082" />
			</g>
		</g>
	</g>
	<g
   id="g1092"
   transform="translate(20)">
		<g
   id="g1087">
			<g
   id="g1086">
				<path
   d="m 626.9,224.2 c -2,5.5 -1,11.6 5.1,14 4.9,2 10.4,-4.8 11.7,-9 1.6,-5 -2.1,-11.2 -7,-12.8 -6.3,-2 -8.1,5.7 -9.6,10 -0.6,1.8 2.3,2.6 2.9,0.8 0.5,-1.3 0.9,-2.6 1.4,-4 0.9,-2.4 1,-3.4 3.7,-3.4 4.5,0 7.4,5.7 5.3,9.7 -1.3,2.4 -4.7,6.5 -7.8,5.4 -4.4,-1.5 -3.8,-6.8 -2.7,-10.1 0.6,-1.6 -2.3,-2.4 -3,-0.6 z"
   id="path1085" />
			</g>
		</g>
		<g
   id="g1089">
			<g
   id="g1088">
				<path
   d="m 651.9,215.9 c -1.5,6.5 -3,13 -4.5,19.6 -0.4,1.9 2.5,2.7 2.9,0.8 1.5,-6.5 3,-13 4.5,-19.6 0.4,-1.8 -2.5,-2.6 -2.9,-0.8 z"
   id="path1087" />
			</g>
		</g>
		<g
   id="g1091">
			<g
   id="g1090">
				<path
   d="m 659.7,229.1 c 2.3,-1 4.3,-2.5 5.6,-4.6 1.7,-2.5 1.1,-5.3 2.3,-7.9 -0.9,-0.3 -1.9,-0.5 -2.8,-0.8 0.1,3.6 -0.1,7.2 -0.7,10.8 -0.5,3 -0.3,7.8 -4.2,7.5 -1.7,-0.1 -2,2.5 -0.4,2.9 2.5,0.6 4.9,0.8 7.5,0.5 1.9,-0.2 1.9,-3.2 0,-3 -2.3,0.3 -4.4,0.2 -6.7,-0.4 -0.1,1 -0.3,2 -0.4,2.9 5.1,0.4 5.3,-0.3 6.3,-5.3 1.1,-5.3 1.9,-10.6 1.6,-16.1 -0.1,-1.4 -2.1,-2.2 -2.8,-0.8 -0.9,1.8 -0.7,3.5 -1.2,5.5 -0.7,2.9 -3.1,4.8 -5.7,5.9 -1.7,1.1 -0.2,3.7 1.6,2.9 z"
   id="path1089" />
			</g>
		</g>
	</g>
	<g
   id="g1099"
   transform="translate(20)">
		<g
   id="g1094">
			<g
   id="g1093">
				<path
   d="m 630.5,530.2 c 4.5,-2.8 6.8,-7.4 6.6,-12.6 -0.1,-1.9 -3,-1.9 -3,0 0,3.4 0,6.9 0,10.3 0,1.6 0,3.2 0,4.8 0,2.4 0.1,3.3 -2.6,3.3 -1.9,0 -1.9,2.9 0,3 2,0.1 3.9,0.3 5.8,0.7 1.9,0.3 2.7,-2.6 0.8,-2.9 -2.2,-0.4 -4.4,-0.6 -6.6,-0.8 0,1 0,2 0,3 1.5,0 2.9,0.2 4.4,-0.2 0.5,-0.1 0.9,-0.5 1,-1 0.6,-2.8 0.2,-6.1 0.2,-9 0,-3.7 0,-7.4 0,-11.1 -1,0 -2,0 -3,0 0.2,4.2 -1.5,7.8 -5.1,10 -1.6,0.9 -0.1,3.5 1.5,2.5 z"
   id="path1092" />
			</g>
		</g>
		<g
   id="g1096">
			<g
   id="g1095">
				<path
   d="m 648.7,515.9 c -1.5,7.3 -2.6,14.9 -5.5,21.9 -0.7,1.6 1.9,2.5 2.7,1.2 0.2,-0.3 0.4,-0.7 0.6,-1 1,-1.6 -1.6,-3.1 -2.6,-1.5 -0.2,0.3 -0.4,0.7 -0.6,1 0.9,0.4 1.8,0.8 2.7,1.2 2.9,-7 4,-14.5 5.5,-21.9 0.5,-2 -2.4,-2.8 -2.8,-0.9 z"
   id="path1094" />
			</g>
		</g>
		<g
   id="g1098">
			<g
   id="g1097">
				<path
   d="m 657.1,532.2 c 4.5,-3.7 6.9,-8.8 6.9,-14.6 0,-1.9 -2.9,-1.9 -3,0 -0.2,3.8 -0.4,7.6 -0.7,11.4 -0.1,1.6 0,3.3 -0.3,4.9 -0.4,2.6 -0.5,2.7 -3.1,2.6 0,1 0,2 0,3 2.5,0 5.1,0 7.6,0 1.9,0 1.9,-3 0,-3 -2.5,0 -5.1,0 -7.6,0 -1.9,0 -1.9,3 0,3 3.4,0 5.5,0.5 5.9,-3.2 0.7,-6.2 0.7,-12.5 1.1,-18.7 -1,0 -2,0 -3,0 0,5 -2.1,9.3 -6,12.5 -1.4,1.2 0.7,3.3 2.2,2.1 z"
   id="path1096" />
			</g>
		</g>
	</g>
	<g
   id="g1101"
   transform="translate(20)">
		<g
   id="g1100">
			<path
   d="m 620.3,284.6 c -2.9,0.2 -5.8,0.3 -8.6,0.5 -1.8,0.1 -4,-0.1 -5.7,0.5 -3.3,1.1 -2.9,4.4 -2.7,7.2 0.8,11.7 1.5,23.4 1.9,35.1 0.8,22.9 0.5,45.9 -0.6,68.8 0,0.8 0.6,1.3 1.4,1.2 8,-0.5 16,-1 24.1,-1.5 1.5,-0.1 1.1,-2.4 -0.4,-2.3 -8,0.5 -16,1 -24.1,1.5 0.4,0.4 0.9,0.9 1.4,1.2 1,-20.4 1.2,-40.9 0.8,-61.3 -0.2,-9.5 -0.6,-19.1 -1.2,-28.6 -0.1,-2.5 -0.3,-5.1 -0.5,-7.7 -0.2,-2.4 -0.8,-5.3 -0.6,-7.6 0.5,-4.8 3.9,-4 7.3,-4.2 2.6,-0.1 5.3,-0.3 7.9,-0.5 1.5,-0.1 1.1,-2.4 -0.4,-2.3 z"
   id="path1099" />
		</g>
	</g>
	<g
   id="g1103"
   transform="translate(20)">
		<g
   id="g1102">
			<path
   d="m 671.3,285.8 c 4.7,0.4 9.3,0.8 14,1.2 -0.4,-0.4 -0.7,-0.8 -1.1,-1.1 -2.1,20 -2.8,40.2 -2,60.4 0.4,9.7 1.1,19.4 2.2,29.1 0.3,2.3 0.6,4.5 0.8,6.8 0.3,2.6 1.5,5.9 -0.1,8.1 -1.6,2.1 -5.3,2.1 -8.1,2.5 -2.9,0.5 -5.7,1 -8.6,1.4 -1.5,0.2 -1,2.3 0.4,2.1 5.3,-0.8 11.4,-1.1 16.5,-2.8 3.3,-1.1 3.1,-3.4 2.7,-6.2 -1.3,-11.5 -2.7,-23 -3.3,-34.6 -1.3,-22.2 -0.6,-44.5 1.8,-66.6 0,-0.6 -0.4,-1.1 -1.1,-1.1 -4.7,-0.4 -9.3,-0.8 -14,-1.2 -1.5,-0.2 -1.7,1.9 -0.1,2 z"
   id="path1101" />
		</g>
	</g>
	<g
   id="g1110"
   transform="translate(20)">
		<g
   id="g1105">
			<g
   id="g1104">
				<path
   d="m 622.9,302.2 c -2.9,3.7 -1.1,9.1 3.2,10.9 5.8,2.4 12.7,-2.7 15,-7.9 2.4,-5.3 -1.5,-10 -6.8,-10.9 -5.4,-0.8 -11,2.1 -13.2,7.1 -0.8,1.8 1.8,3.3 2.6,1.5 1.2,-2.7 3.3,-4.6 6.2,-5.4 3,-0.8 8.7,-0.1 9,4 0.3,3.8 -4.2,7.7 -7.4,8.7 -2,0.7 -4.1,0.6 -5.7,-1 -1.3,-1.3 -2,-3.4 -0.7,-4.9 1.1,-1.5 -1,-3.6 -2.2,-2.1 z"
   id="path1103" />
			</g>
		</g>
		<g
   id="g1107">
			<g
   id="g1106">
				<path
   d="m 652,292.2 c -5.3,5.9 -8.8,12.9 -10.3,20.7 -0.4,1.9 2.5,2.7 2.9,0.8 1.4,-7.3 4.6,-13.8 9.5,-19.3 1.3,-1.5 -0.8,-3.6 -2.1,-2.2 z"
   id="path1105" />
			</g>
		</g>
		<g
   id="g1109">
			<g
   id="g1108">
				<path
   d="m 658.2,300.4 c 0.3,-1.7 0.8,-4.4 2.6,-5 1.3,-0.4 1.3,0.8 1.3,2.1 0,1.1 -0.3,2.4 -0.6,3.5 -1,3.4 -3.4,6.3 -5.7,8.9 -0.7,0.8 -0.5,2.3 0.7,2.5 4.7,0.8 9.4,1.2 14.1,1 1.9,-0.1 1.9,-3.1 0,-3 -4.5,0.2 -8.9,-0.1 -13.3,-0.9 0.2,0.8 0.4,1.7 0.7,2.5 3.8,-4.3 9.5,-11.8 6.9,-18.1 -0.9,-2.2 -3.2,-2.4 -5.1,-1.4 -2.7,1.3 -3.9,4.3 -4.3,7.1 -0.5,1.9 2.4,2.7 2.7,0.8 z"
   id="path1107" />
			</g>
		</g>
	</g>
	<g
   id="g1112"
   transform="translate(20)">
		<g
   id="g1111">
			<path
   d="m 620.3,434.6 c -2.9,0.2 -5.8,0.3 -8.6,0.5 -1.8,0.1 -4,-0.1 -5.7,0.5 -3.3,1.1 -2.9,4.4 -2.7,7.2 0.8,11.7 1.5,23.4 1.9,35.1 0.8,22.9 0.5,45.9 -0.6,68.8 0,0.8 0.6,1.3 1.4,1.2 8,-0.5 16,-1 24.1,-1.5 1.5,-0.1 1.1,-2.4 -0.4,-2.3 -8,0.5 -16,1 -24.1,1.5 0.4,0.4 0.9,0.9 1.4,1.2 1,-20.4 1.2,-40.9 0.8,-61.3 -0.2,-9.5 -0.6,-19.1 -1.2,-28.6 -0.1,-2.5 -0.3,-5.1 -0.5,-7.7 -0.2,-2.4 -0.8,-5.3 -0.6,-7.6 0.5,-4.8 3.9,-4 7.3,-4.2 2.6,-0.1 5.3,-0.3 7.9,-0.5 1.5,-0.1 1.1,-2.4 -0.4,-2.3 z"
   id="path1110" />
		</g>
	</g>
	<g
   id="g1114"
   transform="translate(20)">
		<g
   id="g1113">
			<path
   d="m 671.3,435.8 c 4.7,0.4 9.3,0.8 14,1.2 -0.4,-0.4 -0.7,-0.8 -1.1,-1.1 -2.1,20 -2.8,40.2 -2,60.4 0.4,9.7 1.1,19.4 2.2,29.1 0.3,2.3 0.6,4.5 0.8,6.8 0.3,2.6 1.5,5.9 -0.1,8.1 -1.6,2.1 -5.3,2.1 -8.1,2.5 -2.9,0.5 -5.7,1 -8.6,1.4 -1.5,0.2 -1,2.3 0.4,2.1 5.3,-0.8 11.4,-1.1 16.5,-2.8 3.3,-1.1 3.1,-3.4 2.7,-6.2 -1.3,-11.5 -2.7,-23 -3.3,-34.6 -1.3,-22.2 -0.6,-44.5 1.8,-66.6 0,-0.6 -0.4,-1.1 -1.1,-1.1 -4.7,-0.4 -9.3,-0.8 -14,-1.2 -1.5,-0.2 -1.7,1.9 -0.1,2 z"
   id="path1112" />
		</g>
	</g>
	<g
   id="g1121"
   transform="translate(20)">
		<g
   id="g1116">
			<g
   id="g1115">
				<path
   d="m 622.9,452.2 c -2.9,3.7 -1.1,9.1 3.2,10.9 5.8,2.4 12.7,-2.7 15,-7.9 2.4,-5.3 -1.5,-10 -6.8,-10.9 -5.4,-0.8 -11,2.1 -13.2,7.1 -0.8,1.8 1.8,3.3 2.6,1.5 1.2,-2.7 3.3,-4.6 6.2,-5.4 3,-0.8 8.7,-0.1 9,4 0.3,3.8 -4.2,7.7 -7.4,8.7 -2,0.7 -4.1,0.6 -5.7,-1 -1.3,-1.3 -2,-3.4 -0.7,-4.9 1.1,-1.5 -1,-3.6 -2.2,-2.1 z"
   id="path1114" />
			</g>
		</g>
		<g
   id="g1118">
			<g
   id="g1117">
				<path
   d="m 652,442.2 c -5.3,5.9 -8.8,12.9 -10.3,20.7 -0.4,1.9 2.5,2.7 2.9,0.8 1.4,-7.3 4.6,-13.8 9.5,-19.3 1.3,-1.5 -0.8,-3.6 -2.1,-2.2 z"
   id="path1116" />
			</g>
		</g>
		<g
   id="g1120">
			<g
   id="g1119">
				<path
   d="m 658.2,450.4 c 0.3,-1.7 0.8,-4.4 2.6,-5 1.3,-0.4 1.3,0.8 1.3,2.1 0,1.1 -0.3,2.4 -0.6,3.5 -1,3.4 -3.4,6.3 -5.7,8.9 -0.7,0.8 -0.5,2.3 0.7,2.5 4.7,0.8 9.4,1.2 14.1,1 1.9,-0.1 1.9,-3.1 0,-3 -4.5,0.2 -8.9,-0.1 -13.3,-0.9 0.2,0.8 0.4,1.7 0.7,2.5 3.8,-4.3 9.5,-11.8 6.9,-18.1 -0.9,-2.2 -3.2,-2.4 -5.1,-1.4 -2.7,1.3 -3.9,4.3 -4.3,7.1 -0.5,1.9 2.4,2.7 2.7,0.8 z"
   id="path1118" />
			</g>
		</g>
	</g>
	<g
   id="g1128"
   transform="translate(20)">
		<g
   id="g1123">
			<g
   id="g1122">
				<path
   d="m 629.8,492.5 c 4.3,-2.8 6.7,-6.8 7.3,-11.9 0.2,-1.9 -2.8,-1.9 -3,0 -0.8,6.3 -1.3,12.6 -1.7,18.9 0.5,-0.5 1,-1 1.5,-1.5 -1.5,0.1 -2.6,0.4 -3.9,1.2 -1.3,0.7 -0.7,2.8 0.8,2.8 2.1,0 4.1,0 6.2,0.1 1.9,0 1.9,-3 0,-3 -2.1,0 -4.1,0 -6.2,-0.1 0.3,0.9 0.5,1.9 0.8,2.8 0.8,-0.2 1.6,-0.5 2.4,-0.7 0.8,-0.1 1.5,-0.6 1.5,-1.5 0.3,-6.3 0.9,-12.6 1.7,-18.9 -1,0 -2,0 -3,0 -0.4,4 -2.5,7.1 -5.8,9.3 -1.8,1 -0.3,3.6 1.4,2.5 z"
   id="path1121" />
			</g>
		</g>
		<g
   id="g1125">
			<g
   id="g1124">
				<path
   d="m 648.7,479.1 c -1.6,7.5 -3.9,14.8 -6.7,21.9 -0.7,1.8 2.2,2.6 2.9,0.8 2.8,-7.1 5,-14.4 6.7,-21.9 0.4,-1.9 -2.5,-2.7 -2.9,-0.8 z"
   id="path1123" />
			</g>
		</g>
		<g
   id="g1127">
			<g
   id="g1126">
				<path
   d="m 658.9,484.2 c 3,-1.2 3.9,-0.5 2.7,2.1 -0.8,1.1 -1.8,1.9 -3.1,2.3 -1.2,0.5 -1.6,2.6 0,2.9 2.5,0.4 5.4,2.2 4.4,5.2 -1.6,4.8 -6.8,1.6 -7.9,-1.2 -0.7,-1.8 -3.6,-1 -2.9,0.8 1.9,4.8 8.2,8.3 12.4,3.7 4.1,-4.5 0,-10.5 -5.1,-11.3 0,1 0,1.9 0,2.9 4,-1.6 8,-6.2 4.5,-10.4 -2.7,-3.3 -8.2,-1.2 -7.9,3.1 0.1,1.8 3.1,1.8 2.9,-0.1 z"
   id="path1125" />
			</g>
		</g>
	</g>
	<g
   id="g1135"
   transform="translate(20)">
		<g
   id="g1130">
			<g
   id="g1129">
				<path
   d="m 626.9,374.2 c -2,5.5 -1,11.6 5.1,14 4.9,2 10.4,-4.8 11.7,-9 1.6,-5 -2.1,-11.2 -7,-12.8 -6.3,-2 -8.1,5.7 -9.6,10 -0.6,1.8 2.3,2.6 2.9,0.8 0.5,-1.3 0.9,-2.6 1.4,-4 0.9,-2.4 1,-3.4 3.7,-3.4 4.5,0 7.4,5.7 5.3,9.7 -1.3,2.4 -4.7,6.5 -7.8,5.4 -4.4,-1.5 -3.8,-6.8 -2.7,-10.1 0.6,-1.6 -2.3,-2.4 -3,-0.6 z"
   id="path1128" />
			</g>
		</g>
		<g
   id="g1132">
			<g
   id="g1131">
				<path
   d="m 651.9,365.9 c -1.5,6.5 -3,13 -4.5,19.6 -0.4,1.9 2.5,2.7 2.9,0.8 1.5,-6.5 3,-13 4.5,-19.6 0.4,-1.8 -2.5,-2.6 -2.9,-0.8 z"
   id="path1130" />
			</g>
		</g>
		<g
   id="g1134">
			<g
   id="g1133">
				<path
   d="m 659.7,379.1 c 2.3,-1 4.3,-2.5 5.6,-4.6 1.7,-2.5 1.1,-5.3 2.3,-7.9 -0.9,-0.3 -1.9,-0.5 -2.8,-0.8 0.1,3.6 -0.1,7.2 -0.7,10.8 -0.5,3 -0.3,7.8 -4.2,7.5 -1.7,-0.1 -2,2.5 -0.4,2.9 2.5,0.6 4.9,0.8 7.5,0.5 1.9,-0.2 1.9,-3.2 0,-3 -2.3,0.3 -4.4,0.2 -6.7,-0.4 -0.1,1 -0.3,2 -0.4,2.9 5.1,0.4 5.3,-0.3 6.3,-5.3 1.1,-5.3 1.9,-10.6 1.6,-16.1 -0.1,-1.4 -2.1,-2.2 -2.8,-0.8 -0.9,1.8 -0.7,3.5 -1.2,5.5 -0.7,2.9 -3.1,4.8 -5.7,5.9 -1.7,1.1 -0.2,3.7 1.6,2.9 z"
   id="path1132" />
			</g>
		</g>
	</g>
	<g
   id="g1137"
   transform="translate(20)">
		<g
   id="g1136">
			<path
   d="m 514,198.8 c 18.1,0 36.3,0 54.4,-0.1 0.9,0 1.2,-1.1 0.7,-1.7 -3.2,-4 -6.9,-7.1 -11.5,-9.5 -0.2,0.6 -0.3,1.2 -0.5,1.9 6.2,0.5 11.8,2.6 16.9,6.2 -0.1,-0.5 -0.1,-1 -0.2,-1.6 -5.2,5.2 -11.2,9.3 -18,12.1 -1.2,0.5 -0.2,2.2 1,1.7 7,-3 13,-7.1 18.4,-12.5 0.5,-0.5 0.3,-1.2 -0.2,-1.6 -5.4,-3.9 -11.3,-6 -17.9,-6.5 -1,-0.1 -1.4,1.4 -0.5,1.9 4.4,2.3 8,5.3 11.1,9.2 0.2,-0.6 0.5,-1.1 0.7,-1.7 -18.1,0 -36.3,0 -54.4,0.1 -1.2,0.1 -1.2,2.1 0,2.1 z"
   id="path1135" />
		</g>
	</g>
	<g
   id="g1139"
   transform="translate(20)">
		<g
   id="g1138">
			<path
   d="m 516.3,342.6 c 18.3,-0.1 36.6,-0.1 54.9,-0.2 1.1,0 1.4,-1.7 0.3,-2 -4.4,-0.8 -8.2,-2.5 -11.7,-5.2 -0.3,0.6 -0.6,1.1 -1,1.7 6.1,1.4 12,3.3 17.6,6 0,-0.6 0,-1.2 0,-1.7 -4.3,2.1 -8.5,3.6 -13.2,4.6 -1.3,0.3 -0.7,2.2 0.5,1.9 4.8,-1.1 9.3,-2.7 13.6,-4.8 0.6,-0.3 0.7,-1.4 0,-1.7 -5.8,-2.7 -11.8,-4.8 -18.1,-6.2 -0.9,-0.2 -1.8,1 -1,1.7 3.8,3 7.9,4.8 12.6,5.8 0.1,-0.7 0.2,-1.3 0.3,-2 -18.3,0.1 -36.6,0.1 -54.9,0.2 -1.2,-0.1 -1.2,1.9 0.1,1.9 z"
   id="path1137" />
		</g>
	</g>
	<g
   id="g1141"
   transform="translate(20)">
		<g
   id="g1140">
			<path
   d="m 511.8,505 c 19.8,-1.2 39.6,-2.5 59.4,-3.7 1.2,-0.1 1.3,-1.6 0.3,-2 -5.3,-2 -9.5,-5.2 -12.8,-9.8 -0.5,0.4 -1,0.8 -1.6,1.2 5.2,4.9 10.9,8.7 17.4,11.5 0,-0.6 0,-1.2 0,-1.7 -6.6,3.3 -12.6,7.3 -18.2,12.2 -1,0.9 0.5,2.3 1.4,1.4 5.4,-4.8 11.3,-8.7 17.8,-11.9 0.6,-0.3 0.7,-1.4 0,-1.7 -6.3,-2.7 -12,-6.4 -17,-11.2 -0.8,-0.7 -2.3,0.3 -1.6,1.2 3.6,5 8.2,8.5 14,10.7 0.1,-0.7 0.2,-1.3 0.3,-2 -19.8,1.2 -39.6,2.5 -59.4,3.7 -1.3,0.2 -1.3,2.2 0,2.1 z"
   id="path1139" />
		</g>
	</g>
	
	
	
	<g
   id="g1205"
   style="stroke:#000000;stroke-opacity:1;stroke-width:0.3;stroke-dasharray:none">
		<g
   id="g1190"
   style="stroke:#000000;stroke-opacity:1;stroke-width:0.3;stroke-dasharray:none">
			<g
   id="g1189"
   style="stroke:#000000;stroke-opacity:1;stroke-width:0.3;stroke-dasharray:none">
				<path
   d="M559.8,43.5c-0.7,8.2-5,16.3-7,24.3c-2,8-3.4,16.1-4.9,24.2c1,0.1,2,0.3,2.9,0.4c0-0.5-0.1-0.9-0.1-1.4      c-0.2-1.9-3.2-1.9-3,0c0,0.5,0.1,0.9,0.1,1.4c0.1,1.5,2.6,2.2,2.9,0.4c1.5-8.7,3.1-17.4,5.3-26c2-7.7,6-15.4,6.7-23.4      C563,41.5,560,41.5,559.8,43.5L559.8,43.5z"
   id="path1188"
   style="stroke:#000000;stroke-opacity:1;stroke-width:0.3;stroke-dasharray:none" />
			</g>
		</g>
		<g
   id="g1192"
   style="stroke:#000000;stroke-opacity:1;stroke-width:0.3;stroke-dasharray:none">
			<g
   id="g1191"
   style="stroke:#000000;stroke-opacity:1;stroke-width:0.3;stroke-dasharray:none">
				<path
   d="M559.9,47.3c2.2,14.5,4.4,29,6.6,43.4c0.3,1.7,2.9,1.2,2.9-0.4c0.1-0.2,0.1-0.4,0.2-0.6c1-1.6-1.6-3.1-2.6-1.5      c-0.5,0.8-0.6,1.2-0.6,2.1c1-0.1,2-0.3,2.9-0.4c-2.2-14.5-4.4-29-6.6-43.4C562.5,44.6,559.6,45.4,559.9,47.3L559.9,47.3z"
   id="path1190"
   style="stroke:#000000;stroke-opacity:1;stroke-width:0.3;stroke-dasharray:none" />
			</g>
		</g>
		<g
   id="g1194"
   style="stroke:#000000;stroke-opacity:1;stroke-width:0.3;stroke-dasharray:none">
			<g
   id="g1193"
   style="stroke:#000000;stroke-opacity:1;stroke-width:0.3;stroke-dasharray:none">
				<path
   d="M553.3,76c4.6-1,9.3-1.5,14-1.5c1.9,0,1.9-3,0-3c-5,0-9.9,0.6-14.8,1.6C550.6,73.5,551.4,76.4,553.3,76L553.3,76z"
   id="path1192"
   style="stroke:#000000;stroke-opacity:1;stroke-width:0.3;stroke-dasharray:none" />
			</g>
		</g>
		<g
   id="g1196"
   style="stroke:#000000;stroke-opacity:1;stroke-width:0.3;stroke-dasharray:none">
			<g
   id="g1195"
   style="stroke:#000000;stroke-opacity:1;stroke-width:0.3;stroke-dasharray:none">
				<path
   d="M573.3,43.7c-0.1,16-0.2,32.1-0.3,48.1c0,1.9,3,1.9,3,0c0.1-16,0.2-32.1,0.3-48.1C576.3,41.8,573.3,41.8,573.3,43.7      L573.3,43.7z"
   id="path1194"
   style="stroke:#000000;stroke-opacity:1;stroke-width:0.3;stroke-dasharray:none" />
			</g>
		</g>
		<g
   id="g1198"
   style="stroke:#000000;stroke-opacity:1;stroke-width:0.3;stroke-dasharray:none">
			<g
   id="g1197"
   style="stroke:#000000;stroke-opacity:1;stroke-width:0.3;stroke-dasharray:none">
				<path
   d="M580.1,44.6c0.7,7.9,0.7,15.7,0.2,23.7c-0.5,7.8,1.3,15.4-0.3,23.1c-0.4,1.9,2.5,2.7,2.9,0.8c1.5-7.4-0.2-14.5,0.2-21.9      c0.5-8.6,0.7-17-0.1-25.6C582.9,42.7,579.9,42.7,580.1,44.6L580.1,44.6z"
   id="path1196"
   style="stroke:#000000;stroke-opacity:1;stroke-width:0.3;stroke-dasharray:none" />
			</g>
		</g>
		<g
   id="g1200"
   style="stroke:#000000;stroke-opacity:1;stroke-width:0.3;stroke-dasharray:none">
			<g
   id="g1199"
   style="stroke:#000000;stroke-opacity:1;stroke-width:0.3;stroke-dasharray:none">
				<path
   d="M586.3,78.5c5.7-0.2,14.8-2.7,13.6-10.3c-0.9-5.4-7.5-7-10.8-2.9c-4,4.9-4.6,15.1-2.2,20.7c2.5,5.8,9.5,7.5,14.8,4.7      c1.7-0.9,0.2-3.5-1.5-2.6c-3,1.6-6.6,1.3-9-1.2c-2.4-2.5-2.5-6.2-2.4-9.5c0.1-1.4,0.3-8.4,2-9.1c1.9,1.1,3.7,2.2,5.6,3.2      c-0.9,1.5-2.2,2.5-3.9,2.9c-1.9,0.8-4,1-6.1,1C584.4,75.6,584.4,78.6,586.3,78.5L586.3,78.5z"
   id="path1198"
   style="stroke:#000000;stroke-opacity:1;stroke-width:0.3;stroke-dasharray:none" />
			</g>
		</g>
		<g
   id="g1202"
   style="stroke:#000000;stroke-opacity:1;stroke-width:0.3;stroke-dasharray:none">
			<g
   id="g1201"
   style="stroke:#000000;stroke-opacity:1;stroke-width:0.3;stroke-dasharray:none">
				<path
   d="M606,41.9c-3,6.3-1.4,14.7-1.3,21.5c0.1,9.1,0.3,18.2,0.4,27.3c0,1.9,3,1.9,3,0c-0.1-7.8-0.2-15.6-0.3-23.4      c-0.1-3.9-0.1-7.8-0.2-11.7c-0.1-3.9-0.8-8.6,1-12.2C609.4,41.7,606.9,40.1,606,41.9L606,41.9z"
   id="path1200"
   style="stroke:#000000;stroke-opacity:1;stroke-width:0.3;stroke-dasharray:none" />
			</g>
		</g>
		<g
   id="g1204"
   style="stroke:#000000;stroke-opacity:1;stroke-width:0.3;stroke-dasharray:none">
			<g
   id="g1203"
   style="stroke:#000000;stroke-opacity:1;stroke-width:0.3;stroke-dasharray:none">
				<path
   d="M613.1,81.2c5.7-1.8,12.5-6.8,9.8-13.8c-2.1-5.5-8.4-4.8-10.5,0.2c-1.3,3.2-1.5,7.4-1.8,10.8c-0.4,3.4-0.3,7,1.6,9.9      c3,4.6,9.2,5.3,12.5,0.9c1.2-1.5-1.4-3-2.6-1.5c-4.1,5.5-8.4-2-8.7-5.3c-0.2-2.5,0.3-5,0.7-7.4c0.2-1,0.3-2.1,0.5-3.1      c0-3,1.9-3,5.6,0.2c0.3,3.3-5.6,5.6-7.9,6.3C610.5,78.9,611.3,81.8,613.1,81.2L613.1,81.2z"
   id="path1202"
   style="stroke:#000000;stroke-opacity:1;stroke-width:0.3;stroke-dasharray:none" />
			</g>
		</g>
	</g>
	
	
	
	
	
	
	
	
	
	
	
	
	
	
	
	
	
	
	
	
	
	
	
	
	
	
	
	
	
	
	
	
	
	
	
	
	
	
	
	
	
	
	
	
	
	
	
	
	
	
	
	
	
	
	
	
	
	<g
   id="g1699"
   style="stroke:#000000;stroke-opacity:1;stroke-width:0.6;stroke-dasharray:none">
		<g
   id="g1686"
   style="stroke:#000000;stroke-opacity:1;stroke-width:0.6;stroke-dasharray:none">
			<g
   id="g1685"
   style="stroke:#000000;stroke-opacity:1;stroke-width:0.6;stroke-dasharray:none">
				<path
   d="M661.4,56c1.1-4.8,0.9-13.8-6.3-12.8c-7.6,1.1-11.1,12-12.6,18.2c-2,8.1-3.8,18.6,1.4,25.9c5.3,7.4,12.6,3,17.9-1.8      c1.4-1.3-0.7-3.4-2.1-2.1c-2.5,2.3-6.8,6.7-10.9,4.5c-2.5-1.3-3.9-4.5-4.6-7.1c-1.4-5.2-0.5-11.1,0.6-16.3      c0.9-4.4,2.2-8.9,4.6-12.7c1.2-1.9,5.6-8.4,8.9-4.3c1.5,1.8,0.7,5.6,0.2,7.7C658.1,57.1,661,57.9,661.4,56L661.4,56z"
   id="path1684"
   style="stroke:#000000;stroke-opacity:1;stroke-width:0.6;stroke-dasharray:none" />
			</g>
		</g>
		<g
   id="g1688"
   style="stroke:#000000;stroke-opacity:1;stroke-width:0.6;stroke-dasharray:none">
			<g
   id="g1687"
   style="stroke:#000000;stroke-opacity:1;stroke-width:0.6;stroke-dasharray:none">
				<path
   d="M665.8,78.5c-1,4.9,0.5,13.4,7.3,12.4c5.9-0.9,8.8-9.3,8.6-14.4c-0.2-4.6-3.2-12.5-8.9-12.5c-7.1,0.1-9.1,11.6-9.5,16.8      c-0.1,1.8,2.7,1.8,2.8,0c0.2-3.6,1-7.3,2.8-10.5c3.3-5.7,8.3-1.5,9.5,3c0.8,3,0.6,6.1-0.5,8.9c-0.4,1.1-1.4,3.7-2.6,4.2      c-2.3-0.7-4.6-1.3-6.9-2c-0.4-1.8-0.4-3.5,0.1-5.3C668.8,77.5,666.1,76.7,665.8,78.5L665.8,78.5z"
   id="path1686"
   style="stroke:#000000;stroke-opacity:1;stroke-width:0.6;stroke-dasharray:none" />
			</g>
		</g>
		<g
   id="g1690"
   style="stroke:#000000;stroke-opacity:1;stroke-width:0.6;stroke-dasharray:none">
			<g
   id="g1689"
   style="stroke:#000000;stroke-opacity:1;stroke-width:0.6;stroke-dasharray:none">
				<path
   d="M685.6,64.6c-2,5.5-2.9,11.4-2.4,17.3c0.3,3.1,0.8,8,4.5,8.9c8.7,2.1,10.9-17.8,11.1-23c-0.9,0-1.9,0-2.8,0      c0.1,7.5,1.1,14.9,2.9,22.2c0.4,1.7,3.1,1,2.7-0.7c-1.7-7.1-2.6-14.2-2.8-21.5c0-1.8-2.7-1.8-2.8,0c0,2.1-3.4,24-8.8,19.3      c-1.9-1.7-1.4-7.9-1.3-10.4c0.2-3.9,1-7.6,2.4-11.3C688.9,63.6,686.2,62.9,685.6,64.6L685.6,64.6z"
   id="path1688"
   style="stroke:#000000;stroke-opacity:1;stroke-width:0.6;stroke-dasharray:none" />
			</g>
		</g>
		<g
   id="g1692"
   style="stroke:#000000;stroke-opacity:1;stroke-width:0.6;stroke-dasharray:none">
			<g
   id="g1691"
   style="stroke:#000000;stroke-opacity:1;stroke-width:0.6;stroke-dasharray:none">
				<path
   d="M703.1,65.6c0.4,8.3,0.7,16.7,1.1,25c0.9,0,1.9,0,2.8,0c-0.4-4.5-0.2-9,0.7-13.4c0.5-2.5,3.7-13,7.5-8.9      c1.5,1.5,1,9.2,1,11.2c0.1,3.5,0.1,7.1,0,10.6c-0.1,1.8,2.7,1.8,2.8,0c0.2-6.1,0.1-12.2-0.5-18.3c-0.3-2.7-0.3-7.5-4-7.6      c-3.6-0.1-6.8,4-8,6.9c-2.5,6.1-2.9,13-2.4,19.5c0.1,1.8,2.9,1.8,2.8,0c-0.4-8.3-0.7-16.7-1.1-25      C705.8,63.8,703,63.8,703.1,65.6L703.1,65.6z"
   id="path1690"
   style="stroke:#000000;stroke-opacity:1;stroke-width:0.6;stroke-dasharray:none" />
			</g>
		</g>
		<g
   id="g1694"
   style="stroke:#000000;stroke-opacity:1;stroke-width:0.6;stroke-dasharray:none">
			<g
   id="g1693"
   style="stroke:#000000;stroke-opacity:1;stroke-width:0.6;stroke-dasharray:none">
				<path
   d="M725.3,45.5c-0.3,6.5-0.6,13-0.6,19.4c-0.1,5.9-0.6,12.2,0.4,18c0.9,5.2,7.1,10.6,9.6,3.2c0.6-1.8-2.3-2.6-2.9-0.8      c-2.4,0.1-3.7-0.7-3.6-2.6c-0.2-0.9-0.3-1.8-0.3-2.7c-0.1-1.1-0.1-2.3-0.1-3.4c-0.1-3.6-0.1-7.1-0.1-10.7      c0.1-6.8,0.3-13.6,0.6-20.4C728.4,43.6,725.4,43.6,725.3,45.5L725.3,45.5z"
   id="path1692"
   style="stroke:#000000;stroke-opacity:1;stroke-width:0.6;stroke-dasharray:none" />
			</g>
		</g>
		<g
   id="g1696"
   style="stroke:#000000;stroke-opacity:1;stroke-width:0.6;stroke-dasharray:none">
			<g
   id="g1695"
   style="stroke:#000000;stroke-opacity:1;stroke-width:0.6;stroke-dasharray:none">
				<path
   d="M720.4,66.4c4.4-0.4,8.7-0.5,13,0c1.9,0.2,1.9-2.8,0-3c-4.4-0.4-8.7-0.4-13,0C718.5,63.6,718.5,66.6,720.4,66.4      L720.4,66.4z"
   id="path1694"
   style="stroke:#000000;stroke-opacity:1;stroke-width:0.6;stroke-dasharray:none" />
			</g>
		</g>
		<g
   id="g1698"
   style="stroke:#000000;stroke-opacity:1;stroke-width:0.6;stroke-dasharray:none">
			<g
   id="g1697"
   style="stroke:#000000;stroke-opacity:1;stroke-width:0.6;stroke-dasharray:none">
				<path
   d="M748.9,67.2c-4.1-4.4-11.7-1.1-11,5c0.3,3,2.7,5.3,5.2,6.7c2.2,1.2,4.9,1.4,6.1,3.9c2.9,5.8-9,8.2-9.2,1.1      c-0.1-1.8-2.8-1.8-2.8,0c0.2,6.1,9.7,10.3,13.9,5.4c2-2.3,1.5-6.5,0.1-9c-0.6-1-1.2-1.5-2.3-2c-1.7-0.9-3.5-0.9-5.2-2.1      c-0.8-0.8-1.6-1.5-2.5-2.3c-1.2-5.1,0.6-6.6,5.6-4.7C748.1,70.5,750.1,68.5,748.9,67.2L748.9,67.2z"
   id="path1696"
   style="stroke:#000000;stroke-opacity:1;stroke-width:0.6;stroke-dasharray:none" />
			</g>
		</g>
	</g>
	
	
	
	
	
	
	
	
	
	
	
	
	
	
	
	
	
	
	
	
	
	
	
	
	
	
	
	
	
	
	
	
</g>
</svg>
