<?xml version="1.0" encoding="UTF-8" standalone="no"?>
<!-- Generator: Adobe Illustrator 23.0.3, SVG Export Plug-In . SVG Version: 6.00 Build 0)  -->

<svg
   version="1.1"
   x="0px"
   y="0px"
   viewBox="0 0 372.9 623.6"
   style="enable-background:new 0 0 372.9 623.6;"
   xml:space="preserve"
   id="svg1770"
   sodipodi:docname="time-series_data_allele_freq_s&lt;0.svg"
   inkscape:version="1.3.2 (091e20e, 2023-11-25)"
   xmlns:inkscape="http://www.inkscape.org/namespaces/inkscape"
   xmlns:sodipodi="http://sodipodi.sourceforge.net/DTD/sodipodi-0.dtd"
   xmlns="http://www.w3.org/2000/svg"
   xmlns:svg="http://www.w3.org/2000/svg"><defs
   id="defs1770" /><sodipodi:namedview
   id="namedview1770"
   pagecolor="#ffffff"
   bordercolor="#000000"
   borderopacity="0.25"
   inkscape:showpageshadow="2"
   inkscape:pageopacity="0.0"
   inkscape:pagecheckerboard="0"
   inkscape:deskcolor="#d1d1d1"
   inkscape:zoom="0.82697818"
   inkscape:cx="96.73774"
   inkscape:cy="244.26279"
   inkscape:window-width="1312"
   inkscape:window-height="449"
   inkscape:window-x="62"
   inkscape:window-y="25"
   inkscape:window-maximized="0"
   inkscape:current-layer="Layer_2" />
<style
   type="text/css"
   id="style1">
	.st0{opacity:0.3;fill:#1F77B4;}
	.st1{opacity:0.3;fill:#FF7F0E;}
	.st2{opacity:0.3;fill:#2CA02C;}
	.st3{fill:#1F77B4;}
	.st4{fill:#2CA02C;}
	.st5{fill:#FF7F0E;}
	.st6{fill:#C1272D;}
	.st7{fill:#FCEE21;}
	.st8{fill:#0000FF;}
	.st9{fill:#8CC63F;}
	.st10{fill:none;stroke:#820303;stroke-width:2.0469;stroke-miterlimit:10;}
	.st11{opacity:0.3;}
</style>
<g
   id="Layer_2">
	
	
	
	
	
	
	
	
	
	
	
	
	
	
	<g
   id="g17">
		<g
   id="g16">
			<path
   class="st5"
   d="M91.4,242.8c5.6,6.4,9.6,13.6,16.2,19.1c5.9,4.9,12.4,8.8,18.7,13.1c2.8,1.9,5.8,5.3,8.9,6.5     c1.8,0.7,4,0.4,5.9,0.8c2.7,0.6,5.2,2.1,7.7,3.2c1.3,0.6,2.7,1,3.5,2.1c1,1.3,0.9,3.1,1.9,4.3c1.2,1.4,3.3,2.3,4.7,3.5     c1.5,1.3,2.9,2.8,4.2,4.3c3,3.6,5.4,7.8,6.9,12.3c1.5,4.4,1.5,9.1,2.5,13.6c1.3,5.9,4.9,10.4,10.4,12.9c2.7,1.2,5.6,2,8.5,2.5     c1.6,0.3,4.1,0.2,5.5,0.9c1.5,0.7,2.2,2.5,3.7,3.5c3.1,2,6.7,0.8,10.1,0.5c5.1-0.5,10.1,0.4,14.9,1.8c16.7,4.8,36.2,16.8,53,5.5     c2.8-1.9,0.2-6.4-2.6-4.5c-15.3,10.2-33.9-1.7-49-6c-3.6-1-7.3-1.8-11.1-2c-4.4-0.3-10.4,2-13.6-1.1c-2.4-2.4-3.4-2.5-6.8-3.1     c-3.3-0.5-6.6-1.1-9.7-2.4c-8.8-3.6-7.9-11.6-9.7-19.7c-1.6-7-5-13.6-9.8-19c-2.1-2.4-4.9-4.1-7.1-6.4c-1.6-1.8-1.9-4.6-3.8-6.2     c-1.5-1.3-4.6-2.1-6.5-3c-1.7-0.8-3.4-1.8-5.2-2.4c-3.4-1.1-6.1-0.5-9.1-2.8c-7.2-5.5-15.2-9.9-22.3-15.5     c-7.1-5.7-11.5-13.3-17.4-20.1C92.9,236.6,89.2,240.3,91.4,242.8L91.4,242.8z"
   id="path15" />
		</g>
	</g>
<g
   id="g1394"
   transform="matrix(1.4922959,0,0,1.4922959,-18.899805,44.818825)">
		<g
   class="st11"
   id="g1371"
   style="opacity:0.3">
			<g
   id="g1370">
				<path
   class="st5"
   d="m 228.9,185.7 c -3,-0.8 -5.8,-0.5 -8.6,0.8 -2.5,1.1 -6.1,2.9 -7.6,5.2 -2.8,4.2 1,9.4 4.7,11.2 4.5,2.2 11.4,2.3 15.7,-0.5 4.4,-2.9 5.7,-9.2 2.2,-13.3 -4.1,-4.9 -11.7,-1.6 -16.4,0.7 -4.6,2.2 -5.7,8.2 -0.4,10.6 3.9,1.8 12.1,1.3 14.6,-2.9 1.2,-2 0.7,-4.8 -1.3,-6.1 -2.4,-1.5 -5.5,-0.5 -7.7,0.8 -2.3,1.4 -2.4,6 0.8,6.5 1.4,0.2 2.4,0.3 3.8,-0.2 4.4,-1.5 2.5,-8.5 -1.9,-7 -0.3,0.1 -0.6,0.1 -0.9,0.2 0.6,2.2 1.2,4.4 1.8,6.6 0.4,-0.2 0.9,-0.3 1.3,-0.5 -0.7,-0.5 -1.4,-1.1 -2.1,-1.6 0.1,0.2 0.2,0.4 0.3,0.6 -0.1,-0.9 -0.2,-1.8 -0.4,-2.7 0.2,-0.8 -0.2,-0.9 -1.2,-0.2 -1,0.2 -1.9,0.3 -2.9,0.2 -1.5,2 -1.4,2.5 0.2,1.5 0.8,-0.3 1.6,-0.6 2.4,-0.9 0.9,-0.3 3.9,-1.8 4.7,-1 1.8,1.5 -1.6,3.5 -2.6,3.8 -1.9,0.6 -10.6,0.9 -9.8,-2.9 0.1,-0.7 3.7,-2.4 4.3,-2.7 2,-1 4,-1.5 6.3,-1.4 2.9,0.2 3.5,-4 0.7,-4.8 z"
   id="path1369"
   style="fill:#ff7f0e" />
			</g>
		</g>
		<g
   class="st11"
   id="g1373"
   style="opacity:0.3">
			<g
   id="g1372">
				<path
   class="st5"
   d="m 231.4,178.1 c -0.5,-0.7 -1.5,-0.8 -2.3,-0.6 -0.3,0.1 -0.6,0.2 -0.8,0.4 -0.2,0.1 -0.3,0.2 -0.5,0.4 -0.4,0.3 -0.2,0.2 0.7,-0.4 -0.9,0.2 -1.8,1.1 -2,2 -0.3,1.4 -0.3,2.8 0.5,4 0.9,1.3 2.4,2 3.9,1.8 1.6,-0.2 2.8,-1.5 3.1,-3.1 0.2,-1.2 0.1,-2.3 0,-3.5 -0.1,-1.8 -1.6,-3.3 -3.5,-3 -1.9,0.3 -2.9,2 -2.5,3.8 0,0.2 0.1,0.5 0.1,0.8 0,-0.3 0,-0.4 0,0 0,0.3 0,0.5 0.1,0.8 0,0.1 0,0.1 0,0.2 0,0.3 0,0.3 0,0 0,-0.4 0.3,-0.7 0.8,-0.9 0.4,-0.7 1,-1 1.8,-0.7 0.5,0.1 0.9,0.5 1.1,1 0.1,0.2 0,0.7 0.1,0.3 0,-0.2 0,-0.4 0,-0.7 0,-1 -0.6,-2 -1.4,-2.4 0,0 0,0 -0.1,0 0.3,0.3 0.6,0.6 1,1 0,0 0,-0.1 -0.1,-0.1 0.1,0.4 0.2,0.9 0.3,1.3 0,0 0,-0.3 0,-0.3 -0.1,0.2 -0.1,0.5 -0.2,0.7 0.2,-0.2 0.2,-0.5 0.3,-0.8 0.2,-1 0,-1.5 -0.4,-2 z"
   id="path1371"
   style="fill:#ff7f0e" />
			</g>
		</g>
		<g
   class="st11"
   id="g1375"
   style="opacity:0.3">
			<g
   id="g1374">
				<path
   class="st5"
   d="m 237.9,179.8 c -1.3,-0.2 -2.6,0.2 -3.9,0.7 -0.6,0.3 -1.3,0.5 -1.9,0.9 -1.2,0.7 -1.7,1.6 -1.8,2.9 -0.1,1.2 0.9,2.3 2,2.6 1.7,0.6 2.8,-0.6 4.2,-1.4 1,-0.6 2,-1.1 3,-1.9 0.7,-0.5 0.8,-1.8 0.5,-2.5 -0.4,-0.8 -1.1,-1.2 -2.1,-1.3 z"
   id="path1373"
   style="fill:#ff7f0e" />
			</g>
		</g>
		<g
   class="st11"
   id="g1377"
   style="opacity:0.3">
			<g
   id="g1376">
				<path
   class="st5"
   d="m 210.8,192 c -0.4,-1.4 -1.8,-2.1 -3.2,-1.8 -0.8,0.2 -1.7,1 -1.9,1.9 0,0 0,0 0,0.1 -0.2,1.1 0.1,2.5 1.3,3.1 0.5,0.2 0.9,0.4 1.5,0.4 0,0 0.1,0 0.1,0 1.1,-0.1 1,-0.1 -0.4,-0.1 1.6,0.3 3.2,-0.6 3.5,-2.3 0.2,-1.6 -1,-3.2 -2.7,-3.2 -0.4,0 -0.8,0.1 -1.2,0.2 0.5,0 1,0 1.5,0 -0.3,-0.1 -0.1,0 0.5,0.2 0.3,0.3 0.6,0.6 0.9,0.9 0,0 0,0 0,0 0.1,0.7 0.2,1.3 0.3,2 0,-0.4 -0.1,-1.1 -0.2,-1.4 z"
   id="path1375"
   style="fill:#ff7f0e" />
			</g>
		</g>
		<g
   id="g1379">
			<g
   id="g1378">
				<path
   d="m 235.6,189.1 c -7.2,-12 -33.4,2.8 -21.8,12.9 5.2,4.5 14.5,4.5 19.9,0.5 5.1,-3.8 5.8,-11.3 0.6,-15.2 -0.7,-0.6 -1.4,0.7 -0.7,1.2 6.3,4.8 1.7,12.7 -4.3,14.7 -4.1,1.3 -9.3,1 -13,-1.2 -12.9,-7.8 11.4,-23.2 18.1,-12.1 0.5,0.7 1.7,0 1.2,-0.8 z"
   id="path1377" />
			</g>
		</g>
		<g
   id="g1381">
			<g
   id="g1380">
				<path
   d="m 205,193.2 c -0.3,1.9 1.3,3.1 3.1,3 1.7,-0.1 4.4,-1.1 4.6,-3 0.2,-1.6 -1.2,-3.1 -2.7,-3.5 -2.2,-0.6 -4.3,1.1 -5.8,2.4 -0.7,0.6 0.3,1.6 1,1 1.4,-1.1 3.8,-3.1 5.5,-1.4 1.1,1.1 0.2,2.1 -1,2.6 -0.8,0.3 -3.7,1.2 -3.4,-0.7 0.3,-0.9 -1.1,-1.3 -1.3,-0.4 z"
   id="path1379" />
			</g>
		</g>
		<g
   id="g1383">
			<g
   id="g1382">
				<path
   d="m 232,186.2 c -2.6,-1.3 -6.2,-5.5 -3.3,-8.2 2.6,-2.4 4.2,1.2 3.9,3.4 -0.2,1.7 -1,3.3 -1.6,4.9 -0.3,0.9 1.1,1.2 1.4,0.4 1,-2.7 2.7,-5.9 1.2,-8.7 -1,-1.8 -3,-2.7 -4.9,-1.7 -5.2,2.6 -1.1,9.5 2.6,11.3 0.8,0.3 1.5,-1 0.7,-1.4 z"
   id="path1381" />
			</g>
		</g>
		<g
   id="g1385">
			<g
   id="g1384">
				<path
   d="m 232.2,185.8 c 0.7,-1.5 1.6,-3.1 2.8,-4.3 0.7,-0.7 1.6,-1.4 2.6,-1.5 1.5,-0.1 2.4,1 1.9,2.5 -1,3 -5.1,4.1 -7.8,3.1 -0.9,-0.3 -1.2,1.1 -0.4,1.4 2.2,0.8 4.6,0.5 6.6,-0.7 1.7,-1 3.7,-3.2 3.2,-5.4 -0.5,-2 -2.9,-2.7 -4.6,-2.2 -2.7,0.9 -4.4,3.9 -5.6,6.3 -0.4,0.9 0.9,1.6 1.3,0.8 z"
   id="path1383" />
			</g>
		</g>
		<g
   id="g1387">
			<g
   id="g1386">
				<path
   d="m 232.1,189.4 c -1.5,-0.6 -2,2.5 -0.1,2.2 0.4,-0.1 0.6,-0.5 0.5,-0.9 -0.1,-0.4 -0.5,-0.6 -0.9,-0.5 0.3,0 0.5,0.1 0.6,0.3 0,0 0,0 0,0 0,0.1 -0.1,0.2 -0.2,0.3 -0.1,0 -0.3,0 -0.4,0 0,0 0.1,0 0.1,0 0.4,0.1 0.8,-0.2 0.9,-0.5 0.1,-0.4 -0.2,-0.7 -0.5,-0.9 z"
   id="path1385" />
			</g>
		</g>
		<g
   id="g1389">
			<g
   id="g1388">
				<path
   d="m 225.7,195.7 c -0.6,3.8 3.9,5.7 6.7,3.3 0.8,-0.7 2.4,-2.7 1.4,-3.9 -0.6,-0.6 -1.8,-0.5 -2.6,-0.5 -1.4,-0.1 -2.8,-0.3 -4.2,-0.4 -0.9,-0.1 -0.9,1.4 0,1.4 1.2,0.1 2.4,0.2 3.6,0.3 0.4,0 1.2,0 1.6,0.1 0.5,-0.2 0.5,0 0.2,0.5 -0.1,0.2 -0.2,0.4 -0.4,0.6 -0.6,0.8 -1.6,1.5 -2.6,1.5 -1.3,0 -2.6,-1.3 -2.3,-2.7 0.1,-0.8 -1.3,-1.1 -1.4,-0.2 z"
   id="path1387" />
			</g>
		</g>
		<g
   id="g1391">
			<g
   id="g1390">
				<path
   d="m 232.6,189.7 c -0.2,0 -0.4,0 -0.6,0.1 -0.5,0.2 -0.8,1 -0.2,1.3 0.3,0.1 0.5,0.2 0.8,0.2 -0.2,-0.4 -0.4,-0.7 -0.6,-1.1 0,0.1 -0.1,0.1 -0.1,0.2 -0.3,0.5 0.1,1 0.6,1.1 0.3,0 0.6,-0.1 0.8,-0.3 0.5,-0.5 0.1,-1.2 -0.5,-1.2 -0.4,0 -0.7,0.2 -0.8,0.5 -0.3,0.6 0.3,1.4 1,1 0.3,-0.2 0.5,-0.5 0.5,-0.9 -0.1,-0.9 -1.5,-0.9 -1.4,0 0.1,-0.1 0.2,-0.2 0.2,-0.4 0.3,0.3 0.7,0.7 1,1 -0.1,0.1 -0.3,0.2 -0.4,0.2 -0.2,-0.4 -0.3,-0.8 -0.5,-1.2 0.1,0 0.1,-0.1 0.2,-0.1 0.2,0.4 0.4,0.7 0.6,1.1 0,-0.1 0.1,-0.1 0.1,-0.2 0.3,-0.5 -0.1,-1.1 -0.6,-1.1 0,0 0,0 0,0 -0.1,0.4 -0.1,0.9 -0.2,1.3 0.1,-0.1 0.1,-0.1 0.2,0 0.8,0 0.8,-1.5 -0.1,-1.5 z"
   id="path1389" />
			</g>
		</g>
		<g
   id="g1393">
			<g
   id="g1392">
				<path
   d="m 228.9,190.9 c -0.3,-0.6 -0.7,-1.1 -1.4,-1.1 -0.7,0 -1.5,0.5 -2.1,0.9 -0.8,0.5 -0.1,1.7 0.7,1.2 0.4,-0.2 0.7,-0.4 1.1,-0.6 0.3,-0.1 0.3,0 0.5,0.3 0.3,0.9 1.6,0.1 1.2,-0.7 z"
   id="path1391" />
			</g>
		</g>
	</g></g>
<g
   id="Layer_1">
	<g
   id="Слой_8">
	</g>
	<g
   id="Слой_16">
	</g>
	<g
   id="Time_scale">
	</g>
	<g
   id="Now_line">
	</g>
	<g
   id="Слой_10">
	</g>
	<g
   id="Слой_9">
	</g>
	
	
	
	
	
	
	
	
	
	
	
	
	
	
	
	
	
	
	
	
	
	
	
	
	
	
	
	
	
	
	
	
	
	
	
	
	
	
	
	
	
	
	
	
	
	
	
	
	
	
	
	
	
	
	
	
	
	
	
	
	
	
	
	
	
	
	
	
	
	
	
	
	
	
	
	
	
	
	
	
	
	
	
	
	
	
	
	
	
	
	
	
	
	
	
	
	
	
	
	
	
	
	
	
	
	
	
	
	
	
	
	
	
	
	
	
	
	
	
	
	
	
	
	
	
	
	
	
	
	
	
	
	
	
	
	
	
	
	
	
	
	<g
   id="g1737">
		<g
   id="g1736">
			<path
   d="M254.8,323.6c-3.3,2.1-6.6,4.1-9.9,6.2c-1,0.6-0.8,2.1,0.3,2.4c3.5,1.2,6.9,2.6,10.2,4.3c1.5,0.8,2.9-1.5,1.3-2.3     c-3.5-1.8-7.1-3.3-10.9-4.6c0.1,0.8,0.2,1.6,0.3,2.4c3.3-2.1,6.6-4.1,9.9-6.2C257.6,325,256.3,322.6,254.8,323.6L254.8,323.6z"
   id="path1735" />
		</g>
	</g>
	
	<g
   id="g1741">
		<g
   id="g1740">
			<path
   d="M260.5,329.4c0,4.8,2.4,12.9,8.6,12.3c6.5-0.6,7.7-9.6,7.3-14.6c-0.3-4.7-2.3-12.8-8.5-12.2c-6.8,0.7-6.7,9.3-7,14.3     c-0.1,1.9,2.9,1.9,3,0c0.2-2.5-0.1-5.6,1-7.9c1.8-4,6.7-1.9,7.7,1.5c0.5,1.6,0.7,3.4,0.8,5.1c0.1,2.2,0.1,7.4-1.8,8.8     c-2.1,0-4.1-0.1-6.2-0.1c-0.2-0.4-0.5-0.8-0.7-1.2c-1.1-1.6-1.2-4.1-1.2-6C263.5,327.4,260.5,327.4,260.5,329.4L260.5,329.4z"
   id="path1739" />
		</g>
	</g>
	<g
   id="g1743">
		<g
   id="g1742">
			<path
   d="M237.2,320.5c-1.6-7.8-11.4-6.5-13,0.7c-0.8,3.5,1.3,6.7,4.4,8.2c1.9,0.9,4,0.7,5.8,1.5c4.1,1.8,1.8,7.8-1.5,7.8     c-1.7,0-5.5,0-6-2.2c-0.4-1.9-3.3-1.1-2.9,0.8c1.1,5.8,13.5,6.3,15.8,1c1.1-2.6,0.1-6.9-2-8.9c-1.1-1-2.3-1.3-3.7-1.6     c-1.4-0.3-3.5-0.2-4.6-1.3c-0.6-2-1.2-4-1.8-6.1c1.3-2.9,3.6-2.6,6.6,0.8C234.7,323.2,237.6,322.4,237.2,320.5L237.2,320.5z"
   id="path1741" />
		</g>
	</g>
	
	
	
	
	
	
	
	
	
	
</g>
</svg>
