<?xml version="1.0" encoding="UTF-8" standalone="no"?>
<!-- Generator: Adobe Illustrator 23.0.3, SVG Export Plug-In . SVG Version: 6.00 Build 0)  -->

<svg
   version="1.1"
   x="0px"
   y="0px"
   viewBox="0 0 761.1 623.6"
   style="enable-background:new 0 0 761.1 623.6;"
   xml:space="preserve"
   id="svg1770"
   sodipodi:docname="time-series_data_data_1.svg"
   inkscape:version="1.3.2 (091e20e, 2023-11-25)"
   xmlns:inkscape="http://www.inkscape.org/namespaces/inkscape"
   xmlns:sodipodi="http://sodipodi.sourceforge.net/DTD/sodipodi-0.dtd"
   xmlns="http://www.w3.org/2000/svg"
   xmlns:svg="http://www.w3.org/2000/svg"><defs
   id="defs1770" /><sodipodi:namedview
   id="namedview1770"
   pagecolor="#ffffff"
   bordercolor="#000000"
   borderopacity="0.25"
   inkscape:showpageshadow="2"
   inkscape:pageopacity="0.0"
   inkscape:pagecheckerboard="0"
   inkscape:deskcolor="#d1d1d1"
   inkscape:zoom="0.77924644"
   inkscape:cx="392.68707"
   inkscape:cy="259.2248"
   inkscape:window-width="1384"
   inkscape:window-height="847"
   inkscape:window-x="62"
   inkscape:window-y="25"
   inkscape:window-maximized="1"
   inkscape:current-layer="Layer_1" />
<style
   type="text/css"
   id="style1">
	.st0{opacity:0.3;fill:#1F77B4;}
	.st1{opacity:0.3;fill:#FF7F0E;}
	.st2{opacity:0.3;fill:#2CA02C;}
	.st3{fill:#1F77B4;}
	.st4{fill:#2CA02C;}
	.st5{fill:#FF7F0E;}
	.st6{fill:#C1272D;}
	.st7{fill:#FCEE21;}
	.st8{fill:#0000FF;}
	.st9{fill:#8CC63F;}
	.st10{fill:none;stroke:#820303;stroke-width:2.0469;stroke-miterlimit:10;}
	.st11{opacity:0.3;}
</style>
<g
   id="Layer_2">
	
	
	
	
	
	
	
	
	
	
	
	
	
	
	
</g>
<g
   id="Layer_1">
	<g
   id="Слой_8">
	</g>
	<g
   id="Слой_16">
	</g>
	<g
   id="Time_scale">
	</g>
	<g
   id="Now_line">
	</g>
	<g
   id="Слой_10">
	</g>
	<g
   id="Слой_9">
	</g>
	
	
	
	
	
	
	
	
	
	
	
	
	
	
	
	
	
	
	
	
	
	
	
	
	
	
	
	
	
	
	<g
   id="g1005">
		<g
   id="g1004">
			<path
   d="M92.3,128.1c0.4,57,1.3,114,2,170.9c0.8,56.6-0.5,113.3-0.2,169.9c0.2,32.4,0.7,64.9,1.4,97.3c0,2.2,3.4,2.2,3.4,0     c-2.5-113.4-0.5-226.9-1.8-340.3c-0.4-32.6-1.2-65.2-1.4-97.9C95.7,126,92.3,125.9,92.3,128.1L92.3,128.1z"
   id="path1003" />
		</g>
	</g>
	<g
   id="g1018">
		<g
   id="g1007">
			<g
   id="g1006">
				<path
   d="M12.5,108.3c-2.1,11.8-2.1,23.6,0,35.4c0.3,1.9,3.2,1.1,2.9-0.8c-2-11.2-2-22.6,0-33.8      C15.7,107.3,12.8,106.4,12.5,108.3L12.5,108.3z"
   id="path1005" />
			</g>
		</g>
		<g
   id="g1009">
			<g
   id="g1008">
				<path
   d="M15.5,113c4.2-4.1,7.7,4.3,7.5,7.5c-0.3,4.3-4.5,8-8.7,5.7c-1.7-0.9-3.2,1.6-1.5,2.6c6.6,3.7,13.4-2.3,13.2-9.2      c-0.1-5.9-6.7-14.5-12.6-8.7C12,112.2,14.1,114.3,15.5,113L15.5,113z"
   id="path1007" />
			</g>
		</g>
		<g
   id="g1011">
			<g
   id="g1010">
				<path
   d="M43.5,125.1c-0.3-4.9-5.1-7.9-9.6-5.8c-5,2.3-9.6,10.1-9.4,15.6c0.2,5.1,4.8,8.2,9.6,6.3c6.6-2.6,7-10.8,7.2-16.8      c0.1-1.9-2.9-1.9-3,0c-0.5,6.6,0.6,12.8,3.3,18.9c0.8,1.8,3.4,0.2,2.6-1.5c-2.5-5.5-3.3-11.3-2.9-17.3c-1,0-2,0-3,0      c-0.1,3.2-0.2,6.4-1.3,9.4c-1.4,3.5-8.5,8.8-9.5,1c-0.3-2.6,1.4-5.6,2.7-7.7c0.9-1.4,1.9-3,3.2-4c2.3-1.9,6.9-2.7,7.1,1.9      C40.6,127.1,43.6,127.1,43.5,125.1L43.5,125.1z"
   id="path1009" />
			</g>
		</g>
		<g
   id="g1013">
			<g
   id="g1012">
				<path
   d="M59.1,122.4c-2.8-6-11.8-5.7-13.2,1.1c-0.6,3,0.3,6.5,2.8,8.4c1.2,0.9,2.7,1.3,4.2,1.5c0.8,0.1,2.1,0.1,2.8,0.5      c2.1,3.5,1.3,5.3-2.4,5.3c-1.2-0.2-2.4-0.4-3.5-0.8c-1.9-0.5-2.7,2.4-0.8,2.9c3.2,0.9,7,1.7,9.7-1c2-1.9,2.6-5.1,0.9-7.4      c-2.1-2.7-5.9-1.7-8.5-3.3c-2.2-1.3-3.1-4.9-1.6-7.1c2.1-3,5.9-1.3,7.1,1.3C57.3,125.7,59.9,124.2,59.1,122.4L59.1,122.4z"
   id="path1011" />
			</g>
		</g>
		<g
   id="g1015">
			<g
   id="g1014">
				<path
   d="M67.4,103.7c-1.7,10.5-2.1,21.2-0.6,31.7c0.7,4.8,4.4,12,10,7.3c1.5-1.3-0.7-3.4-2.1-2.1c-1.5,1.3-4.2-2-4.5-3.3      c-0.4-1.7-0.6-3.5-0.7-5.2c-0.3-2.9-0.5-5.8-0.5-8.7c-0.1-6.3,0.4-12.7,1.4-18.9C70.6,102.6,67.7,101.7,67.4,103.7L67.4,103.7z"
   id="path1013" />
			</g>
		</g>
		<g
   id="g1017">
			<g
   id="g1016">
				<path
   d="M61,126c4.6-1,9.1-1.1,13.7-0.3c1.9,0.3,2.7-2.6,0.8-2.9c-5.2-0.9-10.2-0.8-15.3,0.3C58.3,123.5,59.1,126.4,61,126      L61,126z"
   id="path1015" />
			</g>
		</g>
	</g>
	<g
   id="g1027">
		<g
   id="g1020">
			<g
   id="g1019">
				<path
   d="M15.5,540.2c0,11,0.1,22,0.1,33.1c0,1.9,3,1.9,3,0c0-11-0.1-22-0.1-33.1C18.5,538.3,15.5,538.3,15.5,540.2L15.5,540.2z"
   id="path1018" />
			</g>
		</g>
		<g
   id="g1022">
			<g
   id="g1021">
				<path
   d="M18,542.6c4.3,9.3,8.6,18.6,12.9,27.9c0.7,1.5,2.6,0.5,2.8-0.8c1.4-10.6,2.2-21.2,2.5-31.8c0-1.9-3-1.9-3,0      c-0.2,10.7-1,21.3-2.5,31.8c0.9-0.3,1.9-0.5,2.8-0.8c-4.3-9.3-8.6-18.6-12.9-27.9C19.8,539.3,17.2,540.9,18,542.6L18,542.6z"
   id="path1020" />
			</g>
		</g>
		<g
   id="g1024">
			<g
   id="g1023">
				<path
   d="M39.8,556.8c-0.9,5.2-1.6,12.8,4.3,15.3c5.9,2.5,11.7-2.9,13.4-8.2c1.9-5.6-0.2-13.3-6.3-15.2c-5.6-1.8-11,2.7-12.1,8      c-0.4,1.9,2.5,2.7,2.9,0.8c0.8-3.5,4-7,8-6.1c5.1,1.2,6.1,8,4.5,12.1c-1.4,3.6-5.5,7.8-9.6,5.5c-3.8-2.2-2.9-7.8-2.2-11.4      C43,555.7,40.1,554.9,39.8,556.8L39.8,556.8z"
   id="path1022" />
			</g>
		</g>
		<g
   id="g1026">
			<g
   id="g1025">
				<path
   d="M58.9,549.9c0.5,7.8,1.5,15.5,2.9,23.2c0.3,1.4,2.1,1.3,2.7,0.4c2.7-4,4.7-8.3,5.9-12.9c-1-0.1-2-0.3-2.9-0.4      c0.3,2.1,0.9,15.9,6.6,11.2c2.5-2,2.8-7.1,3.4-10c1-4.8,1.7-9.7,2-14.6c0.1-1.9-2.9-1.9-3,0c-0.4,5.3-1.1,10.5-2.3,15.6      c-0.2,0.8-1,6.6-2.7,5.6c-0.8-0.5-1-6.7-1.1-7.8c-0.2-1.6-2.5-2.2-2.9-0.4c-1.2,4.5-3,8.4-5.6,12.2c0.9,0.1,1.8,0.2,2.7,0.4      c-1.4-7.4-2.3-14.9-2.8-22.4C61.8,547.9,58.8,547.9,58.9,549.9L58.9,549.9z"
   id="path1024" />
			</g>
		</g>
	</g>
	
	
	
	
	
	
	
	
	
	
	
	
	
	
	
	
	
	
	
	
	
	
	
	
	
	
	
	
	<g
   id="g1160">
		<g
   id="g1143">
			<g
   id="g1142">
				<path
   d="M188.6,44.2c-0.5,15.7-0.1,31.4,1.2,47.1c0.1,1.7,2.4,2.5,3.4,0.9c0.2-0.3,0.4-0.6,0.5-0.9c1.2-2-1.9-3.8-3.1-1.8      c-0.2,0.3-0.4,0.6-0.5,0.9c1.1,0.3,2.2,0.6,3.4,0.9c-1.3-15.7-1.7-31.4-1.2-47.1C192.3,41.9,188.7,41.9,188.6,44.2L188.6,44.2z"
   id="path1141" />
			</g>
		</g>
		<g
   id="g1145">
			<g
   id="g1144">
				<path
   d="M175.5,44.5c4.4-0.6,8.8-0.9,13.2-0.8c3.3,0.1,11-0.5,13.3,2.3c1.5,1.8,4-0.8,2.5-2.5c-2.6-3.2-8.2-2.9-12-3.2      c-6-0.5-12-0.1-18,0.7C172.3,41.3,173.2,44.8,175.5,44.5L175.5,44.5z"
   id="path1143" />
			</g>
		</g>
		<g
   id="g1147">
			<g
   id="g1146">
				<path
   d="M211.9,61.8c-0.2,10-0.4,20-0.6,30.1c0,2.3,3.6,2.3,3.6,0c0.2-10,0.4-20,0.6-30.1C215.6,59.5,212,59.5,211.9,61.8      L211.9,61.8z"
   id="path1145" />
			</g>
		</g>
		<g
   id="g1149">
			<g
   id="g1148">
				<path
   d="M218.3,69.8c1-2,2.1-3.4,4.1-4.4c-0.9-0.5-1.8-1-2.7-1.6c1,9.3,0.9,18.6-0.3,28c-0.2,2,3.1,2.4,3.5,0.5      c0.1-0.5,0.2-1,0.3-1.4c0.5-2.3-2.9-3.2-3.5-1c-0.1,0.5-0.2,1-0.3,1.4c1.2,0.2,2.4,0.3,3.5,0.5c1.1-9.3,1.2-18.6,0.3-28      c-0.1-1.4-1.4-2.2-2.7-1.6c-2.5,1.4-4.1,3.2-5.4,5.7C214.2,70.1,217.3,71.9,218.3,69.8L218.3,69.8z"
   id="path1147" />
			</g>
		</g>
		<g
   id="g1151">
			<g
   id="g1150">
				<path
   d="M223.2,72.7c0.7-1.4,2.8-6.1,4.4-6.4c2.8-0.4,1.6,5.4,1.6,7c-0.1,5.2-0.2,10.5-0.3,15.7c0,2.3,3.6,2.3,3.6,0      c0.1-5.2,0.2-10.5,0.3-15.7c0.1-3,1.2-8.2-1.1-10.8c-4.3-4.8-10,5.4-11.5,8.3C219,72.9,222.1,74.8,223.2,72.7L223.2,72.7z"
   id="path1149" />
			</g>
		</g>
		<g
   id="g1153">
			<g
   id="g1152">
				<path
   d="M202.7,64.1c-0.3,5-0.7,10-1,14.9c-0.2,3.6-0.8,7.6,0.4,11.1c1.2,3.5,5.1,5.3,7,1.3c1-2.1-2.1-3.9-3.1-1.8      c0.1-0.2-1-5.6-0.9-6.9c0.1-2.2,0.3-4.3,0.4-6.5c0.3-4,0.5-8.1,0.8-12.1C206.5,61.8,202.9,61.8,202.7,64.1L202.7,64.1z"
   id="path1151" />
			</g>
		</g>
		<g
   id="g1155">
			<g
   id="g1154">
				<path
   d="M201.9,51.4c0,1.4,0,2.8,0,4.1c0,1.7,2.5,2.5,3.4,0.9c0.4-0.7,0.7-1.4,1.1-2.1c1.1-2-2-3.9-3.1-1.8      c-0.4,0.7-0.7,1.4-1.1,2.1c1.1,0.3,2.2,0.6,3.4,0.9c0-1.4,0-2.8,0-4.1C205.5,49.1,201.9,49.1,201.9,51.4L201.9,51.4z"
   id="path1153" />
			</g>
		</g>
		<g
   id="g1157">
			<g
   id="g1156">
				<path
   d="M241.2,81.1c6-0.9,11.8-5.7,9.4-12.4c-1.9-5.2-10-10-13.9-4.2c-6.4,9.5,3.4,36.6,16.5,25.1c1.7-1.5-0.8-4.1-2.5-2.5      c-3.7,3.3-8.2,0.2-10.1-3.4c-1.7-3.2-2-7.2-1.9-10.8c0-1.4-0.2-4.2,0.6-5.2c2.2-2.9,6.3-1.8,7.6,1.4c2.1,5.2-2,7.9-6.5,8.6      C238,78,239,81.5,241.2,81.1L241.2,81.1z"
   id="path1155" />
			</g>
		</g>
		<g
   id="g1159">
			<g
   id="g1158">
				<path
   d="M256.2,77.9c4.8,0.1,9.6,0.3,14.3,0.4c2.3,0.1,2.3-3.5,0-3.6c-4.8-0.1-9.6-0.3-14.3-0.4      C253.9,74.3,253.9,77.9,256.2,77.9L256.2,77.9z"
   id="path1157" />
			</g>
		</g>
	</g>
	<g
   id="g1173"
   style="stroke:#000000;stroke-opacity:1;stroke-width:0.4;stroke-dasharray:none">
		<g
   id="g1162"
   style="stroke:#000000;stroke-opacity:1;stroke-width:0.4;stroke-dasharray:none">
			<g
   id="g1161"
   style="stroke:#000000;stroke-opacity:1;stroke-width:0.4;stroke-dasharray:none">
				<path
   d="M385.7,46.4c0.8,14.6,1.5,29.2,2.3,43.8c1,0,2,0,3,0c-0.1-1-0.1-2-0.2-3.1c-0.1-1.9-3.1-1.9-3,0c0.1,1,0.1,2,0.2,3.1      c0.1,1.9,3.1,1.9,3,0c-0.8-14.6-1.5-29.2-2.3-43.8C388.6,44.4,385.6,44.4,385.7,46.4L385.7,46.4z"
   id="path1160"
   style="stroke:#000000;stroke-opacity:1;stroke-width:0.4;stroke-dasharray:none" />
			</g>
		</g>
		<g
   id="g1164"
   style="stroke:#000000;stroke-opacity:1;stroke-width:0.4;stroke-dasharray:none">
			<g
   id="g1163"
   style="stroke:#000000;stroke-opacity:1;stroke-width:0.4;stroke-dasharray:none">
				<path
   d="M388.7,48.2c7.4-8.6,15,16.1,15.9,21.1c0.9,4.9,0.7,10.8-3,14.6c-1.6,1.6-3.6,2.5-5.7,3.2c-0.4,0.1-3.8,1.2-4,1      c0.1,0.6,0.2,1.2,0.2,1.8c0.1-0.1,0.1-0.3,0.2-0.4c-0.8,0.1-1.6,0.2-2.4,0.3c0.1,0.1,0.2,0.1,0.2,0.2c1.5,1.2,3.6-0.9,2.1-2.1      c-0.1-0.1-0.2-0.1-0.2-0.2c-0.7-0.5-1.9-0.7-2.4,0.3c-0.1,0.1-0.1,0.3-0.2,0.4c-0.3,0.6-0.3,1.3,0.2,1.8      c2.6,2.8,10.3-1.3,12.7-3.1c5.1-4.1,6.2-10.8,5.3-16.9c-0.9-6.6-10.2-36.9-21.2-24.1C385.3,47.6,387.5,49.7,388.7,48.2      L388.7,48.2z"
   id="path1162"
   style="stroke:#000000;stroke-opacity:1;stroke-width:0.4;stroke-dasharray:none" />
			</g>
		</g>
		<g
   id="g1166"
   style="stroke:#000000;stroke-opacity:1;stroke-width:0.4;stroke-dasharray:none">
			<g
   id="g1165"
   style="stroke:#000000;stroke-opacity:1;stroke-width:0.4;stroke-dasharray:none">
				<path
   d="M425.1,66.3c-0.9-4.5-5.4-7.9-9.6-4.7c-5.3,4.1-6.1,14.9-4.9,20.9c1.1,5.4,5.8,9.3,10.8,5.3c6.5-5.2,5.5-15.9,5-23.2      c-0.1-1.9-3-1.9-3,0c0.2,8.2,0.3,16.4,0.5,24.6c0,1.9,3,1.9,3,0c-0.2-8.2-0.3-16.4-0.5-24.6c-1,0-2,0-3,0      c0.2,3.5,0.5,7.1,0.1,10.7c-0.3,3.7-4.4,17.1-9.5,8.1c-1.7-2.9-0.8-8.4-0.2-11.5c0.3-1.7,0.7-3.6,1.6-5.1c2-3.7,5.7-4.9,6.7,0.3      C422.6,69,425.4,68.2,425.1,66.3L425.1,66.3z"
   id="path1164"
   style="stroke:#000000;stroke-opacity:1;stroke-width:0.4;stroke-dasharray:none" />
			</g>
		</g>
		<g
   id="g1168"
   style="stroke:#000000;stroke-opacity:1;stroke-width:0.4;stroke-dasharray:none">
			<g
   id="g1167"
   style="stroke:#000000;stroke-opacity:1;stroke-width:0.4;stroke-dasharray:none">
				<path
   d="M434.5,41.5c-2.4,12.9-4,27-2,40.1c0.4,2.9,1.4,7.4,4.8,8.3c3.4,0.9,5.6-2,6.5-4.8c0.6-1.8-2.3-2.6-2.9-0.8      c-3,2.4-4.6,2.2-5-0.6c-0.1-0.4-0.2-0.9-0.3-1.3c-0.4-1.8-0.5-3.7-0.6-5.5c-0.2-3.7-0.3-7.4-0.2-11.1c0.2-7.9,1-15.7,2.5-23.4      C437.8,40.4,434.9,39.6,434.5,41.5L434.5,41.5z"
   id="path1166"
   style="stroke:#000000;stroke-opacity:1;stroke-width:0.4;stroke-dasharray:none" />
			</g>
		</g>
		<g
   id="g1170"
   style="stroke:#000000;stroke-opacity:1;stroke-width:0.4;stroke-dasharray:none">
			<g
   id="g1169"
   style="stroke:#000000;stroke-opacity:1;stroke-width:0.4;stroke-dasharray:none">
				<path
   d="M428.9,64.9c2.9,0,5.7,0,8.6,0c1.9,0,1.9-3,0-3c-2.9,0-5.7,0-8.6,0C427,61.9,427,64.9,428.9,64.9L428.9,64.9z"
   id="path1168"
   style="stroke:#000000;stroke-opacity:1;stroke-width:0.4;stroke-dasharray:none" />
			</g>
		</g>
		<g
   id="g1172"
   style="stroke:#000000;stroke-opacity:1;stroke-width:0.4;stroke-dasharray:none">
			<g
   id="g1171"
   style="stroke:#000000;stroke-opacity:1;stroke-width:0.4;stroke-dasharray:none">
				<path
   d="M457.8,69.1c-0.1-4.5-3.5-10.4-8.6-7c-5.7,3.8-6.5,15-5.4,21c0.9,4.9,4.8,8.9,9.7,5.6c6.4-4.3,5.7-15.1,5.7-21.7      c0-1.9-2.9-1.9-3,0c-0.3,7.7,1,15.3,4.6,22.2c0.9,1.7,3.5,0.2,2.6-1.5c-3.3-6.4-4.5-13.5-4.2-20.7c-1,0-2,0-3,0      c0,3.9,0.1,7.8-0.6,11.6c-0.6,3.4-4.2,12.2-8.3,5.6c-1.7-2.7-0.6-8.4-0.1-11.4c0.3-1.5,0.6-3,1.1-4.4c0.7-1.1,1.3-2.2,2-3.3      c3.5-0.8,5,0.5,4.5,4C454.9,71,457.9,71,457.8,69.1L457.8,69.1z"
   id="path1170"
   style="stroke:#000000;stroke-opacity:1;stroke-width:0.4;stroke-dasharray:none" />
			</g>
		</g>
	</g>
	<g
   id="g1188">
		<g
   id="g1175">
			<g
   id="g1174">
				<path
   d="M286,46.3c-1.7-3.6-5.5-6-9.4-4c-4.4,2.2-5.3,8.4-4.9,12.7c0.5,5,3,9.7,7.1,12.6c3.6,2.5,9.3,2.9,8.5,8.9      c-0.3,1.8-1.5,3.8-2.3,5.4c-0.5,1-1,2-1.6,2.9c-1.6,3.4-4.2,3.3-7.7-0.1c-0.1-2.3-3.7-2.3-3.6,0c0.2,4.8,4,8.7,9,6.9      c5.2-2,9-9.8,9.8-14.9c1-6.3-3.5-8.5-8.2-11c-3.6-1.9-6.2-5.1-7.2-9.1c-0.6-2.4-0.6-5.1,0.2-7.5c1.3-4,5.1-5.4,7.1-1      C283.8,50.2,287,48.4,286,46.3L286,46.3z"
   id="path1173" />
			</g>
		</g>
		<g
   id="g1177">
			<g
   id="g1176">
				<path
   d="M297,75.9c4.8-0.5,14.5-3.4,10.7-10.2c-3.1-5.7-10.6-3.1-13.3,1.5c-3.3,5.7-3,15.6,2,20.2c2.3,2.1,6.2,3.7,9.3,3.6      c0.9,0,1.7-0.1,2.5-0.7c0.5-0.3,1.8-2.8,1.5-2.8c2.3-0.3,2.3-3.9,0-3.6c-1.7,0.2-1.7,0.7-2.8,1.8c-0.2,0.4-0.4,0.8-0.6,1.2      c-1.1,0.4-2.2,0.4-3.2-0.1c-2.3-0.5-4.4-1.9-5.7-4c-1.8-3.2-1.9-8.3-0.8-11.8c0.5-1.6,2.8-5.8,5.2-5.1c2.5,3.3,2.2,5.2-1,5.6      c-1.3,0.4-2.6,0.6-4,0.8C294.7,72.6,294.7,76.2,297,75.9L297,75.9z"
   id="path1175" />
			</g>
		</g>
		<g
   id="g1179">
			<g
   id="g1178">
				<path
   d="M314.2,72.9c0.7-3.7,1.8-7.1,4.7-9.7c-1-0.3-2-0.5-3-0.8c1.7,6.2,7.6,6,9.1-0.2c0.6-2.2-2.8-3.2-3.5-1      c-1.5,5.2-2.6,10.6-3.4,16c-0.5,3.3-2.2,9.6-0.5,12.7c3.6,6.5,11.6-1.1,13.4-4.8c1-2.1-2.1-3.9-3.1-1.8      c-0.6,1.2-1.2,2.5-2.2,3.4c-1.2,1.2-4,1.7-5-0.2c-0.8-1.6,0.7-7.3,0.9-8.9c0.7-5.2,1.8-10.4,3.3-15.5c-1.2-0.3-2.3-0.6-3.5-1      c-0.7,0.1-1.4,0.1-2.2,0.2c-0.4-1.4-2-1.7-3-0.8c-3.3,3-4.9,7-5.6,11.3C310.3,74.3,313.8,75.2,314.2,72.9L314.2,72.9z"
   id="path1177" />
			</g>
		</g>
		<g
   id="g1181">
			<g
   id="g1180">
				<path
   d="M332.8,54.5c0.2,0,0.4,0,0.5,0c0.9,0,1.8-0.8,1.8-1.8c0-1-0.8-1.8-1.8-1.8c-0.2,0-0.4,0-0.5,0c-0.9,0-1.8,0.8-1.8,1.8      C331,53.7,331.7,54.5,332.8,54.5L332.8,54.5z"
   id="path1179" />
			</g>
		</g>
		<g
   id="g1183">
			<g
   id="g1182">
				<path
   d="M367.4,69.1c5.9-6.7-5.8-12.7-10.7-6.3c-2.3,3.1-0.9,7.7,1.3,10.4c1.6,1.9,4,2.8,5.7,4.5c1.6,1.7,2.4,4.2,1.8,6.5      c-1.4,5.6-5.9,3.8-6.9-0.7c-0.5-2.3-4-1.3-3.5,1c1.5,7.1,10.1,10.4,13.3,2.5c1.4-3.5,1.1-7.7-1.2-10.7c-1.2-1.5-2.8-2.5-4.3-3.6      c-1.3-0.9-3.7-2.7-3.7-4.6c0.7-1.4,1.3-2.7,2-4.1c1.7-0.9,2.9-0.1,3.5,2.5C363.3,68.3,365.9,70.9,367.4,69.1L367.4,69.1z"
   id="path1181" />
			</g>
		</g>
		<g
   id="g1185">
			<g
   id="g1184">
				<path
   d="M330.3,62.5c-0.4,5.1-0.7,10.2-1.1,15.3c-0.2,3.5-1.5,8.4-0.1,11.8c1.7,4.1,6.9,3.7,8.8,0.1c1.1-2-2-3.9-3.1-1.8      c-2.2-0.9-3-2.3-2.4-4.3c0-0.6,0.1-1.3,0.1-1.9c0.2-2.2,0.3-4.5,0.5-6.7c0.3-4.1,0.6-8.3,0.9-12.4      C334,60.2,330.4,60.2,330.3,62.5L330.3,62.5z"
   id="path1183" />
			</g>
		</g>
		<g
   id="g1187">
			<g
   id="g1186">
				<path
   d="M340.9,79.6c6.3,0,11.3-5,12.2-11.1c0.8-5.4-3.4-11.1-9-7.4c-9.9,6.7-8.4,34.7,7.3,30.3c2.2-0.6,1.3-4.1-1-3.5      c-9.9,2.7-9.6-12.4-7.8-17.9c0.5-1.5,0.9-3.6,2.1-4.6c2.6-2.2,5.2,0.7,4.4,3.6c-1.1,3.9-4.3,6.9-8.4,6.9      C338.6,76,338.6,79.6,340.9,79.6L340.9,79.6z"
   id="path1185" />
			</g>
		</g>
	</g>
	
	<g
   id="g1207">
		<g
   id="g1206">
			<path
   d="M87.2,568.4c2.8-0.2,5.6-0.4,8.5-0.7c1.9-0.2,1.9-3.2,0-3c-2.8,0.2-5.6,0.4-8.5,0.7C85.2,565.6,85.2,568.6,87.2,568.4     L87.2,568.4z"
   id="path1205" />
		</g>
	</g>
	
	
	
	
	
	
	
	
	
	
	
	
	
	
	
	
	
	
	
	
	
	
	
	
	
	
	
	
	
	
	
	
	
	
	
	
	
	
	
	
	
	
	
	
	
	
	
	
	
	
	
	
	
	
	
	
	
	
	
	
	
	
	
	
	
	
	
	
	
	
	
	
	
	
	
	
	
	
	
	
	
	
	
	
	
	
	
	
	
<g
   id="g1725"
   transform="rotate(90,133.18462,385.3269)">
		<g
   id="g1724">
			<path
   d="m 297.4,415.4 c 4.6,2.5 9.3,4.9 14,7.1 0.1,-0.9 0.2,-1.8 0.4,-2.7 -5.2,1.9 -10,5.2 -14.4,8.6 -1.5,1.2 0,3.8 1.5,2.6 4.2,-3.2 8.7,-6.4 13.7,-8.3 1.1,-0.4 1.6,-2.1 0.4,-2.7 -4.7,-2.2 -9.4,-4.6 -14,-7.1 -1.8,-1 -3.3,1.6 -1.6,2.5 z"
   id="path1723" />
		</g>
	</g></g>
</svg>
