<?xml version="1.0" encoding="UTF-8" standalone="no"?>
<!-- Generator: Adobe Illustrator 23.0.3, SVG Export Plug-In . SVG Version: 6.00 Build 0)  -->

<svg
   version="1.1"
   x="0px"
   y="0px"
   viewBox="0 0 761.1 623.6"
   style="enable-background:new 0 0 761.1 623.6;"
   xml:space="preserve"
   id="svg1770"
   sodipodi:docname="time-series_data_data_t0.svg"
   inkscape:version="1.3.2 (091e20e, 2023-11-25)"
   xmlns:inkscape="http://www.inkscape.org/namespaces/inkscape"
   xmlns:sodipodi="http://sodipodi.sourceforge.net/DTD/sodipodi-0.dtd"
   xmlns="http://www.w3.org/2000/svg"
   xmlns:svg="http://www.w3.org/2000/svg"><defs
   id="defs1770" /><sodipodi:namedview
   id="namedview1770"
   pagecolor="#ffffff"
   bordercolor="#000000"
   borderopacity="0.25"
   inkscape:showpageshadow="2"
   inkscape:pageopacity="0.0"
   inkscape:pagecheckerboard="0"
   inkscape:deskcolor="#d1d1d1"
   inkscape:zoom="0.77924644"
   inkscape:cx="392.68707"
   inkscape:cy="259.2248"
   inkscape:window-width="1384"
   inkscape:window-height="847"
   inkscape:window-x="62"
   inkscape:window-y="25"
   inkscape:window-maximized="1"
   inkscape:current-layer="Layer_1" />
<style
   type="text/css"
   id="style1">
	.st0{opacity:0.3;fill:#1F77B4;}
	.st1{opacity:0.3;fill:#FF7F0E;}
	.st2{opacity:0.3;fill:#2CA02C;}
	.st3{fill:#1F77B4;}
	.st4{fill:#2CA02C;}
	.st5{fill:#FF7F0E;}
	.st6{fill:#C1272D;}
	.st7{fill:#FCEE21;}
	.st8{fill:#0000FF;}
	.st9{fill:#8CC63F;}
	.st10{fill:none;stroke:#820303;stroke-width:2.0469;stroke-miterlimit:10;}
	.st11{opacity:0.3;}
</style>

<g
   id="Layer_1">
	<g
   id="Слой_8">
	</g>
	<g
   id="Слой_16">
	</g>
	<g
   id="Time_scale">
	</g>
	<g
   id="Now_line">
	</g>
	<g
   id="Слой_10">
	</g>
	<g
   id="Слой_9">
	</g>
	
	
	
	
	
	
	
	
	
	
	
	
	
	
	
	
	
	
	
	
	
	
	
	
	
	
	
	
	
	
	
	
	
	<g
   id="g1034">
		<g
   id="g1029">
			<g
   id="g1028">
				<path
   d="M50.7,180c-2.7,9.5-4.8,20-4.6,30c0.2,7,7,6.1,12.3,4.4c1.8-0.6,1-3.5-0.8-2.9c-3.7,1.2-7.5,2.1-8.5-2.5      c-0.6-2.6,0.4-6.8,0.7-9.5c0.7-6.4,2-12.6,3.8-18.8C54.1,178.9,51.2,178.2,50.7,180L50.7,180z"
   id="path1027" />
			</g>
		</g>
		<g
   id="g1031">
			<g
   id="g1030">
				<path
   d="M40.4,198.6c5.7-1.5,11.5-1.7,17.3-0.5c1.9,0.4,2.7-2.5,0.8-2.9c-6.3-1.3-12.6-1.1-18.9,0.5      C37.7,196.2,38.5,199.1,40.4,198.6L40.4,198.6z"
   id="path1029" />
			</g>
		</g>
		<g
   id="g1033">
			<g
   id="g1032">
				<path
   d="M63.2,205c-3,3.1-3.2,9.2-0.3,12.6c3.4,3.9,8.7,1.4,10.5-2.7c1.8-4.1,0.8-10.6-3.2-13.2c-4.7-3-9.2,1.7-10.3,6      c-0.5,1.9,2.4,2.7,2.9,0.8c0.7-2.6,3.3-6.4,6.2-3.9c2.2,1.9,2.7,5.8,1.9,8.4c-0.8,2.8-4.3,5.3-6.2,1.9c-1.3-2.2-1.1-5.9,0.7-7.7      C66.6,205.7,64.5,203.6,63.2,205L63.2,205z"
   id="path1031" />
			</g>
		</g>
	</g>
	
	
	<g
   id="g1050">
		<g
   id="g1049">
			<path
   d="M93.4,198.3c-2.3,0-4.5,0-6.8,0c-1.9,0-1.9,3,0,3c2.3,0,4.5,0,6.8,0C95.4,201.3,95.4,198.3,93.4,198.3L93.4,198.3z"
   id="path1048" />
		</g>
	</g>
	
	
	
	
	
	
	
	
	
	
	
	
	
	
	
	
	
	
	
	
	
	
	
	
	
	
	
	
	
	
	
	
	
	
	
	
	
	
	
	
	
	
	
	
	
	
	
	
	
	
	
	
	
	
	
	
	
	
	
	
	
	
	
	
	
	
	
	
	
	
	
	
	
	
	
	
	
	
	
	
	
	
	
	
	
	
	
	
	
	
	
	
	
	
	
	
	
	
	
	
	
	
	
	
	
	
	
	
	
	
	
	
	
	
	
	
	
	
</g>
</svg>
