<?xml version="1.0" encoding="utf-8"?>
<!-- Generator: Adobe Illustrator 23.0.3, SVG Export Plug-In . SVG Version: 6.00 Build 0)  -->
<svg version="1.1"
	 id="svg24089" inkscape:version="1.2.2 (1:1.2.2+202212051552+b0a8486541)" sodipodi:docname="mig_on.svg" xmlns:inkscape="http://www.inkscape.org/namespaces/inkscape" xmlns:sodipodi="http://sodipodi.sourceforge.net/DTD/sodipodi-0.dtd" xmlns:svg="http://www.w3.org/2000/svg"
	 xmlns="http://www.w3.org/2000/svg" xmlns:xlink="http://www.w3.org/1999/xlink" x="0px" y="0px" viewBox="0 0 610 250"
	 style="enable-background:new 0 0 610 250;" xml:space="preserve">
<style type="text/css">
	.st0{fill-rule:evenodd;clip-rule:evenodd;fill-opacity:0;}
	.st1{fill-rule:evenodd;clip-rule:evenodd;fill:#38761D;}
	.st2{fill:none;stroke:#000000;stroke-width:2;stroke-linejoin:round;stroke-miterlimit:10;}
	.st3{fill:none;}
</style>
<sodipodi:namedview  bordercolor="#000000" borderopacity="0.25" id="namedview24091" inkscape:current-layer="svg24089" inkscape:cx="259.42124" inkscape:cy="124.74901" inkscape:deskcolor="#d1d1d1" inkscape:pagecheckerboard="0" inkscape:pageopacity="0.0" inkscape:showpageshadow="2" inkscape:window-height="778" inkscape:window-maximized="1" inkscape:window-width="1221" inkscape:window-x="59" inkscape:window-y="22" inkscape:zoom="1.0581246" pagecolor="#ffffff" showgrid="false">
	</sodipodi:namedview>
<path id="path23485" class="st0" d="M38.4,262h300.4v369.4H38.4V262z"/>
<path id="path23551" class="st0" d="M64.6,305h259v36.2h-259V305z"/>
<path id="path23557" class="st0" d="M65,352.4h258.5v36.2H65V352.4z"/>
<path id="path23700" class="st0" d="M338.7,346.5h73.1"/>
<path id="path23704" class="st0" d="M411.8,347.3v-73.1"/>
<path id="path23766" class="st0" d="M59.1,323.1L59.1,323.1c0-4.4-3.5-7.9-7.9-7.9l0,0c-2.1,0-4.1,0.8-5.6,2.3
	c-1.5,1.5-2.3,3.5-2.3,5.6l0,0c0,4.4,3.5,7.9,7.9,7.9l0,0C55.5,331,59.1,327.4,59.1,323.1z"/>
<path id="path23784" class="st0" d="M59.1,370.5L59.1,370.5c0-4.4-3.5-7.9-7.9-7.9l0,0c-2.1,0-4.1,0.8-5.6,2.3
	c-1.5,1.5-2.3,3.5-2.3,5.6l0,0c0,4.4,3.5,7.9,7.9,7.9l0,0C55.5,378.4,59.1,374.8,59.1,370.5z"/>
<g id="PolyCollection_1" transform="matrix(1.7082137,0,0,1.7311798,-413.20483,-35.465825)">
</g>
<path id="path23678" class="st1" d="M581.2,23.6L581.2,23.6c0-3.5-2.8-6.4-6.4-6.4l0,0c-1.7,0-3.3,0.7-4.5,1.9
	c-1.2,1.2-1.9,2.8-1.9,4.5l0,0c0,3.5,2.8,6.4,6.4,6.4l0,0C578.4,30,581.2,27.1,581.2,23.6z"/>
<path id="path23680" class="st2" d="M581.2,23.6L581.2,23.6c0-3.5-2.8-6.4-6.4-6.4l0,0c-1.7,0-3.3,0.7-4.5,1.9
	c-1.2,1.2-1.9,2.8-1.9,4.5l0,0c0,3.5,2.8,6.4,6.4,6.4l0,0C578.4,30,581.2,27.1,581.2,23.6z"/>
<path class="st3" d=""/>
<path id="arrow1L" class="st3" d="M150.8,186.4l-2.5,2.5l8.8-2.5l-8.8-2.5L150.8,186.4z"/>
<path id="path128738" class="st3" d="M150.8,186.4"/>
<path class="st3" d=""/>
<path id="arrow1L-3" class="st3" d="M65.1,194.6l-2.5,2.5l8.8-2.5l-8.8-2.5L65.1,194.6z"/>
<path id="path128738-1" class="st3" d="M65.1,194.6"/>
</svg>
