<?xml version="1.0" encoding="utf-8"?>
<!-- Generator: Adobe Illustrator 23.0.3, SVG Export Plug-In . SVG Version: 6.00 Build 0)  -->
<svg version="1.1"
	 id="svg24089" inkscape:export-filename="model_2.png" inkscape:export-xdpi="200" inkscape:export-ydpi="200" inkscape:version="1.2.2 (1:1.2.2+202212051552+b0a8486541)" sodipodi:docname="model_2.svg" xmlns:inkscape="http://www.inkscape.org/namespaces/inkscape" xmlns:sodipodi="http://sodipodi.sourceforge.net/DTD/sodipodi-0.dtd" xmlns:svg="http://www.w3.org/2000/svg"
	 xmlns="http://www.w3.org/2000/svg" xmlns:xlink="http://www.w3.org/1999/xlink" x="0px" y="0px" viewBox="0 0 610 250"
	 style="enable-background:new 0 0 610 250;" xml:space="preserve">
<style type="text/css">
	.st0{fill-rule:evenodd;clip-rule:evenodd;fill-opacity:0;}
	.st1{fill:none;stroke:#000000;stroke-width:2;stroke-linejoin:round;stroke-miterlimit:10;}
	.st2{fill-rule:evenodd;clip-rule:evenodd;fill:#980000;}
	.st3{fill-rule:evenodd;clip-rule:evenodd;fill:#38761D;}
</style>
<sodipodi:namedview  bordercolor="#000000" borderopacity="0.25" id="namedview24091" inkscape:current-layer="svg24089" inkscape:cx="461.78492" inkscape:cy="108.22448" inkscape:deskcolor="#d1d1d1" inkscape:pagecheckerboard="0" inkscape:pageopacity="0.0" inkscape:showpageshadow="2" inkscape:window-height="778" inkscape:window-maximized="1" inkscape:window-width="1221" inkscape:window-x="59" inkscape:window-y="22" inkscape:zoom="1.2289271" pagecolor="#ffffff" showgrid="false">
	</sodipodi:namedview>
<path id="path23474" class="st0" d="M0,0h1165.2v636.3H0V0z"/>
<path id="path23485" class="st0" d="M38.4,262h300.4v369.4H38.4V262z"/>
<path id="path23491" class="st0" d="M342.5,8.2H601v230.4H342.5V8.2z"/>
<path id="path23493" class="st1" d="M342.5,8.2H601v230.4H342.5V8.2z"/>
<path id="path23495" d="M350.9,27.1V13.7h2.7l3.2,9.5c0.3,0.9,0.5,1.5,0.6,2c0.2-0.5,0.4-1.2,0.7-2.1l3.2-9.3h2.4v13.4h-1.7V15.9
	L358,27.1h-1.6l-3.9-11.4v11.4H350.9z M366.3,15.6v-1.9h1.6v1.9H366.3z M366.3,27.1v-9.7h1.6v9.7H366.3z M370.1,27.9l1.6,0.2
	c0.1,0.5,0.3,0.9,0.6,1.1c0.4,0.3,1,0.5,1.7,0.5c0.8,0,1.3-0.2,1.8-0.5c0.4-0.3,0.7-0.7,0.8-1.3c0.1-0.3,0.1-1,0.1-2.1
	c-0.7,0.8-1.6,1.3-2.7,1.3c-1.3,0-2.4-0.5-3.1-1.4c-0.7-1-1.1-2.1-1.1-3.5c0-0.9,0.2-1.8,0.5-2.6c0.3-0.8,0.8-1.4,1.5-1.8
	c0.6-0.4,1.4-0.6,2.2-0.6c1.1,0,2.1,0.5,2.8,1.4v-1.2h1.5v8.4c0,1.5-0.2,2.6-0.5,3.2c-0.3,0.6-0.8,1.1-1.5,1.5
	c-0.7,0.4-1.5,0.5-2.5,0.5c-1.1,0-2.1-0.3-2.8-0.8C370.4,29.7,370.1,28.9,370.1,27.9z M371.5,22.1c0,1.3,0.2,2.2,0.8,2.8
	c0.5,0.6,1.1,0.9,1.9,0.9c0.8,0,1.4-0.3,1.9-0.9c0.5-0.6,0.8-1.5,0.8-2.7c0-1.2-0.3-2.1-0.8-2.7c-0.5-0.6-1.2-0.9-1.9-0.9
	c-0.7,0-1.3,0.3-1.9,0.9C371.7,20,371.5,20.9,371.5,22.1z M380.8,27.1v-9.7h1.5v1.5c0.4-0.7,0.7-1.1,1-1.4c0.3-0.2,0.7-0.3,1.1-0.3
	c0.6,0,1.1,0.2,1.7,0.5l-0.6,1.5c-0.4-0.2-0.8-0.4-1.2-0.4c-0.4,0-0.7,0.1-1,0.3c-0.3,0.2-0.5,0.5-0.6,0.9c-0.2,0.6-0.3,1.2-0.3,1.9
	v5.1H380.8z M393.3,25.9c-0.6,0.5-1.2,0.9-1.8,1.1c-0.6,0.2-1.2,0.3-1.8,0.3c-1.1,0-1.9-0.3-2.5-0.8c-0.6-0.5-0.9-1.2-0.9-2
	c0-0.5,0.1-0.9,0.3-1.3c0.2-0.4,0.5-0.7,0.8-0.9c0.4-0.2,0.8-0.4,1.2-0.5c0.3-0.1,0.8-0.2,1.5-0.2c1.3-0.2,2.3-0.3,2.9-0.6
	c0-0.2,0-0.4,0-0.4c0-0.7-0.2-1.1-0.5-1.4c-0.4-0.4-1-0.5-1.9-0.5c-0.8,0-1.3,0.1-1.7,0.4c-0.4,0.3-0.6,0.7-0.8,1.4l-1.6-0.2
	c0.1-0.7,0.4-1.2,0.7-1.6c0.3-0.4,0.8-0.8,1.5-1c0.6-0.2,1.4-0.3,2.2-0.3c0.8,0,1.5,0.1,2,0.3c0.5,0.2,0.9,0.4,1.1,0.7
	c0.2,0.3,0.4,0.7,0.5,1.1c0.1,0.3,0.1,0.8,0.1,1.5V23c0,1.5,0,2.5,0.1,2.9c0.1,0.4,0.2,0.8,0.4,1.2h-1.7
	C393.5,26.7,393.3,26.3,393.3,25.9L393.3,25.9z M393.2,22.2c-0.6,0.2-1.5,0.5-2.7,0.6c-0.7,0.1-1.2,0.2-1.4,0.3
	c-0.3,0.1-0.5,0.3-0.7,0.5c-0.1,0.2-0.2,0.5-0.2,0.8c0,0.4,0.2,0.8,0.5,1.1c0.3,0.3,0.8,0.4,1.5,0.4c0.6,0,1.2-0.1,1.7-0.4
	c0.5-0.3,0.9-0.7,1.1-1.1c0.2-0.4,0.3-0.9,0.3-1.6V22.2z M400.9,25.6l0.2,1.5c-0.5,0.1-0.9,0.1-1.2,0.1c-0.6,0-1.1-0.1-1.4-0.3
	c-0.3-0.2-0.6-0.4-0.7-0.7c-0.1-0.3-0.2-1-0.2-1.9v-5.6h-1.2v-1.3h1.2V15l1.6-1v3.4h1.7v1.3h-1.7v5.7c0,0.5,0,0.8,0.1,0.9
	c0.1,0.1,0.2,0.2,0.3,0.3c0.1,0.1,0.3,0.1,0.6,0.1C400.4,25.7,400.6,25.7,400.9,25.6L400.9,25.6z M402.6,15.6v-1.9h1.6v1.9H402.6z
	 M402.6,27.1v-9.7h1.6v9.7H402.6z M406.1,22.2c0-1.8,0.5-3.1,1.5-4c0.8-0.7,1.8-1.1,3-1.1c1.3,0,2.4,0.4,3.3,1.3
	c0.8,0.9,1.3,2.1,1.3,3.6c0,1.2-0.2,2.2-0.6,2.9c-0.4,0.7-0.9,1.3-1.6,1.7c-0.7,0.4-1.5,0.6-2.3,0.6c-1.4,0-2.4-0.4-3.3-1.3
	C406.5,25.1,406.1,23.9,406.1,22.2z M407.8,22.2c0,1.2,0.3,2.2,0.8,2.8c0.5,0.6,1.2,0.9,2,0.9c0.8,0,1.5-0.3,2-0.9
	c0.5-0.6,0.8-1.6,0.8-2.8c0-1.2-0.3-2.1-0.8-2.7c-0.5-0.6-1.2-0.9-2-0.9c-0.8,0-1.5,0.3-2,0.9C408,20.1,407.8,21,407.8,22.2z
	 M417.1,27.1v-9.7h1.5v1.4c0.7-1.1,1.7-1.6,3.1-1.6c0.6,0,1.1,0.1,1.6,0.3c0.5,0.2,0.9,0.5,1.1,0.8c0.2,0.3,0.4,0.7,0.5,1.2
	c0.1,0.3,0.1,0.8,0.1,1.6v6h-1.6v-5.9c0-0.7-0.1-1.2-0.2-1.5c-0.1-0.3-0.3-0.6-0.7-0.8c-0.3-0.2-0.7-0.3-1.1-0.3
	c-0.7,0-1.3,0.2-1.8,0.7c-0.5,0.4-0.8,1.3-0.8,2.5v5.3H417.1z"/>
<path id="path23497" d="M350.3,47.8l1.7-0.1c0.1,0.7,0.3,1.2,0.5,1.6c0.3,0.4,0.7,0.8,1.3,1c0.6,0.3,1.3,0.4,2.1,0.4
	c0.7,0,1.3-0.1,1.8-0.3c0.5-0.2,0.9-0.5,1.2-0.8c0.2-0.4,0.4-0.7,0.4-1.2c0-0.4-0.1-0.8-0.4-1.1c-0.2-0.3-0.6-0.6-1.2-0.8
	c-0.4-0.1-1.2-0.3-2.4-0.6c-1.2-0.3-2.1-0.6-2.6-0.8c-0.6-0.3-1.1-0.7-1.4-1.2c-0.3-0.5-0.5-1.1-0.5-1.7c0-0.7,0.2-1.3,0.6-1.9
	c0.4-0.6,0.9-1,1.7-1.3c0.7-0.3,1.6-0.5,2.5-0.5c1,0,1.9,0.2,2.6,0.5c0.8,0.3,1.3,0.8,1.8,1.4c0.4,0.6,0.6,1.3,0.7,2.1l-1.7,0.1
	c-0.1-0.8-0.4-1.5-0.9-1.9c-0.5-0.4-1.3-0.7-2.3-0.7c-1.1,0-1.9,0.2-2.3,0.6c-0.5,0.4-0.7,0.9-0.7,1.4c0,0.5,0.2,0.9,0.5,1.2
	c0.3,0.3,1.2,0.6,2.7,1c1.4,0.3,2.4,0.6,3,0.8c0.8,0.4,1.4,0.8,1.7,1.4c0.4,0.6,0.6,1.2,0.6,1.9c0,0.7-0.2,1.4-0.6,2
	c-0.4,0.6-1,1.1-1.8,1.5c-0.8,0.3-1.6,0.5-2.6,0.5c-1.2,0-2.2-0.2-3-0.5c-0.8-0.4-1.5-0.9-1.9-1.6C350.6,49.5,350.4,48.7,350.3,47.8
	z M363.1,55.8l-0.2-1.5c0.4,0.1,0.7,0.1,0.9,0.1c0.4,0,0.7-0.1,0.9-0.2c0.2-0.1,0.4-0.3,0.5-0.5c0.1-0.2,0.3-0.6,0.5-1.2
	c0-0.1,0.1-0.2,0.1-0.4l-3.7-9.7h1.8l2,5.6c0.3,0.7,0.5,1.5,0.7,2.2c0.2-0.8,0.4-1.5,0.7-2.2l2.1-5.6h1.6l-3.7,9.8
	c-0.4,1.1-0.7,1.8-0.9,2.2c-0.3,0.5-0.6,0.9-1,1.2c-0.4,0.2-0.8,0.4-1.3,0.4C363.8,56,363.5,55.9,363.1,55.8z M372.5,52.1v-9.7h1.5
	v1.4c0.3-0.5,0.7-0.9,1.2-1.1c0.5-0.3,1.1-0.4,1.7-0.4c0.7,0,1.3,0.2,1.8,0.5c0.5,0.3,0.8,0.7,1,1.2c0.8-1.1,1.8-1.7,3-1.7
	c1,0,1.7,0.3,2.2,0.8c0.5,0.5,0.8,1.3,0.8,2.5v6.6H384V46c0-0.7-0.1-1.1-0.2-1.4c-0.1-0.3-0.3-0.5-0.6-0.7c-0.3-0.2-0.6-0.3-1-0.3
	c-0.7,0-1.2,0.2-1.7,0.7c-0.4,0.4-0.7,1.2-0.7,2.2v5.6h-1.6v-6.3c0-0.7-0.1-1.3-0.4-1.6c-0.3-0.4-0.7-0.5-1.3-0.5
	c-0.5,0-0.9,0.1-1.3,0.4c-0.4,0.2-0.7,0.6-0.9,1.1c-0.2,0.5-0.2,1.1-0.2,2v5H372.5z M388,52.1v-9.7h1.5v1.4c0.3-0.5,0.7-0.9,1.2-1.1
	c0.5-0.3,1.1-0.4,1.7-0.4c0.7,0,1.3,0.2,1.8,0.5c0.5,0.3,0.8,0.7,1,1.2c0.8-1.1,1.8-1.7,3-1.7c1,0,1.7,0.3,2.2,0.8
	c0.5,0.5,0.8,1.3,0.8,2.5v6.6h-1.6V46c0-0.7-0.1-1.1-0.2-1.4c-0.1-0.3-0.3-0.5-0.6-0.7c-0.3-0.2-0.6-0.3-1-0.3
	c-0.7,0-1.2,0.2-1.7,0.7c-0.4,0.4-0.7,1.2-0.7,2.2v5.6h-1.6v-6.3c0-0.7-0.1-1.3-0.4-1.6c-0.3-0.4-0.7-0.5-1.3-0.5
	c-0.5,0-0.9,0.1-1.3,0.4c-0.4,0.2-0.7,0.6-0.9,1.1c-0.2,0.5-0.2,1.1-0.2,2v5H388z M410.2,49l1.7,0.2c-0.3,1-0.8,1.8-1.5,2.3
	c-0.7,0.5-1.6,0.8-2.8,0.8c-1.4,0-2.5-0.4-3.4-1.3c-0.8-0.9-1.2-2.1-1.2-3.7c0-1.6,0.4-2.9,1.2-3.8c0.8-0.9,1.9-1.3,3.3-1.3
	c1.3,0,2.3,0.4,3.2,1.3c0.8,0.9,1.2,2.1,1.2,3.7c0,0.1,0,0.2,0,0.4h-7.2c0.1,1.1,0.4,1.9,0.9,2.5c0.5,0.6,1.2,0.8,2,0.8
	c0.6,0,1.1-0.2,1.5-0.5C409.6,50.2,409.9,49.7,410.2,49z M404.8,46.3h5.4c-0.1-0.8-0.3-1.4-0.6-1.8c-0.5-0.6-1.2-1-2-1
	c-0.8,0-1.4,0.3-1.9,0.8C405.1,44.8,404.9,45.5,404.8,46.3z M417.5,50.6l0.2,1.5c-0.5,0.1-0.9,0.1-1.2,0.1c-0.6,0-1.1-0.1-1.4-0.3
	c-0.3-0.2-0.6-0.4-0.7-0.7c-0.1-0.3-0.2-1-0.2-1.9v-5.6H413v-1.3h1.2V40l1.6-1v3.4h1.7v1.3h-1.7v5.7c0,0.5,0,0.8,0.1,0.9
	c0.1,0.1,0.2,0.2,0.3,0.3c0.1,0.1,0.3,0.1,0.6,0.1C417,50.7,417.2,50.7,417.5,50.6L417.5,50.6z M419.1,52.1v-9.7h1.5v1.5
	c0.4-0.7,0.7-1.1,1-1.4c0.3-0.2,0.7-0.3,1.1-0.3c0.6,0,1.1,0.2,1.7,0.5l-0.6,1.5c-0.4-0.2-0.8-0.4-1.2-0.4c-0.4,0-0.7,0.1-1,0.3
	c-0.3,0.2-0.5,0.5-0.6,0.9c-0.2,0.6-0.3,1.2-0.3,1.9v5.1H419.1z M425.3,40.6v-1.9h1.6v1.9H425.3z M425.3,52.1v-9.7h1.6v9.7H425.3z
	 M435.8,48.5l1.6,0.2c-0.2,1.1-0.6,2-1.4,2.6c-0.7,0.6-1.6,0.9-2.7,0.9c-1.3,0-2.4-0.4-3.2-1.3c-0.8-0.9-1.2-2.1-1.2-3.7
	c0-1.1,0.2-2,0.5-2.8c0.3-0.8,0.9-1.4,1.6-1.8c0.7-0.4,1.5-0.6,2.3-0.6c1.1,0,1.9,0.3,2.6,0.8c0.7,0.5,1.1,1.3,1.3,2.3l-1.6,0.2
	c-0.2-0.6-0.4-1.1-0.8-1.5c-0.4-0.3-0.8-0.5-1.4-0.5c-0.8,0-1.5,0.3-2,0.9c-0.5,0.6-0.8,1.5-0.8,2.8c0,1.3,0.2,2.2,0.8,2.8
	c0.5,0.6,1.2,0.9,2,0.9c0.6,0,1.2-0.2,1.6-0.6C435.4,50,435.7,49.4,435.8,48.5z M444,52.1v-9.7h1.5v1.4c0.3-0.5,0.7-0.9,1.2-1.1
	c0.5-0.3,1.1-0.4,1.7-0.4c0.7,0,1.3,0.2,1.8,0.5c0.5,0.3,0.8,0.7,1,1.2c0.8-1.1,1.8-1.7,3-1.7c1,0,1.7,0.3,2.2,0.8
	c0.5,0.5,0.8,1.3,0.8,2.5v6.6h-1.6V46c0-0.7-0.1-1.1-0.2-1.4c-0.1-0.3-0.3-0.5-0.6-0.7c-0.3-0.2-0.6-0.3-1-0.3
	c-0.7,0-1.2,0.2-1.7,0.7c-0.4,0.4-0.7,1.2-0.7,2.2v5.6h-1.6v-6.3c0-0.7-0.1-1.3-0.4-1.6c-0.3-0.4-0.7-0.5-1.3-0.5
	c-0.5,0-0.9,0.1-1.3,0.4c-0.4,0.2-0.7,0.6-0.9,1.1c-0.2,0.5-0.2,1.1-0.2,2v5H444z M459.5,40.6v-1.9h1.6v1.9H459.5z M459.5,52.1v-9.7
	h1.6v9.7H459.5z M463.4,52.9l1.6,0.2c0.1,0.5,0.3,0.9,0.6,1.1c0.4,0.3,1,0.5,1.7,0.5c0.8,0,1.3-0.2,1.8-0.5c0.4-0.3,0.7-0.7,0.8-1.3
	c0.1-0.3,0.1-1,0.1-2.1c-0.7,0.8-1.6,1.3-2.7,1.3c-1.3,0-2.4-0.5-3.1-1.4c-0.7-1-1.1-2.1-1.1-3.5c0-0.9,0.2-1.8,0.5-2.6
	c0.3-0.8,0.8-1.4,1.5-1.8c0.6-0.4,1.4-0.6,2.2-0.6c1.1,0,2.1,0.5,2.8,1.4v-1.2h1.5v8.4c0,1.5-0.2,2.6-0.5,3.2
	c-0.3,0.6-0.8,1.1-1.5,1.5c-0.7,0.4-1.5,0.5-2.5,0.5c-1.1,0-2.1-0.3-2.8-0.8C463.7,54.7,463.4,53.9,463.4,52.9z M464.7,47.1
	c0,1.3,0.2,2.2,0.8,2.8c0.5,0.6,1.1,0.9,1.9,0.9c0.8,0,1.4-0.3,1.9-0.9c0.5-0.6,0.8-1.5,0.8-2.7c0-1.2-0.3-2.1-0.8-2.7
	c-0.5-0.6-1.2-0.9-1.9-0.9c-0.7,0-1.3,0.3-1.9,0.9C465,45,464.7,45.9,464.7,47.1z M474,52.1v-9.7h1.5v1.5c0.4-0.7,0.7-1.1,1-1.4
	c0.3-0.2,0.7-0.3,1.1-0.3c0.6,0,1.1,0.2,1.7,0.5l-0.6,1.5c-0.4-0.2-0.8-0.4-1.2-0.4c-0.4,0-0.7,0.1-1,0.3c-0.3,0.2-0.5,0.5-0.6,0.9
	c-0.2,0.6-0.3,1.2-0.3,1.9v5.1H474z M486.6,50.9c-0.6,0.5-1.2,0.9-1.8,1.1c-0.6,0.2-1.2,0.3-1.8,0.3c-1.1,0-1.9-0.3-2.5-0.8
	c-0.6-0.5-0.9-1.2-0.9-2c0-0.5,0.1-0.9,0.3-1.3c0.2-0.4,0.5-0.7,0.8-0.9c0.4-0.2,0.8-0.4,1.2-0.5c0.3-0.1,0.8-0.2,1.5-0.2
	c1.3-0.2,2.3-0.3,2.9-0.6c0-0.2,0-0.4,0-0.4c0-0.7-0.2-1.1-0.5-1.4c-0.4-0.4-1-0.5-1.9-0.5c-0.8,0-1.3,0.1-1.7,0.4
	c-0.4,0.3-0.6,0.7-0.8,1.4l-1.6-0.2c0.1-0.7,0.4-1.2,0.7-1.6c0.3-0.4,0.8-0.8,1.5-1c0.6-0.2,1.4-0.3,2.2-0.3c0.8,0,1.5,0.1,2,0.3
	c0.5,0.2,0.9,0.4,1.1,0.7c0.2,0.3,0.4,0.7,0.5,1.1c0.1,0.3,0.1,0.8,0.1,1.5V48c0,1.5,0,2.5,0.1,2.9c0.1,0.4,0.2,0.8,0.4,1.2h-1.7
	C486.7,51.7,486.6,51.3,486.6,50.9L486.6,50.9z M486.4,47.2c-0.6,0.2-1.5,0.5-2.7,0.6c-0.7,0.1-1.2,0.2-1.4,0.3
	c-0.3,0.1-0.5,0.3-0.7,0.5c-0.1,0.2-0.2,0.5-0.2,0.8c0,0.4,0.2,0.8,0.5,1.1c0.3,0.3,0.8,0.4,1.5,0.4c0.6,0,1.2-0.1,1.7-0.4
	c0.5-0.3,0.9-0.7,1.1-1.1c0.2-0.4,0.3-0.9,0.3-1.6V47.2z M494.2,50.6l0.2,1.5c-0.5,0.1-0.9,0.1-1.2,0.1c-0.6,0-1.1-0.1-1.4-0.3
	c-0.3-0.2-0.6-0.4-0.7-0.7c-0.1-0.3-0.2-1-0.2-1.9v-5.6h-1.2v-1.3h1.2V40l1.6-1v3.4h1.7v1.3h-1.7v5.7c0,0.5,0,0.8,0.1,0.9
	c0.1,0.1,0.2,0.2,0.3,0.3c0.1,0.1,0.3,0.1,0.6,0.1C493.7,50.7,493.9,50.7,494.2,50.6L494.2,50.6z M495.8,40.6v-1.9h1.6v1.9H495.8z
	 M495.8,52.1v-9.7h1.6v9.7H495.8z M499.4,47.2c0-1.8,0.5-3.1,1.5-4c0.8-0.7,1.8-1.1,3-1.1c1.3,0,2.4,0.4,3.3,1.3
	c0.8,0.9,1.3,2.1,1.3,3.6c0,1.2-0.2,2.2-0.6,2.9c-0.4,0.7-0.9,1.3-1.6,1.7c-0.7,0.4-1.5,0.6-2.3,0.6c-1.4,0-2.4-0.4-3.3-1.3
	C499.8,50.1,499.4,48.9,499.4,47.2z M501.1,47.2c0,1.2,0.3,2.2,0.8,2.8c0.5,0.6,1.2,0.9,2,0.9c0.8,0,1.5-0.3,2-0.9
	c0.5-0.6,0.8-1.6,0.8-2.8c0-1.2-0.3-2.1-0.8-2.7c-0.5-0.6-1.2-0.9-2-0.9c-0.8,0-1.5,0.3-2,0.9C501.3,45.1,501.1,46,501.1,47.2z
	 M510.4,52.1v-9.7h1.5v1.4c0.7-1.1,1.7-1.6,3.1-1.6c0.6,0,1.1,0.1,1.6,0.3c0.5,0.2,0.9,0.5,1.1,0.8c0.2,0.3,0.4,0.7,0.5,1.2
	c0.1,0.3,0.1,0.8,0.1,1.6v6h-1.6v-5.9c0-0.7-0.1-1.2-0.2-1.5c-0.1-0.3-0.3-0.6-0.7-0.8c-0.3-0.2-0.7-0.3-1.1-0.3
	c-0.7,0-1.3,0.2-1.8,0.7c-0.5,0.4-0.8,1.3-0.8,2.5v5.3H510.4z"/>
<path id="path23499" d="M350.9,77.1V63.7h2.7l3.2,9.5c0.3,0.9,0.5,1.5,0.6,2c0.2-0.5,0.4-1.2,0.7-2.1l3.2-9.3h2.4v13.4h-1.7V65.9
	L358,77.1h-1.6l-3.9-11.4v11.4H350.9z M366.3,65.6v-1.9h1.6v1.9H366.3z M366.3,77.1v-9.7h1.6v9.7H366.3z M370.1,77.9l1.6,0.2
	c0.1,0.5,0.3,0.9,0.6,1.1c0.4,0.3,1,0.5,1.7,0.5c0.8,0,1.3-0.2,1.8-0.5c0.4-0.3,0.7-0.7,0.8-1.3c0.1-0.3,0.1-1,0.1-2.1
	c-0.7,0.8-1.6,1.3-2.7,1.3c-1.3,0-2.4-0.5-3.1-1.4c-0.7-1-1.1-2.1-1.1-3.5c0-0.9,0.2-1.8,0.5-2.6c0.3-0.8,0.8-1.4,1.5-1.8
	c0.6-0.4,1.4-0.6,2.2-0.6c1.1,0,2.1,0.5,2.8,1.4v-1.2h1.5v8.4c0,1.5-0.2,2.6-0.5,3.2c-0.3,0.6-0.8,1.1-1.5,1.5
	c-0.7,0.4-1.5,0.5-2.5,0.5c-1.1,0-2.1-0.3-2.8-0.8C370.4,79.7,370.1,78.9,370.1,77.9z M371.5,72.1c0,1.3,0.2,2.2,0.8,2.8
	c0.5,0.6,1.1,0.9,1.9,0.9c0.8,0,1.4-0.3,1.9-0.9c0.5-0.6,0.8-1.5,0.8-2.7c0-1.2-0.3-2.1-0.8-2.7c-0.5-0.6-1.2-0.9-1.9-0.9
	c-0.7,0-1.3,0.3-1.9,0.9C371.7,70,371.5,70.9,371.5,72.1z M380.8,77.1v-9.7h1.5v1.5c0.4-0.7,0.7-1.1,1-1.4c0.3-0.2,0.7-0.3,1.1-0.3
	c0.6,0,1.1,0.2,1.7,0.5l-0.6,1.5c-0.4-0.2-0.8-0.4-1.2-0.4c-0.4,0-0.7,0.1-1,0.3c-0.3,0.2-0.5,0.5-0.6,0.9c-0.2,0.6-0.3,1.2-0.3,1.9
	v5.1H380.8z M393.3,75.9c-0.6,0.5-1.2,0.9-1.8,1.1c-0.6,0.2-1.2,0.3-1.8,0.3c-1.1,0-1.9-0.3-2.5-0.8c-0.6-0.5-0.9-1.2-0.9-2
	c0-0.5,0.1-0.9,0.3-1.3c0.2-0.4,0.5-0.7,0.8-0.9c0.4-0.2,0.8-0.4,1.2-0.5c0.3-0.1,0.8-0.2,1.5-0.2c1.3-0.2,2.3-0.3,2.9-0.6
	c0-0.2,0-0.4,0-0.4c0-0.7-0.2-1.1-0.5-1.4c-0.4-0.4-1-0.5-1.9-0.5c-0.8,0-1.3,0.1-1.7,0.4c-0.4,0.3-0.6,0.7-0.8,1.4l-1.6-0.2
	c0.1-0.7,0.4-1.2,0.7-1.6c0.3-0.4,0.8-0.8,1.5-1c0.6-0.2,1.4-0.3,2.2-0.3c0.8,0,1.5,0.1,2,0.3c0.5,0.2,0.9,0.4,1.1,0.7
	c0.2,0.3,0.4,0.7,0.5,1.1c0.1,0.3,0.1,0.8,0.1,1.5V73c0,1.5,0,2.5,0.1,2.9c0.1,0.4,0.2,0.8,0.4,1.2h-1.7
	C393.5,76.7,393.3,76.3,393.3,75.9L393.3,75.9z M393.2,72.2c-0.6,0.2-1.5,0.5-2.7,0.6c-0.7,0.1-1.2,0.2-1.4,0.3
	c-0.3,0.1-0.5,0.3-0.7,0.5c-0.1,0.2-0.2,0.5-0.2,0.8c0,0.4,0.2,0.8,0.5,1.1c0.3,0.3,0.8,0.4,1.5,0.4c0.6,0,1.2-0.1,1.7-0.4
	c0.5-0.3,0.9-0.7,1.1-1.1c0.2-0.4,0.3-0.9,0.3-1.6V72.2z M400.9,75.6l0.2,1.5c-0.5,0.1-0.9,0.1-1.2,0.1c-0.6,0-1.1-0.1-1.4-0.3
	c-0.3-0.2-0.6-0.4-0.7-0.7c-0.1-0.3-0.2-1-0.2-1.9v-5.6h-1.2v-1.3h1.2V65l1.6-1v3.4h1.7v1.3h-1.7v5.7c0,0.5,0,0.8,0.1,0.9
	c0.1,0.1,0.2,0.2,0.3,0.3c0.1,0.1,0.3,0.1,0.6,0.1C400.4,75.7,400.6,75.7,400.9,75.6L400.9,75.6z M402.6,65.6v-1.9h1.6v1.9H402.6z
	 M402.6,77.1v-9.7h1.6v9.7H402.6z M406.1,72.2c0-1.8,0.5-3.1,1.5-4c0.8-0.7,1.8-1.1,3-1.1c1.3,0,2.4,0.4,3.3,1.3
	c0.8,0.9,1.3,2.1,1.3,3.6c0,1.2-0.2,2.2-0.6,2.9c-0.4,0.7-0.9,1.3-1.6,1.7c-0.7,0.4-1.5,0.6-2.3,0.6c-1.4,0-2.4-0.4-3.3-1.3
	C406.5,75.1,406.1,73.9,406.1,72.2z M407.8,72.2c0,1.2,0.3,2.2,0.8,2.8c0.5,0.6,1.2,0.9,2,0.9c0.8,0,1.5-0.3,2-0.9
	c0.5-0.6,0.8-1.6,0.8-2.8c0-1.2-0.3-2.1-0.8-2.7c-0.5-0.6-1.2-0.9-2-0.9c-0.8,0-1.5,0.3-2,0.9C408,70.1,407.8,71,407.8,72.2z
	 M417.1,77.1v-9.7h1.5v1.4c0.7-1.1,1.7-1.6,3.1-1.6c0.6,0,1.1,0.1,1.6,0.3c0.5,0.2,0.9,0.5,1.1,0.8c0.2,0.3,0.4,0.7,0.5,1.2
	c0.1,0.3,0.1,0.8,0.1,1.6v6h-1.6v-5.9c0-0.7-0.1-1.2-0.2-1.5c-0.1-0.3-0.3-0.6-0.7-0.8c-0.3-0.2-0.7-0.3-1.1-0.3
	c-0.7,0-1.3,0.2-1.8,0.7c-0.5,0.4-0.8,1.3-0.8,2.5v5.3H417.1z M432.6,77.1v-9.7h1.5v1.4c0.3-0.5,0.7-0.9,1.2-1.1
	c0.5-0.3,1.1-0.4,1.7-0.4c0.7,0,1.3,0.2,1.8,0.5c0.5,0.3,0.8,0.7,1,1.2c0.8-1.1,1.8-1.7,3-1.7c1,0,1.7,0.3,2.2,0.8
	c0.5,0.5,0.8,1.3,0.8,2.5v6.6h-1.6V71c0-0.7-0.1-1.1-0.2-1.4c-0.1-0.3-0.3-0.5-0.6-0.7c-0.3-0.2-0.6-0.3-1-0.3
	c-0.7,0-1.2,0.2-1.7,0.7c-0.4,0.4-0.7,1.2-0.7,2.2v5.6h-1.6v-6.3c0-0.7-0.1-1.3-0.4-1.6c-0.3-0.4-0.7-0.5-1.3-0.5
	c-0.5,0-0.9,0.1-1.3,0.4c-0.4,0.2-0.7,0.6-0.9,1.1c-0.2,0.5-0.2,1.1-0.2,2v5H432.6z M454.5,75.9c-0.6,0.5-1.2,0.9-1.8,1.1
	c-0.6,0.2-1.2,0.3-1.8,0.3c-1.1,0-1.9-0.3-2.5-0.8c-0.6-0.5-0.9-1.2-0.9-2c0-0.5,0.1-0.9,0.3-1.3c0.2-0.4,0.5-0.7,0.8-0.9
	c0.4-0.2,0.8-0.4,1.2-0.5c0.3-0.1,0.8-0.2,1.5-0.2c1.3-0.2,2.3-0.3,2.9-0.6c0-0.2,0-0.4,0-0.4c0-0.7-0.2-1.1-0.5-1.4
	c-0.4-0.4-1-0.5-1.9-0.5c-0.8,0-1.3,0.1-1.7,0.4c-0.4,0.3-0.6,0.7-0.8,1.4l-1.6-0.2c0.1-0.7,0.4-1.2,0.7-1.6c0.3-0.4,0.8-0.8,1.5-1
	c0.6-0.2,1.4-0.3,2.2-0.3c0.8,0,1.5,0.1,2,0.3c0.5,0.2,0.9,0.4,1.1,0.7c0.2,0.3,0.4,0.7,0.5,1.1c0.1,0.3,0.1,0.8,0.1,1.5V73
	c0,1.5,0,2.5,0.1,2.9c0.1,0.4,0.2,0.8,0.4,1.2h-1.7C454.6,76.7,454.5,76.3,454.5,75.9L454.5,75.9z M454.3,72.2
	c-0.6,0.2-1.5,0.5-2.7,0.6c-0.7,0.1-1.2,0.2-1.4,0.3c-0.3,0.1-0.5,0.3-0.7,0.5c-0.1,0.2-0.2,0.5-0.2,0.8c0,0.4,0.2,0.8,0.5,1.1
	c0.3,0.3,0.8,0.4,1.5,0.4c0.6,0,1.2-0.1,1.7-0.4c0.5-0.3,0.9-0.7,1.1-1.1c0.2-0.4,0.3-0.9,0.3-1.6V72.2z M457.9,74.2l1.6-0.2
	c0.1,0.6,0.3,1.1,0.8,1.5c0.4,0.3,1,0.5,1.8,0.5c0.8,0,1.3-0.2,1.7-0.5c0.4-0.3,0.5-0.7,0.5-1.1c0-0.4-0.2-0.7-0.5-0.9
	c-0.2-0.1-0.8-0.3-1.7-0.5c-1.2-0.3-2-0.6-2.5-0.8c-0.5-0.2-0.8-0.5-1-0.9c-0.2-0.4-0.4-0.8-0.4-1.3c0-0.4,0.1-0.8,0.3-1.2
	c0.2-0.4,0.5-0.7,0.8-0.9c0.2-0.2,0.6-0.3,1-0.5c0.4-0.1,0.9-0.2,1.4-0.2c0.8,0,1.4,0.1,2,0.3c0.6,0.2,1,0.5,1.3,0.9
	c0.3,0.4,0.5,0.9,0.6,1.5l-1.6,0.2c-0.1-0.5-0.3-0.9-0.6-1.2c-0.3-0.3-0.8-0.4-1.5-0.4c-0.8,0-1.3,0.1-1.6,0.4
	c-0.3,0.2-0.5,0.5-0.5,0.9c0,0.2,0.1,0.4,0.2,0.6c0.1,0.2,0.3,0.3,0.6,0.4c0.2,0.1,0.6,0.2,1.4,0.4c1.2,0.3,2,0.6,2.4,0.8
	c0.5,0.2,0.8,0.5,1.1,0.9c0.3,0.4,0.4,0.8,0.4,1.4c0,0.6-0.2,1.1-0.5,1.5c-0.3,0.5-0.8,0.9-1.4,1.1c-0.6,0.3-1.3,0.4-2,0.4
	c-1.2,0-2.2-0.3-2.9-0.8C458.5,76,458.1,75.2,457.9,74.2z M467.9,77.1V63.7h1.6v7.6l3.9-3.9h2.1l-3.7,3.6l4.1,6.1h-2l-3.2-5
	l-1.2,1.1v3.8H467.9z M476.6,74.2l1.6-0.2c0.1,0.6,0.3,1.1,0.8,1.5c0.4,0.3,1,0.5,1.8,0.5c0.8,0,1.3-0.2,1.7-0.5
	c0.4-0.3,0.5-0.7,0.5-1.1c0-0.4-0.2-0.7-0.5-0.9c-0.2-0.1-0.8-0.3-1.7-0.5c-1.2-0.3-2-0.6-2.5-0.8c-0.5-0.2-0.8-0.5-1-0.9
	c-0.2-0.4-0.4-0.8-0.4-1.3c0-0.4,0.1-0.8,0.3-1.2c0.2-0.4,0.5-0.7,0.8-0.9c0.2-0.2,0.6-0.3,1-0.5c0.4-0.1,0.9-0.2,1.4-0.2
	c0.8,0,1.4,0.1,2,0.3c0.6,0.2,1,0.5,1.3,0.9c0.3,0.4,0.5,0.9,0.6,1.5l-1.6,0.2c-0.1-0.5-0.3-0.9-0.6-1.2c-0.3-0.3-0.8-0.4-1.5-0.4
	c-0.8,0-1.3,0.1-1.6,0.4c-0.3,0.2-0.5,0.5-0.5,0.9c0,0.2,0.1,0.4,0.2,0.6c0.1,0.2,0.3,0.3,0.6,0.4c0.2,0.1,0.6,0.2,1.4,0.4
	c1.2,0.3,2,0.6,2.4,0.8c0.5,0.2,0.8,0.5,1.1,0.9c0.3,0.4,0.4,0.8,0.4,1.4c0,0.6-0.2,1.1-0.5,1.5c-0.3,0.5-0.8,0.9-1.4,1.1
	c-0.6,0.3-1.3,0.4-2,0.4c-1.2,0-2.2-0.3-2.9-0.8C477.1,76,476.7,75.2,476.6,74.2z"/>
<path id="path23501" d="M350.3,97.8l1.7-0.1c0.1,0.7,0.3,1.2,0.5,1.6c0.3,0.4,0.7,0.8,1.3,1c0.6,0.3,1.3,0.4,2.1,0.4
	c0.7,0,1.3-0.1,1.8-0.3c0.5-0.2,0.9-0.5,1.2-0.8c0.2-0.4,0.4-0.7,0.4-1.2c0-0.4-0.1-0.8-0.4-1.1c-0.2-0.3-0.6-0.6-1.2-0.8
	c-0.4-0.1-1.2-0.3-2.4-0.6c-1.2-0.3-2.1-0.6-2.6-0.8c-0.6-0.3-1.1-0.7-1.4-1.2c-0.3-0.5-0.5-1.1-0.5-1.7c0-0.7,0.2-1.3,0.6-1.9
	c0.4-0.6,0.9-1,1.7-1.3c0.7-0.3,1.6-0.5,2.5-0.5c1,0,1.9,0.2,2.6,0.5c0.8,0.3,1.3,0.8,1.8,1.4c0.4,0.6,0.6,1.3,0.7,2.1l-1.7,0.1
	c-0.1-0.8-0.4-1.5-0.9-1.9c-0.5-0.4-1.3-0.7-2.3-0.7c-1.1,0-1.9,0.2-2.3,0.6c-0.5,0.4-0.7,0.9-0.7,1.4c0,0.5,0.2,0.9,0.5,1.2
	c0.3,0.3,1.2,0.6,2.7,1c1.4,0.3,2.4,0.6,3,0.8c0.8,0.4,1.4,0.8,1.7,1.4c0.4,0.6,0.6,1.2,0.6,1.9c0,0.7-0.2,1.4-0.6,2
	c-0.4,0.6-1,1.1-1.8,1.5c-0.8,0.3-1.6,0.5-2.6,0.5c-1.2,0-2.2-0.2-3-0.5c-0.8-0.4-1.5-0.9-1.9-1.6C350.6,99.5,350.4,98.7,350.3,97.8
	z M369.8,99l1.7,0.2c-0.3,1-0.8,1.8-1.5,2.3c-0.7,0.5-1.6,0.8-2.8,0.8c-1.4,0-2.5-0.4-3.4-1.3c-0.8-0.9-1.2-2.1-1.2-3.7
	c0-1.6,0.4-2.9,1.2-3.8c0.8-0.9,1.9-1.3,3.3-1.3c1.3,0,2.3,0.4,3.2,1.3c0.8,0.9,1.2,2.1,1.2,3.7c0,0.1,0,0.2,0,0.4h-7.2
	c0.1,1.1,0.4,1.9,0.9,2.5c0.5,0.6,1.2,0.8,2,0.8c0.6,0,1.1-0.2,1.5-0.5C369.2,100.2,369.5,99.7,369.8,99z M364.4,96.3h5.4
	c-0.1-0.8-0.3-1.4-0.6-1.8c-0.5-0.6-1.2-1-2-1c-0.8,0-1.4,0.3-1.9,0.8C364.7,94.8,364.5,95.5,364.4,96.3z M373.5,102.1V88.7h1.6
	v13.4H373.5z M384.3,99l1.7,0.2c-0.3,1-0.8,1.8-1.5,2.3c-0.7,0.5-1.6,0.8-2.8,0.8c-1.4,0-2.5-0.4-3.4-1.3c-0.8-0.9-1.2-2.1-1.2-3.7
	c0-1.6,0.4-2.9,1.2-3.8c0.8-0.9,1.9-1.3,3.3-1.3c1.3,0,2.3,0.4,3.2,1.3c0.8,0.9,1.2,2.1,1.2,3.7c0,0.1,0,0.2,0,0.4h-7.2
	c0.1,1.1,0.4,1.9,0.9,2.5c0.5,0.6,1.2,0.8,2,0.8c0.6,0,1.1-0.2,1.5-0.5C383.7,100.2,384.1,99.7,384.3,99z M378.9,96.3h5.4
	c-0.1-0.8-0.3-1.4-0.6-1.8c-0.5-0.6-1.2-1-2-1c-0.8,0-1.4,0.3-1.9,0.8C379.3,94.8,379,95.5,378.9,96.3z M394.4,98.5l1.6,0.2
	c-0.2,1.1-0.6,2-1.4,2.6c-0.7,0.6-1.6,0.9-2.7,0.9c-1.3,0-2.4-0.4-3.2-1.3c-0.8-0.9-1.2-2.1-1.2-3.7c0-1.1,0.2-2,0.5-2.8
	c0.3-0.8,0.9-1.4,1.6-1.8c0.7-0.4,1.5-0.6,2.3-0.6c1.1,0,1.9,0.3,2.6,0.8c0.7,0.5,1.1,1.3,1.3,2.3l-1.6,0.2
	c-0.2-0.6-0.4-1.1-0.8-1.5c-0.4-0.3-0.8-0.5-1.4-0.5c-0.8,0-1.5,0.3-2,0.9c-0.5,0.6-0.8,1.5-0.8,2.8c0,1.3,0.2,2.2,0.8,2.8
	c0.5,0.6,1.2,0.9,2,0.9c0.6,0,1.2-0.2,1.6-0.6C394,100,394.3,99.4,394.4,98.5z M401,100.6l0.2,1.5c-0.5,0.1-0.9,0.1-1.2,0.1
	c-0.6,0-1.1-0.1-1.4-0.3c-0.3-0.2-0.6-0.4-0.7-0.7c-0.1-0.3-0.2-1-0.2-1.9v-5.6h-1.2v-1.3h1.2V90l1.6-1v3.4h1.7v1.3h-1.7v5.7
	c0,0.5,0,0.8,0.1,0.9c0.1,0.1,0.2,0.2,0.3,0.3c0.1,0.1,0.3,0.1,0.6,0.1C400.4,100.7,400.7,100.7,401,100.6L401,100.6z M402.6,90.6
	v-1.9h1.6v1.9H402.6z M402.6,102.1v-9.7h1.6v9.7H402.6z M406.1,97.2c0-1.8,0.5-3.1,1.5-4c0.8-0.7,1.8-1.1,3-1.1
	c1.3,0,2.4,0.4,3.3,1.3c0.8,0.9,1.3,2.1,1.3,3.6c0,1.2-0.2,2.2-0.6,2.9c-0.4,0.7-0.9,1.3-1.6,1.7c-0.7,0.4-1.5,0.6-2.3,0.6
	c-1.4,0-2.4-0.4-3.3-1.3C406.5,100.1,406.1,98.9,406.1,97.2z M407.8,97.2c0,1.2,0.3,2.2,0.8,2.8c0.5,0.6,1.2,0.9,2,0.9
	c0.8,0,1.5-0.3,2-0.9c0.5-0.6,0.8-1.6,0.8-2.8c0-1.2-0.3-2.1-0.8-2.7c-0.5-0.6-1.2-0.9-2-0.9c-0.8,0-1.5,0.3-2,0.9
	C408.1,95.1,407.8,96,407.8,97.2z M417.1,102.1v-9.7h1.5v1.4c0.7-1.1,1.7-1.6,3.1-1.6c0.6,0,1.1,0.1,1.6,0.3
	c0.5,0.2,0.9,0.5,1.1,0.8c0.2,0.3,0.4,0.7,0.5,1.2c0.1,0.3,0.1,0.8,0.1,1.6v6h-1.6v-5.9c0-0.7-0.1-1.2-0.2-1.5
	c-0.1-0.3-0.3-0.6-0.7-0.8c-0.3-0.2-0.7-0.3-1.1-0.3c-0.7,0-1.3,0.2-1.8,0.7c-0.5,0.4-0.8,1.3-0.8,2.5v5.3H417.1z M432.6,102.1v-9.7
	h1.5v1.5c0.4-0.7,0.7-1.1,1-1.4c0.3-0.2,0.7-0.3,1.1-0.3c0.6,0,1.1,0.2,1.7,0.5l-0.6,1.5c-0.4-0.2-0.8-0.4-1.2-0.4
	c-0.4,0-0.7,0.1-1,0.3c-0.3,0.2-0.5,0.5-0.6,0.9c-0.2,0.6-0.3,1.2-0.3,1.9v5.1H432.6z M445.2,100.9c-0.6,0.5-1.2,0.9-1.8,1.1
	c-0.6,0.2-1.2,0.3-1.8,0.3c-1.1,0-1.9-0.3-2.5-0.8c-0.6-0.5-0.9-1.2-0.9-2c0-0.5,0.1-0.9,0.3-1.3c0.2-0.4,0.5-0.7,0.8-0.9
	c0.4-0.2,0.8-0.4,1.2-0.5c0.3-0.1,0.8-0.2,1.5-0.2c1.3-0.2,2.3-0.3,2.9-0.6c0-0.2,0-0.4,0-0.4c0-0.7-0.2-1.1-0.5-1.4
	c-0.4-0.4-1-0.5-1.9-0.5c-0.8,0-1.3,0.1-1.7,0.4c-0.4,0.3-0.6,0.7-0.8,1.4l-1.6-0.2c0.1-0.7,0.4-1.2,0.7-1.6c0.3-0.4,0.8-0.8,1.5-1
	c0.6-0.2,1.4-0.3,2.2-0.3c0.8,0,1.5,0.1,2,0.3c0.5,0.2,0.9,0.4,1.1,0.7c0.2,0.3,0.4,0.7,0.5,1.1c0.1,0.3,0.1,0.8,0.1,1.5V98
	c0,1.5,0,2.5,0.1,2.9c0.1,0.4,0.2,0.8,0.4,1.2h-1.7C445.3,101.7,445.2,101.3,445.2,100.9L445.2,100.9z M445,97.2
	c-0.6,0.2-1.5,0.5-2.7,0.6c-0.7,0.1-1.2,0.2-1.4,0.3c-0.3,0.1-0.5,0.3-0.7,0.5c-0.1,0.2-0.2,0.5-0.2,0.8c0,0.4,0.2,0.8,0.5,1.1
	c0.3,0.3,0.8,0.4,1.5,0.4c0.6,0,1.2-0.1,1.7-0.4c0.5-0.3,0.9-0.7,1.1-1.1c0.2-0.4,0.3-0.9,0.3-1.6V97.2z M452.8,100.6l0.2,1.5
	c-0.5,0.1-0.9,0.1-1.2,0.1c-0.6,0-1.1-0.1-1.4-0.3c-0.3-0.2-0.6-0.4-0.7-0.7c-0.1-0.3-0.2-1-0.2-1.9v-5.6h-1.2v-1.3h1.2V90l1.6-1
	v3.4h1.7v1.3h-1.7v5.7c0,0.5,0,0.8,0.1,0.9c0.1,0.1,0.2,0.2,0.3,0.3c0.1,0.1,0.3,0.1,0.6,0.1C452.3,100.7,452.5,100.7,452.8,100.6
	L452.8,100.6z M461,99l1.7,0.2c-0.3,1-0.8,1.8-1.5,2.3c-0.7,0.5-1.6,0.8-2.8,0.8c-1.4,0-2.5-0.4-3.4-1.3c-0.8-0.9-1.2-2.1-1.2-3.7
	c0-1.6,0.4-2.9,1.2-3.8c0.8-0.9,1.9-1.3,3.3-1.3c1.3,0,2.3,0.4,3.2,1.3c0.8,0.9,1.2,2.1,1.2,3.7c0,0.1,0,0.2,0,0.4h-7.2
	c0.1,1.1,0.4,1.9,0.9,2.5c0.5,0.6,1.2,0.8,2,0.8c0.6,0,1.1-0.2,1.5-0.5C460.5,100.2,460.8,99.7,461,99z M455.7,96.3h5.4
	c-0.1-0.8-0.3-1.4-0.6-1.8c-0.5-0.6-1.2-1-2-1c-0.8,0-1.4,0.3-1.9,0.8C456,94.8,455.7,95.5,455.7,96.3z"/>
<path id="path23503" d="M350.9,127.1v-13.4h4.6c1,0,1.8,0.1,2.4,0.2c0.8,0.2,1.4,0.5,2,1c0.7,0.6,1.2,1.4,1.6,2.3
	c0.4,0.9,0.5,2,0.5,3.2c0,1-0.1,1.9-0.4,2.7c-0.2,0.8-0.5,1.4-0.9,1.9c-0.4,0.5-0.8,0.9-1.2,1.2c-0.4,0.3-1,0.5-1.6,0.7
	c-0.6,0.1-1.3,0.2-2.1,0.2H350.9z M352.7,125.5h2.9c0.9,0,1.6-0.1,2.1-0.2c0.5-0.2,0.9-0.4,1.2-0.7c0.4-0.4,0.7-1,1-1.7
	c0.2-0.7,0.4-1.6,0.4-2.6c0-1.4-0.2-2.5-0.7-3.2c-0.5-0.8-1-1.3-1.7-1.5c-0.5-0.2-1.2-0.3-2.3-0.3h-2.8V125.5z M363.6,122.2
	c0-1.8,0.5-3.1,1.5-4c0.8-0.7,1.8-1.1,3-1.1c1.3,0,2.4,0.4,3.3,1.3c0.8,0.9,1.3,2.1,1.3,3.6c0,1.2-0.2,2.2-0.6,2.9
	c-0.4,0.7-0.9,1.3-1.6,1.7c-0.7,0.4-1.5,0.6-2.3,0.6c-1.4,0-2.4-0.4-3.3-1.3C364,125.1,363.6,123.9,363.6,122.2z M365.3,122.2
	c0,1.2,0.3,2.2,0.8,2.8c0.5,0.6,1.2,0.9,2,0.9c0.8,0,1.5-0.3,2-0.9c0.5-0.6,0.8-1.6,0.8-2.8c0-1.2-0.3-2.1-0.8-2.7
	c-0.5-0.6-1.2-0.9-2-0.9c-0.8,0-1.5,0.3-2,0.9C365.5,120.1,365.3,121,365.3,122.2z M374.6,127.1v-9.7h1.5v1.4
	c0.3-0.5,0.7-0.9,1.2-1.1c0.5-0.3,1.1-0.4,1.7-0.4c0.7,0,1.3,0.2,1.8,0.5c0.5,0.3,0.8,0.7,1,1.2c0.8-1.1,1.8-1.7,3-1.7
	c1,0,1.7,0.3,2.2,0.8c0.5,0.5,0.8,1.3,0.8,2.5v6.6H386V121c0-0.7-0.1-1.1-0.2-1.4c-0.1-0.3-0.3-0.5-0.6-0.7c-0.3-0.2-0.6-0.3-1-0.3
	c-0.7,0-1.2,0.2-1.7,0.7c-0.4,0.4-0.7,1.2-0.7,2.2v5.6h-1.6v-6.3c0-0.7-0.1-1.3-0.4-1.6c-0.3-0.4-0.7-0.5-1.3-0.5
	c-0.5,0-0.9,0.1-1.3,0.4c-0.4,0.2-0.7,0.6-0.9,1.1c-0.2,0.5-0.2,1.1-0.2,2v5H374.6z M390.1,115.6v-1.9h1.6v1.9H390.1z M390.1,127.1
	v-9.7h1.6v9.7H390.1z M394.3,127.1v-9.7h1.5v1.4c0.7-1.1,1.7-1.6,3.1-1.6c0.6,0,1.1,0.1,1.6,0.3c0.5,0.2,0.9,0.5,1.1,0.8
	c0.2,0.3,0.4,0.7,0.5,1.2c0.1,0.3,0.1,0.8,0.1,1.6v6h-1.6v-5.9c0-0.7-0.1-1.2-0.2-1.5c-0.1-0.3-0.3-0.6-0.7-0.8
	c-0.3-0.2-0.7-0.3-1.1-0.3c-0.7,0-1.3,0.2-1.8,0.7c-0.5,0.4-0.8,1.3-0.8,2.5v5.3H394.3z M410.9,125.9c-0.6,0.5-1.2,0.9-1.8,1.1
	c-0.6,0.2-1.2,0.3-1.8,0.3c-1.1,0-1.9-0.3-2.5-0.8c-0.6-0.5-0.9-1.2-0.9-2c0-0.5,0.1-0.9,0.3-1.3c0.2-0.4,0.5-0.7,0.8-0.9
	c0.4-0.2,0.8-0.4,1.2-0.5c0.3-0.1,0.8-0.2,1.5-0.2c1.3-0.2,2.3-0.3,2.9-0.6c0-0.2,0-0.4,0-0.4c0-0.7-0.2-1.1-0.5-1.4
	c-0.4-0.4-1-0.5-1.9-0.5c-0.8,0-1.3,0.1-1.7,0.4c-0.4,0.3-0.6,0.7-0.8,1.4l-1.6-0.2c0.1-0.7,0.4-1.2,0.7-1.6c0.3-0.4,0.8-0.8,1.5-1
	c0.6-0.2,1.4-0.3,2.2-0.3c0.8,0,1.5,0.1,2,0.3c0.5,0.2,0.9,0.4,1.1,0.7c0.2,0.3,0.4,0.7,0.5,1.1c0.1,0.3,0.1,0.8,0.1,1.5v2.2
	c0,1.5,0,2.5,0.1,2.9c0.1,0.4,0.2,0.8,0.4,1.2h-1.7C411.1,126.7,411,126.3,410.9,125.9L410.9,125.9z M410.8,122.2
	c-0.6,0.2-1.5,0.5-2.7,0.6c-0.7,0.1-1.2,0.2-1.4,0.3c-0.3,0.1-0.5,0.3-0.7,0.5c-0.1,0.2-0.2,0.5-0.2,0.8c0,0.4,0.2,0.8,0.5,1.1
	c0.3,0.3,0.8,0.4,1.5,0.4c0.6,0,1.2-0.1,1.7-0.4c0.5-0.3,0.9-0.7,1.1-1.1c0.2-0.4,0.3-0.9,0.3-1.6V122.2z M415,127.1v-9.7h1.5v1.4
	c0.7-1.1,1.7-1.6,3.1-1.6c0.6,0,1.1,0.1,1.6,0.3c0.5,0.2,0.9,0.5,1.1,0.8c0.2,0.3,0.4,0.7,0.5,1.2c0.1,0.3,0.1,0.8,0.1,1.6v6h-1.6
	v-5.9c0-0.7-0.1-1.2-0.2-1.5c-0.1-0.3-0.3-0.6-0.7-0.8c-0.3-0.2-0.7-0.3-1.1-0.3c-0.7,0-1.3,0.2-1.8,0.7c-0.5,0.4-0.8,1.3-0.8,2.5
	v5.3H415z M431.7,123.5l1.6,0.2c-0.2,1.1-0.6,2-1.4,2.6c-0.7,0.6-1.6,0.9-2.7,0.9c-1.3,0-2.4-0.4-3.2-1.3c-0.8-0.9-1.2-2.1-1.2-3.7
	c0-1.1,0.2-2,0.5-2.8c0.3-0.8,0.9-1.4,1.6-1.8c0.7-0.4,1.5-0.6,2.3-0.6c1.1,0,1.9,0.3,2.6,0.8c0.7,0.5,1.1,1.3,1.3,2.3l-1.6,0.2
	c-0.2-0.6-0.4-1.1-0.8-1.5c-0.4-0.3-0.8-0.5-1.4-0.5c-0.8,0-1.5,0.3-2,0.9c-0.5,0.6-0.8,1.5-0.8,2.8c0,1.3,0.2,2.2,0.8,2.8
	c0.5,0.6,1.2,0.9,2,0.9c0.6,0,1.2-0.2,1.6-0.6C431.3,125,431.6,124.4,431.7,123.5z M441.3,124l1.7,0.2c-0.3,1-0.8,1.8-1.5,2.3
	c-0.7,0.5-1.6,0.8-2.8,0.8c-1.4,0-2.5-0.4-3.4-1.3c-0.8-0.9-1.2-2.1-1.2-3.7c0-1.6,0.4-2.9,1.2-3.8c0.8-0.9,1.9-1.3,3.3-1.3
	c1.3,0,2.3,0.4,3.2,1.3c0.8,0.9,1.2,2.1,1.2,3.7c0,0.1,0,0.2,0,0.4h-7.2c0.1,1.1,0.4,1.9,0.9,2.5c0.5,0.6,1.2,0.8,2,0.8
	c0.6,0,1.1-0.2,1.5-0.5C440.7,125.2,441.1,124.7,441.3,124z M435.9,121.3h5.4c-0.1-0.8-0.3-1.4-0.6-1.8c-0.5-0.6-1.2-1-2-1
	c-0.8,0-1.4,0.3-1.9,0.8C436.3,119.8,436,120.5,435.9,121.3z M450.3,127.1v-9.7h1.5v1.5c0.4-0.7,0.7-1.1,1-1.4
	c0.3-0.2,0.7-0.3,1.1-0.3c0.6,0,1.1,0.2,1.7,0.5l-0.6,1.5c-0.4-0.2-0.8-0.4-1.2-0.4c-0.4,0-0.7,0.1-1,0.3c-0.3,0.2-0.5,0.5-0.6,0.9
	c-0.2,0.6-0.3,1.2-0.3,1.9v5.1H450.3z M462.8,125.9c-0.6,0.5-1.2,0.9-1.8,1.1c-0.6,0.2-1.2,0.3-1.8,0.3c-1.1,0-1.9-0.3-2.5-0.8
	c-0.6-0.5-0.9-1.2-0.9-2c0-0.5,0.1-0.9,0.3-1.3c0.2-0.4,0.5-0.7,0.8-0.9c0.4-0.2,0.8-0.4,1.2-0.5c0.3-0.1,0.8-0.2,1.5-0.2
	c1.3-0.2,2.3-0.3,2.9-0.6c0-0.2,0-0.4,0-0.4c0-0.7-0.2-1.1-0.5-1.4c-0.4-0.4-1-0.5-1.9-0.5c-0.8,0-1.3,0.1-1.7,0.4
	c-0.4,0.3-0.6,0.7-0.8,1.4l-1.6-0.2c0.1-0.7,0.4-1.2,0.7-1.6c0.3-0.4,0.8-0.8,1.5-1c0.6-0.2,1.4-0.3,2.2-0.3c0.8,0,1.5,0.1,2,0.3
	c0.5,0.2,0.9,0.4,1.1,0.7c0.2,0.3,0.4,0.7,0.5,1.1c0.1,0.3,0.1,0.8,0.1,1.5v2.2c0,1.5,0,2.5,0.1,2.9c0.1,0.4,0.2,0.8,0.4,1.2h-1.7
	C462.9,126.7,462.8,126.3,462.8,125.9L462.8,125.9z M462.7,122.2c-0.6,0.2-1.5,0.5-2.7,0.6c-0.7,0.1-1.2,0.2-1.4,0.3
	c-0.3,0.1-0.5,0.3-0.7,0.5c-0.1,0.2-0.2,0.5-0.2,0.8c0,0.4,0.2,0.8,0.5,1.1c0.3,0.3,0.8,0.4,1.5,0.4c0.6,0,1.2-0.1,1.7-0.4
	c0.5-0.3,0.9-0.7,1.1-1.1c0.2-0.4,0.3-0.9,0.3-1.6V122.2z M470.4,125.6l0.2,1.5c-0.5,0.1-0.9,0.1-1.2,0.1c-0.6,0-1.1-0.1-1.4-0.3
	c-0.3-0.2-0.6-0.4-0.7-0.7c-0.1-0.3-0.2-1-0.2-1.9v-5.6H466v-1.3h1.2V115l1.6-1v3.4h1.7v1.3h-1.7v5.7c0,0.5,0,0.8,0.1,0.9
	c0.1,0.1,0.2,0.2,0.3,0.3c0.1,0.1,0.3,0.1,0.6,0.1C469.9,125.7,470.1,125.7,470.4,125.6L470.4,125.6z M478.7,124l1.7,0.2
	c-0.3,1-0.8,1.8-1.5,2.3c-0.7,0.5-1.6,0.8-2.8,0.8c-1.4,0-2.5-0.4-3.4-1.3c-0.8-0.9-1.2-2.1-1.2-3.7c0-1.6,0.4-2.9,1.2-3.8
	c0.8-0.9,1.9-1.3,3.3-1.3c1.3,0,2.3,0.4,3.2,1.3c0.8,0.9,1.2,2.1,1.2,3.7c0,0.1,0,0.2,0,0.4h-7.2c0.1,1.1,0.4,1.9,0.9,2.5
	c0.5,0.6,1.2,0.8,2,0.8c0.6,0,1.1-0.2,1.5-0.5C478.1,125.2,478.4,124.7,478.7,124z M473.3,121.3h5.4c-0.1-0.8-0.3-1.4-0.6-1.8
	c-0.5-0.6-1.2-1-2-1c-0.8,0-1.4,0.3-1.9,0.8C473.6,119.8,473.3,120.5,473.3,121.3z"/>
<path id="path23505" d="M351.2,152.1v-13.4h1.8v13.4H351.2z M355.9,152.1v-9.7h1.5v1.4c0.7-1.1,1.7-1.6,3.1-1.6
	c0.6,0,1.1,0.1,1.6,0.3c0.5,0.2,0.9,0.5,1.1,0.8c0.2,0.3,0.4,0.7,0.5,1.2c0.1,0.3,0.1,0.8,0.1,1.6v6h-1.6v-5.9
	c0-0.7-0.1-1.2-0.2-1.5c-0.1-0.3-0.3-0.6-0.7-0.8c-0.3-0.2-0.7-0.3-1.1-0.3c-0.7,0-1.3,0.2-1.8,0.7c-0.5,0.4-0.8,1.3-0.8,2.5v5.3
	H355.9z M367.8,152.1h-1.5v-13.4h1.6v4.8c0.7-0.9,1.6-1.3,2.7-1.3c0.6,0,1.2,0.1,1.7,0.4c0.5,0.2,1,0.6,1.3,1
	c0.3,0.4,0.6,0.9,0.8,1.6c0.2,0.6,0.3,1.3,0.3,2c0,1.7-0.4,2.9-1.2,3.8c-0.8,0.9-1.8,1.4-3,1.4c-1.1,0-2-0.5-2.7-1.4V152.1z
	 M367.8,147.2c0,1.2,0.2,2,0.5,2.5c0.5,0.8,1.2,1.3,2.1,1.3c0.7,0,1.3-0.3,1.9-0.9c0.5-0.6,0.8-1.6,0.8-2.8c0-1.3-0.2-2.2-0.8-2.8
	c-0.5-0.6-1.1-0.9-1.8-0.9c-0.7,0-1.3,0.3-1.9,0.9C368,145.1,367.8,146,367.8,147.2z M376.6,152.1v-9.7h1.5v1.5
	c0.4-0.7,0.7-1.1,1-1.4c0.3-0.2,0.7-0.3,1.1-0.3c0.6,0,1.1,0.2,1.7,0.5l-0.6,1.5c-0.4-0.2-0.8-0.4-1.2-0.4c-0.4,0-0.7,0.1-1,0.3
	s-0.5,0.5-0.6,0.9c-0.2,0.6-0.3,1.2-0.3,1.9v5.1H376.6z M389.5,149l1.7,0.2c-0.3,1-0.8,1.8-1.5,2.3c-0.7,0.5-1.6,0.8-2.8,0.8
	c-1.4,0-2.5-0.4-3.4-1.3c-0.8-0.9-1.2-2.1-1.2-3.7c0-1.6,0.4-2.9,1.2-3.8c0.8-0.9,1.9-1.3,3.3-1.3c1.3,0,2.3,0.4,3.2,1.3
	c0.8,0.9,1.2,2.1,1.2,3.7c0,0.1,0,0.2,0,0.4H384c0.1,1.1,0.4,1.9,0.9,2.5c0.5,0.6,1.2,0.8,2,0.8c0.6,0,1.1-0.2,1.5-0.5
	C388.9,150.2,389.2,149.7,389.5,149z M384.1,146.3h5.4c-0.1-0.8-0.3-1.4-0.6-1.8c-0.5-0.6-1.2-1-2-1c-0.8,0-1.4,0.3-1.9,0.8
	C384.4,144.8,384.2,145.5,384.1,146.3z M399.9,149l1.7,0.2c-0.3,1-0.8,1.8-1.5,2.3c-0.7,0.5-1.6,0.8-2.8,0.8c-1.4,0-2.5-0.4-3.4-1.3
	c-0.8-0.9-1.2-2.1-1.2-3.7c0-1.6,0.4-2.9,1.2-3.8c0.8-0.9,1.9-1.3,3.3-1.3c1.3,0,2.3,0.4,3.2,1.3c0.8,0.9,1.2,2.1,1.2,3.7
	c0,0.1,0,0.2,0,0.4h-7.2c0.1,1.1,0.4,1.9,0.9,2.5c0.5,0.6,1.2,0.8,2,0.8c0.6,0,1.1-0.2,1.5-0.5C399.3,150.2,399.6,149.7,399.9,149z
	 M394.5,146.3h5.4c-0.1-0.8-0.3-1.4-0.6-1.8c-0.5-0.6-1.2-1-2-1c-0.8,0-1.4,0.3-1.9,0.8C394.8,144.8,394.5,145.5,394.5,146.3z
	 M409.9,152.1v-1.2c-0.6,1-1.5,1.4-2.7,1.4c-0.8,0-1.5-0.2-2.1-0.6c-0.6-0.4-1.1-1-1.5-1.8c-0.4-0.8-0.5-1.6-0.5-2.6
	c0-1,0.2-1.8,0.5-2.6c0.3-0.8,0.8-1.4,1.4-1.8c0.6-0.4,1.4-0.6,2.2-0.6c0.6,0,1.1,0.1,1.5,0.4c0.5,0.2,0.8,0.6,1.1,1v-4.8h1.6v13.4
	H409.9z M404.7,147.3c0,1.2,0.3,2.2,0.8,2.8c0.5,0.6,1.1,0.9,1.8,0.9c0.7,0,1.3-0.3,1.8-0.9c0.5-0.6,0.8-1.5,0.8-2.7
	c0-1.3-0.3-2.3-0.8-2.9c-0.5-0.6-1.1-0.9-1.9-0.9c-0.7,0-1.3,0.3-1.8,0.9S404.7,146,404.7,147.3z M414,140.6v-1.9h1.6v1.9H414z
	 M414,152.1v-9.7h1.6v9.7H414z M418.1,152.1v-9.7h1.5v1.4c0.7-1.1,1.7-1.6,3.1-1.6c0.6,0,1.1,0.1,1.6,0.3c0.5,0.2,0.9,0.5,1.1,0.8
	c0.2,0.3,0.4,0.7,0.5,1.2c0.1,0.3,0.1,0.8,0.1,1.6v6h-1.6v-5.9c0-0.7-0.1-1.2-0.2-1.5c-0.1-0.3-0.3-0.6-0.7-0.8
	c-0.3-0.2-0.7-0.3-1.1-0.3c-0.7,0-1.3,0.2-1.8,0.7c-0.5,0.4-0.8,1.3-0.8,2.5v5.3H418.1z M428.2,152.9l1.6,0.2
	c0.1,0.5,0.3,0.9,0.6,1.1c0.4,0.3,1,0.5,1.7,0.5c0.8,0,1.3-0.2,1.8-0.5c0.4-0.3,0.7-0.7,0.8-1.3c0.1-0.3,0.1-1,0.1-2.1
	c-0.7,0.8-1.6,1.3-2.7,1.3c-1.3,0-2.4-0.5-3.1-1.4c-0.7-1-1.1-2.1-1.1-3.5c0-0.9,0.2-1.8,0.5-2.6c0.3-0.8,0.8-1.4,1.5-1.8
	c0.6-0.4,1.4-0.6,2.2-0.6c1.1,0,2.1,0.5,2.8,1.4v-1.2h1.5v8.4c0,1.5-0.2,2.6-0.5,3.2c-0.3,0.6-0.8,1.1-1.5,1.5
	c-0.7,0.4-1.5,0.5-2.5,0.5c-1.1,0-2.1-0.3-2.8-0.8C428.5,154.7,428.2,153.9,428.2,152.9z M429.6,147.1c0,1.3,0.2,2.2,0.8,2.8
	c0.5,0.6,1.1,0.9,1.9,0.9c0.8,0,1.4-0.3,1.9-0.9c0.5-0.6,0.8-1.5,0.8-2.7c0-1.2-0.3-2.1-0.8-2.7c-0.5-0.6-1.2-0.9-1.9-0.9
	c-0.7,0-1.3,0.3-1.9,0.9C429.8,145,429.6,145.9,429.6,147.1z"/>
<path id="path23507" d="M350.9,177.1v-13.4h4.6c1,0,1.8,0.1,2.4,0.2c0.8,0.2,1.4,0.5,2,1c0.7,0.6,1.2,1.4,1.6,2.3
	c0.4,0.9,0.5,2,0.5,3.2c0,1-0.1,1.9-0.4,2.7c-0.2,0.8-0.5,1.4-0.9,1.9c-0.4,0.5-0.8,0.9-1.2,1.2c-0.4,0.3-1,0.5-1.6,0.7
	c-0.6,0.1-1.3,0.2-2.1,0.2H350.9z M352.7,175.5h2.9c0.9,0,1.6-0.1,2.1-0.2c0.5-0.2,0.9-0.4,1.2-0.7c0.4-0.4,0.7-1,1-1.7
	c0.2-0.7,0.4-1.6,0.4-2.6c0-1.4-0.2-2.5-0.7-3.2s-1-1.2-1.7-1.5c-0.5-0.2-1.2-0.3-2.3-0.3h-2.8V175.5z M364.1,180.8l-0.2-1.5
	c0.4,0.1,0.7,0.1,0.9,0.1c0.4,0,0.7-0.1,0.9-0.2c0.2-0.1,0.4-0.3,0.5-0.5c0.1-0.2,0.3-0.6,0.5-1.2c0-0.1,0.1-0.2,0.1-0.4l-3.7-9.7
	h1.8l2,5.6c0.3,0.7,0.5,1.5,0.7,2.2c0.2-0.8,0.4-1.5,0.7-2.2l2.1-5.6h1.6l-3.7,9.8c-0.4,1.1-0.7,1.8-0.9,2.2c-0.3,0.5-0.6,0.9-1,1.2
	s-0.8,0.4-1.3,0.4C364.9,181,364.5,180.9,364.1,180.8z M373.5,177.1v-9.7h1.5v1.4c0.7-1.1,1.7-1.6,3.1-1.6c0.6,0,1.1,0.1,1.6,0.3
	c0.5,0.2,0.9,0.5,1.1,0.8c0.2,0.3,0.4,0.7,0.5,1.2c0.1,0.3,0.1,0.8,0.1,1.6v6h-1.6v-5.9c0-0.7-0.1-1.2-0.2-1.5
	c-0.1-0.3-0.3-0.6-0.7-0.8c-0.3-0.2-0.7-0.3-1.1-0.3c-0.7,0-1.3,0.2-1.8,0.7c-0.5,0.4-0.8,1.3-0.8,2.5v5.3H373.5z M390.2,175.9
	c-0.6,0.5-1.2,0.9-1.8,1.1c-0.6,0.2-1.2,0.3-1.8,0.3c-1.1,0-1.9-0.3-2.5-0.8c-0.6-0.5-0.9-1.2-0.9-2c0-0.5,0.1-0.9,0.3-1.3
	c0.2-0.4,0.5-0.7,0.8-0.9c0.4-0.2,0.8-0.4,1.2-0.5c0.3-0.1,0.8-0.2,1.5-0.2c1.3-0.2,2.3-0.3,2.9-0.6c0-0.2,0-0.4,0-0.4
	c0-0.7-0.2-1.1-0.5-1.4c-0.4-0.4-1-0.5-1.9-0.5c-0.8,0-1.3,0.1-1.7,0.4c-0.4,0.3-0.6,0.7-0.8,1.4l-1.6-0.2c0.1-0.7,0.4-1.2,0.7-1.6
	c0.3-0.4,0.8-0.8,1.5-1c0.6-0.2,1.4-0.3,2.2-0.3c0.8,0,1.5,0.1,2,0.3c0.5,0.2,0.9,0.4,1.1,0.7c0.2,0.3,0.4,0.7,0.5,1.1
	c0.1,0.3,0.1,0.8,0.1,1.5v2.2c0,1.5,0,2.5,0.1,2.9c0.1,0.4,0.2,0.8,0.4,1.2h-1.7C390.4,176.7,390.3,176.3,390.2,175.9L390.2,175.9z
	 M390.1,172.2c-0.6,0.2-1.5,0.5-2.7,0.6c-0.7,0.1-1.2,0.2-1.4,0.3s-0.5,0.3-0.7,0.5c-0.1,0.2-0.2,0.5-0.2,0.8c0,0.4,0.2,0.8,0.5,1.1
	c0.3,0.3,0.8,0.4,1.5,0.4c0.6,0,1.2-0.1,1.7-0.4c0.5-0.3,0.9-0.7,1.1-1.1c0.2-0.4,0.3-0.9,0.3-1.6V172.2z M394.3,177.1v-9.7h1.5v1.4
	c0.3-0.5,0.7-0.9,1.2-1.1c0.5-0.3,1.1-0.4,1.7-0.4c0.7,0,1.3,0.2,1.8,0.5c0.5,0.3,0.8,0.7,1,1.2c0.8-1.1,1.8-1.7,3-1.7
	c1,0,1.7,0.3,2.2,0.8c0.5,0.5,0.8,1.3,0.8,2.5v6.6h-1.6V171c0-0.7-0.1-1.1-0.2-1.4c-0.1-0.3-0.3-0.5-0.6-0.7c-0.3-0.2-0.6-0.3-1-0.3
	c-0.7,0-1.2,0.2-1.7,0.7c-0.4,0.4-0.7,1.2-0.7,2.2v5.6H400v-6.3c0-0.7-0.1-1.3-0.4-1.6c-0.3-0.4-0.7-0.5-1.3-0.5
	c-0.5,0-0.9,0.1-1.3,0.4c-0.4,0.2-0.7,0.6-0.9,1.1c-0.2,0.5-0.2,1.1-0.2,2v5H394.3z M409.8,165.6v-1.9h1.6v1.9H409.8z M409.8,177.1
	v-9.7h1.6v9.7H409.8z M420.3,173.5l1.6,0.2c-0.2,1.1-0.6,2-1.4,2.6c-0.7,0.6-1.6,0.9-2.7,0.9c-1.3,0-2.4-0.4-3.2-1.3
	c-0.8-0.9-1.2-2.1-1.2-3.7c0-1.1,0.2-2,0.5-2.8s0.9-1.4,1.6-1.8c0.7-0.4,1.5-0.6,2.3-0.6c1.1,0,1.9,0.3,2.6,0.8s1.1,1.3,1.3,2.3
	l-1.6,0.2c-0.2-0.6-0.4-1.1-0.8-1.5c-0.4-0.3-0.8-0.5-1.4-0.5c-0.8,0-1.5,0.3-2,0.9s-0.8,1.5-0.8,2.8c0,1.3,0.2,2.2,0.8,2.8
	c0.5,0.6,1.2,0.9,2,0.9c0.6,0,1.2-0.2,1.6-0.6C419.9,175,420.2,174.4,420.3,173.5z M422.6,174.2l1.6-0.2c0.1,0.6,0.3,1.1,0.8,1.5
	c0.4,0.3,1,0.5,1.8,0.5s1.3-0.2,1.7-0.5c0.4-0.3,0.5-0.7,0.5-1.1c0-0.4-0.2-0.7-0.5-0.9c-0.2-0.1-0.8-0.3-1.7-0.5
	c-1.2-0.3-2-0.6-2.5-0.8c-0.5-0.2-0.8-0.5-1-0.9c-0.2-0.4-0.4-0.8-0.4-1.3c0-0.4,0.1-0.8,0.3-1.2c0.2-0.4,0.5-0.7,0.8-0.9
	c0.2-0.2,0.6-0.3,1-0.5c0.4-0.1,0.9-0.2,1.4-0.2c0.8,0,1.4,0.1,2,0.3s1,0.5,1.3,0.9c0.3,0.4,0.5,0.9,0.6,1.5l-1.6,0.2
	c-0.1-0.5-0.3-0.9-0.6-1.2c-0.3-0.3-0.8-0.4-1.5-0.4c-0.8,0-1.3,0.1-1.6,0.4c-0.3,0.2-0.5,0.5-0.5,0.9c0,0.2,0.1,0.4,0.2,0.6
	c0.1,0.2,0.3,0.3,0.6,0.4c0.2,0.1,0.6,0.2,1.4,0.4c1.2,0.3,2,0.6,2.4,0.8c0.5,0.2,0.8,0.5,1.1,0.9s0.4,0.8,0.4,1.4
	c0,0.6-0.2,1.1-0.5,1.5c-0.3,0.5-0.8,0.9-1.4,1.1c-0.6,0.3-1.3,0.4-2,0.4c-1.2,0-2.2-0.3-2.9-0.8C423.2,176,422.8,175.2,422.6,174.2
	z M433.1,169.3v-1.9h1.9v1.9H433.1z M433.1,177.1v-1.9h1.9v1.9H433.1z"/>
<path id="path23509" d="M446.3,172.8l1.7-0.1c0.1,0.7,0.3,1.2,0.5,1.6c0.3,0.4,0.7,0.8,1.3,1c0.6,0.3,1.3,0.4,2.1,0.4
	c0.7,0,1.3-0.1,1.8-0.3c0.5-0.2,0.9-0.5,1.2-0.8c0.2-0.4,0.4-0.7,0.4-1.2c0-0.4-0.1-0.8-0.4-1.1c-0.2-0.3-0.6-0.6-1.2-0.8
	c-0.4-0.1-1.2-0.3-2.4-0.6c-1.2-0.3-2.1-0.6-2.6-0.8c-0.6-0.3-1.1-0.7-1.4-1.2c-0.3-0.5-0.5-1.1-0.5-1.7c0-0.7,0.2-1.3,0.6-1.9
	c0.4-0.6,0.9-1,1.7-1.3c0.7-0.3,1.6-0.5,2.5-0.5c1,0,1.9,0.2,2.6,0.5c0.8,0.3,1.3,0.8,1.8,1.4c0.4,0.6,0.6,1.3,0.7,2.1l-1.7,0.1
	c-0.1-0.8-0.4-1.5-0.9-1.9c-0.5-0.4-1.3-0.7-2.3-0.7c-1.1,0-1.9,0.2-2.3,0.6c-0.5,0.4-0.7,0.9-0.7,1.4c0,0.5,0.2,0.9,0.5,1.2
	c0.3,0.3,1.2,0.6,2.7,1c1.4,0.3,2.4,0.6,3,0.8c0.8,0.4,1.4,0.8,1.7,1.4c0.4,0.6,0.6,1.2,0.6,1.9c0,0.7-0.2,1.4-0.6,2
	c-0.4,0.6-1,1.1-1.8,1.5c-0.8,0.3-1.6,0.5-2.6,0.5c-1.2,0-2.2-0.2-3-0.5c-0.8-0.4-1.5-0.9-1.9-1.6
	C446.6,174.5,446.4,173.7,446.3,172.8z M465.5,177.1v-1.4c-0.8,1.1-1.8,1.6-3.1,1.6c-0.6,0-1.1-0.1-1.6-0.3
	c-0.5-0.2-0.9-0.5-1.1-0.8c-0.2-0.3-0.4-0.7-0.5-1.2c-0.1-0.3-0.1-0.8-0.1-1.5v-6h1.6v5.4c0,0.9,0,1.4,0.1,1.7
	c0.1,0.4,0.3,0.8,0.7,1s0.7,0.4,1.2,0.4s0.9-0.1,1.4-0.4c0.4-0.3,0.7-0.6,0.9-1c0.2-0.4,0.3-1.1,0.3-1.9v-5.2h1.6v9.7H465.5z
	 M475.8,177.1v-1.2c-0.6,1-1.5,1.4-2.7,1.4c-0.8,0-1.5-0.2-2.1-0.6c-0.6-0.4-1.1-1-1.5-1.8c-0.4-0.8-0.5-1.6-0.5-2.6
	c0-1,0.2-1.8,0.5-2.6c0.3-0.8,0.8-1.4,1.4-1.8c0.6-0.4,1.4-0.6,2.2-0.6c0.6,0,1.1,0.1,1.5,0.4c0.5,0.2,0.8,0.6,1.1,1v-4.8h1.6v13.4
	H475.8z M470.6,172.3c0,1.2,0.3,2.2,0.8,2.8c0.5,0.6,1.1,0.9,1.8,0.9c0.7,0,1.3-0.3,1.8-0.9c0.5-0.6,0.8-1.5,0.8-2.7
	c0-1.3-0.3-2.3-0.8-2.9c-0.5-0.6-1.1-0.9-1.9-0.9c-0.7,0-1.3,0.3-1.8,0.9C470.9,170,470.6,171,470.6,172.3z M486.2,177.1v-1.2
	c-0.6,1-1.5,1.4-2.7,1.4c-0.8,0-1.5-0.2-2.1-0.6c-0.6-0.4-1.1-1-1.5-1.8c-0.4-0.8-0.5-1.6-0.5-2.6c0-1,0.2-1.8,0.5-2.6
	c0.3-0.8,0.8-1.4,1.4-1.8c0.6-0.4,1.4-0.6,2.2-0.6c0.6,0,1.1,0.1,1.5,0.4c0.5,0.2,0.8,0.6,1.1,1v-4.8h1.6v13.4H486.2z M481,172.3
	c0,1.2,0.3,2.2,0.8,2.8c0.5,0.6,1.1,0.9,1.8,0.9c0.7,0,1.3-0.3,1.8-0.9c0.5-0.6,0.8-1.5,0.8-2.7c0-1.3-0.3-2.3-0.8-2.9
	c-0.5-0.6-1.1-0.9-1.9-0.9c-0.7,0-1.3,0.3-1.8,0.9C481.3,170,481,171,481,172.3z M496.9,174l1.7,0.2c-0.3,1-0.8,1.8-1.5,2.3
	c-0.7,0.5-1.6,0.8-2.8,0.8c-1.4,0-2.5-0.4-3.4-1.3c-0.8-0.9-1.2-2.1-1.2-3.7c0-1.6,0.4-2.9,1.2-3.8c0.8-0.9,1.9-1.3,3.3-1.3
	c1.3,0,2.3,0.4,3.2,1.3c0.8,0.9,1.2,2.1,1.2,3.7c0,0.1,0,0.2,0,0.4h-7.2c0.1,1.1,0.4,1.9,0.9,2.5c0.5,0.6,1.2,0.8,2,0.8
	c0.6,0,1.1-0.2,1.5-0.5C496.3,175.2,496.7,174.7,496.9,174z M491.5,171.3h5.4c-0.1-0.8-0.3-1.4-0.6-1.8c-0.5-0.6-1.2-1-2-1
	c-0.8,0-1.4,0.3-1.9,0.8C491.9,169.8,491.6,170.5,491.5,171.3z M500.7,177.1v-9.7h1.5v1.4c0.7-1.1,1.7-1.6,3.1-1.6
	c0.6,0,1.1,0.1,1.6,0.3c0.5,0.2,0.9,0.5,1.1,0.8c0.2,0.3,0.4,0.7,0.5,1.2c0.1,0.3,0.1,0.8,0.1,1.6v6h-1.6v-5.9
	c0-0.7-0.1-1.2-0.2-1.5c-0.1-0.3-0.3-0.6-0.7-0.8c-0.3-0.2-0.7-0.3-1.1-0.3c-0.7,0-1.3,0.2-1.8,0.7c-0.5,0.4-0.8,1.3-0.8,2.5v5.3
	H500.7z"/>
<path id="path23511" d="M446.8,201.1v-13.4h1.8v11.8h6.6v1.6H446.8z M457.1,189.6v-1.9h1.6v1.9H457.1z M457.1,201.1v-9.7h1.6v9.7
	H457.1z M461.2,201.1v-9.7h1.5v1.4c0.7-1.1,1.7-1.6,3.1-1.6c0.6,0,1.1,0.1,1.6,0.3c0.5,0.2,0.9,0.5,1.1,0.8c0.2,0.3,0.4,0.7,0.5,1.2
	c0.1,0.3,0.1,0.8,0.1,1.6v6h-1.6v-5.9c0-0.7-0.1-1.2-0.2-1.5c-0.1-0.3-0.3-0.6-0.7-0.8c-0.3-0.2-0.7-0.3-1.1-0.3
	c-0.7,0-1.3,0.2-1.8,0.7c-0.5,0.4-0.8,1.3-0.8,2.5v5.3H461.2z M478.2,198l1.7,0.2c-0.3,1-0.8,1.8-1.5,2.3c-0.7,0.5-1.6,0.8-2.8,0.8
	c-1.4,0-2.5-0.4-3.4-1.3c-0.8-0.9-1.2-2.1-1.2-3.7c0-1.6,0.4-2.9,1.2-3.8c0.8-0.9,1.9-1.3,3.3-1.3c1.3,0,2.3,0.4,3.2,1.3
	c0.8,0.9,1.2,2.1,1.2,3.7c0,0.1,0,0.2,0,0.4h-7.2c0.1,1.1,0.4,1.9,0.9,2.5c0.5,0.6,1.2,0.8,2,0.8c0.6,0,1.1-0.2,1.5-0.5
	C477.7,199.2,478,198.7,478.2,198z M472.9,195.3h5.4c-0.1-0.8-0.3-1.4-0.6-1.8c-0.5-0.6-1.2-1-2-1c-0.8,0-1.4,0.3-1.9,0.8
	C473.2,193.8,472.9,194.5,472.9,195.3z M488.3,199.9c-0.6,0.5-1.2,0.9-1.8,1.1c-0.6,0.2-1.2,0.3-1.8,0.3c-1.1,0-1.9-0.3-2.5-0.8
	c-0.6-0.5-0.9-1.2-0.9-2c0-0.5,0.1-0.9,0.3-1.3c0.2-0.4,0.5-0.7,0.8-0.9c0.4-0.2,0.8-0.4,1.2-0.5c0.3-0.1,0.8-0.2,1.5-0.2
	c1.3-0.2,2.3-0.3,2.9-0.6c0-0.2,0-0.4,0-0.4c0-0.7-0.2-1.1-0.5-1.4c-0.4-0.4-1-0.5-1.9-0.5c-0.8,0-1.3,0.1-1.7,0.4
	c-0.4,0.3-0.6,0.7-0.8,1.4l-1.6-0.2c0.1-0.7,0.4-1.2,0.7-1.6c0.3-0.4,0.8-0.8,1.5-1c0.6-0.2,1.4-0.3,2.2-0.3c0.8,0,1.5,0.1,2,0.3
	c0.5,0.2,0.9,0.4,1.1,0.7c0.2,0.3,0.4,0.7,0.5,1.1c0.1,0.3,0.1,0.8,0.1,1.5v2.2c0,1.5,0,2.5,0.1,2.9c0.1,0.4,0.2,0.8,0.4,1.2h-1.7
	C488.5,200.7,488.3,200.3,488.3,199.9L488.3,199.9z M488.2,196.2c-0.6,0.2-1.5,0.5-2.7,0.6c-0.7,0.1-1.2,0.2-1.4,0.3
	s-0.5,0.3-0.7,0.5c-0.1,0.2-0.2,0.5-0.2,0.8c0,0.4,0.2,0.8,0.5,1.1c0.3,0.3,0.8,0.4,1.5,0.4c0.6,0,1.2-0.1,1.7-0.4
	c0.5-0.3,0.9-0.7,1.1-1.1c0.2-0.4,0.3-0.9,0.3-1.6V196.2z M492.4,201.1v-9.7h1.5v1.5c0.4-0.7,0.7-1.1,1-1.4c0.3-0.2,0.7-0.3,1.1-0.3
	c0.6,0,1.1,0.2,1.7,0.5l-0.6,1.5c-0.4-0.2-0.8-0.4-1.2-0.4c-0.4,0-0.7,0.1-1,0.3s-0.5,0.5-0.6,0.9c-0.2,0.6-0.3,1.2-0.3,1.9v5.1
	H492.4z"/>
<path id="path23513" d="M447,225.1v-13.4h9.7v1.6h-7.9v4.1h7.4v1.6h-7.4v4.5h8.2v1.6H447z M458.1,225.1l3.5-5l-3.3-4.6h2l1.5,2.3
	c0.3,0.4,0.5,0.8,0.7,1.1c0.3-0.4,0.5-0.8,0.7-1.1l1.6-2.3h2l-3.3,4.5l3.6,5.1h-2l-2-3l-0.5-0.8l-2.5,3.8H458.1z M468.5,228.8v-13.4
	h1.5v1.2c0.4-0.5,0.8-0.9,1.2-1.1c0.4-0.2,1-0.4,1.6-0.4c0.8,0,1.5,0.2,2.2,0.6c0.6,0.4,1.1,1,1.4,1.8c0.3,0.8,0.5,1.6,0.5,2.5
	c0,1-0.2,1.9-0.5,2.7c-0.4,0.8-0.9,1.4-1.5,1.8c-0.7,0.4-1.4,0.6-2.1,0.6c-0.5,0-1-0.1-1.5-0.3c-0.4-0.2-0.8-0.5-1.1-0.9v4.7H468.5z
	 M470,220.3c0,1.2,0.2,2.2,0.8,2.8c0.5,0.6,1.1,0.9,1.8,0.9c0.7,0,1.4-0.3,1.9-0.9c0.5-0.6,0.8-1.6,0.8-2.9c0-1.2-0.3-2.2-0.8-2.8
	c-0.5-0.6-1.1-0.9-1.8-0.9c-0.7,0-1.3,0.3-1.9,1C470.2,218.1,470,219,470,220.3z M478.3,220.2c0-1.8,0.5-3.1,1.5-4
	c0.8-0.7,1.8-1.1,3-1.1c1.3,0,2.4,0.4,3.3,1.3c0.8,0.9,1.3,2.1,1.3,3.6c0,1.2-0.2,2.2-0.6,2.9c-0.4,0.7-0.9,1.3-1.6,1.7
	c-0.7,0.4-1.5,0.6-2.3,0.6c-1.4,0-2.4-0.4-3.3-1.3C478.7,223.1,478.3,221.9,478.3,220.2z M479.9,220.2c0,1.2,0.3,2.2,0.8,2.8
	c0.5,0.6,1.2,0.9,2,0.9c0.8,0,1.5-0.3,2-0.9c0.5-0.6,0.8-1.6,0.8-2.8c0-1.2-0.3-2.1-0.8-2.7c-0.5-0.6-1.2-0.9-2-0.9
	c-0.8,0-1.5,0.3-2,0.9C480.2,218.1,479.9,219,479.9,220.2z M489.2,225.1v-9.7h1.5v1.4c0.7-1.1,1.7-1.6,3.1-1.6
	c0.6,0,1.1,0.1,1.6,0.3c0.5,0.2,0.9,0.5,1.1,0.8c0.2,0.3,0.4,0.7,0.5,1.2c0.1,0.3,0.1,0.8,0.1,1.6v6h-1.6v-5.9
	c0-0.7-0.1-1.2-0.2-1.5c-0.1-0.3-0.3-0.6-0.7-0.8c-0.3-0.2-0.7-0.3-1.1-0.3c-0.7,0-1.3,0.2-1.8,0.7c-0.5,0.4-0.8,1.3-0.8,2.5v5.3
	H489.2z M506.2,222l1.7,0.2c-0.3,1-0.8,1.8-1.5,2.3c-0.7,0.5-1.6,0.8-2.8,0.8c-1.4,0-2.5-0.4-3.4-1.3c-0.8-0.9-1.2-2.1-1.2-3.7
	c0-1.6,0.4-2.9,1.2-3.8c0.8-0.9,1.9-1.3,3.3-1.3c1.3,0,2.3,0.4,3.2,1.3c0.8,0.9,1.2,2.1,1.2,3.7c0,0.1,0,0.2,0,0.4h-7.2
	c0.1,1.1,0.4,1.9,0.9,2.5c0.5,0.6,1.2,0.8,2,0.8c0.6,0,1.1-0.2,1.5-0.5C505.7,223.2,506,222.7,506.2,222z M500.9,219.3h5.4
	c-0.1-0.8-0.3-1.4-0.6-1.8c-0.5-0.6-1.2-1-2-1c-0.8,0-1.4,0.3-1.9,0.8C501.2,217.8,500.9,218.5,500.9,219.3z M510,225.1v-9.7h1.5
	v1.4c0.7-1.1,1.7-1.6,3.1-1.6c0.6,0,1.1,0.1,1.6,0.3c0.5,0.2,0.9,0.5,1.1,0.8c0.2,0.3,0.4,0.7,0.5,1.2c0.1,0.3,0.1,0.8,0.1,1.6v6
	h-1.6v-5.9c0-0.7-0.1-1.2-0.2-1.5c-0.1-0.3-0.3-0.6-0.7-0.8c-0.3-0.2-0.7-0.3-1.1-0.3c-0.7,0-1.3,0.2-1.8,0.7
	c-0.5,0.4-0.8,1.3-0.8,2.5v5.3H510z M523.9,223.6l0.2,1.5c-0.5,0.1-0.9,0.1-1.2,0.1c-0.6,0-1.1-0.1-1.4-0.3
	c-0.3-0.2-0.6-0.4-0.7-0.7c-0.1-0.3-0.2-1-0.2-1.9v-5.6h-1.2v-1.3h1.2V213l1.6-1v3.4h1.7v1.3h-1.7v5.7c0,0.5,0,0.8,0.1,0.9
	c0.1,0.1,0.2,0.2,0.3,0.3c0.1,0.1,0.3,0.1,0.6,0.1C523.4,223.7,523.6,223.7,523.9,223.6L523.9,223.6z M525.6,213.6v-1.9h1.6v1.9
	H525.6z M525.6,225.1v-9.7h1.6v9.7H525.6z M536,223.9c-0.6,0.5-1.2,0.9-1.8,1.1c-0.6,0.2-1.2,0.3-1.8,0.3c-1.1,0-1.9-0.3-2.5-0.8
	c-0.6-0.5-0.9-1.2-0.9-2c0-0.5,0.1-0.9,0.3-1.3c0.2-0.4,0.5-0.7,0.8-0.9c0.4-0.2,0.8-0.4,1.2-0.5c0.3-0.1,0.8-0.2,1.5-0.2
	c1.3-0.2,2.3-0.3,2.9-0.6c0-0.2,0-0.4,0-0.4c0-0.7-0.2-1.1-0.5-1.4c-0.4-0.4-1-0.5-1.9-0.5c-0.8,0-1.3,0.1-1.7,0.4
	c-0.4,0.3-0.6,0.7-0.8,1.4l-1.6-0.2c0.1-0.7,0.4-1.2,0.7-1.6c0.3-0.4,0.8-0.8,1.5-1c0.6-0.2,1.4-0.3,2.2-0.3c0.8,0,1.5,0.1,2,0.3
	c0.5,0.2,0.9,0.4,1.1,0.7c0.2,0.3,0.4,0.7,0.5,1.1c0.1,0.3,0.1,0.8,0.1,1.5v2.2c0,1.5,0,2.5,0.1,2.9c0.1,0.4,0.2,0.8,0.4,1.2h-1.7
	C536.2,224.7,536.1,224.3,536,223.9L536,223.9z M535.9,220.2c-0.6,0.2-1.5,0.5-2.7,0.6c-0.7,0.1-1.2,0.2-1.4,0.3s-0.5,0.3-0.7,0.5
	c-0.1,0.2-0.2,0.5-0.2,0.8c0,0.4,0.2,0.8,0.5,1.1c0.3,0.3,0.8,0.4,1.5,0.4c0.6,0,1.2-0.1,1.7-0.4c0.5-0.3,0.9-0.7,1.1-1.1
	c0.2-0.4,0.3-0.9,0.3-1.6V220.2z M540,225.1v-13.4h1.6v13.4H540z"/>
<path id="path23551" class="st0" d="M64.6,305h259v36.2h-259V305z"/>
<path id="path23557" class="st0" d="M65,352.4h258.5v36.2H65V352.4z"/>
<path id="path23674" class="st0" d="M578.3,23.8L578.3,23.8c0-1.9-1.6-3.5-3.5-3.5h-17.2c-0.9,0-1.8,0.4-2.5,1c-0.7,0.7-1,1.6-1,2.5
	l0,0l0,0c0,1.9,1.6,3.5,3.5,3.5h17.2C576.7,27.3,578.3,25.7,578.3,23.8z"/>
<path id="path23676" class="st1" d="M580.3,23.8L580.3,23.8c0-1.9-1.6-3.5-3.5-3.5h-17.2c-0.9,0-1.8,0.4-2.5,1c-0.7,0.7-1,1.6-1,2.5
	l0,0l0,0c0,1.9,1.6,3.5,3.5,3.5h17.2C578.7,27.3,580.3,25.7,580.3,23.8z"/>
<path id="path23690" class="st0" d="M331.8,167.2v76.3"/>
<path id="path23694" class="st0" d="M378.9,243.9h-47.1"/>
<path id="path23700" class="st0" d="M338.7,346.5h73.1"/>
<path id="path23704" class="st0" d="M411.8,347.3v-73.1"/>
<path id="path23708" class="st0" d="M332.5,254.1h46.6"/>
<path id="path23766" class="st0" d="M59.1,323.1L59.1,323.1c0-4.4-3.5-7.9-7.9-7.9l0,0c-2.1,0-4.1,0.8-5.6,2.3
	c-1.5,1.5-2.3,3.5-2.3,5.6l0,0c0,4.4,3.5,7.9,7.9,7.9l0,0C55.5,331,59.1,327.4,59.1,323.1z"/>
<path id="path23784" class="st0" d="M59.1,370.5L59.1,370.5c0-4.4-3.5-7.9-7.9-7.9l0,0c-2.1,0-4.1,0.8-5.6,2.3
	c-1.5,1.5-2.3,3.5-2.3,5.6l0,0c0,4.4,3.5,7.9,7.9,7.9l0,0C55.5,378.4,59.1,374.8,59.1,370.5z"/>
<path id="path23790" class="st0" d="M557,71.8L557,71.8c0-1.9,1.6-3.5,3.5-3.5h17.2c0.9,0,1.8,0.4,2.5,1c0.7,0.7,1,1.6,1,2.5l0,0
	l0,0c0,1.9-1.6,3.5-3.5,3.5h-17.2C558.6,75.3,557,73.7,557,71.8z"/>
<path id="path23792" class="st1" d="M557,71.8L557,71.8c0-1.9,1.6-3.5,3.5-3.5h17.2c0.9,0,1.8,0.4,2.5,1c0.7,0.7,1,1.6,1,2.5l0,0
	l0,0c0,1.9-1.6,3.5-3.5,3.5h-17.2C558.6,75.3,557,73.7,557,71.8z"/>
<path id="path23794" class="st2" d="M554,71.6L554,71.6c0-3.5,2.8-6.4,6.4-6.4l0,0c1.7,0,3.3,0.7,4.5,1.9s1.9,2.8,1.9,4.5l0,0
	c0,3.5-2.8,6.4-6.4,6.4l0,0C556.9,78,554,75.1,554,71.6z"/>
<path id="path23796" class="st1" d="M554,71.6L554,71.6c0-3.5,2.8-6.4,6.4-6.4l0,0c1.7,0,3.3,0.7,4.5,1.9s1.9,2.8,1.9,4.5l0,0
	c0,3.5-2.8,6.4-6.4,6.4l0,0C556.9,78,554,75.1,554,71.6z"/>
<path id="path23804" class="st0" d="M578.3,47.8L578.3,47.8c0-1.9-1.6-3.5-3.5-3.5h-17.2c-0.9,0-1.8,0.4-2.5,1c-0.7,0.7-1,1.6-1,2.5
	l0,0l0,0c0,1.9,1.6,3.5,3.5,3.5h17.2C576.7,51.3,578.3,49.7,578.3,47.8z"/>
<path id="path23806" class="st1" d="M580.3,47.8L580.3,47.8c0-1.9-1.6-3.5-3.5-3.5h-17.2c-0.9,0-1.8,0.4-2.5,1c-0.7,0.7-1,1.6-1,2.5
	l0,0l0,0c0,1.9,1.6,3.5,3.5,3.5h17.2C578.7,51.3,580.3,49.7,580.3,47.8z"/>
<path id="path23812" class="st0" d="M557,119.8L557,119.8c0-1.9,1.6-3.5,3.5-3.5h17.2c0.9,0,1.8,0.4,2.5,1c0.7,0.7,1,1.6,1,2.5l0,0
	l0,0c0,1.9-1.6,3.5-3.5,3.5h-17.2C558.6,123.3,557,121.7,557,119.8z"/>
<path id="path23814" class="st1" d="M557,119.8L557,119.8c0-1.9,1.6-3.5,3.5-3.5h17.2c0.9,0,1.8,0.4,2.5,1c0.7,0.7,1,1.6,1,2.5l0,0
	l0,0c0,1.9-1.6,3.5-3.5,3.5h-17.2C558.6,123.3,557,121.7,557,119.8z"/>
<path id="path23816" class="st2" d="M554,119.6L554,119.6c0-3.5,2.8-6.4,6.4-6.4l0,0c1.7,0,3.3,0.7,4.5,1.9s1.9,2.8,1.9,4.5l0,0
	c0,3.5-2.8,6.4-6.4,6.4l0,0C556.9,126,554,123.1,554,119.6z"/>
<path id="path23818" class="st1" d="M554,119.6L554,119.6c0-3.5,2.8-6.4,6.4-6.4l0,0c1.7,0,3.3,0.7,4.5,1.9s1.9,2.8,1.9,4.5l0,0
	c0,3.5-2.8,6.4-6.4,6.4l0,0C556.9,126,554,123.1,554,119.6z"/>
<path id="path23820" class="st0" d="M578.3,95.8L578.3,95.8c0-1.9-1.6-3.5-3.5-3.5h-17.2c-0.9,0-1.8,0.4-2.5,1c-0.7,0.7-1,1.6-1,2.5
	l0,0l0,0c0,1.9,1.6,3.5,3.5,3.5h17.2C576.7,99.3,578.3,97.7,578.3,95.8z"/>
<path id="path23822" class="st1" d="M580.3,95.8L580.3,95.8c0-1.9-1.6-3.5-3.5-3.5h-17.2c-0.9,0-1.8,0.4-2.5,1c-0.7,0.7-1,1.6-1,2.5
	l0,0l0,0c0,1.9,1.6,3.5,3.5,3.5h17.2C578.7,99.3,580.3,97.7,580.3,95.8z"/>
<path id="path23828" class="st0" d="M557,143.8L557,143.8c0-1.9,1.6-3.5,3.5-3.5h17.2c0.9,0,1.8,0.4,2.5,1c0.7,0.7,1,1.6,1,2.5l0,0
	l0,0c0,1.9-1.6,3.5-3.5,3.5h-17.2C558.6,147.3,557,145.7,557,143.8z"/>
<path id="path23830" class="st1" d="M557,143.8L557,143.8c0-1.9,1.6-3.5,3.5-3.5h17.2c0.9,0,1.8,0.4,2.5,1c0.7,0.7,1,1.6,1,2.5l0,0
	l0,0c0,1.9-1.6,3.5-3.5,3.5h-17.2C558.6,147.3,557,145.7,557,143.8z"/>
<path id="path23832" class="st2" d="M554,143.6L554,143.6c0-3.5,2.8-6.4,6.4-6.4l0,0c1.7,0,3.3,0.7,4.5,1.9c1.2,1.2,1.9,2.8,1.9,4.5
	l0,0c0,3.5-2.8,6.4-6.4,6.4l0,0C556.9,150,554,147.1,554,143.6z"/>
<path id="path23834" class="st1" d="M554,143.6L554,143.6c0-3.5,2.8-6.4,6.4-6.4l0,0c1.7,0,3.3,0.7,4.5,1.9c1.2,1.2,1.9,2.8,1.9,4.5
	l0,0c0,3.5-2.8,6.4-6.4,6.4l0,0C556.9,150,554,147.1,554,143.6z"/>
<path id="path23836" class="st0" d="M578.5,172.3L578.5,172.3c0-1.9-1.6-3.5-3.5-3.5h-17.2c-0.9,0-1.8,0.4-2.5,1
	c-0.7,0.7-1,1.6-1,2.5l0,0l0,0c0,1.9,1.6,3.5,3.5,3.5H575C576.9,175.8,578.5,174.2,578.5,172.3z"/>
<path id="path23838" class="st1" d="M578.5,172.3L578.5,172.3c0-1.9-1.6-3.5-3.5-3.5h-17.2c-0.9,0-1.8,0.4-2.5,1
	c-0.7,0.7-1,1.6-1,2.5l0,0l0,0c0,1.9,1.6,3.5,3.5,3.5H575C576.9,175.8,578.5,174.2,578.5,172.3z"/>
<path id="path23840" class="st3" d="M581.5,172.1L581.5,172.1c0-3.5-2.8-6.4-6.4-6.4l0,0c-1.7,0-3.3,0.7-4.5,1.9
	c-1.2,1.2-1.9,2.8-1.9,4.5l0,0c0,3.5,2.8,6.4,6.4,6.4l0,0C578.6,178.5,581.5,175.6,581.5,172.1z"/>
<path id="path23842" class="st1" d="M581.5,172.1L581.5,172.1c0-3.5-2.8-6.4-6.4-6.4l0,0c-1.7,0-3.3,0.7-4.5,1.9
	c-1.2,1.2-1.9,2.8-1.9,4.5l0,0c0,3.5,2.8,6.4,6.4,6.4l0,0C578.6,178.5,581.5,175.6,581.5,172.1z"/>
<path id="path23844" class="st0" d="M556.7,195.3L556.7,195.3c0-1.9,1.6-3.5,3.5-3.5h17.2c0.9,0,1.8,0.4,2.5,1c0.7,0.7,1,1.6,1,2.5
	l0,0l0,0c0,1.9-1.6,3.5-3.5,3.5h-17.2C558.3,198.8,556.7,197.2,556.7,195.3z"/>
<path id="path23846" class="st1" d="M556.7,195.3L556.7,195.3c0-1.9,1.6-3.5,3.5-3.5h17.2c0.9,0,1.8,0.4,2.5,1c0.7,0.7,1,1.6,1,2.5
	l0,0l0,0c0,1.9-1.6,3.5-3.5,3.5h-17.2C558.3,198.8,556.7,197.2,556.7,195.3z"/>
<path id="path23848" class="st2" d="M553.8,195.1L553.8,195.1c0-3.5,2.8-6.4,6.4-6.4l0,0c1.7,0,3.3,0.7,4.5,1.9
	c1.2,1.2,1.9,2.8,1.9,4.5l0,0c0,3.5-2.8,6.4-6.4,6.4l0,0C556.6,201.5,553.8,198.6,553.8,195.1z"/>
<path id="path23850" class="st1" d="M553.8,195.1L553.8,195.1c0-3.5,2.8-6.4,6.4-6.4l0,0c1.7,0,3.3,0.7,4.5,1.9
	c1.2,1.2,1.9,2.8,1.9,4.5l0,0c0,3.5-2.8,6.4-6.4,6.4l0,0C556.6,201.5,553.8,198.6,553.8,195.1z"/>
<path id="path23852" class="st0" d="M578.5,219.3L578.5,219.3c0-1.9-1.6-3.5-3.5-3.5h-17.2c-0.9,0-1.8,0.4-2.5,1
	c-0.7,0.7-1,1.6-1,2.5l0,0l0,0c0,1.9,1.6,3.5,3.5,3.5H575C576.9,222.8,578.5,221.2,578.5,219.3z"/>
<path id="path23854" class="st1" d="M578.5,219.3L578.5,219.3c0-1.9-1.6-3.5-3.5-3.5h-17.2c-0.9,0-1.8,0.4-2.5,1
	c-0.7,0.7-1,1.6-1,2.5l0,0l0,0c0,1.9,1.6,3.5,3.5,3.5H575C576.9,222.8,578.5,221.2,578.5,219.3z"/>
<path id="path23856" class="st3" d="M581.5,219.1L581.5,219.1c0-3.5-2.8-6.4-6.4-6.4l0,0c-1.7,0-3.3,0.7-4.5,1.9
	c-1.2,1.2-1.9,2.8-1.9,4.5l0,0c0,3.5,2.8,6.4,6.4,6.4l0,0C578.6,225.5,581.5,222.6,581.5,219.1z"/>
<path id="path23858" class="st1" d="M581.5,219.1L581.5,219.1c0-3.5-2.8-6.4-6.4-6.4l0,0c-1.7,0-3.3,0.7-4.5,1.9
	c-1.2,1.2-1.9,2.8-1.9,4.5l0,0c0,3.5,2.8,6.4,6.4,6.4l0,0C578.6,225.5,581.5,222.6,581.5,219.1z"/>
<g id="PolyCollection_1" transform="matrix(1.7082137,0,0,1.7311798,-413.20483,-35.465825)">
</g>
<path id="path23790-2" class="st0" d="M557,71.8L557,71.8c0-1.9,1.6-3.5,3.5-3.5h17.2c0.9,0,1.8,0.4,2.5,1c0.7,0.7,1,1.6,1,2.5l0,0
	l0,0c0,1.9-1.6,3.5-3.5,3.5h-17.2C558.6,75.3,557,73.7,557,71.8z"/>
<path id="path23792-8" class="st1" d="M557,71.8L557,71.8c0-1.9,1.6-3.5,3.5-3.5h17.2c0.9,0,1.8,0.4,2.5,1c0.7,0.7,1,1.6,1,2.5l0,0
	l0,0c0,1.9-1.6,3.5-3.5,3.5h-17.2C558.6,75.3,557,73.7,557,71.8z"/>
<path id="path23794-9" class="st2" d="M554,71.6L554,71.6c0-3.5,2.8-6.4,6.4-6.4l0,0c1.7,0,3.3,0.7,4.5,1.9c1.2,1.2,1.9,2.8,1.9,4.5
	l0,0c0,3.5-2.8,6.4-6.4,6.4l0,0C556.9,78,554,75.1,554,71.6z"/>
<path id="path23796-7" class="st1" d="M554,71.6L554,71.6c0-3.5,2.8-6.4,6.4-6.4l0,0c1.7,0,3.3,0.7,4.5,1.9c1.2,1.2,1.9,2.8,1.9,4.5
	l0,0c0,3.5-2.8,6.4-6.4,6.4l0,0C556.9,78,554,75.1,554,71.6z"/>
<g id="g90791" transform="translate(0,24)">
	<path id="path23794-06" class="st2" d="M554,71.6L554,71.6c0-3.5,2.8-6.4,6.4-6.4l0,0c1.7,0,3.3,0.7,4.5,1.9s1.9,2.8,1.9,4.5l0,0
		c0,3.5-2.8,6.4-6.4,6.4l0,0C556.9,78,554,75.1,554,71.6z"/>
	<path id="path23796-8" class="st1" d="M554,71.6L554,71.6c0-3.5,2.8-6.4,6.4-6.4l0,0c1.7,0,3.3,0.7,4.5,1.9s1.9,2.8,1.9,4.5l0,0
		c0,3.5-2.8,6.4-6.4,6.4l0,0C556.9,78,554,75.1,554,71.6z"/>
	<path id="path23794-9-9" class="st2" d="M554,71.6L554,71.6c0-3.5,2.8-6.4,6.4-6.4l0,0c1.7,0,3.3,0.7,4.5,1.9
		c1.2,1.2,1.9,2.8,1.9,4.5l0,0c0,3.5-2.8,6.4-6.4,6.4l0,0C556.9,78,554,75.1,554,71.6z"/>
	<path id="path23796-7-26" class="st1" d="M554,71.6L554,71.6c0-3.5,2.8-6.4,6.4-6.4l0,0c1.7,0,3.3,0.7,4.5,1.9
		c1.2,1.2,1.9,2.8,1.9,4.5l0,0c0,3.5-2.8,6.4-6.4,6.4l0,0C556.9,78,554,75.1,554,71.6z"/>
</g>
</svg>
