<?xml version="1.0" encoding="UTF-8" standalone="no"?>
<svg
   width="241.92pt"
   height="241.92pt"
   viewBox="0 0 241.92 241.92"
   version="1.1"
   id="svg162250"
   sodipodi:docname="1_pulse.svg"
   inkscape:version="1.2.2 (1:1.2.2+202212051552+b0a8486541)"
   xmlns:inkscape="http://www.inkscape.org/namespaces/inkscape"
   xmlns:sodipodi="http://sodipodi.sourceforge.net/DTD/sodipodi-0.dtd"
   xmlns="http://www.w3.org/2000/svg"
   xmlns:svg="http://www.w3.org/2000/svg"
   xmlns:rdf="http://www.w3.org/1999/02/22-rdf-syntax-ns#"
   xmlns:cc="http://creativecommons.org/ns#"
   xmlns:dc="http://purl.org/dc/elements/1.1/">
  <sodipodi:namedview
     id="namedview162252"
     pagecolor="#ffffff"
     bordercolor="#000000"
     borderopacity="0.25"
     inkscape:showpageshadow="2"
     inkscape:pageopacity="0.0"
     inkscape:pagecheckerboard="0"
     inkscape:deskcolor="#d1d1d1"
     inkscape:document-units="pt"
     showgrid="false"
     inkscape:zoom="0.73164683"
     inkscape:cx="160.59661"
     inkscape:cy="161.28"
     inkscape:window-width="1223"
     inkscape:window-height="779"
     inkscape:window-x="57"
     inkscape:window-y="21"
     inkscape:window-maximized="1"
     inkscape:current-layer="figure_1" />
  <metadata
     id="metadata162140">
    <rdf:RDF>
      <cc:Work>
        <dc:type
           rdf:resource="http://purl.org/dc/dcmitype/StillImage" />
        <dc:date>2023-02-27T16:05:34.904251</dc:date>
        <dc:format>image/svg+xml</dc:format>
        <dc:creator>
          <cc:Agent>
            <dc:title>Matplotlib v3.5.0, https://matplotlib.org/</dc:title>
          </cc:Agent>
        </dc:creator>
      </cc:Work>
    </rdf:RDF>
  </metadata>
  <defs
     id="defs162144">
    <style
       type="text/css"
       id="style162142">*{stroke-linejoin: round; stroke-linecap: butt}</style>
  </defs>
  <g
     id="figure_1">
    <g
       id="axes_1">
      <path
         d="M 101.884489 151.31103  L 102.884489 151.342467  L 103.884489 151.379407  L 104.884489 151.477154  L 105.884489 151.509675  L 106.884489 151.5833  L 107.884489 151.621866  L 108.884489 151.657279  L 109.884489 151.714919  L 110.884489 151.785305  L 111.884489 151.837269  L 112.884489 151.896359  L 113.884489 151.98468  L 114.884489 152.030824  L 115.884489 152.073235  L 116.884489 152.103728  L 117.884489 152.129773  L 118.884489 152.150973  L 119.884489 152.205274  L 120.884489 152.233211  L 121.884489 152.262935  L 122.884489 152.28833  L 123.884489 152.299531  L 124.884489 152.309655  L 125.884489 152.30945  L 126.884489 152.29994  L 127.884489 152.288287  L 128.884489 152.257258  L 129.884489 152.24609  L 130.884489 152.215972  L 131.884489 152.156195  L 132.884489 152.119004  L 133.884489 152.079908  L 134.884489 152.037468  L 135.884489 152.004703  L 136.884489 151.937276  L 137.884489 151.89815  L 138.884489 151.855476  L 139.884489 151.784895  L 140.884489 151.748504  L 141.884489 151.690101  L 142.884489 151.579149  L 143.884489 151.50849  L 144.884489 151.395551  L 145.884489 151.349778  L 146.884489 151.288494  L 147.884489 151.239995  L 148.884489 151.159172  L 149.884489 151.040653  L 150.884489 150.970443  L 151.884489 150.88718  L 152.884489 150.854039  L 153.884489 150.802801  L 154.884489 150.734403  L 155.884489 150.668187  L 156.884489 150.59127  L 157.884489 150.563955  L 158.884489 150.537477  L 159.884489 150.514827  L 160.884489 150.495295  L 161.884489 150.468902  L 163.874296 150.419131  "
         clip-path="url(#pcef4210dc1)"
         style="fill: none; stroke-dasharray: 3.7,1.6; stroke-dashoffset: 0; stroke: #1f77b4"
         id="path162152" />
      <path
         d="M 163.874296 151.31103  L 162.874296 151.279594  L 161.874296 151.242654  L 160.874296 151.144907  L 159.874296 151.112386  L 158.874296 151.038761  L 157.874296 151.000195  L 156.874296 150.964782  L 155.874296 150.907142  L 154.874296 150.836756  L 153.874296 150.784792  L 152.874296 150.725702  L 151.874296 150.637381  L 150.874296 150.591237  L 149.874296 150.548826  L 148.874296 150.518333  L 147.874296 150.492288  L 146.874296 150.471088  L 145.874296 150.416787  L 144.874296 150.388849  L 143.874296 150.359125  L 142.874296 150.333731  L 141.874296 150.32253  L 140.874296 150.312406  L 139.874296 150.312611  L 138.874296 150.322121  L 137.874296 150.333774  L 136.874296 150.364803  L 135.874296 150.375971  L 134.874296 150.406089  L 133.874296 150.465866  L 132.874296 150.503057  L 131.874296 150.542153  L 130.874296 150.584593  L 129.874296 150.617358  L 128.874296 150.684785  L 127.874296 150.723911  L 126.874296 150.766585  L 125.874296 150.837166  L 124.874296 150.873557  L 123.874296 150.93196  L 122.874296 151.042912  L 121.874296 151.113571  L 120.874296 151.22651  L 119.874296 151.272283  L 118.874296 151.333567  L 117.874296 151.382066  L 116.874296 151.462889  L 115.874296 151.581407  L 114.874296 151.651618  L 113.874296 151.734881  L 112.874296 151.768022  L 111.874296 151.81926  L 110.874296 151.887658  L 109.874296 151.953873  L 108.874296 152.03079  L 107.874296 152.058106  L 106.874296 152.084583  L 105.874296 152.107234  L 104.874296 152.126765  L 103.874296 152.153159  L 101.884489 152.20293  "
         clip-path="url(#pcef4210dc1)"
         style="fill: none; stroke-dasharray: 3.7,1.6; stroke-dashoffset: 0; stroke: #ff7f0e"
         id="path162154" />
      <g
         id="patch_3">
        <path
           d="M 75.920538 10.8  L 75.920538 84.671965  L 84.915993 84.671965  L 84.112217 217.941875  M 108.789862 10.8  L 108.789862 84.671965  L 99.794407 84.671965  L 100.598183 217.941875  L 100.598183 217.941875  "
           clip-path="url(#pcef4210dc1)"
           style="fill: none; stroke: #1f77b4; stroke-linejoin: miter"
           id="path162156" />
      </g>
      <g
         id="PolyCollection_1">
        <path
           d="M 108.789862 10.8  L 75.920538 10.8  L 75.920538 52.228375  L 75.920538 52.228375  L 75.920538 84.671965  L 84.915993 84.671965  L 84.908279 86.018126  L 84.900558 87.364286  L 84.892828 88.710447  L 84.885091 90.056608  L 84.877345 91.402768  L 84.869591 92.748929  L 84.86183 94.09509  L 84.85406 95.441251  L 84.846282 96.787411  L 84.838496 98.133572  L 84.830702 99.479733  L 84.8229 100.825893  L 84.81509 102.172054  L 84.807272 103.518215  L 84.799446 104.864376  L 84.791611 106.210536  L 84.783769 107.556697  L 84.775918 108.902858  L 84.768059 110.249018  L 84.760192 111.595179  L 84.752317 112.94134  L 84.744434 114.287501  L 84.736542 115.633661  L 84.728643 116.979822  L 84.720735 118.325983  L 84.712819 119.672143  L 84.704895 121.018304  L 84.696962 122.364465  L 84.689021 123.710625  L 84.681073 125.056786  L 84.673115 126.402947  L 84.66515 127.749108  L 84.657176 129.095268  L 84.649194 130.441429  L 84.641204 131.78759  L 84.633206 133.13375  L 84.625199 134.479911  L 84.617184 135.826072  L 84.60916 137.172233  L 84.601129 138.518393  L 84.593089 139.864554  L 84.58504 141.210715  L 84.576983 142.556875  L 84.568918 143.903036  L 84.560845 145.249197  L 84.552763 146.595357  L 84.544673 147.941518  L 84.536574 149.287679  L 84.528467 150.63384  L 84.520352 151.98  L 84.512228 153.326161  L 84.504096 154.672322  L 84.495955 156.018482  L 84.487806 157.364643  L 84.479649 158.710804  L 84.471483 160.056965  L 84.463308 161.403125  L 84.455125 162.749286  L 84.446934 164.095447  L 84.438734 165.441607  L 84.430525 166.787768  L 84.422308 168.133929  L 84.414083 169.48009  L 84.405849 170.82625  L 84.397606 172.172411  L 84.389355 173.518572  L 84.381096 174.864732  L 84.372827 176.210893  L 84.364551 177.557054  L 84.356265 178.903214  L 84.347971 180.249375  L 84.339669 181.595536  L 84.331358 182.941697  L 84.323038 184.287857  L 84.314709 185.634018  L 84.306372 186.980179  L 84.298027 188.326339  L 84.289672 189.6725  L 84.281309 191.018661  L 84.272938 192.364822  L 84.264557 193.710982  L 84.256168 195.057143  L 84.247771 196.403304  L 84.239364 197.749464  L 84.230949 199.095625  L 84.222525 200.441786  L 84.214093 201.787947  L 84.205651 203.134107  L 84.197201 204.480268  L 84.188742 205.826429  L 84.180275 207.172589  L 84.171798 208.51875  L 84.163313 209.864911  L 84.154819 211.211071  L 84.146316 212.557232  L 84.137804 213.903393  L 84.129284 215.249554  L 84.120755 216.595714  L 84.112217 217.941875  L 100.598183 217.941875  L 100.598183 217.941875  L 100.589645 216.595714  L 100.581116 215.249554  L 100.572596 213.903393  L 100.564084 212.557232  L 100.555581 211.211071  L 100.547087 209.864911  L 100.538602 208.51875  L 100.530125 207.172589  L 100.521658 205.826429  L 100.513199 204.480268  L 100.504749 203.134107  L 100.496307 201.787947  L 100.487875 200.441786  L 100.479451 199.095625  L 100.471036 197.749464  L 100.462629 196.403304  L 100.454232 195.057143  L 100.445843 193.710982  L 100.437462 192.364822  L 100.429091 191.018661  L 100.420728 189.6725  L 100.412373 188.326339  L 100.404028 186.980179  L 100.395691 185.634018  L 100.387362 184.287857  L 100.379042 182.941697  L 100.370731 181.595536  L 100.362429 180.249375  L 100.354135 178.903214  L 100.345849 177.557054  L 100.337573 176.210893  L 100.329304 174.864732  L 100.321045 173.518572  L 100.312794 172.172411  L 100.304551 170.82625  L 100.296317 169.48009  L 100.288092 168.133929  L 100.279875 166.787768  L 100.271666 165.441607  L 100.263466 164.095447  L 100.255275 162.749286  L 100.247092 161.403125  L 100.238917 160.056965  L 100.230751 158.710804  L 100.222594 157.364643  L 100.214445 156.018482  L 100.206304 154.672322  L 100.198172 153.326161  L 100.190048 151.98  L 100.181933 150.63384  L 100.173826 149.287679  L 100.165727 147.941518  L 100.157637 146.595357  L 100.149555 145.249197  L 100.141482 143.903036  L 100.133417 142.556875  L 100.12536 141.210715  L 100.117311 139.864554  L 100.109271 138.518393  L 100.10124 137.172233  L 100.093216 135.826072  L 100.085201 134.479911  L 100.077194 133.13375  L 100.069196 131.78759  L 100.061206 130.441429  L 100.053224 129.095268  L 100.04525 127.749108  L 100.037285 126.402947  L 100.029327 125.056786  L 100.021379 123.710625  L 100.013438 122.364465  L 100.005505 121.018304  L 99.997581 119.672143  L 99.989665 118.325983  L 99.981757 116.979822  L 99.973858 115.633661  L 99.965966 114.287501  L 99.958083 112.94134  L 99.950208 111.595179  L 99.942341 110.249018  L 99.934482 108.902858  L 99.926631 107.556697  L 99.918789 106.210536  L 99.910954 104.864376  L 99.903128 103.518215  L 99.89531 102.172054  L 99.8875 100.825893  L 99.879698 99.479733  L 99.871904 98.133572  L 99.864118 96.787411  L 99.85634 95.441251  L 99.84857 94.09509  L 99.840809 92.748929  L 99.833055 91.402768  L 99.825309 90.056608  L 99.817572 88.710447  L 99.809842 87.364286  L 99.802121 86.018126  L 99.794407 84.671965  L 108.789862 84.671965  L 108.789862 52.228375  L 108.789862 52.228375  L 108.789862 10.8  z "
           clip-path="url(#pcef4210dc1)"
           style="fill: #1f77b4; fill-opacity: 0.5"
           id="path162159" />
      </g>
      <g
         id="patch_4">
        <path
           d="M 175.521786 84.671965  L 174.544859 96.787411  L 173.453637 107.556697  L 172.285609 116.979822  L 170.875238 126.402947  L 169.435617 134.479911  L 167.743497 142.556875  L 166.10879 149.287679  L 164.238426 156.018482  L 162.098435 162.749286  L 160.166372 168.133929  L 158.014532 173.518572  L 155.617914 178.903214  L 152.948674 184.287857  L 149.975802 189.6725  L 147.526254 193.710982  L 144.870563 197.749464  L 141.991382 201.787947  L 138.869902 205.826429  L 135.485731 209.864911  L 131.816765 213.903393  L 127.839034 217.941875  M 182.644614 84.671965  L 183.621541 96.787411  L 184.712763 107.556697  L 185.880791 116.979822  L 187.291162 126.402947  L 188.730783 134.479911  L 190.422903 142.556875  L 192.05761 149.287679  L 193.927974 156.018482  L 196.067965 162.749286  L 198.000028 168.133929  L 200.151868 173.518572  L 202.548486 178.903214  L 205.217726 184.287857  L 208.190598 189.6725  L 210.640146 193.710982  L 213.295837 197.749464  L 216.175018 201.787947  L 219.296498 205.826429  L 222.680669 209.864911  L 226.349635 213.903393  L 230.327366 217.941875  L 230.327366 217.941875  "
           clip-path="url(#pcef4210dc1)"
           style="fill: none; stroke: #ff7f0e; stroke-linejoin: miter"
           id="path162162" />
      </g>
      <g
         id="PolyCollection_2">
        <path
           d="M 182.644614 84.671965  L 175.521786 84.671965  L 175.424561 86.018126  L 175.324681 87.364286  L 175.222074 88.710447  L 175.116666 90.056608  L 175.008381 91.402768  L 174.897139 92.748929  L 174.78286 94.09509  L 174.665462 95.441251  L 174.544859 96.787411  L 174.420963 98.133572  L 174.293685 99.479733  L 174.162933 100.825893  L 174.02861 102.172054  L 173.890621 103.518215  L 173.748865 104.864376  L 173.603239 106.210536  L 173.453637 107.556697  L 173.299951 108.902858  L 173.14207 110.249018  L 172.979879 111.595179  L 172.813259 112.94134  L 172.642091 114.287501  L 172.46625 115.633661  L 172.285609 116.979822  L 172.100037 118.325983  L 171.909398 119.672143  L 171.713555 121.018304  L 171.512365 122.364465  L 171.305683 123.710625  L 171.093358 125.056786  L 170.875238 126.402947  L 170.651162 127.749108  L 170.420969 129.095268  L 170.184492 130.441429  L 169.94156 131.78759  L 169.691995 133.13375  L 169.435617 134.479911  L 169.17224 135.826072  L 168.901673 137.172233  L 168.62372 138.518393  L 168.338179 139.864554  L 168.044842 141.210715  L 167.743497 142.556875  L 167.433926 143.903036  L 167.115904 145.249197  L 166.789199 146.595357  L 166.453576 147.941518  L 166.10879 149.287679  L 165.754591 150.63384  L 165.390723 151.98  L 165.016922 153.326161  L 164.632916 154.672322  L 164.238426 156.018482  L 163.833167 157.364643  L 163.416845 158.710804  L 162.989157 160.056965  L 162.549793 161.403125  L 162.098435 162.749286  L 161.634755 164.095447  L 161.158416 165.441607  L 160.669073 166.787768  L 160.166372 168.133929  L 159.649947 169.48009  L 159.119423 170.82625  L 158.574417 172.172411  L 158.014532 173.518572  L 157.439362 174.864732  L 156.84849 176.210893  L 156.241487 177.557054  L 155.617914 178.903214  L 154.977317 180.249375  L 154.319232 181.595536  L 153.643181 182.941697  L 152.948674 184.287857  L 152.235208 185.634018  L 151.502264 186.980179  L 150.74931 188.326339  L 149.975802 189.6725  L 149.181176 191.018661  L 148.364858 192.364822  L 147.526254 193.710982  L 146.664756 195.057143  L 145.77974 196.403304  L 144.870563 197.749464  L 143.936566 199.095625  L 142.977071 200.441786  L 141.991382 201.787947  L 140.978784 203.134107  L 139.938542 204.480268  L 138.869902 205.826429  L 137.772088 207.172589  L 136.644304 208.51875  L 135.485731 209.864911  L 134.29553 211.211071  L 133.072837 212.557232  L 131.816765 213.903393  L 130.526402 215.249554  L 129.200812 216.595714  L 127.839034 217.941875  L 230.327366 217.941875  L 230.327366 217.941875  L 228.965588 216.595714  L 227.639998 215.249554  L 226.349635 213.903393  L 225.093563 212.557232  L 223.87087 211.211071  L 222.680669 209.864911  L 221.522096 208.51875  L 220.394312 207.172589  L 219.296498 205.826429  L 218.227858 204.480268  L 217.187616 203.134107  L 216.175018 201.787947  L 215.189329 200.441786  L 214.229834 199.095625  L 213.295837 197.749464  L 212.38666 196.403304  L 211.501644 195.057143  L 210.640146 193.710982  L 209.801542 192.364822  L 208.985224 191.018661  L 208.190598 189.6725  L 207.41709 188.326339  L 206.664136 186.980179  L 205.931192 185.634018  L 205.217726 184.287857  L 204.523219 182.941697  L 203.847168 181.595536  L 203.189083 180.249375  L 202.548486 178.903214  L 201.924913 177.557054  L 201.31791 176.210893  L 200.727038 174.864732  L 200.151868 173.518572  L 199.591983 172.172411  L 199.046977 170.82625  L 198.516453 169.48009  L 198.000028 168.133929  L 197.497327 166.787768  L 197.007984 165.441607  L 196.531645 164.095447  L 196.067965 162.749286  L 195.616607 161.403125  L 195.177243 160.056965  L 194.749555 158.710804  L 194.333233 157.364643  L 193.927974 156.018482  L 193.533484 154.672322  L 193.149478 153.326161  L 192.775677 151.98  L 192.411809 150.63384  L 192.05761 149.287679  L 191.712824 147.941518  L 191.377201 146.595357  L 191.050496 145.249197  L 190.732474 143.903036  L 190.422903 142.556875  L 190.121558 141.210715  L 189.828221 139.864554  L 189.54268 138.518393  L 189.264727 137.172233  L 188.99416 135.826072  L 188.730783 134.479911  L 188.474405 133.13375  L 188.22484 131.78759  L 187.981908 130.441429  L 187.745431 129.095268  L 187.515238 127.749108  L 187.291162 126.402947  L 187.073042 125.056786  L 186.860717 123.710625  L 186.654035 122.364465  L 186.452845 121.018304  L 186.257002 119.672143  L 186.066363 118.325983  L 185.880791 116.979822  L 185.70015 115.633661  L 185.524309 114.287501  L 185.353141 112.94134  L 185.186521 111.595179  L 185.02433 110.249018  L 184.866449 108.902858  L 184.712763 107.556697  L 184.563161 106.210536  L 184.417535 104.864376  L 184.275779 103.518215  L 184.13779 102.172054  L 184.003467 100.825893  L 183.872715 99.479733  L 183.745437 98.133572  L 183.621541 96.787411  L 183.500938 95.441251  L 183.38354 94.09509  L 183.269261 92.748929  L 183.158019 91.402768  L 183.049734 90.056608  L 182.944326 88.710447  L 182.841719 87.364286  L 182.741839 86.018126  L 182.644614 84.671965  z "
           clip-path="url(#pcef4210dc1)"
           style="fill: #ff7f0e; fill-opacity: 0.5"
           id="path162165" />
      </g>
      <g
         id="patch_5">
        <path
           d="M 110.789702 84.671965  L 111.789702 84.703401  L 112.789702 84.740342  L 113.789702 84.838088  L 114.789702 84.87061  L 115.789702 84.944235  L 116.789702 84.9828  L 117.789702 85.018213  L 118.789702 85.075853  L 119.789702 85.146239  L 120.789702 85.198204  L 121.789702 85.257293  L 122.789702 85.345614  L 123.789702 85.391759  L 124.789702 85.43417  L 125.789702 85.464662  L 126.789702 85.490707  L 127.789702 85.511907  L 128.789702 85.566208  L 129.789702 85.594146  L 130.789702 85.62387  L 131.789702 85.649265  L 132.789702 85.660465  L 133.789702 85.670589  L 134.789702 85.670385  L 135.789702 85.660875  L 136.789702 85.649221  L 137.789702 85.618192  L 138.789702 85.607024  L 139.789702 85.576907  L 140.789702 85.51713  L 141.789702 85.479938  L 142.789702 85.440842  L 143.789702 85.398402  L 144.789702 85.365637  L 145.789702 85.298211  L 146.789702 85.259085  L 147.789702 85.21641  L 148.789702 85.14583  L 149.789702 85.109439  L 150.789702 85.051036  L 151.789702 84.940083  L 152.789702 84.869425  L 153.789702 84.756485  L 154.789702 84.710712  L 155.789702 84.649429  L 156.789702 84.60093  L 157.789702 84.520107  L 158.789702 84.401588  L 159.789702 84.331377  L 160.789702 84.248115  L 161.789702 84.214973  L 162.789702 84.163736  L 163.789702 84.095337  L 164.789702 84.029122  L 165.789702 83.952205  L 166.789702 83.924889  L 167.789702 83.898412  L 168.789702 83.875761  L 169.789702 83.85623  L 170.789702 83.829836  L 172.40063 83.780065  "
           clip-path="url(#pcef4210dc1)"
           style="fill: none; stroke: #ffffff; stroke-width: 3; stroke-linecap: round"
           id="path162223" />
        <path
           d="M 110.789702 84.671965  L 111.789702 84.703401  L 112.789702 84.740342  L 113.789702 84.838088  L 114.789702 84.87061  L 115.789702 84.944235  L 116.789702 84.9828  L 117.789702 85.018213  L 118.789702 85.075853  L 119.789702 85.146239  L 120.789702 85.198204  L 121.789702 85.257293  L 122.789702 85.345614  L 123.789702 85.391759  L 124.789702 85.43417  L 125.789702 85.464662  L 126.789702 85.490707  L 127.789702 85.511907  L 128.789702 85.566208  L 129.789702 85.594146  L 130.789702 85.62387  L 131.789702 85.649265  L 132.789702 85.660465  L 133.789702 85.670589  L 134.789702 85.670385  L 135.789702 85.660875  L 136.789702 85.649221  L 137.789702 85.618192  L 138.789702 85.607024  L 139.789702 85.576907  L 140.789702 85.51713  L 141.789702 85.479938  L 142.789702 85.440842  L 143.789702 85.398402  L 144.789702 85.365637  L 145.789702 85.298211  L 146.789702 85.259085  L 147.789702 85.21641  L 148.789702 85.14583  L 149.789702 85.109439  L 150.789702 85.051036  L 151.789702 84.940083  L 152.789702 84.869425  L 153.789702 84.756485  L 154.789702 84.710712  L 155.789702 84.649429  L 156.789702 84.60093  L 157.789702 84.520107  L 158.789702 84.401588  L 159.789702 84.331377  L 160.789702 84.248115  L 161.789702 84.214973  L 162.789702 84.163736  L 163.789702 84.095337  L 164.789702 84.029122  L 165.789702 83.952205  L 166.789702 83.924889  L 167.789702 83.898412  L 168.789702 83.875761  L 169.789702 83.85623  L 170.789702 83.829836  L 172.40063 83.780065  "
           clip-path="url(#pcef4210dc1)"
           style="fill: none; stroke: #1f77b4; stroke-linecap: round"
           id="path162225" />
        <path
           d="M 168.40063 82.671965  L 169.280998 83.147296  L 170.158905 83.62755  L 171.009618 84.162191  L 172.311793 84.849638  L 171.38444 84.875653  L 170.472765 85.288373  L 169.562501 85.703912  L 168.220005 86.310716  L 168.874904 85.671965  L 168.926868 84.671965  L 168.985958 82.671965  L 168.40063 82.671965  z "
           clip-path="url(#pcef4210dc1)"
           style="fill: #ffffff; stroke: #ffffff; stroke-width: 3; stroke-linecap: round"
           id="path162227" />
        <path
           d="M 168.40063 82.671965  L 169.280998 83.147296  L 170.158905 83.62755  L 171.009618 84.162191  L 172.311793 84.849638  L 171.38444 84.875653  L 170.472765 85.288373  L 169.562501 85.703912  L 168.220005 86.310716  L 168.874904 85.671965  L 168.926868 84.671965  L 168.985958 82.671965  L 168.40063 82.671965  z "
           clip-path="url(#pcef4210dc1)"
           style="fill: #ffffff; stroke: #1f77b4; stroke-linecap: round"
           id="path162229" />
        <path
           d="M 163.874296 151.31103  "
           clip-path="url(#pcef4210dc1)"
           style="fill: none; stroke-dasharray: 3.7,1.6; stroke-dashoffset: 0; stroke: #1f77b4"
           id="path162231" />
        <path
           d="M 164.874296 151.31103  L 162.874296 150.31103  L 162.874296 152.31103  z "
           clip-path="url(#pcef4210dc1)"
           style="fill: #1f77b4; stroke: #1f77b4; stroke-linejoin: miter"
           id="path162233" />
        <path
           d="M 101.884489 151.31103  "
           clip-path="url(#pcef4210dc1)"
           style="fill: none; stroke-dasharray: 3.7,1.6; stroke-dashoffset: 0; stroke: #ff7f0e"
           id="path162235" />
        <path
           d="M 100.884489 151.31103  L 102.884489 152.31103  L 102.884489 150.31103  z "
           clip-path="url(#pcef4210dc1)"
           style="fill: #ff7f0e; stroke: #ff7f0e; stroke-linejoin: miter"
           id="path162237" />
      </g>
    </g>
    <defs
       id="defs162247">
      <clipPath
         id="pcef4210dc1">
        <rect
           x="14.3"
           y="10.8"
           width="216.82"
           height="207.141875"
           id="rect162244" />
      </clipPath>
    </defs>
  </g>
</svg>
