<?xml version="1.0" encoding="UTF-8" standalone="no"?>
<svg
   width="241.92pt"
   height="241.92pt"
   viewBox="0 0 241.92 241.92"
   version="1.1"
   id="svg169307"
   sodipodi:docname="3_pulse.svg"
   inkscape:version="1.2.2 (1:1.2.2+202212051552+b0a8486541)"
   xmlns:inkscape="http://www.inkscape.org/namespaces/inkscape"
   xmlns:sodipodi="http://sodipodi.sourceforge.net/DTD/sodipodi-0.dtd"
   xmlns="http://www.w3.org/2000/svg"
   xmlns:svg="http://www.w3.org/2000/svg"
   xmlns:rdf="http://www.w3.org/1999/02/22-rdf-syntax-ns#"
   xmlns:cc="http://creativecommons.org/ns#"
   xmlns:dc="http://purl.org/dc/elements/1.1/">
  <sodipodi:namedview
     id="namedview169309"
     pagecolor="#ffffff"
     bordercolor="#000000"
     borderopacity="0.25"
     inkscape:showpageshadow="2"
     inkscape:pageopacity="0.0"
     inkscape:pagecheckerboard="0"
     inkscape:deskcolor="#d1d1d1"
     inkscape:document-units="pt"
     showgrid="false"
     inkscape:zoom="0.73164683"
     inkscape:cx="160.59661"
     inkscape:cy="161.28"
     inkscape:window-width="1223"
     inkscape:window-height="779"
     inkscape:window-x="57"
     inkscape:window-y="21"
     inkscape:window-maximized="1"
     inkscape:current-layer="figure_1" />
  <metadata
     id="metadata169173">
    <rdf:RDF>
      <cc:Work>
        <dc:type
           rdf:resource="http://purl.org/dc/dcmitype/StillImage" />
        <dc:date>2023-02-27T16:06:10.813071</dc:date>
        <dc:format>image/svg+xml</dc:format>
        <dc:creator>
          <cc:Agent>
            <dc:title>Matplotlib v3.5.0, https://matplotlib.org/</dc:title>
          </cc:Agent>
        </dc:creator>
      </cc:Work>
    </rdf:RDF>
  </metadata>
  <defs
     id="defs169177">
    <style
       type="text/css"
       id="style169175">*{stroke-linejoin: round; stroke-linecap: butt}</style>
  </defs>
  <g
     id="figure_1">
    <g
       id="axes_1">
      <path
         d="M 101.530835 94.101401  L 102.530835 94.132837  L 103.530835 94.169778  L 104.530835 94.267524  L 105.530835 94.300046  L 106.530835 94.373671  L 107.530835 94.412236  L 108.530835 94.447649  L 109.530835 94.505289  L 110.530835 94.575675  L 111.530835 94.62764  L 112.530835 94.686729  L 113.530835 94.77505  L 114.530835 94.821195  L 115.530835 94.863606  L 116.530835 94.894098  L 117.530835 94.920143  L 118.530835 94.941343  L 119.530835 94.995644  L 120.530835 95.023582  L 121.530835 95.053306  L 122.530835 95.078701  L 123.530835 95.089901  L 124.530835 95.100025  L 125.530835 95.099821  L 126.530835 95.090311  L 127.530835 95.078657  L 128.530835 95.047628  L 129.530835 95.03646  L 130.530835 95.006343  L 131.530835 94.946566  L 132.530835 94.909374  L 133.530835 94.870278  L 134.530835 94.827838  L 135.530835 94.795073  L 136.530835 94.727647  L 137.530835 94.688521  L 138.530835 94.645846  L 139.530835 94.575266  L 140.530835 94.538875  L 141.530835 94.480472  L 142.530835 94.369519  L 143.530835 94.298861  L 144.530835 94.185921  L 145.530835 94.140148  L 146.530835 94.078865  L 147.530835 94.030366  L 148.530835 93.949543  L 149.530835 93.831024  L 150.530835 93.760813  L 151.530835 93.677551  L 152.530835 93.644409  L 153.530835 93.593172  L 154.530835 93.524773  L 155.530835 93.458558  L 156.530835 93.381641  L 157.530835 93.354325  L 158.530835 93.327848  L 159.530835 93.305197  L 160.530835 93.285666  L 161.530835 93.259272  L 162.530835 93.209501  L 163.530835 93.174428  L 164.530835 93.138562  L 165.530835 93.123195  L 166.530835 93.107426  L 167.530835 93.104013  L 168.530835 93.101596  L 169.774492 93.102082  "
         clip-path="url(#pfca8cf8ab6)"
         style="fill: none; stroke-dasharray: 3.7,1.6; stroke-dashoffset: 0; stroke: #1f77b4"
         id="path169185" />
      <path
         d="M 169.774492 94.101401  L 168.774492 94.069965  L 167.774492 94.033024  L 166.774492 93.935278  L 165.774492 93.902756  L 164.774492 93.829131  L 163.774492 93.790566  L 162.774492 93.755153  L 161.774492 93.697513  L 160.774492 93.627126  L 159.774492 93.575162  L 158.774492 93.516072  L 157.774492 93.427751  L 156.774492 93.381607  L 155.774492 93.339196  L 154.774492 93.308704  L 153.774492 93.282659  L 152.774492 93.261459  L 151.774492 93.207157  L 150.774492 93.17922  L 149.774492 93.149496  L 148.774492 93.124101  L 147.774492 93.112901  L 146.774492 93.102777  L 145.774492 93.102981  L 144.774492 93.112491  L 143.774492 93.124145  L 142.774492 93.155174  L 141.774492 93.166342  L 140.774492 93.196459  L 139.774492 93.256236  L 138.774492 93.293428  L 137.774492 93.332524  L 136.774492 93.374963  L 135.774492 93.407729  L 134.774492 93.475155  L 133.774492 93.514281  L 132.774492 93.556955  L 131.774492 93.627536  L 130.774492 93.663927  L 129.774492 93.72233  L 128.774492 93.833283  L 127.774492 93.903941  L 126.774492 94.016881  L 125.774492 94.062654  L 124.774492 94.123937  L 123.774492 94.172436  L 122.774492 94.253259  L 121.774492 94.371778  L 120.774492 94.441989  L 119.774492 94.525251  L 118.774492 94.558393  L 117.774492 94.60963  L 116.774492 94.678028  L 115.774492 94.744244  L 114.774492 94.821161  L 113.774492 94.848476  L 112.774492 94.874954  L 111.774492 94.897605  L 110.774492 94.917136  L 109.774492 94.94353  L 108.774492 94.993301  L 107.774492 95.028374  L 106.774492 95.064239  L 105.774492 95.079607  L 104.774492 95.095376  L 103.774492 95.098789  L 102.774492 95.101206  L 101.530835 95.10072  "
         clip-path="url(#pfca8cf8ab6)"
         style="fill: none; stroke-dasharray: 3.7,1.6; stroke-dashoffset: 0; stroke: #ff7f0e"
         id="path169187" />
      <path
         d="M 101.725998 135.378819  L 102.725998 135.410255  L 103.725998 135.447195  L 104.725998 135.544942  L 105.725998 135.577464  L 106.725998 135.651088  L 107.725998 135.689654  L 108.725998 135.725067  L 109.725998 135.782707  L 110.725998 135.853093  L 111.725998 135.905057  L 112.725998 135.964147  L 113.725998 136.052468  L 114.725998 136.098612  L 115.725998 136.141023  L 116.725998 136.171516  L 117.725998 136.197561  L 118.725998 136.218761  L 119.725998 136.273062  L 120.725998 136.301  L 121.725998 136.330724  L 122.725998 136.356118  L 123.725998 136.367319  L 124.725998 136.377443  L 125.725998 136.377238  L 126.725998 136.367729  L 127.725998 136.356075  L 128.725998 136.325046  L 129.725998 136.313878  L 130.725998 136.28376  L 131.725998 136.223983  L 132.725998 136.186792  L 133.725998 136.147696  L 134.725998 136.105256  L 135.725998 136.072491  L 136.725998 136.005065  L 137.725998 135.965939  L 138.725998 135.923264  L 139.725998 135.852683  L 140.725998 135.816293  L 141.725998 135.757889  L 142.725998 135.646937  L 143.725998 135.576279  L 144.725998 135.463339  L 145.725998 135.417566  L 146.725998 135.356283  L 147.725998 135.307783  L 148.725998 135.226961  L 149.725998 135.108442  L 150.725998 135.038231  L 151.725998 134.954969  L 152.725998 134.921827  L 153.725998 134.870589  L 154.725998 134.802191  L 155.725998 134.735976  L 156.725998 134.659059  L 157.725998 134.631743  L 158.725998 134.605266  L 159.725998 134.582615  L 160.725998 134.563084  L 161.725998 134.53669  L 162.725998 134.486919  L 164.487004 134.451846  "
         clip-path="url(#pfca8cf8ab6)"
         style="fill: none; stroke-dasharray: 3.7,1.6; stroke-dashoffset: 0; stroke: #1f77b4"
         id="path169189" />
      <path
         d="M 164.487004 135.378819  L 163.487004 135.347382  L 162.487004 135.310442  L 161.487004 135.212695  L 160.487004 135.180174  L 159.487004 135.106549  L 158.487004 135.067983  L 157.487004 135.03257  L 156.487004 134.97493  L 155.487004 134.904544  L 154.487004 134.85258  L 153.487004 134.79349  L 152.487004 134.705169  L 151.487004 134.659025  L 150.487004 134.616614  L 149.487004 134.586121  L 148.487004 134.560076  L 147.487004 134.538876  L 146.487004 134.484575  L 145.487004 134.456638  L 144.487004 134.426914  L 143.487004 134.401519  L 142.487004 134.390318  L 141.487004 134.380194  L 140.487004 134.380399  L 139.487004 134.389909  L 138.487004 134.401562  L 137.487004 134.432591  L 136.487004 134.443759  L 135.487004 134.473877  L 134.487004 134.533654  L 133.487004 134.570845  L 132.487004 134.609942  L 131.487004 134.652381  L 130.487004 134.685146  L 129.487004 134.752573  L 128.487004 134.791699  L 127.487004 134.834373  L 126.487004 134.904954  L 125.487004 134.941345  L 124.487004 134.999748  L 123.487004 135.1107  L 122.487004 135.181359  L 121.487004 135.294299  L 120.487004 135.340071  L 119.487004 135.401355  L 118.487004 135.449854  L 117.487004 135.530677  L 116.487004 135.649196  L 115.487004 135.719406  L 114.487004 135.802669  L 113.487004 135.83581  L 112.487004 135.887048  L 111.487004 135.955446  L 110.487004 136.021662  L 109.487004 136.098579  L 108.487004 136.125894  L 107.487004 136.152372  L 106.487004 136.175022  L 105.487004 136.194554  L 104.487004 136.220948  L 103.487004 136.270718  L 101.725998 136.305792  "
         clip-path="url(#pfca8cf8ab6)"
         style="fill: none; stroke-dasharray: 3.7,1.6; stroke-dashoffset: 0; stroke: #ff7f0e"
         id="path169191" />
      <path
         d="M 101.926185 176.664457  L 102.926185 176.695894  L 103.926185 176.732834  L 104.926185 176.830581  L 105.926185 176.863102  L 106.926185 176.936727  L 107.926185 176.975293  L 108.926185 177.010706  L 109.926185 177.068346  L 110.926185 177.138732  L 111.926185 177.190696  L 112.926185 177.249786  L 113.926185 177.338107  L 114.926185 177.384251  L 115.926185 177.426662  L 116.926185 177.457155  L 117.926185 177.4832  L 118.926185 177.5044  L 119.926185 177.558701  L 120.926185 177.586638  L 121.926185 177.616362  L 122.926185 177.641757  L 123.926185 177.652958  L 124.926185 177.663082  L 125.926185 177.662877  L 126.926185 177.653367  L 127.926185 177.641714  L 128.926185 177.610684  L 129.926185 177.599517  L 130.926185 177.569399  L 131.926185 177.509622  L 132.926185 177.472431  L 133.926185 177.433334  L 134.926185 177.390895  L 135.926185 177.35813  L 136.926185 177.290703  L 137.926185 177.251577  L 138.926185 177.208903  L 139.926185 177.138322  L 140.926185 177.101931  L 141.926185 177.043528  L 142.926185 176.932576  L 143.926185 176.861917  L 144.926185 176.748977  L 145.926185 176.703205  L 146.926185 176.641921  L 147.926185 176.593422  L 148.926185 176.512599  L 149.926185 176.39408  L 150.926185 176.32387  L 151.926185 176.240607  L 152.926185 176.207465  L 153.926185 176.156228  L 155.601634 176.08783  "
         clip-path="url(#pfca8cf8ab6)"
         style="fill: none; stroke-dasharray: 3.7,1.6; stroke-dashoffset: 0; stroke: #1f77b4"
         id="path169193" />
      <path
         d="M 155.601634 176.664457  L 154.601634 176.633021  L 153.601634 176.596081  L 152.601634 176.498334  L 151.601634 176.465812  L 150.601634 176.392188  L 149.601634 176.353622  L 148.601634 176.318209  L 147.601634 176.260569  L 146.601634 176.190183  L 145.601634 176.138219  L 144.601634 176.079129  L 143.601634 175.990808  L 142.601634 175.944664  L 141.601634 175.902253  L 140.601634 175.87176  L 139.601634 175.845715  L 138.601634 175.824515  L 137.601634 175.770214  L 136.601634 175.742276  L 135.601634 175.712552  L 134.601634 175.687158  L 133.601634 175.675957  L 132.601634 175.665833  L 131.601634 175.666038  L 130.601634 175.675547  L 129.601634 175.687201  L 128.601634 175.71823  L 127.601634 175.729398  L 126.601634 175.759516  L 125.601634 175.819293  L 124.601634 175.856484  L 123.601634 175.89558  L 122.601634 175.93802  L 121.601634 175.970785  L 120.601634 176.038211  L 119.601634 176.077337  L 118.601634 176.120012  L 117.601634 176.190592  L 116.601634 176.226983  L 115.601634 176.285387  L 114.601634 176.396339  L 113.601634 176.466997  L 112.601634 176.579937  L 111.601634 176.62571  L 110.601634 176.686993  L 109.601634 176.735493  L 108.601634 176.816315  L 107.601634 176.934834  L 106.601634 177.005045  L 105.601634 177.088307  L 104.601634 177.121449  L 103.601634 177.172686  L 101.926185 177.241085  "
         clip-path="url(#pfca8cf8ab6)"
         style="fill: none; stroke-dasharray: 3.7,1.6; stroke-dashoffset: 0; stroke: #ff7f0e"
         id="path169195" />
      <g
         id="patch_3">
        <path
           d="M 76.569545 10.8  L 76.569545 52.815762  L 84.903167 52.815762  L 84.112217 217.941875  M 108.140855 10.8  L 108.140855 52.815762  L 99.807233 52.815762  L 100.598183 217.941875  L 100.598183 217.941875  "
           clip-path="url(#pfca8cf8ab6)"
           style="fill: none; stroke: #1f77b4; stroke-linejoin: miter"
           id="path169197" />
      </g>
      <g
         id="PolyCollection_1">
        <path
           d="M 108.140855 10.8  L 76.569545 10.8  L 76.569545 52.228375  L 76.569545 52.228375  L 76.569545 52.815762  L 84.903167 52.815762  L 84.89557 54.483703  L 84.887965 56.151643  L 84.880352 57.819584  L 84.872732 59.487524  L 84.865104 61.155465  L 84.857468 62.823405  L 84.849824 64.491346  L 84.842173 66.159287  L 84.834514 67.827227  L 84.826847 69.495168  L 84.819172 71.163108  L 84.811489 72.831049  L 84.803798 74.498989  L 84.7961 76.16693  L 84.788394 77.83487  L 84.78068 79.502811  L 84.772958 81.170751  L 84.765228 82.838692  L 84.75749 84.506632  L 84.749745 86.174573  L 84.741991 87.842513  L 84.73423 89.510454  L 84.726461 91.178395  L 84.718683 92.846335  L 84.710898 94.514276  L 84.703105 96.182216  L 84.695304 97.850157  L 84.687495 99.518097  L 84.679678 101.186038  L 84.671853 102.853978  L 84.66402 104.521919  L 84.656179 106.189859  L 84.648331 107.8578  L 84.640474 109.52574  L 84.632609 111.193681  L 84.624736 112.861621  L 84.616855 114.529562  L 84.608966 116.197503  L 84.601069 117.865443  L 84.593164 119.533384  L 84.585251 121.201324  L 84.57733 122.869265  L 84.5694 124.537205  L 84.561463 126.205146  L 84.553518 127.873086  L 84.545564 129.541027  L 84.537603 131.208967  L 84.529633 132.876908  L 84.521655 134.544848  L 84.513669 136.212789  L 84.505675 137.880729  L 84.497672 139.54867  L 84.489662 141.216611  L 84.481643 142.884551  L 84.473617 144.552492  L 84.465582 146.220432  L 84.457538 147.888373  L 84.449487 149.556313  L 84.441427 151.224254  L 84.43336 152.892194  L 84.425284 154.560135  L 84.417199 156.228075  L 84.409107 157.896016  L 84.401006 159.563956  L 84.392897 161.231897  L 84.38478 162.899837  L 84.376654 164.567778  L 84.36852 166.235718  L 84.360378 167.903659  L 84.352228 169.5716  L 84.344069 171.23954  L 84.335902 172.907481  L 84.327727 174.575421  L 84.319543 176.243362  L 84.311351 177.911302  L 84.303151 179.579243  L 84.294942 181.247183  L 84.286725 182.915124  L 84.278499 184.583064  L 84.270265 186.251005  L 84.262023 187.918945  L 84.253772 189.586886  L 84.245513 191.254826  L 84.237246 192.922767  L 84.22897 194.590708  L 84.220685 196.258648  L 84.212392 197.926589  L 84.204091 199.594529  L 84.195781 201.26247  L 84.187463 202.93041  L 84.179136 204.598351  L 84.170801 206.266291  L 84.162458 207.934232  L 84.154105 209.602172  L 84.145745 211.270113  L 84.137375 212.938053  L 84.128998 214.605994  L 84.120611 216.273934  L 84.112217 217.941875  L 100.598183 217.941875  L 100.598183 217.941875  L 100.589789 216.273934  L 100.581402 214.605994  L 100.573025 212.938053  L 100.564655 211.270113  L 100.556295 209.602172  L 100.547942 207.934232  L 100.539599 206.266291  L 100.531264 204.598351  L 100.522937 202.93041  L 100.514619 201.26247  L 100.506309 199.594529  L 100.498008 197.926589  L 100.489715 196.258648  L 100.48143 194.590708  L 100.473154 192.922767  L 100.464887 191.254826  L 100.456628 189.586886  L 100.448377 187.918945  L 100.440135 186.251005  L 100.431901 184.583064  L 100.423675 182.915124  L 100.415458 181.247183  L 100.407249 179.579243  L 100.399049 177.911302  L 100.390857 176.243362  L 100.382673 174.575421  L 100.374498 172.907481  L 100.366331 171.23954  L 100.358172 169.5716  L 100.350022 167.903659  L 100.34188 166.235718  L 100.333746 164.567778  L 100.32562 162.899837  L 100.317503 161.231897  L 100.309394 159.563956  L 100.301293 157.896016  L 100.293201 156.228075  L 100.285116 154.560135  L 100.27704 152.892194  L 100.268973 151.224254  L 100.260913 149.556313  L 100.252862 147.888373  L 100.244818 146.220432  L 100.236783 144.552492  L 100.228757 142.884551  L 100.220738 141.216611  L 100.212728 139.54867  L 100.204725 137.880729  L 100.196731 136.212789  L 100.188745 134.544848  L 100.180767 132.876908  L 100.172797 131.208967  L 100.164836 129.541027  L 100.156882 127.873086  L 100.148937 126.205146  L 100.141 124.537205  L 100.13307 122.869265  L 100.125149 121.201324  L 100.117236 119.533384  L 100.109331 117.865443  L 100.101434 116.197503  L 100.093545 114.529562  L 100.085664 112.861621  L 100.077791 111.193681  L 100.069926 109.52574  L 100.062069 107.8578  L 100.054221 106.189859  L 100.04638 104.521919  L 100.038547 102.853978  L 100.030722 101.186038  L 100.022905 99.518097  L 100.015096 97.850157  L 100.007295 96.182216  L 99.999502 94.514276  L 99.991717 92.846335  L 99.983939 91.178395  L 99.97617 89.510454  L 99.968409 87.842513  L 99.960655 86.174573  L 99.95291 84.506632  L 99.945172 82.838692  L 99.937442 81.170751  L 99.92972 79.502811  L 99.922006 77.83487  L 99.9143 76.16693  L 99.906602 74.498989  L 99.898911 72.831049  L 99.891228 71.163108  L 99.883553 69.495168  L 99.875886 67.827227  L 99.868227 66.159287  L 99.860576 64.491346  L 99.852932 62.823405  L 99.845296 61.155465  L 99.837668 59.487524  L 99.830048 57.819584  L 99.822435 56.151643  L 99.81483 54.483703  L 99.807233 52.815762  L 108.140855 52.815762  L 108.140855 52.228375  L 108.140855 52.228375  L 108.140855 10.8  z "
           clip-path="url(#pfca8cf8ab6)"
           style="fill: #1f77b4; fill-opacity: 0.5"
           id="path169200" />
      </g>
      <g
         id="patch_4">
        <path
           d="M 174.4555 52.815762  L 173.376162 69.495168  L 172.191097 84.506632  L 170.932625 97.850157  L 169.444362 111.193681  L 167.920825 122.869265  L 166.156475 134.544848  L 164.423812 144.552492  L 162.458907 154.560135  L 160.621743 162.899837  L 158.581553 171.23954  L 156.315899 179.579243  L 153.799867 187.918945  L 151.005785 196.258648  L 148.549787 202.93041  L 145.878958 209.602172  L 142.974504 216.273934  L 142.20953 217.941875  M 183.7109 52.815762  L 184.790238 69.495168  L 185.975303 84.506632  L 187.233775 97.850157  L 188.722038 111.193681  L 190.245575 122.869265  L 192.009925 134.544848  L 193.742588 144.552492  L 195.707493 154.560135  L 197.544657 162.899837  L 199.584847 171.23954  L 201.850501 179.579243  L 204.366533 187.918945  L 207.160615 196.258648  L 209.616613 202.93041  L 212.287442 209.602172  L 215.191896 216.273934  L 215.95687 217.941875  L 215.95687 217.941875  "
           clip-path="url(#pfca8cf8ab6)"
           style="fill: none; stroke: #ff7f0e; stroke-linejoin: miter"
           id="path169203" />
      </g>
      <g
         id="PolyCollection_2">
        <path
           d="M 183.7109 52.815762  L 174.4555 52.815762  L 174.357461 54.483703  L 174.257345 56.151643  L 174.155107 57.819584  L 174.050704 59.487524  L 173.944089 61.155465  L 173.835216 62.823405  L 173.724036 64.491346  L 173.6105 66.159287  L 173.494559 67.827227  L 173.376162 69.495168  L 173.255257 71.163108  L 173.13179 72.831049  L 173.005708 74.498989  L 172.876954 76.16693  L 172.745473 77.83487  L 172.611206 79.502811  L 172.474095 81.170751  L 172.334079 82.838692  L 172.191097 84.506632  L 172.045085 86.174573  L 171.895981 87.842513  L 171.743717 89.510454  L 171.588228 91.178395  L 171.429445 92.846335  L 171.267298 94.514276  L 171.101715 96.182216  L 170.932625 97.850157  L 170.759953 99.518097  L 170.583622 101.186038  L 170.403556 102.853978  L 170.219675 104.521919  L 170.031899 106.189859  L 169.840144 107.8578  L 169.644327 109.52574  L 169.444362 111.193681  L 169.24016 112.861621  L 169.031632 114.529562  L 168.818687 116.197503  L 168.60123 117.865443  L 168.379166 119.533384  L 168.152398 121.201324  L 167.920825 122.869265  L 167.684347 124.537205  L 167.442859 126.205146  L 167.196255 127.873086  L 166.944426 129.541027  L 166.687262 131.208967  L 166.424651 132.876908  L 166.156475 134.544848  L 165.882619 136.212789  L 165.60296 137.880729  L 165.317377 139.54867  L 165.025744 141.216611  L 164.727933 142.884551  L 164.423812 144.552492  L 164.113248 146.220432  L 163.796105 147.888373  L 163.472244 149.556313  L 163.141521 151.224254  L 162.803791 152.892194  L 162.458907 154.560135  L 162.106716 156.228075  L 161.747064 157.896016  L 161.379793 159.563956  L 161.004741 161.231897  L 160.621743 162.899837  L 160.230632 164.567778  L 159.831234 166.235718  L 159.423375 167.903659  L 159.006876 169.5716  L 158.581553 171.23954  L 158.147219 172.907481  L 157.703684 174.575421  L 157.250752 176.243362  L 156.788225 177.911302  L 156.315899 179.579243  L 155.833567 181.247183  L 155.341016 182.915124  L 154.838031 184.583064  L 154.32439 186.251005  L 153.799867 187.918945  L 153.264232 189.586886  L 152.717249 191.254826  L 152.158678 192.922767  L 151.588274 194.590708  L 151.005785 196.258648  L 150.410957 197.926589  L 149.803526 199.594529  L 149.183228 201.26247  L 148.549787 202.93041  L 147.902928 204.598351  L 147.242364 206.266291  L 146.567806 207.934232  L 145.878958 209.602172  L 145.175516 211.270113  L 144.457171 212.938053  L 143.723608 214.605994  L 142.974504 216.273934  L 142.20953 217.941875  L 215.95687 217.941875  L 215.95687 217.941875  L 215.191896 216.273934  L 214.442792 214.605994  L 213.709229 212.938053  L 212.990884 211.270113  L 212.287442 209.602172  L 211.598594 207.934232  L 210.924036 206.266291  L 210.263472 204.598351  L 209.616613 202.93041  L 208.983172 201.26247  L 208.362874 199.594529  L 207.755443 197.926589  L 207.160615 196.258648  L 206.578126 194.590708  L 206.007722 192.922767  L 205.449151 191.254826  L 204.902168 189.586886  L 204.366533 187.918945  L 203.84201 186.251005  L 203.328369 184.583064  L 202.825384 182.915124  L 202.332833 181.247183  L 201.850501 179.579243  L 201.378175 177.911302  L 200.915648 176.243362  L 200.462716 174.575421  L 200.019181 172.907481  L 199.584847 171.23954  L 199.159524 169.5716  L 198.743025 167.903659  L 198.335166 166.235718  L 197.935768 164.567778  L 197.544657 162.899837  L 197.161659 161.231897  L 196.786607 159.563956  L 196.419336 157.896016  L 196.059684 156.228075  L 195.707493 154.560135  L 195.362609 152.892194  L 195.024879 151.224254  L 194.694156 149.556313  L 194.370295 147.888373  L 194.053152 146.220432  L 193.742588 144.552492  L 193.438467 142.884551  L 193.140656 141.216611  L 192.849023 139.54867  L 192.56344 137.880729  L 192.283781 136.212789  L 192.009925 134.544848  L 191.741749 132.876908  L 191.479138 131.208967  L 191.221974 129.541027  L 190.970145 127.873086  L 190.723541 126.205146  L 190.482053 124.537205  L 190.245575 122.869265  L 190.014002 121.201324  L 189.787234 119.533384  L 189.56517 117.865443  L 189.347713 116.197503  L 189.134768 114.529562  L 188.92624 112.861621  L 188.722038 111.193681  L 188.522073 109.52574  L 188.326256 107.8578  L 188.134501 106.189859  L 187.946725 104.521919  L 187.762844 102.853978  L 187.582778 101.186038  L 187.406447 99.518097  L 187.233775 97.850157  L 187.064685 96.182216  L 186.899102 94.514276  L 186.736955 92.846335  L 186.578172 91.178395  L 186.422683 89.510454  L 186.270419 87.842513  L 186.121315 86.174573  L 185.975303 84.506632  L 185.832321 82.838692  L 185.692305 81.170751  L 185.555194 79.502811  L 185.420927 77.83487  L 185.289446 76.16693  L 185.160692 74.498989  L 185.03461 72.831049  L 184.911143 71.163108  L 184.790238 69.495168  L 184.671841 67.827227  L 184.5559 66.159287  L 184.442364 64.491346  L 184.331184 62.823405  L 184.222311 61.155465  L 184.115696 59.487524  L 184.011293 57.819584  L 183.909055 56.151643  L 183.808939 54.483703  L 183.7109 52.815762  z "
           clip-path="url(#pfca8cf8ab6)"
           style="fill: #ff7f0e; fill-opacity: 0.5"
           id="path169206" />
      </g>
      <g
         id="patch_5">
        <path
           d="M 110.14438 52.815762  L 111.14438 52.847199  L 112.14438 52.884139  L 113.14438 52.981886  L 114.14438 53.014407  L 115.14438 53.088032  L 116.14438 53.126598  L 117.14438 53.162011  L 118.14438 53.219651  L 119.14438 53.290037  L 120.14438 53.342001  L 121.14438 53.401091  L 122.14438 53.489412  L 123.14438 53.535556  L 124.14438 53.577967  L 125.14438 53.60846  L 126.14438 53.634505  L 127.14438 53.655705  L 128.14438 53.710006  L 129.14438 53.737943  L 130.14438 53.767667  L 131.14438 53.793062  L 132.14438 53.804263  L 133.14438 53.814386  L 134.14438 53.814182  L 135.14438 53.804672  L 136.14438 53.793019  L 137.14438 53.761989  L 138.14438 53.750822  L 139.14438 53.720704  L 140.14438 53.660927  L 141.14438 53.623736  L 142.14438 53.584639  L 143.14438 53.5422  L 144.14438 53.509435  L 145.14438 53.442008  L 146.14438 53.402882  L 147.14438 53.360208  L 148.14438 53.289627  L 149.14438 53.253236  L 150.14438 53.194833  L 151.14438 53.083881  L 152.14438 53.013222  L 153.14438 52.900282  L 154.14438 52.85451  L 155.14438 52.793226  L 156.14438 52.744727  L 157.14438 52.663904  L 158.14438 52.545385  L 159.14438 52.475175  L 160.14438 52.391912  L 161.14438 52.35877  L 162.14438 52.307533  L 163.14438 52.239135  L 164.14438 52.172919  L 165.14438 52.096002  L 166.14438 52.068687  L 167.14438 52.042209  L 168.14438 52.019559  L 169.14438 52.000027  L 170.14438 51.973633  L 171.339519 51.923863  "
           clip-path="url(#pfca8cf8ab6)"
           style="fill: none; stroke: #ffffff; stroke-width: 3; stroke-linecap: round"
           id="path169264" />
        <path
           d="M 110.14438 52.815762  L 111.14438 52.847199  L 112.14438 52.884139  L 113.14438 52.981886  L 114.14438 53.014407  L 115.14438 53.088032  L 116.14438 53.126598  L 117.14438 53.162011  L 118.14438 53.219651  L 119.14438 53.290037  L 120.14438 53.342001  L 121.14438 53.401091  L 122.14438 53.489412  L 123.14438 53.535556  L 124.14438 53.577967  L 125.14438 53.60846  L 126.14438 53.634505  L 127.14438 53.655705  L 128.14438 53.710006  L 129.14438 53.737943  L 130.14438 53.767667  L 131.14438 53.793062  L 132.14438 53.804263  L 133.14438 53.814386  L 134.14438 53.814182  L 135.14438 53.804672  L 136.14438 53.793019  L 137.14438 53.761989  L 138.14438 53.750822  L 139.14438 53.720704  L 140.14438 53.660927  L 141.14438 53.623736  L 142.14438 53.584639  L 143.14438 53.5422  L 144.14438 53.509435  L 145.14438 53.442008  L 146.14438 53.402882  L 147.14438 53.360208  L 148.14438 53.289627  L 149.14438 53.253236  L 150.14438 53.194833  L 151.14438 53.083881  L 152.14438 53.013222  L 153.14438 52.900282  L 154.14438 52.85451  L 155.14438 52.793226  L 156.14438 52.744727  L 157.14438 52.663904  L 158.14438 52.545385  L 159.14438 52.475175  L 160.14438 52.391912  L 161.14438 52.35877  L 162.14438 52.307533  L 163.14438 52.239135  L 164.14438 52.172919  L 165.14438 52.096002  L 166.14438 52.068687  L 167.14438 52.042209  L 168.14438 52.019559  L 169.14438 52.000027  L 170.14438 51.973633  L 171.339519 51.923863  "
           clip-path="url(#pfca8cf8ab6)"
           style="fill: none; stroke: #1f77b4; stroke-linecap: round"
           id="path169266" />
        <path
           d="M 167.339519 50.815762  L 168.219888 51.291093  L 169.097795 51.771347  L 169.948508 52.305988  L 171.250683 52.993436  L 170.32333 53.019451  L 169.411655 53.43217  L 168.501391 53.847709  L 167.158895 54.454514  L 167.813794 53.815762  L 167.865758 52.815762  L 167.924848 50.815762  L 167.339519 50.815762  z "
           clip-path="url(#pfca8cf8ab6)"
           style="fill: #ffffff; stroke: #ffffff; stroke-width: 3; stroke-linecap: round"
           id="path169268" />
        <path
           d="M 167.339519 50.815762  L 168.219888 51.291093  L 169.097795 51.771347  L 169.948508 52.305988  L 171.250683 52.993436  L 170.32333 53.019451  L 169.411655 53.43217  L 168.501391 53.847709  L 167.158895 54.454514  L 167.813794 53.815762  L 167.865758 52.815762  L 167.924848 50.815762  L 167.339519 50.815762  z "
           clip-path="url(#pfca8cf8ab6)"
           style="fill: #ffffff; stroke: #1f77b4; stroke-linecap: round"
           id="path169270" />
        <path
           d="M 169.774492 94.101401  "
           clip-path="url(#pfca8cf8ab6)"
           style="fill: none; stroke-dasharray: 3.7,1.6; stroke-dashoffset: 0; stroke: #1f77b4"
           id="path169272" />
        <path
           d="M 170.774492 94.101401  L 168.774492 93.101401  L 168.774492 95.101401  z "
           clip-path="url(#pfca8cf8ab6)"
           style="fill: #1f77b4; stroke: #1f77b4; stroke-linejoin: miter"
           id="path169274" />
        <path
           d="M 101.530835 94.101401  "
           clip-path="url(#pfca8cf8ab6)"
           style="fill: none; stroke-dasharray: 3.7,1.6; stroke-dashoffset: 0; stroke: #ff7f0e"
           id="path169276" />
        <path
           d="M 100.530835 94.101401  L 102.530835 95.101401  L 102.530835 93.101401  z "
           clip-path="url(#pfca8cf8ab6)"
           style="fill: #ff7f0e; stroke: #ff7f0e; stroke-linejoin: miter"
           id="path169278" />
        <path
           d="M 164.487004 135.378819  "
           clip-path="url(#pfca8cf8ab6)"
           style="fill: none; stroke-dasharray: 3.7,1.6; stroke-dashoffset: 0; stroke: #1f77b4"
           id="path169280" />
        <path
           d="M 165.487004 135.378819  L 163.487004 134.378819  L 163.487004 136.378819  z "
           clip-path="url(#pfca8cf8ab6)"
           style="fill: #1f77b4; stroke: #1f77b4; stroke-linejoin: miter"
           id="path169282" />
        <path
           d="M 101.725998 135.378819  "
           clip-path="url(#pfca8cf8ab6)"
           style="fill: none; stroke-dasharray: 3.7,1.6; stroke-dashoffset: 0; stroke: #ff7f0e"
           id="path169284" />
        <path
           d="M 100.725998 135.378819  L 102.725998 136.378819  L 102.725998 134.378819  z "
           clip-path="url(#pfca8cf8ab6)"
           style="fill: #ff7f0e; stroke: #ff7f0e; stroke-linejoin: miter"
           id="path169286" />
        <path
           d="M 155.601634 176.664457  "
           clip-path="url(#pfca8cf8ab6)"
           style="fill: none; stroke-dasharray: 3.7,1.6; stroke-dashoffset: 0; stroke: #1f77b4"
           id="path169288" />
        <path
           d="M 156.601634 176.664457  L 154.601634 175.664457  L 154.601634 177.664457  z "
           clip-path="url(#pfca8cf8ab6)"
           style="fill: #1f77b4; stroke: #1f77b4; stroke-linejoin: miter"
           id="path169290" />
        <path
           d="M 101.926185 176.664457  "
           clip-path="url(#pfca8cf8ab6)"
           style="fill: none; stroke-dasharray: 3.7,1.6; stroke-dashoffset: 0; stroke: #ff7f0e"
           id="path169292" />
        <path
           d="M 100.926185 176.664457  L 102.926185 177.664457  L 102.926185 175.664457  z "
           clip-path="url(#pfca8cf8ab6)"
           style="fill: #ff7f0e; stroke: #ff7f0e; stroke-linejoin: miter"
           id="path169294" />
      </g>
    </g>
    <defs
       id="defs169304">
      <clipPath
         id="pfca8cf8ab6">
        <rect
           x="14.3"
           y="10.8"
           width="216.82"
           height="207.141875"
           id="rect169301" />
      </clipPath>
    </defs>
  </g>
</svg>
