<?xml version="1.0" encoding="UTF-8" standalone="no"?>
<svg
   width="241.92pt"
   height="241.92pt"
   viewBox="0 0 241.92 241.92"
   version="1.1"
   id="svg24816"
   sodipodi:docname="7_pulse.svg"
   inkscape:version="1.2.2 (1:1.2.2+202212051552+b0a8486541)"
   xmlns:inkscape="http://www.inkscape.org/namespaces/inkscape"
   xmlns:sodipodi="http://sodipodi.sourceforge.net/DTD/sodipodi-0.dtd"
   xmlns="http://www.w3.org/2000/svg"
   xmlns:svg="http://www.w3.org/2000/svg"
   xmlns:rdf="http://www.w3.org/1999/02/22-rdf-syntax-ns#"
   xmlns:cc="http://creativecommons.org/ns#"
   xmlns:dc="http://purl.org/dc/elements/1.1/">
  <sodipodi:namedview
     id="namedview24818"
     pagecolor="#ffffff"
     bordercolor="#000000"
     borderopacity="0.25"
     inkscape:showpageshadow="2"
     inkscape:pageopacity="0.0"
     inkscape:pagecheckerboard="0"
     inkscape:deskcolor="#d1d1d1"
     inkscape:document-units="pt"
     showgrid="false"
     inkscape:zoom="0.73164683"
     inkscape:cx="160.59661"
     inkscape:cy="161.28"
     inkscape:window-width="1223"
     inkscape:window-height="779"
     inkscape:window-x="57"
     inkscape:window-y="21"
     inkscape:window-maximized="1"
     inkscape:current-layer="axes_1" />
  <metadata
     id="metadata24634">
    <rdf:RDF>
      <cc:Work>
        <dc:type
           rdf:resource="http://purl.org/dc/dcmitype/StillImage" />
        <dc:date>2023-02-27T16:06:32.409304</dc:date>
        <dc:format>image/svg+xml</dc:format>
        <dc:creator>
          <cc:Agent>
            <dc:title>Matplotlib v3.5.0, https://matplotlib.org/</dc:title>
          </cc:Agent>
        </dc:creator>
      </cc:Work>
    </rdf:RDF>
  </metadata>
  <defs
     id="defs24638">
    <style
       type="text/css"
       id="style24636">*{stroke-linejoin: round; stroke-linecap: butt}</style>
  </defs>
  <g
     id="figure_1">
    <g
       id="axes_1">
      <path
         d="M 102.310837 72.949531  L 103.310837 72.980967  L 104.310837 73.017907  L 105.310837 73.115654  L 106.310837 73.148175  L 107.310837 73.2218  L 108.310837 73.260366  L 109.310837 73.295779  L 110.310837 73.353419  L 111.310837 73.423805  L 112.310837 73.475769  L 113.310837 73.534859  L 114.310837 73.62318  L 115.310837 73.669324  L 116.310837 73.711735  L 117.310837 73.742228  L 118.310837 73.768273  L 119.310837 73.789473  L 120.310837 73.843774  L 121.310837 73.871712  L 122.310837 73.901436  L 123.310837 73.92683  L 124.310837 73.938031  L 125.310837 73.948155  L 126.310837 73.94795  L 127.310837 73.938441  L 128.310837 73.926787  L 129.310837 73.895758  L 130.310837 73.88459  L 131.310837 73.854472  L 132.310837 73.794695  L 133.310837 73.757504  L 134.310837 73.718408  L 135.310837 73.675968  L 136.310837 73.643203  L 137.310837 73.575776  L 138.310837 73.536651  L 139.310837 73.493976  L 140.310837 73.423395  L 141.310837 73.387005  L 142.310837 73.328601  L 143.310837 73.217649  L 144.310837 73.14699  L 145.310837 73.034051  L 146.310837 72.988278  L 147.310837 72.926995  L 148.310837 72.878495  L 149.310837 72.797673  L 150.310837 72.679154  L 151.310837 72.608943  L 152.310837 72.52568  L 153.310837 72.492539  L 154.310837 72.441301  L 155.310837 72.372903  L 156.310837 72.306688  L 157.310837 72.229771  L 158.310837 72.202455  L 159.310837 72.175978  L 160.310837 72.153327  L 161.310837 72.133796  L 162.310837 72.107402  L 163.310837 72.057631  L 164.310837 72.022558  L 165.310837 71.986692  L 166.310837 71.971325  L 167.310837 71.955556  L 168.310837 71.952143  L 169.310837 71.949725  L 170.755257 71.950211  "
         clip-path="url(#pb2903b02fc)"
         style="fill: none; stroke-dasharray: 3.7,1.6; stroke-dashoffset: 0; stroke: #1f77b4"
         id="path24646" />
      <path
         d="M 170.755257 72.949531  L 169.755257 72.918094  L 168.755257 72.881154  L 167.755257 72.783407  L 166.755257 72.750886  L 165.755257 72.677261  L 164.755257 72.638695  L 163.755257 72.603282  L 162.755257 72.545642  L 161.755257 72.475256  L 160.755257 72.423292  L 159.755257 72.364202  L 158.755257 72.275881  L 157.755257 72.229737  L 156.755257 72.187326  L 155.755257 72.156833  L 154.755257 72.130788  L 153.755257 72.109588  L 152.755257 72.055287  L 151.755257 72.02735  L 150.755257 71.997626  L 149.755257 71.972231  L 148.755257 71.96103  L 147.755257 71.950906  L 146.755257 71.951111  L 145.755257 71.960621  L 144.755257 71.972274  L 143.755257 72.003303  L 142.755257 72.014471  L 141.755257 72.044589  L 140.755257 72.104366  L 139.755257 72.141557  L 138.755257 72.180653  L 137.755257 72.223093  L 136.755257 72.255858  L 135.755257 72.323285  L 134.755257 72.362411  L 133.755257 72.405085  L 132.755257 72.475666  L 131.755257 72.512057  L 130.755257 72.57046  L 129.755257 72.681412  L 128.755257 72.752071  L 127.755257 72.865011  L 126.755257 72.910783  L 125.755257 72.972067  L 124.755257 73.020566  L 123.755257 73.101389  L 122.755257 73.219908  L 121.755257 73.290118  L 120.755257 73.373381  L 119.755257 73.406522  L 118.755257 73.45776  L 117.755257 73.526158  L 116.755257 73.592374  L 115.755257 73.669291  L 114.755257 73.696606  L 113.755257 73.723084  L 112.755257 73.745734  L 111.755257 73.765266  L 110.755257 73.79166  L 109.755257 73.84143  L 108.755257 73.876503  L 107.755257 73.912369  L 106.755257 73.927736  L 105.755257 73.943506  L 104.755257 73.946918  L 103.755257 73.949336  L 102.310837 73.94885  "
         clip-path="url(#pb2903b02fc)"
         style="fill: none; stroke-dasharray: 3.7,1.6; stroke-dashoffset: 0; stroke: #ff7f0e"
         id="path24648" />
      <path
         d="M 102.163786 93.662723  L 103.163786 93.694159  L 104.163786 93.731099  L 105.163786 93.828846  L 106.163786 93.861368  L 107.163786 93.934992  L 108.163786 93.973558  L 109.163786 94.008971  L 110.163786 94.066611  L 111.163786 94.136997  L 112.163786 94.188961  L 113.163786 94.248051  L 114.163786 94.336372  L 115.163786 94.382516  L 116.163786 94.424927  L 117.163786 94.45542  L 118.163786 94.481465  L 119.163786 94.502665  L 120.163786 94.556966  L 121.163786 94.584904  L 122.163786 94.614628  L 123.163786 94.640022  L 124.163786 94.651223  L 125.163786 94.661347  L 126.163786 94.661142  L 127.163786 94.651633  L 128.163786 94.639979  L 129.163786 94.60895  L 130.163786 94.597782  L 131.163786 94.567664  L 132.163786 94.507887  L 133.163786 94.470696  L 134.163786 94.4316  L 135.163786 94.38916  L 136.163786 94.356395  L 137.163786 94.288969  L 138.163786 94.249843  L 139.163786 94.207168  L 140.163786 94.136587  L 141.163786 94.100197  L 142.163786 94.041793  L 143.163786 93.930841  L 144.163786 93.860183  L 145.163786 93.747243  L 146.163786 93.70147  L 147.163786 93.640187  L 148.163786 93.591687  L 149.163786 93.510865  L 150.163786 93.392346  L 151.163786 93.322135  L 152.163786 93.238873  L 153.163786 93.205731  L 154.163786 93.154493  L 155.163786 93.086095  L 156.163786 93.01988  L 157.163786 92.942963  L 158.163786 92.915647  L 159.163786 92.88917  L 160.163786 92.866519  L 161.163786 92.846988  L 162.163786 92.820594  L 163.163786 92.770823  L 164.163786 92.73575  L 165.163786 92.699884  L 166.163786 92.684517  L 167.163786 92.668748  L 169.048399 92.665335  "
         clip-path="url(#pb2903b02fc)"
         style="fill: none; stroke-dasharray: 3.7,1.6; stroke-dashoffset: 0; stroke: #1f77b4"
         id="path24650" />
      <path
         d="M 169.048399 93.662723  L 168.048399 93.631286  L 167.048399 93.594346  L 166.048399 93.496599  L 165.048399 93.464078  L 164.048399 93.390453  L 163.048399 93.351887  L 162.048399 93.316474  L 161.048399 93.258834  L 160.048399 93.188448  L 159.048399 93.136484  L 158.048399 93.077394  L 157.048399 92.989073  L 156.048399 92.942929  L 155.048399 92.900518  L 154.048399 92.870025  L 153.048399 92.84398  L 152.048399 92.82278  L 151.048399 92.768479  L 150.048399 92.740542  L 149.048399 92.710818  L 148.048399 92.685423  L 147.048399 92.674222  L 146.048399 92.664098  L 145.048399 92.664303  L 144.048399 92.673813  L 143.048399 92.685466  L 142.048399 92.716496  L 141.048399 92.727663  L 140.048399 92.757781  L 139.048399 92.817558  L 138.048399 92.854749  L 137.048399 92.893846  L 136.048399 92.936285  L 135.048399 92.96905  L 134.048399 93.036477  L 133.048399 93.075603  L 132.048399 93.118277  L 131.048399 93.188858  L 130.048399 93.225249  L 129.048399 93.283652  L 128.048399 93.394604  L 127.048399 93.465263  L 126.048399 93.578203  L 125.048399 93.623975  L 124.048399 93.685259  L 123.048399 93.733758  L 122.048399 93.814581  L 121.048399 93.9331  L 120.048399 94.00331  L 119.048399 94.086573  L 118.048399 94.119714  L 117.048399 94.170952  L 116.048399 94.23935  L 115.048399 94.305566  L 114.048399 94.382483  L 113.048399 94.409798  L 112.048399 94.436276  L 111.048399 94.458926  L 110.048399 94.478458  L 109.048399 94.504852  L 108.048399 94.554622  L 107.048399 94.589696  L 106.048399 94.625561  L 105.048399 94.640928  L 104.048399 94.656698  L 102.163786 94.66011  "
         clip-path="url(#pb2903b02fc)"
         style="fill: none; stroke-dasharray: 3.7,1.6; stroke-dashoffset: 0; stroke: #ff7f0e"
         id="path24652" />
      <path
         d="M 102.019288 114.375915  L 103.019288 114.407351  L 104.019288 114.444291  L 105.019288 114.542038  L 106.019288 114.57456  L 107.019288 114.648184  L 108.019288 114.68675  L 109.019288 114.722163  L 110.019288 114.779803  L 111.019288 114.850189  L 112.019288 114.902153  L 113.019288 114.961243  L 114.019288 115.049564  L 115.019288 115.095708  L 116.019288 115.138119  L 117.019288 115.168612  L 118.019288 115.194657  L 119.019288 115.215857  L 120.019288 115.270158  L 121.019288 115.298096  L 122.019288 115.32782  L 123.019288 115.353214  L 124.019288 115.364415  L 125.019288 115.374539  L 126.019288 115.374334  L 127.019288 115.364825  L 128.019288 115.353171  L 129.019288 115.322142  L 130.019288 115.310974  L 131.019288 115.280856  L 132.019288 115.221079  L 133.019288 115.183888  L 134.019288 115.144792  L 135.019288 115.102352  L 136.019288 115.069587  L 137.019288 115.002161  L 138.019288 114.963035  L 139.019288 114.92036  L 140.019288 114.84978  L 141.019288 114.813389  L 142.019288 114.754985  L 143.019288 114.644033  L 144.019288 114.573375  L 145.019288 114.460435  L 146.019288 114.414662  L 147.019288 114.353379  L 148.019288 114.304879  L 149.019288 114.224057  L 150.019288 114.105538  L 151.019288 114.035327  L 152.019288 113.952065  L 153.019288 113.918923  L 154.019288 113.867686  L 155.019288 113.799287  L 156.019288 113.733072  L 157.019288 113.656155  L 158.019288 113.628839  L 159.019288 113.602362  L 160.019288 113.579711  L 161.019288 113.56018  L 162.019288 113.533786  L 163.019288 113.484015  L 164.019288 113.448942  L 165.019288 113.413076  L 166.916042 113.397709  "
         clip-path="url(#pb2903b02fc)"
         style="fill: none; stroke-dasharray: 3.7,1.6; stroke-dashoffset: 0; stroke: #1f77b4"
         id="path24654" />
      <path
         d="M 166.916042 114.375915  L 165.916042 114.344478  L 164.916042 114.307538  L 163.916042 114.209791  L 162.916042 114.17727  L 161.916042 114.103645  L 160.916042 114.065079  L 159.916042 114.029666  L 158.916042 113.972026  L 157.916042 113.90164  L 156.916042 113.849676  L 155.916042 113.790586  L 154.916042 113.702265  L 153.916042 113.656121  L 152.916042 113.61371  L 151.916042 113.583217  L 150.916042 113.557172  L 149.916042 113.535972  L 148.916042 113.481671  L 147.916042 113.453734  L 146.916042 113.42401  L 145.916042 113.398615  L 144.916042 113.387414  L 143.916042 113.377291  L 142.916042 113.377495  L 141.916042 113.387005  L 140.916042 113.398658  L 139.916042 113.429688  L 138.916042 113.440855  L 137.916042 113.470973  L 136.916042 113.53075  L 135.916042 113.567941  L 134.916042 113.607038  L 133.916042 113.649477  L 132.916042 113.682242  L 131.916042 113.749669  L 130.916042 113.788795  L 129.916042 113.831469  L 128.916042 113.90205  L 127.916042 113.938441  L 126.916042 113.996844  L 125.916042 114.107796  L 124.916042 114.178455  L 123.916042 114.291395  L 122.916042 114.337167  L 121.916042 114.398451  L 120.916042 114.44695  L 119.916042 114.527773  L 118.916042 114.646292  L 117.916042 114.716502  L 116.916042 114.799765  L 115.916042 114.832907  L 114.916042 114.884144  L 113.916042 114.952542  L 112.916042 115.018758  L 111.916042 115.095675  L 110.916042 115.12299  L 109.916042 115.149468  L 108.916042 115.172118  L 107.916042 115.19165  L 106.916042 115.218044  L 105.916042 115.267814  L 104.916042 115.302888  L 103.916042 115.338753  L 102.019288 115.354121  "
         clip-path="url(#pb2903b02fc)"
         style="fill: none; stroke-dasharray: 3.7,1.6; stroke-dashoffset: 0; stroke: #ff7f0e"
         id="path24656" />
      <path
         d="M 101.877296 135.089107  L 102.877296 135.120543  L 103.877296 135.157484  L 104.877296 135.25523  L 105.877296 135.287752  L 106.877296 135.361376  L 107.877296 135.399942  L 108.877296 135.435355  L 109.877296 135.492995  L 110.877296 135.563381  L 111.877296 135.615345  L 112.877296 135.674435  L 113.877296 135.762756  L 114.877296 135.8089  L 115.877296 135.851311  L 116.877296 135.881804  L 117.877296 135.907849  L 118.877296 135.929049  L 119.877296 135.98335  L 120.877296 136.011288  L 121.877296 136.041012  L 122.877296 136.066407  L 123.877296 136.077607  L 124.877296 136.087731  L 125.877296 136.087527  L 126.877296 136.078017  L 127.877296 136.066363  L 128.877296 136.035334  L 129.877296 136.024166  L 130.877296 135.994048  L 131.877296 135.934271  L 132.877296 135.89708  L 133.877296 135.857984  L 134.877296 135.815544  L 135.877296 135.782779  L 136.877296 135.715353  L 137.877296 135.676227  L 138.877296 135.633552  L 139.877296 135.562972  L 140.877296 135.526581  L 141.877296 135.468178  L 142.877296 135.357225  L 143.877296 135.286567  L 144.877296 135.173627  L 145.877296 135.127854  L 146.877296 135.066571  L 147.877296 135.018071  L 148.877296 134.937249  L 149.877296 134.81873  L 150.877296 134.748519  L 151.877296 134.665257  L 152.877296 134.632115  L 153.877296 134.580878  L 154.877296 134.512479  L 155.877296 134.446264  L 156.877296 134.369347  L 157.877296 134.342031  L 158.877296 134.315554  L 159.877296 134.292903  L 160.877296 134.273372  L 161.877296 134.246978  L 162.877296 134.197207  L 164.252115 134.162134  "
         clip-path="url(#pb2903b02fc)"
         style="fill: none; stroke-dasharray: 3.7,1.6; stroke-dashoffset: 0; stroke: #1f77b4"
         id="path24658" />
      <path
         d="M 164.252115 135.089107  L 163.252115 135.05767  L 162.252115 135.02073  L 161.252115 134.922983  L 160.252115 134.890462  L 159.252115 134.816837  L 158.252115 134.778272  L 157.252115 134.742858  L 156.252115 134.685218  L 155.252115 134.614832  L 154.252115 134.562868  L 153.252115 134.503778  L 152.252115 134.415457  L 151.252115 134.369313  L 150.252115 134.326902  L 149.252115 134.296409  L 148.252115 134.270364  L 147.252115 134.249164  L 146.252115 134.194863  L 145.252115 134.166926  L 144.252115 134.137202  L 143.252115 134.111807  L 142.252115 134.100607  L 141.252115 134.090483  L 140.252115 134.090687  L 139.252115 134.100197  L 138.252115 134.11185  L 137.252115 134.14288  L 136.252115 134.154048  L 135.252115 134.184165  L 134.252115 134.243942  L 133.252115 134.281134  L 132.252115 134.32023  L 131.252115 134.362669  L 130.252115 134.395434  L 129.252115 134.462861  L 128.252115 134.501987  L 127.252115 134.544661  L 126.252115 134.615242  L 125.252115 134.651633  L 124.252115 134.710036  L 123.252115 134.820989  L 122.252115 134.891647  L 121.252115 135.004587  L 120.252115 135.05036  L 119.252115 135.111643  L 118.252115 135.160142  L 117.252115 135.240965  L 116.252115 135.359484  L 115.252115 135.429694  L 114.252115 135.512957  L 113.252115 135.546099  L 112.252115 135.597336  L 111.252115 135.665734  L 110.252115 135.73195  L 109.252115 135.808867  L 108.252115 135.836182  L 107.252115 135.86266  L 106.252115 135.88531  L 105.252115 135.904842  L 104.252115 135.931236  L 103.252115 135.981007  L 101.877296 136.01608  "
         clip-path="url(#pb2903b02fc)"
         style="fill: none; stroke-dasharray: 3.7,1.6; stroke-dashoffset: 0; stroke: #ff7f0e"
         id="path24660" />
      <path
         d="M 101.737769 155.802299  L 102.737769 155.833735  L 103.737769 155.870676  L 104.737769 155.968422  L 105.737769 156.000944  L 106.737769 156.074568  L 107.737769 156.113134  L 108.737769 156.148547  L 109.737769 156.206187  L 110.737769 156.276573  L 111.737769 156.328537  L 112.737769 156.387627  L 113.737769 156.475948  L 114.737769 156.522092  L 115.737769 156.564503  L 116.737769 156.594996  L 117.737769 156.621041  L 118.737769 156.642241  L 119.737769 156.696542  L 120.737769 156.72448  L 121.737769 156.754204  L 122.737769 156.779599  L 123.737769 156.790799  L 124.737769 156.800923  L 125.737769 156.800719  L 126.737769 156.791209  L 127.737769 156.779555  L 128.737769 156.748526  L 129.737769 156.737358  L 130.737769 156.70724  L 131.737769 156.647464  L 132.737769 156.610272  L 133.737769 156.571176  L 134.737769 156.528736  L 135.737769 156.495971  L 136.737769 156.428545  L 137.737769 156.389419  L 138.737769 156.346744  L 139.737769 156.276164  L 140.737769 156.239773  L 141.737769 156.18137  L 142.737769 156.070417  L 143.737769 155.999759  L 144.737769 155.886819  L 145.737769 155.841046  L 146.737769 155.779763  L 147.737769 155.731263  L 148.737769 155.650441  L 149.737769 155.531922  L 150.737769 155.461711  L 151.737769 155.378449  L 152.737769 155.345307  L 153.737769 155.29407  L 154.737769 155.225671  L 155.737769 155.159456  L 156.737769 155.082539  L 157.737769 155.055223  L 158.737769 155.028746  L 159.737769 155.006095  L 160.924106 154.986564  "
         clip-path="url(#pb2903b02fc)"
         style="fill: none; stroke-dasharray: 3.7,1.6; stroke-dashoffset: 0; stroke: #1f77b4"
         id="path24662" />
      <path
         d="M 160.924106 155.802299  L 159.924106 155.770862  L 158.924106 155.733922  L 157.924106 155.636175  L 156.924106 155.603654  L 155.924106 155.530029  L 154.924106 155.491464  L 153.924106 155.45605  L 152.924106 155.398411  L 151.924106 155.328024  L 150.924106 155.27606  L 149.924106 155.21697  L 148.924106 155.128649  L 147.924106 155.082505  L 146.924106 155.040094  L 145.924106 155.009601  L 144.924106 154.983557  L 143.924106 154.962356  L 142.924106 154.908055  L 141.924106 154.880118  L 140.924106 154.850394  L 139.924106 154.824999  L 138.924106 154.813799  L 137.924106 154.803675  L 136.924106 154.803879  L 135.924106 154.813389  L 134.924106 154.825042  L 133.924106 154.856072  L 132.924106 154.86724  L 131.924106 154.897357  L 130.924106 154.957134  L 129.924106 154.994326  L 128.924106 155.033422  L 127.924106 155.075861  L 126.924106 155.108626  L 125.924106 155.176053  L 124.924106 155.215179  L 123.924106 155.257853  L 122.924106 155.328434  L 121.924106 155.364825  L 120.924106 155.423228  L 119.924106 155.534181  L 118.924106 155.604839  L 117.924106 155.717779  L 116.924106 155.763552  L 115.924106 155.824835  L 114.924106 155.873334  L 113.924106 155.954157  L 112.924106 156.072676  L 111.924106 156.142886  L 110.924106 156.226149  L 109.924106 156.259291  L 108.924106 156.310528  L 107.924106 156.378926  L 106.924106 156.445142  L 105.924106 156.522059  L 104.924106 156.549374  L 103.924106 156.575852  L 102.924106 156.598502  L 101.737769 156.618034  "
         clip-path="url(#pb2903b02fc)"
         style="fill: none; stroke-dasharray: 3.7,1.6; stroke-dashoffset: 0; stroke: #ff7f0e"
         id="path24664" />
      <path
         d="M 101.600662 176.515491  L 102.600662 176.546927  L 103.600662 176.583868  L 104.600662 176.681614  L 105.600662 176.714136  L 106.600662 176.78776  L 107.600662 176.826326  L 108.600662 176.861739  L 109.600662 176.919379  L 110.600662 176.989765  L 111.600662 177.04173  L 112.600662 177.100819  L 113.600662 177.18914  L 114.600662 177.235285  L 115.600662 177.277695  L 116.600662 177.308188  L 117.600662 177.334233  L 118.600662 177.355433  L 119.600662 177.409734  L 120.600662 177.437672  L 121.600662 177.467396  L 122.600662 177.492791  L 123.600662 177.503991  L 124.600662 177.514115  L 125.600662 177.513911  L 126.600662 177.504401  L 127.600662 177.492747  L 128.600662 177.461718  L 129.600662 177.45055  L 130.600662 177.420432  L 131.600662 177.360656  L 132.600662 177.323464  L 133.600662 177.284368  L 134.600662 177.241928  L 135.600662 177.209163  L 136.600662 177.141737  L 137.600662 177.102611  L 138.600662 177.059936  L 139.600662 176.989356  L 140.600662 176.952965  L 141.600662 176.894562  L 142.600662 176.783609  L 143.600662 176.712951  L 144.600662 176.600011  L 145.600662 176.554238  L 146.600662 176.492955  L 147.600662 176.444455  L 148.600662 176.363633  L 149.600662 176.245114  L 150.600662 176.174903  L 151.600662 176.091641  L 152.600662 176.058499  L 153.600662 176.007262  L 154.600662 175.938863  L 155.600662 175.872648  L 156.766465 175.795731  "
         clip-path="url(#pb2903b02fc)"
         style="fill: none; stroke-dasharray: 3.7,1.6; stroke-dashoffset: 0; stroke: #1f77b4"
         id="path24666" />
      <path
         d="M 156.766465 176.515491  L 155.766465 176.484054  L 154.766465 176.447114  L 153.766465 176.349368  L 152.766465 176.316846  L 151.766465 176.243221  L 150.766465 176.204656  L 149.766465 176.169243  L 148.766465 176.111603  L 147.766465 176.041216  L 146.766465 175.989252  L 145.766465 175.930162  L 144.766465 175.841841  L 143.766465 175.795697  L 142.766465 175.753286  L 141.766465 175.722794  L 140.766465 175.696749  L 139.766465 175.675548  L 138.766465 175.621247  L 137.766465 175.59331  L 136.766465 175.563586  L 135.766465 175.538191  L 134.766465 175.526991  L 133.766465 175.516867  L 132.766465 175.517071  L 131.766465 175.526581  L 130.766465 175.538234  L 129.766465 175.569264  L 128.766465 175.580432  L 127.766465 175.610549  L 126.766465 175.670326  L 125.766465 175.707518  L 124.766465 175.746614  L 123.766465 175.789053  L 122.766465 175.821818  L 121.766465 175.889245  L 120.766465 175.928371  L 119.766465 175.971045  L 118.766465 176.041626  L 117.766465 176.078017  L 116.766465 176.13642  L 115.766465 176.247373  L 114.766465 176.318031  L 113.766465 176.430971  L 112.766465 176.476744  L 111.766465 176.538027  L 110.766465 176.586526  L 109.766465 176.667349  L 108.766465 176.785868  L 107.766465 176.856078  L 106.766465 176.939341  L 105.766465 176.972483  L 104.766465 177.02372  L 103.766465 177.092118  L 102.766465 177.158334  L 101.600662 177.235251  "
         clip-path="url(#pb2903b02fc)"
         style="fill: none; stroke-dasharray: 3.7,1.6; stroke-dashoffset: 0; stroke: #ff7f0e"
         id="path24668" />
      <path
         d="M 101.465934 197.228683  L 102.465934 197.260119  L 103.465934 197.29706  L 104.465934 197.394806  L 105.465934 197.427328  L 106.465934 197.500953  L 107.465934 197.539518  L 108.465934 197.574931  L 109.465934 197.632571  L 110.465934 197.702957  L 111.465934 197.754922  L 112.465934 197.814011  L 113.465934 197.902332  L 114.465934 197.948477  L 115.465934 197.990888  L 116.465934 198.02138  L 117.465934 198.047425  L 118.465934 198.068625  L 119.465934 198.122926  L 120.465934 198.150864  L 121.465934 198.180588  L 122.465934 198.205983  L 123.465934 198.217183  L 124.465934 198.227307  L 125.465934 198.227103  L 126.465934 198.217593  L 127.465934 198.205939  L 128.465934 198.17491  L 129.465934 198.163742  L 130.465934 198.133625  L 131.465934 198.073848  L 132.465934 198.036656  L 133.465934 197.99756  L 134.465934 197.95512  L 135.465934 197.922355  L 136.465934 197.854929  L 137.465934 197.815803  L 138.465934 197.773128  L 139.465934 197.702548  L 140.465934 197.666157  L 141.465934 197.607754  L 142.465934 197.496801  L 143.465934 197.426143  L 144.465934 197.313203  L 145.465934 197.26743  L 146.465934 197.206147  L 147.465934 197.157648  L 148.465934 197.076825  L 149.465934 196.958306  L 150.465934 196.888095  L 151.572376 196.804833  "
         clip-path="url(#pb2903b02fc)"
         style="fill: none; stroke-dasharray: 3.7,1.6; stroke-dashoffset: 0; stroke: #1f77b4"
         id="path24670" />
      <path
         d="M 151.572376 197.228683  L 150.572376 197.197247  L 149.572376 197.160306  L 148.572376 197.06256  L 147.572376 197.030038  L 146.572376 196.956413  L 145.572376 196.917848  L 144.572376 196.882435  L 143.572376 196.824795  L 142.572376 196.754408  L 141.572376 196.702444  L 140.572376 196.643354  L 139.572376 196.555034  L 138.572376 196.508889  L 137.572376 196.466478  L 136.572376 196.435986  L 135.572376 196.409941  L 134.572376 196.388741  L 133.572376 196.334439  L 132.572376 196.306502  L 131.572376 196.276778  L 130.572376 196.251383  L 129.572376 196.240183  L 128.572376 196.230059  L 127.572376 196.230263  L 126.572376 196.239773  L 125.572376 196.251427  L 124.572376 196.282456  L 123.572376 196.293624  L 122.572376 196.323741  L 121.572376 196.383518  L 120.572376 196.42071  L 119.572376 196.459806  L 118.572376 196.502245  L 117.572376 196.535011  L 116.572376 196.602437  L 115.572376 196.641563  L 114.572376 196.684237  L 113.572376 196.754818  L 112.572376 196.791209  L 111.572376 196.849612  L 110.572376 196.960565  L 109.572376 197.031223  L 108.572376 197.144163  L 107.572376 197.189936  L 106.572376 197.251219  L 105.572376 197.299718  L 104.572376 197.380541  L 103.572376 197.49906  L 102.572376 197.569271  L 101.465934 197.652533  "
         clip-path="url(#pb2903b02fc)"
         style="fill: none; stroke-dasharray: 3.7,1.6; stroke-dashoffset: 0; stroke: #ff7f0e"
         id="path24672" />
      <g
         id="patch_3">
        <path
           d="M 76.966302 10.8  L 76.966302 52.228375  L 83.73085 52.228375  L 84.857847 217.941875  M 107.744098 10.8  L 107.744098 52.228375  L 100.97955 52.228375  L 99.852553 217.941875  L 99.852553 217.941875  "
           clip-path="url(#pb2903b02fc)"
           style="fill: none; stroke: #1f77b4; stroke-linejoin: miter"
           id="path24674" />
      </g>
      <g
         id="PolyCollection_1">
        <path
           d="M 107.744098 10.8  L 76.966302 10.8  L 76.966302 52.228375  L 83.73085 52.228375  L 83.743041 53.902249  L 83.755215 55.576122  L 83.767371 57.249996  L 83.77951 58.92387  L 83.791633 60.597744  L 83.803738 62.271617  L 83.815825 63.945491  L 83.827896 65.619365  L 83.83995 67.293239  L 83.851986 68.967112  L 83.864006 70.640986  L 83.876009 72.31486  L 83.887994 73.988734  L 83.899963 75.662607  L 83.911915 77.336481  L 83.92385 79.010355  L 83.935768 80.684229  L 83.947669 82.358102  L 83.959554 84.031976  L 83.971421 85.70585  L 83.983272 87.379723  L 83.995106 89.053597  L 84.006923 90.727471  L 84.018724 92.401345  L 84.030508 94.075218  L 84.042275 95.749092  L 84.054026 97.422966  L 84.06576 99.09684  L 84.077478 100.770713  L 84.089178 102.444587  L 84.100863 104.118461  L 84.112531 105.792335  L 84.124182 107.466208  L 84.135817 109.140082  L 84.147435 110.813956  L 84.159037 112.48783  L 84.170623 114.161703  L 84.182192 115.835577  L 84.193745 117.509451  L 84.205282 119.183324  L 84.216802 120.857198  L 84.228306 122.531072  L 84.239794 124.204946  L 84.251265 125.878819  L 84.26272 127.552693  L 84.274159 129.226567  L 84.285582 130.900441  L 84.296989 132.574314  L 84.30838 134.248188  L 84.319754 135.922062  L 84.331112 137.595936  L 84.342455 139.269809  L 84.353781 140.943683  L 84.365092 142.617557  L 84.376386 144.291431  L 84.387664 145.965304  L 84.398927 147.639178  L 84.410173 149.313052  L 84.421404 150.986926  L 84.432619 152.660799  L 84.443818 154.334673  L 84.455001 156.008547  L 84.466168 157.68242  L 84.477319 159.356294  L 84.488455 161.030168  L 84.499575 162.704042  L 84.510679 164.377915  L 84.521768 166.051789  L 84.532841 167.725663  L 84.543898 169.399537  L 84.554939 171.07341  L 84.565965 172.747284  L 84.576976 174.421158  L 84.587971 176.095032  L 84.59895 177.768905  L 84.609914 179.442779  L 84.620862 181.116653  L 84.631795 182.790527  L 84.642712 184.4644  L 84.653614 186.138274  L 84.664501 187.812148  L 84.675372 189.486021  L 84.686228 191.159895  L 84.697068 192.833769  L 84.707893 194.507643  L 84.718703 196.181516  L 84.729497 197.85539  L 84.740277 199.529264  L 84.751041 201.203138  L 84.761789 202.877011  L 84.772523 204.550885  L 84.783241 206.224759  L 84.793945 207.898633  L 84.804633 209.572506  L 84.815306 211.24638  L 84.825964 212.920254  L 84.836607 214.594128  L 84.847235 216.268001  L 84.857847 217.941875  L 99.852553 217.941875  L 99.852553 217.941875  L 99.863165 216.268001  L 99.873793 214.594128  L 99.884436 212.920254  L 99.895094 211.24638  L 99.905767 209.572506  L 99.916455 207.898633  L 99.927159 206.224759  L 99.937877 204.550885  L 99.948611 202.877011  L 99.959359 201.203138  L 99.970123 199.529264  L 99.980903 197.85539  L 99.991697 196.181516  L 100.002507 194.507643  L 100.013332 192.833769  L 100.024172 191.159895  L 100.035028 189.486021  L 100.045899 187.812148  L 100.056786 186.138274  L 100.067688 184.4644  L 100.078605 182.790527  L 100.089538 181.116653  L 100.100486 179.442779  L 100.11145 177.768905  L 100.122429 176.095032  L 100.133424 174.421158  L 100.144435 172.747284  L 100.155461 171.07341  L 100.166502 169.399537  L 100.177559 167.725663  L 100.188632 166.051789  L 100.199721 164.377915  L 100.210825 162.704042  L 100.221945 161.030168  L 100.233081 159.356294  L 100.244232 157.68242  L 100.255399 156.008547  L 100.266582 154.334673  L 100.277781 152.660799  L 100.288996 150.986926  L 100.300227 149.313052  L 100.311473 147.639178  L 100.322736 145.965304  L 100.334014 144.291431  L 100.345308 142.617557  L 100.356619 140.943683  L 100.367945 139.269809  L 100.379288 137.595936  L 100.390646 135.922062  L 100.40202 134.248188  L 100.413411 132.574314  L 100.424818 130.900441  L 100.436241 129.226567  L 100.44768 127.552693  L 100.459135 125.878819  L 100.470606 124.204946  L 100.482094 122.531072  L 100.493598 120.857198  L 100.505118 119.183324  L 100.516655 117.509451  L 100.528208 115.835577  L 100.539777 114.161703  L 100.551363 112.48783  L 100.562965 110.813956  L 100.574583 109.140082  L 100.586218 107.466208  L 100.597869 105.792335  L 100.609537 104.118461  L 100.621222 102.444587  L 100.632922 100.770713  L 100.64464 99.09684  L 100.656374 97.422966  L 100.668125 95.749092  L 100.679892 94.075218  L 100.691676 92.401345  L 100.703477 90.727471  L 100.715294 89.053597  L 100.727128 87.379723  L 100.738979 85.70585  L 100.750846 84.031976  L 100.762731 82.358102  L 100.774632 80.684229  L 100.78655 79.010355  L 100.798485 77.336481  L 100.810437 75.662607  L 100.822406 73.988734  L 100.834391 72.31486  L 100.846394 70.640986  L 100.858414 68.967112  L 100.87045 67.293239  L 100.882504 65.619365  L 100.894575 63.945491  L 100.906662 62.271617  L 100.918767 60.597744  L 100.93089 58.92387  L 100.943029 57.249996  L 100.955185 55.576122  L 100.967359 53.902249  L 100.97955 52.228375  L 107.744098 52.228375  L 107.744098 10.8  z "
           clip-path="url(#pb2903b02fc)"
           style="fill: #1f77b4; fill-opacity: 0.5"
           id="path24677" />
      </g>
      <g
         id="patch_4">
        <path
           d="M 173.602984 52.228375  L 172.404008 70.640986  L 171.087828 87.379723  L 169.682895 102.444587  L 168.228103 115.835577  L 166.548166 129.226567  L 164.866269 140.943683  L 162.958703 152.660799  L 161.121186 162.704042  L 159.074269 172.747284  L 156.794089 182.790527  L 154.254065 192.833769  L 151.917621 201.203138  L 149.361315 209.572506  L 146.564459 217.941875  M 184.563416 52.228375  L 185.762392 70.640986  L 187.078572 87.379723  L 188.483505 102.444587  L 189.938297 115.835577  L 191.618234 129.226567  L 193.300131 140.943683  L 195.207697 152.660799  L 197.045214 162.704042  L 199.092131 172.747284  L 201.372311 182.790527  L 203.912335 192.833769  L 206.248779 201.203138  L 208.805085 209.572506  L 211.601941 217.941875  L 211.601941 217.941875  "
           clip-path="url(#pb2903b02fc)"
           style="fill: none; stroke: #ff7f0e; stroke-linejoin: miter"
           id="path24680" />
      </g>
      <g
         id="PolyCollection_2">
        <path
           d="M 184.563416 52.228375  L 173.602984 52.228375  L 173.503522 53.902249  L 173.402255 55.576122  L 173.299149 57.249996  L 173.194173 58.92387  L 173.087291 60.597744  L 172.978469 62.271617  L 172.867672 63.945491  L 172.754865 65.619365  L 172.64001 67.293239  L 172.52307 68.967112  L 172.404008 70.640986  L 172.282786 72.31486  L 172.159363 73.988734  L 172.0337 75.662607  L 171.905756 77.336481  L 171.775491 79.010355  L 171.642861 80.684229  L 171.507823 82.358102  L 171.370336 84.031976  L 171.230352 85.70585  L 171.087828 87.379723  L 170.942718 89.053597  L 170.794974 90.727471  L 170.644548 92.401345  L 170.491392 94.075218  L 170.335457 95.749092  L 170.176691 97.422966  L 170.015044 99.09684  L 169.850463 100.770713  L 169.682895 102.444587  L 169.512286 104.118461  L 169.338581 105.792335  L 169.161722 107.466208  L 168.981654 109.140082  L 168.798318 110.813956  L 168.611655 112.48783  L 168.421603 114.161703  L 168.228103 115.835577  L 168.03109 117.509451  L 167.830502 119.183324  L 167.626273 120.857198  L 167.418337 122.531072  L 167.206628 124.204946  L 166.991076 125.878819  L 166.771613 127.552693  L 166.548166 129.226567  L 166.320663 130.900441  L 166.089032 132.574314  L 165.853197 134.248188  L 165.613081 135.922062  L 165.368608 137.595936  L 165.119697 139.269809  L 164.866269 140.943683  L 164.608241 142.617557  L 164.345531 144.291431  L 164.078052 145.965304  L 163.805719 147.639178  L 163.528443 149.313052  L 163.246135 150.986926  L 162.958703 152.660799  L 162.666054 154.334673  L 162.368094 156.008547  L 162.064726 157.68242  L 161.755852 159.356294  L 161.441373 161.030168  L 161.121186 162.704042  L 160.795187 164.377915  L 160.463272 166.051789  L 160.125333 167.725663  L 159.781261 169.399537  L 159.430944 171.07341  L 159.074269 172.747284  L 158.71112 174.421158  L 158.341381 176.095032  L 157.964931 177.768905  L 157.581649 179.442779  L 157.19141 181.116653  L 156.794089 182.790527  L 156.389557 184.4644  L 155.977683 186.138274  L 155.558334 187.812148  L 155.131373 189.486021  L 154.696664 191.159895  L 154.254065 192.833769  L 153.803433 194.507643  L 153.344622 196.181516  L 152.877485 197.85539  L 152.401869 199.529264  L 151.917621 201.203138  L 151.424584 202.877011  L 150.922599 204.550885  L 150.411503 206.224759  L 149.891132 207.898633  L 149.361315 209.572506  L 148.821883 211.24638  L 148.272661 212.920254  L 147.713471 214.594128  L 147.144132 216.268001  L 146.564459 217.941875  L 211.601941 217.941875  L 211.601941 217.941875  L 211.022268 216.268001  L 210.452929 214.594128  L 209.893739 212.920254  L 209.344517 211.24638  L 208.805085 209.572506  L 208.275268 207.898633  L 207.754897 206.224759  L 207.243801 204.550885  L 206.741816 202.877011  L 206.248779 201.203138  L 205.764531 199.529264  L 205.288915 197.85539  L 204.821778 196.181516  L 204.362967 194.507643  L 203.912335 192.833769  L 203.469736 191.159895  L 203.035027 189.486021  L 202.608066 187.812148  L 202.188717 186.138274  L 201.776843 184.4644  L 201.372311 182.790527  L 200.97499 181.116653  L 200.584751 179.442779  L 200.201469 177.768905  L 199.825019 176.095032  L 199.45528 174.421158  L 199.092131 172.747284  L 198.735456 171.07341  L 198.385139 169.399537  L 198.041067 167.725663  L 197.703128 166.051789  L 197.371213 164.377915  L 197.045214 162.704042  L 196.725027 161.030168  L 196.410548 159.356294  L 196.101674 157.68242  L 195.798306 156.008547  L 195.500346 154.334673  L 195.207697 152.660799  L 194.920265 150.986926  L 194.637957 149.313052  L 194.360681 147.639178  L 194.088348 145.965304  L 193.820869 144.291431  L 193.558159 142.617557  L 193.300131 140.943683  L 193.046703 139.269809  L 192.797792 137.595936  L 192.553319 135.922062  L 192.313203 134.248188  L 192.077368 132.574314  L 191.845737 130.900441  L 191.618234 129.226567  L 191.394787 127.552693  L 191.175324 125.878819  L 190.959772 124.204946  L 190.748063 122.531072  L 190.540127 120.857198  L 190.335898 119.183324  L 190.13531 117.509451  L 189.938297 115.835577  L 189.744797 114.161703  L 189.554745 112.48783  L 189.368082 110.813956  L 189.184746 109.140082  L 189.004678 107.466208  L 188.827819 105.792335  L 188.654114 104.118461  L 188.483505 102.444587  L 188.315937 100.770713  L 188.151356 99.09684  L 187.989709 97.422966  L 187.830943 95.749092  L 187.675008 94.075218  L 187.521852 92.401345  L 187.371426 90.727471  L 187.223682 89.053597  L 187.078572 87.379723  L 186.936048 85.70585  L 186.796064 84.031976  L 186.658577 82.358102  L 186.523539 80.684229  L 186.390909 79.010355  L 186.260644 77.336481  L 186.1327 75.662607  L 186.007037 73.988734  L 185.883614 72.31486  L 185.762392 70.640986  L 185.64333 68.967112  L 185.52639 67.293239  L 185.411535 65.619365  L 185.298728 63.945491  L 185.187931 62.271617  L 185.079109 60.597744  L 184.972227 58.92387  L 184.867251 57.249996  L 184.764145 55.576122  L 184.662878 53.902249  L 184.563416 52.228375  z "
           clip-path="url(#pb2903b02fc)"
           style="fill: #ff7f0e; fill-opacity: 0.5"
           id="path24683" />
      </g>
      <g
         id="patch_5">
        <path
           d="M 109.741892 52.228375  L 110.741892 52.259811  L 111.741892 52.296752  L 112.741892 52.394498  L 113.741892 52.42702  L 114.741892 52.500645  L 115.741892 52.53921  L 116.741892 52.574623  L 117.741892 52.632263  L 118.741892 52.702649  L 119.741892 52.754614  L 120.741892 52.813703  L 121.741892 52.902024  L 122.741892 52.948169  L 123.741892 52.99058  L 124.741892 53.021072  L 125.741892 53.047117  L 126.741892 53.068317  L 127.741892 53.122618  L 128.741892 53.150556  L 129.741892 53.18028  L 130.741892 53.205675  L 131.741892 53.216875  L 132.741892 53.226999  L 133.741892 53.226795  L 134.741892 53.217285  L 135.741892 53.205631  L 136.741892 53.174602  L 137.741892 53.163434  L 138.741892 53.133317  L 139.741892 53.07354  L 140.741892 53.036348  L 141.741892 52.997252  L 142.741892 52.954812  L 143.741892 52.922047  L 144.741892 52.854621  L 145.741892 52.815495  L 146.741892 52.77282  L 147.741892 52.70224  L 148.741892 52.665849  L 149.741892 52.607446  L 150.741892 52.496493  L 151.741892 52.425835  L 152.741892 52.312895  L 153.741892 52.267122  L 154.741892 52.205839  L 155.741892 52.15734  L 156.741892 52.076517  L 157.741892 51.957998  L 158.741892 51.887787  L 159.741892 51.804525  L 160.741892 51.771383  L 161.741892 51.720146  L 162.741892 51.651747  L 163.741892 51.585532  L 164.741892 51.508615  L 165.741892 51.481299  L 166.741892 51.454822  L 167.741892 51.432171  L 168.741892 51.41264  L 170.485393 51.386246  "
           clip-path="url(#pb2903b02fc)"
           style="fill: none; stroke: #ffffff; stroke-width: 3; stroke-linecap: round"
           id="path24741" />
        <path
           d="M 109.741892 52.228375  L 110.741892 52.259811  L 111.741892 52.296752  L 112.741892 52.394498  L 113.741892 52.42702  L 114.741892 52.500645  L 115.741892 52.53921  L 116.741892 52.574623  L 117.741892 52.632263  L 118.741892 52.702649  L 119.741892 52.754614  L 120.741892 52.813703  L 121.741892 52.902024  L 122.741892 52.948169  L 123.741892 52.99058  L 124.741892 53.021072  L 125.741892 53.047117  L 126.741892 53.068317  L 127.741892 53.122618  L 128.741892 53.150556  L 129.741892 53.18028  L 130.741892 53.205675  L 131.741892 53.216875  L 132.741892 53.226999  L 133.741892 53.226795  L 134.741892 53.217285  L 135.741892 53.205631  L 136.741892 53.174602  L 137.741892 53.163434  L 138.741892 53.133317  L 139.741892 53.07354  L 140.741892 53.036348  L 141.741892 52.997252  L 142.741892 52.954812  L 143.741892 52.922047  L 144.741892 52.854621  L 145.741892 52.815495  L 146.741892 52.77282  L 147.741892 52.70224  L 148.741892 52.665849  L 149.741892 52.607446  L 150.741892 52.496493  L 151.741892 52.425835  L 152.741892 52.312895  L 153.741892 52.267122  L 154.741892 52.205839  L 155.741892 52.15734  L 156.741892 52.076517  L 157.741892 51.957998  L 158.741892 51.887787  L 159.741892 51.804525  L 160.741892 51.771383  L 161.741892 51.720146  L 162.741892 51.651747  L 163.741892 51.585532  L 164.741892 51.508615  L 165.741892 51.481299  L 166.741892 51.454822  L 167.741892 51.432171  L 168.741892 51.41264  L 170.485393 51.386246  "
           clip-path="url(#pb2903b02fc)"
           style="fill: none; stroke: #1f77b4; stroke-linecap: round"
           id="path24743" />
        <path
           d="M 166.485393 50.228375  L 167.365762 50.703706  L 168.243669 51.18396  L 169.094382 51.718601  L 170.396557 52.406048  L 169.469203 52.432063  L 168.557529 52.844783  L 167.647265 53.260322  L 166.304769 53.867126  L 166.959668 53.228375  L 167.011632 52.228375  L 167.070722 50.228375  L 166.485393 50.228375  z "
           clip-path="url(#pb2903b02fc)"
           style="fill: #ffffff; stroke: #ffffff; stroke-width: 3; stroke-linecap: round"
           id="path24745" />
        <path
           d="M 166.485393 50.228375  L 167.365762 50.703706  L 168.243669 51.18396  L 169.094382 51.718601  L 170.396557 52.406048  L 169.469203 52.432063  L 168.557529 52.844783  L 167.647265 53.260322  L 166.304769 53.867126  L 166.959668 53.228375  L 167.011632 52.228375  L 167.070722 50.228375  L 166.485393 50.228375  z "
           clip-path="url(#pb2903b02fc)"
           style="fill: #ffffff; stroke: #1f77b4; stroke-linecap: round"
           id="path24747" />
        <path
           d="M 170.755257 72.949531  "
           clip-path="url(#pb2903b02fc)"
           style="fill: none; stroke-dasharray: 3.7,1.6; stroke-dashoffset: 0; stroke: #1f77b4"
           id="path24749" />
        <path
           d="M 171.755257 72.949531  L 169.755257 71.949531  L 169.755257 73.949531  z "
           clip-path="url(#pb2903b02fc)"
           style="fill: #1f77b4; stroke: #1f77b4; stroke-linejoin: miter"
           id="path24751" />
        <path
           d="M 102.310837 72.949531  "
           clip-path="url(#pb2903b02fc)"
           style="fill: none; stroke-dasharray: 3.7,1.6; stroke-dashoffset: 0; stroke: #ff7f0e"
           id="path24753" />
        <path
           d="M 101.310837 72.949531  L 103.310837 73.949531  L 103.310837 71.949531  z "
           clip-path="url(#pb2903b02fc)"
           style="fill: #ff7f0e; stroke: #ff7f0e; stroke-linejoin: miter"
           id="path24755" />
        <path
           d="M 169.048399 93.662723  "
           clip-path="url(#pb2903b02fc)"
           style="fill: none; stroke-dasharray: 3.7,1.6; stroke-dashoffset: 0; stroke: #1f77b4"
           id="path24757" />
        <path
           d="M 170.048399 93.662723  L 168.048399 92.662723  L 168.048399 94.662723  z "
           clip-path="url(#pb2903b02fc)"
           style="fill: #1f77b4; stroke: #1f77b4; stroke-linejoin: miter"
           id="path24759" />
        <path
           d="M 102.163786 93.662723  "
           clip-path="url(#pb2903b02fc)"
           style="fill: none; stroke-dasharray: 3.7,1.6; stroke-dashoffset: 0; stroke: #ff7f0e"
           id="path24761" />
        <path
           d="M 101.163786 93.662723  L 103.163786 94.662723  L 103.163786 92.662723  z "
           clip-path="url(#pb2903b02fc)"
           style="fill: #ff7f0e; stroke: #ff7f0e; stroke-linejoin: miter"
           id="path24763" />
        <path
           d="M 166.916042 114.375915  "
           clip-path="url(#pb2903b02fc)"
           style="fill: none; stroke-dasharray: 3.7,1.6; stroke-dashoffset: 0; stroke: #1f77b4"
           id="path24765" />
        <path
           d="M 167.916042 114.375915  L 165.916042 113.375915  L 165.916042 115.375915  z "
           clip-path="url(#pb2903b02fc)"
           style="fill: #1f77b4; stroke: #1f77b4; stroke-linejoin: miter"
           id="path24767" />
        <path
           d="M 102.019288 114.375915  "
           clip-path="url(#pb2903b02fc)"
           style="fill: none; stroke-dasharray: 3.7,1.6; stroke-dashoffset: 0; stroke: #ff7f0e"
           id="path24769" />
        <path
           d="M 101.019288 114.375915  L 103.019288 115.375915  L 103.019288 113.375915  z "
           clip-path="url(#pb2903b02fc)"
           style="fill: #ff7f0e; stroke: #ff7f0e; stroke-linejoin: miter"
           id="path24771" />
        <path
           d="M 164.252115 135.089107  "
           clip-path="url(#pb2903b02fc)"
           style="fill: none; stroke-dasharray: 3.7,1.6; stroke-dashoffset: 0; stroke: #1f77b4"
           id="path24773" />
        <path
           d="M 165.252115 135.089107  L 163.252115 134.089107  L 163.252115 136.089107  z "
           clip-path="url(#pb2903b02fc)"
           style="fill: #1f77b4; stroke: #1f77b4; stroke-linejoin: miter"
           id="path24775" />
        <path
           d="M 101.877296 135.089107  "
           clip-path="url(#pb2903b02fc)"
           style="fill: none; stroke-dasharray: 3.7,1.6; stroke-dashoffset: 0; stroke: #ff7f0e"
           id="path24777" />
        <path
           d="M 100.877296 135.089107  L 102.877296 136.089107  L 102.877296 134.089107  z "
           clip-path="url(#pb2903b02fc)"
           style="fill: #ff7f0e; stroke: #ff7f0e; stroke-linejoin: miter"
           id="path24779" />
        <path
           d="M 160.924106 155.802299  "
           clip-path="url(#pb2903b02fc)"
           style="fill: none; stroke-dasharray: 3.7,1.6; stroke-dashoffset: 0; stroke: #1f77b4"
           id="path24781" />
        <path
           d="M 161.924106 155.802299  L 159.924106 154.802299  L 159.924106 156.802299  z "
           clip-path="url(#pb2903b02fc)"
           style="fill: #1f77b4; stroke: #1f77b4; stroke-linejoin: miter"
           id="path24783" />
        <path
           d="M 101.737769 155.802299  "
           clip-path="url(#pb2903b02fc)"
           style="fill: none; stroke-dasharray: 3.7,1.6; stroke-dashoffset: 0; stroke: #ff7f0e"
           id="path24785" />
        <path
           d="M 100.737769 155.802299  L 102.737769 156.802299  L 102.737769 154.802299  z "
           clip-path="url(#pb2903b02fc)"
           style="fill: #ff7f0e; stroke: #ff7f0e; stroke-linejoin: miter"
           id="path24787" />
        <path
           d="M 156.766465 176.515491  "
           clip-path="url(#pb2903b02fc)"
           style="fill: none; stroke-dasharray: 3.7,1.6; stroke-dashoffset: 0; stroke: #1f77b4"
           id="path24789" />
        <path
           d="M 157.766465 176.515491  L 155.766465 175.515491  L 155.766465 177.515491  z "
           clip-path="url(#pb2903b02fc)"
           style="fill: #1f77b4; stroke: #1f77b4; stroke-linejoin: miter"
           id="path24791" />
        <path
           d="M 101.600662 176.515491  "
           clip-path="url(#pb2903b02fc)"
           style="fill: none; stroke-dasharray: 3.7,1.6; stroke-dashoffset: 0; stroke: #ff7f0e"
           id="path24793" />
        <path
           d="M 100.600662 176.515491  L 102.600662 177.515491  L 102.600662 175.515491  z "
           clip-path="url(#pb2903b02fc)"
           style="fill: #ff7f0e; stroke: #ff7f0e; stroke-linejoin: miter"
           id="path24795" />
        <path
           d="M 151.572376 197.228683  "
           clip-path="url(#pb2903b02fc)"
           style="fill: none; stroke-dasharray: 3.7,1.6; stroke-dashoffset: 0; stroke: #1f77b4"
           id="path24797" />
        <path
           d="M 152.572376 197.228683  L 150.572376 196.228683  L 150.572376 198.228683  z "
           clip-path="url(#pb2903b02fc)"
           style="fill: #1f77b4; stroke: #1f77b4; stroke-linejoin: miter"
           id="path24799" />
        <path
           d="M 101.465934 197.228683  "
           clip-path="url(#pb2903b02fc)"
           style="fill: none; stroke-dasharray: 3.7,1.6; stroke-dashoffset: 0; stroke: #ff7f0e"
           id="path24801" />
        <path
           d="M 100.465934 197.228683  L 102.465934 198.228683  L 102.465934 196.228683  z "
           clip-path="url(#pb2903b02fc)"
           style="fill: #ff7f0e; stroke: #ff7f0e; stroke-linejoin: miter"
           id="path24803" />
      </g>
    </g>
    <defs
       id="defs24813">
      <clipPath
         id="pb2903b02fc">
        <rect
           x="14.3"
           y="10.8"
           width="216.82"
           height="207.141875"
           id="rect24810" />
      </clipPath>
    </defs>
  </g>
</svg>
