<?xml version="1.0" encoding="UTF-8" standalone="no"?>
<svg
   width="241.92pt"
   height="241.92pt"
   viewBox="0 0 241.92 241.92"
   version="1.1"
   id="svg152939"
   sodipodi:docname="nomig.svg"
   inkscape:version="1.2.2 (1:1.2.2+202212051552+b0a8486541)"
   xmlns:inkscape="http://www.inkscape.org/namespaces/inkscape"
   xmlns:sodipodi="http://sodipodi.sourceforge.net/DTD/sodipodi-0.dtd"
   xmlns="http://www.w3.org/2000/svg"
   xmlns:svg="http://www.w3.org/2000/svg"
   xmlns:rdf="http://www.w3.org/1999/02/22-rdf-syntax-ns#"
   xmlns:cc="http://creativecommons.org/ns#"
   xmlns:dc="http://purl.org/dc/elements/1.1/">
  <sodipodi:namedview
     id="namedview152941"
     pagecolor="#ffffff"
     bordercolor="#000000"
     borderopacity="0.25"
     inkscape:showpageshadow="2"
     inkscape:pageopacity="0.0"
     inkscape:pagecheckerboard="0"
     inkscape:deskcolor="#d1d1d1"
     inkscape:document-units="pt"
     showgrid="false"
     inkscape:zoom="0.73164683"
     inkscape:cx="160.59661"
     inkscape:cy="161.28"
     inkscape:window-width="1223"
     inkscape:window-height="779"
     inkscape:window-x="57"
     inkscape:window-y="21"
     inkscape:window-maximized="1"
     inkscape:current-layer="figure_1" />
  <metadata
     id="metadata152841">
    <rdf:RDF>
      <cc:Work>
        <dc:type
           rdf:resource="http://purl.org/dc/dcmitype/StillImage" />
        <dc:date>2023-02-27T16:05:28.316416</dc:date>
        <dc:format>image/svg+xml</dc:format>
        <dc:creator>
          <cc:Agent>
            <dc:title>Matplotlib v3.5.0, https://matplotlib.org/</dc:title>
          </cc:Agent>
        </dc:creator>
      </cc:Work>
    </rdf:RDF>
  </metadata>
  <defs
     id="defs152845">
    <style
       type="text/css"
       id="style152843">*{stroke-linejoin: round; stroke-linecap: butt}</style>
  </defs>
  <g
     id="figure_1">
    <g
       id="axes_1">
      <g
         id="patch_3">
        <path
           d="M 75.825624 10.8  L 75.825624 125.291706  L 87.064812 125.291706  L 85.906816 158.982677  L 84.623933 189.866066  L 83.237468 217.941875  M 108.884776 10.8  L 108.884776 125.291706  L 97.645588 125.291706  L 98.803584 158.982677  L 100.086467 189.866066  L 101.472932 217.941875  L 101.472932 217.941875  "
           clip-path="url(#p63700c349d)"
           style="fill: none; stroke: #1f77b4; stroke-linejoin: miter"
           id="path152853" />
      </g>
      <g
         id="PolyCollection_1">
        <path
           d="M 108.884776 10.8  L 75.825624 10.8  L 75.825624 52.228375  L 75.825624 52.228375  L 75.825624 125.291706  L 87.064812 125.291706  L 87.035644 126.227566  L 87.006315 127.163427  L 86.976824 128.099287  L 86.947171 129.035147  L 86.917354 129.971008  L 86.887373 130.906868  L 86.857227 131.842728  L 86.826914 132.778589  L 86.796434 133.714449  L 86.765787 134.650309  L 86.73497 135.586169  L 86.703983 136.52203  L 86.672826 137.45789  L 86.641496 138.39375  L 86.609994 139.329611  L 86.578319 140.265471  L 86.546468 141.201331  L 86.514442 142.137191  L 86.48224 143.073052  L 86.449859 144.008912  L 86.417301 144.944772  L 86.384563 145.880633  L 86.351644 146.816493  L 86.318544 147.752353  L 86.285261 148.688213  L 86.251795 149.624074  L 86.218145 150.559934  L 86.184308 151.495794  L 86.150286 152.431655  L 86.116075 153.367515  L 86.081676 154.303375  L 86.047088 155.239236  L 86.012309 156.175096  L 85.977338 157.110956  L 85.942174 158.046816  L 85.906816 158.982677  L 85.871263 159.918537  L 85.835515 160.854397  L 85.799569 161.790258  L 85.763425 162.726118  L 85.727082 163.661978  L 85.690538 164.597838  L 85.653793 165.533699  L 85.616845 166.469559  L 85.579694 167.405419  L 85.542338 168.34128  L 85.504776 169.27714  L 85.467006 170.213  L 85.429029 171.14886  L 85.390842 172.084721  L 85.352444 173.020581  L 85.313835 173.956441  L 85.275013 174.892302  L 85.235977 175.828162  L 85.196726 176.764022  L 85.157258 177.699882  L 85.117573 178.635743  L 85.077669 179.571603  L 85.037545 180.507463  L 84.9972 181.443324  L 84.956632 182.379184  L 84.91584 183.315044  L 84.874824 184.250905  L 84.833582 185.186765  L 84.792112 186.122625  L 84.750413 187.058485  L 84.708485 187.994346  L 84.666325 188.930206  L 84.623933 189.866066  L 84.581308 190.801927  L 84.538447 191.737787  L 84.49535 192.673647  L 84.452015 193.609507  L 84.408442 194.545368  L 84.364628 195.481228  L 84.320572 196.417088  L 84.276274 197.352949  L 84.231732 198.288809  L 84.186943 199.224669  L 84.141908 200.160529  L 84.096625 201.09639  L 84.051092 202.03225  L 84.005308 202.96811  L 83.959272 203.903971  L 83.912981 204.839831  L 83.866436 205.775691  L 83.819634 206.711552  L 83.772573 207.647412  L 83.725254 208.583272  L 83.677673 209.519132  L 83.62983 210.454993  L 83.581724 211.390853  L 83.533352 212.326713  L 83.484713 213.262574  L 83.435807 214.198434  L 83.38663 215.134294  L 83.337183 216.070154  L 83.287463 217.006015  L 83.237468 217.941875  L 101.472932 217.941875  L 101.472932 217.941875  L 101.422937 217.006015  L 101.373217 216.070154  L 101.32377 215.134294  L 101.274593 214.198434  L 101.225687 213.262574  L 101.177048 212.326713  L 101.128676 211.390853  L 101.08057 210.454993  L 101.032727 209.519132  L 100.985146 208.583272  L 100.937827 207.647412  L 100.890766 206.711552  L 100.843964 205.775691  L 100.797419 204.839831  L 100.751128 203.903971  L 100.705092 202.96811  L 100.659308 202.03225  L 100.613775 201.09639  L 100.568492 200.160529  L 100.523457 199.224669  L 100.478668 198.288809  L 100.434126 197.352949  L 100.389828 196.417088  L 100.345772 195.481228  L 100.301958 194.545368  L 100.258385 193.609507  L 100.21505 192.673647  L 100.171953 191.737787  L 100.129092 190.801927  L 100.086467 189.866066  L 100.044075 188.930206  L 100.001915 187.994346  L 99.959987 187.058485  L 99.918288 186.122625  L 99.876818 185.186765  L 99.835576 184.250905  L 99.79456 183.315044  L 99.753768 182.379184  L 99.7132 181.443324  L 99.672855 180.507463  L 99.632731 179.571603  L 99.592827 178.635743  L 99.553142 177.699882  L 99.513674 176.764022  L 99.474423 175.828162  L 99.435387 174.892302  L 99.396565 173.956441  L 99.357956 173.020581  L 99.319558 172.084721  L 99.281371 171.14886  L 99.243394 170.213  L 99.205624 169.27714  L 99.168062 168.34128  L 99.130706 167.405419  L 99.093555 166.469559  L 99.056607 165.533699  L 99.019862 164.597838  L 98.983318 163.661978  L 98.946975 162.726118  L 98.910831 161.790258  L 98.874885 160.854397  L 98.839137 159.918537  L 98.803584 158.982677  L 98.768226 158.046816  L 98.733062 157.110956  L 98.698091 156.175096  L 98.663312 155.239236  L 98.628724 154.303375  L 98.594325 153.367515  L 98.560114 152.431655  L 98.526092 151.495794  L 98.492255 150.559934  L 98.458605 149.624074  L 98.425139 148.688213  L 98.391856 147.752353  L 98.358756 146.816493  L 98.325837 145.880633  L 98.293099 144.944772  L 98.260541 144.008912  L 98.22816 143.073052  L 98.195958 142.137191  L 98.163932 141.201331  L 98.132081 140.265471  L 98.100406 139.329611  L 98.068904 138.39375  L 98.037574 137.45789  L 98.006417 136.52203  L 97.97543 135.586169  L 97.944613 134.650309  L 97.913966 133.714449  L 97.883486 132.778589  L 97.853173 131.842728  L 97.823027 130.906868  L 97.793046 129.971008  L 97.763229 129.035147  L 97.733576 128.099287  L 97.704085 127.163427  L 97.674756 126.227566  L 97.645588 125.291706  L 108.884776 125.291706  L 108.884776 52.228375  L 108.884776 52.228375  L 108.884776 10.8  z "
           clip-path="url(#p63700c349d)"
           style="fill: #1f77b4; fill-opacity: 0.5"
           id="path152856" />
      </g>
      <g
         id="patch_4">
        <path
           d="M 169.106112 125.291706  L 167.535839 134.650309  L 165.91235 143.073052  L 164.060609 151.495794  L 162.197153 158.982677  L 160.102548 166.469559  L 158.057697 173.020581  L 155.792548 179.571603  L 153.283366 186.122625  L 150.918556 191.737787  L 148.336987 197.352949  L 145.518792 202.96811  L 142.442281 208.583272  L 139.083778 214.198434  L 136.675444 217.941875  M 189.060288 125.291706  L 190.630561 134.650309  L 192.25405 143.073052  L 194.105791 151.495794  L 195.969247 158.982677  L 198.063852 166.469559  L 200.108703 173.020581  L 202.373852 179.571603  L 204.883034 186.122625  L 207.247844 191.737787  L 209.829413 197.352949  L 212.647608 202.96811  L 215.724119 208.583272  L 219.082622 214.198434  L 221.490956 217.941875  L 221.490956 217.941875  "
           clip-path="url(#p63700c349d)"
           style="fill: none; stroke: #ff7f0e; stroke-linejoin: miter"
           id="path152859" />
      </g>
      <g
         id="PolyCollection_2">
        <path
           d="M 189.060288 125.291706  L 169.106112 125.291706  L 168.95921 126.227566  L 168.810145 127.163427  L 168.658886 128.099287  L 168.505399 129.035147  L 168.349652 129.971008  L 168.191613 130.906868  L 168.031246 131.842728  L 167.868518 132.778589  L 167.703394 133.714449  L 167.535839 134.650309  L 167.365816 135.586169  L 167.193291 136.52203  L 167.018225 137.45789  L 166.840581 138.39375  L 166.660322 139.329611  L 166.477409 140.265471  L 166.291802 141.201331  L 166.103463 142.137191  L 165.91235 143.073052  L 165.718424 144.008912  L 165.521642 144.944772  L 165.321963 145.880633  L 165.119344 146.816493  L 164.913741 147.752353  L 164.705111 148.688213  L 164.49341 149.624074  L 164.278591 150.559934  L 164.060609 151.495794  L 163.839418 152.431655  L 163.61497 153.367515  L 163.387217 154.303375  L 163.156111 155.239236  L 162.921602 156.175096  L 162.68364 157.110956  L 162.442174 158.046816  L 162.197153 158.982677  L 161.948525 159.918537  L 161.696235 160.854397  L 161.440231 161.790258  L 161.180458 162.726118  L 160.916859 163.661978  L 160.64938 164.597838  L 160.377962 165.533699  L 160.102548 166.469559  L 159.823078 167.405419  L 159.539494 168.34128  L 159.251734 169.27714  L 158.959737 170.213  L 158.663441 171.14886  L 158.362783 172.084721  L 158.057697 173.020581  L 157.748119 173.956441  L 157.433984 174.892302  L 157.115223 175.828162  L 156.791768 176.764022  L 156.463551 177.699882  L 156.130501 178.635743  L 155.792548 179.571603  L 155.449618 180.507463  L 155.10164 181.443324  L 154.748537 182.379184  L 154.390236 183.315044  L 154.026659 184.250905  L 153.657729 185.186765  L 153.283366 186.122625  L 152.903492 187.058485  L 152.518024 187.994346  L 152.126881 188.930206  L 151.729979 189.866066  L 151.327232 190.801927  L 150.918556 191.737787  L 150.503862 192.673647  L 150.083063 193.609507  L 149.656067 194.545368  L 149.222785 195.481228  L 148.783123 196.417088  L 148.336987 197.352949  L 147.884283 198.288809  L 147.424913 199.224669  L 146.958779 200.160529  L 146.485782 201.09639  L 146.00582 202.03225  L 145.518792 202.96811  L 145.024593 203.903971  L 144.523117 204.839831  L 144.014257 205.775691  L 143.497905 206.711552  L 142.973951 207.647412  L 142.442281 208.583272  L 141.902784 209.519132  L 141.355343 210.454993  L 140.799841 211.390853  L 140.23616 212.326713  L 139.66418 213.262574  L 139.083778 214.198434  L 138.49483 215.134294  L 137.897211 216.070154  L 137.290792 217.006015  L 136.675444 217.941875  L 221.490956 217.941875  L 221.490956 217.941875  L 220.875608 217.006015  L 220.269189 216.070154  L 219.67157 215.134294  L 219.082622 214.198434  L 218.50222 213.262574  L 217.93024 212.326713  L 217.366559 211.390853  L 216.811057 210.454993  L 216.263616 209.519132  L 215.724119 208.583272  L 215.192449 207.647412  L 214.668495 206.711552  L 214.152143 205.775691  L 213.643283 204.839831  L 213.141807 203.903971  L 212.647608 202.96811  L 212.16058 202.03225  L 211.680618 201.09639  L 211.207621 200.160529  L 210.741487 199.224669  L 210.282117 198.288809  L 209.829413 197.352949  L 209.383277 196.417088  L 208.943615 195.481228  L 208.510333 194.545368  L 208.083337 193.609507  L 207.662538 192.673647  L 207.247844 191.737787  L 206.839168 190.801927  L 206.436421 189.866066  L 206.039519 188.930206  L 205.648376 187.994346  L 205.262908 187.058485  L 204.883034 186.122625  L 204.508671 185.186765  L 204.139741 184.250905  L 203.776164 183.315044  L 203.417863 182.379184  L 203.06476 181.443324  L 202.716782 180.507463  L 202.373852 179.571603  L 202.035899 178.635743  L 201.702849 177.699882  L 201.374632 176.764022  L 201.051177 175.828162  L 200.732416 174.892302  L 200.418281 173.956441  L 200.108703 173.020581  L 199.803617 172.084721  L 199.502959 171.14886  L 199.206663 170.213  L 198.914666 169.27714  L 198.626906 168.34128  L 198.343322 167.405419  L 198.063852 166.469559  L 197.788438 165.533699  L 197.51702 164.597838  L 197.249541 163.661978  L 196.985942 162.726118  L 196.726169 161.790258  L 196.470165 160.854397  L 196.217875 159.918537  L 195.969247 158.982677  L 195.724226 158.046816  L 195.48276 157.110956  L 195.244798 156.175096  L 195.010289 155.239236  L 194.779183 154.303375  L 194.55143 153.367515  L 194.326982 152.431655  L 194.105791 151.495794  L 193.887809 150.559934  L 193.67299 149.624074  L 193.461289 148.688213  L 193.252659 147.752353  L 193.047056 146.816493  L 192.844437 145.880633  L 192.644758 144.944772  L 192.447976 144.008912  L 192.25405 143.073052  L 192.062937 142.137191  L 191.874598 141.201331  L 191.688991 140.265471  L 191.506078 139.329611  L 191.325819 138.39375  L 191.148175 137.45789  L 190.973109 136.52203  L 190.800584 135.586169  L 190.630561 134.650309  L 190.463006 133.714449  L 190.297882 132.778589  L 190.135154 131.842728  L 189.974787 130.906868  L 189.816748 129.971008  L 189.661001 129.035147  L 189.507514 128.099287  L 189.356255 127.163427  L 189.20719 126.227566  L 189.060288 125.291706  z "
           clip-path="url(#p63700c349d)"
           style="fill: #ff7f0e; fill-opacity: 0.5"
           id="path152862" />
      </g>
      <g
         id="patch_5">
        <path
           d="M 110.887988 125.291706  L 111.887988 125.323143  L 112.887988 125.360083  L 113.887988 125.45783  L 114.887988 125.490351  L 115.887988 125.563976  L 116.887988 125.602541  L 117.887988 125.637955  L 118.887988 125.695595  L 119.887988 125.765981  L 120.887988 125.817945  L 121.887988 125.877035  L 122.887988 125.965356  L 123.887988 126.0115  L 124.887988 126.053911  L 125.887988 126.084404  L 126.887988 126.110449  L 127.887988 126.131649  L 128.887988 126.18595  L 129.887988 126.213887  L 130.887988 126.243611  L 131.887988 126.269006  L 132.887988 126.280206  L 133.887988 126.29033  L 134.887988 126.290126  L 135.887988 126.280616  L 136.887988 126.268963  L 137.887988 126.237933  L 138.887988 126.226765  L 139.887988 126.196648  L 140.887988 126.136871  L 141.887988 126.099679  L 142.887988 126.060583  L 143.887988 126.018144  L 144.887988 125.985379  L 145.887988 125.917952  L 146.887988 125.878826  L 147.887988 125.836152  L 148.887988 125.765571  L 149.887988 125.72918  L 150.887988 125.670777  L 151.887988 125.559824  L 152.887988 125.489166  L 153.887988 125.376226  L 154.887988 125.330453  L 155.887988 125.26917  L 156.887988 125.220671  L 157.887988 125.139848  L 158.887988 125.021329  L 159.887988 124.951119  L 160.887988 124.867856  L 161.887988 124.834714  L 162.887988 124.783477  L 163.887988 124.715079  L 164.887988 124.648863  L 165.98754 124.571946  "
           clip-path="url(#p63700c349d)"
           style="fill: none; stroke: #ffffff; stroke-width: 3; stroke-linecap: round"
           id="path152920" />
        <path
           d="M 110.887988 125.291706  L 111.887988 125.323143  L 112.887988 125.360083  L 113.887988 125.45783  L 114.887988 125.490351  L 115.887988 125.563976  L 116.887988 125.602541  L 117.887988 125.637955  L 118.887988 125.695595  L 119.887988 125.765981  L 120.887988 125.817945  L 121.887988 125.877035  L 122.887988 125.965356  L 123.887988 126.0115  L 124.887988 126.053911  L 125.887988 126.084404  L 126.887988 126.110449  L 127.887988 126.131649  L 128.887988 126.18595  L 129.887988 126.213887  L 130.887988 126.243611  L 131.887988 126.269006  L 132.887988 126.280206  L 133.887988 126.29033  L 134.887988 126.290126  L 135.887988 126.280616  L 136.887988 126.268963  L 137.887988 126.237933  L 138.887988 126.226765  L 139.887988 126.196648  L 140.887988 126.136871  L 141.887988 126.099679  L 142.887988 126.060583  L 143.887988 126.018144  L 144.887988 125.985379  L 145.887988 125.917952  L 146.887988 125.878826  L 147.887988 125.836152  L 148.887988 125.765571  L 149.887988 125.72918  L 150.887988 125.670777  L 151.887988 125.559824  L 152.887988 125.489166  L 153.887988 125.376226  L 154.887988 125.330453  L 155.887988 125.26917  L 156.887988 125.220671  L 157.887988 125.139848  L 158.887988 125.021329  L 159.887988 124.951119  L 160.887988 124.867856  L 161.887988 124.834714  L 162.887988 124.783477  L 163.887988 124.715079  L 164.887988 124.648863  L 165.98754 124.571946  "
           clip-path="url(#p63700c349d)"
           style="fill: none; stroke: #1f77b4; stroke-linecap: round"
           id="path152922" />
        <path
           d="M 161.98754 123.291706  L 162.867909 123.767037  L 163.745816 124.247291  L 164.596529 124.781932  L 165.898704 125.46938  L 164.971351 125.495394  L 164.059676 125.908114  L 163.149412 126.323653  L 161.806916 126.930458  L 162.461815 126.291706  L 162.513779 125.291706  L 162.572869 123.291706  L 161.98754 123.291706  z "
           clip-path="url(#p63700c349d)"
           style="fill: #ffffff; stroke: #ffffff; stroke-width: 3; stroke-linecap: round"
           id="path152924" />
        <path
           d="M 161.98754 123.291706  L 162.867909 123.767037  L 163.745816 124.247291  L 164.596529 124.781932  L 165.898704 125.46938  L 164.971351 125.495394  L 164.059676 125.908114  L 163.149412 126.323653  L 161.806916 126.930458  L 162.461815 126.291706  L 162.513779 125.291706  L 162.572869 123.291706  L 161.98754 123.291706  z "
           clip-path="url(#p63700c349d)"
           style="fill: #ffffff; stroke: #1f77b4; stroke-linecap: round"
           id="path152926" />
      </g>
    </g>
    <defs
       id="defs152936">
      <clipPath
         id="p63700c349d">
        <rect
           x="14.3"
           y="10.8"
           width="216.82"
           height="207.141875"
           id="rect152933" />
      </clipPath>
    </defs>
  </g>
</svg>
